{
  "header": {
    "keySignatures": [
      {
        "key": "C",
        "scale": "major",
        "ticks": 0
      }
    ],
    "meta": {
      "title": "Numb",
      "artist": "Linkin Park",
      "creator": "unknown"
    },
    "name": "Track 0",
    "ppq": 960,
    "tempos": [
      {
        "bpm": 109.99990833340972,
        "ticks": 0
      }
    ],
    "timeSignatures": []
  },
  "tracks": [
    {
      "channel": 0,
      "controlChanges": {
        "7": [
          {
            "number": 7,
            "ticks": 0,
            "time": 0,
            "value": 0.905511811023622
          }
        ]
      },
      "pitchBends": [],
      "instrument": {
        "family": "synth lead",
        "number": 82,
        "name": "lead 3 (calliope)"
      },
      "name": "Track 1",
      "notes": [
        {
          "duration": 0.2727274999999998,
          "durationTicks": 480,
          "midi": 73,
          "name": "C#5",
          "ticks": 6240,
          "time": 3.5454575000000004,
          "velocity": 1
        },
        {
          "duration": 0.2727274999999998,
          "durationTicks": 480,
          "midi": 76,
          "name": "E5",
          "ticks": 6720,
          "time": 3.818185,
          "velocity": 1
        },
        {
          "duration": 0.27272750000000023,
          "durationTicks": 480,
          "midi": 73,
          "name": "C#5",
          "ticks": 7200,
          "time": 4.0909125,
          "velocity": 1
        },
        {
          "duration": 0.8181824999999998,
          "durationTicks": 1440,
          "midi": 78,
          "name": "F#5",
          "ticks": 7680,
          "time": 4.36364,
          "velocity": 1
        },
        {
          "duration": 0.8181824999999998,
          "durationTicks": 1440,
          "midi": 81,
          "name": "A5",
          "ticks": 9120,
          "time": 5.1818225,
          "velocity": 1
        },
        {
          "duration": 1.6363650000000005,
          "durationTicks": 2880,
          "midi": 80,
          "name": "G#5",
          "ticks": 10560,
          "time": 6.000005,
          "velocity": 1
        },
        {
          "duration": 0.27272749999999935,
          "durationTicks": 480,
          "midi": 73,
          "name": "C#5",
          "ticks": 13920,
          "time": 7.909097500000001,
          "velocity": 1
        },
        {
          "duration": 0.27272750000000023,
          "durationTicks": 480,
          "midi": 76,
          "name": "E5",
          "ticks": 14400,
          "time": 8.181825,
          "velocity": 1
        },
        {
          "duration": 0.27272750000000023,
          "durationTicks": 480,
          "midi": 73,
          "name": "C#5",
          "ticks": 14880,
          "time": 8.4545525,
          "velocity": 1
        },
        {
          "duration": 0.8181825000000007,
          "durationTicks": 1440,
          "midi": 81,
          "name": "A5",
          "ticks": 15360,
          "time": 8.72728,
          "velocity": 1
        },
        {
          "duration": 0.8181824999999989,
          "durationTicks": 1440,
          "midi": 80,
          "name": "G#5",
          "ticks": 16800,
          "time": 9.545462500000001,
          "velocity": 1
        },
        {
          "duration": 1.6363649999999996,
          "durationTicks": 2880,
          "midi": 76,
          "name": "E5",
          "ticks": 18240,
          "time": 10.363645,
          "velocity": 1
        },
        {
          "duration": 0.27272750000000023,
          "durationTicks": 480,
          "midi": 73,
          "name": "C#5",
          "ticks": 21600,
          "time": 12.2727375,
          "velocity": 1
        },
        {
          "duration": 0.27272750000000023,
          "durationTicks": 480,
          "midi": 76,
          "name": "E5",
          "ticks": 22080,
          "time": 12.545465,
          "velocity": 1
        },
        {
          "duration": 0.27272750000000023,
          "durationTicks": 480,
          "midi": 73,
          "name": "C#5",
          "ticks": 22560,
          "time": 12.8181925,
          "velocity": 1
        },
        {
          "duration": 0.8181825000000007,
          "durationTicks": 1440,
          "midi": 78,
          "name": "F#5",
          "ticks": 23040,
          "time": 13.09092,
          "velocity": 1
        },
        {
          "duration": 0.8181824999999989,
          "durationTicks": 1440,
          "midi": 81,
          "name": "A5",
          "ticks": 24480,
          "time": 13.909102500000001,
          "velocity": 1
        },
        {
          "duration": 1.6363649999999996,
          "durationTicks": 2880,
          "midi": 80,
          "name": "G#5",
          "ticks": 25920,
          "time": 14.727285,
          "velocity": 1
        },
        {
          "duration": 0.27272749999999846,
          "durationTicks": 480,
          "midi": 73,
          "name": "C#5",
          "ticks": 29280,
          "time": 16.636377500000002,
          "velocity": 1
        },
        {
          "duration": 0.272727500000002,
          "durationTicks": 480,
          "midi": 76,
          "name": "E5",
          "ticks": 29760,
          "time": 16.909105,
          "velocity": 1
        },
        {
          "duration": 0.27272749999999846,
          "durationTicks": 480,
          "midi": 73,
          "name": "C#5",
          "ticks": 30240,
          "time": 17.181832500000002,
          "velocity": 1
        },
        {
          "duration": 0.8181824999999989,
          "durationTicks": 1440,
          "midi": 81,
          "name": "A5",
          "ticks": 30720,
          "time": 17.45456,
          "velocity": 1
        },
        {
          "duration": 0.8181825000000025,
          "durationTicks": 1440,
          "midi": 80,
          "name": "G#5",
          "ticks": 32160,
          "time": 18.2727425,
          "velocity": 1
        },
        {
          "duration": 1.6363649999999978,
          "durationTicks": 2880,
          "midi": 76,
          "name": "E5",
          "ticks": 33600,
          "time": 19.090925000000002,
          "velocity": 1
        },
        {
          "duration": 0.27272749999999846,
          "durationTicks": 480,
          "midi": 73,
          "name": "C#5",
          "ticks": 36960,
          "time": 21.000017500000002,
          "velocity": 1
        },
        {
          "duration": 0.272727500000002,
          "durationTicks": 480,
          "midi": 76,
          "name": "E5",
          "ticks": 37440,
          "time": 21.272745,
          "velocity": 1
        },
        {
          "duration": 0.27272749999999846,
          "durationTicks": 480,
          "midi": 73,
          "name": "C#5",
          "ticks": 37920,
          "time": 21.545472500000002,
          "velocity": 1
        },
        {
          "duration": 0.8181824999999989,
          "durationTicks": 1440,
          "midi": 78,
          "name": "F#5",
          "ticks": 38400,
          "time": 21.8182,
          "velocity": 1
        },
        {
          "duration": 0.272727500000002,
          "durationTicks": 480,
          "midi": 73,
          "name": "C#5",
          "ticks": 278880,
          "time": 158.4546775,
          "velocity": 1
        },
        {
          "duration": 0.272727500000002,
          "durationTicks": 480,
          "midi": 76,
          "name": "E5",
          "ticks": 279360,
          "time": 158.727405,
          "velocity": 1
        },
        {
          "duration": 0.272727500000002,
          "durationTicks": 480,
          "midi": 73,
          "name": "C#5",
          "ticks": 279840,
          "time": 159.0001325,
          "velocity": 1
        },
        {
          "duration": 0.818182500000006,
          "durationTicks": 1440,
          "midi": 78,
          "name": "F#5",
          "ticks": 280320,
          "time": 159.27286,
          "velocity": 1
        },
        {
          "duration": 0.818182500000006,
          "durationTicks": 1440,
          "midi": 81,
          "name": "A5",
          "ticks": 281760,
          "time": 160.09104250000001,
          "velocity": 1
        },
        {
          "duration": 1.6363649999999836,
          "durationTicks": 2880,
          "midi": 80,
          "name": "G#5",
          "ticks": 283200,
          "time": 160.90922500000002,
          "velocity": 1
        },
        {
          "duration": 0.272727500000002,
          "durationTicks": 480,
          "midi": 73,
          "name": "C#5",
          "ticks": 286560,
          "time": 162.8183175,
          "velocity": 1
        },
        {
          "duration": 0.272727500000002,
          "durationTicks": 480,
          "midi": 76,
          "name": "E5",
          "ticks": 287040,
          "time": 163.091045,
          "velocity": 1
        },
        {
          "duration": 0.272727500000002,
          "durationTicks": 480,
          "midi": 73,
          "name": "C#5",
          "ticks": 287520,
          "time": 163.3637725,
          "velocity": 1
        },
        {
          "duration": 0.818182500000006,
          "durationTicks": 1440,
          "midi": 81,
          "name": "A5",
          "ticks": 288000,
          "time": 163.6365,
          "velocity": 1
        },
        {
          "duration": 0.8181824999999776,
          "durationTicks": 1440,
          "midi": 80,
          "name": "G#5",
          "ticks": 289440,
          "time": 164.45468250000002,
          "velocity": 1
        },
        {
          "duration": 1.636365000000012,
          "durationTicks": 2880,
          "midi": 76,
          "name": "E5",
          "ticks": 290880,
          "time": 165.272865,
          "velocity": 1
        },
        {
          "duration": 0.272727500000002,
          "durationTicks": 480,
          "midi": 73,
          "name": "C#5",
          "ticks": 294240,
          "time": 167.1819575,
          "velocity": 1
        },
        {
          "duration": 0.272727500000002,
          "durationTicks": 480,
          "midi": 76,
          "name": "E5",
          "ticks": 294720,
          "time": 167.454685,
          "velocity": 1
        },
        {
          "duration": 0.272727500000002,
          "durationTicks": 480,
          "midi": 73,
          "name": "C#5",
          "ticks": 295200,
          "time": 167.7274125,
          "velocity": 1
        },
        {
          "duration": 0.8181824999999776,
          "durationTicks": 1440,
          "midi": 78,
          "name": "F#5",
          "ticks": 295680,
          "time": 168.00014000000002,
          "velocity": 1
        },
        {
          "duration": 0.818182500000006,
          "durationTicks": 1440,
          "midi": 81,
          "name": "A5",
          "ticks": 297120,
          "time": 168.8183225,
          "velocity": 1
        },
        {
          "duration": 1.636365000000012,
          "durationTicks": 2880,
          "midi": 80,
          "name": "G#5",
          "ticks": 298560,
          "time": 169.636505,
          "velocity": 1
        },
        {
          "duration": 0.272727500000002,
          "durationTicks": 480,
          "midi": 73,
          "name": "C#5",
          "ticks": 301920,
          "time": 171.5455975,
          "velocity": 1
        },
        {
          "duration": 0.272727500000002,
          "durationTicks": 480,
          "midi": 76,
          "name": "E5",
          "ticks": 302400,
          "time": 171.81832500000002,
          "velocity": 1
        },
        {
          "duration": 0.272727500000002,
          "durationTicks": 480,
          "midi": 73,
          "name": "C#5",
          "ticks": 302880,
          "time": 172.09105250000002,
          "velocity": 1
        },
        {
          "duration": 0.8181824999999776,
          "durationTicks": 1440,
          "midi": 81,
          "name": "A5",
          "ticks": 303360,
          "time": 172.36378000000002,
          "velocity": 1
        },
        {
          "duration": 0.818182500000006,
          "durationTicks": 1440,
          "midi": 80,
          "name": "G#5",
          "ticks": 304800,
          "time": 173.1819625,
          "velocity": 1
        },
        {
          "duration": 1.636365000000012,
          "durationTicks": 2880,
          "midi": 76,
          "name": "E5",
          "ticks": 306240,
          "time": 174.000145,
          "velocity": 1
        },
        {
          "duration": 0.272727500000002,
          "durationTicks": 480,
          "midi": 73,
          "name": "C#5",
          "ticks": 309600,
          "time": 175.90923750000002,
          "velocity": 1
        },
        {
          "duration": 0.272727500000002,
          "durationTicks": 480,
          "midi": 76,
          "name": "E5",
          "ticks": 310080,
          "time": 176.18196500000002,
          "velocity": 1
        },
        {
          "duration": 0.2727274999999736,
          "durationTicks": 480,
          "midi": 73,
          "name": "C#5",
          "ticks": 310560,
          "time": 176.45469250000002,
          "velocity": 1
        },
        {
          "duration": 0.818182500000006,
          "durationTicks": 1440,
          "midi": 78,
          "name": "F#5",
          "ticks": 311040,
          "time": 176.72742,
          "velocity": 1
        },
        {
          "duration": 0.818182500000006,
          "durationTicks": 1440,
          "midi": 81,
          "name": "A5",
          "ticks": 312480,
          "time": 177.5456025,
          "velocity": 1
        },
        {
          "duration": 1.636365000000012,
          "durationTicks": 2880,
          "midi": 80,
          "name": "G#5",
          "ticks": 313920,
          "time": 178.363785,
          "velocity": 1
        },
        {
          "duration": 0.2727274999999736,
          "durationTicks": 480,
          "midi": 73,
          "name": "C#5",
          "ticks": 317280,
          "time": 180.27287750000002,
          "velocity": 1
        },
        {
          "duration": 0.272727500000002,
          "durationTicks": 480,
          "midi": 76,
          "name": "E5",
          "ticks": 317760,
          "time": 180.545605,
          "velocity": 1
        },
        {
          "duration": 0.272727500000002,
          "durationTicks": 480,
          "midi": 73,
          "name": "C#5",
          "ticks": 318240,
          "time": 180.8183325,
          "velocity": 1
        },
        {
          "duration": 0.818182500000006,
          "durationTicks": 1440,
          "midi": 81,
          "name": "A5",
          "ticks": 318720,
          "time": 181.09106,
          "velocity": 1
        },
        {
          "duration": 0.818182500000006,
          "durationTicks": 1440,
          "midi": 80,
          "name": "G#5",
          "ticks": 320160,
          "time": 181.9092425,
          "velocity": 1
        },
        {
          "duration": 1.6363649999999836,
          "durationTicks": 2880,
          "midi": 76,
          "name": "E5",
          "ticks": 321600,
          "time": 182.727425,
          "velocity": 1
        }
      ],
      "endOfTrackTicks": 324960
    },
    {
      "channel": 0,
      "controlChanges": {
        "7": [
          {
            "number": 7,
            "ticks": 0,
            "time": 0,
            "value": 0.905511811023622
          }
        ]
      },
      "pitchBends": [],
      "instrument": {
        "family": "piano",
        "number": 0,
        "name": "acoustic grand piano"
      },
      "name": "Track 2",
      "notes": [],
      "endOfTrackTicks": 311040
    },
    {
      "channel": 1,
      "controlChanges": {},
      "pitchBends": [],
      "instrument": {
        "family": "ensemble",
        "number": 48,
        "name": "string ensemble 1"
      },
      "name": "",
      "notes": [
        {
          "duration": 2.18182,
          "durationTicks": 3840,
          "midi": 42,
          "name": "F#2",
          "ticks": 7680,
          "time": 4.36364,
          "velocity": 1
        },
        {
          "duration": 2.18182,
          "durationTicks": 3840,
          "midi": 38,
          "name": "D2",
          "ticks": 11520,
          "time": 6.54546,
          "velocity": 1
        },
        {
          "duration": 2.18182,
          "durationTicks": 3840,
          "midi": 45,
          "name": "A2",
          "ticks": 15360,
          "time": 8.72728,
          "velocity": 1
        },
        {
          "duration": 2.18182,
          "durationTicks": 3840,
          "midi": 40,
          "name": "E2",
          "ticks": 19200,
          "time": 10.9091,
          "velocity": 1
        },
        {
          "duration": 2.18182,
          "durationTicks": 3840,
          "midi": 42,
          "name": "F#2",
          "ticks": 23040,
          "time": 13.09092,
          "velocity": 1
        },
        {
          "duration": 2.18182,
          "durationTicks": 3840,
          "midi": 38,
          "name": "D2",
          "ticks": 26880,
          "time": 15.27274,
          "velocity": 1
        },
        {
          "duration": 2.181820000000002,
          "durationTicks": 3840,
          "midi": 45,
          "name": "A2",
          "ticks": 30720,
          "time": 17.45456,
          "velocity": 1
        },
        {
          "duration": 2.1818199999999983,
          "durationTicks": 3840,
          "midi": 40,
          "name": "E2",
          "ticks": 34560,
          "time": 19.636380000000003,
          "velocity": 1
        },
        {
          "duration": 2.1818199999999983,
          "durationTicks": 3840,
          "midi": 42,
          "name": "F#2",
          "ticks": 38400,
          "time": 21.8182,
          "velocity": 1
        },
        {
          "duration": 2.181820000000002,
          "durationTicks": 3840,
          "midi": 38,
          "name": "D2",
          "ticks": 42240,
          "time": 24.00002,
          "velocity": 1
        },
        {
          "duration": 2.181820000000002,
          "durationTicks": 3840,
          "midi": 45,
          "name": "A2",
          "ticks": 46080,
          "time": 26.18184,
          "velocity": 1
        },
        {
          "duration": 2.1818199999999983,
          "durationTicks": 3840,
          "midi": 40,
          "name": "E2",
          "ticks": 49920,
          "time": 28.363660000000003,
          "velocity": 1
        },
        {
          "duration": 2.1818199999999983,
          "durationTicks": 3840,
          "midi": 42,
          "name": "F#2",
          "ticks": 53760,
          "time": 30.54548,
          "velocity": 1
        },
        {
          "duration": 2.181820000000002,
          "durationTicks": 3840,
          "midi": 38,
          "name": "D2",
          "ticks": 57600,
          "time": 32.7273,
          "velocity": 1
        },
        {
          "duration": 2.181820000000002,
          "durationTicks": 3840,
          "midi": 45,
          "name": "A2",
          "ticks": 61440,
          "time": 34.90912,
          "velocity": 1
        },
        {
          "duration": 2.181820000000002,
          "durationTicks": 3840,
          "midi": 40,
          "name": "E2",
          "ticks": 65280,
          "time": 37.09094,
          "velocity": 1
        },
        {
          "duration": 1.6363649999999978,
          "durationTicks": 2880,
          "midi": 38,
          "name": "D2",
          "ticks": 69120,
          "time": 39.272760000000005,
          "velocity": 1
        },
        {
          "duration": 0.5454549999999969,
          "durationTicks": 960,
          "midi": 42,
          "name": "F#2",
          "ticks": 72000,
          "time": 40.909125,
          "velocity": 1
        },
        {
          "duration": 1.636365000000005,
          "durationTicks": 2880,
          "midi": 40,
          "name": "E2",
          "ticks": 72960,
          "time": 41.45458,
          "velocity": 1
        },
        {
          "duration": 0.5454549999999969,
          "durationTicks": 960,
          "midi": 44,
          "name": "G#2",
          "ticks": 75840,
          "time": 43.090945000000005,
          "velocity": 1
        },
        {
          "duration": 1.6363649999999978,
          "durationTicks": 2880,
          "midi": 42,
          "name": "F#2",
          "ticks": 76800,
          "time": 43.6364,
          "velocity": 1
        },
        {
          "duration": 0.545455000000004,
          "durationTicks": 960,
          "midi": 44,
          "name": "G#2",
          "ticks": 79680,
          "time": 45.272765,
          "velocity": 1
        },
        {
          "duration": 1.090910000000001,
          "durationTicks": 1920,
          "midi": 45,
          "name": "A2",
          "ticks": 80640,
          "time": 45.818220000000004,
          "velocity": 1
        },
        {
          "duration": 1.0909099999999938,
          "durationTicks": 1920,
          "midi": 40,
          "name": "E2",
          "ticks": 82560,
          "time": 46.909130000000005,
          "velocity": 1
        },
        {
          "duration": 1.636365000000005,
          "durationTicks": 2880,
          "midi": 38,
          "name": "D2",
          "ticks": 84480,
          "time": 48.00004,
          "velocity": 1
        },
        {
          "duration": 0.5454549999999969,
          "durationTicks": 960,
          "midi": 42,
          "name": "F#2",
          "ticks": 87360,
          "time": 49.636405,
          "velocity": 1
        },
        {
          "duration": 2.181820000000002,
          "durationTicks": 3840,
          "midi": 40,
          "name": "E2",
          "ticks": 88320,
          "time": 50.18186,
          "velocity": 1
        },
        {
          "duration": 2.181820000000002,
          "durationTicks": 3840,
          "midi": 42,
          "name": "F#2",
          "ticks": 92160,
          "time": 52.36368,
          "velocity": 1
        },
        {
          "duration": 2.181820000000002,
          "durationTicks": 3840,
          "midi": 38,
          "name": "D2",
          "ticks": 96000,
          "time": 54.545500000000004,
          "velocity": 1
        },
        {
          "duration": 2.1818199999999948,
          "durationTicks": 3840,
          "midi": 45,
          "name": "A2",
          "ticks": 99840,
          "time": 56.727320000000006,
          "velocity": 1
        },
        {
          "duration": 2.181820000000002,
          "durationTicks": 3840,
          "midi": 40,
          "name": "E2",
          "ticks": 103680,
          "time": 58.90914,
          "velocity": 1
        },
        {
          "duration": 2.181820000000002,
          "durationTicks": 3840,
          "midi": 42,
          "name": "F#2",
          "ticks": 107520,
          "time": 61.09096,
          "velocity": 1
        },
        {
          "duration": 2.1818199999999948,
          "durationTicks": 3840,
          "midi": 38,
          "name": "D2",
          "ticks": 111360,
          "time": 63.272780000000004,
          "velocity": 1
        },
        {
          "duration": 2.181820000000002,
          "durationTicks": 3840,
          "midi": 45,
          "name": "A2",
          "ticks": 115200,
          "time": 65.4546,
          "velocity": 1
        },
        {
          "duration": 2.181820000000002,
          "durationTicks": 3840,
          "midi": 40,
          "name": "E2",
          "ticks": 119040,
          "time": 67.63642,
          "velocity": 1
        },
        {
          "duration": 2.181820000000002,
          "durationTicks": 3840,
          "midi": 42,
          "name": "F#2",
          "ticks": 122880,
          "time": 69.81824,
          "velocity": 1
        },
        {
          "duration": 2.181820000000002,
          "durationTicks": 3840,
          "midi": 38,
          "name": "D2",
          "ticks": 126720,
          "time": 72.00006,
          "velocity": 1
        },
        {
          "duration": 2.181820000000002,
          "durationTicks": 3840,
          "midi": 45,
          "name": "A2",
          "ticks": 130560,
          "time": 74.18188,
          "velocity": 1
        },
        {
          "duration": 2.181820000000002,
          "durationTicks": 3840,
          "midi": 40,
          "name": "E2",
          "ticks": 134400,
          "time": 76.36370000000001,
          "velocity": 1
        },
        {
          "duration": 2.1818199999999877,
          "durationTicks": 3840,
          "midi": 42,
          "name": "F#2",
          "ticks": 138240,
          "time": 78.54552000000001,
          "velocity": 1
        },
        {
          "duration": 2.181820000000002,
          "durationTicks": 3840,
          "midi": 38,
          "name": "D2",
          "ticks": 142080,
          "time": 80.72734,
          "velocity": 1
        },
        {
          "duration": 2.181820000000002,
          "durationTicks": 3840,
          "midi": 45,
          "name": "A2",
          "ticks": 145920,
          "time": 82.90916,
          "velocity": 1
        },
        {
          "duration": 2.181820000000002,
          "durationTicks": 3840,
          "midi": 40,
          "name": "E2",
          "ticks": 149760,
          "time": 85.09098,
          "velocity": 1
        },
        {
          "duration": 1.6363649999999978,
          "durationTicks": 2880,
          "midi": 38,
          "name": "D2",
          "ticks": 153600,
          "time": 87.2728,
          "velocity": 1
        },
        {
          "duration": 0.545455000000004,
          "durationTicks": 960,
          "midi": 42,
          "name": "F#2",
          "ticks": 156480,
          "time": 88.909165,
          "velocity": 1
        },
        {
          "duration": 1.6363649999999978,
          "durationTicks": 2880,
          "midi": 40,
          "name": "E2",
          "ticks": 157440,
          "time": 89.45462,
          "velocity": 1
        },
        {
          "duration": 0.545455000000004,
          "durationTicks": 960,
          "midi": 44,
          "name": "G#2",
          "ticks": 160320,
          "time": 91.090985,
          "velocity": 1
        },
        {
          "duration": 1.6363649999999978,
          "durationTicks": 2880,
          "midi": 42,
          "name": "F#2",
          "ticks": 161280,
          "time": 91.63644000000001,
          "velocity": 1
        },
        {
          "duration": 0.545455000000004,
          "durationTicks": 960,
          "midi": 44,
          "name": "G#2",
          "ticks": 164160,
          "time": 93.272805,
          "velocity": 1
        },
        {
          "duration": 1.0909099999999938,
          "durationTicks": 1920,
          "midi": 45,
          "name": "A2",
          "ticks": 165120,
          "time": 93.81826000000001,
          "velocity": 1
        },
        {
          "duration": 1.0909099999999938,
          "durationTicks": 1920,
          "midi": 40,
          "name": "E2",
          "ticks": 167040,
          "time": 94.90917,
          "velocity": 1
        },
        {
          "duration": 1.636365000000012,
          "durationTicks": 2880,
          "midi": 38,
          "name": "D2",
          "ticks": 168960,
          "time": 96.00008,
          "velocity": 1
        },
        {
          "duration": 0.5454549999999898,
          "durationTicks": 960,
          "midi": 42,
          "name": "F#2",
          "ticks": 171840,
          "time": 97.63644500000001,
          "velocity": 1
        },
        {
          "duration": 1.636365000000012,
          "durationTicks": 2880,
          "midi": 40,
          "name": "E2",
          "ticks": 172800,
          "time": 98.1819,
          "velocity": 1
        },
        {
          "duration": 0.5454549999999898,
          "durationTicks": 960,
          "midi": 44,
          "name": "G#2",
          "ticks": 175680,
          "time": 99.81826500000001,
          "velocity": 1
        },
        {
          "duration": 1.6363649999999978,
          "durationTicks": 2880,
          "midi": 42,
          "name": "F#2",
          "ticks": 176640,
          "time": 100.36372,
          "velocity": 1
        },
        {
          "duration": 0.545455000000004,
          "durationTicks": 960,
          "midi": 44,
          "name": "G#2",
          "ticks": 179520,
          "time": 102.000085,
          "velocity": 1
        },
        {
          "duration": 1.090910000000008,
          "durationTicks": 1920,
          "midi": 45,
          "name": "A2",
          "ticks": 180480,
          "time": 102.54554,
          "velocity": 1
        },
        {
          "duration": 1.0909099999999938,
          "durationTicks": 1920,
          "midi": 44,
          "name": "G#2",
          "ticks": 182400,
          "time": 103.63645000000001,
          "velocity": 1
        },
        {
          "duration": 2.181820000000002,
          "durationTicks": 3840,
          "midi": 42,
          "name": "F#2",
          "ticks": 184320,
          "time": 104.72736,
          "velocity": 1
        },
        {
          "duration": 2.181820000000002,
          "durationTicks": 3840,
          "midi": 38,
          "name": "D2",
          "ticks": 188160,
          "time": 106.90918,
          "velocity": 1
        },
        {
          "duration": 2.181820000000002,
          "durationTicks": 3840,
          "midi": 45,
          "name": "A2",
          "ticks": 192000,
          "time": 109.09100000000001,
          "velocity": 1
        },
        {
          "duration": 2.181820000000002,
          "durationTicks": 3840,
          "midi": 40,
          "name": "E2",
          "ticks": 195840,
          "time": 111.27282000000001,
          "velocity": 1
        },
        {
          "duration": 2.1818199999999877,
          "durationTicks": 3840,
          "midi": 42,
          "name": "F#2",
          "ticks": 199680,
          "time": 113.45464000000001,
          "velocity": 1
        },
        {
          "duration": 2.181820000000002,
          "durationTicks": 3840,
          "midi": 38,
          "name": "D2",
          "ticks": 203520,
          "time": 115.63646,
          "velocity": 1
        },
        {
          "duration": 2.181820000000002,
          "durationTicks": 3840,
          "midi": 45,
          "name": "A2",
          "ticks": 207360,
          "time": 117.81828,
          "velocity": 1
        },
        {
          "duration": 2.181820000000002,
          "durationTicks": 3840,
          "midi": 40,
          "name": "E2",
          "ticks": 211200,
          "time": 120.0001,
          "velocity": 1
        },
        {
          "duration": 8.727279999999993,
          "durationTicks": 15360,
          "midi": 90,
          "name": "F#6",
          "ticks": 215040,
          "time": 122.18192,
          "velocity": 1
        },
        {
          "duration": 10.909099999999995,
          "durationTicks": 19200,
          "midi": 90,
          "name": "F#6",
          "ticks": 230400,
          "time": 130.9092,
          "velocity": 1
        },
        {
          "duration": 2.181820000000016,
          "durationTicks": 3840,
          "midi": 42,
          "name": "F#2",
          "ticks": 249600,
          "time": 141.8183,
          "velocity": 1
        },
        {
          "duration": 8.727280000000007,
          "durationTicks": 15360,
          "midi": 90,
          "name": "F#6",
          "ticks": 249600,
          "time": 141.8183,
          "velocity": 1
        },
        {
          "duration": 2.1818199999999877,
          "durationTicks": 3840,
          "midi": 38,
          "name": "D2",
          "ticks": 253440,
          "time": 144.00012,
          "velocity": 1
        },
        {
          "duration": 2.181820000000016,
          "durationTicks": 3840,
          "midi": 45,
          "name": "A2",
          "ticks": 257280,
          "time": 146.18194,
          "velocity": 1
        },
        {
          "duration": 2.1818199999999877,
          "durationTicks": 3840,
          "midi": 40,
          "name": "E2",
          "ticks": 261120,
          "time": 148.36376,
          "velocity": 1
        },
        {
          "duration": 2.181820000000016,
          "durationTicks": 3840,
          "midi": 42,
          "name": "F#2",
          "ticks": 264960,
          "time": 150.54558,
          "velocity": 1
        },
        {
          "duration": 8.727280000000007,
          "durationTicks": 15360,
          "midi": 90,
          "name": "F#6",
          "ticks": 264960,
          "time": 150.54558,
          "velocity": 1
        },
        {
          "duration": 2.1818199999999877,
          "durationTicks": 3840,
          "midi": 38,
          "name": "D2",
          "ticks": 268800,
          "time": 152.72740000000002,
          "velocity": 1
        },
        {
          "duration": 2.181820000000016,
          "durationTicks": 3840,
          "midi": 45,
          "name": "A2",
          "ticks": 272640,
          "time": 154.90922,
          "velocity": 1
        },
        {
          "duration": 2.1818199999999877,
          "durationTicks": 3840,
          "midi": 40,
          "name": "E2",
          "ticks": 276480,
          "time": 157.09104000000002,
          "velocity": 1
        },
        {
          "duration": 2.1818199999999877,
          "durationTicks": 3840,
          "midi": 42,
          "name": "F#2",
          "ticks": 280320,
          "time": 159.27286,
          "velocity": 1
        },
        {
          "duration": 8.727280000000007,
          "durationTicks": 15360,
          "midi": 90,
          "name": "F#6",
          "ticks": 280320,
          "time": 159.27286,
          "velocity": 1
        },
        {
          "duration": 2.181820000000016,
          "durationTicks": 3840,
          "midi": 38,
          "name": "D2",
          "ticks": 284160,
          "time": 161.45468,
          "velocity": 1
        },
        {
          "duration": 2.1818199999999877,
          "durationTicks": 3840,
          "midi": 45,
          "name": "A2",
          "ticks": 288000,
          "time": 163.6365,
          "velocity": 1
        },
        {
          "duration": 2.181820000000016,
          "durationTicks": 3840,
          "midi": 40,
          "name": "E2",
          "ticks": 291840,
          "time": 165.81832,
          "velocity": 1
        },
        {
          "duration": 2.1818199999999877,
          "durationTicks": 3840,
          "midi": 42,
          "name": "F#2",
          "ticks": 295680,
          "time": 168.00014000000002,
          "velocity": 1
        },
        {
          "duration": 8.727279999999979,
          "durationTicks": 15360,
          "midi": 90,
          "name": "F#6",
          "ticks": 295680,
          "time": 168.00014000000002,
          "velocity": 1
        },
        {
          "duration": 2.181820000000016,
          "durationTicks": 3840,
          "midi": 38,
          "name": "D2",
          "ticks": 299520,
          "time": 170.18196,
          "velocity": 1
        },
        {
          "duration": 2.1818199999999877,
          "durationTicks": 3840,
          "midi": 45,
          "name": "A2",
          "ticks": 303360,
          "time": 172.36378000000002,
          "velocity": 1
        },
        {
          "duration": 2.1818199999999877,
          "durationTicks": 3840,
          "midi": 40,
          "name": "E2",
          "ticks": 307200,
          "time": 174.5456,
          "velocity": 1
        }
      ]
    },
    {
      "channel": 9,
      "controlChanges": {
        "7": [
          {
            "number": 7,
            "ticks": 0,
            "time": 0,
            "value": 0.8976377952755905
          }
        ]
      },
      "pitchBends": [],
      "instrument": {
        "family": "drums",
        "number": 0,
        "name": "standard kit"
      },
      "name": "Track 3",
      "notes": [
        {
          "duration": 0.5454550000000005,
          "durationTicks": 960,
          "midi": 35,
          "name": "B1",
          "ticks": 7680,
          "time": 4.36364,
          "velocity": 1
        },
        {
          "duration": 0.13636375000000012,
          "durationTicks": 240,
          "midi": 70,
          "name": "A#4",
          "ticks": 7680,
          "time": 4.36364,
          "velocity": 1
        },
        {
          "duration": 0.13636375000000012,
          "durationTicks": 240,
          "midi": 42,
          "name": "F#2",
          "ticks": 7680,
          "time": 4.36364,
          "velocity": 1
        },
        {
          "duration": 0.27272750000000023,
          "durationTicks": 480,
          "midi": 44,
          "name": "G#2",
          "ticks": 7920,
          "time": 4.50000375,
          "velocity": 1
        },
        {
          "duration": 0.27272750000000023,
          "durationTicks": 480,
          "midi": 69,
          "name": "A4",
          "ticks": 7920,
          "time": 4.50000375,
          "velocity": 1
        },
        {
          "duration": 0.13636375000000012,
          "durationTicks": 240,
          "midi": 70,
          "name": "A#4",
          "ticks": 8400,
          "time": 4.7727312500000005,
          "velocity": 1
        },
        {
          "duration": 0.13636375000000012,
          "durationTicks": 240,
          "midi": 42,
          "name": "F#2",
          "ticks": 8400,
          "time": 4.7727312500000005,
          "velocity": 1
        },
        {
          "duration": 0.27272749999999935,
          "durationTicks": 480,
          "midi": 46,
          "name": "A#2",
          "ticks": 8640,
          "time": 4.909095000000001,
          "velocity": 1
        },
        {
          "duration": 0.27272750000000023,
          "durationTicks": 480,
          "midi": 44,
          "name": "G#2",
          "ticks": 9600,
          "time": 5.45455,
          "velocity": 1
        },
        {
          "duration": 0.27272750000000023,
          "durationTicks": 480,
          "midi": 69,
          "name": "A4",
          "ticks": 9600,
          "time": 5.45455,
          "velocity": 1
        },
        {
          "duration": 0.27272749999999935,
          "durationTicks": 480,
          "midi": 42,
          "name": "F#2",
          "ticks": 10080,
          "time": 5.7272775000000005,
          "velocity": 1
        },
        {
          "duration": 0.27272749999999935,
          "durationTicks": 480,
          "midi": 70,
          "name": "A#4",
          "ticks": 10080,
          "time": 5.7272775000000005,
          "velocity": 1
        },
        {
          "duration": 0.13636375000000012,
          "durationTicks": 240,
          "midi": 69,
          "name": "A4",
          "ticks": 10560,
          "time": 6.000005,
          "velocity": 1
        },
        {
          "duration": 0.13636375000000012,
          "durationTicks": 240,
          "midi": 44,
          "name": "G#2",
          "ticks": 10560,
          "time": 6.000005,
          "velocity": 1
        },
        {
          "duration": 0.13636375000000012,
          "durationTicks": 240,
          "midi": 69,
          "name": "A4",
          "ticks": 10800,
          "time": 6.13636875,
          "velocity": 1
        },
        {
          "duration": 0.13636375000000012,
          "durationTicks": 240,
          "midi": 44,
          "name": "G#2",
          "ticks": 10800,
          "time": 6.13636875,
          "velocity": 1
        },
        {
          "duration": 0.27272750000000023,
          "durationTicks": 480,
          "midi": 46,
          "name": "A#2",
          "ticks": 11040,
          "time": 6.2727325,
          "velocity": 1
        },
        {
          "duration": 0.5454550000000005,
          "durationTicks": 960,
          "midi": 42,
          "name": "F#2",
          "ticks": 11520,
          "time": 6.54546,
          "velocity": 1
        },
        {
          "duration": 0.5454550000000005,
          "durationTicks": 960,
          "midi": 70,
          "name": "A#4",
          "ticks": 11520,
          "time": 6.54546,
          "velocity": 1
        },
        {
          "duration": 0.5454549999999996,
          "durationTicks": 960,
          "midi": 44,
          "name": "G#2",
          "ticks": 12480,
          "time": 7.090915000000001,
          "velocity": 1
        },
        {
          "duration": 0.5454549999999996,
          "durationTicks": 960,
          "midi": 69,
          "name": "A4",
          "ticks": 12480,
          "time": 7.090915000000001,
          "velocity": 1
        },
        {
          "duration": 0.13636375000000012,
          "durationTicks": 240,
          "midi": 42,
          "name": "F#2",
          "ticks": 13440,
          "time": 7.63637,
          "velocity": 1
        },
        {
          "duration": 0.13636375000000012,
          "durationTicks": 240,
          "midi": 70,
          "name": "A#4",
          "ticks": 13440,
          "time": 7.63637,
          "velocity": 1
        },
        {
          "duration": 0.13636375000000012,
          "durationTicks": 240,
          "midi": 42,
          "name": "F#2",
          "ticks": 13680,
          "time": 7.77273375,
          "velocity": 1
        },
        {
          "duration": 0.13636375000000012,
          "durationTicks": 240,
          "midi": 70,
          "name": "A#4",
          "ticks": 13680,
          "time": 7.77273375,
          "velocity": 1
        },
        {
          "duration": 0.27272749999999935,
          "durationTicks": 480,
          "midi": 44,
          "name": "G#2",
          "ticks": 13920,
          "time": 7.909097500000001,
          "velocity": 1
        },
        {
          "duration": 0.27272749999999935,
          "durationTicks": 480,
          "midi": 69,
          "name": "A4",
          "ticks": 13920,
          "time": 7.909097500000001,
          "velocity": 1
        },
        {
          "duration": 0.27272750000000023,
          "durationTicks": 480,
          "midi": 69,
          "name": "A4",
          "ticks": 14400,
          "time": 8.181825,
          "velocity": 1
        },
        {
          "duration": 0.27272750000000023,
          "durationTicks": 480,
          "midi": 44,
          "name": "G#2",
          "ticks": 14400,
          "time": 8.181825,
          "velocity": 1
        },
        {
          "duration": 0.27272750000000023,
          "durationTicks": 480,
          "midi": 46,
          "name": "A#2",
          "ticks": 14880,
          "time": 8.4545525,
          "velocity": 1
        },
        {
          "duration": 0.5454550000000005,
          "durationTicks": 960,
          "midi": 35,
          "name": "B1",
          "ticks": 15360,
          "time": 8.72728,
          "velocity": 1
        },
        {
          "duration": 0.13636374999999923,
          "durationTicks": 240,
          "midi": 70,
          "name": "A#4",
          "ticks": 15360,
          "time": 8.72728,
          "velocity": 1
        },
        {
          "duration": 0.13636374999999923,
          "durationTicks": 240,
          "midi": 42,
          "name": "F#2",
          "ticks": 15360,
          "time": 8.72728,
          "velocity": 1
        },
        {
          "duration": 0.27272750000000023,
          "durationTicks": 480,
          "midi": 44,
          "name": "G#2",
          "ticks": 15600,
          "time": 8.86364375,
          "velocity": 1
        },
        {
          "duration": 0.27272750000000023,
          "durationTicks": 480,
          "midi": 69,
          "name": "A4",
          "ticks": 15600,
          "time": 8.86364375,
          "velocity": 1
        },
        {
          "duration": 0.136363750000001,
          "durationTicks": 240,
          "midi": 70,
          "name": "A#4",
          "ticks": 16080,
          "time": 9.13637125,
          "velocity": 1
        },
        {
          "duration": 0.136363750000001,
          "durationTicks": 240,
          "midi": 42,
          "name": "F#2",
          "ticks": 16080,
          "time": 9.13637125,
          "velocity": 1
        },
        {
          "duration": 0.27272750000000023,
          "durationTicks": 480,
          "midi": 46,
          "name": "A#2",
          "ticks": 16320,
          "time": 9.272735,
          "velocity": 1
        },
        {
          "duration": 0.27272749999999846,
          "durationTicks": 480,
          "midi": 44,
          "name": "G#2",
          "ticks": 17280,
          "time": 9.818190000000001,
          "velocity": 1
        },
        {
          "duration": 0.27272749999999846,
          "durationTicks": 480,
          "midi": 69,
          "name": "A4",
          "ticks": 17280,
          "time": 9.818190000000001,
          "velocity": 1
        },
        {
          "duration": 0.27272750000000023,
          "durationTicks": 480,
          "midi": 42,
          "name": "F#2",
          "ticks": 17760,
          "time": 10.0909175,
          "velocity": 1
        },
        {
          "duration": 0.27272750000000023,
          "durationTicks": 480,
          "midi": 70,
          "name": "A#4",
          "ticks": 17760,
          "time": 10.0909175,
          "velocity": 1
        },
        {
          "duration": 0.136363750000001,
          "durationTicks": 240,
          "midi": 69,
          "name": "A4",
          "ticks": 18240,
          "time": 10.363645,
          "velocity": 1
        },
        {
          "duration": 0.136363750000001,
          "durationTicks": 240,
          "midi": 44,
          "name": "G#2",
          "ticks": 18240,
          "time": 10.363645,
          "velocity": 1
        },
        {
          "duration": 0.13636374999999923,
          "durationTicks": 240,
          "midi": 69,
          "name": "A4",
          "ticks": 18480,
          "time": 10.500008750000001,
          "velocity": 1
        },
        {
          "duration": 0.13636374999999923,
          "durationTicks": 240,
          "midi": 44,
          "name": "G#2",
          "ticks": 18480,
          "time": 10.500008750000001,
          "velocity": 1
        },
        {
          "duration": 0.27272750000000023,
          "durationTicks": 480,
          "midi": 46,
          "name": "A#2",
          "ticks": 18720,
          "time": 10.6363725,
          "velocity": 1
        },
        {
          "duration": 0.5454550000000005,
          "durationTicks": 960,
          "midi": 42,
          "name": "F#2",
          "ticks": 19200,
          "time": 10.9091,
          "velocity": 1
        },
        {
          "duration": 0.5454550000000005,
          "durationTicks": 960,
          "midi": 70,
          "name": "A#4",
          "ticks": 19200,
          "time": 10.9091,
          "velocity": 1
        },
        {
          "duration": 0.5454549999999987,
          "durationTicks": 960,
          "midi": 44,
          "name": "G#2",
          "ticks": 20160,
          "time": 11.454555000000001,
          "velocity": 1
        },
        {
          "duration": 0.5454549999999987,
          "durationTicks": 960,
          "midi": 69,
          "name": "A4",
          "ticks": 20160,
          "time": 11.454555000000001,
          "velocity": 1
        },
        {
          "duration": 0.136363750000001,
          "durationTicks": 240,
          "midi": 42,
          "name": "F#2",
          "ticks": 21120,
          "time": 12.00001,
          "velocity": 1
        },
        {
          "duration": 0.136363750000001,
          "durationTicks": 240,
          "midi": 70,
          "name": "A#4",
          "ticks": 21120,
          "time": 12.00001,
          "velocity": 1
        },
        {
          "duration": 0.13636374999999923,
          "durationTicks": 240,
          "midi": 42,
          "name": "F#2",
          "ticks": 21360,
          "time": 12.13637375,
          "velocity": 1
        },
        {
          "duration": 0.13636374999999923,
          "durationTicks": 240,
          "midi": 70,
          "name": "A#4",
          "ticks": 21360,
          "time": 12.13637375,
          "velocity": 1
        },
        {
          "duration": 0.27272750000000023,
          "durationTicks": 480,
          "midi": 44,
          "name": "G#2",
          "ticks": 21600,
          "time": 12.2727375,
          "velocity": 1
        },
        {
          "duration": 0.27272750000000023,
          "durationTicks": 480,
          "midi": 69,
          "name": "A4",
          "ticks": 21600,
          "time": 12.2727375,
          "velocity": 1
        },
        {
          "duration": 0.27272750000000023,
          "durationTicks": 480,
          "midi": 69,
          "name": "A4",
          "ticks": 22080,
          "time": 12.545465,
          "velocity": 1
        },
        {
          "duration": 0.27272750000000023,
          "durationTicks": 480,
          "midi": 44,
          "name": "G#2",
          "ticks": 22080,
          "time": 12.545465,
          "velocity": 1
        },
        {
          "duration": 0.27272750000000023,
          "durationTicks": 480,
          "midi": 46,
          "name": "A#2",
          "ticks": 22560,
          "time": 12.8181925,
          "velocity": 1
        },
        {
          "duration": 0.27272750000000023,
          "durationTicks": 480,
          "midi": 46,
          "name": "A#2",
          "ticks": 23040,
          "time": 13.09092,
          "velocity": 1
        },
        {
          "duration": 0.5454550000000005,
          "durationTicks": 960,
          "midi": 49,
          "name": "C#3",
          "ticks": 23040,
          "time": 13.09092,
          "velocity": 1
        },
        {
          "duration": 0.27272750000000023,
          "durationTicks": 480,
          "midi": 35,
          "name": "B1",
          "ticks": 23040,
          "time": 13.09092,
          "velocity": 1
        },
        {
          "duration": 0.27272750000000023,
          "durationTicks": 480,
          "midi": 70,
          "name": "A#4",
          "ticks": 23040,
          "time": 13.09092,
          "velocity": 1
        },
        {
          "duration": 0.27272750000000023,
          "durationTicks": 480,
          "midi": 46,
          "name": "A#2",
          "ticks": 23520,
          "time": 13.3636475,
          "velocity": 1
        },
        {
          "duration": 0.27272750000000023,
          "durationTicks": 480,
          "midi": 38,
          "name": "D2",
          "ticks": 23760,
          "time": 13.50001125,
          "velocity": 1
        },
        {
          "duration": 0.27272750000000023,
          "durationTicks": 480,
          "midi": 69,
          "name": "A4",
          "ticks": 23760,
          "time": 13.50001125,
          "velocity": 1
        },
        {
          "duration": 0.27272750000000023,
          "durationTicks": 480,
          "midi": 46,
          "name": "A#2",
          "ticks": 24000,
          "time": 13.636375000000001,
          "velocity": 1
        },
        {
          "duration": 0.27272750000000023,
          "durationTicks": 480,
          "midi": 46,
          "name": "A#2",
          "ticks": 24480,
          "time": 13.909102500000001,
          "velocity": 1
        },
        {
          "duration": 0.27272750000000023,
          "durationTicks": 480,
          "midi": 35,
          "name": "B1",
          "ticks": 24480,
          "time": 13.909102500000001,
          "velocity": 1
        },
        {
          "duration": 0.27272750000000023,
          "durationTicks": 480,
          "midi": 70,
          "name": "A#4",
          "ticks": 24480,
          "time": 13.909102500000001,
          "velocity": 1
        },
        {
          "duration": 0.27272749999999846,
          "durationTicks": 480,
          "midi": 46,
          "name": "A#2",
          "ticks": 24960,
          "time": 14.181830000000001,
          "velocity": 1
        },
        {
          "duration": 0.27272750000000023,
          "durationTicks": 480,
          "midi": 46,
          "name": "A#2",
          "ticks": 25440,
          "time": 14.4545575,
          "velocity": 1
        },
        {
          "duration": 0.27272750000000023,
          "durationTicks": 480,
          "midi": 35,
          "name": "B1",
          "ticks": 25440,
          "time": 14.4545575,
          "velocity": 1
        },
        {
          "duration": 0.27272750000000023,
          "durationTicks": 480,
          "midi": 70,
          "name": "A#4",
          "ticks": 25440,
          "time": 14.4545575,
          "velocity": 1
        },
        {
          "duration": 0.27272750000000023,
          "durationTicks": 480,
          "midi": 46,
          "name": "A#2",
          "ticks": 25920,
          "time": 14.727285,
          "velocity": 1
        },
        {
          "duration": 0.27272750000000023,
          "durationTicks": 480,
          "midi": 38,
          "name": "D2",
          "ticks": 25920,
          "time": 14.727285,
          "velocity": 1
        },
        {
          "duration": 0.27272750000000023,
          "durationTicks": 480,
          "midi": 69,
          "name": "A4",
          "ticks": 25920,
          "time": 14.727285,
          "velocity": 1
        },
        {
          "duration": 0.27272750000000023,
          "durationTicks": 480,
          "midi": 46,
          "name": "A#2",
          "ticks": 26400,
          "time": 15.0000125,
          "velocity": 1
        },
        {
          "duration": 0.27272750000000023,
          "durationTicks": 480,
          "midi": 35,
          "name": "B1",
          "ticks": 26400,
          "time": 15.0000125,
          "velocity": 1
        },
        {
          "duration": 0.27272750000000023,
          "durationTicks": 480,
          "midi": 70,
          "name": "A#4",
          "ticks": 26400,
          "time": 15.0000125,
          "velocity": 1
        },
        {
          "duration": 0.27272750000000023,
          "durationTicks": 480,
          "midi": 46,
          "name": "A#2",
          "ticks": 26880,
          "time": 15.27274,
          "velocity": 1
        },
        {
          "duration": 0.27272750000000023,
          "durationTicks": 480,
          "midi": 35,
          "name": "B1",
          "ticks": 26880,
          "time": 15.27274,
          "velocity": 1
        },
        {
          "duration": 0.27272750000000023,
          "durationTicks": 480,
          "midi": 70,
          "name": "A#4",
          "ticks": 26880,
          "time": 15.27274,
          "velocity": 1
        },
        {
          "duration": 0.27272750000000023,
          "durationTicks": 480,
          "midi": 46,
          "name": "A#2",
          "ticks": 27360,
          "time": 15.5454675,
          "velocity": 1
        },
        {
          "duration": 0.27272750000000023,
          "durationTicks": 480,
          "midi": 38,
          "name": "D2",
          "ticks": 27600,
          "time": 15.68183125,
          "velocity": 1
        },
        {
          "duration": 0.27272750000000023,
          "durationTicks": 480,
          "midi": 69,
          "name": "A4",
          "ticks": 27600,
          "time": 15.68183125,
          "velocity": 1
        },
        {
          "duration": 0.27272750000000023,
          "durationTicks": 480,
          "midi": 46,
          "name": "A#2",
          "ticks": 27840,
          "time": 15.818195000000001,
          "velocity": 1
        },
        {
          "duration": 0.27272749999999846,
          "durationTicks": 480,
          "midi": 46,
          "name": "A#2",
          "ticks": 28320,
          "time": 16.0909225,
          "velocity": 1
        },
        {
          "duration": 0.27272749999999846,
          "durationTicks": 480,
          "midi": 35,
          "name": "B1",
          "ticks": 28320,
          "time": 16.0909225,
          "velocity": 1
        },
        {
          "duration": 0.27272749999999846,
          "durationTicks": 480,
          "midi": 70,
          "name": "A#4",
          "ticks": 28320,
          "time": 16.0909225,
          "velocity": 1
        },
        {
          "duration": 0.272727500000002,
          "durationTicks": 480,
          "midi": 46,
          "name": "A#2",
          "ticks": 28800,
          "time": 16.36365,
          "velocity": 1
        },
        {
          "duration": 0.27272749999999846,
          "durationTicks": 480,
          "midi": 46,
          "name": "A#2",
          "ticks": 29280,
          "time": 16.636377500000002,
          "velocity": 1
        },
        {
          "duration": 0.27272749999999846,
          "durationTicks": 480,
          "midi": 35,
          "name": "B1",
          "ticks": 29280,
          "time": 16.636377500000002,
          "velocity": 1
        },
        {
          "duration": 0.27272749999999846,
          "durationTicks": 480,
          "midi": 70,
          "name": "A#4",
          "ticks": 29280,
          "time": 16.636377500000002,
          "velocity": 1
        },
        {
          "duration": 0.272727500000002,
          "durationTicks": 480,
          "midi": 46,
          "name": "A#2",
          "ticks": 29760,
          "time": 16.909105,
          "velocity": 1
        },
        {
          "duration": 0.136363750000001,
          "durationTicks": 240,
          "midi": 38,
          "name": "D2",
          "ticks": 29760,
          "time": 16.909105,
          "velocity": 1
        },
        {
          "duration": 0.136363750000001,
          "durationTicks": 240,
          "midi": 69,
          "name": "A4",
          "ticks": 29760,
          "time": 16.909105,
          "velocity": 1
        },
        {
          "duration": 0.136363750000001,
          "durationTicks": 240,
          "midi": 38,
          "name": "D2",
          "ticks": 30000,
          "time": 17.04546875,
          "velocity": 1
        },
        {
          "duration": 0.136363750000001,
          "durationTicks": 240,
          "midi": 69,
          "name": "A4",
          "ticks": 30000,
          "time": 17.04546875,
          "velocity": 1
        },
        {
          "duration": 0.27272749999999846,
          "durationTicks": 480,
          "midi": 46,
          "name": "A#2",
          "ticks": 30240,
          "time": 17.181832500000002,
          "velocity": 1
        },
        {
          "duration": 0.27272749999999846,
          "durationTicks": 480,
          "midi": 35,
          "name": "B1",
          "ticks": 30240,
          "time": 17.181832500000002,
          "velocity": 1
        },
        {
          "duration": 0.27272749999999846,
          "durationTicks": 480,
          "midi": 70,
          "name": "A#4",
          "ticks": 30240,
          "time": 17.181832500000002,
          "velocity": 1
        },
        {
          "duration": 0.27272749999999846,
          "durationTicks": 480,
          "midi": 46,
          "name": "A#2",
          "ticks": 30720,
          "time": 17.45456,
          "velocity": 1
        },
        {
          "duration": 0.27272749999999846,
          "durationTicks": 480,
          "midi": 35,
          "name": "B1",
          "ticks": 30720,
          "time": 17.45456,
          "velocity": 1
        },
        {
          "duration": 0.27272749999999846,
          "durationTicks": 480,
          "midi": 70,
          "name": "A#4",
          "ticks": 30720,
          "time": 17.45456,
          "velocity": 1
        },
        {
          "duration": 0.5454550000000005,
          "durationTicks": 960,
          "midi": 49,
          "name": "C#3",
          "ticks": 30720,
          "time": 17.45456,
          "velocity": 1
        },
        {
          "duration": 0.272727500000002,
          "durationTicks": 480,
          "midi": 46,
          "name": "A#2",
          "ticks": 31200,
          "time": 17.7272875,
          "velocity": 1
        },
        {
          "duration": 0.272727500000002,
          "durationTicks": 480,
          "midi": 38,
          "name": "D2",
          "ticks": 31440,
          "time": 17.86365125,
          "velocity": 1
        },
        {
          "duration": 0.272727500000002,
          "durationTicks": 480,
          "midi": 69,
          "name": "A4",
          "ticks": 31440,
          "time": 17.86365125,
          "velocity": 1
        },
        {
          "duration": 0.27272749999999846,
          "durationTicks": 480,
          "midi": 46,
          "name": "A#2",
          "ticks": 31680,
          "time": 18.000015,
          "velocity": 1
        },
        {
          "duration": 0.272727500000002,
          "durationTicks": 480,
          "midi": 46,
          "name": "A#2",
          "ticks": 32160,
          "time": 18.2727425,
          "velocity": 1
        },
        {
          "duration": 0.272727500000002,
          "durationTicks": 480,
          "midi": 35,
          "name": "B1",
          "ticks": 32160,
          "time": 18.2727425,
          "velocity": 1
        },
        {
          "duration": 0.272727500000002,
          "durationTicks": 480,
          "midi": 70,
          "name": "A#4",
          "ticks": 32160,
          "time": 18.2727425,
          "velocity": 1
        },
        {
          "duration": 0.27272749999999846,
          "durationTicks": 480,
          "midi": 46,
          "name": "A#2",
          "ticks": 32640,
          "time": 18.54547,
          "velocity": 1
        },
        {
          "duration": 0.272727500000002,
          "durationTicks": 480,
          "midi": 46,
          "name": "A#2",
          "ticks": 33120,
          "time": 18.8181975,
          "velocity": 1
        },
        {
          "duration": 0.272727500000002,
          "durationTicks": 480,
          "midi": 35,
          "name": "B1",
          "ticks": 33120,
          "time": 18.8181975,
          "velocity": 1
        },
        {
          "duration": 0.272727500000002,
          "durationTicks": 480,
          "midi": 70,
          "name": "A#4",
          "ticks": 33120,
          "time": 18.8181975,
          "velocity": 1
        },
        {
          "duration": 0.27272749999999846,
          "durationTicks": 480,
          "midi": 46,
          "name": "A#2",
          "ticks": 33600,
          "time": 19.090925000000002,
          "velocity": 1
        },
        {
          "duration": 0.27272749999999846,
          "durationTicks": 480,
          "midi": 38,
          "name": "D2",
          "ticks": 33600,
          "time": 19.090925000000002,
          "velocity": 1
        },
        {
          "duration": 0.13636374999999745,
          "durationTicks": 240,
          "midi": 69,
          "name": "A4",
          "ticks": 33600,
          "time": 19.090925000000002,
          "velocity": 1
        },
        {
          "duration": 0.136363750000001,
          "durationTicks": 240,
          "midi": 69,
          "name": "A4",
          "ticks": 33840,
          "time": 19.22728875,
          "velocity": 1
        },
        {
          "duration": 0.272727500000002,
          "durationTicks": 480,
          "midi": 46,
          "name": "A#2",
          "ticks": 34080,
          "time": 19.3636525,
          "velocity": 1
        },
        {
          "duration": 0.272727500000002,
          "durationTicks": 480,
          "midi": 35,
          "name": "B1",
          "ticks": 34080,
          "time": 19.3636525,
          "velocity": 1
        },
        {
          "duration": 0.272727500000002,
          "durationTicks": 480,
          "midi": 70,
          "name": "A#4",
          "ticks": 34080,
          "time": 19.3636525,
          "velocity": 1
        },
        {
          "duration": 0.27272749999999846,
          "durationTicks": 480,
          "midi": 46,
          "name": "A#2",
          "ticks": 34560,
          "time": 19.636380000000003,
          "velocity": 1
        },
        {
          "duration": 0.27272749999999846,
          "durationTicks": 480,
          "midi": 35,
          "name": "B1",
          "ticks": 34560,
          "time": 19.636380000000003,
          "velocity": 1
        },
        {
          "duration": 0.27272749999999846,
          "durationTicks": 480,
          "midi": 70,
          "name": "A#4",
          "ticks": 34560,
          "time": 19.636380000000003,
          "velocity": 1
        },
        {
          "duration": 0.27272749999999846,
          "durationTicks": 480,
          "midi": 46,
          "name": "A#2",
          "ticks": 35040,
          "time": 19.9091075,
          "velocity": 1
        },
        {
          "duration": 0.27272749999999846,
          "durationTicks": 480,
          "midi": 38,
          "name": "D2",
          "ticks": 35280,
          "time": 20.045471250000002,
          "velocity": 1
        },
        {
          "duration": 0.27272749999999846,
          "durationTicks": 480,
          "midi": 69,
          "name": "A4",
          "ticks": 35280,
          "time": 20.045471250000002,
          "velocity": 1
        },
        {
          "duration": 0.272727500000002,
          "durationTicks": 480,
          "midi": 46,
          "name": "A#2",
          "ticks": 35520,
          "time": 20.181835,
          "velocity": 1
        },
        {
          "duration": 0.27272749999999846,
          "durationTicks": 480,
          "midi": 46,
          "name": "A#2",
          "ticks": 36000,
          "time": 20.4545625,
          "velocity": 1
        },
        {
          "duration": 0.27272749999999846,
          "durationTicks": 480,
          "midi": 35,
          "name": "B1",
          "ticks": 36000,
          "time": 20.4545625,
          "velocity": 1
        },
        {
          "duration": 0.27272749999999846,
          "durationTicks": 480,
          "midi": 70,
          "name": "A#4",
          "ticks": 36000,
          "time": 20.4545625,
          "velocity": 1
        },
        {
          "duration": 0.272727500000002,
          "durationTicks": 480,
          "midi": 46,
          "name": "A#2",
          "ticks": 36480,
          "time": 20.72729,
          "velocity": 1
        },
        {
          "duration": 0.27272749999999846,
          "durationTicks": 480,
          "midi": 35,
          "name": "B1",
          "ticks": 36960,
          "time": 21.000017500000002,
          "velocity": 1
        },
        {
          "duration": 0.27272749999999846,
          "durationTicks": 480,
          "midi": 46,
          "name": "A#2",
          "ticks": 36960,
          "time": 21.000017500000002,
          "velocity": 1
        },
        {
          "duration": 0.27272749999999846,
          "durationTicks": 480,
          "midi": 70,
          "name": "A#4",
          "ticks": 36960,
          "time": 21.000017500000002,
          "velocity": 1
        },
        {
          "duration": 0.136363750000001,
          "durationTicks": 240,
          "midi": 38,
          "name": "D2",
          "ticks": 37440,
          "time": 21.272745,
          "velocity": 1
        },
        {
          "duration": 0.5454550000000005,
          "durationTicks": 960,
          "midi": 49,
          "name": "C#3",
          "ticks": 37440,
          "time": 21.272745,
          "velocity": 1
        },
        {
          "duration": 0.272727500000002,
          "durationTicks": 480,
          "midi": 46,
          "name": "A#2",
          "ticks": 37440,
          "time": 21.272745,
          "velocity": 1
        },
        {
          "duration": 0.136363750000001,
          "durationTicks": 240,
          "midi": 69,
          "name": "A4",
          "ticks": 37440,
          "time": 21.272745,
          "velocity": 1
        },
        {
          "duration": 0.136363750000001,
          "durationTicks": 240,
          "midi": 38,
          "name": "D2",
          "ticks": 37680,
          "time": 21.40910875,
          "velocity": 1
        },
        {
          "duration": 0.136363750000001,
          "durationTicks": 240,
          "midi": 69,
          "name": "A4",
          "ticks": 37680,
          "time": 21.40910875,
          "velocity": 1
        },
        {
          "duration": 0.27272749999999846,
          "durationTicks": 480,
          "midi": 35,
          "name": "B1",
          "ticks": 37920,
          "time": 21.545472500000002,
          "velocity": 1
        },
        {
          "duration": 0.27272749999999846,
          "durationTicks": 480,
          "midi": 46,
          "name": "A#2",
          "ticks": 37920,
          "time": 21.545472500000002,
          "velocity": 1
        },
        {
          "duration": 0.27272749999999846,
          "durationTicks": 480,
          "midi": 70,
          "name": "A#4",
          "ticks": 37920,
          "time": 21.545472500000002,
          "velocity": 1
        },
        {
          "duration": 0.5454550000000005,
          "durationTicks": 960,
          "midi": 49,
          "name": "C#3",
          "ticks": 38400,
          "time": 21.8182,
          "velocity": 1
        },
        {
          "duration": 0.27272749999999846,
          "durationTicks": 480,
          "midi": 35,
          "name": "B1",
          "ticks": 38400,
          "time": 21.8182,
          "velocity": 1
        },
        {
          "duration": 0.27272749999999846,
          "durationTicks": 480,
          "midi": 70,
          "name": "A#4",
          "ticks": 38400,
          "time": 21.8182,
          "velocity": 1
        },
        {
          "duration": 0.5454550000000005,
          "durationTicks": 960,
          "midi": 42,
          "name": "F#2",
          "ticks": 38400,
          "time": 21.8182,
          "velocity": 1
        },
        {
          "duration": 0.272727500000002,
          "durationTicks": 480,
          "midi": 69,
          "name": "A4",
          "ticks": 39120,
          "time": 22.22729125,
          "velocity": 1
        },
        {
          "duration": 0.272727500000002,
          "durationTicks": 480,
          "midi": 38,
          "name": "D2",
          "ticks": 39120,
          "time": 22.22729125,
          "velocity": 1
        },
        {
          "duration": 0.5454550000000005,
          "durationTicks": 960,
          "midi": 42,
          "name": "F#2",
          "ticks": 39360,
          "time": 22.363655,
          "velocity": 1
        },
        {
          "duration": 0.272727500000002,
          "durationTicks": 480,
          "midi": 35,
          "name": "B1",
          "ticks": 39840,
          "time": 22.6363825,
          "velocity": 1
        },
        {
          "duration": 0.272727500000002,
          "durationTicks": 480,
          "midi": 70,
          "name": "A#4",
          "ticks": 39840,
          "time": 22.6363825,
          "velocity": 1
        },
        {
          "duration": 0.5454550000000005,
          "durationTicks": 960,
          "midi": 42,
          "name": "F#2",
          "ticks": 40320,
          "time": 22.909110000000002,
          "velocity": 1
        },
        {
          "duration": 0.272727500000002,
          "durationTicks": 480,
          "midi": 35,
          "name": "B1",
          "ticks": 40800,
          "time": 23.1818375,
          "velocity": 1
        },
        {
          "duration": 0.272727500000002,
          "durationTicks": 480,
          "midi": 70,
          "name": "A#4",
          "ticks": 40800,
          "time": 23.1818375,
          "velocity": 1
        },
        {
          "duration": 0.13636374999999745,
          "durationTicks": 240,
          "midi": 69,
          "name": "A4",
          "ticks": 41280,
          "time": 23.454565000000002,
          "velocity": 1
        },
        {
          "duration": 0.5454549999999969,
          "durationTicks": 960,
          "midi": 42,
          "name": "F#2",
          "ticks": 41280,
          "time": 23.454565000000002,
          "velocity": 1
        },
        {
          "duration": 0.13636374999999745,
          "durationTicks": 240,
          "midi": 38,
          "name": "D2",
          "ticks": 41280,
          "time": 23.454565000000002,
          "velocity": 1
        },
        {
          "duration": 0.136363750000001,
          "durationTicks": 240,
          "midi": 69,
          "name": "A4",
          "ticks": 41520,
          "time": 23.59092875,
          "velocity": 1
        },
        {
          "duration": 0.136363750000001,
          "durationTicks": 240,
          "midi": 38,
          "name": "D2",
          "ticks": 41520,
          "time": 23.59092875,
          "velocity": 1
        },
        {
          "duration": 0.27272749999999846,
          "durationTicks": 480,
          "midi": 35,
          "name": "B1",
          "ticks": 41760,
          "time": 23.7272925,
          "velocity": 1
        },
        {
          "duration": 0.27272749999999846,
          "durationTicks": 480,
          "midi": 70,
          "name": "A#4",
          "ticks": 41760,
          "time": 23.7272925,
          "velocity": 1
        },
        {
          "duration": 0.272727500000002,
          "durationTicks": 480,
          "midi": 35,
          "name": "B1",
          "ticks": 42240,
          "time": 24.00002,
          "velocity": 1
        },
        {
          "duration": 0.272727500000002,
          "durationTicks": 480,
          "midi": 70,
          "name": "A#4",
          "ticks": 42240,
          "time": 24.00002,
          "velocity": 1
        },
        {
          "duration": 0.5454550000000005,
          "durationTicks": 960,
          "midi": 42,
          "name": "F#2",
          "ticks": 42240,
          "time": 24.00002,
          "velocity": 1
        },
        {
          "duration": 0.27272749999999846,
          "durationTicks": 480,
          "midi": 69,
          "name": "A4",
          "ticks": 42960,
          "time": 24.409111250000002,
          "velocity": 1
        },
        {
          "duration": 0.27272749999999846,
          "durationTicks": 480,
          "midi": 38,
          "name": "D2",
          "ticks": 42960,
          "time": 24.409111250000002,
          "velocity": 1
        },
        {
          "duration": 0.5454550000000005,
          "durationTicks": 960,
          "midi": 42,
          "name": "F#2",
          "ticks": 43200,
          "time": 24.545475,
          "velocity": 1
        },
        {
          "duration": 0.27272749999999846,
          "durationTicks": 480,
          "midi": 35,
          "name": "B1",
          "ticks": 43680,
          "time": 24.8182025,
          "velocity": 1
        },
        {
          "duration": 0.27272749999999846,
          "durationTicks": 480,
          "midi": 70,
          "name": "A#4",
          "ticks": 43680,
          "time": 24.8182025,
          "velocity": 1
        },
        {
          "duration": 0.5454550000000005,
          "durationTicks": 960,
          "midi": 42,
          "name": "F#2",
          "ticks": 44160,
          "time": 25.09093,
          "velocity": 1
        },
        {
          "duration": 0.27272749999999846,
          "durationTicks": 480,
          "midi": 35,
          "name": "B1",
          "ticks": 44640,
          "time": 25.363657500000002,
          "velocity": 1
        },
        {
          "duration": 0.27272749999999846,
          "durationTicks": 480,
          "midi": 70,
          "name": "A#4",
          "ticks": 44640,
          "time": 25.363657500000002,
          "velocity": 1
        },
        {
          "duration": 0.136363750000001,
          "durationTicks": 240,
          "midi": 69,
          "name": "A4",
          "ticks": 45120,
          "time": 25.636385,
          "velocity": 1
        },
        {
          "duration": 0.5454550000000005,
          "durationTicks": 960,
          "midi": 42,
          "name": "F#2",
          "ticks": 45120,
          "time": 25.636385,
          "velocity": 1
        },
        {
          "duration": 0.136363750000001,
          "durationTicks": 240,
          "midi": 38,
          "name": "D2",
          "ticks": 45120,
          "time": 25.636385,
          "velocity": 1
        },
        {
          "duration": 0.136363750000001,
          "durationTicks": 240,
          "midi": 69,
          "name": "A4",
          "ticks": 45360,
          "time": 25.77274875,
          "velocity": 1
        },
        {
          "duration": 0.136363750000001,
          "durationTicks": 240,
          "midi": 38,
          "name": "D2",
          "ticks": 45360,
          "time": 25.77274875,
          "velocity": 1
        },
        {
          "duration": 0.27272749999999846,
          "durationTicks": 480,
          "midi": 35,
          "name": "B1",
          "ticks": 45600,
          "time": 25.909112500000003,
          "velocity": 1
        },
        {
          "duration": 0.27272749999999846,
          "durationTicks": 480,
          "midi": 70,
          "name": "A#4",
          "ticks": 45600,
          "time": 25.909112500000003,
          "velocity": 1
        },
        {
          "duration": 0.27272749999999846,
          "durationTicks": 480,
          "midi": 35,
          "name": "B1",
          "ticks": 46080,
          "time": 26.18184,
          "velocity": 1
        },
        {
          "duration": 0.27272749999999846,
          "durationTicks": 480,
          "midi": 70,
          "name": "A#4",
          "ticks": 46080,
          "time": 26.18184,
          "velocity": 1
        },
        {
          "duration": 0.5454550000000005,
          "durationTicks": 960,
          "midi": 42,
          "name": "F#2",
          "ticks": 46080,
          "time": 26.18184,
          "velocity": 1
        },
        {
          "duration": 0.272727500000002,
          "durationTicks": 480,
          "midi": 69,
          "name": "A4",
          "ticks": 46800,
          "time": 26.59093125,
          "velocity": 1
        },
        {
          "duration": 0.272727500000002,
          "durationTicks": 480,
          "midi": 38,
          "name": "D2",
          "ticks": 46800,
          "time": 26.59093125,
          "velocity": 1
        },
        {
          "duration": 0.5454550000000005,
          "durationTicks": 960,
          "midi": 42,
          "name": "F#2",
          "ticks": 47040,
          "time": 26.727295,
          "velocity": 1
        },
        {
          "duration": 0.272727500000002,
          "durationTicks": 480,
          "midi": 35,
          "name": "B1",
          "ticks": 47520,
          "time": 27.0000225,
          "velocity": 1
        },
        {
          "duration": 0.272727500000002,
          "durationTicks": 480,
          "midi": 70,
          "name": "A#4",
          "ticks": 47520,
          "time": 27.0000225,
          "velocity": 1
        },
        {
          "duration": 0.5454550000000005,
          "durationTicks": 960,
          "midi": 42,
          "name": "F#2",
          "ticks": 48000,
          "time": 27.272750000000002,
          "velocity": 1
        },
        {
          "duration": 0.272727500000002,
          "durationTicks": 480,
          "midi": 35,
          "name": "B1",
          "ticks": 48480,
          "time": 27.5454775,
          "velocity": 1
        },
        {
          "duration": 0.272727500000002,
          "durationTicks": 480,
          "midi": 70,
          "name": "A#4",
          "ticks": 48480,
          "time": 27.5454775,
          "velocity": 1
        },
        {
          "duration": 0.13636374999999745,
          "durationTicks": 240,
          "midi": 69,
          "name": "A4",
          "ticks": 48960,
          "time": 27.818205000000003,
          "velocity": 1
        },
        {
          "duration": 0.5454550000000005,
          "durationTicks": 960,
          "midi": 42,
          "name": "F#2",
          "ticks": 48960,
          "time": 27.818205000000003,
          "velocity": 1
        },
        {
          "duration": 0.13636374999999745,
          "durationTicks": 240,
          "midi": 38,
          "name": "D2",
          "ticks": 48960,
          "time": 27.818205000000003,
          "velocity": 1
        },
        {
          "duration": 0.136363750000001,
          "durationTicks": 240,
          "midi": 69,
          "name": "A4",
          "ticks": 49200,
          "time": 27.95456875,
          "velocity": 1
        },
        {
          "duration": 0.136363750000001,
          "durationTicks": 240,
          "midi": 38,
          "name": "D2",
          "ticks": 49200,
          "time": 27.95456875,
          "velocity": 1
        },
        {
          "duration": 0.272727500000002,
          "durationTicks": 480,
          "midi": 35,
          "name": "B1",
          "ticks": 49440,
          "time": 28.0909325,
          "velocity": 1
        },
        {
          "duration": 0.272727500000002,
          "durationTicks": 480,
          "midi": 70,
          "name": "A#4",
          "ticks": 49440,
          "time": 28.0909325,
          "velocity": 1
        },
        {
          "duration": 0.27272749999999846,
          "durationTicks": 480,
          "midi": 35,
          "name": "B1",
          "ticks": 49920,
          "time": 28.363660000000003,
          "velocity": 1
        },
        {
          "duration": 0.27272749999999846,
          "durationTicks": 480,
          "midi": 70,
          "name": "A#4",
          "ticks": 49920,
          "time": 28.363660000000003,
          "velocity": 1
        },
        {
          "duration": 0.5454549999999969,
          "durationTicks": 960,
          "midi": 42,
          "name": "F#2",
          "ticks": 49920,
          "time": 28.363660000000003,
          "velocity": 1
        },
        {
          "duration": 0.27272749999999846,
          "durationTicks": 480,
          "midi": 69,
          "name": "A4",
          "ticks": 50640,
          "time": 28.772751250000002,
          "velocity": 1
        },
        {
          "duration": 0.27272749999999846,
          "durationTicks": 480,
          "midi": 38,
          "name": "D2",
          "ticks": 50640,
          "time": 28.772751250000002,
          "velocity": 1
        },
        {
          "duration": 0.5454550000000005,
          "durationTicks": 960,
          "midi": 42,
          "name": "F#2",
          "ticks": 50880,
          "time": 28.909115,
          "velocity": 1
        },
        {
          "duration": 0.27272749999999846,
          "durationTicks": 480,
          "midi": 35,
          "name": "B1",
          "ticks": 51360,
          "time": 29.181842500000002,
          "velocity": 1
        },
        {
          "duration": 0.27272749999999846,
          "durationTicks": 480,
          "midi": 70,
          "name": "A#4",
          "ticks": 51360,
          "time": 29.181842500000002,
          "velocity": 1
        },
        {
          "duration": 0.5454550000000005,
          "durationTicks": 960,
          "midi": 42,
          "name": "F#2",
          "ticks": 51840,
          "time": 29.45457,
          "velocity": 1
        },
        {
          "duration": 0.27272749999999846,
          "durationTicks": 480,
          "midi": 35,
          "name": "B1",
          "ticks": 52320,
          "time": 29.727297500000002,
          "velocity": 1
        },
        {
          "duration": 0.27272749999999846,
          "durationTicks": 480,
          "midi": 70,
          "name": "A#4",
          "ticks": 52320,
          "time": 29.727297500000002,
          "velocity": 1
        },
        {
          "duration": 0.136363750000001,
          "durationTicks": 240,
          "midi": 69,
          "name": "A4",
          "ticks": 52800,
          "time": 30.000025,
          "velocity": 1
        },
        {
          "duration": 0.5454550000000005,
          "durationTicks": 960,
          "midi": 42,
          "name": "F#2",
          "ticks": 52800,
          "time": 30.000025,
          "velocity": 1
        },
        {
          "duration": 0.136363750000001,
          "durationTicks": 240,
          "midi": 38,
          "name": "D2",
          "ticks": 52800,
          "time": 30.000025,
          "velocity": 1
        },
        {
          "duration": 0.136363750000001,
          "durationTicks": 240,
          "midi": 69,
          "name": "A4",
          "ticks": 53040,
          "time": 30.136388750000002,
          "velocity": 1
        },
        {
          "duration": 0.136363750000001,
          "durationTicks": 240,
          "midi": 38,
          "name": "D2",
          "ticks": 53040,
          "time": 30.136388750000002,
          "velocity": 1
        },
        {
          "duration": 0.27272749999999846,
          "durationTicks": 480,
          "midi": 35,
          "name": "B1",
          "ticks": 53280,
          "time": 30.272752500000003,
          "velocity": 1
        },
        {
          "duration": 0.27272749999999846,
          "durationTicks": 480,
          "midi": 70,
          "name": "A#4",
          "ticks": 53280,
          "time": 30.272752500000003,
          "velocity": 1
        },
        {
          "duration": 0.27272749999999846,
          "durationTicks": 480,
          "midi": 35,
          "name": "B1",
          "ticks": 53760,
          "time": 30.54548,
          "velocity": 1
        },
        {
          "duration": 0.27272749999999846,
          "durationTicks": 480,
          "midi": 70,
          "name": "A#4",
          "ticks": 53760,
          "time": 30.54548,
          "velocity": 1
        },
        {
          "duration": 0.5454550000000005,
          "durationTicks": 960,
          "midi": 42,
          "name": "F#2",
          "ticks": 53760,
          "time": 30.54548,
          "velocity": 1
        },
        {
          "duration": 0.272727500000002,
          "durationTicks": 480,
          "midi": 69,
          "name": "A4",
          "ticks": 54480,
          "time": 30.95457125,
          "velocity": 1
        },
        {
          "duration": 0.272727500000002,
          "durationTicks": 480,
          "midi": 38,
          "name": "D2",
          "ticks": 54480,
          "time": 30.95457125,
          "velocity": 1
        },
        {
          "duration": 0.5454550000000005,
          "durationTicks": 960,
          "midi": 42,
          "name": "F#2",
          "ticks": 54720,
          "time": 31.090935,
          "velocity": 1
        },
        {
          "duration": 0.272727500000002,
          "durationTicks": 480,
          "midi": 35,
          "name": "B1",
          "ticks": 55200,
          "time": 31.3636625,
          "velocity": 1
        },
        {
          "duration": 0.272727500000002,
          "durationTicks": 480,
          "midi": 70,
          "name": "A#4",
          "ticks": 55200,
          "time": 31.3636625,
          "velocity": 1
        },
        {
          "duration": 0.5454550000000005,
          "durationTicks": 960,
          "midi": 42,
          "name": "F#2",
          "ticks": 55680,
          "time": 31.636390000000002,
          "velocity": 1
        },
        {
          "duration": 0.272727500000002,
          "durationTicks": 480,
          "midi": 35,
          "name": "B1",
          "ticks": 56160,
          "time": 31.9091175,
          "velocity": 1
        },
        {
          "duration": 0.272727500000002,
          "durationTicks": 480,
          "midi": 70,
          "name": "A#4",
          "ticks": 56160,
          "time": 31.9091175,
          "velocity": 1
        },
        {
          "duration": 0.136363750000001,
          "durationTicks": 240,
          "midi": 69,
          "name": "A4",
          "ticks": 56640,
          "time": 32.181845,
          "velocity": 1
        },
        {
          "duration": 0.5454549999999969,
          "durationTicks": 960,
          "midi": 42,
          "name": "F#2",
          "ticks": 56640,
          "time": 32.181845,
          "velocity": 1
        },
        {
          "duration": 0.136363750000001,
          "durationTicks": 240,
          "midi": 38,
          "name": "D2",
          "ticks": 56640,
          "time": 32.181845,
          "velocity": 1
        },
        {
          "duration": 0.136363750000001,
          "durationTicks": 240,
          "midi": 69,
          "name": "A4",
          "ticks": 56880,
          "time": 32.318208750000004,
          "velocity": 1
        },
        {
          "duration": 0.136363750000001,
          "durationTicks": 240,
          "midi": 38,
          "name": "D2",
          "ticks": 56880,
          "time": 32.318208750000004,
          "velocity": 1
        },
        {
          "duration": 0.2727274999999949,
          "durationTicks": 480,
          "midi": 35,
          "name": "B1",
          "ticks": 57120,
          "time": 32.454572500000005,
          "velocity": 1
        },
        {
          "duration": 0.2727274999999949,
          "durationTicks": 480,
          "midi": 70,
          "name": "A#4",
          "ticks": 57120,
          "time": 32.454572500000005,
          "velocity": 1
        },
        {
          "duration": 0.272727500000002,
          "durationTicks": 480,
          "midi": 35,
          "name": "B1",
          "ticks": 57600,
          "time": 32.7273,
          "velocity": 1
        },
        {
          "duration": 0.272727500000002,
          "durationTicks": 480,
          "midi": 70,
          "name": "A#4",
          "ticks": 57600,
          "time": 32.7273,
          "velocity": 1
        },
        {
          "duration": 0.545455000000004,
          "durationTicks": 960,
          "midi": 42,
          "name": "F#2",
          "ticks": 57600,
          "time": 32.7273,
          "velocity": 1
        },
        {
          "duration": 0.272727500000002,
          "durationTicks": 480,
          "midi": 69,
          "name": "A4",
          "ticks": 58320,
          "time": 33.13639125,
          "velocity": 1
        },
        {
          "duration": 0.272727500000002,
          "durationTicks": 480,
          "midi": 38,
          "name": "D2",
          "ticks": 58320,
          "time": 33.13639125,
          "velocity": 1
        },
        {
          "duration": 0.5454549999999969,
          "durationTicks": 960,
          "midi": 42,
          "name": "F#2",
          "ticks": 58560,
          "time": 33.272755000000004,
          "velocity": 1
        },
        {
          "duration": 0.272727500000002,
          "durationTicks": 480,
          "midi": 35,
          "name": "B1",
          "ticks": 59040,
          "time": 33.5454825,
          "velocity": 1
        },
        {
          "duration": 0.272727500000002,
          "durationTicks": 480,
          "midi": 70,
          "name": "A#4",
          "ticks": 59040,
          "time": 33.5454825,
          "velocity": 1
        },
        {
          "duration": 0.545455000000004,
          "durationTicks": 960,
          "midi": 42,
          "name": "F#2",
          "ticks": 59520,
          "time": 33.81821,
          "velocity": 1
        },
        {
          "duration": 0.272727500000002,
          "durationTicks": 480,
          "midi": 35,
          "name": "B1",
          "ticks": 60000,
          "time": 34.0909375,
          "velocity": 1
        },
        {
          "duration": 0.272727500000002,
          "durationTicks": 480,
          "midi": 70,
          "name": "A#4",
          "ticks": 60000,
          "time": 34.0909375,
          "velocity": 1
        },
        {
          "duration": 0.1363637499999939,
          "durationTicks": 240,
          "midi": 69,
          "name": "A4",
          "ticks": 60480,
          "time": 34.363665000000005,
          "velocity": 1
        },
        {
          "duration": 0.5454549999999969,
          "durationTicks": 960,
          "midi": 42,
          "name": "F#2",
          "ticks": 60480,
          "time": 34.363665000000005,
          "velocity": 1
        },
        {
          "duration": 0.1363637499999939,
          "durationTicks": 240,
          "midi": 38,
          "name": "D2",
          "ticks": 60480,
          "time": 34.363665000000005,
          "velocity": 1
        },
        {
          "duration": 0.136363750000001,
          "durationTicks": 240,
          "midi": 69,
          "name": "A4",
          "ticks": 60720,
          "time": 34.50002875,
          "velocity": 1
        },
        {
          "duration": 0.136363750000001,
          "durationTicks": 240,
          "midi": 38,
          "name": "D2",
          "ticks": 60720,
          "time": 34.50002875,
          "velocity": 1
        },
        {
          "duration": 0.272727500000002,
          "durationTicks": 480,
          "midi": 35,
          "name": "B1",
          "ticks": 60960,
          "time": 34.6363925,
          "velocity": 1
        },
        {
          "duration": 0.272727500000002,
          "durationTicks": 480,
          "midi": 70,
          "name": "A#4",
          "ticks": 60960,
          "time": 34.6363925,
          "velocity": 1
        },
        {
          "duration": 0.272727500000002,
          "durationTicks": 480,
          "midi": 35,
          "name": "B1",
          "ticks": 61440,
          "time": 34.90912,
          "velocity": 1
        },
        {
          "duration": 0.272727500000002,
          "durationTicks": 480,
          "midi": 70,
          "name": "A#4",
          "ticks": 61440,
          "time": 34.90912,
          "velocity": 1
        },
        {
          "duration": 0.5454549999999969,
          "durationTicks": 960,
          "midi": 42,
          "name": "F#2",
          "ticks": 61440,
          "time": 34.90912,
          "velocity": 1
        },
        {
          "duration": 0.2727274999999949,
          "durationTicks": 480,
          "midi": 69,
          "name": "A4",
          "ticks": 62160,
          "time": 35.318211250000004,
          "velocity": 1
        },
        {
          "duration": 0.2727274999999949,
          "durationTicks": 480,
          "midi": 38,
          "name": "D2",
          "ticks": 62160,
          "time": 35.318211250000004,
          "velocity": 1
        },
        {
          "duration": 0.545455000000004,
          "durationTicks": 960,
          "midi": 42,
          "name": "F#2",
          "ticks": 62400,
          "time": 35.454575,
          "velocity": 1
        },
        {
          "duration": 0.272727500000002,
          "durationTicks": 480,
          "midi": 35,
          "name": "B1",
          "ticks": 62880,
          "time": 35.7273025,
          "velocity": 1
        },
        {
          "duration": 0.272727500000002,
          "durationTicks": 480,
          "midi": 70,
          "name": "A#4",
          "ticks": 62880,
          "time": 35.7273025,
          "velocity": 1
        },
        {
          "duration": 0.5454549999999969,
          "durationTicks": 960,
          "midi": 42,
          "name": "F#2",
          "ticks": 63360,
          "time": 36.00003,
          "velocity": 1
        },
        {
          "duration": 0.2727274999999949,
          "durationTicks": 480,
          "midi": 35,
          "name": "B1",
          "ticks": 63840,
          "time": 36.272757500000004,
          "velocity": 1
        },
        {
          "duration": 0.2727274999999949,
          "durationTicks": 480,
          "midi": 70,
          "name": "A#4",
          "ticks": 63840,
          "time": 36.272757500000004,
          "velocity": 1
        },
        {
          "duration": 0.136363750000001,
          "durationTicks": 240,
          "midi": 69,
          "name": "A4",
          "ticks": 64320,
          "time": 36.545485,
          "velocity": 1
        },
        {
          "duration": 0.545455000000004,
          "durationTicks": 960,
          "midi": 42,
          "name": "F#2",
          "ticks": 64320,
          "time": 36.545485,
          "velocity": 1
        },
        {
          "duration": 0.136363750000001,
          "durationTicks": 240,
          "midi": 38,
          "name": "D2",
          "ticks": 64320,
          "time": 36.545485,
          "velocity": 1
        },
        {
          "duration": 0.136363750000001,
          "durationTicks": 240,
          "midi": 69,
          "name": "A4",
          "ticks": 64560,
          "time": 36.68184875,
          "velocity": 1
        },
        {
          "duration": 0.136363750000001,
          "durationTicks": 240,
          "midi": 38,
          "name": "D2",
          "ticks": 64560,
          "time": 36.68184875,
          "velocity": 1
        },
        {
          "duration": 0.272727500000002,
          "durationTicks": 480,
          "midi": 35,
          "name": "B1",
          "ticks": 64800,
          "time": 36.8182125,
          "velocity": 1
        },
        {
          "duration": 0.272727500000002,
          "durationTicks": 480,
          "midi": 70,
          "name": "A#4",
          "ticks": 64800,
          "time": 36.8182125,
          "velocity": 1
        },
        {
          "duration": 0.2727274999999949,
          "durationTicks": 480,
          "midi": 35,
          "name": "B1",
          "ticks": 65280,
          "time": 37.09094,
          "velocity": 1
        },
        {
          "duration": 0.2727274999999949,
          "durationTicks": 480,
          "midi": 70,
          "name": "A#4",
          "ticks": 65280,
          "time": 37.09094,
          "velocity": 1
        },
        {
          "duration": 0.5454549999999969,
          "durationTicks": 960,
          "midi": 42,
          "name": "F#2",
          "ticks": 65280,
          "time": 37.09094,
          "velocity": 1
        },
        {
          "duration": 0.272727500000002,
          "durationTicks": 480,
          "midi": 69,
          "name": "A4",
          "ticks": 66000,
          "time": 37.50003125,
          "velocity": 1
        },
        {
          "duration": 0.272727500000002,
          "durationTicks": 480,
          "midi": 38,
          "name": "D2",
          "ticks": 66000,
          "time": 37.50003125,
          "velocity": 1
        },
        {
          "duration": 0.545455000000004,
          "durationTicks": 960,
          "midi": 42,
          "name": "F#2",
          "ticks": 66240,
          "time": 37.636395,
          "velocity": 1
        },
        {
          "duration": 0.272727500000002,
          "durationTicks": 480,
          "midi": 35,
          "name": "B1",
          "ticks": 66720,
          "time": 37.9091225,
          "velocity": 1
        },
        {
          "duration": 0.272727500000002,
          "durationTicks": 480,
          "midi": 70,
          "name": "A#4",
          "ticks": 66720,
          "time": 37.9091225,
          "velocity": 1
        },
        {
          "duration": 0.5454549999999969,
          "durationTicks": 960,
          "midi": 42,
          "name": "F#2",
          "ticks": 67200,
          "time": 38.181850000000004,
          "velocity": 1
        },
        {
          "duration": 0.272727500000002,
          "durationTicks": 480,
          "midi": 35,
          "name": "B1",
          "ticks": 67680,
          "time": 38.4545775,
          "velocity": 1
        },
        {
          "duration": 0.272727500000002,
          "durationTicks": 480,
          "midi": 70,
          "name": "A#4",
          "ticks": 67680,
          "time": 38.4545775,
          "velocity": 1
        },
        {
          "duration": 0.136363750000001,
          "durationTicks": 240,
          "midi": 69,
          "name": "A4",
          "ticks": 68160,
          "time": 38.727305,
          "velocity": 1
        },
        {
          "duration": 0.545455000000004,
          "durationTicks": 960,
          "midi": 42,
          "name": "F#2",
          "ticks": 68160,
          "time": 38.727305,
          "velocity": 1
        },
        {
          "duration": 0.136363750000001,
          "durationTicks": 240,
          "midi": 38,
          "name": "D2",
          "ticks": 68160,
          "time": 38.727305,
          "velocity": 1
        },
        {
          "duration": 0.136363750000001,
          "durationTicks": 240,
          "midi": 69,
          "name": "A4",
          "ticks": 68400,
          "time": 38.86366875,
          "velocity": 1
        },
        {
          "duration": 0.136363750000001,
          "durationTicks": 240,
          "midi": 38,
          "name": "D2",
          "ticks": 68400,
          "time": 38.86366875,
          "velocity": 1
        },
        {
          "duration": 0.272727500000002,
          "durationTicks": 480,
          "midi": 69,
          "name": "A4",
          "ticks": 68640,
          "time": 39.0000325,
          "velocity": 1
        },
        {
          "duration": 0.272727500000002,
          "durationTicks": 480,
          "midi": 38,
          "name": "D2",
          "ticks": 68640,
          "time": 39.0000325,
          "velocity": 1
        },
        {
          "duration": 0.2727274999999949,
          "durationTicks": 480,
          "midi": 35,
          "name": "B1",
          "ticks": 69120,
          "time": 39.272760000000005,
          "velocity": 1
        },
        {
          "duration": 0.2727274999999949,
          "durationTicks": 480,
          "midi": 70,
          "name": "A#4",
          "ticks": 69120,
          "time": 39.272760000000005,
          "velocity": 1
        },
        {
          "duration": 0.5454549999999969,
          "durationTicks": 960,
          "midi": 49,
          "name": "C#3",
          "ticks": 69120,
          "time": 39.272760000000005,
          "velocity": 1
        },
        {
          "duration": 0.1363637499999939,
          "durationTicks": 240,
          "midi": 42,
          "name": "F#2",
          "ticks": 69120,
          "time": 39.272760000000005,
          "velocity": 1
        },
        {
          "duration": 0.136363750000001,
          "durationTicks": 240,
          "midi": 42,
          "name": "F#2",
          "ticks": 69360,
          "time": 39.40912375,
          "velocity": 1
        },
        {
          "duration": 0.136363750000001,
          "durationTicks": 240,
          "midi": 42,
          "name": "F#2",
          "ticks": 69600,
          "time": 39.5454875,
          "velocity": 1
        },
        {
          "duration": 0.272727500000002,
          "durationTicks": 480,
          "midi": 69,
          "name": "A4",
          "ticks": 69840,
          "time": 39.68185125,
          "velocity": 1
        },
        {
          "duration": 0.136363750000001,
          "durationTicks": 240,
          "midi": 42,
          "name": "F#2",
          "ticks": 69840,
          "time": 39.68185125,
          "velocity": 1
        },
        {
          "duration": 0.272727500000002,
          "durationTicks": 480,
          "midi": 38,
          "name": "D2",
          "ticks": 69840,
          "time": 39.68185125,
          "velocity": 1
        },
        {
          "duration": 0.136363750000001,
          "durationTicks": 240,
          "midi": 42,
          "name": "F#2",
          "ticks": 70080,
          "time": 39.818215,
          "velocity": 1
        },
        {
          "duration": 0.136363750000001,
          "durationTicks": 240,
          "midi": 42,
          "name": "F#2",
          "ticks": 70320,
          "time": 39.95457875,
          "velocity": 1
        },
        {
          "duration": 0.2727274999999949,
          "durationTicks": 480,
          "midi": 35,
          "name": "B1",
          "ticks": 70560,
          "time": 40.090942500000004,
          "velocity": 1
        },
        {
          "duration": 0.2727274999999949,
          "durationTicks": 480,
          "midi": 70,
          "name": "A#4",
          "ticks": 70560,
          "time": 40.090942500000004,
          "velocity": 1
        },
        {
          "duration": 0.136363750000001,
          "durationTicks": 240,
          "midi": 42,
          "name": "F#2",
          "ticks": 70560,
          "time": 40.090942500000004,
          "velocity": 1
        },
        {
          "duration": 0.1363637499999939,
          "durationTicks": 240,
          "midi": 42,
          "name": "F#2",
          "ticks": 70800,
          "time": 40.227306250000005,
          "velocity": 1
        },
        {
          "duration": 0.136363750000001,
          "durationTicks": 240,
          "midi": 42,
          "name": "F#2",
          "ticks": 71040,
          "time": 40.36367,
          "velocity": 1
        },
        {
          "duration": 0.136363750000001,
          "durationTicks": 240,
          "midi": 42,
          "name": "F#2",
          "ticks": 71280,
          "time": 40.50003375,
          "velocity": 1
        },
        {
          "duration": 0.272727500000002,
          "durationTicks": 480,
          "midi": 35,
          "name": "B1",
          "ticks": 71520,
          "time": 40.6363975,
          "velocity": 1
        },
        {
          "duration": 0.272727500000002,
          "durationTicks": 480,
          "midi": 70,
          "name": "A#4",
          "ticks": 71520,
          "time": 40.6363975,
          "velocity": 1
        },
        {
          "duration": 0.136363750000001,
          "durationTicks": 240,
          "midi": 42,
          "name": "F#2",
          "ticks": 71520,
          "time": 40.6363975,
          "velocity": 1
        },
        {
          "duration": 0.136363750000001,
          "durationTicks": 240,
          "midi": 42,
          "name": "F#2",
          "ticks": 71760,
          "time": 40.77276125,
          "velocity": 1
        },
        {
          "duration": 0.136363750000001,
          "durationTicks": 240,
          "midi": 69,
          "name": "A4",
          "ticks": 72000,
          "time": 40.909125,
          "velocity": 1
        },
        {
          "duration": 0.136363750000001,
          "durationTicks": 240,
          "midi": 42,
          "name": "F#2",
          "ticks": 72000,
          "time": 40.909125,
          "velocity": 1
        },
        {
          "duration": 0.136363750000001,
          "durationTicks": 240,
          "midi": 38,
          "name": "D2",
          "ticks": 72000,
          "time": 40.909125,
          "velocity": 1
        },
        {
          "duration": 0.136363750000001,
          "durationTicks": 240,
          "midi": 69,
          "name": "A4",
          "ticks": 72240,
          "time": 41.045488750000004,
          "velocity": 1
        },
        {
          "duration": 0.136363750000001,
          "durationTicks": 240,
          "midi": 42,
          "name": "F#2",
          "ticks": 72240,
          "time": 41.045488750000004,
          "velocity": 1
        },
        {
          "duration": 0.136363750000001,
          "durationTicks": 240,
          "midi": 38,
          "name": "D2",
          "ticks": 72240,
          "time": 41.045488750000004,
          "velocity": 1
        },
        {
          "duration": 0.2727274999999949,
          "durationTicks": 480,
          "midi": 35,
          "name": "B1",
          "ticks": 72480,
          "time": 41.181852500000005,
          "velocity": 1
        },
        {
          "duration": 0.2727274999999949,
          "durationTicks": 480,
          "midi": 70,
          "name": "A#4",
          "ticks": 72480,
          "time": 41.181852500000005,
          "velocity": 1
        },
        {
          "duration": 0.1363637499999939,
          "durationTicks": 240,
          "midi": 42,
          "name": "F#2",
          "ticks": 72480,
          "time": 41.181852500000005,
          "velocity": 1
        },
        {
          "duration": 0.136363750000001,
          "durationTicks": 240,
          "midi": 42,
          "name": "F#2",
          "ticks": 72720,
          "time": 41.31821625,
          "velocity": 1
        },
        {
          "duration": 0.272727500000002,
          "durationTicks": 480,
          "midi": 35,
          "name": "B1",
          "ticks": 72960,
          "time": 41.45458,
          "velocity": 1
        },
        {
          "duration": 0.272727500000002,
          "durationTicks": 480,
          "midi": 70,
          "name": "A#4",
          "ticks": 72960,
          "time": 41.45458,
          "velocity": 1
        },
        {
          "duration": 0.136363750000001,
          "durationTicks": 240,
          "midi": 42,
          "name": "F#2",
          "ticks": 72960,
          "time": 41.45458,
          "velocity": 1
        },
        {
          "duration": 0.136363750000001,
          "durationTicks": 240,
          "midi": 42,
          "name": "F#2",
          "ticks": 73200,
          "time": 41.59094375,
          "velocity": 1
        },
        {
          "duration": 0.136363750000001,
          "durationTicks": 240,
          "midi": 42,
          "name": "F#2",
          "ticks": 73440,
          "time": 41.7273075,
          "velocity": 1
        },
        {
          "duration": 0.272727500000002,
          "durationTicks": 480,
          "midi": 69,
          "name": "A4",
          "ticks": 73680,
          "time": 41.86367125,
          "velocity": 1
        },
        {
          "duration": 0.136363750000001,
          "durationTicks": 240,
          "midi": 42,
          "name": "F#2",
          "ticks": 73680,
          "time": 41.86367125,
          "velocity": 1
        },
        {
          "duration": 0.272727500000002,
          "durationTicks": 480,
          "midi": 38,
          "name": "D2",
          "ticks": 73680,
          "time": 41.86367125,
          "velocity": 1
        },
        {
          "duration": 0.136363750000001,
          "durationTicks": 240,
          "midi": 42,
          "name": "F#2",
          "ticks": 73920,
          "time": 42.000035000000004,
          "velocity": 1
        },
        {
          "duration": 0.1363637499999939,
          "durationTicks": 240,
          "midi": 42,
          "name": "F#2",
          "ticks": 74160,
          "time": 42.136398750000005,
          "velocity": 1
        },
        {
          "duration": 0.272727500000002,
          "durationTicks": 480,
          "midi": 35,
          "name": "B1",
          "ticks": 74400,
          "time": 42.2727625,
          "velocity": 1
        },
        {
          "duration": 0.272727500000002,
          "durationTicks": 480,
          "midi": 70,
          "name": "A#4",
          "ticks": 74400,
          "time": 42.2727625,
          "velocity": 1
        },
        {
          "duration": 0.136363750000001,
          "durationTicks": 240,
          "midi": 42,
          "name": "F#2",
          "ticks": 74400,
          "time": 42.2727625,
          "velocity": 1
        },
        {
          "duration": 0.136363750000001,
          "durationTicks": 240,
          "midi": 42,
          "name": "F#2",
          "ticks": 74640,
          "time": 42.40912625,
          "velocity": 1
        },
        {
          "duration": 0.136363750000001,
          "durationTicks": 240,
          "midi": 42,
          "name": "F#2",
          "ticks": 74880,
          "time": 42.54549,
          "velocity": 1
        },
        {
          "duration": 0.136363750000001,
          "durationTicks": 240,
          "midi": 42,
          "name": "F#2",
          "ticks": 75120,
          "time": 42.68185375,
          "velocity": 1
        },
        {
          "duration": 0.272727500000002,
          "durationTicks": 480,
          "midi": 35,
          "name": "B1",
          "ticks": 75360,
          "time": 42.8182175,
          "velocity": 1
        },
        {
          "duration": 0.272727500000002,
          "durationTicks": 480,
          "midi": 70,
          "name": "A#4",
          "ticks": 75360,
          "time": 42.8182175,
          "velocity": 1
        },
        {
          "duration": 0.136363750000001,
          "durationTicks": 240,
          "midi": 42,
          "name": "F#2",
          "ticks": 75360,
          "time": 42.8182175,
          "velocity": 1
        },
        {
          "duration": 0.136363750000001,
          "durationTicks": 240,
          "midi": 42,
          "name": "F#2",
          "ticks": 75600,
          "time": 42.954581250000004,
          "velocity": 1
        },
        {
          "duration": 0.1363637499999939,
          "durationTicks": 240,
          "midi": 69,
          "name": "A4",
          "ticks": 75840,
          "time": 43.090945000000005,
          "velocity": 1
        },
        {
          "duration": 0.1363637499999939,
          "durationTicks": 240,
          "midi": 42,
          "name": "F#2",
          "ticks": 75840,
          "time": 43.090945000000005,
          "velocity": 1
        },
        {
          "duration": 0.1363637499999939,
          "durationTicks": 240,
          "midi": 38,
          "name": "D2",
          "ticks": 75840,
          "time": 43.090945000000005,
          "velocity": 1
        },
        {
          "duration": 0.136363750000001,
          "durationTicks": 240,
          "midi": 69,
          "name": "A4",
          "ticks": 76080,
          "time": 43.22730875,
          "velocity": 1
        },
        {
          "duration": 0.136363750000001,
          "durationTicks": 240,
          "midi": 42,
          "name": "F#2",
          "ticks": 76080,
          "time": 43.22730875,
          "velocity": 1
        },
        {
          "duration": 0.136363750000001,
          "durationTicks": 240,
          "midi": 38,
          "name": "D2",
          "ticks": 76080,
          "time": 43.22730875,
          "velocity": 1
        },
        {
          "duration": 0.272727500000002,
          "durationTicks": 480,
          "midi": 35,
          "name": "B1",
          "ticks": 76320,
          "time": 43.3636725,
          "velocity": 1
        },
        {
          "duration": 0.272727500000002,
          "durationTicks": 480,
          "midi": 70,
          "name": "A#4",
          "ticks": 76320,
          "time": 43.3636725,
          "velocity": 1
        },
        {
          "duration": 0.136363750000001,
          "durationTicks": 240,
          "midi": 42,
          "name": "F#2",
          "ticks": 76320,
          "time": 43.3636725,
          "velocity": 1
        },
        {
          "duration": 0.136363750000001,
          "durationTicks": 240,
          "midi": 42,
          "name": "F#2",
          "ticks": 76560,
          "time": 43.50003625,
          "velocity": 1
        },
        {
          "duration": 0.272727500000002,
          "durationTicks": 480,
          "midi": 35,
          "name": "B1",
          "ticks": 76800,
          "time": 43.6364,
          "velocity": 1
        },
        {
          "duration": 0.272727500000002,
          "durationTicks": 480,
          "midi": 70,
          "name": "A#4",
          "ticks": 76800,
          "time": 43.6364,
          "velocity": 1
        },
        {
          "duration": 0.136363750000001,
          "durationTicks": 240,
          "midi": 42,
          "name": "F#2",
          "ticks": 76800,
          "time": 43.6364,
          "velocity": 1
        },
        {
          "duration": 0.136363750000001,
          "durationTicks": 240,
          "midi": 42,
          "name": "F#2",
          "ticks": 77040,
          "time": 43.77276375,
          "velocity": 1
        },
        {
          "duration": 0.136363750000001,
          "durationTicks": 240,
          "midi": 42,
          "name": "F#2",
          "ticks": 77280,
          "time": 43.909127500000004,
          "velocity": 1
        },
        {
          "duration": 0.2727274999999949,
          "durationTicks": 480,
          "midi": 69,
          "name": "A4",
          "ticks": 77520,
          "time": 44.045491250000005,
          "velocity": 1
        },
        {
          "duration": 0.1363637499999939,
          "durationTicks": 240,
          "midi": 42,
          "name": "F#2",
          "ticks": 77520,
          "time": 44.045491250000005,
          "velocity": 1
        },
        {
          "duration": 0.2727274999999949,
          "durationTicks": 480,
          "midi": 38,
          "name": "D2",
          "ticks": 77520,
          "time": 44.045491250000005,
          "velocity": 1
        },
        {
          "duration": 0.136363750000001,
          "durationTicks": 240,
          "midi": 42,
          "name": "F#2",
          "ticks": 77760,
          "time": 44.181855,
          "velocity": 1
        },
        {
          "duration": 0.136363750000001,
          "durationTicks": 240,
          "midi": 42,
          "name": "F#2",
          "ticks": 78000,
          "time": 44.31821875,
          "velocity": 1
        },
        {
          "duration": 0.272727500000002,
          "durationTicks": 480,
          "midi": 35,
          "name": "B1",
          "ticks": 78240,
          "time": 44.4545825,
          "velocity": 1
        },
        {
          "duration": 0.272727500000002,
          "durationTicks": 480,
          "midi": 70,
          "name": "A#4",
          "ticks": 78240,
          "time": 44.4545825,
          "velocity": 1
        },
        {
          "duration": 0.136363750000001,
          "durationTicks": 240,
          "midi": 42,
          "name": "F#2",
          "ticks": 78240,
          "time": 44.4545825,
          "velocity": 1
        },
        {
          "duration": 0.136363750000001,
          "durationTicks": 240,
          "midi": 42,
          "name": "F#2",
          "ticks": 78480,
          "time": 44.59094625,
          "velocity": 1
        },
        {
          "duration": 0.136363750000001,
          "durationTicks": 240,
          "midi": 42,
          "name": "F#2",
          "ticks": 78720,
          "time": 44.72731,
          "velocity": 1
        },
        {
          "duration": 0.136363750000001,
          "durationTicks": 240,
          "midi": 42,
          "name": "F#2",
          "ticks": 78960,
          "time": 44.863673750000004,
          "velocity": 1
        },
        {
          "duration": 0.2727274999999949,
          "durationTicks": 480,
          "midi": 35,
          "name": "B1",
          "ticks": 79200,
          "time": 45.000037500000005,
          "velocity": 1
        },
        {
          "duration": 0.2727274999999949,
          "durationTicks": 480,
          "midi": 70,
          "name": "A#4",
          "ticks": 79200,
          "time": 45.000037500000005,
          "velocity": 1
        },
        {
          "duration": 0.1363637499999939,
          "durationTicks": 240,
          "midi": 42,
          "name": "F#2",
          "ticks": 79200,
          "time": 45.000037500000005,
          "velocity": 1
        },
        {
          "duration": 0.136363750000001,
          "durationTicks": 240,
          "midi": 42,
          "name": "F#2",
          "ticks": 79440,
          "time": 45.13640125,
          "velocity": 1
        },
        {
          "duration": 0.136363750000001,
          "durationTicks": 240,
          "midi": 69,
          "name": "A4",
          "ticks": 79680,
          "time": 45.272765,
          "velocity": 1
        },
        {
          "duration": 0.136363750000001,
          "durationTicks": 240,
          "midi": 42,
          "name": "F#2",
          "ticks": 79680,
          "time": 45.272765,
          "velocity": 1
        },
        {
          "duration": 0.136363750000001,
          "durationTicks": 240,
          "midi": 38,
          "name": "D2",
          "ticks": 79680,
          "time": 45.272765,
          "velocity": 1
        },
        {
          "duration": 0.136363750000001,
          "durationTicks": 240,
          "midi": 69,
          "name": "A4",
          "ticks": 79920,
          "time": 45.40912875,
          "velocity": 1
        },
        {
          "duration": 0.136363750000001,
          "durationTicks": 240,
          "midi": 42,
          "name": "F#2",
          "ticks": 79920,
          "time": 45.40912875,
          "velocity": 1
        },
        {
          "duration": 0.136363750000001,
          "durationTicks": 240,
          "midi": 38,
          "name": "D2",
          "ticks": 79920,
          "time": 45.40912875,
          "velocity": 1
        },
        {
          "duration": 0.272727500000002,
          "durationTicks": 480,
          "midi": 35,
          "name": "B1",
          "ticks": 80160,
          "time": 45.5454925,
          "velocity": 1
        },
        {
          "duration": 0.272727500000002,
          "durationTicks": 480,
          "midi": 70,
          "name": "A#4",
          "ticks": 80160,
          "time": 45.5454925,
          "velocity": 1
        },
        {
          "duration": 0.136363750000001,
          "durationTicks": 240,
          "midi": 42,
          "name": "F#2",
          "ticks": 80160,
          "time": 45.5454925,
          "velocity": 1
        },
        {
          "duration": 0.136363750000001,
          "durationTicks": 240,
          "midi": 42,
          "name": "F#2",
          "ticks": 80400,
          "time": 45.68185625,
          "velocity": 1
        },
        {
          "duration": 0.2727274999999949,
          "durationTicks": 480,
          "midi": 35,
          "name": "B1",
          "ticks": 80640,
          "time": 45.818220000000004,
          "velocity": 1
        },
        {
          "duration": 0.2727274999999949,
          "durationTicks": 480,
          "midi": 70,
          "name": "A#4",
          "ticks": 80640,
          "time": 45.818220000000004,
          "velocity": 1
        },
        {
          "duration": 0.136363750000001,
          "durationTicks": 240,
          "midi": 42,
          "name": "F#2",
          "ticks": 80640,
          "time": 45.818220000000004,
          "velocity": 1
        },
        {
          "duration": 0.1363637499999939,
          "durationTicks": 240,
          "midi": 42,
          "name": "F#2",
          "ticks": 80880,
          "time": 45.954583750000005,
          "velocity": 1
        },
        {
          "duration": 0.136363750000001,
          "durationTicks": 240,
          "midi": 42,
          "name": "F#2",
          "ticks": 81120,
          "time": 46.0909475,
          "velocity": 1
        },
        {
          "duration": 0.272727500000002,
          "durationTicks": 480,
          "midi": 69,
          "name": "A4",
          "ticks": 81360,
          "time": 46.22731125,
          "velocity": 1
        },
        {
          "duration": 0.136363750000001,
          "durationTicks": 240,
          "midi": 42,
          "name": "F#2",
          "ticks": 81360,
          "time": 46.22731125,
          "velocity": 1
        },
        {
          "duration": 0.272727500000002,
          "durationTicks": 480,
          "midi": 38,
          "name": "D2",
          "ticks": 81360,
          "time": 46.22731125,
          "velocity": 1
        },
        {
          "duration": 0.136363750000001,
          "durationTicks": 240,
          "midi": 42,
          "name": "F#2",
          "ticks": 81600,
          "time": 46.363675,
          "velocity": 1
        },
        {
          "duration": 0.136363750000001,
          "durationTicks": 240,
          "midi": 42,
          "name": "F#2",
          "ticks": 81840,
          "time": 46.50003875,
          "velocity": 1
        },
        {
          "duration": 0.272727500000002,
          "durationTicks": 480,
          "midi": 35,
          "name": "B1",
          "ticks": 82080,
          "time": 46.6364025,
          "velocity": 1
        },
        {
          "duration": 0.272727500000002,
          "durationTicks": 480,
          "midi": 70,
          "name": "A#4",
          "ticks": 82080,
          "time": 46.6364025,
          "velocity": 1
        },
        {
          "duration": 0.136363750000001,
          "durationTicks": 240,
          "midi": 42,
          "name": "F#2",
          "ticks": 82080,
          "time": 46.6364025,
          "velocity": 1
        },
        {
          "duration": 0.136363750000001,
          "durationTicks": 240,
          "midi": 42,
          "name": "F#2",
          "ticks": 82320,
          "time": 46.772766250000004,
          "velocity": 1
        },
        {
          "duration": 0.1363637499999939,
          "durationTicks": 240,
          "midi": 42,
          "name": "F#2",
          "ticks": 82560,
          "time": 46.909130000000005,
          "velocity": 1
        },
        {
          "duration": 0.136363750000001,
          "durationTicks": 240,
          "midi": 42,
          "name": "F#2",
          "ticks": 82800,
          "time": 47.04549375,
          "velocity": 1
        },
        {
          "duration": 0.272727500000002,
          "durationTicks": 480,
          "midi": 35,
          "name": "B1",
          "ticks": 83040,
          "time": 47.1818575,
          "velocity": 1
        },
        {
          "duration": 0.272727500000002,
          "durationTicks": 480,
          "midi": 70,
          "name": "A#4",
          "ticks": 83040,
          "time": 47.1818575,
          "velocity": 1
        },
        {
          "duration": 0.136363750000001,
          "durationTicks": 240,
          "midi": 42,
          "name": "F#2",
          "ticks": 83040,
          "time": 47.1818575,
          "velocity": 1
        },
        {
          "duration": 0.136363750000001,
          "durationTicks": 240,
          "midi": 42,
          "name": "F#2",
          "ticks": 83280,
          "time": 47.31822125,
          "velocity": 1
        },
        {
          "duration": 0.136363750000001,
          "durationTicks": 240,
          "midi": 69,
          "name": "A4",
          "ticks": 83520,
          "time": 47.454585,
          "velocity": 1
        },
        {
          "duration": 0.136363750000001,
          "durationTicks": 240,
          "midi": 42,
          "name": "F#2",
          "ticks": 83520,
          "time": 47.454585,
          "velocity": 1
        },
        {
          "duration": 0.136363750000001,
          "durationTicks": 240,
          "midi": 38,
          "name": "D2",
          "ticks": 83520,
          "time": 47.454585,
          "velocity": 1
        },
        {
          "duration": 0.136363750000001,
          "durationTicks": 240,
          "midi": 69,
          "name": "A4",
          "ticks": 83760,
          "time": 47.59094875,
          "velocity": 1
        },
        {
          "duration": 0.136363750000001,
          "durationTicks": 240,
          "midi": 42,
          "name": "F#2",
          "ticks": 83760,
          "time": 47.59094875,
          "velocity": 1
        },
        {
          "duration": 0.136363750000001,
          "durationTicks": 240,
          "midi": 38,
          "name": "D2",
          "ticks": 83760,
          "time": 47.59094875,
          "velocity": 1
        },
        {
          "duration": 0.136363750000001,
          "durationTicks": 240,
          "midi": 42,
          "name": "F#2",
          "ticks": 84000,
          "time": 47.727312500000004,
          "velocity": 1
        },
        {
          "duration": 0.2727274999999949,
          "durationTicks": 480,
          "midi": 69,
          "name": "A4",
          "ticks": 84000,
          "time": 47.727312500000004,
          "velocity": 1
        },
        {
          "duration": 0.2727274999999949,
          "durationTicks": 480,
          "midi": 35,
          "name": "B1",
          "ticks": 84000,
          "time": 47.727312500000004,
          "velocity": 1
        },
        {
          "duration": 0.2727274999999949,
          "durationTicks": 480,
          "midi": 38,
          "name": "D2",
          "ticks": 84000,
          "time": 47.727312500000004,
          "velocity": 1
        },
        {
          "duration": 0.1363637499999939,
          "durationTicks": 240,
          "midi": 42,
          "name": "F#2",
          "ticks": 84240,
          "time": 47.863676250000005,
          "velocity": 1
        },
        {
          "duration": 0.272727500000002,
          "durationTicks": 480,
          "midi": 35,
          "name": "B1",
          "ticks": 84480,
          "time": 48.00004,
          "velocity": 1
        },
        {
          "duration": 0.272727500000002,
          "durationTicks": 480,
          "midi": 70,
          "name": "A#4",
          "ticks": 84480,
          "time": 48.00004,
          "velocity": 1
        },
        {
          "duration": 0.545455000000004,
          "durationTicks": 960,
          "midi": 49,
          "name": "C#3",
          "ticks": 84480,
          "time": 48.00004,
          "velocity": 1
        },
        {
          "duration": 0.136363750000001,
          "durationTicks": 240,
          "midi": 42,
          "name": "F#2",
          "ticks": 84480,
          "time": 48.00004,
          "velocity": 1
        },
        {
          "duration": 0.136363750000001,
          "durationTicks": 240,
          "midi": 42,
          "name": "F#2",
          "ticks": 84720,
          "time": 48.13640375,
          "velocity": 1
        },
        {
          "duration": 0.136363750000001,
          "durationTicks": 240,
          "midi": 42,
          "name": "F#2",
          "ticks": 84960,
          "time": 48.2727675,
          "velocity": 1
        },
        {
          "duration": 0.272727500000002,
          "durationTicks": 480,
          "midi": 69,
          "name": "A4",
          "ticks": 85200,
          "time": 48.40913125,
          "velocity": 1
        },
        {
          "duration": 0.136363750000001,
          "durationTicks": 240,
          "midi": 42,
          "name": "F#2",
          "ticks": 85200,
          "time": 48.40913125,
          "velocity": 1
        },
        {
          "duration": 0.272727500000002,
          "durationTicks": 480,
          "midi": 38,
          "name": "D2",
          "ticks": 85200,
          "time": 48.40913125,
          "velocity": 1
        },
        {
          "duration": 0.136363750000001,
          "durationTicks": 240,
          "midi": 42,
          "name": "F#2",
          "ticks": 85440,
          "time": 48.545495,
          "velocity": 1
        },
        {
          "duration": 0.136363750000001,
          "durationTicks": 240,
          "midi": 42,
          "name": "F#2",
          "ticks": 85680,
          "time": 48.68185875,
          "velocity": 1
        },
        {
          "duration": 0.2727274999999949,
          "durationTicks": 480,
          "midi": 35,
          "name": "B1",
          "ticks": 85920,
          "time": 48.818222500000005,
          "velocity": 1
        },
        {
          "duration": 0.2727274999999949,
          "durationTicks": 480,
          "midi": 70,
          "name": "A#4",
          "ticks": 85920,
          "time": 48.818222500000005,
          "velocity": 1
        },
        {
          "duration": 0.136363750000001,
          "durationTicks": 240,
          "midi": 42,
          "name": "F#2",
          "ticks": 85920,
          "time": 48.818222500000005,
          "velocity": 1
        },
        {
          "duration": 0.1363637499999939,
          "durationTicks": 240,
          "midi": 42,
          "name": "F#2",
          "ticks": 86160,
          "time": 48.954586250000006,
          "velocity": 1
        },
        {
          "duration": 0.136363750000001,
          "durationTicks": 240,
          "midi": 42,
          "name": "F#2",
          "ticks": 86400,
          "time": 49.09095,
          "velocity": 1
        },
        {
          "duration": 0.136363750000001,
          "durationTicks": 240,
          "midi": 42,
          "name": "F#2",
          "ticks": 86640,
          "time": 49.22731375,
          "velocity": 1
        },
        {
          "duration": 0.272727500000002,
          "durationTicks": 480,
          "midi": 35,
          "name": "B1",
          "ticks": 86880,
          "time": 49.3636775,
          "velocity": 1
        },
        {
          "duration": 0.272727500000002,
          "durationTicks": 480,
          "midi": 70,
          "name": "A#4",
          "ticks": 86880,
          "time": 49.3636775,
          "velocity": 1
        },
        {
          "duration": 0.136363750000001,
          "durationTicks": 240,
          "midi": 42,
          "name": "F#2",
          "ticks": 86880,
          "time": 49.3636775,
          "velocity": 1
        },
        {
          "duration": 0.136363750000001,
          "durationTicks": 240,
          "midi": 42,
          "name": "F#2",
          "ticks": 87120,
          "time": 49.50004125,
          "velocity": 1
        },
        {
          "duration": 0.136363750000001,
          "durationTicks": 240,
          "midi": 69,
          "name": "A4",
          "ticks": 87360,
          "time": 49.636405,
          "velocity": 1
        },
        {
          "duration": 0.136363750000001,
          "durationTicks": 240,
          "midi": 42,
          "name": "F#2",
          "ticks": 87360,
          "time": 49.636405,
          "velocity": 1
        },
        {
          "duration": 0.136363750000001,
          "durationTicks": 240,
          "midi": 38,
          "name": "D2",
          "ticks": 87360,
          "time": 49.636405,
          "velocity": 1
        },
        {
          "duration": 0.136363750000001,
          "durationTicks": 240,
          "midi": 69,
          "name": "A4",
          "ticks": 87600,
          "time": 49.772768750000004,
          "velocity": 1
        },
        {
          "duration": 0.136363750000001,
          "durationTicks": 240,
          "midi": 42,
          "name": "F#2",
          "ticks": 87600,
          "time": 49.772768750000004,
          "velocity": 1
        },
        {
          "duration": 0.136363750000001,
          "durationTicks": 240,
          "midi": 38,
          "name": "D2",
          "ticks": 87600,
          "time": 49.772768750000004,
          "velocity": 1
        },
        {
          "duration": 0.2727274999999949,
          "durationTicks": 480,
          "midi": 35,
          "name": "B1",
          "ticks": 87840,
          "time": 49.909132500000005,
          "velocity": 1
        },
        {
          "duration": 0.2727274999999949,
          "durationTicks": 480,
          "midi": 70,
          "name": "A#4",
          "ticks": 87840,
          "time": 49.909132500000005,
          "velocity": 1
        },
        {
          "duration": 0.1363637499999939,
          "durationTicks": 240,
          "midi": 42,
          "name": "F#2",
          "ticks": 87840,
          "time": 49.909132500000005,
          "velocity": 1
        },
        {
          "duration": 0.136363750000001,
          "durationTicks": 240,
          "midi": 42,
          "name": "F#2",
          "ticks": 88080,
          "time": 50.04549625,
          "velocity": 1
        },
        {
          "duration": 0.272727500000002,
          "durationTicks": 480,
          "midi": 35,
          "name": "B1",
          "ticks": 88320,
          "time": 50.18186,
          "velocity": 1
        },
        {
          "duration": 0.272727500000002,
          "durationTicks": 480,
          "midi": 70,
          "name": "A#4",
          "ticks": 88320,
          "time": 50.18186,
          "velocity": 1
        },
        {
          "duration": 0.136363750000001,
          "durationTicks": 240,
          "midi": 42,
          "name": "F#2",
          "ticks": 88320,
          "time": 50.18186,
          "velocity": 1
        },
        {
          "duration": 0.136363750000001,
          "durationTicks": 240,
          "midi": 42,
          "name": "F#2",
          "ticks": 88560,
          "time": 50.31822375,
          "velocity": 1
        },
        {
          "duration": 0.136363750000001,
          "durationTicks": 240,
          "midi": 42,
          "name": "F#2",
          "ticks": 88800,
          "time": 50.4545875,
          "velocity": 1
        },
        {
          "duration": 0.272727500000002,
          "durationTicks": 480,
          "midi": 69,
          "name": "A4",
          "ticks": 89040,
          "time": 50.59095125,
          "velocity": 1
        },
        {
          "duration": 0.136363750000001,
          "durationTicks": 240,
          "midi": 42,
          "name": "F#2",
          "ticks": 89040,
          "time": 50.59095125,
          "velocity": 1
        },
        {
          "duration": 0.272727500000002,
          "durationTicks": 480,
          "midi": 38,
          "name": "D2",
          "ticks": 89040,
          "time": 50.59095125,
          "velocity": 1
        },
        {
          "duration": 0.136363750000001,
          "durationTicks": 240,
          "midi": 42,
          "name": "F#2",
          "ticks": 89280,
          "time": 50.727315000000004,
          "velocity": 1
        },
        {
          "duration": 0.1363637499999939,
          "durationTicks": 240,
          "midi": 42,
          "name": "F#2",
          "ticks": 89520,
          "time": 50.863678750000005,
          "velocity": 1
        },
        {
          "duration": 0.272727500000002,
          "durationTicks": 480,
          "midi": 35,
          "name": "B1",
          "ticks": 89760,
          "time": 51.0000425,
          "velocity": 1
        },
        {
          "duration": 0.272727500000002,
          "durationTicks": 480,
          "midi": 70,
          "name": "A#4",
          "ticks": 89760,
          "time": 51.0000425,
          "velocity": 1
        },
        {
          "duration": 0.136363750000001,
          "durationTicks": 240,
          "midi": 42,
          "name": "F#2",
          "ticks": 89760,
          "time": 51.0000425,
          "velocity": 1
        },
        {
          "duration": 0.136363750000001,
          "durationTicks": 240,
          "midi": 42,
          "name": "F#2",
          "ticks": 90000,
          "time": 51.13640625,
          "velocity": 1
        },
        {
          "duration": 0.136363750000001,
          "durationTicks": 240,
          "midi": 42,
          "name": "F#2",
          "ticks": 90240,
          "time": 51.27277,
          "velocity": 1
        },
        {
          "duration": 0.136363750000001,
          "durationTicks": 240,
          "midi": 42,
          "name": "F#2",
          "ticks": 90480,
          "time": 51.40913375,
          "velocity": 1
        },
        {
          "duration": 0.272727500000002,
          "durationTicks": 480,
          "midi": 35,
          "name": "B1",
          "ticks": 90720,
          "time": 51.5454975,
          "velocity": 1
        },
        {
          "duration": 0.272727500000002,
          "durationTicks": 480,
          "midi": 70,
          "name": "A#4",
          "ticks": 90720,
          "time": 51.5454975,
          "velocity": 1
        },
        {
          "duration": 0.136363750000001,
          "durationTicks": 240,
          "midi": 42,
          "name": "F#2",
          "ticks": 90720,
          "time": 51.5454975,
          "velocity": 1
        },
        {
          "duration": 0.136363750000001,
          "durationTicks": 240,
          "midi": 42,
          "name": "F#2",
          "ticks": 90960,
          "time": 51.681861250000004,
          "velocity": 1
        },
        {
          "duration": 0.1363637499999939,
          "durationTicks": 240,
          "midi": 69,
          "name": "A4",
          "ticks": 91200,
          "time": 51.818225000000005,
          "velocity": 1
        },
        {
          "duration": 0.1363637499999939,
          "durationTicks": 240,
          "midi": 42,
          "name": "F#2",
          "ticks": 91200,
          "time": 51.818225000000005,
          "velocity": 1
        },
        {
          "duration": 0.136363750000001,
          "durationTicks": 240,
          "midi": 69,
          "name": "A4",
          "ticks": 91440,
          "time": 51.95458875,
          "velocity": 1
        },
        {
          "duration": 0.136363750000001,
          "durationTicks": 240,
          "midi": 42,
          "name": "F#2",
          "ticks": 91440,
          "time": 51.95458875,
          "velocity": 1
        },
        {
          "duration": 0.136363750000001,
          "durationTicks": 240,
          "midi": 42,
          "name": "F#2",
          "ticks": 91680,
          "time": 52.0909525,
          "velocity": 1
        },
        {
          "duration": 0.272727500000002,
          "durationTicks": 480,
          "midi": 69,
          "name": "A4",
          "ticks": 91680,
          "time": 52.0909525,
          "velocity": 1
        },
        {
          "duration": 0.272727500000002,
          "durationTicks": 480,
          "midi": 35,
          "name": "B1",
          "ticks": 91680,
          "time": 52.0909525,
          "velocity": 1
        },
        {
          "duration": 0.272727500000002,
          "durationTicks": 480,
          "midi": 38,
          "name": "D2",
          "ticks": 91680,
          "time": 52.0909525,
          "velocity": 1
        },
        {
          "duration": 0.136363750000001,
          "durationTicks": 240,
          "midi": 42,
          "name": "F#2",
          "ticks": 91920,
          "time": 52.22731625,
          "velocity": 1
        },
        {
          "duration": 0.272727500000002,
          "durationTicks": 480,
          "midi": 46,
          "name": "A#2",
          "ticks": 92160,
          "time": 52.36368,
          "velocity": 1
        },
        {
          "duration": 0.5454549999999969,
          "durationTicks": 960,
          "midi": 49,
          "name": "C#3",
          "ticks": 92160,
          "time": 52.36368,
          "velocity": 1
        },
        {
          "duration": 0.272727500000002,
          "durationTicks": 480,
          "midi": 35,
          "name": "B1",
          "ticks": 92160,
          "time": 52.36368,
          "velocity": 1
        },
        {
          "duration": 0.272727500000002,
          "durationTicks": 480,
          "midi": 70,
          "name": "A#4",
          "ticks": 92160,
          "time": 52.36368,
          "velocity": 1
        },
        {
          "duration": 0.2727274999999949,
          "durationTicks": 480,
          "midi": 46,
          "name": "A#2",
          "ticks": 92640,
          "time": 52.636407500000004,
          "velocity": 1
        },
        {
          "duration": 0.2727274999999949,
          "durationTicks": 480,
          "midi": 38,
          "name": "D2",
          "ticks": 92880,
          "time": 52.772771250000005,
          "velocity": 1
        },
        {
          "duration": 0.2727274999999949,
          "durationTicks": 480,
          "midi": 69,
          "name": "A4",
          "ticks": 92880,
          "time": 52.772771250000005,
          "velocity": 1
        },
        {
          "duration": 0.272727500000002,
          "durationTicks": 480,
          "midi": 46,
          "name": "A#2",
          "ticks": 93120,
          "time": 52.909135,
          "velocity": 1
        },
        {
          "duration": 0.272727500000002,
          "durationTicks": 480,
          "midi": 46,
          "name": "A#2",
          "ticks": 93600,
          "time": 53.1818625,
          "velocity": 1
        },
        {
          "duration": 0.272727500000002,
          "durationTicks": 480,
          "midi": 35,
          "name": "B1",
          "ticks": 93600,
          "time": 53.1818625,
          "velocity": 1
        },
        {
          "duration": 0.272727500000002,
          "durationTicks": 480,
          "midi": 70,
          "name": "A#4",
          "ticks": 93600,
          "time": 53.1818625,
          "velocity": 1
        },
        {
          "duration": 0.272727500000002,
          "durationTicks": 480,
          "midi": 46,
          "name": "A#2",
          "ticks": 94080,
          "time": 53.45459,
          "velocity": 1
        },
        {
          "duration": 0.2727274999999949,
          "durationTicks": 480,
          "midi": 46,
          "name": "A#2",
          "ticks": 94560,
          "time": 53.727317500000005,
          "velocity": 1
        },
        {
          "duration": 0.2727274999999949,
          "durationTicks": 480,
          "midi": 35,
          "name": "B1",
          "ticks": 94560,
          "time": 53.727317500000005,
          "velocity": 1
        },
        {
          "duration": 0.2727274999999949,
          "durationTicks": 480,
          "midi": 70,
          "name": "A#4",
          "ticks": 94560,
          "time": 53.727317500000005,
          "velocity": 1
        },
        {
          "duration": 0.272727500000002,
          "durationTicks": 480,
          "midi": 46,
          "name": "A#2",
          "ticks": 95040,
          "time": 54.000045,
          "velocity": 1
        },
        {
          "duration": 0.272727500000002,
          "durationTicks": 480,
          "midi": 38,
          "name": "D2",
          "ticks": 95040,
          "time": 54.000045,
          "velocity": 1
        },
        {
          "duration": 0.272727500000002,
          "durationTicks": 480,
          "midi": 69,
          "name": "A4",
          "ticks": 95040,
          "time": 54.000045,
          "velocity": 1
        },
        {
          "duration": 0.272727500000002,
          "durationTicks": 480,
          "midi": 46,
          "name": "A#2",
          "ticks": 95520,
          "time": 54.2727725,
          "velocity": 1
        },
        {
          "duration": 0.272727500000002,
          "durationTicks": 480,
          "midi": 35,
          "name": "B1",
          "ticks": 95520,
          "time": 54.2727725,
          "velocity": 1
        },
        {
          "duration": 0.272727500000002,
          "durationTicks": 480,
          "midi": 70,
          "name": "A#4",
          "ticks": 95520,
          "time": 54.2727725,
          "velocity": 1
        },
        {
          "duration": 0.2727274999999949,
          "durationTicks": 480,
          "midi": 46,
          "name": "A#2",
          "ticks": 96000,
          "time": 54.545500000000004,
          "velocity": 1
        },
        {
          "duration": 0.2727274999999949,
          "durationTicks": 480,
          "midi": 35,
          "name": "B1",
          "ticks": 96000,
          "time": 54.545500000000004,
          "velocity": 1
        },
        {
          "duration": 0.2727274999999949,
          "durationTicks": 480,
          "midi": 70,
          "name": "A#4",
          "ticks": 96000,
          "time": 54.545500000000004,
          "velocity": 1
        },
        {
          "duration": 0.272727500000002,
          "durationTicks": 480,
          "midi": 46,
          "name": "A#2",
          "ticks": 96480,
          "time": 54.8182275,
          "velocity": 1
        },
        {
          "duration": 0.272727500000002,
          "durationTicks": 480,
          "midi": 38,
          "name": "D2",
          "ticks": 96720,
          "time": 54.95459125,
          "velocity": 1
        },
        {
          "duration": 0.272727500000002,
          "durationTicks": 480,
          "midi": 69,
          "name": "A4",
          "ticks": 96720,
          "time": 54.95459125,
          "velocity": 1
        },
        {
          "duration": 0.272727500000002,
          "durationTicks": 480,
          "midi": 46,
          "name": "A#2",
          "ticks": 96960,
          "time": 55.090955,
          "velocity": 1
        },
        {
          "duration": 0.272727500000002,
          "durationTicks": 480,
          "midi": 46,
          "name": "A#2",
          "ticks": 97440,
          "time": 55.3636825,
          "velocity": 1
        },
        {
          "duration": 0.272727500000002,
          "durationTicks": 480,
          "midi": 35,
          "name": "B1",
          "ticks": 97440,
          "time": 55.3636825,
          "velocity": 1
        },
        {
          "duration": 0.272727500000002,
          "durationTicks": 480,
          "midi": 70,
          "name": "A#4",
          "ticks": 97440,
          "time": 55.3636825,
          "velocity": 1
        },
        {
          "duration": 0.2727274999999949,
          "durationTicks": 480,
          "midi": 46,
          "name": "A#2",
          "ticks": 97920,
          "time": 55.636410000000005,
          "velocity": 1
        },
        {
          "duration": 0.272727500000002,
          "durationTicks": 480,
          "midi": 46,
          "name": "A#2",
          "ticks": 98400,
          "time": 55.9091375,
          "velocity": 1
        },
        {
          "duration": 0.272727500000002,
          "durationTicks": 480,
          "midi": 35,
          "name": "B1",
          "ticks": 98400,
          "time": 55.9091375,
          "velocity": 1
        },
        {
          "duration": 0.272727500000002,
          "durationTicks": 480,
          "midi": 70,
          "name": "A#4",
          "ticks": 98400,
          "time": 55.9091375,
          "velocity": 1
        },
        {
          "duration": 0.272727500000002,
          "durationTicks": 480,
          "midi": 46,
          "name": "A#2",
          "ticks": 98880,
          "time": 56.181865,
          "velocity": 1
        },
        {
          "duration": 0.136363750000001,
          "durationTicks": 240,
          "midi": 38,
          "name": "D2",
          "ticks": 98880,
          "time": 56.181865,
          "velocity": 1
        },
        {
          "duration": 0.136363750000001,
          "durationTicks": 240,
          "midi": 69,
          "name": "A4",
          "ticks": 98880,
          "time": 56.181865,
          "velocity": 1
        },
        {
          "duration": 0.136363750000001,
          "durationTicks": 240,
          "midi": 38,
          "name": "D2",
          "ticks": 99120,
          "time": 56.31822875,
          "velocity": 1
        },
        {
          "duration": 0.136363750000001,
          "durationTicks": 240,
          "midi": 69,
          "name": "A4",
          "ticks": 99120,
          "time": 56.31822875,
          "velocity": 1
        },
        {
          "duration": 0.272727500000002,
          "durationTicks": 480,
          "midi": 46,
          "name": "A#2",
          "ticks": 99360,
          "time": 56.454592500000004,
          "velocity": 1
        },
        {
          "duration": 0.272727500000002,
          "durationTicks": 480,
          "midi": 35,
          "name": "B1",
          "ticks": 99360,
          "time": 56.454592500000004,
          "velocity": 1
        },
        {
          "duration": 0.272727500000002,
          "durationTicks": 480,
          "midi": 70,
          "name": "A#4",
          "ticks": 99360,
          "time": 56.454592500000004,
          "velocity": 1
        },
        {
          "duration": 0.2727274999999949,
          "durationTicks": 480,
          "midi": 46,
          "name": "A#2",
          "ticks": 99840,
          "time": 56.727320000000006,
          "velocity": 1
        },
        {
          "duration": 0.2727274999999949,
          "durationTicks": 480,
          "midi": 35,
          "name": "B1",
          "ticks": 99840,
          "time": 56.727320000000006,
          "velocity": 1
        },
        {
          "duration": 0.2727274999999949,
          "durationTicks": 480,
          "midi": 70,
          "name": "A#4",
          "ticks": 99840,
          "time": 56.727320000000006,
          "velocity": 1
        },
        {
          "duration": 0.5454549999999969,
          "durationTicks": 960,
          "midi": 49,
          "name": "C#3",
          "ticks": 99840,
          "time": 56.727320000000006,
          "velocity": 1
        },
        {
          "duration": 0.272727500000002,
          "durationTicks": 480,
          "midi": 46,
          "name": "A#2",
          "ticks": 100320,
          "time": 57.0000475,
          "velocity": 1
        },
        {
          "duration": 0.272727500000002,
          "durationTicks": 480,
          "midi": 38,
          "name": "D2",
          "ticks": 100560,
          "time": 57.13641125,
          "velocity": 1
        },
        {
          "duration": 0.272727500000002,
          "durationTicks": 480,
          "midi": 69,
          "name": "A4",
          "ticks": 100560,
          "time": 57.13641125,
          "velocity": 1
        },
        {
          "duration": 0.272727500000002,
          "durationTicks": 480,
          "midi": 46,
          "name": "A#2",
          "ticks": 100800,
          "time": 57.272775,
          "velocity": 1
        },
        {
          "duration": 0.2727274999999949,
          "durationTicks": 480,
          "midi": 46,
          "name": "A#2",
          "ticks": 101280,
          "time": 57.545502500000005,
          "velocity": 1
        },
        {
          "duration": 0.2727274999999949,
          "durationTicks": 480,
          "midi": 35,
          "name": "B1",
          "ticks": 101280,
          "time": 57.545502500000005,
          "velocity": 1
        },
        {
          "duration": 0.2727274999999949,
          "durationTicks": 480,
          "midi": 70,
          "name": "A#4",
          "ticks": 101280,
          "time": 57.545502500000005,
          "velocity": 1
        },
        {
          "duration": 0.272727500000002,
          "durationTicks": 480,
          "midi": 46,
          "name": "A#2",
          "ticks": 101760,
          "time": 57.81823,
          "velocity": 1
        },
        {
          "duration": 0.272727500000002,
          "durationTicks": 480,
          "midi": 46,
          "name": "A#2",
          "ticks": 102240,
          "time": 58.0909575,
          "velocity": 1
        },
        {
          "duration": 0.272727500000002,
          "durationTicks": 480,
          "midi": 35,
          "name": "B1",
          "ticks": 102240,
          "time": 58.0909575,
          "velocity": 1
        },
        {
          "duration": 0.272727500000002,
          "durationTicks": 480,
          "midi": 70,
          "name": "A#4",
          "ticks": 102240,
          "time": 58.0909575,
          "velocity": 1
        },
        {
          "duration": 0.272727500000002,
          "durationTicks": 480,
          "midi": 46,
          "name": "A#2",
          "ticks": 102720,
          "time": 58.363685000000004,
          "velocity": 1
        },
        {
          "duration": 0.272727500000002,
          "durationTicks": 480,
          "midi": 38,
          "name": "D2",
          "ticks": 102720,
          "time": 58.363685000000004,
          "velocity": 1
        },
        {
          "duration": 0.136363750000001,
          "durationTicks": 240,
          "midi": 69,
          "name": "A4",
          "ticks": 102720,
          "time": 58.363685000000004,
          "velocity": 1
        },
        {
          "duration": 0.136363750000001,
          "durationTicks": 240,
          "midi": 69,
          "name": "A4",
          "ticks": 102960,
          "time": 58.500048750000005,
          "velocity": 1
        },
        {
          "duration": 0.2727274999999949,
          "durationTicks": 480,
          "midi": 46,
          "name": "A#2",
          "ticks": 103200,
          "time": 58.636412500000006,
          "velocity": 1
        },
        {
          "duration": 0.2727274999999949,
          "durationTicks": 480,
          "midi": 35,
          "name": "B1",
          "ticks": 103200,
          "time": 58.636412500000006,
          "velocity": 1
        },
        {
          "duration": 0.2727274999999949,
          "durationTicks": 480,
          "midi": 70,
          "name": "A#4",
          "ticks": 103200,
          "time": 58.636412500000006,
          "velocity": 1
        },
        {
          "duration": 0.272727500000002,
          "durationTicks": 480,
          "midi": 46,
          "name": "A#2",
          "ticks": 103680,
          "time": 58.90914,
          "velocity": 1
        },
        {
          "duration": 0.272727500000002,
          "durationTicks": 480,
          "midi": 35,
          "name": "B1",
          "ticks": 103680,
          "time": 58.90914,
          "velocity": 1
        },
        {
          "duration": 0.272727500000002,
          "durationTicks": 480,
          "midi": 70,
          "name": "A#4",
          "ticks": 103680,
          "time": 58.90914,
          "velocity": 1
        },
        {
          "duration": 0.272727500000002,
          "durationTicks": 480,
          "midi": 46,
          "name": "A#2",
          "ticks": 104160,
          "time": 59.1818675,
          "velocity": 1
        },
        {
          "duration": 0.272727500000002,
          "durationTicks": 480,
          "midi": 38,
          "name": "D2",
          "ticks": 104400,
          "time": 59.318231250000004,
          "velocity": 1
        },
        {
          "duration": 0.272727500000002,
          "durationTicks": 480,
          "midi": 69,
          "name": "A4",
          "ticks": 104400,
          "time": 59.318231250000004,
          "velocity": 1
        },
        {
          "duration": 0.2727274999999949,
          "durationTicks": 480,
          "midi": 46,
          "name": "A#2",
          "ticks": 104640,
          "time": 59.454595000000005,
          "velocity": 1
        },
        {
          "duration": 0.272727500000002,
          "durationTicks": 480,
          "midi": 46,
          "name": "A#2",
          "ticks": 105120,
          "time": 59.7273225,
          "velocity": 1
        },
        {
          "duration": 0.272727500000002,
          "durationTicks": 480,
          "midi": 35,
          "name": "B1",
          "ticks": 105120,
          "time": 59.7273225,
          "velocity": 1
        },
        {
          "duration": 0.272727500000002,
          "durationTicks": 480,
          "midi": 70,
          "name": "A#4",
          "ticks": 105120,
          "time": 59.7273225,
          "velocity": 1
        },
        {
          "duration": 0.272727500000002,
          "durationTicks": 480,
          "midi": 46,
          "name": "A#2",
          "ticks": 105600,
          "time": 60.00005,
          "velocity": 1
        },
        {
          "duration": 0.272727500000002,
          "durationTicks": 480,
          "midi": 35,
          "name": "B1",
          "ticks": 106080,
          "time": 60.272777500000004,
          "velocity": 1
        },
        {
          "duration": 0.272727500000002,
          "durationTicks": 480,
          "midi": 46,
          "name": "A#2",
          "ticks": 106080,
          "time": 60.272777500000004,
          "velocity": 1
        },
        {
          "duration": 0.272727500000002,
          "durationTicks": 480,
          "midi": 70,
          "name": "A#4",
          "ticks": 106080,
          "time": 60.272777500000004,
          "velocity": 1
        },
        {
          "duration": 0.1363637499999939,
          "durationTicks": 240,
          "midi": 38,
          "name": "D2",
          "ticks": 106560,
          "time": 60.545505000000006,
          "velocity": 1
        },
        {
          "duration": 0.5454549999999969,
          "durationTicks": 960,
          "midi": 49,
          "name": "C#3",
          "ticks": 106560,
          "time": 60.545505000000006,
          "velocity": 1
        },
        {
          "duration": 0.2727274999999949,
          "durationTicks": 480,
          "midi": 46,
          "name": "A#2",
          "ticks": 106560,
          "time": 60.545505000000006,
          "velocity": 1
        },
        {
          "duration": 0.1363637499999939,
          "durationTicks": 240,
          "midi": 69,
          "name": "A4",
          "ticks": 106560,
          "time": 60.545505000000006,
          "velocity": 1
        },
        {
          "duration": 0.136363750000001,
          "durationTicks": 240,
          "midi": 38,
          "name": "D2",
          "ticks": 106800,
          "time": 60.68186875,
          "velocity": 1
        },
        {
          "duration": 0.136363750000001,
          "durationTicks": 240,
          "midi": 69,
          "name": "A4",
          "ticks": 106800,
          "time": 60.68186875,
          "velocity": 1
        },
        {
          "duration": 0.272727500000002,
          "durationTicks": 480,
          "midi": 35,
          "name": "B1",
          "ticks": 107040,
          "time": 60.8182325,
          "velocity": 1
        },
        {
          "duration": 0.272727500000002,
          "durationTicks": 480,
          "midi": 46,
          "name": "A#2",
          "ticks": 107040,
          "time": 60.8182325,
          "velocity": 1
        },
        {
          "duration": 0.272727500000002,
          "durationTicks": 480,
          "midi": 70,
          "name": "A#4",
          "ticks": 107040,
          "time": 60.8182325,
          "velocity": 1
        },
        {
          "duration": 0.272727500000002,
          "durationTicks": 480,
          "midi": 46,
          "name": "A#2",
          "ticks": 107520,
          "time": 61.09096,
          "velocity": 1
        },
        {
          "duration": 0.5454549999999969,
          "durationTicks": 960,
          "midi": 49,
          "name": "C#3",
          "ticks": 107520,
          "time": 61.09096,
          "velocity": 1
        },
        {
          "duration": 0.272727500000002,
          "durationTicks": 480,
          "midi": 35,
          "name": "B1",
          "ticks": 107520,
          "time": 61.09096,
          "velocity": 1
        },
        {
          "duration": 0.272727500000002,
          "durationTicks": 480,
          "midi": 70,
          "name": "A#4",
          "ticks": 107520,
          "time": 61.09096,
          "velocity": 1
        },
        {
          "duration": 0.2727274999999949,
          "durationTicks": 480,
          "midi": 46,
          "name": "A#2",
          "ticks": 108000,
          "time": 61.363687500000005,
          "velocity": 1
        },
        {
          "duration": 0.2727274999999949,
          "durationTicks": 480,
          "midi": 38,
          "name": "D2",
          "ticks": 108240,
          "time": 61.500051250000006,
          "velocity": 1
        },
        {
          "duration": 0.2727274999999949,
          "durationTicks": 480,
          "midi": 69,
          "name": "A4",
          "ticks": 108240,
          "time": 61.500051250000006,
          "velocity": 1
        },
        {
          "duration": 0.272727500000002,
          "durationTicks": 480,
          "midi": 46,
          "name": "A#2",
          "ticks": 108480,
          "time": 61.636415,
          "velocity": 1
        },
        {
          "duration": 0.272727500000002,
          "durationTicks": 480,
          "midi": 46,
          "name": "A#2",
          "ticks": 108960,
          "time": 61.9091425,
          "velocity": 1
        },
        {
          "duration": 0.272727500000002,
          "durationTicks": 480,
          "midi": 35,
          "name": "B1",
          "ticks": 108960,
          "time": 61.9091425,
          "velocity": 1
        },
        {
          "duration": 0.272727500000002,
          "durationTicks": 480,
          "midi": 70,
          "name": "A#4",
          "ticks": 108960,
          "time": 61.9091425,
          "velocity": 1
        },
        {
          "duration": 0.272727500000002,
          "durationTicks": 480,
          "midi": 46,
          "name": "A#2",
          "ticks": 109440,
          "time": 62.18187,
          "velocity": 1
        },
        {
          "duration": 0.2727274999999949,
          "durationTicks": 480,
          "midi": 46,
          "name": "A#2",
          "ticks": 109920,
          "time": 62.454597500000006,
          "velocity": 1
        },
        {
          "duration": 0.2727274999999949,
          "durationTicks": 480,
          "midi": 35,
          "name": "B1",
          "ticks": 109920,
          "time": 62.454597500000006,
          "velocity": 1
        },
        {
          "duration": 0.2727274999999949,
          "durationTicks": 480,
          "midi": 70,
          "name": "A#4",
          "ticks": 109920,
          "time": 62.454597500000006,
          "velocity": 1
        },
        {
          "duration": 0.272727500000002,
          "durationTicks": 480,
          "midi": 46,
          "name": "A#2",
          "ticks": 110400,
          "time": 62.727325,
          "velocity": 1
        },
        {
          "duration": 0.272727500000002,
          "durationTicks": 480,
          "midi": 38,
          "name": "D2",
          "ticks": 110400,
          "time": 62.727325,
          "velocity": 1
        },
        {
          "duration": 0.272727500000002,
          "durationTicks": 480,
          "midi": 69,
          "name": "A4",
          "ticks": 110400,
          "time": 62.727325,
          "velocity": 1
        },
        {
          "duration": 0.272727500000002,
          "durationTicks": 480,
          "midi": 46,
          "name": "A#2",
          "ticks": 110880,
          "time": 63.0000525,
          "velocity": 1
        },
        {
          "duration": 0.272727500000002,
          "durationTicks": 480,
          "midi": 35,
          "name": "B1",
          "ticks": 110880,
          "time": 63.0000525,
          "velocity": 1
        },
        {
          "duration": 0.272727500000002,
          "durationTicks": 480,
          "midi": 70,
          "name": "A#4",
          "ticks": 110880,
          "time": 63.0000525,
          "velocity": 1
        },
        {
          "duration": 0.2727274999999949,
          "durationTicks": 480,
          "midi": 46,
          "name": "A#2",
          "ticks": 111360,
          "time": 63.272780000000004,
          "velocity": 1
        },
        {
          "duration": 0.2727274999999949,
          "durationTicks": 480,
          "midi": 35,
          "name": "B1",
          "ticks": 111360,
          "time": 63.272780000000004,
          "velocity": 1
        },
        {
          "duration": 0.2727274999999949,
          "durationTicks": 480,
          "midi": 70,
          "name": "A#4",
          "ticks": 111360,
          "time": 63.272780000000004,
          "velocity": 1
        },
        {
          "duration": 0.272727500000002,
          "durationTicks": 480,
          "midi": 46,
          "name": "A#2",
          "ticks": 111840,
          "time": 63.5455075,
          "velocity": 1
        },
        {
          "duration": 0.272727500000002,
          "durationTicks": 480,
          "midi": 38,
          "name": "D2",
          "ticks": 112080,
          "time": 63.68187125,
          "velocity": 1
        },
        {
          "duration": 0.272727500000002,
          "durationTicks": 480,
          "midi": 69,
          "name": "A4",
          "ticks": 112080,
          "time": 63.68187125,
          "velocity": 1
        },
        {
          "duration": 0.272727500000002,
          "durationTicks": 480,
          "midi": 46,
          "name": "A#2",
          "ticks": 112320,
          "time": 63.818235,
          "velocity": 1
        },
        {
          "duration": 0.272727500000002,
          "durationTicks": 480,
          "midi": 46,
          "name": "A#2",
          "ticks": 112800,
          "time": 64.0909625,
          "velocity": 1
        },
        {
          "duration": 0.272727500000002,
          "durationTicks": 480,
          "midi": 35,
          "name": "B1",
          "ticks": 112800,
          "time": 64.0909625,
          "velocity": 1
        },
        {
          "duration": 0.272727500000002,
          "durationTicks": 480,
          "midi": 70,
          "name": "A#4",
          "ticks": 112800,
          "time": 64.0909625,
          "velocity": 1
        },
        {
          "duration": 0.272727500000002,
          "durationTicks": 480,
          "midi": 46,
          "name": "A#2",
          "ticks": 113280,
          "time": 64.36369,
          "velocity": 1
        },
        {
          "duration": 0.272727500000002,
          "durationTicks": 480,
          "midi": 46,
          "name": "A#2",
          "ticks": 113760,
          "time": 64.63641750000001,
          "velocity": 1
        },
        {
          "duration": 0.272727500000002,
          "durationTicks": 480,
          "midi": 35,
          "name": "B1",
          "ticks": 113760,
          "time": 64.63641750000001,
          "velocity": 1
        },
        {
          "duration": 0.272727500000002,
          "durationTicks": 480,
          "midi": 70,
          "name": "A#4",
          "ticks": 113760,
          "time": 64.63641750000001,
          "velocity": 1
        },
        {
          "duration": 0.2727274999999878,
          "durationTicks": 480,
          "midi": 46,
          "name": "A#2",
          "ticks": 114240,
          "time": 64.90914500000001,
          "velocity": 1
        },
        {
          "duration": 0.1363637499999868,
          "durationTicks": 240,
          "midi": 38,
          "name": "D2",
          "ticks": 114240,
          "time": 64.90914500000001,
          "velocity": 1
        },
        {
          "duration": 0.1363637499999868,
          "durationTicks": 240,
          "midi": 69,
          "name": "A4",
          "ticks": 114240,
          "time": 64.90914500000001,
          "velocity": 1
        },
        {
          "duration": 0.136363750000001,
          "durationTicks": 240,
          "midi": 38,
          "name": "D2",
          "ticks": 114480,
          "time": 65.04550875,
          "velocity": 1
        },
        {
          "duration": 0.136363750000001,
          "durationTicks": 240,
          "midi": 69,
          "name": "A4",
          "ticks": 114480,
          "time": 65.04550875,
          "velocity": 1
        },
        {
          "duration": 0.272727500000002,
          "durationTicks": 480,
          "midi": 46,
          "name": "A#2",
          "ticks": 114720,
          "time": 65.1818725,
          "velocity": 1
        },
        {
          "duration": 0.272727500000002,
          "durationTicks": 480,
          "midi": 35,
          "name": "B1",
          "ticks": 114720,
          "time": 65.1818725,
          "velocity": 1
        },
        {
          "duration": 0.272727500000002,
          "durationTicks": 480,
          "midi": 70,
          "name": "A#4",
          "ticks": 114720,
          "time": 65.1818725,
          "velocity": 1
        },
        {
          "duration": 0.272727500000002,
          "durationTicks": 480,
          "midi": 46,
          "name": "A#2",
          "ticks": 115200,
          "time": 65.4546,
          "velocity": 1
        },
        {
          "duration": 0.272727500000002,
          "durationTicks": 480,
          "midi": 35,
          "name": "B1",
          "ticks": 115200,
          "time": 65.4546,
          "velocity": 1
        },
        {
          "duration": 0.272727500000002,
          "durationTicks": 480,
          "midi": 70,
          "name": "A#4",
          "ticks": 115200,
          "time": 65.4546,
          "velocity": 1
        },
        {
          "duration": 0.545455000000004,
          "durationTicks": 960,
          "midi": 49,
          "name": "C#3",
          "ticks": 115200,
          "time": 65.4546,
          "velocity": 1
        },
        {
          "duration": 0.272727500000002,
          "durationTicks": 480,
          "midi": 46,
          "name": "A#2",
          "ticks": 115680,
          "time": 65.7273275,
          "velocity": 1
        },
        {
          "duration": 0.272727500000002,
          "durationTicks": 480,
          "midi": 38,
          "name": "D2",
          "ticks": 115920,
          "time": 65.86369125,
          "velocity": 1
        },
        {
          "duration": 0.272727500000002,
          "durationTicks": 480,
          "midi": 69,
          "name": "A4",
          "ticks": 115920,
          "time": 65.86369125,
          "velocity": 1
        },
        {
          "duration": 0.272727500000002,
          "durationTicks": 480,
          "midi": 46,
          "name": "A#2",
          "ticks": 116160,
          "time": 66.000055,
          "velocity": 1
        },
        {
          "duration": 0.272727500000002,
          "durationTicks": 480,
          "midi": 46,
          "name": "A#2",
          "ticks": 116640,
          "time": 66.2727825,
          "velocity": 1
        },
        {
          "duration": 0.272727500000002,
          "durationTicks": 480,
          "midi": 35,
          "name": "B1",
          "ticks": 116640,
          "time": 66.2727825,
          "velocity": 1
        },
        {
          "duration": 0.272727500000002,
          "durationTicks": 480,
          "midi": 70,
          "name": "A#4",
          "ticks": 116640,
          "time": 66.2727825,
          "velocity": 1
        },
        {
          "duration": 0.272727500000002,
          "durationTicks": 480,
          "midi": 46,
          "name": "A#2",
          "ticks": 117120,
          "time": 66.54551000000001,
          "velocity": 1
        },
        {
          "duration": 0.2727274999999878,
          "durationTicks": 480,
          "midi": 46,
          "name": "A#2",
          "ticks": 117600,
          "time": 66.81823750000001,
          "velocity": 1
        },
        {
          "duration": 0.2727274999999878,
          "durationTicks": 480,
          "midi": 35,
          "name": "B1",
          "ticks": 117600,
          "time": 66.81823750000001,
          "velocity": 1
        },
        {
          "duration": 0.2727274999999878,
          "durationTicks": 480,
          "midi": 70,
          "name": "A#4",
          "ticks": 117600,
          "time": 66.81823750000001,
          "velocity": 1
        },
        {
          "duration": 0.272727500000002,
          "durationTicks": 480,
          "midi": 46,
          "name": "A#2",
          "ticks": 118080,
          "time": 67.090965,
          "velocity": 1
        },
        {
          "duration": 0.272727500000002,
          "durationTicks": 480,
          "midi": 38,
          "name": "D2",
          "ticks": 118080,
          "time": 67.090965,
          "velocity": 1
        },
        {
          "duration": 0.136363750000001,
          "durationTicks": 240,
          "midi": 69,
          "name": "A4",
          "ticks": 118080,
          "time": 67.090965,
          "velocity": 1
        },
        {
          "duration": 0.136363750000001,
          "durationTicks": 240,
          "midi": 69,
          "name": "A4",
          "ticks": 118320,
          "time": 67.22732875,
          "velocity": 1
        },
        {
          "duration": 0.272727500000002,
          "durationTicks": 480,
          "midi": 46,
          "name": "A#2",
          "ticks": 118560,
          "time": 67.3636925,
          "velocity": 1
        },
        {
          "duration": 0.272727500000002,
          "durationTicks": 480,
          "midi": 35,
          "name": "B1",
          "ticks": 118560,
          "time": 67.3636925,
          "velocity": 1
        },
        {
          "duration": 0.272727500000002,
          "durationTicks": 480,
          "midi": 70,
          "name": "A#4",
          "ticks": 118560,
          "time": 67.3636925,
          "velocity": 1
        },
        {
          "duration": 0.272727500000002,
          "durationTicks": 480,
          "midi": 46,
          "name": "A#2",
          "ticks": 119040,
          "time": 67.63642,
          "velocity": 1
        },
        {
          "duration": 0.272727500000002,
          "durationTicks": 480,
          "midi": 35,
          "name": "B1",
          "ticks": 119040,
          "time": 67.63642,
          "velocity": 1
        },
        {
          "duration": 0.272727500000002,
          "durationTicks": 480,
          "midi": 70,
          "name": "A#4",
          "ticks": 119040,
          "time": 67.63642,
          "velocity": 1
        },
        {
          "duration": 0.272727500000002,
          "durationTicks": 480,
          "midi": 46,
          "name": "A#2",
          "ticks": 119520,
          "time": 67.9091475,
          "velocity": 1
        },
        {
          "duration": 0.272727500000002,
          "durationTicks": 480,
          "midi": 38,
          "name": "D2",
          "ticks": 119760,
          "time": 68.04551125,
          "velocity": 1
        },
        {
          "duration": 0.272727500000002,
          "durationTicks": 480,
          "midi": 69,
          "name": "A4",
          "ticks": 119760,
          "time": 68.04551125,
          "velocity": 1
        },
        {
          "duration": 0.272727500000002,
          "durationTicks": 480,
          "midi": 46,
          "name": "A#2",
          "ticks": 120000,
          "time": 68.181875,
          "velocity": 1
        },
        {
          "duration": 0.272727500000002,
          "durationTicks": 480,
          "midi": 46,
          "name": "A#2",
          "ticks": 120480,
          "time": 68.45460250000001,
          "velocity": 1
        },
        {
          "duration": 0.272727500000002,
          "durationTicks": 480,
          "midi": 35,
          "name": "B1",
          "ticks": 120480,
          "time": 68.45460250000001,
          "velocity": 1
        },
        {
          "duration": 0.272727500000002,
          "durationTicks": 480,
          "midi": 70,
          "name": "A#4",
          "ticks": 120480,
          "time": 68.45460250000001,
          "velocity": 1
        },
        {
          "duration": 0.2727274999999878,
          "durationTicks": 480,
          "midi": 46,
          "name": "A#2",
          "ticks": 120960,
          "time": 68.72733000000001,
          "velocity": 1
        },
        {
          "duration": 0.272727500000002,
          "durationTicks": 480,
          "midi": 35,
          "name": "B1",
          "ticks": 121440,
          "time": 69.0000575,
          "velocity": 1
        },
        {
          "duration": 0.272727500000002,
          "durationTicks": 480,
          "midi": 46,
          "name": "A#2",
          "ticks": 121440,
          "time": 69.0000575,
          "velocity": 1
        },
        {
          "duration": 0.272727500000002,
          "durationTicks": 480,
          "midi": 70,
          "name": "A#4",
          "ticks": 121440,
          "time": 69.0000575,
          "velocity": 1
        },
        {
          "duration": 0.136363750000001,
          "durationTicks": 240,
          "midi": 38,
          "name": "D2",
          "ticks": 121920,
          "time": 69.272785,
          "velocity": 1
        },
        {
          "duration": 0.545455000000004,
          "durationTicks": 960,
          "midi": 49,
          "name": "C#3",
          "ticks": 121920,
          "time": 69.272785,
          "velocity": 1
        },
        {
          "duration": 0.272727500000002,
          "durationTicks": 480,
          "midi": 46,
          "name": "A#2",
          "ticks": 121920,
          "time": 69.272785,
          "velocity": 1
        },
        {
          "duration": 0.136363750000001,
          "durationTicks": 240,
          "midi": 69,
          "name": "A4",
          "ticks": 121920,
          "time": 69.272785,
          "velocity": 1
        },
        {
          "duration": 0.136363750000001,
          "durationTicks": 240,
          "midi": 38,
          "name": "D2",
          "ticks": 122160,
          "time": 69.40914875,
          "velocity": 1
        },
        {
          "duration": 0.136363750000001,
          "durationTicks": 240,
          "midi": 69,
          "name": "A4",
          "ticks": 122160,
          "time": 69.40914875,
          "velocity": 1
        },
        {
          "duration": 0.272727500000002,
          "durationTicks": 480,
          "midi": 46,
          "name": "A#2",
          "ticks": 122400,
          "time": 69.5455125,
          "velocity": 1
        },
        {
          "duration": 0.136363750000001,
          "durationTicks": 240,
          "midi": 38,
          "name": "D2",
          "ticks": 122400,
          "time": 69.5455125,
          "velocity": 1
        },
        {
          "duration": 0.136363750000001,
          "durationTicks": 240,
          "midi": 69,
          "name": "A4",
          "ticks": 122400,
          "time": 69.5455125,
          "velocity": 1
        },
        {
          "duration": 0.136363750000001,
          "durationTicks": 240,
          "midi": 38,
          "name": "D2",
          "ticks": 122640,
          "time": 69.68187625,
          "velocity": 1
        },
        {
          "duration": 0.136363750000001,
          "durationTicks": 240,
          "midi": 69,
          "name": "A4",
          "ticks": 122640,
          "time": 69.68187625,
          "velocity": 1
        },
        {
          "duration": 0.545455000000004,
          "durationTicks": 960,
          "midi": 49,
          "name": "C#3",
          "ticks": 122880,
          "time": 69.81824,
          "velocity": 1
        },
        {
          "duration": 0.272727500000002,
          "durationTicks": 480,
          "midi": 35,
          "name": "B1",
          "ticks": 122880,
          "time": 69.81824,
          "velocity": 1
        },
        {
          "duration": 0.272727500000002,
          "durationTicks": 480,
          "midi": 70,
          "name": "A#4",
          "ticks": 122880,
          "time": 69.81824,
          "velocity": 1
        },
        {
          "duration": 0.545455000000004,
          "durationTicks": 960,
          "midi": 42,
          "name": "F#2",
          "ticks": 122880,
          "time": 69.81824,
          "velocity": 1
        },
        {
          "duration": 0.272727500000002,
          "durationTicks": 480,
          "midi": 69,
          "name": "A4",
          "ticks": 123600,
          "time": 70.22733125,
          "velocity": 1
        },
        {
          "duration": 0.272727500000002,
          "durationTicks": 480,
          "midi": 38,
          "name": "D2",
          "ticks": 123600,
          "time": 70.22733125,
          "velocity": 1
        },
        {
          "duration": 0.5454549999999898,
          "durationTicks": 960,
          "midi": 42,
          "name": "F#2",
          "ticks": 123840,
          "time": 70.363695,
          "velocity": 1
        },
        {
          "duration": 0.2727274999999878,
          "durationTicks": 480,
          "midi": 35,
          "name": "B1",
          "ticks": 124320,
          "time": 70.63642250000001,
          "velocity": 1
        },
        {
          "duration": 0.2727274999999878,
          "durationTicks": 480,
          "midi": 70,
          "name": "A#4",
          "ticks": 124320,
          "time": 70.63642250000001,
          "velocity": 1
        },
        {
          "duration": 0.545455000000004,
          "durationTicks": 960,
          "midi": 42,
          "name": "F#2",
          "ticks": 124800,
          "time": 70.90915,
          "velocity": 1
        },
        {
          "duration": 0.272727500000002,
          "durationTicks": 480,
          "midi": 35,
          "name": "B1",
          "ticks": 125280,
          "time": 71.1818775,
          "velocity": 1
        },
        {
          "duration": 0.272727500000002,
          "durationTicks": 480,
          "midi": 70,
          "name": "A#4",
          "ticks": 125280,
          "time": 71.1818775,
          "velocity": 1
        },
        {
          "duration": 0.136363750000001,
          "durationTicks": 240,
          "midi": 69,
          "name": "A4",
          "ticks": 125760,
          "time": 71.454605,
          "velocity": 1
        },
        {
          "duration": 0.545455000000004,
          "durationTicks": 960,
          "midi": 42,
          "name": "F#2",
          "ticks": 125760,
          "time": 71.454605,
          "velocity": 1
        },
        {
          "duration": 0.136363750000001,
          "durationTicks": 240,
          "midi": 38,
          "name": "D2",
          "ticks": 125760,
          "time": 71.454605,
          "velocity": 1
        },
        {
          "duration": 0.136363750000001,
          "durationTicks": 240,
          "midi": 69,
          "name": "A4",
          "ticks": 126000,
          "time": 71.59096875,
          "velocity": 1
        },
        {
          "duration": 0.136363750000001,
          "durationTicks": 240,
          "midi": 38,
          "name": "D2",
          "ticks": 126000,
          "time": 71.59096875,
          "velocity": 1
        },
        {
          "duration": 0.272727500000002,
          "durationTicks": 480,
          "midi": 35,
          "name": "B1",
          "ticks": 126240,
          "time": 71.7273325,
          "velocity": 1
        },
        {
          "duration": 0.272727500000002,
          "durationTicks": 480,
          "midi": 70,
          "name": "A#4",
          "ticks": 126240,
          "time": 71.7273325,
          "velocity": 1
        },
        {
          "duration": 0.272727500000002,
          "durationTicks": 480,
          "midi": 35,
          "name": "B1",
          "ticks": 126720,
          "time": 72.00006,
          "velocity": 1
        },
        {
          "duration": 0.272727500000002,
          "durationTicks": 480,
          "midi": 70,
          "name": "A#4",
          "ticks": 126720,
          "time": 72.00006,
          "velocity": 1
        },
        {
          "duration": 0.545455000000004,
          "durationTicks": 960,
          "midi": 42,
          "name": "F#2",
          "ticks": 126720,
          "time": 72.00006,
          "velocity": 1
        },
        {
          "duration": 0.272727500000002,
          "durationTicks": 480,
          "midi": 69,
          "name": "A4",
          "ticks": 127440,
          "time": 72.40915125000001,
          "velocity": 1
        },
        {
          "duration": 0.272727500000002,
          "durationTicks": 480,
          "midi": 38,
          "name": "D2",
          "ticks": 127440,
          "time": 72.40915125000001,
          "velocity": 1
        },
        {
          "duration": 0.5454549999999898,
          "durationTicks": 960,
          "midi": 42,
          "name": "F#2",
          "ticks": 127680,
          "time": 72.54551500000001,
          "velocity": 1
        },
        {
          "duration": 0.272727500000002,
          "durationTicks": 480,
          "midi": 35,
          "name": "B1",
          "ticks": 128160,
          "time": 72.8182425,
          "velocity": 1
        },
        {
          "duration": 0.272727500000002,
          "durationTicks": 480,
          "midi": 70,
          "name": "A#4",
          "ticks": 128160,
          "time": 72.8182425,
          "velocity": 1
        },
        {
          "duration": 0.545455000000004,
          "durationTicks": 960,
          "midi": 42,
          "name": "F#2",
          "ticks": 128640,
          "time": 73.09097,
          "velocity": 1
        },
        {
          "duration": 0.272727500000002,
          "durationTicks": 480,
          "midi": 35,
          "name": "B1",
          "ticks": 129120,
          "time": 73.3636975,
          "velocity": 1
        },
        {
          "duration": 0.272727500000002,
          "durationTicks": 480,
          "midi": 70,
          "name": "A#4",
          "ticks": 129120,
          "time": 73.3636975,
          "velocity": 1
        },
        {
          "duration": 0.136363750000001,
          "durationTicks": 240,
          "midi": 69,
          "name": "A4",
          "ticks": 129600,
          "time": 73.636425,
          "velocity": 1
        },
        {
          "duration": 0.545455000000004,
          "durationTicks": 960,
          "midi": 42,
          "name": "F#2",
          "ticks": 129600,
          "time": 73.636425,
          "velocity": 1
        },
        {
          "duration": 0.136363750000001,
          "durationTicks": 240,
          "midi": 38,
          "name": "D2",
          "ticks": 129600,
          "time": 73.636425,
          "velocity": 1
        },
        {
          "duration": 0.136363750000001,
          "durationTicks": 240,
          "midi": 69,
          "name": "A4",
          "ticks": 129840,
          "time": 73.77278875,
          "velocity": 1
        },
        {
          "duration": 0.136363750000001,
          "durationTicks": 240,
          "midi": 38,
          "name": "D2",
          "ticks": 129840,
          "time": 73.77278875,
          "velocity": 1
        },
        {
          "duration": 0.272727500000002,
          "durationTicks": 480,
          "midi": 35,
          "name": "B1",
          "ticks": 130080,
          "time": 73.9091525,
          "velocity": 1
        },
        {
          "duration": 0.272727500000002,
          "durationTicks": 480,
          "midi": 70,
          "name": "A#4",
          "ticks": 130080,
          "time": 73.9091525,
          "velocity": 1
        },
        {
          "duration": 0.272727500000002,
          "durationTicks": 480,
          "midi": 35,
          "name": "B1",
          "ticks": 130560,
          "time": 74.18188,
          "velocity": 1
        },
        {
          "duration": 0.272727500000002,
          "durationTicks": 480,
          "midi": 70,
          "name": "A#4",
          "ticks": 130560,
          "time": 74.18188,
          "velocity": 1
        },
        {
          "duration": 0.5454549999999898,
          "durationTicks": 960,
          "midi": 42,
          "name": "F#2",
          "ticks": 130560,
          "time": 74.18188,
          "velocity": 1
        },
        {
          "duration": 0.2727274999999878,
          "durationTicks": 480,
          "midi": 69,
          "name": "A4",
          "ticks": 131280,
          "time": 74.59097125000001,
          "velocity": 1
        },
        {
          "duration": 0.2727274999999878,
          "durationTicks": 480,
          "midi": 38,
          "name": "D2",
          "ticks": 131280,
          "time": 74.59097125000001,
          "velocity": 1
        },
        {
          "duration": 0.545455000000004,
          "durationTicks": 960,
          "midi": 42,
          "name": "F#2",
          "ticks": 131520,
          "time": 74.727335,
          "velocity": 1
        },
        {
          "duration": 0.272727500000002,
          "durationTicks": 480,
          "midi": 35,
          "name": "B1",
          "ticks": 132000,
          "time": 75.0000625,
          "velocity": 1
        },
        {
          "duration": 0.272727500000002,
          "durationTicks": 480,
          "midi": 70,
          "name": "A#4",
          "ticks": 132000,
          "time": 75.0000625,
          "velocity": 1
        },
        {
          "duration": 0.545455000000004,
          "durationTicks": 960,
          "midi": 42,
          "name": "F#2",
          "ticks": 132480,
          "time": 75.27279,
          "velocity": 1
        },
        {
          "duration": 0.272727500000002,
          "durationTicks": 480,
          "midi": 35,
          "name": "B1",
          "ticks": 132960,
          "time": 75.5455175,
          "velocity": 1
        },
        {
          "duration": 0.272727500000002,
          "durationTicks": 480,
          "midi": 70,
          "name": "A#4",
          "ticks": 132960,
          "time": 75.5455175,
          "velocity": 1
        },
        {
          "duration": 0.136363750000001,
          "durationTicks": 240,
          "midi": 69,
          "name": "A4",
          "ticks": 133440,
          "time": 75.818245,
          "velocity": 1
        },
        {
          "duration": 0.545455000000004,
          "durationTicks": 960,
          "midi": 42,
          "name": "F#2",
          "ticks": 133440,
          "time": 75.818245,
          "velocity": 1
        },
        {
          "duration": 0.136363750000001,
          "durationTicks": 240,
          "midi": 38,
          "name": "D2",
          "ticks": 133440,
          "time": 75.818245,
          "velocity": 1
        },
        {
          "duration": 0.136363750000001,
          "durationTicks": 240,
          "midi": 69,
          "name": "A4",
          "ticks": 133680,
          "time": 75.95460875,
          "velocity": 1
        },
        {
          "duration": 0.136363750000001,
          "durationTicks": 240,
          "midi": 38,
          "name": "D2",
          "ticks": 133680,
          "time": 75.95460875,
          "velocity": 1
        },
        {
          "duration": 0.272727500000002,
          "durationTicks": 480,
          "midi": 35,
          "name": "B1",
          "ticks": 133920,
          "time": 76.0909725,
          "velocity": 1
        },
        {
          "duration": 0.272727500000002,
          "durationTicks": 480,
          "midi": 70,
          "name": "A#4",
          "ticks": 133920,
          "time": 76.0909725,
          "velocity": 1
        },
        {
          "duration": 0.2727274999999878,
          "durationTicks": 480,
          "midi": 35,
          "name": "B1",
          "ticks": 134400,
          "time": 76.36370000000001,
          "velocity": 1
        },
        {
          "duration": 0.2727274999999878,
          "durationTicks": 480,
          "midi": 70,
          "name": "A#4",
          "ticks": 134400,
          "time": 76.36370000000001,
          "velocity": 1
        },
        {
          "duration": 0.5454549999999898,
          "durationTicks": 960,
          "midi": 42,
          "name": "F#2",
          "ticks": 134400,
          "time": 76.36370000000001,
          "velocity": 1
        },
        {
          "duration": 0.272727500000002,
          "durationTicks": 480,
          "midi": 69,
          "name": "A4",
          "ticks": 135120,
          "time": 76.77279125,
          "velocity": 1
        },
        {
          "duration": 0.272727500000002,
          "durationTicks": 480,
          "midi": 38,
          "name": "D2",
          "ticks": 135120,
          "time": 76.77279125,
          "velocity": 1
        },
        {
          "duration": 0.545455000000004,
          "durationTicks": 960,
          "midi": 42,
          "name": "F#2",
          "ticks": 135360,
          "time": 76.909155,
          "velocity": 1
        },
        {
          "duration": 0.272727500000002,
          "durationTicks": 480,
          "midi": 35,
          "name": "B1",
          "ticks": 135840,
          "time": 77.1818825,
          "velocity": 1
        },
        {
          "duration": 0.272727500000002,
          "durationTicks": 480,
          "midi": 70,
          "name": "A#4",
          "ticks": 135840,
          "time": 77.1818825,
          "velocity": 1
        },
        {
          "duration": 0.545455000000004,
          "durationTicks": 960,
          "midi": 42,
          "name": "F#2",
          "ticks": 136320,
          "time": 77.45461,
          "velocity": 1
        },
        {
          "duration": 0.272727500000002,
          "durationTicks": 480,
          "midi": 35,
          "name": "B1",
          "ticks": 136800,
          "time": 77.7273375,
          "velocity": 1
        },
        {
          "duration": 0.272727500000002,
          "durationTicks": 480,
          "midi": 70,
          "name": "A#4",
          "ticks": 136800,
          "time": 77.7273375,
          "velocity": 1
        },
        {
          "duration": 0.136363750000001,
          "durationTicks": 240,
          "midi": 69,
          "name": "A4",
          "ticks": 137280,
          "time": 78.000065,
          "velocity": 1
        },
        {
          "duration": 0.545455000000004,
          "durationTicks": 960,
          "midi": 42,
          "name": "F#2",
          "ticks": 137280,
          "time": 78.000065,
          "velocity": 1
        },
        {
          "duration": 0.136363750000001,
          "durationTicks": 240,
          "midi": 38,
          "name": "D2",
          "ticks": 137280,
          "time": 78.000065,
          "velocity": 1
        },
        {
          "duration": 0.136363750000001,
          "durationTicks": 240,
          "midi": 69,
          "name": "A4",
          "ticks": 137520,
          "time": 78.13642875000001,
          "velocity": 1
        },
        {
          "duration": 0.136363750000001,
          "durationTicks": 240,
          "midi": 38,
          "name": "D2",
          "ticks": 137520,
          "time": 78.13642875000001,
          "velocity": 1
        },
        {
          "duration": 0.272727500000002,
          "durationTicks": 480,
          "midi": 35,
          "name": "B1",
          "ticks": 137760,
          "time": 78.27279250000001,
          "velocity": 1
        },
        {
          "duration": 0.272727500000002,
          "durationTicks": 480,
          "midi": 70,
          "name": "A#4",
          "ticks": 137760,
          "time": 78.27279250000001,
          "velocity": 1
        },
        {
          "duration": 0.2727274999999878,
          "durationTicks": 480,
          "midi": 35,
          "name": "B1",
          "ticks": 138240,
          "time": 78.54552000000001,
          "velocity": 1
        },
        {
          "duration": 0.2727274999999878,
          "durationTicks": 480,
          "midi": 70,
          "name": "A#4",
          "ticks": 138240,
          "time": 78.54552000000001,
          "velocity": 1
        },
        {
          "duration": 0.5454549999999898,
          "durationTicks": 960,
          "midi": 42,
          "name": "F#2",
          "ticks": 138240,
          "time": 78.54552000000001,
          "velocity": 1
        },
        {
          "duration": 0.272727500000002,
          "durationTicks": 480,
          "midi": 69,
          "name": "A4",
          "ticks": 138960,
          "time": 78.95461125,
          "velocity": 1
        },
        {
          "duration": 0.272727500000002,
          "durationTicks": 480,
          "midi": 38,
          "name": "D2",
          "ticks": 138960,
          "time": 78.95461125,
          "velocity": 1
        },
        {
          "duration": 0.545455000000004,
          "durationTicks": 960,
          "midi": 42,
          "name": "F#2",
          "ticks": 139200,
          "time": 79.090975,
          "velocity": 1
        },
        {
          "duration": 0.272727500000002,
          "durationTicks": 480,
          "midi": 35,
          "name": "B1",
          "ticks": 139680,
          "time": 79.3637025,
          "velocity": 1
        },
        {
          "duration": 0.272727500000002,
          "durationTicks": 480,
          "midi": 70,
          "name": "A#4",
          "ticks": 139680,
          "time": 79.3637025,
          "velocity": 1
        },
        {
          "duration": 0.545455000000004,
          "durationTicks": 960,
          "midi": 42,
          "name": "F#2",
          "ticks": 140160,
          "time": 79.63643,
          "velocity": 1
        },
        {
          "duration": 0.272727500000002,
          "durationTicks": 480,
          "midi": 35,
          "name": "B1",
          "ticks": 140640,
          "time": 79.9091575,
          "velocity": 1
        },
        {
          "duration": 0.272727500000002,
          "durationTicks": 480,
          "midi": 70,
          "name": "A#4",
          "ticks": 140640,
          "time": 79.9091575,
          "velocity": 1
        },
        {
          "duration": 0.136363750000001,
          "durationTicks": 240,
          "midi": 69,
          "name": "A4",
          "ticks": 141120,
          "time": 80.18188500000001,
          "velocity": 1
        },
        {
          "duration": 0.5454549999999898,
          "durationTicks": 960,
          "midi": 42,
          "name": "F#2",
          "ticks": 141120,
          "time": 80.18188500000001,
          "velocity": 1
        },
        {
          "duration": 0.136363750000001,
          "durationTicks": 240,
          "midi": 38,
          "name": "D2",
          "ticks": 141120,
          "time": 80.18188500000001,
          "velocity": 1
        },
        {
          "duration": 0.136363750000001,
          "durationTicks": 240,
          "midi": 69,
          "name": "A4",
          "ticks": 141360,
          "time": 80.31824875000001,
          "velocity": 1
        },
        {
          "duration": 0.136363750000001,
          "durationTicks": 240,
          "midi": 38,
          "name": "D2",
          "ticks": 141360,
          "time": 80.31824875000001,
          "velocity": 1
        },
        {
          "duration": 0.2727274999999878,
          "durationTicks": 480,
          "midi": 35,
          "name": "B1",
          "ticks": 141600,
          "time": 80.45461250000001,
          "velocity": 1
        },
        {
          "duration": 0.2727274999999878,
          "durationTicks": 480,
          "midi": 70,
          "name": "A#4",
          "ticks": 141600,
          "time": 80.45461250000001,
          "velocity": 1
        },
        {
          "duration": 0.272727500000002,
          "durationTicks": 480,
          "midi": 35,
          "name": "B1",
          "ticks": 142080,
          "time": 80.72734,
          "velocity": 1
        },
        {
          "duration": 0.272727500000002,
          "durationTicks": 480,
          "midi": 70,
          "name": "A#4",
          "ticks": 142080,
          "time": 80.72734,
          "velocity": 1
        },
        {
          "duration": 0.545455000000004,
          "durationTicks": 960,
          "midi": 42,
          "name": "F#2",
          "ticks": 142080,
          "time": 80.72734,
          "velocity": 1
        },
        {
          "duration": 0.272727500000002,
          "durationTicks": 480,
          "midi": 69,
          "name": "A4",
          "ticks": 142800,
          "time": 81.13643125,
          "velocity": 1
        },
        {
          "duration": 0.272727500000002,
          "durationTicks": 480,
          "midi": 38,
          "name": "D2",
          "ticks": 142800,
          "time": 81.13643125,
          "velocity": 1
        },
        {
          "duration": 0.545455000000004,
          "durationTicks": 960,
          "midi": 42,
          "name": "F#2",
          "ticks": 143040,
          "time": 81.272795,
          "velocity": 1
        },
        {
          "duration": 0.272727500000002,
          "durationTicks": 480,
          "midi": 35,
          "name": "B1",
          "ticks": 143520,
          "time": 81.5455225,
          "velocity": 1
        },
        {
          "duration": 0.272727500000002,
          "durationTicks": 480,
          "midi": 70,
          "name": "A#4",
          "ticks": 143520,
          "time": 81.5455225,
          "velocity": 1
        },
        {
          "duration": 0.545455000000004,
          "durationTicks": 960,
          "midi": 42,
          "name": "F#2",
          "ticks": 144000,
          "time": 81.81825,
          "velocity": 1
        },
        {
          "duration": 0.272727500000002,
          "durationTicks": 480,
          "midi": 35,
          "name": "B1",
          "ticks": 144480,
          "time": 82.09097750000001,
          "velocity": 1
        },
        {
          "duration": 0.272727500000002,
          "durationTicks": 480,
          "midi": 70,
          "name": "A#4",
          "ticks": 144480,
          "time": 82.09097750000001,
          "velocity": 1
        },
        {
          "duration": 0.1363637499999868,
          "durationTicks": 240,
          "midi": 69,
          "name": "A4",
          "ticks": 144960,
          "time": 82.36370500000001,
          "velocity": 1
        },
        {
          "duration": 0.5454549999999898,
          "durationTicks": 960,
          "midi": 42,
          "name": "F#2",
          "ticks": 144960,
          "time": 82.36370500000001,
          "velocity": 1
        },
        {
          "duration": 0.1363637499999868,
          "durationTicks": 240,
          "midi": 38,
          "name": "D2",
          "ticks": 144960,
          "time": 82.36370500000001,
          "velocity": 1
        },
        {
          "duration": 0.136363750000001,
          "durationTicks": 240,
          "midi": 69,
          "name": "A4",
          "ticks": 145200,
          "time": 82.50006875,
          "velocity": 1
        },
        {
          "duration": 0.136363750000001,
          "durationTicks": 240,
          "midi": 38,
          "name": "D2",
          "ticks": 145200,
          "time": 82.50006875,
          "velocity": 1
        },
        {
          "duration": 0.272727500000002,
          "durationTicks": 480,
          "midi": 35,
          "name": "B1",
          "ticks": 145440,
          "time": 82.6364325,
          "velocity": 1
        },
        {
          "duration": 0.272727500000002,
          "durationTicks": 480,
          "midi": 70,
          "name": "A#4",
          "ticks": 145440,
          "time": 82.6364325,
          "velocity": 1
        },
        {
          "duration": 0.272727500000002,
          "durationTicks": 480,
          "midi": 35,
          "name": "B1",
          "ticks": 145920,
          "time": 82.90916,
          "velocity": 1
        },
        {
          "duration": 0.272727500000002,
          "durationTicks": 480,
          "midi": 70,
          "name": "A#4",
          "ticks": 145920,
          "time": 82.90916,
          "velocity": 1
        },
        {
          "duration": 0.545455000000004,
          "durationTicks": 960,
          "midi": 42,
          "name": "F#2",
          "ticks": 145920,
          "time": 82.90916,
          "velocity": 1
        },
        {
          "duration": 0.272727500000002,
          "durationTicks": 480,
          "midi": 69,
          "name": "A4",
          "ticks": 146640,
          "time": 83.31825125,
          "velocity": 1
        },
        {
          "duration": 0.272727500000002,
          "durationTicks": 480,
          "midi": 38,
          "name": "D2",
          "ticks": 146640,
          "time": 83.31825125,
          "velocity": 1
        },
        {
          "duration": 0.545455000000004,
          "durationTicks": 960,
          "midi": 42,
          "name": "F#2",
          "ticks": 146880,
          "time": 83.454615,
          "velocity": 1
        },
        {
          "duration": 0.272727500000002,
          "durationTicks": 480,
          "midi": 35,
          "name": "B1",
          "ticks": 147360,
          "time": 83.7273425,
          "velocity": 1
        },
        {
          "duration": 0.272727500000002,
          "durationTicks": 480,
          "midi": 70,
          "name": "A#4",
          "ticks": 147360,
          "time": 83.7273425,
          "velocity": 1
        },
        {
          "duration": 0.5454549999999898,
          "durationTicks": 960,
          "midi": 42,
          "name": "F#2",
          "ticks": 147840,
          "time": 84.00007000000001,
          "velocity": 1
        },
        {
          "duration": 0.2727274999999878,
          "durationTicks": 480,
          "midi": 35,
          "name": "B1",
          "ticks": 148320,
          "time": 84.27279750000001,
          "velocity": 1
        },
        {
          "duration": 0.2727274999999878,
          "durationTicks": 480,
          "midi": 70,
          "name": "A#4",
          "ticks": 148320,
          "time": 84.27279750000001,
          "velocity": 1
        },
        {
          "duration": 0.136363750000001,
          "durationTicks": 240,
          "midi": 69,
          "name": "A4",
          "ticks": 148800,
          "time": 84.545525,
          "velocity": 1
        },
        {
          "duration": 0.545455000000004,
          "durationTicks": 960,
          "midi": 42,
          "name": "F#2",
          "ticks": 148800,
          "time": 84.545525,
          "velocity": 1
        },
        {
          "duration": 0.136363750000001,
          "durationTicks": 240,
          "midi": 38,
          "name": "D2",
          "ticks": 148800,
          "time": 84.545525,
          "velocity": 1
        },
        {
          "duration": 0.136363750000001,
          "durationTicks": 240,
          "midi": 69,
          "name": "A4",
          "ticks": 149040,
          "time": 84.68188875,
          "velocity": 1
        },
        {
          "duration": 0.136363750000001,
          "durationTicks": 240,
          "midi": 38,
          "name": "D2",
          "ticks": 149040,
          "time": 84.68188875,
          "velocity": 1
        },
        {
          "duration": 0.272727500000002,
          "durationTicks": 480,
          "midi": 35,
          "name": "B1",
          "ticks": 149280,
          "time": 84.8182525,
          "velocity": 1
        },
        {
          "duration": 0.272727500000002,
          "durationTicks": 480,
          "midi": 70,
          "name": "A#4",
          "ticks": 149280,
          "time": 84.8182525,
          "velocity": 1
        },
        {
          "duration": 0.272727500000002,
          "durationTicks": 480,
          "midi": 35,
          "name": "B1",
          "ticks": 149760,
          "time": 85.09098,
          "velocity": 1
        },
        {
          "duration": 0.272727500000002,
          "durationTicks": 480,
          "midi": 70,
          "name": "A#4",
          "ticks": 149760,
          "time": 85.09098,
          "velocity": 1
        },
        {
          "duration": 0.545455000000004,
          "durationTicks": 960,
          "midi": 42,
          "name": "F#2",
          "ticks": 149760,
          "time": 85.09098,
          "velocity": 1
        },
        {
          "duration": 0.272727500000002,
          "durationTicks": 480,
          "midi": 69,
          "name": "A4",
          "ticks": 150480,
          "time": 85.50007125,
          "velocity": 1
        },
        {
          "duration": 0.272727500000002,
          "durationTicks": 480,
          "midi": 38,
          "name": "D2",
          "ticks": 150480,
          "time": 85.50007125,
          "velocity": 1
        },
        {
          "duration": 0.545455000000004,
          "durationTicks": 960,
          "midi": 42,
          "name": "F#2",
          "ticks": 150720,
          "time": 85.636435,
          "velocity": 1
        },
        {
          "duration": 0.272727500000002,
          "durationTicks": 480,
          "midi": 35,
          "name": "B1",
          "ticks": 151200,
          "time": 85.90916250000001,
          "velocity": 1
        },
        {
          "duration": 0.272727500000002,
          "durationTicks": 480,
          "midi": 70,
          "name": "A#4",
          "ticks": 151200,
          "time": 85.90916250000001,
          "velocity": 1
        },
        {
          "duration": 0.5454549999999898,
          "durationTicks": 960,
          "midi": 42,
          "name": "F#2",
          "ticks": 151680,
          "time": 86.18189000000001,
          "velocity": 1
        },
        {
          "duration": 0.272727500000002,
          "durationTicks": 480,
          "midi": 35,
          "name": "B1",
          "ticks": 152160,
          "time": 86.4546175,
          "velocity": 1
        },
        {
          "duration": 0.272727500000002,
          "durationTicks": 480,
          "midi": 70,
          "name": "A#4",
          "ticks": 152160,
          "time": 86.4546175,
          "velocity": 1
        },
        {
          "duration": 0.136363750000001,
          "durationTicks": 240,
          "midi": 69,
          "name": "A4",
          "ticks": 152640,
          "time": 86.727345,
          "velocity": 1
        },
        {
          "duration": 0.545455000000004,
          "durationTicks": 960,
          "midi": 42,
          "name": "F#2",
          "ticks": 152640,
          "time": 86.727345,
          "velocity": 1
        },
        {
          "duration": 0.136363750000001,
          "durationTicks": 240,
          "midi": 38,
          "name": "D2",
          "ticks": 152640,
          "time": 86.727345,
          "velocity": 1
        },
        {
          "duration": 0.136363750000001,
          "durationTicks": 240,
          "midi": 69,
          "name": "A4",
          "ticks": 152880,
          "time": 86.86370875,
          "velocity": 1
        },
        {
          "duration": 0.136363750000001,
          "durationTicks": 240,
          "midi": 38,
          "name": "D2",
          "ticks": 152880,
          "time": 86.86370875,
          "velocity": 1
        },
        {
          "duration": 0.272727500000002,
          "durationTicks": 480,
          "midi": 69,
          "name": "A4",
          "ticks": 153120,
          "time": 87.0000725,
          "velocity": 1
        },
        {
          "duration": 0.272727500000002,
          "durationTicks": 480,
          "midi": 38,
          "name": "D2",
          "ticks": 153120,
          "time": 87.0000725,
          "velocity": 1
        },
        {
          "duration": 0.272727500000002,
          "durationTicks": 480,
          "midi": 35,
          "name": "B1",
          "ticks": 153600,
          "time": 87.2728,
          "velocity": 1
        },
        {
          "duration": 0.272727500000002,
          "durationTicks": 480,
          "midi": 70,
          "name": "A#4",
          "ticks": 153600,
          "time": 87.2728,
          "velocity": 1
        },
        {
          "duration": 0.545455000000004,
          "durationTicks": 960,
          "midi": 49,
          "name": "C#3",
          "ticks": 153600,
          "time": 87.2728,
          "velocity": 1
        },
        {
          "duration": 0.136363750000001,
          "durationTicks": 240,
          "midi": 42,
          "name": "F#2",
          "ticks": 153600,
          "time": 87.2728,
          "velocity": 1
        },
        {
          "duration": 0.136363750000001,
          "durationTicks": 240,
          "midi": 42,
          "name": "F#2",
          "ticks": 153840,
          "time": 87.40916375,
          "velocity": 1
        },
        {
          "duration": 0.136363750000001,
          "durationTicks": 240,
          "midi": 42,
          "name": "F#2",
          "ticks": 154080,
          "time": 87.5455275,
          "velocity": 1
        },
        {
          "duration": 0.272727500000002,
          "durationTicks": 480,
          "midi": 69,
          "name": "A4",
          "ticks": 154320,
          "time": 87.68189125,
          "velocity": 1
        },
        {
          "duration": 0.136363750000001,
          "durationTicks": 240,
          "midi": 42,
          "name": "F#2",
          "ticks": 154320,
          "time": 87.68189125,
          "velocity": 1
        },
        {
          "duration": 0.272727500000002,
          "durationTicks": 480,
          "midi": 38,
          "name": "D2",
          "ticks": 154320,
          "time": 87.68189125,
          "velocity": 1
        },
        {
          "duration": 0.136363750000001,
          "durationTicks": 240,
          "midi": 42,
          "name": "F#2",
          "ticks": 154560,
          "time": 87.81825500000001,
          "velocity": 1
        },
        {
          "duration": 0.136363750000001,
          "durationTicks": 240,
          "midi": 42,
          "name": "F#2",
          "ticks": 154800,
          "time": 87.95461875000001,
          "velocity": 1
        },
        {
          "duration": 0.2727274999999878,
          "durationTicks": 480,
          "midi": 35,
          "name": "B1",
          "ticks": 155040,
          "time": 88.09098250000001,
          "velocity": 1
        },
        {
          "duration": 0.2727274999999878,
          "durationTicks": 480,
          "midi": 70,
          "name": "A#4",
          "ticks": 155040,
          "time": 88.09098250000001,
          "velocity": 1
        },
        {
          "duration": 0.136363750000001,
          "durationTicks": 240,
          "midi": 42,
          "name": "F#2",
          "ticks": 155040,
          "time": 88.09098250000001,
          "velocity": 1
        },
        {
          "duration": 0.1363637499999868,
          "durationTicks": 240,
          "midi": 42,
          "name": "F#2",
          "ticks": 155280,
          "time": 88.22734625000001,
          "velocity": 1
        },
        {
          "duration": 0.136363750000001,
          "durationTicks": 240,
          "midi": 42,
          "name": "F#2",
          "ticks": 155520,
          "time": 88.36371,
          "velocity": 1
        },
        {
          "duration": 0.136363750000001,
          "durationTicks": 240,
          "midi": 42,
          "name": "F#2",
          "ticks": 155760,
          "time": 88.50007375,
          "velocity": 1
        },
        {
          "duration": 0.272727500000002,
          "durationTicks": 480,
          "midi": 35,
          "name": "B1",
          "ticks": 156000,
          "time": 88.6364375,
          "velocity": 1
        },
        {
          "duration": 0.272727500000002,
          "durationTicks": 480,
          "midi": 70,
          "name": "A#4",
          "ticks": 156000,
          "time": 88.6364375,
          "velocity": 1
        },
        {
          "duration": 0.136363750000001,
          "durationTicks": 240,
          "midi": 42,
          "name": "F#2",
          "ticks": 156000,
          "time": 88.6364375,
          "velocity": 1
        },
        {
          "duration": 0.136363750000001,
          "durationTicks": 240,
          "midi": 42,
          "name": "F#2",
          "ticks": 156240,
          "time": 88.77280125,
          "velocity": 1
        },
        {
          "duration": 0.136363750000001,
          "durationTicks": 240,
          "midi": 69,
          "name": "A4",
          "ticks": 156480,
          "time": 88.909165,
          "velocity": 1
        },
        {
          "duration": 0.136363750000001,
          "durationTicks": 240,
          "midi": 42,
          "name": "F#2",
          "ticks": 156480,
          "time": 88.909165,
          "velocity": 1
        },
        {
          "duration": 0.136363750000001,
          "durationTicks": 240,
          "midi": 38,
          "name": "D2",
          "ticks": 156480,
          "time": 88.909165,
          "velocity": 1
        },
        {
          "duration": 0.136363750000001,
          "durationTicks": 240,
          "midi": 69,
          "name": "A4",
          "ticks": 156720,
          "time": 89.04552875,
          "velocity": 1
        },
        {
          "duration": 0.136363750000001,
          "durationTicks": 240,
          "midi": 42,
          "name": "F#2",
          "ticks": 156720,
          "time": 89.04552875,
          "velocity": 1
        },
        {
          "duration": 0.136363750000001,
          "durationTicks": 240,
          "midi": 38,
          "name": "D2",
          "ticks": 156720,
          "time": 89.04552875,
          "velocity": 1
        },
        {
          "duration": 0.272727500000002,
          "durationTicks": 480,
          "midi": 35,
          "name": "B1",
          "ticks": 156960,
          "time": 89.1818925,
          "velocity": 1
        },
        {
          "duration": 0.272727500000002,
          "durationTicks": 480,
          "midi": 70,
          "name": "A#4",
          "ticks": 156960,
          "time": 89.1818925,
          "velocity": 1
        },
        {
          "duration": 0.136363750000001,
          "durationTicks": 240,
          "midi": 42,
          "name": "F#2",
          "ticks": 156960,
          "time": 89.1818925,
          "velocity": 1
        },
        {
          "duration": 0.136363750000001,
          "durationTicks": 240,
          "midi": 42,
          "name": "F#2",
          "ticks": 157200,
          "time": 89.31825625,
          "velocity": 1
        },
        {
          "duration": 0.272727500000002,
          "durationTicks": 480,
          "midi": 35,
          "name": "B1",
          "ticks": 157440,
          "time": 89.45462,
          "velocity": 1
        },
        {
          "duration": 0.272727500000002,
          "durationTicks": 480,
          "midi": 70,
          "name": "A#4",
          "ticks": 157440,
          "time": 89.45462,
          "velocity": 1
        },
        {
          "duration": 0.136363750000001,
          "durationTicks": 240,
          "midi": 42,
          "name": "F#2",
          "ticks": 157440,
          "time": 89.45462,
          "velocity": 1
        },
        {
          "duration": 0.136363750000001,
          "durationTicks": 240,
          "midi": 42,
          "name": "F#2",
          "ticks": 157680,
          "time": 89.59098375,
          "velocity": 1
        },
        {
          "duration": 0.136363750000001,
          "durationTicks": 240,
          "midi": 42,
          "name": "F#2",
          "ticks": 157920,
          "time": 89.72734750000001,
          "velocity": 1
        },
        {
          "duration": 0.272727500000002,
          "durationTicks": 480,
          "midi": 69,
          "name": "A4",
          "ticks": 158160,
          "time": 89.86371125000001,
          "velocity": 1
        },
        {
          "duration": 0.136363750000001,
          "durationTicks": 240,
          "midi": 42,
          "name": "F#2",
          "ticks": 158160,
          "time": 89.86371125000001,
          "velocity": 1
        },
        {
          "duration": 0.272727500000002,
          "durationTicks": 480,
          "midi": 38,
          "name": "D2",
          "ticks": 158160,
          "time": 89.86371125000001,
          "velocity": 1
        },
        {
          "duration": 0.136363750000001,
          "durationTicks": 240,
          "midi": 42,
          "name": "F#2",
          "ticks": 158400,
          "time": 90.00007500000001,
          "velocity": 1
        },
        {
          "duration": 0.1363637499999868,
          "durationTicks": 240,
          "midi": 42,
          "name": "F#2",
          "ticks": 158640,
          "time": 90.13643875000001,
          "velocity": 1
        },
        {
          "duration": 0.272727500000002,
          "durationTicks": 480,
          "midi": 35,
          "name": "B1",
          "ticks": 158880,
          "time": 90.2728025,
          "velocity": 1
        },
        {
          "duration": 0.272727500000002,
          "durationTicks": 480,
          "midi": 70,
          "name": "A#4",
          "ticks": 158880,
          "time": 90.2728025,
          "velocity": 1
        },
        {
          "duration": 0.136363750000001,
          "durationTicks": 240,
          "midi": 42,
          "name": "F#2",
          "ticks": 158880,
          "time": 90.2728025,
          "velocity": 1
        },
        {
          "duration": 0.136363750000001,
          "durationTicks": 240,
          "midi": 42,
          "name": "F#2",
          "ticks": 159120,
          "time": 90.40916625,
          "velocity": 1
        },
        {
          "duration": 0.136363750000001,
          "durationTicks": 240,
          "midi": 42,
          "name": "F#2",
          "ticks": 159360,
          "time": 90.54553,
          "velocity": 1
        },
        {
          "duration": 0.136363750000001,
          "durationTicks": 240,
          "midi": 42,
          "name": "F#2",
          "ticks": 159600,
          "time": 90.68189375,
          "velocity": 1
        },
        {
          "duration": 0.272727500000002,
          "durationTicks": 480,
          "midi": 35,
          "name": "B1",
          "ticks": 159840,
          "time": 90.8182575,
          "velocity": 1
        },
        {
          "duration": 0.272727500000002,
          "durationTicks": 480,
          "midi": 70,
          "name": "A#4",
          "ticks": 159840,
          "time": 90.8182575,
          "velocity": 1
        },
        {
          "duration": 0.136363750000001,
          "durationTicks": 240,
          "midi": 42,
          "name": "F#2",
          "ticks": 159840,
          "time": 90.8182575,
          "velocity": 1
        },
        {
          "duration": 0.136363750000001,
          "durationTicks": 240,
          "midi": 42,
          "name": "F#2",
          "ticks": 160080,
          "time": 90.95462125,
          "velocity": 1
        },
        {
          "duration": 0.136363750000001,
          "durationTicks": 240,
          "midi": 69,
          "name": "A4",
          "ticks": 160320,
          "time": 91.090985,
          "velocity": 1
        },
        {
          "duration": 0.136363750000001,
          "durationTicks": 240,
          "midi": 42,
          "name": "F#2",
          "ticks": 160320,
          "time": 91.090985,
          "velocity": 1
        },
        {
          "duration": 0.136363750000001,
          "durationTicks": 240,
          "midi": 38,
          "name": "D2",
          "ticks": 160320,
          "time": 91.090985,
          "velocity": 1
        },
        {
          "duration": 0.136363750000001,
          "durationTicks": 240,
          "midi": 69,
          "name": "A4",
          "ticks": 160560,
          "time": 91.22734875,
          "velocity": 1
        },
        {
          "duration": 0.136363750000001,
          "durationTicks": 240,
          "midi": 42,
          "name": "F#2",
          "ticks": 160560,
          "time": 91.22734875,
          "velocity": 1
        },
        {
          "duration": 0.136363750000001,
          "durationTicks": 240,
          "midi": 38,
          "name": "D2",
          "ticks": 160560,
          "time": 91.22734875,
          "velocity": 1
        },
        {
          "duration": 0.272727500000002,
          "durationTicks": 480,
          "midi": 35,
          "name": "B1",
          "ticks": 160800,
          "time": 91.3637125,
          "velocity": 1
        },
        {
          "duration": 0.272727500000002,
          "durationTicks": 480,
          "midi": 70,
          "name": "A#4",
          "ticks": 160800,
          "time": 91.3637125,
          "velocity": 1
        },
        {
          "duration": 0.136363750000001,
          "durationTicks": 240,
          "midi": 42,
          "name": "F#2",
          "ticks": 160800,
          "time": 91.3637125,
          "velocity": 1
        },
        {
          "duration": 0.136363750000001,
          "durationTicks": 240,
          "midi": 42,
          "name": "F#2",
          "ticks": 161040,
          "time": 91.50007625,
          "velocity": 1
        },
        {
          "duration": 0.272727500000002,
          "durationTicks": 480,
          "midi": 35,
          "name": "B1",
          "ticks": 161280,
          "time": 91.63644000000001,
          "velocity": 1
        },
        {
          "duration": 0.272727500000002,
          "durationTicks": 480,
          "midi": 70,
          "name": "A#4",
          "ticks": 161280,
          "time": 91.63644000000001,
          "velocity": 1
        },
        {
          "duration": 0.136363750000001,
          "durationTicks": 240,
          "midi": 42,
          "name": "F#2",
          "ticks": 161280,
          "time": 91.63644000000001,
          "velocity": 1
        },
        {
          "duration": 0.136363750000001,
          "durationTicks": 240,
          "midi": 42,
          "name": "F#2",
          "ticks": 161520,
          "time": 91.77280375000001,
          "velocity": 1
        },
        {
          "duration": 0.136363750000001,
          "durationTicks": 240,
          "midi": 42,
          "name": "F#2",
          "ticks": 161760,
          "time": 91.90916750000001,
          "velocity": 1
        },
        {
          "duration": 0.2727274999999878,
          "durationTicks": 480,
          "midi": 69,
          "name": "A4",
          "ticks": 162000,
          "time": 92.04553125000001,
          "velocity": 1
        },
        {
          "duration": 0.1363637499999868,
          "durationTicks": 240,
          "midi": 42,
          "name": "F#2",
          "ticks": 162000,
          "time": 92.04553125000001,
          "velocity": 1
        },
        {
          "duration": 0.2727274999999878,
          "durationTicks": 480,
          "midi": 38,
          "name": "D2",
          "ticks": 162000,
          "time": 92.04553125000001,
          "velocity": 1
        },
        {
          "duration": 0.136363750000001,
          "durationTicks": 240,
          "midi": 42,
          "name": "F#2",
          "ticks": 162240,
          "time": 92.181895,
          "velocity": 1
        },
        {
          "duration": 0.136363750000001,
          "durationTicks": 240,
          "midi": 42,
          "name": "F#2",
          "ticks": 162480,
          "time": 92.31825875,
          "velocity": 1
        },
        {
          "duration": 0.272727500000002,
          "durationTicks": 480,
          "midi": 35,
          "name": "B1",
          "ticks": 162720,
          "time": 92.4546225,
          "velocity": 1
        },
        {
          "duration": 0.272727500000002,
          "durationTicks": 480,
          "midi": 70,
          "name": "A#4",
          "ticks": 162720,
          "time": 92.4546225,
          "velocity": 1
        },
        {
          "duration": 0.136363750000001,
          "durationTicks": 240,
          "midi": 42,
          "name": "F#2",
          "ticks": 162720,
          "time": 92.4546225,
          "velocity": 1
        },
        {
          "duration": 0.136363750000001,
          "durationTicks": 240,
          "midi": 42,
          "name": "F#2",
          "ticks": 162960,
          "time": 92.59098625,
          "velocity": 1
        },
        {
          "duration": 0.136363750000001,
          "durationTicks": 240,
          "midi": 42,
          "name": "F#2",
          "ticks": 163200,
          "time": 92.72735,
          "velocity": 1
        },
        {
          "duration": 0.136363750000001,
          "durationTicks": 240,
          "midi": 42,
          "name": "F#2",
          "ticks": 163440,
          "time": 92.86371375,
          "velocity": 1
        },
        {
          "duration": 0.272727500000002,
          "durationTicks": 480,
          "midi": 35,
          "name": "B1",
          "ticks": 163680,
          "time": 93.0000775,
          "velocity": 1
        },
        {
          "duration": 0.272727500000002,
          "durationTicks": 480,
          "midi": 70,
          "name": "A#4",
          "ticks": 163680,
          "time": 93.0000775,
          "velocity": 1
        },
        {
          "duration": 0.136363750000001,
          "durationTicks": 240,
          "midi": 42,
          "name": "F#2",
          "ticks": 163680,
          "time": 93.0000775,
          "velocity": 1
        },
        {
          "duration": 0.136363750000001,
          "durationTicks": 240,
          "midi": 42,
          "name": "F#2",
          "ticks": 163920,
          "time": 93.13644125,
          "velocity": 1
        },
        {
          "duration": 0.136363750000001,
          "durationTicks": 240,
          "midi": 69,
          "name": "A4",
          "ticks": 164160,
          "time": 93.272805,
          "velocity": 1
        },
        {
          "duration": 0.136363750000001,
          "durationTicks": 240,
          "midi": 42,
          "name": "F#2",
          "ticks": 164160,
          "time": 93.272805,
          "velocity": 1
        },
        {
          "duration": 0.136363750000001,
          "durationTicks": 240,
          "midi": 38,
          "name": "D2",
          "ticks": 164160,
          "time": 93.272805,
          "velocity": 1
        },
        {
          "duration": 0.136363750000001,
          "durationTicks": 240,
          "midi": 69,
          "name": "A4",
          "ticks": 164400,
          "time": 93.40916875,
          "velocity": 1
        },
        {
          "duration": 0.136363750000001,
          "durationTicks": 240,
          "midi": 42,
          "name": "F#2",
          "ticks": 164400,
          "time": 93.40916875,
          "velocity": 1
        },
        {
          "duration": 0.136363750000001,
          "durationTicks": 240,
          "midi": 38,
          "name": "D2",
          "ticks": 164400,
          "time": 93.40916875,
          "velocity": 1
        },
        {
          "duration": 0.272727500000002,
          "durationTicks": 480,
          "midi": 35,
          "name": "B1",
          "ticks": 164640,
          "time": 93.54553250000001,
          "velocity": 1
        },
        {
          "duration": 0.272727500000002,
          "durationTicks": 480,
          "midi": 70,
          "name": "A#4",
          "ticks": 164640,
          "time": 93.54553250000001,
          "velocity": 1
        },
        {
          "duration": 0.136363750000001,
          "durationTicks": 240,
          "midi": 42,
          "name": "F#2",
          "ticks": 164640,
          "time": 93.54553250000001,
          "velocity": 1
        },
        {
          "duration": 0.136363750000001,
          "durationTicks": 240,
          "midi": 42,
          "name": "F#2",
          "ticks": 164880,
          "time": 93.68189625000001,
          "velocity": 1
        },
        {
          "duration": 0.2727274999999878,
          "durationTicks": 480,
          "midi": 35,
          "name": "B1",
          "ticks": 165120,
          "time": 93.81826000000001,
          "velocity": 1
        },
        {
          "duration": 0.2727274999999878,
          "durationTicks": 480,
          "midi": 70,
          "name": "A#4",
          "ticks": 165120,
          "time": 93.81826000000001,
          "velocity": 1
        },
        {
          "duration": 0.136363750000001,
          "durationTicks": 240,
          "midi": 42,
          "name": "F#2",
          "ticks": 165120,
          "time": 93.81826000000001,
          "velocity": 1
        },
        {
          "duration": 0.1363637499999868,
          "durationTicks": 240,
          "midi": 42,
          "name": "F#2",
          "ticks": 165360,
          "time": 93.95462375000001,
          "velocity": 1
        },
        {
          "duration": 0.136363750000001,
          "durationTicks": 240,
          "midi": 42,
          "name": "F#2",
          "ticks": 165600,
          "time": 94.0909875,
          "velocity": 1
        },
        {
          "duration": 0.272727500000002,
          "durationTicks": 480,
          "midi": 69,
          "name": "A4",
          "ticks": 165840,
          "time": 94.22735125,
          "velocity": 1
        },
        {
          "duration": 0.136363750000001,
          "durationTicks": 240,
          "midi": 42,
          "name": "F#2",
          "ticks": 165840,
          "time": 94.22735125,
          "velocity": 1
        },
        {
          "duration": 0.272727500000002,
          "durationTicks": 480,
          "midi": 38,
          "name": "D2",
          "ticks": 165840,
          "time": 94.22735125,
          "velocity": 1
        },
        {
          "duration": 0.136363750000001,
          "durationTicks": 240,
          "midi": 42,
          "name": "F#2",
          "ticks": 166080,
          "time": 94.363715,
          "velocity": 1
        },
        {
          "duration": 0.136363750000001,
          "durationTicks": 240,
          "midi": 42,
          "name": "F#2",
          "ticks": 166320,
          "time": 94.50007875,
          "velocity": 1
        },
        {
          "duration": 0.272727500000002,
          "durationTicks": 480,
          "midi": 35,
          "name": "B1",
          "ticks": 166560,
          "time": 94.6364425,
          "velocity": 1
        },
        {
          "duration": 0.272727500000002,
          "durationTicks": 480,
          "midi": 70,
          "name": "A#4",
          "ticks": 166560,
          "time": 94.6364425,
          "velocity": 1
        },
        {
          "duration": 0.136363750000001,
          "durationTicks": 240,
          "midi": 42,
          "name": "F#2",
          "ticks": 166560,
          "time": 94.6364425,
          "velocity": 1
        },
        {
          "duration": 0.136363750000001,
          "durationTicks": 240,
          "midi": 42,
          "name": "F#2",
          "ticks": 166800,
          "time": 94.77280625,
          "velocity": 1
        },
        {
          "duration": 0.136363750000001,
          "durationTicks": 240,
          "midi": 42,
          "name": "F#2",
          "ticks": 167040,
          "time": 94.90917,
          "velocity": 1
        },
        {
          "duration": 0.136363750000001,
          "durationTicks": 240,
          "midi": 42,
          "name": "F#2",
          "ticks": 167280,
          "time": 95.04553375,
          "velocity": 1
        },
        {
          "duration": 0.272727500000002,
          "durationTicks": 480,
          "midi": 35,
          "name": "B1",
          "ticks": 167520,
          "time": 95.1818975,
          "velocity": 1
        },
        {
          "duration": 0.272727500000002,
          "durationTicks": 480,
          "midi": 70,
          "name": "A#4",
          "ticks": 167520,
          "time": 95.1818975,
          "velocity": 1
        },
        {
          "duration": 0.136363750000001,
          "durationTicks": 240,
          "midi": 42,
          "name": "F#2",
          "ticks": 167520,
          "time": 95.1818975,
          "velocity": 1
        },
        {
          "duration": 0.136363750000001,
          "durationTicks": 240,
          "midi": 42,
          "name": "F#2",
          "ticks": 167760,
          "time": 95.31826125,
          "velocity": 1
        },
        {
          "duration": 0.136363750000001,
          "durationTicks": 240,
          "midi": 69,
          "name": "A4",
          "ticks": 168000,
          "time": 95.45462500000001,
          "velocity": 1
        },
        {
          "duration": 0.136363750000001,
          "durationTicks": 240,
          "midi": 42,
          "name": "F#2",
          "ticks": 168000,
          "time": 95.45462500000001,
          "velocity": 1
        },
        {
          "duration": 0.136363750000001,
          "durationTicks": 240,
          "midi": 38,
          "name": "D2",
          "ticks": 168000,
          "time": 95.45462500000001,
          "velocity": 1
        },
        {
          "duration": 0.136363750000001,
          "durationTicks": 240,
          "midi": 69,
          "name": "A4",
          "ticks": 168240,
          "time": 95.59098875000001,
          "velocity": 1
        },
        {
          "duration": 0.136363750000001,
          "durationTicks": 240,
          "midi": 42,
          "name": "F#2",
          "ticks": 168240,
          "time": 95.59098875000001,
          "velocity": 1
        },
        {
          "duration": 0.136363750000001,
          "durationTicks": 240,
          "midi": 38,
          "name": "D2",
          "ticks": 168240,
          "time": 95.59098875000001,
          "velocity": 1
        },
        {
          "duration": 0.136363750000001,
          "durationTicks": 240,
          "midi": 42,
          "name": "F#2",
          "ticks": 168480,
          "time": 95.72735250000001,
          "velocity": 1
        },
        {
          "duration": 0.2727274999999878,
          "durationTicks": 480,
          "midi": 69,
          "name": "A4",
          "ticks": 168480,
          "time": 95.72735250000001,
          "velocity": 1
        },
        {
          "duration": 0.2727274999999878,
          "durationTicks": 480,
          "midi": 35,
          "name": "B1",
          "ticks": 168480,
          "time": 95.72735250000001,
          "velocity": 1
        },
        {
          "duration": 0.2727274999999878,
          "durationTicks": 480,
          "midi": 38,
          "name": "D2",
          "ticks": 168480,
          "time": 95.72735250000001,
          "velocity": 1
        },
        {
          "duration": 0.1363637499999868,
          "durationTicks": 240,
          "midi": 42,
          "name": "F#2",
          "ticks": 168720,
          "time": 95.86371625000001,
          "velocity": 1
        },
        {
          "duration": 0.272727500000002,
          "durationTicks": 480,
          "midi": 35,
          "name": "B1",
          "ticks": 168960,
          "time": 96.00008,
          "velocity": 1
        },
        {
          "duration": 0.272727500000002,
          "durationTicks": 480,
          "midi": 70,
          "name": "A#4",
          "ticks": 168960,
          "time": 96.00008,
          "velocity": 1
        },
        {
          "duration": 0.545455000000004,
          "durationTicks": 960,
          "midi": 49,
          "name": "C#3",
          "ticks": 168960,
          "time": 96.00008,
          "velocity": 1
        },
        {
          "duration": 0.136363750000001,
          "durationTicks": 240,
          "midi": 42,
          "name": "F#2",
          "ticks": 168960,
          "time": 96.00008,
          "velocity": 1
        },
        {
          "duration": 0.136363750000001,
          "durationTicks": 240,
          "midi": 42,
          "name": "F#2",
          "ticks": 169200,
          "time": 96.13644375,
          "velocity": 1
        },
        {
          "duration": 0.136363750000001,
          "durationTicks": 240,
          "midi": 42,
          "name": "F#2",
          "ticks": 169440,
          "time": 96.2728075,
          "velocity": 1
        },
        {
          "duration": 0.272727500000002,
          "durationTicks": 480,
          "midi": 69,
          "name": "A4",
          "ticks": 169680,
          "time": 96.40917125,
          "velocity": 1
        },
        {
          "duration": 0.136363750000001,
          "durationTicks": 240,
          "midi": 42,
          "name": "F#2",
          "ticks": 169680,
          "time": 96.40917125,
          "velocity": 1
        },
        {
          "duration": 0.272727500000002,
          "durationTicks": 480,
          "midi": 38,
          "name": "D2",
          "ticks": 169680,
          "time": 96.40917125,
          "velocity": 1
        },
        {
          "duration": 0.136363750000001,
          "durationTicks": 240,
          "midi": 42,
          "name": "F#2",
          "ticks": 169920,
          "time": 96.545535,
          "velocity": 1
        },
        {
          "duration": 0.136363750000001,
          "durationTicks": 240,
          "midi": 42,
          "name": "F#2",
          "ticks": 170160,
          "time": 96.68189875,
          "velocity": 1
        },
        {
          "duration": 0.272727500000002,
          "durationTicks": 480,
          "midi": 35,
          "name": "B1",
          "ticks": 170400,
          "time": 96.8182625,
          "velocity": 1
        },
        {
          "duration": 0.272727500000002,
          "durationTicks": 480,
          "midi": 70,
          "name": "A#4",
          "ticks": 170400,
          "time": 96.8182625,
          "velocity": 1
        },
        {
          "duration": 0.136363750000001,
          "durationTicks": 240,
          "midi": 42,
          "name": "F#2",
          "ticks": 170400,
          "time": 96.8182625,
          "velocity": 1
        },
        {
          "duration": 0.136363750000001,
          "durationTicks": 240,
          "midi": 42,
          "name": "F#2",
          "ticks": 170640,
          "time": 96.95462625,
          "velocity": 1
        },
        {
          "duration": 0.136363750000001,
          "durationTicks": 240,
          "midi": 42,
          "name": "F#2",
          "ticks": 170880,
          "time": 97.09099,
          "velocity": 1
        },
        {
          "duration": 0.136363750000001,
          "durationTicks": 240,
          "midi": 42,
          "name": "F#2",
          "ticks": 171120,
          "time": 97.22735375,
          "velocity": 1
        },
        {
          "duration": 0.272727500000002,
          "durationTicks": 480,
          "midi": 35,
          "name": "B1",
          "ticks": 171360,
          "time": 97.3637175,
          "velocity": 1
        },
        {
          "duration": 0.272727500000002,
          "durationTicks": 480,
          "midi": 70,
          "name": "A#4",
          "ticks": 171360,
          "time": 97.3637175,
          "velocity": 1
        },
        {
          "duration": 0.136363750000001,
          "durationTicks": 240,
          "midi": 42,
          "name": "F#2",
          "ticks": 171360,
          "time": 97.3637175,
          "velocity": 1
        },
        {
          "duration": 0.136363750000001,
          "durationTicks": 240,
          "midi": 42,
          "name": "F#2",
          "ticks": 171600,
          "time": 97.50008125000001,
          "velocity": 1
        },
        {
          "duration": 0.136363750000001,
          "durationTicks": 240,
          "midi": 69,
          "name": "A4",
          "ticks": 171840,
          "time": 97.63644500000001,
          "velocity": 1
        },
        {
          "duration": 0.136363750000001,
          "durationTicks": 240,
          "midi": 42,
          "name": "F#2",
          "ticks": 171840,
          "time": 97.63644500000001,
          "velocity": 1
        },
        {
          "duration": 0.136363750000001,
          "durationTicks": 240,
          "midi": 38,
          "name": "D2",
          "ticks": 171840,
          "time": 97.63644500000001,
          "velocity": 1
        },
        {
          "duration": 0.136363750000001,
          "durationTicks": 240,
          "midi": 69,
          "name": "A4",
          "ticks": 172080,
          "time": 97.77280875000001,
          "velocity": 1
        },
        {
          "duration": 0.136363750000001,
          "durationTicks": 240,
          "midi": 42,
          "name": "F#2",
          "ticks": 172080,
          "time": 97.77280875000001,
          "velocity": 1
        },
        {
          "duration": 0.136363750000001,
          "durationTicks": 240,
          "midi": 38,
          "name": "D2",
          "ticks": 172080,
          "time": 97.77280875000001,
          "velocity": 1
        },
        {
          "duration": 0.2727274999999878,
          "durationTicks": 480,
          "midi": 35,
          "name": "B1",
          "ticks": 172320,
          "time": 97.90917250000001,
          "velocity": 1
        },
        {
          "duration": 0.2727274999999878,
          "durationTicks": 480,
          "midi": 70,
          "name": "A#4",
          "ticks": 172320,
          "time": 97.90917250000001,
          "velocity": 1
        },
        {
          "duration": 0.1363637499999868,
          "durationTicks": 240,
          "midi": 42,
          "name": "F#2",
          "ticks": 172320,
          "time": 97.90917250000001,
          "velocity": 1
        },
        {
          "duration": 0.136363750000001,
          "durationTicks": 240,
          "midi": 42,
          "name": "F#2",
          "ticks": 172560,
          "time": 98.04553625,
          "velocity": 1
        },
        {
          "duration": 0.272727500000002,
          "durationTicks": 480,
          "midi": 35,
          "name": "B1",
          "ticks": 172800,
          "time": 98.1819,
          "velocity": 1
        },
        {
          "duration": 0.272727500000002,
          "durationTicks": 480,
          "midi": 70,
          "name": "A#4",
          "ticks": 172800,
          "time": 98.1819,
          "velocity": 1
        },
        {
          "duration": 0.136363750000001,
          "durationTicks": 240,
          "midi": 42,
          "name": "F#2",
          "ticks": 172800,
          "time": 98.1819,
          "velocity": 1
        },
        {
          "duration": 0.136363750000001,
          "durationTicks": 240,
          "midi": 42,
          "name": "F#2",
          "ticks": 173040,
          "time": 98.31826375,
          "velocity": 1
        },
        {
          "duration": 0.136363750000001,
          "durationTicks": 240,
          "midi": 42,
          "name": "F#2",
          "ticks": 173280,
          "time": 98.4546275,
          "velocity": 1
        },
        {
          "duration": 0.272727500000002,
          "durationTicks": 480,
          "midi": 69,
          "name": "A4",
          "ticks": 173520,
          "time": 98.59099125,
          "velocity": 1
        },
        {
          "duration": 0.136363750000001,
          "durationTicks": 240,
          "midi": 42,
          "name": "F#2",
          "ticks": 173520,
          "time": 98.59099125,
          "velocity": 1
        },
        {
          "duration": 0.272727500000002,
          "durationTicks": 480,
          "midi": 38,
          "name": "D2",
          "ticks": 173520,
          "time": 98.59099125,
          "velocity": 1
        },
        {
          "duration": 0.136363750000001,
          "durationTicks": 240,
          "midi": 42,
          "name": "F#2",
          "ticks": 173760,
          "time": 98.727355,
          "velocity": 1
        },
        {
          "duration": 0.136363750000001,
          "durationTicks": 240,
          "midi": 42,
          "name": "F#2",
          "ticks": 174000,
          "time": 98.86371875,
          "velocity": 1
        },
        {
          "duration": 0.272727500000002,
          "durationTicks": 480,
          "midi": 35,
          "name": "B1",
          "ticks": 174240,
          "time": 99.0000825,
          "velocity": 1
        },
        {
          "duration": 0.272727500000002,
          "durationTicks": 480,
          "midi": 70,
          "name": "A#4",
          "ticks": 174240,
          "time": 99.0000825,
          "velocity": 1
        },
        {
          "duration": 0.136363750000001,
          "durationTicks": 240,
          "midi": 42,
          "name": "F#2",
          "ticks": 174240,
          "time": 99.0000825,
          "velocity": 1
        },
        {
          "duration": 0.136363750000001,
          "durationTicks": 240,
          "midi": 42,
          "name": "F#2",
          "ticks": 174480,
          "time": 99.13644625,
          "velocity": 1
        },
        {
          "duration": 0.136363750000001,
          "durationTicks": 240,
          "midi": 42,
          "name": "F#2",
          "ticks": 174720,
          "time": 99.27281,
          "velocity": 1
        },
        {
          "duration": 0.136363750000001,
          "durationTicks": 240,
          "midi": 42,
          "name": "F#2",
          "ticks": 174960,
          "time": 99.40917375000001,
          "velocity": 1
        },
        {
          "duration": 0.272727500000002,
          "durationTicks": 480,
          "midi": 35,
          "name": "B1",
          "ticks": 175200,
          "time": 99.54553750000001,
          "velocity": 1
        },
        {
          "duration": 0.272727500000002,
          "durationTicks": 480,
          "midi": 70,
          "name": "A#4",
          "ticks": 175200,
          "time": 99.54553750000001,
          "velocity": 1
        },
        {
          "duration": 0.136363750000001,
          "durationTicks": 240,
          "midi": 42,
          "name": "F#2",
          "ticks": 175200,
          "time": 99.54553750000001,
          "velocity": 1
        },
        {
          "duration": 0.136363750000001,
          "durationTicks": 240,
          "midi": 42,
          "name": "F#2",
          "ticks": 175440,
          "time": 99.68190125000001,
          "velocity": 1
        },
        {
          "duration": 0.1363637499999868,
          "durationTicks": 240,
          "midi": 69,
          "name": "A4",
          "ticks": 175680,
          "time": 99.81826500000001,
          "velocity": 1
        },
        {
          "duration": 0.1363637499999868,
          "durationTicks": 240,
          "midi": 42,
          "name": "F#2",
          "ticks": 175680,
          "time": 99.81826500000001,
          "velocity": 1
        },
        {
          "duration": 0.1363637499999868,
          "durationTicks": 240,
          "midi": 38,
          "name": "D2",
          "ticks": 175680,
          "time": 99.81826500000001,
          "velocity": 1
        },
        {
          "duration": 0.136363750000001,
          "durationTicks": 240,
          "midi": 69,
          "name": "A4",
          "ticks": 175920,
          "time": 99.95462875,
          "velocity": 1
        },
        {
          "duration": 0.136363750000001,
          "durationTicks": 240,
          "midi": 42,
          "name": "F#2",
          "ticks": 175920,
          "time": 99.95462875,
          "velocity": 1
        },
        {
          "duration": 0.136363750000001,
          "durationTicks": 240,
          "midi": 38,
          "name": "D2",
          "ticks": 175920,
          "time": 99.95462875,
          "velocity": 1
        },
        {
          "duration": 0.272727500000002,
          "durationTicks": 480,
          "midi": 35,
          "name": "B1",
          "ticks": 176160,
          "time": 100.0909925,
          "velocity": 1
        },
        {
          "duration": 0.272727500000002,
          "durationTicks": 480,
          "midi": 70,
          "name": "A#4",
          "ticks": 176160,
          "time": 100.0909925,
          "velocity": 1
        },
        {
          "duration": 0.136363750000001,
          "durationTicks": 240,
          "midi": 42,
          "name": "F#2",
          "ticks": 176160,
          "time": 100.0909925,
          "velocity": 1
        },
        {
          "duration": 0.136363750000001,
          "durationTicks": 240,
          "midi": 42,
          "name": "F#2",
          "ticks": 176400,
          "time": 100.22735625,
          "velocity": 1
        },
        {
          "duration": 0.272727500000002,
          "durationTicks": 480,
          "midi": 35,
          "name": "B1",
          "ticks": 176640,
          "time": 100.36372,
          "velocity": 1
        },
        {
          "duration": 0.272727500000002,
          "durationTicks": 480,
          "midi": 70,
          "name": "A#4",
          "ticks": 176640,
          "time": 100.36372,
          "velocity": 1
        },
        {
          "duration": 0.136363750000001,
          "durationTicks": 240,
          "midi": 42,
          "name": "F#2",
          "ticks": 176640,
          "time": 100.36372,
          "velocity": 1
        },
        {
          "duration": 0.136363750000001,
          "durationTicks": 240,
          "midi": 42,
          "name": "F#2",
          "ticks": 176880,
          "time": 100.50008375,
          "velocity": 1
        },
        {
          "duration": 0.136363750000001,
          "durationTicks": 240,
          "midi": 42,
          "name": "F#2",
          "ticks": 177120,
          "time": 100.6364475,
          "velocity": 1
        },
        {
          "duration": 0.272727500000002,
          "durationTicks": 480,
          "midi": 69,
          "name": "A4",
          "ticks": 177360,
          "time": 100.77281125,
          "velocity": 1
        },
        {
          "duration": 0.136363750000001,
          "durationTicks": 240,
          "midi": 42,
          "name": "F#2",
          "ticks": 177360,
          "time": 100.77281125,
          "velocity": 1
        },
        {
          "duration": 0.272727500000002,
          "durationTicks": 480,
          "midi": 38,
          "name": "D2",
          "ticks": 177360,
          "time": 100.77281125,
          "velocity": 1
        },
        {
          "duration": 0.136363750000001,
          "durationTicks": 240,
          "midi": 42,
          "name": "F#2",
          "ticks": 177600,
          "time": 100.909175,
          "velocity": 1
        },
        {
          "duration": 0.136363750000001,
          "durationTicks": 240,
          "midi": 42,
          "name": "F#2",
          "ticks": 177840,
          "time": 101.04553875,
          "velocity": 1
        },
        {
          "duration": 0.272727500000002,
          "durationTicks": 480,
          "midi": 35,
          "name": "B1",
          "ticks": 178080,
          "time": 101.1819025,
          "velocity": 1
        },
        {
          "duration": 0.272727500000002,
          "durationTicks": 480,
          "midi": 70,
          "name": "A#4",
          "ticks": 178080,
          "time": 101.1819025,
          "velocity": 1
        },
        {
          "duration": 0.136363750000001,
          "durationTicks": 240,
          "midi": 42,
          "name": "F#2",
          "ticks": 178080,
          "time": 101.1819025,
          "velocity": 1
        },
        {
          "duration": 0.136363750000001,
          "durationTicks": 240,
          "midi": 42,
          "name": "F#2",
          "ticks": 178320,
          "time": 101.31826625000001,
          "velocity": 1
        },
        {
          "duration": 0.136363750000001,
          "durationTicks": 240,
          "midi": 42,
          "name": "F#2",
          "ticks": 178560,
          "time": 101.45463000000001,
          "velocity": 1
        },
        {
          "duration": 0.136363750000001,
          "durationTicks": 240,
          "midi": 42,
          "name": "F#2",
          "ticks": 178800,
          "time": 101.59099375000001,
          "velocity": 1
        },
        {
          "duration": 0.2727274999999878,
          "durationTicks": 480,
          "midi": 35,
          "name": "B1",
          "ticks": 179040,
          "time": 101.72735750000001,
          "velocity": 1
        },
        {
          "duration": 0.2727274999999878,
          "durationTicks": 480,
          "midi": 70,
          "name": "A#4",
          "ticks": 179040,
          "time": 101.72735750000001,
          "velocity": 1
        },
        {
          "duration": 0.1363637499999868,
          "durationTicks": 240,
          "midi": 42,
          "name": "F#2",
          "ticks": 179040,
          "time": 101.72735750000001,
          "velocity": 1
        },
        {
          "duration": 0.136363750000001,
          "durationTicks": 240,
          "midi": 42,
          "name": "F#2",
          "ticks": 179280,
          "time": 101.86372125,
          "velocity": 1
        },
        {
          "duration": 0.136363750000001,
          "durationTicks": 240,
          "midi": 69,
          "name": "A4",
          "ticks": 179520,
          "time": 102.000085,
          "velocity": 1
        },
        {
          "duration": 0.136363750000001,
          "durationTicks": 240,
          "midi": 42,
          "name": "F#2",
          "ticks": 179520,
          "time": 102.000085,
          "velocity": 1
        },
        {
          "duration": 0.136363750000001,
          "durationTicks": 240,
          "midi": 38,
          "name": "D2",
          "ticks": 179520,
          "time": 102.000085,
          "velocity": 1
        },
        {
          "duration": 0.136363750000001,
          "durationTicks": 240,
          "midi": 69,
          "name": "A4",
          "ticks": 179760,
          "time": 102.13644875,
          "velocity": 1
        },
        {
          "duration": 0.136363750000001,
          "durationTicks": 240,
          "midi": 42,
          "name": "F#2",
          "ticks": 179760,
          "time": 102.13644875,
          "velocity": 1
        },
        {
          "duration": 0.136363750000001,
          "durationTicks": 240,
          "midi": 38,
          "name": "D2",
          "ticks": 179760,
          "time": 102.13644875,
          "velocity": 1
        },
        {
          "duration": 0.272727500000002,
          "durationTicks": 480,
          "midi": 35,
          "name": "B1",
          "ticks": 180000,
          "time": 102.2728125,
          "velocity": 1
        },
        {
          "duration": 0.272727500000002,
          "durationTicks": 480,
          "midi": 70,
          "name": "A#4",
          "ticks": 180000,
          "time": 102.2728125,
          "velocity": 1
        },
        {
          "duration": 0.136363750000001,
          "durationTicks": 240,
          "midi": 42,
          "name": "F#2",
          "ticks": 180000,
          "time": 102.2728125,
          "velocity": 1
        },
        {
          "duration": 0.136363750000001,
          "durationTicks": 240,
          "midi": 42,
          "name": "F#2",
          "ticks": 180240,
          "time": 102.40917625,
          "velocity": 1
        },
        {
          "duration": 0.272727500000002,
          "durationTicks": 480,
          "midi": 35,
          "name": "B1",
          "ticks": 180480,
          "time": 102.54554,
          "velocity": 1
        },
        {
          "duration": 0.272727500000002,
          "durationTicks": 480,
          "midi": 70,
          "name": "A#4",
          "ticks": 180480,
          "time": 102.54554,
          "velocity": 1
        },
        {
          "duration": 0.136363750000001,
          "durationTicks": 240,
          "midi": 42,
          "name": "F#2",
          "ticks": 180480,
          "time": 102.54554,
          "velocity": 1
        },
        {
          "duration": 0.136363750000001,
          "durationTicks": 240,
          "midi": 42,
          "name": "F#2",
          "ticks": 180720,
          "time": 102.68190375,
          "velocity": 1
        },
        {
          "duration": 0.136363750000001,
          "durationTicks": 240,
          "midi": 42,
          "name": "F#2",
          "ticks": 180960,
          "time": 102.8182675,
          "velocity": 1
        },
        {
          "duration": 0.272727500000002,
          "durationTicks": 480,
          "midi": 69,
          "name": "A4",
          "ticks": 181200,
          "time": 102.95463125,
          "velocity": 1
        },
        {
          "duration": 0.136363750000001,
          "durationTicks": 240,
          "midi": 42,
          "name": "F#2",
          "ticks": 181200,
          "time": 102.95463125,
          "velocity": 1
        },
        {
          "duration": 0.272727500000002,
          "durationTicks": 480,
          "midi": 38,
          "name": "D2",
          "ticks": 181200,
          "time": 102.95463125,
          "velocity": 1
        },
        {
          "duration": 0.136363750000001,
          "durationTicks": 240,
          "midi": 42,
          "name": "F#2",
          "ticks": 181440,
          "time": 103.090995,
          "velocity": 1
        },
        {
          "duration": 0.136363750000001,
          "durationTicks": 240,
          "midi": 42,
          "name": "F#2",
          "ticks": 181680,
          "time": 103.22735875000001,
          "velocity": 1
        },
        {
          "duration": 0.272727500000002,
          "durationTicks": 480,
          "midi": 35,
          "name": "B1",
          "ticks": 181920,
          "time": 103.36372250000001,
          "velocity": 1
        },
        {
          "duration": 0.272727500000002,
          "durationTicks": 480,
          "midi": 70,
          "name": "A#4",
          "ticks": 181920,
          "time": 103.36372250000001,
          "velocity": 1
        },
        {
          "duration": 0.136363750000001,
          "durationTicks": 240,
          "midi": 42,
          "name": "F#2",
          "ticks": 181920,
          "time": 103.36372250000001,
          "velocity": 1
        },
        {
          "duration": 0.136363750000001,
          "durationTicks": 240,
          "midi": 42,
          "name": "F#2",
          "ticks": 182160,
          "time": 103.50008625000001,
          "velocity": 1
        },
        {
          "duration": 0.1363637499999868,
          "durationTicks": 240,
          "midi": 42,
          "name": "F#2",
          "ticks": 182400,
          "time": 103.63645000000001,
          "velocity": 1
        },
        {
          "duration": 0.136363750000001,
          "durationTicks": 240,
          "midi": 42,
          "name": "F#2",
          "ticks": 182640,
          "time": 103.77281375,
          "velocity": 1
        },
        {
          "duration": 0.272727500000002,
          "durationTicks": 480,
          "midi": 35,
          "name": "B1",
          "ticks": 182880,
          "time": 103.9091775,
          "velocity": 1
        },
        {
          "duration": 0.272727500000002,
          "durationTicks": 480,
          "midi": 70,
          "name": "A#4",
          "ticks": 182880,
          "time": 103.9091775,
          "velocity": 1
        },
        {
          "duration": 0.136363750000001,
          "durationTicks": 240,
          "midi": 42,
          "name": "F#2",
          "ticks": 182880,
          "time": 103.9091775,
          "velocity": 1
        },
        {
          "duration": 0.136363750000001,
          "durationTicks": 240,
          "midi": 42,
          "name": "F#2",
          "ticks": 183120,
          "time": 104.04554125,
          "velocity": 1
        },
        {
          "duration": 0.136363750000001,
          "durationTicks": 240,
          "midi": 69,
          "name": "A4",
          "ticks": 183360,
          "time": 104.181905,
          "velocity": 1
        },
        {
          "duration": 0.136363750000001,
          "durationTicks": 240,
          "midi": 42,
          "name": "F#2",
          "ticks": 183360,
          "time": 104.181905,
          "velocity": 1
        },
        {
          "duration": 0.136363750000001,
          "durationTicks": 240,
          "midi": 38,
          "name": "D2",
          "ticks": 183360,
          "time": 104.181905,
          "velocity": 1
        },
        {
          "duration": 0.136363750000001,
          "durationTicks": 240,
          "midi": 69,
          "name": "A4",
          "ticks": 183600,
          "time": 104.31826875,
          "velocity": 1
        },
        {
          "duration": 0.136363750000001,
          "durationTicks": 240,
          "midi": 42,
          "name": "F#2",
          "ticks": 183600,
          "time": 104.31826875,
          "velocity": 1
        },
        {
          "duration": 0.136363750000001,
          "durationTicks": 240,
          "midi": 38,
          "name": "D2",
          "ticks": 183600,
          "time": 104.31826875,
          "velocity": 1
        },
        {
          "duration": 0.136363750000001,
          "durationTicks": 240,
          "midi": 42,
          "name": "F#2",
          "ticks": 183840,
          "time": 104.4546325,
          "velocity": 1
        },
        {
          "duration": 0.272727500000002,
          "durationTicks": 480,
          "midi": 69,
          "name": "A4",
          "ticks": 183840,
          "time": 104.4546325,
          "velocity": 1
        },
        {
          "duration": 0.272727500000002,
          "durationTicks": 480,
          "midi": 35,
          "name": "B1",
          "ticks": 183840,
          "time": 104.4546325,
          "velocity": 1
        },
        {
          "duration": 0.272727500000002,
          "durationTicks": 480,
          "midi": 38,
          "name": "D2",
          "ticks": 183840,
          "time": 104.4546325,
          "velocity": 1
        },
        {
          "duration": 0.136363750000001,
          "durationTicks": 240,
          "midi": 42,
          "name": "F#2",
          "ticks": 184080,
          "time": 104.59099625,
          "velocity": 1
        },
        {
          "duration": 0.272727500000002,
          "durationTicks": 480,
          "midi": 46,
          "name": "A#2",
          "ticks": 184320,
          "time": 104.72736,
          "velocity": 1
        },
        {
          "duration": 0.545455000000004,
          "durationTicks": 960,
          "midi": 49,
          "name": "C#3",
          "ticks": 184320,
          "time": 104.72736,
          "velocity": 1
        },
        {
          "duration": 0.272727500000002,
          "durationTicks": 480,
          "midi": 35,
          "name": "B1",
          "ticks": 184320,
          "time": 104.72736,
          "velocity": 1
        },
        {
          "duration": 0.272727500000002,
          "durationTicks": 480,
          "midi": 70,
          "name": "A#4",
          "ticks": 184320,
          "time": 104.72736,
          "velocity": 1
        },
        {
          "duration": 0.272727500000002,
          "durationTicks": 480,
          "midi": 46,
          "name": "A#2",
          "ticks": 184800,
          "time": 105.0000875,
          "velocity": 1
        },
        {
          "duration": 0.272727500000002,
          "durationTicks": 480,
          "midi": 38,
          "name": "D2",
          "ticks": 185040,
          "time": 105.13645125000001,
          "velocity": 1
        },
        {
          "duration": 0.272727500000002,
          "durationTicks": 480,
          "midi": 69,
          "name": "A4",
          "ticks": 185040,
          "time": 105.13645125000001,
          "velocity": 1
        },
        {
          "duration": 0.272727500000002,
          "durationTicks": 480,
          "midi": 46,
          "name": "A#2",
          "ticks": 185280,
          "time": 105.27281500000001,
          "velocity": 1
        },
        {
          "duration": 0.2727274999999878,
          "durationTicks": 480,
          "midi": 46,
          "name": "A#2",
          "ticks": 185760,
          "time": 105.54554250000001,
          "velocity": 1
        },
        {
          "duration": 0.2727274999999878,
          "durationTicks": 480,
          "midi": 35,
          "name": "B1",
          "ticks": 185760,
          "time": 105.54554250000001,
          "velocity": 1
        },
        {
          "duration": 0.2727274999999878,
          "durationTicks": 480,
          "midi": 70,
          "name": "A#4",
          "ticks": 185760,
          "time": 105.54554250000001,
          "velocity": 1
        },
        {
          "duration": 0.272727500000002,
          "durationTicks": 480,
          "midi": 46,
          "name": "A#2",
          "ticks": 186240,
          "time": 105.81827,
          "velocity": 1
        },
        {
          "duration": 0.272727500000002,
          "durationTicks": 480,
          "midi": 46,
          "name": "A#2",
          "ticks": 186720,
          "time": 106.0909975,
          "velocity": 1
        },
        {
          "duration": 0.272727500000002,
          "durationTicks": 480,
          "midi": 35,
          "name": "B1",
          "ticks": 186720,
          "time": 106.0909975,
          "velocity": 1
        },
        {
          "duration": 0.272727500000002,
          "durationTicks": 480,
          "midi": 70,
          "name": "A#4",
          "ticks": 186720,
          "time": 106.0909975,
          "velocity": 1
        },
        {
          "duration": 0.272727500000002,
          "durationTicks": 480,
          "midi": 46,
          "name": "A#2",
          "ticks": 187200,
          "time": 106.363725,
          "velocity": 1
        },
        {
          "duration": 0.272727500000002,
          "durationTicks": 480,
          "midi": 38,
          "name": "D2",
          "ticks": 187200,
          "time": 106.363725,
          "velocity": 1
        },
        {
          "duration": 0.272727500000002,
          "durationTicks": 480,
          "midi": 69,
          "name": "A4",
          "ticks": 187200,
          "time": 106.363725,
          "velocity": 1
        },
        {
          "duration": 0.272727500000002,
          "durationTicks": 480,
          "midi": 46,
          "name": "A#2",
          "ticks": 187680,
          "time": 106.6364525,
          "velocity": 1
        },
        {
          "duration": 0.272727500000002,
          "durationTicks": 480,
          "midi": 35,
          "name": "B1",
          "ticks": 187680,
          "time": 106.6364525,
          "velocity": 1
        },
        {
          "duration": 0.272727500000002,
          "durationTicks": 480,
          "midi": 70,
          "name": "A#4",
          "ticks": 187680,
          "time": 106.6364525,
          "velocity": 1
        },
        {
          "duration": 0.272727500000002,
          "durationTicks": 480,
          "midi": 46,
          "name": "A#2",
          "ticks": 188160,
          "time": 106.90918,
          "velocity": 1
        },
        {
          "duration": 0.272727500000002,
          "durationTicks": 480,
          "midi": 35,
          "name": "B1",
          "ticks": 188160,
          "time": 106.90918,
          "velocity": 1
        },
        {
          "duration": 0.272727500000002,
          "durationTicks": 480,
          "midi": 70,
          "name": "A#4",
          "ticks": 188160,
          "time": 106.90918,
          "velocity": 1
        },
        {
          "duration": 0.272727500000002,
          "durationTicks": 480,
          "midi": 46,
          "name": "A#2",
          "ticks": 188640,
          "time": 107.18190750000001,
          "velocity": 1
        },
        {
          "duration": 0.272727500000002,
          "durationTicks": 480,
          "midi": 38,
          "name": "D2",
          "ticks": 188880,
          "time": 107.31827125000001,
          "velocity": 1
        },
        {
          "duration": 0.272727500000002,
          "durationTicks": 480,
          "midi": 69,
          "name": "A4",
          "ticks": 188880,
          "time": 107.31827125000001,
          "velocity": 1
        },
        {
          "duration": 0.2727274999999878,
          "durationTicks": 480,
          "midi": 46,
          "name": "A#2",
          "ticks": 189120,
          "time": 107.45463500000001,
          "velocity": 1
        },
        {
          "duration": 0.272727500000002,
          "durationTicks": 480,
          "midi": 46,
          "name": "A#2",
          "ticks": 189600,
          "time": 107.7273625,
          "velocity": 1
        },
        {
          "duration": 0.272727500000002,
          "durationTicks": 480,
          "midi": 35,
          "name": "B1",
          "ticks": 189600,
          "time": 107.7273625,
          "velocity": 1
        },
        {
          "duration": 0.272727500000002,
          "durationTicks": 480,
          "midi": 70,
          "name": "A#4",
          "ticks": 189600,
          "time": 107.7273625,
          "velocity": 1
        },
        {
          "duration": 0.272727500000002,
          "durationTicks": 480,
          "midi": 46,
          "name": "A#2",
          "ticks": 190080,
          "time": 108.00009,
          "velocity": 1
        },
        {
          "duration": 0.272727500000002,
          "durationTicks": 480,
          "midi": 46,
          "name": "A#2",
          "ticks": 190560,
          "time": 108.2728175,
          "velocity": 1
        },
        {
          "duration": 0.272727500000002,
          "durationTicks": 480,
          "midi": 35,
          "name": "B1",
          "ticks": 190560,
          "time": 108.2728175,
          "velocity": 1
        },
        {
          "duration": 0.272727500000002,
          "durationTicks": 480,
          "midi": 70,
          "name": "A#4",
          "ticks": 190560,
          "time": 108.2728175,
          "velocity": 1
        },
        {
          "duration": 0.272727500000002,
          "durationTicks": 480,
          "midi": 46,
          "name": "A#2",
          "ticks": 191040,
          "time": 108.545545,
          "velocity": 1
        },
        {
          "duration": 0.136363750000001,
          "durationTicks": 240,
          "midi": 38,
          "name": "D2",
          "ticks": 191040,
          "time": 108.545545,
          "velocity": 1
        },
        {
          "duration": 0.136363750000001,
          "durationTicks": 240,
          "midi": 69,
          "name": "A4",
          "ticks": 191040,
          "time": 108.545545,
          "velocity": 1
        },
        {
          "duration": 0.136363750000001,
          "durationTicks": 240,
          "midi": 38,
          "name": "D2",
          "ticks": 191280,
          "time": 108.68190875,
          "velocity": 1
        },
        {
          "duration": 0.136363750000001,
          "durationTicks": 240,
          "midi": 69,
          "name": "A4",
          "ticks": 191280,
          "time": 108.68190875,
          "velocity": 1
        },
        {
          "duration": 0.272727500000002,
          "durationTicks": 480,
          "midi": 46,
          "name": "A#2",
          "ticks": 191520,
          "time": 108.8182725,
          "velocity": 1
        },
        {
          "duration": 0.272727500000002,
          "durationTicks": 480,
          "midi": 35,
          "name": "B1",
          "ticks": 191520,
          "time": 108.8182725,
          "velocity": 1
        },
        {
          "duration": 0.272727500000002,
          "durationTicks": 480,
          "midi": 70,
          "name": "A#4",
          "ticks": 191520,
          "time": 108.8182725,
          "velocity": 1
        },
        {
          "duration": 0.272727500000002,
          "durationTicks": 480,
          "midi": 46,
          "name": "A#2",
          "ticks": 192000,
          "time": 109.09100000000001,
          "velocity": 1
        },
        {
          "duration": 0.272727500000002,
          "durationTicks": 480,
          "midi": 35,
          "name": "B1",
          "ticks": 192000,
          "time": 109.09100000000001,
          "velocity": 1
        },
        {
          "duration": 0.272727500000002,
          "durationTicks": 480,
          "midi": 70,
          "name": "A#4",
          "ticks": 192000,
          "time": 109.09100000000001,
          "velocity": 1
        },
        {
          "duration": 0.5454549999999898,
          "durationTicks": 960,
          "midi": 49,
          "name": "C#3",
          "ticks": 192000,
          "time": 109.09100000000001,
          "velocity": 1
        },
        {
          "duration": 0.2727274999999878,
          "durationTicks": 480,
          "midi": 46,
          "name": "A#2",
          "ticks": 192480,
          "time": 109.36372750000001,
          "velocity": 1
        },
        {
          "duration": 0.2727274999999878,
          "durationTicks": 480,
          "midi": 38,
          "name": "D2",
          "ticks": 192720,
          "time": 109.50009125000001,
          "velocity": 1
        },
        {
          "duration": 0.2727274999999878,
          "durationTicks": 480,
          "midi": 69,
          "name": "A4",
          "ticks": 192720,
          "time": 109.50009125000001,
          "velocity": 1
        },
        {
          "duration": 0.272727500000002,
          "durationTicks": 480,
          "midi": 46,
          "name": "A#2",
          "ticks": 192960,
          "time": 109.636455,
          "velocity": 1
        },
        {
          "duration": 0.272727500000002,
          "durationTicks": 480,
          "midi": 46,
          "name": "A#2",
          "ticks": 193440,
          "time": 109.9091825,
          "velocity": 1
        },
        {
          "duration": 0.272727500000002,
          "durationTicks": 480,
          "midi": 35,
          "name": "B1",
          "ticks": 193440,
          "time": 109.9091825,
          "velocity": 1
        },
        {
          "duration": 0.272727500000002,
          "durationTicks": 480,
          "midi": 70,
          "name": "A#4",
          "ticks": 193440,
          "time": 109.9091825,
          "velocity": 1
        },
        {
          "duration": 0.272727500000002,
          "durationTicks": 480,
          "midi": 46,
          "name": "A#2",
          "ticks": 193920,
          "time": 110.18191,
          "velocity": 1
        },
        {
          "duration": 0.272727500000002,
          "durationTicks": 480,
          "midi": 46,
          "name": "A#2",
          "ticks": 194400,
          "time": 110.4546375,
          "velocity": 1
        },
        {
          "duration": 0.272727500000002,
          "durationTicks": 480,
          "midi": 35,
          "name": "B1",
          "ticks": 194400,
          "time": 110.4546375,
          "velocity": 1
        },
        {
          "duration": 0.272727500000002,
          "durationTicks": 480,
          "midi": 70,
          "name": "A#4",
          "ticks": 194400,
          "time": 110.4546375,
          "velocity": 1
        },
        {
          "duration": 0.272727500000002,
          "durationTicks": 480,
          "midi": 46,
          "name": "A#2",
          "ticks": 194880,
          "time": 110.727365,
          "velocity": 1
        },
        {
          "duration": 0.272727500000002,
          "durationTicks": 480,
          "midi": 38,
          "name": "D2",
          "ticks": 194880,
          "time": 110.727365,
          "velocity": 1
        },
        {
          "duration": 0.136363750000001,
          "durationTicks": 240,
          "midi": 69,
          "name": "A4",
          "ticks": 194880,
          "time": 110.727365,
          "velocity": 1
        },
        {
          "duration": 0.136363750000001,
          "durationTicks": 240,
          "midi": 69,
          "name": "A4",
          "ticks": 195120,
          "time": 110.86372875,
          "velocity": 1
        },
        {
          "duration": 0.272727500000002,
          "durationTicks": 480,
          "midi": 46,
          "name": "A#2",
          "ticks": 195360,
          "time": 111.00009250000001,
          "velocity": 1
        },
        {
          "duration": 0.272727500000002,
          "durationTicks": 480,
          "midi": 35,
          "name": "B1",
          "ticks": 195360,
          "time": 111.00009250000001,
          "velocity": 1
        },
        {
          "duration": 0.272727500000002,
          "durationTicks": 480,
          "midi": 70,
          "name": "A#4",
          "ticks": 195360,
          "time": 111.00009250000001,
          "velocity": 1
        },
        {
          "duration": 0.2727274999999878,
          "durationTicks": 480,
          "midi": 46,
          "name": "A#2",
          "ticks": 195840,
          "time": 111.27282000000001,
          "velocity": 1
        },
        {
          "duration": 0.2727274999999878,
          "durationTicks": 480,
          "midi": 35,
          "name": "B1",
          "ticks": 195840,
          "time": 111.27282000000001,
          "velocity": 1
        },
        {
          "duration": 0.2727274999999878,
          "durationTicks": 480,
          "midi": 70,
          "name": "A#4",
          "ticks": 195840,
          "time": 111.27282000000001,
          "velocity": 1
        },
        {
          "duration": 0.272727500000002,
          "durationTicks": 480,
          "midi": 46,
          "name": "A#2",
          "ticks": 196320,
          "time": 111.5455475,
          "velocity": 1
        },
        {
          "duration": 0.272727500000002,
          "durationTicks": 480,
          "midi": 38,
          "name": "D2",
          "ticks": 196560,
          "time": 111.68191125,
          "velocity": 1
        },
        {
          "duration": 0.272727500000002,
          "durationTicks": 480,
          "midi": 69,
          "name": "A4",
          "ticks": 196560,
          "time": 111.68191125,
          "velocity": 1
        },
        {
          "duration": 0.272727500000002,
          "durationTicks": 480,
          "midi": 46,
          "name": "A#2",
          "ticks": 196800,
          "time": 111.818275,
          "velocity": 1
        },
        {
          "duration": 0.272727500000002,
          "durationTicks": 480,
          "midi": 46,
          "name": "A#2",
          "ticks": 197280,
          "time": 112.0910025,
          "velocity": 1
        },
        {
          "duration": 0.272727500000002,
          "durationTicks": 480,
          "midi": 35,
          "name": "B1",
          "ticks": 197280,
          "time": 112.0910025,
          "velocity": 1
        },
        {
          "duration": 0.272727500000002,
          "durationTicks": 480,
          "midi": 70,
          "name": "A#4",
          "ticks": 197280,
          "time": 112.0910025,
          "velocity": 1
        },
        {
          "duration": 0.272727500000002,
          "durationTicks": 480,
          "midi": 46,
          "name": "A#2",
          "ticks": 197760,
          "time": 112.36373,
          "velocity": 1
        },
        {
          "duration": 0.272727500000002,
          "durationTicks": 480,
          "midi": 35,
          "name": "B1",
          "ticks": 198240,
          "time": 112.6364575,
          "velocity": 1
        },
        {
          "duration": 0.272727500000002,
          "durationTicks": 480,
          "midi": 46,
          "name": "A#2",
          "ticks": 198240,
          "time": 112.6364575,
          "velocity": 1
        },
        {
          "duration": 0.272727500000002,
          "durationTicks": 480,
          "midi": 70,
          "name": "A#4",
          "ticks": 198240,
          "time": 112.6364575,
          "velocity": 1
        },
        {
          "duration": 0.136363750000001,
          "durationTicks": 240,
          "midi": 38,
          "name": "D2",
          "ticks": 198720,
          "time": 112.90918500000001,
          "velocity": 1
        },
        {
          "duration": 0.545455000000004,
          "durationTicks": 960,
          "midi": 49,
          "name": "C#3",
          "ticks": 198720,
          "time": 112.90918500000001,
          "velocity": 1
        },
        {
          "duration": 0.272727500000002,
          "durationTicks": 480,
          "midi": 46,
          "name": "A#2",
          "ticks": 198720,
          "time": 112.90918500000001,
          "velocity": 1
        },
        {
          "duration": 0.136363750000001,
          "durationTicks": 240,
          "midi": 69,
          "name": "A4",
          "ticks": 198720,
          "time": 112.90918500000001,
          "velocity": 1
        },
        {
          "duration": 0.136363750000001,
          "durationTicks": 240,
          "midi": 38,
          "name": "D2",
          "ticks": 198960,
          "time": 113.04554875000001,
          "velocity": 1
        },
        {
          "duration": 0.136363750000001,
          "durationTicks": 240,
          "midi": 69,
          "name": "A4",
          "ticks": 198960,
          "time": 113.04554875000001,
          "velocity": 1
        },
        {
          "duration": 0.272727500000002,
          "durationTicks": 480,
          "midi": 35,
          "name": "B1",
          "ticks": 199200,
          "time": 113.18191250000001,
          "velocity": 1
        },
        {
          "duration": 0.272727500000002,
          "durationTicks": 480,
          "midi": 46,
          "name": "A#2",
          "ticks": 199200,
          "time": 113.18191250000001,
          "velocity": 1
        },
        {
          "duration": 0.272727500000002,
          "durationTicks": 480,
          "midi": 70,
          "name": "A#4",
          "ticks": 199200,
          "time": 113.18191250000001,
          "velocity": 1
        },
        {
          "duration": 0.2727274999999878,
          "durationTicks": 480,
          "midi": 46,
          "name": "A#2",
          "ticks": 199680,
          "time": 113.45464000000001,
          "velocity": 1
        },
        {
          "duration": 0.5454549999999898,
          "durationTicks": 960,
          "midi": 49,
          "name": "C#3",
          "ticks": 199680,
          "time": 113.45464000000001,
          "velocity": 1
        },
        {
          "duration": 0.2727274999999878,
          "durationTicks": 480,
          "midi": 35,
          "name": "B1",
          "ticks": 199680,
          "time": 113.45464000000001,
          "velocity": 1
        },
        {
          "duration": 0.2727274999999878,
          "durationTicks": 480,
          "midi": 70,
          "name": "A#4",
          "ticks": 199680,
          "time": 113.45464000000001,
          "velocity": 1
        },
        {
          "duration": 0.272727500000002,
          "durationTicks": 480,
          "midi": 46,
          "name": "A#2",
          "ticks": 200160,
          "time": 113.7273675,
          "velocity": 1
        },
        {
          "duration": 0.272727500000002,
          "durationTicks": 480,
          "midi": 38,
          "name": "D2",
          "ticks": 200400,
          "time": 113.86373125,
          "velocity": 1
        },
        {
          "duration": 0.272727500000002,
          "durationTicks": 480,
          "midi": 69,
          "name": "A4",
          "ticks": 200400,
          "time": 113.86373125,
          "velocity": 1
        },
        {
          "duration": 0.272727500000002,
          "durationTicks": 480,
          "midi": 46,
          "name": "A#2",
          "ticks": 200640,
          "time": 114.000095,
          "velocity": 1
        },
        {
          "duration": 0.272727500000002,
          "durationTicks": 480,
          "midi": 46,
          "name": "A#2",
          "ticks": 201120,
          "time": 114.2728225,
          "velocity": 1
        },
        {
          "duration": 0.272727500000002,
          "durationTicks": 480,
          "midi": 35,
          "name": "B1",
          "ticks": 201120,
          "time": 114.2728225,
          "velocity": 1
        },
        {
          "duration": 0.272727500000002,
          "durationTicks": 480,
          "midi": 70,
          "name": "A#4",
          "ticks": 201120,
          "time": 114.2728225,
          "velocity": 1
        },
        {
          "duration": 0.272727500000002,
          "durationTicks": 480,
          "midi": 46,
          "name": "A#2",
          "ticks": 201600,
          "time": 114.54555,
          "velocity": 1
        },
        {
          "duration": 0.272727500000002,
          "durationTicks": 480,
          "midi": 46,
          "name": "A#2",
          "ticks": 202080,
          "time": 114.81827750000001,
          "velocity": 1
        },
        {
          "duration": 0.272727500000002,
          "durationTicks": 480,
          "midi": 35,
          "name": "B1",
          "ticks": 202080,
          "time": 114.81827750000001,
          "velocity": 1
        },
        {
          "duration": 0.272727500000002,
          "durationTicks": 480,
          "midi": 70,
          "name": "A#4",
          "ticks": 202080,
          "time": 114.81827750000001,
          "velocity": 1
        },
        {
          "duration": 0.272727500000002,
          "durationTicks": 480,
          "midi": 46,
          "name": "A#2",
          "ticks": 202560,
          "time": 115.09100500000001,
          "velocity": 1
        },
        {
          "duration": 0.272727500000002,
          "durationTicks": 480,
          "midi": 38,
          "name": "D2",
          "ticks": 202560,
          "time": 115.09100500000001,
          "velocity": 1
        },
        {
          "duration": 0.272727500000002,
          "durationTicks": 480,
          "midi": 69,
          "name": "A4",
          "ticks": 202560,
          "time": 115.09100500000001,
          "velocity": 1
        },
        {
          "duration": 0.2727274999999878,
          "durationTicks": 480,
          "midi": 46,
          "name": "A#2",
          "ticks": 203040,
          "time": 115.36373250000001,
          "velocity": 1
        },
        {
          "duration": 0.2727274999999878,
          "durationTicks": 480,
          "midi": 35,
          "name": "B1",
          "ticks": 203040,
          "time": 115.36373250000001,
          "velocity": 1
        },
        {
          "duration": 0.2727274999999878,
          "durationTicks": 480,
          "midi": 70,
          "name": "A#4",
          "ticks": 203040,
          "time": 115.36373250000001,
          "velocity": 1
        },
        {
          "duration": 0.272727500000002,
          "durationTicks": 480,
          "midi": 46,
          "name": "A#2",
          "ticks": 203520,
          "time": 115.63646,
          "velocity": 1
        },
        {
          "duration": 0.272727500000002,
          "durationTicks": 480,
          "midi": 35,
          "name": "B1",
          "ticks": 203520,
          "time": 115.63646,
          "velocity": 1
        },
        {
          "duration": 0.272727500000002,
          "durationTicks": 480,
          "midi": 70,
          "name": "A#4",
          "ticks": 203520,
          "time": 115.63646,
          "velocity": 1
        },
        {
          "duration": 0.272727500000002,
          "durationTicks": 480,
          "midi": 46,
          "name": "A#2",
          "ticks": 204000,
          "time": 115.9091875,
          "velocity": 1
        },
        {
          "duration": 0.272727500000002,
          "durationTicks": 480,
          "midi": 38,
          "name": "D2",
          "ticks": 204240,
          "time": 116.04555125,
          "velocity": 1
        },
        {
          "duration": 0.272727500000002,
          "durationTicks": 480,
          "midi": 69,
          "name": "A4",
          "ticks": 204240,
          "time": 116.04555125,
          "velocity": 1
        },
        {
          "duration": 0.272727500000002,
          "durationTicks": 480,
          "midi": 46,
          "name": "A#2",
          "ticks": 204480,
          "time": 116.181915,
          "velocity": 1
        },
        {
          "duration": 0.272727500000002,
          "durationTicks": 480,
          "midi": 46,
          "name": "A#2",
          "ticks": 204960,
          "time": 116.4546425,
          "velocity": 1
        },
        {
          "duration": 0.272727500000002,
          "durationTicks": 480,
          "midi": 35,
          "name": "B1",
          "ticks": 204960,
          "time": 116.4546425,
          "velocity": 1
        },
        {
          "duration": 0.272727500000002,
          "durationTicks": 480,
          "midi": 70,
          "name": "A#4",
          "ticks": 204960,
          "time": 116.4546425,
          "velocity": 1
        },
        {
          "duration": 0.272727500000002,
          "durationTicks": 480,
          "midi": 46,
          "name": "A#2",
          "ticks": 205440,
          "time": 116.72737000000001,
          "velocity": 1
        },
        {
          "duration": 0.272727500000002,
          "durationTicks": 480,
          "midi": 46,
          "name": "A#2",
          "ticks": 205920,
          "time": 117.00009750000001,
          "velocity": 1
        },
        {
          "duration": 0.272727500000002,
          "durationTicks": 480,
          "midi": 35,
          "name": "B1",
          "ticks": 205920,
          "time": 117.00009750000001,
          "velocity": 1
        },
        {
          "duration": 0.272727500000002,
          "durationTicks": 480,
          "midi": 70,
          "name": "A#4",
          "ticks": 205920,
          "time": 117.00009750000001,
          "velocity": 1
        },
        {
          "duration": 0.2727274999999878,
          "durationTicks": 480,
          "midi": 46,
          "name": "A#2",
          "ticks": 206400,
          "time": 117.27282500000001,
          "velocity": 1
        },
        {
          "duration": 0.1363637499999868,
          "durationTicks": 240,
          "midi": 38,
          "name": "D2",
          "ticks": 206400,
          "time": 117.27282500000001,
          "velocity": 1
        },
        {
          "duration": 0.1363637499999868,
          "durationTicks": 240,
          "midi": 69,
          "name": "A4",
          "ticks": 206400,
          "time": 117.27282500000001,
          "velocity": 1
        },
        {
          "duration": 0.136363750000001,
          "durationTicks": 240,
          "midi": 38,
          "name": "D2",
          "ticks": 206640,
          "time": 117.40918875,
          "velocity": 1
        },
        {
          "duration": 0.136363750000001,
          "durationTicks": 240,
          "midi": 69,
          "name": "A4",
          "ticks": 206640,
          "time": 117.40918875,
          "velocity": 1
        },
        {
          "duration": 0.272727500000002,
          "durationTicks": 480,
          "midi": 46,
          "name": "A#2",
          "ticks": 206880,
          "time": 117.5455525,
          "velocity": 1
        },
        {
          "duration": 0.272727500000002,
          "durationTicks": 480,
          "midi": 35,
          "name": "B1",
          "ticks": 206880,
          "time": 117.5455525,
          "velocity": 1
        },
        {
          "duration": 0.272727500000002,
          "durationTicks": 480,
          "midi": 70,
          "name": "A#4",
          "ticks": 206880,
          "time": 117.5455525,
          "velocity": 1
        },
        {
          "duration": 0.272727500000002,
          "durationTicks": 480,
          "midi": 46,
          "name": "A#2",
          "ticks": 207360,
          "time": 117.81828,
          "velocity": 1
        },
        {
          "duration": 0.272727500000002,
          "durationTicks": 480,
          "midi": 35,
          "name": "B1",
          "ticks": 207360,
          "time": 117.81828,
          "velocity": 1
        },
        {
          "duration": 0.272727500000002,
          "durationTicks": 480,
          "midi": 70,
          "name": "A#4",
          "ticks": 207360,
          "time": 117.81828,
          "velocity": 1
        },
        {
          "duration": 0.545455000000004,
          "durationTicks": 960,
          "midi": 49,
          "name": "C#3",
          "ticks": 207360,
          "time": 117.81828,
          "velocity": 1
        },
        {
          "duration": 0.272727500000002,
          "durationTicks": 480,
          "midi": 46,
          "name": "A#2",
          "ticks": 207840,
          "time": 118.0910075,
          "velocity": 1
        },
        {
          "duration": 0.272727500000002,
          "durationTicks": 480,
          "midi": 38,
          "name": "D2",
          "ticks": 208080,
          "time": 118.22737125,
          "velocity": 1
        },
        {
          "duration": 0.272727500000002,
          "durationTicks": 480,
          "midi": 69,
          "name": "A4",
          "ticks": 208080,
          "time": 118.22737125,
          "velocity": 1
        },
        {
          "duration": 0.272727500000002,
          "durationTicks": 480,
          "midi": 46,
          "name": "A#2",
          "ticks": 208320,
          "time": 118.363735,
          "velocity": 1
        },
        {
          "duration": 0.272727500000002,
          "durationTicks": 480,
          "midi": 46,
          "name": "A#2",
          "ticks": 208800,
          "time": 118.63646250000001,
          "velocity": 1
        },
        {
          "duration": 0.272727500000002,
          "durationTicks": 480,
          "midi": 35,
          "name": "B1",
          "ticks": 208800,
          "time": 118.63646250000001,
          "velocity": 1
        },
        {
          "duration": 0.272727500000002,
          "durationTicks": 480,
          "midi": 70,
          "name": "A#4",
          "ticks": 208800,
          "time": 118.63646250000001,
          "velocity": 1
        },
        {
          "duration": 0.272727500000002,
          "durationTicks": 480,
          "midi": 46,
          "name": "A#2",
          "ticks": 209280,
          "time": 118.90919000000001,
          "velocity": 1
        },
        {
          "duration": 0.2727274999999878,
          "durationTicks": 480,
          "midi": 46,
          "name": "A#2",
          "ticks": 209760,
          "time": 119.18191750000001,
          "velocity": 1
        },
        {
          "duration": 0.2727274999999878,
          "durationTicks": 480,
          "midi": 35,
          "name": "B1",
          "ticks": 209760,
          "time": 119.18191750000001,
          "velocity": 1
        },
        {
          "duration": 0.2727274999999878,
          "durationTicks": 480,
          "midi": 70,
          "name": "A#4",
          "ticks": 209760,
          "time": 119.18191750000001,
          "velocity": 1
        },
        {
          "duration": 0.272727500000002,
          "durationTicks": 480,
          "midi": 46,
          "name": "A#2",
          "ticks": 210240,
          "time": 119.454645,
          "velocity": 1
        },
        {
          "duration": 0.272727500000002,
          "durationTicks": 480,
          "midi": 38,
          "name": "D2",
          "ticks": 210240,
          "time": 119.454645,
          "velocity": 1
        },
        {
          "duration": 0.136363750000001,
          "durationTicks": 240,
          "midi": 69,
          "name": "A4",
          "ticks": 210240,
          "time": 119.454645,
          "velocity": 1
        },
        {
          "duration": 0.136363750000001,
          "durationTicks": 240,
          "midi": 69,
          "name": "A4",
          "ticks": 210480,
          "time": 119.59100875,
          "velocity": 1
        },
        {
          "duration": 0.272727500000002,
          "durationTicks": 480,
          "midi": 46,
          "name": "A#2",
          "ticks": 210720,
          "time": 119.7273725,
          "velocity": 1
        },
        {
          "duration": 0.272727500000002,
          "durationTicks": 480,
          "midi": 35,
          "name": "B1",
          "ticks": 210720,
          "time": 119.7273725,
          "velocity": 1
        },
        {
          "duration": 0.272727500000002,
          "durationTicks": 480,
          "midi": 70,
          "name": "A#4",
          "ticks": 210720,
          "time": 119.7273725,
          "velocity": 1
        },
        {
          "duration": 0.272727500000002,
          "durationTicks": 480,
          "midi": 46,
          "name": "A#2",
          "ticks": 211200,
          "time": 120.0001,
          "velocity": 1
        },
        {
          "duration": 0.272727500000002,
          "durationTicks": 480,
          "midi": 35,
          "name": "B1",
          "ticks": 211200,
          "time": 120.0001,
          "velocity": 1
        },
        {
          "duration": 0.272727500000002,
          "durationTicks": 480,
          "midi": 70,
          "name": "A#4",
          "ticks": 211200,
          "time": 120.0001,
          "velocity": 1
        },
        {
          "duration": 0.272727500000002,
          "durationTicks": 480,
          "midi": 46,
          "name": "A#2",
          "ticks": 211680,
          "time": 120.2728275,
          "velocity": 1
        },
        {
          "duration": 0.272727500000002,
          "durationTicks": 480,
          "midi": 38,
          "name": "D2",
          "ticks": 211920,
          "time": 120.40919125,
          "velocity": 1
        },
        {
          "duration": 0.272727500000002,
          "durationTicks": 480,
          "midi": 69,
          "name": "A4",
          "ticks": 211920,
          "time": 120.40919125,
          "velocity": 1
        },
        {
          "duration": 0.272727500000002,
          "durationTicks": 480,
          "midi": 46,
          "name": "A#2",
          "ticks": 212160,
          "time": 120.54555500000001,
          "velocity": 1
        },
        {
          "duration": 0.272727500000002,
          "durationTicks": 480,
          "midi": 46,
          "name": "A#2",
          "ticks": 212640,
          "time": 120.81828250000001,
          "velocity": 1
        },
        {
          "duration": 0.272727500000002,
          "durationTicks": 480,
          "midi": 35,
          "name": "B1",
          "ticks": 212640,
          "time": 120.81828250000001,
          "velocity": 1
        },
        {
          "duration": 0.272727500000002,
          "durationTicks": 480,
          "midi": 70,
          "name": "A#4",
          "ticks": 212640,
          "time": 120.81828250000001,
          "velocity": 1
        },
        {
          "duration": 0.2727274999999878,
          "durationTicks": 480,
          "midi": 46,
          "name": "A#2",
          "ticks": 213120,
          "time": 121.09101000000001,
          "velocity": 1
        },
        {
          "duration": 0.272727500000002,
          "durationTicks": 480,
          "midi": 35,
          "name": "B1",
          "ticks": 213600,
          "time": 121.3637375,
          "velocity": 1
        },
        {
          "duration": 0.272727500000002,
          "durationTicks": 480,
          "midi": 46,
          "name": "A#2",
          "ticks": 213600,
          "time": 121.3637375,
          "velocity": 1
        },
        {
          "duration": 0.272727500000002,
          "durationTicks": 480,
          "midi": 70,
          "name": "A#4",
          "ticks": 213600,
          "time": 121.3637375,
          "velocity": 1
        },
        {
          "duration": 0.136363750000001,
          "durationTicks": 240,
          "midi": 38,
          "name": "D2",
          "ticks": 214080,
          "time": 121.636465,
          "velocity": 1
        },
        {
          "duration": 0.545455000000004,
          "durationTicks": 960,
          "midi": 49,
          "name": "C#3",
          "ticks": 214080,
          "time": 121.636465,
          "velocity": 1
        },
        {
          "duration": 0.272727500000002,
          "durationTicks": 480,
          "midi": 46,
          "name": "A#2",
          "ticks": 214080,
          "time": 121.636465,
          "velocity": 1
        },
        {
          "duration": 0.136363750000001,
          "durationTicks": 240,
          "midi": 69,
          "name": "A4",
          "ticks": 214080,
          "time": 121.636465,
          "velocity": 1
        },
        {
          "duration": 0.136363750000001,
          "durationTicks": 240,
          "midi": 38,
          "name": "D2",
          "ticks": 214320,
          "time": 121.77282875,
          "velocity": 1
        },
        {
          "duration": 0.136363750000001,
          "durationTicks": 240,
          "midi": 69,
          "name": "A4",
          "ticks": 214320,
          "time": 121.77282875,
          "velocity": 1
        },
        {
          "duration": 0.272727500000002,
          "durationTicks": 480,
          "midi": 46,
          "name": "A#2",
          "ticks": 214560,
          "time": 121.9091925,
          "velocity": 1
        },
        {
          "duration": 0.136363750000001,
          "durationTicks": 240,
          "midi": 38,
          "name": "D2",
          "ticks": 214560,
          "time": 121.9091925,
          "velocity": 1
        },
        {
          "duration": 0.136363750000001,
          "durationTicks": 240,
          "midi": 69,
          "name": "A4",
          "ticks": 214560,
          "time": 121.9091925,
          "velocity": 1
        },
        {
          "duration": 0.136363750000001,
          "durationTicks": 240,
          "midi": 38,
          "name": "D2",
          "ticks": 214800,
          "time": 122.04555625,
          "velocity": 1
        },
        {
          "duration": 0.136363750000001,
          "durationTicks": 240,
          "midi": 69,
          "name": "A4",
          "ticks": 214800,
          "time": 122.04555625,
          "velocity": 1
        },
        {
          "duration": 0.272727500000002,
          "durationTicks": 480,
          "midi": 46,
          "name": "A#2",
          "ticks": 215040,
          "time": 122.18192,
          "velocity": 1
        },
        {
          "duration": 0.272727500000002,
          "durationTicks": 480,
          "midi": 35,
          "name": "B1",
          "ticks": 215040,
          "time": 122.18192,
          "velocity": 1
        },
        {
          "duration": 0.272727500000002,
          "durationTicks": 480,
          "midi": 70,
          "name": "A#4",
          "ticks": 215040,
          "time": 122.18192,
          "velocity": 1
        },
        {
          "duration": 0.545455000000004,
          "durationTicks": 960,
          "midi": 49,
          "name": "C#3",
          "ticks": 215040,
          "time": 122.18192,
          "velocity": 1
        },
        {
          "duration": 0.272727500000002,
          "durationTicks": 480,
          "midi": 46,
          "name": "A#2",
          "ticks": 215520,
          "time": 122.45464750000001,
          "velocity": 1
        },
        {
          "duration": 0.272727500000002,
          "durationTicks": 480,
          "midi": 69,
          "name": "A4",
          "ticks": 215760,
          "time": 122.59101125000001,
          "velocity": 1
        },
        {
          "duration": 0.136363750000001,
          "durationTicks": 240,
          "midi": 35,
          "name": "B1",
          "ticks": 215760,
          "time": 122.59101125000001,
          "velocity": 1
        },
        {
          "duration": 0.272727500000002,
          "durationTicks": 480,
          "midi": 46,
          "name": "A#2",
          "ticks": 216000,
          "time": 122.72737500000001,
          "velocity": 1
        },
        {
          "duration": 0.272727500000002,
          "durationTicks": 480,
          "midi": 38,
          "name": "D2",
          "ticks": 216000,
          "time": 122.72737500000001,
          "velocity": 1
        },
        {
          "duration": 0.2727274999999878,
          "durationTicks": 480,
          "midi": 46,
          "name": "A#2",
          "ticks": 216480,
          "time": 123.00010250000001,
          "velocity": 1
        },
        {
          "duration": 0.2727274999999878,
          "durationTicks": 480,
          "midi": 35,
          "name": "B1",
          "ticks": 216480,
          "time": 123.00010250000001,
          "velocity": 1
        },
        {
          "duration": 0.2727274999999878,
          "durationTicks": 480,
          "midi": 70,
          "name": "A#4",
          "ticks": 216480,
          "time": 123.00010250000001,
          "velocity": 1
        },
        {
          "duration": 0.272727500000002,
          "durationTicks": 480,
          "midi": 46,
          "name": "A#2",
          "ticks": 216960,
          "time": 123.27283,
          "velocity": 1
        },
        {
          "duration": 0.272727500000002,
          "durationTicks": 480,
          "midi": 46,
          "name": "A#2",
          "ticks": 217440,
          "time": 123.5455575,
          "velocity": 1
        },
        {
          "duration": 0.272727500000002,
          "durationTicks": 480,
          "midi": 35,
          "name": "B1",
          "ticks": 217440,
          "time": 123.5455575,
          "velocity": 1
        },
        {
          "duration": 0.272727500000002,
          "durationTicks": 480,
          "midi": 70,
          "name": "A#4",
          "ticks": 217440,
          "time": 123.5455575,
          "velocity": 1
        },
        {
          "duration": 0.272727500000002,
          "durationTicks": 480,
          "midi": 46,
          "name": "A#2",
          "ticks": 217920,
          "time": 123.818285,
          "velocity": 1
        },
        {
          "duration": 0.136363750000001,
          "durationTicks": 240,
          "midi": 69,
          "name": "A4",
          "ticks": 217920,
          "time": 123.818285,
          "velocity": 1
        },
        {
          "duration": 0.545455000000004,
          "durationTicks": 960,
          "midi": 38,
          "name": "D2",
          "ticks": 217920,
          "time": 123.818285,
          "velocity": 1
        },
        {
          "duration": 0.136363750000001,
          "durationTicks": 240,
          "midi": 69,
          "name": "A4",
          "ticks": 218160,
          "time": 123.95464875,
          "velocity": 1
        },
        {
          "duration": 0.272727500000002,
          "durationTicks": 480,
          "midi": 46,
          "name": "A#2",
          "ticks": 218400,
          "time": 124.0910125,
          "velocity": 1
        },
        {
          "duration": 0.272727500000002,
          "durationTicks": 480,
          "midi": 70,
          "name": "A#4",
          "ticks": 218400,
          "time": 124.0910125,
          "velocity": 1
        },
        {
          "duration": 0.272727500000002,
          "durationTicks": 480,
          "midi": 46,
          "name": "A#2",
          "ticks": 218880,
          "time": 124.36374,
          "velocity": 1
        },
        {
          "duration": 0.272727500000002,
          "durationTicks": 480,
          "midi": 35,
          "name": "B1",
          "ticks": 218880,
          "time": 124.36374,
          "velocity": 1
        },
        {
          "duration": 0.272727500000002,
          "durationTicks": 480,
          "midi": 70,
          "name": "A#4",
          "ticks": 218880,
          "time": 124.36374,
          "velocity": 1
        },
        {
          "duration": 0.272727500000002,
          "durationTicks": 480,
          "midi": 46,
          "name": "A#2",
          "ticks": 219360,
          "time": 124.63646750000001,
          "velocity": 1
        },
        {
          "duration": 0.272727500000002,
          "durationTicks": 480,
          "midi": 69,
          "name": "A4",
          "ticks": 219600,
          "time": 124.77283125000001,
          "velocity": 1
        },
        {
          "duration": 0.136363750000001,
          "durationTicks": 240,
          "midi": 35,
          "name": "B1",
          "ticks": 219600,
          "time": 124.77283125000001,
          "velocity": 1
        },
        {
          "duration": 0.2727274999999878,
          "durationTicks": 480,
          "midi": 46,
          "name": "A#2",
          "ticks": 219840,
          "time": 124.90919500000001,
          "velocity": 1
        },
        {
          "duration": 0.2727274999999878,
          "durationTicks": 480,
          "midi": 38,
          "name": "D2",
          "ticks": 219840,
          "time": 124.90919500000001,
          "velocity": 1
        },
        {
          "duration": 0.272727500000002,
          "durationTicks": 480,
          "midi": 46,
          "name": "A#2",
          "ticks": 220320,
          "time": 125.1819225,
          "velocity": 1
        },
        {
          "duration": 0.272727500000002,
          "durationTicks": 480,
          "midi": 35,
          "name": "B1",
          "ticks": 220320,
          "time": 125.1819225,
          "velocity": 1
        },
        {
          "duration": 0.272727500000002,
          "durationTicks": 480,
          "midi": 70,
          "name": "A#4",
          "ticks": 220320,
          "time": 125.1819225,
          "velocity": 1
        },
        {
          "duration": 0.272727500000002,
          "durationTicks": 480,
          "midi": 46,
          "name": "A#2",
          "ticks": 220800,
          "time": 125.45465,
          "velocity": 1
        },
        {
          "duration": 0.272727500000002,
          "durationTicks": 480,
          "midi": 46,
          "name": "A#2",
          "ticks": 221280,
          "time": 125.7273775,
          "velocity": 1
        },
        {
          "duration": 0.272727500000002,
          "durationTicks": 480,
          "midi": 35,
          "name": "B1",
          "ticks": 221280,
          "time": 125.7273775,
          "velocity": 1
        },
        {
          "duration": 0.272727500000002,
          "durationTicks": 480,
          "midi": 70,
          "name": "A#4",
          "ticks": 221280,
          "time": 125.7273775,
          "velocity": 1
        },
        {
          "duration": 0.272727500000002,
          "durationTicks": 480,
          "midi": 46,
          "name": "A#2",
          "ticks": 221760,
          "time": 126.000105,
          "velocity": 1
        },
        {
          "duration": 0.136363750000001,
          "durationTicks": 240,
          "midi": 69,
          "name": "A4",
          "ticks": 221760,
          "time": 126.000105,
          "velocity": 1
        },
        {
          "duration": 0.545455000000004,
          "durationTicks": 960,
          "midi": 38,
          "name": "D2",
          "ticks": 221760,
          "time": 126.000105,
          "velocity": 1
        },
        {
          "duration": 0.136363750000001,
          "durationTicks": 240,
          "midi": 69,
          "name": "A4",
          "ticks": 222000,
          "time": 126.13646875,
          "velocity": 1
        },
        {
          "duration": 0.272727500000002,
          "durationTicks": 480,
          "midi": 46,
          "name": "A#2",
          "ticks": 222240,
          "time": 126.2728325,
          "velocity": 1
        },
        {
          "duration": 0.272727500000002,
          "durationTicks": 480,
          "midi": 70,
          "name": "A#4",
          "ticks": 222240,
          "time": 126.2728325,
          "velocity": 1
        },
        {
          "duration": 0.272727500000002,
          "durationTicks": 480,
          "midi": 46,
          "name": "A#2",
          "ticks": 222720,
          "time": 126.54556000000001,
          "velocity": 1
        },
        {
          "duration": 0.272727500000002,
          "durationTicks": 480,
          "midi": 35,
          "name": "B1",
          "ticks": 222720,
          "time": 126.54556000000001,
          "velocity": 1
        },
        {
          "duration": 0.272727500000002,
          "durationTicks": 480,
          "midi": 70,
          "name": "A#4",
          "ticks": 222720,
          "time": 126.54556000000001,
          "velocity": 1
        },
        {
          "duration": 0.2727274999999878,
          "durationTicks": 480,
          "midi": 46,
          "name": "A#2",
          "ticks": 223200,
          "time": 126.81828750000001,
          "velocity": 1
        },
        {
          "duration": 0.2727274999999878,
          "durationTicks": 480,
          "midi": 69,
          "name": "A4",
          "ticks": 223440,
          "time": 126.95465125000001,
          "velocity": 1
        },
        {
          "duration": 0.1363637499999868,
          "durationTicks": 240,
          "midi": 35,
          "name": "B1",
          "ticks": 223440,
          "time": 126.95465125000001,
          "velocity": 1
        },
        {
          "duration": 0.272727500000002,
          "durationTicks": 480,
          "midi": 46,
          "name": "A#2",
          "ticks": 223680,
          "time": 127.091015,
          "velocity": 1
        },
        {
          "duration": 0.272727500000002,
          "durationTicks": 480,
          "midi": 38,
          "name": "D2",
          "ticks": 223680,
          "time": 127.091015,
          "velocity": 1
        },
        {
          "duration": 0.272727500000002,
          "durationTicks": 480,
          "midi": 46,
          "name": "A#2",
          "ticks": 224160,
          "time": 127.3637425,
          "velocity": 1
        },
        {
          "duration": 0.272727500000002,
          "durationTicks": 480,
          "midi": 35,
          "name": "B1",
          "ticks": 224160,
          "time": 127.3637425,
          "velocity": 1
        },
        {
          "duration": 0.272727500000002,
          "durationTicks": 480,
          "midi": 70,
          "name": "A#4",
          "ticks": 224160,
          "time": 127.3637425,
          "velocity": 1
        },
        {
          "duration": 0.272727500000002,
          "durationTicks": 480,
          "midi": 46,
          "name": "A#2",
          "ticks": 224640,
          "time": 127.63647,
          "velocity": 1
        },
        {
          "duration": 0.272727500000002,
          "durationTicks": 480,
          "midi": 46,
          "name": "A#2",
          "ticks": 225120,
          "time": 127.9091975,
          "velocity": 1
        },
        {
          "duration": 0.272727500000002,
          "durationTicks": 480,
          "midi": 35,
          "name": "B1",
          "ticks": 225120,
          "time": 127.9091975,
          "velocity": 1
        },
        {
          "duration": 0.272727500000002,
          "durationTicks": 480,
          "midi": 70,
          "name": "A#4",
          "ticks": 225120,
          "time": 127.9091975,
          "velocity": 1
        },
        {
          "duration": 0.272727500000002,
          "durationTicks": 480,
          "midi": 46,
          "name": "A#2",
          "ticks": 225600,
          "time": 128.181925,
          "velocity": 1
        },
        {
          "duration": 0.1363637499999868,
          "durationTicks": 240,
          "midi": 69,
          "name": "A4",
          "ticks": 225600,
          "time": 128.181925,
          "velocity": 1
        },
        {
          "duration": 0.545455000000004,
          "durationTicks": 960,
          "midi": 38,
          "name": "D2",
          "ticks": 225600,
          "time": 128.181925,
          "velocity": 1
        },
        {
          "duration": 0.13636375000001522,
          "durationTicks": 240,
          "midi": 69,
          "name": "A4",
          "ticks": 225840,
          "time": 128.31828875,
          "velocity": 1
        },
        {
          "duration": 0.272727500000002,
          "durationTicks": 480,
          "midi": 46,
          "name": "A#2",
          "ticks": 226080,
          "time": 128.4546525,
          "velocity": 1
        },
        {
          "duration": 0.272727500000002,
          "durationTicks": 480,
          "midi": 70,
          "name": "A#4",
          "ticks": 226080,
          "time": 128.4546525,
          "velocity": 1
        },
        {
          "duration": 0.272727500000002,
          "durationTicks": 480,
          "midi": 46,
          "name": "A#2",
          "ticks": 226560,
          "time": 128.72738,
          "velocity": 1
        },
        {
          "duration": 0.272727500000002,
          "durationTicks": 480,
          "midi": 35,
          "name": "B1",
          "ticks": 226560,
          "time": 128.72738,
          "velocity": 1
        },
        {
          "duration": 0.272727500000002,
          "durationTicks": 480,
          "midi": 70,
          "name": "A#4",
          "ticks": 226560,
          "time": 128.72738,
          "velocity": 1
        },
        {
          "duration": 0.272727500000002,
          "durationTicks": 480,
          "midi": 46,
          "name": "A#2",
          "ticks": 227040,
          "time": 129.0001075,
          "velocity": 1
        },
        {
          "duration": 0.272727500000002,
          "durationTicks": 480,
          "midi": 69,
          "name": "A4",
          "ticks": 227280,
          "time": 129.13647125,
          "velocity": 1
        },
        {
          "duration": 0.13636375000001522,
          "durationTicks": 240,
          "midi": 35,
          "name": "B1",
          "ticks": 227280,
          "time": 129.13647125,
          "velocity": 1
        },
        {
          "duration": 0.272727500000002,
          "durationTicks": 480,
          "midi": 46,
          "name": "A#2",
          "ticks": 227520,
          "time": 129.27283500000001,
          "velocity": 1
        },
        {
          "duration": 0.272727500000002,
          "durationTicks": 480,
          "midi": 38,
          "name": "D2",
          "ticks": 227520,
          "time": 129.27283500000001,
          "velocity": 1
        },
        {
          "duration": 0.272727500000002,
          "durationTicks": 480,
          "midi": 46,
          "name": "A#2",
          "ticks": 228000,
          "time": 129.54556250000002,
          "velocity": 1
        },
        {
          "duration": 0.272727500000002,
          "durationTicks": 480,
          "midi": 35,
          "name": "B1",
          "ticks": 228000,
          "time": 129.54556250000002,
          "velocity": 1
        },
        {
          "duration": 0.272727500000002,
          "durationTicks": 480,
          "midi": 70,
          "name": "A#4",
          "ticks": 228000,
          "time": 129.54556250000002,
          "velocity": 1
        },
        {
          "duration": 0.2727274999999736,
          "durationTicks": 480,
          "midi": 46,
          "name": "A#2",
          "ticks": 228480,
          "time": 129.81829000000002,
          "velocity": 1
        },
        {
          "duration": 0.272727500000002,
          "durationTicks": 480,
          "midi": 46,
          "name": "A#2",
          "ticks": 228960,
          "time": 130.0910175,
          "velocity": 1
        },
        {
          "duration": 0.272727500000002,
          "durationTicks": 480,
          "midi": 35,
          "name": "B1",
          "ticks": 228960,
          "time": 130.0910175,
          "velocity": 1
        },
        {
          "duration": 0.272727500000002,
          "durationTicks": 480,
          "midi": 70,
          "name": "A#4",
          "ticks": 228960,
          "time": 130.0910175,
          "velocity": 1
        },
        {
          "duration": 0.272727500000002,
          "durationTicks": 480,
          "midi": 46,
          "name": "A#2",
          "ticks": 229440,
          "time": 130.363745,
          "velocity": 1
        },
        {
          "duration": 0.13636375000001522,
          "durationTicks": 240,
          "midi": 69,
          "name": "A4",
          "ticks": 229440,
          "time": 130.363745,
          "velocity": 1
        },
        {
          "duration": 0.545455000000004,
          "durationTicks": 960,
          "midi": 38,
          "name": "D2",
          "ticks": 229440,
          "time": 130.363745,
          "velocity": 1
        },
        {
          "duration": 0.1363637499999868,
          "durationTicks": 240,
          "midi": 69,
          "name": "A4",
          "ticks": 229680,
          "time": 130.50010875,
          "velocity": 1
        },
        {
          "duration": 0.272727500000002,
          "durationTicks": 480,
          "midi": 46,
          "name": "A#2",
          "ticks": 229920,
          "time": 130.6364725,
          "velocity": 1
        },
        {
          "duration": 0.272727500000002,
          "durationTicks": 480,
          "midi": 70,
          "name": "A#4",
          "ticks": 229920,
          "time": 130.6364725,
          "velocity": 1
        },
        {
          "duration": 0.272727500000002,
          "durationTicks": 480,
          "midi": 46,
          "name": "A#2",
          "ticks": 230400,
          "time": 130.9092,
          "velocity": 1
        },
        {
          "duration": 0.272727500000002,
          "durationTicks": 480,
          "midi": 35,
          "name": "B1",
          "ticks": 230400,
          "time": 130.9092,
          "velocity": 1
        },
        {
          "duration": 0.272727500000002,
          "durationTicks": 480,
          "midi": 70,
          "name": "A#4",
          "ticks": 230400,
          "time": 130.9092,
          "velocity": 1
        },
        {
          "duration": 0.545455000000004,
          "durationTicks": 960,
          "midi": 49,
          "name": "C#3",
          "ticks": 230400,
          "time": 130.9092,
          "velocity": 1
        },
        {
          "duration": 0.272727500000002,
          "durationTicks": 480,
          "midi": 46,
          "name": "A#2",
          "ticks": 230880,
          "time": 131.1819275,
          "velocity": 1
        },
        {
          "duration": 0.272727500000002,
          "durationTicks": 480,
          "midi": 69,
          "name": "A4",
          "ticks": 231120,
          "time": 131.31829125000002,
          "velocity": 1
        },
        {
          "duration": 0.1363637499999868,
          "durationTicks": 240,
          "midi": 35,
          "name": "B1",
          "ticks": 231120,
          "time": 131.31829125000002,
          "velocity": 1
        },
        {
          "duration": 0.272727500000002,
          "durationTicks": 480,
          "midi": 46,
          "name": "A#2",
          "ticks": 231360,
          "time": 131.454655,
          "velocity": 1
        },
        {
          "duration": 0.272727500000002,
          "durationTicks": 480,
          "midi": 38,
          "name": "D2",
          "ticks": 231360,
          "time": 131.454655,
          "velocity": 1
        },
        {
          "duration": 0.272727500000002,
          "durationTicks": 480,
          "midi": 46,
          "name": "A#2",
          "ticks": 231840,
          "time": 131.7273825,
          "velocity": 1
        },
        {
          "duration": 0.272727500000002,
          "durationTicks": 480,
          "midi": 35,
          "name": "B1",
          "ticks": 231840,
          "time": 131.7273825,
          "velocity": 1
        },
        {
          "duration": 0.272727500000002,
          "durationTicks": 480,
          "midi": 70,
          "name": "A#4",
          "ticks": 231840,
          "time": 131.7273825,
          "velocity": 1
        },
        {
          "duration": 0.272727500000002,
          "durationTicks": 480,
          "midi": 46,
          "name": "A#2",
          "ticks": 232320,
          "time": 132.00011,
          "velocity": 1
        },
        {
          "duration": 0.272727500000002,
          "durationTicks": 480,
          "midi": 46,
          "name": "A#2",
          "ticks": 232800,
          "time": 132.2728375,
          "velocity": 1
        },
        {
          "duration": 0.272727500000002,
          "durationTicks": 480,
          "midi": 35,
          "name": "B1",
          "ticks": 232800,
          "time": 132.2728375,
          "velocity": 1
        },
        {
          "duration": 0.272727500000002,
          "durationTicks": 480,
          "midi": 70,
          "name": "A#4",
          "ticks": 232800,
          "time": 132.2728375,
          "velocity": 1
        },
        {
          "duration": 0.272727500000002,
          "durationTicks": 480,
          "midi": 46,
          "name": "A#2",
          "ticks": 233280,
          "time": 132.545565,
          "velocity": 1
        },
        {
          "duration": 0.1363637499999868,
          "durationTicks": 240,
          "midi": 69,
          "name": "A4",
          "ticks": 233280,
          "time": 132.545565,
          "velocity": 1
        },
        {
          "duration": 0.545455000000004,
          "durationTicks": 960,
          "midi": 38,
          "name": "D2",
          "ticks": 233280,
          "time": 132.545565,
          "velocity": 1
        },
        {
          "duration": 0.13636375000001522,
          "durationTicks": 240,
          "midi": 69,
          "name": "A4",
          "ticks": 233520,
          "time": 132.68192875,
          "velocity": 1
        },
        {
          "duration": 0.272727500000002,
          "durationTicks": 480,
          "midi": 46,
          "name": "A#2",
          "ticks": 233760,
          "time": 132.8182925,
          "velocity": 1
        },
        {
          "duration": 0.272727500000002,
          "durationTicks": 480,
          "midi": 70,
          "name": "A#4",
          "ticks": 233760,
          "time": 132.8182925,
          "velocity": 1
        },
        {
          "duration": 0.272727500000002,
          "durationTicks": 480,
          "midi": 46,
          "name": "A#2",
          "ticks": 234240,
          "time": 133.09102000000001,
          "velocity": 1
        },
        {
          "duration": 0.272727500000002,
          "durationTicks": 480,
          "midi": 35,
          "name": "B1",
          "ticks": 234240,
          "time": 133.09102000000001,
          "velocity": 1
        },
        {
          "duration": 0.272727500000002,
          "durationTicks": 480,
          "midi": 70,
          "name": "A#4",
          "ticks": 234240,
          "time": 133.09102000000001,
          "velocity": 1
        },
        {
          "duration": 0.272727500000002,
          "durationTicks": 480,
          "midi": 46,
          "name": "A#2",
          "ticks": 234720,
          "time": 133.36374750000002,
          "velocity": 1
        },
        {
          "duration": 0.272727500000002,
          "durationTicks": 480,
          "midi": 69,
          "name": "A4",
          "ticks": 234960,
          "time": 133.50011125,
          "velocity": 1
        },
        {
          "duration": 0.13636375000001522,
          "durationTicks": 240,
          "midi": 35,
          "name": "B1",
          "ticks": 234960,
          "time": 133.50011125,
          "velocity": 1
        },
        {
          "duration": 0.2727274999999736,
          "durationTicks": 480,
          "midi": 46,
          "name": "A#2",
          "ticks": 235200,
          "time": 133.63647500000002,
          "velocity": 1
        },
        {
          "duration": 0.2727274999999736,
          "durationTicks": 480,
          "midi": 38,
          "name": "D2",
          "ticks": 235200,
          "time": 133.63647500000002,
          "velocity": 1
        },
        {
          "duration": 0.272727500000002,
          "durationTicks": 480,
          "midi": 46,
          "name": "A#2",
          "ticks": 235680,
          "time": 133.9092025,
          "velocity": 1
        },
        {
          "duration": 0.272727500000002,
          "durationTicks": 480,
          "midi": 35,
          "name": "B1",
          "ticks": 235680,
          "time": 133.9092025,
          "velocity": 1
        },
        {
          "duration": 0.272727500000002,
          "durationTicks": 480,
          "midi": 70,
          "name": "A#4",
          "ticks": 235680,
          "time": 133.9092025,
          "velocity": 1
        },
        {
          "duration": 0.272727500000002,
          "durationTicks": 480,
          "midi": 46,
          "name": "A#2",
          "ticks": 236160,
          "time": 134.18193,
          "velocity": 1
        },
        {
          "duration": 0.272727500000002,
          "durationTicks": 480,
          "midi": 46,
          "name": "A#2",
          "ticks": 236640,
          "time": 134.4546575,
          "velocity": 1
        },
        {
          "duration": 0.272727500000002,
          "durationTicks": 480,
          "midi": 35,
          "name": "B1",
          "ticks": 236640,
          "time": 134.4546575,
          "velocity": 1
        },
        {
          "duration": 0.272727500000002,
          "durationTicks": 480,
          "midi": 70,
          "name": "A#4",
          "ticks": 236640,
          "time": 134.4546575,
          "velocity": 1
        },
        {
          "duration": 0.272727500000002,
          "durationTicks": 480,
          "midi": 46,
          "name": "A#2",
          "ticks": 237120,
          "time": 134.727385,
          "velocity": 1
        },
        {
          "duration": 0.13636375000001522,
          "durationTicks": 240,
          "midi": 69,
          "name": "A4",
          "ticks": 237120,
          "time": 134.727385,
          "velocity": 1
        },
        {
          "duration": 0.545455000000004,
          "durationTicks": 960,
          "midi": 38,
          "name": "D2",
          "ticks": 237120,
          "time": 134.727385,
          "velocity": 1
        },
        {
          "duration": 0.1363637499999868,
          "durationTicks": 240,
          "midi": 69,
          "name": "A4",
          "ticks": 237360,
          "time": 134.86374875,
          "velocity": 1
        },
        {
          "duration": 0.272727500000002,
          "durationTicks": 480,
          "midi": 46,
          "name": "A#2",
          "ticks": 237600,
          "time": 135.0001125,
          "velocity": 1
        },
        {
          "duration": 0.272727500000002,
          "durationTicks": 480,
          "midi": 70,
          "name": "A#4",
          "ticks": 237600,
          "time": 135.0001125,
          "velocity": 1
        },
        {
          "duration": 0.272727500000002,
          "durationTicks": 480,
          "midi": 46,
          "name": "A#2",
          "ticks": 238080,
          "time": 135.27284,
          "velocity": 1
        },
        {
          "duration": 0.272727500000002,
          "durationTicks": 480,
          "midi": 35,
          "name": "B1",
          "ticks": 238080,
          "time": 135.27284,
          "velocity": 1
        },
        {
          "duration": 0.272727500000002,
          "durationTicks": 480,
          "midi": 70,
          "name": "A#4",
          "ticks": 238080,
          "time": 135.27284,
          "velocity": 1
        },
        {
          "duration": 0.272727500000002,
          "durationTicks": 480,
          "midi": 46,
          "name": "A#2",
          "ticks": 238560,
          "time": 135.5455675,
          "velocity": 1
        },
        {
          "duration": 0.2727274999999736,
          "durationTicks": 480,
          "midi": 69,
          "name": "A4",
          "ticks": 238800,
          "time": 135.68193125000002,
          "velocity": 1
        },
        {
          "duration": 0.1363637499999868,
          "durationTicks": 240,
          "midi": 35,
          "name": "B1",
          "ticks": 238800,
          "time": 135.68193125000002,
          "velocity": 1
        },
        {
          "duration": 0.272727500000002,
          "durationTicks": 480,
          "midi": 46,
          "name": "A#2",
          "ticks": 239040,
          "time": 135.818295,
          "velocity": 1
        },
        {
          "duration": 0.272727500000002,
          "durationTicks": 480,
          "midi": 38,
          "name": "D2",
          "ticks": 239040,
          "time": 135.818295,
          "velocity": 1
        },
        {
          "duration": 0.272727500000002,
          "durationTicks": 480,
          "midi": 46,
          "name": "A#2",
          "ticks": 239520,
          "time": 136.0910225,
          "velocity": 1
        },
        {
          "duration": 0.272727500000002,
          "durationTicks": 480,
          "midi": 35,
          "name": "B1",
          "ticks": 239520,
          "time": 136.0910225,
          "velocity": 1
        },
        {
          "duration": 0.272727500000002,
          "durationTicks": 480,
          "midi": 70,
          "name": "A#4",
          "ticks": 239520,
          "time": 136.0910225,
          "velocity": 1
        },
        {
          "duration": 0.272727500000002,
          "durationTicks": 480,
          "midi": 46,
          "name": "A#2",
          "ticks": 240000,
          "time": 136.36375,
          "velocity": 1
        },
        {
          "duration": 0.272727500000002,
          "durationTicks": 480,
          "midi": 46,
          "name": "A#2",
          "ticks": 240480,
          "time": 136.6364775,
          "velocity": 1
        },
        {
          "duration": 0.272727500000002,
          "durationTicks": 480,
          "midi": 35,
          "name": "B1",
          "ticks": 240480,
          "time": 136.6364775,
          "velocity": 1
        },
        {
          "duration": 0.272727500000002,
          "durationTicks": 480,
          "midi": 70,
          "name": "A#4",
          "ticks": 240480,
          "time": 136.6364775,
          "velocity": 1
        },
        {
          "duration": 0.272727500000002,
          "durationTicks": 480,
          "midi": 46,
          "name": "A#2",
          "ticks": 240960,
          "time": 136.90920500000001,
          "velocity": 1
        },
        {
          "duration": 0.1363637499999868,
          "durationTicks": 240,
          "midi": 69,
          "name": "A4",
          "ticks": 240960,
          "time": 136.90920500000001,
          "velocity": 1
        },
        {
          "duration": 0.545455000000004,
          "durationTicks": 960,
          "midi": 38,
          "name": "D2",
          "ticks": 240960,
          "time": 136.90920500000001,
          "velocity": 1
        },
        {
          "duration": 0.13636375000001522,
          "durationTicks": 240,
          "midi": 69,
          "name": "A4",
          "ticks": 241200,
          "time": 137.04556875,
          "velocity": 1
        },
        {
          "duration": 0.272727500000002,
          "durationTicks": 480,
          "midi": 46,
          "name": "A#2",
          "ticks": 241440,
          "time": 137.18193250000002,
          "velocity": 1
        },
        {
          "duration": 0.272727500000002,
          "durationTicks": 480,
          "midi": 70,
          "name": "A#4",
          "ticks": 241440,
          "time": 137.18193250000002,
          "velocity": 1
        },
        {
          "duration": 0.2727274999999736,
          "durationTicks": 480,
          "midi": 46,
          "name": "A#2",
          "ticks": 241920,
          "time": 137.45466000000002,
          "velocity": 1
        },
        {
          "duration": 0.2727274999999736,
          "durationTicks": 480,
          "midi": 35,
          "name": "B1",
          "ticks": 241920,
          "time": 137.45466000000002,
          "velocity": 1
        },
        {
          "duration": 0.2727274999999736,
          "durationTicks": 480,
          "midi": 70,
          "name": "A#4",
          "ticks": 241920,
          "time": 137.45466000000002,
          "velocity": 1
        },
        {
          "duration": 0.272727500000002,
          "durationTicks": 480,
          "midi": 46,
          "name": "A#2",
          "ticks": 242400,
          "time": 137.7273875,
          "velocity": 1
        },
        {
          "duration": 0.272727500000002,
          "durationTicks": 480,
          "midi": 69,
          "name": "A4",
          "ticks": 242640,
          "time": 137.86375125,
          "velocity": 1
        },
        {
          "duration": 0.1363637499999868,
          "durationTicks": 240,
          "midi": 35,
          "name": "B1",
          "ticks": 242640,
          "time": 137.86375125,
          "velocity": 1
        },
        {
          "duration": 0.272727500000002,
          "durationTicks": 480,
          "midi": 46,
          "name": "A#2",
          "ticks": 242880,
          "time": 138.000115,
          "velocity": 1
        },
        {
          "duration": 0.272727500000002,
          "durationTicks": 480,
          "midi": 38,
          "name": "D2",
          "ticks": 242880,
          "time": 138.000115,
          "velocity": 1
        },
        {
          "duration": 0.272727500000002,
          "durationTicks": 480,
          "midi": 46,
          "name": "A#2",
          "ticks": 243360,
          "time": 138.2728425,
          "velocity": 1
        },
        {
          "duration": 0.272727500000002,
          "durationTicks": 480,
          "midi": 35,
          "name": "B1",
          "ticks": 243360,
          "time": 138.2728425,
          "velocity": 1
        },
        {
          "duration": 0.272727500000002,
          "durationTicks": 480,
          "midi": 70,
          "name": "A#4",
          "ticks": 243360,
          "time": 138.2728425,
          "velocity": 1
        },
        {
          "duration": 0.272727500000002,
          "durationTicks": 480,
          "midi": 46,
          "name": "A#2",
          "ticks": 243840,
          "time": 138.54557,
          "velocity": 1
        },
        {
          "duration": 0.272727500000002,
          "durationTicks": 480,
          "midi": 46,
          "name": "A#2",
          "ticks": 244320,
          "time": 138.8182975,
          "velocity": 1
        },
        {
          "duration": 0.272727500000002,
          "durationTicks": 480,
          "midi": 35,
          "name": "B1",
          "ticks": 244320,
          "time": 138.8182975,
          "velocity": 1
        },
        {
          "duration": 0.272727500000002,
          "durationTicks": 480,
          "midi": 70,
          "name": "A#4",
          "ticks": 244320,
          "time": 138.8182975,
          "velocity": 1
        },
        {
          "duration": 0.272727500000002,
          "durationTicks": 480,
          "midi": 46,
          "name": "A#2",
          "ticks": 244800,
          "time": 139.091025,
          "velocity": 1
        },
        {
          "duration": 0.13636375000001522,
          "durationTicks": 240,
          "midi": 69,
          "name": "A4",
          "ticks": 244800,
          "time": 139.091025,
          "velocity": 1
        },
        {
          "duration": 0.545455000000004,
          "durationTicks": 960,
          "midi": 38,
          "name": "D2",
          "ticks": 244800,
          "time": 139.091025,
          "velocity": 1
        },
        {
          "duration": 0.1363637499999868,
          "durationTicks": 240,
          "midi": 69,
          "name": "A4",
          "ticks": 245040,
          "time": 139.22738875000002,
          "velocity": 1
        },
        {
          "duration": 0.272727500000002,
          "durationTicks": 480,
          "midi": 46,
          "name": "A#2",
          "ticks": 245280,
          "time": 139.3637525,
          "velocity": 1
        },
        {
          "duration": 0.272727500000002,
          "durationTicks": 480,
          "midi": 70,
          "name": "A#4",
          "ticks": 245280,
          "time": 139.3637525,
          "velocity": 1
        },
        {
          "duration": 0.272727500000002,
          "durationTicks": 480,
          "midi": 46,
          "name": "A#2",
          "ticks": 245760,
          "time": 139.63648,
          "velocity": 1
        },
        {
          "duration": 0.272727500000002,
          "durationTicks": 480,
          "midi": 35,
          "name": "B1",
          "ticks": 245760,
          "time": 139.63648,
          "velocity": 1
        },
        {
          "duration": 0.272727500000002,
          "durationTicks": 480,
          "midi": 70,
          "name": "A#4",
          "ticks": 245760,
          "time": 139.63648,
          "velocity": 1
        },
        {
          "duration": 0.272727500000002,
          "durationTicks": 480,
          "midi": 46,
          "name": "A#2",
          "ticks": 246240,
          "time": 139.9092075,
          "velocity": 1
        },
        {
          "duration": 0.272727500000002,
          "durationTicks": 480,
          "midi": 69,
          "name": "A4",
          "ticks": 246480,
          "time": 140.04557125,
          "velocity": 1
        },
        {
          "duration": 0.13636375000001522,
          "durationTicks": 240,
          "midi": 35,
          "name": "B1",
          "ticks": 246480,
          "time": 140.04557125,
          "velocity": 1
        },
        {
          "duration": 0.272727500000002,
          "durationTicks": 480,
          "midi": 46,
          "name": "A#2",
          "ticks": 246720,
          "time": 140.181935,
          "velocity": 1
        },
        {
          "duration": 0.272727500000002,
          "durationTicks": 480,
          "midi": 38,
          "name": "D2",
          "ticks": 246720,
          "time": 140.181935,
          "velocity": 1
        },
        {
          "duration": 0.272727500000002,
          "durationTicks": 480,
          "midi": 46,
          "name": "A#2",
          "ticks": 247200,
          "time": 140.4546625,
          "velocity": 1
        },
        {
          "duration": 0.272727500000002,
          "durationTicks": 480,
          "midi": 35,
          "name": "B1",
          "ticks": 247200,
          "time": 140.4546625,
          "velocity": 1
        },
        {
          "duration": 0.272727500000002,
          "durationTicks": 480,
          "midi": 70,
          "name": "A#4",
          "ticks": 247200,
          "time": 140.4546625,
          "velocity": 1
        },
        {
          "duration": 0.272727500000002,
          "durationTicks": 480,
          "midi": 46,
          "name": "A#2",
          "ticks": 247680,
          "time": 140.72739,
          "velocity": 1
        },
        {
          "duration": 0.1363637499999868,
          "durationTicks": 240,
          "midi": 38,
          "name": "D2",
          "ticks": 247680,
          "time": 140.72739,
          "velocity": 1
        },
        {
          "duration": 0.13636375000001522,
          "durationTicks": 240,
          "midi": 38,
          "name": "D2",
          "ticks": 247920,
          "time": 140.86375375,
          "velocity": 1
        },
        {
          "duration": 0.272727500000002,
          "durationTicks": 480,
          "midi": 46,
          "name": "A#2",
          "ticks": 248160,
          "time": 141.00011750000002,
          "velocity": 1
        },
        {
          "duration": 0.272727500000002,
          "durationTicks": 480,
          "midi": 70,
          "name": "A#4",
          "ticks": 248160,
          "time": 141.00011750000002,
          "velocity": 1
        },
        {
          "duration": 0.272727500000002,
          "durationTicks": 480,
          "midi": 38,
          "name": "D2",
          "ticks": 248160,
          "time": 141.00011750000002,
          "velocity": 1
        },
        {
          "duration": 0.272727500000002,
          "durationTicks": 480,
          "midi": 46,
          "name": "A#2",
          "ticks": 248640,
          "time": 141.27284500000002,
          "velocity": 1
        },
        {
          "duration": 0.1363637499999868,
          "durationTicks": 240,
          "midi": 69,
          "name": "A4",
          "ticks": 248640,
          "time": 141.27284500000002,
          "velocity": 1
        },
        {
          "duration": 0.1363637499999868,
          "durationTicks": 240,
          "midi": 38,
          "name": "D2",
          "ticks": 248640,
          "time": 141.27284500000002,
          "velocity": 1
        },
        {
          "duration": 0.13636375000001522,
          "durationTicks": 240,
          "midi": 69,
          "name": "A4",
          "ticks": 248880,
          "time": 141.40920875,
          "velocity": 1
        },
        {
          "duration": 0.13636375000001522,
          "durationTicks": 240,
          "midi": 38,
          "name": "D2",
          "ticks": 248880,
          "time": 141.40920875,
          "velocity": 1
        },
        {
          "duration": 0.2727274999999736,
          "durationTicks": 480,
          "midi": 46,
          "name": "A#2",
          "ticks": 249120,
          "time": 141.54557250000002,
          "velocity": 1
        },
        {
          "duration": 0.2727274999999736,
          "durationTicks": 480,
          "midi": 70,
          "name": "A#4",
          "ticks": 249120,
          "time": 141.54557250000002,
          "velocity": 1
        },
        {
          "duration": 0.1363637499999868,
          "durationTicks": 240,
          "midi": 38,
          "name": "D2",
          "ticks": 249120,
          "time": 141.54557250000002,
          "velocity": 1
        },
        {
          "duration": 0.1363637499999868,
          "durationTicks": 240,
          "midi": 38,
          "name": "D2",
          "ticks": 249360,
          "time": 141.68193625,
          "velocity": 1
        },
        {
          "duration": 0.272727500000002,
          "durationTicks": 480,
          "midi": 46,
          "name": "A#2",
          "ticks": 249600,
          "time": 141.8183,
          "velocity": 1
        },
        {
          "duration": 0.545455000000004,
          "durationTicks": 960,
          "midi": 49,
          "name": "C#3",
          "ticks": 249600,
          "time": 141.8183,
          "velocity": 1
        },
        {
          "duration": 0.272727500000002,
          "durationTicks": 480,
          "midi": 35,
          "name": "B1",
          "ticks": 249600,
          "time": 141.8183,
          "velocity": 1
        },
        {
          "duration": 0.272727500000002,
          "durationTicks": 480,
          "midi": 70,
          "name": "A#4",
          "ticks": 249600,
          "time": 141.8183,
          "velocity": 1
        },
        {
          "duration": 0.272727500000002,
          "durationTicks": 480,
          "midi": 46,
          "name": "A#2",
          "ticks": 250080,
          "time": 142.0910275,
          "velocity": 1
        },
        {
          "duration": 0.272727500000002,
          "durationTicks": 480,
          "midi": 38,
          "name": "D2",
          "ticks": 250320,
          "time": 142.22739125,
          "velocity": 1
        },
        {
          "duration": 0.272727500000002,
          "durationTicks": 480,
          "midi": 69,
          "name": "A4",
          "ticks": 250320,
          "time": 142.22739125,
          "velocity": 1
        },
        {
          "duration": 0.272727500000002,
          "durationTicks": 480,
          "midi": 46,
          "name": "A#2",
          "ticks": 250560,
          "time": 142.363755,
          "velocity": 1
        },
        {
          "duration": 0.272727500000002,
          "durationTicks": 480,
          "midi": 46,
          "name": "A#2",
          "ticks": 251040,
          "time": 142.6364825,
          "velocity": 1
        },
        {
          "duration": 0.272727500000002,
          "durationTicks": 480,
          "midi": 35,
          "name": "B1",
          "ticks": 251040,
          "time": 142.6364825,
          "velocity": 1
        },
        {
          "duration": 0.272727500000002,
          "durationTicks": 480,
          "midi": 70,
          "name": "A#4",
          "ticks": 251040,
          "time": 142.6364825,
          "velocity": 1
        },
        {
          "duration": 0.272727500000002,
          "durationTicks": 480,
          "midi": 46,
          "name": "A#2",
          "ticks": 251520,
          "time": 142.90921,
          "velocity": 1
        },
        {
          "duration": 0.272727500000002,
          "durationTicks": 480,
          "midi": 46,
          "name": "A#2",
          "ticks": 252000,
          "time": 143.1819375,
          "velocity": 1
        },
        {
          "duration": 0.272727500000002,
          "durationTicks": 480,
          "midi": 35,
          "name": "B1",
          "ticks": 252000,
          "time": 143.1819375,
          "velocity": 1
        },
        {
          "duration": 0.272727500000002,
          "durationTicks": 480,
          "midi": 70,
          "name": "A#4",
          "ticks": 252000,
          "time": 143.1819375,
          "velocity": 1
        },
        {
          "duration": 0.272727500000002,
          "durationTicks": 480,
          "midi": 46,
          "name": "A#2",
          "ticks": 252480,
          "time": 143.454665,
          "velocity": 1
        },
        {
          "duration": 0.272727500000002,
          "durationTicks": 480,
          "midi": 38,
          "name": "D2",
          "ticks": 252480,
          "time": 143.454665,
          "velocity": 1
        },
        {
          "duration": 0.272727500000002,
          "durationTicks": 480,
          "midi": 69,
          "name": "A4",
          "ticks": 252480,
          "time": 143.454665,
          "velocity": 1
        },
        {
          "duration": 0.272727500000002,
          "durationTicks": 480,
          "midi": 46,
          "name": "A#2",
          "ticks": 252960,
          "time": 143.7273925,
          "velocity": 1
        },
        {
          "duration": 0.272727500000002,
          "durationTicks": 480,
          "midi": 35,
          "name": "B1",
          "ticks": 252960,
          "time": 143.7273925,
          "velocity": 1
        },
        {
          "duration": 0.272727500000002,
          "durationTicks": 480,
          "midi": 70,
          "name": "A#4",
          "ticks": 252960,
          "time": 143.7273925,
          "velocity": 1
        },
        {
          "duration": 0.272727500000002,
          "durationTicks": 480,
          "midi": 46,
          "name": "A#2",
          "ticks": 253440,
          "time": 144.00012,
          "velocity": 1
        },
        {
          "duration": 0.272727500000002,
          "durationTicks": 480,
          "midi": 35,
          "name": "B1",
          "ticks": 253440,
          "time": 144.00012,
          "velocity": 1
        },
        {
          "duration": 0.272727500000002,
          "durationTicks": 480,
          "midi": 70,
          "name": "A#4",
          "ticks": 253440,
          "time": 144.00012,
          "velocity": 1
        },
        {
          "duration": 0.272727500000002,
          "durationTicks": 480,
          "midi": 46,
          "name": "A#2",
          "ticks": 253920,
          "time": 144.2728475,
          "velocity": 1
        },
        {
          "duration": 0.272727500000002,
          "durationTicks": 480,
          "midi": 38,
          "name": "D2",
          "ticks": 254160,
          "time": 144.40921125,
          "velocity": 1
        },
        {
          "duration": 0.272727500000002,
          "durationTicks": 480,
          "midi": 69,
          "name": "A4",
          "ticks": 254160,
          "time": 144.40921125,
          "velocity": 1
        },
        {
          "duration": 0.272727500000002,
          "durationTicks": 480,
          "midi": 46,
          "name": "A#2",
          "ticks": 254400,
          "time": 144.545575,
          "velocity": 1
        },
        {
          "duration": 0.272727500000002,
          "durationTicks": 480,
          "midi": 46,
          "name": "A#2",
          "ticks": 254880,
          "time": 144.81830250000002,
          "velocity": 1
        },
        {
          "duration": 0.272727500000002,
          "durationTicks": 480,
          "midi": 35,
          "name": "B1",
          "ticks": 254880,
          "time": 144.81830250000002,
          "velocity": 1
        },
        {
          "duration": 0.272727500000002,
          "durationTicks": 480,
          "midi": 70,
          "name": "A#4",
          "ticks": 254880,
          "time": 144.81830250000002,
          "velocity": 1
        },
        {
          "duration": 0.272727500000002,
          "durationTicks": 480,
          "midi": 46,
          "name": "A#2",
          "ticks": 255360,
          "time": 145.09103000000002,
          "velocity": 1
        },
        {
          "duration": 0.2727274999999736,
          "durationTicks": 480,
          "midi": 46,
          "name": "A#2",
          "ticks": 255840,
          "time": 145.36375750000002,
          "velocity": 1
        },
        {
          "duration": 0.2727274999999736,
          "durationTicks": 480,
          "midi": 35,
          "name": "B1",
          "ticks": 255840,
          "time": 145.36375750000002,
          "velocity": 1
        },
        {
          "duration": 0.2727274999999736,
          "durationTicks": 480,
          "midi": 70,
          "name": "A#4",
          "ticks": 255840,
          "time": 145.36375750000002,
          "velocity": 1
        },
        {
          "duration": 0.272727500000002,
          "durationTicks": 480,
          "midi": 46,
          "name": "A#2",
          "ticks": 256320,
          "time": 145.636485,
          "velocity": 1
        },
        {
          "duration": 0.13636375000001522,
          "durationTicks": 240,
          "midi": 38,
          "name": "D2",
          "ticks": 256320,
          "time": 145.636485,
          "velocity": 1
        },
        {
          "duration": 0.13636375000001522,
          "durationTicks": 240,
          "midi": 69,
          "name": "A4",
          "ticks": 256320,
          "time": 145.636485,
          "velocity": 1
        },
        {
          "duration": 0.1363637499999868,
          "durationTicks": 240,
          "midi": 38,
          "name": "D2",
          "ticks": 256560,
          "time": 145.77284875,
          "velocity": 1
        },
        {
          "duration": 0.1363637499999868,
          "durationTicks": 240,
          "midi": 69,
          "name": "A4",
          "ticks": 256560,
          "time": 145.77284875,
          "velocity": 1
        },
        {
          "duration": 0.272727500000002,
          "durationTicks": 480,
          "midi": 46,
          "name": "A#2",
          "ticks": 256800,
          "time": 145.9092125,
          "velocity": 1
        },
        {
          "duration": 0.272727500000002,
          "durationTicks": 480,
          "midi": 35,
          "name": "B1",
          "ticks": 256800,
          "time": 145.9092125,
          "velocity": 1
        },
        {
          "duration": 0.272727500000002,
          "durationTicks": 480,
          "midi": 70,
          "name": "A#4",
          "ticks": 256800,
          "time": 145.9092125,
          "velocity": 1
        },
        {
          "duration": 0.272727500000002,
          "durationTicks": 480,
          "midi": 46,
          "name": "A#2",
          "ticks": 257280,
          "time": 146.18194,
          "velocity": 1
        },
        {
          "duration": 0.272727500000002,
          "durationTicks": 480,
          "midi": 35,
          "name": "B1",
          "ticks": 257280,
          "time": 146.18194,
          "velocity": 1
        },
        {
          "duration": 0.272727500000002,
          "durationTicks": 480,
          "midi": 70,
          "name": "A#4",
          "ticks": 257280,
          "time": 146.18194,
          "velocity": 1
        },
        {
          "duration": 0.545455000000004,
          "durationTicks": 960,
          "midi": 49,
          "name": "C#3",
          "ticks": 257280,
          "time": 146.18194,
          "velocity": 1
        },
        {
          "duration": 0.272727500000002,
          "durationTicks": 480,
          "midi": 46,
          "name": "A#2",
          "ticks": 257760,
          "time": 146.4546675,
          "velocity": 1
        },
        {
          "duration": 0.272727500000002,
          "durationTicks": 480,
          "midi": 38,
          "name": "D2",
          "ticks": 258000,
          "time": 146.59103125000001,
          "velocity": 1
        },
        {
          "duration": 0.272727500000002,
          "durationTicks": 480,
          "midi": 69,
          "name": "A4",
          "ticks": 258000,
          "time": 146.59103125000001,
          "velocity": 1
        },
        {
          "duration": 0.272727500000002,
          "durationTicks": 480,
          "midi": 46,
          "name": "A#2",
          "ticks": 258240,
          "time": 146.727395,
          "velocity": 1
        },
        {
          "duration": 0.272727500000002,
          "durationTicks": 480,
          "midi": 46,
          "name": "A#2",
          "ticks": 258720,
          "time": 147.0001225,
          "velocity": 1
        },
        {
          "duration": 0.272727500000002,
          "durationTicks": 480,
          "midi": 35,
          "name": "B1",
          "ticks": 258720,
          "time": 147.0001225,
          "velocity": 1
        },
        {
          "duration": 0.272727500000002,
          "durationTicks": 480,
          "midi": 70,
          "name": "A#4",
          "ticks": 258720,
          "time": 147.0001225,
          "velocity": 1
        },
        {
          "duration": 0.272727500000002,
          "durationTicks": 480,
          "midi": 46,
          "name": "A#2",
          "ticks": 259200,
          "time": 147.27285,
          "velocity": 1
        },
        {
          "duration": 0.272727500000002,
          "durationTicks": 480,
          "midi": 46,
          "name": "A#2",
          "ticks": 259680,
          "time": 147.5455775,
          "velocity": 1
        },
        {
          "duration": 0.272727500000002,
          "durationTicks": 480,
          "midi": 35,
          "name": "B1",
          "ticks": 259680,
          "time": 147.5455775,
          "velocity": 1
        },
        {
          "duration": 0.272727500000002,
          "durationTicks": 480,
          "midi": 70,
          "name": "A#4",
          "ticks": 259680,
          "time": 147.5455775,
          "velocity": 1
        },
        {
          "duration": 0.272727500000002,
          "durationTicks": 480,
          "midi": 46,
          "name": "A#2",
          "ticks": 260160,
          "time": 147.818305,
          "velocity": 1
        },
        {
          "duration": 0.272727500000002,
          "durationTicks": 480,
          "midi": 38,
          "name": "D2",
          "ticks": 260160,
          "time": 147.818305,
          "velocity": 1
        },
        {
          "duration": 0.1363637499999868,
          "durationTicks": 240,
          "midi": 69,
          "name": "A4",
          "ticks": 260160,
          "time": 147.818305,
          "velocity": 1
        },
        {
          "duration": 0.13636375000001522,
          "durationTicks": 240,
          "midi": 69,
          "name": "A4",
          "ticks": 260400,
          "time": 147.95466875,
          "velocity": 1
        },
        {
          "duration": 0.272727500000002,
          "durationTicks": 480,
          "midi": 46,
          "name": "A#2",
          "ticks": 260640,
          "time": 148.0910325,
          "velocity": 1
        },
        {
          "duration": 0.272727500000002,
          "durationTicks": 480,
          "midi": 35,
          "name": "B1",
          "ticks": 260640,
          "time": 148.0910325,
          "velocity": 1
        },
        {
          "duration": 0.272727500000002,
          "durationTicks": 480,
          "midi": 70,
          "name": "A#4",
          "ticks": 260640,
          "time": 148.0910325,
          "velocity": 1
        },
        {
          "duration": 0.272727500000002,
          "durationTicks": 480,
          "midi": 46,
          "name": "A#2",
          "ticks": 261120,
          "time": 148.36376,
          "velocity": 1
        },
        {
          "duration": 0.272727500000002,
          "durationTicks": 480,
          "midi": 35,
          "name": "B1",
          "ticks": 261120,
          "time": 148.36376,
          "velocity": 1
        },
        {
          "duration": 0.272727500000002,
          "durationTicks": 480,
          "midi": 70,
          "name": "A#4",
          "ticks": 261120,
          "time": 148.36376,
          "velocity": 1
        },
        {
          "duration": 0.272727500000002,
          "durationTicks": 480,
          "midi": 46,
          "name": "A#2",
          "ticks": 261600,
          "time": 148.63648750000002,
          "velocity": 1
        },
        {
          "duration": 0.272727500000002,
          "durationTicks": 480,
          "midi": 38,
          "name": "D2",
          "ticks": 261840,
          "time": 148.77285125,
          "velocity": 1
        },
        {
          "duration": 0.272727500000002,
          "durationTicks": 480,
          "midi": 69,
          "name": "A4",
          "ticks": 261840,
          "time": 148.77285125,
          "velocity": 1
        },
        {
          "duration": 0.272727500000002,
          "durationTicks": 480,
          "midi": 46,
          "name": "A#2",
          "ticks": 262080,
          "time": 148.90921500000002,
          "velocity": 1
        },
        {
          "duration": 0.2727274999999736,
          "durationTicks": 480,
          "midi": 46,
          "name": "A#2",
          "ticks": 262560,
          "time": 149.18194250000002,
          "velocity": 1
        },
        {
          "duration": 0.2727274999999736,
          "durationTicks": 480,
          "midi": 35,
          "name": "B1",
          "ticks": 262560,
          "time": 149.18194250000002,
          "velocity": 1
        },
        {
          "duration": 0.2727274999999736,
          "durationTicks": 480,
          "midi": 70,
          "name": "A#4",
          "ticks": 262560,
          "time": 149.18194250000002,
          "velocity": 1
        },
        {
          "duration": 0.272727500000002,
          "durationTicks": 480,
          "midi": 46,
          "name": "A#2",
          "ticks": 263040,
          "time": 149.45467,
          "velocity": 1
        },
        {
          "duration": 0.272727500000002,
          "durationTicks": 480,
          "midi": 35,
          "name": "B1",
          "ticks": 263520,
          "time": 149.7273975,
          "velocity": 1
        },
        {
          "duration": 0.272727500000002,
          "durationTicks": 480,
          "midi": 46,
          "name": "A#2",
          "ticks": 263520,
          "time": 149.7273975,
          "velocity": 1
        },
        {
          "duration": 0.272727500000002,
          "durationTicks": 480,
          "midi": 70,
          "name": "A#4",
          "ticks": 263520,
          "time": 149.7273975,
          "velocity": 1
        },
        {
          "duration": 0.13636375000001522,
          "durationTicks": 240,
          "midi": 38,
          "name": "D2",
          "ticks": 264000,
          "time": 150.000125,
          "velocity": 1
        },
        {
          "duration": 0.545455000000004,
          "durationTicks": 960,
          "midi": 49,
          "name": "C#3",
          "ticks": 264000,
          "time": 150.000125,
          "velocity": 1
        },
        {
          "duration": 0.272727500000002,
          "durationTicks": 480,
          "midi": 46,
          "name": "A#2",
          "ticks": 264000,
          "time": 150.000125,
          "velocity": 1
        },
        {
          "duration": 0.13636375000001522,
          "durationTicks": 240,
          "midi": 69,
          "name": "A4",
          "ticks": 264000,
          "time": 150.000125,
          "velocity": 1
        },
        {
          "duration": 0.1363637499999868,
          "durationTicks": 240,
          "midi": 38,
          "name": "D2",
          "ticks": 264240,
          "time": 150.13648875,
          "velocity": 1
        },
        {
          "duration": 0.1363637499999868,
          "durationTicks": 240,
          "midi": 69,
          "name": "A4",
          "ticks": 264240,
          "time": 150.13648875,
          "velocity": 1
        },
        {
          "duration": 0.272727500000002,
          "durationTicks": 480,
          "midi": 35,
          "name": "B1",
          "ticks": 264480,
          "time": 150.2728525,
          "velocity": 1
        },
        {
          "duration": 0.272727500000002,
          "durationTicks": 480,
          "midi": 46,
          "name": "A#2",
          "ticks": 264480,
          "time": 150.2728525,
          "velocity": 1
        },
        {
          "duration": 0.272727500000002,
          "durationTicks": 480,
          "midi": 70,
          "name": "A#4",
          "ticks": 264480,
          "time": 150.2728525,
          "velocity": 1
        },
        {
          "duration": 0.272727500000002,
          "durationTicks": 480,
          "midi": 46,
          "name": "A#2",
          "ticks": 264960,
          "time": 150.54558,
          "velocity": 1
        },
        {
          "duration": 0.545455000000004,
          "durationTicks": 960,
          "midi": 49,
          "name": "C#3",
          "ticks": 264960,
          "time": 150.54558,
          "velocity": 1
        },
        {
          "duration": 0.272727500000002,
          "durationTicks": 480,
          "midi": 35,
          "name": "B1",
          "ticks": 264960,
          "time": 150.54558,
          "velocity": 1
        },
        {
          "duration": 0.272727500000002,
          "durationTicks": 480,
          "midi": 70,
          "name": "A#4",
          "ticks": 264960,
          "time": 150.54558,
          "velocity": 1
        },
        {
          "duration": 0.272727500000002,
          "durationTicks": 480,
          "midi": 46,
          "name": "A#2",
          "ticks": 265440,
          "time": 150.8183075,
          "velocity": 1
        },
        {
          "duration": 0.272727500000002,
          "durationTicks": 480,
          "midi": 38,
          "name": "D2",
          "ticks": 265680,
          "time": 150.95467125000002,
          "velocity": 1
        },
        {
          "duration": 0.272727500000002,
          "durationTicks": 480,
          "midi": 69,
          "name": "A4",
          "ticks": 265680,
          "time": 150.95467125000002,
          "velocity": 1
        },
        {
          "duration": 0.272727500000002,
          "durationTicks": 480,
          "midi": 46,
          "name": "A#2",
          "ticks": 265920,
          "time": 151.091035,
          "velocity": 1
        },
        {
          "duration": 0.272727500000002,
          "durationTicks": 480,
          "midi": 46,
          "name": "A#2",
          "ticks": 266400,
          "time": 151.3637625,
          "velocity": 1
        },
        {
          "duration": 0.272727500000002,
          "durationTicks": 480,
          "midi": 35,
          "name": "B1",
          "ticks": 266400,
          "time": 151.3637625,
          "velocity": 1
        },
        {
          "duration": 0.272727500000002,
          "durationTicks": 480,
          "midi": 70,
          "name": "A#4",
          "ticks": 266400,
          "time": 151.3637625,
          "velocity": 1
        },
        {
          "duration": 0.272727500000002,
          "durationTicks": 480,
          "midi": 46,
          "name": "A#2",
          "ticks": 266880,
          "time": 151.63649,
          "velocity": 1
        },
        {
          "duration": 0.272727500000002,
          "durationTicks": 480,
          "midi": 46,
          "name": "A#2",
          "ticks": 267360,
          "time": 151.9092175,
          "velocity": 1
        },
        {
          "duration": 0.272727500000002,
          "durationTicks": 480,
          "midi": 35,
          "name": "B1",
          "ticks": 267360,
          "time": 151.9092175,
          "velocity": 1
        },
        {
          "duration": 0.272727500000002,
          "durationTicks": 480,
          "midi": 70,
          "name": "A#4",
          "ticks": 267360,
          "time": 151.9092175,
          "velocity": 1
        },
        {
          "duration": 0.272727500000002,
          "durationTicks": 480,
          "midi": 46,
          "name": "A#2",
          "ticks": 267840,
          "time": 152.181945,
          "velocity": 1
        },
        {
          "duration": 0.272727500000002,
          "durationTicks": 480,
          "midi": 38,
          "name": "D2",
          "ticks": 267840,
          "time": 152.181945,
          "velocity": 1
        },
        {
          "duration": 0.272727500000002,
          "durationTicks": 480,
          "midi": 69,
          "name": "A4",
          "ticks": 267840,
          "time": 152.181945,
          "velocity": 1
        },
        {
          "duration": 0.272727500000002,
          "durationTicks": 480,
          "midi": 46,
          "name": "A#2",
          "ticks": 268320,
          "time": 152.45467250000002,
          "velocity": 1
        },
        {
          "duration": 0.272727500000002,
          "durationTicks": 480,
          "midi": 35,
          "name": "B1",
          "ticks": 268320,
          "time": 152.45467250000002,
          "velocity": 1
        },
        {
          "duration": 0.272727500000002,
          "durationTicks": 480,
          "midi": 70,
          "name": "A#4",
          "ticks": 268320,
          "time": 152.45467250000002,
          "velocity": 1
        },
        {
          "duration": 0.272727500000002,
          "durationTicks": 480,
          "midi": 46,
          "name": "A#2",
          "ticks": 268800,
          "time": 152.72740000000002,
          "velocity": 1
        },
        {
          "duration": 0.272727500000002,
          "durationTicks": 480,
          "midi": 35,
          "name": "B1",
          "ticks": 268800,
          "time": 152.72740000000002,
          "velocity": 1
        },
        {
          "duration": 0.272727500000002,
          "durationTicks": 480,
          "midi": 70,
          "name": "A#4",
          "ticks": 268800,
          "time": 152.72740000000002,
          "velocity": 1
        },
        {
          "duration": 0.2727274999999736,
          "durationTicks": 480,
          "midi": 46,
          "name": "A#2",
          "ticks": 269280,
          "time": 153.00012750000002,
          "velocity": 1
        },
        {
          "duration": 0.272727500000002,
          "durationTicks": 480,
          "midi": 38,
          "name": "D2",
          "ticks": 269520,
          "time": 153.13649125,
          "velocity": 1
        },
        {
          "duration": 0.272727500000002,
          "durationTicks": 480,
          "midi": 69,
          "name": "A4",
          "ticks": 269520,
          "time": 153.13649125,
          "velocity": 1
        },
        {
          "duration": 0.272727500000002,
          "durationTicks": 480,
          "midi": 46,
          "name": "A#2",
          "ticks": 269760,
          "time": 153.272855,
          "velocity": 1
        },
        {
          "duration": 0.272727500000002,
          "durationTicks": 480,
          "midi": 46,
          "name": "A#2",
          "ticks": 270240,
          "time": 153.5455825,
          "velocity": 1
        },
        {
          "duration": 0.272727500000002,
          "durationTicks": 480,
          "midi": 35,
          "name": "B1",
          "ticks": 270240,
          "time": 153.5455825,
          "velocity": 1
        },
        {
          "duration": 0.272727500000002,
          "durationTicks": 480,
          "midi": 70,
          "name": "A#4",
          "ticks": 270240,
          "time": 153.5455825,
          "velocity": 1
        },
        {
          "duration": 0.272727500000002,
          "durationTicks": 480,
          "midi": 46,
          "name": "A#2",
          "ticks": 270720,
          "time": 153.81831,
          "velocity": 1
        },
        {
          "duration": 0.272727500000002,
          "durationTicks": 480,
          "midi": 46,
          "name": "A#2",
          "ticks": 271200,
          "time": 154.0910375,
          "velocity": 1
        },
        {
          "duration": 0.272727500000002,
          "durationTicks": 480,
          "midi": 35,
          "name": "B1",
          "ticks": 271200,
          "time": 154.0910375,
          "velocity": 1
        },
        {
          "duration": 0.272727500000002,
          "durationTicks": 480,
          "midi": 70,
          "name": "A#4",
          "ticks": 271200,
          "time": 154.0910375,
          "velocity": 1
        },
        {
          "duration": 0.272727500000002,
          "durationTicks": 480,
          "midi": 46,
          "name": "A#2",
          "ticks": 271680,
          "time": 154.363765,
          "velocity": 1
        },
        {
          "duration": 0.13636375000001522,
          "durationTicks": 240,
          "midi": 38,
          "name": "D2",
          "ticks": 271680,
          "time": 154.363765,
          "velocity": 1
        },
        {
          "duration": 0.13636375000001522,
          "durationTicks": 240,
          "midi": 69,
          "name": "A4",
          "ticks": 271680,
          "time": 154.363765,
          "velocity": 1
        },
        {
          "duration": 0.1363637499999868,
          "durationTicks": 240,
          "midi": 38,
          "name": "D2",
          "ticks": 271920,
          "time": 154.50012875000002,
          "velocity": 1
        },
        {
          "duration": 0.1363637499999868,
          "durationTicks": 240,
          "midi": 69,
          "name": "A4",
          "ticks": 271920,
          "time": 154.50012875000002,
          "velocity": 1
        },
        {
          "duration": 0.272727500000002,
          "durationTicks": 480,
          "midi": 46,
          "name": "A#2",
          "ticks": 272160,
          "time": 154.6364925,
          "velocity": 1
        },
        {
          "duration": 0.272727500000002,
          "durationTicks": 480,
          "midi": 35,
          "name": "B1",
          "ticks": 272160,
          "time": 154.6364925,
          "velocity": 1
        },
        {
          "duration": 0.272727500000002,
          "durationTicks": 480,
          "midi": 70,
          "name": "A#4",
          "ticks": 272160,
          "time": 154.6364925,
          "velocity": 1
        },
        {
          "duration": 0.272727500000002,
          "durationTicks": 480,
          "midi": 46,
          "name": "A#2",
          "ticks": 272640,
          "time": 154.90922,
          "velocity": 1
        },
        {
          "duration": 0.272727500000002,
          "durationTicks": 480,
          "midi": 35,
          "name": "B1",
          "ticks": 272640,
          "time": 154.90922,
          "velocity": 1
        },
        {
          "duration": 0.272727500000002,
          "durationTicks": 480,
          "midi": 70,
          "name": "A#4",
          "ticks": 272640,
          "time": 154.90922,
          "velocity": 1
        },
        {
          "duration": 0.545455000000004,
          "durationTicks": 960,
          "midi": 49,
          "name": "C#3",
          "ticks": 272640,
          "time": 154.90922,
          "velocity": 1
        },
        {
          "duration": 0.272727500000002,
          "durationTicks": 480,
          "midi": 46,
          "name": "A#2",
          "ticks": 273120,
          "time": 155.1819475,
          "velocity": 1
        },
        {
          "duration": 0.272727500000002,
          "durationTicks": 480,
          "midi": 38,
          "name": "D2",
          "ticks": 273360,
          "time": 155.31831125,
          "velocity": 1
        },
        {
          "duration": 0.272727500000002,
          "durationTicks": 480,
          "midi": 69,
          "name": "A4",
          "ticks": 273360,
          "time": 155.31831125,
          "velocity": 1
        },
        {
          "duration": 0.272727500000002,
          "durationTicks": 480,
          "midi": 46,
          "name": "A#2",
          "ticks": 273600,
          "time": 155.454675,
          "velocity": 1
        },
        {
          "duration": 0.272727500000002,
          "durationTicks": 480,
          "midi": 46,
          "name": "A#2",
          "ticks": 274080,
          "time": 155.7274025,
          "velocity": 1
        },
        {
          "duration": 0.272727500000002,
          "durationTicks": 480,
          "midi": 35,
          "name": "B1",
          "ticks": 274080,
          "time": 155.7274025,
          "velocity": 1
        },
        {
          "duration": 0.272727500000002,
          "durationTicks": 480,
          "midi": 70,
          "name": "A#4",
          "ticks": 274080,
          "time": 155.7274025,
          "velocity": 1
        },
        {
          "duration": 0.272727500000002,
          "durationTicks": 480,
          "midi": 46,
          "name": "A#2",
          "ticks": 274560,
          "time": 156.00013,
          "velocity": 1
        },
        {
          "duration": 0.272727500000002,
          "durationTicks": 480,
          "midi": 46,
          "name": "A#2",
          "ticks": 275040,
          "time": 156.27285750000001,
          "velocity": 1
        },
        {
          "duration": 0.272727500000002,
          "durationTicks": 480,
          "midi": 35,
          "name": "B1",
          "ticks": 275040,
          "time": 156.27285750000001,
          "velocity": 1
        },
        {
          "duration": 0.272727500000002,
          "durationTicks": 480,
          "midi": 70,
          "name": "A#4",
          "ticks": 275040,
          "time": 156.27285750000001,
          "velocity": 1
        },
        {
          "duration": 0.272727500000002,
          "durationTicks": 480,
          "midi": 46,
          "name": "A#2",
          "ticks": 275520,
          "time": 156.54558500000002,
          "velocity": 1
        },
        {
          "duration": 0.272727500000002,
          "durationTicks": 480,
          "midi": 38,
          "name": "D2",
          "ticks": 275520,
          "time": 156.54558500000002,
          "velocity": 1
        },
        {
          "duration": 0.1363637499999868,
          "durationTicks": 240,
          "midi": 69,
          "name": "A4",
          "ticks": 275520,
          "time": 156.54558500000002,
          "velocity": 1
        },
        {
          "duration": 0.13636375000001522,
          "durationTicks": 240,
          "midi": 69,
          "name": "A4",
          "ticks": 275760,
          "time": 156.68194875,
          "velocity": 1
        },
        {
          "duration": 0.272727500000002,
          "durationTicks": 480,
          "midi": 46,
          "name": "A#2",
          "ticks": 276000,
          "time": 156.81831250000002,
          "velocity": 1
        },
        {
          "duration": 0.272727500000002,
          "durationTicks": 480,
          "midi": 35,
          "name": "B1",
          "ticks": 276000,
          "time": 156.81831250000002,
          "velocity": 1
        },
        {
          "duration": 0.272727500000002,
          "durationTicks": 480,
          "midi": 70,
          "name": "A#4",
          "ticks": 276000,
          "time": 156.81831250000002,
          "velocity": 1
        },
        {
          "duration": 0.2727274999999736,
          "durationTicks": 480,
          "midi": 46,
          "name": "A#2",
          "ticks": 276480,
          "time": 157.09104000000002,
          "velocity": 1
        },
        {
          "duration": 0.2727274999999736,
          "durationTicks": 480,
          "midi": 35,
          "name": "B1",
          "ticks": 276480,
          "time": 157.09104000000002,
          "velocity": 1
        },
        {
          "duration": 0.2727274999999736,
          "durationTicks": 480,
          "midi": 70,
          "name": "A#4",
          "ticks": 276480,
          "time": 157.09104000000002,
          "velocity": 1
        },
        {
          "duration": 0.272727500000002,
          "durationTicks": 480,
          "midi": 46,
          "name": "A#2",
          "ticks": 276960,
          "time": 157.3637675,
          "velocity": 1
        },
        {
          "duration": 0.272727500000002,
          "durationTicks": 480,
          "midi": 38,
          "name": "D2",
          "ticks": 277200,
          "time": 157.50013125,
          "velocity": 1
        },
        {
          "duration": 0.272727500000002,
          "durationTicks": 480,
          "midi": 69,
          "name": "A4",
          "ticks": 277200,
          "time": 157.50013125,
          "velocity": 1
        },
        {
          "duration": 0.272727500000002,
          "durationTicks": 480,
          "midi": 46,
          "name": "A#2",
          "ticks": 277440,
          "time": 157.636495,
          "velocity": 1
        },
        {
          "duration": 0.272727500000002,
          "durationTicks": 480,
          "midi": 46,
          "name": "A#2",
          "ticks": 277920,
          "time": 157.9092225,
          "velocity": 1
        },
        {
          "duration": 0.272727500000002,
          "durationTicks": 480,
          "midi": 35,
          "name": "B1",
          "ticks": 277920,
          "time": 157.9092225,
          "velocity": 1
        },
        {
          "duration": 0.272727500000002,
          "durationTicks": 480,
          "midi": 70,
          "name": "A#4",
          "ticks": 277920,
          "time": 157.9092225,
          "velocity": 1
        },
        {
          "duration": 0.272727500000002,
          "durationTicks": 480,
          "midi": 46,
          "name": "A#2",
          "ticks": 278400,
          "time": 158.18195,
          "velocity": 1
        },
        {
          "duration": 0.272727500000002,
          "durationTicks": 480,
          "midi": 35,
          "name": "B1",
          "ticks": 278880,
          "time": 158.4546775,
          "velocity": 1
        },
        {
          "duration": 0.272727500000002,
          "durationTicks": 480,
          "midi": 46,
          "name": "A#2",
          "ticks": 278880,
          "time": 158.4546775,
          "velocity": 1
        },
        {
          "duration": 0.272727500000002,
          "durationTicks": 480,
          "midi": 70,
          "name": "A#4",
          "ticks": 278880,
          "time": 158.4546775,
          "velocity": 1
        },
        {
          "duration": 0.13636375000001522,
          "durationTicks": 240,
          "midi": 38,
          "name": "D2",
          "ticks": 279360,
          "time": 158.727405,
          "velocity": 1
        },
        {
          "duration": 0.545455000000004,
          "durationTicks": 960,
          "midi": 49,
          "name": "C#3",
          "ticks": 279360,
          "time": 158.727405,
          "velocity": 1
        },
        {
          "duration": 0.272727500000002,
          "durationTicks": 480,
          "midi": 46,
          "name": "A#2",
          "ticks": 279360,
          "time": 158.727405,
          "velocity": 1
        },
        {
          "duration": 0.13636375000001522,
          "durationTicks": 240,
          "midi": 69,
          "name": "A4",
          "ticks": 279360,
          "time": 158.727405,
          "velocity": 1
        },
        {
          "duration": 0.1363637499999868,
          "durationTicks": 240,
          "midi": 38,
          "name": "D2",
          "ticks": 279600,
          "time": 158.86376875000002,
          "velocity": 1
        },
        {
          "duration": 0.1363637499999868,
          "durationTicks": 240,
          "midi": 69,
          "name": "A4",
          "ticks": 279600,
          "time": 158.86376875000002,
          "velocity": 1
        },
        {
          "duration": 0.272727500000002,
          "durationTicks": 480,
          "midi": 46,
          "name": "A#2",
          "ticks": 279840,
          "time": 159.0001325,
          "velocity": 1
        },
        {
          "duration": 0.1363637499999868,
          "durationTicks": 240,
          "midi": 38,
          "name": "D2",
          "ticks": 279840,
          "time": 159.0001325,
          "velocity": 1
        },
        {
          "duration": 0.1363637499999868,
          "durationTicks": 240,
          "midi": 69,
          "name": "A4",
          "ticks": 279840,
          "time": 159.0001325,
          "velocity": 1
        },
        {
          "duration": 0.13636375000001522,
          "durationTicks": 240,
          "midi": 38,
          "name": "D2",
          "ticks": 280080,
          "time": 159.13649625,
          "velocity": 1
        },
        {
          "duration": 0.13636375000001522,
          "durationTicks": 240,
          "midi": 69,
          "name": "A4",
          "ticks": 280080,
          "time": 159.13649625,
          "velocity": 1
        },
        {
          "duration": 0.272727500000002,
          "durationTicks": 480,
          "midi": 46,
          "name": "A#2",
          "ticks": 280320,
          "time": 159.27286,
          "velocity": 1
        },
        {
          "duration": 0.545455000000004,
          "durationTicks": 960,
          "midi": 49,
          "name": "C#3",
          "ticks": 280320,
          "time": 159.27286,
          "velocity": 1
        },
        {
          "duration": 0.272727500000002,
          "durationTicks": 480,
          "midi": 35,
          "name": "B1",
          "ticks": 280320,
          "time": 159.27286,
          "velocity": 1
        },
        {
          "duration": 0.272727500000002,
          "durationTicks": 480,
          "midi": 70,
          "name": "A#4",
          "ticks": 280320,
          "time": 159.27286,
          "velocity": 1
        },
        {
          "duration": 0.272727500000002,
          "durationTicks": 480,
          "midi": 46,
          "name": "A#2",
          "ticks": 280800,
          "time": 159.5455875,
          "velocity": 1
        },
        {
          "duration": 0.272727500000002,
          "durationTicks": 480,
          "midi": 38,
          "name": "D2",
          "ticks": 281040,
          "time": 159.68195125,
          "velocity": 1
        },
        {
          "duration": 0.272727500000002,
          "durationTicks": 480,
          "midi": 69,
          "name": "A4",
          "ticks": 281040,
          "time": 159.68195125,
          "velocity": 1
        },
        {
          "duration": 0.272727500000002,
          "durationTicks": 480,
          "midi": 46,
          "name": "A#2",
          "ticks": 281280,
          "time": 159.818315,
          "velocity": 1
        },
        {
          "duration": 0.272727500000002,
          "durationTicks": 480,
          "midi": 46,
          "name": "A#2",
          "ticks": 281760,
          "time": 160.09104250000001,
          "velocity": 1
        },
        {
          "duration": 0.272727500000002,
          "durationTicks": 480,
          "midi": 35,
          "name": "B1",
          "ticks": 281760,
          "time": 160.09104250000001,
          "velocity": 1
        },
        {
          "duration": 0.272727500000002,
          "durationTicks": 480,
          "midi": 70,
          "name": "A#4",
          "ticks": 281760,
          "time": 160.09104250000001,
          "velocity": 1
        },
        {
          "duration": 0.272727500000002,
          "durationTicks": 480,
          "midi": 46,
          "name": "A#2",
          "ticks": 282240,
          "time": 160.36377000000002,
          "velocity": 1
        },
        {
          "duration": 0.272727500000002,
          "durationTicks": 480,
          "midi": 46,
          "name": "A#2",
          "ticks": 282720,
          "time": 160.63649750000002,
          "velocity": 1
        },
        {
          "duration": 0.272727500000002,
          "durationTicks": 480,
          "midi": 35,
          "name": "B1",
          "ticks": 282720,
          "time": 160.63649750000002,
          "velocity": 1
        },
        {
          "duration": 0.272727500000002,
          "durationTicks": 480,
          "midi": 70,
          "name": "A#4",
          "ticks": 282720,
          "time": 160.63649750000002,
          "velocity": 1
        },
        {
          "duration": 0.2727274999999736,
          "durationTicks": 480,
          "midi": 46,
          "name": "A#2",
          "ticks": 283200,
          "time": 160.90922500000002,
          "velocity": 1
        },
        {
          "duration": 0.2727274999999736,
          "durationTicks": 480,
          "midi": 38,
          "name": "D2",
          "ticks": 283200,
          "time": 160.90922500000002,
          "velocity": 1
        },
        {
          "duration": 0.2727274999999736,
          "durationTicks": 480,
          "midi": 69,
          "name": "A4",
          "ticks": 283200,
          "time": 160.90922500000002,
          "velocity": 1
        },
        {
          "duration": 0.272727500000002,
          "durationTicks": 480,
          "midi": 46,
          "name": "A#2",
          "ticks": 283680,
          "time": 161.1819525,
          "velocity": 1
        },
        {
          "duration": 0.272727500000002,
          "durationTicks": 480,
          "midi": 35,
          "name": "B1",
          "ticks": 283680,
          "time": 161.1819525,
          "velocity": 1
        },
        {
          "duration": 0.272727500000002,
          "durationTicks": 480,
          "midi": 70,
          "name": "A#4",
          "ticks": 283680,
          "time": 161.1819525,
          "velocity": 1
        },
        {
          "duration": 0.272727500000002,
          "durationTicks": 480,
          "midi": 46,
          "name": "A#2",
          "ticks": 284160,
          "time": 161.45468,
          "velocity": 1
        },
        {
          "duration": 0.272727500000002,
          "durationTicks": 480,
          "midi": 35,
          "name": "B1",
          "ticks": 284160,
          "time": 161.45468,
          "velocity": 1
        },
        {
          "duration": 0.272727500000002,
          "durationTicks": 480,
          "midi": 70,
          "name": "A#4",
          "ticks": 284160,
          "time": 161.45468,
          "velocity": 1
        },
        {
          "duration": 0.272727500000002,
          "durationTicks": 480,
          "midi": 46,
          "name": "A#2",
          "ticks": 284640,
          "time": 161.7274075,
          "velocity": 1
        },
        {
          "duration": 0.272727500000002,
          "durationTicks": 480,
          "midi": 38,
          "name": "D2",
          "ticks": 284880,
          "time": 161.86377125,
          "velocity": 1
        },
        {
          "duration": 0.272727500000002,
          "durationTicks": 480,
          "midi": 69,
          "name": "A4",
          "ticks": 284880,
          "time": 161.86377125,
          "velocity": 1
        },
        {
          "duration": 0.272727500000002,
          "durationTicks": 480,
          "midi": 46,
          "name": "A#2",
          "ticks": 285120,
          "time": 162.000135,
          "velocity": 1
        },
        {
          "duration": 0.272727500000002,
          "durationTicks": 480,
          "midi": 46,
          "name": "A#2",
          "ticks": 285600,
          "time": 162.2728625,
          "velocity": 1
        },
        {
          "duration": 0.272727500000002,
          "durationTicks": 480,
          "midi": 35,
          "name": "B1",
          "ticks": 285600,
          "time": 162.2728625,
          "velocity": 1
        },
        {
          "duration": 0.272727500000002,
          "durationTicks": 480,
          "midi": 70,
          "name": "A#4",
          "ticks": 285600,
          "time": 162.2728625,
          "velocity": 1
        },
        {
          "duration": 0.272727500000002,
          "durationTicks": 480,
          "midi": 46,
          "name": "A#2",
          "ticks": 286080,
          "time": 162.54559,
          "velocity": 1
        },
        {
          "duration": 0.272727500000002,
          "durationTicks": 480,
          "midi": 46,
          "name": "A#2",
          "ticks": 286560,
          "time": 162.8183175,
          "velocity": 1
        },
        {
          "duration": 0.272727500000002,
          "durationTicks": 480,
          "midi": 35,
          "name": "B1",
          "ticks": 286560,
          "time": 162.8183175,
          "velocity": 1
        },
        {
          "duration": 0.272727500000002,
          "durationTicks": 480,
          "midi": 70,
          "name": "A#4",
          "ticks": 286560,
          "time": 162.8183175,
          "velocity": 1
        },
        {
          "duration": 0.272727500000002,
          "durationTicks": 480,
          "midi": 46,
          "name": "A#2",
          "ticks": 287040,
          "time": 163.091045,
          "velocity": 1
        },
        {
          "duration": 0.1363637499999868,
          "durationTicks": 240,
          "midi": 38,
          "name": "D2",
          "ticks": 287040,
          "time": 163.091045,
          "velocity": 1
        },
        {
          "duration": 0.1363637499999868,
          "durationTicks": 240,
          "midi": 69,
          "name": "A4",
          "ticks": 287040,
          "time": 163.091045,
          "velocity": 1
        },
        {
          "duration": 0.13636375000001522,
          "durationTicks": 240,
          "midi": 38,
          "name": "D2",
          "ticks": 287280,
          "time": 163.22740875,
          "velocity": 1
        },
        {
          "duration": 0.13636375000001522,
          "durationTicks": 240,
          "midi": 69,
          "name": "A4",
          "ticks": 287280,
          "time": 163.22740875,
          "velocity": 1
        },
        {
          "duration": 0.272727500000002,
          "durationTicks": 480,
          "midi": 46,
          "name": "A#2",
          "ticks": 287520,
          "time": 163.3637725,
          "velocity": 1
        },
        {
          "duration": 0.272727500000002,
          "durationTicks": 480,
          "midi": 35,
          "name": "B1",
          "ticks": 287520,
          "time": 163.3637725,
          "velocity": 1
        },
        {
          "duration": 0.272727500000002,
          "durationTicks": 480,
          "midi": 70,
          "name": "A#4",
          "ticks": 287520,
          "time": 163.3637725,
          "velocity": 1
        },
        {
          "duration": 0.272727500000002,
          "durationTicks": 480,
          "midi": 46,
          "name": "A#2",
          "ticks": 288000,
          "time": 163.6365,
          "velocity": 1
        },
        {
          "duration": 0.272727500000002,
          "durationTicks": 480,
          "midi": 35,
          "name": "B1",
          "ticks": 288000,
          "time": 163.6365,
          "velocity": 1
        },
        {
          "duration": 0.272727500000002,
          "durationTicks": 480,
          "midi": 70,
          "name": "A#4",
          "ticks": 288000,
          "time": 163.6365,
          "velocity": 1
        },
        {
          "duration": 0.545455000000004,
          "durationTicks": 960,
          "midi": 49,
          "name": "C#3",
          "ticks": 288000,
          "time": 163.6365,
          "velocity": 1
        },
        {
          "duration": 0.272727500000002,
          "durationTicks": 480,
          "midi": 46,
          "name": "A#2",
          "ticks": 288480,
          "time": 163.90922750000001,
          "velocity": 1
        },
        {
          "duration": 0.272727500000002,
          "durationTicks": 480,
          "midi": 38,
          "name": "D2",
          "ticks": 288720,
          "time": 164.04559125,
          "velocity": 1
        },
        {
          "duration": 0.272727500000002,
          "durationTicks": 480,
          "midi": 69,
          "name": "A4",
          "ticks": 288720,
          "time": 164.04559125,
          "velocity": 1
        },
        {
          "duration": 0.272727500000002,
          "durationTicks": 480,
          "midi": 46,
          "name": "A#2",
          "ticks": 288960,
          "time": 164.18195500000002,
          "velocity": 1
        },
        {
          "duration": 0.272727500000002,
          "durationTicks": 480,
          "midi": 46,
          "name": "A#2",
          "ticks": 289440,
          "time": 164.45468250000002,
          "velocity": 1
        },
        {
          "duration": 0.272727500000002,
          "durationTicks": 480,
          "midi": 35,
          "name": "B1",
          "ticks": 289440,
          "time": 164.45468250000002,
          "velocity": 1
        },
        {
          "duration": 0.272727500000002,
          "durationTicks": 480,
          "midi": 70,
          "name": "A#4",
          "ticks": 289440,
          "time": 164.45468250000002,
          "velocity": 1
        },
        {
          "duration": 0.2727274999999736,
          "durationTicks": 480,
          "midi": 46,
          "name": "A#2",
          "ticks": 289920,
          "time": 164.72741000000002,
          "velocity": 1
        },
        {
          "duration": 0.272727500000002,
          "durationTicks": 480,
          "midi": 46,
          "name": "A#2",
          "ticks": 290400,
          "time": 165.0001375,
          "velocity": 1
        },
        {
          "duration": 0.272727500000002,
          "durationTicks": 480,
          "midi": 35,
          "name": "B1",
          "ticks": 290400,
          "time": 165.0001375,
          "velocity": 1
        },
        {
          "duration": 0.272727500000002,
          "durationTicks": 480,
          "midi": 70,
          "name": "A#4",
          "ticks": 290400,
          "time": 165.0001375,
          "velocity": 1
        },
        {
          "duration": 0.272727500000002,
          "durationTicks": 480,
          "midi": 46,
          "name": "A#2",
          "ticks": 290880,
          "time": 165.272865,
          "velocity": 1
        },
        {
          "duration": 0.272727500000002,
          "durationTicks": 480,
          "midi": 38,
          "name": "D2",
          "ticks": 290880,
          "time": 165.272865,
          "velocity": 1
        },
        {
          "duration": 0.13636375000001522,
          "durationTicks": 240,
          "midi": 69,
          "name": "A4",
          "ticks": 290880,
          "time": 165.272865,
          "velocity": 1
        },
        {
          "duration": 0.1363637499999868,
          "durationTicks": 240,
          "midi": 69,
          "name": "A4",
          "ticks": 291120,
          "time": 165.40922875,
          "velocity": 1
        },
        {
          "duration": 0.272727500000002,
          "durationTicks": 480,
          "midi": 46,
          "name": "A#2",
          "ticks": 291360,
          "time": 165.5455925,
          "velocity": 1
        },
        {
          "duration": 0.272727500000002,
          "durationTicks": 480,
          "midi": 35,
          "name": "B1",
          "ticks": 291360,
          "time": 165.5455925,
          "velocity": 1
        },
        {
          "duration": 0.272727500000002,
          "durationTicks": 480,
          "midi": 70,
          "name": "A#4",
          "ticks": 291360,
          "time": 165.5455925,
          "velocity": 1
        },
        {
          "duration": 0.272727500000002,
          "durationTicks": 480,
          "midi": 46,
          "name": "A#2",
          "ticks": 291840,
          "time": 165.81832,
          "velocity": 1
        },
        {
          "duration": 0.272727500000002,
          "durationTicks": 480,
          "midi": 35,
          "name": "B1",
          "ticks": 291840,
          "time": 165.81832,
          "velocity": 1
        },
        {
          "duration": 0.272727500000002,
          "durationTicks": 480,
          "midi": 70,
          "name": "A#4",
          "ticks": 291840,
          "time": 165.81832,
          "velocity": 1
        },
        {
          "duration": 0.272727500000002,
          "durationTicks": 480,
          "midi": 46,
          "name": "A#2",
          "ticks": 292320,
          "time": 166.0910475,
          "velocity": 1
        },
        {
          "duration": 0.272727500000002,
          "durationTicks": 480,
          "midi": 38,
          "name": "D2",
          "ticks": 292560,
          "time": 166.22741125000002,
          "velocity": 1
        },
        {
          "duration": 0.272727500000002,
          "durationTicks": 480,
          "midi": 69,
          "name": "A4",
          "ticks": 292560,
          "time": 166.22741125000002,
          "velocity": 1
        },
        {
          "duration": 0.272727500000002,
          "durationTicks": 480,
          "midi": 46,
          "name": "A#2",
          "ticks": 292800,
          "time": 166.363775,
          "velocity": 1
        },
        {
          "duration": 0.272727500000002,
          "durationTicks": 480,
          "midi": 46,
          "name": "A#2",
          "ticks": 293280,
          "time": 166.6365025,
          "velocity": 1
        },
        {
          "duration": 0.272727500000002,
          "durationTicks": 480,
          "midi": 35,
          "name": "B1",
          "ticks": 293280,
          "time": 166.6365025,
          "velocity": 1
        },
        {
          "duration": 0.272727500000002,
          "durationTicks": 480,
          "midi": 70,
          "name": "A#4",
          "ticks": 293280,
          "time": 166.6365025,
          "velocity": 1
        },
        {
          "duration": 0.272727500000002,
          "durationTicks": 480,
          "midi": 46,
          "name": "A#2",
          "ticks": 293760,
          "time": 166.90923,
          "velocity": 1
        },
        {
          "duration": 0.272727500000002,
          "durationTicks": 480,
          "midi": 35,
          "name": "B1",
          "ticks": 294240,
          "time": 167.1819575,
          "velocity": 1
        },
        {
          "duration": 0.272727500000002,
          "durationTicks": 480,
          "midi": 46,
          "name": "A#2",
          "ticks": 294240,
          "time": 167.1819575,
          "velocity": 1
        },
        {
          "duration": 0.272727500000002,
          "durationTicks": 480,
          "midi": 70,
          "name": "A#4",
          "ticks": 294240,
          "time": 167.1819575,
          "velocity": 1
        },
        {
          "duration": 0.1363637499999868,
          "durationTicks": 240,
          "midi": 38,
          "name": "D2",
          "ticks": 294720,
          "time": 167.454685,
          "velocity": 1
        },
        {
          "duration": 0.545455000000004,
          "durationTicks": 960,
          "midi": 49,
          "name": "C#3",
          "ticks": 294720,
          "time": 167.454685,
          "velocity": 1
        },
        {
          "duration": 0.272727500000002,
          "durationTicks": 480,
          "midi": 46,
          "name": "A#2",
          "ticks": 294720,
          "time": 167.454685,
          "velocity": 1
        },
        {
          "duration": 0.1363637499999868,
          "durationTicks": 240,
          "midi": 69,
          "name": "A4",
          "ticks": 294720,
          "time": 167.454685,
          "velocity": 1
        },
        {
          "duration": 0.13636375000001522,
          "durationTicks": 240,
          "midi": 38,
          "name": "D2",
          "ticks": 294960,
          "time": 167.59104875,
          "velocity": 1
        },
        {
          "duration": 0.13636375000001522,
          "durationTicks": 240,
          "midi": 69,
          "name": "A4",
          "ticks": 294960,
          "time": 167.59104875,
          "velocity": 1
        },
        {
          "duration": 0.272727500000002,
          "durationTicks": 480,
          "midi": 35,
          "name": "B1",
          "ticks": 295200,
          "time": 167.7274125,
          "velocity": 1
        },
        {
          "duration": 0.272727500000002,
          "durationTicks": 480,
          "midi": 46,
          "name": "A#2",
          "ticks": 295200,
          "time": 167.7274125,
          "velocity": 1
        },
        {
          "duration": 0.272727500000002,
          "durationTicks": 480,
          "midi": 70,
          "name": "A#4",
          "ticks": 295200,
          "time": 167.7274125,
          "velocity": 1
        },
        {
          "duration": 0.272727500000002,
          "durationTicks": 480,
          "midi": 46,
          "name": "A#2",
          "ticks": 295680,
          "time": 168.00014000000002,
          "velocity": 1
        },
        {
          "duration": 0.545455000000004,
          "durationTicks": 960,
          "midi": 49,
          "name": "C#3",
          "ticks": 295680,
          "time": 168.00014000000002,
          "velocity": 1
        },
        {
          "duration": 0.272727500000002,
          "durationTicks": 480,
          "midi": 35,
          "name": "B1",
          "ticks": 295680,
          "time": 168.00014000000002,
          "velocity": 1
        },
        {
          "duration": 0.272727500000002,
          "durationTicks": 480,
          "midi": 70,
          "name": "A#4",
          "ticks": 295680,
          "time": 168.00014000000002,
          "velocity": 1
        },
        {
          "duration": 0.272727500000002,
          "durationTicks": 480,
          "midi": 46,
          "name": "A#2",
          "ticks": 296160,
          "time": 168.27286750000002,
          "velocity": 1
        },
        {
          "duration": 0.272727500000002,
          "durationTicks": 480,
          "midi": 38,
          "name": "D2",
          "ticks": 296400,
          "time": 168.40923125,
          "velocity": 1
        },
        {
          "duration": 0.272727500000002,
          "durationTicks": 480,
          "midi": 69,
          "name": "A4",
          "ticks": 296400,
          "time": 168.40923125,
          "velocity": 1
        },
        {
          "duration": 0.2727274999999736,
          "durationTicks": 480,
          "midi": 46,
          "name": "A#2",
          "ticks": 296640,
          "time": 168.54559500000002,
          "velocity": 1
        },
        {
          "duration": 0.272727500000002,
          "durationTicks": 480,
          "midi": 46,
          "name": "A#2",
          "ticks": 297120,
          "time": 168.8183225,
          "velocity": 1
        },
        {
          "duration": 0.272727500000002,
          "durationTicks": 480,
          "midi": 35,
          "name": "B1",
          "ticks": 297120,
          "time": 168.8183225,
          "velocity": 1
        },
        {
          "duration": 0.272727500000002,
          "durationTicks": 480,
          "midi": 70,
          "name": "A#4",
          "ticks": 297120,
          "time": 168.8183225,
          "velocity": 1
        },
        {
          "duration": 0.272727500000002,
          "durationTicks": 480,
          "midi": 46,
          "name": "A#2",
          "ticks": 297600,
          "time": 169.09105,
          "velocity": 1
        },
        {
          "duration": 0.272727500000002,
          "durationTicks": 480,
          "midi": 46,
          "name": "A#2",
          "ticks": 298080,
          "time": 169.3637775,
          "velocity": 1
        },
        {
          "duration": 0.272727500000002,
          "durationTicks": 480,
          "midi": 35,
          "name": "B1",
          "ticks": 298080,
          "time": 169.3637775,
          "velocity": 1
        },
        {
          "duration": 0.272727500000002,
          "durationTicks": 480,
          "midi": 70,
          "name": "A#4",
          "ticks": 298080,
          "time": 169.3637775,
          "velocity": 1
        },
        {
          "duration": 0.272727500000002,
          "durationTicks": 480,
          "midi": 46,
          "name": "A#2",
          "ticks": 298560,
          "time": 169.636505,
          "velocity": 1
        },
        {
          "duration": 0.272727500000002,
          "durationTicks": 480,
          "midi": 38,
          "name": "D2",
          "ticks": 298560,
          "time": 169.636505,
          "velocity": 1
        },
        {
          "duration": 0.272727500000002,
          "durationTicks": 480,
          "midi": 69,
          "name": "A4",
          "ticks": 298560,
          "time": 169.636505,
          "velocity": 1
        },
        {
          "duration": 0.272727500000002,
          "durationTicks": 480,
          "midi": 46,
          "name": "A#2",
          "ticks": 299040,
          "time": 169.9092325,
          "velocity": 1
        },
        {
          "duration": 0.272727500000002,
          "durationTicks": 480,
          "midi": 35,
          "name": "B1",
          "ticks": 299040,
          "time": 169.9092325,
          "velocity": 1
        },
        {
          "duration": 0.272727500000002,
          "durationTicks": 480,
          "midi": 70,
          "name": "A#4",
          "ticks": 299040,
          "time": 169.9092325,
          "velocity": 1
        },
        {
          "duration": 0.272727500000002,
          "durationTicks": 480,
          "midi": 46,
          "name": "A#2",
          "ticks": 299520,
          "time": 170.18196,
          "velocity": 1
        },
        {
          "duration": 0.272727500000002,
          "durationTicks": 480,
          "midi": 35,
          "name": "B1",
          "ticks": 299520,
          "time": 170.18196,
          "velocity": 1
        },
        {
          "duration": 0.272727500000002,
          "durationTicks": 480,
          "midi": 70,
          "name": "A#4",
          "ticks": 299520,
          "time": 170.18196,
          "velocity": 1
        },
        {
          "duration": 0.272727500000002,
          "durationTicks": 480,
          "midi": 46,
          "name": "A#2",
          "ticks": 300000,
          "time": 170.4546875,
          "velocity": 1
        },
        {
          "duration": 0.2727274999999736,
          "durationTicks": 480,
          "midi": 38,
          "name": "D2",
          "ticks": 300240,
          "time": 170.59105125000002,
          "velocity": 1
        },
        {
          "duration": 0.2727274999999736,
          "durationTicks": 480,
          "midi": 69,
          "name": "A4",
          "ticks": 300240,
          "time": 170.59105125000002,
          "velocity": 1
        },
        {
          "duration": 0.272727500000002,
          "durationTicks": 480,
          "midi": 46,
          "name": "A#2",
          "ticks": 300480,
          "time": 170.727415,
          "velocity": 1
        },
        {
          "duration": 0.272727500000002,
          "durationTicks": 480,
          "midi": 46,
          "name": "A#2",
          "ticks": 300960,
          "time": 171.0001425,
          "velocity": 1
        },
        {
          "duration": 0.272727500000002,
          "durationTicks": 480,
          "midi": 35,
          "name": "B1",
          "ticks": 300960,
          "time": 171.0001425,
          "velocity": 1
        },
        {
          "duration": 0.272727500000002,
          "durationTicks": 480,
          "midi": 70,
          "name": "A#4",
          "ticks": 300960,
          "time": 171.0001425,
          "velocity": 1
        },
        {
          "duration": 0.272727500000002,
          "durationTicks": 480,
          "midi": 46,
          "name": "A#2",
          "ticks": 301440,
          "time": 171.27287,
          "velocity": 1
        },
        {
          "duration": 0.272727500000002,
          "durationTicks": 480,
          "midi": 46,
          "name": "A#2",
          "ticks": 301920,
          "time": 171.5455975,
          "velocity": 1
        },
        {
          "duration": 0.272727500000002,
          "durationTicks": 480,
          "midi": 35,
          "name": "B1",
          "ticks": 301920,
          "time": 171.5455975,
          "velocity": 1
        },
        {
          "duration": 0.272727500000002,
          "durationTicks": 480,
          "midi": 70,
          "name": "A#4",
          "ticks": 301920,
          "time": 171.5455975,
          "velocity": 1
        },
        {
          "duration": 0.272727500000002,
          "durationTicks": 480,
          "midi": 46,
          "name": "A#2",
          "ticks": 302400,
          "time": 171.81832500000002,
          "velocity": 1
        },
        {
          "duration": 0.1363637499999868,
          "durationTicks": 240,
          "midi": 38,
          "name": "D2",
          "ticks": 302400,
          "time": 171.81832500000002,
          "velocity": 1
        },
        {
          "duration": 0.1363637499999868,
          "durationTicks": 240,
          "midi": 69,
          "name": "A4",
          "ticks": 302400,
          "time": 171.81832500000002,
          "velocity": 1
        },
        {
          "duration": 0.13636375000001522,
          "durationTicks": 240,
          "midi": 38,
          "name": "D2",
          "ticks": 302640,
          "time": 171.95468875,
          "velocity": 1
        },
        {
          "duration": 0.13636375000001522,
          "durationTicks": 240,
          "midi": 69,
          "name": "A4",
          "ticks": 302640,
          "time": 171.95468875,
          "velocity": 1
        },
        {
          "duration": 0.272727500000002,
          "durationTicks": 480,
          "midi": 46,
          "name": "A#2",
          "ticks": 302880,
          "time": 172.09105250000002,
          "velocity": 1
        },
        {
          "duration": 0.272727500000002,
          "durationTicks": 480,
          "midi": 35,
          "name": "B1",
          "ticks": 302880,
          "time": 172.09105250000002,
          "velocity": 1
        },
        {
          "duration": 0.272727500000002,
          "durationTicks": 480,
          "midi": 70,
          "name": "A#4",
          "ticks": 302880,
          "time": 172.09105250000002,
          "velocity": 1
        },
        {
          "duration": 0.2727274999999736,
          "durationTicks": 480,
          "midi": 46,
          "name": "A#2",
          "ticks": 303360,
          "time": 172.36378000000002,
          "velocity": 1
        },
        {
          "duration": 0.2727274999999736,
          "durationTicks": 480,
          "midi": 35,
          "name": "B1",
          "ticks": 303360,
          "time": 172.36378000000002,
          "velocity": 1
        },
        {
          "duration": 0.2727274999999736,
          "durationTicks": 480,
          "midi": 70,
          "name": "A#4",
          "ticks": 303360,
          "time": 172.36378000000002,
          "velocity": 1
        },
        {
          "duration": 0.5454549999999756,
          "durationTicks": 960,
          "midi": 49,
          "name": "C#3",
          "ticks": 303360,
          "time": 172.36378000000002,
          "velocity": 1
        },
        {
          "duration": 0.272727500000002,
          "durationTicks": 480,
          "midi": 46,
          "name": "A#2",
          "ticks": 303840,
          "time": 172.6365075,
          "velocity": 1
        },
        {
          "duration": 0.272727500000002,
          "durationTicks": 480,
          "midi": 38,
          "name": "D2",
          "ticks": 304080,
          "time": 172.77287125,
          "velocity": 1
        },
        {
          "duration": 0.272727500000002,
          "durationTicks": 480,
          "midi": 69,
          "name": "A4",
          "ticks": 304080,
          "time": 172.77287125,
          "velocity": 1
        },
        {
          "duration": 0.272727500000002,
          "durationTicks": 480,
          "midi": 46,
          "name": "A#2",
          "ticks": 304320,
          "time": 172.909235,
          "velocity": 1
        },
        {
          "duration": 0.272727500000002,
          "durationTicks": 480,
          "midi": 46,
          "name": "A#2",
          "ticks": 304800,
          "time": 173.1819625,
          "velocity": 1
        },
        {
          "duration": 0.272727500000002,
          "durationTicks": 480,
          "midi": 35,
          "name": "B1",
          "ticks": 304800,
          "time": 173.1819625,
          "velocity": 1
        },
        {
          "duration": 0.272727500000002,
          "durationTicks": 480,
          "midi": 70,
          "name": "A#4",
          "ticks": 304800,
          "time": 173.1819625,
          "velocity": 1
        },
        {
          "duration": 0.272727500000002,
          "durationTicks": 480,
          "midi": 46,
          "name": "A#2",
          "ticks": 305280,
          "time": 173.45469,
          "velocity": 1
        },
        {
          "duration": 0.272727500000002,
          "durationTicks": 480,
          "midi": 46,
          "name": "A#2",
          "ticks": 305760,
          "time": 173.7274175,
          "velocity": 1
        },
        {
          "duration": 0.272727500000002,
          "durationTicks": 480,
          "midi": 35,
          "name": "B1",
          "ticks": 305760,
          "time": 173.7274175,
          "velocity": 1
        },
        {
          "duration": 0.272727500000002,
          "durationTicks": 480,
          "midi": 70,
          "name": "A#4",
          "ticks": 305760,
          "time": 173.7274175,
          "velocity": 1
        },
        {
          "duration": 0.272727500000002,
          "durationTicks": 480,
          "midi": 46,
          "name": "A#2",
          "ticks": 306240,
          "time": 174.000145,
          "velocity": 1
        },
        {
          "duration": 0.272727500000002,
          "durationTicks": 480,
          "midi": 38,
          "name": "D2",
          "ticks": 306240,
          "time": 174.000145,
          "velocity": 1
        },
        {
          "duration": 0.13636375000001522,
          "durationTicks": 240,
          "midi": 69,
          "name": "A4",
          "ticks": 306240,
          "time": 174.000145,
          "velocity": 1
        },
        {
          "duration": 0.1363637499999868,
          "durationTicks": 240,
          "midi": 69,
          "name": "A4",
          "ticks": 306480,
          "time": 174.13650875000002,
          "velocity": 1
        },
        {
          "duration": 0.272727500000002,
          "durationTicks": 480,
          "midi": 46,
          "name": "A#2",
          "ticks": 306720,
          "time": 174.2728725,
          "velocity": 1
        },
        {
          "duration": 0.272727500000002,
          "durationTicks": 480,
          "midi": 35,
          "name": "B1",
          "ticks": 306720,
          "time": 174.2728725,
          "velocity": 1
        },
        {
          "duration": 0.272727500000002,
          "durationTicks": 480,
          "midi": 70,
          "name": "A#4",
          "ticks": 306720,
          "time": 174.2728725,
          "velocity": 1
        },
        {
          "duration": 0.272727500000002,
          "durationTicks": 480,
          "midi": 46,
          "name": "A#2",
          "ticks": 307200,
          "time": 174.5456,
          "velocity": 1
        },
        {
          "duration": 0.272727500000002,
          "durationTicks": 480,
          "midi": 35,
          "name": "B1",
          "ticks": 307200,
          "time": 174.5456,
          "velocity": 1
        },
        {
          "duration": 0.272727500000002,
          "durationTicks": 480,
          "midi": 70,
          "name": "A#4",
          "ticks": 307200,
          "time": 174.5456,
          "velocity": 1
        },
        {
          "duration": 0.272727500000002,
          "durationTicks": 480,
          "midi": 46,
          "name": "A#2",
          "ticks": 307680,
          "time": 174.8183275,
          "velocity": 1
        },
        {
          "duration": 0.272727500000002,
          "durationTicks": 480,
          "midi": 38,
          "name": "D2",
          "ticks": 307920,
          "time": 174.95469125,
          "velocity": 1
        },
        {
          "duration": 0.272727500000002,
          "durationTicks": 480,
          "midi": 69,
          "name": "A4",
          "ticks": 307920,
          "time": 174.95469125,
          "velocity": 1
        },
        {
          "duration": 0.272727500000002,
          "durationTicks": 480,
          "midi": 46,
          "name": "A#2",
          "ticks": 308160,
          "time": 175.091055,
          "velocity": 1
        },
        {
          "duration": 0.272727500000002,
          "durationTicks": 480,
          "midi": 46,
          "name": "A#2",
          "ticks": 308640,
          "time": 175.3637825,
          "velocity": 1
        },
        {
          "duration": 0.272727500000002,
          "durationTicks": 480,
          "midi": 35,
          "name": "B1",
          "ticks": 308640,
          "time": 175.3637825,
          "velocity": 1
        },
        {
          "duration": 0.272727500000002,
          "durationTicks": 480,
          "midi": 70,
          "name": "A#4",
          "ticks": 308640,
          "time": 175.3637825,
          "velocity": 1
        },
        {
          "duration": 0.272727500000002,
          "durationTicks": 480,
          "midi": 46,
          "name": "A#2",
          "ticks": 309120,
          "time": 175.63651000000002,
          "velocity": 1
        },
        {
          "duration": 0.272727500000002,
          "durationTicks": 480,
          "midi": 35,
          "name": "B1",
          "ticks": 309600,
          "time": 175.90923750000002,
          "velocity": 1
        },
        {
          "duration": 0.272727500000002,
          "durationTicks": 480,
          "midi": 46,
          "name": "A#2",
          "ticks": 309600,
          "time": 175.90923750000002,
          "velocity": 1
        },
        {
          "duration": 0.272727500000002,
          "durationTicks": 480,
          "midi": 70,
          "name": "A#4",
          "ticks": 309600,
          "time": 175.90923750000002,
          "velocity": 1
        },
        {
          "duration": 0.1363637499999868,
          "durationTicks": 240,
          "midi": 38,
          "name": "D2",
          "ticks": 310080,
          "time": 176.18196500000002,
          "velocity": 1
        },
        {
          "duration": 0.5454549999999756,
          "durationTicks": 960,
          "midi": 49,
          "name": "C#3",
          "ticks": 310080,
          "time": 176.18196500000002,
          "velocity": 1
        },
        {
          "duration": 0.272727500000002,
          "durationTicks": 480,
          "midi": 46,
          "name": "A#2",
          "ticks": 310080,
          "time": 176.18196500000002,
          "velocity": 1
        },
        {
          "duration": 0.1363637499999868,
          "durationTicks": 240,
          "midi": 69,
          "name": "A4",
          "ticks": 310080,
          "time": 176.18196500000002,
          "velocity": 1
        },
        {
          "duration": 0.13636375000001522,
          "durationTicks": 240,
          "midi": 38,
          "name": "D2",
          "ticks": 310320,
          "time": 176.31832875,
          "velocity": 1
        },
        {
          "duration": 0.13636375000001522,
          "durationTicks": 240,
          "midi": 69,
          "name": "A4",
          "ticks": 310320,
          "time": 176.31832875,
          "velocity": 1
        },
        {
          "duration": 0.2727274999999736,
          "durationTicks": 480,
          "midi": 46,
          "name": "A#2",
          "ticks": 310560,
          "time": 176.45469250000002,
          "velocity": 1
        },
        {
          "duration": 0.1363637499999868,
          "durationTicks": 240,
          "midi": 38,
          "name": "D2",
          "ticks": 310560,
          "time": 176.45469250000002,
          "velocity": 1
        },
        {
          "duration": 0.1363637499999868,
          "durationTicks": 240,
          "midi": 69,
          "name": "A4",
          "ticks": 310560,
          "time": 176.45469250000002,
          "velocity": 1
        },
        {
          "duration": 0.1363637499999868,
          "durationTicks": 240,
          "midi": 38,
          "name": "D2",
          "ticks": 310800,
          "time": 176.59105625,
          "velocity": 1
        },
        {
          "duration": 0.1363637499999868,
          "durationTicks": 240,
          "midi": 69,
          "name": "A4",
          "ticks": 310800,
          "time": 176.59105625,
          "velocity": 1
        },
        {
          "duration": 0.272727500000002,
          "durationTicks": 480,
          "midi": 70,
          "name": "A#4",
          "ticks": 311040,
          "time": 176.72742,
          "velocity": 1
        },
        {
          "duration": 0.545455000000004,
          "durationTicks": 960,
          "midi": 49,
          "name": "C#3",
          "ticks": 311040,
          "time": 176.72742,
          "velocity": 1
        },
        {
          "duration": 0.272727500000002,
          "durationTicks": 480,
          "midi": 42,
          "name": "F#2",
          "ticks": 311040,
          "time": 176.72742,
          "velocity": 1
        },
        {
          "duration": 0.13636375000001522,
          "durationTicks": 240,
          "midi": 44,
          "name": "G#2",
          "ticks": 311040,
          "time": 176.72742,
          "velocity": 1
        },
        {
          "duration": 0.1363637499999868,
          "durationTicks": 240,
          "midi": 44,
          "name": "G#2",
          "ticks": 311280,
          "time": 176.86378375,
          "velocity": 1
        },
        {
          "duration": 0.272727500000002,
          "durationTicks": 480,
          "midi": 42,
          "name": "F#2",
          "ticks": 311520,
          "time": 177.0001475,
          "velocity": 1
        },
        {
          "duration": 0.272727500000002,
          "durationTicks": 480,
          "midi": 69,
          "name": "A4",
          "ticks": 311760,
          "time": 177.13651125,
          "velocity": 1
        },
        {
          "duration": 0.272727500000002,
          "durationTicks": 480,
          "midi": 46,
          "name": "A#2",
          "ticks": 311760,
          "time": 177.13651125,
          "velocity": 1
        },
        {
          "duration": 0.272727500000002,
          "durationTicks": 480,
          "midi": 42,
          "name": "F#2",
          "ticks": 312000,
          "time": 177.272875,
          "velocity": 1
        },
        {
          "duration": 0.272727500000002,
          "durationTicks": 480,
          "midi": 70,
          "name": "A#4",
          "ticks": 312480,
          "time": 177.5456025,
          "velocity": 1
        },
        {
          "duration": 0.272727500000002,
          "durationTicks": 480,
          "midi": 42,
          "name": "F#2",
          "ticks": 312480,
          "time": 177.5456025,
          "velocity": 1
        },
        {
          "duration": 0.13636375000001522,
          "durationTicks": 240,
          "midi": 44,
          "name": "G#2",
          "ticks": 312480,
          "time": 177.5456025,
          "velocity": 1
        },
        {
          "duration": 0.1363637499999868,
          "durationTicks": 240,
          "midi": 44,
          "name": "G#2",
          "ticks": 312720,
          "time": 177.68196625000002,
          "velocity": 1
        },
        {
          "duration": 0.272727500000002,
          "durationTicks": 480,
          "midi": 42,
          "name": "F#2",
          "ticks": 312960,
          "time": 177.81833,
          "velocity": 1
        },
        {
          "duration": 0.272727500000002,
          "durationTicks": 480,
          "midi": 44,
          "name": "G#2",
          "ticks": 312960,
          "time": 177.81833,
          "velocity": 1
        },
        {
          "duration": 0.272727500000002,
          "durationTicks": 480,
          "midi": 70,
          "name": "A#4",
          "ticks": 313440,
          "time": 178.0910575,
          "velocity": 1
        },
        {
          "duration": 0.272727500000002,
          "durationTicks": 480,
          "midi": 42,
          "name": "F#2",
          "ticks": 313440,
          "time": 178.0910575,
          "velocity": 1
        },
        {
          "duration": 0.272727500000002,
          "durationTicks": 480,
          "midi": 44,
          "name": "G#2",
          "ticks": 313440,
          "time": 178.0910575,
          "velocity": 1
        },
        {
          "duration": 0.1363637499999868,
          "durationTicks": 240,
          "midi": 69,
          "name": "A4",
          "ticks": 313920,
          "time": 178.363785,
          "velocity": 1
        },
        {
          "duration": 0.272727500000002,
          "durationTicks": 480,
          "midi": 42,
          "name": "F#2",
          "ticks": 313920,
          "time": 178.363785,
          "velocity": 1
        },
        {
          "duration": 0.272727500000002,
          "durationTicks": 480,
          "midi": 46,
          "name": "A#2",
          "ticks": 313920,
          "time": 178.363785,
          "velocity": 1
        },
        {
          "duration": 0.13636375000001522,
          "durationTicks": 240,
          "midi": 69,
          "name": "A4",
          "ticks": 314160,
          "time": 178.50014875,
          "velocity": 1
        },
        {
          "duration": 0.272727500000002,
          "durationTicks": 480,
          "midi": 70,
          "name": "A#4",
          "ticks": 314400,
          "time": 178.6365125,
          "velocity": 1
        },
        {
          "duration": 0.272727500000002,
          "durationTicks": 480,
          "midi": 42,
          "name": "F#2",
          "ticks": 314400,
          "time": 178.6365125,
          "velocity": 1
        },
        {
          "duration": 0.272727500000002,
          "durationTicks": 480,
          "midi": 44,
          "name": "G#2",
          "ticks": 314400,
          "time": 178.6365125,
          "velocity": 1
        },
        {
          "duration": 0.272727500000002,
          "durationTicks": 480,
          "midi": 70,
          "name": "A#4",
          "ticks": 314880,
          "time": 178.90924,
          "velocity": 1
        },
        {
          "duration": 0.272727500000002,
          "durationTicks": 480,
          "midi": 42,
          "name": "F#2",
          "ticks": 314880,
          "time": 178.90924,
          "velocity": 1
        },
        {
          "duration": 0.1363637499999868,
          "durationTicks": 240,
          "midi": 44,
          "name": "G#2",
          "ticks": 314880,
          "time": 178.90924,
          "velocity": 1
        },
        {
          "duration": 0.13636375000001522,
          "durationTicks": 240,
          "midi": 44,
          "name": "G#2",
          "ticks": 315120,
          "time": 179.04560375,
          "velocity": 1
        },
        {
          "duration": 0.272727500000002,
          "durationTicks": 480,
          "midi": 42,
          "name": "F#2",
          "ticks": 315360,
          "time": 179.1819675,
          "velocity": 1
        },
        {
          "duration": 0.272727500000002,
          "durationTicks": 480,
          "midi": 69,
          "name": "A4",
          "ticks": 315600,
          "time": 179.31833125,
          "velocity": 1
        },
        {
          "duration": 0.272727500000002,
          "durationTicks": 480,
          "midi": 46,
          "name": "A#2",
          "ticks": 315600,
          "time": 179.31833125,
          "velocity": 1
        },
        {
          "duration": 0.272727500000002,
          "durationTicks": 480,
          "midi": 42,
          "name": "F#2",
          "ticks": 315840,
          "time": 179.45469500000002,
          "velocity": 1
        },
        {
          "duration": 0.272727500000002,
          "durationTicks": 480,
          "midi": 70,
          "name": "A#4",
          "ticks": 316320,
          "time": 179.72742250000002,
          "velocity": 1
        },
        {
          "duration": 0.272727500000002,
          "durationTicks": 480,
          "midi": 42,
          "name": "F#2",
          "ticks": 316320,
          "time": 179.72742250000002,
          "velocity": 1
        },
        {
          "duration": 0.1363637499999868,
          "durationTicks": 240,
          "midi": 44,
          "name": "G#2",
          "ticks": 316320,
          "time": 179.72742250000002,
          "velocity": 1
        },
        {
          "duration": 0.13636375000001522,
          "durationTicks": 240,
          "midi": 44,
          "name": "G#2",
          "ticks": 316560,
          "time": 179.86378625,
          "velocity": 1
        },
        {
          "duration": 0.272727500000002,
          "durationTicks": 480,
          "midi": 42,
          "name": "F#2",
          "ticks": 316800,
          "time": 180.00015000000002,
          "velocity": 1
        },
        {
          "duration": 0.272727500000002,
          "durationTicks": 480,
          "midi": 44,
          "name": "G#2",
          "ticks": 316800,
          "time": 180.00015000000002,
          "velocity": 1
        },
        {
          "duration": 0.2727274999999736,
          "durationTicks": 480,
          "midi": 70,
          "name": "A#4",
          "ticks": 317280,
          "time": 180.27287750000002,
          "velocity": 1
        },
        {
          "duration": 0.2727274999999736,
          "durationTicks": 480,
          "midi": 42,
          "name": "F#2",
          "ticks": 317280,
          "time": 180.27287750000002,
          "velocity": 1
        },
        {
          "duration": 0.2727274999999736,
          "durationTicks": 480,
          "midi": 44,
          "name": "G#2",
          "ticks": 317280,
          "time": 180.27287750000002,
          "velocity": 1
        },
        {
          "duration": 0.13636375000001522,
          "durationTicks": 240,
          "midi": 69,
          "name": "A4",
          "ticks": 317760,
          "time": 180.545605,
          "velocity": 1
        },
        {
          "duration": 0.272727500000002,
          "durationTicks": 480,
          "midi": 42,
          "name": "F#2",
          "ticks": 317760,
          "time": 180.545605,
          "velocity": 1
        },
        {
          "duration": 0.272727500000002,
          "durationTicks": 480,
          "midi": 46,
          "name": "A#2",
          "ticks": 317760,
          "time": 180.545605,
          "velocity": 1
        },
        {
          "duration": 0.1363637499999868,
          "durationTicks": 240,
          "midi": 69,
          "name": "A4",
          "ticks": 318000,
          "time": 180.68196875,
          "velocity": 1
        },
        {
          "duration": 0.272727500000002,
          "durationTicks": 480,
          "midi": 70,
          "name": "A#4",
          "ticks": 318240,
          "time": 180.8183325,
          "velocity": 1
        },
        {
          "duration": 0.272727500000002,
          "durationTicks": 480,
          "midi": 42,
          "name": "F#2",
          "ticks": 318240,
          "time": 180.8183325,
          "velocity": 1
        },
        {
          "duration": 0.272727500000002,
          "durationTicks": 480,
          "midi": 44,
          "name": "G#2",
          "ticks": 318240,
          "time": 180.8183325,
          "velocity": 1
        },
        {
          "duration": 0.272727500000002,
          "durationTicks": 480,
          "midi": 70,
          "name": "A#4",
          "ticks": 318720,
          "time": 181.09106,
          "velocity": 1
        },
        {
          "duration": 0.272727500000002,
          "durationTicks": 480,
          "midi": 42,
          "name": "F#2",
          "ticks": 318720,
          "time": 181.09106,
          "velocity": 1
        },
        {
          "duration": 0.13636375000001522,
          "durationTicks": 240,
          "midi": 44,
          "name": "G#2",
          "ticks": 318720,
          "time": 181.09106,
          "velocity": 1
        },
        {
          "duration": 0.1363637499999868,
          "durationTicks": 240,
          "midi": 44,
          "name": "G#2",
          "ticks": 318960,
          "time": 181.22742375,
          "velocity": 1
        },
        {
          "duration": 0.272727500000002,
          "durationTicks": 480,
          "midi": 42,
          "name": "F#2",
          "ticks": 319200,
          "time": 181.3637875,
          "velocity": 1
        },
        {
          "duration": 0.272727500000002,
          "durationTicks": 480,
          "midi": 69,
          "name": "A4",
          "ticks": 319440,
          "time": 181.50015125000002,
          "velocity": 1
        },
        {
          "duration": 0.272727500000002,
          "durationTicks": 480,
          "midi": 46,
          "name": "A#2",
          "ticks": 319440,
          "time": 181.50015125000002,
          "velocity": 1
        },
        {
          "duration": 0.272727500000002,
          "durationTicks": 480,
          "midi": 42,
          "name": "F#2",
          "ticks": 319680,
          "time": 181.636515,
          "velocity": 1
        },
        {
          "duration": 0.272727500000002,
          "durationTicks": 480,
          "midi": 70,
          "name": "A#4",
          "ticks": 320160,
          "time": 181.9092425,
          "velocity": 1
        },
        {
          "duration": 0.272727500000002,
          "durationTicks": 480,
          "midi": 42,
          "name": "F#2",
          "ticks": 320160,
          "time": 181.9092425,
          "velocity": 1
        },
        {
          "duration": 0.13636375000001522,
          "durationTicks": 240,
          "midi": 44,
          "name": "G#2",
          "ticks": 320160,
          "time": 181.9092425,
          "velocity": 1
        },
        {
          "duration": 0.1363637499999868,
          "durationTicks": 240,
          "midi": 44,
          "name": "G#2",
          "ticks": 320400,
          "time": 182.04560625000002,
          "velocity": 1
        },
        {
          "duration": 0.272727500000002,
          "durationTicks": 480,
          "midi": 42,
          "name": "F#2",
          "ticks": 320640,
          "time": 182.18197,
          "velocity": 1
        },
        {
          "duration": 0.272727500000002,
          "durationTicks": 480,
          "midi": 44,
          "name": "G#2",
          "ticks": 320640,
          "time": 182.18197,
          "velocity": 1
        },
        {
          "duration": 0.272727500000002,
          "durationTicks": 480,
          "midi": 70,
          "name": "A#4",
          "ticks": 321120,
          "time": 182.4546975,
          "velocity": 1
        },
        {
          "duration": 0.272727500000002,
          "durationTicks": 480,
          "midi": 42,
          "name": "F#2",
          "ticks": 321120,
          "time": 182.4546975,
          "velocity": 1
        },
        {
          "duration": 0.272727500000002,
          "durationTicks": 480,
          "midi": 44,
          "name": "G#2",
          "ticks": 321120,
          "time": 182.4546975,
          "velocity": 1
        },
        {
          "duration": 0.1363637499999868,
          "durationTicks": 240,
          "midi": 69,
          "name": "A4",
          "ticks": 321600,
          "time": 182.727425,
          "velocity": 1
        },
        {
          "duration": 0.272727500000002,
          "durationTicks": 480,
          "midi": 42,
          "name": "F#2",
          "ticks": 321600,
          "time": 182.727425,
          "velocity": 1
        },
        {
          "duration": 0.272727500000002,
          "durationTicks": 480,
          "midi": 46,
          "name": "A#2",
          "ticks": 321600,
          "time": 182.727425,
          "velocity": 1
        },
        {
          "duration": 0.13636375000001522,
          "durationTicks": 240,
          "midi": 69,
          "name": "A4",
          "ticks": 321840,
          "time": 182.86378875,
          "velocity": 1
        },
        {
          "duration": 0.272727500000002,
          "durationTicks": 480,
          "midi": 70,
          "name": "A#4",
          "ticks": 322080,
          "time": 183.0001525,
          "velocity": 1
        },
        {
          "duration": 0.272727500000002,
          "durationTicks": 480,
          "midi": 42,
          "name": "F#2",
          "ticks": 322080,
          "time": 183.0001525,
          "velocity": 1
        },
        {
          "duration": 0.272727500000002,
          "durationTicks": 480,
          "midi": 44,
          "name": "G#2",
          "ticks": 322080,
          "time": 183.0001525,
          "velocity": 1
        },
        {
          "duration": 0.272727500000002,
          "durationTicks": 480,
          "midi": 70,
          "name": "A#4",
          "ticks": 322560,
          "time": 183.27288000000001,
          "velocity": 1
        },
        {
          "duration": 0.272727500000002,
          "durationTicks": 480,
          "midi": 42,
          "name": "F#2",
          "ticks": 322560,
          "time": 183.27288000000001,
          "velocity": 1
        },
        {
          "duration": 0.1363637499999868,
          "durationTicks": 240,
          "midi": 44,
          "name": "G#2",
          "ticks": 322560,
          "time": 183.27288000000001,
          "velocity": 1
        },
        {
          "duration": 0.13636375000001522,
          "durationTicks": 240,
          "midi": 44,
          "name": "G#2",
          "ticks": 322800,
          "time": 183.40924375,
          "velocity": 1
        },
        {
          "duration": 0.272727500000002,
          "durationTicks": 480,
          "midi": 42,
          "name": "F#2",
          "ticks": 323040,
          "time": 183.54560750000002,
          "velocity": 1
        },
        {
          "duration": 0.272727500000002,
          "durationTicks": 480,
          "midi": 69,
          "name": "A4",
          "ticks": 323280,
          "time": 183.68197125,
          "velocity": 1
        },
        {
          "duration": 0.272727500000002,
          "durationTicks": 480,
          "midi": 46,
          "name": "A#2",
          "ticks": 323280,
          "time": 183.68197125,
          "velocity": 1
        },
        {
          "duration": 0.272727500000002,
          "durationTicks": 480,
          "midi": 42,
          "name": "F#2",
          "ticks": 323520,
          "time": 183.81833500000002,
          "velocity": 1
        },
        {
          "duration": 0.2727274999999736,
          "durationTicks": 480,
          "midi": 70,
          "name": "A#4",
          "ticks": 324000,
          "time": 184.09106250000002,
          "velocity": 1
        },
        {
          "duration": 0.2727274999999736,
          "durationTicks": 480,
          "midi": 42,
          "name": "F#2",
          "ticks": 324000,
          "time": 184.09106250000002,
          "velocity": 1
        },
        {
          "duration": 0.1363637499999868,
          "durationTicks": 240,
          "midi": 44,
          "name": "G#2",
          "ticks": 324000,
          "time": 184.09106250000002,
          "velocity": 1
        },
        {
          "duration": 0.1363637499999868,
          "durationTicks": 240,
          "midi": 44,
          "name": "G#2",
          "ticks": 324240,
          "time": 184.22742625,
          "velocity": 1
        },
        {
          "duration": 0.272727500000002,
          "durationTicks": 480,
          "midi": 42,
          "name": "F#2",
          "ticks": 324480,
          "time": 184.36379,
          "velocity": 1
        },
        {
          "duration": 0.272727500000002,
          "durationTicks": 480,
          "midi": 44,
          "name": "G#2",
          "ticks": 324480,
          "time": 184.36379,
          "velocity": 1
        },
        {
          "duration": 0.272727500000002,
          "durationTicks": 480,
          "midi": 70,
          "name": "A#4",
          "ticks": 324960,
          "time": 184.6365175,
          "velocity": 1
        },
        {
          "duration": 0.272727500000002,
          "durationTicks": 480,
          "midi": 42,
          "name": "F#2",
          "ticks": 324960,
          "time": 184.6365175,
          "velocity": 1
        },
        {
          "duration": 0.272727500000002,
          "durationTicks": 480,
          "midi": 44,
          "name": "G#2",
          "ticks": 324960,
          "time": 184.6365175,
          "velocity": 1
        },
        {
          "duration": 0.13636375000001522,
          "durationTicks": 240,
          "midi": 69,
          "name": "A4",
          "ticks": 325440,
          "time": 184.909245,
          "velocity": 1
        },
        {
          "duration": 0.272727500000002,
          "durationTicks": 480,
          "midi": 42,
          "name": "F#2",
          "ticks": 325440,
          "time": 184.909245,
          "velocity": 1
        },
        {
          "duration": 0.272727500000002,
          "durationTicks": 480,
          "midi": 46,
          "name": "A#2",
          "ticks": 325440,
          "time": 184.909245,
          "velocity": 1
        }
      ],
      "endOfTrackTicks": 325920
    },
    {
      "channel": 2,
      "controlChanges": {
        "7": [
          {
            "number": 7,
            "ticks": 0,
            "time": 0,
            "value": 0.8976377952755905
          }
        ]
      },
      "pitchBends": [],
      "instrument": {
        "family": "guitar",
        "number": 29,
        "name": "overdriven guitar"
      },
      "name": "Track 4",
      "notes": [
        {
          "duration": 2.18182,
          "durationTicks": 3840,
          "midi": 52,
          "name": "E3",
          "ticks": 19200,
          "time": 10.9091,
          "velocity": 0.8031496062992126
        },
        {
          "duration": 2.18182,
          "durationTicks": 3840,
          "midi": 54,
          "name": "F#3",
          "ticks": 23040,
          "time": 13.09092,
          "velocity": 1
        },
        {
          "duration": 2.18182,
          "durationTicks": 3840,
          "midi": 42,
          "name": "F#2",
          "ticks": 23040,
          "time": 13.09092,
          "velocity": 1
        },
        {
          "duration": 2.18182,
          "durationTicks": 3840,
          "midi": 50,
          "name": "D3",
          "ticks": 26880,
          "time": 15.27274,
          "velocity": 1
        },
        {
          "duration": 2.18182,
          "durationTicks": 3840,
          "midi": 38,
          "name": "D2",
          "ticks": 26880,
          "time": 15.27274,
          "velocity": 1
        },
        {
          "duration": 2.181820000000002,
          "durationTicks": 3840,
          "midi": 57,
          "name": "A3",
          "ticks": 30720,
          "time": 17.45456,
          "velocity": 1
        },
        {
          "duration": 2.181820000000002,
          "durationTicks": 3840,
          "midi": 45,
          "name": "A2",
          "ticks": 30720,
          "time": 17.45456,
          "velocity": 1
        },
        {
          "duration": 2.1818199999999983,
          "durationTicks": 3840,
          "midi": 52,
          "name": "E3",
          "ticks": 34560,
          "time": 19.636380000000003,
          "velocity": 1
        },
        {
          "duration": 2.1818199999999983,
          "durationTicks": 3840,
          "midi": 40,
          "name": "E2",
          "ticks": 34560,
          "time": 19.636380000000003,
          "velocity": 1
        },
        {
          "duration": 2.181820000000002,
          "durationTicks": 3840,
          "midi": 52,
          "name": "E3",
          "ticks": 88320,
          "time": 50.18186,
          "velocity": 0.8031496062992126
        },
        {
          "duration": 2.181820000000002,
          "durationTicks": 3840,
          "midi": 54,
          "name": "F#3",
          "ticks": 92160,
          "time": 52.36368,
          "velocity": 1
        },
        {
          "duration": 2.181820000000002,
          "durationTicks": 3840,
          "midi": 42,
          "name": "F#2",
          "ticks": 92160,
          "time": 52.36368,
          "velocity": 1
        },
        {
          "duration": 2.181820000000002,
          "durationTicks": 3840,
          "midi": 50,
          "name": "D3",
          "ticks": 96000,
          "time": 54.545500000000004,
          "velocity": 1
        },
        {
          "duration": 2.181820000000002,
          "durationTicks": 3840,
          "midi": 38,
          "name": "D2",
          "ticks": 96000,
          "time": 54.545500000000004,
          "velocity": 1
        },
        {
          "duration": 2.1818199999999948,
          "durationTicks": 3840,
          "midi": 57,
          "name": "A3",
          "ticks": 99840,
          "time": 56.727320000000006,
          "velocity": 1
        },
        {
          "duration": 2.1818199999999948,
          "durationTicks": 3840,
          "midi": 45,
          "name": "A2",
          "ticks": 99840,
          "time": 56.727320000000006,
          "velocity": 1
        },
        {
          "duration": 2.181820000000002,
          "durationTicks": 3840,
          "midi": 52,
          "name": "E3",
          "ticks": 103680,
          "time": 58.90914,
          "velocity": 1
        },
        {
          "duration": 2.181820000000002,
          "durationTicks": 3840,
          "midi": 40,
          "name": "E2",
          "ticks": 103680,
          "time": 58.90914,
          "velocity": 1
        },
        {
          "duration": 2.181820000000002,
          "durationTicks": 3840,
          "midi": 54,
          "name": "F#3",
          "ticks": 107520,
          "time": 61.09096,
          "velocity": 1
        },
        {
          "duration": 2.181820000000002,
          "durationTicks": 3840,
          "midi": 42,
          "name": "F#2",
          "ticks": 107520,
          "time": 61.09096,
          "velocity": 1
        },
        {
          "duration": 2.1818199999999948,
          "durationTicks": 3840,
          "midi": 50,
          "name": "D3",
          "ticks": 111360,
          "time": 63.272780000000004,
          "velocity": 1
        },
        {
          "duration": 2.1818199999999948,
          "durationTicks": 3840,
          "midi": 38,
          "name": "D2",
          "ticks": 111360,
          "time": 63.272780000000004,
          "velocity": 1
        },
        {
          "duration": 2.181820000000002,
          "durationTicks": 3840,
          "midi": 57,
          "name": "A3",
          "ticks": 115200,
          "time": 65.4546,
          "velocity": 1
        },
        {
          "duration": 2.181820000000002,
          "durationTicks": 3840,
          "midi": 45,
          "name": "A2",
          "ticks": 115200,
          "time": 65.4546,
          "velocity": 1
        },
        {
          "duration": 2.181820000000002,
          "durationTicks": 3840,
          "midi": 52,
          "name": "E3",
          "ticks": 119040,
          "time": 67.63642,
          "velocity": 1
        },
        {
          "duration": 2.181820000000002,
          "durationTicks": 3840,
          "midi": 40,
          "name": "E2",
          "ticks": 119040,
          "time": 67.63642,
          "velocity": 1
        },
        {
          "duration": 2.181820000000002,
          "durationTicks": 3840,
          "midi": 54,
          "name": "F#3",
          "ticks": 184320,
          "time": 104.72736,
          "velocity": 1
        },
        {
          "duration": 2.181820000000002,
          "durationTicks": 3840,
          "midi": 42,
          "name": "F#2",
          "ticks": 184320,
          "time": 104.72736,
          "velocity": 1
        },
        {
          "duration": 2.181820000000002,
          "durationTicks": 3840,
          "midi": 50,
          "name": "D3",
          "ticks": 188160,
          "time": 106.90918,
          "velocity": 1
        },
        {
          "duration": 2.181820000000002,
          "durationTicks": 3840,
          "midi": 38,
          "name": "D2",
          "ticks": 188160,
          "time": 106.90918,
          "velocity": 1
        },
        {
          "duration": 2.181820000000002,
          "durationTicks": 3840,
          "midi": 57,
          "name": "A3",
          "ticks": 192000,
          "time": 109.09100000000001,
          "velocity": 1
        },
        {
          "duration": 2.181820000000002,
          "durationTicks": 3840,
          "midi": 45,
          "name": "A2",
          "ticks": 192000,
          "time": 109.09100000000001,
          "velocity": 1
        },
        {
          "duration": 2.181820000000002,
          "durationTicks": 3840,
          "midi": 52,
          "name": "E3",
          "ticks": 195840,
          "time": 111.27282000000001,
          "velocity": 1
        },
        {
          "duration": 2.181820000000002,
          "durationTicks": 3840,
          "midi": 40,
          "name": "E2",
          "ticks": 195840,
          "time": 111.27282000000001,
          "velocity": 1
        },
        {
          "duration": 2.1818199999999877,
          "durationTicks": 3840,
          "midi": 54,
          "name": "F#3",
          "ticks": 199680,
          "time": 113.45464000000001,
          "velocity": 1
        },
        {
          "duration": 2.1818199999999877,
          "durationTicks": 3840,
          "midi": 42,
          "name": "F#2",
          "ticks": 199680,
          "time": 113.45464000000001,
          "velocity": 1
        },
        {
          "duration": 2.181820000000002,
          "durationTicks": 3840,
          "midi": 50,
          "name": "D3",
          "ticks": 203520,
          "time": 115.63646,
          "velocity": 1
        },
        {
          "duration": 2.181820000000002,
          "durationTicks": 3840,
          "midi": 38,
          "name": "D2",
          "ticks": 203520,
          "time": 115.63646,
          "velocity": 1
        },
        {
          "duration": 2.181820000000002,
          "durationTicks": 3840,
          "midi": 57,
          "name": "A3",
          "ticks": 207360,
          "time": 117.81828,
          "velocity": 1
        },
        {
          "duration": 2.181820000000002,
          "durationTicks": 3840,
          "midi": 45,
          "name": "A2",
          "ticks": 207360,
          "time": 117.81828,
          "velocity": 1
        },
        {
          "duration": 2.181820000000002,
          "durationTicks": 3840,
          "midi": 52,
          "name": "E3",
          "ticks": 211200,
          "time": 120.0001,
          "velocity": 1
        },
        {
          "duration": 2.181820000000002,
          "durationTicks": 3840,
          "midi": 40,
          "name": "E2",
          "ticks": 211200,
          "time": 120.0001,
          "velocity": 1
        },
        {
          "duration": 1.6363649999999978,
          "durationTicks": 2880,
          "midi": 38,
          "name": "D2",
          "ticks": 215040,
          "time": 122.18192,
          "velocity": 1
        },
        {
          "duration": 1.0909099999999938,
          "durationTicks": 1920,
          "midi": 50,
          "name": "D3",
          "ticks": 215040,
          "time": 122.18192,
          "velocity": 1
        },
        {
          "duration": 0.545455000000004,
          "durationTicks": 960,
          "midi": 42,
          "name": "F#2",
          "ticks": 217920,
          "time": 123.818285,
          "velocity": 1
        },
        {
          "duration": 0.545455000000004,
          "durationTicks": 960,
          "midi": 54,
          "name": "F#3",
          "ticks": 217920,
          "time": 123.818285,
          "velocity": 1
        },
        {
          "duration": 1.6363649999999978,
          "durationTicks": 2880,
          "midi": 40,
          "name": "E2",
          "ticks": 218880,
          "time": 124.36374,
          "velocity": 1
        },
        {
          "duration": 1.6363649999999978,
          "durationTicks": 2880,
          "midi": 52,
          "name": "E3",
          "ticks": 218880,
          "time": 124.36374,
          "velocity": 1
        },
        {
          "duration": 0.545455000000004,
          "durationTicks": 960,
          "midi": 44,
          "name": "G#2",
          "ticks": 221760,
          "time": 126.000105,
          "velocity": 1
        },
        {
          "duration": 0.545455000000004,
          "durationTicks": 960,
          "midi": 56,
          "name": "G#3",
          "ticks": 221760,
          "time": 126.000105,
          "velocity": 1
        },
        {
          "duration": 1.0909099999999938,
          "durationTicks": 1920,
          "midi": 42,
          "name": "F#2",
          "ticks": 222720,
          "time": 126.54556000000001,
          "velocity": 1
        },
        {
          "duration": 1.0909099999999938,
          "durationTicks": 1920,
          "midi": 54,
          "name": "F#3",
          "ticks": 222720,
          "time": 126.54556000000001,
          "velocity": 1
        },
        {
          "duration": 1.090910000000008,
          "durationTicks": 1920,
          "midi": 44,
          "name": "G#2",
          "ticks": 224640,
          "time": 127.63647,
          "velocity": 1
        },
        {
          "duration": 1.090910000000008,
          "durationTicks": 1920,
          "midi": 56,
          "name": "G#3",
          "ticks": 224640,
          "time": 127.63647,
          "velocity": 1
        },
        {
          "duration": 1.090910000000008,
          "durationTicks": 1920,
          "midi": 45,
          "name": "A2",
          "ticks": 226560,
          "time": 128.72738,
          "velocity": 1
        },
        {
          "duration": 1.090910000000008,
          "durationTicks": 1920,
          "midi": 57,
          "name": "A3",
          "ticks": 226560,
          "time": 128.72738,
          "velocity": 1
        },
        {
          "duration": 1.0909099999999796,
          "durationTicks": 1920,
          "midi": 40,
          "name": "E2",
          "ticks": 228480,
          "time": 129.81829000000002,
          "velocity": 1
        },
        {
          "duration": 1.0909099999999796,
          "durationTicks": 1920,
          "midi": 52,
          "name": "E3",
          "ticks": 228480,
          "time": 129.81829000000002,
          "velocity": 1
        },
        {
          "duration": 1.636365000000012,
          "durationTicks": 2880,
          "midi": 38,
          "name": "D2",
          "ticks": 230400,
          "time": 130.9092,
          "velocity": 1
        },
        {
          "duration": 1.090910000000008,
          "durationTicks": 1920,
          "midi": 50,
          "name": "D3",
          "ticks": 230400,
          "time": 130.9092,
          "velocity": 1
        },
        {
          "duration": 0.545455000000004,
          "durationTicks": 960,
          "midi": 42,
          "name": "F#2",
          "ticks": 233280,
          "time": 132.545565,
          "velocity": 1
        },
        {
          "duration": 0.545455000000004,
          "durationTicks": 960,
          "midi": 54,
          "name": "F#3",
          "ticks": 233280,
          "time": 132.545565,
          "velocity": 1
        },
        {
          "duration": 2.1818199999999877,
          "durationTicks": 3840,
          "midi": 40,
          "name": "E2",
          "ticks": 234240,
          "time": 133.09102000000001,
          "velocity": 1
        },
        {
          "duration": 2.1818199999999877,
          "durationTicks": 3840,
          "midi": 52,
          "name": "E3",
          "ticks": 234240,
          "time": 133.09102000000001,
          "velocity": 1
        },
        {
          "duration": 2.181820000000016,
          "durationTicks": 3840,
          "midi": 37,
          "name": "C#2",
          "ticks": 238080,
          "time": 135.27284,
          "velocity": 1
        },
        {
          "duration": 2.181820000000016,
          "durationTicks": 3840,
          "midi": 49,
          "name": "C#3",
          "ticks": 238080,
          "time": 135.27284,
          "velocity": 1
        },
        {
          "duration": 2.1818199999999877,
          "durationTicks": 3840,
          "midi": 37,
          "name": "C#2",
          "ticks": 241920,
          "time": 137.45466000000002,
          "velocity": 1
        },
        {
          "duration": 2.1818199999999877,
          "durationTicks": 3840,
          "midi": 49,
          "name": "C#3",
          "ticks": 241920,
          "time": 137.45466000000002,
          "velocity": 1
        },
        {
          "duration": 2.1818199999999877,
          "durationTicks": 3840,
          "midi": 37,
          "name": "C#2",
          "ticks": 245760,
          "time": 139.63648,
          "velocity": 1
        },
        {
          "duration": 2.1818199999999877,
          "durationTicks": 3840,
          "midi": 49,
          "name": "C#3",
          "ticks": 245760,
          "time": 139.63648,
          "velocity": 1
        },
        {
          "duration": 2.181820000000016,
          "durationTicks": 3840,
          "midi": 54,
          "name": "F#3",
          "ticks": 249600,
          "time": 141.8183,
          "velocity": 1
        },
        {
          "duration": 2.181820000000016,
          "durationTicks": 3840,
          "midi": 42,
          "name": "F#2",
          "ticks": 249600,
          "time": 141.8183,
          "velocity": 1
        },
        {
          "duration": 2.1818199999999877,
          "durationTicks": 3840,
          "midi": 50,
          "name": "D3",
          "ticks": 253440,
          "time": 144.00012,
          "velocity": 1
        },
        {
          "duration": 2.1818199999999877,
          "durationTicks": 3840,
          "midi": 38,
          "name": "D2",
          "ticks": 253440,
          "time": 144.00012,
          "velocity": 1
        },
        {
          "duration": 2.181820000000016,
          "durationTicks": 3840,
          "midi": 57,
          "name": "A3",
          "ticks": 257280,
          "time": 146.18194,
          "velocity": 1
        },
        {
          "duration": 2.181820000000016,
          "durationTicks": 3840,
          "midi": 45,
          "name": "A2",
          "ticks": 257280,
          "time": 146.18194,
          "velocity": 1
        },
        {
          "duration": 2.1818199999999877,
          "durationTicks": 3840,
          "midi": 52,
          "name": "E3",
          "ticks": 261120,
          "time": 148.36376,
          "velocity": 1
        },
        {
          "duration": 2.1818199999999877,
          "durationTicks": 3840,
          "midi": 40,
          "name": "E2",
          "ticks": 261120,
          "time": 148.36376,
          "velocity": 1
        },
        {
          "duration": 2.181820000000016,
          "durationTicks": 3840,
          "midi": 54,
          "name": "F#3",
          "ticks": 264960,
          "time": 150.54558,
          "velocity": 1
        },
        {
          "duration": 2.181820000000016,
          "durationTicks": 3840,
          "midi": 42,
          "name": "F#2",
          "ticks": 264960,
          "time": 150.54558,
          "velocity": 1
        },
        {
          "duration": 2.1818199999999877,
          "durationTicks": 3840,
          "midi": 50,
          "name": "D3",
          "ticks": 268800,
          "time": 152.72740000000002,
          "velocity": 1
        },
        {
          "duration": 2.1818199999999877,
          "durationTicks": 3840,
          "midi": 38,
          "name": "D2",
          "ticks": 268800,
          "time": 152.72740000000002,
          "velocity": 1
        },
        {
          "duration": 2.181820000000016,
          "durationTicks": 3840,
          "midi": 57,
          "name": "A3",
          "ticks": 272640,
          "time": 154.90922,
          "velocity": 1
        },
        {
          "duration": 2.181820000000016,
          "durationTicks": 3840,
          "midi": 45,
          "name": "A2",
          "ticks": 272640,
          "time": 154.90922,
          "velocity": 1
        },
        {
          "duration": 2.1818199999999877,
          "durationTicks": 3840,
          "midi": 52,
          "name": "E3",
          "ticks": 276480,
          "time": 157.09104000000002,
          "velocity": 1
        },
        {
          "duration": 2.1818199999999877,
          "durationTicks": 3840,
          "midi": 40,
          "name": "E2",
          "ticks": 276480,
          "time": 157.09104000000002,
          "velocity": 1
        },
        {
          "duration": 2.1818199999999877,
          "durationTicks": 3840,
          "midi": 54,
          "name": "F#3",
          "ticks": 280320,
          "time": 159.27286,
          "velocity": 1
        },
        {
          "duration": 2.1818199999999877,
          "durationTicks": 3840,
          "midi": 42,
          "name": "F#2",
          "ticks": 280320,
          "time": 159.27286,
          "velocity": 1
        },
        {
          "duration": 2.181820000000016,
          "durationTicks": 3840,
          "midi": 50,
          "name": "D3",
          "ticks": 284160,
          "time": 161.45468,
          "velocity": 1
        },
        {
          "duration": 2.181820000000016,
          "durationTicks": 3840,
          "midi": 38,
          "name": "D2",
          "ticks": 284160,
          "time": 161.45468,
          "velocity": 1
        },
        {
          "duration": 2.1818199999999877,
          "durationTicks": 3840,
          "midi": 57,
          "name": "A3",
          "ticks": 288000,
          "time": 163.6365,
          "velocity": 1
        },
        {
          "duration": 2.1818199999999877,
          "durationTicks": 3840,
          "midi": 45,
          "name": "A2",
          "ticks": 288000,
          "time": 163.6365,
          "velocity": 1
        },
        {
          "duration": 2.181820000000016,
          "durationTicks": 3840,
          "midi": 52,
          "name": "E3",
          "ticks": 291840,
          "time": 165.81832,
          "velocity": 1
        },
        {
          "duration": 2.181820000000016,
          "durationTicks": 3840,
          "midi": 40,
          "name": "E2",
          "ticks": 291840,
          "time": 165.81832,
          "velocity": 1
        },
        {
          "duration": 2.1818199999999877,
          "durationTicks": 3840,
          "midi": 54,
          "name": "F#3",
          "ticks": 295680,
          "time": 168.00014000000002,
          "velocity": 1
        },
        {
          "duration": 2.1818199999999877,
          "durationTicks": 3840,
          "midi": 42,
          "name": "F#2",
          "ticks": 295680,
          "time": 168.00014000000002,
          "velocity": 1
        },
        {
          "duration": 2.181820000000016,
          "durationTicks": 3840,
          "midi": 50,
          "name": "D3",
          "ticks": 299520,
          "time": 170.18196,
          "velocity": 1
        },
        {
          "duration": 2.181820000000016,
          "durationTicks": 3840,
          "midi": 38,
          "name": "D2",
          "ticks": 299520,
          "time": 170.18196,
          "velocity": 1
        },
        {
          "duration": 2.1818199999999877,
          "durationTicks": 3840,
          "midi": 57,
          "name": "A3",
          "ticks": 303360,
          "time": 172.36378000000002,
          "velocity": 1
        },
        {
          "duration": 2.1818199999999877,
          "durationTicks": 3840,
          "midi": 45,
          "name": "A2",
          "ticks": 303360,
          "time": 172.36378000000002,
          "velocity": 1
        },
        {
          "duration": 2.1818199999999877,
          "durationTicks": 3840,
          "midi": 52,
          "name": "E3",
          "ticks": 307200,
          "time": 174.5456,
          "velocity": 1
        },
        {
          "duration": 2.1818199999999877,
          "durationTicks": 3840,
          "midi": 40,
          "name": "E2",
          "ticks": 307200,
          "time": 174.5456,
          "velocity": 1
        }
      ],
      "endOfTrackTicks": 311040
    },
    {
      "channel": 3,
      "controlChanges": {
        "7": [
          {
            "number": 7,
            "ticks": 0,
            "time": 0,
            "value": 0.8976377952755905
          }
        ]
      },
      "pitchBends": [],
      "instrument": {
        "family": "guitar",
        "number": 30,
        "name": "distortion guitar"
      },
      "name": "Track 5",
      "notes": [
        {
          "duration": 2.18182,
          "durationTicks": 3840,
          "midi": 54,
          "name": "F#3",
          "ticks": 23040,
          "time": 13.09092,
          "velocity": 1
        },
        {
          "duration": 2.18182,
          "durationTicks": 3840,
          "midi": 42,
          "name": "F#2",
          "ticks": 23040,
          "time": 13.09092,
          "velocity": 1
        },
        {
          "duration": 2.18182,
          "durationTicks": 3840,
          "midi": 50,
          "name": "D3",
          "ticks": 26880,
          "time": 15.27274,
          "velocity": 1
        },
        {
          "duration": 2.18182,
          "durationTicks": 3840,
          "midi": 38,
          "name": "D2",
          "ticks": 26880,
          "time": 15.27274,
          "velocity": 1
        },
        {
          "duration": 2.181820000000002,
          "durationTicks": 3840,
          "midi": 57,
          "name": "A3",
          "ticks": 30720,
          "time": 17.45456,
          "velocity": 1
        },
        {
          "duration": 2.181820000000002,
          "durationTicks": 3840,
          "midi": 45,
          "name": "A2",
          "ticks": 30720,
          "time": 17.45456,
          "velocity": 1
        },
        {
          "duration": 2.1818199999999983,
          "durationTicks": 3840,
          "midi": 52,
          "name": "E3",
          "ticks": 34560,
          "time": 19.636380000000003,
          "velocity": 1
        },
        {
          "duration": 2.1818199999999983,
          "durationTicks": 3840,
          "midi": 40,
          "name": "E2",
          "ticks": 34560,
          "time": 19.636380000000003,
          "velocity": 1
        },
        {
          "duration": 2.181820000000002,
          "durationTicks": 3840,
          "midi": 54,
          "name": "F#3",
          "ticks": 92160,
          "time": 52.36368,
          "velocity": 1
        },
        {
          "duration": 2.181820000000002,
          "durationTicks": 3840,
          "midi": 42,
          "name": "F#2",
          "ticks": 92160,
          "time": 52.36368,
          "velocity": 1
        },
        {
          "duration": 2.181820000000002,
          "durationTicks": 3840,
          "midi": 50,
          "name": "D3",
          "ticks": 96000,
          "time": 54.545500000000004,
          "velocity": 1
        },
        {
          "duration": 2.181820000000002,
          "durationTicks": 3840,
          "midi": 38,
          "name": "D2",
          "ticks": 96000,
          "time": 54.545500000000004,
          "velocity": 1
        },
        {
          "duration": 2.1818199999999948,
          "durationTicks": 3840,
          "midi": 57,
          "name": "A3",
          "ticks": 99840,
          "time": 56.727320000000006,
          "velocity": 1
        },
        {
          "duration": 2.1818199999999948,
          "durationTicks": 3840,
          "midi": 45,
          "name": "A2",
          "ticks": 99840,
          "time": 56.727320000000006,
          "velocity": 1
        },
        {
          "duration": 2.181820000000002,
          "durationTicks": 3840,
          "midi": 52,
          "name": "E3",
          "ticks": 103680,
          "time": 58.90914,
          "velocity": 1
        },
        {
          "duration": 2.181820000000002,
          "durationTicks": 3840,
          "midi": 40,
          "name": "E2",
          "ticks": 103680,
          "time": 58.90914,
          "velocity": 1
        },
        {
          "duration": 2.181820000000002,
          "durationTicks": 3840,
          "midi": 54,
          "name": "F#3",
          "ticks": 107520,
          "time": 61.09096,
          "velocity": 1
        },
        {
          "duration": 2.181820000000002,
          "durationTicks": 3840,
          "midi": 42,
          "name": "F#2",
          "ticks": 107520,
          "time": 61.09096,
          "velocity": 1
        },
        {
          "duration": 2.1818199999999948,
          "durationTicks": 3840,
          "midi": 50,
          "name": "D3",
          "ticks": 111360,
          "time": 63.272780000000004,
          "velocity": 1
        },
        {
          "duration": 2.1818199999999948,
          "durationTicks": 3840,
          "midi": 38,
          "name": "D2",
          "ticks": 111360,
          "time": 63.272780000000004,
          "velocity": 1
        },
        {
          "duration": 2.181820000000002,
          "durationTicks": 3840,
          "midi": 57,
          "name": "A3",
          "ticks": 115200,
          "time": 65.4546,
          "velocity": 1
        },
        {
          "duration": 2.181820000000002,
          "durationTicks": 3840,
          "midi": 45,
          "name": "A2",
          "ticks": 115200,
          "time": 65.4546,
          "velocity": 1
        },
        {
          "duration": 2.181820000000002,
          "durationTicks": 3840,
          "midi": 52,
          "name": "E3",
          "ticks": 119040,
          "time": 67.63642,
          "velocity": 1
        },
        {
          "duration": 2.181820000000002,
          "durationTicks": 3840,
          "midi": 40,
          "name": "E2",
          "ticks": 119040,
          "time": 67.63642,
          "velocity": 1
        },
        {
          "duration": 2.181820000000002,
          "durationTicks": 3840,
          "midi": 54,
          "name": "F#3",
          "ticks": 184320,
          "time": 104.72736,
          "velocity": 1
        },
        {
          "duration": 2.181820000000002,
          "durationTicks": 3840,
          "midi": 42,
          "name": "F#2",
          "ticks": 184320,
          "time": 104.72736,
          "velocity": 1
        },
        {
          "duration": 2.181820000000002,
          "durationTicks": 3840,
          "midi": 50,
          "name": "D3",
          "ticks": 188160,
          "time": 106.90918,
          "velocity": 1
        },
        {
          "duration": 2.181820000000002,
          "durationTicks": 3840,
          "midi": 38,
          "name": "D2",
          "ticks": 188160,
          "time": 106.90918,
          "velocity": 1
        },
        {
          "duration": 2.181820000000002,
          "durationTicks": 3840,
          "midi": 57,
          "name": "A3",
          "ticks": 192000,
          "time": 109.09100000000001,
          "velocity": 1
        },
        {
          "duration": 2.181820000000002,
          "durationTicks": 3840,
          "midi": 45,
          "name": "A2",
          "ticks": 192000,
          "time": 109.09100000000001,
          "velocity": 1
        },
        {
          "duration": 2.181820000000002,
          "durationTicks": 3840,
          "midi": 52,
          "name": "E3",
          "ticks": 195840,
          "time": 111.27282000000001,
          "velocity": 1
        },
        {
          "duration": 2.181820000000002,
          "durationTicks": 3840,
          "midi": 40,
          "name": "E2",
          "ticks": 195840,
          "time": 111.27282000000001,
          "velocity": 1
        },
        {
          "duration": 2.1818199999999877,
          "durationTicks": 3840,
          "midi": 54,
          "name": "F#3",
          "ticks": 199680,
          "time": 113.45464000000001,
          "velocity": 1
        },
        {
          "duration": 2.1818199999999877,
          "durationTicks": 3840,
          "midi": 42,
          "name": "F#2",
          "ticks": 199680,
          "time": 113.45464000000001,
          "velocity": 1
        },
        {
          "duration": 2.181820000000002,
          "durationTicks": 3840,
          "midi": 50,
          "name": "D3",
          "ticks": 203520,
          "time": 115.63646,
          "velocity": 1
        },
        {
          "duration": 2.181820000000002,
          "durationTicks": 3840,
          "midi": 38,
          "name": "D2",
          "ticks": 203520,
          "time": 115.63646,
          "velocity": 1
        },
        {
          "duration": 2.181820000000002,
          "durationTicks": 3840,
          "midi": 57,
          "name": "A3",
          "ticks": 207360,
          "time": 117.81828,
          "velocity": 1
        },
        {
          "duration": 2.181820000000002,
          "durationTicks": 3840,
          "midi": 45,
          "name": "A2",
          "ticks": 207360,
          "time": 117.81828,
          "velocity": 1
        },
        {
          "duration": 2.181820000000002,
          "durationTicks": 3840,
          "midi": 52,
          "name": "E3",
          "ticks": 211200,
          "time": 120.0001,
          "velocity": 1
        },
        {
          "duration": 2.181820000000002,
          "durationTicks": 3840,
          "midi": 40,
          "name": "E2",
          "ticks": 211200,
          "time": 120.0001,
          "velocity": 1
        },
        {
          "duration": 1.6363649999999978,
          "durationTicks": 2880,
          "midi": 38,
          "name": "D2",
          "ticks": 215040,
          "time": 122.18192,
          "velocity": 1
        },
        {
          "duration": 1.0909099999999938,
          "durationTicks": 1920,
          "midi": 50,
          "name": "D3",
          "ticks": 215040,
          "time": 122.18192,
          "velocity": 1
        },
        {
          "duration": 0.545455000000004,
          "durationTicks": 960,
          "midi": 42,
          "name": "F#2",
          "ticks": 217920,
          "time": 123.818285,
          "velocity": 1
        },
        {
          "duration": 0.545455000000004,
          "durationTicks": 960,
          "midi": 54,
          "name": "F#3",
          "ticks": 217920,
          "time": 123.818285,
          "velocity": 1
        },
        {
          "duration": 1.6363649999999978,
          "durationTicks": 2880,
          "midi": 40,
          "name": "E2",
          "ticks": 218880,
          "time": 124.36374,
          "velocity": 1
        },
        {
          "duration": 1.6363649999999978,
          "durationTicks": 2880,
          "midi": 52,
          "name": "E3",
          "ticks": 218880,
          "time": 124.36374,
          "velocity": 1
        },
        {
          "duration": 0.545455000000004,
          "durationTicks": 960,
          "midi": 44,
          "name": "G#2",
          "ticks": 221760,
          "time": 126.000105,
          "velocity": 1
        },
        {
          "duration": 0.545455000000004,
          "durationTicks": 960,
          "midi": 56,
          "name": "G#3",
          "ticks": 221760,
          "time": 126.000105,
          "velocity": 1
        },
        {
          "duration": 1.0909099999999938,
          "durationTicks": 1920,
          "midi": 42,
          "name": "F#2",
          "ticks": 222720,
          "time": 126.54556000000001,
          "velocity": 1
        },
        {
          "duration": 1.0909099999999938,
          "durationTicks": 1920,
          "midi": 54,
          "name": "F#3",
          "ticks": 222720,
          "time": 126.54556000000001,
          "velocity": 1
        },
        {
          "duration": 1.090910000000008,
          "durationTicks": 1920,
          "midi": 44,
          "name": "G#2",
          "ticks": 224640,
          "time": 127.63647,
          "velocity": 1
        },
        {
          "duration": 1.090910000000008,
          "durationTicks": 1920,
          "midi": 56,
          "name": "G#3",
          "ticks": 224640,
          "time": 127.63647,
          "velocity": 1
        },
        {
          "duration": 1.090910000000008,
          "durationTicks": 1920,
          "midi": 45,
          "name": "A2",
          "ticks": 226560,
          "time": 128.72738,
          "velocity": 1
        },
        {
          "duration": 1.090910000000008,
          "durationTicks": 1920,
          "midi": 57,
          "name": "A3",
          "ticks": 226560,
          "time": 128.72738,
          "velocity": 1
        },
        {
          "duration": 1.0909099999999796,
          "durationTicks": 1920,
          "midi": 40,
          "name": "E2",
          "ticks": 228480,
          "time": 129.81829000000002,
          "velocity": 1
        },
        {
          "duration": 1.0909099999999796,
          "durationTicks": 1920,
          "midi": 52,
          "name": "E3",
          "ticks": 228480,
          "time": 129.81829000000002,
          "velocity": 1
        },
        {
          "duration": 1.636365000000012,
          "durationTicks": 2880,
          "midi": 38,
          "name": "D2",
          "ticks": 230400,
          "time": 130.9092,
          "velocity": 1
        },
        {
          "duration": 1.090910000000008,
          "durationTicks": 1920,
          "midi": 50,
          "name": "D3",
          "ticks": 230400,
          "time": 130.9092,
          "velocity": 1
        },
        {
          "duration": 0.545455000000004,
          "durationTicks": 960,
          "midi": 42,
          "name": "F#2",
          "ticks": 233280,
          "time": 132.545565,
          "velocity": 1
        },
        {
          "duration": 0.545455000000004,
          "durationTicks": 960,
          "midi": 54,
          "name": "F#3",
          "ticks": 233280,
          "time": 132.545565,
          "velocity": 1
        },
        {
          "duration": 2.1818199999999877,
          "durationTicks": 3840,
          "midi": 40,
          "name": "E2",
          "ticks": 234240,
          "time": 133.09102000000001,
          "velocity": 1
        },
        {
          "duration": 2.1818199999999877,
          "durationTicks": 3840,
          "midi": 52,
          "name": "E3",
          "ticks": 234240,
          "time": 133.09102000000001,
          "velocity": 1
        },
        {
          "duration": 2.181820000000016,
          "durationTicks": 3840,
          "midi": 37,
          "name": "C#2",
          "ticks": 238080,
          "time": 135.27284,
          "velocity": 1
        },
        {
          "duration": 2.181820000000016,
          "durationTicks": 3840,
          "midi": 49,
          "name": "C#3",
          "ticks": 238080,
          "time": 135.27284,
          "velocity": 1
        },
        {
          "duration": 2.1818199999999877,
          "durationTicks": 3840,
          "midi": 37,
          "name": "C#2",
          "ticks": 241920,
          "time": 137.45466000000002,
          "velocity": 1
        },
        {
          "duration": 2.1818199999999877,
          "durationTicks": 3840,
          "midi": 49,
          "name": "C#3",
          "ticks": 241920,
          "time": 137.45466000000002,
          "velocity": 1
        },
        {
          "duration": 2.1818199999999877,
          "durationTicks": 3840,
          "midi": 37,
          "name": "C#2",
          "ticks": 245760,
          "time": 139.63648,
          "velocity": 1
        },
        {
          "duration": 2.1818199999999877,
          "durationTicks": 3840,
          "midi": 49,
          "name": "C#3",
          "ticks": 245760,
          "time": 139.63648,
          "velocity": 1
        },
        {
          "duration": 2.181820000000016,
          "durationTicks": 3840,
          "midi": 54,
          "name": "F#3",
          "ticks": 249600,
          "time": 141.8183,
          "velocity": 1
        },
        {
          "duration": 2.181820000000016,
          "durationTicks": 3840,
          "midi": 42,
          "name": "F#2",
          "ticks": 249600,
          "time": 141.8183,
          "velocity": 1
        },
        {
          "duration": 2.1818199999999877,
          "durationTicks": 3840,
          "midi": 50,
          "name": "D3",
          "ticks": 253440,
          "time": 144.00012,
          "velocity": 1
        },
        {
          "duration": 2.1818199999999877,
          "durationTicks": 3840,
          "midi": 38,
          "name": "D2",
          "ticks": 253440,
          "time": 144.00012,
          "velocity": 1
        },
        {
          "duration": 2.181820000000016,
          "durationTicks": 3840,
          "midi": 57,
          "name": "A3",
          "ticks": 257280,
          "time": 146.18194,
          "velocity": 1
        },
        {
          "duration": 2.181820000000016,
          "durationTicks": 3840,
          "midi": 45,
          "name": "A2",
          "ticks": 257280,
          "time": 146.18194,
          "velocity": 1
        },
        {
          "duration": 2.1818199999999877,
          "durationTicks": 3840,
          "midi": 52,
          "name": "E3",
          "ticks": 261120,
          "time": 148.36376,
          "velocity": 1
        },
        {
          "duration": 2.1818199999999877,
          "durationTicks": 3840,
          "midi": 40,
          "name": "E2",
          "ticks": 261120,
          "time": 148.36376,
          "velocity": 1
        },
        {
          "duration": 2.181820000000016,
          "durationTicks": 3840,
          "midi": 54,
          "name": "F#3",
          "ticks": 264960,
          "time": 150.54558,
          "velocity": 1
        },
        {
          "duration": 2.181820000000016,
          "durationTicks": 3840,
          "midi": 42,
          "name": "F#2",
          "ticks": 264960,
          "time": 150.54558,
          "velocity": 1
        },
        {
          "duration": 2.1818199999999877,
          "durationTicks": 3840,
          "midi": 50,
          "name": "D3",
          "ticks": 268800,
          "time": 152.72740000000002,
          "velocity": 1
        },
        {
          "duration": 2.1818199999999877,
          "durationTicks": 3840,
          "midi": 38,
          "name": "D2",
          "ticks": 268800,
          "time": 152.72740000000002,
          "velocity": 1
        },
        {
          "duration": 2.181820000000016,
          "durationTicks": 3840,
          "midi": 57,
          "name": "A3",
          "ticks": 272640,
          "time": 154.90922,
          "velocity": 1
        },
        {
          "duration": 2.181820000000016,
          "durationTicks": 3840,
          "midi": 45,
          "name": "A2",
          "ticks": 272640,
          "time": 154.90922,
          "velocity": 1
        },
        {
          "duration": 2.1818199999999877,
          "durationTicks": 3840,
          "midi": 52,
          "name": "E3",
          "ticks": 276480,
          "time": 157.09104000000002,
          "velocity": 1
        },
        {
          "duration": 2.1818199999999877,
          "durationTicks": 3840,
          "midi": 40,
          "name": "E2",
          "ticks": 276480,
          "time": 157.09104000000002,
          "velocity": 1
        },
        {
          "duration": 2.1818199999999877,
          "durationTicks": 3840,
          "midi": 54,
          "name": "F#3",
          "ticks": 280320,
          "time": 159.27286,
          "velocity": 1
        },
        {
          "duration": 2.1818199999999877,
          "durationTicks": 3840,
          "midi": 42,
          "name": "F#2",
          "ticks": 280320,
          "time": 159.27286,
          "velocity": 1
        },
        {
          "duration": 2.181820000000016,
          "durationTicks": 3840,
          "midi": 50,
          "name": "D3",
          "ticks": 284160,
          "time": 161.45468,
          "velocity": 1
        },
        {
          "duration": 2.181820000000016,
          "durationTicks": 3840,
          "midi": 38,
          "name": "D2",
          "ticks": 284160,
          "time": 161.45468,
          "velocity": 1
        },
        {
          "duration": 2.1818199999999877,
          "durationTicks": 3840,
          "midi": 57,
          "name": "A3",
          "ticks": 288000,
          "time": 163.6365,
          "velocity": 1
        },
        {
          "duration": 2.1818199999999877,
          "durationTicks": 3840,
          "midi": 45,
          "name": "A2",
          "ticks": 288000,
          "time": 163.6365,
          "velocity": 1
        },
        {
          "duration": 2.181820000000016,
          "durationTicks": 3840,
          "midi": 52,
          "name": "E3",
          "ticks": 291840,
          "time": 165.81832,
          "velocity": 1
        },
        {
          "duration": 2.181820000000016,
          "durationTicks": 3840,
          "midi": 40,
          "name": "E2",
          "ticks": 291840,
          "time": 165.81832,
          "velocity": 1
        },
        {
          "duration": 2.1818199999999877,
          "durationTicks": 3840,
          "midi": 54,
          "name": "F#3",
          "ticks": 295680,
          "time": 168.00014000000002,
          "velocity": 1
        },
        {
          "duration": 2.1818199999999877,
          "durationTicks": 3840,
          "midi": 42,
          "name": "F#2",
          "ticks": 295680,
          "time": 168.00014000000002,
          "velocity": 1
        },
        {
          "duration": 2.181820000000016,
          "durationTicks": 3840,
          "midi": 50,
          "name": "D3",
          "ticks": 299520,
          "time": 170.18196,
          "velocity": 1
        },
        {
          "duration": 2.181820000000016,
          "durationTicks": 3840,
          "midi": 38,
          "name": "D2",
          "ticks": 299520,
          "time": 170.18196,
          "velocity": 1
        },
        {
          "duration": 2.1818199999999877,
          "durationTicks": 3840,
          "midi": 57,
          "name": "A3",
          "ticks": 303360,
          "time": 172.36378000000002,
          "velocity": 1
        },
        {
          "duration": 2.1818199999999877,
          "durationTicks": 3840,
          "midi": 45,
          "name": "A2",
          "ticks": 303360,
          "time": 172.36378000000002,
          "velocity": 1
        },
        {
          "duration": 2.1818199999999877,
          "durationTicks": 3840,
          "midi": 52,
          "name": "E3",
          "ticks": 307200,
          "time": 174.5456,
          "velocity": 1
        },
        {
          "duration": 2.1818199999999877,
          "durationTicks": 3840,
          "midi": 40,
          "name": "E2",
          "ticks": 307200,
          "time": 174.5456,
          "velocity": 1
        }
      ],
      "endOfTrackTicks": 311040
    },
    {
      "channel": 0,
      "controlChanges": {
        "7": [
          {
            "number": 7,
            "ticks": 0,
            "time": 0,
            "value": 0.8976377952755905
          }
        ]
      },
      "pitchBends": [],
      "instrument": {
        "family": "piano",
        "number": 0,
        "name": "acoustic grand piano"
      },
      "name": "Track 6",
      "notes": [],
      "endOfTrackTicks": 311040
    },
    {
      "channel": 4,
      "controlChanges": {},
      "pitchBends": [],
      "instrument": {
        "family": "bass",
        "number": 33,
        "name": "electric bass (finger)"
      },
      "name": "",
      "notes": [
        {
          "duration": 0.40909124999999946,
          "durationTicks": 720,
          "midi": 42,
          "name": "F#2",
          "ticks": 23040,
          "time": 13.09092,
          "velocity": 1
        },
        {
          "duration": 0.40909125000000124,
          "durationTicks": 720,
          "midi": 42,
          "name": "F#2",
          "ticks": 23760,
          "time": 13.50001125,
          "velocity": 1
        },
        {
          "duration": 0.8181824999999989,
          "durationTicks": 1440,
          "midi": 42,
          "name": "F#2",
          "ticks": 24480,
          "time": 13.909102500000001,
          "velocity": 1
        },
        {
          "duration": 0.5454550000000005,
          "durationTicks": 960,
          "midi": 42,
          "name": "F#2",
          "ticks": 25920,
          "time": 14.727285,
          "velocity": 1
        },
        {
          "duration": 0.40909124999999946,
          "durationTicks": 720,
          "midi": 38,
          "name": "D2",
          "ticks": 26880,
          "time": 15.27274,
          "velocity": 1
        },
        {
          "duration": 0.40909125000000124,
          "durationTicks": 720,
          "midi": 38,
          "name": "D2",
          "ticks": 27600,
          "time": 15.68183125,
          "velocity": 1
        },
        {
          "duration": 0.8181824999999989,
          "durationTicks": 1440,
          "midi": 38,
          "name": "D2",
          "ticks": 28320,
          "time": 16.0909225,
          "velocity": 1
        },
        {
          "duration": 0.5454550000000005,
          "durationTicks": 960,
          "midi": 38,
          "name": "D2",
          "ticks": 29760,
          "time": 16.909105,
          "velocity": 1
        },
        {
          "duration": 0.40909124999999946,
          "durationTicks": 720,
          "midi": 45,
          "name": "A2",
          "ticks": 30720,
          "time": 17.45456,
          "velocity": 1
        },
        {
          "duration": 0.40909124999999946,
          "durationTicks": 720,
          "midi": 45,
          "name": "A2",
          "ticks": 31440,
          "time": 17.86365125,
          "velocity": 1
        },
        {
          "duration": 0.8181825000000025,
          "durationTicks": 1440,
          "midi": 45,
          "name": "A2",
          "ticks": 32160,
          "time": 18.2727425,
          "velocity": 1
        },
        {
          "duration": 0.5454550000000005,
          "durationTicks": 960,
          "midi": 45,
          "name": "A2",
          "ticks": 33600,
          "time": 19.090925000000002,
          "velocity": 1
        },
        {
          "duration": 0.40909124999999946,
          "durationTicks": 720,
          "midi": 40,
          "name": "E2",
          "ticks": 34560,
          "time": 19.636380000000003,
          "velocity": 1
        },
        {
          "duration": 0.40909124999999946,
          "durationTicks": 720,
          "midi": 40,
          "name": "E2",
          "ticks": 35280,
          "time": 20.045471250000002,
          "velocity": 1
        },
        {
          "duration": 0.8181824999999989,
          "durationTicks": 1440,
          "midi": 40,
          "name": "E2",
          "ticks": 36000,
          "time": 20.4545625,
          "velocity": 1
        },
        {
          "duration": 0.5454550000000005,
          "durationTicks": 960,
          "midi": 40,
          "name": "E2",
          "ticks": 37440,
          "time": 21.272745,
          "velocity": 1
        },
        {
          "duration": 0.40909124999999946,
          "durationTicks": 720,
          "midi": 42,
          "name": "F#2",
          "ticks": 38400,
          "time": 21.8182,
          "velocity": 1
        },
        {
          "duration": 0.40909124999999946,
          "durationTicks": 720,
          "midi": 42,
          "name": "F#2",
          "ticks": 39120,
          "time": 22.22729125,
          "velocity": 1
        },
        {
          "duration": 0.8181825000000025,
          "durationTicks": 1440,
          "midi": 42,
          "name": "F#2",
          "ticks": 39840,
          "time": 22.6363825,
          "velocity": 1
        },
        {
          "duration": 0.5454549999999969,
          "durationTicks": 960,
          "midi": 42,
          "name": "F#2",
          "ticks": 41280,
          "time": 23.454565000000002,
          "velocity": 1
        },
        {
          "duration": 0.409091250000003,
          "durationTicks": 720,
          "midi": 38,
          "name": "D2",
          "ticks": 42240,
          "time": 24.00002,
          "velocity": 1
        },
        {
          "duration": 0.40909124999999946,
          "durationTicks": 720,
          "midi": 38,
          "name": "D2",
          "ticks": 42960,
          "time": 24.409111250000002,
          "velocity": 1
        },
        {
          "duration": 0.8181824999999989,
          "durationTicks": 1440,
          "midi": 38,
          "name": "D2",
          "ticks": 43680,
          "time": 24.8182025,
          "velocity": 1
        },
        {
          "duration": 0.5454550000000005,
          "durationTicks": 960,
          "midi": 38,
          "name": "D2",
          "ticks": 45120,
          "time": 25.636385,
          "velocity": 1
        },
        {
          "duration": 0.40909124999999946,
          "durationTicks": 720,
          "midi": 45,
          "name": "A2",
          "ticks": 46080,
          "time": 26.18184,
          "velocity": 1
        },
        {
          "duration": 0.40909124999999946,
          "durationTicks": 720,
          "midi": 45,
          "name": "A2",
          "ticks": 46800,
          "time": 26.59093125,
          "velocity": 1
        },
        {
          "duration": 0.8181825000000025,
          "durationTicks": 1440,
          "midi": 45,
          "name": "A2",
          "ticks": 47520,
          "time": 27.0000225,
          "velocity": 1
        },
        {
          "duration": 0.5454550000000005,
          "durationTicks": 960,
          "midi": 45,
          "name": "A2",
          "ticks": 48960,
          "time": 27.818205000000003,
          "velocity": 1
        },
        {
          "duration": 0.40909124999999946,
          "durationTicks": 720,
          "midi": 40,
          "name": "E2",
          "ticks": 49920,
          "time": 28.363660000000003,
          "velocity": 1
        },
        {
          "duration": 0.40909124999999946,
          "durationTicks": 720,
          "midi": 40,
          "name": "E2",
          "ticks": 50640,
          "time": 28.772751250000002,
          "velocity": 1
        },
        {
          "duration": 0.8181824999999989,
          "durationTicks": 1440,
          "midi": 40,
          "name": "E2",
          "ticks": 51360,
          "time": 29.181842500000002,
          "velocity": 1
        },
        {
          "duration": 0.5454550000000005,
          "durationTicks": 960,
          "midi": 40,
          "name": "E2",
          "ticks": 52800,
          "time": 30.000025,
          "velocity": 1
        },
        {
          "duration": 0.40909124999999946,
          "durationTicks": 720,
          "midi": 42,
          "name": "F#2",
          "ticks": 53760,
          "time": 30.54548,
          "velocity": 1
        },
        {
          "duration": 0.40909124999999946,
          "durationTicks": 720,
          "midi": 42,
          "name": "F#2",
          "ticks": 54480,
          "time": 30.95457125,
          "velocity": 1
        },
        {
          "duration": 0.8181825000000025,
          "durationTicks": 1440,
          "midi": 42,
          "name": "F#2",
          "ticks": 55200,
          "time": 31.3636625,
          "velocity": 1
        },
        {
          "duration": 0.5454549999999969,
          "durationTicks": 960,
          "midi": 42,
          "name": "F#2",
          "ticks": 56640,
          "time": 32.181845,
          "velocity": 1
        },
        {
          "duration": 0.409091250000003,
          "durationTicks": 720,
          "midi": 38,
          "name": "D2",
          "ticks": 57600,
          "time": 32.7273,
          "velocity": 1
        },
        {
          "duration": 0.4090912499999959,
          "durationTicks": 720,
          "midi": 38,
          "name": "D2",
          "ticks": 58320,
          "time": 33.13639125,
          "velocity": 1
        },
        {
          "duration": 0.818182500000006,
          "durationTicks": 1440,
          "midi": 38,
          "name": "D2",
          "ticks": 59040,
          "time": 33.5454825,
          "velocity": 1
        },
        {
          "duration": 0.5454549999999969,
          "durationTicks": 960,
          "midi": 38,
          "name": "D2",
          "ticks": 60480,
          "time": 34.363665000000005,
          "velocity": 1
        },
        {
          "duration": 0.409091250000003,
          "durationTicks": 720,
          "midi": 45,
          "name": "A2",
          "ticks": 61440,
          "time": 34.90912,
          "velocity": 1
        },
        {
          "duration": 0.4090912499999959,
          "durationTicks": 720,
          "midi": 45,
          "name": "A2",
          "ticks": 62160,
          "time": 35.318211250000004,
          "velocity": 1
        },
        {
          "duration": 0.8181824999999989,
          "durationTicks": 1440,
          "midi": 45,
          "name": "A2",
          "ticks": 62880,
          "time": 35.7273025,
          "velocity": 1
        },
        {
          "duration": 0.545455000000004,
          "durationTicks": 960,
          "midi": 45,
          "name": "A2",
          "ticks": 64320,
          "time": 36.545485,
          "velocity": 1
        },
        {
          "duration": 0.4090912499999959,
          "durationTicks": 720,
          "midi": 40,
          "name": "E2",
          "ticks": 65280,
          "time": 37.09094,
          "velocity": 1
        },
        {
          "duration": 0.409091250000003,
          "durationTicks": 720,
          "midi": 40,
          "name": "E2",
          "ticks": 66000,
          "time": 37.50003125,
          "velocity": 1
        },
        {
          "duration": 0.8181824999999989,
          "durationTicks": 1440,
          "midi": 40,
          "name": "E2",
          "ticks": 66720,
          "time": 37.9091225,
          "velocity": 1
        },
        {
          "duration": 0.545455000000004,
          "durationTicks": 960,
          "midi": 40,
          "name": "E2",
          "ticks": 68160,
          "time": 38.727305,
          "velocity": 1
        },
        {
          "duration": 0.4090912499999959,
          "durationTicks": 720,
          "midi": 38,
          "name": "D2",
          "ticks": 69120,
          "time": 39.272760000000005,
          "velocity": 1
        },
        {
          "duration": 0.136363750000001,
          "durationTicks": 240,
          "midi": 38,
          "name": "D2",
          "ticks": 69840,
          "time": 39.68185125,
          "velocity": 1
        },
        {
          "duration": 0.272727500000002,
          "durationTicks": 480,
          "midi": 38,
          "name": "D2",
          "ticks": 70080,
          "time": 39.818215,
          "velocity": 1
        },
        {
          "duration": 0.8181824999999989,
          "durationTicks": 1440,
          "midi": 38,
          "name": "D2",
          "ticks": 70560,
          "time": 40.090942500000004,
          "velocity": 1
        },
        {
          "duration": 0.5454549999999969,
          "durationTicks": 960,
          "midi": 42,
          "name": "F#2",
          "ticks": 72000,
          "time": 40.909125,
          "velocity": 1
        },
        {
          "duration": 0.409091250000003,
          "durationTicks": 720,
          "midi": 40,
          "name": "E2",
          "ticks": 72960,
          "time": 41.45458,
          "velocity": 1
        },
        {
          "duration": 0.136363750000001,
          "durationTicks": 240,
          "midi": 40,
          "name": "E2",
          "ticks": 73680,
          "time": 41.86367125,
          "velocity": 1
        },
        {
          "duration": 0.2727274999999949,
          "durationTicks": 480,
          "midi": 40,
          "name": "E2",
          "ticks": 73920,
          "time": 42.000035000000004,
          "velocity": 1
        },
        {
          "duration": 0.818182500000006,
          "durationTicks": 1440,
          "midi": 40,
          "name": "E2",
          "ticks": 74400,
          "time": 42.2727625,
          "velocity": 1
        },
        {
          "duration": 0.5454549999999969,
          "durationTicks": 960,
          "midi": 44,
          "name": "G#2",
          "ticks": 75840,
          "time": 43.090945000000005,
          "velocity": 1
        },
        {
          "duration": 0.409091250000003,
          "durationTicks": 720,
          "midi": 42,
          "name": "F#2",
          "ticks": 76800,
          "time": 43.6364,
          "velocity": 1
        },
        {
          "duration": 0.1363637499999939,
          "durationTicks": 240,
          "midi": 42,
          "name": "F#2",
          "ticks": 77520,
          "time": 44.045491250000005,
          "velocity": 1
        },
        {
          "duration": 0.272727500000002,
          "durationTicks": 480,
          "midi": 42,
          "name": "F#2",
          "ticks": 77760,
          "time": 44.181855,
          "velocity": 1
        },
        {
          "duration": 0.8181824999999989,
          "durationTicks": 1440,
          "midi": 42,
          "name": "F#2",
          "ticks": 78240,
          "time": 44.4545825,
          "velocity": 1
        },
        {
          "duration": 0.545455000000004,
          "durationTicks": 960,
          "midi": 44,
          "name": "G#2",
          "ticks": 79680,
          "time": 45.272765,
          "velocity": 1
        },
        {
          "duration": 0.4090912499999959,
          "durationTicks": 720,
          "midi": 45,
          "name": "A2",
          "ticks": 80640,
          "time": 45.818220000000004,
          "velocity": 1
        },
        {
          "duration": 0.136363750000001,
          "durationTicks": 240,
          "midi": 45,
          "name": "A2",
          "ticks": 81360,
          "time": 46.22731125,
          "velocity": 1
        },
        {
          "duration": 0.272727500000002,
          "durationTicks": 480,
          "midi": 45,
          "name": "A2",
          "ticks": 81600,
          "time": 46.363675,
          "velocity": 1
        },
        {
          "duration": 0.272727500000002,
          "durationTicks": 480,
          "midi": 45,
          "name": "A2",
          "ticks": 82080,
          "time": 46.6364025,
          "velocity": 1
        },
        {
          "duration": 0.4090912499999959,
          "durationTicks": 720,
          "midi": 40,
          "name": "E2",
          "ticks": 82560,
          "time": 46.909130000000005,
          "velocity": 1
        },
        {
          "duration": 0.136363750000001,
          "durationTicks": 240,
          "midi": 40,
          "name": "E2",
          "ticks": 83280,
          "time": 47.31822125,
          "velocity": 1
        },
        {
          "duration": 0.272727500000002,
          "durationTicks": 480,
          "midi": 40,
          "name": "E2",
          "ticks": 83520,
          "time": 47.454585,
          "velocity": 1
        },
        {
          "duration": 0.2727274999999949,
          "durationTicks": 480,
          "midi": 40,
          "name": "E2",
          "ticks": 84000,
          "time": 47.727312500000004,
          "velocity": 1
        },
        {
          "duration": 0.409091250000003,
          "durationTicks": 720,
          "midi": 38,
          "name": "D2",
          "ticks": 84480,
          "time": 48.00004,
          "velocity": 1
        },
        {
          "duration": 0.136363750000001,
          "durationTicks": 240,
          "midi": 38,
          "name": "D2",
          "ticks": 85200,
          "time": 48.40913125,
          "velocity": 1
        },
        {
          "duration": 0.272727500000002,
          "durationTicks": 480,
          "midi": 38,
          "name": "D2",
          "ticks": 85440,
          "time": 48.545495,
          "velocity": 1
        },
        {
          "duration": 0.8181824999999989,
          "durationTicks": 1440,
          "midi": 38,
          "name": "D2",
          "ticks": 85920,
          "time": 48.818222500000005,
          "velocity": 1
        },
        {
          "duration": 0.5454549999999969,
          "durationTicks": 960,
          "midi": 42,
          "name": "F#2",
          "ticks": 87360,
          "time": 49.636405,
          "velocity": 1
        },
        {
          "duration": 0.409091250000003,
          "durationTicks": 720,
          "midi": 40,
          "name": "E2",
          "ticks": 88320,
          "time": 50.18186,
          "velocity": 1
        },
        {
          "duration": 0.136363750000001,
          "durationTicks": 240,
          "midi": 40,
          "name": "E2",
          "ticks": 89040,
          "time": 50.59095125,
          "velocity": 1
        },
        {
          "duration": 0.2727274999999949,
          "durationTicks": 480,
          "midi": 40,
          "name": "E2",
          "ticks": 89280,
          "time": 50.727315000000004,
          "velocity": 1
        },
        {
          "duration": 0.818182500000006,
          "durationTicks": 1440,
          "midi": 40,
          "name": "E2",
          "ticks": 89760,
          "time": 51.0000425,
          "velocity": 1
        },
        {
          "duration": 0.5454549999999969,
          "durationTicks": 960,
          "midi": 40,
          "name": "E2",
          "ticks": 91200,
          "time": 51.818225000000005,
          "velocity": 1
        },
        {
          "duration": 0.409091250000003,
          "durationTicks": 720,
          "midi": 42,
          "name": "F#2",
          "ticks": 92160,
          "time": 52.36368,
          "velocity": 1
        },
        {
          "duration": 0.4090912499999959,
          "durationTicks": 720,
          "midi": 42,
          "name": "F#2",
          "ticks": 92880,
          "time": 52.772771250000005,
          "velocity": 1
        },
        {
          "duration": 0.8181824999999989,
          "durationTicks": 1440,
          "midi": 42,
          "name": "F#2",
          "ticks": 93600,
          "time": 53.1818625,
          "velocity": 1
        },
        {
          "duration": 0.545455000000004,
          "durationTicks": 960,
          "midi": 42,
          "name": "F#2",
          "ticks": 95040,
          "time": 54.000045,
          "velocity": 1
        },
        {
          "duration": 0.4090912499999959,
          "durationTicks": 720,
          "midi": 38,
          "name": "D2",
          "ticks": 96000,
          "time": 54.545500000000004,
          "velocity": 1
        },
        {
          "duration": 0.409091250000003,
          "durationTicks": 720,
          "midi": 38,
          "name": "D2",
          "ticks": 96720,
          "time": 54.95459125,
          "velocity": 1
        },
        {
          "duration": 0.8181824999999989,
          "durationTicks": 1440,
          "midi": 38,
          "name": "D2",
          "ticks": 97440,
          "time": 55.3636825,
          "velocity": 1
        },
        {
          "duration": 0.545455000000004,
          "durationTicks": 960,
          "midi": 38,
          "name": "D2",
          "ticks": 98880,
          "time": 56.181865,
          "velocity": 1
        },
        {
          "duration": 0.4090912499999959,
          "durationTicks": 720,
          "midi": 45,
          "name": "A2",
          "ticks": 99840,
          "time": 56.727320000000006,
          "velocity": 1
        },
        {
          "duration": 0.409091250000003,
          "durationTicks": 720,
          "midi": 45,
          "name": "A2",
          "ticks": 100560,
          "time": 57.13641125,
          "velocity": 1
        },
        {
          "duration": 0.8181824999999989,
          "durationTicks": 1440,
          "midi": 45,
          "name": "A2",
          "ticks": 101280,
          "time": 57.545502500000005,
          "velocity": 1
        },
        {
          "duration": 0.5454549999999969,
          "durationTicks": 960,
          "midi": 45,
          "name": "A2",
          "ticks": 102720,
          "time": 58.363685000000004,
          "velocity": 1
        },
        {
          "duration": 0.409091250000003,
          "durationTicks": 720,
          "midi": 40,
          "name": "E2",
          "ticks": 103680,
          "time": 58.90914,
          "velocity": 1
        },
        {
          "duration": 0.4090912499999959,
          "durationTicks": 720,
          "midi": 40,
          "name": "E2",
          "ticks": 104400,
          "time": 59.318231250000004,
          "velocity": 1
        },
        {
          "duration": 0.818182500000006,
          "durationTicks": 1440,
          "midi": 40,
          "name": "E2",
          "ticks": 105120,
          "time": 59.7273225,
          "velocity": 1
        },
        {
          "duration": 0.5454549999999969,
          "durationTicks": 960,
          "midi": 40,
          "name": "E2",
          "ticks": 106560,
          "time": 60.545505000000006,
          "velocity": 1
        },
        {
          "duration": 0.409091250000003,
          "durationTicks": 720,
          "midi": 42,
          "name": "F#2",
          "ticks": 107520,
          "time": 61.09096,
          "velocity": 1
        },
        {
          "duration": 0.4090912499999959,
          "durationTicks": 720,
          "midi": 42,
          "name": "F#2",
          "ticks": 108240,
          "time": 61.500051250000006,
          "velocity": 1
        },
        {
          "duration": 0.8181824999999989,
          "durationTicks": 1440,
          "midi": 42,
          "name": "F#2",
          "ticks": 108960,
          "time": 61.9091425,
          "velocity": 1
        },
        {
          "duration": 0.545455000000004,
          "durationTicks": 960,
          "midi": 42,
          "name": "F#2",
          "ticks": 110400,
          "time": 62.727325,
          "velocity": 1
        },
        {
          "duration": 0.4090912499999959,
          "durationTicks": 720,
          "midi": 38,
          "name": "D2",
          "ticks": 111360,
          "time": 63.272780000000004,
          "velocity": 1
        },
        {
          "duration": 0.409091250000003,
          "durationTicks": 720,
          "midi": 38,
          "name": "D2",
          "ticks": 112080,
          "time": 63.68187125,
          "velocity": 1
        },
        {
          "duration": 0.818182500000006,
          "durationTicks": 1440,
          "midi": 38,
          "name": "D2",
          "ticks": 112800,
          "time": 64.0909625,
          "velocity": 1
        },
        {
          "duration": 0.5454549999999898,
          "durationTicks": 960,
          "midi": 38,
          "name": "D2",
          "ticks": 114240,
          "time": 64.90914500000001,
          "velocity": 1
        },
        {
          "duration": 0.409091250000003,
          "durationTicks": 720,
          "midi": 45,
          "name": "A2",
          "ticks": 115200,
          "time": 65.4546,
          "velocity": 1
        },
        {
          "duration": 0.409091250000003,
          "durationTicks": 720,
          "midi": 45,
          "name": "A2",
          "ticks": 115920,
          "time": 65.86369125,
          "velocity": 1
        },
        {
          "duration": 0.8181824999999918,
          "durationTicks": 1440,
          "midi": 45,
          "name": "A2",
          "ticks": 116640,
          "time": 66.2727825,
          "velocity": 1
        },
        {
          "duration": 0.545455000000004,
          "durationTicks": 960,
          "midi": 45,
          "name": "A2",
          "ticks": 118080,
          "time": 67.090965,
          "velocity": 1
        },
        {
          "duration": 0.409091250000003,
          "durationTicks": 720,
          "midi": 40,
          "name": "E2",
          "ticks": 119040,
          "time": 67.63642,
          "velocity": 1
        },
        {
          "duration": 0.409091250000003,
          "durationTicks": 720,
          "midi": 40,
          "name": "E2",
          "ticks": 119760,
          "time": 68.04551125,
          "velocity": 1
        },
        {
          "duration": 0.8181824999999918,
          "durationTicks": 1440,
          "midi": 40,
          "name": "E2",
          "ticks": 120480,
          "time": 68.45460250000001,
          "velocity": 1
        },
        {
          "duration": 0.545455000000004,
          "durationTicks": 960,
          "midi": 40,
          "name": "E2",
          "ticks": 121920,
          "time": 69.272785,
          "velocity": 1
        },
        {
          "duration": 0.409091250000003,
          "durationTicks": 720,
          "midi": 42,
          "name": "F#2",
          "ticks": 122880,
          "time": 69.81824,
          "velocity": 1
        },
        {
          "duration": 0.409091250000003,
          "durationTicks": 720,
          "midi": 42,
          "name": "F#2",
          "ticks": 123600,
          "time": 70.22733125,
          "velocity": 1
        },
        {
          "duration": 0.8181824999999918,
          "durationTicks": 1440,
          "midi": 42,
          "name": "F#2",
          "ticks": 124320,
          "time": 70.63642250000001,
          "velocity": 1
        },
        {
          "duration": 0.545455000000004,
          "durationTicks": 960,
          "midi": 42,
          "name": "F#2",
          "ticks": 125760,
          "time": 71.454605,
          "velocity": 1
        },
        {
          "duration": 0.409091250000003,
          "durationTicks": 720,
          "midi": 38,
          "name": "D2",
          "ticks": 126720,
          "time": 72.00006,
          "velocity": 1
        },
        {
          "duration": 0.4090912499999888,
          "durationTicks": 720,
          "midi": 38,
          "name": "D2",
          "ticks": 127440,
          "time": 72.40915125000001,
          "velocity": 1
        },
        {
          "duration": 0.818182500000006,
          "durationTicks": 1440,
          "midi": 38,
          "name": "D2",
          "ticks": 128160,
          "time": 72.8182425,
          "velocity": 1
        },
        {
          "duration": 0.545455000000004,
          "durationTicks": 960,
          "midi": 38,
          "name": "D2",
          "ticks": 129600,
          "time": 73.636425,
          "velocity": 1
        },
        {
          "duration": 0.409091250000003,
          "durationTicks": 720,
          "midi": 45,
          "name": "A2",
          "ticks": 130560,
          "time": 74.18188,
          "velocity": 1
        },
        {
          "duration": 0.4090912499999888,
          "durationTicks": 720,
          "midi": 45,
          "name": "A2",
          "ticks": 131280,
          "time": 74.59097125000001,
          "velocity": 1
        },
        {
          "duration": 0.818182500000006,
          "durationTicks": 1440,
          "midi": 45,
          "name": "A2",
          "ticks": 132000,
          "time": 75.0000625,
          "velocity": 1
        },
        {
          "duration": 0.545455000000004,
          "durationTicks": 960,
          "midi": 45,
          "name": "A2",
          "ticks": 133440,
          "time": 75.818245,
          "velocity": 1
        },
        {
          "duration": 0.4090912499999888,
          "durationTicks": 720,
          "midi": 40,
          "name": "E2",
          "ticks": 134400,
          "time": 76.36370000000001,
          "velocity": 1
        },
        {
          "duration": 0.409091250000003,
          "durationTicks": 720,
          "midi": 40,
          "name": "E2",
          "ticks": 135120,
          "time": 76.77279125,
          "velocity": 1
        },
        {
          "duration": 0.818182500000006,
          "durationTicks": 1440,
          "midi": 40,
          "name": "E2",
          "ticks": 135840,
          "time": 77.1818825,
          "velocity": 1
        },
        {
          "duration": 0.545455000000004,
          "durationTicks": 960,
          "midi": 40,
          "name": "E2",
          "ticks": 137280,
          "time": 78.000065,
          "velocity": 1
        },
        {
          "duration": 0.4090912499999888,
          "durationTicks": 720,
          "midi": 42,
          "name": "F#2",
          "ticks": 138240,
          "time": 78.54552000000001,
          "velocity": 1
        },
        {
          "duration": 0.409091250000003,
          "durationTicks": 720,
          "midi": 42,
          "name": "F#2",
          "ticks": 138960,
          "time": 78.95461125,
          "velocity": 1
        },
        {
          "duration": 0.818182500000006,
          "durationTicks": 1440,
          "midi": 42,
          "name": "F#2",
          "ticks": 139680,
          "time": 79.3637025,
          "velocity": 1
        },
        {
          "duration": 0.5454549999999898,
          "durationTicks": 960,
          "midi": 42,
          "name": "F#2",
          "ticks": 141120,
          "time": 80.18188500000001,
          "velocity": 1
        },
        {
          "duration": 0.409091250000003,
          "durationTicks": 720,
          "midi": 38,
          "name": "D2",
          "ticks": 142080,
          "time": 80.72734,
          "velocity": 1
        },
        {
          "duration": 0.409091250000003,
          "durationTicks": 720,
          "midi": 38,
          "name": "D2",
          "ticks": 142800,
          "time": 81.13643125,
          "velocity": 1
        },
        {
          "duration": 0.818182500000006,
          "durationTicks": 1440,
          "midi": 38,
          "name": "D2",
          "ticks": 143520,
          "time": 81.5455225,
          "velocity": 1
        },
        {
          "duration": 0.5454549999999898,
          "durationTicks": 960,
          "midi": 38,
          "name": "D2",
          "ticks": 144960,
          "time": 82.36370500000001,
          "velocity": 1
        },
        {
          "duration": 0.409091250000003,
          "durationTicks": 720,
          "midi": 45,
          "name": "A2",
          "ticks": 145920,
          "time": 82.90916,
          "velocity": 1
        },
        {
          "duration": 0.409091250000003,
          "durationTicks": 720,
          "midi": 45,
          "name": "A2",
          "ticks": 146640,
          "time": 83.31825125,
          "velocity": 1
        },
        {
          "duration": 0.8181824999999918,
          "durationTicks": 1440,
          "midi": 45,
          "name": "A2",
          "ticks": 147360,
          "time": 83.7273425,
          "velocity": 1
        },
        {
          "duration": 0.545455000000004,
          "durationTicks": 960,
          "midi": 45,
          "name": "A2",
          "ticks": 148800,
          "time": 84.545525,
          "velocity": 1
        },
        {
          "duration": 0.409091250000003,
          "durationTicks": 720,
          "midi": 40,
          "name": "E2",
          "ticks": 149760,
          "time": 85.09098,
          "velocity": 1
        },
        {
          "duration": 0.409091250000003,
          "durationTicks": 720,
          "midi": 40,
          "name": "E2",
          "ticks": 150480,
          "time": 85.50007125,
          "velocity": 1
        },
        {
          "duration": 0.8181824999999918,
          "durationTicks": 1440,
          "midi": 40,
          "name": "E2",
          "ticks": 151200,
          "time": 85.90916250000001,
          "velocity": 1
        },
        {
          "duration": 0.545455000000004,
          "durationTicks": 960,
          "midi": 40,
          "name": "E2",
          "ticks": 152640,
          "time": 86.727345,
          "velocity": 1
        },
        {
          "duration": 0.409091250000003,
          "durationTicks": 720,
          "midi": 38,
          "name": "D2",
          "ticks": 153600,
          "time": 87.2728,
          "velocity": 1
        },
        {
          "duration": 0.136363750000001,
          "durationTicks": 240,
          "midi": 38,
          "name": "D2",
          "ticks": 154320,
          "time": 87.68189125,
          "velocity": 1
        },
        {
          "duration": 0.272727500000002,
          "durationTicks": 480,
          "midi": 38,
          "name": "D2",
          "ticks": 154560,
          "time": 87.81825500000001,
          "velocity": 1
        },
        {
          "duration": 0.8181824999999918,
          "durationTicks": 1440,
          "midi": 38,
          "name": "D2",
          "ticks": 155040,
          "time": 88.09098250000001,
          "velocity": 1
        },
        {
          "duration": 0.545455000000004,
          "durationTicks": 960,
          "midi": 42,
          "name": "F#2",
          "ticks": 156480,
          "time": 88.909165,
          "velocity": 1
        },
        {
          "duration": 0.409091250000003,
          "durationTicks": 720,
          "midi": 40,
          "name": "E2",
          "ticks": 157440,
          "time": 89.45462,
          "velocity": 1
        },
        {
          "duration": 0.136363750000001,
          "durationTicks": 240,
          "midi": 40,
          "name": "E2",
          "ticks": 158160,
          "time": 89.86371125000001,
          "velocity": 1
        },
        {
          "duration": 0.2727274999999878,
          "durationTicks": 480,
          "midi": 40,
          "name": "E2",
          "ticks": 158400,
          "time": 90.00007500000001,
          "velocity": 1
        },
        {
          "duration": 0.818182500000006,
          "durationTicks": 1440,
          "midi": 40,
          "name": "E2",
          "ticks": 158880,
          "time": 90.2728025,
          "velocity": 1
        },
        {
          "duration": 0.545455000000004,
          "durationTicks": 960,
          "midi": 44,
          "name": "G#2",
          "ticks": 160320,
          "time": 91.090985,
          "velocity": 1
        },
        {
          "duration": 0.409091250000003,
          "durationTicks": 720,
          "midi": 42,
          "name": "F#2",
          "ticks": 161280,
          "time": 91.63644000000001,
          "velocity": 1
        },
        {
          "duration": 0.1363637499999868,
          "durationTicks": 240,
          "midi": 42,
          "name": "F#2",
          "ticks": 162000,
          "time": 92.04553125000001,
          "velocity": 1
        },
        {
          "duration": 0.272727500000002,
          "durationTicks": 480,
          "midi": 42,
          "name": "F#2",
          "ticks": 162240,
          "time": 92.181895,
          "velocity": 1
        },
        {
          "duration": 0.818182500000006,
          "durationTicks": 1440,
          "midi": 42,
          "name": "F#2",
          "ticks": 162720,
          "time": 92.4546225,
          "velocity": 1
        },
        {
          "duration": 0.545455000000004,
          "durationTicks": 960,
          "midi": 44,
          "name": "G#2",
          "ticks": 164160,
          "time": 93.272805,
          "velocity": 1
        },
        {
          "duration": 0.4090912499999888,
          "durationTicks": 720,
          "midi": 45,
          "name": "A2",
          "ticks": 165120,
          "time": 93.81826000000001,
          "velocity": 1
        },
        {
          "duration": 0.136363750000001,
          "durationTicks": 240,
          "midi": 45,
          "name": "A2",
          "ticks": 165840,
          "time": 94.22735125,
          "velocity": 1
        },
        {
          "duration": 0.272727500000002,
          "durationTicks": 480,
          "midi": 45,
          "name": "A2",
          "ticks": 166080,
          "time": 94.363715,
          "velocity": 1
        },
        {
          "duration": 0.272727500000002,
          "durationTicks": 480,
          "midi": 45,
          "name": "A2",
          "ticks": 166560,
          "time": 94.6364425,
          "velocity": 1
        },
        {
          "duration": 0.409091250000003,
          "durationTicks": 720,
          "midi": 40,
          "name": "E2",
          "ticks": 167040,
          "time": 94.90917,
          "velocity": 1
        },
        {
          "duration": 0.136363750000001,
          "durationTicks": 240,
          "midi": 40,
          "name": "E2",
          "ticks": 167760,
          "time": 95.31826125,
          "velocity": 1
        },
        {
          "duration": 0.272727500000002,
          "durationTicks": 480,
          "midi": 40,
          "name": "E2",
          "ticks": 168000,
          "time": 95.45462500000001,
          "velocity": 1
        },
        {
          "duration": 0.2727274999999878,
          "durationTicks": 480,
          "midi": 40,
          "name": "E2",
          "ticks": 168480,
          "time": 95.72735250000001,
          "velocity": 1
        },
        {
          "duration": 0.409091250000003,
          "durationTicks": 720,
          "midi": 38,
          "name": "D2",
          "ticks": 168960,
          "time": 96.00008,
          "velocity": 1
        },
        {
          "duration": 0.136363750000001,
          "durationTicks": 240,
          "midi": 38,
          "name": "D2",
          "ticks": 169680,
          "time": 96.40917125,
          "velocity": 1
        },
        {
          "duration": 0.272727500000002,
          "durationTicks": 480,
          "midi": 38,
          "name": "D2",
          "ticks": 169920,
          "time": 96.545535,
          "velocity": 1
        },
        {
          "duration": 0.818182500000006,
          "durationTicks": 1440,
          "midi": 38,
          "name": "D2",
          "ticks": 170400,
          "time": 96.8182625,
          "velocity": 1
        },
        {
          "duration": 0.5454549999999898,
          "durationTicks": 960,
          "midi": 42,
          "name": "F#2",
          "ticks": 171840,
          "time": 97.63644500000001,
          "velocity": 1
        },
        {
          "duration": 0.409091250000003,
          "durationTicks": 720,
          "midi": 40,
          "name": "E2",
          "ticks": 172800,
          "time": 98.1819,
          "velocity": 1
        },
        {
          "duration": 0.136363750000001,
          "durationTicks": 240,
          "midi": 40,
          "name": "E2",
          "ticks": 173520,
          "time": 98.59099125,
          "velocity": 1
        },
        {
          "duration": 0.272727500000002,
          "durationTicks": 480,
          "midi": 40,
          "name": "E2",
          "ticks": 173760,
          "time": 98.727355,
          "velocity": 1
        },
        {
          "duration": 0.818182500000006,
          "durationTicks": 1440,
          "midi": 40,
          "name": "E2",
          "ticks": 174240,
          "time": 99.0000825,
          "velocity": 1
        },
        {
          "duration": 0.5454549999999898,
          "durationTicks": 960,
          "midi": 42,
          "name": "F#2",
          "ticks": 175680,
          "time": 99.81826500000001,
          "velocity": 1
        },
        {
          "duration": 0.409091250000003,
          "durationTicks": 720,
          "midi": 42,
          "name": "F#2",
          "ticks": 176640,
          "time": 100.36372,
          "velocity": 1
        },
        {
          "duration": 0.136363750000001,
          "durationTicks": 240,
          "midi": 42,
          "name": "F#2",
          "ticks": 177360,
          "time": 100.77281125,
          "velocity": 1
        },
        {
          "duration": 0.272727500000002,
          "durationTicks": 480,
          "midi": 42,
          "name": "F#2",
          "ticks": 177600,
          "time": 100.909175,
          "velocity": 1
        },
        {
          "duration": 0.8181824999999918,
          "durationTicks": 1440,
          "midi": 42,
          "name": "F#2",
          "ticks": 178080,
          "time": 101.1819025,
          "velocity": 1
        },
        {
          "duration": 0.545455000000004,
          "durationTicks": 960,
          "midi": 44,
          "name": "G#2",
          "ticks": 179520,
          "time": 102.000085,
          "velocity": 1
        },
        {
          "duration": 0.409091250000003,
          "durationTicks": 720,
          "midi": 45,
          "name": "A2",
          "ticks": 180480,
          "time": 102.54554,
          "velocity": 1
        },
        {
          "duration": 0.136363750000001,
          "durationTicks": 240,
          "midi": 45,
          "name": "A2",
          "ticks": 181200,
          "time": 102.95463125,
          "velocity": 1
        },
        {
          "duration": 0.272727500000002,
          "durationTicks": 480,
          "midi": 45,
          "name": "A2",
          "ticks": 181440,
          "time": 103.090995,
          "velocity": 1
        },
        {
          "duration": 0.272727500000002,
          "durationTicks": 480,
          "midi": 45,
          "name": "A2",
          "ticks": 181920,
          "time": 103.36372250000001,
          "velocity": 1
        },
        {
          "duration": 0.4090912499999888,
          "durationTicks": 720,
          "midi": 44,
          "name": "G#2",
          "ticks": 182400,
          "time": 103.63645000000001,
          "velocity": 1
        },
        {
          "duration": 0.136363750000001,
          "durationTicks": 240,
          "midi": 44,
          "name": "G#2",
          "ticks": 183120,
          "time": 104.04554125,
          "velocity": 1
        },
        {
          "duration": 0.272727500000002,
          "durationTicks": 480,
          "midi": 44,
          "name": "G#2",
          "ticks": 183360,
          "time": 104.181905,
          "velocity": 1
        },
        {
          "duration": 0.272727500000002,
          "durationTicks": 480,
          "midi": 44,
          "name": "G#2",
          "ticks": 183840,
          "time": 104.4546325,
          "velocity": 1
        },
        {
          "duration": 0.409091250000003,
          "durationTicks": 720,
          "midi": 42,
          "name": "F#2",
          "ticks": 184320,
          "time": 104.72736,
          "velocity": 1
        },
        {
          "duration": 0.409091250000003,
          "durationTicks": 720,
          "midi": 42,
          "name": "F#2",
          "ticks": 185040,
          "time": 105.13645125000001,
          "velocity": 1
        },
        {
          "duration": 0.8181824999999918,
          "durationTicks": 1440,
          "midi": 42,
          "name": "F#2",
          "ticks": 185760,
          "time": 105.54554250000001,
          "velocity": 1
        },
        {
          "duration": 0.545455000000004,
          "durationTicks": 960,
          "midi": 42,
          "name": "F#2",
          "ticks": 187200,
          "time": 106.363725,
          "velocity": 1
        },
        {
          "duration": 0.409091250000003,
          "durationTicks": 720,
          "midi": 38,
          "name": "D2",
          "ticks": 188160,
          "time": 106.90918,
          "velocity": 1
        },
        {
          "duration": 0.4090912499999888,
          "durationTicks": 720,
          "midi": 38,
          "name": "D2",
          "ticks": 188880,
          "time": 107.31827125000001,
          "velocity": 1
        },
        {
          "duration": 0.818182500000006,
          "durationTicks": 1440,
          "midi": 38,
          "name": "D2",
          "ticks": 189600,
          "time": 107.7273625,
          "velocity": 1
        },
        {
          "duration": 0.545455000000004,
          "durationTicks": 960,
          "midi": 38,
          "name": "D2",
          "ticks": 191040,
          "time": 108.545545,
          "velocity": 1
        },
        {
          "duration": 0.409091250000003,
          "durationTicks": 720,
          "midi": 45,
          "name": "A2",
          "ticks": 192000,
          "time": 109.09100000000001,
          "velocity": 1
        },
        {
          "duration": 0.4090912499999888,
          "durationTicks": 720,
          "midi": 45,
          "name": "A2",
          "ticks": 192720,
          "time": 109.50009125000001,
          "velocity": 1
        },
        {
          "duration": 0.818182500000006,
          "durationTicks": 1440,
          "midi": 45,
          "name": "A2",
          "ticks": 193440,
          "time": 109.9091825,
          "velocity": 1
        },
        {
          "duration": 0.545455000000004,
          "durationTicks": 960,
          "midi": 45,
          "name": "A2",
          "ticks": 194880,
          "time": 110.727365,
          "velocity": 1
        },
        {
          "duration": 0.4090912499999888,
          "durationTicks": 720,
          "midi": 40,
          "name": "E2",
          "ticks": 195840,
          "time": 111.27282000000001,
          "velocity": 1
        },
        {
          "duration": 0.409091250000003,
          "durationTicks": 720,
          "midi": 40,
          "name": "E2",
          "ticks": 196560,
          "time": 111.68191125,
          "velocity": 1
        },
        {
          "duration": 0.818182500000006,
          "durationTicks": 1440,
          "midi": 40,
          "name": "E2",
          "ticks": 197280,
          "time": 112.0910025,
          "velocity": 1
        },
        {
          "duration": 0.545455000000004,
          "durationTicks": 960,
          "midi": 40,
          "name": "E2",
          "ticks": 198720,
          "time": 112.90918500000001,
          "velocity": 1
        },
        {
          "duration": 0.4090912499999888,
          "durationTicks": 720,
          "midi": 42,
          "name": "F#2",
          "ticks": 199680,
          "time": 113.45464000000001,
          "velocity": 1
        },
        {
          "duration": 0.409091250000003,
          "durationTicks": 720,
          "midi": 42,
          "name": "F#2",
          "ticks": 200400,
          "time": 113.86373125,
          "velocity": 1
        },
        {
          "duration": 0.818182500000006,
          "durationTicks": 1440,
          "midi": 42,
          "name": "F#2",
          "ticks": 201120,
          "time": 114.2728225,
          "velocity": 1
        },
        {
          "duration": 0.5454549999999898,
          "durationTicks": 960,
          "midi": 42,
          "name": "F#2",
          "ticks": 202560,
          "time": 115.09100500000001,
          "velocity": 1
        },
        {
          "duration": 0.409091250000003,
          "durationTicks": 720,
          "midi": 38,
          "name": "D2",
          "ticks": 203520,
          "time": 115.63646,
          "velocity": 1
        },
        {
          "duration": 0.409091250000003,
          "durationTicks": 720,
          "midi": 38,
          "name": "D2",
          "ticks": 204240,
          "time": 116.04555125,
          "velocity": 1
        },
        {
          "duration": 0.818182500000006,
          "durationTicks": 1440,
          "midi": 38,
          "name": "D2",
          "ticks": 204960,
          "time": 116.4546425,
          "velocity": 1
        },
        {
          "duration": 0.5454549999999898,
          "durationTicks": 960,
          "midi": 38,
          "name": "D2",
          "ticks": 206400,
          "time": 117.27282500000001,
          "velocity": 1
        },
        {
          "duration": 0.409091250000003,
          "durationTicks": 720,
          "midi": 45,
          "name": "A2",
          "ticks": 207360,
          "time": 117.81828,
          "velocity": 1
        },
        {
          "duration": 0.409091250000003,
          "durationTicks": 720,
          "midi": 45,
          "name": "A2",
          "ticks": 208080,
          "time": 118.22737125,
          "velocity": 1
        },
        {
          "duration": 0.8181824999999918,
          "durationTicks": 1440,
          "midi": 45,
          "name": "A2",
          "ticks": 208800,
          "time": 118.63646250000001,
          "velocity": 1
        },
        {
          "duration": 0.545455000000004,
          "durationTicks": 960,
          "midi": 45,
          "name": "A2",
          "ticks": 210240,
          "time": 119.454645,
          "velocity": 1
        },
        {
          "duration": 0.409091250000003,
          "durationTicks": 720,
          "midi": 40,
          "name": "E2",
          "ticks": 211200,
          "time": 120.0001,
          "velocity": 1
        },
        {
          "duration": 0.409091250000003,
          "durationTicks": 720,
          "midi": 40,
          "name": "E2",
          "ticks": 211920,
          "time": 120.40919125,
          "velocity": 1
        },
        {
          "duration": 0.8181824999999918,
          "durationTicks": 1440,
          "midi": 40,
          "name": "E2",
          "ticks": 212640,
          "time": 120.81828250000001,
          "velocity": 1
        },
        {
          "duration": 0.545455000000004,
          "durationTicks": 960,
          "midi": 40,
          "name": "E2",
          "ticks": 214080,
          "time": 121.636465,
          "velocity": 1
        },
        {
          "duration": 0.409091250000003,
          "durationTicks": 720,
          "midi": 38,
          "name": "D2",
          "ticks": 215040,
          "time": 122.18192,
          "velocity": 1
        },
        {
          "duration": 0.136363750000001,
          "durationTicks": 240,
          "midi": 38,
          "name": "D2",
          "ticks": 215760,
          "time": 122.59101125000001,
          "velocity": 1
        },
        {
          "duration": 0.272727500000002,
          "durationTicks": 480,
          "midi": 38,
          "name": "D2",
          "ticks": 216000,
          "time": 122.72737500000001,
          "velocity": 1
        },
        {
          "duration": 0.8181824999999918,
          "durationTicks": 1440,
          "midi": 38,
          "name": "D2",
          "ticks": 216480,
          "time": 123.00010250000001,
          "velocity": 1
        },
        {
          "duration": 0.545455000000004,
          "durationTicks": 960,
          "midi": 42,
          "name": "F#2",
          "ticks": 217920,
          "time": 123.818285,
          "velocity": 1
        },
        {
          "duration": 0.409091250000003,
          "durationTicks": 720,
          "midi": 40,
          "name": "E2",
          "ticks": 218880,
          "time": 124.36374,
          "velocity": 1
        },
        {
          "duration": 0.136363750000001,
          "durationTicks": 240,
          "midi": 40,
          "name": "E2",
          "ticks": 219600,
          "time": 124.77283125000001,
          "velocity": 1
        },
        {
          "duration": 0.2727274999999878,
          "durationTicks": 480,
          "midi": 40,
          "name": "E2",
          "ticks": 219840,
          "time": 124.90919500000001,
          "velocity": 1
        },
        {
          "duration": 0.818182500000006,
          "durationTicks": 1440,
          "midi": 40,
          "name": "E2",
          "ticks": 220320,
          "time": 125.1819225,
          "velocity": 1
        },
        {
          "duration": 0.545455000000004,
          "durationTicks": 960,
          "midi": 44,
          "name": "G#2",
          "ticks": 221760,
          "time": 126.000105,
          "velocity": 1
        },
        {
          "duration": 1.0909099999999938,
          "durationTicks": 1920,
          "midi": 42,
          "name": "F#2",
          "ticks": 222720,
          "time": 126.54556000000001,
          "velocity": 1
        },
        {
          "duration": 1.090910000000008,
          "durationTicks": 1920,
          "midi": 44,
          "name": "G#2",
          "ticks": 224640,
          "time": 127.63647,
          "velocity": 1
        },
        {
          "duration": 1.090910000000008,
          "durationTicks": 1920,
          "midi": 45,
          "name": "A2",
          "ticks": 226560,
          "time": 128.72738,
          "velocity": 1
        },
        {
          "duration": 1.0909099999999796,
          "durationTicks": 1920,
          "midi": 40,
          "name": "E2",
          "ticks": 228480,
          "time": 129.81829000000002,
          "velocity": 1
        },
        {
          "duration": 0.4090912500000172,
          "durationTicks": 720,
          "midi": 38,
          "name": "D2",
          "ticks": 230400,
          "time": 130.9092,
          "velocity": 1
        },
        {
          "duration": 0.1363637499999868,
          "durationTicks": 240,
          "midi": 38,
          "name": "D2",
          "ticks": 231120,
          "time": 131.31829125000002,
          "velocity": 1
        },
        {
          "duration": 0.272727500000002,
          "durationTicks": 480,
          "midi": 38,
          "name": "D2",
          "ticks": 231360,
          "time": 131.454655,
          "velocity": 1
        },
        {
          "duration": 0.818182500000006,
          "durationTicks": 1440,
          "midi": 38,
          "name": "D2",
          "ticks": 231840,
          "time": 131.7273825,
          "velocity": 1
        },
        {
          "duration": 0.545455000000004,
          "durationTicks": 960,
          "midi": 42,
          "name": "F#2",
          "ticks": 233280,
          "time": 132.545565,
          "velocity": 1
        },
        {
          "duration": 0.4090912499999888,
          "durationTicks": 720,
          "midi": 40,
          "name": "E2",
          "ticks": 234240,
          "time": 133.09102000000001,
          "velocity": 1
        },
        {
          "duration": 0.13636375000001522,
          "durationTicks": 240,
          "midi": 40,
          "name": "E2",
          "ticks": 234960,
          "time": 133.50011125,
          "velocity": 1
        },
        {
          "duration": 0.2727274999999736,
          "durationTicks": 480,
          "midi": 40,
          "name": "E2",
          "ticks": 235200,
          "time": 133.63647500000002,
          "velocity": 1
        },
        {
          "duration": 0.818182500000006,
          "durationTicks": 1440,
          "midi": 40,
          "name": "E2",
          "ticks": 235680,
          "time": 133.9092025,
          "velocity": 1
        },
        {
          "duration": 0.545455000000004,
          "durationTicks": 960,
          "midi": 44,
          "name": "G#2",
          "ticks": 237120,
          "time": 134.727385,
          "velocity": 1
        },
        {
          "duration": 0.4090912500000172,
          "durationTicks": 720,
          "midi": 37,
          "name": "C#2",
          "ticks": 238080,
          "time": 135.27284,
          "velocity": 1
        },
        {
          "duration": 0.1363637499999868,
          "durationTicks": 240,
          "midi": 37,
          "name": "C#2",
          "ticks": 238800,
          "time": 135.68193125000002,
          "velocity": 1
        },
        {
          "duration": 0.272727500000002,
          "durationTicks": 480,
          "midi": 37,
          "name": "C#2",
          "ticks": 239040,
          "time": 135.818295,
          "velocity": 1
        },
        {
          "duration": 0.818182500000006,
          "durationTicks": 1440,
          "midi": 37,
          "name": "C#2",
          "ticks": 239520,
          "time": 136.0910225,
          "velocity": 1
        },
        {
          "duration": 0.545455000000004,
          "durationTicks": 960,
          "midi": 37,
          "name": "C#2",
          "ticks": 240960,
          "time": 136.90920500000001,
          "velocity": 1
        },
        {
          "duration": 0.4090912499999888,
          "durationTicks": 720,
          "midi": 37,
          "name": "C#2",
          "ticks": 241920,
          "time": 137.45466000000002,
          "velocity": 1
        },
        {
          "duration": 0.1363637499999868,
          "durationTicks": 240,
          "midi": 37,
          "name": "C#2",
          "ticks": 242640,
          "time": 137.86375125,
          "velocity": 1
        },
        {
          "duration": 0.272727500000002,
          "durationTicks": 480,
          "midi": 37,
          "name": "C#2",
          "ticks": 242880,
          "time": 138.000115,
          "velocity": 1
        },
        {
          "duration": 0.818182500000006,
          "durationTicks": 1440,
          "midi": 37,
          "name": "C#2",
          "ticks": 243360,
          "time": 138.2728425,
          "velocity": 1
        },
        {
          "duration": 0.545455000000004,
          "durationTicks": 960,
          "midi": 37,
          "name": "C#2",
          "ticks": 244800,
          "time": 139.091025,
          "velocity": 1
        },
        {
          "duration": 0.4090912499999888,
          "durationTicks": 720,
          "midi": 37,
          "name": "C#2",
          "ticks": 245760,
          "time": 139.63648,
          "velocity": 1
        },
        {
          "duration": 0.13636375000001522,
          "durationTicks": 240,
          "midi": 37,
          "name": "C#2",
          "ticks": 246480,
          "time": 140.04557125,
          "velocity": 1
        },
        {
          "duration": 0.272727500000002,
          "durationTicks": 480,
          "midi": 37,
          "name": "C#2",
          "ticks": 246720,
          "time": 140.181935,
          "velocity": 1
        },
        {
          "duration": 0.818182500000006,
          "durationTicks": 1440,
          "midi": 37,
          "name": "C#2",
          "ticks": 247200,
          "time": 140.4546625,
          "velocity": 1
        },
        {
          "duration": 0.5454549999999756,
          "durationTicks": 960,
          "midi": 37,
          "name": "C#2",
          "ticks": 248640,
          "time": 141.27284500000002,
          "velocity": 1
        },
        {
          "duration": 0.4090912500000172,
          "durationTicks": 720,
          "midi": 42,
          "name": "F#2",
          "ticks": 249600,
          "time": 141.8183,
          "velocity": 1
        },
        {
          "duration": 0.4090912499999888,
          "durationTicks": 720,
          "midi": 42,
          "name": "F#2",
          "ticks": 250320,
          "time": 142.22739125,
          "velocity": 1
        },
        {
          "duration": 0.818182500000006,
          "durationTicks": 1440,
          "midi": 42,
          "name": "F#2",
          "ticks": 251040,
          "time": 142.6364825,
          "velocity": 1
        },
        {
          "duration": 0.545455000000004,
          "durationTicks": 960,
          "midi": 42,
          "name": "F#2",
          "ticks": 252480,
          "time": 143.454665,
          "velocity": 1
        },
        {
          "duration": 0.4090912499999888,
          "durationTicks": 720,
          "midi": 38,
          "name": "D2",
          "ticks": 253440,
          "time": 144.00012,
          "velocity": 1
        },
        {
          "duration": 0.4090912500000172,
          "durationTicks": 720,
          "midi": 38,
          "name": "D2",
          "ticks": 254160,
          "time": 144.40921125,
          "velocity": 1
        },
        {
          "duration": 0.8181824999999776,
          "durationTicks": 1440,
          "midi": 38,
          "name": "D2",
          "ticks": 254880,
          "time": 144.81830250000002,
          "velocity": 1
        },
        {
          "duration": 0.545455000000004,
          "durationTicks": 960,
          "midi": 38,
          "name": "D2",
          "ticks": 256320,
          "time": 145.636485,
          "velocity": 1
        },
        {
          "duration": 0.4090912500000172,
          "durationTicks": 720,
          "midi": 45,
          "name": "A2",
          "ticks": 257280,
          "time": 146.18194,
          "velocity": 1
        },
        {
          "duration": 0.4090912499999888,
          "durationTicks": 720,
          "midi": 45,
          "name": "A2",
          "ticks": 258000,
          "time": 146.59103125000001,
          "velocity": 1
        },
        {
          "duration": 0.818182500000006,
          "durationTicks": 1440,
          "midi": 45,
          "name": "A2",
          "ticks": 258720,
          "time": 147.0001225,
          "velocity": 1
        },
        {
          "duration": 0.545455000000004,
          "durationTicks": 960,
          "midi": 45,
          "name": "A2",
          "ticks": 260160,
          "time": 147.818305,
          "velocity": 1
        },
        {
          "duration": 0.4090912499999888,
          "durationTicks": 720,
          "midi": 40,
          "name": "E2",
          "ticks": 261120,
          "time": 148.36376,
          "velocity": 1
        },
        {
          "duration": 0.4090912500000172,
          "durationTicks": 720,
          "midi": 40,
          "name": "E2",
          "ticks": 261840,
          "time": 148.77285125,
          "velocity": 1
        },
        {
          "duration": 0.8181824999999776,
          "durationTicks": 1440,
          "midi": 40,
          "name": "E2",
          "ticks": 262560,
          "time": 149.18194250000002,
          "velocity": 1
        },
        {
          "duration": 0.545455000000004,
          "durationTicks": 960,
          "midi": 40,
          "name": "E2",
          "ticks": 264000,
          "time": 150.000125,
          "velocity": 1
        },
        {
          "duration": 0.4090912500000172,
          "durationTicks": 720,
          "midi": 42,
          "name": "F#2",
          "ticks": 264960,
          "time": 150.54558,
          "velocity": 1
        },
        {
          "duration": 0.4090912499999888,
          "durationTicks": 720,
          "midi": 42,
          "name": "F#2",
          "ticks": 265680,
          "time": 150.95467125000002,
          "velocity": 1
        },
        {
          "duration": 0.818182500000006,
          "durationTicks": 1440,
          "midi": 42,
          "name": "F#2",
          "ticks": 266400,
          "time": 151.3637625,
          "velocity": 1
        },
        {
          "duration": 0.545455000000004,
          "durationTicks": 960,
          "midi": 42,
          "name": "F#2",
          "ticks": 267840,
          "time": 152.181945,
          "velocity": 1
        },
        {
          "duration": 0.4090912499999888,
          "durationTicks": 720,
          "midi": 38,
          "name": "D2",
          "ticks": 268800,
          "time": 152.72740000000002,
          "velocity": 1
        },
        {
          "duration": 0.4090912499999888,
          "durationTicks": 720,
          "midi": 38,
          "name": "D2",
          "ticks": 269520,
          "time": 153.13649125,
          "velocity": 1
        },
        {
          "duration": 0.818182500000006,
          "durationTicks": 1440,
          "midi": 38,
          "name": "D2",
          "ticks": 270240,
          "time": 153.5455825,
          "velocity": 1
        },
        {
          "duration": 0.545455000000004,
          "durationTicks": 960,
          "midi": 38,
          "name": "D2",
          "ticks": 271680,
          "time": 154.363765,
          "velocity": 1
        },
        {
          "duration": 0.4090912499999888,
          "durationTicks": 720,
          "midi": 45,
          "name": "A2",
          "ticks": 272640,
          "time": 154.90922,
          "velocity": 1
        },
        {
          "duration": 0.4090912500000172,
          "durationTicks": 720,
          "midi": 45,
          "name": "A2",
          "ticks": 273360,
          "time": 155.31831125,
          "velocity": 1
        },
        {
          "duration": 0.818182500000006,
          "durationTicks": 1440,
          "midi": 45,
          "name": "A2",
          "ticks": 274080,
          "time": 155.7274025,
          "velocity": 1
        },
        {
          "duration": 0.545455000000004,
          "durationTicks": 960,
          "midi": 45,
          "name": "A2",
          "ticks": 275520,
          "time": 156.54558500000002,
          "velocity": 1
        },
        {
          "duration": 0.4090912499999888,
          "durationTicks": 720,
          "midi": 40,
          "name": "E2",
          "ticks": 276480,
          "time": 157.09104000000002,
          "velocity": 1
        },
        {
          "duration": 0.4090912499999888,
          "durationTicks": 720,
          "midi": 40,
          "name": "E2",
          "ticks": 277200,
          "time": 157.50013125,
          "velocity": 1
        },
        {
          "duration": 0.818182500000006,
          "durationTicks": 1440,
          "midi": 40,
          "name": "E2",
          "ticks": 277920,
          "time": 157.9092225,
          "velocity": 1
        },
        {
          "duration": 0.545455000000004,
          "durationTicks": 960,
          "midi": 40,
          "name": "E2",
          "ticks": 279360,
          "time": 158.727405,
          "velocity": 1
        },
        {
          "duration": 0.4090912499999888,
          "durationTicks": 720,
          "midi": 42,
          "name": "F#2",
          "ticks": 280320,
          "time": 159.27286,
          "velocity": 1
        },
        {
          "duration": 0.4090912500000172,
          "durationTicks": 720,
          "midi": 42,
          "name": "F#2",
          "ticks": 281040,
          "time": 159.68195125,
          "velocity": 1
        },
        {
          "duration": 0.818182500000006,
          "durationTicks": 1440,
          "midi": 42,
          "name": "F#2",
          "ticks": 281760,
          "time": 160.09104250000001,
          "velocity": 1
        },
        {
          "duration": 0.5454549999999756,
          "durationTicks": 960,
          "midi": 42,
          "name": "F#2",
          "ticks": 283200,
          "time": 160.90922500000002,
          "velocity": 1
        },
        {
          "duration": 0.4090912500000172,
          "durationTicks": 720,
          "midi": 38,
          "name": "D2",
          "ticks": 284160,
          "time": 161.45468,
          "velocity": 1
        },
        {
          "duration": 0.4090912499999888,
          "durationTicks": 720,
          "midi": 38,
          "name": "D2",
          "ticks": 284880,
          "time": 161.86377125,
          "velocity": 1
        },
        {
          "duration": 0.818182500000006,
          "durationTicks": 1440,
          "midi": 38,
          "name": "D2",
          "ticks": 285600,
          "time": 162.2728625,
          "velocity": 1
        },
        {
          "duration": 0.545455000000004,
          "durationTicks": 960,
          "midi": 38,
          "name": "D2",
          "ticks": 287040,
          "time": 163.091045,
          "velocity": 1
        },
        {
          "duration": 0.4090912499999888,
          "durationTicks": 720,
          "midi": 45,
          "name": "A2",
          "ticks": 288000,
          "time": 163.6365,
          "velocity": 1
        },
        {
          "duration": 0.4090912500000172,
          "durationTicks": 720,
          "midi": 45,
          "name": "A2",
          "ticks": 288720,
          "time": 164.04559125,
          "velocity": 1
        },
        {
          "duration": 0.8181824999999776,
          "durationTicks": 1440,
          "midi": 45,
          "name": "A2",
          "ticks": 289440,
          "time": 164.45468250000002,
          "velocity": 1
        },
        {
          "duration": 0.545455000000004,
          "durationTicks": 960,
          "midi": 45,
          "name": "A2",
          "ticks": 290880,
          "time": 165.272865,
          "velocity": 1
        },
        {
          "duration": 0.4090912500000172,
          "durationTicks": 720,
          "midi": 40,
          "name": "E2",
          "ticks": 291840,
          "time": 165.81832,
          "velocity": 1
        },
        {
          "duration": 0.4090912499999888,
          "durationTicks": 720,
          "midi": 40,
          "name": "E2",
          "ticks": 292560,
          "time": 166.22741125000002,
          "velocity": 1
        },
        {
          "duration": 0.818182500000006,
          "durationTicks": 1440,
          "midi": 40,
          "name": "E2",
          "ticks": 293280,
          "time": 166.6365025,
          "velocity": 1
        },
        {
          "duration": 0.545455000000004,
          "durationTicks": 960,
          "midi": 40,
          "name": "E2",
          "ticks": 294720,
          "time": 167.454685,
          "velocity": 1
        },
        {
          "duration": 0.4090912499999888,
          "durationTicks": 720,
          "midi": 42,
          "name": "F#2",
          "ticks": 295680,
          "time": 168.00014000000002,
          "velocity": 1
        },
        {
          "duration": 0.4090912499999888,
          "durationTicks": 720,
          "midi": 42,
          "name": "F#2",
          "ticks": 296400,
          "time": 168.40923125,
          "velocity": 1
        },
        {
          "duration": 0.818182500000006,
          "durationTicks": 1440,
          "midi": 42,
          "name": "F#2",
          "ticks": 297120,
          "time": 168.8183225,
          "velocity": 1
        },
        {
          "duration": 0.545455000000004,
          "durationTicks": 960,
          "midi": 42,
          "name": "F#2",
          "ticks": 298560,
          "time": 169.636505,
          "velocity": 1
        },
        {
          "duration": 0.4090912500000172,
          "durationTicks": 720,
          "midi": 38,
          "name": "D2",
          "ticks": 299520,
          "time": 170.18196,
          "velocity": 1
        },
        {
          "duration": 0.4090912499999888,
          "durationTicks": 720,
          "midi": 38,
          "name": "D2",
          "ticks": 300240,
          "time": 170.59105125000002,
          "velocity": 1
        },
        {
          "duration": 0.818182500000006,
          "durationTicks": 1440,
          "midi": 38,
          "name": "D2",
          "ticks": 300960,
          "time": 171.0001425,
          "velocity": 1
        },
        {
          "duration": 0.545455000000004,
          "durationTicks": 960,
          "midi": 38,
          "name": "D2",
          "ticks": 302400,
          "time": 171.81832500000002,
          "velocity": 1
        },
        {
          "duration": 0.4090912499999888,
          "durationTicks": 720,
          "midi": 45,
          "name": "A2",
          "ticks": 303360,
          "time": 172.36378000000002,
          "velocity": 1
        },
        {
          "duration": 0.4090912499999888,
          "durationTicks": 720,
          "midi": 45,
          "name": "A2",
          "ticks": 304080,
          "time": 172.77287125,
          "velocity": 1
        },
        {
          "duration": 0.818182500000006,
          "durationTicks": 1440,
          "midi": 45,
          "name": "A2",
          "ticks": 304800,
          "time": 173.1819625,
          "velocity": 1
        },
        {
          "duration": 0.545455000000004,
          "durationTicks": 960,
          "midi": 45,
          "name": "A2",
          "ticks": 306240,
          "time": 174.000145,
          "velocity": 1
        },
        {
          "duration": 0.4090912499999888,
          "durationTicks": 720,
          "midi": 40,
          "name": "E2",
          "ticks": 307200,
          "time": 174.5456,
          "velocity": 1
        },
        {
          "duration": 0.4090912500000172,
          "durationTicks": 720,
          "midi": 40,
          "name": "E2",
          "ticks": 307920,
          "time": 174.95469125,
          "velocity": 1
        },
        {
          "duration": 0.818182500000006,
          "durationTicks": 1440,
          "midi": 40,
          "name": "E2",
          "ticks": 308640,
          "time": 175.3637825,
          "velocity": 1
        },
        {
          "duration": 0.5454549999999756,
          "durationTicks": 960,
          "midi": 40,
          "name": "E2",
          "ticks": 310080,
          "time": 176.18196500000002,
          "velocity": 1
        }
      ]
    },
    {
      "channel": 5,
      "controlChanges": {
        "7": [
          {
            "number": 7,
            "ticks": 0,
            "time": 0,
            "value": 0.8976377952755905
          }
        ]
      },
      "pitchBends": [],
      "instrument": {
        "family": "piano",
        "number": 0,
        "name": "acoustic grand piano"
      },
      "name": "Track 7",
      "notes": [
        {
          "duration": 0.27272750000000023,
          "durationTicks": 480,
          "midi": 73,
          "name": "C#5",
          "ticks": 23040,
          "time": 13.09092,
          "velocity": 1
        },
        {
          "duration": 0.27272750000000023,
          "durationTicks": 480,
          "midi": 66,
          "name": "F#4",
          "ticks": 23520,
          "time": 13.3636475,
          "velocity": 1
        },
        {
          "duration": 0.27272750000000023,
          "durationTicks": 480,
          "midi": 73,
          "name": "C#5",
          "ticks": 24000,
          "time": 13.636375000000001,
          "velocity": 1
        },
        {
          "duration": 0.27272750000000023,
          "durationTicks": 480,
          "midi": 66,
          "name": "F#4",
          "ticks": 24480,
          "time": 13.909102500000001,
          "velocity": 1
        },
        {
          "duration": 0.27272749999999846,
          "durationTicks": 480,
          "midi": 73,
          "name": "C#5",
          "ticks": 24960,
          "time": 14.181830000000001,
          "velocity": 1
        },
        {
          "duration": 0.27272750000000023,
          "durationTicks": 480,
          "midi": 66,
          "name": "F#4",
          "ticks": 25440,
          "time": 14.4545575,
          "velocity": 1
        },
        {
          "duration": 0.27272750000000023,
          "durationTicks": 480,
          "midi": 74,
          "name": "D5",
          "ticks": 25920,
          "time": 14.727285,
          "velocity": 1
        },
        {
          "duration": 0.27272750000000023,
          "durationTicks": 480,
          "midi": 66,
          "name": "F#4",
          "ticks": 26400,
          "time": 15.0000125,
          "velocity": 1
        },
        {
          "duration": 0.27272750000000023,
          "durationTicks": 480,
          "midi": 73,
          "name": "C#5",
          "ticks": 26880,
          "time": 15.27274,
          "velocity": 1
        },
        {
          "duration": 0.27272750000000023,
          "durationTicks": 480,
          "midi": 66,
          "name": "F#4",
          "ticks": 27360,
          "time": 15.5454675,
          "velocity": 1
        },
        {
          "duration": 0.27272750000000023,
          "durationTicks": 480,
          "midi": 73,
          "name": "C#5",
          "ticks": 27840,
          "time": 15.818195000000001,
          "velocity": 1
        },
        {
          "duration": 0.27272749999999846,
          "durationTicks": 480,
          "midi": 66,
          "name": "F#4",
          "ticks": 28320,
          "time": 16.0909225,
          "velocity": 1
        },
        {
          "duration": 0.272727500000002,
          "durationTicks": 480,
          "midi": 71,
          "name": "B4",
          "ticks": 28800,
          "time": 16.36365,
          "velocity": 1
        },
        {
          "duration": 0.27272749999999846,
          "durationTicks": 480,
          "midi": 66,
          "name": "F#4",
          "ticks": 29280,
          "time": 16.636377500000002,
          "velocity": 1
        },
        {
          "duration": 0.272727500000002,
          "durationTicks": 480,
          "midi": 71,
          "name": "B4",
          "ticks": 29760,
          "time": 16.909105,
          "velocity": 1
        },
        {
          "duration": 0.27272749999999846,
          "durationTicks": 480,
          "midi": 66,
          "name": "F#4",
          "ticks": 30240,
          "time": 17.181832500000002,
          "velocity": 1
        },
        {
          "duration": 0.27272749999999846,
          "durationTicks": 480,
          "midi": 73,
          "name": "C#5",
          "ticks": 30720,
          "time": 17.45456,
          "velocity": 1
        },
        {
          "duration": 0.272727500000002,
          "durationTicks": 480,
          "midi": 66,
          "name": "F#4",
          "ticks": 31200,
          "time": 17.7272875,
          "velocity": 1
        },
        {
          "duration": 0.27272749999999846,
          "durationTicks": 480,
          "midi": 73,
          "name": "C#5",
          "ticks": 31680,
          "time": 18.000015,
          "velocity": 1
        },
        {
          "duration": 0.272727500000002,
          "durationTicks": 480,
          "midi": 66,
          "name": "F#4",
          "ticks": 32160,
          "time": 18.2727425,
          "velocity": 1
        },
        {
          "duration": 0.27272749999999846,
          "durationTicks": 480,
          "midi": 73,
          "name": "C#5",
          "ticks": 32640,
          "time": 18.54547,
          "velocity": 1
        },
        {
          "duration": 0.272727500000002,
          "durationTicks": 480,
          "midi": 66,
          "name": "F#4",
          "ticks": 33120,
          "time": 18.8181975,
          "velocity": 1
        },
        {
          "duration": 0.27272749999999846,
          "durationTicks": 480,
          "midi": 74,
          "name": "D5",
          "ticks": 33600,
          "time": 19.090925000000002,
          "velocity": 1
        },
        {
          "duration": 0.272727500000002,
          "durationTicks": 480,
          "midi": 66,
          "name": "F#4",
          "ticks": 34080,
          "time": 19.3636525,
          "velocity": 1
        },
        {
          "duration": 0.27272749999999846,
          "durationTicks": 480,
          "midi": 73,
          "name": "C#5",
          "ticks": 34560,
          "time": 19.636380000000003,
          "velocity": 1
        },
        {
          "duration": 0.27272749999999846,
          "durationTicks": 480,
          "midi": 66,
          "name": "F#4",
          "ticks": 35040,
          "time": 19.9091075,
          "velocity": 1
        },
        {
          "duration": 0.272727500000002,
          "durationTicks": 480,
          "midi": 73,
          "name": "C#5",
          "ticks": 35520,
          "time": 20.181835,
          "velocity": 1
        },
        {
          "duration": 0.27272749999999846,
          "durationTicks": 480,
          "midi": 66,
          "name": "F#4",
          "ticks": 36000,
          "time": 20.4545625,
          "velocity": 1
        },
        {
          "duration": 0.272727500000002,
          "durationTicks": 480,
          "midi": 71,
          "name": "B4",
          "ticks": 36480,
          "time": 20.72729,
          "velocity": 1
        },
        {
          "duration": 0.27272749999999846,
          "durationTicks": 480,
          "midi": 66,
          "name": "F#4",
          "ticks": 36960,
          "time": 21.000017500000002,
          "velocity": 1
        },
        {
          "duration": 0.272727500000002,
          "durationTicks": 480,
          "midi": 71,
          "name": "B4",
          "ticks": 37440,
          "time": 21.272745,
          "velocity": 1
        },
        {
          "duration": 0.27272749999999846,
          "durationTicks": 480,
          "midi": 66,
          "name": "F#4",
          "ticks": 37920,
          "time": 21.545472500000002,
          "velocity": 1
        },
        {
          "duration": 2.1818199999999983,
          "durationTicks": 3840,
          "midi": 42,
          "name": "F#2",
          "ticks": 38400,
          "time": 21.8182,
          "velocity": 1
        },
        {
          "duration": 2.1818199999999983,
          "durationTicks": 3840,
          "midi": 49,
          "name": "C#3",
          "ticks": 38400,
          "time": 21.8182,
          "velocity": 1
        },
        {
          "duration": 2.181820000000002,
          "durationTicks": 3840,
          "midi": 38,
          "name": "D2",
          "ticks": 42240,
          "time": 24.00002,
          "velocity": 1
        },
        {
          "duration": 2.181820000000002,
          "durationTicks": 3840,
          "midi": 45,
          "name": "A2",
          "ticks": 42240,
          "time": 24.00002,
          "velocity": 1
        },
        {
          "duration": 2.181820000000002,
          "durationTicks": 3840,
          "midi": 45,
          "name": "A2",
          "ticks": 46080,
          "time": 26.18184,
          "velocity": 1
        },
        {
          "duration": 2.181820000000002,
          "durationTicks": 3840,
          "midi": 52,
          "name": "E3",
          "ticks": 46080,
          "time": 26.18184,
          "velocity": 1
        },
        {
          "duration": 2.1818199999999983,
          "durationTicks": 3840,
          "midi": 40,
          "name": "E2",
          "ticks": 49920,
          "time": 28.363660000000003,
          "velocity": 1
        },
        {
          "duration": 2.1818199999999983,
          "durationTicks": 3840,
          "midi": 47,
          "name": "B2",
          "ticks": 49920,
          "time": 28.363660000000003,
          "velocity": 1
        },
        {
          "duration": 2.1818199999999983,
          "durationTicks": 3840,
          "midi": 42,
          "name": "F#2",
          "ticks": 53760,
          "time": 30.54548,
          "velocity": 1
        },
        {
          "duration": 2.1818199999999983,
          "durationTicks": 3840,
          "midi": 49,
          "name": "C#3",
          "ticks": 53760,
          "time": 30.54548,
          "velocity": 1
        },
        {
          "duration": 2.181820000000002,
          "durationTicks": 3840,
          "midi": 38,
          "name": "D2",
          "ticks": 57600,
          "time": 32.7273,
          "velocity": 1
        },
        {
          "duration": 2.181820000000002,
          "durationTicks": 3840,
          "midi": 45,
          "name": "A2",
          "ticks": 57600,
          "time": 32.7273,
          "velocity": 1
        },
        {
          "duration": 2.181820000000002,
          "durationTicks": 3840,
          "midi": 45,
          "name": "A2",
          "ticks": 61440,
          "time": 34.90912,
          "velocity": 1
        },
        {
          "duration": 2.181820000000002,
          "durationTicks": 3840,
          "midi": 52,
          "name": "E3",
          "ticks": 61440,
          "time": 34.90912,
          "velocity": 1
        },
        {
          "duration": 2.181820000000002,
          "durationTicks": 3840,
          "midi": 40,
          "name": "E2",
          "ticks": 65280,
          "time": 37.09094,
          "velocity": 1
        },
        {
          "duration": 2.181820000000002,
          "durationTicks": 3840,
          "midi": 47,
          "name": "B2",
          "ticks": 65280,
          "time": 37.09094,
          "velocity": 1
        },
        {
          "duration": 0.272727500000002,
          "durationTicks": 480,
          "midi": 73,
          "name": "C#5",
          "ticks": 92160,
          "time": 52.36368,
          "velocity": 1
        },
        {
          "duration": 0.2727274999999949,
          "durationTicks": 480,
          "midi": 66,
          "name": "F#4",
          "ticks": 92640,
          "time": 52.636407500000004,
          "velocity": 1
        },
        {
          "duration": 0.272727500000002,
          "durationTicks": 480,
          "midi": 73,
          "name": "C#5",
          "ticks": 93120,
          "time": 52.909135,
          "velocity": 1
        },
        {
          "duration": 0.272727500000002,
          "durationTicks": 480,
          "midi": 66,
          "name": "F#4",
          "ticks": 93600,
          "time": 53.1818625,
          "velocity": 1
        },
        {
          "duration": 0.272727500000002,
          "durationTicks": 480,
          "midi": 73,
          "name": "C#5",
          "ticks": 94080,
          "time": 53.45459,
          "velocity": 1
        },
        {
          "duration": 0.2727274999999949,
          "durationTicks": 480,
          "midi": 66,
          "name": "F#4",
          "ticks": 94560,
          "time": 53.727317500000005,
          "velocity": 1
        },
        {
          "duration": 0.272727500000002,
          "durationTicks": 480,
          "midi": 74,
          "name": "D5",
          "ticks": 95040,
          "time": 54.000045,
          "velocity": 1
        },
        {
          "duration": 0.272727500000002,
          "durationTicks": 480,
          "midi": 66,
          "name": "F#4",
          "ticks": 95520,
          "time": 54.2727725,
          "velocity": 1
        },
        {
          "duration": 0.2727274999999949,
          "durationTicks": 480,
          "midi": 73,
          "name": "C#5",
          "ticks": 96000,
          "time": 54.545500000000004,
          "velocity": 1
        },
        {
          "duration": 0.272727500000002,
          "durationTicks": 480,
          "midi": 66,
          "name": "F#4",
          "ticks": 96480,
          "time": 54.8182275,
          "velocity": 1
        },
        {
          "duration": 0.272727500000002,
          "durationTicks": 480,
          "midi": 73,
          "name": "C#5",
          "ticks": 96960,
          "time": 55.090955,
          "velocity": 1
        },
        {
          "duration": 0.272727500000002,
          "durationTicks": 480,
          "midi": 66,
          "name": "F#4",
          "ticks": 97440,
          "time": 55.3636825,
          "velocity": 1
        },
        {
          "duration": 0.2727274999999949,
          "durationTicks": 480,
          "midi": 71,
          "name": "B4",
          "ticks": 97920,
          "time": 55.636410000000005,
          "velocity": 1
        },
        {
          "duration": 0.272727500000002,
          "durationTicks": 480,
          "midi": 66,
          "name": "F#4",
          "ticks": 98400,
          "time": 55.9091375,
          "velocity": 1
        },
        {
          "duration": 0.272727500000002,
          "durationTicks": 480,
          "midi": 71,
          "name": "B4",
          "ticks": 98880,
          "time": 56.181865,
          "velocity": 1
        },
        {
          "duration": 0.272727500000002,
          "durationTicks": 480,
          "midi": 66,
          "name": "F#4",
          "ticks": 99360,
          "time": 56.454592500000004,
          "velocity": 1
        },
        {
          "duration": 0.2727274999999949,
          "durationTicks": 480,
          "midi": 73,
          "name": "C#5",
          "ticks": 99840,
          "time": 56.727320000000006,
          "velocity": 1
        },
        {
          "duration": 0.272727500000002,
          "durationTicks": 480,
          "midi": 66,
          "name": "F#4",
          "ticks": 100320,
          "time": 57.0000475,
          "velocity": 1
        },
        {
          "duration": 0.272727500000002,
          "durationTicks": 480,
          "midi": 73,
          "name": "C#5",
          "ticks": 100800,
          "time": 57.272775,
          "velocity": 1
        },
        {
          "duration": 0.2727274999999949,
          "durationTicks": 480,
          "midi": 66,
          "name": "F#4",
          "ticks": 101280,
          "time": 57.545502500000005,
          "velocity": 1
        },
        {
          "duration": 0.272727500000002,
          "durationTicks": 480,
          "midi": 73,
          "name": "C#5",
          "ticks": 101760,
          "time": 57.81823,
          "velocity": 1
        },
        {
          "duration": 0.272727500000002,
          "durationTicks": 480,
          "midi": 66,
          "name": "F#4",
          "ticks": 102240,
          "time": 58.0909575,
          "velocity": 1
        },
        {
          "duration": 0.272727500000002,
          "durationTicks": 480,
          "midi": 74,
          "name": "D5",
          "ticks": 102720,
          "time": 58.363685000000004,
          "velocity": 1
        },
        {
          "duration": 0.2727274999999949,
          "durationTicks": 480,
          "midi": 66,
          "name": "F#4",
          "ticks": 103200,
          "time": 58.636412500000006,
          "velocity": 1
        },
        {
          "duration": 0.272727500000002,
          "durationTicks": 480,
          "midi": 73,
          "name": "C#5",
          "ticks": 103680,
          "time": 58.90914,
          "velocity": 1
        },
        {
          "duration": 0.272727500000002,
          "durationTicks": 480,
          "midi": 66,
          "name": "F#4",
          "ticks": 104160,
          "time": 59.1818675,
          "velocity": 1
        },
        {
          "duration": 0.2727274999999949,
          "durationTicks": 480,
          "midi": 73,
          "name": "C#5",
          "ticks": 104640,
          "time": 59.454595000000005,
          "velocity": 1
        },
        {
          "duration": 0.272727500000002,
          "durationTicks": 480,
          "midi": 66,
          "name": "F#4",
          "ticks": 105120,
          "time": 59.7273225,
          "velocity": 1
        },
        {
          "duration": 0.272727500000002,
          "durationTicks": 480,
          "midi": 71,
          "name": "B4",
          "ticks": 105600,
          "time": 60.00005,
          "velocity": 1
        },
        {
          "duration": 0.272727500000002,
          "durationTicks": 480,
          "midi": 66,
          "name": "F#4",
          "ticks": 106080,
          "time": 60.272777500000004,
          "velocity": 1
        },
        {
          "duration": 0.2727274999999949,
          "durationTicks": 480,
          "midi": 71,
          "name": "B4",
          "ticks": 106560,
          "time": 60.545505000000006,
          "velocity": 1
        },
        {
          "duration": 0.272727500000002,
          "durationTicks": 480,
          "midi": 66,
          "name": "F#4",
          "ticks": 107040,
          "time": 60.8182325,
          "velocity": 1
        },
        {
          "duration": 0.272727500000002,
          "durationTicks": 480,
          "midi": 73,
          "name": "C#5",
          "ticks": 107520,
          "time": 61.09096,
          "velocity": 1
        },
        {
          "duration": 0.2727274999999949,
          "durationTicks": 480,
          "midi": 66,
          "name": "F#4",
          "ticks": 108000,
          "time": 61.363687500000005,
          "velocity": 1
        },
        {
          "duration": 0.272727500000002,
          "durationTicks": 480,
          "midi": 73,
          "name": "C#5",
          "ticks": 108480,
          "time": 61.636415,
          "velocity": 1
        },
        {
          "duration": 0.272727500000002,
          "durationTicks": 480,
          "midi": 66,
          "name": "F#4",
          "ticks": 108960,
          "time": 61.9091425,
          "velocity": 1
        },
        {
          "duration": 0.272727500000002,
          "durationTicks": 480,
          "midi": 73,
          "name": "C#5",
          "ticks": 109440,
          "time": 62.18187,
          "velocity": 1
        },
        {
          "duration": 0.2727274999999949,
          "durationTicks": 480,
          "midi": 66,
          "name": "F#4",
          "ticks": 109920,
          "time": 62.454597500000006,
          "velocity": 1
        },
        {
          "duration": 0.272727500000002,
          "durationTicks": 480,
          "midi": 74,
          "name": "D5",
          "ticks": 110400,
          "time": 62.727325,
          "velocity": 1
        },
        {
          "duration": 0.272727500000002,
          "durationTicks": 480,
          "midi": 66,
          "name": "F#4",
          "ticks": 110880,
          "time": 63.0000525,
          "velocity": 1
        },
        {
          "duration": 0.2727274999999949,
          "durationTicks": 480,
          "midi": 73,
          "name": "C#5",
          "ticks": 111360,
          "time": 63.272780000000004,
          "velocity": 1
        },
        {
          "duration": 0.272727500000002,
          "durationTicks": 480,
          "midi": 66,
          "name": "F#4",
          "ticks": 111840,
          "time": 63.5455075,
          "velocity": 1
        },
        {
          "duration": 0.272727500000002,
          "durationTicks": 480,
          "midi": 73,
          "name": "C#5",
          "ticks": 112320,
          "time": 63.818235,
          "velocity": 1
        },
        {
          "duration": 0.272727500000002,
          "durationTicks": 480,
          "midi": 66,
          "name": "F#4",
          "ticks": 112800,
          "time": 64.0909625,
          "velocity": 1
        },
        {
          "duration": 0.272727500000002,
          "durationTicks": 480,
          "midi": 71,
          "name": "B4",
          "ticks": 113280,
          "time": 64.36369,
          "velocity": 1
        },
        {
          "duration": 0.272727500000002,
          "durationTicks": 480,
          "midi": 66,
          "name": "F#4",
          "ticks": 113760,
          "time": 64.63641750000001,
          "velocity": 1
        },
        {
          "duration": 0.2727274999999878,
          "durationTicks": 480,
          "midi": 71,
          "name": "B4",
          "ticks": 114240,
          "time": 64.90914500000001,
          "velocity": 1
        },
        {
          "duration": 0.272727500000002,
          "durationTicks": 480,
          "midi": 66,
          "name": "F#4",
          "ticks": 114720,
          "time": 65.1818725,
          "velocity": 1
        },
        {
          "duration": 0.272727500000002,
          "durationTicks": 480,
          "midi": 73,
          "name": "C#5",
          "ticks": 115200,
          "time": 65.4546,
          "velocity": 1
        },
        {
          "duration": 0.272727500000002,
          "durationTicks": 480,
          "midi": 66,
          "name": "F#4",
          "ticks": 115680,
          "time": 65.7273275,
          "velocity": 1
        },
        {
          "duration": 0.272727500000002,
          "durationTicks": 480,
          "midi": 73,
          "name": "C#5",
          "ticks": 116160,
          "time": 66.000055,
          "velocity": 1
        },
        {
          "duration": 0.272727500000002,
          "durationTicks": 480,
          "midi": 66,
          "name": "F#4",
          "ticks": 116640,
          "time": 66.2727825,
          "velocity": 1
        },
        {
          "duration": 0.272727500000002,
          "durationTicks": 480,
          "midi": 73,
          "name": "C#5",
          "ticks": 117120,
          "time": 66.54551000000001,
          "velocity": 1
        },
        {
          "duration": 0.2727274999999878,
          "durationTicks": 480,
          "midi": 66,
          "name": "F#4",
          "ticks": 117600,
          "time": 66.81823750000001,
          "velocity": 1
        },
        {
          "duration": 0.272727500000002,
          "durationTicks": 480,
          "midi": 74,
          "name": "D5",
          "ticks": 118080,
          "time": 67.090965,
          "velocity": 1
        },
        {
          "duration": 0.272727500000002,
          "durationTicks": 480,
          "midi": 66,
          "name": "F#4",
          "ticks": 118560,
          "time": 67.3636925,
          "velocity": 1
        },
        {
          "duration": 0.272727500000002,
          "durationTicks": 480,
          "midi": 73,
          "name": "C#5",
          "ticks": 119040,
          "time": 67.63642,
          "velocity": 1
        },
        {
          "duration": 0.272727500000002,
          "durationTicks": 480,
          "midi": 66,
          "name": "F#4",
          "ticks": 119520,
          "time": 67.9091475,
          "velocity": 1
        },
        {
          "duration": 0.272727500000002,
          "durationTicks": 480,
          "midi": 73,
          "name": "C#5",
          "ticks": 120000,
          "time": 68.181875,
          "velocity": 1
        },
        {
          "duration": 0.272727500000002,
          "durationTicks": 480,
          "midi": 66,
          "name": "F#4",
          "ticks": 120480,
          "time": 68.45460250000001,
          "velocity": 1
        },
        {
          "duration": 0.2727274999999878,
          "durationTicks": 480,
          "midi": 71,
          "name": "B4",
          "ticks": 120960,
          "time": 68.72733000000001,
          "velocity": 1
        },
        {
          "duration": 0.272727500000002,
          "durationTicks": 480,
          "midi": 66,
          "name": "F#4",
          "ticks": 121440,
          "time": 69.0000575,
          "velocity": 1
        },
        {
          "duration": 0.272727500000002,
          "durationTicks": 480,
          "midi": 71,
          "name": "B4",
          "ticks": 121920,
          "time": 69.272785,
          "velocity": 1
        },
        {
          "duration": 0.272727500000002,
          "durationTicks": 480,
          "midi": 66,
          "name": "F#4",
          "ticks": 122400,
          "time": 69.5455125,
          "velocity": 1
        },
        {
          "duration": 2.181820000000002,
          "durationTicks": 3840,
          "midi": 42,
          "name": "F#2",
          "ticks": 122880,
          "time": 69.81824,
          "velocity": 1
        },
        {
          "duration": 2.181820000000002,
          "durationTicks": 3840,
          "midi": 49,
          "name": "C#3",
          "ticks": 122880,
          "time": 69.81824,
          "velocity": 1
        },
        {
          "duration": 2.181820000000002,
          "durationTicks": 3840,
          "midi": 38,
          "name": "D2",
          "ticks": 126720,
          "time": 72.00006,
          "velocity": 1
        },
        {
          "duration": 2.181820000000002,
          "durationTicks": 3840,
          "midi": 45,
          "name": "A2",
          "ticks": 126720,
          "time": 72.00006,
          "velocity": 1
        },
        {
          "duration": 2.181820000000002,
          "durationTicks": 3840,
          "midi": 45,
          "name": "A2",
          "ticks": 130560,
          "time": 74.18188,
          "velocity": 1
        },
        {
          "duration": 2.181820000000002,
          "durationTicks": 3840,
          "midi": 52,
          "name": "E3",
          "ticks": 130560,
          "time": 74.18188,
          "velocity": 1
        },
        {
          "duration": 2.181820000000002,
          "durationTicks": 3840,
          "midi": 40,
          "name": "E2",
          "ticks": 134400,
          "time": 76.36370000000001,
          "velocity": 1
        },
        {
          "duration": 2.181820000000002,
          "durationTicks": 3840,
          "midi": 47,
          "name": "B2",
          "ticks": 134400,
          "time": 76.36370000000001,
          "velocity": 1
        },
        {
          "duration": 2.1818199999999877,
          "durationTicks": 3840,
          "midi": 42,
          "name": "F#2",
          "ticks": 138240,
          "time": 78.54552000000001,
          "velocity": 1
        },
        {
          "duration": 2.1818199999999877,
          "durationTicks": 3840,
          "midi": 49,
          "name": "C#3",
          "ticks": 138240,
          "time": 78.54552000000001,
          "velocity": 1
        },
        {
          "duration": 2.181820000000002,
          "durationTicks": 3840,
          "midi": 38,
          "name": "D2",
          "ticks": 142080,
          "time": 80.72734,
          "velocity": 1
        },
        {
          "duration": 2.181820000000002,
          "durationTicks": 3840,
          "midi": 45,
          "name": "A2",
          "ticks": 142080,
          "time": 80.72734,
          "velocity": 1
        },
        {
          "duration": 2.181820000000002,
          "durationTicks": 3840,
          "midi": 45,
          "name": "A2",
          "ticks": 145920,
          "time": 82.90916,
          "velocity": 1
        },
        {
          "duration": 2.181820000000002,
          "durationTicks": 3840,
          "midi": 52,
          "name": "E3",
          "ticks": 145920,
          "time": 82.90916,
          "velocity": 1
        },
        {
          "duration": 2.181820000000002,
          "durationTicks": 3840,
          "midi": 40,
          "name": "E2",
          "ticks": 149760,
          "time": 85.09098,
          "velocity": 1
        },
        {
          "duration": 2.181820000000002,
          "durationTicks": 3840,
          "midi": 47,
          "name": "B2",
          "ticks": 149760,
          "time": 85.09098,
          "velocity": 1
        },
        {
          "duration": 0.272727500000002,
          "durationTicks": 480,
          "midi": 73,
          "name": "C#5",
          "ticks": 184320,
          "time": 104.72736,
          "velocity": 1
        },
        {
          "duration": 0.272727500000002,
          "durationTicks": 480,
          "midi": 66,
          "name": "F#4",
          "ticks": 184800,
          "time": 105.0000875,
          "velocity": 1
        },
        {
          "duration": 0.272727500000002,
          "durationTicks": 480,
          "midi": 73,
          "name": "C#5",
          "ticks": 185280,
          "time": 105.27281500000001,
          "velocity": 1
        },
        {
          "duration": 0.2727274999999878,
          "durationTicks": 480,
          "midi": 66,
          "name": "F#4",
          "ticks": 185760,
          "time": 105.54554250000001,
          "velocity": 1
        },
        {
          "duration": 0.272727500000002,
          "durationTicks": 480,
          "midi": 73,
          "name": "C#5",
          "ticks": 186240,
          "time": 105.81827,
          "velocity": 1
        },
        {
          "duration": 0.272727500000002,
          "durationTicks": 480,
          "midi": 66,
          "name": "F#4",
          "ticks": 186720,
          "time": 106.0909975,
          "velocity": 1
        },
        {
          "duration": 0.272727500000002,
          "durationTicks": 480,
          "midi": 74,
          "name": "D5",
          "ticks": 187200,
          "time": 106.363725,
          "velocity": 1
        },
        {
          "duration": 0.272727500000002,
          "durationTicks": 480,
          "midi": 66,
          "name": "F#4",
          "ticks": 187680,
          "time": 106.6364525,
          "velocity": 1
        },
        {
          "duration": 0.272727500000002,
          "durationTicks": 480,
          "midi": 73,
          "name": "C#5",
          "ticks": 188160,
          "time": 106.90918,
          "velocity": 1
        },
        {
          "duration": 0.272727500000002,
          "durationTicks": 480,
          "midi": 66,
          "name": "F#4",
          "ticks": 188640,
          "time": 107.18190750000001,
          "velocity": 1
        },
        {
          "duration": 0.2727274999999878,
          "durationTicks": 480,
          "midi": 73,
          "name": "C#5",
          "ticks": 189120,
          "time": 107.45463500000001,
          "velocity": 1
        },
        {
          "duration": 0.272727500000002,
          "durationTicks": 480,
          "midi": 66,
          "name": "F#4",
          "ticks": 189600,
          "time": 107.7273625,
          "velocity": 1
        },
        {
          "duration": 0.272727500000002,
          "durationTicks": 480,
          "midi": 71,
          "name": "B4",
          "ticks": 190080,
          "time": 108.00009,
          "velocity": 1
        },
        {
          "duration": 0.272727500000002,
          "durationTicks": 480,
          "midi": 66,
          "name": "F#4",
          "ticks": 190560,
          "time": 108.2728175,
          "velocity": 1
        },
        {
          "duration": 0.272727500000002,
          "durationTicks": 480,
          "midi": 71,
          "name": "B4",
          "ticks": 191040,
          "time": 108.545545,
          "velocity": 1
        },
        {
          "duration": 0.272727500000002,
          "durationTicks": 480,
          "midi": 66,
          "name": "F#4",
          "ticks": 191520,
          "time": 108.8182725,
          "velocity": 1
        },
        {
          "duration": 0.272727500000002,
          "durationTicks": 480,
          "midi": 73,
          "name": "C#5",
          "ticks": 192000,
          "time": 109.09100000000001,
          "velocity": 1
        },
        {
          "duration": 0.2727274999999878,
          "durationTicks": 480,
          "midi": 66,
          "name": "F#4",
          "ticks": 192480,
          "time": 109.36372750000001,
          "velocity": 1
        },
        {
          "duration": 0.272727500000002,
          "durationTicks": 480,
          "midi": 73,
          "name": "C#5",
          "ticks": 192960,
          "time": 109.636455,
          "velocity": 1
        },
        {
          "duration": 0.272727500000002,
          "durationTicks": 480,
          "midi": 66,
          "name": "F#4",
          "ticks": 193440,
          "time": 109.9091825,
          "velocity": 1
        },
        {
          "duration": 0.272727500000002,
          "durationTicks": 480,
          "midi": 73,
          "name": "C#5",
          "ticks": 193920,
          "time": 110.18191,
          "velocity": 1
        },
        {
          "duration": 0.272727500000002,
          "durationTicks": 480,
          "midi": 66,
          "name": "F#4",
          "ticks": 194400,
          "time": 110.4546375,
          "velocity": 1
        },
        {
          "duration": 0.272727500000002,
          "durationTicks": 480,
          "midi": 74,
          "name": "D5",
          "ticks": 194880,
          "time": 110.727365,
          "velocity": 1
        },
        {
          "duration": 0.272727500000002,
          "durationTicks": 480,
          "midi": 66,
          "name": "F#4",
          "ticks": 195360,
          "time": 111.00009250000001,
          "velocity": 1
        },
        {
          "duration": 0.2727274999999878,
          "durationTicks": 480,
          "midi": 73,
          "name": "C#5",
          "ticks": 195840,
          "time": 111.27282000000001,
          "velocity": 1
        },
        {
          "duration": 0.272727500000002,
          "durationTicks": 480,
          "midi": 66,
          "name": "F#4",
          "ticks": 196320,
          "time": 111.5455475,
          "velocity": 1
        },
        {
          "duration": 0.272727500000002,
          "durationTicks": 480,
          "midi": 73,
          "name": "C#5",
          "ticks": 196800,
          "time": 111.818275,
          "velocity": 1
        },
        {
          "duration": 0.272727500000002,
          "durationTicks": 480,
          "midi": 66,
          "name": "F#4",
          "ticks": 197280,
          "time": 112.0910025,
          "velocity": 1
        },
        {
          "duration": 0.272727500000002,
          "durationTicks": 480,
          "midi": 71,
          "name": "B4",
          "ticks": 197760,
          "time": 112.36373,
          "velocity": 1
        },
        {
          "duration": 0.272727500000002,
          "durationTicks": 480,
          "midi": 66,
          "name": "F#4",
          "ticks": 198240,
          "time": 112.6364575,
          "velocity": 1
        },
        {
          "duration": 0.272727500000002,
          "durationTicks": 480,
          "midi": 71,
          "name": "B4",
          "ticks": 198720,
          "time": 112.90918500000001,
          "velocity": 1
        },
        {
          "duration": 0.272727500000002,
          "durationTicks": 480,
          "midi": 66,
          "name": "F#4",
          "ticks": 199200,
          "time": 113.18191250000001,
          "velocity": 1
        },
        {
          "duration": 0.2727274999999878,
          "durationTicks": 480,
          "midi": 73,
          "name": "C#5",
          "ticks": 199680,
          "time": 113.45464000000001,
          "velocity": 1
        },
        {
          "duration": 0.272727500000002,
          "durationTicks": 480,
          "midi": 66,
          "name": "F#4",
          "ticks": 200160,
          "time": 113.7273675,
          "velocity": 1
        },
        {
          "duration": 0.272727500000002,
          "durationTicks": 480,
          "midi": 73,
          "name": "C#5",
          "ticks": 200640,
          "time": 114.000095,
          "velocity": 1
        },
        {
          "duration": 0.272727500000002,
          "durationTicks": 480,
          "midi": 66,
          "name": "F#4",
          "ticks": 201120,
          "time": 114.2728225,
          "velocity": 1
        },
        {
          "duration": 0.272727500000002,
          "durationTicks": 480,
          "midi": 73,
          "name": "C#5",
          "ticks": 201600,
          "time": 114.54555,
          "velocity": 1
        },
        {
          "duration": 0.272727500000002,
          "durationTicks": 480,
          "midi": 66,
          "name": "F#4",
          "ticks": 202080,
          "time": 114.81827750000001,
          "velocity": 1
        },
        {
          "duration": 0.272727500000002,
          "durationTicks": 480,
          "midi": 74,
          "name": "D5",
          "ticks": 202560,
          "time": 115.09100500000001,
          "velocity": 1
        },
        {
          "duration": 0.2727274999999878,
          "durationTicks": 480,
          "midi": 66,
          "name": "F#4",
          "ticks": 203040,
          "time": 115.36373250000001,
          "velocity": 1
        },
        {
          "duration": 0.272727500000002,
          "durationTicks": 480,
          "midi": 73,
          "name": "C#5",
          "ticks": 203520,
          "time": 115.63646,
          "velocity": 1
        },
        {
          "duration": 0.272727500000002,
          "durationTicks": 480,
          "midi": 66,
          "name": "F#4",
          "ticks": 204000,
          "time": 115.9091875,
          "velocity": 1
        },
        {
          "duration": 0.272727500000002,
          "durationTicks": 480,
          "midi": 73,
          "name": "C#5",
          "ticks": 204480,
          "time": 116.181915,
          "velocity": 1
        },
        {
          "duration": 0.272727500000002,
          "durationTicks": 480,
          "midi": 66,
          "name": "F#4",
          "ticks": 204960,
          "time": 116.4546425,
          "velocity": 1
        },
        {
          "duration": 0.272727500000002,
          "durationTicks": 480,
          "midi": 71,
          "name": "B4",
          "ticks": 205440,
          "time": 116.72737000000001,
          "velocity": 1
        },
        {
          "duration": 0.272727500000002,
          "durationTicks": 480,
          "midi": 66,
          "name": "F#4",
          "ticks": 205920,
          "time": 117.00009750000001,
          "velocity": 1
        },
        {
          "duration": 0.2727274999999878,
          "durationTicks": 480,
          "midi": 71,
          "name": "B4",
          "ticks": 206400,
          "time": 117.27282500000001,
          "velocity": 1
        },
        {
          "duration": 0.272727500000002,
          "durationTicks": 480,
          "midi": 66,
          "name": "F#4",
          "ticks": 206880,
          "time": 117.5455525,
          "velocity": 1
        },
        {
          "duration": 0.272727500000002,
          "durationTicks": 480,
          "midi": 73,
          "name": "C#5",
          "ticks": 207360,
          "time": 117.81828,
          "velocity": 1
        },
        {
          "duration": 0.272727500000002,
          "durationTicks": 480,
          "midi": 66,
          "name": "F#4",
          "ticks": 207840,
          "time": 118.0910075,
          "velocity": 1
        },
        {
          "duration": 0.272727500000002,
          "durationTicks": 480,
          "midi": 73,
          "name": "C#5",
          "ticks": 208320,
          "time": 118.363735,
          "velocity": 1
        },
        {
          "duration": 0.272727500000002,
          "durationTicks": 480,
          "midi": 66,
          "name": "F#4",
          "ticks": 208800,
          "time": 118.63646250000001,
          "velocity": 1
        },
        {
          "duration": 0.272727500000002,
          "durationTicks": 480,
          "midi": 73,
          "name": "C#5",
          "ticks": 209280,
          "time": 118.90919000000001,
          "velocity": 1
        },
        {
          "duration": 0.2727274999999878,
          "durationTicks": 480,
          "midi": 66,
          "name": "F#4",
          "ticks": 209760,
          "time": 119.18191750000001,
          "velocity": 1
        },
        {
          "duration": 0.272727500000002,
          "durationTicks": 480,
          "midi": 74,
          "name": "D5",
          "ticks": 210240,
          "time": 119.454645,
          "velocity": 1
        },
        {
          "duration": 0.272727500000002,
          "durationTicks": 480,
          "midi": 66,
          "name": "F#4",
          "ticks": 210720,
          "time": 119.7273725,
          "velocity": 1
        },
        {
          "duration": 0.272727500000002,
          "durationTicks": 480,
          "midi": 73,
          "name": "C#5",
          "ticks": 211200,
          "time": 120.0001,
          "velocity": 1
        },
        {
          "duration": 0.272727500000002,
          "durationTicks": 480,
          "midi": 66,
          "name": "F#4",
          "ticks": 211680,
          "time": 120.2728275,
          "velocity": 1
        },
        {
          "duration": 0.272727500000002,
          "durationTicks": 480,
          "midi": 73,
          "name": "C#5",
          "ticks": 212160,
          "time": 120.54555500000001,
          "velocity": 1
        },
        {
          "duration": 0.272727500000002,
          "durationTicks": 480,
          "midi": 66,
          "name": "F#4",
          "ticks": 212640,
          "time": 120.81828250000001,
          "velocity": 1
        },
        {
          "duration": 0.2727274999999878,
          "durationTicks": 480,
          "midi": 71,
          "name": "B4",
          "ticks": 213120,
          "time": 121.09101000000001,
          "velocity": 1
        },
        {
          "duration": 0.272727500000002,
          "durationTicks": 480,
          "midi": 66,
          "name": "F#4",
          "ticks": 213600,
          "time": 121.3637375,
          "velocity": 1
        },
        {
          "duration": 0.272727500000002,
          "durationTicks": 480,
          "midi": 71,
          "name": "B4",
          "ticks": 214080,
          "time": 121.636465,
          "velocity": 1
        },
        {
          "duration": 0.272727500000002,
          "durationTicks": 480,
          "midi": 66,
          "name": "F#4",
          "ticks": 214560,
          "time": 121.9091925,
          "velocity": 1
        },
        {
          "duration": 0.272727500000002,
          "durationTicks": 480,
          "midi": 73,
          "name": "C#5",
          "ticks": 215040,
          "time": 122.18192,
          "velocity": 1
        },
        {
          "duration": 0.272727500000002,
          "durationTicks": 480,
          "midi": 66,
          "name": "F#4",
          "ticks": 215520,
          "time": 122.45464750000001,
          "velocity": 1
        },
        {
          "duration": 0.272727500000002,
          "durationTicks": 480,
          "midi": 73,
          "name": "C#5",
          "ticks": 216000,
          "time": 122.72737500000001,
          "velocity": 1
        },
        {
          "duration": 0.2727274999999878,
          "durationTicks": 480,
          "midi": 66,
          "name": "F#4",
          "ticks": 216480,
          "time": 123.00010250000001,
          "velocity": 1
        },
        {
          "duration": 0.272727500000002,
          "durationTicks": 480,
          "midi": 73,
          "name": "C#5",
          "ticks": 216960,
          "time": 123.27283,
          "velocity": 1
        },
        {
          "duration": 0.272727500000002,
          "durationTicks": 480,
          "midi": 66,
          "name": "F#4",
          "ticks": 217440,
          "time": 123.5455575,
          "velocity": 1
        },
        {
          "duration": 0.272727500000002,
          "durationTicks": 480,
          "midi": 74,
          "name": "D5",
          "ticks": 217920,
          "time": 123.818285,
          "velocity": 1
        },
        {
          "duration": 0.272727500000002,
          "durationTicks": 480,
          "midi": 66,
          "name": "F#4",
          "ticks": 218400,
          "time": 124.0910125,
          "velocity": 1
        },
        {
          "duration": 0.272727500000002,
          "durationTicks": 480,
          "midi": 73,
          "name": "C#5",
          "ticks": 218880,
          "time": 124.36374,
          "velocity": 1
        },
        {
          "duration": 0.272727500000002,
          "durationTicks": 480,
          "midi": 66,
          "name": "F#4",
          "ticks": 219360,
          "time": 124.63646750000001,
          "velocity": 1
        },
        {
          "duration": 0.2727274999999878,
          "durationTicks": 480,
          "midi": 73,
          "name": "C#5",
          "ticks": 219840,
          "time": 124.90919500000001,
          "velocity": 1
        },
        {
          "duration": 0.272727500000002,
          "durationTicks": 480,
          "midi": 66,
          "name": "F#4",
          "ticks": 220320,
          "time": 125.1819225,
          "velocity": 1
        },
        {
          "duration": 0.272727500000002,
          "durationTicks": 480,
          "midi": 71,
          "name": "B4",
          "ticks": 220800,
          "time": 125.45465,
          "velocity": 1
        },
        {
          "duration": 0.272727500000002,
          "durationTicks": 480,
          "midi": 66,
          "name": "F#4",
          "ticks": 221280,
          "time": 125.7273775,
          "velocity": 1
        },
        {
          "duration": 0.272727500000002,
          "durationTicks": 480,
          "midi": 71,
          "name": "B4",
          "ticks": 221760,
          "time": 126.000105,
          "velocity": 1
        },
        {
          "duration": 0.272727500000002,
          "durationTicks": 480,
          "midi": 66,
          "name": "F#4",
          "ticks": 222240,
          "time": 126.2728325,
          "velocity": 1
        },
        {
          "duration": 0.272727500000002,
          "durationTicks": 480,
          "midi": 73,
          "name": "C#5",
          "ticks": 222720,
          "time": 126.54556000000001,
          "velocity": 1
        },
        {
          "duration": 0.2727274999999878,
          "durationTicks": 480,
          "midi": 66,
          "name": "F#4",
          "ticks": 223200,
          "time": 126.81828750000001,
          "velocity": 1
        },
        {
          "duration": 0.272727500000002,
          "durationTicks": 480,
          "midi": 73,
          "name": "C#5",
          "ticks": 223680,
          "time": 127.091015,
          "velocity": 1
        },
        {
          "duration": 0.272727500000002,
          "durationTicks": 480,
          "midi": 66,
          "name": "F#4",
          "ticks": 224160,
          "time": 127.3637425,
          "velocity": 1
        },
        {
          "duration": 0.272727500000002,
          "durationTicks": 480,
          "midi": 73,
          "name": "C#5",
          "ticks": 224640,
          "time": 127.63647,
          "velocity": 1
        },
        {
          "duration": 0.272727500000002,
          "durationTicks": 480,
          "midi": 66,
          "name": "F#4",
          "ticks": 225120,
          "time": 127.9091975,
          "velocity": 1
        },
        {
          "duration": 0.272727500000002,
          "durationTicks": 480,
          "midi": 74,
          "name": "D5",
          "ticks": 225600,
          "time": 128.181925,
          "velocity": 1
        },
        {
          "duration": 0.272727500000002,
          "durationTicks": 480,
          "midi": 66,
          "name": "F#4",
          "ticks": 226080,
          "time": 128.4546525,
          "velocity": 1
        },
        {
          "duration": 0.272727500000002,
          "durationTicks": 480,
          "midi": 73,
          "name": "C#5",
          "ticks": 226560,
          "time": 128.72738,
          "velocity": 1
        },
        {
          "duration": 0.272727500000002,
          "durationTicks": 480,
          "midi": 66,
          "name": "F#4",
          "ticks": 227040,
          "time": 129.0001075,
          "velocity": 1
        },
        {
          "duration": 0.272727500000002,
          "durationTicks": 480,
          "midi": 73,
          "name": "C#5",
          "ticks": 227520,
          "time": 129.27283500000001,
          "velocity": 1
        },
        {
          "duration": 0.272727500000002,
          "durationTicks": 480,
          "midi": 66,
          "name": "F#4",
          "ticks": 228000,
          "time": 129.54556250000002,
          "velocity": 1
        },
        {
          "duration": 0.2727274999999736,
          "durationTicks": 480,
          "midi": 71,
          "name": "B4",
          "ticks": 228480,
          "time": 129.81829000000002,
          "velocity": 1
        },
        {
          "duration": 0.272727500000002,
          "durationTicks": 480,
          "midi": 66,
          "name": "F#4",
          "ticks": 228960,
          "time": 130.0910175,
          "velocity": 1
        },
        {
          "duration": 0.272727500000002,
          "durationTicks": 480,
          "midi": 71,
          "name": "B4",
          "ticks": 229440,
          "time": 130.363745,
          "velocity": 1
        },
        {
          "duration": 0.272727500000002,
          "durationTicks": 480,
          "midi": 66,
          "name": "F#4",
          "ticks": 229920,
          "time": 130.6364725,
          "velocity": 1
        },
        {
          "duration": 0.272727500000002,
          "durationTicks": 480,
          "midi": 73,
          "name": "C#5",
          "ticks": 230400,
          "time": 130.9092,
          "velocity": 1
        },
        {
          "duration": 0.272727500000002,
          "durationTicks": 480,
          "midi": 66,
          "name": "F#4",
          "ticks": 230880,
          "time": 131.1819275,
          "velocity": 1
        },
        {
          "duration": 0.272727500000002,
          "durationTicks": 480,
          "midi": 73,
          "name": "C#5",
          "ticks": 231360,
          "time": 131.454655,
          "velocity": 1
        },
        {
          "duration": 0.272727500000002,
          "durationTicks": 480,
          "midi": 66,
          "name": "F#4",
          "ticks": 231840,
          "time": 131.7273825,
          "velocity": 1
        },
        {
          "duration": 0.272727500000002,
          "durationTicks": 480,
          "midi": 73,
          "name": "C#5",
          "ticks": 232320,
          "time": 132.00011,
          "velocity": 1
        },
        {
          "duration": 0.272727500000002,
          "durationTicks": 480,
          "midi": 66,
          "name": "F#4",
          "ticks": 232800,
          "time": 132.2728375,
          "velocity": 1
        },
        {
          "duration": 0.272727500000002,
          "durationTicks": 480,
          "midi": 74,
          "name": "D5",
          "ticks": 233280,
          "time": 132.545565,
          "velocity": 1
        },
        {
          "duration": 0.272727500000002,
          "durationTicks": 480,
          "midi": 66,
          "name": "F#4",
          "ticks": 233760,
          "time": 132.8182925,
          "velocity": 1
        },
        {
          "duration": 0.272727500000002,
          "durationTicks": 480,
          "midi": 73,
          "name": "C#5",
          "ticks": 234240,
          "time": 133.09102000000001,
          "velocity": 1
        },
        {
          "duration": 0.272727500000002,
          "durationTicks": 480,
          "midi": 66,
          "name": "F#4",
          "ticks": 234720,
          "time": 133.36374750000002,
          "velocity": 1
        },
        {
          "duration": 0.2727274999999736,
          "durationTicks": 480,
          "midi": 73,
          "name": "C#5",
          "ticks": 235200,
          "time": 133.63647500000002,
          "velocity": 1
        },
        {
          "duration": 0.272727500000002,
          "durationTicks": 480,
          "midi": 66,
          "name": "F#4",
          "ticks": 235680,
          "time": 133.9092025,
          "velocity": 1
        },
        {
          "duration": 0.272727500000002,
          "durationTicks": 480,
          "midi": 71,
          "name": "B4",
          "ticks": 236160,
          "time": 134.18193,
          "velocity": 1
        },
        {
          "duration": 0.272727500000002,
          "durationTicks": 480,
          "midi": 66,
          "name": "F#4",
          "ticks": 236640,
          "time": 134.4546575,
          "velocity": 1
        },
        {
          "duration": 0.272727500000002,
          "durationTicks": 480,
          "midi": 71,
          "name": "B4",
          "ticks": 237120,
          "time": 134.727385,
          "velocity": 1
        },
        {
          "duration": 0.272727500000002,
          "durationTicks": 480,
          "midi": 66,
          "name": "F#4",
          "ticks": 237600,
          "time": 135.0001125,
          "velocity": 1
        },
        {
          "duration": 0.272727500000002,
          "durationTicks": 480,
          "midi": 73,
          "name": "C#5",
          "ticks": 238080,
          "time": 135.27284,
          "velocity": 1
        },
        {
          "duration": 0.272727500000002,
          "durationTicks": 480,
          "midi": 66,
          "name": "F#4",
          "ticks": 238560,
          "time": 135.5455675,
          "velocity": 1
        },
        {
          "duration": 0.272727500000002,
          "durationTicks": 480,
          "midi": 73,
          "name": "C#5",
          "ticks": 239040,
          "time": 135.818295,
          "velocity": 1
        },
        {
          "duration": 0.272727500000002,
          "durationTicks": 480,
          "midi": 66,
          "name": "F#4",
          "ticks": 239520,
          "time": 136.0910225,
          "velocity": 1
        },
        {
          "duration": 0.272727500000002,
          "durationTicks": 480,
          "midi": 73,
          "name": "C#5",
          "ticks": 240000,
          "time": 136.36375,
          "velocity": 1
        },
        {
          "duration": 0.272727500000002,
          "durationTicks": 480,
          "midi": 66,
          "name": "F#4",
          "ticks": 240480,
          "time": 136.6364775,
          "velocity": 1
        },
        {
          "duration": 0.272727500000002,
          "durationTicks": 480,
          "midi": 74,
          "name": "D5",
          "ticks": 240960,
          "time": 136.90920500000001,
          "velocity": 1
        },
        {
          "duration": 0.272727500000002,
          "durationTicks": 480,
          "midi": 66,
          "name": "F#4",
          "ticks": 241440,
          "time": 137.18193250000002,
          "velocity": 1
        },
        {
          "duration": 0.2727274999999736,
          "durationTicks": 480,
          "midi": 73,
          "name": "C#5",
          "ticks": 241920,
          "time": 137.45466000000002,
          "velocity": 1
        },
        {
          "duration": 0.272727500000002,
          "durationTicks": 480,
          "midi": 66,
          "name": "F#4",
          "ticks": 242400,
          "time": 137.7273875,
          "velocity": 1
        },
        {
          "duration": 0.272727500000002,
          "durationTicks": 480,
          "midi": 73,
          "name": "C#5",
          "ticks": 242880,
          "time": 138.000115,
          "velocity": 1
        },
        {
          "duration": 0.272727500000002,
          "durationTicks": 480,
          "midi": 66,
          "name": "F#4",
          "ticks": 243360,
          "time": 138.2728425,
          "velocity": 1
        },
        {
          "duration": 0.272727500000002,
          "durationTicks": 480,
          "midi": 71,
          "name": "B4",
          "ticks": 243840,
          "time": 138.54557,
          "velocity": 1
        },
        {
          "duration": 0.272727500000002,
          "durationTicks": 480,
          "midi": 66,
          "name": "F#4",
          "ticks": 244320,
          "time": 138.8182975,
          "velocity": 1
        },
        {
          "duration": 0.272727500000002,
          "durationTicks": 480,
          "midi": 71,
          "name": "B4",
          "ticks": 244800,
          "time": 139.091025,
          "velocity": 1
        },
        {
          "duration": 0.272727500000002,
          "durationTicks": 480,
          "midi": 66,
          "name": "F#4",
          "ticks": 245280,
          "time": 139.3637525,
          "velocity": 1
        },
        {
          "duration": 0.272727500000002,
          "durationTicks": 480,
          "midi": 73,
          "name": "C#5",
          "ticks": 245760,
          "time": 139.63648,
          "velocity": 1
        },
        {
          "duration": 0.272727500000002,
          "durationTicks": 480,
          "midi": 66,
          "name": "F#4",
          "ticks": 246240,
          "time": 139.9092075,
          "velocity": 1
        },
        {
          "duration": 0.272727500000002,
          "durationTicks": 480,
          "midi": 73,
          "name": "C#5",
          "ticks": 246720,
          "time": 140.181935,
          "velocity": 1
        },
        {
          "duration": 0.272727500000002,
          "durationTicks": 480,
          "midi": 66,
          "name": "F#4",
          "ticks": 247200,
          "time": 140.4546625,
          "velocity": 1
        },
        {
          "duration": 0.272727500000002,
          "durationTicks": 480,
          "midi": 71,
          "name": "B4",
          "ticks": 247680,
          "time": 140.72739,
          "velocity": 1
        },
        {
          "duration": 0.272727500000002,
          "durationTicks": 480,
          "midi": 66,
          "name": "F#4",
          "ticks": 248160,
          "time": 141.00011750000002,
          "velocity": 1
        },
        {
          "duration": 0.272727500000002,
          "durationTicks": 480,
          "midi": 71,
          "name": "B4",
          "ticks": 248640,
          "time": 141.27284500000002,
          "velocity": 1
        },
        {
          "duration": 0.2727274999999736,
          "durationTicks": 480,
          "midi": 66,
          "name": "F#4",
          "ticks": 249120,
          "time": 141.54557250000002,
          "velocity": 1
        },
        {
          "duration": 0.272727500000002,
          "durationTicks": 480,
          "midi": 73,
          "name": "C#5",
          "ticks": 249600,
          "time": 141.8183,
          "velocity": 1
        },
        {
          "duration": 0.272727500000002,
          "durationTicks": 480,
          "midi": 66,
          "name": "F#4",
          "ticks": 250080,
          "time": 142.0910275,
          "velocity": 1
        },
        {
          "duration": 0.272727500000002,
          "durationTicks": 480,
          "midi": 73,
          "name": "C#5",
          "ticks": 250560,
          "time": 142.363755,
          "velocity": 1
        },
        {
          "duration": 0.272727500000002,
          "durationTicks": 480,
          "midi": 66,
          "name": "F#4",
          "ticks": 251040,
          "time": 142.6364825,
          "velocity": 1
        },
        {
          "duration": 0.272727500000002,
          "durationTicks": 480,
          "midi": 73,
          "name": "C#5",
          "ticks": 251520,
          "time": 142.90921,
          "velocity": 1
        },
        {
          "duration": 0.272727500000002,
          "durationTicks": 480,
          "midi": 66,
          "name": "F#4",
          "ticks": 252000,
          "time": 143.1819375,
          "velocity": 1
        },
        {
          "duration": 0.272727500000002,
          "durationTicks": 480,
          "midi": 74,
          "name": "D5",
          "ticks": 252480,
          "time": 143.454665,
          "velocity": 1
        },
        {
          "duration": 0.272727500000002,
          "durationTicks": 480,
          "midi": 66,
          "name": "F#4",
          "ticks": 252960,
          "time": 143.7273925,
          "velocity": 1
        },
        {
          "duration": 0.272727500000002,
          "durationTicks": 480,
          "midi": 73,
          "name": "C#5",
          "ticks": 253440,
          "time": 144.00012,
          "velocity": 1
        },
        {
          "duration": 0.272727500000002,
          "durationTicks": 480,
          "midi": 66,
          "name": "F#4",
          "ticks": 253920,
          "time": 144.2728475,
          "velocity": 1
        },
        {
          "duration": 0.272727500000002,
          "durationTicks": 480,
          "midi": 73,
          "name": "C#5",
          "ticks": 254400,
          "time": 144.545575,
          "velocity": 1
        },
        {
          "duration": 0.272727500000002,
          "durationTicks": 480,
          "midi": 66,
          "name": "F#4",
          "ticks": 254880,
          "time": 144.81830250000002,
          "velocity": 1
        },
        {
          "duration": 0.272727500000002,
          "durationTicks": 480,
          "midi": 71,
          "name": "B4",
          "ticks": 255360,
          "time": 145.09103000000002,
          "velocity": 1
        },
        {
          "duration": 0.2727274999999736,
          "durationTicks": 480,
          "midi": 66,
          "name": "F#4",
          "ticks": 255840,
          "time": 145.36375750000002,
          "velocity": 1
        },
        {
          "duration": 0.272727500000002,
          "durationTicks": 480,
          "midi": 71,
          "name": "B4",
          "ticks": 256320,
          "time": 145.636485,
          "velocity": 1
        },
        {
          "duration": 0.272727500000002,
          "durationTicks": 480,
          "midi": 66,
          "name": "F#4",
          "ticks": 256800,
          "time": 145.9092125,
          "velocity": 1
        },
        {
          "duration": 0.272727500000002,
          "durationTicks": 480,
          "midi": 73,
          "name": "C#5",
          "ticks": 257280,
          "time": 146.18194,
          "velocity": 1
        },
        {
          "duration": 0.272727500000002,
          "durationTicks": 480,
          "midi": 66,
          "name": "F#4",
          "ticks": 257760,
          "time": 146.4546675,
          "velocity": 1
        },
        {
          "duration": 0.272727500000002,
          "durationTicks": 480,
          "midi": 73,
          "name": "C#5",
          "ticks": 258240,
          "time": 146.727395,
          "velocity": 1
        },
        {
          "duration": 0.272727500000002,
          "durationTicks": 480,
          "midi": 66,
          "name": "F#4",
          "ticks": 258720,
          "time": 147.0001225,
          "velocity": 1
        },
        {
          "duration": 0.272727500000002,
          "durationTicks": 480,
          "midi": 73,
          "name": "C#5",
          "ticks": 259200,
          "time": 147.27285,
          "velocity": 1
        },
        {
          "duration": 0.272727500000002,
          "durationTicks": 480,
          "midi": 66,
          "name": "F#4",
          "ticks": 259680,
          "time": 147.5455775,
          "velocity": 1
        },
        {
          "duration": 0.272727500000002,
          "durationTicks": 480,
          "midi": 74,
          "name": "D5",
          "ticks": 260160,
          "time": 147.818305,
          "velocity": 1
        },
        {
          "duration": 0.272727500000002,
          "durationTicks": 480,
          "midi": 66,
          "name": "F#4",
          "ticks": 260640,
          "time": 148.0910325,
          "velocity": 1
        },
        {
          "duration": 0.272727500000002,
          "durationTicks": 480,
          "midi": 73,
          "name": "C#5",
          "ticks": 261120,
          "time": 148.36376,
          "velocity": 1
        },
        {
          "duration": 0.272727500000002,
          "durationTicks": 480,
          "midi": 66,
          "name": "F#4",
          "ticks": 261600,
          "time": 148.63648750000002,
          "velocity": 1
        },
        {
          "duration": 0.272727500000002,
          "durationTicks": 480,
          "midi": 73,
          "name": "C#5",
          "ticks": 262080,
          "time": 148.90921500000002,
          "velocity": 1
        },
        {
          "duration": 0.2727274999999736,
          "durationTicks": 480,
          "midi": 66,
          "name": "F#4",
          "ticks": 262560,
          "time": 149.18194250000002,
          "velocity": 1
        },
        {
          "duration": 0.272727500000002,
          "durationTicks": 480,
          "midi": 71,
          "name": "B4",
          "ticks": 263040,
          "time": 149.45467,
          "velocity": 1
        },
        {
          "duration": 0.272727500000002,
          "durationTicks": 480,
          "midi": 66,
          "name": "F#4",
          "ticks": 263520,
          "time": 149.7273975,
          "velocity": 1
        },
        {
          "duration": 0.272727500000002,
          "durationTicks": 480,
          "midi": 71,
          "name": "B4",
          "ticks": 264000,
          "time": 150.000125,
          "velocity": 1
        },
        {
          "duration": 0.272727500000002,
          "durationTicks": 480,
          "midi": 66,
          "name": "F#4",
          "ticks": 264480,
          "time": 150.2728525,
          "velocity": 1
        },
        {
          "duration": 0.272727500000002,
          "durationTicks": 480,
          "midi": 73,
          "name": "C#5",
          "ticks": 264960,
          "time": 150.54558,
          "velocity": 1
        },
        {
          "duration": 0.272727500000002,
          "durationTicks": 480,
          "midi": 66,
          "name": "F#4",
          "ticks": 265440,
          "time": 150.8183075,
          "velocity": 1
        },
        {
          "duration": 0.272727500000002,
          "durationTicks": 480,
          "midi": 73,
          "name": "C#5",
          "ticks": 265920,
          "time": 151.091035,
          "velocity": 1
        },
        {
          "duration": 0.272727500000002,
          "durationTicks": 480,
          "midi": 66,
          "name": "F#4",
          "ticks": 266400,
          "time": 151.3637625,
          "velocity": 1
        },
        {
          "duration": 0.272727500000002,
          "durationTicks": 480,
          "midi": 73,
          "name": "C#5",
          "ticks": 266880,
          "time": 151.63649,
          "velocity": 1
        },
        {
          "duration": 0.272727500000002,
          "durationTicks": 480,
          "midi": 66,
          "name": "F#4",
          "ticks": 267360,
          "time": 151.9092175,
          "velocity": 1
        },
        {
          "duration": 0.272727500000002,
          "durationTicks": 480,
          "midi": 74,
          "name": "D5",
          "ticks": 267840,
          "time": 152.181945,
          "velocity": 1
        },
        {
          "duration": 0.272727500000002,
          "durationTicks": 480,
          "midi": 66,
          "name": "F#4",
          "ticks": 268320,
          "time": 152.45467250000002,
          "velocity": 1
        },
        {
          "duration": 0.272727500000002,
          "durationTicks": 480,
          "midi": 73,
          "name": "C#5",
          "ticks": 268800,
          "time": 152.72740000000002,
          "velocity": 1
        },
        {
          "duration": 0.2727274999999736,
          "durationTicks": 480,
          "midi": 66,
          "name": "F#4",
          "ticks": 269280,
          "time": 153.00012750000002,
          "velocity": 1
        },
        {
          "duration": 0.272727500000002,
          "durationTicks": 480,
          "midi": 73,
          "name": "C#5",
          "ticks": 269760,
          "time": 153.272855,
          "velocity": 1
        },
        {
          "duration": 0.272727500000002,
          "durationTicks": 480,
          "midi": 66,
          "name": "F#4",
          "ticks": 270240,
          "time": 153.5455825,
          "velocity": 1
        },
        {
          "duration": 0.272727500000002,
          "durationTicks": 480,
          "midi": 71,
          "name": "B4",
          "ticks": 270720,
          "time": 153.81831,
          "velocity": 1
        },
        {
          "duration": 0.272727500000002,
          "durationTicks": 480,
          "midi": 66,
          "name": "F#4",
          "ticks": 271200,
          "time": 154.0910375,
          "velocity": 1
        },
        {
          "duration": 0.272727500000002,
          "durationTicks": 480,
          "midi": 71,
          "name": "B4",
          "ticks": 271680,
          "time": 154.363765,
          "velocity": 1
        },
        {
          "duration": 0.272727500000002,
          "durationTicks": 480,
          "midi": 66,
          "name": "F#4",
          "ticks": 272160,
          "time": 154.6364925,
          "velocity": 1
        },
        {
          "duration": 0.272727500000002,
          "durationTicks": 480,
          "midi": 73,
          "name": "C#5",
          "ticks": 272640,
          "time": 154.90922,
          "velocity": 1
        },
        {
          "duration": 0.272727500000002,
          "durationTicks": 480,
          "midi": 66,
          "name": "F#4",
          "ticks": 273120,
          "time": 155.1819475,
          "velocity": 1
        },
        {
          "duration": 0.272727500000002,
          "durationTicks": 480,
          "midi": 73,
          "name": "C#5",
          "ticks": 273600,
          "time": 155.454675,
          "velocity": 1
        },
        {
          "duration": 0.272727500000002,
          "durationTicks": 480,
          "midi": 66,
          "name": "F#4",
          "ticks": 274080,
          "time": 155.7274025,
          "velocity": 1
        },
        {
          "duration": 0.272727500000002,
          "durationTicks": 480,
          "midi": 73,
          "name": "C#5",
          "ticks": 274560,
          "time": 156.00013,
          "velocity": 1
        },
        {
          "duration": 0.272727500000002,
          "durationTicks": 480,
          "midi": 66,
          "name": "F#4",
          "ticks": 275040,
          "time": 156.27285750000001,
          "velocity": 1
        },
        {
          "duration": 0.272727500000002,
          "durationTicks": 480,
          "midi": 74,
          "name": "D5",
          "ticks": 275520,
          "time": 156.54558500000002,
          "velocity": 1
        },
        {
          "duration": 0.272727500000002,
          "durationTicks": 480,
          "midi": 66,
          "name": "F#4",
          "ticks": 276000,
          "time": 156.81831250000002,
          "velocity": 1
        },
        {
          "duration": 0.2727274999999736,
          "durationTicks": 480,
          "midi": 73,
          "name": "C#5",
          "ticks": 276480,
          "time": 157.09104000000002,
          "velocity": 1
        },
        {
          "duration": 0.272727500000002,
          "durationTicks": 480,
          "midi": 66,
          "name": "F#4",
          "ticks": 276960,
          "time": 157.3637675,
          "velocity": 1
        },
        {
          "duration": 0.272727500000002,
          "durationTicks": 480,
          "midi": 73,
          "name": "C#5",
          "ticks": 277440,
          "time": 157.636495,
          "velocity": 1
        },
        {
          "duration": 0.272727500000002,
          "durationTicks": 480,
          "midi": 66,
          "name": "F#4",
          "ticks": 277920,
          "time": 157.9092225,
          "velocity": 1
        },
        {
          "duration": 0.272727500000002,
          "durationTicks": 480,
          "midi": 71,
          "name": "B4",
          "ticks": 278400,
          "time": 158.18195,
          "velocity": 1
        },
        {
          "duration": 0.272727500000002,
          "durationTicks": 480,
          "midi": 66,
          "name": "F#4",
          "ticks": 278880,
          "time": 158.4546775,
          "velocity": 1
        },
        {
          "duration": 0.272727500000002,
          "durationTicks": 480,
          "midi": 71,
          "name": "B4",
          "ticks": 279360,
          "time": 158.727405,
          "velocity": 1
        },
        {
          "duration": 0.272727500000002,
          "durationTicks": 480,
          "midi": 66,
          "name": "F#4",
          "ticks": 279840,
          "time": 159.0001325,
          "velocity": 1
        },
        {
          "duration": 0.272727500000002,
          "durationTicks": 480,
          "midi": 73,
          "name": "C#5",
          "ticks": 280320,
          "time": 159.27286,
          "velocity": 1
        },
        {
          "duration": 0.272727500000002,
          "durationTicks": 480,
          "midi": 66,
          "name": "F#4",
          "ticks": 280800,
          "time": 159.5455875,
          "velocity": 1
        },
        {
          "duration": 0.272727500000002,
          "durationTicks": 480,
          "midi": 73,
          "name": "C#5",
          "ticks": 281280,
          "time": 159.818315,
          "velocity": 1
        },
        {
          "duration": 0.272727500000002,
          "durationTicks": 480,
          "midi": 66,
          "name": "F#4",
          "ticks": 281760,
          "time": 160.09104250000001,
          "velocity": 1
        },
        {
          "duration": 0.272727500000002,
          "durationTicks": 480,
          "midi": 73,
          "name": "C#5",
          "ticks": 282240,
          "time": 160.36377000000002,
          "velocity": 1
        },
        {
          "duration": 0.272727500000002,
          "durationTicks": 480,
          "midi": 66,
          "name": "F#4",
          "ticks": 282720,
          "time": 160.63649750000002,
          "velocity": 1
        },
        {
          "duration": 0.2727274999999736,
          "durationTicks": 480,
          "midi": 74,
          "name": "D5",
          "ticks": 283200,
          "time": 160.90922500000002,
          "velocity": 1
        },
        {
          "duration": 0.272727500000002,
          "durationTicks": 480,
          "midi": 66,
          "name": "F#4",
          "ticks": 283680,
          "time": 161.1819525,
          "velocity": 1
        },
        {
          "duration": 0.272727500000002,
          "durationTicks": 480,
          "midi": 73,
          "name": "C#5",
          "ticks": 284160,
          "time": 161.45468,
          "velocity": 1
        },
        {
          "duration": 0.272727500000002,
          "durationTicks": 480,
          "midi": 66,
          "name": "F#4",
          "ticks": 284640,
          "time": 161.7274075,
          "velocity": 1
        },
        {
          "duration": 0.272727500000002,
          "durationTicks": 480,
          "midi": 73,
          "name": "C#5",
          "ticks": 285120,
          "time": 162.000135,
          "velocity": 1
        },
        {
          "duration": 0.272727500000002,
          "durationTicks": 480,
          "midi": 66,
          "name": "F#4",
          "ticks": 285600,
          "time": 162.2728625,
          "velocity": 1
        },
        {
          "duration": 0.272727500000002,
          "durationTicks": 480,
          "midi": 71,
          "name": "B4",
          "ticks": 286080,
          "time": 162.54559,
          "velocity": 1
        },
        {
          "duration": 0.272727500000002,
          "durationTicks": 480,
          "midi": 66,
          "name": "F#4",
          "ticks": 286560,
          "time": 162.8183175,
          "velocity": 1
        },
        {
          "duration": 0.272727500000002,
          "durationTicks": 480,
          "midi": 71,
          "name": "B4",
          "ticks": 287040,
          "time": 163.091045,
          "velocity": 1
        },
        {
          "duration": 0.272727500000002,
          "durationTicks": 480,
          "midi": 66,
          "name": "F#4",
          "ticks": 287520,
          "time": 163.3637725,
          "velocity": 1
        },
        {
          "duration": 0.272727500000002,
          "durationTicks": 480,
          "midi": 73,
          "name": "C#5",
          "ticks": 288000,
          "time": 163.6365,
          "velocity": 1
        },
        {
          "duration": 0.272727500000002,
          "durationTicks": 480,
          "midi": 66,
          "name": "F#4",
          "ticks": 288480,
          "time": 163.90922750000001,
          "velocity": 1
        },
        {
          "duration": 0.272727500000002,
          "durationTicks": 480,
          "midi": 73,
          "name": "C#5",
          "ticks": 288960,
          "time": 164.18195500000002,
          "velocity": 1
        },
        {
          "duration": 0.272727500000002,
          "durationTicks": 480,
          "midi": 66,
          "name": "F#4",
          "ticks": 289440,
          "time": 164.45468250000002,
          "velocity": 1
        },
        {
          "duration": 0.2727274999999736,
          "durationTicks": 480,
          "midi": 73,
          "name": "C#5",
          "ticks": 289920,
          "time": 164.72741000000002,
          "velocity": 1
        },
        {
          "duration": 0.272727500000002,
          "durationTicks": 480,
          "midi": 66,
          "name": "F#4",
          "ticks": 290400,
          "time": 165.0001375,
          "velocity": 1
        },
        {
          "duration": 0.272727500000002,
          "durationTicks": 480,
          "midi": 74,
          "name": "D5",
          "ticks": 290880,
          "time": 165.272865,
          "velocity": 1
        },
        {
          "duration": 0.272727500000002,
          "durationTicks": 480,
          "midi": 66,
          "name": "F#4",
          "ticks": 291360,
          "time": 165.5455925,
          "velocity": 1
        },
        {
          "duration": 0.272727500000002,
          "durationTicks": 480,
          "midi": 73,
          "name": "C#5",
          "ticks": 291840,
          "time": 165.81832,
          "velocity": 1
        },
        {
          "duration": 0.272727500000002,
          "durationTicks": 480,
          "midi": 66,
          "name": "F#4",
          "ticks": 292320,
          "time": 166.0910475,
          "velocity": 1
        },
        {
          "duration": 0.272727500000002,
          "durationTicks": 480,
          "midi": 73,
          "name": "C#5",
          "ticks": 292800,
          "time": 166.363775,
          "velocity": 1
        },
        {
          "duration": 0.272727500000002,
          "durationTicks": 480,
          "midi": 66,
          "name": "F#4",
          "ticks": 293280,
          "time": 166.6365025,
          "velocity": 1
        },
        {
          "duration": 0.272727500000002,
          "durationTicks": 480,
          "midi": 71,
          "name": "B4",
          "ticks": 293760,
          "time": 166.90923,
          "velocity": 1
        },
        {
          "duration": 0.272727500000002,
          "durationTicks": 480,
          "midi": 66,
          "name": "F#4",
          "ticks": 294240,
          "time": 167.1819575,
          "velocity": 1
        },
        {
          "duration": 0.272727500000002,
          "durationTicks": 480,
          "midi": 71,
          "name": "B4",
          "ticks": 294720,
          "time": 167.454685,
          "velocity": 1
        },
        {
          "duration": 0.272727500000002,
          "durationTicks": 480,
          "midi": 66,
          "name": "F#4",
          "ticks": 295200,
          "time": 167.7274125,
          "velocity": 1
        },
        {
          "duration": 0.272727500000002,
          "durationTicks": 480,
          "midi": 73,
          "name": "C#5",
          "ticks": 295680,
          "time": 168.00014000000002,
          "velocity": 1
        },
        {
          "duration": 0.272727500000002,
          "durationTicks": 480,
          "midi": 66,
          "name": "F#4",
          "ticks": 296160,
          "time": 168.27286750000002,
          "velocity": 1
        },
        {
          "duration": 0.2727274999999736,
          "durationTicks": 480,
          "midi": 73,
          "name": "C#5",
          "ticks": 296640,
          "time": 168.54559500000002,
          "velocity": 1
        },
        {
          "duration": 0.272727500000002,
          "durationTicks": 480,
          "midi": 66,
          "name": "F#4",
          "ticks": 297120,
          "time": 168.8183225,
          "velocity": 1
        },
        {
          "duration": 0.272727500000002,
          "durationTicks": 480,
          "midi": 73,
          "name": "C#5",
          "ticks": 297600,
          "time": 169.09105,
          "velocity": 1
        },
        {
          "duration": 0.272727500000002,
          "durationTicks": 480,
          "midi": 66,
          "name": "F#4",
          "ticks": 298080,
          "time": 169.3637775,
          "velocity": 1
        },
        {
          "duration": 0.272727500000002,
          "durationTicks": 480,
          "midi": 74,
          "name": "D5",
          "ticks": 298560,
          "time": 169.636505,
          "velocity": 1
        },
        {
          "duration": 0.272727500000002,
          "durationTicks": 480,
          "midi": 66,
          "name": "F#4",
          "ticks": 299040,
          "time": 169.9092325,
          "velocity": 1
        },
        {
          "duration": 0.272727500000002,
          "durationTicks": 480,
          "midi": 73,
          "name": "C#5",
          "ticks": 299520,
          "time": 170.18196,
          "velocity": 1
        },
        {
          "duration": 0.272727500000002,
          "durationTicks": 480,
          "midi": 66,
          "name": "F#4",
          "ticks": 300000,
          "time": 170.4546875,
          "velocity": 1
        },
        {
          "duration": 0.272727500000002,
          "durationTicks": 480,
          "midi": 73,
          "name": "C#5",
          "ticks": 300480,
          "time": 170.727415,
          "velocity": 1
        },
        {
          "duration": 0.272727500000002,
          "durationTicks": 480,
          "midi": 66,
          "name": "F#4",
          "ticks": 300960,
          "time": 171.0001425,
          "velocity": 1
        },
        {
          "duration": 0.272727500000002,
          "durationTicks": 480,
          "midi": 71,
          "name": "B4",
          "ticks": 301440,
          "time": 171.27287,
          "velocity": 1
        },
        {
          "duration": 0.272727500000002,
          "durationTicks": 480,
          "midi": 66,
          "name": "F#4",
          "ticks": 301920,
          "time": 171.5455975,
          "velocity": 1
        },
        {
          "duration": 0.272727500000002,
          "durationTicks": 480,
          "midi": 71,
          "name": "B4",
          "ticks": 302400,
          "time": 171.81832500000002,
          "velocity": 1
        },
        {
          "duration": 0.272727500000002,
          "durationTicks": 480,
          "midi": 66,
          "name": "F#4",
          "ticks": 302880,
          "time": 172.09105250000002,
          "velocity": 1
        },
        {
          "duration": 0.2727274999999736,
          "durationTicks": 480,
          "midi": 73,
          "name": "C#5",
          "ticks": 303360,
          "time": 172.36378000000002,
          "velocity": 1
        },
        {
          "duration": 0.272727500000002,
          "durationTicks": 480,
          "midi": 66,
          "name": "F#4",
          "ticks": 303840,
          "time": 172.6365075,
          "velocity": 1
        },
        {
          "duration": 0.272727500000002,
          "durationTicks": 480,
          "midi": 73,
          "name": "C#5",
          "ticks": 304320,
          "time": 172.909235,
          "velocity": 1
        },
        {
          "duration": 0.272727500000002,
          "durationTicks": 480,
          "midi": 66,
          "name": "F#4",
          "ticks": 304800,
          "time": 173.1819625,
          "velocity": 1
        },
        {
          "duration": 0.272727500000002,
          "durationTicks": 480,
          "midi": 73,
          "name": "C#5",
          "ticks": 305280,
          "time": 173.45469,
          "velocity": 1
        },
        {
          "duration": 0.272727500000002,
          "durationTicks": 480,
          "midi": 66,
          "name": "F#4",
          "ticks": 305760,
          "time": 173.7274175,
          "velocity": 1
        },
        {
          "duration": 0.272727500000002,
          "durationTicks": 480,
          "midi": 74,
          "name": "D5",
          "ticks": 306240,
          "time": 174.000145,
          "velocity": 1
        },
        {
          "duration": 0.272727500000002,
          "durationTicks": 480,
          "midi": 66,
          "name": "F#4",
          "ticks": 306720,
          "time": 174.2728725,
          "velocity": 1
        },
        {
          "duration": 0.272727500000002,
          "durationTicks": 480,
          "midi": 73,
          "name": "C#5",
          "ticks": 307200,
          "time": 174.5456,
          "velocity": 1
        },
        {
          "duration": 0.272727500000002,
          "durationTicks": 480,
          "midi": 66,
          "name": "F#4",
          "ticks": 307680,
          "time": 174.8183275,
          "velocity": 1
        },
        {
          "duration": 0.272727500000002,
          "durationTicks": 480,
          "midi": 73,
          "name": "C#5",
          "ticks": 308160,
          "time": 175.091055,
          "velocity": 1
        },
        {
          "duration": 0.272727500000002,
          "durationTicks": 480,
          "midi": 66,
          "name": "F#4",
          "ticks": 308640,
          "time": 175.3637825,
          "velocity": 1
        },
        {
          "duration": 0.272727500000002,
          "durationTicks": 480,
          "midi": 71,
          "name": "B4",
          "ticks": 309120,
          "time": 175.63651000000002,
          "velocity": 1
        },
        {
          "duration": 0.272727500000002,
          "durationTicks": 480,
          "midi": 66,
          "name": "F#4",
          "ticks": 309600,
          "time": 175.90923750000002,
          "velocity": 1
        },
        {
          "duration": 0.272727500000002,
          "durationTicks": 480,
          "midi": 71,
          "name": "B4",
          "ticks": 310080,
          "time": 176.18196500000002,
          "velocity": 1
        },
        {
          "duration": 0.2727274999999736,
          "durationTicks": 480,
          "midi": 66,
          "name": "F#4",
          "ticks": 310560,
          "time": 176.45469250000002,
          "velocity": 1
        }
      ],
      "endOfTrackTicks": 311040
    },
    {
      "channel": 0,
      "controlChanges": {
        "7": [
          {
            "number": 7,
            "ticks": 0,
            "time": 0,
            "value": 0.905511811023622
          }
        ]
      },
      "pitchBends": [],
      "instrument": {
        "family": "piano",
        "number": 0,
        "name": "acoustic grand piano"
      },
      "name": "Track 8",
      "notes": [],
      "endOfTrackTicks": 184320
    },
    {
      "channel": 6,
      "controlChanges": {},
      "pitchBends": [],
      "instrument": {
        "family": "ensemble",
        "number": 53,
        "name": "voice oohs"
      },
      "name": "",
      "notes": [
        {
          "duration": 2.1818199999999983,
          "durationTicks": 3840,
          "midi": 66,
          "name": "F#4",
          "ticks": 38400,
          "time": 21.8182,
          "velocity": 1
        },
        {
          "duration": 2.181820000000002,
          "durationTicks": 3840,
          "midi": 62,
          "name": "D4",
          "ticks": 42240,
          "time": 24.00002,
          "velocity": 1
        },
        {
          "duration": 2.181820000000002,
          "durationTicks": 3840,
          "midi": 69,
          "name": "A4",
          "ticks": 46080,
          "time": 26.18184,
          "velocity": 1
        },
        {
          "duration": 2.1818199999999983,
          "durationTicks": 3840,
          "midi": 64,
          "name": "E4",
          "ticks": 49920,
          "time": 28.363660000000003,
          "velocity": 1
        },
        {
          "duration": 2.1818199999999983,
          "durationTicks": 3840,
          "midi": 66,
          "name": "F#4",
          "ticks": 53760,
          "time": 30.54548,
          "velocity": 1
        },
        {
          "duration": 2.181820000000002,
          "durationTicks": 3840,
          "midi": 62,
          "name": "D4",
          "ticks": 57600,
          "time": 32.7273,
          "velocity": 1
        },
        {
          "duration": 2.181820000000002,
          "durationTicks": 3840,
          "midi": 69,
          "name": "A4",
          "ticks": 61440,
          "time": 34.90912,
          "velocity": 1
        },
        {
          "duration": 2.181820000000002,
          "durationTicks": 3840,
          "midi": 64,
          "name": "E4",
          "ticks": 65280,
          "time": 37.09094,
          "velocity": 1
        },
        {
          "duration": 1.6363649999999978,
          "durationTicks": 2880,
          "midi": 62,
          "name": "D4",
          "ticks": 69120,
          "time": 39.272760000000005,
          "velocity": 1
        },
        {
          "duration": 0.5454549999999969,
          "durationTicks": 960,
          "midi": 66,
          "name": "F#4",
          "ticks": 72000,
          "time": 40.909125,
          "velocity": 1
        },
        {
          "duration": 1.636365000000005,
          "durationTicks": 2880,
          "midi": 64,
          "name": "E4",
          "ticks": 72960,
          "time": 41.45458,
          "velocity": 1
        },
        {
          "duration": 0.5454549999999969,
          "durationTicks": 960,
          "midi": 68,
          "name": "G#4",
          "ticks": 75840,
          "time": 43.090945000000005,
          "velocity": 1
        },
        {
          "duration": 1.6363649999999978,
          "durationTicks": 2880,
          "midi": 66,
          "name": "F#4",
          "ticks": 76800,
          "time": 43.6364,
          "velocity": 1
        },
        {
          "duration": 0.545455000000004,
          "durationTicks": 960,
          "midi": 68,
          "name": "G#4",
          "ticks": 79680,
          "time": 45.272765,
          "velocity": 1
        },
        {
          "duration": 1.090910000000001,
          "durationTicks": 1920,
          "midi": 69,
          "name": "A4",
          "ticks": 80640,
          "time": 45.818220000000004,
          "velocity": 1
        },
        {
          "duration": 1.0909099999999938,
          "durationTicks": 1920,
          "midi": 64,
          "name": "E4",
          "ticks": 82560,
          "time": 46.909130000000005,
          "velocity": 1
        },
        {
          "duration": 1.636365000000005,
          "durationTicks": 2880,
          "midi": 62,
          "name": "D4",
          "ticks": 84480,
          "time": 48.00004,
          "velocity": 1
        },
        {
          "duration": 0.5454549999999969,
          "durationTicks": 960,
          "midi": 66,
          "name": "F#4",
          "ticks": 87360,
          "time": 49.636405,
          "velocity": 1
        },
        {
          "duration": 2.181820000000002,
          "durationTicks": 3840,
          "midi": 64,
          "name": "E4",
          "ticks": 88320,
          "time": 50.18186,
          "velocity": 1
        },
        {
          "duration": 2.181820000000002,
          "durationTicks": 3840,
          "midi": 66,
          "name": "F#4",
          "ticks": 122880,
          "time": 69.81824,
          "velocity": 1
        },
        {
          "duration": 2.181820000000002,
          "durationTicks": 3840,
          "midi": 62,
          "name": "D4",
          "ticks": 126720,
          "time": 72.00006,
          "velocity": 1
        },
        {
          "duration": 2.181820000000002,
          "durationTicks": 3840,
          "midi": 69,
          "name": "A4",
          "ticks": 130560,
          "time": 74.18188,
          "velocity": 1
        },
        {
          "duration": 2.181820000000002,
          "durationTicks": 3840,
          "midi": 64,
          "name": "E4",
          "ticks": 134400,
          "time": 76.36370000000001,
          "velocity": 1
        },
        {
          "duration": 2.1818199999999877,
          "durationTicks": 3840,
          "midi": 66,
          "name": "F#4",
          "ticks": 138240,
          "time": 78.54552000000001,
          "velocity": 1
        },
        {
          "duration": 2.181820000000002,
          "durationTicks": 3840,
          "midi": 62,
          "name": "D4",
          "ticks": 142080,
          "time": 80.72734,
          "velocity": 1
        },
        {
          "duration": 2.181820000000002,
          "durationTicks": 3840,
          "midi": 69,
          "name": "A4",
          "ticks": 145920,
          "time": 82.90916,
          "velocity": 1
        },
        {
          "duration": 2.181820000000002,
          "durationTicks": 3840,
          "midi": 64,
          "name": "E4",
          "ticks": 149760,
          "time": 85.09098,
          "velocity": 1
        },
        {
          "duration": 1.6363649999999978,
          "durationTicks": 2880,
          "midi": 62,
          "name": "D4",
          "ticks": 153600,
          "time": 87.2728,
          "velocity": 1
        },
        {
          "duration": 0.545455000000004,
          "durationTicks": 960,
          "midi": 66,
          "name": "F#4",
          "ticks": 156480,
          "time": 88.909165,
          "velocity": 1
        },
        {
          "duration": 1.6363649999999978,
          "durationTicks": 2880,
          "midi": 64,
          "name": "E4",
          "ticks": 157440,
          "time": 89.45462,
          "velocity": 1
        },
        {
          "duration": 0.545455000000004,
          "durationTicks": 960,
          "midi": 68,
          "name": "G#4",
          "ticks": 160320,
          "time": 91.090985,
          "velocity": 1
        },
        {
          "duration": 1.6363649999999978,
          "durationTicks": 2880,
          "midi": 66,
          "name": "F#4",
          "ticks": 161280,
          "time": 91.63644000000001,
          "velocity": 1
        },
        {
          "duration": 0.545455000000004,
          "durationTicks": 960,
          "midi": 68,
          "name": "G#4",
          "ticks": 164160,
          "time": 93.272805,
          "velocity": 1
        },
        {
          "duration": 1.0909099999999938,
          "durationTicks": 1920,
          "midi": 69,
          "name": "A4",
          "ticks": 165120,
          "time": 93.81826000000001,
          "velocity": 1
        },
        {
          "duration": 1.0909099999999938,
          "durationTicks": 1920,
          "midi": 64,
          "name": "E4",
          "ticks": 167040,
          "time": 94.90917,
          "velocity": 1
        },
        {
          "duration": 1.636365000000012,
          "durationTicks": 2880,
          "midi": 62,
          "name": "D4",
          "ticks": 168960,
          "time": 96.00008,
          "velocity": 1
        },
        {
          "duration": 0.5454549999999898,
          "durationTicks": 960,
          "midi": 66,
          "name": "F#4",
          "ticks": 171840,
          "time": 97.63644500000001,
          "velocity": 1
        },
        {
          "duration": 1.636365000000012,
          "durationTicks": 2880,
          "midi": 64,
          "name": "E4",
          "ticks": 172800,
          "time": 98.1819,
          "velocity": 1
        },
        {
          "duration": 0.5454549999999898,
          "durationTicks": 960,
          "midi": 68,
          "name": "G#4",
          "ticks": 175680,
          "time": 99.81826500000001,
          "velocity": 1
        },
        {
          "duration": 1.6363649999999978,
          "durationTicks": 2880,
          "midi": 66,
          "name": "F#4",
          "ticks": 176640,
          "time": 100.36372,
          "velocity": 1
        },
        {
          "duration": 0.545455000000004,
          "durationTicks": 960,
          "midi": 68,
          "name": "G#4",
          "ticks": 179520,
          "time": 102.000085,
          "velocity": 1
        },
        {
          "duration": 1.090910000000008,
          "durationTicks": 1920,
          "midi": 69,
          "name": "A4",
          "ticks": 180480,
          "time": 102.54554,
          "velocity": 1
        },
        {
          "duration": 1.0909099999999938,
          "durationTicks": 1920,
          "midi": 68,
          "name": "G#4",
          "ticks": 182400,
          "time": 103.63645000000001,
          "velocity": 1
        }
      ]
    },
    {
      "channel": 7,
      "controlChanges": {
        "7": [
          {
            "number": 7,
            "ticks": 0,
            "time": 0,
            "value": 0.8976377952755905
          }
        ]
      },
      "pitchBends": [],
      "instrument": {
        "family": "reed",
        "number": 66,
        "name": "tenor sax"
      },
      "name": "Chester Bennington",
      "notes": [
        {
          "duration": 0.27272749999999846,
          "durationTicks": 480,
          "midi": 61,
          "name": "C#4",
          "ticks": 39360,
          "time": 22.363655,
          "velocity": 1
        },
        {
          "duration": 0.272727500000002,
          "durationTicks": 480,
          "midi": 61,
          "name": "C#4",
          "ticks": 39840,
          "time": 22.6363825,
          "velocity": 1
        },
        {
          "duration": 0.27272749999999846,
          "durationTicks": 480,
          "midi": 61,
          "name": "C#4",
          "ticks": 40320,
          "time": 22.909110000000002,
          "velocity": 1
        },
        {
          "duration": 0.272727500000002,
          "durationTicks": 480,
          "midi": 61,
          "name": "C#4",
          "ticks": 40800,
          "time": 23.1818375,
          "velocity": 1
        },
        {
          "duration": 0.27272749999999846,
          "durationTicks": 480,
          "midi": 62,
          "name": "D4",
          "ticks": 41280,
          "time": 23.454565000000002,
          "velocity": 1
        },
        {
          "duration": 0.5454550000000005,
          "durationTicks": 960,
          "midi": 61,
          "name": "C#4",
          "ticks": 41760,
          "time": 23.7272925,
          "velocity": 1
        },
        {
          "duration": 0.27272749999999846,
          "durationTicks": 480,
          "midi": 61,
          "name": "C#4",
          "ticks": 42720,
          "time": 24.2727475,
          "velocity": 1
        },
        {
          "duration": 0.272727500000002,
          "durationTicks": 480,
          "midi": 59,
          "name": "B3",
          "ticks": 43200,
          "time": 24.545475,
          "velocity": 1
        },
        {
          "duration": 1.090910000000001,
          "durationTicks": 1920,
          "midi": 57,
          "name": "A3",
          "ticks": 43680,
          "time": 24.8182025,
          "velocity": 1
        },
        {
          "duration": 0.27272749999999846,
          "durationTicks": 480,
          "midi": 61,
          "name": "C#4",
          "ticks": 46080,
          "time": 26.18184,
          "velocity": 1
        },
        {
          "duration": 0.272727500000002,
          "durationTicks": 480,
          "midi": 61,
          "name": "C#4",
          "ticks": 46560,
          "time": 26.4545675,
          "velocity": 1
        },
        {
          "duration": 0.27272749999999846,
          "durationTicks": 480,
          "midi": 59,
          "name": "B3",
          "ticks": 47040,
          "time": 26.727295,
          "velocity": 1
        },
        {
          "duration": 0.5454550000000005,
          "durationTicks": 960,
          "midi": 57,
          "name": "A3",
          "ticks": 47520,
          "time": 27.0000225,
          "velocity": 1
        },
        {
          "duration": 0.5454550000000005,
          "durationTicks": 960,
          "midi": 59,
          "name": "B3",
          "ticks": 48480,
          "time": 27.5454775,
          "velocity": 1
        },
        {
          "duration": 0.272727500000002,
          "durationTicks": 480,
          "midi": 54,
          "name": "F#3",
          "ticks": 49440,
          "time": 28.0909325,
          "velocity": 1
        },
        {
          "duration": 0.27272749999999846,
          "durationTicks": 480,
          "midi": 61,
          "name": "C#4",
          "ticks": 49920,
          "time": 28.363660000000003,
          "velocity": 1
        },
        {
          "duration": 0.27272749999999846,
          "durationTicks": 480,
          "midi": 61,
          "name": "C#4",
          "ticks": 50400,
          "time": 28.6363875,
          "velocity": 1
        },
        {
          "duration": 0.272727500000002,
          "durationTicks": 480,
          "midi": 59,
          "name": "B3",
          "ticks": 50880,
          "time": 28.909115,
          "velocity": 1
        },
        {
          "duration": 0.5454550000000005,
          "durationTicks": 960,
          "midi": 57,
          "name": "A3",
          "ticks": 51360,
          "time": 29.181842500000002,
          "velocity": 1
        },
        {
          "duration": 0.8181824999999989,
          "durationTicks": 1440,
          "midi": 59,
          "name": "B3",
          "ticks": 52320,
          "time": 29.727297500000002,
          "velocity": 1
        },
        {
          "duration": 0.272727500000002,
          "durationTicks": 480,
          "midi": 54,
          "name": "F#3",
          "ticks": 54240,
          "time": 30.8182075,
          "velocity": 1
        },
        {
          "duration": 0.27272749999999846,
          "durationTicks": 480,
          "midi": 61,
          "name": "C#4",
          "ticks": 54720,
          "time": 31.090935,
          "velocity": 1
        },
        {
          "duration": 0.272727500000002,
          "durationTicks": 480,
          "midi": 61,
          "name": "C#4",
          "ticks": 55200,
          "time": 31.3636625,
          "velocity": 1
        },
        {
          "duration": 0.27272749999999846,
          "durationTicks": 480,
          "midi": 61,
          "name": "C#4",
          "ticks": 55680,
          "time": 31.636390000000002,
          "velocity": 1
        },
        {
          "duration": 0.272727500000002,
          "durationTicks": 480,
          "midi": 61,
          "name": "C#4",
          "ticks": 56160,
          "time": 31.9091175,
          "velocity": 1
        },
        {
          "duration": 0.272727500000002,
          "durationTicks": 480,
          "midi": 62,
          "name": "D4",
          "ticks": 56640,
          "time": 32.181845,
          "velocity": 1
        },
        {
          "duration": 0.5454549999999969,
          "durationTicks": 960,
          "midi": 61,
          "name": "C#4",
          "ticks": 57120,
          "time": 32.454572500000005,
          "velocity": 1
        },
        {
          "duration": 0.272727500000002,
          "durationTicks": 480,
          "midi": 61,
          "name": "C#4",
          "ticks": 58080,
          "time": 33.0000275,
          "velocity": 1
        },
        {
          "duration": 0.2727274999999949,
          "durationTicks": 480,
          "midi": 59,
          "name": "B3",
          "ticks": 58560,
          "time": 33.272755000000004,
          "velocity": 1
        },
        {
          "duration": 1.090910000000001,
          "durationTicks": 1920,
          "midi": 57,
          "name": "A3",
          "ticks": 59040,
          "time": 33.5454825,
          "velocity": 1
        },
        {
          "duration": 0.272727500000002,
          "durationTicks": 480,
          "midi": 54,
          "name": "F#3",
          "ticks": 60960,
          "time": 34.6363925,
          "velocity": 1
        },
        {
          "duration": 0.272727500000002,
          "durationTicks": 480,
          "midi": 61,
          "name": "C#4",
          "ticks": 61440,
          "time": 34.90912,
          "velocity": 1
        },
        {
          "duration": 0.2727274999999949,
          "durationTicks": 480,
          "midi": 61,
          "name": "C#4",
          "ticks": 61920,
          "time": 35.1818475,
          "velocity": 1
        },
        {
          "duration": 0.272727500000002,
          "durationTicks": 480,
          "midi": 59,
          "name": "B3",
          "ticks": 62400,
          "time": 35.454575,
          "velocity": 1
        },
        {
          "duration": 0.545455000000004,
          "durationTicks": 960,
          "midi": 57,
          "name": "A3",
          "ticks": 62880,
          "time": 35.7273025,
          "velocity": 1
        },
        {
          "duration": 0.5454549999999969,
          "durationTicks": 960,
          "midi": 59,
          "name": "B3",
          "ticks": 63840,
          "time": 36.272757500000004,
          "velocity": 1
        },
        {
          "duration": 0.272727500000002,
          "durationTicks": 480,
          "midi": 54,
          "name": "F#3",
          "ticks": 64800,
          "time": 36.8182125,
          "velocity": 1
        },
        {
          "duration": 0.2727274999999949,
          "durationTicks": 480,
          "midi": 61,
          "name": "C#4",
          "ticks": 65280,
          "time": 37.09094,
          "velocity": 1
        },
        {
          "duration": 0.545455000000004,
          "durationTicks": 960,
          "midi": 59,
          "name": "B3",
          "ticks": 65760,
          "time": 37.3636675,
          "velocity": 1
        },
        {
          "duration": 0.5454549999999969,
          "durationTicks": 960,
          "midi": 57,
          "name": "A3",
          "ticks": 66720,
          "time": 37.9091225,
          "velocity": 1
        },
        {
          "duration": 0.545455000000004,
          "durationTicks": 960,
          "midi": 59,
          "name": "B3",
          "ticks": 67680,
          "time": 38.4545775,
          "velocity": 1
        },
        {
          "duration": 0.272727500000002,
          "durationTicks": 480,
          "midi": 59,
          "name": "B3",
          "ticks": 68640,
          "time": 39.0000325,
          "velocity": 1
        },
        {
          "duration": 2.1818199999999948,
          "durationTicks": 3840,
          "midi": 61,
          "name": "C#4",
          "ticks": 69120,
          "time": 39.272760000000005,
          "velocity": 1
        },
        {
          "duration": 0.2727274999999949,
          "durationTicks": 480,
          "midi": 61,
          "name": "C#4",
          "ticks": 75840,
          "time": 43.090945000000005,
          "velocity": 1
        },
        {
          "duration": 0.272727500000002,
          "durationTicks": 480,
          "midi": 61,
          "name": "C#4",
          "ticks": 76320,
          "time": 43.3636725,
          "velocity": 1
        },
        {
          "duration": 0.272727500000002,
          "durationTicks": 480,
          "midi": 66,
          "name": "F#4",
          "ticks": 76800,
          "time": 43.6364,
          "velocity": 1
        },
        {
          "duration": 0.2727274999999949,
          "durationTicks": 480,
          "midi": 66,
          "name": "F#4",
          "ticks": 77280,
          "time": 43.909127500000004,
          "velocity": 1
        },
        {
          "duration": 0.272727500000002,
          "durationTicks": 480,
          "midi": 64,
          "name": "E4",
          "ticks": 77760,
          "time": 44.181855,
          "velocity": 1
        },
        {
          "duration": 0.545455000000004,
          "durationTicks": 960,
          "midi": 61,
          "name": "C#4",
          "ticks": 78240,
          "time": 44.4545825,
          "velocity": 1
        },
        {
          "duration": 0.2727274999999949,
          "durationTicks": 480,
          "midi": 61,
          "name": "C#4",
          "ticks": 79200,
          "time": 45.000037500000005,
          "velocity": 1
        },
        {
          "duration": 0.272727500000002,
          "durationTicks": 480,
          "midi": 61,
          "name": "C#4",
          "ticks": 79680,
          "time": 45.272765,
          "velocity": 1
        },
        {
          "duration": 0.5454549999999969,
          "durationTicks": 960,
          "midi": 66,
          "name": "F#4",
          "ticks": 80160,
          "time": 45.5454925,
          "velocity": 1
        },
        {
          "duration": 0.272727500000002,
          "durationTicks": 480,
          "midi": 66,
          "name": "F#4",
          "ticks": 81120,
          "time": 46.0909475,
          "velocity": 1
        },
        {
          "duration": 0.272727500000002,
          "durationTicks": 480,
          "midi": 64,
          "name": "E4",
          "ticks": 81600,
          "time": 46.363675,
          "velocity": 1
        },
        {
          "duration": 0.5454549999999969,
          "durationTicks": 960,
          "midi": 61,
          "name": "C#4",
          "ticks": 82080,
          "time": 46.6364025,
          "velocity": 1
        },
        {
          "duration": 0.545455000000004,
          "durationTicks": 960,
          "midi": 62,
          "name": "D4",
          "ticks": 83040,
          "time": 47.1818575,
          "velocity": 1
        },
        {
          "duration": 2.4545474999999968,
          "durationTicks": 4320,
          "midi": 64,
          "name": "E4",
          "ticks": 84000,
          "time": 47.727312500000004,
          "velocity": 1
        },
        {
          "duration": 0.8181824999999989,
          "durationTicks": 1440,
          "midi": 66,
          "name": "F#4",
          "ticks": 92160,
          "time": 52.36368,
          "velocity": 1
        },
        {
          "duration": 0.272727500000002,
          "durationTicks": 480,
          "midi": 66,
          "name": "F#4",
          "ticks": 93600,
          "time": 53.1818625,
          "velocity": 1
        },
        {
          "duration": 0.5454549999999969,
          "durationTicks": 960,
          "midi": 66,
          "name": "F#4",
          "ticks": 94080,
          "time": 53.45459,
          "velocity": 1
        },
        {
          "duration": 0.272727500000002,
          "durationTicks": 480,
          "midi": 64,
          "name": "E4",
          "ticks": 95040,
          "time": 54.000045,
          "velocity": 1
        },
        {
          "duration": 0.272727500000002,
          "durationTicks": 480,
          "midi": 66,
          "name": "F#4",
          "ticks": 95520,
          "time": 54.2727725,
          "velocity": 1
        },
        {
          "duration": 0.5454549999999969,
          "durationTicks": 960,
          "midi": 66,
          "name": "F#4",
          "ticks": 96000,
          "time": 54.545500000000004,
          "velocity": 1
        },
        {
          "duration": 0.272727500000002,
          "durationTicks": 480,
          "midi": 66,
          "name": "F#4",
          "ticks": 96960,
          "time": 55.090955,
          "velocity": 1
        },
        {
          "duration": 0.272727500000002,
          "durationTicks": 480,
          "midi": 66,
          "name": "F#4",
          "ticks": 97440,
          "time": 55.3636825,
          "velocity": 1
        },
        {
          "duration": 0.5454549999999969,
          "durationTicks": 960,
          "midi": 66,
          "name": "F#4",
          "ticks": 97920,
          "time": 55.636410000000005,
          "velocity": 1
        },
        {
          "duration": 0.545455000000004,
          "durationTicks": 960,
          "midi": 68,
          "name": "G#4",
          "ticks": 98880,
          "time": 56.181865,
          "velocity": 1
        },
        {
          "duration": 0.8181824999999989,
          "durationTicks": 1440,
          "midi": 64,
          "name": "E4",
          "ticks": 99840,
          "time": 56.727320000000006,
          "velocity": 1
        },
        {
          "duration": 0.2727274999999949,
          "durationTicks": 480,
          "midi": 66,
          "name": "F#4",
          "ticks": 101280,
          "time": 57.545502500000005,
          "velocity": 1
        },
        {
          "duration": 0.545455000000004,
          "durationTicks": 960,
          "midi": 66,
          "name": "F#4",
          "ticks": 101760,
          "time": 57.81823,
          "velocity": 1
        },
        {
          "duration": 0.272727500000002,
          "durationTicks": 480,
          "midi": 64,
          "name": "E4",
          "ticks": 102720,
          "time": 58.363685000000004,
          "velocity": 1
        },
        {
          "duration": 0.2727274999999949,
          "durationTicks": 480,
          "midi": 66,
          "name": "F#4",
          "ticks": 103200,
          "time": 58.636412500000006,
          "velocity": 1
        },
        {
          "duration": 0.272727500000002,
          "durationTicks": 480,
          "midi": 66,
          "name": "F#4",
          "ticks": 103680,
          "time": 58.90914,
          "velocity": 1
        },
        {
          "duration": 0.272727500000002,
          "durationTicks": 480,
          "midi": 66,
          "name": "F#4",
          "ticks": 104160,
          "time": 59.1818675,
          "velocity": 1
        },
        {
          "duration": 0.2727274999999949,
          "durationTicks": 480,
          "midi": 66,
          "name": "F#4",
          "ticks": 104640,
          "time": 59.454595000000005,
          "velocity": 1
        },
        {
          "duration": 0.272727500000002,
          "durationTicks": 480,
          "midi": 66,
          "name": "F#4",
          "ticks": 105120,
          "time": 59.7273225,
          "velocity": 1
        },
        {
          "duration": 0.545455000000004,
          "durationTicks": 960,
          "midi": 66,
          "name": "F#4",
          "ticks": 105600,
          "time": 60.00005,
          "velocity": 1
        },
        {
          "duration": 0.5454549999999969,
          "durationTicks": 960,
          "midi": 64,
          "name": "E4",
          "ticks": 106560,
          "time": 60.545505000000006,
          "velocity": 1
        },
        {
          "duration": 0.5454549999999969,
          "durationTicks": 960,
          "midi": 66,
          "name": "F#4",
          "ticks": 107520,
          "time": 61.09096,
          "velocity": 1
        },
        {
          "duration": 0.272727500000002,
          "durationTicks": 480,
          "midi": 66,
          "name": "F#4",
          "ticks": 108480,
          "time": 61.636415,
          "velocity": 1
        },
        {
          "duration": 0.272727500000002,
          "durationTicks": 480,
          "midi": 66,
          "name": "F#4",
          "ticks": 108960,
          "time": 61.9091425,
          "velocity": 1
        },
        {
          "duration": 0.5454549999999969,
          "durationTicks": 960,
          "midi": 66,
          "name": "F#4",
          "ticks": 109440,
          "time": 62.18187,
          "velocity": 1
        },
        {
          "duration": 0.545455000000004,
          "durationTicks": 960,
          "midi": 64,
          "name": "E4",
          "ticks": 110400,
          "time": 62.727325,
          "velocity": 1
        },
        {
          "duration": 0.5454549999999969,
          "durationTicks": 960,
          "midi": 66,
          "name": "F#4",
          "ticks": 111360,
          "time": 63.272780000000004,
          "velocity": 1
        },
        {
          "duration": 0.272727500000002,
          "durationTicks": 480,
          "midi": 66,
          "name": "F#4",
          "ticks": 112320,
          "time": 63.818235,
          "velocity": 1
        },
        {
          "duration": 0.272727500000002,
          "durationTicks": 480,
          "midi": 66,
          "name": "F#4",
          "ticks": 112800,
          "time": 64.0909625,
          "velocity": 1
        },
        {
          "duration": 0.545455000000004,
          "durationTicks": 960,
          "midi": 66,
          "name": "F#4",
          "ticks": 113280,
          "time": 64.36369,
          "velocity": 1
        },
        {
          "duration": 0.5454549999999898,
          "durationTicks": 960,
          "midi": 68,
          "name": "G#4",
          "ticks": 114240,
          "time": 64.90914500000001,
          "velocity": 1
        },
        {
          "duration": 0.545455000000004,
          "durationTicks": 960,
          "midi": 64,
          "name": "E4",
          "ticks": 115200,
          "time": 65.4546,
          "velocity": 1
        },
        {
          "duration": 0.272727500000002,
          "durationTicks": 480,
          "midi": 66,
          "name": "F#4",
          "ticks": 116160,
          "time": 66.000055,
          "velocity": 1
        },
        {
          "duration": 0.272727500000002,
          "durationTicks": 480,
          "midi": 66,
          "name": "F#4",
          "ticks": 116640,
          "time": 66.2727825,
          "velocity": 1
        },
        {
          "duration": 0.5454549999999898,
          "durationTicks": 960,
          "midi": 66,
          "name": "F#4",
          "ticks": 117120,
          "time": 66.54551000000001,
          "velocity": 1
        },
        {
          "duration": 0.545455000000004,
          "durationTicks": 960,
          "midi": 64,
          "name": "E4",
          "ticks": 118080,
          "time": 67.090965,
          "velocity": 1
        },
        {
          "duration": 0.545455000000004,
          "durationTicks": 960,
          "midi": 66,
          "name": "F#4",
          "ticks": 119040,
          "time": 67.63642,
          "velocity": 1
        },
        {
          "duration": 0.272727500000002,
          "durationTicks": 480,
          "midi": 66,
          "name": "F#4",
          "ticks": 120000,
          "time": 68.181875,
          "velocity": 1
        },
        {
          "duration": 0.272727500000002,
          "durationTicks": 480,
          "midi": 66,
          "name": "F#4",
          "ticks": 120480,
          "time": 68.45460250000001,
          "velocity": 1
        },
        {
          "duration": 0.5454549999999898,
          "durationTicks": 960,
          "midi": 66,
          "name": "F#4",
          "ticks": 120960,
          "time": 68.72733000000001,
          "velocity": 1
        },
        {
          "duration": 0.545455000000004,
          "durationTicks": 960,
          "midi": 64,
          "name": "E4",
          "ticks": 121920,
          "time": 69.272785,
          "velocity": 1
        },
        {
          "duration": 0.545455000000004,
          "durationTicks": 960,
          "midi": 66,
          "name": "F#4",
          "ticks": 122880,
          "time": 69.81824,
          "velocity": 1
        },
        {
          "duration": 0.272727500000002,
          "durationTicks": 480,
          "midi": 66,
          "name": "F#4",
          "ticks": 123840,
          "time": 70.363695,
          "velocity": 1
        },
        {
          "duration": 0.2727274999999878,
          "durationTicks": 480,
          "midi": 66,
          "name": "F#4",
          "ticks": 124320,
          "time": 70.63642250000001,
          "velocity": 1
        },
        {
          "duration": 0.272727500000002,
          "durationTicks": 480,
          "midi": 66,
          "name": "F#4",
          "ticks": 124800,
          "time": 70.90915,
          "velocity": 1
        },
        {
          "duration": 0.272727500000002,
          "durationTicks": 480,
          "midi": 66,
          "name": "F#4",
          "ticks": 125280,
          "time": 71.1818775,
          "velocity": 1
        },
        {
          "duration": 0.272727500000002,
          "durationTicks": 480,
          "midi": 64,
          "name": "E4",
          "ticks": 125760,
          "time": 71.454605,
          "velocity": 1
        },
        {
          "duration": 0.545455000000004,
          "durationTicks": 960,
          "midi": 66,
          "name": "F#4",
          "ticks": 126240,
          "time": 71.7273325,
          "velocity": 1
        },
        {
          "duration": 0.272727500000002,
          "durationTicks": 480,
          "midi": 64,
          "name": "E4",
          "ticks": 127200,
          "time": 72.2727875,
          "velocity": 1
        },
        {
          "duration": 0.2727274999999878,
          "durationTicks": 480,
          "midi": 64,
          "name": "E4",
          "ticks": 127680,
          "time": 72.54551500000001,
          "velocity": 1
        },
        {
          "duration": 1.090910000000008,
          "durationTicks": 1920,
          "midi": 64,
          "name": "E4",
          "ticks": 128160,
          "time": 72.8182425,
          "velocity": 1
        },
        {
          "duration": 0.272727500000002,
          "durationTicks": 480,
          "midi": 66,
          "name": "F#4",
          "ticks": 130560,
          "time": 74.18188,
          "velocity": 1
        },
        {
          "duration": 0.2727274999999878,
          "durationTicks": 480,
          "midi": 64,
          "name": "E4",
          "ticks": 131040,
          "time": 74.45460750000001,
          "velocity": 1
        },
        {
          "duration": 0.272727500000002,
          "durationTicks": 480,
          "midi": 64,
          "name": "E4",
          "ticks": 131520,
          "time": 74.727335,
          "velocity": 1
        },
        {
          "duration": 0.545455000000004,
          "durationTicks": 960,
          "midi": 64,
          "name": "E4",
          "ticks": 132000,
          "time": 75.0000625,
          "velocity": 1
        },
        {
          "duration": 0.545455000000004,
          "durationTicks": 960,
          "midi": 61,
          "name": "C#4",
          "ticks": 132960,
          "time": 75.5455175,
          "velocity": 1
        },
        {
          "duration": 0.272727500000002,
          "durationTicks": 480,
          "midi": 61,
          "name": "C#4",
          "ticks": 133920,
          "time": 76.0909725,
          "velocity": 1
        },
        {
          "duration": 0.2727274999999878,
          "durationTicks": 480,
          "midi": 62,
          "name": "D4",
          "ticks": 134400,
          "time": 76.36370000000001,
          "velocity": 1
        },
        {
          "duration": 0.545455000000004,
          "durationTicks": 960,
          "midi": 61,
          "name": "C#4",
          "ticks": 134880,
          "time": 76.6364275,
          "velocity": 1
        },
        {
          "duration": 0.545455000000004,
          "durationTicks": 960,
          "midi": 59,
          "name": "B3",
          "ticks": 135840,
          "time": 77.1818825,
          "velocity": 1
        },
        {
          "duration": 0.545455000000004,
          "durationTicks": 960,
          "midi": 61,
          "name": "C#4",
          "ticks": 136800,
          "time": 77.7273375,
          "velocity": 1
        },
        {
          "duration": 0.5454549999999898,
          "durationTicks": 960,
          "midi": 61,
          "name": "C#4",
          "ticks": 137760,
          "time": 78.27279250000001,
          "velocity": 1
        },
        {
          "duration": 0.272727500000002,
          "durationTicks": 480,
          "midi": 54,
          "name": "F#3",
          "ticks": 138720,
          "time": 78.8182475,
          "velocity": 1
        },
        {
          "duration": 0.272727500000002,
          "durationTicks": 480,
          "midi": 61,
          "name": "C#4",
          "ticks": 139200,
          "time": 79.090975,
          "velocity": 1
        },
        {
          "duration": 0.272727500000002,
          "durationTicks": 480,
          "midi": 61,
          "name": "C#4",
          "ticks": 139680,
          "time": 79.3637025,
          "velocity": 1
        },
        {
          "duration": 0.272727500000002,
          "durationTicks": 480,
          "midi": 61,
          "name": "C#4",
          "ticks": 140160,
          "time": 79.63643,
          "velocity": 1
        },
        {
          "duration": 0.272727500000002,
          "durationTicks": 480,
          "midi": 61,
          "name": "C#4",
          "ticks": 140640,
          "time": 79.9091575,
          "velocity": 1
        },
        {
          "duration": 0.272727500000002,
          "durationTicks": 480,
          "midi": 62,
          "name": "D4",
          "ticks": 141120,
          "time": 80.18188500000001,
          "velocity": 1
        },
        {
          "duration": 0.5454549999999898,
          "durationTicks": 960,
          "midi": 61,
          "name": "C#4",
          "ticks": 141600,
          "time": 80.45461250000001,
          "velocity": 1
        },
        {
          "duration": 0.272727500000002,
          "durationTicks": 480,
          "midi": 61,
          "name": "C#4",
          "ticks": 142560,
          "time": 81.0000675,
          "velocity": 1
        },
        {
          "duration": 0.272727500000002,
          "durationTicks": 480,
          "midi": 59,
          "name": "B3",
          "ticks": 143040,
          "time": 81.272795,
          "velocity": 1
        },
        {
          "duration": 1.0909099999999938,
          "durationTicks": 1920,
          "midi": 57,
          "name": "A3",
          "ticks": 143520,
          "time": 81.5455225,
          "velocity": 1
        },
        {
          "duration": 0.272727500000002,
          "durationTicks": 480,
          "midi": 54,
          "name": "F#3",
          "ticks": 145440,
          "time": 82.6364325,
          "velocity": 1
        },
        {
          "duration": 0.272727500000002,
          "durationTicks": 480,
          "midi": 61,
          "name": "C#4",
          "ticks": 145920,
          "time": 82.90916,
          "velocity": 1
        },
        {
          "duration": 0.272727500000002,
          "durationTicks": 480,
          "midi": 61,
          "name": "C#4",
          "ticks": 146400,
          "time": 83.1818875,
          "velocity": 1
        },
        {
          "duration": 0.272727500000002,
          "durationTicks": 480,
          "midi": 59,
          "name": "B3",
          "ticks": 146880,
          "time": 83.454615,
          "velocity": 1
        },
        {
          "duration": 1.0909099999999938,
          "durationTicks": 1920,
          "midi": 57,
          "name": "A3",
          "ticks": 147360,
          "time": 83.7273425,
          "velocity": 1
        },
        {
          "duration": 0.545455000000004,
          "durationTicks": 960,
          "midi": 61,
          "name": "C#4",
          "ticks": 149280,
          "time": 84.8182525,
          "velocity": 1
        },
        {
          "duration": 0.545455000000004,
          "durationTicks": 960,
          "midi": 59,
          "name": "B3",
          "ticks": 150240,
          "time": 85.3637075,
          "velocity": 1
        },
        {
          "duration": 0.5454549999999898,
          "durationTicks": 960,
          "midi": 57,
          "name": "A3",
          "ticks": 151200,
          "time": 85.90916250000001,
          "velocity": 1
        },
        {
          "duration": 0.545455000000004,
          "durationTicks": 960,
          "midi": 59,
          "name": "B3",
          "ticks": 152160,
          "time": 86.4546175,
          "velocity": 1
        },
        {
          "duration": 0.272727500000002,
          "durationTicks": 480,
          "midi": 59,
          "name": "B3",
          "ticks": 153120,
          "time": 87.0000725,
          "velocity": 1
        },
        {
          "duration": 2.181820000000002,
          "durationTicks": 3840,
          "midi": 61,
          "name": "C#4",
          "ticks": 153600,
          "time": 87.2728,
          "velocity": 1
        },
        {
          "duration": 0.272727500000002,
          "durationTicks": 480,
          "midi": 61,
          "name": "C#4",
          "ticks": 160320,
          "time": 91.090985,
          "velocity": 1
        },
        {
          "duration": 0.272727500000002,
          "durationTicks": 480,
          "midi": 61,
          "name": "C#4",
          "ticks": 160800,
          "time": 91.3637125,
          "velocity": 1
        },
        {
          "duration": 0.272727500000002,
          "durationTicks": 480,
          "midi": 66,
          "name": "F#4",
          "ticks": 161280,
          "time": 91.63644000000001,
          "velocity": 1
        },
        {
          "duration": 0.2727274999999878,
          "durationTicks": 480,
          "midi": 66,
          "name": "F#4",
          "ticks": 161760,
          "time": 91.90916750000001,
          "velocity": 1
        },
        {
          "duration": 0.272727500000002,
          "durationTicks": 480,
          "midi": 64,
          "name": "E4",
          "ticks": 162240,
          "time": 92.181895,
          "velocity": 1
        },
        {
          "duration": 0.545455000000004,
          "durationTicks": 960,
          "midi": 61,
          "name": "C#4",
          "ticks": 162720,
          "time": 92.4546225,
          "velocity": 1
        },
        {
          "duration": 0.272727500000002,
          "durationTicks": 480,
          "midi": 61,
          "name": "C#4",
          "ticks": 163680,
          "time": 93.0000775,
          "velocity": 1
        },
        {
          "duration": 0.272727500000002,
          "durationTicks": 480,
          "midi": 61,
          "name": "C#4",
          "ticks": 164160,
          "time": 93.272805,
          "velocity": 1
        },
        {
          "duration": 0.5454549999999898,
          "durationTicks": 960,
          "midi": 66,
          "name": "F#4",
          "ticks": 164640,
          "time": 93.54553250000001,
          "velocity": 1
        },
        {
          "duration": 0.272727500000002,
          "durationTicks": 480,
          "midi": 66,
          "name": "F#4",
          "ticks": 165600,
          "time": 94.0909875,
          "velocity": 1
        },
        {
          "duration": 0.272727500000002,
          "durationTicks": 480,
          "midi": 64,
          "name": "E4",
          "ticks": 166080,
          "time": 94.363715,
          "velocity": 1
        },
        {
          "duration": 0.545455000000004,
          "durationTicks": 960,
          "midi": 61,
          "name": "C#4",
          "ticks": 166560,
          "time": 94.6364425,
          "velocity": 1
        },
        {
          "duration": 0.545455000000004,
          "durationTicks": 960,
          "midi": 62,
          "name": "D4",
          "ticks": 167520,
          "time": 95.1818975,
          "velocity": 1
        },
        {
          "duration": 2.4545474999999897,
          "durationTicks": 4320,
          "midi": 64,
          "name": "E4",
          "ticks": 168480,
          "time": 95.72735250000001,
          "velocity": 1
        },
        {
          "duration": 0.272727500000002,
          "durationTicks": 480,
          "midi": 61,
          "name": "C#4",
          "ticks": 175200,
          "time": 99.54553750000001,
          "velocity": 1
        },
        {
          "duration": 0.2727274999999878,
          "durationTicks": 480,
          "midi": 61,
          "name": "C#4",
          "ticks": 175680,
          "time": 99.81826500000001,
          "velocity": 1
        },
        {
          "duration": 0.272727500000002,
          "durationTicks": 480,
          "midi": 61,
          "name": "C#4",
          "ticks": 176160,
          "time": 100.0909925,
          "velocity": 1
        },
        {
          "duration": 0.272727500000002,
          "durationTicks": 480,
          "midi": 66,
          "name": "F#4",
          "ticks": 176640,
          "time": 100.36372,
          "velocity": 1
        },
        {
          "duration": 0.272727500000002,
          "durationTicks": 480,
          "midi": 66,
          "name": "F#4",
          "ticks": 177120,
          "time": 100.6364475,
          "velocity": 1
        },
        {
          "duration": 0.272727500000002,
          "durationTicks": 480,
          "midi": 64,
          "name": "E4",
          "ticks": 177600,
          "time": 100.909175,
          "velocity": 1
        },
        {
          "duration": 0.545455000000004,
          "durationTicks": 960,
          "midi": 61,
          "name": "C#4",
          "ticks": 178080,
          "time": 101.1819025,
          "velocity": 1
        },
        {
          "duration": 0.2727274999999878,
          "durationTicks": 480,
          "midi": 61,
          "name": "C#4",
          "ticks": 179040,
          "time": 101.72735750000001,
          "velocity": 1
        },
        {
          "duration": 0.272727500000002,
          "durationTicks": 480,
          "midi": 61,
          "name": "C#4",
          "ticks": 179520,
          "time": 102.000085,
          "velocity": 1
        },
        {
          "duration": 0.272727500000002,
          "durationTicks": 480,
          "midi": 61,
          "name": "C#4",
          "ticks": 180000,
          "time": 102.2728125,
          "velocity": 1
        },
        {
          "duration": 0.272727500000002,
          "durationTicks": 480,
          "midi": 69,
          "name": "A4",
          "ticks": 180480,
          "time": 102.54554,
          "velocity": 1
        },
        {
          "duration": 0.545455000000004,
          "durationTicks": 960,
          "midi": 68,
          "name": "G#4",
          "ticks": 180960,
          "time": 102.8182675,
          "velocity": 1
        },
        {
          "duration": 0.8181824999999918,
          "durationTicks": 1440,
          "midi": 69,
          "name": "A4",
          "ticks": 181920,
          "time": 103.36372250000001,
          "velocity": 1
        },
        {
          "duration": 0.545455000000004,
          "durationTicks": 960,
          "midi": 68,
          "name": "G#4",
          "ticks": 183360,
          "time": 104.181905,
          "velocity": 1
        },
        {
          "duration": 0.818182500000006,
          "durationTicks": 1440,
          "midi": 66,
          "name": "F#4",
          "ticks": 184320,
          "time": 104.72736,
          "velocity": 1
        },
        {
          "duration": 0.2727274999999878,
          "durationTicks": 480,
          "midi": 66,
          "name": "F#4",
          "ticks": 185760,
          "time": 105.54554250000001,
          "velocity": 1
        },
        {
          "duration": 0.545455000000004,
          "durationTicks": 960,
          "midi": 66,
          "name": "F#4",
          "ticks": 186240,
          "time": 105.81827,
          "velocity": 1
        },
        {
          "duration": 0.272727500000002,
          "durationTicks": 480,
          "midi": 64,
          "name": "E4",
          "ticks": 187200,
          "time": 106.363725,
          "velocity": 1
        },
        {
          "duration": 0.272727500000002,
          "durationTicks": 480,
          "midi": 66,
          "name": "F#4",
          "ticks": 187680,
          "time": 106.6364525,
          "velocity": 1
        },
        {
          "duration": 0.545455000000004,
          "durationTicks": 960,
          "midi": 66,
          "name": "F#4",
          "ticks": 188160,
          "time": 106.90918,
          "velocity": 1
        },
        {
          "duration": 0.2727274999999878,
          "durationTicks": 480,
          "midi": 66,
          "name": "F#4",
          "ticks": 189120,
          "time": 107.45463500000001,
          "velocity": 1
        },
        {
          "duration": 0.272727500000002,
          "durationTicks": 480,
          "midi": 66,
          "name": "F#4",
          "ticks": 189600,
          "time": 107.7273625,
          "velocity": 1
        },
        {
          "duration": 0.545455000000004,
          "durationTicks": 960,
          "midi": 66,
          "name": "F#4",
          "ticks": 190080,
          "time": 108.00009,
          "velocity": 1
        },
        {
          "duration": 0.545455000000004,
          "durationTicks": 960,
          "midi": 68,
          "name": "G#4",
          "ticks": 191040,
          "time": 108.545545,
          "velocity": 1
        },
        {
          "duration": 0.8181824999999918,
          "durationTicks": 1440,
          "midi": 64,
          "name": "E4",
          "ticks": 192000,
          "time": 109.09100000000001,
          "velocity": 1
        },
        {
          "duration": 0.272727500000002,
          "durationTicks": 480,
          "midi": 66,
          "name": "F#4",
          "ticks": 193440,
          "time": 109.9091825,
          "velocity": 1
        },
        {
          "duration": 0.545455000000004,
          "durationTicks": 960,
          "midi": 66,
          "name": "F#4",
          "ticks": 193920,
          "time": 110.18191,
          "velocity": 1
        },
        {
          "duration": 0.272727500000002,
          "durationTicks": 480,
          "midi": 64,
          "name": "E4",
          "ticks": 194880,
          "time": 110.727365,
          "velocity": 1
        },
        {
          "duration": 0.272727500000002,
          "durationTicks": 480,
          "midi": 66,
          "name": "F#4",
          "ticks": 195360,
          "time": 111.00009250000001,
          "velocity": 1
        },
        {
          "duration": 0.2727274999999878,
          "durationTicks": 480,
          "midi": 66,
          "name": "F#4",
          "ticks": 195840,
          "time": 111.27282000000001,
          "velocity": 1
        },
        {
          "duration": 0.272727500000002,
          "durationTicks": 480,
          "midi": 66,
          "name": "F#4",
          "ticks": 196320,
          "time": 111.5455475,
          "velocity": 1
        },
        {
          "duration": 0.272727500000002,
          "durationTicks": 480,
          "midi": 66,
          "name": "F#4",
          "ticks": 196800,
          "time": 111.818275,
          "velocity": 1
        },
        {
          "duration": 0.272727500000002,
          "durationTicks": 480,
          "midi": 66,
          "name": "F#4",
          "ticks": 197280,
          "time": 112.0910025,
          "velocity": 1
        },
        {
          "duration": 0.545455000000004,
          "durationTicks": 960,
          "midi": 66,
          "name": "F#4",
          "ticks": 197760,
          "time": 112.36373,
          "velocity": 1
        },
        {
          "duration": 0.545455000000004,
          "durationTicks": 960,
          "midi": 64,
          "name": "E4",
          "ticks": 198720,
          "time": 112.90918500000001,
          "velocity": 1
        },
        {
          "duration": 0.5454549999999898,
          "durationTicks": 960,
          "midi": 66,
          "name": "F#4",
          "ticks": 199680,
          "time": 113.45464000000001,
          "velocity": 1
        },
        {
          "duration": 0.272727500000002,
          "durationTicks": 480,
          "midi": 66,
          "name": "F#4",
          "ticks": 200640,
          "time": 114.000095,
          "velocity": 1
        },
        {
          "duration": 0.272727500000002,
          "durationTicks": 480,
          "midi": 66,
          "name": "F#4",
          "ticks": 201120,
          "time": 114.2728225,
          "velocity": 1
        },
        {
          "duration": 0.545455000000004,
          "durationTicks": 960,
          "midi": 66,
          "name": "F#4",
          "ticks": 201600,
          "time": 114.54555,
          "velocity": 1
        },
        {
          "duration": 0.5454549999999898,
          "durationTicks": 960,
          "midi": 64,
          "name": "E4",
          "ticks": 202560,
          "time": 115.09100500000001,
          "velocity": 1
        },
        {
          "duration": 0.545455000000004,
          "durationTicks": 960,
          "midi": 66,
          "name": "F#4",
          "ticks": 203520,
          "time": 115.63646,
          "velocity": 1
        },
        {
          "duration": 0.272727500000002,
          "durationTicks": 480,
          "midi": 66,
          "name": "F#4",
          "ticks": 204480,
          "time": 116.181915,
          "velocity": 1
        },
        {
          "duration": 0.272727500000002,
          "durationTicks": 480,
          "midi": 66,
          "name": "F#4",
          "ticks": 204960,
          "time": 116.4546425,
          "velocity": 1
        },
        {
          "duration": 0.545455000000004,
          "durationTicks": 960,
          "midi": 66,
          "name": "F#4",
          "ticks": 205440,
          "time": 116.72737000000001,
          "velocity": 1
        },
        {
          "duration": 0.5454549999999898,
          "durationTicks": 960,
          "midi": 68,
          "name": "G#4",
          "ticks": 206400,
          "time": 117.27282500000001,
          "velocity": 1
        },
        {
          "duration": 0.545455000000004,
          "durationTicks": 960,
          "midi": 64,
          "name": "E4",
          "ticks": 207360,
          "time": 117.81828,
          "velocity": 1
        },
        {
          "duration": 0.272727500000002,
          "durationTicks": 480,
          "midi": 66,
          "name": "F#4",
          "ticks": 208320,
          "time": 118.363735,
          "velocity": 1
        },
        {
          "duration": 0.272727500000002,
          "durationTicks": 480,
          "midi": 66,
          "name": "F#4",
          "ticks": 208800,
          "time": 118.63646250000001,
          "velocity": 1
        },
        {
          "duration": 0.5454549999999898,
          "durationTicks": 960,
          "midi": 66,
          "name": "F#4",
          "ticks": 209280,
          "time": 118.90919000000001,
          "velocity": 1
        },
        {
          "duration": 0.545455000000004,
          "durationTicks": 960,
          "midi": 64,
          "name": "E4",
          "ticks": 210240,
          "time": 119.454645,
          "velocity": 1
        },
        {
          "duration": 0.545455000000004,
          "durationTicks": 960,
          "midi": 66,
          "name": "F#4",
          "ticks": 211200,
          "time": 120.0001,
          "velocity": 1
        },
        {
          "duration": 0.272727500000002,
          "durationTicks": 480,
          "midi": 66,
          "name": "F#4",
          "ticks": 212160,
          "time": 120.54555500000001,
          "velocity": 1
        },
        {
          "duration": 0.272727500000002,
          "durationTicks": 480,
          "midi": 66,
          "name": "F#4",
          "ticks": 212640,
          "time": 120.81828250000001,
          "velocity": 1
        },
        {
          "duration": 0.5454549999999898,
          "durationTicks": 960,
          "midi": 66,
          "name": "F#4",
          "ticks": 213120,
          "time": 121.09101000000001,
          "velocity": 1
        },
        {
          "duration": 0.545455000000004,
          "durationTicks": 960,
          "midi": 64,
          "name": "E4",
          "ticks": 214080,
          "time": 121.636465,
          "velocity": 1
        },
        {
          "duration": 1.0909099999999938,
          "durationTicks": 1920,
          "midi": 66,
          "name": "F#4",
          "ticks": 215040,
          "time": 122.18192,
          "velocity": 1
        },
        {
          "duration": 0.272727500000002,
          "durationTicks": 480,
          "midi": 66,
          "name": "F#4",
          "ticks": 217440,
          "time": 123.5455575,
          "velocity": 1
        },
        {
          "duration": 0.272727500000002,
          "durationTicks": 480,
          "midi": 69,
          "name": "A4",
          "ticks": 217920,
          "time": 123.818285,
          "velocity": 1
        },
        {
          "duration": 1.6363649999999978,
          "durationTicks": 2880,
          "midi": 68,
          "name": "G#4",
          "ticks": 218400,
          "time": 124.0910125,
          "velocity": 1
        },
        {
          "duration": 0.272727500000002,
          "durationTicks": 480,
          "midi": 66,
          "name": "F#4",
          "ticks": 221280,
          "time": 125.7273775,
          "velocity": 1
        },
        {
          "duration": 0.545455000000004,
          "durationTicks": 960,
          "midi": 68,
          "name": "G#4",
          "ticks": 221760,
          "time": 126.000105,
          "velocity": 1
        },
        {
          "duration": 1.0909099999999938,
          "durationTicks": 1920,
          "midi": 69,
          "name": "A4",
          "ticks": 222720,
          "time": 126.54556000000001,
          "velocity": 1
        },
        {
          "duration": 1.090910000000008,
          "durationTicks": 1920,
          "midi": 68,
          "name": "G#4",
          "ticks": 224640,
          "time": 127.63647,
          "velocity": 1
        },
        {
          "duration": 1.090910000000008,
          "durationTicks": 1920,
          "midi": 69,
          "name": "A4",
          "ticks": 226560,
          "time": 128.72738,
          "velocity": 1
        },
        {
          "duration": 1.0909099999999796,
          "durationTicks": 1920,
          "midi": 68,
          "name": "G#4",
          "ticks": 228480,
          "time": 129.81829000000002,
          "velocity": 1
        },
        {
          "duration": 1.090910000000008,
          "durationTicks": 1920,
          "midi": 66,
          "name": "F#4",
          "ticks": 230400,
          "time": 130.9092,
          "velocity": 1
        },
        {
          "duration": 0.272727500000002,
          "durationTicks": 480,
          "midi": 66,
          "name": "F#4",
          "ticks": 232800,
          "time": 132.2728375,
          "velocity": 1
        },
        {
          "duration": 0.272727500000002,
          "durationTicks": 480,
          "midi": 69,
          "name": "A4",
          "ticks": 233280,
          "time": 132.545565,
          "velocity": 1
        },
        {
          "duration": 1.6363649999999836,
          "durationTicks": 2880,
          "midi": 68,
          "name": "G#4",
          "ticks": 233760,
          "time": 132.8182925,
          "velocity": 1
        },
        {
          "duration": 0.272727500000002,
          "durationTicks": 480,
          "midi": 68,
          "name": "G#4",
          "ticks": 237120,
          "time": 134.727385,
          "velocity": 1
        },
        {
          "duration": 0.272727500000002,
          "durationTicks": 480,
          "midi": 66,
          "name": "F#4",
          "ticks": 237600,
          "time": 135.0001125,
          "velocity": 1
        },
        {
          "duration": 0.272727500000002,
          "durationTicks": 480,
          "midi": 68,
          "name": "G#4",
          "ticks": 238080,
          "time": 135.27284,
          "velocity": 1
        },
        {
          "duration": 0.545455000000004,
          "durationTicks": 960,
          "midi": 68,
          "name": "G#4",
          "ticks": 238560,
          "time": 135.5455675,
          "velocity": 1
        },
        {
          "duration": 0.545455000000004,
          "durationTicks": 960,
          "midi": 68,
          "name": "G#4",
          "ticks": 239520,
          "time": 136.0910225,
          "velocity": 1
        },
        {
          "duration": 0.272727500000002,
          "durationTicks": 480,
          "midi": 66,
          "name": "F#4",
          "ticks": 240480,
          "time": 136.6364775,
          "velocity": 1
        },
        {
          "duration": 0.272727500000002,
          "durationTicks": 480,
          "midi": 68,
          "name": "G#4",
          "ticks": 240960,
          "time": 136.90920500000001,
          "velocity": 1
        },
        {
          "duration": 0.272727500000002,
          "durationTicks": 480,
          "midi": 66,
          "name": "F#4",
          "ticks": 241440,
          "time": 137.18193250000002,
          "velocity": 1
        },
        {
          "duration": 0.2727274999999736,
          "durationTicks": 480,
          "midi": 68,
          "name": "G#4",
          "ticks": 241920,
          "time": 137.45466000000002,
          "velocity": 1
        },
        {
          "duration": 0.545455000000004,
          "durationTicks": 960,
          "midi": 68,
          "name": "G#4",
          "ticks": 242400,
          "time": 137.7273875,
          "velocity": 1
        },
        {
          "duration": 0.545455000000004,
          "durationTicks": 960,
          "midi": 68,
          "name": "G#4",
          "ticks": 243360,
          "time": 138.2728425,
          "velocity": 1
        },
        {
          "duration": 0.272727500000002,
          "durationTicks": 480,
          "midi": 66,
          "name": "F#4",
          "ticks": 244320,
          "time": 138.8182975,
          "velocity": 1
        },
        {
          "duration": 0.272727500000002,
          "durationTicks": 480,
          "midi": 69,
          "name": "A4",
          "ticks": 244800,
          "time": 139.091025,
          "velocity": 1
        },
        {
          "duration": 2.4545474999999897,
          "durationTicks": 4320,
          "midi": 68,
          "name": "G#4",
          "ticks": 245280,
          "time": 139.3637525,
          "velocity": 1
        },
        {
          "duration": 0.818182500000006,
          "durationTicks": 1440,
          "midi": 66,
          "name": "F#4",
          "ticks": 249600,
          "time": 141.8183,
          "velocity": 1
        },
        {
          "duration": 0.272727500000002,
          "durationTicks": 480,
          "midi": 66,
          "name": "F#4",
          "ticks": 251040,
          "time": 142.6364825,
          "velocity": 1
        },
        {
          "duration": 0.545455000000004,
          "durationTicks": 960,
          "midi": 66,
          "name": "F#4",
          "ticks": 251520,
          "time": 142.90921,
          "velocity": 1
        },
        {
          "duration": 0.272727500000002,
          "durationTicks": 480,
          "midi": 64,
          "name": "E4",
          "ticks": 252480,
          "time": 143.454665,
          "velocity": 1
        },
        {
          "duration": 0.272727500000002,
          "durationTicks": 480,
          "midi": 66,
          "name": "F#4",
          "ticks": 252960,
          "time": 143.7273925,
          "velocity": 1
        },
        {
          "duration": 0.545455000000004,
          "durationTicks": 960,
          "midi": 66,
          "name": "F#4",
          "ticks": 253440,
          "time": 144.00012,
          "velocity": 1
        },
        {
          "duration": 0.272727500000002,
          "durationTicks": 480,
          "midi": 66,
          "name": "F#4",
          "ticks": 254400,
          "time": 144.545575,
          "velocity": 1
        },
        {
          "duration": 0.272727500000002,
          "durationTicks": 480,
          "midi": 66,
          "name": "F#4",
          "ticks": 254880,
          "time": 144.81830250000002,
          "velocity": 1
        },
        {
          "duration": 0.5454549999999756,
          "durationTicks": 960,
          "midi": 66,
          "name": "F#4",
          "ticks": 255360,
          "time": 145.09103000000002,
          "velocity": 1
        },
        {
          "duration": 0.545455000000004,
          "durationTicks": 960,
          "midi": 68,
          "name": "G#4",
          "ticks": 256320,
          "time": 145.636485,
          "velocity": 1
        },
        {
          "duration": 0.818182500000006,
          "durationTicks": 1440,
          "midi": 64,
          "name": "E4",
          "ticks": 257280,
          "time": 146.18194,
          "velocity": 1
        },
        {
          "duration": 0.272727500000002,
          "durationTicks": 480,
          "midi": 66,
          "name": "F#4",
          "ticks": 258720,
          "time": 147.0001225,
          "velocity": 1
        },
        {
          "duration": 0.545455000000004,
          "durationTicks": 960,
          "midi": 66,
          "name": "F#4",
          "ticks": 259200,
          "time": 147.27285,
          "velocity": 1
        },
        {
          "duration": 0.272727500000002,
          "durationTicks": 480,
          "midi": 64,
          "name": "E4",
          "ticks": 260160,
          "time": 147.818305,
          "velocity": 1
        },
        {
          "duration": 0.272727500000002,
          "durationTicks": 480,
          "midi": 66,
          "name": "F#4",
          "ticks": 260640,
          "time": 148.0910325,
          "velocity": 1
        },
        {
          "duration": 0.272727500000002,
          "durationTicks": 480,
          "midi": 66,
          "name": "F#4",
          "ticks": 261120,
          "time": 148.36376,
          "velocity": 1
        },
        {
          "duration": 0.272727500000002,
          "durationTicks": 480,
          "midi": 66,
          "name": "F#4",
          "ticks": 261600,
          "time": 148.63648750000002,
          "velocity": 1
        },
        {
          "duration": 0.272727500000002,
          "durationTicks": 480,
          "midi": 66,
          "name": "F#4",
          "ticks": 262080,
          "time": 148.90921500000002,
          "velocity": 1
        },
        {
          "duration": 0.2727274999999736,
          "durationTicks": 480,
          "midi": 66,
          "name": "F#4",
          "ticks": 262560,
          "time": 149.18194250000002,
          "velocity": 1
        },
        {
          "duration": 0.545455000000004,
          "durationTicks": 960,
          "midi": 66,
          "name": "F#4",
          "ticks": 263040,
          "time": 149.45467,
          "velocity": 1
        },
        {
          "duration": 0.545455000000004,
          "durationTicks": 960,
          "midi": 64,
          "name": "E4",
          "ticks": 264000,
          "time": 150.000125,
          "velocity": 1
        },
        {
          "duration": 0.545455000000004,
          "durationTicks": 960,
          "midi": 66,
          "name": "F#4",
          "ticks": 264960,
          "time": 150.54558,
          "velocity": 1
        },
        {
          "duration": 0.272727500000002,
          "durationTicks": 480,
          "midi": 66,
          "name": "F#4",
          "ticks": 265920,
          "time": 151.091035,
          "velocity": 1
        },
        {
          "duration": 0.272727500000002,
          "durationTicks": 480,
          "midi": 66,
          "name": "F#4",
          "ticks": 266400,
          "time": 151.3637625,
          "velocity": 1
        },
        {
          "duration": 0.545455000000004,
          "durationTicks": 960,
          "midi": 66,
          "name": "F#4",
          "ticks": 266880,
          "time": 151.63649,
          "velocity": 1
        },
        {
          "duration": 0.545455000000004,
          "durationTicks": 960,
          "midi": 64,
          "name": "E4",
          "ticks": 267840,
          "time": 152.181945,
          "velocity": 1
        },
        {
          "duration": 0.5454549999999756,
          "durationTicks": 960,
          "midi": 66,
          "name": "F#4",
          "ticks": 268800,
          "time": 152.72740000000002,
          "velocity": 1
        },
        {
          "duration": 0.272727500000002,
          "durationTicks": 480,
          "midi": 66,
          "name": "F#4",
          "ticks": 269760,
          "time": 153.272855,
          "velocity": 1
        },
        {
          "duration": 0.272727500000002,
          "durationTicks": 480,
          "midi": 66,
          "name": "F#4",
          "ticks": 270240,
          "time": 153.5455825,
          "velocity": 1
        },
        {
          "duration": 0.545455000000004,
          "durationTicks": 960,
          "midi": 66,
          "name": "F#4",
          "ticks": 270720,
          "time": 153.81831,
          "velocity": 1
        },
        {
          "duration": 0.545455000000004,
          "durationTicks": 960,
          "midi": 68,
          "name": "G#4",
          "ticks": 271680,
          "time": 154.363765,
          "velocity": 1
        },
        {
          "duration": 0.545455000000004,
          "durationTicks": 960,
          "midi": 64,
          "name": "E4",
          "ticks": 272640,
          "time": 154.90922,
          "velocity": 1
        },
        {
          "duration": 0.272727500000002,
          "durationTicks": 480,
          "midi": 66,
          "name": "F#4",
          "ticks": 273600,
          "time": 155.454675,
          "velocity": 1
        },
        {
          "duration": 0.272727500000002,
          "durationTicks": 480,
          "midi": 66,
          "name": "F#4",
          "ticks": 274080,
          "time": 155.7274025,
          "velocity": 1
        },
        {
          "duration": 0.545455000000004,
          "durationTicks": 960,
          "midi": 66,
          "name": "F#4",
          "ticks": 274560,
          "time": 156.00013,
          "velocity": 1
        },
        {
          "duration": 0.545455000000004,
          "durationTicks": 960,
          "midi": 64,
          "name": "E4",
          "ticks": 275520,
          "time": 156.54558500000002,
          "velocity": 1
        },
        {
          "duration": 0.5454549999999756,
          "durationTicks": 960,
          "midi": 66,
          "name": "F#4",
          "ticks": 276480,
          "time": 157.09104000000002,
          "velocity": 1
        },
        {
          "duration": 0.272727500000002,
          "durationTicks": 480,
          "midi": 66,
          "name": "F#4",
          "ticks": 277440,
          "time": 157.636495,
          "velocity": 1
        },
        {
          "duration": 0.272727500000002,
          "durationTicks": 480,
          "midi": 66,
          "name": "F#4",
          "ticks": 277920,
          "time": 157.9092225,
          "velocity": 1
        },
        {
          "duration": 0.545455000000004,
          "durationTicks": 960,
          "midi": 66,
          "name": "F#4",
          "ticks": 278400,
          "time": 158.18195,
          "velocity": 1
        },
        {
          "duration": 0.545455000000004,
          "durationTicks": 960,
          "midi": 64,
          "name": "E4",
          "ticks": 279360,
          "time": 158.727405,
          "velocity": 1
        },
        {
          "duration": 0.818182500000006,
          "durationTicks": 1440,
          "midi": 66,
          "name": "F#4",
          "ticks": 280320,
          "time": 159.27286,
          "velocity": 1
        },
        {
          "duration": 0.272727500000002,
          "durationTicks": 480,
          "midi": 66,
          "name": "F#4",
          "ticks": 281760,
          "time": 160.09104250000001,
          "velocity": 1
        },
        {
          "duration": 0.545455000000004,
          "durationTicks": 960,
          "midi": 66,
          "name": "F#4",
          "ticks": 282240,
          "time": 160.36377000000002,
          "velocity": 1
        },
        {
          "duration": 0.2727274999999736,
          "durationTicks": 480,
          "midi": 64,
          "name": "E4",
          "ticks": 283200,
          "time": 160.90922500000002,
          "velocity": 1
        },
        {
          "duration": 0.272727500000002,
          "durationTicks": 480,
          "midi": 66,
          "name": "F#4",
          "ticks": 283680,
          "time": 161.1819525,
          "velocity": 1
        },
        {
          "duration": 0.545455000000004,
          "durationTicks": 960,
          "midi": 66,
          "name": "F#4",
          "ticks": 284160,
          "time": 161.45468,
          "velocity": 1
        },
        {
          "duration": 0.272727500000002,
          "durationTicks": 480,
          "midi": 66,
          "name": "F#4",
          "ticks": 285120,
          "time": 162.000135,
          "velocity": 1
        },
        {
          "duration": 0.272727500000002,
          "durationTicks": 480,
          "midi": 66,
          "name": "F#4",
          "ticks": 285600,
          "time": 162.2728625,
          "velocity": 1
        },
        {
          "duration": 0.545455000000004,
          "durationTicks": 960,
          "midi": 66,
          "name": "F#4",
          "ticks": 286080,
          "time": 162.54559,
          "velocity": 1
        },
        {
          "duration": 0.545455000000004,
          "durationTicks": 960,
          "midi": 68,
          "name": "G#4",
          "ticks": 287040,
          "time": 163.091045,
          "velocity": 1
        },
        {
          "duration": 2.1818199999999877,
          "durationTicks": 3840,
          "midi": 64,
          "name": "E4",
          "ticks": 288000,
          "time": 163.6365,
          "velocity": 1
        },
        {
          "duration": 0.272727500000002,
          "durationTicks": 480,
          "midi": 61,
          "name": "C#4",
          "ticks": 288960,
          "time": 164.18195500000002,
          "velocity": 1
        },
        {
          "duration": 0.272727500000002,
          "durationTicks": 480,
          "midi": 61,
          "name": "C#4",
          "ticks": 289440,
          "time": 164.45468250000002,
          "velocity": 1
        },
        {
          "duration": 0.2727274999999736,
          "durationTicks": 480,
          "midi": 61,
          "name": "C#4",
          "ticks": 289920,
          "time": 164.72741000000002,
          "velocity": 1
        },
        {
          "duration": 0.272727500000002,
          "durationTicks": 480,
          "midi": 61,
          "name": "C#4",
          "ticks": 290400,
          "time": 165.0001375,
          "velocity": 1
        },
        {
          "duration": 0.272727500000002,
          "durationTicks": 480,
          "midi": 62,
          "name": "D4",
          "ticks": 290880,
          "time": 165.272865,
          "velocity": 1
        },
        {
          "duration": 0.545455000000004,
          "durationTicks": 960,
          "midi": 61,
          "name": "C#4",
          "ticks": 291360,
          "time": 165.5455925,
          "velocity": 1
        },
        {
          "duration": 0.272727500000002,
          "durationTicks": 480,
          "midi": 61,
          "name": "C#4",
          "ticks": 292320,
          "time": 166.0910475,
          "velocity": 1
        },
        {
          "duration": 0.272727500000002,
          "durationTicks": 480,
          "midi": 59,
          "name": "B3",
          "ticks": 292800,
          "time": 166.363775,
          "velocity": 1
        },
        {
          "duration": 1.090910000000008,
          "durationTicks": 1920,
          "midi": 57,
          "name": "A3",
          "ticks": 293280,
          "time": 166.6365025,
          "velocity": 1
        },
        {
          "duration": 0.8181824999999776,
          "durationTicks": 1440,
          "midi": 66,
          "name": "F#4",
          "ticks": 295680,
          "time": 168.00014000000002,
          "velocity": 1
        },
        {
          "duration": 0.272727500000002,
          "durationTicks": 480,
          "midi": 66,
          "name": "F#4",
          "ticks": 297120,
          "time": 168.8183225,
          "velocity": 1
        },
        {
          "duration": 0.545455000000004,
          "durationTicks": 960,
          "midi": 66,
          "name": "F#4",
          "ticks": 297600,
          "time": 169.09105,
          "velocity": 1
        },
        {
          "duration": 0.272727500000002,
          "durationTicks": 480,
          "midi": 64,
          "name": "E4",
          "ticks": 298560,
          "time": 169.636505,
          "velocity": 1
        },
        {
          "duration": 0.272727500000002,
          "durationTicks": 480,
          "midi": 66,
          "name": "F#4",
          "ticks": 299040,
          "time": 169.9092325,
          "velocity": 1
        },
        {
          "duration": 0.545455000000004,
          "durationTicks": 960,
          "midi": 66,
          "name": "F#4",
          "ticks": 299520,
          "time": 170.18196,
          "velocity": 1
        },
        {
          "duration": 0.272727500000002,
          "durationTicks": 480,
          "midi": 66,
          "name": "F#4",
          "ticks": 300480,
          "time": 170.727415,
          "velocity": 1
        },
        {
          "duration": 0.272727500000002,
          "durationTicks": 480,
          "midi": 66,
          "name": "F#4",
          "ticks": 300960,
          "time": 171.0001425,
          "velocity": 1
        },
        {
          "duration": 0.545455000000004,
          "durationTicks": 960,
          "midi": 66,
          "name": "F#4",
          "ticks": 301440,
          "time": 171.27287,
          "velocity": 1
        },
        {
          "duration": 0.545455000000004,
          "durationTicks": 960,
          "midi": 68,
          "name": "G#4",
          "ticks": 302400,
          "time": 171.81832500000002,
          "velocity": 1
        },
        {
          "duration": 2.1818199999999877,
          "durationTicks": 3840,
          "midi": 64,
          "name": "E4",
          "ticks": 303360,
          "time": 172.36378000000002,
          "velocity": 1
        },
        {
          "duration": 0.272727500000002,
          "durationTicks": 480,
          "midi": 61,
          "name": "C#4",
          "ticks": 304320,
          "time": 172.909235,
          "velocity": 1
        },
        {
          "duration": 0.272727500000002,
          "durationTicks": 480,
          "midi": 61,
          "name": "C#4",
          "ticks": 304800,
          "time": 173.1819625,
          "velocity": 1
        },
        {
          "duration": 0.272727500000002,
          "durationTicks": 480,
          "midi": 61,
          "name": "C#4",
          "ticks": 305280,
          "time": 173.45469,
          "velocity": 1
        },
        {
          "duration": 0.272727500000002,
          "durationTicks": 480,
          "midi": 61,
          "name": "C#4",
          "ticks": 305760,
          "time": 173.7274175,
          "velocity": 1
        },
        {
          "duration": 0.272727500000002,
          "durationTicks": 480,
          "midi": 62,
          "name": "D4",
          "ticks": 306240,
          "time": 174.000145,
          "velocity": 1
        },
        {
          "duration": 0.545455000000004,
          "durationTicks": 960,
          "midi": 61,
          "name": "C#4",
          "ticks": 306720,
          "time": 174.2728725,
          "velocity": 1
        },
        {
          "duration": 0.272727500000002,
          "durationTicks": 480,
          "midi": 61,
          "name": "C#4",
          "ticks": 307680,
          "time": 174.8183275,
          "velocity": 1
        },
        {
          "duration": 0.272727500000002,
          "durationTicks": 480,
          "midi": 59,
          "name": "B3",
          "ticks": 308160,
          "time": 175.091055,
          "velocity": 1
        },
        {
          "duration": 1.090910000000008,
          "durationTicks": 1920,
          "midi": 57,
          "name": "A3",
          "ticks": 308640,
          "time": 175.3637825,
          "velocity": 1
        }
      ],
      "endOfTrackTicks": 310560
    },
    {
      "channel": 8,
      "controlChanges": {
        "7": [
          {
            "number": 7,
            "ticks": 0,
            "time": 0,
            "value": 0.8976377952755905
          }
        ]
      },
      "pitchBends": [],
      "instrument": {
        "family": "guitar",
        "number": 27,
        "name": "electric guitar (clean)"
      },
      "name": "Track 10",
      "notes": [
        {
          "duration": 0.272727500000002,
          "durationTicks": 480,
          "midi": 66,
          "name": "F#4",
          "ticks": 70080,
          "time": 39.818215,
          "velocity": 1
        },
        {
          "duration": 0.5454549999999969,
          "durationTicks": 960,
          "midi": 73,
          "name": "C#5",
          "ticks": 70560,
          "time": 40.090942500000004,
          "velocity": 1
        },
        {
          "duration": 0.2727274999999949,
          "durationTicks": 480,
          "midi": 66,
          "name": "F#4",
          "ticks": 73920,
          "time": 42.000035000000004,
          "velocity": 1
        },
        {
          "duration": 0.545455000000004,
          "durationTicks": 960,
          "midi": 73,
          "name": "C#5",
          "ticks": 74400,
          "time": 42.2727625,
          "velocity": 1
        },
        {
          "duration": 0.272727500000002,
          "durationTicks": 480,
          "midi": 66,
          "name": "F#4",
          "ticks": 77760,
          "time": 44.181855,
          "velocity": 1
        },
        {
          "duration": 0.545455000000004,
          "durationTicks": 960,
          "midi": 73,
          "name": "C#5",
          "ticks": 78240,
          "time": 44.4545825,
          "velocity": 1
        },
        {
          "duration": 0.272727500000002,
          "durationTicks": 480,
          "midi": 66,
          "name": "F#4",
          "ticks": 81600,
          "time": 46.363675,
          "velocity": 1
        },
        {
          "duration": 0.5454549999999969,
          "durationTicks": 960,
          "midi": 73,
          "name": "C#5",
          "ticks": 82080,
          "time": 46.6364025,
          "velocity": 1
        },
        {
          "duration": 0.272727500000002,
          "durationTicks": 480,
          "midi": 66,
          "name": "F#4",
          "ticks": 85440,
          "time": 48.545495,
          "velocity": 1
        },
        {
          "duration": 0.5454549999999969,
          "durationTicks": 960,
          "midi": 73,
          "name": "C#5",
          "ticks": 85920,
          "time": 48.818222500000005,
          "velocity": 1
        },
        {
          "duration": 0.2727274999999949,
          "durationTicks": 480,
          "midi": 66,
          "name": "F#4",
          "ticks": 89280,
          "time": 50.727315000000004,
          "velocity": 1
        },
        {
          "duration": 0.545455000000004,
          "durationTicks": 960,
          "midi": 73,
          "name": "C#5",
          "ticks": 89760,
          "time": 51.0000425,
          "velocity": 1
        },
        {
          "duration": 0.272727500000002,
          "durationTicks": 480,
          "midi": 66,
          "name": "F#4",
          "ticks": 154560,
          "time": 87.81825500000001,
          "velocity": 1
        },
        {
          "duration": 0.5454549999999898,
          "durationTicks": 960,
          "midi": 73,
          "name": "C#5",
          "ticks": 155040,
          "time": 88.09098250000001,
          "velocity": 1
        },
        {
          "duration": 0.2727274999999878,
          "durationTicks": 480,
          "midi": 66,
          "name": "F#4",
          "ticks": 158400,
          "time": 90.00007500000001,
          "velocity": 1
        },
        {
          "duration": 0.545455000000004,
          "durationTicks": 960,
          "midi": 73,
          "name": "C#5",
          "ticks": 158880,
          "time": 90.2728025,
          "velocity": 1
        },
        {
          "duration": 0.272727500000002,
          "durationTicks": 480,
          "midi": 66,
          "name": "F#4",
          "ticks": 162240,
          "time": 92.181895,
          "velocity": 1
        },
        {
          "duration": 0.545455000000004,
          "durationTicks": 960,
          "midi": 73,
          "name": "C#5",
          "ticks": 162720,
          "time": 92.4546225,
          "velocity": 1
        },
        {
          "duration": 0.272727500000002,
          "durationTicks": 480,
          "midi": 66,
          "name": "F#4",
          "ticks": 166080,
          "time": 94.363715,
          "velocity": 1
        },
        {
          "duration": 0.545455000000004,
          "durationTicks": 960,
          "midi": 73,
          "name": "C#5",
          "ticks": 166560,
          "time": 94.6364425,
          "velocity": 1
        },
        {
          "duration": 0.272727500000002,
          "durationTicks": 480,
          "midi": 66,
          "name": "F#4",
          "ticks": 169920,
          "time": 96.545535,
          "velocity": 1
        },
        {
          "duration": 0.545455000000004,
          "durationTicks": 960,
          "midi": 73,
          "name": "C#5",
          "ticks": 170400,
          "time": 96.8182625,
          "velocity": 1
        },
        {
          "duration": 0.272727500000002,
          "durationTicks": 480,
          "midi": 66,
          "name": "F#4",
          "ticks": 173760,
          "time": 98.727355,
          "velocity": 1
        },
        {
          "duration": 0.545455000000004,
          "durationTicks": 960,
          "midi": 73,
          "name": "C#5",
          "ticks": 174240,
          "time": 99.0000825,
          "velocity": 1
        },
        {
          "duration": 0.272727500000002,
          "durationTicks": 480,
          "midi": 66,
          "name": "F#4",
          "ticks": 177600,
          "time": 100.909175,
          "velocity": 1
        },
        {
          "duration": 0.545455000000004,
          "durationTicks": 960,
          "midi": 73,
          "name": "C#5",
          "ticks": 178080,
          "time": 101.1819025,
          "velocity": 1
        },
        {
          "duration": 0.272727500000002,
          "durationTicks": 480,
          "midi": 66,
          "name": "F#4",
          "ticks": 181440,
          "time": 103.090995,
          "velocity": 1
        },
        {
          "duration": 0.5454549999999898,
          "durationTicks": 960,
          "midi": 73,
          "name": "C#5",
          "ticks": 181920,
          "time": 103.36372250000001,
          "velocity": 1
        }
      ],
      "endOfTrackTicks": 182880
    }
  ]
}