{
  "header": {
    "keySignatures": [],
    "meta": {
      "title": "Pingu Theme",
      "artist": "unknown",
      "creator": "unknown"
    },
    "name": "PINGU 1986-1994 INTRO MIDI by RUSYAIDI (Online Sequencer)",
    "ppq": 96,
    "tempos": [
      {
        "bpm": 120,
        "ticks": 0
      },
      {
        "bpm": 120,
        "ticks": 0
      },
      {
        "bpm": 120,
        "ticks": 0
      },
      {
        "bpm": 120,
        "ticks": 0
      },
      {
        "bpm": 120,
        "ticks": 1920
      }
    ],
    "timeSignatures": [
      {
        "ticks": 0,
        "timeSignature": [
          4,
          4
        ],
        "measures": 0
      }
    ]
  },
  "tracks": [
    {
      "channel": 0,
      "controlChanges": {},
      "pitchBends": [],
      "instrument": {
        "family": "piano",
        "number": 0,
        "name": "acoustic grand piano"
      },
      "name": "",
      "notes": [],
      "endOfTrackTicks": 1939
    },
    {
      "channel": 0,
      "controlChanges": {
        "6": [
          {
            "number": 6,
            "ticks": 0,
            "time": 0,
            "value": 0.09448818897637795
          }
        ],
        "7": [
          {
            "number": 7,
            "ticks": 0,
            "time": 0,
            "value": 1
          },
          {
            "number": 7,
            "ticks": 0,
            "time": 0,
            "value": 1
          }
        ],
        "10": [
          {
            "number": 10,
            "ticks": 0,
            "time": 0,
            "value": 0.5039370078740157
          },
          {
            "number": 10,
            "ticks": 0,
            "time": 0,
            "value": 0.5039370078740157
          }
        ],
        "100": [
          {
            "number": 100,
            "ticks": 0,
            "time": 0,
            "value": 0
          }
        ],
        "101": [
          {
            "number": 101,
            "ticks": 0,
            "time": 0,
            "value": 0
          }
        ]
      },
      "pitchBends": [
        {
          "ticks": 0,
          "time": 0,
          "value": 0
        },
        {
          "ticks": 0,
          "time": 0,
          "value": 0
        }
      ],
      "instrument": {
        "family": "piano",
        "number": 0,
        "name": "acoustic grand piano"
      },
      "name": "Choir Aahs",
      "notes": [],
      "endOfTrackTicks": 1939
    },
    {
      "channel": 4,
      "controlChanges": {
        "6": [
          {
            "number": 6,
            "ticks": 0,
            "time": 0,
            "value": 0.09448818897637795
          },
          {
            "number": 6,
            "ticks": 0,
            "time": 0,
            "value": 0.09448818897637795
          },
          {
            "number": 6,
            "ticks": 1920,
            "time": 10,
            "value": 0.09448818897637795
          },
          {
            "number": 6,
            "ticks": 1921,
            "time": 10.005208333333334,
            "value": 0.09448818897637795
          }
        ],
        "7": [
          {
            "number": 7,
            "ticks": 0,
            "time": 0,
            "value": 1
          },
          {
            "number": 7,
            "ticks": 0,
            "time": 0,
            "value": 1
          },
          {
            "number": 7,
            "ticks": 0,
            "time": 0,
            "value": 1
          },
          {
            "number": 7,
            "ticks": 0,
            "time": 0,
            "value": 1
          },
          {
            "number": 7,
            "ticks": 1920,
            "time": 10,
            "value": 1
          },
          {
            "number": 7,
            "ticks": 1920,
            "time": 10,
            "value": 1
          },
          {
            "number": 7,
            "ticks": 1921,
            "time": 10.005208333333334,
            "value": 1
          }
        ],
        "10": [
          {
            "number": 10,
            "ticks": 0,
            "time": 0,
            "value": 0.5039370078740157
          },
          {
            "number": 10,
            "ticks": 0,
            "time": 0,
            "value": 0.5039370078740157
          },
          {
            "number": 10,
            "ticks": 0,
            "time": 0,
            "value": 0.5039370078740157
          },
          {
            "number": 10,
            "ticks": 0,
            "time": 0,
            "value": 0.5039370078740157
          },
          {
            "number": 10,
            "ticks": 1920,
            "time": 10,
            "value": 0.5039370078740157
          },
          {
            "number": 10,
            "ticks": 1920,
            "time": 10,
            "value": 0.5039370078740157
          },
          {
            "number": 10,
            "ticks": 1921,
            "time": 10.005208333333334,
            "value": 0.5039370078740157
          }
        ],
        "100": [
          {
            "number": 100,
            "ticks": 0,
            "time": 0,
            "value": 0
          },
          {
            "number": 100,
            "ticks": 0,
            "time": 0,
            "value": 0
          },
          {
            "number": 100,
            "ticks": 1920,
            "time": 10,
            "value": 0
          },
          {
            "number": 100,
            "ticks": 1921,
            "time": 10.005208333333334,
            "value": 0
          }
        ],
        "101": [
          {
            "number": 101,
            "ticks": 0,
            "time": 0,
            "value": 0
          },
          {
            "number": 101,
            "ticks": 0,
            "time": 0,
            "value": 0
          },
          {
            "number": 101,
            "ticks": 1920,
            "time": 10,
            "value": 0
          },
          {
            "number": 101,
            "ticks": 1921,
            "time": 10.005208333333334,
            "value": 0
          }
        ]
      },
      "pitchBends": [
        {
          "ticks": 0,
          "time": 0,
          "value": 0
        },
        {
          "ticks": 0,
          "time": 0,
          "value": 0
        },
        {
          "ticks": 0,
          "time": 0,
          "value": 0
        },
        {
          "ticks": 0,
          "time": 0,
          "value": 0
        },
        {
          "ticks": 1920,
          "time": 10,
          "value": 0
        },
        {
          "ticks": 1920,
          "time": 10,
          "value": 0
        },
        {
          "ticks": 1921,
          "time": 10.005208333333334,
          "value": 0
        }
      ],
      "instrument": {
        "family": "ensemble",
        "number": 52,
        "name": "choir aahs"
      },
      "name": "",
      "notes": [
        {
          "duration": 0.25,
          "durationTicks": 48,
          "midi": 60,
          "name": "C4",
          "ticks": 0,
          "time": 0,
          "velocity": 0.7086614173228346
        },
        {
          "duration": 0.25,
          "durationTicks": 48,
          "midi": 57,
          "name": "A3",
          "ticks": 96,
          "time": 0.5,
          "velocity": 0.7086614173228346
        },
        {
          "duration": 0.125,
          "durationTicks": 24,
          "midi": 58,
          "name": "A#3",
          "ticks": 192,
          "time": 1,
          "velocity": 0.7086614173228346
        },
        {
          "duration": 0.125,
          "durationTicks": 24,
          "midi": 57,
          "name": "A3",
          "ticks": 240,
          "time": 1.25,
          "velocity": 0.7086614173228346
        },
        {
          "duration": 0.5,
          "durationTicks": 96,
          "midi": 55,
          "name": "G3",
          "ticks": 288,
          "time": 1.5,
          "velocity": 0.7086614173228346
        },
        {
          "duration": 0.25,
          "durationTicks": 48,
          "midi": 60,
          "name": "C4",
          "ticks": 384,
          "time": 2,
          "velocity": 0.7086614173228346
        },
        {
          "duration": 0.25,
          "durationTicks": 48,
          "midi": 57,
          "name": "A3",
          "ticks": 480,
          "time": 2.5,
          "velocity": 0.7086614173228346
        },
        {
          "duration": 0.125,
          "durationTicks": 24,
          "midi": 58,
          "name": "A#3",
          "ticks": 576,
          "time": 3,
          "velocity": 0.7086614173228346
        },
        {
          "duration": 0.125,
          "durationTicks": 24,
          "midi": 62,
          "name": "D4",
          "ticks": 624,
          "time": 3.25,
          "velocity": 0.7086614173228346
        },
        {
          "duration": 0.5,
          "durationTicks": 96,
          "midi": 60,
          "name": "C4",
          "ticks": 672,
          "time": 3.5,
          "velocity": 0.7086614173228346
        },
        {
          "duration": 0.125,
          "durationTicks": 24,
          "midi": 62,
          "name": "D4",
          "ticks": 768,
          "time": 4,
          "velocity": 0.7086614173228346
        },
        {
          "duration": 0.125,
          "durationTicks": 24,
          "midi": 65,
          "name": "F4",
          "ticks": 816,
          "time": 4.25,
          "velocity": 0.7086614173228346
        },
        {
          "duration": 0.125,
          "durationTicks": 24,
          "midi": 64,
          "name": "E4",
          "ticks": 864,
          "time": 4.5,
          "velocity": 0.7086614173228346
        },
        {
          "duration": 0.125,
          "durationTicks": 24,
          "midi": 62,
          "name": "D4",
          "ticks": 912,
          "time": 4.75,
          "velocity": 0.7086614173228346
        },
        {
          "duration": 0.125,
          "durationTicks": 24,
          "midi": 60,
          "name": "C4",
          "ticks": 960,
          "time": 5,
          "velocity": 0.7086614173228346
        },
        {
          "duration": 0.125,
          "durationTicks": 24,
          "midi": 65,
          "name": "F4",
          "ticks": 1008,
          "time": 5.25,
          "velocity": 0.7086614173228346
        },
        {
          "duration": 0.125,
          "durationTicks": 24,
          "midi": 60,
          "name": "C4",
          "ticks": 1056,
          "time": 5.5,
          "velocity": 0.7086614173228346
        },
        {
          "duration": 0.125,
          "durationTicks": 24,
          "midi": 58,
          "name": "A#3",
          "ticks": 1104,
          "time": 5.75,
          "velocity": 0.7086614173228346
        },
        {
          "duration": 0.125,
          "durationTicks": 24,
          "midi": 57,
          "name": "A3",
          "ticks": 1152,
          "time": 6,
          "velocity": 0.7086614173228346
        },
        {
          "duration": 0.125,
          "durationTicks": 24,
          "midi": 58,
          "name": "A#3",
          "ticks": 1200,
          "time": 6.25,
          "velocity": 0.7086614173228346
        },
        {
          "duration": 0.125,
          "durationTicks": 24,
          "midi": 57,
          "name": "A3",
          "ticks": 1248,
          "time": 6.5,
          "velocity": 0.7086614173228346
        },
        {
          "duration": 0.125,
          "durationTicks": 24,
          "midi": 55,
          "name": "G3",
          "ticks": 1296,
          "time": 6.75,
          "velocity": 0.7086614173228346
        },
        {
          "duration": 0.125,
          "durationTicks": 24,
          "midi": 60,
          "name": "C4",
          "ticks": 1344,
          "time": 7,
          "velocity": 0.7086614173228346
        },
        {
          "duration": 0.125,
          "durationTicks": 24,
          "midi": 72,
          "name": "C5",
          "ticks": 1392,
          "time": 7.25,
          "velocity": 0.7086614173228346
        },
        {
          "duration": 0.125,
          "durationTicks": 24,
          "midi": 58,
          "name": "A#3",
          "ticks": 1488,
          "time": 7.75,
          "velocity": 0.7086614173228346
        },
        {
          "duration": 0.25,
          "durationTicks": 48,
          "midi": 57,
          "name": "A3",
          "ticks": 1536,
          "time": 8,
          "velocity": 0.7086614173228346
        },
        {
          "duration": 0.25,
          "durationTicks": 48,
          "midi": 60,
          "name": "C4",
          "ticks": 1632,
          "time": 8.5,
          "velocity": 0.7086614173228346
        },
        {
          "duration": 0.25,
          "durationTicks": 48,
          "midi": 65,
          "name": "F4",
          "ticks": 1728,
          "time": 9,
          "velocity": 0.7086614173228346
        }
      ]
    },
    {
      "channel": 0,
      "controlChanges": {
        "6": [
          {
            "number": 6,
            "ticks": 0,
            "time": 0,
            "value": 0.09448818897637795
          }
        ],
        "7": [
          {
            "number": 7,
            "ticks": 0,
            "time": 0,
            "value": 1
          },
          {
            "number": 7,
            "ticks": 0,
            "time": 0,
            "value": 1
          }
        ],
        "10": [
          {
            "number": 10,
            "ticks": 0,
            "time": 0,
            "value": 0.5039370078740157
          },
          {
            "number": 10,
            "ticks": 0,
            "time": 0,
            "value": 0.5039370078740157
          }
        ],
        "100": [
          {
            "number": 100,
            "ticks": 0,
            "time": 0,
            "value": 0
          }
        ],
        "101": [
          {
            "number": 101,
            "ticks": 0,
            "time": 0,
            "value": 0
          }
        ]
      },
      "pitchBends": [
        {
          "ticks": 0,
          "time": 0,
          "value": 0
        },
        {
          "ticks": 0,
          "time": 0,
          "value": 0
        }
      ],
      "instrument": {
        "family": "piano",
        "number": 0,
        "name": "acoustic grand piano"
      },
      "name": "Lead Vocal - Vibraphone",
      "notes": [],
      "endOfTrackTicks": 1939
    },
    {
      "channel": 3,
      "controlChanges": {
        "6": [
          {
            "number": 6,
            "ticks": 0,
            "time": 0,
            "value": 0.09448818897637795
          },
          {
            "number": 6,
            "ticks": 0,
            "time": 0,
            "value": 0.09448818897637795
          },
          {
            "number": 6,
            "ticks": 1920,
            "time": 10,
            "value": 0.09448818897637795
          },
          {
            "number": 6,
            "ticks": 1921,
            "time": 10.005208333333334,
            "value": 0.09448818897637795
          }
        ],
        "7": [
          {
            "number": 7,
            "ticks": 0,
            "time": 0,
            "value": 1
          },
          {
            "number": 7,
            "ticks": 0,
            "time": 0,
            "value": 1
          },
          {
            "number": 7,
            "ticks": 0,
            "time": 0,
            "value": 1
          },
          {
            "number": 7,
            "ticks": 0,
            "time": 0,
            "value": 1
          },
          {
            "number": 7,
            "ticks": 1920,
            "time": 10,
            "value": 1
          },
          {
            "number": 7,
            "ticks": 1920,
            "time": 10,
            "value": 1
          },
          {
            "number": 7,
            "ticks": 1921,
            "time": 10.005208333333334,
            "value": 1
          }
        ],
        "10": [
          {
            "number": 10,
            "ticks": 0,
            "time": 0,
            "value": 0.5039370078740157
          },
          {
            "number": 10,
            "ticks": 0,
            "time": 0,
            "value": 0.5039370078740157
          },
          {
            "number": 10,
            "ticks": 0,
            "time": 0,
            "value": 0.5039370078740157
          },
          {
            "number": 10,
            "ticks": 0,
            "time": 0,
            "value": 0.5039370078740157
          },
          {
            "number": 10,
            "ticks": 1920,
            "time": 10,
            "value": 0.5039370078740157
          },
          {
            "number": 10,
            "ticks": 1920,
            "time": 10,
            "value": 0.5039370078740157
          },
          {
            "number": 10,
            "ticks": 1921,
            "time": 10.005208333333334,
            "value": 0.5039370078740157
          }
        ],
        "100": [
          {
            "number": 100,
            "ticks": 0,
            "time": 0,
            "value": 0
          },
          {
            "number": 100,
            "ticks": 0,
            "time": 0,
            "value": 0
          },
          {
            "number": 100,
            "ticks": 1920,
            "time": 10,
            "value": 0
          },
          {
            "number": 100,
            "ticks": 1921,
            "time": 10.005208333333334,
            "value": 0
          }
        ],
        "101": [
          {
            "number": 101,
            "ticks": 0,
            "time": 0,
            "value": 0
          },
          {
            "number": 101,
            "ticks": 0,
            "time": 0,
            "value": 0
          },
          {
            "number": 101,
            "ticks": 1920,
            "time": 10,
            "value": 0
          },
          {
            "number": 101,
            "ticks": 1921,
            "time": 10.005208333333334,
            "value": 0
          }
        ]
      },
      "pitchBends": [
        {
          "ticks": 0,
          "time": 0,
          "value": 0
        },
        {
          "ticks": 0,
          "time": 0,
          "value": 0
        },
        {
          "ticks": 0,
          "time": 0,
          "value": 0
        },
        {
          "ticks": 0,
          "time": 0,
          "value": 0
        },
        {
          "ticks": 1920,
          "time": 10,
          "value": 0
        },
        {
          "ticks": 1920,
          "time": 10,
          "value": 0
        },
        {
          "ticks": 1921,
          "time": 10.005208333333334,
          "value": 0
        }
      ],
      "instrument": {
        "family": "chromatic percussion",
        "number": 11,
        "name": "vibraphone"
      },
      "name": "",
      "notes": [
        {
          "duration": 0.25,
          "durationTicks": 48,
          "midi": 72,
          "name": "C5",
          "ticks": 0,
          "time": 0,
          "velocity": 0.8661417322834646
        },
        {
          "duration": 0.25,
          "durationTicks": 48,
          "midi": 69,
          "name": "A4",
          "ticks": 96,
          "time": 0.5,
          "velocity": 0.8661417322834646
        },
        {
          "duration": 0.125,
          "durationTicks": 24,
          "midi": 70,
          "name": "A#4",
          "ticks": 192,
          "time": 1,
          "velocity": 0.8661417322834646
        },
        {
          "duration": 0.125,
          "durationTicks": 24,
          "midi": 69,
          "name": "A4",
          "ticks": 240,
          "time": 1.25,
          "velocity": 0.8661417322834646
        },
        {
          "duration": 0.5,
          "durationTicks": 96,
          "midi": 67,
          "name": "G4",
          "ticks": 288,
          "time": 1.5,
          "velocity": 0.8661417322834646
        },
        {
          "duration": 0.25,
          "durationTicks": 48,
          "midi": 72,
          "name": "C5",
          "ticks": 384,
          "time": 2,
          "velocity": 0.8661417322834646
        },
        {
          "duration": 0.25,
          "durationTicks": 48,
          "midi": 69,
          "name": "A4",
          "ticks": 480,
          "time": 2.5,
          "velocity": 0.8661417322834646
        },
        {
          "duration": 0.125,
          "durationTicks": 24,
          "midi": 70,
          "name": "A#4",
          "ticks": 576,
          "time": 3,
          "velocity": 0.8661417322834646
        },
        {
          "duration": 0.125,
          "durationTicks": 24,
          "midi": 74,
          "name": "D5",
          "ticks": 624,
          "time": 3.25,
          "velocity": 0.8661417322834646
        },
        {
          "duration": 0.5,
          "durationTicks": 96,
          "midi": 72,
          "name": "C5",
          "ticks": 672,
          "time": 3.5,
          "velocity": 0.8661417322834646
        },
        {
          "duration": 0.125,
          "durationTicks": 24,
          "midi": 74,
          "name": "D5",
          "ticks": 768,
          "time": 4,
          "velocity": 0.8661417322834646
        },
        {
          "duration": 0.125,
          "durationTicks": 24,
          "midi": 77,
          "name": "F5",
          "ticks": 816,
          "time": 4.25,
          "velocity": 0.8661417322834646
        },
        {
          "duration": 0.125,
          "durationTicks": 24,
          "midi": 76,
          "name": "E5",
          "ticks": 864,
          "time": 4.5,
          "velocity": 0.8661417322834646
        },
        {
          "duration": 0.125,
          "durationTicks": 24,
          "midi": 74,
          "name": "D5",
          "ticks": 912,
          "time": 4.75,
          "velocity": 0.8661417322834646
        },
        {
          "duration": 0.125,
          "durationTicks": 24,
          "midi": 72,
          "name": "C5",
          "ticks": 960,
          "time": 5,
          "velocity": 0.8661417322834646
        },
        {
          "duration": 0.125,
          "durationTicks": 24,
          "midi": 77,
          "name": "F5",
          "ticks": 1008,
          "time": 5.25,
          "velocity": 0.8661417322834646
        },
        {
          "duration": 0.125,
          "durationTicks": 24,
          "midi": 72,
          "name": "C5",
          "ticks": 1056,
          "time": 5.5,
          "velocity": 0.8661417322834646
        },
        {
          "duration": 0.125,
          "durationTicks": 24,
          "midi": 70,
          "name": "A#4",
          "ticks": 1104,
          "time": 5.75,
          "velocity": 0.8661417322834646
        },
        {
          "duration": 0.125,
          "durationTicks": 24,
          "midi": 69,
          "name": "A4",
          "ticks": 1152,
          "time": 6,
          "velocity": 0.8661417322834646
        },
        {
          "duration": 0.125,
          "durationTicks": 24,
          "midi": 70,
          "name": "A#4",
          "ticks": 1200,
          "time": 6.25,
          "velocity": 0.8661417322834646
        },
        {
          "duration": 0.125,
          "durationTicks": 24,
          "midi": 69,
          "name": "A4",
          "ticks": 1248,
          "time": 6.5,
          "velocity": 0.8661417322834646
        },
        {
          "duration": 0.125,
          "durationTicks": 24,
          "midi": 67,
          "name": "G4",
          "ticks": 1296,
          "time": 6.75,
          "velocity": 0.8661417322834646
        },
        {
          "duration": 0.125,
          "durationTicks": 24,
          "midi": 72,
          "name": "C5",
          "ticks": 1344,
          "time": 7,
          "velocity": 0.8661417322834646
        },
        {
          "duration": 0.125,
          "durationTicks": 24,
          "midi": 84,
          "name": "C6",
          "ticks": 1392,
          "time": 7.25,
          "velocity": 0.8661417322834646
        },
        {
          "duration": 0.125,
          "durationTicks": 24,
          "midi": 70,
          "name": "A#4",
          "ticks": 1488,
          "time": 7.75,
          "velocity": 0.8661417322834646
        },
        {
          "duration": 0.25,
          "durationTicks": 48,
          "midi": 69,
          "name": "A4",
          "ticks": 1536,
          "time": 8,
          "velocity": 0.8661417322834646
        },
        {
          "duration": 0.25,
          "durationTicks": 48,
          "midi": 72,
          "name": "C5",
          "ticks": 1632,
          "time": 8.5,
          "velocity": 0.8661417322834646
        },
        {
          "duration": 0.25,
          "durationTicks": 48,
          "midi": 77,
          "name": "F5",
          "ticks": 1728,
          "time": 9,
          "velocity": 0.8661417322834646
        }
      ]
    },
    {
      "channel": 1,
      "controlChanges": {
        "6": [
          {
            "number": 6,
            "ticks": 0,
            "time": 0,
            "value": 0.09448818897637795
          },
          {
            "number": 6,
            "ticks": 0,
            "time": 0,
            "value": 0.09448818897637795
          },
          {
            "number": 6,
            "ticks": 0,
            "time": 0,
            "value": 0.09448818897637795
          }
        ],
        "7": [
          {
            "number": 7,
            "ticks": 0,
            "time": 0,
            "value": 1
          },
          {
            "number": 7,
            "ticks": 0,
            "time": 0,
            "value": 1
          },
          {
            "number": 7,
            "ticks": 0,
            "time": 0,
            "value": 1
          },
          {
            "number": 7,
            "ticks": 0,
            "time": 0,
            "value": 1
          },
          {
            "number": 7,
            "ticks": 0,
            "time": 0,
            "value": 1
          },
          {
            "number": 7,
            "ticks": 0,
            "time": 0,
            "value": 1
          }
        ],
        "10": [
          {
            "number": 10,
            "ticks": 0,
            "time": 0,
            "value": 0.5039370078740157
          },
          {
            "number": 10,
            "ticks": 0,
            "time": 0,
            "value": 0.5039370078740157
          },
          {
            "number": 10,
            "ticks": 0,
            "time": 0,
            "value": 0.5039370078740157
          },
          {
            "number": 10,
            "ticks": 0,
            "time": 0,
            "value": 0.5039370078740157
          },
          {
            "number": 10,
            "ticks": 0,
            "time": 0,
            "value": 0.5039370078740157
          },
          {
            "number": 10,
            "ticks": 0,
            "time": 0,
            "value": 0.5039370078740157
          }
        ],
        "100": [
          {
            "number": 100,
            "ticks": 0,
            "time": 0,
            "value": 0
          },
          {
            "number": 100,
            "ticks": 0,
            "time": 0,
            "value": 0
          },
          {
            "number": 100,
            "ticks": 0,
            "time": 0,
            "value": 0
          }
        ],
        "101": [
          {
            "number": 101,
            "ticks": 0,
            "time": 0,
            "value": 0
          },
          {
            "number": 101,
            "ticks": 0,
            "time": 0,
            "value": 0
          },
          {
            "number": 101,
            "ticks": 0,
            "time": 0,
            "value": 0
          }
        ]
      },
      "pitchBends": [
        {
          "ticks": 0,
          "time": 0,
          "value": 0
        },
        {
          "ticks": 0,
          "time": 0,
          "value": 0
        },
        {
          "ticks": 0,
          "time": 0,
          "value": 0
        },
        {
          "ticks": 0,
          "time": 0,
          "value": 0
        },
        {
          "ticks": 0,
          "time": 0,
          "value": 0
        },
        {
          "ticks": 0,
          "time": 0,
          "value": 0
        }
      ],
      "instrument": {
        "family": "piano",
        "number": 0,
        "name": "acoustic grand piano"
      },
      "name": "Fingered Bass",
      "notes": [],
      "endOfTrackTicks": 1939
    },
    {
      "channel": 1,
      "controlChanges": {
        "6": [
          {
            "number": 6,
            "ticks": 1920,
            "time": 10,
            "value": 0.09448818897637795
          },
          {
            "number": 6,
            "ticks": 1921,
            "time": 10.005208333333334,
            "value": 0.09448818897637795
          }
        ],
        "7": [
          {
            "number": 7,
            "ticks": 1920,
            "time": 10,
            "value": 1
          },
          {
            "number": 7,
            "ticks": 1920,
            "time": 10,
            "value": 1
          },
          {
            "number": 7,
            "ticks": 1921,
            "time": 10.005208333333334,
            "value": 1
          }
        ],
        "10": [
          {
            "number": 10,
            "ticks": 1920,
            "time": 10,
            "value": 0.5039370078740157
          },
          {
            "number": 10,
            "ticks": 1920,
            "time": 10,
            "value": 0.5039370078740157
          },
          {
            "number": 10,
            "ticks": 1921,
            "time": 10.005208333333334,
            "value": 0.5039370078740157
          }
        ],
        "100": [
          {
            "number": 100,
            "ticks": 1920,
            "time": 10,
            "value": 0
          },
          {
            "number": 100,
            "ticks": 1921,
            "time": 10.005208333333334,
            "value": 0
          }
        ],
        "101": [
          {
            "number": 101,
            "ticks": 1920,
            "time": 10,
            "value": 0
          },
          {
            "number": 101,
            "ticks": 1921,
            "time": 10.005208333333334,
            "value": 0
          }
        ]
      },
      "pitchBends": [
        {
          "ticks": 1920,
          "time": 10,
          "value": 0
        },
        {
          "ticks": 1920,
          "time": 10,
          "value": 0
        },
        {
          "ticks": 1921,
          "time": 10.005208333333334,
          "value": 0
        }
      ],
      "instrument": {
        "family": "bass",
        "number": 33,
        "name": "electric bass (finger)"
      },
      "name": "",
      "notes": [
        {
          "duration": 0.25,
          "durationTicks": 48,
          "midi": 36,
          "name": "C2",
          "ticks": 96,
          "time": 0.5,
          "velocity": 0.905511811023622
        },
        {
          "duration": 0.25,
          "durationTicks": 48,
          "midi": 43,
          "name": "G2",
          "ticks": 192,
          "time": 1,
          "velocity": 0.905511811023622
        },
        {
          "duration": 0.25,
          "durationTicks": 48,
          "midi": 36,
          "name": "C2",
          "ticks": 288,
          "time": 1.5,
          "velocity": 0.905511811023622
        },
        {
          "duration": 0.25,
          "durationTicks": 48,
          "midi": 41,
          "name": "F2",
          "ticks": 384,
          "time": 2,
          "velocity": 0.905511811023622
        },
        {
          "duration": 0.25,
          "durationTicks": 48,
          "midi": 36,
          "name": "C2",
          "ticks": 480,
          "time": 2.5,
          "velocity": 0.905511811023622
        },
        {
          "duration": 0.25,
          "durationTicks": 48,
          "midi": 34,
          "name": "A#1",
          "ticks": 576,
          "time": 3,
          "velocity": 0.905511811023622
        },
        {
          "duration": 0.25,
          "durationTicks": 48,
          "midi": 41,
          "name": "F2",
          "ticks": 672,
          "time": 3.5,
          "velocity": 0.905511811023622
        },
        {
          "duration": 0.25,
          "durationTicks": 48,
          "midi": 34,
          "name": "A#1",
          "ticks": 768,
          "time": 4,
          "velocity": 0.905511811023622
        },
        {
          "duration": 0.25,
          "durationTicks": 48,
          "midi": 34,
          "name": "A#1",
          "ticks": 864,
          "time": 4.5,
          "velocity": 0.905511811023622
        },
        {
          "duration": 0.25,
          "durationTicks": 48,
          "midi": 36,
          "name": "C2",
          "ticks": 960,
          "time": 5,
          "velocity": 0.905511811023622
        },
        {
          "duration": 0.25,
          "durationTicks": 48,
          "midi": 36,
          "name": "C2",
          "ticks": 1056,
          "time": 5.5,
          "velocity": 0.905511811023622
        },
        {
          "duration": 0.25,
          "durationTicks": 48,
          "midi": 41,
          "name": "F2",
          "ticks": 1152,
          "time": 6,
          "velocity": 0.905511811023622
        },
        {
          "duration": 0.25,
          "durationTicks": 48,
          "midi": 39,
          "name": "D#2",
          "ticks": 1248,
          "time": 6.5,
          "velocity": 0.905511811023622
        },
        {
          "duration": 0.25,
          "durationTicks": 48,
          "midi": 38,
          "name": "D2",
          "ticks": 1344,
          "time": 7,
          "velocity": 0.905511811023622
        },
        {
          "duration": 0.125,
          "durationTicks": 24,
          "midi": 36,
          "name": "C2",
          "ticks": 1488,
          "time": 7.75,
          "velocity": 0.905511811023622
        },
        {
          "duration": 0.25,
          "durationTicks": 48,
          "midi": 33,
          "name": "A1",
          "ticks": 1536,
          "time": 8,
          "velocity": 0.905511811023622
        },
        {
          "duration": 0.25,
          "durationTicks": 48,
          "midi": 36,
          "name": "C2",
          "ticks": 1632,
          "time": 8.5,
          "velocity": 0.905511811023622
        },
        {
          "duration": 0.25,
          "durationTicks": 48,
          "midi": 29,
          "name": "F1",
          "ticks": 1728,
          "time": 9,
          "velocity": 0.905511811023622
        }
      ]
    },
    {
      "channel": 9,
      "controlChanges": {
        "6": [
          {
            "number": 6,
            "ticks": 0,
            "time": 0,
            "value": 0.09448818897637795
          },
          {
            "number": 6,
            "ticks": 0,
            "time": 0,
            "value": 0.09448818897637795
          },
          {
            "number": 6,
            "ticks": 0,
            "time": 0,
            "value": 0.09448818897637795
          },
          {
            "number": 6,
            "ticks": 1920,
            "time": 10,
            "value": 0.09448818897637795
          },
          {
            "number": 6,
            "ticks": 1921,
            "time": 10.005208333333334,
            "value": 0.09448818897637795
          }
        ],
        "7": [
          {
            "number": 7,
            "ticks": 0,
            "time": 0,
            "value": 1
          },
          {
            "number": 7,
            "ticks": 0,
            "time": 0,
            "value": 1
          },
          {
            "number": 7,
            "ticks": 0,
            "time": 0,
            "value": 1
          },
          {
            "number": 7,
            "ticks": 0,
            "time": 0,
            "value": 1
          },
          {
            "number": 7,
            "ticks": 0,
            "time": 0,
            "value": 1
          },
          {
            "number": 7,
            "ticks": 0,
            "time": 0,
            "value": 1
          },
          {
            "number": 7,
            "ticks": 1920,
            "time": 10,
            "value": 1
          },
          {
            "number": 7,
            "ticks": 1920,
            "time": 10,
            "value": 1
          },
          {
            "number": 7,
            "ticks": 1921,
            "time": 10.005208333333334,
            "value": 1
          }
        ],
        "10": [
          {
            "number": 10,
            "ticks": 0,
            "time": 0,
            "value": 0.5039370078740157
          },
          {
            "number": 10,
            "ticks": 0,
            "time": 0,
            "value": 0.5039370078740157
          },
          {
            "number": 10,
            "ticks": 0,
            "time": 0,
            "value": 0.5039370078740157
          },
          {
            "number": 10,
            "ticks": 0,
            "time": 0,
            "value": 0.5039370078740157
          },
          {
            "number": 10,
            "ticks": 0,
            "time": 0,
            "value": 0.5039370078740157
          },
          {
            "number": 10,
            "ticks": 0,
            "time": 0,
            "value": 0.5039370078740157
          },
          {
            "number": 10,
            "ticks": 1920,
            "time": 10,
            "value": 0.5039370078740157
          },
          {
            "number": 10,
            "ticks": 1920,
            "time": 10,
            "value": 0.5039370078740157
          },
          {
            "number": 10,
            "ticks": 1921,
            "time": 10.005208333333334,
            "value": 0.5039370078740157
          }
        ],
        "100": [
          {
            "number": 100,
            "ticks": 0,
            "time": 0,
            "value": 0
          },
          {
            "number": 100,
            "ticks": 0,
            "time": 0,
            "value": 0
          },
          {
            "number": 100,
            "ticks": 0,
            "time": 0,
            "value": 0
          },
          {
            "number": 100,
            "ticks": 1920,
            "time": 10,
            "value": 0
          },
          {
            "number": 100,
            "ticks": 1921,
            "time": 10.005208333333334,
            "value": 0
          }
        ],
        "101": [
          {
            "number": 101,
            "ticks": 0,
            "time": 0,
            "value": 0
          },
          {
            "number": 101,
            "ticks": 0,
            "time": 0,
            "value": 0
          },
          {
            "number": 101,
            "ticks": 0,
            "time": 0,
            "value": 0
          },
          {
            "number": 101,
            "ticks": 1920,
            "time": 10,
            "value": 0
          },
          {
            "number": 101,
            "ticks": 1921,
            "time": 10.005208333333334,
            "value": 0
          }
        ]
      },
      "pitchBends": [
        {
          "ticks": 0,
          "time": 0,
          "value": 0
        },
        {
          "ticks": 0,
          "time": 0,
          "value": 0
        },
        {
          "ticks": 0,
          "time": 0,
          "value": 0
        },
        {
          "ticks": 0,
          "time": 0,
          "value": 0
        },
        {
          "ticks": 0,
          "time": 0,
          "value": 0
        },
        {
          "ticks": 0,
          "time": 0,
          "value": 0
        },
        {
          "ticks": 1920,
          "time": 10,
          "value": 0
        },
        {
          "ticks": 1920,
          "time": 10,
          "value": 0
        },
        {
          "ticks": 1921,
          "time": 10.005208333333334,
          "value": 0
        }
      ],
      "instrument": {
        "family": "drums",
        "number": 0,
        "name": "standard kit"
      },
      "name": "Drum Kit",
      "notes": [
        {
          "duration": 0.25,
          "durationTicks": 48,
          "midi": 44,
          "name": "G#2",
          "ticks": 0,
          "time": 0,
          "velocity": 0.7874015748031497
        },
        {
          "duration": 0.125,
          "durationTicks": 24,
          "midi": 49,
          "name": "C#3",
          "ticks": 0,
          "time": 0,
          "velocity": 0.7874015748031497
        },
        {
          "duration": 0.125,
          "durationTicks": 24,
          "midi": 36,
          "name": "C2",
          "ticks": 0,
          "time": 0,
          "velocity": 0.7874015748031497
        },
        {
          "duration": 0.125,
          "durationTicks": 24,
          "midi": 70,
          "name": "A#4",
          "ticks": 0,
          "time": 0,
          "velocity": 0.7874015748031497
        },
        {
          "duration": 0.125,
          "durationTicks": 24,
          "midi": 70,
          "name": "A#4",
          "ticks": 24,
          "time": 0.125,
          "velocity": 0.7874015748031497
        },
        {
          "duration": 0.125,
          "durationTicks": 24,
          "midi": 54,
          "name": "F#3",
          "ticks": 48,
          "time": 0.25,
          "velocity": 0.7874015748031497
        },
        {
          "duration": 0.125,
          "durationTicks": 24,
          "midi": 70,
          "name": "A#4",
          "ticks": 48,
          "time": 0.25,
          "velocity": 0.7874015748031497
        },
        {
          "duration": 0.25,
          "durationTicks": 48,
          "midi": 44,
          "name": "G#2",
          "ticks": 48,
          "time": 0.25,
          "velocity": 0.7874015748031497
        },
        {
          "duration": 0.125,
          "durationTicks": 24,
          "midi": 70,
          "name": "A#4",
          "ticks": 72,
          "time": 0.375,
          "velocity": 0.7874015748031497
        },
        {
          "duration": 0.125,
          "durationTicks": 24,
          "midi": 39,
          "name": "D#2",
          "ticks": 96,
          "time": 0.5,
          "velocity": 0.7874015748031497
        },
        {
          "duration": 0.25,
          "durationTicks": 48,
          "midi": 44,
          "name": "G#2",
          "ticks": 96,
          "time": 0.5,
          "velocity": 0.7874015748031497
        },
        {
          "duration": 0.125,
          "durationTicks": 24,
          "midi": 38,
          "name": "D2",
          "ticks": 96,
          "time": 0.5,
          "velocity": 0.7874015748031497
        },
        {
          "duration": 0.125,
          "durationTicks": 24,
          "midi": 70,
          "name": "A#4",
          "ticks": 96,
          "time": 0.5,
          "velocity": 0.7874015748031497
        },
        {
          "duration": 0.125,
          "durationTicks": 24,
          "midi": 70,
          "name": "A#4",
          "ticks": 120,
          "time": 0.625,
          "velocity": 0.7874015748031497
        },
        {
          "duration": 0.25,
          "durationTicks": 48,
          "midi": 44,
          "name": "G#2",
          "ticks": 144,
          "time": 0.75,
          "velocity": 0.7874015748031497
        },
        {
          "duration": 0.125,
          "durationTicks": 24,
          "midi": 70,
          "name": "A#4",
          "ticks": 144,
          "time": 0.75,
          "velocity": 0.7874015748031497
        },
        {
          "duration": 0.125,
          "durationTicks": 24,
          "midi": 54,
          "name": "F#3",
          "ticks": 144,
          "time": 0.75,
          "velocity": 0.7874015748031497
        },
        {
          "duration": 0.125,
          "durationTicks": 24,
          "midi": 70,
          "name": "A#4",
          "ticks": 168,
          "time": 0.875,
          "velocity": 0.7874015748031497
        },
        {
          "duration": 0.25,
          "durationTicks": 48,
          "midi": 44,
          "name": "G#2",
          "ticks": 192,
          "time": 1,
          "velocity": 0.7874015748031497
        },
        {
          "duration": 0.125,
          "durationTicks": 24,
          "midi": 70,
          "name": "A#4",
          "ticks": 192,
          "time": 1,
          "velocity": 0.7874015748031497
        },
        {
          "duration": 0.125,
          "durationTicks": 24,
          "midi": 36,
          "name": "C2",
          "ticks": 192,
          "time": 1,
          "velocity": 0.7874015748031497
        },
        {
          "duration": 0.125,
          "durationTicks": 24,
          "midi": 70,
          "name": "A#4",
          "ticks": 216,
          "time": 1.125,
          "velocity": 0.7874015748031497
        },
        {
          "duration": 0.125,
          "durationTicks": 24,
          "midi": 54,
          "name": "F#3",
          "ticks": 240,
          "time": 1.25,
          "velocity": 0.7874015748031497
        },
        {
          "duration": 0.125,
          "durationTicks": 24,
          "midi": 70,
          "name": "A#4",
          "ticks": 240,
          "time": 1.25,
          "velocity": 0.7874015748031497
        },
        {
          "duration": 0.25,
          "durationTicks": 48,
          "midi": 44,
          "name": "G#2",
          "ticks": 240,
          "time": 1.25,
          "velocity": 0.7874015748031497
        },
        {
          "duration": 0.125,
          "durationTicks": 24,
          "midi": 70,
          "name": "A#4",
          "ticks": 264,
          "time": 1.375,
          "velocity": 0.7874015748031497
        },
        {
          "duration": 0.125,
          "durationTicks": 24,
          "midi": 39,
          "name": "D#2",
          "ticks": 288,
          "time": 1.5,
          "velocity": 0.7874015748031497
        },
        {
          "duration": 0.125,
          "durationTicks": 24,
          "midi": 70,
          "name": "A#4",
          "ticks": 288,
          "time": 1.5,
          "velocity": 0.7874015748031497
        },
        {
          "duration": 0.125,
          "durationTicks": 24,
          "midi": 38,
          "name": "D2",
          "ticks": 288,
          "time": 1.5,
          "velocity": 0.7874015748031497
        },
        {
          "duration": 0.25,
          "durationTicks": 48,
          "midi": 44,
          "name": "G#2",
          "ticks": 288,
          "time": 1.5,
          "velocity": 0.7874015748031497
        },
        {
          "duration": 0.125,
          "durationTicks": 24,
          "midi": 70,
          "name": "A#4",
          "ticks": 312,
          "time": 1.625,
          "velocity": 0.7874015748031497
        },
        {
          "duration": 0.25,
          "durationTicks": 48,
          "midi": 44,
          "name": "G#2",
          "ticks": 336,
          "time": 1.75,
          "velocity": 0.7874015748031497
        },
        {
          "duration": 0.125,
          "durationTicks": 24,
          "midi": 70,
          "name": "A#4",
          "ticks": 336,
          "time": 1.75,
          "velocity": 0.7874015748031497
        },
        {
          "duration": 0.125,
          "durationTicks": 24,
          "midi": 54,
          "name": "F#3",
          "ticks": 336,
          "time": 1.75,
          "velocity": 0.7874015748031497
        },
        {
          "duration": 0.125,
          "durationTicks": 24,
          "midi": 70,
          "name": "A#4",
          "ticks": 360,
          "time": 1.875,
          "velocity": 0.7874015748031497
        },
        {
          "duration": 0.25,
          "durationTicks": 48,
          "midi": 44,
          "name": "G#2",
          "ticks": 384,
          "time": 2,
          "velocity": 0.7874015748031497
        },
        {
          "duration": 0.125,
          "durationTicks": 24,
          "midi": 36,
          "name": "C2",
          "ticks": 384,
          "time": 2,
          "velocity": 0.7874015748031497
        },
        {
          "duration": 0.125,
          "durationTicks": 24,
          "midi": 70,
          "name": "A#4",
          "ticks": 384,
          "time": 2,
          "velocity": 0.7874015748031497
        },
        {
          "duration": 0.125,
          "durationTicks": 24,
          "midi": 70,
          "name": "A#4",
          "ticks": 408,
          "time": 2.125,
          "velocity": 0.7874015748031497
        },
        {
          "duration": 0.125,
          "durationTicks": 24,
          "midi": 54,
          "name": "F#3",
          "ticks": 432,
          "time": 2.25,
          "velocity": 0.7874015748031497
        },
        {
          "duration": 0.125,
          "durationTicks": 24,
          "midi": 70,
          "name": "A#4",
          "ticks": 432,
          "time": 2.25,
          "velocity": 0.7874015748031497
        },
        {
          "duration": 0.25,
          "durationTicks": 48,
          "midi": 44,
          "name": "G#2",
          "ticks": 432,
          "time": 2.25,
          "velocity": 0.7874015748031497
        },
        {
          "duration": 0.125,
          "durationTicks": 24,
          "midi": 70,
          "name": "A#4",
          "ticks": 456,
          "time": 2.375,
          "velocity": 0.7874015748031497
        },
        {
          "duration": 0.125,
          "durationTicks": 24,
          "midi": 39,
          "name": "D#2",
          "ticks": 480,
          "time": 2.5,
          "velocity": 0.7874015748031497
        },
        {
          "duration": 0.25,
          "durationTicks": 48,
          "midi": 44,
          "name": "G#2",
          "ticks": 480,
          "time": 2.5,
          "velocity": 0.7874015748031497
        },
        {
          "duration": 0.125,
          "durationTicks": 24,
          "midi": 38,
          "name": "D2",
          "ticks": 480,
          "time": 2.5,
          "velocity": 0.7874015748031497
        },
        {
          "duration": 0.125,
          "durationTicks": 24,
          "midi": 70,
          "name": "A#4",
          "ticks": 480,
          "time": 2.5,
          "velocity": 0.7874015748031497
        },
        {
          "duration": 0.125,
          "durationTicks": 24,
          "midi": 70,
          "name": "A#4",
          "ticks": 504,
          "time": 2.625,
          "velocity": 0.7874015748031497
        },
        {
          "duration": 0.125,
          "durationTicks": 24,
          "midi": 54,
          "name": "F#3",
          "ticks": 528,
          "time": 2.75,
          "velocity": 0.7874015748031497
        },
        {
          "duration": 0.125,
          "durationTicks": 24,
          "midi": 70,
          "name": "A#4",
          "ticks": 528,
          "time": 2.75,
          "velocity": 0.7874015748031497
        },
        {
          "duration": 0.25,
          "durationTicks": 48,
          "midi": 44,
          "name": "G#2",
          "ticks": 528,
          "time": 2.75,
          "velocity": 0.7874015748031497
        },
        {
          "duration": 0.125,
          "durationTicks": 24,
          "midi": 70,
          "name": "A#4",
          "ticks": 552,
          "time": 2.875,
          "velocity": 0.7874015748031497
        },
        {
          "duration": 0.25,
          "durationTicks": 48,
          "midi": 44,
          "name": "G#2",
          "ticks": 576,
          "time": 3,
          "velocity": 0.7874015748031497
        },
        {
          "duration": 0.125,
          "durationTicks": 24,
          "midi": 36,
          "name": "C2",
          "ticks": 576,
          "time": 3,
          "velocity": 0.7874015748031497
        },
        {
          "duration": 0.125,
          "durationTicks": 24,
          "midi": 70,
          "name": "A#4",
          "ticks": 576,
          "time": 3,
          "velocity": 0.7874015748031497
        },
        {
          "duration": 0.125,
          "durationTicks": 24,
          "midi": 70,
          "name": "A#4",
          "ticks": 600,
          "time": 3.125,
          "velocity": 0.7874015748031497
        },
        {
          "duration": 0.25,
          "durationTicks": 48,
          "midi": 44,
          "name": "G#2",
          "ticks": 624,
          "time": 3.25,
          "velocity": 0.7874015748031497
        },
        {
          "duration": 0.125,
          "durationTicks": 24,
          "midi": 54,
          "name": "F#3",
          "ticks": 624,
          "time": 3.25,
          "velocity": 0.7874015748031497
        },
        {
          "duration": 0.125,
          "durationTicks": 24,
          "midi": 70,
          "name": "A#4",
          "ticks": 624,
          "time": 3.25,
          "velocity": 0.7874015748031497
        },
        {
          "duration": 0.125,
          "durationTicks": 24,
          "midi": 70,
          "name": "A#4",
          "ticks": 648,
          "time": 3.375,
          "velocity": 0.7874015748031497
        },
        {
          "duration": 0.125,
          "durationTicks": 24,
          "midi": 39,
          "name": "D#2",
          "ticks": 672,
          "time": 3.5,
          "velocity": 0.7874015748031497
        },
        {
          "duration": 0.25,
          "durationTicks": 48,
          "midi": 44,
          "name": "G#2",
          "ticks": 672,
          "time": 3.5,
          "velocity": 0.7874015748031497
        },
        {
          "duration": 0.125,
          "durationTicks": 24,
          "midi": 38,
          "name": "D2",
          "ticks": 672,
          "time": 3.5,
          "velocity": 0.7874015748031497
        },
        {
          "duration": 0.125,
          "durationTicks": 24,
          "midi": 70,
          "name": "A#4",
          "ticks": 672,
          "time": 3.5,
          "velocity": 0.7874015748031497
        },
        {
          "duration": 0.125,
          "durationTicks": 24,
          "midi": 70,
          "name": "A#4",
          "ticks": 696,
          "time": 3.625,
          "velocity": 0.7874015748031497
        },
        {
          "duration": 0.25,
          "durationTicks": 48,
          "midi": 44,
          "name": "G#2",
          "ticks": 720,
          "time": 3.75,
          "velocity": 0.7874015748031497
        },
        {
          "duration": 0.125,
          "durationTicks": 24,
          "midi": 70,
          "name": "A#4",
          "ticks": 720,
          "time": 3.75,
          "velocity": 0.7874015748031497
        },
        {
          "duration": 0.125,
          "durationTicks": 24,
          "midi": 54,
          "name": "F#3",
          "ticks": 720,
          "time": 3.75,
          "velocity": 0.7874015748031497
        },
        {
          "duration": 0.125,
          "durationTicks": 24,
          "midi": 70,
          "name": "A#4",
          "ticks": 744,
          "time": 3.875,
          "velocity": 0.7874015748031497
        },
        {
          "duration": 0.25,
          "durationTicks": 48,
          "midi": 44,
          "name": "G#2",
          "ticks": 768,
          "time": 4,
          "velocity": 0.7874015748031497
        },
        {
          "duration": 0.125,
          "durationTicks": 24,
          "midi": 70,
          "name": "A#4",
          "ticks": 768,
          "time": 4,
          "velocity": 0.7874015748031497
        },
        {
          "duration": 0.125,
          "durationTicks": 24,
          "midi": 36,
          "name": "C2",
          "ticks": 768,
          "time": 4,
          "velocity": 0.7874015748031497
        },
        {
          "duration": 0.125,
          "durationTicks": 24,
          "midi": 70,
          "name": "A#4",
          "ticks": 792,
          "time": 4.125,
          "velocity": 0.7874015748031497
        },
        {
          "duration": 0.125,
          "durationTicks": 24,
          "midi": 54,
          "name": "F#3",
          "ticks": 816,
          "time": 4.25,
          "velocity": 0.7874015748031497
        },
        {
          "duration": 0.125,
          "durationTicks": 24,
          "midi": 70,
          "name": "A#4",
          "ticks": 816,
          "time": 4.25,
          "velocity": 0.7874015748031497
        },
        {
          "duration": 0.25,
          "durationTicks": 48,
          "midi": 44,
          "name": "G#2",
          "ticks": 816,
          "time": 4.25,
          "velocity": 0.7874015748031497
        },
        {
          "duration": 0.125,
          "durationTicks": 24,
          "midi": 70,
          "name": "A#4",
          "ticks": 840,
          "time": 4.375,
          "velocity": 0.7874015748031497
        },
        {
          "duration": 0.125,
          "durationTicks": 24,
          "midi": 39,
          "name": "D#2",
          "ticks": 864,
          "time": 4.5,
          "velocity": 0.7874015748031497
        },
        {
          "duration": 0.25,
          "durationTicks": 48,
          "midi": 44,
          "name": "G#2",
          "ticks": 864,
          "time": 4.5,
          "velocity": 0.7874015748031497
        },
        {
          "duration": 0.125,
          "durationTicks": 24,
          "midi": 38,
          "name": "D2",
          "ticks": 864,
          "time": 4.5,
          "velocity": 0.7874015748031497
        },
        {
          "duration": 0.125,
          "durationTicks": 24,
          "midi": 70,
          "name": "A#4",
          "ticks": 864,
          "time": 4.5,
          "velocity": 0.7874015748031497
        },
        {
          "duration": 0.125,
          "durationTicks": 24,
          "midi": 70,
          "name": "A#4",
          "ticks": 888,
          "time": 4.625,
          "velocity": 0.7874015748031497
        },
        {
          "duration": 0.125,
          "durationTicks": 24,
          "midi": 54,
          "name": "F#3",
          "ticks": 912,
          "time": 4.75,
          "velocity": 0.7874015748031497
        },
        {
          "duration": 0.125,
          "durationTicks": 24,
          "midi": 70,
          "name": "A#4",
          "ticks": 912,
          "time": 4.75,
          "velocity": 0.7874015748031497
        },
        {
          "duration": 0.25,
          "durationTicks": 48,
          "midi": 44,
          "name": "G#2",
          "ticks": 912,
          "time": 4.75,
          "velocity": 0.7874015748031497
        },
        {
          "duration": 0.125,
          "durationTicks": 24,
          "midi": 70,
          "name": "A#4",
          "ticks": 936,
          "time": 4.875,
          "velocity": 0.7874015748031497
        },
        {
          "duration": 0.125,
          "durationTicks": 24,
          "midi": 36,
          "name": "C2",
          "ticks": 960,
          "time": 5,
          "velocity": 0.7874015748031497
        },
        {
          "duration": 0.25,
          "durationTicks": 48,
          "midi": 44,
          "name": "G#2",
          "ticks": 960,
          "time": 5,
          "velocity": 0.7874015748031497
        },
        {
          "duration": 0.125,
          "durationTicks": 24,
          "midi": 70,
          "name": "A#4",
          "ticks": 960,
          "time": 5,
          "velocity": 0.7874015748031497
        },
        {
          "duration": 0.125,
          "durationTicks": 24,
          "midi": 70,
          "name": "A#4",
          "ticks": 984,
          "time": 5.125,
          "velocity": 0.7874015748031497
        },
        {
          "duration": 0.125,
          "durationTicks": 24,
          "midi": 54,
          "name": "F#3",
          "ticks": 1008,
          "time": 5.25,
          "velocity": 0.7874015748031497
        },
        {
          "duration": 0.125,
          "durationTicks": 24,
          "midi": 70,
          "name": "A#4",
          "ticks": 1008,
          "time": 5.25,
          "velocity": 0.7874015748031497
        },
        {
          "duration": 0.25,
          "durationTicks": 48,
          "midi": 44,
          "name": "G#2",
          "ticks": 1008,
          "time": 5.25,
          "velocity": 0.7874015748031497
        },
        {
          "duration": 0.125,
          "durationTicks": 24,
          "midi": 70,
          "name": "A#4",
          "ticks": 1032,
          "time": 5.375,
          "velocity": 0.7874015748031497
        },
        {
          "duration": 0.125,
          "durationTicks": 24,
          "midi": 39,
          "name": "D#2",
          "ticks": 1056,
          "time": 5.5,
          "velocity": 0.7874015748031497
        },
        {
          "duration": 0.25,
          "durationTicks": 48,
          "midi": 44,
          "name": "G#2",
          "ticks": 1056,
          "time": 5.5,
          "velocity": 0.7874015748031497
        },
        {
          "duration": 0.125,
          "durationTicks": 24,
          "midi": 38,
          "name": "D2",
          "ticks": 1056,
          "time": 5.5,
          "velocity": 0.7874015748031497
        },
        {
          "duration": 0.125,
          "durationTicks": 24,
          "midi": 70,
          "name": "A#4",
          "ticks": 1056,
          "time": 5.5,
          "velocity": 0.7874015748031497
        },
        {
          "duration": 0.125,
          "durationTicks": 24,
          "midi": 70,
          "name": "A#4",
          "ticks": 1080,
          "time": 5.625,
          "velocity": 0.7874015748031497
        },
        {
          "duration": 0.25,
          "durationTicks": 48,
          "midi": 44,
          "name": "G#2",
          "ticks": 1104,
          "time": 5.75,
          "velocity": 0.7874015748031497
        },
        {
          "duration": 0.125,
          "durationTicks": 24,
          "midi": 54,
          "name": "F#3",
          "ticks": 1104,
          "time": 5.75,
          "velocity": 0.7874015748031497
        },
        {
          "duration": 0.125,
          "durationTicks": 24,
          "midi": 70,
          "name": "A#4",
          "ticks": 1104,
          "time": 5.75,
          "velocity": 0.7874015748031497
        },
        {
          "duration": 0.125,
          "durationTicks": 24,
          "midi": 70,
          "name": "A#4",
          "ticks": 1128,
          "time": 5.875,
          "velocity": 0.7874015748031497
        },
        {
          "duration": 0.25,
          "durationTicks": 48,
          "midi": 44,
          "name": "G#2",
          "ticks": 1152,
          "time": 6,
          "velocity": 0.7874015748031497
        },
        {
          "duration": 0.125,
          "durationTicks": 24,
          "midi": 36,
          "name": "C2",
          "ticks": 1152,
          "time": 6,
          "velocity": 0.7874015748031497
        },
        {
          "duration": 0.125,
          "durationTicks": 24,
          "midi": 70,
          "name": "A#4",
          "ticks": 1152,
          "time": 6,
          "velocity": 0.7874015748031497
        },
        {
          "duration": 0.125,
          "durationTicks": 24,
          "midi": 70,
          "name": "A#4",
          "ticks": 1176,
          "time": 6.125,
          "velocity": 0.7874015748031497
        },
        {
          "duration": 0.25,
          "durationTicks": 48,
          "midi": 44,
          "name": "G#2",
          "ticks": 1200,
          "time": 6.25,
          "velocity": 0.7874015748031497
        },
        {
          "duration": 0.125,
          "durationTicks": 24,
          "midi": 54,
          "name": "F#3",
          "ticks": 1200,
          "time": 6.25,
          "velocity": 0.7874015748031497
        },
        {
          "duration": 0.125,
          "durationTicks": 24,
          "midi": 70,
          "name": "A#4",
          "ticks": 1200,
          "time": 6.25,
          "velocity": 0.7874015748031497
        },
        {
          "duration": 0.125,
          "durationTicks": 24,
          "midi": 70,
          "name": "A#4",
          "ticks": 1224,
          "time": 6.375,
          "velocity": 0.7874015748031497
        },
        {
          "duration": 0.125,
          "durationTicks": 24,
          "midi": 39,
          "name": "D#2",
          "ticks": 1248,
          "time": 6.5,
          "velocity": 0.7874015748031497
        },
        {
          "duration": 0.125,
          "durationTicks": 24,
          "midi": 38,
          "name": "D2",
          "ticks": 1248,
          "time": 6.5,
          "velocity": 0.7874015748031497
        },
        {
          "duration": 0.25,
          "durationTicks": 48,
          "midi": 44,
          "name": "G#2",
          "ticks": 1248,
          "time": 6.5,
          "velocity": 0.7874015748031497
        },
        {
          "duration": 0.125,
          "durationTicks": 24,
          "midi": 70,
          "name": "A#4",
          "ticks": 1248,
          "time": 6.5,
          "velocity": 0.7874015748031497
        },
        {
          "duration": 0.125,
          "durationTicks": 24,
          "midi": 70,
          "name": "A#4",
          "ticks": 1272,
          "time": 6.625,
          "velocity": 0.7874015748031497
        },
        {
          "duration": 0.25,
          "durationTicks": 48,
          "midi": 44,
          "name": "G#2",
          "ticks": 1296,
          "time": 6.75,
          "velocity": 0.7874015748031497
        },
        {
          "duration": 0.125,
          "durationTicks": 24,
          "midi": 54,
          "name": "F#3",
          "ticks": 1296,
          "time": 6.75,
          "velocity": 0.7874015748031497
        },
        {
          "duration": 0.125,
          "durationTicks": 24,
          "midi": 70,
          "name": "A#4",
          "ticks": 1296,
          "time": 6.75,
          "velocity": 0.7874015748031497
        },
        {
          "duration": 0.125,
          "durationTicks": 24,
          "midi": 70,
          "name": "A#4",
          "ticks": 1320,
          "time": 6.875,
          "velocity": 0.7874015748031497
        },
        {
          "duration": 0.125,
          "durationTicks": 24,
          "midi": 36,
          "name": "C2",
          "ticks": 1344,
          "time": 7,
          "velocity": 0.7874015748031497
        },
        {
          "duration": 0.125,
          "durationTicks": 24,
          "midi": 35,
          "name": "B1",
          "ticks": 1344,
          "time": 7,
          "velocity": 0.7874015748031497
        },
        {
          "duration": 0.125,
          "durationTicks": 24,
          "midi": 54,
          "name": "F#3",
          "ticks": 1344,
          "time": 7,
          "velocity": 0.7874015748031497
        },
        {
          "duration": 0.125,
          "durationTicks": 24,
          "midi": 57,
          "name": "A3",
          "ticks": 1344,
          "time": 7,
          "velocity": 0.7874015748031497
        },
        {
          "duration": 0.125,
          "durationTicks": 24,
          "midi": 39,
          "name": "D#2",
          "ticks": 1392,
          "time": 7.25,
          "velocity": 0.7874015748031497
        },
        {
          "duration": 0.125,
          "durationTicks": 24,
          "midi": 54,
          "name": "F#3",
          "ticks": 1488,
          "time": 7.75,
          "velocity": 0.7874015748031497
        },
        {
          "duration": 0.125,
          "durationTicks": 24,
          "midi": 36,
          "name": "C2",
          "ticks": 1536,
          "time": 8,
          "velocity": 0.7874015748031497
        },
        {
          "duration": 0.125,
          "durationTicks": 24,
          "midi": 54,
          "name": "F#3",
          "ticks": 1536,
          "time": 8,
          "velocity": 0.7874015748031497
        },
        {
          "duration": 0.125,
          "durationTicks": 24,
          "midi": 57,
          "name": "A3",
          "ticks": 1536,
          "time": 8,
          "velocity": 0.7874015748031497
        },
        {
          "duration": 0.125,
          "durationTicks": 24,
          "midi": 39,
          "name": "D#2",
          "ticks": 1632,
          "time": 8.5,
          "velocity": 0.7874015748031497
        },
        {
          "duration": 0.125,
          "durationTicks": 24,
          "midi": 38,
          "name": "D2",
          "ticks": 1632,
          "time": 8.5,
          "velocity": 0.7874015748031497
        },
        {
          "duration": 0.125,
          "durationTicks": 24,
          "midi": 54,
          "name": "F#3",
          "ticks": 1632,
          "time": 8.5,
          "velocity": 0.7874015748031497
        },
        {
          "duration": 0.125,
          "durationTicks": 24,
          "midi": 57,
          "name": "A3",
          "ticks": 1632,
          "time": 8.5,
          "velocity": 0.7874015748031497
        },
        {
          "duration": 0.125,
          "durationTicks": 24,
          "midi": 36,
          "name": "C2",
          "ticks": 1728,
          "time": 9,
          "velocity": 0.7874015748031497
        },
        {
          "duration": 0.125,
          "durationTicks": 24,
          "midi": 35,
          "name": "B1",
          "ticks": 1728,
          "time": 9,
          "velocity": 0.7874015748031497
        },
        {
          "duration": 0.125,
          "durationTicks": 24,
          "midi": 54,
          "name": "F#3",
          "ticks": 1728,
          "time": 9,
          "velocity": 0.7874015748031497
        },
        {
          "duration": 0.125,
          "durationTicks": 24,
          "midi": 49,
          "name": "C#3",
          "ticks": 1728,
          "time": 9,
          "velocity": 0.7874015748031497
        }
      ],
      "endOfTrackTicks": 1939
    },
    {
      "channel": 0,
      "controlChanges": {
        "6": [
          {
            "number": 6,
            "ticks": 0,
            "time": 0,
            "value": 0.09448818897637795
          },
          {
            "number": 6,
            "ticks": 0,
            "time": 0,
            "value": 0.09448818897637795
          },
          {
            "number": 6,
            "ticks": 0,
            "time": 0,
            "value": 0.09448818897637795
          },
          {
            "number": 6,
            "ticks": 1920,
            "time": 10,
            "value": 0.09448818897637795
          },
          {
            "number": 6,
            "ticks": 1921,
            "time": 10.005208333333334,
            "value": 0.09448818897637795
          }
        ],
        "7": [
          {
            "number": 7,
            "ticks": 0,
            "time": 0,
            "value": 0.9921259842519685
          },
          {
            "number": 7,
            "ticks": 0,
            "time": 0,
            "value": 0.9921259842519685
          },
          {
            "number": 7,
            "ticks": 0,
            "time": 0,
            "value": 0.9921259842519685
          },
          {
            "number": 7,
            "ticks": 0,
            "time": 0,
            "value": 0.9921259842519685
          },
          {
            "number": 7,
            "ticks": 0,
            "time": 0,
            "value": 0.9921259842519685
          },
          {
            "number": 7,
            "ticks": 0,
            "time": 0,
            "value": 0.9921259842519685
          },
          {
            "number": 7,
            "ticks": 1920,
            "time": 10,
            "value": 0.9921259842519685
          },
          {
            "number": 7,
            "ticks": 1920,
            "time": 10,
            "value": 0.9921259842519685
          },
          {
            "number": 7,
            "ticks": 1921,
            "time": 10.005208333333334,
            "value": 0.9921259842519685
          }
        ],
        "10": [
          {
            "number": 10,
            "ticks": 0,
            "time": 0,
            "value": 0.5039370078740157
          },
          {
            "number": 10,
            "ticks": 0,
            "time": 0,
            "value": 0.5039370078740157
          },
          {
            "number": 10,
            "ticks": 0,
            "time": 0,
            "value": 0.5039370078740157
          },
          {
            "number": 10,
            "ticks": 0,
            "time": 0,
            "value": 0.5039370078740157
          },
          {
            "number": 10,
            "ticks": 0,
            "time": 0,
            "value": 0.5039370078740157
          },
          {
            "number": 10,
            "ticks": 0,
            "time": 0,
            "value": 0.5039370078740157
          },
          {
            "number": 10,
            "ticks": 1920,
            "time": 10,
            "value": 0.5039370078740157
          },
          {
            "number": 10,
            "ticks": 1920,
            "time": 10,
            "value": 0.5039370078740157
          },
          {
            "number": 10,
            "ticks": 1921,
            "time": 10.005208333333334,
            "value": 0.5039370078740157
          }
        ],
        "100": [
          {
            "number": 100,
            "ticks": 0,
            "time": 0,
            "value": 0
          },
          {
            "number": 100,
            "ticks": 0,
            "time": 0,
            "value": 0
          },
          {
            "number": 100,
            "ticks": 0,
            "time": 0,
            "value": 0
          },
          {
            "number": 100,
            "ticks": 1920,
            "time": 10,
            "value": 0
          },
          {
            "number": 100,
            "ticks": 1921,
            "time": 10.005208333333334,
            "value": 0
          }
        ],
        "101": [
          {
            "number": 101,
            "ticks": 0,
            "time": 0,
            "value": 0
          },
          {
            "number": 101,
            "ticks": 0,
            "time": 0,
            "value": 0
          },
          {
            "number": 101,
            "ticks": 0,
            "time": 0,
            "value": 0
          },
          {
            "number": 101,
            "ticks": 1920,
            "time": 10,
            "value": 0
          },
          {
            "number": 101,
            "ticks": 1921,
            "time": 10.005208333333334,
            "value": 0
          }
        ]
      },
      "pitchBends": [
        {
          "ticks": 0,
          "time": 0,
          "value": 0
        },
        {
          "ticks": 0,
          "time": 0,
          "value": 0
        },
        {
          "ticks": 0,
          "time": 0,
          "value": 0
        },
        {
          "ticks": 0,
          "time": 0,
          "value": 0
        },
        {
          "ticks": 0,
          "time": 0,
          "value": 0
        },
        {
          "ticks": 0,
          "time": 0,
          "value": 0
        },
        {
          "ticks": 1920,
          "time": 10,
          "value": 0
        },
        {
          "ticks": 1920,
          "time": 10,
          "value": 0
        },
        {
          "ticks": 1921,
          "time": 10.005208333333334,
          "value": 0
        }
      ],
      "instrument": {
        "family": "piano",
        "number": 0,
        "name": "acoustic grand piano"
      },
      "name": "Acoustic Grand Piano",
      "notes": [
        {
          "duration": 0.25,
          "durationTicks": 48,
          "midi": 41,
          "name": "F2",
          "ticks": 0,
          "time": 0,
          "velocity": 0.5511811023622047
        },
        {
          "duration": 0.5,
          "durationTicks": 96,
          "midi": 57,
          "name": "A3",
          "ticks": 0,
          "time": 0,
          "velocity": 0.5511811023622047
        },
        {
          "duration": 0.5,
          "durationTicks": 96,
          "midi": 69,
          "name": "A4",
          "ticks": 0,
          "time": 0,
          "velocity": 0.5511811023622047
        },
        {
          "duration": 0.5,
          "durationTicks": 96,
          "midi": 72,
          "name": "C5",
          "ticks": 0,
          "time": 0,
          "velocity": 0.5511811023622047
        },
        {
          "duration": 0.5,
          "durationTicks": 96,
          "midi": 77,
          "name": "F5",
          "ticks": 0,
          "time": 0,
          "velocity": 0.5511811023622047
        },
        {
          "duration": 0.125,
          "durationTicks": 24,
          "midi": 84,
          "name": "C6",
          "ticks": 0,
          "time": 0,
          "velocity": 0.5511811023622047
        },
        {
          "duration": 0.125,
          "durationTicks": 24,
          "midi": 41,
          "name": "F2",
          "ticks": 48,
          "time": 0.25,
          "velocity": 0.5511811023622047
        },
        {
          "duration": 0.125,
          "durationTicks": 24,
          "midi": 41,
          "name": "F2",
          "ticks": 72,
          "time": 0.375,
          "velocity": 0.5511811023622047
        },
        {
          "duration": 0.125,
          "durationTicks": 24,
          "midi": 81,
          "name": "A5",
          "ticks": 96,
          "time": 0.5,
          "velocity": 0.5511811023622047
        },
        {
          "duration": 0.25,
          "durationTicks": 48,
          "midi": 41,
          "name": "F2",
          "ticks": 96,
          "time": 0.5,
          "velocity": 0.5511811023622047
        },
        {
          "duration": 0.25,
          "durationTicks": 48,
          "midi": 29,
          "name": "F1",
          "ticks": 96,
          "time": 0.5,
          "velocity": 0.5511811023622047
        },
        {
          "duration": 0.25,
          "durationTicks": 48,
          "midi": 45,
          "name": "A2",
          "ticks": 144,
          "time": 0.75,
          "velocity": 0.5511811023622047
        },
        {
          "duration": 0.25,
          "durationTicks": 48,
          "midi": 33,
          "name": "A1",
          "ticks": 144,
          "time": 0.75,
          "velocity": 0.5511811023622047
        },
        {
          "duration": 0.5,
          "durationTicks": 96,
          "midi": 34,
          "name": "A#1",
          "ticks": 192,
          "time": 1,
          "velocity": 0.5511811023622047
        },
        {
          "duration": 0.5,
          "durationTicks": 96,
          "midi": 46,
          "name": "A#2",
          "ticks": 192,
          "time": 1,
          "velocity": 0.5511811023622047
        },
        {
          "duration": 0.5,
          "durationTicks": 96,
          "midi": 74,
          "name": "D5",
          "ticks": 192,
          "time": 1,
          "velocity": 0.5511811023622047
        },
        {
          "duration": 0.5,
          "durationTicks": 96,
          "midi": 77,
          "name": "F5",
          "ticks": 192,
          "time": 1,
          "velocity": 0.5511811023622047
        },
        {
          "duration": 0.125,
          "durationTicks": 24,
          "midi": 82,
          "name": "A#5",
          "ticks": 192,
          "time": 1,
          "velocity": 0.5511811023622047
        },
        {
          "duration": 0.125,
          "durationTicks": 24,
          "midi": 81,
          "name": "A5",
          "ticks": 240,
          "time": 1.25,
          "velocity": 0.5511811023622047
        },
        {
          "duration": 0.125,
          "durationTicks": 24,
          "midi": 79,
          "name": "G5",
          "ticks": 288,
          "time": 1.5,
          "velocity": 0.5511811023622047
        },
        {
          "duration": 0.5,
          "durationTicks": 96,
          "midi": 79,
          "name": "G5",
          "ticks": 288,
          "time": 1.5,
          "velocity": 0.5511811023622047
        },
        {
          "duration": 0.5,
          "durationTicks": 96,
          "midi": 76,
          "name": "E5",
          "ticks": 288,
          "time": 1.5,
          "velocity": 0.5511811023622047
        },
        {
          "duration": 0.25,
          "durationTicks": 48,
          "midi": 48,
          "name": "C3",
          "ticks": 288,
          "time": 1.5,
          "velocity": 0.5511811023622047
        },
        {
          "duration": 0.25,
          "durationTicks": 48,
          "midi": 36,
          "name": "C2",
          "ticks": 288,
          "time": 1.5,
          "velocity": 0.5511811023622047
        },
        {
          "duration": 0.5,
          "durationTicks": 96,
          "midi": 72,
          "name": "C5",
          "ticks": 288,
          "time": 1.5,
          "velocity": 0.5511811023622047
        },
        {
          "duration": 0.125,
          "durationTicks": 24,
          "midi": 84,
          "name": "C6",
          "ticks": 384,
          "time": 2,
          "velocity": 0.5511811023622047
        },
        {
          "duration": 0.5,
          "durationTicks": 96,
          "midi": 77,
          "name": "F5",
          "ticks": 384,
          "time": 2,
          "velocity": 0.5511811023622047
        },
        {
          "duration": 0.5,
          "durationTicks": 96,
          "midi": 72,
          "name": "C5",
          "ticks": 384,
          "time": 2,
          "velocity": 0.5511811023622047
        },
        {
          "duration": 0.5,
          "durationTicks": 96,
          "midi": 69,
          "name": "A4",
          "ticks": 384,
          "time": 2,
          "velocity": 0.5511811023622047
        },
        {
          "duration": 0.5,
          "durationTicks": 96,
          "midi": 57,
          "name": "A3",
          "ticks": 384,
          "time": 2,
          "velocity": 0.5511811023622047
        },
        {
          "duration": 0.25,
          "durationTicks": 48,
          "midi": 41,
          "name": "F2",
          "ticks": 384,
          "time": 2,
          "velocity": 0.5511811023622047
        },
        {
          "duration": 0.125,
          "durationTicks": 24,
          "midi": 41,
          "name": "F2",
          "ticks": 432,
          "time": 2.25,
          "velocity": 0.5511811023622047
        },
        {
          "duration": 0.125,
          "durationTicks": 24,
          "midi": 41,
          "name": "F2",
          "ticks": 456,
          "time": 2.375,
          "velocity": 0.5511811023622047
        },
        {
          "duration": 0.25,
          "durationTicks": 48,
          "midi": 29,
          "name": "F1",
          "ticks": 480,
          "time": 2.5,
          "velocity": 0.5511811023622047
        },
        {
          "duration": 0.25,
          "durationTicks": 48,
          "midi": 41,
          "name": "F2",
          "ticks": 480,
          "time": 2.5,
          "velocity": 0.5511811023622047
        },
        {
          "duration": 0.125,
          "durationTicks": 24,
          "midi": 81,
          "name": "A5",
          "ticks": 480,
          "time": 2.5,
          "velocity": 0.5511811023622047
        },
        {
          "duration": 0.25,
          "durationTicks": 48,
          "midi": 45,
          "name": "A2",
          "ticks": 528,
          "time": 2.75,
          "velocity": 0.5511811023622047
        },
        {
          "duration": 0.25,
          "durationTicks": 48,
          "midi": 33,
          "name": "A1",
          "ticks": 528,
          "time": 2.75,
          "velocity": 0.5511811023622047
        },
        {
          "duration": 0.5,
          "durationTicks": 96,
          "midi": 34,
          "name": "A#1",
          "ticks": 576,
          "time": 3,
          "velocity": 0.5511811023622047
        },
        {
          "duration": 0.5,
          "durationTicks": 96,
          "midi": 46,
          "name": "A#2",
          "ticks": 576,
          "time": 3,
          "velocity": 0.5511811023622047
        },
        {
          "duration": 0.5,
          "durationTicks": 96,
          "midi": 74,
          "name": "D5",
          "ticks": 576,
          "time": 3,
          "velocity": 0.5511811023622047
        },
        {
          "duration": 0.5,
          "durationTicks": 96,
          "midi": 77,
          "name": "F5",
          "ticks": 576,
          "time": 3,
          "velocity": 0.5511811023622047
        },
        {
          "duration": 0.125,
          "durationTicks": 24,
          "midi": 82,
          "name": "A#5",
          "ticks": 576,
          "time": 3,
          "velocity": 0.5511811023622047
        },
        {
          "duration": 0.125,
          "durationTicks": 24,
          "midi": 86,
          "name": "D6",
          "ticks": 624,
          "time": 3.25,
          "velocity": 0.5511811023622047
        },
        {
          "duration": 0.125,
          "durationTicks": 24,
          "midi": 84,
          "name": "C6",
          "ticks": 672,
          "time": 3.5,
          "velocity": 0.5511811023622047
        },
        {
          "duration": 0.5,
          "durationTicks": 96,
          "midi": 79,
          "name": "G5",
          "ticks": 672,
          "time": 3.5,
          "velocity": 0.5511811023622047
        },
        {
          "duration": 0.5,
          "durationTicks": 96,
          "midi": 76,
          "name": "E5",
          "ticks": 672,
          "time": 3.5,
          "velocity": 0.5511811023622047
        },
        {
          "duration": 0.25,
          "durationTicks": 48,
          "midi": 48,
          "name": "C3",
          "ticks": 672,
          "time": 3.5,
          "velocity": 0.5511811023622047
        },
        {
          "duration": 0.25,
          "durationTicks": 48,
          "midi": 36,
          "name": "C2",
          "ticks": 672,
          "time": 3.5,
          "velocity": 0.5511811023622047
        },
        {
          "duration": 0.5,
          "durationTicks": 96,
          "midi": 74,
          "name": "D5",
          "ticks": 768,
          "time": 4,
          "velocity": 0.5511811023622047
        },
        {
          "duration": 0.5,
          "durationTicks": 96,
          "midi": 62,
          "name": "D4",
          "ticks": 768,
          "time": 4,
          "velocity": 0.5511811023622047
        },
        {
          "duration": 0.25,
          "durationTicks": 48,
          "midi": 46,
          "name": "A#2",
          "ticks": 768,
          "time": 4,
          "velocity": 0.5511811023622047
        },
        {
          "duration": 0.125,
          "durationTicks": 24,
          "midi": 86,
          "name": "D6",
          "ticks": 768,
          "time": 4,
          "velocity": 0.5511811023622047
        },
        {
          "duration": 0.125,
          "durationTicks": 24,
          "midi": 89,
          "name": "F6",
          "ticks": 816,
          "time": 4.25,
          "velocity": 0.5511811023622047
        },
        {
          "duration": 0.125,
          "durationTicks": 24,
          "midi": 46,
          "name": "A#2",
          "ticks": 816,
          "time": 4.25,
          "velocity": 0.5511811023622047
        },
        {
          "duration": 0.125,
          "durationTicks": 24,
          "midi": 46,
          "name": "A#2",
          "ticks": 840,
          "time": 4.375,
          "velocity": 0.5511811023622047
        },
        {
          "duration": 0.25,
          "durationTicks": 48,
          "midi": 46,
          "name": "A#2",
          "ticks": 864,
          "time": 4.5,
          "velocity": 0.5511811023622047
        },
        {
          "duration": 0.25,
          "durationTicks": 48,
          "midi": 34,
          "name": "A#1",
          "ticks": 864,
          "time": 4.5,
          "velocity": 0.5511811023622047
        },
        {
          "duration": 0.125,
          "durationTicks": 24,
          "midi": 88,
          "name": "E6",
          "ticks": 864,
          "time": 4.5,
          "velocity": 0.5511811023622047
        },
        {
          "duration": 0.25,
          "durationTicks": 48,
          "midi": 50,
          "name": "D3",
          "ticks": 912,
          "time": 4.75,
          "velocity": 0.5511811023622047
        },
        {
          "duration": 0.25,
          "durationTicks": 48,
          "midi": 38,
          "name": "D2",
          "ticks": 912,
          "time": 4.75,
          "velocity": 0.5511811023622047
        },
        {
          "duration": 0.125,
          "durationTicks": 24,
          "midi": 86,
          "name": "D6",
          "ticks": 912,
          "time": 4.75,
          "velocity": 0.5511811023622047
        },
        {
          "duration": 0.125,
          "durationTicks": 24,
          "midi": 84,
          "name": "C6",
          "ticks": 960,
          "time": 5,
          "velocity": 0.5511811023622047
        },
        {
          "duration": 0.875,
          "durationTicks": 168,
          "midi": 62,
          "name": "D4",
          "ticks": 960,
          "time": 5,
          "velocity": 0.5511811023622047
        },
        {
          "duration": 0.875,
          "durationTicks": 168,
          "midi": 74,
          "name": "D5",
          "ticks": 960,
          "time": 5,
          "velocity": 0.5511811023622047
        },
        {
          "duration": 0.5,
          "durationTicks": 96,
          "midi": 38,
          "name": "D2",
          "ticks": 960,
          "time": 5,
          "velocity": 0.5511811023622047
        },
        {
          "duration": 0.5,
          "durationTicks": 96,
          "midi": 50,
          "name": "D3",
          "ticks": 960,
          "time": 5,
          "velocity": 0.5511811023622047
        },
        {
          "duration": 0.125,
          "durationTicks": 24,
          "midi": 89,
          "name": "F6",
          "ticks": 1008,
          "time": 5.25,
          "velocity": 0.5511811023622047
        },
        {
          "duration": 0.125,
          "durationTicks": 24,
          "midi": 84,
          "name": "C6",
          "ticks": 1056,
          "time": 5.5,
          "velocity": 0.5511811023622047
        },
        {
          "duration": 0.5,
          "durationTicks": 96,
          "midi": 38,
          "name": "D2",
          "ticks": 1056,
          "time": 5.5,
          "velocity": 0.5511811023622047
        },
        {
          "duration": 0.5,
          "durationTicks": 96,
          "midi": 50,
          "name": "D3",
          "ticks": 1056,
          "time": 5.5,
          "velocity": 0.5511811023622047
        },
        {
          "duration": 0.125,
          "durationTicks": 24,
          "midi": 82,
          "name": "A#5",
          "ticks": 1104,
          "time": 5.75,
          "velocity": 0.5511811023622047
        },
        {
          "duration": 0.5,
          "durationTicks": 96,
          "midi": 73,
          "name": "C#5",
          "ticks": 1152,
          "time": 6,
          "velocity": 0.5511811023622047
        },
        {
          "duration": 0.5,
          "durationTicks": 96,
          "midi": 61,
          "name": "C#4",
          "ticks": 1152,
          "time": 6,
          "velocity": 0.5511811023622047
        },
        {
          "duration": 0.25,
          "durationTicks": 48,
          "midi": 45,
          "name": "A2",
          "ticks": 1152,
          "time": 6,
          "velocity": 0.5511811023622047
        },
        {
          "duration": 0.125,
          "durationTicks": 24,
          "midi": 81,
          "name": "A5",
          "ticks": 1152,
          "time": 6,
          "velocity": 0.5511811023622047
        },
        {
          "duration": 0.125,
          "durationTicks": 24,
          "midi": 45,
          "name": "A2",
          "ticks": 1200,
          "time": 6.25,
          "velocity": 0.5511811023622047
        },
        {
          "duration": 0.125,
          "durationTicks": 24,
          "midi": 82,
          "name": "A#5",
          "ticks": 1200,
          "time": 6.25,
          "velocity": 0.5511811023622047
        },
        {
          "duration": 0.125,
          "durationTicks": 24,
          "midi": 45,
          "name": "A2",
          "ticks": 1224,
          "time": 6.375,
          "velocity": 0.5511811023622047
        },
        {
          "duration": 0.25,
          "durationTicks": 48,
          "midi": 45,
          "name": "A2",
          "ticks": 1248,
          "time": 6.5,
          "velocity": 0.5511811023622047
        },
        {
          "duration": 0.25,
          "durationTicks": 48,
          "midi": 33,
          "name": "A1",
          "ticks": 1248,
          "time": 6.5,
          "velocity": 0.5511811023622047
        },
        {
          "duration": 0.125,
          "durationTicks": 24,
          "midi": 81,
          "name": "A5",
          "ticks": 1248,
          "time": 6.5,
          "velocity": 0.5511811023622047
        },
        {
          "duration": 0.125,
          "durationTicks": 24,
          "midi": 79,
          "name": "G5",
          "ticks": 1296,
          "time": 6.75,
          "velocity": 0.5511811023622047
        },
        {
          "duration": 0.25,
          "durationTicks": 48,
          "midi": 37,
          "name": "C#2",
          "ticks": 1296,
          "time": 6.75,
          "velocity": 0.5511811023622047
        },
        {
          "duration": 0.25,
          "durationTicks": 48,
          "midi": 49,
          "name": "C#3",
          "ticks": 1296,
          "time": 6.75,
          "velocity": 0.5511811023622047
        },
        {
          "duration": 0.125,
          "durationTicks": 24,
          "midi": 84,
          "name": "C6",
          "ticks": 1344,
          "time": 7,
          "velocity": 0.5511811023622047
        },
        {
          "duration": 0.25,
          "durationTicks": 48,
          "midi": 48,
          "name": "C3",
          "ticks": 1344,
          "time": 7,
          "velocity": 0.5511811023622047
        },
        {
          "duration": 0.5,
          "durationTicks": 96,
          "midi": 64,
          "name": "E4",
          "ticks": 1344,
          "time": 7,
          "velocity": 0.5511811023622047
        },
        {
          "duration": 0.5,
          "durationTicks": 96,
          "midi": 76,
          "name": "E5",
          "ticks": 1344,
          "time": 7,
          "velocity": 0.5511811023622047
        },
        {
          "duration": 0.125,
          "durationTicks": 24,
          "midi": 48,
          "name": "C3",
          "ticks": 1392,
          "time": 7.25,
          "velocity": 0.5511811023622047
        },
        {
          "duration": 0.625,
          "durationTicks": 120,
          "midi": 84,
          "name": "C6",
          "ticks": 1392,
          "time": 7.25,
          "velocity": 0.5511811023622047
        },
        {
          "duration": 0.625,
          "durationTicks": 120,
          "midi": 88,
          "name": "E6",
          "ticks": 1392,
          "time": 7.25,
          "velocity": 0.5511811023622047
        },
        {
          "duration": 0.625,
          "durationTicks": 120,
          "midi": 79,
          "name": "G5",
          "ticks": 1392,
          "time": 7.25,
          "velocity": 0.5511811023622047
        },
        {
          "duration": 0.125,
          "durationTicks": 24,
          "midi": 48,
          "name": "C3",
          "ticks": 1416,
          "time": 7.375,
          "velocity": 0.5511811023622047
        },
        {
          "duration": 0.125,
          "durationTicks": 24,
          "midi": 82,
          "name": "A#5",
          "ticks": 1488,
          "time": 7.75,
          "velocity": 0.5511811023622047
        },
        {
          "duration": 0.25,
          "durationTicks": 48,
          "midi": 41,
          "name": "F2",
          "ticks": 1536,
          "time": 8,
          "velocity": 0.5511811023622047
        },
        {
          "duration": 0.5,
          "durationTicks": 96,
          "midi": 60,
          "name": "C4",
          "ticks": 1536,
          "time": 8,
          "velocity": 0.5511811023622047
        },
        {
          "duration": 0.5,
          "durationTicks": 96,
          "midi": 77,
          "name": "F5",
          "ticks": 1536,
          "time": 8,
          "velocity": 0.5511811023622047
        },
        {
          "duration": 0.125,
          "durationTicks": 24,
          "midi": 81,
          "name": "A5",
          "ticks": 1536,
          "time": 8,
          "velocity": 0.5511811023622047
        },
        {
          "duration": 0.125,
          "durationTicks": 24,
          "midi": 41,
          "name": "F2",
          "ticks": 1584,
          "time": 8.25,
          "velocity": 0.5511811023622047
        },
        {
          "duration": 0.125,
          "durationTicks": 24,
          "midi": 41,
          "name": "F2",
          "ticks": 1608,
          "time": 8.375,
          "velocity": 0.5511811023622047
        },
        {
          "duration": 0.25,
          "durationTicks": 48,
          "midi": 48,
          "name": "C3",
          "ticks": 1632,
          "time": 8.5,
          "velocity": 0.5511811023622047
        },
        {
          "duration": 0.5,
          "durationTicks": 96,
          "midi": 64,
          "name": "E4",
          "ticks": 1632,
          "time": 8.5,
          "velocity": 0.5511811023622047
        },
        {
          "duration": 0.5,
          "durationTicks": 96,
          "midi": 76,
          "name": "E5",
          "ticks": 1632,
          "time": 8.5,
          "velocity": 0.5511811023622047
        },
        {
          "duration": 0.125,
          "durationTicks": 24,
          "midi": 84,
          "name": "C6",
          "ticks": 1632,
          "time": 8.5,
          "velocity": 0.5511811023622047
        },
        {
          "duration": 0.125,
          "durationTicks": 24,
          "midi": 48,
          "name": "C3",
          "ticks": 1680,
          "time": 8.75,
          "velocity": 0.5511811023622047
        },
        {
          "duration": 0.125,
          "durationTicks": 24,
          "midi": 48,
          "name": "C3",
          "ticks": 1704,
          "time": 8.875,
          "velocity": 0.5511811023622047
        },
        {
          "duration": 0.25,
          "durationTicks": 48,
          "midi": 41,
          "name": "F2",
          "ticks": 1728,
          "time": 9,
          "velocity": 0.5511811023622047
        },
        {
          "duration": 0.5,
          "durationTicks": 96,
          "midi": 65,
          "name": "F4",
          "ticks": 1728,
          "time": 9,
          "velocity": 0.5511811023622047
        },
        {
          "duration": 0.5,
          "durationTicks": 96,
          "midi": 77,
          "name": "F5",
          "ticks": 1728,
          "time": 9,
          "velocity": 0.5511811023622047
        },
        {
          "duration": 0.125,
          "durationTicks": 24,
          "midi": 89,
          "name": "F6",
          "ticks": 1728,
          "time": 9,
          "velocity": 0.5511811023622047
        }
      ],
      "endOfTrackTicks": 1939
    },
    {
      "channel": 0,
      "controlChanges": {
        "6": [
          {
            "number": 6,
            "ticks": 0,
            "time": 0,
            "value": 0.09448818897637795
          }
        ],
        "7": [
          {
            "number": 7,
            "ticks": 0,
            "time": 0,
            "value": 0.9921259842519685
          },
          {
            "number": 7,
            "ticks": 0,
            "time": 0,
            "value": 0.9921259842519685
          }
        ],
        "10": [
          {
            "number": 10,
            "ticks": 0,
            "time": 0,
            "value": 0.5039370078740157
          },
          {
            "number": 10,
            "ticks": 0,
            "time": 0,
            "value": 0.5039370078740157
          }
        ],
        "100": [
          {
            "number": 100,
            "ticks": 0,
            "time": 0,
            "value": 0
          }
        ],
        "101": [
          {
            "number": 101,
            "ticks": 0,
            "time": 0,
            "value": 0
          }
        ]
      },
      "pitchBends": [
        {
          "ticks": 0,
          "time": 0,
          "value": 0
        },
        {
          "ticks": 0,
          "time": 0,
          "value": 0
        }
      ],
      "instrument": {
        "family": "piano",
        "number": 0,
        "name": "acoustic grand piano"
      },
      "name": "Steel String Guitar",
      "notes": [],
      "endOfTrackTicks": 1939
    },
    {
      "channel": 2,
      "controlChanges": {
        "6": [
          {
            "number": 6,
            "ticks": 0,
            "time": 0,
            "value": 0.09448818897637795
          },
          {
            "number": 6,
            "ticks": 0,
            "time": 0,
            "value": 0.09448818897637795
          },
          {
            "number": 6,
            "ticks": 1920,
            "time": 10,
            "value": 0.09448818897637795
          },
          {
            "number": 6,
            "ticks": 1921,
            "time": 10.005208333333334,
            "value": 0.09448818897637795
          }
        ],
        "7": [
          {
            "number": 7,
            "ticks": 0,
            "time": 0,
            "value": 0.9921259842519685
          },
          {
            "number": 7,
            "ticks": 0,
            "time": 0,
            "value": 0.9921259842519685
          },
          {
            "number": 7,
            "ticks": 1920,
            "time": 10,
            "value": 0.9921259842519685
          },
          {
            "number": 7,
            "ticks": 1921,
            "time": 10.005208333333334,
            "value": 0.9921259842519685
          }
        ],
        "10": [
          {
            "number": 10,
            "ticks": 0,
            "time": 0,
            "value": 0.5039370078740157
          },
          {
            "number": 10,
            "ticks": 0,
            "time": 0,
            "value": 0.5039370078740157
          },
          {
            "number": 10,
            "ticks": 1920,
            "time": 10,
            "value": 0.5039370078740157
          },
          {
            "number": 10,
            "ticks": 1921,
            "time": 10.005208333333334,
            "value": 0.5039370078740157
          }
        ],
        "100": [
          {
            "number": 100,
            "ticks": 0,
            "time": 0,
            "value": 0
          },
          {
            "number": 100,
            "ticks": 0,
            "time": 0,
            "value": 0
          },
          {
            "number": 100,
            "ticks": 1920,
            "time": 10,
            "value": 0
          },
          {
            "number": 100,
            "ticks": 1921,
            "time": 10.005208333333334,
            "value": 0
          }
        ],
        "101": [
          {
            "number": 101,
            "ticks": 0,
            "time": 0,
            "value": 0
          },
          {
            "number": 101,
            "ticks": 0,
            "time": 0,
            "value": 0
          },
          {
            "number": 101,
            "ticks": 1920,
            "time": 10,
            "value": 0
          },
          {
            "number": 101,
            "ticks": 1921,
            "time": 10.005208333333334,
            "value": 0
          }
        ]
      },
      "pitchBends": [
        {
          "ticks": 0,
          "time": 0,
          "value": 0
        },
        {
          "ticks": 0,
          "time": 0,
          "value": 0
        },
        {
          "ticks": 1920,
          "time": 10,
          "value": 0
        },
        {
          "ticks": 1921,
          "time": 10.005208333333334,
          "value": 0
        }
      ],
      "instrument": {
        "family": "guitar",
        "number": 25,
        "name": "acoustic guitar (steel)"
      },
      "name": "",
      "notes": [
        {
          "duration": 0.125,
          "durationTicks": 24,
          "midi": 65,
          "name": "F4",
          "ticks": 0,
          "time": 0,
          "velocity": 0.7086614173228346
        },
        {
          "duration": 0.125,
          "durationTicks": 24,
          "midi": 60,
          "name": "C4",
          "ticks": 48,
          "time": 0.25,
          "velocity": 0.7086614173228346
        },
        {
          "duration": 0.125,
          "durationTicks": 24,
          "midi": 69,
          "name": "A4",
          "ticks": 48,
          "time": 0.25,
          "velocity": 0.7086614173228346
        },
        {
          "duration": 0.125,
          "durationTicks": 24,
          "midi": 65,
          "name": "F4",
          "ticks": 48,
          "time": 0.25,
          "velocity": 0.7086614173228346
        },
        {
          "duration": 0.125,
          "durationTicks": 24,
          "midi": 65,
          "name": "F4",
          "ticks": 96,
          "time": 0.5,
          "velocity": 0.7086614173228346
        },
        {
          "duration": 0.125,
          "durationTicks": 24,
          "midi": 69,
          "name": "A4",
          "ticks": 144,
          "time": 0.75,
          "velocity": 0.7086614173228346
        },
        {
          "duration": 0.125,
          "durationTicks": 24,
          "midi": 60,
          "name": "C4",
          "ticks": 144,
          "time": 0.75,
          "velocity": 0.7086614173228346
        },
        {
          "duration": 0.125,
          "durationTicks": 24,
          "midi": 65,
          "name": "F4",
          "ticks": 144,
          "time": 0.75,
          "velocity": 0.7086614173228346
        },
        {
          "duration": 0.125,
          "durationTicks": 24,
          "midi": 65,
          "name": "F4",
          "ticks": 192,
          "time": 1,
          "velocity": 0.7086614173228346
        },
        {
          "duration": 0.125,
          "durationTicks": 24,
          "midi": 65,
          "name": "F4",
          "ticks": 240,
          "time": 1.25,
          "velocity": 0.7086614173228346
        },
        {
          "duration": 0.125,
          "durationTicks": 24,
          "midi": 62,
          "name": "D4",
          "ticks": 240,
          "time": 1.25,
          "velocity": 0.7086614173228346
        },
        {
          "duration": 0.125,
          "durationTicks": 24,
          "midi": 70,
          "name": "A#4",
          "ticks": 240,
          "time": 1.25,
          "velocity": 0.7086614173228346
        },
        {
          "duration": 0.125,
          "durationTicks": 24,
          "midi": 72,
          "name": "C5",
          "ticks": 288,
          "time": 1.5,
          "velocity": 0.7086614173228346
        },
        {
          "duration": 0.125,
          "durationTicks": 24,
          "midi": 64,
          "name": "E4",
          "ticks": 288,
          "time": 1.5,
          "velocity": 0.7086614173228346
        },
        {
          "duration": 0.125,
          "durationTicks": 24,
          "midi": 67,
          "name": "G4",
          "ticks": 288,
          "time": 1.5,
          "velocity": 0.7086614173228346
        },
        {
          "duration": 0.125,
          "durationTicks": 24,
          "midi": 65,
          "name": "F4",
          "ticks": 384,
          "time": 2,
          "velocity": 0.7086614173228346
        },
        {
          "duration": 0.125,
          "durationTicks": 24,
          "midi": 60,
          "name": "C4",
          "ticks": 432,
          "time": 2.25,
          "velocity": 0.7086614173228346
        },
        {
          "duration": 0.125,
          "durationTicks": 24,
          "midi": 69,
          "name": "A4",
          "ticks": 432,
          "time": 2.25,
          "velocity": 0.7086614173228346
        },
        {
          "duration": 0.125,
          "durationTicks": 24,
          "midi": 65,
          "name": "F4",
          "ticks": 432,
          "time": 2.25,
          "velocity": 0.7086614173228346
        },
        {
          "duration": 0.125,
          "durationTicks": 24,
          "midi": 65,
          "name": "F4",
          "ticks": 480,
          "time": 2.5,
          "velocity": 0.7086614173228346
        },
        {
          "duration": 0.125,
          "durationTicks": 24,
          "midi": 69,
          "name": "A4",
          "ticks": 528,
          "time": 2.75,
          "velocity": 0.7086614173228346
        },
        {
          "duration": 0.125,
          "durationTicks": 24,
          "midi": 60,
          "name": "C4",
          "ticks": 528,
          "time": 2.75,
          "velocity": 0.7086614173228346
        },
        {
          "duration": 0.125,
          "durationTicks": 24,
          "midi": 65,
          "name": "F4",
          "ticks": 528,
          "time": 2.75,
          "velocity": 0.7086614173228346
        },
        {
          "duration": 0.125,
          "durationTicks": 24,
          "midi": 65,
          "name": "F4",
          "ticks": 576,
          "time": 3,
          "velocity": 0.7086614173228346
        },
        {
          "duration": 0.125,
          "durationTicks": 24,
          "midi": 70,
          "name": "A#4",
          "ticks": 624,
          "time": 3.25,
          "velocity": 0.7086614173228346
        },
        {
          "duration": 0.125,
          "durationTicks": 24,
          "midi": 62,
          "name": "D4",
          "ticks": 624,
          "time": 3.25,
          "velocity": 0.7086614173228346
        },
        {
          "duration": 0.125,
          "durationTicks": 24,
          "midi": 65,
          "name": "F4",
          "ticks": 624,
          "time": 3.25,
          "velocity": 0.7086614173228346
        },
        {
          "duration": 0.125,
          "durationTicks": 24,
          "midi": 72,
          "name": "C5",
          "ticks": 672,
          "time": 3.5,
          "velocity": 0.7086614173228346
        },
        {
          "duration": 0.125,
          "durationTicks": 24,
          "midi": 64,
          "name": "E4",
          "ticks": 672,
          "time": 3.5,
          "velocity": 0.7086614173228346
        },
        {
          "duration": 0.125,
          "durationTicks": 24,
          "midi": 67,
          "name": "G4",
          "ticks": 672,
          "time": 3.5,
          "velocity": 0.7086614173228346
        },
        {
          "duration": 0.125,
          "durationTicks": 24,
          "midi": 70,
          "name": "A#4",
          "ticks": 768,
          "time": 4,
          "velocity": 0.7086614173228346
        },
        {
          "duration": 0.125,
          "durationTicks": 24,
          "midi": 70,
          "name": "A#4",
          "ticks": 816,
          "time": 4.25,
          "velocity": 0.7086614173228346
        },
        {
          "duration": 0.125,
          "durationTicks": 24,
          "midi": 74,
          "name": "D5",
          "ticks": 816,
          "time": 4.25,
          "velocity": 0.7086614173228346
        },
        {
          "duration": 0.125,
          "durationTicks": 24,
          "midi": 65,
          "name": "F4",
          "ticks": 816,
          "time": 4.25,
          "velocity": 0.7086614173228346
        },
        {
          "duration": 0.125,
          "durationTicks": 24,
          "midi": 70,
          "name": "A#4",
          "ticks": 864,
          "time": 4.5,
          "velocity": 0.7086614173228346
        },
        {
          "duration": 0.125,
          "durationTicks": 24,
          "midi": 74,
          "name": "D5",
          "ticks": 912,
          "time": 4.75,
          "velocity": 0.7086614173228346
        },
        {
          "duration": 0.125,
          "durationTicks": 24,
          "midi": 65,
          "name": "F4",
          "ticks": 912,
          "time": 4.75,
          "velocity": 0.7086614173228346
        },
        {
          "duration": 0.125,
          "durationTicks": 24,
          "midi": 70,
          "name": "A#4",
          "ticks": 912,
          "time": 4.75,
          "velocity": 0.7086614173228346
        },
        {
          "duration": 0.125,
          "durationTicks": 24,
          "midi": 69,
          "name": "A4",
          "ticks": 960,
          "time": 5,
          "velocity": 0.7086614173228346
        },
        {
          "duration": 0.125,
          "durationTicks": 24,
          "midi": 74,
          "name": "D5",
          "ticks": 1008,
          "time": 5.25,
          "velocity": 0.7086614173228346
        },
        {
          "duration": 0.125,
          "durationTicks": 24,
          "midi": 65,
          "name": "F4",
          "ticks": 1008,
          "time": 5.25,
          "velocity": 0.7086614173228346
        },
        {
          "duration": 0.125,
          "durationTicks": 24,
          "midi": 69,
          "name": "A4",
          "ticks": 1008,
          "time": 5.25,
          "velocity": 0.7086614173228346
        },
        {
          "duration": 0.125,
          "durationTicks": 24,
          "midi": 69,
          "name": "A4",
          "ticks": 1056,
          "time": 5.5,
          "velocity": 0.7086614173228346
        },
        {
          "duration": 0.125,
          "durationTicks": 24,
          "midi": 74,
          "name": "D5",
          "ticks": 1104,
          "time": 5.75,
          "velocity": 0.7086614173228346
        },
        {
          "duration": 0.125,
          "durationTicks": 24,
          "midi": 65,
          "name": "F4",
          "ticks": 1104,
          "time": 5.75,
          "velocity": 0.7086614173228346
        },
        {
          "duration": 0.125,
          "durationTicks": 24,
          "midi": 69,
          "name": "A4",
          "ticks": 1104,
          "time": 5.75,
          "velocity": 0.7086614173228346
        },
        {
          "duration": 0.125,
          "durationTicks": 24,
          "midi": 69,
          "name": "A4",
          "ticks": 1152,
          "time": 6,
          "velocity": 0.7086614173228346
        },
        {
          "duration": 0.125,
          "durationTicks": 24,
          "midi": 64,
          "name": "E4",
          "ticks": 1200,
          "time": 6.25,
          "velocity": 0.7086614173228346
        },
        {
          "duration": 0.125,
          "durationTicks": 24,
          "midi": 73,
          "name": "C#5",
          "ticks": 1200,
          "time": 6.25,
          "velocity": 0.7086614173228346
        },
        {
          "duration": 0.125,
          "durationTicks": 24,
          "midi": 69,
          "name": "A4",
          "ticks": 1200,
          "time": 6.25,
          "velocity": 0.7086614173228346
        },
        {
          "duration": 0.125,
          "durationTicks": 24,
          "midi": 69,
          "name": "A4",
          "ticks": 1248,
          "time": 6.5,
          "velocity": 0.7086614173228346
        },
        {
          "duration": 0.125,
          "durationTicks": 24,
          "midi": 69,
          "name": "A4",
          "ticks": 1296,
          "time": 6.75,
          "velocity": 0.7086614173228346
        },
        {
          "duration": 0.125,
          "durationTicks": 24,
          "midi": 64,
          "name": "E4",
          "ticks": 1296,
          "time": 6.75,
          "velocity": 0.7086614173228346
        },
        {
          "duration": 0.125,
          "durationTicks": 24,
          "midi": 73,
          "name": "C#5",
          "ticks": 1296,
          "time": 6.75,
          "velocity": 0.7086614173228346
        },
        {
          "duration": 0.125,
          "durationTicks": 24,
          "midi": 72,
          "name": "C5",
          "ticks": 1344,
          "time": 7,
          "velocity": 0.7086614173228346
        },
        {
          "duration": 0.125,
          "durationTicks": 24,
          "midi": 67,
          "name": "G4",
          "ticks": 1392,
          "time": 7.25,
          "velocity": 0.7086614173228346
        },
        {
          "duration": 0.125,
          "durationTicks": 24,
          "midi": 76,
          "name": "E5",
          "ticks": 1392,
          "time": 7.25,
          "velocity": 0.7086614173228346
        },
        {
          "duration": 0.125,
          "durationTicks": 24,
          "midi": 72,
          "name": "C5",
          "ticks": 1392,
          "time": 7.25,
          "velocity": 0.7086614173228346
        },
        {
          "duration": 0.125,
          "durationTicks": 24,
          "midi": 69,
          "name": "A4",
          "ticks": 1536,
          "time": 8,
          "velocity": 0.7086614173228346
        },
        {
          "duration": 0.125,
          "durationTicks": 24,
          "midi": 60,
          "name": "C4",
          "ticks": 1584,
          "time": 8.25,
          "velocity": 0.7086614173228346
        },
        {
          "duration": 0.125,
          "durationTicks": 24,
          "midi": 77,
          "name": "F5",
          "ticks": 1584,
          "time": 8.25,
          "velocity": 0.7086614173228346
        },
        {
          "duration": 0.125,
          "durationTicks": 24,
          "midi": 69,
          "name": "A4",
          "ticks": 1584,
          "time": 8.25,
          "velocity": 0.7086614173228346
        },
        {
          "duration": 0.125,
          "durationTicks": 24,
          "midi": 72,
          "name": "C5",
          "ticks": 1632,
          "time": 8.5,
          "velocity": 0.7086614173228346
        },
        {
          "duration": 0.125,
          "durationTicks": 24,
          "midi": 67,
          "name": "G4",
          "ticks": 1680,
          "time": 8.75,
          "velocity": 0.7086614173228346
        },
        {
          "duration": 0.125,
          "durationTicks": 24,
          "midi": 76,
          "name": "E5",
          "ticks": 1680,
          "time": 8.75,
          "velocity": 0.7086614173228346
        },
        {
          "duration": 0.125,
          "durationTicks": 24,
          "midi": 72,
          "name": "C5",
          "ticks": 1680,
          "time": 8.75,
          "velocity": 0.7086614173228346
        },
        {
          "duration": 0.125,
          "durationTicks": 24,
          "midi": 72,
          "name": "C5",
          "ticks": 1728,
          "time": 9,
          "velocity": 0.7086614173228346
        },
        {
          "duration": 0.125,
          "durationTicks": 24,
          "midi": 69,
          "name": "A4",
          "ticks": 1728,
          "time": 9,
          "velocity": 0.7086614173228346
        }
      ]
    }
  ]
}