{
  "header": {
    "keySignatures": [
      {
        "key": "C",
        "scale": "major",
        "ticks": 0
      }
    ],
    "meta": {
      "title": "Megalovania",
      "artist": "Toby Fox",
      "creator": "unknown"
    },
    "name": "Megalovania",
    "ppq": 192,
    "tempos": [
      {
        "bpm": 120,
        "ticks": 0
      },
      {
        "bpm": 120,
        "ticks": 59904
      }
    ],
    "timeSignatures": [
      {
        "ticks": 0,
        "timeSignature": [
          4,
          4
        ],
        "measures": 0
      }
    ]
  },
  "tracks": [
    {
      "channel": 0,
      "controlChanges": {
        "0": [
          {
            "number": 0,
            "ticks": 0,
            "time": 0,
            "value": 0
          }
        ],
        "32": [
          {
            "number": 32,
            "ticks": 0,
            "time": 0,
            "value": 0
          }
        ]
      },
      "pitchBends": [],
      "instrument": {
        "family": "piano",
        "number": 0,
        "name": "acoustic grand piano"
      },
      "name": "Staff-5",
      "notes": [],
      "endOfTrackTicks": 42984
    },
    {
      "channel": 10,
      "controlChanges": {
        "7": [
          {
            "number": 7,
            "ticks": 0,
            "time": 0,
            "value": 1
          },
          {
            "number": 7,
            "ticks": 0,
            "time": 0,
            "value": 1
          }
        ],
        "10": [
          {
            "number": 10,
            "ticks": 0,
            "time": 0,
            "value": 0.5039370078740157
          }
        ]
      },
      "pitchBends": [],
      "instrument": {
        "family": "ensemble",
        "number": 48,
        "name": "string ensemble 1"
      },
      "name": "",
      "notes": [
        {
          "duration": 0.125,
          "durationTicks": 48,
          "midi": 74,
          "name": "D5",
          "ticks": 6144,
          "time": 16,
          "velocity": 1
        },
        {
          "duration": 0.125,
          "durationTicks": 48,
          "midi": 62,
          "name": "D4",
          "ticks": 6144,
          "time": 16,
          "velocity": 0.8661417322834646
        },
        {
          "duration": 0.125,
          "durationTicks": 48,
          "midi": 74,
          "name": "D5",
          "ticks": 6192,
          "time": 16.125,
          "velocity": 1
        },
        {
          "duration": 0.125,
          "durationTicks": 48,
          "midi": 62,
          "name": "D4",
          "ticks": 6192,
          "time": 16.125,
          "velocity": 0.8661417322834646
        },
        {
          "duration": 0.125,
          "durationTicks": 48,
          "midi": 86,
          "name": "D6",
          "ticks": 6240,
          "time": 16.25,
          "velocity": 1
        },
        {
          "duration": 0.125,
          "durationTicks": 48,
          "midi": 74,
          "name": "D5",
          "ticks": 6240,
          "time": 16.25,
          "velocity": 0.8661417322834646
        },
        {
          "duration": 0.125,
          "durationTicks": 48,
          "midi": 81,
          "name": "A5",
          "ticks": 6336,
          "time": 16.5,
          "velocity": 1
        },
        {
          "duration": 0.125,
          "durationTicks": 48,
          "midi": 69,
          "name": "A4",
          "ticks": 6336,
          "time": 16.5,
          "velocity": 0.8661417322834646
        },
        {
          "duration": 0.125,
          "durationTicks": 48,
          "midi": 80,
          "name": "G#5",
          "ticks": 6480,
          "time": 16.875,
          "velocity": 1
        },
        {
          "duration": 0.125,
          "durationTicks": 48,
          "midi": 68,
          "name": "G#4",
          "ticks": 6480,
          "time": 16.875,
          "velocity": 0.8661417322834646
        },
        {
          "duration": 0.125,
          "durationTicks": 48,
          "midi": 79,
          "name": "G5",
          "ticks": 6576,
          "time": 17.125,
          "velocity": 1
        },
        {
          "duration": 0.125,
          "durationTicks": 48,
          "midi": 67,
          "name": "G4",
          "ticks": 6576,
          "time": 17.125,
          "velocity": 0.8661417322834646
        },
        {
          "duration": 0.25,
          "durationTicks": 96,
          "midi": 77,
          "name": "F5",
          "ticks": 6672,
          "time": 17.375,
          "velocity": 1
        },
        {
          "duration": 0.25,
          "durationTicks": 96,
          "midi": 65,
          "name": "F4",
          "ticks": 6672,
          "time": 17.375,
          "velocity": 0.8661417322834646
        },
        {
          "duration": 0.125,
          "durationTicks": 48,
          "midi": 74,
          "name": "D5",
          "ticks": 6768,
          "time": 17.625,
          "velocity": 1
        },
        {
          "duration": 0.125,
          "durationTicks": 48,
          "midi": 62,
          "name": "D4",
          "ticks": 6768,
          "time": 17.625,
          "velocity": 0.8661417322834646
        },
        {
          "duration": 0.125,
          "durationTicks": 48,
          "midi": 77,
          "name": "F5",
          "ticks": 6816,
          "time": 17.75,
          "velocity": 1
        },
        {
          "duration": 0.125,
          "durationTicks": 48,
          "midi": 65,
          "name": "F4",
          "ticks": 6816,
          "time": 17.75,
          "velocity": 0.8661417322834646
        },
        {
          "duration": 0.125,
          "durationTicks": 48,
          "midi": 79,
          "name": "G5",
          "ticks": 6864,
          "time": 17.875,
          "velocity": 1
        },
        {
          "duration": 0.125,
          "durationTicks": 48,
          "midi": 67,
          "name": "G4",
          "ticks": 6864,
          "time": 17.875,
          "velocity": 0.8661417322834646
        },
        {
          "duration": 0.125,
          "durationTicks": 48,
          "midi": 72,
          "name": "C5",
          "ticks": 6912,
          "time": 18,
          "velocity": 1
        },
        {
          "duration": 0.125,
          "durationTicks": 48,
          "midi": 60,
          "name": "C4",
          "ticks": 6912,
          "time": 18,
          "velocity": 0.8661417322834646
        },
        {
          "duration": 0.125,
          "durationTicks": 48,
          "midi": 72,
          "name": "C5",
          "ticks": 6960,
          "time": 18.125,
          "velocity": 1
        },
        {
          "duration": 0.125,
          "durationTicks": 48,
          "midi": 60,
          "name": "C4",
          "ticks": 6960,
          "time": 18.125,
          "velocity": 0.8661417322834646
        },
        {
          "duration": 0.125,
          "durationTicks": 48,
          "midi": 86,
          "name": "D6",
          "ticks": 7008,
          "time": 18.25,
          "velocity": 1
        },
        {
          "duration": 0.125,
          "durationTicks": 48,
          "midi": 74,
          "name": "D5",
          "ticks": 7008,
          "time": 18.25,
          "velocity": 0.8661417322834646
        },
        {
          "duration": 0.125,
          "durationTicks": 48,
          "midi": 81,
          "name": "A5",
          "ticks": 7104,
          "time": 18.5,
          "velocity": 1
        },
        {
          "duration": 0.125,
          "durationTicks": 48,
          "midi": 69,
          "name": "A4",
          "ticks": 7104,
          "time": 18.5,
          "velocity": 0.8661417322834646
        },
        {
          "duration": 0.125,
          "durationTicks": 48,
          "midi": 80,
          "name": "G#5",
          "ticks": 7248,
          "time": 18.875,
          "velocity": 1
        },
        {
          "duration": 0.125,
          "durationTicks": 48,
          "midi": 68,
          "name": "G#4",
          "ticks": 7248,
          "time": 18.875,
          "velocity": 0.8661417322834646
        },
        {
          "duration": 0.125,
          "durationTicks": 48,
          "midi": 79,
          "name": "G5",
          "ticks": 7344,
          "time": 19.125,
          "velocity": 1
        },
        {
          "duration": 0.125,
          "durationTicks": 48,
          "midi": 67,
          "name": "G4",
          "ticks": 7344,
          "time": 19.125,
          "velocity": 0.8661417322834646
        },
        {
          "duration": 0.25,
          "durationTicks": 96,
          "midi": 77,
          "name": "F5",
          "ticks": 7440,
          "time": 19.375,
          "velocity": 1
        },
        {
          "duration": 0.25,
          "durationTicks": 96,
          "midi": 65,
          "name": "F4",
          "ticks": 7440,
          "time": 19.375,
          "velocity": 0.8661417322834646
        },
        {
          "duration": 0.125,
          "durationTicks": 48,
          "midi": 74,
          "name": "D5",
          "ticks": 7536,
          "time": 19.625,
          "velocity": 1
        },
        {
          "duration": 0.125,
          "durationTicks": 48,
          "midi": 62,
          "name": "D4",
          "ticks": 7536,
          "time": 19.625,
          "velocity": 0.8661417322834646
        },
        {
          "duration": 0.125,
          "durationTicks": 48,
          "midi": 77,
          "name": "F5",
          "ticks": 7584,
          "time": 19.75,
          "velocity": 1
        },
        {
          "duration": 0.125,
          "durationTicks": 48,
          "midi": 65,
          "name": "F4",
          "ticks": 7584,
          "time": 19.75,
          "velocity": 0.8661417322834646
        },
        {
          "duration": 0.125,
          "durationTicks": 48,
          "midi": 79,
          "name": "G5",
          "ticks": 7632,
          "time": 19.875,
          "velocity": 1
        },
        {
          "duration": 0.125,
          "durationTicks": 48,
          "midi": 67,
          "name": "G4",
          "ticks": 7632,
          "time": 19.875,
          "velocity": 0.8661417322834646
        },
        {
          "duration": 0.125,
          "durationTicks": 48,
          "midi": 71,
          "name": "B4",
          "ticks": 7680,
          "time": 20,
          "velocity": 1
        },
        {
          "duration": 0.125,
          "durationTicks": 48,
          "midi": 59,
          "name": "B3",
          "ticks": 7680,
          "time": 20,
          "velocity": 0.8661417322834646
        },
        {
          "duration": 0.125,
          "durationTicks": 48,
          "midi": 71,
          "name": "B4",
          "ticks": 7728,
          "time": 20.125,
          "velocity": 1
        },
        {
          "duration": 0.125,
          "durationTicks": 48,
          "midi": 59,
          "name": "B3",
          "ticks": 7728,
          "time": 20.125,
          "velocity": 0.8661417322834646
        },
        {
          "duration": 0.125,
          "durationTicks": 48,
          "midi": 86,
          "name": "D6",
          "ticks": 7776,
          "time": 20.25,
          "velocity": 1
        },
        {
          "duration": 0.125,
          "durationTicks": 48,
          "midi": 74,
          "name": "D5",
          "ticks": 7776,
          "time": 20.25,
          "velocity": 0.8661417322834646
        },
        {
          "duration": 0.125,
          "durationTicks": 48,
          "midi": 81,
          "name": "A5",
          "ticks": 7872,
          "time": 20.5,
          "velocity": 1
        },
        {
          "duration": 0.125,
          "durationTicks": 48,
          "midi": 69,
          "name": "A4",
          "ticks": 7872,
          "time": 20.5,
          "velocity": 0.8661417322834646
        },
        {
          "duration": 0.125,
          "durationTicks": 48,
          "midi": 80,
          "name": "G#5",
          "ticks": 8016,
          "time": 20.875,
          "velocity": 1
        },
        {
          "duration": 0.125,
          "durationTicks": 48,
          "midi": 68,
          "name": "G#4",
          "ticks": 8016,
          "time": 20.875,
          "velocity": 0.8661417322834646
        },
        {
          "duration": 0.125,
          "durationTicks": 48,
          "midi": 79,
          "name": "G5",
          "ticks": 8112,
          "time": 21.125,
          "velocity": 1
        },
        {
          "duration": 0.125,
          "durationTicks": 48,
          "midi": 67,
          "name": "G4",
          "ticks": 8112,
          "time": 21.125,
          "velocity": 0.8661417322834646
        },
        {
          "duration": 0.25,
          "durationTicks": 96,
          "midi": 77,
          "name": "F5",
          "ticks": 8208,
          "time": 21.375,
          "velocity": 1
        },
        {
          "duration": 0.25,
          "durationTicks": 96,
          "midi": 65,
          "name": "F4",
          "ticks": 8208,
          "time": 21.375,
          "velocity": 0.8661417322834646
        },
        {
          "duration": 0.125,
          "durationTicks": 48,
          "midi": 74,
          "name": "D5",
          "ticks": 8304,
          "time": 21.625,
          "velocity": 1
        },
        {
          "duration": 0.125,
          "durationTicks": 48,
          "midi": 62,
          "name": "D4",
          "ticks": 8304,
          "time": 21.625,
          "velocity": 0.8661417322834646
        },
        {
          "duration": 0.125,
          "durationTicks": 48,
          "midi": 77,
          "name": "F5",
          "ticks": 8352,
          "time": 21.75,
          "velocity": 1
        },
        {
          "duration": 0.125,
          "durationTicks": 48,
          "midi": 65,
          "name": "F4",
          "ticks": 8352,
          "time": 21.75,
          "velocity": 0.8661417322834646
        },
        {
          "duration": 0.125,
          "durationTicks": 48,
          "midi": 79,
          "name": "G5",
          "ticks": 8400,
          "time": 21.875,
          "velocity": 1
        },
        {
          "duration": 0.125,
          "durationTicks": 48,
          "midi": 67,
          "name": "G4",
          "ticks": 8400,
          "time": 21.875,
          "velocity": 0.8661417322834646
        },
        {
          "duration": 0.125,
          "durationTicks": 48,
          "midi": 70,
          "name": "A#4",
          "ticks": 8448,
          "time": 22,
          "velocity": 1
        },
        {
          "duration": 0.125,
          "durationTicks": 48,
          "midi": 58,
          "name": "A#3",
          "ticks": 8448,
          "time": 22,
          "velocity": 0.8661417322834646
        },
        {
          "duration": 0.125,
          "durationTicks": 48,
          "midi": 70,
          "name": "A#4",
          "ticks": 8496,
          "time": 22.125,
          "velocity": 1
        },
        {
          "duration": 0.125,
          "durationTicks": 48,
          "midi": 58,
          "name": "A#3",
          "ticks": 8496,
          "time": 22.125,
          "velocity": 0.8661417322834646
        },
        {
          "duration": 0.125,
          "durationTicks": 48,
          "midi": 86,
          "name": "D6",
          "ticks": 8544,
          "time": 22.25,
          "velocity": 1
        },
        {
          "duration": 0.125,
          "durationTicks": 48,
          "midi": 74,
          "name": "D5",
          "ticks": 8544,
          "time": 22.25,
          "velocity": 0.8661417322834646
        },
        {
          "duration": 0.125,
          "durationTicks": 48,
          "midi": 81,
          "name": "A5",
          "ticks": 8640,
          "time": 22.5,
          "velocity": 1
        },
        {
          "duration": 0.125,
          "durationTicks": 48,
          "midi": 69,
          "name": "A4",
          "ticks": 8640,
          "time": 22.5,
          "velocity": 0.8661417322834646
        },
        {
          "duration": 0.125,
          "durationTicks": 48,
          "midi": 80,
          "name": "G#5",
          "ticks": 8784,
          "time": 22.875,
          "velocity": 1
        },
        {
          "duration": 0.125,
          "durationTicks": 48,
          "midi": 68,
          "name": "G#4",
          "ticks": 8784,
          "time": 22.875,
          "velocity": 0.8661417322834646
        },
        {
          "duration": 0.125,
          "durationTicks": 48,
          "midi": 79,
          "name": "G5",
          "ticks": 8880,
          "time": 23.125,
          "velocity": 1
        },
        {
          "duration": 0.125,
          "durationTicks": 48,
          "midi": 67,
          "name": "G4",
          "ticks": 8880,
          "time": 23.125,
          "velocity": 0.8661417322834646
        },
        {
          "duration": 0.25,
          "durationTicks": 96,
          "midi": 77,
          "name": "F5",
          "ticks": 8976,
          "time": 23.375,
          "velocity": 1
        },
        {
          "duration": 0.25,
          "durationTicks": 96,
          "midi": 65,
          "name": "F4",
          "ticks": 8976,
          "time": 23.375,
          "velocity": 0.8661417322834646
        },
        {
          "duration": 0.125,
          "durationTicks": 48,
          "midi": 74,
          "name": "D5",
          "ticks": 9072,
          "time": 23.625,
          "velocity": 1
        },
        {
          "duration": 0.125,
          "durationTicks": 48,
          "midi": 62,
          "name": "D4",
          "ticks": 9072,
          "time": 23.625,
          "velocity": 0.8661417322834646
        },
        {
          "duration": 0.125,
          "durationTicks": 48,
          "midi": 77,
          "name": "F5",
          "ticks": 9120,
          "time": 23.75,
          "velocity": 1
        },
        {
          "duration": 0.125,
          "durationTicks": 48,
          "midi": 65,
          "name": "F4",
          "ticks": 9120,
          "time": 23.75,
          "velocity": 0.8661417322834646
        },
        {
          "duration": 0.125,
          "durationTicks": 48,
          "midi": 79,
          "name": "G5",
          "ticks": 9168,
          "time": 23.875,
          "velocity": 1
        },
        {
          "duration": 0.125,
          "durationTicks": 48,
          "midi": 67,
          "name": "G4",
          "ticks": 9168,
          "time": 23.875,
          "velocity": 0.8661417322834646
        },
        {
          "duration": 0.125,
          "durationTicks": 48,
          "midi": 74,
          "name": "D5",
          "ticks": 9216,
          "time": 24,
          "velocity": 1
        },
        {
          "duration": 0.125,
          "durationTicks": 48,
          "midi": 62,
          "name": "D4",
          "ticks": 9216,
          "time": 24,
          "velocity": 0.8661417322834646
        },
        {
          "duration": 0.125,
          "durationTicks": 48,
          "midi": 74,
          "name": "D5",
          "ticks": 9264,
          "time": 24.125,
          "velocity": 1
        },
        {
          "duration": 0.125,
          "durationTicks": 48,
          "midi": 62,
          "name": "D4",
          "ticks": 9264,
          "time": 24.125,
          "velocity": 0.8661417322834646
        },
        {
          "duration": 0.125,
          "durationTicks": 48,
          "midi": 86,
          "name": "D6",
          "ticks": 9312,
          "time": 24.25,
          "velocity": 1
        },
        {
          "duration": 0.125,
          "durationTicks": 48,
          "midi": 74,
          "name": "D5",
          "ticks": 9312,
          "time": 24.25,
          "velocity": 0.8661417322834646
        },
        {
          "duration": 0.125,
          "durationTicks": 48,
          "midi": 81,
          "name": "A5",
          "ticks": 9408,
          "time": 24.5,
          "velocity": 1
        },
        {
          "duration": 0.125,
          "durationTicks": 48,
          "midi": 69,
          "name": "A4",
          "ticks": 9408,
          "time": 24.5,
          "velocity": 0.8661417322834646
        },
        {
          "duration": 0.125,
          "durationTicks": 48,
          "midi": 80,
          "name": "G#5",
          "ticks": 9552,
          "time": 24.875,
          "velocity": 1
        },
        {
          "duration": 0.125,
          "durationTicks": 48,
          "midi": 68,
          "name": "G#4",
          "ticks": 9552,
          "time": 24.875,
          "velocity": 0.8661417322834646
        },
        {
          "duration": 0.125,
          "durationTicks": 48,
          "midi": 79,
          "name": "G5",
          "ticks": 9648,
          "time": 25.125,
          "velocity": 1
        },
        {
          "duration": 0.125,
          "durationTicks": 48,
          "midi": 67,
          "name": "G4",
          "ticks": 9648,
          "time": 25.125,
          "velocity": 0.8661417322834646
        },
        {
          "duration": 0.25,
          "durationTicks": 96,
          "midi": 77,
          "name": "F5",
          "ticks": 9744,
          "time": 25.375,
          "velocity": 1
        },
        {
          "duration": 0.25,
          "durationTicks": 96,
          "midi": 65,
          "name": "F4",
          "ticks": 9744,
          "time": 25.375,
          "velocity": 0.8661417322834646
        },
        {
          "duration": 0.125,
          "durationTicks": 48,
          "midi": 74,
          "name": "D5",
          "ticks": 9840,
          "time": 25.625,
          "velocity": 1
        },
        {
          "duration": 0.125,
          "durationTicks": 48,
          "midi": 62,
          "name": "D4",
          "ticks": 9840,
          "time": 25.625,
          "velocity": 0.8661417322834646
        },
        {
          "duration": 0.125,
          "durationTicks": 48,
          "midi": 77,
          "name": "F5",
          "ticks": 9888,
          "time": 25.75,
          "velocity": 1
        },
        {
          "duration": 0.125,
          "durationTicks": 48,
          "midi": 65,
          "name": "F4",
          "ticks": 9888,
          "time": 25.75,
          "velocity": 0.8661417322834646
        },
        {
          "duration": 0.125,
          "durationTicks": 48,
          "midi": 79,
          "name": "G5",
          "ticks": 9936,
          "time": 25.875,
          "velocity": 1
        },
        {
          "duration": 0.125,
          "durationTicks": 48,
          "midi": 67,
          "name": "G4",
          "ticks": 9936,
          "time": 25.875,
          "velocity": 0.8661417322834646
        },
        {
          "duration": 0.125,
          "durationTicks": 48,
          "midi": 72,
          "name": "C5",
          "ticks": 9984,
          "time": 26,
          "velocity": 1
        },
        {
          "duration": 0.125,
          "durationTicks": 48,
          "midi": 60,
          "name": "C4",
          "ticks": 9984,
          "time": 26,
          "velocity": 0.8661417322834646
        },
        {
          "duration": 0.125,
          "durationTicks": 48,
          "midi": 72,
          "name": "C5",
          "ticks": 10032,
          "time": 26.125,
          "velocity": 1
        },
        {
          "duration": 0.125,
          "durationTicks": 48,
          "midi": 60,
          "name": "C4",
          "ticks": 10032,
          "time": 26.125,
          "velocity": 0.8661417322834646
        },
        {
          "duration": 0.125,
          "durationTicks": 48,
          "midi": 86,
          "name": "D6",
          "ticks": 10080,
          "time": 26.25,
          "velocity": 1
        },
        {
          "duration": 0.125,
          "durationTicks": 48,
          "midi": 74,
          "name": "D5",
          "ticks": 10080,
          "time": 26.25,
          "velocity": 0.8661417322834646
        },
        {
          "duration": 0.125,
          "durationTicks": 48,
          "midi": 81,
          "name": "A5",
          "ticks": 10176,
          "time": 26.5,
          "velocity": 1
        },
        {
          "duration": 0.125,
          "durationTicks": 48,
          "midi": 69,
          "name": "A4",
          "ticks": 10176,
          "time": 26.5,
          "velocity": 0.8661417322834646
        },
        {
          "duration": 0.125,
          "durationTicks": 48,
          "midi": 80,
          "name": "G#5",
          "ticks": 10320,
          "time": 26.875,
          "velocity": 1
        },
        {
          "duration": 0.125,
          "durationTicks": 48,
          "midi": 68,
          "name": "G#4",
          "ticks": 10320,
          "time": 26.875,
          "velocity": 0.8661417322834646
        },
        {
          "duration": 0.125,
          "durationTicks": 48,
          "midi": 79,
          "name": "G5",
          "ticks": 10416,
          "time": 27.125,
          "velocity": 1
        },
        {
          "duration": 0.125,
          "durationTicks": 48,
          "midi": 67,
          "name": "G4",
          "ticks": 10416,
          "time": 27.125,
          "velocity": 0.8661417322834646
        },
        {
          "duration": 0.25,
          "durationTicks": 96,
          "midi": 77,
          "name": "F5",
          "ticks": 10512,
          "time": 27.375,
          "velocity": 1
        },
        {
          "duration": 0.25,
          "durationTicks": 96,
          "midi": 65,
          "name": "F4",
          "ticks": 10512,
          "time": 27.375,
          "velocity": 0.8661417322834646
        },
        {
          "duration": 0.125,
          "durationTicks": 48,
          "midi": 74,
          "name": "D5",
          "ticks": 10608,
          "time": 27.625,
          "velocity": 1
        },
        {
          "duration": 0.125,
          "durationTicks": 48,
          "midi": 62,
          "name": "D4",
          "ticks": 10608,
          "time": 27.625,
          "velocity": 0.8661417322834646
        },
        {
          "duration": 0.125,
          "durationTicks": 48,
          "midi": 77,
          "name": "F5",
          "ticks": 10656,
          "time": 27.75,
          "velocity": 1
        },
        {
          "duration": 0.125,
          "durationTicks": 48,
          "midi": 65,
          "name": "F4",
          "ticks": 10656,
          "time": 27.75,
          "velocity": 0.8661417322834646
        },
        {
          "duration": 0.125,
          "durationTicks": 48,
          "midi": 79,
          "name": "G5",
          "ticks": 10704,
          "time": 27.875,
          "velocity": 1
        },
        {
          "duration": 0.125,
          "durationTicks": 48,
          "midi": 67,
          "name": "G4",
          "ticks": 10704,
          "time": 27.875,
          "velocity": 0.8661417322834646
        },
        {
          "duration": 0.125,
          "durationTicks": 48,
          "midi": 71,
          "name": "B4",
          "ticks": 10752,
          "time": 28,
          "velocity": 1
        },
        {
          "duration": 0.125,
          "durationTicks": 48,
          "midi": 59,
          "name": "B3",
          "ticks": 10752,
          "time": 28,
          "velocity": 0.8661417322834646
        },
        {
          "duration": 0.125,
          "durationTicks": 48,
          "midi": 71,
          "name": "B4",
          "ticks": 10800,
          "time": 28.125,
          "velocity": 1
        },
        {
          "duration": 0.125,
          "durationTicks": 48,
          "midi": 59,
          "name": "B3",
          "ticks": 10800,
          "time": 28.125,
          "velocity": 0.8661417322834646
        },
        {
          "duration": 0.125,
          "durationTicks": 48,
          "midi": 86,
          "name": "D6",
          "ticks": 10848,
          "time": 28.25,
          "velocity": 1
        },
        {
          "duration": 0.125,
          "durationTicks": 48,
          "midi": 74,
          "name": "D5",
          "ticks": 10848,
          "time": 28.25,
          "velocity": 0.8661417322834646
        },
        {
          "duration": 0.125,
          "durationTicks": 48,
          "midi": 81,
          "name": "A5",
          "ticks": 10944,
          "time": 28.5,
          "velocity": 1
        },
        {
          "duration": 0.125,
          "durationTicks": 48,
          "midi": 69,
          "name": "A4",
          "ticks": 10944,
          "time": 28.5,
          "velocity": 0.8661417322834646
        },
        {
          "duration": 0.125,
          "durationTicks": 48,
          "midi": 80,
          "name": "G#5",
          "ticks": 11088,
          "time": 28.875,
          "velocity": 1
        },
        {
          "duration": 0.125,
          "durationTicks": 48,
          "midi": 68,
          "name": "G#4",
          "ticks": 11088,
          "time": 28.875,
          "velocity": 0.8661417322834646
        },
        {
          "duration": 0.125,
          "durationTicks": 48,
          "midi": 79,
          "name": "G5",
          "ticks": 11184,
          "time": 29.125,
          "velocity": 1
        },
        {
          "duration": 0.125,
          "durationTicks": 48,
          "midi": 67,
          "name": "G4",
          "ticks": 11184,
          "time": 29.125,
          "velocity": 0.8661417322834646
        },
        {
          "duration": 0.25,
          "durationTicks": 96,
          "midi": 77,
          "name": "F5",
          "ticks": 11280,
          "time": 29.375,
          "velocity": 1
        },
        {
          "duration": 0.25,
          "durationTicks": 96,
          "midi": 65,
          "name": "F4",
          "ticks": 11280,
          "time": 29.375,
          "velocity": 0.8661417322834646
        },
        {
          "duration": 0.125,
          "durationTicks": 48,
          "midi": 74,
          "name": "D5",
          "ticks": 11376,
          "time": 29.625,
          "velocity": 1
        },
        {
          "duration": 0.125,
          "durationTicks": 48,
          "midi": 62,
          "name": "D4",
          "ticks": 11376,
          "time": 29.625,
          "velocity": 0.8661417322834646
        },
        {
          "duration": 0.125,
          "durationTicks": 48,
          "midi": 77,
          "name": "F5",
          "ticks": 11424,
          "time": 29.75,
          "velocity": 1
        },
        {
          "duration": 0.125,
          "durationTicks": 48,
          "midi": 65,
          "name": "F4",
          "ticks": 11424,
          "time": 29.75,
          "velocity": 0.8661417322834646
        },
        {
          "duration": 0.125,
          "durationTicks": 48,
          "midi": 79,
          "name": "G5",
          "ticks": 11472,
          "time": 29.875,
          "velocity": 1
        },
        {
          "duration": 0.125,
          "durationTicks": 48,
          "midi": 67,
          "name": "G4",
          "ticks": 11472,
          "time": 29.875,
          "velocity": 0.8661417322834646
        },
        {
          "duration": 0.125,
          "durationTicks": 48,
          "midi": 70,
          "name": "A#4",
          "ticks": 11520,
          "time": 30,
          "velocity": 1
        },
        {
          "duration": 0.125,
          "durationTicks": 48,
          "midi": 58,
          "name": "A#3",
          "ticks": 11520,
          "time": 30,
          "velocity": 0.8661417322834646
        },
        {
          "duration": 0.125,
          "durationTicks": 48,
          "midi": 70,
          "name": "A#4",
          "ticks": 11568,
          "time": 30.125,
          "velocity": 1
        },
        {
          "duration": 0.125,
          "durationTicks": 48,
          "midi": 58,
          "name": "A#3",
          "ticks": 11568,
          "time": 30.125,
          "velocity": 0.8661417322834646
        },
        {
          "duration": 0.125,
          "durationTicks": 48,
          "midi": 86,
          "name": "D6",
          "ticks": 11616,
          "time": 30.25,
          "velocity": 1
        },
        {
          "duration": 0.125,
          "durationTicks": 48,
          "midi": 74,
          "name": "D5",
          "ticks": 11616,
          "time": 30.25,
          "velocity": 0.8661417322834646
        },
        {
          "duration": 0.125,
          "durationTicks": 48,
          "midi": 81,
          "name": "A5",
          "ticks": 11712,
          "time": 30.5,
          "velocity": 1
        },
        {
          "duration": 0.125,
          "durationTicks": 48,
          "midi": 69,
          "name": "A4",
          "ticks": 11712,
          "time": 30.5,
          "velocity": 0.8661417322834646
        },
        {
          "duration": 0.125,
          "durationTicks": 48,
          "midi": 80,
          "name": "G#5",
          "ticks": 11856,
          "time": 30.875,
          "velocity": 1
        },
        {
          "duration": 0.125,
          "durationTicks": 48,
          "midi": 68,
          "name": "G#4",
          "ticks": 11856,
          "time": 30.875,
          "velocity": 0.8661417322834646
        },
        {
          "duration": 0.125,
          "durationTicks": 48,
          "midi": 79,
          "name": "G5",
          "ticks": 11952,
          "time": 31.125,
          "velocity": 1
        },
        {
          "duration": 0.125,
          "durationTicks": 48,
          "midi": 67,
          "name": "G4",
          "ticks": 11952,
          "time": 31.125,
          "velocity": 0.8661417322834646
        },
        {
          "duration": 0.25,
          "durationTicks": 96,
          "midi": 77,
          "name": "F5",
          "ticks": 12048,
          "time": 31.375,
          "velocity": 1
        },
        {
          "duration": 0.25,
          "durationTicks": 96,
          "midi": 65,
          "name": "F4",
          "ticks": 12048,
          "time": 31.375,
          "velocity": 0.8661417322834646
        },
        {
          "duration": 0.125,
          "durationTicks": 48,
          "midi": 74,
          "name": "D5",
          "ticks": 12144,
          "time": 31.625,
          "velocity": 1
        },
        {
          "duration": 0.125,
          "durationTicks": 48,
          "midi": 62,
          "name": "D4",
          "ticks": 12144,
          "time": 31.625,
          "velocity": 0.8661417322834646
        },
        {
          "duration": 0.125,
          "durationTicks": 48,
          "midi": 77,
          "name": "F5",
          "ticks": 12192,
          "time": 31.75,
          "velocity": 1
        },
        {
          "duration": 0.125,
          "durationTicks": 48,
          "midi": 65,
          "name": "F4",
          "ticks": 12192,
          "time": 31.75,
          "velocity": 0.8661417322834646
        },
        {
          "duration": 0.125,
          "durationTicks": 48,
          "midi": 79,
          "name": "G5",
          "ticks": 12240,
          "time": 31.875,
          "velocity": 1
        },
        {
          "duration": 0.125,
          "durationTicks": 48,
          "midi": 67,
          "name": "G4",
          "ticks": 12240,
          "time": 31.875,
          "velocity": 0.8661417322834646
        },
        {
          "duration": 0.0625,
          "durationTicks": 24,
          "midi": 77,
          "name": "F5",
          "ticks": 41568,
          "time": 108.25,
          "velocity": 0.6771653543307087
        },
        {
          "duration": 0.0625,
          "durationTicks": 24,
          "midi": 89,
          "name": "F6",
          "ticks": 41568,
          "time": 108.25,
          "velocity": 0.6771653543307087
        },
        {
          "duration": 0.0625,
          "durationTicks": 24,
          "midi": 84,
          "name": "C6",
          "ticks": 41568,
          "time": 108.25,
          "velocity": 0.6771653543307087
        },
        {
          "duration": 0.0625,
          "durationTicks": 24,
          "midi": 76,
          "name": "E5",
          "ticks": 41664,
          "time": 108.5,
          "velocity": 0.6771653543307087
        },
        {
          "duration": 0.0625,
          "durationTicks": 24,
          "midi": 88,
          "name": "E6",
          "ticks": 41664,
          "time": 108.5,
          "velocity": 0.6771653543307087
        },
        {
          "duration": 0.0625,
          "durationTicks": 24,
          "midi": 83,
          "name": "B5",
          "ticks": 41664,
          "time": 108.5,
          "velocity": 0.6771653543307087
        },
        {
          "duration": 0.0625,
          "durationTicks": 24,
          "midi": 72,
          "name": "C5",
          "ticks": 41808,
          "time": 108.875,
          "velocity": 0.6771653543307087
        },
        {
          "duration": 0.0625,
          "durationTicks": 24,
          "midi": 84,
          "name": "C6",
          "ticks": 41808,
          "time": 108.875,
          "velocity": 0.6771653543307087
        },
        {
          "duration": 0.0625,
          "durationTicks": 24,
          "midi": 79,
          "name": "G5",
          "ticks": 41808,
          "time": 108.875,
          "velocity": 0.6771653543307087
        },
        {
          "duration": 0.0625,
          "durationTicks": 24,
          "midi": 76,
          "name": "E5",
          "ticks": 41904,
          "time": 109.125,
          "velocity": 0.6771653543307087
        },
        {
          "duration": 0.0625,
          "durationTicks": 24,
          "midi": 88,
          "name": "E6",
          "ticks": 41904,
          "time": 109.125,
          "velocity": 0.6771653543307087
        },
        {
          "duration": 0.0625,
          "durationTicks": 24,
          "midi": 83,
          "name": "B5",
          "ticks": 41904,
          "time": 109.125,
          "velocity": 0.6771653543307087
        },
        {
          "duration": 0.25,
          "durationTicks": 96,
          "midi": 74,
          "name": "D5",
          "ticks": 42000,
          "time": 109.375,
          "velocity": 0.6771653543307087
        },
        {
          "duration": 0.25,
          "durationTicks": 96,
          "midi": 86,
          "name": "D6",
          "ticks": 42000,
          "time": 109.375,
          "velocity": 0.6771653543307087
        },
        {
          "duration": 0.25,
          "durationTicks": 96,
          "midi": 81,
          "name": "A5",
          "ticks": 42000,
          "time": 109.375,
          "velocity": 0.6771653543307087
        },
        {
          "duration": 0.0625,
          "durationTicks": 24,
          "midi": 67,
          "name": "G4",
          "ticks": 42096,
          "time": 109.625,
          "velocity": 0.7559055118110236
        },
        {
          "duration": 0.0625,
          "durationTicks": 24,
          "midi": 79,
          "name": "G5",
          "ticks": 42096,
          "time": 109.625,
          "velocity": 0.7559055118110236
        },
        {
          "duration": 0.0625,
          "durationTicks": 24,
          "midi": 69,
          "name": "A4",
          "ticks": 42144,
          "time": 109.75,
          "velocity": 0.7559055118110236
        },
        {
          "duration": 0.0625,
          "durationTicks": 24,
          "midi": 81,
          "name": "A5",
          "ticks": 42144,
          "time": 109.75,
          "velocity": 0.7559055118110236
        },
        {
          "duration": 0.0625,
          "durationTicks": 24,
          "midi": 72,
          "name": "C5",
          "ticks": 42192,
          "time": 109.875,
          "velocity": 0.7559055118110236
        },
        {
          "duration": 0.0625,
          "durationTicks": 24,
          "midi": 84,
          "name": "C6",
          "ticks": 42192,
          "time": 109.875,
          "velocity": 0.7559055118110236
        },
        {
          "duration": 0.0625,
          "durationTicks": 24,
          "midi": 77,
          "name": "F5",
          "ticks": 42336,
          "time": 110.25,
          "velocity": 0.6771653543307087
        },
        {
          "duration": 0.0625,
          "durationTicks": 24,
          "midi": 89,
          "name": "F6",
          "ticks": 42336,
          "time": 110.25,
          "velocity": 0.6771653543307087
        },
        {
          "duration": 0.0625,
          "durationTicks": 24,
          "midi": 84,
          "name": "C6",
          "ticks": 42336,
          "time": 110.25,
          "velocity": 0.6771653543307087
        },
        {
          "duration": 0.0625,
          "durationTicks": 24,
          "midi": 76,
          "name": "E5",
          "ticks": 42432,
          "time": 110.5,
          "velocity": 0.6771653543307087
        },
        {
          "duration": 0.0625,
          "durationTicks": 24,
          "midi": 88,
          "name": "E6",
          "ticks": 42432,
          "time": 110.5,
          "velocity": 0.6771653543307087
        },
        {
          "duration": 0.0625,
          "durationTicks": 24,
          "midi": 83,
          "name": "B5",
          "ticks": 42432,
          "time": 110.5,
          "velocity": 0.6771653543307087
        },
        {
          "duration": 0.0625,
          "durationTicks": 24,
          "midi": 72,
          "name": "C5",
          "ticks": 42576,
          "time": 110.875,
          "velocity": 0.6771653543307087
        },
        {
          "duration": 0.0625,
          "durationTicks": 24,
          "midi": 84,
          "name": "C6",
          "ticks": 42576,
          "time": 110.875,
          "velocity": 0.6771653543307087
        },
        {
          "duration": 0.0625,
          "durationTicks": 24,
          "midi": 79,
          "name": "G5",
          "ticks": 42576,
          "time": 110.875,
          "velocity": 0.6771653543307087
        },
        {
          "duration": 0.0625,
          "durationTicks": 24,
          "midi": 76,
          "name": "E5",
          "ticks": 42672,
          "time": 111.125,
          "velocity": 0.6771653543307087
        },
        {
          "duration": 0.0625,
          "durationTicks": 24,
          "midi": 88,
          "name": "E6",
          "ticks": 42672,
          "time": 111.125,
          "velocity": 0.6771653543307087
        },
        {
          "duration": 0.0625,
          "durationTicks": 24,
          "midi": 83,
          "name": "B5",
          "ticks": 42672,
          "time": 111.125,
          "velocity": 0.6771653543307087
        },
        {
          "duration": 0.25,
          "durationTicks": 96,
          "midi": 74,
          "name": "D5",
          "ticks": 42768,
          "time": 111.375,
          "velocity": 0.6771653543307087
        },
        {
          "duration": 0.25,
          "durationTicks": 96,
          "midi": 86,
          "name": "D6",
          "ticks": 42768,
          "time": 111.375,
          "velocity": 0.6771653543307087
        },
        {
          "duration": 0.25,
          "durationTicks": 96,
          "midi": 81,
          "name": "A5",
          "ticks": 42768,
          "time": 111.375,
          "velocity": 0.6771653543307087
        },
        {
          "duration": 0.0625,
          "durationTicks": 24,
          "midi": 67,
          "name": "G4",
          "ticks": 42864,
          "time": 111.625,
          "velocity": 0.7559055118110236
        },
        {
          "duration": 0.0625,
          "durationTicks": 24,
          "midi": 79,
          "name": "G5",
          "ticks": 42864,
          "time": 111.625,
          "velocity": 0.7559055118110236
        },
        {
          "duration": 0.0625,
          "durationTicks": 24,
          "midi": 69,
          "name": "A4",
          "ticks": 42912,
          "time": 111.75,
          "velocity": 0.7559055118110236
        },
        {
          "duration": 0.0625,
          "durationTicks": 24,
          "midi": 81,
          "name": "A5",
          "ticks": 42912,
          "time": 111.75,
          "velocity": 0.7559055118110236
        },
        {
          "duration": 0.0625,
          "durationTicks": 24,
          "midi": 72,
          "name": "C5",
          "ticks": 42960,
          "time": 111.875,
          "velocity": 0.7559055118110236
        },
        {
          "duration": 0.0625,
          "durationTicks": 24,
          "midi": 84,
          "name": "C6",
          "ticks": 42960,
          "time": 111.875,
          "velocity": 0.7559055118110236
        }
      ]
    },
    {
      "channel": 0,
      "controlChanges": {
        "0": [
          {
            "number": 0,
            "ticks": 0,
            "time": 0,
            "value": 0
          }
        ],
        "32": [
          {
            "number": 32,
            "ticks": 0,
            "time": 0,
            "value": 0
          }
        ]
      },
      "pitchBends": [],
      "instrument": {
        "family": "piano",
        "number": 0,
        "name": "acoustic grand piano"
      },
      "name": "Staff-13",
      "notes": [],
      "endOfTrackTicks": 43008
    },
    {
      "channel": 4,
      "controlChanges": {
        "7": [
          {
            "number": 7,
            "ticks": 0,
            "time": 0,
            "value": 1
          },
          {
            "number": 7,
            "ticks": 0,
            "time": 0,
            "value": 1
          }
        ],
        "10": [
          {
            "number": 10,
            "ticks": 0,
            "time": 0,
            "value": 0.5039370078740157
          }
        ]
      },
      "pitchBends": [],
      "instrument": {
        "family": "ensemble",
        "number": 55,
        "name": "orchestra hit"
      },
      "name": "",
      "notes": [
        {
          "duration": 0.25,
          "durationTicks": 96,
          "midi": 65,
          "name": "F4",
          "ticks": 41568,
          "time": 108.25,
          "velocity": 0.8661417322834646
        },
        {
          "duration": 0.25,
          "durationTicks": 96,
          "midi": 77,
          "name": "F5",
          "ticks": 41568,
          "time": 108.25,
          "velocity": 0.8661417322834646
        },
        {
          "duration": 0.375,
          "durationTicks": 144,
          "midi": 64,
          "name": "E4",
          "ticks": 41664,
          "time": 108.5,
          "velocity": 0.8661417322834646
        },
        {
          "duration": 0.375,
          "durationTicks": 144,
          "midi": 76,
          "name": "E5",
          "ticks": 41664,
          "time": 108.5,
          "velocity": 0.8661417322834646
        },
        {
          "duration": 0.25,
          "durationTicks": 96,
          "midi": 60,
          "name": "C4",
          "ticks": 41808,
          "time": 108.875,
          "velocity": 0.8661417322834646
        },
        {
          "duration": 0.25,
          "durationTicks": 96,
          "midi": 72,
          "name": "C5",
          "ticks": 41808,
          "time": 108.875,
          "velocity": 0.8661417322834646
        },
        {
          "duration": 0.25,
          "durationTicks": 96,
          "midi": 64,
          "name": "E4",
          "ticks": 41904,
          "time": 109.125,
          "velocity": 0.8661417322834646
        },
        {
          "duration": 0.25,
          "durationTicks": 96,
          "midi": 76,
          "name": "E5",
          "ticks": 41904,
          "time": 109.125,
          "velocity": 0.8661417322834646
        },
        {
          "duration": 0.25,
          "durationTicks": 96,
          "midi": 62,
          "name": "D4",
          "ticks": 42000,
          "time": 109.375,
          "velocity": 0.8661417322834646
        },
        {
          "duration": 0.25,
          "durationTicks": 96,
          "midi": 74,
          "name": "D5",
          "ticks": 42000,
          "time": 109.375,
          "velocity": 0.8661417322834646
        },
        {
          "duration": 0.125,
          "durationTicks": 48,
          "midi": 55,
          "name": "G3",
          "ticks": 42096,
          "time": 109.625,
          "velocity": 0.8661417322834646
        },
        {
          "duration": 0.125,
          "durationTicks": 48,
          "midi": 67,
          "name": "G4",
          "ticks": 42096,
          "time": 109.625,
          "velocity": 0.8661417322834646
        },
        {
          "duration": 0.125,
          "durationTicks": 48,
          "midi": 57,
          "name": "A3",
          "ticks": 42144,
          "time": 109.75,
          "velocity": 0.8661417322834646
        },
        {
          "duration": 0.125,
          "durationTicks": 48,
          "midi": 69,
          "name": "A4",
          "ticks": 42144,
          "time": 109.75,
          "velocity": 0.8661417322834646
        },
        {
          "duration": 0.125,
          "durationTicks": 48,
          "midi": 60,
          "name": "C4",
          "ticks": 42192,
          "time": 109.875,
          "velocity": 0.8661417322834646
        },
        {
          "duration": 0.125,
          "durationTicks": 48,
          "midi": 72,
          "name": "C5",
          "ticks": 42192,
          "time": 109.875,
          "velocity": 0.8661417322834646
        },
        {
          "duration": 0.25,
          "durationTicks": 96,
          "midi": 65,
          "name": "F4",
          "ticks": 42336,
          "time": 110.25,
          "velocity": 0.8661417322834646
        },
        {
          "duration": 0.25,
          "durationTicks": 96,
          "midi": 77,
          "name": "F5",
          "ticks": 42336,
          "time": 110.25,
          "velocity": 0.8661417322834646
        },
        {
          "duration": 0.375,
          "durationTicks": 144,
          "midi": 64,
          "name": "E4",
          "ticks": 42432,
          "time": 110.5,
          "velocity": 0.8661417322834646
        },
        {
          "duration": 0.375,
          "durationTicks": 144,
          "midi": 76,
          "name": "E5",
          "ticks": 42432,
          "time": 110.5,
          "velocity": 0.8661417322834646
        },
        {
          "duration": 0.25,
          "durationTicks": 96,
          "midi": 60,
          "name": "C4",
          "ticks": 42576,
          "time": 110.875,
          "velocity": 0.8661417322834646
        },
        {
          "duration": 0.25,
          "durationTicks": 96,
          "midi": 72,
          "name": "C5",
          "ticks": 42576,
          "time": 110.875,
          "velocity": 0.8661417322834646
        },
        {
          "duration": 0.25,
          "durationTicks": 96,
          "midi": 64,
          "name": "E4",
          "ticks": 42672,
          "time": 111.125,
          "velocity": 0.8661417322834646
        },
        {
          "duration": 0.25,
          "durationTicks": 96,
          "midi": 76,
          "name": "E5",
          "ticks": 42672,
          "time": 111.125,
          "velocity": 0.8661417322834646
        },
        {
          "duration": 0.25,
          "durationTicks": 96,
          "midi": 62,
          "name": "D4",
          "ticks": 42768,
          "time": 111.375,
          "velocity": 0.8661417322834646
        },
        {
          "duration": 0.25,
          "durationTicks": 96,
          "midi": 74,
          "name": "D5",
          "ticks": 42768,
          "time": 111.375,
          "velocity": 0.8661417322834646
        },
        {
          "duration": 0.125,
          "durationTicks": 48,
          "midi": 55,
          "name": "G3",
          "ticks": 42864,
          "time": 111.625,
          "velocity": 0.8661417322834646
        },
        {
          "duration": 0.125,
          "durationTicks": 48,
          "midi": 67,
          "name": "G4",
          "ticks": 42864,
          "time": 111.625,
          "velocity": 0.8661417322834646
        },
        {
          "duration": 0.125,
          "durationTicks": 48,
          "midi": 57,
          "name": "A3",
          "ticks": 42912,
          "time": 111.75,
          "velocity": 0.8661417322834646
        },
        {
          "duration": 0.125,
          "durationTicks": 48,
          "midi": 69,
          "name": "A4",
          "ticks": 42912,
          "time": 111.75,
          "velocity": 0.8661417322834646
        },
        {
          "duration": 0.125,
          "durationTicks": 48,
          "midi": 60,
          "name": "C4",
          "ticks": 42960,
          "time": 111.875,
          "velocity": 0.8661417322834646
        },
        {
          "duration": 0.125,
          "durationTicks": 48,
          "midi": 72,
          "name": "C5",
          "ticks": 42960,
          "time": 111.875,
          "velocity": 0.8661417322834646
        }
      ]
    },
    {
      "channel": 0,
      "controlChanges": {
        "0": [
          {
            "number": 0,
            "ticks": 0,
            "time": 0,
            "value": 0
          }
        ],
        "32": [
          {
            "number": 32,
            "ticks": 0,
            "time": 0,
            "value": 0
          }
        ]
      },
      "pitchBends": [],
      "instrument": {
        "family": "piano",
        "number": 0,
        "name": "acoustic grand piano"
      },
      "name": "Staff",
      "notes": [],
      "endOfTrackTicks": 59898
    },
    {
      "channel": 0,
      "controlChanges": {
        "7": [
          {
            "number": 7,
            "ticks": 0,
            "time": 0,
            "value": 1
          },
          {
            "number": 7,
            "ticks": 0,
            "time": 0,
            "value": 1
          }
        ],
        "10": [
          {
            "number": 10,
            "ticks": 0,
            "time": 0,
            "value": 0.5039370078740157
          }
        ]
      },
      "pitchBends": [],
      "instrument": {
        "family": "synth lead",
        "number": 81,
        "name": "lead 2 (sawtooth)"
      },
      "name": "",
      "notes": [
        {
          "duration": 0.109375,
          "durationTicks": 42,
          "midi": 50,
          "name": "D3",
          "ticks": 0,
          "time": 0,
          "velocity": 0.8661417322834646
        },
        {
          "duration": 0.109375,
          "durationTicks": 42,
          "midi": 50,
          "name": "D3",
          "ticks": 48,
          "time": 0.125,
          "velocity": 0.8661417322834646
        },
        {
          "duration": 0.109375,
          "durationTicks": 42,
          "midi": 62,
          "name": "D4",
          "ticks": 96,
          "time": 0.25,
          "velocity": 0.8661417322834646
        },
        {
          "duration": 0.109375,
          "durationTicks": 42,
          "midi": 57,
          "name": "A3",
          "ticks": 192,
          "time": 0.5,
          "velocity": 0.8661417322834646
        },
        {
          "duration": 0.109375,
          "durationTicks": 42,
          "midi": 56,
          "name": "G#3",
          "ticks": 336,
          "time": 0.875,
          "velocity": 0.8661417322834646
        },
        {
          "duration": 0.109375,
          "durationTicks": 42,
          "midi": 55,
          "name": "G3",
          "ticks": 432,
          "time": 1.125,
          "velocity": 0.8661417322834646
        },
        {
          "duration": 0.234375,
          "durationTicks": 90,
          "midi": 53,
          "name": "F3",
          "ticks": 528,
          "time": 1.375,
          "velocity": 0.8661417322834646
        },
        {
          "duration": 0.109375,
          "durationTicks": 42,
          "midi": 50,
          "name": "D3",
          "ticks": 624,
          "time": 1.625,
          "velocity": 0.8661417322834646
        },
        {
          "duration": 0.109375,
          "durationTicks": 42,
          "midi": 53,
          "name": "F3",
          "ticks": 672,
          "time": 1.75,
          "velocity": 0.8661417322834646
        },
        {
          "duration": 0.109375,
          "durationTicks": 42,
          "midi": 55,
          "name": "G3",
          "ticks": 720,
          "time": 1.875,
          "velocity": 0.8661417322834646
        },
        {
          "duration": 0.109375,
          "durationTicks": 42,
          "midi": 48,
          "name": "C3",
          "ticks": 768,
          "time": 2,
          "velocity": 0.8661417322834646
        },
        {
          "duration": 0.109375,
          "durationTicks": 42,
          "midi": 48,
          "name": "C3",
          "ticks": 816,
          "time": 2.125,
          "velocity": 0.8661417322834646
        },
        {
          "duration": 0.109375,
          "durationTicks": 42,
          "midi": 62,
          "name": "D4",
          "ticks": 864,
          "time": 2.25,
          "velocity": 0.8661417322834646
        },
        {
          "duration": 0.109375,
          "durationTicks": 42,
          "midi": 57,
          "name": "A3",
          "ticks": 960,
          "time": 2.5,
          "velocity": 0.8661417322834646
        },
        {
          "duration": 0.109375,
          "durationTicks": 42,
          "midi": 56,
          "name": "G#3",
          "ticks": 1104,
          "time": 2.875,
          "velocity": 0.8661417322834646
        },
        {
          "duration": 0.109375,
          "durationTicks": 42,
          "midi": 55,
          "name": "G3",
          "ticks": 1200,
          "time": 3.125,
          "velocity": 0.8661417322834646
        },
        {
          "duration": 0.234375,
          "durationTicks": 90,
          "midi": 53,
          "name": "F3",
          "ticks": 1296,
          "time": 3.375,
          "velocity": 0.8661417322834646
        },
        {
          "duration": 0.109375,
          "durationTicks": 42,
          "midi": 50,
          "name": "D3",
          "ticks": 1392,
          "time": 3.625,
          "velocity": 0.8661417322834646
        },
        {
          "duration": 0.109375,
          "durationTicks": 42,
          "midi": 53,
          "name": "F3",
          "ticks": 1440,
          "time": 3.75,
          "velocity": 0.8661417322834646
        },
        {
          "duration": 0.109375,
          "durationTicks": 42,
          "midi": 55,
          "name": "G3",
          "ticks": 1488,
          "time": 3.875,
          "velocity": 0.8661417322834646
        },
        {
          "duration": 0.109375,
          "durationTicks": 42,
          "midi": 47,
          "name": "B2",
          "ticks": 1536,
          "time": 4,
          "velocity": 0.8661417322834646
        },
        {
          "duration": 0.109375,
          "durationTicks": 42,
          "midi": 47,
          "name": "B2",
          "ticks": 1584,
          "time": 4.125,
          "velocity": 0.8661417322834646
        },
        {
          "duration": 0.109375,
          "durationTicks": 42,
          "midi": 62,
          "name": "D4",
          "ticks": 1632,
          "time": 4.25,
          "velocity": 0.8661417322834646
        },
        {
          "duration": 0.109375,
          "durationTicks": 42,
          "midi": 57,
          "name": "A3",
          "ticks": 1728,
          "time": 4.5,
          "velocity": 0.8661417322834646
        },
        {
          "duration": 0.109375,
          "durationTicks": 42,
          "midi": 56,
          "name": "G#3",
          "ticks": 1872,
          "time": 4.875,
          "velocity": 0.8661417322834646
        },
        {
          "duration": 0.109375,
          "durationTicks": 42,
          "midi": 55,
          "name": "G3",
          "ticks": 1968,
          "time": 5.125,
          "velocity": 0.8661417322834646
        },
        {
          "duration": 0.234375,
          "durationTicks": 90,
          "midi": 53,
          "name": "F3",
          "ticks": 2064,
          "time": 5.375,
          "velocity": 0.8661417322834646
        },
        {
          "duration": 0.109375,
          "durationTicks": 42,
          "midi": 50,
          "name": "D3",
          "ticks": 2160,
          "time": 5.625,
          "velocity": 0.8661417322834646
        },
        {
          "duration": 0.109375,
          "durationTicks": 42,
          "midi": 53,
          "name": "F3",
          "ticks": 2208,
          "time": 5.75,
          "velocity": 0.8661417322834646
        },
        {
          "duration": 0.109375,
          "durationTicks": 42,
          "midi": 55,
          "name": "G3",
          "ticks": 2256,
          "time": 5.875,
          "velocity": 0.8661417322834646
        },
        {
          "duration": 0.109375,
          "durationTicks": 42,
          "midi": 46,
          "name": "A#2",
          "ticks": 2304,
          "time": 6,
          "velocity": 0.8661417322834646
        },
        {
          "duration": 0.109375,
          "durationTicks": 42,
          "midi": 46,
          "name": "A#2",
          "ticks": 2352,
          "time": 6.125,
          "velocity": 0.8661417322834646
        },
        {
          "duration": 0.109375,
          "durationTicks": 42,
          "midi": 62,
          "name": "D4",
          "ticks": 2400,
          "time": 6.25,
          "velocity": 0.8661417322834646
        },
        {
          "duration": 0.109375,
          "durationTicks": 42,
          "midi": 57,
          "name": "A3",
          "ticks": 2496,
          "time": 6.5,
          "velocity": 0.8661417322834646
        },
        {
          "duration": 0.109375,
          "durationTicks": 42,
          "midi": 56,
          "name": "G#3",
          "ticks": 2640,
          "time": 6.875,
          "velocity": 0.8661417322834646
        },
        {
          "duration": 0.109375,
          "durationTicks": 42,
          "midi": 55,
          "name": "G3",
          "ticks": 2736,
          "time": 7.125,
          "velocity": 0.8661417322834646
        },
        {
          "duration": 0.234375,
          "durationTicks": 90,
          "midi": 53,
          "name": "F3",
          "ticks": 2832,
          "time": 7.375,
          "velocity": 0.8661417322834646
        },
        {
          "duration": 0.109375,
          "durationTicks": 42,
          "midi": 50,
          "name": "D3",
          "ticks": 2928,
          "time": 7.625,
          "velocity": 0.8661417322834646
        },
        {
          "duration": 0.109375,
          "durationTicks": 42,
          "midi": 53,
          "name": "F3",
          "ticks": 2976,
          "time": 7.75,
          "velocity": 0.8661417322834646
        },
        {
          "duration": 0.109375,
          "durationTicks": 42,
          "midi": 55,
          "name": "G3",
          "ticks": 3024,
          "time": 7.875,
          "velocity": 0.8661417322834646
        },
        {
          "duration": 0.109375,
          "durationTicks": 42,
          "midi": 50,
          "name": "D3",
          "ticks": 3072,
          "time": 8,
          "velocity": 0.8661417322834646
        },
        {
          "duration": 2,
          "durationTicks": 768,
          "midi": 38,
          "name": "D2",
          "ticks": 3072,
          "time": 8,
          "velocity": 0.6299212598425197
        },
        {
          "duration": 0.109375,
          "durationTicks": 42,
          "midi": 50,
          "name": "D3",
          "ticks": 3120,
          "time": 8.125,
          "velocity": 0.8661417322834646
        },
        {
          "duration": 0.109375,
          "durationTicks": 42,
          "midi": 62,
          "name": "D4",
          "ticks": 3168,
          "time": 8.25,
          "velocity": 0.8661417322834646
        },
        {
          "duration": 0.109375,
          "durationTicks": 42,
          "midi": 57,
          "name": "A3",
          "ticks": 3264,
          "time": 8.5,
          "velocity": 0.8661417322834646
        },
        {
          "duration": 0.109375,
          "durationTicks": 42,
          "midi": 56,
          "name": "G#3",
          "ticks": 3408,
          "time": 8.875,
          "velocity": 0.8661417322834646
        },
        {
          "duration": 0.109375,
          "durationTicks": 42,
          "midi": 55,
          "name": "G3",
          "ticks": 3504,
          "time": 9.125,
          "velocity": 0.8661417322834646
        },
        {
          "duration": 0.234375,
          "durationTicks": 90,
          "midi": 53,
          "name": "F3",
          "ticks": 3600,
          "time": 9.375,
          "velocity": 0.8661417322834646
        },
        {
          "duration": 0.109375,
          "durationTicks": 42,
          "midi": 50,
          "name": "D3",
          "ticks": 3696,
          "time": 9.625,
          "velocity": 0.8661417322834646
        },
        {
          "duration": 0.109375,
          "durationTicks": 42,
          "midi": 53,
          "name": "F3",
          "ticks": 3744,
          "time": 9.75,
          "velocity": 0.8661417322834646
        },
        {
          "duration": 0.109375,
          "durationTicks": 42,
          "midi": 55,
          "name": "G3",
          "ticks": 3792,
          "time": 9.875,
          "velocity": 0.8661417322834646
        },
        {
          "duration": 2,
          "durationTicks": 768,
          "midi": 36,
          "name": "C2",
          "ticks": 3840,
          "time": 10,
          "velocity": 0.6299212598425197
        },
        {
          "duration": 0.109375,
          "durationTicks": 42,
          "midi": 48,
          "name": "C3",
          "ticks": 3840,
          "time": 10,
          "velocity": 0.8661417322834646
        },
        {
          "duration": 0.109375,
          "durationTicks": 42,
          "midi": 48,
          "name": "C3",
          "ticks": 3888,
          "time": 10.125,
          "velocity": 0.8661417322834646
        },
        {
          "duration": 0.109375,
          "durationTicks": 42,
          "midi": 62,
          "name": "D4",
          "ticks": 3936,
          "time": 10.25,
          "velocity": 0.8661417322834646
        },
        {
          "duration": 0.109375,
          "durationTicks": 42,
          "midi": 57,
          "name": "A3",
          "ticks": 4032,
          "time": 10.5,
          "velocity": 0.8661417322834646
        },
        {
          "duration": 0.109375,
          "durationTicks": 42,
          "midi": 56,
          "name": "G#3",
          "ticks": 4176,
          "time": 10.875,
          "velocity": 0.8661417322834646
        },
        {
          "duration": 0.109375,
          "durationTicks": 42,
          "midi": 55,
          "name": "G3",
          "ticks": 4272,
          "time": 11.125,
          "velocity": 0.8661417322834646
        },
        {
          "duration": 0.234375,
          "durationTicks": 90,
          "midi": 53,
          "name": "F3",
          "ticks": 4368,
          "time": 11.375,
          "velocity": 0.8661417322834646
        },
        {
          "duration": 0.109375,
          "durationTicks": 42,
          "midi": 50,
          "name": "D3",
          "ticks": 4464,
          "time": 11.625,
          "velocity": 0.8661417322834646
        },
        {
          "duration": 0.109375,
          "durationTicks": 42,
          "midi": 53,
          "name": "F3",
          "ticks": 4512,
          "time": 11.75,
          "velocity": 0.8661417322834646
        },
        {
          "duration": 0.109375,
          "durationTicks": 42,
          "midi": 55,
          "name": "G3",
          "ticks": 4560,
          "time": 11.875,
          "velocity": 0.8661417322834646
        },
        {
          "duration": 0.109375,
          "durationTicks": 42,
          "midi": 47,
          "name": "B2",
          "ticks": 4608,
          "time": 12,
          "velocity": 0.8661417322834646
        },
        {
          "duration": 2,
          "durationTicks": 768,
          "midi": 35,
          "name": "B1",
          "ticks": 4608,
          "time": 12,
          "velocity": 0.6299212598425197
        },
        {
          "duration": 0.109375,
          "durationTicks": 42,
          "midi": 47,
          "name": "B2",
          "ticks": 4656,
          "time": 12.125,
          "velocity": 0.8661417322834646
        },
        {
          "duration": 0.109375,
          "durationTicks": 42,
          "midi": 62,
          "name": "D4",
          "ticks": 4704,
          "time": 12.25,
          "velocity": 0.8661417322834646
        },
        {
          "duration": 0.109375,
          "durationTicks": 42,
          "midi": 57,
          "name": "A3",
          "ticks": 4800,
          "time": 12.5,
          "velocity": 0.8661417322834646
        },
        {
          "duration": 0.109375,
          "durationTicks": 42,
          "midi": 56,
          "name": "G#3",
          "ticks": 4944,
          "time": 12.875,
          "velocity": 0.8661417322834646
        },
        {
          "duration": 0.109375,
          "durationTicks": 42,
          "midi": 55,
          "name": "G3",
          "ticks": 5040,
          "time": 13.125,
          "velocity": 0.8661417322834646
        },
        {
          "duration": 0.234375,
          "durationTicks": 90,
          "midi": 53,
          "name": "F3",
          "ticks": 5136,
          "time": 13.375,
          "velocity": 0.8661417322834646
        },
        {
          "duration": 0.109375,
          "durationTicks": 42,
          "midi": 50,
          "name": "D3",
          "ticks": 5232,
          "time": 13.625,
          "velocity": 0.8661417322834646
        },
        {
          "duration": 0.109375,
          "durationTicks": 42,
          "midi": 53,
          "name": "F3",
          "ticks": 5280,
          "time": 13.75,
          "velocity": 0.8661417322834646
        },
        {
          "duration": 0.109375,
          "durationTicks": 42,
          "midi": 55,
          "name": "G3",
          "ticks": 5328,
          "time": 13.875,
          "velocity": 0.8661417322834646
        },
        {
          "duration": 1,
          "durationTicks": 384,
          "midi": 34,
          "name": "A#1",
          "ticks": 5376,
          "time": 14,
          "velocity": 0.6299212598425197
        },
        {
          "duration": 0.109375,
          "durationTicks": 42,
          "midi": 46,
          "name": "A#2",
          "ticks": 5376,
          "time": 14,
          "velocity": 0.8661417322834646
        },
        {
          "duration": 0.109375,
          "durationTicks": 42,
          "midi": 46,
          "name": "A#2",
          "ticks": 5424,
          "time": 14.125,
          "velocity": 0.8661417322834646
        },
        {
          "duration": 0.109375,
          "durationTicks": 42,
          "midi": 62,
          "name": "D4",
          "ticks": 5472,
          "time": 14.25,
          "velocity": 0.8661417322834646
        },
        {
          "duration": 0.109375,
          "durationTicks": 42,
          "midi": 57,
          "name": "A3",
          "ticks": 5568,
          "time": 14.5,
          "velocity": 0.8661417322834646
        },
        {
          "duration": 0.109375,
          "durationTicks": 42,
          "midi": 56,
          "name": "G#3",
          "ticks": 5712,
          "time": 14.875,
          "velocity": 0.8661417322834646
        },
        {
          "duration": 1,
          "durationTicks": 384,
          "midi": 36,
          "name": "C2",
          "ticks": 5760,
          "time": 15,
          "velocity": 0.6299212598425197
        },
        {
          "duration": 0.109375,
          "durationTicks": 42,
          "midi": 55,
          "name": "G3",
          "ticks": 5808,
          "time": 15.125,
          "velocity": 0.8661417322834646
        },
        {
          "duration": 0.234375,
          "durationTicks": 90,
          "midi": 53,
          "name": "F3",
          "ticks": 5904,
          "time": 15.375,
          "velocity": 0.8661417322834646
        },
        {
          "duration": 0.109375,
          "durationTicks": 42,
          "midi": 50,
          "name": "D3",
          "ticks": 6000,
          "time": 15.625,
          "velocity": 0.8661417322834646
        },
        {
          "duration": 0.109375,
          "durationTicks": 42,
          "midi": 53,
          "name": "F3",
          "ticks": 6048,
          "time": 15.75,
          "velocity": 0.8661417322834646
        },
        {
          "duration": 0.109375,
          "durationTicks": 42,
          "midi": 55,
          "name": "G3",
          "ticks": 6096,
          "time": 15.875,
          "velocity": 0.8661417322834646
        },
        {
          "duration": 2,
          "durationTicks": 768,
          "midi": 38,
          "name": "D2",
          "ticks": 6144,
          "time": 16,
          "velocity": 0.6299212598425197
        },
        {
          "duration": 0.109375,
          "durationTicks": 42,
          "midi": 50,
          "name": "D3",
          "ticks": 6144,
          "time": 16,
          "velocity": 0.8661417322834646
        },
        {
          "duration": 0.109375,
          "durationTicks": 42,
          "midi": 50,
          "name": "D3",
          "ticks": 6192,
          "time": 16.125,
          "velocity": 0.8661417322834646
        },
        {
          "duration": 0.109375,
          "durationTicks": 42,
          "midi": 62,
          "name": "D4",
          "ticks": 6240,
          "time": 16.25,
          "velocity": 0.8661417322834646
        },
        {
          "duration": 0.109375,
          "durationTicks": 42,
          "midi": 57,
          "name": "A3",
          "ticks": 6336,
          "time": 16.5,
          "velocity": 0.8661417322834646
        },
        {
          "duration": 0.109375,
          "durationTicks": 42,
          "midi": 56,
          "name": "G#3",
          "ticks": 6480,
          "time": 16.875,
          "velocity": 0.8661417322834646
        },
        {
          "duration": 0.109375,
          "durationTicks": 42,
          "midi": 55,
          "name": "G3",
          "ticks": 6576,
          "time": 17.125,
          "velocity": 0.8661417322834646
        },
        {
          "duration": 0.234375,
          "durationTicks": 90,
          "midi": 53,
          "name": "F3",
          "ticks": 6672,
          "time": 17.375,
          "velocity": 0.8661417322834646
        },
        {
          "duration": 0.109375,
          "durationTicks": 42,
          "midi": 50,
          "name": "D3",
          "ticks": 6768,
          "time": 17.625,
          "velocity": 0.8661417322834646
        },
        {
          "duration": 0.109375,
          "durationTicks": 42,
          "midi": 53,
          "name": "F3",
          "ticks": 6816,
          "time": 17.75,
          "velocity": 0.8661417322834646
        },
        {
          "duration": 0.109375,
          "durationTicks": 42,
          "midi": 55,
          "name": "G3",
          "ticks": 6864,
          "time": 17.875,
          "velocity": 0.8661417322834646
        },
        {
          "duration": 2,
          "durationTicks": 768,
          "midi": 36,
          "name": "C2",
          "ticks": 6912,
          "time": 18,
          "velocity": 0.6299212598425197
        },
        {
          "duration": 0.109375,
          "durationTicks": 42,
          "midi": 48,
          "name": "C3",
          "ticks": 6912,
          "time": 18,
          "velocity": 0.8661417322834646
        },
        {
          "duration": 0.109375,
          "durationTicks": 42,
          "midi": 48,
          "name": "C3",
          "ticks": 6960,
          "time": 18.125,
          "velocity": 0.8661417322834646
        },
        {
          "duration": 0.109375,
          "durationTicks": 42,
          "midi": 62,
          "name": "D4",
          "ticks": 7008,
          "time": 18.25,
          "velocity": 0.8661417322834646
        },
        {
          "duration": 0.109375,
          "durationTicks": 42,
          "midi": 57,
          "name": "A3",
          "ticks": 7104,
          "time": 18.5,
          "velocity": 0.8661417322834646
        },
        {
          "duration": 0.109375,
          "durationTicks": 42,
          "midi": 56,
          "name": "G#3",
          "ticks": 7248,
          "time": 18.875,
          "velocity": 0.8661417322834646
        },
        {
          "duration": 0.109375,
          "durationTicks": 42,
          "midi": 55,
          "name": "G3",
          "ticks": 7344,
          "time": 19.125,
          "velocity": 0.8661417322834646
        },
        {
          "duration": 0.234375,
          "durationTicks": 90,
          "midi": 53,
          "name": "F3",
          "ticks": 7440,
          "time": 19.375,
          "velocity": 0.8661417322834646
        },
        {
          "duration": 0.109375,
          "durationTicks": 42,
          "midi": 50,
          "name": "D3",
          "ticks": 7536,
          "time": 19.625,
          "velocity": 0.8661417322834646
        },
        {
          "duration": 0.109375,
          "durationTicks": 42,
          "midi": 53,
          "name": "F3",
          "ticks": 7584,
          "time": 19.75,
          "velocity": 0.8661417322834646
        },
        {
          "duration": 0.109375,
          "durationTicks": 42,
          "midi": 55,
          "name": "G3",
          "ticks": 7632,
          "time": 19.875,
          "velocity": 0.8661417322834646
        },
        {
          "duration": 2,
          "durationTicks": 768,
          "midi": 35,
          "name": "B1",
          "ticks": 7680,
          "time": 20,
          "velocity": 0.6299212598425197
        },
        {
          "duration": 0.109375,
          "durationTicks": 42,
          "midi": 47,
          "name": "B2",
          "ticks": 7680,
          "time": 20,
          "velocity": 0.8661417322834646
        },
        {
          "duration": 0.109375,
          "durationTicks": 42,
          "midi": 47,
          "name": "B2",
          "ticks": 7728,
          "time": 20.125,
          "velocity": 0.8661417322834646
        },
        {
          "duration": 0.109375,
          "durationTicks": 42,
          "midi": 62,
          "name": "D4",
          "ticks": 7776,
          "time": 20.25,
          "velocity": 0.8661417322834646
        },
        {
          "duration": 0.109375,
          "durationTicks": 42,
          "midi": 57,
          "name": "A3",
          "ticks": 7872,
          "time": 20.5,
          "velocity": 0.8661417322834646
        },
        {
          "duration": 0.109375,
          "durationTicks": 42,
          "midi": 56,
          "name": "G#3",
          "ticks": 8016,
          "time": 20.875,
          "velocity": 0.8661417322834646
        },
        {
          "duration": 0.109375,
          "durationTicks": 42,
          "midi": 55,
          "name": "G3",
          "ticks": 8112,
          "time": 21.125,
          "velocity": 0.8661417322834646
        },
        {
          "duration": 0.234375,
          "durationTicks": 90,
          "midi": 53,
          "name": "F3",
          "ticks": 8208,
          "time": 21.375,
          "velocity": 0.8661417322834646
        },
        {
          "duration": 0.109375,
          "durationTicks": 42,
          "midi": 50,
          "name": "D3",
          "ticks": 8304,
          "time": 21.625,
          "velocity": 0.8661417322834646
        },
        {
          "duration": 0.109375,
          "durationTicks": 42,
          "midi": 53,
          "name": "F3",
          "ticks": 8352,
          "time": 21.75,
          "velocity": 0.8661417322834646
        },
        {
          "duration": 0.109375,
          "durationTicks": 42,
          "midi": 55,
          "name": "G3",
          "ticks": 8400,
          "time": 21.875,
          "velocity": 0.8661417322834646
        },
        {
          "duration": 1,
          "durationTicks": 384,
          "midi": 34,
          "name": "A#1",
          "ticks": 8448,
          "time": 22,
          "velocity": 0.6299212598425197
        },
        {
          "duration": 0.109375,
          "durationTicks": 42,
          "midi": 46,
          "name": "A#2",
          "ticks": 8448,
          "time": 22,
          "velocity": 0.8661417322834646
        },
        {
          "duration": 0.109375,
          "durationTicks": 42,
          "midi": 46,
          "name": "A#2",
          "ticks": 8496,
          "time": 22.125,
          "velocity": 0.8661417322834646
        },
        {
          "duration": 0.109375,
          "durationTicks": 42,
          "midi": 62,
          "name": "D4",
          "ticks": 8544,
          "time": 22.25,
          "velocity": 0.8661417322834646
        },
        {
          "duration": 0.109375,
          "durationTicks": 42,
          "midi": 57,
          "name": "A3",
          "ticks": 8640,
          "time": 22.5,
          "velocity": 0.8661417322834646
        },
        {
          "duration": 0.109375,
          "durationTicks": 42,
          "midi": 56,
          "name": "G#3",
          "ticks": 8784,
          "time": 22.875,
          "velocity": 0.8661417322834646
        },
        {
          "duration": 1,
          "durationTicks": 384,
          "midi": 36,
          "name": "C2",
          "ticks": 8832,
          "time": 23,
          "velocity": 0.6299212598425197
        },
        {
          "duration": 0.109375,
          "durationTicks": 42,
          "midi": 55,
          "name": "G3",
          "ticks": 8880,
          "time": 23.125,
          "velocity": 0.8661417322834646
        },
        {
          "duration": 0.234375,
          "durationTicks": 90,
          "midi": 53,
          "name": "F3",
          "ticks": 8976,
          "time": 23.375,
          "velocity": 0.8661417322834646
        },
        {
          "duration": 0.109375,
          "durationTicks": 42,
          "midi": 50,
          "name": "D3",
          "ticks": 9072,
          "time": 23.625,
          "velocity": 0.8661417322834646
        },
        {
          "duration": 0.109375,
          "durationTicks": 42,
          "midi": 53,
          "name": "F3",
          "ticks": 9120,
          "time": 23.75,
          "velocity": 0.8661417322834646
        },
        {
          "duration": 0.109375,
          "durationTicks": 42,
          "midi": 55,
          "name": "G3",
          "ticks": 9168,
          "time": 23.875,
          "velocity": 0.8661417322834646
        },
        {
          "duration": 0.109375,
          "durationTicks": 42,
          "midi": 50,
          "name": "D3",
          "ticks": 9216,
          "time": 24,
          "velocity": 0.8661417322834646
        },
        {
          "duration": 2,
          "durationTicks": 768,
          "midi": 38,
          "name": "D2",
          "ticks": 9216,
          "time": 24,
          "velocity": 0.6299212598425197
        },
        {
          "duration": 0.109375,
          "durationTicks": 42,
          "midi": 50,
          "name": "D3",
          "ticks": 9264,
          "time": 24.125,
          "velocity": 0.8661417322834646
        },
        {
          "duration": 0.109375,
          "durationTicks": 42,
          "midi": 62,
          "name": "D4",
          "ticks": 9312,
          "time": 24.25,
          "velocity": 0.8661417322834646
        },
        {
          "duration": 0.109375,
          "durationTicks": 42,
          "midi": 57,
          "name": "A3",
          "ticks": 9408,
          "time": 24.5,
          "velocity": 0.8661417322834646
        },
        {
          "duration": 0.109375,
          "durationTicks": 42,
          "midi": 56,
          "name": "G#3",
          "ticks": 9552,
          "time": 24.875,
          "velocity": 0.8661417322834646
        },
        {
          "duration": 0.109375,
          "durationTicks": 42,
          "midi": 55,
          "name": "G3",
          "ticks": 9648,
          "time": 25.125,
          "velocity": 0.8661417322834646
        },
        {
          "duration": 0.234375,
          "durationTicks": 90,
          "midi": 53,
          "name": "F3",
          "ticks": 9744,
          "time": 25.375,
          "velocity": 0.8661417322834646
        },
        {
          "duration": 0.109375,
          "durationTicks": 42,
          "midi": 50,
          "name": "D3",
          "ticks": 9840,
          "time": 25.625,
          "velocity": 0.8661417322834646
        },
        {
          "duration": 0.109375,
          "durationTicks": 42,
          "midi": 53,
          "name": "F3",
          "ticks": 9888,
          "time": 25.75,
          "velocity": 0.8661417322834646
        },
        {
          "duration": 0.109375,
          "durationTicks": 42,
          "midi": 55,
          "name": "G3",
          "ticks": 9936,
          "time": 25.875,
          "velocity": 0.8661417322834646
        },
        {
          "duration": 0.109375,
          "durationTicks": 42,
          "midi": 48,
          "name": "C3",
          "ticks": 9984,
          "time": 26,
          "velocity": 0.8661417322834646
        },
        {
          "duration": 2,
          "durationTicks": 768,
          "midi": 36,
          "name": "C2",
          "ticks": 9984,
          "time": 26,
          "velocity": 0.6299212598425197
        },
        {
          "duration": 0.109375,
          "durationTicks": 42,
          "midi": 48,
          "name": "C3",
          "ticks": 10032,
          "time": 26.125,
          "velocity": 0.8661417322834646
        },
        {
          "duration": 0.109375,
          "durationTicks": 42,
          "midi": 62,
          "name": "D4",
          "ticks": 10080,
          "time": 26.25,
          "velocity": 0.8661417322834646
        },
        {
          "duration": 0.109375,
          "durationTicks": 42,
          "midi": 57,
          "name": "A3",
          "ticks": 10176,
          "time": 26.5,
          "velocity": 0.8661417322834646
        },
        {
          "duration": 0.109375,
          "durationTicks": 42,
          "midi": 56,
          "name": "G#3",
          "ticks": 10320,
          "time": 26.875,
          "velocity": 0.8661417322834646
        },
        {
          "duration": 0.109375,
          "durationTicks": 42,
          "midi": 55,
          "name": "G3",
          "ticks": 10416,
          "time": 27.125,
          "velocity": 0.8661417322834646
        },
        {
          "duration": 0.234375,
          "durationTicks": 90,
          "midi": 53,
          "name": "F3",
          "ticks": 10512,
          "time": 27.375,
          "velocity": 0.8661417322834646
        },
        {
          "duration": 0.109375,
          "durationTicks": 42,
          "midi": 50,
          "name": "D3",
          "ticks": 10608,
          "time": 27.625,
          "velocity": 0.8661417322834646
        },
        {
          "duration": 0.109375,
          "durationTicks": 42,
          "midi": 53,
          "name": "F3",
          "ticks": 10656,
          "time": 27.75,
          "velocity": 0.8661417322834646
        },
        {
          "duration": 0.109375,
          "durationTicks": 42,
          "midi": 55,
          "name": "G3",
          "ticks": 10704,
          "time": 27.875,
          "velocity": 0.8661417322834646
        },
        {
          "duration": 0.109375,
          "durationTicks": 42,
          "midi": 47,
          "name": "B2",
          "ticks": 10752,
          "time": 28,
          "velocity": 0.8661417322834646
        },
        {
          "duration": 2,
          "durationTicks": 768,
          "midi": 35,
          "name": "B1",
          "ticks": 10752,
          "time": 28,
          "velocity": 0.6299212598425197
        },
        {
          "duration": 0.109375,
          "durationTicks": 42,
          "midi": 47,
          "name": "B2",
          "ticks": 10800,
          "time": 28.125,
          "velocity": 0.8661417322834646
        },
        {
          "duration": 0.109375,
          "durationTicks": 42,
          "midi": 62,
          "name": "D4",
          "ticks": 10848,
          "time": 28.25,
          "velocity": 0.8661417322834646
        },
        {
          "duration": 0.109375,
          "durationTicks": 42,
          "midi": 57,
          "name": "A3",
          "ticks": 10944,
          "time": 28.5,
          "velocity": 0.8661417322834646
        },
        {
          "duration": 0.109375,
          "durationTicks": 42,
          "midi": 56,
          "name": "G#3",
          "ticks": 11088,
          "time": 28.875,
          "velocity": 0.8661417322834646
        },
        {
          "duration": 0.109375,
          "durationTicks": 42,
          "midi": 55,
          "name": "G3",
          "ticks": 11184,
          "time": 29.125,
          "velocity": 0.8661417322834646
        },
        {
          "duration": 0.234375,
          "durationTicks": 90,
          "midi": 53,
          "name": "F3",
          "ticks": 11280,
          "time": 29.375,
          "velocity": 0.8661417322834646
        },
        {
          "duration": 0.109375,
          "durationTicks": 42,
          "midi": 50,
          "name": "D3",
          "ticks": 11376,
          "time": 29.625,
          "velocity": 0.8661417322834646
        },
        {
          "duration": 0.109375,
          "durationTicks": 42,
          "midi": 53,
          "name": "F3",
          "ticks": 11424,
          "time": 29.75,
          "velocity": 0.8661417322834646
        },
        {
          "duration": 0.109375,
          "durationTicks": 42,
          "midi": 55,
          "name": "G3",
          "ticks": 11472,
          "time": 29.875,
          "velocity": 0.8661417322834646
        },
        {
          "duration": 0.109375,
          "durationTicks": 42,
          "midi": 46,
          "name": "A#2",
          "ticks": 11520,
          "time": 30,
          "velocity": 0.8661417322834646
        },
        {
          "duration": 1,
          "durationTicks": 384,
          "midi": 34,
          "name": "A#1",
          "ticks": 11520,
          "time": 30,
          "velocity": 0.6299212598425197
        },
        {
          "duration": 0.109375,
          "durationTicks": 42,
          "midi": 46,
          "name": "A#2",
          "ticks": 11568,
          "time": 30.125,
          "velocity": 0.8661417322834646
        },
        {
          "duration": 0.109375,
          "durationTicks": 42,
          "midi": 62,
          "name": "D4",
          "ticks": 11616,
          "time": 30.25,
          "velocity": 0.8661417322834646
        },
        {
          "duration": 0.109375,
          "durationTicks": 42,
          "midi": 57,
          "name": "A3",
          "ticks": 11712,
          "time": 30.5,
          "velocity": 0.8661417322834646
        },
        {
          "duration": 0.109375,
          "durationTicks": 42,
          "midi": 56,
          "name": "G#3",
          "ticks": 11856,
          "time": 30.875,
          "velocity": 0.8661417322834646
        },
        {
          "duration": 1,
          "durationTicks": 384,
          "midi": 36,
          "name": "C2",
          "ticks": 11904,
          "time": 31,
          "velocity": 0.6299212598425197
        },
        {
          "duration": 0.109375,
          "durationTicks": 42,
          "midi": 55,
          "name": "G3",
          "ticks": 11952,
          "time": 31.125,
          "velocity": 0.8661417322834646
        },
        {
          "duration": 0.234375,
          "durationTicks": 90,
          "midi": 53,
          "name": "F3",
          "ticks": 12048,
          "time": 31.375,
          "velocity": 0.8661417322834646
        },
        {
          "duration": 0.109375,
          "durationTicks": 42,
          "midi": 50,
          "name": "D3",
          "ticks": 12144,
          "time": 31.625,
          "velocity": 0.8661417322834646
        },
        {
          "duration": 0.109375,
          "durationTicks": 42,
          "midi": 53,
          "name": "F3",
          "ticks": 12192,
          "time": 31.75,
          "velocity": 0.8661417322834646
        },
        {
          "duration": 0.109375,
          "durationTicks": 42,
          "midi": 55,
          "name": "G3",
          "ticks": 12240,
          "time": 31.875,
          "velocity": 0.8661417322834646
        },
        {
          "duration": 2,
          "durationTicks": 768,
          "midi": 38,
          "name": "D2",
          "ticks": 12288,
          "time": 32,
          "velocity": 0.5511811023622047
        },
        {
          "duration": 2,
          "durationTicks": 768,
          "midi": 36,
          "name": "C2",
          "ticks": 13056,
          "time": 34,
          "velocity": 0.5511811023622047
        },
        {
          "duration": 2,
          "durationTicks": 768,
          "midi": 35,
          "name": "B1",
          "ticks": 13824,
          "time": 36,
          "velocity": 0.5511811023622047
        },
        {
          "duration": 1,
          "durationTicks": 384,
          "midi": 34,
          "name": "A#1",
          "ticks": 14592,
          "time": 38,
          "velocity": 0.5511811023622047
        },
        {
          "duration": 1,
          "durationTicks": 384,
          "midi": 36,
          "name": "C2",
          "ticks": 14976,
          "time": 39,
          "velocity": 0.5511811023622047
        },
        {
          "duration": 0.109375,
          "durationTicks": 42,
          "midi": 50,
          "name": "D3",
          "ticks": 15360,
          "time": 40,
          "velocity": 0.8661417322834646
        },
        {
          "duration": 2,
          "durationTicks": 768,
          "midi": 38,
          "name": "D2",
          "ticks": 15360,
          "time": 40,
          "velocity": 0.6299212598425197
        },
        {
          "duration": 0.109375,
          "durationTicks": 42,
          "midi": 50,
          "name": "D3",
          "ticks": 15408,
          "time": 40.125,
          "velocity": 0.8661417322834646
        },
        {
          "duration": 0.109375,
          "durationTicks": 42,
          "midi": 62,
          "name": "D4",
          "ticks": 15456,
          "time": 40.25,
          "velocity": 0.8661417322834646
        },
        {
          "duration": 0.109375,
          "durationTicks": 42,
          "midi": 57,
          "name": "A3",
          "ticks": 15552,
          "time": 40.5,
          "velocity": 0.8661417322834646
        },
        {
          "duration": 0.109375,
          "durationTicks": 42,
          "midi": 56,
          "name": "G#3",
          "ticks": 15696,
          "time": 40.875,
          "velocity": 0.8661417322834646
        },
        {
          "duration": 0.109375,
          "durationTicks": 42,
          "midi": 55,
          "name": "G3",
          "ticks": 15792,
          "time": 41.125,
          "velocity": 0.8661417322834646
        },
        {
          "duration": 0.234375,
          "durationTicks": 90,
          "midi": 53,
          "name": "F3",
          "ticks": 15888,
          "time": 41.375,
          "velocity": 0.8661417322834646
        },
        {
          "duration": 0.109375,
          "durationTicks": 42,
          "midi": 50,
          "name": "D3",
          "ticks": 15984,
          "time": 41.625,
          "velocity": 0.8661417322834646
        },
        {
          "duration": 0.109375,
          "durationTicks": 42,
          "midi": 53,
          "name": "F3",
          "ticks": 16032,
          "time": 41.75,
          "velocity": 0.8661417322834646
        },
        {
          "duration": 0.109375,
          "durationTicks": 42,
          "midi": 55,
          "name": "G3",
          "ticks": 16080,
          "time": 41.875,
          "velocity": 0.8661417322834646
        },
        {
          "duration": 0.109375,
          "durationTicks": 42,
          "midi": 48,
          "name": "C3",
          "ticks": 16128,
          "time": 42,
          "velocity": 0.8661417322834646
        },
        {
          "duration": 2,
          "durationTicks": 768,
          "midi": 36,
          "name": "C2",
          "ticks": 16128,
          "time": 42,
          "velocity": 0.6299212598425197
        },
        {
          "duration": 0.109375,
          "durationTicks": 42,
          "midi": 48,
          "name": "C3",
          "ticks": 16176,
          "time": 42.125,
          "velocity": 0.8661417322834646
        },
        {
          "duration": 0.109375,
          "durationTicks": 42,
          "midi": 62,
          "name": "D4",
          "ticks": 16224,
          "time": 42.25,
          "velocity": 0.8661417322834646
        },
        {
          "duration": 0.109375,
          "durationTicks": 42,
          "midi": 57,
          "name": "A3",
          "ticks": 16320,
          "time": 42.5,
          "velocity": 0.8661417322834646
        },
        {
          "duration": 0.109375,
          "durationTicks": 42,
          "midi": 56,
          "name": "G#3",
          "ticks": 16464,
          "time": 42.875,
          "velocity": 0.8661417322834646
        },
        {
          "duration": 0.109375,
          "durationTicks": 42,
          "midi": 55,
          "name": "G3",
          "ticks": 16560,
          "time": 43.125,
          "velocity": 0.8661417322834646
        },
        {
          "duration": 0.234375,
          "durationTicks": 90,
          "midi": 53,
          "name": "F3",
          "ticks": 16656,
          "time": 43.375,
          "velocity": 0.8661417322834646
        },
        {
          "duration": 0.109375,
          "durationTicks": 42,
          "midi": 50,
          "name": "D3",
          "ticks": 16752,
          "time": 43.625,
          "velocity": 0.8661417322834646
        },
        {
          "duration": 0.109375,
          "durationTicks": 42,
          "midi": 53,
          "name": "F3",
          "ticks": 16800,
          "time": 43.75,
          "velocity": 0.8661417322834646
        },
        {
          "duration": 0.109375,
          "durationTicks": 42,
          "midi": 55,
          "name": "G3",
          "ticks": 16848,
          "time": 43.875,
          "velocity": 0.8661417322834646
        },
        {
          "duration": 0.109375,
          "durationTicks": 42,
          "midi": 47,
          "name": "B2",
          "ticks": 16896,
          "time": 44,
          "velocity": 0.8661417322834646
        },
        {
          "duration": 2,
          "durationTicks": 768,
          "midi": 35,
          "name": "B1",
          "ticks": 16896,
          "time": 44,
          "velocity": 0.6299212598425197
        },
        {
          "duration": 0.109375,
          "durationTicks": 42,
          "midi": 47,
          "name": "B2",
          "ticks": 16944,
          "time": 44.125,
          "velocity": 0.8661417322834646
        },
        {
          "duration": 0.109375,
          "durationTicks": 42,
          "midi": 62,
          "name": "D4",
          "ticks": 16992,
          "time": 44.25,
          "velocity": 0.8661417322834646
        },
        {
          "duration": 0.109375,
          "durationTicks": 42,
          "midi": 57,
          "name": "A3",
          "ticks": 17088,
          "time": 44.5,
          "velocity": 0.8661417322834646
        },
        {
          "duration": 0.109375,
          "durationTicks": 42,
          "midi": 56,
          "name": "G#3",
          "ticks": 17232,
          "time": 44.875,
          "velocity": 0.8661417322834646
        },
        {
          "duration": 0.109375,
          "durationTicks": 42,
          "midi": 55,
          "name": "G3",
          "ticks": 17328,
          "time": 45.125,
          "velocity": 0.8661417322834646
        },
        {
          "duration": 0.234375,
          "durationTicks": 90,
          "midi": 53,
          "name": "F3",
          "ticks": 17424,
          "time": 45.375,
          "velocity": 0.8661417322834646
        },
        {
          "duration": 0.109375,
          "durationTicks": 42,
          "midi": 50,
          "name": "D3",
          "ticks": 17520,
          "time": 45.625,
          "velocity": 0.8661417322834646
        },
        {
          "duration": 0.109375,
          "durationTicks": 42,
          "midi": 53,
          "name": "F3",
          "ticks": 17568,
          "time": 45.75,
          "velocity": 0.8661417322834646
        },
        {
          "duration": 0.109375,
          "durationTicks": 42,
          "midi": 55,
          "name": "G3",
          "ticks": 17616,
          "time": 45.875,
          "velocity": 0.8661417322834646
        },
        {
          "duration": 0.109375,
          "durationTicks": 42,
          "midi": 46,
          "name": "A#2",
          "ticks": 17664,
          "time": 46,
          "velocity": 0.8661417322834646
        },
        {
          "duration": 1,
          "durationTicks": 384,
          "midi": 34,
          "name": "A#1",
          "ticks": 17664,
          "time": 46,
          "velocity": 0.6299212598425197
        },
        {
          "duration": 0.109375,
          "durationTicks": 42,
          "midi": 46,
          "name": "A#2",
          "ticks": 17712,
          "time": 46.125,
          "velocity": 0.8661417322834646
        },
        {
          "duration": 0.109375,
          "durationTicks": 42,
          "midi": 62,
          "name": "D4",
          "ticks": 17760,
          "time": 46.25,
          "velocity": 0.8661417322834646
        },
        {
          "duration": 0.109375,
          "durationTicks": 42,
          "midi": 57,
          "name": "A3",
          "ticks": 17856,
          "time": 46.5,
          "velocity": 0.8661417322834646
        },
        {
          "duration": 0.109375,
          "durationTicks": 42,
          "midi": 56,
          "name": "G#3",
          "ticks": 18000,
          "time": 46.875,
          "velocity": 0.8661417322834646
        },
        {
          "duration": 1,
          "durationTicks": 384,
          "midi": 36,
          "name": "C2",
          "ticks": 18048,
          "time": 47,
          "velocity": 0.6299212598425197
        },
        {
          "duration": 0.109375,
          "durationTicks": 42,
          "midi": 55,
          "name": "G3",
          "ticks": 18096,
          "time": 47.125,
          "velocity": 0.8661417322834646
        },
        {
          "duration": 0.234375,
          "durationTicks": 90,
          "midi": 53,
          "name": "F3",
          "ticks": 18192,
          "time": 47.375,
          "velocity": 0.8661417322834646
        },
        {
          "duration": 0.109375,
          "durationTicks": 42,
          "midi": 50,
          "name": "D3",
          "ticks": 18288,
          "time": 47.625,
          "velocity": 0.8661417322834646
        },
        {
          "duration": 0.109375,
          "durationTicks": 42,
          "midi": 53,
          "name": "F3",
          "ticks": 18336,
          "time": 47.75,
          "velocity": 0.8661417322834646
        },
        {
          "duration": 0.109375,
          "durationTicks": 42,
          "midi": 55,
          "name": "G3",
          "ticks": 18384,
          "time": 47.875,
          "velocity": 0.8661417322834646
        },
        {
          "duration": 2,
          "durationTicks": 768,
          "midi": 34,
          "name": "A#1",
          "ticks": 18432,
          "time": 48,
          "velocity": 0.47244094488188976
        },
        {
          "duration": 2,
          "durationTicks": 768,
          "midi": 36,
          "name": "C2",
          "ticks": 19200,
          "time": 50,
          "velocity": 0.47244094488188976
        },
        {
          "duration": 2,
          "durationTicks": 768,
          "midi": 38,
          "name": "D2",
          "ticks": 19968,
          "time": 52,
          "velocity": 0.47244094488188976
        },
        {
          "duration": 1,
          "durationTicks": 384,
          "midi": 37,
          "name": "C#2",
          "ticks": 20736,
          "time": 54,
          "velocity": 0.47244094488188976
        },
        {
          "duration": 1,
          "durationTicks": 384,
          "midi": 39,
          "name": "D#2",
          "ticks": 21120,
          "time": 55,
          "velocity": 0.47244094488188976
        },
        {
          "duration": 2,
          "durationTicks": 768,
          "midi": 34,
          "name": "A#1",
          "ticks": 21504,
          "time": 56,
          "velocity": 0.47244094488188976
        },
        {
          "duration": 2,
          "durationTicks": 768,
          "midi": 36,
          "name": "C2",
          "ticks": 22272,
          "time": 58,
          "velocity": 0.47244094488188976
        },
        {
          "duration": 2,
          "durationTicks": 768,
          "midi": 38,
          "name": "D2",
          "ticks": 23040,
          "time": 60,
          "velocity": 0.47244094488188976
        },
        {
          "duration": 1,
          "durationTicks": 384,
          "midi": 37,
          "name": "C#2",
          "ticks": 23808,
          "time": 62,
          "velocity": 0.47244094488188976
        },
        {
          "duration": 1,
          "durationTicks": 384,
          "midi": 39,
          "name": "D#2",
          "ticks": 24192,
          "time": 63,
          "velocity": 0.47244094488188976
        },
        {
          "duration": 2,
          "durationTicks": 768,
          "midi": 34,
          "name": "A#1",
          "ticks": 24576,
          "time": 64,
          "velocity": 0.47244094488188976
        },
        {
          "duration": 2,
          "durationTicks": 768,
          "midi": 36,
          "name": "C2",
          "ticks": 25344,
          "time": 66,
          "velocity": 0.47244094488188976
        },
        {
          "duration": 2,
          "durationTicks": 768,
          "midi": 38,
          "name": "D2",
          "ticks": 26112,
          "time": 68,
          "velocity": 0.47244094488188976
        },
        {
          "duration": 1,
          "durationTicks": 384,
          "midi": 37,
          "name": "C#2",
          "ticks": 26880,
          "time": 70,
          "velocity": 0.47244094488188976
        },
        {
          "duration": 1,
          "durationTicks": 384,
          "midi": 39,
          "name": "D#2",
          "ticks": 27264,
          "time": 71,
          "velocity": 0.47244094488188976
        },
        {
          "duration": 2,
          "durationTicks": 768,
          "midi": 34,
          "name": "A#1",
          "ticks": 27648,
          "time": 72,
          "velocity": 0.47244094488188976
        },
        {
          "duration": 2,
          "durationTicks": 768,
          "midi": 36,
          "name": "C2",
          "ticks": 28416,
          "time": 74,
          "velocity": 0.47244094488188976
        },
        {
          "duration": 2,
          "durationTicks": 768,
          "midi": 38,
          "name": "D2",
          "ticks": 29184,
          "time": 76,
          "velocity": 0.47244094488188976
        },
        {
          "duration": 1,
          "durationTicks": 384,
          "midi": 37,
          "name": "C#2",
          "ticks": 29952,
          "time": 78,
          "velocity": 0.47244094488188976
        },
        {
          "duration": 1,
          "durationTicks": 384,
          "midi": 39,
          "name": "D#2",
          "ticks": 30336,
          "time": 79,
          "velocity": 0.47244094488188976
        },
        {
          "duration": 0.21875,
          "durationTicks": 84,
          "midi": 34,
          "name": "A#1",
          "ticks": 30720,
          "time": 80,
          "velocity": 0.5511811023622047
        },
        {
          "duration": 0.21875,
          "durationTicks": 84,
          "midi": 34,
          "name": "A#1",
          "ticks": 30816,
          "time": 80.25,
          "velocity": 0.5511811023622047
        },
        {
          "duration": 0.09375,
          "durationTicks": 36,
          "midi": 34,
          "name": "A#1",
          "ticks": 30912,
          "time": 80.5,
          "velocity": 0.5511811023622047
        },
        {
          "duration": 0.21875,
          "durationTicks": 84,
          "midi": 34,
          "name": "A#1",
          "ticks": 30960,
          "time": 80.625,
          "velocity": 0.5511811023622047
        },
        {
          "duration": 0.21875,
          "durationTicks": 84,
          "midi": 34,
          "name": "A#1",
          "ticks": 31056,
          "time": 80.875,
          "velocity": 0.5511811023622047
        },
        {
          "duration": 0.21875,
          "durationTicks": 84,
          "midi": 34,
          "name": "A#1",
          "ticks": 31152,
          "time": 81.125,
          "velocity": 0.5511811023622047
        },
        {
          "duration": 0.09375,
          "durationTicks": 36,
          "midi": 34,
          "name": "A#1",
          "ticks": 31248,
          "time": 81.375,
          "velocity": 0.5511811023622047
        },
        {
          "duration": 0.09375,
          "durationTicks": 36,
          "midi": 34,
          "name": "A#1",
          "ticks": 31296,
          "time": 81.5,
          "velocity": 0.5511811023622047
        },
        {
          "duration": 0.09375,
          "durationTicks": 36,
          "midi": 34,
          "name": "A#1",
          "ticks": 31344,
          "time": 81.625,
          "velocity": 0.5511811023622047
        },
        {
          "duration": 0.21875,
          "durationTicks": 84,
          "midi": 34,
          "name": "A#1",
          "ticks": 31392,
          "time": 81.75,
          "velocity": 0.5511811023622047
        },
        {
          "duration": 0.21875,
          "durationTicks": 84,
          "midi": 36,
          "name": "C2",
          "ticks": 31488,
          "time": 82,
          "velocity": 0.5511811023622047
        },
        {
          "duration": 0.21875,
          "durationTicks": 84,
          "midi": 36,
          "name": "C2",
          "ticks": 31584,
          "time": 82.25,
          "velocity": 0.5511811023622047
        },
        {
          "duration": 0.09375,
          "durationTicks": 36,
          "midi": 36,
          "name": "C2",
          "ticks": 31680,
          "time": 82.5,
          "velocity": 0.5511811023622047
        },
        {
          "duration": 0.21875,
          "durationTicks": 84,
          "midi": 36,
          "name": "C2",
          "ticks": 31728,
          "time": 82.625,
          "velocity": 0.5511811023622047
        },
        {
          "duration": 0.21875,
          "durationTicks": 84,
          "midi": 36,
          "name": "C2",
          "ticks": 31824,
          "time": 82.875,
          "velocity": 0.5511811023622047
        },
        {
          "duration": 0.21875,
          "durationTicks": 84,
          "midi": 36,
          "name": "C2",
          "ticks": 31920,
          "time": 83.125,
          "velocity": 0.5511811023622047
        },
        {
          "duration": 0.09375,
          "durationTicks": 36,
          "midi": 36,
          "name": "C2",
          "ticks": 32016,
          "time": 83.375,
          "velocity": 0.5511811023622047
        },
        {
          "duration": 0.09375,
          "durationTicks": 36,
          "midi": 36,
          "name": "C2",
          "ticks": 32064,
          "time": 83.5,
          "velocity": 0.5511811023622047
        },
        {
          "duration": 0.09375,
          "durationTicks": 36,
          "midi": 36,
          "name": "C2",
          "ticks": 32112,
          "time": 83.625,
          "velocity": 0.5511811023622047
        },
        {
          "duration": 0.21875,
          "durationTicks": 84,
          "midi": 36,
          "name": "C2",
          "ticks": 32160,
          "time": 83.75,
          "velocity": 0.5511811023622047
        },
        {
          "duration": 0.21875,
          "durationTicks": 84,
          "midi": 35,
          "name": "B1",
          "ticks": 32256,
          "time": 84,
          "velocity": 0.5511811023622047
        },
        {
          "duration": 0.21875,
          "durationTicks": 84,
          "midi": 35,
          "name": "B1",
          "ticks": 32352,
          "time": 84.25,
          "velocity": 0.5511811023622047
        },
        {
          "duration": 0.09375,
          "durationTicks": 36,
          "midi": 35,
          "name": "B1",
          "ticks": 32448,
          "time": 84.5,
          "velocity": 0.5511811023622047
        },
        {
          "duration": 0.21875,
          "durationTicks": 84,
          "midi": 35,
          "name": "B1",
          "ticks": 32496,
          "time": 84.625,
          "velocity": 0.5511811023622047
        },
        {
          "duration": 0.21875,
          "durationTicks": 84,
          "midi": 35,
          "name": "B1",
          "ticks": 32592,
          "time": 84.875,
          "velocity": 0.5511811023622047
        },
        {
          "duration": 0.21875,
          "durationTicks": 84,
          "midi": 35,
          "name": "B1",
          "ticks": 32688,
          "time": 85.125,
          "velocity": 0.5511811023622047
        },
        {
          "duration": 0.09375,
          "durationTicks": 36,
          "midi": 35,
          "name": "B1",
          "ticks": 32784,
          "time": 85.375,
          "velocity": 0.5511811023622047
        },
        {
          "duration": 0.09375,
          "durationTicks": 36,
          "midi": 35,
          "name": "B1",
          "ticks": 32832,
          "time": 85.5,
          "velocity": 0.5511811023622047
        },
        {
          "duration": 0.09375,
          "durationTicks": 36,
          "midi": 35,
          "name": "B1",
          "ticks": 32880,
          "time": 85.625,
          "velocity": 0.5511811023622047
        },
        {
          "duration": 0.21875,
          "durationTicks": 84,
          "midi": 35,
          "name": "B1",
          "ticks": 32928,
          "time": 85.75,
          "velocity": 0.5511811023622047
        },
        {
          "duration": 0.21875,
          "durationTicks": 84,
          "midi": 35,
          "name": "B1",
          "ticks": 33024,
          "time": 86,
          "velocity": 0.5511811023622047
        },
        {
          "duration": 0.21875,
          "durationTicks": 84,
          "midi": 35,
          "name": "B1",
          "ticks": 33120,
          "time": 86.25,
          "velocity": 0.5511811023622047
        },
        {
          "duration": 0.09375,
          "durationTicks": 36,
          "midi": 35,
          "name": "B1",
          "ticks": 33216,
          "time": 86.5,
          "velocity": 0.5511811023622047
        },
        {
          "duration": 0.21875,
          "durationTicks": 84,
          "midi": 35,
          "name": "B1",
          "ticks": 33264,
          "time": 86.625,
          "velocity": 0.5511811023622047
        },
        {
          "duration": 0.21875,
          "durationTicks": 84,
          "midi": 35,
          "name": "B1",
          "ticks": 33360,
          "time": 86.875,
          "velocity": 0.5511811023622047
        },
        {
          "duration": 0.21875,
          "durationTicks": 84,
          "midi": 35,
          "name": "B1",
          "ticks": 33456,
          "time": 87.125,
          "velocity": 0.5511811023622047
        },
        {
          "duration": 0.09375,
          "durationTicks": 36,
          "midi": 35,
          "name": "B1",
          "ticks": 33552,
          "time": 87.375,
          "velocity": 0.5511811023622047
        },
        {
          "duration": 0.09375,
          "durationTicks": 36,
          "midi": 35,
          "name": "B1",
          "ticks": 33600,
          "time": 87.5,
          "velocity": 0.5511811023622047
        },
        {
          "duration": 0.09375,
          "durationTicks": 36,
          "midi": 35,
          "name": "B1",
          "ticks": 33648,
          "time": 87.625,
          "velocity": 0.5511811023622047
        },
        {
          "duration": 0.21875,
          "durationTicks": 84,
          "midi": 35,
          "name": "B1",
          "ticks": 33696,
          "time": 87.75,
          "velocity": 0.5511811023622047
        },
        {
          "duration": 0.21875,
          "durationTicks": 84,
          "midi": 34,
          "name": "A#1",
          "ticks": 33792,
          "time": 88,
          "velocity": 0.5511811023622047
        },
        {
          "duration": 0.21875,
          "durationTicks": 84,
          "midi": 34,
          "name": "A#1",
          "ticks": 33888,
          "time": 88.25,
          "velocity": 0.5511811023622047
        },
        {
          "duration": 0.09375,
          "durationTicks": 36,
          "midi": 34,
          "name": "A#1",
          "ticks": 33984,
          "time": 88.5,
          "velocity": 0.5511811023622047
        },
        {
          "duration": 0.21875,
          "durationTicks": 84,
          "midi": 34,
          "name": "A#1",
          "ticks": 34032,
          "time": 88.625,
          "velocity": 0.5511811023622047
        },
        {
          "duration": 0.21875,
          "durationTicks": 84,
          "midi": 34,
          "name": "A#1",
          "ticks": 34128,
          "time": 88.875,
          "velocity": 0.5511811023622047
        },
        {
          "duration": 0.21875,
          "durationTicks": 84,
          "midi": 34,
          "name": "A#1",
          "ticks": 34224,
          "time": 89.125,
          "velocity": 0.5511811023622047
        },
        {
          "duration": 0.09375,
          "durationTicks": 36,
          "midi": 34,
          "name": "A#1",
          "ticks": 34320,
          "time": 89.375,
          "velocity": 0.5511811023622047
        },
        {
          "duration": 0.09375,
          "durationTicks": 36,
          "midi": 34,
          "name": "A#1",
          "ticks": 34368,
          "time": 89.5,
          "velocity": 0.5511811023622047
        },
        {
          "duration": 0.09375,
          "durationTicks": 36,
          "midi": 34,
          "name": "A#1",
          "ticks": 34416,
          "time": 89.625,
          "velocity": 0.5511811023622047
        },
        {
          "duration": 0.21875,
          "durationTicks": 84,
          "midi": 34,
          "name": "A#1",
          "ticks": 34464,
          "time": 89.75,
          "velocity": 0.5511811023622047
        },
        {
          "duration": 0.21875,
          "durationTicks": 84,
          "midi": 36,
          "name": "C2",
          "ticks": 34560,
          "time": 90,
          "velocity": 0.5511811023622047
        },
        {
          "duration": 0.21875,
          "durationTicks": 84,
          "midi": 36,
          "name": "C2",
          "ticks": 34656,
          "time": 90.25,
          "velocity": 0.5511811023622047
        },
        {
          "duration": 0.09375,
          "durationTicks": 36,
          "midi": 36,
          "name": "C2",
          "ticks": 34752,
          "time": 90.5,
          "velocity": 0.5511811023622047
        },
        {
          "duration": 0.21875,
          "durationTicks": 84,
          "midi": 36,
          "name": "C2",
          "ticks": 34800,
          "time": 90.625,
          "velocity": 0.5511811023622047
        },
        {
          "duration": 0.21875,
          "durationTicks": 84,
          "midi": 36,
          "name": "C2",
          "ticks": 34896,
          "time": 90.875,
          "velocity": 0.5511811023622047
        },
        {
          "duration": 0.21875,
          "durationTicks": 84,
          "midi": 36,
          "name": "C2",
          "ticks": 34992,
          "time": 91.125,
          "velocity": 0.5511811023622047
        },
        {
          "duration": 0.09375,
          "durationTicks": 36,
          "midi": 36,
          "name": "C2",
          "ticks": 35088,
          "time": 91.375,
          "velocity": 0.5511811023622047
        },
        {
          "duration": 0.09375,
          "durationTicks": 36,
          "midi": 36,
          "name": "C2",
          "ticks": 35136,
          "time": 91.5,
          "velocity": 0.5511811023622047
        },
        {
          "duration": 0.09375,
          "durationTicks": 36,
          "midi": 36,
          "name": "C2",
          "ticks": 35184,
          "time": 91.625,
          "velocity": 0.5511811023622047
        },
        {
          "duration": 0.21875,
          "durationTicks": 84,
          "midi": 36,
          "name": "C2",
          "ticks": 35232,
          "time": 91.75,
          "velocity": 0.5511811023622047
        },
        {
          "duration": 0.21875,
          "durationTicks": 84,
          "midi": 38,
          "name": "D2",
          "ticks": 35328,
          "time": 92,
          "velocity": 0.5511811023622047
        },
        {
          "duration": 0.21875,
          "durationTicks": 84,
          "midi": 38,
          "name": "D2",
          "ticks": 35424,
          "time": 92.25,
          "velocity": 0.5511811023622047
        },
        {
          "duration": 0.09375,
          "durationTicks": 36,
          "midi": 38,
          "name": "D2",
          "ticks": 35520,
          "time": 92.5,
          "velocity": 0.5511811023622047
        },
        {
          "duration": 0.21875,
          "durationTicks": 84,
          "midi": 38,
          "name": "D2",
          "ticks": 35568,
          "time": 92.625,
          "velocity": 0.5511811023622047
        },
        {
          "duration": 0.21875,
          "durationTicks": 84,
          "midi": 38,
          "name": "D2",
          "ticks": 35664,
          "time": 92.875,
          "velocity": 0.5511811023622047
        },
        {
          "duration": 0.21875,
          "durationTicks": 84,
          "midi": 38,
          "name": "D2",
          "ticks": 35760,
          "time": 93.125,
          "velocity": 0.5511811023622047
        },
        {
          "duration": 0.09375,
          "durationTicks": 36,
          "midi": 38,
          "name": "D2",
          "ticks": 35856,
          "time": 93.375,
          "velocity": 0.5511811023622047
        },
        {
          "duration": 0.09375,
          "durationTicks": 36,
          "midi": 38,
          "name": "D2",
          "ticks": 35904,
          "time": 93.5,
          "velocity": 0.5511811023622047
        },
        {
          "duration": 0.09375,
          "durationTicks": 36,
          "midi": 38,
          "name": "D2",
          "ticks": 35952,
          "time": 93.625,
          "velocity": 0.5511811023622047
        },
        {
          "duration": 0.21875,
          "durationTicks": 84,
          "midi": 38,
          "name": "D2",
          "ticks": 36000,
          "time": 93.75,
          "velocity": 0.5511811023622047
        },
        {
          "duration": 0.21875,
          "durationTicks": 84,
          "midi": 38,
          "name": "D2",
          "ticks": 36096,
          "time": 94,
          "velocity": 0.5511811023622047
        },
        {
          "duration": 0.21875,
          "durationTicks": 84,
          "midi": 38,
          "name": "D2",
          "ticks": 36192,
          "time": 94.25,
          "velocity": 0.5511811023622047
        },
        {
          "duration": 0.09375,
          "durationTicks": 36,
          "midi": 38,
          "name": "D2",
          "ticks": 36288,
          "time": 94.5,
          "velocity": 0.5511811023622047
        },
        {
          "duration": 0.21875,
          "durationTicks": 84,
          "midi": 38,
          "name": "D2",
          "ticks": 36336,
          "time": 94.625,
          "velocity": 0.5511811023622047
        },
        {
          "duration": 0.21875,
          "durationTicks": 84,
          "midi": 38,
          "name": "D2",
          "ticks": 36432,
          "time": 94.875,
          "velocity": 0.5511811023622047
        },
        {
          "duration": 0.21875,
          "durationTicks": 84,
          "midi": 38,
          "name": "D2",
          "ticks": 36528,
          "time": 95.125,
          "velocity": 0.5511811023622047
        },
        {
          "duration": 0.09375,
          "durationTicks": 36,
          "midi": 38,
          "name": "D2",
          "ticks": 36624,
          "time": 95.375,
          "velocity": 0.5511811023622047
        },
        {
          "duration": 0.09375,
          "durationTicks": 36,
          "midi": 38,
          "name": "D2",
          "ticks": 36672,
          "time": 95.5,
          "velocity": 0.5511811023622047
        },
        {
          "duration": 0.09375,
          "durationTicks": 36,
          "midi": 38,
          "name": "D2",
          "ticks": 36720,
          "time": 95.625,
          "velocity": 0.5511811023622047
        },
        {
          "duration": 0.21875,
          "durationTicks": 84,
          "midi": 38,
          "name": "D2",
          "ticks": 36768,
          "time": 95.75,
          "velocity": 0.5511811023622047
        },
        {
          "duration": 0.21875,
          "durationTicks": 84,
          "midi": 34,
          "name": "A#1",
          "ticks": 36864,
          "time": 96,
          "velocity": 0.5511811023622047
        },
        {
          "duration": 0.109375,
          "durationTicks": 42,
          "midi": 50,
          "name": "D3",
          "ticks": 36864,
          "time": 96,
          "velocity": 0.8661417322834646
        },
        {
          "duration": 0.109375,
          "durationTicks": 42,
          "midi": 50,
          "name": "D3",
          "ticks": 36912,
          "time": 96.125,
          "velocity": 0.8661417322834646
        },
        {
          "duration": 0.21875,
          "durationTicks": 84,
          "midi": 34,
          "name": "A#1",
          "ticks": 36960,
          "time": 96.25,
          "velocity": 0.5511811023622047
        },
        {
          "duration": 0.109375,
          "durationTicks": 42,
          "midi": 62,
          "name": "D4",
          "ticks": 36960,
          "time": 96.25,
          "velocity": 0.8661417322834646
        },
        {
          "duration": 0.09375,
          "durationTicks": 36,
          "midi": 34,
          "name": "A#1",
          "ticks": 37056,
          "time": 96.5,
          "velocity": 0.5511811023622047
        },
        {
          "duration": 0.109375,
          "durationTicks": 42,
          "midi": 57,
          "name": "A3",
          "ticks": 37056,
          "time": 96.5,
          "velocity": 0.8661417322834646
        },
        {
          "duration": 0.21875,
          "durationTicks": 84,
          "midi": 34,
          "name": "A#1",
          "ticks": 37104,
          "time": 96.625,
          "velocity": 0.5511811023622047
        },
        {
          "duration": 0.21875,
          "durationTicks": 84,
          "midi": 34,
          "name": "A#1",
          "ticks": 37200,
          "time": 96.875,
          "velocity": 0.5511811023622047
        },
        {
          "duration": 0.109375,
          "durationTicks": 42,
          "midi": 56,
          "name": "G#3",
          "ticks": 37200,
          "time": 96.875,
          "velocity": 0.8661417322834646
        },
        {
          "duration": 0.21875,
          "durationTicks": 84,
          "midi": 34,
          "name": "A#1",
          "ticks": 37296,
          "time": 97.125,
          "velocity": 0.5511811023622047
        },
        {
          "duration": 0.109375,
          "durationTicks": 42,
          "midi": 55,
          "name": "G3",
          "ticks": 37296,
          "time": 97.125,
          "velocity": 0.8661417322834646
        },
        {
          "duration": 0.09375,
          "durationTicks": 36,
          "midi": 34,
          "name": "A#1",
          "ticks": 37392,
          "time": 97.375,
          "velocity": 0.5511811023622047
        },
        {
          "duration": 0.234375,
          "durationTicks": 90,
          "midi": 53,
          "name": "F3",
          "ticks": 37392,
          "time": 97.375,
          "velocity": 0.8661417322834646
        },
        {
          "duration": 0.09375,
          "durationTicks": 36,
          "midi": 34,
          "name": "A#1",
          "ticks": 37440,
          "time": 97.5,
          "velocity": 0.5511811023622047
        },
        {
          "duration": 0.09375,
          "durationTicks": 36,
          "midi": 34,
          "name": "A#1",
          "ticks": 37488,
          "time": 97.625,
          "velocity": 0.5511811023622047
        },
        {
          "duration": 0.109375,
          "durationTicks": 42,
          "midi": 50,
          "name": "D3",
          "ticks": 37488,
          "time": 97.625,
          "velocity": 0.8661417322834646
        },
        {
          "duration": 0.21875,
          "durationTicks": 84,
          "midi": 34,
          "name": "A#1",
          "ticks": 37536,
          "time": 97.75,
          "velocity": 0.5511811023622047
        },
        {
          "duration": 0.109375,
          "durationTicks": 42,
          "midi": 53,
          "name": "F3",
          "ticks": 37536,
          "time": 97.75,
          "velocity": 0.8661417322834646
        },
        {
          "duration": 0.109375,
          "durationTicks": 42,
          "midi": 55,
          "name": "G3",
          "ticks": 37584,
          "time": 97.875,
          "velocity": 0.8661417322834646
        },
        {
          "duration": 0.21875,
          "durationTicks": 84,
          "midi": 36,
          "name": "C2",
          "ticks": 37632,
          "time": 98,
          "velocity": 0.5511811023622047
        },
        {
          "duration": 0.109375,
          "durationTicks": 42,
          "midi": 48,
          "name": "C3",
          "ticks": 37632,
          "time": 98,
          "velocity": 0.8661417322834646
        },
        {
          "duration": 0.109375,
          "durationTicks": 42,
          "midi": 48,
          "name": "C3",
          "ticks": 37680,
          "time": 98.125,
          "velocity": 0.8661417322834646
        },
        {
          "duration": 0.21875,
          "durationTicks": 84,
          "midi": 36,
          "name": "C2",
          "ticks": 37728,
          "time": 98.25,
          "velocity": 0.5511811023622047
        },
        {
          "duration": 0.109375,
          "durationTicks": 42,
          "midi": 62,
          "name": "D4",
          "ticks": 37728,
          "time": 98.25,
          "velocity": 0.8661417322834646
        },
        {
          "duration": 0.09375,
          "durationTicks": 36,
          "midi": 36,
          "name": "C2",
          "ticks": 37824,
          "time": 98.5,
          "velocity": 0.5511811023622047
        },
        {
          "duration": 0.109375,
          "durationTicks": 42,
          "midi": 57,
          "name": "A3",
          "ticks": 37824,
          "time": 98.5,
          "velocity": 0.8661417322834646
        },
        {
          "duration": 0.21875,
          "durationTicks": 84,
          "midi": 36,
          "name": "C2",
          "ticks": 37872,
          "time": 98.625,
          "velocity": 0.5511811023622047
        },
        {
          "duration": 0.21875,
          "durationTicks": 84,
          "midi": 36,
          "name": "C2",
          "ticks": 37968,
          "time": 98.875,
          "velocity": 0.5511811023622047
        },
        {
          "duration": 0.109375,
          "durationTicks": 42,
          "midi": 56,
          "name": "G#3",
          "ticks": 37968,
          "time": 98.875,
          "velocity": 0.8661417322834646
        },
        {
          "duration": 0.21875,
          "durationTicks": 84,
          "midi": 36,
          "name": "C2",
          "ticks": 38064,
          "time": 99.125,
          "velocity": 0.5511811023622047
        },
        {
          "duration": 0.109375,
          "durationTicks": 42,
          "midi": 55,
          "name": "G3",
          "ticks": 38064,
          "time": 99.125,
          "velocity": 0.8661417322834646
        },
        {
          "duration": 0.09375,
          "durationTicks": 36,
          "midi": 36,
          "name": "C2",
          "ticks": 38160,
          "time": 99.375,
          "velocity": 0.5511811023622047
        },
        {
          "duration": 0.234375,
          "durationTicks": 90,
          "midi": 53,
          "name": "F3",
          "ticks": 38160,
          "time": 99.375,
          "velocity": 0.8661417322834646
        },
        {
          "duration": 0.09375,
          "durationTicks": 36,
          "midi": 36,
          "name": "C2",
          "ticks": 38208,
          "time": 99.5,
          "velocity": 0.5511811023622047
        },
        {
          "duration": 0.09375,
          "durationTicks": 36,
          "midi": 36,
          "name": "C2",
          "ticks": 38256,
          "time": 99.625,
          "velocity": 0.5511811023622047
        },
        {
          "duration": 0.109375,
          "durationTicks": 42,
          "midi": 50,
          "name": "D3",
          "ticks": 38256,
          "time": 99.625,
          "velocity": 0.8661417322834646
        },
        {
          "duration": 0.21875,
          "durationTicks": 84,
          "midi": 36,
          "name": "C2",
          "ticks": 38304,
          "time": 99.75,
          "velocity": 0.5511811023622047
        },
        {
          "duration": 0.109375,
          "durationTicks": 42,
          "midi": 53,
          "name": "F3",
          "ticks": 38304,
          "time": 99.75,
          "velocity": 0.8661417322834646
        },
        {
          "duration": 0.109375,
          "durationTicks": 42,
          "midi": 55,
          "name": "G3",
          "ticks": 38352,
          "time": 99.875,
          "velocity": 0.8661417322834646
        },
        {
          "duration": 0.21875,
          "durationTicks": 84,
          "midi": 35,
          "name": "B1",
          "ticks": 38400,
          "time": 100,
          "velocity": 0.5511811023622047
        },
        {
          "duration": 0.109375,
          "durationTicks": 42,
          "midi": 47,
          "name": "B2",
          "ticks": 38400,
          "time": 100,
          "velocity": 0.8661417322834646
        },
        {
          "duration": 0.109375,
          "durationTicks": 42,
          "midi": 47,
          "name": "B2",
          "ticks": 38448,
          "time": 100.125,
          "velocity": 0.8661417322834646
        },
        {
          "duration": 0.21875,
          "durationTicks": 84,
          "midi": 35,
          "name": "B1",
          "ticks": 38496,
          "time": 100.25,
          "velocity": 0.5511811023622047
        },
        {
          "duration": 0.109375,
          "durationTicks": 42,
          "midi": 62,
          "name": "D4",
          "ticks": 38496,
          "time": 100.25,
          "velocity": 0.8661417322834646
        },
        {
          "duration": 0.09375,
          "durationTicks": 36,
          "midi": 35,
          "name": "B1",
          "ticks": 38592,
          "time": 100.5,
          "velocity": 0.5511811023622047
        },
        {
          "duration": 0.109375,
          "durationTicks": 42,
          "midi": 57,
          "name": "A3",
          "ticks": 38592,
          "time": 100.5,
          "velocity": 0.8661417322834646
        },
        {
          "duration": 0.21875,
          "durationTicks": 84,
          "midi": 35,
          "name": "B1",
          "ticks": 38640,
          "time": 100.625,
          "velocity": 0.5511811023622047
        },
        {
          "duration": 0.21875,
          "durationTicks": 84,
          "midi": 35,
          "name": "B1",
          "ticks": 38736,
          "time": 100.875,
          "velocity": 0.5511811023622047
        },
        {
          "duration": 0.109375,
          "durationTicks": 42,
          "midi": 56,
          "name": "G#3",
          "ticks": 38736,
          "time": 100.875,
          "velocity": 0.8661417322834646
        },
        {
          "duration": 0.21875,
          "durationTicks": 84,
          "midi": 35,
          "name": "B1",
          "ticks": 38832,
          "time": 101.125,
          "velocity": 0.5511811023622047
        },
        {
          "duration": 0.109375,
          "durationTicks": 42,
          "midi": 55,
          "name": "G3",
          "ticks": 38832,
          "time": 101.125,
          "velocity": 0.8661417322834646
        },
        {
          "duration": 0.09375,
          "durationTicks": 36,
          "midi": 35,
          "name": "B1",
          "ticks": 38928,
          "time": 101.375,
          "velocity": 0.5511811023622047
        },
        {
          "duration": 0.234375,
          "durationTicks": 90,
          "midi": 53,
          "name": "F3",
          "ticks": 38928,
          "time": 101.375,
          "velocity": 0.8661417322834646
        },
        {
          "duration": 0.09375,
          "durationTicks": 36,
          "midi": 35,
          "name": "B1",
          "ticks": 38976,
          "time": 101.5,
          "velocity": 0.5511811023622047
        },
        {
          "duration": 0.09375,
          "durationTicks": 36,
          "midi": 35,
          "name": "B1",
          "ticks": 39024,
          "time": 101.625,
          "velocity": 0.5511811023622047
        },
        {
          "duration": 0.109375,
          "durationTicks": 42,
          "midi": 50,
          "name": "D3",
          "ticks": 39024,
          "time": 101.625,
          "velocity": 0.8661417322834646
        },
        {
          "duration": 0.21875,
          "durationTicks": 84,
          "midi": 35,
          "name": "B1",
          "ticks": 39072,
          "time": 101.75,
          "velocity": 0.5511811023622047
        },
        {
          "duration": 0.109375,
          "durationTicks": 42,
          "midi": 53,
          "name": "F3",
          "ticks": 39072,
          "time": 101.75,
          "velocity": 0.8661417322834646
        },
        {
          "duration": 0.109375,
          "durationTicks": 42,
          "midi": 55,
          "name": "G3",
          "ticks": 39120,
          "time": 101.875,
          "velocity": 0.8661417322834646
        },
        {
          "duration": 0.21875,
          "durationTicks": 84,
          "midi": 35,
          "name": "B1",
          "ticks": 39168,
          "time": 102,
          "velocity": 0.5511811023622047
        },
        {
          "duration": 0.109375,
          "durationTicks": 42,
          "midi": 47,
          "name": "B2",
          "ticks": 39168,
          "time": 102,
          "velocity": 0.8661417322834646
        },
        {
          "duration": 0.109375,
          "durationTicks": 42,
          "midi": 47,
          "name": "B2",
          "ticks": 39216,
          "time": 102.125,
          "velocity": 0.8661417322834646
        },
        {
          "duration": 0.078125,
          "durationTicks": 30,
          "midi": 67,
          "name": "G4",
          "ticks": 39216,
          "time": 102.125,
          "velocity": 0.41732283464566927
        },
        {
          "duration": 0.21875,
          "durationTicks": 84,
          "midi": 35,
          "name": "B1",
          "ticks": 39264,
          "time": 102.25,
          "velocity": 0.5511811023622047
        },
        {
          "duration": 0.078125,
          "durationTicks": 30,
          "midi": 77,
          "name": "F5",
          "ticks": 39264,
          "time": 102.25,
          "velocity": 0.5354330708661418
        },
        {
          "duration": 0.109375,
          "durationTicks": 42,
          "midi": 62,
          "name": "D4",
          "ticks": 39264,
          "time": 102.25,
          "velocity": 0.8661417322834646
        },
        {
          "duration": 0.078125,
          "durationTicks": 30,
          "midi": 74,
          "name": "D5",
          "ticks": 39312,
          "time": 102.375,
          "velocity": 0.6299212598425197
        },
        {
          "duration": 0.09375,
          "durationTicks": 36,
          "midi": 35,
          "name": "B1",
          "ticks": 39360,
          "time": 102.5,
          "velocity": 0.5511811023622047
        },
        {
          "duration": 0.078125,
          "durationTicks": 30,
          "midi": 79,
          "name": "G5",
          "ticks": 39360,
          "time": 102.5,
          "velocity": 0.6299212598425197
        },
        {
          "duration": 0.109375,
          "durationTicks": 42,
          "midi": 57,
          "name": "A3",
          "ticks": 39360,
          "time": 102.5,
          "velocity": 0.8661417322834646
        },
        {
          "duration": 0.21875,
          "durationTicks": 84,
          "midi": 35,
          "name": "B1",
          "ticks": 39408,
          "time": 102.625,
          "velocity": 0.5511811023622047
        },
        {
          "duration": 0.078125,
          "durationTicks": 30,
          "midi": 77,
          "name": "F5",
          "ticks": 39456,
          "time": 102.75,
          "velocity": 0.6299212598425197
        },
        {
          "duration": 0.109375,
          "durationTicks": 42,
          "midi": 56,
          "name": "G#3",
          "ticks": 39504,
          "time": 102.875,
          "velocity": 0.8661417322834646
        },
        {
          "duration": 0.21875,
          "durationTicks": 84,
          "midi": 35,
          "name": "B1",
          "ticks": 39504,
          "time": 102.875,
          "velocity": 0.5511811023622047
        },
        {
          "duration": 0.078125,
          "durationTicks": 30,
          "midi": 74,
          "name": "D5",
          "ticks": 39552,
          "time": 103,
          "velocity": 0.6299212598425197
        },
        {
          "duration": 0.21875,
          "durationTicks": 84,
          "midi": 35,
          "name": "B1",
          "ticks": 39600,
          "time": 103.125,
          "velocity": 0.5511811023622047
        },
        {
          "duration": 0.078125,
          "durationTicks": 30,
          "midi": 72,
          "name": "C5",
          "ticks": 39600,
          "time": 103.125,
          "velocity": 0.6299212598425197
        },
        {
          "duration": 0.109375,
          "durationTicks": 42,
          "midi": 55,
          "name": "G3",
          "ticks": 39600,
          "time": 103.125,
          "velocity": 0.8661417322834646
        },
        {
          "duration": 0.09375,
          "durationTicks": 36,
          "midi": 35,
          "name": "B1",
          "ticks": 39696,
          "time": 103.375,
          "velocity": 0.5511811023622047
        },
        {
          "duration": 0.203125,
          "durationTicks": 78,
          "midi": 69,
          "name": "A4",
          "ticks": 39696,
          "time": 103.375,
          "velocity": 0.6299212598425197
        },
        {
          "duration": 0.234375,
          "durationTicks": 90,
          "midi": 53,
          "name": "F3",
          "ticks": 39696,
          "time": 103.375,
          "velocity": 0.8661417322834646
        },
        {
          "duration": 0.09375,
          "durationTicks": 36,
          "midi": 35,
          "name": "B1",
          "ticks": 39744,
          "time": 103.5,
          "velocity": 0.5511811023622047
        },
        {
          "duration": 0.09375,
          "durationTicks": 36,
          "midi": 35,
          "name": "B1",
          "ticks": 39792,
          "time": 103.625,
          "velocity": 0.5511811023622047
        },
        {
          "duration": 0.078125,
          "durationTicks": 30,
          "midi": 67,
          "name": "G4",
          "ticks": 39792,
          "time": 103.625,
          "velocity": 0.6299212598425197
        },
        {
          "duration": 0.109375,
          "durationTicks": 42,
          "midi": 50,
          "name": "D3",
          "ticks": 39792,
          "time": 103.625,
          "velocity": 0.8661417322834646
        },
        {
          "duration": 0.21875,
          "durationTicks": 84,
          "midi": 35,
          "name": "B1",
          "ticks": 39840,
          "time": 103.75,
          "velocity": 0.5511811023622047
        },
        {
          "duration": 0.078125,
          "durationTicks": 30,
          "midi": 69,
          "name": "A4",
          "ticks": 39840,
          "time": 103.75,
          "velocity": 0.6299212598425197
        },
        {
          "duration": 0.109375,
          "durationTicks": 42,
          "midi": 53,
          "name": "F3",
          "ticks": 39840,
          "time": 103.75,
          "velocity": 0.8661417322834646
        },
        {
          "duration": 0.109375,
          "durationTicks": 42,
          "midi": 55,
          "name": "G3",
          "ticks": 39888,
          "time": 103.875,
          "velocity": 0.8661417322834646
        },
        {
          "duration": 0.078125,
          "durationTicks": 30,
          "midi": 72,
          "name": "C5",
          "ticks": 39888,
          "time": 103.875,
          "velocity": 0.6299212598425197
        },
        {
          "duration": 0.21875,
          "durationTicks": 84,
          "midi": 34,
          "name": "A#1",
          "ticks": 39936,
          "time": 104,
          "velocity": 0.5511811023622047
        },
        {
          "duration": 0.109375,
          "durationTicks": 42,
          "midi": 46,
          "name": "A#2",
          "ticks": 39936,
          "time": 104,
          "velocity": 0.8661417322834646
        },
        {
          "duration": 0.109375,
          "durationTicks": 42,
          "midi": 46,
          "name": "A#2",
          "ticks": 39984,
          "time": 104.125,
          "velocity": 0.8661417322834646
        },
        {
          "duration": 0.21875,
          "durationTicks": 84,
          "midi": 34,
          "name": "A#1",
          "ticks": 40032,
          "time": 104.25,
          "velocity": 0.5511811023622047
        },
        {
          "duration": 0.109375,
          "durationTicks": 42,
          "midi": 62,
          "name": "D4",
          "ticks": 40032,
          "time": 104.25,
          "velocity": 0.8661417322834646
        },
        {
          "duration": 0.09375,
          "durationTicks": 36,
          "midi": 34,
          "name": "A#1",
          "ticks": 40128,
          "time": 104.5,
          "velocity": 0.5511811023622047
        },
        {
          "duration": 0.109375,
          "durationTicks": 42,
          "midi": 57,
          "name": "A3",
          "ticks": 40128,
          "time": 104.5,
          "velocity": 0.8661417322834646
        },
        {
          "duration": 0.21875,
          "durationTicks": 84,
          "midi": 34,
          "name": "A#1",
          "ticks": 40176,
          "time": 104.625,
          "velocity": 0.5511811023622047
        },
        {
          "duration": 0.21875,
          "durationTicks": 84,
          "midi": 34,
          "name": "A#1",
          "ticks": 40272,
          "time": 104.875,
          "velocity": 0.5511811023622047
        },
        {
          "duration": 0.109375,
          "durationTicks": 42,
          "midi": 56,
          "name": "G#3",
          "ticks": 40272,
          "time": 104.875,
          "velocity": 0.8661417322834646
        },
        {
          "duration": 0.21875,
          "durationTicks": 84,
          "midi": 34,
          "name": "A#1",
          "ticks": 40368,
          "time": 105.125,
          "velocity": 0.5511811023622047
        },
        {
          "duration": 0.109375,
          "durationTicks": 42,
          "midi": 55,
          "name": "G3",
          "ticks": 40368,
          "time": 105.125,
          "velocity": 0.8661417322834646
        },
        {
          "duration": 0.09375,
          "durationTicks": 36,
          "midi": 34,
          "name": "A#1",
          "ticks": 40464,
          "time": 105.375,
          "velocity": 0.5511811023622047
        },
        {
          "duration": 0.234375,
          "durationTicks": 90,
          "midi": 53,
          "name": "F3",
          "ticks": 40464,
          "time": 105.375,
          "velocity": 0.8661417322834646
        },
        {
          "duration": 0.09375,
          "durationTicks": 36,
          "midi": 34,
          "name": "A#1",
          "ticks": 40512,
          "time": 105.5,
          "velocity": 0.5511811023622047
        },
        {
          "duration": 0.09375,
          "durationTicks": 36,
          "midi": 34,
          "name": "A#1",
          "ticks": 40560,
          "time": 105.625,
          "velocity": 0.5511811023622047
        },
        {
          "duration": 0.109375,
          "durationTicks": 42,
          "midi": 50,
          "name": "D3",
          "ticks": 40560,
          "time": 105.625,
          "velocity": 0.8661417322834646
        },
        {
          "duration": 0.21875,
          "durationTicks": 84,
          "midi": 34,
          "name": "A#1",
          "ticks": 40608,
          "time": 105.75,
          "velocity": 0.5511811023622047
        },
        {
          "duration": 0.109375,
          "durationTicks": 42,
          "midi": 53,
          "name": "F3",
          "ticks": 40608,
          "time": 105.75,
          "velocity": 0.8661417322834646
        },
        {
          "duration": 0.109375,
          "durationTicks": 42,
          "midi": 55,
          "name": "G3",
          "ticks": 40656,
          "time": 105.875,
          "velocity": 0.8661417322834646
        },
        {
          "duration": 0.21875,
          "durationTicks": 84,
          "midi": 36,
          "name": "C2",
          "ticks": 40704,
          "time": 106,
          "velocity": 0.5511811023622047
        },
        {
          "duration": 0.109375,
          "durationTicks": 42,
          "midi": 48,
          "name": "C3",
          "ticks": 40704,
          "time": 106,
          "velocity": 0.8661417322834646
        },
        {
          "duration": 0.109375,
          "durationTicks": 42,
          "midi": 48,
          "name": "C3",
          "ticks": 40752,
          "time": 106.125,
          "velocity": 0.8661417322834646
        },
        {
          "duration": 0.21875,
          "durationTicks": 84,
          "midi": 36,
          "name": "C2",
          "ticks": 40800,
          "time": 106.25,
          "velocity": 0.5511811023622047
        },
        {
          "duration": 0.109375,
          "durationTicks": 42,
          "midi": 62,
          "name": "D4",
          "ticks": 40800,
          "time": 106.25,
          "velocity": 0.8661417322834646
        },
        {
          "duration": 0.09375,
          "durationTicks": 36,
          "midi": 36,
          "name": "C2",
          "ticks": 40896,
          "time": 106.5,
          "velocity": 0.5511811023622047
        },
        {
          "duration": 0.109375,
          "durationTicks": 42,
          "midi": 57,
          "name": "A3",
          "ticks": 40896,
          "time": 106.5,
          "velocity": 0.8661417322834646
        },
        {
          "duration": 0.21875,
          "durationTicks": 84,
          "midi": 36,
          "name": "C2",
          "ticks": 40944,
          "time": 106.625,
          "velocity": 0.5511811023622047
        },
        {
          "duration": 0.21875,
          "durationTicks": 84,
          "midi": 36,
          "name": "C2",
          "ticks": 41040,
          "time": 106.875,
          "velocity": 0.5511811023622047
        },
        {
          "duration": 0.109375,
          "durationTicks": 42,
          "midi": 56,
          "name": "G#3",
          "ticks": 41040,
          "time": 106.875,
          "velocity": 0.8661417322834646
        },
        {
          "duration": 0.21875,
          "durationTicks": 84,
          "midi": 36,
          "name": "C2",
          "ticks": 41136,
          "time": 107.125,
          "velocity": 0.5511811023622047
        },
        {
          "duration": 0.109375,
          "durationTicks": 42,
          "midi": 55,
          "name": "G3",
          "ticks": 41136,
          "time": 107.125,
          "velocity": 0.8661417322834646
        },
        {
          "duration": 0.09375,
          "durationTicks": 36,
          "midi": 36,
          "name": "C2",
          "ticks": 41232,
          "time": 107.375,
          "velocity": 0.5511811023622047
        },
        {
          "duration": 0.234375,
          "durationTicks": 90,
          "midi": 53,
          "name": "F3",
          "ticks": 41232,
          "time": 107.375,
          "velocity": 0.8661417322834646
        },
        {
          "duration": 0.09375,
          "durationTicks": 36,
          "midi": 36,
          "name": "C2",
          "ticks": 41280,
          "time": 107.5,
          "velocity": 0.5511811023622047
        },
        {
          "duration": 0.09375,
          "durationTicks": 36,
          "midi": 36,
          "name": "C2",
          "ticks": 41328,
          "time": 107.625,
          "velocity": 0.5511811023622047
        },
        {
          "duration": 0.109375,
          "durationTicks": 42,
          "midi": 50,
          "name": "D3",
          "ticks": 41328,
          "time": 107.625,
          "velocity": 0.8661417322834646
        },
        {
          "duration": 0.21875,
          "durationTicks": 84,
          "midi": 36,
          "name": "C2",
          "ticks": 41376,
          "time": 107.75,
          "velocity": 0.5511811023622047
        },
        {
          "duration": 0.109375,
          "durationTicks": 42,
          "midi": 53,
          "name": "F3",
          "ticks": 41376,
          "time": 107.75,
          "velocity": 0.8661417322834646
        },
        {
          "duration": 0.109375,
          "durationTicks": 42,
          "midi": 55,
          "name": "G3",
          "ticks": 41424,
          "time": 107.875,
          "velocity": 0.8661417322834646
        },
        {
          "duration": 0.21875,
          "durationTicks": 84,
          "midi": 38,
          "name": "D2",
          "ticks": 41472,
          "time": 108,
          "velocity": 0.5511811023622047
        },
        {
          "duration": 0.109375,
          "durationTicks": 42,
          "midi": 50,
          "name": "D3",
          "ticks": 41472,
          "time": 108,
          "velocity": 0.8661417322834646
        },
        {
          "duration": 0.109375,
          "durationTicks": 42,
          "midi": 50,
          "name": "D3",
          "ticks": 41520,
          "time": 108.125,
          "velocity": 0.8661417322834646
        },
        {
          "duration": 0.21875,
          "durationTicks": 84,
          "midi": 38,
          "name": "D2",
          "ticks": 41568,
          "time": 108.25,
          "velocity": 0.5511811023622047
        },
        {
          "duration": 0.109375,
          "durationTicks": 42,
          "midi": 62,
          "name": "D4",
          "ticks": 41568,
          "time": 108.25,
          "velocity": 0.8661417322834646
        },
        {
          "duration": 0.09375,
          "durationTicks": 36,
          "midi": 38,
          "name": "D2",
          "ticks": 41664,
          "time": 108.5,
          "velocity": 0.5511811023622047
        },
        {
          "duration": 0.109375,
          "durationTicks": 42,
          "midi": 57,
          "name": "A3",
          "ticks": 41664,
          "time": 108.5,
          "velocity": 0.8661417322834646
        },
        {
          "duration": 0.21875,
          "durationTicks": 84,
          "midi": 38,
          "name": "D2",
          "ticks": 41712,
          "time": 108.625,
          "velocity": 0.5511811023622047
        },
        {
          "duration": 0.21875,
          "durationTicks": 84,
          "midi": 38,
          "name": "D2",
          "ticks": 41808,
          "time": 108.875,
          "velocity": 0.5511811023622047
        },
        {
          "duration": 0.109375,
          "durationTicks": 42,
          "midi": 56,
          "name": "G#3",
          "ticks": 41808,
          "time": 108.875,
          "velocity": 0.8661417322834646
        },
        {
          "duration": 0.21875,
          "durationTicks": 84,
          "midi": 38,
          "name": "D2",
          "ticks": 41904,
          "time": 109.125,
          "velocity": 0.5511811023622047
        },
        {
          "duration": 0.109375,
          "durationTicks": 42,
          "midi": 55,
          "name": "G3",
          "ticks": 41904,
          "time": 109.125,
          "velocity": 0.8661417322834646
        },
        {
          "duration": 0.09375,
          "durationTicks": 36,
          "midi": 38,
          "name": "D2",
          "ticks": 42000,
          "time": 109.375,
          "velocity": 0.5511811023622047
        },
        {
          "duration": 0.234375,
          "durationTicks": 90,
          "midi": 53,
          "name": "F3",
          "ticks": 42000,
          "time": 109.375,
          "velocity": 0.8661417322834646
        },
        {
          "duration": 0.09375,
          "durationTicks": 36,
          "midi": 38,
          "name": "D2",
          "ticks": 42048,
          "time": 109.5,
          "velocity": 0.5511811023622047
        },
        {
          "duration": 0.09375,
          "durationTicks": 36,
          "midi": 38,
          "name": "D2",
          "ticks": 42096,
          "time": 109.625,
          "velocity": 0.5511811023622047
        },
        {
          "duration": 0.109375,
          "durationTicks": 42,
          "midi": 50,
          "name": "D3",
          "ticks": 42096,
          "time": 109.625,
          "velocity": 0.8661417322834646
        },
        {
          "duration": 0.21875,
          "durationTicks": 84,
          "midi": 38,
          "name": "D2",
          "ticks": 42144,
          "time": 109.75,
          "velocity": 0.5511811023622047
        },
        {
          "duration": 0.109375,
          "durationTicks": 42,
          "midi": 53,
          "name": "F3",
          "ticks": 42144,
          "time": 109.75,
          "velocity": 0.8661417322834646
        },
        {
          "duration": 0.109375,
          "durationTicks": 42,
          "midi": 55,
          "name": "G3",
          "ticks": 42192,
          "time": 109.875,
          "velocity": 0.8661417322834646
        },
        {
          "duration": 0.21875,
          "durationTicks": 84,
          "midi": 38,
          "name": "D2",
          "ticks": 42240,
          "time": 110,
          "velocity": 0.5511811023622047
        },
        {
          "duration": 0.109375,
          "durationTicks": 42,
          "midi": 50,
          "name": "D3",
          "ticks": 42240,
          "time": 110,
          "velocity": 0.8661417322834646
        },
        {
          "duration": 0.109375,
          "durationTicks": 42,
          "midi": 50,
          "name": "D3",
          "ticks": 42288,
          "time": 110.125,
          "velocity": 0.8661417322834646
        },
        {
          "duration": 0.21875,
          "durationTicks": 84,
          "midi": 38,
          "name": "D2",
          "ticks": 42336,
          "time": 110.25,
          "velocity": 0.5511811023622047
        },
        {
          "duration": 0.109375,
          "durationTicks": 42,
          "midi": 62,
          "name": "D4",
          "ticks": 42336,
          "time": 110.25,
          "velocity": 0.8661417322834646
        },
        {
          "duration": 0.09375,
          "durationTicks": 36,
          "midi": 38,
          "name": "D2",
          "ticks": 42432,
          "time": 110.5,
          "velocity": 0.5511811023622047
        },
        {
          "duration": 0.109375,
          "durationTicks": 42,
          "midi": 57,
          "name": "A3",
          "ticks": 42432,
          "time": 110.5,
          "velocity": 0.8661417322834646
        },
        {
          "duration": 0.21875,
          "durationTicks": 84,
          "midi": 38,
          "name": "D2",
          "ticks": 42480,
          "time": 110.625,
          "velocity": 0.5511811023622047
        },
        {
          "duration": 0.21875,
          "durationTicks": 84,
          "midi": 38,
          "name": "D2",
          "ticks": 42576,
          "time": 110.875,
          "velocity": 0.5511811023622047
        },
        {
          "duration": 0.109375,
          "durationTicks": 42,
          "midi": 56,
          "name": "G#3",
          "ticks": 42576,
          "time": 110.875,
          "velocity": 0.8661417322834646
        },
        {
          "duration": 0.21875,
          "durationTicks": 84,
          "midi": 38,
          "name": "D2",
          "ticks": 42672,
          "time": 111.125,
          "velocity": 0.5511811023622047
        },
        {
          "duration": 0.109375,
          "durationTicks": 42,
          "midi": 55,
          "name": "G3",
          "ticks": 42672,
          "time": 111.125,
          "velocity": 0.8661417322834646
        },
        {
          "duration": 0.09375,
          "durationTicks": 36,
          "midi": 38,
          "name": "D2",
          "ticks": 42768,
          "time": 111.375,
          "velocity": 0.5511811023622047
        },
        {
          "duration": 0.234375,
          "durationTicks": 90,
          "midi": 53,
          "name": "F3",
          "ticks": 42768,
          "time": 111.375,
          "velocity": 0.8661417322834646
        },
        {
          "duration": 0.09375,
          "durationTicks": 36,
          "midi": 38,
          "name": "D2",
          "ticks": 42816,
          "time": 111.5,
          "velocity": 0.5511811023622047
        },
        {
          "duration": 0.09375,
          "durationTicks": 36,
          "midi": 38,
          "name": "D2",
          "ticks": 42864,
          "time": 111.625,
          "velocity": 0.5511811023622047
        },
        {
          "duration": 0.109375,
          "durationTicks": 42,
          "midi": 50,
          "name": "D3",
          "ticks": 42864,
          "time": 111.625,
          "velocity": 0.8661417322834646
        },
        {
          "duration": 0.21875,
          "durationTicks": 84,
          "midi": 38,
          "name": "D2",
          "ticks": 42912,
          "time": 111.75,
          "velocity": 0.5511811023622047
        },
        {
          "duration": 0.109375,
          "durationTicks": 42,
          "midi": 53,
          "name": "F3",
          "ticks": 42912,
          "time": 111.75,
          "velocity": 0.8661417322834646
        },
        {
          "duration": 0.109375,
          "durationTicks": 42,
          "midi": 55,
          "name": "G3",
          "ticks": 42960,
          "time": 111.875,
          "velocity": 0.8661417322834646
        },
        {
          "duration": 0.109375,
          "durationTicks": 42,
          "midi": 50,
          "name": "D3",
          "ticks": 53760,
          "time": 140,
          "velocity": 0.8661417322834646
        },
        {
          "duration": 0.109375,
          "durationTicks": 42,
          "midi": 50,
          "name": "D3",
          "ticks": 53808,
          "time": 140.125,
          "velocity": 0.8661417322834646
        },
        {
          "duration": 0.109375,
          "durationTicks": 42,
          "midi": 62,
          "name": "D4",
          "ticks": 53856,
          "time": 140.25,
          "velocity": 0.8661417322834646
        },
        {
          "duration": 0.109375,
          "durationTicks": 42,
          "midi": 57,
          "name": "A3",
          "ticks": 53952,
          "time": 140.5,
          "velocity": 0.8661417322834646
        },
        {
          "duration": 0.109375,
          "durationTicks": 42,
          "midi": 56,
          "name": "G#3",
          "ticks": 54096,
          "time": 140.875,
          "velocity": 0.8661417322834646
        },
        {
          "duration": 0.109375,
          "durationTicks": 42,
          "midi": 55,
          "name": "G3",
          "ticks": 54192,
          "time": 141.125,
          "velocity": 0.8661417322834646
        },
        {
          "duration": 0.234375,
          "durationTicks": 90,
          "midi": 53,
          "name": "F3",
          "ticks": 54288,
          "time": 141.375,
          "velocity": 0.8661417322834646
        },
        {
          "duration": 0.109375,
          "durationTicks": 42,
          "midi": 50,
          "name": "D3",
          "ticks": 54384,
          "time": 141.625,
          "velocity": 0.8661417322834646
        },
        {
          "duration": 0.109375,
          "durationTicks": 42,
          "midi": 53,
          "name": "F3",
          "ticks": 54432,
          "time": 141.75,
          "velocity": 0.8661417322834646
        },
        {
          "duration": 0.109375,
          "durationTicks": 42,
          "midi": 55,
          "name": "G3",
          "ticks": 54480,
          "time": 141.875,
          "velocity": 0.8661417322834646
        },
        {
          "duration": 0.109375,
          "durationTicks": 42,
          "midi": 50,
          "name": "D3",
          "ticks": 54528,
          "time": 142,
          "velocity": 0.8661417322834646
        },
        {
          "duration": 0.109375,
          "durationTicks": 42,
          "midi": 50,
          "name": "D3",
          "ticks": 54576,
          "time": 142.125,
          "velocity": 0.8661417322834646
        },
        {
          "duration": 0.109375,
          "durationTicks": 42,
          "midi": 62,
          "name": "D4",
          "ticks": 54624,
          "time": 142.25,
          "velocity": 0.8661417322834646
        },
        {
          "duration": 0.109375,
          "durationTicks": 42,
          "midi": 57,
          "name": "A3",
          "ticks": 54720,
          "time": 142.5,
          "velocity": 0.8661417322834646
        },
        {
          "duration": 0.109375,
          "durationTicks": 42,
          "midi": 56,
          "name": "G#3",
          "ticks": 54864,
          "time": 142.875,
          "velocity": 0.8661417322834646
        },
        {
          "duration": 0.109375,
          "durationTicks": 42,
          "midi": 55,
          "name": "G3",
          "ticks": 54960,
          "time": 143.125,
          "velocity": 0.8661417322834646
        },
        {
          "duration": 0.234375,
          "durationTicks": 90,
          "midi": 53,
          "name": "F3",
          "ticks": 55056,
          "time": 143.375,
          "velocity": 0.8661417322834646
        },
        {
          "duration": 0.109375,
          "durationTicks": 42,
          "midi": 50,
          "name": "D3",
          "ticks": 55152,
          "time": 143.625,
          "velocity": 0.8661417322834646
        },
        {
          "duration": 0.109375,
          "durationTicks": 42,
          "midi": 53,
          "name": "F3",
          "ticks": 55200,
          "time": 143.75,
          "velocity": 0.8661417322834646
        },
        {
          "duration": 0.109375,
          "durationTicks": 42,
          "midi": 55,
          "name": "G3",
          "ticks": 55248,
          "time": 143.875,
          "velocity": 0.8661417322834646
        },
        {
          "duration": 0.109375,
          "durationTicks": 42,
          "midi": 46,
          "name": "A#2",
          "ticks": 55296,
          "time": 144,
          "velocity": 0.8661417322834646
        },
        {
          "duration": 0.109375,
          "durationTicks": 42,
          "midi": 46,
          "name": "A#2",
          "ticks": 55344,
          "time": 144.125,
          "velocity": 0.8661417322834646
        },
        {
          "duration": 0.109375,
          "durationTicks": 42,
          "midi": 62,
          "name": "D4",
          "ticks": 55392,
          "time": 144.25,
          "velocity": 0.8661417322834646
        },
        {
          "duration": 0.109375,
          "durationTicks": 42,
          "midi": 57,
          "name": "A3",
          "ticks": 55488,
          "time": 144.5,
          "velocity": 0.8661417322834646
        },
        {
          "duration": 0.109375,
          "durationTicks": 42,
          "midi": 56,
          "name": "G#3",
          "ticks": 55632,
          "time": 144.875,
          "velocity": 0.8661417322834646
        },
        {
          "duration": 0.109375,
          "durationTicks": 42,
          "midi": 55,
          "name": "G3",
          "ticks": 55728,
          "time": 145.125,
          "velocity": 0.8661417322834646
        },
        {
          "duration": 0.234375,
          "durationTicks": 90,
          "midi": 53,
          "name": "F3",
          "ticks": 55824,
          "time": 145.375,
          "velocity": 0.8661417322834646
        },
        {
          "duration": 0.109375,
          "durationTicks": 42,
          "midi": 50,
          "name": "D3",
          "ticks": 55920,
          "time": 145.625,
          "velocity": 0.8661417322834646
        },
        {
          "duration": 0.109375,
          "durationTicks": 42,
          "midi": 53,
          "name": "F3",
          "ticks": 55968,
          "time": 145.75,
          "velocity": 0.8661417322834646
        },
        {
          "duration": 0.109375,
          "durationTicks": 42,
          "midi": 55,
          "name": "G3",
          "ticks": 56016,
          "time": 145.875,
          "velocity": 0.8661417322834646
        },
        {
          "duration": 0.109375,
          "durationTicks": 42,
          "midi": 48,
          "name": "C3",
          "ticks": 56064,
          "time": 146,
          "velocity": 0.8661417322834646
        },
        {
          "duration": 0.109375,
          "durationTicks": 42,
          "midi": 48,
          "name": "C3",
          "ticks": 56112,
          "time": 146.125,
          "velocity": 0.8661417322834646
        },
        {
          "duration": 0.109375,
          "durationTicks": 42,
          "midi": 62,
          "name": "D4",
          "ticks": 56160,
          "time": 146.25,
          "velocity": 0.8661417322834646
        },
        {
          "duration": 0.109375,
          "durationTicks": 42,
          "midi": 57,
          "name": "A3",
          "ticks": 56256,
          "time": 146.5,
          "velocity": 0.8661417322834646
        },
        {
          "duration": 0.109375,
          "durationTicks": 42,
          "midi": 56,
          "name": "G#3",
          "ticks": 56400,
          "time": 146.875,
          "velocity": 0.8661417322834646
        },
        {
          "duration": 0.109375,
          "durationTicks": 42,
          "midi": 55,
          "name": "G3",
          "ticks": 56496,
          "time": 147.125,
          "velocity": 0.8661417322834646
        },
        {
          "duration": 0.234375,
          "durationTicks": 90,
          "midi": 53,
          "name": "F3",
          "ticks": 56592,
          "time": 147.375,
          "velocity": 0.8661417322834646
        },
        {
          "duration": 0.109375,
          "durationTicks": 42,
          "midi": 50,
          "name": "D3",
          "ticks": 56688,
          "time": 147.625,
          "velocity": 0.8661417322834646
        },
        {
          "duration": 0.109375,
          "durationTicks": 42,
          "midi": 53,
          "name": "F3",
          "ticks": 56736,
          "time": 147.75,
          "velocity": 0.8661417322834646
        },
        {
          "duration": 0.109375,
          "durationTicks": 42,
          "midi": 55,
          "name": "G3",
          "ticks": 56784,
          "time": 147.875,
          "velocity": 0.8661417322834646
        },
        {
          "duration": 0.109375,
          "durationTicks": 42,
          "midi": 50,
          "name": "D3",
          "ticks": 56832,
          "time": 148,
          "velocity": 0.8661417322834646
        },
        {
          "duration": 0.109375,
          "durationTicks": 42,
          "midi": 50,
          "name": "D3",
          "ticks": 56880,
          "time": 148.125,
          "velocity": 0.8661417322834646
        },
        {
          "duration": 0.109375,
          "durationTicks": 42,
          "midi": 62,
          "name": "D4",
          "ticks": 56928,
          "time": 148.25,
          "velocity": 0.8661417322834646
        },
        {
          "duration": 0.109375,
          "durationTicks": 42,
          "midi": 57,
          "name": "A3",
          "ticks": 57024,
          "time": 148.5,
          "velocity": 0.8661417322834646
        },
        {
          "duration": 0.109375,
          "durationTicks": 42,
          "midi": 56,
          "name": "G#3",
          "ticks": 57168,
          "time": 148.875,
          "velocity": 0.8661417322834646
        },
        {
          "duration": 0.109375,
          "durationTicks": 42,
          "midi": 55,
          "name": "G3",
          "ticks": 57264,
          "time": 149.125,
          "velocity": 0.8661417322834646
        },
        {
          "duration": 0.234375,
          "durationTicks": 90,
          "midi": 53,
          "name": "F3",
          "ticks": 57360,
          "time": 149.375,
          "velocity": 0.8661417322834646
        },
        {
          "duration": 0.109375,
          "durationTicks": 42,
          "midi": 50,
          "name": "D3",
          "ticks": 57456,
          "time": 149.625,
          "velocity": 0.8661417322834646
        },
        {
          "duration": 0.109375,
          "durationTicks": 42,
          "midi": 53,
          "name": "F3",
          "ticks": 57504,
          "time": 149.75,
          "velocity": 0.8661417322834646
        },
        {
          "duration": 0.109375,
          "durationTicks": 42,
          "midi": 55,
          "name": "G3",
          "ticks": 57552,
          "time": 149.875,
          "velocity": 0.8661417322834646
        },
        {
          "duration": 0.109375,
          "durationTicks": 42,
          "midi": 50,
          "name": "D3",
          "ticks": 57600,
          "time": 150,
          "velocity": 0.8661417322834646
        },
        {
          "duration": 0.109375,
          "durationTicks": 42,
          "midi": 50,
          "name": "D3",
          "ticks": 57648,
          "time": 150.125,
          "velocity": 0.8661417322834646
        },
        {
          "duration": 0.109375,
          "durationTicks": 42,
          "midi": 62,
          "name": "D4",
          "ticks": 57696,
          "time": 150.25,
          "velocity": 0.8661417322834646
        },
        {
          "duration": 0.109375,
          "durationTicks": 42,
          "midi": 57,
          "name": "A3",
          "ticks": 57792,
          "time": 150.5,
          "velocity": 0.8661417322834646
        },
        {
          "duration": 0.109375,
          "durationTicks": 42,
          "midi": 56,
          "name": "G#3",
          "ticks": 57936,
          "time": 150.875,
          "velocity": 0.8661417322834646
        },
        {
          "duration": 0.109375,
          "durationTicks": 42,
          "midi": 55,
          "name": "G3",
          "ticks": 58032,
          "time": 151.125,
          "velocity": 0.8661417322834646
        },
        {
          "duration": 0.234375,
          "durationTicks": 90,
          "midi": 53,
          "name": "F3",
          "ticks": 58128,
          "time": 151.375,
          "velocity": 0.8661417322834646
        },
        {
          "duration": 0.109375,
          "durationTicks": 42,
          "midi": 50,
          "name": "D3",
          "ticks": 58224,
          "time": 151.625,
          "velocity": 0.8661417322834646
        },
        {
          "duration": 0.109375,
          "durationTicks": 42,
          "midi": 53,
          "name": "F3",
          "ticks": 58272,
          "time": 151.75,
          "velocity": 0.8661417322834646
        },
        {
          "duration": 0.109375,
          "durationTicks": 42,
          "midi": 55,
          "name": "G3",
          "ticks": 58320,
          "time": 151.875,
          "velocity": 0.8661417322834646
        },
        {
          "duration": 0.109375,
          "durationTicks": 42,
          "midi": 46,
          "name": "A#2",
          "ticks": 58368,
          "time": 152,
          "velocity": 0.8661417322834646
        },
        {
          "duration": 0.109375,
          "durationTicks": 42,
          "midi": 46,
          "name": "A#2",
          "ticks": 58416,
          "time": 152.125,
          "velocity": 0.8661417322834646
        },
        {
          "duration": 0.109375,
          "durationTicks": 42,
          "midi": 62,
          "name": "D4",
          "ticks": 58464,
          "time": 152.25,
          "velocity": 0.8661417322834646
        },
        {
          "duration": 0.109375,
          "durationTicks": 42,
          "midi": 57,
          "name": "A3",
          "ticks": 58560,
          "time": 152.5,
          "velocity": 0.8661417322834646
        },
        {
          "duration": 0.109375,
          "durationTicks": 42,
          "midi": 56,
          "name": "G#3",
          "ticks": 58704,
          "time": 152.875,
          "velocity": 0.8661417322834646
        },
        {
          "duration": 0.109375,
          "durationTicks": 42,
          "midi": 55,
          "name": "G3",
          "ticks": 58800,
          "time": 153.125,
          "velocity": 0.8661417322834646
        },
        {
          "duration": 0.234375,
          "durationTicks": 90,
          "midi": 53,
          "name": "F3",
          "ticks": 58896,
          "time": 153.375,
          "velocity": 0.8661417322834646
        },
        {
          "duration": 0.109375,
          "durationTicks": 42,
          "midi": 50,
          "name": "D3",
          "ticks": 58992,
          "time": 153.625,
          "velocity": 0.8661417322834646
        },
        {
          "duration": 0.109375,
          "durationTicks": 42,
          "midi": 53,
          "name": "F3",
          "ticks": 59040,
          "time": 153.75,
          "velocity": 0.8661417322834646
        },
        {
          "duration": 0.109375,
          "durationTicks": 42,
          "midi": 55,
          "name": "G3",
          "ticks": 59088,
          "time": 153.875,
          "velocity": 0.8661417322834646
        },
        {
          "duration": 0.109375,
          "durationTicks": 42,
          "midi": 48,
          "name": "C3",
          "ticks": 59136,
          "time": 154,
          "velocity": 0.8661417322834646
        },
        {
          "duration": 0.109375,
          "durationTicks": 42,
          "midi": 48,
          "name": "C3",
          "ticks": 59184,
          "time": 154.125,
          "velocity": 0.8661417322834646
        },
        {
          "duration": 0.109375,
          "durationTicks": 42,
          "midi": 62,
          "name": "D4",
          "ticks": 59232,
          "time": 154.25,
          "velocity": 0.8661417322834646
        },
        {
          "duration": 0.109375,
          "durationTicks": 42,
          "midi": 57,
          "name": "A3",
          "ticks": 59328,
          "time": 154.5,
          "velocity": 0.8661417322834646
        },
        {
          "duration": 0.109375,
          "durationTicks": 42,
          "midi": 56,
          "name": "G#3",
          "ticks": 59472,
          "time": 154.875,
          "velocity": 0.8661417322834646
        },
        {
          "duration": 0.109375,
          "durationTicks": 42,
          "midi": 55,
          "name": "G3",
          "ticks": 59568,
          "time": 155.125,
          "velocity": 0.8661417322834646
        },
        {
          "duration": 0.234375,
          "durationTicks": 90,
          "midi": 53,
          "name": "F3",
          "ticks": 59664,
          "time": 155.375,
          "velocity": 0.8661417322834646
        },
        {
          "duration": 0.109375,
          "durationTicks": 42,
          "midi": 50,
          "name": "D3",
          "ticks": 59760,
          "time": 155.625,
          "velocity": 0.8661417322834646
        },
        {
          "duration": 0.109375,
          "durationTicks": 42,
          "midi": 53,
          "name": "F3",
          "ticks": 59808,
          "time": 155.75,
          "velocity": 0.8661417322834646
        },
        {
          "duration": 0.109375,
          "durationTicks": 42,
          "midi": 55,
          "name": "G3",
          "ticks": 59856,
          "time": 155.875,
          "velocity": 0.8661417322834646
        }
      ]
    },
    {
      "channel": 0,
      "controlChanges": {
        "0": [
          {
            "number": 0,
            "ticks": 0,
            "time": 0,
            "value": 0
          }
        ],
        "32": [
          {
            "number": 32,
            "ticks": 0,
            "time": 0,
            "value": 0
          }
        ]
      },
      "pitchBends": [],
      "instrument": {
        "family": "piano",
        "number": 0,
        "name": "acoustic grand piano"
      },
      "name": "Staff-9",
      "notes": [],
      "endOfTrackTicks": 59904
    },
    {
      "channel": 14,
      "controlChanges": {
        "7": [
          {
            "number": 7,
            "ticks": 0,
            "time": 0,
            "value": 1
          },
          {
            "number": 7,
            "ticks": 0,
            "time": 0,
            "value": 1
          },
          {
            "number": 7,
            "ticks": 15120,
            "time": 39.375,
            "value": 0.5118110236220472
          },
          {
            "number": 7,
            "ticks": 15121,
            "time": 39.377604166666664,
            "value": 0.5196850393700787
          },
          {
            "number": 7,
            "ticks": 15123,
            "time": 39.3828125,
            "value": 0.5275590551181102
          },
          {
            "number": 7,
            "ticks": 15125,
            "time": 39.388020833333336,
            "value": 0.5354330708661418
          },
          {
            "number": 7,
            "ticks": 15127,
            "time": 39.393229166666664,
            "value": 0.5433070866141733
          },
          {
            "number": 7,
            "ticks": 15130,
            "time": 39.401041666666664,
            "value": 0.5511811023622047
          },
          {
            "number": 7,
            "ticks": 15132,
            "time": 39.40625,
            "value": 0.5590551181102362
          },
          {
            "number": 7,
            "ticks": 15134,
            "time": 39.411458333333336,
            "value": 0.5669291338582677
          },
          {
            "number": 7,
            "ticks": 15137,
            "time": 39.419270833333336,
            "value": 0.5748031496062992
          },
          {
            "number": 7,
            "ticks": 15139,
            "time": 39.424479166666664,
            "value": 0.5826771653543307
          },
          {
            "number": 7,
            "ticks": 15141,
            "time": 39.4296875,
            "value": 0.5905511811023622
          },
          {
            "number": 7,
            "ticks": 15144,
            "time": 39.4375,
            "value": 0.5984251968503937
          },
          {
            "number": 7,
            "ticks": 15146,
            "time": 39.442708333333336,
            "value": 0.6062992125984252
          },
          {
            "number": 7,
            "ticks": 15148,
            "time": 39.447916666666664,
            "value": 0.6141732283464567
          },
          {
            "number": 7,
            "ticks": 15151,
            "time": 39.455729166666664,
            "value": 0.6220472440944882
          },
          {
            "number": 7,
            "ticks": 15153,
            "time": 39.4609375,
            "value": 0.6299212598425197
          },
          {
            "number": 7,
            "ticks": 15155,
            "time": 39.466145833333336,
            "value": 0.6377952755905512
          },
          {
            "number": 7,
            "ticks": 15158,
            "time": 39.473958333333336,
            "value": 0.6456692913385826
          },
          {
            "number": 7,
            "ticks": 15160,
            "time": 39.479166666666664,
            "value": 0.6535433070866141
          },
          {
            "number": 7,
            "ticks": 15162,
            "time": 39.484375,
            "value": 0.6614173228346457
          },
          {
            "number": 7,
            "ticks": 15165,
            "time": 39.4921875,
            "value": 0.6692913385826772
          },
          {
            "number": 7,
            "ticks": 15167,
            "time": 39.497395833333336,
            "value": 0.6771653543307087
          },
          {
            "number": 7,
            "ticks": 15169,
            "time": 39.502604166666664,
            "value": 0.6850393700787402
          },
          {
            "number": 7,
            "ticks": 15172,
            "time": 39.510416666666664,
            "value": 0.6929133858267716
          },
          {
            "number": 7,
            "ticks": 15174,
            "time": 39.515625,
            "value": 0.7007874015748031
          },
          {
            "number": 7,
            "ticks": 15176,
            "time": 39.520833333333336,
            "value": 0.7086614173228346
          },
          {
            "number": 7,
            "ticks": 15179,
            "time": 39.528645833333336,
            "value": 0.7165354330708661
          },
          {
            "number": 7,
            "ticks": 15181,
            "time": 39.533854166666664,
            "value": 0.7244094488188977
          },
          {
            "number": 7,
            "ticks": 15183,
            "time": 39.5390625,
            "value": 0.7322834645669292
          },
          {
            "number": 7,
            "ticks": 15186,
            "time": 39.546875,
            "value": 0.7401574803149606
          },
          {
            "number": 7,
            "ticks": 15188,
            "time": 39.552083333333336,
            "value": 0.7480314960629921
          },
          {
            "number": 7,
            "ticks": 15190,
            "time": 39.557291666666664,
            "value": 0.7559055118110236
          },
          {
            "number": 7,
            "ticks": 15193,
            "time": 39.565104166666664,
            "value": 0.7637795275590551
          },
          {
            "number": 7,
            "ticks": 15195,
            "time": 39.5703125,
            "value": 0.7716535433070866
          },
          {
            "number": 7,
            "ticks": 15197,
            "time": 39.575520833333336,
            "value": 0.7795275590551181
          },
          {
            "number": 7,
            "ticks": 15199,
            "time": 39.580729166666664,
            "value": 0.7874015748031497
          },
          {
            "number": 7,
            "ticks": 15202,
            "time": 39.588541666666664,
            "value": 0.7952755905511811
          },
          {
            "number": 7,
            "ticks": 15204,
            "time": 39.59375,
            "value": 0.8031496062992126
          },
          {
            "number": 7,
            "ticks": 15206,
            "time": 39.598958333333336,
            "value": 0.8110236220472441
          },
          {
            "number": 7,
            "ticks": 15209,
            "time": 39.606770833333336,
            "value": 0.8188976377952756
          },
          {
            "number": 7,
            "ticks": 15211,
            "time": 39.611979166666664,
            "value": 0.8267716535433071
          },
          {
            "number": 7,
            "ticks": 15213,
            "time": 39.6171875,
            "value": 0.8346456692913385
          },
          {
            "number": 7,
            "ticks": 15216,
            "time": 39.625,
            "value": 0.84251968503937
          },
          {
            "number": 7,
            "ticks": 15218,
            "time": 39.630208333333336,
            "value": 0.8503937007874016
          },
          {
            "number": 7,
            "ticks": 15220,
            "time": 39.635416666666664,
            "value": 0.8582677165354331
          },
          {
            "number": 7,
            "ticks": 15223,
            "time": 39.643229166666664,
            "value": 0.8661417322834646
          },
          {
            "number": 7,
            "ticks": 15225,
            "time": 39.6484375,
            "value": 0.8740157480314961
          },
          {
            "number": 7,
            "ticks": 15227,
            "time": 39.653645833333336,
            "value": 0.8818897637795275
          },
          {
            "number": 7,
            "ticks": 15230,
            "time": 39.661458333333336,
            "value": 0.889763779527559
          },
          {
            "number": 7,
            "ticks": 15232,
            "time": 39.666666666666664,
            "value": 0.8976377952755905
          },
          {
            "number": 7,
            "ticks": 15234,
            "time": 39.671875,
            "value": 0.905511811023622
          },
          {
            "number": 7,
            "ticks": 15237,
            "time": 39.6796875,
            "value": 0.9133858267716536
          },
          {
            "number": 7,
            "ticks": 15239,
            "time": 39.684895833333336,
            "value": 0.9212598425196851
          },
          {
            "number": 7,
            "ticks": 15241,
            "time": 39.690104166666664,
            "value": 0.9291338582677166
          },
          {
            "number": 7,
            "ticks": 15244,
            "time": 39.697916666666664,
            "value": 0.937007874015748
          },
          {
            "number": 7,
            "ticks": 15246,
            "time": 39.703125,
            "value": 0.9448818897637795
          },
          {
            "number": 7,
            "ticks": 15248,
            "time": 39.708333333333336,
            "value": 0.952755905511811
          },
          {
            "number": 7,
            "ticks": 15251,
            "time": 39.716145833333336,
            "value": 0.9606299212598425
          },
          {
            "number": 7,
            "ticks": 15253,
            "time": 39.721354166666664,
            "value": 0.968503937007874
          },
          {
            "number": 7,
            "ticks": 15255,
            "time": 39.7265625,
            "value": 0.9763779527559056
          },
          {
            "number": 7,
            "ticks": 15258,
            "time": 39.734375,
            "value": 0.984251968503937
          },
          {
            "number": 7,
            "ticks": 15260,
            "time": 39.739583333333336,
            "value": 0.9921259842519685
          },
          {
            "number": 7,
            "ticks": 15262,
            "time": 39.744791666666664,
            "value": 1
          }
        ],
        "10": [
          {
            "number": 10,
            "ticks": 0,
            "time": 0,
            "value": 0.5039370078740157
          }
        ]
      },
      "pitchBends": [
        {
          "ticks": 15120,
          "time": 39.375,
          "value": -1
        },
        {
          "ticks": 15121,
          "time": 39.377604166666664,
          "value": -0.9765625
        },
        {
          "ticks": 15122,
          "time": 39.380208333333336,
          "value": -0.95703125
        },
        {
          "ticks": 15123,
          "time": 39.3828125,
          "value": -0.9375
        },
        {
          "ticks": 15124,
          "time": 39.385416666666664,
          "value": -0.9140625
        },
        {
          "ticks": 15125,
          "time": 39.388020833333336,
          "value": -0.89453125
        },
        {
          "ticks": 15126,
          "time": 39.390625,
          "value": -0.875
        },
        {
          "ticks": 15127,
          "time": 39.393229166666664,
          "value": -0.8515625
        },
        {
          "ticks": 15128,
          "time": 39.395833333333336,
          "value": -0.83203125
        },
        {
          "ticks": 15129,
          "time": 39.3984375,
          "value": -0.8125
        },
        {
          "ticks": 15130,
          "time": 39.401041666666664,
          "value": -0.7890625
        },
        {
          "ticks": 15131,
          "time": 39.403645833333336,
          "value": -0.76953125
        },
        {
          "ticks": 15132,
          "time": 39.40625,
          "value": -0.75
        },
        {
          "ticks": 15133,
          "time": 39.408854166666664,
          "value": -0.7265625
        },
        {
          "ticks": 15134,
          "time": 39.411458333333336,
          "value": -0.70703125
        },
        {
          "ticks": 15135,
          "time": 39.4140625,
          "value": -0.6875
        },
        {
          "ticks": 15136,
          "time": 39.416666666666664,
          "value": -0.66796875
        },
        {
          "ticks": 15137,
          "time": 39.419270833333336,
          "value": -0.64453125
        },
        {
          "ticks": 15138,
          "time": 39.421875,
          "value": -0.625
        },
        {
          "ticks": 15139,
          "time": 39.424479166666664,
          "value": -0.60546875
        },
        {
          "ticks": 15140,
          "time": 39.427083333333336,
          "value": -0.58203125
        },
        {
          "ticks": 15141,
          "time": 39.4296875,
          "value": -0.5625
        },
        {
          "ticks": 15142,
          "time": 39.432291666666664,
          "value": -0.54296875
        },
        {
          "ticks": 15143,
          "time": 39.434895833333336,
          "value": -0.51953125
        },
        {
          "ticks": 15144,
          "time": 39.4375,
          "value": -0.5
        },
        {
          "ticks": 15145,
          "time": 39.440104166666664,
          "value": -0.48046875
        },
        {
          "ticks": 15146,
          "time": 39.442708333333336,
          "value": -0.45703125
        },
        {
          "ticks": 15147,
          "time": 39.4453125,
          "value": -0.4375
        },
        {
          "ticks": 15148,
          "time": 39.447916666666664,
          "value": -0.41796875
        },
        {
          "ticks": 15149,
          "time": 39.450520833333336,
          "value": -0.39453125
        },
        {
          "ticks": 15150,
          "time": 39.453125,
          "value": -0.375
        },
        {
          "ticks": 15151,
          "time": 39.455729166666664,
          "value": -0.35546875
        },
        {
          "ticks": 15152,
          "time": 39.458333333333336,
          "value": -0.3359375
        },
        {
          "ticks": 15153,
          "time": 39.4609375,
          "value": -0.3125
        },
        {
          "ticks": 15154,
          "time": 39.463541666666664,
          "value": -0.29296875
        },
        {
          "ticks": 15155,
          "time": 39.466145833333336,
          "value": -0.2734375
        },
        {
          "ticks": 15156,
          "time": 39.46875,
          "value": -0.25
        },
        {
          "ticks": 15157,
          "time": 39.471354166666664,
          "value": -0.23046875
        },
        {
          "ticks": 15158,
          "time": 39.473958333333336,
          "value": -0.2109375
        },
        {
          "ticks": 15159,
          "time": 39.4765625,
          "value": -0.1875
        },
        {
          "ticks": 15160,
          "time": 39.479166666666664,
          "value": -0.16796875
        },
        {
          "ticks": 15161,
          "time": 39.481770833333336,
          "value": -0.1484375
        },
        {
          "ticks": 15162,
          "time": 39.484375,
          "value": -0.125
        },
        {
          "ticks": 15163,
          "time": 39.486979166666664,
          "value": -0.10546875
        },
        {
          "ticks": 15164,
          "time": 39.489583333333336,
          "value": -0.0859375
        },
        {
          "ticks": 15165,
          "time": 39.4921875,
          "value": -0.0625
        },
        {
          "ticks": 15166,
          "time": 39.494791666666664,
          "value": -0.04296875
        },
        {
          "ticks": 15167,
          "time": 39.497395833333336,
          "value": -0.0234375
        },
        {
          "ticks": 15168,
          "time": 39.5,
          "value": -0.0001220703125
        },
        {
          "ticks": 15360,
          "time": 40,
          "value": -1
        },
        {
          "ticks": 15361,
          "time": 40.002604166666664,
          "value": -0.9765625
        },
        {
          "ticks": 15362,
          "time": 40.005208333333336,
          "value": -0.95703125
        },
        {
          "ticks": 15363,
          "time": 40.0078125,
          "value": -0.9375
        },
        {
          "ticks": 15364,
          "time": 40.010416666666664,
          "value": -0.9140625
        },
        {
          "ticks": 15365,
          "time": 40.013020833333336,
          "value": -0.89453125
        },
        {
          "ticks": 15366,
          "time": 40.015625,
          "value": -0.875
        },
        {
          "ticks": 15367,
          "time": 40.018229166666664,
          "value": -0.8515625
        },
        {
          "ticks": 15368,
          "time": 40.020833333333336,
          "value": -0.83203125
        },
        {
          "ticks": 15369,
          "time": 40.0234375,
          "value": -0.8125
        },
        {
          "ticks": 15370,
          "time": 40.026041666666664,
          "value": -0.7890625
        },
        {
          "ticks": 15371,
          "time": 40.028645833333336,
          "value": -0.76953125
        },
        {
          "ticks": 15372,
          "time": 40.03125,
          "value": -0.75
        },
        {
          "ticks": 15373,
          "time": 40.033854166666664,
          "value": -0.7265625
        },
        {
          "ticks": 15374,
          "time": 40.036458333333336,
          "value": -0.70703125
        },
        {
          "ticks": 15375,
          "time": 40.0390625,
          "value": -0.6875
        },
        {
          "ticks": 15376,
          "time": 40.041666666666664,
          "value": -0.66796875
        },
        {
          "ticks": 15377,
          "time": 40.044270833333336,
          "value": -0.64453125
        },
        {
          "ticks": 15378,
          "time": 40.046875,
          "value": -0.625
        },
        {
          "ticks": 15379,
          "time": 40.049479166666664,
          "value": -0.60546875
        },
        {
          "ticks": 15380,
          "time": 40.052083333333336,
          "value": -0.58203125
        },
        {
          "ticks": 15381,
          "time": 40.0546875,
          "value": -0.5625
        },
        {
          "ticks": 15382,
          "time": 40.057291666666664,
          "value": -0.54296875
        },
        {
          "ticks": 15383,
          "time": 40.059895833333336,
          "value": -0.51953125
        },
        {
          "ticks": 15384,
          "time": 40.0625,
          "value": -0.5
        },
        {
          "ticks": 15385,
          "time": 40.065104166666664,
          "value": -0.48046875
        },
        {
          "ticks": 15386,
          "time": 40.067708333333336,
          "value": -0.45703125
        },
        {
          "ticks": 15387,
          "time": 40.0703125,
          "value": -0.4375
        },
        {
          "ticks": 15388,
          "time": 40.072916666666664,
          "value": -0.41796875
        },
        {
          "ticks": 15389,
          "time": 40.075520833333336,
          "value": -0.39453125
        },
        {
          "ticks": 15390,
          "time": 40.078125,
          "value": -0.375
        },
        {
          "ticks": 15391,
          "time": 40.080729166666664,
          "value": -0.35546875
        },
        {
          "ticks": 15392,
          "time": 40.083333333333336,
          "value": -0.3359375
        },
        {
          "ticks": 15393,
          "time": 40.0859375,
          "value": -0.3125
        },
        {
          "ticks": 15394,
          "time": 40.088541666666664,
          "value": -0.29296875
        },
        {
          "ticks": 15395,
          "time": 40.091145833333336,
          "value": -0.2734375
        },
        {
          "ticks": 15396,
          "time": 40.09375,
          "value": -0.25
        },
        {
          "ticks": 15397,
          "time": 40.096354166666664,
          "value": -0.23046875
        },
        {
          "ticks": 15398,
          "time": 40.098958333333336,
          "value": -0.2109375
        },
        {
          "ticks": 15399,
          "time": 40.1015625,
          "value": -0.1875
        },
        {
          "ticks": 15400,
          "time": 40.104166666666664,
          "value": -0.16796875
        },
        {
          "ticks": 15401,
          "time": 40.106770833333336,
          "value": -0.1484375
        },
        {
          "ticks": 15402,
          "time": 40.109375,
          "value": -0.125
        },
        {
          "ticks": 15403,
          "time": 40.111979166666664,
          "value": -0.10546875
        },
        {
          "ticks": 15404,
          "time": 40.114583333333336,
          "value": -0.0859375
        },
        {
          "ticks": 15405,
          "time": 40.1171875,
          "value": -0.0625
        },
        {
          "ticks": 15406,
          "time": 40.119791666666664,
          "value": -0.04296875
        },
        {
          "ticks": 15407,
          "time": 40.122395833333336,
          "value": -0.0234375
        },
        {
          "ticks": 15408,
          "time": 40.125,
          "value": -0.0001220703125
        },
        {
          "ticks": 15456,
          "time": 40.25,
          "value": 0
        },
        {
          "ticks": 15696,
          "time": 40.875,
          "value": -1
        },
        {
          "ticks": 15697,
          "time": 40.877604166666664,
          "value": -0.9765625
        },
        {
          "ticks": 15698,
          "time": 40.880208333333336,
          "value": -0.95703125
        },
        {
          "ticks": 15699,
          "time": 40.8828125,
          "value": -0.9375
        },
        {
          "ticks": 15700,
          "time": 40.885416666666664,
          "value": -0.9140625
        },
        {
          "ticks": 15701,
          "time": 40.888020833333336,
          "value": -0.89453125
        },
        {
          "ticks": 15702,
          "time": 40.890625,
          "value": -0.875
        },
        {
          "ticks": 15703,
          "time": 40.893229166666664,
          "value": -0.8515625
        },
        {
          "ticks": 15704,
          "time": 40.895833333333336,
          "value": -0.83203125
        },
        {
          "ticks": 15705,
          "time": 40.8984375,
          "value": -0.8125
        },
        {
          "ticks": 15706,
          "time": 40.901041666666664,
          "value": -0.7890625
        },
        {
          "ticks": 15707,
          "time": 40.903645833333336,
          "value": -0.76953125
        },
        {
          "ticks": 15708,
          "time": 40.90625,
          "value": -0.75
        },
        {
          "ticks": 15709,
          "time": 40.908854166666664,
          "value": -0.7265625
        },
        {
          "ticks": 15710,
          "time": 40.911458333333336,
          "value": -0.70703125
        },
        {
          "ticks": 15711,
          "time": 40.9140625,
          "value": -0.6875
        },
        {
          "ticks": 15712,
          "time": 40.916666666666664,
          "value": -0.66796875
        },
        {
          "ticks": 15713,
          "time": 40.919270833333336,
          "value": -0.64453125
        },
        {
          "ticks": 15714,
          "time": 40.921875,
          "value": -0.625
        },
        {
          "ticks": 15715,
          "time": 40.924479166666664,
          "value": -0.60546875
        },
        {
          "ticks": 15716,
          "time": 40.927083333333336,
          "value": -0.58203125
        },
        {
          "ticks": 15717,
          "time": 40.9296875,
          "value": -0.5625
        },
        {
          "ticks": 15718,
          "time": 40.932291666666664,
          "value": -0.54296875
        },
        {
          "ticks": 15719,
          "time": 40.934895833333336,
          "value": -0.51953125
        },
        {
          "ticks": 15720,
          "time": 40.9375,
          "value": -0.5
        },
        {
          "ticks": 15721,
          "time": 40.940104166666664,
          "value": -0.48046875
        },
        {
          "ticks": 15722,
          "time": 40.942708333333336,
          "value": -0.45703125
        },
        {
          "ticks": 15723,
          "time": 40.9453125,
          "value": -0.4375
        },
        {
          "ticks": 15724,
          "time": 40.947916666666664,
          "value": -0.41796875
        },
        {
          "ticks": 15725,
          "time": 40.950520833333336,
          "value": -0.39453125
        },
        {
          "ticks": 15726,
          "time": 40.953125,
          "value": -0.375
        },
        {
          "ticks": 15727,
          "time": 40.955729166666664,
          "value": -0.35546875
        },
        {
          "ticks": 15728,
          "time": 40.958333333333336,
          "value": -0.3359375
        },
        {
          "ticks": 15729,
          "time": 40.9609375,
          "value": -0.3125
        },
        {
          "ticks": 15730,
          "time": 40.963541666666664,
          "value": -0.29296875
        },
        {
          "ticks": 15731,
          "time": 40.966145833333336,
          "value": -0.2734375
        },
        {
          "ticks": 15732,
          "time": 40.96875,
          "value": -0.25
        },
        {
          "ticks": 15733,
          "time": 40.971354166666664,
          "value": -0.23046875
        },
        {
          "ticks": 15734,
          "time": 40.973958333333336,
          "value": -0.2109375
        },
        {
          "ticks": 15735,
          "time": 40.9765625,
          "value": -0.1875
        },
        {
          "ticks": 15736,
          "time": 40.979166666666664,
          "value": -0.16796875
        },
        {
          "ticks": 15737,
          "time": 40.981770833333336,
          "value": -0.1484375
        },
        {
          "ticks": 15738,
          "time": 40.984375,
          "value": -0.125
        },
        {
          "ticks": 15739,
          "time": 40.986979166666664,
          "value": -0.10546875
        },
        {
          "ticks": 15740,
          "time": 40.989583333333336,
          "value": -0.0859375
        },
        {
          "ticks": 15741,
          "time": 40.9921875,
          "value": -0.0625
        },
        {
          "ticks": 15742,
          "time": 40.994791666666664,
          "value": -0.04296875
        },
        {
          "ticks": 15743,
          "time": 40.997395833333336,
          "value": -0.0234375
        },
        {
          "ticks": 15744,
          "time": 41,
          "value": -0.0001220703125
        },
        {
          "ticks": 16128,
          "time": 42,
          "value": -1
        },
        {
          "ticks": 16129,
          "time": 42.002604166666664,
          "value": -0.9765625
        },
        {
          "ticks": 16130,
          "time": 42.005208333333336,
          "value": -0.95703125
        },
        {
          "ticks": 16131,
          "time": 42.0078125,
          "value": -0.9375
        },
        {
          "ticks": 16132,
          "time": 42.010416666666664,
          "value": -0.9140625
        },
        {
          "ticks": 16133,
          "time": 42.013020833333336,
          "value": -0.89453125
        },
        {
          "ticks": 16134,
          "time": 42.015625,
          "value": -0.875
        },
        {
          "ticks": 16135,
          "time": 42.018229166666664,
          "value": -0.8515625
        },
        {
          "ticks": 16136,
          "time": 42.020833333333336,
          "value": -0.83203125
        },
        {
          "ticks": 16137,
          "time": 42.0234375,
          "value": -0.8125
        },
        {
          "ticks": 16138,
          "time": 42.026041666666664,
          "value": -0.7890625
        },
        {
          "ticks": 16139,
          "time": 42.028645833333336,
          "value": -0.76953125
        },
        {
          "ticks": 16140,
          "time": 42.03125,
          "value": -0.75
        },
        {
          "ticks": 16141,
          "time": 42.033854166666664,
          "value": -0.7265625
        },
        {
          "ticks": 16142,
          "time": 42.036458333333336,
          "value": -0.70703125
        },
        {
          "ticks": 16143,
          "time": 42.0390625,
          "value": -0.6875
        },
        {
          "ticks": 16144,
          "time": 42.041666666666664,
          "value": -0.66796875
        },
        {
          "ticks": 16145,
          "time": 42.044270833333336,
          "value": -0.64453125
        },
        {
          "ticks": 16146,
          "time": 42.046875,
          "value": -0.625
        },
        {
          "ticks": 16147,
          "time": 42.049479166666664,
          "value": -0.60546875
        },
        {
          "ticks": 16148,
          "time": 42.052083333333336,
          "value": -0.58203125
        },
        {
          "ticks": 16149,
          "time": 42.0546875,
          "value": -0.5625
        },
        {
          "ticks": 16150,
          "time": 42.057291666666664,
          "value": -0.54296875
        },
        {
          "ticks": 16151,
          "time": 42.059895833333336,
          "value": -0.51953125
        },
        {
          "ticks": 16152,
          "time": 42.0625,
          "value": -0.5
        },
        {
          "ticks": 16153,
          "time": 42.065104166666664,
          "value": -0.48046875
        },
        {
          "ticks": 16154,
          "time": 42.067708333333336,
          "value": -0.45703125
        },
        {
          "ticks": 16155,
          "time": 42.0703125,
          "value": -0.4375
        },
        {
          "ticks": 16156,
          "time": 42.072916666666664,
          "value": -0.41796875
        },
        {
          "ticks": 16157,
          "time": 42.075520833333336,
          "value": -0.39453125
        },
        {
          "ticks": 16158,
          "time": 42.078125,
          "value": -0.375
        },
        {
          "ticks": 16159,
          "time": 42.080729166666664,
          "value": -0.35546875
        },
        {
          "ticks": 16160,
          "time": 42.083333333333336,
          "value": -0.3359375
        },
        {
          "ticks": 16161,
          "time": 42.0859375,
          "value": -0.3125
        },
        {
          "ticks": 16162,
          "time": 42.088541666666664,
          "value": -0.29296875
        },
        {
          "ticks": 16163,
          "time": 42.091145833333336,
          "value": -0.2734375
        },
        {
          "ticks": 16164,
          "time": 42.09375,
          "value": -0.25
        },
        {
          "ticks": 16165,
          "time": 42.096354166666664,
          "value": -0.23046875
        },
        {
          "ticks": 16166,
          "time": 42.098958333333336,
          "value": -0.2109375
        },
        {
          "ticks": 16167,
          "time": 42.1015625,
          "value": -0.1875
        },
        {
          "ticks": 16168,
          "time": 42.104166666666664,
          "value": -0.16796875
        },
        {
          "ticks": 16169,
          "time": 42.106770833333336,
          "value": -0.1484375
        },
        {
          "ticks": 16170,
          "time": 42.109375,
          "value": -0.125
        },
        {
          "ticks": 16171,
          "time": 42.111979166666664,
          "value": -0.10546875
        },
        {
          "ticks": 16172,
          "time": 42.114583333333336,
          "value": -0.0859375
        },
        {
          "ticks": 16173,
          "time": 42.1171875,
          "value": -0.0625
        },
        {
          "ticks": 16174,
          "time": 42.119791666666664,
          "value": -0.04296875
        },
        {
          "ticks": 16175,
          "time": 42.122395833333336,
          "value": -0.0234375
        },
        {
          "ticks": 16176,
          "time": 42.125,
          "value": -0.0001220703125
        },
        {
          "ticks": 16224,
          "time": 42.25,
          "value": 0
        },
        {
          "ticks": 59904,
          "time": 156,
          "value": 0
        }
      ],
      "instrument": {
        "family": "synth lead",
        "number": 80,
        "name": "lead 1 (square)"
      },
      "name": "",
      "notes": [
        {
          "duration": 0.625,
          "durationTicks": 240,
          "midi": 91,
          "name": "G6",
          "ticks": 15120,
          "time": 39.375,
          "velocity": 0.8661417322834646
        },
        {
          "duration": 0.21875,
          "durationTicks": 84,
          "midi": 81,
          "name": "A5",
          "ticks": 15360,
          "time": 40,
          "velocity": 0.8661417322834646
        },
        {
          "duration": 0.09375,
          "durationTicks": 36,
          "midi": 81,
          "name": "A5",
          "ticks": 15456,
          "time": 40.25,
          "velocity": 0.8661417322834646
        },
        {
          "duration": 0.09375,
          "durationTicks": 36,
          "midi": 81,
          "name": "A5",
          "ticks": 15504,
          "time": 40.375,
          "velocity": 0.8661417322834646
        },
        {
          "duration": 0.09375,
          "durationTicks": 36,
          "midi": 81,
          "name": "A5",
          "ticks": 15600,
          "time": 40.625,
          "velocity": 0.8661417322834646
        },
        {
          "duration": 0.21875,
          "durationTicks": 84,
          "midi": 81,
          "name": "A5",
          "ticks": 15696,
          "time": 40.875,
          "velocity": 0.8661417322834646
        },
        {
          "duration": 0.09375,
          "durationTicks": 36,
          "midi": 79,
          "name": "G5",
          "ticks": 15792,
          "time": 41.125,
          "velocity": 0.8661417322834646
        },
        {
          "duration": 0.59375,
          "durationTicks": 228,
          "midi": 79,
          "name": "G5",
          "ticks": 15888,
          "time": 41.375,
          "velocity": 0.8661417322834646
        },
        {
          "duration": 0.21875,
          "durationTicks": 84,
          "midi": 81,
          "name": "A5",
          "ticks": 16128,
          "time": 42,
          "velocity": 0.8661417322834646
        },
        {
          "duration": 0.09375,
          "durationTicks": 36,
          "midi": 81,
          "name": "A5",
          "ticks": 16224,
          "time": 42.25,
          "velocity": 0.8661417322834646
        },
        {
          "duration": 0.09375,
          "durationTicks": 36,
          "midi": 81,
          "name": "A5",
          "ticks": 16272,
          "time": 42.375,
          "velocity": 0.8661417322834646
        },
        {
          "duration": 0.09375,
          "durationTicks": 36,
          "midi": 81,
          "name": "A5",
          "ticks": 16368,
          "time": 42.625,
          "velocity": 0.8661417322834646
        },
        {
          "duration": 0.09375,
          "durationTicks": 36,
          "midi": 77,
          "name": "F5",
          "ticks": 16464,
          "time": 42.875,
          "velocity": 0.8661417322834646
        },
        {
          "duration": 0.09375,
          "durationTicks": 36,
          "midi": 81,
          "name": "A5",
          "ticks": 16560,
          "time": 43.125,
          "velocity": 0.8661417322834646
        },
        {
          "duration": 0.09375,
          "durationTicks": 36,
          "midi": 86,
          "name": "D6",
          "ticks": 16656,
          "time": 43.375,
          "velocity": 0.8661417322834646
        },
        {
          "duration": 0.09375,
          "durationTicks": 36,
          "midi": 81,
          "name": "A5",
          "ticks": 16752,
          "time": 43.625,
          "velocity": 0.8661417322834646
        },
        {
          "duration": 0.21875,
          "durationTicks": 84,
          "midi": 79,
          "name": "G5",
          "ticks": 16800,
          "time": 43.75,
          "velocity": 0.8661417322834646
        },
        {
          "duration": 0.21875,
          "durationTicks": 84,
          "midi": 86,
          "name": "D6",
          "ticks": 16896,
          "time": 44,
          "velocity": 0.8661417322834646
        },
        {
          "duration": 0.21875,
          "durationTicks": 84,
          "midi": 81,
          "name": "A5",
          "ticks": 16992,
          "time": 44.25,
          "velocity": 0.8661417322834646
        },
        {
          "duration": 0.21875,
          "durationTicks": 84,
          "midi": 79,
          "name": "G5",
          "ticks": 17088,
          "time": 44.5,
          "velocity": 0.8661417322834646
        },
        {
          "duration": 0.21875,
          "durationTicks": 84,
          "midi": 77,
          "name": "F5",
          "ticks": 17184,
          "time": 44.75,
          "velocity": 0.8661417322834646
        },
        {
          "duration": 0.21875,
          "durationTicks": 84,
          "midi": 84,
          "name": "C6",
          "ticks": 17280,
          "time": 45,
          "velocity": 0.8661417322834646
        },
        {
          "duration": 0.21875,
          "durationTicks": 84,
          "midi": 81,
          "name": "A5",
          "ticks": 17376,
          "time": 45.25,
          "velocity": 0.8661417322834646
        },
        {
          "duration": 0.21875,
          "durationTicks": 84,
          "midi": 77,
          "name": "F5",
          "ticks": 17472,
          "time": 45.5,
          "velocity": 0.8661417322834646
        },
        {
          "duration": 0.21875,
          "durationTicks": 84,
          "midi": 76,
          "name": "E5",
          "ticks": 17568,
          "time": 45.75,
          "velocity": 0.8661417322834646
        },
        {
          "duration": 0.21875,
          "durationTicks": 84,
          "midi": 74,
          "name": "D5",
          "ticks": 17664,
          "time": 46,
          "velocity": 0.8661417322834646
        },
        {
          "duration": 0.09375,
          "durationTicks": 36,
          "midi": 76,
          "name": "E5",
          "ticks": 17760,
          "time": 46.25,
          "velocity": 0.8661417322834646
        },
        {
          "duration": 0.09375,
          "durationTicks": 36,
          "midi": 77,
          "name": "F5",
          "ticks": 17808,
          "time": 46.375,
          "velocity": 0.8661417322834646
        },
        {
          "duration": 0.09375,
          "durationTicks": 36,
          "midi": 81,
          "name": "A5",
          "ticks": 17904,
          "time": 46.625,
          "velocity": 0.8661417322834646
        },
        {
          "duration": 1.09375,
          "durationTicks": 420,
          "midi": 84,
          "name": "C6",
          "ticks": 18000,
          "time": 46.875,
          "velocity": 0.8661417322834646
        }
      ]
    },
    {
      "channel": 0,
      "controlChanges": {
        "0": [
          {
            "number": 0,
            "ticks": 0,
            "time": 0,
            "value": 0
          }
        ],
        "32": [
          {
            "number": 32,
            "ticks": 0,
            "time": 0,
            "value": 0
          }
        ]
      },
      "pitchBends": [],
      "instrument": {
        "family": "piano",
        "number": 0,
        "name": "acoustic grand piano"
      },
      "name": "Staff-8",
      "notes": [],
      "endOfTrackTicks": 59904
    },
    {
      "channel": 13,
      "controlChanges": {
        "7": [
          {
            "number": 7,
            "ticks": 0,
            "time": 0,
            "value": 1
          },
          {
            "number": 7,
            "ticks": 0,
            "time": 0,
            "value": 1
          }
        ],
        "10": [
          {
            "number": 10,
            "ticks": 0,
            "time": 0,
            "value": 0.5039370078740157
          }
        ]
      },
      "pitchBends": [
        {
          "ticks": 12193,
          "time": 31.752604166666668,
          "value": -0.93701171875
        },
        {
          "ticks": 12194,
          "time": 31.755208333333332,
          "value": -0.9212646484375
        },
        {
          "ticks": 12195,
          "time": 31.7578125,
          "value": -0.905517578125
        },
        {
          "ticks": 12196,
          "time": 31.760416666666668,
          "value": -0.8740234375
        },
        {
          "ticks": 12197,
          "time": 31.763020833333332,
          "value": -0.8582763671875
        },
        {
          "ticks": 12198,
          "time": 31.765625,
          "value": -0.842529296875
        },
        {
          "ticks": 12199,
          "time": 31.768229166666668,
          "value": -0.81103515625
        },
        {
          "ticks": 12200,
          "time": 31.770833333333332,
          "value": -0.7952880859375
        },
        {
          "ticks": 12201,
          "time": 31.7734375,
          "value": -0.779541015625
        },
        {
          "ticks": 12202,
          "time": 31.776041666666668,
          "value": -0.748046875
        },
        {
          "ticks": 12203,
          "time": 31.778645833333332,
          "value": -0.7322998046875
        },
        {
          "ticks": 12204,
          "time": 31.78125,
          "value": -0.716552734375
        },
        {
          "ticks": 12205,
          "time": 31.783854166666668,
          "value": -0.7008056640625
        },
        {
          "ticks": 12206,
          "time": 31.786458333333332,
          "value": -0.6693115234375
        },
        {
          "ticks": 12207,
          "time": 31.7890625,
          "value": -0.653564453125
        },
        {
          "ticks": 12208,
          "time": 31.791666666666668,
          "value": -0.6378173828125
        },
        {
          "ticks": 12209,
          "time": 31.794270833333332,
          "value": -0.6063232421875
        },
        {
          "ticks": 12210,
          "time": 31.796875,
          "value": -0.590576171875
        },
        {
          "ticks": 12211,
          "time": 31.799479166666668,
          "value": -0.5748291015625
        },
        {
          "ticks": 12212,
          "time": 31.802083333333332,
          "value": -0.5433349609375
        },
        {
          "ticks": 12213,
          "time": 31.8046875,
          "value": -0.527587890625
        },
        {
          "ticks": 12214,
          "time": 31.807291666666668,
          "value": -0.5118408203125
        },
        {
          "ticks": 12215,
          "time": 31.809895833333332,
          "value": -0.49609375
        },
        {
          "ticks": 12216,
          "time": 31.8125,
          "value": -0.464599609375
        },
        {
          "ticks": 12217,
          "time": 31.815104166666668,
          "value": -0.4488525390625
        },
        {
          "ticks": 12218,
          "time": 31.817708333333332,
          "value": -0.43310546875
        },
        {
          "ticks": 12219,
          "time": 31.8203125,
          "value": -0.401611328125
        },
        {
          "ticks": 12220,
          "time": 31.822916666666668,
          "value": -0.3858642578125
        },
        {
          "ticks": 12221,
          "time": 31.825520833333332,
          "value": -0.3701171875
        },
        {
          "ticks": 12222,
          "time": 31.828125,
          "value": -0.338623046875
        },
        {
          "ticks": 12223,
          "time": 31.830729166666668,
          "value": -0.3228759765625
        },
        {
          "ticks": 12224,
          "time": 31.833333333333332,
          "value": -0.30712890625
        },
        {
          "ticks": 12225,
          "time": 31.8359375,
          "value": -0.2913818359375
        },
        {
          "ticks": 12226,
          "time": 31.838541666666668,
          "value": -0.2598876953125
        },
        {
          "ticks": 12227,
          "time": 31.841145833333332,
          "value": -0.244140625
        },
        {
          "ticks": 12228,
          "time": 31.84375,
          "value": -0.2283935546875
        },
        {
          "ticks": 12229,
          "time": 31.846354166666668,
          "value": -0.1968994140625
        },
        {
          "ticks": 12230,
          "time": 31.848958333333332,
          "value": -0.18115234375
        },
        {
          "ticks": 12231,
          "time": 31.8515625,
          "value": -0.1654052734375
        },
        {
          "ticks": 12232,
          "time": 31.854166666666668,
          "value": -0.1339111328125
        },
        {
          "ticks": 12233,
          "time": 31.856770833333332,
          "value": -0.1181640625
        },
        {
          "ticks": 12234,
          "time": 31.859375,
          "value": -0.1024169921875
        },
        {
          "ticks": 12235,
          "time": 31.861979166666668,
          "value": -0.086669921875
        },
        {
          "ticks": 12236,
          "time": 31.864583333333332,
          "value": -0.05517578125
        },
        {
          "ticks": 12237,
          "time": 31.8671875,
          "value": -0.0394287109375
        },
        {
          "ticks": 12238,
          "time": 31.869791666666668,
          "value": -0.023681640625
        },
        {
          "ticks": 12239,
          "time": 31.872395833333332,
          "value": 0.0078125
        },
        {
          "ticks": 12240,
          "time": 31.875,
          "value": 0.0235595703125
        },
        {
          "ticks": 12241,
          "time": 31.877604166666668,
          "value": 0.039306640625
        },
        {
          "ticks": 12242,
          "time": 31.880208333333332,
          "value": 0.07080078125
        },
        {
          "ticks": 12243,
          "time": 31.8828125,
          "value": 0.0865478515625
        },
        {
          "ticks": 12244,
          "time": 31.885416666666668,
          "value": 0.102294921875
        },
        {
          "ticks": 12245,
          "time": 31.888020833333332,
          "value": 0.1337890625
        },
        {
          "ticks": 12246,
          "time": 31.890625,
          "value": 0.1495361328125
        },
        {
          "ticks": 12247,
          "time": 31.893229166666668,
          "value": 0.165283203125
        },
        {
          "ticks": 12248,
          "time": 31.895833333333332,
          "value": 0.1810302734375
        },
        {
          "ticks": 12249,
          "time": 31.8984375,
          "value": 0.2125244140625
        },
        {
          "ticks": 12250,
          "time": 31.901041666666668,
          "value": 0.228271484375
        },
        {
          "ticks": 12251,
          "time": 31.903645833333332,
          "value": 0.2440185546875
        },
        {
          "ticks": 12252,
          "time": 31.90625,
          "value": 0.2755126953125
        },
        {
          "ticks": 12253,
          "time": 31.908854166666668,
          "value": 0.291259765625
        },
        {
          "ticks": 12254,
          "time": 31.911458333333332,
          "value": 0.3070068359375
        },
        {
          "ticks": 12255,
          "time": 31.9140625,
          "value": 0.3385009765625
        },
        {
          "ticks": 12256,
          "time": 31.916666666666668,
          "value": 0.354248046875
        },
        {
          "ticks": 12257,
          "time": 31.919270833333332,
          "value": 0.3699951171875
        },
        {
          "ticks": 12258,
          "time": 31.921875,
          "value": 0.3857421875
        },
        {
          "ticks": 12259,
          "time": 31.924479166666668,
          "value": 0.417236328125
        },
        {
          "ticks": 12260,
          "time": 31.927083333333332,
          "value": 0.4329833984375
        },
        {
          "ticks": 12261,
          "time": 31.9296875,
          "value": 0.44873046875
        },
        {
          "ticks": 12262,
          "time": 31.932291666666668,
          "value": 0.480224609375
        },
        {
          "ticks": 12263,
          "time": 31.934895833333332,
          "value": 0.4959716796875
        },
        {
          "ticks": 12264,
          "time": 31.9375,
          "value": 0.51171875
        },
        {
          "ticks": 12265,
          "time": 31.940104166666668,
          "value": 0.543212890625
        },
        {
          "ticks": 12266,
          "time": 31.942708333333332,
          "value": 0.5589599609375
        },
        {
          "ticks": 12267,
          "time": 31.9453125,
          "value": 0.57470703125
        },
        {
          "ticks": 12268,
          "time": 31.947916666666668,
          "value": 0.5904541015625
        },
        {
          "ticks": 12269,
          "time": 31.950520833333332,
          "value": 0.6219482421875
        },
        {
          "ticks": 12270,
          "time": 31.953125,
          "value": 0.6376953125
        },
        {
          "ticks": 12271,
          "time": 31.955729166666668,
          "value": 0.6534423828125
        },
        {
          "ticks": 12272,
          "time": 31.958333333333332,
          "value": 0.6849365234375
        },
        {
          "ticks": 12273,
          "time": 31.9609375,
          "value": 0.70068359375
        },
        {
          "ticks": 12274,
          "time": 31.963541666666668,
          "value": 0.7164306640625
        },
        {
          "ticks": 12275,
          "time": 31.966145833333332,
          "value": 0.7479248046875
        },
        {
          "ticks": 12276,
          "time": 31.96875,
          "value": 0.763671875
        },
        {
          "ticks": 12277,
          "time": 31.971354166666668,
          "value": 0.7794189453125
        },
        {
          "ticks": 12278,
          "time": 31.973958333333332,
          "value": 0.795166015625
        },
        {
          "ticks": 12279,
          "time": 31.9765625,
          "value": 0.82666015625
        },
        {
          "ticks": 12280,
          "time": 31.979166666666668,
          "value": 0.8424072265625
        },
        {
          "ticks": 12281,
          "time": 31.981770833333332,
          "value": 0.858154296875
        },
        {
          "ticks": 12282,
          "time": 31.984375,
          "value": 0.8896484375
        },
        {
          "ticks": 12283,
          "time": 31.986979166666668,
          "value": 0.9053955078125
        },
        {
          "ticks": 12284,
          "time": 31.989583333333332,
          "value": 0.921142578125
        },
        {
          "ticks": 12285,
          "time": 31.9921875,
          "value": 0.95263671875
        },
        {
          "ticks": 12286,
          "time": 31.994791666666668,
          "value": 0.9683837890625
        },
        {
          "ticks": 12287,
          "time": 31.997395833333332,
          "value": 0.984130859375
        },
        {
          "ticks": 12384,
          "time": 32.25,
          "value": 0
        },
        {
          "ticks": 12624,
          "time": 32.875,
          "value": -1
        },
        {
          "ticks": 12625,
          "time": 32.877604166666664,
          "value": -0.9765625
        },
        {
          "ticks": 12626,
          "time": 32.880208333333336,
          "value": -0.95703125
        },
        {
          "ticks": 12627,
          "time": 32.8828125,
          "value": -0.9375
        },
        {
          "ticks": 12628,
          "time": 32.885416666666664,
          "value": -0.9140625
        },
        {
          "ticks": 12629,
          "time": 32.888020833333336,
          "value": -0.89453125
        },
        {
          "ticks": 12630,
          "time": 32.890625,
          "value": -0.875
        },
        {
          "ticks": 12631,
          "time": 32.893229166666664,
          "value": -0.8515625
        },
        {
          "ticks": 12632,
          "time": 32.895833333333336,
          "value": -0.83203125
        },
        {
          "ticks": 12633,
          "time": 32.8984375,
          "value": -0.8125
        },
        {
          "ticks": 12634,
          "time": 32.901041666666664,
          "value": -0.7890625
        },
        {
          "ticks": 12635,
          "time": 32.903645833333336,
          "value": -0.76953125
        },
        {
          "ticks": 12636,
          "time": 32.90625,
          "value": -0.75
        },
        {
          "ticks": 12637,
          "time": 32.908854166666664,
          "value": -0.7265625
        },
        {
          "ticks": 12638,
          "time": 32.911458333333336,
          "value": -0.70703125
        },
        {
          "ticks": 12639,
          "time": 32.9140625,
          "value": -0.6875
        },
        {
          "ticks": 12640,
          "time": 32.916666666666664,
          "value": -0.66796875
        },
        {
          "ticks": 12641,
          "time": 32.919270833333336,
          "value": -0.64453125
        },
        {
          "ticks": 12642,
          "time": 32.921875,
          "value": -0.625
        },
        {
          "ticks": 12643,
          "time": 32.924479166666664,
          "value": -0.60546875
        },
        {
          "ticks": 12644,
          "time": 32.927083333333336,
          "value": -0.58203125
        },
        {
          "ticks": 12645,
          "time": 32.9296875,
          "value": -0.5625
        },
        {
          "ticks": 12646,
          "time": 32.932291666666664,
          "value": -0.54296875
        },
        {
          "ticks": 12647,
          "time": 32.934895833333336,
          "value": -0.51953125
        },
        {
          "ticks": 12648,
          "time": 32.9375,
          "value": -0.5
        },
        {
          "ticks": 12649,
          "time": 32.940104166666664,
          "value": -0.48046875
        },
        {
          "ticks": 12650,
          "time": 32.942708333333336,
          "value": -0.45703125
        },
        {
          "ticks": 12651,
          "time": 32.9453125,
          "value": -0.4375
        },
        {
          "ticks": 12652,
          "time": 32.947916666666664,
          "value": -0.41796875
        },
        {
          "ticks": 12653,
          "time": 32.950520833333336,
          "value": -0.39453125
        },
        {
          "ticks": 12654,
          "time": 32.953125,
          "value": -0.375
        },
        {
          "ticks": 12655,
          "time": 32.955729166666664,
          "value": -0.35546875
        },
        {
          "ticks": 12656,
          "time": 32.958333333333336,
          "value": -0.3359375
        },
        {
          "ticks": 12657,
          "time": 32.9609375,
          "value": -0.3125
        },
        {
          "ticks": 12658,
          "time": 32.963541666666664,
          "value": -0.29296875
        },
        {
          "ticks": 12659,
          "time": 32.966145833333336,
          "value": -0.2734375
        },
        {
          "ticks": 12660,
          "time": 32.96875,
          "value": -0.25
        },
        {
          "ticks": 12661,
          "time": 32.971354166666664,
          "value": -0.23046875
        },
        {
          "ticks": 12662,
          "time": 32.973958333333336,
          "value": -0.2109375
        },
        {
          "ticks": 12663,
          "time": 32.9765625,
          "value": -0.1875
        },
        {
          "ticks": 12664,
          "time": 32.979166666666664,
          "value": -0.16796875
        },
        {
          "ticks": 12665,
          "time": 32.981770833333336,
          "value": -0.1484375
        },
        {
          "ticks": 12666,
          "time": 32.984375,
          "value": -0.125
        },
        {
          "ticks": 12667,
          "time": 32.986979166666664,
          "value": -0.10546875
        },
        {
          "ticks": 12668,
          "time": 32.989583333333336,
          "value": -0.0859375
        },
        {
          "ticks": 12669,
          "time": 32.9921875,
          "value": -0.0625
        },
        {
          "ticks": 12670,
          "time": 32.994791666666664,
          "value": -0.04296875
        },
        {
          "ticks": 12671,
          "time": 32.997395833333336,
          "value": -0.0234375
        },
        {
          "ticks": 12672,
          "time": 33,
          "value": -0.0001220703125
        },
        {
          "ticks": 13056,
          "time": 34,
          "value": -0.49609375
        },
        {
          "ticks": 13057,
          "time": 34.002604166666664,
          "value": -0.4803466796875
        },
        {
          "ticks": 13058,
          "time": 34.005208333333336,
          "value": -0.464599609375
        },
        {
          "ticks": 13060,
          "time": 34.010416666666664,
          "value": -0.4488525390625
        },
        {
          "ticks": 13061,
          "time": 34.013020833333336,
          "value": -0.43310546875
        },
        {
          "ticks": 13063,
          "time": 34.018229166666664,
          "value": -0.4173583984375
        },
        {
          "ticks": 13064,
          "time": 34.020833333333336,
          "value": -0.401611328125
        },
        {
          "ticks": 13066,
          "time": 34.026041666666664,
          "value": -0.3858642578125
        },
        {
          "ticks": 13067,
          "time": 34.028645833333336,
          "value": -0.3701171875
        },
        {
          "ticks": 13069,
          "time": 34.033854166666664,
          "value": -0.3543701171875
        },
        {
          "ticks": 13070,
          "time": 34.036458333333336,
          "value": -0.338623046875
        },
        {
          "ticks": 13072,
          "time": 34.041666666666664,
          "value": -0.3228759765625
        },
        {
          "ticks": 13074,
          "time": 34.046875,
          "value": -0.30712890625
        },
        {
          "ticks": 13075,
          "time": 34.049479166666664,
          "value": -0.2913818359375
        },
        {
          "ticks": 13077,
          "time": 34.0546875,
          "value": -0.275634765625
        },
        {
          "ticks": 13078,
          "time": 34.057291666666664,
          "value": -0.2598876953125
        },
        {
          "ticks": 13080,
          "time": 34.0625,
          "value": -0.244140625
        },
        {
          "ticks": 13081,
          "time": 34.065104166666664,
          "value": -0.2283935546875
        },
        {
          "ticks": 13083,
          "time": 34.0703125,
          "value": -0.212646484375
        },
        {
          "ticks": 13084,
          "time": 34.072916666666664,
          "value": -0.1968994140625
        },
        {
          "ticks": 13086,
          "time": 34.078125,
          "value": -0.18115234375
        },
        {
          "ticks": 13087,
          "time": 34.080729166666664,
          "value": -0.1654052734375
        },
        {
          "ticks": 13089,
          "time": 34.0859375,
          "value": -0.149658203125
        },
        {
          "ticks": 13091,
          "time": 34.091145833333336,
          "value": -0.1339111328125
        },
        {
          "ticks": 13092,
          "time": 34.09375,
          "value": -0.1181640625
        },
        {
          "ticks": 13094,
          "time": 34.098958333333336,
          "value": -0.1024169921875
        },
        {
          "ticks": 13095,
          "time": 34.1015625,
          "value": -0.086669921875
        },
        {
          "ticks": 13097,
          "time": 34.106770833333336,
          "value": -0.0709228515625
        },
        {
          "ticks": 13098,
          "time": 34.109375,
          "value": -0.05517578125
        },
        {
          "ticks": 13100,
          "time": 34.114583333333336,
          "value": -0.0394287109375
        },
        {
          "ticks": 13101,
          "time": 34.1171875,
          "value": -0.023681640625
        },
        {
          "ticks": 13103,
          "time": 34.122395833333336,
          "value": -0.0079345703125
        },
        {
          "ticks": 13392,
          "time": 34.875,
          "value": -0.49609375
        },
        {
          "ticks": 13393,
          "time": 34.877604166666664,
          "value": -0.4803466796875
        },
        {
          "ticks": 13394,
          "time": 34.880208333333336,
          "value": -0.464599609375
        },
        {
          "ticks": 13395,
          "time": 34.8828125,
          "value": -0.4488525390625
        },
        {
          "ticks": 13397,
          "time": 34.888020833333336,
          "value": -0.43310546875
        },
        {
          "ticks": 13398,
          "time": 34.890625,
          "value": -0.4173583984375
        },
        {
          "ticks": 13400,
          "time": 34.895833333333336,
          "value": -0.401611328125
        },
        {
          "ticks": 13401,
          "time": 34.8984375,
          "value": -0.3858642578125
        },
        {
          "ticks": 13403,
          "time": 34.903645833333336,
          "value": -0.3701171875
        },
        {
          "ticks": 13404,
          "time": 34.90625,
          "value": -0.3543701171875
        },
        {
          "ticks": 13406,
          "time": 34.911458333333336,
          "value": -0.338623046875
        },
        {
          "ticks": 13407,
          "time": 34.9140625,
          "value": -0.3228759765625
        },
        {
          "ticks": 13409,
          "time": 34.919270833333336,
          "value": -0.30712890625
        },
        {
          "ticks": 13410,
          "time": 34.921875,
          "value": -0.2913818359375
        },
        {
          "ticks": 13411,
          "time": 34.924479166666664,
          "value": -0.275634765625
        },
        {
          "ticks": 13413,
          "time": 34.9296875,
          "value": -0.2598876953125
        },
        {
          "ticks": 13414,
          "time": 34.932291666666664,
          "value": -0.244140625
        },
        {
          "ticks": 13416,
          "time": 34.9375,
          "value": -0.2283935546875
        },
        {
          "ticks": 13417,
          "time": 34.940104166666664,
          "value": -0.212646484375
        },
        {
          "ticks": 13419,
          "time": 34.9453125,
          "value": -0.1968994140625
        },
        {
          "ticks": 13420,
          "time": 34.947916666666664,
          "value": -0.18115234375
        },
        {
          "ticks": 13422,
          "time": 34.953125,
          "value": -0.1654052734375
        },
        {
          "ticks": 13423,
          "time": 34.955729166666664,
          "value": -0.149658203125
        },
        {
          "ticks": 13425,
          "time": 34.9609375,
          "value": -0.1339111328125
        },
        {
          "ticks": 13426,
          "time": 34.963541666666664,
          "value": -0.1181640625
        },
        {
          "ticks": 13427,
          "time": 34.966145833333336,
          "value": -0.1024169921875
        },
        {
          "ticks": 13429,
          "time": 34.971354166666664,
          "value": -0.086669921875
        },
        {
          "ticks": 13430,
          "time": 34.973958333333336,
          "value": -0.0709228515625
        },
        {
          "ticks": 13432,
          "time": 34.979166666666664,
          "value": -0.05517578125
        },
        {
          "ticks": 13433,
          "time": 34.981770833333336,
          "value": -0.0394287109375
        },
        {
          "ticks": 13435,
          "time": 34.986979166666664,
          "value": -0.023681640625
        },
        {
          "ticks": 13436,
          "time": 34.989583333333336,
          "value": -0.0079345703125
        },
        {
          "ticks": 13438,
          "time": 34.994791666666664,
          "value": 0.0078125
        },
        {
          "ticks": 13439,
          "time": 34.997395833333336,
          "value": 0.0235595703125
        },
        {
          "ticks": 13440,
          "time": 35,
          "value": 0
        },
        {
          "ticks": 13824,
          "time": 36,
          "value": -0.49609375
        },
        {
          "ticks": 13825,
          "time": 36.002604166666664,
          "value": -0.4803466796875
        },
        {
          "ticks": 13826,
          "time": 36.005208333333336,
          "value": -0.464599609375
        },
        {
          "ticks": 13828,
          "time": 36.010416666666664,
          "value": -0.4488525390625
        },
        {
          "ticks": 13829,
          "time": 36.013020833333336,
          "value": -0.43310546875
        },
        {
          "ticks": 13831,
          "time": 36.018229166666664,
          "value": -0.4173583984375
        },
        {
          "ticks": 13832,
          "time": 36.020833333333336,
          "value": -0.401611328125
        },
        {
          "ticks": 13834,
          "time": 36.026041666666664,
          "value": -0.3858642578125
        },
        {
          "ticks": 13835,
          "time": 36.028645833333336,
          "value": -0.3701171875
        },
        {
          "ticks": 13837,
          "time": 36.033854166666664,
          "value": -0.3543701171875
        },
        {
          "ticks": 13838,
          "time": 36.036458333333336,
          "value": -0.338623046875
        },
        {
          "ticks": 13840,
          "time": 36.041666666666664,
          "value": -0.3228759765625
        },
        {
          "ticks": 13842,
          "time": 36.046875,
          "value": -0.30712890625
        },
        {
          "ticks": 13843,
          "time": 36.049479166666664,
          "value": -0.2913818359375
        },
        {
          "ticks": 13845,
          "time": 36.0546875,
          "value": -0.275634765625
        },
        {
          "ticks": 13846,
          "time": 36.057291666666664,
          "value": -0.2598876953125
        },
        {
          "ticks": 13848,
          "time": 36.0625,
          "value": -0.244140625
        },
        {
          "ticks": 13849,
          "time": 36.065104166666664,
          "value": -0.2283935546875
        },
        {
          "ticks": 13851,
          "time": 36.0703125,
          "value": -0.212646484375
        },
        {
          "ticks": 13852,
          "time": 36.072916666666664,
          "value": -0.1968994140625
        },
        {
          "ticks": 13854,
          "time": 36.078125,
          "value": -0.18115234375
        },
        {
          "ticks": 13855,
          "time": 36.080729166666664,
          "value": -0.1654052734375
        },
        {
          "ticks": 13857,
          "time": 36.0859375,
          "value": -0.149658203125
        },
        {
          "ticks": 13859,
          "time": 36.091145833333336,
          "value": -0.1339111328125
        },
        {
          "ticks": 13860,
          "time": 36.09375,
          "value": -0.1181640625
        },
        {
          "ticks": 13862,
          "time": 36.098958333333336,
          "value": -0.1024169921875
        },
        {
          "ticks": 13863,
          "time": 36.1015625,
          "value": -0.086669921875
        },
        {
          "ticks": 13865,
          "time": 36.106770833333336,
          "value": -0.0709228515625
        },
        {
          "ticks": 13866,
          "time": 36.109375,
          "value": -0.05517578125
        },
        {
          "ticks": 13868,
          "time": 36.114583333333336,
          "value": -0.0394287109375
        },
        {
          "ticks": 13869,
          "time": 36.1171875,
          "value": -0.023681640625
        },
        {
          "ticks": 13871,
          "time": 36.122395833333336,
          "value": -0.0079345703125
        },
        {
          "ticks": 14592,
          "time": 38,
          "value": -0.49609375
        },
        {
          "ticks": 14593,
          "time": 38.002604166666664,
          "value": -0.464599609375
        },
        {
          "ticks": 14594,
          "time": 38.005208333333336,
          "value": -0.4488525390625
        },
        {
          "ticks": 14595,
          "time": 38.0078125,
          "value": -0.4173583984375
        },
        {
          "ticks": 14596,
          "time": 38.010416666666664,
          "value": -0.401611328125
        },
        {
          "ticks": 14597,
          "time": 38.013020833333336,
          "value": -0.3701171875
        },
        {
          "ticks": 14598,
          "time": 38.015625,
          "value": -0.3543701171875
        },
        {
          "ticks": 14599,
          "time": 38.018229166666664,
          "value": -0.3228759765625
        },
        {
          "ticks": 14600,
          "time": 38.020833333333336,
          "value": -0.30712890625
        },
        {
          "ticks": 14601,
          "time": 38.0234375,
          "value": -0.275634765625
        },
        {
          "ticks": 14602,
          "time": 38.026041666666664,
          "value": -0.2598876953125
        },
        {
          "ticks": 14603,
          "time": 38.028645833333336,
          "value": -0.2283935546875
        },
        {
          "ticks": 14604,
          "time": 38.03125,
          "value": -0.212646484375
        },
        {
          "ticks": 14605,
          "time": 38.033854166666664,
          "value": -0.1968994140625
        },
        {
          "ticks": 14606,
          "time": 38.036458333333336,
          "value": -0.1654052734375
        },
        {
          "ticks": 14607,
          "time": 38.0390625,
          "value": -0.149658203125
        },
        {
          "ticks": 14608,
          "time": 38.041666666666664,
          "value": -0.1181640625
        },
        {
          "ticks": 14609,
          "time": 38.044270833333336,
          "value": -0.1024169921875
        },
        {
          "ticks": 14610,
          "time": 38.046875,
          "value": -0.0709228515625
        },
        {
          "ticks": 14611,
          "time": 38.049479166666664,
          "value": -0.05517578125
        },
        {
          "ticks": 14612,
          "time": 38.052083333333336,
          "value": -0.023681640625
        },
        {
          "ticks": 14613,
          "time": 38.0546875,
          "value": -0.0079345703125
        },
        {
          "ticks": 14614,
          "time": 38.057291666666664,
          "value": 0.0235595703125
        },
        {
          "ticks": 14615,
          "time": 38.059895833333336,
          "value": 0.039306640625
        },
        {
          "ticks": 14616,
          "time": 38.0625,
          "value": 0
        },
        {
          "ticks": 15360,
          "time": 40,
          "value": -1
        },
        {
          "ticks": 15361,
          "time": 40.002604166666664,
          "value": -0.9765625
        },
        {
          "ticks": 15362,
          "time": 40.005208333333336,
          "value": -0.95703125
        },
        {
          "ticks": 15363,
          "time": 40.0078125,
          "value": -0.9375
        },
        {
          "ticks": 15364,
          "time": 40.010416666666664,
          "value": -0.9140625
        },
        {
          "ticks": 15365,
          "time": 40.013020833333336,
          "value": -0.89453125
        },
        {
          "ticks": 15366,
          "time": 40.015625,
          "value": -0.875
        },
        {
          "ticks": 15367,
          "time": 40.018229166666664,
          "value": -0.8515625
        },
        {
          "ticks": 15368,
          "time": 40.020833333333336,
          "value": -0.83203125
        },
        {
          "ticks": 15369,
          "time": 40.0234375,
          "value": -0.8125
        },
        {
          "ticks": 15370,
          "time": 40.026041666666664,
          "value": -0.7890625
        },
        {
          "ticks": 15371,
          "time": 40.028645833333336,
          "value": -0.76953125
        },
        {
          "ticks": 15372,
          "time": 40.03125,
          "value": -0.75
        },
        {
          "ticks": 15373,
          "time": 40.033854166666664,
          "value": -0.7265625
        },
        {
          "ticks": 15374,
          "time": 40.036458333333336,
          "value": -0.70703125
        },
        {
          "ticks": 15375,
          "time": 40.0390625,
          "value": -0.6875
        },
        {
          "ticks": 15376,
          "time": 40.041666666666664,
          "value": -0.66796875
        },
        {
          "ticks": 15377,
          "time": 40.044270833333336,
          "value": -0.64453125
        },
        {
          "ticks": 15378,
          "time": 40.046875,
          "value": -0.625
        },
        {
          "ticks": 15379,
          "time": 40.049479166666664,
          "value": -0.60546875
        },
        {
          "ticks": 15380,
          "time": 40.052083333333336,
          "value": -0.58203125
        },
        {
          "ticks": 15381,
          "time": 40.0546875,
          "value": -0.5625
        },
        {
          "ticks": 15382,
          "time": 40.057291666666664,
          "value": -0.54296875
        },
        {
          "ticks": 15383,
          "time": 40.059895833333336,
          "value": -0.51953125
        },
        {
          "ticks": 15384,
          "time": 40.0625,
          "value": -0.5
        },
        {
          "ticks": 15385,
          "time": 40.065104166666664,
          "value": -0.48046875
        },
        {
          "ticks": 15386,
          "time": 40.067708333333336,
          "value": -0.45703125
        },
        {
          "ticks": 15387,
          "time": 40.0703125,
          "value": -0.4375
        },
        {
          "ticks": 15388,
          "time": 40.072916666666664,
          "value": -0.41796875
        },
        {
          "ticks": 15389,
          "time": 40.075520833333336,
          "value": -0.39453125
        },
        {
          "ticks": 15390,
          "time": 40.078125,
          "value": -0.375
        },
        {
          "ticks": 15391,
          "time": 40.080729166666664,
          "value": -0.35546875
        },
        {
          "ticks": 15392,
          "time": 40.083333333333336,
          "value": -0.3359375
        },
        {
          "ticks": 15393,
          "time": 40.0859375,
          "value": -0.3125
        },
        {
          "ticks": 15394,
          "time": 40.088541666666664,
          "value": -0.29296875
        },
        {
          "ticks": 15395,
          "time": 40.091145833333336,
          "value": -0.2734375
        },
        {
          "ticks": 15396,
          "time": 40.09375,
          "value": -0.25
        },
        {
          "ticks": 15397,
          "time": 40.096354166666664,
          "value": -0.23046875
        },
        {
          "ticks": 15398,
          "time": 40.098958333333336,
          "value": -0.2109375
        },
        {
          "ticks": 15399,
          "time": 40.1015625,
          "value": -0.1875
        },
        {
          "ticks": 15400,
          "time": 40.104166666666664,
          "value": -0.16796875
        },
        {
          "ticks": 15401,
          "time": 40.106770833333336,
          "value": -0.1484375
        },
        {
          "ticks": 15402,
          "time": 40.109375,
          "value": -0.125
        },
        {
          "ticks": 15403,
          "time": 40.111979166666664,
          "value": -0.10546875
        },
        {
          "ticks": 15404,
          "time": 40.114583333333336,
          "value": -0.0859375
        },
        {
          "ticks": 15405,
          "time": 40.1171875,
          "value": -0.0625
        },
        {
          "ticks": 15406,
          "time": 40.119791666666664,
          "value": -0.04296875
        },
        {
          "ticks": 15407,
          "time": 40.122395833333336,
          "value": -0.0234375
        },
        {
          "ticks": 15408,
          "time": 40.125,
          "value": -0.0001220703125
        },
        {
          "ticks": 15456,
          "time": 40.25,
          "value": 0
        },
        {
          "ticks": 15696,
          "time": 40.875,
          "value": -1
        },
        {
          "ticks": 15697,
          "time": 40.877604166666664,
          "value": -0.9765625
        },
        {
          "ticks": 15698,
          "time": 40.880208333333336,
          "value": -0.95703125
        },
        {
          "ticks": 15699,
          "time": 40.8828125,
          "value": -0.9375
        },
        {
          "ticks": 15700,
          "time": 40.885416666666664,
          "value": -0.9140625
        },
        {
          "ticks": 15701,
          "time": 40.888020833333336,
          "value": -0.89453125
        },
        {
          "ticks": 15702,
          "time": 40.890625,
          "value": -0.875
        },
        {
          "ticks": 15703,
          "time": 40.893229166666664,
          "value": -0.8515625
        },
        {
          "ticks": 15704,
          "time": 40.895833333333336,
          "value": -0.83203125
        },
        {
          "ticks": 15705,
          "time": 40.8984375,
          "value": -0.8125
        },
        {
          "ticks": 15706,
          "time": 40.901041666666664,
          "value": -0.7890625
        },
        {
          "ticks": 15707,
          "time": 40.903645833333336,
          "value": -0.76953125
        },
        {
          "ticks": 15708,
          "time": 40.90625,
          "value": -0.75
        },
        {
          "ticks": 15709,
          "time": 40.908854166666664,
          "value": -0.7265625
        },
        {
          "ticks": 15710,
          "time": 40.911458333333336,
          "value": -0.70703125
        },
        {
          "ticks": 15711,
          "time": 40.9140625,
          "value": -0.6875
        },
        {
          "ticks": 15712,
          "time": 40.916666666666664,
          "value": -0.66796875
        },
        {
          "ticks": 15713,
          "time": 40.919270833333336,
          "value": -0.64453125
        },
        {
          "ticks": 15714,
          "time": 40.921875,
          "value": -0.625
        },
        {
          "ticks": 15715,
          "time": 40.924479166666664,
          "value": -0.60546875
        },
        {
          "ticks": 15716,
          "time": 40.927083333333336,
          "value": -0.58203125
        },
        {
          "ticks": 15717,
          "time": 40.9296875,
          "value": -0.5625
        },
        {
          "ticks": 15718,
          "time": 40.932291666666664,
          "value": -0.54296875
        },
        {
          "ticks": 15719,
          "time": 40.934895833333336,
          "value": -0.51953125
        },
        {
          "ticks": 15720,
          "time": 40.9375,
          "value": -0.5
        },
        {
          "ticks": 15721,
          "time": 40.940104166666664,
          "value": -0.48046875
        },
        {
          "ticks": 15722,
          "time": 40.942708333333336,
          "value": -0.45703125
        },
        {
          "ticks": 15723,
          "time": 40.9453125,
          "value": -0.4375
        },
        {
          "ticks": 15724,
          "time": 40.947916666666664,
          "value": -0.41796875
        },
        {
          "ticks": 15725,
          "time": 40.950520833333336,
          "value": -0.39453125
        },
        {
          "ticks": 15726,
          "time": 40.953125,
          "value": -0.375
        },
        {
          "ticks": 15727,
          "time": 40.955729166666664,
          "value": -0.35546875
        },
        {
          "ticks": 15728,
          "time": 40.958333333333336,
          "value": -0.3359375
        },
        {
          "ticks": 15729,
          "time": 40.9609375,
          "value": -0.3125
        },
        {
          "ticks": 15730,
          "time": 40.963541666666664,
          "value": -0.29296875
        },
        {
          "ticks": 15731,
          "time": 40.966145833333336,
          "value": -0.2734375
        },
        {
          "ticks": 15732,
          "time": 40.96875,
          "value": -0.25
        },
        {
          "ticks": 15733,
          "time": 40.971354166666664,
          "value": -0.23046875
        },
        {
          "ticks": 15734,
          "time": 40.973958333333336,
          "value": -0.2109375
        },
        {
          "ticks": 15735,
          "time": 40.9765625,
          "value": -0.1875
        },
        {
          "ticks": 15736,
          "time": 40.979166666666664,
          "value": -0.16796875
        },
        {
          "ticks": 15737,
          "time": 40.981770833333336,
          "value": -0.1484375
        },
        {
          "ticks": 15738,
          "time": 40.984375,
          "value": -0.125
        },
        {
          "ticks": 15739,
          "time": 40.986979166666664,
          "value": -0.10546875
        },
        {
          "ticks": 15740,
          "time": 40.989583333333336,
          "value": -0.0859375
        },
        {
          "ticks": 15741,
          "time": 40.9921875,
          "value": -0.0625
        },
        {
          "ticks": 15742,
          "time": 40.994791666666664,
          "value": -0.04296875
        },
        {
          "ticks": 15743,
          "time": 40.997395833333336,
          "value": -0.0234375
        },
        {
          "ticks": 15744,
          "time": 41,
          "value": -0.0001220703125
        },
        {
          "ticks": 16128,
          "time": 42,
          "value": -1
        },
        {
          "ticks": 16129,
          "time": 42.002604166666664,
          "value": -0.9765625
        },
        {
          "ticks": 16130,
          "time": 42.005208333333336,
          "value": -0.95703125
        },
        {
          "ticks": 16131,
          "time": 42.0078125,
          "value": -0.9375
        },
        {
          "ticks": 16132,
          "time": 42.010416666666664,
          "value": -0.9140625
        },
        {
          "ticks": 16133,
          "time": 42.013020833333336,
          "value": -0.89453125
        },
        {
          "ticks": 16134,
          "time": 42.015625,
          "value": -0.875
        },
        {
          "ticks": 16135,
          "time": 42.018229166666664,
          "value": -0.8515625
        },
        {
          "ticks": 16136,
          "time": 42.020833333333336,
          "value": -0.83203125
        },
        {
          "ticks": 16137,
          "time": 42.0234375,
          "value": -0.8125
        },
        {
          "ticks": 16138,
          "time": 42.026041666666664,
          "value": -0.7890625
        },
        {
          "ticks": 16139,
          "time": 42.028645833333336,
          "value": -0.76953125
        },
        {
          "ticks": 16140,
          "time": 42.03125,
          "value": -0.75
        },
        {
          "ticks": 16141,
          "time": 42.033854166666664,
          "value": -0.7265625
        },
        {
          "ticks": 16142,
          "time": 42.036458333333336,
          "value": -0.70703125
        },
        {
          "ticks": 16143,
          "time": 42.0390625,
          "value": -0.6875
        },
        {
          "ticks": 16144,
          "time": 42.041666666666664,
          "value": -0.66796875
        },
        {
          "ticks": 16145,
          "time": 42.044270833333336,
          "value": -0.64453125
        },
        {
          "ticks": 16146,
          "time": 42.046875,
          "value": -0.625
        },
        {
          "ticks": 16147,
          "time": 42.049479166666664,
          "value": -0.60546875
        },
        {
          "ticks": 16148,
          "time": 42.052083333333336,
          "value": -0.58203125
        },
        {
          "ticks": 16149,
          "time": 42.0546875,
          "value": -0.5625
        },
        {
          "ticks": 16150,
          "time": 42.057291666666664,
          "value": -0.54296875
        },
        {
          "ticks": 16151,
          "time": 42.059895833333336,
          "value": -0.51953125
        },
        {
          "ticks": 16152,
          "time": 42.0625,
          "value": -0.5
        },
        {
          "ticks": 16153,
          "time": 42.065104166666664,
          "value": -0.48046875
        },
        {
          "ticks": 16154,
          "time": 42.067708333333336,
          "value": -0.45703125
        },
        {
          "ticks": 16155,
          "time": 42.0703125,
          "value": -0.4375
        },
        {
          "ticks": 16156,
          "time": 42.072916666666664,
          "value": -0.41796875
        },
        {
          "ticks": 16157,
          "time": 42.075520833333336,
          "value": -0.39453125
        },
        {
          "ticks": 16158,
          "time": 42.078125,
          "value": -0.375
        },
        {
          "ticks": 16159,
          "time": 42.080729166666664,
          "value": -0.35546875
        },
        {
          "ticks": 16160,
          "time": 42.083333333333336,
          "value": -0.3359375
        },
        {
          "ticks": 16161,
          "time": 42.0859375,
          "value": -0.3125
        },
        {
          "ticks": 16162,
          "time": 42.088541666666664,
          "value": -0.29296875
        },
        {
          "ticks": 16163,
          "time": 42.091145833333336,
          "value": -0.2734375
        },
        {
          "ticks": 16164,
          "time": 42.09375,
          "value": -0.25
        },
        {
          "ticks": 16165,
          "time": 42.096354166666664,
          "value": -0.23046875
        },
        {
          "ticks": 16166,
          "time": 42.098958333333336,
          "value": -0.2109375
        },
        {
          "ticks": 16167,
          "time": 42.1015625,
          "value": -0.1875
        },
        {
          "ticks": 16168,
          "time": 42.104166666666664,
          "value": -0.16796875
        },
        {
          "ticks": 16169,
          "time": 42.106770833333336,
          "value": -0.1484375
        },
        {
          "ticks": 16170,
          "time": 42.109375,
          "value": -0.125
        },
        {
          "ticks": 16171,
          "time": 42.111979166666664,
          "value": -0.10546875
        },
        {
          "ticks": 16172,
          "time": 42.114583333333336,
          "value": -0.0859375
        },
        {
          "ticks": 16173,
          "time": 42.1171875,
          "value": -0.0625
        },
        {
          "ticks": 16174,
          "time": 42.119791666666664,
          "value": -0.04296875
        },
        {
          "ticks": 16175,
          "time": 42.122395833333336,
          "value": -0.0234375
        },
        {
          "ticks": 16176,
          "time": 42.125,
          "value": -0.0001220703125
        },
        {
          "ticks": 16224,
          "time": 42.25,
          "value": 0
        },
        {
          "ticks": 59904,
          "time": 156,
          "value": 0
        }
      ],
      "instrument": {
        "family": "synth lead",
        "number": 80,
        "name": "lead 1 (square)"
      },
      "name": "",
      "notes": [
        {
          "duration": 0.46875,
          "durationTicks": 180,
          "midi": 75,
          "name": "D#5",
          "ticks": 12192,
          "time": 31.75,
          "velocity": 0.8661417322834646
        },
        {
          "duration": 0.09375,
          "durationTicks": 36,
          "midi": 77,
          "name": "F5",
          "ticks": 12384,
          "time": 32.25,
          "velocity": 0.8661417322834646
        },
        {
          "duration": 0.09375,
          "durationTicks": 36,
          "midi": 77,
          "name": "F5",
          "ticks": 12432,
          "time": 32.375,
          "velocity": 0.8661417322834646
        },
        {
          "duration": 0.09375,
          "durationTicks": 36,
          "midi": 77,
          "name": "F5",
          "ticks": 12528,
          "time": 32.625,
          "velocity": 0.8661417322834646
        },
        {
          "duration": 0.25,
          "durationTicks": 96,
          "midi": 77,
          "name": "F5",
          "ticks": 12624,
          "time": 32.875,
          "velocity": 0.8661417322834646
        },
        {
          "duration": 0.09375,
          "durationTicks": 36,
          "midi": 74,
          "name": "D5",
          "ticks": 12720,
          "time": 33.125,
          "velocity": 0.8661417322834646
        },
        {
          "duration": 0.59375,
          "durationTicks": 228,
          "midi": 74,
          "name": "D5",
          "ticks": 12816,
          "time": 33.375,
          "velocity": 0.8661417322834646
        },
        {
          "duration": 0.21875,
          "durationTicks": 84,
          "midi": 77,
          "name": "F5",
          "ticks": 13056,
          "time": 34,
          "velocity": 0.8661417322834646
        },
        {
          "duration": 0.09375,
          "durationTicks": 36,
          "midi": 77,
          "name": "F5",
          "ticks": 13152,
          "time": 34.25,
          "velocity": 0.8661417322834646
        },
        {
          "duration": 0.09375,
          "durationTicks": 36,
          "midi": 77,
          "name": "F5",
          "ticks": 13200,
          "time": 34.375,
          "velocity": 0.8661417322834646
        },
        {
          "duration": 0.09375,
          "durationTicks": 36,
          "midi": 79,
          "name": "G5",
          "ticks": 13296,
          "time": 34.625,
          "velocity": 0.8661417322834646
        },
        {
          "duration": 0.25,
          "durationTicks": 96,
          "midi": 80,
          "name": "G#5",
          "ticks": 13392,
          "time": 34.875,
          "velocity": 0.8661417322834646
        },
        {
          "duration": 0.03125,
          "durationTicks": 12,
          "midi": 78,
          "name": "F#5",
          "ticks": 13488,
          "time": 35.125,
          "velocity": 0.8661417322834646
        },
        {
          "duration": 0.03125,
          "durationTicks": 12,
          "midi": 79,
          "name": "G5",
          "ticks": 13500,
          "time": 35.15625,
          "velocity": 0.8661417322834646
        },
        {
          "duration": 0.03125,
          "durationTicks": 12,
          "midi": 80,
          "name": "G#5",
          "ticks": 13512,
          "time": 35.1875,
          "velocity": 0.8661417322834646
        },
        {
          "duration": 0.03125,
          "durationTicks": 12,
          "midi": 79,
          "name": "G5",
          "ticks": 13524,
          "time": 35.21875,
          "velocity": 0.8661417322834646
        },
        {
          "duration": 0.0625,
          "durationTicks": 24,
          "midi": 77,
          "name": "F5",
          "ticks": 13536,
          "time": 35.25,
          "velocity": 0.8661417322834646
        },
        {
          "duration": 0.0625,
          "durationTicks": 24,
          "midi": 74,
          "name": "D5",
          "ticks": 13584,
          "time": 35.375,
          "velocity": 0.8661417322834646
        },
        {
          "duration": 0.125,
          "durationTicks": 48,
          "midi": 77,
          "name": "F5",
          "ticks": 13632,
          "time": 35.5,
          "velocity": 0.8661417322834646
        },
        {
          "duration": 0.0625,
          "durationTicks": 24,
          "midi": 79,
          "name": "G5",
          "ticks": 13680,
          "time": 35.625,
          "velocity": 0.8661417322834646
        },
        {
          "duration": 0.1875,
          "durationTicks": 72,
          "midi": 77,
          "name": "F5",
          "ticks": 13824,
          "time": 36,
          "velocity": 0.8661417322834646
        },
        {
          "duration": 0.09375,
          "durationTicks": 36,
          "midi": 77,
          "name": "F5",
          "ticks": 13920,
          "time": 36.25,
          "velocity": 0.8661417322834646
        },
        {
          "duration": 0.09375,
          "durationTicks": 36,
          "midi": 77,
          "name": "F5",
          "ticks": 13968,
          "time": 36.375,
          "velocity": 0.8661417322834646
        },
        {
          "duration": 0.09375,
          "durationTicks": 36,
          "midi": 79,
          "name": "G5",
          "ticks": 14064,
          "time": 36.625,
          "velocity": 0.8661417322834646
        },
        {
          "duration": 0.09375,
          "durationTicks": 36,
          "midi": 80,
          "name": "G#5",
          "ticks": 14160,
          "time": 36.875,
          "velocity": 0.8661417322834646
        },
        {
          "duration": 0.09375,
          "durationTicks": 36,
          "midi": 81,
          "name": "A5",
          "ticks": 14256,
          "time": 37.125,
          "velocity": 0.8661417322834646
        },
        {
          "duration": 0.09375,
          "durationTicks": 36,
          "midi": 84,
          "name": "C6",
          "ticks": 14352,
          "time": 37.375,
          "velocity": 0.8661417322834646
        },
        {
          "duration": 0.34375,
          "durationTicks": 132,
          "midi": 81,
          "name": "A5",
          "ticks": 14448,
          "time": 37.625,
          "velocity": 0.8661417322834646
        },
        {
          "duration": 0.09375,
          "durationTicks": 36,
          "midi": 86,
          "name": "D6",
          "ticks": 14592,
          "time": 38,
          "velocity": 0.8661417322834646
        },
        {
          "duration": 0.09375,
          "durationTicks": 36,
          "midi": 86,
          "name": "D6",
          "ticks": 14688,
          "time": 38.25,
          "velocity": 0.8661417322834646
        },
        {
          "duration": 0.125,
          "durationTicks": 48,
          "midi": 86,
          "name": "D6",
          "ticks": 14784,
          "time": 38.5,
          "velocity": 0.8661417322834646
        },
        {
          "duration": 0.125,
          "durationTicks": 48,
          "midi": 81,
          "name": "A5",
          "ticks": 14832,
          "time": 38.625,
          "velocity": 0.8661417322834646
        },
        {
          "duration": 0.125,
          "durationTicks": 48,
          "midi": 86,
          "name": "D6",
          "ticks": 14880,
          "time": 38.75,
          "velocity": 0.8661417322834646
        },
        {
          "duration": 1.09375,
          "durationTicks": 420,
          "midi": 84,
          "name": "C6",
          "ticks": 14928,
          "time": 38.875,
          "velocity": 0.8661417322834646
        },
        {
          "duration": 0.21875,
          "durationTicks": 84,
          "midi": 77,
          "name": "F5",
          "ticks": 15360,
          "time": 40,
          "velocity": 0.8661417322834646
        },
        {
          "duration": 0.09375,
          "durationTicks": 36,
          "midi": 77,
          "name": "F5",
          "ticks": 15456,
          "time": 40.25,
          "velocity": 0.8661417322834646
        },
        {
          "duration": 0.09375,
          "durationTicks": 36,
          "midi": 77,
          "name": "F5",
          "ticks": 15504,
          "time": 40.375,
          "velocity": 0.8661417322834646
        },
        {
          "duration": 0.09375,
          "durationTicks": 36,
          "midi": 77,
          "name": "F5",
          "ticks": 15600,
          "time": 40.625,
          "velocity": 0.8661417322834646
        },
        {
          "duration": 0.21875,
          "durationTicks": 84,
          "midi": 77,
          "name": "F5",
          "ticks": 15696,
          "time": 40.875,
          "velocity": 0.8661417322834646
        },
        {
          "duration": 0.09375,
          "durationTicks": 36,
          "midi": 74,
          "name": "D5",
          "ticks": 15792,
          "time": 41.125,
          "velocity": 0.8661417322834646
        },
        {
          "duration": 0.59375,
          "durationTicks": 228,
          "midi": 74,
          "name": "D5",
          "ticks": 15888,
          "time": 41.375,
          "velocity": 0.8661417322834646
        },
        {
          "duration": 0.21875,
          "durationTicks": 84,
          "midi": 77,
          "name": "F5",
          "ticks": 16128,
          "time": 42,
          "velocity": 0.8661417322834646
        },
        {
          "duration": 0.09375,
          "durationTicks": 36,
          "midi": 77,
          "name": "F5",
          "ticks": 16224,
          "time": 42.25,
          "velocity": 0.8661417322834646
        },
        {
          "duration": 0.09375,
          "durationTicks": 36,
          "midi": 77,
          "name": "F5",
          "ticks": 16272,
          "time": 42.375,
          "velocity": 0.8661417322834646
        },
        {
          "duration": 0.09375,
          "durationTicks": 36,
          "midi": 77,
          "name": "F5",
          "ticks": 16368,
          "time": 42.625,
          "velocity": 0.8661417322834646
        },
        {
          "duration": 0.09375,
          "durationTicks": 36,
          "midi": 74,
          "name": "D5",
          "ticks": 16464,
          "time": 42.875,
          "velocity": 0.8661417322834646
        },
        {
          "duration": 0.09375,
          "durationTicks": 36,
          "midi": 77,
          "name": "F5",
          "ticks": 16560,
          "time": 43.125,
          "velocity": 0.8661417322834646
        },
        {
          "duration": 0.09375,
          "durationTicks": 36,
          "midi": 76,
          "name": "E5",
          "ticks": 16656,
          "time": 43.375,
          "velocity": 0.8661417322834646
        },
        {
          "duration": 0.09375,
          "durationTicks": 36,
          "midi": 74,
          "name": "D5",
          "ticks": 16752,
          "time": 43.625,
          "velocity": 0.8661417322834646
        },
        {
          "duration": 0.21875,
          "durationTicks": 84,
          "midi": 72,
          "name": "C5",
          "ticks": 16800,
          "time": 43.75,
          "velocity": 0.8661417322834646
        },
        {
          "duration": 0.0625,
          "durationTicks": 24,
          "midi": 77,
          "name": "F5",
          "ticks": 16896,
          "time": 44,
          "velocity": 0.8661417322834646
        },
        {
          "duration": 0.0625,
          "durationTicks": 24,
          "midi": 74,
          "name": "D5",
          "ticks": 16944,
          "time": 44.125,
          "velocity": 0.8661417322834646
        },
        {
          "duration": 0.0625,
          "durationTicks": 24,
          "midi": 72,
          "name": "C5",
          "ticks": 16992,
          "time": 44.25,
          "velocity": 0.8661417322834646
        },
        {
          "duration": 0.0625,
          "durationTicks": 24,
          "midi": 74,
          "name": "D5",
          "ticks": 17040,
          "time": 44.375,
          "velocity": 0.8661417322834646
        },
        {
          "duration": 0.0625,
          "durationTicks": 24,
          "midi": 77,
          "name": "F5",
          "ticks": 17088,
          "time": 44.5,
          "velocity": 0.8661417322834646
        },
        {
          "duration": 0.0625,
          "durationTicks": 24,
          "midi": 74,
          "name": "D5",
          "ticks": 17136,
          "time": 44.625,
          "velocity": 0.8661417322834646
        },
        {
          "duration": 0.0625,
          "durationTicks": 24,
          "midi": 72,
          "name": "C5",
          "ticks": 17184,
          "time": 44.75,
          "velocity": 0.8661417322834646
        },
        {
          "duration": 0.0625,
          "durationTicks": 24,
          "midi": 74,
          "name": "D5",
          "ticks": 17232,
          "time": 44.875,
          "velocity": 0.8661417322834646
        },
        {
          "duration": 0.0625,
          "durationTicks": 24,
          "midi": 77,
          "name": "F5",
          "ticks": 17280,
          "time": 45,
          "velocity": 0.8661417322834646
        },
        {
          "duration": 0.0625,
          "durationTicks": 24,
          "midi": 74,
          "name": "D5",
          "ticks": 17328,
          "time": 45.125,
          "velocity": 0.8661417322834646
        },
        {
          "duration": 0.0625,
          "durationTicks": 24,
          "midi": 72,
          "name": "C5",
          "ticks": 17376,
          "time": 45.25,
          "velocity": 0.8661417322834646
        },
        {
          "duration": 0.0625,
          "durationTicks": 24,
          "midi": 77,
          "name": "F5",
          "ticks": 17424,
          "time": 45.375,
          "velocity": 0.8661417322834646
        },
        {
          "duration": 0.0625,
          "durationTicks": 24,
          "midi": 76,
          "name": "E5",
          "ticks": 17472,
          "time": 45.5,
          "velocity": 0.8661417322834646
        },
        {
          "duration": 0.0625,
          "durationTicks": 24,
          "midi": 74,
          "name": "D5",
          "ticks": 17520,
          "time": 45.625,
          "velocity": 0.8661417322834646
        },
        {
          "duration": 0.0625,
          "durationTicks": 24,
          "midi": 72,
          "name": "C5",
          "ticks": 17568,
          "time": 45.75,
          "velocity": 0.8661417322834646
        },
        {
          "duration": 0.0625,
          "durationTicks": 24,
          "midi": 74,
          "name": "D5",
          "ticks": 17616,
          "time": 45.875,
          "velocity": 0.8661417322834646
        },
        {
          "duration": 0.21875,
          "durationTicks": 84,
          "midi": 70,
          "name": "A#4",
          "ticks": 17664,
          "time": 46,
          "velocity": 0.8661417322834646
        },
        {
          "duration": 0.09375,
          "durationTicks": 36,
          "midi": 72,
          "name": "C5",
          "ticks": 17760,
          "time": 46.25,
          "velocity": 0.8661417322834646
        },
        {
          "duration": 0.09375,
          "durationTicks": 36,
          "midi": 74,
          "name": "D5",
          "ticks": 17808,
          "time": 46.375,
          "velocity": 0.8661417322834646
        },
        {
          "duration": 0.09375,
          "durationTicks": 36,
          "midi": 77,
          "name": "F5",
          "ticks": 17904,
          "time": 46.625,
          "velocity": 0.8661417322834646
        },
        {
          "duration": 1.09375,
          "durationTicks": 420,
          "midi": 76,
          "name": "E5",
          "ticks": 18000,
          "time": 46.875,
          "velocity": 0.8661417322834646
        }
      ]
    },
    {
      "channel": 0,
      "controlChanges": {
        "0": [
          {
            "number": 0,
            "ticks": 0,
            "time": 0,
            "value": 0
          }
        ],
        "32": [
          {
            "number": 32,
            "ticks": 0,
            "time": 0,
            "value": 0
          }
        ]
      },
      "pitchBends": [],
      "instrument": {
        "family": "piano",
        "number": 0,
        "name": "acoustic grand piano"
      },
      "name": "Staff-7",
      "notes": [],
      "endOfTrackTicks": 12288
    },
    {
      "channel": 12,
      "controlChanges": {
        "7": [
          {
            "number": 7,
            "ticks": 0,
            "time": 0,
            "value": 1
          },
          {
            "number": 7,
            "ticks": 0,
            "time": 0,
            "value": 1
          }
        ],
        "10": [
          {
            "number": 10,
            "ticks": 0,
            "time": 0,
            "value": 0.5039370078740157
          }
        ]
      },
      "pitchBends": [],
      "instrument": {
        "family": "organ",
        "number": 18,
        "name": "rock organ"
      },
      "name": "",
      "notes": [
        {
          "duration": 0.0625,
          "durationTicks": 24,
          "midi": 74,
          "name": "D5",
          "ticks": 6048,
          "time": 15.75,
          "velocity": 0.4330708661417323
        },
        {
          "duration": 0.0625,
          "durationTicks": 24,
          "midi": 76,
          "name": "E5",
          "ticks": 6072,
          "time": 15.8125,
          "velocity": 0.4330708661417323
        },
        {
          "duration": 0.0625,
          "durationTicks": 24,
          "midi": 77,
          "name": "F5",
          "ticks": 6096,
          "time": 15.875,
          "velocity": 0.4330708661417323
        },
        {
          "duration": 0.0625,
          "durationTicks": 24,
          "midi": 81,
          "name": "A5",
          "ticks": 6120,
          "time": 15.9375,
          "velocity": 0.4330708661417323
        },
        {
          "duration": 2,
          "durationTicks": 768,
          "midi": 81,
          "name": "A5",
          "ticks": 6144,
          "time": 16,
          "velocity": 0.5905511811023622
        },
        {
          "duration": 2,
          "durationTicks": 768,
          "midi": 86,
          "name": "D6",
          "ticks": 6144,
          "time": 16,
          "velocity": 0.5905511811023622
        },
        {
          "duration": 2,
          "durationTicks": 768,
          "midi": 74,
          "name": "D5",
          "ticks": 6144,
          "time": 16,
          "velocity": 0.5905511811023622
        },
        {
          "duration": 2,
          "durationTicks": 768,
          "midi": 79,
          "name": "G5",
          "ticks": 6912,
          "time": 18,
          "velocity": 0.5905511811023622
        },
        {
          "duration": 2,
          "durationTicks": 768,
          "midi": 84,
          "name": "C6",
          "ticks": 6912,
          "time": 18,
          "velocity": 0.5905511811023622
        },
        {
          "duration": 2,
          "durationTicks": 768,
          "midi": 72,
          "name": "C5",
          "ticks": 6912,
          "time": 18,
          "velocity": 0.5905511811023622
        },
        {
          "duration": 2,
          "durationTicks": 768,
          "midi": 78,
          "name": "F#5",
          "ticks": 7680,
          "time": 20,
          "velocity": 0.5905511811023622
        },
        {
          "duration": 2,
          "durationTicks": 768,
          "midi": 83,
          "name": "B5",
          "ticks": 7680,
          "time": 20,
          "velocity": 0.5905511811023622
        },
        {
          "duration": 2,
          "durationTicks": 768,
          "midi": 71,
          "name": "B4",
          "ticks": 7680,
          "time": 20,
          "velocity": 0.5905511811023622
        },
        {
          "duration": 0.875,
          "durationTicks": 336,
          "midi": 77,
          "name": "F5",
          "ticks": 8448,
          "time": 22,
          "velocity": 0.5905511811023622
        },
        {
          "duration": 0.875,
          "durationTicks": 336,
          "midi": 82,
          "name": "A#5",
          "ticks": 8448,
          "time": 22,
          "velocity": 0.5905511811023622
        },
        {
          "duration": 0.875,
          "durationTicks": 336,
          "midi": 70,
          "name": "A#4",
          "ticks": 8448,
          "time": 22,
          "velocity": 0.5905511811023622
        },
        {
          "duration": 1.125,
          "durationTicks": 432,
          "midi": 79,
          "name": "G5",
          "ticks": 8784,
          "time": 22.875,
          "velocity": 0.5905511811023622
        },
        {
          "duration": 1.125,
          "durationTicks": 432,
          "midi": 84,
          "name": "C6",
          "ticks": 8784,
          "time": 22.875,
          "velocity": 0.5905511811023622
        },
        {
          "duration": 1.125,
          "durationTicks": 432,
          "midi": 72,
          "name": "C5",
          "ticks": 8784,
          "time": 22.875,
          "velocity": 0.5905511811023622
        },
        {
          "duration": 2,
          "durationTicks": 768,
          "midi": 81,
          "name": "A5",
          "ticks": 9216,
          "time": 24,
          "velocity": 0.5905511811023622
        },
        {
          "duration": 2,
          "durationTicks": 768,
          "midi": 86,
          "name": "D6",
          "ticks": 9216,
          "time": 24,
          "velocity": 0.5905511811023622
        },
        {
          "duration": 2,
          "durationTicks": 768,
          "midi": 74,
          "name": "D5",
          "ticks": 9216,
          "time": 24,
          "velocity": 0.5905511811023622
        },
        {
          "duration": 2,
          "durationTicks": 768,
          "midi": 79,
          "name": "G5",
          "ticks": 9984,
          "time": 26,
          "velocity": 0.5905511811023622
        },
        {
          "duration": 2,
          "durationTicks": 768,
          "midi": 84,
          "name": "C6",
          "ticks": 9984,
          "time": 26,
          "velocity": 0.5905511811023622
        },
        {
          "duration": 2,
          "durationTicks": 768,
          "midi": 72,
          "name": "C5",
          "ticks": 9984,
          "time": 26,
          "velocity": 0.5905511811023622
        },
        {
          "duration": 2,
          "durationTicks": 768,
          "midi": 78,
          "name": "F#5",
          "ticks": 10752,
          "time": 28,
          "velocity": 0.5905511811023622
        },
        {
          "duration": 2,
          "durationTicks": 768,
          "midi": 83,
          "name": "B5",
          "ticks": 10752,
          "time": 28,
          "velocity": 0.5905511811023622
        },
        {
          "duration": 2,
          "durationTicks": 768,
          "midi": 71,
          "name": "B4",
          "ticks": 10752,
          "time": 28,
          "velocity": 0.5905511811023622
        },
        {
          "duration": 0.875,
          "durationTicks": 336,
          "midi": 77,
          "name": "F5",
          "ticks": 11520,
          "time": 30,
          "velocity": 0.5905511811023622
        },
        {
          "duration": 0.875,
          "durationTicks": 336,
          "midi": 82,
          "name": "A#5",
          "ticks": 11520,
          "time": 30,
          "velocity": 0.5905511811023622
        },
        {
          "duration": 0.875,
          "durationTicks": 336,
          "midi": 70,
          "name": "A#4",
          "ticks": 11520,
          "time": 30,
          "velocity": 0.5905511811023622
        },
        {
          "duration": 1.125,
          "durationTicks": 432,
          "midi": 79,
          "name": "G5",
          "ticks": 11856,
          "time": 30.875,
          "velocity": 0.5905511811023622
        },
        {
          "duration": 1.125,
          "durationTicks": 432,
          "midi": 84,
          "name": "C6",
          "ticks": 11856,
          "time": 30.875,
          "velocity": 0.5905511811023622
        },
        {
          "duration": 1.125,
          "durationTicks": 432,
          "midi": 72,
          "name": "C5",
          "ticks": 11856,
          "time": 30.875,
          "velocity": 0.5905511811023622
        }
      ]
    },
    {
      "channel": 0,
      "controlChanges": {
        "0": [
          {
            "number": 0,
            "ticks": 0,
            "time": 0,
            "value": 0
          }
        ],
        "32": [
          {
            "number": 32,
            "ticks": 0,
            "time": 0,
            "value": 0
          }
        ]
      },
      "pitchBends": [],
      "instrument": {
        "family": "piano",
        "number": 0,
        "name": "acoustic grand piano"
      },
      "name": "Staff-10",
      "notes": [],
      "endOfTrackTicks": 59904
    },
    {
      "channel": 15,
      "controlChanges": {
        "7": [
          {
            "number": 7,
            "ticks": 0,
            "time": 0,
            "value": 1
          },
          {
            "number": 7,
            "ticks": 0,
            "time": 0,
            "value": 1
          }
        ],
        "10": [
          {
            "number": 10,
            "ticks": 0,
            "time": 0,
            "value": 0.5039370078740157
          }
        ]
      },
      "pitchBends": [
        {
          "ticks": 21072,
          "time": 54.875,
          "value": 0.9998779296875
        },
        {
          "ticks": 21314,
          "time": 55.505208333333336,
          "value": 0.984130859375
        },
        {
          "ticks": 21316,
          "time": 55.510416666666664,
          "value": 0.9683837890625
        },
        {
          "ticks": 21317,
          "time": 55.513020833333336,
          "value": 0.95263671875
        },
        {
          "ticks": 21319,
          "time": 55.518229166666664,
          "value": 0.9368896484375
        },
        {
          "ticks": 21320,
          "time": 55.520833333333336,
          "value": 0.921142578125
        },
        {
          "ticks": 21322,
          "time": 55.526041666666664,
          "value": 0.9053955078125
        },
        {
          "ticks": 21323,
          "time": 55.528645833333336,
          "value": 0.8896484375
        },
        {
          "ticks": 21325,
          "time": 55.533854166666664,
          "value": 0.8739013671875
        },
        {
          "ticks": 21326,
          "time": 55.536458333333336,
          "value": 0.858154296875
        },
        {
          "ticks": 21328,
          "time": 55.541666666666664,
          "value": 0.8424072265625
        },
        {
          "ticks": 21329,
          "time": 55.544270833333336,
          "value": 0.82666015625
        },
        {
          "ticks": 21331,
          "time": 55.549479166666664,
          "value": 0.8109130859375
        },
        {
          "ticks": 21332,
          "time": 55.552083333333336,
          "value": 0.795166015625
        },
        {
          "ticks": 21334,
          "time": 55.557291666666664,
          "value": 0.7794189453125
        },
        {
          "ticks": 21335,
          "time": 55.559895833333336,
          "value": 0.763671875
        },
        {
          "ticks": 21337,
          "time": 55.565104166666664,
          "value": 0.7479248046875
        },
        {
          "ticks": 21338,
          "time": 55.567708333333336,
          "value": 0.732177734375
        },
        {
          "ticks": 21340,
          "time": 55.572916666666664,
          "value": 0.7164306640625
        },
        {
          "ticks": 21341,
          "time": 55.575520833333336,
          "value": 0.70068359375
        },
        {
          "ticks": 21343,
          "time": 55.580729166666664,
          "value": 0.6849365234375
        },
        {
          "ticks": 21344,
          "time": 55.583333333333336,
          "value": 0.669189453125
        },
        {
          "ticks": 21346,
          "time": 55.588541666666664,
          "value": 0.6534423828125
        },
        {
          "ticks": 21347,
          "time": 55.591145833333336,
          "value": 0.6376953125
        },
        {
          "ticks": 21349,
          "time": 55.596354166666664,
          "value": 0.6219482421875
        },
        {
          "ticks": 21350,
          "time": 55.598958333333336,
          "value": 0.606201171875
        },
        {
          "ticks": 21352,
          "time": 55.604166666666664,
          "value": 0.5904541015625
        },
        {
          "ticks": 21353,
          "time": 55.606770833333336,
          "value": 0.57470703125
        },
        {
          "ticks": 21355,
          "time": 55.611979166666664,
          "value": 0.5589599609375
        },
        {
          "ticks": 21356,
          "time": 55.614583333333336,
          "value": 0.543212890625
        },
        {
          "ticks": 21358,
          "time": 55.619791666666664,
          "value": 0.5274658203125
        },
        {
          "ticks": 21359,
          "time": 55.622395833333336,
          "value": 0.51171875
        },
        {
          "ticks": 21361,
          "time": 55.627604166666664,
          "value": 0.4959716796875
        },
        {
          "ticks": 21362,
          "time": 55.630208333333336,
          "value": 0.480224609375
        },
        {
          "ticks": 21364,
          "time": 55.635416666666664,
          "value": 0.4644775390625
        },
        {
          "ticks": 21365,
          "time": 55.638020833333336,
          "value": 0.44873046875
        },
        {
          "ticks": 21367,
          "time": 55.643229166666664,
          "value": 0.4329833984375
        },
        {
          "ticks": 21368,
          "time": 55.645833333333336,
          "value": 0.417236328125
        },
        {
          "ticks": 21370,
          "time": 55.651041666666664,
          "value": 0.4014892578125
        },
        {
          "ticks": 21371,
          "time": 55.653645833333336,
          "value": 0.3857421875
        },
        {
          "ticks": 21373,
          "time": 55.658854166666664,
          "value": 0.3699951171875
        },
        {
          "ticks": 21374,
          "time": 55.661458333333336,
          "value": 0.354248046875
        },
        {
          "ticks": 21376,
          "time": 55.666666666666664,
          "value": 0.3385009765625
        },
        {
          "ticks": 21378,
          "time": 55.671875,
          "value": 0.32275390625
        },
        {
          "ticks": 21379,
          "time": 55.674479166666664,
          "value": 0.3070068359375
        },
        {
          "ticks": 21381,
          "time": 55.6796875,
          "value": 0.291259765625
        },
        {
          "ticks": 21382,
          "time": 55.682291666666664,
          "value": 0.2755126953125
        },
        {
          "ticks": 21384,
          "time": 55.6875,
          "value": 0.259765625
        },
        {
          "ticks": 21385,
          "time": 55.690104166666664,
          "value": 0.2440185546875
        },
        {
          "ticks": 21387,
          "time": 55.6953125,
          "value": 0.228271484375
        },
        {
          "ticks": 21388,
          "time": 55.697916666666664,
          "value": 0.2125244140625
        },
        {
          "ticks": 21390,
          "time": 55.703125,
          "value": 0.19677734375
        },
        {
          "ticks": 21391,
          "time": 55.705729166666664,
          "value": 0.1810302734375
        },
        {
          "ticks": 21393,
          "time": 55.7109375,
          "value": 0.165283203125
        },
        {
          "ticks": 21394,
          "time": 55.713541666666664,
          "value": 0.1495361328125
        },
        {
          "ticks": 21396,
          "time": 55.71875,
          "value": 0.1337890625
        },
        {
          "ticks": 21397,
          "time": 55.721354166666664,
          "value": 0.1180419921875
        },
        {
          "ticks": 21399,
          "time": 55.7265625,
          "value": 0.102294921875
        },
        {
          "ticks": 21400,
          "time": 55.729166666666664,
          "value": 0.0865478515625
        },
        {
          "ticks": 21402,
          "time": 55.734375,
          "value": 0.07080078125
        },
        {
          "ticks": 21403,
          "time": 55.736979166666664,
          "value": 0.0550537109375
        },
        {
          "ticks": 21405,
          "time": 55.7421875,
          "value": 0.039306640625
        },
        {
          "ticks": 21406,
          "time": 55.744791666666664,
          "value": 0.0235595703125
        },
        {
          "ticks": 21408,
          "time": 55.75,
          "value": 0.0078125
        },
        {
          "ticks": 21409,
          "time": 55.752604166666664,
          "value": -0.0079345703125
        },
        {
          "ticks": 21411,
          "time": 55.7578125,
          "value": -0.023681640625
        },
        {
          "ticks": 21412,
          "time": 55.760416666666664,
          "value": -0.0394287109375
        },
        {
          "ticks": 21414,
          "time": 55.765625,
          "value": -0.05517578125
        },
        {
          "ticks": 21415,
          "time": 55.768229166666664,
          "value": -0.0709228515625
        },
        {
          "ticks": 21417,
          "time": 55.7734375,
          "value": -0.086669921875
        },
        {
          "ticks": 21418,
          "time": 55.776041666666664,
          "value": -0.1024169921875
        },
        {
          "ticks": 21420,
          "time": 55.78125,
          "value": -0.1181640625
        },
        {
          "ticks": 21421,
          "time": 55.783854166666664,
          "value": -0.1339111328125
        },
        {
          "ticks": 21423,
          "time": 55.7890625,
          "value": -0.149658203125
        },
        {
          "ticks": 21424,
          "time": 55.791666666666664,
          "value": -0.1654052734375
        },
        {
          "ticks": 21426,
          "time": 55.796875,
          "value": -0.18115234375
        },
        {
          "ticks": 21427,
          "time": 55.799479166666664,
          "value": -0.1968994140625
        },
        {
          "ticks": 21429,
          "time": 55.8046875,
          "value": -0.212646484375
        },
        {
          "ticks": 21430,
          "time": 55.807291666666664,
          "value": -0.2283935546875
        },
        {
          "ticks": 21432,
          "time": 55.8125,
          "value": -0.244140625
        },
        {
          "ticks": 21433,
          "time": 55.815104166666664,
          "value": -0.2598876953125
        },
        {
          "ticks": 21435,
          "time": 55.8203125,
          "value": -0.275634765625
        },
        {
          "ticks": 21436,
          "time": 55.822916666666664,
          "value": -0.2913818359375
        },
        {
          "ticks": 21438,
          "time": 55.828125,
          "value": -0.30712890625
        },
        {
          "ticks": 21439,
          "time": 55.830729166666664,
          "value": -0.3228759765625
        },
        {
          "ticks": 21441,
          "time": 55.8359375,
          "value": -0.338623046875
        },
        {
          "ticks": 21443,
          "time": 55.841145833333336,
          "value": -0.3543701171875
        },
        {
          "ticks": 21444,
          "time": 55.84375,
          "value": -0.3701171875
        },
        {
          "ticks": 21446,
          "time": 55.848958333333336,
          "value": -0.3858642578125
        },
        {
          "ticks": 21447,
          "time": 55.8515625,
          "value": -0.401611328125
        },
        {
          "ticks": 21449,
          "time": 55.856770833333336,
          "value": -0.4173583984375
        },
        {
          "ticks": 21450,
          "time": 55.859375,
          "value": -0.43310546875
        },
        {
          "ticks": 21452,
          "time": 55.864583333333336,
          "value": -0.4488525390625
        },
        {
          "ticks": 21453,
          "time": 55.8671875,
          "value": -0.464599609375
        },
        {
          "ticks": 21455,
          "time": 55.872395833333336,
          "value": -0.4803466796875
        },
        {
          "ticks": 21456,
          "time": 55.875,
          "value": -0.49609375
        },
        {
          "ticks": 21458,
          "time": 55.880208333333336,
          "value": -0.5118408203125
        },
        {
          "ticks": 21459,
          "time": 55.8828125,
          "value": -0.527587890625
        },
        {
          "ticks": 21461,
          "time": 55.888020833333336,
          "value": -0.5433349609375
        },
        {
          "ticks": 21462,
          "time": 55.890625,
          "value": -0.55908203125
        },
        {
          "ticks": 21464,
          "time": 55.895833333333336,
          "value": -0.5748291015625
        },
        {
          "ticks": 21465,
          "time": 55.8984375,
          "value": -0.590576171875
        },
        {
          "ticks": 21467,
          "time": 55.903645833333336,
          "value": -0.6063232421875
        },
        {
          "ticks": 21468,
          "time": 55.90625,
          "value": -0.6220703125
        },
        {
          "ticks": 21470,
          "time": 55.911458333333336,
          "value": -0.6378173828125
        },
        {
          "ticks": 21471,
          "time": 55.9140625,
          "value": -0.653564453125
        },
        {
          "ticks": 21473,
          "time": 55.919270833333336,
          "value": -0.6693115234375
        },
        {
          "ticks": 21474,
          "time": 55.921875,
          "value": -0.68505859375
        },
        {
          "ticks": 21476,
          "time": 55.927083333333336,
          "value": -0.7008056640625
        },
        {
          "ticks": 21477,
          "time": 55.9296875,
          "value": -0.716552734375
        },
        {
          "ticks": 21479,
          "time": 55.934895833333336,
          "value": -0.7322998046875
        },
        {
          "ticks": 21480,
          "time": 55.9375,
          "value": -0.748046875
        },
        {
          "ticks": 21482,
          "time": 55.942708333333336,
          "value": -0.7637939453125
        },
        {
          "ticks": 21483,
          "time": 55.9453125,
          "value": -0.779541015625
        },
        {
          "ticks": 21485,
          "time": 55.950520833333336,
          "value": -0.7952880859375
        },
        {
          "ticks": 21486,
          "time": 55.953125,
          "value": -0.81103515625
        },
        {
          "ticks": 21488,
          "time": 55.958333333333336,
          "value": -0.8267822265625
        },
        {
          "ticks": 21489,
          "time": 55.9609375,
          "value": -0.842529296875
        },
        {
          "ticks": 21491,
          "time": 55.966145833333336,
          "value": -0.8582763671875
        },
        {
          "ticks": 21492,
          "time": 55.96875,
          "value": -0.8740234375
        },
        {
          "ticks": 21494,
          "time": 55.973958333333336,
          "value": -0.8897705078125
        },
        {
          "ticks": 21495,
          "time": 55.9765625,
          "value": -0.905517578125
        },
        {
          "ticks": 21497,
          "time": 55.981770833333336,
          "value": -0.9212646484375
        },
        {
          "ticks": 21498,
          "time": 55.984375,
          "value": -0.93701171875
        },
        {
          "ticks": 21500,
          "time": 55.989583333333336,
          "value": -0.9527587890625
        },
        {
          "ticks": 21501,
          "time": 55.9921875,
          "value": -0.968505859375
        },
        {
          "ticks": 21503,
          "time": 55.997395833333336,
          "value": -0.9842529296875
        },
        {
          "ticks": 21504,
          "time": 56,
          "value": 0
        },
        {
          "ticks": 23808,
          "time": 62,
          "value": -1
        },
        {
          "ticks": 24192,
          "time": 63,
          "value": -1
        },
        {
          "ticks": 24193,
          "time": 63.002604166666664,
          "value": -0.98828125
        },
        {
          "ticks": 24194,
          "time": 63.005208333333336,
          "value": -0.9765625
        },
        {
          "ticks": 24195,
          "time": 63.0078125,
          "value": -0.96875
        },
        {
          "ticks": 24196,
          "time": 63.010416666666664,
          "value": -0.95703125
        },
        {
          "ticks": 24197,
          "time": 63.013020833333336,
          "value": -0.9453125
        },
        {
          "ticks": 24198,
          "time": 63.015625,
          "value": -0.9375
        },
        {
          "ticks": 24199,
          "time": 63.018229166666664,
          "value": -0.92578125
        },
        {
          "ticks": 24200,
          "time": 63.020833333333336,
          "value": -0.9140625
        },
        {
          "ticks": 24201,
          "time": 63.0234375,
          "value": -0.90625
        },
        {
          "ticks": 24202,
          "time": 63.026041666666664,
          "value": -0.89453125
        },
        {
          "ticks": 24203,
          "time": 63.028645833333336,
          "value": -0.8828125
        },
        {
          "ticks": 24204,
          "time": 63.03125,
          "value": -0.875
        },
        {
          "ticks": 24205,
          "time": 63.033854166666664,
          "value": -0.86328125
        },
        {
          "ticks": 24206,
          "time": 63.036458333333336,
          "value": -0.8515625
        },
        {
          "ticks": 24207,
          "time": 63.0390625,
          "value": -0.84375
        },
        {
          "ticks": 24208,
          "time": 63.041666666666664,
          "value": -0.83203125
        },
        {
          "ticks": 24209,
          "time": 63.044270833333336,
          "value": -0.8203125
        },
        {
          "ticks": 24210,
          "time": 63.046875,
          "value": -0.8125
        },
        {
          "ticks": 24211,
          "time": 63.049479166666664,
          "value": -0.80078125
        },
        {
          "ticks": 24212,
          "time": 63.052083333333336,
          "value": -0.7890625
        },
        {
          "ticks": 24213,
          "time": 63.0546875,
          "value": -0.78125
        },
        {
          "ticks": 24214,
          "time": 63.057291666666664,
          "value": -0.76953125
        },
        {
          "ticks": 24215,
          "time": 63.059895833333336,
          "value": -0.7578125
        },
        {
          "ticks": 24216,
          "time": 63.0625,
          "value": -0.75
        },
        {
          "ticks": 24217,
          "time": 63.065104166666664,
          "value": -0.73828125
        },
        {
          "ticks": 24218,
          "time": 63.067708333333336,
          "value": -0.7265625
        },
        {
          "ticks": 24219,
          "time": 63.0703125,
          "value": -0.71875
        },
        {
          "ticks": 24220,
          "time": 63.072916666666664,
          "value": -0.70703125
        },
        {
          "ticks": 24221,
          "time": 63.075520833333336,
          "value": -0.6953125
        },
        {
          "ticks": 24222,
          "time": 63.078125,
          "value": -0.6875
        },
        {
          "ticks": 24223,
          "time": 63.080729166666664,
          "value": -0.67578125
        },
        {
          "ticks": 24224,
          "time": 63.083333333333336,
          "value": -0.66796875
        },
        {
          "ticks": 24225,
          "time": 63.0859375,
          "value": -0.65625
        },
        {
          "ticks": 24226,
          "time": 63.088541666666664,
          "value": -0.64453125
        },
        {
          "ticks": 24227,
          "time": 63.091145833333336,
          "value": -0.63671875
        },
        {
          "ticks": 24228,
          "time": 63.09375,
          "value": -0.625
        },
        {
          "ticks": 24229,
          "time": 63.096354166666664,
          "value": -0.61328125
        },
        {
          "ticks": 24230,
          "time": 63.098958333333336,
          "value": -0.60546875
        },
        {
          "ticks": 24231,
          "time": 63.1015625,
          "value": -0.59375
        },
        {
          "ticks": 24232,
          "time": 63.104166666666664,
          "value": -0.58203125
        },
        {
          "ticks": 24233,
          "time": 63.106770833333336,
          "value": -0.57421875
        },
        {
          "ticks": 24234,
          "time": 63.109375,
          "value": -0.5625
        },
        {
          "ticks": 24235,
          "time": 63.111979166666664,
          "value": -0.55078125
        },
        {
          "ticks": 24236,
          "time": 63.114583333333336,
          "value": -0.54296875
        },
        {
          "ticks": 24237,
          "time": 63.1171875,
          "value": -0.53125
        },
        {
          "ticks": 24238,
          "time": 63.119791666666664,
          "value": -0.51953125
        },
        {
          "ticks": 24239,
          "time": 63.122395833333336,
          "value": -0.51171875
        },
        {
          "ticks": 24240,
          "time": 63.125,
          "value": -0.5
        },
        {
          "ticks": 24241,
          "time": 63.127604166666664,
          "value": -0.48828125
        },
        {
          "ticks": 24242,
          "time": 63.130208333333336,
          "value": -0.48046875
        },
        {
          "ticks": 24243,
          "time": 63.1328125,
          "value": -0.46875
        },
        {
          "ticks": 24244,
          "time": 63.135416666666664,
          "value": -0.45703125
        },
        {
          "ticks": 24245,
          "time": 63.138020833333336,
          "value": -0.44921875
        },
        {
          "ticks": 24246,
          "time": 63.140625,
          "value": -0.4375
        },
        {
          "ticks": 24247,
          "time": 63.143229166666664,
          "value": -0.42578125
        },
        {
          "ticks": 24248,
          "time": 63.145833333333336,
          "value": -0.41796875
        },
        {
          "ticks": 24249,
          "time": 63.1484375,
          "value": -0.40625
        },
        {
          "ticks": 24250,
          "time": 63.151041666666664,
          "value": -0.39453125
        },
        {
          "ticks": 24251,
          "time": 63.153645833333336,
          "value": -0.38671875
        },
        {
          "ticks": 24252,
          "time": 63.15625,
          "value": -0.375
        },
        {
          "ticks": 24253,
          "time": 63.158854166666664,
          "value": -0.36328125
        },
        {
          "ticks": 24254,
          "time": 63.161458333333336,
          "value": -0.35546875
        },
        {
          "ticks": 24255,
          "time": 63.1640625,
          "value": -0.34375
        },
        {
          "ticks": 24256,
          "time": 63.166666666666664,
          "value": -0.3359375
        },
        {
          "ticks": 24257,
          "time": 63.169270833333336,
          "value": -0.32421875
        },
        {
          "ticks": 24258,
          "time": 63.171875,
          "value": -0.3125
        },
        {
          "ticks": 24259,
          "time": 63.174479166666664,
          "value": -0.3046875
        },
        {
          "ticks": 24260,
          "time": 63.177083333333336,
          "value": -0.29296875
        },
        {
          "ticks": 24261,
          "time": 63.1796875,
          "value": -0.28125
        },
        {
          "ticks": 24262,
          "time": 63.182291666666664,
          "value": -0.2734375
        },
        {
          "ticks": 24263,
          "time": 63.184895833333336,
          "value": -0.26171875
        },
        {
          "ticks": 24264,
          "time": 63.1875,
          "value": -0.25
        },
        {
          "ticks": 24265,
          "time": 63.190104166666664,
          "value": -0.2421875
        },
        {
          "ticks": 24266,
          "time": 63.192708333333336,
          "value": -0.23046875
        },
        {
          "ticks": 24267,
          "time": 63.1953125,
          "value": -0.21875
        },
        {
          "ticks": 24268,
          "time": 63.197916666666664,
          "value": -0.2109375
        },
        {
          "ticks": 24269,
          "time": 63.200520833333336,
          "value": -0.19921875
        },
        {
          "ticks": 24270,
          "time": 63.203125,
          "value": -0.1875
        },
        {
          "ticks": 24271,
          "time": 63.205729166666664,
          "value": -0.1796875
        },
        {
          "ticks": 24272,
          "time": 63.208333333333336,
          "value": -0.16796875
        },
        {
          "ticks": 24273,
          "time": 63.2109375,
          "value": -0.15625
        },
        {
          "ticks": 24274,
          "time": 63.213541666666664,
          "value": -0.1484375
        },
        {
          "ticks": 24275,
          "time": 63.216145833333336,
          "value": -0.13671875
        },
        {
          "ticks": 24276,
          "time": 63.21875,
          "value": -0.125
        },
        {
          "ticks": 24277,
          "time": 63.221354166666664,
          "value": -0.1171875
        },
        {
          "ticks": 24278,
          "time": 63.223958333333336,
          "value": -0.10546875
        },
        {
          "ticks": 24279,
          "time": 63.2265625,
          "value": -0.09375
        },
        {
          "ticks": 24280,
          "time": 63.229166666666664,
          "value": -0.0859375
        },
        {
          "ticks": 24281,
          "time": 63.231770833333336,
          "value": -0.07421875
        },
        {
          "ticks": 24282,
          "time": 63.234375,
          "value": -0.0625
        },
        {
          "ticks": 24283,
          "time": 63.236979166666664,
          "value": -0.0546875
        },
        {
          "ticks": 24284,
          "time": 63.239583333333336,
          "value": -0.04296875
        },
        {
          "ticks": 24285,
          "time": 63.2421875,
          "value": -0.03125
        },
        {
          "ticks": 24286,
          "time": 63.244791666666664,
          "value": -0.0234375
        },
        {
          "ticks": 24287,
          "time": 63.247395833333336,
          "value": -0.01171875
        },
        {
          "ticks": 24288,
          "time": 63.25,
          "value": -0.0001220703125
        },
        {
          "ticks": 27216,
          "time": 70.875,
          "value": 0.9998779296875
        },
        {
          "ticks": 27458,
          "time": 71.50520833333333,
          "value": 0.984130859375
        },
        {
          "ticks": 27460,
          "time": 71.51041666666667,
          "value": 0.9683837890625
        },
        {
          "ticks": 27461,
          "time": 71.51302083333333,
          "value": 0.95263671875
        },
        {
          "ticks": 27463,
          "time": 71.51822916666667,
          "value": 0.9368896484375
        },
        {
          "ticks": 27464,
          "time": 71.52083333333333,
          "value": 0.921142578125
        },
        {
          "ticks": 27466,
          "time": 71.52604166666667,
          "value": 0.9053955078125
        },
        {
          "ticks": 27467,
          "time": 71.52864583333333,
          "value": 0.8896484375
        },
        {
          "ticks": 27469,
          "time": 71.53385416666667,
          "value": 0.8739013671875
        },
        {
          "ticks": 27470,
          "time": 71.53645833333333,
          "value": 0.858154296875
        },
        {
          "ticks": 27472,
          "time": 71.54166666666667,
          "value": 0.8424072265625
        },
        {
          "ticks": 27473,
          "time": 71.54427083333333,
          "value": 0.82666015625
        },
        {
          "ticks": 27475,
          "time": 71.54947916666667,
          "value": 0.8109130859375
        },
        {
          "ticks": 27476,
          "time": 71.55208333333333,
          "value": 0.795166015625
        },
        {
          "ticks": 27478,
          "time": 71.55729166666667,
          "value": 0.7794189453125
        },
        {
          "ticks": 27479,
          "time": 71.55989583333333,
          "value": 0.763671875
        },
        {
          "ticks": 27481,
          "time": 71.56510416666667,
          "value": 0.7479248046875
        },
        {
          "ticks": 27482,
          "time": 71.56770833333333,
          "value": 0.732177734375
        },
        {
          "ticks": 27484,
          "time": 71.57291666666667,
          "value": 0.7164306640625
        },
        {
          "ticks": 27485,
          "time": 71.57552083333333,
          "value": 0.70068359375
        },
        {
          "ticks": 27487,
          "time": 71.58072916666667,
          "value": 0.6849365234375
        },
        {
          "ticks": 27488,
          "time": 71.58333333333333,
          "value": 0.669189453125
        },
        {
          "ticks": 27490,
          "time": 71.58854166666667,
          "value": 0.6534423828125
        },
        {
          "ticks": 27491,
          "time": 71.59114583333333,
          "value": 0.6376953125
        },
        {
          "ticks": 27493,
          "time": 71.59635416666667,
          "value": 0.6219482421875
        },
        {
          "ticks": 27494,
          "time": 71.59895833333333,
          "value": 0.606201171875
        },
        {
          "ticks": 27496,
          "time": 71.60416666666667,
          "value": 0.5904541015625
        },
        {
          "ticks": 27497,
          "time": 71.60677083333333,
          "value": 0.57470703125
        },
        {
          "ticks": 27499,
          "time": 71.61197916666667,
          "value": 0.5589599609375
        },
        {
          "ticks": 27500,
          "time": 71.61458333333333,
          "value": 0.543212890625
        },
        {
          "ticks": 27502,
          "time": 71.61979166666667,
          "value": 0.5274658203125
        },
        {
          "ticks": 27503,
          "time": 71.62239583333333,
          "value": 0.51171875
        },
        {
          "ticks": 27505,
          "time": 71.62760416666667,
          "value": 0.4959716796875
        },
        {
          "ticks": 27506,
          "time": 71.63020833333333,
          "value": 0.480224609375
        },
        {
          "ticks": 27508,
          "time": 71.63541666666667,
          "value": 0.4644775390625
        },
        {
          "ticks": 27509,
          "time": 71.63802083333333,
          "value": 0.44873046875
        },
        {
          "ticks": 27511,
          "time": 71.64322916666667,
          "value": 0.4329833984375
        },
        {
          "ticks": 27512,
          "time": 71.64583333333333,
          "value": 0.417236328125
        },
        {
          "ticks": 27514,
          "time": 71.65104166666667,
          "value": 0.4014892578125
        },
        {
          "ticks": 27515,
          "time": 71.65364583333333,
          "value": 0.3857421875
        },
        {
          "ticks": 27517,
          "time": 71.65885416666667,
          "value": 0.3699951171875
        },
        {
          "ticks": 27518,
          "time": 71.66145833333333,
          "value": 0.354248046875
        },
        {
          "ticks": 27520,
          "time": 71.66666666666667,
          "value": 0.3385009765625
        },
        {
          "ticks": 27522,
          "time": 71.671875,
          "value": 0.32275390625
        },
        {
          "ticks": 27523,
          "time": 71.67447916666667,
          "value": 0.3070068359375
        },
        {
          "ticks": 27525,
          "time": 71.6796875,
          "value": 0.291259765625
        },
        {
          "ticks": 27526,
          "time": 71.68229166666667,
          "value": 0.2755126953125
        },
        {
          "ticks": 27528,
          "time": 71.6875,
          "value": 0.259765625
        },
        {
          "ticks": 27529,
          "time": 71.69010416666667,
          "value": 0.2440185546875
        },
        {
          "ticks": 27531,
          "time": 71.6953125,
          "value": 0.228271484375
        },
        {
          "ticks": 27532,
          "time": 71.69791666666667,
          "value": 0.2125244140625
        },
        {
          "ticks": 27534,
          "time": 71.703125,
          "value": 0.19677734375
        },
        {
          "ticks": 27535,
          "time": 71.70572916666667,
          "value": 0.1810302734375
        },
        {
          "ticks": 27537,
          "time": 71.7109375,
          "value": 0.165283203125
        },
        {
          "ticks": 27538,
          "time": 71.71354166666667,
          "value": 0.1495361328125
        },
        {
          "ticks": 27540,
          "time": 71.71875,
          "value": 0.1337890625
        },
        {
          "ticks": 27541,
          "time": 71.72135416666667,
          "value": 0.1180419921875
        },
        {
          "ticks": 27543,
          "time": 71.7265625,
          "value": 0.102294921875
        },
        {
          "ticks": 27544,
          "time": 71.72916666666667,
          "value": 0.0865478515625
        },
        {
          "ticks": 27546,
          "time": 71.734375,
          "value": 0.07080078125
        },
        {
          "ticks": 27547,
          "time": 71.73697916666667,
          "value": 0.0550537109375
        },
        {
          "ticks": 27549,
          "time": 71.7421875,
          "value": 0.039306640625
        },
        {
          "ticks": 27550,
          "time": 71.74479166666667,
          "value": 0.0235595703125
        },
        {
          "ticks": 27552,
          "time": 71.75,
          "value": 0.0078125
        },
        {
          "ticks": 27553,
          "time": 71.75260416666667,
          "value": -0.0079345703125
        },
        {
          "ticks": 27555,
          "time": 71.7578125,
          "value": -0.023681640625
        },
        {
          "ticks": 27556,
          "time": 71.76041666666667,
          "value": -0.0394287109375
        },
        {
          "ticks": 27558,
          "time": 71.765625,
          "value": -0.05517578125
        },
        {
          "ticks": 27559,
          "time": 71.76822916666667,
          "value": -0.0709228515625
        },
        {
          "ticks": 27561,
          "time": 71.7734375,
          "value": -0.086669921875
        },
        {
          "ticks": 27562,
          "time": 71.77604166666667,
          "value": -0.1024169921875
        },
        {
          "ticks": 27564,
          "time": 71.78125,
          "value": -0.1181640625
        },
        {
          "ticks": 27565,
          "time": 71.78385416666667,
          "value": -0.1339111328125
        },
        {
          "ticks": 27567,
          "time": 71.7890625,
          "value": -0.149658203125
        },
        {
          "ticks": 27568,
          "time": 71.79166666666667,
          "value": -0.1654052734375
        },
        {
          "ticks": 27570,
          "time": 71.796875,
          "value": -0.18115234375
        },
        {
          "ticks": 27571,
          "time": 71.79947916666667,
          "value": -0.1968994140625
        },
        {
          "ticks": 27573,
          "time": 71.8046875,
          "value": -0.212646484375
        },
        {
          "ticks": 27574,
          "time": 71.80729166666667,
          "value": -0.2283935546875
        },
        {
          "ticks": 27576,
          "time": 71.8125,
          "value": -0.244140625
        },
        {
          "ticks": 27577,
          "time": 71.81510416666667,
          "value": -0.2598876953125
        },
        {
          "ticks": 27579,
          "time": 71.8203125,
          "value": -0.275634765625
        },
        {
          "ticks": 27580,
          "time": 71.82291666666667,
          "value": -0.2913818359375
        },
        {
          "ticks": 27582,
          "time": 71.828125,
          "value": -0.30712890625
        },
        {
          "ticks": 27583,
          "time": 71.83072916666667,
          "value": -0.3228759765625
        },
        {
          "ticks": 27585,
          "time": 71.8359375,
          "value": -0.338623046875
        },
        {
          "ticks": 27587,
          "time": 71.84114583333333,
          "value": -0.3543701171875
        },
        {
          "ticks": 27588,
          "time": 71.84375,
          "value": -0.3701171875
        },
        {
          "ticks": 27590,
          "time": 71.84895833333333,
          "value": -0.3858642578125
        },
        {
          "ticks": 27591,
          "time": 71.8515625,
          "value": -0.401611328125
        },
        {
          "ticks": 27593,
          "time": 71.85677083333333,
          "value": -0.4173583984375
        },
        {
          "ticks": 27594,
          "time": 71.859375,
          "value": -0.43310546875
        },
        {
          "ticks": 27596,
          "time": 71.86458333333333,
          "value": -0.4488525390625
        },
        {
          "ticks": 27597,
          "time": 71.8671875,
          "value": -0.464599609375
        },
        {
          "ticks": 27599,
          "time": 71.87239583333333,
          "value": -0.4803466796875
        },
        {
          "ticks": 27600,
          "time": 71.875,
          "value": -0.49609375
        },
        {
          "ticks": 27602,
          "time": 71.88020833333333,
          "value": -0.5118408203125
        },
        {
          "ticks": 27603,
          "time": 71.8828125,
          "value": -0.527587890625
        },
        {
          "ticks": 27605,
          "time": 71.88802083333333,
          "value": -0.5433349609375
        },
        {
          "ticks": 27606,
          "time": 71.890625,
          "value": -0.55908203125
        },
        {
          "ticks": 27608,
          "time": 71.89583333333333,
          "value": -0.5748291015625
        },
        {
          "ticks": 27609,
          "time": 71.8984375,
          "value": -0.590576171875
        },
        {
          "ticks": 27611,
          "time": 71.90364583333333,
          "value": -0.6063232421875
        },
        {
          "ticks": 27612,
          "time": 71.90625,
          "value": -0.6220703125
        },
        {
          "ticks": 27614,
          "time": 71.91145833333333,
          "value": -0.6378173828125
        },
        {
          "ticks": 27615,
          "time": 71.9140625,
          "value": -0.653564453125
        },
        {
          "ticks": 27617,
          "time": 71.91927083333333,
          "value": -0.6693115234375
        },
        {
          "ticks": 27618,
          "time": 71.921875,
          "value": -0.68505859375
        },
        {
          "ticks": 27620,
          "time": 71.92708333333333,
          "value": -0.7008056640625
        },
        {
          "ticks": 27621,
          "time": 71.9296875,
          "value": -0.716552734375
        },
        {
          "ticks": 27623,
          "time": 71.93489583333333,
          "value": -0.7322998046875
        },
        {
          "ticks": 27624,
          "time": 71.9375,
          "value": -0.748046875
        },
        {
          "ticks": 27626,
          "time": 71.94270833333333,
          "value": -0.7637939453125
        },
        {
          "ticks": 27627,
          "time": 71.9453125,
          "value": -0.779541015625
        },
        {
          "ticks": 27629,
          "time": 71.95052083333333,
          "value": -0.7952880859375
        },
        {
          "ticks": 27630,
          "time": 71.953125,
          "value": -0.81103515625
        },
        {
          "ticks": 27632,
          "time": 71.95833333333333,
          "value": -0.8267822265625
        },
        {
          "ticks": 27633,
          "time": 71.9609375,
          "value": -0.842529296875
        },
        {
          "ticks": 27635,
          "time": 71.96614583333333,
          "value": -0.8582763671875
        },
        {
          "ticks": 27636,
          "time": 71.96875,
          "value": -0.8740234375
        },
        {
          "ticks": 27638,
          "time": 71.97395833333333,
          "value": -0.8897705078125
        },
        {
          "ticks": 27639,
          "time": 71.9765625,
          "value": -0.905517578125
        },
        {
          "ticks": 27641,
          "time": 71.98177083333333,
          "value": -0.9212646484375
        },
        {
          "ticks": 27642,
          "time": 71.984375,
          "value": -0.93701171875
        },
        {
          "ticks": 27644,
          "time": 71.98958333333333,
          "value": -0.9527587890625
        },
        {
          "ticks": 27645,
          "time": 71.9921875,
          "value": -0.968505859375
        },
        {
          "ticks": 27647,
          "time": 71.99739583333333,
          "value": -0.9842529296875
        },
        {
          "ticks": 27648,
          "time": 72,
          "value": 0
        },
        {
          "ticks": 29952,
          "time": 78,
          "value": -1
        },
        {
          "ticks": 30336,
          "time": 79,
          "value": -1
        },
        {
          "ticks": 30337,
          "time": 79.00260416666667,
          "value": -0.98828125
        },
        {
          "ticks": 30338,
          "time": 79.00520833333333,
          "value": -0.9765625
        },
        {
          "ticks": 30339,
          "time": 79.0078125,
          "value": -0.96875
        },
        {
          "ticks": 30340,
          "time": 79.01041666666667,
          "value": -0.95703125
        },
        {
          "ticks": 30341,
          "time": 79.01302083333333,
          "value": -0.9453125
        },
        {
          "ticks": 30342,
          "time": 79.015625,
          "value": -0.9375
        },
        {
          "ticks": 30343,
          "time": 79.01822916666667,
          "value": -0.92578125
        },
        {
          "ticks": 30344,
          "time": 79.02083333333333,
          "value": -0.9140625
        },
        {
          "ticks": 30345,
          "time": 79.0234375,
          "value": -0.90625
        },
        {
          "ticks": 30346,
          "time": 79.02604166666667,
          "value": -0.89453125
        },
        {
          "ticks": 30347,
          "time": 79.02864583333333,
          "value": -0.8828125
        },
        {
          "ticks": 30348,
          "time": 79.03125,
          "value": -0.875
        },
        {
          "ticks": 30349,
          "time": 79.03385416666667,
          "value": -0.86328125
        },
        {
          "ticks": 30350,
          "time": 79.03645833333333,
          "value": -0.8515625
        },
        {
          "ticks": 30351,
          "time": 79.0390625,
          "value": -0.84375
        },
        {
          "ticks": 30352,
          "time": 79.04166666666667,
          "value": -0.83203125
        },
        {
          "ticks": 30353,
          "time": 79.04427083333333,
          "value": -0.8203125
        },
        {
          "ticks": 30354,
          "time": 79.046875,
          "value": -0.8125
        },
        {
          "ticks": 30355,
          "time": 79.04947916666667,
          "value": -0.80078125
        },
        {
          "ticks": 30356,
          "time": 79.05208333333333,
          "value": -0.7890625
        },
        {
          "ticks": 30357,
          "time": 79.0546875,
          "value": -0.78125
        },
        {
          "ticks": 30358,
          "time": 79.05729166666667,
          "value": -0.76953125
        },
        {
          "ticks": 30359,
          "time": 79.05989583333333,
          "value": -0.7578125
        },
        {
          "ticks": 30360,
          "time": 79.0625,
          "value": -0.75
        },
        {
          "ticks": 30361,
          "time": 79.06510416666667,
          "value": -0.73828125
        },
        {
          "ticks": 30362,
          "time": 79.06770833333333,
          "value": -0.7265625
        },
        {
          "ticks": 30363,
          "time": 79.0703125,
          "value": -0.71875
        },
        {
          "ticks": 30364,
          "time": 79.07291666666667,
          "value": -0.70703125
        },
        {
          "ticks": 30365,
          "time": 79.07552083333333,
          "value": -0.6953125
        },
        {
          "ticks": 30366,
          "time": 79.078125,
          "value": -0.6875
        },
        {
          "ticks": 30367,
          "time": 79.08072916666667,
          "value": -0.67578125
        },
        {
          "ticks": 30368,
          "time": 79.08333333333333,
          "value": -0.66796875
        },
        {
          "ticks": 30369,
          "time": 79.0859375,
          "value": -0.65625
        },
        {
          "ticks": 30370,
          "time": 79.08854166666667,
          "value": -0.64453125
        },
        {
          "ticks": 30371,
          "time": 79.09114583333333,
          "value": -0.63671875
        },
        {
          "ticks": 30372,
          "time": 79.09375,
          "value": -0.625
        },
        {
          "ticks": 30373,
          "time": 79.09635416666667,
          "value": -0.61328125
        },
        {
          "ticks": 30374,
          "time": 79.09895833333333,
          "value": -0.60546875
        },
        {
          "ticks": 30375,
          "time": 79.1015625,
          "value": -0.59375
        },
        {
          "ticks": 30376,
          "time": 79.10416666666667,
          "value": -0.58203125
        },
        {
          "ticks": 30377,
          "time": 79.10677083333333,
          "value": -0.57421875
        },
        {
          "ticks": 30378,
          "time": 79.109375,
          "value": -0.5625
        },
        {
          "ticks": 30379,
          "time": 79.11197916666667,
          "value": -0.55078125
        },
        {
          "ticks": 30380,
          "time": 79.11458333333333,
          "value": -0.54296875
        },
        {
          "ticks": 30381,
          "time": 79.1171875,
          "value": -0.53125
        },
        {
          "ticks": 30382,
          "time": 79.11979166666667,
          "value": -0.51953125
        },
        {
          "ticks": 30383,
          "time": 79.12239583333333,
          "value": -0.51171875
        },
        {
          "ticks": 30384,
          "time": 79.125,
          "value": -0.5
        },
        {
          "ticks": 30385,
          "time": 79.12760416666667,
          "value": -0.48828125
        },
        {
          "ticks": 30386,
          "time": 79.13020833333333,
          "value": -0.48046875
        },
        {
          "ticks": 30387,
          "time": 79.1328125,
          "value": -0.46875
        },
        {
          "ticks": 30388,
          "time": 79.13541666666667,
          "value": -0.45703125
        },
        {
          "ticks": 30389,
          "time": 79.13802083333333,
          "value": -0.44921875
        },
        {
          "ticks": 30390,
          "time": 79.140625,
          "value": -0.4375
        },
        {
          "ticks": 30391,
          "time": 79.14322916666667,
          "value": -0.42578125
        },
        {
          "ticks": 30392,
          "time": 79.14583333333333,
          "value": -0.41796875
        },
        {
          "ticks": 30393,
          "time": 79.1484375,
          "value": -0.40625
        },
        {
          "ticks": 30394,
          "time": 79.15104166666667,
          "value": -0.39453125
        },
        {
          "ticks": 30395,
          "time": 79.15364583333333,
          "value": -0.38671875
        },
        {
          "ticks": 30396,
          "time": 79.15625,
          "value": -0.375
        },
        {
          "ticks": 30397,
          "time": 79.15885416666667,
          "value": -0.36328125
        },
        {
          "ticks": 30398,
          "time": 79.16145833333333,
          "value": -0.35546875
        },
        {
          "ticks": 30399,
          "time": 79.1640625,
          "value": -0.34375
        },
        {
          "ticks": 30400,
          "time": 79.16666666666667,
          "value": -0.3359375
        },
        {
          "ticks": 30401,
          "time": 79.16927083333333,
          "value": -0.32421875
        },
        {
          "ticks": 30402,
          "time": 79.171875,
          "value": -0.3125
        },
        {
          "ticks": 30403,
          "time": 79.17447916666667,
          "value": -0.3046875
        },
        {
          "ticks": 30404,
          "time": 79.17708333333333,
          "value": -0.29296875
        },
        {
          "ticks": 30405,
          "time": 79.1796875,
          "value": -0.28125
        },
        {
          "ticks": 30406,
          "time": 79.18229166666667,
          "value": -0.2734375
        },
        {
          "ticks": 30407,
          "time": 79.18489583333333,
          "value": -0.26171875
        },
        {
          "ticks": 30408,
          "time": 79.1875,
          "value": -0.25
        },
        {
          "ticks": 30409,
          "time": 79.19010416666667,
          "value": -0.2421875
        },
        {
          "ticks": 30410,
          "time": 79.19270833333333,
          "value": -0.23046875
        },
        {
          "ticks": 30411,
          "time": 79.1953125,
          "value": -0.21875
        },
        {
          "ticks": 30412,
          "time": 79.19791666666667,
          "value": -0.2109375
        },
        {
          "ticks": 30413,
          "time": 79.20052083333333,
          "value": -0.19921875
        },
        {
          "ticks": 30414,
          "time": 79.203125,
          "value": -0.1875
        },
        {
          "ticks": 30415,
          "time": 79.20572916666667,
          "value": -0.1796875
        },
        {
          "ticks": 30416,
          "time": 79.20833333333333,
          "value": -0.16796875
        },
        {
          "ticks": 30417,
          "time": 79.2109375,
          "value": -0.15625
        },
        {
          "ticks": 30418,
          "time": 79.21354166666667,
          "value": -0.1484375
        },
        {
          "ticks": 30419,
          "time": 79.21614583333333,
          "value": -0.13671875
        },
        {
          "ticks": 30420,
          "time": 79.21875,
          "value": -0.125
        },
        {
          "ticks": 30421,
          "time": 79.22135416666667,
          "value": -0.1171875
        },
        {
          "ticks": 30422,
          "time": 79.22395833333333,
          "value": -0.10546875
        },
        {
          "ticks": 30423,
          "time": 79.2265625,
          "value": -0.09375
        },
        {
          "ticks": 30424,
          "time": 79.22916666666667,
          "value": -0.0859375
        },
        {
          "ticks": 30425,
          "time": 79.23177083333333,
          "value": -0.07421875
        },
        {
          "ticks": 30426,
          "time": 79.234375,
          "value": -0.0625
        },
        {
          "ticks": 30427,
          "time": 79.23697916666667,
          "value": -0.0546875
        },
        {
          "ticks": 30428,
          "time": 79.23958333333333,
          "value": -0.04296875
        },
        {
          "ticks": 30429,
          "time": 79.2421875,
          "value": -0.03125
        },
        {
          "ticks": 30430,
          "time": 79.24479166666667,
          "value": -0.0234375
        },
        {
          "ticks": 30431,
          "time": 79.24739583333333,
          "value": -0.01171875
        },
        {
          "ticks": 30432,
          "time": 79.25,
          "value": -0.0001220703125
        },
        {
          "ticks": 59904,
          "time": 156,
          "value": -0.0001220703125
        }
      ],
      "instrument": {
        "family": "brass",
        "number": 62,
        "name": "synthbrass 1"
      },
      "name": "",
      "notes": [
        {
          "duration": 0.0625,
          "durationTicks": 24,
          "midi": 77,
          "name": "F5",
          "ticks": 18816,
          "time": 49,
          "velocity": 1
        },
        {
          "duration": 0.0625,
          "durationTicks": 24,
          "midi": 65,
          "name": "F4",
          "ticks": 18816,
          "time": 49,
          "velocity": 1
        },
        {
          "duration": 0.0625,
          "durationTicks": 24,
          "midi": 74,
          "name": "D5",
          "ticks": 18816,
          "time": 49,
          "velocity": 0.8661417322834646
        },
        {
          "duration": 0.0625,
          "durationTicks": 24,
          "midi": 74,
          "name": "D5",
          "ticks": 18864,
          "time": 49.125,
          "velocity": 1
        },
        {
          "duration": 0.0625,
          "durationTicks": 24,
          "midi": 62,
          "name": "D4",
          "ticks": 18864,
          "time": 49.125,
          "velocity": 1
        },
        {
          "duration": 0.0625,
          "durationTicks": 24,
          "midi": 70,
          "name": "A#4",
          "ticks": 18864,
          "time": 49.125,
          "velocity": 0.8661417322834646
        },
        {
          "duration": 0.0625,
          "durationTicks": 24,
          "midi": 77,
          "name": "F5",
          "ticks": 18912,
          "time": 49.25,
          "velocity": 1
        },
        {
          "duration": 0.0625,
          "durationTicks": 24,
          "midi": 65,
          "name": "F4",
          "ticks": 18912,
          "time": 49.25,
          "velocity": 1
        },
        {
          "duration": 0.0625,
          "durationTicks": 24,
          "midi": 74,
          "name": "D5",
          "ticks": 18912,
          "time": 49.25,
          "velocity": 0.8661417322834646
        },
        {
          "duration": 0.0625,
          "durationTicks": 24,
          "midi": 79,
          "name": "G5",
          "ticks": 18960,
          "time": 49.375,
          "velocity": 1
        },
        {
          "duration": 0.0625,
          "durationTicks": 24,
          "midi": 67,
          "name": "G4",
          "ticks": 18960,
          "time": 49.375,
          "velocity": 1
        },
        {
          "duration": 0.0625,
          "durationTicks": 24,
          "midi": 76,
          "name": "E5",
          "ticks": 18960,
          "time": 49.375,
          "velocity": 0.8661417322834646
        },
        {
          "duration": 0.0625,
          "durationTicks": 24,
          "midi": 80,
          "name": "G#5",
          "ticks": 19008,
          "time": 49.5,
          "velocity": 1
        },
        {
          "duration": 0.0625,
          "durationTicks": 24,
          "midi": 68,
          "name": "G#4",
          "ticks": 19008,
          "time": 49.5,
          "velocity": 1
        },
        {
          "duration": 0.0625,
          "durationTicks": 24,
          "midi": 77,
          "name": "F5",
          "ticks": 19008,
          "time": 49.5,
          "velocity": 0.8661417322834646
        },
        {
          "duration": 0.0625,
          "durationTicks": 24,
          "midi": 79,
          "name": "G5",
          "ticks": 19056,
          "time": 49.625,
          "velocity": 1
        },
        {
          "duration": 0.0625,
          "durationTicks": 24,
          "midi": 67,
          "name": "G4",
          "ticks": 19056,
          "time": 49.625,
          "velocity": 1
        },
        {
          "duration": 0.0625,
          "durationTicks": 24,
          "midi": 76,
          "name": "E5",
          "ticks": 19056,
          "time": 49.625,
          "velocity": 0.8661417322834646
        },
        {
          "duration": 0.0625,
          "durationTicks": 24,
          "midi": 77,
          "name": "F5",
          "ticks": 19104,
          "time": 49.75,
          "velocity": 1
        },
        {
          "duration": 0.0625,
          "durationTicks": 24,
          "midi": 65,
          "name": "F4",
          "ticks": 19104,
          "time": 49.75,
          "velocity": 1
        },
        {
          "duration": 0.0625,
          "durationTicks": 24,
          "midi": 74,
          "name": "D5",
          "ticks": 19104,
          "time": 49.75,
          "velocity": 0.8661417322834646
        },
        {
          "duration": 0.0625,
          "durationTicks": 24,
          "midi": 74,
          "name": "D5",
          "ticks": 19152,
          "time": 49.875,
          "velocity": 1
        },
        {
          "duration": 0.0625,
          "durationTicks": 24,
          "midi": 62,
          "name": "D4",
          "ticks": 19152,
          "time": 49.875,
          "velocity": 1
        },
        {
          "duration": 0.0625,
          "durationTicks": 24,
          "midi": 70,
          "name": "A#4",
          "ticks": 19152,
          "time": 49.875,
          "velocity": 0.8661417322834646
        },
        {
          "duration": 0.0625,
          "durationTicks": 24,
          "midi": 80,
          "name": "G#5",
          "ticks": 19200,
          "time": 50,
          "velocity": 1
        },
        {
          "duration": 0.0625,
          "durationTicks": 24,
          "midi": 68,
          "name": "G#4",
          "ticks": 19200,
          "time": 50,
          "velocity": 1
        },
        {
          "duration": 0.0625,
          "durationTicks": 24,
          "midi": 77,
          "name": "F5",
          "ticks": 19200,
          "time": 50,
          "velocity": 0.8661417322834646
        },
        {
          "duration": 0.0625,
          "durationTicks": 24,
          "midi": 79,
          "name": "G5",
          "ticks": 19224,
          "time": 50.0625,
          "velocity": 1
        },
        {
          "duration": 0.0625,
          "durationTicks": 24,
          "midi": 67,
          "name": "G4",
          "ticks": 19224,
          "time": 50.0625,
          "velocity": 1
        },
        {
          "duration": 0.0625,
          "durationTicks": 24,
          "midi": 76,
          "name": "E5",
          "ticks": 19224,
          "time": 50.0625,
          "velocity": 0.8661417322834646
        },
        {
          "duration": 0.0625,
          "durationTicks": 24,
          "midi": 77,
          "name": "F5",
          "ticks": 19248,
          "time": 50.125,
          "velocity": 1
        },
        {
          "duration": 0.0625,
          "durationTicks": 24,
          "midi": 65,
          "name": "F4",
          "ticks": 19248,
          "time": 50.125,
          "velocity": 1
        },
        {
          "duration": 0.0625,
          "durationTicks": 24,
          "midi": 74,
          "name": "D5",
          "ticks": 19248,
          "time": 50.125,
          "velocity": 0.8661417322834646
        },
        {
          "duration": 0.0625,
          "durationTicks": 24,
          "midi": 74,
          "name": "D5",
          "ticks": 19272,
          "time": 50.1875,
          "velocity": 1
        },
        {
          "duration": 0.0625,
          "durationTicks": 24,
          "midi": 62,
          "name": "D4",
          "ticks": 19272,
          "time": 50.1875,
          "velocity": 1
        },
        {
          "duration": 0.0625,
          "durationTicks": 24,
          "midi": 70,
          "name": "A#4",
          "ticks": 19272,
          "time": 50.1875,
          "velocity": 0.8661417322834646
        },
        {
          "duration": 0.25,
          "durationTicks": 96,
          "midi": 77,
          "name": "F5",
          "ticks": 19296,
          "time": 50.25,
          "velocity": 1
        },
        {
          "duration": 0.25,
          "durationTicks": 96,
          "midi": 65,
          "name": "F4",
          "ticks": 19296,
          "time": 50.25,
          "velocity": 1
        },
        {
          "duration": 0.25,
          "durationTicks": 96,
          "midi": 74,
          "name": "D5",
          "ticks": 19296,
          "time": 50.25,
          "velocity": 0.8661417322834646
        },
        {
          "duration": 1,
          "durationTicks": 384,
          "midi": 79,
          "name": "G5",
          "ticks": 19392,
          "time": 50.5,
          "velocity": 1
        },
        {
          "duration": 1,
          "durationTicks": 384,
          "midi": 67,
          "name": "G4",
          "ticks": 19392,
          "time": 50.5,
          "velocity": 1
        },
        {
          "duration": 1,
          "durationTicks": 384,
          "midi": 76,
          "name": "E5",
          "ticks": 19392,
          "time": 50.5,
          "velocity": 0.8661417322834646
        },
        {
          "duration": 0.25,
          "durationTicks": 96,
          "midi": 80,
          "name": "G#5",
          "ticks": 19824,
          "time": 51.625,
          "velocity": 1
        },
        {
          "duration": 0.25,
          "durationTicks": 96,
          "midi": 68,
          "name": "G#4",
          "ticks": 19824,
          "time": 51.625,
          "velocity": 1
        },
        {
          "duration": 0.125,
          "durationTicks": 48,
          "midi": 81,
          "name": "A5",
          "ticks": 19920,
          "time": 51.875,
          "velocity": 1
        },
        {
          "duration": 0.125,
          "durationTicks": 48,
          "midi": 69,
          "name": "A4",
          "ticks": 19920,
          "time": 51.875,
          "velocity": 1
        },
        {
          "duration": 0.0625,
          "durationTicks": 24,
          "midi": 84,
          "name": "C6",
          "ticks": 19968,
          "time": 52,
          "velocity": 1
        },
        {
          "duration": 0.0625,
          "durationTicks": 24,
          "midi": 72,
          "name": "C5",
          "ticks": 19968,
          "time": 52,
          "velocity": 1
        },
        {
          "duration": 0.0625,
          "durationTicks": 24,
          "midi": 81,
          "name": "A5",
          "ticks": 20064,
          "time": 52.25,
          "velocity": 1
        },
        {
          "duration": 0.0625,
          "durationTicks": 24,
          "midi": 69,
          "name": "A4",
          "ticks": 20064,
          "time": 52.25,
          "velocity": 1
        },
        {
          "duration": 0.0625,
          "durationTicks": 24,
          "midi": 80,
          "name": "G#5",
          "ticks": 20112,
          "time": 52.375,
          "velocity": 1
        },
        {
          "duration": 0.0625,
          "durationTicks": 24,
          "midi": 68,
          "name": "G#4",
          "ticks": 20112,
          "time": 52.375,
          "velocity": 1
        },
        {
          "duration": 0.0625,
          "durationTicks": 24,
          "midi": 79,
          "name": "G5",
          "ticks": 20160,
          "time": 52.5,
          "velocity": 1
        },
        {
          "duration": 0.0625,
          "durationTicks": 24,
          "midi": 67,
          "name": "G4",
          "ticks": 20160,
          "time": 52.5,
          "velocity": 1
        },
        {
          "duration": 0.0625,
          "durationTicks": 24,
          "midi": 77,
          "name": "F5",
          "ticks": 20208,
          "time": 52.625,
          "velocity": 1
        },
        {
          "duration": 0.0625,
          "durationTicks": 24,
          "midi": 65,
          "name": "F4",
          "ticks": 20208,
          "time": 52.625,
          "velocity": 1
        },
        {
          "duration": 0.0625,
          "durationTicks": 24,
          "midi": 74,
          "name": "D5",
          "ticks": 20256,
          "time": 52.75,
          "velocity": 1
        },
        {
          "duration": 0.0625,
          "durationTicks": 24,
          "midi": 62,
          "name": "D4",
          "ticks": 20256,
          "time": 52.75,
          "velocity": 1
        },
        {
          "duration": 0.0625,
          "durationTicks": 24,
          "midi": 76,
          "name": "E5",
          "ticks": 20304,
          "time": 52.875,
          "velocity": 1
        },
        {
          "duration": 0.0625,
          "durationTicks": 24,
          "midi": 64,
          "name": "E4",
          "ticks": 20304,
          "time": 52.875,
          "velocity": 1
        },
        {
          "duration": 0.25,
          "durationTicks": 96,
          "midi": 77,
          "name": "F5",
          "ticks": 20352,
          "time": 53,
          "velocity": 1
        },
        {
          "duration": 0.25,
          "durationTicks": 96,
          "midi": 65,
          "name": "F4",
          "ticks": 20352,
          "time": 53,
          "velocity": 1
        },
        {
          "duration": 0.25,
          "durationTicks": 96,
          "midi": 79,
          "name": "G5",
          "ticks": 20448,
          "time": 53.25,
          "velocity": 1
        },
        {
          "duration": 0.25,
          "durationTicks": 96,
          "midi": 67,
          "name": "G4",
          "ticks": 20448,
          "time": 53.25,
          "velocity": 1
        },
        {
          "duration": 0.25,
          "durationTicks": 96,
          "midi": 81,
          "name": "A5",
          "ticks": 20544,
          "time": 53.5,
          "velocity": 1
        },
        {
          "duration": 0.25,
          "durationTicks": 96,
          "midi": 69,
          "name": "A4",
          "ticks": 20544,
          "time": 53.5,
          "velocity": 1
        },
        {
          "duration": 0.25,
          "durationTicks": 96,
          "midi": 84,
          "name": "C6",
          "ticks": 20640,
          "time": 53.75,
          "velocity": 1
        },
        {
          "duration": 0.25,
          "durationTicks": 96,
          "midi": 72,
          "name": "C5",
          "ticks": 20640,
          "time": 53.75,
          "velocity": 1
        },
        {
          "duration": 0.25,
          "durationTicks": 96,
          "midi": 85,
          "name": "C#6",
          "ticks": 20736,
          "time": 54,
          "velocity": 1
        },
        {
          "duration": 0.25,
          "durationTicks": 96,
          "midi": 73,
          "name": "C#5",
          "ticks": 20736,
          "time": 54,
          "velocity": 1
        },
        {
          "duration": 0.125,
          "durationTicks": 48,
          "midi": 80,
          "name": "G#5",
          "ticks": 20832,
          "time": 54.25,
          "velocity": 1
        },
        {
          "duration": 0.125,
          "durationTicks": 48,
          "midi": 68,
          "name": "G#4",
          "ticks": 20832,
          "time": 54.25,
          "velocity": 1
        },
        {
          "duration": 0.125,
          "durationTicks": 48,
          "midi": 80,
          "name": "G#5",
          "ticks": 20928,
          "time": 54.5,
          "velocity": 1
        },
        {
          "duration": 0.125,
          "durationTicks": 48,
          "midi": 68,
          "name": "G#4",
          "ticks": 20928,
          "time": 54.5,
          "velocity": 1
        },
        {
          "duration": 0.125,
          "durationTicks": 48,
          "midi": 79,
          "name": "G5",
          "ticks": 20976,
          "time": 54.625,
          "velocity": 1
        },
        {
          "duration": 0.125,
          "durationTicks": 48,
          "midi": 67,
          "name": "G4",
          "ticks": 20976,
          "time": 54.625,
          "velocity": 1
        },
        {
          "duration": 0.125,
          "durationTicks": 48,
          "midi": 77,
          "name": "F5",
          "ticks": 21024,
          "time": 54.75,
          "velocity": 1
        },
        {
          "duration": 0.125,
          "durationTicks": 48,
          "midi": 65,
          "name": "F4",
          "ticks": 21024,
          "time": 54.75,
          "velocity": 1
        },
        {
          "duration": 1,
          "durationTicks": 384,
          "midi": 77,
          "name": "F5",
          "ticks": 21072,
          "time": 54.875,
          "velocity": 1
        },
        {
          "duration": 1,
          "durationTicks": 384,
          "midi": 65,
          "name": "F4",
          "ticks": 21072,
          "time": 54.875,
          "velocity": 1
        },
        {
          "duration": 0.25,
          "durationTicks": 96,
          "midi": 65,
          "name": "F4",
          "ticks": 21504,
          "time": 56,
          "velocity": 1
        },
        {
          "duration": 0.25,
          "durationTicks": 96,
          "midi": 53,
          "name": "F3",
          "ticks": 21504,
          "time": 56,
          "velocity": 1
        },
        {
          "duration": 0.25,
          "durationTicks": 96,
          "midi": 67,
          "name": "G4",
          "ticks": 21600,
          "time": 56.25,
          "velocity": 1
        },
        {
          "duration": 0.25,
          "durationTicks": 96,
          "midi": 55,
          "name": "G3",
          "ticks": 21600,
          "time": 56.25,
          "velocity": 1
        },
        {
          "duration": 0.25,
          "durationTicks": 96,
          "midi": 69,
          "name": "A4",
          "ticks": 21696,
          "time": 56.5,
          "velocity": 1
        },
        {
          "duration": 0.25,
          "durationTicks": 96,
          "midi": 57,
          "name": "A3",
          "ticks": 21696,
          "time": 56.5,
          "velocity": 1
        },
        {
          "duration": 0.25,
          "durationTicks": 96,
          "midi": 77,
          "name": "F5",
          "ticks": 21792,
          "time": 56.75,
          "velocity": 1
        },
        {
          "duration": 0.25,
          "durationTicks": 96,
          "midi": 65,
          "name": "F4",
          "ticks": 21792,
          "time": 56.75,
          "velocity": 1
        },
        {
          "duration": 0.5,
          "durationTicks": 192,
          "midi": 76,
          "name": "E5",
          "ticks": 21888,
          "time": 57,
          "velocity": 1
        },
        {
          "duration": 0.5,
          "durationTicks": 192,
          "midi": 64,
          "name": "E4",
          "ticks": 21888,
          "time": 57,
          "velocity": 1
        },
        {
          "duration": 0.5,
          "durationTicks": 192,
          "midi": 74,
          "name": "D5",
          "ticks": 22080,
          "time": 57.5,
          "velocity": 1
        },
        {
          "duration": 0.5,
          "durationTicks": 192,
          "midi": 62,
          "name": "D4",
          "ticks": 22080,
          "time": 57.5,
          "velocity": 1
        },
        {
          "duration": 0.5,
          "durationTicks": 192,
          "midi": 76,
          "name": "E5",
          "ticks": 22272,
          "time": 58,
          "velocity": 1
        },
        {
          "duration": 0.5,
          "durationTicks": 192,
          "midi": 64,
          "name": "E4",
          "ticks": 22272,
          "time": 58,
          "velocity": 1
        },
        {
          "duration": 0.5,
          "durationTicks": 192,
          "midi": 77,
          "name": "F5",
          "ticks": 22464,
          "time": 58.5,
          "velocity": 1
        },
        {
          "duration": 0.5,
          "durationTicks": 192,
          "midi": 65,
          "name": "F4",
          "ticks": 22464,
          "time": 58.5,
          "velocity": 1
        },
        {
          "duration": 0.5,
          "durationTicks": 192,
          "midi": 79,
          "name": "G5",
          "ticks": 22656,
          "time": 59,
          "velocity": 1
        },
        {
          "duration": 0.5,
          "durationTicks": 192,
          "midi": 67,
          "name": "G4",
          "ticks": 22656,
          "time": 59,
          "velocity": 1
        },
        {
          "duration": 0.5,
          "durationTicks": 192,
          "midi": 76,
          "name": "E5",
          "ticks": 22848,
          "time": 59.5,
          "velocity": 1
        },
        {
          "duration": 0.5,
          "durationTicks": 192,
          "midi": 64,
          "name": "E4",
          "ticks": 22848,
          "time": 59.5,
          "velocity": 1
        },
        {
          "duration": 1,
          "durationTicks": 384,
          "midi": 81,
          "name": "A5",
          "ticks": 23040,
          "time": 60,
          "velocity": 1
        },
        {
          "duration": 1,
          "durationTicks": 384,
          "midi": 69,
          "name": "A4",
          "ticks": 23040,
          "time": 60,
          "velocity": 1
        },
        {
          "duration": 0.09375,
          "durationTicks": 36,
          "midi": 81,
          "name": "A5",
          "ticks": 23424,
          "time": 61,
          "velocity": 1
        },
        {
          "duration": 0.09375,
          "durationTicks": 36,
          "midi": 69,
          "name": "A4",
          "ticks": 23424,
          "time": 61,
          "velocity": 1
        },
        {
          "duration": 0.09375,
          "durationTicks": 36,
          "midi": 80,
          "name": "G#5",
          "ticks": 23472,
          "time": 61.125,
          "velocity": 1
        },
        {
          "duration": 0.09375,
          "durationTicks": 36,
          "midi": 68,
          "name": "G#4",
          "ticks": 23472,
          "time": 61.125,
          "velocity": 1
        },
        {
          "duration": 0.09375,
          "durationTicks": 36,
          "midi": 79,
          "name": "G5",
          "ticks": 23520,
          "time": 61.25,
          "velocity": 1
        },
        {
          "duration": 0.09375,
          "durationTicks": 36,
          "midi": 67,
          "name": "G4",
          "ticks": 23520,
          "time": 61.25,
          "velocity": 1
        },
        {
          "duration": 0.09375,
          "durationTicks": 36,
          "midi": 78,
          "name": "F#5",
          "ticks": 23568,
          "time": 61.375,
          "velocity": 1
        },
        {
          "duration": 0.09375,
          "durationTicks": 36,
          "midi": 66,
          "name": "F#4",
          "ticks": 23568,
          "time": 61.375,
          "velocity": 1
        },
        {
          "duration": 0.09375,
          "durationTicks": 36,
          "midi": 77,
          "name": "F5",
          "ticks": 23616,
          "time": 61.5,
          "velocity": 1
        },
        {
          "duration": 0.09375,
          "durationTicks": 36,
          "midi": 65,
          "name": "F4",
          "ticks": 23616,
          "time": 61.5,
          "velocity": 1
        },
        {
          "duration": 0.09375,
          "durationTicks": 36,
          "midi": 76,
          "name": "E5",
          "ticks": 23664,
          "time": 61.625,
          "velocity": 1
        },
        {
          "duration": 0.09375,
          "durationTicks": 36,
          "midi": 64,
          "name": "E4",
          "ticks": 23664,
          "time": 61.625,
          "velocity": 1
        },
        {
          "duration": 0.09375,
          "durationTicks": 36,
          "midi": 75,
          "name": "D#5",
          "ticks": 23712,
          "time": 61.75,
          "velocity": 1
        },
        {
          "duration": 0.09375,
          "durationTicks": 36,
          "midi": 63,
          "name": "D#4",
          "ticks": 23712,
          "time": 61.75,
          "velocity": 1
        },
        {
          "duration": 0.09375,
          "durationTicks": 36,
          "midi": 74,
          "name": "D5",
          "ticks": 23760,
          "time": 61.875,
          "velocity": 1
        },
        {
          "duration": 0.09375,
          "durationTicks": 36,
          "midi": 62,
          "name": "D4",
          "ticks": 23760,
          "time": 61.875,
          "velocity": 1
        },
        {
          "duration": 2,
          "durationTicks": 768,
          "midi": 75,
          "name": "D#5",
          "ticks": 23808,
          "time": 62,
          "velocity": 1
        },
        {
          "duration": 2,
          "durationTicks": 768,
          "midi": 63,
          "name": "D#4",
          "ticks": 23808,
          "time": 62,
          "velocity": 1
        },
        {
          "duration": 0.0625,
          "durationTicks": 24,
          "midi": 77,
          "name": "F5",
          "ticks": 24960,
          "time": 65,
          "velocity": 1
        },
        {
          "duration": 0.0625,
          "durationTicks": 24,
          "midi": 65,
          "name": "F4",
          "ticks": 24960,
          "time": 65,
          "velocity": 1
        },
        {
          "duration": 0.0625,
          "durationTicks": 24,
          "midi": 74,
          "name": "D5",
          "ticks": 24960,
          "time": 65,
          "velocity": 0.8661417322834646
        },
        {
          "duration": 0.0625,
          "durationTicks": 24,
          "midi": 74,
          "name": "D5",
          "ticks": 25008,
          "time": 65.125,
          "velocity": 1
        },
        {
          "duration": 0.0625,
          "durationTicks": 24,
          "midi": 62,
          "name": "D4",
          "ticks": 25008,
          "time": 65.125,
          "velocity": 1
        },
        {
          "duration": 0.0625,
          "durationTicks": 24,
          "midi": 70,
          "name": "A#4",
          "ticks": 25008,
          "time": 65.125,
          "velocity": 0.8661417322834646
        },
        {
          "duration": 0.0625,
          "durationTicks": 24,
          "midi": 77,
          "name": "F5",
          "ticks": 25056,
          "time": 65.25,
          "velocity": 1
        },
        {
          "duration": 0.0625,
          "durationTicks": 24,
          "midi": 65,
          "name": "F4",
          "ticks": 25056,
          "time": 65.25,
          "velocity": 1
        },
        {
          "duration": 0.0625,
          "durationTicks": 24,
          "midi": 74,
          "name": "D5",
          "ticks": 25056,
          "time": 65.25,
          "velocity": 0.8661417322834646
        },
        {
          "duration": 0.0625,
          "durationTicks": 24,
          "midi": 79,
          "name": "G5",
          "ticks": 25104,
          "time": 65.375,
          "velocity": 1
        },
        {
          "duration": 0.0625,
          "durationTicks": 24,
          "midi": 67,
          "name": "G4",
          "ticks": 25104,
          "time": 65.375,
          "velocity": 1
        },
        {
          "duration": 0.0625,
          "durationTicks": 24,
          "midi": 76,
          "name": "E5",
          "ticks": 25104,
          "time": 65.375,
          "velocity": 0.8661417322834646
        },
        {
          "duration": 0.0625,
          "durationTicks": 24,
          "midi": 80,
          "name": "G#5",
          "ticks": 25152,
          "time": 65.5,
          "velocity": 1
        },
        {
          "duration": 0.0625,
          "durationTicks": 24,
          "midi": 68,
          "name": "G#4",
          "ticks": 25152,
          "time": 65.5,
          "velocity": 1
        },
        {
          "duration": 0.0625,
          "durationTicks": 24,
          "midi": 77,
          "name": "F5",
          "ticks": 25152,
          "time": 65.5,
          "velocity": 0.8661417322834646
        },
        {
          "duration": 0.0625,
          "durationTicks": 24,
          "midi": 79,
          "name": "G5",
          "ticks": 25200,
          "time": 65.625,
          "velocity": 1
        },
        {
          "duration": 0.0625,
          "durationTicks": 24,
          "midi": 67,
          "name": "G4",
          "ticks": 25200,
          "time": 65.625,
          "velocity": 1
        },
        {
          "duration": 0.0625,
          "durationTicks": 24,
          "midi": 76,
          "name": "E5",
          "ticks": 25200,
          "time": 65.625,
          "velocity": 0.8661417322834646
        },
        {
          "duration": 0.0625,
          "durationTicks": 24,
          "midi": 77,
          "name": "F5",
          "ticks": 25248,
          "time": 65.75,
          "velocity": 1
        },
        {
          "duration": 0.0625,
          "durationTicks": 24,
          "midi": 65,
          "name": "F4",
          "ticks": 25248,
          "time": 65.75,
          "velocity": 1
        },
        {
          "duration": 0.0625,
          "durationTicks": 24,
          "midi": 74,
          "name": "D5",
          "ticks": 25248,
          "time": 65.75,
          "velocity": 0.8661417322834646
        },
        {
          "duration": 0.0625,
          "durationTicks": 24,
          "midi": 74,
          "name": "D5",
          "ticks": 25296,
          "time": 65.875,
          "velocity": 1
        },
        {
          "duration": 0.0625,
          "durationTicks": 24,
          "midi": 62,
          "name": "D4",
          "ticks": 25296,
          "time": 65.875,
          "velocity": 1
        },
        {
          "duration": 0.0625,
          "durationTicks": 24,
          "midi": 70,
          "name": "A#4",
          "ticks": 25296,
          "time": 65.875,
          "velocity": 0.8661417322834646
        },
        {
          "duration": 0.0625,
          "durationTicks": 24,
          "midi": 80,
          "name": "G#5",
          "ticks": 25344,
          "time": 66,
          "velocity": 1
        },
        {
          "duration": 0.0625,
          "durationTicks": 24,
          "midi": 68,
          "name": "G#4",
          "ticks": 25344,
          "time": 66,
          "velocity": 1
        },
        {
          "duration": 0.0625,
          "durationTicks": 24,
          "midi": 77,
          "name": "F5",
          "ticks": 25344,
          "time": 66,
          "velocity": 0.8661417322834646
        },
        {
          "duration": 0.0625,
          "durationTicks": 24,
          "midi": 79,
          "name": "G5",
          "ticks": 25368,
          "time": 66.0625,
          "velocity": 1
        },
        {
          "duration": 0.0625,
          "durationTicks": 24,
          "midi": 67,
          "name": "G4",
          "ticks": 25368,
          "time": 66.0625,
          "velocity": 1
        },
        {
          "duration": 0.0625,
          "durationTicks": 24,
          "midi": 76,
          "name": "E5",
          "ticks": 25368,
          "time": 66.0625,
          "velocity": 0.8661417322834646
        },
        {
          "duration": 0.0625,
          "durationTicks": 24,
          "midi": 77,
          "name": "F5",
          "ticks": 25392,
          "time": 66.125,
          "velocity": 1
        },
        {
          "duration": 0.0625,
          "durationTicks": 24,
          "midi": 65,
          "name": "F4",
          "ticks": 25392,
          "time": 66.125,
          "velocity": 1
        },
        {
          "duration": 0.0625,
          "durationTicks": 24,
          "midi": 74,
          "name": "D5",
          "ticks": 25392,
          "time": 66.125,
          "velocity": 0.8661417322834646
        },
        {
          "duration": 0.0625,
          "durationTicks": 24,
          "midi": 74,
          "name": "D5",
          "ticks": 25416,
          "time": 66.1875,
          "velocity": 1
        },
        {
          "duration": 0.0625,
          "durationTicks": 24,
          "midi": 62,
          "name": "D4",
          "ticks": 25416,
          "time": 66.1875,
          "velocity": 1
        },
        {
          "duration": 0.0625,
          "durationTicks": 24,
          "midi": 70,
          "name": "A#4",
          "ticks": 25416,
          "time": 66.1875,
          "velocity": 0.8661417322834646
        },
        {
          "duration": 0.25,
          "durationTicks": 96,
          "midi": 77,
          "name": "F5",
          "ticks": 25440,
          "time": 66.25,
          "velocity": 1
        },
        {
          "duration": 0.25,
          "durationTicks": 96,
          "midi": 65,
          "name": "F4",
          "ticks": 25440,
          "time": 66.25,
          "velocity": 1
        },
        {
          "duration": 0.25,
          "durationTicks": 96,
          "midi": 74,
          "name": "D5",
          "ticks": 25440,
          "time": 66.25,
          "velocity": 0.8661417322834646
        },
        {
          "duration": 1,
          "durationTicks": 384,
          "midi": 79,
          "name": "G5",
          "ticks": 25536,
          "time": 66.5,
          "velocity": 1
        },
        {
          "duration": 1,
          "durationTicks": 384,
          "midi": 67,
          "name": "G4",
          "ticks": 25536,
          "time": 66.5,
          "velocity": 1
        },
        {
          "duration": 1,
          "durationTicks": 384,
          "midi": 76,
          "name": "E5",
          "ticks": 25536,
          "time": 66.5,
          "velocity": 0.8661417322834646
        },
        {
          "duration": 0.25,
          "durationTicks": 96,
          "midi": 80,
          "name": "G#5",
          "ticks": 25968,
          "time": 67.625,
          "velocity": 1
        },
        {
          "duration": 0.25,
          "durationTicks": 96,
          "midi": 68,
          "name": "G#4",
          "ticks": 25968,
          "time": 67.625,
          "velocity": 1
        },
        {
          "duration": 0.125,
          "durationTicks": 48,
          "midi": 81,
          "name": "A5",
          "ticks": 26064,
          "time": 67.875,
          "velocity": 1
        },
        {
          "duration": 0.125,
          "durationTicks": 48,
          "midi": 69,
          "name": "A4",
          "ticks": 26064,
          "time": 67.875,
          "velocity": 1
        },
        {
          "duration": 0.0625,
          "durationTicks": 24,
          "midi": 84,
          "name": "C6",
          "ticks": 26112,
          "time": 68,
          "velocity": 1
        },
        {
          "duration": 0.0625,
          "durationTicks": 24,
          "midi": 72,
          "name": "C5",
          "ticks": 26112,
          "time": 68,
          "velocity": 1
        },
        {
          "duration": 0.0625,
          "durationTicks": 24,
          "midi": 81,
          "name": "A5",
          "ticks": 26208,
          "time": 68.25,
          "velocity": 1
        },
        {
          "duration": 0.0625,
          "durationTicks": 24,
          "midi": 69,
          "name": "A4",
          "ticks": 26208,
          "time": 68.25,
          "velocity": 1
        },
        {
          "duration": 0.0625,
          "durationTicks": 24,
          "midi": 80,
          "name": "G#5",
          "ticks": 26256,
          "time": 68.375,
          "velocity": 1
        },
        {
          "duration": 0.0625,
          "durationTicks": 24,
          "midi": 68,
          "name": "G#4",
          "ticks": 26256,
          "time": 68.375,
          "velocity": 1
        },
        {
          "duration": 0.0625,
          "durationTicks": 24,
          "midi": 79,
          "name": "G5",
          "ticks": 26304,
          "time": 68.5,
          "velocity": 1
        },
        {
          "duration": 0.0625,
          "durationTicks": 24,
          "midi": 67,
          "name": "G4",
          "ticks": 26304,
          "time": 68.5,
          "velocity": 1
        },
        {
          "duration": 0.0625,
          "durationTicks": 24,
          "midi": 77,
          "name": "F5",
          "ticks": 26352,
          "time": 68.625,
          "velocity": 1
        },
        {
          "duration": 0.0625,
          "durationTicks": 24,
          "midi": 65,
          "name": "F4",
          "ticks": 26352,
          "time": 68.625,
          "velocity": 1
        },
        {
          "duration": 0.0625,
          "durationTicks": 24,
          "midi": 74,
          "name": "D5",
          "ticks": 26400,
          "time": 68.75,
          "velocity": 1
        },
        {
          "duration": 0.0625,
          "durationTicks": 24,
          "midi": 62,
          "name": "D4",
          "ticks": 26400,
          "time": 68.75,
          "velocity": 1
        },
        {
          "duration": 0.0625,
          "durationTicks": 24,
          "midi": 76,
          "name": "E5",
          "ticks": 26448,
          "time": 68.875,
          "velocity": 1
        },
        {
          "duration": 0.0625,
          "durationTicks": 24,
          "midi": 64,
          "name": "E4",
          "ticks": 26448,
          "time": 68.875,
          "velocity": 1
        },
        {
          "duration": 0.25,
          "durationTicks": 96,
          "midi": 77,
          "name": "F5",
          "ticks": 26496,
          "time": 69,
          "velocity": 1
        },
        {
          "duration": 0.25,
          "durationTicks": 96,
          "midi": 65,
          "name": "F4",
          "ticks": 26496,
          "time": 69,
          "velocity": 1
        },
        {
          "duration": 0.25,
          "durationTicks": 96,
          "midi": 79,
          "name": "G5",
          "ticks": 26592,
          "time": 69.25,
          "velocity": 1
        },
        {
          "duration": 0.25,
          "durationTicks": 96,
          "midi": 67,
          "name": "G4",
          "ticks": 26592,
          "time": 69.25,
          "velocity": 1
        },
        {
          "duration": 0.25,
          "durationTicks": 96,
          "midi": 81,
          "name": "A5",
          "ticks": 26688,
          "time": 69.5,
          "velocity": 1
        },
        {
          "duration": 0.25,
          "durationTicks": 96,
          "midi": 69,
          "name": "A4",
          "ticks": 26688,
          "time": 69.5,
          "velocity": 1
        },
        {
          "duration": 0.25,
          "durationTicks": 96,
          "midi": 84,
          "name": "C6",
          "ticks": 26784,
          "time": 69.75,
          "velocity": 1
        },
        {
          "duration": 0.25,
          "durationTicks": 96,
          "midi": 72,
          "name": "C5",
          "ticks": 26784,
          "time": 69.75,
          "velocity": 1
        },
        {
          "duration": 0.25,
          "durationTicks": 96,
          "midi": 85,
          "name": "C#6",
          "ticks": 26880,
          "time": 70,
          "velocity": 1
        },
        {
          "duration": 0.25,
          "durationTicks": 96,
          "midi": 73,
          "name": "C#5",
          "ticks": 26880,
          "time": 70,
          "velocity": 1
        },
        {
          "duration": 0.125,
          "durationTicks": 48,
          "midi": 80,
          "name": "G#5",
          "ticks": 26976,
          "time": 70.25,
          "velocity": 1
        },
        {
          "duration": 0.125,
          "durationTicks": 48,
          "midi": 68,
          "name": "G#4",
          "ticks": 26976,
          "time": 70.25,
          "velocity": 1
        },
        {
          "duration": 0.125,
          "durationTicks": 48,
          "midi": 80,
          "name": "G#5",
          "ticks": 27072,
          "time": 70.5,
          "velocity": 1
        },
        {
          "duration": 0.125,
          "durationTicks": 48,
          "midi": 68,
          "name": "G#4",
          "ticks": 27072,
          "time": 70.5,
          "velocity": 1
        },
        {
          "duration": 0.125,
          "durationTicks": 48,
          "midi": 79,
          "name": "G5",
          "ticks": 27120,
          "time": 70.625,
          "velocity": 1
        },
        {
          "duration": 0.125,
          "durationTicks": 48,
          "midi": 67,
          "name": "G4",
          "ticks": 27120,
          "time": 70.625,
          "velocity": 1
        },
        {
          "duration": 0.125,
          "durationTicks": 48,
          "midi": 77,
          "name": "F5",
          "ticks": 27168,
          "time": 70.75,
          "velocity": 1
        },
        {
          "duration": 0.125,
          "durationTicks": 48,
          "midi": 65,
          "name": "F4",
          "ticks": 27168,
          "time": 70.75,
          "velocity": 1
        },
        {
          "duration": 1,
          "durationTicks": 384,
          "midi": 77,
          "name": "F5",
          "ticks": 27216,
          "time": 70.875,
          "velocity": 1
        },
        {
          "duration": 1,
          "durationTicks": 384,
          "midi": 65,
          "name": "F4",
          "ticks": 27216,
          "time": 70.875,
          "velocity": 1
        },
        {
          "duration": 0.25,
          "durationTicks": 96,
          "midi": 65,
          "name": "F4",
          "ticks": 27648,
          "time": 72,
          "velocity": 1
        },
        {
          "duration": 0.25,
          "durationTicks": 96,
          "midi": 53,
          "name": "F3",
          "ticks": 27648,
          "time": 72,
          "velocity": 1
        },
        {
          "duration": 0.25,
          "durationTicks": 96,
          "midi": 67,
          "name": "G4",
          "ticks": 27744,
          "time": 72.25,
          "velocity": 1
        },
        {
          "duration": 0.25,
          "durationTicks": 96,
          "midi": 55,
          "name": "G3",
          "ticks": 27744,
          "time": 72.25,
          "velocity": 1
        },
        {
          "duration": 0.25,
          "durationTicks": 96,
          "midi": 69,
          "name": "A4",
          "ticks": 27840,
          "time": 72.5,
          "velocity": 1
        },
        {
          "duration": 0.25,
          "durationTicks": 96,
          "midi": 57,
          "name": "A3",
          "ticks": 27840,
          "time": 72.5,
          "velocity": 1
        },
        {
          "duration": 0.25,
          "durationTicks": 96,
          "midi": 77,
          "name": "F5",
          "ticks": 27936,
          "time": 72.75,
          "velocity": 1
        },
        {
          "duration": 0.25,
          "durationTicks": 96,
          "midi": 65,
          "name": "F4",
          "ticks": 27936,
          "time": 72.75,
          "velocity": 1
        },
        {
          "duration": 0.5,
          "durationTicks": 192,
          "midi": 76,
          "name": "E5",
          "ticks": 28032,
          "time": 73,
          "velocity": 1
        },
        {
          "duration": 0.5,
          "durationTicks": 192,
          "midi": 64,
          "name": "E4",
          "ticks": 28032,
          "time": 73,
          "velocity": 1
        },
        {
          "duration": 0.5,
          "durationTicks": 192,
          "midi": 74,
          "name": "D5",
          "ticks": 28224,
          "time": 73.5,
          "velocity": 1
        },
        {
          "duration": 0.5,
          "durationTicks": 192,
          "midi": 62,
          "name": "D4",
          "ticks": 28224,
          "time": 73.5,
          "velocity": 1
        },
        {
          "duration": 0.5,
          "durationTicks": 192,
          "midi": 76,
          "name": "E5",
          "ticks": 28416,
          "time": 74,
          "velocity": 1
        },
        {
          "duration": 0.5,
          "durationTicks": 192,
          "midi": 64,
          "name": "E4",
          "ticks": 28416,
          "time": 74,
          "velocity": 1
        },
        {
          "duration": 0.5,
          "durationTicks": 192,
          "midi": 77,
          "name": "F5",
          "ticks": 28608,
          "time": 74.5,
          "velocity": 1
        },
        {
          "duration": 0.5,
          "durationTicks": 192,
          "midi": 65,
          "name": "F4",
          "ticks": 28608,
          "time": 74.5,
          "velocity": 1
        },
        {
          "duration": 0.5,
          "durationTicks": 192,
          "midi": 79,
          "name": "G5",
          "ticks": 28800,
          "time": 75,
          "velocity": 1
        },
        {
          "duration": 0.5,
          "durationTicks": 192,
          "midi": 67,
          "name": "G4",
          "ticks": 28800,
          "time": 75,
          "velocity": 1
        },
        {
          "duration": 0.5,
          "durationTicks": 192,
          "midi": 76,
          "name": "E5",
          "ticks": 28992,
          "time": 75.5,
          "velocity": 1
        },
        {
          "duration": 0.5,
          "durationTicks": 192,
          "midi": 64,
          "name": "E4",
          "ticks": 28992,
          "time": 75.5,
          "velocity": 1
        },
        {
          "duration": 1,
          "durationTicks": 384,
          "midi": 81,
          "name": "A5",
          "ticks": 29184,
          "time": 76,
          "velocity": 1
        },
        {
          "duration": 1,
          "durationTicks": 384,
          "midi": 69,
          "name": "A4",
          "ticks": 29184,
          "time": 76,
          "velocity": 1
        },
        {
          "duration": 0.09375,
          "durationTicks": 36,
          "midi": 81,
          "name": "A5",
          "ticks": 29568,
          "time": 77,
          "velocity": 1
        },
        {
          "duration": 0.09375,
          "durationTicks": 36,
          "midi": 69,
          "name": "A4",
          "ticks": 29568,
          "time": 77,
          "velocity": 1
        },
        {
          "duration": 0.09375,
          "durationTicks": 36,
          "midi": 80,
          "name": "G#5",
          "ticks": 29616,
          "time": 77.125,
          "velocity": 1
        },
        {
          "duration": 0.09375,
          "durationTicks": 36,
          "midi": 68,
          "name": "G#4",
          "ticks": 29616,
          "time": 77.125,
          "velocity": 1
        },
        {
          "duration": 0.09375,
          "durationTicks": 36,
          "midi": 79,
          "name": "G5",
          "ticks": 29664,
          "time": 77.25,
          "velocity": 1
        },
        {
          "duration": 0.09375,
          "durationTicks": 36,
          "midi": 67,
          "name": "G4",
          "ticks": 29664,
          "time": 77.25,
          "velocity": 1
        },
        {
          "duration": 0.09375,
          "durationTicks": 36,
          "midi": 78,
          "name": "F#5",
          "ticks": 29712,
          "time": 77.375,
          "velocity": 1
        },
        {
          "duration": 0.09375,
          "durationTicks": 36,
          "midi": 66,
          "name": "F#4",
          "ticks": 29712,
          "time": 77.375,
          "velocity": 1
        },
        {
          "duration": 0.09375,
          "durationTicks": 36,
          "midi": 77,
          "name": "F5",
          "ticks": 29760,
          "time": 77.5,
          "velocity": 1
        },
        {
          "duration": 0.09375,
          "durationTicks": 36,
          "midi": 65,
          "name": "F4",
          "ticks": 29760,
          "time": 77.5,
          "velocity": 1
        },
        {
          "duration": 0.09375,
          "durationTicks": 36,
          "midi": 76,
          "name": "E5",
          "ticks": 29808,
          "time": 77.625,
          "velocity": 1
        },
        {
          "duration": 0.09375,
          "durationTicks": 36,
          "midi": 64,
          "name": "E4",
          "ticks": 29808,
          "time": 77.625,
          "velocity": 1
        },
        {
          "duration": 0.09375,
          "durationTicks": 36,
          "midi": 75,
          "name": "D#5",
          "ticks": 29856,
          "time": 77.75,
          "velocity": 1
        },
        {
          "duration": 0.09375,
          "durationTicks": 36,
          "midi": 63,
          "name": "D#4",
          "ticks": 29856,
          "time": 77.75,
          "velocity": 1
        },
        {
          "duration": 0.09375,
          "durationTicks": 36,
          "midi": 74,
          "name": "D5",
          "ticks": 29904,
          "time": 77.875,
          "velocity": 1
        },
        {
          "duration": 0.09375,
          "durationTicks": 36,
          "midi": 62,
          "name": "D4",
          "ticks": 29904,
          "time": 77.875,
          "velocity": 1
        },
        {
          "duration": 2,
          "durationTicks": 768,
          "midi": 75,
          "name": "D#5",
          "ticks": 29952,
          "time": 78,
          "velocity": 1
        },
        {
          "duration": 2,
          "durationTicks": 768,
          "midi": 63,
          "name": "D#4",
          "ticks": 29952,
          "time": 78,
          "velocity": 1
        }
      ]
    },
    {
      "channel": 0,
      "controlChanges": {
        "0": [
          {
            "number": 0,
            "ticks": 0,
            "time": 0,
            "value": 0
          }
        ],
        "32": [
          {
            "number": 32,
            "ticks": 0,
            "time": 0,
            "value": 0
          }
        ]
      },
      "pitchBends": [],
      "instrument": {
        "family": "piano",
        "number": 0,
        "name": "acoustic grand piano"
      },
      "name": "Staff-11",
      "notes": [],
      "endOfTrackTicks": 59904
    },
    {
      "channel": 2,
      "controlChanges": {
        "7": [
          {
            "number": 7,
            "ticks": 0,
            "time": 0,
            "value": 1
          },
          {
            "number": 7,
            "ticks": 0,
            "time": 0,
            "value": 1
          }
        ],
        "10": [
          {
            "number": 10,
            "ticks": 0,
            "time": 0,
            "value": 0.5039370078740157
          }
        ]
      },
      "pitchBends": [
        {
          "ticks": 23808,
          "time": 62,
          "value": -1
        },
        {
          "ticks": 24192,
          "time": 63,
          "value": -1
        },
        {
          "ticks": 24193,
          "time": 63.002604166666664,
          "value": -0.98828125
        },
        {
          "ticks": 24194,
          "time": 63.005208333333336,
          "value": -0.9765625
        },
        {
          "ticks": 24195,
          "time": 63.0078125,
          "value": -0.96875
        },
        {
          "ticks": 24196,
          "time": 63.010416666666664,
          "value": -0.95703125
        },
        {
          "ticks": 24197,
          "time": 63.013020833333336,
          "value": -0.9453125
        },
        {
          "ticks": 24198,
          "time": 63.015625,
          "value": -0.9375
        },
        {
          "ticks": 24199,
          "time": 63.018229166666664,
          "value": -0.92578125
        },
        {
          "ticks": 24200,
          "time": 63.020833333333336,
          "value": -0.9140625
        },
        {
          "ticks": 24201,
          "time": 63.0234375,
          "value": -0.90625
        },
        {
          "ticks": 24202,
          "time": 63.026041666666664,
          "value": -0.89453125
        },
        {
          "ticks": 24203,
          "time": 63.028645833333336,
          "value": -0.8828125
        },
        {
          "ticks": 24204,
          "time": 63.03125,
          "value": -0.875
        },
        {
          "ticks": 24205,
          "time": 63.033854166666664,
          "value": -0.86328125
        },
        {
          "ticks": 24206,
          "time": 63.036458333333336,
          "value": -0.8515625
        },
        {
          "ticks": 24207,
          "time": 63.0390625,
          "value": -0.84375
        },
        {
          "ticks": 24208,
          "time": 63.041666666666664,
          "value": -0.83203125
        },
        {
          "ticks": 24209,
          "time": 63.044270833333336,
          "value": -0.8203125
        },
        {
          "ticks": 24210,
          "time": 63.046875,
          "value": -0.8125
        },
        {
          "ticks": 24211,
          "time": 63.049479166666664,
          "value": -0.80078125
        },
        {
          "ticks": 24212,
          "time": 63.052083333333336,
          "value": -0.7890625
        },
        {
          "ticks": 24213,
          "time": 63.0546875,
          "value": -0.78125
        },
        {
          "ticks": 24214,
          "time": 63.057291666666664,
          "value": -0.76953125
        },
        {
          "ticks": 24215,
          "time": 63.059895833333336,
          "value": -0.7578125
        },
        {
          "ticks": 24216,
          "time": 63.0625,
          "value": -0.75
        },
        {
          "ticks": 24217,
          "time": 63.065104166666664,
          "value": -0.73828125
        },
        {
          "ticks": 24218,
          "time": 63.067708333333336,
          "value": -0.7265625
        },
        {
          "ticks": 24219,
          "time": 63.0703125,
          "value": -0.71875
        },
        {
          "ticks": 24220,
          "time": 63.072916666666664,
          "value": -0.70703125
        },
        {
          "ticks": 24221,
          "time": 63.075520833333336,
          "value": -0.6953125
        },
        {
          "ticks": 24222,
          "time": 63.078125,
          "value": -0.6875
        },
        {
          "ticks": 24223,
          "time": 63.080729166666664,
          "value": -0.67578125
        },
        {
          "ticks": 24224,
          "time": 63.083333333333336,
          "value": -0.66796875
        },
        {
          "ticks": 24225,
          "time": 63.0859375,
          "value": -0.65625
        },
        {
          "ticks": 24226,
          "time": 63.088541666666664,
          "value": -0.64453125
        },
        {
          "ticks": 24227,
          "time": 63.091145833333336,
          "value": -0.63671875
        },
        {
          "ticks": 24228,
          "time": 63.09375,
          "value": -0.625
        },
        {
          "ticks": 24229,
          "time": 63.096354166666664,
          "value": -0.61328125
        },
        {
          "ticks": 24230,
          "time": 63.098958333333336,
          "value": -0.60546875
        },
        {
          "ticks": 24231,
          "time": 63.1015625,
          "value": -0.59375
        },
        {
          "ticks": 24232,
          "time": 63.104166666666664,
          "value": -0.58203125
        },
        {
          "ticks": 24233,
          "time": 63.106770833333336,
          "value": -0.57421875
        },
        {
          "ticks": 24234,
          "time": 63.109375,
          "value": -0.5625
        },
        {
          "ticks": 24235,
          "time": 63.111979166666664,
          "value": -0.55078125
        },
        {
          "ticks": 24236,
          "time": 63.114583333333336,
          "value": -0.54296875
        },
        {
          "ticks": 24237,
          "time": 63.1171875,
          "value": -0.53125
        },
        {
          "ticks": 24238,
          "time": 63.119791666666664,
          "value": -0.51953125
        },
        {
          "ticks": 24239,
          "time": 63.122395833333336,
          "value": -0.51171875
        },
        {
          "ticks": 24240,
          "time": 63.125,
          "value": -0.5
        },
        {
          "ticks": 24241,
          "time": 63.127604166666664,
          "value": -0.48828125
        },
        {
          "ticks": 24242,
          "time": 63.130208333333336,
          "value": -0.48046875
        },
        {
          "ticks": 24243,
          "time": 63.1328125,
          "value": -0.46875
        },
        {
          "ticks": 24244,
          "time": 63.135416666666664,
          "value": -0.45703125
        },
        {
          "ticks": 24245,
          "time": 63.138020833333336,
          "value": -0.44921875
        },
        {
          "ticks": 24246,
          "time": 63.140625,
          "value": -0.4375
        },
        {
          "ticks": 24247,
          "time": 63.143229166666664,
          "value": -0.42578125
        },
        {
          "ticks": 24248,
          "time": 63.145833333333336,
          "value": -0.41796875
        },
        {
          "ticks": 24249,
          "time": 63.1484375,
          "value": -0.40625
        },
        {
          "ticks": 24250,
          "time": 63.151041666666664,
          "value": -0.39453125
        },
        {
          "ticks": 24251,
          "time": 63.153645833333336,
          "value": -0.38671875
        },
        {
          "ticks": 24252,
          "time": 63.15625,
          "value": -0.375
        },
        {
          "ticks": 24253,
          "time": 63.158854166666664,
          "value": -0.36328125
        },
        {
          "ticks": 24254,
          "time": 63.161458333333336,
          "value": -0.35546875
        },
        {
          "ticks": 24255,
          "time": 63.1640625,
          "value": -0.34375
        },
        {
          "ticks": 24256,
          "time": 63.166666666666664,
          "value": -0.3359375
        },
        {
          "ticks": 24257,
          "time": 63.169270833333336,
          "value": -0.32421875
        },
        {
          "ticks": 24258,
          "time": 63.171875,
          "value": -0.3125
        },
        {
          "ticks": 24259,
          "time": 63.174479166666664,
          "value": -0.3046875
        },
        {
          "ticks": 24260,
          "time": 63.177083333333336,
          "value": -0.29296875
        },
        {
          "ticks": 24261,
          "time": 63.1796875,
          "value": -0.28125
        },
        {
          "ticks": 24262,
          "time": 63.182291666666664,
          "value": -0.2734375
        },
        {
          "ticks": 24263,
          "time": 63.184895833333336,
          "value": -0.26171875
        },
        {
          "ticks": 24264,
          "time": 63.1875,
          "value": -0.25
        },
        {
          "ticks": 24265,
          "time": 63.190104166666664,
          "value": -0.2421875
        },
        {
          "ticks": 24266,
          "time": 63.192708333333336,
          "value": -0.23046875
        },
        {
          "ticks": 24267,
          "time": 63.1953125,
          "value": -0.21875
        },
        {
          "ticks": 24268,
          "time": 63.197916666666664,
          "value": -0.2109375
        },
        {
          "ticks": 24269,
          "time": 63.200520833333336,
          "value": -0.19921875
        },
        {
          "ticks": 24270,
          "time": 63.203125,
          "value": -0.1875
        },
        {
          "ticks": 24271,
          "time": 63.205729166666664,
          "value": -0.1796875
        },
        {
          "ticks": 24272,
          "time": 63.208333333333336,
          "value": -0.16796875
        },
        {
          "ticks": 24273,
          "time": 63.2109375,
          "value": -0.15625
        },
        {
          "ticks": 24274,
          "time": 63.213541666666664,
          "value": -0.1484375
        },
        {
          "ticks": 24275,
          "time": 63.216145833333336,
          "value": -0.13671875
        },
        {
          "ticks": 24276,
          "time": 63.21875,
          "value": -0.125
        },
        {
          "ticks": 24277,
          "time": 63.221354166666664,
          "value": -0.1171875
        },
        {
          "ticks": 24278,
          "time": 63.223958333333336,
          "value": -0.10546875
        },
        {
          "ticks": 24279,
          "time": 63.2265625,
          "value": -0.09375
        },
        {
          "ticks": 24280,
          "time": 63.229166666666664,
          "value": -0.0859375
        },
        {
          "ticks": 24281,
          "time": 63.231770833333336,
          "value": -0.07421875
        },
        {
          "ticks": 24282,
          "time": 63.234375,
          "value": -0.0625
        },
        {
          "ticks": 24283,
          "time": 63.236979166666664,
          "value": -0.0546875
        },
        {
          "ticks": 24284,
          "time": 63.239583333333336,
          "value": -0.04296875
        },
        {
          "ticks": 24285,
          "time": 63.2421875,
          "value": -0.03125
        },
        {
          "ticks": 24286,
          "time": 63.244791666666664,
          "value": -0.0234375
        },
        {
          "ticks": 24287,
          "time": 63.247395833333336,
          "value": -0.01171875
        },
        {
          "ticks": 24288,
          "time": 63.25,
          "value": -0.0001220703125
        },
        {
          "ticks": 29952,
          "time": 78,
          "value": -1
        },
        {
          "ticks": 30336,
          "time": 79,
          "value": -1
        },
        {
          "ticks": 30337,
          "time": 79.00260416666667,
          "value": -0.98828125
        },
        {
          "ticks": 30338,
          "time": 79.00520833333333,
          "value": -0.9765625
        },
        {
          "ticks": 30339,
          "time": 79.0078125,
          "value": -0.96875
        },
        {
          "ticks": 30340,
          "time": 79.01041666666667,
          "value": -0.95703125
        },
        {
          "ticks": 30341,
          "time": 79.01302083333333,
          "value": -0.9453125
        },
        {
          "ticks": 30342,
          "time": 79.015625,
          "value": -0.9375
        },
        {
          "ticks": 30343,
          "time": 79.01822916666667,
          "value": -0.92578125
        },
        {
          "ticks": 30344,
          "time": 79.02083333333333,
          "value": -0.9140625
        },
        {
          "ticks": 30345,
          "time": 79.0234375,
          "value": -0.90625
        },
        {
          "ticks": 30346,
          "time": 79.02604166666667,
          "value": -0.89453125
        },
        {
          "ticks": 30347,
          "time": 79.02864583333333,
          "value": -0.8828125
        },
        {
          "ticks": 30348,
          "time": 79.03125,
          "value": -0.875
        },
        {
          "ticks": 30349,
          "time": 79.03385416666667,
          "value": -0.86328125
        },
        {
          "ticks": 30350,
          "time": 79.03645833333333,
          "value": -0.8515625
        },
        {
          "ticks": 30351,
          "time": 79.0390625,
          "value": -0.84375
        },
        {
          "ticks": 30352,
          "time": 79.04166666666667,
          "value": -0.83203125
        },
        {
          "ticks": 30353,
          "time": 79.04427083333333,
          "value": -0.8203125
        },
        {
          "ticks": 30354,
          "time": 79.046875,
          "value": -0.8125
        },
        {
          "ticks": 30355,
          "time": 79.04947916666667,
          "value": -0.80078125
        },
        {
          "ticks": 30356,
          "time": 79.05208333333333,
          "value": -0.7890625
        },
        {
          "ticks": 30357,
          "time": 79.0546875,
          "value": -0.78125
        },
        {
          "ticks": 30358,
          "time": 79.05729166666667,
          "value": -0.76953125
        },
        {
          "ticks": 30359,
          "time": 79.05989583333333,
          "value": -0.7578125
        },
        {
          "ticks": 30360,
          "time": 79.0625,
          "value": -0.75
        },
        {
          "ticks": 30361,
          "time": 79.06510416666667,
          "value": -0.73828125
        },
        {
          "ticks": 30362,
          "time": 79.06770833333333,
          "value": -0.7265625
        },
        {
          "ticks": 30363,
          "time": 79.0703125,
          "value": -0.71875
        },
        {
          "ticks": 30364,
          "time": 79.07291666666667,
          "value": -0.70703125
        },
        {
          "ticks": 30365,
          "time": 79.07552083333333,
          "value": -0.6953125
        },
        {
          "ticks": 30366,
          "time": 79.078125,
          "value": -0.6875
        },
        {
          "ticks": 30367,
          "time": 79.08072916666667,
          "value": -0.67578125
        },
        {
          "ticks": 30368,
          "time": 79.08333333333333,
          "value": -0.66796875
        },
        {
          "ticks": 30369,
          "time": 79.0859375,
          "value": -0.65625
        },
        {
          "ticks": 30370,
          "time": 79.08854166666667,
          "value": -0.64453125
        },
        {
          "ticks": 30371,
          "time": 79.09114583333333,
          "value": -0.63671875
        },
        {
          "ticks": 30372,
          "time": 79.09375,
          "value": -0.625
        },
        {
          "ticks": 30373,
          "time": 79.09635416666667,
          "value": -0.61328125
        },
        {
          "ticks": 30374,
          "time": 79.09895833333333,
          "value": -0.60546875
        },
        {
          "ticks": 30375,
          "time": 79.1015625,
          "value": -0.59375
        },
        {
          "ticks": 30376,
          "time": 79.10416666666667,
          "value": -0.58203125
        },
        {
          "ticks": 30377,
          "time": 79.10677083333333,
          "value": -0.57421875
        },
        {
          "ticks": 30378,
          "time": 79.109375,
          "value": -0.5625
        },
        {
          "ticks": 30379,
          "time": 79.11197916666667,
          "value": -0.55078125
        },
        {
          "ticks": 30380,
          "time": 79.11458333333333,
          "value": -0.54296875
        },
        {
          "ticks": 30381,
          "time": 79.1171875,
          "value": -0.53125
        },
        {
          "ticks": 30382,
          "time": 79.11979166666667,
          "value": -0.51953125
        },
        {
          "ticks": 30383,
          "time": 79.12239583333333,
          "value": -0.51171875
        },
        {
          "ticks": 30384,
          "time": 79.125,
          "value": -0.5
        },
        {
          "ticks": 30385,
          "time": 79.12760416666667,
          "value": -0.48828125
        },
        {
          "ticks": 30386,
          "time": 79.13020833333333,
          "value": -0.48046875
        },
        {
          "ticks": 30387,
          "time": 79.1328125,
          "value": -0.46875
        },
        {
          "ticks": 30388,
          "time": 79.13541666666667,
          "value": -0.45703125
        },
        {
          "ticks": 30389,
          "time": 79.13802083333333,
          "value": -0.44921875
        },
        {
          "ticks": 30390,
          "time": 79.140625,
          "value": -0.4375
        },
        {
          "ticks": 30391,
          "time": 79.14322916666667,
          "value": -0.42578125
        },
        {
          "ticks": 30392,
          "time": 79.14583333333333,
          "value": -0.41796875
        },
        {
          "ticks": 30393,
          "time": 79.1484375,
          "value": -0.40625
        },
        {
          "ticks": 30394,
          "time": 79.15104166666667,
          "value": -0.39453125
        },
        {
          "ticks": 30395,
          "time": 79.15364583333333,
          "value": -0.38671875
        },
        {
          "ticks": 30396,
          "time": 79.15625,
          "value": -0.375
        },
        {
          "ticks": 30397,
          "time": 79.15885416666667,
          "value": -0.36328125
        },
        {
          "ticks": 30398,
          "time": 79.16145833333333,
          "value": -0.35546875
        },
        {
          "ticks": 30399,
          "time": 79.1640625,
          "value": -0.34375
        },
        {
          "ticks": 30400,
          "time": 79.16666666666667,
          "value": -0.3359375
        },
        {
          "ticks": 30401,
          "time": 79.16927083333333,
          "value": -0.32421875
        },
        {
          "ticks": 30402,
          "time": 79.171875,
          "value": -0.3125
        },
        {
          "ticks": 30403,
          "time": 79.17447916666667,
          "value": -0.3046875
        },
        {
          "ticks": 30404,
          "time": 79.17708333333333,
          "value": -0.29296875
        },
        {
          "ticks": 30405,
          "time": 79.1796875,
          "value": -0.28125
        },
        {
          "ticks": 30406,
          "time": 79.18229166666667,
          "value": -0.2734375
        },
        {
          "ticks": 30407,
          "time": 79.18489583333333,
          "value": -0.26171875
        },
        {
          "ticks": 30408,
          "time": 79.1875,
          "value": -0.25
        },
        {
          "ticks": 30409,
          "time": 79.19010416666667,
          "value": -0.2421875
        },
        {
          "ticks": 30410,
          "time": 79.19270833333333,
          "value": -0.23046875
        },
        {
          "ticks": 30411,
          "time": 79.1953125,
          "value": -0.21875
        },
        {
          "ticks": 30412,
          "time": 79.19791666666667,
          "value": -0.2109375
        },
        {
          "ticks": 30413,
          "time": 79.20052083333333,
          "value": -0.19921875
        },
        {
          "ticks": 30414,
          "time": 79.203125,
          "value": -0.1875
        },
        {
          "ticks": 30415,
          "time": 79.20572916666667,
          "value": -0.1796875
        },
        {
          "ticks": 30416,
          "time": 79.20833333333333,
          "value": -0.16796875
        },
        {
          "ticks": 30417,
          "time": 79.2109375,
          "value": -0.15625
        },
        {
          "ticks": 30418,
          "time": 79.21354166666667,
          "value": -0.1484375
        },
        {
          "ticks": 30419,
          "time": 79.21614583333333,
          "value": -0.13671875
        },
        {
          "ticks": 30420,
          "time": 79.21875,
          "value": -0.125
        },
        {
          "ticks": 30421,
          "time": 79.22135416666667,
          "value": -0.1171875
        },
        {
          "ticks": 30422,
          "time": 79.22395833333333,
          "value": -0.10546875
        },
        {
          "ticks": 30423,
          "time": 79.2265625,
          "value": -0.09375
        },
        {
          "ticks": 30424,
          "time": 79.22916666666667,
          "value": -0.0859375
        },
        {
          "ticks": 30425,
          "time": 79.23177083333333,
          "value": -0.07421875
        },
        {
          "ticks": 30426,
          "time": 79.234375,
          "value": -0.0625
        },
        {
          "ticks": 30427,
          "time": 79.23697916666667,
          "value": -0.0546875
        },
        {
          "ticks": 30428,
          "time": 79.23958333333333,
          "value": -0.04296875
        },
        {
          "ticks": 30429,
          "time": 79.2421875,
          "value": -0.03125
        },
        {
          "ticks": 30430,
          "time": 79.24479166666667,
          "value": -0.0234375
        },
        {
          "ticks": 30431,
          "time": 79.24739583333333,
          "value": -0.01171875
        },
        {
          "ticks": 30432,
          "time": 79.25,
          "value": -0.0001220703125
        },
        {
          "ticks": 59904,
          "time": 156,
          "value": -0.0001220703125
        }
      ],
      "instrument": {
        "family": "brass",
        "number": 62,
        "name": "synthbrass 1"
      },
      "name": "",
      "notes": [
        {
          "duration": 0.25,
          "durationTicks": 96,
          "midi": 62,
          "name": "D4",
          "ticks": 21504,
          "time": 56,
          "velocity": 0.8661417322834646
        },
        {
          "duration": 0.25,
          "durationTicks": 96,
          "midi": 50,
          "name": "D3",
          "ticks": 21504,
          "time": 56,
          "velocity": 0.6299212598425197
        },
        {
          "duration": 0.25,
          "durationTicks": 96,
          "midi": 64,
          "name": "E4",
          "ticks": 21600,
          "time": 56.25,
          "velocity": 0.8661417322834646
        },
        {
          "duration": 0.25,
          "durationTicks": 96,
          "midi": 52,
          "name": "E3",
          "ticks": 21600,
          "time": 56.25,
          "velocity": 0.6299212598425197
        },
        {
          "duration": 0.25,
          "durationTicks": 96,
          "midi": 65,
          "name": "F4",
          "ticks": 21696,
          "time": 56.5,
          "velocity": 0.8661417322834646
        },
        {
          "duration": 0.25,
          "durationTicks": 96,
          "midi": 53,
          "name": "F3",
          "ticks": 21696,
          "time": 56.5,
          "velocity": 0.6299212598425197
        },
        {
          "duration": 0.25,
          "durationTicks": 96,
          "midi": 74,
          "name": "D5",
          "ticks": 21792,
          "time": 56.75,
          "velocity": 0.8661417322834646
        },
        {
          "duration": 0.25,
          "durationTicks": 96,
          "midi": 62,
          "name": "D4",
          "ticks": 21792,
          "time": 56.75,
          "velocity": 0.6299212598425197
        },
        {
          "duration": 0.5,
          "durationTicks": 192,
          "midi": 72,
          "name": "C5",
          "ticks": 21888,
          "time": 57,
          "velocity": 0.8661417322834646
        },
        {
          "duration": 0.5,
          "durationTicks": 192,
          "midi": 60,
          "name": "C4",
          "ticks": 21888,
          "time": 57,
          "velocity": 0.6299212598425197
        },
        {
          "duration": 0.5,
          "durationTicks": 192,
          "midi": 70,
          "name": "A#4",
          "ticks": 22080,
          "time": 57.5,
          "velocity": 0.8661417322834646
        },
        {
          "duration": 0.5,
          "durationTicks": 192,
          "midi": 57,
          "name": "A3",
          "ticks": 22080,
          "time": 57.5,
          "velocity": 0.6299212598425197
        },
        {
          "duration": 0.5,
          "durationTicks": 192,
          "midi": 72,
          "name": "C5",
          "ticks": 22272,
          "time": 58,
          "velocity": 0.8661417322834646
        },
        {
          "duration": 0.5,
          "durationTicks": 192,
          "midi": 55,
          "name": "G3",
          "ticks": 22272,
          "time": 58,
          "velocity": 0.6299212598425197
        },
        {
          "duration": 0.5,
          "durationTicks": 192,
          "midi": 74,
          "name": "D5",
          "ticks": 22464,
          "time": 58.5,
          "velocity": 0.8661417322834646
        },
        {
          "duration": 0.5,
          "durationTicks": 192,
          "midi": 57,
          "name": "A3",
          "ticks": 22464,
          "time": 58.5,
          "velocity": 0.6299212598425197
        },
        {
          "duration": 0.5,
          "durationTicks": 192,
          "midi": 76,
          "name": "E5",
          "ticks": 22656,
          "time": 59,
          "velocity": 0.8661417322834646
        },
        {
          "duration": 0.5,
          "durationTicks": 192,
          "midi": 60,
          "name": "C4",
          "ticks": 22656,
          "time": 59,
          "velocity": 0.6299212598425197
        },
        {
          "duration": 0.5,
          "durationTicks": 192,
          "midi": 72,
          "name": "C5",
          "ticks": 22848,
          "time": 59.5,
          "velocity": 0.8661417322834646
        },
        {
          "duration": 0.5,
          "durationTicks": 192,
          "midi": 57,
          "name": "A3",
          "ticks": 22848,
          "time": 59.5,
          "velocity": 0.6299212598425197
        },
        {
          "duration": 1,
          "durationTicks": 384,
          "midi": 77,
          "name": "F5",
          "ticks": 23040,
          "time": 60,
          "velocity": 0.8661417322834646
        },
        {
          "duration": 1,
          "durationTicks": 384,
          "midi": 62,
          "name": "D4",
          "ticks": 23040,
          "time": 60,
          "velocity": 0.6299212598425197
        },
        {
          "duration": 0.09375,
          "durationTicks": 36,
          "midi": 77,
          "name": "F5",
          "ticks": 23424,
          "time": 61,
          "velocity": 0.8661417322834646
        },
        {
          "duration": 0.09375,
          "durationTicks": 36,
          "midi": 76,
          "name": "E5",
          "ticks": 23472,
          "time": 61.125,
          "velocity": 0.8661417322834646
        },
        {
          "duration": 0.09375,
          "durationTicks": 36,
          "midi": 75,
          "name": "D#5",
          "ticks": 23520,
          "time": 61.25,
          "velocity": 0.8661417322834646
        },
        {
          "duration": 0.09375,
          "durationTicks": 36,
          "midi": 74,
          "name": "D5",
          "ticks": 23568,
          "time": 61.375,
          "velocity": 0.8661417322834646
        },
        {
          "duration": 0.09375,
          "durationTicks": 36,
          "midi": 73,
          "name": "C#5",
          "ticks": 23616,
          "time": 61.5,
          "velocity": 0.8661417322834646
        },
        {
          "duration": 0.09375,
          "durationTicks": 36,
          "midi": 72,
          "name": "C5",
          "ticks": 23664,
          "time": 61.625,
          "velocity": 0.8661417322834646
        },
        {
          "duration": 0.09375,
          "durationTicks": 36,
          "midi": 71,
          "name": "B4",
          "ticks": 23712,
          "time": 61.75,
          "velocity": 0.8661417322834646
        },
        {
          "duration": 0.09375,
          "durationTicks": 36,
          "midi": 70,
          "name": "A#4",
          "ticks": 23760,
          "time": 61.875,
          "velocity": 0.8661417322834646
        },
        {
          "duration": 2,
          "durationTicks": 768,
          "midi": 70,
          "name": "A#4",
          "ticks": 23808,
          "time": 62,
          "velocity": 0.8661417322834646
        },
        {
          "duration": 2,
          "durationTicks": 768,
          "midi": 58,
          "name": "A#3",
          "ticks": 23808,
          "time": 62,
          "velocity": 0.6299212598425197
        },
        {
          "duration": 0.25,
          "durationTicks": 96,
          "midi": 62,
          "name": "D4",
          "ticks": 27648,
          "time": 72,
          "velocity": 0.8661417322834646
        },
        {
          "duration": 0.25,
          "durationTicks": 96,
          "midi": 50,
          "name": "D3",
          "ticks": 27648,
          "time": 72,
          "velocity": 0.6299212598425197
        },
        {
          "duration": 0.25,
          "durationTicks": 96,
          "midi": 64,
          "name": "E4",
          "ticks": 27744,
          "time": 72.25,
          "velocity": 0.8661417322834646
        },
        {
          "duration": 0.25,
          "durationTicks": 96,
          "midi": 52,
          "name": "E3",
          "ticks": 27744,
          "time": 72.25,
          "velocity": 0.6299212598425197
        },
        {
          "duration": 0.25,
          "durationTicks": 96,
          "midi": 65,
          "name": "F4",
          "ticks": 27840,
          "time": 72.5,
          "velocity": 0.8661417322834646
        },
        {
          "duration": 0.25,
          "durationTicks": 96,
          "midi": 53,
          "name": "F3",
          "ticks": 27840,
          "time": 72.5,
          "velocity": 0.6299212598425197
        },
        {
          "duration": 0.25,
          "durationTicks": 96,
          "midi": 74,
          "name": "D5",
          "ticks": 27936,
          "time": 72.75,
          "velocity": 0.8661417322834646
        },
        {
          "duration": 0.25,
          "durationTicks": 96,
          "midi": 62,
          "name": "D4",
          "ticks": 27936,
          "time": 72.75,
          "velocity": 0.6299212598425197
        },
        {
          "duration": 0.5,
          "durationTicks": 192,
          "midi": 72,
          "name": "C5",
          "ticks": 28032,
          "time": 73,
          "velocity": 0.8661417322834646
        },
        {
          "duration": 0.5,
          "durationTicks": 192,
          "midi": 60,
          "name": "C4",
          "ticks": 28032,
          "time": 73,
          "velocity": 0.6299212598425197
        },
        {
          "duration": 0.5,
          "durationTicks": 192,
          "midi": 70,
          "name": "A#4",
          "ticks": 28224,
          "time": 73.5,
          "velocity": 0.8661417322834646
        },
        {
          "duration": 0.5,
          "durationTicks": 192,
          "midi": 57,
          "name": "A3",
          "ticks": 28224,
          "time": 73.5,
          "velocity": 0.6299212598425197
        },
        {
          "duration": 0.5,
          "durationTicks": 192,
          "midi": 72,
          "name": "C5",
          "ticks": 28416,
          "time": 74,
          "velocity": 0.8661417322834646
        },
        {
          "duration": 0.5,
          "durationTicks": 192,
          "midi": 55,
          "name": "G3",
          "ticks": 28416,
          "time": 74,
          "velocity": 0.6299212598425197
        },
        {
          "duration": 0.5,
          "durationTicks": 192,
          "midi": 74,
          "name": "D5",
          "ticks": 28608,
          "time": 74.5,
          "velocity": 0.8661417322834646
        },
        {
          "duration": 0.5,
          "durationTicks": 192,
          "midi": 57,
          "name": "A3",
          "ticks": 28608,
          "time": 74.5,
          "velocity": 0.6299212598425197
        },
        {
          "duration": 0.5,
          "durationTicks": 192,
          "midi": 76,
          "name": "E5",
          "ticks": 28800,
          "time": 75,
          "velocity": 0.8661417322834646
        },
        {
          "duration": 0.5,
          "durationTicks": 192,
          "midi": 60,
          "name": "C4",
          "ticks": 28800,
          "time": 75,
          "velocity": 0.6299212598425197
        },
        {
          "duration": 0.5,
          "durationTicks": 192,
          "midi": 72,
          "name": "C5",
          "ticks": 28992,
          "time": 75.5,
          "velocity": 0.8661417322834646
        },
        {
          "duration": 0.5,
          "durationTicks": 192,
          "midi": 57,
          "name": "A3",
          "ticks": 28992,
          "time": 75.5,
          "velocity": 0.6299212598425197
        },
        {
          "duration": 1,
          "durationTicks": 384,
          "midi": 77,
          "name": "F5",
          "ticks": 29184,
          "time": 76,
          "velocity": 0.8661417322834646
        },
        {
          "duration": 1,
          "durationTicks": 384,
          "midi": 62,
          "name": "D4",
          "ticks": 29184,
          "time": 76,
          "velocity": 0.6299212598425197
        },
        {
          "duration": 0.09375,
          "durationTicks": 36,
          "midi": 77,
          "name": "F5",
          "ticks": 29568,
          "time": 77,
          "velocity": 0.8661417322834646
        },
        {
          "duration": 0.09375,
          "durationTicks": 36,
          "midi": 76,
          "name": "E5",
          "ticks": 29616,
          "time": 77.125,
          "velocity": 0.8661417322834646
        },
        {
          "duration": 0.09375,
          "durationTicks": 36,
          "midi": 75,
          "name": "D#5",
          "ticks": 29664,
          "time": 77.25,
          "velocity": 0.8661417322834646
        },
        {
          "duration": 0.09375,
          "durationTicks": 36,
          "midi": 74,
          "name": "D5",
          "ticks": 29712,
          "time": 77.375,
          "velocity": 0.8661417322834646
        },
        {
          "duration": 0.09375,
          "durationTicks": 36,
          "midi": 73,
          "name": "C#5",
          "ticks": 29760,
          "time": 77.5,
          "velocity": 0.8661417322834646
        },
        {
          "duration": 0.09375,
          "durationTicks": 36,
          "midi": 72,
          "name": "C5",
          "ticks": 29808,
          "time": 77.625,
          "velocity": 0.8661417322834646
        },
        {
          "duration": 0.09375,
          "durationTicks": 36,
          "midi": 71,
          "name": "B4",
          "ticks": 29856,
          "time": 77.75,
          "velocity": 0.8661417322834646
        },
        {
          "duration": 0.09375,
          "durationTicks": 36,
          "midi": 70,
          "name": "A#4",
          "ticks": 29904,
          "time": 77.875,
          "velocity": 0.8661417322834646
        },
        {
          "duration": 2,
          "durationTicks": 768,
          "midi": 70,
          "name": "A#4",
          "ticks": 29952,
          "time": 78,
          "velocity": 0.8661417322834646
        },
        {
          "duration": 2,
          "durationTicks": 768,
          "midi": 58,
          "name": "A#3",
          "ticks": 29952,
          "time": 78,
          "velocity": 0.6299212598425197
        }
      ]
    },
    {
      "channel": 0,
      "controlChanges": {
        "0": [
          {
            "number": 0,
            "ticks": 0,
            "time": 0,
            "value": 0
          }
        ],
        "32": [
          {
            "number": 32,
            "ticks": 0,
            "time": 0,
            "value": 0
          }
        ]
      },
      "pitchBends": [],
      "instrument": {
        "family": "piano",
        "number": 0,
        "name": "acoustic grand piano"
      },
      "name": "Staff-12",
      "notes": [],
      "endOfTrackTicks": 59904
    },
    {
      "channel": 3,
      "controlChanges": {
        "7": [
          {
            "number": 7,
            "ticks": 0,
            "time": 0,
            "value": 1
          },
          {
            "number": 7,
            "ticks": 0,
            "time": 0,
            "value": 1
          },
          {
            "number": 7,
            "ticks": 30720,
            "time": 80,
            "value": 0.8503937007874016
          },
          {
            "number": 7,
            "ticks": 33041,
            "time": 86.04427083333333,
            "value": 0.84251968503937
          },
          {
            "number": 7,
            "ticks": 33058,
            "time": 86.08854166666667,
            "value": 0.8346456692913385
          },
          {
            "number": 7,
            "ticks": 33076,
            "time": 86.13541666666667,
            "value": 0.8267716535433071
          },
          {
            "number": 7,
            "ticks": 33093,
            "time": 86.1796875,
            "value": 0.8188976377952756
          },
          {
            "number": 7,
            "ticks": 33111,
            "time": 86.2265625,
            "value": 0.8110236220472441
          },
          {
            "number": 7,
            "ticks": 33128,
            "time": 86.27083333333333,
            "value": 0.8031496062992126
          },
          {
            "number": 7,
            "ticks": 33146,
            "time": 86.31770833333333,
            "value": 0.7952755905511811
          },
          {
            "number": 7,
            "ticks": 33163,
            "time": 86.36197916666667,
            "value": 0.7874015748031497
          },
          {
            "number": 7,
            "ticks": 33181,
            "time": 86.40885416666667,
            "value": 0.7795275590551181
          },
          {
            "number": 7,
            "ticks": 33198,
            "time": 86.453125,
            "value": 0.7716535433070866
          },
          {
            "number": 7,
            "ticks": 33216,
            "time": 86.5,
            "value": 0.7637795275590551
          },
          {
            "number": 7,
            "ticks": 33233,
            "time": 86.54427083333333,
            "value": 0.7559055118110236
          },
          {
            "number": 7,
            "ticks": 33250,
            "time": 86.58854166666667,
            "value": 0.7480314960629921
          },
          {
            "number": 7,
            "ticks": 33268,
            "time": 86.63541666666667,
            "value": 0.7401574803149606
          },
          {
            "number": 7,
            "ticks": 33285,
            "time": 86.6796875,
            "value": 0.7322834645669292
          },
          {
            "number": 7,
            "ticks": 33303,
            "time": 86.7265625,
            "value": 0.7244094488188977
          },
          {
            "number": 7,
            "ticks": 33320,
            "time": 86.77083333333333,
            "value": 0.7165354330708661
          },
          {
            "number": 7,
            "ticks": 33338,
            "time": 86.81770833333333,
            "value": 0.7086614173228346
          },
          {
            "number": 7,
            "ticks": 33355,
            "time": 86.86197916666667,
            "value": 0.7007874015748031
          },
          {
            "number": 7,
            "ticks": 33373,
            "time": 86.90885416666667,
            "value": 0.6929133858267716
          },
          {
            "number": 7,
            "ticks": 33390,
            "time": 86.953125,
            "value": 0.6850393700787402
          },
          {
            "number": 7,
            "ticks": 33408,
            "time": 87,
            "value": 0.6771653543307087
          },
          {
            "number": 7,
            "ticks": 33425,
            "time": 87.04427083333333,
            "value": 0.6692913385826772
          },
          {
            "number": 7,
            "ticks": 33442,
            "time": 87.08854166666667,
            "value": 0.6614173228346457
          },
          {
            "number": 7,
            "ticks": 33460,
            "time": 87.13541666666667,
            "value": 0.6535433070866141
          },
          {
            "number": 7,
            "ticks": 33477,
            "time": 87.1796875,
            "value": 0.6456692913385826
          },
          {
            "number": 7,
            "ticks": 33495,
            "time": 87.2265625,
            "value": 0.6377952755905512
          },
          {
            "number": 7,
            "ticks": 33512,
            "time": 87.27083333333333,
            "value": 0.6299212598425197
          },
          {
            "number": 7,
            "ticks": 33530,
            "time": 87.31770833333333,
            "value": 0.6220472440944882
          },
          {
            "number": 7,
            "ticks": 33547,
            "time": 87.36197916666667,
            "value": 0.6141732283464567
          },
          {
            "number": 7,
            "ticks": 33565,
            "time": 87.40885416666667,
            "value": 0.6062992125984252
          },
          {
            "number": 7,
            "ticks": 33582,
            "time": 87.453125,
            "value": 0.5984251968503937
          },
          {
            "number": 7,
            "ticks": 33600,
            "time": 87.5,
            "value": 0.5905511811023622
          },
          {
            "number": 7,
            "ticks": 33617,
            "time": 87.54427083333333,
            "value": 0.5826771653543307
          },
          {
            "number": 7,
            "ticks": 33634,
            "time": 87.58854166666667,
            "value": 0.5748031496062992
          },
          {
            "number": 7,
            "ticks": 33652,
            "time": 87.63541666666667,
            "value": 0.5669291338582677
          },
          {
            "number": 7,
            "ticks": 33669,
            "time": 87.6796875,
            "value": 0.5590551181102362
          },
          {
            "number": 7,
            "ticks": 33687,
            "time": 87.7265625,
            "value": 0.5511811023622047
          },
          {
            "number": 7,
            "ticks": 33704,
            "time": 87.77083333333333,
            "value": 0.5433070866141733
          },
          {
            "number": 7,
            "ticks": 33722,
            "time": 87.81770833333333,
            "value": 0.5354330708661418
          },
          {
            "number": 7,
            "ticks": 33739,
            "time": 87.86197916666667,
            "value": 0.5275590551181102
          },
          {
            "number": 7,
            "ticks": 33757,
            "time": 87.90885416666667,
            "value": 0.5196850393700787
          },
          {
            "number": 7,
            "ticks": 33774,
            "time": 87.953125,
            "value": 0.5118110236220472
          },
          {
            "number": 7,
            "ticks": 33792,
            "time": 88,
            "value": 0.5039370078740157
          },
          {
            "number": 7,
            "ticks": 33792,
            "time": 88,
            "value": 0.8503937007874016
          },
          {
            "number": 7,
            "ticks": 36113,
            "time": 94.04427083333333,
            "value": 0.84251968503937
          },
          {
            "number": 7,
            "ticks": 36130,
            "time": 94.08854166666667,
            "value": 0.8346456692913385
          },
          {
            "number": 7,
            "ticks": 36148,
            "time": 94.13541666666667,
            "value": 0.8267716535433071
          },
          {
            "number": 7,
            "ticks": 36165,
            "time": 94.1796875,
            "value": 0.8188976377952756
          },
          {
            "number": 7,
            "ticks": 36183,
            "time": 94.2265625,
            "value": 0.8110236220472441
          },
          {
            "number": 7,
            "ticks": 36200,
            "time": 94.27083333333333,
            "value": 0.8031496062992126
          },
          {
            "number": 7,
            "ticks": 36218,
            "time": 94.31770833333333,
            "value": 0.7952755905511811
          },
          {
            "number": 7,
            "ticks": 36235,
            "time": 94.36197916666667,
            "value": 0.7874015748031497
          },
          {
            "number": 7,
            "ticks": 36253,
            "time": 94.40885416666667,
            "value": 0.7795275590551181
          },
          {
            "number": 7,
            "ticks": 36270,
            "time": 94.453125,
            "value": 0.7716535433070866
          },
          {
            "number": 7,
            "ticks": 36288,
            "time": 94.5,
            "value": 0.7637795275590551
          },
          {
            "number": 7,
            "ticks": 36305,
            "time": 94.54427083333333,
            "value": 0.7559055118110236
          },
          {
            "number": 7,
            "ticks": 36322,
            "time": 94.58854166666667,
            "value": 0.7480314960629921
          },
          {
            "number": 7,
            "ticks": 36340,
            "time": 94.63541666666667,
            "value": 0.7401574803149606
          },
          {
            "number": 7,
            "ticks": 36357,
            "time": 94.6796875,
            "value": 0.7322834645669292
          },
          {
            "number": 7,
            "ticks": 36375,
            "time": 94.7265625,
            "value": 0.7244094488188977
          },
          {
            "number": 7,
            "ticks": 36392,
            "time": 94.77083333333333,
            "value": 0.7165354330708661
          },
          {
            "number": 7,
            "ticks": 36410,
            "time": 94.81770833333333,
            "value": 0.7086614173228346
          },
          {
            "number": 7,
            "ticks": 36427,
            "time": 94.86197916666667,
            "value": 0.7007874015748031
          },
          {
            "number": 7,
            "ticks": 36445,
            "time": 94.90885416666667,
            "value": 0.6929133858267716
          },
          {
            "number": 7,
            "ticks": 36462,
            "time": 94.953125,
            "value": 0.6850393700787402
          },
          {
            "number": 7,
            "ticks": 36480,
            "time": 95,
            "value": 0.6771653543307087
          },
          {
            "number": 7,
            "ticks": 36497,
            "time": 95.04427083333333,
            "value": 0.6692913385826772
          },
          {
            "number": 7,
            "ticks": 36514,
            "time": 95.08854166666667,
            "value": 0.6614173228346457
          },
          {
            "number": 7,
            "ticks": 36532,
            "time": 95.13541666666667,
            "value": 0.6535433070866141
          },
          {
            "number": 7,
            "ticks": 36549,
            "time": 95.1796875,
            "value": 0.6456692913385826
          },
          {
            "number": 7,
            "ticks": 36567,
            "time": 95.2265625,
            "value": 0.6377952755905512
          },
          {
            "number": 7,
            "ticks": 36584,
            "time": 95.27083333333333,
            "value": 0.6299212598425197
          },
          {
            "number": 7,
            "ticks": 36602,
            "time": 95.31770833333333,
            "value": 0.6220472440944882
          },
          {
            "number": 7,
            "ticks": 36619,
            "time": 95.36197916666667,
            "value": 0.6141732283464567
          },
          {
            "number": 7,
            "ticks": 36637,
            "time": 95.40885416666667,
            "value": 0.6062992125984252
          },
          {
            "number": 7,
            "ticks": 36654,
            "time": 95.453125,
            "value": 0.5984251968503937
          },
          {
            "number": 7,
            "ticks": 36672,
            "time": 95.5,
            "value": 0.5905511811023622
          },
          {
            "number": 7,
            "ticks": 36689,
            "time": 95.54427083333333,
            "value": 0.5826771653543307
          },
          {
            "number": 7,
            "ticks": 36706,
            "time": 95.58854166666667,
            "value": 0.5748031496062992
          },
          {
            "number": 7,
            "ticks": 36724,
            "time": 95.63541666666667,
            "value": 0.5669291338582677
          },
          {
            "number": 7,
            "ticks": 36741,
            "time": 95.6796875,
            "value": 0.5590551181102362
          },
          {
            "number": 7,
            "ticks": 36759,
            "time": 95.7265625,
            "value": 0.5511811023622047
          },
          {
            "number": 7,
            "ticks": 36776,
            "time": 95.77083333333333,
            "value": 0.5433070866141733
          },
          {
            "number": 7,
            "ticks": 36794,
            "time": 95.81770833333333,
            "value": 0.5354330708661418
          },
          {
            "number": 7,
            "ticks": 36811,
            "time": 95.86197916666667,
            "value": 0.5275590551181102
          },
          {
            "number": 7,
            "ticks": 36829,
            "time": 95.90885416666667,
            "value": 0.5196850393700787
          },
          {
            "number": 7,
            "ticks": 36846,
            "time": 95.953125,
            "value": 0.5118110236220472
          },
          {
            "number": 7,
            "ticks": 36864,
            "time": 96,
            "value": 0.5039370078740157
          },
          {
            "number": 7,
            "ticks": 36864,
            "time": 96,
            "value": 0.8503937007874016
          },
          {
            "number": 7,
            "ticks": 39185,
            "time": 102.04427083333333,
            "value": 0.84251968503937
          },
          {
            "number": 7,
            "ticks": 39202,
            "time": 102.08854166666667,
            "value": 0.8346456692913385
          },
          {
            "number": 7,
            "ticks": 39220,
            "time": 102.13541666666667,
            "value": 0.8267716535433071
          },
          {
            "number": 7,
            "ticks": 39237,
            "time": 102.1796875,
            "value": 0.8188976377952756
          },
          {
            "number": 7,
            "ticks": 39255,
            "time": 102.2265625,
            "value": 0.8110236220472441
          },
          {
            "number": 7,
            "ticks": 39272,
            "time": 102.27083333333333,
            "value": 0.8031496062992126
          },
          {
            "number": 7,
            "ticks": 39290,
            "time": 102.31770833333333,
            "value": 0.7952755905511811
          },
          {
            "number": 7,
            "ticks": 39307,
            "time": 102.36197916666667,
            "value": 0.7874015748031497
          },
          {
            "number": 7,
            "ticks": 39325,
            "time": 102.40885416666667,
            "value": 0.7795275590551181
          },
          {
            "number": 7,
            "ticks": 39342,
            "time": 102.453125,
            "value": 0.7716535433070866
          },
          {
            "number": 7,
            "ticks": 39360,
            "time": 102.5,
            "value": 0.7637795275590551
          },
          {
            "number": 7,
            "ticks": 39377,
            "time": 102.54427083333333,
            "value": 0.7559055118110236
          },
          {
            "number": 7,
            "ticks": 39394,
            "time": 102.58854166666667,
            "value": 0.7480314960629921
          },
          {
            "number": 7,
            "ticks": 39412,
            "time": 102.63541666666667,
            "value": 0.7401574803149606
          },
          {
            "number": 7,
            "ticks": 39429,
            "time": 102.6796875,
            "value": 0.7322834645669292
          },
          {
            "number": 7,
            "ticks": 39447,
            "time": 102.7265625,
            "value": 0.7244094488188977
          },
          {
            "number": 7,
            "ticks": 39464,
            "time": 102.77083333333333,
            "value": 0.7165354330708661
          },
          {
            "number": 7,
            "ticks": 39482,
            "time": 102.81770833333333,
            "value": 0.7086614173228346
          },
          {
            "number": 7,
            "ticks": 39499,
            "time": 102.86197916666667,
            "value": 0.7007874015748031
          },
          {
            "number": 7,
            "ticks": 39517,
            "time": 102.90885416666667,
            "value": 0.6929133858267716
          },
          {
            "number": 7,
            "ticks": 39534,
            "time": 102.953125,
            "value": 0.6850393700787402
          },
          {
            "number": 7,
            "ticks": 39552,
            "time": 103,
            "value": 0.6771653543307087
          },
          {
            "number": 7,
            "ticks": 39569,
            "time": 103.04427083333333,
            "value": 0.6692913385826772
          },
          {
            "number": 7,
            "ticks": 39586,
            "time": 103.08854166666667,
            "value": 0.6614173228346457
          },
          {
            "number": 7,
            "ticks": 39604,
            "time": 103.13541666666667,
            "value": 0.6535433070866141
          },
          {
            "number": 7,
            "ticks": 39621,
            "time": 103.1796875,
            "value": 0.6456692913385826
          },
          {
            "number": 7,
            "ticks": 39639,
            "time": 103.2265625,
            "value": 0.6377952755905512
          },
          {
            "number": 7,
            "ticks": 39656,
            "time": 103.27083333333333,
            "value": 0.6299212598425197
          },
          {
            "number": 7,
            "ticks": 39674,
            "time": 103.31770833333333,
            "value": 0.6220472440944882
          },
          {
            "number": 7,
            "ticks": 39691,
            "time": 103.36197916666667,
            "value": 0.6141732283464567
          },
          {
            "number": 7,
            "ticks": 39709,
            "time": 103.40885416666667,
            "value": 0.6062992125984252
          },
          {
            "number": 7,
            "ticks": 39726,
            "time": 103.453125,
            "value": 0.5984251968503937
          },
          {
            "number": 7,
            "ticks": 39744,
            "time": 103.5,
            "value": 0.5905511811023622
          },
          {
            "number": 7,
            "ticks": 39761,
            "time": 103.54427083333333,
            "value": 0.5826771653543307
          },
          {
            "number": 7,
            "ticks": 39778,
            "time": 103.58854166666667,
            "value": 0.5748031496062992
          },
          {
            "number": 7,
            "ticks": 39796,
            "time": 103.63541666666667,
            "value": 0.5669291338582677
          },
          {
            "number": 7,
            "ticks": 39813,
            "time": 103.6796875,
            "value": 0.5590551181102362
          },
          {
            "number": 7,
            "ticks": 39831,
            "time": 103.7265625,
            "value": 0.5511811023622047
          },
          {
            "number": 7,
            "ticks": 39848,
            "time": 103.77083333333333,
            "value": 0.5433070866141733
          },
          {
            "number": 7,
            "ticks": 39866,
            "time": 103.81770833333333,
            "value": 0.5354330708661418
          },
          {
            "number": 7,
            "ticks": 39883,
            "time": 103.86197916666667,
            "value": 0.5275590551181102
          },
          {
            "number": 7,
            "ticks": 39901,
            "time": 103.90885416666667,
            "value": 0.5196850393700787
          },
          {
            "number": 7,
            "ticks": 39918,
            "time": 103.953125,
            "value": 0.5118110236220472
          },
          {
            "number": 7,
            "ticks": 39936,
            "time": 104,
            "value": 0.5039370078740157
          },
          {
            "number": 7,
            "ticks": 39936,
            "time": 104,
            "value": 0.8503937007874016
          },
          {
            "number": 7,
            "ticks": 42257,
            "time": 110.04427083333333,
            "value": 0.84251968503937
          },
          {
            "number": 7,
            "ticks": 42274,
            "time": 110.08854166666667,
            "value": 0.8346456692913385
          },
          {
            "number": 7,
            "ticks": 42292,
            "time": 110.13541666666667,
            "value": 0.8267716535433071
          },
          {
            "number": 7,
            "ticks": 42309,
            "time": 110.1796875,
            "value": 0.8188976377952756
          },
          {
            "number": 7,
            "ticks": 42327,
            "time": 110.2265625,
            "value": 0.8110236220472441
          },
          {
            "number": 7,
            "ticks": 42344,
            "time": 110.27083333333333,
            "value": 0.8031496062992126
          },
          {
            "number": 7,
            "ticks": 42362,
            "time": 110.31770833333333,
            "value": 0.7952755905511811
          },
          {
            "number": 7,
            "ticks": 42379,
            "time": 110.36197916666667,
            "value": 0.7874015748031497
          },
          {
            "number": 7,
            "ticks": 42397,
            "time": 110.40885416666667,
            "value": 0.7795275590551181
          },
          {
            "number": 7,
            "ticks": 42414,
            "time": 110.453125,
            "value": 0.7716535433070866
          },
          {
            "number": 7,
            "ticks": 42432,
            "time": 110.5,
            "value": 0.7637795275590551
          },
          {
            "number": 7,
            "ticks": 42449,
            "time": 110.54427083333333,
            "value": 0.7559055118110236
          },
          {
            "number": 7,
            "ticks": 42466,
            "time": 110.58854166666667,
            "value": 0.7480314960629921
          },
          {
            "number": 7,
            "ticks": 42484,
            "time": 110.63541666666667,
            "value": 0.7401574803149606
          },
          {
            "number": 7,
            "ticks": 42501,
            "time": 110.6796875,
            "value": 0.7322834645669292
          },
          {
            "number": 7,
            "ticks": 42519,
            "time": 110.7265625,
            "value": 0.7244094488188977
          },
          {
            "number": 7,
            "ticks": 42536,
            "time": 110.77083333333333,
            "value": 0.7165354330708661
          },
          {
            "number": 7,
            "ticks": 42554,
            "time": 110.81770833333333,
            "value": 0.7086614173228346
          },
          {
            "number": 7,
            "ticks": 42571,
            "time": 110.86197916666667,
            "value": 0.7007874015748031
          },
          {
            "number": 7,
            "ticks": 42589,
            "time": 110.90885416666667,
            "value": 0.6929133858267716
          },
          {
            "number": 7,
            "ticks": 42606,
            "time": 110.953125,
            "value": 0.6850393700787402
          },
          {
            "number": 7,
            "ticks": 42624,
            "time": 111,
            "value": 0.6771653543307087
          },
          {
            "number": 7,
            "ticks": 42641,
            "time": 111.04427083333333,
            "value": 0.6692913385826772
          },
          {
            "number": 7,
            "ticks": 42658,
            "time": 111.08854166666667,
            "value": 0.6614173228346457
          },
          {
            "number": 7,
            "ticks": 42676,
            "time": 111.13541666666667,
            "value": 0.6535433070866141
          },
          {
            "number": 7,
            "ticks": 42693,
            "time": 111.1796875,
            "value": 0.6456692913385826
          },
          {
            "number": 7,
            "ticks": 42711,
            "time": 111.2265625,
            "value": 0.6377952755905512
          },
          {
            "number": 7,
            "ticks": 42728,
            "time": 111.27083333333333,
            "value": 0.6299212598425197
          },
          {
            "number": 7,
            "ticks": 42746,
            "time": 111.31770833333333,
            "value": 0.6220472440944882
          },
          {
            "number": 7,
            "ticks": 42763,
            "time": 111.36197916666667,
            "value": 0.6141732283464567
          },
          {
            "number": 7,
            "ticks": 42781,
            "time": 111.40885416666667,
            "value": 0.6062992125984252
          },
          {
            "number": 7,
            "ticks": 42798,
            "time": 111.453125,
            "value": 0.5984251968503937
          },
          {
            "number": 7,
            "ticks": 42816,
            "time": 111.5,
            "value": 0.5905511811023622
          },
          {
            "number": 7,
            "ticks": 42833,
            "time": 111.54427083333333,
            "value": 0.5826771653543307
          },
          {
            "number": 7,
            "ticks": 42850,
            "time": 111.58854166666667,
            "value": 0.5748031496062992
          },
          {
            "number": 7,
            "ticks": 42868,
            "time": 111.63541666666667,
            "value": 0.5669291338582677
          },
          {
            "number": 7,
            "ticks": 42885,
            "time": 111.6796875,
            "value": 0.5590551181102362
          },
          {
            "number": 7,
            "ticks": 42903,
            "time": 111.7265625,
            "value": 0.5511811023622047
          },
          {
            "number": 7,
            "ticks": 42920,
            "time": 111.77083333333333,
            "value": 0.5433070866141733
          },
          {
            "number": 7,
            "ticks": 42938,
            "time": 111.81770833333333,
            "value": 0.5354330708661418
          },
          {
            "number": 7,
            "ticks": 42955,
            "time": 111.86197916666667,
            "value": 0.5275590551181102
          },
          {
            "number": 7,
            "ticks": 42973,
            "time": 111.90885416666667,
            "value": 0.5196850393700787
          },
          {
            "number": 7,
            "ticks": 42990,
            "time": 111.953125,
            "value": 0.5118110236220472
          },
          {
            "number": 7,
            "ticks": 43008,
            "time": 112,
            "value": 0.5039370078740157
          },
          {
            "number": 7,
            "ticks": 59904,
            "time": 156,
            "value": 0.5039370078740157
          }
        ],
        "10": [
          {
            "number": 10,
            "ticks": 0,
            "time": 0,
            "value": 0.5039370078740157
          }
        ]
      },
      "pitchBends": [
        {
          "ticks": 35328,
          "time": 92,
          "value": 0.9998779296875
        },
        {
          "ticks": 35911,
          "time": 93.51822916666667,
          "value": 0.984130859375
        },
        {
          "ticks": 35918,
          "time": 93.53645833333333,
          "value": 0.9683837890625
        },
        {
          "ticks": 35925,
          "time": 93.5546875,
          "value": 0.95263671875
        },
        {
          "ticks": 35932,
          "time": 93.57291666666667,
          "value": 0.9368896484375
        },
        {
          "ticks": 35939,
          "time": 93.59114583333333,
          "value": 0.921142578125
        },
        {
          "ticks": 35945,
          "time": 93.60677083333333,
          "value": 0.9053955078125
        },
        {
          "ticks": 35952,
          "time": 93.625,
          "value": 0.8896484375
        },
        {
          "ticks": 35959,
          "time": 93.64322916666667,
          "value": 0.8739013671875
        },
        {
          "ticks": 35966,
          "time": 93.66145833333333,
          "value": 0.858154296875
        },
        {
          "ticks": 35973,
          "time": 93.6796875,
          "value": 0.8424072265625
        },
        {
          "ticks": 35979,
          "time": 93.6953125,
          "value": 0.82666015625
        },
        {
          "ticks": 35986,
          "time": 93.71354166666667,
          "value": 0.8109130859375
        },
        {
          "ticks": 35993,
          "time": 93.73177083333333,
          "value": 0.795166015625
        },
        {
          "ticks": 36000,
          "time": 93.75,
          "value": 0.7794189453125
        },
        {
          "ticks": 36007,
          "time": 93.76822916666667,
          "value": 0.763671875
        },
        {
          "ticks": 36013,
          "time": 93.78385416666667,
          "value": 0.7479248046875
        },
        {
          "ticks": 36020,
          "time": 93.80208333333333,
          "value": 0.732177734375
        },
        {
          "ticks": 36027,
          "time": 93.8203125,
          "value": 0.7164306640625
        },
        {
          "ticks": 36034,
          "time": 93.83854166666667,
          "value": 0.70068359375
        },
        {
          "ticks": 36041,
          "time": 93.85677083333333,
          "value": 0.6849365234375
        },
        {
          "ticks": 36047,
          "time": 93.87239583333333,
          "value": 0.669189453125
        },
        {
          "ticks": 36054,
          "time": 93.890625,
          "value": 0.6534423828125
        },
        {
          "ticks": 36061,
          "time": 93.90885416666667,
          "value": 0.6376953125
        },
        {
          "ticks": 36068,
          "time": 93.92708333333333,
          "value": 0.6219482421875
        },
        {
          "ticks": 36075,
          "time": 93.9453125,
          "value": 0.606201171875
        },
        {
          "ticks": 36081,
          "time": 93.9609375,
          "value": 0.5904541015625
        },
        {
          "ticks": 36088,
          "time": 93.97916666666667,
          "value": 0.57470703125
        },
        {
          "ticks": 36095,
          "time": 93.99739583333333,
          "value": 0.5589599609375
        },
        {
          "ticks": 36102,
          "time": 94.015625,
          "value": 0.543212890625
        },
        {
          "ticks": 36109,
          "time": 94.03385416666667,
          "value": 0.5274658203125
        },
        {
          "ticks": 36115,
          "time": 94.04947916666667,
          "value": 0.51171875
        },
        {
          "ticks": 36122,
          "time": 94.06770833333333,
          "value": 0.4959716796875
        },
        {
          "ticks": 36129,
          "time": 94.0859375,
          "value": 0.480224609375
        },
        {
          "ticks": 36136,
          "time": 94.10416666666667,
          "value": 0.4644775390625
        },
        {
          "ticks": 36143,
          "time": 94.12239583333333,
          "value": 0.44873046875
        },
        {
          "ticks": 36149,
          "time": 94.13802083333333,
          "value": 0.4329833984375
        },
        {
          "ticks": 36156,
          "time": 94.15625,
          "value": 0.417236328125
        },
        {
          "ticks": 36163,
          "time": 94.17447916666667,
          "value": 0.4014892578125
        },
        {
          "ticks": 36170,
          "time": 94.19270833333333,
          "value": 0.3857421875
        },
        {
          "ticks": 36177,
          "time": 94.2109375,
          "value": 0.3699951171875
        },
        {
          "ticks": 36183,
          "time": 94.2265625,
          "value": 0.354248046875
        },
        {
          "ticks": 36190,
          "time": 94.24479166666667,
          "value": 0.3385009765625
        },
        {
          "ticks": 36197,
          "time": 94.26302083333333,
          "value": 0.32275390625
        },
        {
          "ticks": 36204,
          "time": 94.28125,
          "value": 0.3070068359375
        },
        {
          "ticks": 36211,
          "time": 94.29947916666667,
          "value": 0.291259765625
        },
        {
          "ticks": 36217,
          "time": 94.31510416666667,
          "value": 0.2755126953125
        },
        {
          "ticks": 36224,
          "time": 94.33333333333333,
          "value": 0.259765625
        },
        {
          "ticks": 36231,
          "time": 94.3515625,
          "value": 0.2440185546875
        },
        {
          "ticks": 36238,
          "time": 94.36979166666667,
          "value": 0.228271484375
        },
        {
          "ticks": 36245,
          "time": 94.38802083333333,
          "value": 0.2125244140625
        },
        {
          "ticks": 36251,
          "time": 94.40364583333333,
          "value": 0.19677734375
        },
        {
          "ticks": 36258,
          "time": 94.421875,
          "value": 0.1810302734375
        },
        {
          "ticks": 36265,
          "time": 94.44010416666667,
          "value": 0.165283203125
        },
        {
          "ticks": 36272,
          "time": 94.45833333333333,
          "value": 0.1495361328125
        },
        {
          "ticks": 36279,
          "time": 94.4765625,
          "value": 0.1337890625
        },
        {
          "ticks": 36285,
          "time": 94.4921875,
          "value": 0.1180419921875
        },
        {
          "ticks": 36292,
          "time": 94.51041666666667,
          "value": 0.102294921875
        },
        {
          "ticks": 36299,
          "time": 94.52864583333333,
          "value": 0.0865478515625
        },
        {
          "ticks": 36306,
          "time": 94.546875,
          "value": 0.07080078125
        },
        {
          "ticks": 36313,
          "time": 94.56510416666667,
          "value": 0.0550537109375
        },
        {
          "ticks": 36319,
          "time": 94.58072916666667,
          "value": 0.039306640625
        },
        {
          "ticks": 36326,
          "time": 94.59895833333333,
          "value": 0.0235595703125
        },
        {
          "ticks": 36333,
          "time": 94.6171875,
          "value": 0.0078125
        },
        {
          "ticks": 36340,
          "time": 94.63541666666667,
          "value": -0.0079345703125
        },
        {
          "ticks": 36347,
          "time": 94.65364583333333,
          "value": -0.023681640625
        },
        {
          "ticks": 36354,
          "time": 94.671875,
          "value": -0.0394287109375
        },
        {
          "ticks": 36360,
          "time": 94.6875,
          "value": -0.05517578125
        },
        {
          "ticks": 36367,
          "time": 94.70572916666667,
          "value": -0.0709228515625
        },
        {
          "ticks": 36374,
          "time": 94.72395833333333,
          "value": -0.086669921875
        },
        {
          "ticks": 36381,
          "time": 94.7421875,
          "value": -0.1024169921875
        },
        {
          "ticks": 36388,
          "time": 94.76041666666667,
          "value": -0.1181640625
        },
        {
          "ticks": 36394,
          "time": 94.77604166666667,
          "value": -0.1339111328125
        },
        {
          "ticks": 36401,
          "time": 94.79427083333333,
          "value": -0.149658203125
        },
        {
          "ticks": 36408,
          "time": 94.8125,
          "value": -0.1654052734375
        },
        {
          "ticks": 36415,
          "time": 94.83072916666667,
          "value": -0.18115234375
        },
        {
          "ticks": 36422,
          "time": 94.84895833333333,
          "value": -0.1968994140625
        },
        {
          "ticks": 36428,
          "time": 94.86458333333333,
          "value": -0.212646484375
        },
        {
          "ticks": 36435,
          "time": 94.8828125,
          "value": -0.2283935546875
        },
        {
          "ticks": 36442,
          "time": 94.90104166666667,
          "value": -0.244140625
        },
        {
          "ticks": 36449,
          "time": 94.91927083333333,
          "value": -0.2598876953125
        },
        {
          "ticks": 36456,
          "time": 94.9375,
          "value": -0.275634765625
        },
        {
          "ticks": 36462,
          "time": 94.953125,
          "value": -0.2913818359375
        },
        {
          "ticks": 36469,
          "time": 94.97135416666667,
          "value": -0.30712890625
        },
        {
          "ticks": 36476,
          "time": 94.98958333333333,
          "value": -0.3228759765625
        },
        {
          "ticks": 36483,
          "time": 95.0078125,
          "value": -0.338623046875
        },
        {
          "ticks": 36490,
          "time": 95.02604166666667,
          "value": -0.3543701171875
        },
        {
          "ticks": 36496,
          "time": 95.04166666666667,
          "value": -0.3701171875
        },
        {
          "ticks": 36503,
          "time": 95.05989583333333,
          "value": -0.3858642578125
        },
        {
          "ticks": 36510,
          "time": 95.078125,
          "value": -0.401611328125
        },
        {
          "ticks": 36517,
          "time": 95.09635416666667,
          "value": -0.4173583984375
        },
        {
          "ticks": 36524,
          "time": 95.11458333333333,
          "value": -0.43310546875
        },
        {
          "ticks": 36530,
          "time": 95.13020833333333,
          "value": -0.4488525390625
        },
        {
          "ticks": 36537,
          "time": 95.1484375,
          "value": -0.464599609375
        },
        {
          "ticks": 36544,
          "time": 95.16666666666667,
          "value": -0.4803466796875
        },
        {
          "ticks": 36551,
          "time": 95.18489583333333,
          "value": -0.49609375
        },
        {
          "ticks": 36558,
          "time": 95.203125,
          "value": -0.5118408203125
        },
        {
          "ticks": 36564,
          "time": 95.21875,
          "value": -0.527587890625
        },
        {
          "ticks": 36571,
          "time": 95.23697916666667,
          "value": -0.5433349609375
        },
        {
          "ticks": 36578,
          "time": 95.25520833333333,
          "value": -0.55908203125
        },
        {
          "ticks": 36585,
          "time": 95.2734375,
          "value": -0.5748291015625
        },
        {
          "ticks": 36592,
          "time": 95.29166666666667,
          "value": -0.590576171875
        },
        {
          "ticks": 36598,
          "time": 95.30729166666667,
          "value": -0.6063232421875
        },
        {
          "ticks": 36605,
          "time": 95.32552083333333,
          "value": -0.6220703125
        },
        {
          "ticks": 36612,
          "time": 95.34375,
          "value": -0.6378173828125
        },
        {
          "ticks": 36619,
          "time": 95.36197916666667,
          "value": -0.653564453125
        },
        {
          "ticks": 36626,
          "time": 95.38020833333333,
          "value": -0.6693115234375
        },
        {
          "ticks": 36632,
          "time": 95.39583333333333,
          "value": -0.68505859375
        },
        {
          "ticks": 36639,
          "time": 95.4140625,
          "value": -0.7008056640625
        },
        {
          "ticks": 36646,
          "time": 95.43229166666667,
          "value": -0.716552734375
        },
        {
          "ticks": 36653,
          "time": 95.45052083333333,
          "value": -0.7322998046875
        },
        {
          "ticks": 36660,
          "time": 95.46875,
          "value": -0.748046875
        },
        {
          "ticks": 36666,
          "time": 95.484375,
          "value": -0.7637939453125
        },
        {
          "ticks": 36673,
          "time": 95.50260416666667,
          "value": -0.779541015625
        },
        {
          "ticks": 36680,
          "time": 95.52083333333333,
          "value": -0.7952880859375
        },
        {
          "ticks": 36687,
          "time": 95.5390625,
          "value": -0.81103515625
        },
        {
          "ticks": 36694,
          "time": 95.55729166666667,
          "value": -0.8267822265625
        },
        {
          "ticks": 36700,
          "time": 95.57291666666667,
          "value": -0.842529296875
        },
        {
          "ticks": 36707,
          "time": 95.59114583333333,
          "value": -0.8582763671875
        },
        {
          "ticks": 36714,
          "time": 95.609375,
          "value": -0.8740234375
        },
        {
          "ticks": 36721,
          "time": 95.62760416666667,
          "value": -0.8897705078125
        },
        {
          "ticks": 36728,
          "time": 95.64583333333333,
          "value": -0.905517578125
        },
        {
          "ticks": 36734,
          "time": 95.66145833333333,
          "value": -0.9212646484375
        },
        {
          "ticks": 36741,
          "time": 95.6796875,
          "value": -0.93701171875
        },
        {
          "ticks": 36748,
          "time": 95.69791666666667,
          "value": -0.9527587890625
        },
        {
          "ticks": 36755,
          "time": 95.71614583333333,
          "value": -0.968505859375
        },
        {
          "ticks": 36762,
          "time": 95.734375,
          "value": -0.9842529296875
        },
        {
          "ticks": 36768,
          "time": 95.75,
          "value": -1
        },
        {
          "ticks": 36864,
          "time": 96,
          "value": 0
        },
        {
          "ticks": 41472,
          "time": 108,
          "value": 0.9998779296875
        },
        {
          "ticks": 42055,
          "time": 109.51822916666667,
          "value": 0.984130859375
        },
        {
          "ticks": 42062,
          "time": 109.53645833333333,
          "value": 0.9683837890625
        },
        {
          "ticks": 42069,
          "time": 109.5546875,
          "value": 0.95263671875
        },
        {
          "ticks": 42076,
          "time": 109.57291666666667,
          "value": 0.9368896484375
        },
        {
          "ticks": 42083,
          "time": 109.59114583333333,
          "value": 0.921142578125
        },
        {
          "ticks": 42089,
          "time": 109.60677083333333,
          "value": 0.9053955078125
        },
        {
          "ticks": 42096,
          "time": 109.625,
          "value": 0.8896484375
        },
        {
          "ticks": 42103,
          "time": 109.64322916666667,
          "value": 0.8739013671875
        },
        {
          "ticks": 42110,
          "time": 109.66145833333333,
          "value": 0.858154296875
        },
        {
          "ticks": 42117,
          "time": 109.6796875,
          "value": 0.8424072265625
        },
        {
          "ticks": 42123,
          "time": 109.6953125,
          "value": 0.82666015625
        },
        {
          "ticks": 42130,
          "time": 109.71354166666667,
          "value": 0.8109130859375
        },
        {
          "ticks": 42137,
          "time": 109.73177083333333,
          "value": 0.795166015625
        },
        {
          "ticks": 42144,
          "time": 109.75,
          "value": 0.7794189453125
        },
        {
          "ticks": 42151,
          "time": 109.76822916666667,
          "value": 0.763671875
        },
        {
          "ticks": 42157,
          "time": 109.78385416666667,
          "value": 0.7479248046875
        },
        {
          "ticks": 42164,
          "time": 109.80208333333333,
          "value": 0.732177734375
        },
        {
          "ticks": 42171,
          "time": 109.8203125,
          "value": 0.7164306640625
        },
        {
          "ticks": 42178,
          "time": 109.83854166666667,
          "value": 0.70068359375
        },
        {
          "ticks": 42185,
          "time": 109.85677083333333,
          "value": 0.6849365234375
        },
        {
          "ticks": 42191,
          "time": 109.87239583333333,
          "value": 0.669189453125
        },
        {
          "ticks": 42198,
          "time": 109.890625,
          "value": 0.6534423828125
        },
        {
          "ticks": 42205,
          "time": 109.90885416666667,
          "value": 0.6376953125
        },
        {
          "ticks": 42212,
          "time": 109.92708333333333,
          "value": 0.6219482421875
        },
        {
          "ticks": 42219,
          "time": 109.9453125,
          "value": 0.606201171875
        },
        {
          "ticks": 42225,
          "time": 109.9609375,
          "value": 0.5904541015625
        },
        {
          "ticks": 42232,
          "time": 109.97916666666667,
          "value": 0.57470703125
        },
        {
          "ticks": 42239,
          "time": 109.99739583333333,
          "value": 0.5589599609375
        },
        {
          "ticks": 42246,
          "time": 110.015625,
          "value": 0.543212890625
        },
        {
          "ticks": 42253,
          "time": 110.03385416666667,
          "value": 0.5274658203125
        },
        {
          "ticks": 42259,
          "time": 110.04947916666667,
          "value": 0.51171875
        },
        {
          "ticks": 42266,
          "time": 110.06770833333333,
          "value": 0.4959716796875
        },
        {
          "ticks": 42273,
          "time": 110.0859375,
          "value": 0.480224609375
        },
        {
          "ticks": 42280,
          "time": 110.10416666666667,
          "value": 0.4644775390625
        },
        {
          "ticks": 42287,
          "time": 110.12239583333333,
          "value": 0.44873046875
        },
        {
          "ticks": 42293,
          "time": 110.13802083333333,
          "value": 0.4329833984375
        },
        {
          "ticks": 42300,
          "time": 110.15625,
          "value": 0.417236328125
        },
        {
          "ticks": 42307,
          "time": 110.17447916666667,
          "value": 0.4014892578125
        },
        {
          "ticks": 42314,
          "time": 110.19270833333333,
          "value": 0.3857421875
        },
        {
          "ticks": 42321,
          "time": 110.2109375,
          "value": 0.3699951171875
        },
        {
          "ticks": 42327,
          "time": 110.2265625,
          "value": 0.354248046875
        },
        {
          "ticks": 42334,
          "time": 110.24479166666667,
          "value": 0.3385009765625
        },
        {
          "ticks": 42341,
          "time": 110.26302083333333,
          "value": 0.32275390625
        },
        {
          "ticks": 42348,
          "time": 110.28125,
          "value": 0.3070068359375
        },
        {
          "ticks": 42355,
          "time": 110.29947916666667,
          "value": 0.291259765625
        },
        {
          "ticks": 42361,
          "time": 110.31510416666667,
          "value": 0.2755126953125
        },
        {
          "ticks": 42368,
          "time": 110.33333333333333,
          "value": 0.259765625
        },
        {
          "ticks": 42375,
          "time": 110.3515625,
          "value": 0.2440185546875
        },
        {
          "ticks": 42382,
          "time": 110.36979166666667,
          "value": 0.228271484375
        },
        {
          "ticks": 42389,
          "time": 110.38802083333333,
          "value": 0.2125244140625
        },
        {
          "ticks": 42395,
          "time": 110.40364583333333,
          "value": 0.19677734375
        },
        {
          "ticks": 42402,
          "time": 110.421875,
          "value": 0.1810302734375
        },
        {
          "ticks": 42409,
          "time": 110.44010416666667,
          "value": 0.165283203125
        },
        {
          "ticks": 42416,
          "time": 110.45833333333333,
          "value": 0.1495361328125
        },
        {
          "ticks": 42423,
          "time": 110.4765625,
          "value": 0.1337890625
        },
        {
          "ticks": 42429,
          "time": 110.4921875,
          "value": 0.1180419921875
        },
        {
          "ticks": 42436,
          "time": 110.51041666666667,
          "value": 0.102294921875
        },
        {
          "ticks": 42443,
          "time": 110.52864583333333,
          "value": 0.0865478515625
        },
        {
          "ticks": 42450,
          "time": 110.546875,
          "value": 0.07080078125
        },
        {
          "ticks": 42457,
          "time": 110.56510416666667,
          "value": 0.0550537109375
        },
        {
          "ticks": 42463,
          "time": 110.58072916666667,
          "value": 0.039306640625
        },
        {
          "ticks": 42470,
          "time": 110.59895833333333,
          "value": 0.0235595703125
        },
        {
          "ticks": 42477,
          "time": 110.6171875,
          "value": 0.0078125
        },
        {
          "ticks": 42484,
          "time": 110.63541666666667,
          "value": -0.0079345703125
        },
        {
          "ticks": 42491,
          "time": 110.65364583333333,
          "value": -0.023681640625
        },
        {
          "ticks": 42498,
          "time": 110.671875,
          "value": -0.0394287109375
        },
        {
          "ticks": 42504,
          "time": 110.6875,
          "value": -0.05517578125
        },
        {
          "ticks": 42511,
          "time": 110.70572916666667,
          "value": -0.0709228515625
        },
        {
          "ticks": 42518,
          "time": 110.72395833333333,
          "value": -0.086669921875
        },
        {
          "ticks": 42525,
          "time": 110.7421875,
          "value": -0.1024169921875
        },
        {
          "ticks": 42532,
          "time": 110.76041666666667,
          "value": -0.1181640625
        },
        {
          "ticks": 42538,
          "time": 110.77604166666667,
          "value": -0.1339111328125
        },
        {
          "ticks": 42545,
          "time": 110.79427083333333,
          "value": -0.149658203125
        },
        {
          "ticks": 42552,
          "time": 110.8125,
          "value": -0.1654052734375
        },
        {
          "ticks": 42559,
          "time": 110.83072916666667,
          "value": -0.18115234375
        },
        {
          "ticks": 42566,
          "time": 110.84895833333333,
          "value": -0.1968994140625
        },
        {
          "ticks": 42572,
          "time": 110.86458333333333,
          "value": -0.212646484375
        },
        {
          "ticks": 42579,
          "time": 110.8828125,
          "value": -0.2283935546875
        },
        {
          "ticks": 42586,
          "time": 110.90104166666667,
          "value": -0.244140625
        },
        {
          "ticks": 42593,
          "time": 110.91927083333333,
          "value": -0.2598876953125
        },
        {
          "ticks": 42600,
          "time": 110.9375,
          "value": -0.275634765625
        },
        {
          "ticks": 42606,
          "time": 110.953125,
          "value": -0.2913818359375
        },
        {
          "ticks": 42613,
          "time": 110.97135416666667,
          "value": -0.30712890625
        },
        {
          "ticks": 42620,
          "time": 110.98958333333333,
          "value": -0.3228759765625
        },
        {
          "ticks": 42627,
          "time": 111.0078125,
          "value": -0.338623046875
        },
        {
          "ticks": 42634,
          "time": 111.02604166666667,
          "value": -0.3543701171875
        },
        {
          "ticks": 42640,
          "time": 111.04166666666667,
          "value": -0.3701171875
        },
        {
          "ticks": 42647,
          "time": 111.05989583333333,
          "value": -0.3858642578125
        },
        {
          "ticks": 42654,
          "time": 111.078125,
          "value": -0.401611328125
        },
        {
          "ticks": 42661,
          "time": 111.09635416666667,
          "value": -0.4173583984375
        },
        {
          "ticks": 42668,
          "time": 111.11458333333333,
          "value": -0.43310546875
        },
        {
          "ticks": 42674,
          "time": 111.13020833333333,
          "value": -0.4488525390625
        },
        {
          "ticks": 42681,
          "time": 111.1484375,
          "value": -0.464599609375
        },
        {
          "ticks": 42688,
          "time": 111.16666666666667,
          "value": -0.4803466796875
        },
        {
          "ticks": 42695,
          "time": 111.18489583333333,
          "value": -0.49609375
        },
        {
          "ticks": 42702,
          "time": 111.203125,
          "value": -0.5118408203125
        },
        {
          "ticks": 42708,
          "time": 111.21875,
          "value": -0.527587890625
        },
        {
          "ticks": 42715,
          "time": 111.23697916666667,
          "value": -0.5433349609375
        },
        {
          "ticks": 42722,
          "time": 111.25520833333333,
          "value": -0.55908203125
        },
        {
          "ticks": 42729,
          "time": 111.2734375,
          "value": -0.5748291015625
        },
        {
          "ticks": 42736,
          "time": 111.29166666666667,
          "value": -0.590576171875
        },
        {
          "ticks": 42742,
          "time": 111.30729166666667,
          "value": -0.6063232421875
        },
        {
          "ticks": 42749,
          "time": 111.32552083333333,
          "value": -0.6220703125
        },
        {
          "ticks": 42756,
          "time": 111.34375,
          "value": -0.6378173828125
        },
        {
          "ticks": 42763,
          "time": 111.36197916666667,
          "value": -0.653564453125
        },
        {
          "ticks": 42770,
          "time": 111.38020833333333,
          "value": -0.6693115234375
        },
        {
          "ticks": 42776,
          "time": 111.39583333333333,
          "value": -0.68505859375
        },
        {
          "ticks": 42783,
          "time": 111.4140625,
          "value": -0.7008056640625
        },
        {
          "ticks": 42790,
          "time": 111.43229166666667,
          "value": -0.716552734375
        },
        {
          "ticks": 42797,
          "time": 111.45052083333333,
          "value": -0.7322998046875
        },
        {
          "ticks": 42804,
          "time": 111.46875,
          "value": -0.748046875
        },
        {
          "ticks": 42810,
          "time": 111.484375,
          "value": -0.7637939453125
        },
        {
          "ticks": 42817,
          "time": 111.50260416666667,
          "value": -0.779541015625
        },
        {
          "ticks": 42824,
          "time": 111.52083333333333,
          "value": -0.7952880859375
        },
        {
          "ticks": 42831,
          "time": 111.5390625,
          "value": -0.81103515625
        },
        {
          "ticks": 42838,
          "time": 111.55729166666667,
          "value": -0.8267822265625
        },
        {
          "ticks": 42844,
          "time": 111.57291666666667,
          "value": -0.842529296875
        },
        {
          "ticks": 42851,
          "time": 111.59114583333333,
          "value": -0.8582763671875
        },
        {
          "ticks": 42858,
          "time": 111.609375,
          "value": -0.8740234375
        },
        {
          "ticks": 42865,
          "time": 111.62760416666667,
          "value": -0.8897705078125
        },
        {
          "ticks": 42872,
          "time": 111.64583333333333,
          "value": -0.905517578125
        },
        {
          "ticks": 42878,
          "time": 111.66145833333333,
          "value": -0.9212646484375
        },
        {
          "ticks": 42885,
          "time": 111.6796875,
          "value": -0.93701171875
        },
        {
          "ticks": 42892,
          "time": 111.69791666666667,
          "value": -0.9527587890625
        },
        {
          "ticks": 42899,
          "time": 111.71614583333333,
          "value": -0.968505859375
        },
        {
          "ticks": 42906,
          "time": 111.734375,
          "value": -0.9842529296875
        },
        {
          "ticks": 42912,
          "time": 111.75,
          "value": -1
        },
        {
          "ticks": 43008,
          "time": 112,
          "value": 0
        }
      ],
      "instrument": {
        "family": "ensemble",
        "number": 52,
        "name": "choir aahs"
      },
      "name": "",
      "notes": [
        {
          "duration": 2,
          "durationTicks": 768,
          "midi": 50,
          "name": "D3",
          "ticks": 3072,
          "time": 8,
          "velocity": 0.6299212598425197
        },
        {
          "duration": 2,
          "durationTicks": 768,
          "midi": 57,
          "name": "A3",
          "ticks": 3072,
          "time": 8,
          "velocity": 0.31496062992125984
        },
        {
          "duration": 0.21875,
          "durationTicks": 84,
          "midi": 38,
          "name": "D2",
          "ticks": 3072,
          "time": 8,
          "velocity": 0.47244094488188976
        },
        {
          "duration": 2,
          "durationTicks": 768,
          "midi": 62,
          "name": "D4",
          "ticks": 3072,
          "time": 8,
          "velocity": 0.31496062992125984
        },
        {
          "duration": 0.21875,
          "durationTicks": 84,
          "midi": 38,
          "name": "D2",
          "ticks": 3168,
          "time": 8.25,
          "velocity": 0.47244094488188976
        },
        {
          "duration": 0.09375,
          "durationTicks": 36,
          "midi": 38,
          "name": "D2",
          "ticks": 3264,
          "time": 8.5,
          "velocity": 0.47244094488188976
        },
        {
          "duration": 0.21875,
          "durationTicks": 84,
          "midi": 38,
          "name": "D2",
          "ticks": 3312,
          "time": 8.625,
          "velocity": 0.47244094488188976
        },
        {
          "duration": 0.21875,
          "durationTicks": 84,
          "midi": 38,
          "name": "D2",
          "ticks": 3408,
          "time": 8.875,
          "velocity": 0.47244094488188976
        },
        {
          "duration": 0.21875,
          "durationTicks": 84,
          "midi": 38,
          "name": "D2",
          "ticks": 3504,
          "time": 9.125,
          "velocity": 0.47244094488188976
        },
        {
          "duration": 0.09375,
          "durationTicks": 36,
          "midi": 38,
          "name": "D2",
          "ticks": 3600,
          "time": 9.375,
          "velocity": 0.47244094488188976
        },
        {
          "duration": 0.09375,
          "durationTicks": 36,
          "midi": 38,
          "name": "D2",
          "ticks": 3648,
          "time": 9.5,
          "velocity": 0.47244094488188976
        },
        {
          "duration": 0.09375,
          "durationTicks": 36,
          "midi": 38,
          "name": "D2",
          "ticks": 3696,
          "time": 9.625,
          "velocity": 0.47244094488188976
        },
        {
          "duration": 0.21875,
          "durationTicks": 84,
          "midi": 38,
          "name": "D2",
          "ticks": 3744,
          "time": 9.75,
          "velocity": 0.47244094488188976
        },
        {
          "duration": 2,
          "durationTicks": 768,
          "midi": 48,
          "name": "C3",
          "ticks": 3840,
          "time": 10,
          "velocity": 0.6299212598425197
        },
        {
          "duration": 2,
          "durationTicks": 768,
          "midi": 55,
          "name": "G3",
          "ticks": 3840,
          "time": 10,
          "velocity": 0.31496062992125984
        },
        {
          "duration": 0.21875,
          "durationTicks": 84,
          "midi": 36,
          "name": "C2",
          "ticks": 3840,
          "time": 10,
          "velocity": 0.47244094488188976
        },
        {
          "duration": 2,
          "durationTicks": 768,
          "midi": 60,
          "name": "C4",
          "ticks": 3840,
          "time": 10,
          "velocity": 0.31496062992125984
        },
        {
          "duration": 0.21875,
          "durationTicks": 84,
          "midi": 36,
          "name": "C2",
          "ticks": 3936,
          "time": 10.25,
          "velocity": 0.47244094488188976
        },
        {
          "duration": 0.09375,
          "durationTicks": 36,
          "midi": 36,
          "name": "C2",
          "ticks": 4032,
          "time": 10.5,
          "velocity": 0.47244094488188976
        },
        {
          "duration": 0.21875,
          "durationTicks": 84,
          "midi": 36,
          "name": "C2",
          "ticks": 4080,
          "time": 10.625,
          "velocity": 0.47244094488188976
        },
        {
          "duration": 0.21875,
          "durationTicks": 84,
          "midi": 36,
          "name": "C2",
          "ticks": 4176,
          "time": 10.875,
          "velocity": 0.47244094488188976
        },
        {
          "duration": 0.21875,
          "durationTicks": 84,
          "midi": 36,
          "name": "C2",
          "ticks": 4272,
          "time": 11.125,
          "velocity": 0.47244094488188976
        },
        {
          "duration": 0.09375,
          "durationTicks": 36,
          "midi": 36,
          "name": "C2",
          "ticks": 4368,
          "time": 11.375,
          "velocity": 0.47244094488188976
        },
        {
          "duration": 0.09375,
          "durationTicks": 36,
          "midi": 36,
          "name": "C2",
          "ticks": 4416,
          "time": 11.5,
          "velocity": 0.47244094488188976
        },
        {
          "duration": 0.09375,
          "durationTicks": 36,
          "midi": 36,
          "name": "C2",
          "ticks": 4464,
          "time": 11.625,
          "velocity": 0.47244094488188976
        },
        {
          "duration": 0.21875,
          "durationTicks": 84,
          "midi": 36,
          "name": "C2",
          "ticks": 4512,
          "time": 11.75,
          "velocity": 0.47244094488188976
        },
        {
          "duration": 2,
          "durationTicks": 768,
          "midi": 47,
          "name": "B2",
          "ticks": 4608,
          "time": 12,
          "velocity": 0.6299212598425197
        },
        {
          "duration": 2,
          "durationTicks": 768,
          "midi": 54,
          "name": "F#3",
          "ticks": 4608,
          "time": 12,
          "velocity": 0.31496062992125984
        },
        {
          "duration": 0.21875,
          "durationTicks": 84,
          "midi": 35,
          "name": "B1",
          "ticks": 4608,
          "time": 12,
          "velocity": 0.47244094488188976
        },
        {
          "duration": 2,
          "durationTicks": 768,
          "midi": 59,
          "name": "B3",
          "ticks": 4608,
          "time": 12,
          "velocity": 0.31496062992125984
        },
        {
          "duration": 0.21875,
          "durationTicks": 84,
          "midi": 35,
          "name": "B1",
          "ticks": 4704,
          "time": 12.25,
          "velocity": 0.47244094488188976
        },
        {
          "duration": 0.09375,
          "durationTicks": 36,
          "midi": 35,
          "name": "B1",
          "ticks": 4800,
          "time": 12.5,
          "velocity": 0.47244094488188976
        },
        {
          "duration": 0.21875,
          "durationTicks": 84,
          "midi": 35,
          "name": "B1",
          "ticks": 4848,
          "time": 12.625,
          "velocity": 0.47244094488188976
        },
        {
          "duration": 0.21875,
          "durationTicks": 84,
          "midi": 35,
          "name": "B1",
          "ticks": 4944,
          "time": 12.875,
          "velocity": 0.47244094488188976
        },
        {
          "duration": 0.21875,
          "durationTicks": 84,
          "midi": 35,
          "name": "B1",
          "ticks": 5040,
          "time": 13.125,
          "velocity": 0.47244094488188976
        },
        {
          "duration": 0.09375,
          "durationTicks": 36,
          "midi": 35,
          "name": "B1",
          "ticks": 5136,
          "time": 13.375,
          "velocity": 0.47244094488188976
        },
        {
          "duration": 0.09375,
          "durationTicks": 36,
          "midi": 35,
          "name": "B1",
          "ticks": 5184,
          "time": 13.5,
          "velocity": 0.47244094488188976
        },
        {
          "duration": 0.09375,
          "durationTicks": 36,
          "midi": 35,
          "name": "B1",
          "ticks": 5232,
          "time": 13.625,
          "velocity": 0.47244094488188976
        },
        {
          "duration": 0.21875,
          "durationTicks": 84,
          "midi": 35,
          "name": "B1",
          "ticks": 5280,
          "time": 13.75,
          "velocity": 0.47244094488188976
        },
        {
          "duration": 1,
          "durationTicks": 384,
          "midi": 46,
          "name": "A#2",
          "ticks": 5376,
          "time": 14,
          "velocity": 0.6299212598425197
        },
        {
          "duration": 1,
          "durationTicks": 384,
          "midi": 53,
          "name": "F3",
          "ticks": 5376,
          "time": 14,
          "velocity": 0.31496062992125984
        },
        {
          "duration": 0.21875,
          "durationTicks": 84,
          "midi": 34,
          "name": "A#1",
          "ticks": 5376,
          "time": 14,
          "velocity": 0.47244094488188976
        },
        {
          "duration": 1,
          "durationTicks": 384,
          "midi": 58,
          "name": "A#3",
          "ticks": 5376,
          "time": 14,
          "velocity": 0.31496062992125984
        },
        {
          "duration": 0.21875,
          "durationTicks": 84,
          "midi": 34,
          "name": "A#1",
          "ticks": 5472,
          "time": 14.25,
          "velocity": 0.47244094488188976
        },
        {
          "duration": 0.09375,
          "durationTicks": 36,
          "midi": 34,
          "name": "A#1",
          "ticks": 5568,
          "time": 14.5,
          "velocity": 0.47244094488188976
        },
        {
          "duration": 0.21875,
          "durationTicks": 84,
          "midi": 34,
          "name": "A#1",
          "ticks": 5616,
          "time": 14.625,
          "velocity": 0.47244094488188976
        },
        {
          "duration": 0.21875,
          "durationTicks": 84,
          "midi": 36,
          "name": "C2",
          "ticks": 5712,
          "time": 14.875,
          "velocity": 0.47244094488188976
        },
        {
          "duration": 1,
          "durationTicks": 384,
          "midi": 48,
          "name": "C3",
          "ticks": 5760,
          "time": 15,
          "velocity": 0.6299212598425197
        },
        {
          "duration": 1,
          "durationTicks": 384,
          "midi": 55,
          "name": "G3",
          "ticks": 5760,
          "time": 15,
          "velocity": 0.31496062992125984
        },
        {
          "duration": 1,
          "durationTicks": 384,
          "midi": 60,
          "name": "C4",
          "ticks": 5760,
          "time": 15,
          "velocity": 0.31496062992125984
        },
        {
          "duration": 0.21875,
          "durationTicks": 84,
          "midi": 36,
          "name": "C2",
          "ticks": 5808,
          "time": 15.125,
          "velocity": 0.47244094488188976
        },
        {
          "duration": 0.09375,
          "durationTicks": 36,
          "midi": 36,
          "name": "C2",
          "ticks": 5904,
          "time": 15.375,
          "velocity": 0.47244094488188976
        },
        {
          "duration": 0.09375,
          "durationTicks": 36,
          "midi": 36,
          "name": "C2",
          "ticks": 5952,
          "time": 15.5,
          "velocity": 0.47244094488188976
        },
        {
          "duration": 0.09375,
          "durationTicks": 36,
          "midi": 36,
          "name": "C2",
          "ticks": 6000,
          "time": 15.625,
          "velocity": 0.47244094488188976
        },
        {
          "duration": 0.21875,
          "durationTicks": 84,
          "midi": 36,
          "name": "C2",
          "ticks": 6048,
          "time": 15.75,
          "velocity": 0.47244094488188976
        },
        {
          "duration": 2,
          "durationTicks": 768,
          "midi": 57,
          "name": "A3",
          "ticks": 6144,
          "time": 16,
          "velocity": 0.31496062992125984
        },
        {
          "duration": 2,
          "durationTicks": 768,
          "midi": 50,
          "name": "D3",
          "ticks": 6144,
          "time": 16,
          "velocity": 0.6299212598425197
        },
        {
          "duration": 2,
          "durationTicks": 768,
          "midi": 62,
          "name": "D4",
          "ticks": 6144,
          "time": 16,
          "velocity": 0.3937007874015748
        },
        {
          "duration": 2,
          "durationTicks": 768,
          "midi": 69,
          "name": "A4",
          "ticks": 6144,
          "time": 16,
          "velocity": 0.3937007874015748
        },
        {
          "duration": 0.21875,
          "durationTicks": 84,
          "midi": 38,
          "name": "D2",
          "ticks": 6144,
          "time": 16,
          "velocity": 0.47244094488188976
        },
        {
          "duration": 0.21875,
          "durationTicks": 84,
          "midi": 38,
          "name": "D2",
          "ticks": 6240,
          "time": 16.25,
          "velocity": 0.47244094488188976
        },
        {
          "duration": 0.09375,
          "durationTicks": 36,
          "midi": 38,
          "name": "D2",
          "ticks": 6336,
          "time": 16.5,
          "velocity": 0.47244094488188976
        },
        {
          "duration": 0.21875,
          "durationTicks": 84,
          "midi": 38,
          "name": "D2",
          "ticks": 6384,
          "time": 16.625,
          "velocity": 0.47244094488188976
        },
        {
          "duration": 0.21875,
          "durationTicks": 84,
          "midi": 38,
          "name": "D2",
          "ticks": 6480,
          "time": 16.875,
          "velocity": 0.47244094488188976
        },
        {
          "duration": 0.21875,
          "durationTicks": 84,
          "midi": 38,
          "name": "D2",
          "ticks": 6576,
          "time": 17.125,
          "velocity": 0.47244094488188976
        },
        {
          "duration": 0.09375,
          "durationTicks": 36,
          "midi": 38,
          "name": "D2",
          "ticks": 6672,
          "time": 17.375,
          "velocity": 0.47244094488188976
        },
        {
          "duration": 0.09375,
          "durationTicks": 36,
          "midi": 38,
          "name": "D2",
          "ticks": 6720,
          "time": 17.5,
          "velocity": 0.47244094488188976
        },
        {
          "duration": 0.09375,
          "durationTicks": 36,
          "midi": 38,
          "name": "D2",
          "ticks": 6768,
          "time": 17.625,
          "velocity": 0.47244094488188976
        },
        {
          "duration": 0.21875,
          "durationTicks": 84,
          "midi": 38,
          "name": "D2",
          "ticks": 6816,
          "time": 17.75,
          "velocity": 0.47244094488188976
        },
        {
          "duration": 2,
          "durationTicks": 768,
          "midi": 55,
          "name": "G3",
          "ticks": 6912,
          "time": 18,
          "velocity": 0.31496062992125984
        },
        {
          "duration": 2,
          "durationTicks": 768,
          "midi": 48,
          "name": "C3",
          "ticks": 6912,
          "time": 18,
          "velocity": 0.6299212598425197
        },
        {
          "duration": 2,
          "durationTicks": 768,
          "midi": 60,
          "name": "C4",
          "ticks": 6912,
          "time": 18,
          "velocity": 0.3937007874015748
        },
        {
          "duration": 2,
          "durationTicks": 768,
          "midi": 67,
          "name": "G4",
          "ticks": 6912,
          "time": 18,
          "velocity": 0.3937007874015748
        },
        {
          "duration": 2,
          "durationTicks": 768,
          "midi": 69,
          "name": "A4",
          "ticks": 6912,
          "time": 18,
          "velocity": 0.23622047244094488
        },
        {
          "duration": 0.21875,
          "durationTicks": 84,
          "midi": 36,
          "name": "C2",
          "ticks": 6912,
          "time": 18,
          "velocity": 0.47244094488188976
        },
        {
          "duration": 0.21875,
          "durationTicks": 84,
          "midi": 36,
          "name": "C2",
          "ticks": 7008,
          "time": 18.25,
          "velocity": 0.47244094488188976
        },
        {
          "duration": 0.09375,
          "durationTicks": 36,
          "midi": 36,
          "name": "C2",
          "ticks": 7104,
          "time": 18.5,
          "velocity": 0.47244094488188976
        },
        {
          "duration": 0.21875,
          "durationTicks": 84,
          "midi": 36,
          "name": "C2",
          "ticks": 7152,
          "time": 18.625,
          "velocity": 0.47244094488188976
        },
        {
          "duration": 0.21875,
          "durationTicks": 84,
          "midi": 36,
          "name": "C2",
          "ticks": 7248,
          "time": 18.875,
          "velocity": 0.47244094488188976
        },
        {
          "duration": 0.21875,
          "durationTicks": 84,
          "midi": 36,
          "name": "C2",
          "ticks": 7344,
          "time": 19.125,
          "velocity": 0.47244094488188976
        },
        {
          "duration": 0.09375,
          "durationTicks": 36,
          "midi": 36,
          "name": "C2",
          "ticks": 7440,
          "time": 19.375,
          "velocity": 0.47244094488188976
        },
        {
          "duration": 0.09375,
          "durationTicks": 36,
          "midi": 36,
          "name": "C2",
          "ticks": 7488,
          "time": 19.5,
          "velocity": 0.47244094488188976
        },
        {
          "duration": 0.09375,
          "durationTicks": 36,
          "midi": 36,
          "name": "C2",
          "ticks": 7536,
          "time": 19.625,
          "velocity": 0.47244094488188976
        },
        {
          "duration": 0.21875,
          "durationTicks": 84,
          "midi": 36,
          "name": "C2",
          "ticks": 7584,
          "time": 19.75,
          "velocity": 0.47244094488188976
        },
        {
          "duration": 2,
          "durationTicks": 768,
          "midi": 54,
          "name": "F#3",
          "ticks": 7680,
          "time": 20,
          "velocity": 0.31496062992125984
        },
        {
          "duration": 2,
          "durationTicks": 768,
          "midi": 47,
          "name": "B2",
          "ticks": 7680,
          "time": 20,
          "velocity": 0.6299212598425197
        },
        {
          "duration": 2,
          "durationTicks": 768,
          "midi": 59,
          "name": "B3",
          "ticks": 7680,
          "time": 20,
          "velocity": 0.3937007874015748
        },
        {
          "duration": 2,
          "durationTicks": 768,
          "midi": 66,
          "name": "F#4",
          "ticks": 7680,
          "time": 20,
          "velocity": 0.3937007874015748
        },
        {
          "duration": 2,
          "durationTicks": 768,
          "midi": 69,
          "name": "A4",
          "ticks": 7680,
          "time": 20,
          "velocity": 0.23622047244094488
        },
        {
          "duration": 0.21875,
          "durationTicks": 84,
          "midi": 35,
          "name": "B1",
          "ticks": 7680,
          "time": 20,
          "velocity": 0.47244094488188976
        },
        {
          "duration": 0.21875,
          "durationTicks": 84,
          "midi": 35,
          "name": "B1",
          "ticks": 7776,
          "time": 20.25,
          "velocity": 0.47244094488188976
        },
        {
          "duration": 0.09375,
          "durationTicks": 36,
          "midi": 35,
          "name": "B1",
          "ticks": 7872,
          "time": 20.5,
          "velocity": 0.47244094488188976
        },
        {
          "duration": 0.21875,
          "durationTicks": 84,
          "midi": 35,
          "name": "B1",
          "ticks": 7920,
          "time": 20.625,
          "velocity": 0.47244094488188976
        },
        {
          "duration": 0.21875,
          "durationTicks": 84,
          "midi": 35,
          "name": "B1",
          "ticks": 8016,
          "time": 20.875,
          "velocity": 0.47244094488188976
        },
        {
          "duration": 0.21875,
          "durationTicks": 84,
          "midi": 35,
          "name": "B1",
          "ticks": 8112,
          "time": 21.125,
          "velocity": 0.47244094488188976
        },
        {
          "duration": 0.09375,
          "durationTicks": 36,
          "midi": 35,
          "name": "B1",
          "ticks": 8208,
          "time": 21.375,
          "velocity": 0.47244094488188976
        },
        {
          "duration": 0.09375,
          "durationTicks": 36,
          "midi": 35,
          "name": "B1",
          "ticks": 8256,
          "time": 21.5,
          "velocity": 0.47244094488188976
        },
        {
          "duration": 0.09375,
          "durationTicks": 36,
          "midi": 35,
          "name": "B1",
          "ticks": 8304,
          "time": 21.625,
          "velocity": 0.47244094488188976
        },
        {
          "duration": 0.21875,
          "durationTicks": 84,
          "midi": 35,
          "name": "B1",
          "ticks": 8352,
          "time": 21.75,
          "velocity": 0.47244094488188976
        },
        {
          "duration": 1,
          "durationTicks": 384,
          "midi": 53,
          "name": "F3",
          "ticks": 8448,
          "time": 22,
          "velocity": 0.31496062992125984
        },
        {
          "duration": 1,
          "durationTicks": 384,
          "midi": 46,
          "name": "A#2",
          "ticks": 8448,
          "time": 22,
          "velocity": 0.6299212598425197
        },
        {
          "duration": 1,
          "durationTicks": 384,
          "midi": 58,
          "name": "A#3",
          "ticks": 8448,
          "time": 22,
          "velocity": 0.3937007874015748
        },
        {
          "duration": 1,
          "durationTicks": 384,
          "midi": 65,
          "name": "F4",
          "ticks": 8448,
          "time": 22,
          "velocity": 0.3937007874015748
        },
        {
          "duration": 0.21875,
          "durationTicks": 84,
          "midi": 34,
          "name": "A#1",
          "ticks": 8448,
          "time": 22,
          "velocity": 0.47244094488188976
        },
        {
          "duration": 0.21875,
          "durationTicks": 84,
          "midi": 34,
          "name": "A#1",
          "ticks": 8544,
          "time": 22.25,
          "velocity": 0.47244094488188976
        },
        {
          "duration": 0.09375,
          "durationTicks": 36,
          "midi": 34,
          "name": "A#1",
          "ticks": 8640,
          "time": 22.5,
          "velocity": 0.47244094488188976
        },
        {
          "duration": 0.21875,
          "durationTicks": 84,
          "midi": 34,
          "name": "A#1",
          "ticks": 8688,
          "time": 22.625,
          "velocity": 0.47244094488188976
        },
        {
          "duration": 0.21875,
          "durationTicks": 84,
          "midi": 36,
          "name": "C2",
          "ticks": 8784,
          "time": 22.875,
          "velocity": 0.47244094488188976
        },
        {
          "duration": 1,
          "durationTicks": 384,
          "midi": 48,
          "name": "C3",
          "ticks": 8832,
          "time": 23,
          "velocity": 0.6299212598425197
        },
        {
          "duration": 1,
          "durationTicks": 384,
          "midi": 67,
          "name": "G4",
          "ticks": 8832,
          "time": 23,
          "velocity": 0.3937007874015748
        },
        {
          "duration": 1,
          "durationTicks": 384,
          "midi": 55,
          "name": "G3",
          "ticks": 8832,
          "time": 23,
          "velocity": 0.31496062992125984
        },
        {
          "duration": 1,
          "durationTicks": 384,
          "midi": 60,
          "name": "C4",
          "ticks": 8832,
          "time": 23,
          "velocity": 0.3937007874015748
        },
        {
          "duration": 0.21875,
          "durationTicks": 84,
          "midi": 36,
          "name": "C2",
          "ticks": 8880,
          "time": 23.125,
          "velocity": 0.47244094488188976
        },
        {
          "duration": 0.09375,
          "durationTicks": 36,
          "midi": 36,
          "name": "C2",
          "ticks": 8976,
          "time": 23.375,
          "velocity": 0.47244094488188976
        },
        {
          "duration": 0.09375,
          "durationTicks": 36,
          "midi": 36,
          "name": "C2",
          "ticks": 9024,
          "time": 23.5,
          "velocity": 0.47244094488188976
        },
        {
          "duration": 0.09375,
          "durationTicks": 36,
          "midi": 36,
          "name": "C2",
          "ticks": 9072,
          "time": 23.625,
          "velocity": 0.47244094488188976
        },
        {
          "duration": 0.21875,
          "durationTicks": 84,
          "midi": 36,
          "name": "C2",
          "ticks": 9120,
          "time": 23.75,
          "velocity": 0.47244094488188976
        },
        {
          "duration": 2,
          "durationTicks": 768,
          "midi": 50,
          "name": "D3",
          "ticks": 9216,
          "time": 24,
          "velocity": 0.6299212598425197
        },
        {
          "duration": 2,
          "durationTicks": 768,
          "midi": 62,
          "name": "D4",
          "ticks": 9216,
          "time": 24,
          "velocity": 0.3937007874015748
        },
        {
          "duration": 2,
          "durationTicks": 768,
          "midi": 57,
          "name": "A3",
          "ticks": 9216,
          "time": 24,
          "velocity": 0.31496062992125984
        },
        {
          "duration": 2,
          "durationTicks": 768,
          "midi": 69,
          "name": "A4",
          "ticks": 9216,
          "time": 24,
          "velocity": 0.3937007874015748
        },
        {
          "duration": 0.21875,
          "durationTicks": 84,
          "midi": 38,
          "name": "D2",
          "ticks": 9216,
          "time": 24,
          "velocity": 0.47244094488188976
        },
        {
          "duration": 0.21875,
          "durationTicks": 84,
          "midi": 38,
          "name": "D2",
          "ticks": 9312,
          "time": 24.25,
          "velocity": 0.47244094488188976
        },
        {
          "duration": 0.09375,
          "durationTicks": 36,
          "midi": 38,
          "name": "D2",
          "ticks": 9408,
          "time": 24.5,
          "velocity": 0.47244094488188976
        },
        {
          "duration": 0.21875,
          "durationTicks": 84,
          "midi": 38,
          "name": "D2",
          "ticks": 9456,
          "time": 24.625,
          "velocity": 0.47244094488188976
        },
        {
          "duration": 0.21875,
          "durationTicks": 84,
          "midi": 38,
          "name": "D2",
          "ticks": 9552,
          "time": 24.875,
          "velocity": 0.47244094488188976
        },
        {
          "duration": 0.21875,
          "durationTicks": 84,
          "midi": 38,
          "name": "D2",
          "ticks": 9648,
          "time": 25.125,
          "velocity": 0.47244094488188976
        },
        {
          "duration": 0.09375,
          "durationTicks": 36,
          "midi": 38,
          "name": "D2",
          "ticks": 9744,
          "time": 25.375,
          "velocity": 0.47244094488188976
        },
        {
          "duration": 0.09375,
          "durationTicks": 36,
          "midi": 38,
          "name": "D2",
          "ticks": 9792,
          "time": 25.5,
          "velocity": 0.47244094488188976
        },
        {
          "duration": 0.09375,
          "durationTicks": 36,
          "midi": 38,
          "name": "D2",
          "ticks": 9840,
          "time": 25.625,
          "velocity": 0.47244094488188976
        },
        {
          "duration": 0.21875,
          "durationTicks": 84,
          "midi": 38,
          "name": "D2",
          "ticks": 9888,
          "time": 25.75,
          "velocity": 0.47244094488188976
        },
        {
          "duration": 2,
          "durationTicks": 768,
          "midi": 55,
          "name": "G3",
          "ticks": 9984,
          "time": 26,
          "velocity": 0.31496062992125984
        },
        {
          "duration": 2,
          "durationTicks": 768,
          "midi": 48,
          "name": "C3",
          "ticks": 9984,
          "time": 26,
          "velocity": 0.6299212598425197
        },
        {
          "duration": 2,
          "durationTicks": 768,
          "midi": 60,
          "name": "C4",
          "ticks": 9984,
          "time": 26,
          "velocity": 0.3937007874015748
        },
        {
          "duration": 2,
          "durationTicks": 768,
          "midi": 69,
          "name": "A4",
          "ticks": 9984,
          "time": 26,
          "velocity": 0.23622047244094488
        },
        {
          "duration": 2,
          "durationTicks": 768,
          "midi": 67,
          "name": "G4",
          "ticks": 9984,
          "time": 26,
          "velocity": 0.3937007874015748
        },
        {
          "duration": 0.21875,
          "durationTicks": 84,
          "midi": 36,
          "name": "C2",
          "ticks": 9984,
          "time": 26,
          "velocity": 0.47244094488188976
        },
        {
          "duration": 0.21875,
          "durationTicks": 84,
          "midi": 36,
          "name": "C2",
          "ticks": 10080,
          "time": 26.25,
          "velocity": 0.47244094488188976
        },
        {
          "duration": 0.09375,
          "durationTicks": 36,
          "midi": 36,
          "name": "C2",
          "ticks": 10176,
          "time": 26.5,
          "velocity": 0.47244094488188976
        },
        {
          "duration": 0.21875,
          "durationTicks": 84,
          "midi": 36,
          "name": "C2",
          "ticks": 10224,
          "time": 26.625,
          "velocity": 0.47244094488188976
        },
        {
          "duration": 0.21875,
          "durationTicks": 84,
          "midi": 36,
          "name": "C2",
          "ticks": 10320,
          "time": 26.875,
          "velocity": 0.47244094488188976
        },
        {
          "duration": 0.21875,
          "durationTicks": 84,
          "midi": 36,
          "name": "C2",
          "ticks": 10416,
          "time": 27.125,
          "velocity": 0.47244094488188976
        },
        {
          "duration": 0.09375,
          "durationTicks": 36,
          "midi": 36,
          "name": "C2",
          "ticks": 10512,
          "time": 27.375,
          "velocity": 0.47244094488188976
        },
        {
          "duration": 0.09375,
          "durationTicks": 36,
          "midi": 36,
          "name": "C2",
          "ticks": 10560,
          "time": 27.5,
          "velocity": 0.47244094488188976
        },
        {
          "duration": 0.09375,
          "durationTicks": 36,
          "midi": 36,
          "name": "C2",
          "ticks": 10608,
          "time": 27.625,
          "velocity": 0.47244094488188976
        },
        {
          "duration": 0.21875,
          "durationTicks": 84,
          "midi": 36,
          "name": "C2",
          "ticks": 10656,
          "time": 27.75,
          "velocity": 0.47244094488188976
        },
        {
          "duration": 2,
          "durationTicks": 768,
          "midi": 54,
          "name": "F#3",
          "ticks": 10752,
          "time": 28,
          "velocity": 0.31496062992125984
        },
        {
          "duration": 2,
          "durationTicks": 768,
          "midi": 47,
          "name": "B2",
          "ticks": 10752,
          "time": 28,
          "velocity": 0.6299212598425197
        },
        {
          "duration": 2,
          "durationTicks": 768,
          "midi": 59,
          "name": "B3",
          "ticks": 10752,
          "time": 28,
          "velocity": 0.3937007874015748
        },
        {
          "duration": 2,
          "durationTicks": 768,
          "midi": 69,
          "name": "A4",
          "ticks": 10752,
          "time": 28,
          "velocity": 0.23622047244094488
        },
        {
          "duration": 2,
          "durationTicks": 768,
          "midi": 66,
          "name": "F#4",
          "ticks": 10752,
          "time": 28,
          "velocity": 0.3937007874015748
        },
        {
          "duration": 0.21875,
          "durationTicks": 84,
          "midi": 35,
          "name": "B1",
          "ticks": 10752,
          "time": 28,
          "velocity": 0.47244094488188976
        },
        {
          "duration": 0.21875,
          "durationTicks": 84,
          "midi": 35,
          "name": "B1",
          "ticks": 10848,
          "time": 28.25,
          "velocity": 0.47244094488188976
        },
        {
          "duration": 0.09375,
          "durationTicks": 36,
          "midi": 35,
          "name": "B1",
          "ticks": 10944,
          "time": 28.5,
          "velocity": 0.47244094488188976
        },
        {
          "duration": 0.21875,
          "durationTicks": 84,
          "midi": 35,
          "name": "B1",
          "ticks": 10992,
          "time": 28.625,
          "velocity": 0.47244094488188976
        },
        {
          "duration": 0.21875,
          "durationTicks": 84,
          "midi": 35,
          "name": "B1",
          "ticks": 11088,
          "time": 28.875,
          "velocity": 0.47244094488188976
        },
        {
          "duration": 0.21875,
          "durationTicks": 84,
          "midi": 35,
          "name": "B1",
          "ticks": 11184,
          "time": 29.125,
          "velocity": 0.47244094488188976
        },
        {
          "duration": 0.09375,
          "durationTicks": 36,
          "midi": 35,
          "name": "B1",
          "ticks": 11280,
          "time": 29.375,
          "velocity": 0.47244094488188976
        },
        {
          "duration": 0.09375,
          "durationTicks": 36,
          "midi": 35,
          "name": "B1",
          "ticks": 11328,
          "time": 29.5,
          "velocity": 0.47244094488188976
        },
        {
          "duration": 0.09375,
          "durationTicks": 36,
          "midi": 35,
          "name": "B1",
          "ticks": 11376,
          "time": 29.625,
          "velocity": 0.47244094488188976
        },
        {
          "duration": 0.21875,
          "durationTicks": 84,
          "midi": 35,
          "name": "B1",
          "ticks": 11424,
          "time": 29.75,
          "velocity": 0.47244094488188976
        },
        {
          "duration": 1,
          "durationTicks": 384,
          "midi": 53,
          "name": "F3",
          "ticks": 11520,
          "time": 30,
          "velocity": 0.31496062992125984
        },
        {
          "duration": 1,
          "durationTicks": 384,
          "midi": 46,
          "name": "A#2",
          "ticks": 11520,
          "time": 30,
          "velocity": 0.6299212598425197
        },
        {
          "duration": 1,
          "durationTicks": 384,
          "midi": 58,
          "name": "A#3",
          "ticks": 11520,
          "time": 30,
          "velocity": 0.3937007874015748
        },
        {
          "duration": 1,
          "durationTicks": 384,
          "midi": 65,
          "name": "F4",
          "ticks": 11520,
          "time": 30,
          "velocity": 0.3937007874015748
        },
        {
          "duration": 0.21875,
          "durationTicks": 84,
          "midi": 34,
          "name": "A#1",
          "ticks": 11520,
          "time": 30,
          "velocity": 0.47244094488188976
        },
        {
          "duration": 0.21875,
          "durationTicks": 84,
          "midi": 34,
          "name": "A#1",
          "ticks": 11616,
          "time": 30.25,
          "velocity": 0.47244094488188976
        },
        {
          "duration": 0.09375,
          "durationTicks": 36,
          "midi": 34,
          "name": "A#1",
          "ticks": 11712,
          "time": 30.5,
          "velocity": 0.47244094488188976
        },
        {
          "duration": 0.21875,
          "durationTicks": 84,
          "midi": 34,
          "name": "A#1",
          "ticks": 11760,
          "time": 30.625,
          "velocity": 0.47244094488188976
        },
        {
          "duration": 0.21875,
          "durationTicks": 84,
          "midi": 36,
          "name": "C2",
          "ticks": 11856,
          "time": 30.875,
          "velocity": 0.47244094488188976
        },
        {
          "duration": 1,
          "durationTicks": 384,
          "midi": 48,
          "name": "C3",
          "ticks": 11904,
          "time": 31,
          "velocity": 0.6299212598425197
        },
        {
          "duration": 1,
          "durationTicks": 384,
          "midi": 67,
          "name": "G4",
          "ticks": 11904,
          "time": 31,
          "velocity": 0.3937007874015748
        },
        {
          "duration": 1,
          "durationTicks": 384,
          "midi": 55,
          "name": "G3",
          "ticks": 11904,
          "time": 31,
          "velocity": 0.31496062992125984
        },
        {
          "duration": 1,
          "durationTicks": 384,
          "midi": 60,
          "name": "C4",
          "ticks": 11904,
          "time": 31,
          "velocity": 0.3937007874015748
        },
        {
          "duration": 0.21875,
          "durationTicks": 84,
          "midi": 36,
          "name": "C2",
          "ticks": 11952,
          "time": 31.125,
          "velocity": 0.47244094488188976
        },
        {
          "duration": 0.09375,
          "durationTicks": 36,
          "midi": 36,
          "name": "C2",
          "ticks": 12048,
          "time": 31.375,
          "velocity": 0.47244094488188976
        },
        {
          "duration": 0.09375,
          "durationTicks": 36,
          "midi": 36,
          "name": "C2",
          "ticks": 12096,
          "time": 31.5,
          "velocity": 0.47244094488188976
        },
        {
          "duration": 0.09375,
          "durationTicks": 36,
          "midi": 36,
          "name": "C2",
          "ticks": 12144,
          "time": 31.625,
          "velocity": 0.47244094488188976
        },
        {
          "duration": 0.21875,
          "durationTicks": 84,
          "midi": 36,
          "name": "C2",
          "ticks": 12192,
          "time": 31.75,
          "velocity": 0.47244094488188976
        },
        {
          "duration": 2,
          "durationTicks": 768,
          "midi": 50,
          "name": "D3",
          "ticks": 12288,
          "time": 32,
          "velocity": 0.47244094488188976
        },
        {
          "duration": 0.21875,
          "durationTicks": 84,
          "midi": 38,
          "name": "D2",
          "ticks": 12288,
          "time": 32,
          "velocity": 0.47244094488188976
        },
        {
          "duration": 0.21875,
          "durationTicks": 84,
          "midi": 38,
          "name": "D2",
          "ticks": 12384,
          "time": 32.25,
          "velocity": 0.47244094488188976
        },
        {
          "duration": 0.09375,
          "durationTicks": 36,
          "midi": 38,
          "name": "D2",
          "ticks": 12480,
          "time": 32.5,
          "velocity": 0.47244094488188976
        },
        {
          "duration": 0.21875,
          "durationTicks": 84,
          "midi": 38,
          "name": "D2",
          "ticks": 12528,
          "time": 32.625,
          "velocity": 0.47244094488188976
        },
        {
          "duration": 0.21875,
          "durationTicks": 84,
          "midi": 38,
          "name": "D2",
          "ticks": 12624,
          "time": 32.875,
          "velocity": 0.47244094488188976
        },
        {
          "duration": 0.21875,
          "durationTicks": 84,
          "midi": 38,
          "name": "D2",
          "ticks": 12720,
          "time": 33.125,
          "velocity": 0.47244094488188976
        },
        {
          "duration": 0.09375,
          "durationTicks": 36,
          "midi": 38,
          "name": "D2",
          "ticks": 12816,
          "time": 33.375,
          "velocity": 0.47244094488188976
        },
        {
          "duration": 0.09375,
          "durationTicks": 36,
          "midi": 38,
          "name": "D2",
          "ticks": 12864,
          "time": 33.5,
          "velocity": 0.47244094488188976
        },
        {
          "duration": 0.09375,
          "durationTicks": 36,
          "midi": 38,
          "name": "D2",
          "ticks": 12912,
          "time": 33.625,
          "velocity": 0.47244094488188976
        },
        {
          "duration": 0.21875,
          "durationTicks": 84,
          "midi": 38,
          "name": "D2",
          "ticks": 12960,
          "time": 33.75,
          "velocity": 0.47244094488188976
        },
        {
          "duration": 2,
          "durationTicks": 768,
          "midi": 48,
          "name": "C3",
          "ticks": 13056,
          "time": 34,
          "velocity": 0.47244094488188976
        },
        {
          "duration": 0.21875,
          "durationTicks": 84,
          "midi": 36,
          "name": "C2",
          "ticks": 13056,
          "time": 34,
          "velocity": 0.47244094488188976
        },
        {
          "duration": 0.21875,
          "durationTicks": 84,
          "midi": 36,
          "name": "C2",
          "ticks": 13152,
          "time": 34.25,
          "velocity": 0.47244094488188976
        },
        {
          "duration": 0.09375,
          "durationTicks": 36,
          "midi": 36,
          "name": "C2",
          "ticks": 13248,
          "time": 34.5,
          "velocity": 0.47244094488188976
        },
        {
          "duration": 0.21875,
          "durationTicks": 84,
          "midi": 36,
          "name": "C2",
          "ticks": 13296,
          "time": 34.625,
          "velocity": 0.47244094488188976
        },
        {
          "duration": 0.21875,
          "durationTicks": 84,
          "midi": 36,
          "name": "C2",
          "ticks": 13392,
          "time": 34.875,
          "velocity": 0.47244094488188976
        },
        {
          "duration": 0.21875,
          "durationTicks": 84,
          "midi": 36,
          "name": "C2",
          "ticks": 13488,
          "time": 35.125,
          "velocity": 0.47244094488188976
        },
        {
          "duration": 0.09375,
          "durationTicks": 36,
          "midi": 36,
          "name": "C2",
          "ticks": 13584,
          "time": 35.375,
          "velocity": 0.47244094488188976
        },
        {
          "duration": 0.09375,
          "durationTicks": 36,
          "midi": 36,
          "name": "C2",
          "ticks": 13632,
          "time": 35.5,
          "velocity": 0.47244094488188976
        },
        {
          "duration": 0.09375,
          "durationTicks": 36,
          "midi": 36,
          "name": "C2",
          "ticks": 13680,
          "time": 35.625,
          "velocity": 0.47244094488188976
        },
        {
          "duration": 0.21875,
          "durationTicks": 84,
          "midi": 36,
          "name": "C2",
          "ticks": 13728,
          "time": 35.75,
          "velocity": 0.47244094488188976
        },
        {
          "duration": 2,
          "durationTicks": 768,
          "midi": 47,
          "name": "B2",
          "ticks": 13824,
          "time": 36,
          "velocity": 0.47244094488188976
        },
        {
          "duration": 0.21875,
          "durationTicks": 84,
          "midi": 35,
          "name": "B1",
          "ticks": 13824,
          "time": 36,
          "velocity": 0.47244094488188976
        },
        {
          "duration": 0.21875,
          "durationTicks": 84,
          "midi": 35,
          "name": "B1",
          "ticks": 13920,
          "time": 36.25,
          "velocity": 0.47244094488188976
        },
        {
          "duration": 0.09375,
          "durationTicks": 36,
          "midi": 35,
          "name": "B1",
          "ticks": 14016,
          "time": 36.5,
          "velocity": 0.47244094488188976
        },
        {
          "duration": 0.21875,
          "durationTicks": 84,
          "midi": 35,
          "name": "B1",
          "ticks": 14064,
          "time": 36.625,
          "velocity": 0.47244094488188976
        },
        {
          "duration": 0.21875,
          "durationTicks": 84,
          "midi": 35,
          "name": "B1",
          "ticks": 14160,
          "time": 36.875,
          "velocity": 0.47244094488188976
        },
        {
          "duration": 0.21875,
          "durationTicks": 84,
          "midi": 35,
          "name": "B1",
          "ticks": 14256,
          "time": 37.125,
          "velocity": 0.47244094488188976
        },
        {
          "duration": 0.09375,
          "durationTicks": 36,
          "midi": 35,
          "name": "B1",
          "ticks": 14352,
          "time": 37.375,
          "velocity": 0.47244094488188976
        },
        {
          "duration": 0.09375,
          "durationTicks": 36,
          "midi": 35,
          "name": "B1",
          "ticks": 14400,
          "time": 37.5,
          "velocity": 0.47244094488188976
        },
        {
          "duration": 0.09375,
          "durationTicks": 36,
          "midi": 35,
          "name": "B1",
          "ticks": 14448,
          "time": 37.625,
          "velocity": 0.47244094488188976
        },
        {
          "duration": 0.21875,
          "durationTicks": 84,
          "midi": 35,
          "name": "B1",
          "ticks": 14496,
          "time": 37.75,
          "velocity": 0.47244094488188976
        },
        {
          "duration": 1,
          "durationTicks": 384,
          "midi": 46,
          "name": "A#2",
          "ticks": 14592,
          "time": 38,
          "velocity": 0.47244094488188976
        },
        {
          "duration": 0.21875,
          "durationTicks": 84,
          "midi": 34,
          "name": "A#1",
          "ticks": 14592,
          "time": 38,
          "velocity": 0.47244094488188976
        },
        {
          "duration": 0.21875,
          "durationTicks": 84,
          "midi": 34,
          "name": "A#1",
          "ticks": 14688,
          "time": 38.25,
          "velocity": 0.47244094488188976
        },
        {
          "duration": 0.09375,
          "durationTicks": 36,
          "midi": 34,
          "name": "A#1",
          "ticks": 14784,
          "time": 38.5,
          "velocity": 0.47244094488188976
        },
        {
          "duration": 0.21875,
          "durationTicks": 84,
          "midi": 34,
          "name": "A#1",
          "ticks": 14832,
          "time": 38.625,
          "velocity": 0.47244094488188976
        },
        {
          "duration": 0.21875,
          "durationTicks": 84,
          "midi": 36,
          "name": "C2",
          "ticks": 14928,
          "time": 38.875,
          "velocity": 0.47244094488188976
        },
        {
          "duration": 1,
          "durationTicks": 384,
          "midi": 48,
          "name": "C3",
          "ticks": 14976,
          "time": 39,
          "velocity": 0.47244094488188976
        },
        {
          "duration": 0.21875,
          "durationTicks": 84,
          "midi": 36,
          "name": "C2",
          "ticks": 15024,
          "time": 39.125,
          "velocity": 0.47244094488188976
        },
        {
          "duration": 0.09375,
          "durationTicks": 36,
          "midi": 36,
          "name": "C2",
          "ticks": 15120,
          "time": 39.375,
          "velocity": 0.47244094488188976
        },
        {
          "duration": 0.09375,
          "durationTicks": 36,
          "midi": 36,
          "name": "C2",
          "ticks": 15168,
          "time": 39.5,
          "velocity": 0.47244094488188976
        },
        {
          "duration": 0.09375,
          "durationTicks": 36,
          "midi": 36,
          "name": "C2",
          "ticks": 15216,
          "time": 39.625,
          "velocity": 0.47244094488188976
        },
        {
          "duration": 0.21875,
          "durationTicks": 84,
          "midi": 36,
          "name": "C2",
          "ticks": 15264,
          "time": 39.75,
          "velocity": 0.47244094488188976
        },
        {
          "duration": 2,
          "durationTicks": 768,
          "midi": 69,
          "name": "A4",
          "ticks": 15360,
          "time": 40,
          "velocity": 0.3937007874015748
        },
        {
          "duration": 0.21875,
          "durationTicks": 84,
          "midi": 38,
          "name": "D2",
          "ticks": 15360,
          "time": 40,
          "velocity": 0.47244094488188976
        },
        {
          "duration": 2,
          "durationTicks": 768,
          "midi": 50,
          "name": "D3",
          "ticks": 15360,
          "time": 40,
          "velocity": 0.6299212598425197
        },
        {
          "duration": 2,
          "durationTicks": 768,
          "midi": 57,
          "name": "A3",
          "ticks": 15360,
          "time": 40,
          "velocity": 0.31496062992125984
        },
        {
          "duration": 2,
          "durationTicks": 768,
          "midi": 62,
          "name": "D4",
          "ticks": 15360,
          "time": 40,
          "velocity": 0.3937007874015748
        },
        {
          "duration": 0.21875,
          "durationTicks": 84,
          "midi": 38,
          "name": "D2",
          "ticks": 15456,
          "time": 40.25,
          "velocity": 0.47244094488188976
        },
        {
          "duration": 0.09375,
          "durationTicks": 36,
          "midi": 38,
          "name": "D2",
          "ticks": 15552,
          "time": 40.5,
          "velocity": 0.47244094488188976
        },
        {
          "duration": 0.21875,
          "durationTicks": 84,
          "midi": 38,
          "name": "D2",
          "ticks": 15600,
          "time": 40.625,
          "velocity": 0.47244094488188976
        },
        {
          "duration": 0.21875,
          "durationTicks": 84,
          "midi": 38,
          "name": "D2",
          "ticks": 15696,
          "time": 40.875,
          "velocity": 0.47244094488188976
        },
        {
          "duration": 0.21875,
          "durationTicks": 84,
          "midi": 38,
          "name": "D2",
          "ticks": 15792,
          "time": 41.125,
          "velocity": 0.47244094488188976
        },
        {
          "duration": 0.09375,
          "durationTicks": 36,
          "midi": 38,
          "name": "D2",
          "ticks": 15888,
          "time": 41.375,
          "velocity": 0.47244094488188976
        },
        {
          "duration": 0.09375,
          "durationTicks": 36,
          "midi": 38,
          "name": "D2",
          "ticks": 15936,
          "time": 41.5,
          "velocity": 0.47244094488188976
        },
        {
          "duration": 0.09375,
          "durationTicks": 36,
          "midi": 38,
          "name": "D2",
          "ticks": 15984,
          "time": 41.625,
          "velocity": 0.47244094488188976
        },
        {
          "duration": 0.21875,
          "durationTicks": 84,
          "midi": 38,
          "name": "D2",
          "ticks": 16032,
          "time": 41.75,
          "velocity": 0.47244094488188976
        },
        {
          "duration": 2,
          "durationTicks": 768,
          "midi": 60,
          "name": "C4",
          "ticks": 16128,
          "time": 42,
          "velocity": 0.3937007874015748
        },
        {
          "duration": 2,
          "durationTicks": 768,
          "midi": 67,
          "name": "G4",
          "ticks": 16128,
          "time": 42,
          "velocity": 0.3937007874015748
        },
        {
          "duration": 2,
          "durationTicks": 768,
          "midi": 69,
          "name": "A4",
          "ticks": 16128,
          "time": 42,
          "velocity": 0.23622047244094488
        },
        {
          "duration": 0.21875,
          "durationTicks": 84,
          "midi": 36,
          "name": "C2",
          "ticks": 16128,
          "time": 42,
          "velocity": 0.47244094488188976
        },
        {
          "duration": 2,
          "durationTicks": 768,
          "midi": 48,
          "name": "C3",
          "ticks": 16128,
          "time": 42,
          "velocity": 0.6299212598425197
        },
        {
          "duration": 2,
          "durationTicks": 768,
          "midi": 55,
          "name": "G3",
          "ticks": 16128,
          "time": 42,
          "velocity": 0.31496062992125984
        },
        {
          "duration": 0.21875,
          "durationTicks": 84,
          "midi": 36,
          "name": "C2",
          "ticks": 16224,
          "time": 42.25,
          "velocity": 0.47244094488188976
        },
        {
          "duration": 0.09375,
          "durationTicks": 36,
          "midi": 36,
          "name": "C2",
          "ticks": 16320,
          "time": 42.5,
          "velocity": 0.47244094488188976
        },
        {
          "duration": 0.21875,
          "durationTicks": 84,
          "midi": 36,
          "name": "C2",
          "ticks": 16368,
          "time": 42.625,
          "velocity": 0.47244094488188976
        },
        {
          "duration": 0.21875,
          "durationTicks": 84,
          "midi": 36,
          "name": "C2",
          "ticks": 16464,
          "time": 42.875,
          "velocity": 0.47244094488188976
        },
        {
          "duration": 0.21875,
          "durationTicks": 84,
          "midi": 36,
          "name": "C2",
          "ticks": 16560,
          "time": 43.125,
          "velocity": 0.47244094488188976
        },
        {
          "duration": 0.09375,
          "durationTicks": 36,
          "midi": 36,
          "name": "C2",
          "ticks": 16656,
          "time": 43.375,
          "velocity": 0.47244094488188976
        },
        {
          "duration": 0.09375,
          "durationTicks": 36,
          "midi": 36,
          "name": "C2",
          "ticks": 16704,
          "time": 43.5,
          "velocity": 0.47244094488188976
        },
        {
          "duration": 0.09375,
          "durationTicks": 36,
          "midi": 36,
          "name": "C2",
          "ticks": 16752,
          "time": 43.625,
          "velocity": 0.47244094488188976
        },
        {
          "duration": 0.21875,
          "durationTicks": 84,
          "midi": 36,
          "name": "C2",
          "ticks": 16800,
          "time": 43.75,
          "velocity": 0.47244094488188976
        },
        {
          "duration": 2,
          "durationTicks": 768,
          "midi": 59,
          "name": "B3",
          "ticks": 16896,
          "time": 44,
          "velocity": 0.3937007874015748
        },
        {
          "duration": 2,
          "durationTicks": 768,
          "midi": 66,
          "name": "F#4",
          "ticks": 16896,
          "time": 44,
          "velocity": 0.3937007874015748
        },
        {
          "duration": 2,
          "durationTicks": 768,
          "midi": 69,
          "name": "A4",
          "ticks": 16896,
          "time": 44,
          "velocity": 0.23622047244094488
        },
        {
          "duration": 0.21875,
          "durationTicks": 84,
          "midi": 35,
          "name": "B1",
          "ticks": 16896,
          "time": 44,
          "velocity": 0.47244094488188976
        },
        {
          "duration": 2,
          "durationTicks": 768,
          "midi": 47,
          "name": "B2",
          "ticks": 16896,
          "time": 44,
          "velocity": 0.6299212598425197
        },
        {
          "duration": 2,
          "durationTicks": 768,
          "midi": 54,
          "name": "F#3",
          "ticks": 16896,
          "time": 44,
          "velocity": 0.31496062992125984
        },
        {
          "duration": 0.21875,
          "durationTicks": 84,
          "midi": 35,
          "name": "B1",
          "ticks": 16992,
          "time": 44.25,
          "velocity": 0.47244094488188976
        },
        {
          "duration": 0.09375,
          "durationTicks": 36,
          "midi": 35,
          "name": "B1",
          "ticks": 17088,
          "time": 44.5,
          "velocity": 0.47244094488188976
        },
        {
          "duration": 0.21875,
          "durationTicks": 84,
          "midi": 35,
          "name": "B1",
          "ticks": 17136,
          "time": 44.625,
          "velocity": 0.47244094488188976
        },
        {
          "duration": 0.21875,
          "durationTicks": 84,
          "midi": 35,
          "name": "B1",
          "ticks": 17232,
          "time": 44.875,
          "velocity": 0.47244094488188976
        },
        {
          "duration": 0.21875,
          "durationTicks": 84,
          "midi": 35,
          "name": "B1",
          "ticks": 17328,
          "time": 45.125,
          "velocity": 0.47244094488188976
        },
        {
          "duration": 0.09375,
          "durationTicks": 36,
          "midi": 35,
          "name": "B1",
          "ticks": 17424,
          "time": 45.375,
          "velocity": 0.47244094488188976
        },
        {
          "duration": 0.09375,
          "durationTicks": 36,
          "midi": 35,
          "name": "B1",
          "ticks": 17472,
          "time": 45.5,
          "velocity": 0.47244094488188976
        },
        {
          "duration": 0.09375,
          "durationTicks": 36,
          "midi": 35,
          "name": "B1",
          "ticks": 17520,
          "time": 45.625,
          "velocity": 0.47244094488188976
        },
        {
          "duration": 0.21875,
          "durationTicks": 84,
          "midi": 35,
          "name": "B1",
          "ticks": 17568,
          "time": 45.75,
          "velocity": 0.47244094488188976
        },
        {
          "duration": 1,
          "durationTicks": 384,
          "midi": 65,
          "name": "F4",
          "ticks": 17664,
          "time": 46,
          "velocity": 0.3937007874015748
        },
        {
          "duration": 0.21875,
          "durationTicks": 84,
          "midi": 34,
          "name": "A#1",
          "ticks": 17664,
          "time": 46,
          "velocity": 0.47244094488188976
        },
        {
          "duration": 1,
          "durationTicks": 384,
          "midi": 46,
          "name": "A#2",
          "ticks": 17664,
          "time": 46,
          "velocity": 0.6299212598425197
        },
        {
          "duration": 1,
          "durationTicks": 384,
          "midi": 53,
          "name": "F3",
          "ticks": 17664,
          "time": 46,
          "velocity": 0.31496062992125984
        },
        {
          "duration": 1,
          "durationTicks": 384,
          "midi": 58,
          "name": "A#3",
          "ticks": 17664,
          "time": 46,
          "velocity": 0.3937007874015748
        },
        {
          "duration": 0.21875,
          "durationTicks": 84,
          "midi": 34,
          "name": "A#1",
          "ticks": 17760,
          "time": 46.25,
          "velocity": 0.47244094488188976
        },
        {
          "duration": 0.09375,
          "durationTicks": 36,
          "midi": 34,
          "name": "A#1",
          "ticks": 17856,
          "time": 46.5,
          "velocity": 0.47244094488188976
        },
        {
          "duration": 0.21875,
          "durationTicks": 84,
          "midi": 34,
          "name": "A#1",
          "ticks": 17904,
          "time": 46.625,
          "velocity": 0.47244094488188976
        },
        {
          "duration": 0.21875,
          "durationTicks": 84,
          "midi": 36,
          "name": "C2",
          "ticks": 18000,
          "time": 46.875,
          "velocity": 0.47244094488188976
        },
        {
          "duration": 1,
          "durationTicks": 384,
          "midi": 60,
          "name": "C4",
          "ticks": 18048,
          "time": 47,
          "velocity": 0.3937007874015748
        },
        {
          "duration": 1,
          "durationTicks": 384,
          "midi": 67,
          "name": "G4",
          "ticks": 18048,
          "time": 47,
          "velocity": 0.3937007874015748
        },
        {
          "duration": 1,
          "durationTicks": 384,
          "midi": 48,
          "name": "C3",
          "ticks": 18048,
          "time": 47,
          "velocity": 0.6299212598425197
        },
        {
          "duration": 1,
          "durationTicks": 384,
          "midi": 55,
          "name": "G3",
          "ticks": 18048,
          "time": 47,
          "velocity": 0.31496062992125984
        },
        {
          "duration": 0.21875,
          "durationTicks": 84,
          "midi": 36,
          "name": "C2",
          "ticks": 18096,
          "time": 47.125,
          "velocity": 0.47244094488188976
        },
        {
          "duration": 0.09375,
          "durationTicks": 36,
          "midi": 36,
          "name": "C2",
          "ticks": 18192,
          "time": 47.375,
          "velocity": 0.47244094488188976
        },
        {
          "duration": 0.09375,
          "durationTicks": 36,
          "midi": 36,
          "name": "C2",
          "ticks": 18240,
          "time": 47.5,
          "velocity": 0.47244094488188976
        },
        {
          "duration": 0.09375,
          "durationTicks": 36,
          "midi": 36,
          "name": "C2",
          "ticks": 18288,
          "time": 47.625,
          "velocity": 0.47244094488188976
        },
        {
          "duration": 0.21875,
          "durationTicks": 84,
          "midi": 36,
          "name": "C2",
          "ticks": 18336,
          "time": 47.75,
          "velocity": 0.47244094488188976
        },
        {
          "duration": 2,
          "durationTicks": 768,
          "midi": 58,
          "name": "A#3",
          "ticks": 18432,
          "time": 48,
          "velocity": 0.47244094488188976
        },
        {
          "duration": 2,
          "durationTicks": 768,
          "midi": 70,
          "name": "A#4",
          "ticks": 18432,
          "time": 48,
          "velocity": 0.3937007874015748
        },
        {
          "duration": 2,
          "durationTicks": 768,
          "midi": 62,
          "name": "D4",
          "ticks": 18432,
          "time": 48,
          "velocity": 0.31496062992125984
        },
        {
          "duration": 2,
          "durationTicks": 768,
          "midi": 46,
          "name": "A#2",
          "ticks": 18432,
          "time": 48,
          "velocity": 0.5511811023622047
        },
        {
          "duration": 2,
          "durationTicks": 768,
          "midi": 65,
          "name": "F4",
          "ticks": 18432,
          "time": 48,
          "velocity": 0.47244094488188976
        },
        {
          "duration": 2,
          "durationTicks": 768,
          "midi": 60,
          "name": "C4",
          "ticks": 19200,
          "time": 50,
          "velocity": 0.47244094488188976
        },
        {
          "duration": 2,
          "durationTicks": 768,
          "midi": 72,
          "name": "C5",
          "ticks": 19200,
          "time": 50,
          "velocity": 0.3937007874015748
        },
        {
          "duration": 2,
          "durationTicks": 768,
          "midi": 48,
          "name": "C3",
          "ticks": 19200,
          "time": 50,
          "velocity": 0.5511811023622047
        },
        {
          "duration": 2,
          "durationTicks": 768,
          "midi": 64,
          "name": "E4",
          "ticks": 19200,
          "time": 50,
          "velocity": 0.31496062992125984
        },
        {
          "duration": 2,
          "durationTicks": 768,
          "midi": 67,
          "name": "G4",
          "ticks": 19200,
          "time": 50,
          "velocity": 0.47244094488188976
        },
        {
          "duration": 2,
          "durationTicks": 768,
          "midi": 65,
          "name": "F4",
          "ticks": 19968,
          "time": 52,
          "velocity": 0.31496062992125984
        },
        {
          "duration": 2,
          "durationTicks": 768,
          "midi": 74,
          "name": "D5",
          "ticks": 19968,
          "time": 52,
          "velocity": 0.3937007874015748
        },
        {
          "duration": 2,
          "durationTicks": 768,
          "midi": 50,
          "name": "D3",
          "ticks": 19968,
          "time": 52,
          "velocity": 0.5511811023622047
        },
        {
          "duration": 2,
          "durationTicks": 768,
          "midi": 69,
          "name": "A4",
          "ticks": 19968,
          "time": 52,
          "velocity": 0.47244094488188976
        },
        {
          "duration": 2,
          "durationTicks": 768,
          "midi": 62,
          "name": "D4",
          "ticks": 19968,
          "time": 52,
          "velocity": 0.47244094488188976
        },
        {
          "duration": 1,
          "durationTicks": 384,
          "midi": 73,
          "name": "C#5",
          "ticks": 20736,
          "time": 54,
          "velocity": 0.3937007874015748
        },
        {
          "duration": 1,
          "durationTicks": 384,
          "midi": 65,
          "name": "F4",
          "ticks": 20736,
          "time": 54,
          "velocity": 0.31496062992125984
        },
        {
          "duration": 1,
          "durationTicks": 384,
          "midi": 49,
          "name": "C#3",
          "ticks": 20736,
          "time": 54,
          "velocity": 0.5511811023622047
        },
        {
          "duration": 1,
          "durationTicks": 384,
          "midi": 68,
          "name": "G#4",
          "ticks": 20736,
          "time": 54,
          "velocity": 0.47244094488188976
        },
        {
          "duration": 1,
          "durationTicks": 384,
          "midi": 61,
          "name": "C#4",
          "ticks": 20736,
          "time": 54,
          "velocity": 0.47244094488188976
        },
        {
          "duration": 1,
          "durationTicks": 384,
          "midi": 75,
          "name": "D#5",
          "ticks": 21120,
          "time": 55,
          "velocity": 0.3937007874015748
        },
        {
          "duration": 1,
          "durationTicks": 384,
          "midi": 51,
          "name": "D#3",
          "ticks": 21120,
          "time": 55,
          "velocity": 0.5511811023622047
        },
        {
          "duration": 1,
          "durationTicks": 384,
          "midi": 67,
          "name": "G4",
          "ticks": 21120,
          "time": 55,
          "velocity": 0.31496062992125984
        },
        {
          "duration": 1,
          "durationTicks": 384,
          "midi": 70,
          "name": "A#4",
          "ticks": 21120,
          "time": 55,
          "velocity": 0.47244094488188976
        },
        {
          "duration": 1,
          "durationTicks": 384,
          "midi": 63,
          "name": "D#4",
          "ticks": 21120,
          "time": 55,
          "velocity": 0.47244094488188976
        },
        {
          "duration": 2,
          "durationTicks": 768,
          "midi": 70,
          "name": "A#4",
          "ticks": 21504,
          "time": 56,
          "velocity": 0.3937007874015748
        },
        {
          "duration": 2,
          "durationTicks": 768,
          "midi": 46,
          "name": "A#2",
          "ticks": 21504,
          "time": 56,
          "velocity": 0.5511811023622047
        },
        {
          "duration": 2,
          "durationTicks": 768,
          "midi": 65,
          "name": "F4",
          "ticks": 21504,
          "time": 56,
          "velocity": 0.47244094488188976
        },
        {
          "duration": 2,
          "durationTicks": 768,
          "midi": 62,
          "name": "D4",
          "ticks": 21504,
          "time": 56,
          "velocity": 0.31496062992125984
        },
        {
          "duration": 2,
          "durationTicks": 768,
          "midi": 58,
          "name": "A#3",
          "ticks": 21504,
          "time": 56,
          "velocity": 0.47244094488188976
        },
        {
          "duration": 2,
          "durationTicks": 768,
          "midi": 72,
          "name": "C5",
          "ticks": 22272,
          "time": 58,
          "velocity": 0.3937007874015748
        },
        {
          "duration": 2,
          "durationTicks": 768,
          "midi": 48,
          "name": "C3",
          "ticks": 22272,
          "time": 58,
          "velocity": 0.5511811023622047
        },
        {
          "duration": 2,
          "durationTicks": 768,
          "midi": 67,
          "name": "G4",
          "ticks": 22272,
          "time": 58,
          "velocity": 0.47244094488188976
        },
        {
          "duration": 2,
          "durationTicks": 768,
          "midi": 64,
          "name": "E4",
          "ticks": 22272,
          "time": 58,
          "velocity": 0.31496062992125984
        },
        {
          "duration": 2,
          "durationTicks": 768,
          "midi": 60,
          "name": "C4",
          "ticks": 22272,
          "time": 58,
          "velocity": 0.47244094488188976
        },
        {
          "duration": 2,
          "durationTicks": 768,
          "midi": 74,
          "name": "D5",
          "ticks": 23040,
          "time": 60,
          "velocity": 0.3937007874015748
        },
        {
          "duration": 2,
          "durationTicks": 768,
          "midi": 50,
          "name": "D3",
          "ticks": 23040,
          "time": 60,
          "velocity": 0.5511811023622047
        },
        {
          "duration": 2,
          "durationTicks": 768,
          "midi": 69,
          "name": "A4",
          "ticks": 23040,
          "time": 60,
          "velocity": 0.47244094488188976
        },
        {
          "duration": 2,
          "durationTicks": 768,
          "midi": 65,
          "name": "F4",
          "ticks": 23040,
          "time": 60,
          "velocity": 0.31496062992125984
        },
        {
          "duration": 2,
          "durationTicks": 768,
          "midi": 62,
          "name": "D4",
          "ticks": 23040,
          "time": 60,
          "velocity": 0.47244094488188976
        },
        {
          "duration": 1,
          "durationTicks": 384,
          "midi": 73,
          "name": "C#5",
          "ticks": 23808,
          "time": 62,
          "velocity": 0.3937007874015748
        },
        {
          "duration": 1,
          "durationTicks": 384,
          "midi": 49,
          "name": "C#3",
          "ticks": 23808,
          "time": 62,
          "velocity": 0.5511811023622047
        },
        {
          "duration": 1,
          "durationTicks": 384,
          "midi": 68,
          "name": "G#4",
          "ticks": 23808,
          "time": 62,
          "velocity": 0.47244094488188976
        },
        {
          "duration": 1,
          "durationTicks": 384,
          "midi": 65,
          "name": "F4",
          "ticks": 23808,
          "time": 62,
          "velocity": 0.31496062992125984
        },
        {
          "duration": 1,
          "durationTicks": 384,
          "midi": 61,
          "name": "C#4",
          "ticks": 23808,
          "time": 62,
          "velocity": 0.47244094488188976
        },
        {
          "duration": 1,
          "durationTicks": 384,
          "midi": 75,
          "name": "D#5",
          "ticks": 24192,
          "time": 63,
          "velocity": 0.3937007874015748
        },
        {
          "duration": 1,
          "durationTicks": 384,
          "midi": 51,
          "name": "D#3",
          "ticks": 24192,
          "time": 63,
          "velocity": 0.5511811023622047
        },
        {
          "duration": 1,
          "durationTicks": 384,
          "midi": 70,
          "name": "A#4",
          "ticks": 24192,
          "time": 63,
          "velocity": 0.47244094488188976
        },
        {
          "duration": 1,
          "durationTicks": 384,
          "midi": 67,
          "name": "G4",
          "ticks": 24192,
          "time": 63,
          "velocity": 0.31496062992125984
        },
        {
          "duration": 1,
          "durationTicks": 384,
          "midi": 63,
          "name": "D#4",
          "ticks": 24192,
          "time": 63,
          "velocity": 0.47244094488188976
        },
        {
          "duration": 2,
          "durationTicks": 768,
          "midi": 70,
          "name": "A#4",
          "ticks": 24576,
          "time": 64,
          "velocity": 0.3937007874015748
        },
        {
          "duration": 2,
          "durationTicks": 768,
          "midi": 65,
          "name": "F4",
          "ticks": 24576,
          "time": 64,
          "velocity": 0.47244094488188976
        },
        {
          "duration": 2,
          "durationTicks": 768,
          "midi": 58,
          "name": "A#3",
          "ticks": 24576,
          "time": 64,
          "velocity": 0.47244094488188976
        },
        {
          "duration": 2,
          "durationTicks": 768,
          "midi": 46,
          "name": "A#2",
          "ticks": 24576,
          "time": 64,
          "velocity": 0.5511811023622047
        },
        {
          "duration": 2,
          "durationTicks": 768,
          "midi": 62,
          "name": "D4",
          "ticks": 24576,
          "time": 64,
          "velocity": 0.31496062992125984
        },
        {
          "duration": 2,
          "durationTicks": 768,
          "midi": 72,
          "name": "C5",
          "ticks": 25344,
          "time": 66,
          "velocity": 0.3937007874015748
        },
        {
          "duration": 2,
          "durationTicks": 768,
          "midi": 67,
          "name": "G4",
          "ticks": 25344,
          "time": 66,
          "velocity": 0.47244094488188976
        },
        {
          "duration": 2,
          "durationTicks": 768,
          "midi": 60,
          "name": "C4",
          "ticks": 25344,
          "time": 66,
          "velocity": 0.47244094488188976
        },
        {
          "duration": 2,
          "durationTicks": 768,
          "midi": 48,
          "name": "C3",
          "ticks": 25344,
          "time": 66,
          "velocity": 0.5511811023622047
        },
        {
          "duration": 2,
          "durationTicks": 768,
          "midi": 64,
          "name": "E4",
          "ticks": 25344,
          "time": 66,
          "velocity": 0.31496062992125984
        },
        {
          "duration": 2,
          "durationTicks": 768,
          "midi": 74,
          "name": "D5",
          "ticks": 26112,
          "time": 68,
          "velocity": 0.3937007874015748
        },
        {
          "duration": 2,
          "durationTicks": 768,
          "midi": 69,
          "name": "A4",
          "ticks": 26112,
          "time": 68,
          "velocity": 0.47244094488188976
        },
        {
          "duration": 2,
          "durationTicks": 768,
          "midi": 62,
          "name": "D4",
          "ticks": 26112,
          "time": 68,
          "velocity": 0.47244094488188976
        },
        {
          "duration": 2,
          "durationTicks": 768,
          "midi": 50,
          "name": "D3",
          "ticks": 26112,
          "time": 68,
          "velocity": 0.5511811023622047
        },
        {
          "duration": 2,
          "durationTicks": 768,
          "midi": 65,
          "name": "F4",
          "ticks": 26112,
          "time": 68,
          "velocity": 0.31496062992125984
        },
        {
          "duration": 1,
          "durationTicks": 384,
          "midi": 73,
          "name": "C#5",
          "ticks": 26880,
          "time": 70,
          "velocity": 0.3937007874015748
        },
        {
          "duration": 1,
          "durationTicks": 384,
          "midi": 68,
          "name": "G#4",
          "ticks": 26880,
          "time": 70,
          "velocity": 0.47244094488188976
        },
        {
          "duration": 1,
          "durationTicks": 384,
          "midi": 61,
          "name": "C#4",
          "ticks": 26880,
          "time": 70,
          "velocity": 0.47244094488188976
        },
        {
          "duration": 1,
          "durationTicks": 384,
          "midi": 49,
          "name": "C#3",
          "ticks": 26880,
          "time": 70,
          "velocity": 0.5511811023622047
        },
        {
          "duration": 1,
          "durationTicks": 384,
          "midi": 65,
          "name": "F4",
          "ticks": 26880,
          "time": 70,
          "velocity": 0.31496062992125984
        },
        {
          "duration": 1,
          "durationTicks": 384,
          "midi": 75,
          "name": "D#5",
          "ticks": 27264,
          "time": 71,
          "velocity": 0.3937007874015748
        },
        {
          "duration": 1,
          "durationTicks": 384,
          "midi": 70,
          "name": "A#4",
          "ticks": 27264,
          "time": 71,
          "velocity": 0.47244094488188976
        },
        {
          "duration": 1,
          "durationTicks": 384,
          "midi": 63,
          "name": "D#4",
          "ticks": 27264,
          "time": 71,
          "velocity": 0.47244094488188976
        },
        {
          "duration": 1,
          "durationTicks": 384,
          "midi": 51,
          "name": "D#3",
          "ticks": 27264,
          "time": 71,
          "velocity": 0.5511811023622047
        },
        {
          "duration": 1,
          "durationTicks": 384,
          "midi": 67,
          "name": "G4",
          "ticks": 27264,
          "time": 71,
          "velocity": 0.31496062992125984
        },
        {
          "duration": 2,
          "durationTicks": 768,
          "midi": 62,
          "name": "D4",
          "ticks": 27648,
          "time": 72,
          "velocity": 0.31496062992125984
        },
        {
          "duration": 2,
          "durationTicks": 768,
          "midi": 65,
          "name": "F4",
          "ticks": 27648,
          "time": 72,
          "velocity": 0.47244094488188976
        },
        {
          "duration": 2,
          "durationTicks": 768,
          "midi": 58,
          "name": "A#3",
          "ticks": 27648,
          "time": 72,
          "velocity": 0.47244094488188976
        },
        {
          "duration": 2,
          "durationTicks": 768,
          "midi": 46,
          "name": "A#2",
          "ticks": 27648,
          "time": 72,
          "velocity": 0.5511811023622047
        },
        {
          "duration": 2,
          "durationTicks": 768,
          "midi": 70,
          "name": "A#4",
          "ticks": 27648,
          "time": 72,
          "velocity": 0.3937007874015748
        },
        {
          "duration": 2,
          "durationTicks": 768,
          "midi": 64,
          "name": "E4",
          "ticks": 28416,
          "time": 74,
          "velocity": 0.31496062992125984
        },
        {
          "duration": 2,
          "durationTicks": 768,
          "midi": 67,
          "name": "G4",
          "ticks": 28416,
          "time": 74,
          "velocity": 0.47244094488188976
        },
        {
          "duration": 2,
          "durationTicks": 768,
          "midi": 60,
          "name": "C4",
          "ticks": 28416,
          "time": 74,
          "velocity": 0.47244094488188976
        },
        {
          "duration": 2,
          "durationTicks": 768,
          "midi": 48,
          "name": "C3",
          "ticks": 28416,
          "time": 74,
          "velocity": 0.5511811023622047
        },
        {
          "duration": 2,
          "durationTicks": 768,
          "midi": 72,
          "name": "C5",
          "ticks": 28416,
          "time": 74,
          "velocity": 0.3937007874015748
        },
        {
          "duration": 2,
          "durationTicks": 768,
          "midi": 65,
          "name": "F4",
          "ticks": 29184,
          "time": 76,
          "velocity": 0.31496062992125984
        },
        {
          "duration": 2,
          "durationTicks": 768,
          "midi": 69,
          "name": "A4",
          "ticks": 29184,
          "time": 76,
          "velocity": 0.47244094488188976
        },
        {
          "duration": 2,
          "durationTicks": 768,
          "midi": 62,
          "name": "D4",
          "ticks": 29184,
          "time": 76,
          "velocity": 0.47244094488188976
        },
        {
          "duration": 2,
          "durationTicks": 768,
          "midi": 50,
          "name": "D3",
          "ticks": 29184,
          "time": 76,
          "velocity": 0.5511811023622047
        },
        {
          "duration": 2,
          "durationTicks": 768,
          "midi": 74,
          "name": "D5",
          "ticks": 29184,
          "time": 76,
          "velocity": 0.3937007874015748
        },
        {
          "duration": 1,
          "durationTicks": 384,
          "midi": 65,
          "name": "F4",
          "ticks": 29952,
          "time": 78,
          "velocity": 0.31496062992125984
        },
        {
          "duration": 1,
          "durationTicks": 384,
          "midi": 68,
          "name": "G#4",
          "ticks": 29952,
          "time": 78,
          "velocity": 0.47244094488188976
        },
        {
          "duration": 1,
          "durationTicks": 384,
          "midi": 61,
          "name": "C#4",
          "ticks": 29952,
          "time": 78,
          "velocity": 0.47244094488188976
        },
        {
          "duration": 1,
          "durationTicks": 384,
          "midi": 49,
          "name": "C#3",
          "ticks": 29952,
          "time": 78,
          "velocity": 0.5511811023622047
        },
        {
          "duration": 1,
          "durationTicks": 384,
          "midi": 73,
          "name": "C#5",
          "ticks": 29952,
          "time": 78,
          "velocity": 0.3937007874015748
        },
        {
          "duration": 1,
          "durationTicks": 384,
          "midi": 67,
          "name": "G4",
          "ticks": 30336,
          "time": 79,
          "velocity": 0.31496062992125984
        },
        {
          "duration": 1,
          "durationTicks": 384,
          "midi": 70,
          "name": "A#4",
          "ticks": 30336,
          "time": 79,
          "velocity": 0.47244094488188976
        },
        {
          "duration": 1,
          "durationTicks": 384,
          "midi": 63,
          "name": "D#4",
          "ticks": 30336,
          "time": 79,
          "velocity": 0.47244094488188976
        },
        {
          "duration": 1,
          "durationTicks": 384,
          "midi": 51,
          "name": "D#3",
          "ticks": 30336,
          "time": 79,
          "velocity": 0.5511811023622047
        },
        {
          "duration": 1,
          "durationTicks": 384,
          "midi": 75,
          "name": "D#5",
          "ticks": 30336,
          "time": 79,
          "velocity": 0.3937007874015748
        },
        {
          "duration": 1.46875,
          "durationTicks": 564,
          "midi": 46,
          "name": "A#2",
          "ticks": 30720,
          "time": 80,
          "velocity": 0.8503937007874016
        },
        {
          "duration": 1.46875,
          "durationTicks": 564,
          "midi": 58,
          "name": "A#3",
          "ticks": 30720,
          "time": 80,
          "velocity": 0.5511811023622047
        },
        {
          "duration": 2,
          "durationTicks": 768,
          "midi": 34,
          "name": "A#1",
          "ticks": 30720,
          "time": 80,
          "velocity": 0.47244094488188976
        },
        {
          "duration": 0.46875,
          "durationTicks": 180,
          "midi": 53,
          "name": "F3",
          "ticks": 31296,
          "time": 81.5,
          "velocity": 0.8503937007874016
        },
        {
          "duration": 0.46875,
          "durationTicks": 180,
          "midi": 65,
          "name": "F4",
          "ticks": 31296,
          "time": 81.5,
          "velocity": 0.5511811023622047
        },
        {
          "duration": 1.9375,
          "durationTicks": 744,
          "midi": 36,
          "name": "C2",
          "ticks": 31488,
          "time": 82,
          "velocity": 0.47244094488188976
        },
        {
          "duration": 0.96875,
          "durationTicks": 372,
          "midi": 64,
          "name": "E4",
          "ticks": 31488,
          "time": 82,
          "velocity": 0.5511811023622047
        },
        {
          "duration": 0.96875,
          "durationTicks": 372,
          "midi": 52,
          "name": "E3",
          "ticks": 31488,
          "time": 82,
          "velocity": 0.8503937007874016
        },
        {
          "duration": 0.9375,
          "durationTicks": 360,
          "midi": 50,
          "name": "D3",
          "ticks": 31872,
          "time": 83,
          "velocity": 0.8503937007874016
        },
        {
          "duration": 0.9375,
          "durationTicks": 360,
          "midi": 62,
          "name": "D4",
          "ticks": 31872,
          "time": 83,
          "velocity": 0.5511811023622047
        },
        {
          "duration": 3.96875,
          "durationTicks": 1524,
          "midi": 65,
          "name": "F4",
          "ticks": 32256,
          "time": 84,
          "velocity": 0.5511811023622047
        },
        {
          "duration": 4,
          "durationTicks": 1536,
          "midi": 38,
          "name": "D2",
          "ticks": 32256,
          "time": 84,
          "velocity": 0.47244094488188976
        },
        {
          "duration": 3.96875,
          "durationTicks": 1524,
          "midi": 53,
          "name": "F3",
          "ticks": 32256,
          "time": 84,
          "velocity": 0.8503937007874016
        },
        {
          "duration": 1.46875,
          "durationTicks": 564,
          "midi": 58,
          "name": "A#3",
          "ticks": 33792,
          "time": 88,
          "velocity": 0.5511811023622047
        },
        {
          "duration": 1.46875,
          "durationTicks": 564,
          "midi": 46,
          "name": "A#2",
          "ticks": 33792,
          "time": 88,
          "velocity": 0.8503937007874016
        },
        {
          "duration": 2,
          "durationTicks": 768,
          "midi": 34,
          "name": "A#1",
          "ticks": 33792,
          "time": 88,
          "velocity": 0.47244094488188976
        },
        {
          "duration": 0.46875,
          "durationTicks": 180,
          "midi": 53,
          "name": "F3",
          "ticks": 34368,
          "time": 89.5,
          "velocity": 0.8503937007874016
        },
        {
          "duration": 0.46875,
          "durationTicks": 180,
          "midi": 65,
          "name": "F4",
          "ticks": 34368,
          "time": 89.5,
          "velocity": 0.5511811023622047
        },
        {
          "duration": 0.96875,
          "durationTicks": 372,
          "midi": 64,
          "name": "E4",
          "ticks": 34560,
          "time": 90,
          "velocity": 0.5511811023622047
        },
        {
          "duration": 0.96875,
          "durationTicks": 372,
          "midi": 52,
          "name": "E3",
          "ticks": 34560,
          "time": 90,
          "velocity": 0.8503937007874016
        },
        {
          "duration": 1.9375,
          "durationTicks": 744,
          "midi": 36,
          "name": "C2",
          "ticks": 34560,
          "time": 90,
          "velocity": 0.47244094488188976
        },
        {
          "duration": 0.9375,
          "durationTicks": 360,
          "midi": 50,
          "name": "D3",
          "ticks": 34944,
          "time": 91,
          "velocity": 0.8503937007874016
        },
        {
          "duration": 0.9375,
          "durationTicks": 360,
          "midi": 62,
          "name": "D4",
          "ticks": 34944,
          "time": 91,
          "velocity": 0.5511811023622047
        },
        {
          "duration": 3.96875,
          "durationTicks": 1524,
          "midi": 60,
          "name": "C4",
          "ticks": 35328,
          "time": 92,
          "velocity": 0.5511811023622047
        },
        {
          "duration": 3.96875,
          "durationTicks": 1524,
          "midi": 48,
          "name": "C3",
          "ticks": 35328,
          "time": 92,
          "velocity": 0.8503937007874016
        },
        {
          "duration": 3.96875,
          "durationTicks": 1524,
          "midi": 36,
          "name": "C2",
          "ticks": 35328,
          "time": 92,
          "velocity": 0.47244094488188976
        },
        {
          "duration": 2,
          "durationTicks": 768,
          "midi": 34,
          "name": "A#1",
          "ticks": 36864,
          "time": 96,
          "velocity": 0.47244094488188976
        },
        {
          "duration": 1.46875,
          "durationTicks": 564,
          "midi": 46,
          "name": "A#2",
          "ticks": 36864,
          "time": 96,
          "velocity": 0.8503937007874016
        },
        {
          "duration": 1.46875,
          "durationTicks": 564,
          "midi": 58,
          "name": "A#3",
          "ticks": 36864,
          "time": 96,
          "velocity": 0.5511811023622047
        },
        {
          "duration": 0.46875,
          "durationTicks": 180,
          "midi": 53,
          "name": "F3",
          "ticks": 37440,
          "time": 97.5,
          "velocity": 0.8503937007874016
        },
        {
          "duration": 0.46875,
          "durationTicks": 180,
          "midi": 65,
          "name": "F4",
          "ticks": 37440,
          "time": 97.5,
          "velocity": 0.5511811023622047
        },
        {
          "duration": 1.9375,
          "durationTicks": 744,
          "midi": 36,
          "name": "C2",
          "ticks": 37632,
          "time": 98,
          "velocity": 0.47244094488188976
        },
        {
          "duration": 0.96875,
          "durationTicks": 372,
          "midi": 52,
          "name": "E3",
          "ticks": 37632,
          "time": 98,
          "velocity": 0.8503937007874016
        },
        {
          "duration": 0.96875,
          "durationTicks": 372,
          "midi": 64,
          "name": "E4",
          "ticks": 37632,
          "time": 98,
          "velocity": 0.5511811023622047
        },
        {
          "duration": 0.9375,
          "durationTicks": 360,
          "midi": 50,
          "name": "D3",
          "ticks": 38016,
          "time": 99,
          "velocity": 0.8503937007874016
        },
        {
          "duration": 0.9375,
          "durationTicks": 360,
          "midi": 62,
          "name": "D4",
          "ticks": 38016,
          "time": 99,
          "velocity": 0.5511811023622047
        },
        {
          "duration": 4,
          "durationTicks": 1536,
          "midi": 38,
          "name": "D2",
          "ticks": 38400,
          "time": 100,
          "velocity": 0.47244094488188976
        },
        {
          "duration": 3.96875,
          "durationTicks": 1524,
          "midi": 53,
          "name": "F3",
          "ticks": 38400,
          "time": 100,
          "velocity": 0.8503937007874016
        },
        {
          "duration": 3.96875,
          "durationTicks": 1524,
          "midi": 65,
          "name": "F4",
          "ticks": 38400,
          "time": 100,
          "velocity": 0.5511811023622047
        },
        {
          "duration": 1.46875,
          "durationTicks": 564,
          "midi": 46,
          "name": "A#2",
          "ticks": 39936,
          "time": 104,
          "velocity": 0.8503937007874016
        },
        {
          "duration": 2,
          "durationTicks": 768,
          "midi": 34,
          "name": "A#1",
          "ticks": 39936,
          "time": 104,
          "velocity": 0.47244094488188976
        },
        {
          "duration": 1.46875,
          "durationTicks": 564,
          "midi": 58,
          "name": "A#3",
          "ticks": 39936,
          "time": 104,
          "velocity": 0.5511811023622047
        },
        {
          "duration": 0.46875,
          "durationTicks": 180,
          "midi": 53,
          "name": "F3",
          "ticks": 40512,
          "time": 105.5,
          "velocity": 0.8503937007874016
        },
        {
          "duration": 0.46875,
          "durationTicks": 180,
          "midi": 65,
          "name": "F4",
          "ticks": 40512,
          "time": 105.5,
          "velocity": 0.5511811023622047
        },
        {
          "duration": 0.96875,
          "durationTicks": 372,
          "midi": 52,
          "name": "E3",
          "ticks": 40704,
          "time": 106,
          "velocity": 0.8503937007874016
        },
        {
          "duration": 1.9375,
          "durationTicks": 744,
          "midi": 36,
          "name": "C2",
          "ticks": 40704,
          "time": 106,
          "velocity": 0.47244094488188976
        },
        {
          "duration": 0.96875,
          "durationTicks": 372,
          "midi": 64,
          "name": "E4",
          "ticks": 40704,
          "time": 106,
          "velocity": 0.5511811023622047
        },
        {
          "duration": 0.9375,
          "durationTicks": 360,
          "midi": 50,
          "name": "D3",
          "ticks": 41088,
          "time": 107,
          "velocity": 0.8503937007874016
        },
        {
          "duration": 0.9375,
          "durationTicks": 360,
          "midi": 62,
          "name": "D4",
          "ticks": 41088,
          "time": 107,
          "velocity": 0.5511811023622047
        },
        {
          "duration": 3.96875,
          "durationTicks": 1524,
          "midi": 48,
          "name": "C3",
          "ticks": 41472,
          "time": 108,
          "velocity": 0.8503937007874016
        },
        {
          "duration": 3.96875,
          "durationTicks": 1524,
          "midi": 36,
          "name": "C2",
          "ticks": 41472,
          "time": 108,
          "velocity": 0.47244094488188976
        },
        {
          "duration": 3.96875,
          "durationTicks": 1524,
          "midi": 60,
          "name": "C4",
          "ticks": 41472,
          "time": 108,
          "velocity": 0.5511811023622047
        },
        {
          "duration": 0.21875,
          "durationTicks": 84,
          "midi": 34,
          "name": "A#1",
          "ticks": 43008,
          "time": 112,
          "velocity": 0.47244094488188976
        },
        {
          "duration": 0.21875,
          "durationTicks": 84,
          "midi": 34,
          "name": "A#1",
          "ticks": 43104,
          "time": 112.25,
          "velocity": 0.47244094488188976
        },
        {
          "duration": 0.09375,
          "durationTicks": 36,
          "midi": 34,
          "name": "A#1",
          "ticks": 43200,
          "time": 112.5,
          "velocity": 0.47244094488188976
        },
        {
          "duration": 0.21875,
          "durationTicks": 84,
          "midi": 34,
          "name": "A#1",
          "ticks": 43248,
          "time": 112.625,
          "velocity": 0.47244094488188976
        },
        {
          "duration": 0.21875,
          "durationTicks": 84,
          "midi": 34,
          "name": "A#1",
          "ticks": 43344,
          "time": 112.875,
          "velocity": 0.47244094488188976
        },
        {
          "duration": 0.21875,
          "durationTicks": 84,
          "midi": 34,
          "name": "A#1",
          "ticks": 43440,
          "time": 113.125,
          "velocity": 0.47244094488188976
        },
        {
          "duration": 0.09375,
          "durationTicks": 36,
          "midi": 34,
          "name": "A#1",
          "ticks": 43536,
          "time": 113.375,
          "velocity": 0.47244094488188976
        },
        {
          "duration": 0.09375,
          "durationTicks": 36,
          "midi": 34,
          "name": "A#1",
          "ticks": 43584,
          "time": 113.5,
          "velocity": 0.47244094488188976
        },
        {
          "duration": 0.09375,
          "durationTicks": 36,
          "midi": 34,
          "name": "A#1",
          "ticks": 43632,
          "time": 113.625,
          "velocity": 0.47244094488188976
        },
        {
          "duration": 0.21875,
          "durationTicks": 84,
          "midi": 34,
          "name": "A#1",
          "ticks": 43680,
          "time": 113.75,
          "velocity": 0.47244094488188976
        },
        {
          "duration": 0.21875,
          "durationTicks": 84,
          "midi": 36,
          "name": "C2",
          "ticks": 43776,
          "time": 114,
          "velocity": 0.47244094488188976
        },
        {
          "duration": 0.21875,
          "durationTicks": 84,
          "midi": 36,
          "name": "C2",
          "ticks": 43872,
          "time": 114.25,
          "velocity": 0.47244094488188976
        },
        {
          "duration": 0.09375,
          "durationTicks": 36,
          "midi": 36,
          "name": "C2",
          "ticks": 43968,
          "time": 114.5,
          "velocity": 0.47244094488188976
        },
        {
          "duration": 0.21875,
          "durationTicks": 84,
          "midi": 36,
          "name": "C2",
          "ticks": 44016,
          "time": 114.625,
          "velocity": 0.47244094488188976
        },
        {
          "duration": 0.21875,
          "durationTicks": 84,
          "midi": 36,
          "name": "C2",
          "ticks": 44112,
          "time": 114.875,
          "velocity": 0.47244094488188976
        },
        {
          "duration": 0.21875,
          "durationTicks": 84,
          "midi": 36,
          "name": "C2",
          "ticks": 44208,
          "time": 115.125,
          "velocity": 0.47244094488188976
        },
        {
          "duration": 0.09375,
          "durationTicks": 36,
          "midi": 36,
          "name": "C2",
          "ticks": 44304,
          "time": 115.375,
          "velocity": 0.47244094488188976
        },
        {
          "duration": 0.09375,
          "durationTicks": 36,
          "midi": 36,
          "name": "C2",
          "ticks": 44352,
          "time": 115.5,
          "velocity": 0.47244094488188976
        },
        {
          "duration": 0.09375,
          "durationTicks": 36,
          "midi": 36,
          "name": "C2",
          "ticks": 44400,
          "time": 115.625,
          "velocity": 0.47244094488188976
        },
        {
          "duration": 0.21875,
          "durationTicks": 84,
          "midi": 36,
          "name": "C2",
          "ticks": 44448,
          "time": 115.75,
          "velocity": 0.47244094488188976
        },
        {
          "duration": 0.21875,
          "durationTicks": 84,
          "midi": 38,
          "name": "D2",
          "ticks": 44544,
          "time": 116,
          "velocity": 0.47244094488188976
        },
        {
          "duration": 0.21875,
          "durationTicks": 84,
          "midi": 38,
          "name": "D2",
          "ticks": 44640,
          "time": 116.25,
          "velocity": 0.47244094488188976
        },
        {
          "duration": 0.09375,
          "durationTicks": 36,
          "midi": 38,
          "name": "D2",
          "ticks": 44736,
          "time": 116.5,
          "velocity": 0.47244094488188976
        },
        {
          "duration": 0.21875,
          "durationTicks": 84,
          "midi": 38,
          "name": "D2",
          "ticks": 44784,
          "time": 116.625,
          "velocity": 0.47244094488188976
        },
        {
          "duration": 0.21875,
          "durationTicks": 84,
          "midi": 37,
          "name": "C#2",
          "ticks": 44880,
          "time": 116.875,
          "velocity": 0.47244094488188976
        },
        {
          "duration": 0.21875,
          "durationTicks": 84,
          "midi": 37,
          "name": "C#2",
          "ticks": 44976,
          "time": 117.125,
          "velocity": 0.47244094488188976
        },
        {
          "duration": 0.09375,
          "durationTicks": 36,
          "midi": 37,
          "name": "C#2",
          "ticks": 45072,
          "time": 117.375,
          "velocity": 0.47244094488188976
        },
        {
          "duration": 0.09375,
          "durationTicks": 36,
          "midi": 37,
          "name": "C#2",
          "ticks": 45120,
          "time": 117.5,
          "velocity": 0.47244094488188976
        },
        {
          "duration": 0.09375,
          "durationTicks": 36,
          "midi": 37,
          "name": "C#2",
          "ticks": 45168,
          "time": 117.625,
          "velocity": 0.47244094488188976
        },
        {
          "duration": 0.21875,
          "durationTicks": 84,
          "midi": 37,
          "name": "C#2",
          "ticks": 45216,
          "time": 117.75,
          "velocity": 0.47244094488188976
        },
        {
          "duration": 0.21875,
          "durationTicks": 84,
          "midi": 36,
          "name": "C2",
          "ticks": 45312,
          "time": 118,
          "velocity": 0.47244094488188976
        },
        {
          "duration": 0.21875,
          "durationTicks": 84,
          "midi": 36,
          "name": "C2",
          "ticks": 45408,
          "time": 118.25,
          "velocity": 0.47244094488188976
        },
        {
          "duration": 0.09375,
          "durationTicks": 36,
          "midi": 36,
          "name": "C2",
          "ticks": 45504,
          "time": 118.5,
          "velocity": 0.47244094488188976
        },
        {
          "duration": 0.21875,
          "durationTicks": 84,
          "midi": 36,
          "name": "C2",
          "ticks": 45552,
          "time": 118.625,
          "velocity": 0.47244094488188976
        },
        {
          "duration": 0.21875,
          "durationTicks": 84,
          "midi": 35,
          "name": "B1",
          "ticks": 45648,
          "time": 118.875,
          "velocity": 0.47244094488188976
        },
        {
          "duration": 0.21875,
          "durationTicks": 84,
          "midi": 35,
          "name": "B1",
          "ticks": 45744,
          "time": 119.125,
          "velocity": 0.47244094488188976
        },
        {
          "duration": 0.09375,
          "durationTicks": 36,
          "midi": 131,
          "name": "B9",
          "ticks": 45840,
          "time": 119.375,
          "velocity": 0.47244094488188976
        },
        {
          "duration": 0.09375,
          "durationTicks": 36,
          "midi": 35,
          "name": "B1",
          "ticks": 45888,
          "time": 119.5,
          "velocity": 0.47244094488188976
        },
        {
          "duration": 0.09375,
          "durationTicks": 36,
          "midi": 35,
          "name": "B1",
          "ticks": 45936,
          "time": 119.625,
          "velocity": 0.47244094488188976
        },
        {
          "duration": 0.21875,
          "durationTicks": 84,
          "midi": 35,
          "name": "B1",
          "ticks": 45984,
          "time": 119.75,
          "velocity": 0.47244094488188976
        },
        {
          "duration": 0.21875,
          "durationTicks": 84,
          "midi": 34,
          "name": "A#1",
          "ticks": 46080,
          "time": 120,
          "velocity": 0.47244094488188976
        },
        {
          "duration": 0.21875,
          "durationTicks": 84,
          "midi": 34,
          "name": "A#1",
          "ticks": 46176,
          "time": 120.25,
          "velocity": 0.47244094488188976
        },
        {
          "duration": 0.09375,
          "durationTicks": 36,
          "midi": 34,
          "name": "A#1",
          "ticks": 46272,
          "time": 120.5,
          "velocity": 0.47244094488188976
        },
        {
          "duration": 0.21875,
          "durationTicks": 84,
          "midi": 34,
          "name": "A#1",
          "ticks": 46320,
          "time": 120.625,
          "velocity": 0.47244094488188976
        },
        {
          "duration": 0.21875,
          "durationTicks": 84,
          "midi": 34,
          "name": "A#1",
          "ticks": 46416,
          "time": 120.875,
          "velocity": 0.47244094488188976
        },
        {
          "duration": 0.21875,
          "durationTicks": 84,
          "midi": 34,
          "name": "A#1",
          "ticks": 46512,
          "time": 121.125,
          "velocity": 0.47244094488188976
        },
        {
          "duration": 0.09375,
          "durationTicks": 36,
          "midi": 34,
          "name": "A#1",
          "ticks": 46608,
          "time": 121.375,
          "velocity": 0.47244094488188976
        },
        {
          "duration": 0.09375,
          "durationTicks": 36,
          "midi": 34,
          "name": "A#1",
          "ticks": 46656,
          "time": 121.5,
          "velocity": 0.47244094488188976
        },
        {
          "duration": 0.09375,
          "durationTicks": 36,
          "midi": 34,
          "name": "A#1",
          "ticks": 46704,
          "time": 121.625,
          "velocity": 0.47244094488188976
        },
        {
          "duration": 0.21875,
          "durationTicks": 84,
          "midi": 34,
          "name": "A#1",
          "ticks": 46752,
          "time": 121.75,
          "velocity": 0.47244094488188976
        },
        {
          "duration": 0.21875,
          "durationTicks": 84,
          "midi": 36,
          "name": "C2",
          "ticks": 46848,
          "time": 122,
          "velocity": 0.47244094488188976
        },
        {
          "duration": 0.21875,
          "durationTicks": 84,
          "midi": 36,
          "name": "C2",
          "ticks": 46944,
          "time": 122.25,
          "velocity": 0.47244094488188976
        },
        {
          "duration": 0.09375,
          "durationTicks": 36,
          "midi": 36,
          "name": "C2",
          "ticks": 47040,
          "time": 122.5,
          "velocity": 0.47244094488188976
        },
        {
          "duration": 0.21875,
          "durationTicks": 84,
          "midi": 36,
          "name": "C2",
          "ticks": 47088,
          "time": 122.625,
          "velocity": 0.47244094488188976
        },
        {
          "duration": 0.21875,
          "durationTicks": 84,
          "midi": 36,
          "name": "C2",
          "ticks": 47184,
          "time": 122.875,
          "velocity": 0.47244094488188976
        },
        {
          "duration": 0.21875,
          "durationTicks": 84,
          "midi": 36,
          "name": "C2",
          "ticks": 47280,
          "time": 123.125,
          "velocity": 0.47244094488188976
        },
        {
          "duration": 0.09375,
          "durationTicks": 36,
          "midi": 36,
          "name": "C2",
          "ticks": 47376,
          "time": 123.375,
          "velocity": 0.47244094488188976
        },
        {
          "duration": 0.09375,
          "durationTicks": 36,
          "midi": 36,
          "name": "C2",
          "ticks": 47424,
          "time": 123.5,
          "velocity": 0.47244094488188976
        },
        {
          "duration": 0.09375,
          "durationTicks": 36,
          "midi": 36,
          "name": "C2",
          "ticks": 47472,
          "time": 123.625,
          "velocity": 0.47244094488188976
        },
        {
          "duration": 0.21875,
          "durationTicks": 84,
          "midi": 36,
          "name": "C2",
          "ticks": 47520,
          "time": 123.75,
          "velocity": 0.47244094488188976
        },
        {
          "duration": 0.21875,
          "durationTicks": 84,
          "midi": 38,
          "name": "D2",
          "ticks": 47616,
          "time": 124,
          "velocity": 0.47244094488188976
        },
        {
          "duration": 0.21875,
          "durationTicks": 84,
          "midi": 38,
          "name": "D2",
          "ticks": 47712,
          "time": 124.25,
          "velocity": 0.47244094488188976
        },
        {
          "duration": 0.09375,
          "durationTicks": 36,
          "midi": 38,
          "name": "D2",
          "ticks": 47808,
          "time": 124.5,
          "velocity": 0.47244094488188976
        },
        {
          "duration": 0.21875,
          "durationTicks": 84,
          "midi": 38,
          "name": "D2",
          "ticks": 47856,
          "time": 124.625,
          "velocity": 0.47244094488188976
        },
        {
          "duration": 0.21875,
          "durationTicks": 84,
          "midi": 38,
          "name": "D2",
          "ticks": 47952,
          "time": 124.875,
          "velocity": 0.47244094488188976
        },
        {
          "duration": 0.21875,
          "durationTicks": 84,
          "midi": 38,
          "name": "D2",
          "ticks": 48048,
          "time": 125.125,
          "velocity": 0.47244094488188976
        },
        {
          "duration": 0.09375,
          "durationTicks": 36,
          "midi": 38,
          "name": "D2",
          "ticks": 48144,
          "time": 125.375,
          "velocity": 0.47244094488188976
        },
        {
          "duration": 0.09375,
          "durationTicks": 36,
          "midi": 38,
          "name": "D2",
          "ticks": 48192,
          "time": 125.5,
          "velocity": 0.47244094488188976
        },
        {
          "duration": 0.09375,
          "durationTicks": 36,
          "midi": 38,
          "name": "D2",
          "ticks": 48240,
          "time": 125.625,
          "velocity": 0.47244094488188976
        },
        {
          "duration": 0.21875,
          "durationTicks": 84,
          "midi": 38,
          "name": "D2",
          "ticks": 48288,
          "time": 125.75,
          "velocity": 0.47244094488188976
        },
        {
          "duration": 0.21875,
          "durationTicks": 84,
          "midi": 38,
          "name": "D2",
          "ticks": 48384,
          "time": 126,
          "velocity": 0.47244094488188976
        },
        {
          "duration": 0.21875,
          "durationTicks": 84,
          "midi": 38,
          "name": "D2",
          "ticks": 48480,
          "time": 126.25,
          "velocity": 0.47244094488188976
        },
        {
          "duration": 0.09375,
          "durationTicks": 36,
          "midi": 38,
          "name": "D2",
          "ticks": 48576,
          "time": 126.5,
          "velocity": 0.47244094488188976
        },
        {
          "duration": 0.21875,
          "durationTicks": 84,
          "midi": 38,
          "name": "D2",
          "ticks": 48624,
          "time": 126.625,
          "velocity": 0.47244094488188976
        },
        {
          "duration": 0.21875,
          "durationTicks": 84,
          "midi": 38,
          "name": "D2",
          "ticks": 48720,
          "time": 126.875,
          "velocity": 0.47244094488188976
        },
        {
          "duration": 0.21875,
          "durationTicks": 84,
          "midi": 38,
          "name": "D2",
          "ticks": 48816,
          "time": 127.125,
          "velocity": 0.47244094488188976
        },
        {
          "duration": 0.09375,
          "durationTicks": 36,
          "midi": 38,
          "name": "D2",
          "ticks": 48912,
          "time": 127.375,
          "velocity": 0.47244094488188976
        },
        {
          "duration": 0.09375,
          "durationTicks": 36,
          "midi": 38,
          "name": "D2",
          "ticks": 48960,
          "time": 127.5,
          "velocity": 0.47244094488188976
        },
        {
          "duration": 0.09375,
          "durationTicks": 36,
          "midi": 38,
          "name": "D2",
          "ticks": 49008,
          "time": 127.625,
          "velocity": 0.47244094488188976
        },
        {
          "duration": 0.21875,
          "durationTicks": 84,
          "midi": 38,
          "name": "D2",
          "ticks": 49056,
          "time": 127.75,
          "velocity": 0.47244094488188976
        },
        {
          "duration": 0.21875,
          "durationTicks": 84,
          "midi": 34,
          "name": "A#1",
          "ticks": 49152,
          "time": 128,
          "velocity": 0.47244094488188976
        },
        {
          "duration": 0.21875,
          "durationTicks": 84,
          "midi": 34,
          "name": "A#1",
          "ticks": 49248,
          "time": 128.25,
          "velocity": 0.47244094488188976
        },
        {
          "duration": 0.09375,
          "durationTicks": 36,
          "midi": 34,
          "name": "A#1",
          "ticks": 49344,
          "time": 128.5,
          "velocity": 0.47244094488188976
        },
        {
          "duration": 0.21875,
          "durationTicks": 84,
          "midi": 34,
          "name": "A#1",
          "ticks": 49392,
          "time": 128.625,
          "velocity": 0.47244094488188976
        },
        {
          "duration": 0.21875,
          "durationTicks": 84,
          "midi": 34,
          "name": "A#1",
          "ticks": 49488,
          "time": 128.875,
          "velocity": 0.47244094488188976
        },
        {
          "duration": 0.21875,
          "durationTicks": 84,
          "midi": 34,
          "name": "A#1",
          "ticks": 49584,
          "time": 129.125,
          "velocity": 0.47244094488188976
        },
        {
          "duration": 0.09375,
          "durationTicks": 36,
          "midi": 34,
          "name": "A#1",
          "ticks": 49680,
          "time": 129.375,
          "velocity": 0.47244094488188976
        },
        {
          "duration": 0.09375,
          "durationTicks": 36,
          "midi": 34,
          "name": "A#1",
          "ticks": 49728,
          "time": 129.5,
          "velocity": 0.47244094488188976
        },
        {
          "duration": 0.09375,
          "durationTicks": 36,
          "midi": 34,
          "name": "A#1",
          "ticks": 49776,
          "time": 129.625,
          "velocity": 0.47244094488188976
        },
        {
          "duration": 0.21875,
          "durationTicks": 84,
          "midi": 34,
          "name": "A#1",
          "ticks": 49824,
          "time": 129.75,
          "velocity": 0.47244094488188976
        },
        {
          "duration": 0.21875,
          "durationTicks": 84,
          "midi": 36,
          "name": "C2",
          "ticks": 49920,
          "time": 130,
          "velocity": 0.47244094488188976
        },
        {
          "duration": 0.21875,
          "durationTicks": 84,
          "midi": 36,
          "name": "C2",
          "ticks": 50016,
          "time": 130.25,
          "velocity": 0.47244094488188976
        },
        {
          "duration": 0.09375,
          "durationTicks": 36,
          "midi": 36,
          "name": "C2",
          "ticks": 50112,
          "time": 130.5,
          "velocity": 0.47244094488188976
        },
        {
          "duration": 0.21875,
          "durationTicks": 84,
          "midi": 36,
          "name": "C2",
          "ticks": 50160,
          "time": 130.625,
          "velocity": 0.47244094488188976
        },
        {
          "duration": 0.21875,
          "durationTicks": 84,
          "midi": 36,
          "name": "C2",
          "ticks": 50256,
          "time": 130.875,
          "velocity": 0.47244094488188976
        },
        {
          "duration": 0.21875,
          "durationTicks": 84,
          "midi": 36,
          "name": "C2",
          "ticks": 50352,
          "time": 131.125,
          "velocity": 0.47244094488188976
        },
        {
          "duration": 0.09375,
          "durationTicks": 36,
          "midi": 36,
          "name": "C2",
          "ticks": 50448,
          "time": 131.375,
          "velocity": 0.47244094488188976
        },
        {
          "duration": 0.09375,
          "durationTicks": 36,
          "midi": 36,
          "name": "C2",
          "ticks": 50496,
          "time": 131.5,
          "velocity": 0.47244094488188976
        },
        {
          "duration": 0.09375,
          "durationTicks": 36,
          "midi": 36,
          "name": "C2",
          "ticks": 50544,
          "time": 131.625,
          "velocity": 0.47244094488188976
        },
        {
          "duration": 0.21875,
          "durationTicks": 84,
          "midi": 36,
          "name": "C2",
          "ticks": 50592,
          "time": 131.75,
          "velocity": 0.47244094488188976
        },
        {
          "duration": 0.21875,
          "durationTicks": 84,
          "midi": 38,
          "name": "D2",
          "ticks": 50688,
          "time": 132,
          "velocity": 0.47244094488188976
        },
        {
          "duration": 0.21875,
          "durationTicks": 84,
          "midi": 38,
          "name": "D2",
          "ticks": 50784,
          "time": 132.25,
          "velocity": 0.47244094488188976
        },
        {
          "duration": 0.09375,
          "durationTicks": 36,
          "midi": 38,
          "name": "D2",
          "ticks": 50880,
          "time": 132.5,
          "velocity": 0.47244094488188976
        },
        {
          "duration": 0.21875,
          "durationTicks": 84,
          "midi": 38,
          "name": "D2",
          "ticks": 50928,
          "time": 132.625,
          "velocity": 0.47244094488188976
        },
        {
          "duration": 0.21875,
          "durationTicks": 84,
          "midi": 37,
          "name": "C#2",
          "ticks": 51024,
          "time": 132.875,
          "velocity": 0.47244094488188976
        },
        {
          "duration": 0.21875,
          "durationTicks": 84,
          "midi": 37,
          "name": "C#2",
          "ticks": 51120,
          "time": 133.125,
          "velocity": 0.47244094488188976
        },
        {
          "duration": 0.09375,
          "durationTicks": 36,
          "midi": 37,
          "name": "C#2",
          "ticks": 51216,
          "time": 133.375,
          "velocity": 0.47244094488188976
        },
        {
          "duration": 0.09375,
          "durationTicks": 36,
          "midi": 37,
          "name": "C#2",
          "ticks": 51264,
          "time": 133.5,
          "velocity": 0.47244094488188976
        },
        {
          "duration": 0.09375,
          "durationTicks": 36,
          "midi": 37,
          "name": "C#2",
          "ticks": 51312,
          "time": 133.625,
          "velocity": 0.47244094488188976
        },
        {
          "duration": 0.21875,
          "durationTicks": 84,
          "midi": 37,
          "name": "C#2",
          "ticks": 51360,
          "time": 133.75,
          "velocity": 0.47244094488188976
        },
        {
          "duration": 0.21875,
          "durationTicks": 84,
          "midi": 36,
          "name": "C2",
          "ticks": 51456,
          "time": 134,
          "velocity": 0.47244094488188976
        },
        {
          "duration": 0.21875,
          "durationTicks": 84,
          "midi": 36,
          "name": "C2",
          "ticks": 51552,
          "time": 134.25,
          "velocity": 0.47244094488188976
        },
        {
          "duration": 0.09375,
          "durationTicks": 36,
          "midi": 36,
          "name": "C2",
          "ticks": 51648,
          "time": 134.5,
          "velocity": 0.47244094488188976
        },
        {
          "duration": 0.21875,
          "durationTicks": 84,
          "midi": 36,
          "name": "C2",
          "ticks": 51696,
          "time": 134.625,
          "velocity": 0.47244094488188976
        },
        {
          "duration": 0.21875,
          "durationTicks": 84,
          "midi": 35,
          "name": "B1",
          "ticks": 51792,
          "time": 134.875,
          "velocity": 0.47244094488188976
        },
        {
          "duration": 0.21875,
          "durationTicks": 84,
          "midi": 35,
          "name": "B1",
          "ticks": 51888,
          "time": 135.125,
          "velocity": 0.47244094488188976
        },
        {
          "duration": 0.09375,
          "durationTicks": 36,
          "midi": 35,
          "name": "B1",
          "ticks": 51984,
          "time": 135.375,
          "velocity": 0.47244094488188976
        },
        {
          "duration": 0.09375,
          "durationTicks": 36,
          "midi": 35,
          "name": "B1",
          "ticks": 52032,
          "time": 135.5,
          "velocity": 0.47244094488188976
        },
        {
          "duration": 0.09375,
          "durationTicks": 36,
          "midi": 35,
          "name": "B1",
          "ticks": 52080,
          "time": 135.625,
          "velocity": 0.47244094488188976
        },
        {
          "duration": 0.21875,
          "durationTicks": 84,
          "midi": 35,
          "name": "B1",
          "ticks": 52128,
          "time": 135.75,
          "velocity": 0.47244094488188976
        },
        {
          "duration": 0.21875,
          "durationTicks": 84,
          "midi": 34,
          "name": "A#1",
          "ticks": 52224,
          "time": 136,
          "velocity": 0.47244094488188976
        },
        {
          "duration": 0.21875,
          "durationTicks": 84,
          "midi": 34,
          "name": "A#1",
          "ticks": 52320,
          "time": 136.25,
          "velocity": 0.47244094488188976
        },
        {
          "duration": 0.09375,
          "durationTicks": 36,
          "midi": 34,
          "name": "A#1",
          "ticks": 52416,
          "time": 136.5,
          "velocity": 0.47244094488188976
        },
        {
          "duration": 0.21875,
          "durationTicks": 84,
          "midi": 34,
          "name": "A#1",
          "ticks": 52464,
          "time": 136.625,
          "velocity": 0.47244094488188976
        },
        {
          "duration": 0.21875,
          "durationTicks": 84,
          "midi": 34,
          "name": "A#1",
          "ticks": 52560,
          "time": 136.875,
          "velocity": 0.47244094488188976
        },
        {
          "duration": 0.21875,
          "durationTicks": 84,
          "midi": 34,
          "name": "A#1",
          "ticks": 52656,
          "time": 137.125,
          "velocity": 0.47244094488188976
        },
        {
          "duration": 0.09375,
          "durationTicks": 36,
          "midi": 34,
          "name": "A#1",
          "ticks": 52752,
          "time": 137.375,
          "velocity": 0.47244094488188976
        },
        {
          "duration": 0.09375,
          "durationTicks": 36,
          "midi": 34,
          "name": "A#1",
          "ticks": 52800,
          "time": 137.5,
          "velocity": 0.47244094488188976
        },
        {
          "duration": 0.09375,
          "durationTicks": 36,
          "midi": 34,
          "name": "A#1",
          "ticks": 52848,
          "time": 137.625,
          "velocity": 0.47244094488188976
        },
        {
          "duration": 0.21875,
          "durationTicks": 84,
          "midi": 34,
          "name": "A#1",
          "ticks": 52896,
          "time": 137.75,
          "velocity": 0.47244094488188976
        },
        {
          "duration": 0.21875,
          "durationTicks": 84,
          "midi": 36,
          "name": "C2",
          "ticks": 52992,
          "time": 138,
          "velocity": 0.47244094488188976
        },
        {
          "duration": 0.21875,
          "durationTicks": 84,
          "midi": 36,
          "name": "C2",
          "ticks": 53088,
          "time": 138.25,
          "velocity": 0.47244094488188976
        },
        {
          "duration": 0.09375,
          "durationTicks": 36,
          "midi": 36,
          "name": "C2",
          "ticks": 53184,
          "time": 138.5,
          "velocity": 0.47244094488188976
        },
        {
          "duration": 0.21875,
          "durationTicks": 84,
          "midi": 36,
          "name": "C2",
          "ticks": 53232,
          "time": 138.625,
          "velocity": 0.47244094488188976
        },
        {
          "duration": 0.21875,
          "durationTicks": 84,
          "midi": 36,
          "name": "C2",
          "ticks": 53328,
          "time": 138.875,
          "velocity": 0.47244094488188976
        },
        {
          "duration": 0.21875,
          "durationTicks": 84,
          "midi": 36,
          "name": "C2",
          "ticks": 53424,
          "time": 139.125,
          "velocity": 0.47244094488188976
        },
        {
          "duration": 0.09375,
          "durationTicks": 36,
          "midi": 36,
          "name": "C2",
          "ticks": 53520,
          "time": 139.375,
          "velocity": 0.47244094488188976
        },
        {
          "duration": 0.09375,
          "durationTicks": 36,
          "midi": 36,
          "name": "C2",
          "ticks": 53568,
          "time": 139.5,
          "velocity": 0.47244094488188976
        },
        {
          "duration": 0.09375,
          "durationTicks": 36,
          "midi": 36,
          "name": "C2",
          "ticks": 53616,
          "time": 139.625,
          "velocity": 0.47244094488188976
        },
        {
          "duration": 0.21875,
          "durationTicks": 84,
          "midi": 36,
          "name": "C2",
          "ticks": 53664,
          "time": 139.75,
          "velocity": 0.47244094488188976
        },
        {
          "duration": 0.21875,
          "durationTicks": 84,
          "midi": 38,
          "name": "D2",
          "ticks": 53760,
          "time": 140,
          "velocity": 0.47244094488188976
        },
        {
          "duration": 0.21875,
          "durationTicks": 84,
          "midi": 38,
          "name": "D2",
          "ticks": 53856,
          "time": 140.25,
          "velocity": 0.47244094488188976
        },
        {
          "duration": 0.09375,
          "durationTicks": 36,
          "midi": 38,
          "name": "D2",
          "ticks": 53952,
          "time": 140.5,
          "velocity": 0.47244094488188976
        },
        {
          "duration": 0.21875,
          "durationTicks": 84,
          "midi": 38,
          "name": "D2",
          "ticks": 54000,
          "time": 140.625,
          "velocity": 0.47244094488188976
        },
        {
          "duration": 0.21875,
          "durationTicks": 84,
          "midi": 38,
          "name": "D2",
          "ticks": 54096,
          "time": 140.875,
          "velocity": 0.47244094488188976
        },
        {
          "duration": 0.21875,
          "durationTicks": 84,
          "midi": 38,
          "name": "D2",
          "ticks": 54192,
          "time": 141.125,
          "velocity": 0.47244094488188976
        },
        {
          "duration": 0.09375,
          "durationTicks": 36,
          "midi": 38,
          "name": "D2",
          "ticks": 54288,
          "time": 141.375,
          "velocity": 0.47244094488188976
        },
        {
          "duration": 0.09375,
          "durationTicks": 36,
          "midi": 38,
          "name": "D2",
          "ticks": 54336,
          "time": 141.5,
          "velocity": 0.47244094488188976
        },
        {
          "duration": 0.09375,
          "durationTicks": 36,
          "midi": 38,
          "name": "D2",
          "ticks": 54384,
          "time": 141.625,
          "velocity": 0.47244094488188976
        },
        {
          "duration": 0.21875,
          "durationTicks": 84,
          "midi": 38,
          "name": "D2",
          "ticks": 54432,
          "time": 141.75,
          "velocity": 0.47244094488188976
        },
        {
          "duration": 0.21875,
          "durationTicks": 84,
          "midi": 38,
          "name": "D2",
          "ticks": 54528,
          "time": 142,
          "velocity": 0.47244094488188976
        },
        {
          "duration": 0.21875,
          "durationTicks": 84,
          "midi": 38,
          "name": "D2",
          "ticks": 54624,
          "time": 142.25,
          "velocity": 0.47244094488188976
        },
        {
          "duration": 0.09375,
          "durationTicks": 36,
          "midi": 38,
          "name": "D2",
          "ticks": 54720,
          "time": 142.5,
          "velocity": 0.47244094488188976
        },
        {
          "duration": 0.21875,
          "durationTicks": 84,
          "midi": 38,
          "name": "D2",
          "ticks": 54768,
          "time": 142.625,
          "velocity": 0.47244094488188976
        },
        {
          "duration": 0.21875,
          "durationTicks": 84,
          "midi": 38,
          "name": "D2",
          "ticks": 54864,
          "time": 142.875,
          "velocity": 0.47244094488188976
        },
        {
          "duration": 0.21875,
          "durationTicks": 84,
          "midi": 38,
          "name": "D2",
          "ticks": 54960,
          "time": 143.125,
          "velocity": 0.47244094488188976
        },
        {
          "duration": 0.09375,
          "durationTicks": 36,
          "midi": 38,
          "name": "D2",
          "ticks": 55056,
          "time": 143.375,
          "velocity": 0.47244094488188976
        },
        {
          "duration": 0.09375,
          "durationTicks": 36,
          "midi": 38,
          "name": "D2",
          "ticks": 55104,
          "time": 143.5,
          "velocity": 0.47244094488188976
        },
        {
          "duration": 0.09375,
          "durationTicks": 36,
          "midi": 38,
          "name": "D2",
          "ticks": 55152,
          "time": 143.625,
          "velocity": 0.47244094488188976
        },
        {
          "duration": 0.21875,
          "durationTicks": 84,
          "midi": 38,
          "name": "D2",
          "ticks": 55200,
          "time": 143.75,
          "velocity": 0.47244094488188976
        }
      ]
    },
    {
      "channel": 0,
      "controlChanges": {
        "0": [
          {
            "number": 0,
            "ticks": 0,
            "time": 0,
            "value": 0
          }
        ],
        "32": [
          {
            "number": 32,
            "ticks": 0,
            "time": 0,
            "value": 0
          }
        ]
      },
      "pitchBends": [],
      "instrument": {
        "family": "piano",
        "number": 0,
        "name": "acoustic grand piano"
      },
      "name": "Staff-6",
      "notes": [],
      "endOfTrackTicks": 55294
    },
    {
      "channel": 11,
      "controlChanges": {
        "7": [
          {
            "number": 7,
            "ticks": 0,
            "time": 0,
            "value": 1
          },
          {
            "number": 7,
            "ticks": 0,
            "time": 0,
            "value": 1
          }
        ],
        "10": [
          {
            "number": 10,
            "ticks": 0,
            "time": 0,
            "value": 0.5039370078740157
          }
        ]
      },
      "pitchBends": [],
      "instrument": {
        "family": "guitar",
        "number": 30,
        "name": "distortion guitar"
      },
      "name": "",
      "notes": [
        {
          "duration": 0.24479166666666785,
          "durationTicks": 94,
          "midi": 50,
          "name": "D3",
          "ticks": 6144,
          "time": 16,
          "velocity": 0.8661417322834646
        },
        {
          "duration": 0.24479166666666785,
          "durationTicks": 94,
          "midi": 38,
          "name": "D2",
          "ticks": 6144,
          "time": 16,
          "velocity": 0.8661417322834646
        },
        {
          "duration": 0.24479166666666785,
          "durationTicks": 94,
          "midi": 45,
          "name": "A2",
          "ticks": 6144,
          "time": 16,
          "velocity": 0.8661417322834646
        },
        {
          "duration": 0.24479166666666785,
          "durationTicks": 94,
          "midi": 50,
          "name": "D3",
          "ticks": 6240,
          "time": 16.25,
          "velocity": 0.8661417322834646
        },
        {
          "duration": 0.24479166666666785,
          "durationTicks": 94,
          "midi": 38,
          "name": "D2",
          "ticks": 6240,
          "time": 16.25,
          "velocity": 0.8661417322834646
        },
        {
          "duration": 0.24479166666666785,
          "durationTicks": 94,
          "midi": 45,
          "name": "A2",
          "ticks": 6240,
          "time": 16.25,
          "velocity": 0.8661417322834646
        },
        {
          "duration": 0.11979166666666785,
          "durationTicks": 46,
          "midi": 50,
          "name": "D3",
          "ticks": 6336,
          "time": 16.5,
          "velocity": 0.8661417322834646
        },
        {
          "duration": 0.11979166666666785,
          "durationTicks": 46,
          "midi": 38,
          "name": "D2",
          "ticks": 6336,
          "time": 16.5,
          "velocity": 0.8661417322834646
        },
        {
          "duration": 0.11979166666666785,
          "durationTicks": 46,
          "midi": 45,
          "name": "A2",
          "ticks": 6336,
          "time": 16.5,
          "velocity": 0.8661417322834646
        },
        {
          "duration": 0.11979166666666785,
          "durationTicks": 46,
          "midi": 50,
          "name": "D3",
          "ticks": 6384,
          "time": 16.625,
          "velocity": 0.8661417322834646
        },
        {
          "duration": 0.11979166666666785,
          "durationTicks": 46,
          "midi": 38,
          "name": "D2",
          "ticks": 6384,
          "time": 16.625,
          "velocity": 0.8661417322834646
        },
        {
          "duration": 0.11979166666666785,
          "durationTicks": 46,
          "midi": 45,
          "name": "A2",
          "ticks": 6384,
          "time": 16.625,
          "velocity": 0.8661417322834646
        },
        {
          "duration": 0.11979166666666785,
          "durationTicks": 46,
          "midi": 50,
          "name": "D3",
          "ticks": 6432,
          "time": 16.75,
          "velocity": 0.8661417322834646
        },
        {
          "duration": 0.11979166666666785,
          "durationTicks": 46,
          "midi": 38,
          "name": "D2",
          "ticks": 6432,
          "time": 16.75,
          "velocity": 0.8661417322834646
        },
        {
          "duration": 0.11979166666666785,
          "durationTicks": 46,
          "midi": 45,
          "name": "A2",
          "ticks": 6432,
          "time": 16.75,
          "velocity": 0.8661417322834646
        },
        {
          "duration": 0.24479166666666785,
          "durationTicks": 94,
          "midi": 50,
          "name": "D3",
          "ticks": 6480,
          "time": 16.875,
          "velocity": 0.8661417322834646
        },
        {
          "duration": 0.24479166666666785,
          "durationTicks": 94,
          "midi": 38,
          "name": "D2",
          "ticks": 6480,
          "time": 16.875,
          "velocity": 0.8661417322834646
        },
        {
          "duration": 0.24479166666666785,
          "durationTicks": 94,
          "midi": 45,
          "name": "A2",
          "ticks": 6480,
          "time": 16.875,
          "velocity": 0.8661417322834646
        },
        {
          "duration": 0.24479166666666785,
          "durationTicks": 94,
          "midi": 50,
          "name": "D3",
          "ticks": 6576,
          "time": 17.125,
          "velocity": 0.8661417322834646
        },
        {
          "duration": 0.24479166666666785,
          "durationTicks": 94,
          "midi": 38,
          "name": "D2",
          "ticks": 6576,
          "time": 17.125,
          "velocity": 0.8661417322834646
        },
        {
          "duration": 0.24479166666666785,
          "durationTicks": 94,
          "midi": 45,
          "name": "A2",
          "ticks": 6576,
          "time": 17.125,
          "velocity": 0.8661417322834646
        },
        {
          "duration": 0.11979166666666785,
          "durationTicks": 46,
          "midi": 50,
          "name": "D3",
          "ticks": 6672,
          "time": 17.375,
          "velocity": 0.8661417322834646
        },
        {
          "duration": 0.11979166666666785,
          "durationTicks": 46,
          "midi": 38,
          "name": "D2",
          "ticks": 6672,
          "time": 17.375,
          "velocity": 0.8661417322834646
        },
        {
          "duration": 0.11979166666666785,
          "durationTicks": 46,
          "midi": 45,
          "name": "A2",
          "ticks": 6672,
          "time": 17.375,
          "velocity": 0.8661417322834646
        },
        {
          "duration": 0.11979166666666785,
          "durationTicks": 46,
          "midi": 50,
          "name": "D3",
          "ticks": 6720,
          "time": 17.5,
          "velocity": 0.8661417322834646
        },
        {
          "duration": 0.11979166666666785,
          "durationTicks": 46,
          "midi": 38,
          "name": "D2",
          "ticks": 6720,
          "time": 17.5,
          "velocity": 0.8661417322834646
        },
        {
          "duration": 0.11979166666666785,
          "durationTicks": 46,
          "midi": 45,
          "name": "A2",
          "ticks": 6720,
          "time": 17.5,
          "velocity": 0.8661417322834646
        },
        {
          "duration": 0.11979166666666785,
          "durationTicks": 46,
          "midi": 50,
          "name": "D3",
          "ticks": 6768,
          "time": 17.625,
          "velocity": 0.8661417322834646
        },
        {
          "duration": 0.11979166666666785,
          "durationTicks": 46,
          "midi": 38,
          "name": "D2",
          "ticks": 6768,
          "time": 17.625,
          "velocity": 0.8661417322834646
        },
        {
          "duration": 0.11979166666666785,
          "durationTicks": 46,
          "midi": 45,
          "name": "A2",
          "ticks": 6768,
          "time": 17.625,
          "velocity": 0.8661417322834646
        },
        {
          "duration": 0.24479166666666785,
          "durationTicks": 94,
          "midi": 50,
          "name": "D3",
          "ticks": 6816,
          "time": 17.75,
          "velocity": 0.8661417322834646
        },
        {
          "duration": 0.25,
          "durationTicks": 96,
          "midi": 74,
          "name": "D5",
          "ticks": 6816,
          "time": 17.75,
          "velocity": 0.6299212598425197
        },
        {
          "duration": 0.24479166666666785,
          "durationTicks": 94,
          "midi": 38,
          "name": "D2",
          "ticks": 6816,
          "time": 17.75,
          "velocity": 0.8661417322834646
        },
        {
          "duration": 0.24479166666666785,
          "durationTicks": 94,
          "midi": 45,
          "name": "A2",
          "ticks": 6816,
          "time": 17.75,
          "velocity": 0.8661417322834646
        },
        {
          "duration": 0.24479166666666785,
          "durationTicks": 94,
          "midi": 48,
          "name": "C3",
          "ticks": 6912,
          "time": 18,
          "velocity": 0.8661417322834646
        },
        {
          "duration": 0.24479166666666785,
          "durationTicks": 94,
          "midi": 36,
          "name": "C2",
          "ticks": 6912,
          "time": 18,
          "velocity": 0.8661417322834646
        },
        {
          "duration": 0.24479166666666785,
          "durationTicks": 94,
          "midi": 43,
          "name": "G2",
          "ticks": 6912,
          "time": 18,
          "velocity": 0.8661417322834646
        },
        {
          "duration": 0.24479166666666785,
          "durationTicks": 94,
          "midi": 48,
          "name": "C3",
          "ticks": 7008,
          "time": 18.25,
          "velocity": 0.8661417322834646
        },
        {
          "duration": 0.24479166666666785,
          "durationTicks": 94,
          "midi": 36,
          "name": "C2",
          "ticks": 7008,
          "time": 18.25,
          "velocity": 0.8661417322834646
        },
        {
          "duration": 0.24479166666666785,
          "durationTicks": 94,
          "midi": 43,
          "name": "G2",
          "ticks": 7008,
          "time": 18.25,
          "velocity": 0.8661417322834646
        },
        {
          "duration": 0.11979166666666785,
          "durationTicks": 46,
          "midi": 48,
          "name": "C3",
          "ticks": 7104,
          "time": 18.5,
          "velocity": 0.8661417322834646
        },
        {
          "duration": 0.11979166666666785,
          "durationTicks": 46,
          "midi": 36,
          "name": "C2",
          "ticks": 7104,
          "time": 18.5,
          "velocity": 0.8661417322834646
        },
        {
          "duration": 0.11979166666666785,
          "durationTicks": 46,
          "midi": 43,
          "name": "G2",
          "ticks": 7104,
          "time": 18.5,
          "velocity": 0.8661417322834646
        },
        {
          "duration": 0.11979166666666785,
          "durationTicks": 46,
          "midi": 48,
          "name": "C3",
          "ticks": 7152,
          "time": 18.625,
          "velocity": 0.8661417322834646
        },
        {
          "duration": 0.11979166666666785,
          "durationTicks": 46,
          "midi": 36,
          "name": "C2",
          "ticks": 7152,
          "time": 18.625,
          "velocity": 0.8661417322834646
        },
        {
          "duration": 0.11979166666666785,
          "durationTicks": 46,
          "midi": 43,
          "name": "G2",
          "ticks": 7152,
          "time": 18.625,
          "velocity": 0.8661417322834646
        },
        {
          "duration": 0.11979166666666785,
          "durationTicks": 46,
          "midi": 48,
          "name": "C3",
          "ticks": 7200,
          "time": 18.75,
          "velocity": 0.8661417322834646
        },
        {
          "duration": 0.11979166666666785,
          "durationTicks": 46,
          "midi": 36,
          "name": "C2",
          "ticks": 7200,
          "time": 18.75,
          "velocity": 0.8661417322834646
        },
        {
          "duration": 0.11979166666666785,
          "durationTicks": 46,
          "midi": 43,
          "name": "G2",
          "ticks": 7200,
          "time": 18.75,
          "velocity": 0.8661417322834646
        },
        {
          "duration": 0.24479166666666785,
          "durationTicks": 94,
          "midi": 48,
          "name": "C3",
          "ticks": 7248,
          "time": 18.875,
          "velocity": 0.8661417322834646
        },
        {
          "duration": 0.24479166666666785,
          "durationTicks": 94,
          "midi": 36,
          "name": "C2",
          "ticks": 7248,
          "time": 18.875,
          "velocity": 0.8661417322834646
        },
        {
          "duration": 0.24479166666666785,
          "durationTicks": 94,
          "midi": 43,
          "name": "G2",
          "ticks": 7248,
          "time": 18.875,
          "velocity": 0.8661417322834646
        },
        {
          "duration": 0.24479166666666785,
          "durationTicks": 94,
          "midi": 48,
          "name": "C3",
          "ticks": 7344,
          "time": 19.125,
          "velocity": 0.8661417322834646
        },
        {
          "duration": 0.24479166666666785,
          "durationTicks": 94,
          "midi": 36,
          "name": "C2",
          "ticks": 7344,
          "time": 19.125,
          "velocity": 0.8661417322834646
        },
        {
          "duration": 0.24479166666666785,
          "durationTicks": 94,
          "midi": 43,
          "name": "G2",
          "ticks": 7344,
          "time": 19.125,
          "velocity": 0.8661417322834646
        },
        {
          "duration": 0.11979166666666785,
          "durationTicks": 46,
          "midi": 48,
          "name": "C3",
          "ticks": 7440,
          "time": 19.375,
          "velocity": 0.8661417322834646
        },
        {
          "duration": 0.11979166666666785,
          "durationTicks": 46,
          "midi": 36,
          "name": "C2",
          "ticks": 7440,
          "time": 19.375,
          "velocity": 0.8661417322834646
        },
        {
          "duration": 0.11979166666666785,
          "durationTicks": 46,
          "midi": 43,
          "name": "G2",
          "ticks": 7440,
          "time": 19.375,
          "velocity": 0.8661417322834646
        },
        {
          "duration": 0.11979166666666785,
          "durationTicks": 46,
          "midi": 48,
          "name": "C3",
          "ticks": 7488,
          "time": 19.5,
          "velocity": 0.8661417322834646
        },
        {
          "duration": 0.11979166666666785,
          "durationTicks": 46,
          "midi": 36,
          "name": "C2",
          "ticks": 7488,
          "time": 19.5,
          "velocity": 0.8661417322834646
        },
        {
          "duration": 0.11979166666666785,
          "durationTicks": 46,
          "midi": 43,
          "name": "G2",
          "ticks": 7488,
          "time": 19.5,
          "velocity": 0.8661417322834646
        },
        {
          "duration": 0.11979166666666785,
          "durationTicks": 46,
          "midi": 48,
          "name": "C3",
          "ticks": 7536,
          "time": 19.625,
          "velocity": 0.8661417322834646
        },
        {
          "duration": 0.11979166666666785,
          "durationTicks": 46,
          "midi": 36,
          "name": "C2",
          "ticks": 7536,
          "time": 19.625,
          "velocity": 0.8661417322834646
        },
        {
          "duration": 0.11979166666666785,
          "durationTicks": 46,
          "midi": 43,
          "name": "G2",
          "ticks": 7536,
          "time": 19.625,
          "velocity": 0.8661417322834646
        },
        {
          "duration": 0.24479166666666785,
          "durationTicks": 94,
          "midi": 48,
          "name": "C3",
          "ticks": 7584,
          "time": 19.75,
          "velocity": 0.8661417322834646
        },
        {
          "duration": 0.24479166666666785,
          "durationTicks": 94,
          "midi": 36,
          "name": "C2",
          "ticks": 7584,
          "time": 19.75,
          "velocity": 0.8661417322834646
        },
        {
          "duration": 0.25,
          "durationTicks": 96,
          "midi": 72,
          "name": "C5",
          "ticks": 7584,
          "time": 19.75,
          "velocity": 0.6299212598425197
        },
        {
          "duration": 0.24479166666666785,
          "durationTicks": 94,
          "midi": 43,
          "name": "G2",
          "ticks": 7584,
          "time": 19.75,
          "velocity": 0.8661417322834646
        },
        {
          "duration": 0.24479166666666785,
          "durationTicks": 94,
          "midi": 47,
          "name": "B2",
          "ticks": 7680,
          "time": 20,
          "velocity": 0.8661417322834646
        },
        {
          "duration": 0.24479166666666785,
          "durationTicks": 94,
          "midi": 35,
          "name": "B1",
          "ticks": 7680,
          "time": 20,
          "velocity": 0.8661417322834646
        },
        {
          "duration": 0.24479166666666785,
          "durationTicks": 94,
          "midi": 42,
          "name": "F#2",
          "ticks": 7680,
          "time": 20,
          "velocity": 0.8661417322834646
        },
        {
          "duration": 0.24479166666666785,
          "durationTicks": 94,
          "midi": 47,
          "name": "B2",
          "ticks": 7776,
          "time": 20.25,
          "velocity": 0.8661417322834646
        },
        {
          "duration": 0.24479166666666785,
          "durationTicks": 94,
          "midi": 35,
          "name": "B1",
          "ticks": 7776,
          "time": 20.25,
          "velocity": 0.8661417322834646
        },
        {
          "duration": 0.24479166666666785,
          "durationTicks": 94,
          "midi": 42,
          "name": "F#2",
          "ticks": 7776,
          "time": 20.25,
          "velocity": 0.8661417322834646
        },
        {
          "duration": 0.11979166666666785,
          "durationTicks": 46,
          "midi": 47,
          "name": "B2",
          "ticks": 7872,
          "time": 20.5,
          "velocity": 0.8661417322834646
        },
        {
          "duration": 0.11979166666666785,
          "durationTicks": 46,
          "midi": 35,
          "name": "B1",
          "ticks": 7872,
          "time": 20.5,
          "velocity": 0.8661417322834646
        },
        {
          "duration": 0.11979166666666785,
          "durationTicks": 46,
          "midi": 42,
          "name": "F#2",
          "ticks": 7872,
          "time": 20.5,
          "velocity": 0.8661417322834646
        },
        {
          "duration": 0.11979166666666785,
          "durationTicks": 46,
          "midi": 47,
          "name": "B2",
          "ticks": 7920,
          "time": 20.625,
          "velocity": 0.8661417322834646
        },
        {
          "duration": 0.11979166666666785,
          "durationTicks": 46,
          "midi": 35,
          "name": "B1",
          "ticks": 7920,
          "time": 20.625,
          "velocity": 0.8661417322834646
        },
        {
          "duration": 0.11979166666666785,
          "durationTicks": 46,
          "midi": 42,
          "name": "F#2",
          "ticks": 7920,
          "time": 20.625,
          "velocity": 0.8661417322834646
        },
        {
          "duration": 0.11979166666666785,
          "durationTicks": 46,
          "midi": 47,
          "name": "B2",
          "ticks": 7968,
          "time": 20.75,
          "velocity": 0.8661417322834646
        },
        {
          "duration": 0.11979166666666785,
          "durationTicks": 46,
          "midi": 35,
          "name": "B1",
          "ticks": 7968,
          "time": 20.75,
          "velocity": 0.8661417322834646
        },
        {
          "duration": 0.11979166666666785,
          "durationTicks": 46,
          "midi": 42,
          "name": "F#2",
          "ticks": 7968,
          "time": 20.75,
          "velocity": 0.8661417322834646
        },
        {
          "duration": 0.24479166666666785,
          "durationTicks": 94,
          "midi": 47,
          "name": "B2",
          "ticks": 8016,
          "time": 20.875,
          "velocity": 0.8661417322834646
        },
        {
          "duration": 0.24479166666666785,
          "durationTicks": 94,
          "midi": 35,
          "name": "B1",
          "ticks": 8016,
          "time": 20.875,
          "velocity": 0.8661417322834646
        },
        {
          "duration": 0.24479166666666785,
          "durationTicks": 94,
          "midi": 42,
          "name": "F#2",
          "ticks": 8016,
          "time": 20.875,
          "velocity": 0.8661417322834646
        },
        {
          "duration": 0.24479166666666785,
          "durationTicks": 94,
          "midi": 47,
          "name": "B2",
          "ticks": 8112,
          "time": 21.125,
          "velocity": 0.8661417322834646
        },
        {
          "duration": 0.24479166666666785,
          "durationTicks": 94,
          "midi": 35,
          "name": "B1",
          "ticks": 8112,
          "time": 21.125,
          "velocity": 0.8661417322834646
        },
        {
          "duration": 0.24479166666666785,
          "durationTicks": 94,
          "midi": 42,
          "name": "F#2",
          "ticks": 8112,
          "time": 21.125,
          "velocity": 0.8661417322834646
        },
        {
          "duration": 0.11979166666666785,
          "durationTicks": 46,
          "midi": 47,
          "name": "B2",
          "ticks": 8208,
          "time": 21.375,
          "velocity": 0.8661417322834646
        },
        {
          "duration": 0.11979166666666785,
          "durationTicks": 46,
          "midi": 35,
          "name": "B1",
          "ticks": 8208,
          "time": 21.375,
          "velocity": 0.8661417322834646
        },
        {
          "duration": 0.11979166666666785,
          "durationTicks": 46,
          "midi": 42,
          "name": "F#2",
          "ticks": 8208,
          "time": 21.375,
          "velocity": 0.8661417322834646
        },
        {
          "duration": 0.11979166666666785,
          "durationTicks": 46,
          "midi": 47,
          "name": "B2",
          "ticks": 8256,
          "time": 21.5,
          "velocity": 0.8661417322834646
        },
        {
          "duration": 0.11979166666666785,
          "durationTicks": 46,
          "midi": 35,
          "name": "B1",
          "ticks": 8256,
          "time": 21.5,
          "velocity": 0.8661417322834646
        },
        {
          "duration": 0.11979166666666785,
          "durationTicks": 46,
          "midi": 42,
          "name": "F#2",
          "ticks": 8256,
          "time": 21.5,
          "velocity": 0.8661417322834646
        },
        {
          "duration": 0.11979166666666785,
          "durationTicks": 46,
          "midi": 47,
          "name": "B2",
          "ticks": 8304,
          "time": 21.625,
          "velocity": 0.8661417322834646
        },
        {
          "duration": 0.11979166666666785,
          "durationTicks": 46,
          "midi": 35,
          "name": "B1",
          "ticks": 8304,
          "time": 21.625,
          "velocity": 0.8661417322834646
        },
        {
          "duration": 0.11979166666666785,
          "durationTicks": 46,
          "midi": 42,
          "name": "F#2",
          "ticks": 8304,
          "time": 21.625,
          "velocity": 0.8661417322834646
        },
        {
          "duration": 0.25,
          "durationTicks": 96,
          "midi": 71,
          "name": "B4",
          "ticks": 8352,
          "time": 21.75,
          "velocity": 0.6299212598425197
        },
        {
          "duration": 0.24479166666666785,
          "durationTicks": 94,
          "midi": 35,
          "name": "B1",
          "ticks": 8352,
          "time": 21.75,
          "velocity": 0.8661417322834646
        },
        {
          "duration": 0.24479166666666785,
          "durationTicks": 94,
          "midi": 42,
          "name": "F#2",
          "ticks": 8352,
          "time": 21.75,
          "velocity": 0.8661417322834646
        },
        {
          "duration": 0.24479166666666785,
          "durationTicks": 94,
          "midi": 47,
          "name": "B2",
          "ticks": 8352,
          "time": 21.75,
          "velocity": 0.8661417322834646
        },
        {
          "duration": 0.24479166666666785,
          "durationTicks": 94,
          "midi": 46,
          "name": "A#2",
          "ticks": 8448,
          "time": 22,
          "velocity": 0.8661417322834646
        },
        {
          "duration": 0.24479166666666785,
          "durationTicks": 94,
          "midi": 34,
          "name": "A#1",
          "ticks": 8448,
          "time": 22,
          "velocity": 0.8661417322834646
        },
        {
          "duration": 0.24479166666666785,
          "durationTicks": 94,
          "midi": 41,
          "name": "F2",
          "ticks": 8448,
          "time": 22,
          "velocity": 0.8661417322834646
        },
        {
          "duration": 0.24479166666666785,
          "durationTicks": 94,
          "midi": 46,
          "name": "A#2",
          "ticks": 8544,
          "time": 22.25,
          "velocity": 0.8661417322834646
        },
        {
          "duration": 0.24479166666666785,
          "durationTicks": 94,
          "midi": 34,
          "name": "A#1",
          "ticks": 8544,
          "time": 22.25,
          "velocity": 0.8661417322834646
        },
        {
          "duration": 0.24479166666666785,
          "durationTicks": 94,
          "midi": 41,
          "name": "F2",
          "ticks": 8544,
          "time": 22.25,
          "velocity": 0.8661417322834646
        },
        {
          "duration": 0.11979166666666785,
          "durationTicks": 46,
          "midi": 46,
          "name": "A#2",
          "ticks": 8640,
          "time": 22.5,
          "velocity": 0.8661417322834646
        },
        {
          "duration": 0.11979166666666785,
          "durationTicks": 46,
          "midi": 34,
          "name": "A#1",
          "ticks": 8640,
          "time": 22.5,
          "velocity": 0.8661417322834646
        },
        {
          "duration": 0.11979166666666785,
          "durationTicks": 46,
          "midi": 41,
          "name": "F2",
          "ticks": 8640,
          "time": 22.5,
          "velocity": 0.8661417322834646
        },
        {
          "duration": 0.11979166666666785,
          "durationTicks": 46,
          "midi": 46,
          "name": "A#2",
          "ticks": 8688,
          "time": 22.625,
          "velocity": 0.8661417322834646
        },
        {
          "duration": 0.11979166666666785,
          "durationTicks": 46,
          "midi": 34,
          "name": "A#1",
          "ticks": 8688,
          "time": 22.625,
          "velocity": 0.8661417322834646
        },
        {
          "duration": 0.11979166666666785,
          "durationTicks": 46,
          "midi": 41,
          "name": "F2",
          "ticks": 8688,
          "time": 22.625,
          "velocity": 0.8661417322834646
        },
        {
          "duration": 0.11979166666666785,
          "durationTicks": 46,
          "midi": 46,
          "name": "A#2",
          "ticks": 8736,
          "time": 22.75,
          "velocity": 0.8661417322834646
        },
        {
          "duration": 0.11979166666666785,
          "durationTicks": 46,
          "midi": 34,
          "name": "A#1",
          "ticks": 8736,
          "time": 22.75,
          "velocity": 0.8661417322834646
        },
        {
          "duration": 0.11979166666666785,
          "durationTicks": 46,
          "midi": 41,
          "name": "F2",
          "ticks": 8736,
          "time": 22.75,
          "velocity": 0.8661417322834646
        },
        {
          "duration": 0.24479166666666785,
          "durationTicks": 94,
          "midi": 48,
          "name": "C3",
          "ticks": 8784,
          "time": 22.875,
          "velocity": 0.8661417322834646
        },
        {
          "duration": 0.24479166666666785,
          "durationTicks": 94,
          "midi": 36,
          "name": "C2",
          "ticks": 8784,
          "time": 22.875,
          "velocity": 0.8661417322834646
        },
        {
          "duration": 0.24479166666666785,
          "durationTicks": 94,
          "midi": 43,
          "name": "G2",
          "ticks": 8784,
          "time": 22.875,
          "velocity": 0.8661417322834646
        },
        {
          "duration": 0.24479166666666785,
          "durationTicks": 94,
          "midi": 48,
          "name": "C3",
          "ticks": 8880,
          "time": 23.125,
          "velocity": 0.8661417322834646
        },
        {
          "duration": 0.24479166666666785,
          "durationTicks": 94,
          "midi": 36,
          "name": "C2",
          "ticks": 8880,
          "time": 23.125,
          "velocity": 0.8661417322834646
        },
        {
          "duration": 0.24479166666666785,
          "durationTicks": 94,
          "midi": 43,
          "name": "G2",
          "ticks": 8880,
          "time": 23.125,
          "velocity": 0.8661417322834646
        },
        {
          "duration": 0.11979166666666785,
          "durationTicks": 46,
          "midi": 48,
          "name": "C3",
          "ticks": 8976,
          "time": 23.375,
          "velocity": 0.8661417322834646
        },
        {
          "duration": 0.11979166666666785,
          "durationTicks": 46,
          "midi": 36,
          "name": "C2",
          "ticks": 8976,
          "time": 23.375,
          "velocity": 0.8661417322834646
        },
        {
          "duration": 0.11979166666666785,
          "durationTicks": 46,
          "midi": 43,
          "name": "G2",
          "ticks": 8976,
          "time": 23.375,
          "velocity": 0.8661417322834646
        },
        {
          "duration": 0.11979166666666785,
          "durationTicks": 46,
          "midi": 48,
          "name": "C3",
          "ticks": 9024,
          "time": 23.5,
          "velocity": 0.8661417322834646
        },
        {
          "duration": 0.11979166666666785,
          "durationTicks": 46,
          "midi": 36,
          "name": "C2",
          "ticks": 9024,
          "time": 23.5,
          "velocity": 0.8661417322834646
        },
        {
          "duration": 0.11979166666666785,
          "durationTicks": 46,
          "midi": 43,
          "name": "G2",
          "ticks": 9024,
          "time": 23.5,
          "velocity": 0.8661417322834646
        },
        {
          "duration": 0.11979166666666785,
          "durationTicks": 46,
          "midi": 48,
          "name": "C3",
          "ticks": 9072,
          "time": 23.625,
          "velocity": 0.8661417322834646
        },
        {
          "duration": 0.11979166666666785,
          "durationTicks": 46,
          "midi": 36,
          "name": "C2",
          "ticks": 9072,
          "time": 23.625,
          "velocity": 0.8661417322834646
        },
        {
          "duration": 0.11979166666666785,
          "durationTicks": 46,
          "midi": 43,
          "name": "G2",
          "ticks": 9072,
          "time": 23.625,
          "velocity": 0.8661417322834646
        },
        {
          "duration": 0.24479166666666785,
          "durationTicks": 94,
          "midi": 36,
          "name": "C2",
          "ticks": 9120,
          "time": 23.75,
          "velocity": 0.8661417322834646
        },
        {
          "duration": 0.25,
          "durationTicks": 96,
          "midi": 72,
          "name": "C5",
          "ticks": 9120,
          "time": 23.75,
          "velocity": 0.6299212598425197
        },
        {
          "duration": 0.24479166666666785,
          "durationTicks": 94,
          "midi": 43,
          "name": "G2",
          "ticks": 9120,
          "time": 23.75,
          "velocity": 0.8661417322834646
        },
        {
          "duration": 0.24479166666666785,
          "durationTicks": 94,
          "midi": 48,
          "name": "C3",
          "ticks": 9120,
          "time": 23.75,
          "velocity": 0.8661417322834646
        },
        {
          "duration": 0.24479166666666785,
          "durationTicks": 94,
          "midi": 50,
          "name": "D3",
          "ticks": 9216,
          "time": 24,
          "velocity": 0.8661417322834646
        },
        {
          "duration": 0.24479166666666785,
          "durationTicks": 94,
          "midi": 38,
          "name": "D2",
          "ticks": 9216,
          "time": 24,
          "velocity": 0.8661417322834646
        },
        {
          "duration": 0.24479166666666785,
          "durationTicks": 94,
          "midi": 45,
          "name": "A2",
          "ticks": 9216,
          "time": 24,
          "velocity": 0.8661417322834646
        },
        {
          "duration": 0.24479166666666785,
          "durationTicks": 94,
          "midi": 50,
          "name": "D3",
          "ticks": 9312,
          "time": 24.25,
          "velocity": 0.8661417322834646
        },
        {
          "duration": 0.24479166666666785,
          "durationTicks": 94,
          "midi": 38,
          "name": "D2",
          "ticks": 9312,
          "time": 24.25,
          "velocity": 0.8661417322834646
        },
        {
          "duration": 0.24479166666666785,
          "durationTicks": 94,
          "midi": 45,
          "name": "A2",
          "ticks": 9312,
          "time": 24.25,
          "velocity": 0.8661417322834646
        },
        {
          "duration": 0.11979166666666785,
          "durationTicks": 46,
          "midi": 50,
          "name": "D3",
          "ticks": 9408,
          "time": 24.5,
          "velocity": 0.8661417322834646
        },
        {
          "duration": 0.11979166666666785,
          "durationTicks": 46,
          "midi": 38,
          "name": "D2",
          "ticks": 9408,
          "time": 24.5,
          "velocity": 0.8661417322834646
        },
        {
          "duration": 0.11979166666666785,
          "durationTicks": 46,
          "midi": 45,
          "name": "A2",
          "ticks": 9408,
          "time": 24.5,
          "velocity": 0.8661417322834646
        },
        {
          "duration": 0.11979166666666785,
          "durationTicks": 46,
          "midi": 50,
          "name": "D3",
          "ticks": 9456,
          "time": 24.625,
          "velocity": 0.8661417322834646
        },
        {
          "duration": 0.11979166666666785,
          "durationTicks": 46,
          "midi": 38,
          "name": "D2",
          "ticks": 9456,
          "time": 24.625,
          "velocity": 0.8661417322834646
        },
        {
          "duration": 0.11979166666666785,
          "durationTicks": 46,
          "midi": 45,
          "name": "A2",
          "ticks": 9456,
          "time": 24.625,
          "velocity": 0.8661417322834646
        },
        {
          "duration": 0.11979166666666785,
          "durationTicks": 46,
          "midi": 50,
          "name": "D3",
          "ticks": 9504,
          "time": 24.75,
          "velocity": 0.8661417322834646
        },
        {
          "duration": 0.11979166666666785,
          "durationTicks": 46,
          "midi": 38,
          "name": "D2",
          "ticks": 9504,
          "time": 24.75,
          "velocity": 0.8661417322834646
        },
        {
          "duration": 0.11979166666666785,
          "durationTicks": 46,
          "midi": 45,
          "name": "A2",
          "ticks": 9504,
          "time": 24.75,
          "velocity": 0.8661417322834646
        },
        {
          "duration": 0.24479166666666785,
          "durationTicks": 94,
          "midi": 50,
          "name": "D3",
          "ticks": 9552,
          "time": 24.875,
          "velocity": 0.8661417322834646
        },
        {
          "duration": 0.24479166666666785,
          "durationTicks": 94,
          "midi": 38,
          "name": "D2",
          "ticks": 9552,
          "time": 24.875,
          "velocity": 0.8661417322834646
        },
        {
          "duration": 0.24479166666666785,
          "durationTicks": 94,
          "midi": 45,
          "name": "A2",
          "ticks": 9552,
          "time": 24.875,
          "velocity": 0.8661417322834646
        },
        {
          "duration": 0.24479166666666785,
          "durationTicks": 94,
          "midi": 50,
          "name": "D3",
          "ticks": 9648,
          "time": 25.125,
          "velocity": 0.8661417322834646
        },
        {
          "duration": 0.24479166666666785,
          "durationTicks": 94,
          "midi": 38,
          "name": "D2",
          "ticks": 9648,
          "time": 25.125,
          "velocity": 0.8661417322834646
        },
        {
          "duration": 0.24479166666666785,
          "durationTicks": 94,
          "midi": 45,
          "name": "A2",
          "ticks": 9648,
          "time": 25.125,
          "velocity": 0.8661417322834646
        },
        {
          "duration": 0.11979166666666785,
          "durationTicks": 46,
          "midi": 50,
          "name": "D3",
          "ticks": 9744,
          "time": 25.375,
          "velocity": 0.8661417322834646
        },
        {
          "duration": 0.11979166666666785,
          "durationTicks": 46,
          "midi": 38,
          "name": "D2",
          "ticks": 9744,
          "time": 25.375,
          "velocity": 0.8661417322834646
        },
        {
          "duration": 0.11979166666666785,
          "durationTicks": 46,
          "midi": 45,
          "name": "A2",
          "ticks": 9744,
          "time": 25.375,
          "velocity": 0.8661417322834646
        },
        {
          "duration": 0.11979166666666785,
          "durationTicks": 46,
          "midi": 50,
          "name": "D3",
          "ticks": 9792,
          "time": 25.5,
          "velocity": 0.8661417322834646
        },
        {
          "duration": 0.11979166666666785,
          "durationTicks": 46,
          "midi": 38,
          "name": "D2",
          "ticks": 9792,
          "time": 25.5,
          "velocity": 0.8661417322834646
        },
        {
          "duration": 0.11979166666666785,
          "durationTicks": 46,
          "midi": 45,
          "name": "A2",
          "ticks": 9792,
          "time": 25.5,
          "velocity": 0.8661417322834646
        },
        {
          "duration": 0.11979166666666785,
          "durationTicks": 46,
          "midi": 50,
          "name": "D3",
          "ticks": 9840,
          "time": 25.625,
          "velocity": 0.8661417322834646
        },
        {
          "duration": 0.11979166666666785,
          "durationTicks": 46,
          "midi": 38,
          "name": "D2",
          "ticks": 9840,
          "time": 25.625,
          "velocity": 0.8661417322834646
        },
        {
          "duration": 0.11979166666666785,
          "durationTicks": 46,
          "midi": 45,
          "name": "A2",
          "ticks": 9840,
          "time": 25.625,
          "velocity": 0.8661417322834646
        },
        {
          "duration": 0.24479166666666785,
          "durationTicks": 94,
          "midi": 45,
          "name": "A2",
          "ticks": 9888,
          "time": 25.75,
          "velocity": 0.8661417322834646
        },
        {
          "duration": 0.25,
          "durationTicks": 96,
          "midi": 74,
          "name": "D5",
          "ticks": 9888,
          "time": 25.75,
          "velocity": 0.6299212598425197
        },
        {
          "duration": 0.24479166666666785,
          "durationTicks": 94,
          "midi": 50,
          "name": "D3",
          "ticks": 9888,
          "time": 25.75,
          "velocity": 0.8661417322834646
        },
        {
          "duration": 0.24479166666666785,
          "durationTicks": 94,
          "midi": 38,
          "name": "D2",
          "ticks": 9888,
          "time": 25.75,
          "velocity": 0.8661417322834646
        },
        {
          "duration": 0.24479166666666785,
          "durationTicks": 94,
          "midi": 48,
          "name": "C3",
          "ticks": 9984,
          "time": 26,
          "velocity": 0.8661417322834646
        },
        {
          "duration": 0.24479166666666785,
          "durationTicks": 94,
          "midi": 36,
          "name": "C2",
          "ticks": 9984,
          "time": 26,
          "velocity": 0.8661417322834646
        },
        {
          "duration": 0.24479166666666785,
          "durationTicks": 94,
          "midi": 43,
          "name": "G2",
          "ticks": 9984,
          "time": 26,
          "velocity": 0.8661417322834646
        },
        {
          "duration": 0.24479166666666785,
          "durationTicks": 94,
          "midi": 48,
          "name": "C3",
          "ticks": 10080,
          "time": 26.25,
          "velocity": 0.8661417322834646
        },
        {
          "duration": 0.24479166666666785,
          "durationTicks": 94,
          "midi": 36,
          "name": "C2",
          "ticks": 10080,
          "time": 26.25,
          "velocity": 0.8661417322834646
        },
        {
          "duration": 0.24479166666666785,
          "durationTicks": 94,
          "midi": 43,
          "name": "G2",
          "ticks": 10080,
          "time": 26.25,
          "velocity": 0.8661417322834646
        },
        {
          "duration": 0.11979166666666785,
          "durationTicks": 46,
          "midi": 48,
          "name": "C3",
          "ticks": 10176,
          "time": 26.5,
          "velocity": 0.8661417322834646
        },
        {
          "duration": 0.11979166666666785,
          "durationTicks": 46,
          "midi": 36,
          "name": "C2",
          "ticks": 10176,
          "time": 26.5,
          "velocity": 0.8661417322834646
        },
        {
          "duration": 0.11979166666666785,
          "durationTicks": 46,
          "midi": 43,
          "name": "G2",
          "ticks": 10176,
          "time": 26.5,
          "velocity": 0.8661417322834646
        },
        {
          "duration": 0.11979166666666785,
          "durationTicks": 46,
          "midi": 48,
          "name": "C3",
          "ticks": 10224,
          "time": 26.625,
          "velocity": 0.8661417322834646
        },
        {
          "duration": 0.11979166666666785,
          "durationTicks": 46,
          "midi": 36,
          "name": "C2",
          "ticks": 10224,
          "time": 26.625,
          "velocity": 0.8661417322834646
        },
        {
          "duration": 0.11979166666666785,
          "durationTicks": 46,
          "midi": 43,
          "name": "G2",
          "ticks": 10224,
          "time": 26.625,
          "velocity": 0.8661417322834646
        },
        {
          "duration": 0.11979166666666785,
          "durationTicks": 46,
          "midi": 48,
          "name": "C3",
          "ticks": 10272,
          "time": 26.75,
          "velocity": 0.8661417322834646
        },
        {
          "duration": 0.11979166666666785,
          "durationTicks": 46,
          "midi": 36,
          "name": "C2",
          "ticks": 10272,
          "time": 26.75,
          "velocity": 0.8661417322834646
        },
        {
          "duration": 0.11979166666666785,
          "durationTicks": 46,
          "midi": 43,
          "name": "G2",
          "ticks": 10272,
          "time": 26.75,
          "velocity": 0.8661417322834646
        },
        {
          "duration": 0.24479166666666785,
          "durationTicks": 94,
          "midi": 48,
          "name": "C3",
          "ticks": 10320,
          "time": 26.875,
          "velocity": 0.8661417322834646
        },
        {
          "duration": 0.24479166666666785,
          "durationTicks": 94,
          "midi": 36,
          "name": "C2",
          "ticks": 10320,
          "time": 26.875,
          "velocity": 0.8661417322834646
        },
        {
          "duration": 0.24479166666666785,
          "durationTicks": 94,
          "midi": 43,
          "name": "G2",
          "ticks": 10320,
          "time": 26.875,
          "velocity": 0.8661417322834646
        },
        {
          "duration": 0.24479166666666785,
          "durationTicks": 94,
          "midi": 48,
          "name": "C3",
          "ticks": 10416,
          "time": 27.125,
          "velocity": 0.8661417322834646
        },
        {
          "duration": 0.24479166666666785,
          "durationTicks": 94,
          "midi": 36,
          "name": "C2",
          "ticks": 10416,
          "time": 27.125,
          "velocity": 0.8661417322834646
        },
        {
          "duration": 0.24479166666666785,
          "durationTicks": 94,
          "midi": 43,
          "name": "G2",
          "ticks": 10416,
          "time": 27.125,
          "velocity": 0.8661417322834646
        },
        {
          "duration": 0.11979166666666785,
          "durationTicks": 46,
          "midi": 48,
          "name": "C3",
          "ticks": 10512,
          "time": 27.375,
          "velocity": 0.8661417322834646
        },
        {
          "duration": 0.11979166666666785,
          "durationTicks": 46,
          "midi": 36,
          "name": "C2",
          "ticks": 10512,
          "time": 27.375,
          "velocity": 0.8661417322834646
        },
        {
          "duration": 0.11979166666666785,
          "durationTicks": 46,
          "midi": 43,
          "name": "G2",
          "ticks": 10512,
          "time": 27.375,
          "velocity": 0.8661417322834646
        },
        {
          "duration": 0.11979166666666785,
          "durationTicks": 46,
          "midi": 48,
          "name": "C3",
          "ticks": 10560,
          "time": 27.5,
          "velocity": 0.8661417322834646
        },
        {
          "duration": 0.11979166666666785,
          "durationTicks": 46,
          "midi": 36,
          "name": "C2",
          "ticks": 10560,
          "time": 27.5,
          "velocity": 0.8661417322834646
        },
        {
          "duration": 0.11979166666666785,
          "durationTicks": 46,
          "midi": 43,
          "name": "G2",
          "ticks": 10560,
          "time": 27.5,
          "velocity": 0.8661417322834646
        },
        {
          "duration": 0.11979166666666785,
          "durationTicks": 46,
          "midi": 48,
          "name": "C3",
          "ticks": 10608,
          "time": 27.625,
          "velocity": 0.8661417322834646
        },
        {
          "duration": 0.11979166666666785,
          "durationTicks": 46,
          "midi": 36,
          "name": "C2",
          "ticks": 10608,
          "time": 27.625,
          "velocity": 0.8661417322834646
        },
        {
          "duration": 0.11979166666666785,
          "durationTicks": 46,
          "midi": 43,
          "name": "G2",
          "ticks": 10608,
          "time": 27.625,
          "velocity": 0.8661417322834646
        },
        {
          "duration": 0.24479166666666785,
          "durationTicks": 94,
          "midi": 43,
          "name": "G2",
          "ticks": 10656,
          "time": 27.75,
          "velocity": 0.8661417322834646
        },
        {
          "duration": 0.25,
          "durationTicks": 96,
          "midi": 72,
          "name": "C5",
          "ticks": 10656,
          "time": 27.75,
          "velocity": 0.6299212598425197
        },
        {
          "duration": 0.24479166666666785,
          "durationTicks": 94,
          "midi": 48,
          "name": "C3",
          "ticks": 10656,
          "time": 27.75,
          "velocity": 0.8661417322834646
        },
        {
          "duration": 0.24479166666666785,
          "durationTicks": 94,
          "midi": 36,
          "name": "C2",
          "ticks": 10656,
          "time": 27.75,
          "velocity": 0.8661417322834646
        },
        {
          "duration": 0.24479166666666785,
          "durationTicks": 94,
          "midi": 47,
          "name": "B2",
          "ticks": 10752,
          "time": 28,
          "velocity": 0.8661417322834646
        },
        {
          "duration": 0.24479166666666785,
          "durationTicks": 94,
          "midi": 35,
          "name": "B1",
          "ticks": 10752,
          "time": 28,
          "velocity": 0.8661417322834646
        },
        {
          "duration": 0.24479166666666785,
          "durationTicks": 94,
          "midi": 42,
          "name": "F#2",
          "ticks": 10752,
          "time": 28,
          "velocity": 0.8661417322834646
        },
        {
          "duration": 0.24479166666666785,
          "durationTicks": 94,
          "midi": 47,
          "name": "B2",
          "ticks": 10848,
          "time": 28.25,
          "velocity": 0.8661417322834646
        },
        {
          "duration": 0.24479166666666785,
          "durationTicks": 94,
          "midi": 35,
          "name": "B1",
          "ticks": 10848,
          "time": 28.25,
          "velocity": 0.8661417322834646
        },
        {
          "duration": 0.24479166666666785,
          "durationTicks": 94,
          "midi": 42,
          "name": "F#2",
          "ticks": 10848,
          "time": 28.25,
          "velocity": 0.8661417322834646
        },
        {
          "duration": 0.11979166666666785,
          "durationTicks": 46,
          "midi": 47,
          "name": "B2",
          "ticks": 10944,
          "time": 28.5,
          "velocity": 0.8661417322834646
        },
        {
          "duration": 0.11979166666666785,
          "durationTicks": 46,
          "midi": 35,
          "name": "B1",
          "ticks": 10944,
          "time": 28.5,
          "velocity": 0.8661417322834646
        },
        {
          "duration": 0.11979166666666785,
          "durationTicks": 46,
          "midi": 42,
          "name": "F#2",
          "ticks": 10944,
          "time": 28.5,
          "velocity": 0.8661417322834646
        },
        {
          "duration": 0.11979166666666785,
          "durationTicks": 46,
          "midi": 47,
          "name": "B2",
          "ticks": 10992,
          "time": 28.625,
          "velocity": 0.8661417322834646
        },
        {
          "duration": 0.11979166666666785,
          "durationTicks": 46,
          "midi": 35,
          "name": "B1",
          "ticks": 10992,
          "time": 28.625,
          "velocity": 0.8661417322834646
        },
        {
          "duration": 0.11979166666666785,
          "durationTicks": 46,
          "midi": 42,
          "name": "F#2",
          "ticks": 10992,
          "time": 28.625,
          "velocity": 0.8661417322834646
        },
        {
          "duration": 0.11979166666666785,
          "durationTicks": 46,
          "midi": 47,
          "name": "B2",
          "ticks": 11040,
          "time": 28.75,
          "velocity": 0.8661417322834646
        },
        {
          "duration": 0.11979166666666785,
          "durationTicks": 46,
          "midi": 35,
          "name": "B1",
          "ticks": 11040,
          "time": 28.75,
          "velocity": 0.8661417322834646
        },
        {
          "duration": 0.11979166666666785,
          "durationTicks": 46,
          "midi": 42,
          "name": "F#2",
          "ticks": 11040,
          "time": 28.75,
          "velocity": 0.8661417322834646
        },
        {
          "duration": 0.24479166666666785,
          "durationTicks": 94,
          "midi": 47,
          "name": "B2",
          "ticks": 11088,
          "time": 28.875,
          "velocity": 0.8661417322834646
        },
        {
          "duration": 0.24479166666666785,
          "durationTicks": 94,
          "midi": 35,
          "name": "B1",
          "ticks": 11088,
          "time": 28.875,
          "velocity": 0.8661417322834646
        },
        {
          "duration": 0.24479166666666785,
          "durationTicks": 94,
          "midi": 42,
          "name": "F#2",
          "ticks": 11088,
          "time": 28.875,
          "velocity": 0.8661417322834646
        },
        {
          "duration": 0.24479166666666785,
          "durationTicks": 94,
          "midi": 47,
          "name": "B2",
          "ticks": 11184,
          "time": 29.125,
          "velocity": 0.8661417322834646
        },
        {
          "duration": 0.24479166666666785,
          "durationTicks": 94,
          "midi": 35,
          "name": "B1",
          "ticks": 11184,
          "time": 29.125,
          "velocity": 0.8661417322834646
        },
        {
          "duration": 0.24479166666666785,
          "durationTicks": 94,
          "midi": 42,
          "name": "F#2",
          "ticks": 11184,
          "time": 29.125,
          "velocity": 0.8661417322834646
        },
        {
          "duration": 0.11979166666666785,
          "durationTicks": 46,
          "midi": 47,
          "name": "B2",
          "ticks": 11280,
          "time": 29.375,
          "velocity": 0.8661417322834646
        },
        {
          "duration": 0.11979166666666785,
          "durationTicks": 46,
          "midi": 35,
          "name": "B1",
          "ticks": 11280,
          "time": 29.375,
          "velocity": 0.8661417322834646
        },
        {
          "duration": 0.11979166666666785,
          "durationTicks": 46,
          "midi": 42,
          "name": "F#2",
          "ticks": 11280,
          "time": 29.375,
          "velocity": 0.8661417322834646
        },
        {
          "duration": 0.11979166666666785,
          "durationTicks": 46,
          "midi": 47,
          "name": "B2",
          "ticks": 11328,
          "time": 29.5,
          "velocity": 0.8661417322834646
        },
        {
          "duration": 0.11979166666666785,
          "durationTicks": 46,
          "midi": 35,
          "name": "B1",
          "ticks": 11328,
          "time": 29.5,
          "velocity": 0.8661417322834646
        },
        {
          "duration": 0.11979166666666785,
          "durationTicks": 46,
          "midi": 42,
          "name": "F#2",
          "ticks": 11328,
          "time": 29.5,
          "velocity": 0.8661417322834646
        },
        {
          "duration": 0.11979166666666785,
          "durationTicks": 46,
          "midi": 47,
          "name": "B2",
          "ticks": 11376,
          "time": 29.625,
          "velocity": 0.8661417322834646
        },
        {
          "duration": 0.11979166666666785,
          "durationTicks": 46,
          "midi": 35,
          "name": "B1",
          "ticks": 11376,
          "time": 29.625,
          "velocity": 0.8661417322834646
        },
        {
          "duration": 0.11979166666666785,
          "durationTicks": 46,
          "midi": 42,
          "name": "F#2",
          "ticks": 11376,
          "time": 29.625,
          "velocity": 0.8661417322834646
        },
        {
          "duration": 0.24479166666666785,
          "durationTicks": 94,
          "midi": 42,
          "name": "F#2",
          "ticks": 11424,
          "time": 29.75,
          "velocity": 0.8661417322834646
        },
        {
          "duration": 0.25,
          "durationTicks": 96,
          "midi": 71,
          "name": "B4",
          "ticks": 11424,
          "time": 29.75,
          "velocity": 0.6299212598425197
        },
        {
          "duration": 0.24479166666666785,
          "durationTicks": 94,
          "midi": 47,
          "name": "B2",
          "ticks": 11424,
          "time": 29.75,
          "velocity": 0.8661417322834646
        },
        {
          "duration": 0.24479166666666785,
          "durationTicks": 94,
          "midi": 35,
          "name": "B1",
          "ticks": 11424,
          "time": 29.75,
          "velocity": 0.8661417322834646
        },
        {
          "duration": 0.24479166666666785,
          "durationTicks": 94,
          "midi": 46,
          "name": "A#2",
          "ticks": 11520,
          "time": 30,
          "velocity": 0.8661417322834646
        },
        {
          "duration": 0.24479166666666785,
          "durationTicks": 94,
          "midi": 34,
          "name": "A#1",
          "ticks": 11520,
          "time": 30,
          "velocity": 0.8661417322834646
        },
        {
          "duration": 0.24479166666666785,
          "durationTicks": 94,
          "midi": 41,
          "name": "F2",
          "ticks": 11520,
          "time": 30,
          "velocity": 0.8661417322834646
        },
        {
          "duration": 0.24479166666666785,
          "durationTicks": 94,
          "midi": 46,
          "name": "A#2",
          "ticks": 11616,
          "time": 30.25,
          "velocity": 0.8661417322834646
        },
        {
          "duration": 0.24479166666666785,
          "durationTicks": 94,
          "midi": 34,
          "name": "A#1",
          "ticks": 11616,
          "time": 30.25,
          "velocity": 0.8661417322834646
        },
        {
          "duration": 0.24479166666666785,
          "durationTicks": 94,
          "midi": 41,
          "name": "F2",
          "ticks": 11616,
          "time": 30.25,
          "velocity": 0.8661417322834646
        },
        {
          "duration": 0.11979166666666785,
          "durationTicks": 46,
          "midi": 46,
          "name": "A#2",
          "ticks": 11712,
          "time": 30.5,
          "velocity": 0.8661417322834646
        },
        {
          "duration": 0.11979166666666785,
          "durationTicks": 46,
          "midi": 34,
          "name": "A#1",
          "ticks": 11712,
          "time": 30.5,
          "velocity": 0.8661417322834646
        },
        {
          "duration": 0.11979166666666785,
          "durationTicks": 46,
          "midi": 41,
          "name": "F2",
          "ticks": 11712,
          "time": 30.5,
          "velocity": 0.8661417322834646
        },
        {
          "duration": 0.11979166666666785,
          "durationTicks": 46,
          "midi": 46,
          "name": "A#2",
          "ticks": 11760,
          "time": 30.625,
          "velocity": 0.8661417322834646
        },
        {
          "duration": 0.11979166666666785,
          "durationTicks": 46,
          "midi": 34,
          "name": "A#1",
          "ticks": 11760,
          "time": 30.625,
          "velocity": 0.8661417322834646
        },
        {
          "duration": 0.11979166666666785,
          "durationTicks": 46,
          "midi": 41,
          "name": "F2",
          "ticks": 11760,
          "time": 30.625,
          "velocity": 0.8661417322834646
        },
        {
          "duration": 0.11979166666666785,
          "durationTicks": 46,
          "midi": 46,
          "name": "A#2",
          "ticks": 11808,
          "time": 30.75,
          "velocity": 0.8661417322834646
        },
        {
          "duration": 0.11979166666666785,
          "durationTicks": 46,
          "midi": 34,
          "name": "A#1",
          "ticks": 11808,
          "time": 30.75,
          "velocity": 0.8661417322834646
        },
        {
          "duration": 0.11979166666666785,
          "durationTicks": 46,
          "midi": 41,
          "name": "F2",
          "ticks": 11808,
          "time": 30.75,
          "velocity": 0.8661417322834646
        },
        {
          "duration": 0.24479166666666785,
          "durationTicks": 94,
          "midi": 48,
          "name": "C3",
          "ticks": 11856,
          "time": 30.875,
          "velocity": 0.8661417322834646
        },
        {
          "duration": 0.24479166666666785,
          "durationTicks": 94,
          "midi": 36,
          "name": "C2",
          "ticks": 11856,
          "time": 30.875,
          "velocity": 0.8661417322834646
        },
        {
          "duration": 0.24479166666666785,
          "durationTicks": 94,
          "midi": 43,
          "name": "G2",
          "ticks": 11856,
          "time": 30.875,
          "velocity": 0.8661417322834646
        },
        {
          "duration": 0.24479166666666785,
          "durationTicks": 94,
          "midi": 48,
          "name": "C3",
          "ticks": 11952,
          "time": 31.125,
          "velocity": 0.8661417322834646
        },
        {
          "duration": 0.24479166666666785,
          "durationTicks": 94,
          "midi": 36,
          "name": "C2",
          "ticks": 11952,
          "time": 31.125,
          "velocity": 0.8661417322834646
        },
        {
          "duration": 0.24479166666666785,
          "durationTicks": 94,
          "midi": 43,
          "name": "G2",
          "ticks": 11952,
          "time": 31.125,
          "velocity": 0.8661417322834646
        },
        {
          "duration": 0.11979166666666785,
          "durationTicks": 46,
          "midi": 48,
          "name": "C3",
          "ticks": 12048,
          "time": 31.375,
          "velocity": 0.8661417322834646
        },
        {
          "duration": 0.11979166666666785,
          "durationTicks": 46,
          "midi": 36,
          "name": "C2",
          "ticks": 12048,
          "time": 31.375,
          "velocity": 0.8661417322834646
        },
        {
          "duration": 0.11979166666666785,
          "durationTicks": 46,
          "midi": 43,
          "name": "G2",
          "ticks": 12048,
          "time": 31.375,
          "velocity": 0.8661417322834646
        },
        {
          "duration": 0.11979166666666785,
          "durationTicks": 46,
          "midi": 48,
          "name": "C3",
          "ticks": 12096,
          "time": 31.5,
          "velocity": 0.8661417322834646
        },
        {
          "duration": 0.11979166666666785,
          "durationTicks": 46,
          "midi": 36,
          "name": "C2",
          "ticks": 12096,
          "time": 31.5,
          "velocity": 0.8661417322834646
        },
        {
          "duration": 0.11979166666666785,
          "durationTicks": 46,
          "midi": 43,
          "name": "G2",
          "ticks": 12096,
          "time": 31.5,
          "velocity": 0.8661417322834646
        },
        {
          "duration": 0.11979166666666785,
          "durationTicks": 46,
          "midi": 48,
          "name": "C3",
          "ticks": 12144,
          "time": 31.625,
          "velocity": 0.8661417322834646
        },
        {
          "duration": 0.11979166666666785,
          "durationTicks": 46,
          "midi": 36,
          "name": "C2",
          "ticks": 12144,
          "time": 31.625,
          "velocity": 0.8661417322834646
        },
        {
          "duration": 0.11979166666666785,
          "durationTicks": 46,
          "midi": 43,
          "name": "G2",
          "ticks": 12144,
          "time": 31.625,
          "velocity": 0.8661417322834646
        },
        {
          "duration": 0.24479166666666785,
          "durationTicks": 94,
          "midi": 43,
          "name": "G2",
          "ticks": 12192,
          "time": 31.75,
          "velocity": 0.8661417322834646
        },
        {
          "duration": 0.25,
          "durationTicks": 96,
          "midi": 72,
          "name": "C5",
          "ticks": 12192,
          "time": 31.75,
          "velocity": 0.6299212598425197
        },
        {
          "duration": 0.24479166666666785,
          "durationTicks": 94,
          "midi": 48,
          "name": "C3",
          "ticks": 12192,
          "time": 31.75,
          "velocity": 0.8661417322834646
        },
        {
          "duration": 0.24479166666666785,
          "durationTicks": 94,
          "midi": 36,
          "name": "C2",
          "ticks": 12192,
          "time": 31.75,
          "velocity": 0.8661417322834646
        },
        {
          "duration": 0.2447916666666643,
          "durationTicks": 94,
          "midi": 50,
          "name": "D3",
          "ticks": 12288,
          "time": 32,
          "velocity": 0.8661417322834646
        },
        {
          "duration": 0.2447916666666643,
          "durationTicks": 94,
          "midi": 38,
          "name": "D2",
          "ticks": 12288,
          "time": 32,
          "velocity": 0.8661417322834646
        },
        {
          "duration": 0.2447916666666643,
          "durationTicks": 94,
          "midi": 45,
          "name": "A2",
          "ticks": 12288,
          "time": 32,
          "velocity": 0.8661417322834646
        },
        {
          "duration": 0.2447916666666643,
          "durationTicks": 94,
          "midi": 50,
          "name": "D3",
          "ticks": 12384,
          "time": 32.25,
          "velocity": 0.8661417322834646
        },
        {
          "duration": 0.2447916666666643,
          "durationTicks": 94,
          "midi": 38,
          "name": "D2",
          "ticks": 12384,
          "time": 32.25,
          "velocity": 0.8661417322834646
        },
        {
          "duration": 0.2447916666666643,
          "durationTicks": 94,
          "midi": 45,
          "name": "A2",
          "ticks": 12384,
          "time": 32.25,
          "velocity": 0.8661417322834646
        },
        {
          "duration": 0.1197916666666643,
          "durationTicks": 46,
          "midi": 50,
          "name": "D3",
          "ticks": 12480,
          "time": 32.5,
          "velocity": 0.8661417322834646
        },
        {
          "duration": 0.1197916666666643,
          "durationTicks": 46,
          "midi": 38,
          "name": "D2",
          "ticks": 12480,
          "time": 32.5,
          "velocity": 0.8661417322834646
        },
        {
          "duration": 0.1197916666666643,
          "durationTicks": 46,
          "midi": 45,
          "name": "A2",
          "ticks": 12480,
          "time": 32.5,
          "velocity": 0.8661417322834646
        },
        {
          "duration": 0.1197916666666643,
          "durationTicks": 46,
          "midi": 50,
          "name": "D3",
          "ticks": 12528,
          "time": 32.625,
          "velocity": 0.8661417322834646
        },
        {
          "duration": 0.1197916666666643,
          "durationTicks": 46,
          "midi": 38,
          "name": "D2",
          "ticks": 12528,
          "time": 32.625,
          "velocity": 0.8661417322834646
        },
        {
          "duration": 0.1197916666666643,
          "durationTicks": 46,
          "midi": 45,
          "name": "A2",
          "ticks": 12528,
          "time": 32.625,
          "velocity": 0.8661417322834646
        },
        {
          "duration": 0.1197916666666643,
          "durationTicks": 46,
          "midi": 50,
          "name": "D3",
          "ticks": 12576,
          "time": 32.75,
          "velocity": 0.8661417322834646
        },
        {
          "duration": 0.1197916666666643,
          "durationTicks": 46,
          "midi": 38,
          "name": "D2",
          "ticks": 12576,
          "time": 32.75,
          "velocity": 0.8661417322834646
        },
        {
          "duration": 0.1197916666666643,
          "durationTicks": 46,
          "midi": 45,
          "name": "A2",
          "ticks": 12576,
          "time": 32.75,
          "velocity": 0.8661417322834646
        },
        {
          "duration": 0.2447916666666643,
          "durationTicks": 94,
          "midi": 50,
          "name": "D3",
          "ticks": 12624,
          "time": 32.875,
          "velocity": 0.8661417322834646
        },
        {
          "duration": 0.2447916666666643,
          "durationTicks": 94,
          "midi": 38,
          "name": "D2",
          "ticks": 12624,
          "time": 32.875,
          "velocity": 0.8661417322834646
        },
        {
          "duration": 0.2447916666666643,
          "durationTicks": 94,
          "midi": 45,
          "name": "A2",
          "ticks": 12624,
          "time": 32.875,
          "velocity": 0.8661417322834646
        },
        {
          "duration": 0.2447916666666643,
          "durationTicks": 94,
          "midi": 50,
          "name": "D3",
          "ticks": 12720,
          "time": 33.125,
          "velocity": 0.8661417322834646
        },
        {
          "duration": 0.2447916666666643,
          "durationTicks": 94,
          "midi": 38,
          "name": "D2",
          "ticks": 12720,
          "time": 33.125,
          "velocity": 0.8661417322834646
        },
        {
          "duration": 0.2447916666666643,
          "durationTicks": 94,
          "midi": 45,
          "name": "A2",
          "ticks": 12720,
          "time": 33.125,
          "velocity": 0.8661417322834646
        },
        {
          "duration": 0.1197916666666643,
          "durationTicks": 46,
          "midi": 50,
          "name": "D3",
          "ticks": 12816,
          "time": 33.375,
          "velocity": 0.8661417322834646
        },
        {
          "duration": 0.1197916666666643,
          "durationTicks": 46,
          "midi": 38,
          "name": "D2",
          "ticks": 12816,
          "time": 33.375,
          "velocity": 0.8661417322834646
        },
        {
          "duration": 0.1197916666666643,
          "durationTicks": 46,
          "midi": 45,
          "name": "A2",
          "ticks": 12816,
          "time": 33.375,
          "velocity": 0.8661417322834646
        },
        {
          "duration": 0.1197916666666643,
          "durationTicks": 46,
          "midi": 50,
          "name": "D3",
          "ticks": 12864,
          "time": 33.5,
          "velocity": 0.8661417322834646
        },
        {
          "duration": 0.1197916666666643,
          "durationTicks": 46,
          "midi": 38,
          "name": "D2",
          "ticks": 12864,
          "time": 33.5,
          "velocity": 0.8661417322834646
        },
        {
          "duration": 0.1197916666666643,
          "durationTicks": 46,
          "midi": 45,
          "name": "A2",
          "ticks": 12864,
          "time": 33.5,
          "velocity": 0.8661417322834646
        },
        {
          "duration": 0.1197916666666643,
          "durationTicks": 46,
          "midi": 50,
          "name": "D3",
          "ticks": 12912,
          "time": 33.625,
          "velocity": 0.8661417322834646
        },
        {
          "duration": 0.1197916666666643,
          "durationTicks": 46,
          "midi": 38,
          "name": "D2",
          "ticks": 12912,
          "time": 33.625,
          "velocity": 0.8661417322834646
        },
        {
          "duration": 0.1197916666666643,
          "durationTicks": 46,
          "midi": 45,
          "name": "A2",
          "ticks": 12912,
          "time": 33.625,
          "velocity": 0.8661417322834646
        },
        {
          "duration": 0.2447916666666643,
          "durationTicks": 94,
          "midi": 45,
          "name": "A2",
          "ticks": 12960,
          "time": 33.75,
          "velocity": 0.8661417322834646
        },
        {
          "duration": 0.25,
          "durationTicks": 96,
          "midi": 74,
          "name": "D5",
          "ticks": 12960,
          "time": 33.75,
          "velocity": 0.6299212598425197
        },
        {
          "duration": 0.2447916666666643,
          "durationTicks": 94,
          "midi": 50,
          "name": "D3",
          "ticks": 12960,
          "time": 33.75,
          "velocity": 0.8661417322834646
        },
        {
          "duration": 0.2447916666666643,
          "durationTicks": 94,
          "midi": 38,
          "name": "D2",
          "ticks": 12960,
          "time": 33.75,
          "velocity": 0.8661417322834646
        },
        {
          "duration": 0.2447916666666643,
          "durationTicks": 94,
          "midi": 48,
          "name": "C3",
          "ticks": 13056,
          "time": 34,
          "velocity": 0.8661417322834646
        },
        {
          "duration": 0.2447916666666643,
          "durationTicks": 94,
          "midi": 36,
          "name": "C2",
          "ticks": 13056,
          "time": 34,
          "velocity": 0.8661417322834646
        },
        {
          "duration": 0.2447916666666643,
          "durationTicks": 94,
          "midi": 43,
          "name": "G2",
          "ticks": 13056,
          "time": 34,
          "velocity": 0.8661417322834646
        },
        {
          "duration": 0.2447916666666643,
          "durationTicks": 94,
          "midi": 48,
          "name": "C3",
          "ticks": 13152,
          "time": 34.25,
          "velocity": 0.8661417322834646
        },
        {
          "duration": 0.2447916666666643,
          "durationTicks": 94,
          "midi": 36,
          "name": "C2",
          "ticks": 13152,
          "time": 34.25,
          "velocity": 0.8661417322834646
        },
        {
          "duration": 0.2447916666666643,
          "durationTicks": 94,
          "midi": 43,
          "name": "G2",
          "ticks": 13152,
          "time": 34.25,
          "velocity": 0.8661417322834646
        },
        {
          "duration": 0.1197916666666643,
          "durationTicks": 46,
          "midi": 48,
          "name": "C3",
          "ticks": 13248,
          "time": 34.5,
          "velocity": 0.8661417322834646
        },
        {
          "duration": 0.1197916666666643,
          "durationTicks": 46,
          "midi": 36,
          "name": "C2",
          "ticks": 13248,
          "time": 34.5,
          "velocity": 0.8661417322834646
        },
        {
          "duration": 0.1197916666666643,
          "durationTicks": 46,
          "midi": 43,
          "name": "G2",
          "ticks": 13248,
          "time": 34.5,
          "velocity": 0.8661417322834646
        },
        {
          "duration": 0.1197916666666643,
          "durationTicks": 46,
          "midi": 48,
          "name": "C3",
          "ticks": 13296,
          "time": 34.625,
          "velocity": 0.8661417322834646
        },
        {
          "duration": 0.1197916666666643,
          "durationTicks": 46,
          "midi": 36,
          "name": "C2",
          "ticks": 13296,
          "time": 34.625,
          "velocity": 0.8661417322834646
        },
        {
          "duration": 0.1197916666666643,
          "durationTicks": 46,
          "midi": 43,
          "name": "G2",
          "ticks": 13296,
          "time": 34.625,
          "velocity": 0.8661417322834646
        },
        {
          "duration": 0.1197916666666643,
          "durationTicks": 46,
          "midi": 48,
          "name": "C3",
          "ticks": 13344,
          "time": 34.75,
          "velocity": 0.8661417322834646
        },
        {
          "duration": 0.1197916666666643,
          "durationTicks": 46,
          "midi": 36,
          "name": "C2",
          "ticks": 13344,
          "time": 34.75,
          "velocity": 0.8661417322834646
        },
        {
          "duration": 0.1197916666666643,
          "durationTicks": 46,
          "midi": 43,
          "name": "G2",
          "ticks": 13344,
          "time": 34.75,
          "velocity": 0.8661417322834646
        },
        {
          "duration": 0.2447916666666643,
          "durationTicks": 94,
          "midi": 48,
          "name": "C3",
          "ticks": 13392,
          "time": 34.875,
          "velocity": 0.8661417322834646
        },
        {
          "duration": 0.2447916666666643,
          "durationTicks": 94,
          "midi": 36,
          "name": "C2",
          "ticks": 13392,
          "time": 34.875,
          "velocity": 0.8661417322834646
        },
        {
          "duration": 0.2447916666666643,
          "durationTicks": 94,
          "midi": 43,
          "name": "G2",
          "ticks": 13392,
          "time": 34.875,
          "velocity": 0.8661417322834646
        },
        {
          "duration": 0.2447916666666643,
          "durationTicks": 94,
          "midi": 48,
          "name": "C3",
          "ticks": 13488,
          "time": 35.125,
          "velocity": 0.8661417322834646
        },
        {
          "duration": 0.2447916666666643,
          "durationTicks": 94,
          "midi": 36,
          "name": "C2",
          "ticks": 13488,
          "time": 35.125,
          "velocity": 0.8661417322834646
        },
        {
          "duration": 0.2447916666666643,
          "durationTicks": 94,
          "midi": 43,
          "name": "G2",
          "ticks": 13488,
          "time": 35.125,
          "velocity": 0.8661417322834646
        },
        {
          "duration": 0.1197916666666643,
          "durationTicks": 46,
          "midi": 48,
          "name": "C3",
          "ticks": 13584,
          "time": 35.375,
          "velocity": 0.8661417322834646
        },
        {
          "duration": 0.1197916666666643,
          "durationTicks": 46,
          "midi": 36,
          "name": "C2",
          "ticks": 13584,
          "time": 35.375,
          "velocity": 0.8661417322834646
        },
        {
          "duration": 0.1197916666666643,
          "durationTicks": 46,
          "midi": 43,
          "name": "G2",
          "ticks": 13584,
          "time": 35.375,
          "velocity": 0.8661417322834646
        },
        {
          "duration": 0.1197916666666643,
          "durationTicks": 46,
          "midi": 48,
          "name": "C3",
          "ticks": 13632,
          "time": 35.5,
          "velocity": 0.8661417322834646
        },
        {
          "duration": 0.1197916666666643,
          "durationTicks": 46,
          "midi": 36,
          "name": "C2",
          "ticks": 13632,
          "time": 35.5,
          "velocity": 0.8661417322834646
        },
        {
          "duration": 0.1197916666666643,
          "durationTicks": 46,
          "midi": 43,
          "name": "G2",
          "ticks": 13632,
          "time": 35.5,
          "velocity": 0.8661417322834646
        },
        {
          "duration": 0.1197916666666643,
          "durationTicks": 46,
          "midi": 48,
          "name": "C3",
          "ticks": 13680,
          "time": 35.625,
          "velocity": 0.8661417322834646
        },
        {
          "duration": 0.1197916666666643,
          "durationTicks": 46,
          "midi": 36,
          "name": "C2",
          "ticks": 13680,
          "time": 35.625,
          "velocity": 0.8661417322834646
        },
        {
          "duration": 0.1197916666666643,
          "durationTicks": 46,
          "midi": 43,
          "name": "G2",
          "ticks": 13680,
          "time": 35.625,
          "velocity": 0.8661417322834646
        },
        {
          "duration": 0.2447916666666643,
          "durationTicks": 94,
          "midi": 43,
          "name": "G2",
          "ticks": 13728,
          "time": 35.75,
          "velocity": 0.8661417322834646
        },
        {
          "duration": 0.25,
          "durationTicks": 96,
          "midi": 72,
          "name": "C5",
          "ticks": 13728,
          "time": 35.75,
          "velocity": 0.6299212598425197
        },
        {
          "duration": 0.2447916666666643,
          "durationTicks": 94,
          "midi": 48,
          "name": "C3",
          "ticks": 13728,
          "time": 35.75,
          "velocity": 0.8661417322834646
        },
        {
          "duration": 0.2447916666666643,
          "durationTicks": 94,
          "midi": 36,
          "name": "C2",
          "ticks": 13728,
          "time": 35.75,
          "velocity": 0.8661417322834646
        },
        {
          "duration": 0.2447916666666643,
          "durationTicks": 94,
          "midi": 47,
          "name": "B2",
          "ticks": 13824,
          "time": 36,
          "velocity": 0.8661417322834646
        },
        {
          "duration": 0.2447916666666643,
          "durationTicks": 94,
          "midi": 35,
          "name": "B1",
          "ticks": 13824,
          "time": 36,
          "velocity": 0.8661417322834646
        },
        {
          "duration": 0.2447916666666643,
          "durationTicks": 94,
          "midi": 42,
          "name": "F#2",
          "ticks": 13824,
          "time": 36,
          "velocity": 0.8661417322834646
        },
        {
          "duration": 0.2447916666666643,
          "durationTicks": 94,
          "midi": 47,
          "name": "B2",
          "ticks": 13920,
          "time": 36.25,
          "velocity": 0.8661417322834646
        },
        {
          "duration": 0.2447916666666643,
          "durationTicks": 94,
          "midi": 35,
          "name": "B1",
          "ticks": 13920,
          "time": 36.25,
          "velocity": 0.8661417322834646
        },
        {
          "duration": 0.2447916666666643,
          "durationTicks": 94,
          "midi": 42,
          "name": "F#2",
          "ticks": 13920,
          "time": 36.25,
          "velocity": 0.8661417322834646
        },
        {
          "duration": 0.1197916666666643,
          "durationTicks": 46,
          "midi": 47,
          "name": "B2",
          "ticks": 14016,
          "time": 36.5,
          "velocity": 0.8661417322834646
        },
        {
          "duration": 0.1197916666666643,
          "durationTicks": 46,
          "midi": 35,
          "name": "B1",
          "ticks": 14016,
          "time": 36.5,
          "velocity": 0.8661417322834646
        },
        {
          "duration": 0.1197916666666643,
          "durationTicks": 46,
          "midi": 42,
          "name": "F#2",
          "ticks": 14016,
          "time": 36.5,
          "velocity": 0.8661417322834646
        },
        {
          "duration": 0.1197916666666643,
          "durationTicks": 46,
          "midi": 47,
          "name": "B2",
          "ticks": 14064,
          "time": 36.625,
          "velocity": 0.8661417322834646
        },
        {
          "duration": 0.1197916666666643,
          "durationTicks": 46,
          "midi": 35,
          "name": "B1",
          "ticks": 14064,
          "time": 36.625,
          "velocity": 0.8661417322834646
        },
        {
          "duration": 0.1197916666666643,
          "durationTicks": 46,
          "midi": 42,
          "name": "F#2",
          "ticks": 14064,
          "time": 36.625,
          "velocity": 0.8661417322834646
        },
        {
          "duration": 0.1197916666666643,
          "durationTicks": 46,
          "midi": 47,
          "name": "B2",
          "ticks": 14112,
          "time": 36.75,
          "velocity": 0.8661417322834646
        },
        {
          "duration": 0.1197916666666643,
          "durationTicks": 46,
          "midi": 35,
          "name": "B1",
          "ticks": 14112,
          "time": 36.75,
          "velocity": 0.8661417322834646
        },
        {
          "duration": 0.1197916666666643,
          "durationTicks": 46,
          "midi": 42,
          "name": "F#2",
          "ticks": 14112,
          "time": 36.75,
          "velocity": 0.8661417322834646
        },
        {
          "duration": 0.2447916666666643,
          "durationTicks": 94,
          "midi": 47,
          "name": "B2",
          "ticks": 14160,
          "time": 36.875,
          "velocity": 0.8661417322834646
        },
        {
          "duration": 0.2447916666666643,
          "durationTicks": 94,
          "midi": 35,
          "name": "B1",
          "ticks": 14160,
          "time": 36.875,
          "velocity": 0.8661417322834646
        },
        {
          "duration": 0.2447916666666643,
          "durationTicks": 94,
          "midi": 42,
          "name": "F#2",
          "ticks": 14160,
          "time": 36.875,
          "velocity": 0.8661417322834646
        },
        {
          "duration": 0.2447916666666643,
          "durationTicks": 94,
          "midi": 47,
          "name": "B2",
          "ticks": 14256,
          "time": 37.125,
          "velocity": 0.8661417322834646
        },
        {
          "duration": 0.2447916666666643,
          "durationTicks": 94,
          "midi": 35,
          "name": "B1",
          "ticks": 14256,
          "time": 37.125,
          "velocity": 0.8661417322834646
        },
        {
          "duration": 0.2447916666666643,
          "durationTicks": 94,
          "midi": 42,
          "name": "F#2",
          "ticks": 14256,
          "time": 37.125,
          "velocity": 0.8661417322834646
        },
        {
          "duration": 0.1197916666666643,
          "durationTicks": 46,
          "midi": 47,
          "name": "B2",
          "ticks": 14352,
          "time": 37.375,
          "velocity": 0.8661417322834646
        },
        {
          "duration": 0.1197916666666643,
          "durationTicks": 46,
          "midi": 35,
          "name": "B1",
          "ticks": 14352,
          "time": 37.375,
          "velocity": 0.8661417322834646
        },
        {
          "duration": 0.1197916666666643,
          "durationTicks": 46,
          "midi": 42,
          "name": "F#2",
          "ticks": 14352,
          "time": 37.375,
          "velocity": 0.8661417322834646
        },
        {
          "duration": 0.1197916666666643,
          "durationTicks": 46,
          "midi": 47,
          "name": "B2",
          "ticks": 14400,
          "time": 37.5,
          "velocity": 0.8661417322834646
        },
        {
          "duration": 0.1197916666666643,
          "durationTicks": 46,
          "midi": 35,
          "name": "B1",
          "ticks": 14400,
          "time": 37.5,
          "velocity": 0.8661417322834646
        },
        {
          "duration": 0.1197916666666643,
          "durationTicks": 46,
          "midi": 42,
          "name": "F#2",
          "ticks": 14400,
          "time": 37.5,
          "velocity": 0.8661417322834646
        },
        {
          "duration": 0.1197916666666643,
          "durationTicks": 46,
          "midi": 47,
          "name": "B2",
          "ticks": 14448,
          "time": 37.625,
          "velocity": 0.8661417322834646
        },
        {
          "duration": 0.1197916666666643,
          "durationTicks": 46,
          "midi": 35,
          "name": "B1",
          "ticks": 14448,
          "time": 37.625,
          "velocity": 0.8661417322834646
        },
        {
          "duration": 0.1197916666666643,
          "durationTicks": 46,
          "midi": 42,
          "name": "F#2",
          "ticks": 14448,
          "time": 37.625,
          "velocity": 0.8661417322834646
        },
        {
          "duration": 0.2447916666666643,
          "durationTicks": 94,
          "midi": 42,
          "name": "F#2",
          "ticks": 14496,
          "time": 37.75,
          "velocity": 0.8661417322834646
        },
        {
          "duration": 0.25,
          "durationTicks": 96,
          "midi": 71,
          "name": "B4",
          "ticks": 14496,
          "time": 37.75,
          "velocity": 0.6299212598425197
        },
        {
          "duration": 0.2447916666666643,
          "durationTicks": 94,
          "midi": 47,
          "name": "B2",
          "ticks": 14496,
          "time": 37.75,
          "velocity": 0.8661417322834646
        },
        {
          "duration": 0.2447916666666643,
          "durationTicks": 94,
          "midi": 35,
          "name": "B1",
          "ticks": 14496,
          "time": 37.75,
          "velocity": 0.8661417322834646
        },
        {
          "duration": 0.2447916666666643,
          "durationTicks": 94,
          "midi": 46,
          "name": "A#2",
          "ticks": 14592,
          "time": 38,
          "velocity": 0.8661417322834646
        },
        {
          "duration": 0.2447916666666643,
          "durationTicks": 94,
          "midi": 34,
          "name": "A#1",
          "ticks": 14592,
          "time": 38,
          "velocity": 0.8661417322834646
        },
        {
          "duration": 0.2447916666666643,
          "durationTicks": 94,
          "midi": 41,
          "name": "F2",
          "ticks": 14592,
          "time": 38,
          "velocity": 0.8661417322834646
        },
        {
          "duration": 0.2447916666666643,
          "durationTicks": 94,
          "midi": 46,
          "name": "A#2",
          "ticks": 14688,
          "time": 38.25,
          "velocity": 0.8661417322834646
        },
        {
          "duration": 0.2447916666666643,
          "durationTicks": 94,
          "midi": 34,
          "name": "A#1",
          "ticks": 14688,
          "time": 38.25,
          "velocity": 0.8661417322834646
        },
        {
          "duration": 0.2447916666666643,
          "durationTicks": 94,
          "midi": 41,
          "name": "F2",
          "ticks": 14688,
          "time": 38.25,
          "velocity": 0.8661417322834646
        },
        {
          "duration": 0.1197916666666643,
          "durationTicks": 46,
          "midi": 46,
          "name": "A#2",
          "ticks": 14784,
          "time": 38.5,
          "velocity": 0.8661417322834646
        },
        {
          "duration": 0.1197916666666643,
          "durationTicks": 46,
          "midi": 34,
          "name": "A#1",
          "ticks": 14784,
          "time": 38.5,
          "velocity": 0.8661417322834646
        },
        {
          "duration": 0.1197916666666643,
          "durationTicks": 46,
          "midi": 41,
          "name": "F2",
          "ticks": 14784,
          "time": 38.5,
          "velocity": 0.8661417322834646
        },
        {
          "duration": 0.1197916666666643,
          "durationTicks": 46,
          "midi": 46,
          "name": "A#2",
          "ticks": 14832,
          "time": 38.625,
          "velocity": 0.8661417322834646
        },
        {
          "duration": 0.1197916666666643,
          "durationTicks": 46,
          "midi": 34,
          "name": "A#1",
          "ticks": 14832,
          "time": 38.625,
          "velocity": 0.8661417322834646
        },
        {
          "duration": 0.1197916666666643,
          "durationTicks": 46,
          "midi": 41,
          "name": "F2",
          "ticks": 14832,
          "time": 38.625,
          "velocity": 0.8661417322834646
        },
        {
          "duration": 0.1197916666666643,
          "durationTicks": 46,
          "midi": 46,
          "name": "A#2",
          "ticks": 14880,
          "time": 38.75,
          "velocity": 0.8661417322834646
        },
        {
          "duration": 0.1197916666666643,
          "durationTicks": 46,
          "midi": 34,
          "name": "A#1",
          "ticks": 14880,
          "time": 38.75,
          "velocity": 0.8661417322834646
        },
        {
          "duration": 0.1197916666666643,
          "durationTicks": 46,
          "midi": 41,
          "name": "F2",
          "ticks": 14880,
          "time": 38.75,
          "velocity": 0.8661417322834646
        },
        {
          "duration": 0.2447916666666643,
          "durationTicks": 94,
          "midi": 48,
          "name": "C3",
          "ticks": 14928,
          "time": 38.875,
          "velocity": 0.8661417322834646
        },
        {
          "duration": 0.2447916666666643,
          "durationTicks": 94,
          "midi": 36,
          "name": "C2",
          "ticks": 14928,
          "time": 38.875,
          "velocity": 0.8661417322834646
        },
        {
          "duration": 0.2447916666666643,
          "durationTicks": 94,
          "midi": 43,
          "name": "G2",
          "ticks": 14928,
          "time": 38.875,
          "velocity": 0.8661417322834646
        },
        {
          "duration": 0.2447916666666643,
          "durationTicks": 94,
          "midi": 48,
          "name": "C3",
          "ticks": 15024,
          "time": 39.125,
          "velocity": 0.8661417322834646
        },
        {
          "duration": 0.2447916666666643,
          "durationTicks": 94,
          "midi": 36,
          "name": "C2",
          "ticks": 15024,
          "time": 39.125,
          "velocity": 0.8661417322834646
        },
        {
          "duration": 0.2447916666666643,
          "durationTicks": 94,
          "midi": 43,
          "name": "G2",
          "ticks": 15024,
          "time": 39.125,
          "velocity": 0.8661417322834646
        },
        {
          "duration": 0.1197916666666643,
          "durationTicks": 46,
          "midi": 48,
          "name": "C3",
          "ticks": 15120,
          "time": 39.375,
          "velocity": 0.8661417322834646
        },
        {
          "duration": 0.1197916666666643,
          "durationTicks": 46,
          "midi": 36,
          "name": "C2",
          "ticks": 15120,
          "time": 39.375,
          "velocity": 0.8661417322834646
        },
        {
          "duration": 0.1197916666666643,
          "durationTicks": 46,
          "midi": 43,
          "name": "G2",
          "ticks": 15120,
          "time": 39.375,
          "velocity": 0.8661417322834646
        },
        {
          "duration": 0.1197916666666643,
          "durationTicks": 46,
          "midi": 48,
          "name": "C3",
          "ticks": 15168,
          "time": 39.5,
          "velocity": 0.8661417322834646
        },
        {
          "duration": 0.1197916666666643,
          "durationTicks": 46,
          "midi": 36,
          "name": "C2",
          "ticks": 15168,
          "time": 39.5,
          "velocity": 0.8661417322834646
        },
        {
          "duration": 0.1197916666666643,
          "durationTicks": 46,
          "midi": 43,
          "name": "G2",
          "ticks": 15168,
          "time": 39.5,
          "velocity": 0.8661417322834646
        },
        {
          "duration": 0.1197916666666643,
          "durationTicks": 46,
          "midi": 48,
          "name": "C3",
          "ticks": 15216,
          "time": 39.625,
          "velocity": 0.8661417322834646
        },
        {
          "duration": 0.1197916666666643,
          "durationTicks": 46,
          "midi": 36,
          "name": "C2",
          "ticks": 15216,
          "time": 39.625,
          "velocity": 0.8661417322834646
        },
        {
          "duration": 0.1197916666666643,
          "durationTicks": 46,
          "midi": 43,
          "name": "G2",
          "ticks": 15216,
          "time": 39.625,
          "velocity": 0.8661417322834646
        },
        {
          "duration": 0.2447916666666643,
          "durationTicks": 94,
          "midi": 43,
          "name": "G2",
          "ticks": 15264,
          "time": 39.75,
          "velocity": 0.8661417322834646
        },
        {
          "duration": 0.25,
          "durationTicks": 96,
          "midi": 72,
          "name": "C5",
          "ticks": 15264,
          "time": 39.75,
          "velocity": 0.6299212598425197
        },
        {
          "duration": 0.2447916666666643,
          "durationTicks": 94,
          "midi": 48,
          "name": "C3",
          "ticks": 15264,
          "time": 39.75,
          "velocity": 0.8661417322834646
        },
        {
          "duration": 0.2447916666666643,
          "durationTicks": 94,
          "midi": 36,
          "name": "C2",
          "ticks": 15264,
          "time": 39.75,
          "velocity": 0.8661417322834646
        },
        {
          "duration": 0.2447916666666643,
          "durationTicks": 94,
          "midi": 50,
          "name": "D3",
          "ticks": 15360,
          "time": 40,
          "velocity": 0.8661417322834646
        },
        {
          "duration": 0.2447916666666643,
          "durationTicks": 94,
          "midi": 38,
          "name": "D2",
          "ticks": 15360,
          "time": 40,
          "velocity": 0.8661417322834646
        },
        {
          "duration": 0.2447916666666643,
          "durationTicks": 94,
          "midi": 45,
          "name": "A2",
          "ticks": 15360,
          "time": 40,
          "velocity": 0.8661417322834646
        },
        {
          "duration": 0.2447916666666643,
          "durationTicks": 94,
          "midi": 50,
          "name": "D3",
          "ticks": 15456,
          "time": 40.25,
          "velocity": 0.8661417322834646
        },
        {
          "duration": 0.2447916666666643,
          "durationTicks": 94,
          "midi": 38,
          "name": "D2",
          "ticks": 15456,
          "time": 40.25,
          "velocity": 0.8661417322834646
        },
        {
          "duration": 0.2447916666666643,
          "durationTicks": 94,
          "midi": 45,
          "name": "A2",
          "ticks": 15456,
          "time": 40.25,
          "velocity": 0.8661417322834646
        },
        {
          "duration": 0.1197916666666643,
          "durationTicks": 46,
          "midi": 50,
          "name": "D3",
          "ticks": 15552,
          "time": 40.5,
          "velocity": 0.8661417322834646
        },
        {
          "duration": 0.1197916666666643,
          "durationTicks": 46,
          "midi": 38,
          "name": "D2",
          "ticks": 15552,
          "time": 40.5,
          "velocity": 0.8661417322834646
        },
        {
          "duration": 0.1197916666666643,
          "durationTicks": 46,
          "midi": 45,
          "name": "A2",
          "ticks": 15552,
          "time": 40.5,
          "velocity": 0.8661417322834646
        },
        {
          "duration": 0.1197916666666643,
          "durationTicks": 46,
          "midi": 50,
          "name": "D3",
          "ticks": 15600,
          "time": 40.625,
          "velocity": 0.8661417322834646
        },
        {
          "duration": 0.1197916666666643,
          "durationTicks": 46,
          "midi": 38,
          "name": "D2",
          "ticks": 15600,
          "time": 40.625,
          "velocity": 0.8661417322834646
        },
        {
          "duration": 0.1197916666666643,
          "durationTicks": 46,
          "midi": 45,
          "name": "A2",
          "ticks": 15600,
          "time": 40.625,
          "velocity": 0.8661417322834646
        },
        {
          "duration": 0.1197916666666643,
          "durationTicks": 46,
          "midi": 50,
          "name": "D3",
          "ticks": 15648,
          "time": 40.75,
          "velocity": 0.8661417322834646
        },
        {
          "duration": 0.1197916666666643,
          "durationTicks": 46,
          "midi": 38,
          "name": "D2",
          "ticks": 15648,
          "time": 40.75,
          "velocity": 0.8661417322834646
        },
        {
          "duration": 0.1197916666666643,
          "durationTicks": 46,
          "midi": 45,
          "name": "A2",
          "ticks": 15648,
          "time": 40.75,
          "velocity": 0.8661417322834646
        },
        {
          "duration": 0.2447916666666643,
          "durationTicks": 94,
          "midi": 50,
          "name": "D3",
          "ticks": 15696,
          "time": 40.875,
          "velocity": 0.8661417322834646
        },
        {
          "duration": 0.2447916666666643,
          "durationTicks": 94,
          "midi": 38,
          "name": "D2",
          "ticks": 15696,
          "time": 40.875,
          "velocity": 0.8661417322834646
        },
        {
          "duration": 0.2447916666666643,
          "durationTicks": 94,
          "midi": 45,
          "name": "A2",
          "ticks": 15696,
          "time": 40.875,
          "velocity": 0.8661417322834646
        },
        {
          "duration": 0.2447916666666643,
          "durationTicks": 94,
          "midi": 50,
          "name": "D3",
          "ticks": 15792,
          "time": 41.125,
          "velocity": 0.8661417322834646
        },
        {
          "duration": 0.2447916666666643,
          "durationTicks": 94,
          "midi": 38,
          "name": "D2",
          "ticks": 15792,
          "time": 41.125,
          "velocity": 0.8661417322834646
        },
        {
          "duration": 0.2447916666666643,
          "durationTicks": 94,
          "midi": 45,
          "name": "A2",
          "ticks": 15792,
          "time": 41.125,
          "velocity": 0.8661417322834646
        },
        {
          "duration": 0.1197916666666643,
          "durationTicks": 46,
          "midi": 50,
          "name": "D3",
          "ticks": 15888,
          "time": 41.375,
          "velocity": 0.8661417322834646
        },
        {
          "duration": 0.1197916666666643,
          "durationTicks": 46,
          "midi": 38,
          "name": "D2",
          "ticks": 15888,
          "time": 41.375,
          "velocity": 0.8661417322834646
        },
        {
          "duration": 0.1197916666666643,
          "durationTicks": 46,
          "midi": 45,
          "name": "A2",
          "ticks": 15888,
          "time": 41.375,
          "velocity": 0.8661417322834646
        },
        {
          "duration": 0.1197916666666643,
          "durationTicks": 46,
          "midi": 50,
          "name": "D3",
          "ticks": 15936,
          "time": 41.5,
          "velocity": 0.8661417322834646
        },
        {
          "duration": 0.1197916666666643,
          "durationTicks": 46,
          "midi": 38,
          "name": "D2",
          "ticks": 15936,
          "time": 41.5,
          "velocity": 0.8661417322834646
        },
        {
          "duration": 0.1197916666666643,
          "durationTicks": 46,
          "midi": 45,
          "name": "A2",
          "ticks": 15936,
          "time": 41.5,
          "velocity": 0.8661417322834646
        },
        {
          "duration": 0.1197916666666643,
          "durationTicks": 46,
          "midi": 50,
          "name": "D3",
          "ticks": 15984,
          "time": 41.625,
          "velocity": 0.8661417322834646
        },
        {
          "duration": 0.1197916666666643,
          "durationTicks": 46,
          "midi": 38,
          "name": "D2",
          "ticks": 15984,
          "time": 41.625,
          "velocity": 0.8661417322834646
        },
        {
          "duration": 0.1197916666666643,
          "durationTicks": 46,
          "midi": 45,
          "name": "A2",
          "ticks": 15984,
          "time": 41.625,
          "velocity": 0.8661417322834646
        },
        {
          "duration": 0.2447916666666643,
          "durationTicks": 94,
          "midi": 45,
          "name": "A2",
          "ticks": 16032,
          "time": 41.75,
          "velocity": 0.8661417322834646
        },
        {
          "duration": 0.25,
          "durationTicks": 96,
          "midi": 74,
          "name": "D5",
          "ticks": 16032,
          "time": 41.75,
          "velocity": 0.6299212598425197
        },
        {
          "duration": 0.2447916666666643,
          "durationTicks": 94,
          "midi": 50,
          "name": "D3",
          "ticks": 16032,
          "time": 41.75,
          "velocity": 0.8661417322834646
        },
        {
          "duration": 0.2447916666666643,
          "durationTicks": 94,
          "midi": 38,
          "name": "D2",
          "ticks": 16032,
          "time": 41.75,
          "velocity": 0.8661417322834646
        },
        {
          "duration": 0.2447916666666643,
          "durationTicks": 94,
          "midi": 48,
          "name": "C3",
          "ticks": 16128,
          "time": 42,
          "velocity": 0.8661417322834646
        },
        {
          "duration": 0.2447916666666643,
          "durationTicks": 94,
          "midi": 36,
          "name": "C2",
          "ticks": 16128,
          "time": 42,
          "velocity": 0.8661417322834646
        },
        {
          "duration": 0.2447916666666643,
          "durationTicks": 94,
          "midi": 43,
          "name": "G2",
          "ticks": 16128,
          "time": 42,
          "velocity": 0.8661417322834646
        },
        {
          "duration": 0.2447916666666643,
          "durationTicks": 94,
          "midi": 48,
          "name": "C3",
          "ticks": 16224,
          "time": 42.25,
          "velocity": 0.8661417322834646
        },
        {
          "duration": 0.2447916666666643,
          "durationTicks": 94,
          "midi": 36,
          "name": "C2",
          "ticks": 16224,
          "time": 42.25,
          "velocity": 0.8661417322834646
        },
        {
          "duration": 0.2447916666666643,
          "durationTicks": 94,
          "midi": 43,
          "name": "G2",
          "ticks": 16224,
          "time": 42.25,
          "velocity": 0.8661417322834646
        },
        {
          "duration": 0.1197916666666643,
          "durationTicks": 46,
          "midi": 48,
          "name": "C3",
          "ticks": 16320,
          "time": 42.5,
          "velocity": 0.8661417322834646
        },
        {
          "duration": 0.1197916666666643,
          "durationTicks": 46,
          "midi": 36,
          "name": "C2",
          "ticks": 16320,
          "time": 42.5,
          "velocity": 0.8661417322834646
        },
        {
          "duration": 0.1197916666666643,
          "durationTicks": 46,
          "midi": 43,
          "name": "G2",
          "ticks": 16320,
          "time": 42.5,
          "velocity": 0.8661417322834646
        },
        {
          "duration": 0.1197916666666643,
          "durationTicks": 46,
          "midi": 48,
          "name": "C3",
          "ticks": 16368,
          "time": 42.625,
          "velocity": 0.8661417322834646
        },
        {
          "duration": 0.1197916666666643,
          "durationTicks": 46,
          "midi": 36,
          "name": "C2",
          "ticks": 16368,
          "time": 42.625,
          "velocity": 0.8661417322834646
        },
        {
          "duration": 0.1197916666666643,
          "durationTicks": 46,
          "midi": 43,
          "name": "G2",
          "ticks": 16368,
          "time": 42.625,
          "velocity": 0.8661417322834646
        },
        {
          "duration": 0.1197916666666643,
          "durationTicks": 46,
          "midi": 48,
          "name": "C3",
          "ticks": 16416,
          "time": 42.75,
          "velocity": 0.8661417322834646
        },
        {
          "duration": 0.1197916666666643,
          "durationTicks": 46,
          "midi": 36,
          "name": "C2",
          "ticks": 16416,
          "time": 42.75,
          "velocity": 0.8661417322834646
        },
        {
          "duration": 0.1197916666666643,
          "durationTicks": 46,
          "midi": 43,
          "name": "G2",
          "ticks": 16416,
          "time": 42.75,
          "velocity": 0.8661417322834646
        },
        {
          "duration": 0.2447916666666643,
          "durationTicks": 94,
          "midi": 48,
          "name": "C3",
          "ticks": 16464,
          "time": 42.875,
          "velocity": 0.8661417322834646
        },
        {
          "duration": 0.2447916666666643,
          "durationTicks": 94,
          "midi": 36,
          "name": "C2",
          "ticks": 16464,
          "time": 42.875,
          "velocity": 0.8661417322834646
        },
        {
          "duration": 0.2447916666666643,
          "durationTicks": 94,
          "midi": 43,
          "name": "G2",
          "ticks": 16464,
          "time": 42.875,
          "velocity": 0.8661417322834646
        },
        {
          "duration": 0.2447916666666643,
          "durationTicks": 94,
          "midi": 48,
          "name": "C3",
          "ticks": 16560,
          "time": 43.125,
          "velocity": 0.8661417322834646
        },
        {
          "duration": 0.2447916666666643,
          "durationTicks": 94,
          "midi": 36,
          "name": "C2",
          "ticks": 16560,
          "time": 43.125,
          "velocity": 0.8661417322834646
        },
        {
          "duration": 0.2447916666666643,
          "durationTicks": 94,
          "midi": 43,
          "name": "G2",
          "ticks": 16560,
          "time": 43.125,
          "velocity": 0.8661417322834646
        },
        {
          "duration": 0.1197916666666643,
          "durationTicks": 46,
          "midi": 48,
          "name": "C3",
          "ticks": 16656,
          "time": 43.375,
          "velocity": 0.8661417322834646
        },
        {
          "duration": 0.1197916666666643,
          "durationTicks": 46,
          "midi": 36,
          "name": "C2",
          "ticks": 16656,
          "time": 43.375,
          "velocity": 0.8661417322834646
        },
        {
          "duration": 0.1197916666666643,
          "durationTicks": 46,
          "midi": 43,
          "name": "G2",
          "ticks": 16656,
          "time": 43.375,
          "velocity": 0.8661417322834646
        },
        {
          "duration": 0.1197916666666643,
          "durationTicks": 46,
          "midi": 48,
          "name": "C3",
          "ticks": 16704,
          "time": 43.5,
          "velocity": 0.8661417322834646
        },
        {
          "duration": 0.1197916666666643,
          "durationTicks": 46,
          "midi": 36,
          "name": "C2",
          "ticks": 16704,
          "time": 43.5,
          "velocity": 0.8661417322834646
        },
        {
          "duration": 0.1197916666666643,
          "durationTicks": 46,
          "midi": 43,
          "name": "G2",
          "ticks": 16704,
          "time": 43.5,
          "velocity": 0.8661417322834646
        },
        {
          "duration": 0.1197916666666643,
          "durationTicks": 46,
          "midi": 48,
          "name": "C3",
          "ticks": 16752,
          "time": 43.625,
          "velocity": 0.8661417322834646
        },
        {
          "duration": 0.1197916666666643,
          "durationTicks": 46,
          "midi": 36,
          "name": "C2",
          "ticks": 16752,
          "time": 43.625,
          "velocity": 0.8661417322834646
        },
        {
          "duration": 0.1197916666666643,
          "durationTicks": 46,
          "midi": 43,
          "name": "G2",
          "ticks": 16752,
          "time": 43.625,
          "velocity": 0.8661417322834646
        },
        {
          "duration": 0.2447916666666643,
          "durationTicks": 94,
          "midi": 43,
          "name": "G2",
          "ticks": 16800,
          "time": 43.75,
          "velocity": 0.8661417322834646
        },
        {
          "duration": 0.25,
          "durationTicks": 96,
          "midi": 72,
          "name": "C5",
          "ticks": 16800,
          "time": 43.75,
          "velocity": 0.6299212598425197
        },
        {
          "duration": 0.2447916666666643,
          "durationTicks": 94,
          "midi": 48,
          "name": "C3",
          "ticks": 16800,
          "time": 43.75,
          "velocity": 0.8661417322834646
        },
        {
          "duration": 0.2447916666666643,
          "durationTicks": 94,
          "midi": 36,
          "name": "C2",
          "ticks": 16800,
          "time": 43.75,
          "velocity": 0.8661417322834646
        },
        {
          "duration": 0.2447916666666643,
          "durationTicks": 94,
          "midi": 47,
          "name": "B2",
          "ticks": 16896,
          "time": 44,
          "velocity": 0.8661417322834646
        },
        {
          "duration": 0.2447916666666643,
          "durationTicks": 94,
          "midi": 35,
          "name": "B1",
          "ticks": 16896,
          "time": 44,
          "velocity": 0.8661417322834646
        },
        {
          "duration": 0.2447916666666643,
          "durationTicks": 94,
          "midi": 42,
          "name": "F#2",
          "ticks": 16896,
          "time": 44,
          "velocity": 0.8661417322834646
        },
        {
          "duration": 0.2447916666666643,
          "durationTicks": 94,
          "midi": 47,
          "name": "B2",
          "ticks": 16992,
          "time": 44.25,
          "velocity": 0.8661417322834646
        },
        {
          "duration": 0.2447916666666643,
          "durationTicks": 94,
          "midi": 35,
          "name": "B1",
          "ticks": 16992,
          "time": 44.25,
          "velocity": 0.8661417322834646
        },
        {
          "duration": 0.2447916666666643,
          "durationTicks": 94,
          "midi": 42,
          "name": "F#2",
          "ticks": 16992,
          "time": 44.25,
          "velocity": 0.8661417322834646
        },
        {
          "duration": 0.1197916666666643,
          "durationTicks": 46,
          "midi": 47,
          "name": "B2",
          "ticks": 17088,
          "time": 44.5,
          "velocity": 0.8661417322834646
        },
        {
          "duration": 0.1197916666666643,
          "durationTicks": 46,
          "midi": 35,
          "name": "B1",
          "ticks": 17088,
          "time": 44.5,
          "velocity": 0.8661417322834646
        },
        {
          "duration": 0.1197916666666643,
          "durationTicks": 46,
          "midi": 42,
          "name": "F#2",
          "ticks": 17088,
          "time": 44.5,
          "velocity": 0.8661417322834646
        },
        {
          "duration": 0.1197916666666643,
          "durationTicks": 46,
          "midi": 47,
          "name": "B2",
          "ticks": 17136,
          "time": 44.625,
          "velocity": 0.8661417322834646
        },
        {
          "duration": 0.1197916666666643,
          "durationTicks": 46,
          "midi": 35,
          "name": "B1",
          "ticks": 17136,
          "time": 44.625,
          "velocity": 0.8661417322834646
        },
        {
          "duration": 0.1197916666666643,
          "durationTicks": 46,
          "midi": 42,
          "name": "F#2",
          "ticks": 17136,
          "time": 44.625,
          "velocity": 0.8661417322834646
        },
        {
          "duration": 0.1197916666666643,
          "durationTicks": 46,
          "midi": 47,
          "name": "B2",
          "ticks": 17184,
          "time": 44.75,
          "velocity": 0.8661417322834646
        },
        {
          "duration": 0.1197916666666643,
          "durationTicks": 46,
          "midi": 35,
          "name": "B1",
          "ticks": 17184,
          "time": 44.75,
          "velocity": 0.8661417322834646
        },
        {
          "duration": 0.1197916666666643,
          "durationTicks": 46,
          "midi": 42,
          "name": "F#2",
          "ticks": 17184,
          "time": 44.75,
          "velocity": 0.8661417322834646
        },
        {
          "duration": 0.2447916666666643,
          "durationTicks": 94,
          "midi": 47,
          "name": "B2",
          "ticks": 17232,
          "time": 44.875,
          "velocity": 0.8661417322834646
        },
        {
          "duration": 0.2447916666666643,
          "durationTicks": 94,
          "midi": 35,
          "name": "B1",
          "ticks": 17232,
          "time": 44.875,
          "velocity": 0.8661417322834646
        },
        {
          "duration": 0.2447916666666643,
          "durationTicks": 94,
          "midi": 42,
          "name": "F#2",
          "ticks": 17232,
          "time": 44.875,
          "velocity": 0.8661417322834646
        },
        {
          "duration": 0.2447916666666643,
          "durationTicks": 94,
          "midi": 47,
          "name": "B2",
          "ticks": 17328,
          "time": 45.125,
          "velocity": 0.8661417322834646
        },
        {
          "duration": 0.2447916666666643,
          "durationTicks": 94,
          "midi": 35,
          "name": "B1",
          "ticks": 17328,
          "time": 45.125,
          "velocity": 0.8661417322834646
        },
        {
          "duration": 0.2447916666666643,
          "durationTicks": 94,
          "midi": 42,
          "name": "F#2",
          "ticks": 17328,
          "time": 45.125,
          "velocity": 0.8661417322834646
        },
        {
          "duration": 0.1197916666666643,
          "durationTicks": 46,
          "midi": 47,
          "name": "B2",
          "ticks": 17424,
          "time": 45.375,
          "velocity": 0.8661417322834646
        },
        {
          "duration": 0.1197916666666643,
          "durationTicks": 46,
          "midi": 35,
          "name": "B1",
          "ticks": 17424,
          "time": 45.375,
          "velocity": 0.8661417322834646
        },
        {
          "duration": 0.1197916666666643,
          "durationTicks": 46,
          "midi": 42,
          "name": "F#2",
          "ticks": 17424,
          "time": 45.375,
          "velocity": 0.8661417322834646
        },
        {
          "duration": 0.1197916666666643,
          "durationTicks": 46,
          "midi": 47,
          "name": "B2",
          "ticks": 17472,
          "time": 45.5,
          "velocity": 0.8661417322834646
        },
        {
          "duration": 0.1197916666666643,
          "durationTicks": 46,
          "midi": 35,
          "name": "B1",
          "ticks": 17472,
          "time": 45.5,
          "velocity": 0.8661417322834646
        },
        {
          "duration": 0.1197916666666643,
          "durationTicks": 46,
          "midi": 42,
          "name": "F#2",
          "ticks": 17472,
          "time": 45.5,
          "velocity": 0.8661417322834646
        },
        {
          "duration": 0.1197916666666643,
          "durationTicks": 46,
          "midi": 47,
          "name": "B2",
          "ticks": 17520,
          "time": 45.625,
          "velocity": 0.8661417322834646
        },
        {
          "duration": 0.1197916666666643,
          "durationTicks": 46,
          "midi": 35,
          "name": "B1",
          "ticks": 17520,
          "time": 45.625,
          "velocity": 0.8661417322834646
        },
        {
          "duration": 0.1197916666666643,
          "durationTicks": 46,
          "midi": 42,
          "name": "F#2",
          "ticks": 17520,
          "time": 45.625,
          "velocity": 0.8661417322834646
        },
        {
          "duration": 0.2447916666666643,
          "durationTicks": 94,
          "midi": 42,
          "name": "F#2",
          "ticks": 17568,
          "time": 45.75,
          "velocity": 0.8661417322834646
        },
        {
          "duration": 0.25,
          "durationTicks": 96,
          "midi": 71,
          "name": "B4",
          "ticks": 17568,
          "time": 45.75,
          "velocity": 0.6299212598425197
        },
        {
          "duration": 0.2447916666666643,
          "durationTicks": 94,
          "midi": 47,
          "name": "B2",
          "ticks": 17568,
          "time": 45.75,
          "velocity": 0.8661417322834646
        },
        {
          "duration": 0.2447916666666643,
          "durationTicks": 94,
          "midi": 35,
          "name": "B1",
          "ticks": 17568,
          "time": 45.75,
          "velocity": 0.8661417322834646
        },
        {
          "duration": 0.2447916666666643,
          "durationTicks": 94,
          "midi": 46,
          "name": "A#2",
          "ticks": 17664,
          "time": 46,
          "velocity": 0.8661417322834646
        },
        {
          "duration": 0.2447916666666643,
          "durationTicks": 94,
          "midi": 34,
          "name": "A#1",
          "ticks": 17664,
          "time": 46,
          "velocity": 0.8661417322834646
        },
        {
          "duration": 0.2447916666666643,
          "durationTicks": 94,
          "midi": 41,
          "name": "F2",
          "ticks": 17664,
          "time": 46,
          "velocity": 0.8661417322834646
        },
        {
          "duration": 0.2447916666666643,
          "durationTicks": 94,
          "midi": 46,
          "name": "A#2",
          "ticks": 17760,
          "time": 46.25,
          "velocity": 0.8661417322834646
        },
        {
          "duration": 0.2447916666666643,
          "durationTicks": 94,
          "midi": 34,
          "name": "A#1",
          "ticks": 17760,
          "time": 46.25,
          "velocity": 0.8661417322834646
        },
        {
          "duration": 0.2447916666666643,
          "durationTicks": 94,
          "midi": 41,
          "name": "F2",
          "ticks": 17760,
          "time": 46.25,
          "velocity": 0.8661417322834646
        },
        {
          "duration": 0.1197916666666643,
          "durationTicks": 46,
          "midi": 46,
          "name": "A#2",
          "ticks": 17856,
          "time": 46.5,
          "velocity": 0.8661417322834646
        },
        {
          "duration": 0.1197916666666643,
          "durationTicks": 46,
          "midi": 34,
          "name": "A#1",
          "ticks": 17856,
          "time": 46.5,
          "velocity": 0.8661417322834646
        },
        {
          "duration": 0.1197916666666643,
          "durationTicks": 46,
          "midi": 41,
          "name": "F2",
          "ticks": 17856,
          "time": 46.5,
          "velocity": 0.8661417322834646
        },
        {
          "duration": 0.1197916666666643,
          "durationTicks": 46,
          "midi": 46,
          "name": "A#2",
          "ticks": 17904,
          "time": 46.625,
          "velocity": 0.8661417322834646
        },
        {
          "duration": 0.1197916666666643,
          "durationTicks": 46,
          "midi": 34,
          "name": "A#1",
          "ticks": 17904,
          "time": 46.625,
          "velocity": 0.8661417322834646
        },
        {
          "duration": 0.1197916666666643,
          "durationTicks": 46,
          "midi": 41,
          "name": "F2",
          "ticks": 17904,
          "time": 46.625,
          "velocity": 0.8661417322834646
        },
        {
          "duration": 0.1197916666666643,
          "durationTicks": 46,
          "midi": 46,
          "name": "A#2",
          "ticks": 17952,
          "time": 46.75,
          "velocity": 0.8661417322834646
        },
        {
          "duration": 0.1197916666666643,
          "durationTicks": 46,
          "midi": 34,
          "name": "A#1",
          "ticks": 17952,
          "time": 46.75,
          "velocity": 0.8661417322834646
        },
        {
          "duration": 0.1197916666666643,
          "durationTicks": 46,
          "midi": 41,
          "name": "F2",
          "ticks": 17952,
          "time": 46.75,
          "velocity": 0.8661417322834646
        },
        {
          "duration": 0.2447916666666643,
          "durationTicks": 94,
          "midi": 48,
          "name": "C3",
          "ticks": 18000,
          "time": 46.875,
          "velocity": 0.8661417322834646
        },
        {
          "duration": 0.2447916666666643,
          "durationTicks": 94,
          "midi": 36,
          "name": "C2",
          "ticks": 18000,
          "time": 46.875,
          "velocity": 0.8661417322834646
        },
        {
          "duration": 0.2447916666666643,
          "durationTicks": 94,
          "midi": 43,
          "name": "G2",
          "ticks": 18000,
          "time": 46.875,
          "velocity": 0.8661417322834646
        },
        {
          "duration": 0.2447916666666643,
          "durationTicks": 94,
          "midi": 48,
          "name": "C3",
          "ticks": 18096,
          "time": 47.125,
          "velocity": 0.8661417322834646
        },
        {
          "duration": 0.2447916666666643,
          "durationTicks": 94,
          "midi": 36,
          "name": "C2",
          "ticks": 18096,
          "time": 47.125,
          "velocity": 0.8661417322834646
        },
        {
          "duration": 0.2447916666666643,
          "durationTicks": 94,
          "midi": 43,
          "name": "G2",
          "ticks": 18096,
          "time": 47.125,
          "velocity": 0.8661417322834646
        },
        {
          "duration": 0.1197916666666643,
          "durationTicks": 46,
          "midi": 48,
          "name": "C3",
          "ticks": 18192,
          "time": 47.375,
          "velocity": 0.8661417322834646
        },
        {
          "duration": 0.1197916666666643,
          "durationTicks": 46,
          "midi": 36,
          "name": "C2",
          "ticks": 18192,
          "time": 47.375,
          "velocity": 0.8661417322834646
        },
        {
          "duration": 0.1197916666666643,
          "durationTicks": 46,
          "midi": 43,
          "name": "G2",
          "ticks": 18192,
          "time": 47.375,
          "velocity": 0.8661417322834646
        },
        {
          "duration": 0.1197916666666643,
          "durationTicks": 46,
          "midi": 48,
          "name": "C3",
          "ticks": 18240,
          "time": 47.5,
          "velocity": 0.8661417322834646
        },
        {
          "duration": 0.1197916666666643,
          "durationTicks": 46,
          "midi": 36,
          "name": "C2",
          "ticks": 18240,
          "time": 47.5,
          "velocity": 0.8661417322834646
        },
        {
          "duration": 0.1197916666666643,
          "durationTicks": 46,
          "midi": 43,
          "name": "G2",
          "ticks": 18240,
          "time": 47.5,
          "velocity": 0.8661417322834646
        },
        {
          "duration": 0.1197916666666643,
          "durationTicks": 46,
          "midi": 48,
          "name": "C3",
          "ticks": 18288,
          "time": 47.625,
          "velocity": 0.8661417322834646
        },
        {
          "duration": 0.1197916666666643,
          "durationTicks": 46,
          "midi": 36,
          "name": "C2",
          "ticks": 18288,
          "time": 47.625,
          "velocity": 0.8661417322834646
        },
        {
          "duration": 0.1197916666666643,
          "durationTicks": 46,
          "midi": 43,
          "name": "G2",
          "ticks": 18288,
          "time": 47.625,
          "velocity": 0.8661417322834646
        },
        {
          "duration": 0.2447916666666643,
          "durationTicks": 94,
          "midi": 43,
          "name": "G2",
          "ticks": 18336,
          "time": 47.75,
          "velocity": 0.8661417322834646
        },
        {
          "duration": 0.25,
          "durationTicks": 96,
          "midi": 72,
          "name": "C5",
          "ticks": 18336,
          "time": 47.75,
          "velocity": 0.6299212598425197
        },
        {
          "duration": 0.2447916666666643,
          "durationTicks": 94,
          "midi": 48,
          "name": "C3",
          "ticks": 18336,
          "time": 47.75,
          "velocity": 0.8661417322834646
        },
        {
          "duration": 0.2447916666666643,
          "durationTicks": 94,
          "midi": 36,
          "name": "C2",
          "ticks": 18336,
          "time": 47.75,
          "velocity": 0.8661417322834646
        },
        {
          "duration": 0.2447916666666643,
          "durationTicks": 94,
          "midi": 46,
          "name": "A#2",
          "ticks": 18432,
          "time": 48,
          "velocity": 0.8661417322834646
        },
        {
          "duration": 0.2447916666666643,
          "durationTicks": 94,
          "midi": 34,
          "name": "A#1",
          "ticks": 18432,
          "time": 48,
          "velocity": 0.8661417322834646
        },
        {
          "duration": 0.2447916666666643,
          "durationTicks": 94,
          "midi": 41,
          "name": "F2",
          "ticks": 18432,
          "time": 48,
          "velocity": 0.8661417322834646
        },
        {
          "duration": 0.2447916666666643,
          "durationTicks": 94,
          "midi": 46,
          "name": "A#2",
          "ticks": 18528,
          "time": 48.25,
          "velocity": 0.8661417322834646
        },
        {
          "duration": 0.2447916666666643,
          "durationTicks": 94,
          "midi": 34,
          "name": "A#1",
          "ticks": 18528,
          "time": 48.25,
          "velocity": 0.8661417322834646
        },
        {
          "duration": 0.2447916666666643,
          "durationTicks": 94,
          "midi": 41,
          "name": "F2",
          "ticks": 18528,
          "time": 48.25,
          "velocity": 0.8661417322834646
        },
        {
          "duration": 0.1197916666666643,
          "durationTicks": 46,
          "midi": 46,
          "name": "A#2",
          "ticks": 18624,
          "time": 48.5,
          "velocity": 0.8661417322834646
        },
        {
          "duration": 0.1197916666666643,
          "durationTicks": 46,
          "midi": 34,
          "name": "A#1",
          "ticks": 18624,
          "time": 48.5,
          "velocity": 0.8661417322834646
        },
        {
          "duration": 0.1197916666666643,
          "durationTicks": 46,
          "midi": 41,
          "name": "F2",
          "ticks": 18624,
          "time": 48.5,
          "velocity": 0.8661417322834646
        },
        {
          "duration": 0.1197916666666643,
          "durationTicks": 46,
          "midi": 46,
          "name": "A#2",
          "ticks": 18672,
          "time": 48.625,
          "velocity": 0.8661417322834646
        },
        {
          "duration": 0.1197916666666643,
          "durationTicks": 46,
          "midi": 34,
          "name": "A#1",
          "ticks": 18672,
          "time": 48.625,
          "velocity": 0.8661417322834646
        },
        {
          "duration": 0.1197916666666643,
          "durationTicks": 46,
          "midi": 41,
          "name": "F2",
          "ticks": 18672,
          "time": 48.625,
          "velocity": 0.8661417322834646
        },
        {
          "duration": 0.1197916666666643,
          "durationTicks": 46,
          "midi": 46,
          "name": "A#2",
          "ticks": 18720,
          "time": 48.75,
          "velocity": 0.8661417322834646
        },
        {
          "duration": 0.1197916666666643,
          "durationTicks": 46,
          "midi": 34,
          "name": "A#1",
          "ticks": 18720,
          "time": 48.75,
          "velocity": 0.8661417322834646
        },
        {
          "duration": 0.1197916666666643,
          "durationTicks": 46,
          "midi": 41,
          "name": "F2",
          "ticks": 18720,
          "time": 48.75,
          "velocity": 0.8661417322834646
        },
        {
          "duration": 0.2447916666666643,
          "durationTicks": 94,
          "midi": 46,
          "name": "A#2",
          "ticks": 18768,
          "time": 48.875,
          "velocity": 0.8661417322834646
        },
        {
          "duration": 0.2447916666666643,
          "durationTicks": 94,
          "midi": 34,
          "name": "A#1",
          "ticks": 18768,
          "time": 48.875,
          "velocity": 0.8661417322834646
        },
        {
          "duration": 0.2447916666666643,
          "durationTicks": 94,
          "midi": 41,
          "name": "F2",
          "ticks": 18768,
          "time": 48.875,
          "velocity": 0.8661417322834646
        },
        {
          "duration": 0.2447916666666643,
          "durationTicks": 94,
          "midi": 46,
          "name": "A#2",
          "ticks": 18864,
          "time": 49.125,
          "velocity": 0.8661417322834646
        },
        {
          "duration": 0.2447916666666643,
          "durationTicks": 94,
          "midi": 34,
          "name": "A#1",
          "ticks": 18864,
          "time": 49.125,
          "velocity": 0.8661417322834646
        },
        {
          "duration": 0.2447916666666643,
          "durationTicks": 94,
          "midi": 41,
          "name": "F2",
          "ticks": 18864,
          "time": 49.125,
          "velocity": 0.8661417322834646
        },
        {
          "duration": 0.1197916666666643,
          "durationTicks": 46,
          "midi": 46,
          "name": "A#2",
          "ticks": 18960,
          "time": 49.375,
          "velocity": 0.8661417322834646
        },
        {
          "duration": 0.1197916666666643,
          "durationTicks": 46,
          "midi": 34,
          "name": "A#1",
          "ticks": 18960,
          "time": 49.375,
          "velocity": 0.8661417322834646
        },
        {
          "duration": 0.1197916666666643,
          "durationTicks": 46,
          "midi": 41,
          "name": "F2",
          "ticks": 18960,
          "time": 49.375,
          "velocity": 0.8661417322834646
        },
        {
          "duration": 0.1197916666666643,
          "durationTicks": 46,
          "midi": 46,
          "name": "A#2",
          "ticks": 19008,
          "time": 49.5,
          "velocity": 0.8661417322834646
        },
        {
          "duration": 0.1197916666666643,
          "durationTicks": 46,
          "midi": 34,
          "name": "A#1",
          "ticks": 19008,
          "time": 49.5,
          "velocity": 0.8661417322834646
        },
        {
          "duration": 0.1197916666666643,
          "durationTicks": 46,
          "midi": 41,
          "name": "F2",
          "ticks": 19008,
          "time": 49.5,
          "velocity": 0.8661417322834646
        },
        {
          "duration": 0.1197916666666643,
          "durationTicks": 46,
          "midi": 46,
          "name": "A#2",
          "ticks": 19056,
          "time": 49.625,
          "velocity": 0.8661417322834646
        },
        {
          "duration": 0.1197916666666643,
          "durationTicks": 46,
          "midi": 34,
          "name": "A#1",
          "ticks": 19056,
          "time": 49.625,
          "velocity": 0.8661417322834646
        },
        {
          "duration": 0.1197916666666643,
          "durationTicks": 46,
          "midi": 41,
          "name": "F2",
          "ticks": 19056,
          "time": 49.625,
          "velocity": 0.8661417322834646
        },
        {
          "duration": 0.2447916666666643,
          "durationTicks": 94,
          "midi": 53,
          "name": "F3",
          "ticks": 19104,
          "time": 49.75,
          "velocity": 0.8661417322834646
        },
        {
          "duration": 0.2447916666666643,
          "durationTicks": 94,
          "midi": 58,
          "name": "A#3",
          "ticks": 19104,
          "time": 49.75,
          "velocity": 0.8661417322834646
        },
        {
          "duration": 0.2447916666666643,
          "durationTicks": 94,
          "midi": 46,
          "name": "A#2",
          "ticks": 19104,
          "time": 49.75,
          "velocity": 0.8661417322834646
        },
        {
          "duration": 0.2447916666666643,
          "durationTicks": 94,
          "midi": 48,
          "name": "C3",
          "ticks": 19200,
          "time": 50,
          "velocity": 0.8661417322834646
        },
        {
          "duration": 0.2447916666666643,
          "durationTicks": 94,
          "midi": 36,
          "name": "C2",
          "ticks": 19200,
          "time": 50,
          "velocity": 0.8661417322834646
        },
        {
          "duration": 0.2447916666666643,
          "durationTicks": 94,
          "midi": 43,
          "name": "G2",
          "ticks": 19200,
          "time": 50,
          "velocity": 0.8661417322834646
        },
        {
          "duration": 0.2447916666666643,
          "durationTicks": 94,
          "midi": 48,
          "name": "C3",
          "ticks": 19296,
          "time": 50.25,
          "velocity": 0.8661417322834646
        },
        {
          "duration": 0.2447916666666643,
          "durationTicks": 94,
          "midi": 36,
          "name": "C2",
          "ticks": 19296,
          "time": 50.25,
          "velocity": 0.8661417322834646
        },
        {
          "duration": 0.2447916666666643,
          "durationTicks": 94,
          "midi": 43,
          "name": "G2",
          "ticks": 19296,
          "time": 50.25,
          "velocity": 0.8661417322834646
        },
        {
          "duration": 0.1197916666666643,
          "durationTicks": 46,
          "midi": 48,
          "name": "C3",
          "ticks": 19392,
          "time": 50.5,
          "velocity": 0.8661417322834646
        },
        {
          "duration": 0.1197916666666643,
          "durationTicks": 46,
          "midi": 36,
          "name": "C2",
          "ticks": 19392,
          "time": 50.5,
          "velocity": 0.8661417322834646
        },
        {
          "duration": 0.1197916666666643,
          "durationTicks": 46,
          "midi": 43,
          "name": "G2",
          "ticks": 19392,
          "time": 50.5,
          "velocity": 0.8661417322834646
        },
        {
          "duration": 0.1197916666666643,
          "durationTicks": 46,
          "midi": 48,
          "name": "C3",
          "ticks": 19440,
          "time": 50.625,
          "velocity": 0.8661417322834646
        },
        {
          "duration": 0.1197916666666643,
          "durationTicks": 46,
          "midi": 36,
          "name": "C2",
          "ticks": 19440,
          "time": 50.625,
          "velocity": 0.8661417322834646
        },
        {
          "duration": 0.1197916666666643,
          "durationTicks": 46,
          "midi": 43,
          "name": "G2",
          "ticks": 19440,
          "time": 50.625,
          "velocity": 0.8661417322834646
        },
        {
          "duration": 0.1197916666666643,
          "durationTicks": 46,
          "midi": 48,
          "name": "C3",
          "ticks": 19488,
          "time": 50.75,
          "velocity": 0.8661417322834646
        },
        {
          "duration": 0.1197916666666643,
          "durationTicks": 46,
          "midi": 36,
          "name": "C2",
          "ticks": 19488,
          "time": 50.75,
          "velocity": 0.8661417322834646
        },
        {
          "duration": 0.1197916666666643,
          "durationTicks": 46,
          "midi": 43,
          "name": "G2",
          "ticks": 19488,
          "time": 50.75,
          "velocity": 0.8661417322834646
        },
        {
          "duration": 0.2447916666666643,
          "durationTicks": 94,
          "midi": 48,
          "name": "C3",
          "ticks": 19536,
          "time": 50.875,
          "velocity": 0.8661417322834646
        },
        {
          "duration": 0.2447916666666643,
          "durationTicks": 94,
          "midi": 36,
          "name": "C2",
          "ticks": 19536,
          "time": 50.875,
          "velocity": 0.8661417322834646
        },
        {
          "duration": 0.2447916666666643,
          "durationTicks": 94,
          "midi": 43,
          "name": "G2",
          "ticks": 19536,
          "time": 50.875,
          "velocity": 0.8661417322834646
        },
        {
          "duration": 0.2447916666666643,
          "durationTicks": 94,
          "midi": 48,
          "name": "C3",
          "ticks": 19632,
          "time": 51.125,
          "velocity": 0.8661417322834646
        },
        {
          "duration": 0.2447916666666643,
          "durationTicks": 94,
          "midi": 36,
          "name": "C2",
          "ticks": 19632,
          "time": 51.125,
          "velocity": 0.8661417322834646
        },
        {
          "duration": 0.2447916666666643,
          "durationTicks": 94,
          "midi": 43,
          "name": "G2",
          "ticks": 19632,
          "time": 51.125,
          "velocity": 0.8661417322834646
        },
        {
          "duration": 0.1197916666666643,
          "durationTicks": 46,
          "midi": 48,
          "name": "C3",
          "ticks": 19728,
          "time": 51.375,
          "velocity": 0.8661417322834646
        },
        {
          "duration": 0.1197916666666643,
          "durationTicks": 46,
          "midi": 36,
          "name": "C2",
          "ticks": 19728,
          "time": 51.375,
          "velocity": 0.8661417322834646
        },
        {
          "duration": 0.1197916666666643,
          "durationTicks": 46,
          "midi": 43,
          "name": "G2",
          "ticks": 19728,
          "time": 51.375,
          "velocity": 0.8661417322834646
        },
        {
          "duration": 0.1197916666666643,
          "durationTicks": 46,
          "midi": 48,
          "name": "C3",
          "ticks": 19776,
          "time": 51.5,
          "velocity": 0.8661417322834646
        },
        {
          "duration": 0.1197916666666643,
          "durationTicks": 46,
          "midi": 36,
          "name": "C2",
          "ticks": 19776,
          "time": 51.5,
          "velocity": 0.8661417322834646
        },
        {
          "duration": 0.1197916666666643,
          "durationTicks": 46,
          "midi": 43,
          "name": "G2",
          "ticks": 19776,
          "time": 51.5,
          "velocity": 0.8661417322834646
        },
        {
          "duration": 0.1197916666666643,
          "durationTicks": 46,
          "midi": 48,
          "name": "C3",
          "ticks": 19824,
          "time": 51.625,
          "velocity": 0.8661417322834646
        },
        {
          "duration": 0.1197916666666643,
          "durationTicks": 46,
          "midi": 36,
          "name": "C2",
          "ticks": 19824,
          "time": 51.625,
          "velocity": 0.8661417322834646
        },
        {
          "duration": 0.1197916666666643,
          "durationTicks": 46,
          "midi": 43,
          "name": "G2",
          "ticks": 19824,
          "time": 51.625,
          "velocity": 0.8661417322834646
        },
        {
          "duration": 0.2447916666666643,
          "durationTicks": 94,
          "midi": 48,
          "name": "C3",
          "ticks": 19872,
          "time": 51.75,
          "velocity": 0.8661417322834646
        },
        {
          "duration": 0.2447916666666643,
          "durationTicks": 94,
          "midi": 36,
          "name": "C2",
          "ticks": 19872,
          "time": 51.75,
          "velocity": 0.8661417322834646
        },
        {
          "duration": 0.2447916666666643,
          "durationTicks": 94,
          "midi": 43,
          "name": "G2",
          "ticks": 19872,
          "time": 51.75,
          "velocity": 0.8661417322834646
        },
        {
          "duration": 0.25,
          "durationTicks": 96,
          "midi": 60,
          "name": "C4",
          "ticks": 19872,
          "time": 51.75,
          "velocity": 0.6299212598425197
        },
        {
          "duration": 0.2447916666666643,
          "durationTicks": 94,
          "midi": 50,
          "name": "D3",
          "ticks": 19968,
          "time": 52,
          "velocity": 0.8661417322834646
        },
        {
          "duration": 0.2447916666666643,
          "durationTicks": 94,
          "midi": 38,
          "name": "D2",
          "ticks": 19968,
          "time": 52,
          "velocity": 0.8661417322834646
        },
        {
          "duration": 0.2447916666666643,
          "durationTicks": 94,
          "midi": 45,
          "name": "A2",
          "ticks": 19968,
          "time": 52,
          "velocity": 0.8661417322834646
        },
        {
          "duration": 0.2447916666666643,
          "durationTicks": 94,
          "midi": 50,
          "name": "D3",
          "ticks": 20064,
          "time": 52.25,
          "velocity": 0.8661417322834646
        },
        {
          "duration": 0.2447916666666643,
          "durationTicks": 94,
          "midi": 38,
          "name": "D2",
          "ticks": 20064,
          "time": 52.25,
          "velocity": 0.8661417322834646
        },
        {
          "duration": 0.2447916666666643,
          "durationTicks": 94,
          "midi": 45,
          "name": "A2",
          "ticks": 20064,
          "time": 52.25,
          "velocity": 0.8661417322834646
        },
        {
          "duration": 0.1197916666666643,
          "durationTicks": 46,
          "midi": 50,
          "name": "D3",
          "ticks": 20160,
          "time": 52.5,
          "velocity": 0.8661417322834646
        },
        {
          "duration": 0.1197916666666643,
          "durationTicks": 46,
          "midi": 38,
          "name": "D2",
          "ticks": 20160,
          "time": 52.5,
          "velocity": 0.8661417322834646
        },
        {
          "duration": 0.1197916666666643,
          "durationTicks": 46,
          "midi": 45,
          "name": "A2",
          "ticks": 20160,
          "time": 52.5,
          "velocity": 0.8661417322834646
        },
        {
          "duration": 0.1197916666666643,
          "durationTicks": 46,
          "midi": 50,
          "name": "D3",
          "ticks": 20208,
          "time": 52.625,
          "velocity": 0.8661417322834646
        },
        {
          "duration": 0.1197916666666643,
          "durationTicks": 46,
          "midi": 38,
          "name": "D2",
          "ticks": 20208,
          "time": 52.625,
          "velocity": 0.8661417322834646
        },
        {
          "duration": 0.1197916666666643,
          "durationTicks": 46,
          "midi": 45,
          "name": "A2",
          "ticks": 20208,
          "time": 52.625,
          "velocity": 0.8661417322834646
        },
        {
          "duration": 0.1197916666666643,
          "durationTicks": 46,
          "midi": 50,
          "name": "D3",
          "ticks": 20256,
          "time": 52.75,
          "velocity": 0.8661417322834646
        },
        {
          "duration": 0.1197916666666643,
          "durationTicks": 46,
          "midi": 38,
          "name": "D2",
          "ticks": 20256,
          "time": 52.75,
          "velocity": 0.8661417322834646
        },
        {
          "duration": 0.1197916666666643,
          "durationTicks": 46,
          "midi": 45,
          "name": "A2",
          "ticks": 20256,
          "time": 52.75,
          "velocity": 0.8661417322834646
        },
        {
          "duration": 0.2447916666666643,
          "durationTicks": 94,
          "midi": 50,
          "name": "D3",
          "ticks": 20304,
          "time": 52.875,
          "velocity": 0.8661417322834646
        },
        {
          "duration": 0.2447916666666643,
          "durationTicks": 94,
          "midi": 38,
          "name": "D2",
          "ticks": 20304,
          "time": 52.875,
          "velocity": 0.8661417322834646
        },
        {
          "duration": 0.2447916666666643,
          "durationTicks": 94,
          "midi": 45,
          "name": "A2",
          "ticks": 20304,
          "time": 52.875,
          "velocity": 0.8661417322834646
        },
        {
          "duration": 0.2447916666666643,
          "durationTicks": 94,
          "midi": 50,
          "name": "D3",
          "ticks": 20400,
          "time": 53.125,
          "velocity": 0.8661417322834646
        },
        {
          "duration": 0.2447916666666643,
          "durationTicks": 94,
          "midi": 38,
          "name": "D2",
          "ticks": 20400,
          "time": 53.125,
          "velocity": 0.8661417322834646
        },
        {
          "duration": 0.2447916666666643,
          "durationTicks": 94,
          "midi": 45,
          "name": "A2",
          "ticks": 20400,
          "time": 53.125,
          "velocity": 0.8661417322834646
        },
        {
          "duration": 0.1197916666666643,
          "durationTicks": 46,
          "midi": 50,
          "name": "D3",
          "ticks": 20496,
          "time": 53.375,
          "velocity": 0.8661417322834646
        },
        {
          "duration": 0.1197916666666643,
          "durationTicks": 46,
          "midi": 38,
          "name": "D2",
          "ticks": 20496,
          "time": 53.375,
          "velocity": 0.8661417322834646
        },
        {
          "duration": 0.1197916666666643,
          "durationTicks": 46,
          "midi": 45,
          "name": "A2",
          "ticks": 20496,
          "time": 53.375,
          "velocity": 0.8661417322834646
        },
        {
          "duration": 0.1197916666666643,
          "durationTicks": 46,
          "midi": 50,
          "name": "D3",
          "ticks": 20544,
          "time": 53.5,
          "velocity": 0.8661417322834646
        },
        {
          "duration": 0.1197916666666643,
          "durationTicks": 46,
          "midi": 38,
          "name": "D2",
          "ticks": 20544,
          "time": 53.5,
          "velocity": 0.8661417322834646
        },
        {
          "duration": 0.1197916666666643,
          "durationTicks": 46,
          "midi": 45,
          "name": "A2",
          "ticks": 20544,
          "time": 53.5,
          "velocity": 0.8661417322834646
        },
        {
          "duration": 0.1197916666666643,
          "durationTicks": 46,
          "midi": 50,
          "name": "D3",
          "ticks": 20592,
          "time": 53.625,
          "velocity": 0.8661417322834646
        },
        {
          "duration": 0.1197916666666643,
          "durationTicks": 46,
          "midi": 38,
          "name": "D2",
          "ticks": 20592,
          "time": 53.625,
          "velocity": 0.8661417322834646
        },
        {
          "duration": 0.1197916666666643,
          "durationTicks": 46,
          "midi": 45,
          "name": "A2",
          "ticks": 20592,
          "time": 53.625,
          "velocity": 0.8661417322834646
        },
        {
          "duration": 0.25,
          "durationTicks": 96,
          "midi": 62,
          "name": "D4",
          "ticks": 20640,
          "time": 53.75,
          "velocity": 0.6299212598425197
        },
        {
          "duration": 0.2447916666666643,
          "durationTicks": 94,
          "midi": 38,
          "name": "D2",
          "ticks": 20640,
          "time": 53.75,
          "velocity": 0.8661417322834646
        },
        {
          "duration": 0.2447916666666643,
          "durationTicks": 94,
          "midi": 45,
          "name": "A2",
          "ticks": 20640,
          "time": 53.75,
          "velocity": 0.8661417322834646
        },
        {
          "duration": 0.2447916666666643,
          "durationTicks": 94,
          "midi": 50,
          "name": "D3",
          "ticks": 20640,
          "time": 53.75,
          "velocity": 0.8661417322834646
        },
        {
          "duration": 0.2447916666666643,
          "durationTicks": 94,
          "midi": 49,
          "name": "C#3",
          "ticks": 20736,
          "time": 54,
          "velocity": 0.8661417322834646
        },
        {
          "duration": 0.2447916666666643,
          "durationTicks": 94,
          "midi": 37,
          "name": "C#2",
          "ticks": 20736,
          "time": 54,
          "velocity": 0.8661417322834646
        },
        {
          "duration": 0.2447916666666643,
          "durationTicks": 94,
          "midi": 44,
          "name": "G#2",
          "ticks": 20736,
          "time": 54,
          "velocity": 0.8661417322834646
        },
        {
          "duration": 0.2447916666666643,
          "durationTicks": 94,
          "midi": 49,
          "name": "C#3",
          "ticks": 20832,
          "time": 54.25,
          "velocity": 0.8661417322834646
        },
        {
          "duration": 0.2447916666666643,
          "durationTicks": 94,
          "midi": 37,
          "name": "C#2",
          "ticks": 20832,
          "time": 54.25,
          "velocity": 0.8661417322834646
        },
        {
          "duration": 0.2447916666666643,
          "durationTicks": 94,
          "midi": 44,
          "name": "G#2",
          "ticks": 20832,
          "time": 54.25,
          "velocity": 0.8661417322834646
        },
        {
          "duration": 0.1197916666666643,
          "durationTicks": 46,
          "midi": 49,
          "name": "C#3",
          "ticks": 20928,
          "time": 54.5,
          "velocity": 0.8661417322834646
        },
        {
          "duration": 0.1197916666666643,
          "durationTicks": 46,
          "midi": 37,
          "name": "C#2",
          "ticks": 20928,
          "time": 54.5,
          "velocity": 0.8661417322834646
        },
        {
          "duration": 0.1197916666666643,
          "durationTicks": 46,
          "midi": 44,
          "name": "G#2",
          "ticks": 20928,
          "time": 54.5,
          "velocity": 0.8661417322834646
        },
        {
          "duration": 0.1197916666666643,
          "durationTicks": 46,
          "midi": 49,
          "name": "C#3",
          "ticks": 20976,
          "time": 54.625,
          "velocity": 0.8661417322834646
        },
        {
          "duration": 0.1197916666666643,
          "durationTicks": 46,
          "midi": 37,
          "name": "C#2",
          "ticks": 20976,
          "time": 54.625,
          "velocity": 0.8661417322834646
        },
        {
          "duration": 0.1197916666666643,
          "durationTicks": 46,
          "midi": 44,
          "name": "G#2",
          "ticks": 20976,
          "time": 54.625,
          "velocity": 0.8661417322834646
        },
        {
          "duration": 0.1197916666666643,
          "durationTicks": 46,
          "midi": 49,
          "name": "C#3",
          "ticks": 21024,
          "time": 54.75,
          "velocity": 0.8661417322834646
        },
        {
          "duration": 0.1197916666666643,
          "durationTicks": 46,
          "midi": 37,
          "name": "C#2",
          "ticks": 21024,
          "time": 54.75,
          "velocity": 0.8661417322834646
        },
        {
          "duration": 0.1197916666666643,
          "durationTicks": 46,
          "midi": 44,
          "name": "G#2",
          "ticks": 21024,
          "time": 54.75,
          "velocity": 0.8661417322834646
        },
        {
          "duration": 0.2447916666666643,
          "durationTicks": 94,
          "midi": 51,
          "name": "D#3",
          "ticks": 21072,
          "time": 54.875,
          "velocity": 0.8661417322834646
        },
        {
          "duration": 0.2447916666666643,
          "durationTicks": 94,
          "midi": 39,
          "name": "D#2",
          "ticks": 21072,
          "time": 54.875,
          "velocity": 0.8661417322834646
        },
        {
          "duration": 0.2447916666666643,
          "durationTicks": 94,
          "midi": 46,
          "name": "A#2",
          "ticks": 21072,
          "time": 54.875,
          "velocity": 0.8661417322834646
        },
        {
          "duration": 0.2447916666666643,
          "durationTicks": 94,
          "midi": 51,
          "name": "D#3",
          "ticks": 21168,
          "time": 55.125,
          "velocity": 0.8661417322834646
        },
        {
          "duration": 0.2447916666666643,
          "durationTicks": 94,
          "midi": 39,
          "name": "D#2",
          "ticks": 21168,
          "time": 55.125,
          "velocity": 0.8661417322834646
        },
        {
          "duration": 0.2447916666666643,
          "durationTicks": 94,
          "midi": 46,
          "name": "A#2",
          "ticks": 21168,
          "time": 55.125,
          "velocity": 0.8661417322834646
        },
        {
          "duration": 0.1197916666666643,
          "durationTicks": 46,
          "midi": 51,
          "name": "D#3",
          "ticks": 21264,
          "time": 55.375,
          "velocity": 0.8661417322834646
        },
        {
          "duration": 0.1197916666666643,
          "durationTicks": 46,
          "midi": 39,
          "name": "D#2",
          "ticks": 21264,
          "time": 55.375,
          "velocity": 0.8661417322834646
        },
        {
          "duration": 0.1197916666666643,
          "durationTicks": 46,
          "midi": 46,
          "name": "A#2",
          "ticks": 21264,
          "time": 55.375,
          "velocity": 0.8661417322834646
        },
        {
          "duration": 0.1197916666666643,
          "durationTicks": 46,
          "midi": 51,
          "name": "D#3",
          "ticks": 21312,
          "time": 55.5,
          "velocity": 0.8661417322834646
        },
        {
          "duration": 0.1197916666666643,
          "durationTicks": 46,
          "midi": 39,
          "name": "D#2",
          "ticks": 21312,
          "time": 55.5,
          "velocity": 0.8661417322834646
        },
        {
          "duration": 0.1197916666666643,
          "durationTicks": 46,
          "midi": 46,
          "name": "A#2",
          "ticks": 21312,
          "time": 55.5,
          "velocity": 0.8661417322834646
        },
        {
          "duration": 0.1197916666666643,
          "durationTicks": 46,
          "midi": 51,
          "name": "D#3",
          "ticks": 21360,
          "time": 55.625,
          "velocity": 0.8661417322834646
        },
        {
          "duration": 0.1197916666666643,
          "durationTicks": 46,
          "midi": 39,
          "name": "D#2",
          "ticks": 21360,
          "time": 55.625,
          "velocity": 0.8661417322834646
        },
        {
          "duration": 0.1197916666666643,
          "durationTicks": 46,
          "midi": 46,
          "name": "A#2",
          "ticks": 21360,
          "time": 55.625,
          "velocity": 0.8661417322834646
        },
        {
          "duration": 0.2447916666666643,
          "durationTicks": 94,
          "midi": 39,
          "name": "D#2",
          "ticks": 21408,
          "time": 55.75,
          "velocity": 0.8661417322834646
        },
        {
          "duration": 0.25,
          "durationTicks": 96,
          "midi": 63,
          "name": "D#4",
          "ticks": 21408,
          "time": 55.75,
          "velocity": 0.6299212598425197
        },
        {
          "duration": 0.2447916666666643,
          "durationTicks": 94,
          "midi": 46,
          "name": "A#2",
          "ticks": 21408,
          "time": 55.75,
          "velocity": 0.8661417322834646
        },
        {
          "duration": 0.2447916666666643,
          "durationTicks": 94,
          "midi": 51,
          "name": "D#3",
          "ticks": 21408,
          "time": 55.75,
          "velocity": 0.8661417322834646
        },
        {
          "duration": 0.2447916666666643,
          "durationTicks": 94,
          "midi": 46,
          "name": "A#2",
          "ticks": 21504,
          "time": 56,
          "velocity": 0.8661417322834646
        },
        {
          "duration": 0.2447916666666643,
          "durationTicks": 94,
          "midi": 34,
          "name": "A#1",
          "ticks": 21504,
          "time": 56,
          "velocity": 0.8661417322834646
        },
        {
          "duration": 0.2447916666666643,
          "durationTicks": 94,
          "midi": 41,
          "name": "F2",
          "ticks": 21504,
          "time": 56,
          "velocity": 0.8661417322834646
        },
        {
          "duration": 0.2447916666666643,
          "durationTicks": 94,
          "midi": 46,
          "name": "A#2",
          "ticks": 21600,
          "time": 56.25,
          "velocity": 0.8661417322834646
        },
        {
          "duration": 0.2447916666666643,
          "durationTicks": 94,
          "midi": 34,
          "name": "A#1",
          "ticks": 21600,
          "time": 56.25,
          "velocity": 0.8661417322834646
        },
        {
          "duration": 0.2447916666666643,
          "durationTicks": 94,
          "midi": 41,
          "name": "F2",
          "ticks": 21600,
          "time": 56.25,
          "velocity": 0.8661417322834646
        },
        {
          "duration": 0.1197916666666643,
          "durationTicks": 46,
          "midi": 46,
          "name": "A#2",
          "ticks": 21696,
          "time": 56.5,
          "velocity": 0.8661417322834646
        },
        {
          "duration": 0.1197916666666643,
          "durationTicks": 46,
          "midi": 34,
          "name": "A#1",
          "ticks": 21696,
          "time": 56.5,
          "velocity": 0.8661417322834646
        },
        {
          "duration": 0.1197916666666643,
          "durationTicks": 46,
          "midi": 41,
          "name": "F2",
          "ticks": 21696,
          "time": 56.5,
          "velocity": 0.8661417322834646
        },
        {
          "duration": 0.1197916666666643,
          "durationTicks": 46,
          "midi": 46,
          "name": "A#2",
          "ticks": 21744,
          "time": 56.625,
          "velocity": 0.8661417322834646
        },
        {
          "duration": 0.1197916666666643,
          "durationTicks": 46,
          "midi": 34,
          "name": "A#1",
          "ticks": 21744,
          "time": 56.625,
          "velocity": 0.8661417322834646
        },
        {
          "duration": 0.1197916666666643,
          "durationTicks": 46,
          "midi": 41,
          "name": "F2",
          "ticks": 21744,
          "time": 56.625,
          "velocity": 0.8661417322834646
        },
        {
          "duration": 0.1197916666666643,
          "durationTicks": 46,
          "midi": 46,
          "name": "A#2",
          "ticks": 21792,
          "time": 56.75,
          "velocity": 0.8661417322834646
        },
        {
          "duration": 0.1197916666666643,
          "durationTicks": 46,
          "midi": 34,
          "name": "A#1",
          "ticks": 21792,
          "time": 56.75,
          "velocity": 0.8661417322834646
        },
        {
          "duration": 0.1197916666666643,
          "durationTicks": 46,
          "midi": 41,
          "name": "F2",
          "ticks": 21792,
          "time": 56.75,
          "velocity": 0.8661417322834646
        },
        {
          "duration": 0.2447916666666643,
          "durationTicks": 94,
          "midi": 46,
          "name": "A#2",
          "ticks": 21840,
          "time": 56.875,
          "velocity": 0.8661417322834646
        },
        {
          "duration": 0.2447916666666643,
          "durationTicks": 94,
          "midi": 34,
          "name": "A#1",
          "ticks": 21840,
          "time": 56.875,
          "velocity": 0.8661417322834646
        },
        {
          "duration": 0.2447916666666643,
          "durationTicks": 94,
          "midi": 41,
          "name": "F2",
          "ticks": 21840,
          "time": 56.875,
          "velocity": 0.8661417322834646
        },
        {
          "duration": 0.2447916666666643,
          "durationTicks": 94,
          "midi": 46,
          "name": "A#2",
          "ticks": 21936,
          "time": 57.125,
          "velocity": 0.8661417322834646
        },
        {
          "duration": 0.2447916666666643,
          "durationTicks": 94,
          "midi": 34,
          "name": "A#1",
          "ticks": 21936,
          "time": 57.125,
          "velocity": 0.8661417322834646
        },
        {
          "duration": 0.2447916666666643,
          "durationTicks": 94,
          "midi": 41,
          "name": "F2",
          "ticks": 21936,
          "time": 57.125,
          "velocity": 0.8661417322834646
        },
        {
          "duration": 0.1197916666666643,
          "durationTicks": 46,
          "midi": 46,
          "name": "A#2",
          "ticks": 22032,
          "time": 57.375,
          "velocity": 0.8661417322834646
        },
        {
          "duration": 0.1197916666666643,
          "durationTicks": 46,
          "midi": 34,
          "name": "A#1",
          "ticks": 22032,
          "time": 57.375,
          "velocity": 0.8661417322834646
        },
        {
          "duration": 0.1197916666666643,
          "durationTicks": 46,
          "midi": 41,
          "name": "F2",
          "ticks": 22032,
          "time": 57.375,
          "velocity": 0.8661417322834646
        },
        {
          "duration": 0.1197916666666643,
          "durationTicks": 46,
          "midi": 46,
          "name": "A#2",
          "ticks": 22080,
          "time": 57.5,
          "velocity": 0.8661417322834646
        },
        {
          "duration": 0.1197916666666643,
          "durationTicks": 46,
          "midi": 34,
          "name": "A#1",
          "ticks": 22080,
          "time": 57.5,
          "velocity": 0.8661417322834646
        },
        {
          "duration": 0.1197916666666643,
          "durationTicks": 46,
          "midi": 41,
          "name": "F2",
          "ticks": 22080,
          "time": 57.5,
          "velocity": 0.8661417322834646
        },
        {
          "duration": 0.1197916666666643,
          "durationTicks": 46,
          "midi": 46,
          "name": "A#2",
          "ticks": 22128,
          "time": 57.625,
          "velocity": 0.8661417322834646
        },
        {
          "duration": 0.1197916666666643,
          "durationTicks": 46,
          "midi": 34,
          "name": "A#1",
          "ticks": 22128,
          "time": 57.625,
          "velocity": 0.8661417322834646
        },
        {
          "duration": 0.1197916666666643,
          "durationTicks": 46,
          "midi": 41,
          "name": "F2",
          "ticks": 22128,
          "time": 57.625,
          "velocity": 0.8661417322834646
        },
        {
          "duration": 0.2447916666666643,
          "durationTicks": 94,
          "midi": 58,
          "name": "A#3",
          "ticks": 22176,
          "time": 57.75,
          "velocity": 0.8661417322834646
        },
        {
          "duration": 0.2447916666666643,
          "durationTicks": 94,
          "midi": 46,
          "name": "A#2",
          "ticks": 22176,
          "time": 57.75,
          "velocity": 0.8661417322834646
        },
        {
          "duration": 0.2447916666666643,
          "durationTicks": 94,
          "midi": 53,
          "name": "F3",
          "ticks": 22176,
          "time": 57.75,
          "velocity": 0.8661417322834646
        },
        {
          "duration": 0.2447916666666643,
          "durationTicks": 94,
          "midi": 48,
          "name": "C3",
          "ticks": 22272,
          "time": 58,
          "velocity": 0.8661417322834646
        },
        {
          "duration": 0.2447916666666643,
          "durationTicks": 94,
          "midi": 36,
          "name": "C2",
          "ticks": 22272,
          "time": 58,
          "velocity": 0.8661417322834646
        },
        {
          "duration": 0.2447916666666643,
          "durationTicks": 94,
          "midi": 43,
          "name": "G2",
          "ticks": 22272,
          "time": 58,
          "velocity": 0.8661417322834646
        },
        {
          "duration": 0.2447916666666643,
          "durationTicks": 94,
          "midi": 48,
          "name": "C3",
          "ticks": 22368,
          "time": 58.25,
          "velocity": 0.8661417322834646
        },
        {
          "duration": 0.2447916666666643,
          "durationTicks": 94,
          "midi": 36,
          "name": "C2",
          "ticks": 22368,
          "time": 58.25,
          "velocity": 0.8661417322834646
        },
        {
          "duration": 0.2447916666666643,
          "durationTicks": 94,
          "midi": 43,
          "name": "G2",
          "ticks": 22368,
          "time": 58.25,
          "velocity": 0.8661417322834646
        },
        {
          "duration": 0.1197916666666643,
          "durationTicks": 46,
          "midi": 48,
          "name": "C3",
          "ticks": 22464,
          "time": 58.5,
          "velocity": 0.8661417322834646
        },
        {
          "duration": 0.1197916666666643,
          "durationTicks": 46,
          "midi": 36,
          "name": "C2",
          "ticks": 22464,
          "time": 58.5,
          "velocity": 0.8661417322834646
        },
        {
          "duration": 0.1197916666666643,
          "durationTicks": 46,
          "midi": 43,
          "name": "G2",
          "ticks": 22464,
          "time": 58.5,
          "velocity": 0.8661417322834646
        },
        {
          "duration": 0.1197916666666643,
          "durationTicks": 46,
          "midi": 48,
          "name": "C3",
          "ticks": 22512,
          "time": 58.625,
          "velocity": 0.8661417322834646
        },
        {
          "duration": 0.1197916666666643,
          "durationTicks": 46,
          "midi": 36,
          "name": "C2",
          "ticks": 22512,
          "time": 58.625,
          "velocity": 0.8661417322834646
        },
        {
          "duration": 0.1197916666666643,
          "durationTicks": 46,
          "midi": 43,
          "name": "G2",
          "ticks": 22512,
          "time": 58.625,
          "velocity": 0.8661417322834646
        },
        {
          "duration": 0.1197916666666643,
          "durationTicks": 46,
          "midi": 48,
          "name": "C3",
          "ticks": 22560,
          "time": 58.75,
          "velocity": 0.8661417322834646
        },
        {
          "duration": 0.1197916666666643,
          "durationTicks": 46,
          "midi": 36,
          "name": "C2",
          "ticks": 22560,
          "time": 58.75,
          "velocity": 0.8661417322834646
        },
        {
          "duration": 0.1197916666666643,
          "durationTicks": 46,
          "midi": 43,
          "name": "G2",
          "ticks": 22560,
          "time": 58.75,
          "velocity": 0.8661417322834646
        },
        {
          "duration": 0.2447916666666643,
          "durationTicks": 94,
          "midi": 48,
          "name": "C3",
          "ticks": 22608,
          "time": 58.875,
          "velocity": 0.8661417322834646
        },
        {
          "duration": 0.2447916666666643,
          "durationTicks": 94,
          "midi": 36,
          "name": "C2",
          "ticks": 22608,
          "time": 58.875,
          "velocity": 0.8661417322834646
        },
        {
          "duration": 0.2447916666666643,
          "durationTicks": 94,
          "midi": 43,
          "name": "G2",
          "ticks": 22608,
          "time": 58.875,
          "velocity": 0.8661417322834646
        },
        {
          "duration": 0.2447916666666643,
          "durationTicks": 94,
          "midi": 48,
          "name": "C3",
          "ticks": 22704,
          "time": 59.125,
          "velocity": 0.8661417322834646
        },
        {
          "duration": 0.2447916666666643,
          "durationTicks": 94,
          "midi": 36,
          "name": "C2",
          "ticks": 22704,
          "time": 59.125,
          "velocity": 0.8661417322834646
        },
        {
          "duration": 0.2447916666666643,
          "durationTicks": 94,
          "midi": 43,
          "name": "G2",
          "ticks": 22704,
          "time": 59.125,
          "velocity": 0.8661417322834646
        },
        {
          "duration": 0.1197916666666643,
          "durationTicks": 46,
          "midi": 48,
          "name": "C3",
          "ticks": 22800,
          "time": 59.375,
          "velocity": 0.8661417322834646
        },
        {
          "duration": 0.1197916666666643,
          "durationTicks": 46,
          "midi": 36,
          "name": "C2",
          "ticks": 22800,
          "time": 59.375,
          "velocity": 0.8661417322834646
        },
        {
          "duration": 0.1197916666666643,
          "durationTicks": 46,
          "midi": 43,
          "name": "G2",
          "ticks": 22800,
          "time": 59.375,
          "velocity": 0.8661417322834646
        },
        {
          "duration": 0.1197916666666643,
          "durationTicks": 46,
          "midi": 48,
          "name": "C3",
          "ticks": 22848,
          "time": 59.5,
          "velocity": 0.8661417322834646
        },
        {
          "duration": 0.1197916666666643,
          "durationTicks": 46,
          "midi": 36,
          "name": "C2",
          "ticks": 22848,
          "time": 59.5,
          "velocity": 0.8661417322834646
        },
        {
          "duration": 0.1197916666666643,
          "durationTicks": 46,
          "midi": 43,
          "name": "G2",
          "ticks": 22848,
          "time": 59.5,
          "velocity": 0.8661417322834646
        },
        {
          "duration": 0.1197916666666643,
          "durationTicks": 46,
          "midi": 48,
          "name": "C3",
          "ticks": 22896,
          "time": 59.625,
          "velocity": 0.8661417322834646
        },
        {
          "duration": 0.1197916666666643,
          "durationTicks": 46,
          "midi": 36,
          "name": "C2",
          "ticks": 22896,
          "time": 59.625,
          "velocity": 0.8661417322834646
        },
        {
          "duration": 0.1197916666666643,
          "durationTicks": 46,
          "midi": 43,
          "name": "G2",
          "ticks": 22896,
          "time": 59.625,
          "velocity": 0.8661417322834646
        },
        {
          "duration": 0.2447916666666643,
          "durationTicks": 94,
          "midi": 36,
          "name": "C2",
          "ticks": 22944,
          "time": 59.75,
          "velocity": 0.8661417322834646
        },
        {
          "duration": 0.2447916666666643,
          "durationTicks": 94,
          "midi": 43,
          "name": "G2",
          "ticks": 22944,
          "time": 59.75,
          "velocity": 0.8661417322834646
        },
        {
          "duration": 0.25,
          "durationTicks": 96,
          "midi": 60,
          "name": "C4",
          "ticks": 22944,
          "time": 59.75,
          "velocity": 0.6299212598425197
        },
        {
          "duration": 0.2447916666666643,
          "durationTicks": 94,
          "midi": 48,
          "name": "C3",
          "ticks": 22944,
          "time": 59.75,
          "velocity": 0.8661417322834646
        },
        {
          "duration": 0.2447916666666643,
          "durationTicks": 94,
          "midi": 50,
          "name": "D3",
          "ticks": 23040,
          "time": 60,
          "velocity": 0.8661417322834646
        },
        {
          "duration": 0.2447916666666643,
          "durationTicks": 94,
          "midi": 38,
          "name": "D2",
          "ticks": 23040,
          "time": 60,
          "velocity": 0.8661417322834646
        },
        {
          "duration": 0.2447916666666643,
          "durationTicks": 94,
          "midi": 45,
          "name": "A2",
          "ticks": 23040,
          "time": 60,
          "velocity": 0.8661417322834646
        },
        {
          "duration": 0.2447916666666643,
          "durationTicks": 94,
          "midi": 50,
          "name": "D3",
          "ticks": 23136,
          "time": 60.25,
          "velocity": 0.8661417322834646
        },
        {
          "duration": 0.2447916666666643,
          "durationTicks": 94,
          "midi": 38,
          "name": "D2",
          "ticks": 23136,
          "time": 60.25,
          "velocity": 0.8661417322834646
        },
        {
          "duration": 0.2447916666666643,
          "durationTicks": 94,
          "midi": 45,
          "name": "A2",
          "ticks": 23136,
          "time": 60.25,
          "velocity": 0.8661417322834646
        },
        {
          "duration": 0.1197916666666643,
          "durationTicks": 46,
          "midi": 50,
          "name": "D3",
          "ticks": 23232,
          "time": 60.5,
          "velocity": 0.8661417322834646
        },
        {
          "duration": 0.1197916666666643,
          "durationTicks": 46,
          "midi": 38,
          "name": "D2",
          "ticks": 23232,
          "time": 60.5,
          "velocity": 0.8661417322834646
        },
        {
          "duration": 0.1197916666666643,
          "durationTicks": 46,
          "midi": 45,
          "name": "A2",
          "ticks": 23232,
          "time": 60.5,
          "velocity": 0.8661417322834646
        },
        {
          "duration": 0.1197916666666643,
          "durationTicks": 46,
          "midi": 50,
          "name": "D3",
          "ticks": 23280,
          "time": 60.625,
          "velocity": 0.8661417322834646
        },
        {
          "duration": 0.1197916666666643,
          "durationTicks": 46,
          "midi": 38,
          "name": "D2",
          "ticks": 23280,
          "time": 60.625,
          "velocity": 0.8661417322834646
        },
        {
          "duration": 0.1197916666666643,
          "durationTicks": 46,
          "midi": 45,
          "name": "A2",
          "ticks": 23280,
          "time": 60.625,
          "velocity": 0.8661417322834646
        },
        {
          "duration": 0.1197916666666643,
          "durationTicks": 46,
          "midi": 50,
          "name": "D3",
          "ticks": 23328,
          "time": 60.75,
          "velocity": 0.8661417322834646
        },
        {
          "duration": 0.1197916666666643,
          "durationTicks": 46,
          "midi": 38,
          "name": "D2",
          "ticks": 23328,
          "time": 60.75,
          "velocity": 0.8661417322834646
        },
        {
          "duration": 0.1197916666666643,
          "durationTicks": 46,
          "midi": 45,
          "name": "A2",
          "ticks": 23328,
          "time": 60.75,
          "velocity": 0.8661417322834646
        },
        {
          "duration": 0.2447916666666643,
          "durationTicks": 94,
          "midi": 50,
          "name": "D3",
          "ticks": 23376,
          "time": 60.875,
          "velocity": 0.8661417322834646
        },
        {
          "duration": 0.2447916666666643,
          "durationTicks": 94,
          "midi": 38,
          "name": "D2",
          "ticks": 23376,
          "time": 60.875,
          "velocity": 0.8661417322834646
        },
        {
          "duration": 0.2447916666666643,
          "durationTicks": 94,
          "midi": 45,
          "name": "A2",
          "ticks": 23376,
          "time": 60.875,
          "velocity": 0.8661417322834646
        },
        {
          "duration": 0.2447916666666643,
          "durationTicks": 94,
          "midi": 50,
          "name": "D3",
          "ticks": 23472,
          "time": 61.125,
          "velocity": 0.8661417322834646
        },
        {
          "duration": 0.2447916666666643,
          "durationTicks": 94,
          "midi": 38,
          "name": "D2",
          "ticks": 23472,
          "time": 61.125,
          "velocity": 0.8661417322834646
        },
        {
          "duration": 0.2447916666666643,
          "durationTicks": 94,
          "midi": 45,
          "name": "A2",
          "ticks": 23472,
          "time": 61.125,
          "velocity": 0.8661417322834646
        },
        {
          "duration": 0.1197916666666643,
          "durationTicks": 46,
          "midi": 50,
          "name": "D3",
          "ticks": 23568,
          "time": 61.375,
          "velocity": 0.8661417322834646
        },
        {
          "duration": 0.1197916666666643,
          "durationTicks": 46,
          "midi": 38,
          "name": "D2",
          "ticks": 23568,
          "time": 61.375,
          "velocity": 0.8661417322834646
        },
        {
          "duration": 0.1197916666666643,
          "durationTicks": 46,
          "midi": 45,
          "name": "A2",
          "ticks": 23568,
          "time": 61.375,
          "velocity": 0.8661417322834646
        },
        {
          "duration": 0.1197916666666643,
          "durationTicks": 46,
          "midi": 50,
          "name": "D3",
          "ticks": 23616,
          "time": 61.5,
          "velocity": 0.8661417322834646
        },
        {
          "duration": 0.1197916666666643,
          "durationTicks": 46,
          "midi": 38,
          "name": "D2",
          "ticks": 23616,
          "time": 61.5,
          "velocity": 0.8661417322834646
        },
        {
          "duration": 0.1197916666666643,
          "durationTicks": 46,
          "midi": 45,
          "name": "A2",
          "ticks": 23616,
          "time": 61.5,
          "velocity": 0.8661417322834646
        },
        {
          "duration": 0.1197916666666643,
          "durationTicks": 46,
          "midi": 50,
          "name": "D3",
          "ticks": 23664,
          "time": 61.625,
          "velocity": 0.8661417322834646
        },
        {
          "duration": 0.1197916666666643,
          "durationTicks": 46,
          "midi": 38,
          "name": "D2",
          "ticks": 23664,
          "time": 61.625,
          "velocity": 0.8661417322834646
        },
        {
          "duration": 0.1197916666666643,
          "durationTicks": 46,
          "midi": 45,
          "name": "A2",
          "ticks": 23664,
          "time": 61.625,
          "velocity": 0.8661417322834646
        },
        {
          "duration": 0.2447916666666643,
          "durationTicks": 94,
          "midi": 38,
          "name": "D2",
          "ticks": 23712,
          "time": 61.75,
          "velocity": 0.8661417322834646
        },
        {
          "duration": 0.2447916666666643,
          "durationTicks": 94,
          "midi": 45,
          "name": "A2",
          "ticks": 23712,
          "time": 61.75,
          "velocity": 0.8661417322834646
        },
        {
          "duration": 0.25,
          "durationTicks": 96,
          "midi": 62,
          "name": "D4",
          "ticks": 23712,
          "time": 61.75,
          "velocity": 0.6299212598425197
        },
        {
          "duration": 0.2447916666666643,
          "durationTicks": 94,
          "midi": 50,
          "name": "D3",
          "ticks": 23712,
          "time": 61.75,
          "velocity": 0.8661417322834646
        },
        {
          "duration": 0.2447916666666643,
          "durationTicks": 94,
          "midi": 49,
          "name": "C#3",
          "ticks": 23808,
          "time": 62,
          "velocity": 0.8661417322834646
        },
        {
          "duration": 0.2447916666666643,
          "durationTicks": 94,
          "midi": 37,
          "name": "C#2",
          "ticks": 23808,
          "time": 62,
          "velocity": 0.8661417322834646
        },
        {
          "duration": 0.2447916666666643,
          "durationTicks": 94,
          "midi": 44,
          "name": "G#2",
          "ticks": 23808,
          "time": 62,
          "velocity": 0.8661417322834646
        },
        {
          "duration": 0.2447916666666643,
          "durationTicks": 94,
          "midi": 49,
          "name": "C#3",
          "ticks": 23904,
          "time": 62.25,
          "velocity": 0.8661417322834646
        },
        {
          "duration": 0.2447916666666643,
          "durationTicks": 94,
          "midi": 37,
          "name": "C#2",
          "ticks": 23904,
          "time": 62.25,
          "velocity": 0.8661417322834646
        },
        {
          "duration": 0.2447916666666643,
          "durationTicks": 94,
          "midi": 44,
          "name": "G#2",
          "ticks": 23904,
          "time": 62.25,
          "velocity": 0.8661417322834646
        },
        {
          "duration": 0.1197916666666643,
          "durationTicks": 46,
          "midi": 49,
          "name": "C#3",
          "ticks": 24000,
          "time": 62.5,
          "velocity": 0.8661417322834646
        },
        {
          "duration": 0.1197916666666643,
          "durationTicks": 46,
          "midi": 37,
          "name": "C#2",
          "ticks": 24000,
          "time": 62.5,
          "velocity": 0.8661417322834646
        },
        {
          "duration": 0.1197916666666643,
          "durationTicks": 46,
          "midi": 44,
          "name": "G#2",
          "ticks": 24000,
          "time": 62.5,
          "velocity": 0.8661417322834646
        },
        {
          "duration": 0.1197916666666643,
          "durationTicks": 46,
          "midi": 49,
          "name": "C#3",
          "ticks": 24048,
          "time": 62.625,
          "velocity": 0.8661417322834646
        },
        {
          "duration": 0.1197916666666643,
          "durationTicks": 46,
          "midi": 37,
          "name": "C#2",
          "ticks": 24048,
          "time": 62.625,
          "velocity": 0.8661417322834646
        },
        {
          "duration": 0.1197916666666643,
          "durationTicks": 46,
          "midi": 44,
          "name": "G#2",
          "ticks": 24048,
          "time": 62.625,
          "velocity": 0.8661417322834646
        },
        {
          "duration": 0.1197916666666643,
          "durationTicks": 46,
          "midi": 49,
          "name": "C#3",
          "ticks": 24096,
          "time": 62.75,
          "velocity": 0.8661417322834646
        },
        {
          "duration": 0.1197916666666643,
          "durationTicks": 46,
          "midi": 37,
          "name": "C#2",
          "ticks": 24096,
          "time": 62.75,
          "velocity": 0.8661417322834646
        },
        {
          "duration": 0.1197916666666643,
          "durationTicks": 46,
          "midi": 44,
          "name": "G#2",
          "ticks": 24096,
          "time": 62.75,
          "velocity": 0.8661417322834646
        },
        {
          "duration": 0.2447916666666643,
          "durationTicks": 94,
          "midi": 51,
          "name": "D#3",
          "ticks": 24144,
          "time": 62.875,
          "velocity": 0.8661417322834646
        },
        {
          "duration": 0.2447916666666643,
          "durationTicks": 94,
          "midi": 39,
          "name": "D#2",
          "ticks": 24144,
          "time": 62.875,
          "velocity": 0.8661417322834646
        },
        {
          "duration": 0.2447916666666643,
          "durationTicks": 94,
          "midi": 46,
          "name": "A#2",
          "ticks": 24144,
          "time": 62.875,
          "velocity": 0.8661417322834646
        },
        {
          "duration": 0.2447916666666643,
          "durationTicks": 94,
          "midi": 51,
          "name": "D#3",
          "ticks": 24240,
          "time": 63.125,
          "velocity": 0.8661417322834646
        },
        {
          "duration": 0.2447916666666643,
          "durationTicks": 94,
          "midi": 39,
          "name": "D#2",
          "ticks": 24240,
          "time": 63.125,
          "velocity": 0.8661417322834646
        },
        {
          "duration": 0.2447916666666643,
          "durationTicks": 94,
          "midi": 46,
          "name": "A#2",
          "ticks": 24240,
          "time": 63.125,
          "velocity": 0.8661417322834646
        },
        {
          "duration": 0.1197916666666643,
          "durationTicks": 46,
          "midi": 51,
          "name": "D#3",
          "ticks": 24336,
          "time": 63.375,
          "velocity": 0.8661417322834646
        },
        {
          "duration": 0.1197916666666643,
          "durationTicks": 46,
          "midi": 39,
          "name": "D#2",
          "ticks": 24336,
          "time": 63.375,
          "velocity": 0.8661417322834646
        },
        {
          "duration": 0.1197916666666643,
          "durationTicks": 46,
          "midi": 46,
          "name": "A#2",
          "ticks": 24336,
          "time": 63.375,
          "velocity": 0.8661417322834646
        },
        {
          "duration": 0.1197916666666643,
          "durationTicks": 46,
          "midi": 51,
          "name": "D#3",
          "ticks": 24384,
          "time": 63.5,
          "velocity": 0.8661417322834646
        },
        {
          "duration": 0.1197916666666643,
          "durationTicks": 46,
          "midi": 39,
          "name": "D#2",
          "ticks": 24384,
          "time": 63.5,
          "velocity": 0.8661417322834646
        },
        {
          "duration": 0.1197916666666643,
          "durationTicks": 46,
          "midi": 46,
          "name": "A#2",
          "ticks": 24384,
          "time": 63.5,
          "velocity": 0.8661417322834646
        },
        {
          "duration": 0.1197916666666643,
          "durationTicks": 46,
          "midi": 51,
          "name": "D#3",
          "ticks": 24432,
          "time": 63.625,
          "velocity": 0.8661417322834646
        },
        {
          "duration": 0.1197916666666643,
          "durationTicks": 46,
          "midi": 39,
          "name": "D#2",
          "ticks": 24432,
          "time": 63.625,
          "velocity": 0.8661417322834646
        },
        {
          "duration": 0.1197916666666643,
          "durationTicks": 46,
          "midi": 46,
          "name": "A#2",
          "ticks": 24432,
          "time": 63.625,
          "velocity": 0.8661417322834646
        },
        {
          "duration": 0.2447916666666643,
          "durationTicks": 94,
          "midi": 39,
          "name": "D#2",
          "ticks": 24480,
          "time": 63.75,
          "velocity": 0.8661417322834646
        },
        {
          "duration": 0.2447916666666643,
          "durationTicks": 94,
          "midi": 46,
          "name": "A#2",
          "ticks": 24480,
          "time": 63.75,
          "velocity": 0.8661417322834646
        },
        {
          "duration": 0.25,
          "durationTicks": 96,
          "midi": 63,
          "name": "D#4",
          "ticks": 24480,
          "time": 63.75,
          "velocity": 0.6299212598425197
        },
        {
          "duration": 0.2447916666666643,
          "durationTicks": 94,
          "midi": 51,
          "name": "D#3",
          "ticks": 24480,
          "time": 63.75,
          "velocity": 0.8661417322834646
        },
        {
          "duration": 0.2447916666666714,
          "durationTicks": 94,
          "midi": 46,
          "name": "A#2",
          "ticks": 24576,
          "time": 64,
          "velocity": 0.8661417322834646
        },
        {
          "duration": 0.2447916666666714,
          "durationTicks": 94,
          "midi": 34,
          "name": "A#1",
          "ticks": 24576,
          "time": 64,
          "velocity": 0.8661417322834646
        },
        {
          "duration": 0.2447916666666714,
          "durationTicks": 94,
          "midi": 41,
          "name": "F2",
          "ticks": 24576,
          "time": 64,
          "velocity": 0.8661417322834646
        },
        {
          "duration": 0.2447916666666714,
          "durationTicks": 94,
          "midi": 46,
          "name": "A#2",
          "ticks": 24672,
          "time": 64.25,
          "velocity": 0.8661417322834646
        },
        {
          "duration": 0.2447916666666714,
          "durationTicks": 94,
          "midi": 34,
          "name": "A#1",
          "ticks": 24672,
          "time": 64.25,
          "velocity": 0.8661417322834646
        },
        {
          "duration": 0.2447916666666714,
          "durationTicks": 94,
          "midi": 41,
          "name": "F2",
          "ticks": 24672,
          "time": 64.25,
          "velocity": 0.8661417322834646
        },
        {
          "duration": 0.1197916666666714,
          "durationTicks": 46,
          "midi": 46,
          "name": "A#2",
          "ticks": 24768,
          "time": 64.5,
          "velocity": 0.8661417322834646
        },
        {
          "duration": 0.1197916666666714,
          "durationTicks": 46,
          "midi": 34,
          "name": "A#1",
          "ticks": 24768,
          "time": 64.5,
          "velocity": 0.8661417322834646
        },
        {
          "duration": 0.1197916666666714,
          "durationTicks": 46,
          "midi": 41,
          "name": "F2",
          "ticks": 24768,
          "time": 64.5,
          "velocity": 0.8661417322834646
        },
        {
          "duration": 0.1197916666666714,
          "durationTicks": 46,
          "midi": 46,
          "name": "A#2",
          "ticks": 24816,
          "time": 64.625,
          "velocity": 0.8661417322834646
        },
        {
          "duration": 0.1197916666666714,
          "durationTicks": 46,
          "midi": 34,
          "name": "A#1",
          "ticks": 24816,
          "time": 64.625,
          "velocity": 0.8661417322834646
        },
        {
          "duration": 0.1197916666666714,
          "durationTicks": 46,
          "midi": 41,
          "name": "F2",
          "ticks": 24816,
          "time": 64.625,
          "velocity": 0.8661417322834646
        },
        {
          "duration": 0.1197916666666714,
          "durationTicks": 46,
          "midi": 46,
          "name": "A#2",
          "ticks": 24864,
          "time": 64.75,
          "velocity": 0.8661417322834646
        },
        {
          "duration": 0.1197916666666714,
          "durationTicks": 46,
          "midi": 34,
          "name": "A#1",
          "ticks": 24864,
          "time": 64.75,
          "velocity": 0.8661417322834646
        },
        {
          "duration": 0.1197916666666714,
          "durationTicks": 46,
          "midi": 41,
          "name": "F2",
          "ticks": 24864,
          "time": 64.75,
          "velocity": 0.8661417322834646
        },
        {
          "duration": 0.2447916666666714,
          "durationTicks": 94,
          "midi": 46,
          "name": "A#2",
          "ticks": 24912,
          "time": 64.875,
          "velocity": 0.8661417322834646
        },
        {
          "duration": 0.2447916666666714,
          "durationTicks": 94,
          "midi": 34,
          "name": "A#1",
          "ticks": 24912,
          "time": 64.875,
          "velocity": 0.8661417322834646
        },
        {
          "duration": 0.2447916666666714,
          "durationTicks": 94,
          "midi": 41,
          "name": "F2",
          "ticks": 24912,
          "time": 64.875,
          "velocity": 0.8661417322834646
        },
        {
          "duration": 0.2447916666666714,
          "durationTicks": 94,
          "midi": 46,
          "name": "A#2",
          "ticks": 25008,
          "time": 65.125,
          "velocity": 0.8661417322834646
        },
        {
          "duration": 0.2447916666666714,
          "durationTicks": 94,
          "midi": 34,
          "name": "A#1",
          "ticks": 25008,
          "time": 65.125,
          "velocity": 0.8661417322834646
        },
        {
          "duration": 0.2447916666666714,
          "durationTicks": 94,
          "midi": 41,
          "name": "F2",
          "ticks": 25008,
          "time": 65.125,
          "velocity": 0.8661417322834646
        },
        {
          "duration": 0.1197916666666714,
          "durationTicks": 46,
          "midi": 46,
          "name": "A#2",
          "ticks": 25104,
          "time": 65.375,
          "velocity": 0.8661417322834646
        },
        {
          "duration": 0.1197916666666714,
          "durationTicks": 46,
          "midi": 34,
          "name": "A#1",
          "ticks": 25104,
          "time": 65.375,
          "velocity": 0.8661417322834646
        },
        {
          "duration": 0.1197916666666714,
          "durationTicks": 46,
          "midi": 41,
          "name": "F2",
          "ticks": 25104,
          "time": 65.375,
          "velocity": 0.8661417322834646
        },
        {
          "duration": 0.1197916666666714,
          "durationTicks": 46,
          "midi": 46,
          "name": "A#2",
          "ticks": 25152,
          "time": 65.5,
          "velocity": 0.8661417322834646
        },
        {
          "duration": 0.1197916666666714,
          "durationTicks": 46,
          "midi": 34,
          "name": "A#1",
          "ticks": 25152,
          "time": 65.5,
          "velocity": 0.8661417322834646
        },
        {
          "duration": 0.1197916666666714,
          "durationTicks": 46,
          "midi": 41,
          "name": "F2",
          "ticks": 25152,
          "time": 65.5,
          "velocity": 0.8661417322834646
        },
        {
          "duration": 0.1197916666666714,
          "durationTicks": 46,
          "midi": 46,
          "name": "A#2",
          "ticks": 25200,
          "time": 65.625,
          "velocity": 0.8661417322834646
        },
        {
          "duration": 0.1197916666666714,
          "durationTicks": 46,
          "midi": 34,
          "name": "A#1",
          "ticks": 25200,
          "time": 65.625,
          "velocity": 0.8661417322834646
        },
        {
          "duration": 0.1197916666666714,
          "durationTicks": 46,
          "midi": 41,
          "name": "F2",
          "ticks": 25200,
          "time": 65.625,
          "velocity": 0.8661417322834646
        },
        {
          "duration": 0.2447916666666714,
          "durationTicks": 94,
          "midi": 58,
          "name": "A#3",
          "ticks": 25248,
          "time": 65.75,
          "velocity": 0.8661417322834646
        },
        {
          "duration": 0.2447916666666714,
          "durationTicks": 94,
          "midi": 46,
          "name": "A#2",
          "ticks": 25248,
          "time": 65.75,
          "velocity": 0.8661417322834646
        },
        {
          "duration": 0.2447916666666714,
          "durationTicks": 94,
          "midi": 53,
          "name": "F3",
          "ticks": 25248,
          "time": 65.75,
          "velocity": 0.8661417322834646
        },
        {
          "duration": 0.2447916666666714,
          "durationTicks": 94,
          "midi": 48,
          "name": "C3",
          "ticks": 25344,
          "time": 66,
          "velocity": 0.8661417322834646
        },
        {
          "duration": 0.2447916666666714,
          "durationTicks": 94,
          "midi": 36,
          "name": "C2",
          "ticks": 25344,
          "time": 66,
          "velocity": 0.8661417322834646
        },
        {
          "duration": 0.2447916666666714,
          "durationTicks": 94,
          "midi": 43,
          "name": "G2",
          "ticks": 25344,
          "time": 66,
          "velocity": 0.8661417322834646
        },
        {
          "duration": 0.2447916666666714,
          "durationTicks": 94,
          "midi": 48,
          "name": "C3",
          "ticks": 25440,
          "time": 66.25,
          "velocity": 0.8661417322834646
        },
        {
          "duration": 0.2447916666666714,
          "durationTicks": 94,
          "midi": 36,
          "name": "C2",
          "ticks": 25440,
          "time": 66.25,
          "velocity": 0.8661417322834646
        },
        {
          "duration": 0.2447916666666714,
          "durationTicks": 94,
          "midi": 43,
          "name": "G2",
          "ticks": 25440,
          "time": 66.25,
          "velocity": 0.8661417322834646
        },
        {
          "duration": 0.1197916666666714,
          "durationTicks": 46,
          "midi": 48,
          "name": "C3",
          "ticks": 25536,
          "time": 66.5,
          "velocity": 0.8661417322834646
        },
        {
          "duration": 0.1197916666666714,
          "durationTicks": 46,
          "midi": 36,
          "name": "C2",
          "ticks": 25536,
          "time": 66.5,
          "velocity": 0.8661417322834646
        },
        {
          "duration": 0.1197916666666714,
          "durationTicks": 46,
          "midi": 43,
          "name": "G2",
          "ticks": 25536,
          "time": 66.5,
          "velocity": 0.8661417322834646
        },
        {
          "duration": 0.1197916666666714,
          "durationTicks": 46,
          "midi": 48,
          "name": "C3",
          "ticks": 25584,
          "time": 66.625,
          "velocity": 0.8661417322834646
        },
        {
          "duration": 0.1197916666666714,
          "durationTicks": 46,
          "midi": 36,
          "name": "C2",
          "ticks": 25584,
          "time": 66.625,
          "velocity": 0.8661417322834646
        },
        {
          "duration": 0.1197916666666714,
          "durationTicks": 46,
          "midi": 43,
          "name": "G2",
          "ticks": 25584,
          "time": 66.625,
          "velocity": 0.8661417322834646
        },
        {
          "duration": 0.1197916666666714,
          "durationTicks": 46,
          "midi": 48,
          "name": "C3",
          "ticks": 25632,
          "time": 66.75,
          "velocity": 0.8661417322834646
        },
        {
          "duration": 0.1197916666666714,
          "durationTicks": 46,
          "midi": 36,
          "name": "C2",
          "ticks": 25632,
          "time": 66.75,
          "velocity": 0.8661417322834646
        },
        {
          "duration": 0.1197916666666714,
          "durationTicks": 46,
          "midi": 43,
          "name": "G2",
          "ticks": 25632,
          "time": 66.75,
          "velocity": 0.8661417322834646
        },
        {
          "duration": 0.2447916666666714,
          "durationTicks": 94,
          "midi": 48,
          "name": "C3",
          "ticks": 25680,
          "time": 66.875,
          "velocity": 0.8661417322834646
        },
        {
          "duration": 0.2447916666666714,
          "durationTicks": 94,
          "midi": 36,
          "name": "C2",
          "ticks": 25680,
          "time": 66.875,
          "velocity": 0.8661417322834646
        },
        {
          "duration": 0.2447916666666714,
          "durationTicks": 94,
          "midi": 43,
          "name": "G2",
          "ticks": 25680,
          "time": 66.875,
          "velocity": 0.8661417322834646
        },
        {
          "duration": 0.2447916666666714,
          "durationTicks": 94,
          "midi": 48,
          "name": "C3",
          "ticks": 25776,
          "time": 67.125,
          "velocity": 0.8661417322834646
        },
        {
          "duration": 0.2447916666666714,
          "durationTicks": 94,
          "midi": 36,
          "name": "C2",
          "ticks": 25776,
          "time": 67.125,
          "velocity": 0.8661417322834646
        },
        {
          "duration": 0.2447916666666714,
          "durationTicks": 94,
          "midi": 43,
          "name": "G2",
          "ticks": 25776,
          "time": 67.125,
          "velocity": 0.8661417322834646
        },
        {
          "duration": 0.1197916666666714,
          "durationTicks": 46,
          "midi": 48,
          "name": "C3",
          "ticks": 25872,
          "time": 67.375,
          "velocity": 0.8661417322834646
        },
        {
          "duration": 0.1197916666666714,
          "durationTicks": 46,
          "midi": 36,
          "name": "C2",
          "ticks": 25872,
          "time": 67.375,
          "velocity": 0.8661417322834646
        },
        {
          "duration": 0.1197916666666714,
          "durationTicks": 46,
          "midi": 43,
          "name": "G2",
          "ticks": 25872,
          "time": 67.375,
          "velocity": 0.8661417322834646
        },
        {
          "duration": 0.1197916666666714,
          "durationTicks": 46,
          "midi": 48,
          "name": "C3",
          "ticks": 25920,
          "time": 67.5,
          "velocity": 0.8661417322834646
        },
        {
          "duration": 0.1197916666666714,
          "durationTicks": 46,
          "midi": 36,
          "name": "C2",
          "ticks": 25920,
          "time": 67.5,
          "velocity": 0.8661417322834646
        },
        {
          "duration": 0.1197916666666714,
          "durationTicks": 46,
          "midi": 43,
          "name": "G2",
          "ticks": 25920,
          "time": 67.5,
          "velocity": 0.8661417322834646
        },
        {
          "duration": 0.1197916666666714,
          "durationTicks": 46,
          "midi": 48,
          "name": "C3",
          "ticks": 25968,
          "time": 67.625,
          "velocity": 0.8661417322834646
        },
        {
          "duration": 0.1197916666666714,
          "durationTicks": 46,
          "midi": 36,
          "name": "C2",
          "ticks": 25968,
          "time": 67.625,
          "velocity": 0.8661417322834646
        },
        {
          "duration": 0.1197916666666714,
          "durationTicks": 46,
          "midi": 43,
          "name": "G2",
          "ticks": 25968,
          "time": 67.625,
          "velocity": 0.8661417322834646
        },
        {
          "duration": 0.2447916666666714,
          "durationTicks": 94,
          "midi": 36,
          "name": "C2",
          "ticks": 26016,
          "time": 67.75,
          "velocity": 0.8661417322834646
        },
        {
          "duration": 0.2447916666666714,
          "durationTicks": 94,
          "midi": 43,
          "name": "G2",
          "ticks": 26016,
          "time": 67.75,
          "velocity": 0.8661417322834646
        },
        {
          "duration": 0.2447916666666714,
          "durationTicks": 94,
          "midi": 48,
          "name": "C3",
          "ticks": 26016,
          "time": 67.75,
          "velocity": 0.8661417322834646
        },
        {
          "duration": 0.25,
          "durationTicks": 96,
          "midi": 60,
          "name": "C4",
          "ticks": 26016,
          "time": 67.75,
          "velocity": 0.6299212598425197
        },
        {
          "duration": 0.2447916666666714,
          "durationTicks": 94,
          "midi": 50,
          "name": "D3",
          "ticks": 26112,
          "time": 68,
          "velocity": 0.8661417322834646
        },
        {
          "duration": 0.2447916666666714,
          "durationTicks": 94,
          "midi": 38,
          "name": "D2",
          "ticks": 26112,
          "time": 68,
          "velocity": 0.8661417322834646
        },
        {
          "duration": 0.2447916666666714,
          "durationTicks": 94,
          "midi": 45,
          "name": "A2",
          "ticks": 26112,
          "time": 68,
          "velocity": 0.8661417322834646
        },
        {
          "duration": 0.2447916666666714,
          "durationTicks": 94,
          "midi": 50,
          "name": "D3",
          "ticks": 26208,
          "time": 68.25,
          "velocity": 0.8661417322834646
        },
        {
          "duration": 0.2447916666666714,
          "durationTicks": 94,
          "midi": 38,
          "name": "D2",
          "ticks": 26208,
          "time": 68.25,
          "velocity": 0.8661417322834646
        },
        {
          "duration": 0.2447916666666714,
          "durationTicks": 94,
          "midi": 45,
          "name": "A2",
          "ticks": 26208,
          "time": 68.25,
          "velocity": 0.8661417322834646
        },
        {
          "duration": 0.1197916666666714,
          "durationTicks": 46,
          "midi": 50,
          "name": "D3",
          "ticks": 26304,
          "time": 68.5,
          "velocity": 0.8661417322834646
        },
        {
          "duration": 0.1197916666666714,
          "durationTicks": 46,
          "midi": 38,
          "name": "D2",
          "ticks": 26304,
          "time": 68.5,
          "velocity": 0.8661417322834646
        },
        {
          "duration": 0.1197916666666714,
          "durationTicks": 46,
          "midi": 45,
          "name": "A2",
          "ticks": 26304,
          "time": 68.5,
          "velocity": 0.8661417322834646
        },
        {
          "duration": 0.1197916666666714,
          "durationTicks": 46,
          "midi": 50,
          "name": "D3",
          "ticks": 26352,
          "time": 68.625,
          "velocity": 0.8661417322834646
        },
        {
          "duration": 0.1197916666666714,
          "durationTicks": 46,
          "midi": 38,
          "name": "D2",
          "ticks": 26352,
          "time": 68.625,
          "velocity": 0.8661417322834646
        },
        {
          "duration": 0.1197916666666714,
          "durationTicks": 46,
          "midi": 45,
          "name": "A2",
          "ticks": 26352,
          "time": 68.625,
          "velocity": 0.8661417322834646
        },
        {
          "duration": 0.1197916666666714,
          "durationTicks": 46,
          "midi": 50,
          "name": "D3",
          "ticks": 26400,
          "time": 68.75,
          "velocity": 0.8661417322834646
        },
        {
          "duration": 0.1197916666666714,
          "durationTicks": 46,
          "midi": 38,
          "name": "D2",
          "ticks": 26400,
          "time": 68.75,
          "velocity": 0.8661417322834646
        },
        {
          "duration": 0.1197916666666714,
          "durationTicks": 46,
          "midi": 45,
          "name": "A2",
          "ticks": 26400,
          "time": 68.75,
          "velocity": 0.8661417322834646
        },
        {
          "duration": 0.2447916666666714,
          "durationTicks": 94,
          "midi": 50,
          "name": "D3",
          "ticks": 26448,
          "time": 68.875,
          "velocity": 0.8661417322834646
        },
        {
          "duration": 0.2447916666666714,
          "durationTicks": 94,
          "midi": 38,
          "name": "D2",
          "ticks": 26448,
          "time": 68.875,
          "velocity": 0.8661417322834646
        },
        {
          "duration": 0.2447916666666714,
          "durationTicks": 94,
          "midi": 45,
          "name": "A2",
          "ticks": 26448,
          "time": 68.875,
          "velocity": 0.8661417322834646
        },
        {
          "duration": 0.2447916666666714,
          "durationTicks": 94,
          "midi": 50,
          "name": "D3",
          "ticks": 26544,
          "time": 69.125,
          "velocity": 0.8661417322834646
        },
        {
          "duration": 0.2447916666666714,
          "durationTicks": 94,
          "midi": 38,
          "name": "D2",
          "ticks": 26544,
          "time": 69.125,
          "velocity": 0.8661417322834646
        },
        {
          "duration": 0.2447916666666714,
          "durationTicks": 94,
          "midi": 45,
          "name": "A2",
          "ticks": 26544,
          "time": 69.125,
          "velocity": 0.8661417322834646
        },
        {
          "duration": 0.1197916666666714,
          "durationTicks": 46,
          "midi": 50,
          "name": "D3",
          "ticks": 26640,
          "time": 69.375,
          "velocity": 0.8661417322834646
        },
        {
          "duration": 0.1197916666666714,
          "durationTicks": 46,
          "midi": 38,
          "name": "D2",
          "ticks": 26640,
          "time": 69.375,
          "velocity": 0.8661417322834646
        },
        {
          "duration": 0.1197916666666714,
          "durationTicks": 46,
          "midi": 45,
          "name": "A2",
          "ticks": 26640,
          "time": 69.375,
          "velocity": 0.8661417322834646
        },
        {
          "duration": 0.1197916666666714,
          "durationTicks": 46,
          "midi": 50,
          "name": "D3",
          "ticks": 26688,
          "time": 69.5,
          "velocity": 0.8661417322834646
        },
        {
          "duration": 0.1197916666666714,
          "durationTicks": 46,
          "midi": 38,
          "name": "D2",
          "ticks": 26688,
          "time": 69.5,
          "velocity": 0.8661417322834646
        },
        {
          "duration": 0.1197916666666714,
          "durationTicks": 46,
          "midi": 45,
          "name": "A2",
          "ticks": 26688,
          "time": 69.5,
          "velocity": 0.8661417322834646
        },
        {
          "duration": 0.1197916666666714,
          "durationTicks": 46,
          "midi": 50,
          "name": "D3",
          "ticks": 26736,
          "time": 69.625,
          "velocity": 0.8661417322834646
        },
        {
          "duration": 0.1197916666666714,
          "durationTicks": 46,
          "midi": 38,
          "name": "D2",
          "ticks": 26736,
          "time": 69.625,
          "velocity": 0.8661417322834646
        },
        {
          "duration": 0.1197916666666714,
          "durationTicks": 46,
          "midi": 45,
          "name": "A2",
          "ticks": 26736,
          "time": 69.625,
          "velocity": 0.8661417322834646
        },
        {
          "duration": 0.2447916666666714,
          "durationTicks": 94,
          "midi": 38,
          "name": "D2",
          "ticks": 26784,
          "time": 69.75,
          "velocity": 0.8661417322834646
        },
        {
          "duration": 0.2447916666666714,
          "durationTicks": 94,
          "midi": 45,
          "name": "A2",
          "ticks": 26784,
          "time": 69.75,
          "velocity": 0.8661417322834646
        },
        {
          "duration": 0.2447916666666714,
          "durationTicks": 94,
          "midi": 50,
          "name": "D3",
          "ticks": 26784,
          "time": 69.75,
          "velocity": 0.8661417322834646
        },
        {
          "duration": 0.25,
          "durationTicks": 96,
          "midi": 62,
          "name": "D4",
          "ticks": 26784,
          "time": 69.75,
          "velocity": 0.6299212598425197
        },
        {
          "duration": 0.2447916666666714,
          "durationTicks": 94,
          "midi": 49,
          "name": "C#3",
          "ticks": 26880,
          "time": 70,
          "velocity": 0.8661417322834646
        },
        {
          "duration": 0.2447916666666714,
          "durationTicks": 94,
          "midi": 37,
          "name": "C#2",
          "ticks": 26880,
          "time": 70,
          "velocity": 0.8661417322834646
        },
        {
          "duration": 0.2447916666666714,
          "durationTicks": 94,
          "midi": 44,
          "name": "G#2",
          "ticks": 26880,
          "time": 70,
          "velocity": 0.8661417322834646
        },
        {
          "duration": 0.2447916666666714,
          "durationTicks": 94,
          "midi": 49,
          "name": "C#3",
          "ticks": 26976,
          "time": 70.25,
          "velocity": 0.8661417322834646
        },
        {
          "duration": 0.2447916666666714,
          "durationTicks": 94,
          "midi": 37,
          "name": "C#2",
          "ticks": 26976,
          "time": 70.25,
          "velocity": 0.8661417322834646
        },
        {
          "duration": 0.2447916666666714,
          "durationTicks": 94,
          "midi": 44,
          "name": "G#2",
          "ticks": 26976,
          "time": 70.25,
          "velocity": 0.8661417322834646
        },
        {
          "duration": 0.1197916666666714,
          "durationTicks": 46,
          "midi": 49,
          "name": "C#3",
          "ticks": 27072,
          "time": 70.5,
          "velocity": 0.8661417322834646
        },
        {
          "duration": 0.1197916666666714,
          "durationTicks": 46,
          "midi": 37,
          "name": "C#2",
          "ticks": 27072,
          "time": 70.5,
          "velocity": 0.8661417322834646
        },
        {
          "duration": 0.1197916666666714,
          "durationTicks": 46,
          "midi": 44,
          "name": "G#2",
          "ticks": 27072,
          "time": 70.5,
          "velocity": 0.8661417322834646
        },
        {
          "duration": 0.1197916666666714,
          "durationTicks": 46,
          "midi": 49,
          "name": "C#3",
          "ticks": 27120,
          "time": 70.625,
          "velocity": 0.8661417322834646
        },
        {
          "duration": 0.1197916666666714,
          "durationTicks": 46,
          "midi": 37,
          "name": "C#2",
          "ticks": 27120,
          "time": 70.625,
          "velocity": 0.8661417322834646
        },
        {
          "duration": 0.1197916666666714,
          "durationTicks": 46,
          "midi": 44,
          "name": "G#2",
          "ticks": 27120,
          "time": 70.625,
          "velocity": 0.8661417322834646
        },
        {
          "duration": 0.1197916666666714,
          "durationTicks": 46,
          "midi": 49,
          "name": "C#3",
          "ticks": 27168,
          "time": 70.75,
          "velocity": 0.8661417322834646
        },
        {
          "duration": 0.1197916666666714,
          "durationTicks": 46,
          "midi": 37,
          "name": "C#2",
          "ticks": 27168,
          "time": 70.75,
          "velocity": 0.8661417322834646
        },
        {
          "duration": 0.1197916666666714,
          "durationTicks": 46,
          "midi": 44,
          "name": "G#2",
          "ticks": 27168,
          "time": 70.75,
          "velocity": 0.8661417322834646
        },
        {
          "duration": 0.2447916666666714,
          "durationTicks": 94,
          "midi": 51,
          "name": "D#3",
          "ticks": 27216,
          "time": 70.875,
          "velocity": 0.8661417322834646
        },
        {
          "duration": 0.2447916666666714,
          "durationTicks": 94,
          "midi": 39,
          "name": "D#2",
          "ticks": 27216,
          "time": 70.875,
          "velocity": 0.8661417322834646
        },
        {
          "duration": 0.2447916666666714,
          "durationTicks": 94,
          "midi": 46,
          "name": "A#2",
          "ticks": 27216,
          "time": 70.875,
          "velocity": 0.8661417322834646
        },
        {
          "duration": 0.2447916666666714,
          "durationTicks": 94,
          "midi": 51,
          "name": "D#3",
          "ticks": 27312,
          "time": 71.125,
          "velocity": 0.8661417322834646
        },
        {
          "duration": 0.2447916666666714,
          "durationTicks": 94,
          "midi": 39,
          "name": "D#2",
          "ticks": 27312,
          "time": 71.125,
          "velocity": 0.8661417322834646
        },
        {
          "duration": 0.2447916666666714,
          "durationTicks": 94,
          "midi": 46,
          "name": "A#2",
          "ticks": 27312,
          "time": 71.125,
          "velocity": 0.8661417322834646
        },
        {
          "duration": 0.1197916666666714,
          "durationTicks": 46,
          "midi": 51,
          "name": "D#3",
          "ticks": 27408,
          "time": 71.375,
          "velocity": 0.8661417322834646
        },
        {
          "duration": 0.1197916666666714,
          "durationTicks": 46,
          "midi": 39,
          "name": "D#2",
          "ticks": 27408,
          "time": 71.375,
          "velocity": 0.8661417322834646
        },
        {
          "duration": 0.1197916666666714,
          "durationTicks": 46,
          "midi": 46,
          "name": "A#2",
          "ticks": 27408,
          "time": 71.375,
          "velocity": 0.8661417322834646
        },
        {
          "duration": 0.1197916666666714,
          "durationTicks": 46,
          "midi": 51,
          "name": "D#3",
          "ticks": 27456,
          "time": 71.5,
          "velocity": 0.8661417322834646
        },
        {
          "duration": 0.1197916666666714,
          "durationTicks": 46,
          "midi": 39,
          "name": "D#2",
          "ticks": 27456,
          "time": 71.5,
          "velocity": 0.8661417322834646
        },
        {
          "duration": 0.1197916666666714,
          "durationTicks": 46,
          "midi": 46,
          "name": "A#2",
          "ticks": 27456,
          "time": 71.5,
          "velocity": 0.8661417322834646
        },
        {
          "duration": 0.1197916666666714,
          "durationTicks": 46,
          "midi": 51,
          "name": "D#3",
          "ticks": 27504,
          "time": 71.625,
          "velocity": 0.8661417322834646
        },
        {
          "duration": 0.1197916666666714,
          "durationTicks": 46,
          "midi": 39,
          "name": "D#2",
          "ticks": 27504,
          "time": 71.625,
          "velocity": 0.8661417322834646
        },
        {
          "duration": 0.1197916666666714,
          "durationTicks": 46,
          "midi": 46,
          "name": "A#2",
          "ticks": 27504,
          "time": 71.625,
          "velocity": 0.8661417322834646
        },
        {
          "duration": 0.2447916666666714,
          "durationTicks": 94,
          "midi": 39,
          "name": "D#2",
          "ticks": 27552,
          "time": 71.75,
          "velocity": 0.8661417322834646
        },
        {
          "duration": 0.2447916666666714,
          "durationTicks": 94,
          "midi": 46,
          "name": "A#2",
          "ticks": 27552,
          "time": 71.75,
          "velocity": 0.8661417322834646
        },
        {
          "duration": 0.2447916666666714,
          "durationTicks": 94,
          "midi": 51,
          "name": "D#3",
          "ticks": 27552,
          "time": 71.75,
          "velocity": 0.8661417322834646
        },
        {
          "duration": 0.25,
          "durationTicks": 96,
          "midi": 63,
          "name": "D#4",
          "ticks": 27552,
          "time": 71.75,
          "velocity": 0.6299212598425197
        },
        {
          "duration": 0.2447916666666714,
          "durationTicks": 94,
          "midi": 46,
          "name": "A#2",
          "ticks": 27648,
          "time": 72,
          "velocity": 0.8661417322834646
        },
        {
          "duration": 0.2447916666666714,
          "durationTicks": 94,
          "midi": 34,
          "name": "A#1",
          "ticks": 27648,
          "time": 72,
          "velocity": 0.8661417322834646
        },
        {
          "duration": 0.2447916666666714,
          "durationTicks": 94,
          "midi": 41,
          "name": "F2",
          "ticks": 27648,
          "time": 72,
          "velocity": 0.8661417322834646
        },
        {
          "duration": 0.2447916666666714,
          "durationTicks": 94,
          "midi": 46,
          "name": "A#2",
          "ticks": 27744,
          "time": 72.25,
          "velocity": 0.8661417322834646
        },
        {
          "duration": 0.2447916666666714,
          "durationTicks": 94,
          "midi": 34,
          "name": "A#1",
          "ticks": 27744,
          "time": 72.25,
          "velocity": 0.8661417322834646
        },
        {
          "duration": 0.2447916666666714,
          "durationTicks": 94,
          "midi": 41,
          "name": "F2",
          "ticks": 27744,
          "time": 72.25,
          "velocity": 0.8661417322834646
        },
        {
          "duration": 0.1197916666666714,
          "durationTicks": 46,
          "midi": 46,
          "name": "A#2",
          "ticks": 27840,
          "time": 72.5,
          "velocity": 0.8661417322834646
        },
        {
          "duration": 0.1197916666666714,
          "durationTicks": 46,
          "midi": 34,
          "name": "A#1",
          "ticks": 27840,
          "time": 72.5,
          "velocity": 0.8661417322834646
        },
        {
          "duration": 0.1197916666666714,
          "durationTicks": 46,
          "midi": 41,
          "name": "F2",
          "ticks": 27840,
          "time": 72.5,
          "velocity": 0.8661417322834646
        },
        {
          "duration": 0.1197916666666714,
          "durationTicks": 46,
          "midi": 46,
          "name": "A#2",
          "ticks": 27888,
          "time": 72.625,
          "velocity": 0.8661417322834646
        },
        {
          "duration": 0.1197916666666714,
          "durationTicks": 46,
          "midi": 34,
          "name": "A#1",
          "ticks": 27888,
          "time": 72.625,
          "velocity": 0.8661417322834646
        },
        {
          "duration": 0.1197916666666714,
          "durationTicks": 46,
          "midi": 41,
          "name": "F2",
          "ticks": 27888,
          "time": 72.625,
          "velocity": 0.8661417322834646
        },
        {
          "duration": 0.1197916666666714,
          "durationTicks": 46,
          "midi": 46,
          "name": "A#2",
          "ticks": 27936,
          "time": 72.75,
          "velocity": 0.8661417322834646
        },
        {
          "duration": 0.1197916666666714,
          "durationTicks": 46,
          "midi": 34,
          "name": "A#1",
          "ticks": 27936,
          "time": 72.75,
          "velocity": 0.8661417322834646
        },
        {
          "duration": 0.1197916666666714,
          "durationTicks": 46,
          "midi": 41,
          "name": "F2",
          "ticks": 27936,
          "time": 72.75,
          "velocity": 0.8661417322834646
        },
        {
          "duration": 0.2447916666666714,
          "durationTicks": 94,
          "midi": 46,
          "name": "A#2",
          "ticks": 27984,
          "time": 72.875,
          "velocity": 0.8661417322834646
        },
        {
          "duration": 0.2447916666666714,
          "durationTicks": 94,
          "midi": 34,
          "name": "A#1",
          "ticks": 27984,
          "time": 72.875,
          "velocity": 0.8661417322834646
        },
        {
          "duration": 0.2447916666666714,
          "durationTicks": 94,
          "midi": 41,
          "name": "F2",
          "ticks": 27984,
          "time": 72.875,
          "velocity": 0.8661417322834646
        },
        {
          "duration": 0.2447916666666714,
          "durationTicks": 94,
          "midi": 46,
          "name": "A#2",
          "ticks": 28080,
          "time": 73.125,
          "velocity": 0.8661417322834646
        },
        {
          "duration": 0.2447916666666714,
          "durationTicks": 94,
          "midi": 34,
          "name": "A#1",
          "ticks": 28080,
          "time": 73.125,
          "velocity": 0.8661417322834646
        },
        {
          "duration": 0.2447916666666714,
          "durationTicks": 94,
          "midi": 41,
          "name": "F2",
          "ticks": 28080,
          "time": 73.125,
          "velocity": 0.8661417322834646
        },
        {
          "duration": 0.1197916666666714,
          "durationTicks": 46,
          "midi": 46,
          "name": "A#2",
          "ticks": 28176,
          "time": 73.375,
          "velocity": 0.8661417322834646
        },
        {
          "duration": 0.1197916666666714,
          "durationTicks": 46,
          "midi": 34,
          "name": "A#1",
          "ticks": 28176,
          "time": 73.375,
          "velocity": 0.8661417322834646
        },
        {
          "duration": 0.1197916666666714,
          "durationTicks": 46,
          "midi": 41,
          "name": "F2",
          "ticks": 28176,
          "time": 73.375,
          "velocity": 0.8661417322834646
        },
        {
          "duration": 0.1197916666666714,
          "durationTicks": 46,
          "midi": 46,
          "name": "A#2",
          "ticks": 28224,
          "time": 73.5,
          "velocity": 0.8661417322834646
        },
        {
          "duration": 0.1197916666666714,
          "durationTicks": 46,
          "midi": 34,
          "name": "A#1",
          "ticks": 28224,
          "time": 73.5,
          "velocity": 0.8661417322834646
        },
        {
          "duration": 0.1197916666666714,
          "durationTicks": 46,
          "midi": 41,
          "name": "F2",
          "ticks": 28224,
          "time": 73.5,
          "velocity": 0.8661417322834646
        },
        {
          "duration": 0.1197916666666714,
          "durationTicks": 46,
          "midi": 46,
          "name": "A#2",
          "ticks": 28272,
          "time": 73.625,
          "velocity": 0.8661417322834646
        },
        {
          "duration": 0.1197916666666714,
          "durationTicks": 46,
          "midi": 34,
          "name": "A#1",
          "ticks": 28272,
          "time": 73.625,
          "velocity": 0.8661417322834646
        },
        {
          "duration": 0.1197916666666714,
          "durationTicks": 46,
          "midi": 41,
          "name": "F2",
          "ticks": 28272,
          "time": 73.625,
          "velocity": 0.8661417322834646
        },
        {
          "duration": 0.2447916666666714,
          "durationTicks": 94,
          "midi": 58,
          "name": "A#3",
          "ticks": 28320,
          "time": 73.75,
          "velocity": 0.8661417322834646
        },
        {
          "duration": 0.2447916666666714,
          "durationTicks": 94,
          "midi": 46,
          "name": "A#2",
          "ticks": 28320,
          "time": 73.75,
          "velocity": 0.8661417322834646
        },
        {
          "duration": 0.2447916666666714,
          "durationTicks": 94,
          "midi": 53,
          "name": "F3",
          "ticks": 28320,
          "time": 73.75,
          "velocity": 0.8661417322834646
        },
        {
          "duration": 0.2447916666666714,
          "durationTicks": 94,
          "midi": 48,
          "name": "C3",
          "ticks": 28416,
          "time": 74,
          "velocity": 0.8661417322834646
        },
        {
          "duration": 0.2447916666666714,
          "durationTicks": 94,
          "midi": 36,
          "name": "C2",
          "ticks": 28416,
          "time": 74,
          "velocity": 0.8661417322834646
        },
        {
          "duration": 0.2447916666666714,
          "durationTicks": 94,
          "midi": 43,
          "name": "G2",
          "ticks": 28416,
          "time": 74,
          "velocity": 0.8661417322834646
        },
        {
          "duration": 0.2447916666666714,
          "durationTicks": 94,
          "midi": 48,
          "name": "C3",
          "ticks": 28512,
          "time": 74.25,
          "velocity": 0.8661417322834646
        },
        {
          "duration": 0.2447916666666714,
          "durationTicks": 94,
          "midi": 36,
          "name": "C2",
          "ticks": 28512,
          "time": 74.25,
          "velocity": 0.8661417322834646
        },
        {
          "duration": 0.2447916666666714,
          "durationTicks": 94,
          "midi": 43,
          "name": "G2",
          "ticks": 28512,
          "time": 74.25,
          "velocity": 0.8661417322834646
        },
        {
          "duration": 0.1197916666666714,
          "durationTicks": 46,
          "midi": 48,
          "name": "C3",
          "ticks": 28608,
          "time": 74.5,
          "velocity": 0.8661417322834646
        },
        {
          "duration": 0.1197916666666714,
          "durationTicks": 46,
          "midi": 36,
          "name": "C2",
          "ticks": 28608,
          "time": 74.5,
          "velocity": 0.8661417322834646
        },
        {
          "duration": 0.1197916666666714,
          "durationTicks": 46,
          "midi": 43,
          "name": "G2",
          "ticks": 28608,
          "time": 74.5,
          "velocity": 0.8661417322834646
        },
        {
          "duration": 0.1197916666666714,
          "durationTicks": 46,
          "midi": 48,
          "name": "C3",
          "ticks": 28656,
          "time": 74.625,
          "velocity": 0.8661417322834646
        },
        {
          "duration": 0.1197916666666714,
          "durationTicks": 46,
          "midi": 36,
          "name": "C2",
          "ticks": 28656,
          "time": 74.625,
          "velocity": 0.8661417322834646
        },
        {
          "duration": 0.1197916666666714,
          "durationTicks": 46,
          "midi": 43,
          "name": "G2",
          "ticks": 28656,
          "time": 74.625,
          "velocity": 0.8661417322834646
        },
        {
          "duration": 0.1197916666666714,
          "durationTicks": 46,
          "midi": 48,
          "name": "C3",
          "ticks": 28704,
          "time": 74.75,
          "velocity": 0.8661417322834646
        },
        {
          "duration": 0.1197916666666714,
          "durationTicks": 46,
          "midi": 36,
          "name": "C2",
          "ticks": 28704,
          "time": 74.75,
          "velocity": 0.8661417322834646
        },
        {
          "duration": 0.1197916666666714,
          "durationTicks": 46,
          "midi": 43,
          "name": "G2",
          "ticks": 28704,
          "time": 74.75,
          "velocity": 0.8661417322834646
        },
        {
          "duration": 0.2447916666666714,
          "durationTicks": 94,
          "midi": 48,
          "name": "C3",
          "ticks": 28752,
          "time": 74.875,
          "velocity": 0.8661417322834646
        },
        {
          "duration": 0.2447916666666714,
          "durationTicks": 94,
          "midi": 36,
          "name": "C2",
          "ticks": 28752,
          "time": 74.875,
          "velocity": 0.8661417322834646
        },
        {
          "duration": 0.2447916666666714,
          "durationTicks": 94,
          "midi": 43,
          "name": "G2",
          "ticks": 28752,
          "time": 74.875,
          "velocity": 0.8661417322834646
        },
        {
          "duration": 0.2447916666666714,
          "durationTicks": 94,
          "midi": 48,
          "name": "C3",
          "ticks": 28848,
          "time": 75.125,
          "velocity": 0.8661417322834646
        },
        {
          "duration": 0.2447916666666714,
          "durationTicks": 94,
          "midi": 36,
          "name": "C2",
          "ticks": 28848,
          "time": 75.125,
          "velocity": 0.8661417322834646
        },
        {
          "duration": 0.2447916666666714,
          "durationTicks": 94,
          "midi": 43,
          "name": "G2",
          "ticks": 28848,
          "time": 75.125,
          "velocity": 0.8661417322834646
        },
        {
          "duration": 0.1197916666666714,
          "durationTicks": 46,
          "midi": 48,
          "name": "C3",
          "ticks": 28944,
          "time": 75.375,
          "velocity": 0.8661417322834646
        },
        {
          "duration": 0.1197916666666714,
          "durationTicks": 46,
          "midi": 36,
          "name": "C2",
          "ticks": 28944,
          "time": 75.375,
          "velocity": 0.8661417322834646
        },
        {
          "duration": 0.1197916666666714,
          "durationTicks": 46,
          "midi": 43,
          "name": "G2",
          "ticks": 28944,
          "time": 75.375,
          "velocity": 0.8661417322834646
        },
        {
          "duration": 0.1197916666666714,
          "durationTicks": 46,
          "midi": 48,
          "name": "C3",
          "ticks": 28992,
          "time": 75.5,
          "velocity": 0.8661417322834646
        },
        {
          "duration": 0.1197916666666714,
          "durationTicks": 46,
          "midi": 36,
          "name": "C2",
          "ticks": 28992,
          "time": 75.5,
          "velocity": 0.8661417322834646
        },
        {
          "duration": 0.1197916666666714,
          "durationTicks": 46,
          "midi": 43,
          "name": "G2",
          "ticks": 28992,
          "time": 75.5,
          "velocity": 0.8661417322834646
        },
        {
          "duration": 0.1197916666666714,
          "durationTicks": 46,
          "midi": 48,
          "name": "C3",
          "ticks": 29040,
          "time": 75.625,
          "velocity": 0.8661417322834646
        },
        {
          "duration": 0.1197916666666714,
          "durationTicks": 46,
          "midi": 36,
          "name": "C2",
          "ticks": 29040,
          "time": 75.625,
          "velocity": 0.8661417322834646
        },
        {
          "duration": 0.1197916666666714,
          "durationTicks": 46,
          "midi": 43,
          "name": "G2",
          "ticks": 29040,
          "time": 75.625,
          "velocity": 0.8661417322834646
        },
        {
          "duration": 0.25,
          "durationTicks": 96,
          "midi": 60,
          "name": "C4",
          "ticks": 29088,
          "time": 75.75,
          "velocity": 0.6299212598425197
        },
        {
          "duration": 0.2447916666666714,
          "durationTicks": 94,
          "midi": 43,
          "name": "G2",
          "ticks": 29088,
          "time": 75.75,
          "velocity": 0.8661417322834646
        },
        {
          "duration": 0.2447916666666714,
          "durationTicks": 94,
          "midi": 48,
          "name": "C3",
          "ticks": 29088,
          "time": 75.75,
          "velocity": 0.8661417322834646
        },
        {
          "duration": 0.2447916666666714,
          "durationTicks": 94,
          "midi": 36,
          "name": "C2",
          "ticks": 29088,
          "time": 75.75,
          "velocity": 0.8661417322834646
        },
        {
          "duration": 0.2447916666666714,
          "durationTicks": 94,
          "midi": 50,
          "name": "D3",
          "ticks": 29184,
          "time": 76,
          "velocity": 0.8661417322834646
        },
        {
          "duration": 0.2447916666666714,
          "durationTicks": 94,
          "midi": 38,
          "name": "D2",
          "ticks": 29184,
          "time": 76,
          "velocity": 0.8661417322834646
        },
        {
          "duration": 0.2447916666666714,
          "durationTicks": 94,
          "midi": 45,
          "name": "A2",
          "ticks": 29184,
          "time": 76,
          "velocity": 0.8661417322834646
        },
        {
          "duration": 0.2447916666666714,
          "durationTicks": 94,
          "midi": 50,
          "name": "D3",
          "ticks": 29280,
          "time": 76.25,
          "velocity": 0.8661417322834646
        },
        {
          "duration": 0.2447916666666714,
          "durationTicks": 94,
          "midi": 38,
          "name": "D2",
          "ticks": 29280,
          "time": 76.25,
          "velocity": 0.8661417322834646
        },
        {
          "duration": 0.2447916666666714,
          "durationTicks": 94,
          "midi": 45,
          "name": "A2",
          "ticks": 29280,
          "time": 76.25,
          "velocity": 0.8661417322834646
        },
        {
          "duration": 0.1197916666666714,
          "durationTicks": 46,
          "midi": 50,
          "name": "D3",
          "ticks": 29376,
          "time": 76.5,
          "velocity": 0.8661417322834646
        },
        {
          "duration": 0.1197916666666714,
          "durationTicks": 46,
          "midi": 38,
          "name": "D2",
          "ticks": 29376,
          "time": 76.5,
          "velocity": 0.8661417322834646
        },
        {
          "duration": 0.1197916666666714,
          "durationTicks": 46,
          "midi": 45,
          "name": "A2",
          "ticks": 29376,
          "time": 76.5,
          "velocity": 0.8661417322834646
        },
        {
          "duration": 0.1197916666666714,
          "durationTicks": 46,
          "midi": 50,
          "name": "D3",
          "ticks": 29424,
          "time": 76.625,
          "velocity": 0.8661417322834646
        },
        {
          "duration": 0.1197916666666714,
          "durationTicks": 46,
          "midi": 38,
          "name": "D2",
          "ticks": 29424,
          "time": 76.625,
          "velocity": 0.8661417322834646
        },
        {
          "duration": 0.1197916666666714,
          "durationTicks": 46,
          "midi": 45,
          "name": "A2",
          "ticks": 29424,
          "time": 76.625,
          "velocity": 0.8661417322834646
        },
        {
          "duration": 0.1197916666666714,
          "durationTicks": 46,
          "midi": 50,
          "name": "D3",
          "ticks": 29472,
          "time": 76.75,
          "velocity": 0.8661417322834646
        },
        {
          "duration": 0.1197916666666714,
          "durationTicks": 46,
          "midi": 38,
          "name": "D2",
          "ticks": 29472,
          "time": 76.75,
          "velocity": 0.8661417322834646
        },
        {
          "duration": 0.1197916666666714,
          "durationTicks": 46,
          "midi": 45,
          "name": "A2",
          "ticks": 29472,
          "time": 76.75,
          "velocity": 0.8661417322834646
        },
        {
          "duration": 0.2447916666666714,
          "durationTicks": 94,
          "midi": 50,
          "name": "D3",
          "ticks": 29520,
          "time": 76.875,
          "velocity": 0.8661417322834646
        },
        {
          "duration": 0.2447916666666714,
          "durationTicks": 94,
          "midi": 38,
          "name": "D2",
          "ticks": 29520,
          "time": 76.875,
          "velocity": 0.8661417322834646
        },
        {
          "duration": 0.2447916666666714,
          "durationTicks": 94,
          "midi": 45,
          "name": "A2",
          "ticks": 29520,
          "time": 76.875,
          "velocity": 0.8661417322834646
        },
        {
          "duration": 0.2447916666666714,
          "durationTicks": 94,
          "midi": 50,
          "name": "D3",
          "ticks": 29616,
          "time": 77.125,
          "velocity": 0.8661417322834646
        },
        {
          "duration": 0.2447916666666714,
          "durationTicks": 94,
          "midi": 38,
          "name": "D2",
          "ticks": 29616,
          "time": 77.125,
          "velocity": 0.8661417322834646
        },
        {
          "duration": 0.2447916666666714,
          "durationTicks": 94,
          "midi": 45,
          "name": "A2",
          "ticks": 29616,
          "time": 77.125,
          "velocity": 0.8661417322834646
        },
        {
          "duration": 0.1197916666666714,
          "durationTicks": 46,
          "midi": 50,
          "name": "D3",
          "ticks": 29712,
          "time": 77.375,
          "velocity": 0.8661417322834646
        },
        {
          "duration": 0.1197916666666714,
          "durationTicks": 46,
          "midi": 38,
          "name": "D2",
          "ticks": 29712,
          "time": 77.375,
          "velocity": 0.8661417322834646
        },
        {
          "duration": 0.1197916666666714,
          "durationTicks": 46,
          "midi": 45,
          "name": "A2",
          "ticks": 29712,
          "time": 77.375,
          "velocity": 0.8661417322834646
        },
        {
          "duration": 0.1197916666666714,
          "durationTicks": 46,
          "midi": 50,
          "name": "D3",
          "ticks": 29760,
          "time": 77.5,
          "velocity": 0.8661417322834646
        },
        {
          "duration": 0.1197916666666714,
          "durationTicks": 46,
          "midi": 38,
          "name": "D2",
          "ticks": 29760,
          "time": 77.5,
          "velocity": 0.8661417322834646
        },
        {
          "duration": 0.1197916666666714,
          "durationTicks": 46,
          "midi": 45,
          "name": "A2",
          "ticks": 29760,
          "time": 77.5,
          "velocity": 0.8661417322834646
        },
        {
          "duration": 0.1197916666666714,
          "durationTicks": 46,
          "midi": 50,
          "name": "D3",
          "ticks": 29808,
          "time": 77.625,
          "velocity": 0.8661417322834646
        },
        {
          "duration": 0.1197916666666714,
          "durationTicks": 46,
          "midi": 38,
          "name": "D2",
          "ticks": 29808,
          "time": 77.625,
          "velocity": 0.8661417322834646
        },
        {
          "duration": 0.1197916666666714,
          "durationTicks": 46,
          "midi": 45,
          "name": "A2",
          "ticks": 29808,
          "time": 77.625,
          "velocity": 0.8661417322834646
        },
        {
          "duration": 0.25,
          "durationTicks": 96,
          "midi": 62,
          "name": "D4",
          "ticks": 29856,
          "time": 77.75,
          "velocity": 0.6299212598425197
        },
        {
          "duration": 0.2447916666666714,
          "durationTicks": 94,
          "midi": 45,
          "name": "A2",
          "ticks": 29856,
          "time": 77.75,
          "velocity": 0.8661417322834646
        },
        {
          "duration": 0.2447916666666714,
          "durationTicks": 94,
          "midi": 50,
          "name": "D3",
          "ticks": 29856,
          "time": 77.75,
          "velocity": 0.8661417322834646
        },
        {
          "duration": 0.2447916666666714,
          "durationTicks": 94,
          "midi": 38,
          "name": "D2",
          "ticks": 29856,
          "time": 77.75,
          "velocity": 0.8661417322834646
        },
        {
          "duration": 0.2447916666666714,
          "durationTicks": 94,
          "midi": 49,
          "name": "C#3",
          "ticks": 29952,
          "time": 78,
          "velocity": 0.8661417322834646
        },
        {
          "duration": 0.2447916666666714,
          "durationTicks": 94,
          "midi": 37,
          "name": "C#2",
          "ticks": 29952,
          "time": 78,
          "velocity": 0.8661417322834646
        },
        {
          "duration": 0.2447916666666714,
          "durationTicks": 94,
          "midi": 44,
          "name": "G#2",
          "ticks": 29952,
          "time": 78,
          "velocity": 0.8661417322834646
        },
        {
          "duration": 0.2447916666666714,
          "durationTicks": 94,
          "midi": 49,
          "name": "C#3",
          "ticks": 30048,
          "time": 78.25,
          "velocity": 0.8661417322834646
        },
        {
          "duration": 0.2447916666666714,
          "durationTicks": 94,
          "midi": 37,
          "name": "C#2",
          "ticks": 30048,
          "time": 78.25,
          "velocity": 0.8661417322834646
        },
        {
          "duration": 0.2447916666666714,
          "durationTicks": 94,
          "midi": 44,
          "name": "G#2",
          "ticks": 30048,
          "time": 78.25,
          "velocity": 0.8661417322834646
        },
        {
          "duration": 0.1197916666666714,
          "durationTicks": 46,
          "midi": 49,
          "name": "C#3",
          "ticks": 30144,
          "time": 78.5,
          "velocity": 0.8661417322834646
        },
        {
          "duration": 0.1197916666666714,
          "durationTicks": 46,
          "midi": 37,
          "name": "C#2",
          "ticks": 30144,
          "time": 78.5,
          "velocity": 0.8661417322834646
        },
        {
          "duration": 0.1197916666666714,
          "durationTicks": 46,
          "midi": 44,
          "name": "G#2",
          "ticks": 30144,
          "time": 78.5,
          "velocity": 0.8661417322834646
        },
        {
          "duration": 0.1197916666666714,
          "durationTicks": 46,
          "midi": 49,
          "name": "C#3",
          "ticks": 30192,
          "time": 78.625,
          "velocity": 0.8661417322834646
        },
        {
          "duration": 0.1197916666666714,
          "durationTicks": 46,
          "midi": 37,
          "name": "C#2",
          "ticks": 30192,
          "time": 78.625,
          "velocity": 0.8661417322834646
        },
        {
          "duration": 0.1197916666666714,
          "durationTicks": 46,
          "midi": 44,
          "name": "G#2",
          "ticks": 30192,
          "time": 78.625,
          "velocity": 0.8661417322834646
        },
        {
          "duration": 0.1197916666666714,
          "durationTicks": 46,
          "midi": 49,
          "name": "C#3",
          "ticks": 30240,
          "time": 78.75,
          "velocity": 0.8661417322834646
        },
        {
          "duration": 0.1197916666666714,
          "durationTicks": 46,
          "midi": 37,
          "name": "C#2",
          "ticks": 30240,
          "time": 78.75,
          "velocity": 0.8661417322834646
        },
        {
          "duration": 0.1197916666666714,
          "durationTicks": 46,
          "midi": 44,
          "name": "G#2",
          "ticks": 30240,
          "time": 78.75,
          "velocity": 0.8661417322834646
        },
        {
          "duration": 0.2447916666666714,
          "durationTicks": 94,
          "midi": 51,
          "name": "D#3",
          "ticks": 30288,
          "time": 78.875,
          "velocity": 0.8661417322834646
        },
        {
          "duration": 0.2447916666666714,
          "durationTicks": 94,
          "midi": 39,
          "name": "D#2",
          "ticks": 30288,
          "time": 78.875,
          "velocity": 0.8661417322834646
        },
        {
          "duration": 0.2447916666666714,
          "durationTicks": 94,
          "midi": 46,
          "name": "A#2",
          "ticks": 30288,
          "time": 78.875,
          "velocity": 0.8661417322834646
        },
        {
          "duration": 0.2447916666666714,
          "durationTicks": 94,
          "midi": 51,
          "name": "D#3",
          "ticks": 30384,
          "time": 79.125,
          "velocity": 0.8661417322834646
        },
        {
          "duration": 0.2447916666666714,
          "durationTicks": 94,
          "midi": 39,
          "name": "D#2",
          "ticks": 30384,
          "time": 79.125,
          "velocity": 0.8661417322834646
        },
        {
          "duration": 0.2447916666666714,
          "durationTicks": 94,
          "midi": 46,
          "name": "A#2",
          "ticks": 30384,
          "time": 79.125,
          "velocity": 0.8661417322834646
        },
        {
          "duration": 0.1197916666666714,
          "durationTicks": 46,
          "midi": 51,
          "name": "D#3",
          "ticks": 30480,
          "time": 79.375,
          "velocity": 0.8661417322834646
        },
        {
          "duration": 0.1197916666666714,
          "durationTicks": 46,
          "midi": 39,
          "name": "D#2",
          "ticks": 30480,
          "time": 79.375,
          "velocity": 0.8661417322834646
        },
        {
          "duration": 0.1197916666666714,
          "durationTicks": 46,
          "midi": 46,
          "name": "A#2",
          "ticks": 30480,
          "time": 79.375,
          "velocity": 0.8661417322834646
        },
        {
          "duration": 0.1197916666666714,
          "durationTicks": 46,
          "midi": 51,
          "name": "D#3",
          "ticks": 30528,
          "time": 79.5,
          "velocity": 0.8661417322834646
        },
        {
          "duration": 0.1197916666666714,
          "durationTicks": 46,
          "midi": 39,
          "name": "D#2",
          "ticks": 30528,
          "time": 79.5,
          "velocity": 0.8661417322834646
        },
        {
          "duration": 0.1197916666666714,
          "durationTicks": 46,
          "midi": 46,
          "name": "A#2",
          "ticks": 30528,
          "time": 79.5,
          "velocity": 0.8661417322834646
        },
        {
          "duration": 0.1197916666666714,
          "durationTicks": 46,
          "midi": 51,
          "name": "D#3",
          "ticks": 30576,
          "time": 79.625,
          "velocity": 0.8661417322834646
        },
        {
          "duration": 0.1197916666666714,
          "durationTicks": 46,
          "midi": 39,
          "name": "D#2",
          "ticks": 30576,
          "time": 79.625,
          "velocity": 0.8661417322834646
        },
        {
          "duration": 0.1197916666666714,
          "durationTicks": 46,
          "midi": 46,
          "name": "A#2",
          "ticks": 30576,
          "time": 79.625,
          "velocity": 0.8661417322834646
        },
        {
          "duration": 0.25,
          "durationTicks": 96,
          "midi": 63,
          "name": "D#4",
          "ticks": 30624,
          "time": 79.75,
          "velocity": 0.6299212598425197
        },
        {
          "duration": 0.2447916666666714,
          "durationTicks": 94,
          "midi": 46,
          "name": "A#2",
          "ticks": 30624,
          "time": 79.75,
          "velocity": 0.8661417322834646
        },
        {
          "duration": 0.2447916666666714,
          "durationTicks": 94,
          "midi": 51,
          "name": "D#3",
          "ticks": 30624,
          "time": 79.75,
          "velocity": 0.8661417322834646
        },
        {
          "duration": 0.2447916666666714,
          "durationTicks": 94,
          "midi": 39,
          "name": "D#2",
          "ticks": 30624,
          "time": 79.75,
          "velocity": 0.8661417322834646
        },
        {
          "duration": 0.2447916666666714,
          "durationTicks": 94,
          "midi": 46,
          "name": "A#2",
          "ticks": 43008,
          "time": 112,
          "velocity": 0.8661417322834646
        },
        {
          "duration": 0.2447916666666714,
          "durationTicks": 94,
          "midi": 34,
          "name": "A#1",
          "ticks": 43008,
          "time": 112,
          "velocity": 0.8661417322834646
        },
        {
          "duration": 0.2447916666666714,
          "durationTicks": 94,
          "midi": 41,
          "name": "F2",
          "ticks": 43008,
          "time": 112,
          "velocity": 0.8661417322834646
        },
        {
          "duration": 0.2447916666666714,
          "durationTicks": 94,
          "midi": 46,
          "name": "A#2",
          "ticks": 43104,
          "time": 112.25,
          "velocity": 0.8661417322834646
        },
        {
          "duration": 0.2447916666666714,
          "durationTicks": 94,
          "midi": 34,
          "name": "A#1",
          "ticks": 43104,
          "time": 112.25,
          "velocity": 0.8661417322834646
        },
        {
          "duration": 0.2447916666666714,
          "durationTicks": 94,
          "midi": 41,
          "name": "F2",
          "ticks": 43104,
          "time": 112.25,
          "velocity": 0.8661417322834646
        },
        {
          "duration": 0.1197916666666714,
          "durationTicks": 46,
          "midi": 46,
          "name": "A#2",
          "ticks": 43200,
          "time": 112.5,
          "velocity": 0.8661417322834646
        },
        {
          "duration": 0.1197916666666714,
          "durationTicks": 46,
          "midi": 34,
          "name": "A#1",
          "ticks": 43200,
          "time": 112.5,
          "velocity": 0.8661417322834646
        },
        {
          "duration": 0.1197916666666714,
          "durationTicks": 46,
          "midi": 41,
          "name": "F2",
          "ticks": 43200,
          "time": 112.5,
          "velocity": 0.8661417322834646
        },
        {
          "duration": 0.1197916666666714,
          "durationTicks": 46,
          "midi": 46,
          "name": "A#2",
          "ticks": 43248,
          "time": 112.625,
          "velocity": 0.8661417322834646
        },
        {
          "duration": 0.1197916666666714,
          "durationTicks": 46,
          "midi": 34,
          "name": "A#1",
          "ticks": 43248,
          "time": 112.625,
          "velocity": 0.8661417322834646
        },
        {
          "duration": 0.1197916666666714,
          "durationTicks": 46,
          "midi": 41,
          "name": "F2",
          "ticks": 43248,
          "time": 112.625,
          "velocity": 0.8661417322834646
        },
        {
          "duration": 0.1197916666666714,
          "durationTicks": 46,
          "midi": 46,
          "name": "A#2",
          "ticks": 43296,
          "time": 112.75,
          "velocity": 0.8661417322834646
        },
        {
          "duration": 0.1197916666666714,
          "durationTicks": 46,
          "midi": 34,
          "name": "A#1",
          "ticks": 43296,
          "time": 112.75,
          "velocity": 0.8661417322834646
        },
        {
          "duration": 0.1197916666666714,
          "durationTicks": 46,
          "midi": 41,
          "name": "F2",
          "ticks": 43296,
          "time": 112.75,
          "velocity": 0.8661417322834646
        },
        {
          "duration": 0.2447916666666714,
          "durationTicks": 94,
          "midi": 46,
          "name": "A#2",
          "ticks": 43344,
          "time": 112.875,
          "velocity": 0.8661417322834646
        },
        {
          "duration": 0.2447916666666714,
          "durationTicks": 94,
          "midi": 34,
          "name": "A#1",
          "ticks": 43344,
          "time": 112.875,
          "velocity": 0.8661417322834646
        },
        {
          "duration": 0.2447916666666714,
          "durationTicks": 94,
          "midi": 41,
          "name": "F2",
          "ticks": 43344,
          "time": 112.875,
          "velocity": 0.8661417322834646
        },
        {
          "duration": 0.2447916666666714,
          "durationTicks": 94,
          "midi": 46,
          "name": "A#2",
          "ticks": 43440,
          "time": 113.125,
          "velocity": 0.8661417322834646
        },
        {
          "duration": 0.2447916666666714,
          "durationTicks": 94,
          "midi": 34,
          "name": "A#1",
          "ticks": 43440,
          "time": 113.125,
          "velocity": 0.8661417322834646
        },
        {
          "duration": 0.2447916666666714,
          "durationTicks": 94,
          "midi": 41,
          "name": "F2",
          "ticks": 43440,
          "time": 113.125,
          "velocity": 0.8661417322834646
        },
        {
          "duration": 0.1197916666666714,
          "durationTicks": 46,
          "midi": 46,
          "name": "A#2",
          "ticks": 43536,
          "time": 113.375,
          "velocity": 0.8661417322834646
        },
        {
          "duration": 0.1197916666666714,
          "durationTicks": 46,
          "midi": 34,
          "name": "A#1",
          "ticks": 43536,
          "time": 113.375,
          "velocity": 0.8661417322834646
        },
        {
          "duration": 0.1197916666666714,
          "durationTicks": 46,
          "midi": 41,
          "name": "F2",
          "ticks": 43536,
          "time": 113.375,
          "velocity": 0.8661417322834646
        },
        {
          "duration": 0.1197916666666714,
          "durationTicks": 46,
          "midi": 46,
          "name": "A#2",
          "ticks": 43584,
          "time": 113.5,
          "velocity": 0.8661417322834646
        },
        {
          "duration": 0.1197916666666714,
          "durationTicks": 46,
          "midi": 34,
          "name": "A#1",
          "ticks": 43584,
          "time": 113.5,
          "velocity": 0.8661417322834646
        },
        {
          "duration": 0.1197916666666714,
          "durationTicks": 46,
          "midi": 41,
          "name": "F2",
          "ticks": 43584,
          "time": 113.5,
          "velocity": 0.8661417322834646
        },
        {
          "duration": 0.1197916666666714,
          "durationTicks": 46,
          "midi": 46,
          "name": "A#2",
          "ticks": 43632,
          "time": 113.625,
          "velocity": 0.8661417322834646
        },
        {
          "duration": 0.1197916666666714,
          "durationTicks": 46,
          "midi": 34,
          "name": "A#1",
          "ticks": 43632,
          "time": 113.625,
          "velocity": 0.8661417322834646
        },
        {
          "duration": 0.1197916666666714,
          "durationTicks": 46,
          "midi": 41,
          "name": "F2",
          "ticks": 43632,
          "time": 113.625,
          "velocity": 0.8661417322834646
        },
        {
          "duration": 0.2447916666666714,
          "durationTicks": 94,
          "midi": 58,
          "name": "A#3",
          "ticks": 43680,
          "time": 113.75,
          "velocity": 0.8661417322834646
        },
        {
          "duration": 0.2447916666666714,
          "durationTicks": 94,
          "midi": 46,
          "name": "A#2",
          "ticks": 43680,
          "time": 113.75,
          "velocity": 0.8661417322834646
        },
        {
          "duration": 0.2447916666666714,
          "durationTicks": 94,
          "midi": 53,
          "name": "F3",
          "ticks": 43680,
          "time": 113.75,
          "velocity": 0.8661417322834646
        },
        {
          "duration": 0.2447916666666714,
          "durationTicks": 94,
          "midi": 48,
          "name": "C3",
          "ticks": 43776,
          "time": 114,
          "velocity": 0.8661417322834646
        },
        {
          "duration": 0.2447916666666714,
          "durationTicks": 94,
          "midi": 36,
          "name": "C2",
          "ticks": 43776,
          "time": 114,
          "velocity": 0.8661417322834646
        },
        {
          "duration": 0.2447916666666714,
          "durationTicks": 94,
          "midi": 43,
          "name": "G2",
          "ticks": 43776,
          "time": 114,
          "velocity": 0.8661417322834646
        },
        {
          "duration": 0.2447916666666714,
          "durationTicks": 94,
          "midi": 48,
          "name": "C3",
          "ticks": 43872,
          "time": 114.25,
          "velocity": 0.8661417322834646
        },
        {
          "duration": 0.2447916666666714,
          "durationTicks": 94,
          "midi": 36,
          "name": "C2",
          "ticks": 43872,
          "time": 114.25,
          "velocity": 0.8661417322834646
        },
        {
          "duration": 0.2447916666666714,
          "durationTicks": 94,
          "midi": 43,
          "name": "G2",
          "ticks": 43872,
          "time": 114.25,
          "velocity": 0.8661417322834646
        },
        {
          "duration": 0.1197916666666714,
          "durationTicks": 46,
          "midi": 48,
          "name": "C3",
          "ticks": 43968,
          "time": 114.5,
          "velocity": 0.8661417322834646
        },
        {
          "duration": 0.1197916666666714,
          "durationTicks": 46,
          "midi": 36,
          "name": "C2",
          "ticks": 43968,
          "time": 114.5,
          "velocity": 0.8661417322834646
        },
        {
          "duration": 0.1197916666666714,
          "durationTicks": 46,
          "midi": 43,
          "name": "G2",
          "ticks": 43968,
          "time": 114.5,
          "velocity": 0.8661417322834646
        },
        {
          "duration": 0.1197916666666714,
          "durationTicks": 46,
          "midi": 48,
          "name": "C3",
          "ticks": 44016,
          "time": 114.625,
          "velocity": 0.8661417322834646
        },
        {
          "duration": 0.1197916666666714,
          "durationTicks": 46,
          "midi": 36,
          "name": "C2",
          "ticks": 44016,
          "time": 114.625,
          "velocity": 0.8661417322834646
        },
        {
          "duration": 0.1197916666666714,
          "durationTicks": 46,
          "midi": 43,
          "name": "G2",
          "ticks": 44016,
          "time": 114.625,
          "velocity": 0.8661417322834646
        },
        {
          "duration": 0.1197916666666714,
          "durationTicks": 46,
          "midi": 48,
          "name": "C3",
          "ticks": 44064,
          "time": 114.75,
          "velocity": 0.8661417322834646
        },
        {
          "duration": 0.1197916666666714,
          "durationTicks": 46,
          "midi": 36,
          "name": "C2",
          "ticks": 44064,
          "time": 114.75,
          "velocity": 0.8661417322834646
        },
        {
          "duration": 0.1197916666666714,
          "durationTicks": 46,
          "midi": 43,
          "name": "G2",
          "ticks": 44064,
          "time": 114.75,
          "velocity": 0.8661417322834646
        },
        {
          "duration": 0.2447916666666714,
          "durationTicks": 94,
          "midi": 48,
          "name": "C3",
          "ticks": 44112,
          "time": 114.875,
          "velocity": 0.8661417322834646
        },
        {
          "duration": 0.2447916666666714,
          "durationTicks": 94,
          "midi": 36,
          "name": "C2",
          "ticks": 44112,
          "time": 114.875,
          "velocity": 0.8661417322834646
        },
        {
          "duration": 0.2447916666666714,
          "durationTicks": 94,
          "midi": 43,
          "name": "G2",
          "ticks": 44112,
          "time": 114.875,
          "velocity": 0.8661417322834646
        },
        {
          "duration": 0.2447916666666714,
          "durationTicks": 94,
          "midi": 48,
          "name": "C3",
          "ticks": 44208,
          "time": 115.125,
          "velocity": 0.8661417322834646
        },
        {
          "duration": 0.2447916666666714,
          "durationTicks": 94,
          "midi": 36,
          "name": "C2",
          "ticks": 44208,
          "time": 115.125,
          "velocity": 0.8661417322834646
        },
        {
          "duration": 0.2447916666666714,
          "durationTicks": 94,
          "midi": 43,
          "name": "G2",
          "ticks": 44208,
          "time": 115.125,
          "velocity": 0.8661417322834646
        },
        {
          "duration": 0.1197916666666714,
          "durationTicks": 46,
          "midi": 48,
          "name": "C3",
          "ticks": 44304,
          "time": 115.375,
          "velocity": 0.8661417322834646
        },
        {
          "duration": 0.1197916666666714,
          "durationTicks": 46,
          "midi": 36,
          "name": "C2",
          "ticks": 44304,
          "time": 115.375,
          "velocity": 0.8661417322834646
        },
        {
          "duration": 0.1197916666666714,
          "durationTicks": 46,
          "midi": 43,
          "name": "G2",
          "ticks": 44304,
          "time": 115.375,
          "velocity": 0.8661417322834646
        },
        {
          "duration": 0.1197916666666714,
          "durationTicks": 46,
          "midi": 48,
          "name": "C3",
          "ticks": 44352,
          "time": 115.5,
          "velocity": 0.8661417322834646
        },
        {
          "duration": 0.1197916666666714,
          "durationTicks": 46,
          "midi": 36,
          "name": "C2",
          "ticks": 44352,
          "time": 115.5,
          "velocity": 0.8661417322834646
        },
        {
          "duration": 0.1197916666666714,
          "durationTicks": 46,
          "midi": 43,
          "name": "G2",
          "ticks": 44352,
          "time": 115.5,
          "velocity": 0.8661417322834646
        },
        {
          "duration": 0.1197916666666714,
          "durationTicks": 46,
          "midi": 48,
          "name": "C3",
          "ticks": 44400,
          "time": 115.625,
          "velocity": 0.8661417322834646
        },
        {
          "duration": 0.1197916666666714,
          "durationTicks": 46,
          "midi": 36,
          "name": "C2",
          "ticks": 44400,
          "time": 115.625,
          "velocity": 0.8661417322834646
        },
        {
          "duration": 0.1197916666666714,
          "durationTicks": 46,
          "midi": 43,
          "name": "G2",
          "ticks": 44400,
          "time": 115.625,
          "velocity": 0.8661417322834646
        },
        {
          "duration": 0.2447916666666714,
          "durationTicks": 94,
          "midi": 43,
          "name": "G2",
          "ticks": 44448,
          "time": 115.75,
          "velocity": 0.8661417322834646
        },
        {
          "duration": 0.2447916666666714,
          "durationTicks": 94,
          "midi": 48,
          "name": "C3",
          "ticks": 44448,
          "time": 115.75,
          "velocity": 0.8661417322834646
        },
        {
          "duration": 0.2447916666666714,
          "durationTicks": 94,
          "midi": 36,
          "name": "C2",
          "ticks": 44448,
          "time": 115.75,
          "velocity": 0.8661417322834646
        },
        {
          "duration": 0.25,
          "durationTicks": 96,
          "midi": 60,
          "name": "C4",
          "ticks": 44448,
          "time": 115.75,
          "velocity": 0.6299212598425197
        },
        {
          "duration": 0.2447916666666714,
          "durationTicks": 94,
          "midi": 50,
          "name": "D3",
          "ticks": 44544,
          "time": 116,
          "velocity": 0.8661417322834646
        },
        {
          "duration": 0.2447916666666714,
          "durationTicks": 94,
          "midi": 38,
          "name": "D2",
          "ticks": 44544,
          "time": 116,
          "velocity": 0.8661417322834646
        },
        {
          "duration": 0.2447916666666714,
          "durationTicks": 94,
          "midi": 45,
          "name": "A2",
          "ticks": 44544,
          "time": 116,
          "velocity": 0.8661417322834646
        },
        {
          "duration": 0.2447916666666714,
          "durationTicks": 94,
          "midi": 50,
          "name": "D3",
          "ticks": 44640,
          "time": 116.25,
          "velocity": 0.8661417322834646
        },
        {
          "duration": 0.2447916666666714,
          "durationTicks": 94,
          "midi": 38,
          "name": "D2",
          "ticks": 44640,
          "time": 116.25,
          "velocity": 0.8661417322834646
        },
        {
          "duration": 0.2447916666666714,
          "durationTicks": 94,
          "midi": 45,
          "name": "A2",
          "ticks": 44640,
          "time": 116.25,
          "velocity": 0.8661417322834646
        },
        {
          "duration": 0.1197916666666714,
          "durationTicks": 46,
          "midi": 50,
          "name": "D3",
          "ticks": 44736,
          "time": 116.5,
          "velocity": 0.8661417322834646
        },
        {
          "duration": 0.1197916666666714,
          "durationTicks": 46,
          "midi": 38,
          "name": "D2",
          "ticks": 44736,
          "time": 116.5,
          "velocity": 0.8661417322834646
        },
        {
          "duration": 0.1197916666666714,
          "durationTicks": 46,
          "midi": 45,
          "name": "A2",
          "ticks": 44736,
          "time": 116.5,
          "velocity": 0.8661417322834646
        },
        {
          "duration": 0.1197916666666714,
          "durationTicks": 46,
          "midi": 50,
          "name": "D3",
          "ticks": 44784,
          "time": 116.625,
          "velocity": 0.8661417322834646
        },
        {
          "duration": 0.1197916666666714,
          "durationTicks": 46,
          "midi": 38,
          "name": "D2",
          "ticks": 44784,
          "time": 116.625,
          "velocity": 0.8661417322834646
        },
        {
          "duration": 0.1197916666666714,
          "durationTicks": 46,
          "midi": 45,
          "name": "A2",
          "ticks": 44784,
          "time": 116.625,
          "velocity": 0.8661417322834646
        },
        {
          "duration": 0.1197916666666714,
          "durationTicks": 46,
          "midi": 50,
          "name": "D3",
          "ticks": 44832,
          "time": 116.75,
          "velocity": 0.8661417322834646
        },
        {
          "duration": 0.1197916666666714,
          "durationTicks": 46,
          "midi": 38,
          "name": "D2",
          "ticks": 44832,
          "time": 116.75,
          "velocity": 0.8661417322834646
        },
        {
          "duration": 0.1197916666666714,
          "durationTicks": 46,
          "midi": 45,
          "name": "A2",
          "ticks": 44832,
          "time": 116.75,
          "velocity": 0.8661417322834646
        },
        {
          "duration": 0.2447916666666714,
          "durationTicks": 94,
          "midi": 49,
          "name": "C#3",
          "ticks": 44880,
          "time": 116.875,
          "velocity": 0.8661417322834646
        },
        {
          "duration": 0.2447916666666714,
          "durationTicks": 94,
          "midi": 37,
          "name": "C#2",
          "ticks": 44880,
          "time": 116.875,
          "velocity": 0.8661417322834646
        },
        {
          "duration": 0.2447916666666714,
          "durationTicks": 94,
          "midi": 44,
          "name": "G#2",
          "ticks": 44880,
          "time": 116.875,
          "velocity": 0.8661417322834646
        },
        {
          "duration": 0.2447916666666714,
          "durationTicks": 94,
          "midi": 49,
          "name": "C#3",
          "ticks": 44976,
          "time": 117.125,
          "velocity": 0.8661417322834646
        },
        {
          "duration": 0.2447916666666714,
          "durationTicks": 94,
          "midi": 37,
          "name": "C#2",
          "ticks": 44976,
          "time": 117.125,
          "velocity": 0.8661417322834646
        },
        {
          "duration": 0.2447916666666714,
          "durationTicks": 94,
          "midi": 44,
          "name": "G#2",
          "ticks": 44976,
          "time": 117.125,
          "velocity": 0.8661417322834646
        },
        {
          "duration": 0.1197916666666714,
          "durationTicks": 46,
          "midi": 49,
          "name": "C#3",
          "ticks": 45072,
          "time": 117.375,
          "velocity": 0.8661417322834646
        },
        {
          "duration": 0.1197916666666714,
          "durationTicks": 46,
          "midi": 37,
          "name": "C#2",
          "ticks": 45072,
          "time": 117.375,
          "velocity": 0.8661417322834646
        },
        {
          "duration": 0.1197916666666714,
          "durationTicks": 46,
          "midi": 44,
          "name": "G#2",
          "ticks": 45072,
          "time": 117.375,
          "velocity": 0.8661417322834646
        },
        {
          "duration": 0.1197916666666714,
          "durationTicks": 46,
          "midi": 49,
          "name": "C#3",
          "ticks": 45120,
          "time": 117.5,
          "velocity": 0.8661417322834646
        },
        {
          "duration": 0.1197916666666714,
          "durationTicks": 46,
          "midi": 37,
          "name": "C#2",
          "ticks": 45120,
          "time": 117.5,
          "velocity": 0.8661417322834646
        },
        {
          "duration": 0.1197916666666714,
          "durationTicks": 46,
          "midi": 44,
          "name": "G#2",
          "ticks": 45120,
          "time": 117.5,
          "velocity": 0.8661417322834646
        },
        {
          "duration": 0.1197916666666714,
          "durationTicks": 46,
          "midi": 49,
          "name": "C#3",
          "ticks": 45168,
          "time": 117.625,
          "velocity": 0.8661417322834646
        },
        {
          "duration": 0.1197916666666714,
          "durationTicks": 46,
          "midi": 37,
          "name": "C#2",
          "ticks": 45168,
          "time": 117.625,
          "velocity": 0.8661417322834646
        },
        {
          "duration": 0.1197916666666714,
          "durationTicks": 46,
          "midi": 44,
          "name": "G#2",
          "ticks": 45168,
          "time": 117.625,
          "velocity": 0.8661417322834646
        },
        {
          "duration": 0.2447916666666714,
          "durationTicks": 94,
          "midi": 49,
          "name": "C#3",
          "ticks": 45216,
          "time": 117.75,
          "velocity": 0.8661417322834646
        },
        {
          "duration": 0.2447916666666714,
          "durationTicks": 94,
          "midi": 37,
          "name": "C#2",
          "ticks": 45216,
          "time": 117.75,
          "velocity": 0.8661417322834646
        },
        {
          "duration": 0.2447916666666714,
          "durationTicks": 94,
          "midi": 44,
          "name": "G#2",
          "ticks": 45216,
          "time": 117.75,
          "velocity": 0.8661417322834646
        },
        {
          "duration": 0.2447916666666714,
          "durationTicks": 94,
          "midi": 48,
          "name": "C3",
          "ticks": 45312,
          "time": 118,
          "velocity": 0.8661417322834646
        },
        {
          "duration": 0.2447916666666714,
          "durationTicks": 94,
          "midi": 36,
          "name": "C2",
          "ticks": 45312,
          "time": 118,
          "velocity": 0.8661417322834646
        },
        {
          "duration": 0.2447916666666714,
          "durationTicks": 94,
          "midi": 43,
          "name": "G2",
          "ticks": 45312,
          "time": 118,
          "velocity": 0.8661417322834646
        },
        {
          "duration": 0.2447916666666714,
          "durationTicks": 94,
          "midi": 48,
          "name": "C3",
          "ticks": 45408,
          "time": 118.25,
          "velocity": 0.8661417322834646
        },
        {
          "duration": 0.2447916666666714,
          "durationTicks": 94,
          "midi": 36,
          "name": "C2",
          "ticks": 45408,
          "time": 118.25,
          "velocity": 0.8661417322834646
        },
        {
          "duration": 0.2447916666666714,
          "durationTicks": 94,
          "midi": 43,
          "name": "G2",
          "ticks": 45408,
          "time": 118.25,
          "velocity": 0.8661417322834646
        },
        {
          "duration": 0.1197916666666714,
          "durationTicks": 46,
          "midi": 48,
          "name": "C3",
          "ticks": 45504,
          "time": 118.5,
          "velocity": 0.8661417322834646
        },
        {
          "duration": 0.1197916666666714,
          "durationTicks": 46,
          "midi": 36,
          "name": "C2",
          "ticks": 45504,
          "time": 118.5,
          "velocity": 0.8661417322834646
        },
        {
          "duration": 0.1197916666666714,
          "durationTicks": 46,
          "midi": 43,
          "name": "G2",
          "ticks": 45504,
          "time": 118.5,
          "velocity": 0.8661417322834646
        },
        {
          "duration": 0.1197916666666714,
          "durationTicks": 46,
          "midi": 48,
          "name": "C3",
          "ticks": 45552,
          "time": 118.625,
          "velocity": 0.8661417322834646
        },
        {
          "duration": 0.1197916666666714,
          "durationTicks": 46,
          "midi": 36,
          "name": "C2",
          "ticks": 45552,
          "time": 118.625,
          "velocity": 0.8661417322834646
        },
        {
          "duration": 0.1197916666666714,
          "durationTicks": 46,
          "midi": 43,
          "name": "G2",
          "ticks": 45552,
          "time": 118.625,
          "velocity": 0.8661417322834646
        },
        {
          "duration": 0.1197916666666714,
          "durationTicks": 46,
          "midi": 48,
          "name": "C3",
          "ticks": 45600,
          "time": 118.75,
          "velocity": 0.8661417322834646
        },
        {
          "duration": 0.1197916666666714,
          "durationTicks": 46,
          "midi": 36,
          "name": "C2",
          "ticks": 45600,
          "time": 118.75,
          "velocity": 0.8661417322834646
        },
        {
          "duration": 0.1197916666666714,
          "durationTicks": 46,
          "midi": 43,
          "name": "G2",
          "ticks": 45600,
          "time": 118.75,
          "velocity": 0.8661417322834646
        },
        {
          "duration": 0.2447916666666714,
          "durationTicks": 94,
          "midi": 47,
          "name": "B2",
          "ticks": 45648,
          "time": 118.875,
          "velocity": 0.8661417322834646
        },
        {
          "duration": 0.2447916666666714,
          "durationTicks": 94,
          "midi": 35,
          "name": "B1",
          "ticks": 45648,
          "time": 118.875,
          "velocity": 0.8661417322834646
        },
        {
          "duration": 0.2447916666666714,
          "durationTicks": 94,
          "midi": 42,
          "name": "F#2",
          "ticks": 45648,
          "time": 118.875,
          "velocity": 0.8661417322834646
        },
        {
          "duration": 0.2447916666666714,
          "durationTicks": 94,
          "midi": 47,
          "name": "B2",
          "ticks": 45744,
          "time": 119.125,
          "velocity": 0.8661417322834646
        },
        {
          "duration": 0.2447916666666714,
          "durationTicks": 94,
          "midi": 35,
          "name": "B1",
          "ticks": 45744,
          "time": 119.125,
          "velocity": 0.8661417322834646
        },
        {
          "duration": 0.2447916666666714,
          "durationTicks": 94,
          "midi": 42,
          "name": "F#2",
          "ticks": 45744,
          "time": 119.125,
          "velocity": 0.8661417322834646
        },
        {
          "duration": 0.1197916666666714,
          "durationTicks": 46,
          "midi": 47,
          "name": "B2",
          "ticks": 45840,
          "time": 119.375,
          "velocity": 0.8661417322834646
        },
        {
          "duration": 0.1197916666666714,
          "durationTicks": 46,
          "midi": 35,
          "name": "B1",
          "ticks": 45840,
          "time": 119.375,
          "velocity": 0.8661417322834646
        },
        {
          "duration": 0.1197916666666714,
          "durationTicks": 46,
          "midi": 42,
          "name": "F#2",
          "ticks": 45840,
          "time": 119.375,
          "velocity": 0.8661417322834646
        },
        {
          "duration": 0.1197916666666714,
          "durationTicks": 46,
          "midi": 47,
          "name": "B2",
          "ticks": 45888,
          "time": 119.5,
          "velocity": 0.8661417322834646
        },
        {
          "duration": 0.1197916666666714,
          "durationTicks": 46,
          "midi": 35,
          "name": "B1",
          "ticks": 45888,
          "time": 119.5,
          "velocity": 0.8661417322834646
        },
        {
          "duration": 0.1197916666666714,
          "durationTicks": 46,
          "midi": 42,
          "name": "F#2",
          "ticks": 45888,
          "time": 119.5,
          "velocity": 0.8661417322834646
        },
        {
          "duration": 0.1197916666666714,
          "durationTicks": 46,
          "midi": 47,
          "name": "B2",
          "ticks": 45936,
          "time": 119.625,
          "velocity": 0.8661417322834646
        },
        {
          "duration": 0.1197916666666714,
          "durationTicks": 46,
          "midi": 35,
          "name": "B1",
          "ticks": 45936,
          "time": 119.625,
          "velocity": 0.8661417322834646
        },
        {
          "duration": 0.1197916666666714,
          "durationTicks": 46,
          "midi": 42,
          "name": "F#2",
          "ticks": 45936,
          "time": 119.625,
          "velocity": 0.8661417322834646
        },
        {
          "duration": 0.2447916666666714,
          "durationTicks": 94,
          "midi": 47,
          "name": "B2",
          "ticks": 45984,
          "time": 119.75,
          "velocity": 0.8661417322834646
        },
        {
          "duration": 0.2447916666666714,
          "durationTicks": 94,
          "midi": 35,
          "name": "B1",
          "ticks": 45984,
          "time": 119.75,
          "velocity": 0.8661417322834646
        },
        {
          "duration": 0.2447916666666714,
          "durationTicks": 94,
          "midi": 42,
          "name": "F#2",
          "ticks": 45984,
          "time": 119.75,
          "velocity": 0.8661417322834646
        },
        {
          "duration": 0.2447916666666714,
          "durationTicks": 94,
          "midi": 46,
          "name": "A#2",
          "ticks": 46080,
          "time": 120,
          "velocity": 0.8661417322834646
        },
        {
          "duration": 0.2447916666666714,
          "durationTicks": 94,
          "midi": 34,
          "name": "A#1",
          "ticks": 46080,
          "time": 120,
          "velocity": 0.8661417322834646
        },
        {
          "duration": 0.2447916666666714,
          "durationTicks": 94,
          "midi": 41,
          "name": "F2",
          "ticks": 46080,
          "time": 120,
          "velocity": 0.8661417322834646
        },
        {
          "duration": 0.2447916666666714,
          "durationTicks": 94,
          "midi": 46,
          "name": "A#2",
          "ticks": 46176,
          "time": 120.25,
          "velocity": 0.8661417322834646
        },
        {
          "duration": 0.2447916666666714,
          "durationTicks": 94,
          "midi": 34,
          "name": "A#1",
          "ticks": 46176,
          "time": 120.25,
          "velocity": 0.8661417322834646
        },
        {
          "duration": 0.2447916666666714,
          "durationTicks": 94,
          "midi": 41,
          "name": "F2",
          "ticks": 46176,
          "time": 120.25,
          "velocity": 0.8661417322834646
        },
        {
          "duration": 0.1197916666666714,
          "durationTicks": 46,
          "midi": 46,
          "name": "A#2",
          "ticks": 46272,
          "time": 120.5,
          "velocity": 0.8661417322834646
        },
        {
          "duration": 0.1197916666666714,
          "durationTicks": 46,
          "midi": 34,
          "name": "A#1",
          "ticks": 46272,
          "time": 120.5,
          "velocity": 0.8661417322834646
        },
        {
          "duration": 0.1197916666666714,
          "durationTicks": 46,
          "midi": 41,
          "name": "F2",
          "ticks": 46272,
          "time": 120.5,
          "velocity": 0.8661417322834646
        },
        {
          "duration": 0.1197916666666714,
          "durationTicks": 46,
          "midi": 46,
          "name": "A#2",
          "ticks": 46320,
          "time": 120.625,
          "velocity": 0.8661417322834646
        },
        {
          "duration": 0.1197916666666714,
          "durationTicks": 46,
          "midi": 34,
          "name": "A#1",
          "ticks": 46320,
          "time": 120.625,
          "velocity": 0.8661417322834646
        },
        {
          "duration": 0.1197916666666714,
          "durationTicks": 46,
          "midi": 41,
          "name": "F2",
          "ticks": 46320,
          "time": 120.625,
          "velocity": 0.8661417322834646
        },
        {
          "duration": 0.1197916666666714,
          "durationTicks": 46,
          "midi": 46,
          "name": "A#2",
          "ticks": 46368,
          "time": 120.75,
          "velocity": 0.8661417322834646
        },
        {
          "duration": 0.1197916666666714,
          "durationTicks": 46,
          "midi": 34,
          "name": "A#1",
          "ticks": 46368,
          "time": 120.75,
          "velocity": 0.8661417322834646
        },
        {
          "duration": 0.1197916666666714,
          "durationTicks": 46,
          "midi": 41,
          "name": "F2",
          "ticks": 46368,
          "time": 120.75,
          "velocity": 0.8661417322834646
        },
        {
          "duration": 0.2447916666666714,
          "durationTicks": 94,
          "midi": 46,
          "name": "A#2",
          "ticks": 46416,
          "time": 120.875,
          "velocity": 0.8661417322834646
        },
        {
          "duration": 0.2447916666666714,
          "durationTicks": 94,
          "midi": 34,
          "name": "A#1",
          "ticks": 46416,
          "time": 120.875,
          "velocity": 0.8661417322834646
        },
        {
          "duration": 0.2447916666666714,
          "durationTicks": 94,
          "midi": 41,
          "name": "F2",
          "ticks": 46416,
          "time": 120.875,
          "velocity": 0.8661417322834646
        },
        {
          "duration": 0.2447916666666714,
          "durationTicks": 94,
          "midi": 46,
          "name": "A#2",
          "ticks": 46512,
          "time": 121.125,
          "velocity": 0.8661417322834646
        },
        {
          "duration": 0.2447916666666714,
          "durationTicks": 94,
          "midi": 34,
          "name": "A#1",
          "ticks": 46512,
          "time": 121.125,
          "velocity": 0.8661417322834646
        },
        {
          "duration": 0.2447916666666714,
          "durationTicks": 94,
          "midi": 41,
          "name": "F2",
          "ticks": 46512,
          "time": 121.125,
          "velocity": 0.8661417322834646
        },
        {
          "duration": 0.1197916666666714,
          "durationTicks": 46,
          "midi": 46,
          "name": "A#2",
          "ticks": 46608,
          "time": 121.375,
          "velocity": 0.8661417322834646
        },
        {
          "duration": 0.1197916666666714,
          "durationTicks": 46,
          "midi": 34,
          "name": "A#1",
          "ticks": 46608,
          "time": 121.375,
          "velocity": 0.8661417322834646
        },
        {
          "duration": 0.1197916666666714,
          "durationTicks": 46,
          "midi": 41,
          "name": "F2",
          "ticks": 46608,
          "time": 121.375,
          "velocity": 0.8661417322834646
        },
        {
          "duration": 0.1197916666666714,
          "durationTicks": 46,
          "midi": 46,
          "name": "A#2",
          "ticks": 46656,
          "time": 121.5,
          "velocity": 0.8661417322834646
        },
        {
          "duration": 0.1197916666666714,
          "durationTicks": 46,
          "midi": 34,
          "name": "A#1",
          "ticks": 46656,
          "time": 121.5,
          "velocity": 0.8661417322834646
        },
        {
          "duration": 0.1197916666666714,
          "durationTicks": 46,
          "midi": 41,
          "name": "F2",
          "ticks": 46656,
          "time": 121.5,
          "velocity": 0.8661417322834646
        },
        {
          "duration": 0.1197916666666714,
          "durationTicks": 46,
          "midi": 46,
          "name": "A#2",
          "ticks": 46704,
          "time": 121.625,
          "velocity": 0.8661417322834646
        },
        {
          "duration": 0.1197916666666714,
          "durationTicks": 46,
          "midi": 34,
          "name": "A#1",
          "ticks": 46704,
          "time": 121.625,
          "velocity": 0.8661417322834646
        },
        {
          "duration": 0.1197916666666714,
          "durationTicks": 46,
          "midi": 41,
          "name": "F2",
          "ticks": 46704,
          "time": 121.625,
          "velocity": 0.8661417322834646
        },
        {
          "duration": 0.2447916666666714,
          "durationTicks": 94,
          "midi": 58,
          "name": "A#3",
          "ticks": 46752,
          "time": 121.75,
          "velocity": 0.8661417322834646
        },
        {
          "duration": 0.2447916666666714,
          "durationTicks": 94,
          "midi": 46,
          "name": "A#2",
          "ticks": 46752,
          "time": 121.75,
          "velocity": 0.8661417322834646
        },
        {
          "duration": 0.2447916666666714,
          "durationTicks": 94,
          "midi": 53,
          "name": "F3",
          "ticks": 46752,
          "time": 121.75,
          "velocity": 0.8661417322834646
        },
        {
          "duration": 0.2447916666666714,
          "durationTicks": 94,
          "midi": 48,
          "name": "C3",
          "ticks": 46848,
          "time": 122,
          "velocity": 0.8661417322834646
        },
        {
          "duration": 0.2447916666666714,
          "durationTicks": 94,
          "midi": 36,
          "name": "C2",
          "ticks": 46848,
          "time": 122,
          "velocity": 0.8661417322834646
        },
        {
          "duration": 0.2447916666666714,
          "durationTicks": 94,
          "midi": 43,
          "name": "G2",
          "ticks": 46848,
          "time": 122,
          "velocity": 0.8661417322834646
        },
        {
          "duration": 0.2447916666666714,
          "durationTicks": 94,
          "midi": 48,
          "name": "C3",
          "ticks": 46944,
          "time": 122.25,
          "velocity": 0.8661417322834646
        },
        {
          "duration": 0.2447916666666714,
          "durationTicks": 94,
          "midi": 36,
          "name": "C2",
          "ticks": 46944,
          "time": 122.25,
          "velocity": 0.8661417322834646
        },
        {
          "duration": 0.2447916666666714,
          "durationTicks": 94,
          "midi": 43,
          "name": "G2",
          "ticks": 46944,
          "time": 122.25,
          "velocity": 0.8661417322834646
        },
        {
          "duration": 0.1197916666666714,
          "durationTicks": 46,
          "midi": 48,
          "name": "C3",
          "ticks": 47040,
          "time": 122.5,
          "velocity": 0.8661417322834646
        },
        {
          "duration": 0.1197916666666714,
          "durationTicks": 46,
          "midi": 36,
          "name": "C2",
          "ticks": 47040,
          "time": 122.5,
          "velocity": 0.8661417322834646
        },
        {
          "duration": 0.1197916666666714,
          "durationTicks": 46,
          "midi": 43,
          "name": "G2",
          "ticks": 47040,
          "time": 122.5,
          "velocity": 0.8661417322834646
        },
        {
          "duration": 0.1197916666666714,
          "durationTicks": 46,
          "midi": 48,
          "name": "C3",
          "ticks": 47088,
          "time": 122.625,
          "velocity": 0.8661417322834646
        },
        {
          "duration": 0.1197916666666714,
          "durationTicks": 46,
          "midi": 36,
          "name": "C2",
          "ticks": 47088,
          "time": 122.625,
          "velocity": 0.8661417322834646
        },
        {
          "duration": 0.1197916666666714,
          "durationTicks": 46,
          "midi": 43,
          "name": "G2",
          "ticks": 47088,
          "time": 122.625,
          "velocity": 0.8661417322834646
        },
        {
          "duration": 0.1197916666666714,
          "durationTicks": 46,
          "midi": 48,
          "name": "C3",
          "ticks": 47136,
          "time": 122.75,
          "velocity": 0.8661417322834646
        },
        {
          "duration": 0.1197916666666714,
          "durationTicks": 46,
          "midi": 36,
          "name": "C2",
          "ticks": 47136,
          "time": 122.75,
          "velocity": 0.8661417322834646
        },
        {
          "duration": 0.1197916666666714,
          "durationTicks": 46,
          "midi": 43,
          "name": "G2",
          "ticks": 47136,
          "time": 122.75,
          "velocity": 0.8661417322834646
        },
        {
          "duration": 0.2447916666666714,
          "durationTicks": 94,
          "midi": 48,
          "name": "C3",
          "ticks": 47184,
          "time": 122.875,
          "velocity": 0.8661417322834646
        },
        {
          "duration": 0.2447916666666714,
          "durationTicks": 94,
          "midi": 36,
          "name": "C2",
          "ticks": 47184,
          "time": 122.875,
          "velocity": 0.8661417322834646
        },
        {
          "duration": 0.2447916666666714,
          "durationTicks": 94,
          "midi": 43,
          "name": "G2",
          "ticks": 47184,
          "time": 122.875,
          "velocity": 0.8661417322834646
        },
        {
          "duration": 0.2447916666666714,
          "durationTicks": 94,
          "midi": 48,
          "name": "C3",
          "ticks": 47280,
          "time": 123.125,
          "velocity": 0.8661417322834646
        },
        {
          "duration": 0.2447916666666714,
          "durationTicks": 94,
          "midi": 36,
          "name": "C2",
          "ticks": 47280,
          "time": 123.125,
          "velocity": 0.8661417322834646
        },
        {
          "duration": 0.2447916666666714,
          "durationTicks": 94,
          "midi": 43,
          "name": "G2",
          "ticks": 47280,
          "time": 123.125,
          "velocity": 0.8661417322834646
        },
        {
          "duration": 0.1197916666666714,
          "durationTicks": 46,
          "midi": 48,
          "name": "C3",
          "ticks": 47376,
          "time": 123.375,
          "velocity": 0.8661417322834646
        },
        {
          "duration": 0.1197916666666714,
          "durationTicks": 46,
          "midi": 36,
          "name": "C2",
          "ticks": 47376,
          "time": 123.375,
          "velocity": 0.8661417322834646
        },
        {
          "duration": 0.1197916666666714,
          "durationTicks": 46,
          "midi": 43,
          "name": "G2",
          "ticks": 47376,
          "time": 123.375,
          "velocity": 0.8661417322834646
        },
        {
          "duration": 0.1197916666666714,
          "durationTicks": 46,
          "midi": 48,
          "name": "C3",
          "ticks": 47424,
          "time": 123.5,
          "velocity": 0.8661417322834646
        },
        {
          "duration": 0.1197916666666714,
          "durationTicks": 46,
          "midi": 36,
          "name": "C2",
          "ticks": 47424,
          "time": 123.5,
          "velocity": 0.8661417322834646
        },
        {
          "duration": 0.1197916666666714,
          "durationTicks": 46,
          "midi": 43,
          "name": "G2",
          "ticks": 47424,
          "time": 123.5,
          "velocity": 0.8661417322834646
        },
        {
          "duration": 0.1197916666666714,
          "durationTicks": 46,
          "midi": 48,
          "name": "C3",
          "ticks": 47472,
          "time": 123.625,
          "velocity": 0.8661417322834646
        },
        {
          "duration": 0.1197916666666714,
          "durationTicks": 46,
          "midi": 36,
          "name": "C2",
          "ticks": 47472,
          "time": 123.625,
          "velocity": 0.8661417322834646
        },
        {
          "duration": 0.1197916666666714,
          "durationTicks": 46,
          "midi": 43,
          "name": "G2",
          "ticks": 47472,
          "time": 123.625,
          "velocity": 0.8661417322834646
        },
        {
          "duration": 0.25,
          "durationTicks": 96,
          "midi": 60,
          "name": "C4",
          "ticks": 47520,
          "time": 123.75,
          "velocity": 0.6299212598425197
        },
        {
          "duration": 0.2447916666666714,
          "durationTicks": 94,
          "midi": 48,
          "name": "C3",
          "ticks": 47520,
          "time": 123.75,
          "velocity": 0.8661417322834646
        },
        {
          "duration": 0.2447916666666714,
          "durationTicks": 94,
          "midi": 36,
          "name": "C2",
          "ticks": 47520,
          "time": 123.75,
          "velocity": 0.8661417322834646
        },
        {
          "duration": 0.2447916666666714,
          "durationTicks": 94,
          "midi": 43,
          "name": "G2",
          "ticks": 47520,
          "time": 123.75,
          "velocity": 0.8661417322834646
        },
        {
          "duration": 0.2447916666666714,
          "durationTicks": 94,
          "midi": 50,
          "name": "D3",
          "ticks": 47616,
          "time": 124,
          "velocity": 0.8661417322834646
        },
        {
          "duration": 0.2447916666666714,
          "durationTicks": 94,
          "midi": 38,
          "name": "D2",
          "ticks": 47616,
          "time": 124,
          "velocity": 0.8661417322834646
        },
        {
          "duration": 0.2447916666666714,
          "durationTicks": 94,
          "midi": 45,
          "name": "A2",
          "ticks": 47616,
          "time": 124,
          "velocity": 0.8661417322834646
        },
        {
          "duration": 0.2447916666666714,
          "durationTicks": 94,
          "midi": 50,
          "name": "D3",
          "ticks": 47712,
          "time": 124.25,
          "velocity": 0.8661417322834646
        },
        {
          "duration": 0.2447916666666714,
          "durationTicks": 94,
          "midi": 38,
          "name": "D2",
          "ticks": 47712,
          "time": 124.25,
          "velocity": 0.8661417322834646
        },
        {
          "duration": 0.2447916666666714,
          "durationTicks": 94,
          "midi": 45,
          "name": "A2",
          "ticks": 47712,
          "time": 124.25,
          "velocity": 0.8661417322834646
        },
        {
          "duration": 0.1197916666666714,
          "durationTicks": 46,
          "midi": 50,
          "name": "D3",
          "ticks": 47808,
          "time": 124.5,
          "velocity": 0.8661417322834646
        },
        {
          "duration": 0.1197916666666714,
          "durationTicks": 46,
          "midi": 38,
          "name": "D2",
          "ticks": 47808,
          "time": 124.5,
          "velocity": 0.8661417322834646
        },
        {
          "duration": 0.1197916666666714,
          "durationTicks": 46,
          "midi": 45,
          "name": "A2",
          "ticks": 47808,
          "time": 124.5,
          "velocity": 0.8661417322834646
        },
        {
          "duration": 0.1197916666666714,
          "durationTicks": 46,
          "midi": 50,
          "name": "D3",
          "ticks": 47856,
          "time": 124.625,
          "velocity": 0.8661417322834646
        },
        {
          "duration": 0.1197916666666714,
          "durationTicks": 46,
          "midi": 38,
          "name": "D2",
          "ticks": 47856,
          "time": 124.625,
          "velocity": 0.8661417322834646
        },
        {
          "duration": 0.1197916666666714,
          "durationTicks": 46,
          "midi": 45,
          "name": "A2",
          "ticks": 47856,
          "time": 124.625,
          "velocity": 0.8661417322834646
        },
        {
          "duration": 0.1197916666666714,
          "durationTicks": 46,
          "midi": 50,
          "name": "D3",
          "ticks": 47904,
          "time": 124.75,
          "velocity": 0.8661417322834646
        },
        {
          "duration": 0.1197916666666714,
          "durationTicks": 46,
          "midi": 38,
          "name": "D2",
          "ticks": 47904,
          "time": 124.75,
          "velocity": 0.8661417322834646
        },
        {
          "duration": 0.1197916666666714,
          "durationTicks": 46,
          "midi": 45,
          "name": "A2",
          "ticks": 47904,
          "time": 124.75,
          "velocity": 0.8661417322834646
        },
        {
          "duration": 0.2447916666666714,
          "durationTicks": 94,
          "midi": 50,
          "name": "D3",
          "ticks": 47952,
          "time": 124.875,
          "velocity": 0.8661417322834646
        },
        {
          "duration": 0.2447916666666714,
          "durationTicks": 94,
          "midi": 38,
          "name": "D2",
          "ticks": 47952,
          "time": 124.875,
          "velocity": 0.8661417322834646
        },
        {
          "duration": 0.2447916666666714,
          "durationTicks": 94,
          "midi": 45,
          "name": "A2",
          "ticks": 47952,
          "time": 124.875,
          "velocity": 0.8661417322834646
        },
        {
          "duration": 0.2447916666666714,
          "durationTicks": 94,
          "midi": 50,
          "name": "D3",
          "ticks": 48048,
          "time": 125.125,
          "velocity": 0.8661417322834646
        },
        {
          "duration": 0.2447916666666714,
          "durationTicks": 94,
          "midi": 38,
          "name": "D2",
          "ticks": 48048,
          "time": 125.125,
          "velocity": 0.8661417322834646
        },
        {
          "duration": 0.2447916666666714,
          "durationTicks": 94,
          "midi": 45,
          "name": "A2",
          "ticks": 48048,
          "time": 125.125,
          "velocity": 0.8661417322834646
        },
        {
          "duration": 0.1197916666666714,
          "durationTicks": 46,
          "midi": 50,
          "name": "D3",
          "ticks": 48144,
          "time": 125.375,
          "velocity": 0.8661417322834646
        },
        {
          "duration": 0.1197916666666714,
          "durationTicks": 46,
          "midi": 38,
          "name": "D2",
          "ticks": 48144,
          "time": 125.375,
          "velocity": 0.8661417322834646
        },
        {
          "duration": 0.1197916666666714,
          "durationTicks": 46,
          "midi": 45,
          "name": "A2",
          "ticks": 48144,
          "time": 125.375,
          "velocity": 0.8661417322834646
        },
        {
          "duration": 0.1197916666666714,
          "durationTicks": 46,
          "midi": 50,
          "name": "D3",
          "ticks": 48192,
          "time": 125.5,
          "velocity": 0.8661417322834646
        },
        {
          "duration": 0.1197916666666714,
          "durationTicks": 46,
          "midi": 38,
          "name": "D2",
          "ticks": 48192,
          "time": 125.5,
          "velocity": 0.8661417322834646
        },
        {
          "duration": 0.1197916666666714,
          "durationTicks": 46,
          "midi": 45,
          "name": "A2",
          "ticks": 48192,
          "time": 125.5,
          "velocity": 0.8661417322834646
        },
        {
          "duration": 0.1197916666666714,
          "durationTicks": 46,
          "midi": 50,
          "name": "D3",
          "ticks": 48240,
          "time": 125.625,
          "velocity": 0.8661417322834646
        },
        {
          "duration": 0.1197916666666714,
          "durationTicks": 46,
          "midi": 38,
          "name": "D2",
          "ticks": 48240,
          "time": 125.625,
          "velocity": 0.8661417322834646
        },
        {
          "duration": 0.1197916666666714,
          "durationTicks": 46,
          "midi": 45,
          "name": "A2",
          "ticks": 48240,
          "time": 125.625,
          "velocity": 0.8661417322834646
        },
        {
          "duration": 0.2447916666666714,
          "durationTicks": 94,
          "midi": 50,
          "name": "D3",
          "ticks": 48288,
          "time": 125.75,
          "velocity": 0.8661417322834646
        },
        {
          "duration": 0.2447916666666714,
          "durationTicks": 94,
          "midi": 38,
          "name": "D2",
          "ticks": 48288,
          "time": 125.75,
          "velocity": 0.8661417322834646
        },
        {
          "duration": 0.2447916666666714,
          "durationTicks": 94,
          "midi": 45,
          "name": "A2",
          "ticks": 48288,
          "time": 125.75,
          "velocity": 0.8661417322834646
        },
        {
          "duration": 0.2447916666666714,
          "durationTicks": 94,
          "midi": 50,
          "name": "D3",
          "ticks": 48384,
          "time": 126,
          "velocity": 0.8661417322834646
        },
        {
          "duration": 0.2447916666666714,
          "durationTicks": 94,
          "midi": 38,
          "name": "D2",
          "ticks": 48384,
          "time": 126,
          "velocity": 0.8661417322834646
        },
        {
          "duration": 0.2447916666666714,
          "durationTicks": 94,
          "midi": 45,
          "name": "A2",
          "ticks": 48384,
          "time": 126,
          "velocity": 0.8661417322834646
        },
        {
          "duration": 0.2447916666666714,
          "durationTicks": 94,
          "midi": 50,
          "name": "D3",
          "ticks": 48480,
          "time": 126.25,
          "velocity": 0.8661417322834646
        },
        {
          "duration": 0.2447916666666714,
          "durationTicks": 94,
          "midi": 38,
          "name": "D2",
          "ticks": 48480,
          "time": 126.25,
          "velocity": 0.8661417322834646
        },
        {
          "duration": 0.2447916666666714,
          "durationTicks": 94,
          "midi": 45,
          "name": "A2",
          "ticks": 48480,
          "time": 126.25,
          "velocity": 0.8661417322834646
        },
        {
          "duration": 0.1197916666666714,
          "durationTicks": 46,
          "midi": 50,
          "name": "D3",
          "ticks": 48576,
          "time": 126.5,
          "velocity": 0.8661417322834646
        },
        {
          "duration": 0.1197916666666714,
          "durationTicks": 46,
          "midi": 38,
          "name": "D2",
          "ticks": 48576,
          "time": 126.5,
          "velocity": 0.8661417322834646
        },
        {
          "duration": 0.1197916666666714,
          "durationTicks": 46,
          "midi": 45,
          "name": "A2",
          "ticks": 48576,
          "time": 126.5,
          "velocity": 0.8661417322834646
        },
        {
          "duration": 0.1197916666666714,
          "durationTicks": 46,
          "midi": 50,
          "name": "D3",
          "ticks": 48624,
          "time": 126.625,
          "velocity": 0.8661417322834646
        },
        {
          "duration": 0.1197916666666714,
          "durationTicks": 46,
          "midi": 38,
          "name": "D2",
          "ticks": 48624,
          "time": 126.625,
          "velocity": 0.8661417322834646
        },
        {
          "duration": 0.1197916666666714,
          "durationTicks": 46,
          "midi": 45,
          "name": "A2",
          "ticks": 48624,
          "time": 126.625,
          "velocity": 0.8661417322834646
        },
        {
          "duration": 0.1197916666666714,
          "durationTicks": 46,
          "midi": 50,
          "name": "D3",
          "ticks": 48672,
          "time": 126.75,
          "velocity": 0.8661417322834646
        },
        {
          "duration": 0.1197916666666714,
          "durationTicks": 46,
          "midi": 38,
          "name": "D2",
          "ticks": 48672,
          "time": 126.75,
          "velocity": 0.8661417322834646
        },
        {
          "duration": 0.1197916666666714,
          "durationTicks": 46,
          "midi": 45,
          "name": "A2",
          "ticks": 48672,
          "time": 126.75,
          "velocity": 0.8661417322834646
        },
        {
          "duration": 0.2447916666666714,
          "durationTicks": 94,
          "midi": 50,
          "name": "D3",
          "ticks": 48720,
          "time": 126.875,
          "velocity": 0.8661417322834646
        },
        {
          "duration": 0.2447916666666714,
          "durationTicks": 94,
          "midi": 38,
          "name": "D2",
          "ticks": 48720,
          "time": 126.875,
          "velocity": 0.8661417322834646
        },
        {
          "duration": 0.2447916666666714,
          "durationTicks": 94,
          "midi": 45,
          "name": "A2",
          "ticks": 48720,
          "time": 126.875,
          "velocity": 0.8661417322834646
        },
        {
          "duration": 0.2447916666666714,
          "durationTicks": 94,
          "midi": 50,
          "name": "D3",
          "ticks": 48816,
          "time": 127.125,
          "velocity": 0.8661417322834646
        },
        {
          "duration": 0.2447916666666714,
          "durationTicks": 94,
          "midi": 38,
          "name": "D2",
          "ticks": 48816,
          "time": 127.125,
          "velocity": 0.8661417322834646
        },
        {
          "duration": 0.2447916666666714,
          "durationTicks": 94,
          "midi": 45,
          "name": "A2",
          "ticks": 48816,
          "time": 127.125,
          "velocity": 0.8661417322834646
        },
        {
          "duration": 0.1197916666666714,
          "durationTicks": 46,
          "midi": 50,
          "name": "D3",
          "ticks": 48912,
          "time": 127.375,
          "velocity": 0.8661417322834646
        },
        {
          "duration": 0.1197916666666714,
          "durationTicks": 46,
          "midi": 38,
          "name": "D2",
          "ticks": 48912,
          "time": 127.375,
          "velocity": 0.8661417322834646
        },
        {
          "duration": 0.1197916666666714,
          "durationTicks": 46,
          "midi": 45,
          "name": "A2",
          "ticks": 48912,
          "time": 127.375,
          "velocity": 0.8661417322834646
        },
        {
          "duration": 0.1197916666666714,
          "durationTicks": 46,
          "midi": 50,
          "name": "D3",
          "ticks": 48960,
          "time": 127.5,
          "velocity": 0.8661417322834646
        },
        {
          "duration": 0.1197916666666714,
          "durationTicks": 46,
          "midi": 38,
          "name": "D2",
          "ticks": 48960,
          "time": 127.5,
          "velocity": 0.8661417322834646
        },
        {
          "duration": 0.1197916666666714,
          "durationTicks": 46,
          "midi": 45,
          "name": "A2",
          "ticks": 48960,
          "time": 127.5,
          "velocity": 0.8661417322834646
        },
        {
          "duration": 0.1197916666666714,
          "durationTicks": 46,
          "midi": 50,
          "name": "D3",
          "ticks": 49008,
          "time": 127.625,
          "velocity": 0.8661417322834646
        },
        {
          "duration": 0.1197916666666714,
          "durationTicks": 46,
          "midi": 38,
          "name": "D2",
          "ticks": 49008,
          "time": 127.625,
          "velocity": 0.8661417322834646
        },
        {
          "duration": 0.1197916666666714,
          "durationTicks": 46,
          "midi": 45,
          "name": "A2",
          "ticks": 49008,
          "time": 127.625,
          "velocity": 0.8661417322834646
        },
        {
          "duration": 0.2447916666666714,
          "durationTicks": 94,
          "midi": 50,
          "name": "D3",
          "ticks": 49056,
          "time": 127.75,
          "velocity": 0.8661417322834646
        },
        {
          "duration": 0.2447916666666714,
          "durationTicks": 94,
          "midi": 38,
          "name": "D2",
          "ticks": 49056,
          "time": 127.75,
          "velocity": 0.8661417322834646
        },
        {
          "duration": 0.2447916666666714,
          "durationTicks": 94,
          "midi": 45,
          "name": "A2",
          "ticks": 49056,
          "time": 127.75,
          "velocity": 0.8661417322834646
        },
        {
          "duration": 0.2447916666666572,
          "durationTicks": 94,
          "midi": 46,
          "name": "A#2",
          "ticks": 49152,
          "time": 128,
          "velocity": 0.8661417322834646
        },
        {
          "duration": 0.2447916666666572,
          "durationTicks": 94,
          "midi": 34,
          "name": "A#1",
          "ticks": 49152,
          "time": 128,
          "velocity": 0.8661417322834646
        },
        {
          "duration": 0.2447916666666572,
          "durationTicks": 94,
          "midi": 41,
          "name": "F2",
          "ticks": 49152,
          "time": 128,
          "velocity": 0.8661417322834646
        },
        {
          "duration": 0.2447916666666572,
          "durationTicks": 94,
          "midi": 46,
          "name": "A#2",
          "ticks": 49248,
          "time": 128.25,
          "velocity": 0.8661417322834646
        },
        {
          "duration": 0.2447916666666572,
          "durationTicks": 94,
          "midi": 34,
          "name": "A#1",
          "ticks": 49248,
          "time": 128.25,
          "velocity": 0.8661417322834646
        },
        {
          "duration": 0.2447916666666572,
          "durationTicks": 94,
          "midi": 41,
          "name": "F2",
          "ticks": 49248,
          "time": 128.25,
          "velocity": 0.8661417322834646
        },
        {
          "duration": 0.11979166666665719,
          "durationTicks": 46,
          "midi": 46,
          "name": "A#2",
          "ticks": 49344,
          "time": 128.5,
          "velocity": 0.8661417322834646
        },
        {
          "duration": 0.11979166666665719,
          "durationTicks": 46,
          "midi": 34,
          "name": "A#1",
          "ticks": 49344,
          "time": 128.5,
          "velocity": 0.8661417322834646
        },
        {
          "duration": 0.11979166666665719,
          "durationTicks": 46,
          "midi": 41,
          "name": "F2",
          "ticks": 49344,
          "time": 128.5,
          "velocity": 0.8661417322834646
        },
        {
          "duration": 0.11979166666665719,
          "durationTicks": 46,
          "midi": 46,
          "name": "A#2",
          "ticks": 49392,
          "time": 128.625,
          "velocity": 0.8661417322834646
        },
        {
          "duration": 0.11979166666665719,
          "durationTicks": 46,
          "midi": 34,
          "name": "A#1",
          "ticks": 49392,
          "time": 128.625,
          "velocity": 0.8661417322834646
        },
        {
          "duration": 0.11979166666665719,
          "durationTicks": 46,
          "midi": 41,
          "name": "F2",
          "ticks": 49392,
          "time": 128.625,
          "velocity": 0.8661417322834646
        },
        {
          "duration": 0.11979166666665719,
          "durationTicks": 46,
          "midi": 46,
          "name": "A#2",
          "ticks": 49440,
          "time": 128.75,
          "velocity": 0.8661417322834646
        },
        {
          "duration": 0.11979166666665719,
          "durationTicks": 46,
          "midi": 34,
          "name": "A#1",
          "ticks": 49440,
          "time": 128.75,
          "velocity": 0.8661417322834646
        },
        {
          "duration": 0.11979166666665719,
          "durationTicks": 46,
          "midi": 41,
          "name": "F2",
          "ticks": 49440,
          "time": 128.75,
          "velocity": 0.8661417322834646
        },
        {
          "duration": 0.2447916666666572,
          "durationTicks": 94,
          "midi": 46,
          "name": "A#2",
          "ticks": 49488,
          "time": 128.875,
          "velocity": 0.8661417322834646
        },
        {
          "duration": 0.2447916666666572,
          "durationTicks": 94,
          "midi": 34,
          "name": "A#1",
          "ticks": 49488,
          "time": 128.875,
          "velocity": 0.8661417322834646
        },
        {
          "duration": 0.2447916666666572,
          "durationTicks": 94,
          "midi": 41,
          "name": "F2",
          "ticks": 49488,
          "time": 128.875,
          "velocity": 0.8661417322834646
        },
        {
          "duration": 0.2447916666666572,
          "durationTicks": 94,
          "midi": 46,
          "name": "A#2",
          "ticks": 49584,
          "time": 129.125,
          "velocity": 0.8661417322834646
        },
        {
          "duration": 0.2447916666666572,
          "durationTicks": 94,
          "midi": 34,
          "name": "A#1",
          "ticks": 49584,
          "time": 129.125,
          "velocity": 0.8661417322834646
        },
        {
          "duration": 0.2447916666666572,
          "durationTicks": 94,
          "midi": 41,
          "name": "F2",
          "ticks": 49584,
          "time": 129.125,
          "velocity": 0.8661417322834646
        },
        {
          "duration": 0.11979166666665719,
          "durationTicks": 46,
          "midi": 46,
          "name": "A#2",
          "ticks": 49680,
          "time": 129.375,
          "velocity": 0.8661417322834646
        },
        {
          "duration": 0.11979166666665719,
          "durationTicks": 46,
          "midi": 34,
          "name": "A#1",
          "ticks": 49680,
          "time": 129.375,
          "velocity": 0.8661417322834646
        },
        {
          "duration": 0.11979166666665719,
          "durationTicks": 46,
          "midi": 41,
          "name": "F2",
          "ticks": 49680,
          "time": 129.375,
          "velocity": 0.8661417322834646
        },
        {
          "duration": 0.11979166666665719,
          "durationTicks": 46,
          "midi": 46,
          "name": "A#2",
          "ticks": 49728,
          "time": 129.5,
          "velocity": 0.8661417322834646
        },
        {
          "duration": 0.11979166666665719,
          "durationTicks": 46,
          "midi": 34,
          "name": "A#1",
          "ticks": 49728,
          "time": 129.5,
          "velocity": 0.8661417322834646
        },
        {
          "duration": 0.11979166666665719,
          "durationTicks": 46,
          "midi": 41,
          "name": "F2",
          "ticks": 49728,
          "time": 129.5,
          "velocity": 0.8661417322834646
        },
        {
          "duration": 0.11979166666665719,
          "durationTicks": 46,
          "midi": 46,
          "name": "A#2",
          "ticks": 49776,
          "time": 129.625,
          "velocity": 0.8661417322834646
        },
        {
          "duration": 0.11979166666665719,
          "durationTicks": 46,
          "midi": 34,
          "name": "A#1",
          "ticks": 49776,
          "time": 129.625,
          "velocity": 0.8661417322834646
        },
        {
          "duration": 0.11979166666665719,
          "durationTicks": 46,
          "midi": 41,
          "name": "F2",
          "ticks": 49776,
          "time": 129.625,
          "velocity": 0.8661417322834646
        },
        {
          "duration": 0.2447916666666572,
          "durationTicks": 94,
          "midi": 58,
          "name": "A#3",
          "ticks": 49824,
          "time": 129.75,
          "velocity": 0.8661417322834646
        },
        {
          "duration": 0.2447916666666572,
          "durationTicks": 94,
          "midi": 46,
          "name": "A#2",
          "ticks": 49824,
          "time": 129.75,
          "velocity": 0.8661417322834646
        },
        {
          "duration": 0.2447916666666572,
          "durationTicks": 94,
          "midi": 53,
          "name": "F3",
          "ticks": 49824,
          "time": 129.75,
          "velocity": 0.8661417322834646
        },
        {
          "duration": 0.2447916666666572,
          "durationTicks": 94,
          "midi": 48,
          "name": "C3",
          "ticks": 49920,
          "time": 130,
          "velocity": 0.8661417322834646
        },
        {
          "duration": 0.2447916666666572,
          "durationTicks": 94,
          "midi": 36,
          "name": "C2",
          "ticks": 49920,
          "time": 130,
          "velocity": 0.8661417322834646
        },
        {
          "duration": 0.2447916666666572,
          "durationTicks": 94,
          "midi": 43,
          "name": "G2",
          "ticks": 49920,
          "time": 130,
          "velocity": 0.8661417322834646
        },
        {
          "duration": 0.2447916666666572,
          "durationTicks": 94,
          "midi": 48,
          "name": "C3",
          "ticks": 50016,
          "time": 130.25,
          "velocity": 0.8661417322834646
        },
        {
          "duration": 0.2447916666666572,
          "durationTicks": 94,
          "midi": 36,
          "name": "C2",
          "ticks": 50016,
          "time": 130.25,
          "velocity": 0.8661417322834646
        },
        {
          "duration": 0.2447916666666572,
          "durationTicks": 94,
          "midi": 43,
          "name": "G2",
          "ticks": 50016,
          "time": 130.25,
          "velocity": 0.8661417322834646
        },
        {
          "duration": 0.11979166666665719,
          "durationTicks": 46,
          "midi": 48,
          "name": "C3",
          "ticks": 50112,
          "time": 130.5,
          "velocity": 0.8661417322834646
        },
        {
          "duration": 0.11979166666665719,
          "durationTicks": 46,
          "midi": 36,
          "name": "C2",
          "ticks": 50112,
          "time": 130.5,
          "velocity": 0.8661417322834646
        },
        {
          "duration": 0.11979166666665719,
          "durationTicks": 46,
          "midi": 43,
          "name": "G2",
          "ticks": 50112,
          "time": 130.5,
          "velocity": 0.8661417322834646
        },
        {
          "duration": 0.11979166666665719,
          "durationTicks": 46,
          "midi": 48,
          "name": "C3",
          "ticks": 50160,
          "time": 130.625,
          "velocity": 0.8661417322834646
        },
        {
          "duration": 0.11979166666665719,
          "durationTicks": 46,
          "midi": 36,
          "name": "C2",
          "ticks": 50160,
          "time": 130.625,
          "velocity": 0.8661417322834646
        },
        {
          "duration": 0.11979166666665719,
          "durationTicks": 46,
          "midi": 43,
          "name": "G2",
          "ticks": 50160,
          "time": 130.625,
          "velocity": 0.8661417322834646
        },
        {
          "duration": 0.11979166666665719,
          "durationTicks": 46,
          "midi": 48,
          "name": "C3",
          "ticks": 50208,
          "time": 130.75,
          "velocity": 0.8661417322834646
        },
        {
          "duration": 0.11979166666665719,
          "durationTicks": 46,
          "midi": 36,
          "name": "C2",
          "ticks": 50208,
          "time": 130.75,
          "velocity": 0.8661417322834646
        },
        {
          "duration": 0.11979166666665719,
          "durationTicks": 46,
          "midi": 43,
          "name": "G2",
          "ticks": 50208,
          "time": 130.75,
          "velocity": 0.8661417322834646
        },
        {
          "duration": 0.2447916666666572,
          "durationTicks": 94,
          "midi": 48,
          "name": "C3",
          "ticks": 50256,
          "time": 130.875,
          "velocity": 0.8661417322834646
        },
        {
          "duration": 0.2447916666666572,
          "durationTicks": 94,
          "midi": 36,
          "name": "C2",
          "ticks": 50256,
          "time": 130.875,
          "velocity": 0.8661417322834646
        },
        {
          "duration": 0.2447916666666572,
          "durationTicks": 94,
          "midi": 43,
          "name": "G2",
          "ticks": 50256,
          "time": 130.875,
          "velocity": 0.8661417322834646
        },
        {
          "duration": 0.2447916666666572,
          "durationTicks": 94,
          "midi": 48,
          "name": "C3",
          "ticks": 50352,
          "time": 131.125,
          "velocity": 0.8661417322834646
        },
        {
          "duration": 0.2447916666666572,
          "durationTicks": 94,
          "midi": 36,
          "name": "C2",
          "ticks": 50352,
          "time": 131.125,
          "velocity": 0.8661417322834646
        },
        {
          "duration": 0.2447916666666572,
          "durationTicks": 94,
          "midi": 43,
          "name": "G2",
          "ticks": 50352,
          "time": 131.125,
          "velocity": 0.8661417322834646
        },
        {
          "duration": 0.11979166666665719,
          "durationTicks": 46,
          "midi": 48,
          "name": "C3",
          "ticks": 50448,
          "time": 131.375,
          "velocity": 0.8661417322834646
        },
        {
          "duration": 0.11979166666665719,
          "durationTicks": 46,
          "midi": 36,
          "name": "C2",
          "ticks": 50448,
          "time": 131.375,
          "velocity": 0.8661417322834646
        },
        {
          "duration": 0.11979166666665719,
          "durationTicks": 46,
          "midi": 43,
          "name": "G2",
          "ticks": 50448,
          "time": 131.375,
          "velocity": 0.8661417322834646
        },
        {
          "duration": 0.11979166666665719,
          "durationTicks": 46,
          "midi": 48,
          "name": "C3",
          "ticks": 50496,
          "time": 131.5,
          "velocity": 0.8661417322834646
        },
        {
          "duration": 0.11979166666665719,
          "durationTicks": 46,
          "midi": 36,
          "name": "C2",
          "ticks": 50496,
          "time": 131.5,
          "velocity": 0.8661417322834646
        },
        {
          "duration": 0.11979166666665719,
          "durationTicks": 46,
          "midi": 43,
          "name": "G2",
          "ticks": 50496,
          "time": 131.5,
          "velocity": 0.8661417322834646
        },
        {
          "duration": 0.11979166666665719,
          "durationTicks": 46,
          "midi": 48,
          "name": "C3",
          "ticks": 50544,
          "time": 131.625,
          "velocity": 0.8661417322834646
        },
        {
          "duration": 0.11979166666665719,
          "durationTicks": 46,
          "midi": 36,
          "name": "C2",
          "ticks": 50544,
          "time": 131.625,
          "velocity": 0.8661417322834646
        },
        {
          "duration": 0.11979166666665719,
          "durationTicks": 46,
          "midi": 43,
          "name": "G2",
          "ticks": 50544,
          "time": 131.625,
          "velocity": 0.8661417322834646
        },
        {
          "duration": 0.2447916666666572,
          "durationTicks": 94,
          "midi": 48,
          "name": "C3",
          "ticks": 50592,
          "time": 131.75,
          "velocity": 0.8661417322834646
        },
        {
          "duration": 0.25,
          "durationTicks": 96,
          "midi": 60,
          "name": "C4",
          "ticks": 50592,
          "time": 131.75,
          "velocity": 0.6299212598425197
        },
        {
          "duration": 0.2447916666666572,
          "durationTicks": 94,
          "midi": 36,
          "name": "C2",
          "ticks": 50592,
          "time": 131.75,
          "velocity": 0.8661417322834646
        },
        {
          "duration": 0.2447916666666572,
          "durationTicks": 94,
          "midi": 43,
          "name": "G2",
          "ticks": 50592,
          "time": 131.75,
          "velocity": 0.8661417322834646
        },
        {
          "duration": 0.2447916666666572,
          "durationTicks": 94,
          "midi": 50,
          "name": "D3",
          "ticks": 50688,
          "time": 132,
          "velocity": 0.8661417322834646
        },
        {
          "duration": 0.2447916666666572,
          "durationTicks": 94,
          "midi": 38,
          "name": "D2",
          "ticks": 50688,
          "time": 132,
          "velocity": 0.8661417322834646
        },
        {
          "duration": 0.2447916666666572,
          "durationTicks": 94,
          "midi": 45,
          "name": "A2",
          "ticks": 50688,
          "time": 132,
          "velocity": 0.8661417322834646
        },
        {
          "duration": 0.2447916666666572,
          "durationTicks": 94,
          "midi": 50,
          "name": "D3",
          "ticks": 50784,
          "time": 132.25,
          "velocity": 0.8661417322834646
        },
        {
          "duration": 0.2447916666666572,
          "durationTicks": 94,
          "midi": 38,
          "name": "D2",
          "ticks": 50784,
          "time": 132.25,
          "velocity": 0.8661417322834646
        },
        {
          "duration": 0.2447916666666572,
          "durationTicks": 94,
          "midi": 45,
          "name": "A2",
          "ticks": 50784,
          "time": 132.25,
          "velocity": 0.8661417322834646
        },
        {
          "duration": 0.11979166666665719,
          "durationTicks": 46,
          "midi": 50,
          "name": "D3",
          "ticks": 50880,
          "time": 132.5,
          "velocity": 0.8661417322834646
        },
        {
          "duration": 0.11979166666665719,
          "durationTicks": 46,
          "midi": 38,
          "name": "D2",
          "ticks": 50880,
          "time": 132.5,
          "velocity": 0.8661417322834646
        },
        {
          "duration": 0.11979166666665719,
          "durationTicks": 46,
          "midi": 45,
          "name": "A2",
          "ticks": 50880,
          "time": 132.5,
          "velocity": 0.8661417322834646
        },
        {
          "duration": 0.11979166666665719,
          "durationTicks": 46,
          "midi": 50,
          "name": "D3",
          "ticks": 50928,
          "time": 132.625,
          "velocity": 0.8661417322834646
        },
        {
          "duration": 0.11979166666665719,
          "durationTicks": 46,
          "midi": 38,
          "name": "D2",
          "ticks": 50928,
          "time": 132.625,
          "velocity": 0.8661417322834646
        },
        {
          "duration": 0.11979166666665719,
          "durationTicks": 46,
          "midi": 45,
          "name": "A2",
          "ticks": 50928,
          "time": 132.625,
          "velocity": 0.8661417322834646
        },
        {
          "duration": 0.11979166666665719,
          "durationTicks": 46,
          "midi": 50,
          "name": "D3",
          "ticks": 50976,
          "time": 132.75,
          "velocity": 0.8661417322834646
        },
        {
          "duration": 0.11979166666665719,
          "durationTicks": 46,
          "midi": 38,
          "name": "D2",
          "ticks": 50976,
          "time": 132.75,
          "velocity": 0.8661417322834646
        },
        {
          "duration": 0.11979166666665719,
          "durationTicks": 46,
          "midi": 45,
          "name": "A2",
          "ticks": 50976,
          "time": 132.75,
          "velocity": 0.8661417322834646
        },
        {
          "duration": 0.2447916666666572,
          "durationTicks": 94,
          "midi": 49,
          "name": "C#3",
          "ticks": 51024,
          "time": 132.875,
          "velocity": 0.8661417322834646
        },
        {
          "duration": 0.2447916666666572,
          "durationTicks": 94,
          "midi": 37,
          "name": "C#2",
          "ticks": 51024,
          "time": 132.875,
          "velocity": 0.8661417322834646
        },
        {
          "duration": 0.2447916666666572,
          "durationTicks": 94,
          "midi": 44,
          "name": "G#2",
          "ticks": 51024,
          "time": 132.875,
          "velocity": 0.8661417322834646
        },
        {
          "duration": 0.2447916666666572,
          "durationTicks": 94,
          "midi": 49,
          "name": "C#3",
          "ticks": 51120,
          "time": 133.125,
          "velocity": 0.8661417322834646
        },
        {
          "duration": 0.2447916666666572,
          "durationTicks": 94,
          "midi": 37,
          "name": "C#2",
          "ticks": 51120,
          "time": 133.125,
          "velocity": 0.8661417322834646
        },
        {
          "duration": 0.2447916666666572,
          "durationTicks": 94,
          "midi": 44,
          "name": "G#2",
          "ticks": 51120,
          "time": 133.125,
          "velocity": 0.8661417322834646
        },
        {
          "duration": 0.11979166666665719,
          "durationTicks": 46,
          "midi": 49,
          "name": "C#3",
          "ticks": 51216,
          "time": 133.375,
          "velocity": 0.8661417322834646
        },
        {
          "duration": 0.11979166666665719,
          "durationTicks": 46,
          "midi": 37,
          "name": "C#2",
          "ticks": 51216,
          "time": 133.375,
          "velocity": 0.8661417322834646
        },
        {
          "duration": 0.11979166666665719,
          "durationTicks": 46,
          "midi": 44,
          "name": "G#2",
          "ticks": 51216,
          "time": 133.375,
          "velocity": 0.8661417322834646
        },
        {
          "duration": 0.11979166666665719,
          "durationTicks": 46,
          "midi": 49,
          "name": "C#3",
          "ticks": 51264,
          "time": 133.5,
          "velocity": 0.8661417322834646
        },
        {
          "duration": 0.11979166666665719,
          "durationTicks": 46,
          "midi": 37,
          "name": "C#2",
          "ticks": 51264,
          "time": 133.5,
          "velocity": 0.8661417322834646
        },
        {
          "duration": 0.11979166666665719,
          "durationTicks": 46,
          "midi": 44,
          "name": "G#2",
          "ticks": 51264,
          "time": 133.5,
          "velocity": 0.8661417322834646
        },
        {
          "duration": 0.11979166666665719,
          "durationTicks": 46,
          "midi": 49,
          "name": "C#3",
          "ticks": 51312,
          "time": 133.625,
          "velocity": 0.8661417322834646
        },
        {
          "duration": 0.11979166666665719,
          "durationTicks": 46,
          "midi": 37,
          "name": "C#2",
          "ticks": 51312,
          "time": 133.625,
          "velocity": 0.8661417322834646
        },
        {
          "duration": 0.11979166666665719,
          "durationTicks": 46,
          "midi": 44,
          "name": "G#2",
          "ticks": 51312,
          "time": 133.625,
          "velocity": 0.8661417322834646
        },
        {
          "duration": 0.2447916666666572,
          "durationTicks": 94,
          "midi": 49,
          "name": "C#3",
          "ticks": 51360,
          "time": 133.75,
          "velocity": 0.8661417322834646
        },
        {
          "duration": 0.2447916666666572,
          "durationTicks": 94,
          "midi": 37,
          "name": "C#2",
          "ticks": 51360,
          "time": 133.75,
          "velocity": 0.8661417322834646
        },
        {
          "duration": 0.2447916666666572,
          "durationTicks": 94,
          "midi": 44,
          "name": "G#2",
          "ticks": 51360,
          "time": 133.75,
          "velocity": 0.8661417322834646
        },
        {
          "duration": 0.2447916666666572,
          "durationTicks": 94,
          "midi": 48,
          "name": "C3",
          "ticks": 51456,
          "time": 134,
          "velocity": 0.8661417322834646
        },
        {
          "duration": 0.2447916666666572,
          "durationTicks": 94,
          "midi": 36,
          "name": "C2",
          "ticks": 51456,
          "time": 134,
          "velocity": 0.8661417322834646
        },
        {
          "duration": 0.2447916666666572,
          "durationTicks": 94,
          "midi": 43,
          "name": "G2",
          "ticks": 51456,
          "time": 134,
          "velocity": 0.8661417322834646
        },
        {
          "duration": 0.2447916666666572,
          "durationTicks": 94,
          "midi": 48,
          "name": "C3",
          "ticks": 51552,
          "time": 134.25,
          "velocity": 0.8661417322834646
        },
        {
          "duration": 0.2447916666666572,
          "durationTicks": 94,
          "midi": 36,
          "name": "C2",
          "ticks": 51552,
          "time": 134.25,
          "velocity": 0.8661417322834646
        },
        {
          "duration": 0.2447916666666572,
          "durationTicks": 94,
          "midi": 43,
          "name": "G2",
          "ticks": 51552,
          "time": 134.25,
          "velocity": 0.8661417322834646
        },
        {
          "duration": 0.11979166666665719,
          "durationTicks": 46,
          "midi": 48,
          "name": "C3",
          "ticks": 51648,
          "time": 134.5,
          "velocity": 0.8661417322834646
        },
        {
          "duration": 0.11979166666665719,
          "durationTicks": 46,
          "midi": 36,
          "name": "C2",
          "ticks": 51648,
          "time": 134.5,
          "velocity": 0.8661417322834646
        },
        {
          "duration": 0.11979166666665719,
          "durationTicks": 46,
          "midi": 43,
          "name": "G2",
          "ticks": 51648,
          "time": 134.5,
          "velocity": 0.8661417322834646
        },
        {
          "duration": 0.11979166666665719,
          "durationTicks": 46,
          "midi": 48,
          "name": "C3",
          "ticks": 51696,
          "time": 134.625,
          "velocity": 0.8661417322834646
        },
        {
          "duration": 0.11979166666665719,
          "durationTicks": 46,
          "midi": 36,
          "name": "C2",
          "ticks": 51696,
          "time": 134.625,
          "velocity": 0.8661417322834646
        },
        {
          "duration": 0.11979166666665719,
          "durationTicks": 46,
          "midi": 43,
          "name": "G2",
          "ticks": 51696,
          "time": 134.625,
          "velocity": 0.8661417322834646
        },
        {
          "duration": 0.11979166666665719,
          "durationTicks": 46,
          "midi": 48,
          "name": "C3",
          "ticks": 51744,
          "time": 134.75,
          "velocity": 0.8661417322834646
        },
        {
          "duration": 0.11979166666665719,
          "durationTicks": 46,
          "midi": 36,
          "name": "C2",
          "ticks": 51744,
          "time": 134.75,
          "velocity": 0.8661417322834646
        },
        {
          "duration": 0.11979166666665719,
          "durationTicks": 46,
          "midi": 43,
          "name": "G2",
          "ticks": 51744,
          "time": 134.75,
          "velocity": 0.8661417322834646
        },
        {
          "duration": 0.2447916666666572,
          "durationTicks": 94,
          "midi": 47,
          "name": "B2",
          "ticks": 51792,
          "time": 134.875,
          "velocity": 0.8661417322834646
        },
        {
          "duration": 0.2447916666666572,
          "durationTicks": 94,
          "midi": 35,
          "name": "B1",
          "ticks": 51792,
          "time": 134.875,
          "velocity": 0.8661417322834646
        },
        {
          "duration": 0.2447916666666572,
          "durationTicks": 94,
          "midi": 42,
          "name": "F#2",
          "ticks": 51792,
          "time": 134.875,
          "velocity": 0.8661417322834646
        },
        {
          "duration": 0.2447916666666572,
          "durationTicks": 94,
          "midi": 47,
          "name": "B2",
          "ticks": 51888,
          "time": 135.125,
          "velocity": 0.8661417322834646
        },
        {
          "duration": 0.2447916666666572,
          "durationTicks": 94,
          "midi": 35,
          "name": "B1",
          "ticks": 51888,
          "time": 135.125,
          "velocity": 0.8661417322834646
        },
        {
          "duration": 0.2447916666666572,
          "durationTicks": 94,
          "midi": 42,
          "name": "F#2",
          "ticks": 51888,
          "time": 135.125,
          "velocity": 0.8661417322834646
        },
        {
          "duration": 0.11979166666665719,
          "durationTicks": 46,
          "midi": 47,
          "name": "B2",
          "ticks": 51984,
          "time": 135.375,
          "velocity": 0.8661417322834646
        },
        {
          "duration": 0.11979166666665719,
          "durationTicks": 46,
          "midi": 35,
          "name": "B1",
          "ticks": 51984,
          "time": 135.375,
          "velocity": 0.8661417322834646
        },
        {
          "duration": 0.11979166666665719,
          "durationTicks": 46,
          "midi": 42,
          "name": "F#2",
          "ticks": 51984,
          "time": 135.375,
          "velocity": 0.8661417322834646
        },
        {
          "duration": 0.11979166666665719,
          "durationTicks": 46,
          "midi": 47,
          "name": "B2",
          "ticks": 52032,
          "time": 135.5,
          "velocity": 0.8661417322834646
        },
        {
          "duration": 0.11979166666665719,
          "durationTicks": 46,
          "midi": 35,
          "name": "B1",
          "ticks": 52032,
          "time": 135.5,
          "velocity": 0.8661417322834646
        },
        {
          "duration": 0.11979166666665719,
          "durationTicks": 46,
          "midi": 42,
          "name": "F#2",
          "ticks": 52032,
          "time": 135.5,
          "velocity": 0.8661417322834646
        },
        {
          "duration": 0.11979166666665719,
          "durationTicks": 46,
          "midi": 47,
          "name": "B2",
          "ticks": 52080,
          "time": 135.625,
          "velocity": 0.8661417322834646
        },
        {
          "duration": 0.11979166666665719,
          "durationTicks": 46,
          "midi": 35,
          "name": "B1",
          "ticks": 52080,
          "time": 135.625,
          "velocity": 0.8661417322834646
        },
        {
          "duration": 0.11979166666665719,
          "durationTicks": 46,
          "midi": 42,
          "name": "F#2",
          "ticks": 52080,
          "time": 135.625,
          "velocity": 0.8661417322834646
        },
        {
          "duration": 0.2447916666666572,
          "durationTicks": 94,
          "midi": 47,
          "name": "B2",
          "ticks": 52128,
          "time": 135.75,
          "velocity": 0.8661417322834646
        },
        {
          "duration": 0.2447916666666572,
          "durationTicks": 94,
          "midi": 35,
          "name": "B1",
          "ticks": 52128,
          "time": 135.75,
          "velocity": 0.8661417322834646
        },
        {
          "duration": 0.2447916666666572,
          "durationTicks": 94,
          "midi": 42,
          "name": "F#2",
          "ticks": 52128,
          "time": 135.75,
          "velocity": 0.8661417322834646
        },
        {
          "duration": 0.2447916666666572,
          "durationTicks": 94,
          "midi": 46,
          "name": "A#2",
          "ticks": 52224,
          "time": 136,
          "velocity": 0.8661417322834646
        },
        {
          "duration": 0.2447916666666572,
          "durationTicks": 94,
          "midi": 34,
          "name": "A#1",
          "ticks": 52224,
          "time": 136,
          "velocity": 0.8661417322834646
        },
        {
          "duration": 0.2447916666666572,
          "durationTicks": 94,
          "midi": 41,
          "name": "F2",
          "ticks": 52224,
          "time": 136,
          "velocity": 0.8661417322834646
        },
        {
          "duration": 0.2447916666666572,
          "durationTicks": 94,
          "midi": 46,
          "name": "A#2",
          "ticks": 52320,
          "time": 136.25,
          "velocity": 0.8661417322834646
        },
        {
          "duration": 0.2447916666666572,
          "durationTicks": 94,
          "midi": 34,
          "name": "A#1",
          "ticks": 52320,
          "time": 136.25,
          "velocity": 0.8661417322834646
        },
        {
          "duration": 0.2447916666666572,
          "durationTicks": 94,
          "midi": 41,
          "name": "F2",
          "ticks": 52320,
          "time": 136.25,
          "velocity": 0.8661417322834646
        },
        {
          "duration": 0.11979166666665719,
          "durationTicks": 46,
          "midi": 46,
          "name": "A#2",
          "ticks": 52416,
          "time": 136.5,
          "velocity": 0.8661417322834646
        },
        {
          "duration": 0.11979166666665719,
          "durationTicks": 46,
          "midi": 34,
          "name": "A#1",
          "ticks": 52416,
          "time": 136.5,
          "velocity": 0.8661417322834646
        },
        {
          "duration": 0.11979166666665719,
          "durationTicks": 46,
          "midi": 41,
          "name": "F2",
          "ticks": 52416,
          "time": 136.5,
          "velocity": 0.8661417322834646
        },
        {
          "duration": 0.11979166666665719,
          "durationTicks": 46,
          "midi": 46,
          "name": "A#2",
          "ticks": 52464,
          "time": 136.625,
          "velocity": 0.8661417322834646
        },
        {
          "duration": 0.11979166666665719,
          "durationTicks": 46,
          "midi": 34,
          "name": "A#1",
          "ticks": 52464,
          "time": 136.625,
          "velocity": 0.8661417322834646
        },
        {
          "duration": 0.11979166666665719,
          "durationTicks": 46,
          "midi": 41,
          "name": "F2",
          "ticks": 52464,
          "time": 136.625,
          "velocity": 0.8661417322834646
        },
        {
          "duration": 0.11979166666665719,
          "durationTicks": 46,
          "midi": 46,
          "name": "A#2",
          "ticks": 52512,
          "time": 136.75,
          "velocity": 0.8661417322834646
        },
        {
          "duration": 0.11979166666665719,
          "durationTicks": 46,
          "midi": 34,
          "name": "A#1",
          "ticks": 52512,
          "time": 136.75,
          "velocity": 0.8661417322834646
        },
        {
          "duration": 0.11979166666665719,
          "durationTicks": 46,
          "midi": 41,
          "name": "F2",
          "ticks": 52512,
          "time": 136.75,
          "velocity": 0.8661417322834646
        },
        {
          "duration": 0.2447916666666572,
          "durationTicks": 94,
          "midi": 46,
          "name": "A#2",
          "ticks": 52560,
          "time": 136.875,
          "velocity": 0.8661417322834646
        },
        {
          "duration": 0.2447916666666572,
          "durationTicks": 94,
          "midi": 34,
          "name": "A#1",
          "ticks": 52560,
          "time": 136.875,
          "velocity": 0.8661417322834646
        },
        {
          "duration": 0.2447916666666572,
          "durationTicks": 94,
          "midi": 41,
          "name": "F2",
          "ticks": 52560,
          "time": 136.875,
          "velocity": 0.8661417322834646
        },
        {
          "duration": 0.2447916666666572,
          "durationTicks": 94,
          "midi": 46,
          "name": "A#2",
          "ticks": 52656,
          "time": 137.125,
          "velocity": 0.8661417322834646
        },
        {
          "duration": 0.2447916666666572,
          "durationTicks": 94,
          "midi": 34,
          "name": "A#1",
          "ticks": 52656,
          "time": 137.125,
          "velocity": 0.8661417322834646
        },
        {
          "duration": 0.2447916666666572,
          "durationTicks": 94,
          "midi": 41,
          "name": "F2",
          "ticks": 52656,
          "time": 137.125,
          "velocity": 0.8661417322834646
        },
        {
          "duration": 0.11979166666665719,
          "durationTicks": 46,
          "midi": 46,
          "name": "A#2",
          "ticks": 52752,
          "time": 137.375,
          "velocity": 0.8661417322834646
        },
        {
          "duration": 0.11979166666665719,
          "durationTicks": 46,
          "midi": 34,
          "name": "A#1",
          "ticks": 52752,
          "time": 137.375,
          "velocity": 0.8661417322834646
        },
        {
          "duration": 0.11979166666665719,
          "durationTicks": 46,
          "midi": 41,
          "name": "F2",
          "ticks": 52752,
          "time": 137.375,
          "velocity": 0.8661417322834646
        },
        {
          "duration": 0.11979166666665719,
          "durationTicks": 46,
          "midi": 46,
          "name": "A#2",
          "ticks": 52800,
          "time": 137.5,
          "velocity": 0.8661417322834646
        },
        {
          "duration": 0.11979166666665719,
          "durationTicks": 46,
          "midi": 34,
          "name": "A#1",
          "ticks": 52800,
          "time": 137.5,
          "velocity": 0.8661417322834646
        },
        {
          "duration": 0.11979166666665719,
          "durationTicks": 46,
          "midi": 41,
          "name": "F2",
          "ticks": 52800,
          "time": 137.5,
          "velocity": 0.8661417322834646
        },
        {
          "duration": 0.11979166666665719,
          "durationTicks": 46,
          "midi": 46,
          "name": "A#2",
          "ticks": 52848,
          "time": 137.625,
          "velocity": 0.8661417322834646
        },
        {
          "duration": 0.11979166666665719,
          "durationTicks": 46,
          "midi": 34,
          "name": "A#1",
          "ticks": 52848,
          "time": 137.625,
          "velocity": 0.8661417322834646
        },
        {
          "duration": 0.11979166666665719,
          "durationTicks": 46,
          "midi": 41,
          "name": "F2",
          "ticks": 52848,
          "time": 137.625,
          "velocity": 0.8661417322834646
        },
        {
          "duration": 0.2447916666666572,
          "durationTicks": 94,
          "midi": 58,
          "name": "A#3",
          "ticks": 52896,
          "time": 137.75,
          "velocity": 0.8661417322834646
        },
        {
          "duration": 0.2447916666666572,
          "durationTicks": 94,
          "midi": 46,
          "name": "A#2",
          "ticks": 52896,
          "time": 137.75,
          "velocity": 0.8661417322834646
        },
        {
          "duration": 0.2447916666666572,
          "durationTicks": 94,
          "midi": 53,
          "name": "F3",
          "ticks": 52896,
          "time": 137.75,
          "velocity": 0.8661417322834646
        },
        {
          "duration": 0.2447916666666572,
          "durationTicks": 94,
          "midi": 48,
          "name": "C3",
          "ticks": 52992,
          "time": 138,
          "velocity": 0.8661417322834646
        },
        {
          "duration": 0.2447916666666572,
          "durationTicks": 94,
          "midi": 36,
          "name": "C2",
          "ticks": 52992,
          "time": 138,
          "velocity": 0.8661417322834646
        },
        {
          "duration": 0.2447916666666572,
          "durationTicks": 94,
          "midi": 43,
          "name": "G2",
          "ticks": 52992,
          "time": 138,
          "velocity": 0.8661417322834646
        },
        {
          "duration": 0.2447916666666572,
          "durationTicks": 94,
          "midi": 48,
          "name": "C3",
          "ticks": 53088,
          "time": 138.25,
          "velocity": 0.8661417322834646
        },
        {
          "duration": 0.2447916666666572,
          "durationTicks": 94,
          "midi": 36,
          "name": "C2",
          "ticks": 53088,
          "time": 138.25,
          "velocity": 0.8661417322834646
        },
        {
          "duration": 0.2447916666666572,
          "durationTicks": 94,
          "midi": 43,
          "name": "G2",
          "ticks": 53088,
          "time": 138.25,
          "velocity": 0.8661417322834646
        },
        {
          "duration": 0.11979166666665719,
          "durationTicks": 46,
          "midi": 48,
          "name": "C3",
          "ticks": 53184,
          "time": 138.5,
          "velocity": 0.8661417322834646
        },
        {
          "duration": 0.11979166666665719,
          "durationTicks": 46,
          "midi": 36,
          "name": "C2",
          "ticks": 53184,
          "time": 138.5,
          "velocity": 0.8661417322834646
        },
        {
          "duration": 0.11979166666665719,
          "durationTicks": 46,
          "midi": 43,
          "name": "G2",
          "ticks": 53184,
          "time": 138.5,
          "velocity": 0.8661417322834646
        },
        {
          "duration": 0.11979166666665719,
          "durationTicks": 46,
          "midi": 48,
          "name": "C3",
          "ticks": 53232,
          "time": 138.625,
          "velocity": 0.8661417322834646
        },
        {
          "duration": 0.11979166666665719,
          "durationTicks": 46,
          "midi": 36,
          "name": "C2",
          "ticks": 53232,
          "time": 138.625,
          "velocity": 0.8661417322834646
        },
        {
          "duration": 0.11979166666665719,
          "durationTicks": 46,
          "midi": 43,
          "name": "G2",
          "ticks": 53232,
          "time": 138.625,
          "velocity": 0.8661417322834646
        },
        {
          "duration": 0.11979166666665719,
          "durationTicks": 46,
          "midi": 48,
          "name": "C3",
          "ticks": 53280,
          "time": 138.75,
          "velocity": 0.8661417322834646
        },
        {
          "duration": 0.11979166666665719,
          "durationTicks": 46,
          "midi": 36,
          "name": "C2",
          "ticks": 53280,
          "time": 138.75,
          "velocity": 0.8661417322834646
        },
        {
          "duration": 0.11979166666665719,
          "durationTicks": 46,
          "midi": 43,
          "name": "G2",
          "ticks": 53280,
          "time": 138.75,
          "velocity": 0.8661417322834646
        },
        {
          "duration": 0.2447916666666572,
          "durationTicks": 94,
          "midi": 48,
          "name": "C3",
          "ticks": 53328,
          "time": 138.875,
          "velocity": 0.8661417322834646
        },
        {
          "duration": 0.2447916666666572,
          "durationTicks": 94,
          "midi": 36,
          "name": "C2",
          "ticks": 53328,
          "time": 138.875,
          "velocity": 0.8661417322834646
        },
        {
          "duration": 0.2447916666666572,
          "durationTicks": 94,
          "midi": 43,
          "name": "G2",
          "ticks": 53328,
          "time": 138.875,
          "velocity": 0.8661417322834646
        },
        {
          "duration": 0.2447916666666572,
          "durationTicks": 94,
          "midi": 48,
          "name": "C3",
          "ticks": 53424,
          "time": 139.125,
          "velocity": 0.8661417322834646
        },
        {
          "duration": 0.2447916666666572,
          "durationTicks": 94,
          "midi": 36,
          "name": "C2",
          "ticks": 53424,
          "time": 139.125,
          "velocity": 0.8661417322834646
        },
        {
          "duration": 0.2447916666666572,
          "durationTicks": 94,
          "midi": 43,
          "name": "G2",
          "ticks": 53424,
          "time": 139.125,
          "velocity": 0.8661417322834646
        },
        {
          "duration": 0.11979166666665719,
          "durationTicks": 46,
          "midi": 48,
          "name": "C3",
          "ticks": 53520,
          "time": 139.375,
          "velocity": 0.8661417322834646
        },
        {
          "duration": 0.11979166666665719,
          "durationTicks": 46,
          "midi": 36,
          "name": "C2",
          "ticks": 53520,
          "time": 139.375,
          "velocity": 0.8661417322834646
        },
        {
          "duration": 0.11979166666665719,
          "durationTicks": 46,
          "midi": 43,
          "name": "G2",
          "ticks": 53520,
          "time": 139.375,
          "velocity": 0.8661417322834646
        },
        {
          "duration": 0.11979166666665719,
          "durationTicks": 46,
          "midi": 48,
          "name": "C3",
          "ticks": 53568,
          "time": 139.5,
          "velocity": 0.8661417322834646
        },
        {
          "duration": 0.11979166666665719,
          "durationTicks": 46,
          "midi": 36,
          "name": "C2",
          "ticks": 53568,
          "time": 139.5,
          "velocity": 0.8661417322834646
        },
        {
          "duration": 0.11979166666665719,
          "durationTicks": 46,
          "midi": 43,
          "name": "G2",
          "ticks": 53568,
          "time": 139.5,
          "velocity": 0.8661417322834646
        },
        {
          "duration": 0.11979166666665719,
          "durationTicks": 46,
          "midi": 48,
          "name": "C3",
          "ticks": 53616,
          "time": 139.625,
          "velocity": 0.8661417322834646
        },
        {
          "duration": 0.11979166666665719,
          "durationTicks": 46,
          "midi": 36,
          "name": "C2",
          "ticks": 53616,
          "time": 139.625,
          "velocity": 0.8661417322834646
        },
        {
          "duration": 0.11979166666665719,
          "durationTicks": 46,
          "midi": 43,
          "name": "G2",
          "ticks": 53616,
          "time": 139.625,
          "velocity": 0.8661417322834646
        },
        {
          "duration": 0.2447916666666572,
          "durationTicks": 94,
          "midi": 48,
          "name": "C3",
          "ticks": 53664,
          "time": 139.75,
          "velocity": 0.8661417322834646
        },
        {
          "duration": 0.2447916666666572,
          "durationTicks": 94,
          "midi": 36,
          "name": "C2",
          "ticks": 53664,
          "time": 139.75,
          "velocity": 0.8661417322834646
        },
        {
          "duration": 0.25,
          "durationTicks": 96,
          "midi": 60,
          "name": "C4",
          "ticks": 53664,
          "time": 139.75,
          "velocity": 0.6299212598425197
        },
        {
          "duration": 0.2447916666666572,
          "durationTicks": 94,
          "midi": 43,
          "name": "G2",
          "ticks": 53664,
          "time": 139.75,
          "velocity": 0.8661417322834646
        },
        {
          "duration": 0.2447916666666572,
          "durationTicks": 94,
          "midi": 50,
          "name": "D3",
          "ticks": 53760,
          "time": 140,
          "velocity": 0.8661417322834646
        },
        {
          "duration": 0.2447916666666572,
          "durationTicks": 94,
          "midi": 38,
          "name": "D2",
          "ticks": 53760,
          "time": 140,
          "velocity": 0.8661417322834646
        },
        {
          "duration": 0.2447916666666572,
          "durationTicks": 94,
          "midi": 45,
          "name": "A2",
          "ticks": 53760,
          "time": 140,
          "velocity": 0.8661417322834646
        },
        {
          "duration": 0.2447916666666572,
          "durationTicks": 94,
          "midi": 50,
          "name": "D3",
          "ticks": 53856,
          "time": 140.25,
          "velocity": 0.8661417322834646
        },
        {
          "duration": 0.2447916666666572,
          "durationTicks": 94,
          "midi": 38,
          "name": "D2",
          "ticks": 53856,
          "time": 140.25,
          "velocity": 0.8661417322834646
        },
        {
          "duration": 0.2447916666666572,
          "durationTicks": 94,
          "midi": 45,
          "name": "A2",
          "ticks": 53856,
          "time": 140.25,
          "velocity": 0.8661417322834646
        },
        {
          "duration": 0.11979166666665719,
          "durationTicks": 46,
          "midi": 50,
          "name": "D3",
          "ticks": 53952,
          "time": 140.5,
          "velocity": 0.8661417322834646
        },
        {
          "duration": 0.11979166666665719,
          "durationTicks": 46,
          "midi": 38,
          "name": "D2",
          "ticks": 53952,
          "time": 140.5,
          "velocity": 0.8661417322834646
        },
        {
          "duration": 0.11979166666665719,
          "durationTicks": 46,
          "midi": 45,
          "name": "A2",
          "ticks": 53952,
          "time": 140.5,
          "velocity": 0.8661417322834646
        },
        {
          "duration": 0.11979166666665719,
          "durationTicks": 46,
          "midi": 50,
          "name": "D3",
          "ticks": 54000,
          "time": 140.625,
          "velocity": 0.8661417322834646
        },
        {
          "duration": 0.11979166666665719,
          "durationTicks": 46,
          "midi": 38,
          "name": "D2",
          "ticks": 54000,
          "time": 140.625,
          "velocity": 0.8661417322834646
        },
        {
          "duration": 0.11979166666665719,
          "durationTicks": 46,
          "midi": 45,
          "name": "A2",
          "ticks": 54000,
          "time": 140.625,
          "velocity": 0.8661417322834646
        },
        {
          "duration": 0.11979166666665719,
          "durationTicks": 46,
          "midi": 50,
          "name": "D3",
          "ticks": 54048,
          "time": 140.75,
          "velocity": 0.8661417322834646
        },
        {
          "duration": 0.11979166666665719,
          "durationTicks": 46,
          "midi": 38,
          "name": "D2",
          "ticks": 54048,
          "time": 140.75,
          "velocity": 0.8661417322834646
        },
        {
          "duration": 0.11979166666665719,
          "durationTicks": 46,
          "midi": 45,
          "name": "A2",
          "ticks": 54048,
          "time": 140.75,
          "velocity": 0.8661417322834646
        },
        {
          "duration": 0.2447916666666572,
          "durationTicks": 94,
          "midi": 50,
          "name": "D3",
          "ticks": 54096,
          "time": 140.875,
          "velocity": 0.8661417322834646
        },
        {
          "duration": 0.2447916666666572,
          "durationTicks": 94,
          "midi": 38,
          "name": "D2",
          "ticks": 54096,
          "time": 140.875,
          "velocity": 0.8661417322834646
        },
        {
          "duration": 0.2447916666666572,
          "durationTicks": 94,
          "midi": 45,
          "name": "A2",
          "ticks": 54096,
          "time": 140.875,
          "velocity": 0.8661417322834646
        },
        {
          "duration": 0.2447916666666572,
          "durationTicks": 94,
          "midi": 50,
          "name": "D3",
          "ticks": 54192,
          "time": 141.125,
          "velocity": 0.8661417322834646
        },
        {
          "duration": 0.2447916666666572,
          "durationTicks": 94,
          "midi": 38,
          "name": "D2",
          "ticks": 54192,
          "time": 141.125,
          "velocity": 0.8661417322834646
        },
        {
          "duration": 0.2447916666666572,
          "durationTicks": 94,
          "midi": 45,
          "name": "A2",
          "ticks": 54192,
          "time": 141.125,
          "velocity": 0.8661417322834646
        },
        {
          "duration": 0.11979166666665719,
          "durationTicks": 46,
          "midi": 50,
          "name": "D3",
          "ticks": 54288,
          "time": 141.375,
          "velocity": 0.8661417322834646
        },
        {
          "duration": 0.11979166666665719,
          "durationTicks": 46,
          "midi": 38,
          "name": "D2",
          "ticks": 54288,
          "time": 141.375,
          "velocity": 0.8661417322834646
        },
        {
          "duration": 0.11979166666665719,
          "durationTicks": 46,
          "midi": 45,
          "name": "A2",
          "ticks": 54288,
          "time": 141.375,
          "velocity": 0.8661417322834646
        },
        {
          "duration": 0.11979166666665719,
          "durationTicks": 46,
          "midi": 50,
          "name": "D3",
          "ticks": 54336,
          "time": 141.5,
          "velocity": 0.8661417322834646
        },
        {
          "duration": 0.11979166666665719,
          "durationTicks": 46,
          "midi": 38,
          "name": "D2",
          "ticks": 54336,
          "time": 141.5,
          "velocity": 0.8661417322834646
        },
        {
          "duration": 0.11979166666665719,
          "durationTicks": 46,
          "midi": 45,
          "name": "A2",
          "ticks": 54336,
          "time": 141.5,
          "velocity": 0.8661417322834646
        },
        {
          "duration": 0.11979166666665719,
          "durationTicks": 46,
          "midi": 50,
          "name": "D3",
          "ticks": 54384,
          "time": 141.625,
          "velocity": 0.8661417322834646
        },
        {
          "duration": 0.11979166666665719,
          "durationTicks": 46,
          "midi": 38,
          "name": "D2",
          "ticks": 54384,
          "time": 141.625,
          "velocity": 0.8661417322834646
        },
        {
          "duration": 0.11979166666665719,
          "durationTicks": 46,
          "midi": 45,
          "name": "A2",
          "ticks": 54384,
          "time": 141.625,
          "velocity": 0.8661417322834646
        },
        {
          "duration": 0.2447916666666572,
          "durationTicks": 94,
          "midi": 50,
          "name": "D3",
          "ticks": 54432,
          "time": 141.75,
          "velocity": 0.8661417322834646
        },
        {
          "duration": 0.2447916666666572,
          "durationTicks": 94,
          "midi": 38,
          "name": "D2",
          "ticks": 54432,
          "time": 141.75,
          "velocity": 0.8661417322834646
        },
        {
          "duration": 0.2447916666666572,
          "durationTicks": 94,
          "midi": 45,
          "name": "A2",
          "ticks": 54432,
          "time": 141.75,
          "velocity": 0.8661417322834646
        },
        {
          "duration": 0.2447916666666572,
          "durationTicks": 94,
          "midi": 50,
          "name": "D3",
          "ticks": 54528,
          "time": 142,
          "velocity": 0.8661417322834646
        },
        {
          "duration": 0.2447916666666572,
          "durationTicks": 94,
          "midi": 38,
          "name": "D2",
          "ticks": 54528,
          "time": 142,
          "velocity": 0.8661417322834646
        },
        {
          "duration": 0.2447916666666572,
          "durationTicks": 94,
          "midi": 45,
          "name": "A2",
          "ticks": 54528,
          "time": 142,
          "velocity": 0.8661417322834646
        },
        {
          "duration": 0.2447916666666572,
          "durationTicks": 94,
          "midi": 50,
          "name": "D3",
          "ticks": 54624,
          "time": 142.25,
          "velocity": 0.8661417322834646
        },
        {
          "duration": 0.2447916666666572,
          "durationTicks": 94,
          "midi": 38,
          "name": "D2",
          "ticks": 54624,
          "time": 142.25,
          "velocity": 0.8661417322834646
        },
        {
          "duration": 0.2447916666666572,
          "durationTicks": 94,
          "midi": 45,
          "name": "A2",
          "ticks": 54624,
          "time": 142.25,
          "velocity": 0.8661417322834646
        },
        {
          "duration": 0.11979166666665719,
          "durationTicks": 46,
          "midi": 50,
          "name": "D3",
          "ticks": 54720,
          "time": 142.5,
          "velocity": 0.8661417322834646
        },
        {
          "duration": 0.11979166666665719,
          "durationTicks": 46,
          "midi": 38,
          "name": "D2",
          "ticks": 54720,
          "time": 142.5,
          "velocity": 0.8661417322834646
        },
        {
          "duration": 0.11979166666665719,
          "durationTicks": 46,
          "midi": 45,
          "name": "A2",
          "ticks": 54720,
          "time": 142.5,
          "velocity": 0.8661417322834646
        },
        {
          "duration": 0.11979166666665719,
          "durationTicks": 46,
          "midi": 50,
          "name": "D3",
          "ticks": 54768,
          "time": 142.625,
          "velocity": 0.8661417322834646
        },
        {
          "duration": 0.11979166666665719,
          "durationTicks": 46,
          "midi": 38,
          "name": "D2",
          "ticks": 54768,
          "time": 142.625,
          "velocity": 0.8661417322834646
        },
        {
          "duration": 0.11979166666665719,
          "durationTicks": 46,
          "midi": 45,
          "name": "A2",
          "ticks": 54768,
          "time": 142.625,
          "velocity": 0.8661417322834646
        },
        {
          "duration": 0.11979166666665719,
          "durationTicks": 46,
          "midi": 50,
          "name": "D3",
          "ticks": 54816,
          "time": 142.75,
          "velocity": 0.8661417322834646
        },
        {
          "duration": 0.11979166666665719,
          "durationTicks": 46,
          "midi": 38,
          "name": "D2",
          "ticks": 54816,
          "time": 142.75,
          "velocity": 0.8661417322834646
        },
        {
          "duration": 0.11979166666665719,
          "durationTicks": 46,
          "midi": 45,
          "name": "A2",
          "ticks": 54816,
          "time": 142.75,
          "velocity": 0.8661417322834646
        },
        {
          "duration": 0.2447916666666572,
          "durationTicks": 94,
          "midi": 50,
          "name": "D3",
          "ticks": 54864,
          "time": 142.875,
          "velocity": 0.8661417322834646
        },
        {
          "duration": 0.2447916666666572,
          "durationTicks": 94,
          "midi": 38,
          "name": "D2",
          "ticks": 54864,
          "time": 142.875,
          "velocity": 0.8661417322834646
        },
        {
          "duration": 0.2447916666666572,
          "durationTicks": 94,
          "midi": 45,
          "name": "A2",
          "ticks": 54864,
          "time": 142.875,
          "velocity": 0.8661417322834646
        },
        {
          "duration": 0.2447916666666572,
          "durationTicks": 94,
          "midi": 50,
          "name": "D3",
          "ticks": 54960,
          "time": 143.125,
          "velocity": 0.8661417322834646
        },
        {
          "duration": 0.2447916666666572,
          "durationTicks": 94,
          "midi": 38,
          "name": "D2",
          "ticks": 54960,
          "time": 143.125,
          "velocity": 0.8661417322834646
        },
        {
          "duration": 0.2447916666666572,
          "durationTicks": 94,
          "midi": 45,
          "name": "A2",
          "ticks": 54960,
          "time": 143.125,
          "velocity": 0.8661417322834646
        },
        {
          "duration": 0.11979166666665719,
          "durationTicks": 46,
          "midi": 50,
          "name": "D3",
          "ticks": 55056,
          "time": 143.375,
          "velocity": 0.8661417322834646
        },
        {
          "duration": 0.11979166666665719,
          "durationTicks": 46,
          "midi": 38,
          "name": "D2",
          "ticks": 55056,
          "time": 143.375,
          "velocity": 0.8661417322834646
        },
        {
          "duration": 0.11979166666665719,
          "durationTicks": 46,
          "midi": 45,
          "name": "A2",
          "ticks": 55056,
          "time": 143.375,
          "velocity": 0.8661417322834646
        },
        {
          "duration": 0.11979166666665719,
          "durationTicks": 46,
          "midi": 50,
          "name": "D3",
          "ticks": 55104,
          "time": 143.5,
          "velocity": 0.8661417322834646
        },
        {
          "duration": 0.11979166666665719,
          "durationTicks": 46,
          "midi": 38,
          "name": "D2",
          "ticks": 55104,
          "time": 143.5,
          "velocity": 0.8661417322834646
        },
        {
          "duration": 0.11979166666665719,
          "durationTicks": 46,
          "midi": 45,
          "name": "A2",
          "ticks": 55104,
          "time": 143.5,
          "velocity": 0.8661417322834646
        },
        {
          "duration": 0.11979166666665719,
          "durationTicks": 46,
          "midi": 50,
          "name": "D3",
          "ticks": 55152,
          "time": 143.625,
          "velocity": 0.8661417322834646
        },
        {
          "duration": 0.11979166666665719,
          "durationTicks": 46,
          "midi": 38,
          "name": "D2",
          "ticks": 55152,
          "time": 143.625,
          "velocity": 0.8661417322834646
        },
        {
          "duration": 0.11979166666665719,
          "durationTicks": 46,
          "midi": 45,
          "name": "A2",
          "ticks": 55152,
          "time": 143.625,
          "velocity": 0.8661417322834646
        },
        {
          "duration": 0.2447916666666572,
          "durationTicks": 94,
          "midi": 50,
          "name": "D3",
          "ticks": 55200,
          "time": 143.75,
          "velocity": 0.8661417322834646
        },
        {
          "duration": 0.2447916666666572,
          "durationTicks": 94,
          "midi": 38,
          "name": "D2",
          "ticks": 55200,
          "time": 143.75,
          "velocity": 0.8661417322834646
        },
        {
          "duration": 0.2447916666666572,
          "durationTicks": 94,
          "midi": 45,
          "name": "A2",
          "ticks": 55200,
          "time": 143.75,
          "velocity": 0.8661417322834646
        }
      ]
    },
    {
      "channel": 0,
      "controlChanges": {
        "0": [
          {
            "number": 0,
            "ticks": 0,
            "time": 0,
            "value": 0
          }
        ],
        "32": [
          {
            "number": 32,
            "ticks": 0,
            "time": 0,
            "value": 0
          }
        ]
      },
      "pitchBends": [],
      "instrument": {
        "family": "piano",
        "number": 0,
        "name": "acoustic grand piano"
      },
      "name": "Staff-1",
      "notes": [],
      "endOfTrackTicks": 55296
    },
    {
      "channel": 1,
      "controlChanges": {
        "7": [
          {
            "number": 7,
            "ticks": 0,
            "time": 0,
            "value": 1
          },
          {
            "number": 7,
            "ticks": 0,
            "time": 0,
            "value": 1
          }
        ],
        "10": [
          {
            "number": 10,
            "ticks": 0,
            "time": 0,
            "value": 0.5039370078740157
          }
        ]
      },
      "pitchBends": [],
      "instrument": {
        "family": "bass",
        "number": 34,
        "name": "electric bass (pick)"
      },
      "name": "",
      "notes": [
        {
          "duration": 0.25,
          "durationTicks": 96,
          "midi": 38,
          "name": "D2",
          "ticks": 3072,
          "time": 8,
          "velocity": 0.8661417322834646
        },
        {
          "duration": 0.25,
          "durationTicks": 96,
          "midi": 38,
          "name": "D2",
          "ticks": 3168,
          "time": 8.25,
          "velocity": 0.8661417322834646
        },
        {
          "duration": 0.125,
          "durationTicks": 48,
          "midi": 38,
          "name": "D2",
          "ticks": 3264,
          "time": 8.5,
          "velocity": 0.8661417322834646
        },
        {
          "duration": 0.25,
          "durationTicks": 96,
          "midi": 38,
          "name": "D2",
          "ticks": 3312,
          "time": 8.625,
          "velocity": 0.8661417322834646
        },
        {
          "duration": 0.25,
          "durationTicks": 96,
          "midi": 38,
          "name": "D2",
          "ticks": 3408,
          "time": 8.875,
          "velocity": 0.8661417322834646
        },
        {
          "duration": 0.25,
          "durationTicks": 96,
          "midi": 38,
          "name": "D2",
          "ticks": 3504,
          "time": 9.125,
          "velocity": 0.8661417322834646
        },
        {
          "duration": 0.25,
          "durationTicks": 96,
          "midi": 38,
          "name": "D2",
          "ticks": 3600,
          "time": 9.375,
          "velocity": 0.8661417322834646
        },
        {
          "duration": 0.125,
          "durationTicks": 48,
          "midi": 38,
          "name": "D2",
          "ticks": 3696,
          "time": 9.625,
          "velocity": 0.8661417322834646
        },
        {
          "duration": 0.25,
          "durationTicks": 96,
          "midi": 38,
          "name": "D2",
          "ticks": 3744,
          "time": 9.75,
          "velocity": 0.8661417322834646
        },
        {
          "duration": 0.25,
          "durationTicks": 96,
          "midi": 36,
          "name": "C2",
          "ticks": 3840,
          "time": 10,
          "velocity": 0.8661417322834646
        },
        {
          "duration": 0.25,
          "durationTicks": 96,
          "midi": 36,
          "name": "C2",
          "ticks": 3936,
          "time": 10.25,
          "velocity": 0.8661417322834646
        },
        {
          "duration": 0.125,
          "durationTicks": 48,
          "midi": 36,
          "name": "C2",
          "ticks": 4032,
          "time": 10.5,
          "velocity": 0.8661417322834646
        },
        {
          "duration": 0.25,
          "durationTicks": 96,
          "midi": 36,
          "name": "C2",
          "ticks": 4080,
          "time": 10.625,
          "velocity": 0.8661417322834646
        },
        {
          "duration": 0.25,
          "durationTicks": 96,
          "midi": 36,
          "name": "C2",
          "ticks": 4176,
          "time": 10.875,
          "velocity": 0.8661417322834646
        },
        {
          "duration": 0.25,
          "durationTicks": 96,
          "midi": 36,
          "name": "C2",
          "ticks": 4272,
          "time": 11.125,
          "velocity": 0.8661417322834646
        },
        {
          "duration": 0.25,
          "durationTicks": 96,
          "midi": 36,
          "name": "C2",
          "ticks": 4368,
          "time": 11.375,
          "velocity": 0.8661417322834646
        },
        {
          "duration": 0.125,
          "durationTicks": 48,
          "midi": 36,
          "name": "C2",
          "ticks": 4464,
          "time": 11.625,
          "velocity": 0.8661417322834646
        },
        {
          "duration": 0.25,
          "durationTicks": 96,
          "midi": 36,
          "name": "C2",
          "ticks": 4512,
          "time": 11.75,
          "velocity": 0.8661417322834646
        },
        {
          "duration": 0.25,
          "durationTicks": 96,
          "midi": 35,
          "name": "B1",
          "ticks": 4608,
          "time": 12,
          "velocity": 0.8661417322834646
        },
        {
          "duration": 0.25,
          "durationTicks": 96,
          "midi": 35,
          "name": "B1",
          "ticks": 4704,
          "time": 12.25,
          "velocity": 0.8661417322834646
        },
        {
          "duration": 0.125,
          "durationTicks": 48,
          "midi": 35,
          "name": "B1",
          "ticks": 4800,
          "time": 12.5,
          "velocity": 0.8661417322834646
        },
        {
          "duration": 0.25,
          "durationTicks": 96,
          "midi": 35,
          "name": "B1",
          "ticks": 4848,
          "time": 12.625,
          "velocity": 0.8661417322834646
        },
        {
          "duration": 0.25,
          "durationTicks": 96,
          "midi": 35,
          "name": "B1",
          "ticks": 4944,
          "time": 12.875,
          "velocity": 0.8661417322834646
        },
        {
          "duration": 0.25,
          "durationTicks": 96,
          "midi": 35,
          "name": "B1",
          "ticks": 5040,
          "time": 13.125,
          "velocity": 0.8661417322834646
        },
        {
          "duration": 0.25,
          "durationTicks": 96,
          "midi": 35,
          "name": "B1",
          "ticks": 5136,
          "time": 13.375,
          "velocity": 0.8661417322834646
        },
        {
          "duration": 0.125,
          "durationTicks": 48,
          "midi": 35,
          "name": "B1",
          "ticks": 5232,
          "time": 13.625,
          "velocity": 0.8661417322834646
        },
        {
          "duration": 0.25,
          "durationTicks": 96,
          "midi": 35,
          "name": "B1",
          "ticks": 5280,
          "time": 13.75,
          "velocity": 0.8661417322834646
        },
        {
          "duration": 0.25,
          "durationTicks": 96,
          "midi": 34,
          "name": "A#1",
          "ticks": 5376,
          "time": 14,
          "velocity": 0.8661417322834646
        },
        {
          "duration": 0.25,
          "durationTicks": 96,
          "midi": 34,
          "name": "A#1",
          "ticks": 5472,
          "time": 14.25,
          "velocity": 0.8661417322834646
        },
        {
          "duration": 0.125,
          "durationTicks": 48,
          "midi": 34,
          "name": "A#1",
          "ticks": 5568,
          "time": 14.5,
          "velocity": 0.8661417322834646
        },
        {
          "duration": 0.25,
          "durationTicks": 96,
          "midi": 34,
          "name": "A#1",
          "ticks": 5616,
          "time": 14.625,
          "velocity": 0.8661417322834646
        },
        {
          "duration": 0.25,
          "durationTicks": 96,
          "midi": 36,
          "name": "C2",
          "ticks": 5712,
          "time": 14.875,
          "velocity": 0.8661417322834646
        },
        {
          "duration": 0.25,
          "durationTicks": 96,
          "midi": 36,
          "name": "C2",
          "ticks": 5808,
          "time": 15.125,
          "velocity": 0.8661417322834646
        },
        {
          "duration": 0.25,
          "durationTicks": 96,
          "midi": 36,
          "name": "C2",
          "ticks": 5904,
          "time": 15.375,
          "velocity": 0.8661417322834646
        },
        {
          "duration": 0.125,
          "durationTicks": 48,
          "midi": 36,
          "name": "C2",
          "ticks": 6000,
          "time": 15.625,
          "velocity": 0.8661417322834646
        },
        {
          "duration": 0.25,
          "durationTicks": 96,
          "midi": 36,
          "name": "C2",
          "ticks": 6048,
          "time": 15.75,
          "velocity": 0.8661417322834646
        },
        {
          "duration": 0.25,
          "durationTicks": 96,
          "midi": 38,
          "name": "D2",
          "ticks": 6144,
          "time": 16,
          "velocity": 0.8661417322834646
        },
        {
          "duration": 0.25,
          "durationTicks": 96,
          "midi": 26,
          "name": "D1",
          "ticks": 6144,
          "time": 16,
          "velocity": 0.5511811023622047
        },
        {
          "duration": 0.25,
          "durationTicks": 96,
          "midi": 38,
          "name": "D2",
          "ticks": 6240,
          "time": 16.25,
          "velocity": 0.8661417322834646
        },
        {
          "duration": 0.25,
          "durationTicks": 96,
          "midi": 26,
          "name": "D1",
          "ticks": 6240,
          "time": 16.25,
          "velocity": 0.5511811023622047
        },
        {
          "duration": 0.125,
          "durationTicks": 48,
          "midi": 38,
          "name": "D2",
          "ticks": 6336,
          "time": 16.5,
          "velocity": 0.8661417322834646
        },
        {
          "duration": 0.125,
          "durationTicks": 48,
          "midi": 26,
          "name": "D1",
          "ticks": 6336,
          "time": 16.5,
          "velocity": 0.5511811023622047
        },
        {
          "duration": 0.25,
          "durationTicks": 96,
          "midi": 38,
          "name": "D2",
          "ticks": 6384,
          "time": 16.625,
          "velocity": 0.8661417322834646
        },
        {
          "duration": 0.25,
          "durationTicks": 96,
          "midi": 26,
          "name": "D1",
          "ticks": 6384,
          "time": 16.625,
          "velocity": 0.5511811023622047
        },
        {
          "duration": 0.25,
          "durationTicks": 96,
          "midi": 38,
          "name": "D2",
          "ticks": 6480,
          "time": 16.875,
          "velocity": 0.8661417322834646
        },
        {
          "duration": 0.25,
          "durationTicks": 96,
          "midi": 26,
          "name": "D1",
          "ticks": 6480,
          "time": 16.875,
          "velocity": 0.5511811023622047
        },
        {
          "duration": 0.25,
          "durationTicks": 96,
          "midi": 38,
          "name": "D2",
          "ticks": 6576,
          "time": 17.125,
          "velocity": 0.8661417322834646
        },
        {
          "duration": 0.25,
          "durationTicks": 96,
          "midi": 26,
          "name": "D1",
          "ticks": 6576,
          "time": 17.125,
          "velocity": 0.5511811023622047
        },
        {
          "duration": 0.25,
          "durationTicks": 96,
          "midi": 38,
          "name": "D2",
          "ticks": 6672,
          "time": 17.375,
          "velocity": 0.8661417322834646
        },
        {
          "duration": 0.25,
          "durationTicks": 96,
          "midi": 26,
          "name": "D1",
          "ticks": 6672,
          "time": 17.375,
          "velocity": 0.5511811023622047
        },
        {
          "duration": 0.125,
          "durationTicks": 48,
          "midi": 38,
          "name": "D2",
          "ticks": 6768,
          "time": 17.625,
          "velocity": 0.8661417322834646
        },
        {
          "duration": 0.125,
          "durationTicks": 48,
          "midi": 26,
          "name": "D1",
          "ticks": 6768,
          "time": 17.625,
          "velocity": 0.5511811023622047
        },
        {
          "duration": 0.25,
          "durationTicks": 96,
          "midi": 38,
          "name": "D2",
          "ticks": 6816,
          "time": 17.75,
          "velocity": 0.8661417322834646
        },
        {
          "duration": 0.25,
          "durationTicks": 96,
          "midi": 26,
          "name": "D1",
          "ticks": 6816,
          "time": 17.75,
          "velocity": 0.5511811023622047
        },
        {
          "duration": 0.25,
          "durationTicks": 96,
          "midi": 36,
          "name": "C2",
          "ticks": 6912,
          "time": 18,
          "velocity": 0.8661417322834646
        },
        {
          "duration": 0.25,
          "durationTicks": 96,
          "midi": 24,
          "name": "C1",
          "ticks": 6912,
          "time": 18,
          "velocity": 0.5511811023622047
        },
        {
          "duration": 0.25,
          "durationTicks": 96,
          "midi": 36,
          "name": "C2",
          "ticks": 7008,
          "time": 18.25,
          "velocity": 0.8661417322834646
        },
        {
          "duration": 0.25,
          "durationTicks": 96,
          "midi": 24,
          "name": "C1",
          "ticks": 7008,
          "time": 18.25,
          "velocity": 0.5511811023622047
        },
        {
          "duration": 0.125,
          "durationTicks": 48,
          "midi": 36,
          "name": "C2",
          "ticks": 7104,
          "time": 18.5,
          "velocity": 0.8661417322834646
        },
        {
          "duration": 0.125,
          "durationTicks": 48,
          "midi": 24,
          "name": "C1",
          "ticks": 7104,
          "time": 18.5,
          "velocity": 0.5511811023622047
        },
        {
          "duration": 0.25,
          "durationTicks": 96,
          "midi": 36,
          "name": "C2",
          "ticks": 7152,
          "time": 18.625,
          "velocity": 0.8661417322834646
        },
        {
          "duration": 0.25,
          "durationTicks": 96,
          "midi": 24,
          "name": "C1",
          "ticks": 7152,
          "time": 18.625,
          "velocity": 0.5511811023622047
        },
        {
          "duration": 0.25,
          "durationTicks": 96,
          "midi": 36,
          "name": "C2",
          "ticks": 7248,
          "time": 18.875,
          "velocity": 0.8661417322834646
        },
        {
          "duration": 0.25,
          "durationTicks": 96,
          "midi": 24,
          "name": "C1",
          "ticks": 7248,
          "time": 18.875,
          "velocity": 0.5511811023622047
        },
        {
          "duration": 0.25,
          "durationTicks": 96,
          "midi": 36,
          "name": "C2",
          "ticks": 7344,
          "time": 19.125,
          "velocity": 0.8661417322834646
        },
        {
          "duration": 0.25,
          "durationTicks": 96,
          "midi": 24,
          "name": "C1",
          "ticks": 7344,
          "time": 19.125,
          "velocity": 0.5511811023622047
        },
        {
          "duration": 0.25,
          "durationTicks": 96,
          "midi": 36,
          "name": "C2",
          "ticks": 7440,
          "time": 19.375,
          "velocity": 0.8661417322834646
        },
        {
          "duration": 0.25,
          "durationTicks": 96,
          "midi": 24,
          "name": "C1",
          "ticks": 7440,
          "time": 19.375,
          "velocity": 0.5511811023622047
        },
        {
          "duration": 0.125,
          "durationTicks": 48,
          "midi": 36,
          "name": "C2",
          "ticks": 7536,
          "time": 19.625,
          "velocity": 0.8661417322834646
        },
        {
          "duration": 0.125,
          "durationTicks": 48,
          "midi": 24,
          "name": "C1",
          "ticks": 7536,
          "time": 19.625,
          "velocity": 0.5511811023622047
        },
        {
          "duration": 0.25,
          "durationTicks": 96,
          "midi": 36,
          "name": "C2",
          "ticks": 7584,
          "time": 19.75,
          "velocity": 0.8661417322834646
        },
        {
          "duration": 0.25,
          "durationTicks": 96,
          "midi": 24,
          "name": "C1",
          "ticks": 7584,
          "time": 19.75,
          "velocity": 0.5511811023622047
        },
        {
          "duration": 0.25,
          "durationTicks": 96,
          "midi": 35,
          "name": "B1",
          "ticks": 7680,
          "time": 20,
          "velocity": 0.8661417322834646
        },
        {
          "duration": 0.25,
          "durationTicks": 96,
          "midi": 23,
          "name": "B0",
          "ticks": 7680,
          "time": 20,
          "velocity": 0.5511811023622047
        },
        {
          "duration": 0.25,
          "durationTicks": 96,
          "midi": 35,
          "name": "B1",
          "ticks": 7776,
          "time": 20.25,
          "velocity": 0.8661417322834646
        },
        {
          "duration": 0.25,
          "durationTicks": 96,
          "midi": 23,
          "name": "B0",
          "ticks": 7776,
          "time": 20.25,
          "velocity": 0.5511811023622047
        },
        {
          "duration": 0.125,
          "durationTicks": 48,
          "midi": 35,
          "name": "B1",
          "ticks": 7872,
          "time": 20.5,
          "velocity": 0.8661417322834646
        },
        {
          "duration": 0.125,
          "durationTicks": 48,
          "midi": 23,
          "name": "B0",
          "ticks": 7872,
          "time": 20.5,
          "velocity": 0.5511811023622047
        },
        {
          "duration": 0.25,
          "durationTicks": 96,
          "midi": 35,
          "name": "B1",
          "ticks": 7920,
          "time": 20.625,
          "velocity": 0.8661417322834646
        },
        {
          "duration": 0.25,
          "durationTicks": 96,
          "midi": 23,
          "name": "B0",
          "ticks": 7920,
          "time": 20.625,
          "velocity": 0.5511811023622047
        },
        {
          "duration": 0.25,
          "durationTicks": 96,
          "midi": 35,
          "name": "B1",
          "ticks": 8016,
          "time": 20.875,
          "velocity": 0.8661417322834646
        },
        {
          "duration": 0.25,
          "durationTicks": 96,
          "midi": 23,
          "name": "B0",
          "ticks": 8016,
          "time": 20.875,
          "velocity": 0.5511811023622047
        },
        {
          "duration": 0.25,
          "durationTicks": 96,
          "midi": 35,
          "name": "B1",
          "ticks": 8112,
          "time": 21.125,
          "velocity": 0.8661417322834646
        },
        {
          "duration": 0.25,
          "durationTicks": 96,
          "midi": 23,
          "name": "B0",
          "ticks": 8112,
          "time": 21.125,
          "velocity": 0.5511811023622047
        },
        {
          "duration": 0.25,
          "durationTicks": 96,
          "midi": 35,
          "name": "B1",
          "ticks": 8208,
          "time": 21.375,
          "velocity": 0.8661417322834646
        },
        {
          "duration": 0.25,
          "durationTicks": 96,
          "midi": 23,
          "name": "B0",
          "ticks": 8208,
          "time": 21.375,
          "velocity": 0.5511811023622047
        },
        {
          "duration": 0.125,
          "durationTicks": 48,
          "midi": 35,
          "name": "B1",
          "ticks": 8304,
          "time": 21.625,
          "velocity": 0.8661417322834646
        },
        {
          "duration": 0.125,
          "durationTicks": 48,
          "midi": 23,
          "name": "B0",
          "ticks": 8304,
          "time": 21.625,
          "velocity": 0.5511811023622047
        },
        {
          "duration": 0.25,
          "durationTicks": 96,
          "midi": 35,
          "name": "B1",
          "ticks": 8352,
          "time": 21.75,
          "velocity": 0.8661417322834646
        },
        {
          "duration": 0.25,
          "durationTicks": 96,
          "midi": 23,
          "name": "B0",
          "ticks": 8352,
          "time": 21.75,
          "velocity": 0.5511811023622047
        },
        {
          "duration": 0.25,
          "durationTicks": 96,
          "midi": 34,
          "name": "A#1",
          "ticks": 8448,
          "time": 22,
          "velocity": 0.8661417322834646
        },
        {
          "duration": 0.25,
          "durationTicks": 96,
          "midi": 22,
          "name": "A#0",
          "ticks": 8448,
          "time": 22,
          "velocity": 0.5511811023622047
        },
        {
          "duration": 0.25,
          "durationTicks": 96,
          "midi": 34,
          "name": "A#1",
          "ticks": 8544,
          "time": 22.25,
          "velocity": 0.8661417322834646
        },
        {
          "duration": 0.25,
          "durationTicks": 96,
          "midi": 22,
          "name": "A#0",
          "ticks": 8544,
          "time": 22.25,
          "velocity": 0.5511811023622047
        },
        {
          "duration": 0.125,
          "durationTicks": 48,
          "midi": 34,
          "name": "A#1",
          "ticks": 8640,
          "time": 22.5,
          "velocity": 0.8661417322834646
        },
        {
          "duration": 0.125,
          "durationTicks": 48,
          "midi": 22,
          "name": "A#0",
          "ticks": 8640,
          "time": 22.5,
          "velocity": 0.5511811023622047
        },
        {
          "duration": 0.25,
          "durationTicks": 96,
          "midi": 34,
          "name": "A#1",
          "ticks": 8688,
          "time": 22.625,
          "velocity": 0.8661417322834646
        },
        {
          "duration": 0.25,
          "durationTicks": 96,
          "midi": 22,
          "name": "A#0",
          "ticks": 8688,
          "time": 22.625,
          "velocity": 0.5511811023622047
        },
        {
          "duration": 0.25,
          "durationTicks": 96,
          "midi": 36,
          "name": "C2",
          "ticks": 8784,
          "time": 22.875,
          "velocity": 0.8661417322834646
        },
        {
          "duration": 0.25,
          "durationTicks": 96,
          "midi": 24,
          "name": "C1",
          "ticks": 8784,
          "time": 22.875,
          "velocity": 0.5511811023622047
        },
        {
          "duration": 0.25,
          "durationTicks": 96,
          "midi": 36,
          "name": "C2",
          "ticks": 8880,
          "time": 23.125,
          "velocity": 0.8661417322834646
        },
        {
          "duration": 0.25,
          "durationTicks": 96,
          "midi": 24,
          "name": "C1",
          "ticks": 8880,
          "time": 23.125,
          "velocity": 0.5511811023622047
        },
        {
          "duration": 0.25,
          "durationTicks": 96,
          "midi": 36,
          "name": "C2",
          "ticks": 8976,
          "time": 23.375,
          "velocity": 0.8661417322834646
        },
        {
          "duration": 0.25,
          "durationTicks": 96,
          "midi": 24,
          "name": "C1",
          "ticks": 8976,
          "time": 23.375,
          "velocity": 0.5511811023622047
        },
        {
          "duration": 0.125,
          "durationTicks": 48,
          "midi": 36,
          "name": "C2",
          "ticks": 9072,
          "time": 23.625,
          "velocity": 0.8661417322834646
        },
        {
          "duration": 0.125,
          "durationTicks": 48,
          "midi": 24,
          "name": "C1",
          "ticks": 9072,
          "time": 23.625,
          "velocity": 0.5511811023622047
        },
        {
          "duration": 0.25,
          "durationTicks": 96,
          "midi": 36,
          "name": "C2",
          "ticks": 9120,
          "time": 23.75,
          "velocity": 0.8661417322834646
        },
        {
          "duration": 0.25,
          "durationTicks": 96,
          "midi": 24,
          "name": "C1",
          "ticks": 9120,
          "time": 23.75,
          "velocity": 0.5511811023622047
        },
        {
          "duration": 0.25,
          "durationTicks": 96,
          "midi": 38,
          "name": "D2",
          "ticks": 9216,
          "time": 24,
          "velocity": 0.8661417322834646
        },
        {
          "duration": 0.25,
          "durationTicks": 96,
          "midi": 26,
          "name": "D1",
          "ticks": 9216,
          "time": 24,
          "velocity": 0.5511811023622047
        },
        {
          "duration": 0.25,
          "durationTicks": 96,
          "midi": 38,
          "name": "D2",
          "ticks": 9312,
          "time": 24.25,
          "velocity": 0.8661417322834646
        },
        {
          "duration": 0.25,
          "durationTicks": 96,
          "midi": 26,
          "name": "D1",
          "ticks": 9312,
          "time": 24.25,
          "velocity": 0.5511811023622047
        },
        {
          "duration": 0.125,
          "durationTicks": 48,
          "midi": 38,
          "name": "D2",
          "ticks": 9408,
          "time": 24.5,
          "velocity": 0.8661417322834646
        },
        {
          "duration": 0.125,
          "durationTicks": 48,
          "midi": 26,
          "name": "D1",
          "ticks": 9408,
          "time": 24.5,
          "velocity": 0.5511811023622047
        },
        {
          "duration": 0.25,
          "durationTicks": 96,
          "midi": 38,
          "name": "D2",
          "ticks": 9456,
          "time": 24.625,
          "velocity": 0.8661417322834646
        },
        {
          "duration": 0.25,
          "durationTicks": 96,
          "midi": 26,
          "name": "D1",
          "ticks": 9456,
          "time": 24.625,
          "velocity": 0.5511811023622047
        },
        {
          "duration": 0.25,
          "durationTicks": 96,
          "midi": 38,
          "name": "D2",
          "ticks": 9552,
          "time": 24.875,
          "velocity": 0.8661417322834646
        },
        {
          "duration": 0.25,
          "durationTicks": 96,
          "midi": 26,
          "name": "D1",
          "ticks": 9552,
          "time": 24.875,
          "velocity": 0.5511811023622047
        },
        {
          "duration": 0.25,
          "durationTicks": 96,
          "midi": 38,
          "name": "D2",
          "ticks": 9648,
          "time": 25.125,
          "velocity": 0.8661417322834646
        },
        {
          "duration": 0.25,
          "durationTicks": 96,
          "midi": 26,
          "name": "D1",
          "ticks": 9648,
          "time": 25.125,
          "velocity": 0.5511811023622047
        },
        {
          "duration": 0.25,
          "durationTicks": 96,
          "midi": 38,
          "name": "D2",
          "ticks": 9744,
          "time": 25.375,
          "velocity": 0.8661417322834646
        },
        {
          "duration": 0.25,
          "durationTicks": 96,
          "midi": 26,
          "name": "D1",
          "ticks": 9744,
          "time": 25.375,
          "velocity": 0.5511811023622047
        },
        {
          "duration": 0.125,
          "durationTicks": 48,
          "midi": 38,
          "name": "D2",
          "ticks": 9840,
          "time": 25.625,
          "velocity": 0.8661417322834646
        },
        {
          "duration": 0.125,
          "durationTicks": 48,
          "midi": 26,
          "name": "D1",
          "ticks": 9840,
          "time": 25.625,
          "velocity": 0.5511811023622047
        },
        {
          "duration": 0.25,
          "durationTicks": 96,
          "midi": 38,
          "name": "D2",
          "ticks": 9888,
          "time": 25.75,
          "velocity": 0.8661417322834646
        },
        {
          "duration": 0.25,
          "durationTicks": 96,
          "midi": 26,
          "name": "D1",
          "ticks": 9888,
          "time": 25.75,
          "velocity": 0.5511811023622047
        },
        {
          "duration": 0.25,
          "durationTicks": 96,
          "midi": 36,
          "name": "C2",
          "ticks": 9984,
          "time": 26,
          "velocity": 0.8661417322834646
        },
        {
          "duration": 0.25,
          "durationTicks": 96,
          "midi": 24,
          "name": "C1",
          "ticks": 9984,
          "time": 26,
          "velocity": 0.5511811023622047
        },
        {
          "duration": 0.25,
          "durationTicks": 96,
          "midi": 36,
          "name": "C2",
          "ticks": 10080,
          "time": 26.25,
          "velocity": 0.8661417322834646
        },
        {
          "duration": 0.25,
          "durationTicks": 96,
          "midi": 24,
          "name": "C1",
          "ticks": 10080,
          "time": 26.25,
          "velocity": 0.5511811023622047
        },
        {
          "duration": 0.125,
          "durationTicks": 48,
          "midi": 36,
          "name": "C2",
          "ticks": 10176,
          "time": 26.5,
          "velocity": 0.8661417322834646
        },
        {
          "duration": 0.125,
          "durationTicks": 48,
          "midi": 24,
          "name": "C1",
          "ticks": 10176,
          "time": 26.5,
          "velocity": 0.5511811023622047
        },
        {
          "duration": 0.25,
          "durationTicks": 96,
          "midi": 36,
          "name": "C2",
          "ticks": 10224,
          "time": 26.625,
          "velocity": 0.8661417322834646
        },
        {
          "duration": 0.25,
          "durationTicks": 96,
          "midi": 24,
          "name": "C1",
          "ticks": 10224,
          "time": 26.625,
          "velocity": 0.5511811023622047
        },
        {
          "duration": 0.25,
          "durationTicks": 96,
          "midi": 36,
          "name": "C2",
          "ticks": 10320,
          "time": 26.875,
          "velocity": 0.8661417322834646
        },
        {
          "duration": 0.25,
          "durationTicks": 96,
          "midi": 24,
          "name": "C1",
          "ticks": 10320,
          "time": 26.875,
          "velocity": 0.5511811023622047
        },
        {
          "duration": 0.25,
          "durationTicks": 96,
          "midi": 36,
          "name": "C2",
          "ticks": 10416,
          "time": 27.125,
          "velocity": 0.8661417322834646
        },
        {
          "duration": 0.25,
          "durationTicks": 96,
          "midi": 24,
          "name": "C1",
          "ticks": 10416,
          "time": 27.125,
          "velocity": 0.5511811023622047
        },
        {
          "duration": 0.25,
          "durationTicks": 96,
          "midi": 36,
          "name": "C2",
          "ticks": 10512,
          "time": 27.375,
          "velocity": 0.8661417322834646
        },
        {
          "duration": 0.25,
          "durationTicks": 96,
          "midi": 24,
          "name": "C1",
          "ticks": 10512,
          "time": 27.375,
          "velocity": 0.5511811023622047
        },
        {
          "duration": 0.125,
          "durationTicks": 48,
          "midi": 36,
          "name": "C2",
          "ticks": 10608,
          "time": 27.625,
          "velocity": 0.8661417322834646
        },
        {
          "duration": 0.125,
          "durationTicks": 48,
          "midi": 24,
          "name": "C1",
          "ticks": 10608,
          "time": 27.625,
          "velocity": 0.5511811023622047
        },
        {
          "duration": 0.25,
          "durationTicks": 96,
          "midi": 36,
          "name": "C2",
          "ticks": 10656,
          "time": 27.75,
          "velocity": 0.8661417322834646
        },
        {
          "duration": 0.25,
          "durationTicks": 96,
          "midi": 24,
          "name": "C1",
          "ticks": 10656,
          "time": 27.75,
          "velocity": 0.5511811023622047
        },
        {
          "duration": 0.25,
          "durationTicks": 96,
          "midi": 35,
          "name": "B1",
          "ticks": 10752,
          "time": 28,
          "velocity": 0.8661417322834646
        },
        {
          "duration": 0.25,
          "durationTicks": 96,
          "midi": 23,
          "name": "B0",
          "ticks": 10752,
          "time": 28,
          "velocity": 0.5511811023622047
        },
        {
          "duration": 0.25,
          "durationTicks": 96,
          "midi": 35,
          "name": "B1",
          "ticks": 10848,
          "time": 28.25,
          "velocity": 0.8661417322834646
        },
        {
          "duration": 0.25,
          "durationTicks": 96,
          "midi": 23,
          "name": "B0",
          "ticks": 10848,
          "time": 28.25,
          "velocity": 0.5511811023622047
        },
        {
          "duration": 0.125,
          "durationTicks": 48,
          "midi": 35,
          "name": "B1",
          "ticks": 10944,
          "time": 28.5,
          "velocity": 0.8661417322834646
        },
        {
          "duration": 0.125,
          "durationTicks": 48,
          "midi": 23,
          "name": "B0",
          "ticks": 10944,
          "time": 28.5,
          "velocity": 0.5511811023622047
        },
        {
          "duration": 0.25,
          "durationTicks": 96,
          "midi": 35,
          "name": "B1",
          "ticks": 10992,
          "time": 28.625,
          "velocity": 0.8661417322834646
        },
        {
          "duration": 0.25,
          "durationTicks": 96,
          "midi": 23,
          "name": "B0",
          "ticks": 10992,
          "time": 28.625,
          "velocity": 0.5511811023622047
        },
        {
          "duration": 0.25,
          "durationTicks": 96,
          "midi": 35,
          "name": "B1",
          "ticks": 11088,
          "time": 28.875,
          "velocity": 0.8661417322834646
        },
        {
          "duration": 0.25,
          "durationTicks": 96,
          "midi": 23,
          "name": "B0",
          "ticks": 11088,
          "time": 28.875,
          "velocity": 0.5511811023622047
        },
        {
          "duration": 0.25,
          "durationTicks": 96,
          "midi": 35,
          "name": "B1",
          "ticks": 11184,
          "time": 29.125,
          "velocity": 0.8661417322834646
        },
        {
          "duration": 0.25,
          "durationTicks": 96,
          "midi": 23,
          "name": "B0",
          "ticks": 11184,
          "time": 29.125,
          "velocity": 0.5511811023622047
        },
        {
          "duration": 0.25,
          "durationTicks": 96,
          "midi": 35,
          "name": "B1",
          "ticks": 11280,
          "time": 29.375,
          "velocity": 0.8661417322834646
        },
        {
          "duration": 0.25,
          "durationTicks": 96,
          "midi": 23,
          "name": "B0",
          "ticks": 11280,
          "time": 29.375,
          "velocity": 0.5511811023622047
        },
        {
          "duration": 0.125,
          "durationTicks": 48,
          "midi": 35,
          "name": "B1",
          "ticks": 11376,
          "time": 29.625,
          "velocity": 0.8661417322834646
        },
        {
          "duration": 0.125,
          "durationTicks": 48,
          "midi": 23,
          "name": "B0",
          "ticks": 11376,
          "time": 29.625,
          "velocity": 0.5511811023622047
        },
        {
          "duration": 0.25,
          "durationTicks": 96,
          "midi": 35,
          "name": "B1",
          "ticks": 11424,
          "time": 29.75,
          "velocity": 0.8661417322834646
        },
        {
          "duration": 0.25,
          "durationTicks": 96,
          "midi": 23,
          "name": "B0",
          "ticks": 11424,
          "time": 29.75,
          "velocity": 0.5511811023622047
        },
        {
          "duration": 0.25,
          "durationTicks": 96,
          "midi": 34,
          "name": "A#1",
          "ticks": 11520,
          "time": 30,
          "velocity": 0.8661417322834646
        },
        {
          "duration": 0.25,
          "durationTicks": 96,
          "midi": 22,
          "name": "A#0",
          "ticks": 11520,
          "time": 30,
          "velocity": 0.5511811023622047
        },
        {
          "duration": 0.25,
          "durationTicks": 96,
          "midi": 34,
          "name": "A#1",
          "ticks": 11616,
          "time": 30.25,
          "velocity": 0.8661417322834646
        },
        {
          "duration": 0.25,
          "durationTicks": 96,
          "midi": 22,
          "name": "A#0",
          "ticks": 11616,
          "time": 30.25,
          "velocity": 0.5511811023622047
        },
        {
          "duration": 0.125,
          "durationTicks": 48,
          "midi": 34,
          "name": "A#1",
          "ticks": 11712,
          "time": 30.5,
          "velocity": 0.8661417322834646
        },
        {
          "duration": 0.125,
          "durationTicks": 48,
          "midi": 22,
          "name": "A#0",
          "ticks": 11712,
          "time": 30.5,
          "velocity": 0.5511811023622047
        },
        {
          "duration": 0.25,
          "durationTicks": 96,
          "midi": 34,
          "name": "A#1",
          "ticks": 11760,
          "time": 30.625,
          "velocity": 0.8661417322834646
        },
        {
          "duration": 0.25,
          "durationTicks": 96,
          "midi": 22,
          "name": "A#0",
          "ticks": 11760,
          "time": 30.625,
          "velocity": 0.5511811023622047
        },
        {
          "duration": 0.25,
          "durationTicks": 96,
          "midi": 36,
          "name": "C2",
          "ticks": 11856,
          "time": 30.875,
          "velocity": 0.8661417322834646
        },
        {
          "duration": 0.25,
          "durationTicks": 96,
          "midi": 24,
          "name": "C1",
          "ticks": 11856,
          "time": 30.875,
          "velocity": 0.5511811023622047
        },
        {
          "duration": 0.25,
          "durationTicks": 96,
          "midi": 36,
          "name": "C2",
          "ticks": 11952,
          "time": 31.125,
          "velocity": 0.8661417322834646
        },
        {
          "duration": 0.25,
          "durationTicks": 96,
          "midi": 24,
          "name": "C1",
          "ticks": 11952,
          "time": 31.125,
          "velocity": 0.5511811023622047
        },
        {
          "duration": 0.25,
          "durationTicks": 96,
          "midi": 36,
          "name": "C2",
          "ticks": 12048,
          "time": 31.375,
          "velocity": 0.8661417322834646
        },
        {
          "duration": 0.25,
          "durationTicks": 96,
          "midi": 24,
          "name": "C1",
          "ticks": 12048,
          "time": 31.375,
          "velocity": 0.5511811023622047
        },
        {
          "duration": 0.125,
          "durationTicks": 48,
          "midi": 36,
          "name": "C2",
          "ticks": 12144,
          "time": 31.625,
          "velocity": 0.8661417322834646
        },
        {
          "duration": 0.125,
          "durationTicks": 48,
          "midi": 24,
          "name": "C1",
          "ticks": 12144,
          "time": 31.625,
          "velocity": 0.5511811023622047
        },
        {
          "duration": 0.25,
          "durationTicks": 96,
          "midi": 36,
          "name": "C2",
          "ticks": 12192,
          "time": 31.75,
          "velocity": 0.8661417322834646
        },
        {
          "duration": 0.25,
          "durationTicks": 96,
          "midi": 24,
          "name": "C1",
          "ticks": 12192,
          "time": 31.75,
          "velocity": 0.5511811023622047
        },
        {
          "duration": 0.25,
          "durationTicks": 96,
          "midi": 38,
          "name": "D2",
          "ticks": 12288,
          "time": 32,
          "velocity": 0.8661417322834646
        },
        {
          "duration": 0.25,
          "durationTicks": 96,
          "midi": 26,
          "name": "D1",
          "ticks": 12288,
          "time": 32,
          "velocity": 0.5511811023622047
        },
        {
          "duration": 0.25,
          "durationTicks": 96,
          "midi": 38,
          "name": "D2",
          "ticks": 12384,
          "time": 32.25,
          "velocity": 0.8661417322834646
        },
        {
          "duration": 0.25,
          "durationTicks": 96,
          "midi": 26,
          "name": "D1",
          "ticks": 12384,
          "time": 32.25,
          "velocity": 0.5511811023622047
        },
        {
          "duration": 0.125,
          "durationTicks": 48,
          "midi": 38,
          "name": "D2",
          "ticks": 12480,
          "time": 32.5,
          "velocity": 0.8661417322834646
        },
        {
          "duration": 0.125,
          "durationTicks": 48,
          "midi": 26,
          "name": "D1",
          "ticks": 12480,
          "time": 32.5,
          "velocity": 0.5511811023622047
        },
        {
          "duration": 0.25,
          "durationTicks": 96,
          "midi": 38,
          "name": "D2",
          "ticks": 12528,
          "time": 32.625,
          "velocity": 0.8661417322834646
        },
        {
          "duration": 0.25,
          "durationTicks": 96,
          "midi": 26,
          "name": "D1",
          "ticks": 12528,
          "time": 32.625,
          "velocity": 0.5511811023622047
        },
        {
          "duration": 0.25,
          "durationTicks": 96,
          "midi": 38,
          "name": "D2",
          "ticks": 12624,
          "time": 32.875,
          "velocity": 0.8661417322834646
        },
        {
          "duration": 0.25,
          "durationTicks": 96,
          "midi": 26,
          "name": "D1",
          "ticks": 12624,
          "time": 32.875,
          "velocity": 0.5511811023622047
        },
        {
          "duration": 0.25,
          "durationTicks": 96,
          "midi": 38,
          "name": "D2",
          "ticks": 12720,
          "time": 33.125,
          "velocity": 0.8661417322834646
        },
        {
          "duration": 0.25,
          "durationTicks": 96,
          "midi": 26,
          "name": "D1",
          "ticks": 12720,
          "time": 33.125,
          "velocity": 0.5511811023622047
        },
        {
          "duration": 0.25,
          "durationTicks": 96,
          "midi": 38,
          "name": "D2",
          "ticks": 12816,
          "time": 33.375,
          "velocity": 0.8661417322834646
        },
        {
          "duration": 0.25,
          "durationTicks": 96,
          "midi": 26,
          "name": "D1",
          "ticks": 12816,
          "time": 33.375,
          "velocity": 0.5511811023622047
        },
        {
          "duration": 0.125,
          "durationTicks": 48,
          "midi": 38,
          "name": "D2",
          "ticks": 12912,
          "time": 33.625,
          "velocity": 0.8661417322834646
        },
        {
          "duration": 0.125,
          "durationTicks": 48,
          "midi": 26,
          "name": "D1",
          "ticks": 12912,
          "time": 33.625,
          "velocity": 0.5511811023622047
        },
        {
          "duration": 0.25,
          "durationTicks": 96,
          "midi": 38,
          "name": "D2",
          "ticks": 12960,
          "time": 33.75,
          "velocity": 0.8661417322834646
        },
        {
          "duration": 0.25,
          "durationTicks": 96,
          "midi": 26,
          "name": "D1",
          "ticks": 12960,
          "time": 33.75,
          "velocity": 0.5511811023622047
        },
        {
          "duration": 0.25,
          "durationTicks": 96,
          "midi": 36,
          "name": "C2",
          "ticks": 13056,
          "time": 34,
          "velocity": 0.8661417322834646
        },
        {
          "duration": 0.25,
          "durationTicks": 96,
          "midi": 24,
          "name": "C1",
          "ticks": 13056,
          "time": 34,
          "velocity": 0.5511811023622047
        },
        {
          "duration": 0.25,
          "durationTicks": 96,
          "midi": 36,
          "name": "C2",
          "ticks": 13152,
          "time": 34.25,
          "velocity": 0.8661417322834646
        },
        {
          "duration": 0.25,
          "durationTicks": 96,
          "midi": 24,
          "name": "C1",
          "ticks": 13152,
          "time": 34.25,
          "velocity": 0.5511811023622047
        },
        {
          "duration": 0.125,
          "durationTicks": 48,
          "midi": 36,
          "name": "C2",
          "ticks": 13248,
          "time": 34.5,
          "velocity": 0.8661417322834646
        },
        {
          "duration": 0.125,
          "durationTicks": 48,
          "midi": 24,
          "name": "C1",
          "ticks": 13248,
          "time": 34.5,
          "velocity": 0.5511811023622047
        },
        {
          "duration": 0.25,
          "durationTicks": 96,
          "midi": 36,
          "name": "C2",
          "ticks": 13296,
          "time": 34.625,
          "velocity": 0.8661417322834646
        },
        {
          "duration": 0.25,
          "durationTicks": 96,
          "midi": 24,
          "name": "C1",
          "ticks": 13296,
          "time": 34.625,
          "velocity": 0.5511811023622047
        },
        {
          "duration": 0.25,
          "durationTicks": 96,
          "midi": 36,
          "name": "C2",
          "ticks": 13392,
          "time": 34.875,
          "velocity": 0.8661417322834646
        },
        {
          "duration": 0.25,
          "durationTicks": 96,
          "midi": 24,
          "name": "C1",
          "ticks": 13392,
          "time": 34.875,
          "velocity": 0.5511811023622047
        },
        {
          "duration": 0.25,
          "durationTicks": 96,
          "midi": 36,
          "name": "C2",
          "ticks": 13488,
          "time": 35.125,
          "velocity": 0.8661417322834646
        },
        {
          "duration": 0.25,
          "durationTicks": 96,
          "midi": 24,
          "name": "C1",
          "ticks": 13488,
          "time": 35.125,
          "velocity": 0.5511811023622047
        },
        {
          "duration": 0.25,
          "durationTicks": 96,
          "midi": 36,
          "name": "C2",
          "ticks": 13584,
          "time": 35.375,
          "velocity": 0.8661417322834646
        },
        {
          "duration": 0.25,
          "durationTicks": 96,
          "midi": 24,
          "name": "C1",
          "ticks": 13584,
          "time": 35.375,
          "velocity": 0.5511811023622047
        },
        {
          "duration": 0.125,
          "durationTicks": 48,
          "midi": 36,
          "name": "C2",
          "ticks": 13680,
          "time": 35.625,
          "velocity": 0.8661417322834646
        },
        {
          "duration": 0.125,
          "durationTicks": 48,
          "midi": 24,
          "name": "C1",
          "ticks": 13680,
          "time": 35.625,
          "velocity": 0.5511811023622047
        },
        {
          "duration": 0.25,
          "durationTicks": 96,
          "midi": 36,
          "name": "C2",
          "ticks": 13728,
          "time": 35.75,
          "velocity": 0.8661417322834646
        },
        {
          "duration": 0.25,
          "durationTicks": 96,
          "midi": 24,
          "name": "C1",
          "ticks": 13728,
          "time": 35.75,
          "velocity": 0.5511811023622047
        },
        {
          "duration": 0.25,
          "durationTicks": 96,
          "midi": 35,
          "name": "B1",
          "ticks": 13824,
          "time": 36,
          "velocity": 0.8661417322834646
        },
        {
          "duration": 0.25,
          "durationTicks": 96,
          "midi": 23,
          "name": "B0",
          "ticks": 13824,
          "time": 36,
          "velocity": 0.5511811023622047
        },
        {
          "duration": 0.25,
          "durationTicks": 96,
          "midi": 35,
          "name": "B1",
          "ticks": 13920,
          "time": 36.25,
          "velocity": 0.8661417322834646
        },
        {
          "duration": 0.25,
          "durationTicks": 96,
          "midi": 23,
          "name": "B0",
          "ticks": 13920,
          "time": 36.25,
          "velocity": 0.5511811023622047
        },
        {
          "duration": 0.125,
          "durationTicks": 48,
          "midi": 35,
          "name": "B1",
          "ticks": 14016,
          "time": 36.5,
          "velocity": 0.8661417322834646
        },
        {
          "duration": 0.125,
          "durationTicks": 48,
          "midi": 23,
          "name": "B0",
          "ticks": 14016,
          "time": 36.5,
          "velocity": 0.5511811023622047
        },
        {
          "duration": 0.25,
          "durationTicks": 96,
          "midi": 35,
          "name": "B1",
          "ticks": 14064,
          "time": 36.625,
          "velocity": 0.8661417322834646
        },
        {
          "duration": 0.25,
          "durationTicks": 96,
          "midi": 23,
          "name": "B0",
          "ticks": 14064,
          "time": 36.625,
          "velocity": 0.5511811023622047
        },
        {
          "duration": 0.25,
          "durationTicks": 96,
          "midi": 35,
          "name": "B1",
          "ticks": 14160,
          "time": 36.875,
          "velocity": 0.8661417322834646
        },
        {
          "duration": 0.25,
          "durationTicks": 96,
          "midi": 23,
          "name": "B0",
          "ticks": 14160,
          "time": 36.875,
          "velocity": 0.5511811023622047
        },
        {
          "duration": 0.25,
          "durationTicks": 96,
          "midi": 35,
          "name": "B1",
          "ticks": 14256,
          "time": 37.125,
          "velocity": 0.8661417322834646
        },
        {
          "duration": 0.25,
          "durationTicks": 96,
          "midi": 23,
          "name": "B0",
          "ticks": 14256,
          "time": 37.125,
          "velocity": 0.5511811023622047
        },
        {
          "duration": 0.25,
          "durationTicks": 96,
          "midi": 35,
          "name": "B1",
          "ticks": 14352,
          "time": 37.375,
          "velocity": 0.8661417322834646
        },
        {
          "duration": 0.25,
          "durationTicks": 96,
          "midi": 23,
          "name": "B0",
          "ticks": 14352,
          "time": 37.375,
          "velocity": 0.5511811023622047
        },
        {
          "duration": 0.125,
          "durationTicks": 48,
          "midi": 35,
          "name": "B1",
          "ticks": 14448,
          "time": 37.625,
          "velocity": 0.8661417322834646
        },
        {
          "duration": 0.125,
          "durationTicks": 48,
          "midi": 23,
          "name": "B0",
          "ticks": 14448,
          "time": 37.625,
          "velocity": 0.5511811023622047
        },
        {
          "duration": 0.25,
          "durationTicks": 96,
          "midi": 35,
          "name": "B1",
          "ticks": 14496,
          "time": 37.75,
          "velocity": 0.8661417322834646
        },
        {
          "duration": 0.25,
          "durationTicks": 96,
          "midi": 23,
          "name": "B0",
          "ticks": 14496,
          "time": 37.75,
          "velocity": 0.5511811023622047
        },
        {
          "duration": 0.25,
          "durationTicks": 96,
          "midi": 34,
          "name": "A#1",
          "ticks": 14592,
          "time": 38,
          "velocity": 0.8661417322834646
        },
        {
          "duration": 0.25,
          "durationTicks": 96,
          "midi": 22,
          "name": "A#0",
          "ticks": 14592,
          "time": 38,
          "velocity": 0.5511811023622047
        },
        {
          "duration": 0.25,
          "durationTicks": 96,
          "midi": 34,
          "name": "A#1",
          "ticks": 14688,
          "time": 38.25,
          "velocity": 0.8661417322834646
        },
        {
          "duration": 0.25,
          "durationTicks": 96,
          "midi": 22,
          "name": "A#0",
          "ticks": 14688,
          "time": 38.25,
          "velocity": 0.5511811023622047
        },
        {
          "duration": 0.125,
          "durationTicks": 48,
          "midi": 34,
          "name": "A#1",
          "ticks": 14784,
          "time": 38.5,
          "velocity": 0.8661417322834646
        },
        {
          "duration": 0.125,
          "durationTicks": 48,
          "midi": 22,
          "name": "A#0",
          "ticks": 14784,
          "time": 38.5,
          "velocity": 0.5511811023622047
        },
        {
          "duration": 0.25,
          "durationTicks": 96,
          "midi": 34,
          "name": "A#1",
          "ticks": 14832,
          "time": 38.625,
          "velocity": 0.8661417322834646
        },
        {
          "duration": 0.25,
          "durationTicks": 96,
          "midi": 22,
          "name": "A#0",
          "ticks": 14832,
          "time": 38.625,
          "velocity": 0.5511811023622047
        },
        {
          "duration": 0.25,
          "durationTicks": 96,
          "midi": 36,
          "name": "C2",
          "ticks": 14928,
          "time": 38.875,
          "velocity": 0.8661417322834646
        },
        {
          "duration": 0.25,
          "durationTicks": 96,
          "midi": 24,
          "name": "C1",
          "ticks": 14928,
          "time": 38.875,
          "velocity": 0.5511811023622047
        },
        {
          "duration": 0.25,
          "durationTicks": 96,
          "midi": 36,
          "name": "C2",
          "ticks": 15024,
          "time": 39.125,
          "velocity": 0.8661417322834646
        },
        {
          "duration": 0.25,
          "durationTicks": 96,
          "midi": 24,
          "name": "C1",
          "ticks": 15024,
          "time": 39.125,
          "velocity": 0.5511811023622047
        },
        {
          "duration": 0.25,
          "durationTicks": 96,
          "midi": 36,
          "name": "C2",
          "ticks": 15120,
          "time": 39.375,
          "velocity": 0.8661417322834646
        },
        {
          "duration": 0.25,
          "durationTicks": 96,
          "midi": 24,
          "name": "C1",
          "ticks": 15120,
          "time": 39.375,
          "velocity": 0.5511811023622047
        },
        {
          "duration": 0.125,
          "durationTicks": 48,
          "midi": 36,
          "name": "C2",
          "ticks": 15216,
          "time": 39.625,
          "velocity": 0.8661417322834646
        },
        {
          "duration": 0.125,
          "durationTicks": 48,
          "midi": 24,
          "name": "C1",
          "ticks": 15216,
          "time": 39.625,
          "velocity": 0.5511811023622047
        },
        {
          "duration": 0.25,
          "durationTicks": 96,
          "midi": 36,
          "name": "C2",
          "ticks": 15264,
          "time": 39.75,
          "velocity": 0.8661417322834646
        },
        {
          "duration": 0.25,
          "durationTicks": 96,
          "midi": 24,
          "name": "C1",
          "ticks": 15264,
          "time": 39.75,
          "velocity": 0.5511811023622047
        },
        {
          "duration": 0.25,
          "durationTicks": 96,
          "midi": 38,
          "name": "D2",
          "ticks": 15360,
          "time": 40,
          "velocity": 0.8661417322834646
        },
        {
          "duration": 0.25,
          "durationTicks": 96,
          "midi": 26,
          "name": "D1",
          "ticks": 15360,
          "time": 40,
          "velocity": 0.5511811023622047
        },
        {
          "duration": 0.25,
          "durationTicks": 96,
          "midi": 38,
          "name": "D2",
          "ticks": 15456,
          "time": 40.25,
          "velocity": 0.8661417322834646
        },
        {
          "duration": 0.25,
          "durationTicks": 96,
          "midi": 26,
          "name": "D1",
          "ticks": 15456,
          "time": 40.25,
          "velocity": 0.5511811023622047
        },
        {
          "duration": 0.125,
          "durationTicks": 48,
          "midi": 38,
          "name": "D2",
          "ticks": 15552,
          "time": 40.5,
          "velocity": 0.8661417322834646
        },
        {
          "duration": 0.125,
          "durationTicks": 48,
          "midi": 26,
          "name": "D1",
          "ticks": 15552,
          "time": 40.5,
          "velocity": 0.5511811023622047
        },
        {
          "duration": 0.25,
          "durationTicks": 96,
          "midi": 38,
          "name": "D2",
          "ticks": 15600,
          "time": 40.625,
          "velocity": 0.8661417322834646
        },
        {
          "duration": 0.25,
          "durationTicks": 96,
          "midi": 26,
          "name": "D1",
          "ticks": 15600,
          "time": 40.625,
          "velocity": 0.5511811023622047
        },
        {
          "duration": 0.25,
          "durationTicks": 96,
          "midi": 38,
          "name": "D2",
          "ticks": 15696,
          "time": 40.875,
          "velocity": 0.8661417322834646
        },
        {
          "duration": 0.25,
          "durationTicks": 96,
          "midi": 26,
          "name": "D1",
          "ticks": 15696,
          "time": 40.875,
          "velocity": 0.5511811023622047
        },
        {
          "duration": 0.25,
          "durationTicks": 96,
          "midi": 38,
          "name": "D2",
          "ticks": 15792,
          "time": 41.125,
          "velocity": 0.8661417322834646
        },
        {
          "duration": 0.25,
          "durationTicks": 96,
          "midi": 26,
          "name": "D1",
          "ticks": 15792,
          "time": 41.125,
          "velocity": 0.5511811023622047
        },
        {
          "duration": 0.25,
          "durationTicks": 96,
          "midi": 38,
          "name": "D2",
          "ticks": 15888,
          "time": 41.375,
          "velocity": 0.8661417322834646
        },
        {
          "duration": 0.25,
          "durationTicks": 96,
          "midi": 26,
          "name": "D1",
          "ticks": 15888,
          "time": 41.375,
          "velocity": 0.5511811023622047
        },
        {
          "duration": 0.125,
          "durationTicks": 48,
          "midi": 38,
          "name": "D2",
          "ticks": 15984,
          "time": 41.625,
          "velocity": 0.8661417322834646
        },
        {
          "duration": 0.125,
          "durationTicks": 48,
          "midi": 26,
          "name": "D1",
          "ticks": 15984,
          "time": 41.625,
          "velocity": 0.5511811023622047
        },
        {
          "duration": 0.25,
          "durationTicks": 96,
          "midi": 38,
          "name": "D2",
          "ticks": 16032,
          "time": 41.75,
          "velocity": 0.8661417322834646
        },
        {
          "duration": 0.25,
          "durationTicks": 96,
          "midi": 26,
          "name": "D1",
          "ticks": 16032,
          "time": 41.75,
          "velocity": 0.5511811023622047
        },
        {
          "duration": 0.25,
          "durationTicks": 96,
          "midi": 36,
          "name": "C2",
          "ticks": 16128,
          "time": 42,
          "velocity": 0.8661417322834646
        },
        {
          "duration": 0.25,
          "durationTicks": 96,
          "midi": 24,
          "name": "C1",
          "ticks": 16128,
          "time": 42,
          "velocity": 0.5511811023622047
        },
        {
          "duration": 0.25,
          "durationTicks": 96,
          "midi": 36,
          "name": "C2",
          "ticks": 16224,
          "time": 42.25,
          "velocity": 0.8661417322834646
        },
        {
          "duration": 0.25,
          "durationTicks": 96,
          "midi": 24,
          "name": "C1",
          "ticks": 16224,
          "time": 42.25,
          "velocity": 0.5511811023622047
        },
        {
          "duration": 0.125,
          "durationTicks": 48,
          "midi": 36,
          "name": "C2",
          "ticks": 16320,
          "time": 42.5,
          "velocity": 0.8661417322834646
        },
        {
          "duration": 0.125,
          "durationTicks": 48,
          "midi": 24,
          "name": "C1",
          "ticks": 16320,
          "time": 42.5,
          "velocity": 0.5511811023622047
        },
        {
          "duration": 0.25,
          "durationTicks": 96,
          "midi": 36,
          "name": "C2",
          "ticks": 16368,
          "time": 42.625,
          "velocity": 0.8661417322834646
        },
        {
          "duration": 0.25,
          "durationTicks": 96,
          "midi": 24,
          "name": "C1",
          "ticks": 16368,
          "time": 42.625,
          "velocity": 0.5511811023622047
        },
        {
          "duration": 0.25,
          "durationTicks": 96,
          "midi": 36,
          "name": "C2",
          "ticks": 16464,
          "time": 42.875,
          "velocity": 0.8661417322834646
        },
        {
          "duration": 0.25,
          "durationTicks": 96,
          "midi": 24,
          "name": "C1",
          "ticks": 16464,
          "time": 42.875,
          "velocity": 0.5511811023622047
        },
        {
          "duration": 0.25,
          "durationTicks": 96,
          "midi": 36,
          "name": "C2",
          "ticks": 16560,
          "time": 43.125,
          "velocity": 0.8661417322834646
        },
        {
          "duration": 0.25,
          "durationTicks": 96,
          "midi": 24,
          "name": "C1",
          "ticks": 16560,
          "time": 43.125,
          "velocity": 0.5511811023622047
        },
        {
          "duration": 0.25,
          "durationTicks": 96,
          "midi": 36,
          "name": "C2",
          "ticks": 16656,
          "time": 43.375,
          "velocity": 0.8661417322834646
        },
        {
          "duration": 0.25,
          "durationTicks": 96,
          "midi": 24,
          "name": "C1",
          "ticks": 16656,
          "time": 43.375,
          "velocity": 0.5511811023622047
        },
        {
          "duration": 0.125,
          "durationTicks": 48,
          "midi": 36,
          "name": "C2",
          "ticks": 16752,
          "time": 43.625,
          "velocity": 0.8661417322834646
        },
        {
          "duration": 0.125,
          "durationTicks": 48,
          "midi": 24,
          "name": "C1",
          "ticks": 16752,
          "time": 43.625,
          "velocity": 0.5511811023622047
        },
        {
          "duration": 0.25,
          "durationTicks": 96,
          "midi": 36,
          "name": "C2",
          "ticks": 16800,
          "time": 43.75,
          "velocity": 0.8661417322834646
        },
        {
          "duration": 0.25,
          "durationTicks": 96,
          "midi": 24,
          "name": "C1",
          "ticks": 16800,
          "time": 43.75,
          "velocity": 0.5511811023622047
        },
        {
          "duration": 0.25,
          "durationTicks": 96,
          "midi": 35,
          "name": "B1",
          "ticks": 16896,
          "time": 44,
          "velocity": 0.8661417322834646
        },
        {
          "duration": 0.25,
          "durationTicks": 96,
          "midi": 23,
          "name": "B0",
          "ticks": 16896,
          "time": 44,
          "velocity": 0.5511811023622047
        },
        {
          "duration": 0.25,
          "durationTicks": 96,
          "midi": 35,
          "name": "B1",
          "ticks": 16992,
          "time": 44.25,
          "velocity": 0.8661417322834646
        },
        {
          "duration": 0.25,
          "durationTicks": 96,
          "midi": 23,
          "name": "B0",
          "ticks": 16992,
          "time": 44.25,
          "velocity": 0.5511811023622047
        },
        {
          "duration": 0.125,
          "durationTicks": 48,
          "midi": 35,
          "name": "B1",
          "ticks": 17088,
          "time": 44.5,
          "velocity": 0.8661417322834646
        },
        {
          "duration": 0.125,
          "durationTicks": 48,
          "midi": 23,
          "name": "B0",
          "ticks": 17088,
          "time": 44.5,
          "velocity": 0.5511811023622047
        },
        {
          "duration": 0.25,
          "durationTicks": 96,
          "midi": 35,
          "name": "B1",
          "ticks": 17136,
          "time": 44.625,
          "velocity": 0.8661417322834646
        },
        {
          "duration": 0.25,
          "durationTicks": 96,
          "midi": 23,
          "name": "B0",
          "ticks": 17136,
          "time": 44.625,
          "velocity": 0.5511811023622047
        },
        {
          "duration": 0.25,
          "durationTicks": 96,
          "midi": 35,
          "name": "B1",
          "ticks": 17232,
          "time": 44.875,
          "velocity": 0.8661417322834646
        },
        {
          "duration": 0.25,
          "durationTicks": 96,
          "midi": 23,
          "name": "B0",
          "ticks": 17232,
          "time": 44.875,
          "velocity": 0.5511811023622047
        },
        {
          "duration": 0.25,
          "durationTicks": 96,
          "midi": 35,
          "name": "B1",
          "ticks": 17328,
          "time": 45.125,
          "velocity": 0.8661417322834646
        },
        {
          "duration": 0.25,
          "durationTicks": 96,
          "midi": 23,
          "name": "B0",
          "ticks": 17328,
          "time": 45.125,
          "velocity": 0.5511811023622047
        },
        {
          "duration": 0.25,
          "durationTicks": 96,
          "midi": 35,
          "name": "B1",
          "ticks": 17424,
          "time": 45.375,
          "velocity": 0.8661417322834646
        },
        {
          "duration": 0.25,
          "durationTicks": 96,
          "midi": 23,
          "name": "B0",
          "ticks": 17424,
          "time": 45.375,
          "velocity": 0.5511811023622047
        },
        {
          "duration": 0.125,
          "durationTicks": 48,
          "midi": 35,
          "name": "B1",
          "ticks": 17520,
          "time": 45.625,
          "velocity": 0.8661417322834646
        },
        {
          "duration": 0.125,
          "durationTicks": 48,
          "midi": 23,
          "name": "B0",
          "ticks": 17520,
          "time": 45.625,
          "velocity": 0.5511811023622047
        },
        {
          "duration": 0.25,
          "durationTicks": 96,
          "midi": 35,
          "name": "B1",
          "ticks": 17568,
          "time": 45.75,
          "velocity": 0.8661417322834646
        },
        {
          "duration": 0.25,
          "durationTicks": 96,
          "midi": 23,
          "name": "B0",
          "ticks": 17568,
          "time": 45.75,
          "velocity": 0.5511811023622047
        },
        {
          "duration": 0.25,
          "durationTicks": 96,
          "midi": 34,
          "name": "A#1",
          "ticks": 17664,
          "time": 46,
          "velocity": 0.8661417322834646
        },
        {
          "duration": 0.25,
          "durationTicks": 96,
          "midi": 22,
          "name": "A#0",
          "ticks": 17664,
          "time": 46,
          "velocity": 0.5511811023622047
        },
        {
          "duration": 0.25,
          "durationTicks": 96,
          "midi": 34,
          "name": "A#1",
          "ticks": 17760,
          "time": 46.25,
          "velocity": 0.8661417322834646
        },
        {
          "duration": 0.25,
          "durationTicks": 96,
          "midi": 22,
          "name": "A#0",
          "ticks": 17760,
          "time": 46.25,
          "velocity": 0.5511811023622047
        },
        {
          "duration": 0.125,
          "durationTicks": 48,
          "midi": 34,
          "name": "A#1",
          "ticks": 17856,
          "time": 46.5,
          "velocity": 0.8661417322834646
        },
        {
          "duration": 0.125,
          "durationTicks": 48,
          "midi": 22,
          "name": "A#0",
          "ticks": 17856,
          "time": 46.5,
          "velocity": 0.5511811023622047
        },
        {
          "duration": 0.25,
          "durationTicks": 96,
          "midi": 34,
          "name": "A#1",
          "ticks": 17904,
          "time": 46.625,
          "velocity": 0.8661417322834646
        },
        {
          "duration": 0.25,
          "durationTicks": 96,
          "midi": 22,
          "name": "A#0",
          "ticks": 17904,
          "time": 46.625,
          "velocity": 0.5511811023622047
        },
        {
          "duration": 0.25,
          "durationTicks": 96,
          "midi": 36,
          "name": "C2",
          "ticks": 18000,
          "time": 46.875,
          "velocity": 0.8661417322834646
        },
        {
          "duration": 0.25,
          "durationTicks": 96,
          "midi": 24,
          "name": "C1",
          "ticks": 18000,
          "time": 46.875,
          "velocity": 0.5511811023622047
        },
        {
          "duration": 0.25,
          "durationTicks": 96,
          "midi": 36,
          "name": "C2",
          "ticks": 18096,
          "time": 47.125,
          "velocity": 0.8661417322834646
        },
        {
          "duration": 0.25,
          "durationTicks": 96,
          "midi": 24,
          "name": "C1",
          "ticks": 18096,
          "time": 47.125,
          "velocity": 0.5511811023622047
        },
        {
          "duration": 0.25,
          "durationTicks": 96,
          "midi": 36,
          "name": "C2",
          "ticks": 18192,
          "time": 47.375,
          "velocity": 0.8661417322834646
        },
        {
          "duration": 0.25,
          "durationTicks": 96,
          "midi": 24,
          "name": "C1",
          "ticks": 18192,
          "time": 47.375,
          "velocity": 0.5511811023622047
        },
        {
          "duration": 0.125,
          "durationTicks": 48,
          "midi": 36,
          "name": "C2",
          "ticks": 18288,
          "time": 47.625,
          "velocity": 0.8661417322834646
        },
        {
          "duration": 0.125,
          "durationTicks": 48,
          "midi": 24,
          "name": "C1",
          "ticks": 18288,
          "time": 47.625,
          "velocity": 0.5511811023622047
        },
        {
          "duration": 0.25,
          "durationTicks": 96,
          "midi": 36,
          "name": "C2",
          "ticks": 18336,
          "time": 47.75,
          "velocity": 0.8661417322834646
        },
        {
          "duration": 0.25,
          "durationTicks": 96,
          "midi": 24,
          "name": "C1",
          "ticks": 18336,
          "time": 47.75,
          "velocity": 0.5511811023622047
        },
        {
          "duration": 0.25,
          "durationTicks": 96,
          "midi": 34,
          "name": "A#1",
          "ticks": 18432,
          "time": 48,
          "velocity": 0.8661417322834646
        },
        {
          "duration": 0.25,
          "durationTicks": 96,
          "midi": 22,
          "name": "A#0",
          "ticks": 18432,
          "time": 48,
          "velocity": 0.5511811023622047
        },
        {
          "duration": 0.25,
          "durationTicks": 96,
          "midi": 34,
          "name": "A#1",
          "ticks": 18528,
          "time": 48.25,
          "velocity": 0.8661417322834646
        },
        {
          "duration": 0.25,
          "durationTicks": 96,
          "midi": 22,
          "name": "A#0",
          "ticks": 18528,
          "time": 48.25,
          "velocity": 0.5511811023622047
        },
        {
          "duration": 0.125,
          "durationTicks": 48,
          "midi": 34,
          "name": "A#1",
          "ticks": 18624,
          "time": 48.5,
          "velocity": 0.8661417322834646
        },
        {
          "duration": 0.125,
          "durationTicks": 48,
          "midi": 22,
          "name": "A#0",
          "ticks": 18624,
          "time": 48.5,
          "velocity": 0.5511811023622047
        },
        {
          "duration": 0.25,
          "durationTicks": 96,
          "midi": 34,
          "name": "A#1",
          "ticks": 18672,
          "time": 48.625,
          "velocity": 0.8661417322834646
        },
        {
          "duration": 0.25,
          "durationTicks": 96,
          "midi": 22,
          "name": "A#0",
          "ticks": 18672,
          "time": 48.625,
          "velocity": 0.5511811023622047
        },
        {
          "duration": 0.25,
          "durationTicks": 96,
          "midi": 34,
          "name": "A#1",
          "ticks": 18768,
          "time": 48.875,
          "velocity": 0.8661417322834646
        },
        {
          "duration": 0.25,
          "durationTicks": 96,
          "midi": 22,
          "name": "A#0",
          "ticks": 18768,
          "time": 48.875,
          "velocity": 0.5511811023622047
        },
        {
          "duration": 0.25,
          "durationTicks": 96,
          "midi": 34,
          "name": "A#1",
          "ticks": 18864,
          "time": 49.125,
          "velocity": 0.8661417322834646
        },
        {
          "duration": 0.25,
          "durationTicks": 96,
          "midi": 22,
          "name": "A#0",
          "ticks": 18864,
          "time": 49.125,
          "velocity": 0.5511811023622047
        },
        {
          "duration": 0.25,
          "durationTicks": 96,
          "midi": 34,
          "name": "A#1",
          "ticks": 18960,
          "time": 49.375,
          "velocity": 0.8661417322834646
        },
        {
          "duration": 0.25,
          "durationTicks": 96,
          "midi": 22,
          "name": "A#0",
          "ticks": 18960,
          "time": 49.375,
          "velocity": 0.5511811023622047
        },
        {
          "duration": 0.375,
          "durationTicks": 144,
          "midi": 34,
          "name": "A#1",
          "ticks": 19056,
          "time": 49.625,
          "velocity": 0.8661417322834646
        },
        {
          "duration": 0.375,
          "durationTicks": 144,
          "midi": 22,
          "name": "A#0",
          "ticks": 19056,
          "time": 49.625,
          "velocity": 0.5511811023622047
        },
        {
          "duration": 0.25,
          "durationTicks": 96,
          "midi": 46,
          "name": "A#2",
          "ticks": 19104,
          "time": 49.75,
          "velocity": 0.8661417322834646
        },
        {
          "duration": 0.25,
          "durationTicks": 96,
          "midi": 36,
          "name": "C2",
          "ticks": 19200,
          "time": 50,
          "velocity": 0.8661417322834646
        },
        {
          "duration": 0.25,
          "durationTicks": 96,
          "midi": 24,
          "name": "C1",
          "ticks": 19200,
          "time": 50,
          "velocity": 0.5511811023622047
        },
        {
          "duration": 0.25,
          "durationTicks": 96,
          "midi": 36,
          "name": "C2",
          "ticks": 19296,
          "time": 50.25,
          "velocity": 0.8661417322834646
        },
        {
          "duration": 0.25,
          "durationTicks": 96,
          "midi": 24,
          "name": "C1",
          "ticks": 19296,
          "time": 50.25,
          "velocity": 0.5511811023622047
        },
        {
          "duration": 0.125,
          "durationTicks": 48,
          "midi": 36,
          "name": "C2",
          "ticks": 19392,
          "time": 50.5,
          "velocity": 0.8661417322834646
        },
        {
          "duration": 0.125,
          "durationTicks": 48,
          "midi": 24,
          "name": "C1",
          "ticks": 19392,
          "time": 50.5,
          "velocity": 0.5511811023622047
        },
        {
          "duration": 0.25,
          "durationTicks": 96,
          "midi": 36,
          "name": "C2",
          "ticks": 19440,
          "time": 50.625,
          "velocity": 0.8661417322834646
        },
        {
          "duration": 0.25,
          "durationTicks": 96,
          "midi": 24,
          "name": "C1",
          "ticks": 19440,
          "time": 50.625,
          "velocity": 0.5511811023622047
        },
        {
          "duration": 0.25,
          "durationTicks": 96,
          "midi": 36,
          "name": "C2",
          "ticks": 19536,
          "time": 50.875,
          "velocity": 0.8661417322834646
        },
        {
          "duration": 0.25,
          "durationTicks": 96,
          "midi": 24,
          "name": "C1",
          "ticks": 19536,
          "time": 50.875,
          "velocity": 0.5511811023622047
        },
        {
          "duration": 0.25,
          "durationTicks": 96,
          "midi": 36,
          "name": "C2",
          "ticks": 19632,
          "time": 51.125,
          "velocity": 0.8661417322834646
        },
        {
          "duration": 0.25,
          "durationTicks": 96,
          "midi": 24,
          "name": "C1",
          "ticks": 19632,
          "time": 51.125,
          "velocity": 0.5511811023622047
        },
        {
          "duration": 0.25,
          "durationTicks": 96,
          "midi": 36,
          "name": "C2",
          "ticks": 19728,
          "time": 51.375,
          "velocity": 0.8661417322834646
        },
        {
          "duration": 0.25,
          "durationTicks": 96,
          "midi": 24,
          "name": "C1",
          "ticks": 19728,
          "time": 51.375,
          "velocity": 0.5511811023622047
        },
        {
          "duration": 0.375,
          "durationTicks": 144,
          "midi": 36,
          "name": "C2",
          "ticks": 19824,
          "time": 51.625,
          "velocity": 0.8661417322834646
        },
        {
          "duration": 0.375,
          "durationTicks": 144,
          "midi": 24,
          "name": "C1",
          "ticks": 19824,
          "time": 51.625,
          "velocity": 0.5511811023622047
        },
        {
          "duration": 0.25,
          "durationTicks": 96,
          "midi": 48,
          "name": "C3",
          "ticks": 19872,
          "time": 51.75,
          "velocity": 0.8661417322834646
        },
        {
          "duration": 0.25,
          "durationTicks": 96,
          "midi": 38,
          "name": "D2",
          "ticks": 19968,
          "time": 52,
          "velocity": 0.8661417322834646
        },
        {
          "duration": 0.25,
          "durationTicks": 96,
          "midi": 26,
          "name": "D1",
          "ticks": 19968,
          "time": 52,
          "velocity": 0.5511811023622047
        },
        {
          "duration": 0.25,
          "durationTicks": 96,
          "midi": 38,
          "name": "D2",
          "ticks": 20064,
          "time": 52.25,
          "velocity": 0.8661417322834646
        },
        {
          "duration": 0.25,
          "durationTicks": 96,
          "midi": 26,
          "name": "D1",
          "ticks": 20064,
          "time": 52.25,
          "velocity": 0.5511811023622047
        },
        {
          "duration": 0.125,
          "durationTicks": 48,
          "midi": 38,
          "name": "D2",
          "ticks": 20160,
          "time": 52.5,
          "velocity": 0.8661417322834646
        },
        {
          "duration": 0.125,
          "durationTicks": 48,
          "midi": 26,
          "name": "D1",
          "ticks": 20160,
          "time": 52.5,
          "velocity": 0.5511811023622047
        },
        {
          "duration": 0.25,
          "durationTicks": 96,
          "midi": 38,
          "name": "D2",
          "ticks": 20208,
          "time": 52.625,
          "velocity": 0.8661417322834646
        },
        {
          "duration": 0.25,
          "durationTicks": 96,
          "midi": 26,
          "name": "D1",
          "ticks": 20208,
          "time": 52.625,
          "velocity": 0.5511811023622047
        },
        {
          "duration": 0.25,
          "durationTicks": 96,
          "midi": 38,
          "name": "D2",
          "ticks": 20304,
          "time": 52.875,
          "velocity": 0.8661417322834646
        },
        {
          "duration": 0.25,
          "durationTicks": 96,
          "midi": 26,
          "name": "D1",
          "ticks": 20304,
          "time": 52.875,
          "velocity": 0.5511811023622047
        },
        {
          "duration": 0.25,
          "durationTicks": 96,
          "midi": 38,
          "name": "D2",
          "ticks": 20400,
          "time": 53.125,
          "velocity": 0.8661417322834646
        },
        {
          "duration": 0.25,
          "durationTicks": 96,
          "midi": 26,
          "name": "D1",
          "ticks": 20400,
          "time": 53.125,
          "velocity": 0.5511811023622047
        },
        {
          "duration": 0.25,
          "durationTicks": 96,
          "midi": 38,
          "name": "D2",
          "ticks": 20496,
          "time": 53.375,
          "velocity": 0.8661417322834646
        },
        {
          "duration": 0.25,
          "durationTicks": 96,
          "midi": 26,
          "name": "D1",
          "ticks": 20496,
          "time": 53.375,
          "velocity": 0.5511811023622047
        },
        {
          "duration": 0.375,
          "durationTicks": 144,
          "midi": 38,
          "name": "D2",
          "ticks": 20592,
          "time": 53.625,
          "velocity": 0.8661417322834646
        },
        {
          "duration": 0.375,
          "durationTicks": 144,
          "midi": 26,
          "name": "D1",
          "ticks": 20592,
          "time": 53.625,
          "velocity": 0.5511811023622047
        },
        {
          "duration": 0.25,
          "durationTicks": 96,
          "midi": 50,
          "name": "D3",
          "ticks": 20640,
          "time": 53.75,
          "velocity": 0.8661417322834646
        },
        {
          "duration": 0.25,
          "durationTicks": 96,
          "midi": 37,
          "name": "C#2",
          "ticks": 20736,
          "time": 54,
          "velocity": 0.8661417322834646
        },
        {
          "duration": 0.25,
          "durationTicks": 96,
          "midi": 25,
          "name": "C#1",
          "ticks": 20736,
          "time": 54,
          "velocity": 0.5511811023622047
        },
        {
          "duration": 0.25,
          "durationTicks": 96,
          "midi": 37,
          "name": "C#2",
          "ticks": 20832,
          "time": 54.25,
          "velocity": 0.8661417322834646
        },
        {
          "duration": 0.25,
          "durationTicks": 96,
          "midi": 25,
          "name": "C#1",
          "ticks": 20832,
          "time": 54.25,
          "velocity": 0.5511811023622047
        },
        {
          "duration": 0.125,
          "durationTicks": 48,
          "midi": 37,
          "name": "C#2",
          "ticks": 20928,
          "time": 54.5,
          "velocity": 0.8661417322834646
        },
        {
          "duration": 0.125,
          "durationTicks": 48,
          "midi": 25,
          "name": "C#1",
          "ticks": 20928,
          "time": 54.5,
          "velocity": 0.5511811023622047
        },
        {
          "duration": 0.25,
          "durationTicks": 96,
          "midi": 37,
          "name": "C#2",
          "ticks": 20976,
          "time": 54.625,
          "velocity": 0.8661417322834646
        },
        {
          "duration": 0.25,
          "durationTicks": 96,
          "midi": 25,
          "name": "C#1",
          "ticks": 20976,
          "time": 54.625,
          "velocity": 0.5511811023622047
        },
        {
          "duration": 0.25,
          "durationTicks": 96,
          "midi": 39,
          "name": "D#2",
          "ticks": 21072,
          "time": 54.875,
          "velocity": 0.8661417322834646
        },
        {
          "duration": 0.25,
          "durationTicks": 96,
          "midi": 27,
          "name": "D#1",
          "ticks": 21072,
          "time": 54.875,
          "velocity": 0.5511811023622047
        },
        {
          "duration": 0.25,
          "durationTicks": 96,
          "midi": 39,
          "name": "D#2",
          "ticks": 21168,
          "time": 55.125,
          "velocity": 0.8661417322834646
        },
        {
          "duration": 0.25,
          "durationTicks": 96,
          "midi": 27,
          "name": "D#1",
          "ticks": 21168,
          "time": 55.125,
          "velocity": 0.5511811023622047
        },
        {
          "duration": 0.25,
          "durationTicks": 96,
          "midi": 39,
          "name": "D#2",
          "ticks": 21264,
          "time": 55.375,
          "velocity": 0.8661417322834646
        },
        {
          "duration": 0.25,
          "durationTicks": 96,
          "midi": 27,
          "name": "D#1",
          "ticks": 21264,
          "time": 55.375,
          "velocity": 0.5511811023622047
        },
        {
          "duration": 0.375,
          "durationTicks": 144,
          "midi": 39,
          "name": "D#2",
          "ticks": 21360,
          "time": 55.625,
          "velocity": 0.8661417322834646
        },
        {
          "duration": 0.375,
          "durationTicks": 144,
          "midi": 27,
          "name": "D#1",
          "ticks": 21360,
          "time": 55.625,
          "velocity": 0.5511811023622047
        },
        {
          "duration": 0.25,
          "durationTicks": 96,
          "midi": 51,
          "name": "D#3",
          "ticks": 21408,
          "time": 55.75,
          "velocity": 0.8661417322834646
        },
        {
          "duration": 0.25,
          "durationTicks": 96,
          "midi": 34,
          "name": "A#1",
          "ticks": 21504,
          "time": 56,
          "velocity": 0.8661417322834646
        },
        {
          "duration": 0.25,
          "durationTicks": 96,
          "midi": 22,
          "name": "A#0",
          "ticks": 21504,
          "time": 56,
          "velocity": 0.5511811023622047
        },
        {
          "duration": 0.25,
          "durationTicks": 96,
          "midi": 34,
          "name": "A#1",
          "ticks": 21600,
          "time": 56.25,
          "velocity": 0.8661417322834646
        },
        {
          "duration": 0.25,
          "durationTicks": 96,
          "midi": 22,
          "name": "A#0",
          "ticks": 21600,
          "time": 56.25,
          "velocity": 0.5511811023622047
        },
        {
          "duration": 0.125,
          "durationTicks": 48,
          "midi": 34,
          "name": "A#1",
          "ticks": 21696,
          "time": 56.5,
          "velocity": 0.8661417322834646
        },
        {
          "duration": 0.125,
          "durationTicks": 48,
          "midi": 22,
          "name": "A#0",
          "ticks": 21696,
          "time": 56.5,
          "velocity": 0.5511811023622047
        },
        {
          "duration": 0.25,
          "durationTicks": 96,
          "midi": 34,
          "name": "A#1",
          "ticks": 21744,
          "time": 56.625,
          "velocity": 0.8661417322834646
        },
        {
          "duration": 0.25,
          "durationTicks": 96,
          "midi": 22,
          "name": "A#0",
          "ticks": 21744,
          "time": 56.625,
          "velocity": 0.5511811023622047
        },
        {
          "duration": 0.25,
          "durationTicks": 96,
          "midi": 34,
          "name": "A#1",
          "ticks": 21840,
          "time": 56.875,
          "velocity": 0.8661417322834646
        },
        {
          "duration": 0.25,
          "durationTicks": 96,
          "midi": 22,
          "name": "A#0",
          "ticks": 21840,
          "time": 56.875,
          "velocity": 0.5511811023622047
        },
        {
          "duration": 0.25,
          "durationTicks": 96,
          "midi": 34,
          "name": "A#1",
          "ticks": 21936,
          "time": 57.125,
          "velocity": 0.8661417322834646
        },
        {
          "duration": 0.25,
          "durationTicks": 96,
          "midi": 22,
          "name": "A#0",
          "ticks": 21936,
          "time": 57.125,
          "velocity": 0.5511811023622047
        },
        {
          "duration": 0.25,
          "durationTicks": 96,
          "midi": 34,
          "name": "A#1",
          "ticks": 22032,
          "time": 57.375,
          "velocity": 0.8661417322834646
        },
        {
          "duration": 0.25,
          "durationTicks": 96,
          "midi": 22,
          "name": "A#0",
          "ticks": 22032,
          "time": 57.375,
          "velocity": 0.5511811023622047
        },
        {
          "duration": 0.375,
          "durationTicks": 144,
          "midi": 34,
          "name": "A#1",
          "ticks": 22128,
          "time": 57.625,
          "velocity": 0.8661417322834646
        },
        {
          "duration": 0.375,
          "durationTicks": 144,
          "midi": 22,
          "name": "A#0",
          "ticks": 22128,
          "time": 57.625,
          "velocity": 0.5511811023622047
        },
        {
          "duration": 0.25,
          "durationTicks": 96,
          "midi": 46,
          "name": "A#2",
          "ticks": 22176,
          "time": 57.75,
          "velocity": 0.8661417322834646
        },
        {
          "duration": 0.25,
          "durationTicks": 96,
          "midi": 36,
          "name": "C2",
          "ticks": 22272,
          "time": 58,
          "velocity": 0.8661417322834646
        },
        {
          "duration": 0.25,
          "durationTicks": 96,
          "midi": 24,
          "name": "C1",
          "ticks": 22272,
          "time": 58,
          "velocity": 0.5511811023622047
        },
        {
          "duration": 0.25,
          "durationTicks": 96,
          "midi": 36,
          "name": "C2",
          "ticks": 22368,
          "time": 58.25,
          "velocity": 0.8661417322834646
        },
        {
          "duration": 0.25,
          "durationTicks": 96,
          "midi": 24,
          "name": "C1",
          "ticks": 22368,
          "time": 58.25,
          "velocity": 0.5511811023622047
        },
        {
          "duration": 0.125,
          "durationTicks": 48,
          "midi": 36,
          "name": "C2",
          "ticks": 22464,
          "time": 58.5,
          "velocity": 0.8661417322834646
        },
        {
          "duration": 0.125,
          "durationTicks": 48,
          "midi": 24,
          "name": "C1",
          "ticks": 22464,
          "time": 58.5,
          "velocity": 0.5511811023622047
        },
        {
          "duration": 0.25,
          "durationTicks": 96,
          "midi": 36,
          "name": "C2",
          "ticks": 22512,
          "time": 58.625,
          "velocity": 0.8661417322834646
        },
        {
          "duration": 0.25,
          "durationTicks": 96,
          "midi": 24,
          "name": "C1",
          "ticks": 22512,
          "time": 58.625,
          "velocity": 0.5511811023622047
        },
        {
          "duration": 0.25,
          "durationTicks": 96,
          "midi": 36,
          "name": "C2",
          "ticks": 22608,
          "time": 58.875,
          "velocity": 0.8661417322834646
        },
        {
          "duration": 0.25,
          "durationTicks": 96,
          "midi": 24,
          "name": "C1",
          "ticks": 22608,
          "time": 58.875,
          "velocity": 0.5511811023622047
        },
        {
          "duration": 0.25,
          "durationTicks": 96,
          "midi": 36,
          "name": "C2",
          "ticks": 22704,
          "time": 59.125,
          "velocity": 0.8661417322834646
        },
        {
          "duration": 0.25,
          "durationTicks": 96,
          "midi": 24,
          "name": "C1",
          "ticks": 22704,
          "time": 59.125,
          "velocity": 0.5511811023622047
        },
        {
          "duration": 0.25,
          "durationTicks": 96,
          "midi": 36,
          "name": "C2",
          "ticks": 22800,
          "time": 59.375,
          "velocity": 0.8661417322834646
        },
        {
          "duration": 0.25,
          "durationTicks": 96,
          "midi": 24,
          "name": "C1",
          "ticks": 22800,
          "time": 59.375,
          "velocity": 0.5511811023622047
        },
        {
          "duration": 0.375,
          "durationTicks": 144,
          "midi": 36,
          "name": "C2",
          "ticks": 22896,
          "time": 59.625,
          "velocity": 0.8661417322834646
        },
        {
          "duration": 0.375,
          "durationTicks": 144,
          "midi": 24,
          "name": "C1",
          "ticks": 22896,
          "time": 59.625,
          "velocity": 0.5511811023622047
        },
        {
          "duration": 0.25,
          "durationTicks": 96,
          "midi": 48,
          "name": "C3",
          "ticks": 22944,
          "time": 59.75,
          "velocity": 0.8661417322834646
        },
        {
          "duration": 0.25,
          "durationTicks": 96,
          "midi": 38,
          "name": "D2",
          "ticks": 23040,
          "time": 60,
          "velocity": 0.8661417322834646
        },
        {
          "duration": 0.25,
          "durationTicks": 96,
          "midi": 26,
          "name": "D1",
          "ticks": 23040,
          "time": 60,
          "velocity": 0.5511811023622047
        },
        {
          "duration": 0.25,
          "durationTicks": 96,
          "midi": 38,
          "name": "D2",
          "ticks": 23136,
          "time": 60.25,
          "velocity": 0.8661417322834646
        },
        {
          "duration": 0.25,
          "durationTicks": 96,
          "midi": 26,
          "name": "D1",
          "ticks": 23136,
          "time": 60.25,
          "velocity": 0.5511811023622047
        },
        {
          "duration": 0.125,
          "durationTicks": 48,
          "midi": 38,
          "name": "D2",
          "ticks": 23232,
          "time": 60.5,
          "velocity": 0.8661417322834646
        },
        {
          "duration": 0.125,
          "durationTicks": 48,
          "midi": 26,
          "name": "D1",
          "ticks": 23232,
          "time": 60.5,
          "velocity": 0.5511811023622047
        },
        {
          "duration": 0.25,
          "durationTicks": 96,
          "midi": 38,
          "name": "D2",
          "ticks": 23280,
          "time": 60.625,
          "velocity": 0.8661417322834646
        },
        {
          "duration": 0.25,
          "durationTicks": 96,
          "midi": 26,
          "name": "D1",
          "ticks": 23280,
          "time": 60.625,
          "velocity": 0.5511811023622047
        },
        {
          "duration": 0.25,
          "durationTicks": 96,
          "midi": 38,
          "name": "D2",
          "ticks": 23376,
          "time": 60.875,
          "velocity": 0.8661417322834646
        },
        {
          "duration": 0.25,
          "durationTicks": 96,
          "midi": 26,
          "name": "D1",
          "ticks": 23376,
          "time": 60.875,
          "velocity": 0.5511811023622047
        },
        {
          "duration": 0.25,
          "durationTicks": 96,
          "midi": 38,
          "name": "D2",
          "ticks": 23472,
          "time": 61.125,
          "velocity": 0.8661417322834646
        },
        {
          "duration": 0.25,
          "durationTicks": 96,
          "midi": 26,
          "name": "D1",
          "ticks": 23472,
          "time": 61.125,
          "velocity": 0.5511811023622047
        },
        {
          "duration": 0.25,
          "durationTicks": 96,
          "midi": 38,
          "name": "D2",
          "ticks": 23568,
          "time": 61.375,
          "velocity": 0.8661417322834646
        },
        {
          "duration": 0.25,
          "durationTicks": 96,
          "midi": 26,
          "name": "D1",
          "ticks": 23568,
          "time": 61.375,
          "velocity": 0.5511811023622047
        },
        {
          "duration": 0.375,
          "durationTicks": 144,
          "midi": 38,
          "name": "D2",
          "ticks": 23664,
          "time": 61.625,
          "velocity": 0.8661417322834646
        },
        {
          "duration": 0.375,
          "durationTicks": 144,
          "midi": 26,
          "name": "D1",
          "ticks": 23664,
          "time": 61.625,
          "velocity": 0.5511811023622047
        },
        {
          "duration": 0.25,
          "durationTicks": 96,
          "midi": 50,
          "name": "D3",
          "ticks": 23712,
          "time": 61.75,
          "velocity": 0.8661417322834646
        },
        {
          "duration": 0.25,
          "durationTicks": 96,
          "midi": 37,
          "name": "C#2",
          "ticks": 23808,
          "time": 62,
          "velocity": 0.8661417322834646
        },
        {
          "duration": 0.25,
          "durationTicks": 96,
          "midi": 25,
          "name": "C#1",
          "ticks": 23808,
          "time": 62,
          "velocity": 0.5511811023622047
        },
        {
          "duration": 0.25,
          "durationTicks": 96,
          "midi": 37,
          "name": "C#2",
          "ticks": 23904,
          "time": 62.25,
          "velocity": 0.8661417322834646
        },
        {
          "duration": 0.25,
          "durationTicks": 96,
          "midi": 25,
          "name": "C#1",
          "ticks": 23904,
          "time": 62.25,
          "velocity": 0.5511811023622047
        },
        {
          "duration": 0.125,
          "durationTicks": 48,
          "midi": 37,
          "name": "C#2",
          "ticks": 24000,
          "time": 62.5,
          "velocity": 0.8661417322834646
        },
        {
          "duration": 0.125,
          "durationTicks": 48,
          "midi": 25,
          "name": "C#1",
          "ticks": 24000,
          "time": 62.5,
          "velocity": 0.5511811023622047
        },
        {
          "duration": 0.25,
          "durationTicks": 96,
          "midi": 37,
          "name": "C#2",
          "ticks": 24048,
          "time": 62.625,
          "velocity": 0.8661417322834646
        },
        {
          "duration": 0.25,
          "durationTicks": 96,
          "midi": 25,
          "name": "C#1",
          "ticks": 24048,
          "time": 62.625,
          "velocity": 0.5511811023622047
        },
        {
          "duration": 0.25,
          "durationTicks": 96,
          "midi": 39,
          "name": "D#2",
          "ticks": 24144,
          "time": 62.875,
          "velocity": 0.8661417322834646
        },
        {
          "duration": 0.25,
          "durationTicks": 96,
          "midi": 27,
          "name": "D#1",
          "ticks": 24144,
          "time": 62.875,
          "velocity": 0.5511811023622047
        },
        {
          "duration": 0.25,
          "durationTicks": 96,
          "midi": 39,
          "name": "D#2",
          "ticks": 24240,
          "time": 63.125,
          "velocity": 0.8661417322834646
        },
        {
          "duration": 0.25,
          "durationTicks": 96,
          "midi": 27,
          "name": "D#1",
          "ticks": 24240,
          "time": 63.125,
          "velocity": 0.5511811023622047
        },
        {
          "duration": 0.25,
          "durationTicks": 96,
          "midi": 39,
          "name": "D#2",
          "ticks": 24336,
          "time": 63.375,
          "velocity": 0.8661417322834646
        },
        {
          "duration": 0.25,
          "durationTicks": 96,
          "midi": 27,
          "name": "D#1",
          "ticks": 24336,
          "time": 63.375,
          "velocity": 0.5511811023622047
        },
        {
          "duration": 0.375,
          "durationTicks": 144,
          "midi": 39,
          "name": "D#2",
          "ticks": 24432,
          "time": 63.625,
          "velocity": 0.8661417322834646
        },
        {
          "duration": 0.375,
          "durationTicks": 144,
          "midi": 27,
          "name": "D#1",
          "ticks": 24432,
          "time": 63.625,
          "velocity": 0.5511811023622047
        },
        {
          "duration": 0.25,
          "durationTicks": 96,
          "midi": 51,
          "name": "D#3",
          "ticks": 24480,
          "time": 63.75,
          "velocity": 0.8661417322834646
        },
        {
          "duration": 0.25,
          "durationTicks": 96,
          "midi": 34,
          "name": "A#1",
          "ticks": 24576,
          "time": 64,
          "velocity": 0.8661417322834646
        },
        {
          "duration": 0.25,
          "durationTicks": 96,
          "midi": 22,
          "name": "A#0",
          "ticks": 24576,
          "time": 64,
          "velocity": 0.5511811023622047
        },
        {
          "duration": 0.25,
          "durationTicks": 96,
          "midi": 34,
          "name": "A#1",
          "ticks": 24672,
          "time": 64.25,
          "velocity": 0.8661417322834646
        },
        {
          "duration": 0.25,
          "durationTicks": 96,
          "midi": 22,
          "name": "A#0",
          "ticks": 24672,
          "time": 64.25,
          "velocity": 0.5511811023622047
        },
        {
          "duration": 0.125,
          "durationTicks": 48,
          "midi": 34,
          "name": "A#1",
          "ticks": 24768,
          "time": 64.5,
          "velocity": 0.8661417322834646
        },
        {
          "duration": 0.125,
          "durationTicks": 48,
          "midi": 22,
          "name": "A#0",
          "ticks": 24768,
          "time": 64.5,
          "velocity": 0.5511811023622047
        },
        {
          "duration": 0.25,
          "durationTicks": 96,
          "midi": 34,
          "name": "A#1",
          "ticks": 24816,
          "time": 64.625,
          "velocity": 0.8661417322834646
        },
        {
          "duration": 0.25,
          "durationTicks": 96,
          "midi": 22,
          "name": "A#0",
          "ticks": 24816,
          "time": 64.625,
          "velocity": 0.5511811023622047
        },
        {
          "duration": 0.25,
          "durationTicks": 96,
          "midi": 34,
          "name": "A#1",
          "ticks": 24912,
          "time": 64.875,
          "velocity": 0.8661417322834646
        },
        {
          "duration": 0.25,
          "durationTicks": 96,
          "midi": 22,
          "name": "A#0",
          "ticks": 24912,
          "time": 64.875,
          "velocity": 0.5511811023622047
        },
        {
          "duration": 0.25,
          "durationTicks": 96,
          "midi": 34,
          "name": "A#1",
          "ticks": 25008,
          "time": 65.125,
          "velocity": 0.8661417322834646
        },
        {
          "duration": 0.25,
          "durationTicks": 96,
          "midi": 22,
          "name": "A#0",
          "ticks": 25008,
          "time": 65.125,
          "velocity": 0.5511811023622047
        },
        {
          "duration": 0.25,
          "durationTicks": 96,
          "midi": 34,
          "name": "A#1",
          "ticks": 25104,
          "time": 65.375,
          "velocity": 0.8661417322834646
        },
        {
          "duration": 0.25,
          "durationTicks": 96,
          "midi": 22,
          "name": "A#0",
          "ticks": 25104,
          "time": 65.375,
          "velocity": 0.5511811023622047
        },
        {
          "duration": 0.375,
          "durationTicks": 144,
          "midi": 34,
          "name": "A#1",
          "ticks": 25200,
          "time": 65.625,
          "velocity": 0.8661417322834646
        },
        {
          "duration": 0.375,
          "durationTicks": 144,
          "midi": 22,
          "name": "A#0",
          "ticks": 25200,
          "time": 65.625,
          "velocity": 0.5511811023622047
        },
        {
          "duration": 0.25,
          "durationTicks": 96,
          "midi": 46,
          "name": "A#2",
          "ticks": 25248,
          "time": 65.75,
          "velocity": 0.8661417322834646
        },
        {
          "duration": 0.25,
          "durationTicks": 96,
          "midi": 36,
          "name": "C2",
          "ticks": 25344,
          "time": 66,
          "velocity": 0.8661417322834646
        },
        {
          "duration": 0.25,
          "durationTicks": 96,
          "midi": 24,
          "name": "C1",
          "ticks": 25344,
          "time": 66,
          "velocity": 0.5511811023622047
        },
        {
          "duration": 0.25,
          "durationTicks": 96,
          "midi": 36,
          "name": "C2",
          "ticks": 25440,
          "time": 66.25,
          "velocity": 0.8661417322834646
        },
        {
          "duration": 0.25,
          "durationTicks": 96,
          "midi": 24,
          "name": "C1",
          "ticks": 25440,
          "time": 66.25,
          "velocity": 0.5511811023622047
        },
        {
          "duration": 0.125,
          "durationTicks": 48,
          "midi": 36,
          "name": "C2",
          "ticks": 25536,
          "time": 66.5,
          "velocity": 0.8661417322834646
        },
        {
          "duration": 0.125,
          "durationTicks": 48,
          "midi": 24,
          "name": "C1",
          "ticks": 25536,
          "time": 66.5,
          "velocity": 0.5511811023622047
        },
        {
          "duration": 0.25,
          "durationTicks": 96,
          "midi": 36,
          "name": "C2",
          "ticks": 25584,
          "time": 66.625,
          "velocity": 0.8661417322834646
        },
        {
          "duration": 0.25,
          "durationTicks": 96,
          "midi": 24,
          "name": "C1",
          "ticks": 25584,
          "time": 66.625,
          "velocity": 0.5511811023622047
        },
        {
          "duration": 0.25,
          "durationTicks": 96,
          "midi": 36,
          "name": "C2",
          "ticks": 25680,
          "time": 66.875,
          "velocity": 0.8661417322834646
        },
        {
          "duration": 0.25,
          "durationTicks": 96,
          "midi": 24,
          "name": "C1",
          "ticks": 25680,
          "time": 66.875,
          "velocity": 0.5511811023622047
        },
        {
          "duration": 0.25,
          "durationTicks": 96,
          "midi": 36,
          "name": "C2",
          "ticks": 25776,
          "time": 67.125,
          "velocity": 0.8661417322834646
        },
        {
          "duration": 0.25,
          "durationTicks": 96,
          "midi": 24,
          "name": "C1",
          "ticks": 25776,
          "time": 67.125,
          "velocity": 0.5511811023622047
        },
        {
          "duration": 0.25,
          "durationTicks": 96,
          "midi": 36,
          "name": "C2",
          "ticks": 25872,
          "time": 67.375,
          "velocity": 0.8661417322834646
        },
        {
          "duration": 0.25,
          "durationTicks": 96,
          "midi": 24,
          "name": "C1",
          "ticks": 25872,
          "time": 67.375,
          "velocity": 0.5511811023622047
        },
        {
          "duration": 0.375,
          "durationTicks": 144,
          "midi": 36,
          "name": "C2",
          "ticks": 25968,
          "time": 67.625,
          "velocity": 0.8661417322834646
        },
        {
          "duration": 0.375,
          "durationTicks": 144,
          "midi": 24,
          "name": "C1",
          "ticks": 25968,
          "time": 67.625,
          "velocity": 0.5511811023622047
        },
        {
          "duration": 0.25,
          "durationTicks": 96,
          "midi": 48,
          "name": "C3",
          "ticks": 26016,
          "time": 67.75,
          "velocity": 0.8661417322834646
        },
        {
          "duration": 0.25,
          "durationTicks": 96,
          "midi": 38,
          "name": "D2",
          "ticks": 26112,
          "time": 68,
          "velocity": 0.8661417322834646
        },
        {
          "duration": 0.25,
          "durationTicks": 96,
          "midi": 26,
          "name": "D1",
          "ticks": 26112,
          "time": 68,
          "velocity": 0.5511811023622047
        },
        {
          "duration": 0.25,
          "durationTicks": 96,
          "midi": 38,
          "name": "D2",
          "ticks": 26208,
          "time": 68.25,
          "velocity": 0.8661417322834646
        },
        {
          "duration": 0.25,
          "durationTicks": 96,
          "midi": 26,
          "name": "D1",
          "ticks": 26208,
          "time": 68.25,
          "velocity": 0.5511811023622047
        },
        {
          "duration": 0.125,
          "durationTicks": 48,
          "midi": 38,
          "name": "D2",
          "ticks": 26304,
          "time": 68.5,
          "velocity": 0.8661417322834646
        },
        {
          "duration": 0.125,
          "durationTicks": 48,
          "midi": 26,
          "name": "D1",
          "ticks": 26304,
          "time": 68.5,
          "velocity": 0.5511811023622047
        },
        {
          "duration": 0.25,
          "durationTicks": 96,
          "midi": 38,
          "name": "D2",
          "ticks": 26352,
          "time": 68.625,
          "velocity": 0.8661417322834646
        },
        {
          "duration": 0.25,
          "durationTicks": 96,
          "midi": 26,
          "name": "D1",
          "ticks": 26352,
          "time": 68.625,
          "velocity": 0.5511811023622047
        },
        {
          "duration": 0.25,
          "durationTicks": 96,
          "midi": 38,
          "name": "D2",
          "ticks": 26448,
          "time": 68.875,
          "velocity": 0.8661417322834646
        },
        {
          "duration": 0.25,
          "durationTicks": 96,
          "midi": 26,
          "name": "D1",
          "ticks": 26448,
          "time": 68.875,
          "velocity": 0.5511811023622047
        },
        {
          "duration": 0.25,
          "durationTicks": 96,
          "midi": 38,
          "name": "D2",
          "ticks": 26544,
          "time": 69.125,
          "velocity": 0.8661417322834646
        },
        {
          "duration": 0.25,
          "durationTicks": 96,
          "midi": 26,
          "name": "D1",
          "ticks": 26544,
          "time": 69.125,
          "velocity": 0.5511811023622047
        },
        {
          "duration": 0.25,
          "durationTicks": 96,
          "midi": 38,
          "name": "D2",
          "ticks": 26640,
          "time": 69.375,
          "velocity": 0.8661417322834646
        },
        {
          "duration": 0.25,
          "durationTicks": 96,
          "midi": 26,
          "name": "D1",
          "ticks": 26640,
          "time": 69.375,
          "velocity": 0.5511811023622047
        },
        {
          "duration": 0.375,
          "durationTicks": 144,
          "midi": 38,
          "name": "D2",
          "ticks": 26736,
          "time": 69.625,
          "velocity": 0.8661417322834646
        },
        {
          "duration": 0.375,
          "durationTicks": 144,
          "midi": 26,
          "name": "D1",
          "ticks": 26736,
          "time": 69.625,
          "velocity": 0.5511811023622047
        },
        {
          "duration": 0.25,
          "durationTicks": 96,
          "midi": 50,
          "name": "D3",
          "ticks": 26784,
          "time": 69.75,
          "velocity": 0.8661417322834646
        },
        {
          "duration": 0.25,
          "durationTicks": 96,
          "midi": 37,
          "name": "C#2",
          "ticks": 26880,
          "time": 70,
          "velocity": 0.8661417322834646
        },
        {
          "duration": 0.25,
          "durationTicks": 96,
          "midi": 25,
          "name": "C#1",
          "ticks": 26880,
          "time": 70,
          "velocity": 0.5511811023622047
        },
        {
          "duration": 0.25,
          "durationTicks": 96,
          "midi": 37,
          "name": "C#2",
          "ticks": 26976,
          "time": 70.25,
          "velocity": 0.8661417322834646
        },
        {
          "duration": 0.25,
          "durationTicks": 96,
          "midi": 25,
          "name": "C#1",
          "ticks": 26976,
          "time": 70.25,
          "velocity": 0.5511811023622047
        },
        {
          "duration": 0.125,
          "durationTicks": 48,
          "midi": 37,
          "name": "C#2",
          "ticks": 27072,
          "time": 70.5,
          "velocity": 0.8661417322834646
        },
        {
          "duration": 0.125,
          "durationTicks": 48,
          "midi": 25,
          "name": "C#1",
          "ticks": 27072,
          "time": 70.5,
          "velocity": 0.5511811023622047
        },
        {
          "duration": 0.25,
          "durationTicks": 96,
          "midi": 37,
          "name": "C#2",
          "ticks": 27120,
          "time": 70.625,
          "velocity": 0.8661417322834646
        },
        {
          "duration": 0.25,
          "durationTicks": 96,
          "midi": 25,
          "name": "C#1",
          "ticks": 27120,
          "time": 70.625,
          "velocity": 0.5511811023622047
        },
        {
          "duration": 0.25,
          "durationTicks": 96,
          "midi": 39,
          "name": "D#2",
          "ticks": 27216,
          "time": 70.875,
          "velocity": 0.8661417322834646
        },
        {
          "duration": 0.25,
          "durationTicks": 96,
          "midi": 27,
          "name": "D#1",
          "ticks": 27216,
          "time": 70.875,
          "velocity": 0.5511811023622047
        },
        {
          "duration": 0.25,
          "durationTicks": 96,
          "midi": 39,
          "name": "D#2",
          "ticks": 27312,
          "time": 71.125,
          "velocity": 0.8661417322834646
        },
        {
          "duration": 0.25,
          "durationTicks": 96,
          "midi": 27,
          "name": "D#1",
          "ticks": 27312,
          "time": 71.125,
          "velocity": 0.5511811023622047
        },
        {
          "duration": 0.25,
          "durationTicks": 96,
          "midi": 39,
          "name": "D#2",
          "ticks": 27408,
          "time": 71.375,
          "velocity": 0.8661417322834646
        },
        {
          "duration": 0.25,
          "durationTicks": 96,
          "midi": 27,
          "name": "D#1",
          "ticks": 27408,
          "time": 71.375,
          "velocity": 0.5511811023622047
        },
        {
          "duration": 0.375,
          "durationTicks": 144,
          "midi": 39,
          "name": "D#2",
          "ticks": 27504,
          "time": 71.625,
          "velocity": 0.8661417322834646
        },
        {
          "duration": 0.375,
          "durationTicks": 144,
          "midi": 27,
          "name": "D#1",
          "ticks": 27504,
          "time": 71.625,
          "velocity": 0.5511811023622047
        },
        {
          "duration": 0.25,
          "durationTicks": 96,
          "midi": 51,
          "name": "D#3",
          "ticks": 27552,
          "time": 71.75,
          "velocity": 0.8661417322834646
        },
        {
          "duration": 0.25,
          "durationTicks": 96,
          "midi": 34,
          "name": "A#1",
          "ticks": 27648,
          "time": 72,
          "velocity": 0.8661417322834646
        },
        {
          "duration": 0.25,
          "durationTicks": 96,
          "midi": 22,
          "name": "A#0",
          "ticks": 27648,
          "time": 72,
          "velocity": 0.5511811023622047
        },
        {
          "duration": 0.25,
          "durationTicks": 96,
          "midi": 34,
          "name": "A#1",
          "ticks": 27744,
          "time": 72.25,
          "velocity": 0.8661417322834646
        },
        {
          "duration": 0.25,
          "durationTicks": 96,
          "midi": 22,
          "name": "A#0",
          "ticks": 27744,
          "time": 72.25,
          "velocity": 0.5511811023622047
        },
        {
          "duration": 0.125,
          "durationTicks": 48,
          "midi": 34,
          "name": "A#1",
          "ticks": 27840,
          "time": 72.5,
          "velocity": 0.8661417322834646
        },
        {
          "duration": 0.125,
          "durationTicks": 48,
          "midi": 22,
          "name": "A#0",
          "ticks": 27840,
          "time": 72.5,
          "velocity": 0.5511811023622047
        },
        {
          "duration": 0.25,
          "durationTicks": 96,
          "midi": 34,
          "name": "A#1",
          "ticks": 27888,
          "time": 72.625,
          "velocity": 0.8661417322834646
        },
        {
          "duration": 0.25,
          "durationTicks": 96,
          "midi": 22,
          "name": "A#0",
          "ticks": 27888,
          "time": 72.625,
          "velocity": 0.5511811023622047
        },
        {
          "duration": 0.25,
          "durationTicks": 96,
          "midi": 34,
          "name": "A#1",
          "ticks": 27984,
          "time": 72.875,
          "velocity": 0.8661417322834646
        },
        {
          "duration": 0.25,
          "durationTicks": 96,
          "midi": 22,
          "name": "A#0",
          "ticks": 27984,
          "time": 72.875,
          "velocity": 0.5511811023622047
        },
        {
          "duration": 0.25,
          "durationTicks": 96,
          "midi": 34,
          "name": "A#1",
          "ticks": 28080,
          "time": 73.125,
          "velocity": 0.8661417322834646
        },
        {
          "duration": 0.25,
          "durationTicks": 96,
          "midi": 22,
          "name": "A#0",
          "ticks": 28080,
          "time": 73.125,
          "velocity": 0.5511811023622047
        },
        {
          "duration": 0.25,
          "durationTicks": 96,
          "midi": 34,
          "name": "A#1",
          "ticks": 28176,
          "time": 73.375,
          "velocity": 0.8661417322834646
        },
        {
          "duration": 0.25,
          "durationTicks": 96,
          "midi": 22,
          "name": "A#0",
          "ticks": 28176,
          "time": 73.375,
          "velocity": 0.5511811023622047
        },
        {
          "duration": 0.375,
          "durationTicks": 144,
          "midi": 34,
          "name": "A#1",
          "ticks": 28272,
          "time": 73.625,
          "velocity": 0.8661417322834646
        },
        {
          "duration": 0.375,
          "durationTicks": 144,
          "midi": 22,
          "name": "A#0",
          "ticks": 28272,
          "time": 73.625,
          "velocity": 0.5511811023622047
        },
        {
          "duration": 0.25,
          "durationTicks": 96,
          "midi": 46,
          "name": "A#2",
          "ticks": 28320,
          "time": 73.75,
          "velocity": 0.8661417322834646
        },
        {
          "duration": 0.25,
          "durationTicks": 96,
          "midi": 36,
          "name": "C2",
          "ticks": 28416,
          "time": 74,
          "velocity": 0.8661417322834646
        },
        {
          "duration": 0.25,
          "durationTicks": 96,
          "midi": 24,
          "name": "C1",
          "ticks": 28416,
          "time": 74,
          "velocity": 0.5511811023622047
        },
        {
          "duration": 0.25,
          "durationTicks": 96,
          "midi": 36,
          "name": "C2",
          "ticks": 28512,
          "time": 74.25,
          "velocity": 0.8661417322834646
        },
        {
          "duration": 0.25,
          "durationTicks": 96,
          "midi": 24,
          "name": "C1",
          "ticks": 28512,
          "time": 74.25,
          "velocity": 0.5511811023622047
        },
        {
          "duration": 0.125,
          "durationTicks": 48,
          "midi": 36,
          "name": "C2",
          "ticks": 28608,
          "time": 74.5,
          "velocity": 0.8661417322834646
        },
        {
          "duration": 0.125,
          "durationTicks": 48,
          "midi": 24,
          "name": "C1",
          "ticks": 28608,
          "time": 74.5,
          "velocity": 0.5511811023622047
        },
        {
          "duration": 0.25,
          "durationTicks": 96,
          "midi": 36,
          "name": "C2",
          "ticks": 28656,
          "time": 74.625,
          "velocity": 0.8661417322834646
        },
        {
          "duration": 0.25,
          "durationTicks": 96,
          "midi": 24,
          "name": "C1",
          "ticks": 28656,
          "time": 74.625,
          "velocity": 0.5511811023622047
        },
        {
          "duration": 0.25,
          "durationTicks": 96,
          "midi": 36,
          "name": "C2",
          "ticks": 28752,
          "time": 74.875,
          "velocity": 0.8661417322834646
        },
        {
          "duration": 0.25,
          "durationTicks": 96,
          "midi": 24,
          "name": "C1",
          "ticks": 28752,
          "time": 74.875,
          "velocity": 0.5511811023622047
        },
        {
          "duration": 0.25,
          "durationTicks": 96,
          "midi": 36,
          "name": "C2",
          "ticks": 28848,
          "time": 75.125,
          "velocity": 0.8661417322834646
        },
        {
          "duration": 0.25,
          "durationTicks": 96,
          "midi": 24,
          "name": "C1",
          "ticks": 28848,
          "time": 75.125,
          "velocity": 0.5511811023622047
        },
        {
          "duration": 0.25,
          "durationTicks": 96,
          "midi": 36,
          "name": "C2",
          "ticks": 28944,
          "time": 75.375,
          "velocity": 0.8661417322834646
        },
        {
          "duration": 0.25,
          "durationTicks": 96,
          "midi": 24,
          "name": "C1",
          "ticks": 28944,
          "time": 75.375,
          "velocity": 0.5511811023622047
        },
        {
          "duration": 0.375,
          "durationTicks": 144,
          "midi": 36,
          "name": "C2",
          "ticks": 29040,
          "time": 75.625,
          "velocity": 0.8661417322834646
        },
        {
          "duration": 0.375,
          "durationTicks": 144,
          "midi": 24,
          "name": "C1",
          "ticks": 29040,
          "time": 75.625,
          "velocity": 0.5511811023622047
        },
        {
          "duration": 0.25,
          "durationTicks": 96,
          "midi": 48,
          "name": "C3",
          "ticks": 29088,
          "time": 75.75,
          "velocity": 0.8661417322834646
        },
        {
          "duration": 0.25,
          "durationTicks": 96,
          "midi": 38,
          "name": "D2",
          "ticks": 29184,
          "time": 76,
          "velocity": 0.8661417322834646
        },
        {
          "duration": 0.25,
          "durationTicks": 96,
          "midi": 26,
          "name": "D1",
          "ticks": 29184,
          "time": 76,
          "velocity": 0.5511811023622047
        },
        {
          "duration": 0.25,
          "durationTicks": 96,
          "midi": 38,
          "name": "D2",
          "ticks": 29280,
          "time": 76.25,
          "velocity": 0.8661417322834646
        },
        {
          "duration": 0.25,
          "durationTicks": 96,
          "midi": 26,
          "name": "D1",
          "ticks": 29280,
          "time": 76.25,
          "velocity": 0.5511811023622047
        },
        {
          "duration": 0.125,
          "durationTicks": 48,
          "midi": 38,
          "name": "D2",
          "ticks": 29376,
          "time": 76.5,
          "velocity": 0.8661417322834646
        },
        {
          "duration": 0.125,
          "durationTicks": 48,
          "midi": 26,
          "name": "D1",
          "ticks": 29376,
          "time": 76.5,
          "velocity": 0.5511811023622047
        },
        {
          "duration": 0.25,
          "durationTicks": 96,
          "midi": 38,
          "name": "D2",
          "ticks": 29424,
          "time": 76.625,
          "velocity": 0.8661417322834646
        },
        {
          "duration": 0.25,
          "durationTicks": 96,
          "midi": 26,
          "name": "D1",
          "ticks": 29424,
          "time": 76.625,
          "velocity": 0.5511811023622047
        },
        {
          "duration": 0.25,
          "durationTicks": 96,
          "midi": 38,
          "name": "D2",
          "ticks": 29520,
          "time": 76.875,
          "velocity": 0.8661417322834646
        },
        {
          "duration": 0.25,
          "durationTicks": 96,
          "midi": 26,
          "name": "D1",
          "ticks": 29520,
          "time": 76.875,
          "velocity": 0.5511811023622047
        },
        {
          "duration": 0.25,
          "durationTicks": 96,
          "midi": 38,
          "name": "D2",
          "ticks": 29616,
          "time": 77.125,
          "velocity": 0.8661417322834646
        },
        {
          "duration": 0.25,
          "durationTicks": 96,
          "midi": 26,
          "name": "D1",
          "ticks": 29616,
          "time": 77.125,
          "velocity": 0.5511811023622047
        },
        {
          "duration": 0.25,
          "durationTicks": 96,
          "midi": 38,
          "name": "D2",
          "ticks": 29712,
          "time": 77.375,
          "velocity": 0.8661417322834646
        },
        {
          "duration": 0.25,
          "durationTicks": 96,
          "midi": 26,
          "name": "D1",
          "ticks": 29712,
          "time": 77.375,
          "velocity": 0.5511811023622047
        },
        {
          "duration": 0.375,
          "durationTicks": 144,
          "midi": 38,
          "name": "D2",
          "ticks": 29808,
          "time": 77.625,
          "velocity": 0.8661417322834646
        },
        {
          "duration": 0.375,
          "durationTicks": 144,
          "midi": 26,
          "name": "D1",
          "ticks": 29808,
          "time": 77.625,
          "velocity": 0.5511811023622047
        },
        {
          "duration": 0.25,
          "durationTicks": 96,
          "midi": 50,
          "name": "D3",
          "ticks": 29856,
          "time": 77.75,
          "velocity": 0.8661417322834646
        },
        {
          "duration": 0.25,
          "durationTicks": 96,
          "midi": 37,
          "name": "C#2",
          "ticks": 29952,
          "time": 78,
          "velocity": 0.8661417322834646
        },
        {
          "duration": 0.25,
          "durationTicks": 96,
          "midi": 25,
          "name": "C#1",
          "ticks": 29952,
          "time": 78,
          "velocity": 0.5511811023622047
        },
        {
          "duration": 0.25,
          "durationTicks": 96,
          "midi": 37,
          "name": "C#2",
          "ticks": 30048,
          "time": 78.25,
          "velocity": 0.8661417322834646
        },
        {
          "duration": 0.25,
          "durationTicks": 96,
          "midi": 25,
          "name": "C#1",
          "ticks": 30048,
          "time": 78.25,
          "velocity": 0.5511811023622047
        },
        {
          "duration": 0.125,
          "durationTicks": 48,
          "midi": 37,
          "name": "C#2",
          "ticks": 30144,
          "time": 78.5,
          "velocity": 0.8661417322834646
        },
        {
          "duration": 0.125,
          "durationTicks": 48,
          "midi": 25,
          "name": "C#1",
          "ticks": 30144,
          "time": 78.5,
          "velocity": 0.5511811023622047
        },
        {
          "duration": 0.25,
          "durationTicks": 96,
          "midi": 37,
          "name": "C#2",
          "ticks": 30192,
          "time": 78.625,
          "velocity": 0.8661417322834646
        },
        {
          "duration": 0.25,
          "durationTicks": 96,
          "midi": 25,
          "name": "C#1",
          "ticks": 30192,
          "time": 78.625,
          "velocity": 0.5511811023622047
        },
        {
          "duration": 0.25,
          "durationTicks": 96,
          "midi": 39,
          "name": "D#2",
          "ticks": 30288,
          "time": 78.875,
          "velocity": 0.8661417322834646
        },
        {
          "duration": 0.25,
          "durationTicks": 96,
          "midi": 27,
          "name": "D#1",
          "ticks": 30288,
          "time": 78.875,
          "velocity": 0.5511811023622047
        },
        {
          "duration": 0.25,
          "durationTicks": 96,
          "midi": 39,
          "name": "D#2",
          "ticks": 30384,
          "time": 79.125,
          "velocity": 0.8661417322834646
        },
        {
          "duration": 0.25,
          "durationTicks": 96,
          "midi": 27,
          "name": "D#1",
          "ticks": 30384,
          "time": 79.125,
          "velocity": 0.5511811023622047
        },
        {
          "duration": 0.25,
          "durationTicks": 96,
          "midi": 39,
          "name": "D#2",
          "ticks": 30480,
          "time": 79.375,
          "velocity": 0.8661417322834646
        },
        {
          "duration": 0.25,
          "durationTicks": 96,
          "midi": 27,
          "name": "D#1",
          "ticks": 30480,
          "time": 79.375,
          "velocity": 0.5511811023622047
        },
        {
          "duration": 0.375,
          "durationTicks": 144,
          "midi": 39,
          "name": "D#2",
          "ticks": 30576,
          "time": 79.625,
          "velocity": 0.8661417322834646
        },
        {
          "duration": 0.375,
          "durationTicks": 144,
          "midi": 27,
          "name": "D#1",
          "ticks": 30576,
          "time": 79.625,
          "velocity": 0.5511811023622047
        },
        {
          "duration": 0.25,
          "durationTicks": 96,
          "midi": 51,
          "name": "D#3",
          "ticks": 30624,
          "time": 79.75,
          "velocity": 0.8661417322834646
        },
        {
          "duration": 0.25,
          "durationTicks": 96,
          "midi": 34,
          "name": "A#1",
          "ticks": 30720,
          "time": 80,
          "velocity": 0.8661417322834646
        },
        {
          "duration": 0.25,
          "durationTicks": 96,
          "midi": 22,
          "name": "A#0",
          "ticks": 30720,
          "time": 80,
          "velocity": 0.5511811023622047
        },
        {
          "duration": 0.25,
          "durationTicks": 96,
          "midi": 34,
          "name": "A#1",
          "ticks": 30816,
          "time": 80.25,
          "velocity": 0.8661417322834646
        },
        {
          "duration": 0.25,
          "durationTicks": 96,
          "midi": 22,
          "name": "A#0",
          "ticks": 30816,
          "time": 80.25,
          "velocity": 0.5511811023622047
        },
        {
          "duration": 0.125,
          "durationTicks": 48,
          "midi": 34,
          "name": "A#1",
          "ticks": 30912,
          "time": 80.5,
          "velocity": 0.8661417322834646
        },
        {
          "duration": 0.125,
          "durationTicks": 48,
          "midi": 22,
          "name": "A#0",
          "ticks": 30912,
          "time": 80.5,
          "velocity": 0.5511811023622047
        },
        {
          "duration": 0.25,
          "durationTicks": 96,
          "midi": 34,
          "name": "A#1",
          "ticks": 30960,
          "time": 80.625,
          "velocity": 0.8661417322834646
        },
        {
          "duration": 0.25,
          "durationTicks": 96,
          "midi": 22,
          "name": "A#0",
          "ticks": 30960,
          "time": 80.625,
          "velocity": 0.5511811023622047
        },
        {
          "duration": 0.25,
          "durationTicks": 96,
          "midi": 34,
          "name": "A#1",
          "ticks": 31056,
          "time": 80.875,
          "velocity": 0.8661417322834646
        },
        {
          "duration": 0.25,
          "durationTicks": 96,
          "midi": 22,
          "name": "A#0",
          "ticks": 31056,
          "time": 80.875,
          "velocity": 0.5511811023622047
        },
        {
          "duration": 0.25,
          "durationTicks": 96,
          "midi": 34,
          "name": "A#1",
          "ticks": 31152,
          "time": 81.125,
          "velocity": 0.8661417322834646
        },
        {
          "duration": 0.25,
          "durationTicks": 96,
          "midi": 22,
          "name": "A#0",
          "ticks": 31152,
          "time": 81.125,
          "velocity": 0.5511811023622047
        },
        {
          "duration": 0.125,
          "durationTicks": 48,
          "midi": 34,
          "name": "A#1",
          "ticks": 31248,
          "time": 81.375,
          "velocity": 0.8661417322834646
        },
        {
          "duration": 0.125,
          "durationTicks": 48,
          "midi": 22,
          "name": "A#0",
          "ticks": 31248,
          "time": 81.375,
          "velocity": 0.5511811023622047
        },
        {
          "duration": 0.125,
          "durationTicks": 48,
          "midi": 34,
          "name": "A#1",
          "ticks": 31296,
          "time": 81.5,
          "velocity": 0.8661417322834646
        },
        {
          "duration": 0.125,
          "durationTicks": 48,
          "midi": 22,
          "name": "A#0",
          "ticks": 31296,
          "time": 81.5,
          "velocity": 0.5511811023622047
        },
        {
          "duration": 0.125,
          "durationTicks": 48,
          "midi": 34,
          "name": "A#1",
          "ticks": 31344,
          "time": 81.625,
          "velocity": 0.8661417322834646
        },
        {
          "duration": 0.125,
          "durationTicks": 48,
          "midi": 22,
          "name": "A#0",
          "ticks": 31344,
          "time": 81.625,
          "velocity": 0.5511811023622047
        },
        {
          "duration": 0.25,
          "durationTicks": 96,
          "midi": 34,
          "name": "A#1",
          "ticks": 31392,
          "time": 81.75,
          "velocity": 0.8661417322834646
        },
        {
          "duration": 0.25,
          "durationTicks": 96,
          "midi": 22,
          "name": "A#0",
          "ticks": 31392,
          "time": 81.75,
          "velocity": 0.5511811023622047
        },
        {
          "duration": 0.25,
          "durationTicks": 96,
          "midi": 36,
          "name": "C2",
          "ticks": 31488,
          "time": 82,
          "velocity": 0.8661417322834646
        },
        {
          "duration": 0.25,
          "durationTicks": 96,
          "midi": 24,
          "name": "C1",
          "ticks": 31488,
          "time": 82,
          "velocity": 0.5511811023622047
        },
        {
          "duration": 0.25,
          "durationTicks": 96,
          "midi": 36,
          "name": "C2",
          "ticks": 31584,
          "time": 82.25,
          "velocity": 0.8661417322834646
        },
        {
          "duration": 0.25,
          "durationTicks": 96,
          "midi": 24,
          "name": "C1",
          "ticks": 31584,
          "time": 82.25,
          "velocity": 0.5511811023622047
        },
        {
          "duration": 0.125,
          "durationTicks": 48,
          "midi": 36,
          "name": "C2",
          "ticks": 31680,
          "time": 82.5,
          "velocity": 0.8661417322834646
        },
        {
          "duration": 0.125,
          "durationTicks": 48,
          "midi": 24,
          "name": "C1",
          "ticks": 31680,
          "time": 82.5,
          "velocity": 0.5511811023622047
        },
        {
          "duration": 0.25,
          "durationTicks": 96,
          "midi": 36,
          "name": "C2",
          "ticks": 31728,
          "time": 82.625,
          "velocity": 0.8661417322834646
        },
        {
          "duration": 0.25,
          "durationTicks": 96,
          "midi": 24,
          "name": "C1",
          "ticks": 31728,
          "time": 82.625,
          "velocity": 0.5511811023622047
        },
        {
          "duration": 0.25,
          "durationTicks": 96,
          "midi": 36,
          "name": "C2",
          "ticks": 31824,
          "time": 82.875,
          "velocity": 0.8661417322834646
        },
        {
          "duration": 0.25,
          "durationTicks": 96,
          "midi": 24,
          "name": "C1",
          "ticks": 31824,
          "time": 82.875,
          "velocity": 0.5511811023622047
        },
        {
          "duration": 0.25,
          "durationTicks": 96,
          "midi": 36,
          "name": "C2",
          "ticks": 31920,
          "time": 83.125,
          "velocity": 0.8661417322834646
        },
        {
          "duration": 0.25,
          "durationTicks": 96,
          "midi": 24,
          "name": "C1",
          "ticks": 31920,
          "time": 83.125,
          "velocity": 0.5511811023622047
        },
        {
          "duration": 0.125,
          "durationTicks": 48,
          "midi": 36,
          "name": "C2",
          "ticks": 32016,
          "time": 83.375,
          "velocity": 0.8661417322834646
        },
        {
          "duration": 0.125,
          "durationTicks": 48,
          "midi": 24,
          "name": "C1",
          "ticks": 32016,
          "time": 83.375,
          "velocity": 0.5511811023622047
        },
        {
          "duration": 0.125,
          "durationTicks": 48,
          "midi": 36,
          "name": "C2",
          "ticks": 32064,
          "time": 83.5,
          "velocity": 0.8661417322834646
        },
        {
          "duration": 0.125,
          "durationTicks": 48,
          "midi": 24,
          "name": "C1",
          "ticks": 32064,
          "time": 83.5,
          "velocity": 0.5511811023622047
        },
        {
          "duration": 0.125,
          "durationTicks": 48,
          "midi": 36,
          "name": "C2",
          "ticks": 32112,
          "time": 83.625,
          "velocity": 0.8661417322834646
        },
        {
          "duration": 0.125,
          "durationTicks": 48,
          "midi": 24,
          "name": "C1",
          "ticks": 32112,
          "time": 83.625,
          "velocity": 0.5511811023622047
        },
        {
          "duration": 0.25,
          "durationTicks": 96,
          "midi": 36,
          "name": "C2",
          "ticks": 32160,
          "time": 83.75,
          "velocity": 0.8661417322834646
        },
        {
          "duration": 0.25,
          "durationTicks": 96,
          "midi": 24,
          "name": "C1",
          "ticks": 32160,
          "time": 83.75,
          "velocity": 0.5511811023622047
        },
        {
          "duration": 0.25,
          "durationTicks": 96,
          "midi": 35,
          "name": "B1",
          "ticks": 32256,
          "time": 84,
          "velocity": 0.8661417322834646
        },
        {
          "duration": 0.25,
          "durationTicks": 96,
          "midi": 23,
          "name": "B0",
          "ticks": 32256,
          "time": 84,
          "velocity": 0.5511811023622047
        },
        {
          "duration": 0.25,
          "durationTicks": 96,
          "midi": 35,
          "name": "B1",
          "ticks": 32352,
          "time": 84.25,
          "velocity": 0.8661417322834646
        },
        {
          "duration": 0.25,
          "durationTicks": 96,
          "midi": 23,
          "name": "B0",
          "ticks": 32352,
          "time": 84.25,
          "velocity": 0.5511811023622047
        },
        {
          "duration": 0.125,
          "durationTicks": 48,
          "midi": 35,
          "name": "B1",
          "ticks": 32448,
          "time": 84.5,
          "velocity": 0.8661417322834646
        },
        {
          "duration": 0.125,
          "durationTicks": 48,
          "midi": 23,
          "name": "B0",
          "ticks": 32448,
          "time": 84.5,
          "velocity": 0.5511811023622047
        },
        {
          "duration": 0.25,
          "durationTicks": 96,
          "midi": 35,
          "name": "B1",
          "ticks": 32496,
          "time": 84.625,
          "velocity": 0.8661417322834646
        },
        {
          "duration": 0.25,
          "durationTicks": 96,
          "midi": 23,
          "name": "B0",
          "ticks": 32496,
          "time": 84.625,
          "velocity": 0.5511811023622047
        },
        {
          "duration": 0.25,
          "durationTicks": 96,
          "midi": 35,
          "name": "B1",
          "ticks": 32592,
          "time": 84.875,
          "velocity": 0.8661417322834646
        },
        {
          "duration": 0.25,
          "durationTicks": 96,
          "midi": 23,
          "name": "B0",
          "ticks": 32592,
          "time": 84.875,
          "velocity": 0.5511811023622047
        },
        {
          "duration": 0.25,
          "durationTicks": 96,
          "midi": 35,
          "name": "B1",
          "ticks": 32688,
          "time": 85.125,
          "velocity": 0.8661417322834646
        },
        {
          "duration": 0.25,
          "durationTicks": 96,
          "midi": 23,
          "name": "B0",
          "ticks": 32688,
          "time": 85.125,
          "velocity": 0.5511811023622047
        },
        {
          "duration": 0.125,
          "durationTicks": 48,
          "midi": 35,
          "name": "B1",
          "ticks": 32784,
          "time": 85.375,
          "velocity": 0.8661417322834646
        },
        {
          "duration": 0.125,
          "durationTicks": 48,
          "midi": 23,
          "name": "B0",
          "ticks": 32784,
          "time": 85.375,
          "velocity": 0.5511811023622047
        },
        {
          "duration": 0.125,
          "durationTicks": 48,
          "midi": 35,
          "name": "B1",
          "ticks": 32832,
          "time": 85.5,
          "velocity": 0.8661417322834646
        },
        {
          "duration": 0.125,
          "durationTicks": 48,
          "midi": 23,
          "name": "B0",
          "ticks": 32832,
          "time": 85.5,
          "velocity": 0.5511811023622047
        },
        {
          "duration": 0.125,
          "durationTicks": 48,
          "midi": 35,
          "name": "B1",
          "ticks": 32880,
          "time": 85.625,
          "velocity": 0.8661417322834646
        },
        {
          "duration": 0.125,
          "durationTicks": 48,
          "midi": 23,
          "name": "B0",
          "ticks": 32880,
          "time": 85.625,
          "velocity": 0.5511811023622047
        },
        {
          "duration": 0.25,
          "durationTicks": 96,
          "midi": 35,
          "name": "B1",
          "ticks": 32928,
          "time": 85.75,
          "velocity": 0.8661417322834646
        },
        {
          "duration": 0.25,
          "durationTicks": 96,
          "midi": 23,
          "name": "B0",
          "ticks": 32928,
          "time": 85.75,
          "velocity": 0.5511811023622047
        },
        {
          "duration": 0.25,
          "durationTicks": 96,
          "midi": 35,
          "name": "B1",
          "ticks": 33024,
          "time": 86,
          "velocity": 0.8661417322834646
        },
        {
          "duration": 0.25,
          "durationTicks": 96,
          "midi": 23,
          "name": "B0",
          "ticks": 33024,
          "time": 86,
          "velocity": 0.5511811023622047
        },
        {
          "duration": 0.25,
          "durationTicks": 96,
          "midi": 35,
          "name": "B1",
          "ticks": 33120,
          "time": 86.25,
          "velocity": 0.8661417322834646
        },
        {
          "duration": 0.25,
          "durationTicks": 96,
          "midi": 23,
          "name": "B0",
          "ticks": 33120,
          "time": 86.25,
          "velocity": 0.5511811023622047
        },
        {
          "duration": 0.125,
          "durationTicks": 48,
          "midi": 35,
          "name": "B1",
          "ticks": 33216,
          "time": 86.5,
          "velocity": 0.8661417322834646
        },
        {
          "duration": 0.125,
          "durationTicks": 48,
          "midi": 23,
          "name": "B0",
          "ticks": 33216,
          "time": 86.5,
          "velocity": 0.5511811023622047
        },
        {
          "duration": 0.25,
          "durationTicks": 96,
          "midi": 35,
          "name": "B1",
          "ticks": 33264,
          "time": 86.625,
          "velocity": 0.8661417322834646
        },
        {
          "duration": 0.25,
          "durationTicks": 96,
          "midi": 23,
          "name": "B0",
          "ticks": 33264,
          "time": 86.625,
          "velocity": 0.5511811023622047
        },
        {
          "duration": 0.25,
          "durationTicks": 96,
          "midi": 35,
          "name": "B1",
          "ticks": 33360,
          "time": 86.875,
          "velocity": 0.8661417322834646
        },
        {
          "duration": 0.25,
          "durationTicks": 96,
          "midi": 23,
          "name": "B0",
          "ticks": 33360,
          "time": 86.875,
          "velocity": 0.5511811023622047
        },
        {
          "duration": 0.25,
          "durationTicks": 96,
          "midi": 35,
          "name": "B1",
          "ticks": 33456,
          "time": 87.125,
          "velocity": 0.8661417322834646
        },
        {
          "duration": 0.25,
          "durationTicks": 96,
          "midi": 23,
          "name": "B0",
          "ticks": 33456,
          "time": 87.125,
          "velocity": 0.5511811023622047
        },
        {
          "duration": 0.125,
          "durationTicks": 48,
          "midi": 35,
          "name": "B1",
          "ticks": 33552,
          "time": 87.375,
          "velocity": 0.8661417322834646
        },
        {
          "duration": 0.125,
          "durationTicks": 48,
          "midi": 23,
          "name": "B0",
          "ticks": 33552,
          "time": 87.375,
          "velocity": 0.5511811023622047
        },
        {
          "duration": 0.125,
          "durationTicks": 48,
          "midi": 35,
          "name": "B1",
          "ticks": 33600,
          "time": 87.5,
          "velocity": 0.8661417322834646
        },
        {
          "duration": 0.125,
          "durationTicks": 48,
          "midi": 23,
          "name": "B0",
          "ticks": 33600,
          "time": 87.5,
          "velocity": 0.5511811023622047
        },
        {
          "duration": 0.125,
          "durationTicks": 48,
          "midi": 35,
          "name": "B1",
          "ticks": 33648,
          "time": 87.625,
          "velocity": 0.8661417322834646
        },
        {
          "duration": 0.125,
          "durationTicks": 48,
          "midi": 23,
          "name": "B0",
          "ticks": 33648,
          "time": 87.625,
          "velocity": 0.5511811023622047
        },
        {
          "duration": 0.25,
          "durationTicks": 96,
          "midi": 35,
          "name": "B1",
          "ticks": 33696,
          "time": 87.75,
          "velocity": 0.8661417322834646
        },
        {
          "duration": 0.25,
          "durationTicks": 96,
          "midi": 23,
          "name": "B0",
          "ticks": 33696,
          "time": 87.75,
          "velocity": 0.5511811023622047
        },
        {
          "duration": 0.25,
          "durationTicks": 96,
          "midi": 34,
          "name": "A#1",
          "ticks": 33792,
          "time": 88,
          "velocity": 0.8661417322834646
        },
        {
          "duration": 0.25,
          "durationTicks": 96,
          "midi": 22,
          "name": "A#0",
          "ticks": 33792,
          "time": 88,
          "velocity": 0.5511811023622047
        },
        {
          "duration": 0.25,
          "durationTicks": 96,
          "midi": 34,
          "name": "A#1",
          "ticks": 33888,
          "time": 88.25,
          "velocity": 0.8661417322834646
        },
        {
          "duration": 0.25,
          "durationTicks": 96,
          "midi": 22,
          "name": "A#0",
          "ticks": 33888,
          "time": 88.25,
          "velocity": 0.5511811023622047
        },
        {
          "duration": 0.125,
          "durationTicks": 48,
          "midi": 34,
          "name": "A#1",
          "ticks": 33984,
          "time": 88.5,
          "velocity": 0.8661417322834646
        },
        {
          "duration": 0.125,
          "durationTicks": 48,
          "midi": 22,
          "name": "A#0",
          "ticks": 33984,
          "time": 88.5,
          "velocity": 0.5511811023622047
        },
        {
          "duration": 0.25,
          "durationTicks": 96,
          "midi": 34,
          "name": "A#1",
          "ticks": 34032,
          "time": 88.625,
          "velocity": 0.8661417322834646
        },
        {
          "duration": 0.25,
          "durationTicks": 96,
          "midi": 22,
          "name": "A#0",
          "ticks": 34032,
          "time": 88.625,
          "velocity": 0.5511811023622047
        },
        {
          "duration": 0.25,
          "durationTicks": 96,
          "midi": 34,
          "name": "A#1",
          "ticks": 34128,
          "time": 88.875,
          "velocity": 0.8661417322834646
        },
        {
          "duration": 0.25,
          "durationTicks": 96,
          "midi": 22,
          "name": "A#0",
          "ticks": 34128,
          "time": 88.875,
          "velocity": 0.5511811023622047
        },
        {
          "duration": 0.25,
          "durationTicks": 96,
          "midi": 34,
          "name": "A#1",
          "ticks": 34224,
          "time": 89.125,
          "velocity": 0.8661417322834646
        },
        {
          "duration": 0.25,
          "durationTicks": 96,
          "midi": 22,
          "name": "A#0",
          "ticks": 34224,
          "time": 89.125,
          "velocity": 0.5511811023622047
        },
        {
          "duration": 0.125,
          "durationTicks": 48,
          "midi": 34,
          "name": "A#1",
          "ticks": 34320,
          "time": 89.375,
          "velocity": 0.8661417322834646
        },
        {
          "duration": 0.125,
          "durationTicks": 48,
          "midi": 22,
          "name": "A#0",
          "ticks": 34320,
          "time": 89.375,
          "velocity": 0.5511811023622047
        },
        {
          "duration": 0.125,
          "durationTicks": 48,
          "midi": 34,
          "name": "A#1",
          "ticks": 34368,
          "time": 89.5,
          "velocity": 0.8661417322834646
        },
        {
          "duration": 0.125,
          "durationTicks": 48,
          "midi": 22,
          "name": "A#0",
          "ticks": 34368,
          "time": 89.5,
          "velocity": 0.5511811023622047
        },
        {
          "duration": 0.125,
          "durationTicks": 48,
          "midi": 34,
          "name": "A#1",
          "ticks": 34416,
          "time": 89.625,
          "velocity": 0.8661417322834646
        },
        {
          "duration": 0.125,
          "durationTicks": 48,
          "midi": 22,
          "name": "A#0",
          "ticks": 34416,
          "time": 89.625,
          "velocity": 0.5511811023622047
        },
        {
          "duration": 0.25,
          "durationTicks": 96,
          "midi": 34,
          "name": "A#1",
          "ticks": 34464,
          "time": 89.75,
          "velocity": 0.8661417322834646
        },
        {
          "duration": 0.25,
          "durationTicks": 96,
          "midi": 22,
          "name": "A#0",
          "ticks": 34464,
          "time": 89.75,
          "velocity": 0.5511811023622047
        },
        {
          "duration": 0.25,
          "durationTicks": 96,
          "midi": 36,
          "name": "C2",
          "ticks": 34560,
          "time": 90,
          "velocity": 0.8661417322834646
        },
        {
          "duration": 0.25,
          "durationTicks": 96,
          "midi": 24,
          "name": "C1",
          "ticks": 34560,
          "time": 90,
          "velocity": 0.5511811023622047
        },
        {
          "duration": 0.25,
          "durationTicks": 96,
          "midi": 36,
          "name": "C2",
          "ticks": 34656,
          "time": 90.25,
          "velocity": 0.8661417322834646
        },
        {
          "duration": 0.25,
          "durationTicks": 96,
          "midi": 24,
          "name": "C1",
          "ticks": 34656,
          "time": 90.25,
          "velocity": 0.5511811023622047
        },
        {
          "duration": 0.125,
          "durationTicks": 48,
          "midi": 36,
          "name": "C2",
          "ticks": 34752,
          "time": 90.5,
          "velocity": 0.8661417322834646
        },
        {
          "duration": 0.125,
          "durationTicks": 48,
          "midi": 24,
          "name": "C1",
          "ticks": 34752,
          "time": 90.5,
          "velocity": 0.5511811023622047
        },
        {
          "duration": 0.25,
          "durationTicks": 96,
          "midi": 36,
          "name": "C2",
          "ticks": 34800,
          "time": 90.625,
          "velocity": 0.8661417322834646
        },
        {
          "duration": 0.25,
          "durationTicks": 96,
          "midi": 24,
          "name": "C1",
          "ticks": 34800,
          "time": 90.625,
          "velocity": 0.5511811023622047
        },
        {
          "duration": 0.25,
          "durationTicks": 96,
          "midi": 36,
          "name": "C2",
          "ticks": 34896,
          "time": 90.875,
          "velocity": 0.8661417322834646
        },
        {
          "duration": 0.25,
          "durationTicks": 96,
          "midi": 24,
          "name": "C1",
          "ticks": 34896,
          "time": 90.875,
          "velocity": 0.5511811023622047
        },
        {
          "duration": 0.25,
          "durationTicks": 96,
          "midi": 36,
          "name": "C2",
          "ticks": 34992,
          "time": 91.125,
          "velocity": 0.8661417322834646
        },
        {
          "duration": 0.25,
          "durationTicks": 96,
          "midi": 24,
          "name": "C1",
          "ticks": 34992,
          "time": 91.125,
          "velocity": 0.5511811023622047
        },
        {
          "duration": 0.125,
          "durationTicks": 48,
          "midi": 36,
          "name": "C2",
          "ticks": 35088,
          "time": 91.375,
          "velocity": 0.8661417322834646
        },
        {
          "duration": 0.125,
          "durationTicks": 48,
          "midi": 24,
          "name": "C1",
          "ticks": 35088,
          "time": 91.375,
          "velocity": 0.5511811023622047
        },
        {
          "duration": 0.125,
          "durationTicks": 48,
          "midi": 36,
          "name": "C2",
          "ticks": 35136,
          "time": 91.5,
          "velocity": 0.8661417322834646
        },
        {
          "duration": 0.125,
          "durationTicks": 48,
          "midi": 24,
          "name": "C1",
          "ticks": 35136,
          "time": 91.5,
          "velocity": 0.5511811023622047
        },
        {
          "duration": 0.125,
          "durationTicks": 48,
          "midi": 36,
          "name": "C2",
          "ticks": 35184,
          "time": 91.625,
          "velocity": 0.8661417322834646
        },
        {
          "duration": 0.125,
          "durationTicks": 48,
          "midi": 24,
          "name": "C1",
          "ticks": 35184,
          "time": 91.625,
          "velocity": 0.5511811023622047
        },
        {
          "duration": 0.25,
          "durationTicks": 96,
          "midi": 36,
          "name": "C2",
          "ticks": 35232,
          "time": 91.75,
          "velocity": 0.8661417322834646
        },
        {
          "duration": 0.25,
          "durationTicks": 96,
          "midi": 24,
          "name": "C1",
          "ticks": 35232,
          "time": 91.75,
          "velocity": 0.5511811023622047
        },
        {
          "duration": 0.25,
          "durationTicks": 96,
          "midi": 38,
          "name": "D2",
          "ticks": 35328,
          "time": 92,
          "velocity": 0.8661417322834646
        },
        {
          "duration": 0.25,
          "durationTicks": 96,
          "midi": 26,
          "name": "D1",
          "ticks": 35328,
          "time": 92,
          "velocity": 0.5511811023622047
        },
        {
          "duration": 0.25,
          "durationTicks": 96,
          "midi": 38,
          "name": "D2",
          "ticks": 35424,
          "time": 92.25,
          "velocity": 0.8661417322834646
        },
        {
          "duration": 0.25,
          "durationTicks": 96,
          "midi": 26,
          "name": "D1",
          "ticks": 35424,
          "time": 92.25,
          "velocity": 0.5511811023622047
        },
        {
          "duration": 0.125,
          "durationTicks": 48,
          "midi": 38,
          "name": "D2",
          "ticks": 35520,
          "time": 92.5,
          "velocity": 0.8661417322834646
        },
        {
          "duration": 0.125,
          "durationTicks": 48,
          "midi": 26,
          "name": "D1",
          "ticks": 35520,
          "time": 92.5,
          "velocity": 0.5511811023622047
        },
        {
          "duration": 0.25,
          "durationTicks": 96,
          "midi": 38,
          "name": "D2",
          "ticks": 35568,
          "time": 92.625,
          "velocity": 0.8661417322834646
        },
        {
          "duration": 0.25,
          "durationTicks": 96,
          "midi": 26,
          "name": "D1",
          "ticks": 35568,
          "time": 92.625,
          "velocity": 0.5511811023622047
        },
        {
          "duration": 0.25,
          "durationTicks": 96,
          "midi": 38,
          "name": "D2",
          "ticks": 35664,
          "time": 92.875,
          "velocity": 0.8661417322834646
        },
        {
          "duration": 0.25,
          "durationTicks": 96,
          "midi": 26,
          "name": "D1",
          "ticks": 35664,
          "time": 92.875,
          "velocity": 0.5511811023622047
        },
        {
          "duration": 0.25,
          "durationTicks": 96,
          "midi": 38,
          "name": "D2",
          "ticks": 35760,
          "time": 93.125,
          "velocity": 0.8661417322834646
        },
        {
          "duration": 0.25,
          "durationTicks": 96,
          "midi": 26,
          "name": "D1",
          "ticks": 35760,
          "time": 93.125,
          "velocity": 0.5511811023622047
        },
        {
          "duration": 0.125,
          "durationTicks": 48,
          "midi": 38,
          "name": "D2",
          "ticks": 35856,
          "time": 93.375,
          "velocity": 0.8661417322834646
        },
        {
          "duration": 0.125,
          "durationTicks": 48,
          "midi": 26,
          "name": "D1",
          "ticks": 35856,
          "time": 93.375,
          "velocity": 0.5511811023622047
        },
        {
          "duration": 0.125,
          "durationTicks": 48,
          "midi": 38,
          "name": "D2",
          "ticks": 35904,
          "time": 93.5,
          "velocity": 0.8661417322834646
        },
        {
          "duration": 0.125,
          "durationTicks": 48,
          "midi": 26,
          "name": "D1",
          "ticks": 35904,
          "time": 93.5,
          "velocity": 0.5511811023622047
        },
        {
          "duration": 0.125,
          "durationTicks": 48,
          "midi": 38,
          "name": "D2",
          "ticks": 35952,
          "time": 93.625,
          "velocity": 0.8661417322834646
        },
        {
          "duration": 0.125,
          "durationTicks": 48,
          "midi": 26,
          "name": "D1",
          "ticks": 35952,
          "time": 93.625,
          "velocity": 0.5511811023622047
        },
        {
          "duration": 0.25,
          "durationTicks": 96,
          "midi": 38,
          "name": "D2",
          "ticks": 36000,
          "time": 93.75,
          "velocity": 0.8661417322834646
        },
        {
          "duration": 0.25,
          "durationTicks": 96,
          "midi": 26,
          "name": "D1",
          "ticks": 36000,
          "time": 93.75,
          "velocity": 0.5511811023622047
        },
        {
          "duration": 0.25,
          "durationTicks": 96,
          "midi": 38,
          "name": "D2",
          "ticks": 36096,
          "time": 94,
          "velocity": 0.8661417322834646
        },
        {
          "duration": 0.25,
          "durationTicks": 96,
          "midi": 26,
          "name": "D1",
          "ticks": 36096,
          "time": 94,
          "velocity": 0.5511811023622047
        },
        {
          "duration": 0.25,
          "durationTicks": 96,
          "midi": 38,
          "name": "D2",
          "ticks": 36192,
          "time": 94.25,
          "velocity": 0.8661417322834646
        },
        {
          "duration": 0.25,
          "durationTicks": 96,
          "midi": 26,
          "name": "D1",
          "ticks": 36192,
          "time": 94.25,
          "velocity": 0.5511811023622047
        },
        {
          "duration": 0.125,
          "durationTicks": 48,
          "midi": 38,
          "name": "D2",
          "ticks": 36288,
          "time": 94.5,
          "velocity": 0.8661417322834646
        },
        {
          "duration": 0.125,
          "durationTicks": 48,
          "midi": 26,
          "name": "D1",
          "ticks": 36288,
          "time": 94.5,
          "velocity": 0.5511811023622047
        },
        {
          "duration": 0.25,
          "durationTicks": 96,
          "midi": 38,
          "name": "D2",
          "ticks": 36336,
          "time": 94.625,
          "velocity": 0.8661417322834646
        },
        {
          "duration": 0.25,
          "durationTicks": 96,
          "midi": 26,
          "name": "D1",
          "ticks": 36336,
          "time": 94.625,
          "velocity": 0.5511811023622047
        },
        {
          "duration": 0.25,
          "durationTicks": 96,
          "midi": 38,
          "name": "D2",
          "ticks": 36432,
          "time": 94.875,
          "velocity": 0.8661417322834646
        },
        {
          "duration": 0.25,
          "durationTicks": 96,
          "midi": 26,
          "name": "D1",
          "ticks": 36432,
          "time": 94.875,
          "velocity": 0.5511811023622047
        },
        {
          "duration": 0.25,
          "durationTicks": 96,
          "midi": 38,
          "name": "D2",
          "ticks": 36528,
          "time": 95.125,
          "velocity": 0.8661417322834646
        },
        {
          "duration": 0.25,
          "durationTicks": 96,
          "midi": 26,
          "name": "D1",
          "ticks": 36528,
          "time": 95.125,
          "velocity": 0.5511811023622047
        },
        {
          "duration": 0.125,
          "durationTicks": 48,
          "midi": 38,
          "name": "D2",
          "ticks": 36624,
          "time": 95.375,
          "velocity": 0.8661417322834646
        },
        {
          "duration": 0.125,
          "durationTicks": 48,
          "midi": 26,
          "name": "D1",
          "ticks": 36624,
          "time": 95.375,
          "velocity": 0.5511811023622047
        },
        {
          "duration": 0.125,
          "durationTicks": 48,
          "midi": 38,
          "name": "D2",
          "ticks": 36672,
          "time": 95.5,
          "velocity": 0.8661417322834646
        },
        {
          "duration": 0.125,
          "durationTicks": 48,
          "midi": 26,
          "name": "D1",
          "ticks": 36672,
          "time": 95.5,
          "velocity": 0.5511811023622047
        },
        {
          "duration": 0.125,
          "durationTicks": 48,
          "midi": 38,
          "name": "D2",
          "ticks": 36720,
          "time": 95.625,
          "velocity": 0.8661417322834646
        },
        {
          "duration": 0.125,
          "durationTicks": 48,
          "midi": 26,
          "name": "D1",
          "ticks": 36720,
          "time": 95.625,
          "velocity": 0.5511811023622047
        },
        {
          "duration": 0.25,
          "durationTicks": 96,
          "midi": 38,
          "name": "D2",
          "ticks": 36768,
          "time": 95.75,
          "velocity": 0.8661417322834646
        },
        {
          "duration": 0.25,
          "durationTicks": 96,
          "midi": 26,
          "name": "D1",
          "ticks": 36768,
          "time": 95.75,
          "velocity": 0.5511811023622047
        },
        {
          "duration": 0.25,
          "durationTicks": 96,
          "midi": 34,
          "name": "A#1",
          "ticks": 36864,
          "time": 96,
          "velocity": 0.8661417322834646
        },
        {
          "duration": 0.25,
          "durationTicks": 96,
          "midi": 22,
          "name": "A#0",
          "ticks": 36864,
          "time": 96,
          "velocity": 0.5511811023622047
        },
        {
          "duration": 0.25,
          "durationTicks": 96,
          "midi": 34,
          "name": "A#1",
          "ticks": 36960,
          "time": 96.25,
          "velocity": 0.8661417322834646
        },
        {
          "duration": 0.25,
          "durationTicks": 96,
          "midi": 22,
          "name": "A#0",
          "ticks": 36960,
          "time": 96.25,
          "velocity": 0.5511811023622047
        },
        {
          "duration": 0.125,
          "durationTicks": 48,
          "midi": 34,
          "name": "A#1",
          "ticks": 37056,
          "time": 96.5,
          "velocity": 0.8661417322834646
        },
        {
          "duration": 0.125,
          "durationTicks": 48,
          "midi": 22,
          "name": "A#0",
          "ticks": 37056,
          "time": 96.5,
          "velocity": 0.5511811023622047
        },
        {
          "duration": 0.25,
          "durationTicks": 96,
          "midi": 34,
          "name": "A#1",
          "ticks": 37104,
          "time": 96.625,
          "velocity": 0.8661417322834646
        },
        {
          "duration": 0.25,
          "durationTicks": 96,
          "midi": 22,
          "name": "A#0",
          "ticks": 37104,
          "time": 96.625,
          "velocity": 0.5511811023622047
        },
        {
          "duration": 0.25,
          "durationTicks": 96,
          "midi": 34,
          "name": "A#1",
          "ticks": 37200,
          "time": 96.875,
          "velocity": 0.8661417322834646
        },
        {
          "duration": 0.25,
          "durationTicks": 96,
          "midi": 22,
          "name": "A#0",
          "ticks": 37200,
          "time": 96.875,
          "velocity": 0.5511811023622047
        },
        {
          "duration": 0.25,
          "durationTicks": 96,
          "midi": 34,
          "name": "A#1",
          "ticks": 37296,
          "time": 97.125,
          "velocity": 0.8661417322834646
        },
        {
          "duration": 0.25,
          "durationTicks": 96,
          "midi": 22,
          "name": "A#0",
          "ticks": 37296,
          "time": 97.125,
          "velocity": 0.5511811023622047
        },
        {
          "duration": 0.125,
          "durationTicks": 48,
          "midi": 34,
          "name": "A#1",
          "ticks": 37392,
          "time": 97.375,
          "velocity": 0.8661417322834646
        },
        {
          "duration": 0.125,
          "durationTicks": 48,
          "midi": 22,
          "name": "A#0",
          "ticks": 37392,
          "time": 97.375,
          "velocity": 0.5511811023622047
        },
        {
          "duration": 0.125,
          "durationTicks": 48,
          "midi": 34,
          "name": "A#1",
          "ticks": 37440,
          "time": 97.5,
          "velocity": 0.8661417322834646
        },
        {
          "duration": 0.125,
          "durationTicks": 48,
          "midi": 22,
          "name": "A#0",
          "ticks": 37440,
          "time": 97.5,
          "velocity": 0.5511811023622047
        },
        {
          "duration": 0.125,
          "durationTicks": 48,
          "midi": 34,
          "name": "A#1",
          "ticks": 37488,
          "time": 97.625,
          "velocity": 0.8661417322834646
        },
        {
          "duration": 0.125,
          "durationTicks": 48,
          "midi": 22,
          "name": "A#0",
          "ticks": 37488,
          "time": 97.625,
          "velocity": 0.5511811023622047
        },
        {
          "duration": 0.25,
          "durationTicks": 96,
          "midi": 34,
          "name": "A#1",
          "ticks": 37536,
          "time": 97.75,
          "velocity": 0.8661417322834646
        },
        {
          "duration": 0.25,
          "durationTicks": 96,
          "midi": 22,
          "name": "A#0",
          "ticks": 37536,
          "time": 97.75,
          "velocity": 0.5511811023622047
        },
        {
          "duration": 0.25,
          "durationTicks": 96,
          "midi": 36,
          "name": "C2",
          "ticks": 37632,
          "time": 98,
          "velocity": 0.8661417322834646
        },
        {
          "duration": 0.25,
          "durationTicks": 96,
          "midi": 24,
          "name": "C1",
          "ticks": 37632,
          "time": 98,
          "velocity": 0.5511811023622047
        },
        {
          "duration": 0.25,
          "durationTicks": 96,
          "midi": 36,
          "name": "C2",
          "ticks": 37728,
          "time": 98.25,
          "velocity": 0.8661417322834646
        },
        {
          "duration": 0.25,
          "durationTicks": 96,
          "midi": 24,
          "name": "C1",
          "ticks": 37728,
          "time": 98.25,
          "velocity": 0.5511811023622047
        },
        {
          "duration": 0.125,
          "durationTicks": 48,
          "midi": 36,
          "name": "C2",
          "ticks": 37824,
          "time": 98.5,
          "velocity": 0.8661417322834646
        },
        {
          "duration": 0.125,
          "durationTicks": 48,
          "midi": 24,
          "name": "C1",
          "ticks": 37824,
          "time": 98.5,
          "velocity": 0.5511811023622047
        },
        {
          "duration": 0.25,
          "durationTicks": 96,
          "midi": 36,
          "name": "C2",
          "ticks": 37872,
          "time": 98.625,
          "velocity": 0.8661417322834646
        },
        {
          "duration": 0.25,
          "durationTicks": 96,
          "midi": 24,
          "name": "C1",
          "ticks": 37872,
          "time": 98.625,
          "velocity": 0.5511811023622047
        },
        {
          "duration": 0.25,
          "durationTicks": 96,
          "midi": 36,
          "name": "C2",
          "ticks": 37968,
          "time": 98.875,
          "velocity": 0.8661417322834646
        },
        {
          "duration": 0.25,
          "durationTicks": 96,
          "midi": 24,
          "name": "C1",
          "ticks": 37968,
          "time": 98.875,
          "velocity": 0.5511811023622047
        },
        {
          "duration": 0.25,
          "durationTicks": 96,
          "midi": 36,
          "name": "C2",
          "ticks": 38064,
          "time": 99.125,
          "velocity": 0.8661417322834646
        },
        {
          "duration": 0.25,
          "durationTicks": 96,
          "midi": 24,
          "name": "C1",
          "ticks": 38064,
          "time": 99.125,
          "velocity": 0.5511811023622047
        },
        {
          "duration": 0.125,
          "durationTicks": 48,
          "midi": 36,
          "name": "C2",
          "ticks": 38160,
          "time": 99.375,
          "velocity": 0.8661417322834646
        },
        {
          "duration": 0.125,
          "durationTicks": 48,
          "midi": 24,
          "name": "C1",
          "ticks": 38160,
          "time": 99.375,
          "velocity": 0.5511811023622047
        },
        {
          "duration": 0.125,
          "durationTicks": 48,
          "midi": 36,
          "name": "C2",
          "ticks": 38208,
          "time": 99.5,
          "velocity": 0.8661417322834646
        },
        {
          "duration": 0.125,
          "durationTicks": 48,
          "midi": 24,
          "name": "C1",
          "ticks": 38208,
          "time": 99.5,
          "velocity": 0.5511811023622047
        },
        {
          "duration": 0.125,
          "durationTicks": 48,
          "midi": 36,
          "name": "C2",
          "ticks": 38256,
          "time": 99.625,
          "velocity": 0.8661417322834646
        },
        {
          "duration": 0.125,
          "durationTicks": 48,
          "midi": 24,
          "name": "C1",
          "ticks": 38256,
          "time": 99.625,
          "velocity": 0.5511811023622047
        },
        {
          "duration": 0.25,
          "durationTicks": 96,
          "midi": 36,
          "name": "C2",
          "ticks": 38304,
          "time": 99.75,
          "velocity": 0.8661417322834646
        },
        {
          "duration": 0.25,
          "durationTicks": 96,
          "midi": 24,
          "name": "C1",
          "ticks": 38304,
          "time": 99.75,
          "velocity": 0.5511811023622047
        },
        {
          "duration": 0.25,
          "durationTicks": 96,
          "midi": 35,
          "name": "B1",
          "ticks": 38400,
          "time": 100,
          "velocity": 0.8661417322834646
        },
        {
          "duration": 0.25,
          "durationTicks": 96,
          "midi": 23,
          "name": "B0",
          "ticks": 38400,
          "time": 100,
          "velocity": 0.5511811023622047
        },
        {
          "duration": 0.25,
          "durationTicks": 96,
          "midi": 35,
          "name": "B1",
          "ticks": 38496,
          "time": 100.25,
          "velocity": 0.8661417322834646
        },
        {
          "duration": 0.25,
          "durationTicks": 96,
          "midi": 23,
          "name": "B0",
          "ticks": 38496,
          "time": 100.25,
          "velocity": 0.5511811023622047
        },
        {
          "duration": 0.125,
          "durationTicks": 48,
          "midi": 35,
          "name": "B1",
          "ticks": 38592,
          "time": 100.5,
          "velocity": 0.8661417322834646
        },
        {
          "duration": 0.125,
          "durationTicks": 48,
          "midi": 23,
          "name": "B0",
          "ticks": 38592,
          "time": 100.5,
          "velocity": 0.5511811023622047
        },
        {
          "duration": 0.25,
          "durationTicks": 96,
          "midi": 35,
          "name": "B1",
          "ticks": 38640,
          "time": 100.625,
          "velocity": 0.8661417322834646
        },
        {
          "duration": 0.25,
          "durationTicks": 96,
          "midi": 23,
          "name": "B0",
          "ticks": 38640,
          "time": 100.625,
          "velocity": 0.5511811023622047
        },
        {
          "duration": 0.25,
          "durationTicks": 96,
          "midi": 35,
          "name": "B1",
          "ticks": 38736,
          "time": 100.875,
          "velocity": 0.8661417322834646
        },
        {
          "duration": 0.25,
          "durationTicks": 96,
          "midi": 23,
          "name": "B0",
          "ticks": 38736,
          "time": 100.875,
          "velocity": 0.5511811023622047
        },
        {
          "duration": 0.25,
          "durationTicks": 96,
          "midi": 35,
          "name": "B1",
          "ticks": 38832,
          "time": 101.125,
          "velocity": 0.8661417322834646
        },
        {
          "duration": 0.25,
          "durationTicks": 96,
          "midi": 23,
          "name": "B0",
          "ticks": 38832,
          "time": 101.125,
          "velocity": 0.5511811023622047
        },
        {
          "duration": 0.125,
          "durationTicks": 48,
          "midi": 35,
          "name": "B1",
          "ticks": 38928,
          "time": 101.375,
          "velocity": 0.8661417322834646
        },
        {
          "duration": 0.125,
          "durationTicks": 48,
          "midi": 23,
          "name": "B0",
          "ticks": 38928,
          "time": 101.375,
          "velocity": 0.5511811023622047
        },
        {
          "duration": 0.125,
          "durationTicks": 48,
          "midi": 35,
          "name": "B1",
          "ticks": 38976,
          "time": 101.5,
          "velocity": 0.8661417322834646
        },
        {
          "duration": 0.125,
          "durationTicks": 48,
          "midi": 23,
          "name": "B0",
          "ticks": 38976,
          "time": 101.5,
          "velocity": 0.5511811023622047
        },
        {
          "duration": 0.125,
          "durationTicks": 48,
          "midi": 35,
          "name": "B1",
          "ticks": 39024,
          "time": 101.625,
          "velocity": 0.8661417322834646
        },
        {
          "duration": 0.125,
          "durationTicks": 48,
          "midi": 23,
          "name": "B0",
          "ticks": 39024,
          "time": 101.625,
          "velocity": 0.5511811023622047
        },
        {
          "duration": 0.25,
          "durationTicks": 96,
          "midi": 35,
          "name": "B1",
          "ticks": 39072,
          "time": 101.75,
          "velocity": 0.8661417322834646
        },
        {
          "duration": 0.25,
          "durationTicks": 96,
          "midi": 23,
          "name": "B0",
          "ticks": 39072,
          "time": 101.75,
          "velocity": 0.5511811023622047
        },
        {
          "duration": 0.25,
          "durationTicks": 96,
          "midi": 35,
          "name": "B1",
          "ticks": 39168,
          "time": 102,
          "velocity": 0.8661417322834646
        },
        {
          "duration": 0.25,
          "durationTicks": 96,
          "midi": 23,
          "name": "B0",
          "ticks": 39168,
          "time": 102,
          "velocity": 0.5511811023622047
        },
        {
          "duration": 0.25,
          "durationTicks": 96,
          "midi": 35,
          "name": "B1",
          "ticks": 39264,
          "time": 102.25,
          "velocity": 0.8661417322834646
        },
        {
          "duration": 0.25,
          "durationTicks": 96,
          "midi": 23,
          "name": "B0",
          "ticks": 39264,
          "time": 102.25,
          "velocity": 0.5511811023622047
        },
        {
          "duration": 0.125,
          "durationTicks": 48,
          "midi": 35,
          "name": "B1",
          "ticks": 39360,
          "time": 102.5,
          "velocity": 0.8661417322834646
        },
        {
          "duration": 0.125,
          "durationTicks": 48,
          "midi": 23,
          "name": "B0",
          "ticks": 39360,
          "time": 102.5,
          "velocity": 0.5511811023622047
        },
        {
          "duration": 0.25,
          "durationTicks": 96,
          "midi": 35,
          "name": "B1",
          "ticks": 39408,
          "time": 102.625,
          "velocity": 0.8661417322834646
        },
        {
          "duration": 0.25,
          "durationTicks": 96,
          "midi": 23,
          "name": "B0",
          "ticks": 39408,
          "time": 102.625,
          "velocity": 0.5511811023622047
        },
        {
          "duration": 0.25,
          "durationTicks": 96,
          "midi": 35,
          "name": "B1",
          "ticks": 39504,
          "time": 102.875,
          "velocity": 0.8661417322834646
        },
        {
          "duration": 0.25,
          "durationTicks": 96,
          "midi": 23,
          "name": "B0",
          "ticks": 39504,
          "time": 102.875,
          "velocity": 0.5511811023622047
        },
        {
          "duration": 0.25,
          "durationTicks": 96,
          "midi": 35,
          "name": "B1",
          "ticks": 39600,
          "time": 103.125,
          "velocity": 0.8661417322834646
        },
        {
          "duration": 0.25,
          "durationTicks": 96,
          "midi": 23,
          "name": "B0",
          "ticks": 39600,
          "time": 103.125,
          "velocity": 0.5511811023622047
        },
        {
          "duration": 0.125,
          "durationTicks": 48,
          "midi": 35,
          "name": "B1",
          "ticks": 39696,
          "time": 103.375,
          "velocity": 0.8661417322834646
        },
        {
          "duration": 0.125,
          "durationTicks": 48,
          "midi": 23,
          "name": "B0",
          "ticks": 39696,
          "time": 103.375,
          "velocity": 0.5511811023622047
        },
        {
          "duration": 0.125,
          "durationTicks": 48,
          "midi": 35,
          "name": "B1",
          "ticks": 39744,
          "time": 103.5,
          "velocity": 0.8661417322834646
        },
        {
          "duration": 0.125,
          "durationTicks": 48,
          "midi": 23,
          "name": "B0",
          "ticks": 39744,
          "time": 103.5,
          "velocity": 0.5511811023622047
        },
        {
          "duration": 0.125,
          "durationTicks": 48,
          "midi": 35,
          "name": "B1",
          "ticks": 39792,
          "time": 103.625,
          "velocity": 0.8661417322834646
        },
        {
          "duration": 0.125,
          "durationTicks": 48,
          "midi": 23,
          "name": "B0",
          "ticks": 39792,
          "time": 103.625,
          "velocity": 0.5511811023622047
        },
        {
          "duration": 0.25,
          "durationTicks": 96,
          "midi": 35,
          "name": "B1",
          "ticks": 39840,
          "time": 103.75,
          "velocity": 0.8661417322834646
        },
        {
          "duration": 0.25,
          "durationTicks": 96,
          "midi": 23,
          "name": "B0",
          "ticks": 39840,
          "time": 103.75,
          "velocity": 0.5511811023622047
        },
        {
          "duration": 0.25,
          "durationTicks": 96,
          "midi": 34,
          "name": "A#1",
          "ticks": 39936,
          "time": 104,
          "velocity": 0.8661417322834646
        },
        {
          "duration": 0.25,
          "durationTicks": 96,
          "midi": 22,
          "name": "A#0",
          "ticks": 39936,
          "time": 104,
          "velocity": 0.5511811023622047
        },
        {
          "duration": 0.25,
          "durationTicks": 96,
          "midi": 34,
          "name": "A#1",
          "ticks": 40032,
          "time": 104.25,
          "velocity": 0.8661417322834646
        },
        {
          "duration": 0.25,
          "durationTicks": 96,
          "midi": 22,
          "name": "A#0",
          "ticks": 40032,
          "time": 104.25,
          "velocity": 0.5511811023622047
        },
        {
          "duration": 0.125,
          "durationTicks": 48,
          "midi": 34,
          "name": "A#1",
          "ticks": 40128,
          "time": 104.5,
          "velocity": 0.8661417322834646
        },
        {
          "duration": 0.125,
          "durationTicks": 48,
          "midi": 22,
          "name": "A#0",
          "ticks": 40128,
          "time": 104.5,
          "velocity": 0.5511811023622047
        },
        {
          "duration": 0.25,
          "durationTicks": 96,
          "midi": 34,
          "name": "A#1",
          "ticks": 40176,
          "time": 104.625,
          "velocity": 0.8661417322834646
        },
        {
          "duration": 0.25,
          "durationTicks": 96,
          "midi": 22,
          "name": "A#0",
          "ticks": 40176,
          "time": 104.625,
          "velocity": 0.5511811023622047
        },
        {
          "duration": 0.25,
          "durationTicks": 96,
          "midi": 34,
          "name": "A#1",
          "ticks": 40272,
          "time": 104.875,
          "velocity": 0.8661417322834646
        },
        {
          "duration": 0.25,
          "durationTicks": 96,
          "midi": 22,
          "name": "A#0",
          "ticks": 40272,
          "time": 104.875,
          "velocity": 0.5511811023622047
        },
        {
          "duration": 0.25,
          "durationTicks": 96,
          "midi": 34,
          "name": "A#1",
          "ticks": 40368,
          "time": 105.125,
          "velocity": 0.8661417322834646
        },
        {
          "duration": 0.25,
          "durationTicks": 96,
          "midi": 22,
          "name": "A#0",
          "ticks": 40368,
          "time": 105.125,
          "velocity": 0.5511811023622047
        },
        {
          "duration": 0.125,
          "durationTicks": 48,
          "midi": 34,
          "name": "A#1",
          "ticks": 40464,
          "time": 105.375,
          "velocity": 0.8661417322834646
        },
        {
          "duration": 0.125,
          "durationTicks": 48,
          "midi": 22,
          "name": "A#0",
          "ticks": 40464,
          "time": 105.375,
          "velocity": 0.5511811023622047
        },
        {
          "duration": 0.125,
          "durationTicks": 48,
          "midi": 34,
          "name": "A#1",
          "ticks": 40512,
          "time": 105.5,
          "velocity": 0.8661417322834646
        },
        {
          "duration": 0.125,
          "durationTicks": 48,
          "midi": 22,
          "name": "A#0",
          "ticks": 40512,
          "time": 105.5,
          "velocity": 0.5511811023622047
        },
        {
          "duration": 0.125,
          "durationTicks": 48,
          "midi": 34,
          "name": "A#1",
          "ticks": 40560,
          "time": 105.625,
          "velocity": 0.8661417322834646
        },
        {
          "duration": 0.125,
          "durationTicks": 48,
          "midi": 22,
          "name": "A#0",
          "ticks": 40560,
          "time": 105.625,
          "velocity": 0.5511811023622047
        },
        {
          "duration": 0.25,
          "durationTicks": 96,
          "midi": 34,
          "name": "A#1",
          "ticks": 40608,
          "time": 105.75,
          "velocity": 0.8661417322834646
        },
        {
          "duration": 0.25,
          "durationTicks": 96,
          "midi": 22,
          "name": "A#0",
          "ticks": 40608,
          "time": 105.75,
          "velocity": 0.5511811023622047
        },
        {
          "duration": 0.25,
          "durationTicks": 96,
          "midi": 36,
          "name": "C2",
          "ticks": 40704,
          "time": 106,
          "velocity": 0.8661417322834646
        },
        {
          "duration": 0.25,
          "durationTicks": 96,
          "midi": 24,
          "name": "C1",
          "ticks": 40704,
          "time": 106,
          "velocity": 0.5511811023622047
        },
        {
          "duration": 0.25,
          "durationTicks": 96,
          "midi": 36,
          "name": "C2",
          "ticks": 40800,
          "time": 106.25,
          "velocity": 0.8661417322834646
        },
        {
          "duration": 0.25,
          "durationTicks": 96,
          "midi": 24,
          "name": "C1",
          "ticks": 40800,
          "time": 106.25,
          "velocity": 0.5511811023622047
        },
        {
          "duration": 0.125,
          "durationTicks": 48,
          "midi": 36,
          "name": "C2",
          "ticks": 40896,
          "time": 106.5,
          "velocity": 0.8661417322834646
        },
        {
          "duration": 0.125,
          "durationTicks": 48,
          "midi": 24,
          "name": "C1",
          "ticks": 40896,
          "time": 106.5,
          "velocity": 0.5511811023622047
        },
        {
          "duration": 0.25,
          "durationTicks": 96,
          "midi": 36,
          "name": "C2",
          "ticks": 40944,
          "time": 106.625,
          "velocity": 0.8661417322834646
        },
        {
          "duration": 0.25,
          "durationTicks": 96,
          "midi": 24,
          "name": "C1",
          "ticks": 40944,
          "time": 106.625,
          "velocity": 0.5511811023622047
        },
        {
          "duration": 0.25,
          "durationTicks": 96,
          "midi": 36,
          "name": "C2",
          "ticks": 41040,
          "time": 106.875,
          "velocity": 0.8661417322834646
        },
        {
          "duration": 0.25,
          "durationTicks": 96,
          "midi": 24,
          "name": "C1",
          "ticks": 41040,
          "time": 106.875,
          "velocity": 0.5511811023622047
        },
        {
          "duration": 0.25,
          "durationTicks": 96,
          "midi": 36,
          "name": "C2",
          "ticks": 41136,
          "time": 107.125,
          "velocity": 0.8661417322834646
        },
        {
          "duration": 0.25,
          "durationTicks": 96,
          "midi": 24,
          "name": "C1",
          "ticks": 41136,
          "time": 107.125,
          "velocity": 0.5511811023622047
        },
        {
          "duration": 0.125,
          "durationTicks": 48,
          "midi": 36,
          "name": "C2",
          "ticks": 41232,
          "time": 107.375,
          "velocity": 0.8661417322834646
        },
        {
          "duration": 0.125,
          "durationTicks": 48,
          "midi": 24,
          "name": "C1",
          "ticks": 41232,
          "time": 107.375,
          "velocity": 0.5511811023622047
        },
        {
          "duration": 0.125,
          "durationTicks": 48,
          "midi": 36,
          "name": "C2",
          "ticks": 41280,
          "time": 107.5,
          "velocity": 0.8661417322834646
        },
        {
          "duration": 0.125,
          "durationTicks": 48,
          "midi": 24,
          "name": "C1",
          "ticks": 41280,
          "time": 107.5,
          "velocity": 0.5511811023622047
        },
        {
          "duration": 0.125,
          "durationTicks": 48,
          "midi": 36,
          "name": "C2",
          "ticks": 41328,
          "time": 107.625,
          "velocity": 0.8661417322834646
        },
        {
          "duration": 0.125,
          "durationTicks": 48,
          "midi": 24,
          "name": "C1",
          "ticks": 41328,
          "time": 107.625,
          "velocity": 0.5511811023622047
        },
        {
          "duration": 0.25,
          "durationTicks": 96,
          "midi": 36,
          "name": "C2",
          "ticks": 41376,
          "time": 107.75,
          "velocity": 0.8661417322834646
        },
        {
          "duration": 0.25,
          "durationTicks": 96,
          "midi": 24,
          "name": "C1",
          "ticks": 41376,
          "time": 107.75,
          "velocity": 0.5511811023622047
        },
        {
          "duration": 0.25,
          "durationTicks": 96,
          "midi": 38,
          "name": "D2",
          "ticks": 41472,
          "time": 108,
          "velocity": 0.8661417322834646
        },
        {
          "duration": 0.25,
          "durationTicks": 96,
          "midi": 26,
          "name": "D1",
          "ticks": 41472,
          "time": 108,
          "velocity": 0.5511811023622047
        },
        {
          "duration": 0.25,
          "durationTicks": 96,
          "midi": 38,
          "name": "D2",
          "ticks": 41568,
          "time": 108.25,
          "velocity": 0.8661417322834646
        },
        {
          "duration": 0.25,
          "durationTicks": 96,
          "midi": 26,
          "name": "D1",
          "ticks": 41568,
          "time": 108.25,
          "velocity": 0.5511811023622047
        },
        {
          "duration": 0.125,
          "durationTicks": 48,
          "midi": 38,
          "name": "D2",
          "ticks": 41664,
          "time": 108.5,
          "velocity": 0.8661417322834646
        },
        {
          "duration": 0.125,
          "durationTicks": 48,
          "midi": 26,
          "name": "D1",
          "ticks": 41664,
          "time": 108.5,
          "velocity": 0.5511811023622047
        },
        {
          "duration": 0.25,
          "durationTicks": 96,
          "midi": 38,
          "name": "D2",
          "ticks": 41712,
          "time": 108.625,
          "velocity": 0.8661417322834646
        },
        {
          "duration": 0.25,
          "durationTicks": 96,
          "midi": 26,
          "name": "D1",
          "ticks": 41712,
          "time": 108.625,
          "velocity": 0.5511811023622047
        },
        {
          "duration": 0.25,
          "durationTicks": 96,
          "midi": 38,
          "name": "D2",
          "ticks": 41808,
          "time": 108.875,
          "velocity": 0.8661417322834646
        },
        {
          "duration": 0.25,
          "durationTicks": 96,
          "midi": 26,
          "name": "D1",
          "ticks": 41808,
          "time": 108.875,
          "velocity": 0.5511811023622047
        },
        {
          "duration": 0.25,
          "durationTicks": 96,
          "midi": 38,
          "name": "D2",
          "ticks": 41904,
          "time": 109.125,
          "velocity": 0.8661417322834646
        },
        {
          "duration": 0.25,
          "durationTicks": 96,
          "midi": 26,
          "name": "D1",
          "ticks": 41904,
          "time": 109.125,
          "velocity": 0.5511811023622047
        },
        {
          "duration": 0.125,
          "durationTicks": 48,
          "midi": 38,
          "name": "D2",
          "ticks": 42000,
          "time": 109.375,
          "velocity": 0.8661417322834646
        },
        {
          "duration": 0.125,
          "durationTicks": 48,
          "midi": 26,
          "name": "D1",
          "ticks": 42000,
          "time": 109.375,
          "velocity": 0.5511811023622047
        },
        {
          "duration": 0.125,
          "durationTicks": 48,
          "midi": 38,
          "name": "D2",
          "ticks": 42048,
          "time": 109.5,
          "velocity": 0.8661417322834646
        },
        {
          "duration": 0.125,
          "durationTicks": 48,
          "midi": 26,
          "name": "D1",
          "ticks": 42048,
          "time": 109.5,
          "velocity": 0.5511811023622047
        },
        {
          "duration": 0.125,
          "durationTicks": 48,
          "midi": 38,
          "name": "D2",
          "ticks": 42096,
          "time": 109.625,
          "velocity": 0.8661417322834646
        },
        {
          "duration": 0.125,
          "durationTicks": 48,
          "midi": 26,
          "name": "D1",
          "ticks": 42096,
          "time": 109.625,
          "velocity": 0.5511811023622047
        },
        {
          "duration": 0.25,
          "durationTicks": 96,
          "midi": 38,
          "name": "D2",
          "ticks": 42144,
          "time": 109.75,
          "velocity": 0.8661417322834646
        },
        {
          "duration": 0.25,
          "durationTicks": 96,
          "midi": 26,
          "name": "D1",
          "ticks": 42144,
          "time": 109.75,
          "velocity": 0.5511811023622047
        },
        {
          "duration": 0.25,
          "durationTicks": 96,
          "midi": 38,
          "name": "D2",
          "ticks": 42240,
          "time": 110,
          "velocity": 0.8661417322834646
        },
        {
          "duration": 0.25,
          "durationTicks": 96,
          "midi": 26,
          "name": "D1",
          "ticks": 42240,
          "time": 110,
          "velocity": 0.5511811023622047
        },
        {
          "duration": 0.25,
          "durationTicks": 96,
          "midi": 38,
          "name": "D2",
          "ticks": 42336,
          "time": 110.25,
          "velocity": 0.8661417322834646
        },
        {
          "duration": 0.25,
          "durationTicks": 96,
          "midi": 26,
          "name": "D1",
          "ticks": 42336,
          "time": 110.25,
          "velocity": 0.5511811023622047
        },
        {
          "duration": 0.125,
          "durationTicks": 48,
          "midi": 38,
          "name": "D2",
          "ticks": 42432,
          "time": 110.5,
          "velocity": 0.8661417322834646
        },
        {
          "duration": 0.125,
          "durationTicks": 48,
          "midi": 26,
          "name": "D1",
          "ticks": 42432,
          "time": 110.5,
          "velocity": 0.5511811023622047
        },
        {
          "duration": 0.25,
          "durationTicks": 96,
          "midi": 38,
          "name": "D2",
          "ticks": 42480,
          "time": 110.625,
          "velocity": 0.8661417322834646
        },
        {
          "duration": 0.25,
          "durationTicks": 96,
          "midi": 26,
          "name": "D1",
          "ticks": 42480,
          "time": 110.625,
          "velocity": 0.5511811023622047
        },
        {
          "duration": 0.25,
          "durationTicks": 96,
          "midi": 38,
          "name": "D2",
          "ticks": 42576,
          "time": 110.875,
          "velocity": 0.8661417322834646
        },
        {
          "duration": 0.25,
          "durationTicks": 96,
          "midi": 26,
          "name": "D1",
          "ticks": 42576,
          "time": 110.875,
          "velocity": 0.5511811023622047
        },
        {
          "duration": 0.25,
          "durationTicks": 96,
          "midi": 38,
          "name": "D2",
          "ticks": 42672,
          "time": 111.125,
          "velocity": 0.8661417322834646
        },
        {
          "duration": 0.25,
          "durationTicks": 96,
          "midi": 26,
          "name": "D1",
          "ticks": 42672,
          "time": 111.125,
          "velocity": 0.5511811023622047
        },
        {
          "duration": 0.125,
          "durationTicks": 48,
          "midi": 38,
          "name": "D2",
          "ticks": 42768,
          "time": 111.375,
          "velocity": 0.8661417322834646
        },
        {
          "duration": 0.125,
          "durationTicks": 48,
          "midi": 26,
          "name": "D1",
          "ticks": 42768,
          "time": 111.375,
          "velocity": 0.5511811023622047
        },
        {
          "duration": 0.125,
          "durationTicks": 48,
          "midi": 38,
          "name": "D2",
          "ticks": 42816,
          "time": 111.5,
          "velocity": 0.8661417322834646
        },
        {
          "duration": 0.125,
          "durationTicks": 48,
          "midi": 26,
          "name": "D1",
          "ticks": 42816,
          "time": 111.5,
          "velocity": 0.5511811023622047
        },
        {
          "duration": 0.125,
          "durationTicks": 48,
          "midi": 38,
          "name": "D2",
          "ticks": 42864,
          "time": 111.625,
          "velocity": 0.8661417322834646
        },
        {
          "duration": 0.125,
          "durationTicks": 48,
          "midi": 26,
          "name": "D1",
          "ticks": 42864,
          "time": 111.625,
          "velocity": 0.5511811023622047
        },
        {
          "duration": 0.25,
          "durationTicks": 96,
          "midi": 38,
          "name": "D2",
          "ticks": 42912,
          "time": 111.75,
          "velocity": 0.8661417322834646
        },
        {
          "duration": 0.25,
          "durationTicks": 96,
          "midi": 26,
          "name": "D1",
          "ticks": 42912,
          "time": 111.75,
          "velocity": 0.5511811023622047
        },
        {
          "duration": 0.25,
          "durationTicks": 96,
          "midi": 34,
          "name": "A#1",
          "ticks": 43008,
          "time": 112,
          "velocity": 0.8661417322834646
        },
        {
          "duration": 0.25,
          "durationTicks": 96,
          "midi": 22,
          "name": "A#0",
          "ticks": 43008,
          "time": 112,
          "velocity": 0.5511811023622047
        },
        {
          "duration": 0.25,
          "durationTicks": 96,
          "midi": 34,
          "name": "A#1",
          "ticks": 43104,
          "time": 112.25,
          "velocity": 0.8661417322834646
        },
        {
          "duration": 0.25,
          "durationTicks": 96,
          "midi": 22,
          "name": "A#0",
          "ticks": 43104,
          "time": 112.25,
          "velocity": 0.5511811023622047
        },
        {
          "duration": 0.125,
          "durationTicks": 48,
          "midi": 34,
          "name": "A#1",
          "ticks": 43200,
          "time": 112.5,
          "velocity": 0.8661417322834646
        },
        {
          "duration": 0.125,
          "durationTicks": 48,
          "midi": 22,
          "name": "A#0",
          "ticks": 43200,
          "time": 112.5,
          "velocity": 0.5511811023622047
        },
        {
          "duration": 0.25,
          "durationTicks": 96,
          "midi": 34,
          "name": "A#1",
          "ticks": 43248,
          "time": 112.625,
          "velocity": 0.8661417322834646
        },
        {
          "duration": 0.25,
          "durationTicks": 96,
          "midi": 22,
          "name": "A#0",
          "ticks": 43248,
          "time": 112.625,
          "velocity": 0.5511811023622047
        },
        {
          "duration": 0.25,
          "durationTicks": 96,
          "midi": 34,
          "name": "A#1",
          "ticks": 43344,
          "time": 112.875,
          "velocity": 0.8661417322834646
        },
        {
          "duration": 0.25,
          "durationTicks": 96,
          "midi": 22,
          "name": "A#0",
          "ticks": 43344,
          "time": 112.875,
          "velocity": 0.5511811023622047
        },
        {
          "duration": 0.25,
          "durationTicks": 96,
          "midi": 34,
          "name": "A#1",
          "ticks": 43440,
          "time": 113.125,
          "velocity": 0.8661417322834646
        },
        {
          "duration": 0.25,
          "durationTicks": 96,
          "midi": 22,
          "name": "A#0",
          "ticks": 43440,
          "time": 113.125,
          "velocity": 0.5511811023622047
        },
        {
          "duration": 0.125,
          "durationTicks": 48,
          "midi": 34,
          "name": "A#1",
          "ticks": 43536,
          "time": 113.375,
          "velocity": 0.8661417322834646
        },
        {
          "duration": 0.125,
          "durationTicks": 48,
          "midi": 22,
          "name": "A#0",
          "ticks": 43536,
          "time": 113.375,
          "velocity": 0.5511811023622047
        },
        {
          "duration": 0.125,
          "durationTicks": 48,
          "midi": 34,
          "name": "A#1",
          "ticks": 43584,
          "time": 113.5,
          "velocity": 0.8661417322834646
        },
        {
          "duration": 0.125,
          "durationTicks": 48,
          "midi": 22,
          "name": "A#0",
          "ticks": 43584,
          "time": 113.5,
          "velocity": 0.5511811023622047
        },
        {
          "duration": 0.125,
          "durationTicks": 48,
          "midi": 34,
          "name": "A#1",
          "ticks": 43632,
          "time": 113.625,
          "velocity": 0.8661417322834646
        },
        {
          "duration": 0.125,
          "durationTicks": 48,
          "midi": 22,
          "name": "A#0",
          "ticks": 43632,
          "time": 113.625,
          "velocity": 0.5511811023622047
        },
        {
          "duration": 0.25,
          "durationTicks": 96,
          "midi": 34,
          "name": "A#1",
          "ticks": 43680,
          "time": 113.75,
          "velocity": 0.8661417322834646
        },
        {
          "duration": 0.25,
          "durationTicks": 96,
          "midi": 22,
          "name": "A#0",
          "ticks": 43680,
          "time": 113.75,
          "velocity": 0.5511811023622047
        },
        {
          "duration": 0.25,
          "durationTicks": 96,
          "midi": 36,
          "name": "C2",
          "ticks": 43776,
          "time": 114,
          "velocity": 0.8661417322834646
        },
        {
          "duration": 0.25,
          "durationTicks": 96,
          "midi": 24,
          "name": "C1",
          "ticks": 43776,
          "time": 114,
          "velocity": 0.5511811023622047
        },
        {
          "duration": 0.25,
          "durationTicks": 96,
          "midi": 36,
          "name": "C2",
          "ticks": 43872,
          "time": 114.25,
          "velocity": 0.8661417322834646
        },
        {
          "duration": 0.25,
          "durationTicks": 96,
          "midi": 24,
          "name": "C1",
          "ticks": 43872,
          "time": 114.25,
          "velocity": 0.5511811023622047
        },
        {
          "duration": 0.125,
          "durationTicks": 48,
          "midi": 36,
          "name": "C2",
          "ticks": 43968,
          "time": 114.5,
          "velocity": 0.8661417322834646
        },
        {
          "duration": 0.125,
          "durationTicks": 48,
          "midi": 24,
          "name": "C1",
          "ticks": 43968,
          "time": 114.5,
          "velocity": 0.5511811023622047
        },
        {
          "duration": 0.25,
          "durationTicks": 96,
          "midi": 36,
          "name": "C2",
          "ticks": 44016,
          "time": 114.625,
          "velocity": 0.8661417322834646
        },
        {
          "duration": 0.25,
          "durationTicks": 96,
          "midi": 24,
          "name": "C1",
          "ticks": 44016,
          "time": 114.625,
          "velocity": 0.5511811023622047
        },
        {
          "duration": 0.25,
          "durationTicks": 96,
          "midi": 36,
          "name": "C2",
          "ticks": 44112,
          "time": 114.875,
          "velocity": 0.8661417322834646
        },
        {
          "duration": 0.25,
          "durationTicks": 96,
          "midi": 24,
          "name": "C1",
          "ticks": 44112,
          "time": 114.875,
          "velocity": 0.5511811023622047
        },
        {
          "duration": 0.25,
          "durationTicks": 96,
          "midi": 36,
          "name": "C2",
          "ticks": 44208,
          "time": 115.125,
          "velocity": 0.8661417322834646
        },
        {
          "duration": 0.25,
          "durationTicks": 96,
          "midi": 24,
          "name": "C1",
          "ticks": 44208,
          "time": 115.125,
          "velocity": 0.5511811023622047
        },
        {
          "duration": 0.125,
          "durationTicks": 48,
          "midi": 36,
          "name": "C2",
          "ticks": 44304,
          "time": 115.375,
          "velocity": 0.8661417322834646
        },
        {
          "duration": 0.125,
          "durationTicks": 48,
          "midi": 24,
          "name": "C1",
          "ticks": 44304,
          "time": 115.375,
          "velocity": 0.5511811023622047
        },
        {
          "duration": 0.125,
          "durationTicks": 48,
          "midi": 36,
          "name": "C2",
          "ticks": 44352,
          "time": 115.5,
          "velocity": 0.8661417322834646
        },
        {
          "duration": 0.125,
          "durationTicks": 48,
          "midi": 24,
          "name": "C1",
          "ticks": 44352,
          "time": 115.5,
          "velocity": 0.5511811023622047
        },
        {
          "duration": 0.125,
          "durationTicks": 48,
          "midi": 36,
          "name": "C2",
          "ticks": 44400,
          "time": 115.625,
          "velocity": 0.8661417322834646
        },
        {
          "duration": 0.125,
          "durationTicks": 48,
          "midi": 24,
          "name": "C1",
          "ticks": 44400,
          "time": 115.625,
          "velocity": 0.5511811023622047
        },
        {
          "duration": 0.25,
          "durationTicks": 96,
          "midi": 36,
          "name": "C2",
          "ticks": 44448,
          "time": 115.75,
          "velocity": 0.8661417322834646
        },
        {
          "duration": 0.25,
          "durationTicks": 96,
          "midi": 24,
          "name": "C1",
          "ticks": 44448,
          "time": 115.75,
          "velocity": 0.5511811023622047
        },
        {
          "duration": 0.25,
          "durationTicks": 96,
          "midi": 38,
          "name": "D2",
          "ticks": 44544,
          "time": 116,
          "velocity": 0.8661417322834646
        },
        {
          "duration": 0.25,
          "durationTicks": 96,
          "midi": 26,
          "name": "D1",
          "ticks": 44544,
          "time": 116,
          "velocity": 0.5511811023622047
        },
        {
          "duration": 0.25,
          "durationTicks": 96,
          "midi": 38,
          "name": "D2",
          "ticks": 44640,
          "time": 116.25,
          "velocity": 0.8661417322834646
        },
        {
          "duration": 0.25,
          "durationTicks": 96,
          "midi": 26,
          "name": "D1",
          "ticks": 44640,
          "time": 116.25,
          "velocity": 0.5511811023622047
        },
        {
          "duration": 0.125,
          "durationTicks": 48,
          "midi": 38,
          "name": "D2",
          "ticks": 44736,
          "time": 116.5,
          "velocity": 0.8661417322834646
        },
        {
          "duration": 0.125,
          "durationTicks": 48,
          "midi": 26,
          "name": "D1",
          "ticks": 44736,
          "time": 116.5,
          "velocity": 0.5511811023622047
        },
        {
          "duration": 0.25,
          "durationTicks": 96,
          "midi": 38,
          "name": "D2",
          "ticks": 44784,
          "time": 116.625,
          "velocity": 0.8661417322834646
        },
        {
          "duration": 0.25,
          "durationTicks": 96,
          "midi": 26,
          "name": "D1",
          "ticks": 44784,
          "time": 116.625,
          "velocity": 0.5511811023622047
        },
        {
          "duration": 0.25,
          "durationTicks": 96,
          "midi": 37,
          "name": "C#2",
          "ticks": 44880,
          "time": 116.875,
          "velocity": 0.8661417322834646
        },
        {
          "duration": 0.25,
          "durationTicks": 96,
          "midi": 25,
          "name": "C#1",
          "ticks": 44880,
          "time": 116.875,
          "velocity": 0.5511811023622047
        },
        {
          "duration": 0.25,
          "durationTicks": 96,
          "midi": 37,
          "name": "C#2",
          "ticks": 44976,
          "time": 117.125,
          "velocity": 0.8661417322834646
        },
        {
          "duration": 0.25,
          "durationTicks": 96,
          "midi": 25,
          "name": "C#1",
          "ticks": 44976,
          "time": 117.125,
          "velocity": 0.5511811023622047
        },
        {
          "duration": 0.125,
          "durationTicks": 48,
          "midi": 37,
          "name": "C#2",
          "ticks": 45072,
          "time": 117.375,
          "velocity": 0.8661417322834646
        },
        {
          "duration": 0.125,
          "durationTicks": 48,
          "midi": 25,
          "name": "C#1",
          "ticks": 45072,
          "time": 117.375,
          "velocity": 0.5511811023622047
        },
        {
          "duration": 0.125,
          "durationTicks": 48,
          "midi": 37,
          "name": "C#2",
          "ticks": 45120,
          "time": 117.5,
          "velocity": 0.8661417322834646
        },
        {
          "duration": 0.125,
          "durationTicks": 48,
          "midi": 25,
          "name": "C#1",
          "ticks": 45120,
          "time": 117.5,
          "velocity": 0.5511811023622047
        },
        {
          "duration": 0.125,
          "durationTicks": 48,
          "midi": 37,
          "name": "C#2",
          "ticks": 45168,
          "time": 117.625,
          "velocity": 0.8661417322834646
        },
        {
          "duration": 0.125,
          "durationTicks": 48,
          "midi": 25,
          "name": "C#1",
          "ticks": 45168,
          "time": 117.625,
          "velocity": 0.5511811023622047
        },
        {
          "duration": 0.25,
          "durationTicks": 96,
          "midi": 37,
          "name": "C#2",
          "ticks": 45216,
          "time": 117.75,
          "velocity": 0.8661417322834646
        },
        {
          "duration": 0.25,
          "durationTicks": 96,
          "midi": 25,
          "name": "C#1",
          "ticks": 45216,
          "time": 117.75,
          "velocity": 0.5511811023622047
        },
        {
          "duration": 0.25,
          "durationTicks": 96,
          "midi": 36,
          "name": "C2",
          "ticks": 45312,
          "time": 118,
          "velocity": 0.8661417322834646
        },
        {
          "duration": 0.25,
          "durationTicks": 96,
          "midi": 24,
          "name": "C1",
          "ticks": 45312,
          "time": 118,
          "velocity": 0.5511811023622047
        },
        {
          "duration": 0.25,
          "durationTicks": 96,
          "midi": 36,
          "name": "C2",
          "ticks": 45408,
          "time": 118.25,
          "velocity": 0.8661417322834646
        },
        {
          "duration": 0.25,
          "durationTicks": 96,
          "midi": 24,
          "name": "C1",
          "ticks": 45408,
          "time": 118.25,
          "velocity": 0.5511811023622047
        },
        {
          "duration": 0.125,
          "durationTicks": 48,
          "midi": 36,
          "name": "C2",
          "ticks": 45504,
          "time": 118.5,
          "velocity": 0.8661417322834646
        },
        {
          "duration": 0.125,
          "durationTicks": 48,
          "midi": 24,
          "name": "C1",
          "ticks": 45504,
          "time": 118.5,
          "velocity": 0.5511811023622047
        },
        {
          "duration": 0.25,
          "durationTicks": 96,
          "midi": 36,
          "name": "C2",
          "ticks": 45552,
          "time": 118.625,
          "velocity": 0.8661417322834646
        },
        {
          "duration": 0.25,
          "durationTicks": 96,
          "midi": 24,
          "name": "C1",
          "ticks": 45552,
          "time": 118.625,
          "velocity": 0.5511811023622047
        },
        {
          "duration": 0.25,
          "durationTicks": 96,
          "midi": 35,
          "name": "B1",
          "ticks": 45648,
          "time": 118.875,
          "velocity": 0.8661417322834646
        },
        {
          "duration": 0.25,
          "durationTicks": 96,
          "midi": 23,
          "name": "B0",
          "ticks": 45648,
          "time": 118.875,
          "velocity": 0.5511811023622047
        },
        {
          "duration": 0.25,
          "durationTicks": 96,
          "midi": 35,
          "name": "B1",
          "ticks": 45744,
          "time": 119.125,
          "velocity": 0.8661417322834646
        },
        {
          "duration": 0.25,
          "durationTicks": 96,
          "midi": 23,
          "name": "B0",
          "ticks": 45744,
          "time": 119.125,
          "velocity": 0.5511811023622047
        },
        {
          "duration": 0.125,
          "durationTicks": 48,
          "midi": 35,
          "name": "B1",
          "ticks": 45840,
          "time": 119.375,
          "velocity": 0.8661417322834646
        },
        {
          "duration": 0.125,
          "durationTicks": 48,
          "midi": 23,
          "name": "B0",
          "ticks": 45840,
          "time": 119.375,
          "velocity": 0.5511811023622047
        },
        {
          "duration": 0.125,
          "durationTicks": 48,
          "midi": 35,
          "name": "B1",
          "ticks": 45888,
          "time": 119.5,
          "velocity": 0.8661417322834646
        },
        {
          "duration": 0.125,
          "durationTicks": 48,
          "midi": 23,
          "name": "B0",
          "ticks": 45888,
          "time": 119.5,
          "velocity": 0.5511811023622047
        },
        {
          "duration": 0.125,
          "durationTicks": 48,
          "midi": 35,
          "name": "B1",
          "ticks": 45936,
          "time": 119.625,
          "velocity": 0.8661417322834646
        },
        {
          "duration": 0.125,
          "durationTicks": 48,
          "midi": 23,
          "name": "B0",
          "ticks": 45936,
          "time": 119.625,
          "velocity": 0.5511811023622047
        },
        {
          "duration": 0.25,
          "durationTicks": 96,
          "midi": 35,
          "name": "B1",
          "ticks": 45984,
          "time": 119.75,
          "velocity": 0.8661417322834646
        },
        {
          "duration": 0.25,
          "durationTicks": 96,
          "midi": 23,
          "name": "B0",
          "ticks": 45984,
          "time": 119.75,
          "velocity": 0.5511811023622047
        },
        {
          "duration": 0.25,
          "durationTicks": 96,
          "midi": 34,
          "name": "A#1",
          "ticks": 46080,
          "time": 120,
          "velocity": 0.8661417322834646
        },
        {
          "duration": 0.25,
          "durationTicks": 96,
          "midi": 22,
          "name": "A#0",
          "ticks": 46080,
          "time": 120,
          "velocity": 0.5511811023622047
        },
        {
          "duration": 0.25,
          "durationTicks": 96,
          "midi": 34,
          "name": "A#1",
          "ticks": 46176,
          "time": 120.25,
          "velocity": 0.8661417322834646
        },
        {
          "duration": 0.25,
          "durationTicks": 96,
          "midi": 22,
          "name": "A#0",
          "ticks": 46176,
          "time": 120.25,
          "velocity": 0.5511811023622047
        },
        {
          "duration": 0.125,
          "durationTicks": 48,
          "midi": 34,
          "name": "A#1",
          "ticks": 46272,
          "time": 120.5,
          "velocity": 0.8661417322834646
        },
        {
          "duration": 0.125,
          "durationTicks": 48,
          "midi": 22,
          "name": "A#0",
          "ticks": 46272,
          "time": 120.5,
          "velocity": 0.5511811023622047
        },
        {
          "duration": 0.25,
          "durationTicks": 96,
          "midi": 34,
          "name": "A#1",
          "ticks": 46320,
          "time": 120.625,
          "velocity": 0.8661417322834646
        },
        {
          "duration": 0.25,
          "durationTicks": 96,
          "midi": 22,
          "name": "A#0",
          "ticks": 46320,
          "time": 120.625,
          "velocity": 0.5511811023622047
        },
        {
          "duration": 0.25,
          "durationTicks": 96,
          "midi": 34,
          "name": "A#1",
          "ticks": 46416,
          "time": 120.875,
          "velocity": 0.8661417322834646
        },
        {
          "duration": 0.25,
          "durationTicks": 96,
          "midi": 22,
          "name": "A#0",
          "ticks": 46416,
          "time": 120.875,
          "velocity": 0.5511811023622047
        },
        {
          "duration": 0.25,
          "durationTicks": 96,
          "midi": 34,
          "name": "A#1",
          "ticks": 46512,
          "time": 121.125,
          "velocity": 0.8661417322834646
        },
        {
          "duration": 0.25,
          "durationTicks": 96,
          "midi": 22,
          "name": "A#0",
          "ticks": 46512,
          "time": 121.125,
          "velocity": 0.5511811023622047
        },
        {
          "duration": 0.125,
          "durationTicks": 48,
          "midi": 34,
          "name": "A#1",
          "ticks": 46608,
          "time": 121.375,
          "velocity": 0.8661417322834646
        },
        {
          "duration": 0.125,
          "durationTicks": 48,
          "midi": 22,
          "name": "A#0",
          "ticks": 46608,
          "time": 121.375,
          "velocity": 0.5511811023622047
        },
        {
          "duration": 0.125,
          "durationTicks": 48,
          "midi": 34,
          "name": "A#1",
          "ticks": 46656,
          "time": 121.5,
          "velocity": 0.8661417322834646
        },
        {
          "duration": 0.125,
          "durationTicks": 48,
          "midi": 22,
          "name": "A#0",
          "ticks": 46656,
          "time": 121.5,
          "velocity": 0.5511811023622047
        },
        {
          "duration": 0.125,
          "durationTicks": 48,
          "midi": 34,
          "name": "A#1",
          "ticks": 46704,
          "time": 121.625,
          "velocity": 0.8661417322834646
        },
        {
          "duration": 0.125,
          "durationTicks": 48,
          "midi": 22,
          "name": "A#0",
          "ticks": 46704,
          "time": 121.625,
          "velocity": 0.5511811023622047
        },
        {
          "duration": 0.25,
          "durationTicks": 96,
          "midi": 34,
          "name": "A#1",
          "ticks": 46752,
          "time": 121.75,
          "velocity": 0.8661417322834646
        },
        {
          "duration": 0.25,
          "durationTicks": 96,
          "midi": 22,
          "name": "A#0",
          "ticks": 46752,
          "time": 121.75,
          "velocity": 0.5511811023622047
        },
        {
          "duration": 0.25,
          "durationTicks": 96,
          "midi": 36,
          "name": "C2",
          "ticks": 46848,
          "time": 122,
          "velocity": 0.8661417322834646
        },
        {
          "duration": 0.25,
          "durationTicks": 96,
          "midi": 24,
          "name": "C1",
          "ticks": 46848,
          "time": 122,
          "velocity": 0.5511811023622047
        },
        {
          "duration": 0.25,
          "durationTicks": 96,
          "midi": 36,
          "name": "C2",
          "ticks": 46944,
          "time": 122.25,
          "velocity": 0.8661417322834646
        },
        {
          "duration": 0.25,
          "durationTicks": 96,
          "midi": 24,
          "name": "C1",
          "ticks": 46944,
          "time": 122.25,
          "velocity": 0.5511811023622047
        },
        {
          "duration": 0.125,
          "durationTicks": 48,
          "midi": 36,
          "name": "C2",
          "ticks": 47040,
          "time": 122.5,
          "velocity": 0.8661417322834646
        },
        {
          "duration": 0.125,
          "durationTicks": 48,
          "midi": 24,
          "name": "C1",
          "ticks": 47040,
          "time": 122.5,
          "velocity": 0.5511811023622047
        },
        {
          "duration": 0.25,
          "durationTicks": 96,
          "midi": 36,
          "name": "C2",
          "ticks": 47088,
          "time": 122.625,
          "velocity": 0.8661417322834646
        },
        {
          "duration": 0.25,
          "durationTicks": 96,
          "midi": 24,
          "name": "C1",
          "ticks": 47088,
          "time": 122.625,
          "velocity": 0.5511811023622047
        },
        {
          "duration": 0.25,
          "durationTicks": 96,
          "midi": 36,
          "name": "C2",
          "ticks": 47184,
          "time": 122.875,
          "velocity": 0.8661417322834646
        },
        {
          "duration": 0.25,
          "durationTicks": 96,
          "midi": 24,
          "name": "C1",
          "ticks": 47184,
          "time": 122.875,
          "velocity": 0.5511811023622047
        },
        {
          "duration": 0.25,
          "durationTicks": 96,
          "midi": 36,
          "name": "C2",
          "ticks": 47280,
          "time": 123.125,
          "velocity": 0.8661417322834646
        },
        {
          "duration": 0.25,
          "durationTicks": 96,
          "midi": 24,
          "name": "C1",
          "ticks": 47280,
          "time": 123.125,
          "velocity": 0.5511811023622047
        },
        {
          "duration": 0.125,
          "durationTicks": 48,
          "midi": 36,
          "name": "C2",
          "ticks": 47376,
          "time": 123.375,
          "velocity": 0.8661417322834646
        },
        {
          "duration": 0.125,
          "durationTicks": 48,
          "midi": 24,
          "name": "C1",
          "ticks": 47376,
          "time": 123.375,
          "velocity": 0.5511811023622047
        },
        {
          "duration": 0.125,
          "durationTicks": 48,
          "midi": 36,
          "name": "C2",
          "ticks": 47424,
          "time": 123.5,
          "velocity": 0.8661417322834646
        },
        {
          "duration": 0.125,
          "durationTicks": 48,
          "midi": 24,
          "name": "C1",
          "ticks": 47424,
          "time": 123.5,
          "velocity": 0.5511811023622047
        },
        {
          "duration": 0.125,
          "durationTicks": 48,
          "midi": 36,
          "name": "C2",
          "ticks": 47472,
          "time": 123.625,
          "velocity": 0.8661417322834646
        },
        {
          "duration": 0.125,
          "durationTicks": 48,
          "midi": 24,
          "name": "C1",
          "ticks": 47472,
          "time": 123.625,
          "velocity": 0.5511811023622047
        },
        {
          "duration": 0.25,
          "durationTicks": 96,
          "midi": 36,
          "name": "C2",
          "ticks": 47520,
          "time": 123.75,
          "velocity": 0.8661417322834646
        },
        {
          "duration": 0.25,
          "durationTicks": 96,
          "midi": 24,
          "name": "C1",
          "ticks": 47520,
          "time": 123.75,
          "velocity": 0.5511811023622047
        },
        {
          "duration": 0.25,
          "durationTicks": 96,
          "midi": 38,
          "name": "D2",
          "ticks": 47616,
          "time": 124,
          "velocity": 0.8661417322834646
        },
        {
          "duration": 0.25,
          "durationTicks": 96,
          "midi": 26,
          "name": "D1",
          "ticks": 47616,
          "time": 124,
          "velocity": 0.5511811023622047
        },
        {
          "duration": 0.25,
          "durationTicks": 96,
          "midi": 38,
          "name": "D2",
          "ticks": 47712,
          "time": 124.25,
          "velocity": 0.8661417322834646
        },
        {
          "duration": 0.25,
          "durationTicks": 96,
          "midi": 26,
          "name": "D1",
          "ticks": 47712,
          "time": 124.25,
          "velocity": 0.5511811023622047
        },
        {
          "duration": 0.125,
          "durationTicks": 48,
          "midi": 38,
          "name": "D2",
          "ticks": 47808,
          "time": 124.5,
          "velocity": 0.8661417322834646
        },
        {
          "duration": 0.125,
          "durationTicks": 48,
          "midi": 26,
          "name": "D1",
          "ticks": 47808,
          "time": 124.5,
          "velocity": 0.5511811023622047
        },
        {
          "duration": 0.25,
          "durationTicks": 96,
          "midi": 38,
          "name": "D2",
          "ticks": 47856,
          "time": 124.625,
          "velocity": 0.8661417322834646
        },
        {
          "duration": 0.25,
          "durationTicks": 96,
          "midi": 26,
          "name": "D1",
          "ticks": 47856,
          "time": 124.625,
          "velocity": 0.5511811023622047
        },
        {
          "duration": 0.25,
          "durationTicks": 96,
          "midi": 38,
          "name": "D2",
          "ticks": 47952,
          "time": 124.875,
          "velocity": 0.8661417322834646
        },
        {
          "duration": 0.25,
          "durationTicks": 96,
          "midi": 26,
          "name": "D1",
          "ticks": 47952,
          "time": 124.875,
          "velocity": 0.5511811023622047
        },
        {
          "duration": 0.25,
          "durationTicks": 96,
          "midi": 38,
          "name": "D2",
          "ticks": 48048,
          "time": 125.125,
          "velocity": 0.8661417322834646
        },
        {
          "duration": 0.25,
          "durationTicks": 96,
          "midi": 26,
          "name": "D1",
          "ticks": 48048,
          "time": 125.125,
          "velocity": 0.5511811023622047
        },
        {
          "duration": 0.125,
          "durationTicks": 48,
          "midi": 38,
          "name": "D2",
          "ticks": 48144,
          "time": 125.375,
          "velocity": 0.8661417322834646
        },
        {
          "duration": 0.125,
          "durationTicks": 48,
          "midi": 26,
          "name": "D1",
          "ticks": 48144,
          "time": 125.375,
          "velocity": 0.5511811023622047
        },
        {
          "duration": 0.125,
          "durationTicks": 48,
          "midi": 38,
          "name": "D2",
          "ticks": 48192,
          "time": 125.5,
          "velocity": 0.8661417322834646
        },
        {
          "duration": 0.125,
          "durationTicks": 48,
          "midi": 26,
          "name": "D1",
          "ticks": 48192,
          "time": 125.5,
          "velocity": 0.5511811023622047
        },
        {
          "duration": 0.125,
          "durationTicks": 48,
          "midi": 38,
          "name": "D2",
          "ticks": 48240,
          "time": 125.625,
          "velocity": 0.8661417322834646
        },
        {
          "duration": 0.125,
          "durationTicks": 48,
          "midi": 26,
          "name": "D1",
          "ticks": 48240,
          "time": 125.625,
          "velocity": 0.5511811023622047
        },
        {
          "duration": 0.25,
          "durationTicks": 96,
          "midi": 38,
          "name": "D2",
          "ticks": 48288,
          "time": 125.75,
          "velocity": 0.8661417322834646
        },
        {
          "duration": 0.25,
          "durationTicks": 96,
          "midi": 26,
          "name": "D1",
          "ticks": 48288,
          "time": 125.75,
          "velocity": 0.5511811023622047
        },
        {
          "duration": 0.25,
          "durationTicks": 96,
          "midi": 38,
          "name": "D2",
          "ticks": 48384,
          "time": 126,
          "velocity": 0.8661417322834646
        },
        {
          "duration": 0.25,
          "durationTicks": 96,
          "midi": 26,
          "name": "D1",
          "ticks": 48384,
          "time": 126,
          "velocity": 0.5511811023622047
        },
        {
          "duration": 0.25,
          "durationTicks": 96,
          "midi": 38,
          "name": "D2",
          "ticks": 48480,
          "time": 126.25,
          "velocity": 0.8661417322834646
        },
        {
          "duration": 0.25,
          "durationTicks": 96,
          "midi": 26,
          "name": "D1",
          "ticks": 48480,
          "time": 126.25,
          "velocity": 0.5511811023622047
        },
        {
          "duration": 0.125,
          "durationTicks": 48,
          "midi": 38,
          "name": "D2",
          "ticks": 48576,
          "time": 126.5,
          "velocity": 0.8661417322834646
        },
        {
          "duration": 0.125,
          "durationTicks": 48,
          "midi": 26,
          "name": "D1",
          "ticks": 48576,
          "time": 126.5,
          "velocity": 0.5511811023622047
        },
        {
          "duration": 0.25,
          "durationTicks": 96,
          "midi": 38,
          "name": "D2",
          "ticks": 48624,
          "time": 126.625,
          "velocity": 0.8661417322834646
        },
        {
          "duration": 0.25,
          "durationTicks": 96,
          "midi": 26,
          "name": "D1",
          "ticks": 48624,
          "time": 126.625,
          "velocity": 0.5511811023622047
        },
        {
          "duration": 0.25,
          "durationTicks": 96,
          "midi": 38,
          "name": "D2",
          "ticks": 48720,
          "time": 126.875,
          "velocity": 0.8661417322834646
        },
        {
          "duration": 0.25,
          "durationTicks": 96,
          "midi": 26,
          "name": "D1",
          "ticks": 48720,
          "time": 126.875,
          "velocity": 0.5511811023622047
        },
        {
          "duration": 0.25,
          "durationTicks": 96,
          "midi": 38,
          "name": "D2",
          "ticks": 48816,
          "time": 127.125,
          "velocity": 0.8661417322834646
        },
        {
          "duration": 0.25,
          "durationTicks": 96,
          "midi": 26,
          "name": "D1",
          "ticks": 48816,
          "time": 127.125,
          "velocity": 0.5511811023622047
        },
        {
          "duration": 0.125,
          "durationTicks": 48,
          "midi": 38,
          "name": "D2",
          "ticks": 48912,
          "time": 127.375,
          "velocity": 0.8661417322834646
        },
        {
          "duration": 0.125,
          "durationTicks": 48,
          "midi": 26,
          "name": "D1",
          "ticks": 48912,
          "time": 127.375,
          "velocity": 0.5511811023622047
        },
        {
          "duration": 0.125,
          "durationTicks": 48,
          "midi": 38,
          "name": "D2",
          "ticks": 48960,
          "time": 127.5,
          "velocity": 0.8661417322834646
        },
        {
          "duration": 0.125,
          "durationTicks": 48,
          "midi": 26,
          "name": "D1",
          "ticks": 48960,
          "time": 127.5,
          "velocity": 0.5511811023622047
        },
        {
          "duration": 0.125,
          "durationTicks": 48,
          "midi": 38,
          "name": "D2",
          "ticks": 49008,
          "time": 127.625,
          "velocity": 0.8661417322834646
        },
        {
          "duration": 0.125,
          "durationTicks": 48,
          "midi": 26,
          "name": "D1",
          "ticks": 49008,
          "time": 127.625,
          "velocity": 0.5511811023622047
        },
        {
          "duration": 0.25,
          "durationTicks": 96,
          "midi": 38,
          "name": "D2",
          "ticks": 49056,
          "time": 127.75,
          "velocity": 0.8661417322834646
        },
        {
          "duration": 0.25,
          "durationTicks": 96,
          "midi": 26,
          "name": "D1",
          "ticks": 49056,
          "time": 127.75,
          "velocity": 0.5511811023622047
        },
        {
          "duration": 0.25,
          "durationTicks": 96,
          "midi": 34,
          "name": "A#1",
          "ticks": 49152,
          "time": 128,
          "velocity": 0.8661417322834646
        },
        {
          "duration": 0.25,
          "durationTicks": 96,
          "midi": 22,
          "name": "A#0",
          "ticks": 49152,
          "time": 128,
          "velocity": 0.5511811023622047
        },
        {
          "duration": 0.25,
          "durationTicks": 96,
          "midi": 34,
          "name": "A#1",
          "ticks": 49248,
          "time": 128.25,
          "velocity": 0.8661417322834646
        },
        {
          "duration": 0.25,
          "durationTicks": 96,
          "midi": 22,
          "name": "A#0",
          "ticks": 49248,
          "time": 128.25,
          "velocity": 0.5511811023622047
        },
        {
          "duration": 0.125,
          "durationTicks": 48,
          "midi": 34,
          "name": "A#1",
          "ticks": 49344,
          "time": 128.5,
          "velocity": 0.8661417322834646
        },
        {
          "duration": 0.125,
          "durationTicks": 48,
          "midi": 22,
          "name": "A#0",
          "ticks": 49344,
          "time": 128.5,
          "velocity": 0.5511811023622047
        },
        {
          "duration": 0.25,
          "durationTicks": 96,
          "midi": 34,
          "name": "A#1",
          "ticks": 49392,
          "time": 128.625,
          "velocity": 0.8661417322834646
        },
        {
          "duration": 0.25,
          "durationTicks": 96,
          "midi": 22,
          "name": "A#0",
          "ticks": 49392,
          "time": 128.625,
          "velocity": 0.5511811023622047
        },
        {
          "duration": 0.25,
          "durationTicks": 96,
          "midi": 34,
          "name": "A#1",
          "ticks": 49488,
          "time": 128.875,
          "velocity": 0.8661417322834646
        },
        {
          "duration": 0.25,
          "durationTicks": 96,
          "midi": 22,
          "name": "A#0",
          "ticks": 49488,
          "time": 128.875,
          "velocity": 0.5511811023622047
        },
        {
          "duration": 0.25,
          "durationTicks": 96,
          "midi": 34,
          "name": "A#1",
          "ticks": 49584,
          "time": 129.125,
          "velocity": 0.8661417322834646
        },
        {
          "duration": 0.25,
          "durationTicks": 96,
          "midi": 22,
          "name": "A#0",
          "ticks": 49584,
          "time": 129.125,
          "velocity": 0.5511811023622047
        },
        {
          "duration": 0.125,
          "durationTicks": 48,
          "midi": 34,
          "name": "A#1",
          "ticks": 49680,
          "time": 129.375,
          "velocity": 0.8661417322834646
        },
        {
          "duration": 0.125,
          "durationTicks": 48,
          "midi": 22,
          "name": "A#0",
          "ticks": 49680,
          "time": 129.375,
          "velocity": 0.5511811023622047
        },
        {
          "duration": 0.125,
          "durationTicks": 48,
          "midi": 34,
          "name": "A#1",
          "ticks": 49728,
          "time": 129.5,
          "velocity": 0.8661417322834646
        },
        {
          "duration": 0.125,
          "durationTicks": 48,
          "midi": 22,
          "name": "A#0",
          "ticks": 49728,
          "time": 129.5,
          "velocity": 0.5511811023622047
        },
        {
          "duration": 0.125,
          "durationTicks": 48,
          "midi": 34,
          "name": "A#1",
          "ticks": 49776,
          "time": 129.625,
          "velocity": 0.8661417322834646
        },
        {
          "duration": 0.125,
          "durationTicks": 48,
          "midi": 22,
          "name": "A#0",
          "ticks": 49776,
          "time": 129.625,
          "velocity": 0.5511811023622047
        },
        {
          "duration": 0.25,
          "durationTicks": 96,
          "midi": 34,
          "name": "A#1",
          "ticks": 49824,
          "time": 129.75,
          "velocity": 0.8661417322834646
        },
        {
          "duration": 0.25,
          "durationTicks": 96,
          "midi": 22,
          "name": "A#0",
          "ticks": 49824,
          "time": 129.75,
          "velocity": 0.5511811023622047
        },
        {
          "duration": 0.25,
          "durationTicks": 96,
          "midi": 36,
          "name": "C2",
          "ticks": 49920,
          "time": 130,
          "velocity": 0.8661417322834646
        },
        {
          "duration": 0.25,
          "durationTicks": 96,
          "midi": 24,
          "name": "C1",
          "ticks": 49920,
          "time": 130,
          "velocity": 0.5511811023622047
        },
        {
          "duration": 0.25,
          "durationTicks": 96,
          "midi": 36,
          "name": "C2",
          "ticks": 50016,
          "time": 130.25,
          "velocity": 0.8661417322834646
        },
        {
          "duration": 0.25,
          "durationTicks": 96,
          "midi": 24,
          "name": "C1",
          "ticks": 50016,
          "time": 130.25,
          "velocity": 0.5511811023622047
        },
        {
          "duration": 0.125,
          "durationTicks": 48,
          "midi": 36,
          "name": "C2",
          "ticks": 50112,
          "time": 130.5,
          "velocity": 0.8661417322834646
        },
        {
          "duration": 0.125,
          "durationTicks": 48,
          "midi": 24,
          "name": "C1",
          "ticks": 50112,
          "time": 130.5,
          "velocity": 0.5511811023622047
        },
        {
          "duration": 0.25,
          "durationTicks": 96,
          "midi": 36,
          "name": "C2",
          "ticks": 50160,
          "time": 130.625,
          "velocity": 0.8661417322834646
        },
        {
          "duration": 0.25,
          "durationTicks": 96,
          "midi": 24,
          "name": "C1",
          "ticks": 50160,
          "time": 130.625,
          "velocity": 0.5511811023622047
        },
        {
          "duration": 0.25,
          "durationTicks": 96,
          "midi": 36,
          "name": "C2",
          "ticks": 50256,
          "time": 130.875,
          "velocity": 0.8661417322834646
        },
        {
          "duration": 0.25,
          "durationTicks": 96,
          "midi": 24,
          "name": "C1",
          "ticks": 50256,
          "time": 130.875,
          "velocity": 0.5511811023622047
        },
        {
          "duration": 0.25,
          "durationTicks": 96,
          "midi": 36,
          "name": "C2",
          "ticks": 50352,
          "time": 131.125,
          "velocity": 0.8661417322834646
        },
        {
          "duration": 0.25,
          "durationTicks": 96,
          "midi": 24,
          "name": "C1",
          "ticks": 50352,
          "time": 131.125,
          "velocity": 0.5511811023622047
        },
        {
          "duration": 0.125,
          "durationTicks": 48,
          "midi": 36,
          "name": "C2",
          "ticks": 50448,
          "time": 131.375,
          "velocity": 0.8661417322834646
        },
        {
          "duration": 0.125,
          "durationTicks": 48,
          "midi": 24,
          "name": "C1",
          "ticks": 50448,
          "time": 131.375,
          "velocity": 0.5511811023622047
        },
        {
          "duration": 0.125,
          "durationTicks": 48,
          "midi": 36,
          "name": "C2",
          "ticks": 50496,
          "time": 131.5,
          "velocity": 0.8661417322834646
        },
        {
          "duration": 0.125,
          "durationTicks": 48,
          "midi": 24,
          "name": "C1",
          "ticks": 50496,
          "time": 131.5,
          "velocity": 0.5511811023622047
        },
        {
          "duration": 0.125,
          "durationTicks": 48,
          "midi": 36,
          "name": "C2",
          "ticks": 50544,
          "time": 131.625,
          "velocity": 0.8661417322834646
        },
        {
          "duration": 0.125,
          "durationTicks": 48,
          "midi": 24,
          "name": "C1",
          "ticks": 50544,
          "time": 131.625,
          "velocity": 0.5511811023622047
        },
        {
          "duration": 0.25,
          "durationTicks": 96,
          "midi": 36,
          "name": "C2",
          "ticks": 50592,
          "time": 131.75,
          "velocity": 0.8661417322834646
        },
        {
          "duration": 0.25,
          "durationTicks": 96,
          "midi": 24,
          "name": "C1",
          "ticks": 50592,
          "time": 131.75,
          "velocity": 0.5511811023622047
        },
        {
          "duration": 0.25,
          "durationTicks": 96,
          "midi": 38,
          "name": "D2",
          "ticks": 50688,
          "time": 132,
          "velocity": 0.8661417322834646
        },
        {
          "duration": 0.25,
          "durationTicks": 96,
          "midi": 26,
          "name": "D1",
          "ticks": 50688,
          "time": 132,
          "velocity": 0.5511811023622047
        },
        {
          "duration": 0.25,
          "durationTicks": 96,
          "midi": 38,
          "name": "D2",
          "ticks": 50784,
          "time": 132.25,
          "velocity": 0.8661417322834646
        },
        {
          "duration": 0.25,
          "durationTicks": 96,
          "midi": 26,
          "name": "D1",
          "ticks": 50784,
          "time": 132.25,
          "velocity": 0.5511811023622047
        },
        {
          "duration": 0.125,
          "durationTicks": 48,
          "midi": 38,
          "name": "D2",
          "ticks": 50880,
          "time": 132.5,
          "velocity": 0.8661417322834646
        },
        {
          "duration": 0.125,
          "durationTicks": 48,
          "midi": 26,
          "name": "D1",
          "ticks": 50880,
          "time": 132.5,
          "velocity": 0.5511811023622047
        },
        {
          "duration": 0.25,
          "durationTicks": 96,
          "midi": 38,
          "name": "D2",
          "ticks": 50928,
          "time": 132.625,
          "velocity": 0.8661417322834646
        },
        {
          "duration": 0.25,
          "durationTicks": 96,
          "midi": 26,
          "name": "D1",
          "ticks": 50928,
          "time": 132.625,
          "velocity": 0.5511811023622047
        },
        {
          "duration": 0.25,
          "durationTicks": 96,
          "midi": 37,
          "name": "C#2",
          "ticks": 51024,
          "time": 132.875,
          "velocity": 0.8661417322834646
        },
        {
          "duration": 0.25,
          "durationTicks": 96,
          "midi": 25,
          "name": "C#1",
          "ticks": 51024,
          "time": 132.875,
          "velocity": 0.5511811023622047
        },
        {
          "duration": 0.25,
          "durationTicks": 96,
          "midi": 37,
          "name": "C#2",
          "ticks": 51120,
          "time": 133.125,
          "velocity": 0.8661417322834646
        },
        {
          "duration": 0.25,
          "durationTicks": 96,
          "midi": 25,
          "name": "C#1",
          "ticks": 51120,
          "time": 133.125,
          "velocity": 0.5511811023622047
        },
        {
          "duration": 0.125,
          "durationTicks": 48,
          "midi": 37,
          "name": "C#2",
          "ticks": 51216,
          "time": 133.375,
          "velocity": 0.8661417322834646
        },
        {
          "duration": 0.125,
          "durationTicks": 48,
          "midi": 25,
          "name": "C#1",
          "ticks": 51216,
          "time": 133.375,
          "velocity": 0.5511811023622047
        },
        {
          "duration": 0.125,
          "durationTicks": 48,
          "midi": 37,
          "name": "C#2",
          "ticks": 51264,
          "time": 133.5,
          "velocity": 0.8661417322834646
        },
        {
          "duration": 0.125,
          "durationTicks": 48,
          "midi": 25,
          "name": "C#1",
          "ticks": 51264,
          "time": 133.5,
          "velocity": 0.5511811023622047
        },
        {
          "duration": 0.125,
          "durationTicks": 48,
          "midi": 37,
          "name": "C#2",
          "ticks": 51312,
          "time": 133.625,
          "velocity": 0.8661417322834646
        },
        {
          "duration": 0.125,
          "durationTicks": 48,
          "midi": 25,
          "name": "C#1",
          "ticks": 51312,
          "time": 133.625,
          "velocity": 0.5511811023622047
        },
        {
          "duration": 0.25,
          "durationTicks": 96,
          "midi": 37,
          "name": "C#2",
          "ticks": 51360,
          "time": 133.75,
          "velocity": 0.8661417322834646
        },
        {
          "duration": 0.25,
          "durationTicks": 96,
          "midi": 25,
          "name": "C#1",
          "ticks": 51360,
          "time": 133.75,
          "velocity": 0.5511811023622047
        },
        {
          "duration": 0.25,
          "durationTicks": 96,
          "midi": 36,
          "name": "C2",
          "ticks": 51456,
          "time": 134,
          "velocity": 0.8661417322834646
        },
        {
          "duration": 0.25,
          "durationTicks": 96,
          "midi": 24,
          "name": "C1",
          "ticks": 51456,
          "time": 134,
          "velocity": 0.5511811023622047
        },
        {
          "duration": 0.25,
          "durationTicks": 96,
          "midi": 36,
          "name": "C2",
          "ticks": 51552,
          "time": 134.25,
          "velocity": 0.8661417322834646
        },
        {
          "duration": 0.25,
          "durationTicks": 96,
          "midi": 24,
          "name": "C1",
          "ticks": 51552,
          "time": 134.25,
          "velocity": 0.5511811023622047
        },
        {
          "duration": 0.125,
          "durationTicks": 48,
          "midi": 36,
          "name": "C2",
          "ticks": 51648,
          "time": 134.5,
          "velocity": 0.8661417322834646
        },
        {
          "duration": 0.125,
          "durationTicks": 48,
          "midi": 24,
          "name": "C1",
          "ticks": 51648,
          "time": 134.5,
          "velocity": 0.5511811023622047
        },
        {
          "duration": 0.25,
          "durationTicks": 96,
          "midi": 36,
          "name": "C2",
          "ticks": 51696,
          "time": 134.625,
          "velocity": 0.8661417322834646
        },
        {
          "duration": 0.25,
          "durationTicks": 96,
          "midi": 24,
          "name": "C1",
          "ticks": 51696,
          "time": 134.625,
          "velocity": 0.5511811023622047
        },
        {
          "duration": 0.25,
          "durationTicks": 96,
          "midi": 35,
          "name": "B1",
          "ticks": 51792,
          "time": 134.875,
          "velocity": 0.8661417322834646
        },
        {
          "duration": 0.25,
          "durationTicks": 96,
          "midi": 23,
          "name": "B0",
          "ticks": 51792,
          "time": 134.875,
          "velocity": 0.5511811023622047
        },
        {
          "duration": 0.25,
          "durationTicks": 96,
          "midi": 35,
          "name": "B1",
          "ticks": 51888,
          "time": 135.125,
          "velocity": 0.8661417322834646
        },
        {
          "duration": 0.25,
          "durationTicks": 96,
          "midi": 23,
          "name": "B0",
          "ticks": 51888,
          "time": 135.125,
          "velocity": 0.5511811023622047
        },
        {
          "duration": 0.125,
          "durationTicks": 48,
          "midi": 35,
          "name": "B1",
          "ticks": 51984,
          "time": 135.375,
          "velocity": 0.8661417322834646
        },
        {
          "duration": 0.125,
          "durationTicks": 48,
          "midi": 23,
          "name": "B0",
          "ticks": 51984,
          "time": 135.375,
          "velocity": 0.5511811023622047
        },
        {
          "duration": 0.125,
          "durationTicks": 48,
          "midi": 35,
          "name": "B1",
          "ticks": 52032,
          "time": 135.5,
          "velocity": 0.8661417322834646
        },
        {
          "duration": 0.125,
          "durationTicks": 48,
          "midi": 23,
          "name": "B0",
          "ticks": 52032,
          "time": 135.5,
          "velocity": 0.5511811023622047
        },
        {
          "duration": 0.125,
          "durationTicks": 48,
          "midi": 35,
          "name": "B1",
          "ticks": 52080,
          "time": 135.625,
          "velocity": 0.8661417322834646
        },
        {
          "duration": 0.125,
          "durationTicks": 48,
          "midi": 23,
          "name": "B0",
          "ticks": 52080,
          "time": 135.625,
          "velocity": 0.5511811023622047
        },
        {
          "duration": 0.25,
          "durationTicks": 96,
          "midi": 35,
          "name": "B1",
          "ticks": 52128,
          "time": 135.75,
          "velocity": 0.8661417322834646
        },
        {
          "duration": 0.25,
          "durationTicks": 96,
          "midi": 23,
          "name": "B0",
          "ticks": 52128,
          "time": 135.75,
          "velocity": 0.5511811023622047
        },
        {
          "duration": 0.25,
          "durationTicks": 96,
          "midi": 34,
          "name": "A#1",
          "ticks": 52224,
          "time": 136,
          "velocity": 0.8661417322834646
        },
        {
          "duration": 0.25,
          "durationTicks": 96,
          "midi": 22,
          "name": "A#0",
          "ticks": 52224,
          "time": 136,
          "velocity": 0.5511811023622047
        },
        {
          "duration": 0.25,
          "durationTicks": 96,
          "midi": 34,
          "name": "A#1",
          "ticks": 52320,
          "time": 136.25,
          "velocity": 0.8661417322834646
        },
        {
          "duration": 0.25,
          "durationTicks": 96,
          "midi": 22,
          "name": "A#0",
          "ticks": 52320,
          "time": 136.25,
          "velocity": 0.5511811023622047
        },
        {
          "duration": 0.125,
          "durationTicks": 48,
          "midi": 34,
          "name": "A#1",
          "ticks": 52416,
          "time": 136.5,
          "velocity": 0.8661417322834646
        },
        {
          "duration": 0.125,
          "durationTicks": 48,
          "midi": 22,
          "name": "A#0",
          "ticks": 52416,
          "time": 136.5,
          "velocity": 0.5511811023622047
        },
        {
          "duration": 0.25,
          "durationTicks": 96,
          "midi": 34,
          "name": "A#1",
          "ticks": 52464,
          "time": 136.625,
          "velocity": 0.8661417322834646
        },
        {
          "duration": 0.25,
          "durationTicks": 96,
          "midi": 22,
          "name": "A#0",
          "ticks": 52464,
          "time": 136.625,
          "velocity": 0.5511811023622047
        },
        {
          "duration": 0.25,
          "durationTicks": 96,
          "midi": 34,
          "name": "A#1",
          "ticks": 52560,
          "time": 136.875,
          "velocity": 0.8661417322834646
        },
        {
          "duration": 0.25,
          "durationTicks": 96,
          "midi": 22,
          "name": "A#0",
          "ticks": 52560,
          "time": 136.875,
          "velocity": 0.5511811023622047
        },
        {
          "duration": 0.25,
          "durationTicks": 96,
          "midi": 34,
          "name": "A#1",
          "ticks": 52656,
          "time": 137.125,
          "velocity": 0.8661417322834646
        },
        {
          "duration": 0.25,
          "durationTicks": 96,
          "midi": 22,
          "name": "A#0",
          "ticks": 52656,
          "time": 137.125,
          "velocity": 0.5511811023622047
        },
        {
          "duration": 0.125,
          "durationTicks": 48,
          "midi": 34,
          "name": "A#1",
          "ticks": 52752,
          "time": 137.375,
          "velocity": 0.8661417322834646
        },
        {
          "duration": 0.125,
          "durationTicks": 48,
          "midi": 22,
          "name": "A#0",
          "ticks": 52752,
          "time": 137.375,
          "velocity": 0.5511811023622047
        },
        {
          "duration": 0.125,
          "durationTicks": 48,
          "midi": 34,
          "name": "A#1",
          "ticks": 52800,
          "time": 137.5,
          "velocity": 0.8661417322834646
        },
        {
          "duration": 0.125,
          "durationTicks": 48,
          "midi": 22,
          "name": "A#0",
          "ticks": 52800,
          "time": 137.5,
          "velocity": 0.5511811023622047
        },
        {
          "duration": 0.125,
          "durationTicks": 48,
          "midi": 34,
          "name": "A#1",
          "ticks": 52848,
          "time": 137.625,
          "velocity": 0.8661417322834646
        },
        {
          "duration": 0.125,
          "durationTicks": 48,
          "midi": 22,
          "name": "A#0",
          "ticks": 52848,
          "time": 137.625,
          "velocity": 0.5511811023622047
        },
        {
          "duration": 0.25,
          "durationTicks": 96,
          "midi": 34,
          "name": "A#1",
          "ticks": 52896,
          "time": 137.75,
          "velocity": 0.8661417322834646
        },
        {
          "duration": 0.25,
          "durationTicks": 96,
          "midi": 22,
          "name": "A#0",
          "ticks": 52896,
          "time": 137.75,
          "velocity": 0.5511811023622047
        },
        {
          "duration": 0.25,
          "durationTicks": 96,
          "midi": 36,
          "name": "C2",
          "ticks": 52992,
          "time": 138,
          "velocity": 0.8661417322834646
        },
        {
          "duration": 0.25,
          "durationTicks": 96,
          "midi": 24,
          "name": "C1",
          "ticks": 52992,
          "time": 138,
          "velocity": 0.5511811023622047
        },
        {
          "duration": 0.25,
          "durationTicks": 96,
          "midi": 36,
          "name": "C2",
          "ticks": 53088,
          "time": 138.25,
          "velocity": 0.8661417322834646
        },
        {
          "duration": 0.25,
          "durationTicks": 96,
          "midi": 24,
          "name": "C1",
          "ticks": 53088,
          "time": 138.25,
          "velocity": 0.5511811023622047
        },
        {
          "duration": 0.125,
          "durationTicks": 48,
          "midi": 36,
          "name": "C2",
          "ticks": 53184,
          "time": 138.5,
          "velocity": 0.8661417322834646
        },
        {
          "duration": 0.125,
          "durationTicks": 48,
          "midi": 24,
          "name": "C1",
          "ticks": 53184,
          "time": 138.5,
          "velocity": 0.5511811023622047
        },
        {
          "duration": 0.25,
          "durationTicks": 96,
          "midi": 36,
          "name": "C2",
          "ticks": 53232,
          "time": 138.625,
          "velocity": 0.8661417322834646
        },
        {
          "duration": 0.25,
          "durationTicks": 96,
          "midi": 24,
          "name": "C1",
          "ticks": 53232,
          "time": 138.625,
          "velocity": 0.5511811023622047
        },
        {
          "duration": 0.25,
          "durationTicks": 96,
          "midi": 36,
          "name": "C2",
          "ticks": 53328,
          "time": 138.875,
          "velocity": 0.8661417322834646
        },
        {
          "duration": 0.25,
          "durationTicks": 96,
          "midi": 24,
          "name": "C1",
          "ticks": 53328,
          "time": 138.875,
          "velocity": 0.5511811023622047
        },
        {
          "duration": 0.25,
          "durationTicks": 96,
          "midi": 36,
          "name": "C2",
          "ticks": 53424,
          "time": 139.125,
          "velocity": 0.8661417322834646
        },
        {
          "duration": 0.25,
          "durationTicks": 96,
          "midi": 24,
          "name": "C1",
          "ticks": 53424,
          "time": 139.125,
          "velocity": 0.5511811023622047
        },
        {
          "duration": 0.125,
          "durationTicks": 48,
          "midi": 36,
          "name": "C2",
          "ticks": 53520,
          "time": 139.375,
          "velocity": 0.8661417322834646
        },
        {
          "duration": 0.125,
          "durationTicks": 48,
          "midi": 24,
          "name": "C1",
          "ticks": 53520,
          "time": 139.375,
          "velocity": 0.5511811023622047
        },
        {
          "duration": 0.125,
          "durationTicks": 48,
          "midi": 36,
          "name": "C2",
          "ticks": 53568,
          "time": 139.5,
          "velocity": 0.8661417322834646
        },
        {
          "duration": 0.125,
          "durationTicks": 48,
          "midi": 24,
          "name": "C1",
          "ticks": 53568,
          "time": 139.5,
          "velocity": 0.5511811023622047
        },
        {
          "duration": 0.125,
          "durationTicks": 48,
          "midi": 36,
          "name": "C2",
          "ticks": 53616,
          "time": 139.625,
          "velocity": 0.8661417322834646
        },
        {
          "duration": 0.125,
          "durationTicks": 48,
          "midi": 24,
          "name": "C1",
          "ticks": 53616,
          "time": 139.625,
          "velocity": 0.5511811023622047
        },
        {
          "duration": 0.25,
          "durationTicks": 96,
          "midi": 36,
          "name": "C2",
          "ticks": 53664,
          "time": 139.75,
          "velocity": 0.8661417322834646
        },
        {
          "duration": 0.25,
          "durationTicks": 96,
          "midi": 24,
          "name": "C1",
          "ticks": 53664,
          "time": 139.75,
          "velocity": 0.5511811023622047
        },
        {
          "duration": 0.25,
          "durationTicks": 96,
          "midi": 38,
          "name": "D2",
          "ticks": 53760,
          "time": 140,
          "velocity": 0.8661417322834646
        },
        {
          "duration": 0.25,
          "durationTicks": 96,
          "midi": 26,
          "name": "D1",
          "ticks": 53760,
          "time": 140,
          "velocity": 0.5511811023622047
        },
        {
          "duration": 0.25,
          "durationTicks": 96,
          "midi": 38,
          "name": "D2",
          "ticks": 53856,
          "time": 140.25,
          "velocity": 0.8661417322834646
        },
        {
          "duration": 0.25,
          "durationTicks": 96,
          "midi": 26,
          "name": "D1",
          "ticks": 53856,
          "time": 140.25,
          "velocity": 0.5511811023622047
        },
        {
          "duration": 0.125,
          "durationTicks": 48,
          "midi": 38,
          "name": "D2",
          "ticks": 53952,
          "time": 140.5,
          "velocity": 0.8661417322834646
        },
        {
          "duration": 0.125,
          "durationTicks": 48,
          "midi": 26,
          "name": "D1",
          "ticks": 53952,
          "time": 140.5,
          "velocity": 0.5511811023622047
        },
        {
          "duration": 0.25,
          "durationTicks": 96,
          "midi": 38,
          "name": "D2",
          "ticks": 54000,
          "time": 140.625,
          "velocity": 0.8661417322834646
        },
        {
          "duration": 0.25,
          "durationTicks": 96,
          "midi": 26,
          "name": "D1",
          "ticks": 54000,
          "time": 140.625,
          "velocity": 0.5511811023622047
        },
        {
          "duration": 0.25,
          "durationTicks": 96,
          "midi": 38,
          "name": "D2",
          "ticks": 54096,
          "time": 140.875,
          "velocity": 0.8661417322834646
        },
        {
          "duration": 0.25,
          "durationTicks": 96,
          "midi": 26,
          "name": "D1",
          "ticks": 54096,
          "time": 140.875,
          "velocity": 0.5511811023622047
        },
        {
          "duration": 0.25,
          "durationTicks": 96,
          "midi": 38,
          "name": "D2",
          "ticks": 54192,
          "time": 141.125,
          "velocity": 0.8661417322834646
        },
        {
          "duration": 0.25,
          "durationTicks": 96,
          "midi": 26,
          "name": "D1",
          "ticks": 54192,
          "time": 141.125,
          "velocity": 0.5511811023622047
        },
        {
          "duration": 0.125,
          "durationTicks": 48,
          "midi": 38,
          "name": "D2",
          "ticks": 54288,
          "time": 141.375,
          "velocity": 0.8661417322834646
        },
        {
          "duration": 0.125,
          "durationTicks": 48,
          "midi": 26,
          "name": "D1",
          "ticks": 54288,
          "time": 141.375,
          "velocity": 0.5511811023622047
        },
        {
          "duration": 0.125,
          "durationTicks": 48,
          "midi": 38,
          "name": "D2",
          "ticks": 54336,
          "time": 141.5,
          "velocity": 0.8661417322834646
        },
        {
          "duration": 0.125,
          "durationTicks": 48,
          "midi": 26,
          "name": "D1",
          "ticks": 54336,
          "time": 141.5,
          "velocity": 0.5511811023622047
        },
        {
          "duration": 0.125,
          "durationTicks": 48,
          "midi": 38,
          "name": "D2",
          "ticks": 54384,
          "time": 141.625,
          "velocity": 0.8661417322834646
        },
        {
          "duration": 0.125,
          "durationTicks": 48,
          "midi": 26,
          "name": "D1",
          "ticks": 54384,
          "time": 141.625,
          "velocity": 0.5511811023622047
        },
        {
          "duration": 0.25,
          "durationTicks": 96,
          "midi": 38,
          "name": "D2",
          "ticks": 54432,
          "time": 141.75,
          "velocity": 0.8661417322834646
        },
        {
          "duration": 0.25,
          "durationTicks": 96,
          "midi": 26,
          "name": "D1",
          "ticks": 54432,
          "time": 141.75,
          "velocity": 0.5511811023622047
        },
        {
          "duration": 0.25,
          "durationTicks": 96,
          "midi": 38,
          "name": "D2",
          "ticks": 54528,
          "time": 142,
          "velocity": 0.8661417322834646
        },
        {
          "duration": 0.25,
          "durationTicks": 96,
          "midi": 26,
          "name": "D1",
          "ticks": 54528,
          "time": 142,
          "velocity": 0.5511811023622047
        },
        {
          "duration": 0.25,
          "durationTicks": 96,
          "midi": 38,
          "name": "D2",
          "ticks": 54624,
          "time": 142.25,
          "velocity": 0.8661417322834646
        },
        {
          "duration": 0.25,
          "durationTicks": 96,
          "midi": 26,
          "name": "D1",
          "ticks": 54624,
          "time": 142.25,
          "velocity": 0.5511811023622047
        },
        {
          "duration": 0.125,
          "durationTicks": 48,
          "midi": 38,
          "name": "D2",
          "ticks": 54720,
          "time": 142.5,
          "velocity": 0.8661417322834646
        },
        {
          "duration": 0.125,
          "durationTicks": 48,
          "midi": 26,
          "name": "D1",
          "ticks": 54720,
          "time": 142.5,
          "velocity": 0.5511811023622047
        },
        {
          "duration": 0.25,
          "durationTicks": 96,
          "midi": 38,
          "name": "D2",
          "ticks": 54768,
          "time": 142.625,
          "velocity": 0.8661417322834646
        },
        {
          "duration": 0.25,
          "durationTicks": 96,
          "midi": 26,
          "name": "D1",
          "ticks": 54768,
          "time": 142.625,
          "velocity": 0.5511811023622047
        },
        {
          "duration": 0.25,
          "durationTicks": 96,
          "midi": 38,
          "name": "D2",
          "ticks": 54864,
          "time": 142.875,
          "velocity": 0.8661417322834646
        },
        {
          "duration": 0.25,
          "durationTicks": 96,
          "midi": 26,
          "name": "D1",
          "ticks": 54864,
          "time": 142.875,
          "velocity": 0.5511811023622047
        },
        {
          "duration": 0.25,
          "durationTicks": 96,
          "midi": 38,
          "name": "D2",
          "ticks": 54960,
          "time": 143.125,
          "velocity": 0.8661417322834646
        },
        {
          "duration": 0.25,
          "durationTicks": 96,
          "midi": 26,
          "name": "D1",
          "ticks": 54960,
          "time": 143.125,
          "velocity": 0.5511811023622047
        },
        {
          "duration": 0.125,
          "durationTicks": 48,
          "midi": 38,
          "name": "D2",
          "ticks": 55056,
          "time": 143.375,
          "velocity": 0.8661417322834646
        },
        {
          "duration": 0.125,
          "durationTicks": 48,
          "midi": 26,
          "name": "D1",
          "ticks": 55056,
          "time": 143.375,
          "velocity": 0.5511811023622047
        },
        {
          "duration": 0.125,
          "durationTicks": 48,
          "midi": 38,
          "name": "D2",
          "ticks": 55104,
          "time": 143.5,
          "velocity": 0.8661417322834646
        },
        {
          "duration": 0.125,
          "durationTicks": 48,
          "midi": 26,
          "name": "D1",
          "ticks": 55104,
          "time": 143.5,
          "velocity": 0.5511811023622047
        },
        {
          "duration": 0.125,
          "durationTicks": 48,
          "midi": 38,
          "name": "D2",
          "ticks": 55152,
          "time": 143.625,
          "velocity": 0.8661417322834646
        },
        {
          "duration": 0.125,
          "durationTicks": 48,
          "midi": 26,
          "name": "D1",
          "ticks": 55152,
          "time": 143.625,
          "velocity": 0.5511811023622047
        },
        {
          "duration": 0.25,
          "durationTicks": 96,
          "midi": 38,
          "name": "D2",
          "ticks": 55200,
          "time": 143.75,
          "velocity": 0.8661417322834646
        },
        {
          "duration": 0.25,
          "durationTicks": 96,
          "midi": 26,
          "name": "D1",
          "ticks": 55200,
          "time": 143.75,
          "velocity": 0.5511811023622047
        }
      ]
    },
    {
      "channel": 0,
      "controlChanges": {
        "0": [
          {
            "number": 0,
            "ticks": 0,
            "time": 0,
            "value": 0
          }
        ],
        "32": [
          {
            "number": 32,
            "ticks": 0,
            "time": 0,
            "value": 0
          }
        ]
      },
      "pitchBends": [],
      "instrument": {
        "family": "piano",
        "number": 0,
        "name": "acoustic grand piano"
      },
      "name": "Staff-3",
      "notes": [],
      "endOfTrackTicks": 55207
    },
    {
      "channel": 9,
      "controlChanges": {
        "7": [
          {
            "number": 7,
            "ticks": 0,
            "time": 0,
            "value": 1
          },
          {
            "number": 7,
            "ticks": 0,
            "time": 0,
            "value": 1
          }
        ],
        "10": [
          {
            "number": 10,
            "ticks": 0,
            "time": 0,
            "value": 0.5039370078740157
          }
        ]
      },
      "pitchBends": [],
      "instrument": {
        "family": "drums",
        "number": 16,
        "name": "power kit"
      },
      "name": "",
      "notes": [
        {
          "duration": 0.01822916666666785,
          "durationTicks": 7,
          "midi": 49,
          "name": "C#3",
          "ticks": 6144,
          "time": 16,
          "velocity": 0.8661417322834646
        },
        {
          "duration": 0.01822916666666785,
          "durationTicks": 7,
          "midi": 46,
          "name": "A#2",
          "ticks": 6240,
          "time": 16.25,
          "velocity": 0.8661417322834646
        },
        {
          "duration": 0.01822916666666785,
          "durationTicks": 7,
          "midi": 59,
          "name": "B3",
          "ticks": 6240,
          "time": 16.25,
          "velocity": 0.47244094488188976
        },
        {
          "duration": 0.01822916666666785,
          "durationTicks": 7,
          "midi": 46,
          "name": "A#2",
          "ticks": 6432,
          "time": 16.75,
          "velocity": 0.8661417322834646
        },
        {
          "duration": 0.01822916666666785,
          "durationTicks": 7,
          "midi": 59,
          "name": "B3",
          "ticks": 6432,
          "time": 16.75,
          "velocity": 0.47244094488188976
        },
        {
          "duration": 0.01822916666666785,
          "durationTicks": 7,
          "midi": 46,
          "name": "A#2",
          "ticks": 6624,
          "time": 17.25,
          "velocity": 0.8661417322834646
        },
        {
          "duration": 0.01822916666666785,
          "durationTicks": 7,
          "midi": 59,
          "name": "B3",
          "ticks": 6624,
          "time": 17.25,
          "velocity": 0.47244094488188976
        },
        {
          "duration": 0.01822916666666785,
          "durationTicks": 7,
          "midi": 46,
          "name": "A#2",
          "ticks": 6816,
          "time": 17.75,
          "velocity": 0.8661417322834646
        },
        {
          "duration": 0.01822916666666785,
          "durationTicks": 7,
          "midi": 59,
          "name": "B3",
          "ticks": 6816,
          "time": 17.75,
          "velocity": 0.47244094488188976
        },
        {
          "duration": 0.01822916666666785,
          "durationTicks": 7,
          "midi": 46,
          "name": "A#2",
          "ticks": 7008,
          "time": 18.25,
          "velocity": 0.8661417322834646
        },
        {
          "duration": 0.01822916666666785,
          "durationTicks": 7,
          "midi": 59,
          "name": "B3",
          "ticks": 7008,
          "time": 18.25,
          "velocity": 0.47244094488188976
        },
        {
          "duration": 0.01822916666666785,
          "durationTicks": 7,
          "midi": 46,
          "name": "A#2",
          "ticks": 7200,
          "time": 18.75,
          "velocity": 0.8661417322834646
        },
        {
          "duration": 0.01822916666666785,
          "durationTicks": 7,
          "midi": 59,
          "name": "B3",
          "ticks": 7200,
          "time": 18.75,
          "velocity": 0.47244094488188976
        },
        {
          "duration": 0.01822916666666785,
          "durationTicks": 7,
          "midi": 46,
          "name": "A#2",
          "ticks": 7392,
          "time": 19.25,
          "velocity": 0.8661417322834646
        },
        {
          "duration": 0.01822916666666785,
          "durationTicks": 7,
          "midi": 59,
          "name": "B3",
          "ticks": 7392,
          "time": 19.25,
          "velocity": 0.47244094488188976
        },
        {
          "duration": 0.01822916666666785,
          "durationTicks": 7,
          "midi": 46,
          "name": "A#2",
          "ticks": 7584,
          "time": 19.75,
          "velocity": 0.8661417322834646
        },
        {
          "duration": 0.01822916666666785,
          "durationTicks": 7,
          "midi": 59,
          "name": "B3",
          "ticks": 7584,
          "time": 19.75,
          "velocity": 0.47244094488188976
        },
        {
          "duration": 0.01822916666666785,
          "durationTicks": 7,
          "midi": 46,
          "name": "A#2",
          "ticks": 7776,
          "time": 20.25,
          "velocity": 0.8661417322834646
        },
        {
          "duration": 0.01822916666666785,
          "durationTicks": 7,
          "midi": 59,
          "name": "B3",
          "ticks": 7776,
          "time": 20.25,
          "velocity": 0.47244094488188976
        },
        {
          "duration": 0.01822916666666785,
          "durationTicks": 7,
          "midi": 46,
          "name": "A#2",
          "ticks": 7968,
          "time": 20.75,
          "velocity": 0.8661417322834646
        },
        {
          "duration": 0.01822916666666785,
          "durationTicks": 7,
          "midi": 59,
          "name": "B3",
          "ticks": 7968,
          "time": 20.75,
          "velocity": 0.47244094488188976
        },
        {
          "duration": 0.01822916666666785,
          "durationTicks": 7,
          "midi": 46,
          "name": "A#2",
          "ticks": 8160,
          "time": 21.25,
          "velocity": 0.8661417322834646
        },
        {
          "duration": 0.01822916666666785,
          "durationTicks": 7,
          "midi": 59,
          "name": "B3",
          "ticks": 8160,
          "time": 21.25,
          "velocity": 0.47244094488188976
        },
        {
          "duration": 0.01822916666666785,
          "durationTicks": 7,
          "midi": 46,
          "name": "A#2",
          "ticks": 8352,
          "time": 21.75,
          "velocity": 0.8661417322834646
        },
        {
          "duration": 0.01822916666666785,
          "durationTicks": 7,
          "midi": 59,
          "name": "B3",
          "ticks": 8352,
          "time": 21.75,
          "velocity": 0.47244094488188976
        },
        {
          "duration": 0.01822916666666785,
          "durationTicks": 7,
          "midi": 46,
          "name": "A#2",
          "ticks": 8544,
          "time": 22.25,
          "velocity": 0.8661417322834646
        },
        {
          "duration": 0.01822916666666785,
          "durationTicks": 7,
          "midi": 59,
          "name": "B3",
          "ticks": 8544,
          "time": 22.25,
          "velocity": 0.47244094488188976
        },
        {
          "duration": 0.01822916666666785,
          "durationTicks": 7,
          "midi": 46,
          "name": "A#2",
          "ticks": 8736,
          "time": 22.75,
          "velocity": 0.8661417322834646
        },
        {
          "duration": 0.01822916666666785,
          "durationTicks": 7,
          "midi": 59,
          "name": "B3",
          "ticks": 8736,
          "time": 22.75,
          "velocity": 0.47244094488188976
        },
        {
          "duration": 0.01822916666666785,
          "durationTicks": 7,
          "midi": 46,
          "name": "A#2",
          "ticks": 8832,
          "time": 23,
          "velocity": 0.5511811023622047
        },
        {
          "duration": 0.01822916666666785,
          "durationTicks": 7,
          "midi": 49,
          "name": "C#3",
          "ticks": 8832,
          "time": 23,
          "velocity": 0.8661417322834646
        },
        {
          "duration": 0.01822916666666785,
          "durationTicks": 7,
          "midi": 59,
          "name": "B3",
          "ticks": 8928,
          "time": 23.25,
          "velocity": 0.47244094488188976
        },
        {
          "duration": 0.01822916666666785,
          "durationTicks": 7,
          "midi": 46,
          "name": "A#2",
          "ticks": 8976,
          "time": 23.375,
          "velocity": 0.5511811023622047
        },
        {
          "duration": 0.01822916666666785,
          "durationTicks": 7,
          "midi": 49,
          "name": "C#3",
          "ticks": 8976,
          "time": 23.375,
          "velocity": 0.8661417322834646
        },
        {
          "duration": 0.01822916666666785,
          "durationTicks": 7,
          "midi": 59,
          "name": "B3",
          "ticks": 9120,
          "time": 23.75,
          "velocity": 0.47244094488188976
        },
        {
          "duration": 0.01822916666666785,
          "durationTicks": 7,
          "midi": 46,
          "name": "A#2",
          "ticks": 9120,
          "time": 23.75,
          "velocity": 0.5511811023622047
        },
        {
          "duration": 0.01822916666666785,
          "durationTicks": 7,
          "midi": 49,
          "name": "C#3",
          "ticks": 9120,
          "time": 23.75,
          "velocity": 0.8661417322834646
        },
        {
          "duration": 0.01822916666666785,
          "durationTicks": 7,
          "midi": 49,
          "name": "C#3",
          "ticks": 9216,
          "time": 24,
          "velocity": 0.8661417322834646
        },
        {
          "duration": 0.01822916666666785,
          "durationTicks": 7,
          "midi": 59,
          "name": "B3",
          "ticks": 9312,
          "time": 24.25,
          "velocity": 0.47244094488188976
        },
        {
          "duration": 0.01822916666666785,
          "durationTicks": 7,
          "midi": 46,
          "name": "A#2",
          "ticks": 9312,
          "time": 24.25,
          "velocity": 0.8661417322834646
        },
        {
          "duration": 0.01822916666666785,
          "durationTicks": 7,
          "midi": 59,
          "name": "B3",
          "ticks": 9504,
          "time": 24.75,
          "velocity": 0.47244094488188976
        },
        {
          "duration": 0.01822916666666785,
          "durationTicks": 7,
          "midi": 46,
          "name": "A#2",
          "ticks": 9504,
          "time": 24.75,
          "velocity": 0.8661417322834646
        },
        {
          "duration": 0.01822916666666785,
          "durationTicks": 7,
          "midi": 59,
          "name": "B3",
          "ticks": 9696,
          "time": 25.25,
          "velocity": 0.47244094488188976
        },
        {
          "duration": 0.01822916666666785,
          "durationTicks": 7,
          "midi": 46,
          "name": "A#2",
          "ticks": 9696,
          "time": 25.25,
          "velocity": 0.8661417322834646
        },
        {
          "duration": 0.01822916666666785,
          "durationTicks": 7,
          "midi": 59,
          "name": "B3",
          "ticks": 9888,
          "time": 25.75,
          "velocity": 0.47244094488188976
        },
        {
          "duration": 0.01822916666666785,
          "durationTicks": 7,
          "midi": 46,
          "name": "A#2",
          "ticks": 9888,
          "time": 25.75,
          "velocity": 0.8661417322834646
        },
        {
          "duration": 0.01822916666666785,
          "durationTicks": 7,
          "midi": 59,
          "name": "B3",
          "ticks": 10080,
          "time": 26.25,
          "velocity": 0.47244094488188976
        },
        {
          "duration": 0.01822916666666785,
          "durationTicks": 7,
          "midi": 46,
          "name": "A#2",
          "ticks": 10080,
          "time": 26.25,
          "velocity": 0.8661417322834646
        },
        {
          "duration": 0.01822916666666785,
          "durationTicks": 7,
          "midi": 59,
          "name": "B3",
          "ticks": 10272,
          "time": 26.75,
          "velocity": 0.47244094488188976
        },
        {
          "duration": 0.01822916666666785,
          "durationTicks": 7,
          "midi": 46,
          "name": "A#2",
          "ticks": 10272,
          "time": 26.75,
          "velocity": 0.8661417322834646
        },
        {
          "duration": 0.01822916666666785,
          "durationTicks": 7,
          "midi": 59,
          "name": "B3",
          "ticks": 10464,
          "time": 27.25,
          "velocity": 0.47244094488188976
        },
        {
          "duration": 0.01822916666666785,
          "durationTicks": 7,
          "midi": 46,
          "name": "A#2",
          "ticks": 10464,
          "time": 27.25,
          "velocity": 0.8661417322834646
        },
        {
          "duration": 0.01822916666666785,
          "durationTicks": 7,
          "midi": 59,
          "name": "B3",
          "ticks": 10656,
          "time": 27.75,
          "velocity": 0.47244094488188976
        },
        {
          "duration": 0.01822916666666785,
          "durationTicks": 7,
          "midi": 46,
          "name": "A#2",
          "ticks": 10656,
          "time": 27.75,
          "velocity": 0.8661417322834646
        },
        {
          "duration": 0.01822916666666785,
          "durationTicks": 7,
          "midi": 59,
          "name": "B3",
          "ticks": 10848,
          "time": 28.25,
          "velocity": 0.47244094488188976
        },
        {
          "duration": 0.01822916666666785,
          "durationTicks": 7,
          "midi": 46,
          "name": "A#2",
          "ticks": 10848,
          "time": 28.25,
          "velocity": 0.8661417322834646
        },
        {
          "duration": 0.01822916666666785,
          "durationTicks": 7,
          "midi": 59,
          "name": "B3",
          "ticks": 11040,
          "time": 28.75,
          "velocity": 0.47244094488188976
        },
        {
          "duration": 0.01822916666666785,
          "durationTicks": 7,
          "midi": 46,
          "name": "A#2",
          "ticks": 11040,
          "time": 28.75,
          "velocity": 0.8661417322834646
        },
        {
          "duration": 0.01822916666666785,
          "durationTicks": 7,
          "midi": 59,
          "name": "B3",
          "ticks": 11232,
          "time": 29.25,
          "velocity": 0.47244094488188976
        },
        {
          "duration": 0.01822916666666785,
          "durationTicks": 7,
          "midi": 46,
          "name": "A#2",
          "ticks": 11232,
          "time": 29.25,
          "velocity": 0.8661417322834646
        },
        {
          "duration": 0.01822916666666785,
          "durationTicks": 7,
          "midi": 59,
          "name": "B3",
          "ticks": 11424,
          "time": 29.75,
          "velocity": 0.47244094488188976
        },
        {
          "duration": 0.01822916666666785,
          "durationTicks": 7,
          "midi": 46,
          "name": "A#2",
          "ticks": 11424,
          "time": 29.75,
          "velocity": 0.8661417322834646
        },
        {
          "duration": 0.01822916666666785,
          "durationTicks": 7,
          "midi": 59,
          "name": "B3",
          "ticks": 11616,
          "time": 30.25,
          "velocity": 0.47244094488188976
        },
        {
          "duration": 0.01822916666666785,
          "durationTicks": 7,
          "midi": 46,
          "name": "A#2",
          "ticks": 11616,
          "time": 30.25,
          "velocity": 0.8661417322834646
        },
        {
          "duration": 0.01822916666666785,
          "durationTicks": 7,
          "midi": 59,
          "name": "B3",
          "ticks": 11808,
          "time": 30.75,
          "velocity": 0.47244094488188976
        },
        {
          "duration": 0.01822916666666785,
          "durationTicks": 7,
          "midi": 46,
          "name": "A#2",
          "ticks": 11808,
          "time": 30.75,
          "velocity": 0.8661417322834646
        },
        {
          "duration": 0.01822916666666785,
          "durationTicks": 7,
          "midi": 49,
          "name": "C#3",
          "ticks": 11904,
          "time": 31,
          "velocity": 0.8661417322834646
        },
        {
          "duration": 0.01822916666666785,
          "durationTicks": 7,
          "midi": 59,
          "name": "B3",
          "ticks": 12000,
          "time": 31.25,
          "velocity": 0.47244094488188976
        },
        {
          "duration": 0.01822916666666785,
          "durationTicks": 7,
          "midi": 49,
          "name": "C#3",
          "ticks": 12048,
          "time": 31.375,
          "velocity": 0.8661417322834646
        },
        {
          "duration": 0.01822916666666785,
          "durationTicks": 7,
          "midi": 59,
          "name": "B3",
          "ticks": 12192,
          "time": 31.75,
          "velocity": 0.47244094488188976
        },
        {
          "duration": 0.01822916666666785,
          "durationTicks": 7,
          "midi": 49,
          "name": "C#3",
          "ticks": 12192,
          "time": 31.75,
          "velocity": 0.8661417322834646
        },
        {
          "duration": 0.018229166666664298,
          "durationTicks": 7,
          "midi": 49,
          "name": "C#3",
          "ticks": 12288,
          "time": 32,
          "velocity": 0.8661417322834646
        },
        {
          "duration": 0.018229166666664298,
          "durationTicks": 7,
          "midi": 59,
          "name": "B3",
          "ticks": 12384,
          "time": 32.25,
          "velocity": 0.47244094488188976
        },
        {
          "duration": 0.018229166666664298,
          "durationTicks": 7,
          "midi": 44,
          "name": "G#2",
          "ticks": 12384,
          "time": 32.25,
          "velocity": 0.8661417322834646
        },
        {
          "duration": 0.018229166666664298,
          "durationTicks": 7,
          "midi": 59,
          "name": "B3",
          "ticks": 12576,
          "time": 32.75,
          "velocity": 0.47244094488188976
        },
        {
          "duration": 0.018229166666664298,
          "durationTicks": 7,
          "midi": 44,
          "name": "G#2",
          "ticks": 12576,
          "time": 32.75,
          "velocity": 0.8661417322834646
        },
        {
          "duration": 0.018229166666664298,
          "durationTicks": 7,
          "midi": 59,
          "name": "B3",
          "ticks": 12768,
          "time": 33.25,
          "velocity": 0.47244094488188976
        },
        {
          "duration": 0.018229166666664298,
          "durationTicks": 7,
          "midi": 44,
          "name": "G#2",
          "ticks": 12768,
          "time": 33.25,
          "velocity": 0.8661417322834646
        },
        {
          "duration": 0.018229166666664298,
          "durationTicks": 7,
          "midi": 59,
          "name": "B3",
          "ticks": 12960,
          "time": 33.75,
          "velocity": 0.47244094488188976
        },
        {
          "duration": 0.018229166666664298,
          "durationTicks": 7,
          "midi": 44,
          "name": "G#2",
          "ticks": 12960,
          "time": 33.75,
          "velocity": 0.8661417322834646
        },
        {
          "duration": 0.018229166666664298,
          "durationTicks": 7,
          "midi": 59,
          "name": "B3",
          "ticks": 13152,
          "time": 34.25,
          "velocity": 0.47244094488188976
        },
        {
          "duration": 0.018229166666664298,
          "durationTicks": 7,
          "midi": 44,
          "name": "G#2",
          "ticks": 13152,
          "time": 34.25,
          "velocity": 0.8661417322834646
        },
        {
          "duration": 0.018229166666664298,
          "durationTicks": 7,
          "midi": 59,
          "name": "B3",
          "ticks": 13344,
          "time": 34.75,
          "velocity": 0.47244094488188976
        },
        {
          "duration": 0.018229166666664298,
          "durationTicks": 7,
          "midi": 44,
          "name": "G#2",
          "ticks": 13344,
          "time": 34.75,
          "velocity": 0.8661417322834646
        },
        {
          "duration": 0.018229166666664298,
          "durationTicks": 7,
          "midi": 59,
          "name": "B3",
          "ticks": 13536,
          "time": 35.25,
          "velocity": 0.47244094488188976
        },
        {
          "duration": 0.018229166666664298,
          "durationTicks": 7,
          "midi": 44,
          "name": "G#2",
          "ticks": 13536,
          "time": 35.25,
          "velocity": 0.8661417322834646
        },
        {
          "duration": 0.018229166666664298,
          "durationTicks": 7,
          "midi": 59,
          "name": "B3",
          "ticks": 13728,
          "time": 35.75,
          "velocity": 0.47244094488188976
        },
        {
          "duration": 0.018229166666664298,
          "durationTicks": 7,
          "midi": 44,
          "name": "G#2",
          "ticks": 13728,
          "time": 35.75,
          "velocity": 0.8661417322834646
        },
        {
          "duration": 0.018229166666664298,
          "durationTicks": 7,
          "midi": 59,
          "name": "B3",
          "ticks": 13920,
          "time": 36.25,
          "velocity": 0.47244094488188976
        },
        {
          "duration": 0.018229166666664298,
          "durationTicks": 7,
          "midi": 44,
          "name": "G#2",
          "ticks": 13920,
          "time": 36.25,
          "velocity": 0.8661417322834646
        },
        {
          "duration": 0.018229166666664298,
          "durationTicks": 7,
          "midi": 59,
          "name": "B3",
          "ticks": 14112,
          "time": 36.75,
          "velocity": 0.47244094488188976
        },
        {
          "duration": 0.018229166666664298,
          "durationTicks": 7,
          "midi": 44,
          "name": "G#2",
          "ticks": 14112,
          "time": 36.75,
          "velocity": 0.8661417322834646
        },
        {
          "duration": 0.018229166666664298,
          "durationTicks": 7,
          "midi": 59,
          "name": "B3",
          "ticks": 14304,
          "time": 37.25,
          "velocity": 0.47244094488188976
        },
        {
          "duration": 0.018229166666664298,
          "durationTicks": 7,
          "midi": 44,
          "name": "G#2",
          "ticks": 14304,
          "time": 37.25,
          "velocity": 0.8661417322834646
        },
        {
          "duration": 0.018229166666664298,
          "durationTicks": 7,
          "midi": 59,
          "name": "B3",
          "ticks": 14496,
          "time": 37.75,
          "velocity": 0.47244094488188976
        },
        {
          "duration": 0.018229166666664298,
          "durationTicks": 7,
          "midi": 44,
          "name": "G#2",
          "ticks": 14496,
          "time": 37.75,
          "velocity": 0.8661417322834646
        },
        {
          "duration": 0.018229166666664298,
          "durationTicks": 7,
          "midi": 59,
          "name": "B3",
          "ticks": 14688,
          "time": 38.25,
          "velocity": 0.47244094488188976
        },
        {
          "duration": 0.018229166666664298,
          "durationTicks": 7,
          "midi": 44,
          "name": "G#2",
          "ticks": 14688,
          "time": 38.25,
          "velocity": 0.8661417322834646
        },
        {
          "duration": 0.018229166666664298,
          "durationTicks": 7,
          "midi": 59,
          "name": "B3",
          "ticks": 14880,
          "time": 38.75,
          "velocity": 0.47244094488188976
        },
        {
          "duration": 0.018229166666664298,
          "durationTicks": 7,
          "midi": 44,
          "name": "G#2",
          "ticks": 14880,
          "time": 38.75,
          "velocity": 0.8661417322834646
        },
        {
          "duration": 0.018229166666664298,
          "durationTicks": 7,
          "midi": 49,
          "name": "C#3",
          "ticks": 14976,
          "time": 39,
          "velocity": 0.8661417322834646
        },
        {
          "duration": 0.018229166666664298,
          "durationTicks": 7,
          "midi": 59,
          "name": "B3",
          "ticks": 15072,
          "time": 39.25,
          "velocity": 0.47244094488188976
        },
        {
          "duration": 0.018229166666664298,
          "durationTicks": 7,
          "midi": 49,
          "name": "C#3",
          "ticks": 15120,
          "time": 39.375,
          "velocity": 0.8661417322834646
        },
        {
          "duration": 0.018229166666664298,
          "durationTicks": 7,
          "midi": 59,
          "name": "B3",
          "ticks": 15264,
          "time": 39.75,
          "velocity": 0.47244094488188976
        },
        {
          "duration": 0.018229166666664298,
          "durationTicks": 7,
          "midi": 49,
          "name": "C#3",
          "ticks": 15264,
          "time": 39.75,
          "velocity": 0.8661417322834646
        },
        {
          "duration": 0.018229166666664298,
          "durationTicks": 7,
          "midi": 49,
          "name": "C#3",
          "ticks": 15360,
          "time": 40,
          "velocity": 0.8661417322834646
        },
        {
          "duration": 0.018229166666664298,
          "durationTicks": 7,
          "midi": 46,
          "name": "A#2",
          "ticks": 15456,
          "time": 40.25,
          "velocity": 0.8661417322834646
        },
        {
          "duration": 0.018229166666664298,
          "durationTicks": 7,
          "midi": 59,
          "name": "B3",
          "ticks": 15456,
          "time": 40.25,
          "velocity": 0.47244094488188976
        },
        {
          "duration": 0.018229166666664298,
          "durationTicks": 7,
          "midi": 46,
          "name": "A#2",
          "ticks": 15648,
          "time": 40.75,
          "velocity": 0.8661417322834646
        },
        {
          "duration": 0.018229166666664298,
          "durationTicks": 7,
          "midi": 59,
          "name": "B3",
          "ticks": 15648,
          "time": 40.75,
          "velocity": 0.47244094488188976
        },
        {
          "duration": 0.018229166666664298,
          "durationTicks": 7,
          "midi": 46,
          "name": "A#2",
          "ticks": 15840,
          "time": 41.25,
          "velocity": 0.8661417322834646
        },
        {
          "duration": 0.018229166666664298,
          "durationTicks": 7,
          "midi": 59,
          "name": "B3",
          "ticks": 15840,
          "time": 41.25,
          "velocity": 0.47244094488188976
        },
        {
          "duration": 0.018229166666664298,
          "durationTicks": 7,
          "midi": 46,
          "name": "A#2",
          "ticks": 16032,
          "time": 41.75,
          "velocity": 0.8661417322834646
        },
        {
          "duration": 0.018229166666664298,
          "durationTicks": 7,
          "midi": 59,
          "name": "B3",
          "ticks": 16032,
          "time": 41.75,
          "velocity": 0.47244094488188976
        },
        {
          "duration": 0.018229166666664298,
          "durationTicks": 7,
          "midi": 46,
          "name": "A#2",
          "ticks": 16224,
          "time": 42.25,
          "velocity": 0.8661417322834646
        },
        {
          "duration": 0.018229166666664298,
          "durationTicks": 7,
          "midi": 59,
          "name": "B3",
          "ticks": 16224,
          "time": 42.25,
          "velocity": 0.47244094488188976
        },
        {
          "duration": 0.018229166666664298,
          "durationTicks": 7,
          "midi": 46,
          "name": "A#2",
          "ticks": 16416,
          "time": 42.75,
          "velocity": 0.8661417322834646
        },
        {
          "duration": 0.018229166666664298,
          "durationTicks": 7,
          "midi": 59,
          "name": "B3",
          "ticks": 16416,
          "time": 42.75,
          "velocity": 0.47244094488188976
        },
        {
          "duration": 0.018229166666664298,
          "durationTicks": 7,
          "midi": 46,
          "name": "A#2",
          "ticks": 16608,
          "time": 43.25,
          "velocity": 0.8661417322834646
        },
        {
          "duration": 0.018229166666664298,
          "durationTicks": 7,
          "midi": 59,
          "name": "B3",
          "ticks": 16608,
          "time": 43.25,
          "velocity": 0.47244094488188976
        },
        {
          "duration": 0.018229166666664298,
          "durationTicks": 7,
          "midi": 46,
          "name": "A#2",
          "ticks": 16800,
          "time": 43.75,
          "velocity": 0.8661417322834646
        },
        {
          "duration": 0.018229166666664298,
          "durationTicks": 7,
          "midi": 59,
          "name": "B3",
          "ticks": 16800,
          "time": 43.75,
          "velocity": 0.47244094488188976
        },
        {
          "duration": 0.018229166666664298,
          "durationTicks": 7,
          "midi": 46,
          "name": "A#2",
          "ticks": 16992,
          "time": 44.25,
          "velocity": 0.8661417322834646
        },
        {
          "duration": 0.018229166666664298,
          "durationTicks": 7,
          "midi": 59,
          "name": "B3",
          "ticks": 16992,
          "time": 44.25,
          "velocity": 0.47244094488188976
        },
        {
          "duration": 0.018229166666664298,
          "durationTicks": 7,
          "midi": 46,
          "name": "A#2",
          "ticks": 17184,
          "time": 44.75,
          "velocity": 0.8661417322834646
        },
        {
          "duration": 0.018229166666664298,
          "durationTicks": 7,
          "midi": 59,
          "name": "B3",
          "ticks": 17184,
          "time": 44.75,
          "velocity": 0.47244094488188976
        },
        {
          "duration": 0.018229166666664298,
          "durationTicks": 7,
          "midi": 46,
          "name": "A#2",
          "ticks": 17376,
          "time": 45.25,
          "velocity": 0.8661417322834646
        },
        {
          "duration": 0.018229166666664298,
          "durationTicks": 7,
          "midi": 59,
          "name": "B3",
          "ticks": 17376,
          "time": 45.25,
          "velocity": 0.47244094488188976
        },
        {
          "duration": 0.018229166666664298,
          "durationTicks": 7,
          "midi": 46,
          "name": "A#2",
          "ticks": 17568,
          "time": 45.75,
          "velocity": 0.8661417322834646
        },
        {
          "duration": 0.018229166666664298,
          "durationTicks": 7,
          "midi": 59,
          "name": "B3",
          "ticks": 17568,
          "time": 45.75,
          "velocity": 0.47244094488188976
        },
        {
          "duration": 0.018229166666664298,
          "durationTicks": 7,
          "midi": 46,
          "name": "A#2",
          "ticks": 17760,
          "time": 46.25,
          "velocity": 0.8661417322834646
        },
        {
          "duration": 0.018229166666664298,
          "durationTicks": 7,
          "midi": 59,
          "name": "B3",
          "ticks": 17760,
          "time": 46.25,
          "velocity": 0.47244094488188976
        },
        {
          "duration": 0.018229166666664298,
          "durationTicks": 7,
          "midi": 46,
          "name": "A#2",
          "ticks": 17952,
          "time": 46.75,
          "velocity": 0.8661417322834646
        },
        {
          "duration": 0.018229166666664298,
          "durationTicks": 7,
          "midi": 59,
          "name": "B3",
          "ticks": 17952,
          "time": 46.75,
          "velocity": 0.47244094488188976
        },
        {
          "duration": 0.018229166666664298,
          "durationTicks": 7,
          "midi": 49,
          "name": "C#3",
          "ticks": 18048,
          "time": 47,
          "velocity": 0.8661417322834646
        },
        {
          "duration": 0.018229166666664298,
          "durationTicks": 7,
          "midi": 59,
          "name": "B3",
          "ticks": 18144,
          "time": 47.25,
          "velocity": 0.47244094488188976
        },
        {
          "duration": 0.018229166666664298,
          "durationTicks": 7,
          "midi": 49,
          "name": "C#3",
          "ticks": 18192,
          "time": 47.375,
          "velocity": 0.8661417322834646
        },
        {
          "duration": 0.018229166666664298,
          "durationTicks": 7,
          "midi": 49,
          "name": "C#3",
          "ticks": 18336,
          "time": 47.75,
          "velocity": 0.8661417322834646
        },
        {
          "duration": 0.018229166666664298,
          "durationTicks": 7,
          "midi": 59,
          "name": "B3",
          "ticks": 18336,
          "time": 47.75,
          "velocity": 0.47244094488188976
        },
        {
          "duration": 0.018229166666664298,
          "durationTicks": 7,
          "midi": 49,
          "name": "C#3",
          "ticks": 18432,
          "time": 48,
          "velocity": 0.8661417322834646
        },
        {
          "duration": 0.018229166666664298,
          "durationTicks": 7,
          "midi": 59,
          "name": "B3",
          "ticks": 18528,
          "time": 48.25,
          "velocity": 0.47244094488188976
        },
        {
          "duration": 0.018229166666664298,
          "durationTicks": 7,
          "midi": 46,
          "name": "A#2",
          "ticks": 18528,
          "time": 48.25,
          "velocity": 0.8661417322834646
        },
        {
          "duration": 0.018229166666664298,
          "durationTicks": 7,
          "midi": 59,
          "name": "B3",
          "ticks": 18720,
          "time": 48.75,
          "velocity": 0.47244094488188976
        },
        {
          "duration": 0.018229166666664298,
          "durationTicks": 7,
          "midi": 46,
          "name": "A#2",
          "ticks": 18720,
          "time": 48.75,
          "velocity": 0.8661417322834646
        },
        {
          "duration": 0.018229166666664298,
          "durationTicks": 7,
          "midi": 59,
          "name": "B3",
          "ticks": 18912,
          "time": 49.25,
          "velocity": 0.47244094488188976
        },
        {
          "duration": 0.018229166666664298,
          "durationTicks": 7,
          "midi": 46,
          "name": "A#2",
          "ticks": 18912,
          "time": 49.25,
          "velocity": 0.8661417322834646
        },
        {
          "duration": 0.018229166666664298,
          "durationTicks": 7,
          "midi": 59,
          "name": "B3",
          "ticks": 19104,
          "time": 49.75,
          "velocity": 0.47244094488188976
        },
        {
          "duration": 0.018229166666664298,
          "durationTicks": 7,
          "midi": 46,
          "name": "A#2",
          "ticks": 19104,
          "time": 49.75,
          "velocity": 0.8661417322834646
        },
        {
          "duration": 0.018229166666664298,
          "durationTicks": 7,
          "midi": 59,
          "name": "B3",
          "ticks": 19296,
          "time": 50.25,
          "velocity": 0.47244094488188976
        },
        {
          "duration": 0.018229166666664298,
          "durationTicks": 7,
          "midi": 46,
          "name": "A#2",
          "ticks": 19296,
          "time": 50.25,
          "velocity": 0.8661417322834646
        },
        {
          "duration": 0.018229166666664298,
          "durationTicks": 7,
          "midi": 59,
          "name": "B3",
          "ticks": 19488,
          "time": 50.75,
          "velocity": 0.47244094488188976
        },
        {
          "duration": 0.018229166666664298,
          "durationTicks": 7,
          "midi": 46,
          "name": "A#2",
          "ticks": 19488,
          "time": 50.75,
          "velocity": 0.8661417322834646
        },
        {
          "duration": 0.018229166666664298,
          "durationTicks": 7,
          "midi": 59,
          "name": "B3",
          "ticks": 19680,
          "time": 51.25,
          "velocity": 0.47244094488188976
        },
        {
          "duration": 0.018229166666664298,
          "durationTicks": 7,
          "midi": 46,
          "name": "A#2",
          "ticks": 19680,
          "time": 51.25,
          "velocity": 0.8661417322834646
        },
        {
          "duration": 0.018229166666664298,
          "durationTicks": 7,
          "midi": 59,
          "name": "B3",
          "ticks": 19872,
          "time": 51.75,
          "velocity": 0.47244094488188976
        },
        {
          "duration": 0.018229166666664298,
          "durationTicks": 7,
          "midi": 46,
          "name": "A#2",
          "ticks": 19872,
          "time": 51.75,
          "velocity": 0.8661417322834646
        },
        {
          "duration": 0.018229166666664298,
          "durationTicks": 7,
          "midi": 59,
          "name": "B3",
          "ticks": 20064,
          "time": 52.25,
          "velocity": 0.47244094488188976
        },
        {
          "duration": 0.018229166666664298,
          "durationTicks": 7,
          "midi": 46,
          "name": "A#2",
          "ticks": 20064,
          "time": 52.25,
          "velocity": 0.8661417322834646
        },
        {
          "duration": 0.018229166666664298,
          "durationTicks": 7,
          "midi": 59,
          "name": "B3",
          "ticks": 20256,
          "time": 52.75,
          "velocity": 0.47244094488188976
        },
        {
          "duration": 0.018229166666664298,
          "durationTicks": 7,
          "midi": 46,
          "name": "A#2",
          "ticks": 20256,
          "time": 52.75,
          "velocity": 0.8661417322834646
        },
        {
          "duration": 0.018229166666664298,
          "durationTicks": 7,
          "midi": 59,
          "name": "B3",
          "ticks": 20448,
          "time": 53.25,
          "velocity": 0.47244094488188976
        },
        {
          "duration": 0.018229166666664298,
          "durationTicks": 7,
          "midi": 46,
          "name": "A#2",
          "ticks": 20448,
          "time": 53.25,
          "velocity": 0.8661417322834646
        },
        {
          "duration": 0.018229166666664298,
          "durationTicks": 7,
          "midi": 59,
          "name": "B3",
          "ticks": 20640,
          "time": 53.75,
          "velocity": 0.47244094488188976
        },
        {
          "duration": 0.018229166666664298,
          "durationTicks": 7,
          "midi": 46,
          "name": "A#2",
          "ticks": 20640,
          "time": 53.75,
          "velocity": 0.8661417322834646
        },
        {
          "duration": 0.018229166666664298,
          "durationTicks": 7,
          "midi": 59,
          "name": "B3",
          "ticks": 20832,
          "time": 54.25,
          "velocity": 0.47244094488188976
        },
        {
          "duration": 0.018229166666664298,
          "durationTicks": 7,
          "midi": 46,
          "name": "A#2",
          "ticks": 20832,
          "time": 54.25,
          "velocity": 0.8661417322834646
        },
        {
          "duration": 0.018229166666664298,
          "durationTicks": 7,
          "midi": 59,
          "name": "B3",
          "ticks": 21024,
          "time": 54.75,
          "velocity": 0.47244094488188976
        },
        {
          "duration": 0.018229166666664298,
          "durationTicks": 7,
          "midi": 46,
          "name": "A#2",
          "ticks": 21024,
          "time": 54.75,
          "velocity": 0.8661417322834646
        },
        {
          "duration": 0.018229166666664298,
          "durationTicks": 7,
          "midi": 49,
          "name": "C#3",
          "ticks": 21120,
          "time": 55,
          "velocity": 0.8661417322834646
        },
        {
          "duration": 0.018229166666664298,
          "durationTicks": 7,
          "midi": 59,
          "name": "B3",
          "ticks": 21216,
          "time": 55.25,
          "velocity": 0.47244094488188976
        },
        {
          "duration": 0.018229166666664298,
          "durationTicks": 7,
          "midi": 49,
          "name": "C#3",
          "ticks": 21264,
          "time": 55.375,
          "velocity": 0.8661417322834646
        },
        {
          "duration": 0.018229166666664298,
          "durationTicks": 7,
          "midi": 59,
          "name": "B3",
          "ticks": 21408,
          "time": 55.75,
          "velocity": 0.47244094488188976
        },
        {
          "duration": 0.018229166666664298,
          "durationTicks": 7,
          "midi": 49,
          "name": "C#3",
          "ticks": 21408,
          "time": 55.75,
          "velocity": 0.8661417322834646
        },
        {
          "duration": 0.018229166666664298,
          "durationTicks": 7,
          "midi": 49,
          "name": "C#3",
          "ticks": 21504,
          "time": 56,
          "velocity": 0.8661417322834646
        },
        {
          "duration": 0.018229166666664298,
          "durationTicks": 7,
          "midi": 46,
          "name": "A#2",
          "ticks": 21600,
          "time": 56.25,
          "velocity": 0.8661417322834646
        },
        {
          "duration": 0.018229166666664298,
          "durationTicks": 7,
          "midi": 59,
          "name": "B3",
          "ticks": 21600,
          "time": 56.25,
          "velocity": 0.47244094488188976
        },
        {
          "duration": 0.018229166666664298,
          "durationTicks": 7,
          "midi": 46,
          "name": "A#2",
          "ticks": 21792,
          "time": 56.75,
          "velocity": 0.8661417322834646
        },
        {
          "duration": 0.018229166666664298,
          "durationTicks": 7,
          "midi": 59,
          "name": "B3",
          "ticks": 21792,
          "time": 56.75,
          "velocity": 0.47244094488188976
        },
        {
          "duration": 0.018229166666664298,
          "durationTicks": 7,
          "midi": 46,
          "name": "A#2",
          "ticks": 21984,
          "time": 57.25,
          "velocity": 0.8661417322834646
        },
        {
          "duration": 0.018229166666664298,
          "durationTicks": 7,
          "midi": 59,
          "name": "B3",
          "ticks": 21984,
          "time": 57.25,
          "velocity": 0.47244094488188976
        },
        {
          "duration": 0.018229166666664298,
          "durationTicks": 7,
          "midi": 46,
          "name": "A#2",
          "ticks": 22176,
          "time": 57.75,
          "velocity": 0.8661417322834646
        },
        {
          "duration": 0.018229166666664298,
          "durationTicks": 7,
          "midi": 59,
          "name": "B3",
          "ticks": 22176,
          "time": 57.75,
          "velocity": 0.47244094488188976
        },
        {
          "duration": 0.018229166666664298,
          "durationTicks": 7,
          "midi": 46,
          "name": "A#2",
          "ticks": 22368,
          "time": 58.25,
          "velocity": 0.8661417322834646
        },
        {
          "duration": 0.018229166666664298,
          "durationTicks": 7,
          "midi": 59,
          "name": "B3",
          "ticks": 22368,
          "time": 58.25,
          "velocity": 0.47244094488188976
        },
        {
          "duration": 0.018229166666664298,
          "durationTicks": 7,
          "midi": 46,
          "name": "A#2",
          "ticks": 22560,
          "time": 58.75,
          "velocity": 0.8661417322834646
        },
        {
          "duration": 0.018229166666664298,
          "durationTicks": 7,
          "midi": 59,
          "name": "B3",
          "ticks": 22560,
          "time": 58.75,
          "velocity": 0.47244094488188976
        },
        {
          "duration": 0.018229166666664298,
          "durationTicks": 7,
          "midi": 46,
          "name": "A#2",
          "ticks": 22752,
          "time": 59.25,
          "velocity": 0.8661417322834646
        },
        {
          "duration": 0.018229166666664298,
          "durationTicks": 7,
          "midi": 59,
          "name": "B3",
          "ticks": 22752,
          "time": 59.25,
          "velocity": 0.47244094488188976
        },
        {
          "duration": 0.018229166666664298,
          "durationTicks": 7,
          "midi": 46,
          "name": "A#2",
          "ticks": 22944,
          "time": 59.75,
          "velocity": 0.8661417322834646
        },
        {
          "duration": 0.018229166666664298,
          "durationTicks": 7,
          "midi": 59,
          "name": "B3",
          "ticks": 22944,
          "time": 59.75,
          "velocity": 0.47244094488188976
        },
        {
          "duration": 0.018229166666664298,
          "durationTicks": 7,
          "midi": 46,
          "name": "A#2",
          "ticks": 23136,
          "time": 60.25,
          "velocity": 0.8661417322834646
        },
        {
          "duration": 0.018229166666664298,
          "durationTicks": 7,
          "midi": 59,
          "name": "B3",
          "ticks": 23136,
          "time": 60.25,
          "velocity": 0.47244094488188976
        },
        {
          "duration": 0.018229166666664298,
          "durationTicks": 7,
          "midi": 46,
          "name": "A#2",
          "ticks": 23328,
          "time": 60.75,
          "velocity": 0.8661417322834646
        },
        {
          "duration": 0.018229166666664298,
          "durationTicks": 7,
          "midi": 59,
          "name": "B3",
          "ticks": 23328,
          "time": 60.75,
          "velocity": 0.47244094488188976
        },
        {
          "duration": 0.018229166666664298,
          "durationTicks": 7,
          "midi": 46,
          "name": "A#2",
          "ticks": 23520,
          "time": 61.25,
          "velocity": 0.8661417322834646
        },
        {
          "duration": 0.018229166666664298,
          "durationTicks": 7,
          "midi": 59,
          "name": "B3",
          "ticks": 23520,
          "time": 61.25,
          "velocity": 0.47244094488188976
        },
        {
          "duration": 0.018229166666664298,
          "durationTicks": 7,
          "midi": 46,
          "name": "A#2",
          "ticks": 23712,
          "time": 61.75,
          "velocity": 0.8661417322834646
        },
        {
          "duration": 0.018229166666664298,
          "durationTicks": 7,
          "midi": 59,
          "name": "B3",
          "ticks": 23712,
          "time": 61.75,
          "velocity": 0.47244094488188976
        },
        {
          "duration": 0.018229166666664298,
          "durationTicks": 7,
          "midi": 46,
          "name": "A#2",
          "ticks": 23904,
          "time": 62.25,
          "velocity": 0.8661417322834646
        },
        {
          "duration": 0.018229166666664298,
          "durationTicks": 7,
          "midi": 59,
          "name": "B3",
          "ticks": 23904,
          "time": 62.25,
          "velocity": 0.47244094488188976
        },
        {
          "duration": 0.018229166666664298,
          "durationTicks": 7,
          "midi": 46,
          "name": "A#2",
          "ticks": 24096,
          "time": 62.75,
          "velocity": 0.8661417322834646
        },
        {
          "duration": 0.018229166666664298,
          "durationTicks": 7,
          "midi": 59,
          "name": "B3",
          "ticks": 24096,
          "time": 62.75,
          "velocity": 0.47244094488188976
        },
        {
          "duration": 0.018229166666664298,
          "durationTicks": 7,
          "midi": 49,
          "name": "C#3",
          "ticks": 24192,
          "time": 63,
          "velocity": 0.8661417322834646
        },
        {
          "duration": 0.018229166666664298,
          "durationTicks": 7,
          "midi": 59,
          "name": "B3",
          "ticks": 24288,
          "time": 63.25,
          "velocity": 0.47244094488188976
        },
        {
          "duration": 0.018229166666664298,
          "durationTicks": 7,
          "midi": 49,
          "name": "C#3",
          "ticks": 24336,
          "time": 63.375,
          "velocity": 0.8661417322834646
        },
        {
          "duration": 0.018229166666664298,
          "durationTicks": 7,
          "midi": 49,
          "name": "C#3",
          "ticks": 24480,
          "time": 63.75,
          "velocity": 0.8661417322834646
        },
        {
          "duration": 0.018229166666664298,
          "durationTicks": 7,
          "midi": 59,
          "name": "B3",
          "ticks": 24480,
          "time": 63.75,
          "velocity": 0.47244094488188976
        },
        {
          "duration": 0.018229166666671404,
          "durationTicks": 7,
          "midi": 49,
          "name": "C#3",
          "ticks": 24576,
          "time": 64,
          "velocity": 0.8661417322834646
        },
        {
          "duration": 0.018229166666671404,
          "durationTicks": 7,
          "midi": 59,
          "name": "B3",
          "ticks": 24672,
          "time": 64.25,
          "velocity": 0.47244094488188976
        },
        {
          "duration": 0.018229166666671404,
          "durationTicks": 7,
          "midi": 46,
          "name": "A#2",
          "ticks": 24672,
          "time": 64.25,
          "velocity": 0.8661417322834646
        },
        {
          "duration": 0.018229166666671404,
          "durationTicks": 7,
          "midi": 59,
          "name": "B3",
          "ticks": 24864,
          "time": 64.75,
          "velocity": 0.47244094488188976
        },
        {
          "duration": 0.018229166666671404,
          "durationTicks": 7,
          "midi": 46,
          "name": "A#2",
          "ticks": 24864,
          "time": 64.75,
          "velocity": 0.8661417322834646
        },
        {
          "duration": 0.018229166666671404,
          "durationTicks": 7,
          "midi": 59,
          "name": "B3",
          "ticks": 25056,
          "time": 65.25,
          "velocity": 0.47244094488188976
        },
        {
          "duration": 0.018229166666671404,
          "durationTicks": 7,
          "midi": 46,
          "name": "A#2",
          "ticks": 25056,
          "time": 65.25,
          "velocity": 0.8661417322834646
        },
        {
          "duration": 0.018229166666671404,
          "durationTicks": 7,
          "midi": 59,
          "name": "B3",
          "ticks": 25248,
          "time": 65.75,
          "velocity": 0.47244094488188976
        },
        {
          "duration": 0.018229166666671404,
          "durationTicks": 7,
          "midi": 46,
          "name": "A#2",
          "ticks": 25248,
          "time": 65.75,
          "velocity": 0.8661417322834646
        },
        {
          "duration": 0.018229166666671404,
          "durationTicks": 7,
          "midi": 59,
          "name": "B3",
          "ticks": 25440,
          "time": 66.25,
          "velocity": 0.47244094488188976
        },
        {
          "duration": 0.018229166666671404,
          "durationTicks": 7,
          "midi": 46,
          "name": "A#2",
          "ticks": 25440,
          "time": 66.25,
          "velocity": 0.8661417322834646
        },
        {
          "duration": 0.018229166666671404,
          "durationTicks": 7,
          "midi": 59,
          "name": "B3",
          "ticks": 25632,
          "time": 66.75,
          "velocity": 0.47244094488188976
        },
        {
          "duration": 0.018229166666671404,
          "durationTicks": 7,
          "midi": 46,
          "name": "A#2",
          "ticks": 25632,
          "time": 66.75,
          "velocity": 0.8661417322834646
        },
        {
          "duration": 0.018229166666671404,
          "durationTicks": 7,
          "midi": 59,
          "name": "B3",
          "ticks": 25824,
          "time": 67.25,
          "velocity": 0.47244094488188976
        },
        {
          "duration": 0.018229166666671404,
          "durationTicks": 7,
          "midi": 46,
          "name": "A#2",
          "ticks": 25824,
          "time": 67.25,
          "velocity": 0.8661417322834646
        },
        {
          "duration": 0.018229166666671404,
          "durationTicks": 7,
          "midi": 59,
          "name": "B3",
          "ticks": 26016,
          "time": 67.75,
          "velocity": 0.47244094488188976
        },
        {
          "duration": 0.018229166666671404,
          "durationTicks": 7,
          "midi": 46,
          "name": "A#2",
          "ticks": 26016,
          "time": 67.75,
          "velocity": 0.8661417322834646
        },
        {
          "duration": 0.018229166666671404,
          "durationTicks": 7,
          "midi": 59,
          "name": "B3",
          "ticks": 26208,
          "time": 68.25,
          "velocity": 0.47244094488188976
        },
        {
          "duration": 0.018229166666671404,
          "durationTicks": 7,
          "midi": 46,
          "name": "A#2",
          "ticks": 26208,
          "time": 68.25,
          "velocity": 0.8661417322834646
        },
        {
          "duration": 0.018229166666671404,
          "durationTicks": 7,
          "midi": 59,
          "name": "B3",
          "ticks": 26400,
          "time": 68.75,
          "velocity": 0.47244094488188976
        },
        {
          "duration": 0.018229166666671404,
          "durationTicks": 7,
          "midi": 46,
          "name": "A#2",
          "ticks": 26400,
          "time": 68.75,
          "velocity": 0.8661417322834646
        },
        {
          "duration": 0.018229166666671404,
          "durationTicks": 7,
          "midi": 59,
          "name": "B3",
          "ticks": 26592,
          "time": 69.25,
          "velocity": 0.47244094488188976
        },
        {
          "duration": 0.018229166666671404,
          "durationTicks": 7,
          "midi": 46,
          "name": "A#2",
          "ticks": 26592,
          "time": 69.25,
          "velocity": 0.8661417322834646
        },
        {
          "duration": 0.018229166666671404,
          "durationTicks": 7,
          "midi": 59,
          "name": "B3",
          "ticks": 26784,
          "time": 69.75,
          "velocity": 0.47244094488188976
        },
        {
          "duration": 0.018229166666671404,
          "durationTicks": 7,
          "midi": 46,
          "name": "A#2",
          "ticks": 26784,
          "time": 69.75,
          "velocity": 0.8661417322834646
        },
        {
          "duration": 0.018229166666671404,
          "durationTicks": 7,
          "midi": 59,
          "name": "B3",
          "ticks": 26976,
          "time": 70.25,
          "velocity": 0.47244094488188976
        },
        {
          "duration": 0.018229166666671404,
          "durationTicks": 7,
          "midi": 46,
          "name": "A#2",
          "ticks": 26976,
          "time": 70.25,
          "velocity": 0.8661417322834646
        },
        {
          "duration": 0.018229166666671404,
          "durationTicks": 7,
          "midi": 59,
          "name": "B3",
          "ticks": 27168,
          "time": 70.75,
          "velocity": 0.47244094488188976
        },
        {
          "duration": 0.018229166666671404,
          "durationTicks": 7,
          "midi": 46,
          "name": "A#2",
          "ticks": 27168,
          "time": 70.75,
          "velocity": 0.8661417322834646
        },
        {
          "duration": 0.018229166666671404,
          "durationTicks": 7,
          "midi": 49,
          "name": "C#3",
          "ticks": 27264,
          "time": 71,
          "velocity": 0.8661417322834646
        },
        {
          "duration": 0.018229166666671404,
          "durationTicks": 7,
          "midi": 59,
          "name": "B3",
          "ticks": 27360,
          "time": 71.25,
          "velocity": 0.47244094488188976
        },
        {
          "duration": 0.018229166666671404,
          "durationTicks": 7,
          "midi": 49,
          "name": "C#3",
          "ticks": 27408,
          "time": 71.375,
          "velocity": 0.8661417322834646
        },
        {
          "duration": 0.018229166666671404,
          "durationTicks": 7,
          "midi": 59,
          "name": "B3",
          "ticks": 27552,
          "time": 71.75,
          "velocity": 0.47244094488188976
        },
        {
          "duration": 0.018229166666671404,
          "durationTicks": 7,
          "midi": 49,
          "name": "C#3",
          "ticks": 27552,
          "time": 71.75,
          "velocity": 0.8661417322834646
        },
        {
          "duration": 0.018229166666671404,
          "durationTicks": 7,
          "midi": 49,
          "name": "C#3",
          "ticks": 27648,
          "time": 72,
          "velocity": 0.8661417322834646
        },
        {
          "duration": 0.018229166666671404,
          "durationTicks": 7,
          "midi": 46,
          "name": "A#2",
          "ticks": 27744,
          "time": 72.25,
          "velocity": 0.8661417322834646
        },
        {
          "duration": 0.018229166666671404,
          "durationTicks": 7,
          "midi": 59,
          "name": "B3",
          "ticks": 27744,
          "time": 72.25,
          "velocity": 0.47244094488188976
        },
        {
          "duration": 0.018229166666671404,
          "durationTicks": 7,
          "midi": 46,
          "name": "A#2",
          "ticks": 27936,
          "time": 72.75,
          "velocity": 0.8661417322834646
        },
        {
          "duration": 0.018229166666671404,
          "durationTicks": 7,
          "midi": 59,
          "name": "B3",
          "ticks": 27936,
          "time": 72.75,
          "velocity": 0.47244094488188976
        },
        {
          "duration": 0.018229166666671404,
          "durationTicks": 7,
          "midi": 46,
          "name": "A#2",
          "ticks": 28128,
          "time": 73.25,
          "velocity": 0.8661417322834646
        },
        {
          "duration": 0.018229166666671404,
          "durationTicks": 7,
          "midi": 59,
          "name": "B3",
          "ticks": 28128,
          "time": 73.25,
          "velocity": 0.47244094488188976
        },
        {
          "duration": 0.018229166666671404,
          "durationTicks": 7,
          "midi": 46,
          "name": "A#2",
          "ticks": 28320,
          "time": 73.75,
          "velocity": 0.8661417322834646
        },
        {
          "duration": 0.018229166666671404,
          "durationTicks": 7,
          "midi": 59,
          "name": "B3",
          "ticks": 28320,
          "time": 73.75,
          "velocity": 0.47244094488188976
        },
        {
          "duration": 0.018229166666671404,
          "durationTicks": 7,
          "midi": 46,
          "name": "A#2",
          "ticks": 28512,
          "time": 74.25,
          "velocity": 0.8661417322834646
        },
        {
          "duration": 0.018229166666671404,
          "durationTicks": 7,
          "midi": 59,
          "name": "B3",
          "ticks": 28512,
          "time": 74.25,
          "velocity": 0.47244094488188976
        },
        {
          "duration": 0.018229166666671404,
          "durationTicks": 7,
          "midi": 46,
          "name": "A#2",
          "ticks": 28704,
          "time": 74.75,
          "velocity": 0.8661417322834646
        },
        {
          "duration": 0.018229166666671404,
          "durationTicks": 7,
          "midi": 59,
          "name": "B3",
          "ticks": 28704,
          "time": 74.75,
          "velocity": 0.47244094488188976
        },
        {
          "duration": 0.018229166666671404,
          "durationTicks": 7,
          "midi": 46,
          "name": "A#2",
          "ticks": 28896,
          "time": 75.25,
          "velocity": 0.8661417322834646
        },
        {
          "duration": 0.018229166666671404,
          "durationTicks": 7,
          "midi": 59,
          "name": "B3",
          "ticks": 28896,
          "time": 75.25,
          "velocity": 0.47244094488188976
        },
        {
          "duration": 0.018229166666671404,
          "durationTicks": 7,
          "midi": 46,
          "name": "A#2",
          "ticks": 29088,
          "time": 75.75,
          "velocity": 0.8661417322834646
        },
        {
          "duration": 0.018229166666671404,
          "durationTicks": 7,
          "midi": 59,
          "name": "B3",
          "ticks": 29088,
          "time": 75.75,
          "velocity": 0.47244094488188976
        },
        {
          "duration": 0.018229166666671404,
          "durationTicks": 7,
          "midi": 46,
          "name": "A#2",
          "ticks": 29280,
          "time": 76.25,
          "velocity": 0.8661417322834646
        },
        {
          "duration": 0.018229166666671404,
          "durationTicks": 7,
          "midi": 59,
          "name": "B3",
          "ticks": 29280,
          "time": 76.25,
          "velocity": 0.47244094488188976
        },
        {
          "duration": 0.018229166666671404,
          "durationTicks": 7,
          "midi": 46,
          "name": "A#2",
          "ticks": 29472,
          "time": 76.75,
          "velocity": 0.8661417322834646
        },
        {
          "duration": 0.018229166666671404,
          "durationTicks": 7,
          "midi": 59,
          "name": "B3",
          "ticks": 29472,
          "time": 76.75,
          "velocity": 0.47244094488188976
        },
        {
          "duration": 0.018229166666671404,
          "durationTicks": 7,
          "midi": 46,
          "name": "A#2",
          "ticks": 29664,
          "time": 77.25,
          "velocity": 0.8661417322834646
        },
        {
          "duration": 0.018229166666671404,
          "durationTicks": 7,
          "midi": 59,
          "name": "B3",
          "ticks": 29664,
          "time": 77.25,
          "velocity": 0.47244094488188976
        },
        {
          "duration": 0.018229166666671404,
          "durationTicks": 7,
          "midi": 46,
          "name": "A#2",
          "ticks": 29856,
          "time": 77.75,
          "velocity": 0.8661417322834646
        },
        {
          "duration": 0.018229166666671404,
          "durationTicks": 7,
          "midi": 59,
          "name": "B3",
          "ticks": 29856,
          "time": 77.75,
          "velocity": 0.47244094488188976
        },
        {
          "duration": 0.018229166666671404,
          "durationTicks": 7,
          "midi": 46,
          "name": "A#2",
          "ticks": 30048,
          "time": 78.25,
          "velocity": 0.8661417322834646
        },
        {
          "duration": 0.018229166666671404,
          "durationTicks": 7,
          "midi": 59,
          "name": "B3",
          "ticks": 30048,
          "time": 78.25,
          "velocity": 0.47244094488188976
        },
        {
          "duration": 0.018229166666671404,
          "durationTicks": 7,
          "midi": 46,
          "name": "A#2",
          "ticks": 30240,
          "time": 78.75,
          "velocity": 0.8661417322834646
        },
        {
          "duration": 0.018229166666671404,
          "durationTicks": 7,
          "midi": 59,
          "name": "B3",
          "ticks": 30240,
          "time": 78.75,
          "velocity": 0.47244094488188976
        },
        {
          "duration": 0.018229166666671404,
          "durationTicks": 7,
          "midi": 49,
          "name": "C#3",
          "ticks": 30336,
          "time": 79,
          "velocity": 0.8661417322834646
        },
        {
          "duration": 0.018229166666671404,
          "durationTicks": 7,
          "midi": 59,
          "name": "B3",
          "ticks": 30432,
          "time": 79.25,
          "velocity": 0.47244094488188976
        },
        {
          "duration": 0.018229166666671404,
          "durationTicks": 7,
          "midi": 49,
          "name": "C#3",
          "ticks": 30480,
          "time": 79.375,
          "velocity": 0.8661417322834646
        },
        {
          "duration": 0.018229166666671404,
          "durationTicks": 7,
          "midi": 49,
          "name": "C#3",
          "ticks": 30624,
          "time": 79.75,
          "velocity": 0.8661417322834646
        },
        {
          "duration": 0.018229166666671404,
          "durationTicks": 7,
          "midi": 59,
          "name": "B3",
          "ticks": 30624,
          "time": 79.75,
          "velocity": 0.47244094488188976
        },
        {
          "duration": 0.018229166666671404,
          "durationTicks": 7,
          "midi": 57,
          "name": "A3",
          "ticks": 30720,
          "time": 80,
          "velocity": 0.8661417322834646
        },
        {
          "duration": 0.018229166666671404,
          "durationTicks": 7,
          "midi": 46,
          "name": "A#2",
          "ticks": 30912,
          "time": 80.5,
          "velocity": 0.8661417322834646
        },
        {
          "duration": 0.018229166666671404,
          "durationTicks": 7,
          "midi": 46,
          "name": "A#2",
          "ticks": 31296,
          "time": 81.5,
          "velocity": 0.8661417322834646
        },
        {
          "duration": 0.018229166666671404,
          "durationTicks": 7,
          "midi": 46,
          "name": "A#2",
          "ticks": 31680,
          "time": 82.5,
          "velocity": 0.8661417322834646
        },
        {
          "duration": 0.018229166666671404,
          "durationTicks": 7,
          "midi": 46,
          "name": "A#2",
          "ticks": 32064,
          "time": 83.5,
          "velocity": 0.8661417322834646
        },
        {
          "duration": 0.018229166666671404,
          "durationTicks": 7,
          "midi": 46,
          "name": "A#2",
          "ticks": 32448,
          "time": 84.5,
          "velocity": 0.8661417322834646
        },
        {
          "duration": 0.018229166666671404,
          "durationTicks": 7,
          "midi": 46,
          "name": "A#2",
          "ticks": 32832,
          "time": 85.5,
          "velocity": 0.8661417322834646
        },
        {
          "duration": 0.018229166666671404,
          "durationTicks": 7,
          "midi": 46,
          "name": "A#2",
          "ticks": 33216,
          "time": 86.5,
          "velocity": 0.8661417322834646
        },
        {
          "duration": 0.018229166666671404,
          "durationTicks": 7,
          "midi": 46,
          "name": "A#2",
          "ticks": 33600,
          "time": 87.5,
          "velocity": 0.8661417322834646
        },
        {
          "duration": 0.018229166666671404,
          "durationTicks": 7,
          "midi": 57,
          "name": "A3",
          "ticks": 33792,
          "time": 88,
          "velocity": 0.8661417322834646
        },
        {
          "duration": 0.018229166666671404,
          "durationTicks": 7,
          "midi": 46,
          "name": "A#2",
          "ticks": 33984,
          "time": 88.5,
          "velocity": 0.8661417322834646
        },
        {
          "duration": 0.018229166666671404,
          "durationTicks": 7,
          "midi": 46,
          "name": "A#2",
          "ticks": 34368,
          "time": 89.5,
          "velocity": 0.8661417322834646
        },
        {
          "duration": 0.018229166666671404,
          "durationTicks": 7,
          "midi": 46,
          "name": "A#2",
          "ticks": 34752,
          "time": 90.5,
          "velocity": 0.8661417322834646
        },
        {
          "duration": 0.018229166666671404,
          "durationTicks": 7,
          "midi": 46,
          "name": "A#2",
          "ticks": 35136,
          "time": 91.5,
          "velocity": 0.8661417322834646
        },
        {
          "duration": 0.018229166666671404,
          "durationTicks": 7,
          "midi": 46,
          "name": "A#2",
          "ticks": 35520,
          "time": 92.5,
          "velocity": 0.8661417322834646
        },
        {
          "duration": 0.018229166666671404,
          "durationTicks": 7,
          "midi": 46,
          "name": "A#2",
          "ticks": 35904,
          "time": 93.5,
          "velocity": 0.8661417322834646
        },
        {
          "duration": 0.018229166666671404,
          "durationTicks": 7,
          "midi": 46,
          "name": "A#2",
          "ticks": 36288,
          "time": 94.5,
          "velocity": 0.8661417322834646
        },
        {
          "duration": 0.018229166666671404,
          "durationTicks": 7,
          "midi": 46,
          "name": "A#2",
          "ticks": 36672,
          "time": 95.5,
          "velocity": 0.8661417322834646
        },
        {
          "duration": 0.018229166666671404,
          "durationTicks": 7,
          "midi": 57,
          "name": "A3",
          "ticks": 36864,
          "time": 96,
          "velocity": 0.8661417322834646
        },
        {
          "duration": 0.018229166666671404,
          "durationTicks": 7,
          "midi": 46,
          "name": "A#2",
          "ticks": 37056,
          "time": 96.5,
          "velocity": 0.8661417322834646
        },
        {
          "duration": 0.018229166666671404,
          "durationTicks": 7,
          "midi": 46,
          "name": "A#2",
          "ticks": 37440,
          "time": 97.5,
          "velocity": 0.8661417322834646
        },
        {
          "duration": 0.018229166666671404,
          "durationTicks": 7,
          "midi": 46,
          "name": "A#2",
          "ticks": 37824,
          "time": 98.5,
          "velocity": 0.8661417322834646
        },
        {
          "duration": 0.018229166666671404,
          "durationTicks": 7,
          "midi": 46,
          "name": "A#2",
          "ticks": 38208,
          "time": 99.5,
          "velocity": 0.8661417322834646
        },
        {
          "duration": 0.018229166666671404,
          "durationTicks": 7,
          "midi": 46,
          "name": "A#2",
          "ticks": 38592,
          "time": 100.5,
          "velocity": 0.8661417322834646
        },
        {
          "duration": 0.018229166666671404,
          "durationTicks": 7,
          "midi": 46,
          "name": "A#2",
          "ticks": 38976,
          "time": 101.5,
          "velocity": 0.8661417322834646
        },
        {
          "duration": 0.018229166666671404,
          "durationTicks": 7,
          "midi": 46,
          "name": "A#2",
          "ticks": 39360,
          "time": 102.5,
          "velocity": 0.8661417322834646
        },
        {
          "duration": 0.018229166666671404,
          "durationTicks": 7,
          "midi": 46,
          "name": "A#2",
          "ticks": 39744,
          "time": 103.5,
          "velocity": 0.8661417322834646
        },
        {
          "duration": 0.018229166666671404,
          "durationTicks": 7,
          "midi": 57,
          "name": "A3",
          "ticks": 39936,
          "time": 104,
          "velocity": 0.8661417322834646
        },
        {
          "duration": 0.018229166666671404,
          "durationTicks": 7,
          "midi": 46,
          "name": "A#2",
          "ticks": 40128,
          "time": 104.5,
          "velocity": 0.8661417322834646
        },
        {
          "duration": 0.018229166666671404,
          "durationTicks": 7,
          "midi": 46,
          "name": "A#2",
          "ticks": 40512,
          "time": 105.5,
          "velocity": 0.8661417322834646
        },
        {
          "duration": 0.018229166666671404,
          "durationTicks": 7,
          "midi": 46,
          "name": "A#2",
          "ticks": 40896,
          "time": 106.5,
          "velocity": 0.8661417322834646
        },
        {
          "duration": 0.018229166666671404,
          "durationTicks": 7,
          "midi": 46,
          "name": "A#2",
          "ticks": 41280,
          "time": 107.5,
          "velocity": 0.8661417322834646
        },
        {
          "duration": 0.020833333333328596,
          "durationTicks": 8,
          "midi": 49,
          "name": "C#3",
          "ticks": 42624,
          "time": 111,
          "velocity": 0.6299212598425197
        },
        {
          "duration": 0.018229166666671404,
          "durationTicks": 7,
          "midi": 59,
          "name": "B3",
          "ticks": 42720,
          "time": 111.25,
          "velocity": 0.47244094488188976
        },
        {
          "duration": 0.020833333333328596,
          "durationTicks": 8,
          "midi": 57,
          "name": "A3",
          "ticks": 42768,
          "time": 111.375,
          "velocity": 0.6299212598425197
        },
        {
          "duration": 0.020833333333328596,
          "durationTicks": 8,
          "midi": 49,
          "name": "C#3",
          "ticks": 42912,
          "time": 111.75,
          "velocity": 0.6299212598425197
        },
        {
          "duration": 0.018229166666671404,
          "durationTicks": 7,
          "midi": 59,
          "name": "B3",
          "ticks": 42912,
          "time": 111.75,
          "velocity": 0.47244094488188976
        },
        {
          "duration": 0.018229166666671404,
          "durationTicks": 7,
          "midi": 49,
          "name": "C#3",
          "ticks": 43008,
          "time": 112,
          "velocity": 0.8661417322834646
        },
        {
          "duration": 0.018229166666671404,
          "durationTicks": 7,
          "midi": 59,
          "name": "B3",
          "ticks": 43104,
          "time": 112.25,
          "velocity": 0.47244094488188976
        },
        {
          "duration": 0.018229166666671404,
          "durationTicks": 7,
          "midi": 46,
          "name": "A#2",
          "ticks": 43104,
          "time": 112.25,
          "velocity": 0.8661417322834646
        },
        {
          "duration": 0.018229166666671404,
          "durationTicks": 7,
          "midi": 59,
          "name": "B3",
          "ticks": 43296,
          "time": 112.75,
          "velocity": 0.47244094488188976
        },
        {
          "duration": 0.018229166666671404,
          "durationTicks": 7,
          "midi": 46,
          "name": "A#2",
          "ticks": 43296,
          "time": 112.75,
          "velocity": 0.8661417322834646
        },
        {
          "duration": 0.018229166666671404,
          "durationTicks": 7,
          "midi": 59,
          "name": "B3",
          "ticks": 43488,
          "time": 113.25,
          "velocity": 0.47244094488188976
        },
        {
          "duration": 0.018229166666671404,
          "durationTicks": 7,
          "midi": 46,
          "name": "A#2",
          "ticks": 43488,
          "time": 113.25,
          "velocity": 0.8661417322834646
        },
        {
          "duration": 0.018229166666671404,
          "durationTicks": 7,
          "midi": 59,
          "name": "B3",
          "ticks": 43680,
          "time": 113.75,
          "velocity": 0.47244094488188976
        },
        {
          "duration": 0.018229166666671404,
          "durationTicks": 7,
          "midi": 46,
          "name": "A#2",
          "ticks": 43680,
          "time": 113.75,
          "velocity": 0.8661417322834646
        },
        {
          "duration": 0.018229166666671404,
          "durationTicks": 7,
          "midi": 59,
          "name": "B3",
          "ticks": 43872,
          "time": 114.25,
          "velocity": 0.47244094488188976
        },
        {
          "duration": 0.018229166666671404,
          "durationTicks": 7,
          "midi": 46,
          "name": "A#2",
          "ticks": 43872,
          "time": 114.25,
          "velocity": 0.8661417322834646
        },
        {
          "duration": 0.018229166666671404,
          "durationTicks": 7,
          "midi": 59,
          "name": "B3",
          "ticks": 44064,
          "time": 114.75,
          "velocity": 0.47244094488188976
        },
        {
          "duration": 0.018229166666671404,
          "durationTicks": 7,
          "midi": 46,
          "name": "A#2",
          "ticks": 44064,
          "time": 114.75,
          "velocity": 0.8661417322834646
        },
        {
          "duration": 0.018229166666671404,
          "durationTicks": 7,
          "midi": 59,
          "name": "B3",
          "ticks": 44256,
          "time": 115.25,
          "velocity": 0.47244094488188976
        },
        {
          "duration": 0.018229166666671404,
          "durationTicks": 7,
          "midi": 46,
          "name": "A#2",
          "ticks": 44256,
          "time": 115.25,
          "velocity": 0.8661417322834646
        },
        {
          "duration": 0.018229166666671404,
          "durationTicks": 7,
          "midi": 59,
          "name": "B3",
          "ticks": 44448,
          "time": 115.75,
          "velocity": 0.47244094488188976
        },
        {
          "duration": 0.018229166666671404,
          "durationTicks": 7,
          "midi": 46,
          "name": "A#2",
          "ticks": 44448,
          "time": 115.75,
          "velocity": 0.8661417322834646
        },
        {
          "duration": 0.018229166666671404,
          "durationTicks": 7,
          "midi": 59,
          "name": "B3",
          "ticks": 44640,
          "time": 116.25,
          "velocity": 0.47244094488188976
        },
        {
          "duration": 0.018229166666671404,
          "durationTicks": 7,
          "midi": 46,
          "name": "A#2",
          "ticks": 44640,
          "time": 116.25,
          "velocity": 0.8661417322834646
        },
        {
          "duration": 0.018229166666671404,
          "durationTicks": 7,
          "midi": 59,
          "name": "B3",
          "ticks": 44832,
          "time": 116.75,
          "velocity": 0.47244094488188976
        },
        {
          "duration": 0.018229166666671404,
          "durationTicks": 7,
          "midi": 46,
          "name": "A#2",
          "ticks": 44832,
          "time": 116.75,
          "velocity": 0.8661417322834646
        },
        {
          "duration": 0.018229166666671404,
          "durationTicks": 7,
          "midi": 59,
          "name": "B3",
          "ticks": 45024,
          "time": 117.25,
          "velocity": 0.47244094488188976
        },
        {
          "duration": 0.018229166666671404,
          "durationTicks": 7,
          "midi": 46,
          "name": "A#2",
          "ticks": 45024,
          "time": 117.25,
          "velocity": 0.8661417322834646
        },
        {
          "duration": 0.018229166666671404,
          "durationTicks": 7,
          "midi": 59,
          "name": "B3",
          "ticks": 45216,
          "time": 117.75,
          "velocity": 0.47244094488188976
        },
        {
          "duration": 0.018229166666671404,
          "durationTicks": 7,
          "midi": 46,
          "name": "A#2",
          "ticks": 45216,
          "time": 117.75,
          "velocity": 0.8661417322834646
        },
        {
          "duration": 0.018229166666671404,
          "durationTicks": 7,
          "midi": 59,
          "name": "B3",
          "ticks": 45408,
          "time": 118.25,
          "velocity": 0.47244094488188976
        },
        {
          "duration": 0.018229166666671404,
          "durationTicks": 7,
          "midi": 46,
          "name": "A#2",
          "ticks": 45408,
          "time": 118.25,
          "velocity": 0.8661417322834646
        },
        {
          "duration": 0.018229166666671404,
          "durationTicks": 7,
          "midi": 59,
          "name": "B3",
          "ticks": 45600,
          "time": 118.75,
          "velocity": 0.47244094488188976
        },
        {
          "duration": 0.018229166666671404,
          "durationTicks": 7,
          "midi": 46,
          "name": "A#2",
          "ticks": 45600,
          "time": 118.75,
          "velocity": 0.8661417322834646
        },
        {
          "duration": 0.018229166666671404,
          "durationTicks": 7,
          "midi": 59,
          "name": "B3",
          "ticks": 45792,
          "time": 119.25,
          "velocity": 0.47244094488188976
        },
        {
          "duration": 0.018229166666671404,
          "durationTicks": 7,
          "midi": 46,
          "name": "A#2",
          "ticks": 45792,
          "time": 119.25,
          "velocity": 0.8661417322834646
        },
        {
          "duration": 0.018229166666671404,
          "durationTicks": 7,
          "midi": 59,
          "name": "B3",
          "ticks": 45984,
          "time": 119.75,
          "velocity": 0.47244094488188976
        },
        {
          "duration": 0.018229166666671404,
          "durationTicks": 7,
          "midi": 46,
          "name": "A#2",
          "ticks": 45984,
          "time": 119.75,
          "velocity": 0.8661417322834646
        },
        {
          "duration": 0.018229166666671404,
          "durationTicks": 7,
          "midi": 49,
          "name": "C#3",
          "ticks": 46080,
          "time": 120,
          "velocity": 0.8661417322834646
        },
        {
          "duration": 0.018229166666671404,
          "durationTicks": 7,
          "midi": 59,
          "name": "B3",
          "ticks": 46176,
          "time": 120.25,
          "velocity": 0.47244094488188976
        },
        {
          "duration": 0.018229166666671404,
          "durationTicks": 7,
          "midi": 46,
          "name": "A#2",
          "ticks": 46176,
          "time": 120.25,
          "velocity": 0.8661417322834646
        },
        {
          "duration": 0.018229166666671404,
          "durationTicks": 7,
          "midi": 59,
          "name": "B3",
          "ticks": 46368,
          "time": 120.75,
          "velocity": 0.47244094488188976
        },
        {
          "duration": 0.018229166666671404,
          "durationTicks": 7,
          "midi": 46,
          "name": "A#2",
          "ticks": 46368,
          "time": 120.75,
          "velocity": 0.8661417322834646
        },
        {
          "duration": 0.018229166666671404,
          "durationTicks": 7,
          "midi": 59,
          "name": "B3",
          "ticks": 46560,
          "time": 121.25,
          "velocity": 0.47244094488188976
        },
        {
          "duration": 0.018229166666671404,
          "durationTicks": 7,
          "midi": 46,
          "name": "A#2",
          "ticks": 46560,
          "time": 121.25,
          "velocity": 0.8661417322834646
        },
        {
          "duration": 0.018229166666671404,
          "durationTicks": 7,
          "midi": 59,
          "name": "B3",
          "ticks": 46752,
          "time": 121.75,
          "velocity": 0.47244094488188976
        },
        {
          "duration": 0.018229166666671404,
          "durationTicks": 7,
          "midi": 46,
          "name": "A#2",
          "ticks": 46752,
          "time": 121.75,
          "velocity": 0.8661417322834646
        },
        {
          "duration": 0.018229166666671404,
          "durationTicks": 7,
          "midi": 59,
          "name": "B3",
          "ticks": 46944,
          "time": 122.25,
          "velocity": 0.47244094488188976
        },
        {
          "duration": 0.018229166666671404,
          "durationTicks": 7,
          "midi": 46,
          "name": "A#2",
          "ticks": 46944,
          "time": 122.25,
          "velocity": 0.8661417322834646
        },
        {
          "duration": 0.018229166666671404,
          "durationTicks": 7,
          "midi": 59,
          "name": "B3",
          "ticks": 47136,
          "time": 122.75,
          "velocity": 0.47244094488188976
        },
        {
          "duration": 0.018229166666671404,
          "durationTicks": 7,
          "midi": 46,
          "name": "A#2",
          "ticks": 47136,
          "time": 122.75,
          "velocity": 0.8661417322834646
        },
        {
          "duration": 0.018229166666671404,
          "durationTicks": 7,
          "midi": 59,
          "name": "B3",
          "ticks": 47328,
          "time": 123.25,
          "velocity": 0.47244094488188976
        },
        {
          "duration": 0.018229166666671404,
          "durationTicks": 7,
          "midi": 46,
          "name": "A#2",
          "ticks": 47328,
          "time": 123.25,
          "velocity": 0.8661417322834646
        },
        {
          "duration": 0.018229166666671404,
          "durationTicks": 7,
          "midi": 59,
          "name": "B3",
          "ticks": 47520,
          "time": 123.75,
          "velocity": 0.47244094488188976
        },
        {
          "duration": 0.018229166666671404,
          "durationTicks": 7,
          "midi": 46,
          "name": "A#2",
          "ticks": 47520,
          "time": 123.75,
          "velocity": 0.8661417322834646
        },
        {
          "duration": 0.018229166666671404,
          "durationTicks": 7,
          "midi": 59,
          "name": "B3",
          "ticks": 47712,
          "time": 124.25,
          "velocity": 0.47244094488188976
        },
        {
          "duration": 0.018229166666671404,
          "durationTicks": 7,
          "midi": 46,
          "name": "A#2",
          "ticks": 47712,
          "time": 124.25,
          "velocity": 0.8661417322834646
        },
        {
          "duration": 0.018229166666671404,
          "durationTicks": 7,
          "midi": 59,
          "name": "B3",
          "ticks": 47904,
          "time": 124.75,
          "velocity": 0.47244094488188976
        },
        {
          "duration": 0.018229166666671404,
          "durationTicks": 7,
          "midi": 46,
          "name": "A#2",
          "ticks": 47904,
          "time": 124.75,
          "velocity": 0.8661417322834646
        },
        {
          "duration": 0.018229166666671404,
          "durationTicks": 7,
          "midi": 59,
          "name": "B3",
          "ticks": 48096,
          "time": 125.25,
          "velocity": 0.47244094488188976
        },
        {
          "duration": 0.018229166666671404,
          "durationTicks": 7,
          "midi": 46,
          "name": "A#2",
          "ticks": 48096,
          "time": 125.25,
          "velocity": 0.8661417322834646
        },
        {
          "duration": 0.018229166666671404,
          "durationTicks": 7,
          "midi": 59,
          "name": "B3",
          "ticks": 48288,
          "time": 125.75,
          "velocity": 0.47244094488188976
        },
        {
          "duration": 0.018229166666671404,
          "durationTicks": 7,
          "midi": 46,
          "name": "A#2",
          "ticks": 48288,
          "time": 125.75,
          "velocity": 0.8661417322834646
        },
        {
          "duration": 0.018229166666671404,
          "durationTicks": 7,
          "midi": 59,
          "name": "B3",
          "ticks": 48480,
          "time": 126.25,
          "velocity": 0.47244094488188976
        },
        {
          "duration": 0.018229166666671404,
          "durationTicks": 7,
          "midi": 46,
          "name": "A#2",
          "ticks": 48480,
          "time": 126.25,
          "velocity": 0.8661417322834646
        },
        {
          "duration": 0.018229166666671404,
          "durationTicks": 7,
          "midi": 59,
          "name": "B3",
          "ticks": 48672,
          "time": 126.75,
          "velocity": 0.47244094488188976
        },
        {
          "duration": 0.018229166666671404,
          "durationTicks": 7,
          "midi": 46,
          "name": "A#2",
          "ticks": 48672,
          "time": 126.75,
          "velocity": 0.8661417322834646
        },
        {
          "duration": 0.018229166666671404,
          "durationTicks": 7,
          "midi": 59,
          "name": "B3",
          "ticks": 48864,
          "time": 127.25,
          "velocity": 0.47244094488188976
        },
        {
          "duration": 0.018229166666671404,
          "durationTicks": 7,
          "midi": 46,
          "name": "A#2",
          "ticks": 48864,
          "time": 127.25,
          "velocity": 0.8661417322834646
        },
        {
          "duration": 0.018229166666671404,
          "durationTicks": 7,
          "midi": 59,
          "name": "B3",
          "ticks": 49056,
          "time": 127.75,
          "velocity": 0.47244094488188976
        },
        {
          "duration": 0.018229166666671404,
          "durationTicks": 7,
          "midi": 46,
          "name": "A#2",
          "ticks": 49056,
          "time": 127.75,
          "velocity": 0.8661417322834646
        },
        {
          "duration": 0.018229166666657193,
          "durationTicks": 7,
          "midi": 49,
          "name": "C#3",
          "ticks": 49152,
          "time": 128,
          "velocity": 0.8661417322834646
        },
        {
          "duration": 0.018229166666657193,
          "durationTicks": 7,
          "midi": 46,
          "name": "A#2",
          "ticks": 49248,
          "time": 128.25,
          "velocity": 0.8661417322834646
        },
        {
          "duration": 0.018229166666657193,
          "durationTicks": 7,
          "midi": 59,
          "name": "B3",
          "ticks": 49248,
          "time": 128.25,
          "velocity": 0.47244094488188976
        },
        {
          "duration": 0.018229166666657193,
          "durationTicks": 7,
          "midi": 46,
          "name": "A#2",
          "ticks": 49440,
          "time": 128.75,
          "velocity": 0.8661417322834646
        },
        {
          "duration": 0.018229166666657193,
          "durationTicks": 7,
          "midi": 59,
          "name": "B3",
          "ticks": 49440,
          "time": 128.75,
          "velocity": 0.47244094488188976
        },
        {
          "duration": 0.018229166666657193,
          "durationTicks": 7,
          "midi": 46,
          "name": "A#2",
          "ticks": 49632,
          "time": 129.25,
          "velocity": 0.8661417322834646
        },
        {
          "duration": 0.018229166666657193,
          "durationTicks": 7,
          "midi": 59,
          "name": "B3",
          "ticks": 49632,
          "time": 129.25,
          "velocity": 0.47244094488188976
        },
        {
          "duration": 0.018229166666657193,
          "durationTicks": 7,
          "midi": 46,
          "name": "A#2",
          "ticks": 49824,
          "time": 129.75,
          "velocity": 0.8661417322834646
        },
        {
          "duration": 0.018229166666657193,
          "durationTicks": 7,
          "midi": 59,
          "name": "B3",
          "ticks": 49824,
          "time": 129.75,
          "velocity": 0.47244094488188976
        },
        {
          "duration": 0.018229166666657193,
          "durationTicks": 7,
          "midi": 46,
          "name": "A#2",
          "ticks": 50016,
          "time": 130.25,
          "velocity": 0.8661417322834646
        },
        {
          "duration": 0.018229166666657193,
          "durationTicks": 7,
          "midi": 59,
          "name": "B3",
          "ticks": 50016,
          "time": 130.25,
          "velocity": 0.47244094488188976
        },
        {
          "duration": 0.018229166666657193,
          "durationTicks": 7,
          "midi": 46,
          "name": "A#2",
          "ticks": 50208,
          "time": 130.75,
          "velocity": 0.8661417322834646
        },
        {
          "duration": 0.018229166666657193,
          "durationTicks": 7,
          "midi": 59,
          "name": "B3",
          "ticks": 50208,
          "time": 130.75,
          "velocity": 0.47244094488188976
        },
        {
          "duration": 0.018229166666657193,
          "durationTicks": 7,
          "midi": 46,
          "name": "A#2",
          "ticks": 50400,
          "time": 131.25,
          "velocity": 0.8661417322834646
        },
        {
          "duration": 0.018229166666657193,
          "durationTicks": 7,
          "midi": 59,
          "name": "B3",
          "ticks": 50400,
          "time": 131.25,
          "velocity": 0.47244094488188976
        },
        {
          "duration": 0.018229166666657193,
          "durationTicks": 7,
          "midi": 46,
          "name": "A#2",
          "ticks": 50592,
          "time": 131.75,
          "velocity": 0.8661417322834646
        },
        {
          "duration": 0.018229166666657193,
          "durationTicks": 7,
          "midi": 59,
          "name": "B3",
          "ticks": 50592,
          "time": 131.75,
          "velocity": 0.47244094488188976
        },
        {
          "duration": 0.018229166666657193,
          "durationTicks": 7,
          "midi": 46,
          "name": "A#2",
          "ticks": 50784,
          "time": 132.25,
          "velocity": 0.8661417322834646
        },
        {
          "duration": 0.018229166666657193,
          "durationTicks": 7,
          "midi": 59,
          "name": "B3",
          "ticks": 50784,
          "time": 132.25,
          "velocity": 0.47244094488188976
        },
        {
          "duration": 0.018229166666657193,
          "durationTicks": 7,
          "midi": 46,
          "name": "A#2",
          "ticks": 50976,
          "time": 132.75,
          "velocity": 0.8661417322834646
        },
        {
          "duration": 0.018229166666657193,
          "durationTicks": 7,
          "midi": 59,
          "name": "B3",
          "ticks": 50976,
          "time": 132.75,
          "velocity": 0.47244094488188976
        },
        {
          "duration": 0.018229166666657193,
          "durationTicks": 7,
          "midi": 46,
          "name": "A#2",
          "ticks": 51168,
          "time": 133.25,
          "velocity": 0.8661417322834646
        },
        {
          "duration": 0.018229166666657193,
          "durationTicks": 7,
          "midi": 59,
          "name": "B3",
          "ticks": 51168,
          "time": 133.25,
          "velocity": 0.47244094488188976
        },
        {
          "duration": 0.018229166666657193,
          "durationTicks": 7,
          "midi": 46,
          "name": "A#2",
          "ticks": 51360,
          "time": 133.75,
          "velocity": 0.8661417322834646
        },
        {
          "duration": 0.018229166666657193,
          "durationTicks": 7,
          "midi": 59,
          "name": "B3",
          "ticks": 51360,
          "time": 133.75,
          "velocity": 0.47244094488188976
        },
        {
          "duration": 0.018229166666657193,
          "durationTicks": 7,
          "midi": 46,
          "name": "A#2",
          "ticks": 51552,
          "time": 134.25,
          "velocity": 0.8661417322834646
        },
        {
          "duration": 0.018229166666657193,
          "durationTicks": 7,
          "midi": 59,
          "name": "B3",
          "ticks": 51552,
          "time": 134.25,
          "velocity": 0.47244094488188976
        },
        {
          "duration": 0.018229166666657193,
          "durationTicks": 7,
          "midi": 46,
          "name": "A#2",
          "ticks": 51744,
          "time": 134.75,
          "velocity": 0.8661417322834646
        },
        {
          "duration": 0.018229166666657193,
          "durationTicks": 7,
          "midi": 59,
          "name": "B3",
          "ticks": 51744,
          "time": 134.75,
          "velocity": 0.47244094488188976
        },
        {
          "duration": 0.018229166666657193,
          "durationTicks": 7,
          "midi": 46,
          "name": "A#2",
          "ticks": 51936,
          "time": 135.25,
          "velocity": 0.8661417322834646
        },
        {
          "duration": 0.018229166666657193,
          "durationTicks": 7,
          "midi": 59,
          "name": "B3",
          "ticks": 51936,
          "time": 135.25,
          "velocity": 0.47244094488188976
        },
        {
          "duration": 0.018229166666657193,
          "durationTicks": 7,
          "midi": 46,
          "name": "A#2",
          "ticks": 52128,
          "time": 135.75,
          "velocity": 0.8661417322834646
        },
        {
          "duration": 0.018229166666657193,
          "durationTicks": 7,
          "midi": 59,
          "name": "B3",
          "ticks": 52128,
          "time": 135.75,
          "velocity": 0.47244094488188976
        },
        {
          "duration": 0.018229166666657193,
          "durationTicks": 7,
          "midi": 49,
          "name": "C#3",
          "ticks": 52224,
          "time": 136,
          "velocity": 0.8661417322834646
        },
        {
          "duration": 0.018229166666657193,
          "durationTicks": 7,
          "midi": 46,
          "name": "A#2",
          "ticks": 52320,
          "time": 136.25,
          "velocity": 0.8661417322834646
        },
        {
          "duration": 0.018229166666657193,
          "durationTicks": 7,
          "midi": 59,
          "name": "B3",
          "ticks": 52320,
          "time": 136.25,
          "velocity": 0.47244094488188976
        },
        {
          "duration": 0.018229166666657193,
          "durationTicks": 7,
          "midi": 46,
          "name": "A#2",
          "ticks": 52512,
          "time": 136.75,
          "velocity": 0.8661417322834646
        },
        {
          "duration": 0.018229166666657193,
          "durationTicks": 7,
          "midi": 59,
          "name": "B3",
          "ticks": 52512,
          "time": 136.75,
          "velocity": 0.47244094488188976
        },
        {
          "duration": 0.018229166666657193,
          "durationTicks": 7,
          "midi": 46,
          "name": "A#2",
          "ticks": 52704,
          "time": 137.25,
          "velocity": 0.8661417322834646
        },
        {
          "duration": 0.018229166666657193,
          "durationTicks": 7,
          "midi": 59,
          "name": "B3",
          "ticks": 52704,
          "time": 137.25,
          "velocity": 0.47244094488188976
        },
        {
          "duration": 0.018229166666657193,
          "durationTicks": 7,
          "midi": 46,
          "name": "A#2",
          "ticks": 52896,
          "time": 137.75,
          "velocity": 0.8661417322834646
        },
        {
          "duration": 0.018229166666657193,
          "durationTicks": 7,
          "midi": 59,
          "name": "B3",
          "ticks": 52896,
          "time": 137.75,
          "velocity": 0.47244094488188976
        },
        {
          "duration": 0.018229166666657193,
          "durationTicks": 7,
          "midi": 46,
          "name": "A#2",
          "ticks": 53088,
          "time": 138.25,
          "velocity": 0.8661417322834646
        },
        {
          "duration": 0.018229166666657193,
          "durationTicks": 7,
          "midi": 59,
          "name": "B3",
          "ticks": 53088,
          "time": 138.25,
          "velocity": 0.47244094488188976
        },
        {
          "duration": 0.018229166666657193,
          "durationTicks": 7,
          "midi": 46,
          "name": "A#2",
          "ticks": 53280,
          "time": 138.75,
          "velocity": 0.8661417322834646
        },
        {
          "duration": 0.018229166666657193,
          "durationTicks": 7,
          "midi": 59,
          "name": "B3",
          "ticks": 53280,
          "time": 138.75,
          "velocity": 0.47244094488188976
        },
        {
          "duration": 0.018229166666657193,
          "durationTicks": 7,
          "midi": 46,
          "name": "A#2",
          "ticks": 53472,
          "time": 139.25,
          "velocity": 0.8661417322834646
        },
        {
          "duration": 0.018229166666657193,
          "durationTicks": 7,
          "midi": 59,
          "name": "B3",
          "ticks": 53472,
          "time": 139.25,
          "velocity": 0.47244094488188976
        },
        {
          "duration": 0.018229166666657193,
          "durationTicks": 7,
          "midi": 46,
          "name": "A#2",
          "ticks": 53664,
          "time": 139.75,
          "velocity": 0.8661417322834646
        },
        {
          "duration": 0.018229166666657193,
          "durationTicks": 7,
          "midi": 59,
          "name": "B3",
          "ticks": 53664,
          "time": 139.75,
          "velocity": 0.47244094488188976
        },
        {
          "duration": 0.018229166666657193,
          "durationTicks": 7,
          "midi": 46,
          "name": "A#2",
          "ticks": 53856,
          "time": 140.25,
          "velocity": 0.8661417322834646
        },
        {
          "duration": 0.018229166666657193,
          "durationTicks": 7,
          "midi": 59,
          "name": "B3",
          "ticks": 53856,
          "time": 140.25,
          "velocity": 0.47244094488188976
        },
        {
          "duration": 0.018229166666657193,
          "durationTicks": 7,
          "midi": 46,
          "name": "A#2",
          "ticks": 54048,
          "time": 140.75,
          "velocity": 0.8661417322834646
        },
        {
          "duration": 0.018229166666657193,
          "durationTicks": 7,
          "midi": 59,
          "name": "B3",
          "ticks": 54048,
          "time": 140.75,
          "velocity": 0.47244094488188976
        },
        {
          "duration": 0.018229166666657193,
          "durationTicks": 7,
          "midi": 46,
          "name": "A#2",
          "ticks": 54240,
          "time": 141.25,
          "velocity": 0.8661417322834646
        },
        {
          "duration": 0.018229166666657193,
          "durationTicks": 7,
          "midi": 59,
          "name": "B3",
          "ticks": 54240,
          "time": 141.25,
          "velocity": 0.47244094488188976
        },
        {
          "duration": 0.018229166666657193,
          "durationTicks": 7,
          "midi": 46,
          "name": "A#2",
          "ticks": 54432,
          "time": 141.75,
          "velocity": 0.8661417322834646
        },
        {
          "duration": 0.018229166666657193,
          "durationTicks": 7,
          "midi": 59,
          "name": "B3",
          "ticks": 54432,
          "time": 141.75,
          "velocity": 0.47244094488188976
        },
        {
          "duration": 0.018229166666657193,
          "durationTicks": 7,
          "midi": 46,
          "name": "A#2",
          "ticks": 54624,
          "time": 142.25,
          "velocity": 0.8661417322834646
        },
        {
          "duration": 0.018229166666657193,
          "durationTicks": 7,
          "midi": 59,
          "name": "B3",
          "ticks": 54624,
          "time": 142.25,
          "velocity": 0.47244094488188976
        },
        {
          "duration": 0.018229166666657193,
          "durationTicks": 7,
          "midi": 46,
          "name": "A#2",
          "ticks": 54816,
          "time": 142.75,
          "velocity": 0.8661417322834646
        },
        {
          "duration": 0.018229166666657193,
          "durationTicks": 7,
          "midi": 59,
          "name": "B3",
          "ticks": 54816,
          "time": 142.75,
          "velocity": 0.47244094488188976
        },
        {
          "duration": 0.018229166666657193,
          "durationTicks": 7,
          "midi": 46,
          "name": "A#2",
          "ticks": 55008,
          "time": 143.25,
          "velocity": 0.8661417322834646
        },
        {
          "duration": 0.018229166666657193,
          "durationTicks": 7,
          "midi": 59,
          "name": "B3",
          "ticks": 55008,
          "time": 143.25,
          "velocity": 0.47244094488188976
        },
        {
          "duration": 0.018229166666657193,
          "durationTicks": 7,
          "midi": 46,
          "name": "A#2",
          "ticks": 55200,
          "time": 143.75,
          "velocity": 0.8661417322834646
        },
        {
          "duration": 0.018229166666657193,
          "durationTicks": 7,
          "midi": 59,
          "name": "B3",
          "ticks": 55200,
          "time": 143.75,
          "velocity": 0.47244094488188976
        }
      ]
    },
    {
      "channel": 0,
      "controlChanges": {
        "0": [
          {
            "number": 0,
            "ticks": 0,
            "time": 0,
            "value": 0
          }
        ],
        "32": [
          {
            "number": 32,
            "ticks": 0,
            "time": 0,
            "value": 0
          }
        ]
      },
      "pitchBends": [],
      "instrument": {
        "family": "piano",
        "number": 0,
        "name": "acoustic grand piano"
      },
      "name": "Staff-4",
      "notes": [],
      "endOfTrackTicks": 55159
    },
    {
      "channel": 9,
      "controlChanges": {
        "7": [
          {
            "number": 7,
            "ticks": 0,
            "time": 0,
            "value": 1
          },
          {
            "number": 7,
            "ticks": 0,
            "time": 0,
            "value": 1
          }
        ],
        "10": [
          {
            "number": 10,
            "ticks": 0,
            "time": 0,
            "value": 0.5039370078740157
          }
        ]
      },
      "pitchBends": [],
      "instrument": {
        "family": "drums",
        "number": 16,
        "name": "power kit"
      },
      "name": "",
      "notes": [
        {
          "duration": 0.020833333333333925,
          "durationTicks": 8,
          "midi": 46,
          "name": "A#2",
          "ticks": 3072,
          "time": 8,
          "velocity": 0.15748031496062992
        },
        {
          "duration": 0.020833333333333925,
          "durationTicks": 8,
          "midi": 46,
          "name": "A#2",
          "ticks": 3168,
          "time": 8.25,
          "velocity": 0.15748031496062992
        },
        {
          "duration": 0.020833333333333925,
          "durationTicks": 8,
          "midi": 46,
          "name": "A#2",
          "ticks": 3264,
          "time": 8.5,
          "velocity": 0.15748031496062992
        },
        {
          "duration": 0.020833333333333925,
          "durationTicks": 8,
          "midi": 46,
          "name": "A#2",
          "ticks": 3312,
          "time": 8.625,
          "velocity": 0.15748031496062992
        },
        {
          "duration": 0.020833333333333925,
          "durationTicks": 8,
          "midi": 46,
          "name": "A#2",
          "ticks": 3408,
          "time": 8.875,
          "velocity": 0.15748031496062992
        },
        {
          "duration": 0.020833333333333925,
          "durationTicks": 8,
          "midi": 46,
          "name": "A#2",
          "ticks": 3504,
          "time": 9.125,
          "velocity": 0.15748031496062992
        },
        {
          "duration": 0.020833333333333925,
          "durationTicks": 8,
          "midi": 46,
          "name": "A#2",
          "ticks": 3600,
          "time": 9.375,
          "velocity": 0.15748031496062992
        },
        {
          "duration": 0.020833333333333925,
          "durationTicks": 8,
          "midi": 46,
          "name": "A#2",
          "ticks": 3648,
          "time": 9.5,
          "velocity": 0.15748031496062992
        },
        {
          "duration": 0.020833333333333925,
          "durationTicks": 8,
          "midi": 46,
          "name": "A#2",
          "ticks": 3696,
          "time": 9.625,
          "velocity": 0.15748031496062992
        },
        {
          "duration": 0.020833333333333925,
          "durationTicks": 8,
          "midi": 46,
          "name": "A#2",
          "ticks": 3744,
          "time": 9.75,
          "velocity": 0.15748031496062992
        },
        {
          "duration": 0.020833333333333925,
          "durationTicks": 8,
          "midi": 46,
          "name": "A#2",
          "ticks": 3792,
          "time": 9.875,
          "velocity": 0.15748031496062992
        },
        {
          "duration": 0.020833333333333925,
          "durationTicks": 8,
          "midi": 46,
          "name": "A#2",
          "ticks": 3840,
          "time": 10,
          "velocity": 0.15748031496062992
        },
        {
          "duration": 0.020833333333333925,
          "durationTicks": 8,
          "midi": 46,
          "name": "A#2",
          "ticks": 3936,
          "time": 10.25,
          "velocity": 0.15748031496062992
        },
        {
          "duration": 0.020833333333333925,
          "durationTicks": 8,
          "midi": 46,
          "name": "A#2",
          "ticks": 4032,
          "time": 10.5,
          "velocity": 0.15748031496062992
        },
        {
          "duration": 0.020833333333333925,
          "durationTicks": 8,
          "midi": 46,
          "name": "A#2",
          "ticks": 4080,
          "time": 10.625,
          "velocity": 0.15748031496062992
        },
        {
          "duration": 0.020833333333333925,
          "durationTicks": 8,
          "midi": 46,
          "name": "A#2",
          "ticks": 4176,
          "time": 10.875,
          "velocity": 0.15748031496062992
        },
        {
          "duration": 0.020833333333333925,
          "durationTicks": 8,
          "midi": 46,
          "name": "A#2",
          "ticks": 4272,
          "time": 11.125,
          "velocity": 0.15748031496062992
        },
        {
          "duration": 0.020833333333333925,
          "durationTicks": 8,
          "midi": 46,
          "name": "A#2",
          "ticks": 4368,
          "time": 11.375,
          "velocity": 0.15748031496062992
        },
        {
          "duration": 0.020833333333333925,
          "durationTicks": 8,
          "midi": 46,
          "name": "A#2",
          "ticks": 4416,
          "time": 11.5,
          "velocity": 0.15748031496062992
        },
        {
          "duration": 0.020833333333333925,
          "durationTicks": 8,
          "midi": 46,
          "name": "A#2",
          "ticks": 4464,
          "time": 11.625,
          "velocity": 0.15748031496062992
        },
        {
          "duration": 0.020833333333333925,
          "durationTicks": 8,
          "midi": 46,
          "name": "A#2",
          "ticks": 4512,
          "time": 11.75,
          "velocity": 0.15748031496062992
        },
        {
          "duration": 0.020833333333333925,
          "durationTicks": 8,
          "midi": 46,
          "name": "A#2",
          "ticks": 4560,
          "time": 11.875,
          "velocity": 0.15748031496062992
        },
        {
          "duration": 0.020833333333333925,
          "durationTicks": 8,
          "midi": 46,
          "name": "A#2",
          "ticks": 4608,
          "time": 12,
          "velocity": 0.15748031496062992
        },
        {
          "duration": 0.020833333333333925,
          "durationTicks": 8,
          "midi": 46,
          "name": "A#2",
          "ticks": 4704,
          "time": 12.25,
          "velocity": 0.15748031496062992
        },
        {
          "duration": 0.020833333333333925,
          "durationTicks": 8,
          "midi": 46,
          "name": "A#2",
          "ticks": 4800,
          "time": 12.5,
          "velocity": 0.15748031496062992
        },
        {
          "duration": 0.020833333333333925,
          "durationTicks": 8,
          "midi": 46,
          "name": "A#2",
          "ticks": 4848,
          "time": 12.625,
          "velocity": 0.15748031496062992
        },
        {
          "duration": 0.020833333333333925,
          "durationTicks": 8,
          "midi": 46,
          "name": "A#2",
          "ticks": 4944,
          "time": 12.875,
          "velocity": 0.15748031496062992
        },
        {
          "duration": 0.020833333333333925,
          "durationTicks": 8,
          "midi": 46,
          "name": "A#2",
          "ticks": 5040,
          "time": 13.125,
          "velocity": 0.15748031496062992
        },
        {
          "duration": 0.020833333333333925,
          "durationTicks": 8,
          "midi": 46,
          "name": "A#2",
          "ticks": 5136,
          "time": 13.375,
          "velocity": 0.15748031496062992
        },
        {
          "duration": 0.020833333333333925,
          "durationTicks": 8,
          "midi": 46,
          "name": "A#2",
          "ticks": 5184,
          "time": 13.5,
          "velocity": 0.15748031496062992
        },
        {
          "duration": 0.020833333333333925,
          "durationTicks": 8,
          "midi": 46,
          "name": "A#2",
          "ticks": 5232,
          "time": 13.625,
          "velocity": 0.15748031496062992
        },
        {
          "duration": 0.020833333333333925,
          "durationTicks": 8,
          "midi": 46,
          "name": "A#2",
          "ticks": 5280,
          "time": 13.75,
          "velocity": 0.15748031496062992
        },
        {
          "duration": 0.020833333333333925,
          "durationTicks": 8,
          "midi": 46,
          "name": "A#2",
          "ticks": 5328,
          "time": 13.875,
          "velocity": 0.15748031496062992
        },
        {
          "duration": 0.020833333333333925,
          "durationTicks": 8,
          "midi": 46,
          "name": "A#2",
          "ticks": 5376,
          "time": 14,
          "velocity": 0.15748031496062992
        },
        {
          "duration": 0.020833333333333925,
          "durationTicks": 8,
          "midi": 46,
          "name": "A#2",
          "ticks": 5472,
          "time": 14.25,
          "velocity": 0.15748031496062992
        },
        {
          "duration": 0.020833333333333925,
          "durationTicks": 8,
          "midi": 46,
          "name": "A#2",
          "ticks": 5568,
          "time": 14.5,
          "velocity": 0.15748031496062992
        },
        {
          "duration": 0.020833333333333925,
          "durationTicks": 8,
          "midi": 46,
          "name": "A#2",
          "ticks": 5616,
          "time": 14.625,
          "velocity": 0.15748031496062992
        },
        {
          "duration": 0.020833333333333925,
          "durationTicks": 8,
          "midi": 46,
          "name": "A#2",
          "ticks": 5712,
          "time": 14.875,
          "velocity": 0.15748031496062992
        },
        {
          "duration": 0.020833333333333925,
          "durationTicks": 8,
          "midi": 46,
          "name": "A#2",
          "ticks": 5808,
          "time": 15.125,
          "velocity": 0.3779527559055118
        },
        {
          "duration": 0.020833333333333925,
          "durationTicks": 8,
          "midi": 46,
          "name": "A#2",
          "ticks": 5904,
          "time": 15.375,
          "velocity": 0.4881889763779528
        },
        {
          "duration": 0.020833333333333925,
          "durationTicks": 8,
          "midi": 46,
          "name": "A#2",
          "ticks": 6000,
          "time": 15.625,
          "velocity": 0.5984251968503937
        },
        {
          "duration": 0.020833333333333925,
          "durationTicks": 8,
          "midi": 46,
          "name": "A#2",
          "ticks": 6048,
          "time": 15.75,
          "velocity": 0.5669291338582677
        },
        {
          "duration": 0.01822916666666785,
          "durationTicks": 7,
          "midi": 46,
          "name": "A#2",
          "ticks": 6336,
          "time": 16.5,
          "velocity": 0.5905511811023622
        },
        {
          "duration": 0.01822916666666785,
          "durationTicks": 7,
          "midi": 46,
          "name": "A#2",
          "ticks": 6384,
          "time": 16.625,
          "velocity": 0.47244094488188976
        },
        {
          "duration": 0.01822916666666785,
          "durationTicks": 7,
          "midi": 46,
          "name": "A#2",
          "ticks": 6528,
          "time": 17,
          "velocity": 0.5905511811023622
        },
        {
          "duration": 0.01822916666666785,
          "durationTicks": 7,
          "midi": 46,
          "name": "A#2",
          "ticks": 6576,
          "time": 17.125,
          "velocity": 0.47244094488188976
        },
        {
          "duration": 0.01822916666666785,
          "durationTicks": 7,
          "midi": 46,
          "name": "A#2",
          "ticks": 6720,
          "time": 17.5,
          "velocity": 0.5905511811023622
        },
        {
          "duration": 0.01822916666666785,
          "durationTicks": 7,
          "midi": 46,
          "name": "A#2",
          "ticks": 6912,
          "time": 18,
          "velocity": 0.5905511811023622
        },
        {
          "duration": 0.01822916666666785,
          "durationTicks": 7,
          "midi": 46,
          "name": "A#2",
          "ticks": 6960,
          "time": 18.125,
          "velocity": 0.47244094488188976
        },
        {
          "duration": 0.01822916666666785,
          "durationTicks": 7,
          "midi": 46,
          "name": "A#2",
          "ticks": 7104,
          "time": 18.5,
          "velocity": 0.5905511811023622
        },
        {
          "duration": 0.01822916666666785,
          "durationTicks": 7,
          "midi": 46,
          "name": "A#2",
          "ticks": 7152,
          "time": 18.625,
          "velocity": 0.47244094488188976
        },
        {
          "duration": 0.01822916666666785,
          "durationTicks": 7,
          "midi": 46,
          "name": "A#2",
          "ticks": 7296,
          "time": 19,
          "velocity": 0.5905511811023622
        },
        {
          "duration": 0.01822916666666785,
          "durationTicks": 7,
          "midi": 46,
          "name": "A#2",
          "ticks": 7344,
          "time": 19.125,
          "velocity": 0.47244094488188976
        },
        {
          "duration": 0.01822916666666785,
          "durationTicks": 7,
          "midi": 46,
          "name": "A#2",
          "ticks": 7488,
          "time": 19.5,
          "velocity": 0.5905511811023622
        },
        {
          "duration": 0.01822916666666785,
          "durationTicks": 7,
          "midi": 46,
          "name": "A#2",
          "ticks": 7680,
          "time": 20,
          "velocity": 0.5905511811023622
        },
        {
          "duration": 0.01822916666666785,
          "durationTicks": 7,
          "midi": 46,
          "name": "A#2",
          "ticks": 7728,
          "time": 20.125,
          "velocity": 0.47244094488188976
        },
        {
          "duration": 0.01822916666666785,
          "durationTicks": 7,
          "midi": 46,
          "name": "A#2",
          "ticks": 7872,
          "time": 20.5,
          "velocity": 0.5905511811023622
        },
        {
          "duration": 0.01822916666666785,
          "durationTicks": 7,
          "midi": 46,
          "name": "A#2",
          "ticks": 7920,
          "time": 20.625,
          "velocity": 0.47244094488188976
        },
        {
          "duration": 0.01822916666666785,
          "durationTicks": 7,
          "midi": 46,
          "name": "A#2",
          "ticks": 8064,
          "time": 21,
          "velocity": 0.5905511811023622
        },
        {
          "duration": 0.01822916666666785,
          "durationTicks": 7,
          "midi": 46,
          "name": "A#2",
          "ticks": 8112,
          "time": 21.125,
          "velocity": 0.47244094488188976
        },
        {
          "duration": 0.01822916666666785,
          "durationTicks": 7,
          "midi": 46,
          "name": "A#2",
          "ticks": 8256,
          "time": 21.5,
          "velocity": 0.5905511811023622
        },
        {
          "duration": 0.01822916666666785,
          "durationTicks": 7,
          "midi": 46,
          "name": "A#2",
          "ticks": 8448,
          "time": 22,
          "velocity": 0.5905511811023622
        },
        {
          "duration": 0.01822916666666785,
          "durationTicks": 7,
          "midi": 46,
          "name": "A#2",
          "ticks": 8496,
          "time": 22.125,
          "velocity": 0.47244094488188976
        },
        {
          "duration": 0.01822916666666785,
          "durationTicks": 7,
          "midi": 46,
          "name": "A#2",
          "ticks": 8640,
          "time": 22.5,
          "velocity": 0.5905511811023622
        },
        {
          "duration": 0.01822916666666785,
          "durationTicks": 7,
          "midi": 46,
          "name": "A#2",
          "ticks": 8688,
          "time": 22.625,
          "velocity": 0.47244094488188976
        },
        {
          "duration": 0.01822916666666785,
          "durationTicks": 7,
          "midi": 46,
          "name": "A#2",
          "ticks": 9408,
          "time": 24.5,
          "velocity": 0.5905511811023622
        },
        {
          "duration": 0.01822916666666785,
          "durationTicks": 7,
          "midi": 46,
          "name": "A#2",
          "ticks": 9456,
          "time": 24.625,
          "velocity": 0.47244094488188976
        },
        {
          "duration": 0.01822916666666785,
          "durationTicks": 7,
          "midi": 46,
          "name": "A#2",
          "ticks": 9600,
          "time": 25,
          "velocity": 0.5905511811023622
        },
        {
          "duration": 0.01822916666666785,
          "durationTicks": 7,
          "midi": 46,
          "name": "A#2",
          "ticks": 9648,
          "time": 25.125,
          "velocity": 0.47244094488188976
        },
        {
          "duration": 0.01822916666666785,
          "durationTicks": 7,
          "midi": 46,
          "name": "A#2",
          "ticks": 9792,
          "time": 25.5,
          "velocity": 0.5905511811023622
        },
        {
          "duration": 0.01822916666666785,
          "durationTicks": 7,
          "midi": 46,
          "name": "A#2",
          "ticks": 9984,
          "time": 26,
          "velocity": 0.5905511811023622
        },
        {
          "duration": 0.01822916666666785,
          "durationTicks": 7,
          "midi": 46,
          "name": "A#2",
          "ticks": 10032,
          "time": 26.125,
          "velocity": 0.47244094488188976
        },
        {
          "duration": 0.01822916666666785,
          "durationTicks": 7,
          "midi": 46,
          "name": "A#2",
          "ticks": 10176,
          "time": 26.5,
          "velocity": 0.5905511811023622
        },
        {
          "duration": 0.01822916666666785,
          "durationTicks": 7,
          "midi": 46,
          "name": "A#2",
          "ticks": 10224,
          "time": 26.625,
          "velocity": 0.47244094488188976
        },
        {
          "duration": 0.01822916666666785,
          "durationTicks": 7,
          "midi": 46,
          "name": "A#2",
          "ticks": 10368,
          "time": 27,
          "velocity": 0.5905511811023622
        },
        {
          "duration": 0.01822916666666785,
          "durationTicks": 7,
          "midi": 46,
          "name": "A#2",
          "ticks": 10416,
          "time": 27.125,
          "velocity": 0.47244094488188976
        },
        {
          "duration": 0.01822916666666785,
          "durationTicks": 7,
          "midi": 46,
          "name": "A#2",
          "ticks": 10560,
          "time": 27.5,
          "velocity": 0.5905511811023622
        },
        {
          "duration": 0.01822916666666785,
          "durationTicks": 7,
          "midi": 46,
          "name": "A#2",
          "ticks": 10752,
          "time": 28,
          "velocity": 0.5905511811023622
        },
        {
          "duration": 0.01822916666666785,
          "durationTicks": 7,
          "midi": 46,
          "name": "A#2",
          "ticks": 10800,
          "time": 28.125,
          "velocity": 0.47244094488188976
        },
        {
          "duration": 0.01822916666666785,
          "durationTicks": 7,
          "midi": 46,
          "name": "A#2",
          "ticks": 10944,
          "time": 28.5,
          "velocity": 0.5905511811023622
        },
        {
          "duration": 0.01822916666666785,
          "durationTicks": 7,
          "midi": 46,
          "name": "A#2",
          "ticks": 10992,
          "time": 28.625,
          "velocity": 0.47244094488188976
        },
        {
          "duration": 0.01822916666666785,
          "durationTicks": 7,
          "midi": 46,
          "name": "A#2",
          "ticks": 11136,
          "time": 29,
          "velocity": 0.5905511811023622
        },
        {
          "duration": 0.01822916666666785,
          "durationTicks": 7,
          "midi": 46,
          "name": "A#2",
          "ticks": 11184,
          "time": 29.125,
          "velocity": 0.47244094488188976
        },
        {
          "duration": 0.01822916666666785,
          "durationTicks": 7,
          "midi": 46,
          "name": "A#2",
          "ticks": 11328,
          "time": 29.5,
          "velocity": 0.5905511811023622
        },
        {
          "duration": 0.01822916666666785,
          "durationTicks": 7,
          "midi": 46,
          "name": "A#2",
          "ticks": 11520,
          "time": 30,
          "velocity": 0.5905511811023622
        },
        {
          "duration": 0.01822916666666785,
          "durationTicks": 7,
          "midi": 46,
          "name": "A#2",
          "ticks": 11568,
          "time": 30.125,
          "velocity": 0.47244094488188976
        },
        {
          "duration": 0.01822916666666785,
          "durationTicks": 7,
          "midi": 46,
          "name": "A#2",
          "ticks": 11712,
          "time": 30.5,
          "velocity": 0.5905511811023622
        },
        {
          "duration": 0.01822916666666785,
          "durationTicks": 7,
          "midi": 46,
          "name": "A#2",
          "ticks": 11760,
          "time": 30.625,
          "velocity": 0.47244094488188976
        },
        {
          "duration": 0.018229166666664298,
          "durationTicks": 7,
          "midi": 44,
          "name": "G#2",
          "ticks": 12480,
          "time": 32.5,
          "velocity": 0.5905511811023622
        },
        {
          "duration": 0.018229166666664298,
          "durationTicks": 7,
          "midi": 44,
          "name": "G#2",
          "ticks": 12528,
          "time": 32.625,
          "velocity": 0.47244094488188976
        },
        {
          "duration": 0.018229166666664298,
          "durationTicks": 7,
          "midi": 44,
          "name": "G#2",
          "ticks": 12672,
          "time": 33,
          "velocity": 0.5905511811023622
        },
        {
          "duration": 0.018229166666664298,
          "durationTicks": 7,
          "midi": 44,
          "name": "G#2",
          "ticks": 12720,
          "time": 33.125,
          "velocity": 0.47244094488188976
        },
        {
          "duration": 0.018229166666664298,
          "durationTicks": 7,
          "midi": 44,
          "name": "G#2",
          "ticks": 12864,
          "time": 33.5,
          "velocity": 0.5905511811023622
        },
        {
          "duration": 0.018229166666664298,
          "durationTicks": 7,
          "midi": 44,
          "name": "G#2",
          "ticks": 12912,
          "time": 33.625,
          "velocity": 0.47244094488188976
        },
        {
          "duration": 0.018229166666664298,
          "durationTicks": 7,
          "midi": 44,
          "name": "G#2",
          "ticks": 13056,
          "time": 34,
          "velocity": 0.5905511811023622
        },
        {
          "duration": 0.018229166666664298,
          "durationTicks": 7,
          "midi": 44,
          "name": "G#2",
          "ticks": 13104,
          "time": 34.125,
          "velocity": 0.47244094488188976
        },
        {
          "duration": 0.018229166666664298,
          "durationTicks": 7,
          "midi": 44,
          "name": "G#2",
          "ticks": 13248,
          "time": 34.5,
          "velocity": 0.5905511811023622
        },
        {
          "duration": 0.018229166666664298,
          "durationTicks": 7,
          "midi": 44,
          "name": "G#2",
          "ticks": 13296,
          "time": 34.625,
          "velocity": 0.47244094488188976
        },
        {
          "duration": 0.018229166666664298,
          "durationTicks": 7,
          "midi": 44,
          "name": "G#2",
          "ticks": 13440,
          "time": 35,
          "velocity": 0.5905511811023622
        },
        {
          "duration": 0.018229166666664298,
          "durationTicks": 7,
          "midi": 44,
          "name": "G#2",
          "ticks": 13488,
          "time": 35.125,
          "velocity": 0.47244094488188976
        },
        {
          "duration": 0.018229166666664298,
          "durationTicks": 7,
          "midi": 44,
          "name": "G#2",
          "ticks": 13632,
          "time": 35.5,
          "velocity": 0.5905511811023622
        },
        {
          "duration": 0.018229166666664298,
          "durationTicks": 7,
          "midi": 44,
          "name": "G#2",
          "ticks": 13680,
          "time": 35.625,
          "velocity": 0.47244094488188976
        },
        {
          "duration": 0.018229166666664298,
          "durationTicks": 7,
          "midi": 44,
          "name": "G#2",
          "ticks": 13824,
          "time": 36,
          "velocity": 0.5905511811023622
        },
        {
          "duration": 0.018229166666664298,
          "durationTicks": 7,
          "midi": 44,
          "name": "G#2",
          "ticks": 13872,
          "time": 36.125,
          "velocity": 0.47244094488188976
        },
        {
          "duration": 0.018229166666664298,
          "durationTicks": 7,
          "midi": 44,
          "name": "G#2",
          "ticks": 14016,
          "time": 36.5,
          "velocity": 0.5905511811023622
        },
        {
          "duration": 0.018229166666664298,
          "durationTicks": 7,
          "midi": 44,
          "name": "G#2",
          "ticks": 14064,
          "time": 36.625,
          "velocity": 0.47244094488188976
        },
        {
          "duration": 0.018229166666664298,
          "durationTicks": 7,
          "midi": 44,
          "name": "G#2",
          "ticks": 14208,
          "time": 37,
          "velocity": 0.5905511811023622
        },
        {
          "duration": 0.018229166666664298,
          "durationTicks": 7,
          "midi": 44,
          "name": "G#2",
          "ticks": 14256,
          "time": 37.125,
          "velocity": 0.47244094488188976
        },
        {
          "duration": 0.018229166666664298,
          "durationTicks": 7,
          "midi": 44,
          "name": "G#2",
          "ticks": 14400,
          "time": 37.5,
          "velocity": 0.5905511811023622
        },
        {
          "duration": 0.018229166666664298,
          "durationTicks": 7,
          "midi": 44,
          "name": "G#2",
          "ticks": 14448,
          "time": 37.625,
          "velocity": 0.47244094488188976
        },
        {
          "duration": 0.018229166666664298,
          "durationTicks": 7,
          "midi": 46,
          "name": "A#2",
          "ticks": 14592,
          "time": 38,
          "velocity": 0.5905511811023622
        },
        {
          "duration": 0.018229166666664298,
          "durationTicks": 7,
          "midi": 46,
          "name": "A#2",
          "ticks": 14640,
          "time": 38.125,
          "velocity": 0.47244094488188976
        },
        {
          "duration": 0.018229166666664298,
          "durationTicks": 7,
          "midi": 46,
          "name": "A#2",
          "ticks": 14784,
          "time": 38.5,
          "velocity": 0.5905511811023622
        },
        {
          "duration": 0.018229166666664298,
          "durationTicks": 7,
          "midi": 46,
          "name": "A#2",
          "ticks": 14832,
          "time": 38.625,
          "velocity": 0.47244094488188976
        },
        {
          "duration": 0.018229166666664298,
          "durationTicks": 7,
          "midi": 44,
          "name": "G#2",
          "ticks": 15408,
          "time": 40.125,
          "velocity": 0.47244094488188976
        },
        {
          "duration": 0.018229166666664298,
          "durationTicks": 7,
          "midi": 46,
          "name": "A#2",
          "ticks": 15552,
          "time": 40.5,
          "velocity": 0.5905511811023622
        },
        {
          "duration": 0.018229166666664298,
          "durationTicks": 7,
          "midi": 44,
          "name": "G#2",
          "ticks": 15600,
          "time": 40.625,
          "velocity": 0.47244094488188976
        },
        {
          "duration": 0.018229166666664298,
          "durationTicks": 7,
          "midi": 46,
          "name": "A#2",
          "ticks": 15744,
          "time": 41,
          "velocity": 0.5905511811023622
        },
        {
          "duration": 0.018229166666664298,
          "durationTicks": 7,
          "midi": 44,
          "name": "G#2",
          "ticks": 15792,
          "time": 41.125,
          "velocity": 0.47244094488188976
        },
        {
          "duration": 0.018229166666664298,
          "durationTicks": 7,
          "midi": 46,
          "name": "A#2",
          "ticks": 15936,
          "time": 41.5,
          "velocity": 0.5905511811023622
        },
        {
          "duration": 0.018229166666664298,
          "durationTicks": 7,
          "midi": 46,
          "name": "A#2",
          "ticks": 16128,
          "time": 42,
          "velocity": 0.5905511811023622
        },
        {
          "duration": 0.018229166666664298,
          "durationTicks": 7,
          "midi": 44,
          "name": "G#2",
          "ticks": 16176,
          "time": 42.125,
          "velocity": 0.47244094488188976
        },
        {
          "duration": 0.018229166666664298,
          "durationTicks": 7,
          "midi": 46,
          "name": "A#2",
          "ticks": 16320,
          "time": 42.5,
          "velocity": 0.5905511811023622
        },
        {
          "duration": 0.018229166666664298,
          "durationTicks": 7,
          "midi": 44,
          "name": "G#2",
          "ticks": 16368,
          "time": 42.625,
          "velocity": 0.47244094488188976
        },
        {
          "duration": 0.018229166666664298,
          "durationTicks": 7,
          "midi": 46,
          "name": "A#2",
          "ticks": 16512,
          "time": 43,
          "velocity": 0.5905511811023622
        },
        {
          "duration": 0.018229166666664298,
          "durationTicks": 7,
          "midi": 44,
          "name": "G#2",
          "ticks": 16560,
          "time": 43.125,
          "velocity": 0.47244094488188976
        },
        {
          "duration": 0.018229166666664298,
          "durationTicks": 7,
          "midi": 46,
          "name": "A#2",
          "ticks": 16704,
          "time": 43.5,
          "velocity": 0.5905511811023622
        },
        {
          "duration": 0.018229166666664298,
          "durationTicks": 7,
          "midi": 46,
          "name": "A#2",
          "ticks": 16896,
          "time": 44,
          "velocity": 0.5905511811023622
        },
        {
          "duration": 0.018229166666664298,
          "durationTicks": 7,
          "midi": 44,
          "name": "G#2",
          "ticks": 16944,
          "time": 44.125,
          "velocity": 0.47244094488188976
        },
        {
          "duration": 0.018229166666664298,
          "durationTicks": 7,
          "midi": 46,
          "name": "A#2",
          "ticks": 17088,
          "time": 44.5,
          "velocity": 0.5905511811023622
        },
        {
          "duration": 0.018229166666664298,
          "durationTicks": 7,
          "midi": 44,
          "name": "G#2",
          "ticks": 17136,
          "time": 44.625,
          "velocity": 0.47244094488188976
        },
        {
          "duration": 0.018229166666664298,
          "durationTicks": 7,
          "midi": 46,
          "name": "A#2",
          "ticks": 17280,
          "time": 45,
          "velocity": 0.5905511811023622
        },
        {
          "duration": 0.018229166666664298,
          "durationTicks": 7,
          "midi": 44,
          "name": "G#2",
          "ticks": 17328,
          "time": 45.125,
          "velocity": 0.47244094488188976
        },
        {
          "duration": 0.018229166666664298,
          "durationTicks": 7,
          "midi": 46,
          "name": "A#2",
          "ticks": 17472,
          "time": 45.5,
          "velocity": 0.5905511811023622
        },
        {
          "duration": 0.018229166666664298,
          "durationTicks": 7,
          "midi": 46,
          "name": "A#2",
          "ticks": 17664,
          "time": 46,
          "velocity": 0.5905511811023622
        },
        {
          "duration": 0.018229166666664298,
          "durationTicks": 7,
          "midi": 46,
          "name": "A#2",
          "ticks": 17712,
          "time": 46.125,
          "velocity": 0.47244094488188976
        },
        {
          "duration": 0.018229166666664298,
          "durationTicks": 7,
          "midi": 46,
          "name": "A#2",
          "ticks": 17856,
          "time": 46.5,
          "velocity": 0.5905511811023622
        },
        {
          "duration": 0.018229166666664298,
          "durationTicks": 7,
          "midi": 46,
          "name": "A#2",
          "ticks": 17904,
          "time": 46.625,
          "velocity": 0.47244094488188976
        },
        {
          "duration": 0.018229166666664298,
          "durationTicks": 7,
          "midi": 46,
          "name": "A#2",
          "ticks": 18624,
          "time": 48.5,
          "velocity": 0.5905511811023622
        },
        {
          "duration": 0.018229166666664298,
          "durationTicks": 7,
          "midi": 46,
          "name": "A#2",
          "ticks": 18816,
          "time": 49,
          "velocity": 0.5905511811023622
        },
        {
          "duration": 0.018229166666664298,
          "durationTicks": 7,
          "midi": 46,
          "name": "A#2",
          "ticks": 19008,
          "time": 49.5,
          "velocity": 0.5905511811023622
        },
        {
          "duration": 0.018229166666664298,
          "durationTicks": 7,
          "midi": 46,
          "name": "A#2",
          "ticks": 19200,
          "time": 50,
          "velocity": 0.5905511811023622
        },
        {
          "duration": 0.018229166666664298,
          "durationTicks": 7,
          "midi": 46,
          "name": "A#2",
          "ticks": 19392,
          "time": 50.5,
          "velocity": 0.5905511811023622
        },
        {
          "duration": 0.018229166666664298,
          "durationTicks": 7,
          "midi": 46,
          "name": "A#2",
          "ticks": 19584,
          "time": 51,
          "velocity": 0.5905511811023622
        },
        {
          "duration": 0.018229166666664298,
          "durationTicks": 7,
          "midi": 46,
          "name": "A#2",
          "ticks": 19776,
          "time": 51.5,
          "velocity": 0.5905511811023622
        },
        {
          "duration": 0.018229166666664298,
          "durationTicks": 7,
          "midi": 46,
          "name": "A#2",
          "ticks": 19968,
          "time": 52,
          "velocity": 0.5905511811023622
        },
        {
          "duration": 0.018229166666664298,
          "durationTicks": 7,
          "midi": 46,
          "name": "A#2",
          "ticks": 20160,
          "time": 52.5,
          "velocity": 0.5905511811023622
        },
        {
          "duration": 0.018229166666664298,
          "durationTicks": 7,
          "midi": 46,
          "name": "A#2",
          "ticks": 20352,
          "time": 53,
          "velocity": 0.5905511811023622
        },
        {
          "duration": 0.018229166666664298,
          "durationTicks": 7,
          "midi": 46,
          "name": "A#2",
          "ticks": 20544,
          "time": 53.5,
          "velocity": 0.5905511811023622
        },
        {
          "duration": 0.018229166666664298,
          "durationTicks": 7,
          "midi": 46,
          "name": "A#2",
          "ticks": 20736,
          "time": 54,
          "velocity": 0.5905511811023622
        },
        {
          "duration": 0.018229166666664298,
          "durationTicks": 7,
          "midi": 46,
          "name": "A#2",
          "ticks": 20784,
          "time": 54.125,
          "velocity": 0.47244094488188976
        },
        {
          "duration": 0.018229166666664298,
          "durationTicks": 7,
          "midi": 46,
          "name": "A#2",
          "ticks": 20928,
          "time": 54.5,
          "velocity": 0.5905511811023622
        },
        {
          "duration": 0.018229166666664298,
          "durationTicks": 7,
          "midi": 46,
          "name": "A#2",
          "ticks": 20976,
          "time": 54.625,
          "velocity": 0.47244094488188976
        },
        {
          "duration": 0.018229166666664298,
          "durationTicks": 7,
          "midi": 46,
          "name": "A#2",
          "ticks": 21696,
          "time": 56.5,
          "velocity": 0.5905511811023622
        },
        {
          "duration": 0.018229166666664298,
          "durationTicks": 7,
          "midi": 46,
          "name": "A#2",
          "ticks": 21888,
          "time": 57,
          "velocity": 0.5905511811023622
        },
        {
          "duration": 0.018229166666664298,
          "durationTicks": 7,
          "midi": 46,
          "name": "A#2",
          "ticks": 22080,
          "time": 57.5,
          "velocity": 0.5905511811023622
        },
        {
          "duration": 0.018229166666664298,
          "durationTicks": 7,
          "midi": 46,
          "name": "A#2",
          "ticks": 22272,
          "time": 58,
          "velocity": 0.5905511811023622
        },
        {
          "duration": 0.018229166666664298,
          "durationTicks": 7,
          "midi": 46,
          "name": "A#2",
          "ticks": 22464,
          "time": 58.5,
          "velocity": 0.5905511811023622
        },
        {
          "duration": 0.018229166666664298,
          "durationTicks": 7,
          "midi": 46,
          "name": "A#2",
          "ticks": 22656,
          "time": 59,
          "velocity": 0.5905511811023622
        },
        {
          "duration": 0.018229166666664298,
          "durationTicks": 7,
          "midi": 46,
          "name": "A#2",
          "ticks": 22848,
          "time": 59.5,
          "velocity": 0.5905511811023622
        },
        {
          "duration": 0.018229166666664298,
          "durationTicks": 7,
          "midi": 46,
          "name": "A#2",
          "ticks": 23040,
          "time": 60,
          "velocity": 0.5905511811023622
        },
        {
          "duration": 0.018229166666664298,
          "durationTicks": 7,
          "midi": 46,
          "name": "A#2",
          "ticks": 23232,
          "time": 60.5,
          "velocity": 0.5905511811023622
        },
        {
          "duration": 0.018229166666664298,
          "durationTicks": 7,
          "midi": 46,
          "name": "A#2",
          "ticks": 23424,
          "time": 61,
          "velocity": 0.5905511811023622
        },
        {
          "duration": 0.018229166666664298,
          "durationTicks": 7,
          "midi": 46,
          "name": "A#2",
          "ticks": 23616,
          "time": 61.5,
          "velocity": 0.5905511811023622
        },
        {
          "duration": 0.018229166666664298,
          "durationTicks": 7,
          "midi": 46,
          "name": "A#2",
          "ticks": 23808,
          "time": 62,
          "velocity": 0.5905511811023622
        },
        {
          "duration": 0.018229166666664298,
          "durationTicks": 7,
          "midi": 46,
          "name": "A#2",
          "ticks": 24000,
          "time": 62.5,
          "velocity": 0.5905511811023622
        },
        {
          "duration": 0.018229166666671404,
          "durationTicks": 7,
          "midi": 46,
          "name": "A#2",
          "ticks": 24768,
          "time": 64.5,
          "velocity": 0.5905511811023622
        },
        {
          "duration": 0.018229166666671404,
          "durationTicks": 7,
          "midi": 46,
          "name": "A#2",
          "ticks": 24960,
          "time": 65,
          "velocity": 0.5905511811023622
        },
        {
          "duration": 0.018229166666671404,
          "durationTicks": 7,
          "midi": 46,
          "name": "A#2",
          "ticks": 25152,
          "time": 65.5,
          "velocity": 0.5905511811023622
        },
        {
          "duration": 0.018229166666671404,
          "durationTicks": 7,
          "midi": 46,
          "name": "A#2",
          "ticks": 25344,
          "time": 66,
          "velocity": 0.5905511811023622
        },
        {
          "duration": 0.018229166666671404,
          "durationTicks": 7,
          "midi": 46,
          "name": "A#2",
          "ticks": 25536,
          "time": 66.5,
          "velocity": 0.5905511811023622
        },
        {
          "duration": 0.018229166666671404,
          "durationTicks": 7,
          "midi": 46,
          "name": "A#2",
          "ticks": 25728,
          "time": 67,
          "velocity": 0.5905511811023622
        },
        {
          "duration": 0.018229166666671404,
          "durationTicks": 7,
          "midi": 46,
          "name": "A#2",
          "ticks": 25920,
          "time": 67.5,
          "velocity": 0.5905511811023622
        },
        {
          "duration": 0.018229166666671404,
          "durationTicks": 7,
          "midi": 46,
          "name": "A#2",
          "ticks": 26112,
          "time": 68,
          "velocity": 0.5905511811023622
        },
        {
          "duration": 0.018229166666671404,
          "durationTicks": 7,
          "midi": 46,
          "name": "A#2",
          "ticks": 26304,
          "time": 68.5,
          "velocity": 0.5905511811023622
        },
        {
          "duration": 0.018229166666671404,
          "durationTicks": 7,
          "midi": 46,
          "name": "A#2",
          "ticks": 26496,
          "time": 69,
          "velocity": 0.5905511811023622
        },
        {
          "duration": 0.018229166666671404,
          "durationTicks": 7,
          "midi": 46,
          "name": "A#2",
          "ticks": 26688,
          "time": 69.5,
          "velocity": 0.5905511811023622
        },
        {
          "duration": 0.018229166666671404,
          "durationTicks": 7,
          "midi": 46,
          "name": "A#2",
          "ticks": 26880,
          "time": 70,
          "velocity": 0.5905511811023622
        },
        {
          "duration": 0.018229166666671404,
          "durationTicks": 7,
          "midi": 46,
          "name": "A#2",
          "ticks": 27072,
          "time": 70.5,
          "velocity": 0.5905511811023622
        },
        {
          "duration": 0.018229166666671404,
          "durationTicks": 7,
          "midi": 46,
          "name": "A#2",
          "ticks": 27840,
          "time": 72.5,
          "velocity": 0.5905511811023622
        },
        {
          "duration": 0.018229166666671404,
          "durationTicks": 7,
          "midi": 46,
          "name": "A#2",
          "ticks": 28032,
          "time": 73,
          "velocity": 0.5905511811023622
        },
        {
          "duration": 0.018229166666671404,
          "durationTicks": 7,
          "midi": 46,
          "name": "A#2",
          "ticks": 28224,
          "time": 73.5,
          "velocity": 0.5905511811023622
        },
        {
          "duration": 0.018229166666671404,
          "durationTicks": 7,
          "midi": 46,
          "name": "A#2",
          "ticks": 28416,
          "time": 74,
          "velocity": 0.5905511811023622
        },
        {
          "duration": 0.018229166666671404,
          "durationTicks": 7,
          "midi": 46,
          "name": "A#2",
          "ticks": 28608,
          "time": 74.5,
          "velocity": 0.5905511811023622
        },
        {
          "duration": 0.018229166666671404,
          "durationTicks": 7,
          "midi": 46,
          "name": "A#2",
          "ticks": 28800,
          "time": 75,
          "velocity": 0.5905511811023622
        },
        {
          "duration": 0.018229166666671404,
          "durationTicks": 7,
          "midi": 46,
          "name": "A#2",
          "ticks": 28992,
          "time": 75.5,
          "velocity": 0.5905511811023622
        },
        {
          "duration": 0.018229166666671404,
          "durationTicks": 7,
          "midi": 46,
          "name": "A#2",
          "ticks": 29184,
          "time": 76,
          "velocity": 0.5905511811023622
        },
        {
          "duration": 0.018229166666671404,
          "durationTicks": 7,
          "midi": 46,
          "name": "A#2",
          "ticks": 29376,
          "time": 76.5,
          "velocity": 0.5905511811023622
        },
        {
          "duration": 0.018229166666671404,
          "durationTicks": 7,
          "midi": 46,
          "name": "A#2",
          "ticks": 29568,
          "time": 77,
          "velocity": 0.5905511811023622
        },
        {
          "duration": 0.018229166666671404,
          "durationTicks": 7,
          "midi": 46,
          "name": "A#2",
          "ticks": 29760,
          "time": 77.5,
          "velocity": 0.5905511811023622
        },
        {
          "duration": 0.018229166666671404,
          "durationTicks": 7,
          "midi": 46,
          "name": "A#2",
          "ticks": 29952,
          "time": 78,
          "velocity": 0.5905511811023622
        },
        {
          "duration": 0.018229166666671404,
          "durationTicks": 7,
          "midi": 46,
          "name": "A#2",
          "ticks": 30144,
          "time": 78.5,
          "velocity": 0.5905511811023622
        },
        {
          "duration": 0.018229166666671404,
          "durationTicks": 7,
          "midi": 46,
          "name": "A#2",
          "ticks": 30816,
          "time": 80.25,
          "velocity": 0.5905511811023622
        },
        {
          "duration": 0.018229166666671404,
          "durationTicks": 7,
          "midi": 46,
          "name": "A#2",
          "ticks": 31008,
          "time": 80.75,
          "velocity": 0.5905511811023622
        },
        {
          "duration": 0.018229166666671404,
          "durationTicks": 7,
          "midi": 46,
          "name": "A#2",
          "ticks": 31104,
          "time": 81,
          "velocity": 0.5905511811023622
        },
        {
          "duration": 0.018229166666671404,
          "durationTicks": 7,
          "midi": 46,
          "name": "A#2",
          "ticks": 31200,
          "time": 81.25,
          "velocity": 0.5905511811023622
        },
        {
          "duration": 0.018229166666671404,
          "durationTicks": 7,
          "midi": 46,
          "name": "A#2",
          "ticks": 31392,
          "time": 81.75,
          "velocity": 0.5905511811023622
        },
        {
          "duration": 0.018229166666671404,
          "durationTicks": 7,
          "midi": 46,
          "name": "A#2",
          "ticks": 31488,
          "time": 82,
          "velocity": 0.5905511811023622
        },
        {
          "duration": 0.018229166666671404,
          "durationTicks": 7,
          "midi": 46,
          "name": "A#2",
          "ticks": 31584,
          "time": 82.25,
          "velocity": 0.5905511811023622
        },
        {
          "duration": 0.018229166666671404,
          "durationTicks": 7,
          "midi": 46,
          "name": "A#2",
          "ticks": 31776,
          "time": 82.75,
          "velocity": 0.5905511811023622
        },
        {
          "duration": 0.018229166666671404,
          "durationTicks": 7,
          "midi": 46,
          "name": "A#2",
          "ticks": 31872,
          "time": 83,
          "velocity": 0.5905511811023622
        },
        {
          "duration": 0.018229166666671404,
          "durationTicks": 7,
          "midi": 46,
          "name": "A#2",
          "ticks": 31968,
          "time": 83.25,
          "velocity": 0.5905511811023622
        },
        {
          "duration": 0.018229166666671404,
          "durationTicks": 7,
          "midi": 46,
          "name": "A#2",
          "ticks": 32160,
          "time": 83.75,
          "velocity": 0.5905511811023622
        },
        {
          "duration": 0.018229166666671404,
          "durationTicks": 7,
          "midi": 46,
          "name": "A#2",
          "ticks": 32256,
          "time": 84,
          "velocity": 0.5905511811023622
        },
        {
          "duration": 0.018229166666671404,
          "durationTicks": 7,
          "midi": 46,
          "name": "A#2",
          "ticks": 32352,
          "time": 84.25,
          "velocity": 0.5905511811023622
        },
        {
          "duration": 0.018229166666671404,
          "durationTicks": 7,
          "midi": 46,
          "name": "A#2",
          "ticks": 32544,
          "time": 84.75,
          "velocity": 0.5905511811023622
        },
        {
          "duration": 0.018229166666671404,
          "durationTicks": 7,
          "midi": 46,
          "name": "A#2",
          "ticks": 32640,
          "time": 85,
          "velocity": 0.5905511811023622
        },
        {
          "duration": 0.018229166666671404,
          "durationTicks": 7,
          "midi": 46,
          "name": "A#2",
          "ticks": 32736,
          "time": 85.25,
          "velocity": 0.5905511811023622
        },
        {
          "duration": 0.018229166666671404,
          "durationTicks": 7,
          "midi": 46,
          "name": "A#2",
          "ticks": 32928,
          "time": 85.75,
          "velocity": 0.5905511811023622
        },
        {
          "duration": 0.018229166666671404,
          "durationTicks": 7,
          "midi": 46,
          "name": "A#2",
          "ticks": 33024,
          "time": 86,
          "velocity": 0.5905511811023622
        },
        {
          "duration": 0.018229166666671404,
          "durationTicks": 7,
          "midi": 46,
          "name": "A#2",
          "ticks": 33120,
          "time": 86.25,
          "velocity": 0.5905511811023622
        },
        {
          "duration": 0.018229166666671404,
          "durationTicks": 7,
          "midi": 46,
          "name": "A#2",
          "ticks": 33312,
          "time": 86.75,
          "velocity": 0.5905511811023622
        },
        {
          "duration": 0.018229166666671404,
          "durationTicks": 7,
          "midi": 46,
          "name": "A#2",
          "ticks": 33408,
          "time": 87,
          "velocity": 0.5905511811023622
        },
        {
          "duration": 0.018229166666671404,
          "durationTicks": 7,
          "midi": 46,
          "name": "A#2",
          "ticks": 33504,
          "time": 87.25,
          "velocity": 0.5905511811023622
        },
        {
          "duration": 0.018229166666671404,
          "durationTicks": 7,
          "midi": 46,
          "name": "A#2",
          "ticks": 33696,
          "time": 87.75,
          "velocity": 0.5905511811023622
        },
        {
          "duration": 0.018229166666671404,
          "durationTicks": 7,
          "midi": 46,
          "name": "A#2",
          "ticks": 33888,
          "time": 88.25,
          "velocity": 0.5905511811023622
        },
        {
          "duration": 0.018229166666671404,
          "durationTicks": 7,
          "midi": 46,
          "name": "A#2",
          "ticks": 34080,
          "time": 88.75,
          "velocity": 0.5905511811023622
        },
        {
          "duration": 0.018229166666671404,
          "durationTicks": 7,
          "midi": 46,
          "name": "A#2",
          "ticks": 34176,
          "time": 89,
          "velocity": 0.5905511811023622
        },
        {
          "duration": 0.018229166666671404,
          "durationTicks": 7,
          "midi": 46,
          "name": "A#2",
          "ticks": 34272,
          "time": 89.25,
          "velocity": 0.5905511811023622
        },
        {
          "duration": 0.018229166666671404,
          "durationTicks": 7,
          "midi": 46,
          "name": "A#2",
          "ticks": 34464,
          "time": 89.75,
          "velocity": 0.5905511811023622
        },
        {
          "duration": 0.018229166666671404,
          "durationTicks": 7,
          "midi": 46,
          "name": "A#2",
          "ticks": 34560,
          "time": 90,
          "velocity": 0.5905511811023622
        },
        {
          "duration": 0.018229166666671404,
          "durationTicks": 7,
          "midi": 46,
          "name": "A#2",
          "ticks": 34656,
          "time": 90.25,
          "velocity": 0.5905511811023622
        },
        {
          "duration": 0.018229166666671404,
          "durationTicks": 7,
          "midi": 46,
          "name": "A#2",
          "ticks": 34848,
          "time": 90.75,
          "velocity": 0.5905511811023622
        },
        {
          "duration": 0.018229166666671404,
          "durationTicks": 7,
          "midi": 46,
          "name": "A#2",
          "ticks": 34944,
          "time": 91,
          "velocity": 0.5905511811023622
        },
        {
          "duration": 0.018229166666671404,
          "durationTicks": 7,
          "midi": 46,
          "name": "A#2",
          "ticks": 35040,
          "time": 91.25,
          "velocity": 0.5905511811023622
        },
        {
          "duration": 0.018229166666671404,
          "durationTicks": 7,
          "midi": 46,
          "name": "A#2",
          "ticks": 35232,
          "time": 91.75,
          "velocity": 0.5905511811023622
        },
        {
          "duration": 0.018229166666671404,
          "durationTicks": 7,
          "midi": 46,
          "name": "A#2",
          "ticks": 35328,
          "time": 92,
          "velocity": 0.5905511811023622
        },
        {
          "duration": 0.018229166666671404,
          "durationTicks": 7,
          "midi": 46,
          "name": "A#2",
          "ticks": 35424,
          "time": 92.25,
          "velocity": 0.5905511811023622
        },
        {
          "duration": 0.018229166666671404,
          "durationTicks": 7,
          "midi": 46,
          "name": "A#2",
          "ticks": 35616,
          "time": 92.75,
          "velocity": 0.5905511811023622
        },
        {
          "duration": 0.018229166666671404,
          "durationTicks": 7,
          "midi": 46,
          "name": "A#2",
          "ticks": 35712,
          "time": 93,
          "velocity": 0.5905511811023622
        },
        {
          "duration": 0.018229166666671404,
          "durationTicks": 7,
          "midi": 46,
          "name": "A#2",
          "ticks": 35808,
          "time": 93.25,
          "velocity": 0.5905511811023622
        },
        {
          "duration": 0.018229166666671404,
          "durationTicks": 7,
          "midi": 46,
          "name": "A#2",
          "ticks": 36000,
          "time": 93.75,
          "velocity": 0.5905511811023622
        },
        {
          "duration": 0.018229166666671404,
          "durationTicks": 7,
          "midi": 46,
          "name": "A#2",
          "ticks": 36096,
          "time": 94,
          "velocity": 0.5905511811023622
        },
        {
          "duration": 0.018229166666671404,
          "durationTicks": 7,
          "midi": 46,
          "name": "A#2",
          "ticks": 36192,
          "time": 94.25,
          "velocity": 0.5905511811023622
        },
        {
          "duration": 0.018229166666671404,
          "durationTicks": 7,
          "midi": 46,
          "name": "A#2",
          "ticks": 36384,
          "time": 94.75,
          "velocity": 0.5905511811023622
        },
        {
          "duration": 0.018229166666671404,
          "durationTicks": 7,
          "midi": 46,
          "name": "A#2",
          "ticks": 36480,
          "time": 95,
          "velocity": 0.5905511811023622
        },
        {
          "duration": 0.018229166666671404,
          "durationTicks": 7,
          "midi": 46,
          "name": "A#2",
          "ticks": 36576,
          "time": 95.25,
          "velocity": 0.5905511811023622
        },
        {
          "duration": 0.018229166666671404,
          "durationTicks": 7,
          "midi": 46,
          "name": "A#2",
          "ticks": 36768,
          "time": 95.75,
          "velocity": 0.5905511811023622
        },
        {
          "duration": 0.018229166666671404,
          "durationTicks": 7,
          "midi": 46,
          "name": "A#2",
          "ticks": 36960,
          "time": 96.25,
          "velocity": 0.5905511811023622
        },
        {
          "duration": 0.018229166666671404,
          "durationTicks": 7,
          "midi": 46,
          "name": "A#2",
          "ticks": 37152,
          "time": 96.75,
          "velocity": 0.5905511811023622
        },
        {
          "duration": 0.018229166666671404,
          "durationTicks": 7,
          "midi": 46,
          "name": "A#2",
          "ticks": 37248,
          "time": 97,
          "velocity": 0.5905511811023622
        },
        {
          "duration": 0.018229166666671404,
          "durationTicks": 7,
          "midi": 46,
          "name": "A#2",
          "ticks": 37344,
          "time": 97.25,
          "velocity": 0.5905511811023622
        },
        {
          "duration": 0.018229166666671404,
          "durationTicks": 7,
          "midi": 46,
          "name": "A#2",
          "ticks": 37536,
          "time": 97.75,
          "velocity": 0.5905511811023622
        },
        {
          "duration": 0.018229166666671404,
          "durationTicks": 7,
          "midi": 46,
          "name": "A#2",
          "ticks": 37632,
          "time": 98,
          "velocity": 0.5905511811023622
        },
        {
          "duration": 0.018229166666671404,
          "durationTicks": 7,
          "midi": 46,
          "name": "A#2",
          "ticks": 37728,
          "time": 98.25,
          "velocity": 0.5905511811023622
        },
        {
          "duration": 0.018229166666671404,
          "durationTicks": 7,
          "midi": 46,
          "name": "A#2",
          "ticks": 37920,
          "time": 98.75,
          "velocity": 0.5905511811023622
        },
        {
          "duration": 0.018229166666671404,
          "durationTicks": 7,
          "midi": 46,
          "name": "A#2",
          "ticks": 38016,
          "time": 99,
          "velocity": 0.5905511811023622
        },
        {
          "duration": 0.018229166666671404,
          "durationTicks": 7,
          "midi": 46,
          "name": "A#2",
          "ticks": 38112,
          "time": 99.25,
          "velocity": 0.5905511811023622
        },
        {
          "duration": 0.018229166666671404,
          "durationTicks": 7,
          "midi": 46,
          "name": "A#2",
          "ticks": 38304,
          "time": 99.75,
          "velocity": 0.5905511811023622
        },
        {
          "duration": 0.018229166666671404,
          "durationTicks": 7,
          "midi": 46,
          "name": "A#2",
          "ticks": 38400,
          "time": 100,
          "velocity": 0.5905511811023622
        },
        {
          "duration": 0.018229166666671404,
          "durationTicks": 7,
          "midi": 46,
          "name": "A#2",
          "ticks": 38496,
          "time": 100.25,
          "velocity": 0.5905511811023622
        },
        {
          "duration": 0.018229166666671404,
          "durationTicks": 7,
          "midi": 46,
          "name": "A#2",
          "ticks": 38688,
          "time": 100.75,
          "velocity": 0.5905511811023622
        },
        {
          "duration": 0.018229166666671404,
          "durationTicks": 7,
          "midi": 46,
          "name": "A#2",
          "ticks": 38784,
          "time": 101,
          "velocity": 0.5905511811023622
        },
        {
          "duration": 0.018229166666671404,
          "durationTicks": 7,
          "midi": 46,
          "name": "A#2",
          "ticks": 38880,
          "time": 101.25,
          "velocity": 0.5905511811023622
        },
        {
          "duration": 0.018229166666671404,
          "durationTicks": 7,
          "midi": 46,
          "name": "A#2",
          "ticks": 39072,
          "time": 101.75,
          "velocity": 0.5905511811023622
        },
        {
          "duration": 0.018229166666671404,
          "durationTicks": 7,
          "midi": 46,
          "name": "A#2",
          "ticks": 39168,
          "time": 102,
          "velocity": 0.5905511811023622
        },
        {
          "duration": 0.018229166666671404,
          "durationTicks": 7,
          "midi": 46,
          "name": "A#2",
          "ticks": 39264,
          "time": 102.25,
          "velocity": 0.5905511811023622
        },
        {
          "duration": 0.018229166666671404,
          "durationTicks": 7,
          "midi": 46,
          "name": "A#2",
          "ticks": 39456,
          "time": 102.75,
          "velocity": 0.5905511811023622
        },
        {
          "duration": 0.018229166666671404,
          "durationTicks": 7,
          "midi": 46,
          "name": "A#2",
          "ticks": 39552,
          "time": 103,
          "velocity": 0.5905511811023622
        },
        {
          "duration": 0.018229166666671404,
          "durationTicks": 7,
          "midi": 46,
          "name": "A#2",
          "ticks": 39648,
          "time": 103.25,
          "velocity": 0.5905511811023622
        },
        {
          "duration": 0.018229166666671404,
          "durationTicks": 7,
          "midi": 46,
          "name": "A#2",
          "ticks": 39840,
          "time": 103.75,
          "velocity": 0.5905511811023622
        },
        {
          "duration": 0.018229166666671404,
          "durationTicks": 7,
          "midi": 46,
          "name": "A#2",
          "ticks": 40032,
          "time": 104.25,
          "velocity": 0.5905511811023622
        },
        {
          "duration": 0.018229166666671404,
          "durationTicks": 7,
          "midi": 46,
          "name": "A#2",
          "ticks": 40224,
          "time": 104.75,
          "velocity": 0.5905511811023622
        },
        {
          "duration": 0.018229166666671404,
          "durationTicks": 7,
          "midi": 46,
          "name": "A#2",
          "ticks": 40320,
          "time": 105,
          "velocity": 0.5905511811023622
        },
        {
          "duration": 0.018229166666671404,
          "durationTicks": 7,
          "midi": 46,
          "name": "A#2",
          "ticks": 40416,
          "time": 105.25,
          "velocity": 0.5905511811023622
        },
        {
          "duration": 0.018229166666671404,
          "durationTicks": 7,
          "midi": 46,
          "name": "A#2",
          "ticks": 40608,
          "time": 105.75,
          "velocity": 0.5905511811023622
        },
        {
          "duration": 0.018229166666671404,
          "durationTicks": 7,
          "midi": 46,
          "name": "A#2",
          "ticks": 40704,
          "time": 106,
          "velocity": 0.5905511811023622
        },
        {
          "duration": 0.018229166666671404,
          "durationTicks": 7,
          "midi": 46,
          "name": "A#2",
          "ticks": 40800,
          "time": 106.25,
          "velocity": 0.5905511811023622
        },
        {
          "duration": 0.018229166666671404,
          "durationTicks": 7,
          "midi": 46,
          "name": "A#2",
          "ticks": 40992,
          "time": 106.75,
          "velocity": 0.5905511811023622
        },
        {
          "duration": 0.018229166666671404,
          "durationTicks": 7,
          "midi": 46,
          "name": "A#2",
          "ticks": 41088,
          "time": 107,
          "velocity": 0.5905511811023622
        },
        {
          "duration": 0.018229166666671404,
          "durationTicks": 7,
          "midi": 46,
          "name": "A#2",
          "ticks": 41184,
          "time": 107.25,
          "velocity": 0.5905511811023622
        },
        {
          "duration": 0.018229166666671404,
          "durationTicks": 7,
          "midi": 46,
          "name": "A#2",
          "ticks": 41376,
          "time": 107.75,
          "velocity": 0.5905511811023622
        },
        {
          "duration": 0.018229166666671404,
          "durationTicks": 7,
          "midi": 46,
          "name": "A#2",
          "ticks": 43056,
          "time": 112.125,
          "velocity": 0.5905511811023622
        },
        {
          "duration": 0.018229166666671404,
          "durationTicks": 7,
          "midi": 46,
          "name": "A#2",
          "ticks": 43200,
          "time": 112.5,
          "velocity": 0.5905511811023622
        },
        {
          "duration": 0.018229166666671404,
          "durationTicks": 7,
          "midi": 46,
          "name": "A#2",
          "ticks": 43248,
          "time": 112.625,
          "velocity": 0.5905511811023622
        },
        {
          "duration": 0.018229166666671404,
          "durationTicks": 7,
          "midi": 46,
          "name": "A#2",
          "ticks": 43392,
          "time": 113,
          "velocity": 0.5905511811023622
        },
        {
          "duration": 0.018229166666671404,
          "durationTicks": 7,
          "midi": 46,
          "name": "A#2",
          "ticks": 43440,
          "time": 113.125,
          "velocity": 0.5905511811023622
        },
        {
          "duration": 0.018229166666671404,
          "durationTicks": 7,
          "midi": 46,
          "name": "A#2",
          "ticks": 43584,
          "time": 113.5,
          "velocity": 0.5905511811023622
        },
        {
          "duration": 0.018229166666671404,
          "durationTicks": 7,
          "midi": 46,
          "name": "A#2",
          "ticks": 43632,
          "time": 113.625,
          "velocity": 0.5905511811023622
        },
        {
          "duration": 0.018229166666671404,
          "durationTicks": 7,
          "midi": 46,
          "name": "A#2",
          "ticks": 43776,
          "time": 114,
          "velocity": 0.5905511811023622
        },
        {
          "duration": 0.018229166666671404,
          "durationTicks": 7,
          "midi": 46,
          "name": "A#2",
          "ticks": 43824,
          "time": 114.125,
          "velocity": 0.5905511811023622
        },
        {
          "duration": 0.018229166666671404,
          "durationTicks": 7,
          "midi": 46,
          "name": "A#2",
          "ticks": 43968,
          "time": 114.5,
          "velocity": 0.5905511811023622
        },
        {
          "duration": 0.018229166666671404,
          "durationTicks": 7,
          "midi": 46,
          "name": "A#2",
          "ticks": 44016,
          "time": 114.625,
          "velocity": 0.5905511811023622
        },
        {
          "duration": 0.018229166666671404,
          "durationTicks": 7,
          "midi": 46,
          "name": "A#2",
          "ticks": 44160,
          "time": 115,
          "velocity": 0.5905511811023622
        },
        {
          "duration": 0.018229166666671404,
          "durationTicks": 7,
          "midi": 46,
          "name": "A#2",
          "ticks": 44208,
          "time": 115.125,
          "velocity": 0.5905511811023622
        },
        {
          "duration": 0.018229166666671404,
          "durationTicks": 7,
          "midi": 46,
          "name": "A#2",
          "ticks": 44352,
          "time": 115.5,
          "velocity": 0.5905511811023622
        },
        {
          "duration": 0.018229166666671404,
          "durationTicks": 7,
          "midi": 46,
          "name": "A#2",
          "ticks": 44400,
          "time": 115.625,
          "velocity": 0.5905511811023622
        },
        {
          "duration": 0.018229166666671404,
          "durationTicks": 7,
          "midi": 46,
          "name": "A#2",
          "ticks": 44544,
          "time": 116,
          "velocity": 0.5905511811023622
        },
        {
          "duration": 0.018229166666671404,
          "durationTicks": 7,
          "midi": 46,
          "name": "A#2",
          "ticks": 44592,
          "time": 116.125,
          "velocity": 0.5905511811023622
        },
        {
          "duration": 0.018229166666671404,
          "durationTicks": 7,
          "midi": 46,
          "name": "A#2",
          "ticks": 44736,
          "time": 116.5,
          "velocity": 0.5905511811023622
        },
        {
          "duration": 0.018229166666671404,
          "durationTicks": 7,
          "midi": 46,
          "name": "A#2",
          "ticks": 44784,
          "time": 116.625,
          "velocity": 0.5905511811023622
        },
        {
          "duration": 0.018229166666671404,
          "durationTicks": 7,
          "midi": 46,
          "name": "A#2",
          "ticks": 44928,
          "time": 117,
          "velocity": 0.5905511811023622
        },
        {
          "duration": 0.018229166666671404,
          "durationTicks": 7,
          "midi": 46,
          "name": "A#2",
          "ticks": 44976,
          "time": 117.125,
          "velocity": 0.5905511811023622
        },
        {
          "duration": 0.018229166666671404,
          "durationTicks": 7,
          "midi": 46,
          "name": "A#2",
          "ticks": 45120,
          "time": 117.5,
          "velocity": 0.5905511811023622
        },
        {
          "duration": 0.018229166666671404,
          "durationTicks": 7,
          "midi": 46,
          "name": "A#2",
          "ticks": 45168,
          "time": 117.625,
          "velocity": 0.5905511811023622
        },
        {
          "duration": 0.018229166666671404,
          "durationTicks": 7,
          "midi": 46,
          "name": "A#2",
          "ticks": 45312,
          "time": 118,
          "velocity": 0.5905511811023622
        },
        {
          "duration": 0.018229166666671404,
          "durationTicks": 7,
          "midi": 46,
          "name": "A#2",
          "ticks": 45360,
          "time": 118.125,
          "velocity": 0.5905511811023622
        },
        {
          "duration": 0.018229166666671404,
          "durationTicks": 7,
          "midi": 46,
          "name": "A#2",
          "ticks": 45504,
          "time": 118.5,
          "velocity": 0.5905511811023622
        },
        {
          "duration": 0.018229166666671404,
          "durationTicks": 7,
          "midi": 46,
          "name": "A#2",
          "ticks": 45552,
          "time": 118.625,
          "velocity": 0.5905511811023622
        },
        {
          "duration": 0.018229166666671404,
          "durationTicks": 7,
          "midi": 46,
          "name": "A#2",
          "ticks": 45696,
          "time": 119,
          "velocity": 0.5905511811023622
        },
        {
          "duration": 0.018229166666671404,
          "durationTicks": 7,
          "midi": 46,
          "name": "A#2",
          "ticks": 45744,
          "time": 119.125,
          "velocity": 0.5905511811023622
        },
        {
          "duration": 0.018229166666671404,
          "durationTicks": 7,
          "midi": 46,
          "name": "A#2",
          "ticks": 45888,
          "time": 119.5,
          "velocity": 0.5905511811023622
        },
        {
          "duration": 0.018229166666671404,
          "durationTicks": 7,
          "midi": 46,
          "name": "A#2",
          "ticks": 45936,
          "time": 119.625,
          "velocity": 0.5905511811023622
        },
        {
          "duration": 0.018229166666671404,
          "durationTicks": 7,
          "midi": 46,
          "name": "A#2",
          "ticks": 46128,
          "time": 120.125,
          "velocity": 0.5905511811023622
        },
        {
          "duration": 0.018229166666671404,
          "durationTicks": 7,
          "midi": 46,
          "name": "A#2",
          "ticks": 46272,
          "time": 120.5,
          "velocity": 0.5905511811023622
        },
        {
          "duration": 0.018229166666671404,
          "durationTicks": 7,
          "midi": 46,
          "name": "A#2",
          "ticks": 46320,
          "time": 120.625,
          "velocity": 0.5905511811023622
        },
        {
          "duration": 0.018229166666671404,
          "durationTicks": 7,
          "midi": 46,
          "name": "A#2",
          "ticks": 46464,
          "time": 121,
          "velocity": 0.5905511811023622
        },
        {
          "duration": 0.018229166666671404,
          "durationTicks": 7,
          "midi": 46,
          "name": "A#2",
          "ticks": 46512,
          "time": 121.125,
          "velocity": 0.5905511811023622
        },
        {
          "duration": 0.018229166666671404,
          "durationTicks": 7,
          "midi": 46,
          "name": "A#2",
          "ticks": 46656,
          "time": 121.5,
          "velocity": 0.5905511811023622
        },
        {
          "duration": 0.018229166666671404,
          "durationTicks": 7,
          "midi": 46,
          "name": "A#2",
          "ticks": 46704,
          "time": 121.625,
          "velocity": 0.5905511811023622
        },
        {
          "duration": 0.018229166666671404,
          "durationTicks": 7,
          "midi": 46,
          "name": "A#2",
          "ticks": 46848,
          "time": 122,
          "velocity": 0.5905511811023622
        },
        {
          "duration": 0.018229166666671404,
          "durationTicks": 7,
          "midi": 46,
          "name": "A#2",
          "ticks": 46896,
          "time": 122.125,
          "velocity": 0.5905511811023622
        },
        {
          "duration": 0.018229166666671404,
          "durationTicks": 7,
          "midi": 46,
          "name": "A#2",
          "ticks": 47040,
          "time": 122.5,
          "velocity": 0.5905511811023622
        },
        {
          "duration": 0.018229166666671404,
          "durationTicks": 7,
          "midi": 46,
          "name": "A#2",
          "ticks": 47088,
          "time": 122.625,
          "velocity": 0.5905511811023622
        },
        {
          "duration": 0.018229166666671404,
          "durationTicks": 7,
          "midi": 46,
          "name": "A#2",
          "ticks": 47232,
          "time": 123,
          "velocity": 0.5905511811023622
        },
        {
          "duration": 0.018229166666671404,
          "durationTicks": 7,
          "midi": 46,
          "name": "A#2",
          "ticks": 47280,
          "time": 123.125,
          "velocity": 0.5905511811023622
        },
        {
          "duration": 0.018229166666671404,
          "durationTicks": 7,
          "midi": 46,
          "name": "A#2",
          "ticks": 47424,
          "time": 123.5,
          "velocity": 0.5905511811023622
        },
        {
          "duration": 0.018229166666671404,
          "durationTicks": 7,
          "midi": 46,
          "name": "A#2",
          "ticks": 47472,
          "time": 123.625,
          "velocity": 0.5905511811023622
        },
        {
          "duration": 0.018229166666671404,
          "durationTicks": 7,
          "midi": 46,
          "name": "A#2",
          "ticks": 47616,
          "time": 124,
          "velocity": 0.5905511811023622
        },
        {
          "duration": 0.018229166666671404,
          "durationTicks": 7,
          "midi": 46,
          "name": "A#2",
          "ticks": 47664,
          "time": 124.125,
          "velocity": 0.5905511811023622
        },
        {
          "duration": 0.018229166666671404,
          "durationTicks": 7,
          "midi": 46,
          "name": "A#2",
          "ticks": 47808,
          "time": 124.5,
          "velocity": 0.5905511811023622
        },
        {
          "duration": 0.018229166666671404,
          "durationTicks": 7,
          "midi": 46,
          "name": "A#2",
          "ticks": 47856,
          "time": 124.625,
          "velocity": 0.5905511811023622
        },
        {
          "duration": 0.018229166666671404,
          "durationTicks": 7,
          "midi": 46,
          "name": "A#2",
          "ticks": 48000,
          "time": 125,
          "velocity": 0.5905511811023622
        },
        {
          "duration": 0.018229166666671404,
          "durationTicks": 7,
          "midi": 46,
          "name": "A#2",
          "ticks": 48048,
          "time": 125.125,
          "velocity": 0.5905511811023622
        },
        {
          "duration": 0.018229166666671404,
          "durationTicks": 7,
          "midi": 46,
          "name": "A#2",
          "ticks": 48192,
          "time": 125.5,
          "velocity": 0.5905511811023622
        },
        {
          "duration": 0.018229166666671404,
          "durationTicks": 7,
          "midi": 46,
          "name": "A#2",
          "ticks": 48240,
          "time": 125.625,
          "velocity": 0.5905511811023622
        },
        {
          "duration": 0.018229166666671404,
          "durationTicks": 7,
          "midi": 46,
          "name": "A#2",
          "ticks": 48384,
          "time": 126,
          "velocity": 0.5905511811023622
        },
        {
          "duration": 0.018229166666671404,
          "durationTicks": 7,
          "midi": 46,
          "name": "A#2",
          "ticks": 48432,
          "time": 126.125,
          "velocity": 0.5905511811023622
        },
        {
          "duration": 0.018229166666671404,
          "durationTicks": 7,
          "midi": 46,
          "name": "A#2",
          "ticks": 48576,
          "time": 126.5,
          "velocity": 0.5905511811023622
        },
        {
          "duration": 0.018229166666671404,
          "durationTicks": 7,
          "midi": 46,
          "name": "A#2",
          "ticks": 48624,
          "time": 126.625,
          "velocity": 0.5905511811023622
        },
        {
          "duration": 0.018229166666671404,
          "durationTicks": 7,
          "midi": 46,
          "name": "A#2",
          "ticks": 48768,
          "time": 127,
          "velocity": 0.5905511811023622
        },
        {
          "duration": 0.018229166666671404,
          "durationTicks": 7,
          "midi": 46,
          "name": "A#2",
          "ticks": 48816,
          "time": 127.125,
          "velocity": 0.5905511811023622
        },
        {
          "duration": 0.018229166666671404,
          "durationTicks": 7,
          "midi": 46,
          "name": "A#2",
          "ticks": 48960,
          "time": 127.5,
          "velocity": 0.5905511811023622
        },
        {
          "duration": 0.018229166666671404,
          "durationTicks": 7,
          "midi": 46,
          "name": "A#2",
          "ticks": 49008,
          "time": 127.625,
          "velocity": 0.5905511811023622
        },
        {
          "duration": 0.018229166666657193,
          "durationTicks": 7,
          "midi": 46,
          "name": "A#2",
          "ticks": 49200,
          "time": 128.125,
          "velocity": 0.5905511811023622
        },
        {
          "duration": 0.018229166666657193,
          "durationTicks": 7,
          "midi": 46,
          "name": "A#2",
          "ticks": 49344,
          "time": 128.5,
          "velocity": 0.5905511811023622
        },
        {
          "duration": 0.018229166666657193,
          "durationTicks": 7,
          "midi": 46,
          "name": "A#2",
          "ticks": 49392,
          "time": 128.625,
          "velocity": 0.5905511811023622
        },
        {
          "duration": 0.018229166666657193,
          "durationTicks": 7,
          "midi": 46,
          "name": "A#2",
          "ticks": 49536,
          "time": 129,
          "velocity": 0.5905511811023622
        },
        {
          "duration": 0.018229166666657193,
          "durationTicks": 7,
          "midi": 46,
          "name": "A#2",
          "ticks": 49584,
          "time": 129.125,
          "velocity": 0.5905511811023622
        },
        {
          "duration": 0.018229166666657193,
          "durationTicks": 7,
          "midi": 46,
          "name": "A#2",
          "ticks": 49728,
          "time": 129.5,
          "velocity": 0.5905511811023622
        },
        {
          "duration": 0.018229166666657193,
          "durationTicks": 7,
          "midi": 46,
          "name": "A#2",
          "ticks": 49776,
          "time": 129.625,
          "velocity": 0.5905511811023622
        },
        {
          "duration": 0.018229166666657193,
          "durationTicks": 7,
          "midi": 46,
          "name": "A#2",
          "ticks": 49920,
          "time": 130,
          "velocity": 0.5905511811023622
        },
        {
          "duration": 0.018229166666657193,
          "durationTicks": 7,
          "midi": 46,
          "name": "A#2",
          "ticks": 49968,
          "time": 130.125,
          "velocity": 0.5905511811023622
        },
        {
          "duration": 0.018229166666657193,
          "durationTicks": 7,
          "midi": 46,
          "name": "A#2",
          "ticks": 50112,
          "time": 130.5,
          "velocity": 0.5905511811023622
        },
        {
          "duration": 0.018229166666657193,
          "durationTicks": 7,
          "midi": 46,
          "name": "A#2",
          "ticks": 50160,
          "time": 130.625,
          "velocity": 0.5905511811023622
        },
        {
          "duration": 0.018229166666657193,
          "durationTicks": 7,
          "midi": 46,
          "name": "A#2",
          "ticks": 50304,
          "time": 131,
          "velocity": 0.5905511811023622
        },
        {
          "duration": 0.018229166666657193,
          "durationTicks": 7,
          "midi": 46,
          "name": "A#2",
          "ticks": 50352,
          "time": 131.125,
          "velocity": 0.5905511811023622
        },
        {
          "duration": 0.018229166666657193,
          "durationTicks": 7,
          "midi": 46,
          "name": "A#2",
          "ticks": 50496,
          "time": 131.5,
          "velocity": 0.5905511811023622
        },
        {
          "duration": 0.018229166666657193,
          "durationTicks": 7,
          "midi": 46,
          "name": "A#2",
          "ticks": 50544,
          "time": 131.625,
          "velocity": 0.5905511811023622
        },
        {
          "duration": 0.018229166666657193,
          "durationTicks": 7,
          "midi": 46,
          "name": "A#2",
          "ticks": 50688,
          "time": 132,
          "velocity": 0.5905511811023622
        },
        {
          "duration": 0.018229166666657193,
          "durationTicks": 7,
          "midi": 46,
          "name": "A#2",
          "ticks": 50736,
          "time": 132.125,
          "velocity": 0.5905511811023622
        },
        {
          "duration": 0.018229166666657193,
          "durationTicks": 7,
          "midi": 46,
          "name": "A#2",
          "ticks": 50880,
          "time": 132.5,
          "velocity": 0.5905511811023622
        },
        {
          "duration": 0.018229166666657193,
          "durationTicks": 7,
          "midi": 46,
          "name": "A#2",
          "ticks": 50928,
          "time": 132.625,
          "velocity": 0.5905511811023622
        },
        {
          "duration": 0.018229166666657193,
          "durationTicks": 7,
          "midi": 46,
          "name": "A#2",
          "ticks": 51072,
          "time": 133,
          "velocity": 0.5905511811023622
        },
        {
          "duration": 0.018229166666657193,
          "durationTicks": 7,
          "midi": 46,
          "name": "A#2",
          "ticks": 51120,
          "time": 133.125,
          "velocity": 0.5905511811023622
        },
        {
          "duration": 0.018229166666657193,
          "durationTicks": 7,
          "midi": 46,
          "name": "A#2",
          "ticks": 51264,
          "time": 133.5,
          "velocity": 0.5905511811023622
        },
        {
          "duration": 0.018229166666657193,
          "durationTicks": 7,
          "midi": 46,
          "name": "A#2",
          "ticks": 51312,
          "time": 133.625,
          "velocity": 0.5905511811023622
        },
        {
          "duration": 0.018229166666657193,
          "durationTicks": 7,
          "midi": 46,
          "name": "A#2",
          "ticks": 51456,
          "time": 134,
          "velocity": 0.5905511811023622
        },
        {
          "duration": 0.018229166666657193,
          "durationTicks": 7,
          "midi": 46,
          "name": "A#2",
          "ticks": 51504,
          "time": 134.125,
          "velocity": 0.5905511811023622
        },
        {
          "duration": 0.018229166666657193,
          "durationTicks": 7,
          "midi": 46,
          "name": "A#2",
          "ticks": 51648,
          "time": 134.5,
          "velocity": 0.5905511811023622
        },
        {
          "duration": 0.018229166666657193,
          "durationTicks": 7,
          "midi": 46,
          "name": "A#2",
          "ticks": 51696,
          "time": 134.625,
          "velocity": 0.5905511811023622
        },
        {
          "duration": 0.018229166666657193,
          "durationTicks": 7,
          "midi": 46,
          "name": "A#2",
          "ticks": 51840,
          "time": 135,
          "velocity": 0.5905511811023622
        },
        {
          "duration": 0.018229166666657193,
          "durationTicks": 7,
          "midi": 46,
          "name": "A#2",
          "ticks": 51888,
          "time": 135.125,
          "velocity": 0.5905511811023622
        },
        {
          "duration": 0.018229166666657193,
          "durationTicks": 7,
          "midi": 46,
          "name": "A#2",
          "ticks": 52032,
          "time": 135.5,
          "velocity": 0.5905511811023622
        },
        {
          "duration": 0.018229166666657193,
          "durationTicks": 7,
          "midi": 46,
          "name": "A#2",
          "ticks": 52080,
          "time": 135.625,
          "velocity": 0.5905511811023622
        },
        {
          "duration": 0.018229166666657193,
          "durationTicks": 7,
          "midi": 46,
          "name": "A#2",
          "ticks": 52272,
          "time": 136.125,
          "velocity": 0.5905511811023622
        },
        {
          "duration": 0.018229166666657193,
          "durationTicks": 7,
          "midi": 46,
          "name": "A#2",
          "ticks": 52416,
          "time": 136.5,
          "velocity": 0.5905511811023622
        },
        {
          "duration": 0.018229166666657193,
          "durationTicks": 7,
          "midi": 46,
          "name": "A#2",
          "ticks": 52464,
          "time": 136.625,
          "velocity": 0.5905511811023622
        },
        {
          "duration": 0.018229166666657193,
          "durationTicks": 7,
          "midi": 46,
          "name": "A#2",
          "ticks": 52608,
          "time": 137,
          "velocity": 0.5905511811023622
        },
        {
          "duration": 0.018229166666657193,
          "durationTicks": 7,
          "midi": 46,
          "name": "A#2",
          "ticks": 52656,
          "time": 137.125,
          "velocity": 0.5905511811023622
        },
        {
          "duration": 0.018229166666657193,
          "durationTicks": 7,
          "midi": 46,
          "name": "A#2",
          "ticks": 52800,
          "time": 137.5,
          "velocity": 0.5905511811023622
        },
        {
          "duration": 0.018229166666657193,
          "durationTicks": 7,
          "midi": 46,
          "name": "A#2",
          "ticks": 52848,
          "time": 137.625,
          "velocity": 0.5905511811023622
        },
        {
          "duration": 0.018229166666657193,
          "durationTicks": 7,
          "midi": 46,
          "name": "A#2",
          "ticks": 52992,
          "time": 138,
          "velocity": 0.5905511811023622
        },
        {
          "duration": 0.018229166666657193,
          "durationTicks": 7,
          "midi": 46,
          "name": "A#2",
          "ticks": 53040,
          "time": 138.125,
          "velocity": 0.5905511811023622
        },
        {
          "duration": 0.018229166666657193,
          "durationTicks": 7,
          "midi": 46,
          "name": "A#2",
          "ticks": 53184,
          "time": 138.5,
          "velocity": 0.5905511811023622
        },
        {
          "duration": 0.018229166666657193,
          "durationTicks": 7,
          "midi": 46,
          "name": "A#2",
          "ticks": 53232,
          "time": 138.625,
          "velocity": 0.5905511811023622
        },
        {
          "duration": 0.018229166666657193,
          "durationTicks": 7,
          "midi": 46,
          "name": "A#2",
          "ticks": 53376,
          "time": 139,
          "velocity": 0.5905511811023622
        },
        {
          "duration": 0.018229166666657193,
          "durationTicks": 7,
          "midi": 46,
          "name": "A#2",
          "ticks": 53424,
          "time": 139.125,
          "velocity": 0.5905511811023622
        },
        {
          "duration": 0.018229166666657193,
          "durationTicks": 7,
          "midi": 46,
          "name": "A#2",
          "ticks": 53568,
          "time": 139.5,
          "velocity": 0.5905511811023622
        },
        {
          "duration": 0.018229166666657193,
          "durationTicks": 7,
          "midi": 46,
          "name": "A#2",
          "ticks": 53616,
          "time": 139.625,
          "velocity": 0.5905511811023622
        },
        {
          "duration": 0.018229166666657193,
          "durationTicks": 7,
          "midi": 46,
          "name": "A#2",
          "ticks": 53760,
          "time": 140,
          "velocity": 0.5905511811023622
        },
        {
          "duration": 0.018229166666657193,
          "durationTicks": 7,
          "midi": 46,
          "name": "A#2",
          "ticks": 53808,
          "time": 140.125,
          "velocity": 0.5905511811023622
        },
        {
          "duration": 0.018229166666657193,
          "durationTicks": 7,
          "midi": 46,
          "name": "A#2",
          "ticks": 53952,
          "time": 140.5,
          "velocity": 0.5905511811023622
        },
        {
          "duration": 0.018229166666657193,
          "durationTicks": 7,
          "midi": 46,
          "name": "A#2",
          "ticks": 54000,
          "time": 140.625,
          "velocity": 0.5905511811023622
        },
        {
          "duration": 0.018229166666657193,
          "durationTicks": 7,
          "midi": 46,
          "name": "A#2",
          "ticks": 54144,
          "time": 141,
          "velocity": 0.5905511811023622
        },
        {
          "duration": 0.018229166666657193,
          "durationTicks": 7,
          "midi": 46,
          "name": "A#2",
          "ticks": 54192,
          "time": 141.125,
          "velocity": 0.5905511811023622
        },
        {
          "duration": 0.018229166666657193,
          "durationTicks": 7,
          "midi": 46,
          "name": "A#2",
          "ticks": 54336,
          "time": 141.5,
          "velocity": 0.5905511811023622
        },
        {
          "duration": 0.018229166666657193,
          "durationTicks": 7,
          "midi": 46,
          "name": "A#2",
          "ticks": 54384,
          "time": 141.625,
          "velocity": 0.5905511811023622
        },
        {
          "duration": 0.018229166666657193,
          "durationTicks": 7,
          "midi": 46,
          "name": "A#2",
          "ticks": 54528,
          "time": 142,
          "velocity": 0.5905511811023622
        },
        {
          "duration": 0.018229166666657193,
          "durationTicks": 7,
          "midi": 46,
          "name": "A#2",
          "ticks": 54576,
          "time": 142.125,
          "velocity": 0.5905511811023622
        },
        {
          "duration": 0.018229166666657193,
          "durationTicks": 7,
          "midi": 46,
          "name": "A#2",
          "ticks": 54720,
          "time": 142.5,
          "velocity": 0.5905511811023622
        },
        {
          "duration": 0.018229166666657193,
          "durationTicks": 7,
          "midi": 46,
          "name": "A#2",
          "ticks": 54768,
          "time": 142.625,
          "velocity": 0.5905511811023622
        },
        {
          "duration": 0.018229166666657193,
          "durationTicks": 7,
          "midi": 46,
          "name": "A#2",
          "ticks": 54912,
          "time": 143,
          "velocity": 0.5905511811023622
        },
        {
          "duration": 0.018229166666657193,
          "durationTicks": 7,
          "midi": 46,
          "name": "A#2",
          "ticks": 54960,
          "time": 143.125,
          "velocity": 0.5905511811023622
        },
        {
          "duration": 0.018229166666657193,
          "durationTicks": 7,
          "midi": 46,
          "name": "A#2",
          "ticks": 55104,
          "time": 143.5,
          "velocity": 0.5905511811023622
        },
        {
          "duration": 0.018229166666657193,
          "durationTicks": 7,
          "midi": 46,
          "name": "A#2",
          "ticks": 55152,
          "time": 143.625,
          "velocity": 0.5905511811023622
        }
      ]
    },
    {
      "channel": 0,
      "controlChanges": {
        "0": [
          {
            "number": 0,
            "ticks": 0,
            "time": 0,
            "value": 0
          }
        ],
        "32": [
          {
            "number": 32,
            "ticks": 0,
            "time": 0,
            "value": 0
          }
        ]
      },
      "pitchBends": [],
      "instrument": {
        "family": "piano",
        "number": 0,
        "name": "acoustic grand piano"
      },
      "name": "Staff-2",
      "notes": [],
      "endOfTrackTicks": 55207
    },
    {
      "channel": 9,
      "controlChanges": {
        "7": [
          {
            "number": 7,
            "ticks": 0,
            "time": 0,
            "value": 1
          },
          {
            "number": 7,
            "ticks": 0,
            "time": 0,
            "value": 1
          }
        ],
        "10": [
          {
            "number": 10,
            "ticks": 0,
            "time": 0,
            "value": 0.5039370078740157
          }
        ]
      },
      "pitchBends": [],
      "instrument": {
        "family": "drums",
        "number": 16,
        "name": "power kit"
      },
      "name": "",
      "notes": [
        {
          "duration": 0.01822916666666785,
          "durationTicks": 7,
          "midi": 36,
          "name": "C2",
          "ticks": 6144,
          "time": 16,
          "velocity": 0.8661417322834646
        },
        {
          "duration": 0.01822916666666785,
          "durationTicks": 7,
          "midi": 35,
          "name": "B1",
          "ticks": 6144,
          "time": 16,
          "velocity": 0.5511811023622047
        },
        {
          "duration": 0.01822916666666785,
          "durationTicks": 7,
          "midi": 40,
          "name": "E2",
          "ticks": 6240,
          "time": 16.25,
          "velocity": 0.5511811023622047
        },
        {
          "duration": 0.01822916666666785,
          "durationTicks": 7,
          "midi": 38,
          "name": "D2",
          "ticks": 6240,
          "time": 16.25,
          "velocity": 0.8661417322834646
        },
        {
          "duration": 0.01822916666666785,
          "durationTicks": 7,
          "midi": 36,
          "name": "C2",
          "ticks": 6336,
          "time": 16.5,
          "velocity": 0.8661417322834646
        },
        {
          "duration": 0.01822916666666785,
          "durationTicks": 7,
          "midi": 35,
          "name": "B1",
          "ticks": 6336,
          "time": 16.5,
          "velocity": 0.5511811023622047
        },
        {
          "duration": 0.01822916666666785,
          "durationTicks": 7,
          "midi": 36,
          "name": "C2",
          "ticks": 6384,
          "time": 16.625,
          "velocity": 0.8661417322834646
        },
        {
          "duration": 0.01822916666666785,
          "durationTicks": 7,
          "midi": 35,
          "name": "B1",
          "ticks": 6384,
          "time": 16.625,
          "velocity": 0.5511811023622047
        },
        {
          "duration": 0.01822916666666785,
          "durationTicks": 7,
          "midi": 40,
          "name": "E2",
          "ticks": 6432,
          "time": 16.75,
          "velocity": 0.5511811023622047
        },
        {
          "duration": 0.01822916666666785,
          "durationTicks": 7,
          "midi": 38,
          "name": "D2",
          "ticks": 6432,
          "time": 16.75,
          "velocity": 0.8661417322834646
        },
        {
          "duration": 0.01822916666666785,
          "durationTicks": 7,
          "midi": 36,
          "name": "C2",
          "ticks": 6480,
          "time": 16.875,
          "velocity": 0.8661417322834646
        },
        {
          "duration": 0.01822916666666785,
          "durationTicks": 7,
          "midi": 35,
          "name": "B1",
          "ticks": 6480,
          "time": 16.875,
          "velocity": 0.5511811023622047
        },
        {
          "duration": 0.01822916666666785,
          "durationTicks": 7,
          "midi": 36,
          "name": "C2",
          "ticks": 6576,
          "time": 17.125,
          "velocity": 0.8661417322834646
        },
        {
          "duration": 0.01822916666666785,
          "durationTicks": 7,
          "midi": 35,
          "name": "B1",
          "ticks": 6576,
          "time": 17.125,
          "velocity": 0.5511811023622047
        },
        {
          "duration": 0.01822916666666785,
          "durationTicks": 7,
          "midi": 40,
          "name": "E2",
          "ticks": 6624,
          "time": 17.25,
          "velocity": 0.5511811023622047
        },
        {
          "duration": 0.01822916666666785,
          "durationTicks": 7,
          "midi": 38,
          "name": "D2",
          "ticks": 6624,
          "time": 17.25,
          "velocity": 0.8661417322834646
        },
        {
          "duration": 0.01822916666666785,
          "durationTicks": 7,
          "midi": 36,
          "name": "C2",
          "ticks": 6720,
          "time": 17.5,
          "velocity": 0.8661417322834646
        },
        {
          "duration": 0.01822916666666785,
          "durationTicks": 7,
          "midi": 35,
          "name": "B1",
          "ticks": 6720,
          "time": 17.5,
          "velocity": 0.5511811023622047
        },
        {
          "duration": 0.01822916666666785,
          "durationTicks": 7,
          "midi": 36,
          "name": "C2",
          "ticks": 6768,
          "time": 17.625,
          "velocity": 0.8661417322834646
        },
        {
          "duration": 0.01822916666666785,
          "durationTicks": 7,
          "midi": 35,
          "name": "B1",
          "ticks": 6768,
          "time": 17.625,
          "velocity": 0.5511811023622047
        },
        {
          "duration": 0.01822916666666785,
          "durationTicks": 7,
          "midi": 40,
          "name": "E2",
          "ticks": 6816,
          "time": 17.75,
          "velocity": 0.5511811023622047
        },
        {
          "duration": 0.01822916666666785,
          "durationTicks": 7,
          "midi": 38,
          "name": "D2",
          "ticks": 6816,
          "time": 17.75,
          "velocity": 0.8661417322834646
        },
        {
          "duration": 0.01822916666666785,
          "durationTicks": 7,
          "midi": 35,
          "name": "B1",
          "ticks": 6864,
          "time": 17.875,
          "velocity": 0.5511811023622047
        },
        {
          "duration": 0.01822916666666785,
          "durationTicks": 7,
          "midi": 36,
          "name": "C2",
          "ticks": 6912,
          "time": 18,
          "velocity": 0.8661417322834646
        },
        {
          "duration": 0.01822916666666785,
          "durationTicks": 7,
          "midi": 35,
          "name": "B1",
          "ticks": 6912,
          "time": 18,
          "velocity": 0.5511811023622047
        },
        {
          "duration": 0.01822916666666785,
          "durationTicks": 7,
          "midi": 40,
          "name": "E2",
          "ticks": 7008,
          "time": 18.25,
          "velocity": 0.5511811023622047
        },
        {
          "duration": 0.01822916666666785,
          "durationTicks": 7,
          "midi": 38,
          "name": "D2",
          "ticks": 7008,
          "time": 18.25,
          "velocity": 0.8661417322834646
        },
        {
          "duration": 0.01822916666666785,
          "durationTicks": 7,
          "midi": 36,
          "name": "C2",
          "ticks": 7104,
          "time": 18.5,
          "velocity": 0.8661417322834646
        },
        {
          "duration": 0.01822916666666785,
          "durationTicks": 7,
          "midi": 35,
          "name": "B1",
          "ticks": 7104,
          "time": 18.5,
          "velocity": 0.5511811023622047
        },
        {
          "duration": 0.01822916666666785,
          "durationTicks": 7,
          "midi": 36,
          "name": "C2",
          "ticks": 7152,
          "time": 18.625,
          "velocity": 0.8661417322834646
        },
        {
          "duration": 0.01822916666666785,
          "durationTicks": 7,
          "midi": 35,
          "name": "B1",
          "ticks": 7152,
          "time": 18.625,
          "velocity": 0.5511811023622047
        },
        {
          "duration": 0.01822916666666785,
          "durationTicks": 7,
          "midi": 40,
          "name": "E2",
          "ticks": 7200,
          "time": 18.75,
          "velocity": 0.5511811023622047
        },
        {
          "duration": 0.01822916666666785,
          "durationTicks": 7,
          "midi": 38,
          "name": "D2",
          "ticks": 7200,
          "time": 18.75,
          "velocity": 0.8661417322834646
        },
        {
          "duration": 0.01822916666666785,
          "durationTicks": 7,
          "midi": 36,
          "name": "C2",
          "ticks": 7248,
          "time": 18.875,
          "velocity": 0.8661417322834646
        },
        {
          "duration": 0.01822916666666785,
          "durationTicks": 7,
          "midi": 35,
          "name": "B1",
          "ticks": 7248,
          "time": 18.875,
          "velocity": 0.5511811023622047
        },
        {
          "duration": 0.01822916666666785,
          "durationTicks": 7,
          "midi": 36,
          "name": "C2",
          "ticks": 7344,
          "time": 19.125,
          "velocity": 0.8661417322834646
        },
        {
          "duration": 0.01822916666666785,
          "durationTicks": 7,
          "midi": 35,
          "name": "B1",
          "ticks": 7344,
          "time": 19.125,
          "velocity": 0.5511811023622047
        },
        {
          "duration": 0.01822916666666785,
          "durationTicks": 7,
          "midi": 40,
          "name": "E2",
          "ticks": 7392,
          "time": 19.25,
          "velocity": 0.5511811023622047
        },
        {
          "duration": 0.01822916666666785,
          "durationTicks": 7,
          "midi": 38,
          "name": "D2",
          "ticks": 7392,
          "time": 19.25,
          "velocity": 0.8661417322834646
        },
        {
          "duration": 0.01822916666666785,
          "durationTicks": 7,
          "midi": 36,
          "name": "C2",
          "ticks": 7488,
          "time": 19.5,
          "velocity": 0.8661417322834646
        },
        {
          "duration": 0.01822916666666785,
          "durationTicks": 7,
          "midi": 35,
          "name": "B1",
          "ticks": 7488,
          "time": 19.5,
          "velocity": 0.5511811023622047
        },
        {
          "duration": 0.01822916666666785,
          "durationTicks": 7,
          "midi": 36,
          "name": "C2",
          "ticks": 7536,
          "time": 19.625,
          "velocity": 0.8661417322834646
        },
        {
          "duration": 0.01822916666666785,
          "durationTicks": 7,
          "midi": 35,
          "name": "B1",
          "ticks": 7536,
          "time": 19.625,
          "velocity": 0.5511811023622047
        },
        {
          "duration": 0.01822916666666785,
          "durationTicks": 7,
          "midi": 40,
          "name": "E2",
          "ticks": 7584,
          "time": 19.75,
          "velocity": 0.5511811023622047
        },
        {
          "duration": 0.01822916666666785,
          "durationTicks": 7,
          "midi": 38,
          "name": "D2",
          "ticks": 7584,
          "time": 19.75,
          "velocity": 0.8661417322834646
        },
        {
          "duration": 0.01822916666666785,
          "durationTicks": 7,
          "midi": 35,
          "name": "B1",
          "ticks": 7632,
          "time": 19.875,
          "velocity": 0.5511811023622047
        },
        {
          "duration": 0.01822916666666785,
          "durationTicks": 7,
          "midi": 36,
          "name": "C2",
          "ticks": 7680,
          "time": 20,
          "velocity": 0.8661417322834646
        },
        {
          "duration": 0.01822916666666785,
          "durationTicks": 7,
          "midi": 35,
          "name": "B1",
          "ticks": 7680,
          "time": 20,
          "velocity": 0.5511811023622047
        },
        {
          "duration": 0.01822916666666785,
          "durationTicks": 7,
          "midi": 40,
          "name": "E2",
          "ticks": 7776,
          "time": 20.25,
          "velocity": 0.5511811023622047
        },
        {
          "duration": 0.01822916666666785,
          "durationTicks": 7,
          "midi": 38,
          "name": "D2",
          "ticks": 7776,
          "time": 20.25,
          "velocity": 0.8661417322834646
        },
        {
          "duration": 0.01822916666666785,
          "durationTicks": 7,
          "midi": 36,
          "name": "C2",
          "ticks": 7872,
          "time": 20.5,
          "velocity": 0.8661417322834646
        },
        {
          "duration": 0.01822916666666785,
          "durationTicks": 7,
          "midi": 35,
          "name": "B1",
          "ticks": 7872,
          "time": 20.5,
          "velocity": 0.5511811023622047
        },
        {
          "duration": 0.01822916666666785,
          "durationTicks": 7,
          "midi": 36,
          "name": "C2",
          "ticks": 7920,
          "time": 20.625,
          "velocity": 0.8661417322834646
        },
        {
          "duration": 0.01822916666666785,
          "durationTicks": 7,
          "midi": 35,
          "name": "B1",
          "ticks": 7920,
          "time": 20.625,
          "velocity": 0.5511811023622047
        },
        {
          "duration": 0.01822916666666785,
          "durationTicks": 7,
          "midi": 40,
          "name": "E2",
          "ticks": 7968,
          "time": 20.75,
          "velocity": 0.5511811023622047
        },
        {
          "duration": 0.01822916666666785,
          "durationTicks": 7,
          "midi": 38,
          "name": "D2",
          "ticks": 7968,
          "time": 20.75,
          "velocity": 0.8661417322834646
        },
        {
          "duration": 0.01822916666666785,
          "durationTicks": 7,
          "midi": 36,
          "name": "C2",
          "ticks": 8016,
          "time": 20.875,
          "velocity": 0.8661417322834646
        },
        {
          "duration": 0.01822916666666785,
          "durationTicks": 7,
          "midi": 35,
          "name": "B1",
          "ticks": 8016,
          "time": 20.875,
          "velocity": 0.5511811023622047
        },
        {
          "duration": 0.01822916666666785,
          "durationTicks": 7,
          "midi": 36,
          "name": "C2",
          "ticks": 8112,
          "time": 21.125,
          "velocity": 0.8661417322834646
        },
        {
          "duration": 0.01822916666666785,
          "durationTicks": 7,
          "midi": 35,
          "name": "B1",
          "ticks": 8112,
          "time": 21.125,
          "velocity": 0.5511811023622047
        },
        {
          "duration": 0.01822916666666785,
          "durationTicks": 7,
          "midi": 40,
          "name": "E2",
          "ticks": 8160,
          "time": 21.25,
          "velocity": 0.5511811023622047
        },
        {
          "duration": 0.01822916666666785,
          "durationTicks": 7,
          "midi": 38,
          "name": "D2",
          "ticks": 8160,
          "time": 21.25,
          "velocity": 0.8661417322834646
        },
        {
          "duration": 0.01822916666666785,
          "durationTicks": 7,
          "midi": 36,
          "name": "C2",
          "ticks": 8256,
          "time": 21.5,
          "velocity": 0.8661417322834646
        },
        {
          "duration": 0.01822916666666785,
          "durationTicks": 7,
          "midi": 35,
          "name": "B1",
          "ticks": 8256,
          "time": 21.5,
          "velocity": 0.5511811023622047
        },
        {
          "duration": 0.01822916666666785,
          "durationTicks": 7,
          "midi": 36,
          "name": "C2",
          "ticks": 8304,
          "time": 21.625,
          "velocity": 0.8661417322834646
        },
        {
          "duration": 0.01822916666666785,
          "durationTicks": 7,
          "midi": 35,
          "name": "B1",
          "ticks": 8304,
          "time": 21.625,
          "velocity": 0.5511811023622047
        },
        {
          "duration": 0.01822916666666785,
          "durationTicks": 7,
          "midi": 40,
          "name": "E2",
          "ticks": 8352,
          "time": 21.75,
          "velocity": 0.5511811023622047
        },
        {
          "duration": 0.01822916666666785,
          "durationTicks": 7,
          "midi": 38,
          "name": "D2",
          "ticks": 8352,
          "time": 21.75,
          "velocity": 0.8661417322834646
        },
        {
          "duration": 0.01822916666666785,
          "durationTicks": 7,
          "midi": 35,
          "name": "B1",
          "ticks": 8400,
          "time": 21.875,
          "velocity": 0.5511811023622047
        },
        {
          "duration": 0.01822916666666785,
          "durationTicks": 7,
          "midi": 36,
          "name": "C2",
          "ticks": 8448,
          "time": 22,
          "velocity": 0.8661417322834646
        },
        {
          "duration": 0.01822916666666785,
          "durationTicks": 7,
          "midi": 35,
          "name": "B1",
          "ticks": 8448,
          "time": 22,
          "velocity": 0.5511811023622047
        },
        {
          "duration": 0.01822916666666785,
          "durationTicks": 7,
          "midi": 40,
          "name": "E2",
          "ticks": 8544,
          "time": 22.25,
          "velocity": 0.5511811023622047
        },
        {
          "duration": 0.01822916666666785,
          "durationTicks": 7,
          "midi": 38,
          "name": "D2",
          "ticks": 8544,
          "time": 22.25,
          "velocity": 0.8661417322834646
        },
        {
          "duration": 0.01822916666666785,
          "durationTicks": 7,
          "midi": 36,
          "name": "C2",
          "ticks": 8640,
          "time": 22.5,
          "velocity": 0.8661417322834646
        },
        {
          "duration": 0.01822916666666785,
          "durationTicks": 7,
          "midi": 35,
          "name": "B1",
          "ticks": 8640,
          "time": 22.5,
          "velocity": 0.5511811023622047
        },
        {
          "duration": 0.01822916666666785,
          "durationTicks": 7,
          "midi": 36,
          "name": "C2",
          "ticks": 8688,
          "time": 22.625,
          "velocity": 0.8661417322834646
        },
        {
          "duration": 0.01822916666666785,
          "durationTicks": 7,
          "midi": 35,
          "name": "B1",
          "ticks": 8688,
          "time": 22.625,
          "velocity": 0.5511811023622047
        },
        {
          "duration": 0.01822916666666785,
          "durationTicks": 7,
          "midi": 40,
          "name": "E2",
          "ticks": 8736,
          "time": 22.75,
          "velocity": 0.5511811023622047
        },
        {
          "duration": 0.01822916666666785,
          "durationTicks": 7,
          "midi": 38,
          "name": "D2",
          "ticks": 8736,
          "time": 22.75,
          "velocity": 0.8661417322834646
        },
        {
          "duration": 0.01822916666666785,
          "durationTicks": 7,
          "midi": 36,
          "name": "C2",
          "ticks": 8784,
          "time": 22.875,
          "velocity": 0.8661417322834646
        },
        {
          "duration": 0.01822916666666785,
          "durationTicks": 7,
          "midi": 35,
          "name": "B1",
          "ticks": 8784,
          "time": 22.875,
          "velocity": 0.5511811023622047
        },
        {
          "duration": 0.01822916666666785,
          "durationTicks": 7,
          "midi": 40,
          "name": "E2",
          "ticks": 8832,
          "time": 23,
          "velocity": 0.5511811023622047
        },
        {
          "duration": 0.01822916666666785,
          "durationTicks": 7,
          "midi": 38,
          "name": "D2",
          "ticks": 8832,
          "time": 23,
          "velocity": 0.8661417322834646
        },
        {
          "duration": 0.01822916666666785,
          "durationTicks": 7,
          "midi": 36,
          "name": "C2",
          "ticks": 8880,
          "time": 23.125,
          "velocity": 0.8661417322834646
        },
        {
          "duration": 0.01822916666666785,
          "durationTicks": 7,
          "midi": 35,
          "name": "B1",
          "ticks": 8880,
          "time": 23.125,
          "velocity": 0.5511811023622047
        },
        {
          "duration": 0.01822916666666785,
          "durationTicks": 7,
          "midi": 36,
          "name": "C2",
          "ticks": 8928,
          "time": 23.25,
          "velocity": 0.6299212598425197
        },
        {
          "duration": 0.01822916666666785,
          "durationTicks": 7,
          "midi": 38,
          "name": "D2",
          "ticks": 8928,
          "time": 23.25,
          "velocity": 0.8661417322834646
        },
        {
          "duration": 0.01822916666666785,
          "durationTicks": 7,
          "midi": 40,
          "name": "E2",
          "ticks": 8976,
          "time": 23.375,
          "velocity": 0.5511811023622047
        },
        {
          "duration": 0.01822916666666785,
          "durationTicks": 7,
          "midi": 38,
          "name": "D2",
          "ticks": 8976,
          "time": 23.375,
          "velocity": 0.8661417322834646
        },
        {
          "duration": 0.01822916666666785,
          "durationTicks": 7,
          "midi": 36,
          "name": "C2",
          "ticks": 9024,
          "time": 23.5,
          "velocity": 0.8661417322834646
        },
        {
          "duration": 0.01822916666666785,
          "durationTicks": 7,
          "midi": 35,
          "name": "B1",
          "ticks": 9024,
          "time": 23.5,
          "velocity": 0.5511811023622047
        },
        {
          "duration": 0.01822916666666785,
          "durationTicks": 7,
          "midi": 38,
          "name": "D2",
          "ticks": 9072,
          "time": 23.625,
          "velocity": 0.8661417322834646
        },
        {
          "duration": 0.01822916666666785,
          "durationTicks": 7,
          "midi": 36,
          "name": "C2",
          "ticks": 9072,
          "time": 23.625,
          "velocity": 0.6299212598425197
        },
        {
          "duration": 0.01822916666666785,
          "durationTicks": 7,
          "midi": 40,
          "name": "E2",
          "ticks": 9120,
          "time": 23.75,
          "velocity": 0.5511811023622047
        },
        {
          "duration": 0.01822916666666785,
          "durationTicks": 7,
          "midi": 38,
          "name": "D2",
          "ticks": 9120,
          "time": 23.75,
          "velocity": 0.8661417322834646
        },
        {
          "duration": 0.02083333333333215,
          "durationTicks": 8,
          "midi": 36,
          "name": "C2",
          "ticks": 9168,
          "time": 23.875,
          "velocity": 0.6299212598425197
        },
        {
          "duration": 0.02083333333333215,
          "durationTicks": 8,
          "midi": 36,
          "name": "C2",
          "ticks": 9192,
          "time": 23.9375,
          "velocity": 0.6299212598425197
        },
        {
          "duration": 0.01822916666666785,
          "durationTicks": 7,
          "midi": 36,
          "name": "C2",
          "ticks": 9216,
          "time": 24,
          "velocity": 0.8661417322834646
        },
        {
          "duration": 0.01822916666666785,
          "durationTicks": 7,
          "midi": 35,
          "name": "B1",
          "ticks": 9216,
          "time": 24,
          "velocity": 0.5511811023622047
        },
        {
          "duration": 0.01822916666666785,
          "durationTicks": 7,
          "midi": 40,
          "name": "E2",
          "ticks": 9312,
          "time": 24.25,
          "velocity": 0.5511811023622047
        },
        {
          "duration": 0.01822916666666785,
          "durationTicks": 7,
          "midi": 38,
          "name": "D2",
          "ticks": 9312,
          "time": 24.25,
          "velocity": 0.8661417322834646
        },
        {
          "duration": 0.01822916666666785,
          "durationTicks": 7,
          "midi": 36,
          "name": "C2",
          "ticks": 9408,
          "time": 24.5,
          "velocity": 0.8661417322834646
        },
        {
          "duration": 0.01822916666666785,
          "durationTicks": 7,
          "midi": 35,
          "name": "B1",
          "ticks": 9408,
          "time": 24.5,
          "velocity": 0.5511811023622047
        },
        {
          "duration": 0.01822916666666785,
          "durationTicks": 7,
          "midi": 36,
          "name": "C2",
          "ticks": 9456,
          "time": 24.625,
          "velocity": 0.8661417322834646
        },
        {
          "duration": 0.01822916666666785,
          "durationTicks": 7,
          "midi": 35,
          "name": "B1",
          "ticks": 9456,
          "time": 24.625,
          "velocity": 0.5511811023622047
        },
        {
          "duration": 0.01822916666666785,
          "durationTicks": 7,
          "midi": 40,
          "name": "E2",
          "ticks": 9504,
          "time": 24.75,
          "velocity": 0.5511811023622047
        },
        {
          "duration": 0.01822916666666785,
          "durationTicks": 7,
          "midi": 38,
          "name": "D2",
          "ticks": 9504,
          "time": 24.75,
          "velocity": 0.8661417322834646
        },
        {
          "duration": 0.01822916666666785,
          "durationTicks": 7,
          "midi": 36,
          "name": "C2",
          "ticks": 9552,
          "time": 24.875,
          "velocity": 0.8661417322834646
        },
        {
          "duration": 0.01822916666666785,
          "durationTicks": 7,
          "midi": 35,
          "name": "B1",
          "ticks": 9552,
          "time": 24.875,
          "velocity": 0.5511811023622047
        },
        {
          "duration": 0.01822916666666785,
          "durationTicks": 7,
          "midi": 36,
          "name": "C2",
          "ticks": 9648,
          "time": 25.125,
          "velocity": 0.8661417322834646
        },
        {
          "duration": 0.01822916666666785,
          "durationTicks": 7,
          "midi": 35,
          "name": "B1",
          "ticks": 9648,
          "time": 25.125,
          "velocity": 0.5511811023622047
        },
        {
          "duration": 0.01822916666666785,
          "durationTicks": 7,
          "midi": 40,
          "name": "E2",
          "ticks": 9696,
          "time": 25.25,
          "velocity": 0.5511811023622047
        },
        {
          "duration": 0.01822916666666785,
          "durationTicks": 7,
          "midi": 38,
          "name": "D2",
          "ticks": 9696,
          "time": 25.25,
          "velocity": 0.8661417322834646
        },
        {
          "duration": 0.01822916666666785,
          "durationTicks": 7,
          "midi": 36,
          "name": "C2",
          "ticks": 9792,
          "time": 25.5,
          "velocity": 0.8661417322834646
        },
        {
          "duration": 0.01822916666666785,
          "durationTicks": 7,
          "midi": 35,
          "name": "B1",
          "ticks": 9792,
          "time": 25.5,
          "velocity": 0.5511811023622047
        },
        {
          "duration": 0.01822916666666785,
          "durationTicks": 7,
          "midi": 36,
          "name": "C2",
          "ticks": 9840,
          "time": 25.625,
          "velocity": 0.8661417322834646
        },
        {
          "duration": 0.01822916666666785,
          "durationTicks": 7,
          "midi": 35,
          "name": "B1",
          "ticks": 9840,
          "time": 25.625,
          "velocity": 0.5511811023622047
        },
        {
          "duration": 0.01822916666666785,
          "durationTicks": 7,
          "midi": 40,
          "name": "E2",
          "ticks": 9888,
          "time": 25.75,
          "velocity": 0.5511811023622047
        },
        {
          "duration": 0.01822916666666785,
          "durationTicks": 7,
          "midi": 38,
          "name": "D2",
          "ticks": 9888,
          "time": 25.75,
          "velocity": 0.8661417322834646
        },
        {
          "duration": 0.01822916666666785,
          "durationTicks": 7,
          "midi": 35,
          "name": "B1",
          "ticks": 9936,
          "time": 25.875,
          "velocity": 0.5511811023622047
        },
        {
          "duration": 0.01822916666666785,
          "durationTicks": 7,
          "midi": 36,
          "name": "C2",
          "ticks": 9984,
          "time": 26,
          "velocity": 0.8661417322834646
        },
        {
          "duration": 0.01822916666666785,
          "durationTicks": 7,
          "midi": 35,
          "name": "B1",
          "ticks": 9984,
          "time": 26,
          "velocity": 0.5511811023622047
        },
        {
          "duration": 0.01822916666666785,
          "durationTicks": 7,
          "midi": 40,
          "name": "E2",
          "ticks": 10080,
          "time": 26.25,
          "velocity": 0.5511811023622047
        },
        {
          "duration": 0.01822916666666785,
          "durationTicks": 7,
          "midi": 38,
          "name": "D2",
          "ticks": 10080,
          "time": 26.25,
          "velocity": 0.8661417322834646
        },
        {
          "duration": 0.01822916666666785,
          "durationTicks": 7,
          "midi": 36,
          "name": "C2",
          "ticks": 10176,
          "time": 26.5,
          "velocity": 0.8661417322834646
        },
        {
          "duration": 0.01822916666666785,
          "durationTicks": 7,
          "midi": 35,
          "name": "B1",
          "ticks": 10176,
          "time": 26.5,
          "velocity": 0.5511811023622047
        },
        {
          "duration": 0.01822916666666785,
          "durationTicks": 7,
          "midi": 36,
          "name": "C2",
          "ticks": 10224,
          "time": 26.625,
          "velocity": 0.8661417322834646
        },
        {
          "duration": 0.01822916666666785,
          "durationTicks": 7,
          "midi": 35,
          "name": "B1",
          "ticks": 10224,
          "time": 26.625,
          "velocity": 0.5511811023622047
        },
        {
          "duration": 0.01822916666666785,
          "durationTicks": 7,
          "midi": 40,
          "name": "E2",
          "ticks": 10272,
          "time": 26.75,
          "velocity": 0.5511811023622047
        },
        {
          "duration": 0.01822916666666785,
          "durationTicks": 7,
          "midi": 38,
          "name": "D2",
          "ticks": 10272,
          "time": 26.75,
          "velocity": 0.8661417322834646
        },
        {
          "duration": 0.01822916666666785,
          "durationTicks": 7,
          "midi": 36,
          "name": "C2",
          "ticks": 10320,
          "time": 26.875,
          "velocity": 0.8661417322834646
        },
        {
          "duration": 0.01822916666666785,
          "durationTicks": 7,
          "midi": 35,
          "name": "B1",
          "ticks": 10320,
          "time": 26.875,
          "velocity": 0.5511811023622047
        },
        {
          "duration": 0.01822916666666785,
          "durationTicks": 7,
          "midi": 36,
          "name": "C2",
          "ticks": 10416,
          "time": 27.125,
          "velocity": 0.8661417322834646
        },
        {
          "duration": 0.01822916666666785,
          "durationTicks": 7,
          "midi": 35,
          "name": "B1",
          "ticks": 10416,
          "time": 27.125,
          "velocity": 0.5511811023622047
        },
        {
          "duration": 0.01822916666666785,
          "durationTicks": 7,
          "midi": 40,
          "name": "E2",
          "ticks": 10464,
          "time": 27.25,
          "velocity": 0.5511811023622047
        },
        {
          "duration": 0.01822916666666785,
          "durationTicks": 7,
          "midi": 38,
          "name": "D2",
          "ticks": 10464,
          "time": 27.25,
          "velocity": 0.8661417322834646
        },
        {
          "duration": 0.01822916666666785,
          "durationTicks": 7,
          "midi": 36,
          "name": "C2",
          "ticks": 10560,
          "time": 27.5,
          "velocity": 0.8661417322834646
        },
        {
          "duration": 0.01822916666666785,
          "durationTicks": 7,
          "midi": 35,
          "name": "B1",
          "ticks": 10560,
          "time": 27.5,
          "velocity": 0.5511811023622047
        },
        {
          "duration": 0.01822916666666785,
          "durationTicks": 7,
          "midi": 36,
          "name": "C2",
          "ticks": 10608,
          "time": 27.625,
          "velocity": 0.8661417322834646
        },
        {
          "duration": 0.01822916666666785,
          "durationTicks": 7,
          "midi": 35,
          "name": "B1",
          "ticks": 10608,
          "time": 27.625,
          "velocity": 0.5511811023622047
        },
        {
          "duration": 0.01822916666666785,
          "durationTicks": 7,
          "midi": 40,
          "name": "E2",
          "ticks": 10656,
          "time": 27.75,
          "velocity": 0.5511811023622047
        },
        {
          "duration": 0.01822916666666785,
          "durationTicks": 7,
          "midi": 38,
          "name": "D2",
          "ticks": 10656,
          "time": 27.75,
          "velocity": 0.8661417322834646
        },
        {
          "duration": 0.01822916666666785,
          "durationTicks": 7,
          "midi": 35,
          "name": "B1",
          "ticks": 10704,
          "time": 27.875,
          "velocity": 0.5511811023622047
        },
        {
          "duration": 0.01822916666666785,
          "durationTicks": 7,
          "midi": 36,
          "name": "C2",
          "ticks": 10752,
          "time": 28,
          "velocity": 0.8661417322834646
        },
        {
          "duration": 0.01822916666666785,
          "durationTicks": 7,
          "midi": 35,
          "name": "B1",
          "ticks": 10752,
          "time": 28,
          "velocity": 0.5511811023622047
        },
        {
          "duration": 0.01822916666666785,
          "durationTicks": 7,
          "midi": 40,
          "name": "E2",
          "ticks": 10848,
          "time": 28.25,
          "velocity": 0.5511811023622047
        },
        {
          "duration": 0.01822916666666785,
          "durationTicks": 7,
          "midi": 38,
          "name": "D2",
          "ticks": 10848,
          "time": 28.25,
          "velocity": 0.8661417322834646
        },
        {
          "duration": 0.01822916666666785,
          "durationTicks": 7,
          "midi": 36,
          "name": "C2",
          "ticks": 10944,
          "time": 28.5,
          "velocity": 0.8661417322834646
        },
        {
          "duration": 0.01822916666666785,
          "durationTicks": 7,
          "midi": 35,
          "name": "B1",
          "ticks": 10944,
          "time": 28.5,
          "velocity": 0.5511811023622047
        },
        {
          "duration": 0.01822916666666785,
          "durationTicks": 7,
          "midi": 36,
          "name": "C2",
          "ticks": 10992,
          "time": 28.625,
          "velocity": 0.8661417322834646
        },
        {
          "duration": 0.01822916666666785,
          "durationTicks": 7,
          "midi": 35,
          "name": "B1",
          "ticks": 10992,
          "time": 28.625,
          "velocity": 0.5511811023622047
        },
        {
          "duration": 0.01822916666666785,
          "durationTicks": 7,
          "midi": 40,
          "name": "E2",
          "ticks": 11040,
          "time": 28.75,
          "velocity": 0.5511811023622047
        },
        {
          "duration": 0.01822916666666785,
          "durationTicks": 7,
          "midi": 38,
          "name": "D2",
          "ticks": 11040,
          "time": 28.75,
          "velocity": 0.8661417322834646
        },
        {
          "duration": 0.01822916666666785,
          "durationTicks": 7,
          "midi": 36,
          "name": "C2",
          "ticks": 11088,
          "time": 28.875,
          "velocity": 0.8661417322834646
        },
        {
          "duration": 0.01822916666666785,
          "durationTicks": 7,
          "midi": 35,
          "name": "B1",
          "ticks": 11088,
          "time": 28.875,
          "velocity": 0.5511811023622047
        },
        {
          "duration": 0.01822916666666785,
          "durationTicks": 7,
          "midi": 36,
          "name": "C2",
          "ticks": 11184,
          "time": 29.125,
          "velocity": 0.8661417322834646
        },
        {
          "duration": 0.01822916666666785,
          "durationTicks": 7,
          "midi": 35,
          "name": "B1",
          "ticks": 11184,
          "time": 29.125,
          "velocity": 0.5511811023622047
        },
        {
          "duration": 0.01822916666666785,
          "durationTicks": 7,
          "midi": 40,
          "name": "E2",
          "ticks": 11232,
          "time": 29.25,
          "velocity": 0.5511811023622047
        },
        {
          "duration": 0.01822916666666785,
          "durationTicks": 7,
          "midi": 38,
          "name": "D2",
          "ticks": 11232,
          "time": 29.25,
          "velocity": 0.8661417322834646
        },
        {
          "duration": 0.01822916666666785,
          "durationTicks": 7,
          "midi": 36,
          "name": "C2",
          "ticks": 11328,
          "time": 29.5,
          "velocity": 0.8661417322834646
        },
        {
          "duration": 0.01822916666666785,
          "durationTicks": 7,
          "midi": 35,
          "name": "B1",
          "ticks": 11328,
          "time": 29.5,
          "velocity": 0.5511811023622047
        },
        {
          "duration": 0.01822916666666785,
          "durationTicks": 7,
          "midi": 36,
          "name": "C2",
          "ticks": 11376,
          "time": 29.625,
          "velocity": 0.8661417322834646
        },
        {
          "duration": 0.01822916666666785,
          "durationTicks": 7,
          "midi": 35,
          "name": "B1",
          "ticks": 11376,
          "time": 29.625,
          "velocity": 0.5511811023622047
        },
        {
          "duration": 0.01822916666666785,
          "durationTicks": 7,
          "midi": 40,
          "name": "E2",
          "ticks": 11424,
          "time": 29.75,
          "velocity": 0.5511811023622047
        },
        {
          "duration": 0.01822916666666785,
          "durationTicks": 7,
          "midi": 38,
          "name": "D2",
          "ticks": 11424,
          "time": 29.75,
          "velocity": 0.8661417322834646
        },
        {
          "duration": 0.01822916666666785,
          "durationTicks": 7,
          "midi": 35,
          "name": "B1",
          "ticks": 11472,
          "time": 29.875,
          "velocity": 0.5511811023622047
        },
        {
          "duration": 0.01822916666666785,
          "durationTicks": 7,
          "midi": 36,
          "name": "C2",
          "ticks": 11520,
          "time": 30,
          "velocity": 0.8661417322834646
        },
        {
          "duration": 0.01822916666666785,
          "durationTicks": 7,
          "midi": 35,
          "name": "B1",
          "ticks": 11520,
          "time": 30,
          "velocity": 0.5511811023622047
        },
        {
          "duration": 0.01822916666666785,
          "durationTicks": 7,
          "midi": 40,
          "name": "E2",
          "ticks": 11616,
          "time": 30.25,
          "velocity": 0.5511811023622047
        },
        {
          "duration": 0.01822916666666785,
          "durationTicks": 7,
          "midi": 38,
          "name": "D2",
          "ticks": 11616,
          "time": 30.25,
          "velocity": 0.8661417322834646
        },
        {
          "duration": 0.01822916666666785,
          "durationTicks": 7,
          "midi": 36,
          "name": "C2",
          "ticks": 11712,
          "time": 30.5,
          "velocity": 0.8661417322834646
        },
        {
          "duration": 0.01822916666666785,
          "durationTicks": 7,
          "midi": 35,
          "name": "B1",
          "ticks": 11712,
          "time": 30.5,
          "velocity": 0.5511811023622047
        },
        {
          "duration": 0.01822916666666785,
          "durationTicks": 7,
          "midi": 36,
          "name": "C2",
          "ticks": 11760,
          "time": 30.625,
          "velocity": 0.8661417322834646
        },
        {
          "duration": 0.01822916666666785,
          "durationTicks": 7,
          "midi": 35,
          "name": "B1",
          "ticks": 11760,
          "time": 30.625,
          "velocity": 0.5511811023622047
        },
        {
          "duration": 0.01822916666666785,
          "durationTicks": 7,
          "midi": 40,
          "name": "E2",
          "ticks": 11808,
          "time": 30.75,
          "velocity": 0.5511811023622047
        },
        {
          "duration": 0.01822916666666785,
          "durationTicks": 7,
          "midi": 38,
          "name": "D2",
          "ticks": 11808,
          "time": 30.75,
          "velocity": 0.8661417322834646
        },
        {
          "duration": 0.01822916666666785,
          "durationTicks": 7,
          "midi": 36,
          "name": "C2",
          "ticks": 11856,
          "time": 30.875,
          "velocity": 0.8661417322834646
        },
        {
          "duration": 0.01822916666666785,
          "durationTicks": 7,
          "midi": 35,
          "name": "B1",
          "ticks": 11856,
          "time": 30.875,
          "velocity": 0.5511811023622047
        },
        {
          "duration": 0.01822916666666785,
          "durationTicks": 7,
          "midi": 40,
          "name": "E2",
          "ticks": 11904,
          "time": 31,
          "velocity": 0.5511811023622047
        },
        {
          "duration": 0.01822916666666785,
          "durationTicks": 7,
          "midi": 38,
          "name": "D2",
          "ticks": 11904,
          "time": 31,
          "velocity": 0.8661417322834646
        },
        {
          "duration": 0.01822916666666785,
          "durationTicks": 7,
          "midi": 36,
          "name": "C2",
          "ticks": 11952,
          "time": 31.125,
          "velocity": 0.8661417322834646
        },
        {
          "duration": 0.01822916666666785,
          "durationTicks": 7,
          "midi": 35,
          "name": "B1",
          "ticks": 11952,
          "time": 31.125,
          "velocity": 0.5511811023622047
        },
        {
          "duration": 0.01822916666666785,
          "durationTicks": 7,
          "midi": 36,
          "name": "C2",
          "ticks": 12000,
          "time": 31.25,
          "velocity": 0.6299212598425197
        },
        {
          "duration": 0.01822916666666785,
          "durationTicks": 7,
          "midi": 38,
          "name": "D2",
          "ticks": 12000,
          "time": 31.25,
          "velocity": 0.8661417322834646
        },
        {
          "duration": 0.01822916666666785,
          "durationTicks": 7,
          "midi": 40,
          "name": "E2",
          "ticks": 12048,
          "time": 31.375,
          "velocity": 0.5511811023622047
        },
        {
          "duration": 0.01822916666666785,
          "durationTicks": 7,
          "midi": 38,
          "name": "D2",
          "ticks": 12048,
          "time": 31.375,
          "velocity": 0.8661417322834646
        },
        {
          "duration": 0.01822916666666785,
          "durationTicks": 7,
          "midi": 36,
          "name": "C2",
          "ticks": 12096,
          "time": 31.5,
          "velocity": 0.8661417322834646
        },
        {
          "duration": 0.01822916666666785,
          "durationTicks": 7,
          "midi": 35,
          "name": "B1",
          "ticks": 12096,
          "time": 31.5,
          "velocity": 0.5511811023622047
        },
        {
          "duration": 0.01822916666666785,
          "durationTicks": 7,
          "midi": 38,
          "name": "D2",
          "ticks": 12144,
          "time": 31.625,
          "velocity": 0.8661417322834646
        },
        {
          "duration": 0.01822916666666785,
          "durationTicks": 7,
          "midi": 36,
          "name": "C2",
          "ticks": 12144,
          "time": 31.625,
          "velocity": 0.6299212598425197
        },
        {
          "duration": 0.01822916666666785,
          "durationTicks": 7,
          "midi": 40,
          "name": "E2",
          "ticks": 12192,
          "time": 31.75,
          "velocity": 0.5511811023622047
        },
        {
          "duration": 0.01822916666666785,
          "durationTicks": 7,
          "midi": 38,
          "name": "D2",
          "ticks": 12192,
          "time": 31.75,
          "velocity": 0.8661417322834646
        },
        {
          "duration": 0.02083333333333215,
          "durationTicks": 8,
          "midi": 36,
          "name": "C2",
          "ticks": 12240,
          "time": 31.875,
          "velocity": 0.6299212598425197
        },
        {
          "duration": 0.02083333333333215,
          "durationTicks": 8,
          "midi": 36,
          "name": "C2",
          "ticks": 12264,
          "time": 31.9375,
          "velocity": 0.6299212598425197
        },
        {
          "duration": 0.018229166666664298,
          "durationTicks": 7,
          "midi": 36,
          "name": "C2",
          "ticks": 12288,
          "time": 32,
          "velocity": 0.8661417322834646
        },
        {
          "duration": 0.018229166666664298,
          "durationTicks": 7,
          "midi": 35,
          "name": "B1",
          "ticks": 12288,
          "time": 32,
          "velocity": 0.5511811023622047
        },
        {
          "duration": 0.018229166666664298,
          "durationTicks": 7,
          "midi": 40,
          "name": "E2",
          "ticks": 12384,
          "time": 32.25,
          "velocity": 0.5511811023622047
        },
        {
          "duration": 0.018229166666664298,
          "durationTicks": 7,
          "midi": 38,
          "name": "D2",
          "ticks": 12384,
          "time": 32.25,
          "velocity": 0.8661417322834646
        },
        {
          "duration": 0.018229166666664298,
          "durationTicks": 7,
          "midi": 36,
          "name": "C2",
          "ticks": 12480,
          "time": 32.5,
          "velocity": 0.8661417322834646
        },
        {
          "duration": 0.018229166666664298,
          "durationTicks": 7,
          "midi": 35,
          "name": "B1",
          "ticks": 12480,
          "time": 32.5,
          "velocity": 0.5511811023622047
        },
        {
          "duration": 0.018229166666664298,
          "durationTicks": 7,
          "midi": 36,
          "name": "C2",
          "ticks": 12528,
          "time": 32.625,
          "velocity": 0.8661417322834646
        },
        {
          "duration": 0.018229166666664298,
          "durationTicks": 7,
          "midi": 35,
          "name": "B1",
          "ticks": 12528,
          "time": 32.625,
          "velocity": 0.5511811023622047
        },
        {
          "duration": 0.018229166666664298,
          "durationTicks": 7,
          "midi": 40,
          "name": "E2",
          "ticks": 12576,
          "time": 32.75,
          "velocity": 0.5511811023622047
        },
        {
          "duration": 0.018229166666664298,
          "durationTicks": 7,
          "midi": 38,
          "name": "D2",
          "ticks": 12576,
          "time": 32.75,
          "velocity": 0.8661417322834646
        },
        {
          "duration": 0.018229166666664298,
          "durationTicks": 7,
          "midi": 36,
          "name": "C2",
          "ticks": 12624,
          "time": 32.875,
          "velocity": 0.8661417322834646
        },
        {
          "duration": 0.018229166666664298,
          "durationTicks": 7,
          "midi": 35,
          "name": "B1",
          "ticks": 12624,
          "time": 32.875,
          "velocity": 0.5511811023622047
        },
        {
          "duration": 0.018229166666664298,
          "durationTicks": 7,
          "midi": 36,
          "name": "C2",
          "ticks": 12720,
          "time": 33.125,
          "velocity": 0.8661417322834646
        },
        {
          "duration": 0.018229166666664298,
          "durationTicks": 7,
          "midi": 35,
          "name": "B1",
          "ticks": 12720,
          "time": 33.125,
          "velocity": 0.5511811023622047
        },
        {
          "duration": 0.018229166666664298,
          "durationTicks": 7,
          "midi": 40,
          "name": "E2",
          "ticks": 12768,
          "time": 33.25,
          "velocity": 0.5511811023622047
        },
        {
          "duration": 0.018229166666664298,
          "durationTicks": 7,
          "midi": 38,
          "name": "D2",
          "ticks": 12768,
          "time": 33.25,
          "velocity": 0.8661417322834646
        },
        {
          "duration": 0.018229166666664298,
          "durationTicks": 7,
          "midi": 36,
          "name": "C2",
          "ticks": 12864,
          "time": 33.5,
          "velocity": 0.8661417322834646
        },
        {
          "duration": 0.018229166666664298,
          "durationTicks": 7,
          "midi": 35,
          "name": "B1",
          "ticks": 12864,
          "time": 33.5,
          "velocity": 0.5511811023622047
        },
        {
          "duration": 0.018229166666664298,
          "durationTicks": 7,
          "midi": 36,
          "name": "C2",
          "ticks": 12912,
          "time": 33.625,
          "velocity": 0.8661417322834646
        },
        {
          "duration": 0.018229166666664298,
          "durationTicks": 7,
          "midi": 35,
          "name": "B1",
          "ticks": 12912,
          "time": 33.625,
          "velocity": 0.5511811023622047
        },
        {
          "duration": 0.018229166666664298,
          "durationTicks": 7,
          "midi": 40,
          "name": "E2",
          "ticks": 12960,
          "time": 33.75,
          "velocity": 0.5511811023622047
        },
        {
          "duration": 0.018229166666664298,
          "durationTicks": 7,
          "midi": 38,
          "name": "D2",
          "ticks": 12960,
          "time": 33.75,
          "velocity": 0.8661417322834646
        },
        {
          "duration": 0.018229166666664298,
          "durationTicks": 7,
          "midi": 35,
          "name": "B1",
          "ticks": 13008,
          "time": 33.875,
          "velocity": 0.5511811023622047
        },
        {
          "duration": 0.018229166666664298,
          "durationTicks": 7,
          "midi": 36,
          "name": "C2",
          "ticks": 13056,
          "time": 34,
          "velocity": 0.8661417322834646
        },
        {
          "duration": 0.018229166666664298,
          "durationTicks": 7,
          "midi": 35,
          "name": "B1",
          "ticks": 13056,
          "time": 34,
          "velocity": 0.5511811023622047
        },
        {
          "duration": 0.018229166666664298,
          "durationTicks": 7,
          "midi": 40,
          "name": "E2",
          "ticks": 13152,
          "time": 34.25,
          "velocity": 0.5511811023622047
        },
        {
          "duration": 0.018229166666664298,
          "durationTicks": 7,
          "midi": 38,
          "name": "D2",
          "ticks": 13152,
          "time": 34.25,
          "velocity": 0.8661417322834646
        },
        {
          "duration": 0.018229166666664298,
          "durationTicks": 7,
          "midi": 36,
          "name": "C2",
          "ticks": 13248,
          "time": 34.5,
          "velocity": 0.8661417322834646
        },
        {
          "duration": 0.018229166666664298,
          "durationTicks": 7,
          "midi": 35,
          "name": "B1",
          "ticks": 13248,
          "time": 34.5,
          "velocity": 0.5511811023622047
        },
        {
          "duration": 0.018229166666664298,
          "durationTicks": 7,
          "midi": 36,
          "name": "C2",
          "ticks": 13296,
          "time": 34.625,
          "velocity": 0.8661417322834646
        },
        {
          "duration": 0.018229166666664298,
          "durationTicks": 7,
          "midi": 35,
          "name": "B1",
          "ticks": 13296,
          "time": 34.625,
          "velocity": 0.5511811023622047
        },
        {
          "duration": 0.018229166666664298,
          "durationTicks": 7,
          "midi": 40,
          "name": "E2",
          "ticks": 13344,
          "time": 34.75,
          "velocity": 0.5511811023622047
        },
        {
          "duration": 0.018229166666664298,
          "durationTicks": 7,
          "midi": 38,
          "name": "D2",
          "ticks": 13344,
          "time": 34.75,
          "velocity": 0.8661417322834646
        },
        {
          "duration": 0.018229166666664298,
          "durationTicks": 7,
          "midi": 36,
          "name": "C2",
          "ticks": 13392,
          "time": 34.875,
          "velocity": 0.8661417322834646
        },
        {
          "duration": 0.018229166666664298,
          "durationTicks": 7,
          "midi": 35,
          "name": "B1",
          "ticks": 13392,
          "time": 34.875,
          "velocity": 0.5511811023622047
        },
        {
          "duration": 0.018229166666664298,
          "durationTicks": 7,
          "midi": 36,
          "name": "C2",
          "ticks": 13488,
          "time": 35.125,
          "velocity": 0.8661417322834646
        },
        {
          "duration": 0.018229166666664298,
          "durationTicks": 7,
          "midi": 35,
          "name": "B1",
          "ticks": 13488,
          "time": 35.125,
          "velocity": 0.5511811023622047
        },
        {
          "duration": 0.018229166666664298,
          "durationTicks": 7,
          "midi": 40,
          "name": "E2",
          "ticks": 13536,
          "time": 35.25,
          "velocity": 0.5511811023622047
        },
        {
          "duration": 0.018229166666664298,
          "durationTicks": 7,
          "midi": 38,
          "name": "D2",
          "ticks": 13536,
          "time": 35.25,
          "velocity": 0.8661417322834646
        },
        {
          "duration": 0.018229166666664298,
          "durationTicks": 7,
          "midi": 36,
          "name": "C2",
          "ticks": 13632,
          "time": 35.5,
          "velocity": 0.8661417322834646
        },
        {
          "duration": 0.018229166666664298,
          "durationTicks": 7,
          "midi": 35,
          "name": "B1",
          "ticks": 13632,
          "time": 35.5,
          "velocity": 0.5511811023622047
        },
        {
          "duration": 0.018229166666664298,
          "durationTicks": 7,
          "midi": 36,
          "name": "C2",
          "ticks": 13680,
          "time": 35.625,
          "velocity": 0.8661417322834646
        },
        {
          "duration": 0.018229166666664298,
          "durationTicks": 7,
          "midi": 35,
          "name": "B1",
          "ticks": 13680,
          "time": 35.625,
          "velocity": 0.5511811023622047
        },
        {
          "duration": 0.018229166666664298,
          "durationTicks": 7,
          "midi": 40,
          "name": "E2",
          "ticks": 13728,
          "time": 35.75,
          "velocity": 0.5511811023622047
        },
        {
          "duration": 0.018229166666664298,
          "durationTicks": 7,
          "midi": 38,
          "name": "D2",
          "ticks": 13728,
          "time": 35.75,
          "velocity": 0.8661417322834646
        },
        {
          "duration": 0.018229166666664298,
          "durationTicks": 7,
          "midi": 35,
          "name": "B1",
          "ticks": 13776,
          "time": 35.875,
          "velocity": 0.5511811023622047
        },
        {
          "duration": 0.018229166666664298,
          "durationTicks": 7,
          "midi": 36,
          "name": "C2",
          "ticks": 13824,
          "time": 36,
          "velocity": 0.8661417322834646
        },
        {
          "duration": 0.018229166666664298,
          "durationTicks": 7,
          "midi": 35,
          "name": "B1",
          "ticks": 13824,
          "time": 36,
          "velocity": 0.5511811023622047
        },
        {
          "duration": 0.018229166666664298,
          "durationTicks": 7,
          "midi": 40,
          "name": "E2",
          "ticks": 13920,
          "time": 36.25,
          "velocity": 0.5511811023622047
        },
        {
          "duration": 0.018229166666664298,
          "durationTicks": 7,
          "midi": 38,
          "name": "D2",
          "ticks": 13920,
          "time": 36.25,
          "velocity": 0.8661417322834646
        },
        {
          "duration": 0.018229166666664298,
          "durationTicks": 7,
          "midi": 36,
          "name": "C2",
          "ticks": 14016,
          "time": 36.5,
          "velocity": 0.8661417322834646
        },
        {
          "duration": 0.018229166666664298,
          "durationTicks": 7,
          "midi": 35,
          "name": "B1",
          "ticks": 14016,
          "time": 36.5,
          "velocity": 0.5511811023622047
        },
        {
          "duration": 0.018229166666664298,
          "durationTicks": 7,
          "midi": 36,
          "name": "C2",
          "ticks": 14064,
          "time": 36.625,
          "velocity": 0.8661417322834646
        },
        {
          "duration": 0.018229166666664298,
          "durationTicks": 7,
          "midi": 35,
          "name": "B1",
          "ticks": 14064,
          "time": 36.625,
          "velocity": 0.5511811023622047
        },
        {
          "duration": 0.018229166666664298,
          "durationTicks": 7,
          "midi": 40,
          "name": "E2",
          "ticks": 14112,
          "time": 36.75,
          "velocity": 0.5511811023622047
        },
        {
          "duration": 0.018229166666664298,
          "durationTicks": 7,
          "midi": 38,
          "name": "D2",
          "ticks": 14112,
          "time": 36.75,
          "velocity": 0.8661417322834646
        },
        {
          "duration": 0.018229166666664298,
          "durationTicks": 7,
          "midi": 36,
          "name": "C2",
          "ticks": 14160,
          "time": 36.875,
          "velocity": 0.8661417322834646
        },
        {
          "duration": 0.018229166666664298,
          "durationTicks": 7,
          "midi": 35,
          "name": "B1",
          "ticks": 14160,
          "time": 36.875,
          "velocity": 0.5511811023622047
        },
        {
          "duration": 0.018229166666664298,
          "durationTicks": 7,
          "midi": 36,
          "name": "C2",
          "ticks": 14256,
          "time": 37.125,
          "velocity": 0.8661417322834646
        },
        {
          "duration": 0.018229166666664298,
          "durationTicks": 7,
          "midi": 35,
          "name": "B1",
          "ticks": 14256,
          "time": 37.125,
          "velocity": 0.5511811023622047
        },
        {
          "duration": 0.018229166666664298,
          "durationTicks": 7,
          "midi": 40,
          "name": "E2",
          "ticks": 14304,
          "time": 37.25,
          "velocity": 0.5511811023622047
        },
        {
          "duration": 0.018229166666664298,
          "durationTicks": 7,
          "midi": 38,
          "name": "D2",
          "ticks": 14304,
          "time": 37.25,
          "velocity": 0.8661417322834646
        },
        {
          "duration": 0.018229166666664298,
          "durationTicks": 7,
          "midi": 36,
          "name": "C2",
          "ticks": 14400,
          "time": 37.5,
          "velocity": 0.8661417322834646
        },
        {
          "duration": 0.018229166666664298,
          "durationTicks": 7,
          "midi": 35,
          "name": "B1",
          "ticks": 14400,
          "time": 37.5,
          "velocity": 0.5511811023622047
        },
        {
          "duration": 0.018229166666664298,
          "durationTicks": 7,
          "midi": 36,
          "name": "C2",
          "ticks": 14448,
          "time": 37.625,
          "velocity": 0.8661417322834646
        },
        {
          "duration": 0.018229166666664298,
          "durationTicks": 7,
          "midi": 35,
          "name": "B1",
          "ticks": 14448,
          "time": 37.625,
          "velocity": 0.5511811023622047
        },
        {
          "duration": 0.018229166666664298,
          "durationTicks": 7,
          "midi": 40,
          "name": "E2",
          "ticks": 14496,
          "time": 37.75,
          "velocity": 0.5511811023622047
        },
        {
          "duration": 0.018229166666664298,
          "durationTicks": 7,
          "midi": 38,
          "name": "D2",
          "ticks": 14496,
          "time": 37.75,
          "velocity": 0.8661417322834646
        },
        {
          "duration": 0.018229166666664298,
          "durationTicks": 7,
          "midi": 35,
          "name": "B1",
          "ticks": 14544,
          "time": 37.875,
          "velocity": 0.5511811023622047
        },
        {
          "duration": 0.018229166666664298,
          "durationTicks": 7,
          "midi": 35,
          "name": "B1",
          "ticks": 14592,
          "time": 38,
          "velocity": 0.5511811023622047
        },
        {
          "duration": 0.018229166666664298,
          "durationTicks": 7,
          "midi": 36,
          "name": "C2",
          "ticks": 14592,
          "time": 38,
          "velocity": 0.8661417322834646
        },
        {
          "duration": 0.018229166666664298,
          "durationTicks": 7,
          "midi": 38,
          "name": "D2",
          "ticks": 14688,
          "time": 38.25,
          "velocity": 0.8661417322834646
        },
        {
          "duration": 0.018229166666664298,
          "durationTicks": 7,
          "midi": 40,
          "name": "E2",
          "ticks": 14688,
          "time": 38.25,
          "velocity": 0.5511811023622047
        },
        {
          "duration": 0.018229166666664298,
          "durationTicks": 7,
          "midi": 35,
          "name": "B1",
          "ticks": 14784,
          "time": 38.5,
          "velocity": 0.5511811023622047
        },
        {
          "duration": 0.018229166666664298,
          "durationTicks": 7,
          "midi": 36,
          "name": "C2",
          "ticks": 14784,
          "time": 38.5,
          "velocity": 0.8661417322834646
        },
        {
          "duration": 0.018229166666664298,
          "durationTicks": 7,
          "midi": 35,
          "name": "B1",
          "ticks": 14832,
          "time": 38.625,
          "velocity": 0.5511811023622047
        },
        {
          "duration": 0.018229166666664298,
          "durationTicks": 7,
          "midi": 36,
          "name": "C2",
          "ticks": 14832,
          "time": 38.625,
          "velocity": 0.8661417322834646
        },
        {
          "duration": 0.018229166666664298,
          "durationTicks": 7,
          "midi": 38,
          "name": "D2",
          "ticks": 14880,
          "time": 38.75,
          "velocity": 0.8661417322834646
        },
        {
          "duration": 0.018229166666664298,
          "durationTicks": 7,
          "midi": 40,
          "name": "E2",
          "ticks": 14880,
          "time": 38.75,
          "velocity": 0.5511811023622047
        },
        {
          "duration": 0.018229166666664298,
          "durationTicks": 7,
          "midi": 35,
          "name": "B1",
          "ticks": 14928,
          "time": 38.875,
          "velocity": 0.5511811023622047
        },
        {
          "duration": 0.018229166666664298,
          "durationTicks": 7,
          "midi": 36,
          "name": "C2",
          "ticks": 14928,
          "time": 38.875,
          "velocity": 0.8661417322834646
        },
        {
          "duration": 0.018229166666664298,
          "durationTicks": 7,
          "midi": 38,
          "name": "D2",
          "ticks": 14976,
          "time": 39,
          "velocity": 0.8661417322834646
        },
        {
          "duration": 0.018229166666664298,
          "durationTicks": 7,
          "midi": 40,
          "name": "E2",
          "ticks": 14976,
          "time": 39,
          "velocity": 0.5511811023622047
        },
        {
          "duration": 0.018229166666664298,
          "durationTicks": 7,
          "midi": 35,
          "name": "B1",
          "ticks": 15024,
          "time": 39.125,
          "velocity": 0.5511811023622047
        },
        {
          "duration": 0.018229166666664298,
          "durationTicks": 7,
          "midi": 36,
          "name": "C2",
          "ticks": 15024,
          "time": 39.125,
          "velocity": 0.8661417322834646
        },
        {
          "duration": 0.018229166666664298,
          "durationTicks": 7,
          "midi": 38,
          "name": "D2",
          "ticks": 15072,
          "time": 39.25,
          "velocity": 0.8661417322834646
        },
        {
          "duration": 0.018229166666664298,
          "durationTicks": 7,
          "midi": 36,
          "name": "C2",
          "ticks": 15072,
          "time": 39.25,
          "velocity": 0.6299212598425197
        },
        {
          "duration": 0.018229166666664298,
          "durationTicks": 7,
          "midi": 38,
          "name": "D2",
          "ticks": 15120,
          "time": 39.375,
          "velocity": 0.8661417322834646
        },
        {
          "duration": 0.018229166666664298,
          "durationTicks": 7,
          "midi": 40,
          "name": "E2",
          "ticks": 15120,
          "time": 39.375,
          "velocity": 0.5511811023622047
        },
        {
          "duration": 0.018229166666664298,
          "durationTicks": 7,
          "midi": 35,
          "name": "B1",
          "ticks": 15168,
          "time": 39.5,
          "velocity": 0.5511811023622047
        },
        {
          "duration": 0.018229166666664298,
          "durationTicks": 7,
          "midi": 36,
          "name": "C2",
          "ticks": 15168,
          "time": 39.5,
          "velocity": 0.8661417322834646
        },
        {
          "duration": 0.018229166666664298,
          "durationTicks": 7,
          "midi": 36,
          "name": "C2",
          "ticks": 15216,
          "time": 39.625,
          "velocity": 0.6299212598425197
        },
        {
          "duration": 0.018229166666664298,
          "durationTicks": 7,
          "midi": 38,
          "name": "D2",
          "ticks": 15216,
          "time": 39.625,
          "velocity": 0.8661417322834646
        },
        {
          "duration": 0.018229166666664298,
          "durationTicks": 7,
          "midi": 38,
          "name": "D2",
          "ticks": 15264,
          "time": 39.75,
          "velocity": 0.8661417322834646
        },
        {
          "duration": 0.018229166666664298,
          "durationTicks": 7,
          "midi": 40,
          "name": "E2",
          "ticks": 15264,
          "time": 39.75,
          "velocity": 0.5511811023622047
        },
        {
          "duration": 0.020833333333335702,
          "durationTicks": 8,
          "midi": 36,
          "name": "C2",
          "ticks": 15312,
          "time": 39.875,
          "velocity": 0.6299212598425197
        },
        {
          "duration": 0.020833333333335702,
          "durationTicks": 8,
          "midi": 36,
          "name": "C2",
          "ticks": 15336,
          "time": 39.9375,
          "velocity": 0.6299212598425197
        },
        {
          "duration": 0.018229166666664298,
          "durationTicks": 7,
          "midi": 36,
          "name": "C2",
          "ticks": 15360,
          "time": 40,
          "velocity": 0.8661417322834646
        },
        {
          "duration": 0.018229166666664298,
          "durationTicks": 7,
          "midi": 35,
          "name": "B1",
          "ticks": 15360,
          "time": 40,
          "velocity": 0.5511811023622047
        },
        {
          "duration": 0.018229166666664298,
          "durationTicks": 7,
          "midi": 40,
          "name": "E2",
          "ticks": 15456,
          "time": 40.25,
          "velocity": 0.5511811023622047
        },
        {
          "duration": 0.018229166666664298,
          "durationTicks": 7,
          "midi": 38,
          "name": "D2",
          "ticks": 15456,
          "time": 40.25,
          "velocity": 0.8661417322834646
        },
        {
          "duration": 0.018229166666664298,
          "durationTicks": 7,
          "midi": 36,
          "name": "C2",
          "ticks": 15552,
          "time": 40.5,
          "velocity": 0.8661417322834646
        },
        {
          "duration": 0.018229166666664298,
          "durationTicks": 7,
          "midi": 35,
          "name": "B1",
          "ticks": 15552,
          "time": 40.5,
          "velocity": 0.5511811023622047
        },
        {
          "duration": 0.018229166666664298,
          "durationTicks": 7,
          "midi": 36,
          "name": "C2",
          "ticks": 15600,
          "time": 40.625,
          "velocity": 0.8661417322834646
        },
        {
          "duration": 0.018229166666664298,
          "durationTicks": 7,
          "midi": 35,
          "name": "B1",
          "ticks": 15600,
          "time": 40.625,
          "velocity": 0.5511811023622047
        },
        {
          "duration": 0.018229166666664298,
          "durationTicks": 7,
          "midi": 40,
          "name": "E2",
          "ticks": 15648,
          "time": 40.75,
          "velocity": 0.5511811023622047
        },
        {
          "duration": 0.018229166666664298,
          "durationTicks": 7,
          "midi": 38,
          "name": "D2",
          "ticks": 15648,
          "time": 40.75,
          "velocity": 0.8661417322834646
        },
        {
          "duration": 0.018229166666664298,
          "durationTicks": 7,
          "midi": 36,
          "name": "C2",
          "ticks": 15696,
          "time": 40.875,
          "velocity": 0.8661417322834646
        },
        {
          "duration": 0.018229166666664298,
          "durationTicks": 7,
          "midi": 35,
          "name": "B1",
          "ticks": 15696,
          "time": 40.875,
          "velocity": 0.5511811023622047
        },
        {
          "duration": 0.018229166666664298,
          "durationTicks": 7,
          "midi": 36,
          "name": "C2",
          "ticks": 15792,
          "time": 41.125,
          "velocity": 0.8661417322834646
        },
        {
          "duration": 0.018229166666664298,
          "durationTicks": 7,
          "midi": 35,
          "name": "B1",
          "ticks": 15792,
          "time": 41.125,
          "velocity": 0.5511811023622047
        },
        {
          "duration": 0.018229166666664298,
          "durationTicks": 7,
          "midi": 40,
          "name": "E2",
          "ticks": 15840,
          "time": 41.25,
          "velocity": 0.5511811023622047
        },
        {
          "duration": 0.018229166666664298,
          "durationTicks": 7,
          "midi": 38,
          "name": "D2",
          "ticks": 15840,
          "time": 41.25,
          "velocity": 0.8661417322834646
        },
        {
          "duration": 0.018229166666664298,
          "durationTicks": 7,
          "midi": 36,
          "name": "C2",
          "ticks": 15936,
          "time": 41.5,
          "velocity": 0.8661417322834646
        },
        {
          "duration": 0.018229166666664298,
          "durationTicks": 7,
          "midi": 35,
          "name": "B1",
          "ticks": 15936,
          "time": 41.5,
          "velocity": 0.5511811023622047
        },
        {
          "duration": 0.018229166666664298,
          "durationTicks": 7,
          "midi": 36,
          "name": "C2",
          "ticks": 15984,
          "time": 41.625,
          "velocity": 0.8661417322834646
        },
        {
          "duration": 0.018229166666664298,
          "durationTicks": 7,
          "midi": 35,
          "name": "B1",
          "ticks": 15984,
          "time": 41.625,
          "velocity": 0.5511811023622047
        },
        {
          "duration": 0.018229166666664298,
          "durationTicks": 7,
          "midi": 40,
          "name": "E2",
          "ticks": 16032,
          "time": 41.75,
          "velocity": 0.5511811023622047
        },
        {
          "duration": 0.018229166666664298,
          "durationTicks": 7,
          "midi": 38,
          "name": "D2",
          "ticks": 16032,
          "time": 41.75,
          "velocity": 0.8661417322834646
        },
        {
          "duration": 0.018229166666664298,
          "durationTicks": 7,
          "midi": 35,
          "name": "B1",
          "ticks": 16080,
          "time": 41.875,
          "velocity": 0.5511811023622047
        },
        {
          "duration": 0.018229166666664298,
          "durationTicks": 7,
          "midi": 36,
          "name": "C2",
          "ticks": 16128,
          "time": 42,
          "velocity": 0.8661417322834646
        },
        {
          "duration": 0.018229166666664298,
          "durationTicks": 7,
          "midi": 35,
          "name": "B1",
          "ticks": 16128,
          "time": 42,
          "velocity": 0.5511811023622047
        },
        {
          "duration": 0.018229166666664298,
          "durationTicks": 7,
          "midi": 40,
          "name": "E2",
          "ticks": 16224,
          "time": 42.25,
          "velocity": 0.5511811023622047
        },
        {
          "duration": 0.018229166666664298,
          "durationTicks": 7,
          "midi": 38,
          "name": "D2",
          "ticks": 16224,
          "time": 42.25,
          "velocity": 0.8661417322834646
        },
        {
          "duration": 0.018229166666664298,
          "durationTicks": 7,
          "midi": 36,
          "name": "C2",
          "ticks": 16320,
          "time": 42.5,
          "velocity": 0.8661417322834646
        },
        {
          "duration": 0.018229166666664298,
          "durationTicks": 7,
          "midi": 35,
          "name": "B1",
          "ticks": 16320,
          "time": 42.5,
          "velocity": 0.5511811023622047
        },
        {
          "duration": 0.018229166666664298,
          "durationTicks": 7,
          "midi": 36,
          "name": "C2",
          "ticks": 16368,
          "time": 42.625,
          "velocity": 0.8661417322834646
        },
        {
          "duration": 0.018229166666664298,
          "durationTicks": 7,
          "midi": 35,
          "name": "B1",
          "ticks": 16368,
          "time": 42.625,
          "velocity": 0.5511811023622047
        },
        {
          "duration": 0.018229166666664298,
          "durationTicks": 7,
          "midi": 40,
          "name": "E2",
          "ticks": 16416,
          "time": 42.75,
          "velocity": 0.5511811023622047
        },
        {
          "duration": 0.018229166666664298,
          "durationTicks": 7,
          "midi": 38,
          "name": "D2",
          "ticks": 16416,
          "time": 42.75,
          "velocity": 0.8661417322834646
        },
        {
          "duration": 0.018229166666664298,
          "durationTicks": 7,
          "midi": 36,
          "name": "C2",
          "ticks": 16464,
          "time": 42.875,
          "velocity": 0.8661417322834646
        },
        {
          "duration": 0.018229166666664298,
          "durationTicks": 7,
          "midi": 35,
          "name": "B1",
          "ticks": 16464,
          "time": 42.875,
          "velocity": 0.5511811023622047
        },
        {
          "duration": 0.018229166666664298,
          "durationTicks": 7,
          "midi": 36,
          "name": "C2",
          "ticks": 16560,
          "time": 43.125,
          "velocity": 0.8661417322834646
        },
        {
          "duration": 0.018229166666664298,
          "durationTicks": 7,
          "midi": 35,
          "name": "B1",
          "ticks": 16560,
          "time": 43.125,
          "velocity": 0.5511811023622047
        },
        {
          "duration": 0.018229166666664298,
          "durationTicks": 7,
          "midi": 40,
          "name": "E2",
          "ticks": 16608,
          "time": 43.25,
          "velocity": 0.5511811023622047
        },
        {
          "duration": 0.018229166666664298,
          "durationTicks": 7,
          "midi": 38,
          "name": "D2",
          "ticks": 16608,
          "time": 43.25,
          "velocity": 0.8661417322834646
        },
        {
          "duration": 0.018229166666664298,
          "durationTicks": 7,
          "midi": 36,
          "name": "C2",
          "ticks": 16704,
          "time": 43.5,
          "velocity": 0.8661417322834646
        },
        {
          "duration": 0.018229166666664298,
          "durationTicks": 7,
          "midi": 35,
          "name": "B1",
          "ticks": 16704,
          "time": 43.5,
          "velocity": 0.5511811023622047
        },
        {
          "duration": 0.018229166666664298,
          "durationTicks": 7,
          "midi": 36,
          "name": "C2",
          "ticks": 16752,
          "time": 43.625,
          "velocity": 0.8661417322834646
        },
        {
          "duration": 0.018229166666664298,
          "durationTicks": 7,
          "midi": 35,
          "name": "B1",
          "ticks": 16752,
          "time": 43.625,
          "velocity": 0.5511811023622047
        },
        {
          "duration": 0.018229166666664298,
          "durationTicks": 7,
          "midi": 40,
          "name": "E2",
          "ticks": 16800,
          "time": 43.75,
          "velocity": 0.5511811023622047
        },
        {
          "duration": 0.018229166666664298,
          "durationTicks": 7,
          "midi": 38,
          "name": "D2",
          "ticks": 16800,
          "time": 43.75,
          "velocity": 0.8661417322834646
        },
        {
          "duration": 0.018229166666664298,
          "durationTicks": 7,
          "midi": 35,
          "name": "B1",
          "ticks": 16848,
          "time": 43.875,
          "velocity": 0.5511811023622047
        },
        {
          "duration": 0.018229166666664298,
          "durationTicks": 7,
          "midi": 36,
          "name": "C2",
          "ticks": 16896,
          "time": 44,
          "velocity": 0.8661417322834646
        },
        {
          "duration": 0.018229166666664298,
          "durationTicks": 7,
          "midi": 35,
          "name": "B1",
          "ticks": 16896,
          "time": 44,
          "velocity": 0.5511811023622047
        },
        {
          "duration": 0.018229166666664298,
          "durationTicks": 7,
          "midi": 40,
          "name": "E2",
          "ticks": 16992,
          "time": 44.25,
          "velocity": 0.5511811023622047
        },
        {
          "duration": 0.018229166666664298,
          "durationTicks": 7,
          "midi": 38,
          "name": "D2",
          "ticks": 16992,
          "time": 44.25,
          "velocity": 0.8661417322834646
        },
        {
          "duration": 0.018229166666664298,
          "durationTicks": 7,
          "midi": 36,
          "name": "C2",
          "ticks": 17088,
          "time": 44.5,
          "velocity": 0.8661417322834646
        },
        {
          "duration": 0.018229166666664298,
          "durationTicks": 7,
          "midi": 35,
          "name": "B1",
          "ticks": 17088,
          "time": 44.5,
          "velocity": 0.5511811023622047
        },
        {
          "duration": 0.018229166666664298,
          "durationTicks": 7,
          "midi": 36,
          "name": "C2",
          "ticks": 17136,
          "time": 44.625,
          "velocity": 0.8661417322834646
        },
        {
          "duration": 0.018229166666664298,
          "durationTicks": 7,
          "midi": 35,
          "name": "B1",
          "ticks": 17136,
          "time": 44.625,
          "velocity": 0.5511811023622047
        },
        {
          "duration": 0.018229166666664298,
          "durationTicks": 7,
          "midi": 40,
          "name": "E2",
          "ticks": 17184,
          "time": 44.75,
          "velocity": 0.5511811023622047
        },
        {
          "duration": 0.018229166666664298,
          "durationTicks": 7,
          "midi": 38,
          "name": "D2",
          "ticks": 17184,
          "time": 44.75,
          "velocity": 0.8661417322834646
        },
        {
          "duration": 0.018229166666664298,
          "durationTicks": 7,
          "midi": 36,
          "name": "C2",
          "ticks": 17232,
          "time": 44.875,
          "velocity": 0.8661417322834646
        },
        {
          "duration": 0.018229166666664298,
          "durationTicks": 7,
          "midi": 35,
          "name": "B1",
          "ticks": 17232,
          "time": 44.875,
          "velocity": 0.5511811023622047
        },
        {
          "duration": 0.018229166666664298,
          "durationTicks": 7,
          "midi": 36,
          "name": "C2",
          "ticks": 17328,
          "time": 45.125,
          "velocity": 0.8661417322834646
        },
        {
          "duration": 0.018229166666664298,
          "durationTicks": 7,
          "midi": 35,
          "name": "B1",
          "ticks": 17328,
          "time": 45.125,
          "velocity": 0.5511811023622047
        },
        {
          "duration": 0.018229166666664298,
          "durationTicks": 7,
          "midi": 40,
          "name": "E2",
          "ticks": 17376,
          "time": 45.25,
          "velocity": 0.5511811023622047
        },
        {
          "duration": 0.018229166666664298,
          "durationTicks": 7,
          "midi": 38,
          "name": "D2",
          "ticks": 17376,
          "time": 45.25,
          "velocity": 0.8661417322834646
        },
        {
          "duration": 0.018229166666664298,
          "durationTicks": 7,
          "midi": 36,
          "name": "C2",
          "ticks": 17472,
          "time": 45.5,
          "velocity": 0.8661417322834646
        },
        {
          "duration": 0.018229166666664298,
          "durationTicks": 7,
          "midi": 35,
          "name": "B1",
          "ticks": 17472,
          "time": 45.5,
          "velocity": 0.5511811023622047
        },
        {
          "duration": 0.018229166666664298,
          "durationTicks": 7,
          "midi": 36,
          "name": "C2",
          "ticks": 17520,
          "time": 45.625,
          "velocity": 0.8661417322834646
        },
        {
          "duration": 0.018229166666664298,
          "durationTicks": 7,
          "midi": 35,
          "name": "B1",
          "ticks": 17520,
          "time": 45.625,
          "velocity": 0.5511811023622047
        },
        {
          "duration": 0.018229166666664298,
          "durationTicks": 7,
          "midi": 40,
          "name": "E2",
          "ticks": 17568,
          "time": 45.75,
          "velocity": 0.5511811023622047
        },
        {
          "duration": 0.018229166666664298,
          "durationTicks": 7,
          "midi": 38,
          "name": "D2",
          "ticks": 17568,
          "time": 45.75,
          "velocity": 0.8661417322834646
        },
        {
          "duration": 0.018229166666664298,
          "durationTicks": 7,
          "midi": 35,
          "name": "B1",
          "ticks": 17616,
          "time": 45.875,
          "velocity": 0.5511811023622047
        },
        {
          "duration": 0.018229166666664298,
          "durationTicks": 7,
          "midi": 36,
          "name": "C2",
          "ticks": 17664,
          "time": 46,
          "velocity": 0.8661417322834646
        },
        {
          "duration": 0.018229166666664298,
          "durationTicks": 7,
          "midi": 35,
          "name": "B1",
          "ticks": 17664,
          "time": 46,
          "velocity": 0.5511811023622047
        },
        {
          "duration": 0.018229166666664298,
          "durationTicks": 7,
          "midi": 40,
          "name": "E2",
          "ticks": 17760,
          "time": 46.25,
          "velocity": 0.5511811023622047
        },
        {
          "duration": 0.018229166666664298,
          "durationTicks": 7,
          "midi": 38,
          "name": "D2",
          "ticks": 17760,
          "time": 46.25,
          "velocity": 0.8661417322834646
        },
        {
          "duration": 0.018229166666664298,
          "durationTicks": 7,
          "midi": 36,
          "name": "C2",
          "ticks": 17856,
          "time": 46.5,
          "velocity": 0.8661417322834646
        },
        {
          "duration": 0.018229166666664298,
          "durationTicks": 7,
          "midi": 35,
          "name": "B1",
          "ticks": 17856,
          "time": 46.5,
          "velocity": 0.5511811023622047
        },
        {
          "duration": 0.018229166666664298,
          "durationTicks": 7,
          "midi": 36,
          "name": "C2",
          "ticks": 17904,
          "time": 46.625,
          "velocity": 0.8661417322834646
        },
        {
          "duration": 0.018229166666664298,
          "durationTicks": 7,
          "midi": 35,
          "name": "B1",
          "ticks": 17904,
          "time": 46.625,
          "velocity": 0.5511811023622047
        },
        {
          "duration": 0.018229166666664298,
          "durationTicks": 7,
          "midi": 40,
          "name": "E2",
          "ticks": 17952,
          "time": 46.75,
          "velocity": 0.5511811023622047
        },
        {
          "duration": 0.018229166666664298,
          "durationTicks": 7,
          "midi": 38,
          "name": "D2",
          "ticks": 17952,
          "time": 46.75,
          "velocity": 0.8661417322834646
        },
        {
          "duration": 0.018229166666664298,
          "durationTicks": 7,
          "midi": 36,
          "name": "C2",
          "ticks": 18000,
          "time": 46.875,
          "velocity": 0.8661417322834646
        },
        {
          "duration": 0.018229166666664298,
          "durationTicks": 7,
          "midi": 35,
          "name": "B1",
          "ticks": 18000,
          "time": 46.875,
          "velocity": 0.5511811023622047
        },
        {
          "duration": 0.018229166666664298,
          "durationTicks": 7,
          "midi": 40,
          "name": "E2",
          "ticks": 18048,
          "time": 47,
          "velocity": 0.5511811023622047
        },
        {
          "duration": 0.018229166666664298,
          "durationTicks": 7,
          "midi": 38,
          "name": "D2",
          "ticks": 18048,
          "time": 47,
          "velocity": 0.8661417322834646
        },
        {
          "duration": 0.018229166666664298,
          "durationTicks": 7,
          "midi": 36,
          "name": "C2",
          "ticks": 18096,
          "time": 47.125,
          "velocity": 0.8661417322834646
        },
        {
          "duration": 0.018229166666664298,
          "durationTicks": 7,
          "midi": 35,
          "name": "B1",
          "ticks": 18096,
          "time": 47.125,
          "velocity": 0.5511811023622047
        },
        {
          "duration": 0.018229166666664298,
          "durationTicks": 7,
          "midi": 36,
          "name": "C2",
          "ticks": 18144,
          "time": 47.25,
          "velocity": 0.6299212598425197
        },
        {
          "duration": 0.018229166666664298,
          "durationTicks": 7,
          "midi": 38,
          "name": "D2",
          "ticks": 18144,
          "time": 47.25,
          "velocity": 0.8661417322834646
        },
        {
          "duration": 0.018229166666664298,
          "durationTicks": 7,
          "midi": 40,
          "name": "E2",
          "ticks": 18192,
          "time": 47.375,
          "velocity": 0.5511811023622047
        },
        {
          "duration": 0.018229166666664298,
          "durationTicks": 7,
          "midi": 38,
          "name": "D2",
          "ticks": 18192,
          "time": 47.375,
          "velocity": 0.8661417322834646
        },
        {
          "duration": 0.018229166666664298,
          "durationTicks": 7,
          "midi": 36,
          "name": "C2",
          "ticks": 18240,
          "time": 47.5,
          "velocity": 0.8661417322834646
        },
        {
          "duration": 0.018229166666664298,
          "durationTicks": 7,
          "midi": 35,
          "name": "B1",
          "ticks": 18240,
          "time": 47.5,
          "velocity": 0.5511811023622047
        },
        {
          "duration": 0.018229166666664298,
          "durationTicks": 7,
          "midi": 38,
          "name": "D2",
          "ticks": 18288,
          "time": 47.625,
          "velocity": 0.8661417322834646
        },
        {
          "duration": 0.018229166666664298,
          "durationTicks": 7,
          "midi": 36,
          "name": "C2",
          "ticks": 18288,
          "time": 47.625,
          "velocity": 0.6299212598425197
        },
        {
          "duration": 0.018229166666664298,
          "durationTicks": 7,
          "midi": 40,
          "name": "E2",
          "ticks": 18336,
          "time": 47.75,
          "velocity": 0.5511811023622047
        },
        {
          "duration": 0.018229166666664298,
          "durationTicks": 7,
          "midi": 38,
          "name": "D2",
          "ticks": 18336,
          "time": 47.75,
          "velocity": 0.8661417322834646
        },
        {
          "duration": 0.020833333333335702,
          "durationTicks": 8,
          "midi": 36,
          "name": "C2",
          "ticks": 18384,
          "time": 47.875,
          "velocity": 0.6299212598425197
        },
        {
          "duration": 0.020833333333335702,
          "durationTicks": 8,
          "midi": 36,
          "name": "C2",
          "ticks": 18408,
          "time": 47.9375,
          "velocity": 0.6299212598425197
        },
        {
          "duration": 0.018229166666664298,
          "durationTicks": 7,
          "midi": 36,
          "name": "C2",
          "ticks": 18432,
          "time": 48,
          "velocity": 0.8661417322834646
        },
        {
          "duration": 0.018229166666664298,
          "durationTicks": 7,
          "midi": 35,
          "name": "B1",
          "ticks": 18432,
          "time": 48,
          "velocity": 0.5511811023622047
        },
        {
          "duration": 0.018229166666664298,
          "durationTicks": 7,
          "midi": 40,
          "name": "E2",
          "ticks": 18528,
          "time": 48.25,
          "velocity": 0.5511811023622047
        },
        {
          "duration": 0.018229166666664298,
          "durationTicks": 7,
          "midi": 38,
          "name": "D2",
          "ticks": 18528,
          "time": 48.25,
          "velocity": 0.8661417322834646
        },
        {
          "duration": 0.018229166666664298,
          "durationTicks": 7,
          "midi": 36,
          "name": "C2",
          "ticks": 18624,
          "time": 48.5,
          "velocity": 0.8661417322834646
        },
        {
          "duration": 0.018229166666664298,
          "durationTicks": 7,
          "midi": 35,
          "name": "B1",
          "ticks": 18624,
          "time": 48.5,
          "velocity": 0.5511811023622047
        },
        {
          "duration": 0.018229166666664298,
          "durationTicks": 7,
          "midi": 36,
          "name": "C2",
          "ticks": 18672,
          "time": 48.625,
          "velocity": 0.8661417322834646
        },
        {
          "duration": 0.018229166666664298,
          "durationTicks": 7,
          "midi": 35,
          "name": "B1",
          "ticks": 18672,
          "time": 48.625,
          "velocity": 0.5511811023622047
        },
        {
          "duration": 0.018229166666664298,
          "durationTicks": 7,
          "midi": 40,
          "name": "E2",
          "ticks": 18720,
          "time": 48.75,
          "velocity": 0.5511811023622047
        },
        {
          "duration": 0.018229166666664298,
          "durationTicks": 7,
          "midi": 38,
          "name": "D2",
          "ticks": 18720,
          "time": 48.75,
          "velocity": 0.8661417322834646
        },
        {
          "duration": 0.018229166666664298,
          "durationTicks": 7,
          "midi": 36,
          "name": "C2",
          "ticks": 18768,
          "time": 48.875,
          "velocity": 0.8661417322834646
        },
        {
          "duration": 0.018229166666664298,
          "durationTicks": 7,
          "midi": 35,
          "name": "B1",
          "ticks": 18768,
          "time": 48.875,
          "velocity": 0.5511811023622047
        },
        {
          "duration": 0.018229166666664298,
          "durationTicks": 7,
          "midi": 36,
          "name": "C2",
          "ticks": 18864,
          "time": 49.125,
          "velocity": 0.8661417322834646
        },
        {
          "duration": 0.018229166666664298,
          "durationTicks": 7,
          "midi": 35,
          "name": "B1",
          "ticks": 18864,
          "time": 49.125,
          "velocity": 0.5511811023622047
        },
        {
          "duration": 0.018229166666664298,
          "durationTicks": 7,
          "midi": 40,
          "name": "E2",
          "ticks": 18912,
          "time": 49.25,
          "velocity": 0.5511811023622047
        },
        {
          "duration": 0.018229166666664298,
          "durationTicks": 7,
          "midi": 38,
          "name": "D2",
          "ticks": 18912,
          "time": 49.25,
          "velocity": 0.8661417322834646
        },
        {
          "duration": 0.018229166666664298,
          "durationTicks": 7,
          "midi": 36,
          "name": "C2",
          "ticks": 19008,
          "time": 49.5,
          "velocity": 0.8661417322834646
        },
        {
          "duration": 0.018229166666664298,
          "durationTicks": 7,
          "midi": 35,
          "name": "B1",
          "ticks": 19008,
          "time": 49.5,
          "velocity": 0.5511811023622047
        },
        {
          "duration": 0.018229166666664298,
          "durationTicks": 7,
          "midi": 36,
          "name": "C2",
          "ticks": 19056,
          "time": 49.625,
          "velocity": 0.8661417322834646
        },
        {
          "duration": 0.018229166666664298,
          "durationTicks": 7,
          "midi": 35,
          "name": "B1",
          "ticks": 19056,
          "time": 49.625,
          "velocity": 0.5511811023622047
        },
        {
          "duration": 0.018229166666664298,
          "durationTicks": 7,
          "midi": 40,
          "name": "E2",
          "ticks": 19104,
          "time": 49.75,
          "velocity": 0.5511811023622047
        },
        {
          "duration": 0.018229166666664298,
          "durationTicks": 7,
          "midi": 38,
          "name": "D2",
          "ticks": 19104,
          "time": 49.75,
          "velocity": 0.8661417322834646
        },
        {
          "duration": 0.018229166666664298,
          "durationTicks": 7,
          "midi": 35,
          "name": "B1",
          "ticks": 19152,
          "time": 49.875,
          "velocity": 0.5511811023622047
        },
        {
          "duration": 0.018229166666664298,
          "durationTicks": 7,
          "midi": 36,
          "name": "C2",
          "ticks": 19200,
          "time": 50,
          "velocity": 0.8661417322834646
        },
        {
          "duration": 0.018229166666664298,
          "durationTicks": 7,
          "midi": 35,
          "name": "B1",
          "ticks": 19200,
          "time": 50,
          "velocity": 0.5511811023622047
        },
        {
          "duration": 0.018229166666664298,
          "durationTicks": 7,
          "midi": 40,
          "name": "E2",
          "ticks": 19296,
          "time": 50.25,
          "velocity": 0.5511811023622047
        },
        {
          "duration": 0.018229166666664298,
          "durationTicks": 7,
          "midi": 38,
          "name": "D2",
          "ticks": 19296,
          "time": 50.25,
          "velocity": 0.8661417322834646
        },
        {
          "duration": 0.018229166666664298,
          "durationTicks": 7,
          "midi": 36,
          "name": "C2",
          "ticks": 19392,
          "time": 50.5,
          "velocity": 0.8661417322834646
        },
        {
          "duration": 0.018229166666664298,
          "durationTicks": 7,
          "midi": 35,
          "name": "B1",
          "ticks": 19392,
          "time": 50.5,
          "velocity": 0.5511811023622047
        },
        {
          "duration": 0.018229166666664298,
          "durationTicks": 7,
          "midi": 36,
          "name": "C2",
          "ticks": 19440,
          "time": 50.625,
          "velocity": 0.8661417322834646
        },
        {
          "duration": 0.018229166666664298,
          "durationTicks": 7,
          "midi": 35,
          "name": "B1",
          "ticks": 19440,
          "time": 50.625,
          "velocity": 0.5511811023622047
        },
        {
          "duration": 0.018229166666664298,
          "durationTicks": 7,
          "midi": 40,
          "name": "E2",
          "ticks": 19488,
          "time": 50.75,
          "velocity": 0.5511811023622047
        },
        {
          "duration": 0.018229166666664298,
          "durationTicks": 7,
          "midi": 38,
          "name": "D2",
          "ticks": 19488,
          "time": 50.75,
          "velocity": 0.8661417322834646
        },
        {
          "duration": 0.018229166666664298,
          "durationTicks": 7,
          "midi": 36,
          "name": "C2",
          "ticks": 19536,
          "time": 50.875,
          "velocity": 0.8661417322834646
        },
        {
          "duration": 0.018229166666664298,
          "durationTicks": 7,
          "midi": 35,
          "name": "B1",
          "ticks": 19536,
          "time": 50.875,
          "velocity": 0.5511811023622047
        },
        {
          "duration": 0.018229166666664298,
          "durationTicks": 7,
          "midi": 36,
          "name": "C2",
          "ticks": 19632,
          "time": 51.125,
          "velocity": 0.8661417322834646
        },
        {
          "duration": 0.018229166666664298,
          "durationTicks": 7,
          "midi": 35,
          "name": "B1",
          "ticks": 19632,
          "time": 51.125,
          "velocity": 0.5511811023622047
        },
        {
          "duration": 0.018229166666664298,
          "durationTicks": 7,
          "midi": 40,
          "name": "E2",
          "ticks": 19680,
          "time": 51.25,
          "velocity": 0.5511811023622047
        },
        {
          "duration": 0.018229166666664298,
          "durationTicks": 7,
          "midi": 38,
          "name": "D2",
          "ticks": 19680,
          "time": 51.25,
          "velocity": 0.8661417322834646
        },
        {
          "duration": 0.018229166666664298,
          "durationTicks": 7,
          "midi": 36,
          "name": "C2",
          "ticks": 19776,
          "time": 51.5,
          "velocity": 0.8661417322834646
        },
        {
          "duration": 0.018229166666664298,
          "durationTicks": 7,
          "midi": 35,
          "name": "B1",
          "ticks": 19776,
          "time": 51.5,
          "velocity": 0.5511811023622047
        },
        {
          "duration": 0.018229166666664298,
          "durationTicks": 7,
          "midi": 36,
          "name": "C2",
          "ticks": 19824,
          "time": 51.625,
          "velocity": 0.8661417322834646
        },
        {
          "duration": 0.018229166666664298,
          "durationTicks": 7,
          "midi": 35,
          "name": "B1",
          "ticks": 19824,
          "time": 51.625,
          "velocity": 0.5511811023622047
        },
        {
          "duration": 0.018229166666664298,
          "durationTicks": 7,
          "midi": 40,
          "name": "E2",
          "ticks": 19872,
          "time": 51.75,
          "velocity": 0.5511811023622047
        },
        {
          "duration": 0.018229166666664298,
          "durationTicks": 7,
          "midi": 38,
          "name": "D2",
          "ticks": 19872,
          "time": 51.75,
          "velocity": 0.8661417322834646
        },
        {
          "duration": 0.018229166666664298,
          "durationTicks": 7,
          "midi": 35,
          "name": "B1",
          "ticks": 19920,
          "time": 51.875,
          "velocity": 0.5511811023622047
        },
        {
          "duration": 0.018229166666664298,
          "durationTicks": 7,
          "midi": 36,
          "name": "C2",
          "ticks": 19968,
          "time": 52,
          "velocity": 0.8661417322834646
        },
        {
          "duration": 0.018229166666664298,
          "durationTicks": 7,
          "midi": 35,
          "name": "B1",
          "ticks": 19968,
          "time": 52,
          "velocity": 0.5511811023622047
        },
        {
          "duration": 0.018229166666664298,
          "durationTicks": 7,
          "midi": 40,
          "name": "E2",
          "ticks": 20064,
          "time": 52.25,
          "velocity": 0.5511811023622047
        },
        {
          "duration": 0.018229166666664298,
          "durationTicks": 7,
          "midi": 38,
          "name": "D2",
          "ticks": 20064,
          "time": 52.25,
          "velocity": 0.8661417322834646
        },
        {
          "duration": 0.018229166666664298,
          "durationTicks": 7,
          "midi": 36,
          "name": "C2",
          "ticks": 20160,
          "time": 52.5,
          "velocity": 0.8661417322834646
        },
        {
          "duration": 0.018229166666664298,
          "durationTicks": 7,
          "midi": 35,
          "name": "B1",
          "ticks": 20160,
          "time": 52.5,
          "velocity": 0.5511811023622047
        },
        {
          "duration": 0.018229166666664298,
          "durationTicks": 7,
          "midi": 36,
          "name": "C2",
          "ticks": 20208,
          "time": 52.625,
          "velocity": 0.8661417322834646
        },
        {
          "duration": 0.018229166666664298,
          "durationTicks": 7,
          "midi": 35,
          "name": "B1",
          "ticks": 20208,
          "time": 52.625,
          "velocity": 0.5511811023622047
        },
        {
          "duration": 0.018229166666664298,
          "durationTicks": 7,
          "midi": 40,
          "name": "E2",
          "ticks": 20256,
          "time": 52.75,
          "velocity": 0.5511811023622047
        },
        {
          "duration": 0.018229166666664298,
          "durationTicks": 7,
          "midi": 38,
          "name": "D2",
          "ticks": 20256,
          "time": 52.75,
          "velocity": 0.8661417322834646
        },
        {
          "duration": 0.018229166666664298,
          "durationTicks": 7,
          "midi": 36,
          "name": "C2",
          "ticks": 20304,
          "time": 52.875,
          "velocity": 0.8661417322834646
        },
        {
          "duration": 0.018229166666664298,
          "durationTicks": 7,
          "midi": 35,
          "name": "B1",
          "ticks": 20304,
          "time": 52.875,
          "velocity": 0.5511811023622047
        },
        {
          "duration": 0.018229166666664298,
          "durationTicks": 7,
          "midi": 36,
          "name": "C2",
          "ticks": 20400,
          "time": 53.125,
          "velocity": 0.8661417322834646
        },
        {
          "duration": 0.018229166666664298,
          "durationTicks": 7,
          "midi": 35,
          "name": "B1",
          "ticks": 20400,
          "time": 53.125,
          "velocity": 0.5511811023622047
        },
        {
          "duration": 0.018229166666664298,
          "durationTicks": 7,
          "midi": 40,
          "name": "E2",
          "ticks": 20448,
          "time": 53.25,
          "velocity": 0.5511811023622047
        },
        {
          "duration": 0.018229166666664298,
          "durationTicks": 7,
          "midi": 38,
          "name": "D2",
          "ticks": 20448,
          "time": 53.25,
          "velocity": 0.8661417322834646
        },
        {
          "duration": 0.018229166666664298,
          "durationTicks": 7,
          "midi": 36,
          "name": "C2",
          "ticks": 20544,
          "time": 53.5,
          "velocity": 0.8661417322834646
        },
        {
          "duration": 0.018229166666664298,
          "durationTicks": 7,
          "midi": 35,
          "name": "B1",
          "ticks": 20544,
          "time": 53.5,
          "velocity": 0.5511811023622047
        },
        {
          "duration": 0.018229166666664298,
          "durationTicks": 7,
          "midi": 36,
          "name": "C2",
          "ticks": 20592,
          "time": 53.625,
          "velocity": 0.8661417322834646
        },
        {
          "duration": 0.018229166666664298,
          "durationTicks": 7,
          "midi": 35,
          "name": "B1",
          "ticks": 20592,
          "time": 53.625,
          "velocity": 0.5511811023622047
        },
        {
          "duration": 0.018229166666664298,
          "durationTicks": 7,
          "midi": 40,
          "name": "E2",
          "ticks": 20640,
          "time": 53.75,
          "velocity": 0.5511811023622047
        },
        {
          "duration": 0.018229166666664298,
          "durationTicks": 7,
          "midi": 38,
          "name": "D2",
          "ticks": 20640,
          "time": 53.75,
          "velocity": 0.8661417322834646
        },
        {
          "duration": 0.018229166666664298,
          "durationTicks": 7,
          "midi": 35,
          "name": "B1",
          "ticks": 20688,
          "time": 53.875,
          "velocity": 0.5511811023622047
        },
        {
          "duration": 0.018229166666664298,
          "durationTicks": 7,
          "midi": 35,
          "name": "B1",
          "ticks": 20736,
          "time": 54,
          "velocity": 0.5511811023622047
        },
        {
          "duration": 0.018229166666664298,
          "durationTicks": 7,
          "midi": 36,
          "name": "C2",
          "ticks": 20736,
          "time": 54,
          "velocity": 0.8661417322834646
        },
        {
          "duration": 0.018229166666664298,
          "durationTicks": 7,
          "midi": 38,
          "name": "D2",
          "ticks": 20832,
          "time": 54.25,
          "velocity": 0.8661417322834646
        },
        {
          "duration": 0.018229166666664298,
          "durationTicks": 7,
          "midi": 40,
          "name": "E2",
          "ticks": 20832,
          "time": 54.25,
          "velocity": 0.5511811023622047
        },
        {
          "duration": 0.018229166666664298,
          "durationTicks": 7,
          "midi": 35,
          "name": "B1",
          "ticks": 20928,
          "time": 54.5,
          "velocity": 0.5511811023622047
        },
        {
          "duration": 0.018229166666664298,
          "durationTicks": 7,
          "midi": 36,
          "name": "C2",
          "ticks": 20928,
          "time": 54.5,
          "velocity": 0.8661417322834646
        },
        {
          "duration": 0.018229166666664298,
          "durationTicks": 7,
          "midi": 35,
          "name": "B1",
          "ticks": 20976,
          "time": 54.625,
          "velocity": 0.5511811023622047
        },
        {
          "duration": 0.018229166666664298,
          "durationTicks": 7,
          "midi": 36,
          "name": "C2",
          "ticks": 20976,
          "time": 54.625,
          "velocity": 0.8661417322834646
        },
        {
          "duration": 0.018229166666664298,
          "durationTicks": 7,
          "midi": 38,
          "name": "D2",
          "ticks": 21024,
          "time": 54.75,
          "velocity": 0.8661417322834646
        },
        {
          "duration": 0.018229166666664298,
          "durationTicks": 7,
          "midi": 40,
          "name": "E2",
          "ticks": 21024,
          "time": 54.75,
          "velocity": 0.5511811023622047
        },
        {
          "duration": 0.018229166666664298,
          "durationTicks": 7,
          "midi": 35,
          "name": "B1",
          "ticks": 21072,
          "time": 54.875,
          "velocity": 0.5511811023622047
        },
        {
          "duration": 0.018229166666664298,
          "durationTicks": 7,
          "midi": 36,
          "name": "C2",
          "ticks": 21072,
          "time": 54.875,
          "velocity": 0.8661417322834646
        },
        {
          "duration": 0.018229166666664298,
          "durationTicks": 7,
          "midi": 38,
          "name": "D2",
          "ticks": 21120,
          "time": 55,
          "velocity": 0.8661417322834646
        },
        {
          "duration": 0.018229166666664298,
          "durationTicks": 7,
          "midi": 40,
          "name": "E2",
          "ticks": 21120,
          "time": 55,
          "velocity": 0.5511811023622047
        },
        {
          "duration": 0.018229166666664298,
          "durationTicks": 7,
          "midi": 35,
          "name": "B1",
          "ticks": 21168,
          "time": 55.125,
          "velocity": 0.5511811023622047
        },
        {
          "duration": 0.018229166666664298,
          "durationTicks": 7,
          "midi": 36,
          "name": "C2",
          "ticks": 21168,
          "time": 55.125,
          "velocity": 0.8661417322834646
        },
        {
          "duration": 0.018229166666664298,
          "durationTicks": 7,
          "midi": 38,
          "name": "D2",
          "ticks": 21216,
          "time": 55.25,
          "velocity": 0.8661417322834646
        },
        {
          "duration": 0.018229166666664298,
          "durationTicks": 7,
          "midi": 36,
          "name": "C2",
          "ticks": 21216,
          "time": 55.25,
          "velocity": 0.6299212598425197
        },
        {
          "duration": 0.018229166666664298,
          "durationTicks": 7,
          "midi": 38,
          "name": "D2",
          "ticks": 21264,
          "time": 55.375,
          "velocity": 0.8661417322834646
        },
        {
          "duration": 0.018229166666664298,
          "durationTicks": 7,
          "midi": 40,
          "name": "E2",
          "ticks": 21264,
          "time": 55.375,
          "velocity": 0.5511811023622047
        },
        {
          "duration": 0.018229166666664298,
          "durationTicks": 7,
          "midi": 35,
          "name": "B1",
          "ticks": 21312,
          "time": 55.5,
          "velocity": 0.5511811023622047
        },
        {
          "duration": 0.018229166666664298,
          "durationTicks": 7,
          "midi": 36,
          "name": "C2",
          "ticks": 21312,
          "time": 55.5,
          "velocity": 0.8661417322834646
        },
        {
          "duration": 0.018229166666664298,
          "durationTicks": 7,
          "midi": 36,
          "name": "C2",
          "ticks": 21360,
          "time": 55.625,
          "velocity": 0.6299212598425197
        },
        {
          "duration": 0.018229166666664298,
          "durationTicks": 7,
          "midi": 38,
          "name": "D2",
          "ticks": 21360,
          "time": 55.625,
          "velocity": 0.8661417322834646
        },
        {
          "duration": 0.018229166666664298,
          "durationTicks": 7,
          "midi": 38,
          "name": "D2",
          "ticks": 21408,
          "time": 55.75,
          "velocity": 0.8661417322834646
        },
        {
          "duration": 0.018229166666664298,
          "durationTicks": 7,
          "midi": 40,
          "name": "E2",
          "ticks": 21408,
          "time": 55.75,
          "velocity": 0.5511811023622047
        },
        {
          "duration": 0.020833333333335702,
          "durationTicks": 8,
          "midi": 36,
          "name": "C2",
          "ticks": 21456,
          "time": 55.875,
          "velocity": 0.6299212598425197
        },
        {
          "duration": 0.020833333333335702,
          "durationTicks": 8,
          "midi": 36,
          "name": "C2",
          "ticks": 21480,
          "time": 55.9375,
          "velocity": 0.6299212598425197
        },
        {
          "duration": 0.018229166666664298,
          "durationTicks": 7,
          "midi": 36,
          "name": "C2",
          "ticks": 21504,
          "time": 56,
          "velocity": 0.8661417322834646
        },
        {
          "duration": 0.018229166666664298,
          "durationTicks": 7,
          "midi": 35,
          "name": "B1",
          "ticks": 21504,
          "time": 56,
          "velocity": 0.5511811023622047
        },
        {
          "duration": 0.018229166666664298,
          "durationTicks": 7,
          "midi": 40,
          "name": "E2",
          "ticks": 21600,
          "time": 56.25,
          "velocity": 0.5511811023622047
        },
        {
          "duration": 0.018229166666664298,
          "durationTicks": 7,
          "midi": 38,
          "name": "D2",
          "ticks": 21600,
          "time": 56.25,
          "velocity": 0.8661417322834646
        },
        {
          "duration": 0.018229166666664298,
          "durationTicks": 7,
          "midi": 36,
          "name": "C2",
          "ticks": 21696,
          "time": 56.5,
          "velocity": 0.8661417322834646
        },
        {
          "duration": 0.018229166666664298,
          "durationTicks": 7,
          "midi": 35,
          "name": "B1",
          "ticks": 21696,
          "time": 56.5,
          "velocity": 0.5511811023622047
        },
        {
          "duration": 0.018229166666664298,
          "durationTicks": 7,
          "midi": 36,
          "name": "C2",
          "ticks": 21744,
          "time": 56.625,
          "velocity": 0.8661417322834646
        },
        {
          "duration": 0.018229166666664298,
          "durationTicks": 7,
          "midi": 35,
          "name": "B1",
          "ticks": 21744,
          "time": 56.625,
          "velocity": 0.5511811023622047
        },
        {
          "duration": 0.018229166666664298,
          "durationTicks": 7,
          "midi": 40,
          "name": "E2",
          "ticks": 21792,
          "time": 56.75,
          "velocity": 0.5511811023622047
        },
        {
          "duration": 0.018229166666664298,
          "durationTicks": 7,
          "midi": 38,
          "name": "D2",
          "ticks": 21792,
          "time": 56.75,
          "velocity": 0.8661417322834646
        },
        {
          "duration": 0.018229166666664298,
          "durationTicks": 7,
          "midi": 36,
          "name": "C2",
          "ticks": 21840,
          "time": 56.875,
          "velocity": 0.8661417322834646
        },
        {
          "duration": 0.018229166666664298,
          "durationTicks": 7,
          "midi": 35,
          "name": "B1",
          "ticks": 21840,
          "time": 56.875,
          "velocity": 0.5511811023622047
        },
        {
          "duration": 0.018229166666664298,
          "durationTicks": 7,
          "midi": 36,
          "name": "C2",
          "ticks": 21936,
          "time": 57.125,
          "velocity": 0.8661417322834646
        },
        {
          "duration": 0.018229166666664298,
          "durationTicks": 7,
          "midi": 35,
          "name": "B1",
          "ticks": 21936,
          "time": 57.125,
          "velocity": 0.5511811023622047
        },
        {
          "duration": 0.018229166666664298,
          "durationTicks": 7,
          "midi": 40,
          "name": "E2",
          "ticks": 21984,
          "time": 57.25,
          "velocity": 0.5511811023622047
        },
        {
          "duration": 0.018229166666664298,
          "durationTicks": 7,
          "midi": 38,
          "name": "D2",
          "ticks": 21984,
          "time": 57.25,
          "velocity": 0.8661417322834646
        },
        {
          "duration": 0.018229166666664298,
          "durationTicks": 7,
          "midi": 36,
          "name": "C2",
          "ticks": 22080,
          "time": 57.5,
          "velocity": 0.8661417322834646
        },
        {
          "duration": 0.018229166666664298,
          "durationTicks": 7,
          "midi": 35,
          "name": "B1",
          "ticks": 22080,
          "time": 57.5,
          "velocity": 0.5511811023622047
        },
        {
          "duration": 0.018229166666664298,
          "durationTicks": 7,
          "midi": 36,
          "name": "C2",
          "ticks": 22128,
          "time": 57.625,
          "velocity": 0.8661417322834646
        },
        {
          "duration": 0.018229166666664298,
          "durationTicks": 7,
          "midi": 35,
          "name": "B1",
          "ticks": 22128,
          "time": 57.625,
          "velocity": 0.5511811023622047
        },
        {
          "duration": 0.018229166666664298,
          "durationTicks": 7,
          "midi": 40,
          "name": "E2",
          "ticks": 22176,
          "time": 57.75,
          "velocity": 0.5511811023622047
        },
        {
          "duration": 0.018229166666664298,
          "durationTicks": 7,
          "midi": 38,
          "name": "D2",
          "ticks": 22176,
          "time": 57.75,
          "velocity": 0.8661417322834646
        },
        {
          "duration": 0.018229166666664298,
          "durationTicks": 7,
          "midi": 35,
          "name": "B1",
          "ticks": 22224,
          "time": 57.875,
          "velocity": 0.5511811023622047
        },
        {
          "duration": 0.018229166666664298,
          "durationTicks": 7,
          "midi": 36,
          "name": "C2",
          "ticks": 22272,
          "time": 58,
          "velocity": 0.8661417322834646
        },
        {
          "duration": 0.018229166666664298,
          "durationTicks": 7,
          "midi": 35,
          "name": "B1",
          "ticks": 22272,
          "time": 58,
          "velocity": 0.5511811023622047
        },
        {
          "duration": 0.018229166666664298,
          "durationTicks": 7,
          "midi": 40,
          "name": "E2",
          "ticks": 22368,
          "time": 58.25,
          "velocity": 0.5511811023622047
        },
        {
          "duration": 0.018229166666664298,
          "durationTicks": 7,
          "midi": 38,
          "name": "D2",
          "ticks": 22368,
          "time": 58.25,
          "velocity": 0.8661417322834646
        },
        {
          "duration": 0.018229166666664298,
          "durationTicks": 7,
          "midi": 36,
          "name": "C2",
          "ticks": 22464,
          "time": 58.5,
          "velocity": 0.8661417322834646
        },
        {
          "duration": 0.018229166666664298,
          "durationTicks": 7,
          "midi": 35,
          "name": "B1",
          "ticks": 22464,
          "time": 58.5,
          "velocity": 0.5511811023622047
        },
        {
          "duration": 0.018229166666664298,
          "durationTicks": 7,
          "midi": 36,
          "name": "C2",
          "ticks": 22512,
          "time": 58.625,
          "velocity": 0.8661417322834646
        },
        {
          "duration": 0.018229166666664298,
          "durationTicks": 7,
          "midi": 35,
          "name": "B1",
          "ticks": 22512,
          "time": 58.625,
          "velocity": 0.5511811023622047
        },
        {
          "duration": 0.018229166666664298,
          "durationTicks": 7,
          "midi": 40,
          "name": "E2",
          "ticks": 22560,
          "time": 58.75,
          "velocity": 0.5511811023622047
        },
        {
          "duration": 0.018229166666664298,
          "durationTicks": 7,
          "midi": 38,
          "name": "D2",
          "ticks": 22560,
          "time": 58.75,
          "velocity": 0.8661417322834646
        },
        {
          "duration": 0.018229166666664298,
          "durationTicks": 7,
          "midi": 36,
          "name": "C2",
          "ticks": 22608,
          "time": 58.875,
          "velocity": 0.8661417322834646
        },
        {
          "duration": 0.018229166666664298,
          "durationTicks": 7,
          "midi": 35,
          "name": "B1",
          "ticks": 22608,
          "time": 58.875,
          "velocity": 0.5511811023622047
        },
        {
          "duration": 0.018229166666664298,
          "durationTicks": 7,
          "midi": 36,
          "name": "C2",
          "ticks": 22704,
          "time": 59.125,
          "velocity": 0.8661417322834646
        },
        {
          "duration": 0.018229166666664298,
          "durationTicks": 7,
          "midi": 35,
          "name": "B1",
          "ticks": 22704,
          "time": 59.125,
          "velocity": 0.5511811023622047
        },
        {
          "duration": 0.018229166666664298,
          "durationTicks": 7,
          "midi": 40,
          "name": "E2",
          "ticks": 22752,
          "time": 59.25,
          "velocity": 0.5511811023622047
        },
        {
          "duration": 0.018229166666664298,
          "durationTicks": 7,
          "midi": 38,
          "name": "D2",
          "ticks": 22752,
          "time": 59.25,
          "velocity": 0.8661417322834646
        },
        {
          "duration": 0.018229166666664298,
          "durationTicks": 7,
          "midi": 36,
          "name": "C2",
          "ticks": 22848,
          "time": 59.5,
          "velocity": 0.8661417322834646
        },
        {
          "duration": 0.018229166666664298,
          "durationTicks": 7,
          "midi": 35,
          "name": "B1",
          "ticks": 22848,
          "time": 59.5,
          "velocity": 0.5511811023622047
        },
        {
          "duration": 0.018229166666664298,
          "durationTicks": 7,
          "midi": 36,
          "name": "C2",
          "ticks": 22896,
          "time": 59.625,
          "velocity": 0.8661417322834646
        },
        {
          "duration": 0.018229166666664298,
          "durationTicks": 7,
          "midi": 35,
          "name": "B1",
          "ticks": 22896,
          "time": 59.625,
          "velocity": 0.5511811023622047
        },
        {
          "duration": 0.018229166666664298,
          "durationTicks": 7,
          "midi": 40,
          "name": "E2",
          "ticks": 22944,
          "time": 59.75,
          "velocity": 0.5511811023622047
        },
        {
          "duration": 0.018229166666664298,
          "durationTicks": 7,
          "midi": 38,
          "name": "D2",
          "ticks": 22944,
          "time": 59.75,
          "velocity": 0.8661417322834646
        },
        {
          "duration": 0.018229166666664298,
          "durationTicks": 7,
          "midi": 35,
          "name": "B1",
          "ticks": 22992,
          "time": 59.875,
          "velocity": 0.5511811023622047
        },
        {
          "duration": 0.018229166666664298,
          "durationTicks": 7,
          "midi": 36,
          "name": "C2",
          "ticks": 23040,
          "time": 60,
          "velocity": 0.8661417322834646
        },
        {
          "duration": 0.018229166666664298,
          "durationTicks": 7,
          "midi": 35,
          "name": "B1",
          "ticks": 23040,
          "time": 60,
          "velocity": 0.5511811023622047
        },
        {
          "duration": 0.018229166666664298,
          "durationTicks": 7,
          "midi": 40,
          "name": "E2",
          "ticks": 23136,
          "time": 60.25,
          "velocity": 0.5511811023622047
        },
        {
          "duration": 0.018229166666664298,
          "durationTicks": 7,
          "midi": 38,
          "name": "D2",
          "ticks": 23136,
          "time": 60.25,
          "velocity": 0.8661417322834646
        },
        {
          "duration": 0.018229166666664298,
          "durationTicks": 7,
          "midi": 36,
          "name": "C2",
          "ticks": 23232,
          "time": 60.5,
          "velocity": 0.8661417322834646
        },
        {
          "duration": 0.018229166666664298,
          "durationTicks": 7,
          "midi": 35,
          "name": "B1",
          "ticks": 23232,
          "time": 60.5,
          "velocity": 0.5511811023622047
        },
        {
          "duration": 0.018229166666664298,
          "durationTicks": 7,
          "midi": 36,
          "name": "C2",
          "ticks": 23280,
          "time": 60.625,
          "velocity": 0.8661417322834646
        },
        {
          "duration": 0.018229166666664298,
          "durationTicks": 7,
          "midi": 35,
          "name": "B1",
          "ticks": 23280,
          "time": 60.625,
          "velocity": 0.5511811023622047
        },
        {
          "duration": 0.018229166666664298,
          "durationTicks": 7,
          "midi": 40,
          "name": "E2",
          "ticks": 23328,
          "time": 60.75,
          "velocity": 0.5511811023622047
        },
        {
          "duration": 0.018229166666664298,
          "durationTicks": 7,
          "midi": 38,
          "name": "D2",
          "ticks": 23328,
          "time": 60.75,
          "velocity": 0.8661417322834646
        },
        {
          "duration": 0.018229166666664298,
          "durationTicks": 7,
          "midi": 36,
          "name": "C2",
          "ticks": 23376,
          "time": 60.875,
          "velocity": 0.8661417322834646
        },
        {
          "duration": 0.018229166666664298,
          "durationTicks": 7,
          "midi": 35,
          "name": "B1",
          "ticks": 23376,
          "time": 60.875,
          "velocity": 0.5511811023622047
        },
        {
          "duration": 0.018229166666664298,
          "durationTicks": 7,
          "midi": 36,
          "name": "C2",
          "ticks": 23472,
          "time": 61.125,
          "velocity": 0.8661417322834646
        },
        {
          "duration": 0.018229166666664298,
          "durationTicks": 7,
          "midi": 35,
          "name": "B1",
          "ticks": 23472,
          "time": 61.125,
          "velocity": 0.5511811023622047
        },
        {
          "duration": 0.018229166666664298,
          "durationTicks": 7,
          "midi": 40,
          "name": "E2",
          "ticks": 23520,
          "time": 61.25,
          "velocity": 0.5511811023622047
        },
        {
          "duration": 0.018229166666664298,
          "durationTicks": 7,
          "midi": 38,
          "name": "D2",
          "ticks": 23520,
          "time": 61.25,
          "velocity": 0.8661417322834646
        },
        {
          "duration": 0.018229166666664298,
          "durationTicks": 7,
          "midi": 36,
          "name": "C2",
          "ticks": 23616,
          "time": 61.5,
          "velocity": 0.8661417322834646
        },
        {
          "duration": 0.018229166666664298,
          "durationTicks": 7,
          "midi": 35,
          "name": "B1",
          "ticks": 23616,
          "time": 61.5,
          "velocity": 0.5511811023622047
        },
        {
          "duration": 0.018229166666664298,
          "durationTicks": 7,
          "midi": 36,
          "name": "C2",
          "ticks": 23664,
          "time": 61.625,
          "velocity": 0.8661417322834646
        },
        {
          "duration": 0.018229166666664298,
          "durationTicks": 7,
          "midi": 35,
          "name": "B1",
          "ticks": 23664,
          "time": 61.625,
          "velocity": 0.5511811023622047
        },
        {
          "duration": 0.018229166666664298,
          "durationTicks": 7,
          "midi": 40,
          "name": "E2",
          "ticks": 23712,
          "time": 61.75,
          "velocity": 0.5511811023622047
        },
        {
          "duration": 0.018229166666664298,
          "durationTicks": 7,
          "midi": 38,
          "name": "D2",
          "ticks": 23712,
          "time": 61.75,
          "velocity": 0.8661417322834646
        },
        {
          "duration": 0.018229166666664298,
          "durationTicks": 7,
          "midi": 35,
          "name": "B1",
          "ticks": 23760,
          "time": 61.875,
          "velocity": 0.5511811023622047
        },
        {
          "duration": 0.018229166666664298,
          "durationTicks": 7,
          "midi": 36,
          "name": "C2",
          "ticks": 23808,
          "time": 62,
          "velocity": 0.8661417322834646
        },
        {
          "duration": 0.018229166666664298,
          "durationTicks": 7,
          "midi": 35,
          "name": "B1",
          "ticks": 23808,
          "time": 62,
          "velocity": 0.5511811023622047
        },
        {
          "duration": 0.018229166666664298,
          "durationTicks": 7,
          "midi": 40,
          "name": "E2",
          "ticks": 23904,
          "time": 62.25,
          "velocity": 0.5511811023622047
        },
        {
          "duration": 0.018229166666664298,
          "durationTicks": 7,
          "midi": 38,
          "name": "D2",
          "ticks": 23904,
          "time": 62.25,
          "velocity": 0.8661417322834646
        },
        {
          "duration": 0.018229166666664298,
          "durationTicks": 7,
          "midi": 36,
          "name": "C2",
          "ticks": 24000,
          "time": 62.5,
          "velocity": 0.8661417322834646
        },
        {
          "duration": 0.018229166666664298,
          "durationTicks": 7,
          "midi": 35,
          "name": "B1",
          "ticks": 24000,
          "time": 62.5,
          "velocity": 0.5511811023622047
        },
        {
          "duration": 0.018229166666664298,
          "durationTicks": 7,
          "midi": 36,
          "name": "C2",
          "ticks": 24048,
          "time": 62.625,
          "velocity": 0.8661417322834646
        },
        {
          "duration": 0.018229166666664298,
          "durationTicks": 7,
          "midi": 35,
          "name": "B1",
          "ticks": 24048,
          "time": 62.625,
          "velocity": 0.5511811023622047
        },
        {
          "duration": 0.018229166666664298,
          "durationTicks": 7,
          "midi": 40,
          "name": "E2",
          "ticks": 24096,
          "time": 62.75,
          "velocity": 0.5511811023622047
        },
        {
          "duration": 0.018229166666664298,
          "durationTicks": 7,
          "midi": 38,
          "name": "D2",
          "ticks": 24096,
          "time": 62.75,
          "velocity": 0.8661417322834646
        },
        {
          "duration": 0.018229166666664298,
          "durationTicks": 7,
          "midi": 36,
          "name": "C2",
          "ticks": 24144,
          "time": 62.875,
          "velocity": 0.8661417322834646
        },
        {
          "duration": 0.018229166666664298,
          "durationTicks": 7,
          "midi": 35,
          "name": "B1",
          "ticks": 24144,
          "time": 62.875,
          "velocity": 0.5511811023622047
        },
        {
          "duration": 0.018229166666664298,
          "durationTicks": 7,
          "midi": 40,
          "name": "E2",
          "ticks": 24192,
          "time": 63,
          "velocity": 0.5511811023622047
        },
        {
          "duration": 0.018229166666664298,
          "durationTicks": 7,
          "midi": 38,
          "name": "D2",
          "ticks": 24192,
          "time": 63,
          "velocity": 0.8661417322834646
        },
        {
          "duration": 0.018229166666664298,
          "durationTicks": 7,
          "midi": 36,
          "name": "C2",
          "ticks": 24240,
          "time": 63.125,
          "velocity": 0.8661417322834646
        },
        {
          "duration": 0.018229166666664298,
          "durationTicks": 7,
          "midi": 35,
          "name": "B1",
          "ticks": 24240,
          "time": 63.125,
          "velocity": 0.5511811023622047
        },
        {
          "duration": 0.018229166666664298,
          "durationTicks": 7,
          "midi": 36,
          "name": "C2",
          "ticks": 24288,
          "time": 63.25,
          "velocity": 0.6299212598425197
        },
        {
          "duration": 0.018229166666664298,
          "durationTicks": 7,
          "midi": 38,
          "name": "D2",
          "ticks": 24288,
          "time": 63.25,
          "velocity": 0.8661417322834646
        },
        {
          "duration": 0.018229166666664298,
          "durationTicks": 7,
          "midi": 40,
          "name": "E2",
          "ticks": 24336,
          "time": 63.375,
          "velocity": 0.5511811023622047
        },
        {
          "duration": 0.018229166666664298,
          "durationTicks": 7,
          "midi": 38,
          "name": "D2",
          "ticks": 24336,
          "time": 63.375,
          "velocity": 0.8661417322834646
        },
        {
          "duration": 0.018229166666664298,
          "durationTicks": 7,
          "midi": 36,
          "name": "C2",
          "ticks": 24384,
          "time": 63.5,
          "velocity": 0.8661417322834646
        },
        {
          "duration": 0.018229166666664298,
          "durationTicks": 7,
          "midi": 35,
          "name": "B1",
          "ticks": 24384,
          "time": 63.5,
          "velocity": 0.5511811023622047
        },
        {
          "duration": 0.018229166666664298,
          "durationTicks": 7,
          "midi": 38,
          "name": "D2",
          "ticks": 24432,
          "time": 63.625,
          "velocity": 0.8661417322834646
        },
        {
          "duration": 0.018229166666664298,
          "durationTicks": 7,
          "midi": 36,
          "name": "C2",
          "ticks": 24432,
          "time": 63.625,
          "velocity": 0.6299212598425197
        },
        {
          "duration": 0.018229166666664298,
          "durationTicks": 7,
          "midi": 40,
          "name": "E2",
          "ticks": 24480,
          "time": 63.75,
          "velocity": 0.5511811023622047
        },
        {
          "duration": 0.018229166666664298,
          "durationTicks": 7,
          "midi": 38,
          "name": "D2",
          "ticks": 24480,
          "time": 63.75,
          "velocity": 0.8661417322834646
        },
        {
          "duration": 0.020833333333335702,
          "durationTicks": 8,
          "midi": 36,
          "name": "C2",
          "ticks": 24528,
          "time": 63.875,
          "velocity": 0.6299212598425197
        },
        {
          "duration": 0.020833333333335702,
          "durationTicks": 8,
          "midi": 36,
          "name": "C2",
          "ticks": 24552,
          "time": 63.9375,
          "velocity": 0.6299212598425197
        },
        {
          "duration": 0.018229166666671404,
          "durationTicks": 7,
          "midi": 36,
          "name": "C2",
          "ticks": 24576,
          "time": 64,
          "velocity": 0.8661417322834646
        },
        {
          "duration": 0.018229166666671404,
          "durationTicks": 7,
          "midi": 35,
          "name": "B1",
          "ticks": 24576,
          "time": 64,
          "velocity": 0.5511811023622047
        },
        {
          "duration": 0.018229166666671404,
          "durationTicks": 7,
          "midi": 40,
          "name": "E2",
          "ticks": 24672,
          "time": 64.25,
          "velocity": 0.5511811023622047
        },
        {
          "duration": 0.018229166666671404,
          "durationTicks": 7,
          "midi": 38,
          "name": "D2",
          "ticks": 24672,
          "time": 64.25,
          "velocity": 0.8661417322834646
        },
        {
          "duration": 0.018229166666671404,
          "durationTicks": 7,
          "midi": 36,
          "name": "C2",
          "ticks": 24768,
          "time": 64.5,
          "velocity": 0.8661417322834646
        },
        {
          "duration": 0.018229166666671404,
          "durationTicks": 7,
          "midi": 35,
          "name": "B1",
          "ticks": 24768,
          "time": 64.5,
          "velocity": 0.5511811023622047
        },
        {
          "duration": 0.018229166666671404,
          "durationTicks": 7,
          "midi": 36,
          "name": "C2",
          "ticks": 24816,
          "time": 64.625,
          "velocity": 0.8661417322834646
        },
        {
          "duration": 0.018229166666671404,
          "durationTicks": 7,
          "midi": 35,
          "name": "B1",
          "ticks": 24816,
          "time": 64.625,
          "velocity": 0.5511811023622047
        },
        {
          "duration": 0.018229166666671404,
          "durationTicks": 7,
          "midi": 40,
          "name": "E2",
          "ticks": 24864,
          "time": 64.75,
          "velocity": 0.5511811023622047
        },
        {
          "duration": 0.018229166666671404,
          "durationTicks": 7,
          "midi": 38,
          "name": "D2",
          "ticks": 24864,
          "time": 64.75,
          "velocity": 0.8661417322834646
        },
        {
          "duration": 0.018229166666671404,
          "durationTicks": 7,
          "midi": 36,
          "name": "C2",
          "ticks": 24912,
          "time": 64.875,
          "velocity": 0.8661417322834646
        },
        {
          "duration": 0.018229166666671404,
          "durationTicks": 7,
          "midi": 35,
          "name": "B1",
          "ticks": 24912,
          "time": 64.875,
          "velocity": 0.5511811023622047
        },
        {
          "duration": 0.018229166666671404,
          "durationTicks": 7,
          "midi": 36,
          "name": "C2",
          "ticks": 25008,
          "time": 65.125,
          "velocity": 0.8661417322834646
        },
        {
          "duration": 0.018229166666671404,
          "durationTicks": 7,
          "midi": 35,
          "name": "B1",
          "ticks": 25008,
          "time": 65.125,
          "velocity": 0.5511811023622047
        },
        {
          "duration": 0.018229166666671404,
          "durationTicks": 7,
          "midi": 40,
          "name": "E2",
          "ticks": 25056,
          "time": 65.25,
          "velocity": 0.5511811023622047
        },
        {
          "duration": 0.018229166666671404,
          "durationTicks": 7,
          "midi": 38,
          "name": "D2",
          "ticks": 25056,
          "time": 65.25,
          "velocity": 0.8661417322834646
        },
        {
          "duration": 0.018229166666671404,
          "durationTicks": 7,
          "midi": 36,
          "name": "C2",
          "ticks": 25152,
          "time": 65.5,
          "velocity": 0.8661417322834646
        },
        {
          "duration": 0.018229166666671404,
          "durationTicks": 7,
          "midi": 35,
          "name": "B1",
          "ticks": 25152,
          "time": 65.5,
          "velocity": 0.5511811023622047
        },
        {
          "duration": 0.018229166666671404,
          "durationTicks": 7,
          "midi": 36,
          "name": "C2",
          "ticks": 25200,
          "time": 65.625,
          "velocity": 0.8661417322834646
        },
        {
          "duration": 0.018229166666671404,
          "durationTicks": 7,
          "midi": 35,
          "name": "B1",
          "ticks": 25200,
          "time": 65.625,
          "velocity": 0.5511811023622047
        },
        {
          "duration": 0.018229166666671404,
          "durationTicks": 7,
          "midi": 40,
          "name": "E2",
          "ticks": 25248,
          "time": 65.75,
          "velocity": 0.5511811023622047
        },
        {
          "duration": 0.018229166666671404,
          "durationTicks": 7,
          "midi": 38,
          "name": "D2",
          "ticks": 25248,
          "time": 65.75,
          "velocity": 0.8661417322834646
        },
        {
          "duration": 0.018229166666671404,
          "durationTicks": 7,
          "midi": 35,
          "name": "B1",
          "ticks": 25296,
          "time": 65.875,
          "velocity": 0.5511811023622047
        },
        {
          "duration": 0.018229166666671404,
          "durationTicks": 7,
          "midi": 36,
          "name": "C2",
          "ticks": 25344,
          "time": 66,
          "velocity": 0.8661417322834646
        },
        {
          "duration": 0.018229166666671404,
          "durationTicks": 7,
          "midi": 35,
          "name": "B1",
          "ticks": 25344,
          "time": 66,
          "velocity": 0.5511811023622047
        },
        {
          "duration": 0.018229166666671404,
          "durationTicks": 7,
          "midi": 40,
          "name": "E2",
          "ticks": 25440,
          "time": 66.25,
          "velocity": 0.5511811023622047
        },
        {
          "duration": 0.018229166666671404,
          "durationTicks": 7,
          "midi": 38,
          "name": "D2",
          "ticks": 25440,
          "time": 66.25,
          "velocity": 0.8661417322834646
        },
        {
          "duration": 0.018229166666671404,
          "durationTicks": 7,
          "midi": 36,
          "name": "C2",
          "ticks": 25536,
          "time": 66.5,
          "velocity": 0.8661417322834646
        },
        {
          "duration": 0.018229166666671404,
          "durationTicks": 7,
          "midi": 35,
          "name": "B1",
          "ticks": 25536,
          "time": 66.5,
          "velocity": 0.5511811023622047
        },
        {
          "duration": 0.018229166666671404,
          "durationTicks": 7,
          "midi": 36,
          "name": "C2",
          "ticks": 25584,
          "time": 66.625,
          "velocity": 0.8661417322834646
        },
        {
          "duration": 0.018229166666671404,
          "durationTicks": 7,
          "midi": 35,
          "name": "B1",
          "ticks": 25584,
          "time": 66.625,
          "velocity": 0.5511811023622047
        },
        {
          "duration": 0.018229166666671404,
          "durationTicks": 7,
          "midi": 40,
          "name": "E2",
          "ticks": 25632,
          "time": 66.75,
          "velocity": 0.5511811023622047
        },
        {
          "duration": 0.018229166666671404,
          "durationTicks": 7,
          "midi": 38,
          "name": "D2",
          "ticks": 25632,
          "time": 66.75,
          "velocity": 0.8661417322834646
        },
        {
          "duration": 0.018229166666671404,
          "durationTicks": 7,
          "midi": 36,
          "name": "C2",
          "ticks": 25680,
          "time": 66.875,
          "velocity": 0.8661417322834646
        },
        {
          "duration": 0.018229166666671404,
          "durationTicks": 7,
          "midi": 35,
          "name": "B1",
          "ticks": 25680,
          "time": 66.875,
          "velocity": 0.5511811023622047
        },
        {
          "duration": 0.018229166666671404,
          "durationTicks": 7,
          "midi": 36,
          "name": "C2",
          "ticks": 25776,
          "time": 67.125,
          "velocity": 0.8661417322834646
        },
        {
          "duration": 0.018229166666671404,
          "durationTicks": 7,
          "midi": 35,
          "name": "B1",
          "ticks": 25776,
          "time": 67.125,
          "velocity": 0.5511811023622047
        },
        {
          "duration": 0.018229166666671404,
          "durationTicks": 7,
          "midi": 40,
          "name": "E2",
          "ticks": 25824,
          "time": 67.25,
          "velocity": 0.5511811023622047
        },
        {
          "duration": 0.018229166666671404,
          "durationTicks": 7,
          "midi": 38,
          "name": "D2",
          "ticks": 25824,
          "time": 67.25,
          "velocity": 0.8661417322834646
        },
        {
          "duration": 0.018229166666671404,
          "durationTicks": 7,
          "midi": 36,
          "name": "C2",
          "ticks": 25920,
          "time": 67.5,
          "velocity": 0.8661417322834646
        },
        {
          "duration": 0.018229166666671404,
          "durationTicks": 7,
          "midi": 35,
          "name": "B1",
          "ticks": 25920,
          "time": 67.5,
          "velocity": 0.5511811023622047
        },
        {
          "duration": 0.018229166666671404,
          "durationTicks": 7,
          "midi": 36,
          "name": "C2",
          "ticks": 25968,
          "time": 67.625,
          "velocity": 0.8661417322834646
        },
        {
          "duration": 0.018229166666671404,
          "durationTicks": 7,
          "midi": 35,
          "name": "B1",
          "ticks": 25968,
          "time": 67.625,
          "velocity": 0.5511811023622047
        },
        {
          "duration": 0.018229166666671404,
          "durationTicks": 7,
          "midi": 40,
          "name": "E2",
          "ticks": 26016,
          "time": 67.75,
          "velocity": 0.5511811023622047
        },
        {
          "duration": 0.018229166666671404,
          "durationTicks": 7,
          "midi": 38,
          "name": "D2",
          "ticks": 26016,
          "time": 67.75,
          "velocity": 0.8661417322834646
        },
        {
          "duration": 0.018229166666671404,
          "durationTicks": 7,
          "midi": 35,
          "name": "B1",
          "ticks": 26064,
          "time": 67.875,
          "velocity": 0.5511811023622047
        },
        {
          "duration": 0.018229166666671404,
          "durationTicks": 7,
          "midi": 36,
          "name": "C2",
          "ticks": 26112,
          "time": 68,
          "velocity": 0.8661417322834646
        },
        {
          "duration": 0.018229166666671404,
          "durationTicks": 7,
          "midi": 35,
          "name": "B1",
          "ticks": 26112,
          "time": 68,
          "velocity": 0.5511811023622047
        },
        {
          "duration": 0.018229166666671404,
          "durationTicks": 7,
          "midi": 40,
          "name": "E2",
          "ticks": 26208,
          "time": 68.25,
          "velocity": 0.5511811023622047
        },
        {
          "duration": 0.018229166666671404,
          "durationTicks": 7,
          "midi": 38,
          "name": "D2",
          "ticks": 26208,
          "time": 68.25,
          "velocity": 0.8661417322834646
        },
        {
          "duration": 0.018229166666671404,
          "durationTicks": 7,
          "midi": 36,
          "name": "C2",
          "ticks": 26304,
          "time": 68.5,
          "velocity": 0.8661417322834646
        },
        {
          "duration": 0.018229166666671404,
          "durationTicks": 7,
          "midi": 35,
          "name": "B1",
          "ticks": 26304,
          "time": 68.5,
          "velocity": 0.5511811023622047
        },
        {
          "duration": 0.018229166666671404,
          "durationTicks": 7,
          "midi": 36,
          "name": "C2",
          "ticks": 26352,
          "time": 68.625,
          "velocity": 0.8661417322834646
        },
        {
          "duration": 0.018229166666671404,
          "durationTicks": 7,
          "midi": 35,
          "name": "B1",
          "ticks": 26352,
          "time": 68.625,
          "velocity": 0.5511811023622047
        },
        {
          "duration": 0.018229166666671404,
          "durationTicks": 7,
          "midi": 40,
          "name": "E2",
          "ticks": 26400,
          "time": 68.75,
          "velocity": 0.5511811023622047
        },
        {
          "duration": 0.018229166666671404,
          "durationTicks": 7,
          "midi": 38,
          "name": "D2",
          "ticks": 26400,
          "time": 68.75,
          "velocity": 0.8661417322834646
        },
        {
          "duration": 0.018229166666671404,
          "durationTicks": 7,
          "midi": 36,
          "name": "C2",
          "ticks": 26448,
          "time": 68.875,
          "velocity": 0.8661417322834646
        },
        {
          "duration": 0.018229166666671404,
          "durationTicks": 7,
          "midi": 35,
          "name": "B1",
          "ticks": 26448,
          "time": 68.875,
          "velocity": 0.5511811023622047
        },
        {
          "duration": 0.018229166666671404,
          "durationTicks": 7,
          "midi": 36,
          "name": "C2",
          "ticks": 26544,
          "time": 69.125,
          "velocity": 0.8661417322834646
        },
        {
          "duration": 0.018229166666671404,
          "durationTicks": 7,
          "midi": 35,
          "name": "B1",
          "ticks": 26544,
          "time": 69.125,
          "velocity": 0.5511811023622047
        },
        {
          "duration": 0.018229166666671404,
          "durationTicks": 7,
          "midi": 40,
          "name": "E2",
          "ticks": 26592,
          "time": 69.25,
          "velocity": 0.5511811023622047
        },
        {
          "duration": 0.018229166666671404,
          "durationTicks": 7,
          "midi": 38,
          "name": "D2",
          "ticks": 26592,
          "time": 69.25,
          "velocity": 0.8661417322834646
        },
        {
          "duration": 0.018229166666671404,
          "durationTicks": 7,
          "midi": 36,
          "name": "C2",
          "ticks": 26688,
          "time": 69.5,
          "velocity": 0.8661417322834646
        },
        {
          "duration": 0.018229166666671404,
          "durationTicks": 7,
          "midi": 35,
          "name": "B1",
          "ticks": 26688,
          "time": 69.5,
          "velocity": 0.5511811023622047
        },
        {
          "duration": 0.018229166666671404,
          "durationTicks": 7,
          "midi": 36,
          "name": "C2",
          "ticks": 26736,
          "time": 69.625,
          "velocity": 0.8661417322834646
        },
        {
          "duration": 0.018229166666671404,
          "durationTicks": 7,
          "midi": 35,
          "name": "B1",
          "ticks": 26736,
          "time": 69.625,
          "velocity": 0.5511811023622047
        },
        {
          "duration": 0.018229166666671404,
          "durationTicks": 7,
          "midi": 40,
          "name": "E2",
          "ticks": 26784,
          "time": 69.75,
          "velocity": 0.5511811023622047
        },
        {
          "duration": 0.018229166666671404,
          "durationTicks": 7,
          "midi": 38,
          "name": "D2",
          "ticks": 26784,
          "time": 69.75,
          "velocity": 0.8661417322834646
        },
        {
          "duration": 0.018229166666671404,
          "durationTicks": 7,
          "midi": 35,
          "name": "B1",
          "ticks": 26832,
          "time": 69.875,
          "velocity": 0.5511811023622047
        },
        {
          "duration": 0.018229166666671404,
          "durationTicks": 7,
          "midi": 35,
          "name": "B1",
          "ticks": 26880,
          "time": 70,
          "velocity": 0.5511811023622047
        },
        {
          "duration": 0.018229166666671404,
          "durationTicks": 7,
          "midi": 36,
          "name": "C2",
          "ticks": 26880,
          "time": 70,
          "velocity": 0.8661417322834646
        },
        {
          "duration": 0.018229166666671404,
          "durationTicks": 7,
          "midi": 38,
          "name": "D2",
          "ticks": 26976,
          "time": 70.25,
          "velocity": 0.8661417322834646
        },
        {
          "duration": 0.018229166666671404,
          "durationTicks": 7,
          "midi": 40,
          "name": "E2",
          "ticks": 26976,
          "time": 70.25,
          "velocity": 0.5511811023622047
        },
        {
          "duration": 0.018229166666671404,
          "durationTicks": 7,
          "midi": 35,
          "name": "B1",
          "ticks": 27072,
          "time": 70.5,
          "velocity": 0.5511811023622047
        },
        {
          "duration": 0.018229166666671404,
          "durationTicks": 7,
          "midi": 36,
          "name": "C2",
          "ticks": 27072,
          "time": 70.5,
          "velocity": 0.8661417322834646
        },
        {
          "duration": 0.018229166666671404,
          "durationTicks": 7,
          "midi": 35,
          "name": "B1",
          "ticks": 27120,
          "time": 70.625,
          "velocity": 0.5511811023622047
        },
        {
          "duration": 0.018229166666671404,
          "durationTicks": 7,
          "midi": 36,
          "name": "C2",
          "ticks": 27120,
          "time": 70.625,
          "velocity": 0.8661417322834646
        },
        {
          "duration": 0.018229166666671404,
          "durationTicks": 7,
          "midi": 38,
          "name": "D2",
          "ticks": 27168,
          "time": 70.75,
          "velocity": 0.8661417322834646
        },
        {
          "duration": 0.018229166666671404,
          "durationTicks": 7,
          "midi": 40,
          "name": "E2",
          "ticks": 27168,
          "time": 70.75,
          "velocity": 0.5511811023622047
        },
        {
          "duration": 0.018229166666671404,
          "durationTicks": 7,
          "midi": 35,
          "name": "B1",
          "ticks": 27216,
          "time": 70.875,
          "velocity": 0.5511811023622047
        },
        {
          "duration": 0.018229166666671404,
          "durationTicks": 7,
          "midi": 36,
          "name": "C2",
          "ticks": 27216,
          "time": 70.875,
          "velocity": 0.8661417322834646
        },
        {
          "duration": 0.018229166666671404,
          "durationTicks": 7,
          "midi": 38,
          "name": "D2",
          "ticks": 27264,
          "time": 71,
          "velocity": 0.8661417322834646
        },
        {
          "duration": 0.018229166666671404,
          "durationTicks": 7,
          "midi": 40,
          "name": "E2",
          "ticks": 27264,
          "time": 71,
          "velocity": 0.5511811023622047
        },
        {
          "duration": 0.018229166666671404,
          "durationTicks": 7,
          "midi": 35,
          "name": "B1",
          "ticks": 27312,
          "time": 71.125,
          "velocity": 0.5511811023622047
        },
        {
          "duration": 0.018229166666671404,
          "durationTicks": 7,
          "midi": 36,
          "name": "C2",
          "ticks": 27312,
          "time": 71.125,
          "velocity": 0.8661417322834646
        },
        {
          "duration": 0.018229166666671404,
          "durationTicks": 7,
          "midi": 38,
          "name": "D2",
          "ticks": 27360,
          "time": 71.25,
          "velocity": 0.8661417322834646
        },
        {
          "duration": 0.018229166666671404,
          "durationTicks": 7,
          "midi": 36,
          "name": "C2",
          "ticks": 27360,
          "time": 71.25,
          "velocity": 0.6299212598425197
        },
        {
          "duration": 0.018229166666671404,
          "durationTicks": 7,
          "midi": 38,
          "name": "D2",
          "ticks": 27408,
          "time": 71.375,
          "velocity": 0.8661417322834646
        },
        {
          "duration": 0.018229166666671404,
          "durationTicks": 7,
          "midi": 40,
          "name": "E2",
          "ticks": 27408,
          "time": 71.375,
          "velocity": 0.5511811023622047
        },
        {
          "duration": 0.018229166666671404,
          "durationTicks": 7,
          "midi": 35,
          "name": "B1",
          "ticks": 27456,
          "time": 71.5,
          "velocity": 0.5511811023622047
        },
        {
          "duration": 0.018229166666671404,
          "durationTicks": 7,
          "midi": 36,
          "name": "C2",
          "ticks": 27456,
          "time": 71.5,
          "velocity": 0.8661417322834646
        },
        {
          "duration": 0.018229166666671404,
          "durationTicks": 7,
          "midi": 36,
          "name": "C2",
          "ticks": 27504,
          "time": 71.625,
          "velocity": 0.6299212598425197
        },
        {
          "duration": 0.018229166666671404,
          "durationTicks": 7,
          "midi": 38,
          "name": "D2",
          "ticks": 27504,
          "time": 71.625,
          "velocity": 0.8661417322834646
        },
        {
          "duration": 0.018229166666671404,
          "durationTicks": 7,
          "midi": 38,
          "name": "D2",
          "ticks": 27552,
          "time": 71.75,
          "velocity": 0.8661417322834646
        },
        {
          "duration": 0.018229166666671404,
          "durationTicks": 7,
          "midi": 40,
          "name": "E2",
          "ticks": 27552,
          "time": 71.75,
          "velocity": 0.5511811023622047
        },
        {
          "duration": 0.020833333333328596,
          "durationTicks": 8,
          "midi": 36,
          "name": "C2",
          "ticks": 27600,
          "time": 71.875,
          "velocity": 0.6299212598425197
        },
        {
          "duration": 0.020833333333328596,
          "durationTicks": 8,
          "midi": 36,
          "name": "C2",
          "ticks": 27624,
          "time": 71.9375,
          "velocity": 0.6299212598425197
        },
        {
          "duration": 0.018229166666671404,
          "durationTicks": 7,
          "midi": 36,
          "name": "C2",
          "ticks": 27648,
          "time": 72,
          "velocity": 0.8661417322834646
        },
        {
          "duration": 0.018229166666671404,
          "durationTicks": 7,
          "midi": 35,
          "name": "B1",
          "ticks": 27648,
          "time": 72,
          "velocity": 0.5511811023622047
        },
        {
          "duration": 0.018229166666671404,
          "durationTicks": 7,
          "midi": 40,
          "name": "E2",
          "ticks": 27744,
          "time": 72.25,
          "velocity": 0.5511811023622047
        },
        {
          "duration": 0.018229166666671404,
          "durationTicks": 7,
          "midi": 38,
          "name": "D2",
          "ticks": 27744,
          "time": 72.25,
          "velocity": 0.8661417322834646
        },
        {
          "duration": 0.018229166666671404,
          "durationTicks": 7,
          "midi": 36,
          "name": "C2",
          "ticks": 27840,
          "time": 72.5,
          "velocity": 0.8661417322834646
        },
        {
          "duration": 0.018229166666671404,
          "durationTicks": 7,
          "midi": 35,
          "name": "B1",
          "ticks": 27840,
          "time": 72.5,
          "velocity": 0.5511811023622047
        },
        {
          "duration": 0.018229166666671404,
          "durationTicks": 7,
          "midi": 36,
          "name": "C2",
          "ticks": 27888,
          "time": 72.625,
          "velocity": 0.8661417322834646
        },
        {
          "duration": 0.018229166666671404,
          "durationTicks": 7,
          "midi": 35,
          "name": "B1",
          "ticks": 27888,
          "time": 72.625,
          "velocity": 0.5511811023622047
        },
        {
          "duration": 0.018229166666671404,
          "durationTicks": 7,
          "midi": 40,
          "name": "E2",
          "ticks": 27936,
          "time": 72.75,
          "velocity": 0.5511811023622047
        },
        {
          "duration": 0.018229166666671404,
          "durationTicks": 7,
          "midi": 38,
          "name": "D2",
          "ticks": 27936,
          "time": 72.75,
          "velocity": 0.8661417322834646
        },
        {
          "duration": 0.018229166666671404,
          "durationTicks": 7,
          "midi": 36,
          "name": "C2",
          "ticks": 27984,
          "time": 72.875,
          "velocity": 0.8661417322834646
        },
        {
          "duration": 0.018229166666671404,
          "durationTicks": 7,
          "midi": 35,
          "name": "B1",
          "ticks": 27984,
          "time": 72.875,
          "velocity": 0.5511811023622047
        },
        {
          "duration": 0.018229166666671404,
          "durationTicks": 7,
          "midi": 36,
          "name": "C2",
          "ticks": 28080,
          "time": 73.125,
          "velocity": 0.8661417322834646
        },
        {
          "duration": 0.018229166666671404,
          "durationTicks": 7,
          "midi": 35,
          "name": "B1",
          "ticks": 28080,
          "time": 73.125,
          "velocity": 0.5511811023622047
        },
        {
          "duration": 0.018229166666671404,
          "durationTicks": 7,
          "midi": 40,
          "name": "E2",
          "ticks": 28128,
          "time": 73.25,
          "velocity": 0.5511811023622047
        },
        {
          "duration": 0.018229166666671404,
          "durationTicks": 7,
          "midi": 38,
          "name": "D2",
          "ticks": 28128,
          "time": 73.25,
          "velocity": 0.8661417322834646
        },
        {
          "duration": 0.018229166666671404,
          "durationTicks": 7,
          "midi": 36,
          "name": "C2",
          "ticks": 28224,
          "time": 73.5,
          "velocity": 0.8661417322834646
        },
        {
          "duration": 0.018229166666671404,
          "durationTicks": 7,
          "midi": 35,
          "name": "B1",
          "ticks": 28224,
          "time": 73.5,
          "velocity": 0.5511811023622047
        },
        {
          "duration": 0.018229166666671404,
          "durationTicks": 7,
          "midi": 36,
          "name": "C2",
          "ticks": 28272,
          "time": 73.625,
          "velocity": 0.8661417322834646
        },
        {
          "duration": 0.018229166666671404,
          "durationTicks": 7,
          "midi": 35,
          "name": "B1",
          "ticks": 28272,
          "time": 73.625,
          "velocity": 0.5511811023622047
        },
        {
          "duration": 0.018229166666671404,
          "durationTicks": 7,
          "midi": 40,
          "name": "E2",
          "ticks": 28320,
          "time": 73.75,
          "velocity": 0.5511811023622047
        },
        {
          "duration": 0.018229166666671404,
          "durationTicks": 7,
          "midi": 38,
          "name": "D2",
          "ticks": 28320,
          "time": 73.75,
          "velocity": 0.8661417322834646
        },
        {
          "duration": 0.018229166666671404,
          "durationTicks": 7,
          "midi": 35,
          "name": "B1",
          "ticks": 28368,
          "time": 73.875,
          "velocity": 0.5511811023622047
        },
        {
          "duration": 0.018229166666671404,
          "durationTicks": 7,
          "midi": 36,
          "name": "C2",
          "ticks": 28416,
          "time": 74,
          "velocity": 0.8661417322834646
        },
        {
          "duration": 0.018229166666671404,
          "durationTicks": 7,
          "midi": 35,
          "name": "B1",
          "ticks": 28416,
          "time": 74,
          "velocity": 0.5511811023622047
        },
        {
          "duration": 0.018229166666671404,
          "durationTicks": 7,
          "midi": 40,
          "name": "E2",
          "ticks": 28512,
          "time": 74.25,
          "velocity": 0.5511811023622047
        },
        {
          "duration": 0.018229166666671404,
          "durationTicks": 7,
          "midi": 38,
          "name": "D2",
          "ticks": 28512,
          "time": 74.25,
          "velocity": 0.8661417322834646
        },
        {
          "duration": 0.018229166666671404,
          "durationTicks": 7,
          "midi": 36,
          "name": "C2",
          "ticks": 28608,
          "time": 74.5,
          "velocity": 0.8661417322834646
        },
        {
          "duration": 0.018229166666671404,
          "durationTicks": 7,
          "midi": 35,
          "name": "B1",
          "ticks": 28608,
          "time": 74.5,
          "velocity": 0.5511811023622047
        },
        {
          "duration": 0.018229166666671404,
          "durationTicks": 7,
          "midi": 36,
          "name": "C2",
          "ticks": 28656,
          "time": 74.625,
          "velocity": 0.8661417322834646
        },
        {
          "duration": 0.018229166666671404,
          "durationTicks": 7,
          "midi": 35,
          "name": "B1",
          "ticks": 28656,
          "time": 74.625,
          "velocity": 0.5511811023622047
        },
        {
          "duration": 0.018229166666671404,
          "durationTicks": 7,
          "midi": 40,
          "name": "E2",
          "ticks": 28704,
          "time": 74.75,
          "velocity": 0.5511811023622047
        },
        {
          "duration": 0.018229166666671404,
          "durationTicks": 7,
          "midi": 38,
          "name": "D2",
          "ticks": 28704,
          "time": 74.75,
          "velocity": 0.8661417322834646
        },
        {
          "duration": 0.018229166666671404,
          "durationTicks": 7,
          "midi": 36,
          "name": "C2",
          "ticks": 28752,
          "time": 74.875,
          "velocity": 0.8661417322834646
        },
        {
          "duration": 0.018229166666671404,
          "durationTicks": 7,
          "midi": 35,
          "name": "B1",
          "ticks": 28752,
          "time": 74.875,
          "velocity": 0.5511811023622047
        },
        {
          "duration": 0.018229166666671404,
          "durationTicks": 7,
          "midi": 36,
          "name": "C2",
          "ticks": 28848,
          "time": 75.125,
          "velocity": 0.8661417322834646
        },
        {
          "duration": 0.018229166666671404,
          "durationTicks": 7,
          "midi": 35,
          "name": "B1",
          "ticks": 28848,
          "time": 75.125,
          "velocity": 0.5511811023622047
        },
        {
          "duration": 0.018229166666671404,
          "durationTicks": 7,
          "midi": 40,
          "name": "E2",
          "ticks": 28896,
          "time": 75.25,
          "velocity": 0.5511811023622047
        },
        {
          "duration": 0.018229166666671404,
          "durationTicks": 7,
          "midi": 38,
          "name": "D2",
          "ticks": 28896,
          "time": 75.25,
          "velocity": 0.8661417322834646
        },
        {
          "duration": 0.018229166666671404,
          "durationTicks": 7,
          "midi": 36,
          "name": "C2",
          "ticks": 28992,
          "time": 75.5,
          "velocity": 0.8661417322834646
        },
        {
          "duration": 0.018229166666671404,
          "durationTicks": 7,
          "midi": 35,
          "name": "B1",
          "ticks": 28992,
          "time": 75.5,
          "velocity": 0.5511811023622047
        },
        {
          "duration": 0.018229166666671404,
          "durationTicks": 7,
          "midi": 36,
          "name": "C2",
          "ticks": 29040,
          "time": 75.625,
          "velocity": 0.8661417322834646
        },
        {
          "duration": 0.018229166666671404,
          "durationTicks": 7,
          "midi": 35,
          "name": "B1",
          "ticks": 29040,
          "time": 75.625,
          "velocity": 0.5511811023622047
        },
        {
          "duration": 0.018229166666671404,
          "durationTicks": 7,
          "midi": 40,
          "name": "E2",
          "ticks": 29088,
          "time": 75.75,
          "velocity": 0.5511811023622047
        },
        {
          "duration": 0.018229166666671404,
          "durationTicks": 7,
          "midi": 38,
          "name": "D2",
          "ticks": 29088,
          "time": 75.75,
          "velocity": 0.8661417322834646
        },
        {
          "duration": 0.018229166666671404,
          "durationTicks": 7,
          "midi": 35,
          "name": "B1",
          "ticks": 29136,
          "time": 75.875,
          "velocity": 0.5511811023622047
        },
        {
          "duration": 0.018229166666671404,
          "durationTicks": 7,
          "midi": 36,
          "name": "C2",
          "ticks": 29184,
          "time": 76,
          "velocity": 0.8661417322834646
        },
        {
          "duration": 0.018229166666671404,
          "durationTicks": 7,
          "midi": 35,
          "name": "B1",
          "ticks": 29184,
          "time": 76,
          "velocity": 0.5511811023622047
        },
        {
          "duration": 0.018229166666671404,
          "durationTicks": 7,
          "midi": 40,
          "name": "E2",
          "ticks": 29280,
          "time": 76.25,
          "velocity": 0.5511811023622047
        },
        {
          "duration": 0.018229166666671404,
          "durationTicks": 7,
          "midi": 38,
          "name": "D2",
          "ticks": 29280,
          "time": 76.25,
          "velocity": 0.8661417322834646
        },
        {
          "duration": 0.018229166666671404,
          "durationTicks": 7,
          "midi": 36,
          "name": "C2",
          "ticks": 29376,
          "time": 76.5,
          "velocity": 0.8661417322834646
        },
        {
          "duration": 0.018229166666671404,
          "durationTicks": 7,
          "midi": 35,
          "name": "B1",
          "ticks": 29376,
          "time": 76.5,
          "velocity": 0.5511811023622047
        },
        {
          "duration": 0.018229166666671404,
          "durationTicks": 7,
          "midi": 36,
          "name": "C2",
          "ticks": 29424,
          "time": 76.625,
          "velocity": 0.8661417322834646
        },
        {
          "duration": 0.018229166666671404,
          "durationTicks": 7,
          "midi": 35,
          "name": "B1",
          "ticks": 29424,
          "time": 76.625,
          "velocity": 0.5511811023622047
        },
        {
          "duration": 0.018229166666671404,
          "durationTicks": 7,
          "midi": 40,
          "name": "E2",
          "ticks": 29472,
          "time": 76.75,
          "velocity": 0.5511811023622047
        },
        {
          "duration": 0.018229166666671404,
          "durationTicks": 7,
          "midi": 38,
          "name": "D2",
          "ticks": 29472,
          "time": 76.75,
          "velocity": 0.8661417322834646
        },
        {
          "duration": 0.018229166666671404,
          "durationTicks": 7,
          "midi": 36,
          "name": "C2",
          "ticks": 29520,
          "time": 76.875,
          "velocity": 0.8661417322834646
        },
        {
          "duration": 0.018229166666671404,
          "durationTicks": 7,
          "midi": 35,
          "name": "B1",
          "ticks": 29520,
          "time": 76.875,
          "velocity": 0.5511811023622047
        },
        {
          "duration": 0.018229166666671404,
          "durationTicks": 7,
          "midi": 36,
          "name": "C2",
          "ticks": 29616,
          "time": 77.125,
          "velocity": 0.8661417322834646
        },
        {
          "duration": 0.018229166666671404,
          "durationTicks": 7,
          "midi": 35,
          "name": "B1",
          "ticks": 29616,
          "time": 77.125,
          "velocity": 0.5511811023622047
        },
        {
          "duration": 0.018229166666671404,
          "durationTicks": 7,
          "midi": 40,
          "name": "E2",
          "ticks": 29664,
          "time": 77.25,
          "velocity": 0.5511811023622047
        },
        {
          "duration": 0.018229166666671404,
          "durationTicks": 7,
          "midi": 38,
          "name": "D2",
          "ticks": 29664,
          "time": 77.25,
          "velocity": 0.8661417322834646
        },
        {
          "duration": 0.018229166666671404,
          "durationTicks": 7,
          "midi": 36,
          "name": "C2",
          "ticks": 29760,
          "time": 77.5,
          "velocity": 0.8661417322834646
        },
        {
          "duration": 0.018229166666671404,
          "durationTicks": 7,
          "midi": 35,
          "name": "B1",
          "ticks": 29760,
          "time": 77.5,
          "velocity": 0.5511811023622047
        },
        {
          "duration": 0.018229166666671404,
          "durationTicks": 7,
          "midi": 36,
          "name": "C2",
          "ticks": 29808,
          "time": 77.625,
          "velocity": 0.8661417322834646
        },
        {
          "duration": 0.018229166666671404,
          "durationTicks": 7,
          "midi": 35,
          "name": "B1",
          "ticks": 29808,
          "time": 77.625,
          "velocity": 0.5511811023622047
        },
        {
          "duration": 0.018229166666671404,
          "durationTicks": 7,
          "midi": 40,
          "name": "E2",
          "ticks": 29856,
          "time": 77.75,
          "velocity": 0.5511811023622047
        },
        {
          "duration": 0.018229166666671404,
          "durationTicks": 7,
          "midi": 38,
          "name": "D2",
          "ticks": 29856,
          "time": 77.75,
          "velocity": 0.8661417322834646
        },
        {
          "duration": 0.018229166666671404,
          "durationTicks": 7,
          "midi": 35,
          "name": "B1",
          "ticks": 29904,
          "time": 77.875,
          "velocity": 0.5511811023622047
        },
        {
          "duration": 0.018229166666671404,
          "durationTicks": 7,
          "midi": 36,
          "name": "C2",
          "ticks": 29952,
          "time": 78,
          "velocity": 0.8661417322834646
        },
        {
          "duration": 0.018229166666671404,
          "durationTicks": 7,
          "midi": 35,
          "name": "B1",
          "ticks": 29952,
          "time": 78,
          "velocity": 0.5511811023622047
        },
        {
          "duration": 0.018229166666671404,
          "durationTicks": 7,
          "midi": 40,
          "name": "E2",
          "ticks": 30048,
          "time": 78.25,
          "velocity": 0.5511811023622047
        },
        {
          "duration": 0.018229166666671404,
          "durationTicks": 7,
          "midi": 38,
          "name": "D2",
          "ticks": 30048,
          "time": 78.25,
          "velocity": 0.8661417322834646
        },
        {
          "duration": 0.018229166666671404,
          "durationTicks": 7,
          "midi": 36,
          "name": "C2",
          "ticks": 30144,
          "time": 78.5,
          "velocity": 0.8661417322834646
        },
        {
          "duration": 0.018229166666671404,
          "durationTicks": 7,
          "midi": 35,
          "name": "B1",
          "ticks": 30144,
          "time": 78.5,
          "velocity": 0.5511811023622047
        },
        {
          "duration": 0.018229166666671404,
          "durationTicks": 7,
          "midi": 36,
          "name": "C2",
          "ticks": 30192,
          "time": 78.625,
          "velocity": 0.8661417322834646
        },
        {
          "duration": 0.018229166666671404,
          "durationTicks": 7,
          "midi": 35,
          "name": "B1",
          "ticks": 30192,
          "time": 78.625,
          "velocity": 0.5511811023622047
        },
        {
          "duration": 0.018229166666671404,
          "durationTicks": 7,
          "midi": 40,
          "name": "E2",
          "ticks": 30240,
          "time": 78.75,
          "velocity": 0.5511811023622047
        },
        {
          "duration": 0.018229166666671404,
          "durationTicks": 7,
          "midi": 38,
          "name": "D2",
          "ticks": 30240,
          "time": 78.75,
          "velocity": 0.8661417322834646
        },
        {
          "duration": 0.018229166666671404,
          "durationTicks": 7,
          "midi": 36,
          "name": "C2",
          "ticks": 30288,
          "time": 78.875,
          "velocity": 0.8661417322834646
        },
        {
          "duration": 0.018229166666671404,
          "durationTicks": 7,
          "midi": 35,
          "name": "B1",
          "ticks": 30288,
          "time": 78.875,
          "velocity": 0.5511811023622047
        },
        {
          "duration": 0.018229166666671404,
          "durationTicks": 7,
          "midi": 40,
          "name": "E2",
          "ticks": 30336,
          "time": 79,
          "velocity": 0.5511811023622047
        },
        {
          "duration": 0.018229166666671404,
          "durationTicks": 7,
          "midi": 38,
          "name": "D2",
          "ticks": 30336,
          "time": 79,
          "velocity": 0.8661417322834646
        },
        {
          "duration": 0.018229166666671404,
          "durationTicks": 7,
          "midi": 36,
          "name": "C2",
          "ticks": 30384,
          "time": 79.125,
          "velocity": 0.8661417322834646
        },
        {
          "duration": 0.018229166666671404,
          "durationTicks": 7,
          "midi": 35,
          "name": "B1",
          "ticks": 30384,
          "time": 79.125,
          "velocity": 0.5511811023622047
        },
        {
          "duration": 0.018229166666671404,
          "durationTicks": 7,
          "midi": 36,
          "name": "C2",
          "ticks": 30432,
          "time": 79.25,
          "velocity": 0.6299212598425197
        },
        {
          "duration": 0.018229166666671404,
          "durationTicks": 7,
          "midi": 38,
          "name": "D2",
          "ticks": 30432,
          "time": 79.25,
          "velocity": 0.8661417322834646
        },
        {
          "duration": 0.018229166666671404,
          "durationTicks": 7,
          "midi": 40,
          "name": "E2",
          "ticks": 30480,
          "time": 79.375,
          "velocity": 0.5511811023622047
        },
        {
          "duration": 0.018229166666671404,
          "durationTicks": 7,
          "midi": 38,
          "name": "D2",
          "ticks": 30480,
          "time": 79.375,
          "velocity": 0.8661417322834646
        },
        {
          "duration": 0.018229166666671404,
          "durationTicks": 7,
          "midi": 36,
          "name": "C2",
          "ticks": 30528,
          "time": 79.5,
          "velocity": 0.8661417322834646
        },
        {
          "duration": 0.018229166666671404,
          "durationTicks": 7,
          "midi": 35,
          "name": "B1",
          "ticks": 30528,
          "time": 79.5,
          "velocity": 0.5511811023622047
        },
        {
          "duration": 0.018229166666671404,
          "durationTicks": 7,
          "midi": 38,
          "name": "D2",
          "ticks": 30576,
          "time": 79.625,
          "velocity": 0.8661417322834646
        },
        {
          "duration": 0.018229166666671404,
          "durationTicks": 7,
          "midi": 36,
          "name": "C2",
          "ticks": 30576,
          "time": 79.625,
          "velocity": 0.6299212598425197
        },
        {
          "duration": 0.018229166666671404,
          "durationTicks": 7,
          "midi": 40,
          "name": "E2",
          "ticks": 30624,
          "time": 79.75,
          "velocity": 0.5511811023622047
        },
        {
          "duration": 0.018229166666671404,
          "durationTicks": 7,
          "midi": 38,
          "name": "D2",
          "ticks": 30624,
          "time": 79.75,
          "velocity": 0.8661417322834646
        },
        {
          "duration": 0.020833333333328596,
          "durationTicks": 8,
          "midi": 36,
          "name": "C2",
          "ticks": 30672,
          "time": 79.875,
          "velocity": 0.6299212598425197
        },
        {
          "duration": 0.020833333333328596,
          "durationTicks": 8,
          "midi": 36,
          "name": "C2",
          "ticks": 30696,
          "time": 79.9375,
          "velocity": 0.6299212598425197
        },
        {
          "duration": 0.018229166666671404,
          "durationTicks": 7,
          "midi": 36,
          "name": "C2",
          "ticks": 30720,
          "time": 80,
          "velocity": 0.8661417322834646
        },
        {
          "duration": 0.018229166666671404,
          "durationTicks": 7,
          "midi": 35,
          "name": "B1",
          "ticks": 30720,
          "time": 80,
          "velocity": 0.5511811023622047
        },
        {
          "duration": 0.018229166666671404,
          "durationTicks": 7,
          "midi": 36,
          "name": "C2",
          "ticks": 30816,
          "time": 80.25,
          "velocity": 0.8661417322834646
        },
        {
          "duration": 0.018229166666671404,
          "durationTicks": 7,
          "midi": 35,
          "name": "B1",
          "ticks": 30816,
          "time": 80.25,
          "velocity": 0.5511811023622047
        },
        {
          "duration": 0.018229166666671404,
          "durationTicks": 7,
          "midi": 40,
          "name": "E2",
          "ticks": 30912,
          "time": 80.5,
          "velocity": 0.5511811023622047
        },
        {
          "duration": 0.018229166666671404,
          "durationTicks": 7,
          "midi": 38,
          "name": "D2",
          "ticks": 30912,
          "time": 80.5,
          "velocity": 0.8661417322834646
        },
        {
          "duration": 0.018229166666671404,
          "durationTicks": 7,
          "midi": 36,
          "name": "C2",
          "ticks": 30960,
          "time": 80.625,
          "velocity": 0.8661417322834646
        },
        {
          "duration": 0.018229166666671404,
          "durationTicks": 7,
          "midi": 35,
          "name": "B1",
          "ticks": 30960,
          "time": 80.625,
          "velocity": 0.5511811023622047
        },
        {
          "duration": 0.018229166666671404,
          "durationTicks": 7,
          "midi": 36,
          "name": "C2",
          "ticks": 31056,
          "time": 80.875,
          "velocity": 0.8661417322834646
        },
        {
          "duration": 0.018229166666671404,
          "durationTicks": 7,
          "midi": 35,
          "name": "B1",
          "ticks": 31056,
          "time": 80.875,
          "velocity": 0.5511811023622047
        },
        {
          "duration": 0.018229166666671404,
          "durationTicks": 7,
          "midi": 40,
          "name": "E2",
          "ticks": 31152,
          "time": 81.125,
          "velocity": 0.5511811023622047
        },
        {
          "duration": 0.018229166666671404,
          "durationTicks": 7,
          "midi": 38,
          "name": "D2",
          "ticks": 31152,
          "time": 81.125,
          "velocity": 0.8661417322834646
        },
        {
          "duration": 0.018229166666671404,
          "durationTicks": 7,
          "midi": 36,
          "name": "C2",
          "ticks": 31200,
          "time": 81.25,
          "velocity": 0.8661417322834646
        },
        {
          "duration": 0.018229166666671404,
          "durationTicks": 7,
          "midi": 35,
          "name": "B1",
          "ticks": 31200,
          "time": 81.25,
          "velocity": 0.5511811023622047
        },
        {
          "duration": 0.018229166666671404,
          "durationTicks": 7,
          "midi": 36,
          "name": "C2",
          "ticks": 31248,
          "time": 81.375,
          "velocity": 0.8661417322834646
        },
        {
          "duration": 0.018229166666671404,
          "durationTicks": 7,
          "midi": 35,
          "name": "B1",
          "ticks": 31248,
          "time": 81.375,
          "velocity": 0.5511811023622047
        },
        {
          "duration": 0.018229166666671404,
          "durationTicks": 7,
          "midi": 36,
          "name": "C2",
          "ticks": 31296,
          "time": 81.5,
          "velocity": 0.8661417322834646
        },
        {
          "duration": 0.018229166666671404,
          "durationTicks": 7,
          "midi": 35,
          "name": "B1",
          "ticks": 31296,
          "time": 81.5,
          "velocity": 0.5511811023622047
        },
        {
          "duration": 0.018229166666671404,
          "durationTicks": 7,
          "midi": 36,
          "name": "C2",
          "ticks": 31344,
          "time": 81.625,
          "velocity": 0.8661417322834646
        },
        {
          "duration": 0.018229166666671404,
          "durationTicks": 7,
          "midi": 35,
          "name": "B1",
          "ticks": 31344,
          "time": 81.625,
          "velocity": 0.5511811023622047
        },
        {
          "duration": 0.018229166666671404,
          "durationTicks": 7,
          "midi": 40,
          "name": "E2",
          "ticks": 31392,
          "time": 81.75,
          "velocity": 0.5511811023622047
        },
        {
          "duration": 0.018229166666671404,
          "durationTicks": 7,
          "midi": 38,
          "name": "D2",
          "ticks": 31392,
          "time": 81.75,
          "velocity": 0.8661417322834646
        },
        {
          "duration": 0.018229166666671404,
          "durationTicks": 7,
          "midi": 36,
          "name": "C2",
          "ticks": 31488,
          "time": 82,
          "velocity": 0.8661417322834646
        },
        {
          "duration": 0.018229166666671404,
          "durationTicks": 7,
          "midi": 35,
          "name": "B1",
          "ticks": 31488,
          "time": 82,
          "velocity": 0.5511811023622047
        },
        {
          "duration": 0.018229166666671404,
          "durationTicks": 7,
          "midi": 36,
          "name": "C2",
          "ticks": 31584,
          "time": 82.25,
          "velocity": 0.8661417322834646
        },
        {
          "duration": 0.018229166666671404,
          "durationTicks": 7,
          "midi": 35,
          "name": "B1",
          "ticks": 31584,
          "time": 82.25,
          "velocity": 0.5511811023622047
        },
        {
          "duration": 0.018229166666671404,
          "durationTicks": 7,
          "midi": 40,
          "name": "E2",
          "ticks": 31680,
          "time": 82.5,
          "velocity": 0.5511811023622047
        },
        {
          "duration": 0.018229166666671404,
          "durationTicks": 7,
          "midi": 38,
          "name": "D2",
          "ticks": 31680,
          "time": 82.5,
          "velocity": 0.8661417322834646
        },
        {
          "duration": 0.018229166666671404,
          "durationTicks": 7,
          "midi": 36,
          "name": "C2",
          "ticks": 31728,
          "time": 82.625,
          "velocity": 0.8661417322834646
        },
        {
          "duration": 0.018229166666671404,
          "durationTicks": 7,
          "midi": 35,
          "name": "B1",
          "ticks": 31728,
          "time": 82.625,
          "velocity": 0.5511811023622047
        },
        {
          "duration": 0.018229166666671404,
          "durationTicks": 7,
          "midi": 36,
          "name": "C2",
          "ticks": 31824,
          "time": 82.875,
          "velocity": 0.8661417322834646
        },
        {
          "duration": 0.018229166666671404,
          "durationTicks": 7,
          "midi": 35,
          "name": "B1",
          "ticks": 31824,
          "time": 82.875,
          "velocity": 0.5511811023622047
        },
        {
          "duration": 0.018229166666671404,
          "durationTicks": 7,
          "midi": 40,
          "name": "E2",
          "ticks": 31920,
          "time": 83.125,
          "velocity": 0.5511811023622047
        },
        {
          "duration": 0.018229166666671404,
          "durationTicks": 7,
          "midi": 38,
          "name": "D2",
          "ticks": 31920,
          "time": 83.125,
          "velocity": 0.8661417322834646
        },
        {
          "duration": 0.018229166666671404,
          "durationTicks": 7,
          "midi": 36,
          "name": "C2",
          "ticks": 31968,
          "time": 83.25,
          "velocity": 0.8661417322834646
        },
        {
          "duration": 0.018229166666671404,
          "durationTicks": 7,
          "midi": 35,
          "name": "B1",
          "ticks": 31968,
          "time": 83.25,
          "velocity": 0.5511811023622047
        },
        {
          "duration": 0.018229166666671404,
          "durationTicks": 7,
          "midi": 36,
          "name": "C2",
          "ticks": 32016,
          "time": 83.375,
          "velocity": 0.8661417322834646
        },
        {
          "duration": 0.018229166666671404,
          "durationTicks": 7,
          "midi": 35,
          "name": "B1",
          "ticks": 32016,
          "time": 83.375,
          "velocity": 0.5511811023622047
        },
        {
          "duration": 0.018229166666671404,
          "durationTicks": 7,
          "midi": 36,
          "name": "C2",
          "ticks": 32064,
          "time": 83.5,
          "velocity": 0.8661417322834646
        },
        {
          "duration": 0.018229166666671404,
          "durationTicks": 7,
          "midi": 35,
          "name": "B1",
          "ticks": 32064,
          "time": 83.5,
          "velocity": 0.5511811023622047
        },
        {
          "duration": 0.018229166666671404,
          "durationTicks": 7,
          "midi": 36,
          "name": "C2",
          "ticks": 32112,
          "time": 83.625,
          "velocity": 0.8661417322834646
        },
        {
          "duration": 0.018229166666671404,
          "durationTicks": 7,
          "midi": 35,
          "name": "B1",
          "ticks": 32112,
          "time": 83.625,
          "velocity": 0.5511811023622047
        },
        {
          "duration": 0.018229166666671404,
          "durationTicks": 7,
          "midi": 40,
          "name": "E2",
          "ticks": 32160,
          "time": 83.75,
          "velocity": 0.5511811023622047
        },
        {
          "duration": 0.018229166666671404,
          "durationTicks": 7,
          "midi": 38,
          "name": "D2",
          "ticks": 32160,
          "time": 83.75,
          "velocity": 0.8661417322834646
        },
        {
          "duration": 0.018229166666671404,
          "durationTicks": 7,
          "midi": 36,
          "name": "C2",
          "ticks": 32256,
          "time": 84,
          "velocity": 0.8661417322834646
        },
        {
          "duration": 0.018229166666671404,
          "durationTicks": 7,
          "midi": 35,
          "name": "B1",
          "ticks": 32256,
          "time": 84,
          "velocity": 0.5511811023622047
        },
        {
          "duration": 0.018229166666671404,
          "durationTicks": 7,
          "midi": 36,
          "name": "C2",
          "ticks": 32352,
          "time": 84.25,
          "velocity": 0.8661417322834646
        },
        {
          "duration": 0.018229166666671404,
          "durationTicks": 7,
          "midi": 35,
          "name": "B1",
          "ticks": 32352,
          "time": 84.25,
          "velocity": 0.5511811023622047
        },
        {
          "duration": 0.018229166666671404,
          "durationTicks": 7,
          "midi": 40,
          "name": "E2",
          "ticks": 32448,
          "time": 84.5,
          "velocity": 0.5511811023622047
        },
        {
          "duration": 0.018229166666671404,
          "durationTicks": 7,
          "midi": 38,
          "name": "D2",
          "ticks": 32448,
          "time": 84.5,
          "velocity": 0.8661417322834646
        },
        {
          "duration": 0.018229166666671404,
          "durationTicks": 7,
          "midi": 36,
          "name": "C2",
          "ticks": 32496,
          "time": 84.625,
          "velocity": 0.8661417322834646
        },
        {
          "duration": 0.018229166666671404,
          "durationTicks": 7,
          "midi": 35,
          "name": "B1",
          "ticks": 32496,
          "time": 84.625,
          "velocity": 0.5511811023622047
        },
        {
          "duration": 0.018229166666671404,
          "durationTicks": 7,
          "midi": 36,
          "name": "C2",
          "ticks": 32592,
          "time": 84.875,
          "velocity": 0.8661417322834646
        },
        {
          "duration": 0.018229166666671404,
          "durationTicks": 7,
          "midi": 35,
          "name": "B1",
          "ticks": 32592,
          "time": 84.875,
          "velocity": 0.5511811023622047
        },
        {
          "duration": 0.018229166666671404,
          "durationTicks": 7,
          "midi": 40,
          "name": "E2",
          "ticks": 32688,
          "time": 85.125,
          "velocity": 0.5511811023622047
        },
        {
          "duration": 0.018229166666671404,
          "durationTicks": 7,
          "midi": 38,
          "name": "D2",
          "ticks": 32688,
          "time": 85.125,
          "velocity": 0.8661417322834646
        },
        {
          "duration": 0.018229166666671404,
          "durationTicks": 7,
          "midi": 36,
          "name": "C2",
          "ticks": 32736,
          "time": 85.25,
          "velocity": 0.8661417322834646
        },
        {
          "duration": 0.018229166666671404,
          "durationTicks": 7,
          "midi": 35,
          "name": "B1",
          "ticks": 32736,
          "time": 85.25,
          "velocity": 0.5511811023622047
        },
        {
          "duration": 0.018229166666671404,
          "durationTicks": 7,
          "midi": 36,
          "name": "C2",
          "ticks": 32784,
          "time": 85.375,
          "velocity": 0.8661417322834646
        },
        {
          "duration": 0.018229166666671404,
          "durationTicks": 7,
          "midi": 35,
          "name": "B1",
          "ticks": 32784,
          "time": 85.375,
          "velocity": 0.5511811023622047
        },
        {
          "duration": 0.018229166666671404,
          "durationTicks": 7,
          "midi": 36,
          "name": "C2",
          "ticks": 32832,
          "time": 85.5,
          "velocity": 0.8661417322834646
        },
        {
          "duration": 0.018229166666671404,
          "durationTicks": 7,
          "midi": 35,
          "name": "B1",
          "ticks": 32832,
          "time": 85.5,
          "velocity": 0.5511811023622047
        },
        {
          "duration": 0.018229166666671404,
          "durationTicks": 7,
          "midi": 36,
          "name": "C2",
          "ticks": 32880,
          "time": 85.625,
          "velocity": 0.8661417322834646
        },
        {
          "duration": 0.018229166666671404,
          "durationTicks": 7,
          "midi": 35,
          "name": "B1",
          "ticks": 32880,
          "time": 85.625,
          "velocity": 0.5511811023622047
        },
        {
          "duration": 0.018229166666671404,
          "durationTicks": 7,
          "midi": 40,
          "name": "E2",
          "ticks": 32928,
          "time": 85.75,
          "velocity": 0.5511811023622047
        },
        {
          "duration": 0.018229166666671404,
          "durationTicks": 7,
          "midi": 38,
          "name": "D2",
          "ticks": 32928,
          "time": 85.75,
          "velocity": 0.8661417322834646
        },
        {
          "duration": 0.018229166666671404,
          "durationTicks": 7,
          "midi": 36,
          "name": "C2",
          "ticks": 33024,
          "time": 86,
          "velocity": 0.8661417322834646
        },
        {
          "duration": 0.018229166666671404,
          "durationTicks": 7,
          "midi": 35,
          "name": "B1",
          "ticks": 33024,
          "time": 86,
          "velocity": 0.5511811023622047
        },
        {
          "duration": 0.018229166666671404,
          "durationTicks": 7,
          "midi": 36,
          "name": "C2",
          "ticks": 33120,
          "time": 86.25,
          "velocity": 0.8661417322834646
        },
        {
          "duration": 0.018229166666671404,
          "durationTicks": 7,
          "midi": 35,
          "name": "B1",
          "ticks": 33120,
          "time": 86.25,
          "velocity": 0.5511811023622047
        },
        {
          "duration": 0.018229166666671404,
          "durationTicks": 7,
          "midi": 40,
          "name": "E2",
          "ticks": 33216,
          "time": 86.5,
          "velocity": 0.5511811023622047
        },
        {
          "duration": 0.018229166666671404,
          "durationTicks": 7,
          "midi": 38,
          "name": "D2",
          "ticks": 33216,
          "time": 86.5,
          "velocity": 0.8661417322834646
        },
        {
          "duration": 0.018229166666671404,
          "durationTicks": 7,
          "midi": 36,
          "name": "C2",
          "ticks": 33264,
          "time": 86.625,
          "velocity": 0.8661417322834646
        },
        {
          "duration": 0.018229166666671404,
          "durationTicks": 7,
          "midi": 35,
          "name": "B1",
          "ticks": 33264,
          "time": 86.625,
          "velocity": 0.5511811023622047
        },
        {
          "duration": 0.018229166666671404,
          "durationTicks": 7,
          "midi": 36,
          "name": "C2",
          "ticks": 33360,
          "time": 86.875,
          "velocity": 0.8661417322834646
        },
        {
          "duration": 0.018229166666671404,
          "durationTicks": 7,
          "midi": 35,
          "name": "B1",
          "ticks": 33360,
          "time": 86.875,
          "velocity": 0.5511811023622047
        },
        {
          "duration": 0.018229166666671404,
          "durationTicks": 7,
          "midi": 40,
          "name": "E2",
          "ticks": 33456,
          "time": 87.125,
          "velocity": 0.5511811023622047
        },
        {
          "duration": 0.018229166666671404,
          "durationTicks": 7,
          "midi": 38,
          "name": "D2",
          "ticks": 33456,
          "time": 87.125,
          "velocity": 0.8661417322834646
        },
        {
          "duration": 0.018229166666671404,
          "durationTicks": 7,
          "midi": 36,
          "name": "C2",
          "ticks": 33504,
          "time": 87.25,
          "velocity": 0.8661417322834646
        },
        {
          "duration": 0.018229166666671404,
          "durationTicks": 7,
          "midi": 35,
          "name": "B1",
          "ticks": 33504,
          "time": 87.25,
          "velocity": 0.5511811023622047
        },
        {
          "duration": 0.018229166666671404,
          "durationTicks": 7,
          "midi": 36,
          "name": "C2",
          "ticks": 33552,
          "time": 87.375,
          "velocity": 0.8661417322834646
        },
        {
          "duration": 0.018229166666671404,
          "durationTicks": 7,
          "midi": 35,
          "name": "B1",
          "ticks": 33552,
          "time": 87.375,
          "velocity": 0.5511811023622047
        },
        {
          "duration": 0.018229166666671404,
          "durationTicks": 7,
          "midi": 36,
          "name": "C2",
          "ticks": 33600,
          "time": 87.5,
          "velocity": 0.8661417322834646
        },
        {
          "duration": 0.018229166666671404,
          "durationTicks": 7,
          "midi": 35,
          "name": "B1",
          "ticks": 33600,
          "time": 87.5,
          "velocity": 0.5511811023622047
        },
        {
          "duration": 0.018229166666671404,
          "durationTicks": 7,
          "midi": 36,
          "name": "C2",
          "ticks": 33648,
          "time": 87.625,
          "velocity": 0.8661417322834646
        },
        {
          "duration": 0.018229166666671404,
          "durationTicks": 7,
          "midi": 35,
          "name": "B1",
          "ticks": 33648,
          "time": 87.625,
          "velocity": 0.5511811023622047
        },
        {
          "duration": 0.018229166666671404,
          "durationTicks": 7,
          "midi": 40,
          "name": "E2",
          "ticks": 33696,
          "time": 87.75,
          "velocity": 0.5511811023622047
        },
        {
          "duration": 0.018229166666671404,
          "durationTicks": 7,
          "midi": 38,
          "name": "D2",
          "ticks": 33696,
          "time": 87.75,
          "velocity": 0.8661417322834646
        },
        {
          "duration": 0.018229166666671404,
          "durationTicks": 7,
          "midi": 36,
          "name": "C2",
          "ticks": 33792,
          "time": 88,
          "velocity": 0.8661417322834646
        },
        {
          "duration": 0.018229166666671404,
          "durationTicks": 7,
          "midi": 35,
          "name": "B1",
          "ticks": 33792,
          "time": 88,
          "velocity": 0.5511811023622047
        },
        {
          "duration": 0.018229166666671404,
          "durationTicks": 7,
          "midi": 36,
          "name": "C2",
          "ticks": 33888,
          "time": 88.25,
          "velocity": 0.8661417322834646
        },
        {
          "duration": 0.018229166666671404,
          "durationTicks": 7,
          "midi": 35,
          "name": "B1",
          "ticks": 33888,
          "time": 88.25,
          "velocity": 0.5511811023622047
        },
        {
          "duration": 0.018229166666671404,
          "durationTicks": 7,
          "midi": 40,
          "name": "E2",
          "ticks": 33984,
          "time": 88.5,
          "velocity": 0.5511811023622047
        },
        {
          "duration": 0.018229166666671404,
          "durationTicks": 7,
          "midi": 38,
          "name": "D2",
          "ticks": 33984,
          "time": 88.5,
          "velocity": 0.8661417322834646
        },
        {
          "duration": 0.018229166666671404,
          "durationTicks": 7,
          "midi": 36,
          "name": "C2",
          "ticks": 34032,
          "time": 88.625,
          "velocity": 0.8661417322834646
        },
        {
          "duration": 0.018229166666671404,
          "durationTicks": 7,
          "midi": 35,
          "name": "B1",
          "ticks": 34032,
          "time": 88.625,
          "velocity": 0.5511811023622047
        },
        {
          "duration": 0.018229166666671404,
          "durationTicks": 7,
          "midi": 36,
          "name": "C2",
          "ticks": 34128,
          "time": 88.875,
          "velocity": 0.8661417322834646
        },
        {
          "duration": 0.018229166666671404,
          "durationTicks": 7,
          "midi": 35,
          "name": "B1",
          "ticks": 34128,
          "time": 88.875,
          "velocity": 0.5511811023622047
        },
        {
          "duration": 0.018229166666671404,
          "durationTicks": 7,
          "midi": 40,
          "name": "E2",
          "ticks": 34224,
          "time": 89.125,
          "velocity": 0.5511811023622047
        },
        {
          "duration": 0.018229166666671404,
          "durationTicks": 7,
          "midi": 38,
          "name": "D2",
          "ticks": 34224,
          "time": 89.125,
          "velocity": 0.8661417322834646
        },
        {
          "duration": 0.018229166666671404,
          "durationTicks": 7,
          "midi": 36,
          "name": "C2",
          "ticks": 34272,
          "time": 89.25,
          "velocity": 0.8661417322834646
        },
        {
          "duration": 0.018229166666671404,
          "durationTicks": 7,
          "midi": 35,
          "name": "B1",
          "ticks": 34272,
          "time": 89.25,
          "velocity": 0.5511811023622047
        },
        {
          "duration": 0.018229166666671404,
          "durationTicks": 7,
          "midi": 36,
          "name": "C2",
          "ticks": 34320,
          "time": 89.375,
          "velocity": 0.8661417322834646
        },
        {
          "duration": 0.018229166666671404,
          "durationTicks": 7,
          "midi": 35,
          "name": "B1",
          "ticks": 34320,
          "time": 89.375,
          "velocity": 0.5511811023622047
        },
        {
          "duration": 0.018229166666671404,
          "durationTicks": 7,
          "midi": 36,
          "name": "C2",
          "ticks": 34368,
          "time": 89.5,
          "velocity": 0.8661417322834646
        },
        {
          "duration": 0.018229166666671404,
          "durationTicks": 7,
          "midi": 35,
          "name": "B1",
          "ticks": 34368,
          "time": 89.5,
          "velocity": 0.5511811023622047
        },
        {
          "duration": 0.018229166666671404,
          "durationTicks": 7,
          "midi": 36,
          "name": "C2",
          "ticks": 34416,
          "time": 89.625,
          "velocity": 0.8661417322834646
        },
        {
          "duration": 0.018229166666671404,
          "durationTicks": 7,
          "midi": 35,
          "name": "B1",
          "ticks": 34416,
          "time": 89.625,
          "velocity": 0.5511811023622047
        },
        {
          "duration": 0.018229166666671404,
          "durationTicks": 7,
          "midi": 40,
          "name": "E2",
          "ticks": 34464,
          "time": 89.75,
          "velocity": 0.5511811023622047
        },
        {
          "duration": 0.018229166666671404,
          "durationTicks": 7,
          "midi": 38,
          "name": "D2",
          "ticks": 34464,
          "time": 89.75,
          "velocity": 0.8661417322834646
        },
        {
          "duration": 0.018229166666671404,
          "durationTicks": 7,
          "midi": 36,
          "name": "C2",
          "ticks": 34560,
          "time": 90,
          "velocity": 0.8661417322834646
        },
        {
          "duration": 0.018229166666671404,
          "durationTicks": 7,
          "midi": 35,
          "name": "B1",
          "ticks": 34560,
          "time": 90,
          "velocity": 0.5511811023622047
        },
        {
          "duration": 0.018229166666671404,
          "durationTicks": 7,
          "midi": 36,
          "name": "C2",
          "ticks": 34656,
          "time": 90.25,
          "velocity": 0.8661417322834646
        },
        {
          "duration": 0.018229166666671404,
          "durationTicks": 7,
          "midi": 35,
          "name": "B1",
          "ticks": 34656,
          "time": 90.25,
          "velocity": 0.5511811023622047
        },
        {
          "duration": 0.018229166666671404,
          "durationTicks": 7,
          "midi": 40,
          "name": "E2",
          "ticks": 34752,
          "time": 90.5,
          "velocity": 0.5511811023622047
        },
        {
          "duration": 0.018229166666671404,
          "durationTicks": 7,
          "midi": 38,
          "name": "D2",
          "ticks": 34752,
          "time": 90.5,
          "velocity": 0.8661417322834646
        },
        {
          "duration": 0.018229166666671404,
          "durationTicks": 7,
          "midi": 36,
          "name": "C2",
          "ticks": 34800,
          "time": 90.625,
          "velocity": 0.8661417322834646
        },
        {
          "duration": 0.018229166666671404,
          "durationTicks": 7,
          "midi": 35,
          "name": "B1",
          "ticks": 34800,
          "time": 90.625,
          "velocity": 0.5511811023622047
        },
        {
          "duration": 0.018229166666671404,
          "durationTicks": 7,
          "midi": 36,
          "name": "C2",
          "ticks": 34896,
          "time": 90.875,
          "velocity": 0.8661417322834646
        },
        {
          "duration": 0.018229166666671404,
          "durationTicks": 7,
          "midi": 35,
          "name": "B1",
          "ticks": 34896,
          "time": 90.875,
          "velocity": 0.5511811023622047
        },
        {
          "duration": 0.018229166666671404,
          "durationTicks": 7,
          "midi": 40,
          "name": "E2",
          "ticks": 34992,
          "time": 91.125,
          "velocity": 0.5511811023622047
        },
        {
          "duration": 0.018229166666671404,
          "durationTicks": 7,
          "midi": 38,
          "name": "D2",
          "ticks": 34992,
          "time": 91.125,
          "velocity": 0.8661417322834646
        },
        {
          "duration": 0.018229166666671404,
          "durationTicks": 7,
          "midi": 36,
          "name": "C2",
          "ticks": 35040,
          "time": 91.25,
          "velocity": 0.8661417322834646
        },
        {
          "duration": 0.018229166666671404,
          "durationTicks": 7,
          "midi": 35,
          "name": "B1",
          "ticks": 35040,
          "time": 91.25,
          "velocity": 0.5511811023622047
        },
        {
          "duration": 0.018229166666671404,
          "durationTicks": 7,
          "midi": 36,
          "name": "C2",
          "ticks": 35088,
          "time": 91.375,
          "velocity": 0.8661417322834646
        },
        {
          "duration": 0.018229166666671404,
          "durationTicks": 7,
          "midi": 35,
          "name": "B1",
          "ticks": 35088,
          "time": 91.375,
          "velocity": 0.5511811023622047
        },
        {
          "duration": 0.018229166666671404,
          "durationTicks": 7,
          "midi": 36,
          "name": "C2",
          "ticks": 35136,
          "time": 91.5,
          "velocity": 0.8661417322834646
        },
        {
          "duration": 0.018229166666671404,
          "durationTicks": 7,
          "midi": 35,
          "name": "B1",
          "ticks": 35136,
          "time": 91.5,
          "velocity": 0.5511811023622047
        },
        {
          "duration": 0.018229166666671404,
          "durationTicks": 7,
          "midi": 36,
          "name": "C2",
          "ticks": 35184,
          "time": 91.625,
          "velocity": 0.8661417322834646
        },
        {
          "duration": 0.018229166666671404,
          "durationTicks": 7,
          "midi": 35,
          "name": "B1",
          "ticks": 35184,
          "time": 91.625,
          "velocity": 0.5511811023622047
        },
        {
          "duration": 0.018229166666671404,
          "durationTicks": 7,
          "midi": 40,
          "name": "E2",
          "ticks": 35232,
          "time": 91.75,
          "velocity": 0.5511811023622047
        },
        {
          "duration": 0.018229166666671404,
          "durationTicks": 7,
          "midi": 38,
          "name": "D2",
          "ticks": 35232,
          "time": 91.75,
          "velocity": 0.8661417322834646
        },
        {
          "duration": 0.018229166666671404,
          "durationTicks": 7,
          "midi": 36,
          "name": "C2",
          "ticks": 35328,
          "time": 92,
          "velocity": 0.8661417322834646
        },
        {
          "duration": 0.018229166666671404,
          "durationTicks": 7,
          "midi": 35,
          "name": "B1",
          "ticks": 35328,
          "time": 92,
          "velocity": 0.5511811023622047
        },
        {
          "duration": 0.018229166666671404,
          "durationTicks": 7,
          "midi": 36,
          "name": "C2",
          "ticks": 35424,
          "time": 92.25,
          "velocity": 0.8661417322834646
        },
        {
          "duration": 0.018229166666671404,
          "durationTicks": 7,
          "midi": 35,
          "name": "B1",
          "ticks": 35424,
          "time": 92.25,
          "velocity": 0.5511811023622047
        },
        {
          "duration": 0.018229166666671404,
          "durationTicks": 7,
          "midi": 40,
          "name": "E2",
          "ticks": 35520,
          "time": 92.5,
          "velocity": 0.5511811023622047
        },
        {
          "duration": 0.018229166666671404,
          "durationTicks": 7,
          "midi": 38,
          "name": "D2",
          "ticks": 35520,
          "time": 92.5,
          "velocity": 0.8661417322834646
        },
        {
          "duration": 0.018229166666671404,
          "durationTicks": 7,
          "midi": 36,
          "name": "C2",
          "ticks": 35568,
          "time": 92.625,
          "velocity": 0.8661417322834646
        },
        {
          "duration": 0.018229166666671404,
          "durationTicks": 7,
          "midi": 35,
          "name": "B1",
          "ticks": 35568,
          "time": 92.625,
          "velocity": 0.5511811023622047
        },
        {
          "duration": 0.018229166666671404,
          "durationTicks": 7,
          "midi": 36,
          "name": "C2",
          "ticks": 35664,
          "time": 92.875,
          "velocity": 0.8661417322834646
        },
        {
          "duration": 0.018229166666671404,
          "durationTicks": 7,
          "midi": 35,
          "name": "B1",
          "ticks": 35664,
          "time": 92.875,
          "velocity": 0.5511811023622047
        },
        {
          "duration": 0.018229166666671404,
          "durationTicks": 7,
          "midi": 40,
          "name": "E2",
          "ticks": 35760,
          "time": 93.125,
          "velocity": 0.5511811023622047
        },
        {
          "duration": 0.018229166666671404,
          "durationTicks": 7,
          "midi": 38,
          "name": "D2",
          "ticks": 35760,
          "time": 93.125,
          "velocity": 0.8661417322834646
        },
        {
          "duration": 0.018229166666671404,
          "durationTicks": 7,
          "midi": 36,
          "name": "C2",
          "ticks": 35808,
          "time": 93.25,
          "velocity": 0.8661417322834646
        },
        {
          "duration": 0.018229166666671404,
          "durationTicks": 7,
          "midi": 35,
          "name": "B1",
          "ticks": 35808,
          "time": 93.25,
          "velocity": 0.5511811023622047
        },
        {
          "duration": 0.018229166666671404,
          "durationTicks": 7,
          "midi": 36,
          "name": "C2",
          "ticks": 35856,
          "time": 93.375,
          "velocity": 0.8661417322834646
        },
        {
          "duration": 0.018229166666671404,
          "durationTicks": 7,
          "midi": 35,
          "name": "B1",
          "ticks": 35856,
          "time": 93.375,
          "velocity": 0.5511811023622047
        },
        {
          "duration": 0.018229166666671404,
          "durationTicks": 7,
          "midi": 36,
          "name": "C2",
          "ticks": 35904,
          "time": 93.5,
          "velocity": 0.8661417322834646
        },
        {
          "duration": 0.018229166666671404,
          "durationTicks": 7,
          "midi": 35,
          "name": "B1",
          "ticks": 35904,
          "time": 93.5,
          "velocity": 0.5511811023622047
        },
        {
          "duration": 0.018229166666671404,
          "durationTicks": 7,
          "midi": 36,
          "name": "C2",
          "ticks": 35952,
          "time": 93.625,
          "velocity": 0.8661417322834646
        },
        {
          "duration": 0.018229166666671404,
          "durationTicks": 7,
          "midi": 35,
          "name": "B1",
          "ticks": 35952,
          "time": 93.625,
          "velocity": 0.5511811023622047
        },
        {
          "duration": 0.018229166666671404,
          "durationTicks": 7,
          "midi": 40,
          "name": "E2",
          "ticks": 36000,
          "time": 93.75,
          "velocity": 0.5511811023622047
        },
        {
          "duration": 0.018229166666671404,
          "durationTicks": 7,
          "midi": 38,
          "name": "D2",
          "ticks": 36000,
          "time": 93.75,
          "velocity": 0.8661417322834646
        },
        {
          "duration": 0.018229166666671404,
          "durationTicks": 7,
          "midi": 36,
          "name": "C2",
          "ticks": 36096,
          "time": 94,
          "velocity": 0.8661417322834646
        },
        {
          "duration": 0.018229166666671404,
          "durationTicks": 7,
          "midi": 35,
          "name": "B1",
          "ticks": 36096,
          "time": 94,
          "velocity": 0.5511811023622047
        },
        {
          "duration": 0.018229166666671404,
          "durationTicks": 7,
          "midi": 36,
          "name": "C2",
          "ticks": 36192,
          "time": 94.25,
          "velocity": 0.8661417322834646
        },
        {
          "duration": 0.018229166666671404,
          "durationTicks": 7,
          "midi": 35,
          "name": "B1",
          "ticks": 36192,
          "time": 94.25,
          "velocity": 0.5511811023622047
        },
        {
          "duration": 0.018229166666671404,
          "durationTicks": 7,
          "midi": 40,
          "name": "E2",
          "ticks": 36288,
          "time": 94.5,
          "velocity": 0.5511811023622047
        },
        {
          "duration": 0.018229166666671404,
          "durationTicks": 7,
          "midi": 38,
          "name": "D2",
          "ticks": 36288,
          "time": 94.5,
          "velocity": 0.8661417322834646
        },
        {
          "duration": 0.018229166666671404,
          "durationTicks": 7,
          "midi": 36,
          "name": "C2",
          "ticks": 36336,
          "time": 94.625,
          "velocity": 0.8661417322834646
        },
        {
          "duration": 0.018229166666671404,
          "durationTicks": 7,
          "midi": 35,
          "name": "B1",
          "ticks": 36336,
          "time": 94.625,
          "velocity": 0.5511811023622047
        },
        {
          "duration": 0.018229166666671404,
          "durationTicks": 7,
          "midi": 36,
          "name": "C2",
          "ticks": 36432,
          "time": 94.875,
          "velocity": 0.8661417322834646
        },
        {
          "duration": 0.018229166666671404,
          "durationTicks": 7,
          "midi": 35,
          "name": "B1",
          "ticks": 36432,
          "time": 94.875,
          "velocity": 0.5511811023622047
        },
        {
          "duration": 0.018229166666671404,
          "durationTicks": 7,
          "midi": 40,
          "name": "E2",
          "ticks": 36528,
          "time": 95.125,
          "velocity": 0.5511811023622047
        },
        {
          "duration": 0.018229166666671404,
          "durationTicks": 7,
          "midi": 38,
          "name": "D2",
          "ticks": 36528,
          "time": 95.125,
          "velocity": 0.8661417322834646
        },
        {
          "duration": 0.018229166666671404,
          "durationTicks": 7,
          "midi": 36,
          "name": "C2",
          "ticks": 36576,
          "time": 95.25,
          "velocity": 0.8661417322834646
        },
        {
          "duration": 0.018229166666671404,
          "durationTicks": 7,
          "midi": 35,
          "name": "B1",
          "ticks": 36576,
          "time": 95.25,
          "velocity": 0.5511811023622047
        },
        {
          "duration": 0.018229166666671404,
          "durationTicks": 7,
          "midi": 36,
          "name": "C2",
          "ticks": 36624,
          "time": 95.375,
          "velocity": 0.8661417322834646
        },
        {
          "duration": 0.018229166666671404,
          "durationTicks": 7,
          "midi": 35,
          "name": "B1",
          "ticks": 36624,
          "time": 95.375,
          "velocity": 0.5511811023622047
        },
        {
          "duration": 0.018229166666671404,
          "durationTicks": 7,
          "midi": 36,
          "name": "C2",
          "ticks": 36672,
          "time": 95.5,
          "velocity": 0.8661417322834646
        },
        {
          "duration": 0.018229166666671404,
          "durationTicks": 7,
          "midi": 35,
          "name": "B1",
          "ticks": 36672,
          "time": 95.5,
          "velocity": 0.5511811023622047
        },
        {
          "duration": 0.018229166666671404,
          "durationTicks": 7,
          "midi": 36,
          "name": "C2",
          "ticks": 36720,
          "time": 95.625,
          "velocity": 0.8661417322834646
        },
        {
          "duration": 0.018229166666671404,
          "durationTicks": 7,
          "midi": 35,
          "name": "B1",
          "ticks": 36720,
          "time": 95.625,
          "velocity": 0.5511811023622047
        },
        {
          "duration": 0.018229166666671404,
          "durationTicks": 7,
          "midi": 40,
          "name": "E2",
          "ticks": 36768,
          "time": 95.75,
          "velocity": 0.5511811023622047
        },
        {
          "duration": 0.018229166666671404,
          "durationTicks": 7,
          "midi": 38,
          "name": "D2",
          "ticks": 36768,
          "time": 95.75,
          "velocity": 0.8661417322834646
        },
        {
          "duration": 0.018229166666671404,
          "durationTicks": 7,
          "midi": 36,
          "name": "C2",
          "ticks": 36864,
          "time": 96,
          "velocity": 0.8661417322834646
        },
        {
          "duration": 0.018229166666671404,
          "durationTicks": 7,
          "midi": 35,
          "name": "B1",
          "ticks": 36864,
          "time": 96,
          "velocity": 0.5511811023622047
        },
        {
          "duration": 0.018229166666671404,
          "durationTicks": 7,
          "midi": 36,
          "name": "C2",
          "ticks": 36960,
          "time": 96.25,
          "velocity": 0.8661417322834646
        },
        {
          "duration": 0.018229166666671404,
          "durationTicks": 7,
          "midi": 35,
          "name": "B1",
          "ticks": 36960,
          "time": 96.25,
          "velocity": 0.5511811023622047
        },
        {
          "duration": 0.018229166666671404,
          "durationTicks": 7,
          "midi": 40,
          "name": "E2",
          "ticks": 37056,
          "time": 96.5,
          "velocity": 0.5511811023622047
        },
        {
          "duration": 0.018229166666671404,
          "durationTicks": 7,
          "midi": 38,
          "name": "D2",
          "ticks": 37056,
          "time": 96.5,
          "velocity": 0.8661417322834646
        },
        {
          "duration": 0.018229166666671404,
          "durationTicks": 7,
          "midi": 36,
          "name": "C2",
          "ticks": 37104,
          "time": 96.625,
          "velocity": 0.8661417322834646
        },
        {
          "duration": 0.018229166666671404,
          "durationTicks": 7,
          "midi": 35,
          "name": "B1",
          "ticks": 37104,
          "time": 96.625,
          "velocity": 0.5511811023622047
        },
        {
          "duration": 0.018229166666671404,
          "durationTicks": 7,
          "midi": 36,
          "name": "C2",
          "ticks": 37200,
          "time": 96.875,
          "velocity": 0.8661417322834646
        },
        {
          "duration": 0.018229166666671404,
          "durationTicks": 7,
          "midi": 35,
          "name": "B1",
          "ticks": 37200,
          "time": 96.875,
          "velocity": 0.5511811023622047
        },
        {
          "duration": 0.018229166666671404,
          "durationTicks": 7,
          "midi": 40,
          "name": "E2",
          "ticks": 37296,
          "time": 97.125,
          "velocity": 0.5511811023622047
        },
        {
          "duration": 0.018229166666671404,
          "durationTicks": 7,
          "midi": 38,
          "name": "D2",
          "ticks": 37296,
          "time": 97.125,
          "velocity": 0.8661417322834646
        },
        {
          "duration": 0.018229166666671404,
          "durationTicks": 7,
          "midi": 36,
          "name": "C2",
          "ticks": 37344,
          "time": 97.25,
          "velocity": 0.8661417322834646
        },
        {
          "duration": 0.018229166666671404,
          "durationTicks": 7,
          "midi": 35,
          "name": "B1",
          "ticks": 37344,
          "time": 97.25,
          "velocity": 0.5511811023622047
        },
        {
          "duration": 0.018229166666671404,
          "durationTicks": 7,
          "midi": 36,
          "name": "C2",
          "ticks": 37392,
          "time": 97.375,
          "velocity": 0.8661417322834646
        },
        {
          "duration": 0.018229166666671404,
          "durationTicks": 7,
          "midi": 35,
          "name": "B1",
          "ticks": 37392,
          "time": 97.375,
          "velocity": 0.5511811023622047
        },
        {
          "duration": 0.018229166666671404,
          "durationTicks": 7,
          "midi": 36,
          "name": "C2",
          "ticks": 37440,
          "time": 97.5,
          "velocity": 0.8661417322834646
        },
        {
          "duration": 0.018229166666671404,
          "durationTicks": 7,
          "midi": 35,
          "name": "B1",
          "ticks": 37440,
          "time": 97.5,
          "velocity": 0.5511811023622047
        },
        {
          "duration": 0.018229166666671404,
          "durationTicks": 7,
          "midi": 36,
          "name": "C2",
          "ticks": 37488,
          "time": 97.625,
          "velocity": 0.8661417322834646
        },
        {
          "duration": 0.018229166666671404,
          "durationTicks": 7,
          "midi": 35,
          "name": "B1",
          "ticks": 37488,
          "time": 97.625,
          "velocity": 0.5511811023622047
        },
        {
          "duration": 0.018229166666671404,
          "durationTicks": 7,
          "midi": 40,
          "name": "E2",
          "ticks": 37536,
          "time": 97.75,
          "velocity": 0.5511811023622047
        },
        {
          "duration": 0.018229166666671404,
          "durationTicks": 7,
          "midi": 38,
          "name": "D2",
          "ticks": 37536,
          "time": 97.75,
          "velocity": 0.8661417322834646
        },
        {
          "duration": 0.018229166666671404,
          "durationTicks": 7,
          "midi": 36,
          "name": "C2",
          "ticks": 37632,
          "time": 98,
          "velocity": 0.8661417322834646
        },
        {
          "duration": 0.018229166666671404,
          "durationTicks": 7,
          "midi": 35,
          "name": "B1",
          "ticks": 37632,
          "time": 98,
          "velocity": 0.5511811023622047
        },
        {
          "duration": 0.018229166666671404,
          "durationTicks": 7,
          "midi": 36,
          "name": "C2",
          "ticks": 37728,
          "time": 98.25,
          "velocity": 0.8661417322834646
        },
        {
          "duration": 0.018229166666671404,
          "durationTicks": 7,
          "midi": 35,
          "name": "B1",
          "ticks": 37728,
          "time": 98.25,
          "velocity": 0.5511811023622047
        },
        {
          "duration": 0.018229166666671404,
          "durationTicks": 7,
          "midi": 40,
          "name": "E2",
          "ticks": 37824,
          "time": 98.5,
          "velocity": 0.5511811023622047
        },
        {
          "duration": 0.018229166666671404,
          "durationTicks": 7,
          "midi": 38,
          "name": "D2",
          "ticks": 37824,
          "time": 98.5,
          "velocity": 0.8661417322834646
        },
        {
          "duration": 0.018229166666671404,
          "durationTicks": 7,
          "midi": 36,
          "name": "C2",
          "ticks": 37872,
          "time": 98.625,
          "velocity": 0.8661417322834646
        },
        {
          "duration": 0.018229166666671404,
          "durationTicks": 7,
          "midi": 35,
          "name": "B1",
          "ticks": 37872,
          "time": 98.625,
          "velocity": 0.5511811023622047
        },
        {
          "duration": 0.018229166666671404,
          "durationTicks": 7,
          "midi": 36,
          "name": "C2",
          "ticks": 37968,
          "time": 98.875,
          "velocity": 0.8661417322834646
        },
        {
          "duration": 0.018229166666671404,
          "durationTicks": 7,
          "midi": 35,
          "name": "B1",
          "ticks": 37968,
          "time": 98.875,
          "velocity": 0.5511811023622047
        },
        {
          "duration": 0.018229166666671404,
          "durationTicks": 7,
          "midi": 40,
          "name": "E2",
          "ticks": 38064,
          "time": 99.125,
          "velocity": 0.5511811023622047
        },
        {
          "duration": 0.018229166666671404,
          "durationTicks": 7,
          "midi": 38,
          "name": "D2",
          "ticks": 38064,
          "time": 99.125,
          "velocity": 0.8661417322834646
        },
        {
          "duration": 0.018229166666671404,
          "durationTicks": 7,
          "midi": 36,
          "name": "C2",
          "ticks": 38112,
          "time": 99.25,
          "velocity": 0.8661417322834646
        },
        {
          "duration": 0.018229166666671404,
          "durationTicks": 7,
          "midi": 35,
          "name": "B1",
          "ticks": 38112,
          "time": 99.25,
          "velocity": 0.5511811023622047
        },
        {
          "duration": 0.018229166666671404,
          "durationTicks": 7,
          "midi": 36,
          "name": "C2",
          "ticks": 38160,
          "time": 99.375,
          "velocity": 0.8661417322834646
        },
        {
          "duration": 0.018229166666671404,
          "durationTicks": 7,
          "midi": 35,
          "name": "B1",
          "ticks": 38160,
          "time": 99.375,
          "velocity": 0.5511811023622047
        },
        {
          "duration": 0.018229166666671404,
          "durationTicks": 7,
          "midi": 36,
          "name": "C2",
          "ticks": 38208,
          "time": 99.5,
          "velocity": 0.8661417322834646
        },
        {
          "duration": 0.018229166666671404,
          "durationTicks": 7,
          "midi": 35,
          "name": "B1",
          "ticks": 38208,
          "time": 99.5,
          "velocity": 0.5511811023622047
        },
        {
          "duration": 0.018229166666671404,
          "durationTicks": 7,
          "midi": 36,
          "name": "C2",
          "ticks": 38256,
          "time": 99.625,
          "velocity": 0.8661417322834646
        },
        {
          "duration": 0.018229166666671404,
          "durationTicks": 7,
          "midi": 35,
          "name": "B1",
          "ticks": 38256,
          "time": 99.625,
          "velocity": 0.5511811023622047
        },
        {
          "duration": 0.018229166666671404,
          "durationTicks": 7,
          "midi": 40,
          "name": "E2",
          "ticks": 38304,
          "time": 99.75,
          "velocity": 0.5511811023622047
        },
        {
          "duration": 0.018229166666671404,
          "durationTicks": 7,
          "midi": 38,
          "name": "D2",
          "ticks": 38304,
          "time": 99.75,
          "velocity": 0.8661417322834646
        },
        {
          "duration": 0.018229166666671404,
          "durationTicks": 7,
          "midi": 36,
          "name": "C2",
          "ticks": 38400,
          "time": 100,
          "velocity": 0.8661417322834646
        },
        {
          "duration": 0.018229166666671404,
          "durationTicks": 7,
          "midi": 35,
          "name": "B1",
          "ticks": 38400,
          "time": 100,
          "velocity": 0.5511811023622047
        },
        {
          "duration": 0.018229166666671404,
          "durationTicks": 7,
          "midi": 36,
          "name": "C2",
          "ticks": 38496,
          "time": 100.25,
          "velocity": 0.8661417322834646
        },
        {
          "duration": 0.018229166666671404,
          "durationTicks": 7,
          "midi": 35,
          "name": "B1",
          "ticks": 38496,
          "time": 100.25,
          "velocity": 0.5511811023622047
        },
        {
          "duration": 0.018229166666671404,
          "durationTicks": 7,
          "midi": 40,
          "name": "E2",
          "ticks": 38592,
          "time": 100.5,
          "velocity": 0.5511811023622047
        },
        {
          "duration": 0.018229166666671404,
          "durationTicks": 7,
          "midi": 38,
          "name": "D2",
          "ticks": 38592,
          "time": 100.5,
          "velocity": 0.8661417322834646
        },
        {
          "duration": 0.018229166666671404,
          "durationTicks": 7,
          "midi": 36,
          "name": "C2",
          "ticks": 38640,
          "time": 100.625,
          "velocity": 0.8661417322834646
        },
        {
          "duration": 0.018229166666671404,
          "durationTicks": 7,
          "midi": 35,
          "name": "B1",
          "ticks": 38640,
          "time": 100.625,
          "velocity": 0.5511811023622047
        },
        {
          "duration": 0.018229166666671404,
          "durationTicks": 7,
          "midi": 36,
          "name": "C2",
          "ticks": 38736,
          "time": 100.875,
          "velocity": 0.8661417322834646
        },
        {
          "duration": 0.018229166666671404,
          "durationTicks": 7,
          "midi": 35,
          "name": "B1",
          "ticks": 38736,
          "time": 100.875,
          "velocity": 0.5511811023622047
        },
        {
          "duration": 0.018229166666671404,
          "durationTicks": 7,
          "midi": 40,
          "name": "E2",
          "ticks": 38832,
          "time": 101.125,
          "velocity": 0.5511811023622047
        },
        {
          "duration": 0.018229166666671404,
          "durationTicks": 7,
          "midi": 38,
          "name": "D2",
          "ticks": 38832,
          "time": 101.125,
          "velocity": 0.8661417322834646
        },
        {
          "duration": 0.018229166666671404,
          "durationTicks": 7,
          "midi": 36,
          "name": "C2",
          "ticks": 38880,
          "time": 101.25,
          "velocity": 0.8661417322834646
        },
        {
          "duration": 0.018229166666671404,
          "durationTicks": 7,
          "midi": 35,
          "name": "B1",
          "ticks": 38880,
          "time": 101.25,
          "velocity": 0.5511811023622047
        },
        {
          "duration": 0.018229166666671404,
          "durationTicks": 7,
          "midi": 36,
          "name": "C2",
          "ticks": 38928,
          "time": 101.375,
          "velocity": 0.8661417322834646
        },
        {
          "duration": 0.018229166666671404,
          "durationTicks": 7,
          "midi": 35,
          "name": "B1",
          "ticks": 38928,
          "time": 101.375,
          "velocity": 0.5511811023622047
        },
        {
          "duration": 0.018229166666671404,
          "durationTicks": 7,
          "midi": 36,
          "name": "C2",
          "ticks": 38976,
          "time": 101.5,
          "velocity": 0.8661417322834646
        },
        {
          "duration": 0.018229166666671404,
          "durationTicks": 7,
          "midi": 35,
          "name": "B1",
          "ticks": 38976,
          "time": 101.5,
          "velocity": 0.5511811023622047
        },
        {
          "duration": 0.018229166666671404,
          "durationTicks": 7,
          "midi": 36,
          "name": "C2",
          "ticks": 39024,
          "time": 101.625,
          "velocity": 0.8661417322834646
        },
        {
          "duration": 0.018229166666671404,
          "durationTicks": 7,
          "midi": 35,
          "name": "B1",
          "ticks": 39024,
          "time": 101.625,
          "velocity": 0.5511811023622047
        },
        {
          "duration": 0.018229166666671404,
          "durationTicks": 7,
          "midi": 40,
          "name": "E2",
          "ticks": 39072,
          "time": 101.75,
          "velocity": 0.5511811023622047
        },
        {
          "duration": 0.018229166666671404,
          "durationTicks": 7,
          "midi": 38,
          "name": "D2",
          "ticks": 39072,
          "time": 101.75,
          "velocity": 0.8661417322834646
        },
        {
          "duration": 0.018229166666671404,
          "durationTicks": 7,
          "midi": 36,
          "name": "C2",
          "ticks": 39168,
          "time": 102,
          "velocity": 0.8661417322834646
        },
        {
          "duration": 0.018229166666671404,
          "durationTicks": 7,
          "midi": 35,
          "name": "B1",
          "ticks": 39168,
          "time": 102,
          "velocity": 0.5511811023622047
        },
        {
          "duration": 0.018229166666671404,
          "durationTicks": 7,
          "midi": 36,
          "name": "C2",
          "ticks": 39264,
          "time": 102.25,
          "velocity": 0.8661417322834646
        },
        {
          "duration": 0.018229166666671404,
          "durationTicks": 7,
          "midi": 35,
          "name": "B1",
          "ticks": 39264,
          "time": 102.25,
          "velocity": 0.5511811023622047
        },
        {
          "duration": 0.018229166666671404,
          "durationTicks": 7,
          "midi": 40,
          "name": "E2",
          "ticks": 39360,
          "time": 102.5,
          "velocity": 0.5511811023622047
        },
        {
          "duration": 0.018229166666671404,
          "durationTicks": 7,
          "midi": 38,
          "name": "D2",
          "ticks": 39360,
          "time": 102.5,
          "velocity": 0.8661417322834646
        },
        {
          "duration": 0.018229166666671404,
          "durationTicks": 7,
          "midi": 36,
          "name": "C2",
          "ticks": 39408,
          "time": 102.625,
          "velocity": 0.8661417322834646
        },
        {
          "duration": 0.018229166666671404,
          "durationTicks": 7,
          "midi": 35,
          "name": "B1",
          "ticks": 39408,
          "time": 102.625,
          "velocity": 0.5511811023622047
        },
        {
          "duration": 0.018229166666671404,
          "durationTicks": 7,
          "midi": 36,
          "name": "C2",
          "ticks": 39504,
          "time": 102.875,
          "velocity": 0.8661417322834646
        },
        {
          "duration": 0.018229166666671404,
          "durationTicks": 7,
          "midi": 35,
          "name": "B1",
          "ticks": 39504,
          "time": 102.875,
          "velocity": 0.5511811023622047
        },
        {
          "duration": 0.018229166666671404,
          "durationTicks": 7,
          "midi": 40,
          "name": "E2",
          "ticks": 39600,
          "time": 103.125,
          "velocity": 0.5511811023622047
        },
        {
          "duration": 0.018229166666671404,
          "durationTicks": 7,
          "midi": 38,
          "name": "D2",
          "ticks": 39600,
          "time": 103.125,
          "velocity": 0.8661417322834646
        },
        {
          "duration": 0.018229166666671404,
          "durationTicks": 7,
          "midi": 36,
          "name": "C2",
          "ticks": 39648,
          "time": 103.25,
          "velocity": 0.8661417322834646
        },
        {
          "duration": 0.018229166666671404,
          "durationTicks": 7,
          "midi": 35,
          "name": "B1",
          "ticks": 39648,
          "time": 103.25,
          "velocity": 0.5511811023622047
        },
        {
          "duration": 0.018229166666671404,
          "durationTicks": 7,
          "midi": 36,
          "name": "C2",
          "ticks": 39696,
          "time": 103.375,
          "velocity": 0.8661417322834646
        },
        {
          "duration": 0.018229166666671404,
          "durationTicks": 7,
          "midi": 35,
          "name": "B1",
          "ticks": 39696,
          "time": 103.375,
          "velocity": 0.5511811023622047
        },
        {
          "duration": 0.018229166666671404,
          "durationTicks": 7,
          "midi": 36,
          "name": "C2",
          "ticks": 39744,
          "time": 103.5,
          "velocity": 0.8661417322834646
        },
        {
          "duration": 0.018229166666671404,
          "durationTicks": 7,
          "midi": 35,
          "name": "B1",
          "ticks": 39744,
          "time": 103.5,
          "velocity": 0.5511811023622047
        },
        {
          "duration": 0.018229166666671404,
          "durationTicks": 7,
          "midi": 36,
          "name": "C2",
          "ticks": 39792,
          "time": 103.625,
          "velocity": 0.8661417322834646
        },
        {
          "duration": 0.018229166666671404,
          "durationTicks": 7,
          "midi": 35,
          "name": "B1",
          "ticks": 39792,
          "time": 103.625,
          "velocity": 0.5511811023622047
        },
        {
          "duration": 0.018229166666671404,
          "durationTicks": 7,
          "midi": 40,
          "name": "E2",
          "ticks": 39840,
          "time": 103.75,
          "velocity": 0.5511811023622047
        },
        {
          "duration": 0.018229166666671404,
          "durationTicks": 7,
          "midi": 38,
          "name": "D2",
          "ticks": 39840,
          "time": 103.75,
          "velocity": 0.8661417322834646
        },
        {
          "duration": 0.018229166666671404,
          "durationTicks": 7,
          "midi": 36,
          "name": "C2",
          "ticks": 39936,
          "time": 104,
          "velocity": 0.8661417322834646
        },
        {
          "duration": 0.018229166666671404,
          "durationTicks": 7,
          "midi": 35,
          "name": "B1",
          "ticks": 39936,
          "time": 104,
          "velocity": 0.5511811023622047
        },
        {
          "duration": 0.018229166666671404,
          "durationTicks": 7,
          "midi": 36,
          "name": "C2",
          "ticks": 40032,
          "time": 104.25,
          "velocity": 0.8661417322834646
        },
        {
          "duration": 0.018229166666671404,
          "durationTicks": 7,
          "midi": 35,
          "name": "B1",
          "ticks": 40032,
          "time": 104.25,
          "velocity": 0.5511811023622047
        },
        {
          "duration": 0.018229166666671404,
          "durationTicks": 7,
          "midi": 40,
          "name": "E2",
          "ticks": 40128,
          "time": 104.5,
          "velocity": 0.5511811023622047
        },
        {
          "duration": 0.018229166666671404,
          "durationTicks": 7,
          "midi": 38,
          "name": "D2",
          "ticks": 40128,
          "time": 104.5,
          "velocity": 0.8661417322834646
        },
        {
          "duration": 0.018229166666671404,
          "durationTicks": 7,
          "midi": 36,
          "name": "C2",
          "ticks": 40176,
          "time": 104.625,
          "velocity": 0.8661417322834646
        },
        {
          "duration": 0.018229166666671404,
          "durationTicks": 7,
          "midi": 35,
          "name": "B1",
          "ticks": 40176,
          "time": 104.625,
          "velocity": 0.5511811023622047
        },
        {
          "duration": 0.018229166666671404,
          "durationTicks": 7,
          "midi": 36,
          "name": "C2",
          "ticks": 40272,
          "time": 104.875,
          "velocity": 0.8661417322834646
        },
        {
          "duration": 0.018229166666671404,
          "durationTicks": 7,
          "midi": 35,
          "name": "B1",
          "ticks": 40272,
          "time": 104.875,
          "velocity": 0.5511811023622047
        },
        {
          "duration": 0.018229166666671404,
          "durationTicks": 7,
          "midi": 40,
          "name": "E2",
          "ticks": 40368,
          "time": 105.125,
          "velocity": 0.5511811023622047
        },
        {
          "duration": 0.018229166666671404,
          "durationTicks": 7,
          "midi": 38,
          "name": "D2",
          "ticks": 40368,
          "time": 105.125,
          "velocity": 0.8661417322834646
        },
        {
          "duration": 0.018229166666671404,
          "durationTicks": 7,
          "midi": 36,
          "name": "C2",
          "ticks": 40416,
          "time": 105.25,
          "velocity": 0.8661417322834646
        },
        {
          "duration": 0.018229166666671404,
          "durationTicks": 7,
          "midi": 35,
          "name": "B1",
          "ticks": 40416,
          "time": 105.25,
          "velocity": 0.5511811023622047
        },
        {
          "duration": 0.018229166666671404,
          "durationTicks": 7,
          "midi": 36,
          "name": "C2",
          "ticks": 40464,
          "time": 105.375,
          "velocity": 0.8661417322834646
        },
        {
          "duration": 0.018229166666671404,
          "durationTicks": 7,
          "midi": 35,
          "name": "B1",
          "ticks": 40464,
          "time": 105.375,
          "velocity": 0.5511811023622047
        },
        {
          "duration": 0.018229166666671404,
          "durationTicks": 7,
          "midi": 36,
          "name": "C2",
          "ticks": 40512,
          "time": 105.5,
          "velocity": 0.8661417322834646
        },
        {
          "duration": 0.018229166666671404,
          "durationTicks": 7,
          "midi": 35,
          "name": "B1",
          "ticks": 40512,
          "time": 105.5,
          "velocity": 0.5511811023622047
        },
        {
          "duration": 0.018229166666671404,
          "durationTicks": 7,
          "midi": 36,
          "name": "C2",
          "ticks": 40560,
          "time": 105.625,
          "velocity": 0.8661417322834646
        },
        {
          "duration": 0.018229166666671404,
          "durationTicks": 7,
          "midi": 35,
          "name": "B1",
          "ticks": 40560,
          "time": 105.625,
          "velocity": 0.5511811023622047
        },
        {
          "duration": 0.018229166666671404,
          "durationTicks": 7,
          "midi": 40,
          "name": "E2",
          "ticks": 40608,
          "time": 105.75,
          "velocity": 0.5511811023622047
        },
        {
          "duration": 0.018229166666671404,
          "durationTicks": 7,
          "midi": 38,
          "name": "D2",
          "ticks": 40608,
          "time": 105.75,
          "velocity": 0.8661417322834646
        },
        {
          "duration": 0.018229166666671404,
          "durationTicks": 7,
          "midi": 36,
          "name": "C2",
          "ticks": 40704,
          "time": 106,
          "velocity": 0.8661417322834646
        },
        {
          "duration": 0.018229166666671404,
          "durationTicks": 7,
          "midi": 35,
          "name": "B1",
          "ticks": 40704,
          "time": 106,
          "velocity": 0.5511811023622047
        },
        {
          "duration": 0.018229166666671404,
          "durationTicks": 7,
          "midi": 36,
          "name": "C2",
          "ticks": 40800,
          "time": 106.25,
          "velocity": 0.8661417322834646
        },
        {
          "duration": 0.018229166666671404,
          "durationTicks": 7,
          "midi": 35,
          "name": "B1",
          "ticks": 40800,
          "time": 106.25,
          "velocity": 0.5511811023622047
        },
        {
          "duration": 0.018229166666671404,
          "durationTicks": 7,
          "midi": 40,
          "name": "E2",
          "ticks": 40896,
          "time": 106.5,
          "velocity": 0.5511811023622047
        },
        {
          "duration": 0.018229166666671404,
          "durationTicks": 7,
          "midi": 38,
          "name": "D2",
          "ticks": 40896,
          "time": 106.5,
          "velocity": 0.8661417322834646
        },
        {
          "duration": 0.018229166666671404,
          "durationTicks": 7,
          "midi": 36,
          "name": "C2",
          "ticks": 40944,
          "time": 106.625,
          "velocity": 0.8661417322834646
        },
        {
          "duration": 0.018229166666671404,
          "durationTicks": 7,
          "midi": 35,
          "name": "B1",
          "ticks": 40944,
          "time": 106.625,
          "velocity": 0.5511811023622047
        },
        {
          "duration": 0.018229166666671404,
          "durationTicks": 7,
          "midi": 36,
          "name": "C2",
          "ticks": 41040,
          "time": 106.875,
          "velocity": 0.8661417322834646
        },
        {
          "duration": 0.018229166666671404,
          "durationTicks": 7,
          "midi": 35,
          "name": "B1",
          "ticks": 41040,
          "time": 106.875,
          "velocity": 0.5511811023622047
        },
        {
          "duration": 0.018229166666671404,
          "durationTicks": 7,
          "midi": 40,
          "name": "E2",
          "ticks": 41136,
          "time": 107.125,
          "velocity": 0.5511811023622047
        },
        {
          "duration": 0.018229166666671404,
          "durationTicks": 7,
          "midi": 38,
          "name": "D2",
          "ticks": 41136,
          "time": 107.125,
          "velocity": 0.8661417322834646
        },
        {
          "duration": 0.018229166666671404,
          "durationTicks": 7,
          "midi": 36,
          "name": "C2",
          "ticks": 41184,
          "time": 107.25,
          "velocity": 0.8661417322834646
        },
        {
          "duration": 0.018229166666671404,
          "durationTicks": 7,
          "midi": 35,
          "name": "B1",
          "ticks": 41184,
          "time": 107.25,
          "velocity": 0.5511811023622047
        },
        {
          "duration": 0.018229166666671404,
          "durationTicks": 7,
          "midi": 36,
          "name": "C2",
          "ticks": 41232,
          "time": 107.375,
          "velocity": 0.8661417322834646
        },
        {
          "duration": 0.018229166666671404,
          "durationTicks": 7,
          "midi": 35,
          "name": "B1",
          "ticks": 41232,
          "time": 107.375,
          "velocity": 0.5511811023622047
        },
        {
          "duration": 0.018229166666671404,
          "durationTicks": 7,
          "midi": 36,
          "name": "C2",
          "ticks": 41280,
          "time": 107.5,
          "velocity": 0.8661417322834646
        },
        {
          "duration": 0.018229166666671404,
          "durationTicks": 7,
          "midi": 35,
          "name": "B1",
          "ticks": 41280,
          "time": 107.5,
          "velocity": 0.5511811023622047
        },
        {
          "duration": 0.018229166666671404,
          "durationTicks": 7,
          "midi": 36,
          "name": "C2",
          "ticks": 41328,
          "time": 107.625,
          "velocity": 0.8661417322834646
        },
        {
          "duration": 0.018229166666671404,
          "durationTicks": 7,
          "midi": 35,
          "name": "B1",
          "ticks": 41328,
          "time": 107.625,
          "velocity": 0.5511811023622047
        },
        {
          "duration": 0.018229166666671404,
          "durationTicks": 7,
          "midi": 40,
          "name": "E2",
          "ticks": 41376,
          "time": 107.75,
          "velocity": 0.5511811023622047
        },
        {
          "duration": 0.018229166666671404,
          "durationTicks": 7,
          "midi": 38,
          "name": "D2",
          "ticks": 41376,
          "time": 107.75,
          "velocity": 0.8661417322834646
        },
        {
          "duration": 0.018229166666671404,
          "durationTicks": 7,
          "midi": 40,
          "name": "E2",
          "ticks": 42624,
          "time": 111,
          "velocity": 0.5511811023622047
        },
        {
          "duration": 0.018229166666671404,
          "durationTicks": 7,
          "midi": 38,
          "name": "D2",
          "ticks": 42624,
          "time": 111,
          "velocity": 0.8661417322834646
        },
        {
          "duration": 0.018229166666671404,
          "durationTicks": 7,
          "midi": 36,
          "name": "C2",
          "ticks": 42672,
          "time": 111.125,
          "velocity": 0.8661417322834646
        },
        {
          "duration": 0.018229166666671404,
          "durationTicks": 7,
          "midi": 35,
          "name": "B1",
          "ticks": 42672,
          "time": 111.125,
          "velocity": 0.5511811023622047
        },
        {
          "duration": 0.018229166666671404,
          "durationTicks": 7,
          "midi": 40,
          "name": "E2",
          "ticks": 42720,
          "time": 111.25,
          "velocity": 0.5511811023622047
        },
        {
          "duration": 0.018229166666671404,
          "durationTicks": 7,
          "midi": 38,
          "name": "D2",
          "ticks": 42720,
          "time": 111.25,
          "velocity": 0.8661417322834646
        },
        {
          "duration": 0.018229166666671404,
          "durationTicks": 7,
          "midi": 40,
          "name": "E2",
          "ticks": 42768,
          "time": 111.375,
          "velocity": 0.5511811023622047
        },
        {
          "duration": 0.018229166666671404,
          "durationTicks": 7,
          "midi": 38,
          "name": "D2",
          "ticks": 42768,
          "time": 111.375,
          "velocity": 0.8661417322834646
        },
        {
          "duration": 0.018229166666671404,
          "durationTicks": 7,
          "midi": 36,
          "name": "C2",
          "ticks": 42816,
          "time": 111.5,
          "velocity": 0.8661417322834646
        },
        {
          "duration": 0.018229166666671404,
          "durationTicks": 7,
          "midi": 35,
          "name": "B1",
          "ticks": 42816,
          "time": 111.5,
          "velocity": 0.5511811023622047
        },
        {
          "duration": 0.018229166666671404,
          "durationTicks": 7,
          "midi": 40,
          "name": "E2",
          "ticks": 42864,
          "time": 111.625,
          "velocity": 0.5511811023622047
        },
        {
          "duration": 0.018229166666671404,
          "durationTicks": 7,
          "midi": 38,
          "name": "D2",
          "ticks": 42864,
          "time": 111.625,
          "velocity": 0.8661417322834646
        },
        {
          "duration": 0.018229166666671404,
          "durationTicks": 7,
          "midi": 40,
          "name": "E2",
          "ticks": 42912,
          "time": 111.75,
          "velocity": 0.5511811023622047
        },
        {
          "duration": 0.018229166666671404,
          "durationTicks": 7,
          "midi": 38,
          "name": "D2",
          "ticks": 42912,
          "time": 111.75,
          "velocity": 0.8661417322834646
        },
        {
          "duration": 0.018229166666671404,
          "durationTicks": 7,
          "midi": 36,
          "name": "C2",
          "ticks": 42960,
          "time": 111.875,
          "velocity": 0.8661417322834646
        },
        {
          "duration": 0.018229166666671404,
          "durationTicks": 7,
          "midi": 35,
          "name": "B1",
          "ticks": 42960,
          "time": 111.875,
          "velocity": 0.5511811023622047
        },
        {
          "duration": 0.018229166666671404,
          "durationTicks": 7,
          "midi": 36,
          "name": "C2",
          "ticks": 43008,
          "time": 112,
          "velocity": 0.8661417322834646
        },
        {
          "duration": 0.018229166666671404,
          "durationTicks": 7,
          "midi": 35,
          "name": "B1",
          "ticks": 43008,
          "time": 112,
          "velocity": 0.5511811023622047
        },
        {
          "duration": 0.018229166666671404,
          "durationTicks": 7,
          "midi": 40,
          "name": "E2",
          "ticks": 43104,
          "time": 112.25,
          "velocity": 0.5511811023622047
        },
        {
          "duration": 0.018229166666671404,
          "durationTicks": 7,
          "midi": 38,
          "name": "D2",
          "ticks": 43104,
          "time": 112.25,
          "velocity": 0.8661417322834646
        },
        {
          "duration": 0.018229166666671404,
          "durationTicks": 7,
          "midi": 36,
          "name": "C2",
          "ticks": 43200,
          "time": 112.5,
          "velocity": 0.8661417322834646
        },
        {
          "duration": 0.018229166666671404,
          "durationTicks": 7,
          "midi": 35,
          "name": "B1",
          "ticks": 43200,
          "time": 112.5,
          "velocity": 0.5511811023622047
        },
        {
          "duration": 0.018229166666671404,
          "durationTicks": 7,
          "midi": 36,
          "name": "C2",
          "ticks": 43248,
          "time": 112.625,
          "velocity": 0.8661417322834646
        },
        {
          "duration": 0.018229166666671404,
          "durationTicks": 7,
          "midi": 35,
          "name": "B1",
          "ticks": 43248,
          "time": 112.625,
          "velocity": 0.5511811023622047
        },
        {
          "duration": 0.018229166666671404,
          "durationTicks": 7,
          "midi": 40,
          "name": "E2",
          "ticks": 43296,
          "time": 112.75,
          "velocity": 0.5511811023622047
        },
        {
          "duration": 0.018229166666671404,
          "durationTicks": 7,
          "midi": 38,
          "name": "D2",
          "ticks": 43296,
          "time": 112.75,
          "velocity": 0.8661417322834646
        },
        {
          "duration": 0.018229166666671404,
          "durationTicks": 7,
          "midi": 36,
          "name": "C2",
          "ticks": 43392,
          "time": 113,
          "velocity": 0.8661417322834646
        },
        {
          "duration": 0.018229166666671404,
          "durationTicks": 7,
          "midi": 35,
          "name": "B1",
          "ticks": 43392,
          "time": 113,
          "velocity": 0.5511811023622047
        },
        {
          "duration": 0.018229166666671404,
          "durationTicks": 7,
          "midi": 36,
          "name": "C2",
          "ticks": 43440,
          "time": 113.125,
          "velocity": 0.8661417322834646
        },
        {
          "duration": 0.018229166666671404,
          "durationTicks": 7,
          "midi": 35,
          "name": "B1",
          "ticks": 43440,
          "time": 113.125,
          "velocity": 0.5511811023622047
        },
        {
          "duration": 0.018229166666671404,
          "durationTicks": 7,
          "midi": 40,
          "name": "E2",
          "ticks": 43488,
          "time": 113.25,
          "velocity": 0.5511811023622047
        },
        {
          "duration": 0.018229166666671404,
          "durationTicks": 7,
          "midi": 38,
          "name": "D2",
          "ticks": 43488,
          "time": 113.25,
          "velocity": 0.8661417322834646
        },
        {
          "duration": 0.018229166666671404,
          "durationTicks": 7,
          "midi": 36,
          "name": "C2",
          "ticks": 43536,
          "time": 113.375,
          "velocity": 0.8661417322834646
        },
        {
          "duration": 0.018229166666671404,
          "durationTicks": 7,
          "midi": 35,
          "name": "B1",
          "ticks": 43536,
          "time": 113.375,
          "velocity": 0.5511811023622047
        },
        {
          "duration": 0.018229166666671404,
          "durationTicks": 7,
          "midi": 36,
          "name": "C2",
          "ticks": 43632,
          "time": 113.625,
          "velocity": 0.8661417322834646
        },
        {
          "duration": 0.018229166666671404,
          "durationTicks": 7,
          "midi": 35,
          "name": "B1",
          "ticks": 43632,
          "time": 113.625,
          "velocity": 0.5511811023622047
        },
        {
          "duration": 0.018229166666671404,
          "durationTicks": 7,
          "midi": 40,
          "name": "E2",
          "ticks": 43680,
          "time": 113.75,
          "velocity": 0.5511811023622047
        },
        {
          "duration": 0.018229166666671404,
          "durationTicks": 7,
          "midi": 38,
          "name": "D2",
          "ticks": 43680,
          "time": 113.75,
          "velocity": 0.8661417322834646
        },
        {
          "duration": 0.018229166666671404,
          "durationTicks": 7,
          "midi": 36,
          "name": "C2",
          "ticks": 43776,
          "time": 114,
          "velocity": 0.8661417322834646
        },
        {
          "duration": 0.018229166666671404,
          "durationTicks": 7,
          "midi": 35,
          "name": "B1",
          "ticks": 43776,
          "time": 114,
          "velocity": 0.5511811023622047
        },
        {
          "duration": 0.018229166666671404,
          "durationTicks": 7,
          "midi": 40,
          "name": "E2",
          "ticks": 43872,
          "time": 114.25,
          "velocity": 0.5511811023622047
        },
        {
          "duration": 0.018229166666671404,
          "durationTicks": 7,
          "midi": 38,
          "name": "D2",
          "ticks": 43872,
          "time": 114.25,
          "velocity": 0.8661417322834646
        },
        {
          "duration": 0.018229166666671404,
          "durationTicks": 7,
          "midi": 36,
          "name": "C2",
          "ticks": 43968,
          "time": 114.5,
          "velocity": 0.8661417322834646
        },
        {
          "duration": 0.018229166666671404,
          "durationTicks": 7,
          "midi": 35,
          "name": "B1",
          "ticks": 43968,
          "time": 114.5,
          "velocity": 0.5511811023622047
        },
        {
          "duration": 0.018229166666671404,
          "durationTicks": 7,
          "midi": 36,
          "name": "C2",
          "ticks": 44016,
          "time": 114.625,
          "velocity": 0.8661417322834646
        },
        {
          "duration": 0.018229166666671404,
          "durationTicks": 7,
          "midi": 35,
          "name": "B1",
          "ticks": 44016,
          "time": 114.625,
          "velocity": 0.5511811023622047
        },
        {
          "duration": 0.018229166666671404,
          "durationTicks": 7,
          "midi": 40,
          "name": "E2",
          "ticks": 44064,
          "time": 114.75,
          "velocity": 0.5511811023622047
        },
        {
          "duration": 0.018229166666671404,
          "durationTicks": 7,
          "midi": 38,
          "name": "D2",
          "ticks": 44064,
          "time": 114.75,
          "velocity": 0.8661417322834646
        },
        {
          "duration": 0.018229166666671404,
          "durationTicks": 7,
          "midi": 36,
          "name": "C2",
          "ticks": 44160,
          "time": 115,
          "velocity": 0.8661417322834646
        },
        {
          "duration": 0.018229166666671404,
          "durationTicks": 7,
          "midi": 35,
          "name": "B1",
          "ticks": 44160,
          "time": 115,
          "velocity": 0.5511811023622047
        },
        {
          "duration": 0.018229166666671404,
          "durationTicks": 7,
          "midi": 36,
          "name": "C2",
          "ticks": 44208,
          "time": 115.125,
          "velocity": 0.8661417322834646
        },
        {
          "duration": 0.018229166666671404,
          "durationTicks": 7,
          "midi": 35,
          "name": "B1",
          "ticks": 44208,
          "time": 115.125,
          "velocity": 0.5511811023622047
        },
        {
          "duration": 0.018229166666671404,
          "durationTicks": 7,
          "midi": 40,
          "name": "E2",
          "ticks": 44256,
          "time": 115.25,
          "velocity": 0.5511811023622047
        },
        {
          "duration": 0.018229166666671404,
          "durationTicks": 7,
          "midi": 38,
          "name": "D2",
          "ticks": 44256,
          "time": 115.25,
          "velocity": 0.8661417322834646
        },
        {
          "duration": 0.018229166666671404,
          "durationTicks": 7,
          "midi": 36,
          "name": "C2",
          "ticks": 44304,
          "time": 115.375,
          "velocity": 0.8661417322834646
        },
        {
          "duration": 0.018229166666671404,
          "durationTicks": 7,
          "midi": 35,
          "name": "B1",
          "ticks": 44304,
          "time": 115.375,
          "velocity": 0.5511811023622047
        },
        {
          "duration": 0.018229166666671404,
          "durationTicks": 7,
          "midi": 36,
          "name": "C2",
          "ticks": 44400,
          "time": 115.625,
          "velocity": 0.8661417322834646
        },
        {
          "duration": 0.018229166666671404,
          "durationTicks": 7,
          "midi": 35,
          "name": "B1",
          "ticks": 44400,
          "time": 115.625,
          "velocity": 0.5511811023622047
        },
        {
          "duration": 0.018229166666671404,
          "durationTicks": 7,
          "midi": 40,
          "name": "E2",
          "ticks": 44448,
          "time": 115.75,
          "velocity": 0.5511811023622047
        },
        {
          "duration": 0.018229166666671404,
          "durationTicks": 7,
          "midi": 38,
          "name": "D2",
          "ticks": 44448,
          "time": 115.75,
          "velocity": 0.8661417322834646
        },
        {
          "duration": 0.018229166666671404,
          "durationTicks": 7,
          "midi": 36,
          "name": "C2",
          "ticks": 44544,
          "time": 116,
          "velocity": 0.8661417322834646
        },
        {
          "duration": 0.018229166666671404,
          "durationTicks": 7,
          "midi": 35,
          "name": "B1",
          "ticks": 44544,
          "time": 116,
          "velocity": 0.5511811023622047
        },
        {
          "duration": 0.018229166666671404,
          "durationTicks": 7,
          "midi": 40,
          "name": "E2",
          "ticks": 44640,
          "time": 116.25,
          "velocity": 0.5511811023622047
        },
        {
          "duration": 0.018229166666671404,
          "durationTicks": 7,
          "midi": 38,
          "name": "D2",
          "ticks": 44640,
          "time": 116.25,
          "velocity": 0.8661417322834646
        },
        {
          "duration": 0.018229166666671404,
          "durationTicks": 7,
          "midi": 36,
          "name": "C2",
          "ticks": 44736,
          "time": 116.5,
          "velocity": 0.8661417322834646
        },
        {
          "duration": 0.018229166666671404,
          "durationTicks": 7,
          "midi": 35,
          "name": "B1",
          "ticks": 44736,
          "time": 116.5,
          "velocity": 0.5511811023622047
        },
        {
          "duration": 0.018229166666671404,
          "durationTicks": 7,
          "midi": 36,
          "name": "C2",
          "ticks": 44784,
          "time": 116.625,
          "velocity": 0.8661417322834646
        },
        {
          "duration": 0.018229166666671404,
          "durationTicks": 7,
          "midi": 35,
          "name": "B1",
          "ticks": 44784,
          "time": 116.625,
          "velocity": 0.5511811023622047
        },
        {
          "duration": 0.018229166666671404,
          "durationTicks": 7,
          "midi": 40,
          "name": "E2",
          "ticks": 44832,
          "time": 116.75,
          "velocity": 0.5511811023622047
        },
        {
          "duration": 0.018229166666671404,
          "durationTicks": 7,
          "midi": 38,
          "name": "D2",
          "ticks": 44832,
          "time": 116.75,
          "velocity": 0.8661417322834646
        },
        {
          "duration": 0.018229166666671404,
          "durationTicks": 7,
          "midi": 36,
          "name": "C2",
          "ticks": 44928,
          "time": 117,
          "velocity": 0.8661417322834646
        },
        {
          "duration": 0.018229166666671404,
          "durationTicks": 7,
          "midi": 35,
          "name": "B1",
          "ticks": 44928,
          "time": 117,
          "velocity": 0.5511811023622047
        },
        {
          "duration": 0.018229166666671404,
          "durationTicks": 7,
          "midi": 36,
          "name": "C2",
          "ticks": 44976,
          "time": 117.125,
          "velocity": 0.8661417322834646
        },
        {
          "duration": 0.018229166666671404,
          "durationTicks": 7,
          "midi": 35,
          "name": "B1",
          "ticks": 44976,
          "time": 117.125,
          "velocity": 0.5511811023622047
        },
        {
          "duration": 0.018229166666671404,
          "durationTicks": 7,
          "midi": 40,
          "name": "E2",
          "ticks": 45024,
          "time": 117.25,
          "velocity": 0.5511811023622047
        },
        {
          "duration": 0.018229166666671404,
          "durationTicks": 7,
          "midi": 38,
          "name": "D2",
          "ticks": 45024,
          "time": 117.25,
          "velocity": 0.8661417322834646
        },
        {
          "duration": 0.018229166666671404,
          "durationTicks": 7,
          "midi": 36,
          "name": "C2",
          "ticks": 45072,
          "time": 117.375,
          "velocity": 0.8661417322834646
        },
        {
          "duration": 0.018229166666671404,
          "durationTicks": 7,
          "midi": 35,
          "name": "B1",
          "ticks": 45072,
          "time": 117.375,
          "velocity": 0.5511811023622047
        },
        {
          "duration": 0.018229166666671404,
          "durationTicks": 7,
          "midi": 36,
          "name": "C2",
          "ticks": 45168,
          "time": 117.625,
          "velocity": 0.8661417322834646
        },
        {
          "duration": 0.018229166666671404,
          "durationTicks": 7,
          "midi": 35,
          "name": "B1",
          "ticks": 45168,
          "time": 117.625,
          "velocity": 0.5511811023622047
        },
        {
          "duration": 0.018229166666671404,
          "durationTicks": 7,
          "midi": 40,
          "name": "E2",
          "ticks": 45216,
          "time": 117.75,
          "velocity": 0.5511811023622047
        },
        {
          "duration": 0.018229166666671404,
          "durationTicks": 7,
          "midi": 38,
          "name": "D2",
          "ticks": 45216,
          "time": 117.75,
          "velocity": 0.8661417322834646
        },
        {
          "duration": 0.018229166666671404,
          "durationTicks": 7,
          "midi": 36,
          "name": "C2",
          "ticks": 45312,
          "time": 118,
          "velocity": 0.8661417322834646
        },
        {
          "duration": 0.018229166666671404,
          "durationTicks": 7,
          "midi": 35,
          "name": "B1",
          "ticks": 45312,
          "time": 118,
          "velocity": 0.5511811023622047
        },
        {
          "duration": 0.018229166666671404,
          "durationTicks": 7,
          "midi": 40,
          "name": "E2",
          "ticks": 45408,
          "time": 118.25,
          "velocity": 0.5511811023622047
        },
        {
          "duration": 0.018229166666671404,
          "durationTicks": 7,
          "midi": 38,
          "name": "D2",
          "ticks": 45408,
          "time": 118.25,
          "velocity": 0.8661417322834646
        },
        {
          "duration": 0.018229166666671404,
          "durationTicks": 7,
          "midi": 36,
          "name": "C2",
          "ticks": 45504,
          "time": 118.5,
          "velocity": 0.8661417322834646
        },
        {
          "duration": 0.018229166666671404,
          "durationTicks": 7,
          "midi": 35,
          "name": "B1",
          "ticks": 45504,
          "time": 118.5,
          "velocity": 0.5511811023622047
        },
        {
          "duration": 0.018229166666671404,
          "durationTicks": 7,
          "midi": 36,
          "name": "C2",
          "ticks": 45552,
          "time": 118.625,
          "velocity": 0.8661417322834646
        },
        {
          "duration": 0.018229166666671404,
          "durationTicks": 7,
          "midi": 35,
          "name": "B1",
          "ticks": 45552,
          "time": 118.625,
          "velocity": 0.5511811023622047
        },
        {
          "duration": 0.018229166666671404,
          "durationTicks": 7,
          "midi": 40,
          "name": "E2",
          "ticks": 45600,
          "time": 118.75,
          "velocity": 0.5511811023622047
        },
        {
          "duration": 0.018229166666671404,
          "durationTicks": 7,
          "midi": 38,
          "name": "D2",
          "ticks": 45600,
          "time": 118.75,
          "velocity": 0.8661417322834646
        },
        {
          "duration": 0.018229166666671404,
          "durationTicks": 7,
          "midi": 36,
          "name": "C2",
          "ticks": 45696,
          "time": 119,
          "velocity": 0.8661417322834646
        },
        {
          "duration": 0.018229166666671404,
          "durationTicks": 7,
          "midi": 35,
          "name": "B1",
          "ticks": 45696,
          "time": 119,
          "velocity": 0.5511811023622047
        },
        {
          "duration": 0.018229166666671404,
          "durationTicks": 7,
          "midi": 36,
          "name": "C2",
          "ticks": 45744,
          "time": 119.125,
          "velocity": 0.8661417322834646
        },
        {
          "duration": 0.018229166666671404,
          "durationTicks": 7,
          "midi": 35,
          "name": "B1",
          "ticks": 45744,
          "time": 119.125,
          "velocity": 0.5511811023622047
        },
        {
          "duration": 0.018229166666671404,
          "durationTicks": 7,
          "midi": 40,
          "name": "E2",
          "ticks": 45792,
          "time": 119.25,
          "velocity": 0.5511811023622047
        },
        {
          "duration": 0.018229166666671404,
          "durationTicks": 7,
          "midi": 38,
          "name": "D2",
          "ticks": 45792,
          "time": 119.25,
          "velocity": 0.8661417322834646
        },
        {
          "duration": 0.018229166666671404,
          "durationTicks": 7,
          "midi": 36,
          "name": "C2",
          "ticks": 45840,
          "time": 119.375,
          "velocity": 0.8661417322834646
        },
        {
          "duration": 0.018229166666671404,
          "durationTicks": 7,
          "midi": 35,
          "name": "B1",
          "ticks": 45840,
          "time": 119.375,
          "velocity": 0.5511811023622047
        },
        {
          "duration": 0.018229166666671404,
          "durationTicks": 7,
          "midi": 36,
          "name": "C2",
          "ticks": 45936,
          "time": 119.625,
          "velocity": 0.8661417322834646
        },
        {
          "duration": 0.018229166666671404,
          "durationTicks": 7,
          "midi": 35,
          "name": "B1",
          "ticks": 45936,
          "time": 119.625,
          "velocity": 0.5511811023622047
        },
        {
          "duration": 0.018229166666671404,
          "durationTicks": 7,
          "midi": 40,
          "name": "E2",
          "ticks": 45984,
          "time": 119.75,
          "velocity": 0.5511811023622047
        },
        {
          "duration": 0.018229166666671404,
          "durationTicks": 7,
          "midi": 38,
          "name": "D2",
          "ticks": 45984,
          "time": 119.75,
          "velocity": 0.8661417322834646
        },
        {
          "duration": 0.018229166666671404,
          "durationTicks": 7,
          "midi": 36,
          "name": "C2",
          "ticks": 46080,
          "time": 120,
          "velocity": 0.8661417322834646
        },
        {
          "duration": 0.018229166666671404,
          "durationTicks": 7,
          "midi": 35,
          "name": "B1",
          "ticks": 46080,
          "time": 120,
          "velocity": 0.5511811023622047
        },
        {
          "duration": 0.018229166666671404,
          "durationTicks": 7,
          "midi": 40,
          "name": "E2",
          "ticks": 46176,
          "time": 120.25,
          "velocity": 0.5511811023622047
        },
        {
          "duration": 0.018229166666671404,
          "durationTicks": 7,
          "midi": 38,
          "name": "D2",
          "ticks": 46176,
          "time": 120.25,
          "velocity": 0.8661417322834646
        },
        {
          "duration": 0.018229166666671404,
          "durationTicks": 7,
          "midi": 36,
          "name": "C2",
          "ticks": 46272,
          "time": 120.5,
          "velocity": 0.8661417322834646
        },
        {
          "duration": 0.018229166666671404,
          "durationTicks": 7,
          "midi": 35,
          "name": "B1",
          "ticks": 46272,
          "time": 120.5,
          "velocity": 0.5511811023622047
        },
        {
          "duration": 0.018229166666671404,
          "durationTicks": 7,
          "midi": 36,
          "name": "C2",
          "ticks": 46320,
          "time": 120.625,
          "velocity": 0.8661417322834646
        },
        {
          "duration": 0.018229166666671404,
          "durationTicks": 7,
          "midi": 35,
          "name": "B1",
          "ticks": 46320,
          "time": 120.625,
          "velocity": 0.5511811023622047
        },
        {
          "duration": 0.018229166666671404,
          "durationTicks": 7,
          "midi": 40,
          "name": "E2",
          "ticks": 46368,
          "time": 120.75,
          "velocity": 0.5511811023622047
        },
        {
          "duration": 0.018229166666671404,
          "durationTicks": 7,
          "midi": 38,
          "name": "D2",
          "ticks": 46368,
          "time": 120.75,
          "velocity": 0.8661417322834646
        },
        {
          "duration": 0.018229166666671404,
          "durationTicks": 7,
          "midi": 36,
          "name": "C2",
          "ticks": 46464,
          "time": 121,
          "velocity": 0.8661417322834646
        },
        {
          "duration": 0.018229166666671404,
          "durationTicks": 7,
          "midi": 35,
          "name": "B1",
          "ticks": 46464,
          "time": 121,
          "velocity": 0.5511811023622047
        },
        {
          "duration": 0.018229166666671404,
          "durationTicks": 7,
          "midi": 36,
          "name": "C2",
          "ticks": 46512,
          "time": 121.125,
          "velocity": 0.8661417322834646
        },
        {
          "duration": 0.018229166666671404,
          "durationTicks": 7,
          "midi": 35,
          "name": "B1",
          "ticks": 46512,
          "time": 121.125,
          "velocity": 0.5511811023622047
        },
        {
          "duration": 0.018229166666671404,
          "durationTicks": 7,
          "midi": 40,
          "name": "E2",
          "ticks": 46560,
          "time": 121.25,
          "velocity": 0.5511811023622047
        },
        {
          "duration": 0.018229166666671404,
          "durationTicks": 7,
          "midi": 38,
          "name": "D2",
          "ticks": 46560,
          "time": 121.25,
          "velocity": 0.8661417322834646
        },
        {
          "duration": 0.018229166666671404,
          "durationTicks": 7,
          "midi": 36,
          "name": "C2",
          "ticks": 46608,
          "time": 121.375,
          "velocity": 0.8661417322834646
        },
        {
          "duration": 0.018229166666671404,
          "durationTicks": 7,
          "midi": 35,
          "name": "B1",
          "ticks": 46608,
          "time": 121.375,
          "velocity": 0.5511811023622047
        },
        {
          "duration": 0.018229166666671404,
          "durationTicks": 7,
          "midi": 36,
          "name": "C2",
          "ticks": 46704,
          "time": 121.625,
          "velocity": 0.8661417322834646
        },
        {
          "duration": 0.018229166666671404,
          "durationTicks": 7,
          "midi": 35,
          "name": "B1",
          "ticks": 46704,
          "time": 121.625,
          "velocity": 0.5511811023622047
        },
        {
          "duration": 0.018229166666671404,
          "durationTicks": 7,
          "midi": 40,
          "name": "E2",
          "ticks": 46752,
          "time": 121.75,
          "velocity": 0.5511811023622047
        },
        {
          "duration": 0.018229166666671404,
          "durationTicks": 7,
          "midi": 38,
          "name": "D2",
          "ticks": 46752,
          "time": 121.75,
          "velocity": 0.8661417322834646
        },
        {
          "duration": 0.018229166666671404,
          "durationTicks": 7,
          "midi": 36,
          "name": "C2",
          "ticks": 46848,
          "time": 122,
          "velocity": 0.8661417322834646
        },
        {
          "duration": 0.018229166666671404,
          "durationTicks": 7,
          "midi": 35,
          "name": "B1",
          "ticks": 46848,
          "time": 122,
          "velocity": 0.5511811023622047
        },
        {
          "duration": 0.018229166666671404,
          "durationTicks": 7,
          "midi": 40,
          "name": "E2",
          "ticks": 46944,
          "time": 122.25,
          "velocity": 0.5511811023622047
        },
        {
          "duration": 0.018229166666671404,
          "durationTicks": 7,
          "midi": 38,
          "name": "D2",
          "ticks": 46944,
          "time": 122.25,
          "velocity": 0.8661417322834646
        },
        {
          "duration": 0.018229166666671404,
          "durationTicks": 7,
          "midi": 36,
          "name": "C2",
          "ticks": 47040,
          "time": 122.5,
          "velocity": 0.8661417322834646
        },
        {
          "duration": 0.018229166666671404,
          "durationTicks": 7,
          "midi": 35,
          "name": "B1",
          "ticks": 47040,
          "time": 122.5,
          "velocity": 0.5511811023622047
        },
        {
          "duration": 0.018229166666671404,
          "durationTicks": 7,
          "midi": 36,
          "name": "C2",
          "ticks": 47088,
          "time": 122.625,
          "velocity": 0.8661417322834646
        },
        {
          "duration": 0.018229166666671404,
          "durationTicks": 7,
          "midi": 35,
          "name": "B1",
          "ticks": 47088,
          "time": 122.625,
          "velocity": 0.5511811023622047
        },
        {
          "duration": 0.018229166666671404,
          "durationTicks": 7,
          "midi": 40,
          "name": "E2",
          "ticks": 47136,
          "time": 122.75,
          "velocity": 0.5511811023622047
        },
        {
          "duration": 0.018229166666671404,
          "durationTicks": 7,
          "midi": 38,
          "name": "D2",
          "ticks": 47136,
          "time": 122.75,
          "velocity": 0.8661417322834646
        },
        {
          "duration": 0.018229166666671404,
          "durationTicks": 7,
          "midi": 36,
          "name": "C2",
          "ticks": 47232,
          "time": 123,
          "velocity": 0.8661417322834646
        },
        {
          "duration": 0.018229166666671404,
          "durationTicks": 7,
          "midi": 35,
          "name": "B1",
          "ticks": 47232,
          "time": 123,
          "velocity": 0.5511811023622047
        },
        {
          "duration": 0.018229166666671404,
          "durationTicks": 7,
          "midi": 36,
          "name": "C2",
          "ticks": 47280,
          "time": 123.125,
          "velocity": 0.8661417322834646
        },
        {
          "duration": 0.018229166666671404,
          "durationTicks": 7,
          "midi": 35,
          "name": "B1",
          "ticks": 47280,
          "time": 123.125,
          "velocity": 0.5511811023622047
        },
        {
          "duration": 0.018229166666671404,
          "durationTicks": 7,
          "midi": 40,
          "name": "E2",
          "ticks": 47328,
          "time": 123.25,
          "velocity": 0.5511811023622047
        },
        {
          "duration": 0.018229166666671404,
          "durationTicks": 7,
          "midi": 38,
          "name": "D2",
          "ticks": 47328,
          "time": 123.25,
          "velocity": 0.8661417322834646
        },
        {
          "duration": 0.018229166666671404,
          "durationTicks": 7,
          "midi": 36,
          "name": "C2",
          "ticks": 47376,
          "time": 123.375,
          "velocity": 0.8661417322834646
        },
        {
          "duration": 0.018229166666671404,
          "durationTicks": 7,
          "midi": 35,
          "name": "B1",
          "ticks": 47376,
          "time": 123.375,
          "velocity": 0.5511811023622047
        },
        {
          "duration": 0.018229166666671404,
          "durationTicks": 7,
          "midi": 36,
          "name": "C2",
          "ticks": 47472,
          "time": 123.625,
          "velocity": 0.8661417322834646
        },
        {
          "duration": 0.018229166666671404,
          "durationTicks": 7,
          "midi": 35,
          "name": "B1",
          "ticks": 47472,
          "time": 123.625,
          "velocity": 0.5511811023622047
        },
        {
          "duration": 0.018229166666671404,
          "durationTicks": 7,
          "midi": 40,
          "name": "E2",
          "ticks": 47520,
          "time": 123.75,
          "velocity": 0.5511811023622047
        },
        {
          "duration": 0.018229166666671404,
          "durationTicks": 7,
          "midi": 38,
          "name": "D2",
          "ticks": 47520,
          "time": 123.75,
          "velocity": 0.8661417322834646
        },
        {
          "duration": 0.018229166666671404,
          "durationTicks": 7,
          "midi": 36,
          "name": "C2",
          "ticks": 47616,
          "time": 124,
          "velocity": 0.8661417322834646
        },
        {
          "duration": 0.018229166666671404,
          "durationTicks": 7,
          "midi": 35,
          "name": "B1",
          "ticks": 47616,
          "time": 124,
          "velocity": 0.5511811023622047
        },
        {
          "duration": 0.018229166666671404,
          "durationTicks": 7,
          "midi": 40,
          "name": "E2",
          "ticks": 47712,
          "time": 124.25,
          "velocity": 0.5511811023622047
        },
        {
          "duration": 0.018229166666671404,
          "durationTicks": 7,
          "midi": 38,
          "name": "D2",
          "ticks": 47712,
          "time": 124.25,
          "velocity": 0.8661417322834646
        },
        {
          "duration": 0.018229166666671404,
          "durationTicks": 7,
          "midi": 36,
          "name": "C2",
          "ticks": 47808,
          "time": 124.5,
          "velocity": 0.8661417322834646
        },
        {
          "duration": 0.018229166666671404,
          "durationTicks": 7,
          "midi": 35,
          "name": "B1",
          "ticks": 47808,
          "time": 124.5,
          "velocity": 0.5511811023622047
        },
        {
          "duration": 0.018229166666671404,
          "durationTicks": 7,
          "midi": 36,
          "name": "C2",
          "ticks": 47856,
          "time": 124.625,
          "velocity": 0.8661417322834646
        },
        {
          "duration": 0.018229166666671404,
          "durationTicks": 7,
          "midi": 35,
          "name": "B1",
          "ticks": 47856,
          "time": 124.625,
          "velocity": 0.5511811023622047
        },
        {
          "duration": 0.018229166666671404,
          "durationTicks": 7,
          "midi": 40,
          "name": "E2",
          "ticks": 47904,
          "time": 124.75,
          "velocity": 0.5511811023622047
        },
        {
          "duration": 0.018229166666671404,
          "durationTicks": 7,
          "midi": 38,
          "name": "D2",
          "ticks": 47904,
          "time": 124.75,
          "velocity": 0.8661417322834646
        },
        {
          "duration": 0.018229166666671404,
          "durationTicks": 7,
          "midi": 36,
          "name": "C2",
          "ticks": 48000,
          "time": 125,
          "velocity": 0.8661417322834646
        },
        {
          "duration": 0.018229166666671404,
          "durationTicks": 7,
          "midi": 35,
          "name": "B1",
          "ticks": 48000,
          "time": 125,
          "velocity": 0.5511811023622047
        },
        {
          "duration": 0.018229166666671404,
          "durationTicks": 7,
          "midi": 36,
          "name": "C2",
          "ticks": 48048,
          "time": 125.125,
          "velocity": 0.8661417322834646
        },
        {
          "duration": 0.018229166666671404,
          "durationTicks": 7,
          "midi": 35,
          "name": "B1",
          "ticks": 48048,
          "time": 125.125,
          "velocity": 0.5511811023622047
        },
        {
          "duration": 0.018229166666671404,
          "durationTicks": 7,
          "midi": 40,
          "name": "E2",
          "ticks": 48096,
          "time": 125.25,
          "velocity": 0.5511811023622047
        },
        {
          "duration": 0.018229166666671404,
          "durationTicks": 7,
          "midi": 38,
          "name": "D2",
          "ticks": 48096,
          "time": 125.25,
          "velocity": 0.8661417322834646
        },
        {
          "duration": 0.018229166666671404,
          "durationTicks": 7,
          "midi": 36,
          "name": "C2",
          "ticks": 48144,
          "time": 125.375,
          "velocity": 0.8661417322834646
        },
        {
          "duration": 0.018229166666671404,
          "durationTicks": 7,
          "midi": 35,
          "name": "B1",
          "ticks": 48144,
          "time": 125.375,
          "velocity": 0.5511811023622047
        },
        {
          "duration": 0.018229166666671404,
          "durationTicks": 7,
          "midi": 36,
          "name": "C2",
          "ticks": 48240,
          "time": 125.625,
          "velocity": 0.8661417322834646
        },
        {
          "duration": 0.018229166666671404,
          "durationTicks": 7,
          "midi": 35,
          "name": "B1",
          "ticks": 48240,
          "time": 125.625,
          "velocity": 0.5511811023622047
        },
        {
          "duration": 0.018229166666671404,
          "durationTicks": 7,
          "midi": 40,
          "name": "E2",
          "ticks": 48288,
          "time": 125.75,
          "velocity": 0.5511811023622047
        },
        {
          "duration": 0.018229166666671404,
          "durationTicks": 7,
          "midi": 38,
          "name": "D2",
          "ticks": 48288,
          "time": 125.75,
          "velocity": 0.8661417322834646
        },
        {
          "duration": 0.018229166666671404,
          "durationTicks": 7,
          "midi": 36,
          "name": "C2",
          "ticks": 48384,
          "time": 126,
          "velocity": 0.8661417322834646
        },
        {
          "duration": 0.018229166666671404,
          "durationTicks": 7,
          "midi": 35,
          "name": "B1",
          "ticks": 48384,
          "time": 126,
          "velocity": 0.5511811023622047
        },
        {
          "duration": 0.018229166666671404,
          "durationTicks": 7,
          "midi": 40,
          "name": "E2",
          "ticks": 48480,
          "time": 126.25,
          "velocity": 0.5511811023622047
        },
        {
          "duration": 0.018229166666671404,
          "durationTicks": 7,
          "midi": 38,
          "name": "D2",
          "ticks": 48480,
          "time": 126.25,
          "velocity": 0.8661417322834646
        },
        {
          "duration": 0.018229166666671404,
          "durationTicks": 7,
          "midi": 36,
          "name": "C2",
          "ticks": 48576,
          "time": 126.5,
          "velocity": 0.8661417322834646
        },
        {
          "duration": 0.018229166666671404,
          "durationTicks": 7,
          "midi": 35,
          "name": "B1",
          "ticks": 48576,
          "time": 126.5,
          "velocity": 0.5511811023622047
        },
        {
          "duration": 0.018229166666671404,
          "durationTicks": 7,
          "midi": 36,
          "name": "C2",
          "ticks": 48624,
          "time": 126.625,
          "velocity": 0.8661417322834646
        },
        {
          "duration": 0.018229166666671404,
          "durationTicks": 7,
          "midi": 35,
          "name": "B1",
          "ticks": 48624,
          "time": 126.625,
          "velocity": 0.5511811023622047
        },
        {
          "duration": 0.018229166666671404,
          "durationTicks": 7,
          "midi": 40,
          "name": "E2",
          "ticks": 48672,
          "time": 126.75,
          "velocity": 0.5511811023622047
        },
        {
          "duration": 0.018229166666671404,
          "durationTicks": 7,
          "midi": 38,
          "name": "D2",
          "ticks": 48672,
          "time": 126.75,
          "velocity": 0.8661417322834646
        },
        {
          "duration": 0.018229166666671404,
          "durationTicks": 7,
          "midi": 36,
          "name": "C2",
          "ticks": 48768,
          "time": 127,
          "velocity": 0.8661417322834646
        },
        {
          "duration": 0.018229166666671404,
          "durationTicks": 7,
          "midi": 35,
          "name": "B1",
          "ticks": 48768,
          "time": 127,
          "velocity": 0.5511811023622047
        },
        {
          "duration": 0.018229166666671404,
          "durationTicks": 7,
          "midi": 36,
          "name": "C2",
          "ticks": 48816,
          "time": 127.125,
          "velocity": 0.8661417322834646
        },
        {
          "duration": 0.018229166666671404,
          "durationTicks": 7,
          "midi": 35,
          "name": "B1",
          "ticks": 48816,
          "time": 127.125,
          "velocity": 0.5511811023622047
        },
        {
          "duration": 0.018229166666671404,
          "durationTicks": 7,
          "midi": 40,
          "name": "E2",
          "ticks": 48864,
          "time": 127.25,
          "velocity": 0.5511811023622047
        },
        {
          "duration": 0.018229166666671404,
          "durationTicks": 7,
          "midi": 38,
          "name": "D2",
          "ticks": 48864,
          "time": 127.25,
          "velocity": 0.8661417322834646
        },
        {
          "duration": 0.018229166666671404,
          "durationTicks": 7,
          "midi": 36,
          "name": "C2",
          "ticks": 48912,
          "time": 127.375,
          "velocity": 0.8661417322834646
        },
        {
          "duration": 0.018229166666671404,
          "durationTicks": 7,
          "midi": 35,
          "name": "B1",
          "ticks": 48912,
          "time": 127.375,
          "velocity": 0.5511811023622047
        },
        {
          "duration": 0.018229166666671404,
          "durationTicks": 7,
          "midi": 36,
          "name": "C2",
          "ticks": 49008,
          "time": 127.625,
          "velocity": 0.8661417322834646
        },
        {
          "duration": 0.018229166666671404,
          "durationTicks": 7,
          "midi": 35,
          "name": "B1",
          "ticks": 49008,
          "time": 127.625,
          "velocity": 0.5511811023622047
        },
        {
          "duration": 0.018229166666671404,
          "durationTicks": 7,
          "midi": 40,
          "name": "E2",
          "ticks": 49056,
          "time": 127.75,
          "velocity": 0.5511811023622047
        },
        {
          "duration": 0.018229166666671404,
          "durationTicks": 7,
          "midi": 38,
          "name": "D2",
          "ticks": 49056,
          "time": 127.75,
          "velocity": 0.8661417322834646
        },
        {
          "duration": 0.018229166666657193,
          "durationTicks": 7,
          "midi": 36,
          "name": "C2",
          "ticks": 49152,
          "time": 128,
          "velocity": 0.8661417322834646
        },
        {
          "duration": 0.018229166666657193,
          "durationTicks": 7,
          "midi": 35,
          "name": "B1",
          "ticks": 49152,
          "time": 128,
          "velocity": 0.5511811023622047
        },
        {
          "duration": 0.018229166666657193,
          "durationTicks": 7,
          "midi": 40,
          "name": "E2",
          "ticks": 49248,
          "time": 128.25,
          "velocity": 0.5511811023622047
        },
        {
          "duration": 0.018229166666657193,
          "durationTicks": 7,
          "midi": 38,
          "name": "D2",
          "ticks": 49248,
          "time": 128.25,
          "velocity": 0.8661417322834646
        },
        {
          "duration": 0.018229166666657193,
          "durationTicks": 7,
          "midi": 36,
          "name": "C2",
          "ticks": 49344,
          "time": 128.5,
          "velocity": 0.8661417322834646
        },
        {
          "duration": 0.018229166666657193,
          "durationTicks": 7,
          "midi": 35,
          "name": "B1",
          "ticks": 49344,
          "time": 128.5,
          "velocity": 0.5511811023622047
        },
        {
          "duration": 0.018229166666657193,
          "durationTicks": 7,
          "midi": 36,
          "name": "C2",
          "ticks": 49392,
          "time": 128.625,
          "velocity": 0.8661417322834646
        },
        {
          "duration": 0.018229166666657193,
          "durationTicks": 7,
          "midi": 35,
          "name": "B1",
          "ticks": 49392,
          "time": 128.625,
          "velocity": 0.5511811023622047
        },
        {
          "duration": 0.018229166666657193,
          "durationTicks": 7,
          "midi": 40,
          "name": "E2",
          "ticks": 49440,
          "time": 128.75,
          "velocity": 0.5511811023622047
        },
        {
          "duration": 0.018229166666657193,
          "durationTicks": 7,
          "midi": 38,
          "name": "D2",
          "ticks": 49440,
          "time": 128.75,
          "velocity": 0.8661417322834646
        },
        {
          "duration": 0.018229166666657193,
          "durationTicks": 7,
          "midi": 36,
          "name": "C2",
          "ticks": 49536,
          "time": 129,
          "velocity": 0.8661417322834646
        },
        {
          "duration": 0.018229166666657193,
          "durationTicks": 7,
          "midi": 35,
          "name": "B1",
          "ticks": 49536,
          "time": 129,
          "velocity": 0.5511811023622047
        },
        {
          "duration": 0.018229166666657193,
          "durationTicks": 7,
          "midi": 36,
          "name": "C2",
          "ticks": 49584,
          "time": 129.125,
          "velocity": 0.8661417322834646
        },
        {
          "duration": 0.018229166666657193,
          "durationTicks": 7,
          "midi": 35,
          "name": "B1",
          "ticks": 49584,
          "time": 129.125,
          "velocity": 0.5511811023622047
        },
        {
          "duration": 0.018229166666657193,
          "durationTicks": 7,
          "midi": 40,
          "name": "E2",
          "ticks": 49632,
          "time": 129.25,
          "velocity": 0.5511811023622047
        },
        {
          "duration": 0.018229166666657193,
          "durationTicks": 7,
          "midi": 38,
          "name": "D2",
          "ticks": 49632,
          "time": 129.25,
          "velocity": 0.8661417322834646
        },
        {
          "duration": 0.018229166666657193,
          "durationTicks": 7,
          "midi": 36,
          "name": "C2",
          "ticks": 49680,
          "time": 129.375,
          "velocity": 0.8661417322834646
        },
        {
          "duration": 0.018229166666657193,
          "durationTicks": 7,
          "midi": 35,
          "name": "B1",
          "ticks": 49680,
          "time": 129.375,
          "velocity": 0.5511811023622047
        },
        {
          "duration": 0.018229166666657193,
          "durationTicks": 7,
          "midi": 36,
          "name": "C2",
          "ticks": 49776,
          "time": 129.625,
          "velocity": 0.8661417322834646
        },
        {
          "duration": 0.018229166666657193,
          "durationTicks": 7,
          "midi": 35,
          "name": "B1",
          "ticks": 49776,
          "time": 129.625,
          "velocity": 0.5511811023622047
        },
        {
          "duration": 0.018229166666657193,
          "durationTicks": 7,
          "midi": 40,
          "name": "E2",
          "ticks": 49824,
          "time": 129.75,
          "velocity": 0.5511811023622047
        },
        {
          "duration": 0.018229166666657193,
          "durationTicks": 7,
          "midi": 38,
          "name": "D2",
          "ticks": 49824,
          "time": 129.75,
          "velocity": 0.8661417322834646
        },
        {
          "duration": 0.018229166666657193,
          "durationTicks": 7,
          "midi": 36,
          "name": "C2",
          "ticks": 49920,
          "time": 130,
          "velocity": 0.8661417322834646
        },
        {
          "duration": 0.018229166666657193,
          "durationTicks": 7,
          "midi": 35,
          "name": "B1",
          "ticks": 49920,
          "time": 130,
          "velocity": 0.5511811023622047
        },
        {
          "duration": 0.018229166666657193,
          "durationTicks": 7,
          "midi": 40,
          "name": "E2",
          "ticks": 50016,
          "time": 130.25,
          "velocity": 0.5511811023622047
        },
        {
          "duration": 0.018229166666657193,
          "durationTicks": 7,
          "midi": 38,
          "name": "D2",
          "ticks": 50016,
          "time": 130.25,
          "velocity": 0.8661417322834646
        },
        {
          "duration": 0.018229166666657193,
          "durationTicks": 7,
          "midi": 36,
          "name": "C2",
          "ticks": 50112,
          "time": 130.5,
          "velocity": 0.8661417322834646
        },
        {
          "duration": 0.018229166666657193,
          "durationTicks": 7,
          "midi": 35,
          "name": "B1",
          "ticks": 50112,
          "time": 130.5,
          "velocity": 0.5511811023622047
        },
        {
          "duration": 0.018229166666657193,
          "durationTicks": 7,
          "midi": 36,
          "name": "C2",
          "ticks": 50160,
          "time": 130.625,
          "velocity": 0.8661417322834646
        },
        {
          "duration": 0.018229166666657193,
          "durationTicks": 7,
          "midi": 35,
          "name": "B1",
          "ticks": 50160,
          "time": 130.625,
          "velocity": 0.5511811023622047
        },
        {
          "duration": 0.018229166666657193,
          "durationTicks": 7,
          "midi": 40,
          "name": "E2",
          "ticks": 50208,
          "time": 130.75,
          "velocity": 0.5511811023622047
        },
        {
          "duration": 0.018229166666657193,
          "durationTicks": 7,
          "midi": 38,
          "name": "D2",
          "ticks": 50208,
          "time": 130.75,
          "velocity": 0.8661417322834646
        },
        {
          "duration": 0.018229166666657193,
          "durationTicks": 7,
          "midi": 36,
          "name": "C2",
          "ticks": 50304,
          "time": 131,
          "velocity": 0.8661417322834646
        },
        {
          "duration": 0.018229166666657193,
          "durationTicks": 7,
          "midi": 35,
          "name": "B1",
          "ticks": 50304,
          "time": 131,
          "velocity": 0.5511811023622047
        },
        {
          "duration": 0.018229166666657193,
          "durationTicks": 7,
          "midi": 36,
          "name": "C2",
          "ticks": 50352,
          "time": 131.125,
          "velocity": 0.8661417322834646
        },
        {
          "duration": 0.018229166666657193,
          "durationTicks": 7,
          "midi": 35,
          "name": "B1",
          "ticks": 50352,
          "time": 131.125,
          "velocity": 0.5511811023622047
        },
        {
          "duration": 0.018229166666657193,
          "durationTicks": 7,
          "midi": 40,
          "name": "E2",
          "ticks": 50400,
          "time": 131.25,
          "velocity": 0.5511811023622047
        },
        {
          "duration": 0.018229166666657193,
          "durationTicks": 7,
          "midi": 38,
          "name": "D2",
          "ticks": 50400,
          "time": 131.25,
          "velocity": 0.8661417322834646
        },
        {
          "duration": 0.018229166666657193,
          "durationTicks": 7,
          "midi": 36,
          "name": "C2",
          "ticks": 50448,
          "time": 131.375,
          "velocity": 0.8661417322834646
        },
        {
          "duration": 0.018229166666657193,
          "durationTicks": 7,
          "midi": 35,
          "name": "B1",
          "ticks": 50448,
          "time": 131.375,
          "velocity": 0.5511811023622047
        },
        {
          "duration": 0.018229166666657193,
          "durationTicks": 7,
          "midi": 36,
          "name": "C2",
          "ticks": 50544,
          "time": 131.625,
          "velocity": 0.8661417322834646
        },
        {
          "duration": 0.018229166666657193,
          "durationTicks": 7,
          "midi": 35,
          "name": "B1",
          "ticks": 50544,
          "time": 131.625,
          "velocity": 0.5511811023622047
        },
        {
          "duration": 0.018229166666657193,
          "durationTicks": 7,
          "midi": 40,
          "name": "E2",
          "ticks": 50592,
          "time": 131.75,
          "velocity": 0.5511811023622047
        },
        {
          "duration": 0.018229166666657193,
          "durationTicks": 7,
          "midi": 38,
          "name": "D2",
          "ticks": 50592,
          "time": 131.75,
          "velocity": 0.8661417322834646
        },
        {
          "duration": 0.018229166666657193,
          "durationTicks": 7,
          "midi": 36,
          "name": "C2",
          "ticks": 50688,
          "time": 132,
          "velocity": 0.8661417322834646
        },
        {
          "duration": 0.018229166666657193,
          "durationTicks": 7,
          "midi": 35,
          "name": "B1",
          "ticks": 50688,
          "time": 132,
          "velocity": 0.5511811023622047
        },
        {
          "duration": 0.018229166666657193,
          "durationTicks": 7,
          "midi": 40,
          "name": "E2",
          "ticks": 50784,
          "time": 132.25,
          "velocity": 0.5511811023622047
        },
        {
          "duration": 0.018229166666657193,
          "durationTicks": 7,
          "midi": 38,
          "name": "D2",
          "ticks": 50784,
          "time": 132.25,
          "velocity": 0.8661417322834646
        },
        {
          "duration": 0.018229166666657193,
          "durationTicks": 7,
          "midi": 36,
          "name": "C2",
          "ticks": 50880,
          "time": 132.5,
          "velocity": 0.8661417322834646
        },
        {
          "duration": 0.018229166666657193,
          "durationTicks": 7,
          "midi": 35,
          "name": "B1",
          "ticks": 50880,
          "time": 132.5,
          "velocity": 0.5511811023622047
        },
        {
          "duration": 0.018229166666657193,
          "durationTicks": 7,
          "midi": 36,
          "name": "C2",
          "ticks": 50928,
          "time": 132.625,
          "velocity": 0.8661417322834646
        },
        {
          "duration": 0.018229166666657193,
          "durationTicks": 7,
          "midi": 35,
          "name": "B1",
          "ticks": 50928,
          "time": 132.625,
          "velocity": 0.5511811023622047
        },
        {
          "duration": 0.018229166666657193,
          "durationTicks": 7,
          "midi": 40,
          "name": "E2",
          "ticks": 50976,
          "time": 132.75,
          "velocity": 0.5511811023622047
        },
        {
          "duration": 0.018229166666657193,
          "durationTicks": 7,
          "midi": 38,
          "name": "D2",
          "ticks": 50976,
          "time": 132.75,
          "velocity": 0.8661417322834646
        },
        {
          "duration": 0.018229166666657193,
          "durationTicks": 7,
          "midi": 36,
          "name": "C2",
          "ticks": 51072,
          "time": 133,
          "velocity": 0.8661417322834646
        },
        {
          "duration": 0.018229166666657193,
          "durationTicks": 7,
          "midi": 35,
          "name": "B1",
          "ticks": 51072,
          "time": 133,
          "velocity": 0.5511811023622047
        },
        {
          "duration": 0.018229166666657193,
          "durationTicks": 7,
          "midi": 36,
          "name": "C2",
          "ticks": 51120,
          "time": 133.125,
          "velocity": 0.8661417322834646
        },
        {
          "duration": 0.018229166666657193,
          "durationTicks": 7,
          "midi": 35,
          "name": "B1",
          "ticks": 51120,
          "time": 133.125,
          "velocity": 0.5511811023622047
        },
        {
          "duration": 0.018229166666657193,
          "durationTicks": 7,
          "midi": 40,
          "name": "E2",
          "ticks": 51168,
          "time": 133.25,
          "velocity": 0.5511811023622047
        },
        {
          "duration": 0.018229166666657193,
          "durationTicks": 7,
          "midi": 38,
          "name": "D2",
          "ticks": 51168,
          "time": 133.25,
          "velocity": 0.8661417322834646
        },
        {
          "duration": 0.018229166666657193,
          "durationTicks": 7,
          "midi": 36,
          "name": "C2",
          "ticks": 51216,
          "time": 133.375,
          "velocity": 0.8661417322834646
        },
        {
          "duration": 0.018229166666657193,
          "durationTicks": 7,
          "midi": 35,
          "name": "B1",
          "ticks": 51216,
          "time": 133.375,
          "velocity": 0.5511811023622047
        },
        {
          "duration": 0.018229166666657193,
          "durationTicks": 7,
          "midi": 36,
          "name": "C2",
          "ticks": 51312,
          "time": 133.625,
          "velocity": 0.8661417322834646
        },
        {
          "duration": 0.018229166666657193,
          "durationTicks": 7,
          "midi": 35,
          "name": "B1",
          "ticks": 51312,
          "time": 133.625,
          "velocity": 0.5511811023622047
        },
        {
          "duration": 0.018229166666657193,
          "durationTicks": 7,
          "midi": 40,
          "name": "E2",
          "ticks": 51360,
          "time": 133.75,
          "velocity": 0.5511811023622047
        },
        {
          "duration": 0.018229166666657193,
          "durationTicks": 7,
          "midi": 38,
          "name": "D2",
          "ticks": 51360,
          "time": 133.75,
          "velocity": 0.8661417322834646
        },
        {
          "duration": 0.018229166666657193,
          "durationTicks": 7,
          "midi": 36,
          "name": "C2",
          "ticks": 51456,
          "time": 134,
          "velocity": 0.8661417322834646
        },
        {
          "duration": 0.018229166666657193,
          "durationTicks": 7,
          "midi": 35,
          "name": "B1",
          "ticks": 51456,
          "time": 134,
          "velocity": 0.5511811023622047
        },
        {
          "duration": 0.018229166666657193,
          "durationTicks": 7,
          "midi": 40,
          "name": "E2",
          "ticks": 51552,
          "time": 134.25,
          "velocity": 0.5511811023622047
        },
        {
          "duration": 0.018229166666657193,
          "durationTicks": 7,
          "midi": 38,
          "name": "D2",
          "ticks": 51552,
          "time": 134.25,
          "velocity": 0.8661417322834646
        },
        {
          "duration": 0.018229166666657193,
          "durationTicks": 7,
          "midi": 36,
          "name": "C2",
          "ticks": 51648,
          "time": 134.5,
          "velocity": 0.8661417322834646
        },
        {
          "duration": 0.018229166666657193,
          "durationTicks": 7,
          "midi": 35,
          "name": "B1",
          "ticks": 51648,
          "time": 134.5,
          "velocity": 0.5511811023622047
        },
        {
          "duration": 0.018229166666657193,
          "durationTicks": 7,
          "midi": 36,
          "name": "C2",
          "ticks": 51696,
          "time": 134.625,
          "velocity": 0.8661417322834646
        },
        {
          "duration": 0.018229166666657193,
          "durationTicks": 7,
          "midi": 35,
          "name": "B1",
          "ticks": 51696,
          "time": 134.625,
          "velocity": 0.5511811023622047
        },
        {
          "duration": 0.018229166666657193,
          "durationTicks": 7,
          "midi": 40,
          "name": "E2",
          "ticks": 51744,
          "time": 134.75,
          "velocity": 0.5511811023622047
        },
        {
          "duration": 0.018229166666657193,
          "durationTicks": 7,
          "midi": 38,
          "name": "D2",
          "ticks": 51744,
          "time": 134.75,
          "velocity": 0.8661417322834646
        },
        {
          "duration": 0.018229166666657193,
          "durationTicks": 7,
          "midi": 36,
          "name": "C2",
          "ticks": 51840,
          "time": 135,
          "velocity": 0.8661417322834646
        },
        {
          "duration": 0.018229166666657193,
          "durationTicks": 7,
          "midi": 35,
          "name": "B1",
          "ticks": 51840,
          "time": 135,
          "velocity": 0.5511811023622047
        },
        {
          "duration": 0.018229166666657193,
          "durationTicks": 7,
          "midi": 36,
          "name": "C2",
          "ticks": 51888,
          "time": 135.125,
          "velocity": 0.8661417322834646
        },
        {
          "duration": 0.018229166666657193,
          "durationTicks": 7,
          "midi": 35,
          "name": "B1",
          "ticks": 51888,
          "time": 135.125,
          "velocity": 0.5511811023622047
        },
        {
          "duration": 0.018229166666657193,
          "durationTicks": 7,
          "midi": 40,
          "name": "E2",
          "ticks": 51936,
          "time": 135.25,
          "velocity": 0.5511811023622047
        },
        {
          "duration": 0.018229166666657193,
          "durationTicks": 7,
          "midi": 38,
          "name": "D2",
          "ticks": 51936,
          "time": 135.25,
          "velocity": 0.8661417322834646
        },
        {
          "duration": 0.018229166666657193,
          "durationTicks": 7,
          "midi": 36,
          "name": "C2",
          "ticks": 51984,
          "time": 135.375,
          "velocity": 0.8661417322834646
        },
        {
          "duration": 0.018229166666657193,
          "durationTicks": 7,
          "midi": 35,
          "name": "B1",
          "ticks": 51984,
          "time": 135.375,
          "velocity": 0.5511811023622047
        },
        {
          "duration": 0.018229166666657193,
          "durationTicks": 7,
          "midi": 36,
          "name": "C2",
          "ticks": 52080,
          "time": 135.625,
          "velocity": 0.8661417322834646
        },
        {
          "duration": 0.018229166666657193,
          "durationTicks": 7,
          "midi": 35,
          "name": "B1",
          "ticks": 52080,
          "time": 135.625,
          "velocity": 0.5511811023622047
        },
        {
          "duration": 0.018229166666657193,
          "durationTicks": 7,
          "midi": 40,
          "name": "E2",
          "ticks": 52128,
          "time": 135.75,
          "velocity": 0.5511811023622047
        },
        {
          "duration": 0.018229166666657193,
          "durationTicks": 7,
          "midi": 38,
          "name": "D2",
          "ticks": 52128,
          "time": 135.75,
          "velocity": 0.8661417322834646
        },
        {
          "duration": 0.018229166666657193,
          "durationTicks": 7,
          "midi": 36,
          "name": "C2",
          "ticks": 52224,
          "time": 136,
          "velocity": 0.8661417322834646
        },
        {
          "duration": 0.018229166666657193,
          "durationTicks": 7,
          "midi": 35,
          "name": "B1",
          "ticks": 52224,
          "time": 136,
          "velocity": 0.5511811023622047
        },
        {
          "duration": 0.018229166666657193,
          "durationTicks": 7,
          "midi": 40,
          "name": "E2",
          "ticks": 52320,
          "time": 136.25,
          "velocity": 0.5511811023622047
        },
        {
          "duration": 0.018229166666657193,
          "durationTicks": 7,
          "midi": 38,
          "name": "D2",
          "ticks": 52320,
          "time": 136.25,
          "velocity": 0.8661417322834646
        },
        {
          "duration": 0.018229166666657193,
          "durationTicks": 7,
          "midi": 36,
          "name": "C2",
          "ticks": 52416,
          "time": 136.5,
          "velocity": 0.8661417322834646
        },
        {
          "duration": 0.018229166666657193,
          "durationTicks": 7,
          "midi": 35,
          "name": "B1",
          "ticks": 52416,
          "time": 136.5,
          "velocity": 0.5511811023622047
        },
        {
          "duration": 0.018229166666657193,
          "durationTicks": 7,
          "midi": 36,
          "name": "C2",
          "ticks": 52464,
          "time": 136.625,
          "velocity": 0.8661417322834646
        },
        {
          "duration": 0.018229166666657193,
          "durationTicks": 7,
          "midi": 35,
          "name": "B1",
          "ticks": 52464,
          "time": 136.625,
          "velocity": 0.5511811023622047
        },
        {
          "duration": 0.018229166666657193,
          "durationTicks": 7,
          "midi": 40,
          "name": "E2",
          "ticks": 52512,
          "time": 136.75,
          "velocity": 0.5511811023622047
        },
        {
          "duration": 0.018229166666657193,
          "durationTicks": 7,
          "midi": 38,
          "name": "D2",
          "ticks": 52512,
          "time": 136.75,
          "velocity": 0.8661417322834646
        },
        {
          "duration": 0.018229166666657193,
          "durationTicks": 7,
          "midi": 36,
          "name": "C2",
          "ticks": 52608,
          "time": 137,
          "velocity": 0.8661417322834646
        },
        {
          "duration": 0.018229166666657193,
          "durationTicks": 7,
          "midi": 35,
          "name": "B1",
          "ticks": 52608,
          "time": 137,
          "velocity": 0.5511811023622047
        },
        {
          "duration": 0.018229166666657193,
          "durationTicks": 7,
          "midi": 36,
          "name": "C2",
          "ticks": 52656,
          "time": 137.125,
          "velocity": 0.8661417322834646
        },
        {
          "duration": 0.018229166666657193,
          "durationTicks": 7,
          "midi": 35,
          "name": "B1",
          "ticks": 52656,
          "time": 137.125,
          "velocity": 0.5511811023622047
        },
        {
          "duration": 0.018229166666657193,
          "durationTicks": 7,
          "midi": 40,
          "name": "E2",
          "ticks": 52704,
          "time": 137.25,
          "velocity": 0.5511811023622047
        },
        {
          "duration": 0.018229166666657193,
          "durationTicks": 7,
          "midi": 38,
          "name": "D2",
          "ticks": 52704,
          "time": 137.25,
          "velocity": 0.8661417322834646
        },
        {
          "duration": 0.018229166666657193,
          "durationTicks": 7,
          "midi": 36,
          "name": "C2",
          "ticks": 52752,
          "time": 137.375,
          "velocity": 0.8661417322834646
        },
        {
          "duration": 0.018229166666657193,
          "durationTicks": 7,
          "midi": 35,
          "name": "B1",
          "ticks": 52752,
          "time": 137.375,
          "velocity": 0.5511811023622047
        },
        {
          "duration": 0.018229166666657193,
          "durationTicks": 7,
          "midi": 36,
          "name": "C2",
          "ticks": 52848,
          "time": 137.625,
          "velocity": 0.8661417322834646
        },
        {
          "duration": 0.018229166666657193,
          "durationTicks": 7,
          "midi": 35,
          "name": "B1",
          "ticks": 52848,
          "time": 137.625,
          "velocity": 0.5511811023622047
        },
        {
          "duration": 0.018229166666657193,
          "durationTicks": 7,
          "midi": 40,
          "name": "E2",
          "ticks": 52896,
          "time": 137.75,
          "velocity": 0.5511811023622047
        },
        {
          "duration": 0.018229166666657193,
          "durationTicks": 7,
          "midi": 38,
          "name": "D2",
          "ticks": 52896,
          "time": 137.75,
          "velocity": 0.8661417322834646
        },
        {
          "duration": 0.018229166666657193,
          "durationTicks": 7,
          "midi": 36,
          "name": "C2",
          "ticks": 52992,
          "time": 138,
          "velocity": 0.8661417322834646
        },
        {
          "duration": 0.018229166666657193,
          "durationTicks": 7,
          "midi": 35,
          "name": "B1",
          "ticks": 52992,
          "time": 138,
          "velocity": 0.5511811023622047
        },
        {
          "duration": 0.018229166666657193,
          "durationTicks": 7,
          "midi": 40,
          "name": "E2",
          "ticks": 53088,
          "time": 138.25,
          "velocity": 0.5511811023622047
        },
        {
          "duration": 0.018229166666657193,
          "durationTicks": 7,
          "midi": 38,
          "name": "D2",
          "ticks": 53088,
          "time": 138.25,
          "velocity": 0.8661417322834646
        },
        {
          "duration": 0.018229166666657193,
          "durationTicks": 7,
          "midi": 36,
          "name": "C2",
          "ticks": 53184,
          "time": 138.5,
          "velocity": 0.8661417322834646
        },
        {
          "duration": 0.018229166666657193,
          "durationTicks": 7,
          "midi": 35,
          "name": "B1",
          "ticks": 53184,
          "time": 138.5,
          "velocity": 0.5511811023622047
        },
        {
          "duration": 0.018229166666657193,
          "durationTicks": 7,
          "midi": 36,
          "name": "C2",
          "ticks": 53232,
          "time": 138.625,
          "velocity": 0.8661417322834646
        },
        {
          "duration": 0.018229166666657193,
          "durationTicks": 7,
          "midi": 35,
          "name": "B1",
          "ticks": 53232,
          "time": 138.625,
          "velocity": 0.5511811023622047
        },
        {
          "duration": 0.018229166666657193,
          "durationTicks": 7,
          "midi": 40,
          "name": "E2",
          "ticks": 53280,
          "time": 138.75,
          "velocity": 0.5511811023622047
        },
        {
          "duration": 0.018229166666657193,
          "durationTicks": 7,
          "midi": 38,
          "name": "D2",
          "ticks": 53280,
          "time": 138.75,
          "velocity": 0.8661417322834646
        },
        {
          "duration": 0.018229166666657193,
          "durationTicks": 7,
          "midi": 36,
          "name": "C2",
          "ticks": 53376,
          "time": 139,
          "velocity": 0.8661417322834646
        },
        {
          "duration": 0.018229166666657193,
          "durationTicks": 7,
          "midi": 35,
          "name": "B1",
          "ticks": 53376,
          "time": 139,
          "velocity": 0.5511811023622047
        },
        {
          "duration": 0.018229166666657193,
          "durationTicks": 7,
          "midi": 36,
          "name": "C2",
          "ticks": 53424,
          "time": 139.125,
          "velocity": 0.8661417322834646
        },
        {
          "duration": 0.018229166666657193,
          "durationTicks": 7,
          "midi": 35,
          "name": "B1",
          "ticks": 53424,
          "time": 139.125,
          "velocity": 0.5511811023622047
        },
        {
          "duration": 0.018229166666657193,
          "durationTicks": 7,
          "midi": 40,
          "name": "E2",
          "ticks": 53472,
          "time": 139.25,
          "velocity": 0.5511811023622047
        },
        {
          "duration": 0.018229166666657193,
          "durationTicks": 7,
          "midi": 38,
          "name": "D2",
          "ticks": 53472,
          "time": 139.25,
          "velocity": 0.8661417322834646
        },
        {
          "duration": 0.018229166666657193,
          "durationTicks": 7,
          "midi": 36,
          "name": "C2",
          "ticks": 53520,
          "time": 139.375,
          "velocity": 0.8661417322834646
        },
        {
          "duration": 0.018229166666657193,
          "durationTicks": 7,
          "midi": 35,
          "name": "B1",
          "ticks": 53520,
          "time": 139.375,
          "velocity": 0.5511811023622047
        },
        {
          "duration": 0.018229166666657193,
          "durationTicks": 7,
          "midi": 36,
          "name": "C2",
          "ticks": 53616,
          "time": 139.625,
          "velocity": 0.8661417322834646
        },
        {
          "duration": 0.018229166666657193,
          "durationTicks": 7,
          "midi": 35,
          "name": "B1",
          "ticks": 53616,
          "time": 139.625,
          "velocity": 0.5511811023622047
        },
        {
          "duration": 0.018229166666657193,
          "durationTicks": 7,
          "midi": 40,
          "name": "E2",
          "ticks": 53664,
          "time": 139.75,
          "velocity": 0.5511811023622047
        },
        {
          "duration": 0.018229166666657193,
          "durationTicks": 7,
          "midi": 38,
          "name": "D2",
          "ticks": 53664,
          "time": 139.75,
          "velocity": 0.8661417322834646
        },
        {
          "duration": 0.018229166666657193,
          "durationTicks": 7,
          "midi": 36,
          "name": "C2",
          "ticks": 53760,
          "time": 140,
          "velocity": 0.8661417322834646
        },
        {
          "duration": 0.018229166666657193,
          "durationTicks": 7,
          "midi": 35,
          "name": "B1",
          "ticks": 53760,
          "time": 140,
          "velocity": 0.5511811023622047
        },
        {
          "duration": 0.018229166666657193,
          "durationTicks": 7,
          "midi": 40,
          "name": "E2",
          "ticks": 53856,
          "time": 140.25,
          "velocity": 0.5511811023622047
        },
        {
          "duration": 0.018229166666657193,
          "durationTicks": 7,
          "midi": 38,
          "name": "D2",
          "ticks": 53856,
          "time": 140.25,
          "velocity": 0.8661417322834646
        },
        {
          "duration": 0.018229166666657193,
          "durationTicks": 7,
          "midi": 36,
          "name": "C2",
          "ticks": 53952,
          "time": 140.5,
          "velocity": 0.8661417322834646
        },
        {
          "duration": 0.018229166666657193,
          "durationTicks": 7,
          "midi": 35,
          "name": "B1",
          "ticks": 53952,
          "time": 140.5,
          "velocity": 0.5511811023622047
        },
        {
          "duration": 0.018229166666657193,
          "durationTicks": 7,
          "midi": 36,
          "name": "C2",
          "ticks": 54000,
          "time": 140.625,
          "velocity": 0.8661417322834646
        },
        {
          "duration": 0.018229166666657193,
          "durationTicks": 7,
          "midi": 35,
          "name": "B1",
          "ticks": 54000,
          "time": 140.625,
          "velocity": 0.5511811023622047
        },
        {
          "duration": 0.018229166666657193,
          "durationTicks": 7,
          "midi": 40,
          "name": "E2",
          "ticks": 54048,
          "time": 140.75,
          "velocity": 0.5511811023622047
        },
        {
          "duration": 0.018229166666657193,
          "durationTicks": 7,
          "midi": 38,
          "name": "D2",
          "ticks": 54048,
          "time": 140.75,
          "velocity": 0.8661417322834646
        },
        {
          "duration": 0.018229166666657193,
          "durationTicks": 7,
          "midi": 36,
          "name": "C2",
          "ticks": 54144,
          "time": 141,
          "velocity": 0.8661417322834646
        },
        {
          "duration": 0.018229166666657193,
          "durationTicks": 7,
          "midi": 35,
          "name": "B1",
          "ticks": 54144,
          "time": 141,
          "velocity": 0.5511811023622047
        },
        {
          "duration": 0.018229166666657193,
          "durationTicks": 7,
          "midi": 36,
          "name": "C2",
          "ticks": 54192,
          "time": 141.125,
          "velocity": 0.8661417322834646
        },
        {
          "duration": 0.018229166666657193,
          "durationTicks": 7,
          "midi": 35,
          "name": "B1",
          "ticks": 54192,
          "time": 141.125,
          "velocity": 0.5511811023622047
        },
        {
          "duration": 0.018229166666657193,
          "durationTicks": 7,
          "midi": 40,
          "name": "E2",
          "ticks": 54240,
          "time": 141.25,
          "velocity": 0.5511811023622047
        },
        {
          "duration": 0.018229166666657193,
          "durationTicks": 7,
          "midi": 38,
          "name": "D2",
          "ticks": 54240,
          "time": 141.25,
          "velocity": 0.8661417322834646
        },
        {
          "duration": 0.018229166666657193,
          "durationTicks": 7,
          "midi": 36,
          "name": "C2",
          "ticks": 54288,
          "time": 141.375,
          "velocity": 0.8661417322834646
        },
        {
          "duration": 0.018229166666657193,
          "durationTicks": 7,
          "midi": 35,
          "name": "B1",
          "ticks": 54288,
          "time": 141.375,
          "velocity": 0.5511811023622047
        },
        {
          "duration": 0.018229166666657193,
          "durationTicks": 7,
          "midi": 36,
          "name": "C2",
          "ticks": 54384,
          "time": 141.625,
          "velocity": 0.8661417322834646
        },
        {
          "duration": 0.018229166666657193,
          "durationTicks": 7,
          "midi": 35,
          "name": "B1",
          "ticks": 54384,
          "time": 141.625,
          "velocity": 0.5511811023622047
        },
        {
          "duration": 0.018229166666657193,
          "durationTicks": 7,
          "midi": 40,
          "name": "E2",
          "ticks": 54432,
          "time": 141.75,
          "velocity": 0.5511811023622047
        },
        {
          "duration": 0.018229166666657193,
          "durationTicks": 7,
          "midi": 38,
          "name": "D2",
          "ticks": 54432,
          "time": 141.75,
          "velocity": 0.8661417322834646
        },
        {
          "duration": 0.018229166666657193,
          "durationTicks": 7,
          "midi": 36,
          "name": "C2",
          "ticks": 54528,
          "time": 142,
          "velocity": 0.8661417322834646
        },
        {
          "duration": 0.018229166666657193,
          "durationTicks": 7,
          "midi": 35,
          "name": "B1",
          "ticks": 54528,
          "time": 142,
          "velocity": 0.5511811023622047
        },
        {
          "duration": 0.018229166666657193,
          "durationTicks": 7,
          "midi": 40,
          "name": "E2",
          "ticks": 54624,
          "time": 142.25,
          "velocity": 0.5511811023622047
        },
        {
          "duration": 0.018229166666657193,
          "durationTicks": 7,
          "midi": 38,
          "name": "D2",
          "ticks": 54624,
          "time": 142.25,
          "velocity": 0.8661417322834646
        },
        {
          "duration": 0.018229166666657193,
          "durationTicks": 7,
          "midi": 36,
          "name": "C2",
          "ticks": 54720,
          "time": 142.5,
          "velocity": 0.8661417322834646
        },
        {
          "duration": 0.018229166666657193,
          "durationTicks": 7,
          "midi": 35,
          "name": "B1",
          "ticks": 54720,
          "time": 142.5,
          "velocity": 0.5511811023622047
        },
        {
          "duration": 0.018229166666657193,
          "durationTicks": 7,
          "midi": 36,
          "name": "C2",
          "ticks": 54768,
          "time": 142.625,
          "velocity": 0.8661417322834646
        },
        {
          "duration": 0.018229166666657193,
          "durationTicks": 7,
          "midi": 35,
          "name": "B1",
          "ticks": 54768,
          "time": 142.625,
          "velocity": 0.5511811023622047
        },
        {
          "duration": 0.018229166666657193,
          "durationTicks": 7,
          "midi": 40,
          "name": "E2",
          "ticks": 54816,
          "time": 142.75,
          "velocity": 0.5511811023622047
        },
        {
          "duration": 0.018229166666657193,
          "durationTicks": 7,
          "midi": 38,
          "name": "D2",
          "ticks": 54816,
          "time": 142.75,
          "velocity": 0.8661417322834646
        },
        {
          "duration": 0.018229166666657193,
          "durationTicks": 7,
          "midi": 36,
          "name": "C2",
          "ticks": 54912,
          "time": 143,
          "velocity": 0.8661417322834646
        },
        {
          "duration": 0.018229166666657193,
          "durationTicks": 7,
          "midi": 35,
          "name": "B1",
          "ticks": 54912,
          "time": 143,
          "velocity": 0.5511811023622047
        },
        {
          "duration": 0.018229166666657193,
          "durationTicks": 7,
          "midi": 36,
          "name": "C2",
          "ticks": 54960,
          "time": 143.125,
          "velocity": 0.8661417322834646
        },
        {
          "duration": 0.018229166666657193,
          "durationTicks": 7,
          "midi": 35,
          "name": "B1",
          "ticks": 54960,
          "time": 143.125,
          "velocity": 0.5511811023622047
        },
        {
          "duration": 0.018229166666657193,
          "durationTicks": 7,
          "midi": 40,
          "name": "E2",
          "ticks": 55008,
          "time": 143.25,
          "velocity": 0.5511811023622047
        },
        {
          "duration": 0.018229166666657193,
          "durationTicks": 7,
          "midi": 38,
          "name": "D2",
          "ticks": 55008,
          "time": 143.25,
          "velocity": 0.8661417322834646
        },
        {
          "duration": 0.018229166666657193,
          "durationTicks": 7,
          "midi": 36,
          "name": "C2",
          "ticks": 55056,
          "time": 143.375,
          "velocity": 0.8661417322834646
        },
        {
          "duration": 0.018229166666657193,
          "durationTicks": 7,
          "midi": 35,
          "name": "B1",
          "ticks": 55056,
          "time": 143.375,
          "velocity": 0.5511811023622047
        },
        {
          "duration": 0.018229166666657193,
          "durationTicks": 7,
          "midi": 36,
          "name": "C2",
          "ticks": 55152,
          "time": 143.625,
          "velocity": 0.8661417322834646
        },
        {
          "duration": 0.018229166666657193,
          "durationTicks": 7,
          "midi": 35,
          "name": "B1",
          "ticks": 55152,
          "time": 143.625,
          "velocity": 0.5511811023622047
        },
        {
          "duration": 0.018229166666657193,
          "durationTicks": 7,
          "midi": 40,
          "name": "E2",
          "ticks": 55200,
          "time": 143.75,
          "velocity": 0.5511811023622047
        },
        {
          "duration": 0.018229166666657193,
          "durationTicks": 7,
          "midi": 38,
          "name": "D2",
          "ticks": 55200,
          "time": 143.75,
          "velocity": 0.8661417322834646
        }
      ]
    }
  ]
}