{
  "header": {
    "keySignatures": [
      {
        "key": "C",
        "scale": "major",
        "ticks": 0
      }
    ],
    "meta": {
      "title": "I'm a Believer",
      "artist": "Smash Mouth",
      "creator": "unknown"
    },
    "originalMeta": [
      {
        "text": "untitled",
        "ticks": 0,
        "type": "marker"
      }
    ],
    "name": "",
    "ppq": 192,
    "tempos": [
      {
        "bpm": 163.00007063336395,
        "ticks": 0
      }
    ],
    "timeSignatures": [
      {
        "ticks": 0,
        "timeSignature": [
          4,
          4
        ],
        "measures": 0
      }
    ]
  },
  "tracks": [
    {
      "channel": 0,
      "controlChanges": {
        "0": [
          {
            "number": 0,
            "ticks": 578,
            "time": 1.1081283541666667,
            "value": 0
          }
        ],
        "1": [
          {
            "number": 1,
            "ticks": 8,
            "time": 0.015337416666666666,
            "value": 0
          }
        ],
        "6": [
          {
            "number": 6,
            "ticks": 6,
            "time": 0.0115030625,
            "value": 0.09448818897637795
          }
        ],
        "7": [
          {
            "number": 7,
            "ticks": 0,
            "time": 0,
            "value": 0.7874015748031497
          }
        ],
        "10": [
          {
            "number": 10,
            "ticks": 0,
            "time": 0,
            "value": 0.5039370078740157
          }
        ],
        "11": [
          {
            "number": 11,
            "ticks": 7,
            "time": 0.013420239583333333,
            "value": 1
          },
          {
            "number": 11,
            "ticks": 10,
            "time": 0.019171770833333334,
            "value": 1
          }
        ],
        "32": [
          {
            "number": 32,
            "ticks": 578,
            "time": 1.1081283541666667,
            "value": 0
          }
        ],
        "38": [
          {
            "number": 38,
            "ticks": 6,
            "time": 0.0115030625,
            "value": 0
          }
        ],
        "64": [
          {
            "number": 64,
            "ticks": 3,
            "time": 0.00575153125,
            "value": 0
          }
        ],
        "67": [
          {
            "number": 67,
            "ticks": 2,
            "time": 0.0038343541666666665,
            "value": 0
          }
        ],
        "100": [
          {
            "number": 100,
            "ticks": 6,
            "time": 0.0115030625,
            "value": 0
          }
        ],
        "101": [
          {
            "number": 101,
            "ticks": 6,
            "time": 0.0115030625,
            "value": 0
          }
        ],
        "121": [
          {
            "number": 121,
            "ticks": 0,
            "time": 0,
            "value": 0
          }
        ]
      },
      "pitchBends": [],
      "instrument": {
        "family": "piano",
        "number": 0,
        "name": "acoustic grand piano"
      },
      "name": "tk1",
      "notes": [],
      "endOfTrackTicks": 93648
    },
    {
      "channel": 0,
      "controlChanges": {
        "7": [
          {
            "number": 7,
            "ticks": 580,
            "time": 1.1119627083333334,
            "value": 0.6299212598425197
          }
        ],
        "11": [
          {
            "number": 11,
            "ticks": 584,
            "time": 1.1196314166666665,
            "value": 1
          }
        ],
        "91": [
          {
            "number": 91,
            "ticks": 586,
            "time": 1.1234657708333333,
            "value": 0.3464566929133858
          }
        ],
        "93": [
          {
            "number": 93,
            "ticks": 588,
            "time": 1.1273001249999999,
            "value": 0
          }
        ],
        "123": [
          {
            "number": 123,
            "ticks": 93648,
            "time": 179.5397995,
            "value": 0
          }
        ]
      },
      "pitchBends": [],
      "instrument": {
        "family": "guitar",
        "number": 25,
        "name": "acoustic guitar (steel)"
      },
      "name": "",
      "notes": [
        {
          "duration": 0.1840489999999999,
          "durationTicks": 96,
          "midi": 48,
          "name": "C3",
          "ticks": 2304,
          "time": 4.4171759999999995,
          "velocity": 1
        },
        {
          "duration": 0.1840489999999999,
          "durationTicks": 96,
          "midi": 50,
          "name": "D3",
          "ticks": 2400,
          "time": 4.6012249999999995,
          "velocity": 0.7874015748031497
        },
        {
          "duration": 0.09202449999999995,
          "durationTicks": 48,
          "midi": 53,
          "name": "F3",
          "ticks": 2496,
          "time": 4.785273999999999,
          "velocity": 1
        },
        {
          "duration": 0.1840489999999999,
          "durationTicks": 96,
          "midi": 48,
          "name": "C3",
          "ticks": 2592,
          "time": 4.969323,
          "velocity": 1
        },
        {
          "duration": 0.1840489999999999,
          "durationTicks": 96,
          "midi": 50,
          "name": "D3",
          "ticks": 2688,
          "time": 5.153372,
          "velocity": 0.6220472440944882
        },
        {
          "duration": 0.09202449999999995,
          "durationTicks": 48,
          "midi": 53,
          "name": "F3",
          "ticks": 2784,
          "time": 5.337421,
          "velocity": 1
        },
        {
          "duration": 0.1840489999999999,
          "durationTicks": 96,
          "midi": 50,
          "name": "D3",
          "ticks": 2880,
          "time": 5.52147,
          "velocity": 1
        },
        {
          "duration": 0.09202449999999995,
          "durationTicks": 48,
          "midi": 53,
          "name": "F3",
          "ticks": 2976,
          "time": 5.705519,
          "velocity": 0.905511811023622
        },
        {
          "duration": 0.1840489999999999,
          "durationTicks": 96,
          "midi": 48,
          "name": "C3",
          "ticks": 3072,
          "time": 5.889568,
          "velocity": 1
        },
        {
          "duration": 0.1840489999999999,
          "durationTicks": 96,
          "midi": 50,
          "name": "D3",
          "ticks": 3168,
          "time": 6.073617,
          "velocity": 0.6929133858267716
        },
        {
          "duration": 0.09202449999999995,
          "durationTicks": 48,
          "midi": 53,
          "name": "F3",
          "ticks": 3264,
          "time": 6.2576659999999995,
          "velocity": 1
        },
        {
          "duration": 0.1840489999999999,
          "durationTicks": 96,
          "midi": 48,
          "name": "C3",
          "ticks": 3360,
          "time": 6.441714999999999,
          "velocity": 1
        },
        {
          "duration": 0.1840489999999999,
          "durationTicks": 96,
          "midi": 50,
          "name": "D3",
          "ticks": 3456,
          "time": 6.625763999999999,
          "velocity": 0.6929133858267716
        },
        {
          "duration": 0.09202450000000084,
          "durationTicks": 48,
          "midi": 53,
          "name": "F3",
          "ticks": 3552,
          "time": 6.809812999999999,
          "velocity": 0.905511811023622
        },
        {
          "duration": 0.1840489999999999,
          "durationTicks": 96,
          "midi": 50,
          "name": "D3",
          "ticks": 3648,
          "time": 6.993862,
          "velocity": 0.905511811023622
        },
        {
          "duration": 0.09202449999999995,
          "durationTicks": 48,
          "midi": 53,
          "name": "F3",
          "ticks": 3744,
          "time": 7.177911,
          "velocity": 1
        },
        {
          "duration": 0.1840489999999999,
          "durationTicks": 96,
          "midi": 55,
          "name": "G3",
          "ticks": 3840,
          "time": 7.36196,
          "velocity": 0.6220472440944882
        },
        {
          "duration": 0.1840489999999999,
          "durationTicks": 96,
          "midi": 62,
          "name": "D4",
          "ticks": 3840,
          "time": 7.36196,
          "velocity": 0.6220472440944882
        },
        {
          "duration": 0.1840489999999999,
          "durationTicks": 96,
          "midi": 43,
          "name": "G2",
          "ticks": 3840,
          "time": 7.36196,
          "velocity": 0.6929133858267716
        },
        {
          "duration": 0.1840489999999999,
          "durationTicks": 96,
          "midi": 47,
          "name": "B2",
          "ticks": 3840,
          "time": 7.36196,
          "velocity": 0.7874015748031497
        },
        {
          "duration": 0.1840489999999999,
          "durationTicks": 96,
          "midi": 62,
          "name": "D4",
          "ticks": 3936,
          "time": 7.546009,
          "velocity": 0.7874015748031497
        },
        {
          "duration": 0.1840489999999999,
          "durationTicks": 96,
          "midi": 55,
          "name": "G3",
          "ticks": 3936,
          "time": 7.546009,
          "velocity": 0.905511811023622
        },
        {
          "duration": 0.1840489999999999,
          "durationTicks": 96,
          "midi": 55,
          "name": "G3",
          "ticks": 4032,
          "time": 7.730058,
          "velocity": 0.7874015748031497
        },
        {
          "duration": 0.1840489999999999,
          "durationTicks": 96,
          "midi": 62,
          "name": "D4",
          "ticks": 4032,
          "time": 7.730058,
          "velocity": 0.7874015748031497
        },
        {
          "duration": 0.1840489999999999,
          "durationTicks": 96,
          "midi": 47,
          "name": "B2",
          "ticks": 4032,
          "time": 7.730058,
          "velocity": 0.905511811023622
        },
        {
          "duration": 0.1840489999999999,
          "durationTicks": 96,
          "midi": 67,
          "name": "G4",
          "ticks": 4032,
          "time": 7.730058,
          "velocity": 0.905511811023622
        },
        {
          "duration": 0.1840489999999999,
          "durationTicks": 96,
          "midi": 62,
          "name": "D4",
          "ticks": 4128,
          "time": 7.914107,
          "velocity": 0.6220472440944882
        },
        {
          "duration": 0.1840489999999999,
          "durationTicks": 96,
          "midi": 50,
          "name": "D3",
          "ticks": 4128,
          "time": 7.914107,
          "velocity": 0.6220472440944882
        },
        {
          "duration": 0.1840489999999999,
          "durationTicks": 96,
          "midi": 47,
          "name": "B2",
          "ticks": 4128,
          "time": 7.914107,
          "velocity": 0.6929133858267716
        },
        {
          "duration": 0.1840489999999999,
          "durationTicks": 96,
          "midi": 55,
          "name": "G3",
          "ticks": 4128,
          "time": 7.914107,
          "velocity": 0.7874015748031497
        },
        {
          "duration": 0.1840489999999999,
          "durationTicks": 96,
          "midi": 55,
          "name": "G3",
          "ticks": 4224,
          "time": 8.098156,
          "velocity": 0.6929133858267716
        },
        {
          "duration": 0.1859661770833334,
          "durationTicks": 97,
          "midi": 47,
          "name": "B2",
          "ticks": 4224,
          "time": 8.098156,
          "velocity": 0.6929133858267716
        },
        {
          "duration": 0.1840489999999999,
          "durationTicks": 96,
          "midi": 43,
          "name": "G2",
          "ticks": 4224,
          "time": 8.098156,
          "velocity": 0.6220472440944882
        },
        {
          "duration": 0.1840489999999999,
          "durationTicks": 96,
          "midi": 50,
          "name": "D3",
          "ticks": 4224,
          "time": 8.098156,
          "velocity": 0.5669291338582677
        },
        {
          "duration": 0.1840489999999999,
          "durationTicks": 96,
          "midi": 55,
          "name": "G3",
          "ticks": 4320,
          "time": 8.282205,
          "velocity": 0.6929133858267716
        },
        {
          "duration": 0.1840489999999999,
          "durationTicks": 96,
          "midi": 47,
          "name": "B2",
          "ticks": 4320,
          "time": 8.282205,
          "velocity": 0.7874015748031497
        },
        {
          "duration": 0.1840489999999999,
          "durationTicks": 96,
          "midi": 50,
          "name": "D3",
          "ticks": 4320,
          "time": 8.282205,
          "velocity": 0.6929133858267716
        },
        {
          "duration": 0.1840489999999999,
          "durationTicks": 96,
          "midi": 55,
          "name": "G3",
          "ticks": 4416,
          "time": 8.466254,
          "velocity": 0.905511811023622
        },
        {
          "duration": 0.1840489999999999,
          "durationTicks": 96,
          "midi": 62,
          "name": "D4",
          "ticks": 4416,
          "time": 8.466254,
          "velocity": 0.6929133858267716
        },
        {
          "duration": 0.1840489999999999,
          "durationTicks": 96,
          "midi": 50,
          "name": "D3",
          "ticks": 4416,
          "time": 8.466254,
          "velocity": 0.7874015748031497
        },
        {
          "duration": 0.1840489999999999,
          "durationTicks": 96,
          "midi": 55,
          "name": "G3",
          "ticks": 4512,
          "time": 8.650303,
          "velocity": 0.7874015748031497
        },
        {
          "duration": 0.1840489999999999,
          "durationTicks": 96,
          "midi": 50,
          "name": "D3",
          "ticks": 4512,
          "time": 8.650303,
          "velocity": 0.6929133858267716
        },
        {
          "duration": 0.1840489999999999,
          "durationTicks": 96,
          "midi": 66,
          "name": "F#4",
          "ticks": 4608,
          "time": 8.834351999999999,
          "velocity": 0.5826771653543307
        },
        {
          "duration": 0.1840489999999999,
          "durationTicks": 96,
          "midi": 50,
          "name": "D3",
          "ticks": 4608,
          "time": 8.834351999999999,
          "velocity": 0.7874015748031497
        },
        {
          "duration": 0.1840489999999999,
          "durationTicks": 96,
          "midi": 57,
          "name": "A3",
          "ticks": 4608,
          "time": 8.834351999999999,
          "velocity": 0.4645669291338583
        },
        {
          "duration": 0.1840489999999999,
          "durationTicks": 96,
          "midi": 62,
          "name": "D4",
          "ticks": 4608,
          "time": 8.834351999999999,
          "velocity": 0.5669291338582677
        },
        {
          "duration": 0.1840489999999999,
          "durationTicks": 96,
          "midi": 62,
          "name": "D4",
          "ticks": 4704,
          "time": 9.018400999999999,
          "velocity": 0.7874015748031497
        },
        {
          "duration": 0.1840489999999999,
          "durationTicks": 96,
          "midi": 57,
          "name": "A3",
          "ticks": 4704,
          "time": 9.018400999999999,
          "velocity": 0.49606299212598426
        },
        {
          "duration": 0.1840489999999999,
          "durationTicks": 96,
          "midi": 66,
          "name": "F#4",
          "ticks": 4800,
          "time": 9.202449999999999,
          "velocity": 1
        },
        {
          "duration": 0.1840489999999999,
          "durationTicks": 96,
          "midi": 50,
          "name": "D3",
          "ticks": 4800,
          "time": 9.202449999999999,
          "velocity": 0.905511811023622
        },
        {
          "duration": 0.1840489999999999,
          "durationTicks": 96,
          "midi": 62,
          "name": "D4",
          "ticks": 4800,
          "time": 9.202449999999999,
          "velocity": 0.905511811023622
        },
        {
          "duration": 0.1840489999999999,
          "durationTicks": 96,
          "midi": 57,
          "name": "A3",
          "ticks": 4800,
          "time": 9.202449999999999,
          "velocity": 0.905511811023622
        },
        {
          "duration": 0.1840489999999999,
          "durationTicks": 96,
          "midi": 57,
          "name": "A3",
          "ticks": 4896,
          "time": 9.386498999999999,
          "velocity": 0.6220472440944882
        },
        {
          "duration": 0.1840489999999999,
          "durationTicks": 96,
          "midi": 62,
          "name": "D4",
          "ticks": 4896,
          "time": 9.386498999999999,
          "velocity": 0.7874015748031497
        },
        {
          "duration": 0.1840489999999999,
          "durationTicks": 96,
          "midi": 62,
          "name": "D4",
          "ticks": 4992,
          "time": 9.570547999999999,
          "velocity": 0.7874015748031497
        },
        {
          "duration": 0.1840489999999999,
          "durationTicks": 96,
          "midi": 57,
          "name": "A3",
          "ticks": 4992,
          "time": 9.570547999999999,
          "velocity": 0.5669291338582677
        },
        {
          "duration": 0.1840489999999999,
          "durationTicks": 96,
          "midi": 50,
          "name": "D3",
          "ticks": 4992,
          "time": 9.570547999999999,
          "velocity": 0.7874015748031497
        },
        {
          "duration": 0.1859661770833334,
          "durationTicks": 97,
          "midi": 62,
          "name": "D4",
          "ticks": 5088,
          "time": 9.754596999999999,
          "velocity": 0.6929133858267716
        },
        {
          "duration": 0.18404900000000168,
          "durationTicks": 96,
          "midi": 57,
          "name": "A3",
          "ticks": 5088,
          "time": 9.754596999999999,
          "velocity": 0.5669291338582677
        },
        {
          "duration": 0.18596617708333163,
          "durationTicks": 97,
          "midi": 57,
          "name": "A3",
          "ticks": 5184,
          "time": 9.938646,
          "velocity": 0.7874015748031497
        },
        {
          "duration": 0.1840489999999999,
          "durationTicks": 96,
          "midi": 66,
          "name": "F#4",
          "ticks": 5184,
          "time": 9.938646,
          "velocity": 0.8110236220472441
        },
        {
          "duration": 0.1840489999999999,
          "durationTicks": 96,
          "midi": 50,
          "name": "D3",
          "ticks": 5184,
          "time": 9.938646,
          "velocity": 0.7874015748031497
        },
        {
          "duration": 0.18596617708333163,
          "durationTicks": 97,
          "midi": 62,
          "name": "D4",
          "ticks": 5184,
          "time": 9.938646,
          "velocity": 0.7874015748031497
        },
        {
          "duration": 0.1840489999999999,
          "durationTicks": 96,
          "midi": 57,
          "name": "A3",
          "ticks": 5280,
          "time": 10.122695,
          "velocity": 0.5669291338582677
        },
        {
          "duration": 0.1840489999999999,
          "durationTicks": 96,
          "midi": 62,
          "name": "D4",
          "ticks": 5280,
          "time": 10.122695,
          "velocity": 0.7874015748031497
        },
        {
          "duration": 0.1840489999999999,
          "durationTicks": 96,
          "midi": 55,
          "name": "G3",
          "ticks": 5376,
          "time": 10.306744,
          "velocity": 0.6929133858267716
        },
        {
          "duration": 0.1840489999999999,
          "durationTicks": 96,
          "midi": 43,
          "name": "G2",
          "ticks": 5376,
          "time": 10.306744,
          "velocity": 0.7874015748031497
        },
        {
          "duration": 0.18596617708333163,
          "durationTicks": 97,
          "midi": 62,
          "name": "D4",
          "ticks": 5376,
          "time": 10.306744,
          "velocity": 0.7874015748031497
        },
        {
          "duration": 0.1840489999999999,
          "durationTicks": 96,
          "midi": 47,
          "name": "B2",
          "ticks": 5376,
          "time": 10.306744,
          "velocity": 0.905511811023622
        },
        {
          "duration": 0.1840489999999999,
          "durationTicks": 96,
          "midi": 62,
          "name": "D4",
          "ticks": 5472,
          "time": 10.490793,
          "velocity": 0.7874015748031497
        },
        {
          "duration": 0.1840489999999999,
          "durationTicks": 96,
          "midi": 55,
          "name": "G3",
          "ticks": 5472,
          "time": 10.490793,
          "velocity": 0.6929133858267716
        },
        {
          "duration": 0.1840489999999999,
          "durationTicks": 96,
          "midi": 50,
          "name": "D3",
          "ticks": 5568,
          "time": 10.674842,
          "velocity": 0.905511811023622
        },
        {
          "duration": 0.1840489999999999,
          "durationTicks": 96,
          "midi": 55,
          "name": "G3",
          "ticks": 5568,
          "time": 10.674842,
          "velocity": 0.7874015748031497
        },
        {
          "duration": 0.1840489999999999,
          "durationTicks": 96,
          "midi": 67,
          "name": "G4",
          "ticks": 5568,
          "time": 10.674842,
          "velocity": 0.905511811023622
        },
        {
          "duration": 0.1840489999999999,
          "durationTicks": 96,
          "midi": 47,
          "name": "B2",
          "ticks": 5568,
          "time": 10.674842,
          "velocity": 0.6929133858267716
        },
        {
          "duration": 0.1840489999999999,
          "durationTicks": 96,
          "midi": 62,
          "name": "D4",
          "ticks": 5664,
          "time": 10.858891,
          "velocity": 0.7874015748031497
        },
        {
          "duration": 0.1840489999999999,
          "durationTicks": 96,
          "midi": 55,
          "name": "G3",
          "ticks": 5664,
          "time": 10.858891,
          "velocity": 0.6929133858267716
        },
        {
          "duration": 0.1840489999999999,
          "durationTicks": 96,
          "midi": 43,
          "name": "G2",
          "ticks": 5760,
          "time": 11.04294,
          "velocity": 0.7874015748031497
        },
        {
          "duration": 0.1840489999999999,
          "durationTicks": 96,
          "midi": 50,
          "name": "D3",
          "ticks": 5760,
          "time": 11.04294,
          "velocity": 0.6929133858267716
        },
        {
          "duration": 0.1840489999999999,
          "durationTicks": 96,
          "midi": 47,
          "name": "B2",
          "ticks": 5760,
          "time": 11.04294,
          "velocity": 0.6929133858267716
        },
        {
          "duration": 0.1840489999999999,
          "durationTicks": 96,
          "midi": 55,
          "name": "G3",
          "ticks": 5760,
          "time": 11.04294,
          "velocity": 0.6929133858267716
        },
        {
          "duration": 0.1840489999999999,
          "durationTicks": 96,
          "midi": 62,
          "name": "D4",
          "ticks": 5760,
          "time": 11.04294,
          "velocity": 0.905511811023622
        },
        {
          "duration": 0.1840489999999999,
          "durationTicks": 96,
          "midi": 62,
          "name": "D4",
          "ticks": 5856,
          "time": 11.226989,
          "velocity": 0.905511811023622
        },
        {
          "duration": 0.1840489999999999,
          "durationTicks": 96,
          "midi": 55,
          "name": "G3",
          "ticks": 5856,
          "time": 11.226989,
          "velocity": 0.6929133858267716
        },
        {
          "duration": 0.1840489999999999,
          "durationTicks": 96,
          "midi": 55,
          "name": "G3",
          "ticks": 5952,
          "time": 11.411038,
          "velocity": 0.7874015748031497
        },
        {
          "duration": 0.1840489999999999,
          "durationTicks": 96,
          "midi": 67,
          "name": "G4",
          "ticks": 5952,
          "time": 11.411038,
          "velocity": 0.7874015748031497
        },
        {
          "duration": 0.1840489999999999,
          "durationTicks": 96,
          "midi": 62,
          "name": "D4",
          "ticks": 5952,
          "time": 11.411038,
          "velocity": 0.6220472440944882
        },
        {
          "duration": 0.1840489999999999,
          "durationTicks": 96,
          "midi": 50,
          "name": "D3",
          "ticks": 5952,
          "time": 11.411038,
          "velocity": 0.6929133858267716
        },
        {
          "duration": 0.1840489999999999,
          "durationTicks": 96,
          "midi": 47,
          "name": "B2",
          "ticks": 5952,
          "time": 11.411038,
          "velocity": 0.6929133858267716
        },
        {
          "duration": 0.1840489999999999,
          "durationTicks": 96,
          "midi": 55,
          "name": "G3",
          "ticks": 6048,
          "time": 11.595087,
          "velocity": 0.7874015748031497
        },
        {
          "duration": 0.1840489999999999,
          "durationTicks": 96,
          "midi": 62,
          "name": "D4",
          "ticks": 6048,
          "time": 11.595087,
          "velocity": 0.7874015748031497
        },
        {
          "duration": 0.1840489999999999,
          "durationTicks": 96,
          "midi": 55,
          "name": "G3",
          "ticks": 6144,
          "time": 11.779136,
          "velocity": 0.7874015748031497
        },
        {
          "duration": 0.1840489999999999,
          "durationTicks": 96,
          "midi": 62,
          "name": "D4",
          "ticks": 6144,
          "time": 11.779136,
          "velocity": 1
        },
        {
          "duration": 0.1840489999999999,
          "durationTicks": 96,
          "midi": 47,
          "name": "B2",
          "ticks": 6144,
          "time": 11.779136,
          "velocity": 0.7874015748031497
        },
        {
          "duration": 0.1840489999999999,
          "durationTicks": 96,
          "midi": 43,
          "name": "G2",
          "ticks": 6144,
          "time": 11.779136,
          "velocity": 0.905511811023622
        },
        {
          "duration": 0.1840489999999999,
          "durationTicks": 96,
          "midi": 62,
          "name": "D4",
          "ticks": 6240,
          "time": 11.963185,
          "velocity": 0.6929133858267716
        },
        {
          "duration": 0.1840489999999999,
          "durationTicks": 96,
          "midi": 55,
          "name": "G3",
          "ticks": 6240,
          "time": 11.963185,
          "velocity": 0.6929133858267716
        },
        {
          "duration": 0.1840489999999999,
          "durationTicks": 96,
          "midi": 50,
          "name": "D3",
          "ticks": 6336,
          "time": 12.147234,
          "velocity": 0.6929133858267716
        },
        {
          "duration": 0.1840489999999999,
          "durationTicks": 96,
          "midi": 67,
          "name": "G4",
          "ticks": 6336,
          "time": 12.147234,
          "velocity": 0.905511811023622
        },
        {
          "duration": 0.1840489999999999,
          "durationTicks": 96,
          "midi": 47,
          "name": "B2",
          "ticks": 6336,
          "time": 12.147234,
          "velocity": 0.7874015748031497
        },
        {
          "duration": 0.1840489999999999,
          "durationTicks": 96,
          "midi": 55,
          "name": "G3",
          "ticks": 6336,
          "time": 12.147234,
          "velocity": 0.7874015748031497
        },
        {
          "duration": 0.1840489999999999,
          "durationTicks": 96,
          "midi": 62,
          "name": "D4",
          "ticks": 6432,
          "time": 12.331282999999999,
          "velocity": 0.905511811023622
        },
        {
          "duration": 0.1840489999999999,
          "durationTicks": 96,
          "midi": 55,
          "name": "G3",
          "ticks": 6432,
          "time": 12.331282999999999,
          "velocity": 0.6929133858267716
        },
        {
          "duration": 0.1840489999999999,
          "durationTicks": 96,
          "midi": 43,
          "name": "G2",
          "ticks": 6528,
          "time": 12.515331999999999,
          "velocity": 0.6929133858267716
        },
        {
          "duration": 0.1840489999999999,
          "durationTicks": 96,
          "midi": 62,
          "name": "D4",
          "ticks": 6528,
          "time": 12.515331999999999,
          "velocity": 0.7874015748031497
        },
        {
          "duration": 0.1840489999999999,
          "durationTicks": 96,
          "midi": 47,
          "name": "B2",
          "ticks": 6528,
          "time": 12.515331999999999,
          "velocity": 0.7874015748031497
        },
        {
          "duration": 0.18596617708333518,
          "durationTicks": 97,
          "midi": 55,
          "name": "G3",
          "ticks": 6528,
          "time": 12.515331999999999,
          "velocity": 0.6929133858267716
        },
        {
          "duration": 0.1840489999999999,
          "durationTicks": 96,
          "midi": 55,
          "name": "G3",
          "ticks": 6624,
          "time": 12.699380999999999,
          "velocity": 0.6220472440944882
        },
        {
          "duration": 0.1840489999999999,
          "durationTicks": 96,
          "midi": 62,
          "name": "D4",
          "ticks": 6624,
          "time": 12.699380999999999,
          "velocity": 0.7874015748031497
        },
        {
          "duration": 0.1840489999999999,
          "durationTicks": 96,
          "midi": 55,
          "name": "G3",
          "ticks": 6720,
          "time": 12.883429999999999,
          "velocity": 0.7874015748031497
        },
        {
          "duration": 0.1840489999999999,
          "durationTicks": 96,
          "midi": 67,
          "name": "G4",
          "ticks": 6720,
          "time": 12.883429999999999,
          "velocity": 1
        },
        {
          "duration": 0.18596617708333518,
          "durationTicks": 97,
          "midi": 62,
          "name": "D4",
          "ticks": 6720,
          "time": 12.883429999999999,
          "velocity": 0.6220472440944882
        },
        {
          "duration": 0.1840489999999999,
          "durationTicks": 96,
          "midi": 50,
          "name": "D3",
          "ticks": 6720,
          "time": 12.883429999999999,
          "velocity": 0.7874015748031497
        },
        {
          "duration": 0.1840489999999999,
          "durationTicks": 96,
          "midi": 47,
          "name": "B2",
          "ticks": 6720,
          "time": 12.883429999999999,
          "velocity": 0.905511811023622
        },
        {
          "duration": 0.1840489999999999,
          "durationTicks": 96,
          "midi": 55,
          "name": "G3",
          "ticks": 6816,
          "time": 13.067478999999999,
          "velocity": 0.7874015748031497
        },
        {
          "duration": 0.1840489999999999,
          "durationTicks": 96,
          "midi": 50,
          "name": "D3",
          "ticks": 6816,
          "time": 13.067478999999999,
          "velocity": 1
        },
        {
          "duration": 0.1840489999999999,
          "durationTicks": 96,
          "midi": 62,
          "name": "D4",
          "ticks": 6816,
          "time": 13.067478999999999,
          "velocity": 0.6220472440944882
        },
        {
          "duration": 0.18596617708333518,
          "durationTicks": 97,
          "midi": 62,
          "name": "D4",
          "ticks": 6912,
          "time": 13.251527999999999,
          "velocity": 0.6220472440944882
        },
        {
          "duration": 0.1840489999999999,
          "durationTicks": 96,
          "midi": 55,
          "name": "G3",
          "ticks": 6912,
          "time": 13.251527999999999,
          "velocity": 0.6220472440944882
        },
        {
          "duration": 0.1840489999999999,
          "durationTicks": 96,
          "midi": 47,
          "name": "B2",
          "ticks": 6912,
          "time": 13.251527999999999,
          "velocity": 0.7874015748031497
        },
        {
          "duration": 0.1840489999999999,
          "durationTicks": 96,
          "midi": 43,
          "name": "G2",
          "ticks": 6912,
          "time": 13.251527999999999,
          "velocity": 0.6929133858267716
        },
        {
          "duration": 0.1840489999999999,
          "durationTicks": 96,
          "midi": 55,
          "name": "G3",
          "ticks": 7008,
          "time": 13.435576999999999,
          "velocity": 0.905511811023622
        },
        {
          "duration": 0.1840489999999999,
          "durationTicks": 96,
          "midi": 62,
          "name": "D4",
          "ticks": 7008,
          "time": 13.435576999999999,
          "velocity": 0.7874015748031497
        },
        {
          "duration": 0.18404900000000168,
          "durationTicks": 96,
          "midi": 67,
          "name": "G4",
          "ticks": 7104,
          "time": 13.619625999999998,
          "velocity": 0.905511811023622
        },
        {
          "duration": 0.18404900000000168,
          "durationTicks": 96,
          "midi": 47,
          "name": "B2",
          "ticks": 7104,
          "time": 13.619625999999998,
          "velocity": 0.905511811023622
        },
        {
          "duration": 0.18404900000000168,
          "durationTicks": 96,
          "midi": 62,
          "name": "D4",
          "ticks": 7104,
          "time": 13.619625999999998,
          "velocity": 0.7874015748031497
        },
        {
          "duration": 0.18404900000000168,
          "durationTicks": 96,
          "midi": 55,
          "name": "G3",
          "ticks": 7104,
          "time": 13.619625999999998,
          "velocity": 0.7874015748031497
        },
        {
          "duration": 0.1840489999999999,
          "durationTicks": 96,
          "midi": 50,
          "name": "D3",
          "ticks": 7200,
          "time": 13.803675,
          "velocity": 0.6220472440944882
        },
        {
          "duration": 0.1840489999999999,
          "durationTicks": 96,
          "midi": 62,
          "name": "D4",
          "ticks": 7200,
          "time": 13.803675,
          "velocity": 0.6220472440944882
        },
        {
          "duration": 0.1840489999999999,
          "durationTicks": 96,
          "midi": 47,
          "name": "B2",
          "ticks": 7200,
          "time": 13.803675,
          "velocity": 0.6929133858267716
        },
        {
          "duration": 0.1840489999999999,
          "durationTicks": 96,
          "midi": 55,
          "name": "G3",
          "ticks": 7200,
          "time": 13.803675,
          "velocity": 0.7874015748031497
        },
        {
          "duration": 0.1840489999999999,
          "durationTicks": 96,
          "midi": 47,
          "name": "B2",
          "ticks": 7296,
          "time": 13.987724,
          "velocity": 0.6929133858267716
        },
        {
          "duration": 0.1840489999999999,
          "durationTicks": 96,
          "midi": 43,
          "name": "G2",
          "ticks": 7296,
          "time": 13.987724,
          "velocity": 0.6220472440944882
        },
        {
          "duration": 0.1840489999999999,
          "durationTicks": 96,
          "midi": 55,
          "name": "G3",
          "ticks": 7296,
          "time": 13.987724,
          "velocity": 0.6929133858267716
        },
        {
          "duration": 0.1840489999999999,
          "durationTicks": 96,
          "midi": 50,
          "name": "D3",
          "ticks": 7296,
          "time": 13.987724,
          "velocity": 0.5669291338582677
        },
        {
          "duration": 0.1840489999999999,
          "durationTicks": 96,
          "midi": 55,
          "name": "G3",
          "ticks": 7392,
          "time": 14.171773,
          "velocity": 0.6929133858267716
        },
        {
          "duration": 0.1859661770833334,
          "durationTicks": 97,
          "midi": 50,
          "name": "D3",
          "ticks": 7392,
          "time": 14.171773,
          "velocity": 0.6929133858267716
        },
        {
          "duration": 0.1840489999999999,
          "durationTicks": 96,
          "midi": 47,
          "name": "B2",
          "ticks": 7392,
          "time": 14.171773,
          "velocity": 0.7874015748031497
        },
        {
          "duration": 0.1840489999999999,
          "durationTicks": 96,
          "midi": 62,
          "name": "D4",
          "ticks": 7488,
          "time": 14.355822,
          "velocity": 0.6929133858267716
        },
        {
          "duration": 0.1859661770833334,
          "durationTicks": 97,
          "midi": 55,
          "name": "G3",
          "ticks": 7488,
          "time": 14.355822,
          "velocity": 0.905511811023622
        },
        {
          "duration": 0.1859661770833334,
          "durationTicks": 97,
          "midi": 50,
          "name": "D3",
          "ticks": 7488,
          "time": 14.355822,
          "velocity": 0.7874015748031497
        },
        {
          "duration": 0.1840489999999999,
          "durationTicks": 96,
          "midi": 50,
          "name": "D3",
          "ticks": 7584,
          "time": 14.539871,
          "velocity": 0.6929133858267716
        },
        {
          "duration": 0.1840489999999999,
          "durationTicks": 96,
          "midi": 55,
          "name": "G3",
          "ticks": 7584,
          "time": 14.539871,
          "velocity": 0.7874015748031497
        },
        {
          "duration": 0.1859661770833334,
          "durationTicks": 97,
          "midi": 62,
          "name": "D4",
          "ticks": 7680,
          "time": 14.72392,
          "velocity": 0.5669291338582677
        },
        {
          "duration": 0.1840489999999999,
          "durationTicks": 96,
          "midi": 57,
          "name": "A3",
          "ticks": 7680,
          "time": 14.72392,
          "velocity": 0.4645669291338583
        },
        {
          "duration": 0.1840489999999999,
          "durationTicks": 96,
          "midi": 50,
          "name": "D3",
          "ticks": 7680,
          "time": 14.72392,
          "velocity": 0.7874015748031497
        },
        {
          "duration": 0.1840489999999999,
          "durationTicks": 96,
          "midi": 66,
          "name": "F#4",
          "ticks": 7680,
          "time": 14.72392,
          "velocity": 0.5826771653543307
        },
        {
          "duration": 0.1840489999999999,
          "durationTicks": 96,
          "midi": 57,
          "name": "A3",
          "ticks": 7776,
          "time": 14.907969,
          "velocity": 0.49606299212598426
        },
        {
          "duration": 0.1840489999999999,
          "durationTicks": 96,
          "midi": 62,
          "name": "D4",
          "ticks": 7776,
          "time": 14.907969,
          "velocity": 0.7874015748031497
        },
        {
          "duration": 0.1840489999999999,
          "durationTicks": 96,
          "midi": 62,
          "name": "D4",
          "ticks": 7872,
          "time": 15.092018,
          "velocity": 0.905511811023622
        },
        {
          "duration": 0.1840489999999999,
          "durationTicks": 96,
          "midi": 57,
          "name": "A3",
          "ticks": 7872,
          "time": 15.092018,
          "velocity": 0.905511811023622
        },
        {
          "duration": 0.1840489999999999,
          "durationTicks": 96,
          "midi": 66,
          "name": "F#4",
          "ticks": 7872,
          "time": 15.092018,
          "velocity": 1
        },
        {
          "duration": 0.1840489999999999,
          "durationTicks": 96,
          "midi": 50,
          "name": "D3",
          "ticks": 7872,
          "time": 15.092018,
          "velocity": 0.905511811023622
        },
        {
          "duration": 0.1840489999999999,
          "durationTicks": 96,
          "midi": 57,
          "name": "A3",
          "ticks": 7968,
          "time": 15.276067,
          "velocity": 0.6220472440944882
        },
        {
          "duration": 0.1840489999999999,
          "durationTicks": 96,
          "midi": 62,
          "name": "D4",
          "ticks": 7968,
          "time": 15.276067,
          "velocity": 0.7874015748031497
        },
        {
          "duration": 0.1859661770833334,
          "durationTicks": 97,
          "midi": 62,
          "name": "D4",
          "ticks": 8064,
          "time": 15.460116,
          "velocity": 0.7874015748031497
        },
        {
          "duration": 0.1840489999999999,
          "durationTicks": 96,
          "midi": 50,
          "name": "D3",
          "ticks": 8064,
          "time": 15.460116,
          "velocity": 0.7874015748031497
        },
        {
          "duration": 0.1840489999999999,
          "durationTicks": 96,
          "midi": 57,
          "name": "A3",
          "ticks": 8064,
          "time": 15.460116,
          "velocity": 0.5669291338582677
        },
        {
          "duration": 0.1840489999999999,
          "durationTicks": 96,
          "midi": 57,
          "name": "A3",
          "ticks": 8160,
          "time": 15.644165,
          "velocity": 0.5669291338582677
        },
        {
          "duration": 0.1840489999999999,
          "durationTicks": 96,
          "midi": 62,
          "name": "D4",
          "ticks": 8160,
          "time": 15.644165,
          "velocity": 0.6929133858267716
        },
        {
          "duration": 0.18404900000000168,
          "durationTicks": 96,
          "midi": 50,
          "name": "D3",
          "ticks": 8256,
          "time": 15.828214,
          "velocity": 0.7874015748031497
        },
        {
          "duration": 0.18404900000000168,
          "durationTicks": 96,
          "midi": 66,
          "name": "F#4",
          "ticks": 8256,
          "time": 15.828214,
          "velocity": 0.8110236220472441
        },
        {
          "duration": 0.18404900000000168,
          "durationTicks": 96,
          "midi": 57,
          "name": "A3",
          "ticks": 8256,
          "time": 15.828214,
          "velocity": 0.7874015748031497
        },
        {
          "duration": 0.18404900000000168,
          "durationTicks": 96,
          "midi": 62,
          "name": "D4",
          "ticks": 8256,
          "time": 15.828214,
          "velocity": 0.7874015748031497
        },
        {
          "duration": 0.18404899999999813,
          "durationTicks": 96,
          "midi": 57,
          "name": "A3",
          "ticks": 8352,
          "time": 16.012263,
          "velocity": 0.5669291338582677
        },
        {
          "duration": 0.18404899999999813,
          "durationTicks": 96,
          "midi": 62,
          "name": "D4",
          "ticks": 8352,
          "time": 16.012263,
          "velocity": 0.7874015748031497
        },
        {
          "duration": 0.18404900000000168,
          "durationTicks": 96,
          "midi": 47,
          "name": "B2",
          "ticks": 8448,
          "time": 16.196312,
          "velocity": 0.905511811023622
        },
        {
          "duration": 0.18404900000000168,
          "durationTicks": 96,
          "midi": 43,
          "name": "G2",
          "ticks": 8448,
          "time": 16.196312,
          "velocity": 0.7874015748031497
        },
        {
          "duration": 0.18404900000000168,
          "durationTicks": 96,
          "midi": 62,
          "name": "D4",
          "ticks": 8448,
          "time": 16.196312,
          "velocity": 0.7874015748031497
        },
        {
          "duration": 0.18404900000000168,
          "durationTicks": 96,
          "midi": 55,
          "name": "G3",
          "ticks": 8448,
          "time": 16.196312,
          "velocity": 0.6929133858267716
        },
        {
          "duration": 0.18404899999999813,
          "durationTicks": 96,
          "midi": 62,
          "name": "D4",
          "ticks": 8544,
          "time": 16.380361,
          "velocity": 0.7874015748031497
        },
        {
          "duration": 0.18404899999999813,
          "durationTicks": 96,
          "midi": 55,
          "name": "G3",
          "ticks": 8544,
          "time": 16.380361,
          "velocity": 0.6929133858267716
        },
        {
          "duration": 0.18404900000000168,
          "durationTicks": 96,
          "midi": 55,
          "name": "G3",
          "ticks": 8640,
          "time": 16.56441,
          "velocity": 0.7874015748031497
        },
        {
          "duration": 0.18404900000000168,
          "durationTicks": 96,
          "midi": 50,
          "name": "D3",
          "ticks": 8640,
          "time": 16.56441,
          "velocity": 0.905511811023622
        },
        {
          "duration": 0.18404900000000168,
          "durationTicks": 96,
          "midi": 67,
          "name": "G4",
          "ticks": 8640,
          "time": 16.56441,
          "velocity": 0.905511811023622
        },
        {
          "duration": 0.18404900000000168,
          "durationTicks": 96,
          "midi": 47,
          "name": "B2",
          "ticks": 8640,
          "time": 16.56441,
          "velocity": 0.6929133858267716
        },
        {
          "duration": 0.18404899999999813,
          "durationTicks": 96,
          "midi": 55,
          "name": "G3",
          "ticks": 8736,
          "time": 16.748459,
          "velocity": 0.6929133858267716
        },
        {
          "duration": 0.18404899999999813,
          "durationTicks": 96,
          "midi": 62,
          "name": "D4",
          "ticks": 8736,
          "time": 16.748459,
          "velocity": 0.7874015748031497
        },
        {
          "duration": 0.18404900000000168,
          "durationTicks": 96,
          "midi": 50,
          "name": "D3",
          "ticks": 8832,
          "time": 16.932508,
          "velocity": 0.6929133858267716
        },
        {
          "duration": 0.18404900000000168,
          "durationTicks": 96,
          "midi": 55,
          "name": "G3",
          "ticks": 8832,
          "time": 16.932508,
          "velocity": 0.6929133858267716
        },
        {
          "duration": 0.18404900000000168,
          "durationTicks": 96,
          "midi": 47,
          "name": "B2",
          "ticks": 8832,
          "time": 16.932508,
          "velocity": 0.6929133858267716
        },
        {
          "duration": 0.18404900000000168,
          "durationTicks": 96,
          "midi": 43,
          "name": "G2",
          "ticks": 8832,
          "time": 16.932508,
          "velocity": 0.7874015748031497
        },
        {
          "duration": 0.18404900000000168,
          "durationTicks": 96,
          "midi": 62,
          "name": "D4",
          "ticks": 8832,
          "time": 16.932508,
          "velocity": 0.905511811023622
        },
        {
          "duration": 0.18404899999999813,
          "durationTicks": 96,
          "midi": 62,
          "name": "D4",
          "ticks": 8928,
          "time": 17.116557,
          "velocity": 0.905511811023622
        },
        {
          "duration": 0.18404899999999813,
          "durationTicks": 96,
          "midi": 55,
          "name": "G3",
          "ticks": 8928,
          "time": 17.116557,
          "velocity": 0.6929133858267716
        },
        {
          "duration": 0.18404900000000168,
          "durationTicks": 96,
          "midi": 67,
          "name": "G4",
          "ticks": 9024,
          "time": 17.300606,
          "velocity": 0.7874015748031497
        },
        {
          "duration": 0.18404900000000168,
          "durationTicks": 96,
          "midi": 47,
          "name": "B2",
          "ticks": 9024,
          "time": 17.300606,
          "velocity": 0.6929133858267716
        },
        {
          "duration": 0.18404900000000168,
          "durationTicks": 96,
          "midi": 62,
          "name": "D4",
          "ticks": 9024,
          "time": 17.300606,
          "velocity": 0.6220472440944882
        },
        {
          "duration": 0.18404900000000168,
          "durationTicks": 96,
          "midi": 50,
          "name": "D3",
          "ticks": 9024,
          "time": 17.300606,
          "velocity": 0.6929133858267716
        },
        {
          "duration": 0.1859661770833334,
          "durationTicks": 97,
          "midi": 55,
          "name": "G3",
          "ticks": 9024,
          "time": 17.300606,
          "velocity": 0.7874015748031497
        },
        {
          "duration": 0.18404899999999813,
          "durationTicks": 96,
          "midi": 55,
          "name": "G3",
          "ticks": 9120,
          "time": 17.484655,
          "velocity": 0.7874015748031497
        },
        {
          "duration": 0.18404899999999813,
          "durationTicks": 96,
          "midi": 62,
          "name": "D4",
          "ticks": 9120,
          "time": 17.484655,
          "velocity": 0.7874015748031497
        },
        {
          "duration": 0.18404900000000168,
          "durationTicks": 96,
          "midi": 43,
          "name": "G2",
          "ticks": 9216,
          "time": 17.668703999999998,
          "velocity": 0.905511811023622
        },
        {
          "duration": 0.18404900000000168,
          "durationTicks": 96,
          "midi": 47,
          "name": "B2",
          "ticks": 9216,
          "time": 17.668703999999998,
          "velocity": 0.7874015748031497
        },
        {
          "duration": 0.18404900000000168,
          "durationTicks": 96,
          "midi": 55,
          "name": "G3",
          "ticks": 9216,
          "time": 17.668703999999998,
          "velocity": 0.7874015748031497
        },
        {
          "duration": 0.18404900000000168,
          "durationTicks": 96,
          "midi": 62,
          "name": "D4",
          "ticks": 9216,
          "time": 17.668703999999998,
          "velocity": 1
        },
        {
          "duration": 0.18404899999999813,
          "durationTicks": 96,
          "midi": 55,
          "name": "G3",
          "ticks": 9312,
          "time": 17.852753,
          "velocity": 0.6929133858267716
        },
        {
          "duration": 0.18404899999999813,
          "durationTicks": 96,
          "midi": 62,
          "name": "D4",
          "ticks": 9312,
          "time": 17.852753,
          "velocity": 0.6929133858267716
        },
        {
          "duration": 0.18596617708333696,
          "durationTicks": 97,
          "midi": 55,
          "name": "G3",
          "ticks": 9408,
          "time": 18.036801999999998,
          "velocity": 0.7874015748031497
        },
        {
          "duration": 0.18404900000000168,
          "durationTicks": 96,
          "midi": 47,
          "name": "B2",
          "ticks": 9408,
          "time": 18.036801999999998,
          "velocity": 0.7874015748031497
        },
        {
          "duration": 0.18404900000000168,
          "durationTicks": 96,
          "midi": 50,
          "name": "D3",
          "ticks": 9408,
          "time": 18.036801999999998,
          "velocity": 0.6929133858267716
        },
        {
          "duration": 0.18404900000000168,
          "durationTicks": 96,
          "midi": 67,
          "name": "G4",
          "ticks": 9408,
          "time": 18.036801999999998,
          "velocity": 0.905511811023622
        },
        {
          "duration": 0.18404899999999813,
          "durationTicks": 96,
          "midi": 55,
          "name": "G3",
          "ticks": 9504,
          "time": 18.220851,
          "velocity": 0.6929133858267716
        },
        {
          "duration": 0.18404899999999813,
          "durationTicks": 96,
          "midi": 62,
          "name": "D4",
          "ticks": 9504,
          "time": 18.220851,
          "velocity": 0.905511811023622
        },
        {
          "duration": 0.18404900000000168,
          "durationTicks": 96,
          "midi": 62,
          "name": "D4",
          "ticks": 9600,
          "time": 18.404899999999998,
          "velocity": 0.7874015748031497
        },
        {
          "duration": 0.18404900000000168,
          "durationTicks": 96,
          "midi": 55,
          "name": "G3",
          "ticks": 9600,
          "time": 18.404899999999998,
          "velocity": 0.6929133858267716
        },
        {
          "duration": 0.18404900000000168,
          "durationTicks": 96,
          "midi": 47,
          "name": "B2",
          "ticks": 9600,
          "time": 18.404899999999998,
          "velocity": 0.7874015748031497
        },
        {
          "duration": 0.18404900000000168,
          "durationTicks": 96,
          "midi": 43,
          "name": "G2",
          "ticks": 9600,
          "time": 18.404899999999998,
          "velocity": 0.6929133858267716
        },
        {
          "duration": 0.18404899999999813,
          "durationTicks": 96,
          "midi": 55,
          "name": "G3",
          "ticks": 9696,
          "time": 18.588949,
          "velocity": 0.6220472440944882
        },
        {
          "duration": 0.18404899999999813,
          "durationTicks": 96,
          "midi": 62,
          "name": "D4",
          "ticks": 9696,
          "time": 18.588949,
          "velocity": 0.7874015748031497
        },
        {
          "duration": 0.18404900000000168,
          "durationTicks": 96,
          "midi": 67,
          "name": "G4",
          "ticks": 9792,
          "time": 18.772997999999998,
          "velocity": 1
        },
        {
          "duration": 0.18596617708333696,
          "durationTicks": 97,
          "midi": 50,
          "name": "D3",
          "ticks": 9792,
          "time": 18.772997999999998,
          "velocity": 0.7874015748031497
        },
        {
          "duration": 0.18404900000000168,
          "durationTicks": 96,
          "midi": 62,
          "name": "D4",
          "ticks": 9792,
          "time": 18.772997999999998,
          "velocity": 0.6220472440944882
        },
        {
          "duration": 0.18404900000000168,
          "durationTicks": 96,
          "midi": 55,
          "name": "G3",
          "ticks": 9792,
          "time": 18.772997999999998,
          "velocity": 0.7874015748031497
        },
        {
          "duration": 0.18404900000000168,
          "durationTicks": 96,
          "midi": 47,
          "name": "B2",
          "ticks": 9792,
          "time": 18.772997999999998,
          "velocity": 0.905511811023622
        },
        {
          "duration": 0.18404899999999813,
          "durationTicks": 96,
          "midi": 55,
          "name": "G3",
          "ticks": 9888,
          "time": 18.957047,
          "velocity": 0.7874015748031497
        },
        {
          "duration": 0.18404899999999813,
          "durationTicks": 96,
          "midi": 62,
          "name": "D4",
          "ticks": 9888,
          "time": 18.957047,
          "velocity": 0.6220472440944882
        },
        {
          "duration": 0.18404899999999813,
          "durationTicks": 96,
          "midi": 50,
          "name": "D3",
          "ticks": 9888,
          "time": 18.957047,
          "velocity": 1
        },
        {
          "duration": 0.18404900000000168,
          "durationTicks": 96,
          "midi": 48,
          "name": "C3",
          "ticks": 9984,
          "time": 19.141095999999997,
          "velocity": 0.6220472440944882
        },
        {
          "duration": 0.18404900000000168,
          "durationTicks": 96,
          "midi": 52,
          "name": "E3",
          "ticks": 9984,
          "time": 19.141095999999997,
          "velocity": 0.6929133858267716
        },
        {
          "duration": 0.18404900000000168,
          "durationTicks": 96,
          "midi": 60,
          "name": "C4",
          "ticks": 9984,
          "time": 19.141095999999997,
          "velocity": 0.5669291338582677
        },
        {
          "duration": 0.18404900000000168,
          "durationTicks": 96,
          "midi": 55,
          "name": "G3",
          "ticks": 9984,
          "time": 19.141095999999997,
          "velocity": 0.49606299212598426
        },
        {
          "duration": 0.18404900000000168,
          "durationTicks": 96,
          "midi": 64,
          "name": "E4",
          "ticks": 9984,
          "time": 19.141095999999997,
          "velocity": 0.49606299212598426
        },
        {
          "duration": 0.1859661770833334,
          "durationTicks": 97,
          "midi": 52,
          "name": "E3",
          "ticks": 10080,
          "time": 19.325145,
          "velocity": 0.6220472440944882
        },
        {
          "duration": 0.18404899999999813,
          "durationTicks": 96,
          "midi": 48,
          "name": "C3",
          "ticks": 10080,
          "time": 19.325145,
          "velocity": 0.6929133858267716
        },
        {
          "duration": 0.1859661770833334,
          "durationTicks": 97,
          "midi": 55,
          "name": "G3",
          "ticks": 10080,
          "time": 19.325145,
          "velocity": 0.49606299212598426
        },
        {
          "duration": 0.18404899999999813,
          "durationTicks": 96,
          "midi": 64,
          "name": "E4",
          "ticks": 10080,
          "time": 19.325145,
          "velocity": 0.5275590551181102
        },
        {
          "duration": 0.1859661770833334,
          "durationTicks": 97,
          "midi": 60,
          "name": "C4",
          "ticks": 10080,
          "time": 19.325145,
          "velocity": 0.6220472440944882
        },
        {
          "duration": 0.18596617708333696,
          "durationTicks": 97,
          "midi": 64,
          "name": "E4",
          "ticks": 10176,
          "time": 19.509193999999997,
          "velocity": 0.7874015748031497
        },
        {
          "duration": 0.18404900000000168,
          "durationTicks": 96,
          "midi": 48,
          "name": "C3",
          "ticks": 10176,
          "time": 19.509193999999997,
          "velocity": 0.7874015748031497
        },
        {
          "duration": 0.18596617708333696,
          "durationTicks": 97,
          "midi": 52,
          "name": "E3",
          "ticks": 10176,
          "time": 19.509193999999997,
          "velocity": 0.7874015748031497
        },
        {
          "duration": 0.18404900000000168,
          "durationTicks": 96,
          "midi": 55,
          "name": "G3",
          "ticks": 10176,
          "time": 19.509193999999997,
          "velocity": 0.6929133858267716
        },
        {
          "duration": 0.18404900000000168,
          "durationTicks": 96,
          "midi": 60,
          "name": "C4",
          "ticks": 10176,
          "time": 19.509193999999997,
          "velocity": 0.7874015748031497
        },
        {
          "duration": 0.18404900000000168,
          "durationTicks": 96,
          "midi": 55,
          "name": "G3",
          "ticks": 10272,
          "time": 19.693243,
          "velocity": 0.5275590551181102
        },
        {
          "duration": 0.1859661770833334,
          "durationTicks": 97,
          "midi": 52,
          "name": "E3",
          "ticks": 10272,
          "time": 19.693243,
          "velocity": 0.6220472440944882
        },
        {
          "duration": 0.18404900000000168,
          "durationTicks": 96,
          "midi": 48,
          "name": "C3",
          "ticks": 10272,
          "time": 19.693243,
          "velocity": 0.6220472440944882
        },
        {
          "duration": 0.18404900000000168,
          "durationTicks": 96,
          "midi": 64,
          "name": "E4",
          "ticks": 10272,
          "time": 19.693243,
          "velocity": 0.49606299212598426
        },
        {
          "duration": 0.18404900000000168,
          "durationTicks": 96,
          "midi": 60,
          "name": "C4",
          "ticks": 10272,
          "time": 19.693243,
          "velocity": 0.6220472440944882
        },
        {
          "duration": 0.18404899999999813,
          "durationTicks": 96,
          "midi": 55,
          "name": "G3",
          "ticks": 10368,
          "time": 19.877292,
          "velocity": 0.5275590551181102
        },
        {
          "duration": 0.18404899999999813,
          "durationTicks": 96,
          "midi": 64,
          "name": "E4",
          "ticks": 10368,
          "time": 19.877292,
          "velocity": 0.5275590551181102
        },
        {
          "duration": 0.1859661770833334,
          "durationTicks": 97,
          "midi": 60,
          "name": "C4",
          "ticks": 10368,
          "time": 19.877292,
          "velocity": 0.6220472440944882
        },
        {
          "duration": 0.18404899999999813,
          "durationTicks": 96,
          "midi": 52,
          "name": "E3",
          "ticks": 10368,
          "time": 19.877292,
          "velocity": 0.5669291338582677
        },
        {
          "duration": 0.18404899999999813,
          "durationTicks": 96,
          "midi": 48,
          "name": "C3",
          "ticks": 10368,
          "time": 19.877292,
          "velocity": 0.6929133858267716
        },
        {
          "duration": 0.18404900000000168,
          "durationTicks": 96,
          "midi": 52,
          "name": "E3",
          "ticks": 10464,
          "time": 20.061341,
          "velocity": 0.6929133858267716
        },
        {
          "duration": 0.18404900000000168,
          "durationTicks": 96,
          "midi": 48,
          "name": "C3",
          "ticks": 10464,
          "time": 20.061341,
          "velocity": 0.7874015748031497
        },
        {
          "duration": 0.18404900000000168,
          "durationTicks": 96,
          "midi": 64,
          "name": "E4",
          "ticks": 10464,
          "time": 20.061341,
          "velocity": 0.6929133858267716
        },
        {
          "duration": 0.18404900000000168,
          "durationTicks": 96,
          "midi": 60,
          "name": "C4",
          "ticks": 10464,
          "time": 20.061341,
          "velocity": 0.6929133858267716
        },
        {
          "duration": 0.18404900000000168,
          "durationTicks": 96,
          "midi": 55,
          "name": "G3",
          "ticks": 10464,
          "time": 20.061341,
          "velocity": 0.6220472440944882
        },
        {
          "duration": 0.18404899999999813,
          "durationTicks": 96,
          "midi": 64,
          "name": "E4",
          "ticks": 10560,
          "time": 20.24539,
          "velocity": 1
        },
        {
          "duration": 0.18404899999999813,
          "durationTicks": 96,
          "midi": 52,
          "name": "E3",
          "ticks": 10560,
          "time": 20.24539,
          "velocity": 0.7874015748031497
        },
        {
          "duration": 0.18404899999999813,
          "durationTicks": 96,
          "midi": 60,
          "name": "C4",
          "ticks": 10560,
          "time": 20.24539,
          "velocity": 1
        },
        {
          "duration": 0.18404899999999813,
          "durationTicks": 96,
          "midi": 55,
          "name": "G3",
          "ticks": 10560,
          "time": 20.24539,
          "velocity": 1
        },
        {
          "duration": 0.18404899999999813,
          "durationTicks": 96,
          "midi": 48,
          "name": "C3",
          "ticks": 10560,
          "time": 20.24539,
          "velocity": 0.905511811023622
        },
        {
          "duration": 0.18404900000000168,
          "durationTicks": 96,
          "midi": 60,
          "name": "C4",
          "ticks": 10656,
          "time": 20.429439,
          "velocity": 0.7874015748031497
        },
        {
          "duration": 0.18404900000000168,
          "durationTicks": 96,
          "midi": 55,
          "name": "G3",
          "ticks": 10656,
          "time": 20.429439,
          "velocity": 0.6929133858267716
        },
        {
          "duration": 0.18404900000000168,
          "durationTicks": 96,
          "midi": 64,
          "name": "E4",
          "ticks": 10656,
          "time": 20.429439,
          "velocity": 0.6929133858267716
        },
        {
          "duration": 0.18404900000000168,
          "durationTicks": 96,
          "midi": 52,
          "name": "E3",
          "ticks": 10656,
          "time": 20.429439,
          "velocity": 0.905511811023622
        },
        {
          "duration": 0.18404900000000168,
          "durationTicks": 96,
          "midi": 48,
          "name": "C3",
          "ticks": 10656,
          "time": 20.429439,
          "velocity": 0.905511811023622
        },
        {
          "duration": 0.18404899999999813,
          "durationTicks": 96,
          "midi": 62,
          "name": "D4",
          "ticks": 10752,
          "time": 20.613488,
          "velocity": 0.49606299212598426
        },
        {
          "duration": 0.18404899999999813,
          "durationTicks": 96,
          "midi": 47,
          "name": "B2",
          "ticks": 10752,
          "time": 20.613488,
          "velocity": 0.6929133858267716
        },
        {
          "duration": 0.18404899999999813,
          "durationTicks": 96,
          "midi": 43,
          "name": "G2",
          "ticks": 10752,
          "time": 20.613488,
          "velocity": 0.6220472440944882
        },
        {
          "duration": 0.18404899999999813,
          "durationTicks": 96,
          "midi": 55,
          "name": "G3",
          "ticks": 10752,
          "time": 20.613488,
          "velocity": 0.5669291338582677
        },
        {
          "duration": 0.18404899999999813,
          "durationTicks": 96,
          "midi": 50,
          "name": "D3",
          "ticks": 10752,
          "time": 20.613488,
          "velocity": 0.6929133858267716
        },
        {
          "duration": 0.1859661770833334,
          "durationTicks": 97,
          "midi": 55,
          "name": "G3",
          "ticks": 10848,
          "time": 20.797537,
          "velocity": 0.6929133858267716
        },
        {
          "duration": 0.18404900000000168,
          "durationTicks": 96,
          "midi": 50,
          "name": "D3",
          "ticks": 10848,
          "time": 20.797537,
          "velocity": 0.6929133858267716
        },
        {
          "duration": 0.18404900000000168,
          "durationTicks": 96,
          "midi": 43,
          "name": "G2",
          "ticks": 10848,
          "time": 20.797537,
          "velocity": 0.905511811023622
        },
        {
          "duration": 0.18404900000000168,
          "durationTicks": 96,
          "midi": 47,
          "name": "B2",
          "ticks": 10848,
          "time": 20.797537,
          "velocity": 0.7874015748031497
        },
        {
          "duration": 0.18404900000000168,
          "durationTicks": 96,
          "midi": 62,
          "name": "D4",
          "ticks": 10848,
          "time": 20.797537,
          "velocity": 0.6929133858267716
        },
        {
          "duration": 0.18404899999999813,
          "durationTicks": 96,
          "midi": 67,
          "name": "G4",
          "ticks": 10944,
          "time": 20.981586,
          "velocity": 0.7874015748031497
        },
        {
          "duration": 0.18404899999999813,
          "durationTicks": 96,
          "midi": 62,
          "name": "D4",
          "ticks": 10944,
          "time": 20.981586,
          "velocity": 0.6929133858267716
        },
        {
          "duration": 0.18404899999999813,
          "durationTicks": 96,
          "midi": 47,
          "name": "B2",
          "ticks": 10944,
          "time": 20.981586,
          "velocity": 0.905511811023622
        },
        {
          "duration": 0.18404899999999813,
          "durationTicks": 96,
          "midi": 55,
          "name": "G3",
          "ticks": 10944,
          "time": 20.981586,
          "velocity": 0.7874015748031497
        },
        {
          "duration": 0.18404900000000168,
          "durationTicks": 96,
          "midi": 62,
          "name": "D4",
          "ticks": 11040,
          "time": 21.165634999999998,
          "velocity": 0.6929133858267716
        },
        {
          "duration": 0.18404900000000168,
          "durationTicks": 96,
          "midi": 55,
          "name": "G3",
          "ticks": 11040,
          "time": 21.165634999999998,
          "velocity": 0.6220472440944882
        },
        {
          "duration": 0.1859661770833334,
          "durationTicks": 97,
          "midi": 50,
          "name": "D3",
          "ticks": 11040,
          "time": 21.165634999999998,
          "velocity": 0.6929133858267716
        },
        {
          "duration": 0.18404899999999813,
          "durationTicks": 96,
          "midi": 62,
          "name": "D4",
          "ticks": 11136,
          "time": 21.349684,
          "velocity": 0.6929133858267716
        },
        {
          "duration": 0.18404899999999813,
          "durationTicks": 96,
          "midi": 43,
          "name": "G2",
          "ticks": 11136,
          "time": 21.349684,
          "velocity": 0.6929133858267716
        },
        {
          "duration": 0.18404899999999813,
          "durationTicks": 96,
          "midi": 47,
          "name": "B2",
          "ticks": 11136,
          "time": 21.349684,
          "velocity": 0.5669291338582677
        },
        {
          "duration": 0.18404899999999813,
          "durationTicks": 96,
          "midi": 55,
          "name": "G3",
          "ticks": 11136,
          "time": 21.349684,
          "velocity": 0.7874015748031497
        },
        {
          "duration": 0.18404899999999813,
          "durationTicks": 96,
          "midi": 50,
          "name": "D3",
          "ticks": 11136,
          "time": 21.349684,
          "velocity": 0.7874015748031497
        },
        {
          "duration": 0.18404900000000168,
          "durationTicks": 96,
          "midi": 47,
          "name": "B2",
          "ticks": 11232,
          "time": 21.533732999999998,
          "velocity": 0.6929133858267716
        },
        {
          "duration": 0.18404900000000168,
          "durationTicks": 96,
          "midi": 43,
          "name": "G2",
          "ticks": 11232,
          "time": 21.533732999999998,
          "velocity": 0.7874015748031497
        },
        {
          "duration": 0.1859661770833334,
          "durationTicks": 97,
          "midi": 55,
          "name": "G3",
          "ticks": 11232,
          "time": 21.533732999999998,
          "velocity": 0.6929133858267716
        },
        {
          "duration": 0.18404900000000168,
          "durationTicks": 96,
          "midi": 62,
          "name": "D4",
          "ticks": 11232,
          "time": 21.533732999999998,
          "velocity": 0.905511811023622
        },
        {
          "duration": 0.18404900000000168,
          "durationTicks": 96,
          "midi": 50,
          "name": "D3",
          "ticks": 11232,
          "time": 21.533732999999998,
          "velocity": 0.6929133858267716
        },
        {
          "duration": 0.18404899999999813,
          "durationTicks": 96,
          "midi": 50,
          "name": "D3",
          "ticks": 11328,
          "time": 21.717782,
          "velocity": 0.905511811023622
        },
        {
          "duration": 0.18404899999999813,
          "durationTicks": 96,
          "midi": 67,
          "name": "G4",
          "ticks": 11328,
          "time": 21.717782,
          "velocity": 1
        },
        {
          "duration": 0.18404899999999813,
          "durationTicks": 96,
          "midi": 47,
          "name": "B2",
          "ticks": 11328,
          "time": 21.717782,
          "velocity": 1
        },
        {
          "duration": 0.18404899999999813,
          "durationTicks": 96,
          "midi": 55,
          "name": "G3",
          "ticks": 11328,
          "time": 21.717782,
          "velocity": 0.905511811023622
        },
        {
          "duration": 0.1859661770833334,
          "durationTicks": 97,
          "midi": 62,
          "name": "D4",
          "ticks": 11328,
          "time": 21.717782,
          "velocity": 0.905511811023622
        },
        {
          "duration": 0.18404900000000168,
          "durationTicks": 96,
          "midi": 62,
          "name": "D4",
          "ticks": 11424,
          "time": 21.901830999999998,
          "velocity": 0.6929133858267716
        },
        {
          "duration": 0.18404900000000168,
          "durationTicks": 96,
          "midi": 50,
          "name": "D3",
          "ticks": 11424,
          "time": 21.901830999999998,
          "velocity": 0.5669291338582677
        },
        {
          "duration": 0.18404900000000168,
          "durationTicks": 96,
          "midi": 47,
          "name": "B2",
          "ticks": 11424,
          "time": 21.901830999999998,
          "velocity": 0.6220472440944882
        },
        {
          "duration": 0.18404900000000168,
          "durationTicks": 96,
          "midi": 55,
          "name": "G3",
          "ticks": 11424,
          "time": 21.901830999999998,
          "velocity": 0.6220472440944882
        },
        {
          "duration": 0.18404899999999813,
          "durationTicks": 96,
          "midi": 64,
          "name": "E4",
          "ticks": 11520,
          "time": 22.08588,
          "velocity": 0.49606299212598426
        },
        {
          "duration": 0.18404899999999813,
          "durationTicks": 96,
          "midi": 60,
          "name": "C4",
          "ticks": 11520,
          "time": 22.08588,
          "velocity": 0.5669291338582677
        },
        {
          "duration": 0.1859661770833334,
          "durationTicks": 97,
          "midi": 48,
          "name": "C3",
          "ticks": 11520,
          "time": 22.08588,
          "velocity": 0.6220472440944882
        },
        {
          "duration": 0.1859661770833334,
          "durationTicks": 97,
          "midi": 55,
          "name": "G3",
          "ticks": 11520,
          "time": 22.08588,
          "velocity": 0.49606299212598426
        },
        {
          "duration": 0.18404899999999813,
          "durationTicks": 96,
          "midi": 52,
          "name": "E3",
          "ticks": 11520,
          "time": 22.08588,
          "velocity": 0.6929133858267716
        },
        {
          "duration": 0.18404900000000168,
          "durationTicks": 96,
          "midi": 60,
          "name": "C4",
          "ticks": 11616,
          "time": 22.269928999999998,
          "velocity": 0.6220472440944882
        },
        {
          "duration": 0.18404900000000168,
          "durationTicks": 96,
          "midi": 55,
          "name": "G3",
          "ticks": 11616,
          "time": 22.269928999999998,
          "velocity": 0.49606299212598426
        },
        {
          "duration": 0.18596617708333696,
          "durationTicks": 97,
          "midi": 48,
          "name": "C3",
          "ticks": 11616,
          "time": 22.269928999999998,
          "velocity": 0.6929133858267716
        },
        {
          "duration": 0.18404900000000168,
          "durationTicks": 96,
          "midi": 64,
          "name": "E4",
          "ticks": 11616,
          "time": 22.269928999999998,
          "velocity": 0.5275590551181102
        },
        {
          "duration": 0.18596617708333696,
          "durationTicks": 97,
          "midi": 52,
          "name": "E3",
          "ticks": 11616,
          "time": 22.269928999999998,
          "velocity": 0.6220472440944882
        },
        {
          "duration": 0.18404899999999813,
          "durationTicks": 96,
          "midi": 64,
          "name": "E4",
          "ticks": 11712,
          "time": 22.453978,
          "velocity": 0.7874015748031497
        },
        {
          "duration": 0.1859661770833334,
          "durationTicks": 97,
          "midi": 52,
          "name": "E3",
          "ticks": 11712,
          "time": 22.453978,
          "velocity": 0.7874015748031497
        },
        {
          "duration": 0.18404899999999813,
          "durationTicks": 96,
          "midi": 55,
          "name": "G3",
          "ticks": 11712,
          "time": 22.453978,
          "velocity": 0.6929133858267716
        },
        {
          "duration": 0.18404899999999813,
          "durationTicks": 96,
          "midi": 48,
          "name": "C3",
          "ticks": 11712,
          "time": 22.453978,
          "velocity": 0.7874015748031497
        },
        {
          "duration": 0.18404899999999813,
          "durationTicks": 96,
          "midi": 60,
          "name": "C4",
          "ticks": 11712,
          "time": 22.453978,
          "velocity": 0.7874015748031497
        },
        {
          "duration": 0.18404900000000168,
          "durationTicks": 96,
          "midi": 48,
          "name": "C3",
          "ticks": 11808,
          "time": 22.638026999999997,
          "velocity": 0.6220472440944882
        },
        {
          "duration": 0.18404900000000168,
          "durationTicks": 96,
          "midi": 55,
          "name": "G3",
          "ticks": 11808,
          "time": 22.638026999999997,
          "velocity": 0.5275590551181102
        },
        {
          "duration": 0.18404900000000168,
          "durationTicks": 96,
          "midi": 60,
          "name": "C4",
          "ticks": 11808,
          "time": 22.638026999999997,
          "velocity": 0.6220472440944882
        },
        {
          "duration": 0.18404900000000168,
          "durationTicks": 96,
          "midi": 64,
          "name": "E4",
          "ticks": 11808,
          "time": 22.638026999999997,
          "velocity": 0.49606299212598426
        },
        {
          "duration": 0.18596617708333696,
          "durationTicks": 97,
          "midi": 52,
          "name": "E3",
          "ticks": 11808,
          "time": 22.638026999999997,
          "velocity": 0.6220472440944882
        },
        {
          "duration": 0.18404899999999813,
          "durationTicks": 96,
          "midi": 60,
          "name": "C4",
          "ticks": 11904,
          "time": 22.822076,
          "velocity": 0.6220472440944882
        },
        {
          "duration": 0.18404899999999813,
          "durationTicks": 96,
          "midi": 64,
          "name": "E4",
          "ticks": 11904,
          "time": 22.822076,
          "velocity": 0.5275590551181102
        },
        {
          "duration": 0.18404899999999813,
          "durationTicks": 96,
          "midi": 48,
          "name": "C3",
          "ticks": 11904,
          "time": 22.822076,
          "velocity": 0.6929133858267716
        },
        {
          "duration": 0.18404899999999813,
          "durationTicks": 96,
          "midi": 55,
          "name": "G3",
          "ticks": 11904,
          "time": 22.822076,
          "velocity": 0.5275590551181102
        },
        {
          "duration": 0.18404899999999813,
          "durationTicks": 96,
          "midi": 52,
          "name": "E3",
          "ticks": 11904,
          "time": 22.822076,
          "velocity": 0.5669291338582677
        },
        {
          "duration": 0.18404900000000168,
          "durationTicks": 96,
          "midi": 55,
          "name": "G3",
          "ticks": 12000,
          "time": 23.006124999999997,
          "velocity": 0.6220472440944882
        },
        {
          "duration": 0.18404900000000168,
          "durationTicks": 96,
          "midi": 60,
          "name": "C4",
          "ticks": 12000,
          "time": 23.006124999999997,
          "velocity": 0.6929133858267716
        },
        {
          "duration": 0.18404900000000168,
          "durationTicks": 96,
          "midi": 52,
          "name": "E3",
          "ticks": 12000,
          "time": 23.006124999999997,
          "velocity": 0.6929133858267716
        },
        {
          "duration": 0.18404900000000168,
          "durationTicks": 96,
          "midi": 48,
          "name": "C3",
          "ticks": 12000,
          "time": 23.006124999999997,
          "velocity": 0.7874015748031497
        },
        {
          "duration": 0.18404900000000168,
          "durationTicks": 96,
          "midi": 64,
          "name": "E4",
          "ticks": 12000,
          "time": 23.006124999999997,
          "velocity": 0.6929133858267716
        },
        {
          "duration": 0.18404899999999813,
          "durationTicks": 96,
          "midi": 55,
          "name": "G3",
          "ticks": 12096,
          "time": 23.190174,
          "velocity": 1
        },
        {
          "duration": 0.18404899999999813,
          "durationTicks": 96,
          "midi": 60,
          "name": "C4",
          "ticks": 12096,
          "time": 23.190174,
          "velocity": 1
        },
        {
          "duration": 0.18404899999999813,
          "durationTicks": 96,
          "midi": 48,
          "name": "C3",
          "ticks": 12096,
          "time": 23.190174,
          "velocity": 0.905511811023622
        },
        {
          "duration": 0.18404899999999813,
          "durationTicks": 96,
          "midi": 52,
          "name": "E3",
          "ticks": 12096,
          "time": 23.190174,
          "velocity": 0.7874015748031497
        },
        {
          "duration": 0.18404899999999813,
          "durationTicks": 96,
          "midi": 64,
          "name": "E4",
          "ticks": 12096,
          "time": 23.190174,
          "velocity": 1
        },
        {
          "duration": 0.18404900000000168,
          "durationTicks": 96,
          "midi": 64,
          "name": "E4",
          "ticks": 12192,
          "time": 23.374222999999997,
          "velocity": 0.6929133858267716
        },
        {
          "duration": 0.18404900000000168,
          "durationTicks": 96,
          "midi": 55,
          "name": "G3",
          "ticks": 12192,
          "time": 23.374222999999997,
          "velocity": 0.6929133858267716
        },
        {
          "duration": 0.18404900000000168,
          "durationTicks": 96,
          "midi": 60,
          "name": "C4",
          "ticks": 12192,
          "time": 23.374222999999997,
          "velocity": 0.7874015748031497
        },
        {
          "duration": 0.18404900000000168,
          "durationTicks": 96,
          "midi": 48,
          "name": "C3",
          "ticks": 12192,
          "time": 23.374222999999997,
          "velocity": 0.905511811023622
        },
        {
          "duration": 0.18404900000000168,
          "durationTicks": 96,
          "midi": 52,
          "name": "E3",
          "ticks": 12192,
          "time": 23.374222999999997,
          "velocity": 0.905511811023622
        },
        {
          "duration": 0.18404900000000168,
          "durationTicks": 96,
          "midi": 62,
          "name": "D4",
          "ticks": 12288,
          "time": 23.558272,
          "velocity": 0.49606299212598426
        },
        {
          "duration": 0.18404900000000168,
          "durationTicks": 96,
          "midi": 55,
          "name": "G3",
          "ticks": 12288,
          "time": 23.558272,
          "velocity": 0.5669291338582677
        },
        {
          "duration": 0.18404900000000168,
          "durationTicks": 96,
          "midi": 50,
          "name": "D3",
          "ticks": 12288,
          "time": 23.558272,
          "velocity": 0.6929133858267716
        },
        {
          "duration": 0.18404900000000168,
          "durationTicks": 96,
          "midi": 47,
          "name": "B2",
          "ticks": 12288,
          "time": 23.558272,
          "velocity": 0.6929133858267716
        },
        {
          "duration": 0.18404900000000168,
          "durationTicks": 96,
          "midi": 43,
          "name": "G2",
          "ticks": 12288,
          "time": 23.558272,
          "velocity": 0.6220472440944882
        },
        {
          "duration": 0.18404899999999813,
          "durationTicks": 96,
          "midi": 62,
          "name": "D4",
          "ticks": 12384,
          "time": 23.742321,
          "velocity": 0.6929133858267716
        },
        {
          "duration": 0.18596617708332985,
          "durationTicks": 97,
          "midi": 55,
          "name": "G3",
          "ticks": 12384,
          "time": 23.742321,
          "velocity": 0.6929133858267716
        },
        {
          "duration": 0.18404899999999813,
          "durationTicks": 96,
          "midi": 50,
          "name": "D3",
          "ticks": 12384,
          "time": 23.742321,
          "velocity": 0.6929133858267716
        },
        {
          "duration": 0.18404899999999813,
          "durationTicks": 96,
          "midi": 47,
          "name": "B2",
          "ticks": 12384,
          "time": 23.742321,
          "velocity": 0.7874015748031497
        },
        {
          "duration": 0.18404899999999813,
          "durationTicks": 96,
          "midi": 43,
          "name": "G2",
          "ticks": 12384,
          "time": 23.742321,
          "velocity": 0.905511811023622
        },
        {
          "duration": 0.18404900000000168,
          "durationTicks": 96,
          "midi": 47,
          "name": "B2",
          "ticks": 12480,
          "time": 23.92637,
          "velocity": 0.905511811023622
        },
        {
          "duration": 0.18404900000000168,
          "durationTicks": 96,
          "midi": 62,
          "name": "D4",
          "ticks": 12480,
          "time": 23.92637,
          "velocity": 0.6929133858267716
        },
        {
          "duration": 0.1859661770833334,
          "durationTicks": 97,
          "midi": 55,
          "name": "G3",
          "ticks": 12480,
          "time": 23.92637,
          "velocity": 0.7874015748031497
        },
        {
          "duration": 0.18404900000000168,
          "durationTicks": 96,
          "midi": 67,
          "name": "G4",
          "ticks": 12480,
          "time": 23.92637,
          "velocity": 0.7874015748031497
        },
        {
          "duration": 0.18404899999999813,
          "durationTicks": 96,
          "midi": 62,
          "name": "D4",
          "ticks": 12576,
          "time": 24.110419,
          "velocity": 0.6929133858267716
        },
        {
          "duration": 0.18404899999999813,
          "durationTicks": 96,
          "midi": 50,
          "name": "D3",
          "ticks": 12576,
          "time": 24.110419,
          "velocity": 0.6929133858267716
        },
        {
          "duration": 0.18404899999999813,
          "durationTicks": 96,
          "midi": 55,
          "name": "G3",
          "ticks": 12576,
          "time": 24.110419,
          "velocity": 0.6220472440944882
        },
        {
          "duration": 0.18404900000000168,
          "durationTicks": 96,
          "midi": 47,
          "name": "B2",
          "ticks": 12672,
          "time": 24.294468,
          "velocity": 0.5669291338582677
        },
        {
          "duration": 0.18404900000000168,
          "durationTicks": 96,
          "midi": 62,
          "name": "D4",
          "ticks": 12672,
          "time": 24.294468,
          "velocity": 0.6929133858267716
        },
        {
          "duration": 0.18404900000000168,
          "durationTicks": 96,
          "midi": 43,
          "name": "G2",
          "ticks": 12672,
          "time": 24.294468,
          "velocity": 0.6929133858267716
        },
        {
          "duration": 0.18404900000000168,
          "durationTicks": 96,
          "midi": 55,
          "name": "G3",
          "ticks": 12672,
          "time": 24.294468,
          "velocity": 0.7874015748031497
        },
        {
          "duration": 0.18404900000000168,
          "durationTicks": 96,
          "midi": 50,
          "name": "D3",
          "ticks": 12672,
          "time": 24.294468,
          "velocity": 0.7874015748031497
        },
        {
          "duration": 0.18404899999999813,
          "durationTicks": 96,
          "midi": 47,
          "name": "B2",
          "ticks": 12768,
          "time": 24.478517,
          "velocity": 0.6929133858267716
        },
        {
          "duration": 0.18404899999999813,
          "durationTicks": 96,
          "midi": 50,
          "name": "D3",
          "ticks": 12768,
          "time": 24.478517,
          "velocity": 0.6929133858267716
        },
        {
          "duration": 0.18404899999999813,
          "durationTicks": 96,
          "midi": 62,
          "name": "D4",
          "ticks": 12768,
          "time": 24.478517,
          "velocity": 0.905511811023622
        },
        {
          "duration": 0.18404899999999813,
          "durationTicks": 96,
          "midi": 55,
          "name": "G3",
          "ticks": 12768,
          "time": 24.478517,
          "velocity": 0.6929133858267716
        },
        {
          "duration": 0.18404899999999813,
          "durationTicks": 96,
          "midi": 43,
          "name": "G2",
          "ticks": 12768,
          "time": 24.478517,
          "velocity": 0.7874015748031497
        },
        {
          "duration": 0.1859661770833334,
          "durationTicks": 97,
          "midi": 62,
          "name": "D4",
          "ticks": 12864,
          "time": 24.662565999999998,
          "velocity": 0.905511811023622
        },
        {
          "duration": 0.18404900000000168,
          "durationTicks": 96,
          "midi": 67,
          "name": "G4",
          "ticks": 12864,
          "time": 24.662565999999998,
          "velocity": 1
        },
        {
          "duration": 0.18404900000000168,
          "durationTicks": 96,
          "midi": 55,
          "name": "G3",
          "ticks": 12864,
          "time": 24.662565999999998,
          "velocity": 0.905511811023622
        },
        {
          "duration": 0.18404900000000168,
          "durationTicks": 96,
          "midi": 47,
          "name": "B2",
          "ticks": 12864,
          "time": 24.662565999999998,
          "velocity": 1
        },
        {
          "duration": 0.1859661770833334,
          "durationTicks": 97,
          "midi": 50,
          "name": "D3",
          "ticks": 12864,
          "time": 24.662565999999998,
          "velocity": 0.905511811023622
        },
        {
          "duration": 0.18404899999999813,
          "durationTicks": 96,
          "midi": 55,
          "name": "G3",
          "ticks": 12960,
          "time": 24.846615,
          "velocity": 0.6220472440944882
        },
        {
          "duration": 0.18404899999999813,
          "durationTicks": 96,
          "midi": 47,
          "name": "B2",
          "ticks": 12960,
          "time": 24.846615,
          "velocity": 0.6220472440944882
        },
        {
          "duration": 0.18404899999999813,
          "durationTicks": 96,
          "midi": 50,
          "name": "D3",
          "ticks": 12960,
          "time": 24.846615,
          "velocity": 0.5669291338582677
        },
        {
          "duration": 0.18404899999999813,
          "durationTicks": 96,
          "midi": 62,
          "name": "D4",
          "ticks": 12960,
          "time": 24.846615,
          "velocity": 0.6929133858267716
        },
        {
          "duration": 0.1859661770833334,
          "durationTicks": 97,
          "midi": 48,
          "name": "C3",
          "ticks": 13056,
          "time": 25.030663999999998,
          "velocity": 0.6220472440944882
        },
        {
          "duration": 0.18404900000000168,
          "durationTicks": 96,
          "midi": 60,
          "name": "C4",
          "ticks": 13056,
          "time": 25.030663999999998,
          "velocity": 0.5669291338582677
        },
        {
          "duration": 0.18404900000000168,
          "durationTicks": 96,
          "midi": 52,
          "name": "E3",
          "ticks": 13056,
          "time": 25.030663999999998,
          "velocity": 0.6929133858267716
        },
        {
          "duration": 0.18404900000000168,
          "durationTicks": 96,
          "midi": 64,
          "name": "E4",
          "ticks": 13056,
          "time": 25.030663999999998,
          "velocity": 0.49606299212598426
        },
        {
          "duration": 0.18404900000000168,
          "durationTicks": 96,
          "midi": 55,
          "name": "G3",
          "ticks": 13056,
          "time": 25.030663999999998,
          "velocity": 0.49606299212598426
        },
        {
          "duration": 0.18404899999999813,
          "durationTicks": 96,
          "midi": 55,
          "name": "G3",
          "ticks": 13152,
          "time": 25.214713,
          "velocity": 0.49606299212598426
        },
        {
          "duration": 0.18404899999999813,
          "durationTicks": 96,
          "midi": 64,
          "name": "E4",
          "ticks": 13152,
          "time": 25.214713,
          "velocity": 0.5275590551181102
        },
        {
          "duration": 0.18404899999999813,
          "durationTicks": 96,
          "midi": 60,
          "name": "C4",
          "ticks": 13152,
          "time": 25.214713,
          "velocity": 0.6220472440944882
        },
        {
          "duration": 0.18404899999999813,
          "durationTicks": 96,
          "midi": 52,
          "name": "E3",
          "ticks": 13152,
          "time": 25.214713,
          "velocity": 0.6220472440944882
        },
        {
          "duration": 0.18404899999999813,
          "durationTicks": 96,
          "midi": 48,
          "name": "C3",
          "ticks": 13152,
          "time": 25.214713,
          "velocity": 0.6929133858267716
        },
        {
          "duration": 0.18404900000000168,
          "durationTicks": 96,
          "midi": 55,
          "name": "G3",
          "ticks": 13248,
          "time": 25.398761999999998,
          "velocity": 0.6929133858267716
        },
        {
          "duration": 0.18404900000000168,
          "durationTicks": 96,
          "midi": 60,
          "name": "C4",
          "ticks": 13248,
          "time": 25.398761999999998,
          "velocity": 0.7874015748031497
        },
        {
          "duration": 0.1859661770833334,
          "durationTicks": 97,
          "midi": 52,
          "name": "E3",
          "ticks": 13248,
          "time": 25.398761999999998,
          "velocity": 0.7874015748031497
        },
        {
          "duration": 0.18404900000000168,
          "durationTicks": 96,
          "midi": 48,
          "name": "C3",
          "ticks": 13248,
          "time": 25.398761999999998,
          "velocity": 0.7874015748031497
        },
        {
          "duration": 0.1859661770833334,
          "durationTicks": 97,
          "midi": 64,
          "name": "E4",
          "ticks": 13248,
          "time": 25.398761999999998,
          "velocity": 0.7874015748031497
        },
        {
          "duration": 0.18404899999999813,
          "durationTicks": 96,
          "midi": 48,
          "name": "C3",
          "ticks": 13344,
          "time": 25.582811,
          "velocity": 0.6220472440944882
        },
        {
          "duration": 0.18404899999999813,
          "durationTicks": 96,
          "midi": 60,
          "name": "C4",
          "ticks": 13344,
          "time": 25.582811,
          "velocity": 0.6220472440944882
        },
        {
          "duration": 0.18596617708332985,
          "durationTicks": 97,
          "midi": 55,
          "name": "G3",
          "ticks": 13344,
          "time": 25.582811,
          "velocity": 0.5275590551181102
        },
        {
          "duration": 0.18404899999999813,
          "durationTicks": 96,
          "midi": 64,
          "name": "E4",
          "ticks": 13344,
          "time": 25.582811,
          "velocity": 0.49606299212598426
        },
        {
          "duration": 0.18404899999999813,
          "durationTicks": 96,
          "midi": 52,
          "name": "E3",
          "ticks": 13344,
          "time": 25.582811,
          "velocity": 0.6220472440944882
        },
        {
          "duration": 0.18404900000000168,
          "durationTicks": 96,
          "midi": 64,
          "name": "E4",
          "ticks": 13440,
          "time": 25.766859999999998,
          "velocity": 0.5275590551181102
        },
        {
          "duration": 0.18404900000000168,
          "durationTicks": 96,
          "midi": 52,
          "name": "E3",
          "ticks": 13440,
          "time": 25.766859999999998,
          "velocity": 0.5669291338582677
        },
        {
          "duration": 0.1859661770833334,
          "durationTicks": 97,
          "midi": 60,
          "name": "C4",
          "ticks": 13440,
          "time": 25.766859999999998,
          "velocity": 0.6220472440944882
        },
        {
          "duration": 0.18404900000000168,
          "durationTicks": 96,
          "midi": 48,
          "name": "C3",
          "ticks": 13440,
          "time": 25.766859999999998,
          "velocity": 0.6929133858267716
        },
        {
          "duration": 0.18404900000000168,
          "durationTicks": 96,
          "midi": 55,
          "name": "G3",
          "ticks": 13440,
          "time": 25.766859999999998,
          "velocity": 0.5275590551181102
        },
        {
          "duration": 0.18404899999999813,
          "durationTicks": 96,
          "midi": 55,
          "name": "G3",
          "ticks": 13536,
          "time": 25.950909,
          "velocity": 0.6220472440944882
        },
        {
          "duration": 0.18596617708332985,
          "durationTicks": 97,
          "midi": 48,
          "name": "C3",
          "ticks": 13536,
          "time": 25.950909,
          "velocity": 0.7874015748031497
        },
        {
          "duration": 0.18596617708332985,
          "durationTicks": 97,
          "midi": 60,
          "name": "C4",
          "ticks": 13536,
          "time": 25.950909,
          "velocity": 0.6929133858267716
        },
        {
          "duration": 0.18596617708332985,
          "durationTicks": 97,
          "midi": 52,
          "name": "E3",
          "ticks": 13536,
          "time": 25.950909,
          "velocity": 0.6929133858267716
        },
        {
          "duration": 0.18404899999999813,
          "durationTicks": 96,
          "midi": 64,
          "name": "E4",
          "ticks": 13536,
          "time": 25.950909,
          "velocity": 0.6929133858267716
        },
        {
          "duration": 0.18404900000000168,
          "durationTicks": 96,
          "midi": 64,
          "name": "E4",
          "ticks": 13632,
          "time": 26.134957999999997,
          "velocity": 1
        },
        {
          "duration": 0.18404900000000168,
          "durationTicks": 96,
          "midi": 52,
          "name": "E3",
          "ticks": 13632,
          "time": 26.134957999999997,
          "velocity": 0.7874015748031497
        },
        {
          "duration": 0.18404900000000168,
          "durationTicks": 96,
          "midi": 48,
          "name": "C3",
          "ticks": 13632,
          "time": 26.134957999999997,
          "velocity": 0.905511811023622
        },
        {
          "duration": 0.1859661770833334,
          "durationTicks": 97,
          "midi": 55,
          "name": "G3",
          "ticks": 13632,
          "time": 26.134957999999997,
          "velocity": 1
        },
        {
          "duration": 0.18404900000000168,
          "durationTicks": 96,
          "midi": 60,
          "name": "C4",
          "ticks": 13632,
          "time": 26.134957999999997,
          "velocity": 1
        },
        {
          "duration": 0.18404899999999813,
          "durationTicks": 96,
          "midi": 52,
          "name": "E3",
          "ticks": 13728,
          "time": 26.319007,
          "velocity": 0.905511811023622
        },
        {
          "duration": 0.18404899999999813,
          "durationTicks": 96,
          "midi": 48,
          "name": "C3",
          "ticks": 13728,
          "time": 26.319007,
          "velocity": 0.905511811023622
        },
        {
          "duration": 0.18404899999999813,
          "durationTicks": 96,
          "midi": 64,
          "name": "E4",
          "ticks": 13728,
          "time": 26.319007,
          "velocity": 0.6929133858267716
        },
        {
          "duration": 0.18404899999999813,
          "durationTicks": 96,
          "midi": 60,
          "name": "C4",
          "ticks": 13728,
          "time": 26.319007,
          "velocity": 0.7874015748031497
        },
        {
          "duration": 0.18404899999999813,
          "durationTicks": 96,
          "midi": 55,
          "name": "G3",
          "ticks": 13728,
          "time": 26.319007,
          "velocity": 0.6929133858267716
        },
        {
          "duration": 0.18404900000000168,
          "durationTicks": 96,
          "midi": 50,
          "name": "D3",
          "ticks": 13824,
          "time": 26.503055999999997,
          "velocity": 0.6929133858267716
        },
        {
          "duration": 0.18404900000000168,
          "durationTicks": 96,
          "midi": 47,
          "name": "B2",
          "ticks": 13824,
          "time": 26.503055999999997,
          "velocity": 0.6929133858267716
        },
        {
          "duration": 0.18404900000000168,
          "durationTicks": 96,
          "midi": 43,
          "name": "G2",
          "ticks": 13824,
          "time": 26.503055999999997,
          "velocity": 0.6220472440944882
        },
        {
          "duration": 0.18404900000000168,
          "durationTicks": 96,
          "midi": 55,
          "name": "G3",
          "ticks": 13824,
          "time": 26.503055999999997,
          "velocity": 0.5669291338582677
        },
        {
          "duration": 0.18404900000000168,
          "durationTicks": 96,
          "midi": 62,
          "name": "D4",
          "ticks": 13824,
          "time": 26.503055999999997,
          "velocity": 0.49606299212598426
        },
        {
          "duration": 0.18404899999999813,
          "durationTicks": 96,
          "midi": 43,
          "name": "G2",
          "ticks": 13920,
          "time": 26.687105,
          "velocity": 0.905511811023622
        },
        {
          "duration": 0.18404899999999813,
          "durationTicks": 96,
          "midi": 55,
          "name": "G3",
          "ticks": 13920,
          "time": 26.687105,
          "velocity": 0.6929133858267716
        },
        {
          "duration": 0.18596617708332985,
          "durationTicks": 97,
          "midi": 62,
          "name": "D4",
          "ticks": 13920,
          "time": 26.687105,
          "velocity": 0.6929133858267716
        },
        {
          "duration": 0.18404899999999813,
          "durationTicks": 96,
          "midi": 47,
          "name": "B2",
          "ticks": 13920,
          "time": 26.687105,
          "velocity": 0.7874015748031497
        },
        {
          "duration": 0.18404899999999813,
          "durationTicks": 96,
          "midi": 50,
          "name": "D3",
          "ticks": 13920,
          "time": 26.687105,
          "velocity": 0.6929133858267716
        },
        {
          "duration": 0.18404900000000168,
          "durationTicks": 96,
          "midi": 62,
          "name": "D4",
          "ticks": 14016,
          "time": 26.871153999999997,
          "velocity": 0.6929133858267716
        },
        {
          "duration": 0.18404900000000168,
          "durationTicks": 96,
          "midi": 67,
          "name": "G4",
          "ticks": 14016,
          "time": 26.871153999999997,
          "velocity": 0.7874015748031497
        },
        {
          "duration": 0.18404900000000168,
          "durationTicks": 96,
          "midi": 47,
          "name": "B2",
          "ticks": 14016,
          "time": 26.871153999999997,
          "velocity": 0.905511811023622
        },
        {
          "duration": 0.18404900000000168,
          "durationTicks": 96,
          "midi": 55,
          "name": "G3",
          "ticks": 14016,
          "time": 26.871153999999997,
          "velocity": 0.7874015748031497
        },
        {
          "duration": 0.18404899999999813,
          "durationTicks": 96,
          "midi": 62,
          "name": "D4",
          "ticks": 14112,
          "time": 27.055203,
          "velocity": 0.6929133858267716
        },
        {
          "duration": 0.18404899999999813,
          "durationTicks": 96,
          "midi": 55,
          "name": "G3",
          "ticks": 14112,
          "time": 27.055203,
          "velocity": 0.6220472440944882
        },
        {
          "duration": 0.18404899999999813,
          "durationTicks": 96,
          "midi": 50,
          "name": "D3",
          "ticks": 14112,
          "time": 27.055203,
          "velocity": 0.6929133858267716
        },
        {
          "duration": 0.1859661770833334,
          "durationTicks": 97,
          "midi": 43,
          "name": "G2",
          "ticks": 14208,
          "time": 27.239251999999997,
          "velocity": 0.6929133858267716
        },
        {
          "duration": 0.18404900000000168,
          "durationTicks": 96,
          "midi": 55,
          "name": "G3",
          "ticks": 14208,
          "time": 27.239251999999997,
          "velocity": 0.7874015748031497
        },
        {
          "duration": 0.18404900000000168,
          "durationTicks": 96,
          "midi": 62,
          "name": "D4",
          "ticks": 14208,
          "time": 27.239251999999997,
          "velocity": 0.6929133858267716
        },
        {
          "duration": 0.18404900000000168,
          "durationTicks": 96,
          "midi": 50,
          "name": "D3",
          "ticks": 14208,
          "time": 27.239251999999997,
          "velocity": 0.7874015748031497
        },
        {
          "duration": 0.18404900000000168,
          "durationTicks": 96,
          "midi": 47,
          "name": "B2",
          "ticks": 14208,
          "time": 27.239251999999997,
          "velocity": 0.5669291338582677
        },
        {
          "duration": 0.18404900000000168,
          "durationTicks": 96,
          "midi": 62,
          "name": "D4",
          "ticks": 14304,
          "time": 27.423301,
          "velocity": 0.905511811023622
        },
        {
          "duration": 0.18596617708332985,
          "durationTicks": 97,
          "midi": 50,
          "name": "D3",
          "ticks": 14304,
          "time": 27.423301,
          "velocity": 0.6929133858267716
        },
        {
          "duration": 0.18404900000000168,
          "durationTicks": 96,
          "midi": 55,
          "name": "G3",
          "ticks": 14304,
          "time": 27.423301,
          "velocity": 0.6929133858267716
        },
        {
          "duration": 0.18404900000000168,
          "durationTicks": 96,
          "midi": 47,
          "name": "B2",
          "ticks": 14304,
          "time": 27.423301,
          "velocity": 0.6929133858267716
        },
        {
          "duration": 0.18404900000000168,
          "durationTicks": 96,
          "midi": 43,
          "name": "G2",
          "ticks": 14304,
          "time": 27.423301,
          "velocity": 0.7874015748031497
        },
        {
          "duration": 0.18404899999999813,
          "durationTicks": 96,
          "midi": 47,
          "name": "B2",
          "ticks": 14400,
          "time": 27.60735,
          "velocity": 1
        },
        {
          "duration": 0.18404899999999813,
          "durationTicks": 96,
          "midi": 62,
          "name": "D4",
          "ticks": 14400,
          "time": 27.60735,
          "velocity": 0.905511811023622
        },
        {
          "duration": 0.18596617708332985,
          "durationTicks": 97,
          "midi": 55,
          "name": "G3",
          "ticks": 14400,
          "time": 27.60735,
          "velocity": 0.905511811023622
        },
        {
          "duration": 0.18596617708332985,
          "durationTicks": 97,
          "midi": 50,
          "name": "D3",
          "ticks": 14400,
          "time": 27.60735,
          "velocity": 0.905511811023622
        },
        {
          "duration": 0.18404899999999813,
          "durationTicks": 96,
          "midi": 67,
          "name": "G4",
          "ticks": 14400,
          "time": 27.60735,
          "velocity": 1
        },
        {
          "duration": 0.18404900000000168,
          "durationTicks": 96,
          "midi": 62,
          "name": "D4",
          "ticks": 14496,
          "time": 27.791399,
          "velocity": 0.6929133858267716
        },
        {
          "duration": 0.18404900000000168,
          "durationTicks": 96,
          "midi": 47,
          "name": "B2",
          "ticks": 14496,
          "time": 27.791399,
          "velocity": 0.6220472440944882
        },
        {
          "duration": 0.18404900000000168,
          "durationTicks": 96,
          "midi": 50,
          "name": "D3",
          "ticks": 14496,
          "time": 27.791399,
          "velocity": 0.5669291338582677
        },
        {
          "duration": 0.18404900000000168,
          "durationTicks": 96,
          "midi": 55,
          "name": "G3",
          "ticks": 14496,
          "time": 27.791399,
          "velocity": 0.6220472440944882
        },
        {
          "duration": 0.18596617708332985,
          "durationTicks": 97,
          "midi": 50,
          "name": "D3",
          "ticks": 14592,
          "time": 27.975448,
          "velocity": 0.6220472440944882
        },
        {
          "duration": 0.18596617708332985,
          "durationTicks": 97,
          "midi": 57,
          "name": "A3",
          "ticks": 14592,
          "time": 27.975448,
          "velocity": 0.49606299212598426
        },
        {
          "duration": 0.18404899999999813,
          "durationTicks": 96,
          "midi": 54,
          "name": "F#3",
          "ticks": 14592,
          "time": 27.975448,
          "velocity": 0.6929133858267716
        },
        {
          "duration": 0.18404899999999813,
          "durationTicks": 96,
          "midi": 62,
          "name": "D4",
          "ticks": 14592,
          "time": 27.975448,
          "velocity": 0.5669291338582677
        },
        {
          "duration": 0.18404899999999813,
          "durationTicks": 96,
          "midi": 66,
          "name": "F#4",
          "ticks": 14592,
          "time": 27.975448,
          "velocity": 0.49606299212598426
        },
        {
          "duration": 0.18404900000000168,
          "durationTicks": 96,
          "midi": 66,
          "name": "F#4",
          "ticks": 14688,
          "time": 28.159496999999998,
          "velocity": 0.5275590551181102
        },
        {
          "duration": 0.18404900000000168,
          "durationTicks": 96,
          "midi": 57,
          "name": "A3",
          "ticks": 14688,
          "time": 28.159496999999998,
          "velocity": 0.49606299212598426
        },
        {
          "duration": 0.1859661770833334,
          "durationTicks": 97,
          "midi": 50,
          "name": "D3",
          "ticks": 14688,
          "time": 28.159496999999998,
          "velocity": 0.6929133858267716
        },
        {
          "duration": 0.18404900000000168,
          "durationTicks": 96,
          "midi": 54,
          "name": "F#3",
          "ticks": 14688,
          "time": 28.159496999999998,
          "velocity": 0.6220472440944882
        },
        {
          "duration": 0.18404900000000168,
          "durationTicks": 96,
          "midi": 62,
          "name": "D4",
          "ticks": 14688,
          "time": 28.159496999999998,
          "velocity": 0.6220472440944882
        },
        {
          "duration": 0.18404899999999813,
          "durationTicks": 96,
          "midi": 54,
          "name": "F#3",
          "ticks": 14784,
          "time": 28.343546,
          "velocity": 0.7874015748031497
        },
        {
          "duration": 0.18404899999999813,
          "durationTicks": 96,
          "midi": 62,
          "name": "D4",
          "ticks": 14784,
          "time": 28.343546,
          "velocity": 0.7874015748031497
        },
        {
          "duration": 0.18404899999999813,
          "durationTicks": 96,
          "midi": 50,
          "name": "D3",
          "ticks": 14784,
          "time": 28.343546,
          "velocity": 0.7874015748031497
        },
        {
          "duration": 0.18404899999999813,
          "durationTicks": 96,
          "midi": 66,
          "name": "F#4",
          "ticks": 14784,
          "time": 28.343546,
          "velocity": 0.7874015748031497
        },
        {
          "duration": 0.18404899999999813,
          "durationTicks": 96,
          "midi": 57,
          "name": "A3",
          "ticks": 14784,
          "time": 28.343546,
          "velocity": 0.6929133858267716
        },
        {
          "duration": 0.18404900000000168,
          "durationTicks": 96,
          "midi": 62,
          "name": "D4",
          "ticks": 14880,
          "time": 28.527594999999998,
          "velocity": 0.6220472440944882
        },
        {
          "duration": 0.18404900000000168,
          "durationTicks": 96,
          "midi": 54,
          "name": "F#3",
          "ticks": 14880,
          "time": 28.527594999999998,
          "velocity": 0.6220472440944882
        },
        {
          "duration": 0.18404900000000168,
          "durationTicks": 96,
          "midi": 57,
          "name": "A3",
          "ticks": 14880,
          "time": 28.527594999999998,
          "velocity": 0.5275590551181102
        },
        {
          "duration": 0.1859661770833334,
          "durationTicks": 97,
          "midi": 50,
          "name": "D3",
          "ticks": 14880,
          "time": 28.527594999999998,
          "velocity": 0.6220472440944882
        },
        {
          "duration": 0.1859661770833334,
          "durationTicks": 97,
          "midi": 66,
          "name": "F#4",
          "ticks": 14880,
          "time": 28.527594999999998,
          "velocity": 0.49606299212598426
        },
        {
          "duration": 0.18404899999999813,
          "durationTicks": 96,
          "midi": 54,
          "name": "F#3",
          "ticks": 14976,
          "time": 28.711644,
          "velocity": 0.5669291338582677
        },
        {
          "duration": 0.18404899999999813,
          "durationTicks": 96,
          "midi": 57,
          "name": "A3",
          "ticks": 14976,
          "time": 28.711644,
          "velocity": 0.5275590551181102
        },
        {
          "duration": 0.18596617708332985,
          "durationTicks": 97,
          "midi": 62,
          "name": "D4",
          "ticks": 14976,
          "time": 28.711644,
          "velocity": 0.6220472440944882
        },
        {
          "duration": 0.18596617708332985,
          "durationTicks": 97,
          "midi": 66,
          "name": "F#4",
          "ticks": 14976,
          "time": 28.711644,
          "velocity": 0.5275590551181102
        },
        {
          "duration": 0.18404899999999813,
          "durationTicks": 96,
          "midi": 50,
          "name": "D3",
          "ticks": 14976,
          "time": 28.711644,
          "velocity": 0.6929133858267716
        },
        {
          "duration": 0.18404900000000168,
          "durationTicks": 96,
          "midi": 50,
          "name": "D3",
          "ticks": 15072,
          "time": 28.895692999999998,
          "velocity": 0.7874015748031497
        },
        {
          "duration": 0.18404900000000168,
          "durationTicks": 96,
          "midi": 54,
          "name": "F#3",
          "ticks": 15072,
          "time": 28.895692999999998,
          "velocity": 0.6929133858267716
        },
        {
          "duration": 0.18404900000000168,
          "durationTicks": 96,
          "midi": 62,
          "name": "D4",
          "ticks": 15072,
          "time": 28.895692999999998,
          "velocity": 0.6929133858267716
        },
        {
          "duration": 0.18404900000000168,
          "durationTicks": 96,
          "midi": 57,
          "name": "A3",
          "ticks": 15072,
          "time": 28.895692999999998,
          "velocity": 0.6220472440944882
        },
        {
          "duration": 0.18404900000000168,
          "durationTicks": 96,
          "midi": 66,
          "name": "F#4",
          "ticks": 15072,
          "time": 28.895692999999998,
          "velocity": 0.6929133858267716
        },
        {
          "duration": 0.18404899999999813,
          "durationTicks": 96,
          "midi": 62,
          "name": "D4",
          "ticks": 15168,
          "time": 29.079742,
          "velocity": 1
        },
        {
          "duration": 0.18404899999999813,
          "durationTicks": 96,
          "midi": 66,
          "name": "F#4",
          "ticks": 15168,
          "time": 29.079742,
          "velocity": 1
        },
        {
          "duration": 0.18404899999999813,
          "durationTicks": 96,
          "midi": 50,
          "name": "D3",
          "ticks": 15168,
          "time": 29.079742,
          "velocity": 0.905511811023622
        },
        {
          "duration": 0.18404899999999813,
          "durationTicks": 96,
          "midi": 57,
          "name": "A3",
          "ticks": 15168,
          "time": 29.079742,
          "velocity": 1
        },
        {
          "duration": 0.18404899999999813,
          "durationTicks": 96,
          "midi": 54,
          "name": "F#3",
          "ticks": 15168,
          "time": 29.079742,
          "velocity": 0.7874015748031497
        },
        {
          "duration": 0.18404900000000168,
          "durationTicks": 96,
          "midi": 57,
          "name": "A3",
          "ticks": 15264,
          "time": 29.263790999999998,
          "velocity": 0.6929133858267716
        },
        {
          "duration": 0.18404900000000168,
          "durationTicks": 96,
          "midi": 50,
          "name": "D3",
          "ticks": 15264,
          "time": 29.263790999999998,
          "velocity": 0.905511811023622
        },
        {
          "duration": 0.18404900000000168,
          "durationTicks": 96,
          "midi": 62,
          "name": "D4",
          "ticks": 15264,
          "time": 29.263790999999998,
          "velocity": 0.7874015748031497
        },
        {
          "duration": 0.18404900000000168,
          "durationTicks": 96,
          "midi": 54,
          "name": "F#3",
          "ticks": 15264,
          "time": 29.263790999999998,
          "velocity": 0.905511811023622
        },
        {
          "duration": 0.18404900000000168,
          "durationTicks": 96,
          "midi": 66,
          "name": "F#4",
          "ticks": 15264,
          "time": 29.263790999999998,
          "velocity": 0.6929133858267716
        },
        {
          "duration": 0.18404899999999813,
          "durationTicks": 96,
          "midi": 54,
          "name": "F#3",
          "ticks": 15360,
          "time": 29.44784,
          "velocity": 0.6929133858267716
        },
        {
          "duration": 0.18404899999999813,
          "durationTicks": 96,
          "midi": 66,
          "name": "F#4",
          "ticks": 15360,
          "time": 29.44784,
          "velocity": 0.49606299212598426
        },
        {
          "duration": 0.18404899999999813,
          "durationTicks": 96,
          "midi": 50,
          "name": "D3",
          "ticks": 15360,
          "time": 29.44784,
          "velocity": 0.6220472440944882
        },
        {
          "duration": 0.18404899999999813,
          "durationTicks": 96,
          "midi": 57,
          "name": "A3",
          "ticks": 15360,
          "time": 29.44784,
          "velocity": 0.49606299212598426
        },
        {
          "duration": 0.18404899999999813,
          "durationTicks": 96,
          "midi": 62,
          "name": "D4",
          "ticks": 15360,
          "time": 29.44784,
          "velocity": 0.5669291338582677
        },
        {
          "duration": 0.18404899999999813,
          "durationTicks": 96,
          "midi": 47,
          "name": "B2",
          "ticks": 16128,
          "time": 30.920232,
          "velocity": 0.6929133858267716
        },
        {
          "duration": 0.18404899999999813,
          "durationTicks": 96,
          "midi": 62,
          "name": "D4",
          "ticks": 16128,
          "time": 30.920232,
          "velocity": 0.7874015748031497
        },
        {
          "duration": 0.18404899999999813,
          "durationTicks": 96,
          "midi": 43,
          "name": "G2",
          "ticks": 16128,
          "time": 30.920232,
          "velocity": 0.7874015748031497
        },
        {
          "duration": 0.18404899999999813,
          "durationTicks": 96,
          "midi": 55,
          "name": "G3",
          "ticks": 16128,
          "time": 30.920232,
          "velocity": 0.6929133858267716
        },
        {
          "duration": 0.18404900000000168,
          "durationTicks": 96,
          "midi": 55,
          "name": "G3",
          "ticks": 16224,
          "time": 31.104280999999997,
          "velocity": 0.6929133858267716
        },
        {
          "duration": 0.18404900000000168,
          "durationTicks": 96,
          "midi": 47,
          "name": "B2",
          "ticks": 16224,
          "time": 31.104280999999997,
          "velocity": 0.6929133858267716
        },
        {
          "duration": 0.18404900000000168,
          "durationTicks": 96,
          "midi": 62,
          "name": "D4",
          "ticks": 16224,
          "time": 31.104280999999997,
          "velocity": 0.6220472440944882
        },
        {
          "duration": 0.18404900000000168,
          "durationTicks": 96,
          "midi": 43,
          "name": "G2",
          "ticks": 16224,
          "time": 31.104280999999997,
          "velocity": 0.6929133858267716
        },
        {
          "duration": 0.18404900000000168,
          "durationTicks": 96,
          "midi": 62,
          "name": "D4",
          "ticks": 16320,
          "time": 31.28833,
          "velocity": 0.905511811023622
        },
        {
          "duration": 0.18404900000000168,
          "durationTicks": 96,
          "midi": 67,
          "name": "G4",
          "ticks": 16320,
          "time": 31.28833,
          "velocity": 0.905511811023622
        },
        {
          "duration": 0.18404900000000168,
          "durationTicks": 96,
          "midi": 47,
          "name": "B2",
          "ticks": 16320,
          "time": 31.28833,
          "velocity": 0.905511811023622
        },
        {
          "duration": 0.18596617708332985,
          "durationTicks": 97,
          "midi": 55,
          "name": "G3",
          "ticks": 16320,
          "time": 31.28833,
          "velocity": 0.905511811023622
        },
        {
          "duration": 0.18404900000000168,
          "durationTicks": 96,
          "midi": 50,
          "name": "D3",
          "ticks": 16320,
          "time": 31.28833,
          "velocity": 0.905511811023622
        },
        {
          "duration": 0.18404899999999813,
          "durationTicks": 96,
          "midi": 47,
          "name": "B2",
          "ticks": 16416,
          "time": 31.472379,
          "velocity": 1
        },
        {
          "duration": 0.18404899999999813,
          "durationTicks": 96,
          "midi": 62,
          "name": "D4",
          "ticks": 16416,
          "time": 31.472379,
          "velocity": 0.905511811023622
        },
        {
          "duration": 0.18596617708332985,
          "durationTicks": 97,
          "midi": 55,
          "name": "G3",
          "ticks": 16416,
          "time": 31.472379,
          "velocity": 0.6220472440944882
        },
        {
          "duration": 0.18404899999999813,
          "durationTicks": 96,
          "midi": 50,
          "name": "D3",
          "ticks": 16416,
          "time": 31.472379,
          "velocity": 0.7874015748031497
        },
        {
          "duration": 0.18404900000000168,
          "durationTicks": 96,
          "midi": 64,
          "name": "E4",
          "ticks": 16512,
          "time": 31.656428,
          "velocity": 0.7874015748031497
        },
        {
          "duration": 0.18404900000000168,
          "durationTicks": 96,
          "midi": 60,
          "name": "C4",
          "ticks": 16512,
          "time": 31.656428,
          "velocity": 0.7874015748031497
        },
        {
          "duration": 0.18404900000000168,
          "durationTicks": 96,
          "midi": 48,
          "name": "C3",
          "ticks": 16512,
          "time": 31.656428,
          "velocity": 0.7874015748031497
        },
        {
          "duration": 0.18404900000000168,
          "durationTicks": 96,
          "midi": 55,
          "name": "G3",
          "ticks": 16512,
          "time": 31.656428,
          "velocity": 0.6220472440944882
        },
        {
          "duration": 0.18596617708332985,
          "durationTicks": 97,
          "midi": 55,
          "name": "G3",
          "ticks": 16608,
          "time": 31.840477,
          "velocity": 0.5669291338582677
        },
        {
          "duration": 0.18404900000000168,
          "durationTicks": 96,
          "midi": 60,
          "name": "C4",
          "ticks": 16608,
          "time": 31.840477,
          "velocity": 0.7874015748031497
        },
        {
          "duration": 0.18404900000000168,
          "durationTicks": 96,
          "midi": 48,
          "name": "C3",
          "ticks": 16608,
          "time": 31.840477,
          "velocity": 0.6929133858267716
        },
        {
          "duration": 0.18404900000000168,
          "durationTicks": 96,
          "midi": 64,
          "name": "E4",
          "ticks": 16608,
          "time": 31.840477,
          "velocity": 0.7874015748031497
        },
        {
          "duration": 0.18404899999999458,
          "durationTicks": 96,
          "midi": 52,
          "name": "E3",
          "ticks": 16704,
          "time": 32.024526,
          "velocity": 0.905511811023622
        },
        {
          "duration": 0.18404899999999458,
          "durationTicks": 96,
          "midi": 60,
          "name": "C4",
          "ticks": 16704,
          "time": 32.024526,
          "velocity": 0.7874015748031497
        },
        {
          "duration": 0.18404899999999458,
          "durationTicks": 96,
          "midi": 55,
          "name": "G3",
          "ticks": 16704,
          "time": 32.024526,
          "velocity": 0.6929133858267716
        },
        {
          "duration": 0.18404899999999458,
          "durationTicks": 96,
          "midi": 64,
          "name": "E4",
          "ticks": 16704,
          "time": 32.024526,
          "velocity": 0.7874015748031497
        },
        {
          "duration": 0.18404900000000168,
          "durationTicks": 96,
          "midi": 60,
          "name": "C4",
          "ticks": 16800,
          "time": 32.208574999999996,
          "velocity": 0.905511811023622
        },
        {
          "duration": 0.18404900000000168,
          "durationTicks": 96,
          "midi": 55,
          "name": "G3",
          "ticks": 16800,
          "time": 32.208574999999996,
          "velocity": 0.6929133858267716
        },
        {
          "duration": 0.18404900000000168,
          "durationTicks": 96,
          "midi": 47,
          "name": "B2",
          "ticks": 16896,
          "time": 32.392624,
          "velocity": 0.905511811023622
        },
        {
          "duration": 0.18596617708332985,
          "durationTicks": 97,
          "midi": 55,
          "name": "G3",
          "ticks": 16896,
          "time": 32.392624,
          "velocity": 0.6220472440944882
        },
        {
          "duration": 0.18404900000000168,
          "durationTicks": 96,
          "midi": 43,
          "name": "G2",
          "ticks": 16896,
          "time": 32.392624,
          "velocity": 0.6929133858267716
        },
        {
          "duration": 0.18404900000000168,
          "durationTicks": 96,
          "midi": 62,
          "name": "D4",
          "ticks": 16896,
          "time": 32.392624,
          "velocity": 0.6929133858267716
        },
        {
          "duration": 0.18404900000000168,
          "durationTicks": 96,
          "midi": 62,
          "name": "D4",
          "ticks": 16992,
          "time": 32.576673,
          "velocity": 0.7874015748031497
        },
        {
          "duration": 0.18404900000000168,
          "durationTicks": 96,
          "midi": 47,
          "name": "B2",
          "ticks": 16992,
          "time": 32.576673,
          "velocity": 0.905511811023622
        },
        {
          "duration": 0.18596617708332985,
          "durationTicks": 97,
          "midi": 55,
          "name": "G3",
          "ticks": 16992,
          "time": 32.576673,
          "velocity": 0.6220472440944882
        },
        {
          "duration": 0.18404899999999458,
          "durationTicks": 96,
          "midi": 67,
          "name": "G4",
          "ticks": 17088,
          "time": 32.760722,
          "velocity": 0.905511811023622
        },
        {
          "duration": 0.18404899999999458,
          "durationTicks": 96,
          "midi": 43,
          "name": "G2",
          "ticks": 17088,
          "time": 32.760722,
          "velocity": 1
        },
        {
          "duration": 0.18404899999999458,
          "durationTicks": 96,
          "midi": 62,
          "name": "D4",
          "ticks": 17088,
          "time": 32.760722,
          "velocity": 0.905511811023622
        },
        {
          "duration": 0.18404899999999458,
          "durationTicks": 96,
          "midi": 55,
          "name": "G3",
          "ticks": 17088,
          "time": 32.760722,
          "velocity": 0.7874015748031497
        },
        {
          "duration": 0.18404900000000168,
          "durationTicks": 96,
          "midi": 47,
          "name": "B2",
          "ticks": 17184,
          "time": 32.944770999999996,
          "velocity": 0.6929133858267716
        },
        {
          "duration": 0.18404900000000168,
          "durationTicks": 96,
          "midi": 62,
          "name": "D4",
          "ticks": 17184,
          "time": 32.944770999999996,
          "velocity": 0.6929133858267716
        },
        {
          "duration": 0.18404900000000168,
          "durationTicks": 96,
          "midi": 55,
          "name": "G3",
          "ticks": 17184,
          "time": 32.944770999999996,
          "velocity": 0.6929133858267716
        },
        {
          "duration": 0.18404900000000168,
          "durationTicks": 96,
          "midi": 48,
          "name": "C3",
          "ticks": 17280,
          "time": 33.12882,
          "velocity": 0.905511811023622
        },
        {
          "duration": 0.18404900000000168,
          "durationTicks": 96,
          "midi": 60,
          "name": "C4",
          "ticks": 17280,
          "time": 33.12882,
          "velocity": 0.7874015748031497
        },
        {
          "duration": 0.18404900000000168,
          "durationTicks": 96,
          "midi": 64,
          "name": "E4",
          "ticks": 17280,
          "time": 33.12882,
          "velocity": 0.6929133858267716
        },
        {
          "duration": 0.18404900000000168,
          "durationTicks": 96,
          "midi": 55,
          "name": "G3",
          "ticks": 17280,
          "time": 33.12882,
          "velocity": 0.6220472440944882
        },
        {
          "duration": 0.18404900000000168,
          "durationTicks": 96,
          "midi": 55,
          "name": "G3",
          "ticks": 17376,
          "time": 33.312869,
          "velocity": 0.6220472440944882
        },
        {
          "duration": 0.18404900000000168,
          "durationTicks": 96,
          "midi": 48,
          "name": "C3",
          "ticks": 17376,
          "time": 33.312869,
          "velocity": 0.6929133858267716
        },
        {
          "duration": 0.18404900000000168,
          "durationTicks": 96,
          "midi": 64,
          "name": "E4",
          "ticks": 17376,
          "time": 33.312869,
          "velocity": 0.6929133858267716
        },
        {
          "duration": 0.18596617708332985,
          "durationTicks": 97,
          "midi": 60,
          "name": "C4",
          "ticks": 17376,
          "time": 33.312869,
          "velocity": 0.6220472440944882
        },
        {
          "duration": 0.18404899999999458,
          "durationTicks": 96,
          "midi": 55,
          "name": "G3",
          "ticks": 17472,
          "time": 33.496918,
          "velocity": 0.6929133858267716
        },
        {
          "duration": 0.18404899999999458,
          "durationTicks": 96,
          "midi": 52,
          "name": "E3",
          "ticks": 17472,
          "time": 33.496918,
          "velocity": 0.7874015748031497
        },
        {
          "duration": 0.18404899999999458,
          "durationTicks": 96,
          "midi": 60,
          "name": "C4",
          "ticks": 17472,
          "time": 33.496918,
          "velocity": 0.905511811023622
        },
        {
          "duration": 0.18404900000000168,
          "durationTicks": 96,
          "midi": 64,
          "name": "E4",
          "ticks": 17568,
          "time": 33.680966999999995,
          "velocity": 0.905511811023622
        },
        {
          "duration": 0.18404900000000168,
          "durationTicks": 96,
          "midi": 55,
          "name": "G3",
          "ticks": 17568,
          "time": 33.680966999999995,
          "velocity": 0.6220472440944882
        },
        {
          "duration": 0.18404900000000168,
          "durationTicks": 96,
          "midi": 48,
          "name": "C3",
          "ticks": 17568,
          "time": 33.680966999999995,
          "velocity": 0.6929133858267716
        },
        {
          "duration": 0.18404900000000168,
          "durationTicks": 96,
          "midi": 62,
          "name": "D4",
          "ticks": 17664,
          "time": 33.865016,
          "velocity": 0.7874015748031497
        },
        {
          "duration": 0.18404900000000168,
          "durationTicks": 96,
          "midi": 55,
          "name": "G3",
          "ticks": 17664,
          "time": 33.865016,
          "velocity": 0.6929133858267716
        },
        {
          "duration": 0.18404900000000168,
          "durationTicks": 96,
          "midi": 47,
          "name": "B2",
          "ticks": 17664,
          "time": 33.865016,
          "velocity": 0.6929133858267716
        },
        {
          "duration": 0.18404900000000168,
          "durationTicks": 96,
          "midi": 43,
          "name": "G2",
          "ticks": 17664,
          "time": 33.865016,
          "velocity": 0.7874015748031497
        },
        {
          "duration": 0.18404900000000168,
          "durationTicks": 96,
          "midi": 55,
          "name": "G3",
          "ticks": 17760,
          "time": 34.049065,
          "velocity": 0.6929133858267716
        },
        {
          "duration": 0.18404900000000168,
          "durationTicks": 96,
          "midi": 47,
          "name": "B2",
          "ticks": 17760,
          "time": 34.049065,
          "velocity": 0.6929133858267716
        },
        {
          "duration": 0.18404900000000168,
          "durationTicks": 96,
          "midi": 62,
          "name": "D4",
          "ticks": 17760,
          "time": 34.049065,
          "velocity": 0.6220472440944882
        },
        {
          "duration": 0.18404900000000168,
          "durationTicks": 96,
          "midi": 43,
          "name": "G2",
          "ticks": 17760,
          "time": 34.049065,
          "velocity": 0.6929133858267716
        },
        {
          "duration": 0.18404899999999458,
          "durationTicks": 96,
          "midi": 62,
          "name": "D4",
          "ticks": 17856,
          "time": 34.233114,
          "velocity": 0.905511811023622
        },
        {
          "duration": 0.18596617708332985,
          "durationTicks": 97,
          "midi": 50,
          "name": "D3",
          "ticks": 17856,
          "time": 34.233114,
          "velocity": 0.905511811023622
        },
        {
          "duration": 0.18404899999999458,
          "durationTicks": 96,
          "midi": 67,
          "name": "G4",
          "ticks": 17856,
          "time": 34.233114,
          "velocity": 0.905511811023622
        },
        {
          "duration": 0.18404899999999458,
          "durationTicks": 96,
          "midi": 47,
          "name": "B2",
          "ticks": 17856,
          "time": 34.233114,
          "velocity": 0.905511811023622
        },
        {
          "duration": 0.18404899999999458,
          "durationTicks": 96,
          "midi": 55,
          "name": "G3",
          "ticks": 17856,
          "time": 34.233114,
          "velocity": 0.905511811023622
        },
        {
          "duration": 0.18404900000000168,
          "durationTicks": 96,
          "midi": 62,
          "name": "D4",
          "ticks": 17952,
          "time": 34.417162999999995,
          "velocity": 0.905511811023622
        },
        {
          "duration": 0.18404900000000168,
          "durationTicks": 96,
          "midi": 47,
          "name": "B2",
          "ticks": 17952,
          "time": 34.417162999999995,
          "velocity": 1
        },
        {
          "duration": 0.18404900000000168,
          "durationTicks": 96,
          "midi": 55,
          "name": "G3",
          "ticks": 17952,
          "time": 34.417162999999995,
          "velocity": 0.6220472440944882
        },
        {
          "duration": 0.18404900000000168,
          "durationTicks": 96,
          "midi": 50,
          "name": "D3",
          "ticks": 17952,
          "time": 34.417162999999995,
          "velocity": 0.7874015748031497
        },
        {
          "duration": 0.18596617708332985,
          "durationTicks": 97,
          "midi": 48,
          "name": "C3",
          "ticks": 18048,
          "time": 34.601212,
          "velocity": 0.7874015748031497
        },
        {
          "duration": 0.18404900000000168,
          "durationTicks": 96,
          "midi": 60,
          "name": "C4",
          "ticks": 18048,
          "time": 34.601212,
          "velocity": 0.7874015748031497
        },
        {
          "duration": 0.18404900000000168,
          "durationTicks": 96,
          "midi": 55,
          "name": "G3",
          "ticks": 18048,
          "time": 34.601212,
          "velocity": 0.6220472440944882
        },
        {
          "duration": 0.18596617708332985,
          "durationTicks": 97,
          "midi": 64,
          "name": "E4",
          "ticks": 18048,
          "time": 34.601212,
          "velocity": 0.7874015748031497
        },
        {
          "duration": 0.18404900000000168,
          "durationTicks": 96,
          "midi": 55,
          "name": "G3",
          "ticks": 18144,
          "time": 34.785261,
          "velocity": 0.5669291338582677
        },
        {
          "duration": 0.18404900000000168,
          "durationTicks": 96,
          "midi": 60,
          "name": "C4",
          "ticks": 18144,
          "time": 34.785261,
          "velocity": 0.7874015748031497
        },
        {
          "duration": 0.18596617708332985,
          "durationTicks": 97,
          "midi": 64,
          "name": "E4",
          "ticks": 18144,
          "time": 34.785261,
          "velocity": 0.7874015748031497
        },
        {
          "duration": 0.18404900000000168,
          "durationTicks": 96,
          "midi": 48,
          "name": "C3",
          "ticks": 18144,
          "time": 34.785261,
          "velocity": 0.6929133858267716
        },
        {
          "duration": 0.18404899999999458,
          "durationTicks": 96,
          "midi": 55,
          "name": "G3",
          "ticks": 18240,
          "time": 34.96931,
          "velocity": 0.6929133858267716
        },
        {
          "duration": 0.18404899999999458,
          "durationTicks": 96,
          "midi": 60,
          "name": "C4",
          "ticks": 18240,
          "time": 34.96931,
          "velocity": 0.7874015748031497
        },
        {
          "duration": 0.18404899999999458,
          "durationTicks": 96,
          "midi": 64,
          "name": "E4",
          "ticks": 18240,
          "time": 34.96931,
          "velocity": 0.7874015748031497
        },
        {
          "duration": 0.18404899999999458,
          "durationTicks": 96,
          "midi": 52,
          "name": "E3",
          "ticks": 18240,
          "time": 34.96931,
          "velocity": 0.905511811023622
        },
        {
          "duration": 0.18404900000000168,
          "durationTicks": 96,
          "midi": 60,
          "name": "C4",
          "ticks": 18336,
          "time": 35.153358999999995,
          "velocity": 0.905511811023622
        },
        {
          "duration": 0.18404900000000168,
          "durationTicks": 96,
          "midi": 55,
          "name": "G3",
          "ticks": 18336,
          "time": 35.153358999999995,
          "velocity": 0.6929133858267716
        },
        {
          "duration": 0.18404900000000168,
          "durationTicks": 96,
          "midi": 43,
          "name": "G2",
          "ticks": 18432,
          "time": 35.337407999999996,
          "velocity": 0.6929133858267716
        },
        {
          "duration": 0.18596617708332985,
          "durationTicks": 97,
          "midi": 62,
          "name": "D4",
          "ticks": 18432,
          "time": 35.337407999999996,
          "velocity": 0.6929133858267716
        },
        {
          "duration": 0.18404900000000168,
          "durationTicks": 96,
          "midi": 47,
          "name": "B2",
          "ticks": 18432,
          "time": 35.337407999999996,
          "velocity": 0.905511811023622
        },
        {
          "duration": 0.18596617708332985,
          "durationTicks": 97,
          "midi": 55,
          "name": "G3",
          "ticks": 18432,
          "time": 35.337407999999996,
          "velocity": 0.6220472440944882
        },
        {
          "duration": 0.18404900000000168,
          "durationTicks": 96,
          "midi": 47,
          "name": "B2",
          "ticks": 18528,
          "time": 35.521457,
          "velocity": 0.905511811023622
        },
        {
          "duration": 0.18404900000000168,
          "durationTicks": 96,
          "midi": 55,
          "name": "G3",
          "ticks": 18528,
          "time": 35.521457,
          "velocity": 0.6220472440944882
        },
        {
          "duration": 0.18404900000000168,
          "durationTicks": 96,
          "midi": 62,
          "name": "D4",
          "ticks": 18528,
          "time": 35.521457,
          "velocity": 0.7874015748031497
        },
        {
          "duration": 0.18404900000000168,
          "durationTicks": 96,
          "midi": 55,
          "name": "G3",
          "ticks": 18624,
          "time": 35.705506,
          "velocity": 0.7874015748031497
        },
        {
          "duration": 0.18404900000000168,
          "durationTicks": 96,
          "midi": 62,
          "name": "D4",
          "ticks": 18624,
          "time": 35.705506,
          "velocity": 0.905511811023622
        },
        {
          "duration": 0.18404900000000168,
          "durationTicks": 96,
          "midi": 67,
          "name": "G4",
          "ticks": 18624,
          "time": 35.705506,
          "velocity": 0.905511811023622
        },
        {
          "duration": 0.18404900000000168,
          "durationTicks": 96,
          "midi": 43,
          "name": "G2",
          "ticks": 18624,
          "time": 35.705506,
          "velocity": 1
        },
        {
          "duration": 0.18404899999999458,
          "durationTicks": 96,
          "midi": 55,
          "name": "G3",
          "ticks": 18720,
          "time": 35.889555,
          "velocity": 0.6929133858267716
        },
        {
          "duration": 0.18404899999999458,
          "durationTicks": 96,
          "midi": 62,
          "name": "D4",
          "ticks": 18720,
          "time": 35.889555,
          "velocity": 0.6929133858267716
        },
        {
          "duration": 0.18404899999999458,
          "durationTicks": 96,
          "midi": 47,
          "name": "B2",
          "ticks": 18720,
          "time": 35.889555,
          "velocity": 0.6929133858267716
        },
        {
          "duration": 0.18404900000000168,
          "durationTicks": 96,
          "midi": 60,
          "name": "C4",
          "ticks": 18816,
          "time": 36.073603999999996,
          "velocity": 0.7874015748031497
        },
        {
          "duration": 0.18404900000000168,
          "durationTicks": 96,
          "midi": 48,
          "name": "C3",
          "ticks": 18816,
          "time": 36.073603999999996,
          "velocity": 0.905511811023622
        },
        {
          "duration": 0.18596617708333696,
          "durationTicks": 97,
          "midi": 55,
          "name": "G3",
          "ticks": 18816,
          "time": 36.073603999999996,
          "velocity": 0.6220472440944882
        },
        {
          "duration": 0.18404900000000168,
          "durationTicks": 96,
          "midi": 64,
          "name": "E4",
          "ticks": 18816,
          "time": 36.073603999999996,
          "velocity": 0.6929133858267716
        },
        {
          "duration": 0.18404900000000168,
          "durationTicks": 96,
          "midi": 48,
          "name": "C3",
          "ticks": 18912,
          "time": 36.257653,
          "velocity": 0.6929133858267716
        },
        {
          "duration": 0.18404900000000168,
          "durationTicks": 96,
          "midi": 64,
          "name": "E4",
          "ticks": 18912,
          "time": 36.257653,
          "velocity": 0.6929133858267716
        },
        {
          "duration": 0.18404900000000168,
          "durationTicks": 96,
          "midi": 60,
          "name": "C4",
          "ticks": 18912,
          "time": 36.257653,
          "velocity": 0.6220472440944882
        },
        {
          "duration": 0.18404900000000168,
          "durationTicks": 96,
          "midi": 55,
          "name": "G3",
          "ticks": 18912,
          "time": 36.257653,
          "velocity": 0.6220472440944882
        },
        {
          "duration": 0.18404900000000168,
          "durationTicks": 96,
          "midi": 52,
          "name": "E3",
          "ticks": 19008,
          "time": 36.441702,
          "velocity": 0.7874015748031497
        },
        {
          "duration": 0.18404900000000168,
          "durationTicks": 96,
          "midi": 60,
          "name": "C4",
          "ticks": 19008,
          "time": 36.441702,
          "velocity": 0.905511811023622
        },
        {
          "duration": 0.18404900000000168,
          "durationTicks": 96,
          "midi": 55,
          "name": "G3",
          "ticks": 19008,
          "time": 36.441702,
          "velocity": 0.6929133858267716
        },
        {
          "duration": 0.18404899999999458,
          "durationTicks": 96,
          "midi": 64,
          "name": "E4",
          "ticks": 19104,
          "time": 36.625751,
          "velocity": 0.905511811023622
        },
        {
          "duration": 0.18404899999999458,
          "durationTicks": 96,
          "midi": 55,
          "name": "G3",
          "ticks": 19104,
          "time": 36.625751,
          "velocity": 0.6220472440944882
        },
        {
          "duration": 0.18404899999999458,
          "durationTicks": 96,
          "midi": 48,
          "name": "C3",
          "ticks": 19104,
          "time": 36.625751,
          "velocity": 0.6929133858267716
        },
        {
          "duration": 0.18596617708333696,
          "durationTicks": 97,
          "midi": 62,
          "name": "D4",
          "ticks": 19200,
          "time": 36.809799999999996,
          "velocity": 0.7874015748031497
        },
        {
          "duration": 0.18404900000000168,
          "durationTicks": 96,
          "midi": 43,
          "name": "G2",
          "ticks": 19200,
          "time": 36.809799999999996,
          "velocity": 0.7874015748031497
        },
        {
          "duration": 0.18404900000000168,
          "durationTicks": 96,
          "midi": 47,
          "name": "B2",
          "ticks": 19200,
          "time": 36.809799999999996,
          "velocity": 0.6929133858267716
        },
        {
          "duration": 0.18404900000000168,
          "durationTicks": 96,
          "midi": 55,
          "name": "G3",
          "ticks": 19200,
          "time": 36.809799999999996,
          "velocity": 0.6929133858267716
        },
        {
          "duration": 0.18404900000000168,
          "durationTicks": 96,
          "midi": 55,
          "name": "G3",
          "ticks": 19296,
          "time": 36.993849,
          "velocity": 0.6929133858267716
        },
        {
          "duration": 0.18404900000000168,
          "durationTicks": 96,
          "midi": 47,
          "name": "B2",
          "ticks": 19296,
          "time": 36.993849,
          "velocity": 0.6929133858267716
        },
        {
          "duration": 0.18404900000000168,
          "durationTicks": 96,
          "midi": 43,
          "name": "G2",
          "ticks": 19296,
          "time": 36.993849,
          "velocity": 0.6929133858267716
        },
        {
          "duration": 0.18404900000000168,
          "durationTicks": 96,
          "midi": 62,
          "name": "D4",
          "ticks": 19296,
          "time": 36.993849,
          "velocity": 0.6220472440944882
        },
        {
          "duration": 0.18596617708332985,
          "durationTicks": 97,
          "midi": 62,
          "name": "D4",
          "ticks": 19392,
          "time": 37.177898,
          "velocity": 0.905511811023622
        },
        {
          "duration": 0.18404900000000168,
          "durationTicks": 96,
          "midi": 50,
          "name": "D3",
          "ticks": 19392,
          "time": 37.177898,
          "velocity": 0.905511811023622
        },
        {
          "duration": 0.18596617708332985,
          "durationTicks": 97,
          "midi": 47,
          "name": "B2",
          "ticks": 19392,
          "time": 37.177898,
          "velocity": 0.905511811023622
        },
        {
          "duration": 0.18404900000000168,
          "durationTicks": 96,
          "midi": 55,
          "name": "G3",
          "ticks": 19392,
          "time": 37.177898,
          "velocity": 0.905511811023622
        },
        {
          "duration": 0.18404900000000168,
          "durationTicks": 96,
          "midi": 67,
          "name": "G4",
          "ticks": 19392,
          "time": 37.177898,
          "velocity": 0.905511811023622
        },
        {
          "duration": 0.18404899999999458,
          "durationTicks": 96,
          "midi": 50,
          "name": "D3",
          "ticks": 19488,
          "time": 37.361947,
          "velocity": 0.7874015748031497
        },
        {
          "duration": 0.18404899999999458,
          "durationTicks": 96,
          "midi": 55,
          "name": "G3",
          "ticks": 19488,
          "time": 37.361947,
          "velocity": 0.6220472440944882
        },
        {
          "duration": 0.18404899999999458,
          "durationTicks": 96,
          "midi": 47,
          "name": "B2",
          "ticks": 19488,
          "time": 37.361947,
          "velocity": 1
        },
        {
          "duration": 0.18404899999999458,
          "durationTicks": 96,
          "midi": 62,
          "name": "D4",
          "ticks": 19488,
          "time": 37.361947,
          "velocity": 0.905511811023622
        },
        {
          "duration": 0.18404900000000168,
          "durationTicks": 96,
          "midi": 48,
          "name": "C3",
          "ticks": 19584,
          "time": 37.545995999999995,
          "velocity": 0.7874015748031497
        },
        {
          "duration": 0.18404900000000168,
          "durationTicks": 96,
          "midi": 64,
          "name": "E4",
          "ticks": 19584,
          "time": 37.545995999999995,
          "velocity": 0.7874015748031497
        },
        {
          "duration": 0.18404900000000168,
          "durationTicks": 96,
          "midi": 60,
          "name": "C4",
          "ticks": 19584,
          "time": 37.545995999999995,
          "velocity": 0.7874015748031497
        },
        {
          "duration": 0.18404900000000168,
          "durationTicks": 96,
          "midi": 55,
          "name": "G3",
          "ticks": 19584,
          "time": 37.545995999999995,
          "velocity": 0.6220472440944882
        },
        {
          "duration": 0.18404900000000168,
          "durationTicks": 96,
          "midi": 60,
          "name": "C4",
          "ticks": 19680,
          "time": 37.730045,
          "velocity": 0.7874015748031497
        },
        {
          "duration": 0.18404900000000168,
          "durationTicks": 96,
          "midi": 55,
          "name": "G3",
          "ticks": 19680,
          "time": 37.730045,
          "velocity": 0.5669291338582677
        },
        {
          "duration": 0.18596617708332985,
          "durationTicks": 97,
          "midi": 64,
          "name": "E4",
          "ticks": 19680,
          "time": 37.730045,
          "velocity": 0.7874015748031497
        },
        {
          "duration": 0.18404900000000168,
          "durationTicks": 96,
          "midi": 48,
          "name": "C3",
          "ticks": 19680,
          "time": 37.730045,
          "velocity": 0.6929133858267716
        },
        {
          "duration": 0.18596617708332985,
          "durationTicks": 97,
          "midi": 55,
          "name": "G3",
          "ticks": 19776,
          "time": 37.914094,
          "velocity": 0.6929133858267716
        },
        {
          "duration": 0.18404900000000168,
          "durationTicks": 96,
          "midi": 52,
          "name": "E3",
          "ticks": 19776,
          "time": 37.914094,
          "velocity": 0.905511811023622
        },
        {
          "duration": 0.18404900000000168,
          "durationTicks": 96,
          "midi": 60,
          "name": "C4",
          "ticks": 19776,
          "time": 37.914094,
          "velocity": 0.7874015748031497
        },
        {
          "duration": 0.18404900000000168,
          "durationTicks": 96,
          "midi": 64,
          "name": "E4",
          "ticks": 19776,
          "time": 37.914094,
          "velocity": 0.7874015748031497
        },
        {
          "duration": 0.18404899999999458,
          "durationTicks": 96,
          "midi": 60,
          "name": "C4",
          "ticks": 19872,
          "time": 38.098143,
          "velocity": 0.905511811023622
        },
        {
          "duration": 0.18404899999999458,
          "durationTicks": 96,
          "midi": 55,
          "name": "G3",
          "ticks": 19872,
          "time": 38.098143,
          "velocity": 0.6929133858267716
        },
        {
          "duration": 0.18404900000000168,
          "durationTicks": 96,
          "midi": 62,
          "name": "D4",
          "ticks": 19968,
          "time": 38.282191999999995,
          "velocity": 0.6929133858267716
        },
        {
          "duration": 0.18596617708333696,
          "durationTicks": 97,
          "midi": 47,
          "name": "B2",
          "ticks": 19968,
          "time": 38.282191999999995,
          "velocity": 0.905511811023622
        },
        {
          "duration": 0.18404900000000168,
          "durationTicks": 96,
          "midi": 55,
          "name": "G3",
          "ticks": 19968,
          "time": 38.282191999999995,
          "velocity": 0.6220472440944882
        },
        {
          "duration": 0.18404900000000168,
          "durationTicks": 96,
          "midi": 43,
          "name": "G2",
          "ticks": 19968,
          "time": 38.282191999999995,
          "velocity": 0.6929133858267716
        },
        {
          "duration": 0.18404900000000168,
          "durationTicks": 96,
          "midi": 62,
          "name": "D4",
          "ticks": 20064,
          "time": 38.466241,
          "velocity": 0.7874015748031497
        },
        {
          "duration": 0.18596617708332985,
          "durationTicks": 97,
          "midi": 55,
          "name": "G3",
          "ticks": 20064,
          "time": 38.466241,
          "velocity": 0.6220472440944882
        },
        {
          "duration": 0.18404900000000168,
          "durationTicks": 96,
          "midi": 47,
          "name": "B2",
          "ticks": 20064,
          "time": 38.466241,
          "velocity": 0.905511811023622
        },
        {
          "duration": 0.18596617708332985,
          "durationTicks": 97,
          "midi": 62,
          "name": "D4",
          "ticks": 20160,
          "time": 38.65029,
          "velocity": 0.905511811023622
        },
        {
          "duration": 0.18404900000000168,
          "durationTicks": 96,
          "midi": 67,
          "name": "G4",
          "ticks": 20160,
          "time": 38.65029,
          "velocity": 0.905511811023622
        },
        {
          "duration": 0.18404900000000168,
          "durationTicks": 96,
          "midi": 43,
          "name": "G2",
          "ticks": 20160,
          "time": 38.65029,
          "velocity": 1
        },
        {
          "duration": 0.18596617708332985,
          "durationTicks": 97,
          "midi": 55,
          "name": "G3",
          "ticks": 20160,
          "time": 38.65029,
          "velocity": 0.7874015748031497
        },
        {
          "duration": 0.18404899999999458,
          "durationTicks": 96,
          "midi": 47,
          "name": "B2",
          "ticks": 20256,
          "time": 38.834339,
          "velocity": 0.6929133858267716
        },
        {
          "duration": 0.18404899999999458,
          "durationTicks": 96,
          "midi": 62,
          "name": "D4",
          "ticks": 20256,
          "time": 38.834339,
          "velocity": 0.6929133858267716
        },
        {
          "duration": 0.18404899999999458,
          "durationTicks": 96,
          "midi": 55,
          "name": "G3",
          "ticks": 20256,
          "time": 38.834339,
          "velocity": 0.6929133858267716
        },
        {
          "duration": 0.18404900000000168,
          "durationTicks": 96,
          "midi": 64,
          "name": "E4",
          "ticks": 20352,
          "time": 39.018387999999995,
          "velocity": 0.6929133858267716
        },
        {
          "duration": 0.18404900000000168,
          "durationTicks": 96,
          "midi": 48,
          "name": "C3",
          "ticks": 20352,
          "time": 39.018387999999995,
          "velocity": 0.905511811023622
        },
        {
          "duration": 0.18596617708333696,
          "durationTicks": 97,
          "midi": 55,
          "name": "G3",
          "ticks": 20352,
          "time": 39.018387999999995,
          "velocity": 0.6220472440944882
        },
        {
          "duration": 0.18404900000000168,
          "durationTicks": 96,
          "midi": 60,
          "name": "C4",
          "ticks": 20352,
          "time": 39.018387999999995,
          "velocity": 0.7874015748031497
        },
        {
          "duration": 0.18404900000000168,
          "durationTicks": 96,
          "midi": 60,
          "name": "C4",
          "ticks": 20448,
          "time": 39.202436999999996,
          "velocity": 0.6220472440944882
        },
        {
          "duration": 0.18404900000000168,
          "durationTicks": 96,
          "midi": 48,
          "name": "C3",
          "ticks": 20448,
          "time": 39.202436999999996,
          "velocity": 0.6929133858267716
        },
        {
          "duration": 0.18404900000000168,
          "durationTicks": 96,
          "midi": 64,
          "name": "E4",
          "ticks": 20448,
          "time": 39.202436999999996,
          "velocity": 0.6929133858267716
        },
        {
          "duration": 0.18596617708332985,
          "durationTicks": 97,
          "midi": 55,
          "name": "G3",
          "ticks": 20448,
          "time": 39.202436999999996,
          "velocity": 0.6220472440944882
        },
        {
          "duration": 0.18404900000000168,
          "durationTicks": 96,
          "midi": 52,
          "name": "E3",
          "ticks": 20544,
          "time": 39.386486,
          "velocity": 0.7874015748031497
        },
        {
          "duration": 0.18404900000000168,
          "durationTicks": 96,
          "midi": 55,
          "name": "G3",
          "ticks": 20544,
          "time": 39.386486,
          "velocity": 0.6929133858267716
        },
        {
          "duration": 0.18404900000000168,
          "durationTicks": 96,
          "midi": 60,
          "name": "C4",
          "ticks": 20544,
          "time": 39.386486,
          "velocity": 0.905511811023622
        },
        {
          "duration": 0.18404900000000168,
          "durationTicks": 96,
          "midi": 48,
          "name": "C3",
          "ticks": 20640,
          "time": 39.570535,
          "velocity": 0.6929133858267716
        },
        {
          "duration": 0.18404900000000168,
          "durationTicks": 96,
          "midi": 55,
          "name": "G3",
          "ticks": 20640,
          "time": 39.570535,
          "velocity": 0.6220472440944882
        },
        {
          "duration": 0.18404900000000168,
          "durationTicks": 96,
          "midi": 64,
          "name": "E4",
          "ticks": 20640,
          "time": 39.570535,
          "velocity": 0.905511811023622
        },
        {
          "duration": 0.18596617708332985,
          "durationTicks": 97,
          "midi": 43,
          "name": "G2",
          "ticks": 20736,
          "time": 39.754584,
          "velocity": 0.7874015748031497
        },
        {
          "duration": 0.18404899999999458,
          "durationTicks": 96,
          "midi": 55,
          "name": "G3",
          "ticks": 20736,
          "time": 39.754584,
          "velocity": 0.6929133858267716
        },
        {
          "duration": 0.18404899999999458,
          "durationTicks": 96,
          "midi": 47,
          "name": "B2",
          "ticks": 20736,
          "time": 39.754584,
          "velocity": 0.6929133858267716
        },
        {
          "duration": 0.18404899999999458,
          "durationTicks": 96,
          "midi": 62,
          "name": "D4",
          "ticks": 20736,
          "time": 39.754584,
          "velocity": 0.7874015748031497
        },
        {
          "duration": 0.18404900000000168,
          "durationTicks": 96,
          "midi": 62,
          "name": "D4",
          "ticks": 20832,
          "time": 39.938632999999996,
          "velocity": 0.6220472440944882
        },
        {
          "duration": 0.18404900000000168,
          "durationTicks": 96,
          "midi": 55,
          "name": "G3",
          "ticks": 20832,
          "time": 39.938632999999996,
          "velocity": 0.6929133858267716
        },
        {
          "duration": 0.18404900000000168,
          "durationTicks": 96,
          "midi": 43,
          "name": "G2",
          "ticks": 20832,
          "time": 39.938632999999996,
          "velocity": 0.6929133858267716
        },
        {
          "duration": 0.18404900000000168,
          "durationTicks": 96,
          "midi": 47,
          "name": "B2",
          "ticks": 20832,
          "time": 39.938632999999996,
          "velocity": 0.6929133858267716
        },
        {
          "duration": 0.18596617708332985,
          "durationTicks": 97,
          "midi": 55,
          "name": "G3",
          "ticks": 20928,
          "time": 40.122682,
          "velocity": 0.905511811023622
        },
        {
          "duration": 0.18596617708332985,
          "durationTicks": 97,
          "midi": 47,
          "name": "B2",
          "ticks": 20928,
          "time": 40.122682,
          "velocity": 0.905511811023622
        },
        {
          "duration": 0.18404900000000168,
          "durationTicks": 96,
          "midi": 50,
          "name": "D3",
          "ticks": 20928,
          "time": 40.122682,
          "velocity": 0.905511811023622
        },
        {
          "duration": 0.18404900000000168,
          "durationTicks": 96,
          "midi": 62,
          "name": "D4",
          "ticks": 20928,
          "time": 40.122682,
          "velocity": 0.905511811023622
        },
        {
          "duration": 0.18404900000000168,
          "durationTicks": 96,
          "midi": 67,
          "name": "G4",
          "ticks": 20928,
          "time": 40.122682,
          "velocity": 0.905511811023622
        },
        {
          "duration": 0.18404900000000168,
          "durationTicks": 96,
          "midi": 62,
          "name": "D4",
          "ticks": 21024,
          "time": 40.306731,
          "velocity": 0.905511811023622
        },
        {
          "duration": 0.18404900000000168,
          "durationTicks": 96,
          "midi": 47,
          "name": "B2",
          "ticks": 21024,
          "time": 40.306731,
          "velocity": 1
        },
        {
          "duration": 0.18404900000000168,
          "durationTicks": 96,
          "midi": 50,
          "name": "D3",
          "ticks": 21024,
          "time": 40.306731,
          "velocity": 0.7874015748031497
        },
        {
          "duration": 0.18404900000000168,
          "durationTicks": 96,
          "midi": 55,
          "name": "G3",
          "ticks": 21024,
          "time": 40.306731,
          "velocity": 0.6220472440944882
        },
        {
          "duration": 0.18596617708332985,
          "durationTicks": 97,
          "midi": 48,
          "name": "C3",
          "ticks": 21120,
          "time": 40.49078,
          "velocity": 0.7874015748031497
        },
        {
          "duration": 0.18404899999999458,
          "durationTicks": 96,
          "midi": 60,
          "name": "C4",
          "ticks": 21120,
          "time": 40.49078,
          "velocity": 0.7874015748031497
        },
        {
          "duration": 0.18404899999999458,
          "durationTicks": 96,
          "midi": 55,
          "name": "G3",
          "ticks": 21120,
          "time": 40.49078,
          "velocity": 0.6220472440944882
        },
        {
          "duration": 0.18404899999999458,
          "durationTicks": 96,
          "midi": 64,
          "name": "E4",
          "ticks": 21120,
          "time": 40.49078,
          "velocity": 0.7874015748031497
        },
        {
          "duration": 0.18404900000000168,
          "durationTicks": 96,
          "midi": 55,
          "name": "G3",
          "ticks": 21216,
          "time": 40.674828999999995,
          "velocity": 0.5669291338582677
        },
        {
          "duration": 0.18404900000000168,
          "durationTicks": 96,
          "midi": 60,
          "name": "C4",
          "ticks": 21216,
          "time": 40.674828999999995,
          "velocity": 0.7874015748031497
        },
        {
          "duration": 0.18404900000000168,
          "durationTicks": 96,
          "midi": 48,
          "name": "C3",
          "ticks": 21216,
          "time": 40.674828999999995,
          "velocity": 0.6929133858267716
        },
        {
          "duration": 0.18596617708333696,
          "durationTicks": 97,
          "midi": 64,
          "name": "E4",
          "ticks": 21216,
          "time": 40.674828999999995,
          "velocity": 0.7874015748031497
        },
        {
          "duration": 0.18404900000000168,
          "durationTicks": 96,
          "midi": 52,
          "name": "E3",
          "ticks": 21312,
          "time": 40.858878,
          "velocity": 0.905511811023622
        },
        {
          "duration": 0.18404900000000168,
          "durationTicks": 96,
          "midi": 60,
          "name": "C4",
          "ticks": 21312,
          "time": 40.858878,
          "velocity": 0.7874015748031497
        },
        {
          "duration": 0.18404900000000168,
          "durationTicks": 96,
          "midi": 55,
          "name": "G3",
          "ticks": 21312,
          "time": 40.858878,
          "velocity": 0.6929133858267716
        },
        {
          "duration": 0.18404900000000168,
          "durationTicks": 96,
          "midi": 64,
          "name": "E4",
          "ticks": 21312,
          "time": 40.858878,
          "velocity": 0.7874015748031497
        },
        {
          "duration": 0.18404900000000168,
          "durationTicks": 96,
          "midi": 55,
          "name": "G3",
          "ticks": 21408,
          "time": 41.042927,
          "velocity": 0.6929133858267716
        },
        {
          "duration": 0.18404900000000168,
          "durationTicks": 96,
          "midi": 60,
          "name": "C4",
          "ticks": 21408,
          "time": 41.042927,
          "velocity": 0.905511811023622
        },
        {
          "duration": 0.18404899999999458,
          "durationTicks": 96,
          "midi": 43,
          "name": "G2",
          "ticks": 21504,
          "time": 41.226976,
          "velocity": 0.6929133858267716
        },
        {
          "duration": 0.18404899999999458,
          "durationTicks": 96,
          "midi": 55,
          "name": "G3",
          "ticks": 21504,
          "time": 41.226976,
          "velocity": 0.6220472440944882
        },
        {
          "duration": 0.18404899999999458,
          "durationTicks": 96,
          "midi": 62,
          "name": "D4",
          "ticks": 21504,
          "time": 41.226976,
          "velocity": 0.6929133858267716
        },
        {
          "duration": 0.18404899999999458,
          "durationTicks": 96,
          "midi": 47,
          "name": "B2",
          "ticks": 21504,
          "time": 41.226976,
          "velocity": 0.905511811023622
        },
        {
          "duration": 0.18404900000000168,
          "durationTicks": 96,
          "midi": 62,
          "name": "D4",
          "ticks": 21600,
          "time": 41.411024999999995,
          "velocity": 0.7874015748031497
        },
        {
          "duration": 0.18404900000000168,
          "durationTicks": 96,
          "midi": 55,
          "name": "G3",
          "ticks": 21600,
          "time": 41.411024999999995,
          "velocity": 0.6220472440944882
        },
        {
          "duration": 0.18404900000000168,
          "durationTicks": 96,
          "midi": 47,
          "name": "B2",
          "ticks": 21600,
          "time": 41.411024999999995,
          "velocity": 0.905511811023622
        },
        {
          "duration": 0.18404900000000168,
          "durationTicks": 96,
          "midi": 43,
          "name": "G2",
          "ticks": 21696,
          "time": 41.595074,
          "velocity": 1
        },
        {
          "duration": 0.18404900000000168,
          "durationTicks": 96,
          "midi": 62,
          "name": "D4",
          "ticks": 21696,
          "time": 41.595074,
          "velocity": 0.905511811023622
        },
        {
          "duration": 0.18404900000000168,
          "durationTicks": 96,
          "midi": 67,
          "name": "G4",
          "ticks": 21696,
          "time": 41.595074,
          "velocity": 0.905511811023622
        },
        {
          "duration": 0.18404900000000168,
          "durationTicks": 96,
          "midi": 55,
          "name": "G3",
          "ticks": 21696,
          "time": 41.595074,
          "velocity": 0.7874015748031497
        },
        {
          "duration": 0.18404900000000168,
          "durationTicks": 96,
          "midi": 62,
          "name": "D4",
          "ticks": 21792,
          "time": 41.779123,
          "velocity": 0.6929133858267716
        },
        {
          "duration": 0.18404900000000168,
          "durationTicks": 96,
          "midi": 55,
          "name": "G3",
          "ticks": 21792,
          "time": 41.779123,
          "velocity": 0.6929133858267716
        },
        {
          "duration": 0.18404900000000168,
          "durationTicks": 96,
          "midi": 47,
          "name": "B2",
          "ticks": 21792,
          "time": 41.779123,
          "velocity": 0.6929133858267716
        },
        {
          "duration": 0.18596617708332985,
          "durationTicks": 97,
          "midi": 55,
          "name": "G3",
          "ticks": 21888,
          "time": 41.963172,
          "velocity": 0.6220472440944882
        },
        {
          "duration": 0.18404899999999458,
          "durationTicks": 96,
          "midi": 60,
          "name": "C4",
          "ticks": 21888,
          "time": 41.963172,
          "velocity": 0.7874015748031497
        },
        {
          "duration": 0.18404899999999458,
          "durationTicks": 96,
          "midi": 64,
          "name": "E4",
          "ticks": 21888,
          "time": 41.963172,
          "velocity": 0.6929133858267716
        },
        {
          "duration": 0.18404899999999458,
          "durationTicks": 96,
          "midi": 48,
          "name": "C3",
          "ticks": 21888,
          "time": 41.963172,
          "velocity": 0.905511811023622
        },
        {
          "duration": 0.18404900000000168,
          "durationTicks": 96,
          "midi": 48,
          "name": "C3",
          "ticks": 21984,
          "time": 42.147220999999995,
          "velocity": 0.6929133858267716
        },
        {
          "duration": 0.18404900000000168,
          "durationTicks": 96,
          "midi": 64,
          "name": "E4",
          "ticks": 21984,
          "time": 42.147220999999995,
          "velocity": 0.6929133858267716
        },
        {
          "duration": 0.18404900000000168,
          "durationTicks": 96,
          "midi": 60,
          "name": "C4",
          "ticks": 21984,
          "time": 42.147220999999995,
          "velocity": 0.6220472440944882
        },
        {
          "duration": 0.18596617708333696,
          "durationTicks": 97,
          "midi": 55,
          "name": "G3",
          "ticks": 21984,
          "time": 42.147220999999995,
          "velocity": 0.6220472440944882
        },
        {
          "duration": 0.18404900000000168,
          "durationTicks": 96,
          "midi": 52,
          "name": "E3",
          "ticks": 22080,
          "time": 42.331269999999996,
          "velocity": 0.7874015748031497
        },
        {
          "duration": 0.18404900000000168,
          "durationTicks": 96,
          "midi": 60,
          "name": "C4",
          "ticks": 22080,
          "time": 42.331269999999996,
          "velocity": 0.905511811023622
        },
        {
          "duration": 0.18404900000000168,
          "durationTicks": 96,
          "midi": 55,
          "name": "G3",
          "ticks": 22080,
          "time": 42.331269999999996,
          "velocity": 0.6929133858267716
        },
        {
          "duration": 0.18404900000000168,
          "durationTicks": 96,
          "midi": 55,
          "name": "G3",
          "ticks": 22176,
          "time": 42.515319,
          "velocity": 0.6220472440944882
        },
        {
          "duration": 0.18404900000000168,
          "durationTicks": 96,
          "midi": 64,
          "name": "E4",
          "ticks": 22176,
          "time": 42.515319,
          "velocity": 0.905511811023622
        },
        {
          "duration": 0.18404900000000168,
          "durationTicks": 96,
          "midi": 48,
          "name": "C3",
          "ticks": 22176,
          "time": 42.515319,
          "velocity": 0.6929133858267716
        },
        {
          "duration": 0.18404899999999458,
          "durationTicks": 96,
          "midi": 43,
          "name": "G2",
          "ticks": 22272,
          "time": 42.699368,
          "velocity": 1
        },
        {
          "duration": 0.18404899999999458,
          "durationTicks": 96,
          "midi": 50,
          "name": "D3",
          "ticks": 22272,
          "time": 42.699368,
          "velocity": 0.7874015748031497
        },
        {
          "duration": 0.18404899999999458,
          "durationTicks": 96,
          "midi": 55,
          "name": "G3",
          "ticks": 22272,
          "time": 42.699368,
          "velocity": 0.6929133858267716
        },
        {
          "duration": 0.18404899999999458,
          "durationTicks": 96,
          "midi": 47,
          "name": "B2",
          "ticks": 22272,
          "time": 42.699368,
          "velocity": 1
        },
        {
          "duration": 0.18404899999999458,
          "durationTicks": 96,
          "midi": 62,
          "name": "D4",
          "ticks": 22272,
          "time": 42.699368,
          "velocity": 1
        },
        {
          "duration": 1.2710884062500014,
          "durationTicks": 663,
          "midi": 48,
          "name": "C3",
          "ticks": 23046,
          "time": 44.1832630625,
          "velocity": 1
        },
        {
          "duration": 1.1215485937499992,
          "durationTicks": 585,
          "midi": 60,
          "name": "C4",
          "ticks": 23050,
          "time": 44.19093177083333,
          "velocity": 1
        },
        {
          "duration": 1.144554718749994,
          "durationTicks": 597,
          "midi": 55,
          "name": "G3",
          "ticks": 23052,
          "time": 44.194766125,
          "velocity": 1
        },
        {
          "duration": 1.088956583333335,
          "durationTicks": 568,
          "midi": 64,
          "name": "E4",
          "ticks": 23056,
          "time": 44.20243483333333,
          "velocity": 0.905511811023622
        },
        {
          "duration": 1.3631129062499951,
          "durationTicks": 711,
          "midi": 43,
          "name": "G2",
          "ticks": 23769,
          "time": 45.56938209375,
          "velocity": 0.7874015748031497
        },
        {
          "duration": 1.307514770833329,
          "durationTicks": 682,
          "midi": 47,
          "name": "B2",
          "ticks": 23790,
          "time": 45.6096428125,
          "velocity": 0.6929133858267716
        },
        {
          "duration": 1.345858312499999,
          "durationTicks": 702,
          "midi": 50,
          "name": "D3",
          "ticks": 23801,
          "time": 45.630731760416666,
          "velocity": 0.905511811023622
        },
        {
          "duration": 1.2710884062499943,
          "durationTicks": 663,
          "midi": 55,
          "name": "G3",
          "ticks": 23825,
          "time": 45.67674401041667,
          "velocity": 0.6220472440944882
        },
        {
          "duration": 1.2116559166666576,
          "durationTicks": 632,
          "midi": 62,
          "name": "D4",
          "ticks": 23843,
          "time": 45.71125319791667,
          "velocity": 1
        },
        {
          "duration": 1.2269933333333256,
          "durationTicks": 640,
          "midi": 41,
          "name": "F2",
          "ticks": 24577,
          "time": 47.11846117708333,
          "velocity": 1
        },
        {
          "duration": 1.3343552500000015,
          "durationTicks": 696,
          "midi": 53,
          "name": "F3",
          "ticks": 24584,
          "time": 47.13188141666666,
          "velocity": 0.905511811023622
        },
        {
          "duration": 1.2960117083333245,
          "durationTicks": 676,
          "midi": 48,
          "name": "C3",
          "ticks": 24586,
          "time": 47.135715770833336,
          "velocity": 0.905511811023622
        },
        {
          "duration": 1.3324380729166592,
          "durationTicks": 695,
          "midi": 60,
          "name": "C4",
          "ticks": 24588,
          "time": 47.139550125,
          "velocity": 0.905511811023622
        },
        {
          "duration": 0.18404900000000168,
          "durationTicks": 96,
          "midi": 48,
          "name": "C3",
          "ticks": 25344,
          "time": 48.588936,
          "velocity": 0.952755905511811
        },
        {
          "duration": 0.18404900000000168,
          "durationTicks": 96,
          "midi": 50,
          "name": "D3",
          "ticks": 25440,
          "time": 48.772985,
          "velocity": 0.952755905511811
        },
        {
          "duration": 0.09202449999999374,
          "durationTicks": 48,
          "midi": 53,
          "name": "F3",
          "ticks": 25536,
          "time": 48.957034,
          "velocity": 0.952755905511811
        },
        {
          "duration": 0.18404900000000168,
          "durationTicks": 96,
          "midi": 48,
          "name": "C3",
          "ticks": 25632,
          "time": 49.141082999999995,
          "velocity": 0.952755905511811
        },
        {
          "duration": 0.18404900000000168,
          "durationTicks": 96,
          "midi": 50,
          "name": "D3",
          "ticks": 25728,
          "time": 49.325131999999996,
          "velocity": 0.952755905511811
        },
        {
          "duration": 0.09202450000000084,
          "durationTicks": 48,
          "midi": 53,
          "name": "F3",
          "ticks": 25824,
          "time": 49.509181,
          "velocity": 0.952755905511811
        },
        {
          "duration": 0.18404899999999458,
          "durationTicks": 96,
          "midi": 48,
          "name": "C3",
          "ticks": 25920,
          "time": 49.69323,
          "velocity": 0.952755905511811
        },
        {
          "duration": 0.18404900000000168,
          "durationTicks": 96,
          "midi": 50,
          "name": "D3",
          "ticks": 26016,
          "time": 49.877278999999994,
          "velocity": 0.952755905511811
        },
        {
          "duration": 0.18404900000000168,
          "durationTicks": 96,
          "midi": 48,
          "name": "C3",
          "ticks": 26112,
          "time": 50.061327999999996,
          "velocity": 0.952755905511811
        },
        {
          "duration": 0.18404900000000168,
          "durationTicks": 96,
          "midi": 50,
          "name": "D3",
          "ticks": 26208,
          "time": 50.245377,
          "velocity": 0.952755905511811
        },
        {
          "duration": 0.09202450000000084,
          "durationTicks": 48,
          "midi": 53,
          "name": "F3",
          "ticks": 26304,
          "time": 50.429426,
          "velocity": 0.952755905511811
        },
        {
          "duration": 0.18404900000000168,
          "durationTicks": 96,
          "midi": 48,
          "name": "C3",
          "ticks": 26400,
          "time": 50.613474999999994,
          "velocity": 0.952755905511811
        },
        {
          "duration": 0.18404900000000168,
          "durationTicks": 96,
          "midi": 50,
          "name": "D3",
          "ticks": 26496,
          "time": 50.797523999999996,
          "velocity": 0.952755905511811
        },
        {
          "duration": 0.09202450000000084,
          "durationTicks": 48,
          "midi": 53,
          "name": "F3",
          "ticks": 26592,
          "time": 50.981573,
          "velocity": 0.952755905511811
        },
        {
          "duration": 0.18404900000000168,
          "durationTicks": 96,
          "midi": 48,
          "name": "C3",
          "ticks": 26688,
          "time": 51.165622,
          "velocity": 0.952755905511811
        },
        {
          "duration": 0.18404899999999458,
          "durationTicks": 96,
          "midi": 50,
          "name": "D3",
          "ticks": 26784,
          "time": 51.349671,
          "velocity": 0.952755905511811
        },
        {
          "duration": 0.18596617708333696,
          "durationTicks": 97,
          "midi": 62,
          "name": "D4",
          "ticks": 26880,
          "time": 51.533719999999995,
          "velocity": 0.6220472440944882
        },
        {
          "duration": 0.18404900000000168,
          "durationTicks": 96,
          "midi": 43,
          "name": "G2",
          "ticks": 26880,
          "time": 51.533719999999995,
          "velocity": 0.6929133858267716
        },
        {
          "duration": 0.18404900000000168,
          "durationTicks": 96,
          "midi": 55,
          "name": "G3",
          "ticks": 26880,
          "time": 51.533719999999995,
          "velocity": 0.6220472440944882
        },
        {
          "duration": 0.18404900000000168,
          "durationTicks": 96,
          "midi": 47,
          "name": "B2",
          "ticks": 26880,
          "time": 51.533719999999995,
          "velocity": 0.7874015748031497
        },
        {
          "duration": 0.18404900000000168,
          "durationTicks": 96,
          "midi": 62,
          "name": "D4",
          "ticks": 26976,
          "time": 51.717769,
          "velocity": 0.7874015748031497
        },
        {
          "duration": 0.18404900000000168,
          "durationTicks": 96,
          "midi": 55,
          "name": "G3",
          "ticks": 26976,
          "time": 51.717769,
          "velocity": 0.905511811023622
        },
        {
          "duration": 0.18404900000000168,
          "durationTicks": 96,
          "midi": 47,
          "name": "B2",
          "ticks": 27072,
          "time": 51.901818,
          "velocity": 0.905511811023622
        },
        {
          "duration": 0.18404900000000168,
          "durationTicks": 96,
          "midi": 55,
          "name": "G3",
          "ticks": 27072,
          "time": 51.901818,
          "velocity": 0.7874015748031497
        },
        {
          "duration": 0.18404900000000168,
          "durationTicks": 96,
          "midi": 62,
          "name": "D4",
          "ticks": 27072,
          "time": 51.901818,
          "velocity": 0.7874015748031497
        },
        {
          "duration": 0.18404900000000168,
          "durationTicks": 96,
          "midi": 67,
          "name": "G4",
          "ticks": 27072,
          "time": 51.901818,
          "velocity": 0.905511811023622
        },
        {
          "duration": 0.18404899999999458,
          "durationTicks": 96,
          "midi": 62,
          "name": "D4",
          "ticks": 27168,
          "time": 52.085867,
          "velocity": 0.6220472440944882
        },
        {
          "duration": 0.18404899999999458,
          "durationTicks": 96,
          "midi": 50,
          "name": "D3",
          "ticks": 27168,
          "time": 52.085867,
          "velocity": 0.6220472440944882
        },
        {
          "duration": 0.18404899999999458,
          "durationTicks": 96,
          "midi": 55,
          "name": "G3",
          "ticks": 27168,
          "time": 52.085867,
          "velocity": 0.7874015748031497
        },
        {
          "duration": 0.18404899999999458,
          "durationTicks": 96,
          "midi": 47,
          "name": "B2",
          "ticks": 27168,
          "time": 52.085867,
          "velocity": 0.6929133858267716
        },
        {
          "duration": 0.18404900000000168,
          "durationTicks": 96,
          "midi": 55,
          "name": "G3",
          "ticks": 27264,
          "time": 52.269915999999995,
          "velocity": 0.6929133858267716
        },
        {
          "duration": 0.18596617708333696,
          "durationTicks": 97,
          "midi": 47,
          "name": "B2",
          "ticks": 27264,
          "time": 52.269915999999995,
          "velocity": 0.6929133858267716
        },
        {
          "duration": 0.18404900000000168,
          "durationTicks": 96,
          "midi": 43,
          "name": "G2",
          "ticks": 27264,
          "time": 52.269915999999995,
          "velocity": 0.6220472440944882
        },
        {
          "duration": 0.18404900000000168,
          "durationTicks": 96,
          "midi": 50,
          "name": "D3",
          "ticks": 27264,
          "time": 52.269915999999995,
          "velocity": 0.5669291338582677
        },
        {
          "duration": 0.18404900000000168,
          "durationTicks": 96,
          "midi": 47,
          "name": "B2",
          "ticks": 27360,
          "time": 52.453965,
          "velocity": 0.7874015748031497
        },
        {
          "duration": 0.18404900000000168,
          "durationTicks": 96,
          "midi": 55,
          "name": "G3",
          "ticks": 27360,
          "time": 52.453965,
          "velocity": 0.6929133858267716
        },
        {
          "duration": 0.18404900000000168,
          "durationTicks": 96,
          "midi": 50,
          "name": "D3",
          "ticks": 27360,
          "time": 52.453965,
          "velocity": 0.6929133858267716
        },
        {
          "duration": 0.18404900000000168,
          "durationTicks": 96,
          "midi": 50,
          "name": "D3",
          "ticks": 27456,
          "time": 52.638014,
          "velocity": 0.7874015748031497
        },
        {
          "duration": 0.18404900000000168,
          "durationTicks": 96,
          "midi": 55,
          "name": "G3",
          "ticks": 27456,
          "time": 52.638014,
          "velocity": 0.905511811023622
        },
        {
          "duration": 0.18404900000000168,
          "durationTicks": 96,
          "midi": 62,
          "name": "D4",
          "ticks": 27456,
          "time": 52.638014,
          "velocity": 0.6929133858267716
        },
        {
          "duration": 0.18404899999999458,
          "durationTicks": 96,
          "midi": 55,
          "name": "G3",
          "ticks": 27552,
          "time": 52.822063,
          "velocity": 0.7874015748031497
        },
        {
          "duration": 0.18404899999999458,
          "durationTicks": 96,
          "midi": 50,
          "name": "D3",
          "ticks": 27552,
          "time": 52.822063,
          "velocity": 0.6929133858267716
        },
        {
          "duration": 0.18404900000000168,
          "durationTicks": 96,
          "midi": 50,
          "name": "D3",
          "ticks": 27648,
          "time": 53.006111999999995,
          "velocity": 0.7874015748031497
        },
        {
          "duration": 0.18596617708333696,
          "durationTicks": 97,
          "midi": 57,
          "name": "A3",
          "ticks": 27648,
          "time": 53.006111999999995,
          "velocity": 0.4645669291338583
        },
        {
          "duration": 0.18404900000000168,
          "durationTicks": 96,
          "midi": 62,
          "name": "D4",
          "ticks": 27648,
          "time": 53.006111999999995,
          "velocity": 0.5669291338582677
        },
        {
          "duration": 0.18404900000000168,
          "durationTicks": 96,
          "midi": 66,
          "name": "F#4",
          "ticks": 27648,
          "time": 53.006111999999995,
          "velocity": 0.5826771653543307
        },
        {
          "duration": 0.18404900000000168,
          "durationTicks": 96,
          "midi": 62,
          "name": "D4",
          "ticks": 27744,
          "time": 53.190160999999996,
          "velocity": 0.7874015748031497
        },
        {
          "duration": 0.18404900000000168,
          "durationTicks": 96,
          "midi": 57,
          "name": "A3",
          "ticks": 27744,
          "time": 53.190160999999996,
          "velocity": 0.49606299212598426
        },
        {
          "duration": 0.18404900000000168,
          "durationTicks": 96,
          "midi": 50,
          "name": "D3",
          "ticks": 27840,
          "time": 53.37421,
          "velocity": 0.905511811023622
        },
        {
          "duration": 0.18596617708333696,
          "durationTicks": 97,
          "midi": 57,
          "name": "A3",
          "ticks": 27840,
          "time": 53.37421,
          "velocity": 0.905511811023622
        },
        {
          "duration": 0.18596617708333696,
          "durationTicks": 97,
          "midi": 62,
          "name": "D4",
          "ticks": 27840,
          "time": 53.37421,
          "velocity": 0.905511811023622
        },
        {
          "duration": 0.18404900000000168,
          "durationTicks": 96,
          "midi": 66,
          "name": "F#4",
          "ticks": 27840,
          "time": 53.37421,
          "velocity": 1
        },
        {
          "duration": 0.18404899999999458,
          "durationTicks": 96,
          "midi": 57,
          "name": "A3",
          "ticks": 27936,
          "time": 53.558259,
          "velocity": 0.6220472440944882
        },
        {
          "duration": 0.18404899999999458,
          "durationTicks": 96,
          "midi": 62,
          "name": "D4",
          "ticks": 27936,
          "time": 53.558259,
          "velocity": 0.7874015748031497
        },
        {
          "duration": 0.18404900000000168,
          "durationTicks": 96,
          "midi": 50,
          "name": "D3",
          "ticks": 28032,
          "time": 53.742307999999994,
          "velocity": 0.7874015748031497
        },
        {
          "duration": 0.18404900000000168,
          "durationTicks": 96,
          "midi": 57,
          "name": "A3",
          "ticks": 28032,
          "time": 53.742307999999994,
          "velocity": 0.5669291338582677
        },
        {
          "duration": 0.18596617708333696,
          "durationTicks": 97,
          "midi": 62,
          "name": "D4",
          "ticks": 28032,
          "time": 53.742307999999994,
          "velocity": 0.7874015748031497
        },
        {
          "duration": 0.18404900000000168,
          "durationTicks": 96,
          "midi": 57,
          "name": "A3",
          "ticks": 28128,
          "time": 53.926356999999996,
          "velocity": 0.5669291338582677
        },
        {
          "duration": 0.18404900000000168,
          "durationTicks": 96,
          "midi": 62,
          "name": "D4",
          "ticks": 28128,
          "time": 53.926356999999996,
          "velocity": 0.6929133858267716
        },
        {
          "duration": 0.18596617708333696,
          "durationTicks": 97,
          "midi": 57,
          "name": "A3",
          "ticks": 28224,
          "time": 54.110406,
          "velocity": 0.7874015748031497
        },
        {
          "duration": 0.18596617708333696,
          "durationTicks": 97,
          "midi": 62,
          "name": "D4",
          "ticks": 28224,
          "time": 54.110406,
          "velocity": 0.7874015748031497
        },
        {
          "duration": 0.18404900000000168,
          "durationTicks": 96,
          "midi": 50,
          "name": "D3",
          "ticks": 28224,
          "time": 54.110406,
          "velocity": 0.7874015748031497
        },
        {
          "duration": 0.18404900000000168,
          "durationTicks": 96,
          "midi": 66,
          "name": "F#4",
          "ticks": 28224,
          "time": 54.110406,
          "velocity": 0.8110236220472441
        },
        {
          "duration": 0.18404899999999458,
          "durationTicks": 96,
          "midi": 57,
          "name": "A3",
          "ticks": 28320,
          "time": 54.294455,
          "velocity": 0.5669291338582677
        },
        {
          "duration": 0.18596617708333696,
          "durationTicks": 97,
          "midi": 62,
          "name": "D4",
          "ticks": 28320,
          "time": 54.294455,
          "velocity": 0.7874015748031497
        },
        {
          "duration": 0.18404900000000168,
          "durationTicks": 96,
          "midi": 43,
          "name": "G2",
          "ticks": 28416,
          "time": 54.478503999999994,
          "velocity": 0.7874015748031497
        },
        {
          "duration": 0.18404900000000168,
          "durationTicks": 96,
          "midi": 55,
          "name": "G3",
          "ticks": 28416,
          "time": 54.478503999999994,
          "velocity": 0.6929133858267716
        },
        {
          "duration": 0.18404900000000168,
          "durationTicks": 96,
          "midi": 47,
          "name": "B2",
          "ticks": 28416,
          "time": 54.478503999999994,
          "velocity": 0.905511811023622
        },
        {
          "duration": 0.18596617708333696,
          "durationTicks": 97,
          "midi": 62,
          "name": "D4",
          "ticks": 28416,
          "time": 54.478503999999994,
          "velocity": 0.7874015748031497
        },
        {
          "duration": 0.18404900000000168,
          "durationTicks": 96,
          "midi": 62,
          "name": "D4",
          "ticks": 28512,
          "time": 54.662552999999996,
          "velocity": 0.7874015748031497
        },
        {
          "duration": 0.18404900000000168,
          "durationTicks": 96,
          "midi": 55,
          "name": "G3",
          "ticks": 28512,
          "time": 54.662552999999996,
          "velocity": 0.6929133858267716
        },
        {
          "duration": 0.18404900000000168,
          "durationTicks": 96,
          "midi": 47,
          "name": "B2",
          "ticks": 28608,
          "time": 54.846602,
          "velocity": 0.6929133858267716
        },
        {
          "duration": 0.18404900000000168,
          "durationTicks": 96,
          "midi": 50,
          "name": "D3",
          "ticks": 28608,
          "time": 54.846602,
          "velocity": 0.905511811023622
        },
        {
          "duration": 0.18404900000000168,
          "durationTicks": 96,
          "midi": 67,
          "name": "G4",
          "ticks": 28608,
          "time": 54.846602,
          "velocity": 0.905511811023622
        },
        {
          "duration": 0.18404900000000168,
          "durationTicks": 96,
          "midi": 55,
          "name": "G3",
          "ticks": 28608,
          "time": 54.846602,
          "velocity": 0.7874015748031497
        },
        {
          "duration": 0.18404900000000168,
          "durationTicks": 96,
          "midi": 55,
          "name": "G3",
          "ticks": 28704,
          "time": 55.030651,
          "velocity": 0.6929133858267716
        },
        {
          "duration": 0.18404900000000168,
          "durationTicks": 96,
          "midi": 62,
          "name": "D4",
          "ticks": 28704,
          "time": 55.030651,
          "velocity": 0.7874015748031497
        },
        {
          "duration": 0.18404899999999458,
          "durationTicks": 96,
          "midi": 50,
          "name": "D3",
          "ticks": 28800,
          "time": 55.2147,
          "velocity": 0.6929133858267716
        },
        {
          "duration": 0.18404899999999458,
          "durationTicks": 96,
          "midi": 47,
          "name": "B2",
          "ticks": 28800,
          "time": 55.2147,
          "velocity": 0.6929133858267716
        },
        {
          "duration": 0.18596617708332985,
          "durationTicks": 97,
          "midi": 55,
          "name": "G3",
          "ticks": 28800,
          "time": 55.2147,
          "velocity": 0.6929133858267716
        },
        {
          "duration": 0.18404899999999458,
          "durationTicks": 96,
          "midi": 62,
          "name": "D4",
          "ticks": 28800,
          "time": 55.2147,
          "velocity": 0.905511811023622
        },
        {
          "duration": 0.18404899999999458,
          "durationTicks": 96,
          "midi": 43,
          "name": "G2",
          "ticks": 28800,
          "time": 55.2147,
          "velocity": 0.7874015748031497
        },
        {
          "duration": 0.18404900000000168,
          "durationTicks": 96,
          "midi": 62,
          "name": "D4",
          "ticks": 28896,
          "time": 55.398748999999995,
          "velocity": 0.905511811023622
        },
        {
          "duration": 0.18404900000000168,
          "durationTicks": 96,
          "midi": 55,
          "name": "G3",
          "ticks": 28896,
          "time": 55.398748999999995,
          "velocity": 0.6929133858267716
        },
        {
          "duration": 0.18404900000000168,
          "durationTicks": 96,
          "midi": 67,
          "name": "G4",
          "ticks": 28992,
          "time": 55.582798,
          "velocity": 0.7874015748031497
        },
        {
          "duration": 0.18404900000000168,
          "durationTicks": 96,
          "midi": 50,
          "name": "D3",
          "ticks": 28992,
          "time": 55.582798,
          "velocity": 0.6929133858267716
        },
        {
          "duration": 0.18596617708333696,
          "durationTicks": 97,
          "midi": 55,
          "name": "G3",
          "ticks": 28992,
          "time": 55.582798,
          "velocity": 0.7874015748031497
        },
        {
          "duration": 0.18404900000000168,
          "durationTicks": 96,
          "midi": 62,
          "name": "D4",
          "ticks": 28992,
          "time": 55.582798,
          "velocity": 0.6220472440944882
        },
        {
          "duration": 0.18404900000000168,
          "durationTicks": 96,
          "midi": 47,
          "name": "B2",
          "ticks": 28992,
          "time": 55.582798,
          "velocity": 0.6929133858267716
        },
        {
          "duration": 0.18404900000000168,
          "durationTicks": 96,
          "midi": 55,
          "name": "G3",
          "ticks": 29088,
          "time": 55.766847,
          "velocity": 0.7874015748031497
        },
        {
          "duration": 0.18404900000000168,
          "durationTicks": 96,
          "midi": 62,
          "name": "D4",
          "ticks": 29088,
          "time": 55.766847,
          "velocity": 0.7874015748031497
        },
        {
          "duration": 0.18404899999999458,
          "durationTicks": 96,
          "midi": 47,
          "name": "B2",
          "ticks": 29184,
          "time": 55.950896,
          "velocity": 0.7874015748031497
        },
        {
          "duration": 0.18596617708333696,
          "durationTicks": 97,
          "midi": 62,
          "name": "D4",
          "ticks": 29184,
          "time": 55.950896,
          "velocity": 1
        },
        {
          "duration": 0.18596617708333696,
          "durationTicks": 97,
          "midi": 55,
          "name": "G3",
          "ticks": 29184,
          "time": 55.950896,
          "velocity": 0.7874015748031497
        },
        {
          "duration": 0.18404899999999458,
          "durationTicks": 96,
          "midi": 43,
          "name": "G2",
          "ticks": 29184,
          "time": 55.950896,
          "velocity": 0.905511811023622
        },
        {
          "duration": 0.18404900000000168,
          "durationTicks": 96,
          "midi": 55,
          "name": "G3",
          "ticks": 29280,
          "time": 56.134944999999995,
          "velocity": 0.6929133858267716
        },
        {
          "duration": 0.18404900000000168,
          "durationTicks": 96,
          "midi": 62,
          "name": "D4",
          "ticks": 29280,
          "time": 56.134944999999995,
          "velocity": 0.6929133858267716
        },
        {
          "duration": 0.18404900000000168,
          "durationTicks": 96,
          "midi": 50,
          "name": "D3",
          "ticks": 29376,
          "time": 56.318993999999996,
          "velocity": 0.6929133858267716
        },
        {
          "duration": 0.18404900000000168,
          "durationTicks": 96,
          "midi": 47,
          "name": "B2",
          "ticks": 29376,
          "time": 56.318993999999996,
          "velocity": 0.7874015748031497
        },
        {
          "duration": 0.18404900000000168,
          "durationTicks": 96,
          "midi": 55,
          "name": "G3",
          "ticks": 29376,
          "time": 56.318993999999996,
          "velocity": 0.7874015748031497
        },
        {
          "duration": 0.18404900000000168,
          "durationTicks": 96,
          "midi": 67,
          "name": "G4",
          "ticks": 29376,
          "time": 56.318993999999996,
          "velocity": 0.905511811023622
        },
        {
          "duration": 0.18404900000000168,
          "durationTicks": 96,
          "midi": 55,
          "name": "G3",
          "ticks": 29472,
          "time": 56.503043,
          "velocity": 0.6929133858267716
        },
        {
          "duration": 0.18404900000000168,
          "durationTicks": 96,
          "midi": 62,
          "name": "D4",
          "ticks": 29472,
          "time": 56.503043,
          "velocity": 0.905511811023622
        },
        {
          "duration": 0.18596617708333696,
          "durationTicks": 97,
          "midi": 55,
          "name": "G3",
          "ticks": 29568,
          "time": 56.687092,
          "velocity": 0.6929133858267716
        },
        {
          "duration": 0.18404899999999458,
          "durationTicks": 96,
          "midi": 47,
          "name": "B2",
          "ticks": 29568,
          "time": 56.687092,
          "velocity": 0.7874015748031497
        },
        {
          "duration": 0.18404899999999458,
          "durationTicks": 96,
          "midi": 62,
          "name": "D4",
          "ticks": 29568,
          "time": 56.687092,
          "velocity": 0.7874015748031497
        },
        {
          "duration": 0.18404899999999458,
          "durationTicks": 96,
          "midi": 43,
          "name": "G2",
          "ticks": 29568,
          "time": 56.687092,
          "velocity": 0.6929133858267716
        },
        {
          "duration": 0.18404900000000168,
          "durationTicks": 96,
          "midi": 62,
          "name": "D4",
          "ticks": 29664,
          "time": 56.871140999999994,
          "velocity": 0.7874015748031497
        },
        {
          "duration": 0.18404900000000168,
          "durationTicks": 96,
          "midi": 55,
          "name": "G3",
          "ticks": 29664,
          "time": 56.871140999999994,
          "velocity": 0.6220472440944882
        },
        {
          "duration": 0.18404900000000168,
          "durationTicks": 96,
          "midi": 55,
          "name": "G3",
          "ticks": 29760,
          "time": 57.055189999999996,
          "velocity": 0.7874015748031497
        },
        {
          "duration": 0.18596617708333696,
          "durationTicks": 97,
          "midi": 62,
          "name": "D4",
          "ticks": 29760,
          "time": 57.055189999999996,
          "velocity": 0.6220472440944882
        },
        {
          "duration": 0.18596617708333696,
          "durationTicks": 97,
          "midi": 50,
          "name": "D3",
          "ticks": 29760,
          "time": 57.055189999999996,
          "velocity": 0.7874015748031497
        },
        {
          "duration": 0.18404900000000168,
          "durationTicks": 96,
          "midi": 47,
          "name": "B2",
          "ticks": 29760,
          "time": 57.055189999999996,
          "velocity": 0.905511811023622
        },
        {
          "duration": 0.18404900000000168,
          "durationTicks": 96,
          "midi": 67,
          "name": "G4",
          "ticks": 29760,
          "time": 57.055189999999996,
          "velocity": 1
        },
        {
          "duration": 0.18404900000000168,
          "durationTicks": 96,
          "midi": 55,
          "name": "G3",
          "ticks": 29856,
          "time": 57.239239,
          "velocity": 0.7874015748031497
        },
        {
          "duration": 0.18596617708333696,
          "durationTicks": 97,
          "midi": 62,
          "name": "D4",
          "ticks": 29856,
          "time": 57.239239,
          "velocity": 0.6220472440944882
        },
        {
          "duration": 0.18404900000000168,
          "durationTicks": 96,
          "midi": 50,
          "name": "D3",
          "ticks": 29856,
          "time": 57.239239,
          "velocity": 1
        },
        {
          "duration": 0.18404899999999458,
          "durationTicks": 96,
          "midi": 47,
          "name": "B2",
          "ticks": 29952,
          "time": 57.423288,
          "velocity": 0.7874015748031497
        },
        {
          "duration": 0.18404899999999458,
          "durationTicks": 96,
          "midi": 55,
          "name": "G3",
          "ticks": 29952,
          "time": 57.423288,
          "velocity": 0.6220472440944882
        },
        {
          "duration": 0.18404899999999458,
          "durationTicks": 96,
          "midi": 43,
          "name": "G2",
          "ticks": 29952,
          "time": 57.423288,
          "velocity": 0.6929133858267716
        },
        {
          "duration": 0.18596617708333696,
          "durationTicks": 97,
          "midi": 62,
          "name": "D4",
          "ticks": 29952,
          "time": 57.423288,
          "velocity": 0.6220472440944882
        },
        {
          "duration": 0.18404900000000168,
          "durationTicks": 96,
          "midi": 55,
          "name": "G3",
          "ticks": 30048,
          "time": 57.607336999999994,
          "velocity": 0.905511811023622
        },
        {
          "duration": 0.18404900000000168,
          "durationTicks": 96,
          "midi": 62,
          "name": "D4",
          "ticks": 30048,
          "time": 57.607336999999994,
          "velocity": 0.7874015748031497
        },
        {
          "duration": 0.18596617708333696,
          "durationTicks": 97,
          "midi": 62,
          "name": "D4",
          "ticks": 30144,
          "time": 57.791385999999996,
          "velocity": 0.7874015748031497
        },
        {
          "duration": 0.18596617708333696,
          "durationTicks": 97,
          "midi": 47,
          "name": "B2",
          "ticks": 30144,
          "time": 57.791385999999996,
          "velocity": 0.905511811023622
        },
        {
          "duration": 0.18404900000000168,
          "durationTicks": 96,
          "midi": 67,
          "name": "G4",
          "ticks": 30144,
          "time": 57.791385999999996,
          "velocity": 0.905511811023622
        },
        {
          "duration": 0.18404900000000168,
          "durationTicks": 96,
          "midi": 55,
          "name": "G3",
          "ticks": 30144,
          "time": 57.791385999999996,
          "velocity": 0.7874015748031497
        },
        {
          "duration": 0.18404900000000168,
          "durationTicks": 96,
          "midi": 55,
          "name": "G3",
          "ticks": 30240,
          "time": 57.975435,
          "velocity": 0.7874015748031497
        },
        {
          "duration": 0.18404900000000168,
          "durationTicks": 96,
          "midi": 50,
          "name": "D3",
          "ticks": 30240,
          "time": 57.975435,
          "velocity": 0.6220472440944882
        },
        {
          "duration": 0.18596617708333696,
          "durationTicks": 97,
          "midi": 47,
          "name": "B2",
          "ticks": 30240,
          "time": 57.975435,
          "velocity": 0.6929133858267716
        },
        {
          "duration": 0.18404900000000168,
          "durationTicks": 96,
          "midi": 62,
          "name": "D4",
          "ticks": 30240,
          "time": 57.975435,
          "velocity": 0.6220472440944882
        },
        {
          "duration": 0.18404899999999458,
          "durationTicks": 96,
          "midi": 55,
          "name": "G3",
          "ticks": 30336,
          "time": 58.159484,
          "velocity": 0.6929133858267716
        },
        {
          "duration": 0.18596617708333696,
          "durationTicks": 97,
          "midi": 50,
          "name": "D3",
          "ticks": 30336,
          "time": 58.159484,
          "velocity": 0.5669291338582677
        },
        {
          "duration": 0.18596617708333696,
          "durationTicks": 97,
          "midi": 47,
          "name": "B2",
          "ticks": 30336,
          "time": 58.159484,
          "velocity": 0.6929133858267716
        },
        {
          "duration": 0.18404899999999458,
          "durationTicks": 96,
          "midi": 43,
          "name": "G2",
          "ticks": 30336,
          "time": 58.159484,
          "velocity": 0.6220472440944882
        },
        {
          "duration": 0.18404900000000168,
          "durationTicks": 96,
          "midi": 55,
          "name": "G3",
          "ticks": 30432,
          "time": 58.343532999999994,
          "velocity": 0.6929133858267716
        },
        {
          "duration": 0.18404900000000168,
          "durationTicks": 96,
          "midi": 47,
          "name": "B2",
          "ticks": 30432,
          "time": 58.343532999999994,
          "velocity": 0.7874015748031497
        },
        {
          "duration": 0.18404900000000168,
          "durationTicks": 96,
          "midi": 50,
          "name": "D3",
          "ticks": 30432,
          "time": 58.343532999999994,
          "velocity": 0.6929133858267716
        },
        {
          "duration": 0.18404900000000168,
          "durationTicks": 96,
          "midi": 62,
          "name": "D4",
          "ticks": 30528,
          "time": 58.527581999999995,
          "velocity": 0.6929133858267716
        },
        {
          "duration": 0.18404900000000168,
          "durationTicks": 96,
          "midi": 50,
          "name": "D3",
          "ticks": 30528,
          "time": 58.527581999999995,
          "velocity": 0.7874015748031497
        },
        {
          "duration": 0.18596617708333696,
          "durationTicks": 97,
          "midi": 55,
          "name": "G3",
          "ticks": 30528,
          "time": 58.527581999999995,
          "velocity": 0.905511811023622
        },
        {
          "duration": 0.18404900000000168,
          "durationTicks": 96,
          "midi": 50,
          "name": "D3",
          "ticks": 30624,
          "time": 58.711631,
          "velocity": 0.6929133858267716
        },
        {
          "duration": 0.18404900000000168,
          "durationTicks": 96,
          "midi": 55,
          "name": "G3",
          "ticks": 30624,
          "time": 58.711631,
          "velocity": 0.7874015748031497
        },
        {
          "duration": 0.18596617708333696,
          "durationTicks": 97,
          "midi": 62,
          "name": "D4",
          "ticks": 30720,
          "time": 58.89568,
          "velocity": 0.5669291338582677
        },
        {
          "duration": 0.18404900000000168,
          "durationTicks": 96,
          "midi": 57,
          "name": "A3",
          "ticks": 30720,
          "time": 58.89568,
          "velocity": 0.4645669291338583
        },
        {
          "duration": 0.18404900000000168,
          "durationTicks": 96,
          "midi": 50,
          "name": "D3",
          "ticks": 30720,
          "time": 58.89568,
          "velocity": 0.7874015748031497
        },
        {
          "duration": 0.18404900000000168,
          "durationTicks": 96,
          "midi": 66,
          "name": "F#4",
          "ticks": 30720,
          "time": 58.89568,
          "velocity": 0.5826771653543307
        },
        {
          "duration": 0.18404899999999458,
          "durationTicks": 96,
          "midi": 57,
          "name": "A3",
          "ticks": 30816,
          "time": 59.079729,
          "velocity": 0.49606299212598426
        },
        {
          "duration": 0.18404899999999458,
          "durationTicks": 96,
          "midi": 62,
          "name": "D4",
          "ticks": 30816,
          "time": 59.079729,
          "velocity": 0.7874015748031497
        },
        {
          "duration": 0.18596617708333696,
          "durationTicks": 97,
          "midi": 62,
          "name": "D4",
          "ticks": 30912,
          "time": 59.263777999999995,
          "velocity": 0.905511811023622
        },
        {
          "duration": 0.18404900000000168,
          "durationTicks": 96,
          "midi": 57,
          "name": "A3",
          "ticks": 30912,
          "time": 59.263777999999995,
          "velocity": 0.905511811023622
        },
        {
          "duration": 0.18404900000000168,
          "durationTicks": 96,
          "midi": 66,
          "name": "F#4",
          "ticks": 30912,
          "time": 59.263777999999995,
          "velocity": 1
        },
        {
          "duration": 0.18404900000000168,
          "durationTicks": 96,
          "midi": 50,
          "name": "D3",
          "ticks": 30912,
          "time": 59.263777999999995,
          "velocity": 0.905511811023622
        },
        {
          "duration": 0.18404900000000168,
          "durationTicks": 96,
          "midi": 62,
          "name": "D4",
          "ticks": 31008,
          "time": 59.447827,
          "velocity": 0.7874015748031497
        },
        {
          "duration": 0.18404900000000168,
          "durationTicks": 96,
          "midi": 57,
          "name": "A3",
          "ticks": 31008,
          "time": 59.447827,
          "velocity": 0.6220472440944882
        },
        {
          "duration": 0.18596617708333696,
          "durationTicks": 97,
          "midi": 57,
          "name": "A3",
          "ticks": 31104,
          "time": 59.631876,
          "velocity": 0.5669291338582677
        },
        {
          "duration": 0.18404900000000168,
          "durationTicks": 96,
          "midi": 62,
          "name": "D4",
          "ticks": 31104,
          "time": 59.631876,
          "velocity": 0.7874015748031497
        },
        {
          "duration": 0.18404900000000168,
          "durationTicks": 96,
          "midi": 50,
          "name": "D3",
          "ticks": 31104,
          "time": 59.631876,
          "velocity": 0.7874015748031497
        },
        {
          "duration": 0.18404899999999458,
          "durationTicks": 96,
          "midi": 62,
          "name": "D4",
          "ticks": 31200,
          "time": 59.815925,
          "velocity": 0.6929133858267716
        },
        {
          "duration": 0.18404899999999458,
          "durationTicks": 96,
          "midi": 57,
          "name": "A3",
          "ticks": 31200,
          "time": 59.815925,
          "velocity": 0.5669291338582677
        },
        {
          "duration": 0.18404900000000168,
          "durationTicks": 96,
          "midi": 50,
          "name": "D3",
          "ticks": 31296,
          "time": 59.999973999999995,
          "velocity": 0.7874015748031497
        },
        {
          "duration": 0.18404900000000168,
          "durationTicks": 96,
          "midi": 57,
          "name": "A3",
          "ticks": 31296,
          "time": 59.999973999999995,
          "velocity": 0.7874015748031497
        },
        {
          "duration": 0.18404900000000168,
          "durationTicks": 96,
          "midi": 66,
          "name": "F#4",
          "ticks": 31296,
          "time": 59.999973999999995,
          "velocity": 0.8110236220472441
        },
        {
          "duration": 0.18404900000000168,
          "durationTicks": 96,
          "midi": 62,
          "name": "D4",
          "ticks": 31296,
          "time": 59.999973999999995,
          "velocity": 0.7874015748031497
        },
        {
          "duration": 0.18404900000000168,
          "durationTicks": 96,
          "midi": 57,
          "name": "A3",
          "ticks": 31392,
          "time": 60.184022999999996,
          "velocity": 0.5669291338582677
        },
        {
          "duration": 0.18596617708333696,
          "durationTicks": 97,
          "midi": 62,
          "name": "D4",
          "ticks": 31392,
          "time": 60.184022999999996,
          "velocity": 0.7874015748031497
        },
        {
          "duration": 0.18596617708333696,
          "durationTicks": 97,
          "midi": 55,
          "name": "G3",
          "ticks": 31488,
          "time": 60.368072,
          "velocity": 0.6929133858267716
        },
        {
          "duration": 0.18404900000000168,
          "durationTicks": 96,
          "midi": 43,
          "name": "G2",
          "ticks": 31488,
          "time": 60.368072,
          "velocity": 0.7874015748031497
        },
        {
          "duration": 0.18404900000000168,
          "durationTicks": 96,
          "midi": 47,
          "name": "B2",
          "ticks": 31488,
          "time": 60.368072,
          "velocity": 0.905511811023622
        },
        {
          "duration": 0.18404900000000168,
          "durationTicks": 96,
          "midi": 62,
          "name": "D4",
          "ticks": 31488,
          "time": 60.368072,
          "velocity": 0.7874015748031497
        },
        {
          "duration": 0.18404899999999458,
          "durationTicks": 96,
          "midi": 62,
          "name": "D4",
          "ticks": 31584,
          "time": 60.552121,
          "velocity": 0.7874015748031497
        },
        {
          "duration": 0.18404899999999458,
          "durationTicks": 96,
          "midi": 55,
          "name": "G3",
          "ticks": 31584,
          "time": 60.552121,
          "velocity": 0.6929133858267716
        },
        {
          "duration": 0.18404900000000168,
          "durationTicks": 96,
          "midi": 47,
          "name": "B2",
          "ticks": 31680,
          "time": 60.736169999999994,
          "velocity": 0.6929133858267716
        },
        {
          "duration": 0.18404900000000168,
          "durationTicks": 96,
          "midi": 50,
          "name": "D3",
          "ticks": 31680,
          "time": 60.736169999999994,
          "velocity": 0.905511811023622
        },
        {
          "duration": 0.18404900000000168,
          "durationTicks": 96,
          "midi": 67,
          "name": "G4",
          "ticks": 31680,
          "time": 60.736169999999994,
          "velocity": 0.905511811023622
        },
        {
          "duration": 0.18404900000000168,
          "durationTicks": 96,
          "midi": 55,
          "name": "G3",
          "ticks": 31680,
          "time": 60.736169999999994,
          "velocity": 0.7874015748031497
        },
        {
          "duration": 0.18404900000000168,
          "durationTicks": 96,
          "midi": 55,
          "name": "G3",
          "ticks": 31776,
          "time": 60.920218999999996,
          "velocity": 0.6929133858267716
        },
        {
          "duration": 0.18404900000000168,
          "durationTicks": 96,
          "midi": 62,
          "name": "D4",
          "ticks": 31776,
          "time": 60.920218999999996,
          "velocity": 0.7874015748031497
        },
        {
          "duration": 0.18404900000000168,
          "durationTicks": 96,
          "midi": 43,
          "name": "G2",
          "ticks": 31872,
          "time": 61.104268,
          "velocity": 0.7874015748031497
        },
        {
          "duration": 0.18404900000000168,
          "durationTicks": 96,
          "midi": 62,
          "name": "D4",
          "ticks": 31872,
          "time": 61.104268,
          "velocity": 0.905511811023622
        },
        {
          "duration": 0.18404900000000168,
          "durationTicks": 96,
          "midi": 55,
          "name": "G3",
          "ticks": 31872,
          "time": 61.104268,
          "velocity": 0.6929133858267716
        },
        {
          "duration": 0.18404900000000168,
          "durationTicks": 96,
          "midi": 47,
          "name": "B2",
          "ticks": 31872,
          "time": 61.104268,
          "velocity": 0.6929133858267716
        },
        {
          "duration": 0.18404900000000168,
          "durationTicks": 96,
          "midi": 50,
          "name": "D3",
          "ticks": 31872,
          "time": 61.104268,
          "velocity": 0.6929133858267716
        },
        {
          "duration": 0.18404899999999458,
          "durationTicks": 96,
          "midi": 55,
          "name": "G3",
          "ticks": 31968,
          "time": 61.288317,
          "velocity": 0.6929133858267716
        },
        {
          "duration": 0.18404899999999458,
          "durationTicks": 96,
          "midi": 62,
          "name": "D4",
          "ticks": 31968,
          "time": 61.288317,
          "velocity": 0.905511811023622
        },
        {
          "duration": 0.18404900000000168,
          "durationTicks": 96,
          "midi": 55,
          "name": "G3",
          "ticks": 32064,
          "time": 61.472365999999994,
          "velocity": 0.7874015748031497
        },
        {
          "duration": 0.18404900000000168,
          "durationTicks": 96,
          "midi": 67,
          "name": "G4",
          "ticks": 32064,
          "time": 61.472365999999994,
          "velocity": 0.7874015748031497
        },
        {
          "duration": 0.18404900000000168,
          "durationTicks": 96,
          "midi": 50,
          "name": "D3",
          "ticks": 32064,
          "time": 61.472365999999994,
          "velocity": 0.6929133858267716
        },
        {
          "duration": 0.18404900000000168,
          "durationTicks": 96,
          "midi": 62,
          "name": "D4",
          "ticks": 32064,
          "time": 61.472365999999994,
          "velocity": 0.6220472440944882
        },
        {
          "duration": 0.18404900000000168,
          "durationTicks": 96,
          "midi": 47,
          "name": "B2",
          "ticks": 32064,
          "time": 61.472365999999994,
          "velocity": 0.6929133858267716
        },
        {
          "duration": 0.18404900000000168,
          "durationTicks": 96,
          "midi": 62,
          "name": "D4",
          "ticks": 32160,
          "time": 61.656414999999996,
          "velocity": 0.7874015748031497
        },
        {
          "duration": 0.18404900000000168,
          "durationTicks": 96,
          "midi": 55,
          "name": "G3",
          "ticks": 32160,
          "time": 61.656414999999996,
          "velocity": 0.7874015748031497
        },
        {
          "duration": 0.18404900000000168,
          "durationTicks": 96,
          "midi": 62,
          "name": "D4",
          "ticks": 32256,
          "time": 61.840464,
          "velocity": 1
        },
        {
          "duration": 0.18404900000000168,
          "durationTicks": 96,
          "midi": 43,
          "name": "G2",
          "ticks": 32256,
          "time": 61.840464,
          "velocity": 0.905511811023622
        },
        {
          "duration": 0.18404900000000168,
          "durationTicks": 96,
          "midi": 47,
          "name": "B2",
          "ticks": 32256,
          "time": 61.840464,
          "velocity": 0.7874015748031497
        },
        {
          "duration": 0.18404900000000168,
          "durationTicks": 96,
          "midi": 55,
          "name": "G3",
          "ticks": 32256,
          "time": 61.840464,
          "velocity": 0.7874015748031497
        },
        {
          "duration": 0.18404899999999458,
          "durationTicks": 96,
          "midi": 62,
          "name": "D4",
          "ticks": 32352,
          "time": 62.024513,
          "velocity": 0.6929133858267716
        },
        {
          "duration": 0.18404899999999458,
          "durationTicks": 96,
          "midi": 55,
          "name": "G3",
          "ticks": 32352,
          "time": 62.024513,
          "velocity": 0.6929133858267716
        },
        {
          "duration": 0.18404900000000168,
          "durationTicks": 96,
          "midi": 50,
          "name": "D3",
          "ticks": 32448,
          "time": 62.20856199999999,
          "velocity": 0.6929133858267716
        },
        {
          "duration": 0.18404900000000168,
          "durationTicks": 96,
          "midi": 47,
          "name": "B2",
          "ticks": 32448,
          "time": 62.20856199999999,
          "velocity": 0.7874015748031497
        },
        {
          "duration": 0.18404900000000168,
          "durationTicks": 96,
          "midi": 55,
          "name": "G3",
          "ticks": 32448,
          "time": 62.20856199999999,
          "velocity": 0.7874015748031497
        },
        {
          "duration": 0.18404900000000168,
          "durationTicks": 96,
          "midi": 67,
          "name": "G4",
          "ticks": 32448,
          "time": 62.20856199999999,
          "velocity": 0.905511811023622
        },
        {
          "duration": 0.18596617708333696,
          "durationTicks": 97,
          "midi": 62,
          "name": "D4",
          "ticks": 32544,
          "time": 62.392610999999995,
          "velocity": 0.905511811023622
        },
        {
          "duration": 0.18404900000000168,
          "durationTicks": 96,
          "midi": 55,
          "name": "G3",
          "ticks": 32544,
          "time": 62.392610999999995,
          "velocity": 0.6929133858267716
        },
        {
          "duration": 0.18404900000000168,
          "durationTicks": 96,
          "midi": 55,
          "name": "G3",
          "ticks": 32640,
          "time": 62.57666,
          "velocity": 0.6929133858267716
        },
        {
          "duration": 0.18404900000000168,
          "durationTicks": 96,
          "midi": 47,
          "name": "B2",
          "ticks": 32640,
          "time": 62.57666,
          "velocity": 0.7874015748031497
        },
        {
          "duration": 0.18404900000000168,
          "durationTicks": 96,
          "midi": 43,
          "name": "G2",
          "ticks": 32640,
          "time": 62.57666,
          "velocity": 0.6929133858267716
        },
        {
          "duration": 0.18404900000000168,
          "durationTicks": 96,
          "midi": 62,
          "name": "D4",
          "ticks": 32640,
          "time": 62.57666,
          "velocity": 0.7874015748031497
        },
        {
          "duration": 0.18404900000000168,
          "durationTicks": 96,
          "midi": 62,
          "name": "D4",
          "ticks": 32736,
          "time": 62.760709,
          "velocity": 0.7874015748031497
        },
        {
          "duration": 0.18596617708333696,
          "durationTicks": 97,
          "midi": 55,
          "name": "G3",
          "ticks": 32736,
          "time": 62.760709,
          "velocity": 0.6220472440944882
        },
        {
          "duration": 0.18404899999999458,
          "durationTicks": 96,
          "midi": 62,
          "name": "D4",
          "ticks": 32832,
          "time": 62.944758,
          "velocity": 0.6220472440944882
        },
        {
          "duration": 0.18404899999999458,
          "durationTicks": 96,
          "midi": 67,
          "name": "G4",
          "ticks": 32832,
          "time": 62.944758,
          "velocity": 1
        },
        {
          "duration": 0.18596617708332985,
          "durationTicks": 97,
          "midi": 50,
          "name": "D3",
          "ticks": 32832,
          "time": 62.944758,
          "velocity": 0.7874015748031497
        },
        {
          "duration": 0.18404899999999458,
          "durationTicks": 96,
          "midi": 47,
          "name": "B2",
          "ticks": 32832,
          "time": 62.944758,
          "velocity": 0.905511811023622
        },
        {
          "duration": 0.18404899999999458,
          "durationTicks": 96,
          "midi": 55,
          "name": "G3",
          "ticks": 32832,
          "time": 62.944758,
          "velocity": 0.7874015748031497
        },
        {
          "duration": 0.18404900000000168,
          "durationTicks": 96,
          "midi": 62,
          "name": "D4",
          "ticks": 32928,
          "time": 63.128806999999995,
          "velocity": 0.6220472440944882
        },
        {
          "duration": 0.18404900000000168,
          "durationTicks": 96,
          "midi": 55,
          "name": "G3",
          "ticks": 32928,
          "time": 63.128806999999995,
          "velocity": 0.7874015748031497
        },
        {
          "duration": 0.18404900000000168,
          "durationTicks": 96,
          "midi": 50,
          "name": "D3",
          "ticks": 32928,
          "time": 63.128806999999995,
          "velocity": 1
        },
        {
          "duration": 0.18596617708333696,
          "durationTicks": 97,
          "midi": 48,
          "name": "C3",
          "ticks": 33024,
          "time": 63.312856,
          "velocity": 0.6220472440944882
        },
        {
          "duration": 0.18404900000000168,
          "durationTicks": 96,
          "midi": 52,
          "name": "E3",
          "ticks": 33024,
          "time": 63.312856,
          "velocity": 0.6929133858267716
        },
        {
          "duration": 0.18404900000000168,
          "durationTicks": 96,
          "midi": 60,
          "name": "C4",
          "ticks": 33024,
          "time": 63.312856,
          "velocity": 0.5669291338582677
        },
        {
          "duration": 0.18404900000000168,
          "durationTicks": 96,
          "midi": 64,
          "name": "E4",
          "ticks": 33024,
          "time": 63.312856,
          "velocity": 0.49606299212598426
        },
        {
          "duration": 0.18596617708333696,
          "durationTicks": 97,
          "midi": 55,
          "name": "G3",
          "ticks": 33024,
          "time": 63.312856,
          "velocity": 0.49606299212598426
        },
        {
          "duration": 0.18404900000000168,
          "durationTicks": 96,
          "midi": 60,
          "name": "C4",
          "ticks": 33120,
          "time": 63.496905,
          "velocity": 0.6220472440944882
        },
        {
          "duration": 0.18404900000000168,
          "durationTicks": 96,
          "midi": 52,
          "name": "E3",
          "ticks": 33120,
          "time": 63.496905,
          "velocity": 0.6220472440944882
        },
        {
          "duration": 0.18596617708333696,
          "durationTicks": 97,
          "midi": 55,
          "name": "G3",
          "ticks": 33120,
          "time": 63.496905,
          "velocity": 0.49606299212598426
        },
        {
          "duration": 0.18404900000000168,
          "durationTicks": 96,
          "midi": 48,
          "name": "C3",
          "ticks": 33120,
          "time": 63.496905,
          "velocity": 0.6929133858267716
        },
        {
          "duration": 0.18404900000000168,
          "durationTicks": 96,
          "midi": 64,
          "name": "E4",
          "ticks": 33120,
          "time": 63.496905,
          "velocity": 0.5275590551181102
        },
        {
          "duration": 0.18404899999999458,
          "durationTicks": 96,
          "midi": 64,
          "name": "E4",
          "ticks": 33216,
          "time": 63.680954,
          "velocity": 0.7874015748031497
        },
        {
          "duration": 0.18404899999999458,
          "durationTicks": 96,
          "midi": 60,
          "name": "C4",
          "ticks": 33216,
          "time": 63.680954,
          "velocity": 0.7874015748031497
        },
        {
          "duration": 0.18404899999999458,
          "durationTicks": 96,
          "midi": 55,
          "name": "G3",
          "ticks": 33216,
          "time": 63.680954,
          "velocity": 0.6929133858267716
        },
        {
          "duration": 0.18404899999999458,
          "durationTicks": 96,
          "midi": 48,
          "name": "C3",
          "ticks": 33216,
          "time": 63.680954,
          "velocity": 0.7874015748031497
        },
        {
          "duration": 0.18404899999999458,
          "durationTicks": 96,
          "midi": 52,
          "name": "E3",
          "ticks": 33216,
          "time": 63.680954,
          "velocity": 0.7874015748031497
        },
        {
          "duration": 0.1840490000000088,
          "durationTicks": 96,
          "midi": 55,
          "name": "G3",
          "ticks": 33312,
          "time": 63.865002999999994,
          "velocity": 0.5275590551181102
        },
        {
          "duration": 0.1840490000000088,
          "durationTicks": 96,
          "midi": 48,
          "name": "C3",
          "ticks": 33312,
          "time": 63.865002999999994,
          "velocity": 0.6220472440944882
        },
        {
          "duration": 0.1840490000000088,
          "durationTicks": 96,
          "midi": 64,
          "name": "E4",
          "ticks": 33312,
          "time": 63.865002999999994,
          "velocity": 0.49606299212598426
        },
        {
          "duration": 0.1840490000000088,
          "durationTicks": 96,
          "midi": 60,
          "name": "C4",
          "ticks": 33312,
          "time": 63.865002999999994,
          "velocity": 0.6220472440944882
        },
        {
          "duration": 0.1840490000000088,
          "durationTicks": 96,
          "midi": 52,
          "name": "E3",
          "ticks": 33312,
          "time": 63.865002999999994,
          "velocity": 0.6220472440944882
        },
        {
          "duration": 0.18404899999998747,
          "durationTicks": 96,
          "midi": 55,
          "name": "G3",
          "ticks": 33408,
          "time": 64.049052,
          "velocity": 0.5275590551181102
        },
        {
          "duration": 0.18404899999998747,
          "durationTicks": 96,
          "midi": 64,
          "name": "E4",
          "ticks": 33408,
          "time": 64.049052,
          "velocity": 0.5275590551181102
        },
        {
          "duration": 0.18404899999998747,
          "durationTicks": 96,
          "midi": 48,
          "name": "C3",
          "ticks": 33408,
          "time": 64.049052,
          "velocity": 0.6929133858267716
        },
        {
          "duration": 0.18404899999998747,
          "durationTicks": 96,
          "midi": 52,
          "name": "E3",
          "ticks": 33408,
          "time": 64.049052,
          "velocity": 0.5669291338582677
        },
        {
          "duration": 0.18404899999998747,
          "durationTicks": 96,
          "midi": 60,
          "name": "C4",
          "ticks": 33408,
          "time": 64.049052,
          "velocity": 0.6220472440944882
        },
        {
          "duration": 0.18404900000000168,
          "durationTicks": 96,
          "midi": 48,
          "name": "C3",
          "ticks": 33504,
          "time": 64.23310099999999,
          "velocity": 0.7874015748031497
        },
        {
          "duration": 0.18404900000000168,
          "durationTicks": 96,
          "midi": 55,
          "name": "G3",
          "ticks": 33504,
          "time": 64.23310099999999,
          "velocity": 0.6220472440944882
        },
        {
          "duration": 0.18596617708334406,
          "durationTicks": 97,
          "midi": 60,
          "name": "C4",
          "ticks": 33504,
          "time": 64.23310099999999,
          "velocity": 0.6929133858267716
        },
        {
          "duration": 0.18404900000000168,
          "durationTicks": 96,
          "midi": 52,
          "name": "E3",
          "ticks": 33504,
          "time": 64.23310099999999,
          "velocity": 0.6929133858267716
        },
        {
          "duration": 0.18404900000000168,
          "durationTicks": 96,
          "midi": 64,
          "name": "E4",
          "ticks": 33504,
          "time": 64.23310099999999,
          "velocity": 0.6929133858267716
        },
        {
          "duration": 0.18404900000000168,
          "durationTicks": 96,
          "midi": 64,
          "name": "E4",
          "ticks": 33600,
          "time": 64.41714999999999,
          "velocity": 1
        },
        {
          "duration": 0.18596617708334406,
          "durationTicks": 97,
          "midi": 55,
          "name": "G3",
          "ticks": 33600,
          "time": 64.41714999999999,
          "velocity": 1
        },
        {
          "duration": 0.18596617708334406,
          "durationTicks": 97,
          "midi": 60,
          "name": "C4",
          "ticks": 33600,
          "time": 64.41714999999999,
          "velocity": 1
        },
        {
          "duration": 0.18596617708334406,
          "durationTicks": 97,
          "midi": 52,
          "name": "E3",
          "ticks": 33600,
          "time": 64.41714999999999,
          "velocity": 0.7874015748031497
        },
        {
          "duration": 0.18404900000000168,
          "durationTicks": 96,
          "midi": 48,
          "name": "C3",
          "ticks": 33600,
          "time": 64.41714999999999,
          "velocity": 0.905511811023622
        },
        {
          "duration": 0.18404900000000168,
          "durationTicks": 96,
          "midi": 48,
          "name": "C3",
          "ticks": 33696,
          "time": 64.601199,
          "velocity": 0.905511811023622
        },
        {
          "duration": 0.18404900000000168,
          "durationTicks": 96,
          "midi": 64,
          "name": "E4",
          "ticks": 33696,
          "time": 64.601199,
          "velocity": 0.6929133858267716
        },
        {
          "duration": 0.18596617708334406,
          "durationTicks": 97,
          "midi": 55,
          "name": "G3",
          "ticks": 33696,
          "time": 64.601199,
          "velocity": 0.6929133858267716
        },
        {
          "duration": 0.18404900000000168,
          "durationTicks": 96,
          "midi": 60,
          "name": "C4",
          "ticks": 33696,
          "time": 64.601199,
          "velocity": 0.7874015748031497
        },
        {
          "duration": 0.18404900000000168,
          "durationTicks": 96,
          "midi": 52,
          "name": "E3",
          "ticks": 33696,
          "time": 64.601199,
          "velocity": 0.905511811023622
        },
        {
          "duration": 0.18404900000000168,
          "durationTicks": 96,
          "midi": 50,
          "name": "D3",
          "ticks": 33792,
          "time": 64.785248,
          "velocity": 0.6929133858267716
        },
        {
          "duration": 0.18404900000000168,
          "durationTicks": 96,
          "midi": 55,
          "name": "G3",
          "ticks": 33792,
          "time": 64.785248,
          "velocity": 0.5669291338582677
        },
        {
          "duration": 0.18404900000000168,
          "durationTicks": 96,
          "midi": 43,
          "name": "G2",
          "ticks": 33792,
          "time": 64.785248,
          "velocity": 0.6220472440944882
        },
        {
          "duration": 0.18404900000000168,
          "durationTicks": 96,
          "midi": 62,
          "name": "D4",
          "ticks": 33792,
          "time": 64.785248,
          "velocity": 0.49606299212598426
        },
        {
          "duration": 0.18404900000000168,
          "durationTicks": 96,
          "midi": 47,
          "name": "B2",
          "ticks": 33792,
          "time": 64.785248,
          "velocity": 0.6929133858267716
        },
        {
          "duration": 0.18404900000000168,
          "durationTicks": 96,
          "midi": 62,
          "name": "D4",
          "ticks": 33888,
          "time": 64.969297,
          "velocity": 0.6929133858267716
        },
        {
          "duration": 0.18404900000000168,
          "durationTicks": 96,
          "midi": 43,
          "name": "G2",
          "ticks": 33888,
          "time": 64.969297,
          "velocity": 0.905511811023622
        },
        {
          "duration": 0.18404900000000168,
          "durationTicks": 96,
          "midi": 47,
          "name": "B2",
          "ticks": 33888,
          "time": 64.969297,
          "velocity": 0.7874015748031497
        },
        {
          "duration": 0.18596617708332985,
          "durationTicks": 97,
          "midi": 55,
          "name": "G3",
          "ticks": 33888,
          "time": 64.969297,
          "velocity": 0.6929133858267716
        },
        {
          "duration": 0.18404900000000168,
          "durationTicks": 96,
          "midi": 50,
          "name": "D3",
          "ticks": 33888,
          "time": 64.969297,
          "velocity": 0.6929133858267716
        },
        {
          "duration": 0.18404900000000168,
          "durationTicks": 96,
          "midi": 62,
          "name": "D4",
          "ticks": 33984,
          "time": 65.153346,
          "velocity": 0.6929133858267716
        },
        {
          "duration": 0.18404900000000168,
          "durationTicks": 96,
          "midi": 67,
          "name": "G4",
          "ticks": 33984,
          "time": 65.153346,
          "velocity": 0.7874015748031497
        },
        {
          "duration": 0.18404900000000168,
          "durationTicks": 96,
          "midi": 47,
          "name": "B2",
          "ticks": 33984,
          "time": 65.153346,
          "velocity": 0.905511811023622
        },
        {
          "duration": 0.18404900000000168,
          "durationTicks": 96,
          "midi": 55,
          "name": "G3",
          "ticks": 33984,
          "time": 65.153346,
          "velocity": 0.7874015748031497
        },
        {
          "duration": 0.18404900000000168,
          "durationTicks": 96,
          "midi": 55,
          "name": "G3",
          "ticks": 34080,
          "time": 65.337395,
          "velocity": 0.6220472440944882
        },
        {
          "duration": 0.18404900000000168,
          "durationTicks": 96,
          "midi": 62,
          "name": "D4",
          "ticks": 34080,
          "time": 65.337395,
          "velocity": 0.6929133858267716
        },
        {
          "duration": 0.18404900000000168,
          "durationTicks": 96,
          "midi": 50,
          "name": "D3",
          "ticks": 34080,
          "time": 65.337395,
          "velocity": 0.6929133858267716
        },
        {
          "duration": 0.18596617708332985,
          "durationTicks": 97,
          "midi": 47,
          "name": "B2",
          "ticks": 34176,
          "time": 65.521444,
          "velocity": 0.5669291338582677
        },
        {
          "duration": 0.18404899999998747,
          "durationTicks": 96,
          "midi": 50,
          "name": "D3",
          "ticks": 34176,
          "time": 65.521444,
          "velocity": 0.7874015748031497
        },
        {
          "duration": 0.18404899999998747,
          "durationTicks": 96,
          "midi": 62,
          "name": "D4",
          "ticks": 34176,
          "time": 65.521444,
          "velocity": 0.6929133858267716
        },
        {
          "duration": 0.18404899999998747,
          "durationTicks": 96,
          "midi": 43,
          "name": "G2",
          "ticks": 34176,
          "time": 65.521444,
          "velocity": 0.6929133858267716
        },
        {
          "duration": 0.18404899999998747,
          "durationTicks": 96,
          "midi": 55,
          "name": "G3",
          "ticks": 34176,
          "time": 65.521444,
          "velocity": 0.7874015748031497
        },
        {
          "duration": 0.18404900000000168,
          "durationTicks": 96,
          "midi": 43,
          "name": "G2",
          "ticks": 34272,
          "time": 65.70549299999999,
          "velocity": 0.7874015748031497
        },
        {
          "duration": 0.18404900000000168,
          "durationTicks": 96,
          "midi": 62,
          "name": "D4",
          "ticks": 34272,
          "time": 65.70549299999999,
          "velocity": 0.905511811023622
        },
        {
          "duration": 0.18596617708334406,
          "durationTicks": 97,
          "midi": 55,
          "name": "G3",
          "ticks": 34272,
          "time": 65.70549299999999,
          "velocity": 0.6929133858267716
        },
        {
          "duration": 0.18404900000000168,
          "durationTicks": 96,
          "midi": 50,
          "name": "D3",
          "ticks": 34272,
          "time": 65.70549299999999,
          "velocity": 0.6929133858267716
        },
        {
          "duration": 0.18404900000000168,
          "durationTicks": 96,
          "midi": 47,
          "name": "B2",
          "ticks": 34272,
          "time": 65.70549299999999,
          "velocity": 0.6929133858267716
        },
        {
          "duration": 0.18596617708334406,
          "durationTicks": 97,
          "midi": 62,
          "name": "D4",
          "ticks": 34368,
          "time": 65.88954199999999,
          "velocity": 0.905511811023622
        },
        {
          "duration": 0.18404900000000168,
          "durationTicks": 96,
          "midi": 50,
          "name": "D3",
          "ticks": 34368,
          "time": 65.88954199999999,
          "velocity": 0.905511811023622
        },
        {
          "duration": 0.18596617708334406,
          "durationTicks": 97,
          "midi": 47,
          "name": "B2",
          "ticks": 34368,
          "time": 65.88954199999999,
          "velocity": 1
        },
        {
          "duration": 0.18404900000000168,
          "durationTicks": 96,
          "midi": 67,
          "name": "G4",
          "ticks": 34368,
          "time": 65.88954199999999,
          "velocity": 1
        },
        {
          "duration": 0.18404900000000168,
          "durationTicks": 96,
          "midi": 55,
          "name": "G3",
          "ticks": 34368,
          "time": 65.88954199999999,
          "velocity": 0.905511811023622
        },
        {
          "duration": 0.18404900000000168,
          "durationTicks": 96,
          "midi": 55,
          "name": "G3",
          "ticks": 34464,
          "time": 66.073591,
          "velocity": 0.6220472440944882
        },
        {
          "duration": 0.18404900000000168,
          "durationTicks": 96,
          "midi": 50,
          "name": "D3",
          "ticks": 34464,
          "time": 66.073591,
          "velocity": 0.5669291338582677
        },
        {
          "duration": 0.18404900000000168,
          "durationTicks": 96,
          "midi": 47,
          "name": "B2",
          "ticks": 34464,
          "time": 66.073591,
          "velocity": 0.6220472440944882
        },
        {
          "duration": 0.18404900000000168,
          "durationTicks": 96,
          "midi": 62,
          "name": "D4",
          "ticks": 34464,
          "time": 66.073591,
          "velocity": 0.6929133858267716
        },
        {
          "duration": 0.18596617708334406,
          "durationTicks": 97,
          "midi": 64,
          "name": "E4",
          "ticks": 34560,
          "time": 66.25764,
          "velocity": 0.49606299212598426
        },
        {
          "duration": 0.18596617708334406,
          "durationTicks": 97,
          "midi": 60,
          "name": "C4",
          "ticks": 34560,
          "time": 66.25764,
          "velocity": 0.5669291338582677
        },
        {
          "duration": 0.18404900000000168,
          "durationTicks": 96,
          "midi": 48,
          "name": "C3",
          "ticks": 34560,
          "time": 66.25764,
          "velocity": 0.6220472440944882
        },
        {
          "duration": 0.18404900000000168,
          "durationTicks": 96,
          "midi": 55,
          "name": "G3",
          "ticks": 34560,
          "time": 66.25764,
          "velocity": 0.49606299212598426
        },
        {
          "duration": 0.18404900000000168,
          "durationTicks": 96,
          "midi": 52,
          "name": "E3",
          "ticks": 34560,
          "time": 66.25764,
          "velocity": 0.6929133858267716
        },
        {
          "duration": 0.18404900000000168,
          "durationTicks": 96,
          "midi": 52,
          "name": "E3",
          "ticks": 34656,
          "time": 66.441689,
          "velocity": 0.6220472440944882
        },
        {
          "duration": 0.18404900000000168,
          "durationTicks": 96,
          "midi": 55,
          "name": "G3",
          "ticks": 34656,
          "time": 66.441689,
          "velocity": 0.49606299212598426
        },
        {
          "duration": 0.18596617708332985,
          "durationTicks": 97,
          "midi": 64,
          "name": "E4",
          "ticks": 34656,
          "time": 66.441689,
          "velocity": 0.5275590551181102
        },
        {
          "duration": 0.18404900000000168,
          "durationTicks": 96,
          "midi": 60,
          "name": "C4",
          "ticks": 34656,
          "time": 66.441689,
          "velocity": 0.6220472440944882
        },
        {
          "duration": 0.18404900000000168,
          "durationTicks": 96,
          "midi": 48,
          "name": "C3",
          "ticks": 34656,
          "time": 66.441689,
          "velocity": 0.6929133858267716
        },
        {
          "duration": 0.18404900000000168,
          "durationTicks": 96,
          "midi": 55,
          "name": "G3",
          "ticks": 34752,
          "time": 66.625738,
          "velocity": 0.6929133858267716
        },
        {
          "duration": 0.18404900000000168,
          "durationTicks": 96,
          "midi": 60,
          "name": "C4",
          "ticks": 34752,
          "time": 66.625738,
          "velocity": 0.7874015748031497
        },
        {
          "duration": 0.18404900000000168,
          "durationTicks": 96,
          "midi": 64,
          "name": "E4",
          "ticks": 34752,
          "time": 66.625738,
          "velocity": 0.7874015748031497
        },
        {
          "duration": 0.18404900000000168,
          "durationTicks": 96,
          "midi": 52,
          "name": "E3",
          "ticks": 34752,
          "time": 66.625738,
          "velocity": 0.7874015748031497
        },
        {
          "duration": 0.18404900000000168,
          "durationTicks": 96,
          "midi": 48,
          "name": "C3",
          "ticks": 34752,
          "time": 66.625738,
          "velocity": 0.7874015748031497
        },
        {
          "duration": 0.18404900000000168,
          "durationTicks": 96,
          "midi": 64,
          "name": "E4",
          "ticks": 34848,
          "time": 66.809787,
          "velocity": 0.49606299212598426
        },
        {
          "duration": 0.18404900000000168,
          "durationTicks": 96,
          "midi": 52,
          "name": "E3",
          "ticks": 34848,
          "time": 66.809787,
          "velocity": 0.6220472440944882
        },
        {
          "duration": 0.18404900000000168,
          "durationTicks": 96,
          "midi": 55,
          "name": "G3",
          "ticks": 34848,
          "time": 66.809787,
          "velocity": 0.5275590551181102
        },
        {
          "duration": 0.18404900000000168,
          "durationTicks": 96,
          "midi": 60,
          "name": "C4",
          "ticks": 34848,
          "time": 66.809787,
          "velocity": 0.6220472440944882
        },
        {
          "duration": 0.18404900000000168,
          "durationTicks": 96,
          "midi": 48,
          "name": "C3",
          "ticks": 34848,
          "time": 66.809787,
          "velocity": 0.6220472440944882
        },
        {
          "duration": 0.18404900000000168,
          "durationTicks": 96,
          "midi": 52,
          "name": "E3",
          "ticks": 34944,
          "time": 66.993836,
          "velocity": 0.5669291338582677
        },
        {
          "duration": 0.18596617708332985,
          "durationTicks": 97,
          "midi": 64,
          "name": "E4",
          "ticks": 34944,
          "time": 66.993836,
          "velocity": 0.5275590551181102
        },
        {
          "duration": 0.18404900000000168,
          "durationTicks": 96,
          "midi": 55,
          "name": "G3",
          "ticks": 34944,
          "time": 66.993836,
          "velocity": 0.5275590551181102
        },
        {
          "duration": 0.18404900000000168,
          "durationTicks": 96,
          "midi": 60,
          "name": "C4",
          "ticks": 34944,
          "time": 66.993836,
          "velocity": 0.6220472440944882
        },
        {
          "duration": 0.18404900000000168,
          "durationTicks": 96,
          "midi": 48,
          "name": "C3",
          "ticks": 34944,
          "time": 66.993836,
          "velocity": 0.6929133858267716
        },
        {
          "duration": 0.18404899999998747,
          "durationTicks": 96,
          "midi": 52,
          "name": "E3",
          "ticks": 35040,
          "time": 67.177885,
          "velocity": 0.6929133858267716
        },
        {
          "duration": 0.18596617708332985,
          "durationTicks": 97,
          "midi": 64,
          "name": "E4",
          "ticks": 35040,
          "time": 67.177885,
          "velocity": 0.6929133858267716
        },
        {
          "duration": 0.18404899999998747,
          "durationTicks": 96,
          "midi": 48,
          "name": "C3",
          "ticks": 35040,
          "time": 67.177885,
          "velocity": 0.7874015748031497
        },
        {
          "duration": 0.18404899999998747,
          "durationTicks": 96,
          "midi": 55,
          "name": "G3",
          "ticks": 35040,
          "time": 67.177885,
          "velocity": 0.6220472440944882
        },
        {
          "duration": 0.18404899999998747,
          "durationTicks": 96,
          "midi": 60,
          "name": "C4",
          "ticks": 35040,
          "time": 67.177885,
          "velocity": 0.6929133858267716
        },
        {
          "duration": 0.18404900000000168,
          "durationTicks": 96,
          "midi": 55,
          "name": "G3",
          "ticks": 35136,
          "time": 67.36193399999999,
          "velocity": 1
        },
        {
          "duration": 0.18596617708334406,
          "durationTicks": 97,
          "midi": 48,
          "name": "C3",
          "ticks": 35136,
          "time": 67.36193399999999,
          "velocity": 0.905511811023622
        },
        {
          "duration": 0.18404900000000168,
          "durationTicks": 96,
          "midi": 60,
          "name": "C4",
          "ticks": 35136,
          "time": 67.36193399999999,
          "velocity": 1
        },
        {
          "duration": 0.18404900000000168,
          "durationTicks": 96,
          "midi": 52,
          "name": "E3",
          "ticks": 35136,
          "time": 67.36193399999999,
          "velocity": 0.7874015748031497
        },
        {
          "duration": 0.18404900000000168,
          "durationTicks": 96,
          "midi": 64,
          "name": "E4",
          "ticks": 35136,
          "time": 67.36193399999999,
          "velocity": 1
        },
        {
          "duration": 0.18404900000000168,
          "durationTicks": 96,
          "midi": 55,
          "name": "G3",
          "ticks": 35232,
          "time": 67.54598299999999,
          "velocity": 0.6929133858267716
        },
        {
          "duration": 0.18404900000000168,
          "durationTicks": 96,
          "midi": 60,
          "name": "C4",
          "ticks": 35232,
          "time": 67.54598299999999,
          "velocity": 0.7874015748031497
        },
        {
          "duration": 0.18404900000000168,
          "durationTicks": 96,
          "midi": 48,
          "name": "C3",
          "ticks": 35232,
          "time": 67.54598299999999,
          "velocity": 0.905511811023622
        },
        {
          "duration": 0.18404900000000168,
          "durationTicks": 96,
          "midi": 64,
          "name": "E4",
          "ticks": 35232,
          "time": 67.54598299999999,
          "velocity": 0.6929133858267716
        },
        {
          "duration": 0.18404900000000168,
          "durationTicks": 96,
          "midi": 52,
          "name": "E3",
          "ticks": 35232,
          "time": 67.54598299999999,
          "velocity": 0.905511811023622
        },
        {
          "duration": 0.18596617708334406,
          "durationTicks": 97,
          "midi": 43,
          "name": "G2",
          "ticks": 35328,
          "time": 67.730032,
          "velocity": 0.6220472440944882
        },
        {
          "duration": 0.18596617708334406,
          "durationTicks": 97,
          "midi": 50,
          "name": "D3",
          "ticks": 35328,
          "time": 67.730032,
          "velocity": 0.6929133858267716
        },
        {
          "duration": 0.18404900000000168,
          "durationTicks": 96,
          "midi": 55,
          "name": "G3",
          "ticks": 35328,
          "time": 67.730032,
          "velocity": 0.5669291338582677
        },
        {
          "duration": 0.18404900000000168,
          "durationTicks": 96,
          "midi": 62,
          "name": "D4",
          "ticks": 35328,
          "time": 67.730032,
          "velocity": 0.49606299212598426
        },
        {
          "duration": 0.18404900000000168,
          "durationTicks": 96,
          "midi": 47,
          "name": "B2",
          "ticks": 35328,
          "time": 67.730032,
          "velocity": 0.6929133858267716
        },
        {
          "duration": 0.18404900000000168,
          "durationTicks": 96,
          "midi": 55,
          "name": "G3",
          "ticks": 35424,
          "time": 67.914081,
          "velocity": 0.6929133858267716
        },
        {
          "duration": 0.18404900000000168,
          "durationTicks": 96,
          "midi": 62,
          "name": "D4",
          "ticks": 35424,
          "time": 67.914081,
          "velocity": 0.6929133858267716
        },
        {
          "duration": 0.18404900000000168,
          "durationTicks": 96,
          "midi": 47,
          "name": "B2",
          "ticks": 35424,
          "time": 67.914081,
          "velocity": 0.7874015748031497
        },
        {
          "duration": 0.18404900000000168,
          "durationTicks": 96,
          "midi": 43,
          "name": "G2",
          "ticks": 35424,
          "time": 67.914081,
          "velocity": 0.905511811023622
        },
        {
          "duration": 0.18404900000000168,
          "durationTicks": 96,
          "midi": 50,
          "name": "D3",
          "ticks": 35424,
          "time": 67.914081,
          "velocity": 0.6929133858267716
        },
        {
          "duration": 0.18404900000000168,
          "durationTicks": 96,
          "midi": 67,
          "name": "G4",
          "ticks": 35520,
          "time": 68.09813,
          "velocity": 0.7874015748031497
        },
        {
          "duration": 0.18404900000000168,
          "durationTicks": 96,
          "midi": 55,
          "name": "G3",
          "ticks": 35520,
          "time": 68.09813,
          "velocity": 0.7874015748031497
        },
        {
          "duration": 0.18404900000000168,
          "durationTicks": 96,
          "midi": 47,
          "name": "B2",
          "ticks": 35520,
          "time": 68.09813,
          "velocity": 0.905511811023622
        },
        {
          "duration": 0.18404900000000168,
          "durationTicks": 96,
          "midi": 62,
          "name": "D4",
          "ticks": 35520,
          "time": 68.09813,
          "velocity": 0.6929133858267716
        },
        {
          "duration": 0.18404900000000168,
          "durationTicks": 96,
          "midi": 55,
          "name": "G3",
          "ticks": 35616,
          "time": 68.282179,
          "velocity": 0.6220472440944882
        },
        {
          "duration": 0.18404900000000168,
          "durationTicks": 96,
          "midi": 62,
          "name": "D4",
          "ticks": 35616,
          "time": 68.282179,
          "velocity": 0.6929133858267716
        },
        {
          "duration": 0.18596617708332985,
          "durationTicks": 97,
          "midi": 50,
          "name": "D3",
          "ticks": 35616,
          "time": 68.282179,
          "velocity": 0.6929133858267716
        },
        {
          "duration": 0.18404900000000168,
          "durationTicks": 96,
          "midi": 55,
          "name": "G3",
          "ticks": 35712,
          "time": 68.466228,
          "velocity": 0.7874015748031497
        },
        {
          "duration": 0.18596617708332985,
          "durationTicks": 97,
          "midi": 43,
          "name": "G2",
          "ticks": 35712,
          "time": 68.466228,
          "velocity": 0.6929133858267716
        },
        {
          "duration": 0.18404900000000168,
          "durationTicks": 96,
          "midi": 62,
          "name": "D4",
          "ticks": 35712,
          "time": 68.466228,
          "velocity": 0.6929133858267716
        },
        {
          "duration": 0.18404900000000168,
          "durationTicks": 96,
          "midi": 50,
          "name": "D3",
          "ticks": 35712,
          "time": 68.466228,
          "velocity": 0.7874015748031497
        },
        {
          "duration": 0.18404900000000168,
          "durationTicks": 96,
          "midi": 47,
          "name": "B2",
          "ticks": 35712,
          "time": 68.466228,
          "velocity": 0.5669291338582677
        },
        {
          "duration": 0.18404899999998747,
          "durationTicks": 96,
          "midi": 50,
          "name": "D3",
          "ticks": 35808,
          "time": 68.650277,
          "velocity": 0.6929133858267716
        },
        {
          "duration": 0.18404899999998747,
          "durationTicks": 96,
          "midi": 62,
          "name": "D4",
          "ticks": 35808,
          "time": 68.650277,
          "velocity": 0.905511811023622
        },
        {
          "duration": 0.18404899999998747,
          "durationTicks": 96,
          "midi": 55,
          "name": "G3",
          "ticks": 35808,
          "time": 68.650277,
          "velocity": 0.6929133858267716
        },
        {
          "duration": 0.18404899999998747,
          "durationTicks": 96,
          "midi": 43,
          "name": "G2",
          "ticks": 35808,
          "time": 68.650277,
          "velocity": 0.7874015748031497
        },
        {
          "duration": 0.18404899999998747,
          "durationTicks": 96,
          "midi": 47,
          "name": "B2",
          "ticks": 35808,
          "time": 68.650277,
          "velocity": 0.6929133858267716
        },
        {
          "duration": 0.18404900000000168,
          "durationTicks": 96,
          "midi": 47,
          "name": "B2",
          "ticks": 35904,
          "time": 68.83432599999999,
          "velocity": 1
        },
        {
          "duration": 0.18404900000000168,
          "durationTicks": 96,
          "midi": 55,
          "name": "G3",
          "ticks": 35904,
          "time": 68.83432599999999,
          "velocity": 0.905511811023622
        },
        {
          "duration": 0.18404900000000168,
          "durationTicks": 96,
          "midi": 50,
          "name": "D3",
          "ticks": 35904,
          "time": 68.83432599999999,
          "velocity": 0.905511811023622
        },
        {
          "duration": 0.18404900000000168,
          "durationTicks": 96,
          "midi": 67,
          "name": "G4",
          "ticks": 35904,
          "time": 68.83432599999999,
          "velocity": 1
        },
        {
          "duration": 0.18404900000000168,
          "durationTicks": 96,
          "midi": 62,
          "name": "D4",
          "ticks": 35904,
          "time": 68.83432599999999,
          "velocity": 0.905511811023622
        },
        {
          "duration": 0.18404900000000168,
          "durationTicks": 96,
          "midi": 50,
          "name": "D3",
          "ticks": 36000,
          "time": 69.01837499999999,
          "velocity": 0.5669291338582677
        },
        {
          "duration": 0.18404900000000168,
          "durationTicks": 96,
          "midi": 62,
          "name": "D4",
          "ticks": 36000,
          "time": 69.01837499999999,
          "velocity": 0.6929133858267716
        },
        {
          "duration": 0.18404900000000168,
          "durationTicks": 96,
          "midi": 55,
          "name": "G3",
          "ticks": 36000,
          "time": 69.01837499999999,
          "velocity": 0.6220472440944882
        },
        {
          "duration": 0.18404900000000168,
          "durationTicks": 96,
          "midi": 47,
          "name": "B2",
          "ticks": 36000,
          "time": 69.01837499999999,
          "velocity": 0.6220472440944882
        },
        {
          "duration": 0.18404900000000168,
          "durationTicks": 96,
          "midi": 55,
          "name": "G3",
          "ticks": 36096,
          "time": 69.202424,
          "velocity": 0.49606299212598426
        },
        {
          "duration": 0.18596617708334406,
          "durationTicks": 97,
          "midi": 60,
          "name": "C4",
          "ticks": 36096,
          "time": 69.202424,
          "velocity": 0.5669291338582677
        },
        {
          "duration": 0.18404900000000168,
          "durationTicks": 96,
          "midi": 48,
          "name": "C3",
          "ticks": 36096,
          "time": 69.202424,
          "velocity": 0.6220472440944882
        },
        {
          "duration": 0.18404900000000168,
          "durationTicks": 96,
          "midi": 64,
          "name": "E4",
          "ticks": 36096,
          "time": 69.202424,
          "velocity": 0.49606299212598426
        },
        {
          "duration": 0.18404900000000168,
          "durationTicks": 96,
          "midi": 52,
          "name": "E3",
          "ticks": 36096,
          "time": 69.202424,
          "velocity": 0.6929133858267716
        },
        {
          "duration": 0.18404900000000168,
          "durationTicks": 96,
          "midi": 64,
          "name": "E4",
          "ticks": 36192,
          "time": 69.386473,
          "velocity": 0.5275590551181102
        },
        {
          "duration": 0.18404900000000168,
          "durationTicks": 96,
          "midi": 48,
          "name": "C3",
          "ticks": 36192,
          "time": 69.386473,
          "velocity": 0.6929133858267716
        },
        {
          "duration": 0.18404900000000168,
          "durationTicks": 96,
          "midi": 55,
          "name": "G3",
          "ticks": 36192,
          "time": 69.386473,
          "velocity": 0.49606299212598426
        },
        {
          "duration": 0.18404900000000168,
          "durationTicks": 96,
          "midi": 60,
          "name": "C4",
          "ticks": 36192,
          "time": 69.386473,
          "velocity": 0.6220472440944882
        },
        {
          "duration": 0.18404900000000168,
          "durationTicks": 96,
          "midi": 52,
          "name": "E3",
          "ticks": 36192,
          "time": 69.386473,
          "velocity": 0.6220472440944882
        },
        {
          "duration": 0.18404900000000168,
          "durationTicks": 96,
          "midi": 64,
          "name": "E4",
          "ticks": 36288,
          "time": 69.570522,
          "velocity": 0.7874015748031497
        },
        {
          "duration": 0.18404900000000168,
          "durationTicks": 96,
          "midi": 55,
          "name": "G3",
          "ticks": 36288,
          "time": 69.570522,
          "velocity": 0.6929133858267716
        },
        {
          "duration": 0.18404900000000168,
          "durationTicks": 96,
          "midi": 60,
          "name": "C4",
          "ticks": 36288,
          "time": 69.570522,
          "velocity": 0.7874015748031497
        },
        {
          "duration": 0.18404900000000168,
          "durationTicks": 96,
          "midi": 52,
          "name": "E3",
          "ticks": 36288,
          "time": 69.570522,
          "velocity": 0.7874015748031497
        },
        {
          "duration": 0.18596617708332985,
          "durationTicks": 97,
          "midi": 48,
          "name": "C3",
          "ticks": 36288,
          "time": 69.570522,
          "velocity": 0.7874015748031497
        },
        {
          "duration": 0.18404900000000168,
          "durationTicks": 96,
          "midi": 64,
          "name": "E4",
          "ticks": 36384,
          "time": 69.754571,
          "velocity": 0.49606299212598426
        },
        {
          "duration": 0.18404900000000168,
          "durationTicks": 96,
          "midi": 55,
          "name": "G3",
          "ticks": 36384,
          "time": 69.754571,
          "velocity": 0.5275590551181102
        },
        {
          "duration": 0.18404900000000168,
          "durationTicks": 96,
          "midi": 52,
          "name": "E3",
          "ticks": 36384,
          "time": 69.754571,
          "velocity": 0.6220472440944882
        },
        {
          "duration": 0.18404900000000168,
          "durationTicks": 96,
          "midi": 60,
          "name": "C4",
          "ticks": 36384,
          "time": 69.754571,
          "velocity": 0.6220472440944882
        },
        {
          "duration": 0.18404900000000168,
          "durationTicks": 96,
          "midi": 48,
          "name": "C3",
          "ticks": 36384,
          "time": 69.754571,
          "velocity": 0.6220472440944882
        },
        {
          "duration": 0.18404900000000168,
          "durationTicks": 96,
          "midi": 52,
          "name": "E3",
          "ticks": 36480,
          "time": 69.93862,
          "velocity": 0.5669291338582677
        },
        {
          "duration": 0.18404900000000168,
          "durationTicks": 96,
          "midi": 48,
          "name": "C3",
          "ticks": 36480,
          "time": 69.93862,
          "velocity": 0.6929133858267716
        },
        {
          "duration": 0.18596617708332985,
          "durationTicks": 97,
          "midi": 64,
          "name": "E4",
          "ticks": 36480,
          "time": 69.93862,
          "velocity": 0.5275590551181102
        },
        {
          "duration": 0.18404900000000168,
          "durationTicks": 96,
          "midi": 55,
          "name": "G3",
          "ticks": 36480,
          "time": 69.93862,
          "velocity": 0.5275590551181102
        },
        {
          "duration": 0.18404900000000168,
          "durationTicks": 96,
          "midi": 60,
          "name": "C4",
          "ticks": 36480,
          "time": 69.93862,
          "velocity": 0.6220472440944882
        },
        {
          "duration": 0.18404899999998747,
          "durationTicks": 96,
          "midi": 52,
          "name": "E3",
          "ticks": 36576,
          "time": 70.122669,
          "velocity": 0.6929133858267716
        },
        {
          "duration": 0.18404899999998747,
          "durationTicks": 96,
          "midi": 55,
          "name": "G3",
          "ticks": 36576,
          "time": 70.122669,
          "velocity": 0.6220472440944882
        },
        {
          "duration": 0.18404899999998747,
          "durationTicks": 96,
          "midi": 64,
          "name": "E4",
          "ticks": 36576,
          "time": 70.122669,
          "velocity": 0.6929133858267716
        },
        {
          "duration": 0.18404899999998747,
          "durationTicks": 96,
          "midi": 48,
          "name": "C3",
          "ticks": 36576,
          "time": 70.122669,
          "velocity": 0.7874015748031497
        },
        {
          "duration": 0.18404899999998747,
          "durationTicks": 96,
          "midi": 60,
          "name": "C4",
          "ticks": 36576,
          "time": 70.122669,
          "velocity": 0.6929133858267716
        },
        {
          "duration": 0.18404900000000168,
          "durationTicks": 96,
          "midi": 64,
          "name": "E4",
          "ticks": 36672,
          "time": 70.30671799999999,
          "velocity": 1
        },
        {
          "duration": 0.18404900000000168,
          "durationTicks": 96,
          "midi": 60,
          "name": "C4",
          "ticks": 36672,
          "time": 70.30671799999999,
          "velocity": 1
        },
        {
          "duration": 0.18404900000000168,
          "durationTicks": 96,
          "midi": 48,
          "name": "C3",
          "ticks": 36672,
          "time": 70.30671799999999,
          "velocity": 0.905511811023622
        },
        {
          "duration": 0.18596617708334406,
          "durationTicks": 97,
          "midi": 52,
          "name": "E3",
          "ticks": 36672,
          "time": 70.30671799999999,
          "velocity": 0.7874015748031497
        },
        {
          "duration": 0.18404900000000168,
          "durationTicks": 96,
          "midi": 55,
          "name": "G3",
          "ticks": 36672,
          "time": 70.30671799999999,
          "velocity": 1
        },
        {
          "duration": 0.18404900000000168,
          "durationTicks": 96,
          "midi": 60,
          "name": "C4",
          "ticks": 36768,
          "time": 70.49076699999999,
          "velocity": 0.7874015748031497
        },
        {
          "duration": 0.18404900000000168,
          "durationTicks": 96,
          "midi": 48,
          "name": "C3",
          "ticks": 36768,
          "time": 70.49076699999999,
          "velocity": 0.905511811023622
        },
        {
          "duration": 0.18404900000000168,
          "durationTicks": 96,
          "midi": 64,
          "name": "E4",
          "ticks": 36768,
          "time": 70.49076699999999,
          "velocity": 0.6929133858267716
        },
        {
          "duration": 0.18596617708334406,
          "durationTicks": 97,
          "midi": 55,
          "name": "G3",
          "ticks": 36768,
          "time": 70.49076699999999,
          "velocity": 0.6929133858267716
        },
        {
          "duration": 0.18404900000000168,
          "durationTicks": 96,
          "midi": 52,
          "name": "E3",
          "ticks": 36768,
          "time": 70.49076699999999,
          "velocity": 0.905511811023622
        },
        {
          "duration": 0.18404900000000168,
          "durationTicks": 96,
          "midi": 43,
          "name": "G2",
          "ticks": 36864,
          "time": 70.67481599999999,
          "velocity": 0.6220472440944882
        },
        {
          "duration": 0.18596617708334406,
          "durationTicks": 97,
          "midi": 50,
          "name": "D3",
          "ticks": 36864,
          "time": 70.67481599999999,
          "velocity": 0.6929133858267716
        },
        {
          "duration": 0.18596617708334406,
          "durationTicks": 97,
          "midi": 62,
          "name": "D4",
          "ticks": 36864,
          "time": 70.67481599999999,
          "velocity": 0.49606299212598426
        },
        {
          "duration": 0.18596617708334406,
          "durationTicks": 97,
          "midi": 47,
          "name": "B2",
          "ticks": 36864,
          "time": 70.67481599999999,
          "velocity": 0.6929133858267716
        },
        {
          "duration": 0.18404900000000168,
          "durationTicks": 96,
          "midi": 55,
          "name": "G3",
          "ticks": 36864,
          "time": 70.67481599999999,
          "velocity": 0.5669291338582677
        },
        {
          "duration": 0.18404900000000168,
          "durationTicks": 96,
          "midi": 55,
          "name": "G3",
          "ticks": 36960,
          "time": 70.858865,
          "velocity": 0.6929133858267716
        },
        {
          "duration": 0.18404900000000168,
          "durationTicks": 96,
          "midi": 50,
          "name": "D3",
          "ticks": 36960,
          "time": 70.858865,
          "velocity": 0.6929133858267716
        },
        {
          "duration": 0.18404900000000168,
          "durationTicks": 96,
          "midi": 43,
          "name": "G2",
          "ticks": 36960,
          "time": 70.858865,
          "velocity": 0.905511811023622
        },
        {
          "duration": 0.18404900000000168,
          "durationTicks": 96,
          "midi": 62,
          "name": "D4",
          "ticks": 36960,
          "time": 70.858865,
          "velocity": 0.6929133858267716
        },
        {
          "duration": 0.18404900000000168,
          "durationTicks": 96,
          "midi": 47,
          "name": "B2",
          "ticks": 36960,
          "time": 70.858865,
          "velocity": 0.7874015748031497
        },
        {
          "duration": 0.18596617708334406,
          "durationTicks": 97,
          "midi": 62,
          "name": "D4",
          "ticks": 37056,
          "time": 71.042914,
          "velocity": 0.6929133858267716
        },
        {
          "duration": 0.18404900000000168,
          "durationTicks": 96,
          "midi": 67,
          "name": "G4",
          "ticks": 37056,
          "time": 71.042914,
          "velocity": 0.7874015748031497
        },
        {
          "duration": 0.18404900000000168,
          "durationTicks": 96,
          "midi": 55,
          "name": "G3",
          "ticks": 37056,
          "time": 71.042914,
          "velocity": 0.7874015748031497
        },
        {
          "duration": 0.18404900000000168,
          "durationTicks": 96,
          "midi": 47,
          "name": "B2",
          "ticks": 37056,
          "time": 71.042914,
          "velocity": 0.905511811023622
        },
        {
          "duration": 0.18404900000000168,
          "durationTicks": 96,
          "midi": 55,
          "name": "G3",
          "ticks": 37152,
          "time": 71.226963,
          "velocity": 0.6220472440944882
        },
        {
          "duration": 0.18404900000000168,
          "durationTicks": 96,
          "midi": 50,
          "name": "D3",
          "ticks": 37152,
          "time": 71.226963,
          "velocity": 0.6929133858267716
        },
        {
          "duration": 0.18404900000000168,
          "durationTicks": 96,
          "midi": 62,
          "name": "D4",
          "ticks": 37152,
          "time": 71.226963,
          "velocity": 0.6929133858267716
        },
        {
          "duration": 0.18404900000000168,
          "durationTicks": 96,
          "midi": 55,
          "name": "G3",
          "ticks": 37248,
          "time": 71.411012,
          "velocity": 0.7874015748031497
        },
        {
          "duration": 0.18404900000000168,
          "durationTicks": 96,
          "midi": 62,
          "name": "D4",
          "ticks": 37248,
          "time": 71.411012,
          "velocity": 0.6929133858267716
        },
        {
          "duration": 0.18404900000000168,
          "durationTicks": 96,
          "midi": 50,
          "name": "D3",
          "ticks": 37248,
          "time": 71.411012,
          "velocity": 0.7874015748031497
        },
        {
          "duration": 0.18404900000000168,
          "durationTicks": 96,
          "midi": 43,
          "name": "G2",
          "ticks": 37248,
          "time": 71.411012,
          "velocity": 0.6929133858267716
        },
        {
          "duration": 0.18404900000000168,
          "durationTicks": 96,
          "midi": 47,
          "name": "B2",
          "ticks": 37248,
          "time": 71.411012,
          "velocity": 0.5669291338582677
        },
        {
          "duration": 0.18404900000000168,
          "durationTicks": 96,
          "midi": 43,
          "name": "G2",
          "ticks": 37344,
          "time": 71.595061,
          "velocity": 0.7874015748031497
        },
        {
          "duration": 0.18404900000000168,
          "durationTicks": 96,
          "midi": 62,
          "name": "D4",
          "ticks": 37344,
          "time": 71.595061,
          "velocity": 0.905511811023622
        },
        {
          "duration": 0.18596617708332985,
          "durationTicks": 97,
          "midi": 47,
          "name": "B2",
          "ticks": 37344,
          "time": 71.595061,
          "velocity": 0.6929133858267716
        },
        {
          "duration": 0.18596617708332985,
          "durationTicks": 97,
          "midi": 50,
          "name": "D3",
          "ticks": 37344,
          "time": 71.595061,
          "velocity": 0.6929133858267716
        },
        {
          "duration": 0.18596617708332985,
          "durationTicks": 97,
          "midi": 55,
          "name": "G3",
          "ticks": 37344,
          "time": 71.595061,
          "velocity": 0.6929133858267716
        },
        {
          "duration": 0.18404899999998747,
          "durationTicks": 96,
          "midi": 62,
          "name": "D4",
          "ticks": 37440,
          "time": 71.77911,
          "velocity": 0.905511811023622
        },
        {
          "duration": 0.18404899999998747,
          "durationTicks": 96,
          "midi": 47,
          "name": "B2",
          "ticks": 37440,
          "time": 71.77911,
          "velocity": 1
        },
        {
          "duration": 0.18404899999998747,
          "durationTicks": 96,
          "midi": 67,
          "name": "G4",
          "ticks": 37440,
          "time": 71.77911,
          "velocity": 1
        },
        {
          "duration": 0.18404899999998747,
          "durationTicks": 96,
          "midi": 55,
          "name": "G3",
          "ticks": 37440,
          "time": 71.77911,
          "velocity": 0.905511811023622
        },
        {
          "duration": 0.18404899999998747,
          "durationTicks": 96,
          "midi": 50,
          "name": "D3",
          "ticks": 37440,
          "time": 71.77911,
          "velocity": 0.905511811023622
        },
        {
          "duration": 0.18404900000000168,
          "durationTicks": 96,
          "midi": 50,
          "name": "D3",
          "ticks": 37536,
          "time": 71.96315899999999,
          "velocity": 0.5669291338582677
        },
        {
          "duration": 0.18404900000000168,
          "durationTicks": 96,
          "midi": 62,
          "name": "D4",
          "ticks": 37536,
          "time": 71.96315899999999,
          "velocity": 0.6929133858267716
        },
        {
          "duration": 0.18404900000000168,
          "durationTicks": 96,
          "midi": 55,
          "name": "G3",
          "ticks": 37536,
          "time": 71.96315899999999,
          "velocity": 0.6220472440944882
        },
        {
          "duration": 0.18404900000000168,
          "durationTicks": 96,
          "midi": 47,
          "name": "B2",
          "ticks": 37536,
          "time": 71.96315899999999,
          "velocity": 0.6220472440944882
        },
        {
          "duration": 0.18404900000000168,
          "durationTicks": 96,
          "midi": 54,
          "name": "F#3",
          "ticks": 37632,
          "time": 72.14720799999999,
          "velocity": 0.6929133858267716
        },
        {
          "duration": 0.18596617708334406,
          "durationTicks": 97,
          "midi": 50,
          "name": "D3",
          "ticks": 37632,
          "time": 72.14720799999999,
          "velocity": 0.6220472440944882
        },
        {
          "duration": 0.18404900000000168,
          "durationTicks": 96,
          "midi": 57,
          "name": "A3",
          "ticks": 37632,
          "time": 72.14720799999999,
          "velocity": 0.49606299212598426
        },
        {
          "duration": 0.18404900000000168,
          "durationTicks": 96,
          "midi": 62,
          "name": "D4",
          "ticks": 37632,
          "time": 72.14720799999999,
          "velocity": 0.5669291338582677
        },
        {
          "duration": 0.18404900000000168,
          "durationTicks": 96,
          "midi": 66,
          "name": "F#4",
          "ticks": 37632,
          "time": 72.14720799999999,
          "velocity": 0.49606299212598426
        },
        {
          "duration": 0.18404900000000168,
          "durationTicks": 96,
          "midi": 62,
          "name": "D4",
          "ticks": 37728,
          "time": 72.331257,
          "velocity": 0.6220472440944882
        },
        {
          "duration": 0.18404900000000168,
          "durationTicks": 96,
          "midi": 57,
          "name": "A3",
          "ticks": 37728,
          "time": 72.331257,
          "velocity": 0.49606299212598426
        },
        {
          "duration": 0.18596617708334406,
          "durationTicks": 97,
          "midi": 50,
          "name": "D3",
          "ticks": 37728,
          "time": 72.331257,
          "velocity": 0.6929133858267716
        },
        {
          "duration": 0.18404900000000168,
          "durationTicks": 96,
          "midi": 54,
          "name": "F#3",
          "ticks": 37728,
          "time": 72.331257,
          "velocity": 0.6220472440944882
        },
        {
          "duration": 0.18596617708334406,
          "durationTicks": 97,
          "midi": 66,
          "name": "F#4",
          "ticks": 37728,
          "time": 72.331257,
          "velocity": 0.5275590551181102
        },
        {
          "duration": 0.18404900000000168,
          "durationTicks": 96,
          "midi": 57,
          "name": "A3",
          "ticks": 37824,
          "time": 72.515306,
          "velocity": 0.6929133858267716
        },
        {
          "duration": 0.18404900000000168,
          "durationTicks": 96,
          "midi": 54,
          "name": "F#3",
          "ticks": 37824,
          "time": 72.515306,
          "velocity": 0.7874015748031497
        },
        {
          "duration": 0.18404900000000168,
          "durationTicks": 96,
          "midi": 66,
          "name": "F#4",
          "ticks": 37824,
          "time": 72.515306,
          "velocity": 0.7874015748031497
        },
        {
          "duration": 0.18404900000000168,
          "durationTicks": 96,
          "midi": 50,
          "name": "D3",
          "ticks": 37824,
          "time": 72.515306,
          "velocity": 0.7874015748031497
        },
        {
          "duration": 0.18404900000000168,
          "durationTicks": 96,
          "midi": 62,
          "name": "D4",
          "ticks": 37824,
          "time": 72.515306,
          "velocity": 0.7874015748031497
        },
        {
          "duration": 0.18404900000000168,
          "durationTicks": 96,
          "midi": 50,
          "name": "D3",
          "ticks": 37920,
          "time": 72.699355,
          "velocity": 0.6220472440944882
        },
        {
          "duration": 0.18404900000000168,
          "durationTicks": 96,
          "midi": 62,
          "name": "D4",
          "ticks": 37920,
          "time": 72.699355,
          "velocity": 0.6220472440944882
        },
        {
          "duration": 0.18404900000000168,
          "durationTicks": 96,
          "midi": 57,
          "name": "A3",
          "ticks": 37920,
          "time": 72.699355,
          "velocity": 0.5275590551181102
        },
        {
          "duration": 0.18404900000000168,
          "durationTicks": 96,
          "midi": 66,
          "name": "F#4",
          "ticks": 37920,
          "time": 72.699355,
          "velocity": 0.49606299212598426
        },
        {
          "duration": 0.18596617708332985,
          "durationTicks": 97,
          "midi": 54,
          "name": "F#3",
          "ticks": 37920,
          "time": 72.699355,
          "velocity": 0.6220472440944882
        },
        {
          "duration": 0.18404900000000168,
          "durationTicks": 96,
          "midi": 66,
          "name": "F#4",
          "ticks": 38016,
          "time": 72.883404,
          "velocity": 0.5275590551181102
        },
        {
          "duration": 0.18596617708332985,
          "durationTicks": 97,
          "midi": 62,
          "name": "D4",
          "ticks": 38016,
          "time": 72.883404,
          "velocity": 0.6220472440944882
        },
        {
          "duration": 0.18596617708332985,
          "durationTicks": 97,
          "midi": 57,
          "name": "A3",
          "ticks": 38016,
          "time": 72.883404,
          "velocity": 0.5275590551181102
        },
        {
          "duration": 0.18404900000000168,
          "durationTicks": 96,
          "midi": 54,
          "name": "F#3",
          "ticks": 38016,
          "time": 72.883404,
          "velocity": 0.5669291338582677
        },
        {
          "duration": 0.18404900000000168,
          "durationTicks": 96,
          "midi": 50,
          "name": "D3",
          "ticks": 38016,
          "time": 72.883404,
          "velocity": 0.6929133858267716
        },
        {
          "duration": 0.18404900000000168,
          "durationTicks": 96,
          "midi": 66,
          "name": "F#4",
          "ticks": 38112,
          "time": 73.067453,
          "velocity": 0.6929133858267716
        },
        {
          "duration": 0.18596617708332985,
          "durationTicks": 97,
          "midi": 57,
          "name": "A3",
          "ticks": 38112,
          "time": 73.067453,
          "velocity": 0.6220472440944882
        },
        {
          "duration": 0.18404900000000168,
          "durationTicks": 96,
          "midi": 62,
          "name": "D4",
          "ticks": 38112,
          "time": 73.067453,
          "velocity": 0.6929133858267716
        },
        {
          "duration": 0.18404900000000168,
          "durationTicks": 96,
          "midi": 54,
          "name": "F#3",
          "ticks": 38112,
          "time": 73.067453,
          "velocity": 0.6929133858267716
        },
        {
          "duration": 0.18596617708332985,
          "durationTicks": 97,
          "midi": 50,
          "name": "D3",
          "ticks": 38112,
          "time": 73.067453,
          "velocity": 0.7874015748031497
        },
        {
          "duration": 0.18404899999998747,
          "durationTicks": 96,
          "midi": 62,
          "name": "D4",
          "ticks": 38208,
          "time": 73.251502,
          "velocity": 1
        },
        {
          "duration": 0.18404899999998747,
          "durationTicks": 96,
          "midi": 54,
          "name": "F#3",
          "ticks": 38208,
          "time": 73.251502,
          "velocity": 0.7874015748031497
        },
        {
          "duration": 0.18404899999998747,
          "durationTicks": 96,
          "midi": 66,
          "name": "F#4",
          "ticks": 38208,
          "time": 73.251502,
          "velocity": 1
        },
        {
          "duration": 0.18404899999998747,
          "durationTicks": 96,
          "midi": 50,
          "name": "D3",
          "ticks": 38208,
          "time": 73.251502,
          "velocity": 0.905511811023622
        },
        {
          "duration": 0.18596617708332985,
          "durationTicks": 97,
          "midi": 57,
          "name": "A3",
          "ticks": 38208,
          "time": 73.251502,
          "velocity": 1
        },
        {
          "duration": 0.18404900000000168,
          "durationTicks": 96,
          "midi": 54,
          "name": "F#3",
          "ticks": 38304,
          "time": 73.43555099999999,
          "velocity": 0.905511811023622
        },
        {
          "duration": 0.18404900000000168,
          "durationTicks": 96,
          "midi": 66,
          "name": "F#4",
          "ticks": 38304,
          "time": 73.43555099999999,
          "velocity": 0.6929133858267716
        },
        {
          "duration": 0.18404900000000168,
          "durationTicks": 96,
          "midi": 50,
          "name": "D3",
          "ticks": 38304,
          "time": 73.43555099999999,
          "velocity": 0.905511811023622
        },
        {
          "duration": 0.18596617708334406,
          "durationTicks": 97,
          "midi": 62,
          "name": "D4",
          "ticks": 38304,
          "time": 73.43555099999999,
          "velocity": 0.7874015748031497
        },
        {
          "duration": 0.18404900000000168,
          "durationTicks": 96,
          "midi": 57,
          "name": "A3",
          "ticks": 38304,
          "time": 73.43555099999999,
          "velocity": 0.6929133858267716
        },
        {
          "duration": 0.18404900000000168,
          "durationTicks": 96,
          "midi": 50,
          "name": "D3",
          "ticks": 38400,
          "time": 73.61959999999999,
          "velocity": 0.6220472440944882
        },
        {
          "duration": 0.18404900000000168,
          "durationTicks": 96,
          "midi": 62,
          "name": "D4",
          "ticks": 38400,
          "time": 73.61959999999999,
          "velocity": 0.5669291338582677
        },
        {
          "duration": 0.18404900000000168,
          "durationTicks": 96,
          "midi": 57,
          "name": "A3",
          "ticks": 38400,
          "time": 73.61959999999999,
          "velocity": 0.49606299212598426
        },
        {
          "duration": 0.18404900000000168,
          "durationTicks": 96,
          "midi": 66,
          "name": "F#4",
          "ticks": 38400,
          "time": 73.61959999999999,
          "velocity": 0.49606299212598426
        },
        {
          "duration": 0.18404900000000168,
          "durationTicks": 96,
          "midi": 54,
          "name": "F#3",
          "ticks": 38400,
          "time": 73.61959999999999,
          "velocity": 0.6929133858267716
        },
        {
          "duration": 0.18404900000000168,
          "durationTicks": 96,
          "midi": 47,
          "name": "B2",
          "ticks": 39168,
          "time": 75.09199199999999,
          "velocity": 0.6929133858267716
        },
        {
          "duration": 0.18596617708334406,
          "durationTicks": 97,
          "midi": 62,
          "name": "D4",
          "ticks": 39168,
          "time": 75.09199199999999,
          "velocity": 0.7874015748031497
        },
        {
          "duration": 0.18404900000000168,
          "durationTicks": 96,
          "midi": 43,
          "name": "G2",
          "ticks": 39168,
          "time": 75.09199199999999,
          "velocity": 0.7874015748031497
        },
        {
          "duration": 0.18404900000000168,
          "durationTicks": 96,
          "midi": 55,
          "name": "G3",
          "ticks": 39168,
          "time": 75.09199199999999,
          "velocity": 0.6929133858267716
        },
        {
          "duration": 0.18404900000000168,
          "durationTicks": 96,
          "midi": 43,
          "name": "G2",
          "ticks": 39264,
          "time": 75.27604099999999,
          "velocity": 0.6929133858267716
        },
        {
          "duration": 0.18404900000000168,
          "durationTicks": 96,
          "midi": 55,
          "name": "G3",
          "ticks": 39264,
          "time": 75.27604099999999,
          "velocity": 0.6929133858267716
        },
        {
          "duration": 0.18404900000000168,
          "durationTicks": 96,
          "midi": 47,
          "name": "B2",
          "ticks": 39264,
          "time": 75.27604099999999,
          "velocity": 0.6929133858267716
        },
        {
          "duration": 0.18404900000000168,
          "durationTicks": 96,
          "midi": 62,
          "name": "D4",
          "ticks": 39264,
          "time": 75.27604099999999,
          "velocity": 0.6220472440944882
        },
        {
          "duration": 0.18596617708334406,
          "durationTicks": 97,
          "midi": 62,
          "name": "D4",
          "ticks": 39360,
          "time": 75.46009,
          "velocity": 0.905511811023622
        },
        {
          "duration": 0.18404900000000168,
          "durationTicks": 96,
          "midi": 67,
          "name": "G4",
          "ticks": 39360,
          "time": 75.46009,
          "velocity": 0.905511811023622
        },
        {
          "duration": 0.18404900000000168,
          "durationTicks": 96,
          "midi": 50,
          "name": "D3",
          "ticks": 39360,
          "time": 75.46009,
          "velocity": 0.905511811023622
        },
        {
          "duration": 0.18404900000000168,
          "durationTicks": 96,
          "midi": 55,
          "name": "G3",
          "ticks": 39360,
          "time": 75.46009,
          "velocity": 0.905511811023622
        },
        {
          "duration": 0.18404900000000168,
          "durationTicks": 96,
          "midi": 47,
          "name": "B2",
          "ticks": 39360,
          "time": 75.46009,
          "velocity": 0.905511811023622
        },
        {
          "duration": 0.18404900000000168,
          "durationTicks": 96,
          "midi": 55,
          "name": "G3",
          "ticks": 39456,
          "time": 75.644139,
          "velocity": 0.6220472440944882
        },
        {
          "duration": 0.18404900000000168,
          "durationTicks": 96,
          "midi": 50,
          "name": "D3",
          "ticks": 39456,
          "time": 75.644139,
          "velocity": 0.7874015748031497
        },
        {
          "duration": 0.18404900000000168,
          "durationTicks": 96,
          "midi": 47,
          "name": "B2",
          "ticks": 39456,
          "time": 75.644139,
          "velocity": 1
        },
        {
          "duration": 0.18404900000000168,
          "durationTicks": 96,
          "midi": 62,
          "name": "D4",
          "ticks": 39456,
          "time": 75.644139,
          "velocity": 0.905511811023622
        },
        {
          "duration": 0.18404900000000168,
          "durationTicks": 96,
          "midi": 64,
          "name": "E4",
          "ticks": 39552,
          "time": 75.828188,
          "velocity": 0.7874015748031497
        },
        {
          "duration": 0.18404900000000168,
          "durationTicks": 96,
          "midi": 55,
          "name": "G3",
          "ticks": 39552,
          "time": 75.828188,
          "velocity": 0.6220472440944882
        },
        {
          "duration": 0.18596617708332985,
          "durationTicks": 97,
          "midi": 60,
          "name": "C4",
          "ticks": 39552,
          "time": 75.828188,
          "velocity": 0.7874015748031497
        },
        {
          "duration": 0.18404900000000168,
          "durationTicks": 96,
          "midi": 48,
          "name": "C3",
          "ticks": 39552,
          "time": 75.828188,
          "velocity": 0.7874015748031497
        },
        {
          "duration": 0.18404900000000168,
          "durationTicks": 96,
          "midi": 64,
          "name": "E4",
          "ticks": 39648,
          "time": 76.012237,
          "velocity": 0.7874015748031497
        },
        {
          "duration": 0.18404900000000168,
          "durationTicks": 96,
          "midi": 55,
          "name": "G3",
          "ticks": 39648,
          "time": 76.012237,
          "velocity": 0.5669291338582677
        },
        {
          "duration": 0.18404900000000168,
          "durationTicks": 96,
          "midi": 48,
          "name": "C3",
          "ticks": 39648,
          "time": 76.012237,
          "velocity": 0.6929133858267716
        },
        {
          "duration": 0.18404900000000168,
          "durationTicks": 96,
          "midi": 60,
          "name": "C4",
          "ticks": 39648,
          "time": 76.012237,
          "velocity": 0.7874015748031497
        },
        {
          "duration": 0.18404900000000168,
          "durationTicks": 96,
          "midi": 55,
          "name": "G3",
          "ticks": 39744,
          "time": 76.196286,
          "velocity": 0.6929133858267716
        },
        {
          "duration": 0.18404900000000168,
          "durationTicks": 96,
          "midi": 60,
          "name": "C4",
          "ticks": 39744,
          "time": 76.196286,
          "velocity": 0.7874015748031497
        },
        {
          "duration": 0.18404900000000168,
          "durationTicks": 96,
          "midi": 52,
          "name": "E3",
          "ticks": 39744,
          "time": 76.196286,
          "velocity": 0.905511811023622
        },
        {
          "duration": 0.18404900000000168,
          "durationTicks": 96,
          "midi": 64,
          "name": "E4",
          "ticks": 39744,
          "time": 76.196286,
          "velocity": 0.7874015748031497
        },
        {
          "duration": 0.18404899999998747,
          "durationTicks": 96,
          "midi": 55,
          "name": "G3",
          "ticks": 39840,
          "time": 76.380335,
          "velocity": 0.6929133858267716
        },
        {
          "duration": 0.18404899999998747,
          "durationTicks": 96,
          "midi": 60,
          "name": "C4",
          "ticks": 39840,
          "time": 76.380335,
          "velocity": 0.905511811023622
        },
        {
          "duration": 0.18596617708334406,
          "durationTicks": 97,
          "midi": 55,
          "name": "G3",
          "ticks": 39936,
          "time": 76.56438399999999,
          "velocity": 0.6220472440944882
        },
        {
          "duration": 0.18596617708334406,
          "durationTicks": 97,
          "midi": 62,
          "name": "D4",
          "ticks": 39936,
          "time": 76.56438399999999,
          "velocity": 0.6929133858267716
        },
        {
          "duration": 0.18404900000000168,
          "durationTicks": 96,
          "midi": 47,
          "name": "B2",
          "ticks": 39936,
          "time": 76.56438399999999,
          "velocity": 0.905511811023622
        },
        {
          "duration": 0.18404900000000168,
          "durationTicks": 96,
          "midi": 43,
          "name": "G2",
          "ticks": 39936,
          "time": 76.56438399999999,
          "velocity": 0.6929133858267716
        },
        {
          "duration": 0.18404900000000168,
          "durationTicks": 96,
          "midi": 55,
          "name": "G3",
          "ticks": 40032,
          "time": 76.74843299999999,
          "velocity": 0.6220472440944882
        },
        {
          "duration": 0.18404900000000168,
          "durationTicks": 96,
          "midi": 47,
          "name": "B2",
          "ticks": 40032,
          "time": 76.74843299999999,
          "velocity": 0.905511811023622
        },
        {
          "duration": 0.18404900000000168,
          "durationTicks": 96,
          "midi": 62,
          "name": "D4",
          "ticks": 40032,
          "time": 76.74843299999999,
          "velocity": 0.7874015748031497
        },
        {
          "duration": 0.18596617708334406,
          "durationTicks": 97,
          "midi": 55,
          "name": "G3",
          "ticks": 40128,
          "time": 76.932482,
          "velocity": 0.7874015748031497
        },
        {
          "duration": 0.18404900000000168,
          "durationTicks": 96,
          "midi": 62,
          "name": "D4",
          "ticks": 40128,
          "time": 76.932482,
          "velocity": 0.905511811023622
        },
        {
          "duration": 0.18404900000000168,
          "durationTicks": 96,
          "midi": 67,
          "name": "G4",
          "ticks": 40128,
          "time": 76.932482,
          "velocity": 0.905511811023622
        },
        {
          "duration": 0.18404900000000168,
          "durationTicks": 96,
          "midi": 43,
          "name": "G2",
          "ticks": 40128,
          "time": 76.932482,
          "velocity": 1
        },
        {
          "duration": 0.18404900000000168,
          "durationTicks": 96,
          "midi": 55,
          "name": "G3",
          "ticks": 40224,
          "time": 77.116531,
          "velocity": 0.6929133858267716
        },
        {
          "duration": 0.18404900000000168,
          "durationTicks": 96,
          "midi": 47,
          "name": "B2",
          "ticks": 40224,
          "time": 77.116531,
          "velocity": 0.6929133858267716
        },
        {
          "duration": 0.18404900000000168,
          "durationTicks": 96,
          "midi": 62,
          "name": "D4",
          "ticks": 40224,
          "time": 77.116531,
          "velocity": 0.6929133858267716
        },
        {
          "duration": 0.18404900000000168,
          "durationTicks": 96,
          "midi": 55,
          "name": "G3",
          "ticks": 40320,
          "time": 77.30058,
          "velocity": 0.6220472440944882
        },
        {
          "duration": 0.18596617708332985,
          "durationTicks": 97,
          "midi": 48,
          "name": "C3",
          "ticks": 40320,
          "time": 77.30058,
          "velocity": 0.905511811023622
        },
        {
          "duration": 0.18404900000000168,
          "durationTicks": 96,
          "midi": 64,
          "name": "E4",
          "ticks": 40320,
          "time": 77.30058,
          "velocity": 0.6929133858267716
        },
        {
          "duration": 0.18596617708332985,
          "durationTicks": 97,
          "midi": 60,
          "name": "C4",
          "ticks": 40320,
          "time": 77.30058,
          "velocity": 0.7874015748031497
        },
        {
          "duration": 0.18404900000000168,
          "durationTicks": 96,
          "midi": 55,
          "name": "G3",
          "ticks": 40416,
          "time": 77.484629,
          "velocity": 0.6220472440944882
        },
        {
          "duration": 0.18404900000000168,
          "durationTicks": 96,
          "midi": 48,
          "name": "C3",
          "ticks": 40416,
          "time": 77.484629,
          "velocity": 0.6929133858267716
        },
        {
          "duration": 0.18404900000000168,
          "durationTicks": 96,
          "midi": 60,
          "name": "C4",
          "ticks": 40416,
          "time": 77.484629,
          "velocity": 0.6220472440944882
        },
        {
          "duration": 0.18404900000000168,
          "durationTicks": 96,
          "midi": 64,
          "name": "E4",
          "ticks": 40416,
          "time": 77.484629,
          "velocity": 0.6929133858267716
        },
        {
          "duration": 0.18404900000000168,
          "durationTicks": 96,
          "midi": 55,
          "name": "G3",
          "ticks": 40512,
          "time": 77.668678,
          "velocity": 0.6929133858267716
        },
        {
          "duration": 0.18404900000000168,
          "durationTicks": 96,
          "midi": 60,
          "name": "C4",
          "ticks": 40512,
          "time": 77.668678,
          "velocity": 0.905511811023622
        },
        {
          "duration": 0.18404900000000168,
          "durationTicks": 96,
          "midi": 52,
          "name": "E3",
          "ticks": 40512,
          "time": 77.668678,
          "velocity": 0.7874015748031497
        },
        {
          "duration": 0.18404899999998747,
          "durationTicks": 96,
          "midi": 55,
          "name": "G3",
          "ticks": 40608,
          "time": 77.852727,
          "velocity": 0.6220472440944882
        },
        {
          "duration": 0.18404899999998747,
          "durationTicks": 96,
          "midi": 64,
          "name": "E4",
          "ticks": 40608,
          "time": 77.852727,
          "velocity": 0.905511811023622
        },
        {
          "duration": 0.18404899999998747,
          "durationTicks": 96,
          "midi": 48,
          "name": "C3",
          "ticks": 40608,
          "time": 77.852727,
          "velocity": 0.6929133858267716
        },
        {
          "duration": 0.18404900000000168,
          "durationTicks": 96,
          "midi": 43,
          "name": "G2",
          "ticks": 40704,
          "time": 78.03677599999999,
          "velocity": 0.7874015748031497
        },
        {
          "duration": 0.18404900000000168,
          "durationTicks": 96,
          "midi": 55,
          "name": "G3",
          "ticks": 40704,
          "time": 78.03677599999999,
          "velocity": 0.6929133858267716
        },
        {
          "duration": 0.18404900000000168,
          "durationTicks": 96,
          "midi": 62,
          "name": "D4",
          "ticks": 40704,
          "time": 78.03677599999999,
          "velocity": 0.7874015748031497
        },
        {
          "duration": 0.18404900000000168,
          "durationTicks": 96,
          "midi": 47,
          "name": "B2",
          "ticks": 40704,
          "time": 78.03677599999999,
          "velocity": 0.6929133858267716
        },
        {
          "duration": 0.18404900000000168,
          "durationTicks": 96,
          "midi": 47,
          "name": "B2",
          "ticks": 40800,
          "time": 78.22082499999999,
          "velocity": 0.6929133858267716
        },
        {
          "duration": 0.18596617708334406,
          "durationTicks": 97,
          "midi": 55,
          "name": "G3",
          "ticks": 40800,
          "time": 78.22082499999999,
          "velocity": 0.6929133858267716
        },
        {
          "duration": 0.18404900000000168,
          "durationTicks": 96,
          "midi": 62,
          "name": "D4",
          "ticks": 40800,
          "time": 78.22082499999999,
          "velocity": 0.6220472440944882
        },
        {
          "duration": 0.18404900000000168,
          "durationTicks": 96,
          "midi": 43,
          "name": "G2",
          "ticks": 40800,
          "time": 78.22082499999999,
          "velocity": 0.6929133858267716
        },
        {
          "duration": 0.18404900000000168,
          "durationTicks": 96,
          "midi": 67,
          "name": "G4",
          "ticks": 40896,
          "time": 78.40487399999999,
          "velocity": 0.905511811023622
        },
        {
          "duration": 0.18404900000000168,
          "durationTicks": 96,
          "midi": 47,
          "name": "B2",
          "ticks": 40896,
          "time": 78.40487399999999,
          "velocity": 0.905511811023622
        },
        {
          "duration": 0.18404900000000168,
          "durationTicks": 96,
          "midi": 55,
          "name": "G3",
          "ticks": 40896,
          "time": 78.40487399999999,
          "velocity": 0.905511811023622
        },
        {
          "duration": 0.18404900000000168,
          "durationTicks": 96,
          "midi": 62,
          "name": "D4",
          "ticks": 40896,
          "time": 78.40487399999999,
          "velocity": 0.905511811023622
        },
        {
          "duration": 0.18404900000000168,
          "durationTicks": 96,
          "midi": 50,
          "name": "D3",
          "ticks": 40896,
          "time": 78.40487399999999,
          "velocity": 0.905511811023622
        },
        {
          "duration": 0.18404900000000168,
          "durationTicks": 96,
          "midi": 47,
          "name": "B2",
          "ticks": 40992,
          "time": 78.588923,
          "velocity": 1
        },
        {
          "duration": 0.18404900000000168,
          "durationTicks": 96,
          "midi": 50,
          "name": "D3",
          "ticks": 40992,
          "time": 78.588923,
          "velocity": 0.7874015748031497
        },
        {
          "duration": 0.18404900000000168,
          "durationTicks": 96,
          "midi": 62,
          "name": "D4",
          "ticks": 40992,
          "time": 78.588923,
          "velocity": 0.905511811023622
        },
        {
          "duration": 0.18596617708334406,
          "durationTicks": 97,
          "midi": 55,
          "name": "G3",
          "ticks": 40992,
          "time": 78.588923,
          "velocity": 0.6220472440944882
        },
        {
          "duration": 0.18404900000000168,
          "durationTicks": 96,
          "midi": 64,
          "name": "E4",
          "ticks": 41088,
          "time": 78.772972,
          "velocity": 0.7874015748031497
        },
        {
          "duration": 0.18404900000000168,
          "durationTicks": 96,
          "midi": 55,
          "name": "G3",
          "ticks": 41088,
          "time": 78.772972,
          "velocity": 0.6220472440944882
        },
        {
          "duration": 0.18404900000000168,
          "durationTicks": 96,
          "midi": 48,
          "name": "C3",
          "ticks": 41088,
          "time": 78.772972,
          "velocity": 0.7874015748031497
        },
        {
          "duration": 0.18596617708332985,
          "durationTicks": 97,
          "midi": 60,
          "name": "C4",
          "ticks": 41088,
          "time": 78.772972,
          "velocity": 0.7874015748031497
        },
        {
          "duration": 0.18404900000000168,
          "durationTicks": 96,
          "midi": 55,
          "name": "G3",
          "ticks": 41184,
          "time": 78.957021,
          "velocity": 0.5669291338582677
        },
        {
          "duration": 0.18404900000000168,
          "durationTicks": 96,
          "midi": 48,
          "name": "C3",
          "ticks": 41184,
          "time": 78.957021,
          "velocity": 0.6929133858267716
        },
        {
          "duration": 0.18404900000000168,
          "durationTicks": 96,
          "midi": 60,
          "name": "C4",
          "ticks": 41184,
          "time": 78.957021,
          "velocity": 0.7874015748031497
        },
        {
          "duration": 0.18404900000000168,
          "durationTicks": 96,
          "midi": 64,
          "name": "E4",
          "ticks": 41184,
          "time": 78.957021,
          "velocity": 0.7874015748031497
        },
        {
          "duration": 0.18404900000000168,
          "durationTicks": 96,
          "midi": 64,
          "name": "E4",
          "ticks": 41280,
          "time": 79.14107,
          "velocity": 0.7874015748031497
        },
        {
          "duration": 0.18404900000000168,
          "durationTicks": 96,
          "midi": 55,
          "name": "G3",
          "ticks": 41280,
          "time": 79.14107,
          "velocity": 0.6929133858267716
        },
        {
          "duration": 0.18404900000000168,
          "durationTicks": 96,
          "midi": 60,
          "name": "C4",
          "ticks": 41280,
          "time": 79.14107,
          "velocity": 0.7874015748031497
        },
        {
          "duration": 0.18404900000000168,
          "durationTicks": 96,
          "midi": 52,
          "name": "E3",
          "ticks": 41280,
          "time": 79.14107,
          "velocity": 0.905511811023622
        },
        {
          "duration": 0.18404900000000168,
          "durationTicks": 96,
          "midi": 55,
          "name": "G3",
          "ticks": 41376,
          "time": 79.325119,
          "velocity": 0.6929133858267716
        },
        {
          "duration": 0.18404900000000168,
          "durationTicks": 96,
          "midi": 60,
          "name": "C4",
          "ticks": 41376,
          "time": 79.325119,
          "velocity": 0.905511811023622
        },
        {
          "duration": 0.18404899999998747,
          "durationTicks": 96,
          "midi": 55,
          "name": "G3",
          "ticks": 41472,
          "time": 79.509168,
          "velocity": 0.6220472440944882
        },
        {
          "duration": 0.18404899999998747,
          "durationTicks": 96,
          "midi": 43,
          "name": "G2",
          "ticks": 41472,
          "time": 79.509168,
          "velocity": 0.6929133858267716
        },
        {
          "duration": 0.18404899999998747,
          "durationTicks": 96,
          "midi": 62,
          "name": "D4",
          "ticks": 41472,
          "time": 79.509168,
          "velocity": 0.6929133858267716
        },
        {
          "duration": 0.18404899999998747,
          "durationTicks": 96,
          "midi": 47,
          "name": "B2",
          "ticks": 41472,
          "time": 79.509168,
          "velocity": 0.905511811023622
        },
        {
          "duration": 0.18404900000000168,
          "durationTicks": 96,
          "midi": 47,
          "name": "B2",
          "ticks": 41568,
          "time": 79.69321699999999,
          "velocity": 0.905511811023622
        },
        {
          "duration": 0.18404900000000168,
          "durationTicks": 96,
          "midi": 55,
          "name": "G3",
          "ticks": 41568,
          "time": 79.69321699999999,
          "velocity": 0.6220472440944882
        },
        {
          "duration": 0.18404900000000168,
          "durationTicks": 96,
          "midi": 62,
          "name": "D4",
          "ticks": 41568,
          "time": 79.69321699999999,
          "velocity": 0.7874015748031497
        },
        {
          "duration": 0.18596617708334406,
          "durationTicks": 97,
          "midi": 55,
          "name": "G3",
          "ticks": 41664,
          "time": 79.87726599999999,
          "velocity": 0.7874015748031497
        },
        {
          "duration": 0.18404900000000168,
          "durationTicks": 96,
          "midi": 62,
          "name": "D4",
          "ticks": 41664,
          "time": 79.87726599999999,
          "velocity": 0.905511811023622
        },
        {
          "duration": 0.18404900000000168,
          "durationTicks": 96,
          "midi": 67,
          "name": "G4",
          "ticks": 41664,
          "time": 79.87726599999999,
          "velocity": 0.905511811023622
        },
        {
          "duration": 0.18404900000000168,
          "durationTicks": 96,
          "midi": 43,
          "name": "G2",
          "ticks": 41664,
          "time": 79.87726599999999,
          "velocity": 1
        },
        {
          "duration": 0.18404900000000168,
          "durationTicks": 96,
          "midi": 62,
          "name": "D4",
          "ticks": 41760,
          "time": 80.061315,
          "velocity": 0.6929133858267716
        },
        {
          "duration": 0.18404900000000168,
          "durationTicks": 96,
          "midi": 47,
          "name": "B2",
          "ticks": 41760,
          "time": 80.061315,
          "velocity": 0.6929133858267716
        },
        {
          "duration": 0.18596617708334406,
          "durationTicks": 97,
          "midi": 55,
          "name": "G3",
          "ticks": 41760,
          "time": 80.061315,
          "velocity": 0.6929133858267716
        },
        {
          "duration": 0.18404900000000168,
          "durationTicks": 96,
          "midi": 60,
          "name": "C4",
          "ticks": 41856,
          "time": 80.245364,
          "velocity": 0.7874015748031497
        },
        {
          "duration": 0.18404900000000168,
          "durationTicks": 96,
          "midi": 64,
          "name": "E4",
          "ticks": 41856,
          "time": 80.245364,
          "velocity": 0.6929133858267716
        },
        {
          "duration": 0.18404900000000168,
          "durationTicks": 96,
          "midi": 48,
          "name": "C3",
          "ticks": 41856,
          "time": 80.245364,
          "velocity": 0.905511811023622
        },
        {
          "duration": 0.18404900000000168,
          "durationTicks": 96,
          "midi": 55,
          "name": "G3",
          "ticks": 41856,
          "time": 80.245364,
          "velocity": 0.6220472440944882
        },
        {
          "duration": 0.18404900000000168,
          "durationTicks": 96,
          "midi": 64,
          "name": "E4",
          "ticks": 41952,
          "time": 80.429413,
          "velocity": 0.6929133858267716
        },
        {
          "duration": 0.18596617708332985,
          "durationTicks": 97,
          "midi": 60,
          "name": "C4",
          "ticks": 41952,
          "time": 80.429413,
          "velocity": 0.6220472440944882
        },
        {
          "duration": 0.18404900000000168,
          "durationTicks": 96,
          "midi": 55,
          "name": "G3",
          "ticks": 41952,
          "time": 80.429413,
          "velocity": 0.6220472440944882
        },
        {
          "duration": 0.18404900000000168,
          "durationTicks": 96,
          "midi": 48,
          "name": "C3",
          "ticks": 41952,
          "time": 80.429413,
          "velocity": 0.6929133858267716
        },
        {
          "duration": 0.18404900000000168,
          "durationTicks": 96,
          "midi": 52,
          "name": "E3",
          "ticks": 42048,
          "time": 80.613462,
          "velocity": 0.7874015748031497
        },
        {
          "duration": 0.18404900000000168,
          "durationTicks": 96,
          "midi": 55,
          "name": "G3",
          "ticks": 42048,
          "time": 80.613462,
          "velocity": 0.6929133858267716
        },
        {
          "duration": 0.18404900000000168,
          "durationTicks": 96,
          "midi": 60,
          "name": "C4",
          "ticks": 42048,
          "time": 80.613462,
          "velocity": 0.905511811023622
        },
        {
          "duration": 0.18404900000000168,
          "durationTicks": 96,
          "midi": 55,
          "name": "G3",
          "ticks": 42144,
          "time": 80.797511,
          "velocity": 0.6220472440944882
        },
        {
          "duration": 0.18404900000000168,
          "durationTicks": 96,
          "midi": 64,
          "name": "E4",
          "ticks": 42144,
          "time": 80.797511,
          "velocity": 0.905511811023622
        },
        {
          "duration": 0.18404900000000168,
          "durationTicks": 96,
          "midi": 48,
          "name": "C3",
          "ticks": 42144,
          "time": 80.797511,
          "velocity": 0.6929133858267716
        },
        {
          "duration": 0.18404899999998747,
          "durationTicks": 96,
          "midi": 43,
          "name": "G2",
          "ticks": 42240,
          "time": 80.98156,
          "velocity": 0.7874015748031497
        },
        {
          "duration": 0.18596617708332985,
          "durationTicks": 97,
          "midi": 55,
          "name": "G3",
          "ticks": 42240,
          "time": 80.98156,
          "velocity": 0.6929133858267716
        },
        {
          "duration": 0.18404899999998747,
          "durationTicks": 96,
          "midi": 47,
          "name": "B2",
          "ticks": 42240,
          "time": 80.98156,
          "velocity": 0.6929133858267716
        },
        {
          "duration": 0.18404899999998747,
          "durationTicks": 96,
          "midi": 62,
          "name": "D4",
          "ticks": 42240,
          "time": 80.98156,
          "velocity": 0.7874015748031497
        },
        {
          "duration": 0.18404900000000168,
          "durationTicks": 96,
          "midi": 62,
          "name": "D4",
          "ticks": 42336,
          "time": 81.16560899999999,
          "velocity": 0.6220472440944882
        },
        {
          "duration": 0.18404900000000168,
          "durationTicks": 96,
          "midi": 43,
          "name": "G2",
          "ticks": 42336,
          "time": 81.16560899999999,
          "velocity": 0.6929133858267716
        },
        {
          "duration": 0.18404900000000168,
          "durationTicks": 96,
          "midi": 47,
          "name": "B2",
          "ticks": 42336,
          "time": 81.16560899999999,
          "velocity": 0.6929133858267716
        },
        {
          "duration": 0.18404900000000168,
          "durationTicks": 96,
          "midi": 55,
          "name": "G3",
          "ticks": 42336,
          "time": 81.16560899999999,
          "velocity": 0.6929133858267716
        },
        {
          "duration": 0.18404900000000168,
          "durationTicks": 96,
          "midi": 62,
          "name": "D4",
          "ticks": 42432,
          "time": 81.34965799999999,
          "velocity": 0.905511811023622
        },
        {
          "duration": 0.18404900000000168,
          "durationTicks": 96,
          "midi": 55,
          "name": "G3",
          "ticks": 42432,
          "time": 81.34965799999999,
          "velocity": 0.905511811023622
        },
        {
          "duration": 0.18404900000000168,
          "durationTicks": 96,
          "midi": 47,
          "name": "B2",
          "ticks": 42432,
          "time": 81.34965799999999,
          "velocity": 0.905511811023622
        },
        {
          "duration": 0.18404900000000168,
          "durationTicks": 96,
          "midi": 67,
          "name": "G4",
          "ticks": 42432,
          "time": 81.34965799999999,
          "velocity": 0.905511811023622
        },
        {
          "duration": 0.18404900000000168,
          "durationTicks": 96,
          "midi": 50,
          "name": "D3",
          "ticks": 42432,
          "time": 81.34965799999999,
          "velocity": 0.905511811023622
        },
        {
          "duration": 0.18404900000000168,
          "durationTicks": 96,
          "midi": 47,
          "name": "B2",
          "ticks": 42528,
          "time": 81.53370699999999,
          "velocity": 1
        },
        {
          "duration": 0.18404900000000168,
          "durationTicks": 96,
          "midi": 62,
          "name": "D4",
          "ticks": 42528,
          "time": 81.53370699999999,
          "velocity": 0.905511811023622
        },
        {
          "duration": 0.18404900000000168,
          "durationTicks": 96,
          "midi": 50,
          "name": "D3",
          "ticks": 42528,
          "time": 81.53370699999999,
          "velocity": 0.7874015748031497
        },
        {
          "duration": 0.18404900000000168,
          "durationTicks": 96,
          "midi": 55,
          "name": "G3",
          "ticks": 42528,
          "time": 81.53370699999999,
          "velocity": 0.6220472440944882
        },
        {
          "duration": 0.18596617708334406,
          "durationTicks": 97,
          "midi": 55,
          "name": "G3",
          "ticks": 42624,
          "time": 81.717756,
          "velocity": 0.6220472440944882
        },
        {
          "duration": 0.18404900000000168,
          "durationTicks": 96,
          "midi": 48,
          "name": "C3",
          "ticks": 42624,
          "time": 81.717756,
          "velocity": 0.7874015748031497
        },
        {
          "duration": 0.18596617708334406,
          "durationTicks": 97,
          "midi": 60,
          "name": "C4",
          "ticks": 42624,
          "time": 81.717756,
          "velocity": 0.7874015748031497
        },
        {
          "duration": 0.18404900000000168,
          "durationTicks": 96,
          "midi": 64,
          "name": "E4",
          "ticks": 42624,
          "time": 81.717756,
          "velocity": 0.7874015748031497
        },
        {
          "duration": 0.18404900000000168,
          "durationTicks": 96,
          "midi": 48,
          "name": "C3",
          "ticks": 42720,
          "time": 81.901805,
          "velocity": 0.6929133858267716
        },
        {
          "duration": 0.18404900000000168,
          "durationTicks": 96,
          "midi": 64,
          "name": "E4",
          "ticks": 42720,
          "time": 81.901805,
          "velocity": 0.7874015748031497
        },
        {
          "duration": 0.18404900000000168,
          "durationTicks": 96,
          "midi": 60,
          "name": "C4",
          "ticks": 42720,
          "time": 81.901805,
          "velocity": 0.7874015748031497
        },
        {
          "duration": 0.18404900000000168,
          "durationTicks": 96,
          "midi": 55,
          "name": "G3",
          "ticks": 42720,
          "time": 81.901805,
          "velocity": 0.5669291338582677
        },
        {
          "duration": 0.18404900000000168,
          "durationTicks": 96,
          "midi": 60,
          "name": "C4",
          "ticks": 42816,
          "time": 82.085854,
          "velocity": 0.7874015748031497
        },
        {
          "duration": 0.18596617708332985,
          "durationTicks": 97,
          "midi": 55,
          "name": "G3",
          "ticks": 42816,
          "time": 82.085854,
          "velocity": 0.6929133858267716
        },
        {
          "duration": 0.18404900000000168,
          "durationTicks": 96,
          "midi": 64,
          "name": "E4",
          "ticks": 42816,
          "time": 82.085854,
          "velocity": 0.7874015748031497
        },
        {
          "duration": 0.18404900000000168,
          "durationTicks": 96,
          "midi": 52,
          "name": "E3",
          "ticks": 42816,
          "time": 82.085854,
          "velocity": 0.905511811023622
        },
        {
          "duration": 0.18404900000000168,
          "durationTicks": 96,
          "midi": 55,
          "name": "G3",
          "ticks": 42912,
          "time": 82.269903,
          "velocity": 0.6929133858267716
        },
        {
          "duration": 0.18404900000000168,
          "durationTicks": 96,
          "midi": 60,
          "name": "C4",
          "ticks": 42912,
          "time": 82.269903,
          "velocity": 0.905511811023622
        },
        {
          "duration": 0.18404900000000168,
          "durationTicks": 96,
          "midi": 47,
          "name": "B2",
          "ticks": 43008,
          "time": 82.453952,
          "velocity": 0.905511811023622
        },
        {
          "duration": 0.18404900000000168,
          "durationTicks": 96,
          "midi": 43,
          "name": "G2",
          "ticks": 43008,
          "time": 82.453952,
          "velocity": 0.6929133858267716
        },
        {
          "duration": 0.18404900000000168,
          "durationTicks": 96,
          "midi": 62,
          "name": "D4",
          "ticks": 43008,
          "time": 82.453952,
          "velocity": 0.6929133858267716
        },
        {
          "duration": 0.18404900000000168,
          "durationTicks": 96,
          "midi": 55,
          "name": "G3",
          "ticks": 43008,
          "time": 82.453952,
          "velocity": 0.6220472440944882
        },
        {
          "duration": 0.18404899999998747,
          "durationTicks": 96,
          "midi": 62,
          "name": "D4",
          "ticks": 43104,
          "time": 82.638001,
          "velocity": 0.7874015748031497
        },
        {
          "duration": 0.18404899999998747,
          "durationTicks": 96,
          "midi": 47,
          "name": "B2",
          "ticks": 43104,
          "time": 82.638001,
          "velocity": 0.905511811023622
        },
        {
          "duration": 0.18404899999998747,
          "durationTicks": 96,
          "midi": 55,
          "name": "G3",
          "ticks": 43104,
          "time": 82.638001,
          "velocity": 0.6220472440944882
        },
        {
          "duration": 0.18404900000000168,
          "durationTicks": 96,
          "midi": 43,
          "name": "G2",
          "ticks": 43200,
          "time": 82.82204999999999,
          "velocity": 1
        },
        {
          "duration": 0.18404900000000168,
          "durationTicks": 96,
          "midi": 55,
          "name": "G3",
          "ticks": 43200,
          "time": 82.82204999999999,
          "velocity": 0.7874015748031497
        },
        {
          "duration": 0.18404900000000168,
          "durationTicks": 96,
          "midi": 67,
          "name": "G4",
          "ticks": 43200,
          "time": 82.82204999999999,
          "velocity": 0.905511811023622
        },
        {
          "duration": 0.18404900000000168,
          "durationTicks": 96,
          "midi": 62,
          "name": "D4",
          "ticks": 43200,
          "time": 82.82204999999999,
          "velocity": 0.905511811023622
        },
        {
          "duration": 0.18404900000000168,
          "durationTicks": 96,
          "midi": 62,
          "name": "D4",
          "ticks": 43296,
          "time": 83.00609899999999,
          "velocity": 0.6929133858267716
        },
        {
          "duration": 0.18404900000000168,
          "durationTicks": 96,
          "midi": 47,
          "name": "B2",
          "ticks": 43296,
          "time": 83.00609899999999,
          "velocity": 0.6929133858267716
        },
        {
          "duration": 0.18404900000000168,
          "durationTicks": 96,
          "midi": 55,
          "name": "G3",
          "ticks": 43296,
          "time": 83.00609899999999,
          "velocity": 0.6929133858267716
        },
        {
          "duration": 0.18404900000000168,
          "durationTicks": 96,
          "midi": 48,
          "name": "C3",
          "ticks": 43392,
          "time": 83.190148,
          "velocity": 0.905511811023622
        },
        {
          "duration": 0.18404900000000168,
          "durationTicks": 96,
          "midi": 55,
          "name": "G3",
          "ticks": 43392,
          "time": 83.190148,
          "velocity": 0.6220472440944882
        },
        {
          "duration": 0.18404900000000168,
          "durationTicks": 96,
          "midi": 64,
          "name": "E4",
          "ticks": 43392,
          "time": 83.190148,
          "velocity": 0.6929133858267716
        },
        {
          "duration": 0.18404900000000168,
          "durationTicks": 96,
          "midi": 60,
          "name": "C4",
          "ticks": 43392,
          "time": 83.190148,
          "velocity": 0.7874015748031497
        },
        {
          "duration": 0.18404900000000168,
          "durationTicks": 96,
          "midi": 48,
          "name": "C3",
          "ticks": 43488,
          "time": 83.374197,
          "velocity": 0.6929133858267716
        },
        {
          "duration": 0.18404900000000168,
          "durationTicks": 96,
          "midi": 60,
          "name": "C4",
          "ticks": 43488,
          "time": 83.374197,
          "velocity": 0.6220472440944882
        },
        {
          "duration": 0.18404900000000168,
          "durationTicks": 96,
          "midi": 64,
          "name": "E4",
          "ticks": 43488,
          "time": 83.374197,
          "velocity": 0.6929133858267716
        },
        {
          "duration": 0.18596617708334406,
          "durationTicks": 97,
          "midi": 55,
          "name": "G3",
          "ticks": 43488,
          "time": 83.374197,
          "velocity": 0.6220472440944882
        },
        {
          "duration": 0.18404900000000168,
          "durationTicks": 96,
          "midi": 60,
          "name": "C4",
          "ticks": 43584,
          "time": 83.558246,
          "velocity": 0.905511811023622
        },
        {
          "duration": 0.18404900000000168,
          "durationTicks": 96,
          "midi": 52,
          "name": "E3",
          "ticks": 43584,
          "time": 83.558246,
          "velocity": 0.7874015748031497
        },
        {
          "duration": 0.18404900000000168,
          "durationTicks": 96,
          "midi": 55,
          "name": "G3",
          "ticks": 43584,
          "time": 83.558246,
          "velocity": 0.6929133858267716
        },
        {
          "duration": 0.18404900000000168,
          "durationTicks": 96,
          "midi": 55,
          "name": "G3",
          "ticks": 43680,
          "time": 83.742295,
          "velocity": 0.6220472440944882
        },
        {
          "duration": 0.18404900000000168,
          "durationTicks": 96,
          "midi": 64,
          "name": "E4",
          "ticks": 43680,
          "time": 83.742295,
          "velocity": 0.905511811023622
        },
        {
          "duration": 0.18404900000000168,
          "durationTicks": 96,
          "midi": 48,
          "name": "C3",
          "ticks": 43680,
          "time": 83.742295,
          "velocity": 0.6929133858267716
        },
        {
          "duration": 0.18596617708332985,
          "durationTicks": 97,
          "midi": 55,
          "name": "G3",
          "ticks": 43776,
          "time": 83.926344,
          "velocity": 0.6929133858267716
        },
        {
          "duration": 0.18404900000000168,
          "durationTicks": 96,
          "midi": 47,
          "name": "B2",
          "ticks": 43776,
          "time": 83.926344,
          "velocity": 0.6929133858267716
        },
        {
          "duration": 0.18404900000000168,
          "durationTicks": 96,
          "midi": 62,
          "name": "D4",
          "ticks": 43776,
          "time": 83.926344,
          "velocity": 0.7874015748031497
        },
        {
          "duration": 0.18404900000000168,
          "durationTicks": 96,
          "midi": 43,
          "name": "G2",
          "ticks": 43776,
          "time": 83.926344,
          "velocity": 0.7874015748031497
        },
        {
          "duration": 0.18404899999998747,
          "durationTicks": 96,
          "midi": 62,
          "name": "D4",
          "ticks": 43872,
          "time": 84.110393,
          "velocity": 0.6220472440944882
        },
        {
          "duration": 0.18404899999998747,
          "durationTicks": 96,
          "midi": 55,
          "name": "G3",
          "ticks": 43872,
          "time": 84.110393,
          "velocity": 0.6929133858267716
        },
        {
          "duration": 0.18404899999998747,
          "durationTicks": 96,
          "midi": 43,
          "name": "G2",
          "ticks": 43872,
          "time": 84.110393,
          "velocity": 0.6929133858267716
        },
        {
          "duration": 0.18404899999998747,
          "durationTicks": 96,
          "midi": 47,
          "name": "B2",
          "ticks": 43872,
          "time": 84.110393,
          "velocity": 0.6929133858267716
        },
        {
          "duration": 0.18404900000000168,
          "durationTicks": 96,
          "midi": 55,
          "name": "G3",
          "ticks": 43968,
          "time": 84.29444199999999,
          "velocity": 0.905511811023622
        },
        {
          "duration": 0.18404900000000168,
          "durationTicks": 96,
          "midi": 67,
          "name": "G4",
          "ticks": 43968,
          "time": 84.29444199999999,
          "velocity": 0.905511811023622
        },
        {
          "duration": 0.18404900000000168,
          "durationTicks": 96,
          "midi": 50,
          "name": "D3",
          "ticks": 43968,
          "time": 84.29444199999999,
          "velocity": 0.905511811023622
        },
        {
          "duration": 0.18404900000000168,
          "durationTicks": 96,
          "midi": 47,
          "name": "B2",
          "ticks": 43968,
          "time": 84.29444199999999,
          "velocity": 0.905511811023622
        },
        {
          "duration": 0.18596617708334406,
          "durationTicks": 97,
          "midi": 62,
          "name": "D4",
          "ticks": 43968,
          "time": 84.29444199999999,
          "velocity": 0.905511811023622
        },
        {
          "duration": 0.18404900000000168,
          "durationTicks": 96,
          "midi": 55,
          "name": "G3",
          "ticks": 44064,
          "time": 84.47849099999999,
          "velocity": 0.6220472440944882
        },
        {
          "duration": 0.18404900000000168,
          "durationTicks": 96,
          "midi": 50,
          "name": "D3",
          "ticks": 44064,
          "time": 84.47849099999999,
          "velocity": 0.7874015748031497
        },
        {
          "duration": 0.18404900000000168,
          "durationTicks": 96,
          "midi": 62,
          "name": "D4",
          "ticks": 44064,
          "time": 84.47849099999999,
          "velocity": 0.905511811023622
        },
        {
          "duration": 0.18404900000000168,
          "durationTicks": 96,
          "midi": 47,
          "name": "B2",
          "ticks": 44064,
          "time": 84.47849099999999,
          "velocity": 1
        },
        {
          "duration": 0.18404900000000168,
          "durationTicks": 96,
          "midi": 60,
          "name": "C4",
          "ticks": 44160,
          "time": 84.66253999999999,
          "velocity": 0.7874015748031497
        },
        {
          "duration": 0.18404900000000168,
          "durationTicks": 96,
          "midi": 48,
          "name": "C3",
          "ticks": 44160,
          "time": 84.66253999999999,
          "velocity": 0.7874015748031497
        },
        {
          "duration": 0.18404900000000168,
          "durationTicks": 96,
          "midi": 64,
          "name": "E4",
          "ticks": 44160,
          "time": 84.66253999999999,
          "velocity": 0.7874015748031497
        },
        {
          "duration": 0.18404900000000168,
          "durationTicks": 96,
          "midi": 55,
          "name": "G3",
          "ticks": 44160,
          "time": 84.66253999999999,
          "velocity": 0.6220472440944882
        },
        {
          "duration": 0.18404900000000168,
          "durationTicks": 96,
          "midi": 48,
          "name": "C3",
          "ticks": 44256,
          "time": 84.846589,
          "velocity": 0.6929133858267716
        },
        {
          "duration": 0.18404900000000168,
          "durationTicks": 96,
          "midi": 64,
          "name": "E4",
          "ticks": 44256,
          "time": 84.846589,
          "velocity": 0.7874015748031497
        },
        {
          "duration": 0.18596617708334406,
          "durationTicks": 97,
          "midi": 60,
          "name": "C4",
          "ticks": 44256,
          "time": 84.846589,
          "velocity": 0.7874015748031497
        },
        {
          "duration": 0.18404900000000168,
          "durationTicks": 96,
          "midi": 55,
          "name": "G3",
          "ticks": 44256,
          "time": 84.846589,
          "velocity": 0.5669291338582677
        },
        {
          "duration": 0.18404900000000168,
          "durationTicks": 96,
          "midi": 64,
          "name": "E4",
          "ticks": 44352,
          "time": 85.030638,
          "velocity": 0.7874015748031497
        },
        {
          "duration": 0.18404900000000168,
          "durationTicks": 96,
          "midi": 52,
          "name": "E3",
          "ticks": 44352,
          "time": 85.030638,
          "velocity": 0.905511811023622
        },
        {
          "duration": 0.18596617708332985,
          "durationTicks": 97,
          "midi": 60,
          "name": "C4",
          "ticks": 44352,
          "time": 85.030638,
          "velocity": 0.7874015748031497
        },
        {
          "duration": 0.18404900000000168,
          "durationTicks": 96,
          "midi": 55,
          "name": "G3",
          "ticks": 44352,
          "time": 85.030638,
          "velocity": 0.6929133858267716
        },
        {
          "duration": 0.18404900000000168,
          "durationTicks": 96,
          "midi": 55,
          "name": "G3",
          "ticks": 44448,
          "time": 85.214687,
          "velocity": 0.6929133858267716
        },
        {
          "duration": 0.18404900000000168,
          "durationTicks": 96,
          "midi": 60,
          "name": "C4",
          "ticks": 44448,
          "time": 85.214687,
          "velocity": 0.905511811023622
        },
        {
          "duration": 0.18404900000000168,
          "durationTicks": 96,
          "midi": 55,
          "name": "G3",
          "ticks": 44544,
          "time": 85.398736,
          "velocity": 0.6220472440944882
        },
        {
          "duration": 0.18404900000000168,
          "durationTicks": 96,
          "midi": 62,
          "name": "D4",
          "ticks": 44544,
          "time": 85.398736,
          "velocity": 0.6929133858267716
        },
        {
          "duration": 0.18404900000000168,
          "durationTicks": 96,
          "midi": 47,
          "name": "B2",
          "ticks": 44544,
          "time": 85.398736,
          "velocity": 0.905511811023622
        },
        {
          "duration": 0.18404900000000168,
          "durationTicks": 96,
          "midi": 43,
          "name": "G2",
          "ticks": 44544,
          "time": 85.398736,
          "velocity": 0.6929133858267716
        },
        {
          "duration": 0.18404899999998747,
          "durationTicks": 96,
          "midi": 62,
          "name": "D4",
          "ticks": 44640,
          "time": 85.582785,
          "velocity": 0.7874015748031497
        },
        {
          "duration": 0.18404899999998747,
          "durationTicks": 96,
          "midi": 55,
          "name": "G3",
          "ticks": 44640,
          "time": 85.582785,
          "velocity": 0.6220472440944882
        },
        {
          "duration": 0.18404899999998747,
          "durationTicks": 96,
          "midi": 47,
          "name": "B2",
          "ticks": 44640,
          "time": 85.582785,
          "velocity": 0.905511811023622
        },
        {
          "duration": 0.18404900000000168,
          "durationTicks": 96,
          "midi": 67,
          "name": "G4",
          "ticks": 44736,
          "time": 85.76683399999999,
          "velocity": 0.905511811023622
        },
        {
          "duration": 0.18404900000000168,
          "durationTicks": 96,
          "midi": 43,
          "name": "G2",
          "ticks": 44736,
          "time": 85.76683399999999,
          "velocity": 1
        },
        {
          "duration": 0.18596617708334406,
          "durationTicks": 97,
          "midi": 62,
          "name": "D4",
          "ticks": 44736,
          "time": 85.76683399999999,
          "velocity": 0.905511811023622
        },
        {
          "duration": 0.18404900000000168,
          "durationTicks": 96,
          "midi": 55,
          "name": "G3",
          "ticks": 44736,
          "time": 85.76683399999999,
          "velocity": 0.7874015748031497
        },
        {
          "duration": 0.18404900000000168,
          "durationTicks": 96,
          "midi": 55,
          "name": "G3",
          "ticks": 44832,
          "time": 85.95088299999999,
          "velocity": 0.6929133858267716
        },
        {
          "duration": 0.18404900000000168,
          "durationTicks": 96,
          "midi": 47,
          "name": "B2",
          "ticks": 44832,
          "time": 85.95088299999999,
          "velocity": 0.6929133858267716
        },
        {
          "duration": 0.18404900000000168,
          "durationTicks": 96,
          "midi": 62,
          "name": "D4",
          "ticks": 44832,
          "time": 85.95088299999999,
          "velocity": 0.6929133858267716
        },
        {
          "duration": 0.18404900000000168,
          "durationTicks": 96,
          "midi": 55,
          "name": "G3",
          "ticks": 44928,
          "time": 86.13493199999999,
          "velocity": 0.6220472440944882
        },
        {
          "duration": 0.18404900000000168,
          "durationTicks": 96,
          "midi": 64,
          "name": "E4",
          "ticks": 44928,
          "time": 86.13493199999999,
          "velocity": 0.6929133858267716
        },
        {
          "duration": 0.18404900000000168,
          "durationTicks": 96,
          "midi": 60,
          "name": "C4",
          "ticks": 44928,
          "time": 86.13493199999999,
          "velocity": 0.7874015748031497
        },
        {
          "duration": 0.18404900000000168,
          "durationTicks": 96,
          "midi": 48,
          "name": "C3",
          "ticks": 44928,
          "time": 86.13493199999999,
          "velocity": 0.905511811023622
        },
        {
          "duration": 0.18404900000000168,
          "durationTicks": 96,
          "midi": 60,
          "name": "C4",
          "ticks": 45024,
          "time": 86.318981,
          "velocity": 0.6220472440944882
        },
        {
          "duration": 0.18404900000000168,
          "durationTicks": 96,
          "midi": 48,
          "name": "C3",
          "ticks": 45024,
          "time": 86.318981,
          "velocity": 0.6929133858267716
        },
        {
          "duration": 0.18596617708334406,
          "durationTicks": 97,
          "midi": 55,
          "name": "G3",
          "ticks": 45024,
          "time": 86.318981,
          "velocity": 0.6220472440944882
        },
        {
          "duration": 0.18404900000000168,
          "durationTicks": 96,
          "midi": 64,
          "name": "E4",
          "ticks": 45024,
          "time": 86.318981,
          "velocity": 0.6929133858267716
        },
        {
          "duration": 0.18404900000000168,
          "durationTicks": 96,
          "midi": 60,
          "name": "C4",
          "ticks": 45120,
          "time": 86.50303,
          "velocity": 0.905511811023622
        },
        {
          "duration": 0.18596617708332985,
          "durationTicks": 97,
          "midi": 55,
          "name": "G3",
          "ticks": 45120,
          "time": 86.50303,
          "velocity": 0.6929133858267716
        },
        {
          "duration": 0.18404900000000168,
          "durationTicks": 96,
          "midi": 52,
          "name": "E3",
          "ticks": 45120,
          "time": 86.50303,
          "velocity": 0.7874015748031497
        },
        {
          "duration": 0.18404900000000168,
          "durationTicks": 96,
          "midi": 48,
          "name": "C3",
          "ticks": 45216,
          "time": 86.687079,
          "velocity": 0.6929133858267716
        },
        {
          "duration": 0.18596617708332985,
          "durationTicks": 97,
          "midi": 55,
          "name": "G3",
          "ticks": 45216,
          "time": 86.687079,
          "velocity": 0.6220472440944882
        },
        {
          "duration": 0.18404900000000168,
          "durationTicks": 96,
          "midi": 64,
          "name": "E4",
          "ticks": 45216,
          "time": 86.687079,
          "velocity": 0.905511811023622
        },
        {
          "duration": 0.18404900000000168,
          "durationTicks": 96,
          "midi": 50,
          "name": "D3",
          "ticks": 45312,
          "time": 86.871128,
          "velocity": 0.7874015748031497
        },
        {
          "duration": 0.18404900000000168,
          "durationTicks": 96,
          "midi": 62,
          "name": "D4",
          "ticks": 45312,
          "time": 86.871128,
          "velocity": 1
        },
        {
          "duration": 0.18404900000000168,
          "durationTicks": 96,
          "midi": 47,
          "name": "B2",
          "ticks": 45312,
          "time": 86.871128,
          "velocity": 1
        },
        {
          "duration": 0.18404900000000168,
          "durationTicks": 96,
          "midi": 43,
          "name": "G2",
          "ticks": 45312,
          "time": 86.871128,
          "velocity": 1
        },
        {
          "duration": 0.18404900000000168,
          "durationTicks": 96,
          "midi": 55,
          "name": "G3",
          "ticks": 45312,
          "time": 86.871128,
          "velocity": 0.6929133858267716
        },
        {
          "duration": 1.2710884062500014,
          "durationTicks": 663,
          "midi": 48,
          "name": "C3",
          "ticks": 46086,
          "time": 88.3550230625,
          "velocity": 1
        },
        {
          "duration": 1.121548593749992,
          "durationTicks": 585,
          "midi": 60,
          "name": "C4",
          "ticks": 46090,
          "time": 88.36269177083334,
          "velocity": 1
        },
        {
          "duration": 1.1445547187500011,
          "durationTicks": 597,
          "midi": 55,
          "name": "G3",
          "ticks": 46092,
          "time": 88.366526125,
          "velocity": 1
        },
        {
          "duration": 1.088956583333328,
          "durationTicks": 568,
          "midi": 64,
          "name": "E4",
          "ticks": 46096,
          "time": 88.37419483333333,
          "velocity": 0.905511811023622
        },
        {
          "duration": 1.3631129062499951,
          "durationTicks": 711,
          "midi": 43,
          "name": "G2",
          "ticks": 46809,
          "time": 89.74114209375,
          "velocity": 0.7874015748031497
        },
        {
          "duration": 1.3075147708333361,
          "durationTicks": 682,
          "midi": 47,
          "name": "B2",
          "ticks": 46830,
          "time": 89.78140281249999,
          "velocity": 0.6929133858267716
        },
        {
          "duration": 1.345858312499999,
          "durationTicks": 702,
          "midi": 50,
          "name": "D3",
          "ticks": 46841,
          "time": 89.80249176041666,
          "velocity": 0.905511811023622
        },
        {
          "duration": 1.2710884062500014,
          "durationTicks": 663,
          "midi": 55,
          "name": "G3",
          "ticks": 46865,
          "time": 89.84850401041666,
          "velocity": 0.6220472440944882
        },
        {
          "duration": 1.2116559166666718,
          "durationTicks": 632,
          "midi": 62,
          "name": "D4",
          "ticks": 46883,
          "time": 89.88301319791665,
          "velocity": 1
        },
        {
          "duration": 1.2269933333333256,
          "durationTicks": 640,
          "midi": 41,
          "name": "F2",
          "ticks": 47617,
          "time": 91.29022117708334,
          "velocity": 1
        },
        {
          "duration": 1.3343552499999873,
          "durationTicks": 696,
          "midi": 53,
          "name": "F3",
          "ticks": 47624,
          "time": 91.30364141666666,
          "velocity": 0.905511811023622
        },
        {
          "duration": 1.2960117083333245,
          "durationTicks": 676,
          "midi": 48,
          "name": "C3",
          "ticks": 47626,
          "time": 91.30747577083334,
          "velocity": 0.905511811023622
        },
        {
          "duration": 1.3324380729166734,
          "durationTicks": 695,
          "midi": 60,
          "name": "C4",
          "ticks": 47628,
          "time": 91.31131012499999,
          "velocity": 0.905511811023622
        },
        {
          "duration": 0.18404900000000168,
          "durationTicks": 96,
          "midi": 48,
          "name": "C3",
          "ticks": 48384,
          "time": 92.760696,
          "velocity": 0.952755905511811
        },
        {
          "duration": 0.18404900000000168,
          "durationTicks": 96,
          "midi": 50,
          "name": "D3",
          "ticks": 48480,
          "time": 92.944745,
          "velocity": 0.952755905511811
        },
        {
          "duration": 0.09202449999999374,
          "durationTicks": 48,
          "midi": 53,
          "name": "F3",
          "ticks": 48576,
          "time": 93.128794,
          "velocity": 0.952755905511811
        },
        {
          "duration": 0.18404899999998747,
          "durationTicks": 96,
          "midi": 48,
          "name": "C3",
          "ticks": 48672,
          "time": 93.312843,
          "velocity": 0.952755905511811
        },
        {
          "duration": 0.18404900000000168,
          "durationTicks": 96,
          "midi": 50,
          "name": "D3",
          "ticks": 48768,
          "time": 93.49689199999999,
          "velocity": 0.952755905511811
        },
        {
          "duration": 0.09202450000000795,
          "durationTicks": 48,
          "midi": 53,
          "name": "F3",
          "ticks": 48864,
          "time": 93.68094099999999,
          "velocity": 0.952755905511811
        },
        {
          "duration": 0.18404900000000168,
          "durationTicks": 96,
          "midi": 48,
          "name": "C3",
          "ticks": 48960,
          "time": 93.86498999999999,
          "velocity": 0.952755905511811
        },
        {
          "duration": 0.18404900000000168,
          "durationTicks": 96,
          "midi": 50,
          "name": "D3",
          "ticks": 49056,
          "time": 94.049039,
          "velocity": 0.952755905511811
        },
        {
          "duration": 0.18404900000000168,
          "durationTicks": 96,
          "midi": 48,
          "name": "C3",
          "ticks": 49152,
          "time": 94.233088,
          "velocity": 0.952755905511811
        },
        {
          "duration": 0.18404900000000168,
          "durationTicks": 96,
          "midi": 50,
          "name": "D3",
          "ticks": 49248,
          "time": 94.417137,
          "velocity": 0.952755905511811
        },
        {
          "duration": 0.09202449999999374,
          "durationTicks": 48,
          "midi": 53,
          "name": "F3",
          "ticks": 49344,
          "time": 94.601186,
          "velocity": 0.952755905511811
        },
        {
          "duration": 0.18404900000000168,
          "durationTicks": 96,
          "midi": 48,
          "name": "C3",
          "ticks": 49440,
          "time": 94.785235,
          "velocity": 0.952755905511811
        },
        {
          "duration": 0.18404899999998747,
          "durationTicks": 96,
          "midi": 50,
          "name": "D3",
          "ticks": 49536,
          "time": 94.969284,
          "velocity": 0.952755905511811
        },
        {
          "duration": 0.09202450000000795,
          "durationTicks": 48,
          "midi": 53,
          "name": "F3",
          "ticks": 49632,
          "time": 95.15333299999999,
          "velocity": 0.952755905511811
        },
        {
          "duration": 0.18404900000000168,
          "durationTicks": 96,
          "midi": 48,
          "name": "C3",
          "ticks": 49728,
          "time": 95.33738199999999,
          "velocity": 0.952755905511811
        },
        {
          "duration": 0.18404900000000168,
          "durationTicks": 96,
          "midi": 50,
          "name": "D3",
          "ticks": 49824,
          "time": 95.52143099999999,
          "velocity": 0.952755905511811
        },
        {
          "duration": 0.18404900000000168,
          "durationTicks": 96,
          "midi": 43,
          "name": "G2",
          "ticks": 49920,
          "time": 95.70548,
          "velocity": 0.6929133858267716
        },
        {
          "duration": 0.18404900000000168,
          "durationTicks": 96,
          "midi": 47,
          "name": "B2",
          "ticks": 49920,
          "time": 95.70548,
          "velocity": 0.7874015748031497
        },
        {
          "duration": 0.18596617708332985,
          "durationTicks": 97,
          "midi": 62,
          "name": "D4",
          "ticks": 49920,
          "time": 95.70548,
          "velocity": 0.6220472440944882
        },
        {
          "duration": 0.18404900000000168,
          "durationTicks": 96,
          "midi": 55,
          "name": "G3",
          "ticks": 49920,
          "time": 95.70548,
          "velocity": 0.6220472440944882
        },
        {
          "duration": 0.18404900000000168,
          "durationTicks": 96,
          "midi": 55,
          "name": "G3",
          "ticks": 50016,
          "time": 95.889529,
          "velocity": 0.905511811023622
        },
        {
          "duration": 0.18404900000000168,
          "durationTicks": 96,
          "midi": 62,
          "name": "D4",
          "ticks": 50016,
          "time": 95.889529,
          "velocity": 0.7874015748031497
        },
        {
          "duration": 0.18404900000000168,
          "durationTicks": 96,
          "midi": 55,
          "name": "G3",
          "ticks": 50112,
          "time": 96.073578,
          "velocity": 0.7874015748031497
        },
        {
          "duration": 0.18404900000000168,
          "durationTicks": 96,
          "midi": 67,
          "name": "G4",
          "ticks": 50112,
          "time": 96.073578,
          "velocity": 0.905511811023622
        },
        {
          "duration": 0.18404900000000168,
          "durationTicks": 96,
          "midi": 62,
          "name": "D4",
          "ticks": 50112,
          "time": 96.073578,
          "velocity": 0.7874015748031497
        },
        {
          "duration": 0.18404900000000168,
          "durationTicks": 96,
          "midi": 47,
          "name": "B2",
          "ticks": 50112,
          "time": 96.073578,
          "velocity": 0.905511811023622
        },
        {
          "duration": 0.18404900000000168,
          "durationTicks": 96,
          "midi": 55,
          "name": "G3",
          "ticks": 50208,
          "time": 96.257627,
          "velocity": 0.7874015748031497
        },
        {
          "duration": 0.18404900000000168,
          "durationTicks": 96,
          "midi": 47,
          "name": "B2",
          "ticks": 50208,
          "time": 96.257627,
          "velocity": 0.6929133858267716
        },
        {
          "duration": 0.18404900000000168,
          "durationTicks": 96,
          "midi": 62,
          "name": "D4",
          "ticks": 50208,
          "time": 96.257627,
          "velocity": 0.6220472440944882
        },
        {
          "duration": 0.18404900000000168,
          "durationTicks": 96,
          "midi": 50,
          "name": "D3",
          "ticks": 50208,
          "time": 96.257627,
          "velocity": 0.6220472440944882
        },
        {
          "duration": 0.18404899999998747,
          "durationTicks": 96,
          "midi": 55,
          "name": "G3",
          "ticks": 50304,
          "time": 96.441676,
          "velocity": 0.6929133858267716
        },
        {
          "duration": 0.18404899999998747,
          "durationTicks": 96,
          "midi": 50,
          "name": "D3",
          "ticks": 50304,
          "time": 96.441676,
          "velocity": 0.5669291338582677
        },
        {
          "duration": 0.18596617708331564,
          "durationTicks": 97,
          "midi": 47,
          "name": "B2",
          "ticks": 50304,
          "time": 96.441676,
          "velocity": 0.6929133858267716
        },
        {
          "duration": 0.18404899999998747,
          "durationTicks": 96,
          "midi": 43,
          "name": "G2",
          "ticks": 50304,
          "time": 96.441676,
          "velocity": 0.6220472440944882
        },
        {
          "duration": 0.18404900000000168,
          "durationTicks": 96,
          "midi": 50,
          "name": "D3",
          "ticks": 50400,
          "time": 96.62572499999999,
          "velocity": 0.6929133858267716
        },
        {
          "duration": 0.18404900000000168,
          "durationTicks": 96,
          "midi": 55,
          "name": "G3",
          "ticks": 50400,
          "time": 96.62572499999999,
          "velocity": 0.6929133858267716
        },
        {
          "duration": 0.18404900000000168,
          "durationTicks": 96,
          "midi": 47,
          "name": "B2",
          "ticks": 50400,
          "time": 96.62572499999999,
          "velocity": 0.7874015748031497
        },
        {
          "duration": 0.18404900000000168,
          "durationTicks": 96,
          "midi": 50,
          "name": "D3",
          "ticks": 50496,
          "time": 96.80977399999999,
          "velocity": 0.7874015748031497
        },
        {
          "duration": 0.18404900000000168,
          "durationTicks": 96,
          "midi": 55,
          "name": "G3",
          "ticks": 50496,
          "time": 96.80977399999999,
          "velocity": 0.905511811023622
        },
        {
          "duration": 0.18404900000000168,
          "durationTicks": 96,
          "midi": 62,
          "name": "D4",
          "ticks": 50496,
          "time": 96.80977399999999,
          "velocity": 0.6929133858267716
        },
        {
          "duration": 0.18404900000000168,
          "durationTicks": 96,
          "midi": 50,
          "name": "D3",
          "ticks": 50592,
          "time": 96.99382299999999,
          "velocity": 0.6929133858267716
        },
        {
          "duration": 0.18404900000000168,
          "durationTicks": 96,
          "midi": 55,
          "name": "G3",
          "ticks": 50592,
          "time": 96.99382299999999,
          "velocity": 0.7874015748031497
        },
        {
          "duration": 0.18404900000000168,
          "durationTicks": 96,
          "midi": 57,
          "name": "A3",
          "ticks": 50688,
          "time": 97.177872,
          "velocity": 0.4645669291338583
        },
        {
          "duration": 0.18404900000000168,
          "durationTicks": 96,
          "midi": 50,
          "name": "D3",
          "ticks": 50688,
          "time": 97.177872,
          "velocity": 0.7874015748031497
        },
        {
          "duration": 0.18404900000000168,
          "durationTicks": 96,
          "midi": 62,
          "name": "D4",
          "ticks": 50688,
          "time": 97.177872,
          "velocity": 0.5669291338582677
        },
        {
          "duration": 0.18404900000000168,
          "durationTicks": 96,
          "midi": 66,
          "name": "F#4",
          "ticks": 50688,
          "time": 97.177872,
          "velocity": 0.5826771653543307
        },
        {
          "duration": 0.18404900000000168,
          "durationTicks": 96,
          "midi": 57,
          "name": "A3",
          "ticks": 50784,
          "time": 97.361921,
          "velocity": 0.49606299212598426
        },
        {
          "duration": 0.18404900000000168,
          "durationTicks": 96,
          "midi": 62,
          "name": "D4",
          "ticks": 50784,
          "time": 97.361921,
          "velocity": 0.7874015748031497
        },
        {
          "duration": 0.18404900000000168,
          "durationTicks": 96,
          "midi": 57,
          "name": "A3",
          "ticks": 50880,
          "time": 97.54597,
          "velocity": 0.905511811023622
        },
        {
          "duration": 0.18596617708332985,
          "durationTicks": 97,
          "midi": 62,
          "name": "D4",
          "ticks": 50880,
          "time": 97.54597,
          "velocity": 0.905511811023622
        },
        {
          "duration": 0.18404900000000168,
          "durationTicks": 96,
          "midi": 66,
          "name": "F#4",
          "ticks": 50880,
          "time": 97.54597,
          "velocity": 1
        },
        {
          "duration": 0.18404900000000168,
          "durationTicks": 96,
          "midi": 50,
          "name": "D3",
          "ticks": 50880,
          "time": 97.54597,
          "velocity": 0.905511811023622
        },
        {
          "duration": 0.18404900000000168,
          "durationTicks": 96,
          "midi": 57,
          "name": "A3",
          "ticks": 50976,
          "time": 97.730019,
          "velocity": 0.6220472440944882
        },
        {
          "duration": 0.18404900000000168,
          "durationTicks": 96,
          "midi": 62,
          "name": "D4",
          "ticks": 50976,
          "time": 97.730019,
          "velocity": 0.7874015748031497
        },
        {
          "duration": 0.18404899999998747,
          "durationTicks": 96,
          "midi": 57,
          "name": "A3",
          "ticks": 51072,
          "time": 97.914068,
          "velocity": 0.5669291338582677
        },
        {
          "duration": 0.18404899999998747,
          "durationTicks": 96,
          "midi": 62,
          "name": "D4",
          "ticks": 51072,
          "time": 97.914068,
          "velocity": 0.7874015748031497
        },
        {
          "duration": 0.18404899999998747,
          "durationTicks": 96,
          "midi": 50,
          "name": "D3",
          "ticks": 51072,
          "time": 97.914068,
          "velocity": 0.7874015748031497
        },
        {
          "duration": 0.18404900000000168,
          "durationTicks": 96,
          "midi": 62,
          "name": "D4",
          "ticks": 51168,
          "time": 98.09811699999999,
          "velocity": 0.6929133858267716
        },
        {
          "duration": 0.18404900000000168,
          "durationTicks": 96,
          "midi": 57,
          "name": "A3",
          "ticks": 51168,
          "time": 98.09811699999999,
          "velocity": 0.5669291338582677
        },
        {
          "duration": 0.18404900000000168,
          "durationTicks": 96,
          "midi": 66,
          "name": "F#4",
          "ticks": 51264,
          "time": 98.28216599999999,
          "velocity": 0.8110236220472441
        },
        {
          "duration": 0.18596617708332985,
          "durationTicks": 97,
          "midi": 62,
          "name": "D4",
          "ticks": 51264,
          "time": 98.28216599999999,
          "velocity": 0.7874015748031497
        },
        {
          "duration": 0.18404900000000168,
          "durationTicks": 96,
          "midi": 50,
          "name": "D3",
          "ticks": 51264,
          "time": 98.28216599999999,
          "velocity": 0.7874015748031497
        },
        {
          "duration": 0.18404900000000168,
          "durationTicks": 96,
          "midi": 57,
          "name": "A3",
          "ticks": 51264,
          "time": 98.28216599999999,
          "velocity": 0.7874015748031497
        },
        {
          "duration": 0.18404900000000168,
          "durationTicks": 96,
          "midi": 57,
          "name": "A3",
          "ticks": 51360,
          "time": 98.46621499999999,
          "velocity": 0.5669291338582677
        },
        {
          "duration": 0.18404900000000168,
          "durationTicks": 96,
          "midi": 62,
          "name": "D4",
          "ticks": 51360,
          "time": 98.46621499999999,
          "velocity": 0.7874015748031497
        },
        {
          "duration": 0.18404900000000168,
          "durationTicks": 96,
          "midi": 47,
          "name": "B2",
          "ticks": 51456,
          "time": 98.65026399999999,
          "velocity": 0.905511811023622
        },
        {
          "duration": 0.18596617708332985,
          "durationTicks": 97,
          "midi": 55,
          "name": "G3",
          "ticks": 51456,
          "time": 98.65026399999999,
          "velocity": 0.6929133858267716
        },
        {
          "duration": 0.18404900000000168,
          "durationTicks": 96,
          "midi": 43,
          "name": "G2",
          "ticks": 51456,
          "time": 98.65026399999999,
          "velocity": 0.7874015748031497
        },
        {
          "duration": 0.18404900000000168,
          "durationTicks": 96,
          "midi": 62,
          "name": "D4",
          "ticks": 51456,
          "time": 98.65026399999999,
          "velocity": 0.7874015748031497
        },
        {
          "duration": 0.18404900000000168,
          "durationTicks": 96,
          "midi": 55,
          "name": "G3",
          "ticks": 51552,
          "time": 98.834313,
          "velocity": 0.6929133858267716
        },
        {
          "duration": 0.18404900000000168,
          "durationTicks": 96,
          "midi": 62,
          "name": "D4",
          "ticks": 51552,
          "time": 98.834313,
          "velocity": 0.7874015748031497
        },
        {
          "duration": 0.18404900000000168,
          "durationTicks": 96,
          "midi": 55,
          "name": "G3",
          "ticks": 51648,
          "time": 99.018362,
          "velocity": 0.7874015748031497
        },
        {
          "duration": 0.18404900000000168,
          "durationTicks": 96,
          "midi": 50,
          "name": "D3",
          "ticks": 51648,
          "time": 99.018362,
          "velocity": 0.905511811023622
        },
        {
          "duration": 0.18404900000000168,
          "durationTicks": 96,
          "midi": 67,
          "name": "G4",
          "ticks": 51648,
          "time": 99.018362,
          "velocity": 0.905511811023622
        },
        {
          "duration": 0.18404900000000168,
          "durationTicks": 96,
          "midi": 47,
          "name": "B2",
          "ticks": 51648,
          "time": 99.018362,
          "velocity": 0.6929133858267716
        },
        {
          "duration": 0.18404900000000168,
          "durationTicks": 96,
          "midi": 55,
          "name": "G3",
          "ticks": 51744,
          "time": 99.202411,
          "velocity": 0.6929133858267716
        },
        {
          "duration": 0.18404900000000168,
          "durationTicks": 96,
          "midi": 62,
          "name": "D4",
          "ticks": 51744,
          "time": 99.202411,
          "velocity": 0.7874015748031497
        },
        {
          "duration": 0.18404900000000168,
          "durationTicks": 96,
          "midi": 47,
          "name": "B2",
          "ticks": 51840,
          "time": 99.38646,
          "velocity": 0.6929133858267716
        },
        {
          "duration": 0.18404900000000168,
          "durationTicks": 96,
          "midi": 50,
          "name": "D3",
          "ticks": 51840,
          "time": 99.38646,
          "velocity": 0.6929133858267716
        },
        {
          "duration": 0.18596617708331564,
          "durationTicks": 97,
          "midi": 62,
          "name": "D4",
          "ticks": 51840,
          "time": 99.38646,
          "velocity": 0.905511811023622
        },
        {
          "duration": 0.18404900000000168,
          "durationTicks": 96,
          "midi": 43,
          "name": "G2",
          "ticks": 51840,
          "time": 99.38646,
          "velocity": 0.7874015748031497
        },
        {
          "duration": 0.18404900000000168,
          "durationTicks": 96,
          "midi": 55,
          "name": "G3",
          "ticks": 51840,
          "time": 99.38646,
          "velocity": 0.6929133858267716
        },
        {
          "duration": 0.18404899999998747,
          "durationTicks": 96,
          "midi": 62,
          "name": "D4",
          "ticks": 51936,
          "time": 99.570509,
          "velocity": 0.905511811023622
        },
        {
          "duration": 0.18404899999998747,
          "durationTicks": 96,
          "midi": 55,
          "name": "G3",
          "ticks": 51936,
          "time": 99.570509,
          "velocity": 0.6929133858267716
        },
        {
          "duration": 0.18596617708332985,
          "durationTicks": 97,
          "midi": 55,
          "name": "G3",
          "ticks": 52032,
          "time": 99.75455799999999,
          "velocity": 0.7874015748031497
        },
        {
          "duration": 0.18404900000000168,
          "durationTicks": 96,
          "midi": 47,
          "name": "B2",
          "ticks": 52032,
          "time": 99.75455799999999,
          "velocity": 0.6929133858267716
        },
        {
          "duration": 0.18596617708332985,
          "durationTicks": 97,
          "midi": 62,
          "name": "D4",
          "ticks": 52032,
          "time": 99.75455799999999,
          "velocity": 0.6220472440944882
        },
        {
          "duration": 0.18404900000000168,
          "durationTicks": 96,
          "midi": 67,
          "name": "G4",
          "ticks": 52032,
          "time": 99.75455799999999,
          "velocity": 0.7874015748031497
        },
        {
          "duration": 0.18404900000000168,
          "durationTicks": 96,
          "midi": 50,
          "name": "D3",
          "ticks": 52032,
          "time": 99.75455799999999,
          "velocity": 0.6929133858267716
        },
        {
          "duration": 0.18404900000000168,
          "durationTicks": 96,
          "midi": 62,
          "name": "D4",
          "ticks": 52128,
          "time": 99.93860699999999,
          "velocity": 0.7874015748031497
        },
        {
          "duration": 0.18404900000000168,
          "durationTicks": 96,
          "midi": 55,
          "name": "G3",
          "ticks": 52128,
          "time": 99.93860699999999,
          "velocity": 0.7874015748031497
        },
        {
          "duration": 0.18404900000000168,
          "durationTicks": 96,
          "midi": 62,
          "name": "D4",
          "ticks": 52224,
          "time": 100.12265599999999,
          "velocity": 1
        },
        {
          "duration": 0.18404900000000168,
          "durationTicks": 96,
          "midi": 43,
          "name": "G2",
          "ticks": 52224,
          "time": 100.12265599999999,
          "velocity": 0.905511811023622
        },
        {
          "duration": 0.18404900000000168,
          "durationTicks": 96,
          "midi": 55,
          "name": "G3",
          "ticks": 52224,
          "time": 100.12265599999999,
          "velocity": 0.7874015748031497
        },
        {
          "duration": 0.18404900000000168,
          "durationTicks": 96,
          "midi": 47,
          "name": "B2",
          "ticks": 52224,
          "time": 100.12265599999999,
          "velocity": 0.7874015748031497
        },
        {
          "duration": 0.18404900000000168,
          "durationTicks": 96,
          "midi": 55,
          "name": "G3",
          "ticks": 52320,
          "time": 100.306705,
          "velocity": 0.6929133858267716
        },
        {
          "duration": 0.18404900000000168,
          "durationTicks": 96,
          "midi": 62,
          "name": "D4",
          "ticks": 52320,
          "time": 100.306705,
          "velocity": 0.6929133858267716
        },
        {
          "duration": 0.18404900000000168,
          "durationTicks": 96,
          "midi": 55,
          "name": "G3",
          "ticks": 52416,
          "time": 100.490754,
          "velocity": 0.7874015748031497
        },
        {
          "duration": 0.18404900000000168,
          "durationTicks": 96,
          "midi": 50,
          "name": "D3",
          "ticks": 52416,
          "time": 100.490754,
          "velocity": 0.6929133858267716
        },
        {
          "duration": 0.18404900000000168,
          "durationTicks": 96,
          "midi": 67,
          "name": "G4",
          "ticks": 52416,
          "time": 100.490754,
          "velocity": 0.905511811023622
        },
        {
          "duration": 0.18404900000000168,
          "durationTicks": 96,
          "midi": 47,
          "name": "B2",
          "ticks": 52416,
          "time": 100.490754,
          "velocity": 0.7874015748031497
        },
        {
          "duration": 0.18404900000000168,
          "durationTicks": 96,
          "midi": 55,
          "name": "G3",
          "ticks": 52512,
          "time": 100.674803,
          "velocity": 0.6929133858267716
        },
        {
          "duration": 0.18404900000000168,
          "durationTicks": 96,
          "midi": 62,
          "name": "D4",
          "ticks": 52512,
          "time": 100.674803,
          "velocity": 0.905511811023622
        },
        {
          "duration": 0.18404900000000168,
          "durationTicks": 96,
          "midi": 47,
          "name": "B2",
          "ticks": 52608,
          "time": 100.858852,
          "velocity": 0.7874015748031497
        },
        {
          "duration": 0.18404900000000168,
          "durationTicks": 96,
          "midi": 62,
          "name": "D4",
          "ticks": 52608,
          "time": 100.858852,
          "velocity": 0.7874015748031497
        },
        {
          "duration": 0.18404900000000168,
          "durationTicks": 96,
          "midi": 55,
          "name": "G3",
          "ticks": 52608,
          "time": 100.858852,
          "velocity": 0.6929133858267716
        },
        {
          "duration": 0.18404900000000168,
          "durationTicks": 96,
          "midi": 43,
          "name": "G2",
          "ticks": 52608,
          "time": 100.858852,
          "velocity": 0.6929133858267716
        },
        {
          "duration": 0.18404899999998747,
          "durationTicks": 96,
          "midi": 55,
          "name": "G3",
          "ticks": 52704,
          "time": 101.042901,
          "velocity": 0.6220472440944882
        },
        {
          "duration": 0.18404899999998747,
          "durationTicks": 96,
          "midi": 62,
          "name": "D4",
          "ticks": 52704,
          "time": 101.042901,
          "velocity": 0.7874015748031497
        },
        {
          "duration": 0.18404900000000168,
          "durationTicks": 96,
          "midi": 67,
          "name": "G4",
          "ticks": 52800,
          "time": 101.22694999999999,
          "velocity": 1
        },
        {
          "duration": 0.18404900000000168,
          "durationTicks": 96,
          "midi": 50,
          "name": "D3",
          "ticks": 52800,
          "time": 101.22694999999999,
          "velocity": 0.7874015748031497
        },
        {
          "duration": 0.18404900000000168,
          "durationTicks": 96,
          "midi": 47,
          "name": "B2",
          "ticks": 52800,
          "time": 101.22694999999999,
          "velocity": 0.905511811023622
        },
        {
          "duration": 0.18404900000000168,
          "durationTicks": 96,
          "midi": 62,
          "name": "D4",
          "ticks": 52800,
          "time": 101.22694999999999,
          "velocity": 0.6220472440944882
        },
        {
          "duration": 0.18404900000000168,
          "durationTicks": 96,
          "midi": 55,
          "name": "G3",
          "ticks": 52800,
          "time": 101.22694999999999,
          "velocity": 0.7874015748031497
        },
        {
          "duration": 0.18404900000000168,
          "durationTicks": 96,
          "midi": 62,
          "name": "D4",
          "ticks": 52896,
          "time": 101.41099899999999,
          "velocity": 0.6220472440944882
        },
        {
          "duration": 0.18404900000000168,
          "durationTicks": 96,
          "midi": 50,
          "name": "D3",
          "ticks": 52896,
          "time": 101.41099899999999,
          "velocity": 1
        },
        {
          "duration": 0.18404900000000168,
          "durationTicks": 96,
          "midi": 55,
          "name": "G3",
          "ticks": 52896,
          "time": 101.41099899999999,
          "velocity": 0.7874015748031497
        },
        {
          "duration": 0.18404900000000168,
          "durationTicks": 96,
          "midi": 43,
          "name": "G2",
          "ticks": 52992,
          "time": 101.59504799999999,
          "velocity": 0.6929133858267716
        },
        {
          "duration": 0.18404900000000168,
          "durationTicks": 96,
          "midi": 62,
          "name": "D4",
          "ticks": 52992,
          "time": 101.59504799999999,
          "velocity": 0.6220472440944882
        },
        {
          "duration": 0.18404900000000168,
          "durationTicks": 96,
          "midi": 47,
          "name": "B2",
          "ticks": 52992,
          "time": 101.59504799999999,
          "velocity": 0.7874015748031497
        },
        {
          "duration": 0.18404900000000168,
          "durationTicks": 96,
          "midi": 55,
          "name": "G3",
          "ticks": 52992,
          "time": 101.59504799999999,
          "velocity": 0.6220472440944882
        },
        {
          "duration": 0.18404900000000168,
          "durationTicks": 96,
          "midi": 55,
          "name": "G3",
          "ticks": 53088,
          "time": 101.779097,
          "velocity": 0.905511811023622
        },
        {
          "duration": 0.18404900000000168,
          "durationTicks": 96,
          "midi": 62,
          "name": "D4",
          "ticks": 53088,
          "time": 101.779097,
          "velocity": 0.7874015748031497
        },
        {
          "duration": 0.18404900000000168,
          "durationTicks": 96,
          "midi": 62,
          "name": "D4",
          "ticks": 53184,
          "time": 101.963146,
          "velocity": 0.7874015748031497
        },
        {
          "duration": 0.18404900000000168,
          "durationTicks": 96,
          "midi": 55,
          "name": "G3",
          "ticks": 53184,
          "time": 101.963146,
          "velocity": 0.7874015748031497
        },
        {
          "duration": 0.18404900000000168,
          "durationTicks": 96,
          "midi": 47,
          "name": "B2",
          "ticks": 53184,
          "time": 101.963146,
          "velocity": 0.905511811023622
        },
        {
          "duration": 0.18404900000000168,
          "durationTicks": 96,
          "midi": 67,
          "name": "G4",
          "ticks": 53184,
          "time": 101.963146,
          "velocity": 0.905511811023622
        },
        {
          "duration": 0.18404900000000168,
          "durationTicks": 96,
          "midi": 47,
          "name": "B2",
          "ticks": 53280,
          "time": 102.147195,
          "velocity": 0.6929133858267716
        },
        {
          "duration": 0.18596617708332985,
          "durationTicks": 97,
          "midi": 55,
          "name": "G3",
          "ticks": 53280,
          "time": 102.147195,
          "velocity": 0.7874015748031497
        },
        {
          "duration": 0.18404900000000168,
          "durationTicks": 96,
          "midi": 62,
          "name": "D4",
          "ticks": 53280,
          "time": 102.147195,
          "velocity": 0.6220472440944882
        },
        {
          "duration": 0.18596617708332985,
          "durationTicks": 97,
          "midi": 50,
          "name": "D3",
          "ticks": 53280,
          "time": 102.147195,
          "velocity": 0.6220472440944882
        },
        {
          "duration": 0.18404900000000168,
          "durationTicks": 96,
          "midi": 43,
          "name": "G2",
          "ticks": 53376,
          "time": 102.331244,
          "velocity": 0.6220472440944882
        },
        {
          "duration": 0.18404900000000168,
          "durationTicks": 96,
          "midi": 47,
          "name": "B2",
          "ticks": 53376,
          "time": 102.331244,
          "velocity": 0.6929133858267716
        },
        {
          "duration": 0.18596617708332985,
          "durationTicks": 97,
          "midi": 50,
          "name": "D3",
          "ticks": 53376,
          "time": 102.331244,
          "velocity": 0.5669291338582677
        },
        {
          "duration": 0.18404900000000168,
          "durationTicks": 96,
          "midi": 55,
          "name": "G3",
          "ticks": 53376,
          "time": 102.331244,
          "velocity": 0.6929133858267716
        },
        {
          "duration": 0.18404900000000168,
          "durationTicks": 96,
          "midi": 55,
          "name": "G3",
          "ticks": 53472,
          "time": 102.515293,
          "velocity": 0.6929133858267716
        },
        {
          "duration": 0.18404900000000168,
          "durationTicks": 96,
          "midi": 50,
          "name": "D3",
          "ticks": 53472,
          "time": 102.515293,
          "velocity": 0.6929133858267716
        },
        {
          "duration": 0.18404900000000168,
          "durationTicks": 96,
          "midi": 47,
          "name": "B2",
          "ticks": 53472,
          "time": 102.515293,
          "velocity": 0.7874015748031497
        },
        {
          "duration": 0.18404899999998747,
          "durationTicks": 96,
          "midi": 50,
          "name": "D3",
          "ticks": 53568,
          "time": 102.699342,
          "velocity": 0.7874015748031497
        },
        {
          "duration": 0.18404899999998747,
          "durationTicks": 96,
          "midi": 62,
          "name": "D4",
          "ticks": 53568,
          "time": 102.699342,
          "velocity": 0.6929133858267716
        },
        {
          "duration": 0.18404899999998747,
          "durationTicks": 96,
          "midi": 55,
          "name": "G3",
          "ticks": 53568,
          "time": 102.699342,
          "velocity": 0.905511811023622
        },
        {
          "duration": 0.18404900000000168,
          "durationTicks": 96,
          "midi": 55,
          "name": "G3",
          "ticks": 53664,
          "time": 102.88339099999999,
          "velocity": 0.7874015748031497
        },
        {
          "duration": 0.18404900000000168,
          "durationTicks": 96,
          "midi": 50,
          "name": "D3",
          "ticks": 53664,
          "time": 102.88339099999999,
          "velocity": 0.6929133858267716
        },
        {
          "duration": 0.18404900000000168,
          "durationTicks": 96,
          "midi": 66,
          "name": "F#4",
          "ticks": 53760,
          "time": 103.06743999999999,
          "velocity": 0.5826771653543307
        },
        {
          "duration": 0.18596617708332985,
          "durationTicks": 97,
          "midi": 62,
          "name": "D4",
          "ticks": 53760,
          "time": 103.06743999999999,
          "velocity": 0.5669291338582677
        },
        {
          "duration": 0.18404900000000168,
          "durationTicks": 96,
          "midi": 57,
          "name": "A3",
          "ticks": 53760,
          "time": 103.06743999999999,
          "velocity": 0.4645669291338583
        },
        {
          "duration": 0.18404900000000168,
          "durationTicks": 96,
          "midi": 50,
          "name": "D3",
          "ticks": 53760,
          "time": 103.06743999999999,
          "velocity": 0.7874015748031497
        },
        {
          "duration": 0.18404900000000168,
          "durationTicks": 96,
          "midi": 62,
          "name": "D4",
          "ticks": 53856,
          "time": 103.25148899999999,
          "velocity": 0.7874015748031497
        },
        {
          "duration": 0.18596617708332985,
          "durationTicks": 97,
          "midi": 57,
          "name": "A3",
          "ticks": 53856,
          "time": 103.25148899999999,
          "velocity": 0.49606299212598426
        },
        {
          "duration": 0.18404900000000168,
          "durationTicks": 96,
          "midi": 66,
          "name": "F#4",
          "ticks": 53952,
          "time": 103.435538,
          "velocity": 1
        },
        {
          "duration": 0.18404900000000168,
          "durationTicks": 96,
          "midi": 62,
          "name": "D4",
          "ticks": 53952,
          "time": 103.435538,
          "velocity": 0.905511811023622
        },
        {
          "duration": 0.18404900000000168,
          "durationTicks": 96,
          "midi": 50,
          "name": "D3",
          "ticks": 53952,
          "time": 103.435538,
          "velocity": 0.905511811023622
        },
        {
          "duration": 0.18404900000000168,
          "durationTicks": 96,
          "midi": 57,
          "name": "A3",
          "ticks": 53952,
          "time": 103.435538,
          "velocity": 0.905511811023622
        },
        {
          "duration": 0.18404900000000168,
          "durationTicks": 96,
          "midi": 57,
          "name": "A3",
          "ticks": 54048,
          "time": 103.619587,
          "velocity": 0.6220472440944882
        },
        {
          "duration": 0.18404900000000168,
          "durationTicks": 96,
          "midi": 62,
          "name": "D4",
          "ticks": 54048,
          "time": 103.619587,
          "velocity": 0.7874015748031497
        },
        {
          "duration": 0.18404900000000168,
          "durationTicks": 96,
          "midi": 50,
          "name": "D3",
          "ticks": 54144,
          "time": 103.803636,
          "velocity": 0.7874015748031497
        },
        {
          "duration": 0.18404900000000168,
          "durationTicks": 96,
          "midi": 57,
          "name": "A3",
          "ticks": 54144,
          "time": 103.803636,
          "velocity": 0.5669291338582677
        },
        {
          "duration": 0.18596617708332985,
          "durationTicks": 97,
          "midi": 62,
          "name": "D4",
          "ticks": 54144,
          "time": 103.803636,
          "velocity": 0.7874015748031497
        },
        {
          "duration": 0.18404900000000168,
          "durationTicks": 96,
          "midi": 62,
          "name": "D4",
          "ticks": 54240,
          "time": 103.987685,
          "velocity": 0.6929133858267716
        },
        {
          "duration": 0.18404900000000168,
          "durationTicks": 96,
          "midi": 57,
          "name": "A3",
          "ticks": 54240,
          "time": 103.987685,
          "velocity": 0.5669291338582677
        },
        {
          "duration": 0.18596617708331564,
          "durationTicks": 97,
          "midi": 62,
          "name": "D4",
          "ticks": 54336,
          "time": 104.171734,
          "velocity": 0.7874015748031497
        },
        {
          "duration": 0.18404899999998747,
          "durationTicks": 96,
          "midi": 57,
          "name": "A3",
          "ticks": 54336,
          "time": 104.171734,
          "velocity": 0.7874015748031497
        },
        {
          "duration": 0.18404899999998747,
          "durationTicks": 96,
          "midi": 66,
          "name": "F#4",
          "ticks": 54336,
          "time": 104.171734,
          "velocity": 0.8110236220472441
        },
        {
          "duration": 0.18404899999998747,
          "durationTicks": 96,
          "midi": 50,
          "name": "D3",
          "ticks": 54336,
          "time": 104.171734,
          "velocity": 0.7874015748031497
        },
        {
          "duration": 0.18404900000000168,
          "durationTicks": 96,
          "midi": 57,
          "name": "A3",
          "ticks": 54432,
          "time": 104.35578299999999,
          "velocity": 0.5669291338582677
        },
        {
          "duration": 0.18404900000000168,
          "durationTicks": 96,
          "midi": 62,
          "name": "D4",
          "ticks": 54432,
          "time": 104.35578299999999,
          "velocity": 0.7874015748031497
        },
        {
          "duration": 0.18404900000000168,
          "durationTicks": 96,
          "midi": 47,
          "name": "B2",
          "ticks": 54528,
          "time": 104.53983199999999,
          "velocity": 0.905511811023622
        },
        {
          "duration": 0.18404900000000168,
          "durationTicks": 96,
          "midi": 62,
          "name": "D4",
          "ticks": 54528,
          "time": 104.53983199999999,
          "velocity": 0.7874015748031497
        },
        {
          "duration": 0.18404900000000168,
          "durationTicks": 96,
          "midi": 55,
          "name": "G3",
          "ticks": 54528,
          "time": 104.53983199999999,
          "velocity": 0.6929133858267716
        },
        {
          "duration": 0.18404900000000168,
          "durationTicks": 96,
          "midi": 43,
          "name": "G2",
          "ticks": 54528,
          "time": 104.53983199999999,
          "velocity": 0.7874015748031497
        },
        {
          "duration": 0.18404900000000168,
          "durationTicks": 96,
          "midi": 55,
          "name": "G3",
          "ticks": 54624,
          "time": 104.72388099999999,
          "velocity": 0.6929133858267716
        },
        {
          "duration": 0.18404900000000168,
          "durationTicks": 96,
          "midi": 62,
          "name": "D4",
          "ticks": 54624,
          "time": 104.72388099999999,
          "velocity": 0.7874015748031497
        },
        {
          "duration": 0.18404900000000168,
          "durationTicks": 96,
          "midi": 67,
          "name": "G4",
          "ticks": 54720,
          "time": 104.90793,
          "velocity": 0.905511811023622
        },
        {
          "duration": 0.18404900000000168,
          "durationTicks": 96,
          "midi": 50,
          "name": "D3",
          "ticks": 54720,
          "time": 104.90793,
          "velocity": 0.905511811023622
        },
        {
          "duration": 0.18404900000000168,
          "durationTicks": 96,
          "midi": 47,
          "name": "B2",
          "ticks": 54720,
          "time": 104.90793,
          "velocity": 0.6929133858267716
        },
        {
          "duration": 0.18596617708332985,
          "durationTicks": 97,
          "midi": 55,
          "name": "G3",
          "ticks": 54720,
          "time": 104.90793,
          "velocity": 0.7874015748031497
        },
        {
          "duration": 0.18404900000000168,
          "durationTicks": 96,
          "midi": 55,
          "name": "G3",
          "ticks": 54816,
          "time": 105.091979,
          "velocity": 0.6929133858267716
        },
        {
          "duration": 0.18404900000000168,
          "durationTicks": 96,
          "midi": 62,
          "name": "D4",
          "ticks": 54816,
          "time": 105.091979,
          "velocity": 0.7874015748031497
        },
        {
          "duration": 0.18596617708332985,
          "durationTicks": 97,
          "midi": 55,
          "name": "G3",
          "ticks": 54912,
          "time": 105.276028,
          "velocity": 0.6929133858267716
        },
        {
          "duration": 0.18404900000000168,
          "durationTicks": 96,
          "midi": 43,
          "name": "G2",
          "ticks": 54912,
          "time": 105.276028,
          "velocity": 0.7874015748031497
        },
        {
          "duration": 0.18404900000000168,
          "durationTicks": 96,
          "midi": 62,
          "name": "D4",
          "ticks": 54912,
          "time": 105.276028,
          "velocity": 0.905511811023622
        },
        {
          "duration": 0.18404900000000168,
          "durationTicks": 96,
          "midi": 50,
          "name": "D3",
          "ticks": 54912,
          "time": 105.276028,
          "velocity": 0.6929133858267716
        },
        {
          "duration": 0.18404900000000168,
          "durationTicks": 96,
          "midi": 47,
          "name": "B2",
          "ticks": 54912,
          "time": 105.276028,
          "velocity": 0.6929133858267716
        },
        {
          "duration": 0.18404900000000168,
          "durationTicks": 96,
          "midi": 62,
          "name": "D4",
          "ticks": 55008,
          "time": 105.460077,
          "velocity": 0.905511811023622
        },
        {
          "duration": 0.18596617708331564,
          "durationTicks": 97,
          "midi": 55,
          "name": "G3",
          "ticks": 55008,
          "time": 105.460077,
          "velocity": 0.6929133858267716
        },
        {
          "duration": 0.18596617708331564,
          "durationTicks": 97,
          "midi": 62,
          "name": "D4",
          "ticks": 55104,
          "time": 105.644126,
          "velocity": 0.6220472440944882
        },
        {
          "duration": 0.18404899999998747,
          "durationTicks": 96,
          "midi": 50,
          "name": "D3",
          "ticks": 55104,
          "time": 105.644126,
          "velocity": 0.6929133858267716
        },
        {
          "duration": 0.18404899999998747,
          "durationTicks": 96,
          "midi": 47,
          "name": "B2",
          "ticks": 55104,
          "time": 105.644126,
          "velocity": 0.6929133858267716
        },
        {
          "duration": 0.18404899999998747,
          "durationTicks": 96,
          "midi": 67,
          "name": "G4",
          "ticks": 55104,
          "time": 105.644126,
          "velocity": 0.7874015748031497
        },
        {
          "duration": 0.18404899999998747,
          "durationTicks": 96,
          "midi": 55,
          "name": "G3",
          "ticks": 55104,
          "time": 105.644126,
          "velocity": 0.7874015748031497
        },
        {
          "duration": 0.18404900000000168,
          "durationTicks": 96,
          "midi": 62,
          "name": "D4",
          "ticks": 55200,
          "time": 105.82817499999999,
          "velocity": 0.7874015748031497
        },
        {
          "duration": 0.18404900000000168,
          "durationTicks": 96,
          "midi": 55,
          "name": "G3",
          "ticks": 55200,
          "time": 105.82817499999999,
          "velocity": 0.7874015748031497
        },
        {
          "duration": 0.18596617708332985,
          "durationTicks": 97,
          "midi": 62,
          "name": "D4",
          "ticks": 55296,
          "time": 106.01222399999999,
          "velocity": 1
        },
        {
          "duration": 0.18404900000000168,
          "durationTicks": 96,
          "midi": 47,
          "name": "B2",
          "ticks": 55296,
          "time": 106.01222399999999,
          "velocity": 0.7874015748031497
        },
        {
          "duration": 0.18404900000000168,
          "durationTicks": 96,
          "midi": 43,
          "name": "G2",
          "ticks": 55296,
          "time": 106.01222399999999,
          "velocity": 0.905511811023622
        },
        {
          "duration": 0.18404900000000168,
          "durationTicks": 96,
          "midi": 55,
          "name": "G3",
          "ticks": 55296,
          "time": 106.01222399999999,
          "velocity": 0.7874015748031497
        },
        {
          "duration": 0.18404900000000168,
          "durationTicks": 96,
          "midi": 62,
          "name": "D4",
          "ticks": 55392,
          "time": 106.19627299999999,
          "velocity": 0.6929133858267716
        },
        {
          "duration": 0.18404900000000168,
          "durationTicks": 96,
          "midi": 55,
          "name": "G3",
          "ticks": 55392,
          "time": 106.19627299999999,
          "velocity": 0.6929133858267716
        },
        {
          "duration": 0.18404900000000168,
          "durationTicks": 96,
          "midi": 55,
          "name": "G3",
          "ticks": 55488,
          "time": 106.38032199999999,
          "velocity": 0.7874015748031497
        },
        {
          "duration": 0.18404900000000168,
          "durationTicks": 96,
          "midi": 67,
          "name": "G4",
          "ticks": 55488,
          "time": 106.38032199999999,
          "velocity": 0.905511811023622
        },
        {
          "duration": 0.18404900000000168,
          "durationTicks": 96,
          "midi": 50,
          "name": "D3",
          "ticks": 55488,
          "time": 106.38032199999999,
          "velocity": 0.6929133858267716
        },
        {
          "duration": 0.18404900000000168,
          "durationTicks": 96,
          "midi": 47,
          "name": "B2",
          "ticks": 55488,
          "time": 106.38032199999999,
          "velocity": 0.7874015748031497
        },
        {
          "duration": 0.18404900000000168,
          "durationTicks": 96,
          "midi": 62,
          "name": "D4",
          "ticks": 55584,
          "time": 106.564371,
          "velocity": 0.905511811023622
        },
        {
          "duration": 0.18404900000000168,
          "durationTicks": 96,
          "midi": 55,
          "name": "G3",
          "ticks": 55584,
          "time": 106.564371,
          "velocity": 0.6929133858267716
        },
        {
          "duration": 0.18596617708332985,
          "durationTicks": 97,
          "midi": 55,
          "name": "G3",
          "ticks": 55680,
          "time": 106.74842,
          "velocity": 0.6929133858267716
        },
        {
          "duration": 0.18404900000000168,
          "durationTicks": 96,
          "midi": 43,
          "name": "G2",
          "ticks": 55680,
          "time": 106.74842,
          "velocity": 0.6929133858267716
        },
        {
          "duration": 0.18404900000000168,
          "durationTicks": 96,
          "midi": 62,
          "name": "D4",
          "ticks": 55680,
          "time": 106.74842,
          "velocity": 0.7874015748031497
        },
        {
          "duration": 0.18404900000000168,
          "durationTicks": 96,
          "midi": 47,
          "name": "B2",
          "ticks": 55680,
          "time": 106.74842,
          "velocity": 0.7874015748031497
        },
        {
          "duration": 0.18404900000000168,
          "durationTicks": 96,
          "midi": 62,
          "name": "D4",
          "ticks": 55776,
          "time": 106.932469,
          "velocity": 0.7874015748031497
        },
        {
          "duration": 0.18404900000000168,
          "durationTicks": 96,
          "midi": 55,
          "name": "G3",
          "ticks": 55776,
          "time": 106.932469,
          "velocity": 0.6220472440944882
        },
        {
          "duration": 0.18404900000000168,
          "durationTicks": 96,
          "midi": 50,
          "name": "D3",
          "ticks": 55872,
          "time": 107.116518,
          "velocity": 0.7874015748031497
        },
        {
          "duration": 0.18404900000000168,
          "durationTicks": 96,
          "midi": 55,
          "name": "G3",
          "ticks": 55872,
          "time": 107.116518,
          "velocity": 0.7874015748031497
        },
        {
          "duration": 0.18404900000000168,
          "durationTicks": 96,
          "midi": 67,
          "name": "G4",
          "ticks": 55872,
          "time": 107.116518,
          "velocity": 1
        },
        {
          "duration": 0.18596617708331564,
          "durationTicks": 97,
          "midi": 62,
          "name": "D4",
          "ticks": 55872,
          "time": 107.116518,
          "velocity": 0.6220472440944882
        },
        {
          "duration": 0.18404900000000168,
          "durationTicks": 96,
          "midi": 47,
          "name": "B2",
          "ticks": 55872,
          "time": 107.116518,
          "velocity": 0.905511811023622
        },
        {
          "duration": 0.18404899999998747,
          "durationTicks": 96,
          "midi": 55,
          "name": "G3",
          "ticks": 55968,
          "time": 107.300567,
          "velocity": 0.7874015748031497
        },
        {
          "duration": 0.18404899999998747,
          "durationTicks": 96,
          "midi": 62,
          "name": "D4",
          "ticks": 55968,
          "time": 107.300567,
          "velocity": 0.6220472440944882
        },
        {
          "duration": 0.18404899999998747,
          "durationTicks": 96,
          "midi": 50,
          "name": "D3",
          "ticks": 55968,
          "time": 107.300567,
          "velocity": 1
        },
        {
          "duration": 0.18404900000000168,
          "durationTicks": 96,
          "midi": 64,
          "name": "E4",
          "ticks": 56064,
          "time": 107.48461599999999,
          "velocity": 0.49606299212598426
        },
        {
          "duration": 0.18596617708332985,
          "durationTicks": 97,
          "midi": 48,
          "name": "C3",
          "ticks": 56064,
          "time": 107.48461599999999,
          "velocity": 0.6220472440944882
        },
        {
          "duration": 0.18596617708332985,
          "durationTicks": 97,
          "midi": 52,
          "name": "E3",
          "ticks": 56064,
          "time": 107.48461599999999,
          "velocity": 0.6929133858267716
        },
        {
          "duration": 0.18404900000000168,
          "durationTicks": 96,
          "midi": 60,
          "name": "C4",
          "ticks": 56064,
          "time": 107.48461599999999,
          "velocity": 0.5669291338582677
        },
        {
          "duration": 0.18404900000000168,
          "durationTicks": 96,
          "midi": 55,
          "name": "G3",
          "ticks": 56064,
          "time": 107.48461599999999,
          "velocity": 0.49606299212598426
        },
        {
          "duration": 0.18404900000000168,
          "durationTicks": 96,
          "midi": 60,
          "name": "C4",
          "ticks": 56160,
          "time": 107.66866499999999,
          "velocity": 0.6220472440944882
        },
        {
          "duration": 0.18404900000000168,
          "durationTicks": 96,
          "midi": 52,
          "name": "E3",
          "ticks": 56160,
          "time": 107.66866499999999,
          "velocity": 0.6220472440944882
        },
        {
          "duration": 0.18596617708332985,
          "durationTicks": 97,
          "midi": 64,
          "name": "E4",
          "ticks": 56160,
          "time": 107.66866499999999,
          "velocity": 0.5275590551181102
        },
        {
          "duration": 0.18404900000000168,
          "durationTicks": 96,
          "midi": 55,
          "name": "G3",
          "ticks": 56160,
          "time": 107.66866499999999,
          "velocity": 0.49606299212598426
        },
        {
          "duration": 0.18404900000000168,
          "durationTicks": 96,
          "midi": 48,
          "name": "C3",
          "ticks": 56160,
          "time": 107.66866499999999,
          "velocity": 0.6929133858267716
        },
        {
          "duration": 0.18404900000000168,
          "durationTicks": 96,
          "midi": 52,
          "name": "E3",
          "ticks": 56256,
          "time": 107.85271399999999,
          "velocity": 0.7874015748031497
        },
        {
          "duration": 0.18404900000000168,
          "durationTicks": 96,
          "midi": 55,
          "name": "G3",
          "ticks": 56256,
          "time": 107.85271399999999,
          "velocity": 0.6929133858267716
        },
        {
          "duration": 0.18596617708332985,
          "durationTicks": 97,
          "midi": 64,
          "name": "E4",
          "ticks": 56256,
          "time": 107.85271399999999,
          "velocity": 0.7874015748031497
        },
        {
          "duration": 0.18596617708332985,
          "durationTicks": 97,
          "midi": 48,
          "name": "C3",
          "ticks": 56256,
          "time": 107.85271399999999,
          "velocity": 0.7874015748031497
        },
        {
          "duration": 0.18596617708332985,
          "durationTicks": 97,
          "midi": 60,
          "name": "C4",
          "ticks": 56256,
          "time": 107.85271399999999,
          "velocity": 0.7874015748031497
        },
        {
          "duration": 0.18404900000000168,
          "durationTicks": 96,
          "midi": 52,
          "name": "E3",
          "ticks": 56352,
          "time": 108.036763,
          "velocity": 0.6220472440944882
        },
        {
          "duration": 0.18404900000000168,
          "durationTicks": 96,
          "midi": 64,
          "name": "E4",
          "ticks": 56352,
          "time": 108.036763,
          "velocity": 0.49606299212598426
        },
        {
          "duration": 0.18404900000000168,
          "durationTicks": 96,
          "midi": 55,
          "name": "G3",
          "ticks": 56352,
          "time": 108.036763,
          "velocity": 0.5275590551181102
        },
        {
          "duration": 0.18596617708332985,
          "durationTicks": 97,
          "midi": 60,
          "name": "C4",
          "ticks": 56352,
          "time": 108.036763,
          "velocity": 0.6220472440944882
        },
        {
          "duration": 0.18404900000000168,
          "durationTicks": 96,
          "midi": 48,
          "name": "C3",
          "ticks": 56352,
          "time": 108.036763,
          "velocity": 0.6220472440944882
        },
        {
          "duration": 0.18404900000000168,
          "durationTicks": 96,
          "midi": 64,
          "name": "E4",
          "ticks": 56448,
          "time": 108.220812,
          "velocity": 0.5275590551181102
        },
        {
          "duration": 0.18596617708332985,
          "durationTicks": 97,
          "midi": 48,
          "name": "C3",
          "ticks": 56448,
          "time": 108.220812,
          "velocity": 0.6929133858267716
        },
        {
          "duration": 0.18404900000000168,
          "durationTicks": 96,
          "midi": 52,
          "name": "E3",
          "ticks": 56448,
          "time": 108.220812,
          "velocity": 0.5669291338582677
        },
        {
          "duration": 0.18404900000000168,
          "durationTicks": 96,
          "midi": 55,
          "name": "G3",
          "ticks": 56448,
          "time": 108.220812,
          "velocity": 0.5275590551181102
        },
        {
          "duration": 0.18404900000000168,
          "durationTicks": 96,
          "midi": 60,
          "name": "C4",
          "ticks": 56448,
          "time": 108.220812,
          "velocity": 0.6220472440944882
        },
        {
          "duration": 0.18404900000000168,
          "durationTicks": 96,
          "midi": 55,
          "name": "G3",
          "ticks": 56544,
          "time": 108.404861,
          "velocity": 0.6220472440944882
        },
        {
          "duration": 0.18404900000000168,
          "durationTicks": 96,
          "midi": 60,
          "name": "C4",
          "ticks": 56544,
          "time": 108.404861,
          "velocity": 0.6929133858267716
        },
        {
          "duration": 0.18404900000000168,
          "durationTicks": 96,
          "midi": 64,
          "name": "E4",
          "ticks": 56544,
          "time": 108.404861,
          "velocity": 0.6929133858267716
        },
        {
          "duration": 0.18404900000000168,
          "durationTicks": 96,
          "midi": 52,
          "name": "E3",
          "ticks": 56544,
          "time": 108.404861,
          "velocity": 0.6929133858267716
        },
        {
          "duration": 0.18596617708332985,
          "durationTicks": 97,
          "midi": 48,
          "name": "C3",
          "ticks": 56544,
          "time": 108.404861,
          "velocity": 0.7874015748031497
        },
        {
          "duration": 0.18404900000000168,
          "durationTicks": 96,
          "midi": 60,
          "name": "C4",
          "ticks": 56640,
          "time": 108.58891,
          "velocity": 1
        },
        {
          "duration": 0.18596617708331564,
          "durationTicks": 97,
          "midi": 48,
          "name": "C3",
          "ticks": 56640,
          "time": 108.58891,
          "velocity": 0.905511811023622
        },
        {
          "duration": 0.18404900000000168,
          "durationTicks": 96,
          "midi": 64,
          "name": "E4",
          "ticks": 56640,
          "time": 108.58891,
          "velocity": 1
        },
        {
          "duration": 0.18404900000000168,
          "durationTicks": 96,
          "midi": 55,
          "name": "G3",
          "ticks": 56640,
          "time": 108.58891,
          "velocity": 1
        },
        {
          "duration": 0.18404900000000168,
          "durationTicks": 96,
          "midi": 52,
          "name": "E3",
          "ticks": 56640,
          "time": 108.58891,
          "velocity": 0.7874015748031497
        },
        {
          "duration": 0.18404899999998747,
          "durationTicks": 96,
          "midi": 60,
          "name": "C4",
          "ticks": 56736,
          "time": 108.772959,
          "velocity": 0.7874015748031497
        },
        {
          "duration": 0.18404899999998747,
          "durationTicks": 96,
          "midi": 55,
          "name": "G3",
          "ticks": 56736,
          "time": 108.772959,
          "velocity": 0.6929133858267716
        },
        {
          "duration": 0.18404899999998747,
          "durationTicks": 96,
          "midi": 64,
          "name": "E4",
          "ticks": 56736,
          "time": 108.772959,
          "velocity": 0.6929133858267716
        },
        {
          "duration": 0.18404899999998747,
          "durationTicks": 96,
          "midi": 48,
          "name": "C3",
          "ticks": 56736,
          "time": 108.772959,
          "velocity": 0.905511811023622
        },
        {
          "duration": 0.18404899999998747,
          "durationTicks": 96,
          "midi": 52,
          "name": "E3",
          "ticks": 56736,
          "time": 108.772959,
          "velocity": 0.905511811023622
        },
        {
          "duration": 0.18404900000000168,
          "durationTicks": 96,
          "midi": 55,
          "name": "G3",
          "ticks": 56832,
          "time": 108.95700799999999,
          "velocity": 0.5669291338582677
        },
        {
          "duration": 0.18404900000000168,
          "durationTicks": 96,
          "midi": 47,
          "name": "B2",
          "ticks": 56832,
          "time": 108.95700799999999,
          "velocity": 0.6929133858267716
        },
        {
          "duration": 0.18404900000000168,
          "durationTicks": 96,
          "midi": 43,
          "name": "G2",
          "ticks": 56832,
          "time": 108.95700799999999,
          "velocity": 0.6220472440944882
        },
        {
          "duration": 0.18404900000000168,
          "durationTicks": 96,
          "midi": 50,
          "name": "D3",
          "ticks": 56832,
          "time": 108.95700799999999,
          "velocity": 0.6929133858267716
        },
        {
          "duration": 0.18404900000000168,
          "durationTicks": 96,
          "midi": 62,
          "name": "D4",
          "ticks": 56832,
          "time": 108.95700799999999,
          "velocity": 0.49606299212598426
        },
        {
          "duration": 0.18404900000000168,
          "durationTicks": 96,
          "midi": 50,
          "name": "D3",
          "ticks": 56928,
          "time": 109.14105699999999,
          "velocity": 0.6929133858267716
        },
        {
          "duration": 0.18404900000000168,
          "durationTicks": 96,
          "midi": 43,
          "name": "G2",
          "ticks": 56928,
          "time": 109.14105699999999,
          "velocity": 0.905511811023622
        },
        {
          "duration": 0.18404900000000168,
          "durationTicks": 96,
          "midi": 55,
          "name": "G3",
          "ticks": 56928,
          "time": 109.14105699999999,
          "velocity": 0.6929133858267716
        },
        {
          "duration": 0.18404900000000168,
          "durationTicks": 96,
          "midi": 62,
          "name": "D4",
          "ticks": 56928,
          "time": 109.14105699999999,
          "velocity": 0.6929133858267716
        },
        {
          "duration": 0.18596617708332985,
          "durationTicks": 97,
          "midi": 47,
          "name": "B2",
          "ticks": 56928,
          "time": 109.14105699999999,
          "velocity": 0.7874015748031497
        },
        {
          "duration": 0.18404900000000168,
          "durationTicks": 96,
          "midi": 55,
          "name": "G3",
          "ticks": 57024,
          "time": 109.32510599999999,
          "velocity": 0.7874015748031497
        },
        {
          "duration": 0.18404900000000168,
          "durationTicks": 96,
          "midi": 62,
          "name": "D4",
          "ticks": 57024,
          "time": 109.32510599999999,
          "velocity": 0.6929133858267716
        },
        {
          "duration": 0.18404900000000168,
          "durationTicks": 96,
          "midi": 67,
          "name": "G4",
          "ticks": 57024,
          "time": 109.32510599999999,
          "velocity": 0.7874015748031497
        },
        {
          "duration": 0.18404900000000168,
          "durationTicks": 96,
          "midi": 47,
          "name": "B2",
          "ticks": 57024,
          "time": 109.32510599999999,
          "velocity": 0.905511811023622
        },
        {
          "duration": 0.18404900000000168,
          "durationTicks": 96,
          "midi": 62,
          "name": "D4",
          "ticks": 57120,
          "time": 109.50915499999999,
          "velocity": 0.6929133858267716
        },
        {
          "duration": 0.18404900000000168,
          "durationTicks": 96,
          "midi": 55,
          "name": "G3",
          "ticks": 57120,
          "time": 109.50915499999999,
          "velocity": 0.6220472440944882
        },
        {
          "duration": 0.18596617708332985,
          "durationTicks": 97,
          "midi": 50,
          "name": "D3",
          "ticks": 57120,
          "time": 109.50915499999999,
          "velocity": 0.6929133858267716
        },
        {
          "duration": 0.18404900000000168,
          "durationTicks": 96,
          "midi": 55,
          "name": "G3",
          "ticks": 57216,
          "time": 109.693204,
          "velocity": 0.7874015748031497
        },
        {
          "duration": 0.18596617708332985,
          "durationTicks": 97,
          "midi": 47,
          "name": "B2",
          "ticks": 57216,
          "time": 109.693204,
          "velocity": 0.5669291338582677
        },
        {
          "duration": 0.18404900000000168,
          "durationTicks": 96,
          "midi": 62,
          "name": "D4",
          "ticks": 57216,
          "time": 109.693204,
          "velocity": 0.6929133858267716
        },
        {
          "duration": 0.18404900000000168,
          "durationTicks": 96,
          "midi": 43,
          "name": "G2",
          "ticks": 57216,
          "time": 109.693204,
          "velocity": 0.6929133858267716
        },
        {
          "duration": 0.18404900000000168,
          "durationTicks": 96,
          "midi": 50,
          "name": "D3",
          "ticks": 57216,
          "time": 109.693204,
          "velocity": 0.7874015748031497
        },
        {
          "duration": 0.18404900000000168,
          "durationTicks": 96,
          "midi": 43,
          "name": "G2",
          "ticks": 57312,
          "time": 109.877253,
          "velocity": 0.7874015748031497
        },
        {
          "duration": 0.18404900000000168,
          "durationTicks": 96,
          "midi": 55,
          "name": "G3",
          "ticks": 57312,
          "time": 109.877253,
          "velocity": 0.6929133858267716
        },
        {
          "duration": 0.18404900000000168,
          "durationTicks": 96,
          "midi": 62,
          "name": "D4",
          "ticks": 57312,
          "time": 109.877253,
          "velocity": 0.905511811023622
        },
        {
          "duration": 0.18404900000000168,
          "durationTicks": 96,
          "midi": 47,
          "name": "B2",
          "ticks": 57312,
          "time": 109.877253,
          "velocity": 0.6929133858267716
        },
        {
          "duration": 0.18404900000000168,
          "durationTicks": 96,
          "midi": 50,
          "name": "D3",
          "ticks": 57312,
          "time": 109.877253,
          "velocity": 0.6929133858267716
        },
        {
          "duration": 0.18404900000000168,
          "durationTicks": 96,
          "midi": 50,
          "name": "D3",
          "ticks": 57408,
          "time": 110.061302,
          "velocity": 0.905511811023622
        },
        {
          "duration": 0.18404900000000168,
          "durationTicks": 96,
          "midi": 67,
          "name": "G4",
          "ticks": 57408,
          "time": 110.061302,
          "velocity": 1
        },
        {
          "duration": 0.18404900000000168,
          "durationTicks": 96,
          "midi": 47,
          "name": "B2",
          "ticks": 57408,
          "time": 110.061302,
          "velocity": 1
        },
        {
          "duration": 0.18596617708332985,
          "durationTicks": 97,
          "midi": 55,
          "name": "G3",
          "ticks": 57408,
          "time": 110.061302,
          "velocity": 0.905511811023622
        },
        {
          "duration": 0.18404900000000168,
          "durationTicks": 96,
          "midi": 62,
          "name": "D4",
          "ticks": 57408,
          "time": 110.061302,
          "velocity": 0.905511811023622
        },
        {
          "duration": 0.18404900000000168,
          "durationTicks": 96,
          "midi": 62,
          "name": "D4",
          "ticks": 57504,
          "time": 110.245351,
          "velocity": 0.6929133858267716
        },
        {
          "duration": 0.18404900000000168,
          "durationTicks": 96,
          "midi": 47,
          "name": "B2",
          "ticks": 57504,
          "time": 110.245351,
          "velocity": 0.6220472440944882
        },
        {
          "duration": 0.18404900000000168,
          "durationTicks": 96,
          "midi": 50,
          "name": "D3",
          "ticks": 57504,
          "time": 110.245351,
          "velocity": 0.5669291338582677
        },
        {
          "duration": 0.18404900000000168,
          "durationTicks": 96,
          "midi": 55,
          "name": "G3",
          "ticks": 57504,
          "time": 110.245351,
          "velocity": 0.6220472440944882
        },
        {
          "duration": 0.18596617708331564,
          "durationTicks": 97,
          "midi": 55,
          "name": "G3",
          "ticks": 57600,
          "time": 110.4294,
          "velocity": 0.49606299212598426
        },
        {
          "duration": 0.18596617708331564,
          "durationTicks": 97,
          "midi": 48,
          "name": "C3",
          "ticks": 57600,
          "time": 110.4294,
          "velocity": 0.6220472440944882
        },
        {
          "duration": 0.18404899999998747,
          "durationTicks": 96,
          "midi": 64,
          "name": "E4",
          "ticks": 57600,
          "time": 110.4294,
          "velocity": 0.49606299212598426
        },
        {
          "duration": 0.18596617708331564,
          "durationTicks": 97,
          "midi": 60,
          "name": "C4",
          "ticks": 57600,
          "time": 110.4294,
          "velocity": 0.5669291338582677
        },
        {
          "duration": 0.18404899999998747,
          "durationTicks": 96,
          "midi": 52,
          "name": "E3",
          "ticks": 57600,
          "time": 110.4294,
          "velocity": 0.6929133858267716
        },
        {
          "duration": 0.18404900000000168,
          "durationTicks": 96,
          "midi": 64,
          "name": "E4",
          "ticks": 57696,
          "time": 110.61344899999999,
          "velocity": 0.5275590551181102
        },
        {
          "duration": 0.18404900000000168,
          "durationTicks": 96,
          "midi": 60,
          "name": "C4",
          "ticks": 57696,
          "time": 110.61344899999999,
          "velocity": 0.6220472440944882
        },
        {
          "duration": 0.18404900000000168,
          "durationTicks": 96,
          "midi": 48,
          "name": "C3",
          "ticks": 57696,
          "time": 110.61344899999999,
          "velocity": 0.6929133858267716
        },
        {
          "duration": 0.18404900000000168,
          "durationTicks": 96,
          "midi": 52,
          "name": "E3",
          "ticks": 57696,
          "time": 110.61344899999999,
          "velocity": 0.6220472440944882
        },
        {
          "duration": 0.18404900000000168,
          "durationTicks": 96,
          "midi": 55,
          "name": "G3",
          "ticks": 57696,
          "time": 110.61344899999999,
          "velocity": 0.49606299212598426
        },
        {
          "duration": 0.18404900000000168,
          "durationTicks": 96,
          "midi": 48,
          "name": "C3",
          "ticks": 57792,
          "time": 110.79749799999999,
          "velocity": 0.7874015748031497
        },
        {
          "duration": 0.18596617708332985,
          "durationTicks": 97,
          "midi": 52,
          "name": "E3",
          "ticks": 57792,
          "time": 110.79749799999999,
          "velocity": 0.7874015748031497
        },
        {
          "duration": 0.18404900000000168,
          "durationTicks": 96,
          "midi": 64,
          "name": "E4",
          "ticks": 57792,
          "time": 110.79749799999999,
          "velocity": 0.7874015748031497
        },
        {
          "duration": 0.18404900000000168,
          "durationTicks": 96,
          "midi": 60,
          "name": "C4",
          "ticks": 57792,
          "time": 110.79749799999999,
          "velocity": 0.7874015748031497
        },
        {
          "duration": 0.18404900000000168,
          "durationTicks": 96,
          "midi": 55,
          "name": "G3",
          "ticks": 57792,
          "time": 110.79749799999999,
          "velocity": 0.6929133858267716
        },
        {
          "duration": 0.18404900000000168,
          "durationTicks": 96,
          "midi": 55,
          "name": "G3",
          "ticks": 57888,
          "time": 110.98154699999999,
          "velocity": 0.5275590551181102
        },
        {
          "duration": 0.18404900000000168,
          "durationTicks": 96,
          "midi": 64,
          "name": "E4",
          "ticks": 57888,
          "time": 110.98154699999999,
          "velocity": 0.49606299212598426
        },
        {
          "duration": 0.18404900000000168,
          "durationTicks": 96,
          "midi": 60,
          "name": "C4",
          "ticks": 57888,
          "time": 110.98154699999999,
          "velocity": 0.6220472440944882
        },
        {
          "duration": 0.18596617708332985,
          "durationTicks": 97,
          "midi": 48,
          "name": "C3",
          "ticks": 57888,
          "time": 110.98154699999999,
          "velocity": 0.6220472440944882
        },
        {
          "duration": 0.18404900000000168,
          "durationTicks": 96,
          "midi": 52,
          "name": "E3",
          "ticks": 57888,
          "time": 110.98154699999999,
          "velocity": 0.6220472440944882
        },
        {
          "duration": 0.18404900000000168,
          "durationTicks": 96,
          "midi": 60,
          "name": "C4",
          "ticks": 57984,
          "time": 111.165596,
          "velocity": 0.6220472440944882
        },
        {
          "duration": 0.18404900000000168,
          "durationTicks": 96,
          "midi": 52,
          "name": "E3",
          "ticks": 57984,
          "time": 111.165596,
          "velocity": 0.5669291338582677
        },
        {
          "duration": 0.18404900000000168,
          "durationTicks": 96,
          "midi": 55,
          "name": "G3",
          "ticks": 57984,
          "time": 111.165596,
          "velocity": 0.5275590551181102
        },
        {
          "duration": 0.18404900000000168,
          "durationTicks": 96,
          "midi": 48,
          "name": "C3",
          "ticks": 57984,
          "time": 111.165596,
          "velocity": 0.6929133858267716
        },
        {
          "duration": 0.18404900000000168,
          "durationTicks": 96,
          "midi": 64,
          "name": "E4",
          "ticks": 57984,
          "time": 111.165596,
          "velocity": 0.5275590551181102
        },
        {
          "duration": 0.18404900000000168,
          "durationTicks": 96,
          "midi": 60,
          "name": "C4",
          "ticks": 58080,
          "time": 111.349645,
          "velocity": 0.6929133858267716
        },
        {
          "duration": 0.18404900000000168,
          "durationTicks": 96,
          "midi": 64,
          "name": "E4",
          "ticks": 58080,
          "time": 111.349645,
          "velocity": 0.6929133858267716
        },
        {
          "duration": 0.18404900000000168,
          "durationTicks": 96,
          "midi": 48,
          "name": "C3",
          "ticks": 58080,
          "time": 111.349645,
          "velocity": 0.7874015748031497
        },
        {
          "duration": 0.18404900000000168,
          "durationTicks": 96,
          "midi": 52,
          "name": "E3",
          "ticks": 58080,
          "time": 111.349645,
          "velocity": 0.6929133858267716
        },
        {
          "duration": 0.18404900000000168,
          "durationTicks": 96,
          "midi": 55,
          "name": "G3",
          "ticks": 58080,
          "time": 111.349645,
          "velocity": 0.6220472440944882
        },
        {
          "duration": 0.18404900000000168,
          "durationTicks": 96,
          "midi": 64,
          "name": "E4",
          "ticks": 58176,
          "time": 111.533694,
          "velocity": 1
        },
        {
          "duration": 0.18404900000000168,
          "durationTicks": 96,
          "midi": 55,
          "name": "G3",
          "ticks": 58176,
          "time": 111.533694,
          "velocity": 1
        },
        {
          "duration": 0.18404900000000168,
          "durationTicks": 96,
          "midi": 52,
          "name": "E3",
          "ticks": 58176,
          "time": 111.533694,
          "velocity": 0.7874015748031497
        },
        {
          "duration": 0.18404900000000168,
          "durationTicks": 96,
          "midi": 60,
          "name": "C4",
          "ticks": 58176,
          "time": 111.533694,
          "velocity": 1
        },
        {
          "duration": 0.18404900000000168,
          "durationTicks": 96,
          "midi": 48,
          "name": "C3",
          "ticks": 58176,
          "time": 111.533694,
          "velocity": 0.905511811023622
        },
        {
          "duration": 0.18404900000000168,
          "durationTicks": 96,
          "midi": 55,
          "name": "G3",
          "ticks": 58272,
          "time": 111.717743,
          "velocity": 0.6929133858267716
        },
        {
          "duration": 0.18404900000000168,
          "durationTicks": 96,
          "midi": 52,
          "name": "E3",
          "ticks": 58272,
          "time": 111.717743,
          "velocity": 0.905511811023622
        },
        {
          "duration": 0.18404900000000168,
          "durationTicks": 96,
          "midi": 48,
          "name": "C3",
          "ticks": 58272,
          "time": 111.717743,
          "velocity": 0.905511811023622
        },
        {
          "duration": 0.18404900000000168,
          "durationTicks": 96,
          "midi": 60,
          "name": "C4",
          "ticks": 58272,
          "time": 111.717743,
          "velocity": 0.7874015748031497
        },
        {
          "duration": 0.18404900000000168,
          "durationTicks": 96,
          "midi": 64,
          "name": "E4",
          "ticks": 58272,
          "time": 111.717743,
          "velocity": 0.6929133858267716
        },
        {
          "duration": 0.18404899999998747,
          "durationTicks": 96,
          "midi": 50,
          "name": "D3",
          "ticks": 58368,
          "time": 111.901792,
          "velocity": 0.6929133858267716
        },
        {
          "duration": 0.18596617708331564,
          "durationTicks": 97,
          "midi": 62,
          "name": "D4",
          "ticks": 58368,
          "time": 111.901792,
          "velocity": 0.49606299212598426
        },
        {
          "duration": 0.18596617708331564,
          "durationTicks": 97,
          "midi": 43,
          "name": "G2",
          "ticks": 58368,
          "time": 111.901792,
          "velocity": 0.6220472440944882
        },
        {
          "duration": 0.18404899999998747,
          "durationTicks": 96,
          "midi": 47,
          "name": "B2",
          "ticks": 58368,
          "time": 111.901792,
          "velocity": 0.6929133858267716
        },
        {
          "duration": 0.18404899999998747,
          "durationTicks": 96,
          "midi": 55,
          "name": "G3",
          "ticks": 58368,
          "time": 111.901792,
          "velocity": 0.5669291338582677
        },
        {
          "duration": 0.18404900000000168,
          "durationTicks": 96,
          "midi": 47,
          "name": "B2",
          "ticks": 58464,
          "time": 112.08584099999999,
          "velocity": 0.7874015748031497
        },
        {
          "duration": 0.18404900000000168,
          "durationTicks": 96,
          "midi": 50,
          "name": "D3",
          "ticks": 58464,
          "time": 112.08584099999999,
          "velocity": 0.6929133858267716
        },
        {
          "duration": 0.18404900000000168,
          "durationTicks": 96,
          "midi": 55,
          "name": "G3",
          "ticks": 58464,
          "time": 112.08584099999999,
          "velocity": 0.6929133858267716
        },
        {
          "duration": 0.18596617708332985,
          "durationTicks": 97,
          "midi": 62,
          "name": "D4",
          "ticks": 58464,
          "time": 112.08584099999999,
          "velocity": 0.6929133858267716
        },
        {
          "duration": 0.18404900000000168,
          "durationTicks": 96,
          "midi": 43,
          "name": "G2",
          "ticks": 58464,
          "time": 112.08584099999999,
          "velocity": 0.905511811023622
        },
        {
          "duration": 0.18404900000000168,
          "durationTicks": 96,
          "midi": 62,
          "name": "D4",
          "ticks": 58560,
          "time": 112.26988999999999,
          "velocity": 0.6929133858267716
        },
        {
          "duration": 0.18404900000000168,
          "durationTicks": 96,
          "midi": 67,
          "name": "G4",
          "ticks": 58560,
          "time": 112.26988999999999,
          "velocity": 0.7874015748031497
        },
        {
          "duration": 0.18404900000000168,
          "durationTicks": 96,
          "midi": 47,
          "name": "B2",
          "ticks": 58560,
          "time": 112.26988999999999,
          "velocity": 0.905511811023622
        },
        {
          "duration": 0.18404900000000168,
          "durationTicks": 96,
          "midi": 55,
          "name": "G3",
          "ticks": 58560,
          "time": 112.26988999999999,
          "velocity": 0.7874015748031497
        },
        {
          "duration": 0.18404900000000168,
          "durationTicks": 96,
          "midi": 55,
          "name": "G3",
          "ticks": 58656,
          "time": 112.45393899999999,
          "velocity": 0.6220472440944882
        },
        {
          "duration": 0.18404900000000168,
          "durationTicks": 96,
          "midi": 62,
          "name": "D4",
          "ticks": 58656,
          "time": 112.45393899999999,
          "velocity": 0.6929133858267716
        },
        {
          "duration": 0.18596617708332985,
          "durationTicks": 97,
          "midi": 50,
          "name": "D3",
          "ticks": 58656,
          "time": 112.45393899999999,
          "velocity": 0.6929133858267716
        },
        {
          "duration": 0.18404900000000168,
          "durationTicks": 96,
          "midi": 62,
          "name": "D4",
          "ticks": 58752,
          "time": 112.63798799999999,
          "velocity": 0.6929133858267716
        },
        {
          "duration": 0.18596617708332985,
          "durationTicks": 97,
          "midi": 55,
          "name": "G3",
          "ticks": 58752,
          "time": 112.63798799999999,
          "velocity": 0.7874015748031497
        },
        {
          "duration": 0.18596617708332985,
          "durationTicks": 97,
          "midi": 43,
          "name": "G2",
          "ticks": 58752,
          "time": 112.63798799999999,
          "velocity": 0.6929133858267716
        },
        {
          "duration": 0.18404900000000168,
          "durationTicks": 96,
          "midi": 47,
          "name": "B2",
          "ticks": 58752,
          "time": 112.63798799999999,
          "velocity": 0.5669291338582677
        },
        {
          "duration": 0.18404900000000168,
          "durationTicks": 96,
          "midi": 50,
          "name": "D3",
          "ticks": 58752,
          "time": 112.63798799999999,
          "velocity": 0.7874015748031497
        },
        {
          "duration": 0.18404900000000168,
          "durationTicks": 96,
          "midi": 62,
          "name": "D4",
          "ticks": 58848,
          "time": 112.822037,
          "velocity": 0.905511811023622
        },
        {
          "duration": 0.18404900000000168,
          "durationTicks": 96,
          "midi": 47,
          "name": "B2",
          "ticks": 58848,
          "time": 112.822037,
          "velocity": 0.6929133858267716
        },
        {
          "duration": 0.18404900000000168,
          "durationTicks": 96,
          "midi": 43,
          "name": "G2",
          "ticks": 58848,
          "time": 112.822037,
          "velocity": 0.7874015748031497
        },
        {
          "duration": 0.18404900000000168,
          "durationTicks": 96,
          "midi": 50,
          "name": "D3",
          "ticks": 58848,
          "time": 112.822037,
          "velocity": 0.6929133858267716
        },
        {
          "duration": 0.18404900000000168,
          "durationTicks": 96,
          "midi": 55,
          "name": "G3",
          "ticks": 58848,
          "time": 112.822037,
          "velocity": 0.6929133858267716
        },
        {
          "duration": 0.18404900000000168,
          "durationTicks": 96,
          "midi": 47,
          "name": "B2",
          "ticks": 58944,
          "time": 113.006086,
          "velocity": 1
        },
        {
          "duration": 0.18404900000000168,
          "durationTicks": 96,
          "midi": 55,
          "name": "G3",
          "ticks": 58944,
          "time": 113.006086,
          "velocity": 0.905511811023622
        },
        {
          "duration": 0.18596617708332985,
          "durationTicks": 97,
          "midi": 62,
          "name": "D4",
          "ticks": 58944,
          "time": 113.006086,
          "velocity": 0.905511811023622
        },
        {
          "duration": 0.18404900000000168,
          "durationTicks": 96,
          "midi": 50,
          "name": "D3",
          "ticks": 58944,
          "time": 113.006086,
          "velocity": 0.905511811023622
        },
        {
          "duration": 0.18404900000000168,
          "durationTicks": 96,
          "midi": 67,
          "name": "G4",
          "ticks": 58944,
          "time": 113.006086,
          "velocity": 1
        },
        {
          "duration": 0.18404900000000168,
          "durationTicks": 96,
          "midi": 47,
          "name": "B2",
          "ticks": 59040,
          "time": 113.190135,
          "velocity": 0.6220472440944882
        },
        {
          "duration": 0.18404900000000168,
          "durationTicks": 96,
          "midi": 50,
          "name": "D3",
          "ticks": 59040,
          "time": 113.190135,
          "velocity": 0.5669291338582677
        },
        {
          "duration": 0.18404900000000168,
          "durationTicks": 96,
          "midi": 55,
          "name": "G3",
          "ticks": 59040,
          "time": 113.190135,
          "velocity": 0.6220472440944882
        },
        {
          "duration": 0.18404900000000168,
          "durationTicks": 96,
          "midi": 62,
          "name": "D4",
          "ticks": 59040,
          "time": 113.190135,
          "velocity": 0.6929133858267716
        },
        {
          "duration": 0.18596617708331564,
          "durationTicks": 97,
          "midi": 55,
          "name": "G3",
          "ticks": 59136,
          "time": 113.374184,
          "velocity": 0.49606299212598426
        },
        {
          "duration": 0.18596617708331564,
          "durationTicks": 97,
          "midi": 48,
          "name": "C3",
          "ticks": 59136,
          "time": 113.374184,
          "velocity": 0.6220472440944882
        },
        {
          "duration": 0.18404899999998747,
          "durationTicks": 96,
          "midi": 52,
          "name": "E3",
          "ticks": 59136,
          "time": 113.374184,
          "velocity": 0.6929133858267716
        },
        {
          "duration": 0.18404899999998747,
          "durationTicks": 96,
          "midi": 64,
          "name": "E4",
          "ticks": 59136,
          "time": 113.374184,
          "velocity": 0.49606299212598426
        },
        {
          "duration": 0.18404899999998747,
          "durationTicks": 96,
          "midi": 60,
          "name": "C4",
          "ticks": 59136,
          "time": 113.374184,
          "velocity": 0.5669291338582677
        },
        {
          "duration": 0.18404900000000168,
          "durationTicks": 96,
          "midi": 52,
          "name": "E3",
          "ticks": 59232,
          "time": 113.55823299999999,
          "velocity": 0.6220472440944882
        },
        {
          "duration": 0.18404900000000168,
          "durationTicks": 96,
          "midi": 64,
          "name": "E4",
          "ticks": 59232,
          "time": 113.55823299999999,
          "velocity": 0.5275590551181102
        },
        {
          "duration": 0.18596617708332985,
          "durationTicks": 97,
          "midi": 60,
          "name": "C4",
          "ticks": 59232,
          "time": 113.55823299999999,
          "velocity": 0.6220472440944882
        },
        {
          "duration": 0.18596617708332985,
          "durationTicks": 97,
          "midi": 55,
          "name": "G3",
          "ticks": 59232,
          "time": 113.55823299999999,
          "velocity": 0.49606299212598426
        },
        {
          "duration": 0.18404900000000168,
          "durationTicks": 96,
          "midi": 48,
          "name": "C3",
          "ticks": 59232,
          "time": 113.55823299999999,
          "velocity": 0.6929133858267716
        },
        {
          "duration": 0.18404900000000168,
          "durationTicks": 96,
          "midi": 64,
          "name": "E4",
          "ticks": 59328,
          "time": 113.74228199999999,
          "velocity": 0.7874015748031497
        },
        {
          "duration": 0.18596617708332985,
          "durationTicks": 97,
          "midi": 52,
          "name": "E3",
          "ticks": 59328,
          "time": 113.74228199999999,
          "velocity": 0.7874015748031497
        },
        {
          "duration": 0.18404900000000168,
          "durationTicks": 96,
          "midi": 48,
          "name": "C3",
          "ticks": 59328,
          "time": 113.74228199999999,
          "velocity": 0.7874015748031497
        },
        {
          "duration": 0.18596617708332985,
          "durationTicks": 97,
          "midi": 55,
          "name": "G3",
          "ticks": 59328,
          "time": 113.74228199999999,
          "velocity": 0.6929133858267716
        },
        {
          "duration": 0.18404900000000168,
          "durationTicks": 96,
          "midi": 60,
          "name": "C4",
          "ticks": 59328,
          "time": 113.74228199999999,
          "velocity": 0.7874015748031497
        },
        {
          "duration": 0.18404900000000168,
          "durationTicks": 96,
          "midi": 48,
          "name": "C3",
          "ticks": 59424,
          "time": 113.92633099999999,
          "velocity": 0.6220472440944882
        },
        {
          "duration": 0.18596617708332985,
          "durationTicks": 97,
          "midi": 55,
          "name": "G3",
          "ticks": 59424,
          "time": 113.92633099999999,
          "velocity": 0.5275590551181102
        },
        {
          "duration": 0.18404900000000168,
          "durationTicks": 96,
          "midi": 60,
          "name": "C4",
          "ticks": 59424,
          "time": 113.92633099999999,
          "velocity": 0.6220472440944882
        },
        {
          "duration": 0.18596617708332985,
          "durationTicks": 97,
          "midi": 64,
          "name": "E4",
          "ticks": 59424,
          "time": 113.92633099999999,
          "velocity": 0.49606299212598426
        },
        {
          "duration": 0.18404900000000168,
          "durationTicks": 96,
          "midi": 52,
          "name": "E3",
          "ticks": 59424,
          "time": 113.92633099999999,
          "velocity": 0.6220472440944882
        },
        {
          "duration": 0.18404900000000168,
          "durationTicks": 96,
          "midi": 52,
          "name": "E3",
          "ticks": 59520,
          "time": 114.11037999999999,
          "velocity": 0.5669291338582677
        },
        {
          "duration": 0.18596617708332985,
          "durationTicks": 97,
          "midi": 60,
          "name": "C4",
          "ticks": 59520,
          "time": 114.11037999999999,
          "velocity": 0.6220472440944882
        },
        {
          "duration": 0.18404900000000168,
          "durationTicks": 96,
          "midi": 48,
          "name": "C3",
          "ticks": 59520,
          "time": 114.11037999999999,
          "velocity": 0.6929133858267716
        },
        {
          "duration": 0.18596617708332985,
          "durationTicks": 97,
          "midi": 55,
          "name": "G3",
          "ticks": 59520,
          "time": 114.11037999999999,
          "velocity": 0.5275590551181102
        },
        {
          "duration": 0.18404900000000168,
          "durationTicks": 96,
          "midi": 64,
          "name": "E4",
          "ticks": 59520,
          "time": 114.11037999999999,
          "velocity": 0.5275590551181102
        },
        {
          "duration": 0.18404900000000168,
          "durationTicks": 96,
          "midi": 52,
          "name": "E3",
          "ticks": 59616,
          "time": 114.294429,
          "velocity": 0.6929133858267716
        },
        {
          "duration": 0.18596617708332985,
          "durationTicks": 97,
          "midi": 64,
          "name": "E4",
          "ticks": 59616,
          "time": 114.294429,
          "velocity": 0.6929133858267716
        },
        {
          "duration": 0.18404900000000168,
          "durationTicks": 96,
          "midi": 48,
          "name": "C3",
          "ticks": 59616,
          "time": 114.294429,
          "velocity": 0.7874015748031497
        },
        {
          "duration": 0.18404900000000168,
          "durationTicks": 96,
          "midi": 60,
          "name": "C4",
          "ticks": 59616,
          "time": 114.294429,
          "velocity": 0.6929133858267716
        },
        {
          "duration": 0.18596617708332985,
          "durationTicks": 97,
          "midi": 55,
          "name": "G3",
          "ticks": 59616,
          "time": 114.294429,
          "velocity": 0.6220472440944882
        },
        {
          "duration": 0.18404900000000168,
          "durationTicks": 96,
          "midi": 60,
          "name": "C4",
          "ticks": 59712,
          "time": 114.478478,
          "velocity": 1
        },
        {
          "duration": 0.18596617708332985,
          "durationTicks": 97,
          "midi": 55,
          "name": "G3",
          "ticks": 59712,
          "time": 114.478478,
          "velocity": 1
        },
        {
          "duration": 0.18404900000000168,
          "durationTicks": 96,
          "midi": 52,
          "name": "E3",
          "ticks": 59712,
          "time": 114.478478,
          "velocity": 0.7874015748031497
        },
        {
          "duration": 0.18404900000000168,
          "durationTicks": 96,
          "midi": 64,
          "name": "E4",
          "ticks": 59712,
          "time": 114.478478,
          "velocity": 1
        },
        {
          "duration": 0.18404900000000168,
          "durationTicks": 96,
          "midi": 48,
          "name": "C3",
          "ticks": 59712,
          "time": 114.478478,
          "velocity": 0.905511811023622
        },
        {
          "duration": 0.18404900000000168,
          "durationTicks": 96,
          "midi": 64,
          "name": "E4",
          "ticks": 59808,
          "time": 114.662527,
          "velocity": 0.6929133858267716
        },
        {
          "duration": 0.18404900000000168,
          "durationTicks": 96,
          "midi": 48,
          "name": "C3",
          "ticks": 59808,
          "time": 114.662527,
          "velocity": 0.905511811023622
        },
        {
          "duration": 0.18404900000000168,
          "durationTicks": 96,
          "midi": 60,
          "name": "C4",
          "ticks": 59808,
          "time": 114.662527,
          "velocity": 0.7874015748031497
        },
        {
          "duration": 0.18596617708332985,
          "durationTicks": 97,
          "midi": 55,
          "name": "G3",
          "ticks": 59808,
          "time": 114.662527,
          "velocity": 0.6929133858267716
        },
        {
          "duration": 0.18404900000000168,
          "durationTicks": 96,
          "midi": 52,
          "name": "E3",
          "ticks": 59808,
          "time": 114.662527,
          "velocity": 0.905511811023622
        },
        {
          "duration": 0.18404900000000168,
          "durationTicks": 96,
          "midi": 43,
          "name": "G2",
          "ticks": 59904,
          "time": 114.846576,
          "velocity": 0.6220472440944882
        },
        {
          "duration": 0.18404900000000168,
          "durationTicks": 96,
          "midi": 47,
          "name": "B2",
          "ticks": 59904,
          "time": 114.846576,
          "velocity": 0.6929133858267716
        },
        {
          "duration": 0.18596617708331564,
          "durationTicks": 97,
          "midi": 50,
          "name": "D3",
          "ticks": 59904,
          "time": 114.846576,
          "velocity": 0.6929133858267716
        },
        {
          "duration": 0.18404900000000168,
          "durationTicks": 96,
          "midi": 55,
          "name": "G3",
          "ticks": 59904,
          "time": 114.846576,
          "velocity": 0.5669291338582677
        },
        {
          "duration": 0.18404900000000168,
          "durationTicks": 96,
          "midi": 62,
          "name": "D4",
          "ticks": 59904,
          "time": 114.846576,
          "velocity": 0.49606299212598426
        },
        {
          "duration": 0.18404899999998747,
          "durationTicks": 96,
          "midi": 62,
          "name": "D4",
          "ticks": 60000,
          "time": 115.030625,
          "velocity": 0.6929133858267716
        },
        {
          "duration": 0.18404899999998747,
          "durationTicks": 96,
          "midi": 47,
          "name": "B2",
          "ticks": 60000,
          "time": 115.030625,
          "velocity": 0.7874015748031497
        },
        {
          "duration": 0.18404899999998747,
          "durationTicks": 96,
          "midi": 50,
          "name": "D3",
          "ticks": 60000,
          "time": 115.030625,
          "velocity": 0.6929133858267716
        },
        {
          "duration": 0.18404899999998747,
          "durationTicks": 96,
          "midi": 43,
          "name": "G2",
          "ticks": 60000,
          "time": 115.030625,
          "velocity": 0.905511811023622
        },
        {
          "duration": 0.18404899999998747,
          "durationTicks": 96,
          "midi": 55,
          "name": "G3",
          "ticks": 60000,
          "time": 115.030625,
          "velocity": 0.6929133858267716
        },
        {
          "duration": 0.18596617708332985,
          "durationTicks": 97,
          "midi": 55,
          "name": "G3",
          "ticks": 60096,
          "time": 115.21467399999999,
          "velocity": 0.7874015748031497
        },
        {
          "duration": 0.18404900000000168,
          "durationTicks": 96,
          "midi": 62,
          "name": "D4",
          "ticks": 60096,
          "time": 115.21467399999999,
          "velocity": 0.6929133858267716
        },
        {
          "duration": 0.18404900000000168,
          "durationTicks": 96,
          "midi": 47,
          "name": "B2",
          "ticks": 60096,
          "time": 115.21467399999999,
          "velocity": 0.905511811023622
        },
        {
          "duration": 0.18404900000000168,
          "durationTicks": 96,
          "midi": 67,
          "name": "G4",
          "ticks": 60096,
          "time": 115.21467399999999,
          "velocity": 0.7874015748031497
        },
        {
          "duration": 0.18404900000000168,
          "durationTicks": 96,
          "midi": 62,
          "name": "D4",
          "ticks": 60192,
          "time": 115.39872299999999,
          "velocity": 0.6929133858267716
        },
        {
          "duration": 0.18596617708332985,
          "durationTicks": 97,
          "midi": 50,
          "name": "D3",
          "ticks": 60192,
          "time": 115.39872299999999,
          "velocity": 0.6929133858267716
        },
        {
          "duration": 0.18404900000000168,
          "durationTicks": 96,
          "midi": 55,
          "name": "G3",
          "ticks": 60192,
          "time": 115.39872299999999,
          "velocity": 0.6220472440944882
        },
        {
          "duration": 0.18404900000000168,
          "durationTicks": 96,
          "midi": 47,
          "name": "B2",
          "ticks": 60288,
          "time": 115.58277199999999,
          "velocity": 0.5669291338582677
        },
        {
          "duration": 0.18404900000000168,
          "durationTicks": 96,
          "midi": 62,
          "name": "D4",
          "ticks": 60288,
          "time": 115.58277199999999,
          "velocity": 0.6929133858267716
        },
        {
          "duration": 0.18404900000000168,
          "durationTicks": 96,
          "midi": 43,
          "name": "G2",
          "ticks": 60288,
          "time": 115.58277199999999,
          "velocity": 0.6929133858267716
        },
        {
          "duration": 0.18404900000000168,
          "durationTicks": 96,
          "midi": 50,
          "name": "D3",
          "ticks": 60288,
          "time": 115.58277199999999,
          "velocity": 0.7874015748031497
        },
        {
          "duration": 0.18404900000000168,
          "durationTicks": 96,
          "midi": 55,
          "name": "G3",
          "ticks": 60288,
          "time": 115.58277199999999,
          "velocity": 0.7874015748031497
        },
        {
          "duration": 0.18404900000000168,
          "durationTicks": 96,
          "midi": 62,
          "name": "D4",
          "ticks": 60384,
          "time": 115.766821,
          "velocity": 0.905511811023622
        },
        {
          "duration": 0.18404900000000168,
          "durationTicks": 96,
          "midi": 43,
          "name": "G2",
          "ticks": 60384,
          "time": 115.766821,
          "velocity": 0.7874015748031497
        },
        {
          "duration": 0.18596617708332985,
          "durationTicks": 97,
          "midi": 47,
          "name": "B2",
          "ticks": 60384,
          "time": 115.766821,
          "velocity": 0.6929133858267716
        },
        {
          "duration": 0.18596617708332985,
          "durationTicks": 97,
          "midi": 55,
          "name": "G3",
          "ticks": 60384,
          "time": 115.766821,
          "velocity": 0.6929133858267716
        },
        {
          "duration": 0.18596617708332985,
          "durationTicks": 97,
          "midi": 50,
          "name": "D3",
          "ticks": 60384,
          "time": 115.766821,
          "velocity": 0.6929133858267716
        },
        {
          "duration": 0.18404900000000168,
          "durationTicks": 96,
          "midi": 67,
          "name": "G4",
          "ticks": 60480,
          "time": 115.95087,
          "velocity": 1
        },
        {
          "duration": 0.18404900000000168,
          "durationTicks": 96,
          "midi": 62,
          "name": "D4",
          "ticks": 60480,
          "time": 115.95087,
          "velocity": 0.905511811023622
        },
        {
          "duration": 0.18596617708332985,
          "durationTicks": 97,
          "midi": 47,
          "name": "B2",
          "ticks": 60480,
          "time": 115.95087,
          "velocity": 1
        },
        {
          "duration": 0.18596617708332985,
          "durationTicks": 97,
          "midi": 55,
          "name": "G3",
          "ticks": 60480,
          "time": 115.95087,
          "velocity": 0.905511811023622
        },
        {
          "duration": 0.18596617708332985,
          "durationTicks": 97,
          "midi": 50,
          "name": "D3",
          "ticks": 60480,
          "time": 115.95087,
          "velocity": 0.905511811023622
        },
        {
          "duration": 0.18404900000000168,
          "durationTicks": 96,
          "midi": 62,
          "name": "D4",
          "ticks": 60576,
          "time": 116.134919,
          "velocity": 0.6929133858267716
        },
        {
          "duration": 0.18404900000000168,
          "durationTicks": 96,
          "midi": 55,
          "name": "G3",
          "ticks": 60576,
          "time": 116.134919,
          "velocity": 0.6220472440944882
        },
        {
          "duration": 0.18404900000000168,
          "durationTicks": 96,
          "midi": 50,
          "name": "D3",
          "ticks": 60576,
          "time": 116.134919,
          "velocity": 0.5669291338582677
        },
        {
          "duration": 0.18404900000000168,
          "durationTicks": 96,
          "midi": 47,
          "name": "B2",
          "ticks": 60576,
          "time": 116.134919,
          "velocity": 0.6220472440944882
        },
        {
          "duration": 0.18404900000000168,
          "durationTicks": 96,
          "midi": 57,
          "name": "A3",
          "ticks": 60672,
          "time": 116.318968,
          "velocity": 0.49606299212598426
        },
        {
          "duration": 0.18404900000000168,
          "durationTicks": 96,
          "midi": 50,
          "name": "D3",
          "ticks": 60672,
          "time": 116.318968,
          "velocity": 0.6220472440944882
        },
        {
          "duration": 0.18596617708331564,
          "durationTicks": 97,
          "midi": 62,
          "name": "D4",
          "ticks": 60672,
          "time": 116.318968,
          "velocity": 0.5669291338582677
        },
        {
          "duration": 0.18596617708331564,
          "durationTicks": 97,
          "midi": 54,
          "name": "F#3",
          "ticks": 60672,
          "time": 116.318968,
          "velocity": 0.6929133858267716
        },
        {
          "duration": 0.18404900000000168,
          "durationTicks": 96,
          "midi": 66,
          "name": "F#4",
          "ticks": 60672,
          "time": 116.318968,
          "velocity": 0.49606299212598426
        },
        {
          "duration": 0.18404899999998747,
          "durationTicks": 96,
          "midi": 57,
          "name": "A3",
          "ticks": 60768,
          "time": 116.503017,
          "velocity": 0.49606299212598426
        },
        {
          "duration": 0.18404899999998747,
          "durationTicks": 96,
          "midi": 66,
          "name": "F#4",
          "ticks": 60768,
          "time": 116.503017,
          "velocity": 0.5275590551181102
        },
        {
          "duration": 0.18404899999998747,
          "durationTicks": 96,
          "midi": 50,
          "name": "D3",
          "ticks": 60768,
          "time": 116.503017,
          "velocity": 0.6929133858267716
        },
        {
          "duration": 0.18596617708331564,
          "durationTicks": 97,
          "midi": 54,
          "name": "F#3",
          "ticks": 60768,
          "time": 116.503017,
          "velocity": 0.6220472440944882
        },
        {
          "duration": 0.18404899999998747,
          "durationTicks": 96,
          "midi": 62,
          "name": "D4",
          "ticks": 60768,
          "time": 116.503017,
          "velocity": 0.6220472440944882
        },
        {
          "duration": 0.18404900000000168,
          "durationTicks": 96,
          "midi": 62,
          "name": "D4",
          "ticks": 60864,
          "time": 116.68706599999999,
          "velocity": 0.7874015748031497
        },
        {
          "duration": 0.18596617708332985,
          "durationTicks": 97,
          "midi": 54,
          "name": "F#3",
          "ticks": 60864,
          "time": 116.68706599999999,
          "velocity": 0.7874015748031497
        },
        {
          "duration": 0.18404900000000168,
          "durationTicks": 96,
          "midi": 57,
          "name": "A3",
          "ticks": 60864,
          "time": 116.68706599999999,
          "velocity": 0.6929133858267716
        },
        {
          "duration": 0.18404900000000168,
          "durationTicks": 96,
          "midi": 66,
          "name": "F#4",
          "ticks": 60864,
          "time": 116.68706599999999,
          "velocity": 0.7874015748031497
        },
        {
          "duration": 0.18404900000000168,
          "durationTicks": 96,
          "midi": 50,
          "name": "D3",
          "ticks": 60864,
          "time": 116.68706599999999,
          "velocity": 0.7874015748031497
        },
        {
          "duration": 0.18596617708332985,
          "durationTicks": 97,
          "midi": 66,
          "name": "F#4",
          "ticks": 60960,
          "time": 116.87111499999999,
          "velocity": 0.49606299212598426
        },
        {
          "duration": 0.18404900000000168,
          "durationTicks": 96,
          "midi": 50,
          "name": "D3",
          "ticks": 60960,
          "time": 116.87111499999999,
          "velocity": 0.6220472440944882
        },
        {
          "duration": 0.18404900000000168,
          "durationTicks": 96,
          "midi": 54,
          "name": "F#3",
          "ticks": 60960,
          "time": 116.87111499999999,
          "velocity": 0.6220472440944882
        },
        {
          "duration": 0.18596617708332985,
          "durationTicks": 97,
          "midi": 57,
          "name": "A3",
          "ticks": 60960,
          "time": 116.87111499999999,
          "velocity": 0.5275590551181102
        },
        {
          "duration": 0.18404900000000168,
          "durationTicks": 96,
          "midi": 62,
          "name": "D4",
          "ticks": 60960,
          "time": 116.87111499999999,
          "velocity": 0.6220472440944882
        },
        {
          "duration": 0.18404900000000168,
          "durationTicks": 96,
          "midi": 54,
          "name": "F#3",
          "ticks": 61056,
          "time": 117.05516399999999,
          "velocity": 0.5669291338582677
        },
        {
          "duration": 0.18404900000000168,
          "durationTicks": 96,
          "midi": 62,
          "name": "D4",
          "ticks": 61056,
          "time": 117.05516399999999,
          "velocity": 0.6220472440944882
        },
        {
          "duration": 0.18404900000000168,
          "durationTicks": 96,
          "midi": 57,
          "name": "A3",
          "ticks": 61056,
          "time": 117.05516399999999,
          "velocity": 0.5275590551181102
        },
        {
          "duration": 0.18404900000000168,
          "durationTicks": 96,
          "midi": 66,
          "name": "F#4",
          "ticks": 61056,
          "time": 117.05516399999999,
          "velocity": 0.5275590551181102
        },
        {
          "duration": 0.18404900000000168,
          "durationTicks": 96,
          "midi": 50,
          "name": "D3",
          "ticks": 61056,
          "time": 117.05516399999999,
          "velocity": 0.6929133858267716
        },
        {
          "duration": 0.18404900000000168,
          "durationTicks": 96,
          "midi": 57,
          "name": "A3",
          "ticks": 61152,
          "time": 117.23921299999999,
          "velocity": 0.6220472440944882
        },
        {
          "duration": 0.18404900000000168,
          "durationTicks": 96,
          "midi": 62,
          "name": "D4",
          "ticks": 61152,
          "time": 117.23921299999999,
          "velocity": 0.6929133858267716
        },
        {
          "duration": 0.18404900000000168,
          "durationTicks": 96,
          "midi": 50,
          "name": "D3",
          "ticks": 61152,
          "time": 117.23921299999999,
          "velocity": 0.7874015748031497
        },
        {
          "duration": 0.18596617708332985,
          "durationTicks": 97,
          "midi": 54,
          "name": "F#3",
          "ticks": 61152,
          "time": 117.23921299999999,
          "velocity": 0.6929133858267716
        },
        {
          "duration": 0.18404900000000168,
          "durationTicks": 96,
          "midi": 66,
          "name": "F#4",
          "ticks": 61152,
          "time": 117.23921299999999,
          "velocity": 0.6929133858267716
        },
        {
          "duration": 0.18404900000000168,
          "durationTicks": 96,
          "midi": 62,
          "name": "D4",
          "ticks": 61248,
          "time": 117.423262,
          "velocity": 1
        },
        {
          "duration": 0.18404900000000168,
          "durationTicks": 96,
          "midi": 50,
          "name": "D3",
          "ticks": 61248,
          "time": 117.423262,
          "velocity": 0.905511811023622
        },
        {
          "duration": 0.18404900000000168,
          "durationTicks": 96,
          "midi": 57,
          "name": "A3",
          "ticks": 61248,
          "time": 117.423262,
          "velocity": 1
        },
        {
          "duration": 0.18404900000000168,
          "durationTicks": 96,
          "midi": 66,
          "name": "F#4",
          "ticks": 61248,
          "time": 117.423262,
          "velocity": 1
        },
        {
          "duration": 0.18404900000000168,
          "durationTicks": 96,
          "midi": 54,
          "name": "F#3",
          "ticks": 61248,
          "time": 117.423262,
          "velocity": 0.7874015748031497
        },
        {
          "duration": 0.18596617708332985,
          "durationTicks": 97,
          "midi": 50,
          "name": "D3",
          "ticks": 61344,
          "time": 117.607311,
          "velocity": 0.905511811023622
        },
        {
          "duration": 0.18404900000000168,
          "durationTicks": 96,
          "midi": 57,
          "name": "A3",
          "ticks": 61344,
          "time": 117.607311,
          "velocity": 0.6929133858267716
        },
        {
          "duration": 0.18596617708332985,
          "durationTicks": 97,
          "midi": 62,
          "name": "D4",
          "ticks": 61344,
          "time": 117.607311,
          "velocity": 0.7874015748031497
        },
        {
          "duration": 0.18404900000000168,
          "durationTicks": 96,
          "midi": 66,
          "name": "F#4",
          "ticks": 61344,
          "time": 117.607311,
          "velocity": 0.6929133858267716
        },
        {
          "duration": 0.18404900000000168,
          "durationTicks": 96,
          "midi": 54,
          "name": "F#3",
          "ticks": 61344,
          "time": 117.607311,
          "velocity": 0.905511811023622
        },
        {
          "duration": 0.18404900000000168,
          "durationTicks": 96,
          "midi": 66,
          "name": "F#4",
          "ticks": 61440,
          "time": 117.79136,
          "velocity": 0.49606299212598426
        },
        {
          "duration": 0.18404900000000168,
          "durationTicks": 96,
          "midi": 62,
          "name": "D4",
          "ticks": 61440,
          "time": 117.79136,
          "velocity": 0.5669291338582677
        },
        {
          "duration": 0.18404900000000168,
          "durationTicks": 96,
          "midi": 54,
          "name": "F#3",
          "ticks": 61440,
          "time": 117.79136,
          "velocity": 0.6929133858267716
        },
        {
          "duration": 0.18404900000000168,
          "durationTicks": 96,
          "midi": 50,
          "name": "D3",
          "ticks": 61440,
          "time": 117.79136,
          "velocity": 0.6220472440944882
        },
        {
          "duration": 0.18404900000000168,
          "durationTicks": 96,
          "midi": 57,
          "name": "A3",
          "ticks": 61440,
          "time": 117.79136,
          "velocity": 0.49606299212598426
        },
        {
          "duration": 0.18404900000000168,
          "durationTicks": 96,
          "midi": 43,
          "name": "G2",
          "ticks": 62208,
          "time": 119.263752,
          "velocity": 0.7874015748031497
        },
        {
          "duration": 0.18596617708332985,
          "durationTicks": 97,
          "midi": 55,
          "name": "G3",
          "ticks": 62208,
          "time": 119.263752,
          "velocity": 0.6929133858267716
        },
        {
          "duration": 0.18404900000000168,
          "durationTicks": 96,
          "midi": 62,
          "name": "D4",
          "ticks": 62208,
          "time": 119.263752,
          "velocity": 0.7874015748031497
        },
        {
          "duration": 0.18404900000000168,
          "durationTicks": 96,
          "midi": 47,
          "name": "B2",
          "ticks": 62208,
          "time": 119.263752,
          "velocity": 0.6929133858267716
        },
        {
          "duration": 0.18404900000000168,
          "durationTicks": 96,
          "midi": 47,
          "name": "B2",
          "ticks": 62304,
          "time": 119.447801,
          "velocity": 0.6929133858267716
        },
        {
          "duration": 0.18404900000000168,
          "durationTicks": 96,
          "midi": 43,
          "name": "G2",
          "ticks": 62304,
          "time": 119.447801,
          "velocity": 0.6929133858267716
        },
        {
          "duration": 0.18404900000000168,
          "durationTicks": 96,
          "midi": 62,
          "name": "D4",
          "ticks": 62304,
          "time": 119.447801,
          "velocity": 0.6220472440944882
        },
        {
          "duration": 0.18404900000000168,
          "durationTicks": 96,
          "midi": 55,
          "name": "G3",
          "ticks": 62304,
          "time": 119.447801,
          "velocity": 0.6929133858267716
        },
        {
          "duration": 0.18596617708331564,
          "durationTicks": 97,
          "midi": 62,
          "name": "D4",
          "ticks": 62400,
          "time": 119.63185,
          "velocity": 0.905511811023622
        },
        {
          "duration": 0.18404899999998747,
          "durationTicks": 96,
          "midi": 47,
          "name": "B2",
          "ticks": 62400,
          "time": 119.63185,
          "velocity": 0.905511811023622
        },
        {
          "duration": 0.18596617708331564,
          "durationTicks": 97,
          "midi": 55,
          "name": "G3",
          "ticks": 62400,
          "time": 119.63185,
          "velocity": 0.905511811023622
        },
        {
          "duration": 0.18404899999998747,
          "durationTicks": 96,
          "midi": 67,
          "name": "G4",
          "ticks": 62400,
          "time": 119.63185,
          "velocity": 0.905511811023622
        },
        {
          "duration": 0.18404899999998747,
          "durationTicks": 96,
          "midi": 50,
          "name": "D3",
          "ticks": 62400,
          "time": 119.63185,
          "velocity": 0.905511811023622
        },
        {
          "duration": 0.18404900000000168,
          "durationTicks": 96,
          "midi": 47,
          "name": "B2",
          "ticks": 62496,
          "time": 119.81589899999999,
          "velocity": 1
        },
        {
          "duration": 0.18404900000000168,
          "durationTicks": 96,
          "midi": 62,
          "name": "D4",
          "ticks": 62496,
          "time": 119.81589899999999,
          "velocity": 0.905511811023622
        },
        {
          "duration": 0.18404900000000168,
          "durationTicks": 96,
          "midi": 55,
          "name": "G3",
          "ticks": 62496,
          "time": 119.81589899999999,
          "velocity": 0.6220472440944882
        },
        {
          "duration": 0.18404900000000168,
          "durationTicks": 96,
          "midi": 50,
          "name": "D3",
          "ticks": 62496,
          "time": 119.81589899999999,
          "velocity": 0.7874015748031497
        },
        {
          "duration": 0.18404900000000168,
          "durationTicks": 96,
          "midi": 48,
          "name": "C3",
          "ticks": 62592,
          "time": 119.99994799999999,
          "velocity": 0.7874015748031497
        },
        {
          "duration": 0.18404900000000168,
          "durationTicks": 96,
          "midi": 55,
          "name": "G3",
          "ticks": 62592,
          "time": 119.99994799999999,
          "velocity": 0.6220472440944882
        },
        {
          "duration": 0.18596617708332985,
          "durationTicks": 97,
          "midi": 60,
          "name": "C4",
          "ticks": 62592,
          "time": 119.99994799999999,
          "velocity": 0.7874015748031497
        },
        {
          "duration": 0.18404900000000168,
          "durationTicks": 96,
          "midi": 64,
          "name": "E4",
          "ticks": 62592,
          "time": 119.99994799999999,
          "velocity": 0.7874015748031497
        },
        {
          "duration": 0.18596617708332985,
          "durationTicks": 97,
          "midi": 64,
          "name": "E4",
          "ticks": 62688,
          "time": 120.18399699999999,
          "velocity": 0.7874015748031497
        },
        {
          "duration": 0.18404900000000168,
          "durationTicks": 96,
          "midi": 55,
          "name": "G3",
          "ticks": 62688,
          "time": 120.18399699999999,
          "velocity": 0.5669291338582677
        },
        {
          "duration": 0.18404900000000168,
          "durationTicks": 96,
          "midi": 48,
          "name": "C3",
          "ticks": 62688,
          "time": 120.18399699999999,
          "velocity": 0.6929133858267716
        },
        {
          "duration": 0.18596617708332985,
          "durationTicks": 97,
          "midi": 60,
          "name": "C4",
          "ticks": 62688,
          "time": 120.18399699999999,
          "velocity": 0.7874015748031497
        },
        {
          "duration": 0.18404900000000168,
          "durationTicks": 96,
          "midi": 52,
          "name": "E3",
          "ticks": 62784,
          "time": 120.36804599999999,
          "velocity": 0.905511811023622
        },
        {
          "duration": 0.18404900000000168,
          "durationTicks": 96,
          "midi": 55,
          "name": "G3",
          "ticks": 62784,
          "time": 120.36804599999999,
          "velocity": 0.6929133858267716
        },
        {
          "duration": 0.18404900000000168,
          "durationTicks": 96,
          "midi": 64,
          "name": "E4",
          "ticks": 62784,
          "time": 120.36804599999999,
          "velocity": 0.7874015748031497
        },
        {
          "duration": 0.18596617708332985,
          "durationTicks": 97,
          "midi": 60,
          "name": "C4",
          "ticks": 62784,
          "time": 120.36804599999999,
          "velocity": 0.7874015748031497
        },
        {
          "duration": 0.18404900000000168,
          "durationTicks": 96,
          "midi": 55,
          "name": "G3",
          "ticks": 62880,
          "time": 120.552095,
          "velocity": 0.6929133858267716
        },
        {
          "duration": 0.18404900000000168,
          "durationTicks": 96,
          "midi": 60,
          "name": "C4",
          "ticks": 62880,
          "time": 120.552095,
          "velocity": 0.905511811023622
        },
        {
          "duration": 0.18404900000000168,
          "durationTicks": 96,
          "midi": 47,
          "name": "B2",
          "ticks": 62976,
          "time": 120.736144,
          "velocity": 0.905511811023622
        },
        {
          "duration": 0.18404900000000168,
          "durationTicks": 96,
          "midi": 62,
          "name": "D4",
          "ticks": 62976,
          "time": 120.736144,
          "velocity": 0.6929133858267716
        },
        {
          "duration": 0.18404900000000168,
          "durationTicks": 96,
          "midi": 55,
          "name": "G3",
          "ticks": 62976,
          "time": 120.736144,
          "velocity": 0.6220472440944882
        },
        {
          "duration": 0.18404900000000168,
          "durationTicks": 96,
          "midi": 43,
          "name": "G2",
          "ticks": 62976,
          "time": 120.736144,
          "velocity": 0.6929133858267716
        },
        {
          "duration": 0.18404900000000168,
          "durationTicks": 96,
          "midi": 62,
          "name": "D4",
          "ticks": 63072,
          "time": 120.920193,
          "velocity": 0.7874015748031497
        },
        {
          "duration": 0.18596617708331564,
          "durationTicks": 97,
          "midi": 55,
          "name": "G3",
          "ticks": 63072,
          "time": 120.920193,
          "velocity": 0.6220472440944882
        },
        {
          "duration": 0.18404900000000168,
          "durationTicks": 96,
          "midi": 47,
          "name": "B2",
          "ticks": 63072,
          "time": 120.920193,
          "velocity": 0.905511811023622
        },
        {
          "duration": 0.18404899999998747,
          "durationTicks": 96,
          "midi": 62,
          "name": "D4",
          "ticks": 63168,
          "time": 121.104242,
          "velocity": 0.905511811023622
        },
        {
          "duration": 0.18404899999998747,
          "durationTicks": 96,
          "midi": 43,
          "name": "G2",
          "ticks": 63168,
          "time": 121.104242,
          "velocity": 1
        },
        {
          "duration": 0.18404899999998747,
          "durationTicks": 96,
          "midi": 67,
          "name": "G4",
          "ticks": 63168,
          "time": 121.104242,
          "velocity": 0.905511811023622
        },
        {
          "duration": 0.18404899999998747,
          "durationTicks": 96,
          "midi": 55,
          "name": "G3",
          "ticks": 63168,
          "time": 121.104242,
          "velocity": 0.7874015748031497
        },
        {
          "duration": 0.18404900000000168,
          "durationTicks": 96,
          "midi": 62,
          "name": "D4",
          "ticks": 63264,
          "time": 121.28829099999999,
          "velocity": 0.6929133858267716
        },
        {
          "duration": 0.18404900000000168,
          "durationTicks": 96,
          "midi": 47,
          "name": "B2",
          "ticks": 63264,
          "time": 121.28829099999999,
          "velocity": 0.6929133858267716
        },
        {
          "duration": 0.18404900000000168,
          "durationTicks": 96,
          "midi": 55,
          "name": "G3",
          "ticks": 63264,
          "time": 121.28829099999999,
          "velocity": 0.6929133858267716
        },
        {
          "duration": 0.18404900000000168,
          "durationTicks": 96,
          "midi": 48,
          "name": "C3",
          "ticks": 63360,
          "time": 121.47233999999999,
          "velocity": 0.905511811023622
        },
        {
          "duration": 0.18404900000000168,
          "durationTicks": 96,
          "midi": 55,
          "name": "G3",
          "ticks": 63360,
          "time": 121.47233999999999,
          "velocity": 0.6220472440944882
        },
        {
          "duration": 0.18404900000000168,
          "durationTicks": 96,
          "midi": 64,
          "name": "E4",
          "ticks": 63360,
          "time": 121.47233999999999,
          "velocity": 0.6929133858267716
        },
        {
          "duration": 0.18404900000000168,
          "durationTicks": 96,
          "midi": 60,
          "name": "C4",
          "ticks": 63360,
          "time": 121.47233999999999,
          "velocity": 0.7874015748031497
        },
        {
          "duration": 0.18404900000000168,
          "durationTicks": 96,
          "midi": 48,
          "name": "C3",
          "ticks": 63456,
          "time": 121.65638899999999,
          "velocity": 0.6929133858267716
        },
        {
          "duration": 0.18404900000000168,
          "durationTicks": 96,
          "midi": 55,
          "name": "G3",
          "ticks": 63456,
          "time": 121.65638899999999,
          "velocity": 0.6220472440944882
        },
        {
          "duration": 0.18404900000000168,
          "durationTicks": 96,
          "midi": 64,
          "name": "E4",
          "ticks": 63456,
          "time": 121.65638899999999,
          "velocity": 0.6929133858267716
        },
        {
          "duration": 0.18404900000000168,
          "durationTicks": 96,
          "midi": 60,
          "name": "C4",
          "ticks": 63456,
          "time": 121.65638899999999,
          "velocity": 0.6220472440944882
        },
        {
          "duration": 0.18404900000000168,
          "durationTicks": 96,
          "midi": 60,
          "name": "C4",
          "ticks": 63552,
          "time": 121.84043799999999,
          "velocity": 0.905511811023622
        },
        {
          "duration": 0.18404900000000168,
          "durationTicks": 96,
          "midi": 55,
          "name": "G3",
          "ticks": 63552,
          "time": 121.84043799999999,
          "velocity": 0.6929133858267716
        },
        {
          "duration": 0.18404900000000168,
          "durationTicks": 96,
          "midi": 52,
          "name": "E3",
          "ticks": 63552,
          "time": 121.84043799999999,
          "velocity": 0.7874015748031497
        },
        {
          "duration": 0.18404900000000168,
          "durationTicks": 96,
          "midi": 55,
          "name": "G3",
          "ticks": 63648,
          "time": 122.024487,
          "velocity": 0.6220472440944882
        },
        {
          "duration": 0.18404900000000168,
          "durationTicks": 96,
          "midi": 48,
          "name": "C3",
          "ticks": 63648,
          "time": 122.024487,
          "velocity": 0.6929133858267716
        },
        {
          "duration": 0.18404900000000168,
          "durationTicks": 96,
          "midi": 64,
          "name": "E4",
          "ticks": 63648,
          "time": 122.024487,
          "velocity": 0.905511811023622
        },
        {
          "duration": 0.18404900000000168,
          "durationTicks": 96,
          "midi": 55,
          "name": "G3",
          "ticks": 63744,
          "time": 122.208536,
          "velocity": 0.6929133858267716
        },
        {
          "duration": 0.18404900000000168,
          "durationTicks": 96,
          "midi": 47,
          "name": "B2",
          "ticks": 63744,
          "time": 122.208536,
          "velocity": 0.6929133858267716
        },
        {
          "duration": 0.18404900000000168,
          "durationTicks": 96,
          "midi": 43,
          "name": "G2",
          "ticks": 63744,
          "time": 122.208536,
          "velocity": 0.7874015748031497
        },
        {
          "duration": 0.18596617708332985,
          "durationTicks": 97,
          "midi": 62,
          "name": "D4",
          "ticks": 63744,
          "time": 122.208536,
          "velocity": 0.7874015748031497
        },
        {
          "duration": 0.18404900000000168,
          "durationTicks": 96,
          "midi": 55,
          "name": "G3",
          "ticks": 63840,
          "time": 122.392585,
          "velocity": 0.6929133858267716
        },
        {
          "duration": 0.18404900000000168,
          "durationTicks": 96,
          "midi": 43,
          "name": "G2",
          "ticks": 63840,
          "time": 122.392585,
          "velocity": 0.6929133858267716
        },
        {
          "duration": 0.18404900000000168,
          "durationTicks": 96,
          "midi": 47,
          "name": "B2",
          "ticks": 63840,
          "time": 122.392585,
          "velocity": 0.6929133858267716
        },
        {
          "duration": 0.18404900000000168,
          "durationTicks": 96,
          "midi": 62,
          "name": "D4",
          "ticks": 63840,
          "time": 122.392585,
          "velocity": 0.6220472440944882
        },
        {
          "duration": 0.18404900000000168,
          "durationTicks": 96,
          "midi": 47,
          "name": "B2",
          "ticks": 63936,
          "time": 122.576634,
          "velocity": 0.905511811023622
        },
        {
          "duration": 0.18404900000000168,
          "durationTicks": 96,
          "midi": 62,
          "name": "D4",
          "ticks": 63936,
          "time": 122.576634,
          "velocity": 0.905511811023622
        },
        {
          "duration": 0.18404900000000168,
          "durationTicks": 96,
          "midi": 50,
          "name": "D3",
          "ticks": 63936,
          "time": 122.576634,
          "velocity": 0.905511811023622
        },
        {
          "duration": 0.18404900000000168,
          "durationTicks": 96,
          "midi": 55,
          "name": "G3",
          "ticks": 63936,
          "time": 122.576634,
          "velocity": 0.905511811023622
        },
        {
          "duration": 0.18404900000000168,
          "durationTicks": 96,
          "midi": 67,
          "name": "G4",
          "ticks": 63936,
          "time": 122.576634,
          "velocity": 0.905511811023622
        },
        {
          "duration": 0.18404899999998747,
          "durationTicks": 96,
          "midi": 62,
          "name": "D4",
          "ticks": 64032,
          "time": 122.760683,
          "velocity": 0.905511811023622
        },
        {
          "duration": 0.18404899999998747,
          "durationTicks": 96,
          "midi": 47,
          "name": "B2",
          "ticks": 64032,
          "time": 122.760683,
          "velocity": 1
        },
        {
          "duration": 0.18404899999998747,
          "durationTicks": 96,
          "midi": 55,
          "name": "G3",
          "ticks": 64032,
          "time": 122.760683,
          "velocity": 0.6220472440944882
        },
        {
          "duration": 0.18404899999998747,
          "durationTicks": 96,
          "midi": 50,
          "name": "D3",
          "ticks": 64032,
          "time": 122.760683,
          "velocity": 0.7874015748031497
        },
        {
          "duration": 0.18404900000000168,
          "durationTicks": 96,
          "midi": 64,
          "name": "E4",
          "ticks": 64128,
          "time": 122.94473199999999,
          "velocity": 0.7874015748031497
        },
        {
          "duration": 0.18404900000000168,
          "durationTicks": 96,
          "midi": 60,
          "name": "C4",
          "ticks": 64128,
          "time": 122.94473199999999,
          "velocity": 0.7874015748031497
        },
        {
          "duration": 0.18404900000000168,
          "durationTicks": 96,
          "midi": 55,
          "name": "G3",
          "ticks": 64128,
          "time": 122.94473199999999,
          "velocity": 0.6220472440944882
        },
        {
          "duration": 0.18404900000000168,
          "durationTicks": 96,
          "midi": 48,
          "name": "C3",
          "ticks": 64128,
          "time": 122.94473199999999,
          "velocity": 0.7874015748031497
        },
        {
          "duration": 0.18596617708332985,
          "durationTicks": 97,
          "midi": 55,
          "name": "G3",
          "ticks": 64224,
          "time": 123.12878099999999,
          "velocity": 0.5669291338582677
        },
        {
          "duration": 0.18404900000000168,
          "durationTicks": 96,
          "midi": 48,
          "name": "C3",
          "ticks": 64224,
          "time": 123.12878099999999,
          "velocity": 0.6929133858267716
        },
        {
          "duration": 0.18404900000000168,
          "durationTicks": 96,
          "midi": 64,
          "name": "E4",
          "ticks": 64224,
          "time": 123.12878099999999,
          "velocity": 0.7874015748031497
        },
        {
          "duration": 0.18404900000000168,
          "durationTicks": 96,
          "midi": 60,
          "name": "C4",
          "ticks": 64224,
          "time": 123.12878099999999,
          "velocity": 0.7874015748031497
        },
        {
          "duration": 0.18404900000000168,
          "durationTicks": 96,
          "midi": 60,
          "name": "C4",
          "ticks": 64320,
          "time": 123.31282999999999,
          "velocity": 0.7874015748031497
        },
        {
          "duration": 0.18404900000000168,
          "durationTicks": 96,
          "midi": 52,
          "name": "E3",
          "ticks": 64320,
          "time": 123.31282999999999,
          "velocity": 0.905511811023622
        },
        {
          "duration": 0.18404900000000168,
          "durationTicks": 96,
          "midi": 64,
          "name": "E4",
          "ticks": 64320,
          "time": 123.31282999999999,
          "velocity": 0.7874015748031497
        },
        {
          "duration": 0.18404900000000168,
          "durationTicks": 96,
          "midi": 55,
          "name": "G3",
          "ticks": 64320,
          "time": 123.31282999999999,
          "velocity": 0.6929133858267716
        },
        {
          "duration": 0.18404900000000168,
          "durationTicks": 96,
          "midi": 60,
          "name": "C4",
          "ticks": 64416,
          "time": 123.49687899999999,
          "velocity": 0.905511811023622
        },
        {
          "duration": 0.18404900000000168,
          "durationTicks": 96,
          "midi": 55,
          "name": "G3",
          "ticks": 64416,
          "time": 123.49687899999999,
          "velocity": 0.6929133858267716
        },
        {
          "duration": 0.18596617708332985,
          "durationTicks": 97,
          "midi": 55,
          "name": "G3",
          "ticks": 64512,
          "time": 123.680928,
          "velocity": 0.6220472440944882
        },
        {
          "duration": 0.18404900000000168,
          "durationTicks": 96,
          "midi": 43,
          "name": "G2",
          "ticks": 64512,
          "time": 123.680928,
          "velocity": 0.6929133858267716
        },
        {
          "duration": 0.18404900000000168,
          "durationTicks": 96,
          "midi": 47,
          "name": "B2",
          "ticks": 64512,
          "time": 123.680928,
          "velocity": 0.905511811023622
        },
        {
          "duration": 0.18404900000000168,
          "durationTicks": 96,
          "midi": 62,
          "name": "D4",
          "ticks": 64512,
          "time": 123.680928,
          "velocity": 0.6929133858267716
        },
        {
          "duration": 0.18404900000000168,
          "durationTicks": 96,
          "midi": 55,
          "name": "G3",
          "ticks": 64608,
          "time": 123.864977,
          "velocity": 0.6220472440944882
        },
        {
          "duration": 0.18404900000000168,
          "durationTicks": 96,
          "midi": 62,
          "name": "D4",
          "ticks": 64608,
          "time": 123.864977,
          "velocity": 0.7874015748031497
        },
        {
          "duration": 0.18404900000000168,
          "durationTicks": 96,
          "midi": 47,
          "name": "B2",
          "ticks": 64608,
          "time": 123.864977,
          "velocity": 0.905511811023622
        },
        {
          "duration": 0.18404900000000168,
          "durationTicks": 96,
          "midi": 43,
          "name": "G2",
          "ticks": 64704,
          "time": 124.049026,
          "velocity": 1
        },
        {
          "duration": 0.18404900000000168,
          "durationTicks": 96,
          "midi": 67,
          "name": "G4",
          "ticks": 64704,
          "time": 124.049026,
          "velocity": 0.905511811023622
        },
        {
          "duration": 0.18404900000000168,
          "durationTicks": 96,
          "midi": 55,
          "name": "G3",
          "ticks": 64704,
          "time": 124.049026,
          "velocity": 0.7874015748031497
        },
        {
          "duration": 0.18596617708331564,
          "durationTicks": 97,
          "midi": 62,
          "name": "D4",
          "ticks": 64704,
          "time": 124.049026,
          "velocity": 0.905511811023622
        },
        {
          "duration": 0.18596617708331564,
          "durationTicks": 97,
          "midi": 55,
          "name": "G3",
          "ticks": 64800,
          "time": 124.233075,
          "velocity": 0.6929133858267716
        },
        {
          "duration": 0.18404899999998747,
          "durationTicks": 96,
          "midi": 47,
          "name": "B2",
          "ticks": 64800,
          "time": 124.233075,
          "velocity": 0.6929133858267716
        },
        {
          "duration": 0.18404899999998747,
          "durationTicks": 96,
          "midi": 62,
          "name": "D4",
          "ticks": 64800,
          "time": 124.233075,
          "velocity": 0.6929133858267716
        },
        {
          "duration": 0.18596617708332985,
          "durationTicks": 97,
          "midi": 64,
          "name": "E4",
          "ticks": 64896,
          "time": 124.41712399999999,
          "velocity": 0.6929133858267716
        },
        {
          "duration": 0.18404900000000168,
          "durationTicks": 96,
          "midi": 60,
          "name": "C4",
          "ticks": 64896,
          "time": 124.41712399999999,
          "velocity": 0.7874015748031497
        },
        {
          "duration": 0.18404900000000168,
          "durationTicks": 96,
          "midi": 55,
          "name": "G3",
          "ticks": 64896,
          "time": 124.41712399999999,
          "velocity": 0.6220472440944882
        },
        {
          "duration": 0.18404900000000168,
          "durationTicks": 96,
          "midi": 48,
          "name": "C3",
          "ticks": 64896,
          "time": 124.41712399999999,
          "velocity": 0.905511811023622
        },
        {
          "duration": 0.18596617708332985,
          "durationTicks": 97,
          "midi": 60,
          "name": "C4",
          "ticks": 64992,
          "time": 124.60117299999999,
          "velocity": 0.6220472440944882
        },
        {
          "duration": 0.18404900000000168,
          "durationTicks": 96,
          "midi": 55,
          "name": "G3",
          "ticks": 64992,
          "time": 124.60117299999999,
          "velocity": 0.6220472440944882
        },
        {
          "duration": 0.18404900000000168,
          "durationTicks": 96,
          "midi": 48,
          "name": "C3",
          "ticks": 64992,
          "time": 124.60117299999999,
          "velocity": 0.6929133858267716
        },
        {
          "duration": 0.18404900000000168,
          "durationTicks": 96,
          "midi": 64,
          "name": "E4",
          "ticks": 64992,
          "time": 124.60117299999999,
          "velocity": 0.6929133858267716
        },
        {
          "duration": 0.18404900000000168,
          "durationTicks": 96,
          "midi": 55,
          "name": "G3",
          "ticks": 65088,
          "time": 124.78522199999999,
          "velocity": 0.6929133858267716
        },
        {
          "duration": 0.18404900000000168,
          "durationTicks": 96,
          "midi": 52,
          "name": "E3",
          "ticks": 65088,
          "time": 124.78522199999999,
          "velocity": 0.7874015748031497
        },
        {
          "duration": 0.18404900000000168,
          "durationTicks": 96,
          "midi": 60,
          "name": "C4",
          "ticks": 65088,
          "time": 124.78522199999999,
          "velocity": 0.905511811023622
        },
        {
          "duration": 0.18404900000000168,
          "durationTicks": 96,
          "midi": 55,
          "name": "G3",
          "ticks": 65184,
          "time": 124.96927099999999,
          "velocity": 0.6220472440944882
        },
        {
          "duration": 0.18404900000000168,
          "durationTicks": 96,
          "midi": 48,
          "name": "C3",
          "ticks": 65184,
          "time": 124.96927099999999,
          "velocity": 0.6929133858267716
        },
        {
          "duration": 0.18404900000000168,
          "durationTicks": 96,
          "midi": 64,
          "name": "E4",
          "ticks": 65184,
          "time": 124.96927099999999,
          "velocity": 0.905511811023622
        },
        {
          "duration": 0.18596617708332985,
          "durationTicks": 97,
          "midi": 43,
          "name": "G2",
          "ticks": 65280,
          "time": 125.15332,
          "velocity": 0.7874015748031497
        },
        {
          "duration": 0.18404900000000168,
          "durationTicks": 96,
          "midi": 55,
          "name": "G3",
          "ticks": 65280,
          "time": 125.15332,
          "velocity": 0.6929133858267716
        },
        {
          "duration": 0.18404900000000168,
          "durationTicks": 96,
          "midi": 47,
          "name": "B2",
          "ticks": 65280,
          "time": 125.15332,
          "velocity": 0.6929133858267716
        },
        {
          "duration": 0.18596617708332985,
          "durationTicks": 97,
          "midi": 62,
          "name": "D4",
          "ticks": 65280,
          "time": 125.15332,
          "velocity": 0.7874015748031497
        },
        {
          "duration": 0.18404900000000168,
          "durationTicks": 96,
          "midi": 55,
          "name": "G3",
          "ticks": 65376,
          "time": 125.337369,
          "velocity": 0.6929133858267716
        },
        {
          "duration": 0.18404900000000168,
          "durationTicks": 96,
          "midi": 47,
          "name": "B2",
          "ticks": 65376,
          "time": 125.337369,
          "velocity": 0.6929133858267716
        },
        {
          "duration": 0.18404900000000168,
          "durationTicks": 96,
          "midi": 62,
          "name": "D4",
          "ticks": 65376,
          "time": 125.337369,
          "velocity": 0.6220472440944882
        },
        {
          "duration": 0.18404900000000168,
          "durationTicks": 96,
          "midi": 43,
          "name": "G2",
          "ticks": 65376,
          "time": 125.337369,
          "velocity": 0.6929133858267716
        },
        {
          "duration": 0.18596617708331564,
          "durationTicks": 97,
          "midi": 47,
          "name": "B2",
          "ticks": 65472,
          "time": 125.521418,
          "velocity": 0.905511811023622
        },
        {
          "duration": 0.18404900000000168,
          "durationTicks": 96,
          "midi": 50,
          "name": "D3",
          "ticks": 65472,
          "time": 125.521418,
          "velocity": 0.905511811023622
        },
        {
          "duration": 0.18404900000000168,
          "durationTicks": 96,
          "midi": 62,
          "name": "D4",
          "ticks": 65472,
          "time": 125.521418,
          "velocity": 0.905511811023622
        },
        {
          "duration": 0.18404900000000168,
          "durationTicks": 96,
          "midi": 55,
          "name": "G3",
          "ticks": 65472,
          "time": 125.521418,
          "velocity": 0.905511811023622
        },
        {
          "duration": 0.18404900000000168,
          "durationTicks": 96,
          "midi": 67,
          "name": "G4",
          "ticks": 65472,
          "time": 125.521418,
          "velocity": 0.905511811023622
        },
        {
          "duration": 0.18404900000000168,
          "durationTicks": 96,
          "midi": 55,
          "name": "G3",
          "ticks": 65568,
          "time": 125.705467,
          "velocity": 0.6220472440944882
        },
        {
          "duration": 0.18404900000000168,
          "durationTicks": 96,
          "midi": 50,
          "name": "D3",
          "ticks": 65568,
          "time": 125.705467,
          "velocity": 0.7874015748031497
        },
        {
          "duration": 0.18404900000000168,
          "durationTicks": 96,
          "midi": 62,
          "name": "D4",
          "ticks": 65568,
          "time": 125.705467,
          "velocity": 0.905511811023622
        },
        {
          "duration": 0.18404900000000168,
          "durationTicks": 96,
          "midi": 47,
          "name": "B2",
          "ticks": 65568,
          "time": 125.705467,
          "velocity": 1
        },
        {
          "duration": 0.18404899999998747,
          "durationTicks": 96,
          "midi": 55,
          "name": "G3",
          "ticks": 65664,
          "time": 125.889516,
          "velocity": 0.6220472440944882
        },
        {
          "duration": 0.18404899999998747,
          "durationTicks": 96,
          "midi": 48,
          "name": "C3",
          "ticks": 65664,
          "time": 125.889516,
          "velocity": 0.7874015748031497
        },
        {
          "duration": 0.18596617708331564,
          "durationTicks": 97,
          "midi": 64,
          "name": "E4",
          "ticks": 65664,
          "time": 125.889516,
          "velocity": 0.7874015748031497
        },
        {
          "duration": 0.18404899999998747,
          "durationTicks": 96,
          "midi": 60,
          "name": "C4",
          "ticks": 65664,
          "time": 125.889516,
          "velocity": 0.7874015748031497
        },
        {
          "duration": 0.18404900000000168,
          "durationTicks": 96,
          "midi": 48,
          "name": "C3",
          "ticks": 65760,
          "time": 126.07356499999999,
          "velocity": 0.6929133858267716
        },
        {
          "duration": 0.18404900000000168,
          "durationTicks": 96,
          "midi": 55,
          "name": "G3",
          "ticks": 65760,
          "time": 126.07356499999999,
          "velocity": 0.5669291338582677
        },
        {
          "duration": 0.18596617708332985,
          "durationTicks": 97,
          "midi": 60,
          "name": "C4",
          "ticks": 65760,
          "time": 126.07356499999999,
          "velocity": 0.7874015748031497
        },
        {
          "duration": 0.18404900000000168,
          "durationTicks": 96,
          "midi": 64,
          "name": "E4",
          "ticks": 65760,
          "time": 126.07356499999999,
          "velocity": 0.7874015748031497
        },
        {
          "duration": 0.18404900000000168,
          "durationTicks": 96,
          "midi": 64,
          "name": "E4",
          "ticks": 65856,
          "time": 126.25761399999999,
          "velocity": 0.7874015748031497
        },
        {
          "duration": 0.18404900000000168,
          "durationTicks": 96,
          "midi": 52,
          "name": "E3",
          "ticks": 65856,
          "time": 126.25761399999999,
          "velocity": 0.905511811023622
        },
        {
          "duration": 0.18596617708332985,
          "durationTicks": 97,
          "midi": 55,
          "name": "G3",
          "ticks": 65856,
          "time": 126.25761399999999,
          "velocity": 0.6929133858267716
        },
        {
          "duration": 0.18404900000000168,
          "durationTicks": 96,
          "midi": 60,
          "name": "C4",
          "ticks": 65856,
          "time": 126.25761399999999,
          "velocity": 0.7874015748031497
        },
        {
          "duration": 0.18404900000000168,
          "durationTicks": 96,
          "midi": 55,
          "name": "G3",
          "ticks": 65952,
          "time": 126.44166299999999,
          "velocity": 0.6929133858267716
        },
        {
          "duration": 0.18404900000000168,
          "durationTicks": 96,
          "midi": 60,
          "name": "C4",
          "ticks": 65952,
          "time": 126.44166299999999,
          "velocity": 0.905511811023622
        },
        {
          "duration": 0.18404900000000168,
          "durationTicks": 96,
          "midi": 62,
          "name": "D4",
          "ticks": 66048,
          "time": 126.625712,
          "velocity": 0.6929133858267716
        },
        {
          "duration": 0.18404900000000168,
          "durationTicks": 96,
          "midi": 43,
          "name": "G2",
          "ticks": 66048,
          "time": 126.625712,
          "velocity": 0.6929133858267716
        },
        {
          "duration": 0.18404900000000168,
          "durationTicks": 96,
          "midi": 47,
          "name": "B2",
          "ticks": 66048,
          "time": 126.625712,
          "velocity": 0.905511811023622
        },
        {
          "duration": 0.18404900000000168,
          "durationTicks": 96,
          "midi": 55,
          "name": "G3",
          "ticks": 66048,
          "time": 126.625712,
          "velocity": 0.6220472440944882
        },
        {
          "duration": 0.18404900000000168,
          "durationTicks": 96,
          "midi": 62,
          "name": "D4",
          "ticks": 66144,
          "time": 126.809761,
          "velocity": 0.7874015748031497
        },
        {
          "duration": 0.18404900000000168,
          "durationTicks": 96,
          "midi": 47,
          "name": "B2",
          "ticks": 66144,
          "time": 126.809761,
          "velocity": 0.905511811023622
        },
        {
          "duration": 0.18404900000000168,
          "durationTicks": 96,
          "midi": 55,
          "name": "G3",
          "ticks": 66144,
          "time": 126.809761,
          "velocity": 0.6220472440944882
        },
        {
          "duration": 0.18596617708332985,
          "durationTicks": 97,
          "midi": 62,
          "name": "D4",
          "ticks": 66240,
          "time": 126.99381,
          "velocity": 0.905511811023622
        },
        {
          "duration": 0.18404900000000168,
          "durationTicks": 96,
          "midi": 55,
          "name": "G3",
          "ticks": 66240,
          "time": 126.99381,
          "velocity": 0.7874015748031497
        },
        {
          "duration": 0.18404900000000168,
          "durationTicks": 96,
          "midi": 67,
          "name": "G4",
          "ticks": 66240,
          "time": 126.99381,
          "velocity": 0.905511811023622
        },
        {
          "duration": 0.18404900000000168,
          "durationTicks": 96,
          "midi": 43,
          "name": "G2",
          "ticks": 66240,
          "time": 126.99381,
          "velocity": 1
        },
        {
          "duration": 0.18404900000000168,
          "durationTicks": 96,
          "midi": 55,
          "name": "G3",
          "ticks": 66336,
          "time": 127.177859,
          "velocity": 0.6929133858267716
        },
        {
          "duration": 0.18404900000000168,
          "durationTicks": 96,
          "midi": 62,
          "name": "D4",
          "ticks": 66336,
          "time": 127.177859,
          "velocity": 0.6929133858267716
        },
        {
          "duration": 0.18404900000000168,
          "durationTicks": 96,
          "midi": 47,
          "name": "B2",
          "ticks": 66336,
          "time": 127.177859,
          "velocity": 0.6929133858267716
        },
        {
          "duration": 0.18596617708331564,
          "durationTicks": 97,
          "midi": 48,
          "name": "C3",
          "ticks": 66432,
          "time": 127.361908,
          "velocity": 0.905511811023622
        },
        {
          "duration": 0.18404899999998747,
          "durationTicks": 96,
          "midi": 64,
          "name": "E4",
          "ticks": 66432,
          "time": 127.361908,
          "velocity": 0.6929133858267716
        },
        {
          "duration": 0.18404899999998747,
          "durationTicks": 96,
          "midi": 60,
          "name": "C4",
          "ticks": 66432,
          "time": 127.361908,
          "velocity": 0.7874015748031497
        },
        {
          "duration": 0.18404899999998747,
          "durationTicks": 96,
          "midi": 55,
          "name": "G3",
          "ticks": 66432,
          "time": 127.361908,
          "velocity": 0.6220472440944882
        },
        {
          "duration": 0.18404900000000168,
          "durationTicks": 96,
          "midi": 60,
          "name": "C4",
          "ticks": 66528,
          "time": 127.54595699999999,
          "velocity": 0.6220472440944882
        },
        {
          "duration": 0.18404900000000168,
          "durationTicks": 96,
          "midi": 64,
          "name": "E4",
          "ticks": 66528,
          "time": 127.54595699999999,
          "velocity": 0.6929133858267716
        },
        {
          "duration": 0.18404900000000168,
          "durationTicks": 96,
          "midi": 55,
          "name": "G3",
          "ticks": 66528,
          "time": 127.54595699999999,
          "velocity": 0.6220472440944882
        },
        {
          "duration": 0.18404900000000168,
          "durationTicks": 96,
          "midi": 48,
          "name": "C3",
          "ticks": 66528,
          "time": 127.54595699999999,
          "velocity": 0.6929133858267716
        },
        {
          "duration": 0.18404900000000168,
          "durationTicks": 96,
          "midi": 60,
          "name": "C4",
          "ticks": 66624,
          "time": 127.73000599999999,
          "velocity": 0.905511811023622
        },
        {
          "duration": 0.18404900000000168,
          "durationTicks": 96,
          "midi": 52,
          "name": "E3",
          "ticks": 66624,
          "time": 127.73000599999999,
          "velocity": 0.7874015748031497
        },
        {
          "duration": 0.18404900000000168,
          "durationTicks": 96,
          "midi": 55,
          "name": "G3",
          "ticks": 66624,
          "time": 127.73000599999999,
          "velocity": 0.6929133858267716
        },
        {
          "duration": 0.1840490000000159,
          "durationTicks": 96,
          "midi": 64,
          "name": "E4",
          "ticks": 66720,
          "time": 127.91405499999999,
          "velocity": 0.905511811023622
        },
        {
          "duration": 0.1840490000000159,
          "durationTicks": 96,
          "midi": 55,
          "name": "G3",
          "ticks": 66720,
          "time": 127.91405499999999,
          "velocity": 0.6220472440944882
        },
        {
          "duration": 0.1840490000000159,
          "durationTicks": 96,
          "midi": 48,
          "name": "C3",
          "ticks": 66720,
          "time": 127.91405499999999,
          "velocity": 0.6929133858267716
        },
        {
          "duration": 0.18596617708331564,
          "durationTicks": 97,
          "midi": 43,
          "name": "G2",
          "ticks": 66816,
          "time": 128.098104,
          "velocity": 0.7874015748031497
        },
        {
          "duration": 0.18404899999998747,
          "durationTicks": 96,
          "midi": 55,
          "name": "G3",
          "ticks": 66816,
          "time": 128.098104,
          "velocity": 0.6929133858267716
        },
        {
          "duration": 0.18596617708331564,
          "durationTicks": 97,
          "midi": 62,
          "name": "D4",
          "ticks": 66816,
          "time": 128.098104,
          "velocity": 0.7874015748031497
        },
        {
          "duration": 0.18404899999998747,
          "durationTicks": 96,
          "midi": 47,
          "name": "B2",
          "ticks": 66816,
          "time": 128.098104,
          "velocity": 0.6929133858267716
        },
        {
          "duration": 0.18404899999998747,
          "durationTicks": 96,
          "midi": 55,
          "name": "G3",
          "ticks": 66912,
          "time": 128.282153,
          "velocity": 0.6929133858267716
        },
        {
          "duration": 0.18404899999998747,
          "durationTicks": 96,
          "midi": 47,
          "name": "B2",
          "ticks": 66912,
          "time": 128.282153,
          "velocity": 0.6929133858267716
        },
        {
          "duration": 0.18404899999998747,
          "durationTicks": 96,
          "midi": 43,
          "name": "G2",
          "ticks": 66912,
          "time": 128.282153,
          "velocity": 0.6929133858267716
        },
        {
          "duration": 0.18596617708331564,
          "durationTicks": 97,
          "midi": 62,
          "name": "D4",
          "ticks": 66912,
          "time": 128.282153,
          "velocity": 0.6220472440944882
        },
        {
          "duration": 0.18596617708334406,
          "durationTicks": 97,
          "midi": 50,
          "name": "D3",
          "ticks": 67008,
          "time": 128.46620199999998,
          "velocity": 0.905511811023622
        },
        {
          "duration": 0.1840490000000159,
          "durationTicks": 96,
          "midi": 67,
          "name": "G4",
          "ticks": 67008,
          "time": 128.46620199999998,
          "velocity": 0.905511811023622
        },
        {
          "duration": 0.1840490000000159,
          "durationTicks": 96,
          "midi": 55,
          "name": "G3",
          "ticks": 67008,
          "time": 128.46620199999998,
          "velocity": 0.905511811023622
        },
        {
          "duration": 0.1840490000000159,
          "durationTicks": 96,
          "midi": 47,
          "name": "B2",
          "ticks": 67008,
          "time": 128.46620199999998,
          "velocity": 0.905511811023622
        },
        {
          "duration": 0.1840490000000159,
          "durationTicks": 96,
          "midi": 62,
          "name": "D4",
          "ticks": 67008,
          "time": 128.46620199999998,
          "velocity": 0.905511811023622
        },
        {
          "duration": 0.18404899999998747,
          "durationTicks": 96,
          "midi": 55,
          "name": "G3",
          "ticks": 67104,
          "time": 128.650251,
          "velocity": 0.6220472440944882
        },
        {
          "duration": 0.18404899999998747,
          "durationTicks": 96,
          "midi": 62,
          "name": "D4",
          "ticks": 67104,
          "time": 128.650251,
          "velocity": 0.905511811023622
        },
        {
          "duration": 0.18404899999998747,
          "durationTicks": 96,
          "midi": 47,
          "name": "B2",
          "ticks": 67104,
          "time": 128.650251,
          "velocity": 1
        },
        {
          "duration": 0.18404899999998747,
          "durationTicks": 96,
          "midi": 50,
          "name": "D3",
          "ticks": 67104,
          "time": 128.650251,
          "velocity": 0.7874015748031497
        },
        {
          "duration": 0.1840490000000159,
          "durationTicks": 96,
          "midi": 64,
          "name": "E4",
          "ticks": 67200,
          "time": 128.83429999999998,
          "velocity": 0.7874015748031497
        },
        {
          "duration": 0.1840490000000159,
          "durationTicks": 96,
          "midi": 55,
          "name": "G3",
          "ticks": 67200,
          "time": 128.83429999999998,
          "velocity": 0.6220472440944882
        },
        {
          "duration": 0.1840490000000159,
          "durationTicks": 96,
          "midi": 60,
          "name": "C4",
          "ticks": 67200,
          "time": 128.83429999999998,
          "velocity": 0.7874015748031497
        },
        {
          "duration": 0.1840490000000159,
          "durationTicks": 96,
          "midi": 48,
          "name": "C3",
          "ticks": 67200,
          "time": 128.83429999999998,
          "velocity": 0.7874015748031497
        },
        {
          "duration": 0.18404899999998747,
          "durationTicks": 96,
          "midi": 64,
          "name": "E4",
          "ticks": 67296,
          "time": 129.018349,
          "velocity": 0.7874015748031497
        },
        {
          "duration": 0.18404899999998747,
          "durationTicks": 96,
          "midi": 48,
          "name": "C3",
          "ticks": 67296,
          "time": 129.018349,
          "velocity": 0.6929133858267716
        },
        {
          "duration": 0.18596617708331564,
          "durationTicks": 97,
          "midi": 60,
          "name": "C4",
          "ticks": 67296,
          "time": 129.018349,
          "velocity": 0.7874015748031497
        },
        {
          "duration": 0.18404899999998747,
          "durationTicks": 96,
          "midi": 55,
          "name": "G3",
          "ticks": 67296,
          "time": 129.018349,
          "velocity": 0.5669291338582677
        },
        {
          "duration": 0.1840490000000159,
          "durationTicks": 96,
          "midi": 55,
          "name": "G3",
          "ticks": 67392,
          "time": 129.202398,
          "velocity": 0.6929133858267716
        },
        {
          "duration": 0.18596617708334406,
          "durationTicks": 97,
          "midi": 60,
          "name": "C4",
          "ticks": 67392,
          "time": 129.202398,
          "velocity": 0.7874015748031497
        },
        {
          "duration": 0.1840490000000159,
          "durationTicks": 96,
          "midi": 64,
          "name": "E4",
          "ticks": 67392,
          "time": 129.202398,
          "velocity": 0.7874015748031497
        },
        {
          "duration": 0.1840490000000159,
          "durationTicks": 96,
          "midi": 52,
          "name": "E3",
          "ticks": 67392,
          "time": 129.202398,
          "velocity": 0.905511811023622
        },
        {
          "duration": 0.18404899999998747,
          "durationTicks": 96,
          "midi": 55,
          "name": "G3",
          "ticks": 67488,
          "time": 129.386447,
          "velocity": 0.6929133858267716
        },
        {
          "duration": 0.18404899999998747,
          "durationTicks": 96,
          "midi": 60,
          "name": "C4",
          "ticks": 67488,
          "time": 129.386447,
          "velocity": 0.905511811023622
        },
        {
          "duration": 0.1840490000000159,
          "durationTicks": 96,
          "midi": 43,
          "name": "G2",
          "ticks": 67584,
          "time": 129.570496,
          "velocity": 0.6929133858267716
        },
        {
          "duration": 0.18596617708331564,
          "durationTicks": 97,
          "midi": 55,
          "name": "G3",
          "ticks": 67584,
          "time": 129.570496,
          "velocity": 0.6220472440944882
        },
        {
          "duration": 0.1840490000000159,
          "durationTicks": 96,
          "midi": 62,
          "name": "D4",
          "ticks": 67584,
          "time": 129.570496,
          "velocity": 0.6929133858267716
        },
        {
          "duration": 0.1840490000000159,
          "durationTicks": 96,
          "midi": 47,
          "name": "B2",
          "ticks": 67584,
          "time": 129.570496,
          "velocity": 0.905511811023622
        },
        {
          "duration": 0.18404899999998747,
          "durationTicks": 96,
          "midi": 47,
          "name": "B2",
          "ticks": 67680,
          "time": 129.754545,
          "velocity": 0.905511811023622
        },
        {
          "duration": 0.18404899999998747,
          "durationTicks": 96,
          "midi": 55,
          "name": "G3",
          "ticks": 67680,
          "time": 129.754545,
          "velocity": 0.6220472440944882
        },
        {
          "duration": 0.18404899999998747,
          "durationTicks": 96,
          "midi": 62,
          "name": "D4",
          "ticks": 67680,
          "time": 129.754545,
          "velocity": 0.7874015748031497
        },
        {
          "duration": 0.18596617708331564,
          "durationTicks": 97,
          "midi": 62,
          "name": "D4",
          "ticks": 67776,
          "time": 129.938594,
          "velocity": 0.905511811023622
        },
        {
          "duration": 0.18404899999998747,
          "durationTicks": 96,
          "midi": 67,
          "name": "G4",
          "ticks": 67776,
          "time": 129.938594,
          "velocity": 0.905511811023622
        },
        {
          "duration": 0.18404899999998747,
          "durationTicks": 96,
          "midi": 43,
          "name": "G2",
          "ticks": 67776,
          "time": 129.938594,
          "velocity": 1
        },
        {
          "duration": 0.18596617708331564,
          "durationTicks": 97,
          "midi": 55,
          "name": "G3",
          "ticks": 67776,
          "time": 129.938594,
          "velocity": 0.7874015748031497
        },
        {
          "duration": 0.1840490000000159,
          "durationTicks": 96,
          "midi": 47,
          "name": "B2",
          "ticks": 67872,
          "time": 130.12264299999998,
          "velocity": 0.6929133858267716
        },
        {
          "duration": 0.1840490000000159,
          "durationTicks": 96,
          "midi": 62,
          "name": "D4",
          "ticks": 67872,
          "time": 130.12264299999998,
          "velocity": 0.6929133858267716
        },
        {
          "duration": 0.1840490000000159,
          "durationTicks": 96,
          "midi": 55,
          "name": "G3",
          "ticks": 67872,
          "time": 130.12264299999998,
          "velocity": 0.6929133858267716
        },
        {
          "duration": 0.18404899999998747,
          "durationTicks": 96,
          "midi": 60,
          "name": "C4",
          "ticks": 67968,
          "time": 130.306692,
          "velocity": 0.7874015748031497
        },
        {
          "duration": 0.18404899999998747,
          "durationTicks": 96,
          "midi": 55,
          "name": "G3",
          "ticks": 67968,
          "time": 130.306692,
          "velocity": 0.6220472440944882
        },
        {
          "duration": 0.18596617708331564,
          "durationTicks": 97,
          "midi": 48,
          "name": "C3",
          "ticks": 67968,
          "time": 130.306692,
          "velocity": 0.905511811023622
        },
        {
          "duration": 0.18404899999998747,
          "durationTicks": 96,
          "midi": 64,
          "name": "E4",
          "ticks": 67968,
          "time": 130.306692,
          "velocity": 0.6929133858267716
        },
        {
          "duration": 0.1840490000000159,
          "durationTicks": 96,
          "midi": 60,
          "name": "C4",
          "ticks": 68064,
          "time": 130.49074099999999,
          "velocity": 0.6220472440944882
        },
        {
          "duration": 0.1840490000000159,
          "durationTicks": 96,
          "midi": 64,
          "name": "E4",
          "ticks": 68064,
          "time": 130.49074099999999,
          "velocity": 0.6929133858267716
        },
        {
          "duration": 0.1840490000000159,
          "durationTicks": 96,
          "midi": 48,
          "name": "C3",
          "ticks": 68064,
          "time": 130.49074099999999,
          "velocity": 0.6929133858267716
        },
        {
          "duration": 0.18596617708334406,
          "durationTicks": 97,
          "midi": 55,
          "name": "G3",
          "ticks": 68064,
          "time": 130.49074099999999,
          "velocity": 0.6220472440944882
        },
        {
          "duration": 0.18404899999998747,
          "durationTicks": 96,
          "midi": 52,
          "name": "E3",
          "ticks": 68160,
          "time": 130.67479,
          "velocity": 0.7874015748031497
        },
        {
          "duration": 0.18404899999998747,
          "durationTicks": 96,
          "midi": 60,
          "name": "C4",
          "ticks": 68160,
          "time": 130.67479,
          "velocity": 0.905511811023622
        },
        {
          "duration": 0.18404899999998747,
          "durationTicks": 96,
          "midi": 55,
          "name": "G3",
          "ticks": 68160,
          "time": 130.67479,
          "velocity": 0.6929133858267716
        },
        {
          "duration": 0.1840490000000159,
          "durationTicks": 96,
          "midi": 48,
          "name": "C3",
          "ticks": 68256,
          "time": 130.858839,
          "velocity": 0.6929133858267716
        },
        {
          "duration": 0.1840490000000159,
          "durationTicks": 96,
          "midi": 55,
          "name": "G3",
          "ticks": 68256,
          "time": 130.858839,
          "velocity": 0.6220472440944882
        },
        {
          "duration": 0.1840490000000159,
          "durationTicks": 96,
          "midi": 64,
          "name": "E4",
          "ticks": 68256,
          "time": 130.858839,
          "velocity": 0.905511811023622
        },
        {
          "duration": 0.18404899999998747,
          "durationTicks": 96,
          "midi": 50,
          "name": "D3",
          "ticks": 68352,
          "time": 131.042888,
          "velocity": 0.7874015748031497
        },
        {
          "duration": 0.18404899999998747,
          "durationTicks": 96,
          "midi": 47,
          "name": "B2",
          "ticks": 68352,
          "time": 131.042888,
          "velocity": 1
        },
        {
          "duration": 0.18404899999998747,
          "durationTicks": 96,
          "midi": 62,
          "name": "D4",
          "ticks": 68352,
          "time": 131.042888,
          "velocity": 1
        },
        {
          "duration": 0.18404899999998747,
          "durationTicks": 96,
          "midi": 55,
          "name": "G3",
          "ticks": 68352,
          "time": 131.042888,
          "velocity": 0.6929133858267716
        },
        {
          "duration": 0.18404899999998747,
          "durationTicks": 96,
          "midi": 43,
          "name": "G2",
          "ticks": 68352,
          "time": 131.042888,
          "velocity": 1
        },
        {
          "duration": 1.2710884062500156,
          "durationTicks": 663,
          "midi": 48,
          "name": "C3",
          "ticks": 69126,
          "time": 132.5267830625,
          "velocity": 1
        },
        {
          "duration": 1.121548593749992,
          "durationTicks": 585,
          "midi": 60,
          "name": "C4",
          "ticks": 69130,
          "time": 132.53445177083333,
          "velocity": 1
        },
        {
          "duration": 1.1445547187500154,
          "durationTicks": 597,
          "midi": 55,
          "name": "G3",
          "ticks": 69132,
          "time": 132.53828612499998,
          "velocity": 1
        },
        {
          "duration": 1.088956583333328,
          "durationTicks": 568,
          "midi": 64,
          "name": "E4",
          "ticks": 69136,
          "time": 132.54595483333333,
          "velocity": 0.905511811023622
        },
        {
          "duration": 1.3631129062499951,
          "durationTicks": 711,
          "midi": 43,
          "name": "G2",
          "ticks": 69849,
          "time": 133.91290209375,
          "velocity": 0.7874015748031497
        },
        {
          "duration": 1.3075147708333361,
          "durationTicks": 682,
          "midi": 47,
          "name": "B2",
          "ticks": 69870,
          "time": 133.95316281249998,
          "velocity": 0.6929133858267716
        },
        {
          "duration": 1.3458583124999848,
          "durationTicks": 702,
          "midi": 50,
          "name": "D3",
          "ticks": 69881,
          "time": 133.97425176041668,
          "velocity": 0.905511811023622
        },
        {
          "duration": 1.2710884062499872,
          "durationTicks": 663,
          "midi": 55,
          "name": "G3",
          "ticks": 69905,
          "time": 134.02026401041667,
          "velocity": 0.6220472440944882
        },
        {
          "duration": 1.2116559166666718,
          "durationTicks": 632,
          "midi": 62,
          "name": "D4",
          "ticks": 69923,
          "time": 134.05477319791666,
          "velocity": 1
        },
        {
          "duration": 1.226993333333354,
          "durationTicks": 640,
          "midi": 41,
          "name": "F2",
          "ticks": 70657,
          "time": 135.46198117708332,
          "velocity": 1
        },
        {
          "duration": 1.3343552499999873,
          "durationTicks": 696,
          "midi": 53,
          "name": "F3",
          "ticks": 70664,
          "time": 135.47540141666667,
          "velocity": 0.905511811023622
        },
        {
          "duration": 1.2960117083333387,
          "durationTicks": 676,
          "midi": 48,
          "name": "C3",
          "ticks": 70666,
          "time": 135.47923577083333,
          "velocity": 0.905511811023622
        },
        {
          "duration": 1.3324380729166876,
          "durationTicks": 695,
          "midi": 60,
          "name": "C4",
          "ticks": 70668,
          "time": 135.48307012499998,
          "velocity": 0.905511811023622
        },
        {
          "duration": 0.18404899999998747,
          "durationTicks": 96,
          "midi": 48,
          "name": "C3",
          "ticks": 71424,
          "time": 136.932456,
          "velocity": 0.952755905511811
        },
        {
          "duration": 0.1840490000000159,
          "durationTicks": 96,
          "midi": 50,
          "name": "D3",
          "ticks": 71520,
          "time": 137.116505,
          "velocity": 0.952755905511811
        },
        {
          "duration": 0.09202449999997953,
          "durationTicks": 48,
          "midi": 53,
          "name": "F3",
          "ticks": 71616,
          "time": 137.300554,
          "velocity": 0.952755905511811
        },
        {
          "duration": 0.18404899999998747,
          "durationTicks": 96,
          "midi": 48,
          "name": "C3",
          "ticks": 71712,
          "time": 137.484603,
          "velocity": 0.952755905511811
        },
        {
          "duration": 0.1840490000000159,
          "durationTicks": 96,
          "midi": 50,
          "name": "D3",
          "ticks": 71808,
          "time": 137.66865199999998,
          "velocity": 0.952755905511811
        },
        {
          "duration": 0.09202450000000795,
          "durationTicks": 48,
          "midi": 53,
          "name": "F3",
          "ticks": 71904,
          "time": 137.852701,
          "velocity": 0.952755905511811
        },
        {
          "duration": 0.1840490000000159,
          "durationTicks": 96,
          "midi": 48,
          "name": "C3",
          "ticks": 72000,
          "time": 138.03674999999998,
          "velocity": 0.952755905511811
        },
        {
          "duration": 0.18404899999998747,
          "durationTicks": 96,
          "midi": 50,
          "name": "D3",
          "ticks": 72096,
          "time": 138.220799,
          "velocity": 0.952755905511811
        },
        {
          "duration": 0.1840490000000159,
          "durationTicks": 96,
          "midi": 48,
          "name": "C3",
          "ticks": 72192,
          "time": 138.404848,
          "velocity": 0.952755905511811
        },
        {
          "duration": 0.18404899999998747,
          "durationTicks": 96,
          "midi": 50,
          "name": "D3",
          "ticks": 72288,
          "time": 138.588897,
          "velocity": 0.952755905511811
        },
        {
          "duration": 0.09202450000000795,
          "durationTicks": 48,
          "midi": 53,
          "name": "F3",
          "ticks": 72384,
          "time": 138.772946,
          "velocity": 0.952755905511811
        },
        {
          "duration": 0.18404899999998747,
          "durationTicks": 96,
          "midi": 48,
          "name": "C3",
          "ticks": 72480,
          "time": 138.956995,
          "velocity": 0.952755905511811
        },
        {
          "duration": 0.18404899999998747,
          "durationTicks": 96,
          "midi": 50,
          "name": "D3",
          "ticks": 72576,
          "time": 139.141044,
          "velocity": 0.952755905511811
        },
        {
          "duration": 0.09202450000000795,
          "durationTicks": 48,
          "midi": 53,
          "name": "F3",
          "ticks": 72672,
          "time": 139.32509299999998,
          "velocity": 0.952755905511811
        },
        {
          "duration": 0.18404899999998747,
          "durationTicks": 96,
          "midi": 48,
          "name": "C3",
          "ticks": 72768,
          "time": 139.509142,
          "velocity": 0.952755905511811
        },
        {
          "duration": 0.1840490000000159,
          "durationTicks": 96,
          "midi": 50,
          "name": "D3",
          "ticks": 72864,
          "time": 139.69319099999998,
          "velocity": 0.952755905511811
        },
        {
          "duration": 0.18404899999998747,
          "durationTicks": 96,
          "midi": 43,
          "name": "G2",
          "ticks": 72960,
          "time": 139.87724,
          "velocity": 0.7874015748031497
        },
        {
          "duration": 0.18404899999998747,
          "durationTicks": 96,
          "midi": 47,
          "name": "B2",
          "ticks": 72960,
          "time": 139.87724,
          "velocity": 0.6929133858267716
        },
        {
          "duration": 0.18404899999998747,
          "durationTicks": 96,
          "midi": 62,
          "name": "D4",
          "ticks": 72960,
          "time": 139.87724,
          "velocity": 0.7874015748031497
        },
        {
          "duration": 0.18404899999998747,
          "durationTicks": 96,
          "midi": 55,
          "name": "G3",
          "ticks": 72960,
          "time": 139.87724,
          "velocity": 0.6929133858267716
        },
        {
          "duration": 0.1840490000000159,
          "durationTicks": 96,
          "midi": 47,
          "name": "B2",
          "ticks": 73056,
          "time": 140.061289,
          "velocity": 0.6929133858267716
        },
        {
          "duration": 0.1840490000000159,
          "durationTicks": 96,
          "midi": 62,
          "name": "D4",
          "ticks": 73056,
          "time": 140.061289,
          "velocity": 0.6220472440944882
        },
        {
          "duration": 0.1840490000000159,
          "durationTicks": 96,
          "midi": 43,
          "name": "G2",
          "ticks": 73056,
          "time": 140.061289,
          "velocity": 0.6929133858267716
        },
        {
          "duration": 0.1840490000000159,
          "durationTicks": 96,
          "midi": 55,
          "name": "G3",
          "ticks": 73056,
          "time": 140.061289,
          "velocity": 0.6929133858267716
        },
        {
          "duration": 0.18404899999998747,
          "durationTicks": 96,
          "midi": 50,
          "name": "D3",
          "ticks": 73152,
          "time": 140.245338,
          "velocity": 0.905511811023622
        },
        {
          "duration": 0.18404899999998747,
          "durationTicks": 96,
          "midi": 67,
          "name": "G4",
          "ticks": 73152,
          "time": 140.245338,
          "velocity": 0.905511811023622
        },
        {
          "duration": 0.18404899999998747,
          "durationTicks": 96,
          "midi": 62,
          "name": "D4",
          "ticks": 73152,
          "time": 140.245338,
          "velocity": 0.905511811023622
        },
        {
          "duration": 0.18404899999998747,
          "durationTicks": 96,
          "midi": 47,
          "name": "B2",
          "ticks": 73152,
          "time": 140.245338,
          "velocity": 0.905511811023622
        },
        {
          "duration": 0.18404899999998747,
          "durationTicks": 96,
          "midi": 55,
          "name": "G3",
          "ticks": 73152,
          "time": 140.245338,
          "velocity": 0.905511811023622
        },
        {
          "duration": 0.18404899999998747,
          "durationTicks": 96,
          "midi": 55,
          "name": "G3",
          "ticks": 73248,
          "time": 140.429387,
          "velocity": 0.6220472440944882
        },
        {
          "duration": 0.18404899999998747,
          "durationTicks": 96,
          "midi": 47,
          "name": "B2",
          "ticks": 73248,
          "time": 140.429387,
          "velocity": 1
        },
        {
          "duration": 0.18404899999998747,
          "durationTicks": 96,
          "midi": 62,
          "name": "D4",
          "ticks": 73248,
          "time": 140.429387,
          "velocity": 0.905511811023622
        },
        {
          "duration": 0.18404899999998747,
          "durationTicks": 96,
          "midi": 50,
          "name": "D3",
          "ticks": 73248,
          "time": 140.429387,
          "velocity": 0.7874015748031497
        },
        {
          "duration": 0.1840490000000159,
          "durationTicks": 96,
          "midi": 55,
          "name": "G3",
          "ticks": 73344,
          "time": 140.61343599999998,
          "velocity": 0.6220472440944882
        },
        {
          "duration": 0.1840490000000159,
          "durationTicks": 96,
          "midi": 60,
          "name": "C4",
          "ticks": 73344,
          "time": 140.61343599999998,
          "velocity": 0.7874015748031497
        },
        {
          "duration": 0.18596617708334406,
          "durationTicks": 97,
          "midi": 48,
          "name": "C3",
          "ticks": 73344,
          "time": 140.61343599999998,
          "velocity": 0.7874015748031497
        },
        {
          "duration": 0.1840490000000159,
          "durationTicks": 96,
          "midi": 64,
          "name": "E4",
          "ticks": 73344,
          "time": 140.61343599999998,
          "velocity": 0.7874015748031497
        },
        {
          "duration": 0.18404899999998747,
          "durationTicks": 96,
          "midi": 64,
          "name": "E4",
          "ticks": 73440,
          "time": 140.797485,
          "velocity": 0.7874015748031497
        },
        {
          "duration": 0.18404899999998747,
          "durationTicks": 96,
          "midi": 60,
          "name": "C4",
          "ticks": 73440,
          "time": 140.797485,
          "velocity": 0.7874015748031497
        },
        {
          "duration": 0.18404899999998747,
          "durationTicks": 96,
          "midi": 55,
          "name": "G3",
          "ticks": 73440,
          "time": 140.797485,
          "velocity": 0.5669291338582677
        },
        {
          "duration": 0.18404899999998747,
          "durationTicks": 96,
          "midi": 48,
          "name": "C3",
          "ticks": 73440,
          "time": 140.797485,
          "velocity": 0.6929133858267716
        },
        {
          "duration": 0.1840490000000159,
          "durationTicks": 96,
          "midi": 64,
          "name": "E4",
          "ticks": 73536,
          "time": 140.98153399999998,
          "velocity": 0.7874015748031497
        },
        {
          "duration": 0.1840490000000159,
          "durationTicks": 96,
          "midi": 52,
          "name": "E3",
          "ticks": 73536,
          "time": 140.98153399999998,
          "velocity": 0.905511811023622
        },
        {
          "duration": 0.1840490000000159,
          "durationTicks": 96,
          "midi": 55,
          "name": "G3",
          "ticks": 73536,
          "time": 140.98153399999998,
          "velocity": 0.6929133858267716
        },
        {
          "duration": 0.18596617708334406,
          "durationTicks": 97,
          "midi": 60,
          "name": "C4",
          "ticks": 73536,
          "time": 140.98153399999998,
          "velocity": 0.7874015748031497
        },
        {
          "duration": 0.18404899999998747,
          "durationTicks": 96,
          "midi": 55,
          "name": "G3",
          "ticks": 73632,
          "time": 141.165583,
          "velocity": 0.6929133858267716
        },
        {
          "duration": 0.18404899999998747,
          "durationTicks": 96,
          "midi": 60,
          "name": "C4",
          "ticks": 73632,
          "time": 141.165583,
          "velocity": 0.905511811023622
        },
        {
          "duration": 0.1840490000000159,
          "durationTicks": 96,
          "midi": 62,
          "name": "D4",
          "ticks": 73728,
          "time": 141.34963199999999,
          "velocity": 0.6929133858267716
        },
        {
          "duration": 0.1840490000000159,
          "durationTicks": 96,
          "midi": 47,
          "name": "B2",
          "ticks": 73728,
          "time": 141.34963199999999,
          "velocity": 0.905511811023622
        },
        {
          "duration": 0.1840490000000159,
          "durationTicks": 96,
          "midi": 55,
          "name": "G3",
          "ticks": 73728,
          "time": 141.34963199999999,
          "velocity": 0.6220472440944882
        },
        {
          "duration": 0.1840490000000159,
          "durationTicks": 96,
          "midi": 43,
          "name": "G2",
          "ticks": 73728,
          "time": 141.34963199999999,
          "velocity": 0.6929133858267716
        },
        {
          "duration": 0.18404899999998747,
          "durationTicks": 96,
          "midi": 47,
          "name": "B2",
          "ticks": 73824,
          "time": 141.533681,
          "velocity": 0.905511811023622
        },
        {
          "duration": 0.18404899999998747,
          "durationTicks": 96,
          "midi": 55,
          "name": "G3",
          "ticks": 73824,
          "time": 141.533681,
          "velocity": 0.6220472440944882
        },
        {
          "duration": 0.18404899999998747,
          "durationTicks": 96,
          "midi": 62,
          "name": "D4",
          "ticks": 73824,
          "time": 141.533681,
          "velocity": 0.7874015748031497
        },
        {
          "duration": 0.1840490000000159,
          "durationTicks": 96,
          "midi": 67,
          "name": "G4",
          "ticks": 73920,
          "time": 141.71773,
          "velocity": 0.905511811023622
        },
        {
          "duration": 0.18596617708334406,
          "durationTicks": 97,
          "midi": 55,
          "name": "G3",
          "ticks": 73920,
          "time": 141.71773,
          "velocity": 0.7874015748031497
        },
        {
          "duration": 0.1840490000000159,
          "durationTicks": 96,
          "midi": 43,
          "name": "G2",
          "ticks": 73920,
          "time": 141.71773,
          "velocity": 1
        },
        {
          "duration": 0.1840490000000159,
          "durationTicks": 96,
          "midi": 62,
          "name": "D4",
          "ticks": 73920,
          "time": 141.71773,
          "velocity": 0.905511811023622
        },
        {
          "duration": 0.18404899999998747,
          "durationTicks": 96,
          "midi": 62,
          "name": "D4",
          "ticks": 74016,
          "time": 141.901779,
          "velocity": 0.6929133858267716
        },
        {
          "duration": 0.18404899999998747,
          "durationTicks": 96,
          "midi": 47,
          "name": "B2",
          "ticks": 74016,
          "time": 141.901779,
          "velocity": 0.6929133858267716
        },
        {
          "duration": 0.18404899999998747,
          "durationTicks": 96,
          "midi": 55,
          "name": "G3",
          "ticks": 74016,
          "time": 141.901779,
          "velocity": 0.6929133858267716
        },
        {
          "duration": 0.18404899999998747,
          "durationTicks": 96,
          "midi": 48,
          "name": "C3",
          "ticks": 74112,
          "time": 142.085828,
          "velocity": 0.905511811023622
        },
        {
          "duration": 0.18404899999998747,
          "durationTicks": 96,
          "midi": 60,
          "name": "C4",
          "ticks": 74112,
          "time": 142.085828,
          "velocity": 0.7874015748031497
        },
        {
          "duration": 0.18404899999998747,
          "durationTicks": 96,
          "midi": 64,
          "name": "E4",
          "ticks": 74112,
          "time": 142.085828,
          "velocity": 0.6929133858267716
        },
        {
          "duration": 0.18404899999998747,
          "durationTicks": 96,
          "midi": 55,
          "name": "G3",
          "ticks": 74112,
          "time": 142.085828,
          "velocity": 0.6220472440944882
        },
        {
          "duration": 0.1840490000000159,
          "durationTicks": 96,
          "midi": 48,
          "name": "C3",
          "ticks": 74208,
          "time": 142.26987699999998,
          "velocity": 0.6929133858267716
        },
        {
          "duration": 0.1840490000000159,
          "durationTicks": 96,
          "midi": 60,
          "name": "C4",
          "ticks": 74208,
          "time": 142.26987699999998,
          "velocity": 0.6220472440944882
        },
        {
          "duration": 0.18596617708334406,
          "durationTicks": 97,
          "midi": 55,
          "name": "G3",
          "ticks": 74208,
          "time": 142.26987699999998,
          "velocity": 0.6220472440944882
        },
        {
          "duration": 0.1840490000000159,
          "durationTicks": 96,
          "midi": 64,
          "name": "E4",
          "ticks": 74208,
          "time": 142.26987699999998,
          "velocity": 0.6929133858267716
        },
        {
          "duration": 0.18404899999998747,
          "durationTicks": 96,
          "midi": 60,
          "name": "C4",
          "ticks": 74304,
          "time": 142.453926,
          "velocity": 0.905511811023622
        },
        {
          "duration": 0.18404899999998747,
          "durationTicks": 96,
          "midi": 52,
          "name": "E3",
          "ticks": 74304,
          "time": 142.453926,
          "velocity": 0.7874015748031497
        },
        {
          "duration": 0.18404899999998747,
          "durationTicks": 96,
          "midi": 55,
          "name": "G3",
          "ticks": 74304,
          "time": 142.453926,
          "velocity": 0.6929133858267716
        },
        {
          "duration": 0.1840490000000159,
          "durationTicks": 96,
          "midi": 55,
          "name": "G3",
          "ticks": 74400,
          "time": 142.63797499999998,
          "velocity": 0.6220472440944882
        },
        {
          "duration": 0.1840490000000159,
          "durationTicks": 96,
          "midi": 64,
          "name": "E4",
          "ticks": 74400,
          "time": 142.63797499999998,
          "velocity": 0.905511811023622
        },
        {
          "duration": 0.1840490000000159,
          "durationTicks": 96,
          "midi": 48,
          "name": "C3",
          "ticks": 74400,
          "time": 142.63797499999998,
          "velocity": 0.6929133858267716
        },
        {
          "duration": 0.18404899999998747,
          "durationTicks": 96,
          "midi": 62,
          "name": "D4",
          "ticks": 74496,
          "time": 142.822024,
          "velocity": 0.7874015748031497
        },
        {
          "duration": 0.18404899999998747,
          "durationTicks": 96,
          "midi": 43,
          "name": "G2",
          "ticks": 74496,
          "time": 142.822024,
          "velocity": 0.7874015748031497
        },
        {
          "duration": 0.18404899999998747,
          "durationTicks": 96,
          "midi": 55,
          "name": "G3",
          "ticks": 74496,
          "time": 142.822024,
          "velocity": 0.6929133858267716
        },
        {
          "duration": 0.18596617708331564,
          "durationTicks": 97,
          "midi": 47,
          "name": "B2",
          "ticks": 74496,
          "time": 142.822024,
          "velocity": 0.6929133858267716
        },
        {
          "duration": 0.1840490000000159,
          "durationTicks": 96,
          "midi": 55,
          "name": "G3",
          "ticks": 74592,
          "time": 143.006073,
          "velocity": 0.6929133858267716
        },
        {
          "duration": 0.1840490000000159,
          "durationTicks": 96,
          "midi": 43,
          "name": "G2",
          "ticks": 74592,
          "time": 143.006073,
          "velocity": 0.6929133858267716
        },
        {
          "duration": 0.18596617708334406,
          "durationTicks": 97,
          "midi": 62,
          "name": "D4",
          "ticks": 74592,
          "time": 143.006073,
          "velocity": 0.6220472440944882
        },
        {
          "duration": 0.1840490000000159,
          "durationTicks": 96,
          "midi": 47,
          "name": "B2",
          "ticks": 74592,
          "time": 143.006073,
          "velocity": 0.6929133858267716
        },
        {
          "duration": 0.18404899999998747,
          "durationTicks": 96,
          "midi": 47,
          "name": "B2",
          "ticks": 74688,
          "time": 143.190122,
          "velocity": 0.905511811023622
        },
        {
          "duration": 0.18404899999998747,
          "durationTicks": 96,
          "midi": 50,
          "name": "D3",
          "ticks": 74688,
          "time": 143.190122,
          "velocity": 0.905511811023622
        },
        {
          "duration": 0.18404899999998747,
          "durationTicks": 96,
          "midi": 67,
          "name": "G4",
          "ticks": 74688,
          "time": 143.190122,
          "velocity": 0.905511811023622
        },
        {
          "duration": 0.18404899999998747,
          "durationTicks": 96,
          "midi": 55,
          "name": "G3",
          "ticks": 74688,
          "time": 143.190122,
          "velocity": 0.905511811023622
        },
        {
          "duration": 0.18404899999998747,
          "durationTicks": 96,
          "midi": 62,
          "name": "D4",
          "ticks": 74688,
          "time": 143.190122,
          "velocity": 0.905511811023622
        },
        {
          "duration": 0.1840490000000159,
          "durationTicks": 96,
          "midi": 50,
          "name": "D3",
          "ticks": 74784,
          "time": 143.374171,
          "velocity": 0.7874015748031497
        },
        {
          "duration": 0.1840490000000159,
          "durationTicks": 96,
          "midi": 55,
          "name": "G3",
          "ticks": 74784,
          "time": 143.374171,
          "velocity": 0.6220472440944882
        },
        {
          "duration": 0.1840490000000159,
          "durationTicks": 96,
          "midi": 47,
          "name": "B2",
          "ticks": 74784,
          "time": 143.374171,
          "velocity": 1
        },
        {
          "duration": 0.1840490000000159,
          "durationTicks": 96,
          "midi": 62,
          "name": "D4",
          "ticks": 74784,
          "time": 143.374171,
          "velocity": 0.905511811023622
        },
        {
          "duration": 0.18404899999998747,
          "durationTicks": 96,
          "midi": 64,
          "name": "E4",
          "ticks": 74880,
          "time": 143.55822,
          "velocity": 0.7874015748031497
        },
        {
          "duration": 0.18404899999998747,
          "durationTicks": 96,
          "midi": 60,
          "name": "C4",
          "ticks": 74880,
          "time": 143.55822,
          "velocity": 0.7874015748031497
        },
        {
          "duration": 0.18404899999998747,
          "durationTicks": 96,
          "midi": 48,
          "name": "C3",
          "ticks": 74880,
          "time": 143.55822,
          "velocity": 0.7874015748031497
        },
        {
          "duration": 0.18596617708331564,
          "durationTicks": 97,
          "midi": 55,
          "name": "G3",
          "ticks": 74880,
          "time": 143.55822,
          "velocity": 0.6220472440944882
        },
        {
          "duration": 0.18404899999998747,
          "durationTicks": 96,
          "midi": 64,
          "name": "E4",
          "ticks": 74976,
          "time": 143.742269,
          "velocity": 0.7874015748031497
        },
        {
          "duration": 0.18404899999998747,
          "durationTicks": 96,
          "midi": 60,
          "name": "C4",
          "ticks": 74976,
          "time": 143.742269,
          "velocity": 0.7874015748031497
        },
        {
          "duration": 0.18596617708331564,
          "durationTicks": 97,
          "midi": 55,
          "name": "G3",
          "ticks": 74976,
          "time": 143.742269,
          "velocity": 0.5669291338582677
        },
        {
          "duration": 0.18404899999998747,
          "durationTicks": 96,
          "midi": 48,
          "name": "C3",
          "ticks": 74976,
          "time": 143.742269,
          "velocity": 0.6929133858267716
        },
        {
          "duration": 0.1840490000000159,
          "durationTicks": 96,
          "midi": 64,
          "name": "E4",
          "ticks": 75072,
          "time": 143.92631799999998,
          "velocity": 0.7874015748031497
        },
        {
          "duration": 0.1840490000000159,
          "durationTicks": 96,
          "midi": 52,
          "name": "E3",
          "ticks": 75072,
          "time": 143.92631799999998,
          "velocity": 0.905511811023622
        },
        {
          "duration": 0.1840490000000159,
          "durationTicks": 96,
          "midi": 60,
          "name": "C4",
          "ticks": 75072,
          "time": 143.92631799999998,
          "velocity": 0.7874015748031497
        },
        {
          "duration": 0.18596617708334406,
          "durationTicks": 97,
          "midi": 55,
          "name": "G3",
          "ticks": 75072,
          "time": 143.92631799999998,
          "velocity": 0.6929133858267716
        },
        {
          "duration": 0.18404899999998747,
          "durationTicks": 96,
          "midi": 55,
          "name": "G3",
          "ticks": 75168,
          "time": 144.110367,
          "velocity": 0.6929133858267716
        },
        {
          "duration": 0.18404899999998747,
          "durationTicks": 96,
          "midi": 60,
          "name": "C4",
          "ticks": 75168,
          "time": 144.110367,
          "velocity": 0.905511811023622
        },
        {
          "duration": 0.1840490000000159,
          "durationTicks": 96,
          "midi": 62,
          "name": "D4",
          "ticks": 75264,
          "time": 144.29441599999998,
          "velocity": 0.6929133858267716
        },
        {
          "duration": 0.18596617708334406,
          "durationTicks": 97,
          "midi": 55,
          "name": "G3",
          "ticks": 75264,
          "time": 144.29441599999998,
          "velocity": 0.6220472440944882
        },
        {
          "duration": 0.18596617708334406,
          "durationTicks": 97,
          "midi": 47,
          "name": "B2",
          "ticks": 75264,
          "time": 144.29441599999998,
          "velocity": 0.905511811023622
        },
        {
          "duration": 0.1840490000000159,
          "durationTicks": 96,
          "midi": 43,
          "name": "G2",
          "ticks": 75264,
          "time": 144.29441599999998,
          "velocity": 0.6929133858267716
        },
        {
          "duration": 0.18404899999998747,
          "durationTicks": 96,
          "midi": 62,
          "name": "D4",
          "ticks": 75360,
          "time": 144.478465,
          "velocity": 0.7874015748031497
        },
        {
          "duration": 0.18404899999998747,
          "durationTicks": 96,
          "midi": 47,
          "name": "B2",
          "ticks": 75360,
          "time": 144.478465,
          "velocity": 0.905511811023622
        },
        {
          "duration": 0.18404899999998747,
          "durationTicks": 96,
          "midi": 55,
          "name": "G3",
          "ticks": 75360,
          "time": 144.478465,
          "velocity": 0.6220472440944882
        },
        {
          "duration": 0.1840490000000159,
          "durationTicks": 96,
          "midi": 43,
          "name": "G2",
          "ticks": 75456,
          "time": 144.662514,
          "velocity": 1
        },
        {
          "duration": 0.1840490000000159,
          "durationTicks": 96,
          "midi": 67,
          "name": "G4",
          "ticks": 75456,
          "time": 144.662514,
          "velocity": 0.905511811023622
        },
        {
          "duration": 0.1840490000000159,
          "durationTicks": 96,
          "midi": 55,
          "name": "G3",
          "ticks": 75456,
          "time": 144.662514,
          "velocity": 0.7874015748031497
        },
        {
          "duration": 0.1840490000000159,
          "durationTicks": 96,
          "midi": 62,
          "name": "D4",
          "ticks": 75456,
          "time": 144.662514,
          "velocity": 0.905511811023622
        },
        {
          "duration": 0.18404899999998747,
          "durationTicks": 96,
          "midi": 47,
          "name": "B2",
          "ticks": 75552,
          "time": 144.846563,
          "velocity": 0.6929133858267716
        },
        {
          "duration": 0.18404899999998747,
          "durationTicks": 96,
          "midi": 55,
          "name": "G3",
          "ticks": 75552,
          "time": 144.846563,
          "velocity": 0.6929133858267716
        },
        {
          "duration": 0.18404899999998747,
          "durationTicks": 96,
          "midi": 62,
          "name": "D4",
          "ticks": 75552,
          "time": 144.846563,
          "velocity": 0.6929133858267716
        },
        {
          "duration": 0.18404899999998747,
          "durationTicks": 96,
          "midi": 60,
          "name": "C4",
          "ticks": 75648,
          "time": 145.030612,
          "velocity": 0.7874015748031497
        },
        {
          "duration": 0.18404899999998747,
          "durationTicks": 96,
          "midi": 55,
          "name": "G3",
          "ticks": 75648,
          "time": 145.030612,
          "velocity": 0.6220472440944882
        },
        {
          "duration": 0.18404899999998747,
          "durationTicks": 96,
          "midi": 48,
          "name": "C3",
          "ticks": 75648,
          "time": 145.030612,
          "velocity": 0.905511811023622
        },
        {
          "duration": 0.18596617708331564,
          "durationTicks": 97,
          "midi": 64,
          "name": "E4",
          "ticks": 75648,
          "time": 145.030612,
          "velocity": 0.6929133858267716
        },
        {
          "duration": 0.18596617708334406,
          "durationTicks": 97,
          "midi": 55,
          "name": "G3",
          "ticks": 75744,
          "time": 145.21466099999998,
          "velocity": 0.6220472440944882
        },
        {
          "duration": 0.1840490000000159,
          "durationTicks": 96,
          "midi": 60,
          "name": "C4",
          "ticks": 75744,
          "time": 145.21466099999998,
          "velocity": 0.6220472440944882
        },
        {
          "duration": 0.1840490000000159,
          "durationTicks": 96,
          "midi": 64,
          "name": "E4",
          "ticks": 75744,
          "time": 145.21466099999998,
          "velocity": 0.6929133858267716
        },
        {
          "duration": 0.1840490000000159,
          "durationTicks": 96,
          "midi": 48,
          "name": "C3",
          "ticks": 75744,
          "time": 145.21466099999998,
          "velocity": 0.6929133858267716
        },
        {
          "duration": 0.18404899999998747,
          "durationTicks": 96,
          "midi": 52,
          "name": "E3",
          "ticks": 75840,
          "time": 145.39871,
          "velocity": 0.7874015748031497
        },
        {
          "duration": 0.18404899999998747,
          "durationTicks": 96,
          "midi": 60,
          "name": "C4",
          "ticks": 75840,
          "time": 145.39871,
          "velocity": 0.905511811023622
        },
        {
          "duration": 0.18404899999998747,
          "durationTicks": 96,
          "midi": 55,
          "name": "G3",
          "ticks": 75840,
          "time": 145.39871,
          "velocity": 0.6929133858267716
        },
        {
          "duration": 0.1840490000000159,
          "durationTicks": 96,
          "midi": 55,
          "name": "G3",
          "ticks": 75936,
          "time": 145.58275899999998,
          "velocity": 0.6220472440944882
        },
        {
          "duration": 0.1840490000000159,
          "durationTicks": 96,
          "midi": 64,
          "name": "E4",
          "ticks": 75936,
          "time": 145.58275899999998,
          "velocity": 0.905511811023622
        },
        {
          "duration": 0.1840490000000159,
          "durationTicks": 96,
          "midi": 48,
          "name": "C3",
          "ticks": 75936,
          "time": 145.58275899999998,
          "velocity": 0.6929133858267716
        },
        {
          "duration": 0.18404899999998747,
          "durationTicks": 96,
          "midi": 55,
          "name": "G3",
          "ticks": 76032,
          "time": 145.766808,
          "velocity": 0.6929133858267716
        },
        {
          "duration": 0.18404899999998747,
          "durationTicks": 96,
          "midi": 47,
          "name": "B2",
          "ticks": 76032,
          "time": 145.766808,
          "velocity": 0.6929133858267716
        },
        {
          "duration": 0.18404899999998747,
          "durationTicks": 96,
          "midi": 62,
          "name": "D4",
          "ticks": 76032,
          "time": 145.766808,
          "velocity": 0.7874015748031497
        },
        {
          "duration": 0.18404899999998747,
          "durationTicks": 96,
          "midi": 43,
          "name": "G2",
          "ticks": 76032,
          "time": 145.766808,
          "velocity": 0.7874015748031497
        },
        {
          "duration": 0.1840490000000159,
          "durationTicks": 96,
          "midi": 47,
          "name": "B2",
          "ticks": 76128,
          "time": 145.95085699999998,
          "velocity": 0.6929133858267716
        },
        {
          "duration": 0.1840490000000159,
          "durationTicks": 96,
          "midi": 43,
          "name": "G2",
          "ticks": 76128,
          "time": 145.95085699999998,
          "velocity": 0.6929133858267716
        },
        {
          "duration": 0.1840490000000159,
          "durationTicks": 96,
          "midi": 62,
          "name": "D4",
          "ticks": 76128,
          "time": 145.95085699999998,
          "velocity": 0.6220472440944882
        },
        {
          "duration": 0.1840490000000159,
          "durationTicks": 96,
          "midi": 55,
          "name": "G3",
          "ticks": 76128,
          "time": 145.95085699999998,
          "velocity": 0.6929133858267716
        },
        {
          "duration": 0.18404899999998747,
          "durationTicks": 96,
          "midi": 62,
          "name": "D4",
          "ticks": 76224,
          "time": 146.134906,
          "velocity": 0.905511811023622
        },
        {
          "duration": 0.18404899999998747,
          "durationTicks": 96,
          "midi": 67,
          "name": "G4",
          "ticks": 76224,
          "time": 146.134906,
          "velocity": 0.905511811023622
        },
        {
          "duration": 0.18404899999998747,
          "durationTicks": 96,
          "midi": 47,
          "name": "B2",
          "ticks": 76224,
          "time": 146.134906,
          "velocity": 0.905511811023622
        },
        {
          "duration": 0.18596617708331564,
          "durationTicks": 97,
          "midi": 55,
          "name": "G3",
          "ticks": 76224,
          "time": 146.134906,
          "velocity": 0.905511811023622
        },
        {
          "duration": 0.18404899999998747,
          "durationTicks": 96,
          "midi": 50,
          "name": "D3",
          "ticks": 76224,
          "time": 146.134906,
          "velocity": 0.905511811023622
        },
        {
          "duration": 0.1840490000000159,
          "durationTicks": 96,
          "midi": 62,
          "name": "D4",
          "ticks": 76320,
          "time": 146.318955,
          "velocity": 0.905511811023622
        },
        {
          "duration": 0.1840490000000159,
          "durationTicks": 96,
          "midi": 47,
          "name": "B2",
          "ticks": 76320,
          "time": 146.318955,
          "velocity": 1
        },
        {
          "duration": 0.1840490000000159,
          "durationTicks": 96,
          "midi": 55,
          "name": "G3",
          "ticks": 76320,
          "time": 146.318955,
          "velocity": 0.6220472440944882
        },
        {
          "duration": 0.1840490000000159,
          "durationTicks": 96,
          "midi": 50,
          "name": "D3",
          "ticks": 76320,
          "time": 146.318955,
          "velocity": 0.7874015748031497
        },
        {
          "duration": 0.18404899999998747,
          "durationTicks": 96,
          "midi": 55,
          "name": "G3",
          "ticks": 76416,
          "time": 146.503004,
          "velocity": 0.6220472440944882
        },
        {
          "duration": 0.18404899999998747,
          "durationTicks": 96,
          "midi": 48,
          "name": "C3",
          "ticks": 76416,
          "time": 146.503004,
          "velocity": 0.7874015748031497
        },
        {
          "duration": 0.18404899999998747,
          "durationTicks": 96,
          "midi": 60,
          "name": "C4",
          "ticks": 76416,
          "time": 146.503004,
          "velocity": 0.7874015748031497
        },
        {
          "duration": 0.18404899999998747,
          "durationTicks": 96,
          "midi": 64,
          "name": "E4",
          "ticks": 76416,
          "time": 146.503004,
          "velocity": 0.7874015748031497
        },
        {
          "duration": 0.18404899999998747,
          "durationTicks": 96,
          "midi": 60,
          "name": "C4",
          "ticks": 76512,
          "time": 146.687053,
          "velocity": 0.7874015748031497
        },
        {
          "duration": 0.18404899999998747,
          "durationTicks": 96,
          "midi": 64,
          "name": "E4",
          "ticks": 76512,
          "time": 146.687053,
          "velocity": 0.7874015748031497
        },
        {
          "duration": 0.18404899999998747,
          "durationTicks": 96,
          "midi": 48,
          "name": "C3",
          "ticks": 76512,
          "time": 146.687053,
          "velocity": 0.6929133858267716
        },
        {
          "duration": 0.18596617708331564,
          "durationTicks": 97,
          "midi": 55,
          "name": "G3",
          "ticks": 76512,
          "time": 146.687053,
          "velocity": 0.5669291338582677
        },
        {
          "duration": 0.1840490000000159,
          "durationTicks": 96,
          "midi": 64,
          "name": "E4",
          "ticks": 76608,
          "time": 146.87110199999998,
          "velocity": 0.7874015748031497
        },
        {
          "duration": 0.1840490000000159,
          "durationTicks": 96,
          "midi": 52,
          "name": "E3",
          "ticks": 76608,
          "time": 146.87110199999998,
          "velocity": 0.905511811023622
        },
        {
          "duration": 0.1840490000000159,
          "durationTicks": 96,
          "midi": 55,
          "name": "G3",
          "ticks": 76608,
          "time": 146.87110199999998,
          "velocity": 0.6929133858267716
        },
        {
          "duration": 0.1840490000000159,
          "durationTicks": 96,
          "midi": 60,
          "name": "C4",
          "ticks": 76608,
          "time": 146.87110199999998,
          "velocity": 0.7874015748031497
        },
        {
          "duration": 0.18404899999998747,
          "durationTicks": 96,
          "midi": 55,
          "name": "G3",
          "ticks": 76704,
          "time": 147.055151,
          "velocity": 0.6929133858267716
        },
        {
          "duration": 0.18404899999998747,
          "durationTicks": 96,
          "midi": 60,
          "name": "C4",
          "ticks": 76704,
          "time": 147.055151,
          "velocity": 0.905511811023622
        },
        {
          "duration": 0.1840490000000159,
          "durationTicks": 96,
          "midi": 55,
          "name": "G3",
          "ticks": 76800,
          "time": 147.23919999999998,
          "velocity": 0.6220472440944882
        },
        {
          "duration": 0.18596617708334406,
          "durationTicks": 97,
          "midi": 47,
          "name": "B2",
          "ticks": 76800,
          "time": 147.23919999999998,
          "velocity": 0.905511811023622
        },
        {
          "duration": 0.1840490000000159,
          "durationTicks": 96,
          "midi": 62,
          "name": "D4",
          "ticks": 76800,
          "time": 147.23919999999998,
          "velocity": 0.6929133858267716
        },
        {
          "duration": 0.1840490000000159,
          "durationTicks": 96,
          "midi": 43,
          "name": "G2",
          "ticks": 76800,
          "time": 147.23919999999998,
          "velocity": 0.6929133858267716
        },
        {
          "duration": 0.18404899999998747,
          "durationTicks": 96,
          "midi": 55,
          "name": "G3",
          "ticks": 76896,
          "time": 147.423249,
          "velocity": 0.6220472440944882
        },
        {
          "duration": 0.18404899999998747,
          "durationTicks": 96,
          "midi": 62,
          "name": "D4",
          "ticks": 76896,
          "time": 147.423249,
          "velocity": 0.7874015748031497
        },
        {
          "duration": 0.18404899999998747,
          "durationTicks": 96,
          "midi": 47,
          "name": "B2",
          "ticks": 76896,
          "time": 147.423249,
          "velocity": 0.905511811023622
        },
        {
          "duration": 0.1840490000000159,
          "durationTicks": 96,
          "midi": 43,
          "name": "G2",
          "ticks": 76992,
          "time": 147.607298,
          "velocity": 1
        },
        {
          "duration": 0.1840490000000159,
          "durationTicks": 96,
          "midi": 62,
          "name": "D4",
          "ticks": 76992,
          "time": 147.607298,
          "velocity": 0.905511811023622
        },
        {
          "duration": 0.1840490000000159,
          "durationTicks": 96,
          "midi": 55,
          "name": "G3",
          "ticks": 76992,
          "time": 147.607298,
          "velocity": 0.7874015748031497
        },
        {
          "duration": 0.1840490000000159,
          "durationTicks": 96,
          "midi": 67,
          "name": "G4",
          "ticks": 76992,
          "time": 147.607298,
          "velocity": 0.905511811023622
        },
        {
          "duration": 0.18404899999998747,
          "durationTicks": 96,
          "midi": 55,
          "name": "G3",
          "ticks": 77088,
          "time": 147.791347,
          "velocity": 0.6929133858267716
        },
        {
          "duration": 0.18404899999998747,
          "durationTicks": 96,
          "midi": 47,
          "name": "B2",
          "ticks": 77088,
          "time": 147.791347,
          "velocity": 0.6929133858267716
        },
        {
          "duration": 0.18404899999998747,
          "durationTicks": 96,
          "midi": 62,
          "name": "D4",
          "ticks": 77088,
          "time": 147.791347,
          "velocity": 0.6929133858267716
        },
        {
          "duration": 0.1840490000000159,
          "durationTicks": 96,
          "midi": 55,
          "name": "G3",
          "ticks": 77184,
          "time": 147.975396,
          "velocity": 0.6220472440944882
        },
        {
          "duration": 0.1840490000000159,
          "durationTicks": 96,
          "midi": 60,
          "name": "C4",
          "ticks": 77184,
          "time": 147.975396,
          "velocity": 0.7874015748031497
        },
        {
          "duration": 0.1840490000000159,
          "durationTicks": 96,
          "midi": 64,
          "name": "E4",
          "ticks": 77184,
          "time": 147.975396,
          "velocity": 0.6929133858267716
        },
        {
          "duration": 0.1840490000000159,
          "durationTicks": 96,
          "midi": 48,
          "name": "C3",
          "ticks": 77184,
          "time": 147.975396,
          "velocity": 0.905511811023622
        },
        {
          "duration": 0.18404899999998747,
          "durationTicks": 96,
          "midi": 48,
          "name": "C3",
          "ticks": 77280,
          "time": 148.159445,
          "velocity": 0.6929133858267716
        },
        {
          "duration": 0.18404899999998747,
          "durationTicks": 96,
          "midi": 55,
          "name": "G3",
          "ticks": 77280,
          "time": 148.159445,
          "velocity": 0.6220472440944882
        },
        {
          "duration": 0.18404899999998747,
          "durationTicks": 96,
          "midi": 60,
          "name": "C4",
          "ticks": 77280,
          "time": 148.159445,
          "velocity": 0.6220472440944882
        },
        {
          "duration": 0.18404899999998747,
          "durationTicks": 96,
          "midi": 64,
          "name": "E4",
          "ticks": 77280,
          "time": 148.159445,
          "velocity": 0.6929133858267716
        },
        {
          "duration": 0.18404899999998747,
          "durationTicks": 96,
          "midi": 60,
          "name": "C4",
          "ticks": 77376,
          "time": 148.343494,
          "velocity": 0.905511811023622
        },
        {
          "duration": 0.18596617708331564,
          "durationTicks": 97,
          "midi": 55,
          "name": "G3",
          "ticks": 77376,
          "time": 148.343494,
          "velocity": 0.6929133858267716
        },
        {
          "duration": 0.18404899999998747,
          "durationTicks": 96,
          "midi": 52,
          "name": "E3",
          "ticks": 77376,
          "time": 148.343494,
          "velocity": 0.7874015748031497
        },
        {
          "duration": 0.1840490000000159,
          "durationTicks": 96,
          "midi": 64,
          "name": "E4",
          "ticks": 77472,
          "time": 148.52754299999998,
          "velocity": 0.905511811023622
        },
        {
          "duration": 0.1840490000000159,
          "durationTicks": 96,
          "midi": 48,
          "name": "C3",
          "ticks": 77472,
          "time": 148.52754299999998,
          "velocity": 0.6929133858267716
        },
        {
          "duration": 0.1840490000000159,
          "durationTicks": 96,
          "midi": 55,
          "name": "G3",
          "ticks": 77472,
          "time": 148.52754299999998,
          "velocity": 0.6220472440944882
        },
        {
          "duration": 0.18596617708331564,
          "durationTicks": 97,
          "midi": 47,
          "name": "B2",
          "ticks": 77568,
          "time": 148.711592,
          "velocity": 0.6929133858267716
        },
        {
          "duration": 0.18404899999998747,
          "durationTicks": 96,
          "midi": 62,
          "name": "D4",
          "ticks": 77568,
          "time": 148.711592,
          "velocity": 0.7874015748031497
        },
        {
          "duration": 0.18404899999998747,
          "durationTicks": 96,
          "midi": 55,
          "name": "G3",
          "ticks": 77568,
          "time": 148.711592,
          "velocity": 0.6929133858267716
        },
        {
          "duration": 0.18404899999998747,
          "durationTicks": 96,
          "midi": 43,
          "name": "G2",
          "ticks": 77568,
          "time": 148.711592,
          "velocity": 0.7874015748031497
        },
        {
          "duration": 0.1840490000000159,
          "durationTicks": 96,
          "midi": 43,
          "name": "G2",
          "ticks": 77664,
          "time": 148.89564099999998,
          "velocity": 0.6929133858267716
        },
        {
          "duration": 0.1840490000000159,
          "durationTicks": 96,
          "midi": 62,
          "name": "D4",
          "ticks": 77664,
          "time": 148.89564099999998,
          "velocity": 0.6220472440944882
        },
        {
          "duration": 0.1840490000000159,
          "durationTicks": 96,
          "midi": 55,
          "name": "G3",
          "ticks": 77664,
          "time": 148.89564099999998,
          "velocity": 0.6929133858267716
        },
        {
          "duration": 0.1840490000000159,
          "durationTicks": 96,
          "midi": 47,
          "name": "B2",
          "ticks": 77664,
          "time": 148.89564099999998,
          "velocity": 0.6929133858267716
        },
        {
          "duration": 0.18404899999998747,
          "durationTicks": 96,
          "midi": 50,
          "name": "D3",
          "ticks": 77760,
          "time": 149.07969,
          "velocity": 0.905511811023622
        },
        {
          "duration": 0.18596617708331564,
          "durationTicks": 97,
          "midi": 47,
          "name": "B2",
          "ticks": 77760,
          "time": 149.07969,
          "velocity": 0.905511811023622
        },
        {
          "duration": 0.18404899999998747,
          "durationTicks": 96,
          "midi": 62,
          "name": "D4",
          "ticks": 77760,
          "time": 149.07969,
          "velocity": 0.905511811023622
        },
        {
          "duration": 0.18404899999998747,
          "durationTicks": 96,
          "midi": 67,
          "name": "G4",
          "ticks": 77760,
          "time": 149.07969,
          "velocity": 0.905511811023622
        },
        {
          "duration": 0.18404899999998747,
          "durationTicks": 96,
          "midi": 55,
          "name": "G3",
          "ticks": 77760,
          "time": 149.07969,
          "velocity": 0.905511811023622
        },
        {
          "duration": 0.1840490000000159,
          "durationTicks": 96,
          "midi": 55,
          "name": "G3",
          "ticks": 77856,
          "time": 149.263739,
          "velocity": 0.6220472440944882
        },
        {
          "duration": 0.1840490000000159,
          "durationTicks": 96,
          "midi": 62,
          "name": "D4",
          "ticks": 77856,
          "time": 149.263739,
          "velocity": 0.905511811023622
        },
        {
          "duration": 0.1840490000000159,
          "durationTicks": 96,
          "midi": 50,
          "name": "D3",
          "ticks": 77856,
          "time": 149.263739,
          "velocity": 0.7874015748031497
        },
        {
          "duration": 0.1840490000000159,
          "durationTicks": 96,
          "midi": 47,
          "name": "B2",
          "ticks": 77856,
          "time": 149.263739,
          "velocity": 1
        },
        {
          "duration": 0.18404899999998747,
          "durationTicks": 96,
          "midi": 55,
          "name": "G3",
          "ticks": 77952,
          "time": 149.447788,
          "velocity": 0.6220472440944882
        },
        {
          "duration": 0.18404899999998747,
          "durationTicks": 96,
          "midi": 60,
          "name": "C4",
          "ticks": 77952,
          "time": 149.447788,
          "velocity": 0.7874015748031497
        },
        {
          "duration": 0.18404899999998747,
          "durationTicks": 96,
          "midi": 48,
          "name": "C3",
          "ticks": 77952,
          "time": 149.447788,
          "velocity": 0.7874015748031497
        },
        {
          "duration": 0.18404899999998747,
          "durationTicks": 96,
          "midi": 64,
          "name": "E4",
          "ticks": 77952,
          "time": 149.447788,
          "velocity": 0.7874015748031497
        },
        {
          "duration": 0.1840490000000159,
          "durationTicks": 96,
          "midi": 48,
          "name": "C3",
          "ticks": 78048,
          "time": 149.631837,
          "velocity": 0.6929133858267716
        },
        {
          "duration": 0.1840490000000159,
          "durationTicks": 96,
          "midi": 55,
          "name": "G3",
          "ticks": 78048,
          "time": 149.631837,
          "velocity": 0.5669291338582677
        },
        {
          "duration": 0.1840490000000159,
          "durationTicks": 96,
          "midi": 64,
          "name": "E4",
          "ticks": 78048,
          "time": 149.631837,
          "velocity": 0.7874015748031497
        },
        {
          "duration": 0.1840490000000159,
          "durationTicks": 96,
          "midi": 60,
          "name": "C4",
          "ticks": 78048,
          "time": 149.631837,
          "velocity": 0.7874015748031497
        },
        {
          "duration": 0.18404899999998747,
          "durationTicks": 96,
          "midi": 64,
          "name": "E4",
          "ticks": 78144,
          "time": 149.815886,
          "velocity": 0.7874015748031497
        },
        {
          "duration": 0.18596617708331564,
          "durationTicks": 97,
          "midi": 60,
          "name": "C4",
          "ticks": 78144,
          "time": 149.815886,
          "velocity": 0.7874015748031497
        },
        {
          "duration": 0.18404899999998747,
          "durationTicks": 96,
          "midi": 55,
          "name": "G3",
          "ticks": 78144,
          "time": 149.815886,
          "velocity": 0.6929133858267716
        },
        {
          "duration": 0.18404899999998747,
          "durationTicks": 96,
          "midi": 52,
          "name": "E3",
          "ticks": 78144,
          "time": 149.815886,
          "velocity": 0.905511811023622
        },
        {
          "duration": 0.18404899999998747,
          "durationTicks": 96,
          "midi": 60,
          "name": "C4",
          "ticks": 78240,
          "time": 149.999935,
          "velocity": 0.905511811023622
        },
        {
          "duration": 0.18404899999998747,
          "durationTicks": 96,
          "midi": 55,
          "name": "G3",
          "ticks": 78240,
          "time": 149.999935,
          "velocity": 0.6929133858267716
        },
        {
          "duration": 0.1840490000000159,
          "durationTicks": 96,
          "midi": 55,
          "name": "G3",
          "ticks": 78336,
          "time": 150.18398399999998,
          "velocity": 0.6220472440944882
        },
        {
          "duration": 0.18596617708334406,
          "durationTicks": 97,
          "midi": 47,
          "name": "B2",
          "ticks": 78336,
          "time": 150.18398399999998,
          "velocity": 0.905511811023622
        },
        {
          "duration": 0.1840490000000159,
          "durationTicks": 96,
          "midi": 62,
          "name": "D4",
          "ticks": 78336,
          "time": 150.18398399999998,
          "velocity": 0.6929133858267716
        },
        {
          "duration": 0.1840490000000159,
          "durationTicks": 96,
          "midi": 43,
          "name": "G2",
          "ticks": 78336,
          "time": 150.18398399999998,
          "velocity": 0.6929133858267716
        },
        {
          "duration": 0.18404899999998747,
          "durationTicks": 96,
          "midi": 55,
          "name": "G3",
          "ticks": 78432,
          "time": 150.368033,
          "velocity": 0.6220472440944882
        },
        {
          "duration": 0.18404899999998747,
          "durationTicks": 96,
          "midi": 47,
          "name": "B2",
          "ticks": 78432,
          "time": 150.368033,
          "velocity": 0.905511811023622
        },
        {
          "duration": 0.18404899999998747,
          "durationTicks": 96,
          "midi": 62,
          "name": "D4",
          "ticks": 78432,
          "time": 150.368033,
          "velocity": 0.7874015748031497
        },
        {
          "duration": 0.18596617708334406,
          "durationTicks": 97,
          "midi": 62,
          "name": "D4",
          "ticks": 78528,
          "time": 150.55208199999998,
          "velocity": 0.905511811023622
        },
        {
          "duration": 0.1840490000000159,
          "durationTicks": 96,
          "midi": 55,
          "name": "G3",
          "ticks": 78528,
          "time": 150.55208199999998,
          "velocity": 0.7874015748031497
        },
        {
          "duration": 0.1840490000000159,
          "durationTicks": 96,
          "midi": 67,
          "name": "G4",
          "ticks": 78528,
          "time": 150.55208199999998,
          "velocity": 0.905511811023622
        },
        {
          "duration": 0.1840490000000159,
          "durationTicks": 96,
          "midi": 43,
          "name": "G2",
          "ticks": 78528,
          "time": 150.55208199999998,
          "velocity": 1
        },
        {
          "duration": 0.18404899999998747,
          "durationTicks": 96,
          "midi": 47,
          "name": "B2",
          "ticks": 78624,
          "time": 150.736131,
          "velocity": 0.6929133858267716
        },
        {
          "duration": 0.18404899999998747,
          "durationTicks": 96,
          "midi": 55,
          "name": "G3",
          "ticks": 78624,
          "time": 150.736131,
          "velocity": 0.6929133858267716
        },
        {
          "duration": 0.18404899999998747,
          "durationTicks": 96,
          "midi": 62,
          "name": "D4",
          "ticks": 78624,
          "time": 150.736131,
          "velocity": 0.6929133858267716
        },
        {
          "duration": 0.1840490000000159,
          "durationTicks": 96,
          "midi": 48,
          "name": "C3",
          "ticks": 78720,
          "time": 150.92018,
          "velocity": 0.905511811023622
        },
        {
          "duration": 0.18596617708334406,
          "durationTicks": 97,
          "midi": 55,
          "name": "G3",
          "ticks": 78720,
          "time": 150.92018,
          "velocity": 0.6220472440944882
        },
        {
          "duration": 0.1840490000000159,
          "durationTicks": 96,
          "midi": 64,
          "name": "E4",
          "ticks": 78720,
          "time": 150.92018,
          "velocity": 0.6929133858267716
        },
        {
          "duration": 0.1840490000000159,
          "durationTicks": 96,
          "midi": 60,
          "name": "C4",
          "ticks": 78720,
          "time": 150.92018,
          "velocity": 0.7874015748031497
        },
        {
          "duration": 0.18404899999998747,
          "durationTicks": 96,
          "midi": 48,
          "name": "C3",
          "ticks": 78816,
          "time": 151.104229,
          "velocity": 0.6929133858267716
        },
        {
          "duration": 0.18596617708331564,
          "durationTicks": 97,
          "midi": 60,
          "name": "C4",
          "ticks": 78816,
          "time": 151.104229,
          "velocity": 0.6220472440944882
        },
        {
          "duration": 0.18404899999998747,
          "durationTicks": 96,
          "midi": 64,
          "name": "E4",
          "ticks": 78816,
          "time": 151.104229,
          "velocity": 0.6929133858267716
        },
        {
          "duration": 0.18596617708331564,
          "durationTicks": 97,
          "midi": 55,
          "name": "G3",
          "ticks": 78816,
          "time": 151.104229,
          "velocity": 0.6220472440944882
        },
        {
          "duration": 0.18404899999998747,
          "durationTicks": 96,
          "midi": 60,
          "name": "C4",
          "ticks": 78912,
          "time": 151.288278,
          "velocity": 0.905511811023622
        },
        {
          "duration": 0.18404899999998747,
          "durationTicks": 96,
          "midi": 55,
          "name": "G3",
          "ticks": 78912,
          "time": 151.288278,
          "velocity": 0.6929133858267716
        },
        {
          "duration": 0.18404899999998747,
          "durationTicks": 96,
          "midi": 52,
          "name": "E3",
          "ticks": 78912,
          "time": 151.288278,
          "velocity": 0.7874015748031497
        },
        {
          "duration": 0.1840490000000159,
          "durationTicks": 96,
          "midi": 64,
          "name": "E4",
          "ticks": 79008,
          "time": 151.47232699999998,
          "velocity": 0.905511811023622
        },
        {
          "duration": 0.1840490000000159,
          "durationTicks": 96,
          "midi": 48,
          "name": "C3",
          "ticks": 79008,
          "time": 151.47232699999998,
          "velocity": 0.6929133858267716
        },
        {
          "duration": 0.1840490000000159,
          "durationTicks": 96,
          "midi": 55,
          "name": "G3",
          "ticks": 79008,
          "time": 151.47232699999998,
          "velocity": 0.6220472440944882
        },
        {
          "duration": 0.18404899999998747,
          "durationTicks": 96,
          "midi": 62,
          "name": "D4",
          "ticks": 79104,
          "time": 151.656376,
          "velocity": 0.7874015748031497
        },
        {
          "duration": 0.18404899999998747,
          "durationTicks": 96,
          "midi": 55,
          "name": "G3",
          "ticks": 79104,
          "time": 151.656376,
          "velocity": 0.6929133858267716
        },
        {
          "duration": 0.18404899999998747,
          "durationTicks": 96,
          "midi": 47,
          "name": "B2",
          "ticks": 79104,
          "time": 151.656376,
          "velocity": 0.6929133858267716
        },
        {
          "duration": 0.18404899999998747,
          "durationTicks": 96,
          "midi": 43,
          "name": "G2",
          "ticks": 79104,
          "time": 151.656376,
          "velocity": 0.7874015748031497
        },
        {
          "duration": 0.1840490000000159,
          "durationTicks": 96,
          "midi": 62,
          "name": "D4",
          "ticks": 79200,
          "time": 151.84042499999998,
          "velocity": 0.6220472440944882
        },
        {
          "duration": 0.1840490000000159,
          "durationTicks": 96,
          "midi": 43,
          "name": "G2",
          "ticks": 79200,
          "time": 151.84042499999998,
          "velocity": 0.6929133858267716
        },
        {
          "duration": 0.1840490000000159,
          "durationTicks": 96,
          "midi": 55,
          "name": "G3",
          "ticks": 79200,
          "time": 151.84042499999998,
          "velocity": 0.6929133858267716
        },
        {
          "duration": 0.1840490000000159,
          "durationTicks": 96,
          "midi": 47,
          "name": "B2",
          "ticks": 79200,
          "time": 151.84042499999998,
          "velocity": 0.6929133858267716
        },
        {
          "duration": 0.18596617708331564,
          "durationTicks": 97,
          "midi": 47,
          "name": "B2",
          "ticks": 79296,
          "time": 152.024474,
          "velocity": 0.905511811023622
        },
        {
          "duration": 0.18596617708331564,
          "durationTicks": 97,
          "midi": 62,
          "name": "D4",
          "ticks": 79296,
          "time": 152.024474,
          "velocity": 0.905511811023622
        },
        {
          "duration": 0.18404899999998747,
          "durationTicks": 96,
          "midi": 67,
          "name": "G4",
          "ticks": 79296,
          "time": 152.024474,
          "velocity": 0.905511811023622
        },
        {
          "duration": 0.18596617708331564,
          "durationTicks": 97,
          "midi": 55,
          "name": "G3",
          "ticks": 79296,
          "time": 152.024474,
          "velocity": 0.905511811023622
        },
        {
          "duration": 0.18404899999998747,
          "durationTicks": 96,
          "midi": 50,
          "name": "D3",
          "ticks": 79296,
          "time": 152.024474,
          "velocity": 0.905511811023622
        },
        {
          "duration": 0.1840490000000159,
          "durationTicks": 96,
          "midi": 62,
          "name": "D4",
          "ticks": 79392,
          "time": 152.20852299999999,
          "velocity": 0.905511811023622
        },
        {
          "duration": 0.1840490000000159,
          "durationTicks": 96,
          "midi": 50,
          "name": "D3",
          "ticks": 79392,
          "time": 152.20852299999999,
          "velocity": 0.7874015748031497
        },
        {
          "duration": 0.18596617708334406,
          "durationTicks": 97,
          "midi": 55,
          "name": "G3",
          "ticks": 79392,
          "time": 152.20852299999999,
          "velocity": 0.6220472440944882
        },
        {
          "duration": 0.1840490000000159,
          "durationTicks": 96,
          "midi": 47,
          "name": "B2",
          "ticks": 79392,
          "time": 152.20852299999999,
          "velocity": 1
        },
        {
          "duration": 0.18404899999998747,
          "durationTicks": 96,
          "midi": 48,
          "name": "C3",
          "ticks": 79488,
          "time": 152.392572,
          "velocity": 0.7874015748031497
        },
        {
          "duration": 0.18404899999998747,
          "durationTicks": 96,
          "midi": 64,
          "name": "E4",
          "ticks": 79488,
          "time": 152.392572,
          "velocity": 0.7874015748031497
        },
        {
          "duration": 0.18404899999998747,
          "durationTicks": 96,
          "midi": 60,
          "name": "C4",
          "ticks": 79488,
          "time": 152.392572,
          "velocity": 0.7874015748031497
        },
        {
          "duration": 0.18596617708331564,
          "durationTicks": 97,
          "midi": 55,
          "name": "G3",
          "ticks": 79488,
          "time": 152.392572,
          "velocity": 0.6220472440944882
        },
        {
          "duration": 0.1840490000000159,
          "durationTicks": 96,
          "midi": 48,
          "name": "C3",
          "ticks": 79584,
          "time": 152.576621,
          "velocity": 0.6929133858267716
        },
        {
          "duration": 0.1840490000000159,
          "durationTicks": 96,
          "midi": 60,
          "name": "C4",
          "ticks": 79584,
          "time": 152.576621,
          "velocity": 0.7874015748031497
        },
        {
          "duration": 0.18596617708331564,
          "durationTicks": 97,
          "midi": 64,
          "name": "E4",
          "ticks": 79584,
          "time": 152.576621,
          "velocity": 0.7874015748031497
        },
        {
          "duration": 0.1840490000000159,
          "durationTicks": 96,
          "midi": 55,
          "name": "G3",
          "ticks": 79584,
          "time": 152.576621,
          "velocity": 0.5669291338582677
        },
        {
          "duration": 0.18404899999998747,
          "durationTicks": 96,
          "midi": 52,
          "name": "E3",
          "ticks": 79680,
          "time": 152.76067,
          "velocity": 0.905511811023622
        },
        {
          "duration": 0.18404899999998747,
          "durationTicks": 96,
          "midi": 55,
          "name": "G3",
          "ticks": 79680,
          "time": 152.76067,
          "velocity": 0.6929133858267716
        },
        {
          "duration": 0.18404899999998747,
          "durationTicks": 96,
          "midi": 64,
          "name": "E4",
          "ticks": 79680,
          "time": 152.76067,
          "velocity": 0.7874015748031497
        },
        {
          "duration": 0.18596617708331564,
          "durationTicks": 97,
          "midi": 60,
          "name": "C4",
          "ticks": 79680,
          "time": 152.76067,
          "velocity": 0.7874015748031497
        },
        {
          "duration": 0.18404899999998747,
          "durationTicks": 96,
          "midi": 55,
          "name": "G3",
          "ticks": 79776,
          "time": 152.944719,
          "velocity": 0.6929133858267716
        },
        {
          "duration": 0.18404899999998747,
          "durationTicks": 96,
          "midi": 60,
          "name": "C4",
          "ticks": 79776,
          "time": 152.944719,
          "velocity": 0.905511811023622
        },
        {
          "duration": 0.1840490000000159,
          "durationTicks": 96,
          "midi": 47,
          "name": "B2",
          "ticks": 79872,
          "time": 153.12876799999998,
          "velocity": 0.905511811023622
        },
        {
          "duration": 0.1840490000000159,
          "durationTicks": 96,
          "midi": 55,
          "name": "G3",
          "ticks": 79872,
          "time": 153.12876799999998,
          "velocity": 0.6220472440944882
        },
        {
          "duration": 0.1840490000000159,
          "durationTicks": 96,
          "midi": 43,
          "name": "G2",
          "ticks": 79872,
          "time": 153.12876799999998,
          "velocity": 0.6929133858267716
        },
        {
          "duration": 0.1840490000000159,
          "durationTicks": 96,
          "midi": 62,
          "name": "D4",
          "ticks": 79872,
          "time": 153.12876799999998,
          "velocity": 0.6929133858267716
        },
        {
          "duration": 0.18404899999998747,
          "durationTicks": 96,
          "midi": 47,
          "name": "B2",
          "ticks": 79968,
          "time": 153.312817,
          "velocity": 0.905511811023622
        },
        {
          "duration": 0.18404899999998747,
          "durationTicks": 96,
          "midi": 62,
          "name": "D4",
          "ticks": 79968,
          "time": 153.312817,
          "velocity": 0.7874015748031497
        },
        {
          "duration": 0.18596617708331564,
          "durationTicks": 97,
          "midi": 55,
          "name": "G3",
          "ticks": 79968,
          "time": 153.312817,
          "velocity": 0.6220472440944882
        },
        {
          "duration": 0.1840490000000159,
          "durationTicks": 96,
          "midi": 43,
          "name": "G2",
          "ticks": 80064,
          "time": 153.49686599999998,
          "velocity": 1
        },
        {
          "duration": 0.1840490000000159,
          "durationTicks": 96,
          "midi": 67,
          "name": "G4",
          "ticks": 80064,
          "time": 153.49686599999998,
          "velocity": 0.905511811023622
        },
        {
          "duration": 0.1840490000000159,
          "durationTicks": 96,
          "midi": 55,
          "name": "G3",
          "ticks": 80064,
          "time": 153.49686599999998,
          "velocity": 0.7874015748031497
        },
        {
          "duration": 0.1840490000000159,
          "durationTicks": 96,
          "midi": 62,
          "name": "D4",
          "ticks": 80064,
          "time": 153.49686599999998,
          "velocity": 0.905511811023622
        },
        {
          "duration": 0.18404899999998747,
          "durationTicks": 96,
          "midi": 62,
          "name": "D4",
          "ticks": 80160,
          "time": 153.680915,
          "velocity": 0.6929133858267716
        },
        {
          "duration": 0.18404899999998747,
          "durationTicks": 96,
          "midi": 47,
          "name": "B2",
          "ticks": 80160,
          "time": 153.680915,
          "velocity": 0.6929133858267716
        },
        {
          "duration": 0.18404899999998747,
          "durationTicks": 96,
          "midi": 55,
          "name": "G3",
          "ticks": 80160,
          "time": 153.680915,
          "velocity": 0.6929133858267716
        },
        {
          "duration": 0.1840490000000159,
          "durationTicks": 96,
          "midi": 60,
          "name": "C4",
          "ticks": 80256,
          "time": 153.864964,
          "velocity": 0.7874015748031497
        },
        {
          "duration": 0.1840490000000159,
          "durationTicks": 96,
          "midi": 55,
          "name": "G3",
          "ticks": 80256,
          "time": 153.864964,
          "velocity": 0.6220472440944882
        },
        {
          "duration": 0.1840490000000159,
          "durationTicks": 96,
          "midi": 64,
          "name": "E4",
          "ticks": 80256,
          "time": 153.864964,
          "velocity": 0.6929133858267716
        },
        {
          "duration": 0.18596617708334406,
          "durationTicks": 97,
          "midi": 48,
          "name": "C3",
          "ticks": 80256,
          "time": 153.864964,
          "velocity": 0.905511811023622
        },
        {
          "duration": 0.18404899999998747,
          "durationTicks": 96,
          "midi": 60,
          "name": "C4",
          "ticks": 80352,
          "time": 154.049013,
          "velocity": 0.6220472440944882
        },
        {
          "duration": 0.18404899999998747,
          "durationTicks": 96,
          "midi": 55,
          "name": "G3",
          "ticks": 80352,
          "time": 154.049013,
          "velocity": 0.6220472440944882
        },
        {
          "duration": 0.18404899999998747,
          "durationTicks": 96,
          "midi": 64,
          "name": "E4",
          "ticks": 80352,
          "time": 154.049013,
          "velocity": 0.6929133858267716
        },
        {
          "duration": 0.18404899999998747,
          "durationTicks": 96,
          "midi": 48,
          "name": "C3",
          "ticks": 80352,
          "time": 154.049013,
          "velocity": 0.6929133858267716
        },
        {
          "duration": 0.1840490000000159,
          "durationTicks": 96,
          "midi": 60,
          "name": "C4",
          "ticks": 80448,
          "time": 154.233062,
          "velocity": 0.905511811023622
        },
        {
          "duration": 0.1840490000000159,
          "durationTicks": 96,
          "midi": 55,
          "name": "G3",
          "ticks": 80448,
          "time": 154.233062,
          "velocity": 0.6929133858267716
        },
        {
          "duration": 0.1840490000000159,
          "durationTicks": 96,
          "midi": 52,
          "name": "E3",
          "ticks": 80448,
          "time": 154.233062,
          "velocity": 0.7874015748031497
        },
        {
          "duration": 0.18404899999998747,
          "durationTicks": 96,
          "midi": 48,
          "name": "C3",
          "ticks": 80544,
          "time": 154.417111,
          "velocity": 0.6929133858267716
        },
        {
          "duration": 0.18404899999998747,
          "durationTicks": 96,
          "midi": 64,
          "name": "E4",
          "ticks": 80544,
          "time": 154.417111,
          "velocity": 0.905511811023622
        },
        {
          "duration": 0.18596617708331564,
          "durationTicks": 97,
          "midi": 55,
          "name": "G3",
          "ticks": 80544,
          "time": 154.417111,
          "velocity": 0.6220472440944882
        },
        {
          "duration": 0.18404899999998747,
          "durationTicks": 96,
          "midi": 47,
          "name": "B2",
          "ticks": 80640,
          "time": 154.60116,
          "velocity": 0.6929133858267716
        },
        {
          "duration": 0.18404899999998747,
          "durationTicks": 96,
          "midi": 43,
          "name": "G2",
          "ticks": 80640,
          "time": 154.60116,
          "velocity": 0.7874015748031497
        },
        {
          "duration": 0.18404899999998747,
          "durationTicks": 96,
          "midi": 62,
          "name": "D4",
          "ticks": 80640,
          "time": 154.60116,
          "velocity": 0.7874015748031497
        },
        {
          "duration": 0.18404899999998747,
          "durationTicks": 96,
          "midi": 55,
          "name": "G3",
          "ticks": 80640,
          "time": 154.60116,
          "velocity": 0.6929133858267716
        },
        {
          "duration": 0.1840490000000159,
          "durationTicks": 96,
          "midi": 43,
          "name": "G2",
          "ticks": 80736,
          "time": 154.78520899999998,
          "velocity": 0.6929133858267716
        },
        {
          "duration": 0.1840490000000159,
          "durationTicks": 96,
          "midi": 47,
          "name": "B2",
          "ticks": 80736,
          "time": 154.78520899999998,
          "velocity": 0.6929133858267716
        },
        {
          "duration": 0.1840490000000159,
          "durationTicks": 96,
          "midi": 55,
          "name": "G3",
          "ticks": 80736,
          "time": 154.78520899999998,
          "velocity": 0.6929133858267716
        },
        {
          "duration": 0.1840490000000159,
          "durationTicks": 96,
          "midi": 62,
          "name": "D4",
          "ticks": 80736,
          "time": 154.78520899999998,
          "velocity": 0.6220472440944882
        },
        {
          "duration": 0.18596617708331564,
          "durationTicks": 97,
          "midi": 55,
          "name": "G3",
          "ticks": 80832,
          "time": 154.969258,
          "velocity": 0.905511811023622
        },
        {
          "duration": 0.18404899999998747,
          "durationTicks": 96,
          "midi": 47,
          "name": "B2",
          "ticks": 80832,
          "time": 154.969258,
          "velocity": 0.905511811023622
        },
        {
          "duration": 0.18404899999998747,
          "durationTicks": 96,
          "midi": 62,
          "name": "D4",
          "ticks": 80832,
          "time": 154.969258,
          "velocity": 0.905511811023622
        },
        {
          "duration": 0.18404899999998747,
          "durationTicks": 96,
          "midi": 67,
          "name": "G4",
          "ticks": 80832,
          "time": 154.969258,
          "velocity": 0.905511811023622
        },
        {
          "duration": 0.18596617708331564,
          "durationTicks": 97,
          "midi": 50,
          "name": "D3",
          "ticks": 80832,
          "time": 154.969258,
          "velocity": 0.905511811023622
        },
        {
          "duration": 0.1840490000000159,
          "durationTicks": 96,
          "midi": 47,
          "name": "B2",
          "ticks": 80928,
          "time": 155.15330699999998,
          "velocity": 1
        },
        {
          "duration": 0.1840490000000159,
          "durationTicks": 96,
          "midi": 62,
          "name": "D4",
          "ticks": 80928,
          "time": 155.15330699999998,
          "velocity": 0.905511811023622
        },
        {
          "duration": 0.1840490000000159,
          "durationTicks": 96,
          "midi": 55,
          "name": "G3",
          "ticks": 80928,
          "time": 155.15330699999998,
          "velocity": 0.6220472440944882
        },
        {
          "duration": 0.1840490000000159,
          "durationTicks": 96,
          "midi": 50,
          "name": "D3",
          "ticks": 80928,
          "time": 155.15330699999998,
          "velocity": 0.7874015748031497
        },
        {
          "duration": 0.18404899999998747,
          "durationTicks": 96,
          "midi": 64,
          "name": "E4",
          "ticks": 81024,
          "time": 155.337356,
          "velocity": 0.7874015748031497
        },
        {
          "duration": 0.18404899999998747,
          "durationTicks": 96,
          "midi": 60,
          "name": "C4",
          "ticks": 81024,
          "time": 155.337356,
          "velocity": 0.7874015748031497
        },
        {
          "duration": 0.18404899999998747,
          "durationTicks": 96,
          "midi": 48,
          "name": "C3",
          "ticks": 81024,
          "time": 155.337356,
          "velocity": 0.7874015748031497
        },
        {
          "duration": 0.18404899999998747,
          "durationTicks": 96,
          "midi": 55,
          "name": "G3",
          "ticks": 81024,
          "time": 155.337356,
          "velocity": 0.6220472440944882
        },
        {
          "duration": 0.1840490000000159,
          "durationTicks": 96,
          "midi": 55,
          "name": "G3",
          "ticks": 81120,
          "time": 155.521405,
          "velocity": 0.5669291338582677
        },
        {
          "duration": 0.18596617708334406,
          "durationTicks": 97,
          "midi": 64,
          "name": "E4",
          "ticks": 81120,
          "time": 155.521405,
          "velocity": 0.7874015748031497
        },
        {
          "duration": 0.1840490000000159,
          "durationTicks": 96,
          "midi": 48,
          "name": "C3",
          "ticks": 81120,
          "time": 155.521405,
          "velocity": 0.6929133858267716
        },
        {
          "duration": 0.1840490000000159,
          "durationTicks": 96,
          "midi": 60,
          "name": "C4",
          "ticks": 81120,
          "time": 155.521405,
          "velocity": 0.7874015748031497
        },
        {
          "duration": 0.18404899999998747,
          "durationTicks": 96,
          "midi": 52,
          "name": "E3",
          "ticks": 81216,
          "time": 155.705454,
          "velocity": 0.905511811023622
        },
        {
          "duration": 0.18404899999998747,
          "durationTicks": 96,
          "midi": 55,
          "name": "G3",
          "ticks": 81216,
          "time": 155.705454,
          "velocity": 0.6929133858267716
        },
        {
          "duration": 0.18404899999998747,
          "durationTicks": 96,
          "midi": 60,
          "name": "C4",
          "ticks": 81216,
          "time": 155.705454,
          "velocity": 0.7874015748031497
        },
        {
          "duration": 0.18404899999998747,
          "durationTicks": 96,
          "midi": 64,
          "name": "E4",
          "ticks": 81216,
          "time": 155.705454,
          "velocity": 0.7874015748031497
        },
        {
          "duration": 0.18404899999998747,
          "durationTicks": 96,
          "midi": 60,
          "name": "C4",
          "ticks": 81312,
          "time": 155.889503,
          "velocity": 0.905511811023622
        },
        {
          "duration": 0.18404899999998747,
          "durationTicks": 96,
          "midi": 55,
          "name": "G3",
          "ticks": 81312,
          "time": 155.889503,
          "velocity": 0.6929133858267716
        },
        {
          "duration": 0.1840490000000159,
          "durationTicks": 96,
          "midi": 62,
          "name": "D4",
          "ticks": 81408,
          "time": 156.07355199999998,
          "velocity": 0.6929133858267716
        },
        {
          "duration": 0.1840490000000159,
          "durationTicks": 96,
          "midi": 47,
          "name": "B2",
          "ticks": 81408,
          "time": 156.07355199999998,
          "velocity": 0.905511811023622
        },
        {
          "duration": 0.1840490000000159,
          "durationTicks": 96,
          "midi": 43,
          "name": "G2",
          "ticks": 81408,
          "time": 156.07355199999998,
          "velocity": 0.6929133858267716
        },
        {
          "duration": 0.18596617708334406,
          "durationTicks": 97,
          "midi": 55,
          "name": "G3",
          "ticks": 81408,
          "time": 156.07355199999998,
          "velocity": 0.6220472440944882
        },
        {
          "duration": 0.18404899999998747,
          "durationTicks": 96,
          "midi": 62,
          "name": "D4",
          "ticks": 81504,
          "time": 156.257601,
          "velocity": 0.7874015748031497
        },
        {
          "duration": 0.18404899999998747,
          "durationTicks": 96,
          "midi": 55,
          "name": "G3",
          "ticks": 81504,
          "time": 156.257601,
          "velocity": 0.6220472440944882
        },
        {
          "duration": 0.18404899999998747,
          "durationTicks": 96,
          "midi": 47,
          "name": "B2",
          "ticks": 81504,
          "time": 156.257601,
          "velocity": 0.905511811023622
        },
        {
          "duration": 0.18596617708334406,
          "durationTicks": 97,
          "midi": 62,
          "name": "D4",
          "ticks": 81600,
          "time": 156.44164999999998,
          "velocity": 0.905511811023622
        },
        {
          "duration": 0.1840490000000159,
          "durationTicks": 96,
          "midi": 43,
          "name": "G2",
          "ticks": 81600,
          "time": 156.44164999999998,
          "velocity": 1
        },
        {
          "duration": 0.1840490000000159,
          "durationTicks": 96,
          "midi": 55,
          "name": "G3",
          "ticks": 81600,
          "time": 156.44164999999998,
          "velocity": 0.7874015748031497
        },
        {
          "duration": 0.1840490000000159,
          "durationTicks": 96,
          "midi": 67,
          "name": "G4",
          "ticks": 81600,
          "time": 156.44164999999998,
          "velocity": 0.905511811023622
        },
        {
          "duration": 0.18404899999998747,
          "durationTicks": 96,
          "midi": 55,
          "name": "G3",
          "ticks": 81696,
          "time": 156.625699,
          "velocity": 0.6929133858267716
        },
        {
          "duration": 0.18404899999998747,
          "durationTicks": 96,
          "midi": 62,
          "name": "D4",
          "ticks": 81696,
          "time": 156.625699,
          "velocity": 0.6929133858267716
        },
        {
          "duration": 0.18404899999998747,
          "durationTicks": 96,
          "midi": 47,
          "name": "B2",
          "ticks": 81696,
          "time": 156.625699,
          "velocity": 0.6929133858267716
        },
        {
          "duration": 0.1840490000000159,
          "durationTicks": 96,
          "midi": 48,
          "name": "C3",
          "ticks": 81792,
          "time": 156.80974799999998,
          "velocity": 0.905511811023622
        },
        {
          "duration": 0.1840490000000159,
          "durationTicks": 96,
          "midi": 64,
          "name": "E4",
          "ticks": 81792,
          "time": 156.80974799999998,
          "velocity": 0.6929133858267716
        },
        {
          "duration": 0.1840490000000159,
          "durationTicks": 96,
          "midi": 60,
          "name": "C4",
          "ticks": 81792,
          "time": 156.80974799999998,
          "velocity": 0.7874015748031497
        },
        {
          "duration": 0.18596617708334406,
          "durationTicks": 97,
          "midi": 55,
          "name": "G3",
          "ticks": 81792,
          "time": 156.80974799999998,
          "velocity": 0.6220472440944882
        },
        {
          "duration": 0.18404899999998747,
          "durationTicks": 96,
          "midi": 60,
          "name": "C4",
          "ticks": 81888,
          "time": 156.993797,
          "velocity": 0.6220472440944882
        },
        {
          "duration": 0.18404899999998747,
          "durationTicks": 96,
          "midi": 48,
          "name": "C3",
          "ticks": 81888,
          "time": 156.993797,
          "velocity": 0.6929133858267716
        },
        {
          "duration": 0.18404899999998747,
          "durationTicks": 96,
          "midi": 64,
          "name": "E4",
          "ticks": 81888,
          "time": 156.993797,
          "velocity": 0.6929133858267716
        },
        {
          "duration": 0.18404899999998747,
          "durationTicks": 96,
          "midi": 55,
          "name": "G3",
          "ticks": 81888,
          "time": 156.993797,
          "velocity": 0.6220472440944882
        },
        {
          "duration": 0.1840490000000159,
          "durationTicks": 96,
          "midi": 55,
          "name": "G3",
          "ticks": 81984,
          "time": 157.177846,
          "velocity": 0.6929133858267716
        },
        {
          "duration": 0.1840490000000159,
          "durationTicks": 96,
          "midi": 52,
          "name": "E3",
          "ticks": 81984,
          "time": 157.177846,
          "velocity": 0.7874015748031497
        },
        {
          "duration": 0.1840490000000159,
          "durationTicks": 96,
          "midi": 60,
          "name": "C4",
          "ticks": 81984,
          "time": 157.177846,
          "velocity": 0.905511811023622
        },
        {
          "duration": 0.18404899999998747,
          "durationTicks": 96,
          "midi": 55,
          "name": "G3",
          "ticks": 82080,
          "time": 157.361895,
          "velocity": 0.6220472440944882
        },
        {
          "duration": 0.18404899999998747,
          "durationTicks": 96,
          "midi": 64,
          "name": "E4",
          "ticks": 82080,
          "time": 157.361895,
          "velocity": 0.905511811023622
        },
        {
          "duration": 0.18404899999998747,
          "durationTicks": 96,
          "midi": 48,
          "name": "C3",
          "ticks": 82080,
          "time": 157.361895,
          "velocity": 0.6929133858267716
        },
        {
          "duration": 0.18596617708331564,
          "durationTicks": 97,
          "midi": 62,
          "name": "D4",
          "ticks": 82176,
          "time": 157.545944,
          "velocity": 0.7874015748031497
        },
        {
          "duration": 0.18404899999998747,
          "durationTicks": 96,
          "midi": 55,
          "name": "G3",
          "ticks": 82176,
          "time": 157.545944,
          "velocity": 0.6929133858267716
        },
        {
          "duration": 0.18404899999998747,
          "durationTicks": 96,
          "midi": 43,
          "name": "G2",
          "ticks": 82176,
          "time": 157.545944,
          "velocity": 0.7874015748031497
        },
        {
          "duration": 0.18596617708331564,
          "durationTicks": 97,
          "midi": 47,
          "name": "B2",
          "ticks": 82176,
          "time": 157.545944,
          "velocity": 0.6929133858267716
        },
        {
          "duration": 0.1840490000000159,
          "durationTicks": 96,
          "midi": 55,
          "name": "G3",
          "ticks": 82272,
          "time": 157.72999299999998,
          "velocity": 0.6929133858267716
        },
        {
          "duration": 0.1840490000000159,
          "durationTicks": 96,
          "midi": 62,
          "name": "D4",
          "ticks": 82272,
          "time": 157.72999299999998,
          "velocity": 0.6220472440944882
        },
        {
          "duration": 0.1840490000000159,
          "durationTicks": 96,
          "midi": 43,
          "name": "G2",
          "ticks": 82272,
          "time": 157.72999299999998,
          "velocity": 0.6929133858267716
        },
        {
          "duration": 0.1840490000000159,
          "durationTicks": 96,
          "midi": 47,
          "name": "B2",
          "ticks": 82272,
          "time": 157.72999299999998,
          "velocity": 0.6929133858267716
        },
        {
          "duration": 0.18596617708331564,
          "durationTicks": 97,
          "midi": 47,
          "name": "B2",
          "ticks": 82368,
          "time": 157.914042,
          "velocity": 0.905511811023622
        },
        {
          "duration": 0.18404899999998747,
          "durationTicks": 96,
          "midi": 55,
          "name": "G3",
          "ticks": 82368,
          "time": 157.914042,
          "velocity": 0.905511811023622
        },
        {
          "duration": 0.18404899999998747,
          "durationTicks": 96,
          "midi": 62,
          "name": "D4",
          "ticks": 82368,
          "time": 157.914042,
          "velocity": 0.905511811023622
        },
        {
          "duration": 0.18404899999998747,
          "durationTicks": 96,
          "midi": 67,
          "name": "G4",
          "ticks": 82368,
          "time": 157.914042,
          "velocity": 0.905511811023622
        },
        {
          "duration": 0.18404899999998747,
          "durationTicks": 96,
          "midi": 50,
          "name": "D3",
          "ticks": 82368,
          "time": 157.914042,
          "velocity": 0.905511811023622
        },
        {
          "duration": 0.1840490000000159,
          "durationTicks": 96,
          "midi": 47,
          "name": "B2",
          "ticks": 82464,
          "time": 158.09809099999998,
          "velocity": 1
        },
        {
          "duration": 0.1840490000000159,
          "durationTicks": 96,
          "midi": 62,
          "name": "D4",
          "ticks": 82464,
          "time": 158.09809099999998,
          "velocity": 0.905511811023622
        },
        {
          "duration": 0.1840490000000159,
          "durationTicks": 96,
          "midi": 50,
          "name": "D3",
          "ticks": 82464,
          "time": 158.09809099999998,
          "velocity": 0.7874015748031497
        },
        {
          "duration": 0.1840490000000159,
          "durationTicks": 96,
          "midi": 55,
          "name": "G3",
          "ticks": 82464,
          "time": 158.09809099999998,
          "velocity": 0.6220472440944882
        },
        {
          "duration": 0.18404899999998747,
          "durationTicks": 96,
          "midi": 55,
          "name": "G3",
          "ticks": 82560,
          "time": 158.28214,
          "velocity": 0.6220472440944882
        },
        {
          "duration": 0.18596617708331564,
          "durationTicks": 97,
          "midi": 48,
          "name": "C3",
          "ticks": 82560,
          "time": 158.28214,
          "velocity": 0.7874015748031497
        },
        {
          "duration": 0.18404899999998747,
          "durationTicks": 96,
          "midi": 64,
          "name": "E4",
          "ticks": 82560,
          "time": 158.28214,
          "velocity": 0.7874015748031497
        },
        {
          "duration": 0.18404899999998747,
          "durationTicks": 96,
          "midi": 60,
          "name": "C4",
          "ticks": 82560,
          "time": 158.28214,
          "velocity": 0.7874015748031497
        },
        {
          "duration": 0.1840490000000159,
          "durationTicks": 96,
          "midi": 60,
          "name": "C4",
          "ticks": 82656,
          "time": 158.46618899999999,
          "velocity": 0.7874015748031497
        },
        {
          "duration": 0.1840490000000159,
          "durationTicks": 96,
          "midi": 64,
          "name": "E4",
          "ticks": 82656,
          "time": 158.46618899999999,
          "velocity": 0.7874015748031497
        },
        {
          "duration": 0.1840490000000159,
          "durationTicks": 96,
          "midi": 55,
          "name": "G3",
          "ticks": 82656,
          "time": 158.46618899999999,
          "velocity": 0.5669291338582677
        },
        {
          "duration": 0.1840490000000159,
          "durationTicks": 96,
          "midi": 48,
          "name": "C3",
          "ticks": 82656,
          "time": 158.46618899999999,
          "velocity": 0.6929133858267716
        },
        {
          "duration": 0.18404899999998747,
          "durationTicks": 96,
          "midi": 55,
          "name": "G3",
          "ticks": 82752,
          "time": 158.650238,
          "velocity": 0.6929133858267716
        },
        {
          "duration": 0.18404899999998747,
          "durationTicks": 96,
          "midi": 64,
          "name": "E4",
          "ticks": 82752,
          "time": 158.650238,
          "velocity": 0.7874015748031497
        },
        {
          "duration": 0.18404899999998747,
          "durationTicks": 96,
          "midi": 52,
          "name": "E3",
          "ticks": 82752,
          "time": 158.650238,
          "velocity": 0.905511811023622
        },
        {
          "duration": 0.18596617708331564,
          "durationTicks": 97,
          "midi": 60,
          "name": "C4",
          "ticks": 82752,
          "time": 158.650238,
          "velocity": 0.7874015748031497
        },
        {
          "duration": 0.1840490000000159,
          "durationTicks": 96,
          "midi": 60,
          "name": "C4",
          "ticks": 82848,
          "time": 158.834287,
          "velocity": 0.905511811023622
        },
        {
          "duration": 0.1840490000000159,
          "durationTicks": 96,
          "midi": 55,
          "name": "G3",
          "ticks": 82848,
          "time": 158.834287,
          "velocity": 0.6929133858267716
        },
        {
          "duration": 0.18596617708331564,
          "durationTicks": 97,
          "midi": 62,
          "name": "D4",
          "ticks": 82944,
          "time": 159.018336,
          "velocity": 0.6929133858267716
        },
        {
          "duration": 0.18404899999998747,
          "durationTicks": 96,
          "midi": 55,
          "name": "G3",
          "ticks": 82944,
          "time": 159.018336,
          "velocity": 0.6220472440944882
        },
        {
          "duration": 0.18404899999998747,
          "durationTicks": 96,
          "midi": 43,
          "name": "G2",
          "ticks": 82944,
          "time": 159.018336,
          "velocity": 0.6929133858267716
        },
        {
          "duration": 0.18404899999998747,
          "durationTicks": 96,
          "midi": 47,
          "name": "B2",
          "ticks": 82944,
          "time": 159.018336,
          "velocity": 0.905511811023622
        },
        {
          "duration": 0.18404899999998747,
          "durationTicks": 96,
          "midi": 62,
          "name": "D4",
          "ticks": 83040,
          "time": 159.202385,
          "velocity": 0.7874015748031497
        },
        {
          "duration": 0.18404899999998747,
          "durationTicks": 96,
          "midi": 55,
          "name": "G3",
          "ticks": 83040,
          "time": 159.202385,
          "velocity": 0.6220472440944882
        },
        {
          "duration": 0.18404899999998747,
          "durationTicks": 96,
          "midi": 47,
          "name": "B2",
          "ticks": 83040,
          "time": 159.202385,
          "velocity": 0.905511811023622
        },
        {
          "duration": 0.18596617708334406,
          "durationTicks": 97,
          "midi": 62,
          "name": "D4",
          "ticks": 83136,
          "time": 159.38643399999998,
          "velocity": 0.905511811023622
        },
        {
          "duration": 0.1840490000000159,
          "durationTicks": 96,
          "midi": 55,
          "name": "G3",
          "ticks": 83136,
          "time": 159.38643399999998,
          "velocity": 0.7874015748031497
        },
        {
          "duration": 0.1840490000000159,
          "durationTicks": 96,
          "midi": 43,
          "name": "G2",
          "ticks": 83136,
          "time": 159.38643399999998,
          "velocity": 1
        },
        {
          "duration": 0.1840490000000159,
          "durationTicks": 96,
          "midi": 67,
          "name": "G4",
          "ticks": 83136,
          "time": 159.38643399999998,
          "velocity": 0.905511811023622
        },
        {
          "duration": 0.18404899999998747,
          "durationTicks": 96,
          "midi": 47,
          "name": "B2",
          "ticks": 83232,
          "time": 159.570483,
          "velocity": 0.6929133858267716
        },
        {
          "duration": 0.18404899999998747,
          "durationTicks": 96,
          "midi": 55,
          "name": "G3",
          "ticks": 83232,
          "time": 159.570483,
          "velocity": 0.6929133858267716
        },
        {
          "duration": 0.18404899999998747,
          "durationTicks": 96,
          "midi": 62,
          "name": "D4",
          "ticks": 83232,
          "time": 159.570483,
          "velocity": 0.6929133858267716
        },
        {
          "duration": 0.1840490000000159,
          "durationTicks": 96,
          "midi": 60,
          "name": "C4",
          "ticks": 83328,
          "time": 159.75453199999998,
          "velocity": 0.7874015748031497
        },
        {
          "duration": 0.1840490000000159,
          "durationTicks": 96,
          "midi": 48,
          "name": "C3",
          "ticks": 83328,
          "time": 159.75453199999998,
          "velocity": 0.905511811023622
        },
        {
          "duration": 0.1840490000000159,
          "durationTicks": 96,
          "midi": 55,
          "name": "G3",
          "ticks": 83328,
          "time": 159.75453199999998,
          "velocity": 0.6220472440944882
        },
        {
          "duration": 0.1840490000000159,
          "durationTicks": 96,
          "midi": 64,
          "name": "E4",
          "ticks": 83328,
          "time": 159.75453199999998,
          "velocity": 0.6929133858267716
        },
        {
          "duration": 0.18404899999998747,
          "durationTicks": 96,
          "midi": 60,
          "name": "C4",
          "ticks": 83424,
          "time": 159.938581,
          "velocity": 0.6220472440944882
        },
        {
          "duration": 0.18404899999998747,
          "durationTicks": 96,
          "midi": 48,
          "name": "C3",
          "ticks": 83424,
          "time": 159.938581,
          "velocity": 0.6929133858267716
        },
        {
          "duration": 0.18596617708331564,
          "durationTicks": 97,
          "midi": 55,
          "name": "G3",
          "ticks": 83424,
          "time": 159.938581,
          "velocity": 0.6220472440944882
        },
        {
          "duration": 0.18404899999998747,
          "durationTicks": 96,
          "midi": 64,
          "name": "E4",
          "ticks": 83424,
          "time": 159.938581,
          "velocity": 0.6929133858267716
        },
        {
          "duration": 0.1840490000000159,
          "durationTicks": 96,
          "midi": 52,
          "name": "E3",
          "ticks": 83520,
          "time": 160.12263,
          "velocity": 0.7874015748031497
        },
        {
          "duration": 0.1840490000000159,
          "durationTicks": 96,
          "midi": 55,
          "name": "G3",
          "ticks": 83520,
          "time": 160.12263,
          "velocity": 0.6929133858267716
        },
        {
          "duration": 0.1840490000000159,
          "durationTicks": 96,
          "midi": 60,
          "name": "C4",
          "ticks": 83520,
          "time": 160.12263,
          "velocity": 0.905511811023622
        },
        {
          "duration": 0.18404899999998747,
          "durationTicks": 96,
          "midi": 64,
          "name": "E4",
          "ticks": 83616,
          "time": 160.306679,
          "velocity": 0.905511811023622
        },
        {
          "duration": 0.18596617708331564,
          "durationTicks": 97,
          "midi": 55,
          "name": "G3",
          "ticks": 83616,
          "time": 160.306679,
          "velocity": 0.6220472440944882
        },
        {
          "duration": 0.18404899999998747,
          "durationTicks": 96,
          "midi": 48,
          "name": "C3",
          "ticks": 83616,
          "time": 160.306679,
          "velocity": 0.6929133858267716
        },
        {
          "duration": 0.18596617708331564,
          "durationTicks": 97,
          "midi": 43,
          "name": "G2",
          "ticks": 83712,
          "time": 160.490728,
          "velocity": 0.7874015748031497
        },
        {
          "duration": 0.18404899999998747,
          "durationTicks": 96,
          "midi": 62,
          "name": "D4",
          "ticks": 83712,
          "time": 160.490728,
          "velocity": 0.7874015748031497
        },
        {
          "duration": 0.18404899999998747,
          "durationTicks": 96,
          "midi": 55,
          "name": "G3",
          "ticks": 83712,
          "time": 160.490728,
          "velocity": 0.6929133858267716
        },
        {
          "duration": 0.18596617708331564,
          "durationTicks": 97,
          "midi": 47,
          "name": "B2",
          "ticks": 83712,
          "time": 160.490728,
          "velocity": 0.6929133858267716
        },
        {
          "duration": 0.1840490000000159,
          "durationTicks": 96,
          "midi": 62,
          "name": "D4",
          "ticks": 83808,
          "time": 160.67477699999998,
          "velocity": 0.6220472440944882
        },
        {
          "duration": 0.1840490000000159,
          "durationTicks": 96,
          "midi": 55,
          "name": "G3",
          "ticks": 83808,
          "time": 160.67477699999998,
          "velocity": 0.6929133858267716
        },
        {
          "duration": 0.1840490000000159,
          "durationTicks": 96,
          "midi": 47,
          "name": "B2",
          "ticks": 83808,
          "time": 160.67477699999998,
          "velocity": 0.6929133858267716
        },
        {
          "duration": 0.1840490000000159,
          "durationTicks": 96,
          "midi": 43,
          "name": "G2",
          "ticks": 83808,
          "time": 160.67477699999998,
          "velocity": 0.6929133858267716
        },
        {
          "duration": 0.18596617708331564,
          "durationTicks": 97,
          "midi": 62,
          "name": "D4",
          "ticks": 83904,
          "time": 160.858826,
          "velocity": 0.905511811023622
        },
        {
          "duration": 0.18404899999998747,
          "durationTicks": 96,
          "midi": 55,
          "name": "G3",
          "ticks": 83904,
          "time": 160.858826,
          "velocity": 0.905511811023622
        },
        {
          "duration": 0.18596617708331564,
          "durationTicks": 97,
          "midi": 47,
          "name": "B2",
          "ticks": 83904,
          "time": 160.858826,
          "velocity": 0.905511811023622
        },
        {
          "duration": 0.18404899999998747,
          "durationTicks": 96,
          "midi": 50,
          "name": "D3",
          "ticks": 83904,
          "time": 160.858826,
          "velocity": 0.905511811023622
        },
        {
          "duration": 0.18404899999998747,
          "durationTicks": 96,
          "midi": 67,
          "name": "G4",
          "ticks": 83904,
          "time": 160.858826,
          "velocity": 0.905511811023622
        },
        {
          "duration": 0.18596617708334406,
          "durationTicks": 97,
          "midi": 55,
          "name": "G3",
          "ticks": 84000,
          "time": 161.04287499999998,
          "velocity": 0.6220472440944882
        },
        {
          "duration": 0.1840490000000159,
          "durationTicks": 96,
          "midi": 50,
          "name": "D3",
          "ticks": 84000,
          "time": 161.04287499999998,
          "velocity": 0.7874015748031497
        },
        {
          "duration": 0.1840490000000159,
          "durationTicks": 96,
          "midi": 62,
          "name": "D4",
          "ticks": 84000,
          "time": 161.04287499999998,
          "velocity": 0.905511811023622
        },
        {
          "duration": 0.1840490000000159,
          "durationTicks": 96,
          "midi": 47,
          "name": "B2",
          "ticks": 84000,
          "time": 161.04287499999998,
          "velocity": 1
        },
        {
          "duration": 0.18404899999998747,
          "durationTicks": 96,
          "midi": 48,
          "name": "C3",
          "ticks": 84096,
          "time": 161.226924,
          "velocity": 0.7874015748031497
        },
        {
          "duration": 0.18596617708331564,
          "durationTicks": 97,
          "midi": 60,
          "name": "C4",
          "ticks": 84096,
          "time": 161.226924,
          "velocity": 0.7874015748031497
        },
        {
          "duration": 0.18404899999998747,
          "durationTicks": 96,
          "midi": 64,
          "name": "E4",
          "ticks": 84096,
          "time": 161.226924,
          "velocity": 0.7874015748031497
        },
        {
          "duration": 0.18404899999998747,
          "durationTicks": 96,
          "midi": 55,
          "name": "G3",
          "ticks": 84096,
          "time": 161.226924,
          "velocity": 0.6220472440944882
        },
        {
          "duration": 0.1840490000000159,
          "durationTicks": 96,
          "midi": 48,
          "name": "C3",
          "ticks": 84192,
          "time": 161.41097299999998,
          "velocity": 0.6929133858267716
        },
        {
          "duration": 0.1840490000000159,
          "durationTicks": 96,
          "midi": 55,
          "name": "G3",
          "ticks": 84192,
          "time": 161.41097299999998,
          "velocity": 0.5669291338582677
        },
        {
          "duration": 0.1840490000000159,
          "durationTicks": 96,
          "midi": 64,
          "name": "E4",
          "ticks": 84192,
          "time": 161.41097299999998,
          "velocity": 0.7874015748031497
        },
        {
          "duration": 0.1840490000000159,
          "durationTicks": 96,
          "midi": 60,
          "name": "C4",
          "ticks": 84192,
          "time": 161.41097299999998,
          "velocity": 0.7874015748031497
        },
        {
          "duration": 0.18404899999998747,
          "durationTicks": 96,
          "midi": 60,
          "name": "C4",
          "ticks": 84288,
          "time": 161.595022,
          "velocity": 0.7874015748031497
        },
        {
          "duration": 0.18404899999998747,
          "durationTicks": 96,
          "midi": 64,
          "name": "E4",
          "ticks": 84288,
          "time": 161.595022,
          "velocity": 0.7874015748031497
        },
        {
          "duration": 0.18404899999998747,
          "durationTicks": 96,
          "midi": 55,
          "name": "G3",
          "ticks": 84288,
          "time": 161.595022,
          "velocity": 0.6929133858267716
        },
        {
          "duration": 0.18404899999998747,
          "durationTicks": 96,
          "midi": 52,
          "name": "E3",
          "ticks": 84288,
          "time": 161.595022,
          "velocity": 0.905511811023622
        },
        {
          "duration": 0.1840490000000159,
          "durationTicks": 96,
          "midi": 60,
          "name": "C4",
          "ticks": 84384,
          "time": 161.779071,
          "velocity": 0.905511811023622
        },
        {
          "duration": 0.1840490000000159,
          "durationTicks": 96,
          "midi": 55,
          "name": "G3",
          "ticks": 84384,
          "time": 161.779071,
          "velocity": 0.6929133858267716
        },
        {
          "duration": 0.18596617708331564,
          "durationTicks": 97,
          "midi": 55,
          "name": "G3",
          "ticks": 84480,
          "time": 161.96312,
          "velocity": 0.6220472440944882
        },
        {
          "duration": 0.18596617708331564,
          "durationTicks": 97,
          "midi": 47,
          "name": "B2",
          "ticks": 84480,
          "time": 161.96312,
          "velocity": 0.905511811023622
        },
        {
          "duration": 0.18404899999998747,
          "durationTicks": 96,
          "midi": 62,
          "name": "D4",
          "ticks": 84480,
          "time": 161.96312,
          "velocity": 0.6929133858267716
        },
        {
          "duration": 0.18404899999998747,
          "durationTicks": 96,
          "midi": 43,
          "name": "G2",
          "ticks": 84480,
          "time": 161.96312,
          "velocity": 0.6929133858267716
        },
        {
          "duration": 0.18404899999998747,
          "durationTicks": 96,
          "midi": 55,
          "name": "G3",
          "ticks": 84576,
          "time": 162.147169,
          "velocity": 0.6220472440944882
        },
        {
          "duration": 0.18404899999998747,
          "durationTicks": 96,
          "midi": 62,
          "name": "D4",
          "ticks": 84576,
          "time": 162.147169,
          "velocity": 0.7874015748031497
        },
        {
          "duration": 0.18404899999998747,
          "durationTicks": 96,
          "midi": 47,
          "name": "B2",
          "ticks": 84576,
          "time": 162.147169,
          "velocity": 0.905511811023622
        },
        {
          "duration": 0.18596617708334406,
          "durationTicks": 97,
          "midi": 62,
          "name": "D4",
          "ticks": 84672,
          "time": 162.33121799999998,
          "velocity": 0.905511811023622
        },
        {
          "duration": 0.1840490000000159,
          "durationTicks": 96,
          "midi": 43,
          "name": "G2",
          "ticks": 84672,
          "time": 162.33121799999998,
          "velocity": 1
        },
        {
          "duration": 0.1840490000000159,
          "durationTicks": 96,
          "midi": 55,
          "name": "G3",
          "ticks": 84672,
          "time": 162.33121799999998,
          "velocity": 0.7874015748031497
        },
        {
          "duration": 0.1840490000000159,
          "durationTicks": 96,
          "midi": 67,
          "name": "G4",
          "ticks": 84672,
          "time": 162.33121799999998,
          "velocity": 0.905511811023622
        },
        {
          "duration": 0.18404899999998747,
          "durationTicks": 96,
          "midi": 47,
          "name": "B2",
          "ticks": 84768,
          "time": 162.515267,
          "velocity": 0.6929133858267716
        },
        {
          "duration": 0.18404899999998747,
          "durationTicks": 96,
          "midi": 55,
          "name": "G3",
          "ticks": 84768,
          "time": 162.515267,
          "velocity": 0.6929133858267716
        },
        {
          "duration": 0.18404899999998747,
          "durationTicks": 96,
          "midi": 62,
          "name": "D4",
          "ticks": 84768,
          "time": 162.515267,
          "velocity": 0.6929133858267716
        },
        {
          "duration": 0.1840490000000159,
          "durationTicks": 96,
          "midi": 48,
          "name": "C3",
          "ticks": 84864,
          "time": 162.69931599999998,
          "velocity": 0.905511811023622
        },
        {
          "duration": 0.1840490000000159,
          "durationTicks": 96,
          "midi": 60,
          "name": "C4",
          "ticks": 84864,
          "time": 162.69931599999998,
          "velocity": 0.7874015748031497
        },
        {
          "duration": 0.1840490000000159,
          "durationTicks": 96,
          "midi": 64,
          "name": "E4",
          "ticks": 84864,
          "time": 162.69931599999998,
          "velocity": 0.6929133858267716
        },
        {
          "duration": 0.1840490000000159,
          "durationTicks": 96,
          "midi": 55,
          "name": "G3",
          "ticks": 84864,
          "time": 162.69931599999998,
          "velocity": 0.6220472440944882
        },
        {
          "duration": 0.18404899999998747,
          "durationTicks": 96,
          "midi": 60,
          "name": "C4",
          "ticks": 84960,
          "time": 162.883365,
          "velocity": 0.6220472440944882
        },
        {
          "duration": 0.18404899999998747,
          "durationTicks": 96,
          "midi": 64,
          "name": "E4",
          "ticks": 84960,
          "time": 162.883365,
          "velocity": 0.6929133858267716
        },
        {
          "duration": 0.18404899999998747,
          "durationTicks": 96,
          "midi": 48,
          "name": "C3",
          "ticks": 84960,
          "time": 162.883365,
          "velocity": 0.6929133858267716
        },
        {
          "duration": 0.18596617708331564,
          "durationTicks": 97,
          "midi": 55,
          "name": "G3",
          "ticks": 84960,
          "time": 162.883365,
          "velocity": 0.6220472440944882
        },
        {
          "duration": 0.1840490000000159,
          "durationTicks": 96,
          "midi": 52,
          "name": "E3",
          "ticks": 85056,
          "time": 163.06741399999999,
          "velocity": 0.7874015748031497
        },
        {
          "duration": 0.1840490000000159,
          "durationTicks": 96,
          "midi": 55,
          "name": "G3",
          "ticks": 85056,
          "time": 163.06741399999999,
          "velocity": 0.6929133858267716
        },
        {
          "duration": 0.1840490000000159,
          "durationTicks": 96,
          "midi": 60,
          "name": "C4",
          "ticks": 85056,
          "time": 163.06741399999999,
          "velocity": 0.905511811023622
        },
        {
          "duration": 0.18404899999998747,
          "durationTicks": 96,
          "midi": 55,
          "name": "G3",
          "ticks": 85152,
          "time": 163.251463,
          "velocity": 0.6220472440944882
        },
        {
          "duration": 0.18404899999998747,
          "durationTicks": 96,
          "midi": 64,
          "name": "E4",
          "ticks": 85152,
          "time": 163.251463,
          "velocity": 0.905511811023622
        },
        {
          "duration": 0.18404899999998747,
          "durationTicks": 96,
          "midi": 48,
          "name": "C3",
          "ticks": 85152,
          "time": 163.251463,
          "velocity": 0.6929133858267716
        },
        {
          "duration": 0.1840490000000159,
          "durationTicks": 96,
          "midi": 55,
          "name": "G3",
          "ticks": 85248,
          "time": 163.435512,
          "velocity": 0.6929133858267716
        },
        {
          "duration": 0.1840490000000159,
          "durationTicks": 96,
          "midi": 47,
          "name": "B2",
          "ticks": 85248,
          "time": 163.435512,
          "velocity": 0.6929133858267716
        },
        {
          "duration": 0.1840490000000159,
          "durationTicks": 96,
          "midi": 43,
          "name": "G2",
          "ticks": 85248,
          "time": 163.435512,
          "velocity": 0.7874015748031497
        },
        {
          "duration": 0.1840490000000159,
          "durationTicks": 96,
          "midi": 62,
          "name": "D4",
          "ticks": 85248,
          "time": 163.435512,
          "velocity": 0.7874015748031497
        },
        {
          "duration": 0.18404899999998747,
          "durationTicks": 96,
          "midi": 43,
          "name": "G2",
          "ticks": 85344,
          "time": 163.619561,
          "velocity": 0.6929133858267716
        },
        {
          "duration": 0.18404899999998747,
          "durationTicks": 96,
          "midi": 55,
          "name": "G3",
          "ticks": 85344,
          "time": 163.619561,
          "velocity": 0.6929133858267716
        },
        {
          "duration": 0.18404899999998747,
          "durationTicks": 96,
          "midi": 47,
          "name": "B2",
          "ticks": 85344,
          "time": 163.619561,
          "velocity": 0.6929133858267716
        },
        {
          "duration": 0.18404899999998747,
          "durationTicks": 96,
          "midi": 62,
          "name": "D4",
          "ticks": 85344,
          "time": 163.619561,
          "velocity": 0.6220472440944882
        },
        {
          "duration": 0.18404899999998747,
          "durationTicks": 96,
          "midi": 62,
          "name": "D4",
          "ticks": 85440,
          "time": 163.80361,
          "velocity": 0.905511811023622
        },
        {
          "duration": 0.18404899999998747,
          "durationTicks": 96,
          "midi": 50,
          "name": "D3",
          "ticks": 85440,
          "time": 163.80361,
          "velocity": 0.905511811023622
        },
        {
          "duration": 0.18404899999998747,
          "durationTicks": 96,
          "midi": 67,
          "name": "G4",
          "ticks": 85440,
          "time": 163.80361,
          "velocity": 0.905511811023622
        },
        {
          "duration": 0.18404899999998747,
          "durationTicks": 96,
          "midi": 47,
          "name": "B2",
          "ticks": 85440,
          "time": 163.80361,
          "velocity": 0.905511811023622
        },
        {
          "duration": 0.18596617708331564,
          "durationTicks": 97,
          "midi": 55,
          "name": "G3",
          "ticks": 85440,
          "time": 163.80361,
          "velocity": 0.905511811023622
        },
        {
          "duration": 0.1840490000000159,
          "durationTicks": 96,
          "midi": 50,
          "name": "D3",
          "ticks": 85536,
          "time": 163.98765899999998,
          "velocity": 0.7874015748031497
        },
        {
          "duration": 0.1840490000000159,
          "durationTicks": 96,
          "midi": 62,
          "name": "D4",
          "ticks": 85536,
          "time": 163.98765899999998,
          "velocity": 0.905511811023622
        },
        {
          "duration": 0.1840490000000159,
          "durationTicks": 96,
          "midi": 55,
          "name": "G3",
          "ticks": 85536,
          "time": 163.98765899999998,
          "velocity": 0.6220472440944882
        },
        {
          "duration": 0.1840490000000159,
          "durationTicks": 96,
          "midi": 47,
          "name": "B2",
          "ticks": 85536,
          "time": 163.98765899999998,
          "velocity": 1
        },
        {
          "duration": 0.18404899999998747,
          "durationTicks": 96,
          "midi": 60,
          "name": "C4",
          "ticks": 85632,
          "time": 164.171708,
          "velocity": 0.7874015748031497
        },
        {
          "duration": 0.18404899999998747,
          "durationTicks": 96,
          "midi": 48,
          "name": "C3",
          "ticks": 85632,
          "time": 164.171708,
          "velocity": 0.7874015748031497
        },
        {
          "duration": 0.18404899999998747,
          "durationTicks": 96,
          "midi": 64,
          "name": "E4",
          "ticks": 85632,
          "time": 164.171708,
          "velocity": 0.7874015748031497
        },
        {
          "duration": 0.18596617708331564,
          "durationTicks": 97,
          "midi": 55,
          "name": "G3",
          "ticks": 85632,
          "time": 164.171708,
          "velocity": 0.6220472440944882
        },
        {
          "duration": 0.1840490000000159,
          "durationTicks": 96,
          "midi": 48,
          "name": "C3",
          "ticks": 85728,
          "time": 164.35575699999998,
          "velocity": 0.6929133858267716
        },
        {
          "duration": 0.18596617708334406,
          "durationTicks": 97,
          "midi": 60,
          "name": "C4",
          "ticks": 85728,
          "time": 164.35575699999998,
          "velocity": 0.7874015748031497
        },
        {
          "duration": 0.1840490000000159,
          "durationTicks": 96,
          "midi": 64,
          "name": "E4",
          "ticks": 85728,
          "time": 164.35575699999998,
          "velocity": 0.7874015748031497
        },
        {
          "duration": 0.1840490000000159,
          "durationTicks": 96,
          "midi": 55,
          "name": "G3",
          "ticks": 85728,
          "time": 164.35575699999998,
          "velocity": 0.5669291338582677
        },
        {
          "duration": 0.18404899999998747,
          "durationTicks": 96,
          "midi": 55,
          "name": "G3",
          "ticks": 85824,
          "time": 164.539806,
          "velocity": 0.6929133858267716
        },
        {
          "duration": 0.18404899999998747,
          "durationTicks": 96,
          "midi": 64,
          "name": "E4",
          "ticks": 85824,
          "time": 164.539806,
          "velocity": 0.7874015748031497
        },
        {
          "duration": 0.18404899999998747,
          "durationTicks": 96,
          "midi": 52,
          "name": "E3",
          "ticks": 85824,
          "time": 164.539806,
          "velocity": 0.905511811023622
        },
        {
          "duration": 0.18596617708331564,
          "durationTicks": 97,
          "midi": 60,
          "name": "C4",
          "ticks": 85824,
          "time": 164.539806,
          "velocity": 0.7874015748031497
        },
        {
          "duration": 0.1840490000000159,
          "durationTicks": 96,
          "midi": 60,
          "name": "C4",
          "ticks": 85920,
          "time": 164.723855,
          "velocity": 0.905511811023622
        },
        {
          "duration": 0.1840490000000159,
          "durationTicks": 96,
          "midi": 55,
          "name": "G3",
          "ticks": 85920,
          "time": 164.723855,
          "velocity": 0.6929133858267716
        },
        {
          "duration": 0.18404899999998747,
          "durationTicks": 96,
          "midi": 43,
          "name": "G2",
          "ticks": 86016,
          "time": 164.907904,
          "velocity": 0.6929133858267716
        },
        {
          "duration": 0.18404899999998747,
          "durationTicks": 96,
          "midi": 55,
          "name": "G3",
          "ticks": 86016,
          "time": 164.907904,
          "velocity": 0.6220472440944882
        },
        {
          "duration": 0.18404899999998747,
          "durationTicks": 96,
          "midi": 47,
          "name": "B2",
          "ticks": 86016,
          "time": 164.907904,
          "velocity": 0.905511811023622
        },
        {
          "duration": 0.18404899999998747,
          "durationTicks": 96,
          "midi": 62,
          "name": "D4",
          "ticks": 86016,
          "time": 164.907904,
          "velocity": 0.6929133858267716
        },
        {
          "duration": 0.1840490000000159,
          "durationTicks": 96,
          "midi": 55,
          "name": "G3",
          "ticks": 86112,
          "time": 165.091953,
          "velocity": 0.6220472440944882
        },
        {
          "duration": 0.1840490000000159,
          "durationTicks": 96,
          "midi": 62,
          "name": "D4",
          "ticks": 86112,
          "time": 165.091953,
          "velocity": 0.7874015748031497
        },
        {
          "duration": 0.1840490000000159,
          "durationTicks": 96,
          "midi": 47,
          "name": "B2",
          "ticks": 86112,
          "time": 165.091953,
          "velocity": 0.905511811023622
        },
        {
          "duration": 0.18596617708331564,
          "durationTicks": 97,
          "midi": 55,
          "name": "G3",
          "ticks": 86208,
          "time": 165.276002,
          "velocity": 0.7874015748031497
        },
        {
          "duration": 0.18404899999998747,
          "durationTicks": 96,
          "midi": 62,
          "name": "D4",
          "ticks": 86208,
          "time": 165.276002,
          "velocity": 0.905511811023622
        },
        {
          "duration": 0.18404899999998747,
          "durationTicks": 96,
          "midi": 43,
          "name": "G2",
          "ticks": 86208,
          "time": 165.276002,
          "velocity": 1
        },
        {
          "duration": 0.18404899999998747,
          "durationTicks": 96,
          "midi": 67,
          "name": "G4",
          "ticks": 86208,
          "time": 165.276002,
          "velocity": 0.905511811023622
        },
        {
          "duration": 0.18404899999998747,
          "durationTicks": 96,
          "midi": 47,
          "name": "B2",
          "ticks": 86304,
          "time": 165.460051,
          "velocity": 0.6929133858267716
        },
        {
          "duration": 0.18404899999998747,
          "durationTicks": 96,
          "midi": 62,
          "name": "D4",
          "ticks": 86304,
          "time": 165.460051,
          "velocity": 0.6929133858267716
        },
        {
          "duration": 0.18404899999998747,
          "durationTicks": 96,
          "midi": 55,
          "name": "G3",
          "ticks": 86304,
          "time": 165.460051,
          "velocity": 0.6929133858267716
        },
        {
          "duration": 0.1840490000000159,
          "durationTicks": 96,
          "midi": 55,
          "name": "G3",
          "ticks": 86400,
          "time": 165.64409999999998,
          "velocity": 0.6220472440944882
        },
        {
          "duration": 0.1840490000000159,
          "durationTicks": 96,
          "midi": 60,
          "name": "C4",
          "ticks": 86400,
          "time": 165.64409999999998,
          "velocity": 0.7874015748031497
        },
        {
          "duration": 0.1840490000000159,
          "durationTicks": 96,
          "midi": 48,
          "name": "C3",
          "ticks": 86400,
          "time": 165.64409999999998,
          "velocity": 0.905511811023622
        },
        {
          "duration": 0.1840490000000159,
          "durationTicks": 96,
          "midi": 64,
          "name": "E4",
          "ticks": 86400,
          "time": 165.64409999999998,
          "velocity": 0.6929133858267716
        },
        {
          "duration": 0.18404899999998747,
          "durationTicks": 96,
          "midi": 55,
          "name": "G3",
          "ticks": 86496,
          "time": 165.828149,
          "velocity": 0.6220472440944882
        },
        {
          "duration": 0.18404899999998747,
          "durationTicks": 96,
          "midi": 48,
          "name": "C3",
          "ticks": 86496,
          "time": 165.828149,
          "velocity": 0.6929133858267716
        },
        {
          "duration": 0.18404899999998747,
          "durationTicks": 96,
          "midi": 60,
          "name": "C4",
          "ticks": 86496,
          "time": 165.828149,
          "velocity": 0.6220472440944882
        },
        {
          "duration": 0.18404899999998747,
          "durationTicks": 96,
          "midi": 64,
          "name": "E4",
          "ticks": 86496,
          "time": 165.828149,
          "velocity": 0.6929133858267716
        },
        {
          "duration": 0.1840490000000159,
          "durationTicks": 96,
          "midi": 60,
          "name": "C4",
          "ticks": 86592,
          "time": 166.01219799999998,
          "velocity": 0.905511811023622
        },
        {
          "duration": 0.1840490000000159,
          "durationTicks": 96,
          "midi": 52,
          "name": "E3",
          "ticks": 86592,
          "time": 166.01219799999998,
          "velocity": 0.7874015748031497
        },
        {
          "duration": 0.1840490000000159,
          "durationTicks": 96,
          "midi": 55,
          "name": "G3",
          "ticks": 86592,
          "time": 166.01219799999998,
          "velocity": 0.6929133858267716
        },
        {
          "duration": 0.18404899999998747,
          "durationTicks": 96,
          "midi": 55,
          "name": "G3",
          "ticks": 86688,
          "time": 166.196247,
          "velocity": 0.6220472440944882
        },
        {
          "duration": 0.18404899999998747,
          "durationTicks": 96,
          "midi": 64,
          "name": "E4",
          "ticks": 86688,
          "time": 166.196247,
          "velocity": 0.905511811023622
        },
        {
          "duration": 0.18404899999998747,
          "durationTicks": 96,
          "midi": 48,
          "name": "C3",
          "ticks": 86688,
          "time": 166.196247,
          "velocity": 0.6929133858267716
        },
        {
          "duration": 0.1840490000000159,
          "durationTicks": 96,
          "midi": 62,
          "name": "D4",
          "ticks": 86784,
          "time": 166.380296,
          "velocity": 0.7874015748031497
        },
        {
          "duration": 0.1840490000000159,
          "durationTicks": 96,
          "midi": 47,
          "name": "B2",
          "ticks": 86784,
          "time": 166.380296,
          "velocity": 0.6929133858267716
        },
        {
          "duration": 0.18596617708334406,
          "durationTicks": 97,
          "midi": 55,
          "name": "G3",
          "ticks": 86784,
          "time": 166.380296,
          "velocity": 0.6929133858267716
        },
        {
          "duration": 0.1840490000000159,
          "durationTicks": 96,
          "midi": 43,
          "name": "G2",
          "ticks": 86784,
          "time": 166.380296,
          "velocity": 0.7874015748031497
        },
        {
          "duration": 0.18404899999998747,
          "durationTicks": 96,
          "midi": 47,
          "name": "B2",
          "ticks": 86880,
          "time": 166.564345,
          "velocity": 0.6929133858267716
        },
        {
          "duration": 0.18404899999998747,
          "durationTicks": 96,
          "midi": 62,
          "name": "D4",
          "ticks": 86880,
          "time": 166.564345,
          "velocity": 0.6220472440944882
        },
        {
          "duration": 0.18404899999998747,
          "durationTicks": 96,
          "midi": 55,
          "name": "G3",
          "ticks": 86880,
          "time": 166.564345,
          "velocity": 0.6929133858267716
        },
        {
          "duration": 0.18404899999998747,
          "durationTicks": 96,
          "midi": 43,
          "name": "G2",
          "ticks": 86880,
          "time": 166.564345,
          "velocity": 0.6929133858267716
        },
        {
          "duration": 0.18404899999998747,
          "durationTicks": 96,
          "midi": 67,
          "name": "G4",
          "ticks": 86976,
          "time": 166.748394,
          "velocity": 0.905511811023622
        },
        {
          "duration": 0.18404899999998747,
          "durationTicks": 96,
          "midi": 47,
          "name": "B2",
          "ticks": 86976,
          "time": 166.748394,
          "velocity": 0.905511811023622
        },
        {
          "duration": 0.18596617708331564,
          "durationTicks": 97,
          "midi": 55,
          "name": "G3",
          "ticks": 86976,
          "time": 166.748394,
          "velocity": 0.905511811023622
        },
        {
          "duration": 0.18404899999998747,
          "durationTicks": 96,
          "midi": 62,
          "name": "D4",
          "ticks": 86976,
          "time": 166.748394,
          "velocity": 0.905511811023622
        },
        {
          "duration": 0.18404899999998747,
          "durationTicks": 96,
          "midi": 50,
          "name": "D3",
          "ticks": 86976,
          "time": 166.748394,
          "velocity": 0.905511811023622
        },
        {
          "duration": 0.1840490000000159,
          "durationTicks": 96,
          "midi": 47,
          "name": "B2",
          "ticks": 87072,
          "time": 166.93244299999998,
          "velocity": 1
        },
        {
          "duration": 0.1840490000000159,
          "durationTicks": 96,
          "midi": 62,
          "name": "D4",
          "ticks": 87072,
          "time": 166.93244299999998,
          "velocity": 0.905511811023622
        },
        {
          "duration": 0.1840490000000159,
          "durationTicks": 96,
          "midi": 50,
          "name": "D3",
          "ticks": 87072,
          "time": 166.93244299999998,
          "velocity": 0.7874015748031497
        },
        {
          "duration": 0.1840490000000159,
          "durationTicks": 96,
          "midi": 55,
          "name": "G3",
          "ticks": 87072,
          "time": 166.93244299999998,
          "velocity": 0.6220472440944882
        },
        {
          "duration": 0.18404899999998747,
          "durationTicks": 96,
          "midi": 55,
          "name": "G3",
          "ticks": 87168,
          "time": 167.116492,
          "velocity": 0.6220472440944882
        },
        {
          "duration": 0.18404899999998747,
          "durationTicks": 96,
          "midi": 60,
          "name": "C4",
          "ticks": 87168,
          "time": 167.116492,
          "velocity": 0.7874015748031497
        },
        {
          "duration": 0.18596617708331564,
          "durationTicks": 97,
          "midi": 48,
          "name": "C3",
          "ticks": 87168,
          "time": 167.116492,
          "velocity": 0.7874015748031497
        },
        {
          "duration": 0.18404899999998747,
          "durationTicks": 96,
          "midi": 64,
          "name": "E4",
          "ticks": 87168,
          "time": 167.116492,
          "velocity": 0.7874015748031497
        },
        {
          "duration": 0.1840490000000159,
          "durationTicks": 96,
          "midi": 55,
          "name": "G3",
          "ticks": 87264,
          "time": 167.30054099999998,
          "velocity": 0.5669291338582677
        },
        {
          "duration": 0.1840490000000159,
          "durationTicks": 96,
          "midi": 60,
          "name": "C4",
          "ticks": 87264,
          "time": 167.30054099999998,
          "velocity": 0.7874015748031497
        },
        {
          "duration": 0.1840490000000159,
          "durationTicks": 96,
          "midi": 48,
          "name": "C3",
          "ticks": 87264,
          "time": 167.30054099999998,
          "velocity": 0.6929133858267716
        },
        {
          "duration": 0.1840490000000159,
          "durationTicks": 96,
          "midi": 64,
          "name": "E4",
          "ticks": 87264,
          "time": 167.30054099999998,
          "velocity": 0.7874015748031497
        },
        {
          "duration": 0.18404899999998747,
          "durationTicks": 96,
          "midi": 60,
          "name": "C4",
          "ticks": 87360,
          "time": 167.48459,
          "velocity": 0.7874015748031497
        },
        {
          "duration": 0.18404899999998747,
          "durationTicks": 96,
          "midi": 64,
          "name": "E4",
          "ticks": 87360,
          "time": 167.48459,
          "velocity": 0.7874015748031497
        },
        {
          "duration": 0.18596617708331564,
          "durationTicks": 97,
          "midi": 55,
          "name": "G3",
          "ticks": 87360,
          "time": 167.48459,
          "velocity": 0.6929133858267716
        },
        {
          "duration": 0.18404899999998747,
          "durationTicks": 96,
          "midi": 52,
          "name": "E3",
          "ticks": 87360,
          "time": 167.48459,
          "velocity": 0.905511811023622
        },
        {
          "duration": 0.1840490000000159,
          "durationTicks": 96,
          "midi": 60,
          "name": "C4",
          "ticks": 87456,
          "time": 167.66863899999998,
          "velocity": 0.905511811023622
        },
        {
          "duration": 0.1840490000000159,
          "durationTicks": 96,
          "midi": 55,
          "name": "G3",
          "ticks": 87456,
          "time": 167.66863899999998,
          "velocity": 0.6929133858267716
        },
        {
          "duration": 0.18404899999998747,
          "durationTicks": 96,
          "midi": 55,
          "name": "G3",
          "ticks": 87552,
          "time": 167.852688,
          "velocity": 0.6220472440944882
        },
        {
          "duration": 0.18404899999998747,
          "durationTicks": 96,
          "midi": 47,
          "name": "B2",
          "ticks": 87552,
          "time": 167.852688,
          "velocity": 0.905511811023622
        },
        {
          "duration": 0.18404899999998747,
          "durationTicks": 96,
          "midi": 43,
          "name": "G2",
          "ticks": 87552,
          "time": 167.852688,
          "velocity": 0.6929133858267716
        },
        {
          "duration": 0.18404899999998747,
          "durationTicks": 96,
          "midi": 62,
          "name": "D4",
          "ticks": 87552,
          "time": 167.852688,
          "velocity": 0.6929133858267716
        },
        {
          "duration": 0.1840490000000159,
          "durationTicks": 96,
          "midi": 62,
          "name": "D4",
          "ticks": 87648,
          "time": 168.036737,
          "velocity": 0.7874015748031497
        },
        {
          "duration": 0.1840490000000159,
          "durationTicks": 96,
          "midi": 47,
          "name": "B2",
          "ticks": 87648,
          "time": 168.036737,
          "velocity": 0.905511811023622
        },
        {
          "duration": 0.1840490000000159,
          "durationTicks": 96,
          "midi": 55,
          "name": "G3",
          "ticks": 87648,
          "time": 168.036737,
          "velocity": 0.6220472440944882
        },
        {
          "duration": 0.18404899999998747,
          "durationTicks": 96,
          "midi": 55,
          "name": "G3",
          "ticks": 87744,
          "time": 168.220786,
          "velocity": 0.7874015748031497
        },
        {
          "duration": 0.18404899999998747,
          "durationTicks": 96,
          "midi": 43,
          "name": "G2",
          "ticks": 87744,
          "time": 168.220786,
          "velocity": 1
        },
        {
          "duration": 0.18404899999998747,
          "durationTicks": 96,
          "midi": 62,
          "name": "D4",
          "ticks": 87744,
          "time": 168.220786,
          "velocity": 0.905511811023622
        },
        {
          "duration": 0.18404899999998747,
          "durationTicks": 96,
          "midi": 67,
          "name": "G4",
          "ticks": 87744,
          "time": 168.220786,
          "velocity": 0.905511811023622
        },
        {
          "duration": 0.18404899999998747,
          "durationTicks": 96,
          "midi": 55,
          "name": "G3",
          "ticks": 87840,
          "time": 168.404835,
          "velocity": 0.6929133858267716
        },
        {
          "duration": 0.18404899999998747,
          "durationTicks": 96,
          "midi": 47,
          "name": "B2",
          "ticks": 87840,
          "time": 168.404835,
          "velocity": 0.6929133858267716
        },
        {
          "duration": 0.18404899999998747,
          "durationTicks": 96,
          "midi": 62,
          "name": "D4",
          "ticks": 87840,
          "time": 168.404835,
          "velocity": 0.6929133858267716
        },
        {
          "duration": 0.1840490000000159,
          "durationTicks": 96,
          "midi": 55,
          "name": "G3",
          "ticks": 87936,
          "time": 168.58888399999998,
          "velocity": 0.6220472440944882
        },
        {
          "duration": 0.1840490000000159,
          "durationTicks": 96,
          "midi": 60,
          "name": "C4",
          "ticks": 87936,
          "time": 168.58888399999998,
          "velocity": 0.7874015748031497
        },
        {
          "duration": 0.1840490000000159,
          "durationTicks": 96,
          "midi": 48,
          "name": "C3",
          "ticks": 87936,
          "time": 168.58888399999998,
          "velocity": 0.905511811023622
        },
        {
          "duration": 0.1840490000000159,
          "durationTicks": 96,
          "midi": 64,
          "name": "E4",
          "ticks": 87936,
          "time": 168.58888399999998,
          "velocity": 0.6929133858267716
        },
        {
          "duration": 0.18404899999998747,
          "durationTicks": 96,
          "midi": 60,
          "name": "C4",
          "ticks": 88032,
          "time": 168.772933,
          "velocity": 0.6220472440944882
        },
        {
          "duration": 0.18404899999998747,
          "durationTicks": 96,
          "midi": 64,
          "name": "E4",
          "ticks": 88032,
          "time": 168.772933,
          "velocity": 0.6929133858267716
        },
        {
          "duration": 0.18404899999998747,
          "durationTicks": 96,
          "midi": 55,
          "name": "G3",
          "ticks": 88032,
          "time": 168.772933,
          "velocity": 0.6220472440944882
        },
        {
          "duration": 0.18404899999998747,
          "durationTicks": 96,
          "midi": 48,
          "name": "C3",
          "ticks": 88032,
          "time": 168.772933,
          "velocity": 0.6929133858267716
        },
        {
          "duration": 0.1840490000000159,
          "durationTicks": 96,
          "midi": 52,
          "name": "E3",
          "ticks": 88128,
          "time": 168.95698199999998,
          "velocity": 0.7874015748031497
        },
        {
          "duration": 0.1840490000000159,
          "durationTicks": 96,
          "midi": 60,
          "name": "C4",
          "ticks": 88128,
          "time": 168.95698199999998,
          "velocity": 0.905511811023622
        },
        {
          "duration": 0.1840490000000159,
          "durationTicks": 96,
          "midi": 55,
          "name": "G3",
          "ticks": 88128,
          "time": 168.95698199999998,
          "velocity": 0.6929133858267716
        },
        {
          "duration": 0.18404899999998747,
          "durationTicks": 96,
          "midi": 55,
          "name": "G3",
          "ticks": 88224,
          "time": 169.141031,
          "velocity": 0.6220472440944882
        },
        {
          "duration": 0.18404899999998747,
          "durationTicks": 96,
          "midi": 48,
          "name": "C3",
          "ticks": 88224,
          "time": 169.141031,
          "velocity": 0.6929133858267716
        },
        {
          "duration": 0.18404899999998747,
          "durationTicks": 96,
          "midi": 64,
          "name": "E4",
          "ticks": 88224,
          "time": 169.141031,
          "velocity": 0.905511811023622
        },
        {
          "duration": 0.1840490000000159,
          "durationTicks": 96,
          "midi": 43,
          "name": "G2",
          "ticks": 88320,
          "time": 169.32507999999999,
          "velocity": 0.7874015748031497
        },
        {
          "duration": 0.1840490000000159,
          "durationTicks": 96,
          "midi": 55,
          "name": "G3",
          "ticks": 88320,
          "time": 169.32507999999999,
          "velocity": 0.6929133858267716
        },
        {
          "duration": 0.1840490000000159,
          "durationTicks": 96,
          "midi": 47,
          "name": "B2",
          "ticks": 88320,
          "time": 169.32507999999999,
          "velocity": 0.6929133858267716
        },
        {
          "duration": 0.18596617708334406,
          "durationTicks": 97,
          "midi": 62,
          "name": "D4",
          "ticks": 88320,
          "time": 169.32507999999999,
          "velocity": 0.7874015748031497
        },
        {
          "duration": 0.18404899999998747,
          "durationTicks": 96,
          "midi": 43,
          "name": "G2",
          "ticks": 88416,
          "time": 169.509129,
          "velocity": 0.6929133858267716
        },
        {
          "duration": 0.18404899999998747,
          "durationTicks": 96,
          "midi": 55,
          "name": "G3",
          "ticks": 88416,
          "time": 169.509129,
          "velocity": 0.6929133858267716
        },
        {
          "duration": 0.18404899999998747,
          "durationTicks": 96,
          "midi": 47,
          "name": "B2",
          "ticks": 88416,
          "time": 169.509129,
          "velocity": 0.6929133858267716
        },
        {
          "duration": 0.18404899999998747,
          "durationTicks": 96,
          "midi": 62,
          "name": "D4",
          "ticks": 88416,
          "time": 169.509129,
          "velocity": 0.6220472440944882
        },
        {
          "duration": 0.1840490000000159,
          "durationTicks": 96,
          "midi": 55,
          "name": "G3",
          "ticks": 88512,
          "time": 169.693178,
          "velocity": 0.905511811023622
        },
        {
          "duration": 0.1840490000000159,
          "durationTicks": 96,
          "midi": 67,
          "name": "G4",
          "ticks": 88512,
          "time": 169.693178,
          "velocity": 0.905511811023622
        },
        {
          "duration": 0.1840490000000159,
          "durationTicks": 96,
          "midi": 62,
          "name": "D4",
          "ticks": 88512,
          "time": 169.693178,
          "velocity": 0.905511811023622
        },
        {
          "duration": 0.1840490000000159,
          "durationTicks": 96,
          "midi": 47,
          "name": "B2",
          "ticks": 88512,
          "time": 169.693178,
          "velocity": 0.905511811023622
        },
        {
          "duration": 0.1840490000000159,
          "durationTicks": 96,
          "midi": 50,
          "name": "D3",
          "ticks": 88512,
          "time": 169.693178,
          "velocity": 0.905511811023622
        },
        {
          "duration": 0.18404899999998747,
          "durationTicks": 96,
          "midi": 47,
          "name": "B2",
          "ticks": 88608,
          "time": 169.877227,
          "velocity": 1
        },
        {
          "duration": 0.18404899999998747,
          "durationTicks": 96,
          "midi": 62,
          "name": "D4",
          "ticks": 88608,
          "time": 169.877227,
          "velocity": 0.905511811023622
        },
        {
          "duration": 0.18404899999998747,
          "durationTicks": 96,
          "midi": 55,
          "name": "G3",
          "ticks": 88608,
          "time": 169.877227,
          "velocity": 0.6220472440944882
        },
        {
          "duration": 0.18404899999998747,
          "durationTicks": 96,
          "midi": 50,
          "name": "D3",
          "ticks": 88608,
          "time": 169.877227,
          "velocity": 0.7874015748031497
        },
        {
          "duration": 0.18596617708331564,
          "durationTicks": 97,
          "midi": 60,
          "name": "C4",
          "ticks": 88704,
          "time": 170.061276,
          "velocity": 0.7874015748031497
        },
        {
          "duration": 0.18404899999998747,
          "durationTicks": 96,
          "midi": 48,
          "name": "C3",
          "ticks": 88704,
          "time": 170.061276,
          "velocity": 0.7874015748031497
        },
        {
          "duration": 0.18404899999998747,
          "durationTicks": 96,
          "midi": 64,
          "name": "E4",
          "ticks": 88704,
          "time": 170.061276,
          "velocity": 0.7874015748031497
        },
        {
          "duration": 0.18404899999998747,
          "durationTicks": 96,
          "midi": 55,
          "name": "G3",
          "ticks": 88704,
          "time": 170.061276,
          "velocity": 0.6220472440944882
        },
        {
          "duration": 0.1840490000000159,
          "durationTicks": 96,
          "midi": 48,
          "name": "C3",
          "ticks": 88800,
          "time": 170.24532499999998,
          "velocity": 0.6929133858267716
        },
        {
          "duration": 0.1840490000000159,
          "durationTicks": 96,
          "midi": 55,
          "name": "G3",
          "ticks": 88800,
          "time": 170.24532499999998,
          "velocity": 0.5669291338582677
        },
        {
          "duration": 0.18596617708334406,
          "durationTicks": 97,
          "midi": 64,
          "name": "E4",
          "ticks": 88800,
          "time": 170.24532499999998,
          "velocity": 0.7874015748031497
        },
        {
          "duration": 0.1840490000000159,
          "durationTicks": 96,
          "midi": 60,
          "name": "C4",
          "ticks": 88800,
          "time": 170.24532499999998,
          "velocity": 0.7874015748031497
        },
        {
          "duration": 0.18404899999998747,
          "durationTicks": 96,
          "midi": 60,
          "name": "C4",
          "ticks": 88896,
          "time": 170.429374,
          "velocity": 0.7874015748031497
        },
        {
          "duration": 0.18596617708331564,
          "durationTicks": 97,
          "midi": 55,
          "name": "G3",
          "ticks": 88896,
          "time": 170.429374,
          "velocity": 0.6929133858267716
        },
        {
          "duration": 0.18404899999998747,
          "durationTicks": 96,
          "midi": 52,
          "name": "E3",
          "ticks": 88896,
          "time": 170.429374,
          "velocity": 0.905511811023622
        },
        {
          "duration": 0.18404899999998747,
          "durationTicks": 96,
          "midi": 64,
          "name": "E4",
          "ticks": 88896,
          "time": 170.429374,
          "velocity": 0.7874015748031497
        },
        {
          "duration": 0.1840490000000159,
          "durationTicks": 96,
          "midi": 55,
          "name": "G3",
          "ticks": 88992,
          "time": 170.61342299999998,
          "velocity": 0.6929133858267716
        },
        {
          "duration": 0.1840490000000159,
          "durationTicks": 96,
          "midi": 60,
          "name": "C4",
          "ticks": 88992,
          "time": 170.61342299999998,
          "velocity": 0.905511811023622
        },
        {
          "duration": 0.18404899999998747,
          "durationTicks": 96,
          "midi": 43,
          "name": "G2",
          "ticks": 89088,
          "time": 170.797472,
          "velocity": 0.6929133858267716
        },
        {
          "duration": 0.18404899999998747,
          "durationTicks": 96,
          "midi": 62,
          "name": "D4",
          "ticks": 89088,
          "time": 170.797472,
          "velocity": 0.6929133858267716
        },
        {
          "duration": 0.18404899999998747,
          "durationTicks": 96,
          "midi": 47,
          "name": "B2",
          "ticks": 89088,
          "time": 170.797472,
          "velocity": 0.905511811023622
        },
        {
          "duration": 0.18404899999998747,
          "durationTicks": 96,
          "midi": 55,
          "name": "G3",
          "ticks": 89088,
          "time": 170.797472,
          "velocity": 0.6220472440944882
        },
        {
          "duration": 0.1840490000000159,
          "durationTicks": 96,
          "midi": 55,
          "name": "G3",
          "ticks": 89184,
          "time": 170.981521,
          "velocity": 0.6220472440944882
        },
        {
          "duration": 0.1840490000000159,
          "durationTicks": 96,
          "midi": 47,
          "name": "B2",
          "ticks": 89184,
          "time": 170.981521,
          "velocity": 0.905511811023622
        },
        {
          "duration": 0.1840490000000159,
          "durationTicks": 96,
          "midi": 62,
          "name": "D4",
          "ticks": 89184,
          "time": 170.981521,
          "velocity": 0.7874015748031497
        },
        {
          "duration": 0.18404899999998747,
          "durationTicks": 96,
          "midi": 62,
          "name": "D4",
          "ticks": 89280,
          "time": 171.16557,
          "velocity": 0.905511811023622
        },
        {
          "duration": 0.18404899999998747,
          "durationTicks": 96,
          "midi": 67,
          "name": "G4",
          "ticks": 89280,
          "time": 171.16557,
          "velocity": 0.905511811023622
        },
        {
          "duration": 0.18404899999998747,
          "durationTicks": 96,
          "midi": 43,
          "name": "G2",
          "ticks": 89280,
          "time": 171.16557,
          "velocity": 1
        },
        {
          "duration": 0.18404899999998747,
          "durationTicks": 96,
          "midi": 55,
          "name": "G3",
          "ticks": 89280,
          "time": 171.16557,
          "velocity": 0.7874015748031497
        },
        {
          "duration": 0.18404899999998747,
          "durationTicks": 96,
          "midi": 62,
          "name": "D4",
          "ticks": 89376,
          "time": 171.349619,
          "velocity": 0.6929133858267716
        },
        {
          "duration": 0.18404899999998747,
          "durationTicks": 96,
          "midi": 55,
          "name": "G3",
          "ticks": 89376,
          "time": 171.349619,
          "velocity": 0.6929133858267716
        },
        {
          "duration": 0.18404899999998747,
          "durationTicks": 96,
          "midi": 47,
          "name": "B2",
          "ticks": 89376,
          "time": 171.349619,
          "velocity": 0.6929133858267716
        },
        {
          "duration": 0.1840490000000159,
          "durationTicks": 96,
          "midi": 60,
          "name": "C4",
          "ticks": 89472,
          "time": 171.53366799999998,
          "velocity": 0.7874015748031497
        },
        {
          "duration": 0.1840490000000159,
          "durationTicks": 96,
          "midi": 48,
          "name": "C3",
          "ticks": 89472,
          "time": 171.53366799999998,
          "velocity": 0.905511811023622
        },
        {
          "duration": 0.1840490000000159,
          "durationTicks": 96,
          "midi": 55,
          "name": "G3",
          "ticks": 89472,
          "time": 171.53366799999998,
          "velocity": 0.6220472440944882
        },
        {
          "duration": 0.1840490000000159,
          "durationTicks": 96,
          "midi": 64,
          "name": "E4",
          "ticks": 89472,
          "time": 171.53366799999998,
          "velocity": 0.6929133858267716
        },
        {
          "duration": 0.18404899999998747,
          "durationTicks": 96,
          "midi": 64,
          "name": "E4",
          "ticks": 89568,
          "time": 171.717717,
          "velocity": 0.6929133858267716
        },
        {
          "duration": 0.18596617708331564,
          "durationTicks": 97,
          "midi": 55,
          "name": "G3",
          "ticks": 89568,
          "time": 171.717717,
          "velocity": 0.6220472440944882
        },
        {
          "duration": 0.18404899999998747,
          "durationTicks": 96,
          "midi": 48,
          "name": "C3",
          "ticks": 89568,
          "time": 171.717717,
          "velocity": 0.6929133858267716
        },
        {
          "duration": 0.18596617708331564,
          "durationTicks": 97,
          "midi": 60,
          "name": "C4",
          "ticks": 89568,
          "time": 171.717717,
          "velocity": 0.6220472440944882
        },
        {
          "duration": 0.1840490000000159,
          "durationTicks": 96,
          "midi": 52,
          "name": "E3",
          "ticks": 89664,
          "time": 171.90176599999998,
          "velocity": 0.7874015748031497
        },
        {
          "duration": 0.1840490000000159,
          "durationTicks": 96,
          "midi": 60,
          "name": "C4",
          "ticks": 89664,
          "time": 171.90176599999998,
          "velocity": 0.905511811023622
        },
        {
          "duration": 0.18596617708334406,
          "durationTicks": 97,
          "midi": 55,
          "name": "G3",
          "ticks": 89664,
          "time": 171.90176599999998,
          "velocity": 0.6929133858267716
        },
        {
          "duration": 0.18404899999998747,
          "durationTicks": 96,
          "midi": 48,
          "name": "C3",
          "ticks": 89760,
          "time": 172.085815,
          "velocity": 0.6929133858267716
        },
        {
          "duration": 0.18404899999998747,
          "durationTicks": 96,
          "midi": 55,
          "name": "G3",
          "ticks": 89760,
          "time": 172.085815,
          "velocity": 0.6220472440944882
        },
        {
          "duration": 0.18404899999998747,
          "durationTicks": 96,
          "midi": 64,
          "name": "E4",
          "ticks": 89760,
          "time": 172.085815,
          "velocity": 0.905511811023622
        },
        {
          "duration": 0.1840490000000159,
          "durationTicks": 96,
          "midi": 55,
          "name": "G3",
          "ticks": 89856,
          "time": 172.26986399999998,
          "velocity": 0.6929133858267716
        },
        {
          "duration": 0.1840490000000159,
          "durationTicks": 96,
          "midi": 47,
          "name": "B2",
          "ticks": 89856,
          "time": 172.26986399999998,
          "velocity": 0.6929133858267716
        },
        {
          "duration": 0.1840490000000159,
          "durationTicks": 96,
          "midi": 43,
          "name": "G2",
          "ticks": 89856,
          "time": 172.26986399999998,
          "velocity": 0.7874015748031497
        },
        {
          "duration": 0.1840490000000159,
          "durationTicks": 96,
          "midi": 62,
          "name": "D4",
          "ticks": 89856,
          "time": 172.26986399999998,
          "velocity": 0.7874015748031497
        },
        {
          "duration": 0.18404899999998747,
          "durationTicks": 96,
          "midi": 43,
          "name": "G2",
          "ticks": 89952,
          "time": 172.453913,
          "velocity": 0.6929133858267716
        },
        {
          "duration": 0.18596617708331564,
          "durationTicks": 97,
          "midi": 47,
          "name": "B2",
          "ticks": 89952,
          "time": 172.453913,
          "velocity": 0.6929133858267716
        },
        {
          "duration": 0.18404899999998747,
          "durationTicks": 96,
          "midi": 55,
          "name": "G3",
          "ticks": 89952,
          "time": 172.453913,
          "velocity": 0.6929133858267716
        },
        {
          "duration": 0.18404899999998747,
          "durationTicks": 96,
          "midi": 62,
          "name": "D4",
          "ticks": 89952,
          "time": 172.453913,
          "velocity": 0.6220472440944882
        },
        {
          "duration": 0.18596617708331564,
          "durationTicks": 97,
          "midi": 50,
          "name": "D3",
          "ticks": 90048,
          "time": 172.637962,
          "velocity": 0.905511811023622
        },
        {
          "duration": 0.18596617708331564,
          "durationTicks": 97,
          "midi": 62,
          "name": "D4",
          "ticks": 90048,
          "time": 172.637962,
          "velocity": 0.905511811023622
        },
        {
          "duration": 0.1840490000000159,
          "durationTicks": 96,
          "midi": 55,
          "name": "G3",
          "ticks": 90048,
          "time": 172.637962,
          "velocity": 0.905511811023622
        },
        {
          "duration": 0.1840490000000159,
          "durationTicks": 96,
          "midi": 47,
          "name": "B2",
          "ticks": 90048,
          "time": 172.637962,
          "velocity": 0.905511811023622
        },
        {
          "duration": 0.1840490000000159,
          "durationTicks": 96,
          "midi": 67,
          "name": "G4",
          "ticks": 90048,
          "time": 172.637962,
          "velocity": 0.905511811023622
        },
        {
          "duration": 0.18404899999998747,
          "durationTicks": 96,
          "midi": 47,
          "name": "B2",
          "ticks": 90144,
          "time": 172.822011,
          "velocity": 1
        },
        {
          "duration": 0.18404899999998747,
          "durationTicks": 96,
          "midi": 55,
          "name": "G3",
          "ticks": 90144,
          "time": 172.822011,
          "velocity": 0.6220472440944882
        },
        {
          "duration": 0.18404899999998747,
          "durationTicks": 96,
          "midi": 50,
          "name": "D3",
          "ticks": 90144,
          "time": 172.822011,
          "velocity": 0.7874015748031497
        },
        {
          "duration": 0.18404899999998747,
          "durationTicks": 96,
          "midi": 62,
          "name": "D4",
          "ticks": 90144,
          "time": 172.822011,
          "velocity": 0.905511811023622
        },
        {
          "duration": 0.18404899999998747,
          "durationTicks": 96,
          "midi": 64,
          "name": "E4",
          "ticks": 90240,
          "time": 173.00606,
          "velocity": 0.7874015748031497
        },
        {
          "duration": 0.18404899999998747,
          "durationTicks": 96,
          "midi": 60,
          "name": "C4",
          "ticks": 90240,
          "time": 173.00606,
          "velocity": 0.7874015748031497
        },
        {
          "duration": 0.18404899999998747,
          "durationTicks": 96,
          "midi": 48,
          "name": "C3",
          "ticks": 90240,
          "time": 173.00606,
          "velocity": 0.7874015748031497
        },
        {
          "duration": 0.18404899999998747,
          "durationTicks": 96,
          "midi": 55,
          "name": "G3",
          "ticks": 90240,
          "time": 173.00606,
          "velocity": 0.6220472440944882
        },
        {
          "duration": 0.1840490000000159,
          "durationTicks": 96,
          "midi": 64,
          "name": "E4",
          "ticks": 90336,
          "time": 173.19010899999998,
          "velocity": 0.7874015748031497
        },
        {
          "duration": 0.1840490000000159,
          "durationTicks": 96,
          "midi": 48,
          "name": "C3",
          "ticks": 90336,
          "time": 173.19010899999998,
          "velocity": 0.6929133858267716
        },
        {
          "duration": 0.1840490000000159,
          "durationTicks": 96,
          "midi": 60,
          "name": "C4",
          "ticks": 90336,
          "time": 173.19010899999998,
          "velocity": 0.7874015748031497
        },
        {
          "duration": 0.1840490000000159,
          "durationTicks": 96,
          "midi": 55,
          "name": "G3",
          "ticks": 90336,
          "time": 173.19010899999998,
          "velocity": 0.5669291338582677
        },
        {
          "duration": 0.18404899999998747,
          "durationTicks": 96,
          "midi": 55,
          "name": "G3",
          "ticks": 90432,
          "time": 173.374158,
          "velocity": 0.6929133858267716
        },
        {
          "duration": 0.18404899999998747,
          "durationTicks": 96,
          "midi": 64,
          "name": "E4",
          "ticks": 90432,
          "time": 173.374158,
          "velocity": 0.7874015748031497
        },
        {
          "duration": 0.18404899999998747,
          "durationTicks": 96,
          "midi": 52,
          "name": "E3",
          "ticks": 90432,
          "time": 173.374158,
          "velocity": 0.905511811023622
        },
        {
          "duration": 0.18404899999998747,
          "durationTicks": 96,
          "midi": 60,
          "name": "C4",
          "ticks": 90432,
          "time": 173.374158,
          "velocity": 0.7874015748031497
        },
        {
          "duration": 0.1840490000000159,
          "durationTicks": 96,
          "midi": 55,
          "name": "G3",
          "ticks": 90528,
          "time": 173.55820699999998,
          "velocity": 0.6929133858267716
        },
        {
          "duration": 0.1840490000000159,
          "durationTicks": 96,
          "midi": 60,
          "name": "C4",
          "ticks": 90528,
          "time": 173.55820699999998,
          "velocity": 0.905511811023622
        },
        {
          "duration": 0.18404899999998747,
          "durationTicks": 96,
          "midi": 47,
          "name": "B2",
          "ticks": 90624,
          "time": 173.742256,
          "velocity": 0.905511811023622
        },
        {
          "duration": 0.18596617708331564,
          "durationTicks": 97,
          "midi": 55,
          "name": "G3",
          "ticks": 90624,
          "time": 173.742256,
          "velocity": 0.6220472440944882
        },
        {
          "duration": 0.18404899999998747,
          "durationTicks": 96,
          "midi": 62,
          "name": "D4",
          "ticks": 90624,
          "time": 173.742256,
          "velocity": 0.6929133858267716
        },
        {
          "duration": 0.18404899999998747,
          "durationTicks": 96,
          "midi": 43,
          "name": "G2",
          "ticks": 90624,
          "time": 173.742256,
          "velocity": 0.6929133858267716
        },
        {
          "duration": 0.1840490000000159,
          "durationTicks": 96,
          "midi": 47,
          "name": "B2",
          "ticks": 90720,
          "time": 173.92630499999999,
          "velocity": 0.905511811023622
        },
        {
          "duration": 0.1840490000000159,
          "durationTicks": 96,
          "midi": 62,
          "name": "D4",
          "ticks": 90720,
          "time": 173.92630499999999,
          "velocity": 0.7874015748031497
        },
        {
          "duration": 0.1840490000000159,
          "durationTicks": 96,
          "midi": 55,
          "name": "G3",
          "ticks": 90720,
          "time": 173.92630499999999,
          "velocity": 0.6220472440944882
        },
        {
          "duration": 0.18404899999998747,
          "durationTicks": 96,
          "midi": 62,
          "name": "D4",
          "ticks": 90816,
          "time": 174.110354,
          "velocity": 0.905511811023622
        },
        {
          "duration": 0.18404899999998747,
          "durationTicks": 96,
          "midi": 67,
          "name": "G4",
          "ticks": 90816,
          "time": 174.110354,
          "velocity": 0.905511811023622
        },
        {
          "duration": 0.18404899999998747,
          "durationTicks": 96,
          "midi": 43,
          "name": "G2",
          "ticks": 90816,
          "time": 174.110354,
          "velocity": 1
        },
        {
          "duration": 0.18404899999998747,
          "durationTicks": 96,
          "midi": 55,
          "name": "G3",
          "ticks": 90816,
          "time": 174.110354,
          "velocity": 0.7874015748031497
        },
        {
          "duration": 0.1840490000000159,
          "durationTicks": 96,
          "midi": 62,
          "name": "D4",
          "ticks": 90912,
          "time": 174.294403,
          "velocity": 0.6929133858267716
        },
        {
          "duration": 0.1840490000000159,
          "durationTicks": 96,
          "midi": 47,
          "name": "B2",
          "ticks": 90912,
          "time": 174.294403,
          "velocity": 0.6929133858267716
        },
        {
          "duration": 0.1840490000000159,
          "durationTicks": 96,
          "midi": 55,
          "name": "G3",
          "ticks": 90912,
          "time": 174.294403,
          "velocity": 0.6929133858267716
        },
        {
          "duration": 0.18404899999998747,
          "durationTicks": 96,
          "midi": 60,
          "name": "C4",
          "ticks": 91008,
          "time": 174.478452,
          "velocity": 0.7874015748031497
        },
        {
          "duration": 0.18404899999998747,
          "durationTicks": 96,
          "midi": 48,
          "name": "C3",
          "ticks": 91008,
          "time": 174.478452,
          "velocity": 0.905511811023622
        },
        {
          "duration": 0.18404899999998747,
          "durationTicks": 96,
          "midi": 64,
          "name": "E4",
          "ticks": 91008,
          "time": 174.478452,
          "velocity": 0.6929133858267716
        },
        {
          "duration": 0.18404899999998747,
          "durationTicks": 96,
          "midi": 55,
          "name": "G3",
          "ticks": 91008,
          "time": 174.478452,
          "velocity": 0.6220472440944882
        },
        {
          "duration": 0.18404899999998747,
          "durationTicks": 96,
          "midi": 55,
          "name": "G3",
          "ticks": 91104,
          "time": 174.662501,
          "velocity": 0.6220472440944882
        },
        {
          "duration": 0.18404899999998747,
          "durationTicks": 96,
          "midi": 60,
          "name": "C4",
          "ticks": 91104,
          "time": 174.662501,
          "velocity": 0.6220472440944882
        },
        {
          "duration": 0.18404899999998747,
          "durationTicks": 96,
          "midi": 64,
          "name": "E4",
          "ticks": 91104,
          "time": 174.662501,
          "velocity": 0.6929133858267716
        },
        {
          "duration": 0.18404899999998747,
          "durationTicks": 96,
          "midi": 48,
          "name": "C3",
          "ticks": 91104,
          "time": 174.662501,
          "velocity": 0.6929133858267716
        },
        {
          "duration": 0.1840490000000159,
          "durationTicks": 96,
          "midi": 55,
          "name": "G3",
          "ticks": 91200,
          "time": 174.84654999999998,
          "velocity": 0.6929133858267716
        },
        {
          "duration": 0.1840490000000159,
          "durationTicks": 96,
          "midi": 52,
          "name": "E3",
          "ticks": 91200,
          "time": 174.84654999999998,
          "velocity": 0.7874015748031497
        },
        {
          "duration": 0.1840490000000159,
          "durationTicks": 96,
          "midi": 60,
          "name": "C4",
          "ticks": 91200,
          "time": 174.84654999999998,
          "velocity": 0.905511811023622
        },
        {
          "duration": 0.09202450000000795,
          "durationTicks": 48,
          "midi": 55,
          "name": "G3",
          "ticks": 91296,
          "time": 175.030599,
          "velocity": 0.6220472440944882
        },
        {
          "duration": 0.09202450000000795,
          "durationTicks": 48,
          "midi": 64,
          "name": "E4",
          "ticks": 91296,
          "time": 175.030599,
          "velocity": 0.905511811023622
        },
        {
          "duration": 0.09202450000000795,
          "durationTicks": 48,
          "midi": 48,
          "name": "C3",
          "ticks": 91296,
          "time": 175.030599,
          "velocity": 0.6929133858267716
        },
        {
          "duration": 2.9447839999999985,
          "durationTicks": 1536,
          "midi": 47,
          "name": "B2",
          "ticks": 91392,
          "time": 175.21464799999998,
          "velocity": 1
        },
        {
          "duration": 0.09202450000000795,
          "durationTicks": 48,
          "midi": 67,
          "name": "G4",
          "ticks": 91392,
          "time": 175.21464799999998,
          "velocity": 1
        },
        {
          "duration": 0.09202450000000795,
          "durationTicks": 48,
          "midi": 55,
          "name": "G3",
          "ticks": 91392,
          "time": 175.21464799999998,
          "velocity": 1
        },
        {
          "duration": 0.09202450000000795,
          "durationTicks": 48,
          "midi": 62,
          "name": "D4",
          "ticks": 91392,
          "time": 175.21464799999998,
          "velocity": 1
        },
        {
          "duration": 2.9447839999999985,
          "durationTicks": 1536,
          "midi": 43,
          "name": "G2",
          "ticks": 91392,
          "time": 175.21464799999998,
          "velocity": 1
        }
      ]
    },
    {
      "channel": 0,
      "controlChanges": {
        "0": [
          {
            "number": 0,
            "ticks": 578,
            "time": 1.1081283541666667,
            "value": 0
          }
        ],
        "1": [
          {
            "number": 1,
            "ticks": 8,
            "time": 0.015337416666666666,
            "value": 0
          }
        ],
        "6": [
          {
            "number": 6,
            "ticks": 6,
            "time": 0.0115030625,
            "value": 0.09448818897637795
          }
        ],
        "7": [
          {
            "number": 7,
            "ticks": 0,
            "time": 0,
            "value": 0.7874015748031497
          }
        ],
        "10": [
          {
            "number": 10,
            "ticks": 0,
            "time": 0,
            "value": 0.5039370078740157
          }
        ],
        "11": [
          {
            "number": 11,
            "ticks": 7,
            "time": 0.013420239583333333,
            "value": 1
          },
          {
            "number": 11,
            "ticks": 10,
            "time": 0.019171770833333334,
            "value": 1
          }
        ],
        "32": [
          {
            "number": 32,
            "ticks": 578,
            "time": 1.1081283541666667,
            "value": 0
          }
        ],
        "38": [
          {
            "number": 38,
            "ticks": 6,
            "time": 0.0115030625,
            "value": 0
          }
        ],
        "64": [
          {
            "number": 64,
            "ticks": 3,
            "time": 0.00575153125,
            "value": 0
          }
        ],
        "67": [
          {
            "number": 67,
            "ticks": 2,
            "time": 0.0038343541666666665,
            "value": 0
          }
        ],
        "100": [
          {
            "number": 100,
            "ticks": 6,
            "time": 0.0115030625,
            "value": 0
          }
        ],
        "101": [
          {
            "number": 101,
            "ticks": 6,
            "time": 0.0115030625,
            "value": 0
          }
        ],
        "121": [
          {
            "number": 121,
            "ticks": 0,
            "time": 0,
            "value": 0
          }
        ]
      },
      "pitchBends": [],
      "instrument": {
        "family": "piano",
        "number": 0,
        "name": "acoustic grand piano"
      },
      "name": "tk2",
      "notes": [],
      "endOfTrackTicks": 91485
    },
    {
      "channel": 1,
      "controlChanges": {
        "7": [
          {
            "number": 7,
            "ticks": 580,
            "time": 1.1119627083333334,
            "value": 0.8661417322834646
          }
        ],
        "11": [
          {
            "number": 11,
            "ticks": 584,
            "time": 1.1196314166666665,
            "value": 1
          }
        ],
        "91": [
          {
            "number": 91,
            "ticks": 586,
            "time": 1.1234657708333333,
            "value": 0
          }
        ],
        "93": [
          {
            "number": 93,
            "ticks": 588,
            "time": 1.1273001249999999,
            "value": 0
          }
        ]
      },
      "pitchBends": [],
      "instrument": {
        "family": "bass",
        "number": 33,
        "name": "electric bass (finger)"
      },
      "name": "",
      "notes": [
        {
          "duration": 0.40069001041666663,
          "durationTicks": 209,
          "midi": 43,
          "name": "G2",
          "ticks": 3840,
          "time": 7.36196,
          "velocity": 0.8661417322834646
        },
        {
          "duration": 0.12461651041666677,
          "durationTicks": 65,
          "midi": 43,
          "name": "G2",
          "ticks": 4128,
          "time": 7.914107,
          "velocity": 0.8661417322834646
        },
        {
          "duration": 0.06710119791666713,
          "durationTicks": 35,
          "midi": 35,
          "name": "B1",
          "ticks": 4224,
          "time": 8.098156,
          "velocity": 0.8661417322834646
        },
        {
          "duration": 0.07668708333333285,
          "durationTicks": 40,
          "midi": 35,
          "name": "B1",
          "ticks": 4320,
          "time": 8.282205,
          "velocity": 0.8661417322834646
        },
        {
          "duration": 0.06326684375000013,
          "durationTicks": 33,
          "midi": 38,
          "name": "D2",
          "ticks": 4416,
          "time": 8.466254,
          "velocity": 0.8661417322834646
        },
        {
          "duration": 0.05751531249999964,
          "durationTicks": 30,
          "midi": 35,
          "name": "B1",
          "ticks": 4512,
          "time": 8.650303,
          "velocity": 0.8661417322834646
        },
        {
          "duration": 0.391104125,
          "durationTicks": 204,
          "midi": 38,
          "name": "D2",
          "ticks": 4608,
          "time": 8.834351999999999,
          "velocity": 0.8661417322834646
        },
        {
          "duration": 0.23964713541666782,
          "durationTicks": 125,
          "midi": 38,
          "name": "D2",
          "ticks": 4896,
          "time": 9.386498999999999,
          "velocity": 0.8661417322834646
        },
        {
          "duration": 0.09010732291666734,
          "durationTicks": 47,
          "midi": 38,
          "name": "D2",
          "ticks": 5088,
          "time": 9.754596999999999,
          "velocity": 0.8582677165354331
        },
        {
          "duration": 0.08819014583333207,
          "durationTicks": 46,
          "midi": 40,
          "name": "E2",
          "ticks": 5184,
          "time": 9.938646,
          "velocity": 0.8582677165354331
        },
        {
          "duration": 0.07093555208333235,
          "durationTicks": 37,
          "midi": 38,
          "name": "D2",
          "ticks": 5280,
          "time": 10.122695,
          "velocity": 0.8582677165354331
        },
        {
          "duration": 0.40644154166666624,
          "durationTicks": 212,
          "midi": 43,
          "name": "G2",
          "ticks": 5376,
          "time": 10.306744,
          "velocity": 0.8582677165354331
        },
        {
          "duration": 0.27799067708333247,
          "durationTicks": 145,
          "midi": 43,
          "name": "G2",
          "ticks": 5664,
          "time": 10.858891,
          "velocity": 0.8582677165354331
        },
        {
          "duration": 0.07860426041666635,
          "durationTicks": 41,
          "midi": 40,
          "name": "E2",
          "ticks": 5856,
          "time": 11.226989,
          "velocity": 0.8582677165354331
        },
        {
          "duration": 0.09010732291666734,
          "durationTicks": 47,
          "midi": 38,
          "name": "D2",
          "ticks": 5952,
          "time": 11.411038,
          "velocity": 0.8582677165354331
        },
        {
          "duration": 0.09969320833333306,
          "durationTicks": 52,
          "midi": 35,
          "name": "B1",
          "ticks": 6048,
          "time": 11.595087,
          "velocity": 0.8582677165354331
        },
        {
          "duration": 0.37193235416666504,
          "durationTicks": 194,
          "midi": 31,
          "name": "G1",
          "ticks": 6144,
          "time": 11.779136,
          "velocity": 0.8582677165354331
        },
        {
          "duration": 0.26840479166666675,
          "durationTicks": 140,
          "midi": 31,
          "name": "G1",
          "ticks": 6432,
          "time": 12.331282999999999,
          "velocity": 0.8582677165354331
        },
        {
          "duration": 0.07285272916666585,
          "durationTicks": 38,
          "midi": 35,
          "name": "B1",
          "ticks": 6624,
          "time": 12.699380999999999,
          "velocity": 0.8582677165354331
        },
        {
          "duration": 0.07093555208333413,
          "durationTicks": 37,
          "midi": 38,
          "name": "D2",
          "ticks": 6720,
          "time": 12.883429999999999,
          "velocity": 0.8582677165354331
        },
        {
          "duration": 0.05176378125000092,
          "durationTicks": 27,
          "midi": 40,
          "name": "E2",
          "ticks": 6816,
          "time": 13.067478999999999,
          "velocity": 0.8582677165354331
        },
        {
          "duration": 0.40069001041666574,
          "durationTicks": 209,
          "midi": 43,
          "name": "G2",
          "ticks": 6912,
          "time": 13.251527999999999,
          "velocity": 0.8582677165354331
        },
        {
          "duration": 0.124616510416665,
          "durationTicks": 65,
          "midi": 43,
          "name": "G2",
          "ticks": 7200,
          "time": 13.803675,
          "velocity": 0.8582677165354331
        },
        {
          "duration": 0.06710119791666536,
          "durationTicks": 35,
          "midi": 35,
          "name": "B1",
          "ticks": 7296,
          "time": 13.987724,
          "velocity": 0.8582677165354331
        },
        {
          "duration": 0.07668708333333285,
          "durationTicks": 40,
          "midi": 35,
          "name": "B1",
          "ticks": 7392,
          "time": 14.171773,
          "velocity": 0.8582677165354331
        },
        {
          "duration": 0.06326684375000013,
          "durationTicks": 33,
          "midi": 38,
          "name": "D2",
          "ticks": 7488,
          "time": 14.355822,
          "velocity": 0.8582677165354331
        },
        {
          "duration": 0.05751531249999964,
          "durationTicks": 30,
          "midi": 35,
          "name": "B1",
          "ticks": 7584,
          "time": 14.539871,
          "velocity": 0.8582677165354331
        },
        {
          "duration": 0.391104125,
          "durationTicks": 204,
          "midi": 38,
          "name": "D2",
          "ticks": 7680,
          "time": 14.72392,
          "velocity": 0.8582677165354331
        },
        {
          "duration": 0.23964713541666605,
          "durationTicks": 125,
          "midi": 38,
          "name": "D2",
          "ticks": 7968,
          "time": 15.276067,
          "velocity": 0.8582677165354331
        },
        {
          "duration": 0.09010732291666557,
          "durationTicks": 47,
          "midi": 38,
          "name": "D2",
          "ticks": 8160,
          "time": 15.644165,
          "velocity": 0.8582677165354331
        },
        {
          "duration": 0.08819014583333384,
          "durationTicks": 46,
          "midi": 40,
          "name": "E2",
          "ticks": 8256,
          "time": 15.828214,
          "velocity": 0.8582677165354331
        },
        {
          "duration": 0.07093555208333413,
          "durationTicks": 37,
          "midi": 38,
          "name": "D2",
          "ticks": 8352,
          "time": 16.012263,
          "velocity": 0.8582677165354331
        },
        {
          "duration": 0.40644154166666624,
          "durationTicks": 212,
          "midi": 43,
          "name": "G2",
          "ticks": 8448,
          "time": 16.196312,
          "velocity": 0.8582677165354331
        },
        {
          "duration": 0.27799067708333425,
          "durationTicks": 145,
          "midi": 43,
          "name": "G2",
          "ticks": 8736,
          "time": 16.748459,
          "velocity": 0.8582677165354331
        },
        {
          "duration": 0.07860426041666457,
          "durationTicks": 41,
          "midi": 40,
          "name": "E2",
          "ticks": 8928,
          "time": 17.116557,
          "velocity": 0.8582677165354331
        },
        {
          "duration": 0.09010732291666557,
          "durationTicks": 47,
          "midi": 38,
          "name": "D2",
          "ticks": 9024,
          "time": 17.300606,
          "velocity": 0.8582677165354331
        },
        {
          "duration": 0.09969320833333484,
          "durationTicks": 52,
          "midi": 35,
          "name": "B1",
          "ticks": 9120,
          "time": 17.484655,
          "velocity": 0.8582677165354331
        },
        {
          "duration": 0.3719323541666668,
          "durationTicks": 194,
          "midi": 31,
          "name": "G1",
          "ticks": 9216,
          "time": 17.668703999999998,
          "velocity": 0.8582677165354331
        },
        {
          "duration": 0.268404791666665,
          "durationTicks": 140,
          "midi": 31,
          "name": "G1",
          "ticks": 9504,
          "time": 18.220851,
          "velocity": 0.8582677165354331
        },
        {
          "duration": 0.07285272916666585,
          "durationTicks": 38,
          "midi": 35,
          "name": "B1",
          "ticks": 9696,
          "time": 18.588949,
          "velocity": 0.8582677165354331
        },
        {
          "duration": 0.07093555208333413,
          "durationTicks": 37,
          "midi": 38,
          "name": "D2",
          "ticks": 9792,
          "time": 18.772997999999998,
          "velocity": 0.8582677165354331
        },
        {
          "duration": 0.05176378124999914,
          "durationTicks": 27,
          "midi": 40,
          "name": "E2",
          "ticks": 9888,
          "time": 18.957047,
          "velocity": 0.8582677165354331
        },
        {
          "duration": 0.41411025000000024,
          "durationTicks": 216,
          "midi": 36,
          "name": "C2",
          "ticks": 9984,
          "time": 19.141095999999997,
          "velocity": 0.8818897637795275
        },
        {
          "duration": 0.17062876041666541,
          "durationTicks": 89,
          "midi": 38,
          "name": "D2",
          "ticks": 10272,
          "time": 19.693243,
          "velocity": 0.8661417322834646
        },
        {
          "duration": 0.12653368749999672,
          "durationTicks": 66,
          "midi": 40,
          "name": "E2",
          "ticks": 10368,
          "time": 19.877292,
          "velocity": 0.8661417322834646
        },
        {
          "duration": 0.19171770833333568,
          "durationTicks": 100,
          "midi": 43,
          "name": "G2",
          "ticks": 10464,
          "time": 20.061341,
          "velocity": 0.8661417322834646
        },
        {
          "duration": 0.11886497916666627,
          "durationTicks": 62,
          "midi": 40,
          "name": "E2",
          "ticks": 10656,
          "time": 20.429439,
          "velocity": 0.8661417322834646
        },
        {
          "duration": 0.3297544583333334,
          "durationTicks": 172,
          "midi": 43,
          "name": "G2",
          "ticks": 10752,
          "time": 20.613488,
          "velocity": 0.8661417322834646
        },
        {
          "duration": 0.18404899999999813,
          "durationTicks": 96,
          "midi": 43,
          "name": "G2",
          "ticks": 10944,
          "time": 20.981586,
          "velocity": 0.8661417322834646
        },
        {
          "duration": 0.18404900000000168,
          "durationTicks": 96,
          "midi": 45,
          "name": "A2",
          "ticks": 11040,
          "time": 21.165634999999998,
          "velocity": 0.8661417322834646
        },
        {
          "duration": 0.18404899999999813,
          "durationTicks": 96,
          "midi": 46,
          "name": "A#2",
          "ticks": 11136,
          "time": 21.349684,
          "velocity": 0.8661417322834646
        },
        {
          "duration": 0.18404900000000168,
          "durationTicks": 96,
          "midi": 45,
          "name": "A2",
          "ticks": 11232,
          "time": 21.533732999999998,
          "velocity": 0.8661417322834646
        },
        {
          "duration": 0.18404899999999813,
          "durationTicks": 96,
          "midi": 43,
          "name": "G2",
          "ticks": 11328,
          "time": 21.717782,
          "velocity": 0.8582677165354331
        },
        {
          "duration": 0.18404900000000168,
          "durationTicks": 96,
          "midi": 40,
          "name": "E2",
          "ticks": 11424,
          "time": 21.901830999999998,
          "velocity": 0.8582677165354331
        },
        {
          "duration": 0.4658740312499994,
          "durationTicks": 243,
          "midi": 36,
          "name": "C2",
          "ticks": 11520,
          "time": 22.08588,
          "velocity": 0.8582677165354331
        },
        {
          "duration": 0.15912569791666797,
          "durationTicks": 83,
          "midi": 38,
          "name": "D2",
          "ticks": 11808,
          "time": 22.638026999999997,
          "velocity": 0.8582677165354331
        },
        {
          "duration": 0.11694780208333455,
          "durationTicks": 61,
          "midi": 40,
          "name": "E2",
          "ticks": 11904,
          "time": 22.822076,
          "velocity": 0.8582677165354331
        },
        {
          "duration": 0.1763802916666677,
          "durationTicks": 92,
          "midi": 43,
          "name": "G2",
          "ticks": 12000,
          "time": 23.006124999999997,
          "velocity": 0.8582677165354331
        },
        {
          "duration": 0.10736191666666883,
          "durationTicks": 56,
          "midi": 40,
          "name": "E2",
          "ticks": 12192,
          "time": 23.374222999999997,
          "velocity": 0.8582677165354331
        },
        {
          "duration": 0.2933280937499987,
          "durationTicks": 153,
          "midi": 43,
          "name": "G2",
          "ticks": 12288,
          "time": 23.558272,
          "velocity": 0.8582677165354331
        },
        {
          "duration": 0.18404900000000168,
          "durationTicks": 96,
          "midi": 43,
          "name": "G2",
          "ticks": 12480,
          "time": 23.92637,
          "velocity": 0.8582677165354331
        },
        {
          "duration": 0.18404899999999813,
          "durationTicks": 96,
          "midi": 45,
          "name": "A2",
          "ticks": 12576,
          "time": 24.110419,
          "velocity": 0.8582677165354331
        },
        {
          "duration": 0.18404900000000168,
          "durationTicks": 96,
          "midi": 46,
          "name": "A#2",
          "ticks": 12672,
          "time": 24.294468,
          "velocity": 0.8582677165354331
        },
        {
          "duration": 0.18404899999999813,
          "durationTicks": 96,
          "midi": 45,
          "name": "A2",
          "ticks": 12768,
          "time": 24.478517,
          "velocity": 0.8582677165354331
        },
        {
          "duration": 0.18404900000000168,
          "durationTicks": 96,
          "midi": 43,
          "name": "G2",
          "ticks": 12864,
          "time": 24.662565999999998,
          "velocity": 0.8582677165354331
        },
        {
          "duration": 0.18404899999999813,
          "durationTicks": 96,
          "midi": 40,
          "name": "E2",
          "ticks": 12960,
          "time": 24.846615,
          "velocity": 0.8582677165354331
        },
        {
          "duration": 0.47354273958333337,
          "durationTicks": 247,
          "midi": 36,
          "name": "C2",
          "ticks": 13056,
          "time": 25.030663999999998,
          "velocity": 0.8582677165354331
        },
        {
          "duration": 0.1648772291666667,
          "durationTicks": 86,
          "midi": 38,
          "name": "D2",
          "ticks": 13344,
          "time": 25.582811,
          "velocity": 0.8582677165354331
        },
        {
          "duration": 0.11503062499999928,
          "durationTicks": 60,
          "midi": 40,
          "name": "E2",
          "ticks": 13440,
          "time": 25.766859999999998,
          "velocity": 0.8582677165354331
        },
        {
          "duration": 0.20130359374999784,
          "durationTicks": 105,
          "midi": 43,
          "name": "G2",
          "ticks": 13536,
          "time": 25.950909,
          "velocity": 0.8582677165354331
        },
        {
          "duration": 0.09969320833333128,
          "durationTicks": 52,
          "midi": 40,
          "name": "E2",
          "ticks": 13728,
          "time": 26.319007,
          "velocity": 0.8582677165354331
        },
        {
          "duration": 0.4907973333333331,
          "durationTicks": 256,
          "midi": 43,
          "name": "G2",
          "ticks": 13824,
          "time": 26.503055999999997,
          "velocity": 0.8582677165354331
        },
        {
          "duration": 0.11886497916666983,
          "durationTicks": 62,
          "midi": 43,
          "name": "G2",
          "ticks": 14112,
          "time": 27.055203,
          "velocity": 0.8582677165354331
        },
        {
          "duration": 0.15529134375000098,
          "durationTicks": 81,
          "midi": 43,
          "name": "G2",
          "ticks": 14304,
          "time": 27.423301,
          "velocity": 0.8582677165354331
        },
        {
          "duration": 0.12269933333332972,
          "durationTicks": 64,
          "midi": 35,
          "name": "B1",
          "ticks": 14400,
          "time": 27.60735,
          "velocity": 0.8582677165354331
        },
        {
          "duration": 0.11886497916666983,
          "durationTicks": 62,
          "midi": 36,
          "name": "C2",
          "ticks": 14496,
          "time": 27.791399,
          "velocity": 0.8582677165354331
        },
        {
          "duration": 0.381518239583329,
          "durationTicks": 199,
          "midi": 38,
          "name": "D2",
          "ticks": 14592,
          "time": 27.975448,
          "velocity": 0.8818897637795275
        },
        {
          "duration": 0.18788335416666868,
          "durationTicks": 98,
          "midi": 38,
          "name": "D2",
          "ticks": 14880,
          "time": 28.527594999999998,
          "velocity": 0.9763779527559056
        },
        {
          "duration": 0.4850458020833308,
          "durationTicks": 253,
          "midi": 50,
          "name": "D3",
          "ticks": 15072,
          "time": 28.895692999999998,
          "velocity": 0.7480314960629921
        },
        {
          "duration": 0.20705512500000012,
          "durationTicks": 108,
          "midi": 38,
          "name": "D2",
          "ticks": 15360,
          "time": 29.44784,
          "velocity": 0.8818897637795275
        },
        {
          "duration": 0.28565938541666824,
          "durationTicks": 149,
          "midi": 43,
          "name": "G2",
          "ticks": 16128,
          "time": 30.920232,
          "velocity": 0.7480314960629921
        },
        {
          "duration": 0.09010732291666912,
          "durationTicks": 47,
          "midi": 40,
          "name": "E2",
          "ticks": 16320,
          "time": 31.28833,
          "velocity": 0.8818897637795275
        },
        {
          "duration": 0.09777603124999956,
          "durationTicks": 51,
          "midi": 38,
          "name": "D2",
          "ticks": 16416,
          "time": 31.472379,
          "velocity": 0.8818897637795275
        },
        {
          "duration": 0.3048311562499997,
          "durationTicks": 159,
          "midi": 36,
          "name": "C2",
          "ticks": 16512,
          "time": 31.656428,
          "velocity": 0.8818897637795275
        },
        {
          "duration": 0.08243861458333157,
          "durationTicks": 43,
          "midi": 38,
          "name": "D2",
          "ticks": 16704,
          "time": 32.024526,
          "velocity": 0.8818897637795275
        },
        {
          "duration": 0.05943248958333669,
          "durationTicks": 31,
          "midi": 40,
          "name": "E2",
          "ticks": 16800,
          "time": 32.208574999999996,
          "velocity": 0.7480314960629921
        },
        {
          "duration": 0.15912569791667153,
          "durationTicks": 83,
          "midi": 43,
          "name": "G2",
          "ticks": 16896,
          "time": 32.392624,
          "velocity": 0.9763779527559056
        },
        {
          "duration": 0.06901837499999885,
          "durationTicks": 36,
          "midi": 40,
          "name": "E2",
          "ticks": 16992,
          "time": 32.576673,
          "velocity": 0.8818897637795275
        },
        {
          "duration": 0.07860426041666813,
          "durationTicks": 41,
          "midi": 38,
          "name": "D2",
          "ticks": 17088,
          "time": 32.760722,
          "velocity": 0.8818897637795275
        },
        {
          "duration": 0.24731584375000182,
          "durationTicks": 129,
          "midi": 36,
          "name": "C2",
          "ticks": 17184,
          "time": 32.944770999999996,
          "velocity": 0.9763779527559056
        },
        {
          "duration": 0.09202450000000084,
          "durationTicks": 48,
          "midi": 36,
          "name": "C2",
          "ticks": 17376,
          "time": 33.312869,
          "velocity": 0.8818897637795275
        },
        {
          "duration": 0.12269933333332972,
          "durationTicks": 64,
          "midi": 38,
          "name": "D2",
          "ticks": 17472,
          "time": 33.496918,
          "velocity": 0.8818897637795275
        },
        {
          "duration": 0.07476990625000468,
          "durationTicks": 39,
          "midi": 40,
          "name": "E2",
          "ticks": 17568,
          "time": 33.680966999999995,
          "velocity": 0.7480314960629921
        },
        {
          "duration": 0.3163342187500007,
          "durationTicks": 165,
          "midi": 43,
          "name": "G2",
          "ticks": 17664,
          "time": 33.865016,
          "velocity": 0.9763779527559056
        },
        {
          "duration": 0.07093555208332702,
          "durationTicks": 37,
          "midi": 40,
          "name": "E2",
          "ticks": 17856,
          "time": 34.233114,
          "velocity": 0.8818897637795275
        },
        {
          "duration": 0.07476990625000468,
          "durationTicks": 39,
          "midi": 38,
          "name": "D2",
          "ticks": 17952,
          "time": 34.417162999999995,
          "velocity": 0.8818897637795275
        },
        {
          "duration": 0.2856593854166718,
          "durationTicks": 149,
          "midi": 36,
          "name": "C2",
          "ticks": 18048,
          "time": 34.601212,
          "velocity": 0.9763779527559056
        },
        {
          "duration": 0.08435579166666685,
          "durationTicks": 44,
          "midi": 38,
          "name": "D2",
          "ticks": 18240,
          "time": 34.96931,
          "velocity": 0.8818897637795275
        },
        {
          "duration": 0.05368095833333797,
          "durationTicks": 28,
          "midi": 40,
          "name": "E2",
          "ticks": 18336,
          "time": 35.153358999999995,
          "velocity": 0.7480314960629921
        },
        {
          "duration": 0.18021464583333113,
          "durationTicks": 94,
          "midi": 43,
          "name": "G2",
          "ticks": 18432,
          "time": 35.337407999999996,
          "velocity": 0.8818897637795275
        },
        {
          "duration": 0.059432489583329584,
          "durationTicks": 31,
          "midi": 40,
          "name": "E2",
          "ticks": 18528,
          "time": 35.521457,
          "velocity": 0.7480314960629921
        },
        {
          "duration": 0.07668708333333285,
          "durationTicks": 40,
          "midi": 38,
          "name": "D2",
          "ticks": 18624,
          "time": 35.705506,
          "velocity": 0.8818897637795275
        },
        {
          "duration": 0.2703219687499967,
          "durationTicks": 141,
          "midi": 36,
          "name": "C2",
          "ticks": 18720,
          "time": 35.889555,
          "velocity": 0.8818897637795275
        },
        {
          "duration": 0.08627296875000212,
          "durationTicks": 45,
          "midi": 36,
          "name": "C2",
          "ticks": 18912,
          "time": 36.257653,
          "velocity": 0.8818897637795275
        },
        {
          "duration": 0.09969320833332773,
          "durationTicks": 52,
          "midi": 38,
          "name": "D2",
          "ticks": 19008,
          "time": 36.441702,
          "velocity": 0.9763779527559056
        },
        {
          "duration": 0.07860426041666813,
          "durationTicks": 41,
          "midi": 40,
          "name": "E2",
          "ticks": 19104,
          "time": 36.625751,
          "velocity": 0.8818897637795275
        },
        {
          "duration": 0.2914109166666705,
          "durationTicks": 152,
          "midi": 43,
          "name": "G2",
          "ticks": 19200,
          "time": 36.809799999999996,
          "velocity": 0.8818897637795275
        },
        {
          "duration": 0.09202450000000084,
          "durationTicks": 48,
          "midi": 40,
          "name": "E2",
          "ticks": 19392,
          "time": 37.177898,
          "velocity": 0.7480314960629921
        },
        {
          "duration": 0.07668708333332575,
          "durationTicks": 40,
          "midi": 38,
          "name": "D2",
          "ticks": 19488,
          "time": 37.361947,
          "velocity": 0.8818897637795275
        },
        {
          "duration": 0.29524527083333396,
          "durationTicks": 154,
          "midi": 36,
          "name": "C2",
          "ticks": 19584,
          "time": 37.545995999999995,
          "velocity": 0.9763779527559056
        },
        {
          "duration": 0.0728527291666694,
          "durationTicks": 38,
          "midi": 38,
          "name": "D2",
          "ticks": 19776,
          "time": 37.914094,
          "velocity": 0.8818897637795275
        },
        {
          "duration": 0.06901837499999885,
          "durationTicks": 36,
          "midi": 40,
          "name": "E2",
          "ticks": 19872,
          "time": 38.098143,
          "velocity": 0.7480314960629921
        },
        {
          "duration": 0.17829746875000296,
          "durationTicks": 93,
          "midi": 43,
          "name": "G2",
          "ticks": 19968,
          "time": 38.282191999999995,
          "velocity": 0.8818897637795275
        },
        {
          "duration": 0.06326684375000013,
          "durationTicks": 33,
          "midi": 40,
          "name": "E2",
          "ticks": 20064,
          "time": 38.466241,
          "velocity": 0.7480314960629921
        },
        {
          "duration": 0.059432489583329584,
          "durationTicks": 31,
          "midi": 38,
          "name": "D2",
          "ticks": 20160,
          "time": 38.65029,
          "velocity": 0.8818897637795275
        },
        {
          "duration": 0.28757656249999997,
          "durationTicks": 150,
          "midi": 36,
          "name": "C2",
          "ticks": 20256,
          "time": 38.834339,
          "velocity": 0.9763779527559056
        },
        {
          "duration": 0.10544473958333356,
          "durationTicks": 55,
          "midi": 36,
          "name": "C2",
          "ticks": 20448,
          "time": 39.202436999999996,
          "velocity": 0.7480314960629921
        },
        {
          "duration": 0.09777603124999956,
          "durationTicks": 51,
          "midi": 38,
          "name": "D2",
          "ticks": 20544,
          "time": 39.386486,
          "velocity": 0.9763779527559056
        },
        {
          "duration": 0.08627296874999502,
          "durationTicks": 45,
          "midi": 40,
          "name": "E2",
          "ticks": 20640,
          "time": 39.570535,
          "velocity": 0.8818897637795275
        },
        {
          "duration": 0.3431746979166661,
          "durationTicks": 179,
          "midi": 43,
          "name": "G2",
          "ticks": 20736,
          "time": 39.754584,
          "velocity": 0.8818897637795275
        },
        {
          "duration": 0.08435579166666685,
          "durationTicks": 44,
          "midi": 40,
          "name": "E2",
          "ticks": 20928,
          "time": 40.122682,
          "velocity": 0.8818897637795275
        },
        {
          "duration": 0.07668708333333285,
          "durationTicks": 40,
          "midi": 38,
          "name": "D2",
          "ticks": 21024,
          "time": 40.306731,
          "velocity": 0.8818897637795275
        },
        {
          "duration": 0.3201685729166641,
          "durationTicks": 167,
          "midi": 36,
          "name": "C2",
          "ticks": 21120,
          "time": 40.49078,
          "velocity": 0.9763779527559056
        },
        {
          "duration": 0.08627296875000212,
          "durationTicks": 45,
          "midi": 38,
          "name": "D2",
          "ticks": 21312,
          "time": 40.858878,
          "velocity": 0.9763779527559056
        },
        {
          "duration": 0.07668708333333285,
          "durationTicks": 40,
          "midi": 40,
          "name": "E2",
          "ticks": 21408,
          "time": 41.042927,
          "velocity": 0.6299212598425197
        },
        {
          "duration": 0.18596617708332985,
          "durationTicks": 97,
          "midi": 43,
          "name": "G2",
          "ticks": 21504,
          "time": 41.226976,
          "velocity": 0.9763779527559056
        },
        {
          "duration": 0.09777603124999956,
          "durationTicks": 51,
          "midi": 40,
          "name": "E2",
          "ticks": 21600,
          "time": 41.411024999999995,
          "velocity": 0.7480314960629921
        },
        {
          "duration": 0.0805214375000034,
          "durationTicks": 42,
          "midi": 38,
          "name": "D2",
          "ticks": 21696,
          "time": 41.595074,
          "velocity": 0.8818897637795275
        },
        {
          "duration": 0.23772995833333255,
          "durationTicks": 124,
          "midi": 36,
          "name": "C2",
          "ticks": 21792,
          "time": 41.779123,
          "velocity": 0.9763779527559056
        },
        {
          "duration": 0.11311344791667466,
          "durationTicks": 59,
          "midi": 36,
          "name": "C2",
          "ticks": 21984,
          "time": 42.147220999999995,
          "velocity": 0.8818897637795275
        },
        {
          "duration": 0.16679440624999842,
          "durationTicks": 87,
          "midi": 38,
          "name": "D2",
          "ticks": 22080,
          "time": 42.331269999999996,
          "velocity": 0.9763779527559056
        },
        {
          "duration": 0.11119627083333228,
          "durationTicks": 58,
          "midi": 40,
          "name": "E2",
          "ticks": 22176,
          "time": 42.515319,
          "velocity": 0.8818897637795275
        },
        {
          "duration": 0.18404899999999458,
          "durationTicks": 96,
          "midi": 31,
          "name": "G1",
          "ticks": 22272,
          "time": 42.699368,
          "velocity": 0.8740157480314961
        },
        {
          "duration": 1.447468697916669,
          "durationTicks": 755,
          "midi": 36,
          "name": "C2",
          "ticks": 23040,
          "time": 44.17176,
          "velocity": 0.8740157480314961
        },
        {
          "duration": 1.447468697916669,
          "durationTicks": 755,
          "midi": 31,
          "name": "G1",
          "ticks": 23808,
          "time": 45.644152,
          "velocity": 0.8740157480314961
        },
        {
          "duration": 1.455137406250003,
          "durationTicks": 759,
          "midi": 41,
          "name": "F2",
          "ticks": 24576,
          "time": 47.116544,
          "velocity": 0.8740157480314961
        },
        {
          "duration": 0.16296005208333497,
          "durationTicks": 85,
          "midi": 38,
          "name": "D2",
          "ticks": 25344,
          "time": 48.588936,
          "velocity": 0.8740157480314961
        },
        {
          "duration": 0.0881901458333374,
          "durationTicks": 46,
          "midi": 38,
          "name": "D2",
          "ticks": 26592,
          "time": 50.981573,
          "velocity": 0.8740157480314961
        },
        {
          "duration": 0.29524527083333396,
          "durationTicks": 154,
          "midi": 38,
          "name": "D2",
          "ticks": 26688,
          "time": 51.165622,
          "velocity": 0.8740157480314961
        },
        {
          "duration": 0.4006900104166675,
          "durationTicks": 209,
          "midi": 43,
          "name": "G2",
          "ticks": 26880,
          "time": 51.533719999999995,
          "velocity": 0.8661417322834646
        },
        {
          "duration": 0.12461651041665789,
          "durationTicks": 65,
          "midi": 43,
          "name": "G2",
          "ticks": 27168,
          "time": 52.085867,
          "velocity": 0.8661417322834646
        },
        {
          "duration": 0.06710119791666358,
          "durationTicks": 35,
          "midi": 35,
          "name": "B1",
          "ticks": 27264,
          "time": 52.269915999999995,
          "velocity": 0.8661417322834646
        },
        {
          "duration": 0.07668708333333996,
          "durationTicks": 40,
          "midi": 35,
          "name": "B1",
          "ticks": 27360,
          "time": 52.453965,
          "velocity": 0.8661417322834646
        },
        {
          "duration": 0.06326684375000013,
          "durationTicks": 33,
          "midi": 38,
          "name": "D2",
          "ticks": 27456,
          "time": 52.638014,
          "velocity": 0.8661417322834646
        },
        {
          "duration": 0.05751531249999431,
          "durationTicks": 30,
          "midi": 35,
          "name": "B1",
          "ticks": 27552,
          "time": 52.822063,
          "velocity": 0.8661417322834646
        },
        {
          "duration": 0.39110412500000535,
          "durationTicks": 204,
          "midi": 38,
          "name": "D2",
          "ticks": 27648,
          "time": 53.006111999999995,
          "velocity": 0.8661417322834646
        },
        {
          "duration": 0.23964713541666072,
          "durationTicks": 125,
          "midi": 38,
          "name": "D2",
          "ticks": 27936,
          "time": 53.558259,
          "velocity": 0.8661417322834646
        },
        {
          "duration": 0.09010732291666557,
          "durationTicks": 47,
          "midi": 38,
          "name": "D2",
          "ticks": 28128,
          "time": 53.926356999999996,
          "velocity": 0.8582677165354331
        },
        {
          "duration": 0.0881901458333374,
          "durationTicks": 46,
          "midi": 40,
          "name": "E2",
          "ticks": 28224,
          "time": 54.110406,
          "velocity": 0.8582677165354331
        },
        {
          "duration": 0.07093555208333413,
          "durationTicks": 37,
          "midi": 38,
          "name": "D2",
          "ticks": 28320,
          "time": 54.294455,
          "velocity": 0.8582677165354331
        },
        {
          "duration": 0.40644154166666624,
          "durationTicks": 212,
          "midi": 43,
          "name": "G2",
          "ticks": 28416,
          "time": 54.478503999999994,
          "velocity": 0.8582677165354331
        },
        {
          "duration": 0.2779906770833378,
          "durationTicks": 145,
          "midi": 43,
          "name": "G2",
          "ticks": 28704,
          "time": 55.030651,
          "velocity": 0.8582677165354331
        },
        {
          "duration": 0.07860426041666813,
          "durationTicks": 41,
          "midi": 40,
          "name": "E2",
          "ticks": 28896,
          "time": 55.398748999999995,
          "velocity": 0.8582677165354331
        },
        {
          "duration": 0.09010732291666557,
          "durationTicks": 47,
          "midi": 38,
          "name": "D2",
          "ticks": 28992,
          "time": 55.582798,
          "velocity": 0.8582677165354331
        },
        {
          "duration": 0.09969320833333484,
          "durationTicks": 52,
          "midi": 35,
          "name": "B1",
          "ticks": 29088,
          "time": 55.766847,
          "velocity": 0.8582677165354331
        },
        {
          "duration": 0.3719323541666597,
          "durationTicks": 194,
          "midi": 31,
          "name": "G1",
          "ticks": 29184,
          "time": 55.950896,
          "velocity": 0.8582677165354331
        },
        {
          "duration": 0.2684047916666614,
          "durationTicks": 140,
          "midi": 31,
          "name": "G1",
          "ticks": 29472,
          "time": 56.503043,
          "velocity": 0.8582677165354331
        },
        {
          "duration": 0.0728527291666623,
          "durationTicks": 38,
          "midi": 35,
          "name": "B1",
          "ticks": 29664,
          "time": 56.871140999999994,
          "velocity": 0.8582677165354331
        },
        {
          "duration": 0.07093555208334124,
          "durationTicks": 37,
          "midi": 38,
          "name": "D2",
          "ticks": 29760,
          "time": 57.055189999999996,
          "velocity": 0.8582677165354331
        },
        {
          "duration": 0.051763781250002694,
          "durationTicks": 27,
          "midi": 40,
          "name": "E2",
          "ticks": 29856,
          "time": 57.239239,
          "velocity": 0.8582677165354331
        },
        {
          "duration": 0.4006900104166604,
          "durationTicks": 209,
          "midi": 43,
          "name": "G2",
          "ticks": 29952,
          "time": 57.423288,
          "velocity": 0.8582677165354331
        },
        {
          "duration": 0.124616510416665,
          "durationTicks": 65,
          "midi": 43,
          "name": "G2",
          "ticks": 30240,
          "time": 57.975435,
          "velocity": 0.8582677165354331
        },
        {
          "duration": 0.06710119791666358,
          "durationTicks": 35,
          "midi": 35,
          "name": "B1",
          "ticks": 30336,
          "time": 58.159484,
          "velocity": 0.8582677165354331
        },
        {
          "duration": 0.07668708333333996,
          "durationTicks": 40,
          "midi": 35,
          "name": "B1",
          "ticks": 30432,
          "time": 58.343532999999994,
          "velocity": 0.8582677165354331
        },
        {
          "duration": 0.06326684375000013,
          "durationTicks": 33,
          "midi": 38,
          "name": "D2",
          "ticks": 30528,
          "time": 58.527581999999995,
          "velocity": 0.8582677165354331
        },
        {
          "duration": 0.057515312500001414,
          "durationTicks": 30,
          "midi": 35,
          "name": "B1",
          "ticks": 30624,
          "time": 58.711631,
          "velocity": 0.8582677165354331
        },
        {
          "duration": 0.39110412499999825,
          "durationTicks": 204,
          "midi": 38,
          "name": "D2",
          "ticks": 30720,
          "time": 58.89568,
          "velocity": 0.8582677165354331
        },
        {
          "duration": 0.23964713541666072,
          "durationTicks": 125,
          "midi": 38,
          "name": "D2",
          "ticks": 31008,
          "time": 59.447827,
          "velocity": 0.8582677165354331
        },
        {
          "duration": 0.09010732291665846,
          "durationTicks": 47,
          "midi": 38,
          "name": "D2",
          "ticks": 31200,
          "time": 59.815925,
          "velocity": 0.8582677165354331
        },
        {
          "duration": 0.0881901458333374,
          "durationTicks": 46,
          "midi": 40,
          "name": "E2",
          "ticks": 31296,
          "time": 59.999973999999995,
          "velocity": 0.8582677165354331
        },
        {
          "duration": 0.07093555208333413,
          "durationTicks": 37,
          "midi": 38,
          "name": "D2",
          "ticks": 31392,
          "time": 60.184022999999996,
          "velocity": 0.8582677165354331
        },
        {
          "duration": 0.40644154166665913,
          "durationTicks": 212,
          "midi": 43,
          "name": "G2",
          "ticks": 31488,
          "time": 60.368072,
          "velocity": 0.8582677165354331
        },
        {
          "duration": 0.2779906770833378,
          "durationTicks": 145,
          "midi": 43,
          "name": "G2",
          "ticks": 31776,
          "time": 60.920218999999996,
          "velocity": 0.8582677165354331
        },
        {
          "duration": 0.07860426041666102,
          "durationTicks": 41,
          "midi": 40,
          "name": "E2",
          "ticks": 31968,
          "time": 61.288317,
          "velocity": 0.8582677165354331
        },
        {
          "duration": 0.09010732291666557,
          "durationTicks": 47,
          "midi": 38,
          "name": "D2",
          "ticks": 32064,
          "time": 61.472365999999994,
          "velocity": 0.8582677165354331
        },
        {
          "duration": 0.09969320833333484,
          "durationTicks": 52,
          "midi": 35,
          "name": "B1",
          "ticks": 32160,
          "time": 61.656414999999996,
          "velocity": 0.8582677165354331
        },
        {
          "duration": 0.3719323541666597,
          "durationTicks": 194,
          "midi": 31,
          "name": "G1",
          "ticks": 32256,
          "time": 61.840464,
          "velocity": 0.8582677165354331
        },
        {
          "duration": 0.2684047916666614,
          "durationTicks": 140,
          "midi": 31,
          "name": "G1",
          "ticks": 32544,
          "time": 62.392610999999995,
          "velocity": 0.8582677165354331
        },
        {
          "duration": 0.0728527291666623,
          "durationTicks": 38,
          "midi": 35,
          "name": "B1",
          "ticks": 32736,
          "time": 62.760709,
          "velocity": 0.8582677165354331
        },
        {
          "duration": 0.07093555208333413,
          "durationTicks": 37,
          "midi": 38,
          "name": "D2",
          "ticks": 32832,
          "time": 62.944758,
          "velocity": 0.8582677165354331
        },
        {
          "duration": 0.051763781250002694,
          "durationTicks": 27,
          "midi": 40,
          "name": "E2",
          "ticks": 32928,
          "time": 63.128806999999995,
          "velocity": 0.8582677165354331
        },
        {
          "duration": 0.41411025000000024,
          "durationTicks": 216,
          "midi": 36,
          "name": "C2",
          "ticks": 33024,
          "time": 63.312856,
          "velocity": 0.8818897637795275
        },
        {
          "duration": 0.17062876041666897,
          "durationTicks": 89,
          "midi": 38,
          "name": "D2",
          "ticks": 33312,
          "time": 63.865002999999994,
          "velocity": 0.8661417322834646
        },
        {
          "duration": 0.12653368750000027,
          "durationTicks": 66,
          "midi": 40,
          "name": "E2",
          "ticks": 33408,
          "time": 64.049052,
          "velocity": 0.8661417322834646
        },
        {
          "duration": 0.19171770833334278,
          "durationTicks": 100,
          "midi": 43,
          "name": "G2",
          "ticks": 33504,
          "time": 64.23310099999999,
          "velocity": 0.8661417322834646
        },
        {
          "duration": 0.11886497916665917,
          "durationTicks": 62,
          "midi": 40,
          "name": "E2",
          "ticks": 33696,
          "time": 64.601199,
          "velocity": 0.8661417322834646
        },
        {
          "duration": 0.3297544583333405,
          "durationTicks": 172,
          "midi": 43,
          "name": "G2",
          "ticks": 33792,
          "time": 64.785248,
          "velocity": 0.8661417322834646
        },
        {
          "duration": 0.18404900000000168,
          "durationTicks": 96,
          "midi": 43,
          "name": "G2",
          "ticks": 33984,
          "time": 65.153346,
          "velocity": 0.8661417322834646
        },
        {
          "duration": 0.18404900000000168,
          "durationTicks": 96,
          "midi": 45,
          "name": "A2",
          "ticks": 34080,
          "time": 65.337395,
          "velocity": 0.8661417322834646
        },
        {
          "duration": 0.18404899999998747,
          "durationTicks": 96,
          "midi": 46,
          "name": "A#2",
          "ticks": 34176,
          "time": 65.521444,
          "velocity": 0.8661417322834646
        },
        {
          "duration": 0.18404900000000168,
          "durationTicks": 96,
          "midi": 45,
          "name": "A2",
          "ticks": 34272,
          "time": 65.70549299999999,
          "velocity": 0.8661417322834646
        },
        {
          "duration": 0.18404900000000168,
          "durationTicks": 96,
          "midi": 43,
          "name": "G2",
          "ticks": 34368,
          "time": 65.88954199999999,
          "velocity": 0.8582677165354331
        },
        {
          "duration": 0.18404900000000168,
          "durationTicks": 96,
          "midi": 40,
          "name": "E2",
          "ticks": 34464,
          "time": 66.073591,
          "velocity": 0.8582677165354331
        },
        {
          "duration": 0.4658740312499958,
          "durationTicks": 243,
          "midi": 36,
          "name": "C2",
          "ticks": 34560,
          "time": 66.25764,
          "velocity": 0.8582677165354331
        },
        {
          "duration": 0.15912569791666442,
          "durationTicks": 83,
          "midi": 38,
          "name": "D2",
          "ticks": 34848,
          "time": 66.809787,
          "velocity": 0.8582677165354331
        },
        {
          "duration": 0.116947802083331,
          "durationTicks": 61,
          "midi": 40,
          "name": "E2",
          "ticks": 34944,
          "time": 66.993836,
          "velocity": 0.8582677165354331
        },
        {
          "duration": 0.17638029166666058,
          "durationTicks": 92,
          "midi": 43,
          "name": "G2",
          "ticks": 35040,
          "time": 67.177885,
          "velocity": 0.8582677165354331
        },
        {
          "duration": 0.10736191666666173,
          "durationTicks": 56,
          "midi": 40,
          "name": "E2",
          "ticks": 35232,
          "time": 67.54598299999999,
          "velocity": 0.8582677165354331
        },
        {
          "duration": 0.2933280937500058,
          "durationTicks": 153,
          "midi": 43,
          "name": "G2",
          "ticks": 35328,
          "time": 67.730032,
          "velocity": 0.8582677165354331
        },
        {
          "duration": 0.18404900000000168,
          "durationTicks": 96,
          "midi": 43,
          "name": "G2",
          "ticks": 35520,
          "time": 68.09813,
          "velocity": 0.8582677165354331
        },
        {
          "duration": 0.18404900000000168,
          "durationTicks": 96,
          "midi": 45,
          "name": "A2",
          "ticks": 35616,
          "time": 68.282179,
          "velocity": 0.8582677165354331
        },
        {
          "duration": 0.18404900000000168,
          "durationTicks": 96,
          "midi": 46,
          "name": "A#2",
          "ticks": 35712,
          "time": 68.466228,
          "velocity": 0.8582677165354331
        },
        {
          "duration": 0.18404899999998747,
          "durationTicks": 96,
          "midi": 45,
          "name": "A2",
          "ticks": 35808,
          "time": 68.650277,
          "velocity": 0.8582677165354331
        },
        {
          "duration": 0.18404900000000168,
          "durationTicks": 96,
          "midi": 43,
          "name": "G2",
          "ticks": 35904,
          "time": 68.83432599999999,
          "velocity": 0.8582677165354331
        },
        {
          "duration": 0.18404900000000168,
          "durationTicks": 96,
          "midi": 40,
          "name": "E2",
          "ticks": 36000,
          "time": 69.01837499999999,
          "velocity": 0.8582677165354331
        },
        {
          "duration": 0.4735427395833369,
          "durationTicks": 247,
          "midi": 36,
          "name": "C2",
          "ticks": 36096,
          "time": 69.202424,
          "velocity": 0.8582677165354331
        },
        {
          "duration": 0.16487722916666314,
          "durationTicks": 86,
          "midi": 38,
          "name": "D2",
          "ticks": 36384,
          "time": 69.754571,
          "velocity": 0.8582677165354331
        },
        {
          "duration": 0.11503062500000283,
          "durationTicks": 60,
          "midi": 40,
          "name": "E2",
          "ticks": 36480,
          "time": 69.93862,
          "velocity": 0.8582677165354331
        },
        {
          "duration": 0.20130359374999784,
          "durationTicks": 105,
          "midi": 43,
          "name": "G2",
          "ticks": 36576,
          "time": 70.122669,
          "velocity": 0.8582677165354331
        },
        {
          "duration": 0.09969320833334905,
          "durationTicks": 52,
          "midi": 40,
          "name": "E2",
          "ticks": 36768,
          "time": 70.49076699999999,
          "velocity": 0.8582677165354331
        },
        {
          "duration": 0.4907973333333473,
          "durationTicks": 256,
          "midi": 43,
          "name": "G2",
          "ticks": 36864,
          "time": 70.67481599999999,
          "velocity": 0.8582677165354331
        },
        {
          "duration": 0.11886497916665917,
          "durationTicks": 62,
          "midi": 43,
          "name": "G2",
          "ticks": 37152,
          "time": 71.226963,
          "velocity": 0.8582677165354331
        },
        {
          "duration": 0.15529134374999387,
          "durationTicks": 81,
          "midi": 43,
          "name": "G2",
          "ticks": 37344,
          "time": 71.595061,
          "velocity": 0.8582677165354331
        },
        {
          "duration": 0.12269933333332972,
          "durationTicks": 64,
          "midi": 35,
          "name": "B1",
          "ticks": 37440,
          "time": 71.77911,
          "velocity": 0.8582677165354331
        },
        {
          "duration": 0.11886497916667338,
          "durationTicks": 62,
          "midi": 36,
          "name": "C2",
          "ticks": 37536,
          "time": 71.96315899999999,
          "velocity": 0.8582677165354331
        },
        {
          "duration": 0.3815182395833432,
          "durationTicks": 199,
          "midi": 38,
          "name": "D2",
          "ticks": 37632,
          "time": 72.14720799999999,
          "velocity": 0.8818897637795275
        },
        {
          "duration": 0.18788335416665802,
          "durationTicks": 98,
          "midi": 38,
          "name": "D2",
          "ticks": 37920,
          "time": 72.699355,
          "velocity": 0.9763779527559056
        },
        {
          "duration": 0.48504580208333437,
          "durationTicks": 253,
          "midi": 50,
          "name": "D3",
          "ticks": 38112,
          "time": 73.067453,
          "velocity": 0.7480314960629921
        },
        {
          "duration": 0.20705512500001078,
          "durationTicks": 108,
          "midi": 38,
          "name": "D2",
          "ticks": 38400,
          "time": 73.61959999999999,
          "velocity": 0.8818897637795275
        },
        {
          "duration": 0.2856593854166647,
          "durationTicks": 149,
          "midi": 43,
          "name": "G2",
          "ticks": 39168,
          "time": 75.09199199999999,
          "velocity": 0.7480314960629921
        },
        {
          "duration": 0.09010732291666557,
          "durationTicks": 47,
          "midi": 40,
          "name": "E2",
          "ticks": 39360,
          "time": 75.46009,
          "velocity": 0.8818897637795275
        },
        {
          "duration": 0.09777603125000667,
          "durationTicks": 51,
          "midi": 38,
          "name": "D2",
          "ticks": 39456,
          "time": 75.644139,
          "velocity": 0.8818897637795275
        },
        {
          "duration": 0.30483115625000323,
          "durationTicks": 159,
          "midi": 36,
          "name": "C2",
          "ticks": 39552,
          "time": 75.828188,
          "velocity": 0.8818897637795275
        },
        {
          "duration": 0.08243861458333868,
          "durationTicks": 43,
          "midi": 38,
          "name": "D2",
          "ticks": 39744,
          "time": 76.196286,
          "velocity": 0.8818897637795275
        },
        {
          "duration": 0.059432489583329584,
          "durationTicks": 31,
          "midi": 40,
          "name": "E2",
          "ticks": 39840,
          "time": 76.380335,
          "velocity": 0.7480314960629921
        },
        {
          "duration": 0.15912569791666442,
          "durationTicks": 83,
          "midi": 43,
          "name": "G2",
          "ticks": 39936,
          "time": 76.56438399999999,
          "velocity": 0.9763779527559056
        },
        {
          "duration": 0.06901837499999885,
          "durationTicks": 36,
          "midi": 40,
          "name": "E2",
          "ticks": 40032,
          "time": 76.74843299999999,
          "velocity": 0.8818897637795275
        },
        {
          "duration": 0.07860426041666813,
          "durationTicks": 41,
          "midi": 38,
          "name": "D2",
          "ticks": 40128,
          "time": 76.932482,
          "velocity": 0.8818897637795275
        },
        {
          "duration": 0.24731584375000182,
          "durationTicks": 129,
          "midi": 36,
          "name": "C2",
          "ticks": 40224,
          "time": 77.116531,
          "velocity": 0.9763779527559056
        },
        {
          "duration": 0.09202449999999374,
          "durationTicks": 48,
          "midi": 36,
          "name": "C2",
          "ticks": 40416,
          "time": 77.484629,
          "velocity": 0.8818897637795275
        },
        {
          "duration": 0.12269933333332972,
          "durationTicks": 64,
          "midi": 38,
          "name": "D2",
          "ticks": 40512,
          "time": 77.668678,
          "velocity": 0.8818897637795275
        },
        {
          "duration": 0.07476990624999758,
          "durationTicks": 39,
          "midi": 40,
          "name": "E2",
          "ticks": 40608,
          "time": 77.852727,
          "velocity": 0.7480314960629921
        },
        {
          "duration": 0.3163342187500007,
          "durationTicks": 165,
          "midi": 43,
          "name": "G2",
          "ticks": 40704,
          "time": 78.03677599999999,
          "velocity": 0.9763779527559056
        },
        {
          "duration": 0.07093555208334124,
          "durationTicks": 37,
          "midi": 40,
          "name": "E2",
          "ticks": 40896,
          "time": 78.40487399999999,
          "velocity": 0.8818897637795275
        },
        {
          "duration": 0.07476990624999758,
          "durationTicks": 39,
          "midi": 38,
          "name": "D2",
          "ticks": 40992,
          "time": 78.588923,
          "velocity": 0.8818897637795275
        },
        {
          "duration": 0.2856593854166647,
          "durationTicks": 149,
          "midi": 36,
          "name": "C2",
          "ticks": 41088,
          "time": 78.772972,
          "velocity": 0.9763779527559056
        },
        {
          "duration": 0.08435579166666685,
          "durationTicks": 44,
          "midi": 38,
          "name": "D2",
          "ticks": 41280,
          "time": 79.14107,
          "velocity": 0.8818897637795275
        },
        {
          "duration": 0.053680958333330864,
          "durationTicks": 28,
          "midi": 40,
          "name": "E2",
          "ticks": 41376,
          "time": 79.325119,
          "velocity": 0.7480314960629921
        },
        {
          "duration": 0.18021464583333113,
          "durationTicks": 94,
          "midi": 43,
          "name": "G2",
          "ticks": 41472,
          "time": 79.509168,
          "velocity": 0.8818897637795275
        },
        {
          "duration": 0.059432489583343795,
          "durationTicks": 31,
          "midi": 40,
          "name": "E2",
          "ticks": 41568,
          "time": 79.69321699999999,
          "velocity": 0.7480314960629921
        },
        {
          "duration": 0.07668708333333996,
          "durationTicks": 40,
          "midi": 38,
          "name": "D2",
          "ticks": 41664,
          "time": 79.87726599999999,
          "velocity": 0.8818897637795275
        },
        {
          "duration": 0.2703219687499967,
          "durationTicks": 141,
          "midi": 36,
          "name": "C2",
          "ticks": 41760,
          "time": 80.061315,
          "velocity": 0.8818897637795275
        },
        {
          "duration": 0.08627296874999502,
          "durationTicks": 45,
          "midi": 36,
          "name": "C2",
          "ticks": 41952,
          "time": 80.429413,
          "velocity": 0.8818897637795275
        },
        {
          "duration": 0.09969320833333484,
          "durationTicks": 52,
          "midi": 38,
          "name": "D2",
          "ticks": 42048,
          "time": 80.613462,
          "velocity": 0.9763779527559056
        },
        {
          "duration": 0.07860426041665391,
          "durationTicks": 41,
          "midi": 40,
          "name": "E2",
          "ticks": 42144,
          "time": 80.797511,
          "velocity": 0.8818897637795275
        },
        {
          "duration": 0.2914109166666634,
          "durationTicks": 152,
          "midi": 43,
          "name": "G2",
          "ticks": 42240,
          "time": 80.98156,
          "velocity": 0.8818897637795275
        },
        {
          "duration": 0.09202450000000795,
          "durationTicks": 48,
          "midi": 40,
          "name": "E2",
          "ticks": 42432,
          "time": 81.34965799999999,
          "velocity": 0.7480314960629921
        },
        {
          "duration": 0.07668708333333996,
          "durationTicks": 40,
          "midi": 38,
          "name": "D2",
          "ticks": 42528,
          "time": 81.53370699999999,
          "velocity": 0.8818897637795275
        },
        {
          "duration": 0.29524527083333396,
          "durationTicks": 154,
          "midi": 36,
          "name": "C2",
          "ticks": 42624,
          "time": 81.717756,
          "velocity": 0.9763779527559056
        },
        {
          "duration": 0.0728527291666552,
          "durationTicks": 38,
          "midi": 38,
          "name": "D2",
          "ticks": 42816,
          "time": 82.085854,
          "velocity": 0.8818897637795275
        },
        {
          "duration": 0.06901837499999885,
          "durationTicks": 36,
          "midi": 40,
          "name": "E2",
          "ticks": 42912,
          "time": 82.269903,
          "velocity": 0.7480314960629921
        },
        {
          "duration": 0.17829746874998875,
          "durationTicks": 93,
          "midi": 43,
          "name": "G2",
          "ticks": 43008,
          "time": 82.453952,
          "velocity": 0.8818897637795275
        },
        {
          "duration": 0.06326684374998592,
          "durationTicks": 33,
          "midi": 40,
          "name": "E2",
          "ticks": 43104,
          "time": 82.638001,
          "velocity": 0.7480314960629921
        },
        {
          "duration": 0.059432489583343795,
          "durationTicks": 31,
          "midi": 38,
          "name": "D2",
          "ticks": 43200,
          "time": 82.82204999999999,
          "velocity": 0.8818897637795275
        },
        {
          "duration": 0.28757656250000707,
          "durationTicks": 150,
          "midi": 36,
          "name": "C2",
          "ticks": 43296,
          "time": 83.00609899999999,
          "velocity": 0.9763779527559056
        },
        {
          "duration": 0.10544473958333356,
          "durationTicks": 55,
          "midi": 36,
          "name": "C2",
          "ticks": 43488,
          "time": 83.374197,
          "velocity": 0.7480314960629921
        },
        {
          "duration": 0.09777603124999246,
          "durationTicks": 51,
          "midi": 38,
          "name": "D2",
          "ticks": 43584,
          "time": 83.558246,
          "velocity": 0.9763779527559056
        },
        {
          "duration": 0.08627296874999502,
          "durationTicks": 45,
          "midi": 40,
          "name": "E2",
          "ticks": 43680,
          "time": 83.742295,
          "velocity": 0.8818897637795275
        },
        {
          "duration": 0.3431746979166519,
          "durationTicks": 179,
          "midi": 43,
          "name": "G2",
          "ticks": 43776,
          "time": 83.926344,
          "velocity": 0.8818897637795275
        },
        {
          "duration": 0.08435579166666685,
          "durationTicks": 44,
          "midi": 40,
          "name": "E2",
          "ticks": 43968,
          "time": 84.29444199999999,
          "velocity": 0.8818897637795275
        },
        {
          "duration": 0.07668708333333996,
          "durationTicks": 40,
          "midi": 38,
          "name": "D2",
          "ticks": 44064,
          "time": 84.47849099999999,
          "velocity": 0.8818897637795275
        },
        {
          "duration": 0.3201685729166712,
          "durationTicks": 167,
          "midi": 36,
          "name": "C2",
          "ticks": 44160,
          "time": 84.66253999999999,
          "velocity": 0.9763779527559056
        },
        {
          "duration": 0.08627296874999502,
          "durationTicks": 45,
          "midi": 38,
          "name": "D2",
          "ticks": 44352,
          "time": 85.030638,
          "velocity": 0.9763779527559056
        },
        {
          "duration": 0.07668708333333996,
          "durationTicks": 40,
          "midi": 40,
          "name": "E2",
          "ticks": 44448,
          "time": 85.214687,
          "velocity": 0.6299212598425197
        },
        {
          "duration": 0.18596617708332985,
          "durationTicks": 97,
          "midi": 43,
          "name": "G2",
          "ticks": 44544,
          "time": 85.398736,
          "velocity": 0.9763779527559056
        },
        {
          "duration": 0.09777603124999246,
          "durationTicks": 51,
          "midi": 40,
          "name": "E2",
          "ticks": 44640,
          "time": 85.582785,
          "velocity": 0.7480314960629921
        },
        {
          "duration": 0.0805214375000105,
          "durationTicks": 42,
          "midi": 38,
          "name": "D2",
          "ticks": 44736,
          "time": 85.76683399999999,
          "velocity": 0.8818897637795275
        },
        {
          "duration": 0.23772995833334676,
          "durationTicks": 124,
          "midi": 36,
          "name": "C2",
          "ticks": 44832,
          "time": 85.95088299999999,
          "velocity": 0.9763779527559056
        },
        {
          "duration": 0.11311344791666045,
          "durationTicks": 59,
          "midi": 36,
          "name": "C2",
          "ticks": 45024,
          "time": 86.318981,
          "velocity": 0.8818897637795275
        },
        {
          "duration": 0.16679440625000552,
          "durationTicks": 87,
          "midi": 38,
          "name": "D2",
          "ticks": 45120,
          "time": 86.50303,
          "velocity": 0.9763779527559056
        },
        {
          "duration": 0.11119627083333228,
          "durationTicks": 58,
          "midi": 40,
          "name": "E2",
          "ticks": 45216,
          "time": 86.687079,
          "velocity": 0.8818897637795275
        },
        {
          "duration": 0.18404900000000168,
          "durationTicks": 96,
          "midi": 31,
          "name": "G1",
          "ticks": 45312,
          "time": 86.871128,
          "velocity": 0.8740157480314961
        },
        {
          "duration": 1.447468697916662,
          "durationTicks": 755,
          "midi": 36,
          "name": "C2",
          "ticks": 46080,
          "time": 88.34352,
          "velocity": 0.8740157480314961
        },
        {
          "duration": 1.447468697916662,
          "durationTicks": 755,
          "midi": 31,
          "name": "G1",
          "ticks": 46848,
          "time": 89.815912,
          "velocity": 0.8740157480314961
        },
        {
          "duration": 1.455137406250003,
          "durationTicks": 759,
          "midi": 41,
          "name": "F2",
          "ticks": 47616,
          "time": 91.288304,
          "velocity": 0.8740157480314961
        },
        {
          "duration": 0.16296005208333497,
          "durationTicks": 85,
          "midi": 38,
          "name": "D2",
          "ticks": 48384,
          "time": 92.760696,
          "velocity": 0.8740157480314961
        },
        {
          "duration": 0.0881901458333374,
          "durationTicks": 46,
          "midi": 38,
          "name": "D2",
          "ticks": 49632,
          "time": 95.15333299999999,
          "velocity": 0.8740157480314961
        },
        {
          "duration": 0.29524527083333396,
          "durationTicks": 154,
          "midi": 38,
          "name": "D2",
          "ticks": 49728,
          "time": 95.33738199999999,
          "velocity": 0.8740157480314961
        },
        {
          "duration": 0.4006900104166675,
          "durationTicks": 209,
          "midi": 43,
          "name": "G2",
          "ticks": 49920,
          "time": 95.70548,
          "velocity": 0.8661417322834646
        },
        {
          "duration": 0.1246165104166721,
          "durationTicks": 65,
          "midi": 43,
          "name": "G2",
          "ticks": 50208,
          "time": 96.257627,
          "velocity": 0.8661417322834646
        },
        {
          "duration": 0.06710119791667069,
          "durationTicks": 35,
          "midi": 35,
          "name": "B1",
          "ticks": 50304,
          "time": 96.441676,
          "velocity": 0.8661417322834646
        },
        {
          "duration": 0.07668708333332575,
          "durationTicks": 40,
          "midi": 35,
          "name": "B1",
          "ticks": 50400,
          "time": 96.62572499999999,
          "velocity": 0.8661417322834646
        },
        {
          "duration": 0.06326684375000013,
          "durationTicks": 33,
          "midi": 38,
          "name": "D2",
          "ticks": 50496,
          "time": 96.80977399999999,
          "velocity": 0.8661417322834646
        },
        {
          "duration": 0.057515312500001414,
          "durationTicks": 30,
          "midi": 35,
          "name": "B1",
          "ticks": 50592,
          "time": 96.99382299999999,
          "velocity": 0.8661417322834646
        },
        {
          "duration": 0.39110412499999825,
          "durationTicks": 204,
          "midi": 38,
          "name": "D2",
          "ticks": 50688,
          "time": 97.177872,
          "velocity": 0.8661417322834646
        },
        {
          "duration": 0.23964713541667493,
          "durationTicks": 125,
          "midi": 38,
          "name": "D2",
          "ticks": 50976,
          "time": 97.730019,
          "velocity": 0.8661417322834646
        },
        {
          "duration": 0.09010732291667978,
          "durationTicks": 47,
          "midi": 38,
          "name": "D2",
          "ticks": 51168,
          "time": 98.09811699999999,
          "velocity": 0.8582677165354331
        },
        {
          "duration": 0.0881901458333374,
          "durationTicks": 46,
          "midi": 40,
          "name": "E2",
          "ticks": 51264,
          "time": 98.28216599999999,
          "velocity": 0.8582677165354331
        },
        {
          "duration": 0.07093555208332702,
          "durationTicks": 37,
          "midi": 38,
          "name": "D2",
          "ticks": 51360,
          "time": 98.46621499999999,
          "velocity": 0.8582677165354331
        },
        {
          "duration": 0.40644154166668045,
          "durationTicks": 212,
          "midi": 43,
          "name": "G2",
          "ticks": 51456,
          "time": 98.65026399999999,
          "velocity": 0.8582677165354331
        },
        {
          "duration": 0.2779906770833236,
          "durationTicks": 145,
          "midi": 43,
          "name": "G2",
          "ticks": 51744,
          "time": 99.202411,
          "velocity": 0.8582677165354331
        },
        {
          "duration": 0.07860426041666813,
          "durationTicks": 41,
          "midi": 40,
          "name": "E2",
          "ticks": 51936,
          "time": 99.570509,
          "velocity": 0.8582677165354331
        },
        {
          "duration": 0.09010732291667978,
          "durationTicks": 47,
          "midi": 38,
          "name": "D2",
          "ticks": 52032,
          "time": 99.75455799999999,
          "velocity": 0.8582677165354331
        },
        {
          "duration": 0.09969320833333484,
          "durationTicks": 52,
          "midi": 35,
          "name": "B1",
          "ticks": 52128,
          "time": 99.93860699999999,
          "velocity": 0.8582677165354331
        },
        {
          "duration": 0.3719323541666739,
          "durationTicks": 194,
          "midi": 31,
          "name": "G1",
          "ticks": 52224,
          "time": 100.12265599999999,
          "velocity": 0.8582677165354331
        },
        {
          "duration": 0.26840479166666853,
          "durationTicks": 140,
          "midi": 31,
          "name": "G1",
          "ticks": 52512,
          "time": 100.674803,
          "velocity": 0.8582677165354331
        },
        {
          "duration": 0.0728527291666694,
          "durationTicks": 38,
          "midi": 35,
          "name": "B1",
          "ticks": 52704,
          "time": 101.042901,
          "velocity": 0.8582677165354331
        },
        {
          "duration": 0.07093555208332702,
          "durationTicks": 37,
          "midi": 38,
          "name": "D2",
          "ticks": 52800,
          "time": 101.22694999999999,
          "velocity": 0.8582677165354331
        },
        {
          "duration": 0.051763781250002694,
          "durationTicks": 27,
          "midi": 40,
          "name": "E2",
          "ticks": 52896,
          "time": 101.41099899999999,
          "velocity": 0.8582677165354331
        },
        {
          "duration": 0.40069001041668173,
          "durationTicks": 209,
          "midi": 43,
          "name": "G2",
          "ticks": 52992,
          "time": 101.59504799999999,
          "velocity": 0.8582677165354331
        },
        {
          "duration": 0.1246165104166721,
          "durationTicks": 65,
          "midi": 43,
          "name": "G2",
          "ticks": 53280,
          "time": 102.147195,
          "velocity": 0.8582677165354331
        },
        {
          "duration": 0.06710119791667069,
          "durationTicks": 35,
          "midi": 35,
          "name": "B1",
          "ticks": 53376,
          "time": 102.331244,
          "velocity": 0.8582677165354331
        },
        {
          "duration": 0.07668708333332575,
          "durationTicks": 40,
          "midi": 35,
          "name": "B1",
          "ticks": 53472,
          "time": 102.515293,
          "velocity": 0.8582677165354331
        },
        {
          "duration": 0.06326684375000013,
          "durationTicks": 33,
          "midi": 38,
          "name": "D2",
          "ticks": 53568,
          "time": 102.699342,
          "velocity": 0.8582677165354331
        },
        {
          "duration": 0.057515312500001414,
          "durationTicks": 30,
          "midi": 35,
          "name": "B1",
          "ticks": 53664,
          "time": 102.88339099999999,
          "velocity": 0.8582677165354331
        },
        {
          "duration": 0.39110412499999825,
          "durationTicks": 204,
          "midi": 38,
          "name": "D2",
          "ticks": 53760,
          "time": 103.06743999999999,
          "velocity": 0.8582677165354331
        },
        {
          "duration": 0.23964713541667493,
          "durationTicks": 125,
          "midi": 38,
          "name": "D2",
          "ticks": 54048,
          "time": 103.619587,
          "velocity": 0.8582677165354331
        },
        {
          "duration": 0.09010732291666557,
          "durationTicks": 47,
          "midi": 38,
          "name": "D2",
          "ticks": 54240,
          "time": 103.987685,
          "velocity": 0.8582677165354331
        },
        {
          "duration": 0.08819014583332319,
          "durationTicks": 46,
          "midi": 40,
          "name": "E2",
          "ticks": 54336,
          "time": 104.171734,
          "velocity": 0.8582677165354331
        },
        {
          "duration": 0.07093555208332702,
          "durationTicks": 37,
          "midi": 38,
          "name": "D2",
          "ticks": 54432,
          "time": 104.35578299999999,
          "velocity": 0.8582677165354331
        },
        {
          "duration": 0.40644154166668045,
          "durationTicks": 212,
          "midi": 43,
          "name": "G2",
          "ticks": 54528,
          "time": 104.53983199999999,
          "velocity": 0.8582677165354331
        },
        {
          "duration": 0.2779906770833236,
          "durationTicks": 145,
          "midi": 43,
          "name": "G2",
          "ticks": 54816,
          "time": 105.091979,
          "velocity": 0.8582677165354331
        },
        {
          "duration": 0.07860426041666813,
          "durationTicks": 41,
          "midi": 40,
          "name": "E2",
          "ticks": 55008,
          "time": 105.460077,
          "velocity": 0.8582677165354331
        },
        {
          "duration": 0.09010732291666557,
          "durationTicks": 47,
          "midi": 38,
          "name": "D2",
          "ticks": 55104,
          "time": 105.644126,
          "velocity": 0.8582677165354331
        },
        {
          "duration": 0.09969320833333484,
          "durationTicks": 52,
          "midi": 35,
          "name": "B1",
          "ticks": 55200,
          "time": 105.82817499999999,
          "velocity": 0.8582677165354331
        },
        {
          "duration": 0.3719323541666739,
          "durationTicks": 194,
          "midi": 31,
          "name": "G1",
          "ticks": 55296,
          "time": 106.01222399999999,
          "velocity": 0.8582677165354331
        },
        {
          "duration": 0.26840479166666853,
          "durationTicks": 140,
          "midi": 31,
          "name": "G1",
          "ticks": 55584,
          "time": 106.564371,
          "velocity": 0.8582677165354331
        },
        {
          "duration": 0.0728527291666694,
          "durationTicks": 38,
          "midi": 35,
          "name": "B1",
          "ticks": 55776,
          "time": 106.932469,
          "velocity": 0.8582677165354331
        },
        {
          "duration": 0.07093555208332702,
          "durationTicks": 37,
          "midi": 38,
          "name": "D2",
          "ticks": 55872,
          "time": 107.116518,
          "velocity": 0.8582677165354331
        },
        {
          "duration": 0.05176378124998848,
          "durationTicks": 27,
          "midi": 40,
          "name": "E2",
          "ticks": 55968,
          "time": 107.300567,
          "velocity": 0.8582677165354331
        },
        {
          "duration": 0.41411025000000734,
          "durationTicks": 216,
          "midi": 36,
          "name": "C2",
          "ticks": 56064,
          "time": 107.48461599999999,
          "velocity": 0.8818897637795275
        },
        {
          "duration": 0.17062876041667607,
          "durationTicks": 89,
          "midi": 38,
          "name": "D2",
          "ticks": 56352,
          "time": 108.036763,
          "velocity": 0.8661417322834646
        },
        {
          "duration": 0.12653368750000027,
          "durationTicks": 66,
          "midi": 40,
          "name": "E2",
          "ticks": 56448,
          "time": 108.220812,
          "velocity": 0.8661417322834646
        },
        {
          "duration": 0.19171770833332857,
          "durationTicks": 100,
          "midi": 43,
          "name": "G2",
          "ticks": 56544,
          "time": 108.404861,
          "velocity": 0.8661417322834646
        },
        {
          "duration": 0.11886497916667338,
          "durationTicks": 62,
          "midi": 40,
          "name": "E2",
          "ticks": 56736,
          "time": 108.772959,
          "velocity": 0.8661417322834646
        },
        {
          "duration": 0.3297544583333263,
          "durationTicks": 172,
          "midi": 43,
          "name": "G2",
          "ticks": 56832,
          "time": 108.95700799999999,
          "velocity": 0.8661417322834646
        },
        {
          "duration": 0.18404900000000168,
          "durationTicks": 96,
          "midi": 43,
          "name": "G2",
          "ticks": 57024,
          "time": 109.32510599999999,
          "velocity": 0.8661417322834646
        },
        {
          "duration": 0.18404900000000168,
          "durationTicks": 96,
          "midi": 45,
          "name": "A2",
          "ticks": 57120,
          "time": 109.50915499999999,
          "velocity": 0.8661417322834646
        },
        {
          "duration": 0.18404900000000168,
          "durationTicks": 96,
          "midi": 46,
          "name": "A#2",
          "ticks": 57216,
          "time": 109.693204,
          "velocity": 0.8661417322834646
        },
        {
          "duration": 0.18404900000000168,
          "durationTicks": 96,
          "midi": 45,
          "name": "A2",
          "ticks": 57312,
          "time": 109.877253,
          "velocity": 0.8661417322834646
        },
        {
          "duration": 0.18404900000000168,
          "durationTicks": 96,
          "midi": 43,
          "name": "G2",
          "ticks": 57408,
          "time": 110.061302,
          "velocity": 0.8582677165354331
        },
        {
          "duration": 0.18404900000000168,
          "durationTicks": 96,
          "midi": 40,
          "name": "E2",
          "ticks": 57504,
          "time": 110.245351,
          "velocity": 0.8582677165354331
        },
        {
          "duration": 0.4658740312499958,
          "durationTicks": 243,
          "midi": 36,
          "name": "C2",
          "ticks": 57600,
          "time": 110.4294,
          "velocity": 0.8582677165354331
        },
        {
          "duration": 0.15912569791667863,
          "durationTicks": 83,
          "midi": 38,
          "name": "D2",
          "ticks": 57888,
          "time": 110.98154699999999,
          "velocity": 0.8582677165354331
        },
        {
          "duration": 0.116947802083331,
          "durationTicks": 61,
          "midi": 40,
          "name": "E2",
          "ticks": 57984,
          "time": 111.165596,
          "velocity": 0.8582677165354331
        },
        {
          "duration": 0.1763802916666748,
          "durationTicks": 92,
          "midi": 43,
          "name": "G2",
          "ticks": 58080,
          "time": 111.349645,
          "velocity": 0.8582677165354331
        },
        {
          "duration": 0.10736191666667594,
          "durationTicks": 56,
          "midi": 40,
          "name": "E2",
          "ticks": 58272,
          "time": 111.717743,
          "velocity": 0.8582677165354331
        },
        {
          "duration": 0.2933280937499916,
          "durationTicks": 153,
          "midi": 43,
          "name": "G2",
          "ticks": 58368,
          "time": 111.901792,
          "velocity": 0.8582677165354331
        },
        {
          "duration": 0.18404900000000168,
          "durationTicks": 96,
          "midi": 43,
          "name": "G2",
          "ticks": 58560,
          "time": 112.26988999999999,
          "velocity": 0.8582677165354331
        },
        {
          "duration": 0.18404900000000168,
          "durationTicks": 96,
          "midi": 45,
          "name": "A2",
          "ticks": 58656,
          "time": 112.45393899999999,
          "velocity": 0.8582677165354331
        },
        {
          "duration": 0.18404900000000168,
          "durationTicks": 96,
          "midi": 46,
          "name": "A#2",
          "ticks": 58752,
          "time": 112.63798799999999,
          "velocity": 0.8582677165354331
        },
        {
          "duration": 0.18404900000000168,
          "durationTicks": 96,
          "midi": 45,
          "name": "A2",
          "ticks": 58848,
          "time": 112.822037,
          "velocity": 0.8582677165354331
        },
        {
          "duration": 0.18404900000000168,
          "durationTicks": 96,
          "midi": 43,
          "name": "G2",
          "ticks": 58944,
          "time": 113.006086,
          "velocity": 0.8582677165354331
        },
        {
          "duration": 0.18404900000000168,
          "durationTicks": 96,
          "midi": 40,
          "name": "E2",
          "ticks": 59040,
          "time": 113.190135,
          "velocity": 0.8582677165354331
        },
        {
          "duration": 0.4735427395833227,
          "durationTicks": 247,
          "midi": 36,
          "name": "C2",
          "ticks": 59136,
          "time": 113.374184,
          "velocity": 0.8582677165354331
        },
        {
          "duration": 0.16487722916667735,
          "durationTicks": 86,
          "midi": 38,
          "name": "D2",
          "ticks": 59424,
          "time": 113.92633099999999,
          "velocity": 0.8582677165354331
        },
        {
          "duration": 0.11503062500000283,
          "durationTicks": 60,
          "midi": 40,
          "name": "E2",
          "ticks": 59520,
          "time": 114.11037999999999,
          "velocity": 0.8582677165354331
        },
        {
          "duration": 0.20130359374999784,
          "durationTicks": 105,
          "midi": 43,
          "name": "G2",
          "ticks": 59616,
          "time": 114.294429,
          "velocity": 0.8582677165354331
        },
        {
          "duration": 0.09969320833332063,
          "durationTicks": 52,
          "midi": 40,
          "name": "E2",
          "ticks": 59808,
          "time": 114.662527,
          "velocity": 0.8582677165354331
        },
        {
          "duration": 0.4907973333333189,
          "durationTicks": 256,
          "midi": 43,
          "name": "G2",
          "ticks": 59904,
          "time": 114.846576,
          "velocity": 0.8582677165354331
        },
        {
          "duration": 0.11886497916667338,
          "durationTicks": 62,
          "midi": 43,
          "name": "G2",
          "ticks": 60192,
          "time": 115.39872299999999,
          "velocity": 0.8582677165354331
        },
        {
          "duration": 0.15529134374999387,
          "durationTicks": 81,
          "midi": 43,
          "name": "G2",
          "ticks": 60384,
          "time": 115.766821,
          "velocity": 0.8582677165354331
        },
        {
          "duration": 0.12269933333332972,
          "durationTicks": 64,
          "midi": 35,
          "name": "B1",
          "ticks": 60480,
          "time": 115.95087,
          "velocity": 0.8582677165354331
        },
        {
          "duration": 0.11886497916667338,
          "durationTicks": 62,
          "midi": 36,
          "name": "C2",
          "ticks": 60576,
          "time": 116.134919,
          "velocity": 0.8582677165354331
        },
        {
          "duration": 0.381518239583329,
          "durationTicks": 199,
          "midi": 38,
          "name": "D2",
          "ticks": 60672,
          "time": 116.318968,
          "velocity": 0.8818897637795275
        },
        {
          "duration": 0.18788335416667223,
          "durationTicks": 98,
          "midi": 38,
          "name": "D2",
          "ticks": 60960,
          "time": 116.87111499999999,
          "velocity": 0.9763779527559056
        },
        {
          "duration": 0.48504580208333437,
          "durationTicks": 253,
          "midi": 50,
          "name": "D3",
          "ticks": 61152,
          "time": 117.23921299999999,
          "velocity": 0.7480314960629921
        },
        {
          "duration": 0.20705512499999656,
          "durationTicks": 108,
          "midi": 38,
          "name": "D2",
          "ticks": 61440,
          "time": 117.79136,
          "velocity": 0.8818897637795275
        },
        {
          "duration": 0.2856593854166647,
          "durationTicks": 149,
          "midi": 43,
          "name": "G2",
          "ticks": 62208,
          "time": 119.263752,
          "velocity": 0.7480314960629921
        },
        {
          "duration": 0.09010732291666557,
          "durationTicks": 47,
          "midi": 40,
          "name": "E2",
          "ticks": 62400,
          "time": 119.63185,
          "velocity": 0.8818897637795275
        },
        {
          "duration": 0.09777603125000667,
          "durationTicks": 51,
          "midi": 38,
          "name": "D2",
          "ticks": 62496,
          "time": 119.81589899999999,
          "velocity": 0.8818897637795275
        },
        {
          "duration": 0.30483115625000323,
          "durationTicks": 159,
          "midi": 36,
          "name": "C2",
          "ticks": 62592,
          "time": 119.99994799999999,
          "velocity": 0.8818897637795275
        },
        {
          "duration": 0.08243861458332447,
          "durationTicks": 43,
          "midi": 38,
          "name": "D2",
          "ticks": 62784,
          "time": 120.36804599999999,
          "velocity": 0.8818897637795275
        },
        {
          "duration": 0.059432489583329584,
          "durationTicks": 31,
          "midi": 40,
          "name": "E2",
          "ticks": 62880,
          "time": 120.552095,
          "velocity": 0.7480314960629921
        },
        {
          "duration": 0.15912569791666442,
          "durationTicks": 83,
          "midi": 43,
          "name": "G2",
          "ticks": 62976,
          "time": 120.736144,
          "velocity": 0.9763779527559056
        },
        {
          "duration": 0.06901837499999885,
          "durationTicks": 36,
          "midi": 40,
          "name": "E2",
          "ticks": 63072,
          "time": 120.920193,
          "velocity": 0.8818897637795275
        },
        {
          "duration": 0.07860426041666813,
          "durationTicks": 41,
          "midi": 38,
          "name": "D2",
          "ticks": 63168,
          "time": 121.104242,
          "velocity": 0.8818897637795275
        },
        {
          "duration": 0.24731584375000182,
          "durationTicks": 129,
          "midi": 36,
          "name": "C2",
          "ticks": 63264,
          "time": 121.28829099999999,
          "velocity": 0.9763779527559056
        },
        {
          "duration": 0.09202450000000795,
          "durationTicks": 48,
          "midi": 36,
          "name": "C2",
          "ticks": 63456,
          "time": 121.65638899999999,
          "velocity": 0.8818897637795275
        },
        {
          "duration": 0.12269933333332972,
          "durationTicks": 64,
          "midi": 38,
          "name": "D2",
          "ticks": 63552,
          "time": 121.84043799999999,
          "velocity": 0.8818897637795275
        },
        {
          "duration": 0.07476990624999758,
          "durationTicks": 39,
          "midi": 40,
          "name": "E2",
          "ticks": 63648,
          "time": 122.024487,
          "velocity": 0.7480314960629921
        },
        {
          "duration": 0.3163342187500007,
          "durationTicks": 165,
          "midi": 43,
          "name": "G2",
          "ticks": 63744,
          "time": 122.208536,
          "velocity": 0.9763779527559056
        },
        {
          "duration": 0.07093555208332702,
          "durationTicks": 37,
          "midi": 40,
          "name": "E2",
          "ticks": 63936,
          "time": 122.576634,
          "velocity": 0.8818897637795275
        },
        {
          "duration": 0.07476990624999758,
          "durationTicks": 39,
          "midi": 38,
          "name": "D2",
          "ticks": 64032,
          "time": 122.760683,
          "velocity": 0.8818897637795275
        },
        {
          "duration": 0.2856593854166789,
          "durationTicks": 149,
          "midi": 36,
          "name": "C2",
          "ticks": 64128,
          "time": 122.94473199999999,
          "velocity": 0.9763779527559056
        },
        {
          "duration": 0.08435579166668106,
          "durationTicks": 44,
          "midi": 38,
          "name": "D2",
          "ticks": 64320,
          "time": 123.31282999999999,
          "velocity": 0.8818897637795275
        },
        {
          "duration": 0.053680958333330864,
          "durationTicks": 28,
          "midi": 40,
          "name": "E2",
          "ticks": 64416,
          "time": 123.49687899999999,
          "velocity": 0.7480314960629921
        },
        {
          "duration": 0.18021464583333113,
          "durationTicks": 94,
          "midi": 43,
          "name": "G2",
          "ticks": 64512,
          "time": 123.680928,
          "velocity": 0.8818897637795275
        },
        {
          "duration": 0.059432489583329584,
          "durationTicks": 31,
          "midi": 40,
          "name": "E2",
          "ticks": 64608,
          "time": 123.864977,
          "velocity": 0.7480314960629921
        },
        {
          "duration": 0.07668708333332575,
          "durationTicks": 40,
          "midi": 38,
          "name": "D2",
          "ticks": 64704,
          "time": 124.049026,
          "velocity": 0.8818897637795275
        },
        {
          "duration": 0.2703219687499967,
          "durationTicks": 141,
          "midi": 36,
          "name": "C2",
          "ticks": 64800,
          "time": 124.233075,
          "velocity": 0.8818897637795275
        },
        {
          "duration": 0.08627296875000923,
          "durationTicks": 45,
          "midi": 36,
          "name": "C2",
          "ticks": 64992,
          "time": 124.60117299999999,
          "velocity": 0.8818897637795275
        },
        {
          "duration": 0.09969320833333484,
          "durationTicks": 52,
          "midi": 38,
          "name": "D2",
          "ticks": 65088,
          "time": 124.78522199999999,
          "velocity": 0.9763779527559056
        },
        {
          "duration": 0.07860426041666813,
          "durationTicks": 41,
          "midi": 40,
          "name": "E2",
          "ticks": 65184,
          "time": 124.96927099999999,
          "velocity": 0.8818897637795275
        },
        {
          "duration": 0.2914109166666776,
          "durationTicks": 152,
          "midi": 43,
          "name": "G2",
          "ticks": 65280,
          "time": 125.15332,
          "velocity": 0.8818897637795275
        },
        {
          "duration": 0.09202449999999374,
          "durationTicks": 48,
          "midi": 40,
          "name": "E2",
          "ticks": 65472,
          "time": 125.521418,
          "velocity": 0.7480314960629921
        },
        {
          "duration": 0.07668708333332575,
          "durationTicks": 40,
          "midi": 38,
          "name": "D2",
          "ticks": 65568,
          "time": 125.705467,
          "velocity": 0.8818897637795275
        },
        {
          "duration": 0.29524527083331975,
          "durationTicks": 154,
          "midi": 36,
          "name": "C2",
          "ticks": 65664,
          "time": 125.889516,
          "velocity": 0.9763779527559056
        },
        {
          "duration": 0.07285272916668362,
          "durationTicks": 38,
          "midi": 38,
          "name": "D2",
          "ticks": 65856,
          "time": 126.25761399999999,
          "velocity": 0.8818897637795275
        },
        {
          "duration": 0.06901837499999885,
          "durationTicks": 36,
          "midi": 40,
          "name": "E2",
          "ticks": 65952,
          "time": 126.44166299999999,
          "velocity": 0.7480314960629921
        },
        {
          "duration": 0.17829746875000296,
          "durationTicks": 93,
          "midi": 43,
          "name": "G2",
          "ticks": 66048,
          "time": 126.625712,
          "velocity": 0.8818897637795275
        },
        {
          "duration": 0.06326684375000013,
          "durationTicks": 33,
          "midi": 40,
          "name": "E2",
          "ticks": 66144,
          "time": 126.809761,
          "velocity": 0.7480314960629921
        },
        {
          "duration": 0.059432489583329584,
          "durationTicks": 31,
          "midi": 38,
          "name": "D2",
          "ticks": 66240,
          "time": 126.99381,
          "velocity": 0.8818897637795275
        },
        {
          "duration": 0.28757656249999286,
          "durationTicks": 150,
          "midi": 36,
          "name": "C2",
          "ticks": 66336,
          "time": 127.177859,
          "velocity": 0.9763779527559056
        },
        {
          "duration": 0.10544473958333356,
          "durationTicks": 55,
          "midi": 36,
          "name": "C2",
          "ticks": 66528,
          "time": 127.54595699999999,
          "velocity": 0.7480314960629921
        },
        {
          "duration": 0.09777603125000667,
          "durationTicks": 51,
          "midi": 38,
          "name": "D2",
          "ticks": 66624,
          "time": 127.73000599999999,
          "velocity": 0.9763779527559056
        },
        {
          "duration": 0.08627296874999502,
          "durationTicks": 45,
          "midi": 40,
          "name": "E2",
          "ticks": 66720,
          "time": 127.91405499999999,
          "velocity": 0.8818897637795275
        },
        {
          "duration": 0.3431746979166519,
          "durationTicks": 179,
          "midi": 43,
          "name": "G2",
          "ticks": 66816,
          "time": 128.098104,
          "velocity": 0.8818897637795275
        },
        {
          "duration": 0.08435579166669527,
          "durationTicks": 44,
          "midi": 40,
          "name": "E2",
          "ticks": 67008,
          "time": 128.46620199999998,
          "velocity": 0.8818897637795275
        },
        {
          "duration": 0.07668708333332575,
          "durationTicks": 40,
          "midi": 38,
          "name": "D2",
          "ticks": 67104,
          "time": 128.650251,
          "velocity": 0.8818897637795275
        },
        {
          "duration": 0.32016857291668543,
          "durationTicks": 167,
          "midi": 36,
          "name": "C2",
          "ticks": 67200,
          "time": 128.83429999999998,
          "velocity": 0.9763779527559056
        },
        {
          "duration": 0.08627296874999502,
          "durationTicks": 45,
          "midi": 38,
          "name": "D2",
          "ticks": 67392,
          "time": 129.202398,
          "velocity": 0.9763779527559056
        },
        {
          "duration": 0.07668708333332575,
          "durationTicks": 40,
          "midi": 40,
          "name": "E2",
          "ticks": 67488,
          "time": 129.386447,
          "velocity": 0.6299212598425197
        },
        {
          "duration": 0.18596617708331564,
          "durationTicks": 97,
          "midi": 43,
          "name": "G2",
          "ticks": 67584,
          "time": 129.570496,
          "velocity": 0.9763779527559056
        },
        {
          "duration": 0.09777603124999246,
          "durationTicks": 51,
          "midi": 40,
          "name": "E2",
          "ticks": 67680,
          "time": 129.754545,
          "velocity": 0.7480314960629921
        },
        {
          "duration": 0.0805214375000105,
          "durationTicks": 42,
          "midi": 38,
          "name": "D2",
          "ticks": 67776,
          "time": 129.938594,
          "velocity": 0.8818897637795275
        },
        {
          "duration": 0.23772995833334676,
          "durationTicks": 124,
          "midi": 36,
          "name": "C2",
          "ticks": 67872,
          "time": 130.12264299999998,
          "velocity": 0.9763779527559056
        },
        {
          "duration": 0.11311344791667466,
          "durationTicks": 59,
          "midi": 36,
          "name": "C2",
          "ticks": 68064,
          "time": 130.49074099999999,
          "velocity": 0.8818897637795275
        },
        {
          "duration": 0.16679440625000552,
          "durationTicks": 87,
          "midi": 38,
          "name": "D2",
          "ticks": 68160,
          "time": 130.67479,
          "velocity": 0.9763779527559056
        },
        {
          "duration": 0.11119627083331807,
          "durationTicks": 58,
          "midi": 40,
          "name": "E2",
          "ticks": 68256,
          "time": 130.858839,
          "velocity": 0.8818897637795275
        },
        {
          "duration": 0.18404899999998747,
          "durationTicks": 96,
          "midi": 31,
          "name": "G1",
          "ticks": 68352,
          "time": 131.042888,
          "velocity": 0.8740157480314961
        },
        {
          "duration": 1.4474686979166904,
          "durationTicks": 755,
          "midi": 36,
          "name": "C2",
          "ticks": 69120,
          "time": 132.51528,
          "velocity": 0.8740157480314961
        },
        {
          "duration": 1.447468697916662,
          "durationTicks": 755,
          "midi": 31,
          "name": "G1",
          "ticks": 69888,
          "time": 133.987672,
          "velocity": 0.8740157480314961
        },
        {
          "duration": 1.455137406250003,
          "durationTicks": 759,
          "midi": 41,
          "name": "F2",
          "ticks": 70656,
          "time": 135.460064,
          "velocity": 0.8740157480314961
        },
        {
          "duration": 0.16296005208332076,
          "durationTicks": 85,
          "midi": 38,
          "name": "D2",
          "ticks": 71424,
          "time": 136.932456,
          "velocity": 0.8740157480314961
        },
        {
          "duration": 0.08819014583335161,
          "durationTicks": 46,
          "midi": 38,
          "name": "D2",
          "ticks": 72672,
          "time": 139.32509299999998,
          "velocity": 0.8740157480314961
        },
        {
          "duration": 0.29524527083333396,
          "durationTicks": 154,
          "midi": 38,
          "name": "D2",
          "ticks": 72768,
          "time": 139.509142,
          "velocity": 0.8740157480314961
        },
        {
          "duration": 0.2856593854166647,
          "durationTicks": 149,
          "midi": 43,
          "name": "G2",
          "ticks": 72960,
          "time": 139.87724,
          "velocity": 0.7480314960629921
        },
        {
          "duration": 0.09010732291665136,
          "durationTicks": 47,
          "midi": 40,
          "name": "E2",
          "ticks": 73152,
          "time": 140.245338,
          "velocity": 0.8818897637795275
        },
        {
          "duration": 0.09777603124999246,
          "durationTicks": 51,
          "midi": 38,
          "name": "D2",
          "ticks": 73248,
          "time": 140.429387,
          "velocity": 0.8818897637795275
        },
        {
          "duration": 0.30483115625000323,
          "durationTicks": 159,
          "midi": 36,
          "name": "C2",
          "ticks": 73344,
          "time": 140.61343599999998,
          "velocity": 0.8818897637795275
        },
        {
          "duration": 0.08243861458333868,
          "durationTicks": 43,
          "midi": 38,
          "name": "D2",
          "ticks": 73536,
          "time": 140.98153399999998,
          "velocity": 0.8818897637795275
        },
        {
          "duration": 0.05943248958331537,
          "durationTicks": 31,
          "midi": 40,
          "name": "E2",
          "ticks": 73632,
          "time": 141.165583,
          "velocity": 0.7480314960629921
        },
        {
          "duration": 0.15912569791669284,
          "durationTicks": 83,
          "midi": 43,
          "name": "G2",
          "ticks": 73728,
          "time": 141.34963199999999,
          "velocity": 0.9763779527559056
        },
        {
          "duration": 0.06901837499998464,
          "durationTicks": 36,
          "midi": 40,
          "name": "E2",
          "ticks": 73824,
          "time": 141.533681,
          "velocity": 0.8818897637795275
        },
        {
          "duration": 0.07860426041668234,
          "durationTicks": 41,
          "midi": 38,
          "name": "D2",
          "ticks": 73920,
          "time": 141.71773,
          "velocity": 0.8818897637795275
        },
        {
          "duration": 0.2473158437499876,
          "durationTicks": 129,
          "midi": 36,
          "name": "C2",
          "ticks": 74016,
          "time": 141.901779,
          "velocity": 0.9763779527559056
        },
        {
          "duration": 0.09202450000000795,
          "durationTicks": 48,
          "midi": 36,
          "name": "C2",
          "ticks": 74208,
          "time": 142.26987699999998,
          "velocity": 0.8818897637795275
        },
        {
          "duration": 0.12269933333331551,
          "durationTicks": 64,
          "midi": 38,
          "name": "D2",
          "ticks": 74304,
          "time": 142.453926,
          "velocity": 0.8818897637795275
        },
        {
          "duration": 0.07476990624999758,
          "durationTicks": 39,
          "midi": 40,
          "name": "E2",
          "ticks": 74400,
          "time": 142.63797499999998,
          "velocity": 0.7480314960629921
        },
        {
          "duration": 0.3163342187500007,
          "durationTicks": 165,
          "midi": 43,
          "name": "G2",
          "ticks": 74496,
          "time": 142.822024,
          "velocity": 0.9763779527559056
        },
        {
          "duration": 0.07093555208331281,
          "durationTicks": 37,
          "midi": 40,
          "name": "E2",
          "ticks": 74688,
          "time": 143.190122,
          "velocity": 0.8818897637795275
        },
        {
          "duration": 0.07476990624999758,
          "durationTicks": 39,
          "midi": 38,
          "name": "D2",
          "ticks": 74784,
          "time": 143.374171,
          "velocity": 0.8818897637795275
        },
        {
          "duration": 0.2856593854166647,
          "durationTicks": 149,
          "midi": 36,
          "name": "C2",
          "ticks": 74880,
          "time": 143.55822,
          "velocity": 0.9763779527559056
        },
        {
          "duration": 0.08435579166669527,
          "durationTicks": 44,
          "midi": 38,
          "name": "D2",
          "ticks": 75072,
          "time": 143.92631799999998,
          "velocity": 0.8818897637795275
        },
        {
          "duration": 0.053680958333330864,
          "durationTicks": 28,
          "midi": 40,
          "name": "E2",
          "ticks": 75168,
          "time": 144.110367,
          "velocity": 0.7480314960629921
        },
        {
          "duration": 0.18021464583333113,
          "durationTicks": 94,
          "midi": 43,
          "name": "G2",
          "ticks": 75264,
          "time": 144.29441599999998,
          "velocity": 0.8818897637795275
        },
        {
          "duration": 0.05943248958331537,
          "durationTicks": 31,
          "midi": 40,
          "name": "E2",
          "ticks": 75360,
          "time": 144.478465,
          "velocity": 0.7480314960629921
        },
        {
          "duration": 0.07668708333332575,
          "durationTicks": 40,
          "midi": 38,
          "name": "D2",
          "ticks": 75456,
          "time": 144.662514,
          "velocity": 0.8818897637795275
        },
        {
          "duration": 0.2703219687499825,
          "durationTicks": 141,
          "midi": 36,
          "name": "C2",
          "ticks": 75552,
          "time": 144.846563,
          "velocity": 0.8818897637795275
        },
        {
          "duration": 0.08627296875002344,
          "durationTicks": 45,
          "midi": 36,
          "name": "C2",
          "ticks": 75744,
          "time": 145.21466099999998,
          "velocity": 0.8818897637795275
        },
        {
          "duration": 0.09969320833332063,
          "durationTicks": 52,
          "midi": 38,
          "name": "D2",
          "ticks": 75840,
          "time": 145.39871,
          "velocity": 0.9763779527559056
        },
        {
          "duration": 0.07860426041668234,
          "durationTicks": 41,
          "midi": 40,
          "name": "E2",
          "ticks": 75936,
          "time": 145.58275899999998,
          "velocity": 0.8818897637795275
        },
        {
          "duration": 0.2856593854166647,
          "durationTicks": 149,
          "midi": 43,
          "name": "G2",
          "ticks": 76032,
          "time": 145.766808,
          "velocity": 0.7480314960629921
        },
        {
          "duration": 0.09010732291665136,
          "durationTicks": 47,
          "midi": 40,
          "name": "E2",
          "ticks": 76224,
          "time": 146.134906,
          "velocity": 0.8818897637795275
        },
        {
          "duration": 0.09777603124999246,
          "durationTicks": 51,
          "midi": 38,
          "name": "D2",
          "ticks": 76320,
          "time": 146.318955,
          "velocity": 0.8818897637795275
        },
        {
          "duration": 0.3048311562499748,
          "durationTicks": 159,
          "midi": 36,
          "name": "C2",
          "ticks": 76416,
          "time": 146.503004,
          "velocity": 0.8818897637795275
        },
        {
          "duration": 0.08243861458333868,
          "durationTicks": 43,
          "midi": 38,
          "name": "D2",
          "ticks": 76608,
          "time": 146.87110199999998,
          "velocity": 0.8818897637795275
        },
        {
          "duration": 0.05943248958331537,
          "durationTicks": 31,
          "midi": 40,
          "name": "E2",
          "ticks": 76704,
          "time": 147.055151,
          "velocity": 0.7480314960629921
        },
        {
          "duration": 0.15912569791669284,
          "durationTicks": 83,
          "midi": 43,
          "name": "G2",
          "ticks": 76800,
          "time": 147.23919999999998,
          "velocity": 0.9763779527559056
        },
        {
          "duration": 0.06901837499998464,
          "durationTicks": 36,
          "midi": 40,
          "name": "E2",
          "ticks": 76896,
          "time": 147.423249,
          "velocity": 0.8818897637795275
        },
        {
          "duration": 0.07860426041668234,
          "durationTicks": 41,
          "midi": 38,
          "name": "D2",
          "ticks": 76992,
          "time": 147.607298,
          "velocity": 0.8818897637795275
        },
        {
          "duration": 0.2473158437499876,
          "durationTicks": 129,
          "midi": 36,
          "name": "C2",
          "ticks": 77088,
          "time": 147.791347,
          "velocity": 0.9763779527559056
        },
        {
          "duration": 0.09202449999997953,
          "durationTicks": 48,
          "midi": 36,
          "name": "C2",
          "ticks": 77280,
          "time": 148.159445,
          "velocity": 0.8818897637795275
        },
        {
          "duration": 0.12269933333331551,
          "durationTicks": 64,
          "midi": 38,
          "name": "D2",
          "ticks": 77376,
          "time": 148.343494,
          "velocity": 0.8818897637795275
        },
        {
          "duration": 0.074769906250026,
          "durationTicks": 39,
          "midi": 40,
          "name": "E2",
          "ticks": 77472,
          "time": 148.52754299999998,
          "velocity": 0.7480314960629921
        },
        {
          "duration": 0.3163342187500007,
          "durationTicks": 165,
          "midi": 43,
          "name": "G2",
          "ticks": 77568,
          "time": 148.711592,
          "velocity": 0.9763779527559056
        },
        {
          "duration": 0.07093555208331281,
          "durationTicks": 37,
          "midi": 40,
          "name": "E2",
          "ticks": 77760,
          "time": 149.07969,
          "velocity": 0.8818897637795275
        },
        {
          "duration": 0.07476990624999758,
          "durationTicks": 39,
          "midi": 38,
          "name": "D2",
          "ticks": 77856,
          "time": 149.263739,
          "velocity": 0.8818897637795275
        },
        {
          "duration": 0.2856593854166647,
          "durationTicks": 149,
          "midi": 36,
          "name": "C2",
          "ticks": 77952,
          "time": 149.447788,
          "velocity": 0.9763779527559056
        },
        {
          "duration": 0.08435579166666685,
          "durationTicks": 44,
          "midi": 38,
          "name": "D2",
          "ticks": 78144,
          "time": 149.815886,
          "velocity": 0.8818897637795275
        },
        {
          "duration": 0.053680958333330864,
          "durationTicks": 28,
          "midi": 40,
          "name": "E2",
          "ticks": 78240,
          "time": 149.999935,
          "velocity": 0.7480314960629921
        },
        {
          "duration": 0.18021464583333113,
          "durationTicks": 94,
          "midi": 43,
          "name": "G2",
          "ticks": 78336,
          "time": 150.18398399999998,
          "velocity": 0.8818897637795275
        },
        {
          "duration": 0.05943248958331537,
          "durationTicks": 31,
          "midi": 40,
          "name": "E2",
          "ticks": 78432,
          "time": 150.368033,
          "velocity": 0.7480314960629921
        },
        {
          "duration": 0.07668708333332575,
          "durationTicks": 40,
          "midi": 38,
          "name": "D2",
          "ticks": 78528,
          "time": 150.55208199999998,
          "velocity": 0.8818897637795275
        },
        {
          "duration": 0.2703219687499825,
          "durationTicks": 141,
          "midi": 36,
          "name": "C2",
          "ticks": 78624,
          "time": 150.736131,
          "velocity": 0.8818897637795275
        },
        {
          "duration": 0.08627296874999502,
          "durationTicks": 45,
          "midi": 36,
          "name": "C2",
          "ticks": 78816,
          "time": 151.104229,
          "velocity": 0.8818897637795275
        },
        {
          "duration": 0.09969320833332063,
          "durationTicks": 52,
          "midi": 38,
          "name": "D2",
          "ticks": 78912,
          "time": 151.288278,
          "velocity": 0.9763779527559056
        },
        {
          "duration": 0.07860426041668234,
          "durationTicks": 41,
          "midi": 40,
          "name": "E2",
          "ticks": 79008,
          "time": 151.47232699999998,
          "velocity": 0.8818897637795275
        },
        {
          "duration": 0.2856593854166647,
          "durationTicks": 149,
          "midi": 43,
          "name": "G2",
          "ticks": 79104,
          "time": 151.656376,
          "velocity": 0.7480314960629921
        },
        {
          "duration": 0.09010732291667978,
          "durationTicks": 47,
          "midi": 40,
          "name": "E2",
          "ticks": 79296,
          "time": 152.024474,
          "velocity": 0.8818897637795275
        },
        {
          "duration": 0.09777603125002088,
          "durationTicks": 51,
          "midi": 38,
          "name": "D2",
          "ticks": 79392,
          "time": 152.20852299999999,
          "velocity": 0.8818897637795275
        },
        {
          "duration": 0.30483115625000323,
          "durationTicks": 159,
          "midi": 36,
          "name": "C2",
          "ticks": 79488,
          "time": 152.392572,
          "velocity": 0.8818897637795275
        },
        {
          "duration": 0.08243861458331025,
          "durationTicks": 43,
          "midi": 38,
          "name": "D2",
          "ticks": 79680,
          "time": 152.76067,
          "velocity": 0.8818897637795275
        },
        {
          "duration": 0.05943248958331537,
          "durationTicks": 31,
          "midi": 40,
          "name": "E2",
          "ticks": 79776,
          "time": 152.944719,
          "velocity": 0.7480314960629921
        },
        {
          "duration": 0.15912569791669284,
          "durationTicks": 83,
          "midi": 43,
          "name": "G2",
          "ticks": 79872,
          "time": 153.12876799999998,
          "velocity": 0.9763779527559056
        },
        {
          "duration": 0.06901837499998464,
          "durationTicks": 36,
          "midi": 40,
          "name": "E2",
          "ticks": 79968,
          "time": 153.312817,
          "velocity": 0.8818897637795275
        },
        {
          "duration": 0.07860426041668234,
          "durationTicks": 41,
          "midi": 38,
          "name": "D2",
          "ticks": 80064,
          "time": 153.49686599999998,
          "velocity": 0.8818897637795275
        },
        {
          "duration": 0.2473158437499876,
          "durationTicks": 129,
          "midi": 36,
          "name": "C2",
          "ticks": 80160,
          "time": 153.680915,
          "velocity": 0.9763779527559056
        },
        {
          "duration": 0.09202449999997953,
          "durationTicks": 48,
          "midi": 36,
          "name": "C2",
          "ticks": 80352,
          "time": 154.049013,
          "velocity": 0.8818897637795275
        },
        {
          "duration": 0.12269933333331551,
          "durationTicks": 64,
          "midi": 38,
          "name": "D2",
          "ticks": 80448,
          "time": 154.233062,
          "velocity": 0.8818897637795275
        },
        {
          "duration": 0.07476990624999758,
          "durationTicks": 39,
          "midi": 40,
          "name": "E2",
          "ticks": 80544,
          "time": 154.417111,
          "velocity": 0.7480314960629921
        },
        {
          "duration": 0.3163342187500007,
          "durationTicks": 165,
          "midi": 43,
          "name": "G2",
          "ticks": 80640,
          "time": 154.60116,
          "velocity": 0.9763779527559056
        },
        {
          "duration": 0.07093555208331281,
          "durationTicks": 37,
          "midi": 40,
          "name": "E2",
          "ticks": 80832,
          "time": 154.969258,
          "velocity": 0.8818897637795275
        },
        {
          "duration": 0.07476990624999758,
          "durationTicks": 39,
          "midi": 38,
          "name": "D2",
          "ticks": 80928,
          "time": 155.15330699999998,
          "velocity": 0.8818897637795275
        },
        {
          "duration": 0.2856593854166647,
          "durationTicks": 149,
          "midi": 36,
          "name": "C2",
          "ticks": 81024,
          "time": 155.337356,
          "velocity": 0.9763779527559056
        },
        {
          "duration": 0.08435579166666685,
          "durationTicks": 44,
          "midi": 38,
          "name": "D2",
          "ticks": 81216,
          "time": 155.705454,
          "velocity": 0.8818897637795275
        },
        {
          "duration": 0.053680958333330864,
          "durationTicks": 28,
          "midi": 40,
          "name": "E2",
          "ticks": 81312,
          "time": 155.889503,
          "velocity": 0.7480314960629921
        },
        {
          "duration": 0.18021464583333113,
          "durationTicks": 94,
          "midi": 43,
          "name": "G2",
          "ticks": 81408,
          "time": 156.07355199999998,
          "velocity": 0.8818897637795275
        },
        {
          "duration": 0.05943248958331537,
          "durationTicks": 31,
          "midi": 40,
          "name": "E2",
          "ticks": 81504,
          "time": 156.257601,
          "velocity": 0.7480314960629921
        },
        {
          "duration": 0.07668708333332575,
          "durationTicks": 40,
          "midi": 38,
          "name": "D2",
          "ticks": 81600,
          "time": 156.44164999999998,
          "velocity": 0.8818897637795275
        },
        {
          "duration": 0.2703219687499825,
          "durationTicks": 141,
          "midi": 36,
          "name": "C2",
          "ticks": 81696,
          "time": 156.625699,
          "velocity": 0.8818897637795275
        },
        {
          "duration": 0.08627296874999502,
          "durationTicks": 45,
          "midi": 36,
          "name": "C2",
          "ticks": 81888,
          "time": 156.993797,
          "velocity": 0.8818897637795275
        },
        {
          "duration": 0.09969320833332063,
          "durationTicks": 52,
          "midi": 38,
          "name": "D2",
          "ticks": 81984,
          "time": 157.177846,
          "velocity": 0.9763779527559056
        },
        {
          "duration": 0.07860426041665391,
          "durationTicks": 41,
          "midi": 40,
          "name": "E2",
          "ticks": 82080,
          "time": 157.361895,
          "velocity": 0.8818897637795275
        },
        {
          "duration": 0.2856593854166647,
          "durationTicks": 149,
          "midi": 43,
          "name": "G2",
          "ticks": 82176,
          "time": 157.545944,
          "velocity": 0.7480314960629921
        },
        {
          "duration": 0.09010732291667978,
          "durationTicks": 47,
          "midi": 40,
          "name": "E2",
          "ticks": 82368,
          "time": 157.914042,
          "velocity": 0.8818897637795275
        },
        {
          "duration": 0.09777603125002088,
          "durationTicks": 51,
          "midi": 38,
          "name": "D2",
          "ticks": 82464,
          "time": 158.09809099999998,
          "velocity": 0.8818897637795275
        },
        {
          "duration": 0.30483115625000323,
          "durationTicks": 159,
          "midi": 36,
          "name": "C2",
          "ticks": 82560,
          "time": 158.28214,
          "velocity": 0.8818897637795275
        },
        {
          "duration": 0.08243861458331025,
          "durationTicks": 43,
          "midi": 38,
          "name": "D2",
          "ticks": 82752,
          "time": 158.650238,
          "velocity": 0.8818897637795275
        },
        {
          "duration": 0.05943248958331537,
          "durationTicks": 31,
          "midi": 40,
          "name": "E2",
          "ticks": 82848,
          "time": 158.834287,
          "velocity": 0.7480314960629921
        },
        {
          "duration": 0.15912569791666442,
          "durationTicks": 83,
          "midi": 43,
          "name": "G2",
          "ticks": 82944,
          "time": 159.018336,
          "velocity": 0.9763779527559056
        },
        {
          "duration": 0.06901837500001307,
          "durationTicks": 36,
          "midi": 40,
          "name": "E2",
          "ticks": 83040,
          "time": 159.202385,
          "velocity": 0.8818897637795275
        },
        {
          "duration": 0.07860426041668234,
          "durationTicks": 41,
          "midi": 38,
          "name": "D2",
          "ticks": 83136,
          "time": 159.38643399999998,
          "velocity": 0.8818897637795275
        },
        {
          "duration": 0.2473158437499876,
          "durationTicks": 129,
          "midi": 36,
          "name": "C2",
          "ticks": 83232,
          "time": 159.570483,
          "velocity": 0.9763779527559056
        },
        {
          "duration": 0.09202449999997953,
          "durationTicks": 48,
          "midi": 36,
          "name": "C2",
          "ticks": 83424,
          "time": 159.938581,
          "velocity": 0.8818897637795275
        },
        {
          "duration": 0.12269933333334393,
          "durationTicks": 64,
          "midi": 38,
          "name": "D2",
          "ticks": 83520,
          "time": 160.12263,
          "velocity": 0.8818897637795275
        },
        {
          "duration": 0.07476990624999758,
          "durationTicks": 39,
          "midi": 40,
          "name": "E2",
          "ticks": 83616,
          "time": 160.306679,
          "velocity": 0.7480314960629921
        },
        {
          "duration": 0.3163342187500007,
          "durationTicks": 165,
          "midi": 43,
          "name": "G2",
          "ticks": 83712,
          "time": 160.490728,
          "velocity": 0.9763779527559056
        },
        {
          "duration": 0.07093555208331281,
          "durationTicks": 37,
          "midi": 40,
          "name": "E2",
          "ticks": 83904,
          "time": 160.858826,
          "velocity": 0.8818897637795275
        },
        {
          "duration": 0.07476990624999758,
          "durationTicks": 39,
          "midi": 38,
          "name": "D2",
          "ticks": 84000,
          "time": 161.04287499999998,
          "velocity": 0.8818897637795275
        },
        {
          "duration": 0.2856593854166647,
          "durationTicks": 149,
          "midi": 36,
          "name": "C2",
          "ticks": 84096,
          "time": 161.226924,
          "velocity": 0.9763779527559056
        },
        {
          "duration": 0.08435579166666685,
          "durationTicks": 44,
          "midi": 38,
          "name": "D2",
          "ticks": 84288,
          "time": 161.595022,
          "velocity": 0.8818897637795275
        },
        {
          "duration": 0.053680958333330864,
          "durationTicks": 28,
          "midi": 40,
          "name": "E2",
          "ticks": 84384,
          "time": 161.779071,
          "velocity": 0.7480314960629921
        },
        {
          "duration": 0.1802146458333027,
          "durationTicks": 94,
          "midi": 43,
          "name": "G2",
          "ticks": 84480,
          "time": 161.96312,
          "velocity": 0.8818897637795275
        },
        {
          "duration": 0.05943248958331537,
          "durationTicks": 31,
          "midi": 40,
          "name": "E2",
          "ticks": 84576,
          "time": 162.147169,
          "velocity": 0.7480314960629921
        },
        {
          "duration": 0.07668708333332575,
          "durationTicks": 40,
          "midi": 38,
          "name": "D2",
          "ticks": 84672,
          "time": 162.33121799999998,
          "velocity": 0.8818897637795275
        },
        {
          "duration": 0.2703219687500109,
          "durationTicks": 141,
          "midi": 36,
          "name": "C2",
          "ticks": 84768,
          "time": 162.515267,
          "velocity": 0.8818897637795275
        },
        {
          "duration": 0.08627296874999502,
          "durationTicks": 45,
          "midi": 36,
          "name": "C2",
          "ticks": 84960,
          "time": 162.883365,
          "velocity": 0.8818897637795275
        },
        {
          "duration": 0.09969320833332063,
          "durationTicks": 52,
          "midi": 38,
          "name": "D2",
          "ticks": 85056,
          "time": 163.06741399999999,
          "velocity": 0.9763779527559056
        },
        {
          "duration": 0.07860426041665391,
          "durationTicks": 41,
          "midi": 40,
          "name": "E2",
          "ticks": 85152,
          "time": 163.251463,
          "velocity": 0.8818897637795275
        },
        {
          "duration": 0.2856593854166647,
          "durationTicks": 149,
          "midi": 43,
          "name": "G2",
          "ticks": 85248,
          "time": 163.435512,
          "velocity": 0.7480314960629921
        },
        {
          "duration": 0.09010732291667978,
          "durationTicks": 47,
          "midi": 40,
          "name": "E2",
          "ticks": 85440,
          "time": 163.80361,
          "velocity": 0.8818897637795275
        },
        {
          "duration": 0.09777603125002088,
          "durationTicks": 51,
          "midi": 38,
          "name": "D2",
          "ticks": 85536,
          "time": 163.98765899999998,
          "velocity": 0.8818897637795275
        },
        {
          "duration": 0.30483115625000323,
          "durationTicks": 159,
          "midi": 36,
          "name": "C2",
          "ticks": 85632,
          "time": 164.171708,
          "velocity": 0.8818897637795275
        },
        {
          "duration": 0.08243861458331025,
          "durationTicks": 43,
          "midi": 38,
          "name": "D2",
          "ticks": 85824,
          "time": 164.539806,
          "velocity": 0.8818897637795275
        },
        {
          "duration": 0.059432489583343795,
          "durationTicks": 31,
          "midi": 40,
          "name": "E2",
          "ticks": 85920,
          "time": 164.723855,
          "velocity": 0.7480314960629921
        },
        {
          "duration": 0.15912569791666442,
          "durationTicks": 83,
          "midi": 43,
          "name": "G2",
          "ticks": 86016,
          "time": 164.907904,
          "velocity": 0.9763779527559056
        },
        {
          "duration": 0.06901837500001307,
          "durationTicks": 36,
          "midi": 40,
          "name": "E2",
          "ticks": 86112,
          "time": 165.091953,
          "velocity": 0.8818897637795275
        },
        {
          "duration": 0.07860426041665391,
          "durationTicks": 41,
          "midi": 38,
          "name": "D2",
          "ticks": 86208,
          "time": 165.276002,
          "velocity": 0.8818897637795275
        },
        {
          "duration": 0.2473158437499876,
          "durationTicks": 129,
          "midi": 36,
          "name": "C2",
          "ticks": 86304,
          "time": 165.460051,
          "velocity": 0.9763779527559056
        },
        {
          "duration": 0.09202450000000795,
          "durationTicks": 48,
          "midi": 36,
          "name": "C2",
          "ticks": 86496,
          "time": 165.828149,
          "velocity": 0.8818897637795275
        },
        {
          "duration": 0.12269933333334393,
          "durationTicks": 64,
          "midi": 38,
          "name": "D2",
          "ticks": 86592,
          "time": 166.01219799999998,
          "velocity": 0.8818897637795275
        },
        {
          "duration": 0.07476990624999758,
          "durationTicks": 39,
          "midi": 40,
          "name": "E2",
          "ticks": 86688,
          "time": 166.196247,
          "velocity": 0.7480314960629921
        },
        {
          "duration": 0.3163342187500007,
          "durationTicks": 165,
          "midi": 43,
          "name": "G2",
          "ticks": 86784,
          "time": 166.380296,
          "velocity": 0.9763779527559056
        },
        {
          "duration": 0.07093555208334124,
          "durationTicks": 37,
          "midi": 40,
          "name": "E2",
          "ticks": 86976,
          "time": 166.748394,
          "velocity": 0.8818897637795275
        },
        {
          "duration": 0.074769906250026,
          "durationTicks": 39,
          "midi": 38,
          "name": "D2",
          "ticks": 87072,
          "time": 166.93244299999998,
          "velocity": 0.8818897637795275
        },
        {
          "duration": 0.2856593854166647,
          "durationTicks": 149,
          "midi": 36,
          "name": "C2",
          "ticks": 87168,
          "time": 167.116492,
          "velocity": 0.9763779527559056
        },
        {
          "duration": 0.08435579166666685,
          "durationTicks": 44,
          "midi": 38,
          "name": "D2",
          "ticks": 87360,
          "time": 167.48459,
          "velocity": 0.8818897637795275
        },
        {
          "duration": 0.053680958333330864,
          "durationTicks": 28,
          "midi": 40,
          "name": "E2",
          "ticks": 87456,
          "time": 167.66863899999998,
          "velocity": 0.7480314960629921
        },
        {
          "duration": 0.18021464583333113,
          "durationTicks": 94,
          "midi": 43,
          "name": "G2",
          "ticks": 87552,
          "time": 167.852688,
          "velocity": 0.8818897637795275
        },
        {
          "duration": 0.05943248958331537,
          "durationTicks": 31,
          "midi": 40,
          "name": "E2",
          "ticks": 87648,
          "time": 168.036737,
          "velocity": 0.7480314960629921
        },
        {
          "duration": 0.07668708333332575,
          "durationTicks": 40,
          "midi": 38,
          "name": "D2",
          "ticks": 87744,
          "time": 168.220786,
          "velocity": 0.8818897637795275
        },
        {
          "duration": 0.2703219687500109,
          "durationTicks": 141,
          "midi": 36,
          "name": "C2",
          "ticks": 87840,
          "time": 168.404835,
          "velocity": 0.8818897637795275
        },
        {
          "duration": 0.08627296874999502,
          "durationTicks": 45,
          "midi": 36,
          "name": "C2",
          "ticks": 88032,
          "time": 168.772933,
          "velocity": 0.8818897637795275
        },
        {
          "duration": 0.09969320833334905,
          "durationTicks": 52,
          "midi": 38,
          "name": "D2",
          "ticks": 88128,
          "time": 168.95698199999998,
          "velocity": 0.9763779527559056
        },
        {
          "duration": 0.07860426041665391,
          "durationTicks": 41,
          "midi": 40,
          "name": "E2",
          "ticks": 88224,
          "time": 169.141031,
          "velocity": 0.8818897637795275
        },
        {
          "duration": 0.2856593854166931,
          "durationTicks": 149,
          "midi": 43,
          "name": "G2",
          "ticks": 88320,
          "time": 169.32507999999999,
          "velocity": 0.7480314960629921
        },
        {
          "duration": 0.09010732291667978,
          "durationTicks": 47,
          "midi": 40,
          "name": "E2",
          "ticks": 88512,
          "time": 169.693178,
          "velocity": 0.8818897637795275
        },
        {
          "duration": 0.09777603124999246,
          "durationTicks": 51,
          "midi": 38,
          "name": "D2",
          "ticks": 88608,
          "time": 169.877227,
          "velocity": 0.8818897637795275
        },
        {
          "duration": 0.30483115625000323,
          "durationTicks": 159,
          "midi": 36,
          "name": "C2",
          "ticks": 88704,
          "time": 170.061276,
          "velocity": 0.8818897637795275
        },
        {
          "duration": 0.08243861458331025,
          "durationTicks": 43,
          "midi": 38,
          "name": "D2",
          "ticks": 88896,
          "time": 170.429374,
          "velocity": 0.8818897637795275
        },
        {
          "duration": 0.059432489583343795,
          "durationTicks": 31,
          "midi": 40,
          "name": "E2",
          "ticks": 88992,
          "time": 170.61342299999998,
          "velocity": 0.7480314960629921
        },
        {
          "duration": 0.15912569791666442,
          "durationTicks": 83,
          "midi": 43,
          "name": "G2",
          "ticks": 89088,
          "time": 170.797472,
          "velocity": 0.9763779527559056
        },
        {
          "duration": 0.06901837500001307,
          "durationTicks": 36,
          "midi": 40,
          "name": "E2",
          "ticks": 89184,
          "time": 170.981521,
          "velocity": 0.8818897637795275
        },
        {
          "duration": 0.07860426041665391,
          "durationTicks": 41,
          "midi": 38,
          "name": "D2",
          "ticks": 89280,
          "time": 171.16557,
          "velocity": 0.8818897637795275
        },
        {
          "duration": 0.2473158437499876,
          "durationTicks": 129,
          "midi": 36,
          "name": "C2",
          "ticks": 89376,
          "time": 171.349619,
          "velocity": 0.9763779527559056
        },
        {
          "duration": 0.09202450000000795,
          "durationTicks": 48,
          "midi": 36,
          "name": "C2",
          "ticks": 89568,
          "time": 171.717717,
          "velocity": 0.8818897637795275
        },
        {
          "duration": 0.12269933333334393,
          "durationTicks": 64,
          "midi": 38,
          "name": "D2",
          "ticks": 89664,
          "time": 171.90176599999998,
          "velocity": 0.8818897637795275
        },
        {
          "duration": 0.07476990624999758,
          "durationTicks": 39,
          "midi": 40,
          "name": "E2",
          "ticks": 89760,
          "time": 172.085815,
          "velocity": 0.7480314960629921
        },
        {
          "duration": 0.3163342187500007,
          "durationTicks": 165,
          "midi": 43,
          "name": "G2",
          "ticks": 89856,
          "time": 172.26986399999998,
          "velocity": 0.9763779527559056
        },
        {
          "duration": 0.07093555208334124,
          "durationTicks": 37,
          "midi": 40,
          "name": "E2",
          "ticks": 90048,
          "time": 172.637962,
          "velocity": 0.8818897637795275
        },
        {
          "duration": 0.07476990624999758,
          "durationTicks": 39,
          "midi": 38,
          "name": "D2",
          "ticks": 90144,
          "time": 172.822011,
          "velocity": 0.8818897637795275
        },
        {
          "duration": 0.2856593854166647,
          "durationTicks": 149,
          "midi": 36,
          "name": "C2",
          "ticks": 90240,
          "time": 173.00606,
          "velocity": 0.9763779527559056
        },
        {
          "duration": 0.08435579166666685,
          "durationTicks": 44,
          "midi": 38,
          "name": "D2",
          "ticks": 90432,
          "time": 173.374158,
          "velocity": 0.8818897637795275
        },
        {
          "duration": 0.053680958333330864,
          "durationTicks": 28,
          "midi": 40,
          "name": "E2",
          "ticks": 90528,
          "time": 173.55820699999998,
          "velocity": 0.7480314960629921
        },
        {
          "duration": 0.18021464583333113,
          "durationTicks": 94,
          "midi": 43,
          "name": "G2",
          "ticks": 90624,
          "time": 173.742256,
          "velocity": 0.8818897637795275
        },
        {
          "duration": 0.059432489583343795,
          "durationTicks": 31,
          "midi": 40,
          "name": "E2",
          "ticks": 90720,
          "time": 173.92630499999999,
          "velocity": 0.7480314960629921
        },
        {
          "duration": 0.07668708333332575,
          "durationTicks": 40,
          "midi": 38,
          "name": "D2",
          "ticks": 90816,
          "time": 174.110354,
          "velocity": 0.8818897637795275
        },
        {
          "duration": 0.2703219687500109,
          "durationTicks": 141,
          "midi": 36,
          "name": "C2",
          "ticks": 90912,
          "time": 174.294403,
          "velocity": 0.8818897637795275
        },
        {
          "duration": 0.08627296874999502,
          "durationTicks": 45,
          "midi": 36,
          "name": "C2",
          "ticks": 91104,
          "time": 174.662501,
          "velocity": 0.8818897637795275
        },
        {
          "duration": 0.09969320833334905,
          "durationTicks": 52,
          "midi": 38,
          "name": "D2",
          "ticks": 91200,
          "time": 174.84654999999998,
          "velocity": 0.9763779527559056
        },
        {
          "duration": 0.07860426041668234,
          "durationTicks": 41,
          "midi": 40,
          "name": "E2",
          "ticks": 91296,
          "time": 175.030599,
          "velocity": 0.8818897637795275
        },
        {
          "duration": 0.17829746875000296,
          "durationTicks": 93,
          "midi": 43,
          "name": "G2",
          "ticks": 91392,
          "time": 175.21464799999998,
          "velocity": 0.8740157480314961
        }
      ]
    },
    {
      "channel": 0,
      "controlChanges": {
        "0": [
          {
            "number": 0,
            "ticks": 578,
            "time": 1.1081283541666667,
            "value": 0
          }
        ],
        "1": [
          {
            "number": 1,
            "ticks": 8,
            "time": 0.015337416666666666,
            "value": 0
          }
        ],
        "6": [
          {
            "number": 6,
            "ticks": 6,
            "time": 0.0115030625,
            "value": 0.09448818897637795
          }
        ],
        "7": [
          {
            "number": 7,
            "ticks": 0,
            "time": 0,
            "value": 0.7874015748031497
          }
        ],
        "10": [
          {
            "number": 10,
            "ticks": 0,
            "time": 0,
            "value": 0.5039370078740157
          }
        ],
        "11": [
          {
            "number": 11,
            "ticks": 7,
            "time": 0.013420239583333333,
            "value": 1
          },
          {
            "number": 11,
            "ticks": 10,
            "time": 0.019171770833333334,
            "value": 1
          }
        ],
        "32": [
          {
            "number": 32,
            "ticks": 578,
            "time": 1.1081283541666667,
            "value": 0
          }
        ],
        "38": [
          {
            "number": 38,
            "ticks": 6,
            "time": 0.0115030625,
            "value": 0
          }
        ],
        "64": [
          {
            "number": 64,
            "ticks": 3,
            "time": 0.00575153125,
            "value": 0
          }
        ],
        "67": [
          {
            "number": 67,
            "ticks": 2,
            "time": 0.0038343541666666665,
            "value": 0
          }
        ],
        "100": [
          {
            "number": 100,
            "ticks": 6,
            "time": 0.0115030625,
            "value": 0
          }
        ],
        "101": [
          {
            "number": 101,
            "ticks": 6,
            "time": 0.0115030625,
            "value": 0
          }
        ],
        "121": [
          {
            "number": 121,
            "ticks": 0,
            "time": 0,
            "value": 0
          }
        ]
      },
      "pitchBends": [],
      "instrument": {
        "family": "piano",
        "number": 0,
        "name": "acoustic grand piano"
      },
      "name": "tk3",
      "notes": [],
      "endOfTrackTicks": 91596
    },
    {
      "channel": 2,
      "controlChanges": {
        "7": [
          {
            "number": 7,
            "ticks": 580,
            "time": 1.1119627083333334,
            "value": 0.6299212598425197
          }
        ],
        "11": [
          {
            "number": 11,
            "ticks": 584,
            "time": 1.1196314166666665,
            "value": 1
          }
        ],
        "91": [
          {
            "number": 91,
            "ticks": 586,
            "time": 1.1234657708333333,
            "value": 0.3464566929133858
          }
        ],
        "93": [
          {
            "number": 93,
            "ticks": 588,
            "time": 1.1273001249999999,
            "value": 0.5039370078740157
          }
        ]
      },
      "pitchBends": [],
      "instrument": {
        "family": "organ",
        "number": 17,
        "name": "percussive organ"
      },
      "name": "",
      "notes": [
        {
          "duration": 0.08243861458333335,
          "durationTicks": 43,
          "midi": 79,
          "name": "G5",
          "ticks": 1440,
          "time": 2.760735,
          "velocity": 0.7086614173228346
        },
        {
          "duration": 0.2530673750000001,
          "durationTicks": 132,
          "midi": 79,
          "name": "G5",
          "ticks": 1536,
          "time": 2.944784,
          "velocity": 0.7086614173228346
        },
        {
          "duration": 0.23772995833333344,
          "durationTicks": 124,
          "midi": 86,
          "name": "D6",
          "ticks": 1536,
          "time": 2.944784,
          "velocity": 0.7086614173228346
        },
        {
          "duration": 0.24923302083333354,
          "durationTicks": 130,
          "midi": 89,
          "name": "F6",
          "ticks": 1536,
          "time": 2.944784,
          "velocity": 0.7086614173228346
        },
        {
          "duration": 0.20897230208333362,
          "durationTicks": 109,
          "midi": 89,
          "name": "F6",
          "ticks": 1728,
          "time": 3.3128819999999997,
          "velocity": 0.7086614173228346
        },
        {
          "duration": 0.2396471354166665,
          "durationTicks": 125,
          "midi": 79,
          "name": "G5",
          "ticks": 1728,
          "time": 3.3128819999999997,
          "velocity": 0.7086614173228346
        },
        {
          "duration": 0.21088947916666667,
          "durationTicks": 110,
          "midi": 86,
          "name": "D6",
          "ticks": 1728,
          "time": 3.3128819999999997,
          "velocity": 0.7086614173228346
        },
        {
          "duration": 0.24923302083333354,
          "durationTicks": 130,
          "midi": 88,
          "name": "E6",
          "ticks": 1920,
          "time": 3.68098,
          "velocity": 0.7086614173228346
        },
        {
          "duration": 0.24731584375000004,
          "durationTicks": 129,
          "midi": 79,
          "name": "G5",
          "ticks": 1920,
          "time": 3.68098,
          "velocity": 0.7086614173228346
        },
        {
          "duration": 0.23389560416666644,
          "durationTicks": 122,
          "midi": 84,
          "name": "C6",
          "ticks": 1920,
          "time": 3.68098,
          "velocity": 0.7086614173228346
        },
        {
          "duration": 0.26457043749999976,
          "durationTicks": 138,
          "midi": 79,
          "name": "G5",
          "ticks": 2112,
          "time": 4.049078,
          "velocity": 0.7086614173228346
        },
        {
          "duration": 0.24156431250000043,
          "durationTicks": 126,
          "midi": 84,
          "name": "C6",
          "ticks": 2112,
          "time": 4.049078,
          "velocity": 0.7086614173228346
        },
        {
          "duration": 0.25306737499999965,
          "durationTicks": 132,
          "midi": 88,
          "name": "E6",
          "ticks": 2112,
          "time": 4.049078,
          "velocity": 0.7086614173228346
        },
        {
          "duration": 0.12269933333333416,
          "durationTicks": 64,
          "midi": 86,
          "name": "D6",
          "ticks": 2304,
          "time": 4.4171759999999995,
          "velocity": 0.7086614173228346
        },
        {
          "duration": 0.14953981250000048,
          "durationTicks": 78,
          "midi": 79,
          "name": "G5",
          "ticks": 2304,
          "time": 4.4171759999999995,
          "velocity": 0.7086614173228346
        },
        {
          "duration": 0.13036804166666638,
          "durationTicks": 68,
          "midi": 83,
          "name": "B5",
          "ticks": 2304,
          "time": 4.4171759999999995,
          "velocity": 0.7086614173228346
        },
        {
          "duration": 1.4723920000000028,
          "durationTicks": 768,
          "midi": 79,
          "name": "G5",
          "ticks": 9984,
          "time": 19.141095999999997,
          "velocity": 0.7086614173228346
        },
        {
          "duration": 1.4723920000000028,
          "durationTicks": 768,
          "midi": 84,
          "name": "C6",
          "ticks": 9984,
          "time": 19.141095999999997,
          "velocity": 0.7086614173228346
        },
        {
          "duration": 1.4762263541666663,
          "durationTicks": 770,
          "midi": 88,
          "name": "E6",
          "ticks": 9984,
          "time": 19.141095999999997,
          "velocity": 0.7086614173228346
        },
        {
          "duration": 1.4723919999999993,
          "durationTicks": 768,
          "midi": 79,
          "name": "G5",
          "ticks": 10752,
          "time": 20.613488,
          "velocity": 0.7086614173228346
        },
        {
          "duration": 1.4723919999999993,
          "durationTicks": 768,
          "midi": 83,
          "name": "B5",
          "ticks": 10752,
          "time": 20.613488,
          "velocity": 0.7086614173228346
        },
        {
          "duration": 1.4723919999999993,
          "durationTicks": 768,
          "midi": 86,
          "name": "D6",
          "ticks": 10752,
          "time": 20.613488,
          "velocity": 0.7086614173228346
        },
        {
          "duration": 1.4723919999999993,
          "durationTicks": 768,
          "midi": 88,
          "name": "E6",
          "ticks": 11520,
          "time": 22.08588,
          "velocity": 0.7086614173228346
        },
        {
          "duration": 1.4723919999999993,
          "durationTicks": 768,
          "midi": 84,
          "name": "C6",
          "ticks": 11520,
          "time": 22.08588,
          "velocity": 0.7086614173228346
        },
        {
          "duration": 1.4723919999999993,
          "durationTicks": 768,
          "midi": 79,
          "name": "G5",
          "ticks": 11520,
          "time": 22.08588,
          "velocity": 0.7086614173228346
        },
        {
          "duration": 1.4723919999999993,
          "durationTicks": 768,
          "midi": 83,
          "name": "B5",
          "ticks": 12288,
          "time": 23.558272,
          "velocity": 0.7086614173228346
        },
        {
          "duration": 1.4723919999999993,
          "durationTicks": 768,
          "midi": 79,
          "name": "G5",
          "ticks": 12288,
          "time": 23.558272,
          "velocity": 0.7086614173228346
        },
        {
          "duration": 1.4723919999999993,
          "durationTicks": 768,
          "midi": 86,
          "name": "D6",
          "ticks": 12288,
          "time": 23.558272,
          "velocity": 0.7086614173228346
        },
        {
          "duration": 1.4723919999999993,
          "durationTicks": 768,
          "midi": 79,
          "name": "G5",
          "ticks": 13056,
          "time": 25.030663999999998,
          "velocity": 0.7086614173228346
        },
        {
          "duration": 1.4723919999999993,
          "durationTicks": 768,
          "midi": 88,
          "name": "E6",
          "ticks": 13056,
          "time": 25.030663999999998,
          "velocity": 0.7086614173228346
        },
        {
          "duration": 1.4723919999999993,
          "durationTicks": 768,
          "midi": 84,
          "name": "C6",
          "ticks": 13056,
          "time": 25.030663999999998,
          "velocity": 0.7086614173228346
        },
        {
          "duration": 1.4723920000000028,
          "durationTicks": 768,
          "midi": 86,
          "name": "D6",
          "ticks": 13824,
          "time": 26.503055999999997,
          "velocity": 0.7086614173228346
        },
        {
          "duration": 1.4723920000000028,
          "durationTicks": 768,
          "midi": 79,
          "name": "G5",
          "ticks": 13824,
          "time": 26.503055999999997,
          "velocity": 0.7086614173228346
        },
        {
          "duration": 1.4723920000000028,
          "durationTicks": 768,
          "midi": 83,
          "name": "B5",
          "ticks": 13824,
          "time": 26.503055999999997,
          "velocity": 0.7086614173228346
        },
        {
          "duration": 1.4723919999999993,
          "durationTicks": 768,
          "midi": 86,
          "name": "D6",
          "ticks": 14592,
          "time": 27.975448,
          "velocity": 0.7086614173228346
        },
        {
          "duration": 1.4723919999999993,
          "durationTicks": 768,
          "midi": 81,
          "name": "A5",
          "ticks": 14592,
          "time": 27.975448,
          "velocity": 0.7086614173228346
        },
        {
          "duration": 1.4723919999999993,
          "durationTicks": 768,
          "midi": 78,
          "name": "F#5",
          "ticks": 14592,
          "time": 27.975448,
          "velocity": 0.7086614173228346
        },
        {
          "duration": 0.1457054583333317,
          "durationTicks": 76,
          "midi": 81,
          "name": "A5",
          "ticks": 15360,
          "time": 29.44784,
          "velocity": 0.7086614173228346
        },
        {
          "duration": 0.1457054583333317,
          "durationTicks": 76,
          "midi": 86,
          "name": "D6",
          "ticks": 15360,
          "time": 29.44784,
          "velocity": 0.7086614173228346
        },
        {
          "duration": 0.14762263541666698,
          "durationTicks": 77,
          "midi": 78,
          "name": "F#5",
          "ticks": 15360,
          "time": 29.44784,
          "velocity": 0.7086614173228346
        },
        {
          "duration": 0.09969320833333128,
          "durationTicks": 52,
          "midi": 79,
          "name": "G5",
          "ticks": 16032,
          "time": 30.736182999999997,
          "velocity": 0.7086614173228346
        },
        {
          "duration": 0.260736083333331,
          "durationTicks": 136,
          "midi": 89,
          "name": "F6",
          "ticks": 16128,
          "time": 30.920232,
          "velocity": 0.7086614173228346
        },
        {
          "duration": 0.26457043750000153,
          "durationTicks": 138,
          "midi": 86,
          "name": "D6",
          "ticks": 16128,
          "time": 30.920232,
          "velocity": 0.7086614173228346
        },
        {
          "duration": 0.26840479166666853,
          "durationTicks": 140,
          "midi": 79,
          "name": "G5",
          "ticks": 16128,
          "time": 30.920232,
          "velocity": 0.7086614173228346
        },
        {
          "duration": 0.24923302083333,
          "durationTicks": 130,
          "midi": 89,
          "name": "F6",
          "ticks": 16320,
          "time": 31.28833,
          "velocity": 0.7086614173228346
        },
        {
          "duration": 0.24923302083333,
          "durationTicks": 130,
          "midi": 86,
          "name": "D6",
          "ticks": 16320,
          "time": 31.28833,
          "velocity": 0.7086614173228346
        },
        {
          "duration": 0.25690172916666754,
          "durationTicks": 134,
          "midi": 79,
          "name": "G5",
          "ticks": 16320,
          "time": 31.28833,
          "velocity": 0.7086614173228346
        },
        {
          "duration": 0.25498455208333226,
          "durationTicks": 133,
          "midi": 84,
          "name": "C6",
          "ticks": 16512,
          "time": 31.656428,
          "velocity": 0.7086614173228346
        },
        {
          "duration": 0.2626532604166698,
          "durationTicks": 137,
          "midi": 79,
          "name": "G5",
          "ticks": 16512,
          "time": 31.656428,
          "velocity": 0.7086614173228346
        },
        {
          "duration": 0.25690172916666754,
          "durationTicks": 134,
          "midi": 88,
          "name": "E6",
          "ticks": 16512,
          "time": 31.656428,
          "velocity": 0.7086614173228346
        },
        {
          "duration": 0.264570437499998,
          "durationTicks": 138,
          "midi": 88,
          "name": "E6",
          "ticks": 16704,
          "time": 32.024526,
          "velocity": 0.7086614173228346
        },
        {
          "duration": 0.27990785416666597,
          "durationTicks": 146,
          "midi": 84,
          "name": "C6",
          "ticks": 16704,
          "time": 32.024526,
          "velocity": 0.7086614173228346
        },
        {
          "duration": 0.27990785416666597,
          "durationTicks": 146,
          "midi": 79,
          "name": "G5",
          "ticks": 16704,
          "time": 32.024526,
          "velocity": 0.7086614173228346
        },
        {
          "duration": 0.1821318229166664,
          "durationTicks": 95,
          "midi": 79,
          "name": "G5",
          "ticks": 16896,
          "time": 32.392624,
          "velocity": 0.7086614173228346
        },
        {
          "duration": 0.15529134375000098,
          "durationTicks": 81,
          "midi": 83,
          "name": "B5",
          "ticks": 16896,
          "time": 32.392624,
          "velocity": 0.7086614173228346
        },
        {
          "duration": 0.16296005208333497,
          "durationTicks": 85,
          "midi": 86,
          "name": "D6",
          "ticks": 16896,
          "time": 32.392624,
          "velocity": 0.7086614173228346
        },
        {
          "duration": 0.06518402083333541,
          "durationTicks": 34,
          "midi": 79,
          "name": "G5",
          "ticks": 17568,
          "time": 33.680966999999995,
          "velocity": 0.7086614173228346
        },
        {
          "duration": 0.24731584375000182,
          "durationTicks": 129,
          "midi": 89,
          "name": "F6",
          "ticks": 17664,
          "time": 33.865016,
          "velocity": 0.7086614173228346
        },
        {
          "duration": 0.24731584375000182,
          "durationTicks": 129,
          "midi": 86,
          "name": "D6",
          "ticks": 17664,
          "time": 33.865016,
          "velocity": 0.7086614173228346
        },
        {
          "duration": 0.24348148958333127,
          "durationTicks": 127,
          "midi": 79,
          "name": "G5",
          "ticks": 17664,
          "time": 33.865016,
          "velocity": 0.7086614173228346
        },
        {
          "duration": 0.226226895833328,
          "durationTicks": 118,
          "midi": 89,
          "name": "F6",
          "ticks": 17856,
          "time": 34.233114,
          "velocity": 0.7086614173228346
        },
        {
          "duration": 0.2185581875000011,
          "durationTicks": 114,
          "midi": 86,
          "name": "D6",
          "ticks": 17856,
          "time": 34.233114,
          "velocity": 0.7086614173228346
        },
        {
          "duration": 0.24539866666666654,
          "durationTicks": 128,
          "midi": 79,
          "name": "G5",
          "ticks": 17856,
          "time": 34.233114,
          "velocity": 0.7086614173228346
        },
        {
          "duration": 0.24923302083333,
          "durationTicks": 130,
          "midi": 88,
          "name": "E6",
          "ticks": 18048,
          "time": 34.601212,
          "velocity": 0.7086614173228346
        },
        {
          "duration": 0.2569017291666711,
          "durationTicks": 134,
          "midi": 79,
          "name": "G5",
          "ticks": 18048,
          "time": 34.601212,
          "velocity": 0.7086614173228346
        },
        {
          "duration": 0.24923302083333,
          "durationTicks": 130,
          "midi": 84,
          "name": "C6",
          "ticks": 18048,
          "time": 34.601212,
          "velocity": 0.7086614173228346
        },
        {
          "duration": 0.26073608333332743,
          "durationTicks": 136,
          "midi": 88,
          "name": "E6",
          "ticks": 18240,
          "time": 34.96931,
          "velocity": 0.7086614173228346
        },
        {
          "duration": 0.27990785416666597,
          "durationTicks": 146,
          "midi": 79,
          "name": "G5",
          "ticks": 18240,
          "time": 34.96931,
          "velocity": 0.7086614173228346
        },
        {
          "duration": 0.272239145833332,
          "durationTicks": 142,
          "midi": 84,
          "name": "C6",
          "ticks": 18240,
          "time": 34.96931,
          "velocity": 0.7086614173228346
        },
        {
          "duration": 0.1610428749999997,
          "durationTicks": 84,
          "midi": 83,
          "name": "B5",
          "ticks": 18432,
          "time": 35.337407999999996,
          "velocity": 0.7086614173228346
        },
        {
          "duration": 0.17829746875000296,
          "durationTicks": 93,
          "midi": 79,
          "name": "G5",
          "ticks": 18432,
          "time": 35.337407999999996,
          "velocity": 0.7086614173228346
        },
        {
          "duration": 0.17062876041666897,
          "durationTicks": 89,
          "midi": 86,
          "name": "D6",
          "ticks": 18432,
          "time": 35.337407999999996,
          "velocity": 0.7086614173228346
        },
        {
          "duration": 0.07860426041666813,
          "durationTicks": 41,
          "midi": 79,
          "name": "G5",
          "ticks": 19104,
          "time": 36.625751,
          "velocity": 0.7086614173228346
        },
        {
          "duration": 0.2645704375000051,
          "durationTicks": 138,
          "midi": 89,
          "name": "F6",
          "ticks": 19200,
          "time": 36.809799999999996,
          "velocity": 0.7086614173228346
        },
        {
          "duration": 0.2779906770833307,
          "durationTicks": 145,
          "midi": 79,
          "name": "G5",
          "ticks": 19200,
          "time": 36.809799999999996,
          "velocity": 0.7086614173228346
        },
        {
          "duration": 0.272239145833332,
          "durationTicks": 142,
          "midi": 86,
          "name": "D6",
          "ticks": 19200,
          "time": 36.809799999999996,
          "velocity": 0.7086614173228346
        },
        {
          "duration": 0.24348148958333127,
          "durationTicks": 127,
          "midi": 89,
          "name": "F6",
          "ticks": 19392,
          "time": 37.177898,
          "velocity": 0.7086614173228346
        },
        {
          "duration": 0.27415632291666725,
          "durationTicks": 143,
          "midi": 79,
          "name": "G5",
          "ticks": 19392,
          "time": 37.177898,
          "velocity": 0.7086614173228346
        },
        {
          "duration": 0.2549845520833287,
          "durationTicks": 133,
          "midi": 86,
          "name": "D6",
          "ticks": 19392,
          "time": 37.177898,
          "velocity": 0.7086614173228346
        },
        {
          "duration": 0.26073608333333453,
          "durationTicks": 136,
          "midi": 88,
          "name": "E6",
          "ticks": 19584,
          "time": 37.545995999999995,
          "velocity": 0.7086614173228346
        },
        {
          "duration": 0.26840479166666853,
          "durationTicks": 140,
          "midi": 79,
          "name": "G5",
          "ticks": 19584,
          "time": 37.545995999999995,
          "velocity": 0.7086614173228346
        },
        {
          "duration": 0.2645704375000051,
          "durationTicks": 138,
          "midi": 84,
          "name": "C6",
          "ticks": 19584,
          "time": 37.545995999999995,
          "velocity": 0.7086614173228346
        },
        {
          "duration": 0.28182503125000125,
          "durationTicks": 147,
          "midi": 84,
          "name": "C6",
          "ticks": 19776,
          "time": 37.914094,
          "velocity": 0.7086614173228346
        },
        {
          "duration": 0.28949373958332814,
          "durationTicks": 151,
          "midi": 79,
          "name": "G5",
          "ticks": 19776,
          "time": 37.914094,
          "velocity": 0.7086614173228346
        },
        {
          "duration": 0.2837422083333294,
          "durationTicks": 148,
          "midi": 88,
          "name": "E6",
          "ticks": 19776,
          "time": 37.914094,
          "velocity": 0.7086614173228346
        },
        {
          "duration": 0.1687115833333337,
          "durationTicks": 88,
          "midi": 79,
          "name": "G5",
          "ticks": 19968,
          "time": 38.282191999999995,
          "velocity": 0.7086614173228346
        },
        {
          "duration": 0.15912569791667153,
          "durationTicks": 83,
          "midi": 86,
          "name": "D6",
          "ticks": 19968,
          "time": 38.282191999999995,
          "velocity": 0.7086614173228346
        },
        {
          "duration": 0.10927909375000411,
          "durationTicks": 57,
          "midi": 83,
          "name": "B5",
          "ticks": 19968,
          "time": 38.282191999999995,
          "velocity": 0.7086614173228346
        },
        {
          "duration": 0.08243861458333157,
          "durationTicks": 43,
          "midi": 79,
          "name": "G5",
          "ticks": 20640,
          "time": 39.570535,
          "velocity": 0.7086614173228346
        },
        {
          "duration": 0.26073608333332743,
          "durationTicks": 136,
          "midi": 79,
          "name": "G5",
          "ticks": 20736,
          "time": 39.754584,
          "velocity": 0.7086614173228346
        },
        {
          "duration": 0.26648761458332615,
          "durationTicks": 139,
          "midi": 89,
          "name": "F6",
          "ticks": 20736,
          "time": 39.754584,
          "velocity": 0.7086614173228346
        },
        {
          "duration": 0.264570437499998,
          "durationTicks": 138,
          "midi": 86,
          "name": "D6",
          "ticks": 20736,
          "time": 39.754584,
          "velocity": 0.7086614173228346
        },
        {
          "duration": 0.2626532604166698,
          "durationTicks": 137,
          "midi": 79,
          "name": "G5",
          "ticks": 20928,
          "time": 40.122682,
          "velocity": 0.7086614173228346
        },
        {
          "duration": 0.25306737500000054,
          "durationTicks": 132,
          "midi": 86,
          "name": "D6",
          "ticks": 20928,
          "time": 40.122682,
          "velocity": 0.7086614173228346
        },
        {
          "duration": 0.23964713541666782,
          "durationTicks": 125,
          "midi": 89,
          "name": "F6",
          "ticks": 20928,
          "time": 40.122682,
          "velocity": 0.7086614173228346
        },
        {
          "duration": 0.25881890624999926,
          "durationTicks": 135,
          "midi": 88,
          "name": "E6",
          "ticks": 21120,
          "time": 40.49078,
          "velocity": 0.7086614173228346
        },
        {
          "duration": 0.256901729166664,
          "durationTicks": 134,
          "midi": 84,
          "name": "C6",
          "ticks": 21120,
          "time": 40.49078,
          "velocity": 0.7086614173228346
        },
        {
          "duration": 0.2703219687499967,
          "durationTicks": 141,
          "midi": 79,
          "name": "G5",
          "ticks": 21120,
          "time": 40.49078,
          "velocity": 0.7086614173228346
        },
        {
          "duration": 0.2569017291666711,
          "durationTicks": 134,
          "midi": 84,
          "name": "C6",
          "ticks": 21312,
          "time": 40.858878,
          "velocity": 0.7086614173228346
        },
        {
          "duration": 0.2703219687500038,
          "durationTicks": 141,
          "midi": 79,
          "name": "G5",
          "ticks": 21312,
          "time": 40.858878,
          "velocity": 0.7086614173228346
        },
        {
          "duration": 0.25881890624999926,
          "durationTicks": 135,
          "midi": 88,
          "name": "E6",
          "ticks": 21312,
          "time": 40.858878,
          "velocity": 0.7086614173228346
        },
        {
          "duration": 0.1687115833333266,
          "durationTicks": 88,
          "midi": 86,
          "name": "D6",
          "ticks": 21504,
          "time": 41.226976,
          "velocity": 0.7086614173228346
        },
        {
          "duration": 0.17062876041666897,
          "durationTicks": 89,
          "midi": 83,
          "name": "B5",
          "ticks": 21504,
          "time": 41.226976,
          "velocity": 0.7086614173228346
        },
        {
          "duration": 0.1898005312500004,
          "durationTicks": 99,
          "midi": 79,
          "name": "G5",
          "ticks": 21504,
          "time": 41.226976,
          "velocity": 0.7086614173228346
        },
        {
          "duration": 2.9447839999999985,
          "durationTicks": 1536,
          "midi": 79,
          "name": "G5",
          "ticks": 23040,
          "time": 44.17176,
          "velocity": 0.7086614173228346
        },
        {
          "duration": 1.4723919999999993,
          "durationTicks": 768,
          "midi": 91,
          "name": "G6",
          "ticks": 23040,
          "time": 44.17176,
          "velocity": 0.7086614173228346
        },
        {
          "duration": 1.478143531249998,
          "durationTicks": 771,
          "midi": 84,
          "name": "C6",
          "ticks": 23040,
          "time": 44.17176,
          "velocity": 0.7086614173228346
        },
        {
          "duration": 1.4206282187499966,
          "durationTicks": 741,
          "midi": 86,
          "name": "D6",
          "ticks": 23808,
          "time": 45.644152,
          "velocity": 0.7086614173228346
        },
        {
          "duration": 1.3611957291666599,
          "durationTicks": 710,
          "midi": 84,
          "name": "C6",
          "ticks": 24576,
          "time": 47.116544,
          "velocity": 0.7086614173228346
        },
        {
          "duration": 1.3784503229166631,
          "durationTicks": 719,
          "midi": 77,
          "name": "F5",
          "ticks": 24576,
          "time": 47.116544,
          "velocity": 0.7086614173228346
        },
        {
          "duration": 1.3209350104166617,
          "durationTicks": 689,
          "midi": 89,
          "name": "F6",
          "ticks": 24576,
          "time": 47.116544,
          "velocity": 0.7086614173228346
        },
        {
          "duration": 0.15912569791666442,
          "durationTicks": 83,
          "midi": 74,
          "name": "D5",
          "ticks": 25344,
          "time": 48.588936,
          "velocity": 0.7086614173228346
        },
        {
          "duration": 0.16679440624999842,
          "durationTicks": 87,
          "midi": 86,
          "name": "D6",
          "ticks": 25344,
          "time": 48.588936,
          "velocity": 0.7086614173228346
        },
        {
          "duration": 0.1610428749999997,
          "durationTicks": 84,
          "midi": 81,
          "name": "A5",
          "ticks": 25344,
          "time": 48.588936,
          "velocity": 0.7086614173228346
        },
        {
          "duration": 1.4723919999999993,
          "durationTicks": 768,
          "midi": 79,
          "name": "G5",
          "ticks": 33024,
          "time": 63.312856,
          "velocity": 0.7086614173228346
        },
        {
          "duration": 1.4723919999999993,
          "durationTicks": 768,
          "midi": 84,
          "name": "C6",
          "ticks": 33024,
          "time": 63.312856,
          "velocity": 0.7086614173228346
        },
        {
          "duration": 1.4762263541666698,
          "durationTicks": 770,
          "midi": 88,
          "name": "E6",
          "ticks": 33024,
          "time": 63.312856,
          "velocity": 0.7086614173228346
        },
        {
          "duration": 1.4723919999999993,
          "durationTicks": 768,
          "midi": 86,
          "name": "D6",
          "ticks": 33792,
          "time": 64.785248,
          "velocity": 0.7086614173228346
        },
        {
          "duration": 1.4723919999999993,
          "durationTicks": 768,
          "midi": 83,
          "name": "B5",
          "ticks": 33792,
          "time": 64.785248,
          "velocity": 0.7086614173228346
        },
        {
          "duration": 1.4723919999999993,
          "durationTicks": 768,
          "midi": 79,
          "name": "G5",
          "ticks": 33792,
          "time": 64.785248,
          "velocity": 0.7086614173228346
        },
        {
          "duration": 1.4723919999999993,
          "durationTicks": 768,
          "midi": 79,
          "name": "G5",
          "ticks": 34560,
          "time": 66.25764,
          "velocity": 0.7086614173228346
        },
        {
          "duration": 1.4723919999999993,
          "durationTicks": 768,
          "midi": 88,
          "name": "E6",
          "ticks": 34560,
          "time": 66.25764,
          "velocity": 0.7086614173228346
        },
        {
          "duration": 1.4723919999999993,
          "durationTicks": 768,
          "midi": 84,
          "name": "C6",
          "ticks": 34560,
          "time": 66.25764,
          "velocity": 0.7086614173228346
        },
        {
          "duration": 1.4723919999999993,
          "durationTicks": 768,
          "midi": 79,
          "name": "G5",
          "ticks": 35328,
          "time": 67.730032,
          "velocity": 0.7086614173228346
        },
        {
          "duration": 1.4723919999999993,
          "durationTicks": 768,
          "midi": 86,
          "name": "D6",
          "ticks": 35328,
          "time": 67.730032,
          "velocity": 0.7086614173228346
        },
        {
          "duration": 1.4723919999999993,
          "durationTicks": 768,
          "midi": 83,
          "name": "B5",
          "ticks": 35328,
          "time": 67.730032,
          "velocity": 0.7086614173228346
        },
        {
          "duration": 1.4743091770833416,
          "durationTicks": 769,
          "midi": 79,
          "name": "G5",
          "ticks": 36096,
          "time": 69.202424,
          "velocity": 0.7086614173228346
        },
        {
          "duration": 1.4723919999999993,
          "durationTicks": 768,
          "midi": 88,
          "name": "E6",
          "ticks": 36096,
          "time": 69.202424,
          "velocity": 0.7086614173228346
        },
        {
          "duration": 1.4723919999999993,
          "durationTicks": 768,
          "midi": 84,
          "name": "C6",
          "ticks": 36096,
          "time": 69.202424,
          "velocity": 0.7086614173228346
        },
        {
          "duration": 1.4723919999999993,
          "durationTicks": 768,
          "midi": 83,
          "name": "B5",
          "ticks": 36864,
          "time": 70.67481599999999,
          "velocity": 0.7086614173228346
        },
        {
          "duration": 1.4723919999999993,
          "durationTicks": 768,
          "midi": 86,
          "name": "D6",
          "ticks": 36864,
          "time": 70.67481599999999,
          "velocity": 0.7086614173228346
        },
        {
          "duration": 1.4723919999999993,
          "durationTicks": 768,
          "midi": 79,
          "name": "G5",
          "ticks": 36864,
          "time": 70.67481599999999,
          "velocity": 0.7086614173228346
        },
        {
          "duration": 1.4723919999999993,
          "durationTicks": 768,
          "midi": 78,
          "name": "F#5",
          "ticks": 37632,
          "time": 72.14720799999999,
          "velocity": 0.7086614173228346
        },
        {
          "duration": 1.4723919999999993,
          "durationTicks": 768,
          "midi": 81,
          "name": "A5",
          "ticks": 37632,
          "time": 72.14720799999999,
          "velocity": 0.7086614173228346
        },
        {
          "duration": 1.4723919999999993,
          "durationTicks": 768,
          "midi": 86,
          "name": "D6",
          "ticks": 37632,
          "time": 72.14720799999999,
          "velocity": 0.7086614173228346
        },
        {
          "duration": 0.1457054583333388,
          "durationTicks": 76,
          "midi": 86,
          "name": "D6",
          "ticks": 38400,
          "time": 73.61959999999999,
          "velocity": 0.7086614173228346
        },
        {
          "duration": 0.1457054583333388,
          "durationTicks": 76,
          "midi": 81,
          "name": "A5",
          "ticks": 38400,
          "time": 73.61959999999999,
          "velocity": 0.7086614173228346
        },
        {
          "duration": 0.14762263541666698,
          "durationTicks": 77,
          "midi": 78,
          "name": "F#5",
          "ticks": 38400,
          "time": 73.61959999999999,
          "velocity": 0.7086614173228346
        },
        {
          "duration": 0.09969320833333484,
          "durationTicks": 52,
          "midi": 79,
          "name": "G5",
          "ticks": 39072,
          "time": 74.907943,
          "velocity": 0.7086614173228346
        },
        {
          "duration": 0.26840479166666853,
          "durationTicks": 140,
          "midi": 79,
          "name": "G5",
          "ticks": 39168,
          "time": 75.09199199999999,
          "velocity": 0.7086614173228346
        },
        {
          "duration": 0.26073608333334164,
          "durationTicks": 136,
          "midi": 89,
          "name": "F6",
          "ticks": 39168,
          "time": 75.09199199999999,
          "velocity": 0.7086614173228346
        },
        {
          "duration": 0.2645704375000122,
          "durationTicks": 138,
          "midi": 86,
          "name": "D6",
          "ticks": 39168,
          "time": 75.09199199999999,
          "velocity": 0.7086614173228346
        },
        {
          "duration": 0.2492330208333442,
          "durationTicks": 130,
          "midi": 89,
          "name": "F6",
          "ticks": 39360,
          "time": 75.46009,
          "velocity": 0.7086614173228346
        },
        {
          "duration": 0.2569017291666711,
          "durationTicks": 134,
          "midi": 79,
          "name": "G5",
          "ticks": 39360,
          "time": 75.46009,
          "velocity": 0.7086614173228346
        },
        {
          "duration": 0.2492330208333442,
          "durationTicks": 130,
          "midi": 86,
          "name": "D6",
          "ticks": 39360,
          "time": 75.46009,
          "velocity": 0.7086614173228346
        },
        {
          "duration": 0.2569017291666569,
          "durationTicks": 134,
          "midi": 88,
          "name": "E6",
          "ticks": 39552,
          "time": 75.828188,
          "velocity": 0.7086614173228346
        },
        {
          "duration": 0.2626532604166556,
          "durationTicks": 137,
          "midi": 79,
          "name": "G5",
          "ticks": 39552,
          "time": 75.828188,
          "velocity": 0.7086614173228346
        },
        {
          "duration": 0.2549845520833287,
          "durationTicks": 133,
          "midi": 84,
          "name": "C6",
          "ticks": 39552,
          "time": 75.828188,
          "velocity": 0.7086614173228346
        },
        {
          "duration": 0.264570437499998,
          "durationTicks": 138,
          "midi": 88,
          "name": "E6",
          "ticks": 39744,
          "time": 76.196286,
          "velocity": 0.7086614173228346
        },
        {
          "duration": 0.27990785416665176,
          "durationTicks": 146,
          "midi": 79,
          "name": "G5",
          "ticks": 39744,
          "time": 76.196286,
          "velocity": 0.7086614173228346
        },
        {
          "duration": 0.27990785416665176,
          "durationTicks": 146,
          "midi": 84,
          "name": "C6",
          "ticks": 39744,
          "time": 76.196286,
          "velocity": 0.7086614173228346
        },
        {
          "duration": 0.15529134375000808,
          "durationTicks": 81,
          "midi": 83,
          "name": "B5",
          "ticks": 39936,
          "time": 76.56438399999999,
          "velocity": 0.7086614173228346
        },
        {
          "duration": 0.1821318229166735,
          "durationTicks": 95,
          "midi": 79,
          "name": "G5",
          "ticks": 39936,
          "time": 76.56438399999999,
          "velocity": 0.7086614173228346
        },
        {
          "duration": 0.16296005208334918,
          "durationTicks": 85,
          "midi": 86,
          "name": "D6",
          "ticks": 39936,
          "time": 76.56438399999999,
          "velocity": 0.7086614173228346
        },
        {
          "duration": 0.0651840208333283,
          "durationTicks": 34,
          "midi": 79,
          "name": "G5",
          "ticks": 40608,
          "time": 77.852727,
          "velocity": 0.7086614173228346
        },
        {
          "duration": 0.24348148958334548,
          "durationTicks": 127,
          "midi": 79,
          "name": "G5",
          "ticks": 40704,
          "time": 78.03677599999999,
          "velocity": 0.7086614173228346
        },
        {
          "duration": 0.24731584375000182,
          "durationTicks": 129,
          "midi": 89,
          "name": "F6",
          "ticks": 40704,
          "time": 78.03677599999999,
          "velocity": 0.7086614173228346
        },
        {
          "duration": 0.24731584375000182,
          "durationTicks": 129,
          "midi": 86,
          "name": "D6",
          "ticks": 40704,
          "time": 78.03677599999999,
          "velocity": 0.7086614173228346
        },
        {
          "duration": 0.2262268958333351,
          "durationTicks": 118,
          "midi": 89,
          "name": "F6",
          "ticks": 40896,
          "time": 78.40487399999999,
          "velocity": 0.7086614173228346
        },
        {
          "duration": 0.21855818750000822,
          "durationTicks": 114,
          "midi": 86,
          "name": "D6",
          "ticks": 40896,
          "time": 78.40487399999999,
          "velocity": 0.7086614173228346
        },
        {
          "duration": 0.24539866666667365,
          "durationTicks": 128,
          "midi": 79,
          "name": "G5",
          "ticks": 40896,
          "time": 78.40487399999999,
          "velocity": 0.7086614173228346
        },
        {
          "duration": 0.24923302083333,
          "durationTicks": 130,
          "midi": 84,
          "name": "C6",
          "ticks": 41088,
          "time": 78.772972,
          "velocity": 0.7086614173228346
        },
        {
          "duration": 0.24923302083333,
          "durationTicks": 130,
          "midi": 88,
          "name": "E6",
          "ticks": 41088,
          "time": 78.772972,
          "velocity": 0.7086614173228346
        },
        {
          "duration": 0.2569017291666569,
          "durationTicks": 134,
          "midi": 79,
          "name": "G5",
          "ticks": 41088,
          "time": 78.772972,
          "velocity": 0.7086614173228346
        },
        {
          "duration": 0.27990785416666597,
          "durationTicks": 146,
          "midi": 79,
          "name": "G5",
          "ticks": 41280,
          "time": 79.14107,
          "velocity": 0.7086614173228346
        },
        {
          "duration": 0.2722391458333391,
          "durationTicks": 142,
          "midi": 84,
          "name": "C6",
          "ticks": 41280,
          "time": 79.14107,
          "velocity": 0.7086614173228346
        },
        {
          "duration": 0.26073608333332743,
          "durationTicks": 136,
          "midi": 88,
          "name": "E6",
          "ticks": 41280,
          "time": 79.14107,
          "velocity": 0.7086614173228346
        },
        {
          "duration": 0.17829746874998875,
          "durationTicks": 93,
          "midi": 79,
          "name": "G5",
          "ticks": 41472,
          "time": 79.509168,
          "velocity": 0.7086614173228346
        },
        {
          "duration": 0.17062876041666186,
          "durationTicks": 89,
          "midi": 86,
          "name": "D6",
          "ticks": 41472,
          "time": 79.509168,
          "velocity": 0.7086614173228346
        },
        {
          "duration": 0.1610428749999926,
          "durationTicks": 84,
          "midi": 83,
          "name": "B5",
          "ticks": 41472,
          "time": 79.509168,
          "velocity": 0.7086614173228346
        },
        {
          "duration": 0.07860426041665391,
          "durationTicks": 41,
          "midi": 79,
          "name": "G5",
          "ticks": 42144,
          "time": 80.797511,
          "velocity": 0.7086614173228346
        },
        {
          "duration": 0.27223914583332487,
          "durationTicks": 142,
          "midi": 86,
          "name": "D6",
          "ticks": 42240,
          "time": 80.98156,
          "velocity": 0.7086614173228346
        },
        {
          "duration": 0.264570437499998,
          "durationTicks": 138,
          "midi": 89,
          "name": "F6",
          "ticks": 42240,
          "time": 80.98156,
          "velocity": 0.7086614173228346
        },
        {
          "duration": 0.2779906770833378,
          "durationTicks": 145,
          "midi": 79,
          "name": "G5",
          "ticks": 42240,
          "time": 80.98156,
          "velocity": 0.7086614173228346
        },
        {
          "duration": 0.24348148958334548,
          "durationTicks": 127,
          "midi": 89,
          "name": "F6",
          "ticks": 42432,
          "time": 81.34965799999999,
          "velocity": 0.7086614173228346
        },
        {
          "duration": 0.27415632291666725,
          "durationTicks": 143,
          "midi": 79,
          "name": "G5",
          "ticks": 42432,
          "time": 81.34965799999999,
          "velocity": 0.7086614173228346
        },
        {
          "duration": 0.2549845520833429,
          "durationTicks": 133,
          "midi": 86,
          "name": "D6",
          "ticks": 42432,
          "time": 81.34965799999999,
          "velocity": 0.7086614173228346
        },
        {
          "duration": 0.26840479166666853,
          "durationTicks": 140,
          "midi": 79,
          "name": "G5",
          "ticks": 42624,
          "time": 81.717756,
          "velocity": 0.7086614173228346
        },
        {
          "duration": 0.264570437499998,
          "durationTicks": 138,
          "midi": 84,
          "name": "C6",
          "ticks": 42624,
          "time": 81.717756,
          "velocity": 0.7086614173228346
        },
        {
          "duration": 0.26073608333334164,
          "durationTicks": 136,
          "midi": 88,
          "name": "E6",
          "ticks": 42624,
          "time": 81.717756,
          "velocity": 0.7086614173228346
        },
        {
          "duration": 0.2837422083333365,
          "durationTicks": 148,
          "midi": 88,
          "name": "E6",
          "ticks": 42816,
          "time": 82.085854,
          "velocity": 0.7086614173228346
        },
        {
          "duration": 0.28182503124999414,
          "durationTicks": 147,
          "midi": 84,
          "name": "C6",
          "ticks": 42816,
          "time": 82.085854,
          "velocity": 0.7086614173228346
        },
        {
          "duration": 0.28949373958333524,
          "durationTicks": 151,
          "midi": 79,
          "name": "G5",
          "ticks": 42816,
          "time": 82.085854,
          "velocity": 0.7086614173228346
        },
        {
          "duration": 0.1687115833333337,
          "durationTicks": 88,
          "midi": 79,
          "name": "G5",
          "ticks": 43008,
          "time": 82.453952,
          "velocity": 0.7086614173228346
        },
        {
          "duration": 0.15912569791666442,
          "durationTicks": 83,
          "midi": 86,
          "name": "D6",
          "ticks": 43008,
          "time": 82.453952,
          "velocity": 0.7086614173228346
        },
        {
          "duration": 0.1092790937499899,
          "durationTicks": 57,
          "midi": 83,
          "name": "B5",
          "ticks": 43008,
          "time": 82.453952,
          "velocity": 0.7086614173228346
        },
        {
          "duration": 0.08243861458333868,
          "durationTicks": 43,
          "midi": 79,
          "name": "G5",
          "ticks": 43680,
          "time": 83.742295,
          "velocity": 0.7086614173228346
        },
        {
          "duration": 0.26073608333332743,
          "durationTicks": 136,
          "midi": 79,
          "name": "G5",
          "ticks": 43776,
          "time": 83.926344,
          "velocity": 0.7086614173228346
        },
        {
          "duration": 0.264570437499998,
          "durationTicks": 138,
          "midi": 86,
          "name": "D6",
          "ticks": 43776,
          "time": 83.926344,
          "velocity": 0.7086614173228346
        },
        {
          "duration": 0.26648761458332615,
          "durationTicks": 139,
          "midi": 89,
          "name": "F6",
          "ticks": 43776,
          "time": 83.926344,
          "velocity": 0.7086614173228346
        },
        {
          "duration": 0.23964713541667493,
          "durationTicks": 125,
          "midi": 89,
          "name": "F6",
          "ticks": 43968,
          "time": 84.29444199999999,
          "velocity": 0.7086614173228346
        },
        {
          "duration": 0.25306737500000054,
          "durationTicks": 132,
          "midi": 86,
          "name": "D6",
          "ticks": 43968,
          "time": 84.29444199999999,
          "velocity": 0.7086614173228346
        },
        {
          "duration": 0.2626532604166698,
          "durationTicks": 137,
          "midi": 79,
          "name": "G5",
          "ticks": 43968,
          "time": 84.29444199999999,
          "velocity": 0.7086614173228346
        },
        {
          "duration": 0.2569017291666711,
          "durationTicks": 134,
          "midi": 84,
          "name": "C6",
          "ticks": 44160,
          "time": 84.66253999999999,
          "velocity": 0.7086614173228346
        },
        {
          "duration": 0.2703219687499967,
          "durationTicks": 141,
          "midi": 79,
          "name": "G5",
          "ticks": 44160,
          "time": 84.66253999999999,
          "velocity": 0.7086614173228346
        },
        {
          "duration": 0.25881890624999926,
          "durationTicks": 135,
          "midi": 88,
          "name": "E6",
          "ticks": 44160,
          "time": 84.66253999999999,
          "velocity": 0.7086614173228346
        },
        {
          "duration": 0.2703219687499967,
          "durationTicks": 141,
          "midi": 79,
          "name": "G5",
          "ticks": 44352,
          "time": 85.030638,
          "velocity": 0.7086614173228346
        },
        {
          "duration": 0.25881890624999926,
          "durationTicks": 135,
          "midi": 88,
          "name": "E6",
          "ticks": 44352,
          "time": 85.030638,
          "velocity": 0.7086614173228346
        },
        {
          "duration": 0.2569017291666569,
          "durationTicks": 134,
          "midi": 84,
          "name": "C6",
          "ticks": 44352,
          "time": 85.030638,
          "velocity": 0.7086614173228346
        },
        {
          "duration": 0.17062876041666186,
          "durationTicks": 89,
          "midi": 83,
          "name": "B5",
          "ticks": 44544,
          "time": 85.398736,
          "velocity": 0.7086614173228346
        },
        {
          "duration": 0.1898005312500004,
          "durationTicks": 99,
          "midi": 79,
          "name": "G5",
          "ticks": 44544,
          "time": 85.398736,
          "velocity": 0.7086614173228346
        },
        {
          "duration": 0.1687115833333337,
          "durationTicks": 88,
          "midi": 86,
          "name": "D6",
          "ticks": 44544,
          "time": 85.398736,
          "velocity": 0.7086614173228346
        },
        {
          "duration": 1.4723919999999993,
          "durationTicks": 768,
          "midi": 91,
          "name": "G6",
          "ticks": 46080,
          "time": 88.34352,
          "velocity": 0.7086614173228346
        },
        {
          "duration": 1.478143531249998,
          "durationTicks": 771,
          "midi": 84,
          "name": "C6",
          "ticks": 46080,
          "time": 88.34352,
          "velocity": 0.7086614173228346
        },
        {
          "duration": 2.9447839999999985,
          "durationTicks": 1536,
          "midi": 79,
          "name": "G5",
          "ticks": 46080,
          "time": 88.34352,
          "velocity": 0.7086614173228346
        },
        {
          "duration": 1.4206282187499966,
          "durationTicks": 741,
          "midi": 86,
          "name": "D6",
          "ticks": 46848,
          "time": 89.815912,
          "velocity": 0.7086614173228346
        },
        {
          "duration": 1.3209350104166617,
          "durationTicks": 689,
          "midi": 89,
          "name": "F6",
          "ticks": 47616,
          "time": 91.288304,
          "velocity": 0.7086614173228346
        },
        {
          "duration": 1.3784503229166631,
          "durationTicks": 719,
          "midi": 77,
          "name": "F5",
          "ticks": 47616,
          "time": 91.288304,
          "velocity": 0.7086614173228346
        },
        {
          "duration": 1.361195729166667,
          "durationTicks": 710,
          "midi": 84,
          "name": "C6",
          "ticks": 47616,
          "time": 91.288304,
          "velocity": 0.7086614173228346
        },
        {
          "duration": 0.1610428749999926,
          "durationTicks": 84,
          "midi": 81,
          "name": "A5",
          "ticks": 48384,
          "time": 92.760696,
          "velocity": 0.7086614173228346
        },
        {
          "duration": 0.16679440625000552,
          "durationTicks": 87,
          "midi": 86,
          "name": "D6",
          "ticks": 48384,
          "time": 92.760696,
          "velocity": 0.7086614173228346
        },
        {
          "duration": 0.15912569791666442,
          "durationTicks": 83,
          "midi": 74,
          "name": "D5",
          "ticks": 48384,
          "time": 92.760696,
          "velocity": 0.7086614173228346
        },
        {
          "duration": 1.4723919999999993,
          "durationTicks": 768,
          "midi": 83,
          "name": "B5",
          "ticks": 49920,
          "time": 95.70548,
          "velocity": 0.7086614173228346
        },
        {
          "duration": 1.4723919999999993,
          "durationTicks": 768,
          "midi": 86,
          "name": "D6",
          "ticks": 49920,
          "time": 95.70548,
          "velocity": 0.7086614173228346
        },
        {
          "duration": 1.4723919999999993,
          "durationTicks": 768,
          "midi": 79,
          "name": "G5",
          "ticks": 49920,
          "time": 95.70548,
          "velocity": 0.7086614173228346
        },
        {
          "duration": 1.4723919999999993,
          "durationTicks": 768,
          "midi": 78,
          "name": "F#5",
          "ticks": 50688,
          "time": 97.177872,
          "velocity": 0.7086614173228346
        },
        {
          "duration": 1.4723919999999993,
          "durationTicks": 768,
          "midi": 86,
          "name": "D6",
          "ticks": 50688,
          "time": 97.177872,
          "velocity": 0.7086614173228346
        },
        {
          "duration": 1.4723919999999993,
          "durationTicks": 768,
          "midi": 81,
          "name": "A5",
          "ticks": 50688,
          "time": 97.177872,
          "velocity": 0.7086614173228346
        },
        {
          "duration": 1.4723919999999993,
          "durationTicks": 768,
          "midi": 83,
          "name": "B5",
          "ticks": 51456,
          "time": 98.65026399999999,
          "velocity": 0.7086614173228346
        },
        {
          "duration": 1.4743091770833274,
          "durationTicks": 769,
          "midi": 79,
          "name": "G5",
          "ticks": 51456,
          "time": 98.65026399999999,
          "velocity": 0.7086614173228346
        },
        {
          "duration": 1.4723919999999993,
          "durationTicks": 768,
          "midi": 86,
          "name": "D6",
          "ticks": 51456,
          "time": 98.65026399999999,
          "velocity": 0.7086614173228346
        },
        {
          "duration": 1.4723919999999993,
          "durationTicks": 768,
          "midi": 86,
          "name": "D6",
          "ticks": 52224,
          "time": 100.12265599999999,
          "velocity": 0.7086614173228346
        },
        {
          "duration": 1.4723919999999993,
          "durationTicks": 768,
          "midi": 79,
          "name": "G5",
          "ticks": 52224,
          "time": 100.12265599999999,
          "velocity": 0.7086614173228346
        },
        {
          "duration": 1.4723919999999993,
          "durationTicks": 768,
          "midi": 83,
          "name": "B5",
          "ticks": 52224,
          "time": 100.12265599999999,
          "velocity": 0.7086614173228346
        },
        {
          "duration": 1.4723919999999993,
          "durationTicks": 768,
          "midi": 83,
          "name": "B5",
          "ticks": 52992,
          "time": 101.59504799999999,
          "velocity": 0.7086614173228346
        },
        {
          "duration": 1.4723919999999993,
          "durationTicks": 768,
          "midi": 86,
          "name": "D6",
          "ticks": 52992,
          "time": 101.59504799999999,
          "velocity": 0.7086614173228346
        },
        {
          "duration": 1.4723919999999993,
          "durationTicks": 768,
          "midi": 79,
          "name": "G5",
          "ticks": 52992,
          "time": 101.59504799999999,
          "velocity": 0.7086614173228346
        },
        {
          "duration": 1.4723919999999993,
          "durationTicks": 768,
          "midi": 78,
          "name": "F#5",
          "ticks": 53760,
          "time": 103.06743999999999,
          "velocity": 0.7086614173228346
        },
        {
          "duration": 1.4743091770833274,
          "durationTicks": 769,
          "midi": 86,
          "name": "D6",
          "ticks": 53760,
          "time": 103.06743999999999,
          "velocity": 0.7086614173228346
        },
        {
          "duration": 1.4723919999999993,
          "durationTicks": 768,
          "midi": 81,
          "name": "A5",
          "ticks": 53760,
          "time": 103.06743999999999,
          "velocity": 0.7086614173228346
        },
        {
          "duration": 1.4723919999999993,
          "durationTicks": 768,
          "midi": 79,
          "name": "G5",
          "ticks": 54528,
          "time": 104.53983199999999,
          "velocity": 0.7086614173228346
        },
        {
          "duration": 1.4743091770833274,
          "durationTicks": 769,
          "midi": 83,
          "name": "B5",
          "ticks": 54528,
          "time": 104.53983199999999,
          "velocity": 0.7086614173228346
        },
        {
          "duration": 1.4723919999999993,
          "durationTicks": 768,
          "midi": 86,
          "name": "D6",
          "ticks": 54528,
          "time": 104.53983199999999,
          "velocity": 0.7086614173228346
        },
        {
          "duration": 1.4723919999999993,
          "durationTicks": 768,
          "midi": 79,
          "name": "G5",
          "ticks": 55296,
          "time": 106.01222399999999,
          "velocity": 0.7086614173228346
        },
        {
          "duration": 1.4723919999999993,
          "durationTicks": 768,
          "midi": 83,
          "name": "B5",
          "ticks": 55296,
          "time": 106.01222399999999,
          "velocity": 0.7086614173228346
        },
        {
          "duration": 1.4723919999999993,
          "durationTicks": 768,
          "midi": 86,
          "name": "D6",
          "ticks": 55296,
          "time": 106.01222399999999,
          "velocity": 0.7086614173228346
        },
        {
          "duration": 1.4723919999999993,
          "durationTicks": 768,
          "midi": 79,
          "name": "G5",
          "ticks": 56064,
          "time": 107.48461599999999,
          "velocity": 0.7086614173228346
        },
        {
          "duration": 1.4723919999999993,
          "durationTicks": 768,
          "midi": 84,
          "name": "C6",
          "ticks": 56064,
          "time": 107.48461599999999,
          "velocity": 0.7086614173228346
        },
        {
          "duration": 1.476226354166684,
          "durationTicks": 770,
          "midi": 88,
          "name": "E6",
          "ticks": 56064,
          "time": 107.48461599999999,
          "velocity": 0.7086614173228346
        },
        {
          "duration": 1.4723920000000135,
          "durationTicks": 768,
          "midi": 83,
          "name": "B5",
          "ticks": 56832,
          "time": 108.95700799999999,
          "velocity": 0.7086614173228346
        },
        {
          "duration": 1.4723920000000135,
          "durationTicks": 768,
          "midi": 86,
          "name": "D6",
          "ticks": 56832,
          "time": 108.95700799999999,
          "velocity": 0.7086614173228346
        },
        {
          "duration": 1.4723920000000135,
          "durationTicks": 768,
          "midi": 79,
          "name": "G5",
          "ticks": 56832,
          "time": 108.95700799999999,
          "velocity": 0.7086614173228346
        },
        {
          "duration": 1.4723919999999993,
          "durationTicks": 768,
          "midi": 84,
          "name": "C6",
          "ticks": 57600,
          "time": 110.4294,
          "velocity": 0.7086614173228346
        },
        {
          "duration": 1.4723919999999993,
          "durationTicks": 768,
          "midi": 79,
          "name": "G5",
          "ticks": 57600,
          "time": 110.4294,
          "velocity": 0.7086614173228346
        },
        {
          "duration": 1.4723919999999993,
          "durationTicks": 768,
          "midi": 88,
          "name": "E6",
          "ticks": 57600,
          "time": 110.4294,
          "velocity": 0.7086614173228346
        },
        {
          "duration": 1.4723919999999993,
          "durationTicks": 768,
          "midi": 83,
          "name": "B5",
          "ticks": 58368,
          "time": 111.901792,
          "velocity": 0.7086614173228346
        },
        {
          "duration": 1.4723919999999993,
          "durationTicks": 768,
          "midi": 86,
          "name": "D6",
          "ticks": 58368,
          "time": 111.901792,
          "velocity": 0.7086614173228346
        },
        {
          "duration": 1.4723919999999993,
          "durationTicks": 768,
          "midi": 79,
          "name": "G5",
          "ticks": 58368,
          "time": 111.901792,
          "velocity": 0.7086614173228346
        },
        {
          "duration": 1.4723919999999993,
          "durationTicks": 768,
          "midi": 84,
          "name": "C6",
          "ticks": 59136,
          "time": 113.374184,
          "velocity": 0.7086614173228346
        },
        {
          "duration": 1.4743091770833274,
          "durationTicks": 769,
          "midi": 79,
          "name": "G5",
          "ticks": 59136,
          "time": 113.374184,
          "velocity": 0.7086614173228346
        },
        {
          "duration": 1.4723919999999993,
          "durationTicks": 768,
          "midi": 88,
          "name": "E6",
          "ticks": 59136,
          "time": 113.374184,
          "velocity": 0.7086614173228346
        },
        {
          "duration": 1.4743091770833274,
          "durationTicks": 769,
          "midi": 86,
          "name": "D6",
          "ticks": 59904,
          "time": 114.846576,
          "velocity": 0.7086614173228346
        },
        {
          "duration": 1.4723919999999993,
          "durationTicks": 768,
          "midi": 83,
          "name": "B5",
          "ticks": 59904,
          "time": 114.846576,
          "velocity": 0.7086614173228346
        },
        {
          "duration": 1.4723919999999993,
          "durationTicks": 768,
          "midi": 79,
          "name": "G5",
          "ticks": 59904,
          "time": 114.846576,
          "velocity": 0.7086614173228346
        },
        {
          "duration": 1.4723919999999993,
          "durationTicks": 768,
          "midi": 78,
          "name": "F#5",
          "ticks": 60672,
          "time": 116.318968,
          "velocity": 0.7086614173228346
        },
        {
          "duration": 1.4723919999999993,
          "durationTicks": 768,
          "midi": 86,
          "name": "D6",
          "ticks": 60672,
          "time": 116.318968,
          "velocity": 0.7086614173228346
        },
        {
          "duration": 1.4723919999999993,
          "durationTicks": 768,
          "midi": 81,
          "name": "A5",
          "ticks": 60672,
          "time": 116.318968,
          "velocity": 0.7086614173228346
        },
        {
          "duration": 0.1457054583333246,
          "durationTicks": 76,
          "midi": 81,
          "name": "A5",
          "ticks": 61440,
          "time": 117.79136,
          "velocity": 0.7086614173228346
        },
        {
          "duration": 0.14762263541666698,
          "durationTicks": 77,
          "midi": 78,
          "name": "F#5",
          "ticks": 61440,
          "time": 117.79136,
          "velocity": 0.7086614173228346
        },
        {
          "duration": 0.1457054583333246,
          "durationTicks": 76,
          "midi": 86,
          "name": "D6",
          "ticks": 61440,
          "time": 117.79136,
          "velocity": 0.7086614173228346
        },
        {
          "duration": 0.09969320833332063,
          "durationTicks": 52,
          "midi": 79,
          "name": "G5",
          "ticks": 62112,
          "time": 119.079703,
          "velocity": 0.7086614173228346
        },
        {
          "duration": 0.264570437499998,
          "durationTicks": 138,
          "midi": 86,
          "name": "D6",
          "ticks": 62208,
          "time": 119.263752,
          "velocity": 0.7086614173228346
        },
        {
          "duration": 0.26073608333332743,
          "durationTicks": 136,
          "midi": 89,
          "name": "F6",
          "ticks": 62208,
          "time": 119.263752,
          "velocity": 0.7086614173228346
        },
        {
          "duration": 0.26840479166666853,
          "durationTicks": 140,
          "midi": 79,
          "name": "G5",
          "ticks": 62208,
          "time": 119.263752,
          "velocity": 0.7086614173228346
        },
        {
          "duration": 0.2569017291666711,
          "durationTicks": 134,
          "midi": 79,
          "name": "G5",
          "ticks": 62400,
          "time": 119.63185,
          "velocity": 0.7086614173228346
        },
        {
          "duration": 0.24923302083331578,
          "durationTicks": 130,
          "midi": 86,
          "name": "D6",
          "ticks": 62400,
          "time": 119.63185,
          "velocity": 0.7086614173228346
        },
        {
          "duration": 0.24923302083331578,
          "durationTicks": 130,
          "midi": 89,
          "name": "F6",
          "ticks": 62400,
          "time": 119.63185,
          "velocity": 0.7086614173228346
        },
        {
          "duration": 0.2549845520833287,
          "durationTicks": 133,
          "midi": 84,
          "name": "C6",
          "ticks": 62592,
          "time": 119.99994799999999,
          "velocity": 0.7086614173228346
        },
        {
          "duration": 0.262653260416684,
          "durationTicks": 137,
          "midi": 79,
          "name": "G5",
          "ticks": 62592,
          "time": 119.99994799999999,
          "velocity": 0.7086614173228346
        },
        {
          "duration": 0.2569017291666711,
          "durationTicks": 134,
          "midi": 88,
          "name": "E6",
          "ticks": 62592,
          "time": 119.99994799999999,
          "velocity": 0.7086614173228346
        },
        {
          "duration": 0.2799078541666802,
          "durationTicks": 146,
          "midi": 79,
          "name": "G5",
          "ticks": 62784,
          "time": 120.36804599999999,
          "velocity": 0.7086614173228346
        },
        {
          "duration": 0.264570437499998,
          "durationTicks": 138,
          "midi": 88,
          "name": "E6",
          "ticks": 62784,
          "time": 120.36804599999999,
          "velocity": 0.7086614173228346
        },
        {
          "duration": 0.2799078541666802,
          "durationTicks": 146,
          "midi": 84,
          "name": "C6",
          "ticks": 62784,
          "time": 120.36804599999999,
          "velocity": 0.7086614173228346
        },
        {
          "duration": 0.16296005208332076,
          "durationTicks": 85,
          "midi": 86,
          "name": "D6",
          "ticks": 62976,
          "time": 120.736144,
          "velocity": 0.7086614173228346
        },
        {
          "duration": 0.15529134374999387,
          "durationTicks": 81,
          "midi": 83,
          "name": "B5",
          "ticks": 62976,
          "time": 120.736144,
          "velocity": 0.7086614173228346
        },
        {
          "duration": 0.1821318229166735,
          "durationTicks": 95,
          "midi": 79,
          "name": "G5",
          "ticks": 62976,
          "time": 120.736144,
          "velocity": 0.7086614173228346
        },
        {
          "duration": 0.0651840208333283,
          "durationTicks": 34,
          "midi": 79,
          "name": "G5",
          "ticks": 63648,
          "time": 122.024487,
          "velocity": 0.7086614173228346
        },
        {
          "duration": 0.24731584375000182,
          "durationTicks": 129,
          "midi": 89,
          "name": "F6",
          "ticks": 63744,
          "time": 122.208536,
          "velocity": 0.7086614173228346
        },
        {
          "duration": 0.24348148958333127,
          "durationTicks": 127,
          "midi": 79,
          "name": "G5",
          "ticks": 63744,
          "time": 122.208536,
          "velocity": 0.7086614173228346
        },
        {
          "duration": 0.24731584375000182,
          "durationTicks": 129,
          "midi": 86,
          "name": "D6",
          "ticks": 63744,
          "time": 122.208536,
          "velocity": 0.7086614173228346
        },
        {
          "duration": 0.24539866666667365,
          "durationTicks": 128,
          "midi": 79,
          "name": "G5",
          "ticks": 63936,
          "time": 122.576634,
          "velocity": 0.7086614173228346
        },
        {
          "duration": 0.218558187499994,
          "durationTicks": 114,
          "midi": 86,
          "name": "D6",
          "ticks": 63936,
          "time": 122.576634,
          "velocity": 0.7086614173228346
        },
        {
          "duration": 0.2262268958333209,
          "durationTicks": 118,
          "midi": 89,
          "name": "F6",
          "ticks": 63936,
          "time": 122.576634,
          "velocity": 0.7086614173228346
        },
        {
          "duration": 0.2569017291666853,
          "durationTicks": 134,
          "midi": 79,
          "name": "G5",
          "ticks": 64128,
          "time": 122.94473199999999,
          "velocity": 0.7086614173228346
        },
        {
          "duration": 0.24923302083333,
          "durationTicks": 130,
          "midi": 84,
          "name": "C6",
          "ticks": 64128,
          "time": 122.94473199999999,
          "velocity": 0.7086614173228346
        },
        {
          "duration": 0.24923302083333,
          "durationTicks": 130,
          "midi": 88,
          "name": "E6",
          "ticks": 64128,
          "time": 122.94473199999999,
          "velocity": 0.7086614173228346
        },
        {
          "duration": 0.27223914583332487,
          "durationTicks": 142,
          "midi": 84,
          "name": "C6",
          "ticks": 64320,
          "time": 123.31282999999999,
          "velocity": 0.7086614173228346
        },
        {
          "duration": 0.2799078541666802,
          "durationTicks": 146,
          "midi": 79,
          "name": "G5",
          "ticks": 64320,
          "time": 123.31282999999999,
          "velocity": 0.7086614173228346
        },
        {
          "duration": 0.26073608333332743,
          "durationTicks": 136,
          "midi": 88,
          "name": "E6",
          "ticks": 64320,
          "time": 123.31282999999999,
          "velocity": 0.7086614173228346
        },
        {
          "duration": 0.1610428749999926,
          "durationTicks": 84,
          "midi": 83,
          "name": "B5",
          "ticks": 64512,
          "time": 123.680928,
          "velocity": 0.7086614173228346
        },
        {
          "duration": 0.17062876041667607,
          "durationTicks": 89,
          "midi": 86,
          "name": "D6",
          "ticks": 64512,
          "time": 123.680928,
          "velocity": 0.7086614173228346
        },
        {
          "duration": 0.17829746875000296,
          "durationTicks": 93,
          "midi": 79,
          "name": "G5",
          "ticks": 64512,
          "time": 123.680928,
          "velocity": 0.7086614173228346
        },
        {
          "duration": 0.07860426041666813,
          "durationTicks": 41,
          "midi": 79,
          "name": "G5",
          "ticks": 65184,
          "time": 124.96927099999999,
          "velocity": 0.7086614173228346
        },
        {
          "duration": 0.264570437499998,
          "durationTicks": 138,
          "midi": 89,
          "name": "F6",
          "ticks": 65280,
          "time": 125.15332,
          "velocity": 0.7086614173228346
        },
        {
          "duration": 0.2779906770833236,
          "durationTicks": 145,
          "midi": 79,
          "name": "G5",
          "ticks": 65280,
          "time": 125.15332,
          "velocity": 0.7086614173228346
        },
        {
          "duration": 0.27223914583332487,
          "durationTicks": 142,
          "midi": 86,
          "name": "D6",
          "ticks": 65280,
          "time": 125.15332,
          "velocity": 0.7086614173228346
        },
        {
          "duration": 0.27415632291666725,
          "durationTicks": 143,
          "midi": 79,
          "name": "G5",
          "ticks": 65472,
          "time": 125.521418,
          "velocity": 0.7086614173228346
        },
        {
          "duration": 0.2549845520833287,
          "durationTicks": 133,
          "midi": 86,
          "name": "D6",
          "ticks": 65472,
          "time": 125.521418,
          "velocity": 0.7086614173228346
        },
        {
          "duration": 0.24348148958331706,
          "durationTicks": 127,
          "midi": 89,
          "name": "F6",
          "ticks": 65472,
          "time": 125.521418,
          "velocity": 0.7086614173228346
        },
        {
          "duration": 0.264570437499998,
          "durationTicks": 138,
          "midi": 84,
          "name": "C6",
          "ticks": 65664,
          "time": 125.889516,
          "velocity": 0.7086614173228346
        },
        {
          "duration": 0.26840479166666853,
          "durationTicks": 140,
          "midi": 79,
          "name": "G5",
          "ticks": 65664,
          "time": 125.889516,
          "velocity": 0.7086614173228346
        },
        {
          "duration": 0.2607360833333132,
          "durationTicks": 136,
          "midi": 88,
          "name": "E6",
          "ticks": 65664,
          "time": 125.889516,
          "velocity": 0.7086614173228346
        },
        {
          "duration": 0.2837422083333365,
          "durationTicks": 148,
          "midi": 88,
          "name": "E6",
          "ticks": 65856,
          "time": 126.25761399999999,
          "velocity": 0.7086614173228346
        },
        {
          "duration": 0.28949373958333524,
          "durationTicks": 151,
          "midi": 79,
          "name": "G5",
          "ticks": 65856,
          "time": 126.25761399999999,
          "velocity": 0.7086614173228346
        },
        {
          "duration": 0.28182503125000835,
          "durationTicks": 147,
          "midi": 84,
          "name": "C6",
          "ticks": 65856,
          "time": 126.25761399999999,
          "velocity": 0.7086614173228346
        },
        {
          "duration": 0.1687115833333337,
          "durationTicks": 88,
          "midi": 79,
          "name": "G5",
          "ticks": 66048,
          "time": 126.625712,
          "velocity": 0.7086614173228346
        },
        {
          "duration": 0.10927909375000411,
          "durationTicks": 57,
          "midi": 83,
          "name": "B5",
          "ticks": 66048,
          "time": 126.625712,
          "velocity": 0.7086614173228346
        },
        {
          "duration": 0.15912569791667863,
          "durationTicks": 83,
          "midi": 86,
          "name": "D6",
          "ticks": 66048,
          "time": 126.625712,
          "velocity": 0.7086614173228346
        },
        {
          "duration": 0.08243861458332447,
          "durationTicks": 43,
          "midi": 79,
          "name": "G5",
          "ticks": 66720,
          "time": 127.91405499999999,
          "velocity": 0.7086614173228346
        },
        {
          "duration": 0.26648761458332615,
          "durationTicks": 139,
          "midi": 89,
          "name": "F6",
          "ticks": 66816,
          "time": 128.098104,
          "velocity": 0.7086614173228346
        },
        {
          "duration": 0.264570437499998,
          "durationTicks": 138,
          "midi": 86,
          "name": "D6",
          "ticks": 66816,
          "time": 128.098104,
          "velocity": 0.7086614173228346
        },
        {
          "duration": 0.2607360833333132,
          "durationTicks": 136,
          "midi": 79,
          "name": "G5",
          "ticks": 66816,
          "time": 128.098104,
          "velocity": 0.7086614173228346
        },
        {
          "duration": 0.23964713541667493,
          "durationTicks": 125,
          "midi": 89,
          "name": "F6",
          "ticks": 67008,
          "time": 128.46620199999998,
          "velocity": 0.7086614173228346
        },
        {
          "duration": 0.25306737500000054,
          "durationTicks": 132,
          "midi": 86,
          "name": "D6",
          "ticks": 67008,
          "time": 128.46620199999998,
          "velocity": 0.7086614173228346
        },
        {
          "duration": 0.26265326041669823,
          "durationTicks": 137,
          "midi": 79,
          "name": "G5",
          "ticks": 67008,
          "time": 128.46620199999998,
          "velocity": 0.7086614173228346
        },
        {
          "duration": 0.25881890625001347,
          "durationTicks": 135,
          "midi": 88,
          "name": "E6",
          "ticks": 67200,
          "time": 128.83429999999998,
          "velocity": 0.7086614173228346
        },
        {
          "duration": 0.2569017291666853,
          "durationTicks": 134,
          "midi": 84,
          "name": "C6",
          "ticks": 67200,
          "time": 128.83429999999998,
          "velocity": 0.7086614173228346
        },
        {
          "duration": 0.2703219687500109,
          "durationTicks": 141,
          "midi": 79,
          "name": "G5",
          "ticks": 67200,
          "time": 128.83429999999998,
          "velocity": 0.7086614173228346
        },
        {
          "duration": 0.2703219687500109,
          "durationTicks": 141,
          "midi": 79,
          "name": "G5",
          "ticks": 67392,
          "time": 129.202398,
          "velocity": 0.7086614173228346
        },
        {
          "duration": 0.25881890625001347,
          "durationTicks": 135,
          "midi": 88,
          "name": "E6",
          "ticks": 67392,
          "time": 129.202398,
          "velocity": 0.7086614173228346
        },
        {
          "duration": 0.2569017291666853,
          "durationTicks": 134,
          "midi": 84,
          "name": "C6",
          "ticks": 67392,
          "time": 129.202398,
          "velocity": 0.7086614173228346
        },
        {
          "duration": 0.17062876041666186,
          "durationTicks": 89,
          "midi": 83,
          "name": "B5",
          "ticks": 67584,
          "time": 129.570496,
          "velocity": 0.7086614173228346
        },
        {
          "duration": 0.1898005312500004,
          "durationTicks": 99,
          "midi": 79,
          "name": "G5",
          "ticks": 67584,
          "time": 129.570496,
          "velocity": 0.7086614173228346
        },
        {
          "duration": 0.1687115833333337,
          "durationTicks": 88,
          "midi": 86,
          "name": "D6",
          "ticks": 67584,
          "time": 129.570496,
          "velocity": 0.7086614173228346
        },
        {
          "duration": 1.4723920000000135,
          "durationTicks": 768,
          "midi": 91,
          "name": "G6",
          "ticks": 69120,
          "time": 132.51528,
          "velocity": 0.7086614173228346
        },
        {
          "duration": 1.478143531249998,
          "durationTicks": 771,
          "midi": 84,
          "name": "C6",
          "ticks": 69120,
          "time": 132.51528,
          "velocity": 0.7086614173228346
        },
        {
          "duration": 2.9447839999999985,
          "durationTicks": 1536,
          "midi": 79,
          "name": "G5",
          "ticks": 69120,
          "time": 132.51528,
          "velocity": 0.7086614173228346
        },
        {
          "duration": 1.4206282187499824,
          "durationTicks": 741,
          "midi": 86,
          "name": "D6",
          "ticks": 69888,
          "time": 133.987672,
          "velocity": 0.7086614173228346
        },
        {
          "duration": 1.361195729166667,
          "durationTicks": 710,
          "midi": 84,
          "name": "C6",
          "ticks": 70656,
          "time": 135.460064,
          "velocity": 0.7086614173228346
        },
        {
          "duration": 1.3784503229166774,
          "durationTicks": 719,
          "midi": 77,
          "name": "F5",
          "ticks": 70656,
          "time": 135.460064,
          "velocity": 0.7086614173228346
        },
        {
          "duration": 1.3209350104166901,
          "durationTicks": 689,
          "midi": 89,
          "name": "F6",
          "ticks": 70656,
          "time": 135.460064,
          "velocity": 0.7086614173228346
        },
        {
          "duration": 0.15912569791666442,
          "durationTicks": 83,
          "midi": 74,
          "name": "D5",
          "ticks": 71424,
          "time": 136.932456,
          "velocity": 0.7086614173228346
        },
        {
          "duration": 0.1667944062499771,
          "durationTicks": 87,
          "midi": 86,
          "name": "D6",
          "ticks": 71424,
          "time": 136.932456,
          "velocity": 0.7086614173228346
        },
        {
          "duration": 0.1610428749999926,
          "durationTicks": 84,
          "midi": 81,
          "name": "A5",
          "ticks": 71424,
          "time": 136.932456,
          "velocity": 0.7086614173228346
        },
        {
          "duration": 0.264570437499998,
          "durationTicks": 138,
          "midi": 86,
          "name": "D6",
          "ticks": 72960,
          "time": 139.87724,
          "velocity": 0.7086614173228346
        },
        {
          "duration": 0.2684047916666543,
          "durationTicks": 140,
          "midi": 79,
          "name": "G5",
          "ticks": 72960,
          "time": 139.87724,
          "velocity": 0.7086614173228346
        },
        {
          "duration": 0.2607360833333132,
          "durationTicks": 136,
          "midi": 89,
          "name": "F6",
          "ticks": 72960,
          "time": 139.87724,
          "velocity": 0.7086614173228346
        },
        {
          "duration": 0.2569017291666569,
          "durationTicks": 134,
          "midi": 79,
          "name": "G5",
          "ticks": 73152,
          "time": 140.245338,
          "velocity": 0.7086614173228346
        },
        {
          "duration": 0.24923302083331578,
          "durationTicks": 130,
          "midi": 89,
          "name": "F6",
          "ticks": 73152,
          "time": 140.245338,
          "velocity": 0.7086614173228346
        },
        {
          "duration": 0.24923302083331578,
          "durationTicks": 130,
          "midi": 86,
          "name": "D6",
          "ticks": 73152,
          "time": 140.245338,
          "velocity": 0.7086614173228346
        },
        {
          "duration": 0.26265326041669823,
          "durationTicks": 137,
          "midi": 79,
          "name": "G5",
          "ticks": 73344,
          "time": 140.61343599999998,
          "velocity": 0.7086614173228346
        },
        {
          "duration": 0.2569017291666853,
          "durationTicks": 134,
          "midi": 88,
          "name": "E6",
          "ticks": 73344,
          "time": 140.61343599999998,
          "velocity": 0.7086614173228346
        },
        {
          "duration": 0.2549845520833287,
          "durationTicks": 133,
          "midi": 84,
          "name": "C6",
          "ticks": 73344,
          "time": 140.61343599999998,
          "velocity": 0.7086614173228346
        },
        {
          "duration": 0.2799078541666802,
          "durationTicks": 146,
          "midi": 79,
          "name": "G5",
          "ticks": 73536,
          "time": 140.98153399999998,
          "velocity": 0.7086614173228346
        },
        {
          "duration": 0.2799078541666802,
          "durationTicks": 146,
          "midi": 84,
          "name": "C6",
          "ticks": 73536,
          "time": 140.98153399999998,
          "velocity": 0.7086614173228346
        },
        {
          "duration": 0.264570437499998,
          "durationTicks": 138,
          "midi": 88,
          "name": "E6",
          "ticks": 73536,
          "time": 140.98153399999998,
          "velocity": 0.7086614173228346
        },
        {
          "duration": 0.16296005208332076,
          "durationTicks": 85,
          "midi": 86,
          "name": "D6",
          "ticks": 73728,
          "time": 141.34963199999999,
          "velocity": 0.7086614173228346
        },
        {
          "duration": 0.18213182291668772,
          "durationTicks": 95,
          "midi": 79,
          "name": "G5",
          "ticks": 73728,
          "time": 141.34963199999999,
          "velocity": 0.7086614173228346
        },
        {
          "duration": 0.15529134375000808,
          "durationTicks": 81,
          "midi": 83,
          "name": "B5",
          "ticks": 73728,
          "time": 141.34963199999999,
          "velocity": 0.7086614173228346
        },
        {
          "duration": 0.0651840208333283,
          "durationTicks": 34,
          "midi": 79,
          "name": "G5",
          "ticks": 74400,
          "time": 142.63797499999998,
          "velocity": 0.7086614173228346
        },
        {
          "duration": 0.2473158437499876,
          "durationTicks": 129,
          "midi": 89,
          "name": "F6",
          "ticks": 74496,
          "time": 142.822024,
          "velocity": 0.7086614173228346
        },
        {
          "duration": 0.24348148958333127,
          "durationTicks": 127,
          "midi": 79,
          "name": "G5",
          "ticks": 74496,
          "time": 142.822024,
          "velocity": 0.7086614173228346
        },
        {
          "duration": 0.2473158437499876,
          "durationTicks": 129,
          "midi": 86,
          "name": "D6",
          "ticks": 74496,
          "time": 142.822024,
          "velocity": 0.7086614173228346
        },
        {
          "duration": 0.2185581874999798,
          "durationTicks": 114,
          "midi": 86,
          "name": "D6",
          "ticks": 74688,
          "time": 143.190122,
          "velocity": 0.7086614173228346
        },
        {
          "duration": 0.24539866666665944,
          "durationTicks": 128,
          "midi": 79,
          "name": "G5",
          "ticks": 74688,
          "time": 143.190122,
          "velocity": 0.7086614173228346
        },
        {
          "duration": 0.2262268958333209,
          "durationTicks": 118,
          "midi": 89,
          "name": "F6",
          "ticks": 74688,
          "time": 143.190122,
          "velocity": 0.7086614173228346
        },
        {
          "duration": 0.24923302083331578,
          "durationTicks": 130,
          "midi": 84,
          "name": "C6",
          "ticks": 74880,
          "time": 143.55822,
          "velocity": 0.7086614173228346
        },
        {
          "duration": 0.2569017291666569,
          "durationTicks": 134,
          "midi": 79,
          "name": "G5",
          "ticks": 74880,
          "time": 143.55822,
          "velocity": 0.7086614173228346
        },
        {
          "duration": 0.24923302083331578,
          "durationTicks": 130,
          "midi": 88,
          "name": "E6",
          "ticks": 74880,
          "time": 143.55822,
          "velocity": 0.7086614173228346
        },
        {
          "duration": 0.2722391458333391,
          "durationTicks": 142,
          "midi": 84,
          "name": "C6",
          "ticks": 75072,
          "time": 143.92631799999998,
          "velocity": 0.7086614173228346
        },
        {
          "duration": 0.26073608333334164,
          "durationTicks": 136,
          "midi": 88,
          "name": "E6",
          "ticks": 75072,
          "time": 143.92631799999998,
          "velocity": 0.7086614173228346
        },
        {
          "duration": 0.2799078541666802,
          "durationTicks": 146,
          "midi": 79,
          "name": "G5",
          "ticks": 75072,
          "time": 143.92631799999998,
          "velocity": 0.7086614173228346
        },
        {
          "duration": 0.17829746875000296,
          "durationTicks": 93,
          "midi": 79,
          "name": "G5",
          "ticks": 75264,
          "time": 144.29441599999998,
          "velocity": 0.7086614173228346
        },
        {
          "duration": 0.161042875000021,
          "durationTicks": 84,
          "midi": 83,
          "name": "B5",
          "ticks": 75264,
          "time": 144.29441599999998,
          "velocity": 0.7086614173228346
        },
        {
          "duration": 0.17062876041669028,
          "durationTicks": 89,
          "midi": 86,
          "name": "D6",
          "ticks": 75264,
          "time": 144.29441599999998,
          "velocity": 0.7086614173228346
        },
        {
          "duration": 0.07860426041668234,
          "durationTicks": 41,
          "midi": 79,
          "name": "G5",
          "ticks": 75936,
          "time": 145.58275899999998,
          "velocity": 0.7086614173228346
        },
        {
          "duration": 0.2607360833333132,
          "durationTicks": 136,
          "midi": 89,
          "name": "F6",
          "ticks": 76032,
          "time": 145.766808,
          "velocity": 0.7086614173228346
        },
        {
          "duration": 0.264570437499998,
          "durationTicks": 138,
          "midi": 86,
          "name": "D6",
          "ticks": 76032,
          "time": 145.766808,
          "velocity": 0.7086614173228346
        },
        {
          "duration": 0.2684047916666543,
          "durationTicks": 140,
          "midi": 79,
          "name": "G5",
          "ticks": 76032,
          "time": 145.766808,
          "velocity": 0.7086614173228346
        },
        {
          "duration": 0.2569017291666569,
          "durationTicks": 134,
          "midi": 79,
          "name": "G5",
          "ticks": 76224,
          "time": 146.134906,
          "velocity": 0.7086614173228346
        },
        {
          "duration": 0.24923302083331578,
          "durationTicks": 130,
          "midi": 89,
          "name": "F6",
          "ticks": 76224,
          "time": 146.134906,
          "velocity": 0.7086614173228346
        },
        {
          "duration": 0.24923302083331578,
          "durationTicks": 130,
          "midi": 86,
          "name": "D6",
          "ticks": 76224,
          "time": 146.134906,
          "velocity": 0.7086614173228346
        },
        {
          "duration": 0.2549845520833003,
          "durationTicks": 133,
          "midi": 84,
          "name": "C6",
          "ticks": 76416,
          "time": 146.503004,
          "velocity": 0.7086614173228346
        },
        {
          "duration": 0.2569017291666569,
          "durationTicks": 134,
          "midi": 88,
          "name": "E6",
          "ticks": 76416,
          "time": 146.503004,
          "velocity": 0.7086614173228346
        },
        {
          "duration": 0.2626532604166698,
          "durationTicks": 137,
          "midi": 79,
          "name": "G5",
          "ticks": 76416,
          "time": 146.503004,
          "velocity": 0.7086614173228346
        },
        {
          "duration": 0.2799078541666802,
          "durationTicks": 146,
          "midi": 84,
          "name": "C6",
          "ticks": 76608,
          "time": 146.87110199999998,
          "velocity": 0.7086614173228346
        },
        {
          "duration": 0.2645704375000264,
          "durationTicks": 138,
          "midi": 88,
          "name": "E6",
          "ticks": 76608,
          "time": 146.87110199999998,
          "velocity": 0.7086614173228346
        },
        {
          "duration": 0.2799078541666802,
          "durationTicks": 146,
          "midi": 79,
          "name": "G5",
          "ticks": 76608,
          "time": 146.87110199999998,
          "velocity": 0.7086614173228346
        },
        {
          "duration": 0.18213182291668772,
          "durationTicks": 95,
          "midi": 79,
          "name": "G5",
          "ticks": 76800,
          "time": 147.23919999999998,
          "velocity": 0.7086614173228346
        },
        {
          "duration": 0.16296005208334918,
          "durationTicks": 85,
          "midi": 86,
          "name": "D6",
          "ticks": 76800,
          "time": 147.23919999999998,
          "velocity": 0.7086614173228346
        },
        {
          "duration": 0.15529134375000808,
          "durationTicks": 81,
          "midi": 83,
          "name": "B5",
          "ticks": 76800,
          "time": 147.23919999999998,
          "velocity": 0.7086614173228346
        },
        {
          "duration": 0.0651840208333283,
          "durationTicks": 34,
          "midi": 79,
          "name": "G5",
          "ticks": 77472,
          "time": 148.52754299999998,
          "velocity": 0.7086614173228346
        },
        {
          "duration": 0.2473158437499876,
          "durationTicks": 129,
          "midi": 89,
          "name": "F6",
          "ticks": 77568,
          "time": 148.711592,
          "velocity": 0.7086614173228346
        },
        {
          "duration": 0.24348148958333127,
          "durationTicks": 127,
          "midi": 79,
          "name": "G5",
          "ticks": 77568,
          "time": 148.711592,
          "velocity": 0.7086614173228346
        },
        {
          "duration": 0.2473158437499876,
          "durationTicks": 129,
          "midi": 86,
          "name": "D6",
          "ticks": 77568,
          "time": 148.711592,
          "velocity": 0.7086614173228346
        },
        {
          "duration": 0.24539866666665944,
          "durationTicks": 128,
          "midi": 79,
          "name": "G5",
          "ticks": 77760,
          "time": 149.07969,
          "velocity": 0.7086614173228346
        },
        {
          "duration": 0.2262268958333209,
          "durationTicks": 118,
          "midi": 89,
          "name": "F6",
          "ticks": 77760,
          "time": 149.07969,
          "velocity": 0.7086614173228346
        },
        {
          "duration": 0.2185581874999798,
          "durationTicks": 114,
          "midi": 86,
          "name": "D6",
          "ticks": 77760,
          "time": 149.07969,
          "velocity": 0.7086614173228346
        },
        {
          "duration": 0.2569017291666569,
          "durationTicks": 134,
          "midi": 79,
          "name": "G5",
          "ticks": 77952,
          "time": 149.447788,
          "velocity": 0.7086614173228346
        },
        {
          "duration": 0.24923302083331578,
          "durationTicks": 130,
          "midi": 84,
          "name": "C6",
          "ticks": 77952,
          "time": 149.447788,
          "velocity": 0.7086614173228346
        },
        {
          "duration": 0.24923302083331578,
          "durationTicks": 130,
          "midi": 88,
          "name": "E6",
          "ticks": 77952,
          "time": 149.447788,
          "velocity": 0.7086614173228346
        },
        {
          "duration": 0.2607360833333132,
          "durationTicks": 136,
          "midi": 88,
          "name": "E6",
          "ticks": 78144,
          "time": 149.815886,
          "velocity": 0.7086614173228346
        },
        {
          "duration": 0.27223914583331066,
          "durationTicks": 142,
          "midi": 84,
          "name": "C6",
          "ticks": 78144,
          "time": 149.815886,
          "velocity": 0.7086614173228346
        },
        {
          "duration": 0.27990785416665176,
          "durationTicks": 146,
          "midi": 79,
          "name": "G5",
          "ticks": 78144,
          "time": 149.815886,
          "velocity": 0.7086614173228346
        },
        {
          "duration": 0.17829746875000296,
          "durationTicks": 93,
          "midi": 79,
          "name": "G5",
          "ticks": 78336,
          "time": 150.18398399999998,
          "velocity": 0.7086614173228346
        },
        {
          "duration": 0.17062876041669028,
          "durationTicks": 89,
          "midi": 86,
          "name": "D6",
          "ticks": 78336,
          "time": 150.18398399999998,
          "velocity": 0.7086614173228346
        },
        {
          "duration": 0.161042875000021,
          "durationTicks": 84,
          "midi": 83,
          "name": "B5",
          "ticks": 78336,
          "time": 150.18398399999998,
          "velocity": 0.7086614173228346
        },
        {
          "duration": 0.07860426041668234,
          "durationTicks": 41,
          "midi": 79,
          "name": "G5",
          "ticks": 79008,
          "time": 151.47232699999998,
          "velocity": 0.7086614173228346
        },
        {
          "duration": 0.26840479166668274,
          "durationTicks": 140,
          "midi": 79,
          "name": "G5",
          "ticks": 79104,
          "time": 151.656376,
          "velocity": 0.7086614173228346
        },
        {
          "duration": 0.2607360833333132,
          "durationTicks": 136,
          "midi": 89,
          "name": "F6",
          "ticks": 79104,
          "time": 151.656376,
          "velocity": 0.7086614173228346
        },
        {
          "duration": 0.264570437499998,
          "durationTicks": 138,
          "midi": 86,
          "name": "D6",
          "ticks": 79104,
          "time": 151.656376,
          "velocity": 0.7086614173228346
        },
        {
          "duration": 0.24923302083331578,
          "durationTicks": 130,
          "midi": 89,
          "name": "F6",
          "ticks": 79296,
          "time": 152.024474,
          "velocity": 0.7086614173228346
        },
        {
          "duration": 0.24923302083331578,
          "durationTicks": 130,
          "midi": 86,
          "name": "D6",
          "ticks": 79296,
          "time": 152.024474,
          "velocity": 0.7086614173228346
        },
        {
          "duration": 0.2569017291666569,
          "durationTicks": 134,
          "midi": 79,
          "name": "G5",
          "ticks": 79296,
          "time": 152.024474,
          "velocity": 0.7086614173228346
        },
        {
          "duration": 0.2626532604166698,
          "durationTicks": 137,
          "midi": 79,
          "name": "G5",
          "ticks": 79488,
          "time": 152.392572,
          "velocity": 0.7086614173228346
        },
        {
          "duration": 0.2569017291666569,
          "durationTicks": 134,
          "midi": 88,
          "name": "E6",
          "ticks": 79488,
          "time": 152.392572,
          "velocity": 0.7086614173228346
        },
        {
          "duration": 0.2549845520833287,
          "durationTicks": 133,
          "midi": 84,
          "name": "C6",
          "ticks": 79488,
          "time": 152.392572,
          "velocity": 0.7086614173228346
        },
        {
          "duration": 0.27990785416665176,
          "durationTicks": 146,
          "midi": 79,
          "name": "G5",
          "ticks": 79680,
          "time": 152.76067,
          "velocity": 0.7086614173228346
        },
        {
          "duration": 0.264570437499998,
          "durationTicks": 138,
          "midi": 88,
          "name": "E6",
          "ticks": 79680,
          "time": 152.76067,
          "velocity": 0.7086614173228346
        },
        {
          "duration": 0.27990785416665176,
          "durationTicks": 146,
          "midi": 84,
          "name": "C6",
          "ticks": 79680,
          "time": 152.76067,
          "velocity": 0.7086614173228346
        },
        {
          "duration": 0.15529134375000808,
          "durationTicks": 81,
          "midi": 83,
          "name": "B5",
          "ticks": 79872,
          "time": 153.12876799999998,
          "velocity": 0.7086614173228346
        },
        {
          "duration": 0.18213182291668772,
          "durationTicks": 95,
          "midi": 79,
          "name": "G5",
          "ticks": 79872,
          "time": 153.12876799999998,
          "velocity": 0.7086614173228346
        },
        {
          "duration": 0.16296005208334918,
          "durationTicks": 85,
          "midi": 86,
          "name": "D6",
          "ticks": 79872,
          "time": 153.12876799999998,
          "velocity": 0.7086614173228346
        },
        {
          "duration": 0.06518402083329988,
          "durationTicks": 34,
          "midi": 79,
          "name": "G5",
          "ticks": 80544,
          "time": 154.417111,
          "velocity": 0.7086614173228346
        },
        {
          "duration": 0.24348148958333127,
          "durationTicks": 127,
          "midi": 79,
          "name": "G5",
          "ticks": 80640,
          "time": 154.60116,
          "velocity": 0.7086614173228346
        },
        {
          "duration": 0.2473158437499876,
          "durationTicks": 129,
          "midi": 89,
          "name": "F6",
          "ticks": 80640,
          "time": 154.60116,
          "velocity": 0.7086614173228346
        },
        {
          "duration": 0.2473158437499876,
          "durationTicks": 129,
          "midi": 86,
          "name": "D6",
          "ticks": 80640,
          "time": 154.60116,
          "velocity": 0.7086614173228346
        },
        {
          "duration": 0.2262268958333209,
          "durationTicks": 118,
          "midi": 89,
          "name": "F6",
          "ticks": 80832,
          "time": 154.969258,
          "velocity": 0.7086614173228346
        },
        {
          "duration": 0.21855818750000822,
          "durationTicks": 114,
          "midi": 86,
          "name": "D6",
          "ticks": 80832,
          "time": 154.969258,
          "velocity": 0.7086614173228346
        },
        {
          "duration": 0.24539866666665944,
          "durationTicks": 128,
          "midi": 79,
          "name": "G5",
          "ticks": 80832,
          "time": 154.969258,
          "velocity": 0.7086614173228346
        },
        {
          "duration": 0.2569017291666569,
          "durationTicks": 134,
          "midi": 79,
          "name": "G5",
          "ticks": 81024,
          "time": 155.337356,
          "velocity": 0.7086614173228346
        },
        {
          "duration": 0.24923302083331578,
          "durationTicks": 130,
          "midi": 88,
          "name": "E6",
          "ticks": 81024,
          "time": 155.337356,
          "velocity": 0.7086614173228346
        },
        {
          "duration": 0.24923302083331578,
          "durationTicks": 130,
          "midi": 84,
          "name": "C6",
          "ticks": 81024,
          "time": 155.337356,
          "velocity": 0.7086614173228346
        },
        {
          "duration": 0.27223914583331066,
          "durationTicks": 142,
          "midi": 84,
          "name": "C6",
          "ticks": 81216,
          "time": 155.705454,
          "velocity": 0.7086614173228346
        },
        {
          "duration": 0.2607360833333132,
          "durationTicks": 136,
          "midi": 88,
          "name": "E6",
          "ticks": 81216,
          "time": 155.705454,
          "velocity": 0.7086614173228346
        },
        {
          "duration": 0.27990785416665176,
          "durationTicks": 146,
          "midi": 79,
          "name": "G5",
          "ticks": 81216,
          "time": 155.705454,
          "velocity": 0.7086614173228346
        },
        {
          "duration": 0.17062876041669028,
          "durationTicks": 89,
          "midi": 86,
          "name": "D6",
          "ticks": 81408,
          "time": 156.07355199999998,
          "velocity": 0.7086614173228346
        },
        {
          "duration": 0.17829746875000296,
          "durationTicks": 93,
          "midi": 79,
          "name": "G5",
          "ticks": 81408,
          "time": 156.07355199999998,
          "velocity": 0.7086614173228346
        },
        {
          "duration": 0.161042875000021,
          "durationTicks": 84,
          "midi": 83,
          "name": "B5",
          "ticks": 81408,
          "time": 156.07355199999998,
          "velocity": 0.7086614173228346
        },
        {
          "duration": 0.07860426041665391,
          "durationTicks": 41,
          "midi": 79,
          "name": "G5",
          "ticks": 82080,
          "time": 157.361895,
          "velocity": 0.7086614173228346
        },
        {
          "duration": 0.26840479166668274,
          "durationTicks": 140,
          "midi": 79,
          "name": "G5",
          "ticks": 82176,
          "time": 157.545944,
          "velocity": 0.7086614173228346
        },
        {
          "duration": 0.2607360833333132,
          "durationTicks": 136,
          "midi": 89,
          "name": "F6",
          "ticks": 82176,
          "time": 157.545944,
          "velocity": 0.7086614173228346
        },
        {
          "duration": 0.264570437499998,
          "durationTicks": 138,
          "midi": 86,
          "name": "D6",
          "ticks": 82176,
          "time": 157.545944,
          "velocity": 0.7086614173228346
        },
        {
          "duration": 0.2569017291666569,
          "durationTicks": 134,
          "midi": 79,
          "name": "G5",
          "ticks": 82368,
          "time": 157.914042,
          "velocity": 0.7086614173228346
        },
        {
          "duration": 0.24923302083331578,
          "durationTicks": 130,
          "midi": 89,
          "name": "F6",
          "ticks": 82368,
          "time": 157.914042,
          "velocity": 0.7086614173228346
        },
        {
          "duration": 0.24923302083331578,
          "durationTicks": 130,
          "midi": 86,
          "name": "D6",
          "ticks": 82368,
          "time": 157.914042,
          "velocity": 0.7086614173228346
        },
        {
          "duration": 0.2569017291666569,
          "durationTicks": 134,
          "midi": 88,
          "name": "E6",
          "ticks": 82560,
          "time": 158.28214,
          "velocity": 0.7086614173228346
        },
        {
          "duration": 0.2549845520833287,
          "durationTicks": 133,
          "midi": 84,
          "name": "C6",
          "ticks": 82560,
          "time": 158.28214,
          "velocity": 0.7086614173228346
        },
        {
          "duration": 0.2626532604166698,
          "durationTicks": 137,
          "midi": 79,
          "name": "G5",
          "ticks": 82560,
          "time": 158.28214,
          "velocity": 0.7086614173228346
        },
        {
          "duration": 0.264570437499998,
          "durationTicks": 138,
          "midi": 88,
          "name": "E6",
          "ticks": 82752,
          "time": 158.650238,
          "velocity": 0.7086614173228346
        },
        {
          "duration": 0.27990785416665176,
          "durationTicks": 146,
          "midi": 84,
          "name": "C6",
          "ticks": 82752,
          "time": 158.650238,
          "velocity": 0.7086614173228346
        },
        {
          "duration": 0.27990785416665176,
          "durationTicks": 146,
          "midi": 79,
          "name": "G5",
          "ticks": 82752,
          "time": 158.650238,
          "velocity": 0.7086614173228346
        },
        {
          "duration": 0.1821318229166593,
          "durationTicks": 95,
          "midi": 79,
          "name": "G5",
          "ticks": 82944,
          "time": 159.018336,
          "velocity": 0.7086614173228346
        },
        {
          "duration": 0.15529134374997966,
          "durationTicks": 81,
          "midi": 83,
          "name": "B5",
          "ticks": 82944,
          "time": 159.018336,
          "velocity": 0.7086614173228346
        },
        {
          "duration": 0.16296005208332076,
          "durationTicks": 85,
          "midi": 86,
          "name": "D6",
          "ticks": 82944,
          "time": 159.018336,
          "velocity": 0.7086614173228346
        },
        {
          "duration": 0.0651840208333283,
          "durationTicks": 34,
          "midi": 79,
          "name": "G5",
          "ticks": 83616,
          "time": 160.306679,
          "velocity": 0.7086614173228346
        },
        {
          "duration": 0.2473158437499876,
          "durationTicks": 129,
          "midi": 89,
          "name": "F6",
          "ticks": 83712,
          "time": 160.490728,
          "velocity": 0.7086614173228346
        },
        {
          "duration": 0.24348148958333127,
          "durationTicks": 127,
          "midi": 79,
          "name": "G5",
          "ticks": 83712,
          "time": 160.490728,
          "velocity": 0.7086614173228346
        },
        {
          "duration": 0.2473158437499876,
          "durationTicks": 129,
          "midi": 86,
          "name": "D6",
          "ticks": 83712,
          "time": 160.490728,
          "velocity": 0.7086614173228346
        },
        {
          "duration": 0.2262268958333209,
          "durationTicks": 118,
          "midi": 89,
          "name": "F6",
          "ticks": 83904,
          "time": 160.858826,
          "velocity": 0.7086614173228346
        },
        {
          "duration": 0.24539866666665944,
          "durationTicks": 128,
          "midi": 79,
          "name": "G5",
          "ticks": 83904,
          "time": 160.858826,
          "velocity": 0.7086614173228346
        },
        {
          "duration": 0.21855818750000822,
          "durationTicks": 114,
          "midi": 86,
          "name": "D6",
          "ticks": 83904,
          "time": 160.858826,
          "velocity": 0.7086614173228346
        },
        {
          "duration": 0.2569017291666569,
          "durationTicks": 134,
          "midi": 79,
          "name": "G5",
          "ticks": 84096,
          "time": 161.226924,
          "velocity": 0.7086614173228346
        },
        {
          "duration": 0.24923302083331578,
          "durationTicks": 130,
          "midi": 84,
          "name": "C6",
          "ticks": 84096,
          "time": 161.226924,
          "velocity": 0.7086614173228346
        },
        {
          "duration": 0.24923302083331578,
          "durationTicks": 130,
          "midi": 88,
          "name": "E6",
          "ticks": 84096,
          "time": 161.226924,
          "velocity": 0.7086614173228346
        },
        {
          "duration": 0.27990785416665176,
          "durationTicks": 146,
          "midi": 79,
          "name": "G5",
          "ticks": 84288,
          "time": 161.595022,
          "velocity": 0.7086614173228346
        },
        {
          "duration": 0.2607360833333132,
          "durationTicks": 136,
          "midi": 88,
          "name": "E6",
          "ticks": 84288,
          "time": 161.595022,
          "velocity": 0.7086614173228346
        },
        {
          "duration": 0.27223914583331066,
          "durationTicks": 142,
          "midi": 84,
          "name": "C6",
          "ticks": 84288,
          "time": 161.595022,
          "velocity": 0.7086614173228346
        },
        {
          "duration": 0.1610428749999926,
          "durationTicks": 84,
          "midi": 83,
          "name": "B5",
          "ticks": 84480,
          "time": 161.96312,
          "velocity": 0.7086614173228346
        },
        {
          "duration": 0.17829746874997454,
          "durationTicks": 93,
          "midi": 79,
          "name": "G5",
          "ticks": 84480,
          "time": 161.96312,
          "velocity": 0.7086614173228346
        },
        {
          "duration": 0.17062876041666186,
          "durationTicks": 89,
          "midi": 86,
          "name": "D6",
          "ticks": 84480,
          "time": 161.96312,
          "velocity": 0.7086614173228346
        },
        {
          "duration": 0.07860426041665391,
          "durationTicks": 41,
          "midi": 79,
          "name": "G5",
          "ticks": 85152,
          "time": 163.251463,
          "velocity": 0.7086614173228346
        },
        {
          "duration": 0.26073608333334164,
          "durationTicks": 136,
          "midi": 89,
          "name": "F6",
          "ticks": 85248,
          "time": 163.435512,
          "velocity": 0.7086614173228346
        },
        {
          "duration": 0.26840479166668274,
          "durationTicks": 140,
          "midi": 79,
          "name": "G5",
          "ticks": 85248,
          "time": 163.435512,
          "velocity": 0.7086614173228346
        },
        {
          "duration": 0.264570437499998,
          "durationTicks": 138,
          "midi": 86,
          "name": "D6",
          "ticks": 85248,
          "time": 163.435512,
          "velocity": 0.7086614173228346
        },
        {
          "duration": 0.2569017291666853,
          "durationTicks": 134,
          "midi": 79,
          "name": "G5",
          "ticks": 85440,
          "time": 163.80361,
          "velocity": 0.7086614173228346
        },
        {
          "duration": 0.24923302083331578,
          "durationTicks": 130,
          "midi": 89,
          "name": "F6",
          "ticks": 85440,
          "time": 163.80361,
          "velocity": 0.7086614173228346
        },
        {
          "duration": 0.24923302083331578,
          "durationTicks": 130,
          "midi": 86,
          "name": "D6",
          "ticks": 85440,
          "time": 163.80361,
          "velocity": 0.7086614173228346
        },
        {
          "duration": 0.2549845520833287,
          "durationTicks": 133,
          "midi": 84,
          "name": "C6",
          "ticks": 85632,
          "time": 164.171708,
          "velocity": 0.7086614173228346
        },
        {
          "duration": 0.2569017291666569,
          "durationTicks": 134,
          "midi": 88,
          "name": "E6",
          "ticks": 85632,
          "time": 164.171708,
          "velocity": 0.7086614173228346
        },
        {
          "duration": 0.2626532604166698,
          "durationTicks": 137,
          "midi": 79,
          "name": "G5",
          "ticks": 85632,
          "time": 164.171708,
          "velocity": 0.7086614173228346
        },
        {
          "duration": 0.264570437499998,
          "durationTicks": 138,
          "midi": 88,
          "name": "E6",
          "ticks": 85824,
          "time": 164.539806,
          "velocity": 0.7086614173228346
        },
        {
          "duration": 0.2799078541666802,
          "durationTicks": 146,
          "midi": 84,
          "name": "C6",
          "ticks": 85824,
          "time": 164.539806,
          "velocity": 0.7086614173228346
        },
        {
          "duration": 0.2799078541666802,
          "durationTicks": 146,
          "midi": 79,
          "name": "G5",
          "ticks": 85824,
          "time": 164.539806,
          "velocity": 0.7086614173228346
        },
        {
          "duration": 0.16296005208332076,
          "durationTicks": 85,
          "midi": 86,
          "name": "D6",
          "ticks": 86016,
          "time": 164.907904,
          "velocity": 0.7086614173228346
        },
        {
          "duration": 0.1821318229166593,
          "durationTicks": 95,
          "midi": 79,
          "name": "G5",
          "ticks": 86016,
          "time": 164.907904,
          "velocity": 0.7086614173228346
        },
        {
          "duration": 0.15529134374997966,
          "durationTicks": 81,
          "midi": 83,
          "name": "B5",
          "ticks": 86016,
          "time": 164.907904,
          "velocity": 0.7086614173228346
        },
        {
          "duration": 0.0651840208333283,
          "durationTicks": 34,
          "midi": 79,
          "name": "G5",
          "ticks": 86688,
          "time": 166.196247,
          "velocity": 0.7086614173228346
        },
        {
          "duration": 0.24731584375001603,
          "durationTicks": 129,
          "midi": 89,
          "name": "F6",
          "ticks": 86784,
          "time": 166.380296,
          "velocity": 0.7086614173228346
        },
        {
          "duration": 0.24348148958333127,
          "durationTicks": 127,
          "midi": 79,
          "name": "G5",
          "ticks": 86784,
          "time": 166.380296,
          "velocity": 0.7086614173228346
        },
        {
          "duration": 0.24731584375001603,
          "durationTicks": 129,
          "midi": 86,
          "name": "D6",
          "ticks": 86784,
          "time": 166.380296,
          "velocity": 0.7086614173228346
        },
        {
          "duration": 0.24539866666668786,
          "durationTicks": 128,
          "midi": 79,
          "name": "G5",
          "ticks": 86976,
          "time": 166.748394,
          "velocity": 0.7086614173228346
        },
        {
          "duration": 0.21855818750000822,
          "durationTicks": 114,
          "midi": 86,
          "name": "D6",
          "ticks": 86976,
          "time": 166.748394,
          "velocity": 0.7086614173228346
        },
        {
          "duration": 0.2262268958333209,
          "durationTicks": 118,
          "midi": 89,
          "name": "F6",
          "ticks": 86976,
          "time": 166.748394,
          "velocity": 0.7086614173228346
        },
        {
          "duration": 0.2569017291666569,
          "durationTicks": 134,
          "midi": 79,
          "name": "G5",
          "ticks": 87168,
          "time": 167.116492,
          "velocity": 0.7086614173228346
        },
        {
          "duration": 0.24923302083331578,
          "durationTicks": 130,
          "midi": 84,
          "name": "C6",
          "ticks": 87168,
          "time": 167.116492,
          "velocity": 0.7086614173228346
        },
        {
          "duration": 0.24923302083331578,
          "durationTicks": 130,
          "midi": 88,
          "name": "E6",
          "ticks": 87168,
          "time": 167.116492,
          "velocity": 0.7086614173228346
        },
        {
          "duration": 0.27223914583331066,
          "durationTicks": 142,
          "midi": 84,
          "name": "C6",
          "ticks": 87360,
          "time": 167.48459,
          "velocity": 0.7086614173228346
        },
        {
          "duration": 0.2607360833333132,
          "durationTicks": 136,
          "midi": 88,
          "name": "E6",
          "ticks": 87360,
          "time": 167.48459,
          "velocity": 0.7086614173228346
        },
        {
          "duration": 0.2799078541666802,
          "durationTicks": 146,
          "midi": 79,
          "name": "G5",
          "ticks": 87360,
          "time": 167.48459,
          "velocity": 0.7086614173228346
        },
        {
          "duration": 0.17829746875000296,
          "durationTicks": 93,
          "midi": 79,
          "name": "G5",
          "ticks": 87552,
          "time": 167.852688,
          "velocity": 0.7086614173228346
        },
        {
          "duration": 0.17062876041666186,
          "durationTicks": 89,
          "midi": 86,
          "name": "D6",
          "ticks": 87552,
          "time": 167.852688,
          "velocity": 0.7086614173228346
        },
        {
          "duration": 0.1610428749999926,
          "durationTicks": 84,
          "midi": 83,
          "name": "B5",
          "ticks": 87552,
          "time": 167.852688,
          "velocity": 0.7086614173228346
        },
        {
          "duration": 0.07860426041665391,
          "durationTicks": 41,
          "midi": 79,
          "name": "G5",
          "ticks": 88224,
          "time": 169.141031,
          "velocity": 0.7086614173228346
        },
        {
          "duration": 0.26840479166668274,
          "durationTicks": 140,
          "midi": 79,
          "name": "G5",
          "ticks": 88320,
          "time": 169.32507999999999,
          "velocity": 0.7086614173228346
        },
        {
          "duration": 0.26073608333334164,
          "durationTicks": 136,
          "midi": 89,
          "name": "F6",
          "ticks": 88320,
          "time": 169.32507999999999,
          "velocity": 0.7086614173228346
        },
        {
          "duration": 0.264570437499998,
          "durationTicks": 138,
          "midi": 86,
          "name": "D6",
          "ticks": 88320,
          "time": 169.32507999999999,
          "velocity": 0.7086614173228346
        },
        {
          "duration": 0.24923302083331578,
          "durationTicks": 130,
          "midi": 86,
          "name": "D6",
          "ticks": 88512,
          "time": 169.693178,
          "velocity": 0.7086614173228346
        },
        {
          "duration": 0.24923302083331578,
          "durationTicks": 130,
          "midi": 89,
          "name": "F6",
          "ticks": 88512,
          "time": 169.693178,
          "velocity": 0.7086614173228346
        },
        {
          "duration": 0.2569017291666853,
          "durationTicks": 134,
          "midi": 79,
          "name": "G5",
          "ticks": 88512,
          "time": 169.693178,
          "velocity": 0.7086614173228346
        },
        {
          "duration": 0.2549845520833287,
          "durationTicks": 133,
          "midi": 84,
          "name": "C6",
          "ticks": 88704,
          "time": 170.061276,
          "velocity": 0.7086614173228346
        },
        {
          "duration": 0.2569017291666853,
          "durationTicks": 134,
          "midi": 88,
          "name": "E6",
          "ticks": 88704,
          "time": 170.061276,
          "velocity": 0.7086614173228346
        },
        {
          "duration": 0.2626532604166698,
          "durationTicks": 137,
          "midi": 79,
          "name": "G5",
          "ticks": 88704,
          "time": 170.061276,
          "velocity": 0.7086614173228346
        },
        {
          "duration": 0.2799078541666802,
          "durationTicks": 146,
          "midi": 84,
          "name": "C6",
          "ticks": 88896,
          "time": 170.429374,
          "velocity": 0.7086614173228346
        },
        {
          "duration": 0.2799078541666802,
          "durationTicks": 146,
          "midi": 79,
          "name": "G5",
          "ticks": 88896,
          "time": 170.429374,
          "velocity": 0.7086614173228346
        },
        {
          "duration": 0.264570437499998,
          "durationTicks": 138,
          "midi": 88,
          "name": "E6",
          "ticks": 88896,
          "time": 170.429374,
          "velocity": 0.7086614173228346
        },
        {
          "duration": 0.1821318229166593,
          "durationTicks": 95,
          "midi": 79,
          "name": "G5",
          "ticks": 89088,
          "time": 170.797472,
          "velocity": 0.7086614173228346
        },
        {
          "duration": 0.15529134374997966,
          "durationTicks": 81,
          "midi": 83,
          "name": "B5",
          "ticks": 89088,
          "time": 170.797472,
          "velocity": 0.7086614173228346
        },
        {
          "duration": 0.16296005208332076,
          "durationTicks": 85,
          "midi": 86,
          "name": "D6",
          "ticks": 89088,
          "time": 170.797472,
          "velocity": 0.7086614173228346
        },
        {
          "duration": 0.0651840208333283,
          "durationTicks": 34,
          "midi": 79,
          "name": "G5",
          "ticks": 89760,
          "time": 172.085815,
          "velocity": 0.7086614173228346
        },
        {
          "duration": 0.24731584375001603,
          "durationTicks": 129,
          "midi": 89,
          "name": "F6",
          "ticks": 89856,
          "time": 172.26986399999998,
          "velocity": 0.7086614173228346
        },
        {
          "duration": 0.24731584375001603,
          "durationTicks": 129,
          "midi": 86,
          "name": "D6",
          "ticks": 89856,
          "time": 172.26986399999998,
          "velocity": 0.7086614173228346
        },
        {
          "duration": 0.24348148958333127,
          "durationTicks": 127,
          "midi": 79,
          "name": "G5",
          "ticks": 89856,
          "time": 172.26986399999998,
          "velocity": 0.7086614173228346
        },
        {
          "duration": 0.2262268958333209,
          "durationTicks": 118,
          "midi": 89,
          "name": "F6",
          "ticks": 90048,
          "time": 172.637962,
          "velocity": 0.7086614173228346
        },
        {
          "duration": 0.21855818750000822,
          "durationTicks": 114,
          "midi": 86,
          "name": "D6",
          "ticks": 90048,
          "time": 172.637962,
          "velocity": 0.7086614173228346
        },
        {
          "duration": 0.24539866666668786,
          "durationTicks": 128,
          "midi": 79,
          "name": "G5",
          "ticks": 90048,
          "time": 172.637962,
          "velocity": 0.7086614173228346
        },
        {
          "duration": 0.24923302083331578,
          "durationTicks": 130,
          "midi": 88,
          "name": "E6",
          "ticks": 90240,
          "time": 173.00606,
          "velocity": 0.7086614173228346
        },
        {
          "duration": 0.24923302083331578,
          "durationTicks": 130,
          "midi": 84,
          "name": "C6",
          "ticks": 90240,
          "time": 173.00606,
          "velocity": 0.7086614173228346
        },
        {
          "duration": 0.2569017291666853,
          "durationTicks": 134,
          "midi": 79,
          "name": "G5",
          "ticks": 90240,
          "time": 173.00606,
          "velocity": 0.7086614173228346
        },
        {
          "duration": 0.2607360833333132,
          "durationTicks": 136,
          "midi": 88,
          "name": "E6",
          "ticks": 90432,
          "time": 173.374158,
          "velocity": 0.7086614173228346
        },
        {
          "duration": 0.27223914583331066,
          "durationTicks": 142,
          "midi": 84,
          "name": "C6",
          "ticks": 90432,
          "time": 173.374158,
          "velocity": 0.7086614173228346
        },
        {
          "duration": 0.2799078541666802,
          "durationTicks": 146,
          "midi": 79,
          "name": "G5",
          "ticks": 90432,
          "time": 173.374158,
          "velocity": 0.7086614173228346
        },
        {
          "duration": 0.17829746875000296,
          "durationTicks": 93,
          "midi": 79,
          "name": "G5",
          "ticks": 90624,
          "time": 173.742256,
          "velocity": 0.7086614173228346
        },
        {
          "duration": 0.1610428749999926,
          "durationTicks": 84,
          "midi": 83,
          "name": "B5",
          "ticks": 90624,
          "time": 173.742256,
          "velocity": 0.7086614173228346
        },
        {
          "duration": 0.17062876041666186,
          "durationTicks": 89,
          "midi": 86,
          "name": "D6",
          "ticks": 90624,
          "time": 173.742256,
          "velocity": 0.7086614173228346
        },
        {
          "duration": 0.07860426041668234,
          "durationTicks": 41,
          "midi": 79,
          "name": "G5",
          "ticks": 91296,
          "time": 175.030599,
          "velocity": 0.7086614173228346
        },
        {
          "duration": 0.04026071875000525,
          "durationTicks": 21,
          "midi": 85,
          "name": "C#6",
          "ticks": 91398,
          "time": 175.22615106249998,
          "velocity": 0.7086614173228346
        },
        {
          "duration": 0.1744631145833182,
          "durationTicks": 91,
          "midi": 79,
          "name": "G5",
          "ticks": 91401,
          "time": 175.23190259375,
          "velocity": 0.7086614173228346
        },
        {
          "duration": 0.18404899999998747,
          "durationTicks": 96,
          "midi": 91,
          "name": "G6",
          "ticks": 91402,
          "time": 175.23381977083332,
          "velocity": 0.7086614173228346
        },
        {
          "duration": 0.1955520624999849,
          "durationTicks": 102,
          "midi": 86,
          "name": "D6",
          "ticks": 91417,
          "time": 175.26257742708333,
          "velocity": 0.7086614173228346
        },
        {
          "duration": 0.07668708333335417,
          "durationTicks": 40,
          "midi": 84,
          "name": "C6",
          "ticks": 91498,
          "time": 175.4178687708333,
          "velocity": 0.7086614173228346
        },
        {
          "duration": 0.049846604166674524,
          "durationTicks": 26,
          "midi": 83,
          "name": "B5",
          "ticks": 91522,
          "time": 175.46388102083333,
          "velocity": 0.7086614173228346
        },
        {
          "duration": 0.055598135416687455,
          "durationTicks": 29,
          "midi": 81,
          "name": "A5",
          "ticks": 91536,
          "time": 175.49072149999998,
          "velocity": 0.7086614173228346
        },
        {
          "duration": 0.055598135416659034,
          "durationTicks": 29,
          "midi": 79,
          "name": "G5",
          "ticks": 91550,
          "time": 175.51756197916666,
          "velocity": 0.7086614173228346
        },
        {
          "duration": 0.04026071875000525,
          "durationTicks": 21,
          "midi": 77,
          "name": "F5",
          "ticks": 91562,
          "time": 175.54056810416665,
          "velocity": 0.7086614173228346
        },
        {
          "duration": 0.03259201041666415,
          "durationTicks": 17,
          "midi": 76,
          "name": "E5",
          "ticks": 91573,
          "time": 175.56165705208332,
          "velocity": 0.7086614173228346
        },
        {
          "duration": 0.01917177083331012,
          "durationTicks": 10,
          "midi": 74,
          "name": "D5",
          "ticks": 91586,
          "time": 175.58658035416667,
          "velocity": 0.7086614173228346
        }
      ]
    },
    {
      "channel": 0,
      "controlChanges": {
        "0": [
          {
            "number": 0,
            "ticks": 578,
            "time": 1.1081283541666667,
            "value": 0
          }
        ],
        "1": [
          {
            "number": 1,
            "ticks": 8,
            "time": 0.015337416666666666,
            "value": 0
          }
        ],
        "6": [
          {
            "number": 6,
            "ticks": 6,
            "time": 0.0115030625,
            "value": 0.09448818897637795
          }
        ],
        "7": [
          {
            "number": 7,
            "ticks": 0,
            "time": 0,
            "value": 0.7874015748031497
          }
        ],
        "10": [
          {
            "number": 10,
            "ticks": 0,
            "time": 0,
            "value": 0.5039370078740157
          }
        ],
        "11": [
          {
            "number": 11,
            "ticks": 7,
            "time": 0.013420239583333333,
            "value": 1
          },
          {
            "number": 11,
            "ticks": 10,
            "time": 0.019171770833333334,
            "value": 1
          }
        ],
        "32": [
          {
            "number": 32,
            "ticks": 578,
            "time": 1.1081283541666667,
            "value": 0
          }
        ],
        "38": [
          {
            "number": 38,
            "ticks": 6,
            "time": 0.0115030625,
            "value": 0
          }
        ],
        "64": [
          {
            "number": 64,
            "ticks": 3,
            "time": 0.00575153125,
            "value": 0
          }
        ],
        "67": [
          {
            "number": 67,
            "ticks": 2,
            "time": 0.0038343541666666665,
            "value": 0
          }
        ],
        "100": [
          {
            "number": 100,
            "ticks": 6,
            "time": 0.0115030625,
            "value": 0
          }
        ],
        "101": [
          {
            "number": 101,
            "ticks": 6,
            "time": 0.0115030625,
            "value": 0
          }
        ],
        "121": [
          {
            "number": 121,
            "ticks": 0,
            "time": 0,
            "value": 0
          }
        ]
      },
      "pitchBends": [],
      "instrument": {
        "family": "piano",
        "number": 3,
        "name": "honky-tonk piano"
      },
      "name": "tk5",
      "notes": [],
      "endOfTrackTicks": 92064
    },
    {
      "channel": 4,
      "controlChanges": {
        "7": [
          {
            "number": 7,
            "ticks": 580,
            "time": 1.1119627083333334,
            "value": 0.7874015748031497
          }
        ],
        "11": [
          {
            "number": 11,
            "ticks": 584,
            "time": 1.1196314166666665,
            "value": 1
          }
        ],
        "91": [
          {
            "number": 91,
            "ticks": 586,
            "time": 1.1234657708333333,
            "value": 0.3464566929133858
          }
        ],
        "93": [
          {
            "number": 93,
            "ticks": 588,
            "time": 1.1273001249999999,
            "value": 0
          }
        ]
      },
      "pitchBends": [],
      "instrument": {
        "family": "piano",
        "number": 1,
        "name": "bright acoustic piano"
      },
      "name": "",
      "notes": [
        {
          "duration": 0.23581278124999994,
          "durationTicks": 123,
          "midi": 55,
          "name": "G3",
          "ticks": 3840,
          "time": 7.36196,
          "velocity": 1
        },
        {
          "duration": 0.20513794791666662,
          "durationTicks": 107,
          "midi": 55,
          "name": "G3",
          "ticks": 4032,
          "time": 7.730058,
          "velocity": 1
        },
        {
          "duration": 0.09394167708333256,
          "durationTicks": 49,
          "midi": 55,
          "name": "G3",
          "ticks": 4224,
          "time": 8.098156,
          "velocity": 1
        },
        {
          "duration": 0.1898005312500004,
          "durationTicks": 99,
          "midi": 55,
          "name": "G3",
          "ticks": 4320,
          "time": 8.282205,
          "velocity": 1
        },
        {
          "duration": 0.22047536458333283,
          "durationTicks": 115,
          "midi": 57,
          "name": "A3",
          "ticks": 4512,
          "time": 8.650303,
          "velocity": 1
        },
        {
          "duration": 0.1687115833333337,
          "durationTicks": 88,
          "midi": 57,
          "name": "A3",
          "ticks": 4704,
          "time": 9.018400999999999,
          "velocity": 1
        },
        {
          "duration": 0.6307512604166678,
          "durationTicks": 329,
          "midi": 60,
          "name": "C4",
          "ticks": 4896,
          "time": 9.386498999999999,
          "velocity": 1
        },
        {
          "duration": 0.10736191666666706,
          "durationTicks": 56,
          "midi": 60,
          "name": "C4",
          "ticks": 5280,
          "time": 10.122695,
          "velocity": 1
        },
        {
          "duration": 0.1725459374999989,
          "durationTicks": 90,
          "midi": 59,
          "name": "B3",
          "ticks": 5376,
          "time": 10.306744,
          "velocity": 1
        },
        {
          "duration": 0.1763802916666659,
          "durationTicks": 92,
          "midi": 57,
          "name": "A3",
          "ticks": 5472,
          "time": 10.490793,
          "velocity": 1
        },
        {
          "duration": 0.1898005312500004,
          "durationTicks": 99,
          "midi": 55,
          "name": "G3",
          "ticks": 5664,
          "time": 10.858891,
          "velocity": 1
        },
        {
          "duration": 0.3719323541666668,
          "durationTicks": 194,
          "midi": 55,
          "name": "G3",
          "ticks": 6912,
          "time": 13.251527999999999,
          "velocity": 1
        },
        {
          "duration": 0.06326684374999836,
          "durationTicks": 33,
          "midi": 55,
          "name": "G3",
          "ticks": 7200,
          "time": 13.803675,
          "velocity": 1
        },
        {
          "duration": 0.07668708333333285,
          "durationTicks": 40,
          "midi": 55,
          "name": "G3",
          "ticks": 7296,
          "time": 13.987724,
          "velocity": 1
        },
        {
          "duration": 0.25115019791666526,
          "durationTicks": 131,
          "midi": 55,
          "name": "G3",
          "ticks": 7392,
          "time": 14.171773,
          "velocity": 1
        },
        {
          "duration": 0.3815182395833343,
          "durationTicks": 199,
          "midi": 57,
          "name": "A3",
          "ticks": 7584,
          "time": 14.539871,
          "velocity": 1
        },
        {
          "duration": 0.08819014583333384,
          "durationTicks": 46,
          "midi": 57,
          "name": "A3",
          "ticks": 7872,
          "time": 15.092018,
          "velocity": 1
        },
        {
          "duration": 0.18021464583333469,
          "durationTicks": 94,
          "midi": 60,
          "name": "C4",
          "ticks": 7968,
          "time": 15.276067,
          "velocity": 1
        },
        {
          "duration": 0.42944766666666645,
          "durationTicks": 224,
          "midi": 60,
          "name": "C4",
          "ticks": 8160,
          "time": 15.644165,
          "velocity": 1
        },
        {
          "duration": 0.23006124999999855,
          "durationTicks": 120,
          "midi": 59,
          "name": "B3",
          "ticks": 8448,
          "time": 16.196312,
          "velocity": 1
        },
        {
          "duration": 0.4045243645833345,
          "durationTicks": 211,
          "midi": 64,
          "name": "E4",
          "ticks": 9984,
          "time": 19.141095999999997,
          "velocity": 1
        },
        {
          "duration": 0.4332820208333352,
          "durationTicks": 226,
          "midi": 60,
          "name": "C4",
          "ticks": 9984,
          "time": 19.141095999999997,
          "velocity": 1
        },
        {
          "duration": 0.124616510416665,
          "durationTicks": 65,
          "midi": 60,
          "name": "C4",
          "ticks": 10272,
          "time": 19.693243,
          "velocity": 0.9291338582677166
        },
        {
          "duration": 0.12269933333333327,
          "durationTicks": 64,
          "midi": 64,
          "name": "E4",
          "ticks": 10272,
          "time": 19.693243,
          "velocity": 0.9291338582677166
        },
        {
          "duration": 0.08052143749999985,
          "durationTicks": 42,
          "midi": 59,
          "name": "B3",
          "ticks": 10368,
          "time": 19.877292,
          "velocity": 1
        },
        {
          "duration": 0.08819014583333384,
          "durationTicks": 46,
          "midi": 62,
          "name": "D4",
          "ticks": 10368,
          "time": 19.877292,
          "velocity": 1
        },
        {
          "duration": 0.18788335416666513,
          "durationTicks": 98,
          "midi": 57,
          "name": "A3",
          "ticks": 10464,
          "time": 20.061341,
          "velocity": 1
        },
        {
          "duration": 0.17446311458333597,
          "durationTicks": 91,
          "midi": 60,
          "name": "C4",
          "ticks": 10464,
          "time": 20.061341,
          "velocity": 1
        },
        {
          "duration": 0.24539866666666654,
          "durationTicks": 128,
          "midi": 55,
          "name": "G3",
          "ticks": 10656,
          "time": 20.429439,
          "velocity": 1
        },
        {
          "duration": 0.2089723020833354,
          "durationTicks": 109,
          "midi": 59,
          "name": "B3",
          "ticks": 10656,
          "time": 20.429439,
          "velocity": 1
        },
        {
          "duration": 0.1648772291666667,
          "durationTicks": 86,
          "midi": 59,
          "name": "B3",
          "ticks": 10848,
          "time": 20.797537,
          "velocity": 1
        },
        {
          "duration": 0.1974692395833344,
          "durationTicks": 103,
          "midi": 55,
          "name": "G3",
          "ticks": 10848,
          "time": 20.797537,
          "velocity": 1
        },
        {
          "duration": 0.1533741666666657,
          "durationTicks": 80,
          "midi": 50,
          "name": "D3",
          "ticks": 11040,
          "time": 21.165634999999998,
          "velocity": 1
        },
        {
          "duration": 0.11119627083333228,
          "durationTicks": 58,
          "midi": 52,
          "name": "E3",
          "ticks": 11136,
          "time": 21.349684,
          "velocity": 1
        },
        {
          "duration": 0.15529134375000098,
          "durationTicks": 81,
          "midi": 55,
          "name": "G3",
          "ticks": 11232,
          "time": 21.533732999999998,
          "velocity": 1
        },
        {
          "duration": 0.08243861458333512,
          "durationTicks": 43,
          "midi": 52,
          "name": "E3",
          "ticks": 11424,
          "time": 21.901830999999998,
          "velocity": 1
        },
        {
          "duration": 0.1744631145833324,
          "durationTicks": 91,
          "midi": 55,
          "name": "G3",
          "ticks": 11520,
          "time": 22.08588,
          "velocity": 1
        },
        {
          "duration": 0.10161038541666656,
          "durationTicks": 53,
          "midi": 60,
          "name": "C4",
          "ticks": 11712,
          "time": 22.453978,
          "velocity": 1
        },
        {
          "duration": 0.08435579166666685,
          "durationTicks": 44,
          "midi": 64,
          "name": "E4",
          "ticks": 11712,
          "time": 22.453978,
          "velocity": 1
        },
        {
          "duration": 0.07476990625000113,
          "durationTicks": 39,
          "midi": 64,
          "name": "E4",
          "ticks": 11808,
          "time": 22.638026999999997,
          "velocity": 1
        },
        {
          "duration": 0.0766870833333364,
          "durationTicks": 40,
          "midi": 60,
          "name": "C4",
          "ticks": 11808,
          "time": 22.638026999999997,
          "velocity": 1
        },
        {
          "duration": 0.07860426041666457,
          "durationTicks": 41,
          "midi": 62,
          "name": "D4",
          "ticks": 11904,
          "time": 22.822076,
          "velocity": 1
        },
        {
          "duration": 0.07860426041666457,
          "durationTicks": 41,
          "midi": 59,
          "name": "B3",
          "ticks": 11904,
          "time": 22.822076,
          "velocity": 1
        },
        {
          "duration": 0.21664101041666584,
          "durationTicks": 113,
          "midi": 57,
          "name": "A3",
          "ticks": 12000,
          "time": 23.006124999999997,
          "velocity": 1
        },
        {
          "duration": 0.2147238333333341,
          "durationTicks": 112,
          "midi": 60,
          "name": "C4",
          "ticks": 12000,
          "time": 23.006124999999997,
          "velocity": 1
        },
        {
          "duration": 0.5157206354166703,
          "durationTicks": 269,
          "midi": 59,
          "name": "B3",
          "ticks": 12192,
          "time": 23.374222999999997,
          "velocity": 1
        },
        {
          "duration": 0.5233893437500008,
          "durationTicks": 273,
          "midi": 55,
          "name": "G3",
          "ticks": 12192,
          "time": 23.374222999999997,
          "velocity": 1
        },
        {
          "duration": 0.1495398124999987,
          "durationTicks": 78,
          "midi": 50,
          "name": "D3",
          "ticks": 12576,
          "time": 24.110419,
          "velocity": 1
        },
        {
          "duration": 0.12653368750000027,
          "durationTicks": 66,
          "midi": 52,
          "name": "E3",
          "ticks": 12672,
          "time": 24.294468,
          "velocity": 1
        },
        {
          "duration": 0.19746923958333085,
          "durationTicks": 103,
          "midi": 55,
          "name": "G3",
          "ticks": 12768,
          "time": 24.478517,
          "velocity": 1
        },
        {
          "duration": 0.08819014583333029,
          "durationTicks": 46,
          "midi": 52,
          "name": "E3",
          "ticks": 12960,
          "time": 24.846615,
          "velocity": 1
        },
        {
          "duration": 0.18788335416666868,
          "durationTicks": 98,
          "midi": 55,
          "name": "G3",
          "ticks": 13056,
          "time": 25.030663999999998,
          "velocity": 1
        },
        {
          "duration": 0.09202450000000084,
          "durationTicks": 48,
          "midi": 64,
          "name": "E4",
          "ticks": 13248,
          "time": 25.398761999999998,
          "velocity": 1
        },
        {
          "duration": 0.10352756250000184,
          "durationTicks": 54,
          "midi": 60,
          "name": "C4",
          "ticks": 13248,
          "time": 25.398761999999998,
          "velocity": 1
        },
        {
          "duration": 0.09010732291666912,
          "durationTicks": 47,
          "midi": 64,
          "name": "E4",
          "ticks": 13344,
          "time": 25.582811,
          "velocity": 1
        },
        {
          "duration": 0.10161038541666656,
          "durationTicks": 53,
          "midi": 60,
          "name": "C4",
          "ticks": 13344,
          "time": 25.582811,
          "velocity": 1
        },
        {
          "duration": 0.2147238333333341,
          "durationTicks": 112,
          "midi": 62,
          "name": "D4",
          "ticks": 13440,
          "time": 25.766859999999998,
          "velocity": 1
        },
        {
          "duration": 0.23964713541666782,
          "durationTicks": 125,
          "midi": 59,
          "name": "B3",
          "ticks": 13440,
          "time": 25.766859999999998,
          "velocity": 1
        },
        {
          "duration": 0.25306737500000054,
          "durationTicks": 132,
          "midi": 60,
          "name": "C4",
          "ticks": 13632,
          "time": 26.134957999999997,
          "velocity": 1
        },
        {
          "duration": 0.26648761458333325,
          "durationTicks": 139,
          "midi": 57,
          "name": "A3",
          "ticks": 13632,
          "time": 26.134957999999997,
          "velocity": 1
        },
        {
          "duration": 0.23964713541667138,
          "durationTicks": 125,
          "midi": 59,
          "name": "B3",
          "ticks": 13824,
          "time": 26.503055999999997,
          "velocity": 1
        },
        {
          "duration": 0.24923302083333354,
          "durationTicks": 130,
          "midi": 55,
          "name": "G3",
          "ticks": 13824,
          "time": 26.503055999999997,
          "velocity": 1
        },
        {
          "duration": 0.2166410104166694,
          "durationTicks": 113,
          "midi": 55,
          "name": "G3",
          "ticks": 14016,
          "time": 26.871153999999997,
          "velocity": 1
        },
        {
          "duration": 0.2338956041666691,
          "durationTicks": 122,
          "midi": 59,
          "name": "B3",
          "ticks": 14016,
          "time": 26.871153999999997,
          "velocity": 1
        },
        {
          "duration": 0.15912569791667153,
          "durationTicks": 83,
          "midi": 52,
          "name": "E3",
          "ticks": 14208,
          "time": 27.239251999999997,
          "velocity": 1
        },
        {
          "duration": 0.2453986666666701,
          "durationTicks": 128,
          "midi": 53,
          "name": "F3",
          "ticks": 14304,
          "time": 27.423301,
          "velocity": 1
        },
        {
          "duration": 0.20897230208333184,
          "durationTicks": 109,
          "midi": 62,
          "name": "D4",
          "ticks": 14496,
          "time": 27.791399,
          "velocity": 1
        },
        {
          "duration": 0.276073499999999,
          "durationTicks": 144,
          "midi": 54,
          "name": "F#3",
          "ticks": 14496,
          "time": 27.791399,
          "velocity": 1
        },
        {
          "duration": 0.0728527291666694,
          "durationTicks": 38,
          "midi": 55,
          "name": "G3",
          "ticks": 15552,
          "time": 29.815938,
          "velocity": 1
        },
        {
          "duration": 0.06518402083333186,
          "durationTicks": 34,
          "midi": 55,
          "name": "G3",
          "ticks": 15648,
          "time": 29.999986999999997,
          "velocity": 1
        },
        {
          "duration": 0.08627296874999857,
          "durationTicks": 45,
          "midi": 55,
          "name": "G3",
          "ticks": 15744,
          "time": 30.184036,
          "velocity": 1
        },
        {
          "duration": 0.17829746875000296,
          "durationTicks": 93,
          "midi": 59,
          "name": "B3",
          "ticks": 15840,
          "time": 30.368084999999997,
          "velocity": 1
        },
        {
          "duration": 0.272239145833332,
          "durationTicks": 142,
          "midi": 62,
          "name": "D4",
          "ticks": 16032,
          "time": 30.736182999999997,
          "velocity": 1
        },
        {
          "duration": 0.09585885416666429,
          "durationTicks": 50,
          "midi": 62,
          "name": "D4",
          "ticks": 17088,
          "time": 32.760722,
          "velocity": 1
        },
        {
          "duration": 0.09969320833332773,
          "durationTicks": 52,
          "midi": 67,
          "name": "G4",
          "ticks": 17088,
          "time": 32.760722,
          "velocity": 0.9291338582677166
        },
        {
          "duration": 0.3872697708333348,
          "durationTicks": 202,
          "midi": 67,
          "name": "G4",
          "ticks": 17184,
          "time": 32.944770999999996,
          "velocity": 1
        },
        {
          "duration": 0.34700905208333666,
          "durationTicks": 181,
          "midi": 64,
          "name": "E4",
          "ticks": 17184,
          "time": 32.944770999999996,
          "velocity": 1
        },
        {
          "duration": 0.09585885416666429,
          "durationTicks": 50,
          "midi": 62,
          "name": "D4",
          "ticks": 17376,
          "time": 33.312869,
          "velocity": 1
        },
        {
          "duration": 0.09394167708332901,
          "durationTicks": 49,
          "midi": 67,
          "name": "G4",
          "ticks": 17472,
          "time": 33.496918,
          "velocity": 1
        },
        {
          "duration": 0.09777603124999956,
          "durationTicks": 51,
          "midi": 64,
          "name": "E4",
          "ticks": 17472,
          "time": 33.496918,
          "velocity": 1
        },
        {
          "duration": 0.2569017291666711,
          "durationTicks": 134,
          "midi": 67,
          "name": "G4",
          "ticks": 17568,
          "time": 33.680966999999995,
          "velocity": 1
        },
        {
          "duration": 0.21472383333333767,
          "durationTicks": 112,
          "midi": 64,
          "name": "E4",
          "ticks": 17568,
          "time": 33.680966999999995,
          "velocity": 1
        },
        {
          "duration": 0.19555206249999912,
          "durationTicks": 102,
          "midi": 62,
          "name": "D4",
          "ticks": 17760,
          "time": 34.049065,
          "velocity": 1
        },
        {
          "duration": 0.19171770833332857,
          "durationTicks": 100,
          "midi": 67,
          "name": "G4",
          "ticks": 17760,
          "time": 34.049065,
          "velocity": 1
        },
        {
          "duration": 0.07860426041666813,
          "durationTicks": 41,
          "midi": 55,
          "name": "G3",
          "ticks": 18720,
          "time": 35.889555,
          "velocity": 1
        },
        {
          "duration": 0.11503062500000283,
          "durationTicks": 60,
          "midi": 55,
          "name": "G3",
          "ticks": 18816,
          "time": 36.073603999999996,
          "velocity": 1
        },
        {
          "duration": 0.15720852083332915,
          "durationTicks": 82,
          "midi": 59,
          "name": "B3",
          "ticks": 18912,
          "time": 36.257653,
          "velocity": 1
        },
        {
          "duration": 0.20322077083332601,
          "durationTicks": 106,
          "midi": 62,
          "name": "D4",
          "ticks": 19104,
          "time": 36.625751,
          "velocity": 1
        },
        {
          "duration": 0.07860426041666813,
          "durationTicks": 41,
          "midi": 62,
          "name": "D4",
          "ticks": 20160,
          "time": 38.65029,
          "velocity": 1
        },
        {
          "duration": 0.08243861458333157,
          "durationTicks": 43,
          "midi": 67,
          "name": "G4",
          "ticks": 20160,
          "time": 38.65029,
          "velocity": 1
        },
        {
          "duration": 0.33934034374999555,
          "durationTicks": 177,
          "midi": 64,
          "name": "E4",
          "ticks": 20256,
          "time": 38.834339,
          "velocity": 1
        },
        {
          "duration": 0.3661808229166681,
          "durationTicks": 191,
          "midi": 67,
          "name": "G4",
          "ticks": 20256,
          "time": 38.834339,
          "velocity": 1
        },
        {
          "duration": 0.07860426041666813,
          "durationTicks": 41,
          "midi": 62,
          "name": "D4",
          "ticks": 20448,
          "time": 39.202436999999996,
          "velocity": 0.9291338582677166
        },
        {
          "duration": 0.26648761458333325,
          "durationTicks": 139,
          "midi": 64,
          "name": "E4",
          "ticks": 20544,
          "time": 39.386486,
          "velocity": 1
        },
        {
          "duration": 0.3009968020833327,
          "durationTicks": 157,
          "midi": 67,
          "name": "G4",
          "ticks": 20544,
          "time": 39.386486,
          "velocity": 1
        },
        {
          "duration": 0.28757656249999997,
          "durationTicks": 150,
          "midi": 67,
          "name": "G4",
          "ticks": 20736,
          "time": 39.754584,
          "velocity": 1
        },
        {
          "duration": 0.3201685729166641,
          "durationTicks": 167,
          "midi": 62,
          "name": "D4",
          "ticks": 20736,
          "time": 39.754584,
          "velocity": 1
        },
        {
          "duration": 0.15912569791666442,
          "durationTicks": 83,
          "midi": 55,
          "name": "G3",
          "ticks": 21888,
          "time": 41.963172,
          "velocity": 1
        },
        {
          "duration": 0.5003832187500024,
          "durationTicks": 261,
          "midi": 59,
          "name": "B3",
          "ticks": 21984,
          "time": 42.147220999999995,
          "velocity": 1
        },
        {
          "duration": 0.12269933333332972,
          "durationTicks": 64,
          "midi": 62,
          "name": "D4",
          "ticks": 22272,
          "time": 42.699368,
          "velocity": 1
        },
        {
          "duration": 1.0525302187500003,
          "durationTicks": 549,
          "midi": 67,
          "name": "G4",
          "ticks": 22464,
          "time": 43.067465999999996,
          "velocity": 1
        },
        {
          "duration": 1.0218553854166714,
          "durationTicks": 533,
          "midi": 62,
          "name": "D4",
          "ticks": 22464,
          "time": 43.067465999999996,
          "velocity": 1
        },
        {
          "duration": 0.5042175729166658,
          "durationTicks": 263,
          "midi": 60,
          "name": "C4",
          "ticks": 23040,
          "time": 44.17176,
          "velocity": 1
        },
        {
          "duration": 0.4467022604166644,
          "durationTicks": 233,
          "midi": 67,
          "name": "G4",
          "ticks": 23040,
          "time": 44.17176,
          "velocity": 0.7637795275590551
        },
        {
          "duration": 0.4524537916666702,
          "durationTicks": 236,
          "midi": 67,
          "name": "G4",
          "ticks": 23328,
          "time": 44.723907,
          "velocity": 1
        },
        {
          "duration": 0.4543709687499984,
          "durationTicks": 237,
          "midi": 64,
          "name": "E4",
          "ticks": 23328,
          "time": 44.723907,
          "velocity": 1
        },
        {
          "duration": 0.272239145833332,
          "durationTicks": 142,
          "midi": 64,
          "name": "E4",
          "ticks": 23616,
          "time": 45.276053999999995,
          "velocity": 1
        },
        {
          "duration": 0.25881890624999926,
          "durationTicks": 135,
          "midi": 67,
          "name": "G4",
          "ticks": 23616,
          "time": 45.276053999999995,
          "velocity": 1
        },
        {
          "duration": 0.13995392708333299,
          "durationTicks": 73,
          "midi": 64,
          "name": "E4",
          "ticks": 23808,
          "time": 45.644152,
          "velocity": 1
        },
        {
          "duration": 0.6441714999999988,
          "durationTicks": 336,
          "midi": 67,
          "name": "G4",
          "ticks": 23808,
          "time": 45.644152,
          "velocity": 1
        },
        {
          "duration": 0.4601224999999971,
          "durationTicks": 240,
          "midi": 62,
          "name": "D4",
          "ticks": 23904,
          "time": 45.828201,
          "velocity": 1
        },
        {
          "duration": 0.26073608333333453,
          "durationTicks": 136,
          "midi": 62,
          "name": "D4",
          "ticks": 24192,
          "time": 46.380348,
          "velocity": 1
        },
        {
          "duration": 0.23581278124999727,
          "durationTicks": 123,
          "midi": 67,
          "name": "G4",
          "ticks": 24192,
          "time": 46.380348,
          "velocity": 1
        },
        {
          "duration": 0.07093555208333413,
          "durationTicks": 37,
          "midi": 62,
          "name": "D4",
          "ticks": 24384,
          "time": 46.748445999999994,
          "velocity": 0.8346456692913385
        },
        {
          "duration": 0.2185581875000011,
          "durationTicks": 114,
          "midi": 62,
          "name": "D4",
          "ticks": 24480,
          "time": 46.932494999999996,
          "velocity": 1
        },
        {
          "duration": 0.2051379479166684,
          "durationTicks": 107,
          "midi": 67,
          "name": "G4",
          "ticks": 24480,
          "time": 46.932494999999996,
          "velocity": 1
        },
        {
          "duration": 0.4543709687499984,
          "durationTicks": 237,
          "midi": 60,
          "name": "C4",
          "ticks": 24672,
          "time": 47.300593,
          "velocity": 1
        },
        {
          "duration": 0.4467022604166644,
          "durationTicks": 233,
          "midi": 65,
          "name": "F4",
          "ticks": 24672,
          "time": 47.300593,
          "velocity": 1
        },
        {
          "duration": 0.1974692395833344,
          "durationTicks": 103,
          "midi": 65,
          "name": "F4",
          "ticks": 24960,
          "time": 47.85274,
          "velocity": 1
        },
        {
          "duration": 0.21664101041666584,
          "durationTicks": 113,
          "midi": 60,
          "name": "C4",
          "ticks": 24960,
          "time": 47.85274,
          "velocity": 1
        },
        {
          "duration": 0.17829746874999586,
          "durationTicks": 93,
          "midi": 57,
          "name": "A3",
          "ticks": 25152,
          "time": 48.220838,
          "velocity": 1
        },
        {
          "duration": 0.26073608333333453,
          "durationTicks": 136,
          "midi": 57,
          "name": "A3",
          "ticks": 25344,
          "time": 48.588936,
          "velocity": 1
        },
        {
          "duration": 0.23581278125000438,
          "durationTicks": 123,
          "midi": 55,
          "name": "G3",
          "ticks": 26880,
          "time": 51.533719999999995,
          "velocity": 1
        },
        {
          "duration": 0.2051379479166613,
          "durationTicks": 107,
          "midi": 55,
          "name": "G3",
          "ticks": 27072,
          "time": 51.901818,
          "velocity": 1
        },
        {
          "duration": 0.09394167708333612,
          "durationTicks": 49,
          "midi": 55,
          "name": "G3",
          "ticks": 27264,
          "time": 52.269915999999995,
          "velocity": 1
        },
        {
          "duration": 0.1898005312500004,
          "durationTicks": 99,
          "midi": 55,
          "name": "G3",
          "ticks": 27360,
          "time": 52.453965,
          "velocity": 1
        },
        {
          "duration": 0.2204753645833364,
          "durationTicks": 115,
          "midi": 57,
          "name": "A3",
          "ticks": 27552,
          "time": 52.822063,
          "velocity": 1
        },
        {
          "duration": 0.1687115833333408,
          "durationTicks": 88,
          "midi": 57,
          "name": "A3",
          "ticks": 27744,
          "time": 53.190160999999996,
          "velocity": 1
        },
        {
          "duration": 0.630751260416659,
          "durationTicks": 329,
          "midi": 60,
          "name": "C4",
          "ticks": 27936,
          "time": 53.558259,
          "velocity": 1
        },
        {
          "duration": 0.10736191666666173,
          "durationTicks": 56,
          "midi": 60,
          "name": "C4",
          "ticks": 28320,
          "time": 54.294455,
          "velocity": 1
        },
        {
          "duration": 0.17254593750000424,
          "durationTicks": 90,
          "midi": 59,
          "name": "B3",
          "ticks": 28416,
          "time": 54.478503999999994,
          "velocity": 1
        },
        {
          "duration": 0.1763802916666677,
          "durationTicks": 92,
          "midi": 57,
          "name": "A3",
          "ticks": 28512,
          "time": 54.662552999999996,
          "velocity": 1
        },
        {
          "duration": 0.1898005312500004,
          "durationTicks": 99,
          "midi": 55,
          "name": "G3",
          "ticks": 28704,
          "time": 55.030651,
          "velocity": 1
        },
        {
          "duration": 0.3719323541666597,
          "durationTicks": 194,
          "midi": 55,
          "name": "G3",
          "ticks": 29952,
          "time": 57.423288,
          "velocity": 1
        },
        {
          "duration": 0.06326684375000013,
          "durationTicks": 33,
          "midi": 55,
          "name": "G3",
          "ticks": 30240,
          "time": 57.975435,
          "velocity": 1
        },
        {
          "duration": 0.07668708333333285,
          "durationTicks": 40,
          "midi": 55,
          "name": "G3",
          "ticks": 30336,
          "time": 58.159484,
          "velocity": 1
        },
        {
          "duration": 0.25115019791666526,
          "durationTicks": 131,
          "midi": 55,
          "name": "G3",
          "ticks": 30432,
          "time": 58.343532999999994,
          "velocity": 1
        },
        {
          "duration": 0.3815182395833361,
          "durationTicks": 199,
          "midi": 57,
          "name": "A3",
          "ticks": 30624,
          "time": 58.711631,
          "velocity": 1
        },
        {
          "duration": 0.0881901458333374,
          "durationTicks": 46,
          "midi": 57,
          "name": "A3",
          "ticks": 30912,
          "time": 59.263777999999995,
          "velocity": 1
        },
        {
          "duration": 0.18021464583333824,
          "durationTicks": 94,
          "midi": 60,
          "name": "C4",
          "ticks": 31008,
          "time": 59.447827,
          "velocity": 1
        },
        {
          "duration": 0.4294476666666611,
          "durationTicks": 224,
          "midi": 60,
          "name": "C4",
          "ticks": 31200,
          "time": 59.815925,
          "velocity": 1
        },
        {
          "duration": 0.23006124999999855,
          "durationTicks": 120,
          "midi": 59,
          "name": "B3",
          "ticks": 31488,
          "time": 60.368072,
          "velocity": 1
        },
        {
          "duration": 0.40452436458333807,
          "durationTicks": 211,
          "midi": 64,
          "name": "E4",
          "ticks": 33024,
          "time": 63.312856,
          "velocity": 1
        },
        {
          "duration": 0.4332820208333388,
          "durationTicks": 226,
          "midi": 60,
          "name": "C4",
          "ticks": 33024,
          "time": 63.312856,
          "velocity": 1
        },
        {
          "duration": 0.12269933333333682,
          "durationTicks": 64,
          "midi": 64,
          "name": "E4",
          "ticks": 33312,
          "time": 63.865002999999994,
          "velocity": 0.9291338582677166
        },
        {
          "duration": 0.124616510416665,
          "durationTicks": 65,
          "midi": 60,
          "name": "C4",
          "ticks": 33312,
          "time": 63.865002999999994,
          "velocity": 0.9291338582677166
        },
        {
          "duration": 0.0805214374999963,
          "durationTicks": 42,
          "midi": 59,
          "name": "B3",
          "ticks": 33408,
          "time": 64.049052,
          "velocity": 1
        },
        {
          "duration": 0.08819014583332319,
          "durationTicks": 46,
          "midi": 62,
          "name": "D4",
          "ticks": 33408,
          "time": 64.049052,
          "velocity": 1
        },
        {
          "duration": 0.17446311458334662,
          "durationTicks": 91,
          "midi": 60,
          "name": "C4",
          "ticks": 33504,
          "time": 64.23310099999999,
          "velocity": 1
        },
        {
          "duration": 0.18788335416667223,
          "durationTicks": 98,
          "midi": 57,
          "name": "A3",
          "ticks": 33504,
          "time": 64.23310099999999,
          "velocity": 1
        },
        {
          "duration": 0.24539866666665944,
          "durationTicks": 128,
          "midi": 55,
          "name": "G3",
          "ticks": 33696,
          "time": 64.601199,
          "velocity": 1
        },
        {
          "duration": 0.20897230208333895,
          "durationTicks": 109,
          "midi": 59,
          "name": "B3",
          "ticks": 33696,
          "time": 64.601199,
          "velocity": 1
        },
        {
          "duration": 0.16487722916666314,
          "durationTicks": 86,
          "midi": 59,
          "name": "B3",
          "ticks": 33888,
          "time": 64.969297,
          "velocity": 1
        },
        {
          "duration": 0.1974692395833415,
          "durationTicks": 103,
          "midi": 55,
          "name": "G3",
          "ticks": 33888,
          "time": 64.969297,
          "velocity": 1
        },
        {
          "duration": 0.1533741666666657,
          "durationTicks": 80,
          "midi": 50,
          "name": "D3",
          "ticks": 34080,
          "time": 65.337395,
          "velocity": 1
        },
        {
          "duration": 0.11119627083333228,
          "durationTicks": 58,
          "midi": 52,
          "name": "E3",
          "ticks": 34176,
          "time": 65.521444,
          "velocity": 1
        },
        {
          "duration": 0.15529134375000808,
          "durationTicks": 81,
          "midi": 55,
          "name": "G3",
          "ticks": 34272,
          "time": 65.70549299999999,
          "velocity": 1
        },
        {
          "duration": 0.08243861458333868,
          "durationTicks": 43,
          "midi": 52,
          "name": "E3",
          "ticks": 34464,
          "time": 66.073591,
          "velocity": 1
        },
        {
          "duration": 0.1744631145833324,
          "durationTicks": 91,
          "midi": 55,
          "name": "G3",
          "ticks": 34560,
          "time": 66.25764,
          "velocity": 1
        },
        {
          "duration": 0.10161038541666301,
          "durationTicks": 53,
          "midi": 60,
          "name": "C4",
          "ticks": 34752,
          "time": 66.625738,
          "velocity": 1
        },
        {
          "duration": 0.08435579166666685,
          "durationTicks": 44,
          "midi": 64,
          "name": "E4",
          "ticks": 34752,
          "time": 66.625738,
          "velocity": 1
        },
        {
          "duration": 0.07668708333333996,
          "durationTicks": 40,
          "midi": 60,
          "name": "C4",
          "ticks": 34848,
          "time": 66.809787,
          "velocity": 1
        },
        {
          "duration": 0.07476990624999758,
          "durationTicks": 39,
          "midi": 64,
          "name": "E4",
          "ticks": 34848,
          "time": 66.809787,
          "velocity": 1
        },
        {
          "duration": 0.07860426041665391,
          "durationTicks": 41,
          "midi": 62,
          "name": "D4",
          "ticks": 34944,
          "time": 66.993836,
          "velocity": 1
        },
        {
          "duration": 0.07860426041665391,
          "durationTicks": 41,
          "midi": 59,
          "name": "B3",
          "ticks": 34944,
          "time": 66.993836,
          "velocity": 1
        },
        {
          "duration": 0.21664101041665162,
          "durationTicks": 113,
          "midi": 57,
          "name": "A3",
          "ticks": 35040,
          "time": 67.177885,
          "velocity": 1
        },
        {
          "duration": 0.21472383333332346,
          "durationTicks": 112,
          "midi": 60,
          "name": "C4",
          "ticks": 35040,
          "time": 67.177885,
          "velocity": 1
        },
        {
          "duration": 0.5233893437499972,
          "durationTicks": 273,
          "midi": 55,
          "name": "G3",
          "ticks": 35232,
          "time": 67.54598299999999,
          "velocity": 1
        },
        {
          "duration": 0.5157206354166703,
          "durationTicks": 269,
          "midi": 59,
          "name": "B3",
          "ticks": 35232,
          "time": 67.54598299999999,
          "velocity": 1
        },
        {
          "duration": 0.14953981249999515,
          "durationTicks": 78,
          "midi": 50,
          "name": "D3",
          "ticks": 35616,
          "time": 68.282179,
          "velocity": 1
        },
        {
          "duration": 0.12653368750000027,
          "durationTicks": 66,
          "midi": 52,
          "name": "E3",
          "ticks": 35712,
          "time": 68.466228,
          "velocity": 1
        },
        {
          "duration": 0.1974692395833273,
          "durationTicks": 103,
          "midi": 55,
          "name": "G3",
          "ticks": 35808,
          "time": 68.650277,
          "velocity": 1
        },
        {
          "duration": 0.0881901458333374,
          "durationTicks": 46,
          "midi": 52,
          "name": "E3",
          "ticks": 36000,
          "time": 69.01837499999999,
          "velocity": 1
        },
        {
          "duration": 0.18788335416667223,
          "durationTicks": 98,
          "midi": 55,
          "name": "G3",
          "ticks": 36096,
          "time": 69.202424,
          "velocity": 1
        },
        {
          "duration": 0.09202449999999374,
          "durationTicks": 48,
          "midi": 64,
          "name": "E4",
          "ticks": 36288,
          "time": 69.570522,
          "velocity": 1
        },
        {
          "duration": 0.10352756250000539,
          "durationTicks": 54,
          "midi": 60,
          "name": "C4",
          "ticks": 36288,
          "time": 69.570522,
          "velocity": 1
        },
        {
          "duration": 0.10161038541666301,
          "durationTicks": 53,
          "midi": 60,
          "name": "C4",
          "ticks": 36384,
          "time": 69.754571,
          "velocity": 1
        },
        {
          "duration": 0.09010732291666557,
          "durationTicks": 47,
          "midi": 64,
          "name": "E4",
          "ticks": 36384,
          "time": 69.754571,
          "velocity": 1
        },
        {
          "duration": 0.23964713541666072,
          "durationTicks": 125,
          "midi": 59,
          "name": "B3",
          "ticks": 36480,
          "time": 69.93862,
          "velocity": 1
        },
        {
          "duration": 0.21472383333333767,
          "durationTicks": 112,
          "midi": 62,
          "name": "D4",
          "ticks": 36480,
          "time": 69.93862,
          "velocity": 1
        },
        {
          "duration": 0.25306737500000054,
          "durationTicks": 132,
          "midi": 60,
          "name": "C4",
          "ticks": 36672,
          "time": 70.30671799999999,
          "velocity": 1
        },
        {
          "duration": 0.26648761458334036,
          "durationTicks": 139,
          "midi": 57,
          "name": "A3",
          "ticks": 36672,
          "time": 70.30671799999999,
          "velocity": 1
        },
        {
          "duration": 0.2492330208333442,
          "durationTicks": 130,
          "midi": 55,
          "name": "G3",
          "ticks": 36864,
          "time": 70.67481599999999,
          "velocity": 1
        },
        {
          "duration": 0.23964713541666072,
          "durationTicks": 125,
          "midi": 59,
          "name": "B3",
          "ticks": 36864,
          "time": 70.67481599999999,
          "velocity": 1
        },
        {
          "duration": 0.233895604166662,
          "durationTicks": 122,
          "midi": 59,
          "name": "B3",
          "ticks": 37056,
          "time": 71.042914,
          "velocity": 1
        },
        {
          "duration": 0.21664101041666584,
          "durationTicks": 113,
          "midi": 55,
          "name": "G3",
          "ticks": 37056,
          "time": 71.042914,
          "velocity": 1
        },
        {
          "duration": 0.15912569791666442,
          "durationTicks": 83,
          "midi": 52,
          "name": "E3",
          "ticks": 37248,
          "time": 71.411012,
          "velocity": 1
        },
        {
          "duration": 0.24539866666665944,
          "durationTicks": 128,
          "midi": 53,
          "name": "F3",
          "ticks": 37344,
          "time": 71.595061,
          "velocity": 1
        },
        {
          "duration": 0.27607350000000963,
          "durationTicks": 144,
          "midi": 54,
          "name": "F#3",
          "ticks": 37536,
          "time": 71.96315899999999,
          "velocity": 1
        },
        {
          "duration": 0.20897230208333895,
          "durationTicks": 109,
          "midi": 62,
          "name": "D4",
          "ticks": 37536,
          "time": 71.96315899999999,
          "velocity": 1
        },
        {
          "duration": 0.0728527291666694,
          "durationTicks": 38,
          "midi": 55,
          "name": "G3",
          "ticks": 38592,
          "time": 73.987698,
          "velocity": 1
        },
        {
          "duration": 0.06518402083334252,
          "durationTicks": 34,
          "midi": 55,
          "name": "G3",
          "ticks": 38688,
          "time": 74.171747,
          "velocity": 1
        },
        {
          "duration": 0.08627296874999502,
          "durationTicks": 45,
          "midi": 55,
          "name": "G3",
          "ticks": 38784,
          "time": 74.355796,
          "velocity": 1
        },
        {
          "duration": 0.17829746875000296,
          "durationTicks": 93,
          "midi": 59,
          "name": "B3",
          "ticks": 38880,
          "time": 74.539845,
          "velocity": 1
        },
        {
          "duration": 0.27223914583332487,
          "durationTicks": 142,
          "midi": 62,
          "name": "D4",
          "ticks": 39072,
          "time": 74.907943,
          "velocity": 1
        },
        {
          "duration": 0.09585885416666429,
          "durationTicks": 50,
          "midi": 62,
          "name": "D4",
          "ticks": 40128,
          "time": 76.932482,
          "velocity": 1
        },
        {
          "duration": 0.09969320833333484,
          "durationTicks": 52,
          "midi": 67,
          "name": "G4",
          "ticks": 40128,
          "time": 76.932482,
          "velocity": 0.9291338582677166
        },
        {
          "duration": 0.34700905208333666,
          "durationTicks": 181,
          "midi": 64,
          "name": "E4",
          "ticks": 40224,
          "time": 77.116531,
          "velocity": 1
        },
        {
          "duration": 0.3872697708333419,
          "durationTicks": 202,
          "midi": 67,
          "name": "G4",
          "ticks": 40224,
          "time": 77.116531,
          "velocity": 1
        },
        {
          "duration": 0.09585885416666429,
          "durationTicks": 50,
          "midi": 62,
          "name": "D4",
          "ticks": 40416,
          "time": 77.484629,
          "velocity": 1
        },
        {
          "duration": 0.09394167708333612,
          "durationTicks": 49,
          "midi": 67,
          "name": "G4",
          "ticks": 40512,
          "time": 77.668678,
          "velocity": 1
        },
        {
          "duration": 0.09777603124999246,
          "durationTicks": 51,
          "midi": 64,
          "name": "E4",
          "ticks": 40512,
          "time": 77.668678,
          "velocity": 1
        },
        {
          "duration": 0.2569017291666569,
          "durationTicks": 134,
          "midi": 67,
          "name": "G4",
          "ticks": 40608,
          "time": 77.852727,
          "velocity": 1
        },
        {
          "duration": 0.21472383333333767,
          "durationTicks": 112,
          "midi": 64,
          "name": "E4",
          "ticks": 40608,
          "time": 77.852727,
          "velocity": 1
        },
        {
          "duration": 0.19171770833334278,
          "durationTicks": 100,
          "midi": 67,
          "name": "G4",
          "ticks": 40800,
          "time": 78.22082499999999,
          "velocity": 1
        },
        {
          "duration": 0.19555206249999912,
          "durationTicks": 102,
          "midi": 62,
          "name": "D4",
          "ticks": 40800,
          "time": 78.22082499999999,
          "velocity": 1
        },
        {
          "duration": 0.07860426041666813,
          "durationTicks": 41,
          "midi": 55,
          "name": "G3",
          "ticks": 41760,
          "time": 80.061315,
          "velocity": 1
        },
        {
          "duration": 0.11503062500000283,
          "durationTicks": 60,
          "midi": 55,
          "name": "G3",
          "ticks": 41856,
          "time": 80.245364,
          "velocity": 1
        },
        {
          "duration": 0.15720852083333625,
          "durationTicks": 82,
          "midi": 59,
          "name": "B3",
          "ticks": 41952,
          "time": 80.429413,
          "velocity": 1
        },
        {
          "duration": 0.20322077083332601,
          "durationTicks": 106,
          "midi": 62,
          "name": "D4",
          "ticks": 42144,
          "time": 80.797511,
          "velocity": 1
        },
        {
          "duration": 0.08243861458333868,
          "durationTicks": 43,
          "midi": 67,
          "name": "G4",
          "ticks": 43200,
          "time": 82.82204999999999,
          "velocity": 1
        },
        {
          "duration": 0.07860426041666813,
          "durationTicks": 41,
          "midi": 62,
          "name": "D4",
          "ticks": 43200,
          "time": 82.82204999999999,
          "velocity": 1
        },
        {
          "duration": 0.33934034375000977,
          "durationTicks": 177,
          "midi": 64,
          "name": "E4",
          "ticks": 43296,
          "time": 83.00609899999999,
          "velocity": 1
        },
        {
          "duration": 0.366180822916661,
          "durationTicks": 191,
          "midi": 67,
          "name": "G4",
          "ticks": 43296,
          "time": 83.00609899999999,
          "velocity": 1
        },
        {
          "duration": 0.07860426041666813,
          "durationTicks": 41,
          "midi": 62,
          "name": "D4",
          "ticks": 43488,
          "time": 83.374197,
          "velocity": 0.9291338582677166
        },
        {
          "duration": 0.3009968020833327,
          "durationTicks": 157,
          "midi": 67,
          "name": "G4",
          "ticks": 43584,
          "time": 83.558246,
          "velocity": 1
        },
        {
          "duration": 0.26648761458334036,
          "durationTicks": 139,
          "midi": 64,
          "name": "E4",
          "ticks": 43584,
          "time": 83.558246,
          "velocity": 1
        },
        {
          "duration": 0.28757656249999286,
          "durationTicks": 150,
          "midi": 67,
          "name": "G4",
          "ticks": 43776,
          "time": 83.926344,
          "velocity": 1
        },
        {
          "duration": 0.320168572916657,
          "durationTicks": 167,
          "midi": 62,
          "name": "D4",
          "ticks": 43776,
          "time": 83.926344,
          "velocity": 1
        },
        {
          "duration": 0.15912569791666442,
          "durationTicks": 83,
          "midi": 55,
          "name": "G3",
          "ticks": 44928,
          "time": 86.13493199999999,
          "velocity": 1
        },
        {
          "duration": 0.5003832187500024,
          "durationTicks": 261,
          "midi": 59,
          "name": "B3",
          "ticks": 45024,
          "time": 86.318981,
          "velocity": 1
        },
        {
          "duration": 0.12269933333332972,
          "durationTicks": 64,
          "midi": 62,
          "name": "D4",
          "ticks": 45312,
          "time": 86.871128,
          "velocity": 1
        },
        {
          "duration": 1.0218553854166572,
          "durationTicks": 533,
          "midi": 62,
          "name": "D4",
          "ticks": 45504,
          "time": 87.239226,
          "velocity": 1
        },
        {
          "duration": 1.0525302187499932,
          "durationTicks": 549,
          "midi": 67,
          "name": "G4",
          "ticks": 45504,
          "time": 87.239226,
          "velocity": 1
        },
        {
          "duration": 0.5042175729166587,
          "durationTicks": 263,
          "midi": 60,
          "name": "C4",
          "ticks": 46080,
          "time": 88.34352,
          "velocity": 1
        },
        {
          "duration": 0.4467022604166573,
          "durationTicks": 233,
          "midi": 67,
          "name": "G4",
          "ticks": 46080,
          "time": 88.34352,
          "velocity": 0.7637795275590551
        },
        {
          "duration": 0.4524537916666702,
          "durationTicks": 236,
          "midi": 67,
          "name": "G4",
          "ticks": 46368,
          "time": 88.89566699999999,
          "velocity": 1
        },
        {
          "duration": 0.4543709687500126,
          "durationTicks": 237,
          "midi": 64,
          "name": "E4",
          "ticks": 46368,
          "time": 88.89566699999999,
          "velocity": 1
        },
        {
          "duration": 0.2722391458333391,
          "durationTicks": 142,
          "midi": 64,
          "name": "E4",
          "ticks": 46656,
          "time": 89.447814,
          "velocity": 1
        },
        {
          "duration": 0.25881890624999926,
          "durationTicks": 135,
          "midi": 67,
          "name": "G4",
          "ticks": 46656,
          "time": 89.447814,
          "velocity": 1
        },
        {
          "duration": 0.1399539270833401,
          "durationTicks": 73,
          "midi": 64,
          "name": "E4",
          "ticks": 46848,
          "time": 89.815912,
          "velocity": 1
        },
        {
          "duration": 0.6441714999999988,
          "durationTicks": 336,
          "midi": 67,
          "name": "G4",
          "ticks": 46848,
          "time": 89.815912,
          "velocity": 1
        },
        {
          "duration": 0.4601224999999971,
          "durationTicks": 240,
          "midi": 62,
          "name": "D4",
          "ticks": 46944,
          "time": 89.999961,
          "velocity": 1
        },
        {
          "duration": 0.23581278125000438,
          "durationTicks": 123,
          "midi": 67,
          "name": "G4",
          "ticks": 47232,
          "time": 90.55210799999999,
          "velocity": 1
        },
        {
          "duration": 0.26073608333334164,
          "durationTicks": 136,
          "midi": 62,
          "name": "D4",
          "ticks": 47232,
          "time": 90.55210799999999,
          "velocity": 1
        },
        {
          "duration": 0.07093555208334124,
          "durationTicks": 37,
          "midi": 62,
          "name": "D4",
          "ticks": 47424,
          "time": 90.920206,
          "velocity": 0.8346456692913385
        },
        {
          "duration": 0.218558187499994,
          "durationTicks": 114,
          "midi": 62,
          "name": "D4",
          "ticks": 47520,
          "time": 91.104255,
          "velocity": 1
        },
        {
          "duration": 0.2051379479166684,
          "durationTicks": 107,
          "midi": 67,
          "name": "G4",
          "ticks": 47520,
          "time": 91.104255,
          "velocity": 1
        },
        {
          "duration": 0.4543709687499984,
          "durationTicks": 237,
          "midi": 60,
          "name": "C4",
          "ticks": 47712,
          "time": 91.472353,
          "velocity": 1
        },
        {
          "duration": 0.4467022604166573,
          "durationTicks": 233,
          "midi": 65,
          "name": "F4",
          "ticks": 47712,
          "time": 91.472353,
          "velocity": 1
        },
        {
          "duration": 0.1974692395833415,
          "durationTicks": 103,
          "midi": 65,
          "name": "F4",
          "ticks": 48000,
          "time": 92.02449999999999,
          "velocity": 1
        },
        {
          "duration": 0.21664101041666584,
          "durationTicks": 113,
          "midi": 60,
          "name": "C4",
          "ticks": 48000,
          "time": 92.02449999999999,
          "velocity": 1
        },
        {
          "duration": 0.17829746875000296,
          "durationTicks": 93,
          "midi": 57,
          "name": "A3",
          "ticks": 48192,
          "time": 92.39259799999999,
          "velocity": 1
        },
        {
          "duration": 0.26073608333334164,
          "durationTicks": 136,
          "midi": 57,
          "name": "A3",
          "ticks": 48384,
          "time": 92.760696,
          "velocity": 1
        },
        {
          "duration": 0.1821318229166735,
          "durationTicks": 95,
          "midi": 43,
          "name": "G2",
          "ticks": 49920,
          "time": 95.70548,
          "velocity": 1
        },
        {
          "duration": 0.39685565624999697,
          "durationTicks": 207,
          "midi": 43,
          "name": "G2",
          "ticks": 50112,
          "time": 96.073578,
          "velocity": 1
        },
        {
          "duration": 0.19363488541668517,
          "durationTicks": 101,
          "midi": 41,
          "name": "F2",
          "ticks": 50400,
          "time": 96.62572499999999,
          "velocity": 1
        },
        {
          "duration": 0.20897230208332473,
          "durationTicks": 109,
          "midi": 38,
          "name": "D2",
          "ticks": 50592,
          "time": 96.99382299999999,
          "velocity": 1
        },
        {
          "duration": 0.22047536458332218,
          "durationTicks": 115,
          "midi": 38,
          "name": "D2",
          "ticks": 50784,
          "time": 97.361921,
          "velocity": 1
        },
        {
          "duration": 0.19363488541667095,
          "durationTicks": 101,
          "midi": 38,
          "name": "D2",
          "ticks": 50976,
          "time": 97.730019,
          "velocity": 1
        },
        {
          "duration": 0.10927909375000411,
          "durationTicks": 57,
          "midi": 38,
          "name": "D2",
          "ticks": 51168,
          "time": 98.09811699999999,
          "velocity": 1
        },
        {
          "duration": 0.10927909375000411,
          "durationTicks": 57,
          "midi": 41,
          "name": "F2",
          "ticks": 51264,
          "time": 98.28216599999999,
          "velocity": 1
        },
        {
          "duration": 0.07860426041668234,
          "durationTicks": 41,
          "midi": 42,
          "name": "F#2",
          "ticks": 51360,
          "time": 98.46621499999999,
          "velocity": 1
        },
        {
          "duration": 0.25115019791667237,
          "durationTicks": 131,
          "midi": 43,
          "name": "G2",
          "ticks": 51456,
          "time": 98.65026399999999,
          "velocity": 1
        },
        {
          "duration": 0.116947802083331,
          "durationTicks": 61,
          "midi": 43,
          "name": "G2",
          "ticks": 51648,
          "time": 99.018362,
          "velocity": 1
        },
        {
          "duration": 0.11311344791667466,
          "durationTicks": 59,
          "midi": 41,
          "name": "F2",
          "ticks": 51744,
          "time": 99.202411,
          "velocity": 1
        },
        {
          "duration": 0.08243861458332447,
          "durationTicks": 43,
          "midi": 38,
          "name": "D2",
          "ticks": 51840,
          "time": 99.38646,
          "velocity": 1
        },
        {
          "duration": 0.11311344791666045,
          "durationTicks": 59,
          "midi": 38,
          "name": "D2",
          "ticks": 51936,
          "time": 99.570509,
          "velocity": 1
        },
        {
          "duration": 0.09394167708333612,
          "durationTicks": 49,
          "midi": 41,
          "name": "F2",
          "ticks": 52032,
          "time": 99.75455799999999,
          "velocity": 1
        },
        {
          "duration": 0.0805214375000105,
          "durationTicks": 42,
          "midi": 42,
          "name": "F#2",
          "ticks": 52128,
          "time": 99.93860699999999,
          "velocity": 1
        },
        {
          "duration": 0.23964713541667493,
          "durationTicks": 125,
          "midi": 43,
          "name": "G2",
          "ticks": 52224,
          "time": 100.12265599999999,
          "velocity": 1
        },
        {
          "duration": 0.10927909375000411,
          "durationTicks": 57,
          "midi": 43,
          "name": "G2",
          "ticks": 52416,
          "time": 100.490754,
          "velocity": 1
        },
        {
          "duration": 0.12845086458332844,
          "durationTicks": 67,
          "midi": 41,
          "name": "F2",
          "ticks": 52512,
          "time": 100.674803,
          "velocity": 1
        },
        {
          "duration": 0.0805214374999963,
          "durationTicks": 42,
          "midi": 38,
          "name": "D2",
          "ticks": 52608,
          "time": 100.858852,
          "velocity": 1
        },
        {
          "duration": 0.1092790937499899,
          "durationTicks": 57,
          "midi": 38,
          "name": "D2",
          "ticks": 52704,
          "time": 101.042901,
          "velocity": 1
        },
        {
          "duration": 0.09394167708333612,
          "durationTicks": 49,
          "midi": 41,
          "name": "F2",
          "ticks": 52800,
          "time": 101.22694999999999,
          "velocity": 1
        },
        {
          "duration": 0.07860426041668234,
          "durationTicks": 41,
          "midi": 42,
          "name": "F#2",
          "ticks": 52896,
          "time": 101.41099899999999,
          "velocity": 1
        },
        {
          "duration": 0.26073608333332743,
          "durationTicks": 136,
          "midi": 43,
          "name": "G2",
          "ticks": 52992,
          "time": 101.59504799999999,
          "velocity": 1
        },
        {
          "duration": 0.4006900104166675,
          "durationTicks": 209,
          "midi": 43,
          "name": "G2",
          "ticks": 53184,
          "time": 101.963146,
          "velocity": 1
        },
        {
          "duration": 0.218558187499994,
          "durationTicks": 114,
          "midi": 41,
          "name": "F2",
          "ticks": 53472,
          "time": 102.515293,
          "velocity": 1
        },
        {
          "duration": 0.20705512500001078,
          "durationTicks": 108,
          "midi": 38,
          "name": "D2",
          "ticks": 53664,
          "time": 102.88339099999999,
          "velocity": 1
        },
        {
          "duration": 0.1744631145833324,
          "durationTicks": 91,
          "midi": 38,
          "name": "D2",
          "ticks": 53856,
          "time": 103.25148899999999,
          "velocity": 1
        },
        {
          "duration": 0.1898005312500004,
          "durationTicks": 99,
          "midi": 38,
          "name": "D2",
          "ticks": 54048,
          "time": 103.619587,
          "velocity": 1
        },
        {
          "duration": 0.10544473958331935,
          "durationTicks": 55,
          "midi": 38,
          "name": "D2",
          "ticks": 54240,
          "time": 103.987685,
          "velocity": 1
        },
        {
          "duration": 0.09202449999999374,
          "durationTicks": 48,
          "midi": 41,
          "name": "F2",
          "ticks": 54336,
          "time": 104.171734,
          "velocity": 1
        },
        {
          "duration": 0.0671011979166849,
          "durationTicks": 35,
          "midi": 42,
          "name": "F#2",
          "ticks": 54432,
          "time": 104.35578299999999,
          "velocity": 0.952755905511811
        },
        {
          "duration": 0.27223914583332487,
          "durationTicks": 142,
          "midi": 43,
          "name": "G2",
          "ticks": 54528,
          "time": 104.53983199999999,
          "velocity": 1
        },
        {
          "duration": 0.10736191666667594,
          "durationTicks": 56,
          "midi": 43,
          "name": "G2",
          "ticks": 54720,
          "time": 104.90793,
          "velocity": 1
        },
        {
          "duration": 0.11503062500000283,
          "durationTicks": 60,
          "midi": 41,
          "name": "F2",
          "ticks": 54816,
          "time": 105.091979,
          "velocity": 1
        },
        {
          "duration": 0.0805214374999963,
          "durationTicks": 42,
          "midi": 38,
          "name": "D2",
          "ticks": 54912,
          "time": 105.276028,
          "velocity": 1
        },
        {
          "duration": 0.09777603124999246,
          "durationTicks": 51,
          "midi": 38,
          "name": "D2",
          "ticks": 55008,
          "time": 105.460077,
          "velocity": 1
        },
        {
          "duration": 0.0805214374999963,
          "durationTicks": 42,
          "midi": 41,
          "name": "F2",
          "ticks": 55104,
          "time": 105.644126,
          "velocity": 1
        },
        {
          "duration": 0.0651840208333283,
          "durationTicks": 34,
          "midi": 42,
          "name": "F#2",
          "ticks": 55200,
          "time": 105.82817499999999,
          "velocity": 1
        },
        {
          "duration": 0.06901837499999885,
          "durationTicks": 36,
          "midi": 43,
          "name": "G2",
          "ticks": 55296,
          "time": 106.01222399999999,
          "velocity": 1
        },
        {
          "duration": 0.08627296875000923,
          "durationTicks": 45,
          "midi": 43,
          "name": "G2",
          "ticks": 55392,
          "time": 106.19627299999999,
          "velocity": 1
        },
        {
          "duration": 0.09010732291667978,
          "durationTicks": 47,
          "midi": 41,
          "name": "F2",
          "ticks": 55488,
          "time": 106.38032199999999,
          "velocity": 1
        },
        {
          "duration": 0.7036039895833284,
          "durationTicks": 367,
          "midi": 43,
          "name": "G2",
          "ticks": 55584,
          "time": 106.564371,
          "velocity": 1
        },
        {
          "duration": 0.4620396770833253,
          "durationTicks": 241,
          "midi": 60,
          "name": "C4",
          "ticks": 56064,
          "time": 107.48461599999999,
          "velocity": 1
        },
        {
          "duration": 0.44861943749999966,
          "durationTicks": 234,
          "midi": 64,
          "name": "E4",
          "ticks": 56064,
          "time": 107.48461599999999,
          "velocity": 1
        },
        {
          "duration": 0.07860426041666813,
          "durationTicks": 41,
          "midi": 64,
          "name": "E4",
          "ticks": 56352,
          "time": 108.036763,
          "velocity": 0.8346456692913385
        },
        {
          "duration": 0.06710119791667069,
          "durationTicks": 35,
          "midi": 60,
          "name": "C4",
          "ticks": 56352,
          "time": 108.036763,
          "velocity": 0.8346456692913385
        },
        {
          "duration": 0.07860426041666813,
          "durationTicks": 41,
          "midi": 59,
          "name": "B3",
          "ticks": 56448,
          "time": 108.220812,
          "velocity": 1
        },
        {
          "duration": 0.08819014583332319,
          "durationTicks": 46,
          "midi": 62,
          "name": "D4",
          "ticks": 56448,
          "time": 108.220812,
          "velocity": 1
        },
        {
          "duration": 0.2262268958333209,
          "durationTicks": 118,
          "midi": 57,
          "name": "A3",
          "ticks": 56544,
          "time": 108.404861,
          "velocity": 1
        },
        {
          "duration": 0.22430971874999273,
          "durationTicks": 117,
          "midi": 60,
          "name": "C4",
          "ticks": 56544,
          "time": 108.404861,
          "velocity": 1
        },
        {
          "duration": 0.25306737500000054,
          "durationTicks": 132,
          "midi": 55,
          "name": "G3",
          "ticks": 56736,
          "time": 108.772959,
          "velocity": 1
        },
        {
          "duration": 0.23006124999999145,
          "durationTicks": 120,
          "midi": 59,
          "name": "B3",
          "ticks": 56736,
          "time": 108.772959,
          "velocity": 1
        },
        {
          "duration": 0.20130359375001206,
          "durationTicks": 105,
          "midi": 59,
          "name": "B3",
          "ticks": 56928,
          "time": 109.14105699999999,
          "velocity": 1
        },
        {
          "duration": 0.20130359375001206,
          "durationTicks": 105,
          "midi": 55,
          "name": "G3",
          "ticks": 56928,
          "time": 109.14105699999999,
          "velocity": 1
        },
        {
          "duration": 0.132285218749999,
          "durationTicks": 69,
          "midi": 50,
          "name": "D3",
          "ticks": 57120,
          "time": 109.50915499999999,
          "velocity": 1
        },
        {
          "duration": 0.12269933333332972,
          "durationTicks": 64,
          "midi": 52,
          "name": "E3",
          "ticks": 57216,
          "time": 109.693204,
          "velocity": 1
        },
        {
          "duration": 0.16487722916667735,
          "durationTicks": 86,
          "midi": 55,
          "name": "G3",
          "ticks": 57312,
          "time": 109.877253,
          "velocity": 1
        },
        {
          "duration": 0.08243861458332447,
          "durationTicks": 43,
          "midi": 52,
          "name": "E3",
          "ticks": 57504,
          "time": 110.245351,
          "velocity": 1
        },
        {
          "duration": 0.15529134374999387,
          "durationTicks": 81,
          "midi": 55,
          "name": "G3",
          "ticks": 57600,
          "time": 110.4294,
          "velocity": 1
        },
        {
          "duration": 0.19171770833332857,
          "durationTicks": 100,
          "midi": 60,
          "name": "C4",
          "ticks": 57792,
          "time": 110.79749799999999,
          "velocity": 1
        },
        {
          "duration": 0.18021464583333113,
          "durationTicks": 94,
          "midi": 64,
          "name": "E4",
          "ticks": 57792,
          "time": 110.79749799999999,
          "velocity": 1
        },
        {
          "duration": 0.09010732291667978,
          "durationTicks": 47,
          "midi": 59,
          "name": "B3",
          "ticks": 57984,
          "time": 111.165596,
          "velocity": 1
        },
        {
          "duration": 0.09010732291667978,
          "durationTicks": 47,
          "midi": 62,
          "name": "D4",
          "ticks": 57984,
          "time": 111.165596,
          "velocity": 0.9291338582677166
        },
        {
          "duration": 0.17829746875000296,
          "durationTicks": 93,
          "midi": 57,
          "name": "A3",
          "ticks": 58080,
          "time": 111.349645,
          "velocity": 1
        },
        {
          "duration": 0.16871158333331948,
          "durationTicks": 88,
          "midi": 60,
          "name": "C4",
          "ticks": 58080,
          "time": 111.349645,
          "velocity": 1
        },
        {
          "duration": 0.24923302083331578,
          "durationTicks": 130,
          "midi": 55,
          "name": "G3",
          "ticks": 58272,
          "time": 111.717743,
          "velocity": 1
        },
        {
          "duration": 0.23581278124999017,
          "durationTicks": 123,
          "midi": 59,
          "name": "B3",
          "ticks": 58272,
          "time": 111.717743,
          "velocity": 1
        },
        {
          "duration": 0.13036804166667082,
          "durationTicks": 68,
          "midi": 50,
          "name": "D3",
          "ticks": 58656,
          "time": 112.45393899999999,
          "velocity": 1
        },
        {
          "duration": 0.0958588541666785,
          "durationTicks": 50,
          "midi": 52,
          "name": "E3",
          "ticks": 58752,
          "time": 112.63798799999999,
          "velocity": 1
        },
        {
          "duration": 0.17062876041667607,
          "durationTicks": 89,
          "midi": 55,
          "name": "G3",
          "ticks": 58848,
          "time": 112.822037,
          "velocity": 1
        },
        {
          "duration": 0.07860426041666813,
          "durationTicks": 41,
          "midi": 52,
          "name": "E3",
          "ticks": 59040,
          "time": 113.190135,
          "velocity": 1
        },
        {
          "duration": 0.11886497916667338,
          "durationTicks": 62,
          "midi": 55,
          "name": "G3",
          "ticks": 59136,
          "time": 113.374184,
          "velocity": 1
        },
        {
          "duration": 0.08243861458333868,
          "durationTicks": 43,
          "midi": 60,
          "name": "C4",
          "ticks": 59328,
          "time": 113.74228199999999,
          "velocity": 1
        },
        {
          "duration": 0.08243861458333868,
          "durationTicks": 43,
          "midi": 64,
          "name": "E4",
          "ticks": 59328,
          "time": 113.74228199999999,
          "velocity": 1
        },
        {
          "duration": 0.06710119791667069,
          "durationTicks": 35,
          "midi": 60,
          "name": "C4",
          "ticks": 59424,
          "time": 113.92633099999999,
          "velocity": 1
        },
        {
          "duration": 0.0805214375000105,
          "durationTicks": 42,
          "midi": 64,
          "name": "E4",
          "ticks": 59424,
          "time": 113.92633099999999,
          "velocity": 1
        },
        {
          "duration": 0.21855818750000822,
          "durationTicks": 114,
          "midi": 59,
          "name": "B3",
          "ticks": 59520,
          "time": 114.11037999999999,
          "velocity": 1
        },
        {
          "duration": 0.20705512499999656,
          "durationTicks": 108,
          "midi": 62,
          "name": "D4",
          "ticks": 59520,
          "time": 114.11037999999999,
          "velocity": 1
        },
        {
          "duration": 0.23581278125000438,
          "durationTicks": 123,
          "midi": 57,
          "name": "A3",
          "ticks": 59712,
          "time": 114.478478,
          "velocity": 1
        },
        {
          "duration": 0.21088947916666712,
          "durationTicks": 110,
          "midi": 60,
          "name": "C4",
          "ticks": 59712,
          "time": 114.478478,
          "velocity": 1
        },
        {
          "duration": 0.20130359374999784,
          "durationTicks": 105,
          "midi": 59,
          "name": "B3",
          "ticks": 59904,
          "time": 114.846576,
          "velocity": 1
        },
        {
          "duration": 0.21088947916666712,
          "durationTicks": 110,
          "midi": 55,
          "name": "G3",
          "ticks": 59904,
          "time": 114.846576,
          "velocity": 1
        },
        {
          "duration": 0.2204753645833364,
          "durationTicks": 115,
          "midi": 55,
          "name": "G3",
          "ticks": 60096,
          "time": 115.21467399999999,
          "velocity": 1
        },
        {
          "duration": 0.23197842708333383,
          "durationTicks": 121,
          "midi": 59,
          "name": "B3",
          "ticks": 60096,
          "time": 115.21467399999999,
          "velocity": 1
        },
        {
          "duration": 0.18404900000000168,
          "durationTicks": 96,
          "midi": 52,
          "name": "E3",
          "ticks": 60288,
          "time": 115.58277199999999,
          "velocity": 1
        },
        {
          "duration": 0.19555206249999912,
          "durationTicks": 102,
          "midi": 53,
          "name": "F3",
          "ticks": 60384,
          "time": 115.766821,
          "velocity": 1
        },
        {
          "duration": 0.18596617708332985,
          "durationTicks": 97,
          "midi": 62,
          "name": "D4",
          "ticks": 60576,
          "time": 116.134919,
          "velocity": 1
        },
        {
          "duration": 0.24731584375000182,
          "durationTicks": 129,
          "midi": 54,
          "name": "F#3",
          "ticks": 60576,
          "time": 116.134919,
          "velocity": 1
        },
        {
          "duration": 0.13036804166667082,
          "durationTicks": 68,
          "midi": 55,
          "name": "G3",
          "ticks": 61632,
          "time": 118.159458,
          "velocity": 1
        },
        {
          "duration": 0.11503062500000283,
          "durationTicks": 60,
          "midi": 55,
          "name": "G3",
          "ticks": 61824,
          "time": 118.52755599999999,
          "velocity": 1
        },
        {
          "duration": 0.1533741666666799,
          "durationTicks": 80,
          "midi": 59,
          "name": "B3",
          "ticks": 61920,
          "time": 118.71160499999999,
          "velocity": 1
        },
        {
          "duration": 0.17254593750000424,
          "durationTicks": 90,
          "midi": 62,
          "name": "D4",
          "ticks": 62112,
          "time": 119.079703,
          "velocity": 1
        },
        {
          "duration": 0.11311344791667466,
          "durationTicks": 59,
          "midi": 67,
          "name": "G4",
          "ticks": 63168,
          "time": 121.104242,
          "velocity": 1
        },
        {
          "duration": 0.09777603124999246,
          "durationTicks": 51,
          "midi": 62,
          "name": "D4",
          "ticks": 63168,
          "time": 121.104242,
          "velocity": 1
        },
        {
          "duration": 0.3355059895833392,
          "durationTicks": 175,
          "midi": 67,
          "name": "G4",
          "ticks": 63264,
          "time": 121.28829099999999,
          "velocity": 1
        },
        {
          "duration": 0.33358881250001104,
          "durationTicks": 174,
          "midi": 64,
          "name": "E4",
          "ticks": 63264,
          "time": 121.28829099999999,
          "velocity": 1
        },
        {
          "duration": 0.08435579166668106,
          "durationTicks": 44,
          "midi": 62,
          "name": "D4",
          "ticks": 63456,
          "time": 121.65638899999999,
          "velocity": 1
        },
        {
          "duration": 0.18404900000000168,
          "durationTicks": 96,
          "midi": 64,
          "name": "E4",
          "ticks": 63552,
          "time": 121.84043799999999,
          "velocity": 1
        },
        {
          "duration": 0.18404900000000168,
          "durationTicks": 96,
          "midi": 67,
          "name": "G4",
          "ticks": 63552,
          "time": 121.84043799999999,
          "velocity": 1
        },
        {
          "duration": 0.059432489583329584,
          "durationTicks": 31,
          "midi": 67,
          "name": "G4",
          "ticks": 63648,
          "time": 122.024487,
          "velocity": 1
        },
        {
          "duration": 0.02108894791666671,
          "durationTicks": 11,
          "midi": 64,
          "name": "E4",
          "ticks": 63648,
          "time": 122.024487,
          "velocity": 1
        },
        {
          "duration": 0.19363488541667095,
          "durationTicks": 101,
          "midi": 62,
          "name": "D4",
          "ticks": 63840,
          "time": 122.392585,
          "velocity": 1
        },
        {
          "duration": 0.14953981249999515,
          "durationTicks": 78,
          "midi": 55,
          "name": "G3",
          "ticks": 64800,
          "time": 124.233075,
          "velocity": 1
        },
        {
          "duration": 0.18021464583333113,
          "durationTicks": 94,
          "midi": 59,
          "name": "B3",
          "ticks": 64992,
          "time": 124.60117299999999,
          "velocity": 1
        },
        {
          "duration": 0.21664101041668005,
          "durationTicks": 113,
          "midi": 62,
          "name": "D4",
          "ticks": 65184,
          "time": 124.96927099999999,
          "velocity": 1
        },
        {
          "duration": 0.0651840208333283,
          "durationTicks": 34,
          "midi": 62,
          "name": "D4",
          "ticks": 66240,
          "time": 126.99381,
          "velocity": 1
        },
        {
          "duration": 0.07093555208332702,
          "durationTicks": 37,
          "midi": 67,
          "name": "G4",
          "ticks": 66240,
          "time": 126.99381,
          "velocity": 0.9291338582677166
        },
        {
          "duration": 0.39685565624999697,
          "durationTicks": 207,
          "midi": 67,
          "name": "G4",
          "ticks": 66336,
          "time": 127.177859,
          "velocity": 1
        },
        {
          "duration": 0.35467776041666355,
          "durationTicks": 185,
          "midi": 64,
          "name": "E4",
          "ticks": 66336,
          "time": 127.177859,
          "velocity": 1
        },
        {
          "duration": 0.08627296875000923,
          "durationTicks": 45,
          "midi": 62,
          "name": "D4",
          "ticks": 66528,
          "time": 127.54595699999999,
          "velocity": 1
        },
        {
          "duration": 0.26073608333332743,
          "durationTicks": 136,
          "midi": 64,
          "name": "E4",
          "ticks": 66624,
          "time": 127.73000599999999,
          "velocity": 1
        },
        {
          "duration": 0.03450918750000653,
          "durationTicks": 18,
          "midi": 62,
          "name": "D4",
          "ticks": 66624,
          "time": 127.73000599999999,
          "velocity": 1
        },
        {
          "duration": 0.264570437499998,
          "durationTicks": 138,
          "midi": 67,
          "name": "G4",
          "ticks": 66624,
          "time": 127.73000599999999,
          "velocity": 1
        },
        {
          "duration": 0.30866551041665957,
          "durationTicks": 161,
          "midi": 62,
          "name": "D4",
          "ticks": 66816,
          "time": 128.098104,
          "velocity": 1
        },
        {
          "duration": 0.29332809374997737,
          "durationTicks": 153,
          "midi": 67,
          "name": "G4",
          "ticks": 66816,
          "time": 128.098104,
          "velocity": 1
        },
        {
          "duration": 0.1533741666666799,
          "durationTicks": 80,
          "midi": 55,
          "name": "G3",
          "ticks": 67968,
          "time": 130.306692,
          "velocity": 1
        },
        {
          "duration": 0.4658740312499958,
          "durationTicks": 243,
          "midi": 59,
          "name": "B3",
          "ticks": 68064,
          "time": 130.49074099999999,
          "velocity": 1
        },
        {
          "duration": 0.12078215624998734,
          "durationTicks": 63,
          "midi": 62,
          "name": "D4",
          "ticks": 68352,
          "time": 131.042888,
          "velocity": 1
        },
        {
          "duration": 0.9969320833333484,
          "durationTicks": 520,
          "midi": 67,
          "name": "G4",
          "ticks": 68544,
          "time": 131.41098599999998,
          "velocity": 1
        },
        {
          "duration": 0.9950149062500202,
          "durationTicks": 519,
          "midi": 62,
          "name": "D4",
          "ticks": 68544,
          "time": 131.41098599999998,
          "velocity": 1
        },
        {
          "duration": 0.5253065208333396,
          "durationTicks": 274,
          "midi": 60,
          "name": "C4",
          "ticks": 69120,
          "time": 132.51528,
          "velocity": 1
        },
        {
          "duration": 0.979677489583338,
          "durationTicks": 511,
          "midi": 67,
          "name": "G4",
          "ticks": 69120,
          "time": 132.51528,
          "velocity": 1
        },
        {
          "duration": 0.42753048958334716,
          "durationTicks": 223,
          "midi": 64,
          "name": "E4",
          "ticks": 69408,
          "time": 133.06742699999998,
          "velocity": 1
        },
        {
          "duration": 0.2185581874999798,
          "durationTicks": 114,
          "midi": 64,
          "name": "E4",
          "ticks": 69696,
          "time": 133.619574,
          "velocity": 1
        },
        {
          "duration": 0.20322077083332601,
          "durationTicks": 106,
          "midi": 67,
          "name": "G4",
          "ticks": 69696,
          "time": 133.619574,
          "velocity": 1
        },
        {
          "duration": 0.615413843749991,
          "durationTicks": 321,
          "midi": 67,
          "name": "G4",
          "ticks": 69888,
          "time": 133.987672,
          "velocity": 1
        },
        {
          "duration": 0.13420239583331295,
          "durationTicks": 70,
          "midi": 64,
          "name": "E4",
          "ticks": 69888,
          "time": 133.987672,
          "velocity": 1
        },
        {
          "duration": 0.4447850833333291,
          "durationTicks": 232,
          "midi": 62,
          "name": "D4",
          "ticks": 69984,
          "time": 134.171721,
          "velocity": 1
        },
        {
          "duration": 0.15529134375000808,
          "durationTicks": 81,
          "midi": 62,
          "name": "D4",
          "ticks": 70272,
          "time": 134.72386799999998,
          "velocity": 1
        },
        {
          "duration": 0.4026071875000241,
          "durationTicks": 210,
          "midi": 67,
          "name": "G4",
          "ticks": 70272,
          "time": 134.72386799999998,
          "velocity": 0.9291338582677166
        },
        {
          "duration": 0.16296005208332076,
          "durationTicks": 85,
          "midi": 64,
          "name": "E4",
          "ticks": 70368,
          "time": 134.907917,
          "velocity": 1
        },
        {
          "duration": 0.06901837500001307,
          "durationTicks": 36,
          "midi": 62,
          "name": "D4",
          "ticks": 70464,
          "time": 135.09196599999999,
          "velocity": 0.8346456692913385
        },
        {
          "duration": 0.233895604166662,
          "durationTicks": 122,
          "midi": 67,
          "name": "G4",
          "ticks": 70560,
          "time": 135.276015,
          "velocity": 1
        },
        {
          "duration": 0.233895604166662,
          "durationTicks": 122,
          "midi": 62,
          "name": "D4",
          "ticks": 70560,
          "time": 135.276015,
          "velocity": 1
        },
        {
          "duration": 0.43328202083330325,
          "durationTicks": 226,
          "midi": 65,
          "name": "F4",
          "ticks": 70752,
          "time": 135.644113,
          "velocity": 1
        },
        {
          "duration": 0.4524537916666702,
          "durationTicks": 236,
          "midi": 60,
          "name": "C4",
          "ticks": 70752,
          "time": 135.644113,
          "velocity": 1
        },
        {
          "duration": 0.23772995833331834,
          "durationTicks": 124,
          "midi": 65,
          "name": "F4",
          "ticks": 71040,
          "time": 136.19626,
          "velocity": 1
        },
        {
          "duration": 0.23964713541667493,
          "durationTicks": 125,
          "midi": 60,
          "name": "C4",
          "ticks": 71040,
          "time": 136.19626,
          "velocity": 1
        },
        {
          "duration": 0.21472383333332346,
          "durationTicks": 112,
          "midi": 57,
          "name": "A3",
          "ticks": 71232,
          "time": 136.564358,
          "velocity": 1
        },
        {
          "duration": 0.14953981249999515,
          "durationTicks": 78,
          "midi": 57,
          "name": "A3",
          "ticks": 71424,
          "time": 136.932456,
          "velocity": 1
        },
        {
          "duration": 0.05368095833330244,
          "durationTicks": 28,
          "midi": 62,
          "name": "D4",
          "ticks": 72288,
          "time": 138.588897,
          "velocity": 1
        },
        {
          "duration": 0.18596617708331564,
          "durationTicks": 97,
          "midi": 64,
          "name": "E4",
          "ticks": 72384,
          "time": 138.772946,
          "velocity": 1
        },
        {
          "duration": 0.21472383333332346,
          "durationTicks": 112,
          "midi": 67,
          "name": "G4",
          "ticks": 72576,
          "time": 139.141044,
          "velocity": 1
        },
        {
          "duration": 0.10544473958333356,
          "durationTicks": 55,
          "midi": 67,
          "name": "G4",
          "ticks": 72768,
          "time": 139.509142,
          "velocity": 1
        },
        {
          "duration": 0.3278372812499981,
          "durationTicks": 171,
          "midi": 70,
          "name": "A#4",
          "ticks": 72864,
          "time": 139.69319099999998,
          "velocity": 1
        },
        {
          "duration": 0.12845086458332844,
          "durationTicks": 67,
          "midi": 67,
          "name": "G4",
          "ticks": 73056,
          "time": 140.061289,
          "velocity": 1
        },
        {
          "duration": 0.10736191666669015,
          "durationTicks": 56,
          "midi": 67,
          "name": "G4",
          "ticks": 73920,
          "time": 141.71773,
          "velocity": 1
        },
        {
          "duration": 0.19746923958331308,
          "durationTicks": 103,
          "midi": 72,
          "name": "C5",
          "ticks": 74016,
          "time": 141.901779,
          "velocity": 1
        },
        {
          "duration": 0.12461651041670052,
          "durationTicks": 65,
          "midi": 72,
          "name": "C5",
          "ticks": 74208,
          "time": 142.26987699999998,
          "velocity": 1
        },
        {
          "duration": 0.12078215624998734,
          "durationTicks": 63,
          "midi": 70,
          "name": "A#4",
          "ticks": 74304,
          "time": 142.453926,
          "velocity": 1
        },
        {
          "duration": 0.12269933333334393,
          "durationTicks": 64,
          "midi": 71,
          "name": "B4",
          "ticks": 74400,
          "time": 142.63797499999998,
          "velocity": 0.9291338582677166
        },
        {
          "duration": 0.1955520624999849,
          "durationTicks": 102,
          "midi": 67,
          "name": "G4",
          "ticks": 74496,
          "time": 142.822024,
          "velocity": 1
        },
        {
          "duration": 0.1457054583333388,
          "durationTicks": 76,
          "midi": 65,
          "name": "F4",
          "ticks": 74592,
          "time": 143.006073,
          "velocity": 1
        },
        {
          "duration": 0.08243861458331025,
          "durationTicks": 43,
          "midi": 64,
          "name": "E4",
          "ticks": 75552,
          "time": 144.846563,
          "velocity": 1
        },
        {
          "duration": 0.11119627083331807,
          "durationTicks": 58,
          "midi": 67,
          "name": "G4",
          "ticks": 75648,
          "time": 145.030612,
          "velocity": 1
        },
        {
          "duration": 0.14953981250002357,
          "durationTicks": 78,
          "midi": 67,
          "name": "G4",
          "ticks": 75744,
          "time": 145.21466099999998,
          "velocity": 1
        },
        {
          "duration": 0.32016857291668543,
          "durationTicks": 167,
          "midi": 70,
          "name": "A#4",
          "ticks": 75936,
          "time": 145.58275899999998,
          "velocity": 1
        },
        {
          "duration": 0.12845086458332844,
          "durationTicks": 67,
          "midi": 67,
          "name": "G4",
          "ticks": 76128,
          "time": 145.95085699999998,
          "velocity": 1
        },
        {
          "duration": 0.10544473958330514,
          "durationTicks": 55,
          "midi": 65,
          "name": "F4",
          "ticks": 76224,
          "time": 146.134906,
          "velocity": 1
        },
        {
          "duration": 0.13611957291666954,
          "durationTicks": 71,
          "midi": 67,
          "name": "G4",
          "ticks": 76320,
          "time": 146.318955,
          "velocity": 1
        },
        {
          "duration": 0.053680958333330864,
          "durationTicks": 28,
          "midi": 67,
          "name": "G4",
          "ticks": 76992,
          "time": 147.607298,
          "velocity": 0.9291338582677166
        },
        {
          "duration": 0.3297544583333263,
          "durationTicks": 172,
          "midi": 72,
          "name": "C5",
          "ticks": 77088,
          "time": 147.791347,
          "velocity": 1
        },
        {
          "duration": 0.306748333333303,
          "durationTicks": 160,
          "midi": 76,
          "name": "E5",
          "ticks": 77088,
          "time": 147.791347,
          "velocity": 1
        },
        {
          "duration": 0.06326684375000013,
          "durationTicks": 33,
          "midi": 67,
          "name": "G4",
          "ticks": 77280,
          "time": 148.159445,
          "velocity": 0.9291338582677166
        },
        {
          "duration": 0.25881890625001347,
          "durationTicks": 135,
          "midi": 70,
          "name": "A#4",
          "ticks": 77376,
          "time": 148.343494,
          "velocity": 1
        },
        {
          "duration": 0.264570437499998,
          "durationTicks": 138,
          "midi": 76,
          "name": "E5",
          "ticks": 77376,
          "time": 148.343494,
          "velocity": 1
        },
        {
          "duration": 0.2262268958333209,
          "durationTicks": 118,
          "midi": 67,
          "name": "G4",
          "ticks": 77568,
          "time": 148.711592,
          "velocity": 1
        },
        {
          "duration": 0.08819014583332319,
          "durationTicks": 46,
          "midi": 67,
          "name": "G4",
          "ticks": 78528,
          "time": 150.55208199999998,
          "velocity": 1
        },
        {
          "duration": 0.23772995833331834,
          "durationTicks": 124,
          "midi": 72,
          "name": "C5",
          "ticks": 78624,
          "time": 150.736131,
          "velocity": 1
        },
        {
          "duration": 0.1092790937499899,
          "durationTicks": 57,
          "midi": 72,
          "name": "C5",
          "ticks": 78816,
          "time": 151.104229,
          "velocity": 0.9291338582677166
        },
        {
          "duration": 0.13611957291666954,
          "durationTicks": 71,
          "midi": 70,
          "name": "A#4",
          "ticks": 78912,
          "time": 151.288278,
          "velocity": 1
        },
        {
          "duration": 0.08627296875002344,
          "durationTicks": 45,
          "midi": 67,
          "name": "G4",
          "ticks": 79008,
          "time": 151.47232699999998,
          "velocity": 0.9291338582677166
        },
        {
          "duration": 0.23772995833331834,
          "durationTicks": 124,
          "midi": 70,
          "name": "A#4",
          "ticks": 79104,
          "time": 151.656376,
          "velocity": 1
        },
        {
          "duration": 0.2626532604166698,
          "durationTicks": 137,
          "midi": 70,
          "name": "A#4",
          "ticks": 79296,
          "time": 152.024474,
          "velocity": 1
        },
        {
          "duration": 0.264570437499998,
          "durationTicks": 138,
          "midi": 70,
          "name": "A#4",
          "ticks": 79488,
          "time": 152.392572,
          "velocity": 1
        },
        {
          "duration": 0.24539866666665944,
          "durationTicks": 128,
          "midi": 70,
          "name": "A#4",
          "ticks": 79680,
          "time": 152.76067,
          "velocity": 1
        },
        {
          "duration": 0.23772995833334676,
          "durationTicks": 124,
          "midi": 70,
          "name": "A#4",
          "ticks": 79872,
          "time": 153.12876799999998,
          "velocity": 1
        },
        {
          "duration": 0.1476226354166954,
          "durationTicks": 77,
          "midi": 70,
          "name": "A#4",
          "ticks": 80064,
          "time": 153.49686599999998,
          "velocity": 1
        },
        {
          "duration": 0.03450918749999232,
          "durationTicks": 18,
          "midi": 67,
          "name": "G4",
          "ticks": 80160,
          "time": 153.680915,
          "velocity": 0.7637795275590551
        },
        {
          "duration": 0.16487722916667735,
          "durationTicks": 86,
          "midi": 70,
          "name": "A#4",
          "ticks": 80256,
          "time": 153.864964,
          "velocity": 1
        },
        {
          "duration": 0.1092790937499899,
          "durationTicks": 57,
          "midi": 67,
          "name": "G4",
          "ticks": 80352,
          "time": 154.049013,
          "velocity": 0.9291338582677166
        },
        {
          "duration": 0.10161038541667722,
          "durationTicks": 53,
          "midi": 65,
          "name": "F4",
          "ticks": 80448,
          "time": 154.233062,
          "velocity": 1
        },
        {
          "duration": 0.29524527083330554,
          "durationTicks": 154,
          "midi": 67,
          "name": "G4",
          "ticks": 80544,
          "time": 154.417111,
          "velocity": 1
        },
        {
          "duration": 0.1763802916666748,
          "durationTicks": 92,
          "midi": 67,
          "name": "G4",
          "ticks": 80736,
          "time": 154.78520899999998,
          "velocity": 1
        },
        {
          "duration": 0.1687115833333337,
          "durationTicks": 88,
          "midi": 65,
          "name": "F4",
          "ticks": 80832,
          "time": 154.969258,
          "velocity": 1
        },
        {
          "duration": 0.1246165104166721,
          "durationTicks": 65,
          "midi": 67,
          "name": "G4",
          "ticks": 81600,
          "time": 156.44164999999998,
          "velocity": 0.7637795275590551
        },
        {
          "duration": 0.2281440729166775,
          "durationTicks": 119,
          "midi": 76,
          "name": "E5",
          "ticks": 81696,
          "time": 156.625699,
          "velocity": 1
        },
        {
          "duration": 0.23964713541667493,
          "durationTicks": 125,
          "midi": 72,
          "name": "C5",
          "ticks": 81696,
          "time": 156.625699,
          "velocity": 1
        },
        {
          "duration": 0.28182503124997993,
          "durationTicks": 147,
          "midi": 70,
          "name": "A#4",
          "ticks": 81888,
          "time": 156.993797,
          "velocity": 1
        },
        {
          "duration": 0.28949373958332103,
          "durationTicks": 151,
          "midi": 76,
          "name": "E5",
          "ticks": 81888,
          "time": 156.993797,
          "velocity": 1
        },
        {
          "duration": 0.27415632291666725,
          "durationTicks": 143,
          "midi": 67,
          "name": "G4",
          "ticks": 82080,
          "time": 157.361895,
          "velocity": 1
        },
        {
          "duration": 0.07860426041668234,
          "durationTicks": 41,
          "midi": 65,
          "name": "F4",
          "ticks": 82272,
          "time": 157.72999299999998,
          "velocity": 0.9291338582677166
        },
        {
          "duration": 0.2051379479166826,
          "durationTicks": 107,
          "midi": 67,
          "name": "G4",
          "ticks": 82368,
          "time": 157.914042,
          "velocity": 1
        },
        {
          "duration": 0.06901837499998464,
          "durationTicks": 36,
          "midi": 64,
          "name": "E4",
          "ticks": 82560,
          "time": 158.28214,
          "velocity": 0.9291338582677166
        },
        {
          "duration": 0.09010732291667978,
          "durationTicks": 47,
          "midi": 64,
          "name": "E4",
          "ticks": 82656,
          "time": 158.46618899999999,
          "velocity": 1
        },
        {
          "duration": 0.07860426041665391,
          "durationTicks": 41,
          "midi": 64,
          "name": "E4",
          "ticks": 82752,
          "time": 158.650238,
          "velocity": 1
        },
        {
          "duration": 0.29716244791666213,
          "durationTicks": 155,
          "midi": 64,
          "name": "E4",
          "ticks": 82848,
          "time": 158.834287,
          "velocity": 1
        },
        {
          "duration": 0.116947802083331,
          "durationTicks": 61,
          "midi": 62,
          "name": "D4",
          "ticks": 83040,
          "time": 159.202385,
          "velocity": 0.9291338582677166
        },
        {
          "duration": 0.0805214375000105,
          "durationTicks": 42,
          "midi": 67,
          "name": "G4",
          "ticks": 83136,
          "time": 159.38643399999998,
          "velocity": 1
        },
        {
          "duration": 0.21855818750000822,
          "durationTicks": 114,
          "midi": 72,
          "name": "C5",
          "ticks": 83232,
          "time": 159.570483,
          "velocity": 1
        },
        {
          "duration": 0.10544473958330514,
          "durationTicks": 55,
          "midi": 72,
          "name": "C5",
          "ticks": 83424,
          "time": 159.938581,
          "velocity": 1
        },
        {
          "duration": 0.1744631145833182,
          "durationTicks": 91,
          "midi": 70,
          "name": "A#4",
          "ticks": 83520,
          "time": 160.12263,
          "velocity": 1
        },
        {
          "duration": 0.10352756249997697,
          "durationTicks": 54,
          "midi": 71,
          "name": "B4",
          "ticks": 83616,
          "time": 160.306679,
          "velocity": 1
        },
        {
          "duration": 0.1322852187500132,
          "durationTicks": 69,
          "midi": 67,
          "name": "G4",
          "ticks": 83712,
          "time": 160.490728,
          "velocity": 1
        },
        {
          "duration": 0.10161038541667722,
          "durationTicks": 53,
          "midi": 65,
          "name": "F4",
          "ticks": 83808,
          "time": 160.67477699999998,
          "velocity": 1
        },
        {
          "duration": 0.2204753645833364,
          "durationTicks": 115,
          "midi": 67,
          "name": "G4",
          "ticks": 83904,
          "time": 160.858826,
          "velocity": 1
        },
        {
          "duration": 0.0939416770833077,
          "durationTicks": 49,
          "midi": 64,
          "name": "E4",
          "ticks": 84096,
          "time": 161.226924,
          "velocity": 1
        },
        {
          "duration": 0.09394167708333612,
          "durationTicks": 49,
          "midi": 64,
          "name": "E4",
          "ticks": 84192,
          "time": 161.41097299999998,
          "velocity": 0.9291338582677166
        },
        {
          "duration": 0.08819014583332319,
          "durationTicks": 46,
          "midi": 64,
          "name": "E4",
          "ticks": 84288,
          "time": 161.595022,
          "velocity": 1
        },
        {
          "duration": 0.20897230208333895,
          "durationTicks": 109,
          "midi": 64,
          "name": "E4",
          "ticks": 84384,
          "time": 161.779071,
          "velocity": 1
        },
        {
          "duration": 0.17829746875000296,
          "durationTicks": 93,
          "midi": 62,
          "name": "D4",
          "ticks": 84576,
          "time": 162.147169,
          "velocity": 1
        },
        {
          "duration": 0.13036804166668503,
          "durationTicks": 68,
          "midi": 62,
          "name": "D4",
          "ticks": 84864,
          "time": 162.69931599999998,
          "velocity": 0.7637795275590551
        },
        {
          "duration": 0.06901837499998464,
          "durationTicks": 36,
          "midi": 64,
          "name": "E4",
          "ticks": 84960,
          "time": 162.883365,
          "velocity": 1
        },
        {
          "duration": 0.1840490000000159,
          "durationTicks": 96,
          "midi": 67,
          "name": "G4",
          "ticks": 85056,
          "time": 163.06741399999999,
          "velocity": 1
        },
        {
          "duration": 0.1380367499999977,
          "durationTicks": 72,
          "midi": 70,
          "name": "A#4",
          "ticks": 85248,
          "time": 163.435512,
          "velocity": 1
        },
        {
          "duration": 0.07476990624999758,
          "durationTicks": 39,
          "midi": 65,
          "name": "F4",
          "ticks": 85440,
          "time": 163.80361,
          "velocity": 0.8346456692913385
        },
        {
          "duration": 0.1993864166666981,
          "durationTicks": 104,
          "midi": 67,
          "name": "G4",
          "ticks": 85536,
          "time": 163.98765899999998,
          "velocity": 1
        },
        {
          "duration": 0.061349666666671965,
          "durationTicks": 32,
          "midi": 65,
          "name": "F4",
          "ticks": 85728,
          "time": 164.35575699999998,
          "velocity": 0.6692913385826772
        },
        {
          "duration": 0.22430971874999273,
          "durationTicks": 117,
          "midi": 67,
          "name": "G4",
          "ticks": 85824,
          "time": 164.539806,
          "velocity": 1
        },
        {
          "duration": 0.07093555208331281,
          "durationTicks": 37,
          "midi": 65,
          "name": "F4",
          "ticks": 86016,
          "time": 164.907904,
          "velocity": 1
        },
        {
          "duration": 0.1898005312500004,
          "durationTicks": 99,
          "midi": 67,
          "name": "G4",
          "ticks": 86112,
          "time": 165.091953,
          "velocity": 1
        },
        {
          "duration": 0.0728527291666694,
          "durationTicks": 38,
          "midi": 65,
          "name": "F4",
          "ticks": 86304,
          "time": 165.460051,
          "velocity": 0.7637795275590551
        },
        {
          "duration": 0.18596617708334406,
          "durationTicks": 97,
          "midi": 67,
          "name": "G4",
          "ticks": 86400,
          "time": 165.64409999999998,
          "velocity": 1
        },
        {
          "duration": 0.04792942708331793,
          "durationTicks": 25,
          "midi": 65,
          "name": "F4",
          "ticks": 86496,
          "time": 165.828149,
          "velocity": 0.5354330708661418
        },
        {
          "duration": 0.18213182291668772,
          "durationTicks": 95,
          "midi": 67,
          "name": "G4",
          "ticks": 86592,
          "time": 166.01219799999998,
          "velocity": 1
        },
        {
          "duration": 0.3355059895833392,
          "durationTicks": 175,
          "midi": 67,
          "name": "G4",
          "ticks": 86784,
          "time": 166.380296,
          "velocity": 1
        },
        {
          "duration": 0.31825139583332884,
          "durationTicks": 166,
          "midi": 67,
          "name": "G4",
          "ticks": 87072,
          "time": 166.93244299999998,
          "velocity": 1
        },
        {
          "duration": 0.053680958333330864,
          "durationTicks": 28,
          "midi": 65,
          "name": "F4",
          "ticks": 87264,
          "time": 167.30054099999998,
          "velocity": 0.6692913385826772
        },
        {
          "duration": 0.2856593854166647,
          "durationTicks": 149,
          "midi": 67,
          "name": "G4",
          "ticks": 87360,
          "time": 167.48459,
          "velocity": 1
        },
        {
          "duration": 0.04026071874997683,
          "durationTicks": 21,
          "midi": 65,
          "name": "F4",
          "ticks": 87552,
          "time": 167.852688,
          "velocity": 0.7086614173228346
        },
        {
          "duration": 0.21664101041668005,
          "durationTicks": 113,
          "midi": 67,
          "name": "G4",
          "ticks": 87648,
          "time": 168.036737,
          "velocity": 1
        },
        {
          "duration": 0.06901837500001307,
          "durationTicks": 36,
          "midi": 65,
          "name": "F4",
          "ticks": 87840,
          "time": 168.404835,
          "velocity": 0.8346456692913385
        },
        {
          "duration": 0.15720852083333625,
          "durationTicks": 82,
          "midi": 67,
          "name": "G4",
          "ticks": 87936,
          "time": 168.58888399999998,
          "velocity": 1
        },
        {
          "duration": 0.07093555208331281,
          "durationTicks": 37,
          "midi": 65,
          "name": "F4",
          "ticks": 88032,
          "time": 168.772933,
          "velocity": 0.7086614173228346
        },
        {
          "duration": 0.16679440625000552,
          "durationTicks": 87,
          "midi": 67,
          "name": "G4",
          "ticks": 88128,
          "time": 168.95698199999998,
          "velocity": 1
        },
        {
          "duration": 0.06901837500001307,
          "durationTicks": 36,
          "midi": 77,
          "name": "F5",
          "ticks": 88320,
          "time": 169.32507999999999,
          "velocity": 1
        },
        {
          "duration": 0.07668708333332575,
          "durationTicks": 40,
          "midi": 73,
          "name": "C#5",
          "ticks": 88320,
          "time": 169.32507999999999,
          "velocity": 1
        },
        {
          "duration": 0.0651840208333283,
          "durationTicks": 34,
          "midi": 77,
          "name": "F5",
          "ticks": 88416,
          "time": 169.509129,
          "velocity": 0.7086614173228346
        },
        {
          "duration": 0.051763781250002694,
          "durationTicks": 27,
          "midi": 74,
          "name": "D5",
          "ticks": 88416,
          "time": 169.509129,
          "velocity": 0.7637795275590551
        },
        {
          "duration": 0.061349666666671965,
          "durationTicks": 32,
          "midi": 77,
          "name": "F5",
          "ticks": 88512,
          "time": 169.693178,
          "velocity": 0.8346456692913385
        },
        {
          "duration": 0.0671011979166849,
          "durationTicks": 35,
          "midi": 74,
          "name": "D5",
          "ticks": 88512,
          "time": 169.693178,
          "velocity": 0.9291338582677166
        },
        {
          "duration": 0.08627296874999502,
          "durationTicks": 45,
          "midi": 77,
          "name": "F5",
          "ticks": 88608,
          "time": 169.877227,
          "velocity": 1
        },
        {
          "duration": 0.07860426041665391,
          "durationTicks": 41,
          "midi": 73,
          "name": "C#5",
          "ticks": 88608,
          "time": 169.877227,
          "velocity": 1
        },
        {
          "duration": 0.08819014583332319,
          "durationTicks": 46,
          "midi": 77,
          "name": "F5",
          "ticks": 88704,
          "time": 170.061276,
          "velocity": 0.7637795275590551
        },
        {
          "duration": 0.0671011979166849,
          "durationTicks": 35,
          "midi": 74,
          "name": "D5",
          "ticks": 88704,
          "time": 170.061276,
          "velocity": 0.8346456692913385
        },
        {
          "duration": 0.08819014583335161,
          "durationTicks": 46,
          "midi": 77,
          "name": "F5",
          "ticks": 88800,
          "time": 170.24532499999998,
          "velocity": 0.9291338582677166
        },
        {
          "duration": 0.07668708333332575,
          "durationTicks": 40,
          "midi": 74,
          "name": "D5",
          "ticks": 88800,
          "time": 170.24532499999998,
          "velocity": 1
        },
        {
          "duration": 0.10736191666666173,
          "durationTicks": 56,
          "midi": 77,
          "name": "F5",
          "ticks": 88896,
          "time": 170.429374,
          "velocity": 1
        },
        {
          "duration": 0.08243861458331025,
          "durationTicks": 43,
          "midi": 73,
          "name": "C#5",
          "ticks": 88896,
          "time": 170.429374,
          "velocity": 1
        },
        {
          "duration": 0.09202450000000795,
          "durationTicks": 48,
          "midi": 77,
          "name": "F5",
          "ticks": 88992,
          "time": 170.61342299999998,
          "velocity": 0.7086614173228346
        },
        {
          "duration": 0.07860426041668234,
          "durationTicks": 41,
          "midi": 74,
          "name": "D5",
          "ticks": 88992,
          "time": 170.61342299999998,
          "velocity": 0.8346456692913385
        },
        {
          "duration": 0.09010732291667978,
          "durationTicks": 47,
          "midi": 77,
          "name": "F5",
          "ticks": 89088,
          "time": 170.797472,
          "velocity": 0.9291338582677166
        },
        {
          "duration": 0.07860426041665391,
          "durationTicks": 41,
          "midi": 74,
          "name": "D5",
          "ticks": 89088,
          "time": 170.797472,
          "velocity": 0.8346456692913385
        },
        {
          "duration": 0.09202450000000795,
          "durationTicks": 48,
          "midi": 77,
          "name": "F5",
          "ticks": 89184,
          "time": 170.981521,
          "velocity": 1
        },
        {
          "duration": 0.08243861458333868,
          "durationTicks": 43,
          "midi": 73,
          "name": "C#5",
          "ticks": 89184,
          "time": 170.981521,
          "velocity": 1
        },
        {
          "duration": 0.08052143749998208,
          "durationTicks": 42,
          "midi": 77,
          "name": "F5",
          "ticks": 89280,
          "time": 171.16557,
          "velocity": 0.7637795275590551
        },
        {
          "duration": 0.07093555208331281,
          "durationTicks": 37,
          "midi": 74,
          "name": "D5",
          "ticks": 89280,
          "time": 171.16557,
          "velocity": 0.9291338582677166
        },
        {
          "duration": 0.07860426041668234,
          "durationTicks": 41,
          "midi": 77,
          "name": "F5",
          "ticks": 89376,
          "time": 171.349619,
          "velocity": 0.8346456692913385
        },
        {
          "duration": 0.07860426041668234,
          "durationTicks": 41,
          "midi": 74,
          "name": "D5",
          "ticks": 89376,
          "time": 171.349619,
          "velocity": 1
        },
        {
          "duration": 0.09969320833334905,
          "durationTicks": 52,
          "midi": 77,
          "name": "F5",
          "ticks": 89472,
          "time": 171.53366799999998,
          "velocity": 1
        },
        {
          "duration": 0.0651840208333283,
          "durationTicks": 34,
          "midi": 73,
          "name": "C#5",
          "ticks": 89472,
          "time": 171.53366799999998,
          "velocity": 1
        },
        {
          "duration": 0.0728527291666694,
          "durationTicks": 38,
          "midi": 77,
          "name": "F5",
          "ticks": 89568,
          "time": 171.717717,
          "velocity": 0.7637795275590551
        },
        {
          "duration": 0.07476990624999758,
          "durationTicks": 39,
          "midi": 74,
          "name": "D5",
          "ticks": 89568,
          "time": 171.717717,
          "velocity": 0.9291338582677166
        },
        {
          "duration": 0.09010732291667978,
          "durationTicks": 47,
          "midi": 74,
          "name": "D5",
          "ticks": 89664,
          "time": 171.90176599999998,
          "velocity": 1
        },
        {
          "duration": 0.09010732291667978,
          "durationTicks": 47,
          "midi": 77,
          "name": "F5",
          "ticks": 89664,
          "time": 171.90176599999998,
          "velocity": 0.9291338582677166
        },
        {
          "duration": 0.06710119791665647,
          "durationTicks": 35,
          "midi": 74,
          "name": "D5",
          "ticks": 89760,
          "time": 172.085815,
          "velocity": 1
        },
        {
          "duration": 0.07860426041665391,
          "durationTicks": 41,
          "midi": 77,
          "name": "F5",
          "ticks": 89760,
          "time": 172.085815,
          "velocity": 1
        },
        {
          "duration": 0.08435579166666685,
          "durationTicks": 44,
          "midi": 77,
          "name": "F5",
          "ticks": 89856,
          "time": 172.26986399999998,
          "velocity": 1
        },
        {
          "duration": 0.07860426041668234,
          "durationTicks": 41,
          "midi": 73,
          "name": "C#5",
          "ticks": 89856,
          "time": 172.26986399999998,
          "velocity": 1
        },
        {
          "duration": 0.08435579166666685,
          "durationTicks": 44,
          "midi": 77,
          "name": "F5",
          "ticks": 89952,
          "time": 172.453913,
          "velocity": 0.7086614173228346
        },
        {
          "duration": 0.06901837499998464,
          "durationTicks": 36,
          "midi": 74,
          "name": "D5",
          "ticks": 89952,
          "time": 172.453913,
          "velocity": 0.8346456692913385
        },
        {
          "duration": 0.06901837500001307,
          "durationTicks": 36,
          "midi": 74,
          "name": "D5",
          "ticks": 90048,
          "time": 172.637962,
          "velocity": 0.9291338582677166
        },
        {
          "duration": 0.07476990624999758,
          "durationTicks": 39,
          "midi": 77,
          "name": "F5",
          "ticks": 90048,
          "time": 172.637962,
          "velocity": 0.8346456692913385
        },
        {
          "duration": 0.06518402083329988,
          "durationTicks": 34,
          "midi": 73,
          "name": "C#5",
          "ticks": 90144,
          "time": 172.822011,
          "velocity": 1
        },
        {
          "duration": 0.09969320833332063,
          "durationTicks": 52,
          "midi": 77,
          "name": "F5",
          "ticks": 90144,
          "time": 172.822011,
          "velocity": 1
        },
        {
          "duration": 0.08627296874999502,
          "durationTicks": 45,
          "midi": 74,
          "name": "D5",
          "ticks": 90240,
          "time": 173.00606,
          "velocity": 0.9291338582677166
        },
        {
          "duration": 0.09777603124999246,
          "durationTicks": 51,
          "midi": 77,
          "name": "F5",
          "ticks": 90240,
          "time": 173.00606,
          "velocity": 0.7637795275590551
        },
        {
          "duration": 0.06326684375000013,
          "durationTicks": 33,
          "midi": 74,
          "name": "D5",
          "ticks": 90336,
          "time": 173.19010899999998,
          "velocity": 1
        },
        {
          "duration": 0.08435579166669527,
          "durationTicks": 44,
          "midi": 77,
          "name": "F5",
          "ticks": 90336,
          "time": 173.19010899999998,
          "velocity": 1
        },
        {
          "duration": 0.12653368750000027,
          "durationTicks": 66,
          "midi": 77,
          "name": "F5",
          "ticks": 90432,
          "time": 173.374158,
          "velocity": 1
        },
        {
          "duration": 0.06901837499998464,
          "durationTicks": 36,
          "midi": 73,
          "name": "C#5",
          "ticks": 90432,
          "time": 173.374158,
          "velocity": 1
        },
        {
          "duration": 0.0671011979166849,
          "durationTicks": 35,
          "midi": 77,
          "name": "F5",
          "ticks": 90528,
          "time": 173.55820699999998,
          "velocity": 0.6377952755905512
        },
        {
          "duration": 0.0728527291666694,
          "durationTicks": 38,
          "midi": 74,
          "name": "D5",
          "ticks": 90528,
          "time": 173.55820699999998,
          "velocity": 0.8346456692913385
        },
        {
          "duration": 0.06901837499998464,
          "durationTicks": 36,
          "midi": 74,
          "name": "D5",
          "ticks": 90624,
          "time": 173.742256,
          "velocity": 1
        },
        {
          "duration": 0.08435579166666685,
          "durationTicks": 44,
          "midi": 77,
          "name": "F5",
          "ticks": 90624,
          "time": 173.742256,
          "velocity": 1
        },
        {
          "duration": 0.08819014583332319,
          "durationTicks": 46,
          "midi": 73,
          "name": "C#5",
          "ticks": 90720,
          "time": 173.92630499999999,
          "velocity": 1
        },
        {
          "duration": 0.09585885416669271,
          "durationTicks": 50,
          "midi": 77,
          "name": "F5",
          "ticks": 90720,
          "time": 173.92630499999999,
          "velocity": 1
        },
        {
          "duration": 0.06326684375000013,
          "durationTicks": 33,
          "midi": 74,
          "name": "D5",
          "ticks": 90816,
          "time": 174.110354,
          "velocity": 0.7637795275590551
        },
        {
          "duration": 0.0728527291666694,
          "durationTicks": 38,
          "midi": 77,
          "name": "F5",
          "ticks": 90912,
          "time": 174.294403,
          "velocity": 1
        },
        {
          "duration": 0.061349666666671965,
          "durationTicks": 32,
          "midi": 74,
          "name": "D5",
          "ticks": 90912,
          "time": 174.294403,
          "velocity": 1
        },
        {
          "duration": 0.09777603124999246,
          "durationTicks": 51,
          "midi": 73,
          "name": "C#5",
          "ticks": 91008,
          "time": 174.478452,
          "velocity": 1
        },
        {
          "duration": 0.12653368750000027,
          "durationTicks": 66,
          "midi": 77,
          "name": "F5",
          "ticks": 91008,
          "time": 174.478452,
          "velocity": 0.8346456692913385
        },
        {
          "duration": 0.09585885416666429,
          "durationTicks": 50,
          "midi": 72,
          "name": "C5",
          "ticks": 91104,
          "time": 174.662501,
          "velocity": 0.9291338582677166
        },
        {
          "duration": 0.12653368750000027,
          "durationTicks": 66,
          "midi": 70,
          "name": "A#4",
          "ticks": 91200,
          "time": 174.84654999999998,
          "velocity": 1
        },
        {
          "duration": 0.09010732291667978,
          "durationTicks": 47,
          "midi": 67,
          "name": "G4",
          "ticks": 91296,
          "time": 175.030599,
          "velocity": 1
        }
      ]
    },
    {
      "channel": 9,
      "controlChanges": {
        "0": [
          {
            "number": 0,
            "ticks": 578,
            "time": 1.1081283541666667,
            "value": 0
          }
        ],
        "1": [
          {
            "number": 1,
            "ticks": 8,
            "time": 0.015337416666666666,
            "value": 0
          }
        ],
        "6": [
          {
            "number": 6,
            "ticks": 6,
            "time": 0.0115030625,
            "value": 0.09448818897637795
          }
        ],
        "7": [
          {
            "number": 7,
            "ticks": 0,
            "time": 0,
            "value": 0.7874015748031497
          },
          {
            "number": 7,
            "ticks": 580,
            "time": 1.1119627083333334,
            "value": 0.8661417322834646
          }
        ],
        "10": [
          {
            "number": 10,
            "ticks": 0,
            "time": 0,
            "value": 0.5039370078740157
          }
        ],
        "11": [
          {
            "number": 11,
            "ticks": 7,
            "time": 0.013420239583333333,
            "value": 1
          },
          {
            "number": 11,
            "ticks": 10,
            "time": 0.019171770833333334,
            "value": 1
          },
          {
            "number": 11,
            "ticks": 584,
            "time": 1.1196314166666665,
            "value": 1
          }
        ],
        "32": [
          {
            "number": 32,
            "ticks": 578,
            "time": 1.1081283541666667,
            "value": 0
          }
        ],
        "38": [
          {
            "number": 38,
            "ticks": 6,
            "time": 0.0115030625,
            "value": 0
          }
        ],
        "64": [
          {
            "number": 64,
            "ticks": 3,
            "time": 0.00575153125,
            "value": 0
          }
        ],
        "67": [
          {
            "number": 67,
            "ticks": 2,
            "time": 0.0038343541666666665,
            "value": 0
          }
        ],
        "91": [
          {
            "number": 91,
            "ticks": 586,
            "time": 1.1234657708333333,
            "value": 0.3464566929133858
          }
        ],
        "93": [
          {
            "number": 93,
            "ticks": 588,
            "time": 1.1273001249999999,
            "value": 0
          }
        ],
        "100": [
          {
            "number": 100,
            "ticks": 6,
            "time": 0.0115030625,
            "value": 0
          }
        ],
        "101": [
          {
            "number": 101,
            "ticks": 6,
            "time": 0.0115030625,
            "value": 0
          }
        ],
        "121": [
          {
            "number": 121,
            "ticks": 0,
            "time": 0,
            "value": 0
          }
        ]
      },
      "pitchBends": [],
      "instrument": {
        "family": "drums",
        "number": 0,
        "name": "standard kit"
      },
      "name": "tk10",
      "notes": [
        {
          "duration": 0.015337416666666881,
          "durationTicks": 8,
          "midi": 42,
          "name": "F#2",
          "ticks": 768,
          "time": 1.472392,
          "velocity": 0.9291338582677166
        },
        {
          "duration": 0.015337416666666659,
          "durationTicks": 8,
          "midi": 42,
          "name": "F#2",
          "ticks": 960,
          "time": 1.84049,
          "velocity": 0.9291338582677166
        },
        {
          "duration": 0.015337416666667103,
          "durationTicks": 8,
          "midi": 42,
          "name": "F#2",
          "ticks": 1152,
          "time": 2.2085879999999998,
          "velocity": 0.9291338582677166
        },
        {
          "duration": 0.015337416666666659,
          "durationTicks": 8,
          "midi": 42,
          "name": "F#2",
          "ticks": 1344,
          "time": 2.576686,
          "velocity": 0.9291338582677166
        },
        {
          "duration": 0.015337416666667103,
          "durationTicks": 8,
          "midi": 40,
          "name": "E2",
          "ticks": 3744,
          "time": 7.177911,
          "velocity": 0.9291338582677166
        },
        {
          "duration": 0.015337416666667103,
          "durationTicks": 8,
          "midi": 42,
          "name": "F#2",
          "ticks": 3840,
          "time": 7.36196,
          "velocity": 0.7874015748031497
        },
        {
          "duration": 0.015337416666667103,
          "durationTicks": 8,
          "midi": 36,
          "name": "C2",
          "ticks": 3840,
          "time": 7.36196,
          "velocity": 0.8818897637795275
        },
        {
          "duration": 0.015337416666667103,
          "durationTicks": 8,
          "midi": 42,
          "name": "F#2",
          "ticks": 3936,
          "time": 7.546009,
          "velocity": 0.4251968503937008
        },
        {
          "duration": 0.015337416666667103,
          "durationTicks": 8,
          "midi": 54,
          "name": "F#3",
          "ticks": 4032,
          "time": 7.730058,
          "velocity": 0.9133858267716536
        },
        {
          "duration": 0.015337416666667103,
          "durationTicks": 8,
          "midi": 40,
          "name": "E2",
          "ticks": 4032,
          "time": 7.730058,
          "velocity": 0.8818897637795275
        },
        {
          "duration": 0.015337416666667103,
          "durationTicks": 8,
          "midi": 42,
          "name": "F#2",
          "ticks": 4032,
          "time": 7.730058,
          "velocity": 0.6535433070866141
        },
        {
          "duration": 0.015337416666667103,
          "durationTicks": 8,
          "midi": 42,
          "name": "F#2",
          "ticks": 4128,
          "time": 7.914107,
          "velocity": 0.4251968503937008
        },
        {
          "duration": 0.015337416666667991,
          "durationTicks": 8,
          "midi": 42,
          "name": "F#2",
          "ticks": 4224,
          "time": 8.098156,
          "velocity": 0.6535433070866141
        },
        {
          "duration": 0.015337416666667991,
          "durationTicks": 8,
          "midi": 36,
          "name": "C2",
          "ticks": 4224,
          "time": 8.098156,
          "velocity": 0.6299212598425197
        },
        {
          "duration": 0.015337416666667991,
          "durationTicks": 8,
          "midi": 42,
          "name": "F#2",
          "ticks": 4320,
          "time": 8.282205,
          "velocity": 0.3779527559055118
        },
        {
          "duration": 0.015337416666667991,
          "durationTicks": 8,
          "midi": 42,
          "name": "F#2",
          "ticks": 4416,
          "time": 8.466254,
          "velocity": 0.6535433070866141
        },
        {
          "duration": 0.015337416666667991,
          "durationTicks": 8,
          "midi": 40,
          "name": "E2",
          "ticks": 4416,
          "time": 8.466254,
          "velocity": 0.9763779527559056
        },
        {
          "duration": 0.015337416666667991,
          "durationTicks": 8,
          "midi": 54,
          "name": "F#3",
          "ticks": 4416,
          "time": 8.466254,
          "velocity": 0.7874015748031497
        },
        {
          "duration": 0.015337416666667991,
          "durationTicks": 8,
          "midi": 42,
          "name": "F#2",
          "ticks": 4512,
          "time": 8.650303,
          "velocity": 0.48031496062992124
        },
        {
          "duration": 0.015337416666667991,
          "durationTicks": 8,
          "midi": 36,
          "name": "C2",
          "ticks": 4608,
          "time": 8.834351999999999,
          "velocity": 0.7480314960629921
        },
        {
          "duration": 0.015337416666667991,
          "durationTicks": 8,
          "midi": 42,
          "name": "F#2",
          "ticks": 4608,
          "time": 8.834351999999999,
          "velocity": 0.6535433070866141
        },
        {
          "duration": 0.015337416666667991,
          "durationTicks": 8,
          "midi": 42,
          "name": "F#2",
          "ticks": 4704,
          "time": 9.018400999999999,
          "velocity": 0.48031496062992124
        },
        {
          "duration": 0.015337416666667991,
          "durationTicks": 8,
          "midi": 40,
          "name": "E2",
          "ticks": 4800,
          "time": 9.202449999999999,
          "velocity": 0.8818897637795275
        },
        {
          "duration": 0.015337416666667991,
          "durationTicks": 8,
          "midi": 42,
          "name": "F#2",
          "ticks": 4800,
          "time": 9.202449999999999,
          "velocity": 0.6535433070866141
        },
        {
          "duration": 0.015337416666667991,
          "durationTicks": 8,
          "midi": 54,
          "name": "F#3",
          "ticks": 4800,
          "time": 9.202449999999999,
          "velocity": 0.9133858267716536
        },
        {
          "duration": 0.015337416666667991,
          "durationTicks": 8,
          "midi": 42,
          "name": "F#2",
          "ticks": 4896,
          "time": 9.386498999999999,
          "velocity": 0.5590551181102362
        },
        {
          "duration": 0.015337416666667991,
          "durationTicks": 8,
          "midi": 36,
          "name": "C2",
          "ticks": 4992,
          "time": 9.570547999999999,
          "velocity": 0.8818897637795275
        },
        {
          "duration": 0.015337416666667991,
          "durationTicks": 8,
          "midi": 42,
          "name": "F#2",
          "ticks": 4992,
          "time": 9.570547999999999,
          "velocity": 0.6535433070866141
        },
        {
          "duration": 0.015337416666667991,
          "durationTicks": 8,
          "midi": 42,
          "name": "F#2",
          "ticks": 5088,
          "time": 9.754596999999999,
          "velocity": 0.5590551181102362
        },
        {
          "duration": 0.015337416666666215,
          "durationTicks": 8,
          "midi": 40,
          "name": "E2",
          "ticks": 5184,
          "time": 9.938646,
          "velocity": 0.9763779527559056
        },
        {
          "duration": 0.015337416666666215,
          "durationTicks": 8,
          "midi": 54,
          "name": "F#3",
          "ticks": 5184,
          "time": 9.938646,
          "velocity": 0.7874015748031497
        },
        {
          "duration": 0.015337416666666215,
          "durationTicks": 8,
          "midi": 42,
          "name": "F#2",
          "ticks": 5184,
          "time": 9.938646,
          "velocity": 0.6535433070866141
        },
        {
          "duration": 0.015337416666666215,
          "durationTicks": 8,
          "midi": 42,
          "name": "F#2",
          "ticks": 5280,
          "time": 10.122695,
          "velocity": 0.48031496062992124
        },
        {
          "duration": 0.015337416666666215,
          "durationTicks": 8,
          "midi": 42,
          "name": "F#2",
          "ticks": 5376,
          "time": 10.306744,
          "velocity": 0.6535433070866141
        },
        {
          "duration": 0.015337416666666215,
          "durationTicks": 8,
          "midi": 36,
          "name": "C2",
          "ticks": 5376,
          "time": 10.306744,
          "velocity": 0.7480314960629921
        },
        {
          "duration": 0.015337416666666215,
          "durationTicks": 8,
          "midi": 42,
          "name": "F#2",
          "ticks": 5472,
          "time": 10.490793,
          "velocity": 0.3779527559055118
        },
        {
          "duration": 0.015337416666666215,
          "durationTicks": 8,
          "midi": 40,
          "name": "E2",
          "ticks": 5568,
          "time": 10.674842,
          "velocity": 0.8818897637795275
        },
        {
          "duration": 0.015337416666666215,
          "durationTicks": 8,
          "midi": 54,
          "name": "F#3",
          "ticks": 5568,
          "time": 10.674842,
          "velocity": 0.9133858267716536
        },
        {
          "duration": 0.015337416666666215,
          "durationTicks": 8,
          "midi": 42,
          "name": "F#2",
          "ticks": 5568,
          "time": 10.674842,
          "velocity": 0.6535433070866141
        },
        {
          "duration": 0.015337416666666215,
          "durationTicks": 8,
          "midi": 42,
          "name": "F#2",
          "ticks": 5664,
          "time": 10.858891,
          "velocity": 0.4251968503937008
        },
        {
          "duration": 0.015337416666666215,
          "durationTicks": 8,
          "midi": 42,
          "name": "F#2",
          "ticks": 5760,
          "time": 11.04294,
          "velocity": 0.6535433070866141
        },
        {
          "duration": 0.015337416666666215,
          "durationTicks": 8,
          "midi": 36,
          "name": "C2",
          "ticks": 5760,
          "time": 11.04294,
          "velocity": 0.7480314960629921
        },
        {
          "duration": 0.015337416666666215,
          "durationTicks": 8,
          "midi": 42,
          "name": "F#2",
          "ticks": 5856,
          "time": 11.226989,
          "velocity": 0.3779527559055118
        },
        {
          "duration": 0.015337416666666215,
          "durationTicks": 8,
          "midi": 54,
          "name": "F#3",
          "ticks": 5952,
          "time": 11.411038,
          "velocity": 0.9133858267716536
        },
        {
          "duration": 0.015337416666666215,
          "durationTicks": 8,
          "midi": 42,
          "name": "F#2",
          "ticks": 5952,
          "time": 11.411038,
          "velocity": 0.6535433070866141
        },
        {
          "duration": 0.015337416666666215,
          "durationTicks": 8,
          "midi": 40,
          "name": "E2",
          "ticks": 5952,
          "time": 11.411038,
          "velocity": 0.9763779527559056
        },
        {
          "duration": 0.015337416666666215,
          "durationTicks": 8,
          "midi": 42,
          "name": "F#2",
          "ticks": 6048,
          "time": 11.595087,
          "velocity": 0.5590551181102362
        },
        {
          "duration": 0.015337416666666215,
          "durationTicks": 8,
          "midi": 36,
          "name": "C2",
          "ticks": 6144,
          "time": 11.779136,
          "velocity": 0.8818897637795275
        },
        {
          "duration": 0.015337416666666215,
          "durationTicks": 8,
          "midi": 42,
          "name": "F#2",
          "ticks": 6144,
          "time": 11.779136,
          "velocity": 0.6535433070866141
        },
        {
          "duration": 0.015337416666666215,
          "durationTicks": 8,
          "midi": 42,
          "name": "F#2",
          "ticks": 6240,
          "time": 11.963185,
          "velocity": 0.48031496062992124
        },
        {
          "duration": 0.015337416666666215,
          "durationTicks": 8,
          "midi": 42,
          "name": "F#2",
          "ticks": 6336,
          "time": 12.147234,
          "velocity": 0.7874015748031497
        },
        {
          "duration": 0.015337416666666215,
          "durationTicks": 8,
          "midi": 54,
          "name": "F#3",
          "ticks": 6336,
          "time": 12.147234,
          "velocity": 0.7874015748031497
        },
        {
          "duration": 0.015337416666666215,
          "durationTicks": 8,
          "midi": 40,
          "name": "E2",
          "ticks": 6336,
          "time": 12.147234,
          "velocity": 0.8818897637795275
        },
        {
          "duration": 0.015337416666666215,
          "durationTicks": 8,
          "midi": 42,
          "name": "F#2",
          "ticks": 6432,
          "time": 12.331282999999999,
          "velocity": 0.48031496062992124
        },
        {
          "duration": 0.015337416666666215,
          "durationTicks": 8,
          "midi": 42,
          "name": "F#2",
          "ticks": 6528,
          "time": 12.515331999999999,
          "velocity": 0.6535433070866141
        },
        {
          "duration": 0.015337416666666215,
          "durationTicks": 8,
          "midi": 36,
          "name": "C2",
          "ticks": 6528,
          "time": 12.515331999999999,
          "velocity": 0.8818897637795275
        },
        {
          "duration": 0.015337416666666215,
          "durationTicks": 8,
          "midi": 42,
          "name": "F#2",
          "ticks": 6624,
          "time": 12.699380999999999,
          "velocity": 0.48031496062992124
        },
        {
          "duration": 0.015337416666666215,
          "durationTicks": 8,
          "midi": 40,
          "name": "E2",
          "ticks": 6720,
          "time": 12.883429999999999,
          "velocity": 0.7480314960629921
        },
        {
          "duration": 0.015337416666666215,
          "durationTicks": 8,
          "midi": 42,
          "name": "F#2",
          "ticks": 6720,
          "time": 12.883429999999999,
          "velocity": 0.7874015748031497
        },
        {
          "duration": 0.015337416666666215,
          "durationTicks": 8,
          "midi": 54,
          "name": "F#3",
          "ticks": 6720,
          "time": 12.883429999999999,
          "velocity": 0.7874015748031497
        },
        {
          "duration": 0.015337416666666215,
          "durationTicks": 8,
          "midi": 42,
          "name": "F#2",
          "ticks": 6816,
          "time": 13.067478999999999,
          "velocity": 0.5590551181102362
        },
        {
          "duration": 0.015337416666666215,
          "durationTicks": 8,
          "midi": 42,
          "name": "F#2",
          "ticks": 6912,
          "time": 13.251527999999999,
          "velocity": 0.7874015748031497
        },
        {
          "duration": 0.015337416666666215,
          "durationTicks": 8,
          "midi": 36,
          "name": "C2",
          "ticks": 6912,
          "time": 13.251527999999999,
          "velocity": 0.8818897637795275
        },
        {
          "duration": 0.015337416666666215,
          "durationTicks": 8,
          "midi": 42,
          "name": "F#2",
          "ticks": 7008,
          "time": 13.435576999999999,
          "velocity": 0.4251968503937008
        },
        {
          "duration": 0.015337416666666215,
          "durationTicks": 8,
          "midi": 54,
          "name": "F#3",
          "ticks": 7104,
          "time": 13.619625999999998,
          "velocity": 0.9133858267716536
        },
        {
          "duration": 0.015337416666666215,
          "durationTicks": 8,
          "midi": 42,
          "name": "F#2",
          "ticks": 7104,
          "time": 13.619625999999998,
          "velocity": 0.6535433070866141
        },
        {
          "duration": 0.015337416666666215,
          "durationTicks": 8,
          "midi": 40,
          "name": "E2",
          "ticks": 7104,
          "time": 13.619625999999998,
          "velocity": 0.8818897637795275
        },
        {
          "duration": 0.015337416666664438,
          "durationTicks": 8,
          "midi": 42,
          "name": "F#2",
          "ticks": 7200,
          "time": 13.803675,
          "velocity": 0.4251968503937008
        },
        {
          "duration": 0.015337416666664438,
          "durationTicks": 8,
          "midi": 42,
          "name": "F#2",
          "ticks": 7296,
          "time": 13.987724,
          "velocity": 0.6535433070866141
        },
        {
          "duration": 0.015337416666664438,
          "durationTicks": 8,
          "midi": 36,
          "name": "C2",
          "ticks": 7296,
          "time": 13.987724,
          "velocity": 0.6299212598425197
        },
        {
          "duration": 0.015337416666664438,
          "durationTicks": 8,
          "midi": 42,
          "name": "F#2",
          "ticks": 7392,
          "time": 14.171773,
          "velocity": 0.3779527559055118
        },
        {
          "duration": 0.015337416666664438,
          "durationTicks": 8,
          "midi": 42,
          "name": "F#2",
          "ticks": 7488,
          "time": 14.355822,
          "velocity": 0.6535433070866141
        },
        {
          "duration": 0.015337416666664438,
          "durationTicks": 8,
          "midi": 54,
          "name": "F#3",
          "ticks": 7488,
          "time": 14.355822,
          "velocity": 0.7874015748031497
        },
        {
          "duration": 0.015337416666664438,
          "durationTicks": 8,
          "midi": 40,
          "name": "E2",
          "ticks": 7488,
          "time": 14.355822,
          "velocity": 0.9763779527559056
        },
        {
          "duration": 0.015337416666664438,
          "durationTicks": 8,
          "midi": 42,
          "name": "F#2",
          "ticks": 7584,
          "time": 14.539871,
          "velocity": 0.48031496062992124
        },
        {
          "duration": 0.015337416666666215,
          "durationTicks": 8,
          "midi": 36,
          "name": "C2",
          "ticks": 7680,
          "time": 14.72392,
          "velocity": 0.7480314960629921
        },
        {
          "duration": 0.015337416666666215,
          "durationTicks": 8,
          "midi": 42,
          "name": "F#2",
          "ticks": 7680,
          "time": 14.72392,
          "velocity": 0.6535433070866141
        },
        {
          "duration": 0.015337416666666215,
          "durationTicks": 8,
          "midi": 42,
          "name": "F#2",
          "ticks": 7776,
          "time": 14.907969,
          "velocity": 0.48031496062992124
        },
        {
          "duration": 0.015337416666666215,
          "durationTicks": 8,
          "midi": 54,
          "name": "F#3",
          "ticks": 7872,
          "time": 15.092018,
          "velocity": 0.9133858267716536
        },
        {
          "duration": 0.015337416666666215,
          "durationTicks": 8,
          "midi": 40,
          "name": "E2",
          "ticks": 7872,
          "time": 15.092018,
          "velocity": 0.8818897637795275
        },
        {
          "duration": 0.015337416666666215,
          "durationTicks": 8,
          "midi": 42,
          "name": "F#2",
          "ticks": 7872,
          "time": 15.092018,
          "velocity": 0.6535433070866141
        },
        {
          "duration": 0.015337416666666215,
          "durationTicks": 8,
          "midi": 42,
          "name": "F#2",
          "ticks": 7968,
          "time": 15.276067,
          "velocity": 0.5590551181102362
        },
        {
          "duration": 0.015337416666666215,
          "durationTicks": 8,
          "midi": 42,
          "name": "F#2",
          "ticks": 8064,
          "time": 15.460116,
          "velocity": 0.6535433070866141
        },
        {
          "duration": 0.015337416666666215,
          "durationTicks": 8,
          "midi": 36,
          "name": "C2",
          "ticks": 8064,
          "time": 15.460116,
          "velocity": 0.8818897637795275
        },
        {
          "duration": 0.015337416666666215,
          "durationTicks": 8,
          "midi": 42,
          "name": "F#2",
          "ticks": 8160,
          "time": 15.644165,
          "velocity": 0.5590551181102362
        },
        {
          "duration": 0.015337416666666215,
          "durationTicks": 8,
          "midi": 40,
          "name": "E2",
          "ticks": 8256,
          "time": 15.828214,
          "velocity": 0.9763779527559056
        },
        {
          "duration": 0.015337416666666215,
          "durationTicks": 8,
          "midi": 54,
          "name": "F#3",
          "ticks": 8256,
          "time": 15.828214,
          "velocity": 0.7874015748031497
        },
        {
          "duration": 0.015337416666666215,
          "durationTicks": 8,
          "midi": 42,
          "name": "F#2",
          "ticks": 8256,
          "time": 15.828214,
          "velocity": 0.6535433070866141
        },
        {
          "duration": 0.015337416666664438,
          "durationTicks": 8,
          "midi": 42,
          "name": "F#2",
          "ticks": 8352,
          "time": 16.012263,
          "velocity": 0.48031496062992124
        },
        {
          "duration": 0.015337416666664438,
          "durationTicks": 8,
          "midi": 42,
          "name": "F#2",
          "ticks": 8448,
          "time": 16.196312,
          "velocity": 0.6535433070866141
        },
        {
          "duration": 0.015337416666664438,
          "durationTicks": 8,
          "midi": 36,
          "name": "C2",
          "ticks": 8448,
          "time": 16.196312,
          "velocity": 0.7480314960629921
        },
        {
          "duration": 0.015337416666664438,
          "durationTicks": 8,
          "midi": 42,
          "name": "F#2",
          "ticks": 8544,
          "time": 16.380361,
          "velocity": 0.3779527559055118
        },
        {
          "duration": 0.015337416666664438,
          "durationTicks": 8,
          "midi": 42,
          "name": "F#2",
          "ticks": 8640,
          "time": 16.56441,
          "velocity": 0.6535433070866141
        },
        {
          "duration": 0.015337416666664438,
          "durationTicks": 8,
          "midi": 54,
          "name": "F#3",
          "ticks": 8640,
          "time": 16.56441,
          "velocity": 0.9133858267716536
        },
        {
          "duration": 0.015337416666664438,
          "durationTicks": 8,
          "midi": 40,
          "name": "E2",
          "ticks": 8640,
          "time": 16.56441,
          "velocity": 0.8818897637795275
        },
        {
          "duration": 0.015337416666664438,
          "durationTicks": 8,
          "midi": 42,
          "name": "F#2",
          "ticks": 8736,
          "time": 16.748459,
          "velocity": 0.4251968503937008
        },
        {
          "duration": 0.015337416666667991,
          "durationTicks": 8,
          "midi": 36,
          "name": "C2",
          "ticks": 8832,
          "time": 16.932508,
          "velocity": 0.7480314960629921
        },
        {
          "duration": 0.015337416666667991,
          "durationTicks": 8,
          "midi": 42,
          "name": "F#2",
          "ticks": 8832,
          "time": 16.932508,
          "velocity": 0.6535433070866141
        },
        {
          "duration": 0.015337416666664438,
          "durationTicks": 8,
          "midi": 42,
          "name": "F#2",
          "ticks": 8928,
          "time": 17.116557,
          "velocity": 0.3779527559055118
        },
        {
          "duration": 0.015337416666667991,
          "durationTicks": 8,
          "midi": 54,
          "name": "F#3",
          "ticks": 9024,
          "time": 17.300606,
          "velocity": 0.9133858267716536
        },
        {
          "duration": 0.015337416666667991,
          "durationTicks": 8,
          "midi": 40,
          "name": "E2",
          "ticks": 9024,
          "time": 17.300606,
          "velocity": 0.9763779527559056
        },
        {
          "duration": 0.015337416666667991,
          "durationTicks": 8,
          "midi": 42,
          "name": "F#2",
          "ticks": 9024,
          "time": 17.300606,
          "velocity": 0.6535433070866141
        },
        {
          "duration": 0.015337416666664438,
          "durationTicks": 8,
          "midi": 42,
          "name": "F#2",
          "ticks": 9120,
          "time": 17.484655,
          "velocity": 0.5590551181102362
        },
        {
          "duration": 0.015337416666667991,
          "durationTicks": 8,
          "midi": 42,
          "name": "F#2",
          "ticks": 9216,
          "time": 17.668703999999998,
          "velocity": 0.6535433070866141
        },
        {
          "duration": 0.015337416666667991,
          "durationTicks": 8,
          "midi": 36,
          "name": "C2",
          "ticks": 9216,
          "time": 17.668703999999998,
          "velocity": 0.8818897637795275
        },
        {
          "duration": 0.015337416666664438,
          "durationTicks": 8,
          "midi": 42,
          "name": "F#2",
          "ticks": 9312,
          "time": 17.852753,
          "velocity": 0.48031496062992124
        },
        {
          "duration": 0.015337416666667991,
          "durationTicks": 8,
          "midi": 54,
          "name": "F#3",
          "ticks": 9408,
          "time": 18.036801999999998,
          "velocity": 0.7874015748031497
        },
        {
          "duration": 0.015337416666667991,
          "durationTicks": 8,
          "midi": 40,
          "name": "E2",
          "ticks": 9408,
          "time": 18.036801999999998,
          "velocity": 0.8818897637795275
        },
        {
          "duration": 0.015337416666667991,
          "durationTicks": 8,
          "midi": 42,
          "name": "F#2",
          "ticks": 9408,
          "time": 18.036801999999998,
          "velocity": 0.7874015748031497
        },
        {
          "duration": 0.015337416666664438,
          "durationTicks": 8,
          "midi": 42,
          "name": "F#2",
          "ticks": 9504,
          "time": 18.220851,
          "velocity": 0.48031496062992124
        },
        {
          "duration": 0.015337416666667991,
          "durationTicks": 8,
          "midi": 36,
          "name": "C2",
          "ticks": 9600,
          "time": 18.404899999999998,
          "velocity": 0.8818897637795275
        },
        {
          "duration": 0.015337416666667991,
          "durationTicks": 8,
          "midi": 42,
          "name": "F#2",
          "ticks": 9600,
          "time": 18.404899999999998,
          "velocity": 0.6535433070866141
        },
        {
          "duration": 0.015337416666664438,
          "durationTicks": 8,
          "midi": 42,
          "name": "F#2",
          "ticks": 9696,
          "time": 18.588949,
          "velocity": 0.48031496062992124
        },
        {
          "duration": 0.015337416666667991,
          "durationTicks": 8,
          "midi": 40,
          "name": "E2",
          "ticks": 9792,
          "time": 18.772997999999998,
          "velocity": 0.7480314960629921
        },
        {
          "duration": 0.015337416666667991,
          "durationTicks": 8,
          "midi": 42,
          "name": "F#2",
          "ticks": 9792,
          "time": 18.772997999999998,
          "velocity": 0.7874015748031497
        },
        {
          "duration": 0.015337416666667991,
          "durationTicks": 8,
          "midi": 54,
          "name": "F#3",
          "ticks": 9792,
          "time": 18.772997999999998,
          "velocity": 0.7874015748031497
        },
        {
          "duration": 0.015337416666664438,
          "durationTicks": 8,
          "midi": 42,
          "name": "F#2",
          "ticks": 9888,
          "time": 18.957047,
          "velocity": 0.5590551181102362
        },
        {
          "duration": 0.015337416666667991,
          "durationTicks": 8,
          "midi": 36,
          "name": "C2",
          "ticks": 9984,
          "time": 19.141095999999997,
          "velocity": 0.8818897637795275
        },
        {
          "duration": 0.015337416666667991,
          "durationTicks": 8,
          "midi": 42,
          "name": "F#2",
          "ticks": 9984,
          "time": 19.141095999999997,
          "velocity": 0.7874015748031497
        },
        {
          "duration": 0.015337416666664438,
          "durationTicks": 8,
          "midi": 42,
          "name": "F#2",
          "ticks": 10080,
          "time": 19.325145,
          "velocity": 0.4251968503937008
        },
        {
          "duration": 0.015337416666667991,
          "durationTicks": 8,
          "midi": 40,
          "name": "E2",
          "ticks": 10176,
          "time": 19.509193999999997,
          "velocity": 0.8818897637795275
        },
        {
          "duration": 0.015337416666667991,
          "durationTicks": 8,
          "midi": 54,
          "name": "F#3",
          "ticks": 10176,
          "time": 19.509193999999997,
          "velocity": 0.9133858267716536
        },
        {
          "duration": 0.015337416666667991,
          "durationTicks": 8,
          "midi": 42,
          "name": "F#2",
          "ticks": 10176,
          "time": 19.509193999999997,
          "velocity": 0.6535433070866141
        },
        {
          "duration": 0.015337416666664438,
          "durationTicks": 8,
          "midi": 42,
          "name": "F#2",
          "ticks": 10272,
          "time": 19.693243,
          "velocity": 0.4251968503937008
        },
        {
          "duration": 0.015337416666664438,
          "durationTicks": 8,
          "midi": 36,
          "name": "C2",
          "ticks": 10368,
          "time": 19.877292,
          "velocity": 0.6299212598425197
        },
        {
          "duration": 0.015337416666664438,
          "durationTicks": 8,
          "midi": 42,
          "name": "F#2",
          "ticks": 10368,
          "time": 19.877292,
          "velocity": 0.6535433070866141
        },
        {
          "duration": 0.015337416666664438,
          "durationTicks": 8,
          "midi": 42,
          "name": "F#2",
          "ticks": 10464,
          "time": 20.061341,
          "velocity": 0.3779527559055118
        },
        {
          "duration": 0.015337416666664438,
          "durationTicks": 8,
          "midi": 42,
          "name": "F#2",
          "ticks": 10560,
          "time": 20.24539,
          "velocity": 0.6535433070866141
        },
        {
          "duration": 0.015337416666664438,
          "durationTicks": 8,
          "midi": 54,
          "name": "F#3",
          "ticks": 10560,
          "time": 20.24539,
          "velocity": 0.7874015748031497
        },
        {
          "duration": 0.015337416666664438,
          "durationTicks": 8,
          "midi": 40,
          "name": "E2",
          "ticks": 10560,
          "time": 20.24539,
          "velocity": 0.9763779527559056
        },
        {
          "duration": 0.015337416666664438,
          "durationTicks": 8,
          "midi": 42,
          "name": "F#2",
          "ticks": 10656,
          "time": 20.429439,
          "velocity": 0.48031496062992124
        },
        {
          "duration": 0.015337416666664438,
          "durationTicks": 8,
          "midi": 42,
          "name": "F#2",
          "ticks": 10752,
          "time": 20.613488,
          "velocity": 0.6535433070866141
        },
        {
          "duration": 0.015337416666664438,
          "durationTicks": 8,
          "midi": 36,
          "name": "C2",
          "ticks": 10752,
          "time": 20.613488,
          "velocity": 0.7480314960629921
        },
        {
          "duration": 0.015337416666667991,
          "durationTicks": 8,
          "midi": 42,
          "name": "F#2",
          "ticks": 10848,
          "time": 20.797537,
          "velocity": 0.48031496062992124
        },
        {
          "duration": 0.015337416666664438,
          "durationTicks": 8,
          "midi": 54,
          "name": "F#3",
          "ticks": 10944,
          "time": 20.981586,
          "velocity": 0.9133858267716536
        },
        {
          "duration": 0.015337416666664438,
          "durationTicks": 8,
          "midi": 42,
          "name": "F#2",
          "ticks": 10944,
          "time": 20.981586,
          "velocity": 0.6535433070866141
        },
        {
          "duration": 0.015337416666664438,
          "durationTicks": 8,
          "midi": 40,
          "name": "E2",
          "ticks": 10944,
          "time": 20.981586,
          "velocity": 0.8818897637795275
        },
        {
          "duration": 0.015337416666667991,
          "durationTicks": 8,
          "midi": 42,
          "name": "F#2",
          "ticks": 11040,
          "time": 21.165634999999998,
          "velocity": 0.5590551181102362
        },
        {
          "duration": 0.015337416666664438,
          "durationTicks": 8,
          "midi": 42,
          "name": "F#2",
          "ticks": 11136,
          "time": 21.349684,
          "velocity": 0.6535433070866141
        },
        {
          "duration": 0.015337416666664438,
          "durationTicks": 8,
          "midi": 36,
          "name": "C2",
          "ticks": 11136,
          "time": 21.349684,
          "velocity": 0.8818897637795275
        },
        {
          "duration": 0.015337416666667991,
          "durationTicks": 8,
          "midi": 42,
          "name": "F#2",
          "ticks": 11232,
          "time": 21.533732999999998,
          "velocity": 0.5590551181102362
        },
        {
          "duration": 0.015337416666664438,
          "durationTicks": 8,
          "midi": 40,
          "name": "E2",
          "ticks": 11328,
          "time": 21.717782,
          "velocity": 0.9763779527559056
        },
        {
          "duration": 0.015337416666664438,
          "durationTicks": 8,
          "midi": 42,
          "name": "F#2",
          "ticks": 11328,
          "time": 21.717782,
          "velocity": 0.6535433070866141
        },
        {
          "duration": 0.015337416666664438,
          "durationTicks": 8,
          "midi": 54,
          "name": "F#3",
          "ticks": 11328,
          "time": 21.717782,
          "velocity": 0.7874015748031497
        },
        {
          "duration": 0.015337416666667991,
          "durationTicks": 8,
          "midi": 42,
          "name": "F#2",
          "ticks": 11424,
          "time": 21.901830999999998,
          "velocity": 0.48031496062992124
        },
        {
          "duration": 0.015337416666664438,
          "durationTicks": 8,
          "midi": 42,
          "name": "F#2",
          "ticks": 11520,
          "time": 22.08588,
          "velocity": 0.6535433070866141
        },
        {
          "duration": 0.015337416666664438,
          "durationTicks": 8,
          "midi": 36,
          "name": "C2",
          "ticks": 11520,
          "time": 22.08588,
          "velocity": 0.7480314960629921
        },
        {
          "duration": 0.015337416666667991,
          "durationTicks": 8,
          "midi": 42,
          "name": "F#2",
          "ticks": 11616,
          "time": 22.269928999999998,
          "velocity": 0.3779527559055118
        },
        {
          "duration": 0.015337416666664438,
          "durationTicks": 8,
          "midi": 54,
          "name": "F#3",
          "ticks": 11712,
          "time": 22.453978,
          "velocity": 0.9133858267716536
        },
        {
          "duration": 0.015337416666664438,
          "durationTicks": 8,
          "midi": 42,
          "name": "F#2",
          "ticks": 11712,
          "time": 22.453978,
          "velocity": 0.6535433070866141
        },
        {
          "duration": 0.015337416666664438,
          "durationTicks": 8,
          "midi": 40,
          "name": "E2",
          "ticks": 11712,
          "time": 22.453978,
          "velocity": 0.8818897637795275
        },
        {
          "duration": 0.015337416666667991,
          "durationTicks": 8,
          "midi": 42,
          "name": "F#2",
          "ticks": 11808,
          "time": 22.638026999999997,
          "velocity": 0.4251968503937008
        },
        {
          "duration": 0.015337416666664438,
          "durationTicks": 8,
          "midi": 36,
          "name": "C2",
          "ticks": 11904,
          "time": 22.822076,
          "velocity": 0.7480314960629921
        },
        {
          "duration": 0.015337416666664438,
          "durationTicks": 8,
          "midi": 42,
          "name": "F#2",
          "ticks": 11904,
          "time": 22.822076,
          "velocity": 0.6535433070866141
        },
        {
          "duration": 0.015337416666667991,
          "durationTicks": 8,
          "midi": 42,
          "name": "F#2",
          "ticks": 12000,
          "time": 23.006124999999997,
          "velocity": 0.3779527559055118
        },
        {
          "duration": 0.015337416666664438,
          "durationTicks": 8,
          "midi": 40,
          "name": "E2",
          "ticks": 12096,
          "time": 23.190174,
          "velocity": 0.9763779527559056
        },
        {
          "duration": 0.015337416666664438,
          "durationTicks": 8,
          "midi": 54,
          "name": "F#3",
          "ticks": 12096,
          "time": 23.190174,
          "velocity": 0.9133858267716536
        },
        {
          "duration": 0.015337416666664438,
          "durationTicks": 8,
          "midi": 42,
          "name": "F#2",
          "ticks": 12096,
          "time": 23.190174,
          "velocity": 0.6535433070866141
        },
        {
          "duration": 0.015337416666667991,
          "durationTicks": 8,
          "midi": 42,
          "name": "F#2",
          "ticks": 12192,
          "time": 23.374222999999997,
          "velocity": 0.5590551181102362
        },
        {
          "duration": 0.015337416666667991,
          "durationTicks": 8,
          "midi": 36,
          "name": "C2",
          "ticks": 12288,
          "time": 23.558272,
          "velocity": 0.8818897637795275
        },
        {
          "duration": 0.015337416666667991,
          "durationTicks": 8,
          "midi": 42,
          "name": "F#2",
          "ticks": 12288,
          "time": 23.558272,
          "velocity": 0.6535433070866141
        },
        {
          "duration": 0.015337416666667991,
          "durationTicks": 8,
          "midi": 42,
          "name": "F#2",
          "ticks": 12384,
          "time": 23.742321,
          "velocity": 0.48031496062992124
        },
        {
          "duration": 0.015337416666667991,
          "durationTicks": 8,
          "midi": 40,
          "name": "E2",
          "ticks": 12480,
          "time": 23.92637,
          "velocity": 0.8818897637795275
        },
        {
          "duration": 0.015337416666667991,
          "durationTicks": 8,
          "midi": 54,
          "name": "F#3",
          "ticks": 12480,
          "time": 23.92637,
          "velocity": 0.7874015748031497
        },
        {
          "duration": 0.015337416666667991,
          "durationTicks": 8,
          "midi": 42,
          "name": "F#2",
          "ticks": 12480,
          "time": 23.92637,
          "velocity": 0.7874015748031497
        },
        {
          "duration": 0.015337416666667991,
          "durationTicks": 8,
          "midi": 42,
          "name": "F#2",
          "ticks": 12576,
          "time": 24.110419,
          "velocity": 0.48031496062992124
        },
        {
          "duration": 0.015337416666667991,
          "durationTicks": 8,
          "midi": 36,
          "name": "C2",
          "ticks": 12672,
          "time": 24.294468,
          "velocity": 0.8818897637795275
        },
        {
          "duration": 0.015337416666667991,
          "durationTicks": 8,
          "midi": 42,
          "name": "F#2",
          "ticks": 12672,
          "time": 24.294468,
          "velocity": 0.6535433070866141
        },
        {
          "duration": 0.015337416666667991,
          "durationTicks": 8,
          "midi": 42,
          "name": "F#2",
          "ticks": 12768,
          "time": 24.478517,
          "velocity": 0.48031496062992124
        },
        {
          "duration": 0.015337416666667991,
          "durationTicks": 8,
          "midi": 40,
          "name": "E2",
          "ticks": 12864,
          "time": 24.662565999999998,
          "velocity": 0.7480314960629921
        },
        {
          "duration": 0.015337416666667991,
          "durationTicks": 8,
          "midi": 54,
          "name": "F#3",
          "ticks": 12864,
          "time": 24.662565999999998,
          "velocity": 0.7874015748031497
        },
        {
          "duration": 0.015337416666667991,
          "durationTicks": 8,
          "midi": 42,
          "name": "F#2",
          "ticks": 12864,
          "time": 24.662565999999998,
          "velocity": 0.7874015748031497
        },
        {
          "duration": 0.015337416666667991,
          "durationTicks": 8,
          "midi": 42,
          "name": "F#2",
          "ticks": 12960,
          "time": 24.846615,
          "velocity": 0.5590551181102362
        },
        {
          "duration": 0.015337416666667991,
          "durationTicks": 8,
          "midi": 36,
          "name": "C2",
          "ticks": 13056,
          "time": 25.030663999999998,
          "velocity": 0.8818897637795275
        },
        {
          "duration": 0.015337416666667991,
          "durationTicks": 8,
          "midi": 42,
          "name": "F#2",
          "ticks": 13056,
          "time": 25.030663999999998,
          "velocity": 0.7874015748031497
        },
        {
          "duration": 0.015337416666667991,
          "durationTicks": 8,
          "midi": 42,
          "name": "F#2",
          "ticks": 13152,
          "time": 25.214713,
          "velocity": 0.4251968503937008
        },
        {
          "duration": 0.015337416666667991,
          "durationTicks": 8,
          "midi": 54,
          "name": "F#3",
          "ticks": 13248,
          "time": 25.398761999999998,
          "velocity": 0.9133858267716536
        },
        {
          "duration": 0.015337416666667991,
          "durationTicks": 8,
          "midi": 42,
          "name": "F#2",
          "ticks": 13248,
          "time": 25.398761999999998,
          "velocity": 0.6535433070866141
        },
        {
          "duration": 0.015337416666667991,
          "durationTicks": 8,
          "midi": 40,
          "name": "E2",
          "ticks": 13248,
          "time": 25.398761999999998,
          "velocity": 0.8818897637795275
        },
        {
          "duration": 0.015337416666667991,
          "durationTicks": 8,
          "midi": 42,
          "name": "F#2",
          "ticks": 13344,
          "time": 25.582811,
          "velocity": 0.4251968503937008
        },
        {
          "duration": 0.015337416666667991,
          "durationTicks": 8,
          "midi": 42,
          "name": "F#2",
          "ticks": 13440,
          "time": 25.766859999999998,
          "velocity": 0.6535433070866141
        },
        {
          "duration": 0.015337416666667991,
          "durationTicks": 8,
          "midi": 36,
          "name": "C2",
          "ticks": 13440,
          "time": 25.766859999999998,
          "velocity": 0.6299212598425197
        },
        {
          "duration": 0.015337416666667991,
          "durationTicks": 8,
          "midi": 42,
          "name": "F#2",
          "ticks": 13536,
          "time": 25.950909,
          "velocity": 0.3779527559055118
        },
        {
          "duration": 0.015337416666667991,
          "durationTicks": 8,
          "midi": 42,
          "name": "F#2",
          "ticks": 13632,
          "time": 26.134957999999997,
          "velocity": 0.6535433070866141
        },
        {
          "duration": 0.015337416666667991,
          "durationTicks": 8,
          "midi": 40,
          "name": "E2",
          "ticks": 13632,
          "time": 26.134957999999997,
          "velocity": 0.9763779527559056
        },
        {
          "duration": 0.015337416666667991,
          "durationTicks": 8,
          "midi": 54,
          "name": "F#3",
          "ticks": 13632,
          "time": 26.134957999999997,
          "velocity": 0.7874015748031497
        },
        {
          "duration": 0.015337416666667991,
          "durationTicks": 8,
          "midi": 42,
          "name": "F#2",
          "ticks": 13728,
          "time": 26.319007,
          "velocity": 0.48031496062992124
        },
        {
          "duration": 0.015337416666667991,
          "durationTicks": 8,
          "midi": 36,
          "name": "C2",
          "ticks": 13824,
          "time": 26.503055999999997,
          "velocity": 0.7480314960629921
        },
        {
          "duration": 0.015337416666667991,
          "durationTicks": 8,
          "midi": 42,
          "name": "F#2",
          "ticks": 13824,
          "time": 26.503055999999997,
          "velocity": 0.6535433070866141
        },
        {
          "duration": 0.015337416666667991,
          "durationTicks": 8,
          "midi": 42,
          "name": "F#2",
          "ticks": 13920,
          "time": 26.687105,
          "velocity": 0.48031496062992124
        },
        {
          "duration": 0.015337416666671544,
          "durationTicks": 8,
          "midi": 42,
          "name": "F#2",
          "ticks": 14016,
          "time": 26.871153999999997,
          "velocity": 0.6535433070866141
        },
        {
          "duration": 0.015337416666671544,
          "durationTicks": 8,
          "midi": 54,
          "name": "F#3",
          "ticks": 14016,
          "time": 26.871153999999997,
          "velocity": 0.9133858267716536
        },
        {
          "duration": 0.015337416666671544,
          "durationTicks": 8,
          "midi": 40,
          "name": "E2",
          "ticks": 14016,
          "time": 26.871153999999997,
          "velocity": 0.8818897637795275
        },
        {
          "duration": 0.015337416666667991,
          "durationTicks": 8,
          "midi": 42,
          "name": "F#2",
          "ticks": 14112,
          "time": 27.055203,
          "velocity": 0.5590551181102362
        },
        {
          "duration": 0.015337416666671544,
          "durationTicks": 8,
          "midi": 36,
          "name": "C2",
          "ticks": 14208,
          "time": 27.239251999999997,
          "velocity": 0.8818897637795275
        },
        {
          "duration": 0.015337416666671544,
          "durationTicks": 8,
          "midi": 42,
          "name": "F#2",
          "ticks": 14208,
          "time": 27.239251999999997,
          "velocity": 0.6535433070866141
        },
        {
          "duration": 0.015337416666667991,
          "durationTicks": 8,
          "midi": 42,
          "name": "F#2",
          "ticks": 14304,
          "time": 27.423301,
          "velocity": 0.5590551181102362
        },
        {
          "duration": 0.015337416666667991,
          "durationTicks": 8,
          "midi": 42,
          "name": "F#2",
          "ticks": 14400,
          "time": 27.60735,
          "velocity": 0.6535433070866141
        },
        {
          "duration": 0.015337416666667991,
          "durationTicks": 8,
          "midi": 54,
          "name": "F#3",
          "ticks": 14400,
          "time": 27.60735,
          "velocity": 0.7874015748031497
        },
        {
          "duration": 0.015337416666667991,
          "durationTicks": 8,
          "midi": 40,
          "name": "E2",
          "ticks": 14400,
          "time": 27.60735,
          "velocity": 0.9763779527559056
        },
        {
          "duration": 0.015337416666667991,
          "durationTicks": 8,
          "midi": 42,
          "name": "F#2",
          "ticks": 14496,
          "time": 27.791399,
          "velocity": 0.48031496062992124
        },
        {
          "duration": 0.015337416666667991,
          "durationTicks": 8,
          "midi": 42,
          "name": "F#2",
          "ticks": 14592,
          "time": 27.975448,
          "velocity": 0.6535433070866141
        },
        {
          "duration": 0.015337416666667991,
          "durationTicks": 8,
          "midi": 36,
          "name": "C2",
          "ticks": 14592,
          "time": 27.975448,
          "velocity": 0.7480314960629921
        },
        {
          "duration": 0.015337416666667991,
          "durationTicks": 8,
          "midi": 42,
          "name": "F#2",
          "ticks": 14688,
          "time": 28.159496999999998,
          "velocity": 0.3779527559055118
        },
        {
          "duration": 0.015337416666667991,
          "durationTicks": 8,
          "midi": 54,
          "name": "F#3",
          "ticks": 14784,
          "time": 28.343546,
          "velocity": 0.9133858267716536
        },
        {
          "duration": 0.015337416666667991,
          "durationTicks": 8,
          "midi": 40,
          "name": "E2",
          "ticks": 14784,
          "time": 28.343546,
          "velocity": 0.8818897637795275
        },
        {
          "duration": 0.015337416666667991,
          "durationTicks": 8,
          "midi": 42,
          "name": "F#2",
          "ticks": 14784,
          "time": 28.343546,
          "velocity": 0.6535433070866141
        },
        {
          "duration": 0.015337416666667991,
          "durationTicks": 8,
          "midi": 42,
          "name": "F#2",
          "ticks": 14880,
          "time": 28.527594999999998,
          "velocity": 0.4251968503937008
        },
        {
          "duration": 0.015337416666667991,
          "durationTicks": 8,
          "midi": 42,
          "name": "F#2",
          "ticks": 14976,
          "time": 28.711644,
          "velocity": 0.6535433070866141
        },
        {
          "duration": 0.015337416666667991,
          "durationTicks": 8,
          "midi": 36,
          "name": "C2",
          "ticks": 14976,
          "time": 28.711644,
          "velocity": 0.7480314960629921
        },
        {
          "duration": 0.015337416666667991,
          "durationTicks": 8,
          "midi": 42,
          "name": "F#2",
          "ticks": 15072,
          "time": 28.895692999999998,
          "velocity": 0.3779527559055118
        },
        {
          "duration": 0.015337416666667991,
          "durationTicks": 8,
          "midi": 40,
          "name": "E2",
          "ticks": 15168,
          "time": 29.079742,
          "velocity": 0.9763779527559056
        },
        {
          "duration": 0.015337416666667991,
          "durationTicks": 8,
          "midi": 42,
          "name": "F#2",
          "ticks": 15168,
          "time": 29.079742,
          "velocity": 0.6535433070866141
        },
        {
          "duration": 0.015337416666667991,
          "durationTicks": 8,
          "midi": 54,
          "name": "F#3",
          "ticks": 15168,
          "time": 29.079742,
          "velocity": 0.9133858267716536
        },
        {
          "duration": 0.015337416666667991,
          "durationTicks": 8,
          "midi": 40,
          "name": "E2",
          "ticks": 15264,
          "time": 29.263790999999998,
          "velocity": 0.5039370078740157
        },
        {
          "duration": 0.015337416666667991,
          "durationTicks": 8,
          "midi": 40,
          "name": "E2",
          "ticks": 15312,
          "time": 29.3558155,
          "velocity": 0.6614173228346457
        },
        {
          "duration": 0.015337416666667991,
          "durationTicks": 8,
          "midi": 36,
          "name": "C2",
          "ticks": 15360,
          "time": 29.44784,
          "velocity": 0.9763779527559056
        },
        {
          "duration": 0.015337416666667991,
          "durationTicks": 8,
          "midi": 40,
          "name": "E2",
          "ticks": 15360,
          "time": 29.44784,
          "velocity": 0.9763779527559056
        },
        {
          "duration": 0.015337416666667991,
          "durationTicks": 8,
          "midi": 54,
          "name": "F#3",
          "ticks": 15552,
          "time": 29.815938,
          "velocity": 0.7874015748031497
        },
        {
          "duration": 0.015337416666667991,
          "durationTicks": 8,
          "midi": 54,
          "name": "F#3",
          "ticks": 15936,
          "time": 30.552134,
          "velocity": 0.7874015748031497
        },
        {
          "duration": 0.015337416666671544,
          "durationTicks": 8,
          "midi": 40,
          "name": "E2",
          "ticks": 16032,
          "time": 30.736182999999997,
          "velocity": 0.4645669291338583
        },
        {
          "duration": 0.015337416666667991,
          "durationTicks": 8,
          "midi": 54,
          "name": "F#3",
          "ticks": 16128,
          "time": 30.920232,
          "velocity": 0.48031496062992124
        },
        {
          "duration": 0.015337416666667991,
          "durationTicks": 8,
          "midi": 36,
          "name": "C2",
          "ticks": 16128,
          "time": 30.920232,
          "velocity": 0.8818897637795275
        },
        {
          "duration": 0.015337416666667991,
          "durationTicks": 8,
          "midi": 42,
          "name": "F#2",
          "ticks": 16128,
          "time": 30.920232,
          "velocity": 0.7874015748031497
        },
        {
          "duration": 0.015337416666671544,
          "durationTicks": 8,
          "midi": 54,
          "name": "F#3",
          "ticks": 16224,
          "time": 31.104280999999997,
          "velocity": 0.3779527559055118
        },
        {
          "duration": 0.015337416666671544,
          "durationTicks": 8,
          "midi": 42,
          "name": "F#2",
          "ticks": 16224,
          "time": 31.104280999999997,
          "velocity": 0.4251968503937008
        },
        {
          "duration": 0.015337416666667991,
          "durationTicks": 8,
          "midi": 42,
          "name": "F#2",
          "ticks": 16320,
          "time": 31.28833,
          "velocity": 0.6535433070866141
        },
        {
          "duration": 0.015337416666667991,
          "durationTicks": 8,
          "midi": 54,
          "name": "F#3",
          "ticks": 16320,
          "time": 31.28833,
          "velocity": 0.9133858267716536
        },
        {
          "duration": 0.015337416666667991,
          "durationTicks": 8,
          "midi": 40,
          "name": "E2",
          "ticks": 16320,
          "time": 31.28833,
          "velocity": 0.8818897637795275
        },
        {
          "duration": 0.015337416666667991,
          "durationTicks": 8,
          "midi": 39,
          "name": "D#2",
          "ticks": 16320,
          "time": 31.28833,
          "velocity": 0.8661417322834646
        },
        {
          "duration": 0.015337416666667991,
          "durationTicks": 8,
          "midi": 42,
          "name": "F#2",
          "ticks": 16416,
          "time": 31.472379,
          "velocity": 0.4251968503937008
        },
        {
          "duration": 0.015337416666667991,
          "durationTicks": 8,
          "midi": 54,
          "name": "F#3",
          "ticks": 16416,
          "time": 31.472379,
          "velocity": 0.3779527559055118
        },
        {
          "duration": 0.015337416666667991,
          "durationTicks": 8,
          "midi": 42,
          "name": "F#2",
          "ticks": 16512,
          "time": 31.656428,
          "velocity": 0.6535433070866141
        },
        {
          "duration": 0.015337416666667991,
          "durationTicks": 8,
          "midi": 54,
          "name": "F#3",
          "ticks": 16512,
          "time": 31.656428,
          "velocity": 0.3779527559055118
        },
        {
          "duration": 0.015337416666667991,
          "durationTicks": 8,
          "midi": 36,
          "name": "C2",
          "ticks": 16512,
          "time": 31.656428,
          "velocity": 0.6299212598425197
        },
        {
          "duration": 0.015337416666667991,
          "durationTicks": 8,
          "midi": 54,
          "name": "F#3",
          "ticks": 16608,
          "time": 31.840477,
          "velocity": 0.3464566929133858
        },
        {
          "duration": 0.015337416666667991,
          "durationTicks": 8,
          "midi": 42,
          "name": "F#2",
          "ticks": 16608,
          "time": 31.840477,
          "velocity": 0.3779527559055118
        },
        {
          "duration": 0.015337416666667991,
          "durationTicks": 8,
          "midi": 39,
          "name": "D#2",
          "ticks": 16704,
          "time": 32.024526,
          "velocity": 0.8661417322834646
        },
        {
          "duration": 0.015337416666667991,
          "durationTicks": 8,
          "midi": 42,
          "name": "F#2",
          "ticks": 16704,
          "time": 32.024526,
          "velocity": 0.6535433070866141
        },
        {
          "duration": 0.015337416666667991,
          "durationTicks": 8,
          "midi": 54,
          "name": "F#3",
          "ticks": 16704,
          "time": 32.024526,
          "velocity": 0.9133858267716536
        },
        {
          "duration": 0.015337416666667991,
          "durationTicks": 8,
          "midi": 40,
          "name": "E2",
          "ticks": 16704,
          "time": 32.024526,
          "velocity": 0.9763779527559056
        },
        {
          "duration": 0.015337416666667991,
          "durationTicks": 8,
          "midi": 54,
          "name": "F#3",
          "ticks": 16800,
          "time": 32.208574999999996,
          "velocity": 0.4251968503937008
        },
        {
          "duration": 0.015337416666667991,
          "durationTicks": 8,
          "midi": 42,
          "name": "F#2",
          "ticks": 16800,
          "time": 32.208574999999996,
          "velocity": 0.48031496062992124
        },
        {
          "duration": 0.015337416666667991,
          "durationTicks": 8,
          "midi": 54,
          "name": "F#3",
          "ticks": 16896,
          "time": 32.392624,
          "velocity": 0.7874015748031497
        },
        {
          "duration": 0.015337416666667991,
          "durationTicks": 8,
          "midi": 36,
          "name": "C2",
          "ticks": 16896,
          "time": 32.392624,
          "velocity": 0.7480314960629921
        },
        {
          "duration": 0.015337416666667991,
          "durationTicks": 8,
          "midi": 42,
          "name": "F#2",
          "ticks": 16896,
          "time": 32.392624,
          "velocity": 0.6535433070866141
        },
        {
          "duration": 0.015337416666667991,
          "durationTicks": 8,
          "midi": 54,
          "name": "F#3",
          "ticks": 16992,
          "time": 32.576673,
          "velocity": 0.4251968503937008
        },
        {
          "duration": 0.015337416666667991,
          "durationTicks": 8,
          "midi": 42,
          "name": "F#2",
          "ticks": 16992,
          "time": 32.576673,
          "velocity": 0.48031496062992124
        },
        {
          "duration": 0.015337416666667991,
          "durationTicks": 8,
          "midi": 42,
          "name": "F#2",
          "ticks": 17088,
          "time": 32.760722,
          "velocity": 0.6535433070866141
        },
        {
          "duration": 0.015337416666667991,
          "durationTicks": 8,
          "midi": 54,
          "name": "F#3",
          "ticks": 17088,
          "time": 32.760722,
          "velocity": 0.9133858267716536
        },
        {
          "duration": 0.015337416666667991,
          "durationTicks": 8,
          "midi": 39,
          "name": "D#2",
          "ticks": 17088,
          "time": 32.760722,
          "velocity": 0.8661417322834646
        },
        {
          "duration": 0.015337416666667991,
          "durationTicks": 8,
          "midi": 40,
          "name": "E2",
          "ticks": 17088,
          "time": 32.760722,
          "velocity": 0.8818897637795275
        },
        {
          "duration": 0.015337416666667991,
          "durationTicks": 8,
          "midi": 54,
          "name": "F#3",
          "ticks": 17184,
          "time": 32.944770999999996,
          "velocity": 0.3779527559055118
        },
        {
          "duration": 0.015337416666667991,
          "durationTicks": 8,
          "midi": 42,
          "name": "F#2",
          "ticks": 17184,
          "time": 32.944770999999996,
          "velocity": 0.5590551181102362
        },
        {
          "duration": 0.015337416666667991,
          "durationTicks": 8,
          "midi": 36,
          "name": "C2",
          "ticks": 17280,
          "time": 33.12882,
          "velocity": 0.8818897637795275
        },
        {
          "duration": 0.015337416666667991,
          "durationTicks": 8,
          "midi": 54,
          "name": "F#3",
          "ticks": 17280,
          "time": 33.12882,
          "velocity": 0.5590551181102362
        },
        {
          "duration": 0.015337416666667991,
          "durationTicks": 8,
          "midi": 42,
          "name": "F#2",
          "ticks": 17280,
          "time": 33.12882,
          "velocity": 0.6535433070866141
        },
        {
          "duration": 0.015337416666667991,
          "durationTicks": 8,
          "midi": 54,
          "name": "F#3",
          "ticks": 17376,
          "time": 33.312869,
          "velocity": 0.5590551181102362
        },
        {
          "duration": 0.015337416666667991,
          "durationTicks": 8,
          "midi": 42,
          "name": "F#2",
          "ticks": 17376,
          "time": 33.312869,
          "velocity": 0.5590551181102362
        },
        {
          "duration": 0.015337416666667991,
          "durationTicks": 8,
          "midi": 54,
          "name": "F#3",
          "ticks": 17472,
          "time": 33.496918,
          "velocity": 0.9133858267716536
        },
        {
          "duration": 0.015337416666667991,
          "durationTicks": 8,
          "midi": 40,
          "name": "E2",
          "ticks": 17472,
          "time": 33.496918,
          "velocity": 0.9763779527559056
        },
        {
          "duration": 0.015337416666667991,
          "durationTicks": 8,
          "midi": 42,
          "name": "F#2",
          "ticks": 17472,
          "time": 33.496918,
          "velocity": 0.6535433070866141
        },
        {
          "duration": 0.015337416666667991,
          "durationTicks": 8,
          "midi": 39,
          "name": "D#2",
          "ticks": 17472,
          "time": 33.496918,
          "velocity": 0.8661417322834646
        },
        {
          "duration": 0.015337416666667991,
          "durationTicks": 8,
          "midi": 54,
          "name": "F#3",
          "ticks": 17568,
          "time": 33.680966999999995,
          "velocity": 0.5590551181102362
        },
        {
          "duration": 0.015337416666667991,
          "durationTicks": 8,
          "midi": 42,
          "name": "F#2",
          "ticks": 17568,
          "time": 33.680966999999995,
          "velocity": 0.48031496062992124
        },
        {
          "duration": 0.015337416666667991,
          "durationTicks": 8,
          "midi": 54,
          "name": "F#3",
          "ticks": 17664,
          "time": 33.865016,
          "velocity": 0.48031496062992124
        },
        {
          "duration": 0.015337416666667991,
          "durationTicks": 8,
          "midi": 36,
          "name": "C2",
          "ticks": 17664,
          "time": 33.865016,
          "velocity": 0.7480314960629921
        },
        {
          "duration": 0.015337416666667991,
          "durationTicks": 8,
          "midi": 42,
          "name": "F#2",
          "ticks": 17664,
          "time": 33.865016,
          "velocity": 0.6535433070866141
        },
        {
          "duration": 0.015337416666667991,
          "durationTicks": 8,
          "midi": 54,
          "name": "F#3",
          "ticks": 17760,
          "time": 34.049065,
          "velocity": 0.6535433070866141
        },
        {
          "duration": 0.015337416666667991,
          "durationTicks": 8,
          "midi": 42,
          "name": "F#2",
          "ticks": 17760,
          "time": 34.049065,
          "velocity": 0.3779527559055118
        },
        {
          "duration": 0.015337416666667991,
          "durationTicks": 8,
          "midi": 39,
          "name": "D#2",
          "ticks": 17856,
          "time": 34.233114,
          "velocity": 0.8661417322834646
        },
        {
          "duration": 0.015337416666667991,
          "durationTicks": 8,
          "midi": 40,
          "name": "E2",
          "ticks": 17856,
          "time": 34.233114,
          "velocity": 0.8818897637795275
        },
        {
          "duration": 0.015337416666667991,
          "durationTicks": 8,
          "midi": 42,
          "name": "F#2",
          "ticks": 17856,
          "time": 34.233114,
          "velocity": 0.6535433070866141
        },
        {
          "duration": 0.015337416666667991,
          "durationTicks": 8,
          "midi": 54,
          "name": "F#3",
          "ticks": 17856,
          "time": 34.233114,
          "velocity": 0.9133858267716536
        },
        {
          "duration": 0.015337416666675097,
          "durationTicks": 8,
          "midi": 42,
          "name": "F#2",
          "ticks": 17952,
          "time": 34.417162999999995,
          "velocity": 0.4251968503937008
        },
        {
          "duration": 0.015337416666675097,
          "durationTicks": 8,
          "midi": 54,
          "name": "F#3",
          "ticks": 17952,
          "time": 34.417162999999995,
          "velocity": 0.5590551181102362
        },
        {
          "duration": 0.015337416666667991,
          "durationTicks": 8,
          "midi": 54,
          "name": "F#3",
          "ticks": 18048,
          "time": 34.601212,
          "velocity": 0.5590551181102362
        },
        {
          "duration": 0.015337416666667991,
          "durationTicks": 8,
          "midi": 36,
          "name": "C2",
          "ticks": 18048,
          "time": 34.601212,
          "velocity": 0.7480314960629921
        },
        {
          "duration": 0.015337416666667991,
          "durationTicks": 8,
          "midi": 42,
          "name": "F#2",
          "ticks": 18048,
          "time": 34.601212,
          "velocity": 0.6535433070866141
        },
        {
          "duration": 0.015337416666667991,
          "durationTicks": 8,
          "midi": 54,
          "name": "F#3",
          "ticks": 18144,
          "time": 34.785261,
          "velocity": 0.6535433070866141
        },
        {
          "duration": 0.015337416666667991,
          "durationTicks": 8,
          "midi": 42,
          "name": "F#2",
          "ticks": 18144,
          "time": 34.785261,
          "velocity": 0.3779527559055118
        },
        {
          "duration": 0.015337416666667991,
          "durationTicks": 8,
          "midi": 39,
          "name": "D#2",
          "ticks": 18240,
          "time": 34.96931,
          "velocity": 0.8661417322834646
        },
        {
          "duration": 0.015337416666667991,
          "durationTicks": 8,
          "midi": 42,
          "name": "F#2",
          "ticks": 18240,
          "time": 34.96931,
          "velocity": 0.6535433070866141
        },
        {
          "duration": 0.015337416666667991,
          "durationTicks": 8,
          "midi": 40,
          "name": "E2",
          "ticks": 18240,
          "time": 34.96931,
          "velocity": 0.9763779527559056
        },
        {
          "duration": 0.015337416666667991,
          "durationTicks": 8,
          "midi": 54,
          "name": "F#3",
          "ticks": 18240,
          "time": 34.96931,
          "velocity": 0.9133858267716536
        },
        {
          "duration": 0.015337416666675097,
          "durationTicks": 8,
          "midi": 54,
          "name": "F#3",
          "ticks": 18336,
          "time": 35.153358999999995,
          "velocity": 0.6535433070866141
        },
        {
          "duration": 0.015337416666675097,
          "durationTicks": 8,
          "midi": 42,
          "name": "F#2",
          "ticks": 18336,
          "time": 35.153358999999995,
          "velocity": 0.5590551181102362
        },
        {
          "duration": 0.015337416666667991,
          "durationTicks": 8,
          "midi": 54,
          "name": "F#3",
          "ticks": 18432,
          "time": 35.337407999999996,
          "velocity": 0.5590551181102362
        },
        {
          "duration": 0.015337416666667991,
          "durationTicks": 8,
          "midi": 36,
          "name": "C2",
          "ticks": 18432,
          "time": 35.337407999999996,
          "velocity": 0.8818897637795275
        },
        {
          "duration": 0.015337416666667991,
          "durationTicks": 8,
          "midi": 42,
          "name": "F#2",
          "ticks": 18432,
          "time": 35.337407999999996,
          "velocity": 0.6535433070866141
        },
        {
          "duration": 0.015337416666667991,
          "durationTicks": 8,
          "midi": 54,
          "name": "F#3",
          "ticks": 18528,
          "time": 35.521457,
          "velocity": 0.5590551181102362
        },
        {
          "duration": 0.015337416666667991,
          "durationTicks": 8,
          "midi": 42,
          "name": "F#2",
          "ticks": 18528,
          "time": 35.521457,
          "velocity": 0.48031496062992124
        },
        {
          "duration": 0.015337416666667991,
          "durationTicks": 8,
          "midi": 54,
          "name": "F#3",
          "ticks": 18624,
          "time": 35.705506,
          "velocity": 0.9133858267716536
        },
        {
          "duration": 0.015337416666667991,
          "durationTicks": 8,
          "midi": 39,
          "name": "D#2",
          "ticks": 18624,
          "time": 35.705506,
          "velocity": 0.8661417322834646
        },
        {
          "duration": 0.015337416666667991,
          "durationTicks": 8,
          "midi": 42,
          "name": "F#2",
          "ticks": 18624,
          "time": 35.705506,
          "velocity": 0.7874015748031497
        },
        {
          "duration": 0.015337416666667991,
          "durationTicks": 8,
          "midi": 40,
          "name": "E2",
          "ticks": 18624,
          "time": 35.705506,
          "velocity": 0.8818897637795275
        },
        {
          "duration": 0.015337416666667991,
          "durationTicks": 8,
          "midi": 54,
          "name": "F#3",
          "ticks": 18720,
          "time": 35.889555,
          "velocity": 0.5590551181102362
        },
        {
          "duration": 0.015337416666667991,
          "durationTicks": 8,
          "midi": 42,
          "name": "F#2",
          "ticks": 18720,
          "time": 35.889555,
          "velocity": 0.48031496062992124
        },
        {
          "duration": 0.015337416666667991,
          "durationTicks": 8,
          "midi": 54,
          "name": "F#3",
          "ticks": 18816,
          "time": 36.073603999999996,
          "velocity": 0.48031496062992124
        },
        {
          "duration": 0.015337416666667991,
          "durationTicks": 8,
          "midi": 36,
          "name": "C2",
          "ticks": 18816,
          "time": 36.073603999999996,
          "velocity": 0.8818897637795275
        },
        {
          "duration": 0.015337416666667991,
          "durationTicks": 8,
          "midi": 42,
          "name": "F#2",
          "ticks": 18816,
          "time": 36.073603999999996,
          "velocity": 0.6535433070866141
        },
        {
          "duration": 0.015337416666667991,
          "durationTicks": 8,
          "midi": 42,
          "name": "F#2",
          "ticks": 18912,
          "time": 36.257653,
          "velocity": 0.48031496062992124
        },
        {
          "duration": 0.015337416666667991,
          "durationTicks": 8,
          "midi": 54,
          "name": "F#3",
          "ticks": 18912,
          "time": 36.257653,
          "velocity": 0.5590551181102362
        },
        {
          "duration": 0.015337416666667991,
          "durationTicks": 8,
          "midi": 42,
          "name": "F#2",
          "ticks": 19008,
          "time": 36.441702,
          "velocity": 0.7874015748031497
        },
        {
          "duration": 0.015337416666667991,
          "durationTicks": 8,
          "midi": 39,
          "name": "D#2",
          "ticks": 19008,
          "time": 36.441702,
          "velocity": 0.8661417322834646
        },
        {
          "duration": 0.015337416666667991,
          "durationTicks": 8,
          "midi": 40,
          "name": "E2",
          "ticks": 19008,
          "time": 36.441702,
          "velocity": 0.7480314960629921
        },
        {
          "duration": 0.015337416666667991,
          "durationTicks": 8,
          "midi": 54,
          "name": "F#3",
          "ticks": 19008,
          "time": 36.441702,
          "velocity": 0.9133858267716536
        },
        {
          "duration": 0.015337416666667991,
          "durationTicks": 8,
          "midi": 42,
          "name": "F#2",
          "ticks": 19104,
          "time": 36.625751,
          "velocity": 0.5590551181102362
        },
        {
          "duration": 0.015337416666667991,
          "durationTicks": 8,
          "midi": 54,
          "name": "F#3",
          "ticks": 19104,
          "time": 36.625751,
          "velocity": 0.6535433070866141
        },
        {
          "duration": 0.015337416666667991,
          "durationTicks": 8,
          "midi": 54,
          "name": "F#3",
          "ticks": 19200,
          "time": 36.809799999999996,
          "velocity": 0.5590551181102362
        },
        {
          "duration": 0.015337416666667991,
          "durationTicks": 8,
          "midi": 42,
          "name": "F#2",
          "ticks": 19200,
          "time": 36.809799999999996,
          "velocity": 0.7874015748031497
        },
        {
          "duration": 0.015337416666667991,
          "durationTicks": 8,
          "midi": 36,
          "name": "C2",
          "ticks": 19200,
          "time": 36.809799999999996,
          "velocity": 0.8818897637795275
        },
        {
          "duration": 0.015337416666667991,
          "durationTicks": 8,
          "midi": 54,
          "name": "F#3",
          "ticks": 19296,
          "time": 36.993849,
          "velocity": 0.4251968503937008
        },
        {
          "duration": 0.015337416666667991,
          "durationTicks": 8,
          "midi": 42,
          "name": "F#2",
          "ticks": 19296,
          "time": 36.993849,
          "velocity": 0.4251968503937008
        },
        {
          "duration": 0.015337416666667991,
          "durationTicks": 8,
          "midi": 42,
          "name": "F#2",
          "ticks": 19392,
          "time": 37.177898,
          "velocity": 0.6535433070866141
        },
        {
          "duration": 0.015337416666667991,
          "durationTicks": 8,
          "midi": 54,
          "name": "F#3",
          "ticks": 19392,
          "time": 37.177898,
          "velocity": 0.9133858267716536
        },
        {
          "duration": 0.015337416666667991,
          "durationTicks": 8,
          "midi": 40,
          "name": "E2",
          "ticks": 19392,
          "time": 37.177898,
          "velocity": 0.8818897637795275
        },
        {
          "duration": 0.015337416666667991,
          "durationTicks": 8,
          "midi": 39,
          "name": "D#2",
          "ticks": 19392,
          "time": 37.177898,
          "velocity": 0.8661417322834646
        },
        {
          "duration": 0.015337416666667991,
          "durationTicks": 8,
          "midi": 42,
          "name": "F#2",
          "ticks": 19488,
          "time": 37.361947,
          "velocity": 0.4251968503937008
        },
        {
          "duration": 0.015337416666667991,
          "durationTicks": 8,
          "midi": 54,
          "name": "F#3",
          "ticks": 19488,
          "time": 37.361947,
          "velocity": 0.5590551181102362
        },
        {
          "duration": 0.015337416666667991,
          "durationTicks": 8,
          "midi": 54,
          "name": "F#3",
          "ticks": 19584,
          "time": 37.545995999999995,
          "velocity": 0.5590551181102362
        },
        {
          "duration": 0.015337416666667991,
          "durationTicks": 8,
          "midi": 42,
          "name": "F#2",
          "ticks": 19584,
          "time": 37.545995999999995,
          "velocity": 0.6535433070866141
        },
        {
          "duration": 0.015337416666667991,
          "durationTicks": 8,
          "midi": 36,
          "name": "C2",
          "ticks": 19584,
          "time": 37.545995999999995,
          "velocity": 0.6299212598425197
        },
        {
          "duration": 0.015337416666667991,
          "durationTicks": 8,
          "midi": 54,
          "name": "F#3",
          "ticks": 19680,
          "time": 37.730045,
          "velocity": 0.5590551181102362
        },
        {
          "duration": 0.015337416666667991,
          "durationTicks": 8,
          "midi": 42,
          "name": "F#2",
          "ticks": 19680,
          "time": 37.730045,
          "velocity": 0.3779527559055118
        },
        {
          "duration": 0.015337416666667991,
          "durationTicks": 8,
          "midi": 54,
          "name": "F#3",
          "ticks": 19776,
          "time": 37.914094,
          "velocity": 0.9133858267716536
        },
        {
          "duration": 0.015337416666667991,
          "durationTicks": 8,
          "midi": 39,
          "name": "D#2",
          "ticks": 19776,
          "time": 37.914094,
          "velocity": 0.8661417322834646
        },
        {
          "duration": 0.015337416666667991,
          "durationTicks": 8,
          "midi": 40,
          "name": "E2",
          "ticks": 19776,
          "time": 37.914094,
          "velocity": 0.9763779527559056
        },
        {
          "duration": 0.015337416666667991,
          "durationTicks": 8,
          "midi": 42,
          "name": "F#2",
          "ticks": 19776,
          "time": 37.914094,
          "velocity": 0.6535433070866141
        },
        {
          "duration": 0.015337416666667991,
          "durationTicks": 8,
          "midi": 54,
          "name": "F#3",
          "ticks": 19872,
          "time": 38.098143,
          "velocity": 0.5590551181102362
        },
        {
          "duration": 0.015337416666667991,
          "durationTicks": 8,
          "midi": 42,
          "name": "F#2",
          "ticks": 19872,
          "time": 38.098143,
          "velocity": 0.48031496062992124
        },
        {
          "duration": 0.015337416666667991,
          "durationTicks": 8,
          "midi": 36,
          "name": "C2",
          "ticks": 19968,
          "time": 38.282191999999995,
          "velocity": 0.7480314960629921
        },
        {
          "duration": 0.015337416666667991,
          "durationTicks": 8,
          "midi": 42,
          "name": "F#2",
          "ticks": 19968,
          "time": 38.282191999999995,
          "velocity": 0.6535433070866141
        },
        {
          "duration": 0.015337416666667991,
          "durationTicks": 8,
          "midi": 54,
          "name": "F#3",
          "ticks": 19968,
          "time": 38.282191999999995,
          "velocity": 0.5590551181102362
        },
        {
          "duration": 0.015337416666667991,
          "durationTicks": 8,
          "midi": 42,
          "name": "F#2",
          "ticks": 20064,
          "time": 38.466241,
          "velocity": 0.48031496062992124
        },
        {
          "duration": 0.015337416666667991,
          "durationTicks": 8,
          "midi": 54,
          "name": "F#3",
          "ticks": 20064,
          "time": 38.466241,
          "velocity": 0.6535433070866141
        },
        {
          "duration": 0.015337416666667991,
          "durationTicks": 8,
          "midi": 42,
          "name": "F#2",
          "ticks": 20160,
          "time": 38.65029,
          "velocity": 0.6535433070866141
        },
        {
          "duration": 0.015337416666667991,
          "durationTicks": 8,
          "midi": 39,
          "name": "D#2",
          "ticks": 20160,
          "time": 38.65029,
          "velocity": 0.8661417322834646
        },
        {
          "duration": 0.015337416666667991,
          "durationTicks": 8,
          "midi": 54,
          "name": "F#3",
          "ticks": 20160,
          "time": 38.65029,
          "velocity": 0.9133858267716536
        },
        {
          "duration": 0.015337416666667991,
          "durationTicks": 8,
          "midi": 40,
          "name": "E2",
          "ticks": 20160,
          "time": 38.65029,
          "velocity": 0.8818897637795275
        },
        {
          "duration": 0.015337416666667991,
          "durationTicks": 8,
          "midi": 42,
          "name": "F#2",
          "ticks": 20256,
          "time": 38.834339,
          "velocity": 0.5590551181102362
        },
        {
          "duration": 0.015337416666667991,
          "durationTicks": 8,
          "midi": 54,
          "name": "F#3",
          "ticks": 20256,
          "time": 38.834339,
          "velocity": 0.5590551181102362
        },
        {
          "duration": 0.015337416666675097,
          "durationTicks": 8,
          "midi": 42,
          "name": "F#2",
          "ticks": 20352,
          "time": 39.018387999999995,
          "velocity": 0.6535433070866141
        },
        {
          "duration": 0.015337416666675097,
          "durationTicks": 8,
          "midi": 36,
          "name": "C2",
          "ticks": 20352,
          "time": 39.018387999999995,
          "velocity": 0.8818897637795275
        },
        {
          "duration": 0.015337416666675097,
          "durationTicks": 8,
          "midi": 54,
          "name": "F#3",
          "ticks": 20352,
          "time": 39.018387999999995,
          "velocity": 0.6535433070866141
        },
        {
          "duration": 0.015337416666667991,
          "durationTicks": 8,
          "midi": 42,
          "name": "F#2",
          "ticks": 20448,
          "time": 39.202436999999996,
          "velocity": 0.5590551181102362
        },
        {
          "duration": 0.015337416666667991,
          "durationTicks": 8,
          "midi": 54,
          "name": "F#3",
          "ticks": 20448,
          "time": 39.202436999999996,
          "velocity": 0.6535433070866141
        },
        {
          "duration": 0.015337416666667991,
          "durationTicks": 8,
          "midi": 54,
          "name": "F#3",
          "ticks": 20544,
          "time": 39.386486,
          "velocity": 0.9133858267716536
        },
        {
          "duration": 0.015337416666667991,
          "durationTicks": 8,
          "midi": 42,
          "name": "F#2",
          "ticks": 20544,
          "time": 39.386486,
          "velocity": 0.6535433070866141
        },
        {
          "duration": 0.015337416666667991,
          "durationTicks": 8,
          "midi": 39,
          "name": "D#2",
          "ticks": 20544,
          "time": 39.386486,
          "velocity": 0.8661417322834646
        },
        {
          "duration": 0.015337416666667991,
          "durationTicks": 8,
          "midi": 40,
          "name": "E2",
          "ticks": 20544,
          "time": 39.386486,
          "velocity": 0.9763779527559056
        },
        {
          "duration": 0.015337416666667991,
          "durationTicks": 8,
          "midi": 42,
          "name": "F#2",
          "ticks": 20640,
          "time": 39.570535,
          "velocity": 0.48031496062992124
        },
        {
          "duration": 0.015337416666667991,
          "durationTicks": 8,
          "midi": 54,
          "name": "F#3",
          "ticks": 20640,
          "time": 39.570535,
          "velocity": 0.6535433070866141
        },
        {
          "duration": 0.015337416666667991,
          "durationTicks": 8,
          "midi": 36,
          "name": "C2",
          "ticks": 20736,
          "time": 39.754584,
          "velocity": 0.7480314960629921
        },
        {
          "duration": 0.015337416666667991,
          "durationTicks": 8,
          "midi": 42,
          "name": "F#2",
          "ticks": 20736,
          "time": 39.754584,
          "velocity": 0.6535433070866141
        },
        {
          "duration": 0.015337416666667991,
          "durationTicks": 8,
          "midi": 54,
          "name": "F#3",
          "ticks": 20736,
          "time": 39.754584,
          "velocity": 0.6535433070866141
        },
        {
          "duration": 0.015337416666667991,
          "durationTicks": 8,
          "midi": 54,
          "name": "F#3",
          "ticks": 20832,
          "time": 39.938632999999996,
          "velocity": 0.48031496062992124
        },
        {
          "duration": 0.015337416666667991,
          "durationTicks": 8,
          "midi": 42,
          "name": "F#2",
          "ticks": 20832,
          "time": 39.938632999999996,
          "velocity": 0.3779527559055118
        },
        {
          "duration": 0.015337416666667991,
          "durationTicks": 8,
          "midi": 54,
          "name": "F#3",
          "ticks": 20928,
          "time": 40.122682,
          "velocity": 0.9133858267716536
        },
        {
          "duration": 0.015337416666667991,
          "durationTicks": 8,
          "midi": 40,
          "name": "E2",
          "ticks": 20928,
          "time": 40.122682,
          "velocity": 0.8818897637795275
        },
        {
          "duration": 0.015337416666667991,
          "durationTicks": 8,
          "midi": 39,
          "name": "D#2",
          "ticks": 20928,
          "time": 40.122682,
          "velocity": 0.8661417322834646
        },
        {
          "duration": 0.015337416666667991,
          "durationTicks": 8,
          "midi": 42,
          "name": "F#2",
          "ticks": 20928,
          "time": 40.122682,
          "velocity": 0.6535433070866141
        },
        {
          "duration": 0.015337416666667991,
          "durationTicks": 8,
          "midi": 54,
          "name": "F#3",
          "ticks": 21024,
          "time": 40.306731,
          "velocity": 0.5590551181102362
        },
        {
          "duration": 0.015337416666667991,
          "durationTicks": 8,
          "midi": 42,
          "name": "F#2",
          "ticks": 21024,
          "time": 40.306731,
          "velocity": 0.4251968503937008
        },
        {
          "duration": 0.015337416666667991,
          "durationTicks": 8,
          "midi": 36,
          "name": "C2",
          "ticks": 21120,
          "time": 40.49078,
          "velocity": 0.7480314960629921
        },
        {
          "duration": 0.015337416666667991,
          "durationTicks": 8,
          "midi": 54,
          "name": "F#3",
          "ticks": 21120,
          "time": 40.49078,
          "velocity": 0.5590551181102362
        },
        {
          "duration": 0.015337416666667991,
          "durationTicks": 8,
          "midi": 42,
          "name": "F#2",
          "ticks": 21120,
          "time": 40.49078,
          "velocity": 0.6535433070866141
        },
        {
          "duration": 0.015337416666667991,
          "durationTicks": 8,
          "midi": 54,
          "name": "F#3",
          "ticks": 21216,
          "time": 40.674828999999995,
          "velocity": 0.5590551181102362
        },
        {
          "duration": 0.015337416666667991,
          "durationTicks": 8,
          "midi": 42,
          "name": "F#2",
          "ticks": 21216,
          "time": 40.674828999999995,
          "velocity": 0.3779527559055118
        },
        {
          "duration": 0.015337416666667991,
          "durationTicks": 8,
          "midi": 40,
          "name": "E2",
          "ticks": 21312,
          "time": 40.858878,
          "velocity": 0.9763779527559056
        },
        {
          "duration": 0.015337416666667991,
          "durationTicks": 8,
          "midi": 54,
          "name": "F#3",
          "ticks": 21312,
          "time": 40.858878,
          "velocity": 0.9133858267716536
        },
        {
          "duration": 0.015337416666667991,
          "durationTicks": 8,
          "midi": 42,
          "name": "F#2",
          "ticks": 21312,
          "time": 40.858878,
          "velocity": 0.6535433070866141
        },
        {
          "duration": 0.015337416666667991,
          "durationTicks": 8,
          "midi": 39,
          "name": "D#2",
          "ticks": 21312,
          "time": 40.858878,
          "velocity": 0.8661417322834646
        },
        {
          "duration": 0.015337416666667991,
          "durationTicks": 8,
          "midi": 54,
          "name": "F#3",
          "ticks": 21408,
          "time": 41.042927,
          "velocity": 0.6535433070866141
        },
        {
          "duration": 0.015337416666667991,
          "durationTicks": 8,
          "midi": 42,
          "name": "F#2",
          "ticks": 21408,
          "time": 41.042927,
          "velocity": 0.5590551181102362
        },
        {
          "duration": 0.015337416666667991,
          "durationTicks": 8,
          "midi": 42,
          "name": "F#2",
          "ticks": 21504,
          "time": 41.226976,
          "velocity": 0.6535433070866141
        },
        {
          "duration": 0.015337416666667991,
          "durationTicks": 8,
          "midi": 54,
          "name": "F#3",
          "ticks": 21504,
          "time": 41.226976,
          "velocity": 0.6535433070866141
        },
        {
          "duration": 0.015337416666667991,
          "durationTicks": 8,
          "midi": 36,
          "name": "C2",
          "ticks": 21504,
          "time": 41.226976,
          "velocity": 0.8818897637795275
        },
        {
          "duration": 0.015337416666667991,
          "durationTicks": 8,
          "midi": 42,
          "name": "F#2",
          "ticks": 21600,
          "time": 41.411024999999995,
          "velocity": 0.48031496062992124
        },
        {
          "duration": 0.015337416666667991,
          "durationTicks": 8,
          "midi": 54,
          "name": "F#3",
          "ticks": 21600,
          "time": 41.411024999999995,
          "velocity": 0.48031496062992124
        },
        {
          "duration": 0.015337416666667991,
          "durationTicks": 8,
          "midi": 39,
          "name": "D#2",
          "ticks": 21696,
          "time": 41.595074,
          "velocity": 0.8661417322834646
        },
        {
          "duration": 0.015337416666667991,
          "durationTicks": 8,
          "midi": 40,
          "name": "E2",
          "ticks": 21696,
          "time": 41.595074,
          "velocity": 0.8818897637795275
        },
        {
          "duration": 0.015337416666667991,
          "durationTicks": 8,
          "midi": 42,
          "name": "F#2",
          "ticks": 21696,
          "time": 41.595074,
          "velocity": 0.7874015748031497
        },
        {
          "duration": 0.015337416666667991,
          "durationTicks": 8,
          "midi": 54,
          "name": "F#3",
          "ticks": 21696,
          "time": 41.595074,
          "velocity": 0.9133858267716536
        },
        {
          "duration": 0.015337416666667991,
          "durationTicks": 8,
          "midi": 54,
          "name": "F#3",
          "ticks": 21792,
          "time": 41.779123,
          "velocity": 0.6535433070866141
        },
        {
          "duration": 0.015337416666667991,
          "durationTicks": 8,
          "midi": 42,
          "name": "F#2",
          "ticks": 21792,
          "time": 41.779123,
          "velocity": 0.48031496062992124
        },
        {
          "duration": 0.015337416666667991,
          "durationTicks": 8,
          "midi": 42,
          "name": "F#2",
          "ticks": 21888,
          "time": 41.963172,
          "velocity": 0.6535433070866141
        },
        {
          "duration": 0.015337416666667991,
          "durationTicks": 8,
          "midi": 36,
          "name": "C2",
          "ticks": 21888,
          "time": 41.963172,
          "velocity": 0.8818897637795275
        },
        {
          "duration": 0.015337416666667991,
          "durationTicks": 8,
          "midi": 54,
          "name": "F#3",
          "ticks": 21888,
          "time": 41.963172,
          "velocity": 0.6535433070866141
        },
        {
          "duration": 0.015337416666667991,
          "durationTicks": 8,
          "midi": 42,
          "name": "F#2",
          "ticks": 21984,
          "time": 42.147220999999995,
          "velocity": 0.48031496062992124
        },
        {
          "duration": 0.015337416666667991,
          "durationTicks": 8,
          "midi": 54,
          "name": "F#3",
          "ticks": 21984,
          "time": 42.147220999999995,
          "velocity": 0.48031496062992124
        },
        {
          "duration": 0.015337416666667991,
          "durationTicks": 8,
          "midi": 39,
          "name": "D#2",
          "ticks": 22080,
          "time": 42.331269999999996,
          "velocity": 0.8661417322834646
        },
        {
          "duration": 0.015337416666667991,
          "durationTicks": 8,
          "midi": 54,
          "name": "F#3",
          "ticks": 22080,
          "time": 42.331269999999996,
          "velocity": 0.9133858267716536
        },
        {
          "duration": 0.015337416666667991,
          "durationTicks": 8,
          "midi": 40,
          "name": "E2",
          "ticks": 22080,
          "time": 42.331269999999996,
          "velocity": 0.7480314960629921
        },
        {
          "duration": 0.015337416666667991,
          "durationTicks": 8,
          "midi": 42,
          "name": "F#2",
          "ticks": 22080,
          "time": 42.331269999999996,
          "velocity": 0.7874015748031497
        },
        {
          "duration": 0.015337416666667991,
          "durationTicks": 8,
          "midi": 42,
          "name": "F#2",
          "ticks": 22176,
          "time": 42.515319,
          "velocity": 0.5590551181102362
        },
        {
          "duration": 0.015337416666667991,
          "durationTicks": 8,
          "midi": 54,
          "name": "F#3",
          "ticks": 22176,
          "time": 42.515319,
          "velocity": 0.6535433070866141
        },
        {
          "duration": 0.015337416666667991,
          "durationTicks": 8,
          "midi": 36,
          "name": "C2",
          "ticks": 22272,
          "time": 42.699368,
          "velocity": 0.8818897637795275
        },
        {
          "duration": 0.015337416666667991,
          "durationTicks": 8,
          "midi": 40,
          "name": "E2",
          "ticks": 22272,
          "time": 42.699368,
          "velocity": 0.8818897637795275
        },
        {
          "duration": 0.015337416666667991,
          "durationTicks": 8,
          "midi": 54,
          "name": "F#3",
          "ticks": 22272,
          "time": 42.699368,
          "velocity": 0.48031496062992124
        },
        {
          "duration": 0.015337416666675097,
          "durationTicks": 8,
          "midi": 54,
          "name": "F#3",
          "ticks": 22368,
          "time": 42.883416999999994,
          "velocity": 0.3779527559055118
        },
        {
          "duration": 0.015337416666667991,
          "durationTicks": 8,
          "midi": 54,
          "name": "F#3",
          "ticks": 22464,
          "time": 43.067465999999996,
          "velocity": 0.9133858267716536
        },
        {
          "duration": 0.015337416666667991,
          "durationTicks": 8,
          "midi": 54,
          "name": "F#3",
          "ticks": 22560,
          "time": 43.251515,
          "velocity": 0.3779527559055118
        },
        {
          "duration": 0.015337416666667991,
          "durationTicks": 8,
          "midi": 54,
          "name": "F#3",
          "ticks": 22656,
          "time": 43.435564,
          "velocity": 0.3779527559055118
        },
        {
          "duration": 0.015337416666667991,
          "durationTicks": 8,
          "midi": 54,
          "name": "F#3",
          "ticks": 22752,
          "time": 43.619613,
          "velocity": 0.3464566929133858
        },
        {
          "duration": 0.015337416666667991,
          "durationTicks": 8,
          "midi": 54,
          "name": "F#3",
          "ticks": 22848,
          "time": 43.803661999999996,
          "velocity": 0.9133858267716536
        },
        {
          "duration": 0.015337416666667991,
          "durationTicks": 8,
          "midi": 42,
          "name": "F#2",
          "ticks": 22848,
          "time": 43.803661999999996,
          "velocity": 0.9133858267716536
        },
        {
          "duration": 0.015337416666667991,
          "durationTicks": 8,
          "midi": 39,
          "name": "D#2",
          "ticks": 22848,
          "time": 43.803661999999996,
          "velocity": 0.8661417322834646
        },
        {
          "duration": 0.015337416666667991,
          "durationTicks": 8,
          "midi": 54,
          "name": "F#3",
          "ticks": 22944,
          "time": 43.987711,
          "velocity": 0.4251968503937008
        },
        {
          "duration": 0.015337416666667991,
          "durationTicks": 8,
          "midi": 54,
          "name": "F#3",
          "ticks": 23040,
          "time": 44.17176,
          "velocity": 0.7874015748031497
        },
        {
          "duration": 0.015337416666667991,
          "durationTicks": 8,
          "midi": 54,
          "name": "F#3",
          "ticks": 23136,
          "time": 44.355809,
          "velocity": 0.4251968503937008
        },
        {
          "duration": 0.015337416666667991,
          "durationTicks": 8,
          "midi": 42,
          "name": "F#2",
          "ticks": 23232,
          "time": 44.539857999999995,
          "velocity": 0.9133858267716536
        },
        {
          "duration": 0.015337416666667991,
          "durationTicks": 8,
          "midi": 54,
          "name": "F#3",
          "ticks": 23232,
          "time": 44.539857999999995,
          "velocity": 0.9133858267716536
        },
        {
          "duration": 0.015337416666667991,
          "durationTicks": 8,
          "midi": 54,
          "name": "F#3",
          "ticks": 23328,
          "time": 44.723907,
          "velocity": 0.3779527559055118
        },
        {
          "duration": 0.015337416666667991,
          "durationTicks": 8,
          "midi": 54,
          "name": "F#3",
          "ticks": 23424,
          "time": 44.907956,
          "velocity": 0.5590551181102362
        },
        {
          "duration": 0.015337416666667991,
          "durationTicks": 8,
          "midi": 54,
          "name": "F#3",
          "ticks": 23520,
          "time": 45.092005,
          "velocity": 0.5590551181102362
        },
        {
          "duration": 0.015337416666667991,
          "durationTicks": 8,
          "midi": 54,
          "name": "F#3",
          "ticks": 23616,
          "time": 45.276053999999995,
          "velocity": 0.9133858267716536
        },
        {
          "duration": 0.015337416666667991,
          "durationTicks": 8,
          "midi": 42,
          "name": "F#2",
          "ticks": 23616,
          "time": 45.276053999999995,
          "velocity": 0.7874015748031497
        },
        {
          "duration": 0.015337416666667991,
          "durationTicks": 8,
          "midi": 39,
          "name": "D#2",
          "ticks": 23616,
          "time": 45.276053999999995,
          "velocity": 0.8661417322834646
        },
        {
          "duration": 0.015337416666667991,
          "durationTicks": 8,
          "midi": 54,
          "name": "F#3",
          "ticks": 23712,
          "time": 45.460103,
          "velocity": 0.5590551181102362
        },
        {
          "duration": 0.015337416666667991,
          "durationTicks": 8,
          "midi": 54,
          "name": "F#3",
          "ticks": 23808,
          "time": 45.644152,
          "velocity": 0.48031496062992124
        },
        {
          "duration": 0.015337416666667991,
          "durationTicks": 8,
          "midi": 54,
          "name": "F#3",
          "ticks": 23904,
          "time": 45.828201,
          "velocity": 0.6535433070866141
        },
        {
          "duration": 0.015337416666667991,
          "durationTicks": 8,
          "midi": 42,
          "name": "F#2",
          "ticks": 24000,
          "time": 46.012249999999995,
          "velocity": 0.9133858267716536
        },
        {
          "duration": 0.015337416666667991,
          "durationTicks": 8,
          "midi": 54,
          "name": "F#3",
          "ticks": 24000,
          "time": 46.012249999999995,
          "velocity": 0.9133858267716536
        },
        {
          "duration": 0.015337416666667991,
          "durationTicks": 8,
          "midi": 54,
          "name": "F#3",
          "ticks": 24096,
          "time": 46.196298999999996,
          "velocity": 0.5590551181102362
        },
        {
          "duration": 0.015337416666667991,
          "durationTicks": 8,
          "midi": 54,
          "name": "F#3",
          "ticks": 24192,
          "time": 46.380348,
          "velocity": 0.5590551181102362
        },
        {
          "duration": 0.015337416666667991,
          "durationTicks": 8,
          "midi": 54,
          "name": "F#3",
          "ticks": 24288,
          "time": 46.564397,
          "velocity": 0.6535433070866141
        },
        {
          "duration": 0.015337416666675097,
          "durationTicks": 8,
          "midi": 54,
          "name": "F#3",
          "ticks": 24384,
          "time": 46.748445999999994,
          "velocity": 0.9133858267716536
        },
        {
          "duration": 0.015337416666675097,
          "durationTicks": 8,
          "midi": 39,
          "name": "D#2",
          "ticks": 24384,
          "time": 46.748445999999994,
          "velocity": 0.8661417322834646
        },
        {
          "duration": 0.015337416666675097,
          "durationTicks": 8,
          "midi": 42,
          "name": "F#2",
          "ticks": 24384,
          "time": 46.748445999999994,
          "velocity": 0.9133858267716536
        },
        {
          "duration": 0.015337416666667991,
          "durationTicks": 8,
          "midi": 54,
          "name": "F#3",
          "ticks": 24480,
          "time": 46.932494999999996,
          "velocity": 0.6535433070866141
        },
        {
          "duration": 0.015337416666660886,
          "durationTicks": 8,
          "midi": 54,
          "name": "F#3",
          "ticks": 24576,
          "time": 47.116544,
          "velocity": 0.5590551181102362
        },
        {
          "duration": 0.015337416666660886,
          "durationTicks": 8,
          "midi": 54,
          "name": "F#3",
          "ticks": 24672,
          "time": 47.300593,
          "velocity": 0.5590551181102362
        },
        {
          "duration": 0.015337416666660886,
          "durationTicks": 8,
          "midi": 54,
          "name": "F#3",
          "ticks": 24768,
          "time": 47.484642,
          "velocity": 0.9133858267716536
        },
        {
          "duration": 0.015337416666660886,
          "durationTicks": 8,
          "midi": 42,
          "name": "F#2",
          "ticks": 24768,
          "time": 47.484642,
          "velocity": 0.7874015748031497
        },
        {
          "duration": 0.015337416666667991,
          "durationTicks": 8,
          "midi": 54,
          "name": "F#3",
          "ticks": 24864,
          "time": 47.668690999999995,
          "velocity": 0.5590551181102362
        },
        {
          "duration": 0.015337416666660886,
          "durationTicks": 8,
          "midi": 54,
          "name": "F#3",
          "ticks": 24960,
          "time": 47.85274,
          "velocity": 0.48031496062992124
        },
        {
          "duration": 0.015337416666660886,
          "durationTicks": 8,
          "midi": 54,
          "name": "F#3",
          "ticks": 25056,
          "time": 48.036789,
          "velocity": 0.5590551181102362
        },
        {
          "duration": 0.015337416666660886,
          "durationTicks": 8,
          "midi": 39,
          "name": "D#2",
          "ticks": 25152,
          "time": 48.220838,
          "velocity": 0.8661417322834646
        },
        {
          "duration": 0.015337416666660886,
          "durationTicks": 8,
          "midi": 42,
          "name": "F#2",
          "ticks": 25152,
          "time": 48.220838,
          "velocity": 0.7874015748031497
        },
        {
          "duration": 0.015337416666660886,
          "durationTicks": 8,
          "midi": 54,
          "name": "F#3",
          "ticks": 25152,
          "time": 48.220838,
          "velocity": 0.9133858267716536
        },
        {
          "duration": 0.015337416666667991,
          "durationTicks": 8,
          "midi": 54,
          "name": "F#3",
          "ticks": 25248,
          "time": 48.404886999999995,
          "velocity": 0.6535433070866141
        },
        {
          "duration": 0.015337416666660886,
          "durationTicks": 8,
          "midi": 36,
          "name": "C2",
          "ticks": 25344,
          "time": 48.588936,
          "velocity": 0.9763779527559056
        },
        {
          "duration": 0.015337416666660886,
          "durationTicks": 8,
          "midi": 40,
          "name": "E2",
          "ticks": 25344,
          "time": 48.588936,
          "velocity": 0.8818897637795275
        },
        {
          "duration": 0.015337416666660886,
          "durationTicks": 8,
          "midi": 54,
          "name": "F#3",
          "ticks": 25344,
          "time": 48.588936,
          "velocity": 0.5590551181102362
        },
        {
          "duration": 0.015337416666660886,
          "durationTicks": 8,
          "midi": 54,
          "name": "F#3",
          "ticks": 25440,
          "time": 48.772985,
          "velocity": 0.4251968503937008
        },
        {
          "duration": 0.015337416666660886,
          "durationTicks": 8,
          "midi": 42,
          "name": "F#2",
          "ticks": 25536,
          "time": 48.957034,
          "velocity": 0.9133858267716536
        },
        {
          "duration": 0.015337416666660886,
          "durationTicks": 8,
          "midi": 39,
          "name": "D#2",
          "ticks": 25536,
          "time": 48.957034,
          "velocity": 0.8661417322834646
        },
        {
          "duration": 0.015337416666660886,
          "durationTicks": 8,
          "midi": 54,
          "name": "F#3",
          "ticks": 25536,
          "time": 48.957034,
          "velocity": 0.9133858267716536
        },
        {
          "duration": 0.015337416666667991,
          "durationTicks": 8,
          "midi": 54,
          "name": "F#3",
          "ticks": 25632,
          "time": 49.141082999999995,
          "velocity": 0.5590551181102362
        },
        {
          "duration": 0.015337416666660886,
          "durationTicks": 8,
          "midi": 54,
          "name": "F#3",
          "ticks": 25728,
          "time": 49.325131999999996,
          "velocity": 0.5590551181102362
        },
        {
          "duration": 0.015337416666660886,
          "durationTicks": 8,
          "midi": 54,
          "name": "F#3",
          "ticks": 25824,
          "time": 49.509181,
          "velocity": 0.5590551181102362
        },
        {
          "duration": 0.015337416666660886,
          "durationTicks": 8,
          "midi": 39,
          "name": "D#2",
          "ticks": 25920,
          "time": 49.69323,
          "velocity": 0.8661417322834646
        },
        {
          "duration": 0.015337416666660886,
          "durationTicks": 8,
          "midi": 42,
          "name": "F#2",
          "ticks": 25920,
          "time": 49.69323,
          "velocity": 0.7874015748031497
        },
        {
          "duration": 0.015337416666660886,
          "durationTicks": 8,
          "midi": 54,
          "name": "F#3",
          "ticks": 25920,
          "time": 49.69323,
          "velocity": 0.9133858267716536
        },
        {
          "duration": 0.015337416666667991,
          "durationTicks": 8,
          "midi": 54,
          "name": "F#3",
          "ticks": 26016,
          "time": 49.877278999999994,
          "velocity": 0.5590551181102362
        },
        {
          "duration": 0.015337416666667991,
          "durationTicks": 8,
          "midi": 54,
          "name": "F#3",
          "ticks": 26112,
          "time": 50.061327999999996,
          "velocity": 0.5590551181102362
        },
        {
          "duration": 0.015337416666660886,
          "durationTicks": 8,
          "midi": 54,
          "name": "F#3",
          "ticks": 26208,
          "time": 50.245377,
          "velocity": 0.6535433070866141
        },
        {
          "duration": 0.015337416666660886,
          "durationTicks": 8,
          "midi": 54,
          "name": "F#3",
          "ticks": 26304,
          "time": 50.429426,
          "velocity": 0.9133858267716536
        },
        {
          "duration": 0.015337416666660886,
          "durationTicks": 8,
          "midi": 39,
          "name": "D#2",
          "ticks": 26304,
          "time": 50.429426,
          "velocity": 0.8661417322834646
        },
        {
          "duration": 0.015337416666660886,
          "durationTicks": 8,
          "midi": 42,
          "name": "F#2",
          "ticks": 26304,
          "time": 50.429426,
          "velocity": 0.7874015748031497
        },
        {
          "duration": 0.015337416666667991,
          "durationTicks": 8,
          "midi": 54,
          "name": "F#3",
          "ticks": 26400,
          "time": 50.613474999999994,
          "velocity": 0.5590551181102362
        },
        {
          "duration": 0.015337416666667991,
          "durationTicks": 8,
          "midi": 54,
          "name": "F#3",
          "ticks": 26496,
          "time": 50.797523999999996,
          "velocity": 0.6535433070866141
        },
        {
          "duration": 0.015337416666660886,
          "durationTicks": 8,
          "midi": 40,
          "name": "E2",
          "ticks": 26592,
          "time": 50.981573,
          "velocity": 0.6299212598425197
        },
        {
          "duration": 0.015337416666660886,
          "durationTicks": 8,
          "midi": 54,
          "name": "F#3",
          "ticks": 26592,
          "time": 50.981573,
          "velocity": 0.6535433070866141
        },
        {
          "duration": 0.015337416666660886,
          "durationTicks": 8,
          "midi": 40,
          "name": "E2",
          "ticks": 26688,
          "time": 51.165622,
          "velocity": 0.8818897637795275
        },
        {
          "duration": 0.015337416666660886,
          "durationTicks": 8,
          "midi": 39,
          "name": "D#2",
          "ticks": 26688,
          "time": 51.165622,
          "velocity": 0.8661417322834646
        },
        {
          "duration": 0.015337416666660886,
          "durationTicks": 8,
          "midi": 54,
          "name": "F#3",
          "ticks": 26688,
          "time": 51.165622,
          "velocity": 0.9133858267716536
        },
        {
          "duration": 0.015337416666660886,
          "durationTicks": 8,
          "midi": 54,
          "name": "F#3",
          "ticks": 26784,
          "time": 51.349671,
          "velocity": 0.6535433070866141
        },
        {
          "duration": 0.015337416666667991,
          "durationTicks": 8,
          "midi": 42,
          "name": "F#2",
          "ticks": 26880,
          "time": 51.533719999999995,
          "velocity": 0.7874015748031497
        },
        {
          "duration": 0.015337416666667991,
          "durationTicks": 8,
          "midi": 36,
          "name": "C2",
          "ticks": 26880,
          "time": 51.533719999999995,
          "velocity": 0.8818897637795275
        },
        {
          "duration": 0.015337416666660886,
          "durationTicks": 8,
          "midi": 42,
          "name": "F#2",
          "ticks": 26976,
          "time": 51.717769,
          "velocity": 0.4251968503937008
        },
        {
          "duration": 0.015337416666660886,
          "durationTicks": 8,
          "midi": 54,
          "name": "F#3",
          "ticks": 27072,
          "time": 51.901818,
          "velocity": 0.9133858267716536
        },
        {
          "duration": 0.015337416666660886,
          "durationTicks": 8,
          "midi": 40,
          "name": "E2",
          "ticks": 27072,
          "time": 51.901818,
          "velocity": 0.8818897637795275
        },
        {
          "duration": 0.015337416666660886,
          "durationTicks": 8,
          "midi": 42,
          "name": "F#2",
          "ticks": 27072,
          "time": 51.901818,
          "velocity": 0.6535433070866141
        },
        {
          "duration": 0.015337416666660886,
          "durationTicks": 8,
          "midi": 42,
          "name": "F#2",
          "ticks": 27168,
          "time": 52.085867,
          "velocity": 0.4251968503937008
        },
        {
          "duration": 0.015337416666667991,
          "durationTicks": 8,
          "midi": 42,
          "name": "F#2",
          "ticks": 27264,
          "time": 52.269915999999995,
          "velocity": 0.6535433070866141
        },
        {
          "duration": 0.015337416666667991,
          "durationTicks": 8,
          "midi": 36,
          "name": "C2",
          "ticks": 27264,
          "time": 52.269915999999995,
          "velocity": 0.6299212598425197
        },
        {
          "duration": 0.015337416666660886,
          "durationTicks": 8,
          "midi": 42,
          "name": "F#2",
          "ticks": 27360,
          "time": 52.453965,
          "velocity": 0.3779527559055118
        },
        {
          "duration": 0.015337416666660886,
          "durationTicks": 8,
          "midi": 54,
          "name": "F#3",
          "ticks": 27456,
          "time": 52.638014,
          "velocity": 0.7874015748031497
        },
        {
          "duration": 0.015337416666660886,
          "durationTicks": 8,
          "midi": 42,
          "name": "F#2",
          "ticks": 27456,
          "time": 52.638014,
          "velocity": 0.6535433070866141
        },
        {
          "duration": 0.015337416666660886,
          "durationTicks": 8,
          "midi": 40,
          "name": "E2",
          "ticks": 27456,
          "time": 52.638014,
          "velocity": 0.9763779527559056
        },
        {
          "duration": 0.015337416666660886,
          "durationTicks": 8,
          "midi": 42,
          "name": "F#2",
          "ticks": 27552,
          "time": 52.822063,
          "velocity": 0.48031496062992124
        },
        {
          "duration": 0.015337416666667991,
          "durationTicks": 8,
          "midi": 42,
          "name": "F#2",
          "ticks": 27648,
          "time": 53.006111999999995,
          "velocity": 0.6535433070866141
        },
        {
          "duration": 0.015337416666667991,
          "durationTicks": 8,
          "midi": 36,
          "name": "C2",
          "ticks": 27648,
          "time": 53.006111999999995,
          "velocity": 0.7480314960629921
        },
        {
          "duration": 0.015337416666660886,
          "durationTicks": 8,
          "midi": 42,
          "name": "F#2",
          "ticks": 27744,
          "time": 53.190160999999996,
          "velocity": 0.48031496062992124
        },
        {
          "duration": 0.015337416666660886,
          "durationTicks": 8,
          "midi": 42,
          "name": "F#2",
          "ticks": 27840,
          "time": 53.37421,
          "velocity": 0.6535433070866141
        },
        {
          "duration": 0.015337416666660886,
          "durationTicks": 8,
          "midi": 54,
          "name": "F#3",
          "ticks": 27840,
          "time": 53.37421,
          "velocity": 0.9133858267716536
        },
        {
          "duration": 0.015337416666660886,
          "durationTicks": 8,
          "midi": 40,
          "name": "E2",
          "ticks": 27840,
          "time": 53.37421,
          "velocity": 0.8818897637795275
        },
        {
          "duration": 0.015337416666660886,
          "durationTicks": 8,
          "midi": 42,
          "name": "F#2",
          "ticks": 27936,
          "time": 53.558259,
          "velocity": 0.5590551181102362
        },
        {
          "duration": 0.015337416666667991,
          "durationTicks": 8,
          "midi": 42,
          "name": "F#2",
          "ticks": 28032,
          "time": 53.742307999999994,
          "velocity": 0.6535433070866141
        },
        {
          "duration": 0.015337416666667991,
          "durationTicks": 8,
          "midi": 36,
          "name": "C2",
          "ticks": 28032,
          "time": 53.742307999999994,
          "velocity": 0.8818897637795275
        },
        {
          "duration": 0.015337416666667991,
          "durationTicks": 8,
          "midi": 42,
          "name": "F#2",
          "ticks": 28128,
          "time": 53.926356999999996,
          "velocity": 0.5590551181102362
        },
        {
          "duration": 0.015337416666660886,
          "durationTicks": 8,
          "midi": 54,
          "name": "F#3",
          "ticks": 28224,
          "time": 54.110406,
          "velocity": 0.7874015748031497
        },
        {
          "duration": 0.015337416666660886,
          "durationTicks": 8,
          "midi": 40,
          "name": "E2",
          "ticks": 28224,
          "time": 54.110406,
          "velocity": 0.9763779527559056
        },
        {
          "duration": 0.015337416666660886,
          "durationTicks": 8,
          "midi": 42,
          "name": "F#2",
          "ticks": 28224,
          "time": 54.110406,
          "velocity": 0.6535433070866141
        },
        {
          "duration": 0.015337416666660886,
          "durationTicks": 8,
          "midi": 42,
          "name": "F#2",
          "ticks": 28320,
          "time": 54.294455,
          "velocity": 0.48031496062992124
        },
        {
          "duration": 0.015337416666667991,
          "durationTicks": 8,
          "midi": 36,
          "name": "C2",
          "ticks": 28416,
          "time": 54.478503999999994,
          "velocity": 0.7480314960629921
        },
        {
          "duration": 0.015337416666667991,
          "durationTicks": 8,
          "midi": 42,
          "name": "F#2",
          "ticks": 28416,
          "time": 54.478503999999994,
          "velocity": 0.6535433070866141
        },
        {
          "duration": 0.015337416666667991,
          "durationTicks": 8,
          "midi": 42,
          "name": "F#2",
          "ticks": 28512,
          "time": 54.662552999999996,
          "velocity": 0.3779527559055118
        },
        {
          "duration": 0.015337416666660886,
          "durationTicks": 8,
          "midi": 54,
          "name": "F#3",
          "ticks": 28608,
          "time": 54.846602,
          "velocity": 0.9133858267716536
        },
        {
          "duration": 0.015337416666660886,
          "durationTicks": 8,
          "midi": 42,
          "name": "F#2",
          "ticks": 28608,
          "time": 54.846602,
          "velocity": 0.6535433070866141
        },
        {
          "duration": 0.015337416666660886,
          "durationTicks": 8,
          "midi": 40,
          "name": "E2",
          "ticks": 28608,
          "time": 54.846602,
          "velocity": 0.8818897637795275
        },
        {
          "duration": 0.015337416666660886,
          "durationTicks": 8,
          "midi": 42,
          "name": "F#2",
          "ticks": 28704,
          "time": 55.030651,
          "velocity": 0.4251968503937008
        },
        {
          "duration": 0.015337416666660886,
          "durationTicks": 8,
          "midi": 36,
          "name": "C2",
          "ticks": 28800,
          "time": 55.2147,
          "velocity": 0.7480314960629921
        },
        {
          "duration": 0.015337416666660886,
          "durationTicks": 8,
          "midi": 42,
          "name": "F#2",
          "ticks": 28800,
          "time": 55.2147,
          "velocity": 0.6535433070866141
        },
        {
          "duration": 0.015337416666667991,
          "durationTicks": 8,
          "midi": 42,
          "name": "F#2",
          "ticks": 28896,
          "time": 55.398748999999995,
          "velocity": 0.3779527559055118
        },
        {
          "duration": 0.015337416666660886,
          "durationTicks": 8,
          "midi": 42,
          "name": "F#2",
          "ticks": 28992,
          "time": 55.582798,
          "velocity": 0.6535433070866141
        },
        {
          "duration": 0.015337416666660886,
          "durationTicks": 8,
          "midi": 40,
          "name": "E2",
          "ticks": 28992,
          "time": 55.582798,
          "velocity": 0.9763779527559056
        },
        {
          "duration": 0.015337416666660886,
          "durationTicks": 8,
          "midi": 54,
          "name": "F#3",
          "ticks": 28992,
          "time": 55.582798,
          "velocity": 0.9133858267716536
        },
        {
          "duration": 0.015337416666660886,
          "durationTicks": 8,
          "midi": 42,
          "name": "F#2",
          "ticks": 29088,
          "time": 55.766847,
          "velocity": 0.5590551181102362
        },
        {
          "duration": 0.015337416666660886,
          "durationTicks": 8,
          "midi": 36,
          "name": "C2",
          "ticks": 29184,
          "time": 55.950896,
          "velocity": 0.8818897637795275
        },
        {
          "duration": 0.015337416666660886,
          "durationTicks": 8,
          "midi": 42,
          "name": "F#2",
          "ticks": 29184,
          "time": 55.950896,
          "velocity": 0.6535433070866141
        },
        {
          "duration": 0.015337416666667991,
          "durationTicks": 8,
          "midi": 42,
          "name": "F#2",
          "ticks": 29280,
          "time": 56.134944999999995,
          "velocity": 0.48031496062992124
        },
        {
          "duration": 0.015337416666660886,
          "durationTicks": 8,
          "midi": 42,
          "name": "F#2",
          "ticks": 29376,
          "time": 56.318993999999996,
          "velocity": 0.7874015748031497
        },
        {
          "duration": 0.015337416666660886,
          "durationTicks": 8,
          "midi": 54,
          "name": "F#3",
          "ticks": 29376,
          "time": 56.318993999999996,
          "velocity": 0.7874015748031497
        },
        {
          "duration": 0.015337416666660886,
          "durationTicks": 8,
          "midi": 40,
          "name": "E2",
          "ticks": 29376,
          "time": 56.318993999999996,
          "velocity": 0.8818897637795275
        },
        {
          "duration": 0.015337416666660886,
          "durationTicks": 8,
          "midi": 42,
          "name": "F#2",
          "ticks": 29472,
          "time": 56.503043,
          "velocity": 0.48031496062992124
        },
        {
          "duration": 0.015337416666660886,
          "durationTicks": 8,
          "midi": 42,
          "name": "F#2",
          "ticks": 29568,
          "time": 56.687092,
          "velocity": 0.6535433070866141
        },
        {
          "duration": 0.015337416666660886,
          "durationTicks": 8,
          "midi": 36,
          "name": "C2",
          "ticks": 29568,
          "time": 56.687092,
          "velocity": 0.8818897637795275
        },
        {
          "duration": 0.015337416666667991,
          "durationTicks": 8,
          "midi": 42,
          "name": "F#2",
          "ticks": 29664,
          "time": 56.871140999999994,
          "velocity": 0.48031496062992124
        },
        {
          "duration": 0.015337416666660886,
          "durationTicks": 8,
          "midi": 42,
          "name": "F#2",
          "ticks": 29760,
          "time": 57.055189999999996,
          "velocity": 0.7874015748031497
        },
        {
          "duration": 0.015337416666660886,
          "durationTicks": 8,
          "midi": 54,
          "name": "F#3",
          "ticks": 29760,
          "time": 57.055189999999996,
          "velocity": 0.7874015748031497
        },
        {
          "duration": 0.015337416666660886,
          "durationTicks": 8,
          "midi": 40,
          "name": "E2",
          "ticks": 29760,
          "time": 57.055189999999996,
          "velocity": 0.7480314960629921
        },
        {
          "duration": 0.015337416666660886,
          "durationTicks": 8,
          "midi": 42,
          "name": "F#2",
          "ticks": 29856,
          "time": 57.239239,
          "velocity": 0.5590551181102362
        },
        {
          "duration": 0.015337416666660886,
          "durationTicks": 8,
          "midi": 42,
          "name": "F#2",
          "ticks": 29952,
          "time": 57.423288,
          "velocity": 0.7874015748031497
        },
        {
          "duration": 0.015337416666660886,
          "durationTicks": 8,
          "midi": 36,
          "name": "C2",
          "ticks": 29952,
          "time": 57.423288,
          "velocity": 0.8818897637795275
        },
        {
          "duration": 0.015337416666667991,
          "durationTicks": 8,
          "midi": 42,
          "name": "F#2",
          "ticks": 30048,
          "time": 57.607336999999994,
          "velocity": 0.4251968503937008
        },
        {
          "duration": 0.015337416666667991,
          "durationTicks": 8,
          "midi": 54,
          "name": "F#3",
          "ticks": 30144,
          "time": 57.791385999999996,
          "velocity": 0.9133858267716536
        },
        {
          "duration": 0.015337416666667991,
          "durationTicks": 8,
          "midi": 40,
          "name": "E2",
          "ticks": 30144,
          "time": 57.791385999999996,
          "velocity": 0.8818897637795275
        },
        {
          "duration": 0.015337416666667991,
          "durationTicks": 8,
          "midi": 42,
          "name": "F#2",
          "ticks": 30144,
          "time": 57.791385999999996,
          "velocity": 0.6535433070866141
        },
        {
          "duration": 0.015337416666660886,
          "durationTicks": 8,
          "midi": 42,
          "name": "F#2",
          "ticks": 30240,
          "time": 57.975435,
          "velocity": 0.4251968503937008
        },
        {
          "duration": 0.015337416666660886,
          "durationTicks": 8,
          "midi": 42,
          "name": "F#2",
          "ticks": 30336,
          "time": 58.159484,
          "velocity": 0.6535433070866141
        },
        {
          "duration": 0.015337416666660886,
          "durationTicks": 8,
          "midi": 36,
          "name": "C2",
          "ticks": 30336,
          "time": 58.159484,
          "velocity": 0.6299212598425197
        },
        {
          "duration": 0.015337416666667991,
          "durationTicks": 8,
          "midi": 42,
          "name": "F#2",
          "ticks": 30432,
          "time": 58.343532999999994,
          "velocity": 0.3779527559055118
        },
        {
          "duration": 0.015337416666667991,
          "durationTicks": 8,
          "midi": 54,
          "name": "F#3",
          "ticks": 30528,
          "time": 58.527581999999995,
          "velocity": 0.7874015748031497
        },
        {
          "duration": 0.015337416666667991,
          "durationTicks": 8,
          "midi": 42,
          "name": "F#2",
          "ticks": 30528,
          "time": 58.527581999999995,
          "velocity": 0.6535433070866141
        },
        {
          "duration": 0.015337416666667991,
          "durationTicks": 8,
          "midi": 40,
          "name": "E2",
          "ticks": 30528,
          "time": 58.527581999999995,
          "velocity": 0.9763779527559056
        },
        {
          "duration": 0.015337416666660886,
          "durationTicks": 8,
          "midi": 42,
          "name": "F#2",
          "ticks": 30624,
          "time": 58.711631,
          "velocity": 0.48031496062992124
        },
        {
          "duration": 0.015337416666660886,
          "durationTicks": 8,
          "midi": 42,
          "name": "F#2",
          "ticks": 30720,
          "time": 58.89568,
          "velocity": 0.6535433070866141
        },
        {
          "duration": 0.015337416666660886,
          "durationTicks": 8,
          "midi": 36,
          "name": "C2",
          "ticks": 30720,
          "time": 58.89568,
          "velocity": 0.7480314960629921
        },
        {
          "duration": 0.015337416666660886,
          "durationTicks": 8,
          "midi": 42,
          "name": "F#2",
          "ticks": 30816,
          "time": 59.079729,
          "velocity": 0.48031496062992124
        },
        {
          "duration": 0.015337416666667991,
          "durationTicks": 8,
          "midi": 42,
          "name": "F#2",
          "ticks": 30912,
          "time": 59.263777999999995,
          "velocity": 0.6535433070866141
        },
        {
          "duration": 0.015337416666667991,
          "durationTicks": 8,
          "midi": 40,
          "name": "E2",
          "ticks": 30912,
          "time": 59.263777999999995,
          "velocity": 0.8818897637795275
        },
        {
          "duration": 0.015337416666667991,
          "durationTicks": 8,
          "midi": 54,
          "name": "F#3",
          "ticks": 30912,
          "time": 59.263777999999995,
          "velocity": 0.9133858267716536
        },
        {
          "duration": 0.015337416666660886,
          "durationTicks": 8,
          "midi": 42,
          "name": "F#2",
          "ticks": 31008,
          "time": 59.447827,
          "velocity": 0.5590551181102362
        },
        {
          "duration": 0.015337416666660886,
          "durationTicks": 8,
          "midi": 42,
          "name": "F#2",
          "ticks": 31104,
          "time": 59.631876,
          "velocity": 0.6535433070866141
        },
        {
          "duration": 0.015337416666660886,
          "durationTicks": 8,
          "midi": 36,
          "name": "C2",
          "ticks": 31104,
          "time": 59.631876,
          "velocity": 0.8818897637795275
        },
        {
          "duration": 0.015337416666660886,
          "durationTicks": 8,
          "midi": 42,
          "name": "F#2",
          "ticks": 31200,
          "time": 59.815925,
          "velocity": 0.5590551181102362
        },
        {
          "duration": 0.015337416666667991,
          "durationTicks": 8,
          "midi": 40,
          "name": "E2",
          "ticks": 31296,
          "time": 59.999973999999995,
          "velocity": 0.9763779527559056
        },
        {
          "duration": 0.015337416666667991,
          "durationTicks": 8,
          "midi": 42,
          "name": "F#2",
          "ticks": 31296,
          "time": 59.999973999999995,
          "velocity": 0.6535433070866141
        },
        {
          "duration": 0.015337416666667991,
          "durationTicks": 8,
          "midi": 54,
          "name": "F#3",
          "ticks": 31296,
          "time": 59.999973999999995,
          "velocity": 0.7874015748031497
        },
        {
          "duration": 0.015337416666660886,
          "durationTicks": 8,
          "midi": 42,
          "name": "F#2",
          "ticks": 31392,
          "time": 60.184022999999996,
          "velocity": 0.48031496062992124
        },
        {
          "duration": 0.015337416666660886,
          "durationTicks": 8,
          "midi": 36,
          "name": "C2",
          "ticks": 31488,
          "time": 60.368072,
          "velocity": 0.7480314960629921
        },
        {
          "duration": 0.015337416666660886,
          "durationTicks": 8,
          "midi": 42,
          "name": "F#2",
          "ticks": 31488,
          "time": 60.368072,
          "velocity": 0.6535433070866141
        },
        {
          "duration": 0.015337416666660886,
          "durationTicks": 8,
          "midi": 42,
          "name": "F#2",
          "ticks": 31584,
          "time": 60.552121,
          "velocity": 0.3779527559055118
        },
        {
          "duration": 0.015337416666667991,
          "durationTicks": 8,
          "midi": 40,
          "name": "E2",
          "ticks": 31680,
          "time": 60.736169999999994,
          "velocity": 0.8818897637795275
        },
        {
          "duration": 0.015337416666667991,
          "durationTicks": 8,
          "midi": 54,
          "name": "F#3",
          "ticks": 31680,
          "time": 60.736169999999994,
          "velocity": 0.9133858267716536
        },
        {
          "duration": 0.015337416666667991,
          "durationTicks": 8,
          "midi": 42,
          "name": "F#2",
          "ticks": 31680,
          "time": 60.736169999999994,
          "velocity": 0.6535433070866141
        },
        {
          "duration": 0.015337416666660886,
          "durationTicks": 8,
          "midi": 42,
          "name": "F#2",
          "ticks": 31776,
          "time": 60.920218999999996,
          "velocity": 0.4251968503937008
        },
        {
          "duration": 0.015337416666660886,
          "durationTicks": 8,
          "midi": 42,
          "name": "F#2",
          "ticks": 31872,
          "time": 61.104268,
          "velocity": 0.6535433070866141
        },
        {
          "duration": 0.015337416666660886,
          "durationTicks": 8,
          "midi": 36,
          "name": "C2",
          "ticks": 31872,
          "time": 61.104268,
          "velocity": 0.7480314960629921
        },
        {
          "duration": 0.015337416666660886,
          "durationTicks": 8,
          "midi": 42,
          "name": "F#2",
          "ticks": 31968,
          "time": 61.288317,
          "velocity": 0.3779527559055118
        },
        {
          "duration": 0.015337416666667991,
          "durationTicks": 8,
          "midi": 42,
          "name": "F#2",
          "ticks": 32064,
          "time": 61.472365999999994,
          "velocity": 0.6535433070866141
        },
        {
          "duration": 0.015337416666667991,
          "durationTicks": 8,
          "midi": 54,
          "name": "F#3",
          "ticks": 32064,
          "time": 61.472365999999994,
          "velocity": 0.9133858267716536
        },
        {
          "duration": 0.015337416666667991,
          "durationTicks": 8,
          "midi": 40,
          "name": "E2",
          "ticks": 32064,
          "time": 61.472365999999994,
          "velocity": 0.9763779527559056
        },
        {
          "duration": 0.015337416666660886,
          "durationTicks": 8,
          "midi": 42,
          "name": "F#2",
          "ticks": 32160,
          "time": 61.656414999999996,
          "velocity": 0.5590551181102362
        },
        {
          "duration": 0.015337416666660886,
          "durationTicks": 8,
          "midi": 36,
          "name": "C2",
          "ticks": 32256,
          "time": 61.840464,
          "velocity": 0.8818897637795275
        },
        {
          "duration": 0.015337416666660886,
          "durationTicks": 8,
          "midi": 42,
          "name": "F#2",
          "ticks": 32256,
          "time": 61.840464,
          "velocity": 0.6535433070866141
        },
        {
          "duration": 0.015337416666660886,
          "durationTicks": 8,
          "midi": 42,
          "name": "F#2",
          "ticks": 32352,
          "time": 62.024513,
          "velocity": 0.48031496062992124
        },
        {
          "duration": 0.015337416666667991,
          "durationTicks": 8,
          "midi": 40,
          "name": "E2",
          "ticks": 32448,
          "time": 62.20856199999999,
          "velocity": 0.8818897637795275
        },
        {
          "duration": 0.015337416666667991,
          "durationTicks": 8,
          "midi": 54,
          "name": "F#3",
          "ticks": 32448,
          "time": 62.20856199999999,
          "velocity": 0.7874015748031497
        },
        {
          "duration": 0.015337416666667991,
          "durationTicks": 8,
          "midi": 42,
          "name": "F#2",
          "ticks": 32448,
          "time": 62.20856199999999,
          "velocity": 0.7874015748031497
        },
        {
          "duration": 0.015337416666667991,
          "durationTicks": 8,
          "midi": 42,
          "name": "F#2",
          "ticks": 32544,
          "time": 62.392610999999995,
          "velocity": 0.48031496062992124
        },
        {
          "duration": 0.015337416666660886,
          "durationTicks": 8,
          "midi": 36,
          "name": "C2",
          "ticks": 32640,
          "time": 62.57666,
          "velocity": 0.8818897637795275
        },
        {
          "duration": 0.015337416666660886,
          "durationTicks": 8,
          "midi": 42,
          "name": "F#2",
          "ticks": 32640,
          "time": 62.57666,
          "velocity": 0.6535433070866141
        },
        {
          "duration": 0.015337416666660886,
          "durationTicks": 8,
          "midi": 42,
          "name": "F#2",
          "ticks": 32736,
          "time": 62.760709,
          "velocity": 0.48031496062992124
        },
        {
          "duration": 0.015337416666660886,
          "durationTicks": 8,
          "midi": 40,
          "name": "E2",
          "ticks": 32832,
          "time": 62.944758,
          "velocity": 0.7480314960629921
        },
        {
          "duration": 0.015337416666660886,
          "durationTicks": 8,
          "midi": 54,
          "name": "F#3",
          "ticks": 32832,
          "time": 62.944758,
          "velocity": 0.7874015748031497
        },
        {
          "duration": 0.015337416666660886,
          "durationTicks": 8,
          "midi": 42,
          "name": "F#2",
          "ticks": 32832,
          "time": 62.944758,
          "velocity": 0.7874015748031497
        },
        {
          "duration": 0.015337416666667991,
          "durationTicks": 8,
          "midi": 42,
          "name": "F#2",
          "ticks": 32928,
          "time": 63.128806999999995,
          "velocity": 0.5590551181102362
        },
        {
          "duration": 0.015337416666660886,
          "durationTicks": 8,
          "midi": 42,
          "name": "F#2",
          "ticks": 33024,
          "time": 63.312856,
          "velocity": 0.7874015748031497
        },
        {
          "duration": 0.015337416666660886,
          "durationTicks": 8,
          "midi": 36,
          "name": "C2",
          "ticks": 33024,
          "time": 63.312856,
          "velocity": 0.8818897637795275
        },
        {
          "duration": 0.015337416666660886,
          "durationTicks": 8,
          "midi": 42,
          "name": "F#2",
          "ticks": 33120,
          "time": 63.496905,
          "velocity": 0.4251968503937008
        },
        {
          "duration": 0.015337416666660886,
          "durationTicks": 8,
          "midi": 40,
          "name": "E2",
          "ticks": 33216,
          "time": 63.680954,
          "velocity": 0.8818897637795275
        },
        {
          "duration": 0.015337416666660886,
          "durationTicks": 8,
          "midi": 42,
          "name": "F#2",
          "ticks": 33216,
          "time": 63.680954,
          "velocity": 0.6535433070866141
        },
        {
          "duration": 0.015337416666660886,
          "durationTicks": 8,
          "midi": 54,
          "name": "F#3",
          "ticks": 33216,
          "time": 63.680954,
          "velocity": 0.9133858267716536
        },
        {
          "duration": 0.015337416666667991,
          "durationTicks": 8,
          "midi": 42,
          "name": "F#2",
          "ticks": 33312,
          "time": 63.865002999999994,
          "velocity": 0.4251968503937008
        },
        {
          "duration": 0.01533741666665378,
          "durationTicks": 8,
          "midi": 42,
          "name": "F#2",
          "ticks": 33408,
          "time": 64.049052,
          "velocity": 0.6535433070866141
        },
        {
          "duration": 0.01533741666665378,
          "durationTicks": 8,
          "midi": 36,
          "name": "C2",
          "ticks": 33408,
          "time": 64.049052,
          "velocity": 0.6299212598425197
        },
        {
          "duration": 0.015337416666667991,
          "durationTicks": 8,
          "midi": 42,
          "name": "F#2",
          "ticks": 33504,
          "time": 64.23310099999999,
          "velocity": 0.3779527559055118
        },
        {
          "duration": 0.015337416666667991,
          "durationTicks": 8,
          "midi": 54,
          "name": "F#3",
          "ticks": 33600,
          "time": 64.41714999999999,
          "velocity": 0.7874015748031497
        },
        {
          "duration": 0.015337416666667991,
          "durationTicks": 8,
          "midi": 40,
          "name": "E2",
          "ticks": 33600,
          "time": 64.41714999999999,
          "velocity": 0.9763779527559056
        },
        {
          "duration": 0.015337416666667991,
          "durationTicks": 8,
          "midi": 42,
          "name": "F#2",
          "ticks": 33600,
          "time": 64.41714999999999,
          "velocity": 0.6535433070866141
        },
        {
          "duration": 0.015337416666667991,
          "durationTicks": 8,
          "midi": 42,
          "name": "F#2",
          "ticks": 33696,
          "time": 64.601199,
          "velocity": 0.48031496062992124
        },
        {
          "duration": 0.015337416666667991,
          "durationTicks": 8,
          "midi": 36,
          "name": "C2",
          "ticks": 33792,
          "time": 64.785248,
          "velocity": 0.7480314960629921
        },
        {
          "duration": 0.015337416666667991,
          "durationTicks": 8,
          "midi": 42,
          "name": "F#2",
          "ticks": 33792,
          "time": 64.785248,
          "velocity": 0.6535433070866141
        },
        {
          "duration": 0.015337416666667991,
          "durationTicks": 8,
          "midi": 42,
          "name": "F#2",
          "ticks": 33888,
          "time": 64.969297,
          "velocity": 0.48031496062992124
        },
        {
          "duration": 0.01533741666665378,
          "durationTicks": 8,
          "midi": 40,
          "name": "E2",
          "ticks": 33984,
          "time": 65.153346,
          "velocity": 0.8818897637795275
        },
        {
          "duration": 0.01533741666665378,
          "durationTicks": 8,
          "midi": 54,
          "name": "F#3",
          "ticks": 33984,
          "time": 65.153346,
          "velocity": 0.9133858267716536
        },
        {
          "duration": 0.01533741666665378,
          "durationTicks": 8,
          "midi": 42,
          "name": "F#2",
          "ticks": 33984,
          "time": 65.153346,
          "velocity": 0.6535433070866141
        },
        {
          "duration": 0.01533741666665378,
          "durationTicks": 8,
          "midi": 42,
          "name": "F#2",
          "ticks": 34080,
          "time": 65.337395,
          "velocity": 0.5590551181102362
        },
        {
          "duration": 0.01533741666665378,
          "durationTicks": 8,
          "midi": 36,
          "name": "C2",
          "ticks": 34176,
          "time": 65.521444,
          "velocity": 0.8818897637795275
        },
        {
          "duration": 0.01533741666665378,
          "durationTicks": 8,
          "midi": 42,
          "name": "F#2",
          "ticks": 34176,
          "time": 65.521444,
          "velocity": 0.6535433070866141
        },
        {
          "duration": 0.015337416666667991,
          "durationTicks": 8,
          "midi": 42,
          "name": "F#2",
          "ticks": 34272,
          "time": 65.70549299999999,
          "velocity": 0.5590551181102362
        },
        {
          "duration": 0.015337416666667991,
          "durationTicks": 8,
          "midi": 42,
          "name": "F#2",
          "ticks": 34368,
          "time": 65.88954199999999,
          "velocity": 0.6535433070866141
        },
        {
          "duration": 0.015337416666667991,
          "durationTicks": 8,
          "midi": 54,
          "name": "F#3",
          "ticks": 34368,
          "time": 65.88954199999999,
          "velocity": 0.7874015748031497
        },
        {
          "duration": 0.015337416666667991,
          "durationTicks": 8,
          "midi": 40,
          "name": "E2",
          "ticks": 34368,
          "time": 65.88954199999999,
          "velocity": 0.9763779527559056
        },
        {
          "duration": 0.015337416666667991,
          "durationTicks": 8,
          "midi": 42,
          "name": "F#2",
          "ticks": 34464,
          "time": 66.073591,
          "velocity": 0.48031496062992124
        },
        {
          "duration": 0.015337416666667991,
          "durationTicks": 8,
          "midi": 36,
          "name": "C2",
          "ticks": 34560,
          "time": 66.25764,
          "velocity": 0.7480314960629921
        },
        {
          "duration": 0.015337416666667991,
          "durationTicks": 8,
          "midi": 42,
          "name": "F#2",
          "ticks": 34560,
          "time": 66.25764,
          "velocity": 0.6535433070866141
        },
        {
          "duration": 0.015337416666667991,
          "durationTicks": 8,
          "midi": 42,
          "name": "F#2",
          "ticks": 34656,
          "time": 66.441689,
          "velocity": 0.3779527559055118
        },
        {
          "duration": 0.015337416666667991,
          "durationTicks": 8,
          "midi": 40,
          "name": "E2",
          "ticks": 34752,
          "time": 66.625738,
          "velocity": 0.8818897637795275
        },
        {
          "duration": 0.015337416666667991,
          "durationTicks": 8,
          "midi": 42,
          "name": "F#2",
          "ticks": 34752,
          "time": 66.625738,
          "velocity": 0.6535433070866141
        },
        {
          "duration": 0.015337416666667991,
          "durationTicks": 8,
          "midi": 54,
          "name": "F#3",
          "ticks": 34752,
          "time": 66.625738,
          "velocity": 0.9133858267716536
        },
        {
          "duration": 0.01533741666665378,
          "durationTicks": 8,
          "midi": 42,
          "name": "F#2",
          "ticks": 34848,
          "time": 66.809787,
          "velocity": 0.4251968503937008
        },
        {
          "duration": 0.01533741666665378,
          "durationTicks": 8,
          "midi": 42,
          "name": "F#2",
          "ticks": 34944,
          "time": 66.993836,
          "velocity": 0.6535433070866141
        },
        {
          "duration": 0.01533741666665378,
          "durationTicks": 8,
          "midi": 36,
          "name": "C2",
          "ticks": 34944,
          "time": 66.993836,
          "velocity": 0.7480314960629921
        },
        {
          "duration": 0.01533741666665378,
          "durationTicks": 8,
          "midi": 42,
          "name": "F#2",
          "ticks": 35040,
          "time": 67.177885,
          "velocity": 0.3779527559055118
        },
        {
          "duration": 0.015337416666667991,
          "durationTicks": 8,
          "midi": 54,
          "name": "F#3",
          "ticks": 35136,
          "time": 67.36193399999999,
          "velocity": 0.9133858267716536
        },
        {
          "duration": 0.015337416666667991,
          "durationTicks": 8,
          "midi": 40,
          "name": "E2",
          "ticks": 35136,
          "time": 67.36193399999999,
          "velocity": 0.9763779527559056
        },
        {
          "duration": 0.015337416666667991,
          "durationTicks": 8,
          "midi": 42,
          "name": "F#2",
          "ticks": 35136,
          "time": 67.36193399999999,
          "velocity": 0.6535433070866141
        },
        {
          "duration": 0.015337416666667991,
          "durationTicks": 8,
          "midi": 42,
          "name": "F#2",
          "ticks": 35232,
          "time": 67.54598299999999,
          "velocity": 0.5590551181102362
        },
        {
          "duration": 0.015337416666667991,
          "durationTicks": 8,
          "midi": 42,
          "name": "F#2",
          "ticks": 35328,
          "time": 67.730032,
          "velocity": 0.6535433070866141
        },
        {
          "duration": 0.015337416666667991,
          "durationTicks": 8,
          "midi": 36,
          "name": "C2",
          "ticks": 35328,
          "time": 67.730032,
          "velocity": 0.8818897637795275
        },
        {
          "duration": 0.015337416666667991,
          "durationTicks": 8,
          "midi": 42,
          "name": "F#2",
          "ticks": 35424,
          "time": 67.914081,
          "velocity": 0.48031496062992124
        },
        {
          "duration": 0.015337416666667991,
          "durationTicks": 8,
          "midi": 54,
          "name": "F#3",
          "ticks": 35520,
          "time": 68.09813,
          "velocity": 0.7874015748031497
        },
        {
          "duration": 0.015337416666667991,
          "durationTicks": 8,
          "midi": 40,
          "name": "E2",
          "ticks": 35520,
          "time": 68.09813,
          "velocity": 0.8818897637795275
        },
        {
          "duration": 0.015337416666667991,
          "durationTicks": 8,
          "midi": 42,
          "name": "F#2",
          "ticks": 35520,
          "time": 68.09813,
          "velocity": 0.7874015748031497
        },
        {
          "duration": 0.01533741666665378,
          "durationTicks": 8,
          "midi": 42,
          "name": "F#2",
          "ticks": 35616,
          "time": 68.282179,
          "velocity": 0.48031496062992124
        },
        {
          "duration": 0.01533741666665378,
          "durationTicks": 8,
          "midi": 42,
          "name": "F#2",
          "ticks": 35712,
          "time": 68.466228,
          "velocity": 0.6535433070866141
        },
        {
          "duration": 0.01533741666665378,
          "durationTicks": 8,
          "midi": 36,
          "name": "C2",
          "ticks": 35712,
          "time": 68.466228,
          "velocity": 0.8818897637795275
        },
        {
          "duration": 0.01533741666665378,
          "durationTicks": 8,
          "midi": 42,
          "name": "F#2",
          "ticks": 35808,
          "time": 68.650277,
          "velocity": 0.48031496062992124
        },
        {
          "duration": 0.015337416666667991,
          "durationTicks": 8,
          "midi": 54,
          "name": "F#3",
          "ticks": 35904,
          "time": 68.83432599999999,
          "velocity": 0.7874015748031497
        },
        {
          "duration": 0.015337416666667991,
          "durationTicks": 8,
          "midi": 40,
          "name": "E2",
          "ticks": 35904,
          "time": 68.83432599999999,
          "velocity": 0.7480314960629921
        },
        {
          "duration": 0.015337416666667991,
          "durationTicks": 8,
          "midi": 42,
          "name": "F#2",
          "ticks": 35904,
          "time": 68.83432599999999,
          "velocity": 0.7874015748031497
        },
        {
          "duration": 0.015337416666667991,
          "durationTicks": 8,
          "midi": 42,
          "name": "F#2",
          "ticks": 36000,
          "time": 69.01837499999999,
          "velocity": 0.5590551181102362
        },
        {
          "duration": 0.015337416666667991,
          "durationTicks": 8,
          "midi": 36,
          "name": "C2",
          "ticks": 36096,
          "time": 69.202424,
          "velocity": 0.8818897637795275
        },
        {
          "duration": 0.015337416666667991,
          "durationTicks": 8,
          "midi": 42,
          "name": "F#2",
          "ticks": 36096,
          "time": 69.202424,
          "velocity": 0.7874015748031497
        },
        {
          "duration": 0.015337416666667991,
          "durationTicks": 8,
          "midi": 42,
          "name": "F#2",
          "ticks": 36192,
          "time": 69.386473,
          "velocity": 0.4251968503937008
        },
        {
          "duration": 0.015337416666667991,
          "durationTicks": 8,
          "midi": 40,
          "name": "E2",
          "ticks": 36288,
          "time": 69.570522,
          "velocity": 0.8818897637795275
        },
        {
          "duration": 0.015337416666667991,
          "durationTicks": 8,
          "midi": 54,
          "name": "F#3",
          "ticks": 36288,
          "time": 69.570522,
          "velocity": 0.9133858267716536
        },
        {
          "duration": 0.015337416666667991,
          "durationTicks": 8,
          "midi": 42,
          "name": "F#2",
          "ticks": 36288,
          "time": 69.570522,
          "velocity": 0.6535433070866141
        },
        {
          "duration": 0.015337416666667991,
          "durationTicks": 8,
          "midi": 42,
          "name": "F#2",
          "ticks": 36384,
          "time": 69.754571,
          "velocity": 0.4251968503937008
        },
        {
          "duration": 0.01533741666665378,
          "durationTicks": 8,
          "midi": 42,
          "name": "F#2",
          "ticks": 36480,
          "time": 69.93862,
          "velocity": 0.6535433070866141
        },
        {
          "duration": 0.01533741666665378,
          "durationTicks": 8,
          "midi": 36,
          "name": "C2",
          "ticks": 36480,
          "time": 69.93862,
          "velocity": 0.6299212598425197
        },
        {
          "duration": 0.01533741666665378,
          "durationTicks": 8,
          "midi": 42,
          "name": "F#2",
          "ticks": 36576,
          "time": 70.122669,
          "velocity": 0.3779527559055118
        },
        {
          "duration": 0.015337416666667991,
          "durationTicks": 8,
          "midi": 40,
          "name": "E2",
          "ticks": 36672,
          "time": 70.30671799999999,
          "velocity": 0.9763779527559056
        },
        {
          "duration": 0.015337416666667991,
          "durationTicks": 8,
          "midi": 42,
          "name": "F#2",
          "ticks": 36672,
          "time": 70.30671799999999,
          "velocity": 0.6535433070866141
        },
        {
          "duration": 0.015337416666667991,
          "durationTicks": 8,
          "midi": 54,
          "name": "F#3",
          "ticks": 36672,
          "time": 70.30671799999999,
          "velocity": 0.7874015748031497
        },
        {
          "duration": 0.015337416666667991,
          "durationTicks": 8,
          "midi": 42,
          "name": "F#2",
          "ticks": 36768,
          "time": 70.49076699999999,
          "velocity": 0.48031496062992124
        },
        {
          "duration": 0.015337416666667991,
          "durationTicks": 8,
          "midi": 42,
          "name": "F#2",
          "ticks": 36864,
          "time": 70.67481599999999,
          "velocity": 0.6535433070866141
        },
        {
          "duration": 0.015337416666667991,
          "durationTicks": 8,
          "midi": 36,
          "name": "C2",
          "ticks": 36864,
          "time": 70.67481599999999,
          "velocity": 0.7480314960629921
        },
        {
          "duration": 0.015337416666667991,
          "durationTicks": 8,
          "midi": 42,
          "name": "F#2",
          "ticks": 36960,
          "time": 70.858865,
          "velocity": 0.48031496062992124
        },
        {
          "duration": 0.015337416666667991,
          "durationTicks": 8,
          "midi": 54,
          "name": "F#3",
          "ticks": 37056,
          "time": 71.042914,
          "velocity": 0.9133858267716536
        },
        {
          "duration": 0.015337416666667991,
          "durationTicks": 8,
          "midi": 40,
          "name": "E2",
          "ticks": 37056,
          "time": 71.042914,
          "velocity": 0.8818897637795275
        },
        {
          "duration": 0.015337416666667991,
          "durationTicks": 8,
          "midi": 42,
          "name": "F#2",
          "ticks": 37056,
          "time": 71.042914,
          "velocity": 0.6535433070866141
        },
        {
          "duration": 0.015337416666667991,
          "durationTicks": 8,
          "midi": 42,
          "name": "F#2",
          "ticks": 37152,
          "time": 71.226963,
          "velocity": 0.5590551181102362
        },
        {
          "duration": 0.01533741666665378,
          "durationTicks": 8,
          "midi": 42,
          "name": "F#2",
          "ticks": 37248,
          "time": 71.411012,
          "velocity": 0.6535433070866141
        },
        {
          "duration": 0.01533741666665378,
          "durationTicks": 8,
          "midi": 36,
          "name": "C2",
          "ticks": 37248,
          "time": 71.411012,
          "velocity": 0.8818897637795275
        },
        {
          "duration": 0.01533741666665378,
          "durationTicks": 8,
          "midi": 42,
          "name": "F#2",
          "ticks": 37344,
          "time": 71.595061,
          "velocity": 0.5590551181102362
        },
        {
          "duration": 0.01533741666665378,
          "durationTicks": 8,
          "midi": 40,
          "name": "E2",
          "ticks": 37440,
          "time": 71.77911,
          "velocity": 0.9763779527559056
        },
        {
          "duration": 0.01533741666665378,
          "durationTicks": 8,
          "midi": 54,
          "name": "F#3",
          "ticks": 37440,
          "time": 71.77911,
          "velocity": 0.7874015748031497
        },
        {
          "duration": 0.01533741666665378,
          "durationTicks": 8,
          "midi": 42,
          "name": "F#2",
          "ticks": 37440,
          "time": 71.77911,
          "velocity": 0.6535433070866141
        },
        {
          "duration": 0.015337416666667991,
          "durationTicks": 8,
          "midi": 42,
          "name": "F#2",
          "ticks": 37536,
          "time": 71.96315899999999,
          "velocity": 0.48031496062992124
        },
        {
          "duration": 0.015337416666667991,
          "durationTicks": 8,
          "midi": 36,
          "name": "C2",
          "ticks": 37632,
          "time": 72.14720799999999,
          "velocity": 0.7480314960629921
        },
        {
          "duration": 0.015337416666667991,
          "durationTicks": 8,
          "midi": 42,
          "name": "F#2",
          "ticks": 37632,
          "time": 72.14720799999999,
          "velocity": 0.6535433070866141
        },
        {
          "duration": 0.015337416666667991,
          "durationTicks": 8,
          "midi": 42,
          "name": "F#2",
          "ticks": 37728,
          "time": 72.331257,
          "velocity": 0.3779527559055118
        },
        {
          "duration": 0.015337416666667991,
          "durationTicks": 8,
          "midi": 42,
          "name": "F#2",
          "ticks": 37824,
          "time": 72.515306,
          "velocity": 0.6535433070866141
        },
        {
          "duration": 0.015337416666667991,
          "durationTicks": 8,
          "midi": 40,
          "name": "E2",
          "ticks": 37824,
          "time": 72.515306,
          "velocity": 0.8818897637795275
        },
        {
          "duration": 0.015337416666667991,
          "durationTicks": 8,
          "midi": 54,
          "name": "F#3",
          "ticks": 37824,
          "time": 72.515306,
          "velocity": 0.9133858267716536
        },
        {
          "duration": 0.015337416666667991,
          "durationTicks": 8,
          "midi": 42,
          "name": "F#2",
          "ticks": 37920,
          "time": 72.699355,
          "velocity": 0.4251968503937008
        },
        {
          "duration": 0.01533741666665378,
          "durationTicks": 8,
          "midi": 36,
          "name": "C2",
          "ticks": 38016,
          "time": 72.883404,
          "velocity": 0.7480314960629921
        },
        {
          "duration": 0.01533741666665378,
          "durationTicks": 8,
          "midi": 42,
          "name": "F#2",
          "ticks": 38016,
          "time": 72.883404,
          "velocity": 0.6535433070866141
        },
        {
          "duration": 0.01533741666665378,
          "durationTicks": 8,
          "midi": 42,
          "name": "F#2",
          "ticks": 38112,
          "time": 73.067453,
          "velocity": 0.3779527559055118
        },
        {
          "duration": 0.01533741666665378,
          "durationTicks": 8,
          "midi": 42,
          "name": "F#2",
          "ticks": 38208,
          "time": 73.251502,
          "velocity": 0.6535433070866141
        },
        {
          "duration": 0.01533741666665378,
          "durationTicks": 8,
          "midi": 40,
          "name": "E2",
          "ticks": 38208,
          "time": 73.251502,
          "velocity": 0.9763779527559056
        },
        {
          "duration": 0.01533741666665378,
          "durationTicks": 8,
          "midi": 54,
          "name": "F#3",
          "ticks": 38208,
          "time": 73.251502,
          "velocity": 0.9133858267716536
        },
        {
          "duration": 0.015337416666667991,
          "durationTicks": 8,
          "midi": 40,
          "name": "E2",
          "ticks": 38304,
          "time": 73.43555099999999,
          "velocity": 0.49606299212598426
        },
        {
          "duration": 0.015337416666667991,
          "durationTicks": 8,
          "midi": 40,
          "name": "E2",
          "ticks": 38352,
          "time": 73.5275755,
          "velocity": 0.6535433070866141
        },
        {
          "duration": 0.015337416666667991,
          "durationTicks": 8,
          "midi": 36,
          "name": "C2",
          "ticks": 38400,
          "time": 73.61959999999999,
          "velocity": 0.9763779527559056
        },
        {
          "duration": 0.015337416666667991,
          "durationTicks": 8,
          "midi": 40,
          "name": "E2",
          "ticks": 38400,
          "time": 73.61959999999999,
          "velocity": 0.9763779527559056
        },
        {
          "duration": 0.015337416666667991,
          "durationTicks": 8,
          "midi": 54,
          "name": "F#3",
          "ticks": 38592,
          "time": 73.987698,
          "velocity": 0.7874015748031497
        },
        {
          "duration": 0.01533741666665378,
          "durationTicks": 8,
          "midi": 54,
          "name": "F#3",
          "ticks": 38976,
          "time": 74.723894,
          "velocity": 0.7874015748031497
        },
        {
          "duration": 0.01533741666665378,
          "durationTicks": 8,
          "midi": 40,
          "name": "E2",
          "ticks": 39072,
          "time": 74.907943,
          "velocity": 0.4645669291338583
        },
        {
          "duration": 0.015337416666667991,
          "durationTicks": 8,
          "midi": 36,
          "name": "C2",
          "ticks": 39168,
          "time": 75.09199199999999,
          "velocity": 0.8818897637795275
        },
        {
          "duration": 0.015337416666667991,
          "durationTicks": 8,
          "midi": 42,
          "name": "F#2",
          "ticks": 39168,
          "time": 75.09199199999999,
          "velocity": 0.7874015748031497
        },
        {
          "duration": 0.015337416666667991,
          "durationTicks": 8,
          "midi": 54,
          "name": "F#3",
          "ticks": 39168,
          "time": 75.09199199999999,
          "velocity": 0.48031496062992124
        },
        {
          "duration": 0.015337416666667991,
          "durationTicks": 8,
          "midi": 54,
          "name": "F#3",
          "ticks": 39264,
          "time": 75.27604099999999,
          "velocity": 0.3779527559055118
        },
        {
          "duration": 0.015337416666667991,
          "durationTicks": 8,
          "midi": 42,
          "name": "F#2",
          "ticks": 39264,
          "time": 75.27604099999999,
          "velocity": 0.4251968503937008
        },
        {
          "duration": 0.015337416666667991,
          "durationTicks": 8,
          "midi": 42,
          "name": "F#2",
          "ticks": 39360,
          "time": 75.46009,
          "velocity": 0.6535433070866141
        },
        {
          "duration": 0.015337416666667991,
          "durationTicks": 8,
          "midi": 39,
          "name": "D#2",
          "ticks": 39360,
          "time": 75.46009,
          "velocity": 0.8661417322834646
        },
        {
          "duration": 0.015337416666667991,
          "durationTicks": 8,
          "midi": 40,
          "name": "E2",
          "ticks": 39360,
          "time": 75.46009,
          "velocity": 0.8818897637795275
        },
        {
          "duration": 0.015337416666667991,
          "durationTicks": 8,
          "midi": 54,
          "name": "F#3",
          "ticks": 39360,
          "time": 75.46009,
          "velocity": 0.9133858267716536
        },
        {
          "duration": 0.015337416666667991,
          "durationTicks": 8,
          "midi": 42,
          "name": "F#2",
          "ticks": 39456,
          "time": 75.644139,
          "velocity": 0.4251968503937008
        },
        {
          "duration": 0.015337416666667991,
          "durationTicks": 8,
          "midi": 54,
          "name": "F#3",
          "ticks": 39456,
          "time": 75.644139,
          "velocity": 0.3779527559055118
        },
        {
          "duration": 0.015337416666667991,
          "durationTicks": 8,
          "midi": 54,
          "name": "F#3",
          "ticks": 39552,
          "time": 75.828188,
          "velocity": 0.3779527559055118
        },
        {
          "duration": 0.015337416666667991,
          "durationTicks": 8,
          "midi": 36,
          "name": "C2",
          "ticks": 39552,
          "time": 75.828188,
          "velocity": 0.6299212598425197
        },
        {
          "duration": 0.015337416666667991,
          "durationTicks": 8,
          "midi": 42,
          "name": "F#2",
          "ticks": 39552,
          "time": 75.828188,
          "velocity": 0.6535433070866141
        },
        {
          "duration": 0.01533741666665378,
          "durationTicks": 8,
          "midi": 42,
          "name": "F#2",
          "ticks": 39648,
          "time": 76.012237,
          "velocity": 0.3779527559055118
        },
        {
          "duration": 0.01533741666665378,
          "durationTicks": 8,
          "midi": 54,
          "name": "F#3",
          "ticks": 39648,
          "time": 76.012237,
          "velocity": 0.3464566929133858
        },
        {
          "duration": 0.01533741666665378,
          "durationTicks": 8,
          "midi": 54,
          "name": "F#3",
          "ticks": 39744,
          "time": 76.196286,
          "velocity": 0.9133858267716536
        },
        {
          "duration": 0.01533741666665378,
          "durationTicks": 8,
          "midi": 42,
          "name": "F#2",
          "ticks": 39744,
          "time": 76.196286,
          "velocity": 0.6535433070866141
        },
        {
          "duration": 0.01533741666665378,
          "durationTicks": 8,
          "midi": 39,
          "name": "D#2",
          "ticks": 39744,
          "time": 76.196286,
          "velocity": 0.8661417322834646
        },
        {
          "duration": 0.01533741666665378,
          "durationTicks": 8,
          "midi": 40,
          "name": "E2",
          "ticks": 39744,
          "time": 76.196286,
          "velocity": 0.9763779527559056
        },
        {
          "duration": 0.01533741666665378,
          "durationTicks": 8,
          "midi": 42,
          "name": "F#2",
          "ticks": 39840,
          "time": 76.380335,
          "velocity": 0.48031496062992124
        },
        {
          "duration": 0.01533741666665378,
          "durationTicks": 8,
          "midi": 54,
          "name": "F#3",
          "ticks": 39840,
          "time": 76.380335,
          "velocity": 0.4251968503937008
        },
        {
          "duration": 0.015337416666667991,
          "durationTicks": 8,
          "midi": 42,
          "name": "F#2",
          "ticks": 39936,
          "time": 76.56438399999999,
          "velocity": 0.6535433070866141
        },
        {
          "duration": 0.015337416666667991,
          "durationTicks": 8,
          "midi": 54,
          "name": "F#3",
          "ticks": 39936,
          "time": 76.56438399999999,
          "velocity": 0.7874015748031497
        },
        {
          "duration": 0.015337416666667991,
          "durationTicks": 8,
          "midi": 36,
          "name": "C2",
          "ticks": 39936,
          "time": 76.56438399999999,
          "velocity": 0.7480314960629921
        },
        {
          "duration": 0.015337416666667991,
          "durationTicks": 8,
          "midi": 42,
          "name": "F#2",
          "ticks": 40032,
          "time": 76.74843299999999,
          "velocity": 0.48031496062992124
        },
        {
          "duration": 0.015337416666667991,
          "durationTicks": 8,
          "midi": 54,
          "name": "F#3",
          "ticks": 40032,
          "time": 76.74843299999999,
          "velocity": 0.4251968503937008
        },
        {
          "duration": 0.015337416666667991,
          "durationTicks": 8,
          "midi": 54,
          "name": "F#3",
          "ticks": 40128,
          "time": 76.932482,
          "velocity": 0.9133858267716536
        },
        {
          "duration": 0.015337416666667991,
          "durationTicks": 8,
          "midi": 39,
          "name": "D#2",
          "ticks": 40128,
          "time": 76.932482,
          "velocity": 0.8661417322834646
        },
        {
          "duration": 0.015337416666667991,
          "durationTicks": 8,
          "midi": 42,
          "name": "F#2",
          "ticks": 40128,
          "time": 76.932482,
          "velocity": 0.6535433070866141
        },
        {
          "duration": 0.015337416666667991,
          "durationTicks": 8,
          "midi": 40,
          "name": "E2",
          "ticks": 40128,
          "time": 76.932482,
          "velocity": 0.8818897637795275
        },
        {
          "duration": 0.015337416666667991,
          "durationTicks": 8,
          "midi": 42,
          "name": "F#2",
          "ticks": 40224,
          "time": 77.116531,
          "velocity": 0.5590551181102362
        },
        {
          "duration": 0.015337416666667991,
          "durationTicks": 8,
          "midi": 54,
          "name": "F#3",
          "ticks": 40224,
          "time": 77.116531,
          "velocity": 0.3779527559055118
        },
        {
          "duration": 0.015337416666667991,
          "durationTicks": 8,
          "midi": 42,
          "name": "F#2",
          "ticks": 40320,
          "time": 77.30058,
          "velocity": 0.6535433070866141
        },
        {
          "duration": 0.015337416666667991,
          "durationTicks": 8,
          "midi": 54,
          "name": "F#3",
          "ticks": 40320,
          "time": 77.30058,
          "velocity": 0.5590551181102362
        },
        {
          "duration": 0.015337416666667991,
          "durationTicks": 8,
          "midi": 36,
          "name": "C2",
          "ticks": 40320,
          "time": 77.30058,
          "velocity": 0.8818897637795275
        },
        {
          "duration": 0.015337416666667991,
          "durationTicks": 8,
          "midi": 42,
          "name": "F#2",
          "ticks": 40416,
          "time": 77.484629,
          "velocity": 0.5590551181102362
        },
        {
          "duration": 0.015337416666667991,
          "durationTicks": 8,
          "midi": 54,
          "name": "F#3",
          "ticks": 40416,
          "time": 77.484629,
          "velocity": 0.5590551181102362
        },
        {
          "duration": 0.01533741666665378,
          "durationTicks": 8,
          "midi": 42,
          "name": "F#2",
          "ticks": 40512,
          "time": 77.668678,
          "velocity": 0.6535433070866141
        },
        {
          "duration": 0.01533741666665378,
          "durationTicks": 8,
          "midi": 39,
          "name": "D#2",
          "ticks": 40512,
          "time": 77.668678,
          "velocity": 0.8661417322834646
        },
        {
          "duration": 0.01533741666665378,
          "durationTicks": 8,
          "midi": 54,
          "name": "F#3",
          "ticks": 40512,
          "time": 77.668678,
          "velocity": 0.9133858267716536
        },
        {
          "duration": 0.01533741666665378,
          "durationTicks": 8,
          "midi": 40,
          "name": "E2",
          "ticks": 40512,
          "time": 77.668678,
          "velocity": 0.9763779527559056
        },
        {
          "duration": 0.01533741666665378,
          "durationTicks": 8,
          "midi": 42,
          "name": "F#2",
          "ticks": 40608,
          "time": 77.852727,
          "velocity": 0.48031496062992124
        },
        {
          "duration": 0.01533741666665378,
          "durationTicks": 8,
          "midi": 54,
          "name": "F#3",
          "ticks": 40608,
          "time": 77.852727,
          "velocity": 0.5590551181102362
        },
        {
          "duration": 0.015337416666667991,
          "durationTicks": 8,
          "midi": 36,
          "name": "C2",
          "ticks": 40704,
          "time": 78.03677599999999,
          "velocity": 0.7480314960629921
        },
        {
          "duration": 0.015337416666667991,
          "durationTicks": 8,
          "midi": 42,
          "name": "F#2",
          "ticks": 40704,
          "time": 78.03677599999999,
          "velocity": 0.6535433070866141
        },
        {
          "duration": 0.015337416666667991,
          "durationTicks": 8,
          "midi": 54,
          "name": "F#3",
          "ticks": 40704,
          "time": 78.03677599999999,
          "velocity": 0.48031496062992124
        },
        {
          "duration": 0.015337416666667991,
          "durationTicks": 8,
          "midi": 54,
          "name": "F#3",
          "ticks": 40800,
          "time": 78.22082499999999,
          "velocity": 0.6535433070866141
        },
        {
          "duration": 0.015337416666667991,
          "durationTicks": 8,
          "midi": 42,
          "name": "F#2",
          "ticks": 40800,
          "time": 78.22082499999999,
          "velocity": 0.3779527559055118
        },
        {
          "duration": 0.015337416666667991,
          "durationTicks": 8,
          "midi": 40,
          "name": "E2",
          "ticks": 40896,
          "time": 78.40487399999999,
          "velocity": 0.8818897637795275
        },
        {
          "duration": 0.015337416666667991,
          "durationTicks": 8,
          "midi": 42,
          "name": "F#2",
          "ticks": 40896,
          "time": 78.40487399999999,
          "velocity": 0.6535433070866141
        },
        {
          "duration": 0.015337416666667991,
          "durationTicks": 8,
          "midi": 54,
          "name": "F#3",
          "ticks": 40896,
          "time": 78.40487399999999,
          "velocity": 0.9133858267716536
        },
        {
          "duration": 0.015337416666667991,
          "durationTicks": 8,
          "midi": 39,
          "name": "D#2",
          "ticks": 40896,
          "time": 78.40487399999999,
          "velocity": 0.8661417322834646
        },
        {
          "duration": 0.015337416666667991,
          "durationTicks": 8,
          "midi": 42,
          "name": "F#2",
          "ticks": 40992,
          "time": 78.588923,
          "velocity": 0.4251968503937008
        },
        {
          "duration": 0.015337416666667991,
          "durationTicks": 8,
          "midi": 54,
          "name": "F#3",
          "ticks": 40992,
          "time": 78.588923,
          "velocity": 0.5590551181102362
        },
        {
          "duration": 0.015337416666667991,
          "durationTicks": 8,
          "midi": 54,
          "name": "F#3",
          "ticks": 41088,
          "time": 78.772972,
          "velocity": 0.5590551181102362
        },
        {
          "duration": 0.015337416666667991,
          "durationTicks": 8,
          "midi": 42,
          "name": "F#2",
          "ticks": 41088,
          "time": 78.772972,
          "velocity": 0.6535433070866141
        },
        {
          "duration": 0.015337416666667991,
          "durationTicks": 8,
          "midi": 36,
          "name": "C2",
          "ticks": 41088,
          "time": 78.772972,
          "velocity": 0.7480314960629921
        },
        {
          "duration": 0.015337416666667991,
          "durationTicks": 8,
          "midi": 54,
          "name": "F#3",
          "ticks": 41184,
          "time": 78.957021,
          "velocity": 0.6535433070866141
        },
        {
          "duration": 0.015337416666667991,
          "durationTicks": 8,
          "midi": 42,
          "name": "F#2",
          "ticks": 41184,
          "time": 78.957021,
          "velocity": 0.3779527559055118
        },
        {
          "duration": 0.01533741666665378,
          "durationTicks": 8,
          "midi": 42,
          "name": "F#2",
          "ticks": 41280,
          "time": 79.14107,
          "velocity": 0.6535433070866141
        },
        {
          "duration": 0.01533741666665378,
          "durationTicks": 8,
          "midi": 39,
          "name": "D#2",
          "ticks": 41280,
          "time": 79.14107,
          "velocity": 0.8661417322834646
        },
        {
          "duration": 0.01533741666665378,
          "durationTicks": 8,
          "midi": 54,
          "name": "F#3",
          "ticks": 41280,
          "time": 79.14107,
          "velocity": 0.9133858267716536
        },
        {
          "duration": 0.01533741666665378,
          "durationTicks": 8,
          "midi": 40,
          "name": "E2",
          "ticks": 41280,
          "time": 79.14107,
          "velocity": 0.9763779527559056
        },
        {
          "duration": 0.01533741666665378,
          "durationTicks": 8,
          "midi": 42,
          "name": "F#2",
          "ticks": 41376,
          "time": 79.325119,
          "velocity": 0.5590551181102362
        },
        {
          "duration": 0.01533741666665378,
          "durationTicks": 8,
          "midi": 54,
          "name": "F#3",
          "ticks": 41376,
          "time": 79.325119,
          "velocity": 0.6535433070866141
        },
        {
          "duration": 0.01533741666665378,
          "durationTicks": 8,
          "midi": 42,
          "name": "F#2",
          "ticks": 41472,
          "time": 79.509168,
          "velocity": 0.6535433070866141
        },
        {
          "duration": 0.01533741666665378,
          "durationTicks": 8,
          "midi": 36,
          "name": "C2",
          "ticks": 41472,
          "time": 79.509168,
          "velocity": 0.8818897637795275
        },
        {
          "duration": 0.01533741666665378,
          "durationTicks": 8,
          "midi": 54,
          "name": "F#3",
          "ticks": 41472,
          "time": 79.509168,
          "velocity": 0.5590551181102362
        },
        {
          "duration": 0.015337416666667991,
          "durationTicks": 8,
          "midi": 54,
          "name": "F#3",
          "ticks": 41568,
          "time": 79.69321699999999,
          "velocity": 0.5590551181102362
        },
        {
          "duration": 0.015337416666667991,
          "durationTicks": 8,
          "midi": 42,
          "name": "F#2",
          "ticks": 41568,
          "time": 79.69321699999999,
          "velocity": 0.48031496062992124
        },
        {
          "duration": 0.015337416666667991,
          "durationTicks": 8,
          "midi": 40,
          "name": "E2",
          "ticks": 41664,
          "time": 79.87726599999999,
          "velocity": 0.8818897637795275
        },
        {
          "duration": 0.015337416666667991,
          "durationTicks": 8,
          "midi": 39,
          "name": "D#2",
          "ticks": 41664,
          "time": 79.87726599999999,
          "velocity": 0.8661417322834646
        },
        {
          "duration": 0.015337416666667991,
          "durationTicks": 8,
          "midi": 54,
          "name": "F#3",
          "ticks": 41664,
          "time": 79.87726599999999,
          "velocity": 0.9133858267716536
        },
        {
          "duration": 0.015337416666667991,
          "durationTicks": 8,
          "midi": 42,
          "name": "F#2",
          "ticks": 41664,
          "time": 79.87726599999999,
          "velocity": 0.7874015748031497
        },
        {
          "duration": 0.015337416666667991,
          "durationTicks": 8,
          "midi": 54,
          "name": "F#3",
          "ticks": 41760,
          "time": 80.061315,
          "velocity": 0.5590551181102362
        },
        {
          "duration": 0.015337416666667991,
          "durationTicks": 8,
          "midi": 42,
          "name": "F#2",
          "ticks": 41760,
          "time": 80.061315,
          "velocity": 0.48031496062992124
        },
        {
          "duration": 0.015337416666667991,
          "durationTicks": 8,
          "midi": 36,
          "name": "C2",
          "ticks": 41856,
          "time": 80.245364,
          "velocity": 0.8818897637795275
        },
        {
          "duration": 0.015337416666667991,
          "durationTicks": 8,
          "midi": 42,
          "name": "F#2",
          "ticks": 41856,
          "time": 80.245364,
          "velocity": 0.6535433070866141
        },
        {
          "duration": 0.015337416666667991,
          "durationTicks": 8,
          "midi": 54,
          "name": "F#3",
          "ticks": 41856,
          "time": 80.245364,
          "velocity": 0.48031496062992124
        },
        {
          "duration": 0.015337416666667991,
          "durationTicks": 8,
          "midi": 42,
          "name": "F#2",
          "ticks": 41952,
          "time": 80.429413,
          "velocity": 0.48031496062992124
        },
        {
          "duration": 0.015337416666667991,
          "durationTicks": 8,
          "midi": 54,
          "name": "F#3",
          "ticks": 41952,
          "time": 80.429413,
          "velocity": 0.5590551181102362
        },
        {
          "duration": 0.01533741666665378,
          "durationTicks": 8,
          "midi": 54,
          "name": "F#3",
          "ticks": 42048,
          "time": 80.613462,
          "velocity": 0.9133858267716536
        },
        {
          "duration": 0.01533741666665378,
          "durationTicks": 8,
          "midi": 42,
          "name": "F#2",
          "ticks": 42048,
          "time": 80.613462,
          "velocity": 0.7874015748031497
        },
        {
          "duration": 0.01533741666665378,
          "durationTicks": 8,
          "midi": 39,
          "name": "D#2",
          "ticks": 42048,
          "time": 80.613462,
          "velocity": 0.8661417322834646
        },
        {
          "duration": 0.01533741666665378,
          "durationTicks": 8,
          "midi": 40,
          "name": "E2",
          "ticks": 42048,
          "time": 80.613462,
          "velocity": 0.7480314960629921
        },
        {
          "duration": 0.01533741666665378,
          "durationTicks": 8,
          "midi": 54,
          "name": "F#3",
          "ticks": 42144,
          "time": 80.797511,
          "velocity": 0.6535433070866141
        },
        {
          "duration": 0.01533741666665378,
          "durationTicks": 8,
          "midi": 42,
          "name": "F#2",
          "ticks": 42144,
          "time": 80.797511,
          "velocity": 0.5590551181102362
        },
        {
          "duration": 0.01533741666665378,
          "durationTicks": 8,
          "midi": 42,
          "name": "F#2",
          "ticks": 42240,
          "time": 80.98156,
          "velocity": 0.7874015748031497
        },
        {
          "duration": 0.01533741666665378,
          "durationTicks": 8,
          "midi": 36,
          "name": "C2",
          "ticks": 42240,
          "time": 80.98156,
          "velocity": 0.8818897637795275
        },
        {
          "duration": 0.01533741666665378,
          "durationTicks": 8,
          "midi": 54,
          "name": "F#3",
          "ticks": 42240,
          "time": 80.98156,
          "velocity": 0.5590551181102362
        },
        {
          "duration": 0.015337416666667991,
          "durationTicks": 8,
          "midi": 54,
          "name": "F#3",
          "ticks": 42336,
          "time": 81.16560899999999,
          "velocity": 0.4251968503937008
        },
        {
          "duration": 0.015337416666667991,
          "durationTicks": 8,
          "midi": 42,
          "name": "F#2",
          "ticks": 42336,
          "time": 81.16560899999999,
          "velocity": 0.4251968503937008
        },
        {
          "duration": 0.015337416666667991,
          "durationTicks": 8,
          "midi": 40,
          "name": "E2",
          "ticks": 42432,
          "time": 81.34965799999999,
          "velocity": 0.8818897637795275
        },
        {
          "duration": 0.015337416666667991,
          "durationTicks": 8,
          "midi": 39,
          "name": "D#2",
          "ticks": 42432,
          "time": 81.34965799999999,
          "velocity": 0.8661417322834646
        },
        {
          "duration": 0.015337416666667991,
          "durationTicks": 8,
          "midi": 42,
          "name": "F#2",
          "ticks": 42432,
          "time": 81.34965799999999,
          "velocity": 0.6535433070866141
        },
        {
          "duration": 0.015337416666667991,
          "durationTicks": 8,
          "midi": 54,
          "name": "F#3",
          "ticks": 42432,
          "time": 81.34965799999999,
          "velocity": 0.9133858267716536
        },
        {
          "duration": 0.015337416666667991,
          "durationTicks": 8,
          "midi": 54,
          "name": "F#3",
          "ticks": 42528,
          "time": 81.53370699999999,
          "velocity": 0.5590551181102362
        },
        {
          "duration": 0.015337416666667991,
          "durationTicks": 8,
          "midi": 42,
          "name": "F#2",
          "ticks": 42528,
          "time": 81.53370699999999,
          "velocity": 0.4251968503937008
        },
        {
          "duration": 0.015337416666667991,
          "durationTicks": 8,
          "midi": 36,
          "name": "C2",
          "ticks": 42624,
          "time": 81.717756,
          "velocity": 0.6299212598425197
        },
        {
          "duration": 0.015337416666667991,
          "durationTicks": 8,
          "midi": 54,
          "name": "F#3",
          "ticks": 42624,
          "time": 81.717756,
          "velocity": 0.5590551181102362
        },
        {
          "duration": 0.015337416666667991,
          "durationTicks": 8,
          "midi": 42,
          "name": "F#2",
          "ticks": 42624,
          "time": 81.717756,
          "velocity": 0.6535433070866141
        },
        {
          "duration": 0.015337416666667991,
          "durationTicks": 8,
          "midi": 42,
          "name": "F#2",
          "ticks": 42720,
          "time": 81.901805,
          "velocity": 0.3779527559055118
        },
        {
          "duration": 0.015337416666667991,
          "durationTicks": 8,
          "midi": 54,
          "name": "F#3",
          "ticks": 42720,
          "time": 81.901805,
          "velocity": 0.5590551181102362
        },
        {
          "duration": 0.015337416666667991,
          "durationTicks": 8,
          "midi": 54,
          "name": "F#3",
          "ticks": 42816,
          "time": 82.085854,
          "velocity": 0.9133858267716536
        },
        {
          "duration": 0.015337416666667991,
          "durationTicks": 8,
          "midi": 39,
          "name": "D#2",
          "ticks": 42816,
          "time": 82.085854,
          "velocity": 0.8661417322834646
        },
        {
          "duration": 0.015337416666667991,
          "durationTicks": 8,
          "midi": 40,
          "name": "E2",
          "ticks": 42816,
          "time": 82.085854,
          "velocity": 0.9763779527559056
        },
        {
          "duration": 0.015337416666667991,
          "durationTicks": 8,
          "midi": 42,
          "name": "F#2",
          "ticks": 42816,
          "time": 82.085854,
          "velocity": 0.6535433070866141
        },
        {
          "duration": 0.01533741666665378,
          "durationTicks": 8,
          "midi": 54,
          "name": "F#3",
          "ticks": 42912,
          "time": 82.269903,
          "velocity": 0.5590551181102362
        },
        {
          "duration": 0.01533741666665378,
          "durationTicks": 8,
          "midi": 42,
          "name": "F#2",
          "ticks": 42912,
          "time": 82.269903,
          "velocity": 0.48031496062992124
        },
        {
          "duration": 0.01533741666665378,
          "durationTicks": 8,
          "midi": 36,
          "name": "C2",
          "ticks": 43008,
          "time": 82.453952,
          "velocity": 0.7480314960629921
        },
        {
          "duration": 0.01533741666665378,
          "durationTicks": 8,
          "midi": 54,
          "name": "F#3",
          "ticks": 43008,
          "time": 82.453952,
          "velocity": 0.5590551181102362
        },
        {
          "duration": 0.01533741666665378,
          "durationTicks": 8,
          "midi": 42,
          "name": "F#2",
          "ticks": 43008,
          "time": 82.453952,
          "velocity": 0.6535433070866141
        },
        {
          "duration": 0.01533741666665378,
          "durationTicks": 8,
          "midi": 42,
          "name": "F#2",
          "ticks": 43104,
          "time": 82.638001,
          "velocity": 0.48031496062992124
        },
        {
          "duration": 0.01533741666665378,
          "durationTicks": 8,
          "midi": 54,
          "name": "F#3",
          "ticks": 43104,
          "time": 82.638001,
          "velocity": 0.6535433070866141
        },
        {
          "duration": 0.015337416666667991,
          "durationTicks": 8,
          "midi": 54,
          "name": "F#3",
          "ticks": 43200,
          "time": 82.82204999999999,
          "velocity": 0.9133858267716536
        },
        {
          "duration": 0.015337416666667991,
          "durationTicks": 8,
          "midi": 39,
          "name": "D#2",
          "ticks": 43200,
          "time": 82.82204999999999,
          "velocity": 0.8661417322834646
        },
        {
          "duration": 0.015337416666667991,
          "durationTicks": 8,
          "midi": 40,
          "name": "E2",
          "ticks": 43200,
          "time": 82.82204999999999,
          "velocity": 0.8818897637795275
        },
        {
          "duration": 0.015337416666667991,
          "durationTicks": 8,
          "midi": 42,
          "name": "F#2",
          "ticks": 43200,
          "time": 82.82204999999999,
          "velocity": 0.6535433070866141
        },
        {
          "duration": 0.015337416666667991,
          "durationTicks": 8,
          "midi": 42,
          "name": "F#2",
          "ticks": 43296,
          "time": 83.00609899999999,
          "velocity": 0.5590551181102362
        },
        {
          "duration": 0.015337416666667991,
          "durationTicks": 8,
          "midi": 54,
          "name": "F#3",
          "ticks": 43296,
          "time": 83.00609899999999,
          "velocity": 0.5590551181102362
        },
        {
          "duration": 0.015337416666667991,
          "durationTicks": 8,
          "midi": 36,
          "name": "C2",
          "ticks": 43392,
          "time": 83.190148,
          "velocity": 0.8818897637795275
        },
        {
          "duration": 0.015337416666667991,
          "durationTicks": 8,
          "midi": 54,
          "name": "F#3",
          "ticks": 43392,
          "time": 83.190148,
          "velocity": 0.6535433070866141
        },
        {
          "duration": 0.015337416666667991,
          "durationTicks": 8,
          "midi": 42,
          "name": "F#2",
          "ticks": 43392,
          "time": 83.190148,
          "velocity": 0.6535433070866141
        },
        {
          "duration": 0.015337416666667991,
          "durationTicks": 8,
          "midi": 42,
          "name": "F#2",
          "ticks": 43488,
          "time": 83.374197,
          "velocity": 0.5590551181102362
        },
        {
          "duration": 0.015337416666667991,
          "durationTicks": 8,
          "midi": 54,
          "name": "F#3",
          "ticks": 43488,
          "time": 83.374197,
          "velocity": 0.6535433070866141
        },
        {
          "duration": 0.015337416666667991,
          "durationTicks": 8,
          "midi": 39,
          "name": "D#2",
          "ticks": 43584,
          "time": 83.558246,
          "velocity": 0.8661417322834646
        },
        {
          "duration": 0.015337416666667991,
          "durationTicks": 8,
          "midi": 42,
          "name": "F#2",
          "ticks": 43584,
          "time": 83.558246,
          "velocity": 0.6535433070866141
        },
        {
          "duration": 0.015337416666667991,
          "durationTicks": 8,
          "midi": 40,
          "name": "E2",
          "ticks": 43584,
          "time": 83.558246,
          "velocity": 0.9763779527559056
        },
        {
          "duration": 0.015337416666667991,
          "durationTicks": 8,
          "midi": 54,
          "name": "F#3",
          "ticks": 43584,
          "time": 83.558246,
          "velocity": 0.9133858267716536
        },
        {
          "duration": 0.01533741666665378,
          "durationTicks": 8,
          "midi": 54,
          "name": "F#3",
          "ticks": 43680,
          "time": 83.742295,
          "velocity": 0.6535433070866141
        },
        {
          "duration": 0.01533741666665378,
          "durationTicks": 8,
          "midi": 42,
          "name": "F#2",
          "ticks": 43680,
          "time": 83.742295,
          "velocity": 0.48031496062992124
        },
        {
          "duration": 0.01533741666665378,
          "durationTicks": 8,
          "midi": 42,
          "name": "F#2",
          "ticks": 43776,
          "time": 83.926344,
          "velocity": 0.6535433070866141
        },
        {
          "duration": 0.01533741666665378,
          "durationTicks": 8,
          "midi": 36,
          "name": "C2",
          "ticks": 43776,
          "time": 83.926344,
          "velocity": 0.7480314960629921
        },
        {
          "duration": 0.01533741666665378,
          "durationTicks": 8,
          "midi": 54,
          "name": "F#3",
          "ticks": 43776,
          "time": 83.926344,
          "velocity": 0.6535433070866141
        },
        {
          "duration": 0.01533741666665378,
          "durationTicks": 8,
          "midi": 54,
          "name": "F#3",
          "ticks": 43872,
          "time": 84.110393,
          "velocity": 0.48031496062992124
        },
        {
          "duration": 0.01533741666665378,
          "durationTicks": 8,
          "midi": 42,
          "name": "F#2",
          "ticks": 43872,
          "time": 84.110393,
          "velocity": 0.3779527559055118
        },
        {
          "duration": 0.015337416666667991,
          "durationTicks": 8,
          "midi": 39,
          "name": "D#2",
          "ticks": 43968,
          "time": 84.29444199999999,
          "velocity": 0.8661417322834646
        },
        {
          "duration": 0.015337416666667991,
          "durationTicks": 8,
          "midi": 42,
          "name": "F#2",
          "ticks": 43968,
          "time": 84.29444199999999,
          "velocity": 0.6535433070866141
        },
        {
          "duration": 0.015337416666667991,
          "durationTicks": 8,
          "midi": 54,
          "name": "F#3",
          "ticks": 43968,
          "time": 84.29444199999999,
          "velocity": 0.9133858267716536
        },
        {
          "duration": 0.015337416666667991,
          "durationTicks": 8,
          "midi": 40,
          "name": "E2",
          "ticks": 43968,
          "time": 84.29444199999999,
          "velocity": 0.8818897637795275
        },
        {
          "duration": 0.015337416666667991,
          "durationTicks": 8,
          "midi": 42,
          "name": "F#2",
          "ticks": 44064,
          "time": 84.47849099999999,
          "velocity": 0.4251968503937008
        },
        {
          "duration": 0.015337416666667991,
          "durationTicks": 8,
          "midi": 54,
          "name": "F#3",
          "ticks": 44064,
          "time": 84.47849099999999,
          "velocity": 0.5590551181102362
        },
        {
          "duration": 0.015337416666667991,
          "durationTicks": 8,
          "midi": 42,
          "name": "F#2",
          "ticks": 44160,
          "time": 84.66253999999999,
          "velocity": 0.6535433070866141
        },
        {
          "duration": 0.015337416666667991,
          "durationTicks": 8,
          "midi": 54,
          "name": "F#3",
          "ticks": 44160,
          "time": 84.66253999999999,
          "velocity": 0.5590551181102362
        },
        {
          "duration": 0.015337416666667991,
          "durationTicks": 8,
          "midi": 36,
          "name": "C2",
          "ticks": 44160,
          "time": 84.66253999999999,
          "velocity": 0.7480314960629921
        },
        {
          "duration": 0.015337416666667991,
          "durationTicks": 8,
          "midi": 42,
          "name": "F#2",
          "ticks": 44256,
          "time": 84.846589,
          "velocity": 0.3779527559055118
        },
        {
          "duration": 0.015337416666667991,
          "durationTicks": 8,
          "midi": 54,
          "name": "F#3",
          "ticks": 44256,
          "time": 84.846589,
          "velocity": 0.5590551181102362
        },
        {
          "duration": 0.015337416666667991,
          "durationTicks": 8,
          "midi": 40,
          "name": "E2",
          "ticks": 44352,
          "time": 85.030638,
          "velocity": 0.9763779527559056
        },
        {
          "duration": 0.015337416666667991,
          "durationTicks": 8,
          "midi": 54,
          "name": "F#3",
          "ticks": 44352,
          "time": 85.030638,
          "velocity": 0.9133858267716536
        },
        {
          "duration": 0.015337416666667991,
          "durationTicks": 8,
          "midi": 39,
          "name": "D#2",
          "ticks": 44352,
          "time": 85.030638,
          "velocity": 0.8661417322834646
        },
        {
          "duration": 0.015337416666667991,
          "durationTicks": 8,
          "midi": 42,
          "name": "F#2",
          "ticks": 44352,
          "time": 85.030638,
          "velocity": 0.6535433070866141
        },
        {
          "duration": 0.01533741666665378,
          "durationTicks": 8,
          "midi": 42,
          "name": "F#2",
          "ticks": 44448,
          "time": 85.214687,
          "velocity": 0.5590551181102362
        },
        {
          "duration": 0.01533741666665378,
          "durationTicks": 8,
          "midi": 54,
          "name": "F#3",
          "ticks": 44448,
          "time": 85.214687,
          "velocity": 0.6535433070866141
        },
        {
          "duration": 0.01533741666665378,
          "durationTicks": 8,
          "midi": 36,
          "name": "C2",
          "ticks": 44544,
          "time": 85.398736,
          "velocity": 0.8818897637795275
        },
        {
          "duration": 0.01533741666665378,
          "durationTicks": 8,
          "midi": 54,
          "name": "F#3",
          "ticks": 44544,
          "time": 85.398736,
          "velocity": 0.6535433070866141
        },
        {
          "duration": 0.01533741666665378,
          "durationTicks": 8,
          "midi": 42,
          "name": "F#2",
          "ticks": 44544,
          "time": 85.398736,
          "velocity": 0.6535433070866141
        },
        {
          "duration": 0.01533741666665378,
          "durationTicks": 8,
          "midi": 54,
          "name": "F#3",
          "ticks": 44640,
          "time": 85.582785,
          "velocity": 0.48031496062992124
        },
        {
          "duration": 0.01533741666665378,
          "durationTicks": 8,
          "midi": 42,
          "name": "F#2",
          "ticks": 44640,
          "time": 85.582785,
          "velocity": 0.48031496062992124
        },
        {
          "duration": 0.015337416666667991,
          "durationTicks": 8,
          "midi": 54,
          "name": "F#3",
          "ticks": 44736,
          "time": 85.76683399999999,
          "velocity": 0.9133858267716536
        },
        {
          "duration": 0.015337416666667991,
          "durationTicks": 8,
          "midi": 39,
          "name": "D#2",
          "ticks": 44736,
          "time": 85.76683399999999,
          "velocity": 0.8661417322834646
        },
        {
          "duration": 0.015337416666667991,
          "durationTicks": 8,
          "midi": 40,
          "name": "E2",
          "ticks": 44736,
          "time": 85.76683399999999,
          "velocity": 0.8818897637795275
        },
        {
          "duration": 0.015337416666667991,
          "durationTicks": 8,
          "midi": 42,
          "name": "F#2",
          "ticks": 44736,
          "time": 85.76683399999999,
          "velocity": 0.7874015748031497
        },
        {
          "duration": 0.015337416666667991,
          "durationTicks": 8,
          "midi": 54,
          "name": "F#3",
          "ticks": 44832,
          "time": 85.95088299999999,
          "velocity": 0.6535433070866141
        },
        {
          "duration": 0.015337416666667991,
          "durationTicks": 8,
          "midi": 42,
          "name": "F#2",
          "ticks": 44832,
          "time": 85.95088299999999,
          "velocity": 0.48031496062992124
        },
        {
          "duration": 0.015337416666667991,
          "durationTicks": 8,
          "midi": 42,
          "name": "F#2",
          "ticks": 44928,
          "time": 86.13493199999999,
          "velocity": 0.6535433070866141
        },
        {
          "duration": 0.015337416666667991,
          "durationTicks": 8,
          "midi": 54,
          "name": "F#3",
          "ticks": 44928,
          "time": 86.13493199999999,
          "velocity": 0.6535433070866141
        },
        {
          "duration": 0.015337416666667991,
          "durationTicks": 8,
          "midi": 36,
          "name": "C2",
          "ticks": 44928,
          "time": 86.13493199999999,
          "velocity": 0.8818897637795275
        },
        {
          "duration": 0.015337416666667991,
          "durationTicks": 8,
          "midi": 42,
          "name": "F#2",
          "ticks": 45024,
          "time": 86.318981,
          "velocity": 0.48031496062992124
        },
        {
          "duration": 0.015337416666667991,
          "durationTicks": 8,
          "midi": 54,
          "name": "F#3",
          "ticks": 45024,
          "time": 86.318981,
          "velocity": 0.48031496062992124
        },
        {
          "duration": 0.015337416666667991,
          "durationTicks": 8,
          "midi": 42,
          "name": "F#2",
          "ticks": 45120,
          "time": 86.50303,
          "velocity": 0.7874015748031497
        },
        {
          "duration": 0.015337416666667991,
          "durationTicks": 8,
          "midi": 54,
          "name": "F#3",
          "ticks": 45120,
          "time": 86.50303,
          "velocity": 0.9133858267716536
        },
        {
          "duration": 0.015337416666667991,
          "durationTicks": 8,
          "midi": 40,
          "name": "E2",
          "ticks": 45120,
          "time": 86.50303,
          "velocity": 0.7480314960629921
        },
        {
          "duration": 0.015337416666667991,
          "durationTicks": 8,
          "midi": 39,
          "name": "D#2",
          "ticks": 45120,
          "time": 86.50303,
          "velocity": 0.8661417322834646
        },
        {
          "duration": 0.015337416666667991,
          "durationTicks": 8,
          "midi": 54,
          "name": "F#3",
          "ticks": 45216,
          "time": 86.687079,
          "velocity": 0.6535433070866141
        },
        {
          "duration": 0.015337416666667991,
          "durationTicks": 8,
          "midi": 42,
          "name": "F#2",
          "ticks": 45216,
          "time": 86.687079,
          "velocity": 0.5590551181102362
        },
        {
          "duration": 0.01533741666665378,
          "durationTicks": 8,
          "midi": 54,
          "name": "F#3",
          "ticks": 45312,
          "time": 86.871128,
          "velocity": 0.48031496062992124
        },
        {
          "duration": 0.01533741666665378,
          "durationTicks": 8,
          "midi": 40,
          "name": "E2",
          "ticks": 45312,
          "time": 86.871128,
          "velocity": 0.8818897637795275
        },
        {
          "duration": 0.01533741666665378,
          "durationTicks": 8,
          "midi": 36,
          "name": "C2",
          "ticks": 45312,
          "time": 86.871128,
          "velocity": 0.8818897637795275
        },
        {
          "duration": 0.01533741666665378,
          "durationTicks": 8,
          "midi": 54,
          "name": "F#3",
          "ticks": 45408,
          "time": 87.055177,
          "velocity": 0.3779527559055118
        },
        {
          "duration": 0.01533741666665378,
          "durationTicks": 8,
          "midi": 54,
          "name": "F#3",
          "ticks": 45504,
          "time": 87.239226,
          "velocity": 0.9133858267716536
        },
        {
          "duration": 0.015337416666667991,
          "durationTicks": 8,
          "midi": 54,
          "name": "F#3",
          "ticks": 45600,
          "time": 87.42327499999999,
          "velocity": 0.3779527559055118
        },
        {
          "duration": 0.015337416666667991,
          "durationTicks": 8,
          "midi": 54,
          "name": "F#3",
          "ticks": 45696,
          "time": 87.60732399999999,
          "velocity": 0.3779527559055118
        },
        {
          "duration": 0.015337416666667991,
          "durationTicks": 8,
          "midi": 54,
          "name": "F#3",
          "ticks": 45792,
          "time": 87.791373,
          "velocity": 0.3464566929133858
        },
        {
          "duration": 0.015337416666667991,
          "durationTicks": 8,
          "midi": 39,
          "name": "D#2",
          "ticks": 45888,
          "time": 87.975422,
          "velocity": 0.8661417322834646
        },
        {
          "duration": 0.015337416666667991,
          "durationTicks": 8,
          "midi": 54,
          "name": "F#3",
          "ticks": 45888,
          "time": 87.975422,
          "velocity": 0.9133858267716536
        },
        {
          "duration": 0.015337416666667991,
          "durationTicks": 8,
          "midi": 42,
          "name": "F#2",
          "ticks": 45888,
          "time": 87.975422,
          "velocity": 0.9133858267716536
        },
        {
          "duration": 0.015337416666667991,
          "durationTicks": 8,
          "midi": 54,
          "name": "F#3",
          "ticks": 45984,
          "time": 88.159471,
          "velocity": 0.4251968503937008
        },
        {
          "duration": 0.01533741666665378,
          "durationTicks": 8,
          "midi": 54,
          "name": "F#3",
          "ticks": 46080,
          "time": 88.34352,
          "velocity": 0.7874015748031497
        },
        {
          "duration": 0.01533741666665378,
          "durationTicks": 8,
          "midi": 54,
          "name": "F#3",
          "ticks": 46176,
          "time": 88.527569,
          "velocity": 0.4251968503937008
        },
        {
          "duration": 0.01533741666665378,
          "durationTicks": 8,
          "midi": 54,
          "name": "F#3",
          "ticks": 46272,
          "time": 88.711618,
          "velocity": 0.9133858267716536
        },
        {
          "duration": 0.01533741666665378,
          "durationTicks": 8,
          "midi": 42,
          "name": "F#2",
          "ticks": 46272,
          "time": 88.711618,
          "velocity": 0.9133858267716536
        },
        {
          "duration": 0.015337416666667991,
          "durationTicks": 8,
          "midi": 54,
          "name": "F#3",
          "ticks": 46368,
          "time": 88.89566699999999,
          "velocity": 0.3779527559055118
        },
        {
          "duration": 0.015337416666667991,
          "durationTicks": 8,
          "midi": 54,
          "name": "F#3",
          "ticks": 46464,
          "time": 89.07971599999999,
          "velocity": 0.5590551181102362
        },
        {
          "duration": 0.015337416666667991,
          "durationTicks": 8,
          "midi": 54,
          "name": "F#3",
          "ticks": 46560,
          "time": 89.26376499999999,
          "velocity": 0.5590551181102362
        },
        {
          "duration": 0.015337416666667991,
          "durationTicks": 8,
          "midi": 42,
          "name": "F#2",
          "ticks": 46656,
          "time": 89.447814,
          "velocity": 0.7874015748031497
        },
        {
          "duration": 0.015337416666667991,
          "durationTicks": 8,
          "midi": 54,
          "name": "F#3",
          "ticks": 46656,
          "time": 89.447814,
          "velocity": 0.9133858267716536
        },
        {
          "duration": 0.015337416666667991,
          "durationTicks": 8,
          "midi": 39,
          "name": "D#2",
          "ticks": 46656,
          "time": 89.447814,
          "velocity": 0.8661417322834646
        },
        {
          "duration": 0.015337416666667991,
          "durationTicks": 8,
          "midi": 54,
          "name": "F#3",
          "ticks": 46752,
          "time": 89.631863,
          "velocity": 0.5590551181102362
        },
        {
          "duration": 0.015337416666667991,
          "durationTicks": 8,
          "midi": 54,
          "name": "F#3",
          "ticks": 46848,
          "time": 89.815912,
          "velocity": 0.48031496062992124
        },
        {
          "duration": 0.01533741666665378,
          "durationTicks": 8,
          "midi": 54,
          "name": "F#3",
          "ticks": 46944,
          "time": 89.999961,
          "velocity": 0.6535433070866141
        },
        {
          "duration": 0.01533741666665378,
          "durationTicks": 8,
          "midi": 42,
          "name": "F#2",
          "ticks": 47040,
          "time": 90.18401,
          "velocity": 0.9133858267716536
        },
        {
          "duration": 0.01533741666665378,
          "durationTicks": 8,
          "midi": 54,
          "name": "F#3",
          "ticks": 47040,
          "time": 90.18401,
          "velocity": 0.9133858267716536
        },
        {
          "duration": 0.01533741666665378,
          "durationTicks": 8,
          "midi": 54,
          "name": "F#3",
          "ticks": 47136,
          "time": 90.368059,
          "velocity": 0.5590551181102362
        },
        {
          "duration": 0.015337416666667991,
          "durationTicks": 8,
          "midi": 54,
          "name": "F#3",
          "ticks": 47232,
          "time": 90.55210799999999,
          "velocity": 0.5590551181102362
        },
        {
          "duration": 0.015337416666667991,
          "durationTicks": 8,
          "midi": 54,
          "name": "F#3",
          "ticks": 47328,
          "time": 90.73615699999999,
          "velocity": 0.6535433070866141
        },
        {
          "duration": 0.015337416666667991,
          "durationTicks": 8,
          "midi": 42,
          "name": "F#2",
          "ticks": 47424,
          "time": 90.920206,
          "velocity": 0.9133858267716536
        },
        {
          "duration": 0.015337416666667991,
          "durationTicks": 8,
          "midi": 54,
          "name": "F#3",
          "ticks": 47424,
          "time": 90.920206,
          "velocity": 0.9133858267716536
        },
        {
          "duration": 0.015337416666667991,
          "durationTicks": 8,
          "midi": 39,
          "name": "D#2",
          "ticks": 47424,
          "time": 90.920206,
          "velocity": 0.8661417322834646
        },
        {
          "duration": 0.015337416666667991,
          "durationTicks": 8,
          "midi": 54,
          "name": "F#3",
          "ticks": 47520,
          "time": 91.104255,
          "velocity": 0.6535433070866141
        },
        {
          "duration": 0.015337416666667991,
          "durationTicks": 8,
          "midi": 54,
          "name": "F#3",
          "ticks": 47616,
          "time": 91.288304,
          "velocity": 0.5590551181102362
        },
        {
          "duration": 0.01533741666665378,
          "durationTicks": 8,
          "midi": 54,
          "name": "F#3",
          "ticks": 47712,
          "time": 91.472353,
          "velocity": 0.5590551181102362
        },
        {
          "duration": 0.01533741666665378,
          "durationTicks": 8,
          "midi": 42,
          "name": "F#2",
          "ticks": 47808,
          "time": 91.656402,
          "velocity": 0.7874015748031497
        },
        {
          "duration": 0.01533741666665378,
          "durationTicks": 8,
          "midi": 54,
          "name": "F#3",
          "ticks": 47808,
          "time": 91.656402,
          "velocity": 0.9133858267716536
        },
        {
          "duration": 0.01533741666665378,
          "durationTicks": 8,
          "midi": 54,
          "name": "F#3",
          "ticks": 47904,
          "time": 91.840451,
          "velocity": 0.5590551181102362
        },
        {
          "duration": 0.015337416666667991,
          "durationTicks": 8,
          "midi": 54,
          "name": "F#3",
          "ticks": 48000,
          "time": 92.02449999999999,
          "velocity": 0.48031496062992124
        },
        {
          "duration": 0.015337416666667991,
          "durationTicks": 8,
          "midi": 54,
          "name": "F#3",
          "ticks": 48096,
          "time": 92.20854899999999,
          "velocity": 0.5590551181102362
        },
        {
          "duration": 0.015337416666667991,
          "durationTicks": 8,
          "midi": 39,
          "name": "D#2",
          "ticks": 48192,
          "time": 92.39259799999999,
          "velocity": 0.8661417322834646
        },
        {
          "duration": 0.015337416666667991,
          "durationTicks": 8,
          "midi": 54,
          "name": "F#3",
          "ticks": 48192,
          "time": 92.39259799999999,
          "velocity": 0.9133858267716536
        },
        {
          "duration": 0.015337416666667991,
          "durationTicks": 8,
          "midi": 42,
          "name": "F#2",
          "ticks": 48192,
          "time": 92.39259799999999,
          "velocity": 0.7874015748031497
        },
        {
          "duration": 0.015337416666667991,
          "durationTicks": 8,
          "midi": 54,
          "name": "F#3",
          "ticks": 48288,
          "time": 92.576647,
          "velocity": 0.6535433070866141
        },
        {
          "duration": 0.015337416666667991,
          "durationTicks": 8,
          "midi": 54,
          "name": "F#3",
          "ticks": 48384,
          "time": 92.760696,
          "velocity": 0.5590551181102362
        },
        {
          "duration": 0.015337416666667991,
          "durationTicks": 8,
          "midi": 36,
          "name": "C2",
          "ticks": 48384,
          "time": 92.760696,
          "velocity": 0.9763779527559056
        },
        {
          "duration": 0.015337416666667991,
          "durationTicks": 8,
          "midi": 40,
          "name": "E2",
          "ticks": 48384,
          "time": 92.760696,
          "velocity": 0.8818897637795275
        },
        {
          "duration": 0.01533741666665378,
          "durationTicks": 8,
          "midi": 54,
          "name": "F#3",
          "ticks": 48480,
          "time": 92.944745,
          "velocity": 0.4251968503937008
        },
        {
          "duration": 0.01533741666665378,
          "durationTicks": 8,
          "midi": 54,
          "name": "F#3",
          "ticks": 48576,
          "time": 93.128794,
          "velocity": 0.9133858267716536
        },
        {
          "duration": 0.01533741666665378,
          "durationTicks": 8,
          "midi": 39,
          "name": "D#2",
          "ticks": 48576,
          "time": 93.128794,
          "velocity": 0.8661417322834646
        },
        {
          "duration": 0.01533741666665378,
          "durationTicks": 8,
          "midi": 42,
          "name": "F#2",
          "ticks": 48576,
          "time": 93.128794,
          "velocity": 0.9133858267716536
        },
        {
          "duration": 0.01533741666665378,
          "durationTicks": 8,
          "midi": 54,
          "name": "F#3",
          "ticks": 48672,
          "time": 93.312843,
          "velocity": 0.5590551181102362
        },
        {
          "duration": 0.015337416666667991,
          "durationTicks": 8,
          "midi": 54,
          "name": "F#3",
          "ticks": 48768,
          "time": 93.49689199999999,
          "velocity": 0.5590551181102362
        },
        {
          "duration": 0.015337416666667991,
          "durationTicks": 8,
          "midi": 54,
          "name": "F#3",
          "ticks": 48864,
          "time": 93.68094099999999,
          "velocity": 0.5590551181102362
        },
        {
          "duration": 0.015337416666667991,
          "durationTicks": 8,
          "midi": 54,
          "name": "F#3",
          "ticks": 48960,
          "time": 93.86498999999999,
          "velocity": 0.9133858267716536
        },
        {
          "duration": 0.015337416666667991,
          "durationTicks": 8,
          "midi": 39,
          "name": "D#2",
          "ticks": 48960,
          "time": 93.86498999999999,
          "velocity": 0.8661417322834646
        },
        {
          "duration": 0.015337416666667991,
          "durationTicks": 8,
          "midi": 42,
          "name": "F#2",
          "ticks": 48960,
          "time": 93.86498999999999,
          "velocity": 0.7874015748031497
        },
        {
          "duration": 0.015337416666667991,
          "durationTicks": 8,
          "midi": 54,
          "name": "F#3",
          "ticks": 49056,
          "time": 94.049039,
          "velocity": 0.5590551181102362
        },
        {
          "duration": 0.015337416666667991,
          "durationTicks": 8,
          "midi": 54,
          "name": "F#3",
          "ticks": 49152,
          "time": 94.233088,
          "velocity": 0.5590551181102362
        },
        {
          "duration": 0.015337416666667991,
          "durationTicks": 8,
          "midi": 54,
          "name": "F#3",
          "ticks": 49248,
          "time": 94.417137,
          "velocity": 0.6535433070866141
        },
        {
          "duration": 0.015337416666667991,
          "durationTicks": 8,
          "midi": 39,
          "name": "D#2",
          "ticks": 49344,
          "time": 94.601186,
          "velocity": 0.8661417322834646
        },
        {
          "duration": 0.015337416666667991,
          "durationTicks": 8,
          "midi": 42,
          "name": "F#2",
          "ticks": 49344,
          "time": 94.601186,
          "velocity": 0.7874015748031497
        },
        {
          "duration": 0.015337416666667991,
          "durationTicks": 8,
          "midi": 54,
          "name": "F#3",
          "ticks": 49344,
          "time": 94.601186,
          "velocity": 0.9133858267716536
        },
        {
          "duration": 0.015337416666667991,
          "durationTicks": 8,
          "midi": 54,
          "name": "F#3",
          "ticks": 49440,
          "time": 94.785235,
          "velocity": 0.5590551181102362
        },
        {
          "duration": 0.015337416666667991,
          "durationTicks": 8,
          "midi": 54,
          "name": "F#3",
          "ticks": 49536,
          "time": 94.969284,
          "velocity": 0.6535433070866141
        },
        {
          "duration": 0.015337416666682202,
          "durationTicks": 8,
          "midi": 40,
          "name": "E2",
          "ticks": 49632,
          "time": 95.15333299999999,
          "velocity": 0.6299212598425197
        },
        {
          "duration": 0.015337416666682202,
          "durationTicks": 8,
          "midi": 54,
          "name": "F#3",
          "ticks": 49632,
          "time": 95.15333299999999,
          "velocity": 0.6535433070866141
        },
        {
          "duration": 0.015337416666682202,
          "durationTicks": 8,
          "midi": 40,
          "name": "E2",
          "ticks": 49728,
          "time": 95.33738199999999,
          "velocity": 0.8818897637795275
        },
        {
          "duration": 0.015337416666682202,
          "durationTicks": 8,
          "midi": 39,
          "name": "D#2",
          "ticks": 49728,
          "time": 95.33738199999999,
          "velocity": 0.8661417322834646
        },
        {
          "duration": 0.015337416666682202,
          "durationTicks": 8,
          "midi": 54,
          "name": "F#3",
          "ticks": 49728,
          "time": 95.33738199999999,
          "velocity": 0.9133858267716536
        },
        {
          "duration": 0.015337416666682202,
          "durationTicks": 8,
          "midi": 54,
          "name": "F#3",
          "ticks": 49824,
          "time": 95.52143099999999,
          "velocity": 0.6535433070866141
        },
        {
          "duration": 0.015337416666667991,
          "durationTicks": 8,
          "midi": 42,
          "name": "F#2",
          "ticks": 49920,
          "time": 95.70548,
          "velocity": 0.7874015748031497
        },
        {
          "duration": 0.015337416666667991,
          "durationTicks": 8,
          "midi": 36,
          "name": "C2",
          "ticks": 49920,
          "time": 95.70548,
          "velocity": 0.8818897637795275
        },
        {
          "duration": 0.015337416666667991,
          "durationTicks": 8,
          "midi": 42,
          "name": "F#2",
          "ticks": 50016,
          "time": 95.889529,
          "velocity": 0.4251968503937008
        },
        {
          "duration": 0.015337416666667991,
          "durationTicks": 8,
          "midi": 39,
          "name": "D#2",
          "ticks": 50112,
          "time": 96.073578,
          "velocity": 0.8661417322834646
        },
        {
          "duration": 0.015337416666667991,
          "durationTicks": 8,
          "midi": 40,
          "name": "E2",
          "ticks": 50112,
          "time": 96.073578,
          "velocity": 0.8818897637795275
        },
        {
          "duration": 0.015337416666667991,
          "durationTicks": 8,
          "midi": 42,
          "name": "F#2",
          "ticks": 50112,
          "time": 96.073578,
          "velocity": 0.6535433070866141
        },
        {
          "duration": 0.015337416666667991,
          "durationTicks": 8,
          "midi": 54,
          "name": "F#3",
          "ticks": 50112,
          "time": 96.073578,
          "velocity": 0.9133858267716536
        },
        {
          "duration": 0.015337416666667991,
          "durationTicks": 8,
          "midi": 42,
          "name": "F#2",
          "ticks": 50208,
          "time": 96.257627,
          "velocity": 0.4251968503937008
        },
        {
          "duration": 0.015337416666667991,
          "durationTicks": 8,
          "midi": 36,
          "name": "C2",
          "ticks": 50304,
          "time": 96.441676,
          "velocity": 0.6299212598425197
        },
        {
          "duration": 0.015337416666667991,
          "durationTicks": 8,
          "midi": 42,
          "name": "F#2",
          "ticks": 50304,
          "time": 96.441676,
          "velocity": 0.6535433070866141
        },
        {
          "duration": 0.015337416666682202,
          "durationTicks": 8,
          "midi": 42,
          "name": "F#2",
          "ticks": 50400,
          "time": 96.62572499999999,
          "velocity": 0.3779527559055118
        },
        {
          "duration": 0.015337416666682202,
          "durationTicks": 8,
          "midi": 40,
          "name": "E2",
          "ticks": 50496,
          "time": 96.80977399999999,
          "velocity": 0.9763779527559056
        },
        {
          "duration": 0.015337416666682202,
          "durationTicks": 8,
          "midi": 39,
          "name": "D#2",
          "ticks": 50496,
          "time": 96.80977399999999,
          "velocity": 0.8661417322834646
        },
        {
          "duration": 0.015337416666682202,
          "durationTicks": 8,
          "midi": 42,
          "name": "F#2",
          "ticks": 50496,
          "time": 96.80977399999999,
          "velocity": 0.6535433070866141
        },
        {
          "duration": 0.015337416666682202,
          "durationTicks": 8,
          "midi": 54,
          "name": "F#3",
          "ticks": 50496,
          "time": 96.80977399999999,
          "velocity": 0.7874015748031497
        },
        {
          "duration": 0.015337416666682202,
          "durationTicks": 8,
          "midi": 42,
          "name": "F#2",
          "ticks": 50592,
          "time": 96.99382299999999,
          "velocity": 0.48031496062992124
        },
        {
          "duration": 0.015337416666667991,
          "durationTicks": 8,
          "midi": 42,
          "name": "F#2",
          "ticks": 50688,
          "time": 97.177872,
          "velocity": 0.6535433070866141
        },
        {
          "duration": 0.015337416666667991,
          "durationTicks": 8,
          "midi": 36,
          "name": "C2",
          "ticks": 50688,
          "time": 97.177872,
          "velocity": 0.7480314960629921
        },
        {
          "duration": 0.015337416666667991,
          "durationTicks": 8,
          "midi": 42,
          "name": "F#2",
          "ticks": 50784,
          "time": 97.361921,
          "velocity": 0.48031496062992124
        },
        {
          "duration": 0.015337416666667991,
          "durationTicks": 8,
          "midi": 40,
          "name": "E2",
          "ticks": 50880,
          "time": 97.54597,
          "velocity": 0.8818897637795275
        },
        {
          "duration": 0.015337416666667991,
          "durationTicks": 8,
          "midi": 42,
          "name": "F#2",
          "ticks": 50880,
          "time": 97.54597,
          "velocity": 0.6535433070866141
        },
        {
          "duration": 0.015337416666667991,
          "durationTicks": 8,
          "midi": 39,
          "name": "D#2",
          "ticks": 50880,
          "time": 97.54597,
          "velocity": 0.8661417322834646
        },
        {
          "duration": 0.015337416666667991,
          "durationTicks": 8,
          "midi": 54,
          "name": "F#3",
          "ticks": 50880,
          "time": 97.54597,
          "velocity": 0.9133858267716536
        },
        {
          "duration": 0.015337416666667991,
          "durationTicks": 8,
          "midi": 42,
          "name": "F#2",
          "ticks": 50976,
          "time": 97.730019,
          "velocity": 0.5590551181102362
        },
        {
          "duration": 0.015337416666667991,
          "durationTicks": 8,
          "midi": 36,
          "name": "C2",
          "ticks": 51072,
          "time": 97.914068,
          "velocity": 0.8818897637795275
        },
        {
          "duration": 0.015337416666667991,
          "durationTicks": 8,
          "midi": 42,
          "name": "F#2",
          "ticks": 51072,
          "time": 97.914068,
          "velocity": 0.6535433070866141
        },
        {
          "duration": 0.015337416666682202,
          "durationTicks": 8,
          "midi": 42,
          "name": "F#2",
          "ticks": 51168,
          "time": 98.09811699999999,
          "velocity": 0.5590551181102362
        },
        {
          "duration": 0.015337416666682202,
          "durationTicks": 8,
          "midi": 54,
          "name": "F#3",
          "ticks": 51264,
          "time": 98.28216599999999,
          "velocity": 0.7874015748031497
        },
        {
          "duration": 0.015337416666682202,
          "durationTicks": 8,
          "midi": 39,
          "name": "D#2",
          "ticks": 51264,
          "time": 98.28216599999999,
          "velocity": 0.8661417322834646
        },
        {
          "duration": 0.015337416666682202,
          "durationTicks": 8,
          "midi": 40,
          "name": "E2",
          "ticks": 51264,
          "time": 98.28216599999999,
          "velocity": 0.9763779527559056
        },
        {
          "duration": 0.015337416666682202,
          "durationTicks": 8,
          "midi": 42,
          "name": "F#2",
          "ticks": 51264,
          "time": 98.28216599999999,
          "velocity": 0.6535433070866141
        },
        {
          "duration": 0.015337416666682202,
          "durationTicks": 8,
          "midi": 42,
          "name": "F#2",
          "ticks": 51360,
          "time": 98.46621499999999,
          "velocity": 0.48031496062992124
        },
        {
          "duration": 0.015337416666682202,
          "durationTicks": 8,
          "midi": 42,
          "name": "F#2",
          "ticks": 51456,
          "time": 98.65026399999999,
          "velocity": 0.6535433070866141
        },
        {
          "duration": 0.015337416666682202,
          "durationTicks": 8,
          "midi": 36,
          "name": "C2",
          "ticks": 51456,
          "time": 98.65026399999999,
          "velocity": 0.7480314960629921
        },
        {
          "duration": 0.015337416666667991,
          "durationTicks": 8,
          "midi": 42,
          "name": "F#2",
          "ticks": 51552,
          "time": 98.834313,
          "velocity": 0.3779527559055118
        },
        {
          "duration": 0.015337416666667991,
          "durationTicks": 8,
          "midi": 42,
          "name": "F#2",
          "ticks": 51648,
          "time": 99.018362,
          "velocity": 0.6535433070866141
        },
        {
          "duration": 0.015337416666667991,
          "durationTicks": 8,
          "midi": 54,
          "name": "F#3",
          "ticks": 51648,
          "time": 99.018362,
          "velocity": 0.9133858267716536
        },
        {
          "duration": 0.015337416666667991,
          "durationTicks": 8,
          "midi": 40,
          "name": "E2",
          "ticks": 51648,
          "time": 99.018362,
          "velocity": 0.8818897637795275
        },
        {
          "duration": 0.015337416666667991,
          "durationTicks": 8,
          "midi": 39,
          "name": "D#2",
          "ticks": 51648,
          "time": 99.018362,
          "velocity": 0.8661417322834646
        },
        {
          "duration": 0.015337416666667991,
          "durationTicks": 8,
          "midi": 42,
          "name": "F#2",
          "ticks": 51744,
          "time": 99.202411,
          "velocity": 0.4251968503937008
        },
        {
          "duration": 0.015337416666667991,
          "durationTicks": 8,
          "midi": 36,
          "name": "C2",
          "ticks": 51840,
          "time": 99.38646,
          "velocity": 0.7480314960629921
        },
        {
          "duration": 0.015337416666667991,
          "durationTicks": 8,
          "midi": 42,
          "name": "F#2",
          "ticks": 51840,
          "time": 99.38646,
          "velocity": 0.6535433070866141
        },
        {
          "duration": 0.015337416666667991,
          "durationTicks": 8,
          "midi": 42,
          "name": "F#2",
          "ticks": 51936,
          "time": 99.570509,
          "velocity": 0.3779527559055118
        },
        {
          "duration": 0.015337416666682202,
          "durationTicks": 8,
          "midi": 42,
          "name": "F#2",
          "ticks": 52032,
          "time": 99.75455799999999,
          "velocity": 0.6535433070866141
        },
        {
          "duration": 0.015337416666682202,
          "durationTicks": 8,
          "midi": 39,
          "name": "D#2",
          "ticks": 52032,
          "time": 99.75455799999999,
          "velocity": 0.8661417322834646
        },
        {
          "duration": 0.015337416666682202,
          "durationTicks": 8,
          "midi": 40,
          "name": "E2",
          "ticks": 52032,
          "time": 99.75455799999999,
          "velocity": 0.9763779527559056
        },
        {
          "duration": 0.015337416666682202,
          "durationTicks": 8,
          "midi": 54,
          "name": "F#3",
          "ticks": 52032,
          "time": 99.75455799999999,
          "velocity": 0.9133858267716536
        },
        {
          "duration": 0.015337416666682202,
          "durationTicks": 8,
          "midi": 42,
          "name": "F#2",
          "ticks": 52128,
          "time": 99.93860699999999,
          "velocity": 0.5590551181102362
        },
        {
          "duration": 0.015337416666682202,
          "durationTicks": 8,
          "midi": 36,
          "name": "C2",
          "ticks": 52224,
          "time": 100.12265599999999,
          "velocity": 0.8818897637795275
        },
        {
          "duration": 0.015337416666682202,
          "durationTicks": 8,
          "midi": 42,
          "name": "F#2",
          "ticks": 52224,
          "time": 100.12265599999999,
          "velocity": 0.6535433070866141
        },
        {
          "duration": 0.015337416666667991,
          "durationTicks": 8,
          "midi": 42,
          "name": "F#2",
          "ticks": 52320,
          "time": 100.306705,
          "velocity": 0.48031496062992124
        },
        {
          "duration": 0.015337416666667991,
          "durationTicks": 8,
          "midi": 40,
          "name": "E2",
          "ticks": 52416,
          "time": 100.490754,
          "velocity": 0.8818897637795275
        },
        {
          "duration": 0.015337416666667991,
          "durationTicks": 8,
          "midi": 39,
          "name": "D#2",
          "ticks": 52416,
          "time": 100.490754,
          "velocity": 0.8661417322834646
        },
        {
          "duration": 0.015337416666667991,
          "durationTicks": 8,
          "midi": 54,
          "name": "F#3",
          "ticks": 52416,
          "time": 100.490754,
          "velocity": 0.7874015748031497
        },
        {
          "duration": 0.015337416666667991,
          "durationTicks": 8,
          "midi": 42,
          "name": "F#2",
          "ticks": 52416,
          "time": 100.490754,
          "velocity": 0.7874015748031497
        },
        {
          "duration": 0.015337416666667991,
          "durationTicks": 8,
          "midi": 42,
          "name": "F#2",
          "ticks": 52512,
          "time": 100.674803,
          "velocity": 0.48031496062992124
        },
        {
          "duration": 0.015337416666667991,
          "durationTicks": 8,
          "midi": 36,
          "name": "C2",
          "ticks": 52608,
          "time": 100.858852,
          "velocity": 0.8818897637795275
        },
        {
          "duration": 0.015337416666667991,
          "durationTicks": 8,
          "midi": 42,
          "name": "F#2",
          "ticks": 52608,
          "time": 100.858852,
          "velocity": 0.6535433070866141
        },
        {
          "duration": 0.015337416666667991,
          "durationTicks": 8,
          "midi": 42,
          "name": "F#2",
          "ticks": 52704,
          "time": 101.042901,
          "velocity": 0.48031496062992124
        },
        {
          "duration": 0.015337416666682202,
          "durationTicks": 8,
          "midi": 54,
          "name": "F#3",
          "ticks": 52800,
          "time": 101.22694999999999,
          "velocity": 0.7874015748031497
        },
        {
          "duration": 0.015337416666682202,
          "durationTicks": 8,
          "midi": 39,
          "name": "D#2",
          "ticks": 52800,
          "time": 101.22694999999999,
          "velocity": 0.8661417322834646
        },
        {
          "duration": 0.015337416666682202,
          "durationTicks": 8,
          "midi": 40,
          "name": "E2",
          "ticks": 52800,
          "time": 101.22694999999999,
          "velocity": 0.7480314960629921
        },
        {
          "duration": 0.015337416666682202,
          "durationTicks": 8,
          "midi": 42,
          "name": "F#2",
          "ticks": 52800,
          "time": 101.22694999999999,
          "velocity": 0.7874015748031497
        },
        {
          "duration": 0.015337416666682202,
          "durationTicks": 8,
          "midi": 42,
          "name": "F#2",
          "ticks": 52896,
          "time": 101.41099899999999,
          "velocity": 0.5590551181102362
        },
        {
          "duration": 0.015337416666682202,
          "durationTicks": 8,
          "midi": 36,
          "name": "C2",
          "ticks": 52992,
          "time": 101.59504799999999,
          "velocity": 0.8818897637795275
        },
        {
          "duration": 0.015337416666682202,
          "durationTicks": 8,
          "midi": 42,
          "name": "F#2",
          "ticks": 52992,
          "time": 101.59504799999999,
          "velocity": 0.7874015748031497
        },
        {
          "duration": 0.015337416666682202,
          "durationTicks": 8,
          "midi": 42,
          "name": "F#2",
          "ticks": 53088,
          "time": 101.779097,
          "velocity": 0.4251968503937008
        },
        {
          "duration": 0.015337416666667991,
          "durationTicks": 8,
          "midi": 40,
          "name": "E2",
          "ticks": 53184,
          "time": 101.963146,
          "velocity": 0.8818897637795275
        },
        {
          "duration": 0.015337416666667991,
          "durationTicks": 8,
          "midi": 39,
          "name": "D#2",
          "ticks": 53184,
          "time": 101.963146,
          "velocity": 0.8661417322834646
        },
        {
          "duration": 0.015337416666667991,
          "durationTicks": 8,
          "midi": 54,
          "name": "F#3",
          "ticks": 53184,
          "time": 101.963146,
          "velocity": 0.9133858267716536
        },
        {
          "duration": 0.015337416666667991,
          "durationTicks": 8,
          "midi": 42,
          "name": "F#2",
          "ticks": 53184,
          "time": 101.963146,
          "velocity": 0.6535433070866141
        },
        {
          "duration": 0.015337416666667991,
          "durationTicks": 8,
          "midi": 42,
          "name": "F#2",
          "ticks": 53280,
          "time": 102.147195,
          "velocity": 0.4251968503937008
        },
        {
          "duration": 0.015337416666667991,
          "durationTicks": 8,
          "midi": 42,
          "name": "F#2",
          "ticks": 53376,
          "time": 102.331244,
          "velocity": 0.6535433070866141
        },
        {
          "duration": 0.015337416666667991,
          "durationTicks": 8,
          "midi": 36,
          "name": "C2",
          "ticks": 53376,
          "time": 102.331244,
          "velocity": 0.6299212598425197
        },
        {
          "duration": 0.015337416666667991,
          "durationTicks": 8,
          "midi": 42,
          "name": "F#2",
          "ticks": 53472,
          "time": 102.515293,
          "velocity": 0.3779527559055118
        },
        {
          "duration": 0.015337416666667991,
          "durationTicks": 8,
          "midi": 42,
          "name": "F#2",
          "ticks": 53568,
          "time": 102.699342,
          "velocity": 0.6535433070866141
        },
        {
          "duration": 0.015337416666667991,
          "durationTicks": 8,
          "midi": 39,
          "name": "D#2",
          "ticks": 53568,
          "time": 102.699342,
          "velocity": 0.8661417322834646
        },
        {
          "duration": 0.015337416666667991,
          "durationTicks": 8,
          "midi": 54,
          "name": "F#3",
          "ticks": 53568,
          "time": 102.699342,
          "velocity": 0.7874015748031497
        },
        {
          "duration": 0.015337416666667991,
          "durationTicks": 8,
          "midi": 40,
          "name": "E2",
          "ticks": 53568,
          "time": 102.699342,
          "velocity": 0.9763779527559056
        },
        {
          "duration": 0.015337416666682202,
          "durationTicks": 8,
          "midi": 42,
          "name": "F#2",
          "ticks": 53664,
          "time": 102.88339099999999,
          "velocity": 0.48031496062992124
        },
        {
          "duration": 0.015337416666682202,
          "durationTicks": 8,
          "midi": 36,
          "name": "C2",
          "ticks": 53760,
          "time": 103.06743999999999,
          "velocity": 0.7480314960629921
        },
        {
          "duration": 0.015337416666682202,
          "durationTicks": 8,
          "midi": 42,
          "name": "F#2",
          "ticks": 53760,
          "time": 103.06743999999999,
          "velocity": 0.6535433070866141
        },
        {
          "duration": 0.015337416666682202,
          "durationTicks": 8,
          "midi": 42,
          "name": "F#2",
          "ticks": 53856,
          "time": 103.25148899999999,
          "velocity": 0.48031496062992124
        },
        {
          "duration": 0.015337416666667991,
          "durationTicks": 8,
          "midi": 42,
          "name": "F#2",
          "ticks": 53952,
          "time": 103.435538,
          "velocity": 0.6535433070866141
        },
        {
          "duration": 0.015337416666667991,
          "durationTicks": 8,
          "midi": 54,
          "name": "F#3",
          "ticks": 53952,
          "time": 103.435538,
          "velocity": 0.9133858267716536
        },
        {
          "duration": 0.015337416666667991,
          "durationTicks": 8,
          "midi": 39,
          "name": "D#2",
          "ticks": 53952,
          "time": 103.435538,
          "velocity": 0.8661417322834646
        },
        {
          "duration": 0.015337416666667991,
          "durationTicks": 8,
          "midi": 40,
          "name": "E2",
          "ticks": 53952,
          "time": 103.435538,
          "velocity": 0.8818897637795275
        },
        {
          "duration": 0.015337416666667991,
          "durationTicks": 8,
          "midi": 42,
          "name": "F#2",
          "ticks": 54048,
          "time": 103.619587,
          "velocity": 0.5590551181102362
        },
        {
          "duration": 0.015337416666667991,
          "durationTicks": 8,
          "midi": 42,
          "name": "F#2",
          "ticks": 54144,
          "time": 103.803636,
          "velocity": 0.6535433070866141
        },
        {
          "duration": 0.015337416666667991,
          "durationTicks": 8,
          "midi": 36,
          "name": "C2",
          "ticks": 54144,
          "time": 103.803636,
          "velocity": 0.8818897637795275
        },
        {
          "duration": 0.015337416666667991,
          "durationTicks": 8,
          "midi": 42,
          "name": "F#2",
          "ticks": 54240,
          "time": 103.987685,
          "velocity": 0.5590551181102362
        },
        {
          "duration": 0.015337416666667991,
          "durationTicks": 8,
          "midi": 39,
          "name": "D#2",
          "ticks": 54336,
          "time": 104.171734,
          "velocity": 0.8661417322834646
        },
        {
          "duration": 0.015337416666667991,
          "durationTicks": 8,
          "midi": 54,
          "name": "F#3",
          "ticks": 54336,
          "time": 104.171734,
          "velocity": 0.7874015748031497
        },
        {
          "duration": 0.015337416666667991,
          "durationTicks": 8,
          "midi": 40,
          "name": "E2",
          "ticks": 54336,
          "time": 104.171734,
          "velocity": 0.9763779527559056
        },
        {
          "duration": 0.015337416666667991,
          "durationTicks": 8,
          "midi": 42,
          "name": "F#2",
          "ticks": 54336,
          "time": 104.171734,
          "velocity": 0.6535433070866141
        },
        {
          "duration": 0.015337416666682202,
          "durationTicks": 8,
          "midi": 42,
          "name": "F#2",
          "ticks": 54432,
          "time": 104.35578299999999,
          "velocity": 0.48031496062992124
        },
        {
          "duration": 0.015337416666682202,
          "durationTicks": 8,
          "midi": 42,
          "name": "F#2",
          "ticks": 54528,
          "time": 104.53983199999999,
          "velocity": 0.6535433070866141
        },
        {
          "duration": 0.015337416666682202,
          "durationTicks": 8,
          "midi": 36,
          "name": "C2",
          "ticks": 54528,
          "time": 104.53983199999999,
          "velocity": 0.7480314960629921
        },
        {
          "duration": 0.015337416666682202,
          "durationTicks": 8,
          "midi": 42,
          "name": "F#2",
          "ticks": 54624,
          "time": 104.72388099999999,
          "velocity": 0.3779527559055118
        },
        {
          "duration": 0.015337416666667991,
          "durationTicks": 8,
          "midi": 54,
          "name": "F#3",
          "ticks": 54720,
          "time": 104.90793,
          "velocity": 0.9133858267716536
        },
        {
          "duration": 0.015337416666667991,
          "durationTicks": 8,
          "midi": 40,
          "name": "E2",
          "ticks": 54720,
          "time": 104.90793,
          "velocity": 0.8818897637795275
        },
        {
          "duration": 0.015337416666667991,
          "durationTicks": 8,
          "midi": 39,
          "name": "D#2",
          "ticks": 54720,
          "time": 104.90793,
          "velocity": 0.8661417322834646
        },
        {
          "duration": 0.015337416666667991,
          "durationTicks": 8,
          "midi": 42,
          "name": "F#2",
          "ticks": 54720,
          "time": 104.90793,
          "velocity": 0.6535433070866141
        },
        {
          "duration": 0.015337416666667991,
          "durationTicks": 8,
          "midi": 42,
          "name": "F#2",
          "ticks": 54816,
          "time": 105.091979,
          "velocity": 0.4251968503937008
        },
        {
          "duration": 0.015337416666667991,
          "durationTicks": 8,
          "midi": 36,
          "name": "C2",
          "ticks": 54912,
          "time": 105.276028,
          "velocity": 0.7480314960629921
        },
        {
          "duration": 0.015337416666667991,
          "durationTicks": 8,
          "midi": 42,
          "name": "F#2",
          "ticks": 54912,
          "time": 105.276028,
          "velocity": 0.6535433070866141
        },
        {
          "duration": 0.015337416666667991,
          "durationTicks": 8,
          "midi": 42,
          "name": "F#2",
          "ticks": 55008,
          "time": 105.460077,
          "velocity": 0.3779527559055118
        },
        {
          "duration": 0.015337416666667991,
          "durationTicks": 8,
          "midi": 39,
          "name": "D#2",
          "ticks": 55104,
          "time": 105.644126,
          "velocity": 0.8661417322834646
        },
        {
          "duration": 0.015337416666667991,
          "durationTicks": 8,
          "midi": 54,
          "name": "F#3",
          "ticks": 55104,
          "time": 105.644126,
          "velocity": 0.9133858267716536
        },
        {
          "duration": 0.015337416666667991,
          "durationTicks": 8,
          "midi": 42,
          "name": "F#2",
          "ticks": 55104,
          "time": 105.644126,
          "velocity": 0.6535433070866141
        },
        {
          "duration": 0.015337416666667991,
          "durationTicks": 8,
          "midi": 40,
          "name": "E2",
          "ticks": 55104,
          "time": 105.644126,
          "velocity": 0.9763779527559056
        },
        {
          "duration": 0.015337416666682202,
          "durationTicks": 8,
          "midi": 42,
          "name": "F#2",
          "ticks": 55200,
          "time": 105.82817499999999,
          "velocity": 0.5590551181102362
        },
        {
          "duration": 0.015337416666682202,
          "durationTicks": 8,
          "midi": 36,
          "name": "C2",
          "ticks": 55296,
          "time": 106.01222399999999,
          "velocity": 0.8818897637795275
        },
        {
          "duration": 0.015337416666682202,
          "durationTicks": 8,
          "midi": 42,
          "name": "F#2",
          "ticks": 55296,
          "time": 106.01222399999999,
          "velocity": 0.6535433070866141
        },
        {
          "duration": 0.015337416666682202,
          "durationTicks": 8,
          "midi": 42,
          "name": "F#2",
          "ticks": 55392,
          "time": 106.19627299999999,
          "velocity": 0.48031496062992124
        },
        {
          "duration": 0.015337416666682202,
          "durationTicks": 8,
          "midi": 42,
          "name": "F#2",
          "ticks": 55488,
          "time": 106.38032199999999,
          "velocity": 0.7874015748031497
        },
        {
          "duration": 0.015337416666682202,
          "durationTicks": 8,
          "midi": 39,
          "name": "D#2",
          "ticks": 55488,
          "time": 106.38032199999999,
          "velocity": 0.8661417322834646
        },
        {
          "duration": 0.015337416666682202,
          "durationTicks": 8,
          "midi": 54,
          "name": "F#3",
          "ticks": 55488,
          "time": 106.38032199999999,
          "velocity": 0.7874015748031497
        },
        {
          "duration": 0.015337416666682202,
          "durationTicks": 8,
          "midi": 40,
          "name": "E2",
          "ticks": 55488,
          "time": 106.38032199999999,
          "velocity": 0.8818897637795275
        },
        {
          "duration": 0.015337416666667991,
          "durationTicks": 8,
          "midi": 42,
          "name": "F#2",
          "ticks": 55584,
          "time": 106.564371,
          "velocity": 0.48031496062992124
        },
        {
          "duration": 0.015337416666667991,
          "durationTicks": 8,
          "midi": 36,
          "name": "C2",
          "ticks": 55680,
          "time": 106.74842,
          "velocity": 0.8818897637795275
        },
        {
          "duration": 0.015337416666667991,
          "durationTicks": 8,
          "midi": 42,
          "name": "F#2",
          "ticks": 55680,
          "time": 106.74842,
          "velocity": 0.6535433070866141
        },
        {
          "duration": 0.015337416666667991,
          "durationTicks": 8,
          "midi": 42,
          "name": "F#2",
          "ticks": 55776,
          "time": 106.932469,
          "velocity": 0.48031496062992124
        },
        {
          "duration": 0.015337416666667991,
          "durationTicks": 8,
          "midi": 42,
          "name": "F#2",
          "ticks": 55872,
          "time": 107.116518,
          "velocity": 0.7874015748031497
        },
        {
          "duration": 0.015337416666667991,
          "durationTicks": 8,
          "midi": 54,
          "name": "F#3",
          "ticks": 55872,
          "time": 107.116518,
          "velocity": 0.7874015748031497
        },
        {
          "duration": 0.015337416666667991,
          "durationTicks": 8,
          "midi": 40,
          "name": "E2",
          "ticks": 55872,
          "time": 107.116518,
          "velocity": 0.7480314960629921
        },
        {
          "duration": 0.015337416666667991,
          "durationTicks": 8,
          "midi": 39,
          "name": "D#2",
          "ticks": 55872,
          "time": 107.116518,
          "velocity": 0.8661417322834646
        },
        {
          "duration": 0.015337416666667991,
          "durationTicks": 8,
          "midi": 42,
          "name": "F#2",
          "ticks": 55968,
          "time": 107.300567,
          "velocity": 0.5590551181102362
        },
        {
          "duration": 0.015337416666682202,
          "durationTicks": 8,
          "midi": 36,
          "name": "C2",
          "ticks": 56064,
          "time": 107.48461599999999,
          "velocity": 0.8818897637795275
        },
        {
          "duration": 0.015337416666682202,
          "durationTicks": 8,
          "midi": 42,
          "name": "F#2",
          "ticks": 56064,
          "time": 107.48461599999999,
          "velocity": 0.7874015748031497
        },
        {
          "duration": 0.015337416666682202,
          "durationTicks": 8,
          "midi": 42,
          "name": "F#2",
          "ticks": 56160,
          "time": 107.66866499999999,
          "velocity": 0.4251968503937008
        },
        {
          "duration": 0.015337416666682202,
          "durationTicks": 8,
          "midi": 39,
          "name": "D#2",
          "ticks": 56256,
          "time": 107.85271399999999,
          "velocity": 0.8661417322834646
        },
        {
          "duration": 0.015337416666682202,
          "durationTicks": 8,
          "midi": 54,
          "name": "F#3",
          "ticks": 56256,
          "time": 107.85271399999999,
          "velocity": 0.9133858267716536
        },
        {
          "duration": 0.015337416666682202,
          "durationTicks": 8,
          "midi": 42,
          "name": "F#2",
          "ticks": 56256,
          "time": 107.85271399999999,
          "velocity": 0.6535433070866141
        },
        {
          "duration": 0.015337416666682202,
          "durationTicks": 8,
          "midi": 40,
          "name": "E2",
          "ticks": 56256,
          "time": 107.85271399999999,
          "velocity": 0.8818897637795275
        },
        {
          "duration": 0.015337416666667991,
          "durationTicks": 8,
          "midi": 42,
          "name": "F#2",
          "ticks": 56352,
          "time": 108.036763,
          "velocity": 0.4251968503937008
        },
        {
          "duration": 0.015337416666667991,
          "durationTicks": 8,
          "midi": 36,
          "name": "C2",
          "ticks": 56448,
          "time": 108.220812,
          "velocity": 0.6299212598425197
        },
        {
          "duration": 0.015337416666667991,
          "durationTicks": 8,
          "midi": 42,
          "name": "F#2",
          "ticks": 56448,
          "time": 108.220812,
          "velocity": 0.6535433070866141
        },
        {
          "duration": 0.015337416666667991,
          "durationTicks": 8,
          "midi": 42,
          "name": "F#2",
          "ticks": 56544,
          "time": 108.404861,
          "velocity": 0.3779527559055118
        },
        {
          "duration": 0.015337416666667991,
          "durationTicks": 8,
          "midi": 39,
          "name": "D#2",
          "ticks": 56640,
          "time": 108.58891,
          "velocity": 0.8661417322834646
        },
        {
          "duration": 0.015337416666667991,
          "durationTicks": 8,
          "midi": 54,
          "name": "F#3",
          "ticks": 56640,
          "time": 108.58891,
          "velocity": 0.7874015748031497
        },
        {
          "duration": 0.015337416666667991,
          "durationTicks": 8,
          "midi": 42,
          "name": "F#2",
          "ticks": 56640,
          "time": 108.58891,
          "velocity": 0.6535433070866141
        },
        {
          "duration": 0.015337416666667991,
          "durationTicks": 8,
          "midi": 40,
          "name": "E2",
          "ticks": 56640,
          "time": 108.58891,
          "velocity": 0.9763779527559056
        },
        {
          "duration": 0.015337416666667991,
          "durationTicks": 8,
          "midi": 42,
          "name": "F#2",
          "ticks": 56736,
          "time": 108.772959,
          "velocity": 0.48031496062992124
        },
        {
          "duration": 0.015337416666682202,
          "durationTicks": 8,
          "midi": 42,
          "name": "F#2",
          "ticks": 56832,
          "time": 108.95700799999999,
          "velocity": 0.6535433070866141
        },
        {
          "duration": 0.015337416666682202,
          "durationTicks": 8,
          "midi": 36,
          "name": "C2",
          "ticks": 56832,
          "time": 108.95700799999999,
          "velocity": 0.7480314960629921
        },
        {
          "duration": 0.015337416666682202,
          "durationTicks": 8,
          "midi": 42,
          "name": "F#2",
          "ticks": 56928,
          "time": 109.14105699999999,
          "velocity": 0.48031496062992124
        },
        {
          "duration": 0.015337416666682202,
          "durationTicks": 8,
          "midi": 42,
          "name": "F#2",
          "ticks": 57024,
          "time": 109.32510599999999,
          "velocity": 0.6535433070866141
        },
        {
          "duration": 0.015337416666682202,
          "durationTicks": 8,
          "midi": 40,
          "name": "E2",
          "ticks": 57024,
          "time": 109.32510599999999,
          "velocity": 0.8818897637795275
        },
        {
          "duration": 0.015337416666682202,
          "durationTicks": 8,
          "midi": 54,
          "name": "F#3",
          "ticks": 57024,
          "time": 109.32510599999999,
          "velocity": 0.9133858267716536
        },
        {
          "duration": 0.015337416666682202,
          "durationTicks": 8,
          "midi": 39,
          "name": "D#2",
          "ticks": 57024,
          "time": 109.32510599999999,
          "velocity": 0.8661417322834646
        },
        {
          "duration": 0.015337416666682202,
          "durationTicks": 8,
          "midi": 42,
          "name": "F#2",
          "ticks": 57120,
          "time": 109.50915499999999,
          "velocity": 0.5590551181102362
        },
        {
          "duration": 0.015337416666667991,
          "durationTicks": 8,
          "midi": 42,
          "name": "F#2",
          "ticks": 57216,
          "time": 109.693204,
          "velocity": 0.6535433070866141
        },
        {
          "duration": 0.015337416666667991,
          "durationTicks": 8,
          "midi": 36,
          "name": "C2",
          "ticks": 57216,
          "time": 109.693204,
          "velocity": 0.8818897637795275
        },
        {
          "duration": 0.015337416666667991,
          "durationTicks": 8,
          "midi": 42,
          "name": "F#2",
          "ticks": 57312,
          "time": 109.877253,
          "velocity": 0.5590551181102362
        },
        {
          "duration": 0.015337416666667991,
          "durationTicks": 8,
          "midi": 40,
          "name": "E2",
          "ticks": 57408,
          "time": 110.061302,
          "velocity": 0.9763779527559056
        },
        {
          "duration": 0.015337416666667991,
          "durationTicks": 8,
          "midi": 39,
          "name": "D#2",
          "ticks": 57408,
          "time": 110.061302,
          "velocity": 0.8661417322834646
        },
        {
          "duration": 0.015337416666667991,
          "durationTicks": 8,
          "midi": 42,
          "name": "F#2",
          "ticks": 57408,
          "time": 110.061302,
          "velocity": 0.6535433070866141
        },
        {
          "duration": 0.015337416666667991,
          "durationTicks": 8,
          "midi": 54,
          "name": "F#3",
          "ticks": 57408,
          "time": 110.061302,
          "velocity": 0.7874015748031497
        },
        {
          "duration": 0.015337416666667991,
          "durationTicks": 8,
          "midi": 42,
          "name": "F#2",
          "ticks": 57504,
          "time": 110.245351,
          "velocity": 0.48031496062992124
        },
        {
          "duration": 0.015337416666667991,
          "durationTicks": 8,
          "midi": 42,
          "name": "F#2",
          "ticks": 57600,
          "time": 110.4294,
          "velocity": 0.6535433070866141
        },
        {
          "duration": 0.015337416666667991,
          "durationTicks": 8,
          "midi": 36,
          "name": "C2",
          "ticks": 57600,
          "time": 110.4294,
          "velocity": 0.7480314960629921
        },
        {
          "duration": 0.015337416666682202,
          "durationTicks": 8,
          "midi": 42,
          "name": "F#2",
          "ticks": 57696,
          "time": 110.61344899999999,
          "velocity": 0.3779527559055118
        },
        {
          "duration": 0.015337416666682202,
          "durationTicks": 8,
          "midi": 40,
          "name": "E2",
          "ticks": 57792,
          "time": 110.79749799999999,
          "velocity": 0.8818897637795275
        },
        {
          "duration": 0.015337416666682202,
          "durationTicks": 8,
          "midi": 39,
          "name": "D#2",
          "ticks": 57792,
          "time": 110.79749799999999,
          "velocity": 0.8661417322834646
        },
        {
          "duration": 0.015337416666682202,
          "durationTicks": 8,
          "midi": 54,
          "name": "F#3",
          "ticks": 57792,
          "time": 110.79749799999999,
          "velocity": 0.9133858267716536
        },
        {
          "duration": 0.015337416666682202,
          "durationTicks": 8,
          "midi": 42,
          "name": "F#2",
          "ticks": 57792,
          "time": 110.79749799999999,
          "velocity": 0.6535433070866141
        },
        {
          "duration": 0.015337416666682202,
          "durationTicks": 8,
          "midi": 42,
          "name": "F#2",
          "ticks": 57888,
          "time": 110.98154699999999,
          "velocity": 0.4251968503937008
        },
        {
          "duration": 0.015337416666667991,
          "durationTicks": 8,
          "midi": 42,
          "name": "F#2",
          "ticks": 57984,
          "time": 111.165596,
          "velocity": 0.6535433070866141
        },
        {
          "duration": 0.015337416666667991,
          "durationTicks": 8,
          "midi": 36,
          "name": "C2",
          "ticks": 57984,
          "time": 111.165596,
          "velocity": 0.7480314960629921
        },
        {
          "duration": 0.015337416666667991,
          "durationTicks": 8,
          "midi": 42,
          "name": "F#2",
          "ticks": 58080,
          "time": 111.349645,
          "velocity": 0.3779527559055118
        },
        {
          "duration": 0.015337416666667991,
          "durationTicks": 8,
          "midi": 39,
          "name": "D#2",
          "ticks": 58176,
          "time": 111.533694,
          "velocity": 0.8661417322834646
        },
        {
          "duration": 0.015337416666667991,
          "durationTicks": 8,
          "midi": 40,
          "name": "E2",
          "ticks": 58176,
          "time": 111.533694,
          "velocity": 0.9763779527559056
        },
        {
          "duration": 0.015337416666667991,
          "durationTicks": 8,
          "midi": 42,
          "name": "F#2",
          "ticks": 58176,
          "time": 111.533694,
          "velocity": 0.6535433070866141
        },
        {
          "duration": 0.015337416666667991,
          "durationTicks": 8,
          "midi": 54,
          "name": "F#3",
          "ticks": 58176,
          "time": 111.533694,
          "velocity": 0.9133858267716536
        },
        {
          "duration": 0.015337416666667991,
          "durationTicks": 8,
          "midi": 42,
          "name": "F#2",
          "ticks": 58272,
          "time": 111.717743,
          "velocity": 0.5590551181102362
        },
        {
          "duration": 0.015337416666667991,
          "durationTicks": 8,
          "midi": 36,
          "name": "C2",
          "ticks": 58368,
          "time": 111.901792,
          "velocity": 0.8818897637795275
        },
        {
          "duration": 0.015337416666667991,
          "durationTicks": 8,
          "midi": 42,
          "name": "F#2",
          "ticks": 58368,
          "time": 111.901792,
          "velocity": 0.6535433070866141
        },
        {
          "duration": 0.015337416666682202,
          "durationTicks": 8,
          "midi": 42,
          "name": "F#2",
          "ticks": 58464,
          "time": 112.08584099999999,
          "velocity": 0.48031496062992124
        },
        {
          "duration": 0.015337416666682202,
          "durationTicks": 8,
          "midi": 42,
          "name": "F#2",
          "ticks": 58560,
          "time": 112.26988999999999,
          "velocity": 0.7874015748031497
        },
        {
          "duration": 0.015337416666682202,
          "durationTicks": 8,
          "midi": 39,
          "name": "D#2",
          "ticks": 58560,
          "time": 112.26988999999999,
          "velocity": 0.8661417322834646
        },
        {
          "duration": 0.015337416666682202,
          "durationTicks": 8,
          "midi": 54,
          "name": "F#3",
          "ticks": 58560,
          "time": 112.26988999999999,
          "velocity": 0.7874015748031497
        },
        {
          "duration": 0.015337416666682202,
          "durationTicks": 8,
          "midi": 40,
          "name": "E2",
          "ticks": 58560,
          "time": 112.26988999999999,
          "velocity": 0.8818897637795275
        },
        {
          "duration": 0.015337416666682202,
          "durationTicks": 8,
          "midi": 42,
          "name": "F#2",
          "ticks": 58656,
          "time": 112.45393899999999,
          "velocity": 0.48031496062992124
        },
        {
          "duration": 0.015337416666667991,
          "durationTicks": 8,
          "midi": 36,
          "name": "C2",
          "ticks": 58752,
          "time": 112.63798799999999,
          "velocity": 0.8818897637795275
        },
        {
          "duration": 0.015337416666667991,
          "durationTicks": 8,
          "midi": 42,
          "name": "F#2",
          "ticks": 58752,
          "time": 112.63798799999999,
          "velocity": 0.6535433070866141
        },
        {
          "duration": 0.015337416666667991,
          "durationTicks": 8,
          "midi": 42,
          "name": "F#2",
          "ticks": 58848,
          "time": 112.822037,
          "velocity": 0.48031496062992124
        },
        {
          "duration": 0.015337416666667991,
          "durationTicks": 8,
          "midi": 42,
          "name": "F#2",
          "ticks": 58944,
          "time": 113.006086,
          "velocity": 0.7874015748031497
        },
        {
          "duration": 0.015337416666667991,
          "durationTicks": 8,
          "midi": 39,
          "name": "D#2",
          "ticks": 58944,
          "time": 113.006086,
          "velocity": 0.8661417322834646
        },
        {
          "duration": 0.015337416666667991,
          "durationTicks": 8,
          "midi": 40,
          "name": "E2",
          "ticks": 58944,
          "time": 113.006086,
          "velocity": 0.7480314960629921
        },
        {
          "duration": 0.015337416666667991,
          "durationTicks": 8,
          "midi": 54,
          "name": "F#3",
          "ticks": 58944,
          "time": 113.006086,
          "velocity": 0.7874015748031497
        },
        {
          "duration": 0.015337416666667991,
          "durationTicks": 8,
          "midi": 42,
          "name": "F#2",
          "ticks": 59040,
          "time": 113.190135,
          "velocity": 0.5590551181102362
        },
        {
          "duration": 0.015337416666667991,
          "durationTicks": 8,
          "midi": 36,
          "name": "C2",
          "ticks": 59136,
          "time": 113.374184,
          "velocity": 0.8818897637795275
        },
        {
          "duration": 0.015337416666667991,
          "durationTicks": 8,
          "midi": 42,
          "name": "F#2",
          "ticks": 59136,
          "time": 113.374184,
          "velocity": 0.7874015748031497
        },
        {
          "duration": 0.015337416666682202,
          "durationTicks": 8,
          "midi": 42,
          "name": "F#2",
          "ticks": 59232,
          "time": 113.55823299999999,
          "velocity": 0.4251968503937008
        },
        {
          "duration": 0.015337416666682202,
          "durationTicks": 8,
          "midi": 42,
          "name": "F#2",
          "ticks": 59328,
          "time": 113.74228199999999,
          "velocity": 0.6535433070866141
        },
        {
          "duration": 0.015337416666682202,
          "durationTicks": 8,
          "midi": 39,
          "name": "D#2",
          "ticks": 59328,
          "time": 113.74228199999999,
          "velocity": 0.8661417322834646
        },
        {
          "duration": 0.015337416666682202,
          "durationTicks": 8,
          "midi": 40,
          "name": "E2",
          "ticks": 59328,
          "time": 113.74228199999999,
          "velocity": 0.8818897637795275
        },
        {
          "duration": 0.015337416666682202,
          "durationTicks": 8,
          "midi": 54,
          "name": "F#3",
          "ticks": 59328,
          "time": 113.74228199999999,
          "velocity": 0.9133858267716536
        },
        {
          "duration": 0.015337416666682202,
          "durationTicks": 8,
          "midi": 42,
          "name": "F#2",
          "ticks": 59424,
          "time": 113.92633099999999,
          "velocity": 0.4251968503937008
        },
        {
          "duration": 0.015337416666682202,
          "durationTicks": 8,
          "midi": 42,
          "name": "F#2",
          "ticks": 59520,
          "time": 114.11037999999999,
          "velocity": 0.6535433070866141
        },
        {
          "duration": 0.015337416666682202,
          "durationTicks": 8,
          "midi": 36,
          "name": "C2",
          "ticks": 59520,
          "time": 114.11037999999999,
          "velocity": 0.6299212598425197
        },
        {
          "duration": 0.015337416666667991,
          "durationTicks": 8,
          "midi": 42,
          "name": "F#2",
          "ticks": 59616,
          "time": 114.294429,
          "velocity": 0.3779527559055118
        },
        {
          "duration": 0.015337416666667991,
          "durationTicks": 8,
          "midi": 39,
          "name": "D#2",
          "ticks": 59712,
          "time": 114.478478,
          "velocity": 0.8661417322834646
        },
        {
          "duration": 0.015337416666667991,
          "durationTicks": 8,
          "midi": 40,
          "name": "E2",
          "ticks": 59712,
          "time": 114.478478,
          "velocity": 0.9763779527559056
        },
        {
          "duration": 0.015337416666667991,
          "durationTicks": 8,
          "midi": 54,
          "name": "F#3",
          "ticks": 59712,
          "time": 114.478478,
          "velocity": 0.7874015748031497
        },
        {
          "duration": 0.015337416666667991,
          "durationTicks": 8,
          "midi": 42,
          "name": "F#2",
          "ticks": 59712,
          "time": 114.478478,
          "velocity": 0.6535433070866141
        },
        {
          "duration": 0.015337416666667991,
          "durationTicks": 8,
          "midi": 42,
          "name": "F#2",
          "ticks": 59808,
          "time": 114.662527,
          "velocity": 0.48031496062992124
        },
        {
          "duration": 0.015337416666667991,
          "durationTicks": 8,
          "midi": 36,
          "name": "C2",
          "ticks": 59904,
          "time": 114.846576,
          "velocity": 0.7480314960629921
        },
        {
          "duration": 0.015337416666667991,
          "durationTicks": 8,
          "midi": 42,
          "name": "F#2",
          "ticks": 59904,
          "time": 114.846576,
          "velocity": 0.6535433070866141
        },
        {
          "duration": 0.015337416666667991,
          "durationTicks": 8,
          "midi": 42,
          "name": "F#2",
          "ticks": 60000,
          "time": 115.030625,
          "velocity": 0.48031496062992124
        },
        {
          "duration": 0.015337416666682202,
          "durationTicks": 8,
          "midi": 42,
          "name": "F#2",
          "ticks": 60096,
          "time": 115.21467399999999,
          "velocity": 0.6535433070866141
        },
        {
          "duration": 0.015337416666682202,
          "durationTicks": 8,
          "midi": 39,
          "name": "D#2",
          "ticks": 60096,
          "time": 115.21467399999999,
          "velocity": 0.8661417322834646
        },
        {
          "duration": 0.015337416666682202,
          "durationTicks": 8,
          "midi": 54,
          "name": "F#3",
          "ticks": 60096,
          "time": 115.21467399999999,
          "velocity": 0.9133858267716536
        },
        {
          "duration": 0.015337416666682202,
          "durationTicks": 8,
          "midi": 40,
          "name": "E2",
          "ticks": 60096,
          "time": 115.21467399999999,
          "velocity": 0.8818897637795275
        },
        {
          "duration": 0.015337416666682202,
          "durationTicks": 8,
          "midi": 42,
          "name": "F#2",
          "ticks": 60192,
          "time": 115.39872299999999,
          "velocity": 0.5590551181102362
        },
        {
          "duration": 0.015337416666682202,
          "durationTicks": 8,
          "midi": 36,
          "name": "C2",
          "ticks": 60288,
          "time": 115.58277199999999,
          "velocity": 0.8818897637795275
        },
        {
          "duration": 0.015337416666682202,
          "durationTicks": 8,
          "midi": 42,
          "name": "F#2",
          "ticks": 60288,
          "time": 115.58277199999999,
          "velocity": 0.6535433070866141
        },
        {
          "duration": 0.015337416666667991,
          "durationTicks": 8,
          "midi": 42,
          "name": "F#2",
          "ticks": 60384,
          "time": 115.766821,
          "velocity": 0.5590551181102362
        },
        {
          "duration": 0.015337416666667991,
          "durationTicks": 8,
          "midi": 42,
          "name": "F#2",
          "ticks": 60480,
          "time": 115.95087,
          "velocity": 0.6535433070866141
        },
        {
          "duration": 0.015337416666667991,
          "durationTicks": 8,
          "midi": 54,
          "name": "F#3",
          "ticks": 60480,
          "time": 115.95087,
          "velocity": 0.7874015748031497
        },
        {
          "duration": 0.015337416666667991,
          "durationTicks": 8,
          "midi": 39,
          "name": "D#2",
          "ticks": 60480,
          "time": 115.95087,
          "velocity": 0.8661417322834646
        },
        {
          "duration": 0.015337416666667991,
          "durationTicks": 8,
          "midi": 40,
          "name": "E2",
          "ticks": 60480,
          "time": 115.95087,
          "velocity": 0.9763779527559056
        },
        {
          "duration": 0.015337416666667991,
          "durationTicks": 8,
          "midi": 42,
          "name": "F#2",
          "ticks": 60576,
          "time": 116.134919,
          "velocity": 0.48031496062992124
        },
        {
          "duration": 0.015337416666667991,
          "durationTicks": 8,
          "midi": 42,
          "name": "F#2",
          "ticks": 60672,
          "time": 116.318968,
          "velocity": 0.6535433070866141
        },
        {
          "duration": 0.015337416666667991,
          "durationTicks": 8,
          "midi": 36,
          "name": "C2",
          "ticks": 60672,
          "time": 116.318968,
          "velocity": 0.7480314960629921
        },
        {
          "duration": 0.015337416666667991,
          "durationTicks": 8,
          "midi": 42,
          "name": "F#2",
          "ticks": 60768,
          "time": 116.503017,
          "velocity": 0.3779527559055118
        },
        {
          "duration": 0.015337416666682202,
          "durationTicks": 8,
          "midi": 39,
          "name": "D#2",
          "ticks": 60864,
          "time": 116.68706599999999,
          "velocity": 0.8661417322834646
        },
        {
          "duration": 0.015337416666682202,
          "durationTicks": 8,
          "midi": 42,
          "name": "F#2",
          "ticks": 60864,
          "time": 116.68706599999999,
          "velocity": 0.6535433070866141
        },
        {
          "duration": 0.015337416666682202,
          "durationTicks": 8,
          "midi": 54,
          "name": "F#3",
          "ticks": 60864,
          "time": 116.68706599999999,
          "velocity": 0.9133858267716536
        },
        {
          "duration": 0.015337416666682202,
          "durationTicks": 8,
          "midi": 40,
          "name": "E2",
          "ticks": 60864,
          "time": 116.68706599999999,
          "velocity": 0.8818897637795275
        },
        {
          "duration": 0.015337416666682202,
          "durationTicks": 8,
          "midi": 42,
          "name": "F#2",
          "ticks": 60960,
          "time": 116.87111499999999,
          "velocity": 0.4251968503937008
        },
        {
          "duration": 0.015337416666682202,
          "durationTicks": 8,
          "midi": 42,
          "name": "F#2",
          "ticks": 61056,
          "time": 117.05516399999999,
          "velocity": 0.6535433070866141
        },
        {
          "duration": 0.015337416666682202,
          "durationTicks": 8,
          "midi": 36,
          "name": "C2",
          "ticks": 61056,
          "time": 117.05516399999999,
          "velocity": 0.7480314960629921
        },
        {
          "duration": 0.015337416666682202,
          "durationTicks": 8,
          "midi": 42,
          "name": "F#2",
          "ticks": 61152,
          "time": 117.23921299999999,
          "velocity": 0.3779527559055118
        },
        {
          "duration": 0.015337416666667991,
          "durationTicks": 8,
          "midi": 54,
          "name": "F#3",
          "ticks": 61248,
          "time": 117.423262,
          "velocity": 0.9133858267716536
        },
        {
          "duration": 0.015337416666667991,
          "durationTicks": 8,
          "midi": 39,
          "name": "D#2",
          "ticks": 61248,
          "time": 117.423262,
          "velocity": 0.8661417322834646
        },
        {
          "duration": 0.015337416666667991,
          "durationTicks": 8,
          "midi": 42,
          "name": "F#2",
          "ticks": 61248,
          "time": 117.423262,
          "velocity": 0.6535433070866141
        },
        {
          "duration": 0.015337416666667991,
          "durationTicks": 8,
          "midi": 40,
          "name": "E2",
          "ticks": 61248,
          "time": 117.423262,
          "velocity": 0.9763779527559056
        },
        {
          "duration": 0.015337416666667991,
          "durationTicks": 8,
          "midi": 40,
          "name": "E2",
          "ticks": 61344,
          "time": 117.607311,
          "velocity": 0.5039370078740157
        },
        {
          "duration": 0.015337416666682202,
          "durationTicks": 8,
          "midi": 40,
          "name": "E2",
          "ticks": 61392,
          "time": 117.69933549999999,
          "velocity": 0.6614173228346457
        },
        {
          "duration": 0.015337416666667991,
          "durationTicks": 8,
          "midi": 36,
          "name": "C2",
          "ticks": 61440,
          "time": 117.79136,
          "velocity": 0.9763779527559056
        },
        {
          "duration": 0.015337416666667991,
          "durationTicks": 8,
          "midi": 40,
          "name": "E2",
          "ticks": 61440,
          "time": 117.79136,
          "velocity": 0.9763779527559056
        },
        {
          "duration": 0.015337416666667991,
          "durationTicks": 8,
          "midi": 54,
          "name": "F#3",
          "ticks": 61632,
          "time": 118.159458,
          "velocity": 0.7874015748031497
        },
        {
          "duration": 0.015337416666667991,
          "durationTicks": 8,
          "midi": 54,
          "name": "F#3",
          "ticks": 62016,
          "time": 118.895654,
          "velocity": 0.7874015748031497
        },
        {
          "duration": 0.015337416666667991,
          "durationTicks": 8,
          "midi": 40,
          "name": "E2",
          "ticks": 62112,
          "time": 119.079703,
          "velocity": 0.4645669291338583
        },
        {
          "duration": 0.015337416666667991,
          "durationTicks": 8,
          "midi": 54,
          "name": "F#3",
          "ticks": 62208,
          "time": 119.263752,
          "velocity": 0.48031496062992124
        },
        {
          "duration": 0.015337416666667991,
          "durationTicks": 8,
          "midi": 42,
          "name": "F#2",
          "ticks": 62208,
          "time": 119.263752,
          "velocity": 0.7874015748031497
        },
        {
          "duration": 0.015337416666667991,
          "durationTicks": 8,
          "midi": 36,
          "name": "C2",
          "ticks": 62208,
          "time": 119.263752,
          "velocity": 0.8818897637795275
        },
        {
          "duration": 0.015337416666667991,
          "durationTicks": 8,
          "midi": 42,
          "name": "F#2",
          "ticks": 62304,
          "time": 119.447801,
          "velocity": 0.4251968503937008
        },
        {
          "duration": 0.015337416666667991,
          "durationTicks": 8,
          "midi": 54,
          "name": "F#3",
          "ticks": 62304,
          "time": 119.447801,
          "velocity": 0.3779527559055118
        },
        {
          "duration": 0.015337416666667991,
          "durationTicks": 8,
          "midi": 40,
          "name": "E2",
          "ticks": 62400,
          "time": 119.63185,
          "velocity": 0.8818897637795275
        },
        {
          "duration": 0.015337416666667991,
          "durationTicks": 8,
          "midi": 54,
          "name": "F#3",
          "ticks": 62400,
          "time": 119.63185,
          "velocity": 0.9133858267716536
        },
        {
          "duration": 0.015337416666667991,
          "durationTicks": 8,
          "midi": 42,
          "name": "F#2",
          "ticks": 62400,
          "time": 119.63185,
          "velocity": 0.6535433070866141
        },
        {
          "duration": 0.015337416666667991,
          "durationTicks": 8,
          "midi": 39,
          "name": "D#2",
          "ticks": 62400,
          "time": 119.63185,
          "velocity": 0.8661417322834646
        },
        {
          "duration": 0.015337416666682202,
          "durationTicks": 8,
          "midi": 42,
          "name": "F#2",
          "ticks": 62496,
          "time": 119.81589899999999,
          "velocity": 0.4251968503937008
        },
        {
          "duration": 0.015337416666682202,
          "durationTicks": 8,
          "midi": 54,
          "name": "F#3",
          "ticks": 62496,
          "time": 119.81589899999999,
          "velocity": 0.3779527559055118
        },
        {
          "duration": 0.015337416666682202,
          "durationTicks": 8,
          "midi": 54,
          "name": "F#3",
          "ticks": 62592,
          "time": 119.99994799999999,
          "velocity": 0.3779527559055118
        },
        {
          "duration": 0.015337416666682202,
          "durationTicks": 8,
          "midi": 36,
          "name": "C2",
          "ticks": 62592,
          "time": 119.99994799999999,
          "velocity": 0.6299212598425197
        },
        {
          "duration": 0.015337416666682202,
          "durationTicks": 8,
          "midi": 42,
          "name": "F#2",
          "ticks": 62592,
          "time": 119.99994799999999,
          "velocity": 0.6535433070866141
        },
        {
          "duration": 0.015337416666682202,
          "durationTicks": 8,
          "midi": 54,
          "name": "F#3",
          "ticks": 62688,
          "time": 120.18399699999999,
          "velocity": 0.3464566929133858
        },
        {
          "duration": 0.015337416666682202,
          "durationTicks": 8,
          "midi": 42,
          "name": "F#2",
          "ticks": 62688,
          "time": 120.18399699999999,
          "velocity": 0.3779527559055118
        },
        {
          "duration": 0.015337416666667991,
          "durationTicks": 8,
          "midi": 40,
          "name": "E2",
          "ticks": 62784,
          "time": 120.36804599999999,
          "velocity": 0.9763779527559056
        },
        {
          "duration": 0.015337416666667991,
          "durationTicks": 8,
          "midi": 42,
          "name": "F#2",
          "ticks": 62784,
          "time": 120.36804599999999,
          "velocity": 0.6535433070866141
        },
        {
          "duration": 0.015337416666667991,
          "durationTicks": 8,
          "midi": 39,
          "name": "D#2",
          "ticks": 62784,
          "time": 120.36804599999999,
          "velocity": 0.8661417322834646
        },
        {
          "duration": 0.015337416666667991,
          "durationTicks": 8,
          "midi": 54,
          "name": "F#3",
          "ticks": 62784,
          "time": 120.36804599999999,
          "velocity": 0.9133858267716536
        },
        {
          "duration": 0.015337416666667991,
          "durationTicks": 8,
          "midi": 42,
          "name": "F#2",
          "ticks": 62880,
          "time": 120.552095,
          "velocity": 0.48031496062992124
        },
        {
          "duration": 0.015337416666667991,
          "durationTicks": 8,
          "midi": 54,
          "name": "F#3",
          "ticks": 62880,
          "time": 120.552095,
          "velocity": 0.4251968503937008
        },
        {
          "duration": 0.015337416666667991,
          "durationTicks": 8,
          "midi": 42,
          "name": "F#2",
          "ticks": 62976,
          "time": 120.736144,
          "velocity": 0.6535433070866141
        },
        {
          "duration": 0.015337416666667991,
          "durationTicks": 8,
          "midi": 54,
          "name": "F#3",
          "ticks": 62976,
          "time": 120.736144,
          "velocity": 0.7874015748031497
        },
        {
          "duration": 0.015337416666667991,
          "durationTicks": 8,
          "midi": 36,
          "name": "C2",
          "ticks": 62976,
          "time": 120.736144,
          "velocity": 0.7480314960629921
        },
        {
          "duration": 0.015337416666667991,
          "durationTicks": 8,
          "midi": 42,
          "name": "F#2",
          "ticks": 63072,
          "time": 120.920193,
          "velocity": 0.48031496062992124
        },
        {
          "duration": 0.015337416666667991,
          "durationTicks": 8,
          "midi": 54,
          "name": "F#3",
          "ticks": 63072,
          "time": 120.920193,
          "velocity": 0.4251968503937008
        },
        {
          "duration": 0.015337416666667991,
          "durationTicks": 8,
          "midi": 42,
          "name": "F#2",
          "ticks": 63168,
          "time": 121.104242,
          "velocity": 0.6535433070866141
        },
        {
          "duration": 0.015337416666667991,
          "durationTicks": 8,
          "midi": 40,
          "name": "E2",
          "ticks": 63168,
          "time": 121.104242,
          "velocity": 0.8818897637795275
        },
        {
          "duration": 0.015337416666667991,
          "durationTicks": 8,
          "midi": 54,
          "name": "F#3",
          "ticks": 63168,
          "time": 121.104242,
          "velocity": 0.9133858267716536
        },
        {
          "duration": 0.015337416666667991,
          "durationTicks": 8,
          "midi": 39,
          "name": "D#2",
          "ticks": 63168,
          "time": 121.104242,
          "velocity": 0.8661417322834646
        },
        {
          "duration": 0.015337416666682202,
          "durationTicks": 8,
          "midi": 42,
          "name": "F#2",
          "ticks": 63264,
          "time": 121.28829099999999,
          "velocity": 0.5590551181102362
        },
        {
          "duration": 0.015337416666682202,
          "durationTicks": 8,
          "midi": 54,
          "name": "F#3",
          "ticks": 63264,
          "time": 121.28829099999999,
          "velocity": 0.3779527559055118
        },
        {
          "duration": 0.015337416666682202,
          "durationTicks": 8,
          "midi": 54,
          "name": "F#3",
          "ticks": 63360,
          "time": 121.47233999999999,
          "velocity": 0.5590551181102362
        },
        {
          "duration": 0.015337416666682202,
          "durationTicks": 8,
          "midi": 36,
          "name": "C2",
          "ticks": 63360,
          "time": 121.47233999999999,
          "velocity": 0.8818897637795275
        },
        {
          "duration": 0.015337416666682202,
          "durationTicks": 8,
          "midi": 42,
          "name": "F#2",
          "ticks": 63360,
          "time": 121.47233999999999,
          "velocity": 0.6535433070866141
        },
        {
          "duration": 0.015337416666682202,
          "durationTicks": 8,
          "midi": 54,
          "name": "F#3",
          "ticks": 63456,
          "time": 121.65638899999999,
          "velocity": 0.5590551181102362
        },
        {
          "duration": 0.015337416666682202,
          "durationTicks": 8,
          "midi": 42,
          "name": "F#2",
          "ticks": 63456,
          "time": 121.65638899999999,
          "velocity": 0.5590551181102362
        },
        {
          "duration": 0.015337416666682202,
          "durationTicks": 8,
          "midi": 39,
          "name": "D#2",
          "ticks": 63552,
          "time": 121.84043799999999,
          "velocity": 0.8661417322834646
        },
        {
          "duration": 0.015337416666682202,
          "durationTicks": 8,
          "midi": 40,
          "name": "E2",
          "ticks": 63552,
          "time": 121.84043799999999,
          "velocity": 0.9763779527559056
        },
        {
          "duration": 0.015337416666682202,
          "durationTicks": 8,
          "midi": 42,
          "name": "F#2",
          "ticks": 63552,
          "time": 121.84043799999999,
          "velocity": 0.6535433070866141
        },
        {
          "duration": 0.015337416666682202,
          "durationTicks": 8,
          "midi": 54,
          "name": "F#3",
          "ticks": 63552,
          "time": 121.84043799999999,
          "velocity": 0.9133858267716536
        },
        {
          "duration": 0.015337416666667991,
          "durationTicks": 8,
          "midi": 42,
          "name": "F#2",
          "ticks": 63648,
          "time": 122.024487,
          "velocity": 0.48031496062992124
        },
        {
          "duration": 0.015337416666667991,
          "durationTicks": 8,
          "midi": 54,
          "name": "F#3",
          "ticks": 63648,
          "time": 122.024487,
          "velocity": 0.5590551181102362
        },
        {
          "duration": 0.015337416666667991,
          "durationTicks": 8,
          "midi": 42,
          "name": "F#2",
          "ticks": 63744,
          "time": 122.208536,
          "velocity": 0.6535433070866141
        },
        {
          "duration": 0.015337416666667991,
          "durationTicks": 8,
          "midi": 54,
          "name": "F#3",
          "ticks": 63744,
          "time": 122.208536,
          "velocity": 0.48031496062992124
        },
        {
          "duration": 0.015337416666667991,
          "durationTicks": 8,
          "midi": 36,
          "name": "C2",
          "ticks": 63744,
          "time": 122.208536,
          "velocity": 0.7480314960629921
        },
        {
          "duration": 0.015337416666667991,
          "durationTicks": 8,
          "midi": 42,
          "name": "F#2",
          "ticks": 63840,
          "time": 122.392585,
          "velocity": 0.3779527559055118
        },
        {
          "duration": 0.015337416666667991,
          "durationTicks": 8,
          "midi": 54,
          "name": "F#3",
          "ticks": 63840,
          "time": 122.392585,
          "velocity": 0.6535433070866141
        },
        {
          "duration": 0.015337416666667991,
          "durationTicks": 8,
          "midi": 39,
          "name": "D#2",
          "ticks": 63936,
          "time": 122.576634,
          "velocity": 0.8661417322834646
        },
        {
          "duration": 0.015337416666667991,
          "durationTicks": 8,
          "midi": 40,
          "name": "E2",
          "ticks": 63936,
          "time": 122.576634,
          "velocity": 0.8818897637795275
        },
        {
          "duration": 0.015337416666667991,
          "durationTicks": 8,
          "midi": 42,
          "name": "F#2",
          "ticks": 63936,
          "time": 122.576634,
          "velocity": 0.6535433070866141
        },
        {
          "duration": 0.015337416666667991,
          "durationTicks": 8,
          "midi": 54,
          "name": "F#3",
          "ticks": 63936,
          "time": 122.576634,
          "velocity": 0.9133858267716536
        },
        {
          "duration": 0.015337416666667991,
          "durationTicks": 8,
          "midi": 54,
          "name": "F#3",
          "ticks": 64032,
          "time": 122.760683,
          "velocity": 0.5590551181102362
        },
        {
          "duration": 0.015337416666667991,
          "durationTicks": 8,
          "midi": 42,
          "name": "F#2",
          "ticks": 64032,
          "time": 122.760683,
          "velocity": 0.4251968503937008
        },
        {
          "duration": 0.015337416666682202,
          "durationTicks": 8,
          "midi": 42,
          "name": "F#2",
          "ticks": 64128,
          "time": 122.94473199999999,
          "velocity": 0.6535433070866141
        },
        {
          "duration": 0.015337416666682202,
          "durationTicks": 8,
          "midi": 36,
          "name": "C2",
          "ticks": 64128,
          "time": 122.94473199999999,
          "velocity": 0.7480314960629921
        },
        {
          "duration": 0.015337416666682202,
          "durationTicks": 8,
          "midi": 54,
          "name": "F#3",
          "ticks": 64128,
          "time": 122.94473199999999,
          "velocity": 0.5590551181102362
        },
        {
          "duration": 0.015337416666682202,
          "durationTicks": 8,
          "midi": 42,
          "name": "F#2",
          "ticks": 64224,
          "time": 123.12878099999999,
          "velocity": 0.3779527559055118
        },
        {
          "duration": 0.015337416666682202,
          "durationTicks": 8,
          "midi": 54,
          "name": "F#3",
          "ticks": 64224,
          "time": 123.12878099999999,
          "velocity": 0.6535433070866141
        },
        {
          "duration": 0.015337416666682202,
          "durationTicks": 8,
          "midi": 40,
          "name": "E2",
          "ticks": 64320,
          "time": 123.31282999999999,
          "velocity": 0.9763779527559056
        },
        {
          "duration": 0.015337416666682202,
          "durationTicks": 8,
          "midi": 54,
          "name": "F#3",
          "ticks": 64320,
          "time": 123.31282999999999,
          "velocity": 0.9133858267716536
        },
        {
          "duration": 0.015337416666682202,
          "durationTicks": 8,
          "midi": 39,
          "name": "D#2",
          "ticks": 64320,
          "time": 123.31282999999999,
          "velocity": 0.8661417322834646
        },
        {
          "duration": 0.015337416666682202,
          "durationTicks": 8,
          "midi": 42,
          "name": "F#2",
          "ticks": 64320,
          "time": 123.31282999999999,
          "velocity": 0.6535433070866141
        },
        {
          "duration": 0.015337416666667991,
          "durationTicks": 8,
          "midi": 54,
          "name": "F#3",
          "ticks": 64416,
          "time": 123.49687899999999,
          "velocity": 0.6535433070866141
        },
        {
          "duration": 0.015337416666667991,
          "durationTicks": 8,
          "midi": 42,
          "name": "F#2",
          "ticks": 64416,
          "time": 123.49687899999999,
          "velocity": 0.5590551181102362
        },
        {
          "duration": 0.015337416666667991,
          "durationTicks": 8,
          "midi": 54,
          "name": "F#3",
          "ticks": 64512,
          "time": 123.680928,
          "velocity": 0.5590551181102362
        },
        {
          "duration": 0.015337416666667991,
          "durationTicks": 8,
          "midi": 42,
          "name": "F#2",
          "ticks": 64512,
          "time": 123.680928,
          "velocity": 0.6535433070866141
        },
        {
          "duration": 0.015337416666667991,
          "durationTicks": 8,
          "midi": 36,
          "name": "C2",
          "ticks": 64512,
          "time": 123.680928,
          "velocity": 0.8818897637795275
        },
        {
          "duration": 0.015337416666667991,
          "durationTicks": 8,
          "midi": 54,
          "name": "F#3",
          "ticks": 64608,
          "time": 123.864977,
          "velocity": 0.5590551181102362
        },
        {
          "duration": 0.015337416666667991,
          "durationTicks": 8,
          "midi": 42,
          "name": "F#2",
          "ticks": 64608,
          "time": 123.864977,
          "velocity": 0.48031496062992124
        },
        {
          "duration": 0.015337416666667991,
          "durationTicks": 8,
          "midi": 42,
          "name": "F#2",
          "ticks": 64704,
          "time": 124.049026,
          "velocity": 0.7874015748031497
        },
        {
          "duration": 0.015337416666667991,
          "durationTicks": 8,
          "midi": 39,
          "name": "D#2",
          "ticks": 64704,
          "time": 124.049026,
          "velocity": 0.8661417322834646
        },
        {
          "duration": 0.015337416666667991,
          "durationTicks": 8,
          "midi": 40,
          "name": "E2",
          "ticks": 64704,
          "time": 124.049026,
          "velocity": 0.8818897637795275
        },
        {
          "duration": 0.015337416666667991,
          "durationTicks": 8,
          "midi": 54,
          "name": "F#3",
          "ticks": 64704,
          "time": 124.049026,
          "velocity": 0.9133858267716536
        },
        {
          "duration": 0.015337416666667991,
          "durationTicks": 8,
          "midi": 54,
          "name": "F#3",
          "ticks": 64800,
          "time": 124.233075,
          "velocity": 0.5590551181102362
        },
        {
          "duration": 0.015337416666667991,
          "durationTicks": 8,
          "midi": 42,
          "name": "F#2",
          "ticks": 64800,
          "time": 124.233075,
          "velocity": 0.48031496062992124
        },
        {
          "duration": 0.015337416666682202,
          "durationTicks": 8,
          "midi": 42,
          "name": "F#2",
          "ticks": 64896,
          "time": 124.41712399999999,
          "velocity": 0.6535433070866141
        },
        {
          "duration": 0.015337416666682202,
          "durationTicks": 8,
          "midi": 54,
          "name": "F#3",
          "ticks": 64896,
          "time": 124.41712399999999,
          "velocity": 0.48031496062992124
        },
        {
          "duration": 0.015337416666682202,
          "durationTicks": 8,
          "midi": 36,
          "name": "C2",
          "ticks": 64896,
          "time": 124.41712399999999,
          "velocity": 0.8818897637795275
        },
        {
          "duration": 0.015337416666682202,
          "durationTicks": 8,
          "midi": 54,
          "name": "F#3",
          "ticks": 64992,
          "time": 124.60117299999999,
          "velocity": 0.5590551181102362
        },
        {
          "duration": 0.015337416666682202,
          "durationTicks": 8,
          "midi": 42,
          "name": "F#2",
          "ticks": 64992,
          "time": 124.60117299999999,
          "velocity": 0.48031496062992124
        },
        {
          "duration": 0.015337416666682202,
          "durationTicks": 8,
          "midi": 39,
          "name": "D#2",
          "ticks": 65088,
          "time": 124.78522199999999,
          "velocity": 0.8661417322834646
        },
        {
          "duration": 0.015337416666682202,
          "durationTicks": 8,
          "midi": 40,
          "name": "E2",
          "ticks": 65088,
          "time": 124.78522199999999,
          "velocity": 0.7480314960629921
        },
        {
          "duration": 0.015337416666682202,
          "durationTicks": 8,
          "midi": 54,
          "name": "F#3",
          "ticks": 65088,
          "time": 124.78522199999999,
          "velocity": 0.9133858267716536
        },
        {
          "duration": 0.015337416666682202,
          "durationTicks": 8,
          "midi": 42,
          "name": "F#2",
          "ticks": 65088,
          "time": 124.78522199999999,
          "velocity": 0.7874015748031497
        },
        {
          "duration": 0.015337416666682202,
          "durationTicks": 8,
          "midi": 42,
          "name": "F#2",
          "ticks": 65184,
          "time": 124.96927099999999,
          "velocity": 0.5590551181102362
        },
        {
          "duration": 0.015337416666682202,
          "durationTicks": 8,
          "midi": 54,
          "name": "F#3",
          "ticks": 65184,
          "time": 124.96927099999999,
          "velocity": 0.6535433070866141
        },
        {
          "duration": 0.015337416666667991,
          "durationTicks": 8,
          "midi": 54,
          "name": "F#3",
          "ticks": 65280,
          "time": 125.15332,
          "velocity": 0.5590551181102362
        },
        {
          "duration": 0.015337416666667991,
          "durationTicks": 8,
          "midi": 36,
          "name": "C2",
          "ticks": 65280,
          "time": 125.15332,
          "velocity": 0.8818897637795275
        },
        {
          "duration": 0.015337416666667991,
          "durationTicks": 8,
          "midi": 42,
          "name": "F#2",
          "ticks": 65280,
          "time": 125.15332,
          "velocity": 0.7874015748031497
        },
        {
          "duration": 0.015337416666667991,
          "durationTicks": 8,
          "midi": 54,
          "name": "F#3",
          "ticks": 65376,
          "time": 125.337369,
          "velocity": 0.4251968503937008
        },
        {
          "duration": 0.015337416666667991,
          "durationTicks": 8,
          "midi": 42,
          "name": "F#2",
          "ticks": 65376,
          "time": 125.337369,
          "velocity": 0.4251968503937008
        },
        {
          "duration": 0.015337416666667991,
          "durationTicks": 8,
          "midi": 39,
          "name": "D#2",
          "ticks": 65472,
          "time": 125.521418,
          "velocity": 0.8661417322834646
        },
        {
          "duration": 0.015337416666667991,
          "durationTicks": 8,
          "midi": 42,
          "name": "F#2",
          "ticks": 65472,
          "time": 125.521418,
          "velocity": 0.6535433070866141
        },
        {
          "duration": 0.015337416666667991,
          "durationTicks": 8,
          "midi": 40,
          "name": "E2",
          "ticks": 65472,
          "time": 125.521418,
          "velocity": 0.8818897637795275
        },
        {
          "duration": 0.015337416666667991,
          "durationTicks": 8,
          "midi": 54,
          "name": "F#3",
          "ticks": 65472,
          "time": 125.521418,
          "velocity": 0.9133858267716536
        },
        {
          "duration": 0.015337416666667991,
          "durationTicks": 8,
          "midi": 54,
          "name": "F#3",
          "ticks": 65568,
          "time": 125.705467,
          "velocity": 0.5590551181102362
        },
        {
          "duration": 0.015337416666667991,
          "durationTicks": 8,
          "midi": 42,
          "name": "F#2",
          "ticks": 65568,
          "time": 125.705467,
          "velocity": 0.4251968503937008
        },
        {
          "duration": 0.015337416666667991,
          "durationTicks": 8,
          "midi": 36,
          "name": "C2",
          "ticks": 65664,
          "time": 125.889516,
          "velocity": 0.6299212598425197
        },
        {
          "duration": 0.015337416666667991,
          "durationTicks": 8,
          "midi": 54,
          "name": "F#3",
          "ticks": 65664,
          "time": 125.889516,
          "velocity": 0.5590551181102362
        },
        {
          "duration": 0.015337416666667991,
          "durationTicks": 8,
          "midi": 42,
          "name": "F#2",
          "ticks": 65664,
          "time": 125.889516,
          "velocity": 0.6535433070866141
        },
        {
          "duration": 0.015337416666682202,
          "durationTicks": 8,
          "midi": 42,
          "name": "F#2",
          "ticks": 65760,
          "time": 126.07356499999999,
          "velocity": 0.3779527559055118
        },
        {
          "duration": 0.015337416666682202,
          "durationTicks": 8,
          "midi": 54,
          "name": "F#3",
          "ticks": 65760,
          "time": 126.07356499999999,
          "velocity": 0.5590551181102362
        },
        {
          "duration": 0.015337416666682202,
          "durationTicks": 8,
          "midi": 39,
          "name": "D#2",
          "ticks": 65856,
          "time": 126.25761399999999,
          "velocity": 0.8661417322834646
        },
        {
          "duration": 0.015337416666682202,
          "durationTicks": 8,
          "midi": 42,
          "name": "F#2",
          "ticks": 65856,
          "time": 126.25761399999999,
          "velocity": 0.6535433070866141
        },
        {
          "duration": 0.015337416666682202,
          "durationTicks": 8,
          "midi": 40,
          "name": "E2",
          "ticks": 65856,
          "time": 126.25761399999999,
          "velocity": 0.9763779527559056
        },
        {
          "duration": 0.015337416666682202,
          "durationTicks": 8,
          "midi": 54,
          "name": "F#3",
          "ticks": 65856,
          "time": 126.25761399999999,
          "velocity": 0.9133858267716536
        },
        {
          "duration": 0.015337416666682202,
          "durationTicks": 8,
          "midi": 54,
          "name": "F#3",
          "ticks": 65952,
          "time": 126.44166299999999,
          "velocity": 0.5590551181102362
        },
        {
          "duration": 0.015337416666682202,
          "durationTicks": 8,
          "midi": 42,
          "name": "F#2",
          "ticks": 65952,
          "time": 126.44166299999999,
          "velocity": 0.48031496062992124
        },
        {
          "duration": 0.015337416666667991,
          "durationTicks": 8,
          "midi": 54,
          "name": "F#3",
          "ticks": 66048,
          "time": 126.625712,
          "velocity": 0.5590551181102362
        },
        {
          "duration": 0.015337416666667991,
          "durationTicks": 8,
          "midi": 42,
          "name": "F#2",
          "ticks": 66048,
          "time": 126.625712,
          "velocity": 0.6535433070866141
        },
        {
          "duration": 0.015337416666667991,
          "durationTicks": 8,
          "midi": 36,
          "name": "C2",
          "ticks": 66048,
          "time": 126.625712,
          "velocity": 0.7480314960629921
        },
        {
          "duration": 0.015337416666667991,
          "durationTicks": 8,
          "midi": 54,
          "name": "F#3",
          "ticks": 66144,
          "time": 126.809761,
          "velocity": 0.6535433070866141
        },
        {
          "duration": 0.015337416666667991,
          "durationTicks": 8,
          "midi": 42,
          "name": "F#2",
          "ticks": 66144,
          "time": 126.809761,
          "velocity": 0.48031496062992124
        },
        {
          "duration": 0.015337416666667991,
          "durationTicks": 8,
          "midi": 42,
          "name": "F#2",
          "ticks": 66240,
          "time": 126.99381,
          "velocity": 0.6535433070866141
        },
        {
          "duration": 0.015337416666667991,
          "durationTicks": 8,
          "midi": 39,
          "name": "D#2",
          "ticks": 66240,
          "time": 126.99381,
          "velocity": 0.8661417322834646
        },
        {
          "duration": 0.015337416666667991,
          "durationTicks": 8,
          "midi": 40,
          "name": "E2",
          "ticks": 66240,
          "time": 126.99381,
          "velocity": 0.8818897637795275
        },
        {
          "duration": 0.015337416666667991,
          "durationTicks": 8,
          "midi": 54,
          "name": "F#3",
          "ticks": 66240,
          "time": 126.99381,
          "velocity": 0.9133858267716536
        },
        {
          "duration": 0.015337416666667991,
          "durationTicks": 8,
          "midi": 42,
          "name": "F#2",
          "ticks": 66336,
          "time": 127.177859,
          "velocity": 0.5590551181102362
        },
        {
          "duration": 0.015337416666667991,
          "durationTicks": 8,
          "midi": 54,
          "name": "F#3",
          "ticks": 66336,
          "time": 127.177859,
          "velocity": 0.5590551181102362
        },
        {
          "duration": 0.015337416666667991,
          "durationTicks": 8,
          "midi": 54,
          "name": "F#3",
          "ticks": 66432,
          "time": 127.361908,
          "velocity": 0.6535433070866141
        },
        {
          "duration": 0.015337416666667991,
          "durationTicks": 8,
          "midi": 42,
          "name": "F#2",
          "ticks": 66432,
          "time": 127.361908,
          "velocity": 0.6535433070866141
        },
        {
          "duration": 0.015337416666667991,
          "durationTicks": 8,
          "midi": 36,
          "name": "C2",
          "ticks": 66432,
          "time": 127.361908,
          "velocity": 0.8818897637795275
        },
        {
          "duration": 0.015337416666682202,
          "durationTicks": 8,
          "midi": 42,
          "name": "F#2",
          "ticks": 66528,
          "time": 127.54595699999999,
          "velocity": 0.5590551181102362
        },
        {
          "duration": 0.015337416666682202,
          "durationTicks": 8,
          "midi": 54,
          "name": "F#3",
          "ticks": 66528,
          "time": 127.54595699999999,
          "velocity": 0.6535433070866141
        },
        {
          "duration": 0.015337416666682202,
          "durationTicks": 8,
          "midi": 42,
          "name": "F#2",
          "ticks": 66624,
          "time": 127.73000599999999,
          "velocity": 0.6535433070866141
        },
        {
          "duration": 0.015337416666682202,
          "durationTicks": 8,
          "midi": 54,
          "name": "F#3",
          "ticks": 66624,
          "time": 127.73000599999999,
          "velocity": 0.9133858267716536
        },
        {
          "duration": 0.015337416666682202,
          "durationTicks": 8,
          "midi": 39,
          "name": "D#2",
          "ticks": 66624,
          "time": 127.73000599999999,
          "velocity": 0.8661417322834646
        },
        {
          "duration": 0.015337416666682202,
          "durationTicks": 8,
          "midi": 40,
          "name": "E2",
          "ticks": 66624,
          "time": 127.73000599999999,
          "velocity": 0.9763779527559056
        },
        {
          "duration": 0.015337416666682202,
          "durationTicks": 8,
          "midi": 54,
          "name": "F#3",
          "ticks": 66720,
          "time": 127.91405499999999,
          "velocity": 0.6535433070866141
        },
        {
          "duration": 0.015337416666682202,
          "durationTicks": 8,
          "midi": 42,
          "name": "F#2",
          "ticks": 66720,
          "time": 127.91405499999999,
          "velocity": 0.48031496062992124
        },
        {
          "duration": 0.01533741666665378,
          "durationTicks": 8,
          "midi": 54,
          "name": "F#3",
          "ticks": 66816,
          "time": 128.098104,
          "velocity": 0.6535433070866141
        },
        {
          "duration": 0.01533741666665378,
          "durationTicks": 8,
          "midi": 42,
          "name": "F#2",
          "ticks": 66816,
          "time": 128.098104,
          "velocity": 0.6535433070866141
        },
        {
          "duration": 0.01533741666665378,
          "durationTicks": 8,
          "midi": 36,
          "name": "C2",
          "ticks": 66816,
          "time": 128.098104,
          "velocity": 0.7480314960629921
        },
        {
          "duration": 0.015337416666682202,
          "durationTicks": 8,
          "midi": 54,
          "name": "F#3",
          "ticks": 66912,
          "time": 128.282153,
          "velocity": 0.48031496062992124
        },
        {
          "duration": 0.015337416666682202,
          "durationTicks": 8,
          "midi": 42,
          "name": "F#2",
          "ticks": 66912,
          "time": 128.282153,
          "velocity": 0.3779527559055118
        },
        {
          "duration": 0.015337416666682202,
          "durationTicks": 8,
          "midi": 39,
          "name": "D#2",
          "ticks": 67008,
          "time": 128.46620199999998,
          "velocity": 0.8661417322834646
        },
        {
          "duration": 0.015337416666682202,
          "durationTicks": 8,
          "midi": 40,
          "name": "E2",
          "ticks": 67008,
          "time": 128.46620199999998,
          "velocity": 0.8818897637795275
        },
        {
          "duration": 0.015337416666682202,
          "durationTicks": 8,
          "midi": 54,
          "name": "F#3",
          "ticks": 67008,
          "time": 128.46620199999998,
          "velocity": 0.9133858267716536
        },
        {
          "duration": 0.015337416666682202,
          "durationTicks": 8,
          "midi": 42,
          "name": "F#2",
          "ticks": 67008,
          "time": 128.46620199999998,
          "velocity": 0.6535433070866141
        },
        {
          "duration": 0.015337416666682202,
          "durationTicks": 8,
          "midi": 54,
          "name": "F#3",
          "ticks": 67104,
          "time": 128.650251,
          "velocity": 0.5590551181102362
        },
        {
          "duration": 0.015337416666682202,
          "durationTicks": 8,
          "midi": 42,
          "name": "F#2",
          "ticks": 67104,
          "time": 128.650251,
          "velocity": 0.4251968503937008
        },
        {
          "duration": 0.015337416666682202,
          "durationTicks": 8,
          "midi": 54,
          "name": "F#3",
          "ticks": 67200,
          "time": 128.83429999999998,
          "velocity": 0.5590551181102362
        },
        {
          "duration": 0.015337416666682202,
          "durationTicks": 8,
          "midi": 36,
          "name": "C2",
          "ticks": 67200,
          "time": 128.83429999999998,
          "velocity": 0.7480314960629921
        },
        {
          "duration": 0.015337416666682202,
          "durationTicks": 8,
          "midi": 42,
          "name": "F#2",
          "ticks": 67200,
          "time": 128.83429999999998,
          "velocity": 0.6535433070866141
        },
        {
          "duration": 0.01533741666665378,
          "durationTicks": 8,
          "midi": 54,
          "name": "F#3",
          "ticks": 67296,
          "time": 129.018349,
          "velocity": 0.5590551181102362
        },
        {
          "duration": 0.01533741666665378,
          "durationTicks": 8,
          "midi": 42,
          "name": "F#2",
          "ticks": 67296,
          "time": 129.018349,
          "velocity": 0.3779527559055118
        },
        {
          "duration": 0.015337416666682202,
          "durationTicks": 8,
          "midi": 42,
          "name": "F#2",
          "ticks": 67392,
          "time": 129.202398,
          "velocity": 0.6535433070866141
        },
        {
          "duration": 0.015337416666682202,
          "durationTicks": 8,
          "midi": 40,
          "name": "E2",
          "ticks": 67392,
          "time": 129.202398,
          "velocity": 0.9763779527559056
        },
        {
          "duration": 0.015337416666682202,
          "durationTicks": 8,
          "midi": 39,
          "name": "D#2",
          "ticks": 67392,
          "time": 129.202398,
          "velocity": 0.8661417322834646
        },
        {
          "duration": 0.015337416666682202,
          "durationTicks": 8,
          "midi": 54,
          "name": "F#3",
          "ticks": 67392,
          "time": 129.202398,
          "velocity": 0.9133858267716536
        },
        {
          "duration": 0.01533741666665378,
          "durationTicks": 8,
          "midi": 42,
          "name": "F#2",
          "ticks": 67488,
          "time": 129.386447,
          "velocity": 0.5590551181102362
        },
        {
          "duration": 0.01533741666665378,
          "durationTicks": 8,
          "midi": 54,
          "name": "F#3",
          "ticks": 67488,
          "time": 129.386447,
          "velocity": 0.6535433070866141
        },
        {
          "duration": 0.015337416666682202,
          "durationTicks": 8,
          "midi": 36,
          "name": "C2",
          "ticks": 67584,
          "time": 129.570496,
          "velocity": 0.8818897637795275
        },
        {
          "duration": 0.015337416666682202,
          "durationTicks": 8,
          "midi": 42,
          "name": "F#2",
          "ticks": 67584,
          "time": 129.570496,
          "velocity": 0.6535433070866141
        },
        {
          "duration": 0.015337416666682202,
          "durationTicks": 8,
          "midi": 54,
          "name": "F#3",
          "ticks": 67584,
          "time": 129.570496,
          "velocity": 0.6535433070866141
        },
        {
          "duration": 0.01533741666665378,
          "durationTicks": 8,
          "midi": 54,
          "name": "F#3",
          "ticks": 67680,
          "time": 129.754545,
          "velocity": 0.48031496062992124
        },
        {
          "duration": 0.01533741666665378,
          "durationTicks": 8,
          "midi": 42,
          "name": "F#2",
          "ticks": 67680,
          "time": 129.754545,
          "velocity": 0.48031496062992124
        },
        {
          "duration": 0.015337416666682202,
          "durationTicks": 8,
          "midi": 40,
          "name": "E2",
          "ticks": 67776,
          "time": 129.938594,
          "velocity": 0.8818897637795275
        },
        {
          "duration": 0.015337416666682202,
          "durationTicks": 8,
          "midi": 39,
          "name": "D#2",
          "ticks": 67776,
          "time": 129.938594,
          "velocity": 0.8661417322834646
        },
        {
          "duration": 0.015337416666682202,
          "durationTicks": 8,
          "midi": 54,
          "name": "F#3",
          "ticks": 67776,
          "time": 129.938594,
          "velocity": 0.9133858267716536
        },
        {
          "duration": 0.015337416666682202,
          "durationTicks": 8,
          "midi": 42,
          "name": "F#2",
          "ticks": 67776,
          "time": 129.938594,
          "velocity": 0.7874015748031497
        },
        {
          "duration": 0.015337416666682202,
          "durationTicks": 8,
          "midi": 42,
          "name": "F#2",
          "ticks": 67872,
          "time": 130.12264299999998,
          "velocity": 0.48031496062992124
        },
        {
          "duration": 0.015337416666682202,
          "durationTicks": 8,
          "midi": 54,
          "name": "F#3",
          "ticks": 67872,
          "time": 130.12264299999998,
          "velocity": 0.6535433070866141
        },
        {
          "duration": 0.015337416666682202,
          "durationTicks": 8,
          "midi": 36,
          "name": "C2",
          "ticks": 67968,
          "time": 130.306692,
          "velocity": 0.8818897637795275
        },
        {
          "duration": 0.015337416666682202,
          "durationTicks": 8,
          "midi": 54,
          "name": "F#3",
          "ticks": 67968,
          "time": 130.306692,
          "velocity": 0.6535433070866141
        },
        {
          "duration": 0.015337416666682202,
          "durationTicks": 8,
          "midi": 42,
          "name": "F#2",
          "ticks": 67968,
          "time": 130.306692,
          "velocity": 0.6535433070866141
        },
        {
          "duration": 0.015337416666682202,
          "durationTicks": 8,
          "midi": 42,
          "name": "F#2",
          "ticks": 68064,
          "time": 130.49074099999999,
          "velocity": 0.48031496062992124
        },
        {
          "duration": 0.015337416666682202,
          "durationTicks": 8,
          "midi": 54,
          "name": "F#3",
          "ticks": 68064,
          "time": 130.49074099999999,
          "velocity": 0.48031496062992124
        },
        {
          "duration": 0.01533741666665378,
          "durationTicks": 8,
          "midi": 42,
          "name": "F#2",
          "ticks": 68160,
          "time": 130.67479,
          "velocity": 0.7874015748031497
        },
        {
          "duration": 0.01533741666665378,
          "durationTicks": 8,
          "midi": 39,
          "name": "D#2",
          "ticks": 68160,
          "time": 130.67479,
          "velocity": 0.8661417322834646
        },
        {
          "duration": 0.01533741666665378,
          "durationTicks": 8,
          "midi": 54,
          "name": "F#3",
          "ticks": 68160,
          "time": 130.67479,
          "velocity": 0.9133858267716536
        },
        {
          "duration": 0.01533741666665378,
          "durationTicks": 8,
          "midi": 40,
          "name": "E2",
          "ticks": 68160,
          "time": 130.67479,
          "velocity": 0.7480314960629921
        },
        {
          "duration": 0.015337416666682202,
          "durationTicks": 8,
          "midi": 54,
          "name": "F#3",
          "ticks": 68256,
          "time": 130.858839,
          "velocity": 0.6535433070866141
        },
        {
          "duration": 0.015337416666682202,
          "durationTicks": 8,
          "midi": 42,
          "name": "F#2",
          "ticks": 68256,
          "time": 130.858839,
          "velocity": 0.5590551181102362
        },
        {
          "duration": 0.01533741666665378,
          "durationTicks": 8,
          "midi": 36,
          "name": "C2",
          "ticks": 68352,
          "time": 131.042888,
          "velocity": 0.8818897637795275
        },
        {
          "duration": 0.01533741666665378,
          "durationTicks": 8,
          "midi": 54,
          "name": "F#3",
          "ticks": 68352,
          "time": 131.042888,
          "velocity": 0.48031496062992124
        },
        {
          "duration": 0.01533741666665378,
          "durationTicks": 8,
          "midi": 40,
          "name": "E2",
          "ticks": 68352,
          "time": 131.042888,
          "velocity": 0.8818897637795275
        },
        {
          "duration": 0.015337416666682202,
          "durationTicks": 8,
          "midi": 54,
          "name": "F#3",
          "ticks": 68448,
          "time": 131.226937,
          "velocity": 0.3779527559055118
        },
        {
          "duration": 0.015337416666682202,
          "durationTicks": 8,
          "midi": 54,
          "name": "F#3",
          "ticks": 68544,
          "time": 131.41098599999998,
          "velocity": 0.9133858267716536
        },
        {
          "duration": 0.015337416666682202,
          "durationTicks": 8,
          "midi": 54,
          "name": "F#3",
          "ticks": 68640,
          "time": 131.595035,
          "velocity": 0.3779527559055118
        },
        {
          "duration": 0.015337416666682202,
          "durationTicks": 8,
          "midi": 54,
          "name": "F#3",
          "ticks": 68736,
          "time": 131.77908399999998,
          "velocity": 0.3779527559055118
        },
        {
          "duration": 0.01533741666665378,
          "durationTicks": 8,
          "midi": 54,
          "name": "F#3",
          "ticks": 68832,
          "time": 131.963133,
          "velocity": 0.3464566929133858
        },
        {
          "duration": 0.015337416666682202,
          "durationTicks": 8,
          "midi": 42,
          "name": "F#2",
          "ticks": 68928,
          "time": 132.147182,
          "velocity": 0.9133858267716536
        },
        {
          "duration": 0.015337416666682202,
          "durationTicks": 8,
          "midi": 39,
          "name": "D#2",
          "ticks": 68928,
          "time": 132.147182,
          "velocity": 0.8661417322834646
        },
        {
          "duration": 0.015337416666682202,
          "durationTicks": 8,
          "midi": 54,
          "name": "F#3",
          "ticks": 68928,
          "time": 132.147182,
          "velocity": 0.9133858267716536
        },
        {
          "duration": 0.01533741666665378,
          "durationTicks": 8,
          "midi": 54,
          "name": "F#3",
          "ticks": 69024,
          "time": 132.331231,
          "velocity": 0.4251968503937008
        },
        {
          "duration": 0.015337416666682202,
          "durationTicks": 8,
          "midi": 54,
          "name": "F#3",
          "ticks": 69120,
          "time": 132.51528,
          "velocity": 0.7874015748031497
        },
        {
          "duration": 0.01533741666665378,
          "durationTicks": 8,
          "midi": 54,
          "name": "F#3",
          "ticks": 69216,
          "time": 132.699329,
          "velocity": 0.4251968503937008
        },
        {
          "duration": 0.015337416666682202,
          "durationTicks": 8,
          "midi": 42,
          "name": "F#2",
          "ticks": 69312,
          "time": 132.883378,
          "velocity": 0.9133858267716536
        },
        {
          "duration": 0.015337416666682202,
          "durationTicks": 8,
          "midi": 54,
          "name": "F#3",
          "ticks": 69312,
          "time": 132.883378,
          "velocity": 0.9133858267716536
        },
        {
          "duration": 0.015337416666682202,
          "durationTicks": 8,
          "midi": 54,
          "name": "F#3",
          "ticks": 69408,
          "time": 133.06742699999998,
          "velocity": 0.3779527559055118
        },
        {
          "duration": 0.015337416666682202,
          "durationTicks": 8,
          "midi": 54,
          "name": "F#3",
          "ticks": 69504,
          "time": 133.251476,
          "velocity": 0.5590551181102362
        },
        {
          "duration": 0.015337416666682202,
          "durationTicks": 8,
          "midi": 54,
          "name": "F#3",
          "ticks": 69600,
          "time": 133.43552499999998,
          "velocity": 0.5590551181102362
        },
        {
          "duration": 0.01533741666665378,
          "durationTicks": 8,
          "midi": 39,
          "name": "D#2",
          "ticks": 69696,
          "time": 133.619574,
          "velocity": 0.8661417322834646
        },
        {
          "duration": 0.01533741666665378,
          "durationTicks": 8,
          "midi": 54,
          "name": "F#3",
          "ticks": 69696,
          "time": 133.619574,
          "velocity": 0.9133858267716536
        },
        {
          "duration": 0.01533741666665378,
          "durationTicks": 8,
          "midi": 42,
          "name": "F#2",
          "ticks": 69696,
          "time": 133.619574,
          "velocity": 0.7874015748031497
        },
        {
          "duration": 0.015337416666682202,
          "durationTicks": 8,
          "midi": 54,
          "name": "F#3",
          "ticks": 69792,
          "time": 133.803623,
          "velocity": 0.5590551181102362
        },
        {
          "duration": 0.01533741666665378,
          "durationTicks": 8,
          "midi": 54,
          "name": "F#3",
          "ticks": 69888,
          "time": 133.987672,
          "velocity": 0.48031496062992124
        },
        {
          "duration": 0.015337416666682202,
          "durationTicks": 8,
          "midi": 54,
          "name": "F#3",
          "ticks": 69984,
          "time": 134.171721,
          "velocity": 0.6535433070866141
        },
        {
          "duration": 0.01533741666665378,
          "durationTicks": 8,
          "midi": 54,
          "name": "F#3",
          "ticks": 70080,
          "time": 134.35577,
          "velocity": 0.9133858267716536
        },
        {
          "duration": 0.01533741666665378,
          "durationTicks": 8,
          "midi": 42,
          "name": "F#2",
          "ticks": 70080,
          "time": 134.35577,
          "velocity": 0.9133858267716536
        },
        {
          "duration": 0.015337416666682202,
          "durationTicks": 8,
          "midi": 54,
          "name": "F#3",
          "ticks": 70176,
          "time": 134.539819,
          "velocity": 0.5590551181102362
        },
        {
          "duration": 0.015337416666682202,
          "durationTicks": 8,
          "midi": 54,
          "name": "F#3",
          "ticks": 70272,
          "time": 134.72386799999998,
          "velocity": 0.5590551181102362
        },
        {
          "duration": 0.015337416666682202,
          "durationTicks": 8,
          "midi": 54,
          "name": "F#3",
          "ticks": 70368,
          "time": 134.907917,
          "velocity": 0.6535433070866141
        },
        {
          "duration": 0.015337416666682202,
          "durationTicks": 8,
          "midi": 54,
          "name": "F#3",
          "ticks": 70464,
          "time": 135.09196599999999,
          "velocity": 0.9133858267716536
        },
        {
          "duration": 0.015337416666682202,
          "durationTicks": 8,
          "midi": 39,
          "name": "D#2",
          "ticks": 70464,
          "time": 135.09196599999999,
          "velocity": 0.8661417322834646
        },
        {
          "duration": 0.015337416666682202,
          "durationTicks": 8,
          "midi": 42,
          "name": "F#2",
          "ticks": 70464,
          "time": 135.09196599999999,
          "velocity": 0.9133858267716536
        },
        {
          "duration": 0.01533741666665378,
          "durationTicks": 8,
          "midi": 54,
          "name": "F#3",
          "ticks": 70560,
          "time": 135.276015,
          "velocity": 0.6535433070866141
        },
        {
          "duration": 0.015337416666682202,
          "durationTicks": 8,
          "midi": 54,
          "name": "F#3",
          "ticks": 70656,
          "time": 135.460064,
          "velocity": 0.5590551181102362
        },
        {
          "duration": 0.01533741666665378,
          "durationTicks": 8,
          "midi": 54,
          "name": "F#3",
          "ticks": 70752,
          "time": 135.644113,
          "velocity": 0.5590551181102362
        },
        {
          "duration": 0.015337416666682202,
          "durationTicks": 8,
          "midi": 42,
          "name": "F#2",
          "ticks": 70848,
          "time": 135.828162,
          "velocity": 0.7874015748031497
        },
        {
          "duration": 0.015337416666682202,
          "durationTicks": 8,
          "midi": 54,
          "name": "F#3",
          "ticks": 70848,
          "time": 135.828162,
          "velocity": 0.9133858267716536
        },
        {
          "duration": 0.015337416666682202,
          "durationTicks": 8,
          "midi": 54,
          "name": "F#3",
          "ticks": 70944,
          "time": 136.01221099999998,
          "velocity": 0.5590551181102362
        },
        {
          "duration": 0.015337416666682202,
          "durationTicks": 8,
          "midi": 54,
          "name": "F#3",
          "ticks": 71040,
          "time": 136.19626,
          "velocity": 0.48031496062992124
        },
        {
          "duration": 0.015337416666682202,
          "durationTicks": 8,
          "midi": 54,
          "name": "F#3",
          "ticks": 71136,
          "time": 136.38030899999998,
          "velocity": 0.5590551181102362
        },
        {
          "duration": 0.01533741666665378,
          "durationTicks": 8,
          "midi": 54,
          "name": "F#3",
          "ticks": 71232,
          "time": 136.564358,
          "velocity": 0.9133858267716536
        },
        {
          "duration": 0.01533741666665378,
          "durationTicks": 8,
          "midi": 39,
          "name": "D#2",
          "ticks": 71232,
          "time": 136.564358,
          "velocity": 0.8661417322834646
        },
        {
          "duration": 0.01533741666665378,
          "durationTicks": 8,
          "midi": 42,
          "name": "F#2",
          "ticks": 71232,
          "time": 136.564358,
          "velocity": 0.7874015748031497
        },
        {
          "duration": 0.015337416666682202,
          "durationTicks": 8,
          "midi": 54,
          "name": "F#3",
          "ticks": 71328,
          "time": 136.748407,
          "velocity": 0.6535433070866141
        },
        {
          "duration": 0.01533741666665378,
          "durationTicks": 8,
          "midi": 54,
          "name": "F#3",
          "ticks": 71424,
          "time": 136.932456,
          "velocity": 0.5590551181102362
        },
        {
          "duration": 0.01533741666665378,
          "durationTicks": 8,
          "midi": 40,
          "name": "E2",
          "ticks": 71424,
          "time": 136.932456,
          "velocity": 0.8818897637795275
        },
        {
          "duration": 0.01533741666665378,
          "durationTicks": 8,
          "midi": 36,
          "name": "C2",
          "ticks": 71424,
          "time": 136.932456,
          "velocity": 0.9763779527559056
        },
        {
          "duration": 0.015337416666682202,
          "durationTicks": 8,
          "midi": 54,
          "name": "F#3",
          "ticks": 71520,
          "time": 137.116505,
          "velocity": 0.4251968503937008
        },
        {
          "duration": 0.01533741666665378,
          "durationTicks": 8,
          "midi": 54,
          "name": "F#3",
          "ticks": 71616,
          "time": 137.300554,
          "velocity": 0.9133858267716536
        },
        {
          "duration": 0.01533741666665378,
          "durationTicks": 8,
          "midi": 39,
          "name": "D#2",
          "ticks": 71616,
          "time": 137.300554,
          "velocity": 0.8661417322834646
        },
        {
          "duration": 0.01533741666665378,
          "durationTicks": 8,
          "midi": 42,
          "name": "F#2",
          "ticks": 71616,
          "time": 137.300554,
          "velocity": 0.9133858267716536
        },
        {
          "duration": 0.015337416666682202,
          "durationTicks": 8,
          "midi": 54,
          "name": "F#3",
          "ticks": 71712,
          "time": 137.484603,
          "velocity": 0.5590551181102362
        },
        {
          "duration": 0.015337416666682202,
          "durationTicks": 8,
          "midi": 54,
          "name": "F#3",
          "ticks": 71808,
          "time": 137.66865199999998,
          "velocity": 0.5590551181102362
        },
        {
          "duration": 0.015337416666682202,
          "durationTicks": 8,
          "midi": 54,
          "name": "F#3",
          "ticks": 71904,
          "time": 137.852701,
          "velocity": 0.5590551181102362
        },
        {
          "duration": 0.015337416666682202,
          "durationTicks": 8,
          "midi": 39,
          "name": "D#2",
          "ticks": 72000,
          "time": 138.03674999999998,
          "velocity": 0.8661417322834646
        },
        {
          "duration": 0.015337416666682202,
          "durationTicks": 8,
          "midi": 54,
          "name": "F#3",
          "ticks": 72000,
          "time": 138.03674999999998,
          "velocity": 0.9133858267716536
        },
        {
          "duration": 0.015337416666682202,
          "durationTicks": 8,
          "midi": 42,
          "name": "F#2",
          "ticks": 72000,
          "time": 138.03674999999998,
          "velocity": 0.7874015748031497
        },
        {
          "duration": 0.01533741666665378,
          "durationTicks": 8,
          "midi": 54,
          "name": "F#3",
          "ticks": 72096,
          "time": 138.220799,
          "velocity": 0.5590551181102362
        },
        {
          "duration": 0.015337416666682202,
          "durationTicks": 8,
          "midi": 54,
          "name": "F#3",
          "ticks": 72192,
          "time": 138.404848,
          "velocity": 0.5590551181102362
        },
        {
          "duration": 0.01533741666665378,
          "durationTicks": 8,
          "midi": 54,
          "name": "F#3",
          "ticks": 72288,
          "time": 138.588897,
          "velocity": 0.6535433070866141
        },
        {
          "duration": 0.015337416666682202,
          "durationTicks": 8,
          "midi": 39,
          "name": "D#2",
          "ticks": 72384,
          "time": 138.772946,
          "velocity": 0.8661417322834646
        },
        {
          "duration": 0.015337416666682202,
          "durationTicks": 8,
          "midi": 42,
          "name": "F#2",
          "ticks": 72384,
          "time": 138.772946,
          "velocity": 0.7874015748031497
        },
        {
          "duration": 0.015337416666682202,
          "durationTicks": 8,
          "midi": 54,
          "name": "F#3",
          "ticks": 72384,
          "time": 138.772946,
          "velocity": 0.9133858267716536
        },
        {
          "duration": 0.01533741666665378,
          "durationTicks": 8,
          "midi": 54,
          "name": "F#3",
          "ticks": 72480,
          "time": 138.956995,
          "velocity": 0.5590551181102362
        },
        {
          "duration": 0.015337416666682202,
          "durationTicks": 8,
          "midi": 54,
          "name": "F#3",
          "ticks": 72576,
          "time": 139.141044,
          "velocity": 0.6535433070866141
        },
        {
          "duration": 0.015337416666682202,
          "durationTicks": 8,
          "midi": 54,
          "name": "F#3",
          "ticks": 72672,
          "time": 139.32509299999998,
          "velocity": 0.6535433070866141
        },
        {
          "duration": 0.015337416666682202,
          "durationTicks": 8,
          "midi": 40,
          "name": "E2",
          "ticks": 72672,
          "time": 139.32509299999998,
          "velocity": 0.6299212598425197
        },
        {
          "duration": 0.015337416666682202,
          "durationTicks": 8,
          "midi": 40,
          "name": "E2",
          "ticks": 72768,
          "time": 139.509142,
          "velocity": 0.8818897637795275
        },
        {
          "duration": 0.015337416666682202,
          "durationTicks": 8,
          "midi": 39,
          "name": "D#2",
          "ticks": 72768,
          "time": 139.509142,
          "velocity": 0.8661417322834646
        },
        {
          "duration": 0.015337416666682202,
          "durationTicks": 8,
          "midi": 54,
          "name": "F#3",
          "ticks": 72768,
          "time": 139.509142,
          "velocity": 0.9133858267716536
        },
        {
          "duration": 0.015337416666682202,
          "durationTicks": 8,
          "midi": 54,
          "name": "F#3",
          "ticks": 72864,
          "time": 139.69319099999998,
          "velocity": 0.6535433070866141
        },
        {
          "duration": 0.01533741666665378,
          "durationTicks": 8,
          "midi": 42,
          "name": "F#2",
          "ticks": 72960,
          "time": 139.87724,
          "velocity": 0.7874015748031497
        },
        {
          "duration": 0.01533741666665378,
          "durationTicks": 8,
          "midi": 54,
          "name": "F#3",
          "ticks": 72960,
          "time": 139.87724,
          "velocity": 0.48031496062992124
        },
        {
          "duration": 0.01533741666665378,
          "durationTicks": 8,
          "midi": 36,
          "name": "C2",
          "ticks": 72960,
          "time": 139.87724,
          "velocity": 0.8818897637795275
        },
        {
          "duration": 0.015337416666682202,
          "durationTicks": 8,
          "midi": 54,
          "name": "F#3",
          "ticks": 73056,
          "time": 140.061289,
          "velocity": 0.3779527559055118
        },
        {
          "duration": 0.015337416666682202,
          "durationTicks": 8,
          "midi": 42,
          "name": "F#2",
          "ticks": 73056,
          "time": 140.061289,
          "velocity": 0.4251968503937008
        },
        {
          "duration": 0.01533741666665378,
          "durationTicks": 8,
          "midi": 42,
          "name": "F#2",
          "ticks": 73152,
          "time": 140.245338,
          "velocity": 0.6535433070866141
        },
        {
          "duration": 0.01533741666665378,
          "durationTicks": 8,
          "midi": 40,
          "name": "E2",
          "ticks": 73152,
          "time": 140.245338,
          "velocity": 0.8818897637795275
        },
        {
          "duration": 0.01533741666665378,
          "durationTicks": 8,
          "midi": 54,
          "name": "F#3",
          "ticks": 73152,
          "time": 140.245338,
          "velocity": 0.9133858267716536
        },
        {
          "duration": 0.015337416666682202,
          "durationTicks": 8,
          "midi": 54,
          "name": "F#3",
          "ticks": 73248,
          "time": 140.429387,
          "velocity": 0.3779527559055118
        },
        {
          "duration": 0.015337416666682202,
          "durationTicks": 8,
          "midi": 42,
          "name": "F#2",
          "ticks": 73248,
          "time": 140.429387,
          "velocity": 0.4251968503937008
        },
        {
          "duration": 0.015337416666682202,
          "durationTicks": 8,
          "midi": 54,
          "name": "F#3",
          "ticks": 73344,
          "time": 140.61343599999998,
          "velocity": 0.3779527559055118
        },
        {
          "duration": 0.015337416666682202,
          "durationTicks": 8,
          "midi": 36,
          "name": "C2",
          "ticks": 73344,
          "time": 140.61343599999998,
          "velocity": 0.6299212598425197
        },
        {
          "duration": 0.015337416666682202,
          "durationTicks": 8,
          "midi": 42,
          "name": "F#2",
          "ticks": 73344,
          "time": 140.61343599999998,
          "velocity": 0.6535433070866141
        },
        {
          "duration": 0.015337416666682202,
          "durationTicks": 8,
          "midi": 54,
          "name": "F#3",
          "ticks": 73440,
          "time": 140.797485,
          "velocity": 0.3464566929133858
        },
        {
          "duration": 0.015337416666682202,
          "durationTicks": 8,
          "midi": 42,
          "name": "F#2",
          "ticks": 73440,
          "time": 140.797485,
          "velocity": 0.3779527559055118
        },
        {
          "duration": 0.015337416666682202,
          "durationTicks": 8,
          "midi": 40,
          "name": "E2",
          "ticks": 73536,
          "time": 140.98153399999998,
          "velocity": 0.9763779527559056
        },
        {
          "duration": 0.015337416666682202,
          "durationTicks": 8,
          "midi": 54,
          "name": "F#3",
          "ticks": 73536,
          "time": 140.98153399999998,
          "velocity": 0.9133858267716536
        },
        {
          "duration": 0.015337416666682202,
          "durationTicks": 8,
          "midi": 42,
          "name": "F#2",
          "ticks": 73536,
          "time": 140.98153399999998,
          "velocity": 0.6535433070866141
        },
        {
          "duration": 0.015337416666682202,
          "durationTicks": 8,
          "midi": 42,
          "name": "F#2",
          "ticks": 73632,
          "time": 141.165583,
          "velocity": 0.48031496062992124
        },
        {
          "duration": 0.015337416666682202,
          "durationTicks": 8,
          "midi": 54,
          "name": "F#3",
          "ticks": 73632,
          "time": 141.165583,
          "velocity": 0.4251968503937008
        },
        {
          "duration": 0.015337416666682202,
          "durationTicks": 8,
          "midi": 42,
          "name": "F#2",
          "ticks": 73728,
          "time": 141.34963199999999,
          "velocity": 0.6535433070866141
        },
        {
          "duration": 0.015337416666682202,
          "durationTicks": 8,
          "midi": 54,
          "name": "F#3",
          "ticks": 73728,
          "time": 141.34963199999999,
          "velocity": 0.7874015748031497
        },
        {
          "duration": 0.015337416666682202,
          "durationTicks": 8,
          "midi": 36,
          "name": "C2",
          "ticks": 73728,
          "time": 141.34963199999999,
          "velocity": 0.7480314960629921
        },
        {
          "duration": 0.01533741666665378,
          "durationTicks": 8,
          "midi": 42,
          "name": "F#2",
          "ticks": 73824,
          "time": 141.533681,
          "velocity": 0.48031496062992124
        },
        {
          "duration": 0.01533741666665378,
          "durationTicks": 8,
          "midi": 54,
          "name": "F#3",
          "ticks": 73824,
          "time": 141.533681,
          "velocity": 0.4251968503937008
        },
        {
          "duration": 0.015337416666682202,
          "durationTicks": 8,
          "midi": 40,
          "name": "E2",
          "ticks": 73920,
          "time": 141.71773,
          "velocity": 0.8818897637795275
        },
        {
          "duration": 0.015337416666682202,
          "durationTicks": 8,
          "midi": 42,
          "name": "F#2",
          "ticks": 73920,
          "time": 141.71773,
          "velocity": 0.6535433070866141
        },
        {
          "duration": 0.015337416666682202,
          "durationTicks": 8,
          "midi": 54,
          "name": "F#3",
          "ticks": 73920,
          "time": 141.71773,
          "velocity": 0.9133858267716536
        },
        {
          "duration": 0.01533741666665378,
          "durationTicks": 8,
          "midi": 42,
          "name": "F#2",
          "ticks": 74016,
          "time": 141.901779,
          "velocity": 0.5590551181102362
        },
        {
          "duration": 0.01533741666665378,
          "durationTicks": 8,
          "midi": 54,
          "name": "F#3",
          "ticks": 74016,
          "time": 141.901779,
          "velocity": 0.3779527559055118
        },
        {
          "duration": 0.015337416666682202,
          "durationTicks": 8,
          "midi": 54,
          "name": "F#3",
          "ticks": 74112,
          "time": 142.085828,
          "velocity": 0.5590551181102362
        },
        {
          "duration": 0.015337416666682202,
          "durationTicks": 8,
          "midi": 42,
          "name": "F#2",
          "ticks": 74112,
          "time": 142.085828,
          "velocity": 0.6535433070866141
        },
        {
          "duration": 0.015337416666682202,
          "durationTicks": 8,
          "midi": 36,
          "name": "C2",
          "ticks": 74112,
          "time": 142.085828,
          "velocity": 0.8818897637795275
        },
        {
          "duration": 0.015337416666682202,
          "durationTicks": 8,
          "midi": 54,
          "name": "F#3",
          "ticks": 74208,
          "time": 142.26987699999998,
          "velocity": 0.5590551181102362
        },
        {
          "duration": 0.015337416666682202,
          "durationTicks": 8,
          "midi": 42,
          "name": "F#2",
          "ticks": 74208,
          "time": 142.26987699999998,
          "velocity": 0.5590551181102362
        },
        {
          "duration": 0.015337416666682202,
          "durationTicks": 8,
          "midi": 40,
          "name": "E2",
          "ticks": 74304,
          "time": 142.453926,
          "velocity": 0.9763779527559056
        },
        {
          "duration": 0.015337416666682202,
          "durationTicks": 8,
          "midi": 54,
          "name": "F#3",
          "ticks": 74304,
          "time": 142.453926,
          "velocity": 0.9133858267716536
        },
        {
          "duration": 0.015337416666682202,
          "durationTicks": 8,
          "midi": 42,
          "name": "F#2",
          "ticks": 74304,
          "time": 142.453926,
          "velocity": 0.6535433070866141
        },
        {
          "duration": 0.015337416666682202,
          "durationTicks": 8,
          "midi": 54,
          "name": "F#3",
          "ticks": 74400,
          "time": 142.63797499999998,
          "velocity": 0.5590551181102362
        },
        {
          "duration": 0.015337416666682202,
          "durationTicks": 8,
          "midi": 42,
          "name": "F#2",
          "ticks": 74400,
          "time": 142.63797499999998,
          "velocity": 0.48031496062992124
        },
        {
          "duration": 0.01533741666665378,
          "durationTicks": 8,
          "midi": 36,
          "name": "C2",
          "ticks": 74496,
          "time": 142.822024,
          "velocity": 0.7480314960629921
        },
        {
          "duration": 0.01533741666665378,
          "durationTicks": 8,
          "midi": 54,
          "name": "F#3",
          "ticks": 74496,
          "time": 142.822024,
          "velocity": 0.48031496062992124
        },
        {
          "duration": 0.01533741666665378,
          "durationTicks": 8,
          "midi": 42,
          "name": "F#2",
          "ticks": 74496,
          "time": 142.822024,
          "velocity": 0.6535433070866141
        },
        {
          "duration": 0.015337416666682202,
          "durationTicks": 8,
          "midi": 54,
          "name": "F#3",
          "ticks": 74592,
          "time": 143.006073,
          "velocity": 0.6535433070866141
        },
        {
          "duration": 0.015337416666682202,
          "durationTicks": 8,
          "midi": 42,
          "name": "F#2",
          "ticks": 74592,
          "time": 143.006073,
          "velocity": 0.3779527559055118
        },
        {
          "duration": 0.01533741666665378,
          "durationTicks": 8,
          "midi": 54,
          "name": "F#3",
          "ticks": 74688,
          "time": 143.190122,
          "velocity": 0.9133858267716536
        },
        {
          "duration": 0.01533741666665378,
          "durationTicks": 8,
          "midi": 40,
          "name": "E2",
          "ticks": 74688,
          "time": 143.190122,
          "velocity": 0.8818897637795275
        },
        {
          "duration": 0.01533741666665378,
          "durationTicks": 8,
          "midi": 42,
          "name": "F#2",
          "ticks": 74688,
          "time": 143.190122,
          "velocity": 0.6535433070866141
        },
        {
          "duration": 0.015337416666682202,
          "durationTicks": 8,
          "midi": 54,
          "name": "F#3",
          "ticks": 74784,
          "time": 143.374171,
          "velocity": 0.5590551181102362
        },
        {
          "duration": 0.015337416666682202,
          "durationTicks": 8,
          "midi": 42,
          "name": "F#2",
          "ticks": 74784,
          "time": 143.374171,
          "velocity": 0.4251968503937008
        },
        {
          "duration": 0.01533741666665378,
          "durationTicks": 8,
          "midi": 54,
          "name": "F#3",
          "ticks": 74880,
          "time": 143.55822,
          "velocity": 0.5590551181102362
        },
        {
          "duration": 0.01533741666665378,
          "durationTicks": 8,
          "midi": 42,
          "name": "F#2",
          "ticks": 74880,
          "time": 143.55822,
          "velocity": 0.6535433070866141
        },
        {
          "duration": 0.01533741666665378,
          "durationTicks": 8,
          "midi": 36,
          "name": "C2",
          "ticks": 74880,
          "time": 143.55822,
          "velocity": 0.7480314960629921
        },
        {
          "duration": 0.015337416666682202,
          "durationTicks": 8,
          "midi": 42,
          "name": "F#2",
          "ticks": 74976,
          "time": 143.742269,
          "velocity": 0.3779527559055118
        },
        {
          "duration": 0.015337416666682202,
          "durationTicks": 8,
          "midi": 54,
          "name": "F#3",
          "ticks": 74976,
          "time": 143.742269,
          "velocity": 0.6535433070866141
        },
        {
          "duration": 0.015337416666682202,
          "durationTicks": 8,
          "midi": 54,
          "name": "F#3",
          "ticks": 75072,
          "time": 143.92631799999998,
          "velocity": 0.9133858267716536
        },
        {
          "duration": 0.015337416666682202,
          "durationTicks": 8,
          "midi": 42,
          "name": "F#2",
          "ticks": 75072,
          "time": 143.92631799999998,
          "velocity": 0.6535433070866141
        },
        {
          "duration": 0.015337416666682202,
          "durationTicks": 8,
          "midi": 40,
          "name": "E2",
          "ticks": 75072,
          "time": 143.92631799999998,
          "velocity": 0.9763779527559056
        },
        {
          "duration": 0.015337416666682202,
          "durationTicks": 8,
          "midi": 42,
          "name": "F#2",
          "ticks": 75168,
          "time": 144.110367,
          "velocity": 0.5590551181102362
        },
        {
          "duration": 0.015337416666682202,
          "durationTicks": 8,
          "midi": 54,
          "name": "F#3",
          "ticks": 75168,
          "time": 144.110367,
          "velocity": 0.6535433070866141
        },
        {
          "duration": 0.015337416666682202,
          "durationTicks": 8,
          "midi": 42,
          "name": "F#2",
          "ticks": 75264,
          "time": 144.29441599999998,
          "velocity": 0.6535433070866141
        },
        {
          "duration": 0.015337416666682202,
          "durationTicks": 8,
          "midi": 54,
          "name": "F#3",
          "ticks": 75264,
          "time": 144.29441599999998,
          "velocity": 0.5590551181102362
        },
        {
          "duration": 0.015337416666682202,
          "durationTicks": 8,
          "midi": 36,
          "name": "C2",
          "ticks": 75264,
          "time": 144.29441599999998,
          "velocity": 0.8818897637795275
        },
        {
          "duration": 0.01533741666665378,
          "durationTicks": 8,
          "midi": 54,
          "name": "F#3",
          "ticks": 75360,
          "time": 144.478465,
          "velocity": 0.5590551181102362
        },
        {
          "duration": 0.01533741666665378,
          "durationTicks": 8,
          "midi": 42,
          "name": "F#2",
          "ticks": 75360,
          "time": 144.478465,
          "velocity": 0.48031496062992124
        },
        {
          "duration": 0.015337416666682202,
          "durationTicks": 8,
          "midi": 40,
          "name": "E2",
          "ticks": 75456,
          "time": 144.662514,
          "velocity": 0.8818897637795275
        },
        {
          "duration": 0.015337416666682202,
          "durationTicks": 8,
          "midi": 42,
          "name": "F#2",
          "ticks": 75456,
          "time": 144.662514,
          "velocity": 0.7874015748031497
        },
        {
          "duration": 0.015337416666682202,
          "durationTicks": 8,
          "midi": 54,
          "name": "F#3",
          "ticks": 75456,
          "time": 144.662514,
          "velocity": 0.9133858267716536
        },
        {
          "duration": 0.01533741666665378,
          "durationTicks": 8,
          "midi": 54,
          "name": "F#3",
          "ticks": 75552,
          "time": 144.846563,
          "velocity": 0.5590551181102362
        },
        {
          "duration": 0.01533741666665378,
          "durationTicks": 8,
          "midi": 42,
          "name": "F#2",
          "ticks": 75552,
          "time": 144.846563,
          "velocity": 0.48031496062992124
        },
        {
          "duration": 0.015337416666682202,
          "durationTicks": 8,
          "midi": 36,
          "name": "C2",
          "ticks": 75648,
          "time": 145.030612,
          "velocity": 0.8818897637795275
        },
        {
          "duration": 0.015337416666682202,
          "durationTicks": 8,
          "midi": 54,
          "name": "F#3",
          "ticks": 75648,
          "time": 145.030612,
          "velocity": 0.48031496062992124
        },
        {
          "duration": 0.015337416666682202,
          "durationTicks": 8,
          "midi": 42,
          "name": "F#2",
          "ticks": 75648,
          "time": 145.030612,
          "velocity": 0.6535433070866141
        },
        {
          "duration": 0.015337416666682202,
          "durationTicks": 8,
          "midi": 54,
          "name": "F#3",
          "ticks": 75744,
          "time": 145.21466099999998,
          "velocity": 0.5590551181102362
        },
        {
          "duration": 0.015337416666682202,
          "durationTicks": 8,
          "midi": 42,
          "name": "F#2",
          "ticks": 75744,
          "time": 145.21466099999998,
          "velocity": 0.48031496062992124
        },
        {
          "duration": 0.015337416666682202,
          "durationTicks": 8,
          "midi": 54,
          "name": "F#3",
          "ticks": 75840,
          "time": 145.39871,
          "velocity": 0.9133858267716536
        },
        {
          "duration": 0.015337416666682202,
          "durationTicks": 8,
          "midi": 42,
          "name": "F#2",
          "ticks": 75840,
          "time": 145.39871,
          "velocity": 0.7874015748031497
        },
        {
          "duration": 0.015337416666682202,
          "durationTicks": 8,
          "midi": 40,
          "name": "E2",
          "ticks": 75840,
          "time": 145.39871,
          "velocity": 0.7480314960629921
        },
        {
          "duration": 0.015337416666682202,
          "durationTicks": 8,
          "midi": 42,
          "name": "F#2",
          "ticks": 75936,
          "time": 145.58275899999998,
          "velocity": 0.5590551181102362
        },
        {
          "duration": 0.015337416666682202,
          "durationTicks": 8,
          "midi": 54,
          "name": "F#3",
          "ticks": 75936,
          "time": 145.58275899999998,
          "velocity": 0.6535433070866141
        },
        {
          "duration": 0.015337416666682202,
          "durationTicks": 8,
          "midi": 54,
          "name": "F#3",
          "ticks": 76032,
          "time": 145.766808,
          "velocity": 0.48031496062992124
        },
        {
          "duration": 0.015337416666682202,
          "durationTicks": 8,
          "midi": 36,
          "name": "C2",
          "ticks": 76032,
          "time": 145.766808,
          "velocity": 0.8818897637795275
        },
        {
          "duration": 0.015337416666682202,
          "durationTicks": 8,
          "midi": 42,
          "name": "F#2",
          "ticks": 76032,
          "time": 145.766808,
          "velocity": 0.7874015748031497
        },
        {
          "duration": 0.015337416666682202,
          "durationTicks": 8,
          "midi": 42,
          "name": "F#2",
          "ticks": 76128,
          "time": 145.95085699999998,
          "velocity": 0.4251968503937008
        },
        {
          "duration": 0.015337416666682202,
          "durationTicks": 8,
          "midi": 54,
          "name": "F#3",
          "ticks": 76128,
          "time": 145.95085699999998,
          "velocity": 0.3779527559055118
        },
        {
          "duration": 0.01533741666665378,
          "durationTicks": 8,
          "midi": 40,
          "name": "E2",
          "ticks": 76224,
          "time": 146.134906,
          "velocity": 0.8818897637795275
        },
        {
          "duration": 0.01533741666665378,
          "durationTicks": 8,
          "midi": 42,
          "name": "F#2",
          "ticks": 76224,
          "time": 146.134906,
          "velocity": 0.6535433070866141
        },
        {
          "duration": 0.01533741666665378,
          "durationTicks": 8,
          "midi": 54,
          "name": "F#3",
          "ticks": 76224,
          "time": 146.134906,
          "velocity": 0.9133858267716536
        },
        {
          "duration": 0.015337416666682202,
          "durationTicks": 8,
          "midi": 42,
          "name": "F#2",
          "ticks": 76320,
          "time": 146.318955,
          "velocity": 0.4251968503937008
        },
        {
          "duration": 0.015337416666682202,
          "durationTicks": 8,
          "midi": 54,
          "name": "F#3",
          "ticks": 76320,
          "time": 146.318955,
          "velocity": 0.3779527559055118
        },
        {
          "duration": 0.01533741666665378,
          "durationTicks": 8,
          "midi": 42,
          "name": "F#2",
          "ticks": 76416,
          "time": 146.503004,
          "velocity": 0.6535433070866141
        },
        {
          "duration": 0.01533741666665378,
          "durationTicks": 8,
          "midi": 36,
          "name": "C2",
          "ticks": 76416,
          "time": 146.503004,
          "velocity": 0.6299212598425197
        },
        {
          "duration": 0.01533741666665378,
          "durationTicks": 8,
          "midi": 54,
          "name": "F#3",
          "ticks": 76416,
          "time": 146.503004,
          "velocity": 0.3779527559055118
        },
        {
          "duration": 0.015337416666682202,
          "durationTicks": 8,
          "midi": 42,
          "name": "F#2",
          "ticks": 76512,
          "time": 146.687053,
          "velocity": 0.3779527559055118
        },
        {
          "duration": 0.015337416666682202,
          "durationTicks": 8,
          "midi": 54,
          "name": "F#3",
          "ticks": 76512,
          "time": 146.687053,
          "velocity": 0.3464566929133858
        },
        {
          "duration": 0.015337416666682202,
          "durationTicks": 8,
          "midi": 42,
          "name": "F#2",
          "ticks": 76608,
          "time": 146.87110199999998,
          "velocity": 0.6535433070866141
        },
        {
          "duration": 0.015337416666682202,
          "durationTicks": 8,
          "midi": 40,
          "name": "E2",
          "ticks": 76608,
          "time": 146.87110199999998,
          "velocity": 0.9763779527559056
        },
        {
          "duration": 0.015337416666682202,
          "durationTicks": 8,
          "midi": 54,
          "name": "F#3",
          "ticks": 76608,
          "time": 146.87110199999998,
          "velocity": 0.9133858267716536
        },
        {
          "duration": 0.015337416666682202,
          "durationTicks": 8,
          "midi": 42,
          "name": "F#2",
          "ticks": 76704,
          "time": 147.055151,
          "velocity": 0.48031496062992124
        },
        {
          "duration": 0.015337416666682202,
          "durationTicks": 8,
          "midi": 54,
          "name": "F#3",
          "ticks": 76704,
          "time": 147.055151,
          "velocity": 0.4251968503937008
        },
        {
          "duration": 0.015337416666682202,
          "durationTicks": 8,
          "midi": 54,
          "name": "F#3",
          "ticks": 76800,
          "time": 147.23919999999998,
          "velocity": 0.7874015748031497
        },
        {
          "duration": 0.015337416666682202,
          "durationTicks": 8,
          "midi": 42,
          "name": "F#2",
          "ticks": 76800,
          "time": 147.23919999999998,
          "velocity": 0.6535433070866141
        },
        {
          "duration": 0.015337416666682202,
          "durationTicks": 8,
          "midi": 36,
          "name": "C2",
          "ticks": 76800,
          "time": 147.23919999999998,
          "velocity": 0.7480314960629921
        },
        {
          "duration": 0.01533741666665378,
          "durationTicks": 8,
          "midi": 42,
          "name": "F#2",
          "ticks": 76896,
          "time": 147.423249,
          "velocity": 0.48031496062992124
        },
        {
          "duration": 0.01533741666665378,
          "durationTicks": 8,
          "midi": 54,
          "name": "F#3",
          "ticks": 76896,
          "time": 147.423249,
          "velocity": 0.4251968503937008
        },
        {
          "duration": 0.015337416666682202,
          "durationTicks": 8,
          "midi": 40,
          "name": "E2",
          "ticks": 76992,
          "time": 147.607298,
          "velocity": 0.8818897637795275
        },
        {
          "duration": 0.015337416666682202,
          "durationTicks": 8,
          "midi": 42,
          "name": "F#2",
          "ticks": 76992,
          "time": 147.607298,
          "velocity": 0.6535433070866141
        },
        {
          "duration": 0.015337416666682202,
          "durationTicks": 8,
          "midi": 54,
          "name": "F#3",
          "ticks": 76992,
          "time": 147.607298,
          "velocity": 0.9133858267716536
        },
        {
          "duration": 0.01533741666665378,
          "durationTicks": 8,
          "midi": 54,
          "name": "F#3",
          "ticks": 77088,
          "time": 147.791347,
          "velocity": 0.3779527559055118
        },
        {
          "duration": 0.01533741666665378,
          "durationTicks": 8,
          "midi": 42,
          "name": "F#2",
          "ticks": 77088,
          "time": 147.791347,
          "velocity": 0.5590551181102362
        },
        {
          "duration": 0.015337416666682202,
          "durationTicks": 8,
          "midi": 42,
          "name": "F#2",
          "ticks": 77184,
          "time": 147.975396,
          "velocity": 0.6535433070866141
        },
        {
          "duration": 0.015337416666682202,
          "durationTicks": 8,
          "midi": 54,
          "name": "F#3",
          "ticks": 77184,
          "time": 147.975396,
          "velocity": 0.5590551181102362
        },
        {
          "duration": 0.015337416666682202,
          "durationTicks": 8,
          "midi": 36,
          "name": "C2",
          "ticks": 77184,
          "time": 147.975396,
          "velocity": 0.8818897637795275
        },
        {
          "duration": 0.01533741666665378,
          "durationTicks": 8,
          "midi": 54,
          "name": "F#3",
          "ticks": 77280,
          "time": 148.159445,
          "velocity": 0.5590551181102362
        },
        {
          "duration": 0.01533741666665378,
          "durationTicks": 8,
          "midi": 42,
          "name": "F#2",
          "ticks": 77280,
          "time": 148.159445,
          "velocity": 0.5590551181102362
        },
        {
          "duration": 0.015337416666682202,
          "durationTicks": 8,
          "midi": 54,
          "name": "F#3",
          "ticks": 77376,
          "time": 148.343494,
          "velocity": 0.9133858267716536
        },
        {
          "duration": 0.015337416666682202,
          "durationTicks": 8,
          "midi": 42,
          "name": "F#2",
          "ticks": 77376,
          "time": 148.343494,
          "velocity": 0.6535433070866141
        },
        {
          "duration": 0.015337416666682202,
          "durationTicks": 8,
          "midi": 40,
          "name": "E2",
          "ticks": 77376,
          "time": 148.343494,
          "velocity": 0.9763779527559056
        },
        {
          "duration": 0.015337416666682202,
          "durationTicks": 8,
          "midi": 42,
          "name": "F#2",
          "ticks": 77472,
          "time": 148.52754299999998,
          "velocity": 0.48031496062992124
        },
        {
          "duration": 0.015337416666682202,
          "durationTicks": 8,
          "midi": 54,
          "name": "F#3",
          "ticks": 77472,
          "time": 148.52754299999998,
          "velocity": 0.5590551181102362
        },
        {
          "duration": 0.015337416666682202,
          "durationTicks": 8,
          "midi": 36,
          "name": "C2",
          "ticks": 77568,
          "time": 148.711592,
          "velocity": 0.7480314960629921
        },
        {
          "duration": 0.015337416666682202,
          "durationTicks": 8,
          "midi": 54,
          "name": "F#3",
          "ticks": 77568,
          "time": 148.711592,
          "velocity": 0.48031496062992124
        },
        {
          "duration": 0.015337416666682202,
          "durationTicks": 8,
          "midi": 42,
          "name": "F#2",
          "ticks": 77568,
          "time": 148.711592,
          "velocity": 0.6535433070866141
        },
        {
          "duration": 0.015337416666682202,
          "durationTicks": 8,
          "midi": 54,
          "name": "F#3",
          "ticks": 77664,
          "time": 148.89564099999998,
          "velocity": 0.6535433070866141
        },
        {
          "duration": 0.015337416666682202,
          "durationTicks": 8,
          "midi": 42,
          "name": "F#2",
          "ticks": 77664,
          "time": 148.89564099999998,
          "velocity": 0.3779527559055118
        },
        {
          "duration": 0.01533741666665378,
          "durationTicks": 8,
          "midi": 54,
          "name": "F#3",
          "ticks": 77760,
          "time": 149.07969,
          "velocity": 0.9133858267716536
        },
        {
          "duration": 0.01533741666665378,
          "durationTicks": 8,
          "midi": 42,
          "name": "F#2",
          "ticks": 77760,
          "time": 149.07969,
          "velocity": 0.6535433070866141
        },
        {
          "duration": 0.01533741666665378,
          "durationTicks": 8,
          "midi": 40,
          "name": "E2",
          "ticks": 77760,
          "time": 149.07969,
          "velocity": 0.8818897637795275
        },
        {
          "duration": 0.015337416666682202,
          "durationTicks": 8,
          "midi": 54,
          "name": "F#3",
          "ticks": 77856,
          "time": 149.263739,
          "velocity": 0.5590551181102362
        },
        {
          "duration": 0.015337416666682202,
          "durationTicks": 8,
          "midi": 42,
          "name": "F#2",
          "ticks": 77856,
          "time": 149.263739,
          "velocity": 0.4251968503937008
        },
        {
          "duration": 0.01533741666665378,
          "durationTicks": 8,
          "midi": 42,
          "name": "F#2",
          "ticks": 77952,
          "time": 149.447788,
          "velocity": 0.6535433070866141
        },
        {
          "duration": 0.01533741666665378,
          "durationTicks": 8,
          "midi": 36,
          "name": "C2",
          "ticks": 77952,
          "time": 149.447788,
          "velocity": 0.7480314960629921
        },
        {
          "duration": 0.01533741666665378,
          "durationTicks": 8,
          "midi": 54,
          "name": "F#3",
          "ticks": 77952,
          "time": 149.447788,
          "velocity": 0.5590551181102362
        },
        {
          "duration": 0.015337416666682202,
          "durationTicks": 8,
          "midi": 54,
          "name": "F#3",
          "ticks": 78048,
          "time": 149.631837,
          "velocity": 0.6535433070866141
        },
        {
          "duration": 0.015337416666682202,
          "durationTicks": 8,
          "midi": 42,
          "name": "F#2",
          "ticks": 78048,
          "time": 149.631837,
          "velocity": 0.3779527559055118
        },
        {
          "duration": 0.01533741666665378,
          "durationTicks": 8,
          "midi": 42,
          "name": "F#2",
          "ticks": 78144,
          "time": 149.815886,
          "velocity": 0.6535433070866141
        },
        {
          "duration": 0.01533741666665378,
          "durationTicks": 8,
          "midi": 54,
          "name": "F#3",
          "ticks": 78144,
          "time": 149.815886,
          "velocity": 0.9133858267716536
        },
        {
          "duration": 0.01533741666665378,
          "durationTicks": 8,
          "midi": 40,
          "name": "E2",
          "ticks": 78144,
          "time": 149.815886,
          "velocity": 0.9763779527559056
        },
        {
          "duration": 0.015337416666682202,
          "durationTicks": 8,
          "midi": 54,
          "name": "F#3",
          "ticks": 78240,
          "time": 149.999935,
          "velocity": 0.6535433070866141
        },
        {
          "duration": 0.015337416666682202,
          "durationTicks": 8,
          "midi": 42,
          "name": "F#2",
          "ticks": 78240,
          "time": 149.999935,
          "velocity": 0.5590551181102362
        },
        {
          "duration": 0.015337416666682202,
          "durationTicks": 8,
          "midi": 54,
          "name": "F#3",
          "ticks": 78336,
          "time": 150.18398399999998,
          "velocity": 0.5590551181102362
        },
        {
          "duration": 0.015337416666682202,
          "durationTicks": 8,
          "midi": 36,
          "name": "C2",
          "ticks": 78336,
          "time": 150.18398399999998,
          "velocity": 0.8818897637795275
        },
        {
          "duration": 0.015337416666682202,
          "durationTicks": 8,
          "midi": 42,
          "name": "F#2",
          "ticks": 78336,
          "time": 150.18398399999998,
          "velocity": 0.6535433070866141
        },
        {
          "duration": 0.015337416666682202,
          "durationTicks": 8,
          "midi": 54,
          "name": "F#3",
          "ticks": 78432,
          "time": 150.368033,
          "velocity": 0.5590551181102362
        },
        {
          "duration": 0.015337416666682202,
          "durationTicks": 8,
          "midi": 42,
          "name": "F#2",
          "ticks": 78432,
          "time": 150.368033,
          "velocity": 0.48031496062992124
        },
        {
          "duration": 0.015337416666682202,
          "durationTicks": 8,
          "midi": 42,
          "name": "F#2",
          "ticks": 78528,
          "time": 150.55208199999998,
          "velocity": 0.7874015748031497
        },
        {
          "duration": 0.015337416666682202,
          "durationTicks": 8,
          "midi": 54,
          "name": "F#3",
          "ticks": 78528,
          "time": 150.55208199999998,
          "velocity": 0.9133858267716536
        },
        {
          "duration": 0.015337416666682202,
          "durationTicks": 8,
          "midi": 40,
          "name": "E2",
          "ticks": 78528,
          "time": 150.55208199999998,
          "velocity": 0.8818897637795275
        },
        {
          "duration": 0.01533741666665378,
          "durationTicks": 8,
          "midi": 42,
          "name": "F#2",
          "ticks": 78624,
          "time": 150.736131,
          "velocity": 0.48031496062992124
        },
        {
          "duration": 0.01533741666665378,
          "durationTicks": 8,
          "midi": 54,
          "name": "F#3",
          "ticks": 78624,
          "time": 150.736131,
          "velocity": 0.5590551181102362
        },
        {
          "duration": 0.015337416666682202,
          "durationTicks": 8,
          "midi": 42,
          "name": "F#2",
          "ticks": 78720,
          "time": 150.92018,
          "velocity": 0.6535433070866141
        },
        {
          "duration": 0.015337416666682202,
          "durationTicks": 8,
          "midi": 36,
          "name": "C2",
          "ticks": 78720,
          "time": 150.92018,
          "velocity": 0.8818897637795275
        },
        {
          "duration": 0.015337416666682202,
          "durationTicks": 8,
          "midi": 54,
          "name": "F#3",
          "ticks": 78720,
          "time": 150.92018,
          "velocity": 0.48031496062992124
        },
        {
          "duration": 0.01533741666665378,
          "durationTicks": 8,
          "midi": 54,
          "name": "F#3",
          "ticks": 78816,
          "time": 151.104229,
          "velocity": 0.5590551181102362
        },
        {
          "duration": 0.01533741666665378,
          "durationTicks": 8,
          "midi": 42,
          "name": "F#2",
          "ticks": 78816,
          "time": 151.104229,
          "velocity": 0.48031496062992124
        },
        {
          "duration": 0.015337416666682202,
          "durationTicks": 8,
          "midi": 54,
          "name": "F#3",
          "ticks": 78912,
          "time": 151.288278,
          "velocity": 0.9133858267716536
        },
        {
          "duration": 0.015337416666682202,
          "durationTicks": 8,
          "midi": 42,
          "name": "F#2",
          "ticks": 78912,
          "time": 151.288278,
          "velocity": 0.7874015748031497
        },
        {
          "duration": 0.015337416666682202,
          "durationTicks": 8,
          "midi": 40,
          "name": "E2",
          "ticks": 78912,
          "time": 151.288278,
          "velocity": 0.7480314960629921
        },
        {
          "duration": 0.015337416666682202,
          "durationTicks": 8,
          "midi": 54,
          "name": "F#3",
          "ticks": 79008,
          "time": 151.47232699999998,
          "velocity": 0.6535433070866141
        },
        {
          "duration": 0.015337416666682202,
          "durationTicks": 8,
          "midi": 42,
          "name": "F#2",
          "ticks": 79008,
          "time": 151.47232699999998,
          "velocity": 0.5590551181102362
        },
        {
          "duration": 0.015337416666682202,
          "durationTicks": 8,
          "midi": 36,
          "name": "C2",
          "ticks": 79104,
          "time": 151.656376,
          "velocity": 0.8818897637795275
        },
        {
          "duration": 0.015337416666682202,
          "durationTicks": 8,
          "midi": 54,
          "name": "F#3",
          "ticks": 79104,
          "time": 151.656376,
          "velocity": 0.48031496062992124
        },
        {
          "duration": 0.015337416666682202,
          "durationTicks": 8,
          "midi": 42,
          "name": "F#2",
          "ticks": 79104,
          "time": 151.656376,
          "velocity": 0.7874015748031497
        },
        {
          "duration": 0.015337416666682202,
          "durationTicks": 8,
          "midi": 42,
          "name": "F#2",
          "ticks": 79200,
          "time": 151.84042499999998,
          "velocity": 0.4251968503937008
        },
        {
          "duration": 0.015337416666682202,
          "durationTicks": 8,
          "midi": 54,
          "name": "F#3",
          "ticks": 79200,
          "time": 151.84042499999998,
          "velocity": 0.3779527559055118
        },
        {
          "duration": 0.01533741666665378,
          "durationTicks": 8,
          "midi": 42,
          "name": "F#2",
          "ticks": 79296,
          "time": 152.024474,
          "velocity": 0.6535433070866141
        },
        {
          "duration": 0.01533741666665378,
          "durationTicks": 8,
          "midi": 40,
          "name": "E2",
          "ticks": 79296,
          "time": 152.024474,
          "velocity": 0.8818897637795275
        },
        {
          "duration": 0.01533741666665378,
          "durationTicks": 8,
          "midi": 54,
          "name": "F#3",
          "ticks": 79296,
          "time": 152.024474,
          "velocity": 0.9133858267716536
        },
        {
          "duration": 0.015337416666682202,
          "durationTicks": 8,
          "midi": 54,
          "name": "F#3",
          "ticks": 79392,
          "time": 152.20852299999999,
          "velocity": 0.3779527559055118
        },
        {
          "duration": 0.015337416666682202,
          "durationTicks": 8,
          "midi": 42,
          "name": "F#2",
          "ticks": 79392,
          "time": 152.20852299999999,
          "velocity": 0.4251968503937008
        },
        {
          "duration": 0.01533741666665378,
          "durationTicks": 8,
          "midi": 42,
          "name": "F#2",
          "ticks": 79488,
          "time": 152.392572,
          "velocity": 0.6535433070866141
        },
        {
          "duration": 0.01533741666665378,
          "durationTicks": 8,
          "midi": 54,
          "name": "F#3",
          "ticks": 79488,
          "time": 152.392572,
          "velocity": 0.3779527559055118
        },
        {
          "duration": 0.01533741666665378,
          "durationTicks": 8,
          "midi": 36,
          "name": "C2",
          "ticks": 79488,
          "time": 152.392572,
          "velocity": 0.6299212598425197
        },
        {
          "duration": 0.015337416666682202,
          "durationTicks": 8,
          "midi": 42,
          "name": "F#2",
          "ticks": 79584,
          "time": 152.576621,
          "velocity": 0.3779527559055118
        },
        {
          "duration": 0.015337416666682202,
          "durationTicks": 8,
          "midi": 54,
          "name": "F#3",
          "ticks": 79584,
          "time": 152.576621,
          "velocity": 0.3464566929133858
        },
        {
          "duration": 0.01533741666665378,
          "durationTicks": 8,
          "midi": 42,
          "name": "F#2",
          "ticks": 79680,
          "time": 152.76067,
          "velocity": 0.6535433070866141
        },
        {
          "duration": 0.01533741666665378,
          "durationTicks": 8,
          "midi": 40,
          "name": "E2",
          "ticks": 79680,
          "time": 152.76067,
          "velocity": 0.9763779527559056
        },
        {
          "duration": 0.01533741666665378,
          "durationTicks": 8,
          "midi": 54,
          "name": "F#3",
          "ticks": 79680,
          "time": 152.76067,
          "velocity": 0.9133858267716536
        },
        {
          "duration": 0.015337416666682202,
          "durationTicks": 8,
          "midi": 54,
          "name": "F#3",
          "ticks": 79776,
          "time": 152.944719,
          "velocity": 0.4251968503937008
        },
        {
          "duration": 0.015337416666682202,
          "durationTicks": 8,
          "midi": 42,
          "name": "F#2",
          "ticks": 79776,
          "time": 152.944719,
          "velocity": 0.48031496062992124
        },
        {
          "duration": 0.015337416666682202,
          "durationTicks": 8,
          "midi": 54,
          "name": "F#3",
          "ticks": 79872,
          "time": 153.12876799999998,
          "velocity": 0.7874015748031497
        },
        {
          "duration": 0.015337416666682202,
          "durationTicks": 8,
          "midi": 36,
          "name": "C2",
          "ticks": 79872,
          "time": 153.12876799999998,
          "velocity": 0.7480314960629921
        },
        {
          "duration": 0.015337416666682202,
          "durationTicks": 8,
          "midi": 42,
          "name": "F#2",
          "ticks": 79872,
          "time": 153.12876799999998,
          "velocity": 0.6535433070866141
        },
        {
          "duration": 0.015337416666682202,
          "durationTicks": 8,
          "midi": 54,
          "name": "F#3",
          "ticks": 79968,
          "time": 153.312817,
          "velocity": 0.4251968503937008
        },
        {
          "duration": 0.015337416666682202,
          "durationTicks": 8,
          "midi": 42,
          "name": "F#2",
          "ticks": 79968,
          "time": 153.312817,
          "velocity": 0.48031496062992124
        },
        {
          "duration": 0.015337416666682202,
          "durationTicks": 8,
          "midi": 40,
          "name": "E2",
          "ticks": 80064,
          "time": 153.49686599999998,
          "velocity": 0.8818897637795275
        },
        {
          "duration": 0.015337416666682202,
          "durationTicks": 8,
          "midi": 54,
          "name": "F#3",
          "ticks": 80064,
          "time": 153.49686599999998,
          "velocity": 0.9133858267716536
        },
        {
          "duration": 0.015337416666682202,
          "durationTicks": 8,
          "midi": 42,
          "name": "F#2",
          "ticks": 80064,
          "time": 153.49686599999998,
          "velocity": 0.6535433070866141
        },
        {
          "duration": 0.01533741666665378,
          "durationTicks": 8,
          "midi": 42,
          "name": "F#2",
          "ticks": 80160,
          "time": 153.680915,
          "velocity": 0.5590551181102362
        },
        {
          "duration": 0.01533741666665378,
          "durationTicks": 8,
          "midi": 54,
          "name": "F#3",
          "ticks": 80160,
          "time": 153.680915,
          "velocity": 0.3779527559055118
        },
        {
          "duration": 0.015337416666682202,
          "durationTicks": 8,
          "midi": 36,
          "name": "C2",
          "ticks": 80256,
          "time": 153.864964,
          "velocity": 0.8818897637795275
        },
        {
          "duration": 0.015337416666682202,
          "durationTicks": 8,
          "midi": 42,
          "name": "F#2",
          "ticks": 80256,
          "time": 153.864964,
          "velocity": 0.6535433070866141
        },
        {
          "duration": 0.015337416666682202,
          "durationTicks": 8,
          "midi": 54,
          "name": "F#3",
          "ticks": 80256,
          "time": 153.864964,
          "velocity": 0.5590551181102362
        },
        {
          "duration": 0.01533741666665378,
          "durationTicks": 8,
          "midi": 42,
          "name": "F#2",
          "ticks": 80352,
          "time": 154.049013,
          "velocity": 0.5590551181102362
        },
        {
          "duration": 0.01533741666665378,
          "durationTicks": 8,
          "midi": 54,
          "name": "F#3",
          "ticks": 80352,
          "time": 154.049013,
          "velocity": 0.5590551181102362
        },
        {
          "duration": 0.015337416666682202,
          "durationTicks": 8,
          "midi": 54,
          "name": "F#3",
          "ticks": 80448,
          "time": 154.233062,
          "velocity": 0.9133858267716536
        },
        {
          "duration": 0.015337416666682202,
          "durationTicks": 8,
          "midi": 42,
          "name": "F#2",
          "ticks": 80448,
          "time": 154.233062,
          "velocity": 0.6535433070866141
        },
        {
          "duration": 0.015337416666682202,
          "durationTicks": 8,
          "midi": 40,
          "name": "E2",
          "ticks": 80448,
          "time": 154.233062,
          "velocity": 0.9763779527559056
        },
        {
          "duration": 0.01533741666665378,
          "durationTicks": 8,
          "midi": 42,
          "name": "F#2",
          "ticks": 80544,
          "time": 154.417111,
          "velocity": 0.48031496062992124
        },
        {
          "duration": 0.01533741666665378,
          "durationTicks": 8,
          "midi": 54,
          "name": "F#3",
          "ticks": 80544,
          "time": 154.417111,
          "velocity": 0.5590551181102362
        },
        {
          "duration": 0.015337416666682202,
          "durationTicks": 8,
          "midi": 42,
          "name": "F#2",
          "ticks": 80640,
          "time": 154.60116,
          "velocity": 0.6535433070866141
        },
        {
          "duration": 0.015337416666682202,
          "durationTicks": 8,
          "midi": 36,
          "name": "C2",
          "ticks": 80640,
          "time": 154.60116,
          "velocity": 0.7480314960629921
        },
        {
          "duration": 0.015337416666682202,
          "durationTicks": 8,
          "midi": 54,
          "name": "F#3",
          "ticks": 80640,
          "time": 154.60116,
          "velocity": 0.48031496062992124
        },
        {
          "duration": 0.015337416666682202,
          "durationTicks": 8,
          "midi": 42,
          "name": "F#2",
          "ticks": 80736,
          "time": 154.78520899999998,
          "velocity": 0.3779527559055118
        },
        {
          "duration": 0.015337416666682202,
          "durationTicks": 8,
          "midi": 54,
          "name": "F#3",
          "ticks": 80736,
          "time": 154.78520899999998,
          "velocity": 0.6535433070866141
        },
        {
          "duration": 0.015337416666682202,
          "durationTicks": 8,
          "midi": 54,
          "name": "F#3",
          "ticks": 80832,
          "time": 154.969258,
          "velocity": 0.9133858267716536
        },
        {
          "duration": 0.015337416666682202,
          "durationTicks": 8,
          "midi": 42,
          "name": "F#2",
          "ticks": 80832,
          "time": 154.969258,
          "velocity": 0.6535433070866141
        },
        {
          "duration": 0.015337416666682202,
          "durationTicks": 8,
          "midi": 40,
          "name": "E2",
          "ticks": 80832,
          "time": 154.969258,
          "velocity": 0.8818897637795275
        },
        {
          "duration": 0.015337416666682202,
          "durationTicks": 8,
          "midi": 54,
          "name": "F#3",
          "ticks": 80928,
          "time": 155.15330699999998,
          "velocity": 0.5590551181102362
        },
        {
          "duration": 0.015337416666682202,
          "durationTicks": 8,
          "midi": 42,
          "name": "F#2",
          "ticks": 80928,
          "time": 155.15330699999998,
          "velocity": 0.4251968503937008
        },
        {
          "duration": 0.01533741666665378,
          "durationTicks": 8,
          "midi": 36,
          "name": "C2",
          "ticks": 81024,
          "time": 155.337356,
          "velocity": 0.7480314960629921
        },
        {
          "duration": 0.01533741666665378,
          "durationTicks": 8,
          "midi": 42,
          "name": "F#2",
          "ticks": 81024,
          "time": 155.337356,
          "velocity": 0.6535433070866141
        },
        {
          "duration": 0.01533741666665378,
          "durationTicks": 8,
          "midi": 54,
          "name": "F#3",
          "ticks": 81024,
          "time": 155.337356,
          "velocity": 0.5590551181102362
        },
        {
          "duration": 0.015337416666682202,
          "durationTicks": 8,
          "midi": 42,
          "name": "F#2",
          "ticks": 81120,
          "time": 155.521405,
          "velocity": 0.3779527559055118
        },
        {
          "duration": 0.015337416666682202,
          "durationTicks": 8,
          "midi": 54,
          "name": "F#3",
          "ticks": 81120,
          "time": 155.521405,
          "velocity": 0.6535433070866141
        },
        {
          "duration": 0.01533741666665378,
          "durationTicks": 8,
          "midi": 40,
          "name": "E2",
          "ticks": 81216,
          "time": 155.705454,
          "velocity": 0.9763779527559056
        },
        {
          "duration": 0.01533741666665378,
          "durationTicks": 8,
          "midi": 54,
          "name": "F#3",
          "ticks": 81216,
          "time": 155.705454,
          "velocity": 0.9133858267716536
        },
        {
          "duration": 0.01533741666665378,
          "durationTicks": 8,
          "midi": 42,
          "name": "F#2",
          "ticks": 81216,
          "time": 155.705454,
          "velocity": 0.6535433070866141
        },
        {
          "duration": 0.015337416666682202,
          "durationTicks": 8,
          "midi": 54,
          "name": "F#3",
          "ticks": 81312,
          "time": 155.889503,
          "velocity": 0.6535433070866141
        },
        {
          "duration": 0.015337416666682202,
          "durationTicks": 8,
          "midi": 42,
          "name": "F#2",
          "ticks": 81312,
          "time": 155.889503,
          "velocity": 0.5590551181102362
        },
        {
          "duration": 0.015337416666682202,
          "durationTicks": 8,
          "midi": 36,
          "name": "C2",
          "ticks": 81408,
          "time": 156.07355199999998,
          "velocity": 0.8818897637795275
        },
        {
          "duration": 0.015337416666682202,
          "durationTicks": 8,
          "midi": 42,
          "name": "F#2",
          "ticks": 81408,
          "time": 156.07355199999998,
          "velocity": 0.6535433070866141
        },
        {
          "duration": 0.015337416666682202,
          "durationTicks": 8,
          "midi": 54,
          "name": "F#3",
          "ticks": 81408,
          "time": 156.07355199999998,
          "velocity": 0.5590551181102362
        },
        {
          "duration": 0.015337416666682202,
          "durationTicks": 8,
          "midi": 54,
          "name": "F#3",
          "ticks": 81504,
          "time": 156.257601,
          "velocity": 0.5590551181102362
        },
        {
          "duration": 0.015337416666682202,
          "durationTicks": 8,
          "midi": 42,
          "name": "F#2",
          "ticks": 81504,
          "time": 156.257601,
          "velocity": 0.48031496062992124
        },
        {
          "duration": 0.015337416666682202,
          "durationTicks": 8,
          "midi": 54,
          "name": "F#3",
          "ticks": 81600,
          "time": 156.44164999999998,
          "velocity": 0.9133858267716536
        },
        {
          "duration": 0.015337416666682202,
          "durationTicks": 8,
          "midi": 40,
          "name": "E2",
          "ticks": 81600,
          "time": 156.44164999999998,
          "velocity": 0.8818897637795275
        },
        {
          "duration": 0.015337416666682202,
          "durationTicks": 8,
          "midi": 42,
          "name": "F#2",
          "ticks": 81600,
          "time": 156.44164999999998,
          "velocity": 0.7874015748031497
        },
        {
          "duration": 0.015337416666682202,
          "durationTicks": 8,
          "midi": 42,
          "name": "F#2",
          "ticks": 81696,
          "time": 156.625699,
          "velocity": 0.48031496062992124
        },
        {
          "duration": 0.015337416666682202,
          "durationTicks": 8,
          "midi": 54,
          "name": "F#3",
          "ticks": 81696,
          "time": 156.625699,
          "velocity": 0.5590551181102362
        },
        {
          "duration": 0.015337416666682202,
          "durationTicks": 8,
          "midi": 54,
          "name": "F#3",
          "ticks": 81792,
          "time": 156.80974799999998,
          "velocity": 0.48031496062992124
        },
        {
          "duration": 0.015337416666682202,
          "durationTicks": 8,
          "midi": 42,
          "name": "F#2",
          "ticks": 81792,
          "time": 156.80974799999998,
          "velocity": 0.6535433070866141
        },
        {
          "duration": 0.015337416666682202,
          "durationTicks": 8,
          "midi": 36,
          "name": "C2",
          "ticks": 81792,
          "time": 156.80974799999998,
          "velocity": 0.8818897637795275
        },
        {
          "duration": 0.01533741666665378,
          "durationTicks": 8,
          "midi": 54,
          "name": "F#3",
          "ticks": 81888,
          "time": 156.993797,
          "velocity": 0.5590551181102362
        },
        {
          "duration": 0.01533741666665378,
          "durationTicks": 8,
          "midi": 42,
          "name": "F#2",
          "ticks": 81888,
          "time": 156.993797,
          "velocity": 0.48031496062992124
        },
        {
          "duration": 0.015337416666682202,
          "durationTicks": 8,
          "midi": 40,
          "name": "E2",
          "ticks": 81984,
          "time": 157.177846,
          "velocity": 0.7480314960629921
        },
        {
          "duration": 0.015337416666682202,
          "durationTicks": 8,
          "midi": 42,
          "name": "F#2",
          "ticks": 81984,
          "time": 157.177846,
          "velocity": 0.7874015748031497
        },
        {
          "duration": 0.015337416666682202,
          "durationTicks": 8,
          "midi": 54,
          "name": "F#3",
          "ticks": 81984,
          "time": 157.177846,
          "velocity": 0.9133858267716536
        },
        {
          "duration": 0.01533741666665378,
          "durationTicks": 8,
          "midi": 42,
          "name": "F#2",
          "ticks": 82080,
          "time": 157.361895,
          "velocity": 0.5590551181102362
        },
        {
          "duration": 0.01533741666665378,
          "durationTicks": 8,
          "midi": 54,
          "name": "F#3",
          "ticks": 82080,
          "time": 157.361895,
          "velocity": 0.6535433070866141
        },
        {
          "duration": 0.015337416666682202,
          "durationTicks": 8,
          "midi": 42,
          "name": "F#2",
          "ticks": 82176,
          "time": 157.545944,
          "velocity": 0.7874015748031497
        },
        {
          "duration": 0.015337416666682202,
          "durationTicks": 8,
          "midi": 54,
          "name": "F#3",
          "ticks": 82176,
          "time": 157.545944,
          "velocity": 0.48031496062992124
        },
        {
          "duration": 0.015337416666682202,
          "durationTicks": 8,
          "midi": 36,
          "name": "C2",
          "ticks": 82176,
          "time": 157.545944,
          "velocity": 0.8818897637795275
        },
        {
          "duration": 0.015337416666682202,
          "durationTicks": 8,
          "midi": 54,
          "name": "F#3",
          "ticks": 82272,
          "time": 157.72999299999998,
          "velocity": 0.3779527559055118
        },
        {
          "duration": 0.015337416666682202,
          "durationTicks": 8,
          "midi": 42,
          "name": "F#2",
          "ticks": 82272,
          "time": 157.72999299999998,
          "velocity": 0.4251968503937008
        },
        {
          "duration": 0.015337416666682202,
          "durationTicks": 8,
          "midi": 42,
          "name": "F#2",
          "ticks": 82368,
          "time": 157.914042,
          "velocity": 0.6535433070866141
        },
        {
          "duration": 0.015337416666682202,
          "durationTicks": 8,
          "midi": 54,
          "name": "F#3",
          "ticks": 82368,
          "time": 157.914042,
          "velocity": 0.9133858267716536
        },
        {
          "duration": 0.015337416666682202,
          "durationTicks": 8,
          "midi": 40,
          "name": "E2",
          "ticks": 82368,
          "time": 157.914042,
          "velocity": 0.8818897637795275
        },
        {
          "duration": 0.015337416666682202,
          "durationTicks": 8,
          "midi": 42,
          "name": "F#2",
          "ticks": 82464,
          "time": 158.09809099999998,
          "velocity": 0.4251968503937008
        },
        {
          "duration": 0.015337416666682202,
          "durationTicks": 8,
          "midi": 54,
          "name": "F#3",
          "ticks": 82464,
          "time": 158.09809099999998,
          "velocity": 0.3779527559055118
        },
        {
          "duration": 0.01533741666665378,
          "durationTicks": 8,
          "midi": 36,
          "name": "C2",
          "ticks": 82560,
          "time": 158.28214,
          "velocity": 0.6299212598425197
        },
        {
          "duration": 0.01533741666665378,
          "durationTicks": 8,
          "midi": 54,
          "name": "F#3",
          "ticks": 82560,
          "time": 158.28214,
          "velocity": 0.3779527559055118
        },
        {
          "duration": 0.01533741666665378,
          "durationTicks": 8,
          "midi": 42,
          "name": "F#2",
          "ticks": 82560,
          "time": 158.28214,
          "velocity": 0.6535433070866141
        },
        {
          "duration": 0.015337416666682202,
          "durationTicks": 8,
          "midi": 54,
          "name": "F#3",
          "ticks": 82656,
          "time": 158.46618899999999,
          "velocity": 0.3464566929133858
        },
        {
          "duration": 0.015337416666682202,
          "durationTicks": 8,
          "midi": 42,
          "name": "F#2",
          "ticks": 82656,
          "time": 158.46618899999999,
          "velocity": 0.3779527559055118
        },
        {
          "duration": 0.01533741666665378,
          "durationTicks": 8,
          "midi": 54,
          "name": "F#3",
          "ticks": 82752,
          "time": 158.650238,
          "velocity": 0.9133858267716536
        },
        {
          "duration": 0.01533741666665378,
          "durationTicks": 8,
          "midi": 40,
          "name": "E2",
          "ticks": 82752,
          "time": 158.650238,
          "velocity": 0.9763779527559056
        },
        {
          "duration": 0.01533741666665378,
          "durationTicks": 8,
          "midi": 42,
          "name": "F#2",
          "ticks": 82752,
          "time": 158.650238,
          "velocity": 0.6535433070866141
        },
        {
          "duration": 0.015337416666682202,
          "durationTicks": 8,
          "midi": 42,
          "name": "F#2",
          "ticks": 82848,
          "time": 158.834287,
          "velocity": 0.48031496062992124
        },
        {
          "duration": 0.015337416666682202,
          "durationTicks": 8,
          "midi": 54,
          "name": "F#3",
          "ticks": 82848,
          "time": 158.834287,
          "velocity": 0.4251968503937008
        },
        {
          "duration": 0.01533741666665378,
          "durationTicks": 8,
          "midi": 42,
          "name": "F#2",
          "ticks": 82944,
          "time": 159.018336,
          "velocity": 0.6535433070866141
        },
        {
          "duration": 0.01533741666665378,
          "durationTicks": 8,
          "midi": 36,
          "name": "C2",
          "ticks": 82944,
          "time": 159.018336,
          "velocity": 0.7480314960629921
        },
        {
          "duration": 0.01533741666665378,
          "durationTicks": 8,
          "midi": 54,
          "name": "F#3",
          "ticks": 82944,
          "time": 159.018336,
          "velocity": 0.7874015748031497
        },
        {
          "duration": 0.015337416666682202,
          "durationTicks": 8,
          "midi": 54,
          "name": "F#3",
          "ticks": 83040,
          "time": 159.202385,
          "velocity": 0.4251968503937008
        },
        {
          "duration": 0.015337416666682202,
          "durationTicks": 8,
          "midi": 42,
          "name": "F#2",
          "ticks": 83040,
          "time": 159.202385,
          "velocity": 0.48031496062992124
        },
        {
          "duration": 0.015337416666682202,
          "durationTicks": 8,
          "midi": 42,
          "name": "F#2",
          "ticks": 83136,
          "time": 159.38643399999998,
          "velocity": 0.6535433070866141
        },
        {
          "duration": 0.015337416666682202,
          "durationTicks": 8,
          "midi": 54,
          "name": "F#3",
          "ticks": 83136,
          "time": 159.38643399999998,
          "velocity": 0.9133858267716536
        },
        {
          "duration": 0.015337416666682202,
          "durationTicks": 8,
          "midi": 40,
          "name": "E2",
          "ticks": 83136,
          "time": 159.38643399999998,
          "velocity": 0.8818897637795275
        },
        {
          "duration": 0.015337416666682202,
          "durationTicks": 8,
          "midi": 42,
          "name": "F#2",
          "ticks": 83232,
          "time": 159.570483,
          "velocity": 0.5590551181102362
        },
        {
          "duration": 0.015337416666682202,
          "durationTicks": 8,
          "midi": 54,
          "name": "F#3",
          "ticks": 83232,
          "time": 159.570483,
          "velocity": 0.3779527559055118
        },
        {
          "duration": 0.015337416666682202,
          "durationTicks": 8,
          "midi": 36,
          "name": "C2",
          "ticks": 83328,
          "time": 159.75453199999998,
          "velocity": 0.8818897637795275
        },
        {
          "duration": 0.015337416666682202,
          "durationTicks": 8,
          "midi": 54,
          "name": "F#3",
          "ticks": 83328,
          "time": 159.75453199999998,
          "velocity": 0.5590551181102362
        },
        {
          "duration": 0.015337416666682202,
          "durationTicks": 8,
          "midi": 42,
          "name": "F#2",
          "ticks": 83328,
          "time": 159.75453199999998,
          "velocity": 0.6535433070866141
        },
        {
          "duration": 0.01533741666665378,
          "durationTicks": 8,
          "midi": 54,
          "name": "F#3",
          "ticks": 83424,
          "time": 159.938581,
          "velocity": 0.5590551181102362
        },
        {
          "duration": 0.01533741666665378,
          "durationTicks": 8,
          "midi": 42,
          "name": "F#2",
          "ticks": 83424,
          "time": 159.938581,
          "velocity": 0.5590551181102362
        },
        {
          "duration": 0.015337416666682202,
          "durationTicks": 8,
          "midi": 40,
          "name": "E2",
          "ticks": 83520,
          "time": 160.12263,
          "velocity": 0.9763779527559056
        },
        {
          "duration": 0.015337416666682202,
          "durationTicks": 8,
          "midi": 42,
          "name": "F#2",
          "ticks": 83520,
          "time": 160.12263,
          "velocity": 0.6535433070866141
        },
        {
          "duration": 0.015337416666682202,
          "durationTicks": 8,
          "midi": 54,
          "name": "F#3",
          "ticks": 83520,
          "time": 160.12263,
          "velocity": 0.9133858267716536
        },
        {
          "duration": 0.01533741666665378,
          "durationTicks": 8,
          "midi": 54,
          "name": "F#3",
          "ticks": 83616,
          "time": 160.306679,
          "velocity": 0.5590551181102362
        },
        {
          "duration": 0.01533741666665378,
          "durationTicks": 8,
          "midi": 42,
          "name": "F#2",
          "ticks": 83616,
          "time": 160.306679,
          "velocity": 0.48031496062992124
        },
        {
          "duration": 0.015337416666682202,
          "durationTicks": 8,
          "midi": 36,
          "name": "C2",
          "ticks": 83712,
          "time": 160.490728,
          "velocity": 0.7480314960629921
        },
        {
          "duration": 0.015337416666682202,
          "durationTicks": 8,
          "midi": 42,
          "name": "F#2",
          "ticks": 83712,
          "time": 160.490728,
          "velocity": 0.6535433070866141
        },
        {
          "duration": 0.015337416666682202,
          "durationTicks": 8,
          "midi": 54,
          "name": "F#3",
          "ticks": 83712,
          "time": 160.490728,
          "velocity": 0.48031496062992124
        },
        {
          "duration": 0.015337416666682202,
          "durationTicks": 8,
          "midi": 42,
          "name": "F#2",
          "ticks": 83808,
          "time": 160.67477699999998,
          "velocity": 0.3779527559055118
        },
        {
          "duration": 0.015337416666682202,
          "durationTicks": 8,
          "midi": 54,
          "name": "F#3",
          "ticks": 83808,
          "time": 160.67477699999998,
          "velocity": 0.6535433070866141
        },
        {
          "duration": 0.015337416666682202,
          "durationTicks": 8,
          "midi": 40,
          "name": "E2",
          "ticks": 83904,
          "time": 160.858826,
          "velocity": 0.8818897637795275
        },
        {
          "duration": 0.015337416666682202,
          "durationTicks": 8,
          "midi": 42,
          "name": "F#2",
          "ticks": 83904,
          "time": 160.858826,
          "velocity": 0.6535433070866141
        },
        {
          "duration": 0.015337416666682202,
          "durationTicks": 8,
          "midi": 54,
          "name": "F#3",
          "ticks": 83904,
          "time": 160.858826,
          "velocity": 0.9133858267716536
        },
        {
          "duration": 0.015337416666682202,
          "durationTicks": 8,
          "midi": 42,
          "name": "F#2",
          "ticks": 84000,
          "time": 161.04287499999998,
          "velocity": 0.4251968503937008
        },
        {
          "duration": 0.015337416666682202,
          "durationTicks": 8,
          "midi": 54,
          "name": "F#3",
          "ticks": 84000,
          "time": 161.04287499999998,
          "velocity": 0.5590551181102362
        },
        {
          "duration": 0.015337416666682202,
          "durationTicks": 8,
          "midi": 36,
          "name": "C2",
          "ticks": 84096,
          "time": 161.226924,
          "velocity": 0.7480314960629921
        },
        {
          "duration": 0.015337416666682202,
          "durationTicks": 8,
          "midi": 42,
          "name": "F#2",
          "ticks": 84096,
          "time": 161.226924,
          "velocity": 0.6535433070866141
        },
        {
          "duration": 0.015337416666682202,
          "durationTicks": 8,
          "midi": 54,
          "name": "F#3",
          "ticks": 84096,
          "time": 161.226924,
          "velocity": 0.5590551181102362
        },
        {
          "duration": 0.015337416666682202,
          "durationTicks": 8,
          "midi": 54,
          "name": "F#3",
          "ticks": 84192,
          "time": 161.41097299999998,
          "velocity": 0.6535433070866141
        },
        {
          "duration": 0.015337416666682202,
          "durationTicks": 8,
          "midi": 42,
          "name": "F#2",
          "ticks": 84192,
          "time": 161.41097299999998,
          "velocity": 0.3779527559055118
        },
        {
          "duration": 0.01533741666665378,
          "durationTicks": 8,
          "midi": 40,
          "name": "E2",
          "ticks": 84288,
          "time": 161.595022,
          "velocity": 0.9763779527559056
        },
        {
          "duration": 0.01533741666665378,
          "durationTicks": 8,
          "midi": 54,
          "name": "F#3",
          "ticks": 84288,
          "time": 161.595022,
          "velocity": 0.9133858267716536
        },
        {
          "duration": 0.01533741666665378,
          "durationTicks": 8,
          "midi": 42,
          "name": "F#2",
          "ticks": 84288,
          "time": 161.595022,
          "velocity": 0.6535433070866141
        },
        {
          "duration": 0.015337416666682202,
          "durationTicks": 8,
          "midi": 42,
          "name": "F#2",
          "ticks": 84384,
          "time": 161.779071,
          "velocity": 0.5590551181102362
        },
        {
          "duration": 0.015337416666682202,
          "durationTicks": 8,
          "midi": 54,
          "name": "F#3",
          "ticks": 84384,
          "time": 161.779071,
          "velocity": 0.6535433070866141
        },
        {
          "duration": 0.01533741666665378,
          "durationTicks": 8,
          "midi": 42,
          "name": "F#2",
          "ticks": 84480,
          "time": 161.96312,
          "velocity": 0.6535433070866141
        },
        {
          "duration": 0.01533741666665378,
          "durationTicks": 8,
          "midi": 54,
          "name": "F#3",
          "ticks": 84480,
          "time": 161.96312,
          "velocity": 0.5590551181102362
        },
        {
          "duration": 0.01533741666665378,
          "durationTicks": 8,
          "midi": 36,
          "name": "C2",
          "ticks": 84480,
          "time": 161.96312,
          "velocity": 0.8818897637795275
        },
        {
          "duration": 0.015337416666682202,
          "durationTicks": 8,
          "midi": 54,
          "name": "F#3",
          "ticks": 84576,
          "time": 162.147169,
          "velocity": 0.5590551181102362
        },
        {
          "duration": 0.015337416666682202,
          "durationTicks": 8,
          "midi": 42,
          "name": "F#2",
          "ticks": 84576,
          "time": 162.147169,
          "velocity": 0.48031496062992124
        },
        {
          "duration": 0.015337416666682202,
          "durationTicks": 8,
          "midi": 40,
          "name": "E2",
          "ticks": 84672,
          "time": 162.33121799999998,
          "velocity": 0.8818897637795275
        },
        {
          "duration": 0.015337416666682202,
          "durationTicks": 8,
          "midi": 42,
          "name": "F#2",
          "ticks": 84672,
          "time": 162.33121799999998,
          "velocity": 0.7874015748031497
        },
        {
          "duration": 0.015337416666682202,
          "durationTicks": 8,
          "midi": 54,
          "name": "F#3",
          "ticks": 84672,
          "time": 162.33121799999998,
          "velocity": 0.9133858267716536
        },
        {
          "duration": 0.015337416666682202,
          "durationTicks": 8,
          "midi": 42,
          "name": "F#2",
          "ticks": 84768,
          "time": 162.515267,
          "velocity": 0.48031496062992124
        },
        {
          "duration": 0.015337416666682202,
          "durationTicks": 8,
          "midi": 54,
          "name": "F#3",
          "ticks": 84768,
          "time": 162.515267,
          "velocity": 0.5590551181102362
        },
        {
          "duration": 0.015337416666682202,
          "durationTicks": 8,
          "midi": 36,
          "name": "C2",
          "ticks": 84864,
          "time": 162.69931599999998,
          "velocity": 0.8818897637795275
        },
        {
          "duration": 0.015337416666682202,
          "durationTicks": 8,
          "midi": 54,
          "name": "F#3",
          "ticks": 84864,
          "time": 162.69931599999998,
          "velocity": 0.48031496062992124
        },
        {
          "duration": 0.015337416666682202,
          "durationTicks": 8,
          "midi": 42,
          "name": "F#2",
          "ticks": 84864,
          "time": 162.69931599999998,
          "velocity": 0.6535433070866141
        },
        {
          "duration": 0.01533741666665378,
          "durationTicks": 8,
          "midi": 54,
          "name": "F#3",
          "ticks": 84960,
          "time": 162.883365,
          "velocity": 0.5590551181102362
        },
        {
          "duration": 0.01533741666665378,
          "durationTicks": 8,
          "midi": 42,
          "name": "F#2",
          "ticks": 84960,
          "time": 162.883365,
          "velocity": 0.48031496062992124
        },
        {
          "duration": 0.015337416666682202,
          "durationTicks": 8,
          "midi": 54,
          "name": "F#3",
          "ticks": 85056,
          "time": 163.06741399999999,
          "velocity": 0.9133858267716536
        },
        {
          "duration": 0.015337416666682202,
          "durationTicks": 8,
          "midi": 40,
          "name": "E2",
          "ticks": 85056,
          "time": 163.06741399999999,
          "velocity": 0.7480314960629921
        },
        {
          "duration": 0.015337416666682202,
          "durationTicks": 8,
          "midi": 42,
          "name": "F#2",
          "ticks": 85056,
          "time": 163.06741399999999,
          "velocity": 0.7874015748031497
        },
        {
          "duration": 0.01533741666665378,
          "durationTicks": 8,
          "midi": 54,
          "name": "F#3",
          "ticks": 85152,
          "time": 163.251463,
          "velocity": 0.6535433070866141
        },
        {
          "duration": 0.01533741666665378,
          "durationTicks": 8,
          "midi": 42,
          "name": "F#2",
          "ticks": 85152,
          "time": 163.251463,
          "velocity": 0.5590551181102362
        },
        {
          "duration": 0.015337416666682202,
          "durationTicks": 8,
          "midi": 36,
          "name": "C2",
          "ticks": 85248,
          "time": 163.435512,
          "velocity": 0.8818897637795275
        },
        {
          "duration": 0.015337416666682202,
          "durationTicks": 8,
          "midi": 42,
          "name": "F#2",
          "ticks": 85248,
          "time": 163.435512,
          "velocity": 0.7874015748031497
        },
        {
          "duration": 0.015337416666682202,
          "durationTicks": 8,
          "midi": 54,
          "name": "F#3",
          "ticks": 85248,
          "time": 163.435512,
          "velocity": 0.48031496062992124
        },
        {
          "duration": 0.01533741666665378,
          "durationTicks": 8,
          "midi": 54,
          "name": "F#3",
          "ticks": 85344,
          "time": 163.619561,
          "velocity": 0.3779527559055118
        },
        {
          "duration": 0.01533741666665378,
          "durationTicks": 8,
          "midi": 42,
          "name": "F#2",
          "ticks": 85344,
          "time": 163.619561,
          "velocity": 0.4251968503937008
        },
        {
          "duration": 0.015337416666682202,
          "durationTicks": 8,
          "midi": 42,
          "name": "F#2",
          "ticks": 85440,
          "time": 163.80361,
          "velocity": 0.6535433070866141
        },
        {
          "duration": 0.015337416666682202,
          "durationTicks": 8,
          "midi": 40,
          "name": "E2",
          "ticks": 85440,
          "time": 163.80361,
          "velocity": 0.8818897637795275
        },
        {
          "duration": 0.015337416666682202,
          "durationTicks": 8,
          "midi": 54,
          "name": "F#3",
          "ticks": 85440,
          "time": 163.80361,
          "velocity": 0.9133858267716536
        },
        {
          "duration": 0.015337416666682202,
          "durationTicks": 8,
          "midi": 42,
          "name": "F#2",
          "ticks": 85536,
          "time": 163.98765899999998,
          "velocity": 0.4251968503937008
        },
        {
          "duration": 0.015337416666682202,
          "durationTicks": 8,
          "midi": 54,
          "name": "F#3",
          "ticks": 85536,
          "time": 163.98765899999998,
          "velocity": 0.3779527559055118
        },
        {
          "duration": 0.015337416666682202,
          "durationTicks": 8,
          "midi": 54,
          "name": "F#3",
          "ticks": 85632,
          "time": 164.171708,
          "velocity": 0.3779527559055118
        },
        {
          "duration": 0.015337416666682202,
          "durationTicks": 8,
          "midi": 36,
          "name": "C2",
          "ticks": 85632,
          "time": 164.171708,
          "velocity": 0.6299212598425197
        },
        {
          "duration": 0.015337416666682202,
          "durationTicks": 8,
          "midi": 42,
          "name": "F#2",
          "ticks": 85632,
          "time": 164.171708,
          "velocity": 0.6535433070866141
        },
        {
          "duration": 0.015337416666682202,
          "durationTicks": 8,
          "midi": 54,
          "name": "F#3",
          "ticks": 85728,
          "time": 164.35575699999998,
          "velocity": 0.3464566929133858
        },
        {
          "duration": 0.015337416666682202,
          "durationTicks": 8,
          "midi": 42,
          "name": "F#2",
          "ticks": 85728,
          "time": 164.35575699999998,
          "velocity": 0.3779527559055118
        },
        {
          "duration": 0.01533741666665378,
          "durationTicks": 8,
          "midi": 40,
          "name": "E2",
          "ticks": 85824,
          "time": 164.539806,
          "velocity": 0.9763779527559056
        },
        {
          "duration": 0.01533741666665378,
          "durationTicks": 8,
          "midi": 54,
          "name": "F#3",
          "ticks": 85824,
          "time": 164.539806,
          "velocity": 0.9133858267716536
        },
        {
          "duration": 0.01533741666665378,
          "durationTicks": 8,
          "midi": 42,
          "name": "F#2",
          "ticks": 85824,
          "time": 164.539806,
          "velocity": 0.6535433070866141
        },
        {
          "duration": 0.015337416666682202,
          "durationTicks": 8,
          "midi": 42,
          "name": "F#2",
          "ticks": 85920,
          "time": 164.723855,
          "velocity": 0.48031496062992124
        },
        {
          "duration": 0.015337416666682202,
          "durationTicks": 8,
          "midi": 54,
          "name": "F#3",
          "ticks": 85920,
          "time": 164.723855,
          "velocity": 0.4251968503937008
        },
        {
          "duration": 0.01533741666665378,
          "durationTicks": 8,
          "midi": 54,
          "name": "F#3",
          "ticks": 86016,
          "time": 164.907904,
          "velocity": 0.7874015748031497
        },
        {
          "duration": 0.01533741666665378,
          "durationTicks": 8,
          "midi": 36,
          "name": "C2",
          "ticks": 86016,
          "time": 164.907904,
          "velocity": 0.7480314960629921
        },
        {
          "duration": 0.01533741666665378,
          "durationTicks": 8,
          "midi": 42,
          "name": "F#2",
          "ticks": 86016,
          "time": 164.907904,
          "velocity": 0.6535433070866141
        },
        {
          "duration": 0.015337416666682202,
          "durationTicks": 8,
          "midi": 54,
          "name": "F#3",
          "ticks": 86112,
          "time": 165.091953,
          "velocity": 0.4251968503937008
        },
        {
          "duration": 0.015337416666682202,
          "durationTicks": 8,
          "midi": 42,
          "name": "F#2",
          "ticks": 86112,
          "time": 165.091953,
          "velocity": 0.48031496062992124
        },
        {
          "duration": 0.01533741666665378,
          "durationTicks": 8,
          "midi": 40,
          "name": "E2",
          "ticks": 86208,
          "time": 165.276002,
          "velocity": 0.8818897637795275
        },
        {
          "duration": 0.01533741666665378,
          "durationTicks": 8,
          "midi": 42,
          "name": "F#2",
          "ticks": 86208,
          "time": 165.276002,
          "velocity": 0.6535433070866141
        },
        {
          "duration": 0.01533741666665378,
          "durationTicks": 8,
          "midi": 54,
          "name": "F#3",
          "ticks": 86208,
          "time": 165.276002,
          "velocity": 0.9133858267716536
        },
        {
          "duration": 0.015337416666682202,
          "durationTicks": 8,
          "midi": 54,
          "name": "F#3",
          "ticks": 86304,
          "time": 165.460051,
          "velocity": 0.3779527559055118
        },
        {
          "duration": 0.015337416666682202,
          "durationTicks": 8,
          "midi": 42,
          "name": "F#2",
          "ticks": 86304,
          "time": 165.460051,
          "velocity": 0.5590551181102362
        },
        {
          "duration": 0.015337416666682202,
          "durationTicks": 8,
          "midi": 54,
          "name": "F#3",
          "ticks": 86400,
          "time": 165.64409999999998,
          "velocity": 0.5590551181102362
        },
        {
          "duration": 0.015337416666682202,
          "durationTicks": 8,
          "midi": 42,
          "name": "F#2",
          "ticks": 86400,
          "time": 165.64409999999998,
          "velocity": 0.6535433070866141
        },
        {
          "duration": 0.015337416666682202,
          "durationTicks": 8,
          "midi": 36,
          "name": "C2",
          "ticks": 86400,
          "time": 165.64409999999998,
          "velocity": 0.8818897637795275
        },
        {
          "duration": 0.015337416666682202,
          "durationTicks": 8,
          "midi": 42,
          "name": "F#2",
          "ticks": 86496,
          "time": 165.828149,
          "velocity": 0.5590551181102362
        },
        {
          "duration": 0.015337416666682202,
          "durationTicks": 8,
          "midi": 54,
          "name": "F#3",
          "ticks": 86496,
          "time": 165.828149,
          "velocity": 0.5590551181102362
        },
        {
          "duration": 0.015337416666682202,
          "durationTicks": 8,
          "midi": 42,
          "name": "F#2",
          "ticks": 86592,
          "time": 166.01219799999998,
          "velocity": 0.6535433070866141
        },
        {
          "duration": 0.015337416666682202,
          "durationTicks": 8,
          "midi": 54,
          "name": "F#3",
          "ticks": 86592,
          "time": 166.01219799999998,
          "velocity": 0.9133858267716536
        },
        {
          "duration": 0.015337416666682202,
          "durationTicks": 8,
          "midi": 40,
          "name": "E2",
          "ticks": 86592,
          "time": 166.01219799999998,
          "velocity": 0.9763779527559056
        },
        {
          "duration": 0.01533741666665378,
          "durationTicks": 8,
          "midi": 54,
          "name": "F#3",
          "ticks": 86688,
          "time": 166.196247,
          "velocity": 0.5590551181102362
        },
        {
          "duration": 0.01533741666665378,
          "durationTicks": 8,
          "midi": 42,
          "name": "F#2",
          "ticks": 86688,
          "time": 166.196247,
          "velocity": 0.48031496062992124
        },
        {
          "duration": 0.015337416666682202,
          "durationTicks": 8,
          "midi": 42,
          "name": "F#2",
          "ticks": 86784,
          "time": 166.380296,
          "velocity": 0.6535433070866141
        },
        {
          "duration": 0.015337416666682202,
          "durationTicks": 8,
          "midi": 54,
          "name": "F#3",
          "ticks": 86784,
          "time": 166.380296,
          "velocity": 0.48031496062992124
        },
        {
          "duration": 0.015337416666682202,
          "durationTicks": 8,
          "midi": 36,
          "name": "C2",
          "ticks": 86784,
          "time": 166.380296,
          "velocity": 0.7480314960629921
        },
        {
          "duration": 0.01533741666665378,
          "durationTicks": 8,
          "midi": 54,
          "name": "F#3",
          "ticks": 86880,
          "time": 166.564345,
          "velocity": 0.6535433070866141
        },
        {
          "duration": 0.01533741666665378,
          "durationTicks": 8,
          "midi": 42,
          "name": "F#2",
          "ticks": 86880,
          "time": 166.564345,
          "velocity": 0.3779527559055118
        },
        {
          "duration": 0.015337416666682202,
          "durationTicks": 8,
          "midi": 54,
          "name": "F#3",
          "ticks": 86976,
          "time": 166.748394,
          "velocity": 0.9133858267716536
        },
        {
          "duration": 0.015337416666682202,
          "durationTicks": 8,
          "midi": 40,
          "name": "E2",
          "ticks": 86976,
          "time": 166.748394,
          "velocity": 0.8818897637795275
        },
        {
          "duration": 0.015337416666682202,
          "durationTicks": 8,
          "midi": 42,
          "name": "F#2",
          "ticks": 86976,
          "time": 166.748394,
          "velocity": 0.6535433070866141
        },
        {
          "duration": 0.015337416666682202,
          "durationTicks": 8,
          "midi": 54,
          "name": "F#3",
          "ticks": 87072,
          "time": 166.93244299999998,
          "velocity": 0.5590551181102362
        },
        {
          "duration": 0.015337416666682202,
          "durationTicks": 8,
          "midi": 42,
          "name": "F#2",
          "ticks": 87072,
          "time": 166.93244299999998,
          "velocity": 0.4251968503937008
        },
        {
          "duration": 0.015337416666682202,
          "durationTicks": 8,
          "midi": 42,
          "name": "F#2",
          "ticks": 87168,
          "time": 167.116492,
          "velocity": 0.6535433070866141
        },
        {
          "duration": 0.015337416666682202,
          "durationTicks": 8,
          "midi": 36,
          "name": "C2",
          "ticks": 87168,
          "time": 167.116492,
          "velocity": 0.7480314960629921
        },
        {
          "duration": 0.015337416666682202,
          "durationTicks": 8,
          "midi": 54,
          "name": "F#3",
          "ticks": 87168,
          "time": 167.116492,
          "velocity": 0.5590551181102362
        },
        {
          "duration": 0.015337416666682202,
          "durationTicks": 8,
          "midi": 42,
          "name": "F#2",
          "ticks": 87264,
          "time": 167.30054099999998,
          "velocity": 0.3779527559055118
        },
        {
          "duration": 0.015337416666682202,
          "durationTicks": 8,
          "midi": 54,
          "name": "F#3",
          "ticks": 87264,
          "time": 167.30054099999998,
          "velocity": 0.6535433070866141
        },
        {
          "duration": 0.01533741666665378,
          "durationTicks": 8,
          "midi": 40,
          "name": "E2",
          "ticks": 87360,
          "time": 167.48459,
          "velocity": 0.9763779527559056
        },
        {
          "duration": 0.01533741666665378,
          "durationTicks": 8,
          "midi": 54,
          "name": "F#3",
          "ticks": 87360,
          "time": 167.48459,
          "velocity": 0.9133858267716536
        },
        {
          "duration": 0.01533741666665378,
          "durationTicks": 8,
          "midi": 42,
          "name": "F#2",
          "ticks": 87360,
          "time": 167.48459,
          "velocity": 0.6535433070866141
        },
        {
          "duration": 0.015337416666682202,
          "durationTicks": 8,
          "midi": 42,
          "name": "F#2",
          "ticks": 87456,
          "time": 167.66863899999998,
          "velocity": 0.5590551181102362
        },
        {
          "duration": 0.015337416666682202,
          "durationTicks": 8,
          "midi": 54,
          "name": "F#3",
          "ticks": 87456,
          "time": 167.66863899999998,
          "velocity": 0.6535433070866141
        },
        {
          "duration": 0.01533741666665378,
          "durationTicks": 8,
          "midi": 42,
          "name": "F#2",
          "ticks": 87552,
          "time": 167.852688,
          "velocity": 0.6535433070866141
        },
        {
          "duration": 0.01533741666665378,
          "durationTicks": 8,
          "midi": 36,
          "name": "C2",
          "ticks": 87552,
          "time": 167.852688,
          "velocity": 0.8818897637795275
        },
        {
          "duration": 0.01533741666665378,
          "durationTicks": 8,
          "midi": 54,
          "name": "F#3",
          "ticks": 87552,
          "time": 167.852688,
          "velocity": 0.5590551181102362
        },
        {
          "duration": 0.015337416666682202,
          "durationTicks": 8,
          "midi": 54,
          "name": "F#3",
          "ticks": 87648,
          "time": 168.036737,
          "velocity": 0.5590551181102362
        },
        {
          "duration": 0.015337416666682202,
          "durationTicks": 8,
          "midi": 42,
          "name": "F#2",
          "ticks": 87648,
          "time": 168.036737,
          "velocity": 0.48031496062992124
        },
        {
          "duration": 0.01533741666665378,
          "durationTicks": 8,
          "midi": 42,
          "name": "F#2",
          "ticks": 87744,
          "time": 168.220786,
          "velocity": 0.7874015748031497
        },
        {
          "duration": 0.01533741666665378,
          "durationTicks": 8,
          "midi": 54,
          "name": "F#3",
          "ticks": 87744,
          "time": 168.220786,
          "velocity": 0.9133858267716536
        },
        {
          "duration": 0.01533741666665378,
          "durationTicks": 8,
          "midi": 40,
          "name": "E2",
          "ticks": 87744,
          "time": 168.220786,
          "velocity": 0.8818897637795275
        },
        {
          "duration": 0.015337416666682202,
          "durationTicks": 8,
          "midi": 42,
          "name": "F#2",
          "ticks": 87840,
          "time": 168.404835,
          "velocity": 0.48031496062992124
        },
        {
          "duration": 0.015337416666682202,
          "durationTicks": 8,
          "midi": 54,
          "name": "F#3",
          "ticks": 87840,
          "time": 168.404835,
          "velocity": 0.5590551181102362
        },
        {
          "duration": 0.015337416666682202,
          "durationTicks": 8,
          "midi": 42,
          "name": "F#2",
          "ticks": 87936,
          "time": 168.58888399999998,
          "velocity": 0.6535433070866141
        },
        {
          "duration": 0.015337416666682202,
          "durationTicks": 8,
          "midi": 36,
          "name": "C2",
          "ticks": 87936,
          "time": 168.58888399999998,
          "velocity": 0.8818897637795275
        },
        {
          "duration": 0.015337416666682202,
          "durationTicks": 8,
          "midi": 54,
          "name": "F#3",
          "ticks": 87936,
          "time": 168.58888399999998,
          "velocity": 0.48031496062992124
        },
        {
          "duration": 0.015337416666682202,
          "durationTicks": 8,
          "midi": 42,
          "name": "F#2",
          "ticks": 88032,
          "time": 168.772933,
          "velocity": 0.48031496062992124
        },
        {
          "duration": 0.015337416666682202,
          "durationTicks": 8,
          "midi": 54,
          "name": "F#3",
          "ticks": 88032,
          "time": 168.772933,
          "velocity": 0.5590551181102362
        },
        {
          "duration": 0.015337416666682202,
          "durationTicks": 8,
          "midi": 40,
          "name": "E2",
          "ticks": 88128,
          "time": 168.95698199999998,
          "velocity": 0.7480314960629921
        },
        {
          "duration": 0.015337416666682202,
          "durationTicks": 8,
          "midi": 42,
          "name": "F#2",
          "ticks": 88128,
          "time": 168.95698199999998,
          "velocity": 0.7874015748031497
        },
        {
          "duration": 0.015337416666682202,
          "durationTicks": 8,
          "midi": 54,
          "name": "F#3",
          "ticks": 88128,
          "time": 168.95698199999998,
          "velocity": 0.9133858267716536
        },
        {
          "duration": 0.01533741666665378,
          "durationTicks": 8,
          "midi": 54,
          "name": "F#3",
          "ticks": 88224,
          "time": 169.141031,
          "velocity": 0.6535433070866141
        },
        {
          "duration": 0.01533741666665378,
          "durationTicks": 8,
          "midi": 42,
          "name": "F#2",
          "ticks": 88224,
          "time": 169.141031,
          "velocity": 0.5590551181102362
        },
        {
          "duration": 0.015337416666682202,
          "durationTicks": 8,
          "midi": 54,
          "name": "F#3",
          "ticks": 88320,
          "time": 169.32507999999999,
          "velocity": 0.48031496062992124
        },
        {
          "duration": 0.015337416666682202,
          "durationTicks": 8,
          "midi": 42,
          "name": "F#2",
          "ticks": 88320,
          "time": 169.32507999999999,
          "velocity": 0.7874015748031497
        },
        {
          "duration": 0.015337416666682202,
          "durationTicks": 8,
          "midi": 36,
          "name": "C2",
          "ticks": 88320,
          "time": 169.32507999999999,
          "velocity": 0.8818897637795275
        },
        {
          "duration": 0.01533741666665378,
          "durationTicks": 8,
          "midi": 54,
          "name": "F#3",
          "ticks": 88416,
          "time": 169.509129,
          "velocity": 0.3779527559055118
        },
        {
          "duration": 0.01533741666665378,
          "durationTicks": 8,
          "midi": 42,
          "name": "F#2",
          "ticks": 88416,
          "time": 169.509129,
          "velocity": 0.4251968503937008
        },
        {
          "duration": 0.015337416666682202,
          "durationTicks": 8,
          "midi": 54,
          "name": "F#3",
          "ticks": 88512,
          "time": 169.693178,
          "velocity": 0.9133858267716536
        },
        {
          "duration": 0.015337416666682202,
          "durationTicks": 8,
          "midi": 40,
          "name": "E2",
          "ticks": 88512,
          "time": 169.693178,
          "velocity": 0.8818897637795275
        },
        {
          "duration": 0.015337416666682202,
          "durationTicks": 8,
          "midi": 42,
          "name": "F#2",
          "ticks": 88512,
          "time": 169.693178,
          "velocity": 0.6535433070866141
        },
        {
          "duration": 0.01533741666665378,
          "durationTicks": 8,
          "midi": 54,
          "name": "F#3",
          "ticks": 88608,
          "time": 169.877227,
          "velocity": 0.3779527559055118
        },
        {
          "duration": 0.01533741666665378,
          "durationTicks": 8,
          "midi": 42,
          "name": "F#2",
          "ticks": 88608,
          "time": 169.877227,
          "velocity": 0.4251968503937008
        },
        {
          "duration": 0.015337416666682202,
          "durationTicks": 8,
          "midi": 42,
          "name": "F#2",
          "ticks": 88704,
          "time": 170.061276,
          "velocity": 0.6535433070866141
        },
        {
          "duration": 0.015337416666682202,
          "durationTicks": 8,
          "midi": 36,
          "name": "C2",
          "ticks": 88704,
          "time": 170.061276,
          "velocity": 0.6299212598425197
        },
        {
          "duration": 0.015337416666682202,
          "durationTicks": 8,
          "midi": 54,
          "name": "F#3",
          "ticks": 88704,
          "time": 170.061276,
          "velocity": 0.3779527559055118
        },
        {
          "duration": 0.015337416666682202,
          "durationTicks": 8,
          "midi": 42,
          "name": "F#2",
          "ticks": 88800,
          "time": 170.24532499999998,
          "velocity": 0.3779527559055118
        },
        {
          "duration": 0.015337416666682202,
          "durationTicks": 8,
          "midi": 54,
          "name": "F#3",
          "ticks": 88800,
          "time": 170.24532499999998,
          "velocity": 0.3464566929133858
        },
        {
          "duration": 0.015337416666682202,
          "durationTicks": 8,
          "midi": 40,
          "name": "E2",
          "ticks": 88896,
          "time": 170.429374,
          "velocity": 0.9763779527559056
        },
        {
          "duration": 0.015337416666682202,
          "durationTicks": 8,
          "midi": 42,
          "name": "F#2",
          "ticks": 88896,
          "time": 170.429374,
          "velocity": 0.6535433070866141
        },
        {
          "duration": 0.015337416666682202,
          "durationTicks": 8,
          "midi": 54,
          "name": "F#3",
          "ticks": 88896,
          "time": 170.429374,
          "velocity": 0.9133858267716536
        },
        {
          "duration": 0.015337416666682202,
          "durationTicks": 8,
          "midi": 42,
          "name": "F#2",
          "ticks": 88992,
          "time": 170.61342299999998,
          "velocity": 0.48031496062992124
        },
        {
          "duration": 0.015337416666682202,
          "durationTicks": 8,
          "midi": 54,
          "name": "F#3",
          "ticks": 88992,
          "time": 170.61342299999998,
          "velocity": 0.4251968503937008
        },
        {
          "duration": 0.01533741666665378,
          "durationTicks": 8,
          "midi": 54,
          "name": "F#3",
          "ticks": 89088,
          "time": 170.797472,
          "velocity": 0.7874015748031497
        },
        {
          "duration": 0.01533741666665378,
          "durationTicks": 8,
          "midi": 36,
          "name": "C2",
          "ticks": 89088,
          "time": 170.797472,
          "velocity": 0.7480314960629921
        },
        {
          "duration": 0.01533741666665378,
          "durationTicks": 8,
          "midi": 42,
          "name": "F#2",
          "ticks": 89088,
          "time": 170.797472,
          "velocity": 0.6535433070866141
        },
        {
          "duration": 0.015337416666682202,
          "durationTicks": 8,
          "midi": 42,
          "name": "F#2",
          "ticks": 89184,
          "time": 170.981521,
          "velocity": 0.48031496062992124
        },
        {
          "duration": 0.015337416666682202,
          "durationTicks": 8,
          "midi": 54,
          "name": "F#3",
          "ticks": 89184,
          "time": 170.981521,
          "velocity": 0.4251968503937008
        },
        {
          "duration": 0.01533741666665378,
          "durationTicks": 8,
          "midi": 40,
          "name": "E2",
          "ticks": 89280,
          "time": 171.16557,
          "velocity": 0.8818897637795275
        },
        {
          "duration": 0.01533741666665378,
          "durationTicks": 8,
          "midi": 54,
          "name": "F#3",
          "ticks": 89280,
          "time": 171.16557,
          "velocity": 0.9133858267716536
        },
        {
          "duration": 0.01533741666665378,
          "durationTicks": 8,
          "midi": 42,
          "name": "F#2",
          "ticks": 89280,
          "time": 171.16557,
          "velocity": 0.6535433070866141
        },
        {
          "duration": 0.015337416666682202,
          "durationTicks": 8,
          "midi": 54,
          "name": "F#3",
          "ticks": 89376,
          "time": 171.349619,
          "velocity": 0.3779527559055118
        },
        {
          "duration": 0.015337416666682202,
          "durationTicks": 8,
          "midi": 42,
          "name": "F#2",
          "ticks": 89376,
          "time": 171.349619,
          "velocity": 0.5590551181102362
        },
        {
          "duration": 0.015337416666682202,
          "durationTicks": 8,
          "midi": 36,
          "name": "C2",
          "ticks": 89472,
          "time": 171.53366799999998,
          "velocity": 0.8818897637795275
        },
        {
          "duration": 0.015337416666682202,
          "durationTicks": 8,
          "midi": 42,
          "name": "F#2",
          "ticks": 89472,
          "time": 171.53366799999998,
          "velocity": 0.6535433070866141
        },
        {
          "duration": 0.015337416666682202,
          "durationTicks": 8,
          "midi": 54,
          "name": "F#3",
          "ticks": 89472,
          "time": 171.53366799999998,
          "velocity": 0.5590551181102362
        },
        {
          "duration": 0.015337416666682202,
          "durationTicks": 8,
          "midi": 54,
          "name": "F#3",
          "ticks": 89568,
          "time": 171.717717,
          "velocity": 0.5590551181102362
        },
        {
          "duration": 0.015337416666682202,
          "durationTicks": 8,
          "midi": 42,
          "name": "F#2",
          "ticks": 89568,
          "time": 171.717717,
          "velocity": 0.5590551181102362
        },
        {
          "duration": 0.015337416666682202,
          "durationTicks": 8,
          "midi": 40,
          "name": "E2",
          "ticks": 89664,
          "time": 171.90176599999998,
          "velocity": 0.9763779527559056
        },
        {
          "duration": 0.015337416666682202,
          "durationTicks": 8,
          "midi": 42,
          "name": "F#2",
          "ticks": 89664,
          "time": 171.90176599999998,
          "velocity": 0.6535433070866141
        },
        {
          "duration": 0.015337416666682202,
          "durationTicks": 8,
          "midi": 54,
          "name": "F#3",
          "ticks": 89664,
          "time": 171.90176599999998,
          "velocity": 0.9133858267716536
        },
        {
          "duration": 0.015337416666682202,
          "durationTicks": 8,
          "midi": 42,
          "name": "F#2",
          "ticks": 89760,
          "time": 172.085815,
          "velocity": 0.48031496062992124
        },
        {
          "duration": 0.015337416666682202,
          "durationTicks": 8,
          "midi": 54,
          "name": "F#3",
          "ticks": 89760,
          "time": 172.085815,
          "velocity": 0.5590551181102362
        },
        {
          "duration": 0.015337416666682202,
          "durationTicks": 8,
          "midi": 36,
          "name": "C2",
          "ticks": 89856,
          "time": 172.26986399999998,
          "velocity": 0.7480314960629921
        },
        {
          "duration": 0.015337416666682202,
          "durationTicks": 8,
          "midi": 54,
          "name": "F#3",
          "ticks": 89856,
          "time": 172.26986399999998,
          "velocity": 0.48031496062992124
        },
        {
          "duration": 0.015337416666682202,
          "durationTicks": 8,
          "midi": 42,
          "name": "F#2",
          "ticks": 89856,
          "time": 172.26986399999998,
          "velocity": 0.6535433070866141
        },
        {
          "duration": 0.01533741666665378,
          "durationTicks": 8,
          "midi": 42,
          "name": "F#2",
          "ticks": 89952,
          "time": 172.453913,
          "velocity": 0.3779527559055118
        },
        {
          "duration": 0.01533741666665378,
          "durationTicks": 8,
          "midi": 54,
          "name": "F#3",
          "ticks": 89952,
          "time": 172.453913,
          "velocity": 0.6535433070866141
        },
        {
          "duration": 0.015337416666682202,
          "durationTicks": 8,
          "midi": 54,
          "name": "F#3",
          "ticks": 90048,
          "time": 172.637962,
          "velocity": 0.9133858267716536
        },
        {
          "duration": 0.015337416666682202,
          "durationTicks": 8,
          "midi": 40,
          "name": "E2",
          "ticks": 90048,
          "time": 172.637962,
          "velocity": 0.8818897637795275
        },
        {
          "duration": 0.015337416666682202,
          "durationTicks": 8,
          "midi": 42,
          "name": "F#2",
          "ticks": 90048,
          "time": 172.637962,
          "velocity": 0.6535433070866141
        },
        {
          "duration": 0.01533741666665378,
          "durationTicks": 8,
          "midi": 54,
          "name": "F#3",
          "ticks": 90144,
          "time": 172.822011,
          "velocity": 0.5590551181102362
        },
        {
          "duration": 0.01533741666665378,
          "durationTicks": 8,
          "midi": 42,
          "name": "F#2",
          "ticks": 90144,
          "time": 172.822011,
          "velocity": 0.4251968503937008
        },
        {
          "duration": 0.015337416666682202,
          "durationTicks": 8,
          "midi": 42,
          "name": "F#2",
          "ticks": 90240,
          "time": 173.00606,
          "velocity": 0.6535433070866141
        },
        {
          "duration": 0.015337416666682202,
          "durationTicks": 8,
          "midi": 54,
          "name": "F#3",
          "ticks": 90240,
          "time": 173.00606,
          "velocity": 0.5590551181102362
        },
        {
          "duration": 0.015337416666682202,
          "durationTicks": 8,
          "midi": 36,
          "name": "C2",
          "ticks": 90240,
          "time": 173.00606,
          "velocity": 0.7480314960629921
        },
        {
          "duration": 0.015337416666682202,
          "durationTicks": 8,
          "midi": 54,
          "name": "F#3",
          "ticks": 90336,
          "time": 173.19010899999998,
          "velocity": 0.6535433070866141
        },
        {
          "duration": 0.015337416666682202,
          "durationTicks": 8,
          "midi": 42,
          "name": "F#2",
          "ticks": 90336,
          "time": 173.19010899999998,
          "velocity": 0.3779527559055118
        },
        {
          "duration": 0.015337416666682202,
          "durationTicks": 8,
          "midi": 42,
          "name": "F#2",
          "ticks": 90432,
          "time": 173.374158,
          "velocity": 0.6535433070866141
        },
        {
          "duration": 0.015337416666682202,
          "durationTicks": 8,
          "midi": 54,
          "name": "F#3",
          "ticks": 90432,
          "time": 173.374158,
          "velocity": 0.9133858267716536
        },
        {
          "duration": 0.015337416666682202,
          "durationTicks": 8,
          "midi": 40,
          "name": "E2",
          "ticks": 90432,
          "time": 173.374158,
          "velocity": 0.9763779527559056
        },
        {
          "duration": 0.015337416666682202,
          "durationTicks": 8,
          "midi": 54,
          "name": "F#3",
          "ticks": 90528,
          "time": 173.55820699999998,
          "velocity": 0.6535433070866141
        },
        {
          "duration": 0.015337416666682202,
          "durationTicks": 8,
          "midi": 42,
          "name": "F#2",
          "ticks": 90528,
          "time": 173.55820699999998,
          "velocity": 0.5590551181102362
        },
        {
          "duration": 0.01533741666665378,
          "durationTicks": 8,
          "midi": 54,
          "name": "F#3",
          "ticks": 90624,
          "time": 173.742256,
          "velocity": 0.5590551181102362
        },
        {
          "duration": 0.01533741666665378,
          "durationTicks": 8,
          "midi": 42,
          "name": "F#2",
          "ticks": 90624,
          "time": 173.742256,
          "velocity": 0.6535433070866141
        },
        {
          "duration": 0.01533741666665378,
          "durationTicks": 8,
          "midi": 36,
          "name": "C2",
          "ticks": 90624,
          "time": 173.742256,
          "velocity": 0.8818897637795275
        },
        {
          "duration": 0.015337416666682202,
          "durationTicks": 8,
          "midi": 54,
          "name": "F#3",
          "ticks": 90720,
          "time": 173.92630499999999,
          "velocity": 0.5590551181102362
        },
        {
          "duration": 0.015337416666682202,
          "durationTicks": 8,
          "midi": 42,
          "name": "F#2",
          "ticks": 90720,
          "time": 173.92630499999999,
          "velocity": 0.48031496062992124
        },
        {
          "duration": 0.01533741666665378,
          "durationTicks": 8,
          "midi": 42,
          "name": "F#2",
          "ticks": 90816,
          "time": 174.110354,
          "velocity": 0.7874015748031497
        },
        {
          "duration": 0.01533741666665378,
          "durationTicks": 8,
          "midi": 39,
          "name": "D#2",
          "ticks": 90816,
          "time": 174.110354,
          "velocity": 0.8661417322834646
        },
        {
          "duration": 0.01533741666665378,
          "durationTicks": 8,
          "midi": 40,
          "name": "E2",
          "ticks": 90816,
          "time": 174.110354,
          "velocity": 0.8818897637795275
        },
        {
          "duration": 0.01533741666665378,
          "durationTicks": 8,
          "midi": 54,
          "name": "F#3",
          "ticks": 90816,
          "time": 174.110354,
          "velocity": 0.9133858267716536
        },
        {
          "duration": 0.015337416666682202,
          "durationTicks": 8,
          "midi": 42,
          "name": "F#2",
          "ticks": 90912,
          "time": 174.294403,
          "velocity": 0.48031496062992124
        },
        {
          "duration": 0.015337416666682202,
          "durationTicks": 8,
          "midi": 54,
          "name": "F#3",
          "ticks": 90912,
          "time": 174.294403,
          "velocity": 0.5590551181102362
        },
        {
          "duration": 0.01533741666665378,
          "durationTicks": 8,
          "midi": 36,
          "name": "C2",
          "ticks": 91008,
          "time": 174.478452,
          "velocity": 0.8818897637795275
        },
        {
          "duration": 0.01533741666665378,
          "durationTicks": 8,
          "midi": 54,
          "name": "F#3",
          "ticks": 91008,
          "time": 174.478452,
          "velocity": 0.48031496062992124
        },
        {
          "duration": 0.01533741666665378,
          "durationTicks": 8,
          "midi": 42,
          "name": "F#2",
          "ticks": 91008,
          "time": 174.478452,
          "velocity": 0.6535433070866141
        },
        {
          "duration": 0.015337416666682202,
          "durationTicks": 8,
          "midi": 42,
          "name": "F#2",
          "ticks": 91104,
          "time": 174.662501,
          "velocity": 0.48031496062992124
        },
        {
          "duration": 0.015337416666682202,
          "durationTicks": 8,
          "midi": 54,
          "name": "F#3",
          "ticks": 91104,
          "time": 174.662501,
          "velocity": 0.5590551181102362
        },
        {
          "duration": 0.015337416666682202,
          "durationTicks": 8,
          "midi": 40,
          "name": "E2",
          "ticks": 91200,
          "time": 174.84654999999998,
          "velocity": 0.7480314960629921
        },
        {
          "duration": 0.015337416666682202,
          "durationTicks": 8,
          "midi": 39,
          "name": "D#2",
          "ticks": 91200,
          "time": 174.84654999999998,
          "velocity": 0.8661417322834646
        },
        {
          "duration": 0.015337416666682202,
          "durationTicks": 8,
          "midi": 42,
          "name": "F#2",
          "ticks": 91200,
          "time": 174.84654999999998,
          "velocity": 0.7874015748031497
        },
        {
          "duration": 0.015337416666682202,
          "durationTicks": 8,
          "midi": 54,
          "name": "F#3",
          "ticks": 91200,
          "time": 174.84654999999998,
          "velocity": 0.9133858267716536
        },
        {
          "duration": 0.015337416666682202,
          "durationTicks": 8,
          "midi": 54,
          "name": "F#3",
          "ticks": 91296,
          "time": 175.030599,
          "velocity": 0.6535433070866141
        },
        {
          "duration": 0.015337416666682202,
          "durationTicks": 8,
          "midi": 42,
          "name": "F#2",
          "ticks": 91296,
          "time": 175.030599,
          "velocity": 0.5590551181102362
        },
        {
          "duration": 0.015337416666682202,
          "durationTicks": 8,
          "midi": 54,
          "name": "F#3",
          "ticks": 91392,
          "time": 175.21464799999998,
          "velocity": 0.9133858267716536
        },
        {
          "duration": 0.015337416666682202,
          "durationTicks": 8,
          "midi": 40,
          "name": "E2",
          "ticks": 91392,
          "time": 175.21464799999998,
          "velocity": 0.9763779527559056
        },
        {
          "duration": 0.015337416666682202,
          "durationTicks": 8,
          "midi": 36,
          "name": "C2",
          "ticks": 91392,
          "time": 175.21464799999998,
          "velocity": 0.9763779527559056
        }
      ],
      "endOfTrackTicks": 91400
    }
  ]
}