{
  "header": {
    "keySignatures": [
      {
        "key": "B",
        "scale": "minor",
        "ticks": 0
      },
      {
        "key": "B",
        "scale": "minor",
        "ticks": 0
      },
      {
        "key": "B",
        "scale": "minor",
        "ticks": 0
      },
      {
        "key": "B",
        "scale": "minor",
        "ticks": 0
      },
      {
        "key": "B",
        "scale": "minor",
        "ticks": 0
      },
      {
        "key": "B",
        "scale": "minor",
        "ticks": 0
      },
      {
        "key": "B",
        "scale": "minor",
        "ticks": 0
      },
      {
        "key": "B",
        "scale": "minor",
        "ticks": 0
      },
      {
        "key": "B",
        "scale": "minor",
        "ticks": 0
      },
      {
        "key": "B",
        "scale": "minor",
        "ticks": 0
      },
      {
        "key": "B",
        "scale": "minor",
        "ticks": 0
      },
      {
        "key": "B",
        "scale": "minor",
        "ticks": 0
      },
      {
        "key": "B",
        "scale": "minor",
        "ticks": 0
      },
      {
        "key": "B",
        "scale": "minor",
        "ticks": 0
      },
      {
        "key": "B",
        "scale": "minor",
        "ticks": 0
      }
    ],
    "meta": {
      "title": "Timber",
      "artist": "Pitbull ft. Kesha",
      "creator": "unknown"
    },
    "name": "",
    "ppq": 960,
    "tempos": [
      {
        "bpm": 132.000132000132,
        "ticks": 0
      }
    ],
    "timeSignatures": [
      {
        "ticks": 0,
        "timeSignature": [
          4,
          4
        ],
        "measures": 0
      }
    ]
  },
  "tracks": [
    {
      "channel": 0,
      "controlChanges": {},
      "pitchBends": [],
      "instrument": {
        "family": "piano",
        "number": 0,
        "name": "acoustic grand piano"
      },
      "name": "Soft karaoke",
      "notes": [],
      "endOfTrackTicks": 0
    },
    {
      "channel": 0,
      "controlChanges": {},
      "pitchBends": [],
      "instrument": {
        "family": "piano",
        "number": 0,
        "name": "acoustic grand piano"
      },
      "name": "Words",
      "notes": [],
      "endOfTrackTicks": 416640
    },
    {
      "channel": 0,
      "controlChanges": {
        "7": [
          {
            "number": 7,
            "ticks": 0,
            "time": 0,
            "value": 1
          }
        ],
        "10": [
          {
            "number": 10,
            "ticks": 0,
            "time": 0,
            "value": 0.7165354330708661
          }
        ]
      },
      "pitchBends": [],
      "instrument": {
        "family": "piano",
        "number": 0,
        "name": "acoustic grand piano"
      },
      "name": "Vocal",
      "notes": [],
      "endOfTrackTicks": 422400
    },
    {
      "channel": 0,
      "controlChanges": {},
      "pitchBends": [],
      "instrument": {
        "family": "ensemble",
        "number": 53,
        "name": "voice oohs"
      },
      "name": "",
      "notes": [
        {
          "duration": 0.22727249999999977,
          "durationTicks": 480,
          "midi": 63,
          "name": "D#4",
          "ticks": 17760,
          "time": 8.4090825,
          "velocity": 0.7007874015748031
        },
        {
          "duration": 0.22727249999999977,
          "durationTicks": 480,
          "midi": 61,
          "name": "C#4",
          "ticks": 18240,
          "time": 8.636355,
          "velocity": 0.7007874015748031
        },
        {
          "duration": 0.22727250000000154,
          "durationTicks": 480,
          "midi": 59,
          "name": "B3",
          "ticks": 18720,
          "time": 8.8636275,
          "velocity": 0.7007874015748031
        },
        {
          "duration": 0.22727249999999977,
          "durationTicks": 480,
          "midi": 59,
          "name": "B3",
          "ticks": 19200,
          "time": 9.090900000000001,
          "velocity": 0.7007874015748031
        },
        {
          "duration": 0.45454499999999953,
          "durationTicks": 960,
          "midi": 56,
          "name": "G#3",
          "ticks": 19680,
          "time": 9.318172500000001,
          "velocity": 0.7007874015748031
        },
        {
          "duration": 0.22727249999999977,
          "durationTicks": 480,
          "midi": 63,
          "name": "D#4",
          "ticks": 21600,
          "time": 10.2272625,
          "velocity": 0.7007874015748031
        },
        {
          "duration": 0.22727250000000154,
          "durationTicks": 480,
          "midi": 61,
          "name": "C#4",
          "ticks": 22080,
          "time": 10.454535,
          "velocity": 0.7007874015748031
        },
        {
          "duration": 0.22727249999999977,
          "durationTicks": 480,
          "midi": 59,
          "name": "B3",
          "ticks": 22560,
          "time": 10.681807500000001,
          "velocity": 0.7007874015748031
        },
        {
          "duration": 0.22727249999999977,
          "durationTicks": 480,
          "midi": 63,
          "name": "D#4",
          "ticks": 23040,
          "time": 10.909080000000001,
          "velocity": 0.7007874015748031
        },
        {
          "duration": 0.6818174999999993,
          "durationTicks": 1440,
          "midi": 66,
          "name": "F#4",
          "ticks": 23520,
          "time": 11.136352500000001,
          "velocity": 0.7007874015748031
        },
        {
          "duration": 0.22727250000000154,
          "durationTicks": 480,
          "midi": 63,
          "name": "D#4",
          "ticks": 25440,
          "time": 12.0454425,
          "velocity": 0.7007874015748031
        },
        {
          "duration": 0.22727249999999977,
          "durationTicks": 480,
          "midi": 61,
          "name": "C#4",
          "ticks": 25920,
          "time": 12.272715000000002,
          "velocity": 0.7007874015748031
        },
        {
          "duration": 0.22727249999999977,
          "durationTicks": 480,
          "midi": 59,
          "name": "B3",
          "ticks": 26400,
          "time": 12.499987500000001,
          "velocity": 0.7007874015748031
        },
        {
          "duration": 0.113636249999999,
          "durationTicks": 240,
          "midi": 59,
          "name": "B3",
          "ticks": 26880,
          "time": 12.727260000000001,
          "velocity": 0.7007874015748031
        },
        {
          "duration": 0.5681812500000003,
          "durationTicks": 1200,
          "midi": 61,
          "name": "C#4",
          "ticks": 27120,
          "time": 12.84089625,
          "velocity": 0.7007874015748031
        },
        {
          "duration": 0.22727249999999977,
          "durationTicks": 480,
          "midi": 63,
          "name": "D#4",
          "ticks": 29280,
          "time": 13.863622500000002,
          "velocity": 0.7007874015748031
        },
        {
          "duration": 0.22727249999999977,
          "durationTicks": 480,
          "midi": 61,
          "name": "C#4",
          "ticks": 29760,
          "time": 14.090895000000002,
          "velocity": 0.7007874015748031
        },
        {
          "duration": 0.22727249999999977,
          "durationTicks": 480,
          "midi": 59,
          "name": "B3",
          "ticks": 30240,
          "time": 14.318167500000001,
          "velocity": 0.7007874015748031
        },
        {
          "duration": 0.22727249999999977,
          "durationTicks": 480,
          "midi": 59,
          "name": "B3",
          "ticks": 30720,
          "time": 14.545440000000001,
          "velocity": 0.7007874015748031
        },
        {
          "duration": 0.45454499999999953,
          "durationTicks": 960,
          "midi": 56,
          "name": "G#3",
          "ticks": 31200,
          "time": 14.7727125,
          "velocity": 0.7007874015748031
        },
        {
          "duration": 0.22727249999999977,
          "durationTicks": 480,
          "midi": 63,
          "name": "D#4",
          "ticks": 33120,
          "time": 15.681802500000002,
          "velocity": 0.7007874015748031
        },
        {
          "duration": 0.227272499999998,
          "durationTicks": 480,
          "midi": 61,
          "name": "C#4",
          "ticks": 33600,
          "time": 15.909075000000001,
          "velocity": 0.7007874015748031
        },
        {
          "duration": 0.22727250000000154,
          "durationTicks": 480,
          "midi": 59,
          "name": "B3",
          "ticks": 34080,
          "time": 16.1363475,
          "velocity": 0.7007874015748031
        },
        {
          "duration": 0.45454499999999953,
          "durationTicks": 960,
          "midi": 59,
          "name": "B3",
          "ticks": 34560,
          "time": 16.36362,
          "velocity": 0.7007874015748031
        },
        {
          "duration": 0.227272499999998,
          "durationTicks": 480,
          "midi": 63,
          "name": "D#4",
          "ticks": 36960,
          "time": 17.4999825,
          "velocity": 0.7007874015748031
        },
        {
          "duration": 0.22727250000000154,
          "durationTicks": 480,
          "midi": 61,
          "name": "C#4",
          "ticks": 37440,
          "time": 17.727255,
          "velocity": 0.7007874015748031
        },
        {
          "duration": 0.22727250000000154,
          "durationTicks": 480,
          "midi": 59,
          "name": "B3",
          "ticks": 37920,
          "time": 17.9545275,
          "velocity": 0.7007874015748031
        },
        {
          "duration": 0.227272499999998,
          "durationTicks": 480,
          "midi": 63,
          "name": "D#4",
          "ticks": 38400,
          "time": 18.181800000000003,
          "velocity": 0.7007874015748031
        },
        {
          "duration": 0.6818175000000011,
          "durationTicks": 1440,
          "midi": 66,
          "name": "F#4",
          "ticks": 38880,
          "time": 18.4090725,
          "velocity": 0.7007874015748031
        },
        {
          "duration": 0.22727250000000154,
          "durationTicks": 480,
          "midi": 63,
          "name": "D#4",
          "ticks": 40800,
          "time": 19.3181625,
          "velocity": 0.7007874015748031
        },
        {
          "duration": 0.22727250000000154,
          "durationTicks": 480,
          "midi": 61,
          "name": "C#4",
          "ticks": 41280,
          "time": 19.545435,
          "velocity": 0.7007874015748031
        },
        {
          "duration": 0.227272499999998,
          "durationTicks": 480,
          "midi": 59,
          "name": "B3",
          "ticks": 41760,
          "time": 19.772707500000003,
          "velocity": 0.7007874015748031
        },
        {
          "duration": 0.113636249999999,
          "durationTicks": 240,
          "midi": 59,
          "name": "B3",
          "ticks": 42240,
          "time": 19.99998,
          "velocity": 0.7007874015748031
        },
        {
          "duration": 0.5681812500000021,
          "durationTicks": 1200,
          "midi": 61,
          "name": "C#4",
          "ticks": 42480,
          "time": 20.11361625,
          "velocity": 0.7007874015748031
        },
        {
          "duration": 0.22727250000000154,
          "durationTicks": 480,
          "midi": 63,
          "name": "D#4",
          "ticks": 44640,
          "time": 21.1363425,
          "velocity": 0.7007874015748031
        },
        {
          "duration": 0.227272499999998,
          "durationTicks": 480,
          "midi": 61,
          "name": "C#4",
          "ticks": 45120,
          "time": 21.363615000000003,
          "velocity": 0.7007874015748031
        },
        {
          "duration": 0.22727250000000154,
          "durationTicks": 480,
          "midi": 59,
          "name": "B3",
          "ticks": 45600,
          "time": 21.5908875,
          "velocity": 0.7007874015748031
        },
        {
          "duration": 0.227272499999998,
          "durationTicks": 480,
          "midi": 59,
          "name": "B3",
          "ticks": 46080,
          "time": 21.818160000000002,
          "velocity": 0.7007874015748031
        },
        {
          "duration": 0.6818175000000011,
          "durationTicks": 1440,
          "midi": 61,
          "name": "C#4",
          "ticks": 46560,
          "time": 22.0454325,
          "velocity": 0.7007874015748031
        },
        {
          "duration": 0.6818174999999975,
          "durationTicks": 1440,
          "midi": 71,
          "name": "B4",
          "ticks": 49440,
          "time": 23.409067500000003,
          "velocity": 0.7007874015748031
        },
        {
          "duration": 0.22727250000000154,
          "durationTicks": 480,
          "midi": 68,
          "name": "G#4",
          "ticks": 50880,
          "time": 24.090885,
          "velocity": 0.7007874015748031
        },
        {
          "duration": 0.45454499999999953,
          "durationTicks": 960,
          "midi": 66,
          "name": "F#4",
          "ticks": 51360,
          "time": 24.3181575,
          "velocity": 0.7007874015748031
        },
        {
          "duration": 0.6818175000000011,
          "durationTicks": 1440,
          "midi": 68,
          "name": "G#4",
          "ticks": 52320,
          "time": 24.7727025,
          "velocity": 0.7007874015748031
        },
        {
          "duration": 0.22727250000000154,
          "durationTicks": 480,
          "midi": 66,
          "name": "F#4",
          "ticks": 54240,
          "time": 25.6817925,
          "velocity": 0.7007874015748031
        },
        {
          "duration": 0.113636249999999,
          "durationTicks": 240,
          "midi": 63,
          "name": "D#4",
          "ticks": 54720,
          "time": 25.909065000000002,
          "velocity": 0.7007874015748031
        },
        {
          "duration": 0.11363625000000255,
          "durationTicks": 240,
          "midi": 61,
          "name": "C#4",
          "ticks": 54960,
          "time": 26.02270125,
          "velocity": 0.7007874015748031
        },
        {
          "duration": 0.227272499999998,
          "durationTicks": 480,
          "midi": 59,
          "name": "B3",
          "ticks": 55200,
          "time": 26.136337500000003,
          "velocity": 0.7007874015748031
        },
        {
          "duration": 0.45454499999999953,
          "durationTicks": 960,
          "midi": 61,
          "name": "C#4",
          "ticks": 55680,
          "time": 26.36361,
          "velocity": 0.7007874015748031
        },
        {
          "duration": 0.22727250000000154,
          "durationTicks": 480,
          "midi": 71,
          "name": "B4",
          "ticks": 58080,
          "time": 27.499972500000002,
          "velocity": 0.7007874015748031
        },
        {
          "duration": 0.227272499999998,
          "durationTicks": 480,
          "midi": 68,
          "name": "G#4",
          "ticks": 58560,
          "time": 27.727245000000003,
          "velocity": 0.7007874015748031
        },
        {
          "duration": 0.22727250000000154,
          "durationTicks": 480,
          "midi": 71,
          "name": "B4",
          "ticks": 59040,
          "time": 27.9545175,
          "velocity": 0.7007874015748031
        },
        {
          "duration": 0.227272499999998,
          "durationTicks": 480,
          "midi": 68,
          "name": "G#4",
          "ticks": 59520,
          "time": 28.181790000000003,
          "velocity": 0.7007874015748031
        },
        {
          "duration": 0.22727250000000154,
          "durationTicks": 480,
          "midi": 66,
          "name": "F#4",
          "ticks": 60000,
          "time": 28.4090625,
          "velocity": 0.7007874015748031
        },
        {
          "duration": 0.113636249999999,
          "durationTicks": 240,
          "midi": 63,
          "name": "D#4",
          "ticks": 60480,
          "time": 28.636335000000003,
          "velocity": 0.7007874015748031
        },
        {
          "duration": 0.113636249999999,
          "durationTicks": 240,
          "midi": 61,
          "name": "C#4",
          "ticks": 60720,
          "time": 28.74997125,
          "velocity": 0.7007874015748031
        },
        {
          "duration": 0.22727250000000154,
          "durationTicks": 480,
          "midi": 59,
          "name": "B3",
          "ticks": 60960,
          "time": 28.8636075,
          "velocity": 0.7007874015748031
        },
        {
          "duration": 0.113636249999999,
          "durationTicks": 240,
          "midi": 61,
          "name": "C#4",
          "ticks": 61440,
          "time": 29.090880000000002,
          "velocity": 0.7007874015748031
        },
        {
          "duration": 0.11363625000000255,
          "durationTicks": 240,
          "midi": 63,
          "name": "D#4",
          "ticks": 61680,
          "time": 29.20451625,
          "velocity": 0.7007874015748031
        },
        {
          "duration": 0.227272499999998,
          "durationTicks": 480,
          "midi": 66,
          "name": "F#4",
          "ticks": 61920,
          "time": 29.318152500000004,
          "velocity": 0.7007874015748031
        },
        {
          "duration": 0.113636249999999,
          "durationTicks": 240,
          "midi": 63,
          "name": "D#4",
          "ticks": 62400,
          "time": 29.545425,
          "velocity": 0.7007874015748031
        },
        {
          "duration": 0.11363625000000255,
          "durationTicks": 240,
          "midi": 61,
          "name": "C#4",
          "ticks": 62640,
          "time": 29.65906125,
          "velocity": 0.7007874015748031
        },
        {
          "duration": 0.227272499999998,
          "durationTicks": 480,
          "midi": 59,
          "name": "B3",
          "ticks": 62880,
          "time": 29.772697500000003,
          "velocity": 0.7007874015748031
        },
        {
          "duration": 0.45454499999999953,
          "durationTicks": 960,
          "midi": 61,
          "name": "C#4",
          "ticks": 63360,
          "time": 29.99997,
          "velocity": 0.7007874015748031
        },
        {
          "duration": 0.6818175000000011,
          "durationTicks": 1440,
          "midi": 71,
          "name": "B4",
          "ticks": 64800,
          "time": 30.681787500000002,
          "velocity": 0.7007874015748031
        },
        {
          "duration": 0.227272499999998,
          "durationTicks": 480,
          "midi": 68,
          "name": "G#4",
          "ticks": 66240,
          "time": 31.363605000000003,
          "velocity": 0.7007874015748031
        },
        {
          "duration": 0.45454499999999953,
          "durationTicks": 960,
          "midi": 66,
          "name": "F#4",
          "ticks": 66720,
          "time": 31.5908775,
          "velocity": 0.7007874015748031
        },
        {
          "duration": 0.6818175000000011,
          "durationTicks": 1440,
          "midi": 68,
          "name": "G#4",
          "ticks": 67680,
          "time": 32.0454225,
          "velocity": 0.7007874015748031
        },
        {
          "duration": 0.2272725000000051,
          "durationTicks": 480,
          "midi": 66,
          "name": "F#4",
          "ticks": 69600,
          "time": 32.9545125,
          "velocity": 0.7007874015748031
        },
        {
          "duration": 0.113636249999999,
          "durationTicks": 240,
          "midi": 63,
          "name": "D#4",
          "ticks": 70080,
          "time": 33.181785000000005,
          "velocity": 0.7007874015748031
        },
        {
          "duration": 0.113636249999999,
          "durationTicks": 240,
          "midi": 61,
          "name": "C#4",
          "ticks": 70320,
          "time": 33.295421250000004,
          "velocity": 0.7007874015748031
        },
        {
          "duration": 0.227272499999998,
          "durationTicks": 480,
          "midi": 59,
          "name": "B3",
          "ticks": 70560,
          "time": 33.4090575,
          "velocity": 0.7007874015748031
        },
        {
          "duration": 0.4545450000000031,
          "durationTicks": 960,
          "midi": 61,
          "name": "C#4",
          "ticks": 71040,
          "time": 33.63633,
          "velocity": 0.7007874015748031
        },
        {
          "duration": 0.227272499999998,
          "durationTicks": 480,
          "midi": 71,
          "name": "B4",
          "ticks": 73440,
          "time": 34.772692500000005,
          "velocity": 0.7007874015748031
        },
        {
          "duration": 0.227272499999998,
          "durationTicks": 480,
          "midi": 68,
          "name": "G#4",
          "ticks": 73920,
          "time": 34.999965,
          "velocity": 0.7007874015748031
        },
        {
          "duration": 0.227272499999998,
          "durationTicks": 480,
          "midi": 71,
          "name": "B4",
          "ticks": 74400,
          "time": 35.2272375,
          "velocity": 0.7007874015748031
        },
        {
          "duration": 0.2272725000000051,
          "durationTicks": 480,
          "midi": 68,
          "name": "G#4",
          "ticks": 74880,
          "time": 35.45451,
          "velocity": 0.7007874015748031
        },
        {
          "duration": 0.227272499999998,
          "durationTicks": 480,
          "midi": 66,
          "name": "F#4",
          "ticks": 75360,
          "time": 35.681782500000004,
          "velocity": 0.7007874015748031
        },
        {
          "duration": 0.113636249999999,
          "durationTicks": 240,
          "midi": 63,
          "name": "D#4",
          "ticks": 75840,
          "time": 35.909055,
          "velocity": 0.7007874015748031
        },
        {
          "duration": 0.113636249999999,
          "durationTicks": 240,
          "midi": 61,
          "name": "C#4",
          "ticks": 76080,
          "time": 36.02269125,
          "velocity": 0.7007874015748031
        },
        {
          "duration": 0.2272725000000051,
          "durationTicks": 480,
          "midi": 59,
          "name": "B3",
          "ticks": 76320,
          "time": 36.1363275,
          "velocity": 0.7007874015748031
        },
        {
          "duration": 0.113636249999999,
          "durationTicks": 240,
          "midi": 61,
          "name": "C#4",
          "ticks": 76800,
          "time": 36.363600000000005,
          "velocity": 0.7007874015748031
        },
        {
          "duration": 0.113636249999999,
          "durationTicks": 240,
          "midi": 63,
          "name": "D#4",
          "ticks": 77040,
          "time": 36.477236250000004,
          "velocity": 0.7007874015748031
        },
        {
          "duration": 0.227272499999998,
          "durationTicks": 480,
          "midi": 66,
          "name": "F#4",
          "ticks": 77280,
          "time": 36.5908725,
          "velocity": 0.7007874015748031
        },
        {
          "duration": 0.113636249999999,
          "durationTicks": 240,
          "midi": 63,
          "name": "D#4",
          "ticks": 77760,
          "time": 36.818145,
          "velocity": 0.7007874015748031
        },
        {
          "duration": 0.113636249999999,
          "durationTicks": 240,
          "midi": 61,
          "name": "C#4",
          "ticks": 78000,
          "time": 36.93178125,
          "velocity": 0.7007874015748031
        },
        {
          "duration": 0.2272725000000051,
          "durationTicks": 480,
          "midi": 59,
          "name": "B3",
          "ticks": 78240,
          "time": 37.0454175,
          "velocity": 0.7007874015748031
        },
        {
          "duration": 0.454544999999996,
          "durationTicks": 960,
          "midi": 61,
          "name": "C#4",
          "ticks": 78720,
          "time": 37.272690000000004,
          "velocity": 0.7007874015748031
        },
        {
          "duration": 0.227272499999998,
          "durationTicks": 480,
          "midi": 68,
          "name": "G#4",
          "ticks": 111360,
          "time": 52.72722,
          "velocity": 0.7007874015748031
        },
        {
          "duration": 0.2272725000000051,
          "durationTicks": 480,
          "midi": 68,
          "name": "G#4",
          "ticks": 111840,
          "time": 52.9544925,
          "velocity": 0.7007874015748031
        },
        {
          "duration": 0.227272499999998,
          "durationTicks": 480,
          "midi": 68,
          "name": "G#4",
          "ticks": 112320,
          "time": 53.181765000000006,
          "velocity": 0.7007874015748031
        },
        {
          "duration": 0.227272499999998,
          "durationTicks": 480,
          "midi": 63,
          "name": "D#4",
          "ticks": 112800,
          "time": 53.409037500000004,
          "velocity": 0.7007874015748031
        },
        {
          "duration": 0.2272725000000051,
          "durationTicks": 480,
          "midi": 66,
          "name": "F#4",
          "ticks": 113280,
          "time": 53.63631,
          "velocity": 0.7007874015748031
        },
        {
          "duration": 0.227272499999998,
          "durationTicks": 480,
          "midi": 66,
          "name": "F#4",
          "ticks": 113760,
          "time": 53.86358250000001,
          "velocity": 0.7007874015748031
        },
        {
          "duration": 0.454544999999996,
          "durationTicks": 960,
          "midi": 66,
          "name": "F#4",
          "ticks": 114240,
          "time": 54.090855000000005,
          "velocity": 0.7007874015748031
        },
        {
          "duration": 0.2272725000000051,
          "durationTicks": 480,
          "midi": 66,
          "name": "F#4",
          "ticks": 115200,
          "time": 54.5454,
          "velocity": 0.7007874015748031
        },
        {
          "duration": 0.113636249999999,
          "durationTicks": 240,
          "midi": 66,
          "name": "F#4",
          "ticks": 115680,
          "time": 54.772672500000006,
          "velocity": 0.7007874015748031
        },
        {
          "duration": 0.113636249999999,
          "durationTicks": 240,
          "midi": 66,
          "name": "F#4",
          "ticks": 115920,
          "time": 54.886308750000005,
          "velocity": 0.7007874015748031
        },
        {
          "duration": 0.227272499999998,
          "durationTicks": 480,
          "midi": 66,
          "name": "F#4",
          "ticks": 116160,
          "time": 54.999945000000004,
          "velocity": 0.7007874015748031
        },
        {
          "duration": 0.2272725000000051,
          "durationTicks": 480,
          "midi": 66,
          "name": "F#4",
          "ticks": 116640,
          "time": 55.2272175,
          "velocity": 0.7007874015748031
        },
        {
          "duration": 0.227272499999998,
          "durationTicks": 480,
          "midi": 66,
          "name": "F#4",
          "ticks": 117120,
          "time": 55.45449000000001,
          "velocity": 0.7007874015748031
        },
        {
          "duration": 0.227272499999998,
          "durationTicks": 480,
          "midi": 66,
          "name": "F#4",
          "ticks": 117600,
          "time": 55.681762500000005,
          "velocity": 0.7007874015748031
        },
        {
          "duration": 0.4545450000000031,
          "durationTicks": 960,
          "midi": 66,
          "name": "F#4",
          "ticks": 118080,
          "time": 55.909035,
          "velocity": 0.7007874015748031
        },
        {
          "duration": 0.227272499999998,
          "durationTicks": 480,
          "midi": 66,
          "name": "F#4",
          "ticks": 119040,
          "time": 56.363580000000006,
          "velocity": 0.7007874015748031
        },
        {
          "duration": 0.227272499999998,
          "durationTicks": 480,
          "midi": 66,
          "name": "F#4",
          "ticks": 119520,
          "time": 56.590852500000004,
          "velocity": 0.7007874015748031
        },
        {
          "duration": 0.2272725000000051,
          "durationTicks": 480,
          "midi": 66,
          "name": "F#4",
          "ticks": 120000,
          "time": 56.818125,
          "velocity": 0.7007874015748031
        },
        {
          "duration": 0.227272499999998,
          "durationTicks": 480,
          "midi": 66,
          "name": "F#4",
          "ticks": 120480,
          "time": 57.04539750000001,
          "velocity": 0.7007874015748031
        },
        {
          "duration": 0.227272499999998,
          "durationTicks": 480,
          "midi": 66,
          "name": "F#4",
          "ticks": 120960,
          "time": 57.272670000000005,
          "velocity": 0.7007874015748031
        },
        {
          "duration": 0.227272499999998,
          "durationTicks": 480,
          "midi": 66,
          "name": "F#4",
          "ticks": 121440,
          "time": 57.4999425,
          "velocity": 0.7007874015748031
        },
        {
          "duration": 0.4545450000000031,
          "durationTicks": 960,
          "midi": 66,
          "name": "F#4",
          "ticks": 121920,
          "time": 57.727215,
          "velocity": 0.7007874015748031
        },
        {
          "duration": 0.227272499999998,
          "durationTicks": 480,
          "midi": 66,
          "name": "F#4",
          "ticks": 122880,
          "time": 58.181760000000004,
          "velocity": 0.7007874015748031
        },
        {
          "duration": 0.113636249999999,
          "durationTicks": 240,
          "midi": 66,
          "name": "F#4",
          "ticks": 123360,
          "time": 58.4090325,
          "velocity": 0.7007874015748031
        },
        {
          "duration": 0.1136362500000061,
          "durationTicks": 240,
          "midi": 66,
          "name": "F#4",
          "ticks": 123600,
          "time": 58.52266875,
          "velocity": 0.7007874015748031
        },
        {
          "duration": 0.227272499999998,
          "durationTicks": 480,
          "midi": 66,
          "name": "F#4",
          "ticks": 123840,
          "time": 58.63630500000001,
          "velocity": 0.7007874015748031
        },
        {
          "duration": 0.227272499999998,
          "durationTicks": 480,
          "midi": 66,
          "name": "F#4",
          "ticks": 124320,
          "time": 58.863577500000005,
          "velocity": 0.7007874015748031
        },
        {
          "duration": 0.227272499999998,
          "durationTicks": 480,
          "midi": 66,
          "name": "F#4",
          "ticks": 124800,
          "time": 59.09085,
          "velocity": 0.7007874015748031
        },
        {
          "duration": 0.2272725000000051,
          "durationTicks": 480,
          "midi": 66,
          "name": "F#4",
          "ticks": 125280,
          "time": 59.3181225,
          "velocity": 0.7007874015748031
        },
        {
          "duration": 0.454544999999996,
          "durationTicks": 960,
          "midi": 66,
          "name": "F#4",
          "ticks": 125760,
          "time": 59.545395000000006,
          "velocity": 0.7007874015748031
        },
        {
          "duration": 0.2272725000000051,
          "durationTicks": 480,
          "midi": 68,
          "name": "G#4",
          "ticks": 126720,
          "time": 59.99994,
          "velocity": 0.7007874015748031
        },
        {
          "duration": 0.227272499999998,
          "durationTicks": 480,
          "midi": 68,
          "name": "G#4",
          "ticks": 127200,
          "time": 60.22721250000001,
          "velocity": 0.7007874015748031
        },
        {
          "duration": 0.227272499999998,
          "durationTicks": 480,
          "midi": 68,
          "name": "G#4",
          "ticks": 127680,
          "time": 60.454485000000005,
          "velocity": 0.7007874015748031
        },
        {
          "duration": 0.227272499999998,
          "durationTicks": 480,
          "midi": 63,
          "name": "D#4",
          "ticks": 128160,
          "time": 60.6817575,
          "velocity": 0.7007874015748031
        },
        {
          "duration": 0.2272725000000051,
          "durationTicks": 480,
          "midi": 66,
          "name": "F#4",
          "ticks": 128640,
          "time": 60.90903,
          "velocity": 0.7007874015748031
        },
        {
          "duration": 0.227272499999998,
          "durationTicks": 480,
          "midi": 66,
          "name": "F#4",
          "ticks": 129120,
          "time": 61.136302500000006,
          "velocity": 0.7007874015748031
        },
        {
          "duration": 0.4545450000000031,
          "durationTicks": 960,
          "midi": 66,
          "name": "F#4",
          "ticks": 129600,
          "time": 61.363575000000004,
          "velocity": 0.7007874015748031
        },
        {
          "duration": 0.227272499999998,
          "durationTicks": 480,
          "midi": 66,
          "name": "F#4",
          "ticks": 130560,
          "time": 61.81812000000001,
          "velocity": 0.7007874015748031
        },
        {
          "duration": 0.113636249999999,
          "durationTicks": 240,
          "midi": 66,
          "name": "F#4",
          "ticks": 131040,
          "time": 62.045392500000005,
          "velocity": 0.7007874015748031
        },
        {
          "duration": 0.113636249999999,
          "durationTicks": 240,
          "midi": 66,
          "name": "F#4",
          "ticks": 131280,
          "time": 62.159028750000004,
          "velocity": 0.7007874015748031
        },
        {
          "duration": 0.227272499999998,
          "durationTicks": 480,
          "midi": 66,
          "name": "F#4",
          "ticks": 131520,
          "time": 62.272665,
          "velocity": 0.7007874015748031
        },
        {
          "duration": 0.2272725000000051,
          "durationTicks": 480,
          "midi": 66,
          "name": "F#4",
          "ticks": 132000,
          "time": 62.4999375,
          "velocity": 0.7007874015748031
        },
        {
          "duration": 0.227272499999998,
          "durationTicks": 480,
          "midi": 66,
          "name": "F#4",
          "ticks": 132480,
          "time": 62.72721000000001,
          "velocity": 0.7007874015748031
        },
        {
          "duration": 0.227272499999998,
          "durationTicks": 480,
          "midi": 66,
          "name": "F#4",
          "ticks": 132960,
          "time": 62.954482500000005,
          "velocity": 0.7007874015748031
        },
        {
          "duration": 0.4545450000000031,
          "durationTicks": 960,
          "midi": 66,
          "name": "F#4",
          "ticks": 133440,
          "time": 63.181755,
          "velocity": 0.7007874015748031
        },
        {
          "duration": 0.227272499999998,
          "durationTicks": 480,
          "midi": 66,
          "name": "F#4",
          "ticks": 134400,
          "time": 63.636300000000006,
          "velocity": 0.7007874015748031
        },
        {
          "duration": 0.227272499999998,
          "durationTicks": 480,
          "midi": 66,
          "name": "F#4",
          "ticks": 134880,
          "time": 63.863572500000004,
          "velocity": 0.7007874015748031
        },
        {
          "duration": 0.227272499999998,
          "durationTicks": 480,
          "midi": 66,
          "name": "F#4",
          "ticks": 135360,
          "time": 64.090845,
          "velocity": 0.7007874015748031
        },
        {
          "duration": 0.227272499999998,
          "durationTicks": 480,
          "midi": 66,
          "name": "F#4",
          "ticks": 135840,
          "time": 64.3181175,
          "velocity": 0.7007874015748031
        },
        {
          "duration": 0.2272725000000122,
          "durationTicks": 480,
          "midi": 66,
          "name": "F#4",
          "ticks": 136320,
          "time": 64.54539,
          "velocity": 0.7007874015748031
        },
        {
          "duration": 0.227272499999998,
          "durationTicks": 480,
          "midi": 66,
          "name": "F#4",
          "ticks": 136800,
          "time": 64.77266250000001,
          "velocity": 0.7007874015748031
        },
        {
          "duration": 0.454544999999996,
          "durationTicks": 960,
          "midi": 66,
          "name": "F#4",
          "ticks": 137280,
          "time": 64.99993500000001,
          "velocity": 0.7007874015748031
        },
        {
          "duration": 0.227272499999998,
          "durationTicks": 480,
          "midi": 66,
          "name": "F#4",
          "ticks": 138240,
          "time": 65.45448,
          "velocity": 0.7007874015748031
        },
        {
          "duration": 0.113636249999999,
          "durationTicks": 240,
          "midi": 66,
          "name": "F#4",
          "ticks": 138720,
          "time": 65.6817525,
          "velocity": 0.7007874015748031
        },
        {
          "duration": 0.113636249999999,
          "durationTicks": 240,
          "midi": 66,
          "name": "F#4",
          "ticks": 138960,
          "time": 65.79538875,
          "velocity": 0.7007874015748031
        },
        {
          "duration": 0.227272499999998,
          "durationTicks": 480,
          "midi": 66,
          "name": "F#4",
          "ticks": 139200,
          "time": 65.909025,
          "velocity": 0.7007874015748031
        },
        {
          "duration": 0.2272725000000122,
          "durationTicks": 480,
          "midi": 66,
          "name": "F#4",
          "ticks": 139680,
          "time": 66.1362975,
          "velocity": 0.7007874015748031
        },
        {
          "duration": 0.227272499999998,
          "durationTicks": 480,
          "midi": 66,
          "name": "F#4",
          "ticks": 140160,
          "time": 66.36357000000001,
          "velocity": 0.7007874015748031
        },
        {
          "duration": 0.227272499999998,
          "durationTicks": 480,
          "midi": 66,
          "name": "F#4",
          "ticks": 140640,
          "time": 66.59084250000001,
          "velocity": 0.7007874015748031
        },
        {
          "duration": 0.454544999999996,
          "durationTicks": 960,
          "midi": 66,
          "name": "F#4",
          "ticks": 141120,
          "time": 66.818115,
          "velocity": 0.7007874015748031
        },
        {
          "duration": 0.227272499999998,
          "durationTicks": 480,
          "midi": 59,
          "name": "B3",
          "ticks": 142080,
          "time": 67.27266,
          "velocity": 0.7007874015748031
        },
        {
          "duration": 0.4545450000000102,
          "durationTicks": 960,
          "midi": 56,
          "name": "G#3",
          "ticks": 142560,
          "time": 67.4999325,
          "velocity": 0.7007874015748031
        },
        {
          "duration": 0.227272499999998,
          "durationTicks": 480,
          "midi": 63,
          "name": "D#4",
          "ticks": 144480,
          "time": 68.4090225,
          "velocity": 0.7007874015748031
        },
        {
          "duration": 0.227272499999998,
          "durationTicks": 480,
          "midi": 61,
          "name": "C#4",
          "ticks": 144960,
          "time": 68.636295,
          "velocity": 0.7007874015748031
        },
        {
          "duration": 0.227272499999998,
          "durationTicks": 480,
          "midi": 59,
          "name": "B3",
          "ticks": 145440,
          "time": 68.8635675,
          "velocity": 0.7007874015748031
        },
        {
          "duration": 0.227272499999998,
          "durationTicks": 480,
          "midi": 63,
          "name": "D#4",
          "ticks": 145920,
          "time": 69.09084,
          "velocity": 0.7007874015748031
        },
        {
          "duration": 0.6818175000000082,
          "durationTicks": 1440,
          "midi": 66,
          "name": "F#4",
          "ticks": 146400,
          "time": 69.3181125,
          "velocity": 0.7007874015748031
        },
        {
          "duration": 0.227272499999998,
          "durationTicks": 480,
          "midi": 63,
          "name": "D#4",
          "ticks": 148320,
          "time": 70.2272025,
          "velocity": 0.7007874015748031
        },
        {
          "duration": 0.227272499999998,
          "durationTicks": 480,
          "midi": 61,
          "name": "C#4",
          "ticks": 148800,
          "time": 70.454475,
          "velocity": 0.7007874015748031
        },
        {
          "duration": 0.227272499999998,
          "durationTicks": 480,
          "midi": 59,
          "name": "B3",
          "ticks": 149280,
          "time": 70.6817475,
          "velocity": 0.7007874015748031
        },
        {
          "duration": 0.1136362500000132,
          "durationTicks": 240,
          "midi": 59,
          "name": "B3",
          "ticks": 149760,
          "time": 70.90902,
          "velocity": 0.7007874015748031
        },
        {
          "duration": 0.568181249999995,
          "durationTicks": 1200,
          "midi": 61,
          "name": "C#4",
          "ticks": 150000,
          "time": 71.02265625000001,
          "velocity": 0.7007874015748031
        },
        {
          "duration": 0.227272499999998,
          "durationTicks": 480,
          "midi": 63,
          "name": "D#4",
          "ticks": 152160,
          "time": 72.0453825,
          "velocity": 0.7007874015748031
        },
        {
          "duration": 0.227272499999998,
          "durationTicks": 480,
          "midi": 61,
          "name": "C#4",
          "ticks": 152640,
          "time": 72.272655,
          "velocity": 0.7007874015748031
        },
        {
          "duration": 0.2272725000000122,
          "durationTicks": 480,
          "midi": 59,
          "name": "B3",
          "ticks": 153120,
          "time": 72.4999275,
          "velocity": 0.7007874015748031
        },
        {
          "duration": 0.227272499999998,
          "durationTicks": 480,
          "midi": 59,
          "name": "B3",
          "ticks": 153600,
          "time": 72.72720000000001,
          "velocity": 0.7007874015748031
        },
        {
          "duration": 0.454544999999996,
          "durationTicks": 960,
          "midi": 56,
          "name": "G#3",
          "ticks": 154080,
          "time": 72.95447250000001,
          "velocity": 0.7007874015748031
        },
        {
          "duration": 0.227272499999998,
          "durationTicks": 480,
          "midi": 63,
          "name": "D#4",
          "ticks": 156000,
          "time": 73.8635625,
          "velocity": 0.7007874015748031
        },
        {
          "duration": 0.2272725000000122,
          "durationTicks": 480,
          "midi": 61,
          "name": "C#4",
          "ticks": 156480,
          "time": 74.090835,
          "velocity": 0.7007874015748031
        },
        {
          "duration": 0.227272499999998,
          "durationTicks": 480,
          "midi": 59,
          "name": "B3",
          "ticks": 156960,
          "time": 74.31810750000001,
          "velocity": 0.7007874015748031
        },
        {
          "duration": 0.454544999999996,
          "durationTicks": 960,
          "midi": 59,
          "name": "B3",
          "ticks": 157440,
          "time": 74.54538000000001,
          "velocity": 0.7007874015748031
        },
        {
          "duration": 0.2272725000000122,
          "durationTicks": 480,
          "midi": 63,
          "name": "D#4",
          "ticks": 159840,
          "time": 75.6817425,
          "velocity": 0.7007874015748031
        },
        {
          "duration": 0.227272499999998,
          "durationTicks": 480,
          "midi": 61,
          "name": "C#4",
          "ticks": 160320,
          "time": 75.90901500000001,
          "velocity": 0.7007874015748031
        },
        {
          "duration": 0.227272499999998,
          "durationTicks": 480,
          "midi": 59,
          "name": "B3",
          "ticks": 160800,
          "time": 76.13628750000001,
          "velocity": 0.7007874015748031
        },
        {
          "duration": 0.227272499999998,
          "durationTicks": 480,
          "midi": 63,
          "name": "D#4",
          "ticks": 161280,
          "time": 76.36356,
          "velocity": 0.7007874015748031
        },
        {
          "duration": 0.681817499999994,
          "durationTicks": 1440,
          "midi": 66,
          "name": "F#4",
          "ticks": 161760,
          "time": 76.5908325,
          "velocity": 0.7007874015748031
        },
        {
          "duration": 0.227272499999998,
          "durationTicks": 480,
          "midi": 63,
          "name": "D#4",
          "ticks": 163680,
          "time": 77.49992250000001,
          "velocity": 0.7007874015748031
        },
        {
          "duration": 0.227272499999998,
          "durationTicks": 480,
          "midi": 61,
          "name": "C#4",
          "ticks": 164160,
          "time": 77.72719500000001,
          "velocity": 0.7007874015748031
        },
        {
          "duration": 0.227272499999998,
          "durationTicks": 480,
          "midi": 59,
          "name": "B3",
          "ticks": 164640,
          "time": 77.9544675,
          "velocity": 0.7007874015748031
        },
        {
          "duration": 0.113636249999999,
          "durationTicks": 240,
          "midi": 59,
          "name": "B3",
          "ticks": 165120,
          "time": 78.18174,
          "velocity": 0.7007874015748031
        },
        {
          "duration": 0.568181249999995,
          "durationTicks": 1200,
          "midi": 61,
          "name": "C#4",
          "ticks": 165360,
          "time": 78.29537625,
          "velocity": 0.7007874015748031
        },
        {
          "duration": 0.227272499999998,
          "durationTicks": 480,
          "midi": 63,
          "name": "D#4",
          "ticks": 167520,
          "time": 79.31810250000001,
          "velocity": 0.7007874015748031
        },
        {
          "duration": 0.227272499999998,
          "durationTicks": 480,
          "midi": 61,
          "name": "C#4",
          "ticks": 168000,
          "time": 79.545375,
          "velocity": 0.7007874015748031
        },
        {
          "duration": 0.227272499999998,
          "durationTicks": 480,
          "midi": 59,
          "name": "B3",
          "ticks": 168480,
          "time": 79.7726475,
          "velocity": 0.7007874015748031
        },
        {
          "duration": 0.227272499999998,
          "durationTicks": 480,
          "midi": 59,
          "name": "B3",
          "ticks": 168960,
          "time": 79.99992,
          "velocity": 0.7007874015748031
        },
        {
          "duration": 0.4545450000000102,
          "durationTicks": 960,
          "midi": 61,
          "name": "C#4",
          "ticks": 169440,
          "time": 80.2271925,
          "velocity": 0.7007874015748031
        },
        {
          "duration": 0.227272499999998,
          "durationTicks": 480,
          "midi": 63,
          "name": "D#4",
          "ticks": 171360,
          "time": 81.13628250000001,
          "velocity": 0.7007874015748031
        },
        {
          "duration": 0.227272499999998,
          "durationTicks": 480,
          "midi": 61,
          "name": "C#4",
          "ticks": 171840,
          "time": 81.363555,
          "velocity": 0.7007874015748031
        },
        {
          "duration": 0.227272499999998,
          "durationTicks": 480,
          "midi": 59,
          "name": "B3",
          "ticks": 172320,
          "time": 81.5908275,
          "velocity": 0.7007874015748031
        },
        {
          "duration": 0.227272499999998,
          "durationTicks": 480,
          "midi": 59,
          "name": "B3",
          "ticks": 172800,
          "time": 81.8181,
          "velocity": 0.7007874015748031
        },
        {
          "duration": 0.4545450000000102,
          "durationTicks": 960,
          "midi": 56,
          "name": "G#3",
          "ticks": 173280,
          "time": 82.0453725,
          "velocity": 0.7007874015748031
        },
        {
          "duration": 0.227272499999998,
          "durationTicks": 480,
          "midi": 63,
          "name": "D#4",
          "ticks": 175200,
          "time": 82.9544625,
          "velocity": 0.7007874015748031
        },
        {
          "duration": 0.227272499999998,
          "durationTicks": 480,
          "midi": 61,
          "name": "C#4",
          "ticks": 175680,
          "time": 83.181735,
          "velocity": 0.7007874015748031
        },
        {
          "duration": 0.227272499999998,
          "durationTicks": 480,
          "midi": 59,
          "name": "B3",
          "ticks": 176160,
          "time": 83.4090075,
          "velocity": 0.7007874015748031
        },
        {
          "duration": 0.2272725000000122,
          "durationTicks": 480,
          "midi": 63,
          "name": "D#4",
          "ticks": 176640,
          "time": 83.63628,
          "velocity": 0.7007874015748031
        },
        {
          "duration": 0.681817499999994,
          "durationTicks": 1440,
          "midi": 66,
          "name": "F#4",
          "ticks": 177120,
          "time": 83.86355250000001,
          "velocity": 0.7007874015748031
        },
        {
          "duration": 0.227272499999998,
          "durationTicks": 480,
          "midi": 63,
          "name": "D#4",
          "ticks": 179040,
          "time": 84.7726425,
          "velocity": 0.7007874015748031
        },
        {
          "duration": 0.227272499999998,
          "durationTicks": 480,
          "midi": 61,
          "name": "C#4",
          "ticks": 179520,
          "time": 84.999915,
          "velocity": 0.7007874015748031
        },
        {
          "duration": 0.2272725000000122,
          "durationTicks": 480,
          "midi": 59,
          "name": "B3",
          "ticks": 180000,
          "time": 85.2271875,
          "velocity": 0.7007874015748031
        },
        {
          "duration": 0.113636249999999,
          "durationTicks": 240,
          "midi": 59,
          "name": "B3",
          "ticks": 180480,
          "time": 85.45446000000001,
          "velocity": 0.7007874015748031
        },
        {
          "duration": 0.568181249999995,
          "durationTicks": 1200,
          "midi": 61,
          "name": "C#4",
          "ticks": 180720,
          "time": 85.56809625000001,
          "velocity": 0.7007874015748031
        },
        {
          "duration": 0.227272499999998,
          "durationTicks": 480,
          "midi": 63,
          "name": "D#4",
          "ticks": 182880,
          "time": 86.5908225,
          "velocity": 0.7007874015748031
        },
        {
          "duration": 0.2272725000000122,
          "durationTicks": 480,
          "midi": 61,
          "name": "C#4",
          "ticks": 183360,
          "time": 86.818095,
          "velocity": 0.7007874015748031
        },
        {
          "duration": 0.227272499999998,
          "durationTicks": 480,
          "midi": 59,
          "name": "B3",
          "ticks": 183840,
          "time": 87.04536750000001,
          "velocity": 0.7007874015748031
        },
        {
          "duration": 0.227272499999998,
          "durationTicks": 480,
          "midi": 59,
          "name": "B3",
          "ticks": 184320,
          "time": 87.27264000000001,
          "velocity": 0.7007874015748031
        },
        {
          "duration": 0.454544999999996,
          "durationTicks": 960,
          "midi": 56,
          "name": "G#3",
          "ticks": 184800,
          "time": 87.49991250000001,
          "velocity": 0.7007874015748031
        },
        {
          "duration": 0.2272725000000122,
          "durationTicks": 480,
          "midi": 63,
          "name": "D#4",
          "ticks": 186720,
          "time": 88.4090025,
          "velocity": 0.7007874015748031
        },
        {
          "duration": 0.227272499999998,
          "durationTicks": 480,
          "midi": 61,
          "name": "C#4",
          "ticks": 187200,
          "time": 88.63627500000001,
          "velocity": 0.7007874015748031
        },
        {
          "duration": 0.227272499999998,
          "durationTicks": 480,
          "midi": 59,
          "name": "B3",
          "ticks": 187680,
          "time": 88.86354750000001,
          "velocity": 0.7007874015748031
        },
        {
          "duration": 0.454544999999996,
          "durationTicks": 960,
          "midi": 59,
          "name": "B3",
          "ticks": 188160,
          "time": 89.09082000000001,
          "velocity": 0.7007874015748031
        },
        {
          "duration": 0.227272499999998,
          "durationTicks": 480,
          "midi": 63,
          "name": "D#4",
          "ticks": 190560,
          "time": 90.22718250000001,
          "velocity": 0.7007874015748031
        },
        {
          "duration": 0.227272499999998,
          "durationTicks": 480,
          "midi": 61,
          "name": "C#4",
          "ticks": 191040,
          "time": 90.45445500000001,
          "velocity": 0.7007874015748031
        },
        {
          "duration": 0.227272499999998,
          "durationTicks": 480,
          "midi": 59,
          "name": "B3",
          "ticks": 191520,
          "time": 90.68172750000001,
          "velocity": 0.7007874015748031
        },
        {
          "duration": 0.227272499999998,
          "durationTicks": 480,
          "midi": 63,
          "name": "D#4",
          "ticks": 192000,
          "time": 90.909,
          "velocity": 0.7007874015748031
        },
        {
          "duration": 0.6818175000000082,
          "durationTicks": 1440,
          "midi": 66,
          "name": "F#4",
          "ticks": 192480,
          "time": 91.1362725,
          "velocity": 0.7007874015748031
        },
        {
          "duration": 0.227272499999998,
          "durationTicks": 480,
          "midi": 63,
          "name": "D#4",
          "ticks": 194400,
          "time": 92.04536250000001,
          "velocity": 0.7007874015748031
        },
        {
          "duration": 0.227272499999998,
          "durationTicks": 480,
          "midi": 61,
          "name": "C#4",
          "ticks": 194880,
          "time": 92.27263500000001,
          "velocity": 0.7007874015748031
        },
        {
          "duration": 0.227272499999998,
          "durationTicks": 480,
          "midi": 59,
          "name": "B3",
          "ticks": 195360,
          "time": 92.4999075,
          "velocity": 0.7007874015748031
        },
        {
          "duration": 0.113636249999999,
          "durationTicks": 240,
          "midi": 59,
          "name": "B3",
          "ticks": 195840,
          "time": 92.72718,
          "velocity": 0.7007874015748031
        },
        {
          "duration": 0.5681812500000092,
          "durationTicks": 1200,
          "midi": 61,
          "name": "C#4",
          "ticks": 196080,
          "time": 92.84081625,
          "velocity": 0.7007874015748031
        },
        {
          "duration": 0.227272499999998,
          "durationTicks": 480,
          "midi": 63,
          "name": "D#4",
          "ticks": 198240,
          "time": 93.86354250000001,
          "velocity": 0.7007874015748031
        },
        {
          "duration": 0.227272499999998,
          "durationTicks": 480,
          "midi": 61,
          "name": "C#4",
          "ticks": 198720,
          "time": 94.090815,
          "velocity": 0.7007874015748031
        },
        {
          "duration": 0.227272499999998,
          "durationTicks": 480,
          "midi": 59,
          "name": "B3",
          "ticks": 199200,
          "time": 94.3180875,
          "velocity": 0.7007874015748031
        },
        {
          "duration": 0.227272499999998,
          "durationTicks": 480,
          "midi": 59,
          "name": "B3",
          "ticks": 199680,
          "time": 94.54536,
          "velocity": 0.7007874015748031
        },
        {
          "duration": 0.6818175000000082,
          "durationTicks": 1440,
          "midi": 61,
          "name": "C#4",
          "ticks": 200160,
          "time": 94.7726325,
          "velocity": 0.7007874015748031
        },
        {
          "duration": 0.6818175000000082,
          "durationTicks": 1440,
          "midi": 71,
          "name": "B4",
          "ticks": 203040,
          "time": 96.1362675,
          "velocity": 0.7007874015748031
        },
        {
          "duration": 0.227272499999998,
          "durationTicks": 480,
          "midi": 68,
          "name": "G#4",
          "ticks": 204480,
          "time": 96.81808500000001,
          "velocity": 0.7007874015748031
        },
        {
          "duration": 0.454544999999996,
          "durationTicks": 960,
          "midi": 66,
          "name": "F#4",
          "ticks": 204960,
          "time": 97.04535750000001,
          "velocity": 0.7007874015748031
        },
        {
          "duration": 0.6818175000000082,
          "durationTicks": 1440,
          "midi": 68,
          "name": "G#4",
          "ticks": 205920,
          "time": 97.4999025,
          "velocity": 0.7007874015748031
        },
        {
          "duration": 0.227272499999998,
          "durationTicks": 480,
          "midi": 66,
          "name": "F#4",
          "ticks": 208320,
          "time": 98.63626500000001,
          "velocity": 0.7007874015748031
        },
        {
          "duration": 0.113636249999999,
          "durationTicks": 240,
          "midi": 63,
          "name": "D#4",
          "ticks": 208800,
          "time": 98.8635375,
          "velocity": 0.7007874015748031
        },
        {
          "duration": 0.113636249999999,
          "durationTicks": 240,
          "midi": 61,
          "name": "C#4",
          "ticks": 209040,
          "time": 98.97717375,
          "velocity": 0.7007874015748031
        },
        {
          "duration": 0.227272499999998,
          "durationTicks": 480,
          "midi": 59,
          "name": "B3",
          "ticks": 209280,
          "time": 99.09081,
          "velocity": 0.7007874015748031
        },
        {
          "duration": 0.4545450000000102,
          "durationTicks": 960,
          "midi": 61,
          "name": "C#4",
          "ticks": 209760,
          "time": 99.3180825,
          "velocity": 0.7007874015748031
        },
        {
          "duration": 0.227272499999998,
          "durationTicks": 480,
          "midi": 71,
          "name": "B4",
          "ticks": 211680,
          "time": 100.22717250000001,
          "velocity": 0.7007874015748031
        },
        {
          "duration": 0.227272499999998,
          "durationTicks": 480,
          "midi": 68,
          "name": "G#4",
          "ticks": 212160,
          "time": 100.454445,
          "velocity": 0.7007874015748031
        },
        {
          "duration": 0.227272499999998,
          "durationTicks": 480,
          "midi": 71,
          "name": "B4",
          "ticks": 212640,
          "time": 100.6817175,
          "velocity": 0.7007874015748031
        },
        {
          "duration": 0.227272499999998,
          "durationTicks": 480,
          "midi": 68,
          "name": "G#4",
          "ticks": 213120,
          "time": 100.90899,
          "velocity": 0.7007874015748031
        },
        {
          "duration": 0.2272725000000122,
          "durationTicks": 480,
          "midi": 66,
          "name": "F#4",
          "ticks": 213600,
          "time": 101.1362625,
          "velocity": 0.7007874015748031
        },
        {
          "duration": 0.113636249999999,
          "durationTicks": 240,
          "midi": 63,
          "name": "D#4",
          "ticks": 214080,
          "time": 101.36353500000001,
          "velocity": 0.7007874015748031
        },
        {
          "duration": 0.113636249999999,
          "durationTicks": 240,
          "midi": 61,
          "name": "C#4",
          "ticks": 214320,
          "time": 101.47717125000001,
          "velocity": 0.7007874015748031
        },
        {
          "duration": 0.227272499999998,
          "durationTicks": 480,
          "midi": 59,
          "name": "B3",
          "ticks": 214560,
          "time": 101.59080750000001,
          "velocity": 0.7007874015748031
        },
        {
          "duration": 0.113636249999999,
          "durationTicks": 240,
          "midi": 61,
          "name": "C#4",
          "ticks": 215040,
          "time": 101.81808000000001,
          "velocity": 0.7007874015748031
        },
        {
          "duration": 0.113636249999999,
          "durationTicks": 240,
          "midi": 63,
          "name": "D#4",
          "ticks": 215280,
          "time": 101.93171625000001,
          "velocity": 0.7007874015748031
        },
        {
          "duration": 0.227272499999998,
          "durationTicks": 480,
          "midi": 66,
          "name": "F#4",
          "ticks": 215520,
          "time": 102.0453525,
          "velocity": 0.7007874015748031
        },
        {
          "duration": 0.113636249999999,
          "durationTicks": 240,
          "midi": 63,
          "name": "D#4",
          "ticks": 216000,
          "time": 102.272625,
          "velocity": 0.7007874015748031
        },
        {
          "duration": 0.113636249999999,
          "durationTicks": 240,
          "midi": 61,
          "name": "C#4",
          "ticks": 216240,
          "time": 102.38626125,
          "velocity": 0.7007874015748031
        },
        {
          "duration": 0.227272499999998,
          "durationTicks": 480,
          "midi": 59,
          "name": "B3",
          "ticks": 216480,
          "time": 102.4998975,
          "velocity": 0.7007874015748031
        },
        {
          "duration": 0.4545450000000102,
          "durationTicks": 960,
          "midi": 61,
          "name": "C#4",
          "ticks": 216960,
          "time": 102.72717,
          "velocity": 0.7007874015748031
        },
        {
          "duration": 0.681817499999994,
          "durationTicks": 1440,
          "midi": 71,
          "name": "B4",
          "ticks": 218400,
          "time": 103.40898750000001,
          "velocity": 0.7007874015748031
        },
        {
          "duration": 0.227272499999998,
          "durationTicks": 480,
          "midi": 68,
          "name": "G#4",
          "ticks": 219840,
          "time": 104.090805,
          "velocity": 0.7007874015748031
        },
        {
          "duration": 0.4545450000000102,
          "durationTicks": 960,
          "midi": 66,
          "name": "F#4",
          "ticks": 220320,
          "time": 104.3180775,
          "velocity": 0.7007874015748031
        },
        {
          "duration": 0.681817499999994,
          "durationTicks": 1440,
          "midi": 68,
          "name": "G#4",
          "ticks": 221280,
          "time": 104.77262250000001,
          "velocity": 0.7007874015748031
        },
        {
          "duration": 0.227272499999998,
          "durationTicks": 480,
          "midi": 66,
          "name": "F#4",
          "ticks": 223200,
          "time": 105.6817125,
          "velocity": 0.7007874015748031
        },
        {
          "duration": 0.1136362500000132,
          "durationTicks": 240,
          "midi": 63,
          "name": "D#4",
          "ticks": 223680,
          "time": 105.908985,
          "velocity": 0.7007874015748031
        },
        {
          "duration": 0.113636249999999,
          "durationTicks": 240,
          "midi": 61,
          "name": "C#4",
          "ticks": 223920,
          "time": 106.02262125000001,
          "velocity": 0.7007874015748031
        },
        {
          "duration": 0.227272499999998,
          "durationTicks": 480,
          "midi": 59,
          "name": "B3",
          "ticks": 224160,
          "time": 106.13625750000001,
          "velocity": 0.7007874015748031
        },
        {
          "duration": 0.454544999999996,
          "durationTicks": 960,
          "midi": 61,
          "name": "C#4",
          "ticks": 224640,
          "time": 106.36353000000001,
          "velocity": 0.7007874015748031
        },
        {
          "duration": 0.2272725000000122,
          "durationTicks": 480,
          "midi": 71,
          "name": "B4",
          "ticks": 227040,
          "time": 107.4998925,
          "velocity": 0.7007874015748031
        },
        {
          "duration": 0.227272499999998,
          "durationTicks": 480,
          "midi": 68,
          "name": "G#4",
          "ticks": 227520,
          "time": 107.72716500000001,
          "velocity": 0.7007874015748031
        },
        {
          "duration": 0.227272499999998,
          "durationTicks": 480,
          "midi": 71,
          "name": "B4",
          "ticks": 228000,
          "time": 107.95443750000001,
          "velocity": 0.7007874015748031
        },
        {
          "duration": 0.227272499999998,
          "durationTicks": 480,
          "midi": 68,
          "name": "G#4",
          "ticks": 228480,
          "time": 108.18171000000001,
          "velocity": 0.7007874015748031
        },
        {
          "duration": 0.227272499999998,
          "durationTicks": 480,
          "midi": 66,
          "name": "F#4",
          "ticks": 228960,
          "time": 108.40898250000001,
          "velocity": 0.7007874015748031
        },
        {
          "duration": 0.113636249999999,
          "durationTicks": 240,
          "midi": 63,
          "name": "D#4",
          "ticks": 229440,
          "time": 108.636255,
          "velocity": 0.7007874015748031
        },
        {
          "duration": 0.113636249999999,
          "durationTicks": 240,
          "midi": 61,
          "name": "C#4",
          "ticks": 229680,
          "time": 108.74989125,
          "velocity": 0.7007874015748031
        },
        {
          "duration": 0.227272499999998,
          "durationTicks": 480,
          "midi": 59,
          "name": "B3",
          "ticks": 229920,
          "time": 108.8635275,
          "velocity": 0.7007874015748031
        },
        {
          "duration": 0.1136362500000132,
          "durationTicks": 240,
          "midi": 61,
          "name": "C#4",
          "ticks": 230400,
          "time": 109.0908,
          "velocity": 0.7007874015748031
        },
        {
          "duration": 0.113636249999999,
          "durationTicks": 240,
          "midi": 63,
          "name": "D#4",
          "ticks": 230640,
          "time": 109.20443625000001,
          "velocity": 0.7007874015748031
        },
        {
          "duration": 0.227272499999998,
          "durationTicks": 480,
          "midi": 66,
          "name": "F#4",
          "ticks": 230880,
          "time": 109.31807250000001,
          "velocity": 0.7007874015748031
        },
        {
          "duration": 0.113636249999999,
          "durationTicks": 240,
          "midi": 63,
          "name": "D#4",
          "ticks": 231360,
          "time": 109.54534500000001,
          "velocity": 0.7007874015748031
        },
        {
          "duration": 0.113636249999999,
          "durationTicks": 240,
          "midi": 61,
          "name": "C#4",
          "ticks": 231600,
          "time": 109.65898125000001,
          "velocity": 0.7007874015748031
        },
        {
          "duration": 0.227272499999998,
          "durationTicks": 480,
          "midi": 59,
          "name": "B3",
          "ticks": 231840,
          "time": 109.77261750000001,
          "velocity": 0.7007874015748031
        },
        {
          "duration": 0.454544999999996,
          "durationTicks": 960,
          "midi": 61,
          "name": "C#4",
          "ticks": 232320,
          "time": 109.99989000000001,
          "velocity": 0.7007874015748031
        },
        {
          "duration": 0.227272499999998,
          "durationTicks": 480,
          "midi": 68,
          "name": "G#4",
          "ticks": 264960,
          "time": 125.45442000000001,
          "velocity": 0.7007874015748031
        },
        {
          "duration": 0.227272499999998,
          "durationTicks": 480,
          "midi": 68,
          "name": "G#4",
          "ticks": 265440,
          "time": 125.68169250000001,
          "velocity": 0.7007874015748031
        },
        {
          "duration": 0.227272499999998,
          "durationTicks": 480,
          "midi": 68,
          "name": "G#4",
          "ticks": 265920,
          "time": 125.90896500000001,
          "velocity": 0.7007874015748031
        },
        {
          "duration": 0.227272499999998,
          "durationTicks": 480,
          "midi": 63,
          "name": "D#4",
          "ticks": 266400,
          "time": 126.13623750000001,
          "velocity": 0.7007874015748031
        },
        {
          "duration": 0.227272499999998,
          "durationTicks": 480,
          "midi": 66,
          "name": "F#4",
          "ticks": 266880,
          "time": 126.36351,
          "velocity": 0.7007874015748031
        },
        {
          "duration": 0.2272725000000122,
          "durationTicks": 480,
          "midi": 66,
          "name": "F#4",
          "ticks": 267360,
          "time": 126.5907825,
          "velocity": 0.7007874015748031
        },
        {
          "duration": 0.454544999999996,
          "durationTicks": 960,
          "midi": 66,
          "name": "F#4",
          "ticks": 267840,
          "time": 126.81805500000002,
          "velocity": 0.7007874015748031
        },
        {
          "duration": 0.227272499999998,
          "durationTicks": 480,
          "midi": 66,
          "name": "F#4",
          "ticks": 268800,
          "time": 127.27260000000001,
          "velocity": 0.7007874015748031
        },
        {
          "duration": 0.113636249999999,
          "durationTicks": 240,
          "midi": 66,
          "name": "F#4",
          "ticks": 269280,
          "time": 127.49987250000001,
          "velocity": 0.7007874015748031
        },
        {
          "duration": 0.113636249999999,
          "durationTicks": 240,
          "midi": 66,
          "name": "F#4",
          "ticks": 269520,
          "time": 127.61350875000001,
          "velocity": 0.7007874015748031
        },
        {
          "duration": 0.227272499999998,
          "durationTicks": 480,
          "midi": 66,
          "name": "F#4",
          "ticks": 269760,
          "time": 127.72714500000001,
          "velocity": 0.7007874015748031
        },
        {
          "duration": 0.227272499999998,
          "durationTicks": 480,
          "midi": 66,
          "name": "F#4",
          "ticks": 270240,
          "time": 127.9544175,
          "velocity": 0.7007874015748031
        },
        {
          "duration": 0.227272499999998,
          "durationTicks": 480,
          "midi": 66,
          "name": "F#4",
          "ticks": 270720,
          "time": 128.18169,
          "velocity": 0.7007874015748031
        },
        {
          "duration": 0.227272499999998,
          "durationTicks": 480,
          "midi": 66,
          "name": "F#4",
          "ticks": 271200,
          "time": 128.4089625,
          "velocity": 0.7007874015748031
        },
        {
          "duration": 0.454544999999996,
          "durationTicks": 960,
          "midi": 66,
          "name": "F#4",
          "ticks": 271680,
          "time": 128.636235,
          "velocity": 0.7007874015748031
        },
        {
          "duration": 0.2272725000000264,
          "durationTicks": 480,
          "midi": 66,
          "name": "F#4",
          "ticks": 272640,
          "time": 129.09078,
          "velocity": 0.7007874015748031
        },
        {
          "duration": 0.227272499999998,
          "durationTicks": 480,
          "midi": 66,
          "name": "F#4",
          "ticks": 273120,
          "time": 129.31805250000002,
          "velocity": 0.7007874015748031
        },
        {
          "duration": 0.227272499999998,
          "durationTicks": 480,
          "midi": 66,
          "name": "F#4",
          "ticks": 273600,
          "time": 129.54532500000002,
          "velocity": 0.7007874015748031
        },
        {
          "duration": 0.227272499999998,
          "durationTicks": 480,
          "midi": 66,
          "name": "F#4",
          "ticks": 274080,
          "time": 129.77259750000002,
          "velocity": 0.7007874015748031
        },
        {
          "duration": 0.227272499999998,
          "durationTicks": 480,
          "midi": 66,
          "name": "F#4",
          "ticks": 274560,
          "time": 129.99987000000002,
          "velocity": 0.7007874015748031
        },
        {
          "duration": 0.227272499999998,
          "durationTicks": 480,
          "midi": 66,
          "name": "F#4",
          "ticks": 275040,
          "time": 130.2271425,
          "velocity": 0.7007874015748031
        },
        {
          "duration": 0.454544999999996,
          "durationTicks": 960,
          "midi": 66,
          "name": "F#4",
          "ticks": 275520,
          "time": 130.454415,
          "velocity": 0.7007874015748031
        },
        {
          "duration": 0.227272499999998,
          "durationTicks": 480,
          "midi": 66,
          "name": "F#4",
          "ticks": 276480,
          "time": 130.90896,
          "velocity": 0.7007874015748031
        },
        {
          "duration": 0.1136362500000132,
          "durationTicks": 240,
          "midi": 66,
          "name": "F#4",
          "ticks": 276960,
          "time": 131.1362325,
          "velocity": 0.7007874015748031
        },
        {
          "duration": 0.11363624999998478,
          "durationTicks": 240,
          "midi": 66,
          "name": "F#4",
          "ticks": 277200,
          "time": 131.24986875000002,
          "velocity": 0.7007874015748031
        },
        {
          "duration": 0.227272499999998,
          "durationTicks": 480,
          "midi": 66,
          "name": "F#4",
          "ticks": 277440,
          "time": 131.363505,
          "velocity": 0.7007874015748031
        },
        {
          "duration": 0.227272499999998,
          "durationTicks": 480,
          "midi": 66,
          "name": "F#4",
          "ticks": 277920,
          "time": 131.5907775,
          "velocity": 0.7007874015748031
        },
        {
          "duration": 0.227272499999998,
          "durationTicks": 480,
          "midi": 66,
          "name": "F#4",
          "ticks": 278400,
          "time": 131.81805,
          "velocity": 0.7007874015748031
        },
        {
          "duration": 0.227272499999998,
          "durationTicks": 480,
          "midi": 66,
          "name": "F#4",
          "ticks": 278880,
          "time": 132.0453225,
          "velocity": 0.7007874015748031
        },
        {
          "duration": 0.4545450000000244,
          "durationTicks": 960,
          "midi": 66,
          "name": "F#4",
          "ticks": 279360,
          "time": 132.272595,
          "velocity": 0.7007874015748031
        },
        {
          "duration": 0.227272499999998,
          "durationTicks": 480,
          "midi": 68,
          "name": "G#4",
          "ticks": 280320,
          "time": 132.72714000000002,
          "velocity": 0.7007874015748031
        },
        {
          "duration": 0.227272499999998,
          "durationTicks": 480,
          "midi": 68,
          "name": "G#4",
          "ticks": 280800,
          "time": 132.95441250000002,
          "velocity": 0.7007874015748031
        },
        {
          "duration": 0.227272499999998,
          "durationTicks": 480,
          "midi": 68,
          "name": "G#4",
          "ticks": 281280,
          "time": 133.18168500000002,
          "velocity": 0.7007874015748031
        },
        {
          "duration": 0.227272499999998,
          "durationTicks": 480,
          "midi": 63,
          "name": "D#4",
          "ticks": 281760,
          "time": 133.4089575,
          "velocity": 0.7007874015748031
        },
        {
          "duration": 0.227272499999998,
          "durationTicks": 480,
          "midi": 66,
          "name": "F#4",
          "ticks": 282240,
          "time": 133.63623,
          "velocity": 0.7007874015748031
        },
        {
          "duration": 0.227272499999998,
          "durationTicks": 480,
          "midi": 66,
          "name": "F#4",
          "ticks": 282720,
          "time": 133.8635025,
          "velocity": 0.7007874015748031
        },
        {
          "duration": 0.454544999999996,
          "durationTicks": 960,
          "midi": 66,
          "name": "F#4",
          "ticks": 283200,
          "time": 134.090775,
          "velocity": 0.7007874015748031
        },
        {
          "duration": 0.227272499999998,
          "durationTicks": 480,
          "midi": 66,
          "name": "F#4",
          "ticks": 284160,
          "time": 134.54532,
          "velocity": 0.7007874015748031
        },
        {
          "duration": 0.1136362500000132,
          "durationTicks": 240,
          "midi": 66,
          "name": "F#4",
          "ticks": 284640,
          "time": 134.7725925,
          "velocity": 0.7007874015748031
        },
        {
          "duration": 0.11363624999998478,
          "durationTicks": 240,
          "midi": 66,
          "name": "F#4",
          "ticks": 284880,
          "time": 134.88622875000001,
          "velocity": 0.7007874015748031
        },
        {
          "duration": 0.227272499999998,
          "durationTicks": 480,
          "midi": 66,
          "name": "F#4",
          "ticks": 285120,
          "time": 134.999865,
          "velocity": 0.7007874015748031
        },
        {
          "duration": 0.227272499999998,
          "durationTicks": 480,
          "midi": 66,
          "name": "F#4",
          "ticks": 285600,
          "time": 135.2271375,
          "velocity": 0.7007874015748031
        },
        {
          "duration": 0.2272725000000264,
          "durationTicks": 480,
          "midi": 66,
          "name": "F#4",
          "ticks": 286080,
          "time": 135.45441,
          "velocity": 0.7007874015748031
        },
        {
          "duration": 0.227272499999998,
          "durationTicks": 480,
          "midi": 66,
          "name": "F#4",
          "ticks": 286560,
          "time": 135.68168250000002,
          "velocity": 0.7007874015748031
        },
        {
          "duration": 0.454544999999996,
          "durationTicks": 960,
          "midi": 66,
          "name": "F#4",
          "ticks": 287040,
          "time": 135.90895500000002,
          "velocity": 0.7007874015748031
        },
        {
          "duration": 0.227272499999998,
          "durationTicks": 480,
          "midi": 66,
          "name": "F#4",
          "ticks": 288000,
          "time": 136.36350000000002,
          "velocity": 0.7007874015748031
        },
        {
          "duration": 0.227272499999998,
          "durationTicks": 480,
          "midi": 66,
          "name": "F#4",
          "ticks": 288480,
          "time": 136.5907725,
          "velocity": 0.7007874015748031
        },
        {
          "duration": 0.227272499999998,
          "durationTicks": 480,
          "midi": 66,
          "name": "F#4",
          "ticks": 288960,
          "time": 136.818045,
          "velocity": 0.7007874015748031
        },
        {
          "duration": 0.227272499999998,
          "durationTicks": 480,
          "midi": 66,
          "name": "F#4",
          "ticks": 289440,
          "time": 137.0453175,
          "velocity": 0.7007874015748031
        },
        {
          "duration": 0.227272499999998,
          "durationTicks": 480,
          "midi": 66,
          "name": "F#4",
          "ticks": 289920,
          "time": 137.27259,
          "velocity": 0.7007874015748031
        },
        {
          "duration": 0.227272499999998,
          "durationTicks": 480,
          "midi": 66,
          "name": "F#4",
          "ticks": 290400,
          "time": 137.4998625,
          "velocity": 0.7007874015748031
        },
        {
          "duration": 0.454544999999996,
          "durationTicks": 960,
          "midi": 66,
          "name": "F#4",
          "ticks": 290880,
          "time": 137.727135,
          "velocity": 0.7007874015748031
        },
        {
          "duration": 0.227272499999998,
          "durationTicks": 480,
          "midi": 66,
          "name": "F#4",
          "ticks": 291840,
          "time": 138.18168,
          "velocity": 0.7007874015748031
        },
        {
          "duration": 0.1136362500000132,
          "durationTicks": 240,
          "midi": 66,
          "name": "F#4",
          "ticks": 292320,
          "time": 138.4089525,
          "velocity": 0.7007874015748031
        },
        {
          "duration": 0.11363624999998478,
          "durationTicks": 240,
          "midi": 66,
          "name": "F#4",
          "ticks": 292560,
          "time": 138.52258875,
          "velocity": 0.7007874015748031
        },
        {
          "duration": 0.2272725000000264,
          "durationTicks": 480,
          "midi": 66,
          "name": "F#4",
          "ticks": 292800,
          "time": 138.636225,
          "velocity": 0.7007874015748031
        },
        {
          "duration": 0.227272499999998,
          "durationTicks": 480,
          "midi": 66,
          "name": "F#4",
          "ticks": 293280,
          "time": 138.86349750000002,
          "velocity": 0.7007874015748031
        },
        {
          "duration": 0.227272499999998,
          "durationTicks": 480,
          "midi": 66,
          "name": "F#4",
          "ticks": 293760,
          "time": 139.09077000000002,
          "velocity": 0.7007874015748031
        },
        {
          "duration": 0.227272499999998,
          "durationTicks": 480,
          "midi": 66,
          "name": "F#4",
          "ticks": 294240,
          "time": 139.31804250000002,
          "velocity": 0.7007874015748031
        },
        {
          "duration": 0.454544999999996,
          "durationTicks": 960,
          "midi": 66,
          "name": "F#4",
          "ticks": 294720,
          "time": 139.54531500000002,
          "velocity": 0.7007874015748031
        },
        {
          "duration": 0.227272499999998,
          "durationTicks": 480,
          "midi": 59,
          "name": "B3",
          "ticks": 295680,
          "time": 139.99986,
          "velocity": 0.7007874015748031
        },
        {
          "duration": 0.454544999999996,
          "durationTicks": 960,
          "midi": 56,
          "name": "G#3",
          "ticks": 296160,
          "time": 140.2271325,
          "velocity": 0.7007874015748031
        },
        {
          "duration": 0.227272499999998,
          "durationTicks": 480,
          "midi": 63,
          "name": "D#4",
          "ticks": 298080,
          "time": 141.1362225,
          "velocity": 0.7007874015748031
        },
        {
          "duration": 0.227272499999998,
          "durationTicks": 480,
          "midi": 61,
          "name": "C#4",
          "ticks": 298560,
          "time": 141.363495,
          "velocity": 0.7007874015748031
        },
        {
          "duration": 0.227272499999998,
          "durationTicks": 480,
          "midi": 59,
          "name": "B3",
          "ticks": 299040,
          "time": 141.5907675,
          "velocity": 0.7007874015748031
        },
        {
          "duration": 0.2272725000000264,
          "durationTicks": 480,
          "midi": 63,
          "name": "D#4",
          "ticks": 299520,
          "time": 141.81804,
          "velocity": 0.7007874015748031
        },
        {
          "duration": 0.681817499999994,
          "durationTicks": 1440,
          "midi": 66,
          "name": "F#4",
          "ticks": 300000,
          "time": 142.04531250000002,
          "velocity": 0.7007874015748031
        },
        {
          "duration": 0.227272499999998,
          "durationTicks": 480,
          "midi": 63,
          "name": "D#4",
          "ticks": 301920,
          "time": 142.95440250000001,
          "velocity": 0.7007874015748031
        },
        {
          "duration": 0.227272499999998,
          "durationTicks": 480,
          "midi": 61,
          "name": "C#4",
          "ticks": 302400,
          "time": 143.181675,
          "velocity": 0.7007874015748031
        },
        {
          "duration": 0.227272499999998,
          "durationTicks": 480,
          "midi": 59,
          "name": "B3",
          "ticks": 302880,
          "time": 143.4089475,
          "velocity": 0.7007874015748031
        },
        {
          "duration": 0.1136362500000132,
          "durationTicks": 240,
          "midi": 59,
          "name": "B3",
          "ticks": 303360,
          "time": 143.63622,
          "velocity": 0.7007874015748031
        },
        {
          "duration": 0.5681812499999808,
          "durationTicks": 1200,
          "midi": 61,
          "name": "C#4",
          "ticks": 303600,
          "time": 143.74985625000002,
          "velocity": 0.7007874015748031
        },
        {
          "duration": 0.227272499999998,
          "durationTicks": 480,
          "midi": 63,
          "name": "D#4",
          "ticks": 305760,
          "time": 144.7725825,
          "velocity": 0.7007874015748031
        },
        {
          "duration": 0.2272725000000264,
          "durationTicks": 480,
          "midi": 61,
          "name": "C#4",
          "ticks": 306240,
          "time": 144.999855,
          "velocity": 0.7007874015748031
        },
        {
          "duration": 0.227272499999998,
          "durationTicks": 480,
          "midi": 59,
          "name": "B3",
          "ticks": 306720,
          "time": 145.22712750000002,
          "velocity": 0.7007874015748031
        },
        {
          "duration": 0.227272499999998,
          "durationTicks": 480,
          "midi": 59,
          "name": "B3",
          "ticks": 307200,
          "time": 145.45440000000002,
          "velocity": 0.7007874015748031
        },
        {
          "duration": 0.454544999999996,
          "durationTicks": 960,
          "midi": 56,
          "name": "G#3",
          "ticks": 307680,
          "time": 145.68167250000002,
          "velocity": 0.7007874015748031
        },
        {
          "duration": 0.227272499999998,
          "durationTicks": 480,
          "midi": 63,
          "name": "D#4",
          "ticks": 309600,
          "time": 146.5907625,
          "velocity": 0.7007874015748031
        },
        {
          "duration": 0.227272499999998,
          "durationTicks": 480,
          "midi": 61,
          "name": "C#4",
          "ticks": 310080,
          "time": 146.818035,
          "velocity": 0.7007874015748031
        },
        {
          "duration": 0.227272499999998,
          "durationTicks": 480,
          "midi": 59,
          "name": "B3",
          "ticks": 310560,
          "time": 147.0453075,
          "velocity": 0.7007874015748031
        },
        {
          "duration": 0.454544999999996,
          "durationTicks": 960,
          "midi": 59,
          "name": "B3",
          "ticks": 311040,
          "time": 147.27258,
          "velocity": 0.7007874015748031
        },
        {
          "duration": 0.227272499999998,
          "durationTicks": 480,
          "midi": 63,
          "name": "D#4",
          "ticks": 313440,
          "time": 148.40894250000002,
          "velocity": 0.7007874015748031
        },
        {
          "duration": 0.227272499999998,
          "durationTicks": 480,
          "midi": 61,
          "name": "C#4",
          "ticks": 313920,
          "time": 148.63621500000002,
          "velocity": 0.7007874015748031
        },
        {
          "duration": 0.227272499999998,
          "durationTicks": 480,
          "midi": 59,
          "name": "B3",
          "ticks": 314400,
          "time": 148.86348750000002,
          "velocity": 0.7007874015748031
        },
        {
          "duration": 0.227272499999998,
          "durationTicks": 480,
          "midi": 63,
          "name": "D#4",
          "ticks": 314880,
          "time": 149.09076000000002,
          "velocity": 0.7007874015748031
        },
        {
          "duration": 0.681817499999994,
          "durationTicks": 1440,
          "midi": 66,
          "name": "F#4",
          "ticks": 315360,
          "time": 149.31803250000002,
          "velocity": 0.7007874015748031
        },
        {
          "duration": 0.227272499999998,
          "durationTicks": 480,
          "midi": 63,
          "name": "D#4",
          "ticks": 317280,
          "time": 150.2271225,
          "velocity": 0.7007874015748031
        },
        {
          "duration": 0.227272499999998,
          "durationTicks": 480,
          "midi": 61,
          "name": "C#4",
          "ticks": 317760,
          "time": 150.454395,
          "velocity": 0.7007874015748031
        },
        {
          "duration": 0.227272499999998,
          "durationTicks": 480,
          "midi": 59,
          "name": "B3",
          "ticks": 318240,
          "time": 150.6816675,
          "velocity": 0.7007874015748031
        },
        {
          "duration": 0.1136362500000132,
          "durationTicks": 240,
          "midi": 59,
          "name": "B3",
          "ticks": 318720,
          "time": 150.90894,
          "velocity": 0.7007874015748031
        },
        {
          "duration": 0.5681812500000092,
          "durationTicks": 1200,
          "midi": 61,
          "name": "C#4",
          "ticks": 318960,
          "time": 151.02257625000001,
          "velocity": 0.7007874015748031
        },
        {
          "duration": 0.227272499999998,
          "durationTicks": 480,
          "midi": 63,
          "name": "D#4",
          "ticks": 321120,
          "time": 152.04530250000002,
          "velocity": 0.7007874015748031
        },
        {
          "duration": 0.227272499999998,
          "durationTicks": 480,
          "midi": 61,
          "name": "C#4",
          "ticks": 321600,
          "time": 152.27257500000002,
          "velocity": 0.7007874015748031
        },
        {
          "duration": 0.227272499999998,
          "durationTicks": 480,
          "midi": 59,
          "name": "B3",
          "ticks": 322080,
          "time": 152.49984750000002,
          "velocity": 0.7007874015748031
        },
        {
          "duration": 0.227272499999998,
          "durationTicks": 480,
          "midi": 59,
          "name": "B3",
          "ticks": 322560,
          "time": 152.72712,
          "velocity": 0.7007874015748031
        },
        {
          "duration": 0.454544999999996,
          "durationTicks": 960,
          "midi": 61,
          "name": "C#4",
          "ticks": 323040,
          "time": 152.9543925,
          "velocity": 0.7007874015748031
        },
        {
          "duration": 0.227272499999998,
          "durationTicks": 480,
          "midi": 63,
          "name": "D#4",
          "ticks": 324960,
          "time": 153.8634825,
          "velocity": 0.7007874015748031
        },
        {
          "duration": 0.227272499999998,
          "durationTicks": 480,
          "midi": 61,
          "name": "C#4",
          "ticks": 325440,
          "time": 154.090755,
          "velocity": 0.7007874015748031
        },
        {
          "duration": 0.227272499999998,
          "durationTicks": 480,
          "midi": 59,
          "name": "B3",
          "ticks": 325920,
          "time": 154.3180275,
          "velocity": 0.7007874015748031
        },
        {
          "duration": 0.2272725000000264,
          "durationTicks": 480,
          "midi": 59,
          "name": "B3",
          "ticks": 326400,
          "time": 154.5453,
          "velocity": 0.7007874015748031
        },
        {
          "duration": 0.454544999999996,
          "durationTicks": 960,
          "midi": 56,
          "name": "G#3",
          "ticks": 326880,
          "time": 154.77257250000002,
          "velocity": 0.7007874015748031
        },
        {
          "duration": 0.227272499999998,
          "durationTicks": 480,
          "midi": 63,
          "name": "D#4",
          "ticks": 328800,
          "time": 155.68166250000002,
          "velocity": 0.7007874015748031
        },
        {
          "duration": 0.227272499999998,
          "durationTicks": 480,
          "midi": 61,
          "name": "C#4",
          "ticks": 329280,
          "time": 155.908935,
          "velocity": 0.7007874015748031
        },
        {
          "duration": 0.227272499999998,
          "durationTicks": 480,
          "midi": 59,
          "name": "B3",
          "ticks": 329760,
          "time": 156.1362075,
          "velocity": 0.7007874015748031
        },
        {
          "duration": 0.227272499999998,
          "durationTicks": 480,
          "midi": 63,
          "name": "D#4",
          "ticks": 330240,
          "time": 156.36348,
          "velocity": 0.7007874015748031
        },
        {
          "duration": 0.681817499999994,
          "durationTicks": 1440,
          "midi": 66,
          "name": "F#4",
          "ticks": 330720,
          "time": 156.5907525,
          "velocity": 0.7007874015748031
        },
        {
          "duration": 0.227272499999998,
          "durationTicks": 480,
          "midi": 63,
          "name": "D#4",
          "ticks": 332640,
          "time": 157.4998425,
          "velocity": 0.7007874015748031
        },
        {
          "duration": 0.2272725000000264,
          "durationTicks": 480,
          "midi": 61,
          "name": "C#4",
          "ticks": 333120,
          "time": 157.727115,
          "velocity": 0.7007874015748031
        },
        {
          "duration": 0.227272499999998,
          "durationTicks": 480,
          "midi": 59,
          "name": "B3",
          "ticks": 333600,
          "time": 157.95438750000002,
          "velocity": 0.7007874015748031
        },
        {
          "duration": 0.11363624999998478,
          "durationTicks": 240,
          "midi": 59,
          "name": "B3",
          "ticks": 334080,
          "time": 158.18166000000002,
          "velocity": 0.7007874015748031
        },
        {
          "duration": 0.5681812500000092,
          "durationTicks": 1200,
          "midi": 61,
          "name": "C#4",
          "ticks": 334320,
          "time": 158.29529625,
          "velocity": 0.7007874015748031
        },
        {
          "duration": 0.227272499999998,
          "durationTicks": 480,
          "midi": 63,
          "name": "D#4",
          "ticks": 336480,
          "time": 159.3180225,
          "velocity": 0.7007874015748031
        },
        {
          "duration": 0.227272499999998,
          "durationTicks": 480,
          "midi": 61,
          "name": "C#4",
          "ticks": 336960,
          "time": 159.545295,
          "velocity": 0.7007874015748031
        },
        {
          "duration": 0.227272499999998,
          "durationTicks": 480,
          "midi": 59,
          "name": "B3",
          "ticks": 337440,
          "time": 159.7725675,
          "velocity": 0.7007874015748031
        },
        {
          "duration": 0.227272499999998,
          "durationTicks": 480,
          "midi": 59,
          "name": "B3",
          "ticks": 337920,
          "time": 159.99984,
          "velocity": 0.7007874015748031
        },
        {
          "duration": 0.454544999999996,
          "durationTicks": 960,
          "midi": 56,
          "name": "G#3",
          "ticks": 338400,
          "time": 160.2271125,
          "velocity": 0.7007874015748031
        },
        {
          "duration": 0.227272499999998,
          "durationTicks": 480,
          "midi": 63,
          "name": "D#4",
          "ticks": 340320,
          "time": 161.13620250000002,
          "velocity": 0.7007874015748031
        },
        {
          "duration": 0.227272499999998,
          "durationTicks": 480,
          "midi": 61,
          "name": "C#4",
          "ticks": 340800,
          "time": 161.36347500000002,
          "velocity": 0.7007874015748031
        },
        {
          "duration": 0.227272499999998,
          "durationTicks": 480,
          "midi": 59,
          "name": "B3",
          "ticks": 341280,
          "time": 161.59074750000002,
          "velocity": 0.7007874015748031
        },
        {
          "duration": 0.454544999999996,
          "durationTicks": 960,
          "midi": 59,
          "name": "B3",
          "ticks": 341760,
          "time": 161.81802000000002,
          "velocity": 0.7007874015748031
        },
        {
          "duration": 0.227272499999998,
          "durationTicks": 480,
          "midi": 63,
          "name": "D#4",
          "ticks": 344160,
          "time": 162.9543825,
          "velocity": 0.7007874015748031
        },
        {
          "duration": 0.227272499999998,
          "durationTicks": 480,
          "midi": 61,
          "name": "C#4",
          "ticks": 344640,
          "time": 163.181655,
          "velocity": 0.7007874015748031
        },
        {
          "duration": 0.227272499999998,
          "durationTicks": 480,
          "midi": 59,
          "name": "B3",
          "ticks": 345120,
          "time": 163.4089275,
          "velocity": 0.7007874015748031
        },
        {
          "duration": 0.227272499999998,
          "durationTicks": 480,
          "midi": 63,
          "name": "D#4",
          "ticks": 345600,
          "time": 163.6362,
          "velocity": 0.7007874015748031
        },
        {
          "duration": 0.6818175000000224,
          "durationTicks": 1440,
          "midi": 66,
          "name": "F#4",
          "ticks": 346080,
          "time": 163.8634725,
          "velocity": 0.7007874015748031
        },
        {
          "duration": 0.227272499999998,
          "durationTicks": 480,
          "midi": 63,
          "name": "D#4",
          "ticks": 348000,
          "time": 164.77256250000002,
          "velocity": 0.7007874015748031
        },
        {
          "duration": 0.227272499999998,
          "durationTicks": 480,
          "midi": 61,
          "name": "C#4",
          "ticks": 348480,
          "time": 164.99983500000002,
          "velocity": 0.7007874015748031
        },
        {
          "duration": 0.227272499999998,
          "durationTicks": 480,
          "midi": 59,
          "name": "B3",
          "ticks": 348960,
          "time": 165.22710750000002,
          "velocity": 0.7007874015748031
        },
        {
          "duration": 0.11363624999998478,
          "durationTicks": 240,
          "midi": 59,
          "name": "B3",
          "ticks": 349440,
          "time": 165.45438000000001,
          "velocity": 0.7007874015748031
        },
        {
          "duration": 0.5681812500000092,
          "durationTicks": 1200,
          "midi": 61,
          "name": "C#4",
          "ticks": 349680,
          "time": 165.56801625,
          "velocity": 0.7007874015748031
        },
        {
          "duration": 0.227272499999998,
          "durationTicks": 480,
          "midi": 63,
          "name": "D#4",
          "ticks": 351840,
          "time": 166.5907425,
          "velocity": 0.7007874015748031
        },
        {
          "duration": 0.227272499999998,
          "durationTicks": 480,
          "midi": 61,
          "name": "C#4",
          "ticks": 352320,
          "time": 166.818015,
          "velocity": 0.7007874015748031
        },
        {
          "duration": 0.227272499999998,
          "durationTicks": 480,
          "midi": 59,
          "name": "B3",
          "ticks": 352800,
          "time": 167.0452875,
          "velocity": 0.7007874015748031
        },
        {
          "duration": 0.2272725000000264,
          "durationTicks": 480,
          "midi": 59,
          "name": "B3",
          "ticks": 353280,
          "time": 167.27256,
          "velocity": 0.7007874015748031
        },
        {
          "duration": 0.681817499999994,
          "durationTicks": 1440,
          "midi": 61,
          "name": "C#4",
          "ticks": 353760,
          "time": 167.49983250000002,
          "velocity": 0.7007874015748031
        },
        {
          "duration": 0.681817499999994,
          "durationTicks": 1440,
          "midi": 71,
          "name": "B4",
          "ticks": 356640,
          "time": 168.8634675,
          "velocity": 0.7007874015748031
        },
        {
          "duration": 0.227272499999998,
          "durationTicks": 480,
          "midi": 68,
          "name": "G#4",
          "ticks": 358080,
          "time": 169.545285,
          "velocity": 0.7007874015748031
        },
        {
          "duration": 0.454544999999996,
          "durationTicks": 960,
          "midi": 66,
          "name": "F#4",
          "ticks": 358560,
          "time": 169.7725575,
          "velocity": 0.7007874015748031
        },
        {
          "duration": 0.6818175000000224,
          "durationTicks": 1440,
          "midi": 68,
          "name": "G#4",
          "ticks": 359520,
          "time": 170.2271025,
          "velocity": 0.7007874015748031
        },
        {
          "duration": 0.227272499999998,
          "durationTicks": 480,
          "midi": 66,
          "name": "F#4",
          "ticks": 361920,
          "time": 171.36346500000002,
          "velocity": 0.7007874015748031
        },
        {
          "duration": 0.11363624999998478,
          "durationTicks": 240,
          "midi": 63,
          "name": "D#4",
          "ticks": 362400,
          "time": 171.59073750000002,
          "velocity": 0.7007874015748031
        },
        {
          "duration": 0.1136362500000132,
          "durationTicks": 240,
          "midi": 61,
          "name": "C#4",
          "ticks": 362640,
          "time": 171.70437375,
          "velocity": 0.7007874015748031
        },
        {
          "duration": 0.227272499999998,
          "durationTicks": 480,
          "midi": 59,
          "name": "B3",
          "ticks": 362880,
          "time": 171.81801000000002,
          "velocity": 0.7007874015748031
        },
        {
          "duration": 0.454544999999996,
          "durationTicks": 960,
          "midi": 61,
          "name": "C#4",
          "ticks": 363360,
          "time": 172.0452825,
          "velocity": 0.7007874015748031
        },
        {
          "duration": 0.227272499999998,
          "durationTicks": 480,
          "midi": 71,
          "name": "B4",
          "ticks": 365280,
          "time": 172.9543725,
          "velocity": 0.7007874015748031
        },
        {
          "duration": 0.227272499999998,
          "durationTicks": 480,
          "midi": 68,
          "name": "G#4",
          "ticks": 365760,
          "time": 173.181645,
          "velocity": 0.7007874015748031
        },
        {
          "duration": 0.227272499999998,
          "durationTicks": 480,
          "midi": 71,
          "name": "B4",
          "ticks": 366240,
          "time": 173.4089175,
          "velocity": 0.7007874015748031
        },
        {
          "duration": 0.2272725000000264,
          "durationTicks": 480,
          "midi": 68,
          "name": "G#4",
          "ticks": 366720,
          "time": 173.63619,
          "velocity": 0.7007874015748031
        },
        {
          "duration": 0.227272499999998,
          "durationTicks": 480,
          "midi": 66,
          "name": "F#4",
          "ticks": 367200,
          "time": 173.86346250000003,
          "velocity": 0.7007874015748031
        },
        {
          "duration": 0.11363624999998478,
          "durationTicks": 240,
          "midi": 63,
          "name": "D#4",
          "ticks": 367680,
          "time": 174.09073500000002,
          "velocity": 0.7007874015748031
        },
        {
          "duration": 0.1136362500000132,
          "durationTicks": 240,
          "midi": 61,
          "name": "C#4",
          "ticks": 367920,
          "time": 174.20437125,
          "velocity": 0.7007874015748031
        },
        {
          "duration": 0.227272499999998,
          "durationTicks": 480,
          "midi": 59,
          "name": "B3",
          "ticks": 368160,
          "time": 174.31800750000002,
          "velocity": 0.7007874015748031
        },
        {
          "duration": 0.11363624999998478,
          "durationTicks": 240,
          "midi": 61,
          "name": "C#4",
          "ticks": 368640,
          "time": 174.54528000000002,
          "velocity": 0.7007874015748031
        },
        {
          "duration": 0.1136362500000132,
          "durationTicks": 240,
          "midi": 63,
          "name": "D#4",
          "ticks": 368880,
          "time": 174.65891625,
          "velocity": 0.7007874015748031
        },
        {
          "duration": 0.227272499999998,
          "durationTicks": 480,
          "midi": 66,
          "name": "F#4",
          "ticks": 369120,
          "time": 174.77255250000002,
          "velocity": 0.7007874015748031
        },
        {
          "duration": 0.11363624999998478,
          "durationTicks": 240,
          "midi": 63,
          "name": "D#4",
          "ticks": 369600,
          "time": 174.99982500000002,
          "velocity": 0.7007874015748031
        },
        {
          "duration": 0.1136362500000132,
          "durationTicks": 240,
          "midi": 61,
          "name": "C#4",
          "ticks": 369840,
          "time": 175.11346125,
          "velocity": 0.7007874015748031
        },
        {
          "duration": 0.227272499999998,
          "durationTicks": 480,
          "midi": 59,
          "name": "B3",
          "ticks": 370080,
          "time": 175.2270975,
          "velocity": 0.7007874015748031
        },
        {
          "duration": 0.454544999999996,
          "durationTicks": 960,
          "midi": 61,
          "name": "C#4",
          "ticks": 370560,
          "time": 175.45437,
          "velocity": 0.7007874015748031
        },
        {
          "duration": 0.681817499999994,
          "durationTicks": 1440,
          "midi": 71,
          "name": "B4",
          "ticks": 372000,
          "time": 176.1361875,
          "velocity": 0.7007874015748031
        },
        {
          "duration": 0.2272725000000264,
          "durationTicks": 480,
          "midi": 68,
          "name": "G#4",
          "ticks": 373440,
          "time": 176.818005,
          "velocity": 0.7007874015748031
        },
        {
          "duration": 0.454544999999996,
          "durationTicks": 960,
          "midi": 66,
          "name": "F#4",
          "ticks": 373920,
          "time": 177.04527750000003,
          "velocity": 0.7007874015748031
        },
        {
          "duration": 0.681817499999994,
          "durationTicks": 1440,
          "midi": 68,
          "name": "G#4",
          "ticks": 374880,
          "time": 177.49982250000002,
          "velocity": 0.7007874015748031
        },
        {
          "duration": 0.227272499999998,
          "durationTicks": 480,
          "midi": 66,
          "name": "F#4",
          "ticks": 376800,
          "time": 178.4089125,
          "velocity": 0.7007874015748031
        },
        {
          "duration": 0.1136362500000132,
          "durationTicks": 240,
          "midi": 63,
          "name": "D#4",
          "ticks": 377280,
          "time": 178.636185,
          "velocity": 0.7007874015748031
        },
        {
          "duration": 0.11363624999998478,
          "durationTicks": 240,
          "midi": 61,
          "name": "C#4",
          "ticks": 377520,
          "time": 178.74982125000002,
          "velocity": 0.7007874015748031
        },
        {
          "duration": 0.227272499999998,
          "durationTicks": 480,
          "midi": 59,
          "name": "B3",
          "ticks": 377760,
          "time": 178.8634575,
          "velocity": 0.7007874015748031
        },
        {
          "duration": 0.454544999999996,
          "durationTicks": 960,
          "midi": 61,
          "name": "C#4",
          "ticks": 378240,
          "time": 179.09073,
          "velocity": 0.7007874015748031
        },
        {
          "duration": 0.227272499999998,
          "durationTicks": 480,
          "midi": 71,
          "name": "B4",
          "ticks": 380640,
          "time": 180.22709250000003,
          "velocity": 0.7007874015748031
        },
        {
          "duration": 0.227272499999998,
          "durationTicks": 480,
          "midi": 68,
          "name": "G#4",
          "ticks": 381120,
          "time": 180.45436500000002,
          "velocity": 0.7007874015748031
        },
        {
          "duration": 0.227272499999998,
          "durationTicks": 480,
          "midi": 71,
          "name": "B4",
          "ticks": 381600,
          "time": 180.68163750000002,
          "velocity": 0.7007874015748031
        },
        {
          "duration": 0.227272499999998,
          "durationTicks": 480,
          "midi": 68,
          "name": "G#4",
          "ticks": 382080,
          "time": 180.90891000000002,
          "velocity": 0.7007874015748031
        },
        {
          "duration": 0.227272499999998,
          "durationTicks": 480,
          "midi": 66,
          "name": "F#4",
          "ticks": 382560,
          "time": 181.13618250000002,
          "velocity": 0.7007874015748031
        },
        {
          "duration": 0.11363624999998478,
          "durationTicks": 240,
          "midi": 63,
          "name": "D#4",
          "ticks": 383040,
          "time": 181.36345500000002,
          "velocity": 0.7007874015748031
        },
        {
          "duration": 0.1136362500000132,
          "durationTicks": 240,
          "midi": 61,
          "name": "C#4",
          "ticks": 383280,
          "time": 181.47709125,
          "velocity": 0.7007874015748031
        },
        {
          "duration": 0.227272499999998,
          "durationTicks": 480,
          "midi": 59,
          "name": "B3",
          "ticks": 383520,
          "time": 181.5907275,
          "velocity": 0.7007874015748031
        },
        {
          "duration": 0.1136362500000132,
          "durationTicks": 240,
          "midi": 61,
          "name": "C#4",
          "ticks": 384000,
          "time": 181.818,
          "velocity": 0.7007874015748031
        },
        {
          "duration": 0.11363624999998478,
          "durationTicks": 240,
          "midi": 63,
          "name": "D#4",
          "ticks": 384240,
          "time": 181.93163625000003,
          "velocity": 0.7007874015748031
        },
        {
          "duration": 0.227272499999998,
          "durationTicks": 480,
          "midi": 66,
          "name": "F#4",
          "ticks": 384480,
          "time": 182.0452725,
          "velocity": 0.7007874015748031
        },
        {
          "duration": 0.1136362500000132,
          "durationTicks": 240,
          "midi": 63,
          "name": "D#4",
          "ticks": 384960,
          "time": 182.272545,
          "velocity": 0.7007874015748031
        },
        {
          "duration": 0.11363624999998478,
          "durationTicks": 240,
          "midi": 61,
          "name": "C#4",
          "ticks": 385200,
          "time": 182.38618125000002,
          "velocity": 0.7007874015748031
        },
        {
          "duration": 0.227272499999998,
          "durationTicks": 480,
          "midi": 59,
          "name": "B3",
          "ticks": 385440,
          "time": 182.4998175,
          "velocity": 0.7007874015748031
        },
        {
          "duration": 0.454544999999996,
          "durationTicks": 960,
          "midi": 61,
          "name": "C#4",
          "ticks": 385920,
          "time": 182.72709,
          "velocity": 0.7007874015748031
        },
        {
          "duration": 0.681817499999994,
          "durationTicks": 1440,
          "midi": 71,
          "name": "B4",
          "ticks": 387360,
          "time": 183.40890750000003,
          "velocity": 0.7007874015748031
        },
        {
          "duration": 0.227272499999998,
          "durationTicks": 480,
          "midi": 68,
          "name": "G#4",
          "ticks": 388800,
          "time": 184.09072500000002,
          "velocity": 0.7007874015748031
        },
        {
          "duration": 0.454544999999996,
          "durationTicks": 960,
          "midi": 66,
          "name": "F#4",
          "ticks": 389280,
          "time": 184.31799750000002,
          "velocity": 0.7007874015748031
        },
        {
          "duration": 0.681817499999994,
          "durationTicks": 1440,
          "midi": 68,
          "name": "G#4",
          "ticks": 390240,
          "time": 184.77254250000001,
          "velocity": 0.7007874015748031
        },
        {
          "duration": 0.227272499999998,
          "durationTicks": 480,
          "midi": 66,
          "name": "F#4",
          "ticks": 392640,
          "time": 185.908905,
          "velocity": 0.7007874015748031
        },
        {
          "duration": 0.1136362500000132,
          "durationTicks": 240,
          "midi": 63,
          "name": "D#4",
          "ticks": 393120,
          "time": 186.1361775,
          "velocity": 0.7007874015748031
        },
        {
          "duration": 0.11363624999998478,
          "durationTicks": 240,
          "midi": 61,
          "name": "C#4",
          "ticks": 393360,
          "time": 186.24981375000002,
          "velocity": 0.7007874015748031
        },
        {
          "duration": 0.2272725000000264,
          "durationTicks": 480,
          "midi": 59,
          "name": "B3",
          "ticks": 393600,
          "time": 186.36345,
          "velocity": 0.7007874015748031
        },
        {
          "duration": 0.454544999999996,
          "durationTicks": 960,
          "midi": 61,
          "name": "C#4",
          "ticks": 394080,
          "time": 186.59072250000003,
          "velocity": 0.7007874015748031
        },
        {
          "duration": 0.227272499999998,
          "durationTicks": 480,
          "midi": 71,
          "name": "B4",
          "ticks": 396000,
          "time": 187.49981250000002,
          "velocity": 0.7007874015748031
        },
        {
          "duration": 0.227272499999998,
          "durationTicks": 480,
          "midi": 68,
          "name": "G#4",
          "ticks": 396480,
          "time": 187.72708500000002,
          "velocity": 0.7007874015748031
        },
        {
          "duration": 0.227272499999998,
          "durationTicks": 480,
          "midi": 71,
          "name": "B4",
          "ticks": 396960,
          "time": 187.95435750000001,
          "velocity": 0.7007874015748031
        },
        {
          "duration": 0.227272499999998,
          "durationTicks": 480,
          "midi": 68,
          "name": "G#4",
          "ticks": 397440,
          "time": 188.18163,
          "velocity": 0.7007874015748031
        },
        {
          "duration": 0.227272499999998,
          "durationTicks": 480,
          "midi": 66,
          "name": "F#4",
          "ticks": 397920,
          "time": 188.4089025,
          "velocity": 0.7007874015748031
        },
        {
          "duration": 0.1136362500000132,
          "durationTicks": 240,
          "midi": 63,
          "name": "D#4",
          "ticks": 398400,
          "time": 188.636175,
          "velocity": 0.7007874015748031
        },
        {
          "duration": 0.11363624999998478,
          "durationTicks": 240,
          "midi": 61,
          "name": "C#4",
          "ticks": 398640,
          "time": 188.74981125000002,
          "velocity": 0.7007874015748031
        },
        {
          "duration": 0.227272499999998,
          "durationTicks": 480,
          "midi": 59,
          "name": "B3",
          "ticks": 398880,
          "time": 188.8634475,
          "velocity": 0.7007874015748031
        },
        {
          "duration": 0.1136362500000132,
          "durationTicks": 240,
          "midi": 61,
          "name": "C#4",
          "ticks": 399360,
          "time": 189.09072,
          "velocity": 0.7007874015748031
        },
        {
          "duration": 0.11363624999998478,
          "durationTicks": 240,
          "midi": 63,
          "name": "D#4",
          "ticks": 399600,
          "time": 189.20435625000002,
          "velocity": 0.7007874015748031
        },
        {
          "duration": 0.227272499999998,
          "durationTicks": 480,
          "midi": 66,
          "name": "F#4",
          "ticks": 399840,
          "time": 189.3179925,
          "velocity": 0.7007874015748031
        },
        {
          "duration": 0.1136362500000132,
          "durationTicks": 240,
          "midi": 63,
          "name": "D#4",
          "ticks": 400320,
          "time": 189.545265,
          "velocity": 0.7007874015748031
        },
        {
          "duration": 0.1136362500000132,
          "durationTicks": 240,
          "midi": 61,
          "name": "C#4",
          "ticks": 400560,
          "time": 189.65890125,
          "velocity": 0.7007874015748031
        },
        {
          "duration": 0.227272499999998,
          "durationTicks": 480,
          "midi": 59,
          "name": "B3",
          "ticks": 400800,
          "time": 189.77253750000003,
          "velocity": 0.7007874015748031
        },
        {
          "duration": 0.454544999999996,
          "durationTicks": 960,
          "midi": 61,
          "name": "C#4",
          "ticks": 401280,
          "time": 189.99981000000002,
          "velocity": 0.7007874015748031
        },
        {
          "duration": 0.681817499999994,
          "durationTicks": 1440,
          "midi": 71,
          "name": "B4",
          "ticks": 402720,
          "time": 190.68162750000002,
          "velocity": 0.7007874015748031
        },
        {
          "duration": 0.227272499999998,
          "durationTicks": 480,
          "midi": 68,
          "name": "G#4",
          "ticks": 404160,
          "time": 191.363445,
          "velocity": 0.7007874015748031
        },
        {
          "duration": 0.454544999999996,
          "durationTicks": 960,
          "midi": 66,
          "name": "F#4",
          "ticks": 404640,
          "time": 191.5907175,
          "velocity": 0.7007874015748031
        },
        {
          "duration": 0.681817499999994,
          "durationTicks": 1440,
          "midi": 68,
          "name": "G#4",
          "ticks": 405600,
          "time": 192.0452625,
          "velocity": 0.7007874015748031
        },
        {
          "duration": 0.227272499999998,
          "durationTicks": 480,
          "midi": 66,
          "name": "F#4",
          "ticks": 407520,
          "time": 192.95435250000003,
          "velocity": 0.7007874015748031
        },
        {
          "duration": 0.11363624999998478,
          "durationTicks": 240,
          "midi": 63,
          "name": "D#4",
          "ticks": 408000,
          "time": 193.18162500000003,
          "velocity": 0.7007874015748031
        },
        {
          "duration": 0.1136362500000132,
          "durationTicks": 240,
          "midi": 61,
          "name": "C#4",
          "ticks": 408240,
          "time": 193.29526125,
          "velocity": 0.7007874015748031
        },
        {
          "duration": 0.227272499999998,
          "durationTicks": 480,
          "midi": 59,
          "name": "B3",
          "ticks": 408480,
          "time": 193.40889750000002,
          "velocity": 0.7007874015748031
        },
        {
          "duration": 0.454544999999996,
          "durationTicks": 960,
          "midi": 61,
          "name": "C#4",
          "ticks": 408960,
          "time": 193.63617000000002,
          "velocity": 0.7007874015748031
        },
        {
          "duration": 0.227272499999998,
          "durationTicks": 480,
          "midi": 71,
          "name": "B4",
          "ticks": 411360,
          "time": 194.7725325,
          "velocity": 0.7007874015748031
        },
        {
          "duration": 0.227272499999998,
          "durationTicks": 480,
          "midi": 68,
          "name": "G#4",
          "ticks": 411840,
          "time": 194.999805,
          "velocity": 0.7007874015748031
        },
        {
          "duration": 0.227272499999998,
          "durationTicks": 480,
          "midi": 71,
          "name": "B4",
          "ticks": 412320,
          "time": 195.2270775,
          "velocity": 0.7007874015748031
        },
        {
          "duration": 0.227272499999998,
          "durationTicks": 480,
          "midi": 68,
          "name": "G#4",
          "ticks": 412800,
          "time": 195.45435,
          "velocity": 0.7007874015748031
        },
        {
          "duration": 0.227272499999998,
          "durationTicks": 480,
          "midi": 66,
          "name": "F#4",
          "ticks": 413280,
          "time": 195.6816225,
          "velocity": 0.7007874015748031
        },
        {
          "duration": 0.1136362500000132,
          "durationTicks": 240,
          "midi": 63,
          "name": "D#4",
          "ticks": 413760,
          "time": 195.908895,
          "velocity": 0.7007874015748031
        },
        {
          "duration": 0.1136362500000132,
          "durationTicks": 240,
          "midi": 61,
          "name": "C#4",
          "ticks": 414000,
          "time": 196.02253125000001,
          "velocity": 0.7007874015748031
        },
        {
          "duration": 0.227272499999998,
          "durationTicks": 480,
          "midi": 59,
          "name": "B3",
          "ticks": 414240,
          "time": 196.13616750000003,
          "velocity": 0.7007874015748031
        },
        {
          "duration": 0.11363624999998478,
          "durationTicks": 240,
          "midi": 61,
          "name": "C#4",
          "ticks": 414720,
          "time": 196.36344000000003,
          "velocity": 0.7007874015748031
        },
        {
          "duration": 0.1136362500000132,
          "durationTicks": 240,
          "midi": 63,
          "name": "D#4",
          "ticks": 414960,
          "time": 196.47707625,
          "velocity": 0.7007874015748031
        },
        {
          "duration": 0.227272499999998,
          "durationTicks": 480,
          "midi": 66,
          "name": "F#4",
          "ticks": 415200,
          "time": 196.59071250000002,
          "velocity": 0.7007874015748031
        },
        {
          "duration": 0.11363624999998478,
          "durationTicks": 240,
          "midi": 63,
          "name": "D#4",
          "ticks": 415680,
          "time": 196.81798500000002,
          "velocity": 0.7007874015748031
        },
        {
          "duration": 0.1136362500000132,
          "durationTicks": 240,
          "midi": 61,
          "name": "C#4",
          "ticks": 415920,
          "time": 196.93162125,
          "velocity": 0.7007874015748031
        },
        {
          "duration": 0.227272499999998,
          "durationTicks": 480,
          "midi": 59,
          "name": "B3",
          "ticks": 416160,
          "time": 197.04525750000002,
          "velocity": 0.7007874015748031
        },
        {
          "duration": 0.454544999999996,
          "durationTicks": 960,
          "midi": 61,
          "name": "C#4",
          "ticks": 416640,
          "time": 197.27253000000002,
          "velocity": 0.7007874015748031
        }
      ]
    },
    {
      "channel": 1,
      "controlChanges": {
        "10": [
          {
            "number": 10,
            "ticks": 0,
            "time": 0,
            "value": 0.968503937007874
          }
        ]
      },
      "pitchBends": [],
      "instrument": {
        "family": "guitar",
        "number": 27,
        "name": "electric guitar (clean)"
      },
      "name": "Accomp",
      "notes": [
        {
          "duration": 0.2272725000000002,
          "durationTicks": 480,
          "midi": 56,
          "name": "G#3",
          "ticks": 4320,
          "time": 2.0454525,
          "velocity": 0.7007874015748031
        },
        {
          "duration": 0.22727249999999977,
          "durationTicks": 480,
          "midi": 59,
          "name": "B3",
          "ticks": 4800,
          "time": 2.2727250000000003,
          "velocity": 0.7007874015748031
        },
        {
          "duration": 0.2272725000000002,
          "durationTicks": 480,
          "midi": 63,
          "name": "D#4",
          "ticks": 5280,
          "time": 2.4999975,
          "velocity": 0.7007874015748031
        },
        {
          "duration": 0.2272725000000002,
          "durationTicks": 480,
          "midi": 68,
          "name": "G#4",
          "ticks": 5280,
          "time": 2.4999975,
          "velocity": 0.7007874015748031
        },
        {
          "duration": 0.22727249999999977,
          "durationTicks": 480,
          "midi": 59,
          "name": "B3",
          "ticks": 8160,
          "time": 3.8636325000000005,
          "velocity": 0.7007874015748031
        },
        {
          "duration": 0.22727249999999977,
          "durationTicks": 480,
          "midi": 63,
          "name": "D#4",
          "ticks": 8640,
          "time": 4.090905,
          "velocity": 0.7007874015748031
        },
        {
          "duration": 0.22727250000000065,
          "durationTicks": 480,
          "midi": 71,
          "name": "B4",
          "ticks": 9120,
          "time": 4.3181775,
          "velocity": 0.7007874015748031
        },
        {
          "duration": 0.22727250000000065,
          "durationTicks": 480,
          "midi": 66,
          "name": "F#4",
          "ticks": 9120,
          "time": 4.3181775,
          "velocity": 0.7007874015748031
        },
        {
          "duration": 0.22727249999999977,
          "durationTicks": 480,
          "midi": 58,
          "name": "A#3",
          "ticks": 12000,
          "time": 5.6818125,
          "velocity": 0.7007874015748031
        },
        {
          "duration": 0.22727250000000065,
          "durationTicks": 480,
          "midi": 61,
          "name": "C#4",
          "ticks": 12480,
          "time": 5.909085,
          "velocity": 0.7007874015748031
        },
        {
          "duration": 0.22727249999999977,
          "durationTicks": 480,
          "midi": 61,
          "name": "C#4",
          "ticks": 12960,
          "time": 6.136357500000001,
          "velocity": 0.7007874015748031
        },
        {
          "duration": 0.22727249999999977,
          "durationTicks": 480,
          "midi": 66,
          "name": "F#4",
          "ticks": 12960,
          "time": 6.136357500000001,
          "velocity": 0.7007874015748031
        },
        {
          "duration": 0.22727250000000065,
          "durationTicks": 480,
          "midi": 52,
          "name": "E3",
          "ticks": 15840,
          "time": 7.4999925,
          "velocity": 0.7007874015748031
        },
        {
          "duration": 0.22727249999999977,
          "durationTicks": 480,
          "midi": 56,
          "name": "G#3",
          "ticks": 16320,
          "time": 7.727265000000001,
          "velocity": 0.7007874015748031
        },
        {
          "duration": 0.22727249999999977,
          "durationTicks": 480,
          "midi": 59,
          "name": "B3",
          "ticks": 16800,
          "time": 7.954537500000001,
          "velocity": 0.7007874015748031
        },
        {
          "duration": 0.22727249999999977,
          "durationTicks": 480,
          "midi": 64,
          "name": "E4",
          "ticks": 16800,
          "time": 7.954537500000001,
          "velocity": 0.7007874015748031
        },
        {
          "duration": 0.22727249999999977,
          "durationTicks": 480,
          "midi": 56,
          "name": "G#3",
          "ticks": 19680,
          "time": 9.318172500000001,
          "velocity": 0.7007874015748031
        },
        {
          "duration": 0.22727249999999977,
          "durationTicks": 480,
          "midi": 59,
          "name": "B3",
          "ticks": 20160,
          "time": 9.545445,
          "velocity": 0.7007874015748031
        },
        {
          "duration": 0.22727249999999977,
          "durationTicks": 480,
          "midi": 63,
          "name": "D#4",
          "ticks": 20640,
          "time": 9.7727175,
          "velocity": 0.7007874015748031
        },
        {
          "duration": 0.22727249999999977,
          "durationTicks": 480,
          "midi": 68,
          "name": "G#4",
          "ticks": 20640,
          "time": 9.7727175,
          "velocity": 0.7007874015748031
        },
        {
          "duration": 0.22727249999999977,
          "durationTicks": 480,
          "midi": 59,
          "name": "B3",
          "ticks": 23520,
          "time": 11.136352500000001,
          "velocity": 0.7007874015748031
        },
        {
          "duration": 0.22727249999999977,
          "durationTicks": 480,
          "midi": 63,
          "name": "D#4",
          "ticks": 24000,
          "time": 11.363625,
          "velocity": 0.7007874015748031
        },
        {
          "duration": 0.22727249999999977,
          "durationTicks": 480,
          "midi": 71,
          "name": "B4",
          "ticks": 24480,
          "time": 11.5908975,
          "velocity": 0.7007874015748031
        },
        {
          "duration": 0.22727249999999977,
          "durationTicks": 480,
          "midi": 66,
          "name": "F#4",
          "ticks": 24480,
          "time": 11.5908975,
          "velocity": 0.7007874015748031
        },
        {
          "duration": 0.22727249999999977,
          "durationTicks": 480,
          "midi": 58,
          "name": "A#3",
          "ticks": 27360,
          "time": 12.954532500000001,
          "velocity": 0.7007874015748031
        },
        {
          "duration": 0.22727249999999977,
          "durationTicks": 480,
          "midi": 61,
          "name": "C#4",
          "ticks": 27840,
          "time": 13.181805,
          "velocity": 0.7007874015748031
        },
        {
          "duration": 0.22727249999999977,
          "durationTicks": 480,
          "midi": 61,
          "name": "C#4",
          "ticks": 28320,
          "time": 13.4090775,
          "velocity": 0.7007874015748031
        },
        {
          "duration": 0.22727249999999977,
          "durationTicks": 480,
          "midi": 66,
          "name": "F#4",
          "ticks": 28320,
          "time": 13.4090775,
          "velocity": 0.7007874015748031
        },
        {
          "duration": 0.22727249999999977,
          "durationTicks": 480,
          "midi": 52,
          "name": "E3",
          "ticks": 31200,
          "time": 14.7727125,
          "velocity": 0.7007874015748031
        },
        {
          "duration": 0.22727249999999977,
          "durationTicks": 480,
          "midi": 56,
          "name": "G#3",
          "ticks": 31680,
          "time": 14.999985,
          "velocity": 0.7007874015748031
        },
        {
          "duration": 0.22727250000000154,
          "durationTicks": 480,
          "midi": 59,
          "name": "B3",
          "ticks": 32160,
          "time": 15.2272575,
          "velocity": 0.7007874015748031
        },
        {
          "duration": 0.22727250000000154,
          "durationTicks": 480,
          "midi": 64,
          "name": "E4",
          "ticks": 32160,
          "time": 15.2272575,
          "velocity": 0.7007874015748031
        },
        {
          "duration": 0.227272499999998,
          "durationTicks": 480,
          "midi": 56,
          "name": "G#3",
          "ticks": 35040,
          "time": 16.590892500000002,
          "velocity": 0.7007874015748031
        },
        {
          "duration": 0.22727250000000154,
          "durationTicks": 480,
          "midi": 59,
          "name": "B3",
          "ticks": 35520,
          "time": 16.818165,
          "velocity": 0.7007874015748031
        },
        {
          "duration": 0.227272499999998,
          "durationTicks": 480,
          "midi": 63,
          "name": "D#4",
          "ticks": 36000,
          "time": 17.045437500000002,
          "velocity": 0.7007874015748031
        },
        {
          "duration": 0.227272499999998,
          "durationTicks": 480,
          "midi": 68,
          "name": "G#4",
          "ticks": 36000,
          "time": 17.045437500000002,
          "velocity": 0.7007874015748031
        },
        {
          "duration": 0.22727250000000154,
          "durationTicks": 480,
          "midi": 59,
          "name": "B3",
          "ticks": 38880,
          "time": 18.4090725,
          "velocity": 0.7007874015748031
        },
        {
          "duration": 0.227272499999998,
          "durationTicks": 480,
          "midi": 63,
          "name": "D#4",
          "ticks": 39360,
          "time": 18.636345000000002,
          "velocity": 0.7007874015748031
        },
        {
          "duration": 0.22727250000000154,
          "durationTicks": 480,
          "midi": 71,
          "name": "B4",
          "ticks": 39840,
          "time": 18.8636175,
          "velocity": 0.7007874015748031
        },
        {
          "duration": 0.22727250000000154,
          "durationTicks": 480,
          "midi": 66,
          "name": "F#4",
          "ticks": 39840,
          "time": 18.8636175,
          "velocity": 0.7007874015748031
        },
        {
          "duration": 0.227272499999998,
          "durationTicks": 480,
          "midi": 58,
          "name": "A#3",
          "ticks": 42720,
          "time": 20.227252500000002,
          "velocity": 0.7007874015748031
        },
        {
          "duration": 0.22727250000000154,
          "durationTicks": 480,
          "midi": 61,
          "name": "C#4",
          "ticks": 43200,
          "time": 20.454525,
          "velocity": 0.7007874015748031
        },
        {
          "duration": 0.227272499999998,
          "durationTicks": 480,
          "midi": 61,
          "name": "C#4",
          "ticks": 43680,
          "time": 20.681797500000002,
          "velocity": 0.7007874015748031
        },
        {
          "duration": 0.227272499999998,
          "durationTicks": 480,
          "midi": 66,
          "name": "F#4",
          "ticks": 43680,
          "time": 20.681797500000002,
          "velocity": 0.7007874015748031
        },
        {
          "duration": 0.22727250000000154,
          "durationTicks": 480,
          "midi": 52,
          "name": "E3",
          "ticks": 46560,
          "time": 22.0454325,
          "velocity": 0.7007874015748031
        },
        {
          "duration": 0.227272499999998,
          "durationTicks": 480,
          "midi": 56,
          "name": "G#3",
          "ticks": 47040,
          "time": 22.272705000000002,
          "velocity": 0.7007874015748031
        },
        {
          "duration": 0.22727250000000154,
          "durationTicks": 480,
          "midi": 59,
          "name": "B3",
          "ticks": 47520,
          "time": 22.4999775,
          "velocity": 0.7007874015748031
        },
        {
          "duration": 0.22727250000000154,
          "durationTicks": 480,
          "midi": 64,
          "name": "E4",
          "ticks": 47520,
          "time": 22.4999775,
          "velocity": 0.7007874015748031
        },
        {
          "duration": 0.227272499999998,
          "durationTicks": 480,
          "midi": 56,
          "name": "G#3",
          "ticks": 50400,
          "time": 23.863612500000002,
          "velocity": 0.7007874015748031
        },
        {
          "duration": 0.22727250000000154,
          "durationTicks": 480,
          "midi": 59,
          "name": "B3",
          "ticks": 50880,
          "time": 24.090885,
          "velocity": 0.7007874015748031
        },
        {
          "duration": 0.22727250000000154,
          "durationTicks": 480,
          "midi": 63,
          "name": "D#4",
          "ticks": 51360,
          "time": 24.3181575,
          "velocity": 0.7007874015748031
        },
        {
          "duration": 0.22727250000000154,
          "durationTicks": 480,
          "midi": 68,
          "name": "G#4",
          "ticks": 51360,
          "time": 24.3181575,
          "velocity": 0.7007874015748031
        },
        {
          "duration": 0.22727250000000154,
          "durationTicks": 480,
          "midi": 59,
          "name": "B3",
          "ticks": 54240,
          "time": 25.6817925,
          "velocity": 0.7007874015748031
        },
        {
          "duration": 0.22727250000000154,
          "durationTicks": 480,
          "midi": 63,
          "name": "D#4",
          "ticks": 54720,
          "time": 25.909065000000002,
          "velocity": 0.7007874015748031
        },
        {
          "duration": 0.227272499999998,
          "durationTicks": 480,
          "midi": 71,
          "name": "B4",
          "ticks": 55200,
          "time": 26.136337500000003,
          "velocity": 0.7007874015748031
        },
        {
          "duration": 0.227272499999998,
          "durationTicks": 480,
          "midi": 66,
          "name": "F#4",
          "ticks": 55200,
          "time": 26.136337500000003,
          "velocity": 0.7007874015748031
        },
        {
          "duration": 0.22727250000000154,
          "durationTicks": 480,
          "midi": 58,
          "name": "A#3",
          "ticks": 58080,
          "time": 27.499972500000002,
          "velocity": 0.7007874015748031
        },
        {
          "duration": 0.227272499999998,
          "durationTicks": 480,
          "midi": 61,
          "name": "C#4",
          "ticks": 58560,
          "time": 27.727245000000003,
          "velocity": 0.7007874015748031
        },
        {
          "duration": 0.22727250000000154,
          "durationTicks": 480,
          "midi": 61,
          "name": "C#4",
          "ticks": 59040,
          "time": 27.9545175,
          "velocity": 0.7007874015748031
        },
        {
          "duration": 0.22727250000000154,
          "durationTicks": 480,
          "midi": 66,
          "name": "F#4",
          "ticks": 59040,
          "time": 27.9545175,
          "velocity": 0.7007874015748031
        },
        {
          "duration": 0.227272499999998,
          "durationTicks": 480,
          "midi": 52,
          "name": "E3",
          "ticks": 61920,
          "time": 29.318152500000004,
          "velocity": 0.7007874015748031
        },
        {
          "duration": 0.22727250000000154,
          "durationTicks": 480,
          "midi": 56,
          "name": "G#3",
          "ticks": 62400,
          "time": 29.545425,
          "velocity": 0.7007874015748031
        },
        {
          "duration": 0.227272499999998,
          "durationTicks": 480,
          "midi": 59,
          "name": "B3",
          "ticks": 62880,
          "time": 29.772697500000003,
          "velocity": 0.7007874015748031
        },
        {
          "duration": 0.227272499999998,
          "durationTicks": 480,
          "midi": 64,
          "name": "E4",
          "ticks": 62880,
          "time": 29.772697500000003,
          "velocity": 0.7007874015748031
        },
        {
          "duration": 0.22727250000000154,
          "durationTicks": 480,
          "midi": 56,
          "name": "G#3",
          "ticks": 65760,
          "time": 31.1363325,
          "velocity": 0.7007874015748031
        },
        {
          "duration": 0.227272499999998,
          "durationTicks": 480,
          "midi": 59,
          "name": "B3",
          "ticks": 66240,
          "time": 31.363605000000003,
          "velocity": 0.7007874015748031
        },
        {
          "duration": 0.22727250000000154,
          "durationTicks": 480,
          "midi": 63,
          "name": "D#4",
          "ticks": 66720,
          "time": 31.5908775,
          "velocity": 0.7007874015748031
        },
        {
          "duration": 0.22727250000000154,
          "durationTicks": 480,
          "midi": 68,
          "name": "G#4",
          "ticks": 66720,
          "time": 31.5908775,
          "velocity": 0.7007874015748031
        },
        {
          "duration": 0.2272725000000051,
          "durationTicks": 480,
          "midi": 59,
          "name": "B3",
          "ticks": 69600,
          "time": 32.9545125,
          "velocity": 0.7007874015748031
        },
        {
          "duration": 0.227272499999998,
          "durationTicks": 480,
          "midi": 63,
          "name": "D#4",
          "ticks": 70080,
          "time": 33.181785000000005,
          "velocity": 0.7007874015748031
        },
        {
          "duration": 0.227272499999998,
          "durationTicks": 480,
          "midi": 71,
          "name": "B4",
          "ticks": 70560,
          "time": 33.4090575,
          "velocity": 0.7007874015748031
        },
        {
          "duration": 0.227272499999998,
          "durationTicks": 480,
          "midi": 66,
          "name": "F#4",
          "ticks": 70560,
          "time": 33.4090575,
          "velocity": 0.7007874015748031
        },
        {
          "duration": 0.227272499999998,
          "durationTicks": 480,
          "midi": 58,
          "name": "A#3",
          "ticks": 73440,
          "time": 34.772692500000005,
          "velocity": 0.7007874015748031
        },
        {
          "duration": 0.227272499999998,
          "durationTicks": 480,
          "midi": 61,
          "name": "C#4",
          "ticks": 73920,
          "time": 34.999965,
          "velocity": 0.7007874015748031
        },
        {
          "duration": 0.227272499999998,
          "durationTicks": 480,
          "midi": 61,
          "name": "C#4",
          "ticks": 74400,
          "time": 35.2272375,
          "velocity": 0.7007874015748031
        },
        {
          "duration": 0.227272499999998,
          "durationTicks": 480,
          "midi": 66,
          "name": "F#4",
          "ticks": 74400,
          "time": 35.2272375,
          "velocity": 0.7007874015748031
        },
        {
          "duration": 0.227272499999998,
          "durationTicks": 480,
          "midi": 52,
          "name": "E3",
          "ticks": 77280,
          "time": 36.5908725,
          "velocity": 0.7007874015748031
        },
        {
          "duration": 0.227272499999998,
          "durationTicks": 480,
          "midi": 56,
          "name": "G#3",
          "ticks": 77760,
          "time": 36.818145,
          "velocity": 0.7007874015748031
        },
        {
          "duration": 0.2272725000000051,
          "durationTicks": 480,
          "midi": 59,
          "name": "B3",
          "ticks": 78240,
          "time": 37.0454175,
          "velocity": 0.7007874015748031
        },
        {
          "duration": 0.2272725000000051,
          "durationTicks": 480,
          "midi": 64,
          "name": "E4",
          "ticks": 78240,
          "time": 37.0454175,
          "velocity": 0.7007874015748031
        },
        {
          "duration": 0.227272499999998,
          "durationTicks": 480,
          "midi": 63,
          "name": "D#4",
          "ticks": 81120,
          "time": 38.4090525,
          "velocity": 0.7007874015748031
        },
        {
          "duration": 0.227272499999998,
          "durationTicks": 480,
          "midi": 59,
          "name": "B3",
          "ticks": 81120,
          "time": 38.4090525,
          "velocity": 0.7007874015748031
        },
        {
          "duration": 0.227272499999998,
          "durationTicks": 480,
          "midi": 56,
          "name": "G#3",
          "ticks": 81120,
          "time": 38.4090525,
          "velocity": 0.7007874015748031
        },
        {
          "duration": 0.227272499999998,
          "durationTicks": 480,
          "midi": 63,
          "name": "D#4",
          "ticks": 82080,
          "time": 38.863597500000004,
          "velocity": 0.7007874015748031
        },
        {
          "duration": 0.227272499999998,
          "durationTicks": 480,
          "midi": 59,
          "name": "B3",
          "ticks": 82080,
          "time": 38.863597500000004,
          "velocity": 0.7007874015748031
        },
        {
          "duration": 0.227272499999998,
          "durationTicks": 480,
          "midi": 56,
          "name": "G#3",
          "ticks": 82080,
          "time": 38.863597500000004,
          "velocity": 0.7007874015748031
        },
        {
          "duration": 0.2272725000000051,
          "durationTicks": 480,
          "midi": 63,
          "name": "D#4",
          "ticks": 83040,
          "time": 39.3181425,
          "velocity": 0.7007874015748031
        },
        {
          "duration": 0.2272725000000051,
          "durationTicks": 480,
          "midi": 59,
          "name": "B3",
          "ticks": 83040,
          "time": 39.3181425,
          "velocity": 0.7007874015748031
        },
        {
          "duration": 0.2272725000000051,
          "durationTicks": 480,
          "midi": 56,
          "name": "G#3",
          "ticks": 83040,
          "time": 39.3181425,
          "velocity": 0.7007874015748031
        },
        {
          "duration": 0.227272499999998,
          "durationTicks": 480,
          "midi": 63,
          "name": "D#4",
          "ticks": 84000,
          "time": 39.7726875,
          "velocity": 0.7007874015748031
        },
        {
          "duration": 0.227272499999998,
          "durationTicks": 480,
          "midi": 59,
          "name": "B3",
          "ticks": 84000,
          "time": 39.7726875,
          "velocity": 0.7007874015748031
        },
        {
          "duration": 0.227272499999998,
          "durationTicks": 480,
          "midi": 56,
          "name": "G#3",
          "ticks": 84000,
          "time": 39.7726875,
          "velocity": 0.7007874015748031
        },
        {
          "duration": 0.2272725000000051,
          "durationTicks": 480,
          "midi": 63,
          "name": "D#4",
          "ticks": 84960,
          "time": 40.2272325,
          "velocity": 0.7007874015748031
        },
        {
          "duration": 0.2272725000000051,
          "durationTicks": 480,
          "midi": 59,
          "name": "B3",
          "ticks": 84960,
          "time": 40.2272325,
          "velocity": 0.7007874015748031
        },
        {
          "duration": 0.2272725000000051,
          "durationTicks": 480,
          "midi": 54,
          "name": "F#3",
          "ticks": 84960,
          "time": 40.2272325,
          "velocity": 0.7007874015748031
        },
        {
          "duration": 0.227272499999998,
          "durationTicks": 480,
          "midi": 63,
          "name": "D#4",
          "ticks": 85920,
          "time": 40.6817775,
          "velocity": 0.7007874015748031
        },
        {
          "duration": 0.227272499999998,
          "durationTicks": 480,
          "midi": 59,
          "name": "B3",
          "ticks": 85920,
          "time": 40.6817775,
          "velocity": 0.7007874015748031
        },
        {
          "duration": 0.227272499999998,
          "durationTicks": 480,
          "midi": 54,
          "name": "F#3",
          "ticks": 85920,
          "time": 40.6817775,
          "velocity": 0.7007874015748031
        },
        {
          "duration": 0.227272499999998,
          "durationTicks": 480,
          "midi": 63,
          "name": "D#4",
          "ticks": 86880,
          "time": 41.136322500000006,
          "velocity": 0.7007874015748031
        },
        {
          "duration": 0.227272499999998,
          "durationTicks": 480,
          "midi": 59,
          "name": "B3",
          "ticks": 86880,
          "time": 41.136322500000006,
          "velocity": 0.7007874015748031
        },
        {
          "duration": 0.227272499999998,
          "durationTicks": 480,
          "midi": 54,
          "name": "F#3",
          "ticks": 86880,
          "time": 41.136322500000006,
          "velocity": 0.7007874015748031
        },
        {
          "duration": 0.227272499999998,
          "durationTicks": 480,
          "midi": 63,
          "name": "D#4",
          "ticks": 87840,
          "time": 41.5908675,
          "velocity": 0.7007874015748031
        },
        {
          "duration": 0.227272499999998,
          "durationTicks": 480,
          "midi": 59,
          "name": "B3",
          "ticks": 87840,
          "time": 41.5908675,
          "velocity": 0.7007874015748031
        },
        {
          "duration": 0.227272499999998,
          "durationTicks": 480,
          "midi": 54,
          "name": "F#3",
          "ticks": 87840,
          "time": 41.5908675,
          "velocity": 0.7007874015748031
        },
        {
          "duration": 0.227272499999998,
          "durationTicks": 480,
          "midi": 66,
          "name": "F#4",
          "ticks": 88800,
          "time": 42.045412500000005,
          "velocity": 0.7007874015748031
        },
        {
          "duration": 0.227272499999998,
          "durationTicks": 480,
          "midi": 58,
          "name": "A#3",
          "ticks": 88800,
          "time": 42.045412500000005,
          "velocity": 0.7007874015748031
        },
        {
          "duration": 0.227272499999998,
          "durationTicks": 480,
          "midi": 61,
          "name": "C#4",
          "ticks": 88800,
          "time": 42.045412500000005,
          "velocity": 0.7007874015748031
        },
        {
          "duration": 0.2272725000000051,
          "durationTicks": 480,
          "midi": 66,
          "name": "F#4",
          "ticks": 89760,
          "time": 42.4999575,
          "velocity": 0.7007874015748031
        },
        {
          "duration": 0.2272725000000051,
          "durationTicks": 480,
          "midi": 61,
          "name": "C#4",
          "ticks": 89760,
          "time": 42.4999575,
          "velocity": 0.7007874015748031
        },
        {
          "duration": 0.2272725000000051,
          "durationTicks": 480,
          "midi": 58,
          "name": "A#3",
          "ticks": 89760,
          "time": 42.4999575,
          "velocity": 0.7007874015748031
        },
        {
          "duration": 0.227272499999998,
          "durationTicks": 480,
          "midi": 66,
          "name": "F#4",
          "ticks": 90720,
          "time": 42.954502500000004,
          "velocity": 0.7007874015748031
        },
        {
          "duration": 0.227272499999998,
          "durationTicks": 480,
          "midi": 61,
          "name": "C#4",
          "ticks": 90720,
          "time": 42.954502500000004,
          "velocity": 0.7007874015748031
        },
        {
          "duration": 0.227272499999998,
          "durationTicks": 480,
          "midi": 58,
          "name": "A#3",
          "ticks": 90720,
          "time": 42.954502500000004,
          "velocity": 0.7007874015748031
        },
        {
          "duration": 0.2272725000000051,
          "durationTicks": 480,
          "midi": 66,
          "name": "F#4",
          "ticks": 91680,
          "time": 43.4090475,
          "velocity": 0.7007874015748031
        },
        {
          "duration": 0.2272725000000051,
          "durationTicks": 480,
          "midi": 61,
          "name": "C#4",
          "ticks": 91680,
          "time": 43.4090475,
          "velocity": 0.7007874015748031
        },
        {
          "duration": 0.2272725000000051,
          "durationTicks": 480,
          "midi": 58,
          "name": "A#3",
          "ticks": 91680,
          "time": 43.4090475,
          "velocity": 0.7007874015748031
        },
        {
          "duration": 0.227272499999998,
          "durationTicks": 480,
          "midi": 59,
          "name": "B3",
          "ticks": 92640,
          "time": 43.8635925,
          "velocity": 0.7007874015748031
        },
        {
          "duration": 0.227272499999998,
          "durationTicks": 480,
          "midi": 56,
          "name": "G#3",
          "ticks": 92640,
          "time": 43.8635925,
          "velocity": 0.7007874015748031
        },
        {
          "duration": 0.227272499999998,
          "durationTicks": 480,
          "midi": 64,
          "name": "E4",
          "ticks": 92640,
          "time": 43.8635925,
          "velocity": 0.7007874015748031
        },
        {
          "duration": 0.227272499999998,
          "durationTicks": 480,
          "midi": 66,
          "name": "F#4",
          "ticks": 92640,
          "time": 43.8635925,
          "velocity": 0.7007874015748031
        },
        {
          "duration": 0.227272499999998,
          "durationTicks": 480,
          "midi": 59,
          "name": "B3",
          "ticks": 93600,
          "time": 44.318137500000006,
          "velocity": 0.7007874015748031
        },
        {
          "duration": 0.227272499999998,
          "durationTicks": 480,
          "midi": 56,
          "name": "G#3",
          "ticks": 93600,
          "time": 44.318137500000006,
          "velocity": 0.7007874015748031
        },
        {
          "duration": 0.227272499999998,
          "durationTicks": 480,
          "midi": 64,
          "name": "E4",
          "ticks": 93600,
          "time": 44.318137500000006,
          "velocity": 0.7007874015748031
        },
        {
          "duration": 0.227272499999998,
          "durationTicks": 480,
          "midi": 66,
          "name": "F#4",
          "ticks": 93600,
          "time": 44.318137500000006,
          "velocity": 0.7007874015748031
        },
        {
          "duration": 0.227272499999998,
          "durationTicks": 480,
          "midi": 59,
          "name": "B3",
          "ticks": 94560,
          "time": 44.7726825,
          "velocity": 0.7007874015748031
        },
        {
          "duration": 0.227272499999998,
          "durationTicks": 480,
          "midi": 56,
          "name": "G#3",
          "ticks": 94560,
          "time": 44.7726825,
          "velocity": 0.7007874015748031
        },
        {
          "duration": 0.227272499999998,
          "durationTicks": 480,
          "midi": 64,
          "name": "E4",
          "ticks": 94560,
          "time": 44.7726825,
          "velocity": 0.7007874015748031
        },
        {
          "duration": 0.227272499999998,
          "durationTicks": 480,
          "midi": 66,
          "name": "F#4",
          "ticks": 94560,
          "time": 44.7726825,
          "velocity": 0.7007874015748031
        },
        {
          "duration": 0.2272725000000051,
          "durationTicks": 480,
          "midi": 63,
          "name": "D#4",
          "ticks": 96480,
          "time": 45.6817725,
          "velocity": 0.7007874015748031
        },
        {
          "duration": 0.2272725000000051,
          "durationTicks": 480,
          "midi": 59,
          "name": "B3",
          "ticks": 96480,
          "time": 45.6817725,
          "velocity": 0.7007874015748031
        },
        {
          "duration": 0.2272725000000051,
          "durationTicks": 480,
          "midi": 56,
          "name": "G#3",
          "ticks": 96480,
          "time": 45.6817725,
          "velocity": 0.7007874015748031
        },
        {
          "duration": 0.227272499999998,
          "durationTicks": 480,
          "midi": 63,
          "name": "D#4",
          "ticks": 97440,
          "time": 46.136317500000004,
          "velocity": 0.7007874015748031
        },
        {
          "duration": 0.227272499999998,
          "durationTicks": 480,
          "midi": 59,
          "name": "B3",
          "ticks": 97440,
          "time": 46.136317500000004,
          "velocity": 0.7007874015748031
        },
        {
          "duration": 0.227272499999998,
          "durationTicks": 480,
          "midi": 56,
          "name": "G#3",
          "ticks": 97440,
          "time": 46.136317500000004,
          "velocity": 0.7007874015748031
        },
        {
          "duration": 0.2272725000000051,
          "durationTicks": 480,
          "midi": 63,
          "name": "D#4",
          "ticks": 98400,
          "time": 46.5908625,
          "velocity": 0.7007874015748031
        },
        {
          "duration": 0.2272725000000051,
          "durationTicks": 480,
          "midi": 59,
          "name": "B3",
          "ticks": 98400,
          "time": 46.5908625,
          "velocity": 0.7007874015748031
        },
        {
          "duration": 0.2272725000000051,
          "durationTicks": 480,
          "midi": 56,
          "name": "G#3",
          "ticks": 98400,
          "time": 46.5908625,
          "velocity": 0.7007874015748031
        },
        {
          "duration": 0.227272499999998,
          "durationTicks": 480,
          "midi": 63,
          "name": "D#4",
          "ticks": 100320,
          "time": 47.499952500000006,
          "velocity": 0.7007874015748031
        },
        {
          "duration": 0.227272499999998,
          "durationTicks": 480,
          "midi": 59,
          "name": "B3",
          "ticks": 100320,
          "time": 47.499952500000006,
          "velocity": 0.7007874015748031
        },
        {
          "duration": 0.227272499999998,
          "durationTicks": 480,
          "midi": 54,
          "name": "F#3",
          "ticks": 100320,
          "time": 47.499952500000006,
          "velocity": 0.7007874015748031
        },
        {
          "duration": 0.227272499999998,
          "durationTicks": 480,
          "midi": 63,
          "name": "D#4",
          "ticks": 101280,
          "time": 47.9544975,
          "velocity": 0.7007874015748031
        },
        {
          "duration": 0.227272499999998,
          "durationTicks": 480,
          "midi": 59,
          "name": "B3",
          "ticks": 101280,
          "time": 47.9544975,
          "velocity": 0.7007874015748031
        },
        {
          "duration": 0.227272499999998,
          "durationTicks": 480,
          "midi": 54,
          "name": "F#3",
          "ticks": 101280,
          "time": 47.9544975,
          "velocity": 0.7007874015748031
        },
        {
          "duration": 0.227272499999998,
          "durationTicks": 480,
          "midi": 63,
          "name": "D#4",
          "ticks": 102240,
          "time": 48.409042500000005,
          "velocity": 0.7007874015748031
        },
        {
          "duration": 0.227272499999998,
          "durationTicks": 480,
          "midi": 59,
          "name": "B3",
          "ticks": 102240,
          "time": 48.409042500000005,
          "velocity": 0.7007874015748031
        },
        {
          "duration": 0.227272499999998,
          "durationTicks": 480,
          "midi": 54,
          "name": "F#3",
          "ticks": 102240,
          "time": 48.409042500000005,
          "velocity": 0.7007874015748031
        },
        {
          "duration": 0.227272499999998,
          "durationTicks": 480,
          "midi": 66,
          "name": "F#4",
          "ticks": 104160,
          "time": 49.318132500000004,
          "velocity": 0.7007874015748031
        },
        {
          "duration": 0.227272499999998,
          "durationTicks": 480,
          "midi": 58,
          "name": "A#3",
          "ticks": 104160,
          "time": 49.318132500000004,
          "velocity": 0.7007874015748031
        },
        {
          "duration": 0.227272499999998,
          "durationTicks": 480,
          "midi": 61,
          "name": "C#4",
          "ticks": 104160,
          "time": 49.318132500000004,
          "velocity": 0.7007874015748031
        },
        {
          "duration": 0.2272725000000051,
          "durationTicks": 480,
          "midi": 66,
          "name": "F#4",
          "ticks": 105120,
          "time": 49.7726775,
          "velocity": 0.7007874015748031
        },
        {
          "duration": 0.2272725000000051,
          "durationTicks": 480,
          "midi": 61,
          "name": "C#4",
          "ticks": 105120,
          "time": 49.7726775,
          "velocity": 0.7007874015748031
        },
        {
          "duration": 0.2272725000000051,
          "durationTicks": 480,
          "midi": 58,
          "name": "A#3",
          "ticks": 105120,
          "time": 49.7726775,
          "velocity": 0.7007874015748031
        },
        {
          "duration": 0.227272499999998,
          "durationTicks": 480,
          "midi": 66,
          "name": "F#4",
          "ticks": 106080,
          "time": 50.2272225,
          "velocity": 0.7007874015748031
        },
        {
          "duration": 0.227272499999998,
          "durationTicks": 480,
          "midi": 61,
          "name": "C#4",
          "ticks": 106080,
          "time": 50.2272225,
          "velocity": 0.7007874015748031
        },
        {
          "duration": 0.227272499999998,
          "durationTicks": 480,
          "midi": 58,
          "name": "A#3",
          "ticks": 106080,
          "time": 50.2272225,
          "velocity": 0.7007874015748031
        },
        {
          "duration": 0.227272499999998,
          "durationTicks": 480,
          "midi": 66,
          "name": "F#4",
          "ticks": 107040,
          "time": 50.68176750000001,
          "velocity": 0.7007874015748031
        },
        {
          "duration": 0.227272499999998,
          "durationTicks": 480,
          "midi": 61,
          "name": "C#4",
          "ticks": 107040,
          "time": 50.68176750000001,
          "velocity": 0.7007874015748031
        },
        {
          "duration": 0.227272499999998,
          "durationTicks": 480,
          "midi": 58,
          "name": "A#3",
          "ticks": 107040,
          "time": 50.68176750000001,
          "velocity": 0.7007874015748031
        },
        {
          "duration": 0.227272499999998,
          "durationTicks": 480,
          "midi": 59,
          "name": "B3",
          "ticks": 108000,
          "time": 51.1363125,
          "velocity": 0.7007874015748031
        },
        {
          "duration": 0.227272499999998,
          "durationTicks": 480,
          "midi": 56,
          "name": "G#3",
          "ticks": 108000,
          "time": 51.1363125,
          "velocity": 0.7007874015748031
        },
        {
          "duration": 0.227272499999998,
          "durationTicks": 480,
          "midi": 64,
          "name": "E4",
          "ticks": 108000,
          "time": 51.1363125,
          "velocity": 0.7007874015748031
        },
        {
          "duration": 0.227272499999998,
          "durationTicks": 480,
          "midi": 66,
          "name": "F#4",
          "ticks": 108000,
          "time": 51.1363125,
          "velocity": 0.7007874015748031
        },
        {
          "duration": 0.227272499999998,
          "durationTicks": 480,
          "midi": 59,
          "name": "B3",
          "ticks": 108960,
          "time": 51.590857500000006,
          "velocity": 0.7007874015748031
        },
        {
          "duration": 0.227272499999998,
          "durationTicks": 480,
          "midi": 56,
          "name": "G#3",
          "ticks": 108960,
          "time": 51.590857500000006,
          "velocity": 0.7007874015748031
        },
        {
          "duration": 0.227272499999998,
          "durationTicks": 480,
          "midi": 64,
          "name": "E4",
          "ticks": 108960,
          "time": 51.590857500000006,
          "velocity": 0.7007874015748031
        },
        {
          "duration": 0.227272499999998,
          "durationTicks": 480,
          "midi": 66,
          "name": "F#4",
          "ticks": 108960,
          "time": 51.590857500000006,
          "velocity": 0.7007874015748031
        },
        {
          "duration": 0.2272725000000051,
          "durationTicks": 480,
          "midi": 59,
          "name": "B3",
          "ticks": 109920,
          "time": 52.0454025,
          "velocity": 0.7007874015748031
        },
        {
          "duration": 0.2272725000000051,
          "durationTicks": 480,
          "midi": 56,
          "name": "G#3",
          "ticks": 109920,
          "time": 52.0454025,
          "velocity": 0.7007874015748031
        },
        {
          "duration": 0.2272725000000051,
          "durationTicks": 480,
          "midi": 64,
          "name": "E4",
          "ticks": 109920,
          "time": 52.0454025,
          "velocity": 0.7007874015748031
        },
        {
          "duration": 0.2272725000000051,
          "durationTicks": 480,
          "midi": 66,
          "name": "F#4",
          "ticks": 109920,
          "time": 52.0454025,
          "velocity": 0.7007874015748031
        },
        {
          "duration": 0.2272725000000051,
          "durationTicks": 480,
          "midi": 63,
          "name": "D#4",
          "ticks": 111840,
          "time": 52.9544925,
          "velocity": 0.7007874015748031
        },
        {
          "duration": 0.2272725000000051,
          "durationTicks": 480,
          "midi": 59,
          "name": "B3",
          "ticks": 111840,
          "time": 52.9544925,
          "velocity": 0.7007874015748031
        },
        {
          "duration": 0.2272725000000051,
          "durationTicks": 480,
          "midi": 56,
          "name": "G#3",
          "ticks": 111840,
          "time": 52.9544925,
          "velocity": 0.7007874015748031
        },
        {
          "duration": 0.227272499999998,
          "durationTicks": 480,
          "midi": 63,
          "name": "D#4",
          "ticks": 112800,
          "time": 53.409037500000004,
          "velocity": 0.7007874015748031
        },
        {
          "duration": 0.227272499999998,
          "durationTicks": 480,
          "midi": 59,
          "name": "B3",
          "ticks": 112800,
          "time": 53.409037500000004,
          "velocity": 0.7007874015748031
        },
        {
          "duration": 0.227272499999998,
          "durationTicks": 480,
          "midi": 56,
          "name": "G#3",
          "ticks": 112800,
          "time": 53.409037500000004,
          "velocity": 0.7007874015748031
        },
        {
          "duration": 0.227272499999998,
          "durationTicks": 480,
          "midi": 63,
          "name": "D#4",
          "ticks": 113760,
          "time": 53.86358250000001,
          "velocity": 0.7007874015748031
        },
        {
          "duration": 0.227272499999998,
          "durationTicks": 480,
          "midi": 59,
          "name": "B3",
          "ticks": 113760,
          "time": 53.86358250000001,
          "velocity": 0.7007874015748031
        },
        {
          "duration": 0.227272499999998,
          "durationTicks": 480,
          "midi": 56,
          "name": "G#3",
          "ticks": 113760,
          "time": 53.86358250000001,
          "velocity": 0.7007874015748031
        },
        {
          "duration": 0.227272499999998,
          "durationTicks": 480,
          "midi": 63,
          "name": "D#4",
          "ticks": 114720,
          "time": 54.3181275,
          "velocity": 0.7007874015748031
        },
        {
          "duration": 0.227272499999998,
          "durationTicks": 480,
          "midi": 59,
          "name": "B3",
          "ticks": 114720,
          "time": 54.3181275,
          "velocity": 0.7007874015748031
        },
        {
          "duration": 0.227272499999998,
          "durationTicks": 480,
          "midi": 56,
          "name": "G#3",
          "ticks": 114720,
          "time": 54.3181275,
          "velocity": 0.7007874015748031
        },
        {
          "duration": 0.227272499999998,
          "durationTicks": 480,
          "midi": 63,
          "name": "D#4",
          "ticks": 115680,
          "time": 54.772672500000006,
          "velocity": 0.7007874015748031
        },
        {
          "duration": 0.227272499999998,
          "durationTicks": 480,
          "midi": 59,
          "name": "B3",
          "ticks": 115680,
          "time": 54.772672500000006,
          "velocity": 0.7007874015748031
        },
        {
          "duration": 0.227272499999998,
          "durationTicks": 480,
          "midi": 54,
          "name": "F#3",
          "ticks": 115680,
          "time": 54.772672500000006,
          "velocity": 0.7007874015748031
        },
        {
          "duration": 0.2272725000000051,
          "durationTicks": 480,
          "midi": 63,
          "name": "D#4",
          "ticks": 116640,
          "time": 55.2272175,
          "velocity": 0.7007874015748031
        },
        {
          "duration": 0.2272725000000051,
          "durationTicks": 480,
          "midi": 59,
          "name": "B3",
          "ticks": 116640,
          "time": 55.2272175,
          "velocity": 0.7007874015748031
        },
        {
          "duration": 0.2272725000000051,
          "durationTicks": 480,
          "midi": 54,
          "name": "F#3",
          "ticks": 116640,
          "time": 55.2272175,
          "velocity": 0.7007874015748031
        },
        {
          "duration": 0.227272499999998,
          "durationTicks": 480,
          "midi": 63,
          "name": "D#4",
          "ticks": 117600,
          "time": 55.681762500000005,
          "velocity": 0.7007874015748031
        },
        {
          "duration": 0.227272499999998,
          "durationTicks": 480,
          "midi": 59,
          "name": "B3",
          "ticks": 117600,
          "time": 55.681762500000005,
          "velocity": 0.7007874015748031
        },
        {
          "duration": 0.227272499999998,
          "durationTicks": 480,
          "midi": 54,
          "name": "F#3",
          "ticks": 117600,
          "time": 55.681762500000005,
          "velocity": 0.7007874015748031
        },
        {
          "duration": 0.2272725000000051,
          "durationTicks": 480,
          "midi": 63,
          "name": "D#4",
          "ticks": 118560,
          "time": 56.1363075,
          "velocity": 0.7007874015748031
        },
        {
          "duration": 0.2272725000000051,
          "durationTicks": 480,
          "midi": 59,
          "name": "B3",
          "ticks": 118560,
          "time": 56.1363075,
          "velocity": 0.7007874015748031
        },
        {
          "duration": 0.2272725000000051,
          "durationTicks": 480,
          "midi": 54,
          "name": "F#3",
          "ticks": 118560,
          "time": 56.1363075,
          "velocity": 0.7007874015748031
        },
        {
          "duration": 0.227272499999998,
          "durationTicks": 480,
          "midi": 66,
          "name": "F#4",
          "ticks": 119520,
          "time": 56.590852500000004,
          "velocity": 0.7007874015748031
        },
        {
          "duration": 0.227272499999998,
          "durationTicks": 480,
          "midi": 58,
          "name": "A#3",
          "ticks": 119520,
          "time": 56.590852500000004,
          "velocity": 0.7007874015748031
        },
        {
          "duration": 0.227272499999998,
          "durationTicks": 480,
          "midi": 61,
          "name": "C#4",
          "ticks": 119520,
          "time": 56.590852500000004,
          "velocity": 0.7007874015748031
        },
        {
          "duration": 0.227272499999998,
          "durationTicks": 480,
          "midi": 66,
          "name": "F#4",
          "ticks": 120480,
          "time": 57.04539750000001,
          "velocity": 0.7007874015748031
        },
        {
          "duration": 0.227272499999998,
          "durationTicks": 480,
          "midi": 61,
          "name": "C#4",
          "ticks": 120480,
          "time": 57.04539750000001,
          "velocity": 0.7007874015748031
        },
        {
          "duration": 0.227272499999998,
          "durationTicks": 480,
          "midi": 58,
          "name": "A#3",
          "ticks": 120480,
          "time": 57.04539750000001,
          "velocity": 0.7007874015748031
        },
        {
          "duration": 0.227272499999998,
          "durationTicks": 480,
          "midi": 66,
          "name": "F#4",
          "ticks": 121440,
          "time": 57.4999425,
          "velocity": 0.7007874015748031
        },
        {
          "duration": 0.227272499999998,
          "durationTicks": 480,
          "midi": 61,
          "name": "C#4",
          "ticks": 121440,
          "time": 57.4999425,
          "velocity": 0.7007874015748031
        },
        {
          "duration": 0.227272499999998,
          "durationTicks": 480,
          "midi": 58,
          "name": "A#3",
          "ticks": 121440,
          "time": 57.4999425,
          "velocity": 0.7007874015748031
        },
        {
          "duration": 0.227272499999998,
          "durationTicks": 480,
          "midi": 66,
          "name": "F#4",
          "ticks": 122400,
          "time": 57.954487500000006,
          "velocity": 0.7007874015748031
        },
        {
          "duration": 0.227272499999998,
          "durationTicks": 480,
          "midi": 61,
          "name": "C#4",
          "ticks": 122400,
          "time": 57.954487500000006,
          "velocity": 0.7007874015748031
        },
        {
          "duration": 0.227272499999998,
          "durationTicks": 480,
          "midi": 58,
          "name": "A#3",
          "ticks": 122400,
          "time": 57.954487500000006,
          "velocity": 0.7007874015748031
        },
        {
          "duration": 0.2272725000000051,
          "durationTicks": 480,
          "midi": 59,
          "name": "B3",
          "ticks": 123360,
          "time": 58.4090325,
          "velocity": 0.7007874015748031
        },
        {
          "duration": 0.2272725000000051,
          "durationTicks": 480,
          "midi": 56,
          "name": "G#3",
          "ticks": 123360,
          "time": 58.4090325,
          "velocity": 0.7007874015748031
        },
        {
          "duration": 0.2272725000000051,
          "durationTicks": 480,
          "midi": 64,
          "name": "E4",
          "ticks": 123360,
          "time": 58.4090325,
          "velocity": 0.7007874015748031
        },
        {
          "duration": 0.2272725000000051,
          "durationTicks": 480,
          "midi": 66,
          "name": "F#4",
          "ticks": 123360,
          "time": 58.4090325,
          "velocity": 0.7007874015748031
        },
        {
          "duration": 0.227272499999998,
          "durationTicks": 480,
          "midi": 59,
          "name": "B3",
          "ticks": 124320,
          "time": 58.863577500000005,
          "velocity": 0.7007874015748031
        },
        {
          "duration": 0.227272499999998,
          "durationTicks": 480,
          "midi": 56,
          "name": "G#3",
          "ticks": 124320,
          "time": 58.863577500000005,
          "velocity": 0.7007874015748031
        },
        {
          "duration": 0.227272499999998,
          "durationTicks": 480,
          "midi": 64,
          "name": "E4",
          "ticks": 124320,
          "time": 58.863577500000005,
          "velocity": 0.7007874015748031
        },
        {
          "duration": 0.227272499999998,
          "durationTicks": 480,
          "midi": 66,
          "name": "F#4",
          "ticks": 124320,
          "time": 58.863577500000005,
          "velocity": 0.7007874015748031
        },
        {
          "duration": 0.2272725000000051,
          "durationTicks": 480,
          "midi": 59,
          "name": "B3",
          "ticks": 125280,
          "time": 59.3181225,
          "velocity": 0.7007874015748031
        },
        {
          "duration": 0.2272725000000051,
          "durationTicks": 480,
          "midi": 56,
          "name": "G#3",
          "ticks": 125280,
          "time": 59.3181225,
          "velocity": 0.7007874015748031
        },
        {
          "duration": 0.2272725000000051,
          "durationTicks": 480,
          "midi": 64,
          "name": "E4",
          "ticks": 125280,
          "time": 59.3181225,
          "velocity": 0.7007874015748031
        },
        {
          "duration": 0.227272499999998,
          "durationTicks": 480,
          "midi": 59,
          "name": "B3",
          "ticks": 126240,
          "time": 59.772667500000004,
          "velocity": 0.7007874015748031
        },
        {
          "duration": 0.227272499999998,
          "durationTicks": 480,
          "midi": 56,
          "name": "G#3",
          "ticks": 126240,
          "time": 59.772667500000004,
          "velocity": 0.7007874015748031
        },
        {
          "duration": 0.227272499999998,
          "durationTicks": 480,
          "midi": 64,
          "name": "E4",
          "ticks": 126240,
          "time": 59.772667500000004,
          "velocity": 0.7007874015748031
        },
        {
          "duration": 0.227272499999998,
          "durationTicks": 480,
          "midi": 63,
          "name": "D#4",
          "ticks": 127200,
          "time": 60.22721250000001,
          "velocity": 0.7007874015748031
        },
        {
          "duration": 0.227272499999998,
          "durationTicks": 480,
          "midi": 59,
          "name": "B3",
          "ticks": 127200,
          "time": 60.22721250000001,
          "velocity": 0.7007874015748031
        },
        {
          "duration": 0.227272499999998,
          "durationTicks": 480,
          "midi": 56,
          "name": "G#3",
          "ticks": 127200,
          "time": 60.22721250000001,
          "velocity": 0.7007874015748031
        },
        {
          "duration": 0.227272499999998,
          "durationTicks": 480,
          "midi": 63,
          "name": "D#4",
          "ticks": 128160,
          "time": 60.6817575,
          "velocity": 0.7007874015748031
        },
        {
          "duration": 0.227272499999998,
          "durationTicks": 480,
          "midi": 59,
          "name": "B3",
          "ticks": 128160,
          "time": 60.6817575,
          "velocity": 0.7007874015748031
        },
        {
          "duration": 0.227272499999998,
          "durationTicks": 480,
          "midi": 56,
          "name": "G#3",
          "ticks": 128160,
          "time": 60.6817575,
          "velocity": 0.7007874015748031
        },
        {
          "duration": 0.227272499999998,
          "durationTicks": 480,
          "midi": 63,
          "name": "D#4",
          "ticks": 129120,
          "time": 61.136302500000006,
          "velocity": 0.7007874015748031
        },
        {
          "duration": 0.227272499999998,
          "durationTicks": 480,
          "midi": 59,
          "name": "B3",
          "ticks": 129120,
          "time": 61.136302500000006,
          "velocity": 0.7007874015748031
        },
        {
          "duration": 0.227272499999998,
          "durationTicks": 480,
          "midi": 56,
          "name": "G#3",
          "ticks": 129120,
          "time": 61.136302500000006,
          "velocity": 0.7007874015748031
        },
        {
          "duration": 0.2272725000000051,
          "durationTicks": 480,
          "midi": 63,
          "name": "D#4",
          "ticks": 130080,
          "time": 61.5908475,
          "velocity": 0.7007874015748031
        },
        {
          "duration": 0.2272725000000051,
          "durationTicks": 480,
          "midi": 59,
          "name": "B3",
          "ticks": 130080,
          "time": 61.5908475,
          "velocity": 0.7007874015748031
        },
        {
          "duration": 0.2272725000000051,
          "durationTicks": 480,
          "midi": 56,
          "name": "G#3",
          "ticks": 130080,
          "time": 61.5908475,
          "velocity": 0.7007874015748031
        },
        {
          "duration": 0.227272499999998,
          "durationTicks": 480,
          "midi": 63,
          "name": "D#4",
          "ticks": 131040,
          "time": 62.045392500000005,
          "velocity": 0.7007874015748031
        },
        {
          "duration": 0.227272499999998,
          "durationTicks": 480,
          "midi": 59,
          "name": "B3",
          "ticks": 131040,
          "time": 62.045392500000005,
          "velocity": 0.7007874015748031
        },
        {
          "duration": 0.227272499999998,
          "durationTicks": 480,
          "midi": 54,
          "name": "F#3",
          "ticks": 131040,
          "time": 62.045392500000005,
          "velocity": 0.7007874015748031
        },
        {
          "duration": 0.2272725000000051,
          "durationTicks": 480,
          "midi": 63,
          "name": "D#4",
          "ticks": 132000,
          "time": 62.4999375,
          "velocity": 0.7007874015748031
        },
        {
          "duration": 0.2272725000000051,
          "durationTicks": 480,
          "midi": 59,
          "name": "B3",
          "ticks": 132000,
          "time": 62.4999375,
          "velocity": 0.7007874015748031
        },
        {
          "duration": 0.2272725000000051,
          "durationTicks": 480,
          "midi": 54,
          "name": "F#3",
          "ticks": 132000,
          "time": 62.4999375,
          "velocity": 0.7007874015748031
        },
        {
          "duration": 0.227272499999998,
          "durationTicks": 480,
          "midi": 63,
          "name": "D#4",
          "ticks": 132960,
          "time": 62.954482500000005,
          "velocity": 0.7007874015748031
        },
        {
          "duration": 0.227272499999998,
          "durationTicks": 480,
          "midi": 59,
          "name": "B3",
          "ticks": 132960,
          "time": 62.954482500000005,
          "velocity": 0.7007874015748031
        },
        {
          "duration": 0.227272499999998,
          "durationTicks": 480,
          "midi": 54,
          "name": "F#3",
          "ticks": 132960,
          "time": 62.954482500000005,
          "velocity": 0.7007874015748031
        },
        {
          "duration": 0.227272499999998,
          "durationTicks": 480,
          "midi": 63,
          "name": "D#4",
          "ticks": 133920,
          "time": 63.40902750000001,
          "velocity": 0.7007874015748031
        },
        {
          "duration": 0.227272499999998,
          "durationTicks": 480,
          "midi": 59,
          "name": "B3",
          "ticks": 133920,
          "time": 63.40902750000001,
          "velocity": 0.7007874015748031
        },
        {
          "duration": 0.227272499999998,
          "durationTicks": 480,
          "midi": 54,
          "name": "F#3",
          "ticks": 133920,
          "time": 63.40902750000001,
          "velocity": 0.7007874015748031
        },
        {
          "duration": 0.227272499999998,
          "durationTicks": 480,
          "midi": 66,
          "name": "F#4",
          "ticks": 134880,
          "time": 63.863572500000004,
          "velocity": 0.7007874015748031
        },
        {
          "duration": 0.227272499999998,
          "durationTicks": 480,
          "midi": 58,
          "name": "A#3",
          "ticks": 134880,
          "time": 63.863572500000004,
          "velocity": 0.7007874015748031
        },
        {
          "duration": 0.227272499999998,
          "durationTicks": 480,
          "midi": 61,
          "name": "C#4",
          "ticks": 134880,
          "time": 63.863572500000004,
          "velocity": 0.7007874015748031
        },
        {
          "duration": 0.227272499999998,
          "durationTicks": 480,
          "midi": 66,
          "name": "F#4",
          "ticks": 135840,
          "time": 64.3181175,
          "velocity": 0.7007874015748031
        },
        {
          "duration": 0.227272499999998,
          "durationTicks": 480,
          "midi": 61,
          "name": "C#4",
          "ticks": 135840,
          "time": 64.3181175,
          "velocity": 0.7007874015748031
        },
        {
          "duration": 0.227272499999998,
          "durationTicks": 480,
          "midi": 58,
          "name": "A#3",
          "ticks": 135840,
          "time": 64.3181175,
          "velocity": 0.7007874015748031
        },
        {
          "duration": 0.227272499999998,
          "durationTicks": 480,
          "midi": 66,
          "name": "F#4",
          "ticks": 136800,
          "time": 64.77266250000001,
          "velocity": 0.7007874015748031
        },
        {
          "duration": 0.227272499999998,
          "durationTicks": 480,
          "midi": 61,
          "name": "C#4",
          "ticks": 136800,
          "time": 64.77266250000001,
          "velocity": 0.7007874015748031
        },
        {
          "duration": 0.227272499999998,
          "durationTicks": 480,
          "midi": 58,
          "name": "A#3",
          "ticks": 136800,
          "time": 64.77266250000001,
          "velocity": 0.7007874015748031
        },
        {
          "duration": 0.227272499999998,
          "durationTicks": 480,
          "midi": 66,
          "name": "F#4",
          "ticks": 137760,
          "time": 65.2272075,
          "velocity": 0.7007874015748031
        },
        {
          "duration": 0.227272499999998,
          "durationTicks": 480,
          "midi": 61,
          "name": "C#4",
          "ticks": 137760,
          "time": 65.2272075,
          "velocity": 0.7007874015748031
        },
        {
          "duration": 0.227272499999998,
          "durationTicks": 480,
          "midi": 58,
          "name": "A#3",
          "ticks": 137760,
          "time": 65.2272075,
          "velocity": 0.7007874015748031
        },
        {
          "duration": 0.227272499999998,
          "durationTicks": 480,
          "midi": 59,
          "name": "B3",
          "ticks": 138720,
          "time": 65.6817525,
          "velocity": 0.7007874015748031
        },
        {
          "duration": 0.227272499999998,
          "durationTicks": 480,
          "midi": 56,
          "name": "G#3",
          "ticks": 138720,
          "time": 65.6817525,
          "velocity": 0.7007874015748031
        },
        {
          "duration": 0.227272499999998,
          "durationTicks": 480,
          "midi": 64,
          "name": "E4",
          "ticks": 138720,
          "time": 65.6817525,
          "velocity": 0.7007874015748031
        },
        {
          "duration": 0.227272499999998,
          "durationTicks": 480,
          "midi": 66,
          "name": "F#4",
          "ticks": 138720,
          "time": 65.6817525,
          "velocity": 0.7007874015748031
        },
        {
          "duration": 0.2272725000000122,
          "durationTicks": 480,
          "midi": 59,
          "name": "B3",
          "ticks": 139680,
          "time": 66.1362975,
          "velocity": 0.7007874015748031
        },
        {
          "duration": 0.2272725000000122,
          "durationTicks": 480,
          "midi": 56,
          "name": "G#3",
          "ticks": 139680,
          "time": 66.1362975,
          "velocity": 0.7007874015748031
        },
        {
          "duration": 0.2272725000000122,
          "durationTicks": 480,
          "midi": 64,
          "name": "E4",
          "ticks": 139680,
          "time": 66.1362975,
          "velocity": 0.7007874015748031
        },
        {
          "duration": 0.2272725000000122,
          "durationTicks": 480,
          "midi": 66,
          "name": "F#4",
          "ticks": 139680,
          "time": 66.1362975,
          "velocity": 0.7007874015748031
        },
        {
          "duration": 0.227272499999998,
          "durationTicks": 480,
          "midi": 59,
          "name": "B3",
          "ticks": 140640,
          "time": 66.59084250000001,
          "velocity": 0.7007874015748031
        },
        {
          "duration": 0.227272499999998,
          "durationTicks": 480,
          "midi": 56,
          "name": "G#3",
          "ticks": 140640,
          "time": 66.59084250000001,
          "velocity": 0.7007874015748031
        },
        {
          "duration": 0.227272499999998,
          "durationTicks": 480,
          "midi": 64,
          "name": "E4",
          "ticks": 140640,
          "time": 66.59084250000001,
          "velocity": 0.7007874015748031
        },
        {
          "duration": 0.227272499999998,
          "durationTicks": 480,
          "midi": 59,
          "name": "B3",
          "ticks": 141600,
          "time": 67.0453875,
          "velocity": 0.7007874015748031
        },
        {
          "duration": 0.227272499999998,
          "durationTicks": 480,
          "midi": 56,
          "name": "G#3",
          "ticks": 141600,
          "time": 67.0453875,
          "velocity": 0.7007874015748031
        },
        {
          "duration": 0.227272499999998,
          "durationTicks": 480,
          "midi": 64,
          "name": "E4",
          "ticks": 141600,
          "time": 67.0453875,
          "velocity": 0.7007874015748031
        },
        {
          "duration": 0.227272499999998,
          "durationTicks": 480,
          "midi": 63,
          "name": "D#4",
          "ticks": 142080,
          "time": 67.27266,
          "velocity": 0.7007874015748031
        },
        {
          "duration": 0.227272499999998,
          "durationTicks": 480,
          "midi": 59,
          "name": "B3",
          "ticks": 142080,
          "time": 67.27266,
          "velocity": 0.7007874015748031
        },
        {
          "duration": 0.227272499999998,
          "durationTicks": 480,
          "midi": 56,
          "name": "G#3",
          "ticks": 142080,
          "time": 67.27266,
          "velocity": 0.7007874015748031
        },
        {
          "duration": 0.227272499999998,
          "durationTicks": 480,
          "midi": 63,
          "name": "D#4",
          "ticks": 142560,
          "time": 67.4999325,
          "velocity": 0.7007874015748031
        },
        {
          "duration": 0.227272499999998,
          "durationTicks": 480,
          "midi": 59,
          "name": "B3",
          "ticks": 142560,
          "time": 67.4999325,
          "velocity": 0.7007874015748031
        },
        {
          "duration": 0.227272499999998,
          "durationTicks": 480,
          "midi": 56,
          "name": "G#3",
          "ticks": 142560,
          "time": 67.4999325,
          "velocity": 0.7007874015748031
        },
        {
          "duration": 0.227272499999998,
          "durationTicks": 480,
          "midi": 63,
          "name": "D#4",
          "ticks": 143520,
          "time": 67.95447750000001,
          "velocity": 0.7007874015748031
        },
        {
          "duration": 0.227272499999998,
          "durationTicks": 480,
          "midi": 59,
          "name": "B3",
          "ticks": 143520,
          "time": 67.95447750000001,
          "velocity": 0.7007874015748031
        },
        {
          "duration": 0.227272499999998,
          "durationTicks": 480,
          "midi": 56,
          "name": "G#3",
          "ticks": 143520,
          "time": 67.95447750000001,
          "velocity": 0.7007874015748031
        },
        {
          "duration": 0.227272499999998,
          "durationTicks": 480,
          "midi": 63,
          "name": "D#4",
          "ticks": 144480,
          "time": 68.4090225,
          "velocity": 0.7007874015748031
        },
        {
          "duration": 0.227272499999998,
          "durationTicks": 480,
          "midi": 59,
          "name": "B3",
          "ticks": 144480,
          "time": 68.4090225,
          "velocity": 0.7007874015748031
        },
        {
          "duration": 0.227272499999998,
          "durationTicks": 480,
          "midi": 56,
          "name": "G#3",
          "ticks": 144480,
          "time": 68.4090225,
          "velocity": 0.7007874015748031
        },
        {
          "duration": 0.227272499999998,
          "durationTicks": 480,
          "midi": 63,
          "name": "D#4",
          "ticks": 145920,
          "time": 69.09084,
          "velocity": 0.7007874015748031
        },
        {
          "duration": 0.227272499999998,
          "durationTicks": 480,
          "midi": 59,
          "name": "B3",
          "ticks": 145920,
          "time": 69.09084,
          "velocity": 0.7007874015748031
        },
        {
          "duration": 0.227272499999998,
          "durationTicks": 480,
          "midi": 54,
          "name": "F#3",
          "ticks": 145920,
          "time": 69.09084,
          "velocity": 0.7007874015748031
        },
        {
          "duration": 0.2272725000000122,
          "durationTicks": 480,
          "midi": 63,
          "name": "D#4",
          "ticks": 146400,
          "time": 69.3181125,
          "velocity": 0.7007874015748031
        },
        {
          "duration": 0.2272725000000122,
          "durationTicks": 480,
          "midi": 59,
          "name": "B3",
          "ticks": 146400,
          "time": 69.3181125,
          "velocity": 0.7007874015748031
        },
        {
          "duration": 0.2272725000000122,
          "durationTicks": 480,
          "midi": 54,
          "name": "F#3",
          "ticks": 146400,
          "time": 69.3181125,
          "velocity": 0.7007874015748031
        },
        {
          "duration": 0.227272499999998,
          "durationTicks": 480,
          "midi": 63,
          "name": "D#4",
          "ticks": 147360,
          "time": 69.77265750000001,
          "velocity": 0.7007874015748031
        },
        {
          "duration": 0.227272499999998,
          "durationTicks": 480,
          "midi": 59,
          "name": "B3",
          "ticks": 147360,
          "time": 69.77265750000001,
          "velocity": 0.7007874015748031
        },
        {
          "duration": 0.227272499999998,
          "durationTicks": 480,
          "midi": 54,
          "name": "F#3",
          "ticks": 147360,
          "time": 69.77265750000001,
          "velocity": 0.7007874015748031
        },
        {
          "duration": 0.227272499999998,
          "durationTicks": 480,
          "midi": 63,
          "name": "D#4",
          "ticks": 148320,
          "time": 70.2272025,
          "velocity": 0.7007874015748031
        },
        {
          "duration": 0.227272499999998,
          "durationTicks": 480,
          "midi": 59,
          "name": "B3",
          "ticks": 148320,
          "time": 70.2272025,
          "velocity": 0.7007874015748031
        },
        {
          "duration": 0.227272499999998,
          "durationTicks": 480,
          "midi": 54,
          "name": "F#3",
          "ticks": 148320,
          "time": 70.2272025,
          "velocity": 0.7007874015748031
        },
        {
          "duration": 0.2272725000000122,
          "durationTicks": 480,
          "midi": 66,
          "name": "F#4",
          "ticks": 149760,
          "time": 70.90902,
          "velocity": 0.7007874015748031
        },
        {
          "duration": 0.2272725000000122,
          "durationTicks": 480,
          "midi": 58,
          "name": "A#3",
          "ticks": 149760,
          "time": 70.90902,
          "velocity": 0.7007874015748031
        },
        {
          "duration": 0.2272725000000122,
          "durationTicks": 480,
          "midi": 61,
          "name": "C#4",
          "ticks": 149760,
          "time": 70.90902,
          "velocity": 0.7007874015748031
        },
        {
          "duration": 0.227272499999998,
          "durationTicks": 480,
          "midi": 66,
          "name": "F#4",
          "ticks": 150240,
          "time": 71.13629250000001,
          "velocity": 0.7007874015748031
        },
        {
          "duration": 0.227272499999998,
          "durationTicks": 480,
          "midi": 61,
          "name": "C#4",
          "ticks": 150240,
          "time": 71.13629250000001,
          "velocity": 0.7007874015748031
        },
        {
          "duration": 0.227272499999998,
          "durationTicks": 480,
          "midi": 58,
          "name": "A#3",
          "ticks": 150240,
          "time": 71.13629250000001,
          "velocity": 0.7007874015748031
        },
        {
          "duration": 0.227272499999998,
          "durationTicks": 480,
          "midi": 66,
          "name": "F#4",
          "ticks": 151200,
          "time": 71.5908375,
          "velocity": 0.7007874015748031
        },
        {
          "duration": 0.227272499999998,
          "durationTicks": 480,
          "midi": 61,
          "name": "C#4",
          "ticks": 151200,
          "time": 71.5908375,
          "velocity": 0.7007874015748031
        },
        {
          "duration": 0.227272499999998,
          "durationTicks": 480,
          "midi": 58,
          "name": "A#3",
          "ticks": 151200,
          "time": 71.5908375,
          "velocity": 0.7007874015748031
        },
        {
          "duration": 0.227272499999998,
          "durationTicks": 480,
          "midi": 66,
          "name": "F#4",
          "ticks": 152160,
          "time": 72.0453825,
          "velocity": 0.7007874015748031
        },
        {
          "duration": 0.227272499999998,
          "durationTicks": 480,
          "midi": 61,
          "name": "C#4",
          "ticks": 152160,
          "time": 72.0453825,
          "velocity": 0.7007874015748031
        },
        {
          "duration": 0.227272499999998,
          "durationTicks": 480,
          "midi": 58,
          "name": "A#3",
          "ticks": 152160,
          "time": 72.0453825,
          "velocity": 0.7007874015748031
        },
        {
          "duration": 0.227272499999998,
          "durationTicks": 480,
          "midi": 59,
          "name": "B3",
          "ticks": 153600,
          "time": 72.72720000000001,
          "velocity": 0.7007874015748031
        },
        {
          "duration": 0.227272499999998,
          "durationTicks": 480,
          "midi": 56,
          "name": "G#3",
          "ticks": 153600,
          "time": 72.72720000000001,
          "velocity": 0.7007874015748031
        },
        {
          "duration": 0.227272499999998,
          "durationTicks": 480,
          "midi": 64,
          "name": "E4",
          "ticks": 153600,
          "time": 72.72720000000001,
          "velocity": 0.7007874015748031
        },
        {
          "duration": 0.227272499999998,
          "durationTicks": 480,
          "midi": 59,
          "name": "B3",
          "ticks": 154080,
          "time": 72.95447250000001,
          "velocity": 0.7007874015748031
        },
        {
          "duration": 0.227272499999998,
          "durationTicks": 480,
          "midi": 56,
          "name": "G#3",
          "ticks": 154080,
          "time": 72.95447250000001,
          "velocity": 0.7007874015748031
        },
        {
          "duration": 0.227272499999998,
          "durationTicks": 480,
          "midi": 64,
          "name": "E4",
          "ticks": 154080,
          "time": 72.95447250000001,
          "velocity": 0.7007874015748031
        },
        {
          "duration": 0.227272499999998,
          "durationTicks": 480,
          "midi": 59,
          "name": "B3",
          "ticks": 155040,
          "time": 73.4090175,
          "velocity": 0.7007874015748031
        },
        {
          "duration": 0.227272499999998,
          "durationTicks": 480,
          "midi": 56,
          "name": "G#3",
          "ticks": 155040,
          "time": 73.4090175,
          "velocity": 0.7007874015748031
        },
        {
          "duration": 0.227272499999998,
          "durationTicks": 480,
          "midi": 64,
          "name": "E4",
          "ticks": 155040,
          "time": 73.4090175,
          "velocity": 0.7007874015748031
        },
        {
          "duration": 0.227272499999998,
          "durationTicks": 480,
          "midi": 59,
          "name": "B3",
          "ticks": 156000,
          "time": 73.8635625,
          "velocity": 0.7007874015748031
        },
        {
          "duration": 0.227272499999998,
          "durationTicks": 480,
          "midi": 56,
          "name": "G#3",
          "ticks": 156000,
          "time": 73.8635625,
          "velocity": 0.7007874015748031
        },
        {
          "duration": 0.227272499999998,
          "durationTicks": 480,
          "midi": 64,
          "name": "E4",
          "ticks": 156000,
          "time": 73.8635625,
          "velocity": 0.7007874015748031
        },
        {
          "duration": 0.227272499999998,
          "durationTicks": 480,
          "midi": 63,
          "name": "D#4",
          "ticks": 157440,
          "time": 74.54538000000001,
          "velocity": 0.7007874015748031
        },
        {
          "duration": 0.227272499999998,
          "durationTicks": 480,
          "midi": 59,
          "name": "B3",
          "ticks": 157440,
          "time": 74.54538000000001,
          "velocity": 0.7007874015748031
        },
        {
          "duration": 0.227272499999998,
          "durationTicks": 480,
          "midi": 56,
          "name": "G#3",
          "ticks": 157440,
          "time": 74.54538000000001,
          "velocity": 0.7007874015748031
        },
        {
          "duration": 0.227272499999998,
          "durationTicks": 480,
          "midi": 63,
          "name": "D#4",
          "ticks": 157920,
          "time": 74.7726525,
          "velocity": 0.7007874015748031
        },
        {
          "duration": 0.227272499999998,
          "durationTicks": 480,
          "midi": 59,
          "name": "B3",
          "ticks": 157920,
          "time": 74.7726525,
          "velocity": 0.7007874015748031
        },
        {
          "duration": 0.227272499999998,
          "durationTicks": 480,
          "midi": 56,
          "name": "G#3",
          "ticks": 157920,
          "time": 74.7726525,
          "velocity": 0.7007874015748031
        },
        {
          "duration": 0.227272499999998,
          "durationTicks": 480,
          "midi": 63,
          "name": "D#4",
          "ticks": 158880,
          "time": 75.2271975,
          "velocity": 0.7007874015748031
        },
        {
          "duration": 0.227272499999998,
          "durationTicks": 480,
          "midi": 59,
          "name": "B3",
          "ticks": 158880,
          "time": 75.2271975,
          "velocity": 0.7007874015748031
        },
        {
          "duration": 0.227272499999998,
          "durationTicks": 480,
          "midi": 56,
          "name": "G#3",
          "ticks": 158880,
          "time": 75.2271975,
          "velocity": 0.7007874015748031
        },
        {
          "duration": 0.2272725000000122,
          "durationTicks": 480,
          "midi": 63,
          "name": "D#4",
          "ticks": 159840,
          "time": 75.6817425,
          "velocity": 0.7007874015748031
        },
        {
          "duration": 0.2272725000000122,
          "durationTicks": 480,
          "midi": 59,
          "name": "B3",
          "ticks": 159840,
          "time": 75.6817425,
          "velocity": 0.7007874015748031
        },
        {
          "duration": 0.2272725000000122,
          "durationTicks": 480,
          "midi": 56,
          "name": "G#3",
          "ticks": 159840,
          "time": 75.6817425,
          "velocity": 0.7007874015748031
        },
        {
          "duration": 0.227272499999998,
          "durationTicks": 480,
          "midi": 63,
          "name": "D#4",
          "ticks": 161280,
          "time": 76.36356,
          "velocity": 0.7007874015748031
        },
        {
          "duration": 0.227272499999998,
          "durationTicks": 480,
          "midi": 59,
          "name": "B3",
          "ticks": 161280,
          "time": 76.36356,
          "velocity": 0.7007874015748031
        },
        {
          "duration": 0.227272499999998,
          "durationTicks": 480,
          "midi": 54,
          "name": "F#3",
          "ticks": 161280,
          "time": 76.36356,
          "velocity": 0.7007874015748031
        },
        {
          "duration": 0.227272499999998,
          "durationTicks": 480,
          "midi": 63,
          "name": "D#4",
          "ticks": 161760,
          "time": 76.5908325,
          "velocity": 0.7007874015748031
        },
        {
          "duration": 0.227272499999998,
          "durationTicks": 480,
          "midi": 59,
          "name": "B3",
          "ticks": 161760,
          "time": 76.5908325,
          "velocity": 0.7007874015748031
        },
        {
          "duration": 0.227272499999998,
          "durationTicks": 480,
          "midi": 54,
          "name": "F#3",
          "ticks": 161760,
          "time": 76.5908325,
          "velocity": 0.7007874015748031
        },
        {
          "duration": 0.227272499999998,
          "durationTicks": 480,
          "midi": 63,
          "name": "D#4",
          "ticks": 162720,
          "time": 77.0453775,
          "velocity": 0.7007874015748031
        },
        {
          "duration": 0.227272499999998,
          "durationTicks": 480,
          "midi": 59,
          "name": "B3",
          "ticks": 162720,
          "time": 77.0453775,
          "velocity": 0.7007874015748031
        },
        {
          "duration": 0.227272499999998,
          "durationTicks": 480,
          "midi": 54,
          "name": "F#3",
          "ticks": 162720,
          "time": 77.0453775,
          "velocity": 0.7007874015748031
        },
        {
          "duration": 0.227272499999998,
          "durationTicks": 480,
          "midi": 63,
          "name": "D#4",
          "ticks": 163680,
          "time": 77.49992250000001,
          "velocity": 0.7007874015748031
        },
        {
          "duration": 0.227272499999998,
          "durationTicks": 480,
          "midi": 59,
          "name": "B3",
          "ticks": 163680,
          "time": 77.49992250000001,
          "velocity": 0.7007874015748031
        },
        {
          "duration": 0.227272499999998,
          "durationTicks": 480,
          "midi": 54,
          "name": "F#3",
          "ticks": 163680,
          "time": 77.49992250000001,
          "velocity": 0.7007874015748031
        },
        {
          "duration": 0.227272499999998,
          "durationTicks": 480,
          "midi": 66,
          "name": "F#4",
          "ticks": 165120,
          "time": 78.18174,
          "velocity": 0.7007874015748031
        },
        {
          "duration": 0.227272499999998,
          "durationTicks": 480,
          "midi": 58,
          "name": "A#3",
          "ticks": 165120,
          "time": 78.18174,
          "velocity": 0.7007874015748031
        },
        {
          "duration": 0.227272499999998,
          "durationTicks": 480,
          "midi": 61,
          "name": "C#4",
          "ticks": 165120,
          "time": 78.18174,
          "velocity": 0.7007874015748031
        },
        {
          "duration": 0.227272499999998,
          "durationTicks": 480,
          "midi": 66,
          "name": "F#4",
          "ticks": 165600,
          "time": 78.4090125,
          "velocity": 0.7007874015748031
        },
        {
          "duration": 0.227272499999998,
          "durationTicks": 480,
          "midi": 61,
          "name": "C#4",
          "ticks": 165600,
          "time": 78.4090125,
          "velocity": 0.7007874015748031
        },
        {
          "duration": 0.227272499999998,
          "durationTicks": 480,
          "midi": 58,
          "name": "A#3",
          "ticks": 165600,
          "time": 78.4090125,
          "velocity": 0.7007874015748031
        },
        {
          "duration": 0.2272725000000122,
          "durationTicks": 480,
          "midi": 66,
          "name": "F#4",
          "ticks": 166560,
          "time": 78.8635575,
          "velocity": 0.7007874015748031
        },
        {
          "duration": 0.2272725000000122,
          "durationTicks": 480,
          "midi": 61,
          "name": "C#4",
          "ticks": 166560,
          "time": 78.8635575,
          "velocity": 0.7007874015748031
        },
        {
          "duration": 0.2272725000000122,
          "durationTicks": 480,
          "midi": 58,
          "name": "A#3",
          "ticks": 166560,
          "time": 78.8635575,
          "velocity": 0.7007874015748031
        },
        {
          "duration": 0.227272499999998,
          "durationTicks": 480,
          "midi": 66,
          "name": "F#4",
          "ticks": 167520,
          "time": 79.31810250000001,
          "velocity": 0.7007874015748031
        },
        {
          "duration": 0.227272499999998,
          "durationTicks": 480,
          "midi": 61,
          "name": "C#4",
          "ticks": 167520,
          "time": 79.31810250000001,
          "velocity": 0.7007874015748031
        },
        {
          "duration": 0.227272499999998,
          "durationTicks": 480,
          "midi": 58,
          "name": "A#3",
          "ticks": 167520,
          "time": 79.31810250000001,
          "velocity": 0.7007874015748031
        },
        {
          "duration": 0.227272499999998,
          "durationTicks": 480,
          "midi": 64,
          "name": "E4",
          "ticks": 168960,
          "time": 79.99992,
          "velocity": 0.7007874015748031
        },
        {
          "duration": 0.227272499999998,
          "durationTicks": 480,
          "midi": 56,
          "name": "G#3",
          "ticks": 168960,
          "time": 79.99992,
          "velocity": 0.7007874015748031
        },
        {
          "duration": 0.227272499999998,
          "durationTicks": 480,
          "midi": 59,
          "name": "B3",
          "ticks": 168960,
          "time": 79.99992,
          "velocity": 0.7007874015748031
        },
        {
          "duration": 0.227272499999998,
          "durationTicks": 480,
          "midi": 64,
          "name": "E4",
          "ticks": 169440,
          "time": 80.2271925,
          "velocity": 0.7007874015748031
        },
        {
          "duration": 0.227272499999998,
          "durationTicks": 480,
          "midi": 56,
          "name": "G#3",
          "ticks": 169440,
          "time": 80.2271925,
          "velocity": 0.7007874015748031
        },
        {
          "duration": 0.227272499999998,
          "durationTicks": 480,
          "midi": 59,
          "name": "B3",
          "ticks": 169440,
          "time": 80.2271925,
          "velocity": 0.7007874015748031
        },
        {
          "duration": 0.227272499999998,
          "durationTicks": 480,
          "midi": 64,
          "name": "E4",
          "ticks": 170400,
          "time": 80.68173750000001,
          "velocity": 0.7007874015748031
        },
        {
          "duration": 0.227272499999998,
          "durationTicks": 480,
          "midi": 56,
          "name": "G#3",
          "ticks": 170400,
          "time": 80.68173750000001,
          "velocity": 0.7007874015748031
        },
        {
          "duration": 0.227272499999998,
          "durationTicks": 480,
          "midi": 59,
          "name": "B3",
          "ticks": 170400,
          "time": 80.68173750000001,
          "velocity": 0.7007874015748031
        },
        {
          "duration": 0.227272499999998,
          "durationTicks": 480,
          "midi": 64,
          "name": "E4",
          "ticks": 171360,
          "time": 81.13628250000001,
          "velocity": 0.7007874015748031
        },
        {
          "duration": 0.227272499999998,
          "durationTicks": 480,
          "midi": 56,
          "name": "G#3",
          "ticks": 171360,
          "time": 81.13628250000001,
          "velocity": 0.7007874015748031
        },
        {
          "duration": 0.227272499999998,
          "durationTicks": 480,
          "midi": 59,
          "name": "B3",
          "ticks": 171360,
          "time": 81.13628250000001,
          "velocity": 0.7007874015748031
        },
        {
          "duration": 0.227272499999998,
          "durationTicks": 480,
          "midi": 63,
          "name": "D#4",
          "ticks": 172800,
          "time": 81.8181,
          "velocity": 0.7007874015748031
        },
        {
          "duration": 0.227272499999998,
          "durationTicks": 480,
          "midi": 59,
          "name": "B3",
          "ticks": 172800,
          "time": 81.8181,
          "velocity": 0.7007874015748031
        },
        {
          "duration": 0.227272499999998,
          "durationTicks": 480,
          "midi": 56,
          "name": "G#3",
          "ticks": 172800,
          "time": 81.8181,
          "velocity": 0.7007874015748031
        },
        {
          "duration": 0.2272725000000122,
          "durationTicks": 480,
          "midi": 63,
          "name": "D#4",
          "ticks": 173280,
          "time": 82.0453725,
          "velocity": 0.7007874015748031
        },
        {
          "duration": 0.2272725000000122,
          "durationTicks": 480,
          "midi": 59,
          "name": "B3",
          "ticks": 173280,
          "time": 82.0453725,
          "velocity": 0.7007874015748031
        },
        {
          "duration": 0.2272725000000122,
          "durationTicks": 480,
          "midi": 56,
          "name": "G#3",
          "ticks": 173280,
          "time": 82.0453725,
          "velocity": 0.7007874015748031
        },
        {
          "duration": 0.227272499999998,
          "durationTicks": 480,
          "midi": 63,
          "name": "D#4",
          "ticks": 174240,
          "time": 82.49991750000001,
          "velocity": 0.7007874015748031
        },
        {
          "duration": 0.227272499999998,
          "durationTicks": 480,
          "midi": 59,
          "name": "B3",
          "ticks": 174240,
          "time": 82.49991750000001,
          "velocity": 0.7007874015748031
        },
        {
          "duration": 0.227272499999998,
          "durationTicks": 480,
          "midi": 56,
          "name": "G#3",
          "ticks": 174240,
          "time": 82.49991750000001,
          "velocity": 0.7007874015748031
        },
        {
          "duration": 0.227272499999998,
          "durationTicks": 480,
          "midi": 63,
          "name": "D#4",
          "ticks": 175200,
          "time": 82.9544625,
          "velocity": 0.7007874015748031
        },
        {
          "duration": 0.227272499999998,
          "durationTicks": 480,
          "midi": 59,
          "name": "B3",
          "ticks": 175200,
          "time": 82.9544625,
          "velocity": 0.7007874015748031
        },
        {
          "duration": 0.227272499999998,
          "durationTicks": 480,
          "midi": 56,
          "name": "G#3",
          "ticks": 175200,
          "time": 82.9544625,
          "velocity": 0.7007874015748031
        },
        {
          "duration": 0.2272725000000122,
          "durationTicks": 480,
          "midi": 63,
          "name": "D#4",
          "ticks": 176640,
          "time": 83.63628,
          "velocity": 0.7007874015748031
        },
        {
          "duration": 0.2272725000000122,
          "durationTicks": 480,
          "midi": 59,
          "name": "B3",
          "ticks": 176640,
          "time": 83.63628,
          "velocity": 0.7007874015748031
        },
        {
          "duration": 0.2272725000000122,
          "durationTicks": 480,
          "midi": 54,
          "name": "F#3",
          "ticks": 176640,
          "time": 83.63628,
          "velocity": 0.7007874015748031
        },
        {
          "duration": 0.227272499999998,
          "durationTicks": 480,
          "midi": 63,
          "name": "D#4",
          "ticks": 177120,
          "time": 83.86355250000001,
          "velocity": 0.7007874015748031
        },
        {
          "duration": 0.227272499999998,
          "durationTicks": 480,
          "midi": 59,
          "name": "B3",
          "ticks": 177120,
          "time": 83.86355250000001,
          "velocity": 0.7007874015748031
        },
        {
          "duration": 0.227272499999998,
          "durationTicks": 480,
          "midi": 54,
          "name": "F#3",
          "ticks": 177120,
          "time": 83.86355250000001,
          "velocity": 0.7007874015748031
        },
        {
          "duration": 0.227272499999998,
          "durationTicks": 480,
          "midi": 63,
          "name": "D#4",
          "ticks": 178080,
          "time": 84.31809750000001,
          "velocity": 0.7007874015748031
        },
        {
          "duration": 0.227272499999998,
          "durationTicks": 480,
          "midi": 59,
          "name": "B3",
          "ticks": 178080,
          "time": 84.31809750000001,
          "velocity": 0.7007874015748031
        },
        {
          "duration": 0.227272499999998,
          "durationTicks": 480,
          "midi": 54,
          "name": "F#3",
          "ticks": 178080,
          "time": 84.31809750000001,
          "velocity": 0.7007874015748031
        },
        {
          "duration": 0.227272499999998,
          "durationTicks": 480,
          "midi": 63,
          "name": "D#4",
          "ticks": 179040,
          "time": 84.7726425,
          "velocity": 0.7007874015748031
        },
        {
          "duration": 0.227272499999998,
          "durationTicks": 480,
          "midi": 59,
          "name": "B3",
          "ticks": 179040,
          "time": 84.7726425,
          "velocity": 0.7007874015748031
        },
        {
          "duration": 0.227272499999998,
          "durationTicks": 480,
          "midi": 54,
          "name": "F#3",
          "ticks": 179040,
          "time": 84.7726425,
          "velocity": 0.7007874015748031
        },
        {
          "duration": 0.227272499999998,
          "durationTicks": 480,
          "midi": 66,
          "name": "F#4",
          "ticks": 180480,
          "time": 85.45446000000001,
          "velocity": 0.7007874015748031
        },
        {
          "duration": 0.227272499999998,
          "durationTicks": 480,
          "midi": 58,
          "name": "A#3",
          "ticks": 180480,
          "time": 85.45446000000001,
          "velocity": 0.7007874015748031
        },
        {
          "duration": 0.227272499999998,
          "durationTicks": 480,
          "midi": 61,
          "name": "C#4",
          "ticks": 180480,
          "time": 85.45446000000001,
          "velocity": 0.7007874015748031
        },
        {
          "duration": 0.227272499999998,
          "durationTicks": 480,
          "midi": 66,
          "name": "F#4",
          "ticks": 180960,
          "time": 85.68173250000001,
          "velocity": 0.7007874015748031
        },
        {
          "duration": 0.227272499999998,
          "durationTicks": 480,
          "midi": 61,
          "name": "C#4",
          "ticks": 180960,
          "time": 85.68173250000001,
          "velocity": 0.7007874015748031
        },
        {
          "duration": 0.227272499999998,
          "durationTicks": 480,
          "midi": 58,
          "name": "A#3",
          "ticks": 180960,
          "time": 85.68173250000001,
          "velocity": 0.7007874015748031
        },
        {
          "duration": 0.227272499999998,
          "durationTicks": 480,
          "midi": 66,
          "name": "F#4",
          "ticks": 181920,
          "time": 86.1362775,
          "velocity": 0.7007874015748031
        },
        {
          "duration": 0.227272499999998,
          "durationTicks": 480,
          "midi": 61,
          "name": "C#4",
          "ticks": 181920,
          "time": 86.1362775,
          "velocity": 0.7007874015748031
        },
        {
          "duration": 0.227272499999998,
          "durationTicks": 480,
          "midi": 58,
          "name": "A#3",
          "ticks": 181920,
          "time": 86.1362775,
          "velocity": 0.7007874015748031
        },
        {
          "duration": 0.227272499999998,
          "durationTicks": 480,
          "midi": 66,
          "name": "F#4",
          "ticks": 182880,
          "time": 86.5908225,
          "velocity": 0.7007874015748031
        },
        {
          "duration": 0.227272499999998,
          "durationTicks": 480,
          "midi": 61,
          "name": "C#4",
          "ticks": 182880,
          "time": 86.5908225,
          "velocity": 0.7007874015748031
        },
        {
          "duration": 0.227272499999998,
          "durationTicks": 480,
          "midi": 58,
          "name": "A#3",
          "ticks": 182880,
          "time": 86.5908225,
          "velocity": 0.7007874015748031
        },
        {
          "duration": 0.227272499999998,
          "durationTicks": 480,
          "midi": 59,
          "name": "B3",
          "ticks": 184320,
          "time": 87.27264000000001,
          "velocity": 0.7007874015748031
        },
        {
          "duration": 0.227272499999998,
          "durationTicks": 480,
          "midi": 56,
          "name": "G#3",
          "ticks": 184320,
          "time": 87.27264000000001,
          "velocity": 0.7007874015748031
        },
        {
          "duration": 0.227272499999998,
          "durationTicks": 480,
          "midi": 64,
          "name": "E4",
          "ticks": 184320,
          "time": 87.27264000000001,
          "velocity": 0.7007874015748031
        },
        {
          "duration": 0.227272499999998,
          "durationTicks": 480,
          "midi": 59,
          "name": "B3",
          "ticks": 184800,
          "time": 87.49991250000001,
          "velocity": 0.7007874015748031
        },
        {
          "duration": 0.227272499999998,
          "durationTicks": 480,
          "midi": 56,
          "name": "G#3",
          "ticks": 184800,
          "time": 87.49991250000001,
          "velocity": 0.7007874015748031
        },
        {
          "duration": 0.227272499999998,
          "durationTicks": 480,
          "midi": 64,
          "name": "E4",
          "ticks": 184800,
          "time": 87.49991250000001,
          "velocity": 0.7007874015748031
        },
        {
          "duration": 0.227272499999998,
          "durationTicks": 480,
          "midi": 59,
          "name": "B3",
          "ticks": 185760,
          "time": 87.9544575,
          "velocity": 0.7007874015748031
        },
        {
          "duration": 0.227272499999998,
          "durationTicks": 480,
          "midi": 56,
          "name": "G#3",
          "ticks": 185760,
          "time": 87.9544575,
          "velocity": 0.7007874015748031
        },
        {
          "duration": 0.227272499999998,
          "durationTicks": 480,
          "midi": 64,
          "name": "E4",
          "ticks": 185760,
          "time": 87.9544575,
          "velocity": 0.7007874015748031
        },
        {
          "duration": 0.2272725000000122,
          "durationTicks": 480,
          "midi": 59,
          "name": "B3",
          "ticks": 186720,
          "time": 88.4090025,
          "velocity": 0.7007874015748031
        },
        {
          "duration": 0.2272725000000122,
          "durationTicks": 480,
          "midi": 56,
          "name": "G#3",
          "ticks": 186720,
          "time": 88.4090025,
          "velocity": 0.7007874015748031
        },
        {
          "duration": 0.2272725000000122,
          "durationTicks": 480,
          "midi": 64,
          "name": "E4",
          "ticks": 186720,
          "time": 88.4090025,
          "velocity": 0.7007874015748031
        },
        {
          "duration": 0.227272499999998,
          "durationTicks": 480,
          "midi": 63,
          "name": "D#4",
          "ticks": 188160,
          "time": 89.09082000000001,
          "velocity": 0.7007874015748031
        },
        {
          "duration": 0.227272499999998,
          "durationTicks": 480,
          "midi": 59,
          "name": "B3",
          "ticks": 188160,
          "time": 89.09082000000001,
          "velocity": 0.7007874015748031
        },
        {
          "duration": 0.227272499999998,
          "durationTicks": 480,
          "midi": 56,
          "name": "G#3",
          "ticks": 188160,
          "time": 89.09082000000001,
          "velocity": 0.7007874015748031
        },
        {
          "duration": 0.227272499999998,
          "durationTicks": 480,
          "midi": 63,
          "name": "D#4",
          "ticks": 188640,
          "time": 89.3180925,
          "velocity": 0.7007874015748031
        },
        {
          "duration": 0.227272499999998,
          "durationTicks": 480,
          "midi": 59,
          "name": "B3",
          "ticks": 188640,
          "time": 89.3180925,
          "velocity": 0.7007874015748031
        },
        {
          "duration": 0.227272499999998,
          "durationTicks": 480,
          "midi": 56,
          "name": "G#3",
          "ticks": 188640,
          "time": 89.3180925,
          "velocity": 0.7007874015748031
        },
        {
          "duration": 0.227272499999998,
          "durationTicks": 480,
          "midi": 63,
          "name": "D#4",
          "ticks": 189600,
          "time": 89.7726375,
          "velocity": 0.7007874015748031
        },
        {
          "duration": 0.227272499999998,
          "durationTicks": 480,
          "midi": 59,
          "name": "B3",
          "ticks": 189600,
          "time": 89.7726375,
          "velocity": 0.7007874015748031
        },
        {
          "duration": 0.227272499999998,
          "durationTicks": 480,
          "midi": 56,
          "name": "G#3",
          "ticks": 189600,
          "time": 89.7726375,
          "velocity": 0.7007874015748031
        },
        {
          "duration": 0.227272499999998,
          "durationTicks": 480,
          "midi": 63,
          "name": "D#4",
          "ticks": 190560,
          "time": 90.22718250000001,
          "velocity": 0.7007874015748031
        },
        {
          "duration": 0.227272499999998,
          "durationTicks": 480,
          "midi": 59,
          "name": "B3",
          "ticks": 190560,
          "time": 90.22718250000001,
          "velocity": 0.7007874015748031
        },
        {
          "duration": 0.227272499999998,
          "durationTicks": 480,
          "midi": 56,
          "name": "G#3",
          "ticks": 190560,
          "time": 90.22718250000001,
          "velocity": 0.7007874015748031
        },
        {
          "duration": 0.227272499999998,
          "durationTicks": 480,
          "midi": 63,
          "name": "D#4",
          "ticks": 192000,
          "time": 90.909,
          "velocity": 0.7007874015748031
        },
        {
          "duration": 0.227272499999998,
          "durationTicks": 480,
          "midi": 59,
          "name": "B3",
          "ticks": 192000,
          "time": 90.909,
          "velocity": 0.7007874015748031
        },
        {
          "duration": 0.227272499999998,
          "durationTicks": 480,
          "midi": 54,
          "name": "F#3",
          "ticks": 192000,
          "time": 90.909,
          "velocity": 0.7007874015748031
        },
        {
          "duration": 0.227272499999998,
          "durationTicks": 480,
          "midi": 63,
          "name": "D#4",
          "ticks": 192480,
          "time": 91.1362725,
          "velocity": 0.7007874015748031
        },
        {
          "duration": 0.227272499999998,
          "durationTicks": 480,
          "midi": 59,
          "name": "B3",
          "ticks": 192480,
          "time": 91.1362725,
          "velocity": 0.7007874015748031
        },
        {
          "duration": 0.227272499999998,
          "durationTicks": 480,
          "midi": 54,
          "name": "F#3",
          "ticks": 192480,
          "time": 91.1362725,
          "velocity": 0.7007874015748031
        },
        {
          "duration": 0.2272725000000122,
          "durationTicks": 480,
          "midi": 63,
          "name": "D#4",
          "ticks": 193440,
          "time": 91.5908175,
          "velocity": 0.7007874015748031
        },
        {
          "duration": 0.2272725000000122,
          "durationTicks": 480,
          "midi": 59,
          "name": "B3",
          "ticks": 193440,
          "time": 91.5908175,
          "velocity": 0.7007874015748031
        },
        {
          "duration": 0.2272725000000122,
          "durationTicks": 480,
          "midi": 54,
          "name": "F#3",
          "ticks": 193440,
          "time": 91.5908175,
          "velocity": 0.7007874015748031
        },
        {
          "duration": 0.227272499999998,
          "durationTicks": 480,
          "midi": 63,
          "name": "D#4",
          "ticks": 194400,
          "time": 92.04536250000001,
          "velocity": 0.7007874015748031
        },
        {
          "duration": 0.227272499999998,
          "durationTicks": 480,
          "midi": 59,
          "name": "B3",
          "ticks": 194400,
          "time": 92.04536250000001,
          "velocity": 0.7007874015748031
        },
        {
          "duration": 0.227272499999998,
          "durationTicks": 480,
          "midi": 54,
          "name": "F#3",
          "ticks": 194400,
          "time": 92.04536250000001,
          "velocity": 0.7007874015748031
        },
        {
          "duration": 0.227272499999998,
          "durationTicks": 480,
          "midi": 66,
          "name": "F#4",
          "ticks": 195840,
          "time": 92.72718,
          "velocity": 0.7007874015748031
        },
        {
          "duration": 0.227272499999998,
          "durationTicks": 480,
          "midi": 58,
          "name": "A#3",
          "ticks": 195840,
          "time": 92.72718,
          "velocity": 0.7007874015748031
        },
        {
          "duration": 0.227272499999998,
          "durationTicks": 480,
          "midi": 61,
          "name": "C#4",
          "ticks": 195840,
          "time": 92.72718,
          "velocity": 0.7007874015748031
        },
        {
          "duration": 0.227272499999998,
          "durationTicks": 480,
          "midi": 66,
          "name": "F#4",
          "ticks": 196320,
          "time": 92.9544525,
          "velocity": 0.7007874015748031
        },
        {
          "duration": 0.227272499999998,
          "durationTicks": 480,
          "midi": 61,
          "name": "C#4",
          "ticks": 196320,
          "time": 92.9544525,
          "velocity": 0.7007874015748031
        },
        {
          "duration": 0.227272499999998,
          "durationTicks": 480,
          "midi": 58,
          "name": "A#3",
          "ticks": 196320,
          "time": 92.9544525,
          "velocity": 0.7007874015748031
        },
        {
          "duration": 0.227272499999998,
          "durationTicks": 480,
          "midi": 66,
          "name": "F#4",
          "ticks": 197280,
          "time": 93.40899750000001,
          "velocity": 0.7007874015748031
        },
        {
          "duration": 0.227272499999998,
          "durationTicks": 480,
          "midi": 61,
          "name": "C#4",
          "ticks": 197280,
          "time": 93.40899750000001,
          "velocity": 0.7007874015748031
        },
        {
          "duration": 0.227272499999998,
          "durationTicks": 480,
          "midi": 58,
          "name": "A#3",
          "ticks": 197280,
          "time": 93.40899750000001,
          "velocity": 0.7007874015748031
        },
        {
          "duration": 0.227272499999998,
          "durationTicks": 480,
          "midi": 66,
          "name": "F#4",
          "ticks": 198240,
          "time": 93.86354250000001,
          "velocity": 0.7007874015748031
        },
        {
          "duration": 0.227272499999998,
          "durationTicks": 480,
          "midi": 61,
          "name": "C#4",
          "ticks": 198240,
          "time": 93.86354250000001,
          "velocity": 0.7007874015748031
        },
        {
          "duration": 0.227272499999998,
          "durationTicks": 480,
          "midi": 58,
          "name": "A#3",
          "ticks": 198240,
          "time": 93.86354250000001,
          "velocity": 0.7007874015748031
        },
        {
          "duration": 0.227272499999998,
          "durationTicks": 480,
          "midi": 64,
          "name": "E4",
          "ticks": 199680,
          "time": 94.54536,
          "velocity": 0.7007874015748031
        },
        {
          "duration": 0.227272499999998,
          "durationTicks": 480,
          "midi": 56,
          "name": "G#3",
          "ticks": 199680,
          "time": 94.54536,
          "velocity": 0.7007874015748031
        },
        {
          "duration": 0.227272499999998,
          "durationTicks": 480,
          "midi": 59,
          "name": "B3",
          "ticks": 199680,
          "time": 94.54536,
          "velocity": 0.7007874015748031
        },
        {
          "duration": 0.2272725000000122,
          "durationTicks": 480,
          "midi": 64,
          "name": "E4",
          "ticks": 200160,
          "time": 94.7726325,
          "velocity": 0.7007874015748031
        },
        {
          "duration": 0.2272725000000122,
          "durationTicks": 480,
          "midi": 56,
          "name": "G#3",
          "ticks": 200160,
          "time": 94.7726325,
          "velocity": 0.7007874015748031
        },
        {
          "duration": 0.2272725000000122,
          "durationTicks": 480,
          "midi": 59,
          "name": "B3",
          "ticks": 200160,
          "time": 94.7726325,
          "velocity": 0.7007874015748031
        },
        {
          "duration": 0.227272499999998,
          "durationTicks": 480,
          "midi": 64,
          "name": "E4",
          "ticks": 201120,
          "time": 95.22717750000001,
          "velocity": 0.7007874015748031
        },
        {
          "duration": 0.227272499999998,
          "durationTicks": 480,
          "midi": 56,
          "name": "G#3",
          "ticks": 201120,
          "time": 95.22717750000001,
          "velocity": 0.7007874015748031
        },
        {
          "duration": 0.227272499999998,
          "durationTicks": 480,
          "midi": 59,
          "name": "B3",
          "ticks": 201120,
          "time": 95.22717750000001,
          "velocity": 0.7007874015748031
        },
        {
          "duration": 0.227272499999998,
          "durationTicks": 480,
          "midi": 64,
          "name": "E4",
          "ticks": 202080,
          "time": 95.6817225,
          "velocity": 0.7007874015748031
        },
        {
          "duration": 0.227272499999998,
          "durationTicks": 480,
          "midi": 56,
          "name": "G#3",
          "ticks": 202080,
          "time": 95.6817225,
          "velocity": 0.7007874015748031
        },
        {
          "duration": 0.227272499999998,
          "durationTicks": 480,
          "midi": 59,
          "name": "B3",
          "ticks": 202080,
          "time": 95.6817225,
          "velocity": 0.7007874015748031
        },
        {
          "duration": 0.227272499999998,
          "durationTicks": 480,
          "midi": 63,
          "name": "D#4",
          "ticks": 204000,
          "time": 96.59081250000001,
          "velocity": 0.7007874015748031
        },
        {
          "duration": 0.227272499999998,
          "durationTicks": 480,
          "midi": 59,
          "name": "B3",
          "ticks": 204000,
          "time": 96.59081250000001,
          "velocity": 0.7007874015748031
        },
        {
          "duration": 0.227272499999998,
          "durationTicks": 480,
          "midi": 56,
          "name": "G#3",
          "ticks": 204000,
          "time": 96.59081250000001,
          "velocity": 0.7007874015748031
        },
        {
          "duration": 0.227272499999998,
          "durationTicks": 480,
          "midi": 63,
          "name": "D#4",
          "ticks": 204960,
          "time": 97.04535750000001,
          "velocity": 0.7007874015748031
        },
        {
          "duration": 0.227272499999998,
          "durationTicks": 480,
          "midi": 59,
          "name": "B3",
          "ticks": 204960,
          "time": 97.04535750000001,
          "velocity": 0.7007874015748031
        },
        {
          "duration": 0.227272499999998,
          "durationTicks": 480,
          "midi": 56,
          "name": "G#3",
          "ticks": 204960,
          "time": 97.04535750000001,
          "velocity": 0.7007874015748031
        },
        {
          "duration": 0.227272499999998,
          "durationTicks": 480,
          "midi": 63,
          "name": "D#4",
          "ticks": 205920,
          "time": 97.4999025,
          "velocity": 0.7007874015748031
        },
        {
          "duration": 0.227272499999998,
          "durationTicks": 480,
          "midi": 59,
          "name": "B3",
          "ticks": 205920,
          "time": 97.4999025,
          "velocity": 0.7007874015748031
        },
        {
          "duration": 0.227272499999998,
          "durationTicks": 480,
          "midi": 56,
          "name": "G#3",
          "ticks": 205920,
          "time": 97.4999025,
          "velocity": 0.7007874015748031
        },
        {
          "duration": 0.2272725000000122,
          "durationTicks": 480,
          "midi": 63,
          "name": "D#4",
          "ticks": 206880,
          "time": 97.9544475,
          "velocity": 0.7007874015748031
        },
        {
          "duration": 0.2272725000000122,
          "durationTicks": 480,
          "midi": 59,
          "name": "B3",
          "ticks": 206880,
          "time": 97.9544475,
          "velocity": 0.7007874015748031
        },
        {
          "duration": 0.2272725000000122,
          "durationTicks": 480,
          "midi": 56,
          "name": "G#3",
          "ticks": 206880,
          "time": 97.9544475,
          "velocity": 0.7007874015748031
        },
        {
          "duration": 0.227272499999998,
          "durationTicks": 480,
          "midi": 63,
          "name": "D#4",
          "ticks": 207840,
          "time": 98.40899250000001,
          "velocity": 0.7007874015748031
        },
        {
          "duration": 0.227272499999998,
          "durationTicks": 480,
          "midi": 59,
          "name": "B3",
          "ticks": 207840,
          "time": 98.40899250000001,
          "velocity": 0.7007874015748031
        },
        {
          "duration": 0.227272499999998,
          "durationTicks": 480,
          "midi": 54,
          "name": "F#3",
          "ticks": 207840,
          "time": 98.40899250000001,
          "velocity": 0.7007874015748031
        },
        {
          "duration": 0.227272499999998,
          "durationTicks": 480,
          "midi": 63,
          "name": "D#4",
          "ticks": 208800,
          "time": 98.8635375,
          "velocity": 0.7007874015748031
        },
        {
          "duration": 0.227272499999998,
          "durationTicks": 480,
          "midi": 59,
          "name": "B3",
          "ticks": 208800,
          "time": 98.8635375,
          "velocity": 0.7007874015748031
        },
        {
          "duration": 0.227272499999998,
          "durationTicks": 480,
          "midi": 54,
          "name": "F#3",
          "ticks": 208800,
          "time": 98.8635375,
          "velocity": 0.7007874015748031
        },
        {
          "duration": 0.227272499999998,
          "durationTicks": 480,
          "midi": 63,
          "name": "D#4",
          "ticks": 209760,
          "time": 99.3180825,
          "velocity": 0.7007874015748031
        },
        {
          "duration": 0.227272499999998,
          "durationTicks": 480,
          "midi": 59,
          "name": "B3",
          "ticks": 209760,
          "time": 99.3180825,
          "velocity": 0.7007874015748031
        },
        {
          "duration": 0.227272499999998,
          "durationTicks": 480,
          "midi": 54,
          "name": "F#3",
          "ticks": 209760,
          "time": 99.3180825,
          "velocity": 0.7007874015748031
        },
        {
          "duration": 0.227272499999998,
          "durationTicks": 480,
          "midi": 63,
          "name": "D#4",
          "ticks": 210720,
          "time": 99.77262750000001,
          "velocity": 0.7007874015748031
        },
        {
          "duration": 0.227272499999998,
          "durationTicks": 480,
          "midi": 59,
          "name": "B3",
          "ticks": 210720,
          "time": 99.77262750000001,
          "velocity": 0.7007874015748031
        },
        {
          "duration": 0.227272499999998,
          "durationTicks": 480,
          "midi": 54,
          "name": "F#3",
          "ticks": 210720,
          "time": 99.77262750000001,
          "velocity": 0.7007874015748031
        },
        {
          "duration": 0.227272499999998,
          "durationTicks": 480,
          "midi": 66,
          "name": "F#4",
          "ticks": 211680,
          "time": 100.22717250000001,
          "velocity": 0.7007874015748031
        },
        {
          "duration": 0.227272499999998,
          "durationTicks": 480,
          "midi": 58,
          "name": "A#3",
          "ticks": 211680,
          "time": 100.22717250000001,
          "velocity": 0.7007874015748031
        },
        {
          "duration": 0.227272499999998,
          "durationTicks": 480,
          "midi": 61,
          "name": "C#4",
          "ticks": 211680,
          "time": 100.22717250000001,
          "velocity": 0.7007874015748031
        },
        {
          "duration": 0.227272499999998,
          "durationTicks": 480,
          "midi": 66,
          "name": "F#4",
          "ticks": 212640,
          "time": 100.6817175,
          "velocity": 0.7007874015748031
        },
        {
          "duration": 0.227272499999998,
          "durationTicks": 480,
          "midi": 61,
          "name": "C#4",
          "ticks": 212640,
          "time": 100.6817175,
          "velocity": 0.7007874015748031
        },
        {
          "duration": 0.227272499999998,
          "durationTicks": 480,
          "midi": 58,
          "name": "A#3",
          "ticks": 212640,
          "time": 100.6817175,
          "velocity": 0.7007874015748031
        },
        {
          "duration": 0.2272725000000122,
          "durationTicks": 480,
          "midi": 66,
          "name": "F#4",
          "ticks": 213600,
          "time": 101.1362625,
          "velocity": 0.7007874015748031
        },
        {
          "duration": 0.2272725000000122,
          "durationTicks": 480,
          "midi": 61,
          "name": "C#4",
          "ticks": 213600,
          "time": 101.1362625,
          "velocity": 0.7007874015748031
        },
        {
          "duration": 0.2272725000000122,
          "durationTicks": 480,
          "midi": 58,
          "name": "A#3",
          "ticks": 213600,
          "time": 101.1362625,
          "velocity": 0.7007874015748031
        },
        {
          "duration": 0.227272499999998,
          "durationTicks": 480,
          "midi": 66,
          "name": "F#4",
          "ticks": 214560,
          "time": 101.59080750000001,
          "velocity": 0.7007874015748031
        },
        {
          "duration": 0.227272499999998,
          "durationTicks": 480,
          "midi": 61,
          "name": "C#4",
          "ticks": 214560,
          "time": 101.59080750000001,
          "velocity": 0.7007874015748031
        },
        {
          "duration": 0.227272499999998,
          "durationTicks": 480,
          "midi": 58,
          "name": "A#3",
          "ticks": 214560,
          "time": 101.59080750000001,
          "velocity": 0.7007874015748031
        },
        {
          "duration": 0.227272499999998,
          "durationTicks": 480,
          "midi": 59,
          "name": "B3",
          "ticks": 215520,
          "time": 102.0453525,
          "velocity": 0.7007874015748031
        },
        {
          "duration": 0.227272499999998,
          "durationTicks": 480,
          "midi": 56,
          "name": "G#3",
          "ticks": 215520,
          "time": 102.0453525,
          "velocity": 0.7007874015748031
        },
        {
          "duration": 0.227272499999998,
          "durationTicks": 480,
          "midi": 64,
          "name": "E4",
          "ticks": 215520,
          "time": 102.0453525,
          "velocity": 0.7007874015748031
        },
        {
          "duration": 0.227272499999998,
          "durationTicks": 480,
          "midi": 66,
          "name": "F#4",
          "ticks": 215520,
          "time": 102.0453525,
          "velocity": 0.7007874015748031
        },
        {
          "duration": 0.227272499999998,
          "durationTicks": 480,
          "midi": 59,
          "name": "B3",
          "ticks": 216480,
          "time": 102.4998975,
          "velocity": 0.7007874015748031
        },
        {
          "duration": 0.227272499999998,
          "durationTicks": 480,
          "midi": 56,
          "name": "G#3",
          "ticks": 216480,
          "time": 102.4998975,
          "velocity": 0.7007874015748031
        },
        {
          "duration": 0.227272499999998,
          "durationTicks": 480,
          "midi": 64,
          "name": "E4",
          "ticks": 216480,
          "time": 102.4998975,
          "velocity": 0.7007874015748031
        },
        {
          "duration": 0.227272499999998,
          "durationTicks": 480,
          "midi": 59,
          "name": "B3",
          "ticks": 217440,
          "time": 102.95444250000001,
          "velocity": 0.7007874015748031
        },
        {
          "duration": 0.227272499999998,
          "durationTicks": 480,
          "midi": 56,
          "name": "G#3",
          "ticks": 217440,
          "time": 102.95444250000001,
          "velocity": 0.7007874015748031
        },
        {
          "duration": 0.227272499999998,
          "durationTicks": 480,
          "midi": 64,
          "name": "E4",
          "ticks": 217440,
          "time": 102.95444250000001,
          "velocity": 0.7007874015748031
        },
        {
          "duration": 0.227272499999998,
          "durationTicks": 480,
          "midi": 64,
          "name": "E4",
          "ticks": 218400,
          "time": 103.40898750000001,
          "velocity": 0.7007874015748031
        },
        {
          "duration": 0.227272499999998,
          "durationTicks": 480,
          "midi": 59,
          "name": "B3",
          "ticks": 218400,
          "time": 103.40898750000001,
          "velocity": 0.7007874015748031
        },
        {
          "duration": 0.227272499999998,
          "durationTicks": 480,
          "midi": 56,
          "name": "G#3",
          "ticks": 218400,
          "time": 103.40898750000001,
          "velocity": 0.7007874015748031
        },
        {
          "duration": 0.227272499999998,
          "durationTicks": 480,
          "midi": 63,
          "name": "D#4",
          "ticks": 219360,
          "time": 103.8635325,
          "velocity": 0.7007874015748031
        },
        {
          "duration": 0.227272499999998,
          "durationTicks": 480,
          "midi": 59,
          "name": "B3",
          "ticks": 219360,
          "time": 103.8635325,
          "velocity": 0.7007874015748031
        },
        {
          "duration": 0.227272499999998,
          "durationTicks": 480,
          "midi": 56,
          "name": "G#3",
          "ticks": 219360,
          "time": 103.8635325,
          "velocity": 0.7007874015748031
        },
        {
          "duration": 0.2272725000000122,
          "durationTicks": 480,
          "midi": 63,
          "name": "D#4",
          "ticks": 220320,
          "time": 104.3180775,
          "velocity": 0.7007874015748031
        },
        {
          "duration": 0.2272725000000122,
          "durationTicks": 480,
          "midi": 59,
          "name": "B3",
          "ticks": 220320,
          "time": 104.3180775,
          "velocity": 0.7007874015748031
        },
        {
          "duration": 0.2272725000000122,
          "durationTicks": 480,
          "midi": 56,
          "name": "G#3",
          "ticks": 220320,
          "time": 104.3180775,
          "velocity": 0.7007874015748031
        },
        {
          "duration": 0.227272499999998,
          "durationTicks": 480,
          "midi": 63,
          "name": "D#4",
          "ticks": 221280,
          "time": 104.77262250000001,
          "velocity": 0.7007874015748031
        },
        {
          "duration": 0.227272499999998,
          "durationTicks": 480,
          "midi": 59,
          "name": "B3",
          "ticks": 221280,
          "time": 104.77262250000001,
          "velocity": 0.7007874015748031
        },
        {
          "duration": 0.227272499999998,
          "durationTicks": 480,
          "midi": 56,
          "name": "G#3",
          "ticks": 221280,
          "time": 104.77262250000001,
          "velocity": 0.7007874015748031
        },
        {
          "duration": 0.227272499999998,
          "durationTicks": 480,
          "midi": 63,
          "name": "D#4",
          "ticks": 222240,
          "time": 105.22716750000001,
          "velocity": 0.7007874015748031
        },
        {
          "duration": 0.227272499999998,
          "durationTicks": 480,
          "midi": 59,
          "name": "B3",
          "ticks": 222240,
          "time": 105.22716750000001,
          "velocity": 0.7007874015748031
        },
        {
          "duration": 0.227272499999998,
          "durationTicks": 480,
          "midi": 56,
          "name": "G#3",
          "ticks": 222240,
          "time": 105.22716750000001,
          "velocity": 0.7007874015748031
        },
        {
          "duration": 0.227272499999998,
          "durationTicks": 480,
          "midi": 63,
          "name": "D#4",
          "ticks": 222720,
          "time": 105.45444,
          "velocity": 0.7007874015748031
        },
        {
          "duration": 0.227272499999998,
          "durationTicks": 480,
          "midi": 59,
          "name": "B3",
          "ticks": 222720,
          "time": 105.45444,
          "velocity": 0.7007874015748031
        },
        {
          "duration": 0.227272499999998,
          "durationTicks": 480,
          "midi": 54,
          "name": "F#3",
          "ticks": 222720,
          "time": 105.45444,
          "velocity": 0.7007874015748031
        },
        {
          "duration": 0.2272725000000122,
          "durationTicks": 480,
          "midi": 63,
          "name": "D#4",
          "ticks": 223680,
          "time": 105.908985,
          "velocity": 0.7007874015748031
        },
        {
          "duration": 0.2272725000000122,
          "durationTicks": 480,
          "midi": 59,
          "name": "B3",
          "ticks": 223680,
          "time": 105.908985,
          "velocity": 0.7007874015748031
        },
        {
          "duration": 0.2272725000000122,
          "durationTicks": 480,
          "midi": 54,
          "name": "F#3",
          "ticks": 223680,
          "time": 105.908985,
          "velocity": 0.7007874015748031
        },
        {
          "duration": 0.227272499999998,
          "durationTicks": 480,
          "midi": 63,
          "name": "D#4",
          "ticks": 224640,
          "time": 106.36353000000001,
          "velocity": 0.7007874015748031
        },
        {
          "duration": 0.227272499999998,
          "durationTicks": 480,
          "midi": 59,
          "name": "B3",
          "ticks": 224640,
          "time": 106.36353000000001,
          "velocity": 0.7007874015748031
        },
        {
          "duration": 0.227272499999998,
          "durationTicks": 480,
          "midi": 54,
          "name": "F#3",
          "ticks": 224640,
          "time": 106.36353000000001,
          "velocity": 0.7007874015748031
        },
        {
          "duration": 0.227272499999998,
          "durationTicks": 480,
          "midi": 63,
          "name": "D#4",
          "ticks": 225600,
          "time": 106.81807500000001,
          "velocity": 0.7007874015748031
        },
        {
          "duration": 0.227272499999998,
          "durationTicks": 480,
          "midi": 59,
          "name": "B3",
          "ticks": 225600,
          "time": 106.81807500000001,
          "velocity": 0.7007874015748031
        },
        {
          "duration": 0.227272499999998,
          "durationTicks": 480,
          "midi": 54,
          "name": "F#3",
          "ticks": 225600,
          "time": 106.81807500000001,
          "velocity": 0.7007874015748031
        },
        {
          "duration": 0.2272725000000122,
          "durationTicks": 480,
          "midi": 66,
          "name": "F#4",
          "ticks": 227040,
          "time": 107.4998925,
          "velocity": 0.7007874015748031
        },
        {
          "duration": 0.2272725000000122,
          "durationTicks": 480,
          "midi": 58,
          "name": "A#3",
          "ticks": 227040,
          "time": 107.4998925,
          "velocity": 0.7007874015748031
        },
        {
          "duration": 0.2272725000000122,
          "durationTicks": 480,
          "midi": 61,
          "name": "C#4",
          "ticks": 227040,
          "time": 107.4998925,
          "velocity": 0.7007874015748031
        },
        {
          "duration": 0.227272499999998,
          "durationTicks": 480,
          "midi": 66,
          "name": "F#4",
          "ticks": 228000,
          "time": 107.95443750000001,
          "velocity": 0.7007874015748031
        },
        {
          "duration": 0.227272499999998,
          "durationTicks": 480,
          "midi": 61,
          "name": "C#4",
          "ticks": 228000,
          "time": 107.95443750000001,
          "velocity": 0.7007874015748031
        },
        {
          "duration": 0.227272499999998,
          "durationTicks": 480,
          "midi": 58,
          "name": "A#3",
          "ticks": 228000,
          "time": 107.95443750000001,
          "velocity": 0.7007874015748031
        },
        {
          "duration": 0.227272499999998,
          "durationTicks": 480,
          "midi": 66,
          "name": "F#4",
          "ticks": 228960,
          "time": 108.40898250000001,
          "velocity": 0.7007874015748031
        },
        {
          "duration": 0.227272499999998,
          "durationTicks": 480,
          "midi": 61,
          "name": "C#4",
          "ticks": 228960,
          "time": 108.40898250000001,
          "velocity": 0.7007874015748031
        },
        {
          "duration": 0.227272499999998,
          "durationTicks": 480,
          "midi": 58,
          "name": "A#3",
          "ticks": 228960,
          "time": 108.40898250000001,
          "velocity": 0.7007874015748031
        },
        {
          "duration": 0.227272499999998,
          "durationTicks": 480,
          "midi": 66,
          "name": "F#4",
          "ticks": 229920,
          "time": 108.8635275,
          "velocity": 0.7007874015748031
        },
        {
          "duration": 0.227272499999998,
          "durationTicks": 480,
          "midi": 61,
          "name": "C#4",
          "ticks": 229920,
          "time": 108.8635275,
          "velocity": 0.7007874015748031
        },
        {
          "duration": 0.227272499999998,
          "durationTicks": 480,
          "midi": 58,
          "name": "A#3",
          "ticks": 229920,
          "time": 108.8635275,
          "velocity": 0.7007874015748031
        },
        {
          "duration": 0.227272499999998,
          "durationTicks": 480,
          "midi": 59,
          "name": "B3",
          "ticks": 230880,
          "time": 109.31807250000001,
          "velocity": 0.7007874015748031
        },
        {
          "duration": 0.227272499999998,
          "durationTicks": 480,
          "midi": 56,
          "name": "G#3",
          "ticks": 230880,
          "time": 109.31807250000001,
          "velocity": 0.7007874015748031
        },
        {
          "duration": 0.227272499999998,
          "durationTicks": 480,
          "midi": 64,
          "name": "E4",
          "ticks": 230880,
          "time": 109.31807250000001,
          "velocity": 0.7007874015748031
        },
        {
          "duration": 0.227272499999998,
          "durationTicks": 480,
          "midi": 66,
          "name": "F#4",
          "ticks": 230880,
          "time": 109.31807250000001,
          "velocity": 0.7007874015748031
        },
        {
          "duration": 0.227272499999998,
          "durationTicks": 480,
          "midi": 59,
          "name": "B3",
          "ticks": 231840,
          "time": 109.77261750000001,
          "velocity": 0.7007874015748031
        },
        {
          "duration": 0.227272499999998,
          "durationTicks": 480,
          "midi": 56,
          "name": "G#3",
          "ticks": 231840,
          "time": 109.77261750000001,
          "velocity": 0.7007874015748031
        },
        {
          "duration": 0.227272499999998,
          "durationTicks": 480,
          "midi": 64,
          "name": "E4",
          "ticks": 231840,
          "time": 109.77261750000001,
          "velocity": 0.7007874015748031
        },
        {
          "duration": 0.227272499999998,
          "durationTicks": 480,
          "midi": 66,
          "name": "F#4",
          "ticks": 231840,
          "time": 109.77261750000001,
          "velocity": 0.7007874015748031
        },
        {
          "duration": 0.227272499999998,
          "durationTicks": 480,
          "midi": 59,
          "name": "B3",
          "ticks": 232800,
          "time": 110.2271625,
          "velocity": 0.7007874015748031
        },
        {
          "duration": 0.227272499999998,
          "durationTicks": 480,
          "midi": 56,
          "name": "G#3",
          "ticks": 232800,
          "time": 110.2271625,
          "velocity": 0.7007874015748031
        },
        {
          "duration": 0.227272499999998,
          "durationTicks": 480,
          "midi": 64,
          "name": "E4",
          "ticks": 232800,
          "time": 110.2271625,
          "velocity": 0.7007874015748031
        },
        {
          "duration": 0.227272499999998,
          "durationTicks": 480,
          "midi": 66,
          "name": "F#4",
          "ticks": 232800,
          "time": 110.2271625,
          "velocity": 0.7007874015748031
        },
        {
          "duration": 0.227272499999998,
          "durationTicks": 480,
          "midi": 63,
          "name": "D#4",
          "ticks": 234720,
          "time": 111.13625250000001,
          "velocity": 0.7007874015748031
        },
        {
          "duration": 0.227272499999998,
          "durationTicks": 480,
          "midi": 59,
          "name": "B3",
          "ticks": 234720,
          "time": 111.13625250000001,
          "velocity": 0.7007874015748031
        },
        {
          "duration": 0.227272499999998,
          "durationTicks": 480,
          "midi": 56,
          "name": "G#3",
          "ticks": 234720,
          "time": 111.13625250000001,
          "velocity": 0.7007874015748031
        },
        {
          "duration": 0.227272499999998,
          "durationTicks": 480,
          "midi": 63,
          "name": "D#4",
          "ticks": 235680,
          "time": 111.59079750000001,
          "velocity": 0.7007874015748031
        },
        {
          "duration": 0.227272499999998,
          "durationTicks": 480,
          "midi": 59,
          "name": "B3",
          "ticks": 235680,
          "time": 111.59079750000001,
          "velocity": 0.7007874015748031
        },
        {
          "duration": 0.227272499999998,
          "durationTicks": 480,
          "midi": 56,
          "name": "G#3",
          "ticks": 235680,
          "time": 111.59079750000001,
          "velocity": 0.7007874015748031
        },
        {
          "duration": 0.227272499999998,
          "durationTicks": 480,
          "midi": 63,
          "name": "D#4",
          "ticks": 236640,
          "time": 112.0453425,
          "velocity": 0.7007874015748031
        },
        {
          "duration": 0.227272499999998,
          "durationTicks": 480,
          "midi": 59,
          "name": "B3",
          "ticks": 236640,
          "time": 112.0453425,
          "velocity": 0.7007874015748031
        },
        {
          "duration": 0.227272499999998,
          "durationTicks": 480,
          "midi": 56,
          "name": "G#3",
          "ticks": 236640,
          "time": 112.0453425,
          "velocity": 0.7007874015748031
        },
        {
          "duration": 0.227272499999998,
          "durationTicks": 480,
          "midi": 63,
          "name": "D#4",
          "ticks": 237600,
          "time": 112.49988750000001,
          "velocity": 0.7007874015748031
        },
        {
          "duration": 0.227272499999998,
          "durationTicks": 480,
          "midi": 59,
          "name": "B3",
          "ticks": 237600,
          "time": 112.49988750000001,
          "velocity": 0.7007874015748031
        },
        {
          "duration": 0.227272499999998,
          "durationTicks": 480,
          "midi": 56,
          "name": "G#3",
          "ticks": 237600,
          "time": 112.49988750000001,
          "velocity": 0.7007874015748031
        },
        {
          "duration": 0.227272499999998,
          "durationTicks": 480,
          "midi": 63,
          "name": "D#4",
          "ticks": 238560,
          "time": 112.95443250000001,
          "velocity": 0.7007874015748031
        },
        {
          "duration": 0.227272499999998,
          "durationTicks": 480,
          "midi": 59,
          "name": "B3",
          "ticks": 238560,
          "time": 112.95443250000001,
          "velocity": 0.7007874015748031
        },
        {
          "duration": 0.227272499999998,
          "durationTicks": 480,
          "midi": 54,
          "name": "F#3",
          "ticks": 238560,
          "time": 112.95443250000001,
          "velocity": 0.7007874015748031
        },
        {
          "duration": 0.227272499999998,
          "durationTicks": 480,
          "midi": 63,
          "name": "D#4",
          "ticks": 239520,
          "time": 113.4089775,
          "velocity": 0.7007874015748031
        },
        {
          "duration": 0.227272499999998,
          "durationTicks": 480,
          "midi": 59,
          "name": "B3",
          "ticks": 239520,
          "time": 113.4089775,
          "velocity": 0.7007874015748031
        },
        {
          "duration": 0.227272499999998,
          "durationTicks": 480,
          "midi": 54,
          "name": "F#3",
          "ticks": 239520,
          "time": 113.4089775,
          "velocity": 0.7007874015748031
        },
        {
          "duration": 0.2272725000000122,
          "durationTicks": 480,
          "midi": 63,
          "name": "D#4",
          "ticks": 240480,
          "time": 113.8635225,
          "velocity": 0.7007874015748031
        },
        {
          "duration": 0.2272725000000122,
          "durationTicks": 480,
          "midi": 59,
          "name": "B3",
          "ticks": 240480,
          "time": 113.8635225,
          "velocity": 0.7007874015748031
        },
        {
          "duration": 0.2272725000000122,
          "durationTicks": 480,
          "midi": 54,
          "name": "F#3",
          "ticks": 240480,
          "time": 113.8635225,
          "velocity": 0.7007874015748031
        },
        {
          "duration": 0.227272499999998,
          "durationTicks": 480,
          "midi": 63,
          "name": "D#4",
          "ticks": 241440,
          "time": 114.31806750000001,
          "velocity": 0.7007874015748031
        },
        {
          "duration": 0.227272499999998,
          "durationTicks": 480,
          "midi": 59,
          "name": "B3",
          "ticks": 241440,
          "time": 114.31806750000001,
          "velocity": 0.7007874015748031
        },
        {
          "duration": 0.227272499999998,
          "durationTicks": 480,
          "midi": 54,
          "name": "F#3",
          "ticks": 241440,
          "time": 114.31806750000001,
          "velocity": 0.7007874015748031
        },
        {
          "duration": 0.227272499999998,
          "durationTicks": 480,
          "midi": 66,
          "name": "F#4",
          "ticks": 242400,
          "time": 114.77261250000001,
          "velocity": 0.7007874015748031
        },
        {
          "duration": 0.227272499999998,
          "durationTicks": 480,
          "midi": 58,
          "name": "A#3",
          "ticks": 242400,
          "time": 114.77261250000001,
          "velocity": 0.7007874015748031
        },
        {
          "duration": 0.227272499999998,
          "durationTicks": 480,
          "midi": 61,
          "name": "C#4",
          "ticks": 242400,
          "time": 114.77261250000001,
          "velocity": 0.7007874015748031
        },
        {
          "duration": 0.227272499999998,
          "durationTicks": 480,
          "midi": 66,
          "name": "F#4",
          "ticks": 243360,
          "time": 115.2271575,
          "velocity": 0.7007874015748031
        },
        {
          "duration": 0.227272499999998,
          "durationTicks": 480,
          "midi": 61,
          "name": "C#4",
          "ticks": 243360,
          "time": 115.2271575,
          "velocity": 0.7007874015748031
        },
        {
          "duration": 0.227272499999998,
          "durationTicks": 480,
          "midi": 58,
          "name": "A#3",
          "ticks": 243360,
          "time": 115.2271575,
          "velocity": 0.7007874015748031
        },
        {
          "duration": 0.227272499999998,
          "durationTicks": 480,
          "midi": 66,
          "name": "F#4",
          "ticks": 244320,
          "time": 115.68170250000001,
          "velocity": 0.7007874015748031
        },
        {
          "duration": 0.227272499999998,
          "durationTicks": 480,
          "midi": 61,
          "name": "C#4",
          "ticks": 244320,
          "time": 115.68170250000001,
          "velocity": 0.7007874015748031
        },
        {
          "duration": 0.227272499999998,
          "durationTicks": 480,
          "midi": 58,
          "name": "A#3",
          "ticks": 244320,
          "time": 115.68170250000001,
          "velocity": 0.7007874015748031
        },
        {
          "duration": 0.227272499999998,
          "durationTicks": 480,
          "midi": 66,
          "name": "F#4",
          "ticks": 245280,
          "time": 116.13624750000001,
          "velocity": 0.7007874015748031
        },
        {
          "duration": 0.227272499999998,
          "durationTicks": 480,
          "midi": 61,
          "name": "C#4",
          "ticks": 245280,
          "time": 116.13624750000001,
          "velocity": 0.7007874015748031
        },
        {
          "duration": 0.227272499999998,
          "durationTicks": 480,
          "midi": 58,
          "name": "A#3",
          "ticks": 245280,
          "time": 116.13624750000001,
          "velocity": 0.7007874015748031
        },
        {
          "duration": 0.227272499999998,
          "durationTicks": 480,
          "midi": 59,
          "name": "B3",
          "ticks": 246240,
          "time": 116.5907925,
          "velocity": 0.7007874015748031
        },
        {
          "duration": 0.227272499999998,
          "durationTicks": 480,
          "midi": 56,
          "name": "G#3",
          "ticks": 246240,
          "time": 116.5907925,
          "velocity": 0.7007874015748031
        },
        {
          "duration": 0.227272499999998,
          "durationTicks": 480,
          "midi": 64,
          "name": "E4",
          "ticks": 246240,
          "time": 116.5907925,
          "velocity": 0.7007874015748031
        },
        {
          "duration": 0.227272499999998,
          "durationTicks": 480,
          "midi": 66,
          "name": "F#4",
          "ticks": 246240,
          "time": 116.5907925,
          "velocity": 0.7007874015748031
        },
        {
          "duration": 0.2272725000000122,
          "durationTicks": 480,
          "midi": 59,
          "name": "B3",
          "ticks": 247200,
          "time": 117.0453375,
          "velocity": 0.7007874015748031
        },
        {
          "duration": 0.2272725000000122,
          "durationTicks": 480,
          "midi": 56,
          "name": "G#3",
          "ticks": 247200,
          "time": 117.0453375,
          "velocity": 0.7007874015748031
        },
        {
          "duration": 0.2272725000000122,
          "durationTicks": 480,
          "midi": 64,
          "name": "E4",
          "ticks": 247200,
          "time": 117.0453375,
          "velocity": 0.7007874015748031
        },
        {
          "duration": 0.2272725000000122,
          "durationTicks": 480,
          "midi": 66,
          "name": "F#4",
          "ticks": 247200,
          "time": 117.0453375,
          "velocity": 0.7007874015748031
        },
        {
          "duration": 0.227272499999998,
          "durationTicks": 480,
          "midi": 63,
          "name": "D#4",
          "ticks": 250080,
          "time": 118.4089725,
          "velocity": 0.7007874015748031
        },
        {
          "duration": 0.227272499999998,
          "durationTicks": 480,
          "midi": 59,
          "name": "B3",
          "ticks": 250080,
          "time": 118.4089725,
          "velocity": 0.7007874015748031
        },
        {
          "duration": 0.227272499999998,
          "durationTicks": 480,
          "midi": 56,
          "name": "G#3",
          "ticks": 250080,
          "time": 118.4089725,
          "velocity": 0.7007874015748031
        },
        {
          "duration": 0.227272499999998,
          "durationTicks": 480,
          "midi": 63,
          "name": "D#4",
          "ticks": 251040,
          "time": 118.86351750000001,
          "velocity": 0.7007874015748031
        },
        {
          "duration": 0.227272499999998,
          "durationTicks": 480,
          "midi": 59,
          "name": "B3",
          "ticks": 251040,
          "time": 118.86351750000001,
          "velocity": 0.7007874015748031
        },
        {
          "duration": 0.227272499999998,
          "durationTicks": 480,
          "midi": 56,
          "name": "G#3",
          "ticks": 251040,
          "time": 118.86351750000001,
          "velocity": 0.7007874015748031
        },
        {
          "duration": 0.227272499999998,
          "durationTicks": 480,
          "midi": 63,
          "name": "D#4",
          "ticks": 252000,
          "time": 119.31806250000001,
          "velocity": 0.7007874015748031
        },
        {
          "duration": 0.227272499999998,
          "durationTicks": 480,
          "midi": 59,
          "name": "B3",
          "ticks": 252000,
          "time": 119.31806250000001,
          "velocity": 0.7007874015748031
        },
        {
          "duration": 0.227272499999998,
          "durationTicks": 480,
          "midi": 56,
          "name": "G#3",
          "ticks": 252000,
          "time": 119.31806250000001,
          "velocity": 0.7007874015748031
        },
        {
          "duration": 0.227272499999998,
          "durationTicks": 480,
          "midi": 63,
          "name": "D#4",
          "ticks": 253440,
          "time": 119.99988,
          "velocity": 0.7007874015748031
        },
        {
          "duration": 0.227272499999998,
          "durationTicks": 480,
          "midi": 59,
          "name": "B3",
          "ticks": 253440,
          "time": 119.99988,
          "velocity": 0.7007874015748031
        },
        {
          "duration": 0.227272499999998,
          "durationTicks": 480,
          "midi": 54,
          "name": "F#3",
          "ticks": 253440,
          "time": 119.99988,
          "velocity": 0.7007874015748031
        },
        {
          "duration": 0.227272499999998,
          "durationTicks": 480,
          "midi": 63,
          "name": "D#4",
          "ticks": 254400,
          "time": 120.45442500000001,
          "velocity": 0.7007874015748031
        },
        {
          "duration": 0.227272499999998,
          "durationTicks": 480,
          "midi": 59,
          "name": "B3",
          "ticks": 254400,
          "time": 120.45442500000001,
          "velocity": 0.7007874015748031
        },
        {
          "duration": 0.227272499999998,
          "durationTicks": 480,
          "midi": 54,
          "name": "F#3",
          "ticks": 254400,
          "time": 120.45442500000001,
          "velocity": 0.7007874015748031
        },
        {
          "duration": 0.227272499999998,
          "durationTicks": 480,
          "midi": 63,
          "name": "D#4",
          "ticks": 255360,
          "time": 120.90897000000001,
          "velocity": 0.7007874015748031
        },
        {
          "duration": 0.227272499999998,
          "durationTicks": 480,
          "midi": 59,
          "name": "B3",
          "ticks": 255360,
          "time": 120.90897000000001,
          "velocity": 0.7007874015748031
        },
        {
          "duration": 0.227272499999998,
          "durationTicks": 480,
          "midi": 54,
          "name": "F#3",
          "ticks": 255360,
          "time": 120.90897000000001,
          "velocity": 0.7007874015748031
        },
        {
          "duration": 0.227272499999998,
          "durationTicks": 480,
          "midi": 66,
          "name": "F#4",
          "ticks": 257760,
          "time": 122.04533250000001,
          "velocity": 0.7007874015748031
        },
        {
          "duration": 0.227272499999998,
          "durationTicks": 480,
          "midi": 58,
          "name": "A#3",
          "ticks": 257760,
          "time": 122.04533250000001,
          "velocity": 0.7007874015748031
        },
        {
          "duration": 0.227272499999998,
          "durationTicks": 480,
          "midi": 61,
          "name": "C#4",
          "ticks": 257760,
          "time": 122.04533250000001,
          "velocity": 0.7007874015748031
        },
        {
          "duration": 0.227272499999998,
          "durationTicks": 480,
          "midi": 66,
          "name": "F#4",
          "ticks": 258720,
          "time": 122.49987750000001,
          "velocity": 0.7007874015748031
        },
        {
          "duration": 0.227272499999998,
          "durationTicks": 480,
          "midi": 61,
          "name": "C#4",
          "ticks": 258720,
          "time": 122.49987750000001,
          "velocity": 0.7007874015748031
        },
        {
          "duration": 0.227272499999998,
          "durationTicks": 480,
          "midi": 58,
          "name": "A#3",
          "ticks": 258720,
          "time": 122.49987750000001,
          "velocity": 0.7007874015748031
        },
        {
          "duration": 0.227272499999998,
          "durationTicks": 480,
          "midi": 66,
          "name": "F#4",
          "ticks": 259680,
          "time": 122.9544225,
          "velocity": 0.7007874015748031
        },
        {
          "duration": 0.227272499999998,
          "durationTicks": 480,
          "midi": 61,
          "name": "C#4",
          "ticks": 259680,
          "time": 122.9544225,
          "velocity": 0.7007874015748031
        },
        {
          "duration": 0.227272499999998,
          "durationTicks": 480,
          "midi": 58,
          "name": "A#3",
          "ticks": 259680,
          "time": 122.9544225,
          "velocity": 0.7007874015748031
        },
        {
          "duration": 0.2272725000000122,
          "durationTicks": 480,
          "midi": 66,
          "name": "F#4",
          "ticks": 260640,
          "time": 123.4089675,
          "velocity": 0.7007874015748031
        },
        {
          "duration": 0.2272725000000122,
          "durationTicks": 480,
          "midi": 61,
          "name": "C#4",
          "ticks": 260640,
          "time": 123.4089675,
          "velocity": 0.7007874015748031
        },
        {
          "duration": 0.2272725000000122,
          "durationTicks": 480,
          "midi": 58,
          "name": "A#3",
          "ticks": 260640,
          "time": 123.4089675,
          "velocity": 0.7007874015748031
        },
        {
          "duration": 0.227272499999998,
          "durationTicks": 480,
          "midi": 59,
          "name": "B3",
          "ticks": 261600,
          "time": 123.86351250000001,
          "velocity": 0.7007874015748031
        },
        {
          "duration": 0.227272499999998,
          "durationTicks": 480,
          "midi": 56,
          "name": "G#3",
          "ticks": 261600,
          "time": 123.86351250000001,
          "velocity": 0.7007874015748031
        },
        {
          "duration": 0.227272499999998,
          "durationTicks": 480,
          "midi": 64,
          "name": "E4",
          "ticks": 261600,
          "time": 123.86351250000001,
          "velocity": 0.7007874015748031
        },
        {
          "duration": 0.227272499999998,
          "durationTicks": 480,
          "midi": 59,
          "name": "B3",
          "ticks": 262560,
          "time": 124.31805750000001,
          "velocity": 0.7007874015748031
        },
        {
          "duration": 0.227272499999998,
          "durationTicks": 480,
          "midi": 56,
          "name": "G#3",
          "ticks": 262560,
          "time": 124.31805750000001,
          "velocity": 0.7007874015748031
        },
        {
          "duration": 0.227272499999998,
          "durationTicks": 480,
          "midi": 64,
          "name": "E4",
          "ticks": 262560,
          "time": 124.31805750000001,
          "velocity": 0.7007874015748031
        },
        {
          "duration": 0.227272499999998,
          "durationTicks": 480,
          "midi": 66,
          "name": "F#4",
          "ticks": 262560,
          "time": 124.31805750000001,
          "velocity": 0.7007874015748031
        },
        {
          "duration": 0.227272499999998,
          "durationTicks": 480,
          "midi": 59,
          "name": "B3",
          "ticks": 263520,
          "time": 124.7726025,
          "velocity": 0.7007874015748031
        },
        {
          "duration": 0.227272499999998,
          "durationTicks": 480,
          "midi": 56,
          "name": "G#3",
          "ticks": 263520,
          "time": 124.7726025,
          "velocity": 0.7007874015748031
        },
        {
          "duration": 0.227272499999998,
          "durationTicks": 480,
          "midi": 64,
          "name": "E4",
          "ticks": 263520,
          "time": 124.7726025,
          "velocity": 0.7007874015748031
        },
        {
          "duration": 0.227272499999998,
          "durationTicks": 480,
          "midi": 66,
          "name": "F#4",
          "ticks": 263520,
          "time": 124.7726025,
          "velocity": 0.7007874015748031
        },
        {
          "duration": 0.2272725000000122,
          "durationTicks": 480,
          "midi": 54,
          "name": "F#3",
          "ticks": 264000,
          "time": 124.999875,
          "velocity": 0.7007874015748031
        },
        {
          "duration": 0.227272499999998,
          "durationTicks": 480,
          "midi": 55,
          "name": "G3",
          "ticks": 264480,
          "time": 125.22714750000002,
          "velocity": 0.7007874015748031
        },
        {
          "duration": 0.227272499999998,
          "durationTicks": 480,
          "midi": 63,
          "name": "D#4",
          "ticks": 265440,
          "time": 125.68169250000001,
          "velocity": 0.7007874015748031
        },
        {
          "duration": 0.227272499999998,
          "durationTicks": 480,
          "midi": 59,
          "name": "B3",
          "ticks": 265440,
          "time": 125.68169250000001,
          "velocity": 0.7007874015748031
        },
        {
          "duration": 0.227272499999998,
          "durationTicks": 480,
          "midi": 56,
          "name": "G#3",
          "ticks": 265440,
          "time": 125.68169250000001,
          "velocity": 0.7007874015748031
        },
        {
          "duration": 0.227272499999998,
          "durationTicks": 480,
          "midi": 63,
          "name": "D#4",
          "ticks": 266400,
          "time": 126.13623750000001,
          "velocity": 0.7007874015748031
        },
        {
          "duration": 0.227272499999998,
          "durationTicks": 480,
          "midi": 59,
          "name": "B3",
          "ticks": 266400,
          "time": 126.13623750000001,
          "velocity": 0.7007874015748031
        },
        {
          "duration": 0.227272499999998,
          "durationTicks": 480,
          "midi": 56,
          "name": "G#3",
          "ticks": 266400,
          "time": 126.13623750000001,
          "velocity": 0.7007874015748031
        },
        {
          "duration": 0.2272725000000122,
          "durationTicks": 480,
          "midi": 63,
          "name": "D#4",
          "ticks": 267360,
          "time": 126.5907825,
          "velocity": 0.7007874015748031
        },
        {
          "duration": 0.2272725000000122,
          "durationTicks": 480,
          "midi": 59,
          "name": "B3",
          "ticks": 267360,
          "time": 126.5907825,
          "velocity": 0.7007874015748031
        },
        {
          "duration": 0.2272725000000122,
          "durationTicks": 480,
          "midi": 56,
          "name": "G#3",
          "ticks": 267360,
          "time": 126.5907825,
          "velocity": 0.7007874015748031
        },
        {
          "duration": 0.227272499999998,
          "durationTicks": 480,
          "midi": 63,
          "name": "D#4",
          "ticks": 268320,
          "time": 127.04532750000001,
          "velocity": 0.7007874015748031
        },
        {
          "duration": 0.227272499999998,
          "durationTicks": 480,
          "midi": 59,
          "name": "B3",
          "ticks": 268320,
          "time": 127.04532750000001,
          "velocity": 0.7007874015748031
        },
        {
          "duration": 0.227272499999998,
          "durationTicks": 480,
          "midi": 56,
          "name": "G#3",
          "ticks": 268320,
          "time": 127.04532750000001,
          "velocity": 0.7007874015748031
        },
        {
          "duration": 0.227272499999998,
          "durationTicks": 480,
          "midi": 63,
          "name": "D#4",
          "ticks": 269280,
          "time": 127.49987250000001,
          "velocity": 0.7007874015748031
        },
        {
          "duration": 0.227272499999998,
          "durationTicks": 480,
          "midi": 59,
          "name": "B3",
          "ticks": 269280,
          "time": 127.49987250000001,
          "velocity": 0.7007874015748031
        },
        {
          "duration": 0.227272499999998,
          "durationTicks": 480,
          "midi": 54,
          "name": "F#3",
          "ticks": 269280,
          "time": 127.49987250000001,
          "velocity": 0.7007874015748031
        },
        {
          "duration": 0.227272499999998,
          "durationTicks": 480,
          "midi": 63,
          "name": "D#4",
          "ticks": 270240,
          "time": 127.9544175,
          "velocity": 0.7007874015748031
        },
        {
          "duration": 0.227272499999998,
          "durationTicks": 480,
          "midi": 59,
          "name": "B3",
          "ticks": 270240,
          "time": 127.9544175,
          "velocity": 0.7007874015748031
        },
        {
          "duration": 0.227272499999998,
          "durationTicks": 480,
          "midi": 54,
          "name": "F#3",
          "ticks": 270240,
          "time": 127.9544175,
          "velocity": 0.7007874015748031
        },
        {
          "duration": 0.227272499999998,
          "durationTicks": 480,
          "midi": 63,
          "name": "D#4",
          "ticks": 271200,
          "time": 128.4089625,
          "velocity": 0.7007874015748031
        },
        {
          "duration": 0.227272499999998,
          "durationTicks": 480,
          "midi": 59,
          "name": "B3",
          "ticks": 271200,
          "time": 128.4089625,
          "velocity": 0.7007874015748031
        },
        {
          "duration": 0.227272499999998,
          "durationTicks": 480,
          "midi": 54,
          "name": "F#3",
          "ticks": 271200,
          "time": 128.4089625,
          "velocity": 0.7007874015748031
        },
        {
          "duration": 0.227272499999998,
          "durationTicks": 480,
          "midi": 63,
          "name": "D#4",
          "ticks": 272160,
          "time": 128.8635075,
          "velocity": 0.7007874015748031
        },
        {
          "duration": 0.227272499999998,
          "durationTicks": 480,
          "midi": 59,
          "name": "B3",
          "ticks": 272160,
          "time": 128.8635075,
          "velocity": 0.7007874015748031
        },
        {
          "duration": 0.227272499999998,
          "durationTicks": 480,
          "midi": 54,
          "name": "F#3",
          "ticks": 272160,
          "time": 128.8635075,
          "velocity": 0.7007874015748031
        },
        {
          "duration": 0.227272499999998,
          "durationTicks": 480,
          "midi": 66,
          "name": "F#4",
          "ticks": 273120,
          "time": 129.31805250000002,
          "velocity": 0.7007874015748031
        },
        {
          "duration": 0.227272499999998,
          "durationTicks": 480,
          "midi": 58,
          "name": "A#3",
          "ticks": 273120,
          "time": 129.31805250000002,
          "velocity": 0.7007874015748031
        },
        {
          "duration": 0.227272499999998,
          "durationTicks": 480,
          "midi": 61,
          "name": "C#4",
          "ticks": 273120,
          "time": 129.31805250000002,
          "velocity": 0.7007874015748031
        },
        {
          "duration": 0.227272499999998,
          "durationTicks": 480,
          "midi": 66,
          "name": "F#4",
          "ticks": 274080,
          "time": 129.77259750000002,
          "velocity": 0.7007874015748031
        },
        {
          "duration": 0.227272499999998,
          "durationTicks": 480,
          "midi": 61,
          "name": "C#4",
          "ticks": 274080,
          "time": 129.77259750000002,
          "velocity": 0.7007874015748031
        },
        {
          "duration": 0.227272499999998,
          "durationTicks": 480,
          "midi": 58,
          "name": "A#3",
          "ticks": 274080,
          "time": 129.77259750000002,
          "velocity": 0.7007874015748031
        },
        {
          "duration": 0.227272499999998,
          "durationTicks": 480,
          "midi": 66,
          "name": "F#4",
          "ticks": 275040,
          "time": 130.2271425,
          "velocity": 0.7007874015748031
        },
        {
          "duration": 0.227272499999998,
          "durationTicks": 480,
          "midi": 61,
          "name": "C#4",
          "ticks": 275040,
          "time": 130.2271425,
          "velocity": 0.7007874015748031
        },
        {
          "duration": 0.227272499999998,
          "durationTicks": 480,
          "midi": 58,
          "name": "A#3",
          "ticks": 275040,
          "time": 130.2271425,
          "velocity": 0.7007874015748031
        },
        {
          "duration": 0.227272499999998,
          "durationTicks": 480,
          "midi": 66,
          "name": "F#4",
          "ticks": 276000,
          "time": 130.6816875,
          "velocity": 0.7007874015748031
        },
        {
          "duration": 0.227272499999998,
          "durationTicks": 480,
          "midi": 61,
          "name": "C#4",
          "ticks": 276000,
          "time": 130.6816875,
          "velocity": 0.7007874015748031
        },
        {
          "duration": 0.227272499999998,
          "durationTicks": 480,
          "midi": 58,
          "name": "A#3",
          "ticks": 276000,
          "time": 130.6816875,
          "velocity": 0.7007874015748031
        },
        {
          "duration": 0.227272499999998,
          "durationTicks": 480,
          "midi": 59,
          "name": "B3",
          "ticks": 276960,
          "time": 131.1362325,
          "velocity": 0.7007874015748031
        },
        {
          "duration": 0.227272499999998,
          "durationTicks": 480,
          "midi": 56,
          "name": "G#3",
          "ticks": 276960,
          "time": 131.1362325,
          "velocity": 0.7007874015748031
        },
        {
          "duration": 0.227272499999998,
          "durationTicks": 480,
          "midi": 64,
          "name": "E4",
          "ticks": 276960,
          "time": 131.1362325,
          "velocity": 0.7007874015748031
        },
        {
          "duration": 0.227272499999998,
          "durationTicks": 480,
          "midi": 66,
          "name": "F#4",
          "ticks": 276960,
          "time": 131.1362325,
          "velocity": 0.7007874015748031
        },
        {
          "duration": 0.227272499999998,
          "durationTicks": 480,
          "midi": 59,
          "name": "B3",
          "ticks": 277920,
          "time": 131.5907775,
          "velocity": 0.7007874015748031
        },
        {
          "duration": 0.227272499999998,
          "durationTicks": 480,
          "midi": 56,
          "name": "G#3",
          "ticks": 277920,
          "time": 131.5907775,
          "velocity": 0.7007874015748031
        },
        {
          "duration": 0.227272499999998,
          "durationTicks": 480,
          "midi": 64,
          "name": "E4",
          "ticks": 277920,
          "time": 131.5907775,
          "velocity": 0.7007874015748031
        },
        {
          "duration": 0.227272499999998,
          "durationTicks": 480,
          "midi": 66,
          "name": "F#4",
          "ticks": 277920,
          "time": 131.5907775,
          "velocity": 0.7007874015748031
        },
        {
          "duration": 0.227272499999998,
          "durationTicks": 480,
          "midi": 59,
          "name": "B3",
          "ticks": 278880,
          "time": 132.0453225,
          "velocity": 0.7007874015748031
        },
        {
          "duration": 0.227272499999998,
          "durationTicks": 480,
          "midi": 56,
          "name": "G#3",
          "ticks": 278880,
          "time": 132.0453225,
          "velocity": 0.7007874015748031
        },
        {
          "duration": 0.227272499999998,
          "durationTicks": 480,
          "midi": 64,
          "name": "E4",
          "ticks": 278880,
          "time": 132.0453225,
          "velocity": 0.7007874015748031
        },
        {
          "duration": 0.227272499999998,
          "durationTicks": 480,
          "midi": 59,
          "name": "B3",
          "ticks": 279840,
          "time": 132.49986750000002,
          "velocity": 0.7007874015748031
        },
        {
          "duration": 0.227272499999998,
          "durationTicks": 480,
          "midi": 56,
          "name": "G#3",
          "ticks": 279840,
          "time": 132.49986750000002,
          "velocity": 0.7007874015748031
        },
        {
          "duration": 0.227272499999998,
          "durationTicks": 480,
          "midi": 64,
          "name": "E4",
          "ticks": 279840,
          "time": 132.49986750000002,
          "velocity": 0.7007874015748031
        },
        {
          "duration": 0.227272499999998,
          "durationTicks": 480,
          "midi": 63,
          "name": "D#4",
          "ticks": 280800,
          "time": 132.95441250000002,
          "velocity": 0.7007874015748031
        },
        {
          "duration": 0.227272499999998,
          "durationTicks": 480,
          "midi": 59,
          "name": "B3",
          "ticks": 280800,
          "time": 132.95441250000002,
          "velocity": 0.7007874015748031
        },
        {
          "duration": 0.227272499999998,
          "durationTicks": 480,
          "midi": 56,
          "name": "G#3",
          "ticks": 280800,
          "time": 132.95441250000002,
          "velocity": 0.7007874015748031
        },
        {
          "duration": 0.227272499999998,
          "durationTicks": 480,
          "midi": 63,
          "name": "D#4",
          "ticks": 281760,
          "time": 133.4089575,
          "velocity": 0.7007874015748031
        },
        {
          "duration": 0.227272499999998,
          "durationTicks": 480,
          "midi": 59,
          "name": "B3",
          "ticks": 281760,
          "time": 133.4089575,
          "velocity": 0.7007874015748031
        },
        {
          "duration": 0.227272499999998,
          "durationTicks": 480,
          "midi": 56,
          "name": "G#3",
          "ticks": 281760,
          "time": 133.4089575,
          "velocity": 0.7007874015748031
        },
        {
          "duration": 0.227272499999998,
          "durationTicks": 480,
          "midi": 63,
          "name": "D#4",
          "ticks": 282720,
          "time": 133.8635025,
          "velocity": 0.7007874015748031
        },
        {
          "duration": 0.227272499999998,
          "durationTicks": 480,
          "midi": 59,
          "name": "B3",
          "ticks": 282720,
          "time": 133.8635025,
          "velocity": 0.7007874015748031
        },
        {
          "duration": 0.227272499999998,
          "durationTicks": 480,
          "midi": 56,
          "name": "G#3",
          "ticks": 282720,
          "time": 133.8635025,
          "velocity": 0.7007874015748031
        },
        {
          "duration": 0.227272499999998,
          "durationTicks": 480,
          "midi": 63,
          "name": "D#4",
          "ticks": 283680,
          "time": 134.3180475,
          "velocity": 0.7007874015748031
        },
        {
          "duration": 0.227272499999998,
          "durationTicks": 480,
          "midi": 59,
          "name": "B3",
          "ticks": 283680,
          "time": 134.3180475,
          "velocity": 0.7007874015748031
        },
        {
          "duration": 0.227272499999998,
          "durationTicks": 480,
          "midi": 56,
          "name": "G#3",
          "ticks": 283680,
          "time": 134.3180475,
          "velocity": 0.7007874015748031
        },
        {
          "duration": 0.227272499999998,
          "durationTicks": 480,
          "midi": 63,
          "name": "D#4",
          "ticks": 284640,
          "time": 134.7725925,
          "velocity": 0.7007874015748031
        },
        {
          "duration": 0.227272499999998,
          "durationTicks": 480,
          "midi": 59,
          "name": "B3",
          "ticks": 284640,
          "time": 134.7725925,
          "velocity": 0.7007874015748031
        },
        {
          "duration": 0.227272499999998,
          "durationTicks": 480,
          "midi": 54,
          "name": "F#3",
          "ticks": 284640,
          "time": 134.7725925,
          "velocity": 0.7007874015748031
        },
        {
          "duration": 0.227272499999998,
          "durationTicks": 480,
          "midi": 63,
          "name": "D#4",
          "ticks": 285600,
          "time": 135.2271375,
          "velocity": 0.7007874015748031
        },
        {
          "duration": 0.227272499999998,
          "durationTicks": 480,
          "midi": 59,
          "name": "B3",
          "ticks": 285600,
          "time": 135.2271375,
          "velocity": 0.7007874015748031
        },
        {
          "duration": 0.227272499999998,
          "durationTicks": 480,
          "midi": 54,
          "name": "F#3",
          "ticks": 285600,
          "time": 135.2271375,
          "velocity": 0.7007874015748031
        },
        {
          "duration": 0.227272499999998,
          "durationTicks": 480,
          "midi": 63,
          "name": "D#4",
          "ticks": 286560,
          "time": 135.68168250000002,
          "velocity": 0.7007874015748031
        },
        {
          "duration": 0.227272499999998,
          "durationTicks": 480,
          "midi": 59,
          "name": "B3",
          "ticks": 286560,
          "time": 135.68168250000002,
          "velocity": 0.7007874015748031
        },
        {
          "duration": 0.227272499999998,
          "durationTicks": 480,
          "midi": 54,
          "name": "F#3",
          "ticks": 286560,
          "time": 135.68168250000002,
          "velocity": 0.7007874015748031
        },
        {
          "duration": 0.227272499999998,
          "durationTicks": 480,
          "midi": 63,
          "name": "D#4",
          "ticks": 287520,
          "time": 136.13622750000002,
          "velocity": 0.7007874015748031
        },
        {
          "duration": 0.227272499999998,
          "durationTicks": 480,
          "midi": 59,
          "name": "B3",
          "ticks": 287520,
          "time": 136.13622750000002,
          "velocity": 0.7007874015748031
        },
        {
          "duration": 0.227272499999998,
          "durationTicks": 480,
          "midi": 54,
          "name": "F#3",
          "ticks": 287520,
          "time": 136.13622750000002,
          "velocity": 0.7007874015748031
        },
        {
          "duration": 0.227272499999998,
          "durationTicks": 480,
          "midi": 66,
          "name": "F#4",
          "ticks": 288480,
          "time": 136.5907725,
          "velocity": 0.7007874015748031
        },
        {
          "duration": 0.227272499999998,
          "durationTicks": 480,
          "midi": 58,
          "name": "A#3",
          "ticks": 288480,
          "time": 136.5907725,
          "velocity": 0.7007874015748031
        },
        {
          "duration": 0.227272499999998,
          "durationTicks": 480,
          "midi": 61,
          "name": "C#4",
          "ticks": 288480,
          "time": 136.5907725,
          "velocity": 0.7007874015748031
        },
        {
          "duration": 0.227272499999998,
          "durationTicks": 480,
          "midi": 66,
          "name": "F#4",
          "ticks": 289440,
          "time": 137.0453175,
          "velocity": 0.7007874015748031
        },
        {
          "duration": 0.227272499999998,
          "durationTicks": 480,
          "midi": 61,
          "name": "C#4",
          "ticks": 289440,
          "time": 137.0453175,
          "velocity": 0.7007874015748031
        },
        {
          "duration": 0.227272499999998,
          "durationTicks": 480,
          "midi": 58,
          "name": "A#3",
          "ticks": 289440,
          "time": 137.0453175,
          "velocity": 0.7007874015748031
        },
        {
          "duration": 0.227272499999998,
          "durationTicks": 480,
          "midi": 66,
          "name": "F#4",
          "ticks": 290400,
          "time": 137.4998625,
          "velocity": 0.7007874015748031
        },
        {
          "duration": 0.227272499999998,
          "durationTicks": 480,
          "midi": 61,
          "name": "C#4",
          "ticks": 290400,
          "time": 137.4998625,
          "velocity": 0.7007874015748031
        },
        {
          "duration": 0.227272499999998,
          "durationTicks": 480,
          "midi": 58,
          "name": "A#3",
          "ticks": 290400,
          "time": 137.4998625,
          "velocity": 0.7007874015748031
        },
        {
          "duration": 0.227272499999998,
          "durationTicks": 480,
          "midi": 66,
          "name": "F#4",
          "ticks": 291360,
          "time": 137.9544075,
          "velocity": 0.7007874015748031
        },
        {
          "duration": 0.227272499999998,
          "durationTicks": 480,
          "midi": 61,
          "name": "C#4",
          "ticks": 291360,
          "time": 137.9544075,
          "velocity": 0.7007874015748031
        },
        {
          "duration": 0.227272499999998,
          "durationTicks": 480,
          "midi": 58,
          "name": "A#3",
          "ticks": 291360,
          "time": 137.9544075,
          "velocity": 0.7007874015748031
        },
        {
          "duration": 0.227272499999998,
          "durationTicks": 480,
          "midi": 59,
          "name": "B3",
          "ticks": 292320,
          "time": 138.4089525,
          "velocity": 0.7007874015748031
        },
        {
          "duration": 0.227272499999998,
          "durationTicks": 480,
          "midi": 56,
          "name": "G#3",
          "ticks": 292320,
          "time": 138.4089525,
          "velocity": 0.7007874015748031
        },
        {
          "duration": 0.227272499999998,
          "durationTicks": 480,
          "midi": 64,
          "name": "E4",
          "ticks": 292320,
          "time": 138.4089525,
          "velocity": 0.7007874015748031
        },
        {
          "duration": 0.227272499999998,
          "durationTicks": 480,
          "midi": 66,
          "name": "F#4",
          "ticks": 292320,
          "time": 138.4089525,
          "velocity": 0.7007874015748031
        },
        {
          "duration": 0.227272499999998,
          "durationTicks": 480,
          "midi": 59,
          "name": "B3",
          "ticks": 293280,
          "time": 138.86349750000002,
          "velocity": 0.7007874015748031
        },
        {
          "duration": 0.227272499999998,
          "durationTicks": 480,
          "midi": 56,
          "name": "G#3",
          "ticks": 293280,
          "time": 138.86349750000002,
          "velocity": 0.7007874015748031
        },
        {
          "duration": 0.227272499999998,
          "durationTicks": 480,
          "midi": 64,
          "name": "E4",
          "ticks": 293280,
          "time": 138.86349750000002,
          "velocity": 0.7007874015748031
        },
        {
          "duration": 0.227272499999998,
          "durationTicks": 480,
          "midi": 66,
          "name": "F#4",
          "ticks": 293280,
          "time": 138.86349750000002,
          "velocity": 0.7007874015748031
        },
        {
          "duration": 0.227272499999998,
          "durationTicks": 480,
          "midi": 59,
          "name": "B3",
          "ticks": 294240,
          "time": 139.31804250000002,
          "velocity": 0.7007874015748031
        },
        {
          "duration": 0.227272499999998,
          "durationTicks": 480,
          "midi": 56,
          "name": "G#3",
          "ticks": 294240,
          "time": 139.31804250000002,
          "velocity": 0.7007874015748031
        },
        {
          "duration": 0.227272499999998,
          "durationTicks": 480,
          "midi": 64,
          "name": "E4",
          "ticks": 294240,
          "time": 139.31804250000002,
          "velocity": 0.7007874015748031
        },
        {
          "duration": 0.227272499999998,
          "durationTicks": 480,
          "midi": 59,
          "name": "B3",
          "ticks": 295200,
          "time": 139.77258750000001,
          "velocity": 0.7007874015748031
        },
        {
          "duration": 0.227272499999998,
          "durationTicks": 480,
          "midi": 56,
          "name": "G#3",
          "ticks": 295200,
          "time": 139.77258750000001,
          "velocity": 0.7007874015748031
        },
        {
          "duration": 0.227272499999998,
          "durationTicks": 480,
          "midi": 64,
          "name": "E4",
          "ticks": 295200,
          "time": 139.77258750000001,
          "velocity": 0.7007874015748031
        },
        {
          "duration": 0.227272499999998,
          "durationTicks": 480,
          "midi": 63,
          "name": "D#4",
          "ticks": 295680,
          "time": 139.99986,
          "velocity": 0.7007874015748031
        },
        {
          "duration": 0.227272499999998,
          "durationTicks": 480,
          "midi": 59,
          "name": "B3",
          "ticks": 295680,
          "time": 139.99986,
          "velocity": 0.7007874015748031
        },
        {
          "duration": 0.227272499999998,
          "durationTicks": 480,
          "midi": 56,
          "name": "G#3",
          "ticks": 295680,
          "time": 139.99986,
          "velocity": 0.7007874015748031
        },
        {
          "duration": 0.227272499999998,
          "durationTicks": 480,
          "midi": 63,
          "name": "D#4",
          "ticks": 296160,
          "time": 140.2271325,
          "velocity": 0.7007874015748031
        },
        {
          "duration": 0.227272499999998,
          "durationTicks": 480,
          "midi": 59,
          "name": "B3",
          "ticks": 296160,
          "time": 140.2271325,
          "velocity": 0.7007874015748031
        },
        {
          "duration": 0.227272499999998,
          "durationTicks": 480,
          "midi": 56,
          "name": "G#3",
          "ticks": 296160,
          "time": 140.2271325,
          "velocity": 0.7007874015748031
        },
        {
          "duration": 0.227272499999998,
          "durationTicks": 480,
          "midi": 63,
          "name": "D#4",
          "ticks": 297120,
          "time": 140.6816775,
          "velocity": 0.7007874015748031
        },
        {
          "duration": 0.227272499999998,
          "durationTicks": 480,
          "midi": 59,
          "name": "B3",
          "ticks": 297120,
          "time": 140.6816775,
          "velocity": 0.7007874015748031
        },
        {
          "duration": 0.227272499999998,
          "durationTicks": 480,
          "midi": 56,
          "name": "G#3",
          "ticks": 297120,
          "time": 140.6816775,
          "velocity": 0.7007874015748031
        },
        {
          "duration": 0.227272499999998,
          "durationTicks": 480,
          "midi": 63,
          "name": "D#4",
          "ticks": 298080,
          "time": 141.1362225,
          "velocity": 0.7007874015748031
        },
        {
          "duration": 0.227272499999998,
          "durationTicks": 480,
          "midi": 59,
          "name": "B3",
          "ticks": 298080,
          "time": 141.1362225,
          "velocity": 0.7007874015748031
        },
        {
          "duration": 0.227272499999998,
          "durationTicks": 480,
          "midi": 56,
          "name": "G#3",
          "ticks": 298080,
          "time": 141.1362225,
          "velocity": 0.7007874015748031
        },
        {
          "duration": 0.2272725000000264,
          "durationTicks": 480,
          "midi": 63,
          "name": "D#4",
          "ticks": 299520,
          "time": 141.81804,
          "velocity": 0.7007874015748031
        },
        {
          "duration": 0.2272725000000264,
          "durationTicks": 480,
          "midi": 59,
          "name": "B3",
          "ticks": 299520,
          "time": 141.81804,
          "velocity": 0.7007874015748031
        },
        {
          "duration": 0.2272725000000264,
          "durationTicks": 480,
          "midi": 54,
          "name": "F#3",
          "ticks": 299520,
          "time": 141.81804,
          "velocity": 0.7007874015748031
        },
        {
          "duration": 0.227272499999998,
          "durationTicks": 480,
          "midi": 63,
          "name": "D#4",
          "ticks": 300000,
          "time": 142.04531250000002,
          "velocity": 0.7007874015748031
        },
        {
          "duration": 0.227272499999998,
          "durationTicks": 480,
          "midi": 59,
          "name": "B3",
          "ticks": 300000,
          "time": 142.04531250000002,
          "velocity": 0.7007874015748031
        },
        {
          "duration": 0.227272499999998,
          "durationTicks": 480,
          "midi": 54,
          "name": "F#3",
          "ticks": 300000,
          "time": 142.04531250000002,
          "velocity": 0.7007874015748031
        },
        {
          "duration": 0.227272499999998,
          "durationTicks": 480,
          "midi": 63,
          "name": "D#4",
          "ticks": 300960,
          "time": 142.49985750000002,
          "velocity": 0.7007874015748031
        },
        {
          "duration": 0.227272499999998,
          "durationTicks": 480,
          "midi": 59,
          "name": "B3",
          "ticks": 300960,
          "time": 142.49985750000002,
          "velocity": 0.7007874015748031
        },
        {
          "duration": 0.227272499999998,
          "durationTicks": 480,
          "midi": 54,
          "name": "F#3",
          "ticks": 300960,
          "time": 142.49985750000002,
          "velocity": 0.7007874015748031
        },
        {
          "duration": 0.227272499999998,
          "durationTicks": 480,
          "midi": 63,
          "name": "D#4",
          "ticks": 301920,
          "time": 142.95440250000001,
          "velocity": 0.7007874015748031
        },
        {
          "duration": 0.227272499999998,
          "durationTicks": 480,
          "midi": 59,
          "name": "B3",
          "ticks": 301920,
          "time": 142.95440250000001,
          "velocity": 0.7007874015748031
        },
        {
          "duration": 0.227272499999998,
          "durationTicks": 480,
          "midi": 54,
          "name": "F#3",
          "ticks": 301920,
          "time": 142.95440250000001,
          "velocity": 0.7007874015748031
        },
        {
          "duration": 0.227272499999998,
          "durationTicks": 480,
          "midi": 66,
          "name": "F#4",
          "ticks": 303360,
          "time": 143.63622,
          "velocity": 0.7007874015748031
        },
        {
          "duration": 0.227272499999998,
          "durationTicks": 480,
          "midi": 58,
          "name": "A#3",
          "ticks": 303360,
          "time": 143.63622,
          "velocity": 0.7007874015748031
        },
        {
          "duration": 0.227272499999998,
          "durationTicks": 480,
          "midi": 61,
          "name": "C#4",
          "ticks": 303360,
          "time": 143.63622,
          "velocity": 0.7007874015748031
        },
        {
          "duration": 0.227272499999998,
          "durationTicks": 480,
          "midi": 66,
          "name": "F#4",
          "ticks": 303840,
          "time": 143.8634925,
          "velocity": 0.7007874015748031
        },
        {
          "duration": 0.227272499999998,
          "durationTicks": 480,
          "midi": 61,
          "name": "C#4",
          "ticks": 303840,
          "time": 143.8634925,
          "velocity": 0.7007874015748031
        },
        {
          "duration": 0.227272499999998,
          "durationTicks": 480,
          "midi": 58,
          "name": "A#3",
          "ticks": 303840,
          "time": 143.8634925,
          "velocity": 0.7007874015748031
        },
        {
          "duration": 0.227272499999998,
          "durationTicks": 480,
          "midi": 66,
          "name": "F#4",
          "ticks": 304800,
          "time": 144.3180375,
          "velocity": 0.7007874015748031
        },
        {
          "duration": 0.227272499999998,
          "durationTicks": 480,
          "midi": 61,
          "name": "C#4",
          "ticks": 304800,
          "time": 144.3180375,
          "velocity": 0.7007874015748031
        },
        {
          "duration": 0.227272499999998,
          "durationTicks": 480,
          "midi": 58,
          "name": "A#3",
          "ticks": 304800,
          "time": 144.3180375,
          "velocity": 0.7007874015748031
        },
        {
          "duration": 0.227272499999998,
          "durationTicks": 480,
          "midi": 66,
          "name": "F#4",
          "ticks": 305760,
          "time": 144.7725825,
          "velocity": 0.7007874015748031
        },
        {
          "duration": 0.227272499999998,
          "durationTicks": 480,
          "midi": 61,
          "name": "C#4",
          "ticks": 305760,
          "time": 144.7725825,
          "velocity": 0.7007874015748031
        },
        {
          "duration": 0.227272499999998,
          "durationTicks": 480,
          "midi": 58,
          "name": "A#3",
          "ticks": 305760,
          "time": 144.7725825,
          "velocity": 0.7007874015748031
        },
        {
          "duration": 0.227272499999998,
          "durationTicks": 480,
          "midi": 59,
          "name": "B3",
          "ticks": 307200,
          "time": 145.45440000000002,
          "velocity": 0.7007874015748031
        },
        {
          "duration": 0.227272499999998,
          "durationTicks": 480,
          "midi": 56,
          "name": "G#3",
          "ticks": 307200,
          "time": 145.45440000000002,
          "velocity": 0.7007874015748031
        },
        {
          "duration": 0.227272499999998,
          "durationTicks": 480,
          "midi": 64,
          "name": "E4",
          "ticks": 307200,
          "time": 145.45440000000002,
          "velocity": 0.7007874015748031
        },
        {
          "duration": 0.227272499999998,
          "durationTicks": 480,
          "midi": 59,
          "name": "B3",
          "ticks": 307680,
          "time": 145.68167250000002,
          "velocity": 0.7007874015748031
        },
        {
          "duration": 0.227272499999998,
          "durationTicks": 480,
          "midi": 56,
          "name": "G#3",
          "ticks": 307680,
          "time": 145.68167250000002,
          "velocity": 0.7007874015748031
        },
        {
          "duration": 0.227272499999998,
          "durationTicks": 480,
          "midi": 64,
          "name": "E4",
          "ticks": 307680,
          "time": 145.68167250000002,
          "velocity": 0.7007874015748031
        },
        {
          "duration": 0.227272499999998,
          "durationTicks": 480,
          "midi": 59,
          "name": "B3",
          "ticks": 308640,
          "time": 146.13621750000001,
          "velocity": 0.7007874015748031
        },
        {
          "duration": 0.227272499999998,
          "durationTicks": 480,
          "midi": 56,
          "name": "G#3",
          "ticks": 308640,
          "time": 146.13621750000001,
          "velocity": 0.7007874015748031
        },
        {
          "duration": 0.227272499999998,
          "durationTicks": 480,
          "midi": 64,
          "name": "E4",
          "ticks": 308640,
          "time": 146.13621750000001,
          "velocity": 0.7007874015748031
        },
        {
          "duration": 0.227272499999998,
          "durationTicks": 480,
          "midi": 59,
          "name": "B3",
          "ticks": 309600,
          "time": 146.5907625,
          "velocity": 0.7007874015748031
        },
        {
          "duration": 0.227272499999998,
          "durationTicks": 480,
          "midi": 56,
          "name": "G#3",
          "ticks": 309600,
          "time": 146.5907625,
          "velocity": 0.7007874015748031
        },
        {
          "duration": 0.227272499999998,
          "durationTicks": 480,
          "midi": 64,
          "name": "E4",
          "ticks": 309600,
          "time": 146.5907625,
          "velocity": 0.7007874015748031
        },
        {
          "duration": 0.227272499999998,
          "durationTicks": 480,
          "midi": 63,
          "name": "D#4",
          "ticks": 311040,
          "time": 147.27258,
          "velocity": 0.7007874015748031
        },
        {
          "duration": 0.227272499999998,
          "durationTicks": 480,
          "midi": 59,
          "name": "B3",
          "ticks": 311040,
          "time": 147.27258,
          "velocity": 0.7007874015748031
        },
        {
          "duration": 0.227272499999998,
          "durationTicks": 480,
          "midi": 56,
          "name": "G#3",
          "ticks": 311040,
          "time": 147.27258,
          "velocity": 0.7007874015748031
        },
        {
          "duration": 0.227272499999998,
          "durationTicks": 480,
          "midi": 63,
          "name": "D#4",
          "ticks": 311520,
          "time": 147.4998525,
          "velocity": 0.7007874015748031
        },
        {
          "duration": 0.227272499999998,
          "durationTicks": 480,
          "midi": 59,
          "name": "B3",
          "ticks": 311520,
          "time": 147.4998525,
          "velocity": 0.7007874015748031
        },
        {
          "duration": 0.227272499999998,
          "durationTicks": 480,
          "midi": 56,
          "name": "G#3",
          "ticks": 311520,
          "time": 147.4998525,
          "velocity": 0.7007874015748031
        },
        {
          "duration": 0.227272499999998,
          "durationTicks": 480,
          "midi": 63,
          "name": "D#4",
          "ticks": 312480,
          "time": 147.9543975,
          "velocity": 0.7007874015748031
        },
        {
          "duration": 0.227272499999998,
          "durationTicks": 480,
          "midi": 59,
          "name": "B3",
          "ticks": 312480,
          "time": 147.9543975,
          "velocity": 0.7007874015748031
        },
        {
          "duration": 0.227272499999998,
          "durationTicks": 480,
          "midi": 56,
          "name": "G#3",
          "ticks": 312480,
          "time": 147.9543975,
          "velocity": 0.7007874015748031
        },
        {
          "duration": 0.227272499999998,
          "durationTicks": 480,
          "midi": 63,
          "name": "D#4",
          "ticks": 313440,
          "time": 148.40894250000002,
          "velocity": 0.7007874015748031
        },
        {
          "duration": 0.227272499999998,
          "durationTicks": 480,
          "midi": 59,
          "name": "B3",
          "ticks": 313440,
          "time": 148.40894250000002,
          "velocity": 0.7007874015748031
        },
        {
          "duration": 0.227272499999998,
          "durationTicks": 480,
          "midi": 56,
          "name": "G#3",
          "ticks": 313440,
          "time": 148.40894250000002,
          "velocity": 0.7007874015748031
        },
        {
          "duration": 0.227272499999998,
          "durationTicks": 480,
          "midi": 63,
          "name": "D#4",
          "ticks": 314880,
          "time": 149.09076000000002,
          "velocity": 0.7007874015748031
        },
        {
          "duration": 0.227272499999998,
          "durationTicks": 480,
          "midi": 59,
          "name": "B3",
          "ticks": 314880,
          "time": 149.09076000000002,
          "velocity": 0.7007874015748031
        },
        {
          "duration": 0.227272499999998,
          "durationTicks": 480,
          "midi": 54,
          "name": "F#3",
          "ticks": 314880,
          "time": 149.09076000000002,
          "velocity": 0.7007874015748031
        },
        {
          "duration": 0.227272499999998,
          "durationTicks": 480,
          "midi": 63,
          "name": "D#4",
          "ticks": 315360,
          "time": 149.31803250000002,
          "velocity": 0.7007874015748031
        },
        {
          "duration": 0.227272499999998,
          "durationTicks": 480,
          "midi": 59,
          "name": "B3",
          "ticks": 315360,
          "time": 149.31803250000002,
          "velocity": 0.7007874015748031
        },
        {
          "duration": 0.227272499999998,
          "durationTicks": 480,
          "midi": 54,
          "name": "F#3",
          "ticks": 315360,
          "time": 149.31803250000002,
          "velocity": 0.7007874015748031
        },
        {
          "duration": 0.227272499999998,
          "durationTicks": 480,
          "midi": 63,
          "name": "D#4",
          "ticks": 316320,
          "time": 149.7725775,
          "velocity": 0.7007874015748031
        },
        {
          "duration": 0.227272499999998,
          "durationTicks": 480,
          "midi": 59,
          "name": "B3",
          "ticks": 316320,
          "time": 149.7725775,
          "velocity": 0.7007874015748031
        },
        {
          "duration": 0.227272499999998,
          "durationTicks": 480,
          "midi": 54,
          "name": "F#3",
          "ticks": 316320,
          "time": 149.7725775,
          "velocity": 0.7007874015748031
        },
        {
          "duration": 0.227272499999998,
          "durationTicks": 480,
          "midi": 63,
          "name": "D#4",
          "ticks": 317280,
          "time": 150.2271225,
          "velocity": 0.7007874015748031
        },
        {
          "duration": 0.227272499999998,
          "durationTicks": 480,
          "midi": 59,
          "name": "B3",
          "ticks": 317280,
          "time": 150.2271225,
          "velocity": 0.7007874015748031
        },
        {
          "duration": 0.227272499999998,
          "durationTicks": 480,
          "midi": 54,
          "name": "F#3",
          "ticks": 317280,
          "time": 150.2271225,
          "velocity": 0.7007874015748031
        },
        {
          "duration": 0.227272499999998,
          "durationTicks": 480,
          "midi": 66,
          "name": "F#4",
          "ticks": 318720,
          "time": 150.90894,
          "velocity": 0.7007874015748031
        },
        {
          "duration": 0.227272499999998,
          "durationTicks": 480,
          "midi": 58,
          "name": "A#3",
          "ticks": 318720,
          "time": 150.90894,
          "velocity": 0.7007874015748031
        },
        {
          "duration": 0.227272499999998,
          "durationTicks": 480,
          "midi": 61,
          "name": "C#4",
          "ticks": 318720,
          "time": 150.90894,
          "velocity": 0.7007874015748031
        },
        {
          "duration": 0.227272499999998,
          "durationTicks": 480,
          "midi": 66,
          "name": "F#4",
          "ticks": 319200,
          "time": 151.1362125,
          "velocity": 0.7007874015748031
        },
        {
          "duration": 0.227272499999998,
          "durationTicks": 480,
          "midi": 61,
          "name": "C#4",
          "ticks": 319200,
          "time": 151.1362125,
          "velocity": 0.7007874015748031
        },
        {
          "duration": 0.227272499999998,
          "durationTicks": 480,
          "midi": 58,
          "name": "A#3",
          "ticks": 319200,
          "time": 151.1362125,
          "velocity": 0.7007874015748031
        },
        {
          "duration": 0.227272499999998,
          "durationTicks": 480,
          "midi": 66,
          "name": "F#4",
          "ticks": 320160,
          "time": 151.59075750000002,
          "velocity": 0.7007874015748031
        },
        {
          "duration": 0.227272499999998,
          "durationTicks": 480,
          "midi": 61,
          "name": "C#4",
          "ticks": 320160,
          "time": 151.59075750000002,
          "velocity": 0.7007874015748031
        },
        {
          "duration": 0.227272499999998,
          "durationTicks": 480,
          "midi": 58,
          "name": "A#3",
          "ticks": 320160,
          "time": 151.59075750000002,
          "velocity": 0.7007874015748031
        },
        {
          "duration": 0.227272499999998,
          "durationTicks": 480,
          "midi": 66,
          "name": "F#4",
          "ticks": 321120,
          "time": 152.04530250000002,
          "velocity": 0.7007874015748031
        },
        {
          "duration": 0.227272499999998,
          "durationTicks": 480,
          "midi": 61,
          "name": "C#4",
          "ticks": 321120,
          "time": 152.04530250000002,
          "velocity": 0.7007874015748031
        },
        {
          "duration": 0.227272499999998,
          "durationTicks": 480,
          "midi": 58,
          "name": "A#3",
          "ticks": 321120,
          "time": 152.04530250000002,
          "velocity": 0.7007874015748031
        },
        {
          "duration": 0.227272499999998,
          "durationTicks": 480,
          "midi": 64,
          "name": "E4",
          "ticks": 322560,
          "time": 152.72712,
          "velocity": 0.7007874015748031
        },
        {
          "duration": 0.227272499999998,
          "durationTicks": 480,
          "midi": 56,
          "name": "G#3",
          "ticks": 322560,
          "time": 152.72712,
          "velocity": 0.7007874015748031
        },
        {
          "duration": 0.227272499999998,
          "durationTicks": 480,
          "midi": 59,
          "name": "B3",
          "ticks": 322560,
          "time": 152.72712,
          "velocity": 0.7007874015748031
        },
        {
          "duration": 0.227272499999998,
          "durationTicks": 480,
          "midi": 64,
          "name": "E4",
          "ticks": 323040,
          "time": 152.9543925,
          "velocity": 0.7007874015748031
        },
        {
          "duration": 0.227272499999998,
          "durationTicks": 480,
          "midi": 56,
          "name": "G#3",
          "ticks": 323040,
          "time": 152.9543925,
          "velocity": 0.7007874015748031
        },
        {
          "duration": 0.227272499999998,
          "durationTicks": 480,
          "midi": 59,
          "name": "B3",
          "ticks": 323040,
          "time": 152.9543925,
          "velocity": 0.7007874015748031
        },
        {
          "duration": 0.227272499999998,
          "durationTicks": 480,
          "midi": 64,
          "name": "E4",
          "ticks": 324000,
          "time": 153.4089375,
          "velocity": 0.7007874015748031
        },
        {
          "duration": 0.227272499999998,
          "durationTicks": 480,
          "midi": 56,
          "name": "G#3",
          "ticks": 324000,
          "time": 153.4089375,
          "velocity": 0.7007874015748031
        },
        {
          "duration": 0.227272499999998,
          "durationTicks": 480,
          "midi": 59,
          "name": "B3",
          "ticks": 324000,
          "time": 153.4089375,
          "velocity": 0.7007874015748031
        },
        {
          "duration": 0.227272499999998,
          "durationTicks": 480,
          "midi": 64,
          "name": "E4",
          "ticks": 324960,
          "time": 153.8634825,
          "velocity": 0.7007874015748031
        },
        {
          "duration": 0.227272499999998,
          "durationTicks": 480,
          "midi": 56,
          "name": "G#3",
          "ticks": 324960,
          "time": 153.8634825,
          "velocity": 0.7007874015748031
        },
        {
          "duration": 0.227272499999998,
          "durationTicks": 480,
          "midi": 59,
          "name": "B3",
          "ticks": 324960,
          "time": 153.8634825,
          "velocity": 0.7007874015748031
        },
        {
          "duration": 0.2272725000000264,
          "durationTicks": 480,
          "midi": 63,
          "name": "D#4",
          "ticks": 326400,
          "time": 154.5453,
          "velocity": 0.7007874015748031
        },
        {
          "duration": 0.2272725000000264,
          "durationTicks": 480,
          "midi": 59,
          "name": "B3",
          "ticks": 326400,
          "time": 154.5453,
          "velocity": 0.7007874015748031
        },
        {
          "duration": 0.2272725000000264,
          "durationTicks": 480,
          "midi": 56,
          "name": "G#3",
          "ticks": 326400,
          "time": 154.5453,
          "velocity": 0.7007874015748031
        },
        {
          "duration": 0.227272499999998,
          "durationTicks": 480,
          "midi": 63,
          "name": "D#4",
          "ticks": 326880,
          "time": 154.77257250000002,
          "velocity": 0.7007874015748031
        },
        {
          "duration": 0.227272499999998,
          "durationTicks": 480,
          "midi": 59,
          "name": "B3",
          "ticks": 326880,
          "time": 154.77257250000002,
          "velocity": 0.7007874015748031
        },
        {
          "duration": 0.227272499999998,
          "durationTicks": 480,
          "midi": 56,
          "name": "G#3",
          "ticks": 326880,
          "time": 154.77257250000002,
          "velocity": 0.7007874015748031
        },
        {
          "duration": 0.227272499999998,
          "durationTicks": 480,
          "midi": 63,
          "name": "D#4",
          "ticks": 327840,
          "time": 155.22711750000002,
          "velocity": 0.7007874015748031
        },
        {
          "duration": 0.227272499999998,
          "durationTicks": 480,
          "midi": 59,
          "name": "B3",
          "ticks": 327840,
          "time": 155.22711750000002,
          "velocity": 0.7007874015748031
        },
        {
          "duration": 0.227272499999998,
          "durationTicks": 480,
          "midi": 56,
          "name": "G#3",
          "ticks": 327840,
          "time": 155.22711750000002,
          "velocity": 0.7007874015748031
        },
        {
          "duration": 0.227272499999998,
          "durationTicks": 480,
          "midi": 63,
          "name": "D#4",
          "ticks": 328800,
          "time": 155.68166250000002,
          "velocity": 0.7007874015748031
        },
        {
          "duration": 0.227272499999998,
          "durationTicks": 480,
          "midi": 59,
          "name": "B3",
          "ticks": 328800,
          "time": 155.68166250000002,
          "velocity": 0.7007874015748031
        },
        {
          "duration": 0.227272499999998,
          "durationTicks": 480,
          "midi": 56,
          "name": "G#3",
          "ticks": 328800,
          "time": 155.68166250000002,
          "velocity": 0.7007874015748031
        },
        {
          "duration": 0.227272499999998,
          "durationTicks": 480,
          "midi": 63,
          "name": "D#4",
          "ticks": 330240,
          "time": 156.36348,
          "velocity": 0.7007874015748031
        },
        {
          "duration": 0.227272499999998,
          "durationTicks": 480,
          "midi": 59,
          "name": "B3",
          "ticks": 330240,
          "time": 156.36348,
          "velocity": 0.7007874015748031
        },
        {
          "duration": 0.227272499999998,
          "durationTicks": 480,
          "midi": 54,
          "name": "F#3",
          "ticks": 330240,
          "time": 156.36348,
          "velocity": 0.7007874015748031
        },
        {
          "duration": 0.227272499999998,
          "durationTicks": 480,
          "midi": 63,
          "name": "D#4",
          "ticks": 330720,
          "time": 156.5907525,
          "velocity": 0.7007874015748031
        },
        {
          "duration": 0.227272499999998,
          "durationTicks": 480,
          "midi": 59,
          "name": "B3",
          "ticks": 330720,
          "time": 156.5907525,
          "velocity": 0.7007874015748031
        },
        {
          "duration": 0.227272499999998,
          "durationTicks": 480,
          "midi": 54,
          "name": "F#3",
          "ticks": 330720,
          "time": 156.5907525,
          "velocity": 0.7007874015748031
        },
        {
          "duration": 0.227272499999998,
          "durationTicks": 480,
          "midi": 63,
          "name": "D#4",
          "ticks": 331680,
          "time": 157.0452975,
          "velocity": 0.7007874015748031
        },
        {
          "duration": 0.227272499999998,
          "durationTicks": 480,
          "midi": 59,
          "name": "B3",
          "ticks": 331680,
          "time": 157.0452975,
          "velocity": 0.7007874015748031
        },
        {
          "duration": 0.227272499999998,
          "durationTicks": 480,
          "midi": 54,
          "name": "F#3",
          "ticks": 331680,
          "time": 157.0452975,
          "velocity": 0.7007874015748031
        },
        {
          "duration": 0.227272499999998,
          "durationTicks": 480,
          "midi": 63,
          "name": "D#4",
          "ticks": 332640,
          "time": 157.4998425,
          "velocity": 0.7007874015748031
        },
        {
          "duration": 0.227272499999998,
          "durationTicks": 480,
          "midi": 59,
          "name": "B3",
          "ticks": 332640,
          "time": 157.4998425,
          "velocity": 0.7007874015748031
        },
        {
          "duration": 0.227272499999998,
          "durationTicks": 480,
          "midi": 54,
          "name": "F#3",
          "ticks": 332640,
          "time": 157.4998425,
          "velocity": 0.7007874015748031
        },
        {
          "duration": 0.227272499999998,
          "durationTicks": 480,
          "midi": 66,
          "name": "F#4",
          "ticks": 334080,
          "time": 158.18166000000002,
          "velocity": 0.7007874015748031
        },
        {
          "duration": 0.227272499999998,
          "durationTicks": 480,
          "midi": 58,
          "name": "A#3",
          "ticks": 334080,
          "time": 158.18166000000002,
          "velocity": 0.7007874015748031
        },
        {
          "duration": 0.227272499999998,
          "durationTicks": 480,
          "midi": 61,
          "name": "C#4",
          "ticks": 334080,
          "time": 158.18166000000002,
          "velocity": 0.7007874015748031
        },
        {
          "duration": 0.227272499999998,
          "durationTicks": 480,
          "midi": 66,
          "name": "F#4",
          "ticks": 334560,
          "time": 158.40893250000002,
          "velocity": 0.7007874015748031
        },
        {
          "duration": 0.227272499999998,
          "durationTicks": 480,
          "midi": 61,
          "name": "C#4",
          "ticks": 334560,
          "time": 158.40893250000002,
          "velocity": 0.7007874015748031
        },
        {
          "duration": 0.227272499999998,
          "durationTicks": 480,
          "midi": 58,
          "name": "A#3",
          "ticks": 334560,
          "time": 158.40893250000002,
          "velocity": 0.7007874015748031
        },
        {
          "duration": 0.227272499999998,
          "durationTicks": 480,
          "midi": 66,
          "name": "F#4",
          "ticks": 335520,
          "time": 158.86347750000002,
          "velocity": 0.7007874015748031
        },
        {
          "duration": 0.227272499999998,
          "durationTicks": 480,
          "midi": 61,
          "name": "C#4",
          "ticks": 335520,
          "time": 158.86347750000002,
          "velocity": 0.7007874015748031
        },
        {
          "duration": 0.227272499999998,
          "durationTicks": 480,
          "midi": 58,
          "name": "A#3",
          "ticks": 335520,
          "time": 158.86347750000002,
          "velocity": 0.7007874015748031
        },
        {
          "duration": 0.227272499999998,
          "durationTicks": 480,
          "midi": 66,
          "name": "F#4",
          "ticks": 336480,
          "time": 159.3180225,
          "velocity": 0.7007874015748031
        },
        {
          "duration": 0.227272499999998,
          "durationTicks": 480,
          "midi": 61,
          "name": "C#4",
          "ticks": 336480,
          "time": 159.3180225,
          "velocity": 0.7007874015748031
        },
        {
          "duration": 0.227272499999998,
          "durationTicks": 480,
          "midi": 58,
          "name": "A#3",
          "ticks": 336480,
          "time": 159.3180225,
          "velocity": 0.7007874015748031
        },
        {
          "duration": 0.227272499999998,
          "durationTicks": 480,
          "midi": 59,
          "name": "B3",
          "ticks": 337920,
          "time": 159.99984,
          "velocity": 0.7007874015748031
        },
        {
          "duration": 0.227272499999998,
          "durationTicks": 480,
          "midi": 56,
          "name": "G#3",
          "ticks": 337920,
          "time": 159.99984,
          "velocity": 0.7007874015748031
        },
        {
          "duration": 0.227272499999998,
          "durationTicks": 480,
          "midi": 64,
          "name": "E4",
          "ticks": 337920,
          "time": 159.99984,
          "velocity": 0.7007874015748031
        },
        {
          "duration": 0.227272499999998,
          "durationTicks": 480,
          "midi": 59,
          "name": "B3",
          "ticks": 338400,
          "time": 160.2271125,
          "velocity": 0.7007874015748031
        },
        {
          "duration": 0.227272499999998,
          "durationTicks": 480,
          "midi": 56,
          "name": "G#3",
          "ticks": 338400,
          "time": 160.2271125,
          "velocity": 0.7007874015748031
        },
        {
          "duration": 0.227272499999998,
          "durationTicks": 480,
          "midi": 64,
          "name": "E4",
          "ticks": 338400,
          "time": 160.2271125,
          "velocity": 0.7007874015748031
        },
        {
          "duration": 0.227272499999998,
          "durationTicks": 480,
          "midi": 59,
          "name": "B3",
          "ticks": 339360,
          "time": 160.6816575,
          "velocity": 0.7007874015748031
        },
        {
          "duration": 0.227272499999998,
          "durationTicks": 480,
          "midi": 56,
          "name": "G#3",
          "ticks": 339360,
          "time": 160.6816575,
          "velocity": 0.7007874015748031
        },
        {
          "duration": 0.227272499999998,
          "durationTicks": 480,
          "midi": 64,
          "name": "E4",
          "ticks": 339360,
          "time": 160.6816575,
          "velocity": 0.7007874015748031
        },
        {
          "duration": 0.227272499999998,
          "durationTicks": 480,
          "midi": 59,
          "name": "B3",
          "ticks": 340320,
          "time": 161.13620250000002,
          "velocity": 0.7007874015748031
        },
        {
          "duration": 0.227272499999998,
          "durationTicks": 480,
          "midi": 56,
          "name": "G#3",
          "ticks": 340320,
          "time": 161.13620250000002,
          "velocity": 0.7007874015748031
        },
        {
          "duration": 0.227272499999998,
          "durationTicks": 480,
          "midi": 64,
          "name": "E4",
          "ticks": 340320,
          "time": 161.13620250000002,
          "velocity": 0.7007874015748031
        },
        {
          "duration": 0.227272499999998,
          "durationTicks": 480,
          "midi": 63,
          "name": "D#4",
          "ticks": 341760,
          "time": 161.81802000000002,
          "velocity": 0.7007874015748031
        },
        {
          "duration": 0.227272499999998,
          "durationTicks": 480,
          "midi": 59,
          "name": "B3",
          "ticks": 341760,
          "time": 161.81802000000002,
          "velocity": 0.7007874015748031
        },
        {
          "duration": 0.227272499999998,
          "durationTicks": 480,
          "midi": 56,
          "name": "G#3",
          "ticks": 341760,
          "time": 161.81802000000002,
          "velocity": 0.7007874015748031
        },
        {
          "duration": 0.227272499999998,
          "durationTicks": 480,
          "midi": 63,
          "name": "D#4",
          "ticks": 342240,
          "time": 162.04529250000002,
          "velocity": 0.7007874015748031
        },
        {
          "duration": 0.227272499999998,
          "durationTicks": 480,
          "midi": 59,
          "name": "B3",
          "ticks": 342240,
          "time": 162.04529250000002,
          "velocity": 0.7007874015748031
        },
        {
          "duration": 0.227272499999998,
          "durationTicks": 480,
          "midi": 56,
          "name": "G#3",
          "ticks": 342240,
          "time": 162.04529250000002,
          "velocity": 0.7007874015748031
        },
        {
          "duration": 0.227272499999998,
          "durationTicks": 480,
          "midi": 63,
          "name": "D#4",
          "ticks": 343200,
          "time": 162.4998375,
          "velocity": 0.7007874015748031
        },
        {
          "duration": 0.227272499999998,
          "durationTicks": 480,
          "midi": 59,
          "name": "B3",
          "ticks": 343200,
          "time": 162.4998375,
          "velocity": 0.7007874015748031
        },
        {
          "duration": 0.227272499999998,
          "durationTicks": 480,
          "midi": 56,
          "name": "G#3",
          "ticks": 343200,
          "time": 162.4998375,
          "velocity": 0.7007874015748031
        },
        {
          "duration": 0.227272499999998,
          "durationTicks": 480,
          "midi": 63,
          "name": "D#4",
          "ticks": 344160,
          "time": 162.9543825,
          "velocity": 0.7007874015748031
        },
        {
          "duration": 0.227272499999998,
          "durationTicks": 480,
          "midi": 59,
          "name": "B3",
          "ticks": 344160,
          "time": 162.9543825,
          "velocity": 0.7007874015748031
        },
        {
          "duration": 0.227272499999998,
          "durationTicks": 480,
          "midi": 56,
          "name": "G#3",
          "ticks": 344160,
          "time": 162.9543825,
          "velocity": 0.7007874015748031
        },
        {
          "duration": 0.227272499999998,
          "durationTicks": 480,
          "midi": 63,
          "name": "D#4",
          "ticks": 345600,
          "time": 163.6362,
          "velocity": 0.7007874015748031
        },
        {
          "duration": 0.227272499999998,
          "durationTicks": 480,
          "midi": 59,
          "name": "B3",
          "ticks": 345600,
          "time": 163.6362,
          "velocity": 0.7007874015748031
        },
        {
          "duration": 0.227272499999998,
          "durationTicks": 480,
          "midi": 54,
          "name": "F#3",
          "ticks": 345600,
          "time": 163.6362,
          "velocity": 0.7007874015748031
        },
        {
          "duration": 0.227272499999998,
          "durationTicks": 480,
          "midi": 63,
          "name": "D#4",
          "ticks": 346080,
          "time": 163.8634725,
          "velocity": 0.7007874015748031
        },
        {
          "duration": 0.227272499999998,
          "durationTicks": 480,
          "midi": 59,
          "name": "B3",
          "ticks": 346080,
          "time": 163.8634725,
          "velocity": 0.7007874015748031
        },
        {
          "duration": 0.227272499999998,
          "durationTicks": 480,
          "midi": 54,
          "name": "F#3",
          "ticks": 346080,
          "time": 163.8634725,
          "velocity": 0.7007874015748031
        },
        {
          "duration": 0.227272499999998,
          "durationTicks": 480,
          "midi": 63,
          "name": "D#4",
          "ticks": 347040,
          "time": 164.31801750000002,
          "velocity": 0.7007874015748031
        },
        {
          "duration": 0.227272499999998,
          "durationTicks": 480,
          "midi": 59,
          "name": "B3",
          "ticks": 347040,
          "time": 164.31801750000002,
          "velocity": 0.7007874015748031
        },
        {
          "duration": 0.227272499999998,
          "durationTicks": 480,
          "midi": 54,
          "name": "F#3",
          "ticks": 347040,
          "time": 164.31801750000002,
          "velocity": 0.7007874015748031
        },
        {
          "duration": 0.227272499999998,
          "durationTicks": 480,
          "midi": 63,
          "name": "D#4",
          "ticks": 348000,
          "time": 164.77256250000002,
          "velocity": 0.7007874015748031
        },
        {
          "duration": 0.227272499999998,
          "durationTicks": 480,
          "midi": 59,
          "name": "B3",
          "ticks": 348000,
          "time": 164.77256250000002,
          "velocity": 0.7007874015748031
        },
        {
          "duration": 0.227272499999998,
          "durationTicks": 480,
          "midi": 54,
          "name": "F#3",
          "ticks": 348000,
          "time": 164.77256250000002,
          "velocity": 0.7007874015748031
        },
        {
          "duration": 0.227272499999998,
          "durationTicks": 480,
          "midi": 66,
          "name": "F#4",
          "ticks": 349440,
          "time": 165.45438000000001,
          "velocity": 0.7007874015748031
        },
        {
          "duration": 0.227272499999998,
          "durationTicks": 480,
          "midi": 58,
          "name": "A#3",
          "ticks": 349440,
          "time": 165.45438000000001,
          "velocity": 0.7007874015748031
        },
        {
          "duration": 0.227272499999998,
          "durationTicks": 480,
          "midi": 61,
          "name": "C#4",
          "ticks": 349440,
          "time": 165.45438000000001,
          "velocity": 0.7007874015748031
        },
        {
          "duration": 0.227272499999998,
          "durationTicks": 480,
          "midi": 66,
          "name": "F#4",
          "ticks": 349920,
          "time": 165.6816525,
          "velocity": 0.7007874015748031
        },
        {
          "duration": 0.227272499999998,
          "durationTicks": 480,
          "midi": 61,
          "name": "C#4",
          "ticks": 349920,
          "time": 165.6816525,
          "velocity": 0.7007874015748031
        },
        {
          "duration": 0.227272499999998,
          "durationTicks": 480,
          "midi": 58,
          "name": "A#3",
          "ticks": 349920,
          "time": 165.6816525,
          "velocity": 0.7007874015748031
        },
        {
          "duration": 0.227272499999998,
          "durationTicks": 480,
          "midi": 66,
          "name": "F#4",
          "ticks": 350880,
          "time": 166.1361975,
          "velocity": 0.7007874015748031
        },
        {
          "duration": 0.227272499999998,
          "durationTicks": 480,
          "midi": 61,
          "name": "C#4",
          "ticks": 350880,
          "time": 166.1361975,
          "velocity": 0.7007874015748031
        },
        {
          "duration": 0.227272499999998,
          "durationTicks": 480,
          "midi": 58,
          "name": "A#3",
          "ticks": 350880,
          "time": 166.1361975,
          "velocity": 0.7007874015748031
        },
        {
          "duration": 0.227272499999998,
          "durationTicks": 480,
          "midi": 66,
          "name": "F#4",
          "ticks": 351840,
          "time": 166.5907425,
          "velocity": 0.7007874015748031
        },
        {
          "duration": 0.227272499999998,
          "durationTicks": 480,
          "midi": 61,
          "name": "C#4",
          "ticks": 351840,
          "time": 166.5907425,
          "velocity": 0.7007874015748031
        },
        {
          "duration": 0.227272499999998,
          "durationTicks": 480,
          "midi": 58,
          "name": "A#3",
          "ticks": 351840,
          "time": 166.5907425,
          "velocity": 0.7007874015748031
        },
        {
          "duration": 0.2272725000000264,
          "durationTicks": 480,
          "midi": 64,
          "name": "E4",
          "ticks": 353280,
          "time": 167.27256,
          "velocity": 0.7007874015748031
        },
        {
          "duration": 0.2272725000000264,
          "durationTicks": 480,
          "midi": 56,
          "name": "G#3",
          "ticks": 353280,
          "time": 167.27256,
          "velocity": 0.7007874015748031
        },
        {
          "duration": 0.2272725000000264,
          "durationTicks": 480,
          "midi": 59,
          "name": "B3",
          "ticks": 353280,
          "time": 167.27256,
          "velocity": 0.7007874015748031
        },
        {
          "duration": 0.227272499999998,
          "durationTicks": 480,
          "midi": 64,
          "name": "E4",
          "ticks": 353760,
          "time": 167.49983250000002,
          "velocity": 0.7007874015748031
        },
        {
          "duration": 0.227272499999998,
          "durationTicks": 480,
          "midi": 56,
          "name": "G#3",
          "ticks": 353760,
          "time": 167.49983250000002,
          "velocity": 0.7007874015748031
        },
        {
          "duration": 0.227272499999998,
          "durationTicks": 480,
          "midi": 59,
          "name": "B3",
          "ticks": 353760,
          "time": 167.49983250000002,
          "velocity": 0.7007874015748031
        },
        {
          "duration": 0.227272499999998,
          "durationTicks": 480,
          "midi": 64,
          "name": "E4",
          "ticks": 354720,
          "time": 167.95437750000002,
          "velocity": 0.7007874015748031
        },
        {
          "duration": 0.227272499999998,
          "durationTicks": 480,
          "midi": 56,
          "name": "G#3",
          "ticks": 354720,
          "time": 167.95437750000002,
          "velocity": 0.7007874015748031
        },
        {
          "duration": 0.227272499999998,
          "durationTicks": 480,
          "midi": 59,
          "name": "B3",
          "ticks": 354720,
          "time": 167.95437750000002,
          "velocity": 0.7007874015748031
        },
        {
          "duration": 0.227272499999998,
          "durationTicks": 480,
          "midi": 64,
          "name": "E4",
          "ticks": 355680,
          "time": 168.40892250000002,
          "velocity": 0.7007874015748031
        },
        {
          "duration": 0.227272499999998,
          "durationTicks": 480,
          "midi": 56,
          "name": "G#3",
          "ticks": 355680,
          "time": 168.40892250000002,
          "velocity": 0.7007874015748031
        },
        {
          "duration": 0.227272499999998,
          "durationTicks": 480,
          "midi": 59,
          "name": "B3",
          "ticks": 355680,
          "time": 168.40892250000002,
          "velocity": 0.7007874015748031
        },
        {
          "duration": 0.227272499999998,
          "durationTicks": 480,
          "midi": 63,
          "name": "D#4",
          "ticks": 357600,
          "time": 169.3180125,
          "velocity": 0.7007874015748031
        },
        {
          "duration": 0.227272499999998,
          "durationTicks": 480,
          "midi": 59,
          "name": "B3",
          "ticks": 357600,
          "time": 169.3180125,
          "velocity": 0.7007874015748031
        },
        {
          "duration": 0.227272499999998,
          "durationTicks": 480,
          "midi": 56,
          "name": "G#3",
          "ticks": 357600,
          "time": 169.3180125,
          "velocity": 0.7007874015748031
        },
        {
          "duration": 0.227272499999998,
          "durationTicks": 480,
          "midi": 63,
          "name": "D#4",
          "ticks": 358560,
          "time": 169.7725575,
          "velocity": 0.7007874015748031
        },
        {
          "duration": 0.227272499999998,
          "durationTicks": 480,
          "midi": 59,
          "name": "B3",
          "ticks": 358560,
          "time": 169.7725575,
          "velocity": 0.7007874015748031
        },
        {
          "duration": 0.227272499999998,
          "durationTicks": 480,
          "midi": 56,
          "name": "G#3",
          "ticks": 358560,
          "time": 169.7725575,
          "velocity": 0.7007874015748031
        },
        {
          "duration": 0.227272499999998,
          "durationTicks": 480,
          "midi": 63,
          "name": "D#4",
          "ticks": 359520,
          "time": 170.2271025,
          "velocity": 0.7007874015748031
        },
        {
          "duration": 0.227272499999998,
          "durationTicks": 480,
          "midi": 59,
          "name": "B3",
          "ticks": 359520,
          "time": 170.2271025,
          "velocity": 0.7007874015748031
        },
        {
          "duration": 0.227272499999998,
          "durationTicks": 480,
          "midi": 56,
          "name": "G#3",
          "ticks": 359520,
          "time": 170.2271025,
          "velocity": 0.7007874015748031
        },
        {
          "duration": 0.227272499999998,
          "durationTicks": 480,
          "midi": 63,
          "name": "D#4",
          "ticks": 360480,
          "time": 170.68164750000003,
          "velocity": 0.7007874015748031
        },
        {
          "duration": 0.227272499999998,
          "durationTicks": 480,
          "midi": 59,
          "name": "B3",
          "ticks": 360480,
          "time": 170.68164750000003,
          "velocity": 0.7007874015748031
        },
        {
          "duration": 0.227272499999998,
          "durationTicks": 480,
          "midi": 56,
          "name": "G#3",
          "ticks": 360480,
          "time": 170.68164750000003,
          "velocity": 0.7007874015748031
        },
        {
          "duration": 0.227272499999998,
          "durationTicks": 480,
          "midi": 63,
          "name": "D#4",
          "ticks": 361440,
          "time": 171.13619250000002,
          "velocity": 0.7007874015748031
        },
        {
          "duration": 0.227272499999998,
          "durationTicks": 480,
          "midi": 59,
          "name": "B3",
          "ticks": 361440,
          "time": 171.13619250000002,
          "velocity": 0.7007874015748031
        },
        {
          "duration": 0.227272499999998,
          "durationTicks": 480,
          "midi": 54,
          "name": "F#3",
          "ticks": 361440,
          "time": 171.13619250000002,
          "velocity": 0.7007874015748031
        },
        {
          "duration": 0.227272499999998,
          "durationTicks": 480,
          "midi": 63,
          "name": "D#4",
          "ticks": 362400,
          "time": 171.59073750000002,
          "velocity": 0.7007874015748031
        },
        {
          "duration": 0.227272499999998,
          "durationTicks": 480,
          "midi": 59,
          "name": "B3",
          "ticks": 362400,
          "time": 171.59073750000002,
          "velocity": 0.7007874015748031
        },
        {
          "duration": 0.227272499999998,
          "durationTicks": 480,
          "midi": 54,
          "name": "F#3",
          "ticks": 362400,
          "time": 171.59073750000002,
          "velocity": 0.7007874015748031
        },
        {
          "duration": 0.227272499999998,
          "durationTicks": 480,
          "midi": 63,
          "name": "D#4",
          "ticks": 363360,
          "time": 172.0452825,
          "velocity": 0.7007874015748031
        },
        {
          "duration": 0.227272499999998,
          "durationTicks": 480,
          "midi": 59,
          "name": "B3",
          "ticks": 363360,
          "time": 172.0452825,
          "velocity": 0.7007874015748031
        },
        {
          "duration": 0.227272499999998,
          "durationTicks": 480,
          "midi": 54,
          "name": "F#3",
          "ticks": 363360,
          "time": 172.0452825,
          "velocity": 0.7007874015748031
        },
        {
          "duration": 0.227272499999998,
          "durationTicks": 480,
          "midi": 63,
          "name": "D#4",
          "ticks": 364320,
          "time": 172.4998275,
          "velocity": 0.7007874015748031
        },
        {
          "duration": 0.227272499999998,
          "durationTicks": 480,
          "midi": 59,
          "name": "B3",
          "ticks": 364320,
          "time": 172.4998275,
          "velocity": 0.7007874015748031
        },
        {
          "duration": 0.227272499999998,
          "durationTicks": 480,
          "midi": 54,
          "name": "F#3",
          "ticks": 364320,
          "time": 172.4998275,
          "velocity": 0.7007874015748031
        },
        {
          "duration": 0.227272499999998,
          "durationTicks": 480,
          "midi": 66,
          "name": "F#4",
          "ticks": 365280,
          "time": 172.9543725,
          "velocity": 0.7007874015748031
        },
        {
          "duration": 0.227272499999998,
          "durationTicks": 480,
          "midi": 58,
          "name": "A#3",
          "ticks": 365280,
          "time": 172.9543725,
          "velocity": 0.7007874015748031
        },
        {
          "duration": 0.227272499999998,
          "durationTicks": 480,
          "midi": 61,
          "name": "C#4",
          "ticks": 365280,
          "time": 172.9543725,
          "velocity": 0.7007874015748031
        },
        {
          "duration": 0.227272499999998,
          "durationTicks": 480,
          "midi": 66,
          "name": "F#4",
          "ticks": 366240,
          "time": 173.4089175,
          "velocity": 0.7007874015748031
        },
        {
          "duration": 0.227272499999998,
          "durationTicks": 480,
          "midi": 61,
          "name": "C#4",
          "ticks": 366240,
          "time": 173.4089175,
          "velocity": 0.7007874015748031
        },
        {
          "duration": 0.227272499999998,
          "durationTicks": 480,
          "midi": 58,
          "name": "A#3",
          "ticks": 366240,
          "time": 173.4089175,
          "velocity": 0.7007874015748031
        },
        {
          "duration": 0.227272499999998,
          "durationTicks": 480,
          "midi": 66,
          "name": "F#4",
          "ticks": 367200,
          "time": 173.86346250000003,
          "velocity": 0.7007874015748031
        },
        {
          "duration": 0.227272499999998,
          "durationTicks": 480,
          "midi": 61,
          "name": "C#4",
          "ticks": 367200,
          "time": 173.86346250000003,
          "velocity": 0.7007874015748031
        },
        {
          "duration": 0.227272499999998,
          "durationTicks": 480,
          "midi": 58,
          "name": "A#3",
          "ticks": 367200,
          "time": 173.86346250000003,
          "velocity": 0.7007874015748031
        },
        {
          "duration": 0.227272499999998,
          "durationTicks": 480,
          "midi": 66,
          "name": "F#4",
          "ticks": 368160,
          "time": 174.31800750000002,
          "velocity": 0.7007874015748031
        },
        {
          "duration": 0.227272499999998,
          "durationTicks": 480,
          "midi": 61,
          "name": "C#4",
          "ticks": 368160,
          "time": 174.31800750000002,
          "velocity": 0.7007874015748031
        },
        {
          "duration": 0.227272499999998,
          "durationTicks": 480,
          "midi": 58,
          "name": "A#3",
          "ticks": 368160,
          "time": 174.31800750000002,
          "velocity": 0.7007874015748031
        },
        {
          "duration": 0.227272499999998,
          "durationTicks": 480,
          "midi": 59,
          "name": "B3",
          "ticks": 369120,
          "time": 174.77255250000002,
          "velocity": 0.7007874015748031
        },
        {
          "duration": 0.227272499999998,
          "durationTicks": 480,
          "midi": 56,
          "name": "G#3",
          "ticks": 369120,
          "time": 174.77255250000002,
          "velocity": 0.7007874015748031
        },
        {
          "duration": 0.227272499999998,
          "durationTicks": 480,
          "midi": 64,
          "name": "E4",
          "ticks": 369120,
          "time": 174.77255250000002,
          "velocity": 0.7007874015748031
        },
        {
          "duration": 0.227272499999998,
          "durationTicks": 480,
          "midi": 66,
          "name": "F#4",
          "ticks": 369120,
          "time": 174.77255250000002,
          "velocity": 0.7007874015748031
        },
        {
          "duration": 0.227272499999998,
          "durationTicks": 480,
          "midi": 59,
          "name": "B3",
          "ticks": 370080,
          "time": 175.2270975,
          "velocity": 0.7007874015748031
        },
        {
          "duration": 0.227272499999998,
          "durationTicks": 480,
          "midi": 56,
          "name": "G#3",
          "ticks": 370080,
          "time": 175.2270975,
          "velocity": 0.7007874015748031
        },
        {
          "duration": 0.227272499999998,
          "durationTicks": 480,
          "midi": 64,
          "name": "E4",
          "ticks": 370080,
          "time": 175.2270975,
          "velocity": 0.7007874015748031
        },
        {
          "duration": 0.227272499999998,
          "durationTicks": 480,
          "midi": 59,
          "name": "B3",
          "ticks": 371040,
          "time": 175.6816425,
          "velocity": 0.7007874015748031
        },
        {
          "duration": 0.227272499999998,
          "durationTicks": 480,
          "midi": 56,
          "name": "G#3",
          "ticks": 371040,
          "time": 175.6816425,
          "velocity": 0.7007874015748031
        },
        {
          "duration": 0.227272499999998,
          "durationTicks": 480,
          "midi": 64,
          "name": "E4",
          "ticks": 371040,
          "time": 175.6816425,
          "velocity": 0.7007874015748031
        },
        {
          "duration": 0.227272499999998,
          "durationTicks": 480,
          "midi": 64,
          "name": "E4",
          "ticks": 372000,
          "time": 176.1361875,
          "velocity": 0.7007874015748031
        },
        {
          "duration": 0.227272499999998,
          "durationTicks": 480,
          "midi": 59,
          "name": "B3",
          "ticks": 372000,
          "time": 176.1361875,
          "velocity": 0.7007874015748031
        },
        {
          "duration": 0.227272499999998,
          "durationTicks": 480,
          "midi": 56,
          "name": "G#3",
          "ticks": 372000,
          "time": 176.1361875,
          "velocity": 0.7007874015748031
        },
        {
          "duration": 0.227272499999998,
          "durationTicks": 480,
          "midi": 63,
          "name": "D#4",
          "ticks": 372960,
          "time": 176.5907325,
          "velocity": 0.7007874015748031
        },
        {
          "duration": 0.227272499999998,
          "durationTicks": 480,
          "midi": 59,
          "name": "B3",
          "ticks": 372960,
          "time": 176.5907325,
          "velocity": 0.7007874015748031
        },
        {
          "duration": 0.227272499999998,
          "durationTicks": 480,
          "midi": 56,
          "name": "G#3",
          "ticks": 372960,
          "time": 176.5907325,
          "velocity": 0.7007874015748031
        },
        {
          "duration": 0.227272499999998,
          "durationTicks": 480,
          "midi": 63,
          "name": "D#4",
          "ticks": 373920,
          "time": 177.04527750000003,
          "velocity": 0.7007874015748031
        },
        {
          "duration": 0.227272499999998,
          "durationTicks": 480,
          "midi": 59,
          "name": "B3",
          "ticks": 373920,
          "time": 177.04527750000003,
          "velocity": 0.7007874015748031
        },
        {
          "duration": 0.227272499999998,
          "durationTicks": 480,
          "midi": 56,
          "name": "G#3",
          "ticks": 373920,
          "time": 177.04527750000003,
          "velocity": 0.7007874015748031
        },
        {
          "duration": 0.227272499999998,
          "durationTicks": 480,
          "midi": 63,
          "name": "D#4",
          "ticks": 374880,
          "time": 177.49982250000002,
          "velocity": 0.7007874015748031
        },
        {
          "duration": 0.227272499999998,
          "durationTicks": 480,
          "midi": 59,
          "name": "B3",
          "ticks": 374880,
          "time": 177.49982250000002,
          "velocity": 0.7007874015748031
        },
        {
          "duration": 0.227272499999998,
          "durationTicks": 480,
          "midi": 56,
          "name": "G#3",
          "ticks": 374880,
          "time": 177.49982250000002,
          "velocity": 0.7007874015748031
        },
        {
          "duration": 0.227272499999998,
          "durationTicks": 480,
          "midi": 63,
          "name": "D#4",
          "ticks": 375840,
          "time": 177.95436750000002,
          "velocity": 0.7007874015748031
        },
        {
          "duration": 0.227272499999998,
          "durationTicks": 480,
          "midi": 59,
          "name": "B3",
          "ticks": 375840,
          "time": 177.95436750000002,
          "velocity": 0.7007874015748031
        },
        {
          "duration": 0.227272499999998,
          "durationTicks": 480,
          "midi": 56,
          "name": "G#3",
          "ticks": 375840,
          "time": 177.95436750000002,
          "velocity": 0.7007874015748031
        },
        {
          "duration": 0.227272499999998,
          "durationTicks": 480,
          "midi": 63,
          "name": "D#4",
          "ticks": 376320,
          "time": 178.18164000000002,
          "velocity": 0.7007874015748031
        },
        {
          "duration": 0.227272499999998,
          "durationTicks": 480,
          "midi": 59,
          "name": "B3",
          "ticks": 376320,
          "time": 178.18164000000002,
          "velocity": 0.7007874015748031
        },
        {
          "duration": 0.227272499999998,
          "durationTicks": 480,
          "midi": 54,
          "name": "F#3",
          "ticks": 376320,
          "time": 178.18164000000002,
          "velocity": 0.7007874015748031
        },
        {
          "duration": 0.227272499999998,
          "durationTicks": 480,
          "midi": 63,
          "name": "D#4",
          "ticks": 377280,
          "time": 178.636185,
          "velocity": 0.7007874015748031
        },
        {
          "duration": 0.227272499999998,
          "durationTicks": 480,
          "midi": 59,
          "name": "B3",
          "ticks": 377280,
          "time": 178.636185,
          "velocity": 0.7007874015748031
        },
        {
          "duration": 0.227272499999998,
          "durationTicks": 480,
          "midi": 54,
          "name": "F#3",
          "ticks": 377280,
          "time": 178.636185,
          "velocity": 0.7007874015748031
        },
        {
          "duration": 0.227272499999998,
          "durationTicks": 480,
          "midi": 63,
          "name": "D#4",
          "ticks": 378240,
          "time": 179.09073,
          "velocity": 0.7007874015748031
        },
        {
          "duration": 0.227272499999998,
          "durationTicks": 480,
          "midi": 59,
          "name": "B3",
          "ticks": 378240,
          "time": 179.09073,
          "velocity": 0.7007874015748031
        },
        {
          "duration": 0.227272499999998,
          "durationTicks": 480,
          "midi": 54,
          "name": "F#3",
          "ticks": 378240,
          "time": 179.09073,
          "velocity": 0.7007874015748031
        },
        {
          "duration": 0.227272499999998,
          "durationTicks": 480,
          "midi": 63,
          "name": "D#4",
          "ticks": 379200,
          "time": 179.545275,
          "velocity": 0.7007874015748031
        },
        {
          "duration": 0.227272499999998,
          "durationTicks": 480,
          "midi": 59,
          "name": "B3",
          "ticks": 379200,
          "time": 179.545275,
          "velocity": 0.7007874015748031
        },
        {
          "duration": 0.227272499999998,
          "durationTicks": 480,
          "midi": 54,
          "name": "F#3",
          "ticks": 379200,
          "time": 179.545275,
          "velocity": 0.7007874015748031
        },
        {
          "duration": 0.227272499999998,
          "durationTicks": 480,
          "midi": 66,
          "name": "F#4",
          "ticks": 380640,
          "time": 180.22709250000003,
          "velocity": 0.7007874015748031
        },
        {
          "duration": 0.227272499999998,
          "durationTicks": 480,
          "midi": 58,
          "name": "A#3",
          "ticks": 380640,
          "time": 180.22709250000003,
          "velocity": 0.7007874015748031
        },
        {
          "duration": 0.227272499999998,
          "durationTicks": 480,
          "midi": 61,
          "name": "C#4",
          "ticks": 380640,
          "time": 180.22709250000003,
          "velocity": 0.7007874015748031
        },
        {
          "duration": 0.227272499999998,
          "durationTicks": 480,
          "midi": 66,
          "name": "F#4",
          "ticks": 381600,
          "time": 180.68163750000002,
          "velocity": 0.7007874015748031
        },
        {
          "duration": 0.227272499999998,
          "durationTicks": 480,
          "midi": 61,
          "name": "C#4",
          "ticks": 381600,
          "time": 180.68163750000002,
          "velocity": 0.7007874015748031
        },
        {
          "duration": 0.227272499999998,
          "durationTicks": 480,
          "midi": 58,
          "name": "A#3",
          "ticks": 381600,
          "time": 180.68163750000002,
          "velocity": 0.7007874015748031
        },
        {
          "duration": 0.227272499999998,
          "durationTicks": 480,
          "midi": 66,
          "name": "F#4",
          "ticks": 382560,
          "time": 181.13618250000002,
          "velocity": 0.7007874015748031
        },
        {
          "duration": 0.227272499999998,
          "durationTicks": 480,
          "midi": 61,
          "name": "C#4",
          "ticks": 382560,
          "time": 181.13618250000002,
          "velocity": 0.7007874015748031
        },
        {
          "duration": 0.227272499999998,
          "durationTicks": 480,
          "midi": 58,
          "name": "A#3",
          "ticks": 382560,
          "time": 181.13618250000002,
          "velocity": 0.7007874015748031
        },
        {
          "duration": 0.227272499999998,
          "durationTicks": 480,
          "midi": 66,
          "name": "F#4",
          "ticks": 383520,
          "time": 181.5907275,
          "velocity": 0.7007874015748031
        },
        {
          "duration": 0.227272499999998,
          "durationTicks": 480,
          "midi": 61,
          "name": "C#4",
          "ticks": 383520,
          "time": 181.5907275,
          "velocity": 0.7007874015748031
        },
        {
          "duration": 0.227272499999998,
          "durationTicks": 480,
          "midi": 58,
          "name": "A#3",
          "ticks": 383520,
          "time": 181.5907275,
          "velocity": 0.7007874015748031
        },
        {
          "duration": 0.227272499999998,
          "durationTicks": 480,
          "midi": 59,
          "name": "B3",
          "ticks": 384480,
          "time": 182.0452725,
          "velocity": 0.7007874015748031
        },
        {
          "duration": 0.227272499999998,
          "durationTicks": 480,
          "midi": 56,
          "name": "G#3",
          "ticks": 384480,
          "time": 182.0452725,
          "velocity": 0.7007874015748031
        },
        {
          "duration": 0.227272499999998,
          "durationTicks": 480,
          "midi": 64,
          "name": "E4",
          "ticks": 384480,
          "time": 182.0452725,
          "velocity": 0.7007874015748031
        },
        {
          "duration": 0.227272499999998,
          "durationTicks": 480,
          "midi": 66,
          "name": "F#4",
          "ticks": 384480,
          "time": 182.0452725,
          "velocity": 0.7007874015748031
        },
        {
          "duration": 0.227272499999998,
          "durationTicks": 480,
          "midi": 59,
          "name": "B3",
          "ticks": 385440,
          "time": 182.4998175,
          "velocity": 0.7007874015748031
        },
        {
          "duration": 0.227272499999998,
          "durationTicks": 480,
          "midi": 56,
          "name": "G#3",
          "ticks": 385440,
          "time": 182.4998175,
          "velocity": 0.7007874015748031
        },
        {
          "duration": 0.227272499999998,
          "durationTicks": 480,
          "midi": 64,
          "name": "E4",
          "ticks": 385440,
          "time": 182.4998175,
          "velocity": 0.7007874015748031
        },
        {
          "duration": 0.227272499999998,
          "durationTicks": 480,
          "midi": 66,
          "name": "F#4",
          "ticks": 385440,
          "time": 182.4998175,
          "velocity": 0.7007874015748031
        },
        {
          "duration": 0.227272499999998,
          "durationTicks": 480,
          "midi": 59,
          "name": "B3",
          "ticks": 386400,
          "time": 182.9543625,
          "velocity": 0.7007874015748031
        },
        {
          "duration": 0.227272499999998,
          "durationTicks": 480,
          "midi": 56,
          "name": "G#3",
          "ticks": 386400,
          "time": 182.9543625,
          "velocity": 0.7007874015748031
        },
        {
          "duration": 0.227272499999998,
          "durationTicks": 480,
          "midi": 64,
          "name": "E4",
          "ticks": 386400,
          "time": 182.9543625,
          "velocity": 0.7007874015748031
        },
        {
          "duration": 0.227272499999998,
          "durationTicks": 480,
          "midi": 66,
          "name": "F#4",
          "ticks": 386400,
          "time": 182.9543625,
          "velocity": 0.7007874015748031
        },
        {
          "duration": 0.227272499999998,
          "durationTicks": 480,
          "midi": 63,
          "name": "D#4",
          "ticks": 388320,
          "time": 183.86345250000002,
          "velocity": 0.7007874015748031
        },
        {
          "duration": 0.227272499999998,
          "durationTicks": 480,
          "midi": 59,
          "name": "B3",
          "ticks": 388320,
          "time": 183.86345250000002,
          "velocity": 0.7007874015748031
        },
        {
          "duration": 0.227272499999998,
          "durationTicks": 480,
          "midi": 56,
          "name": "G#3",
          "ticks": 388320,
          "time": 183.86345250000002,
          "velocity": 0.7007874015748031
        },
        {
          "duration": 0.227272499999998,
          "durationTicks": 480,
          "midi": 63,
          "name": "D#4",
          "ticks": 389280,
          "time": 184.31799750000002,
          "velocity": 0.7007874015748031
        },
        {
          "duration": 0.227272499999998,
          "durationTicks": 480,
          "midi": 59,
          "name": "B3",
          "ticks": 389280,
          "time": 184.31799750000002,
          "velocity": 0.7007874015748031
        },
        {
          "duration": 0.227272499999998,
          "durationTicks": 480,
          "midi": 56,
          "name": "G#3",
          "ticks": 389280,
          "time": 184.31799750000002,
          "velocity": 0.7007874015748031
        },
        {
          "duration": 0.227272499999998,
          "durationTicks": 480,
          "midi": 63,
          "name": "D#4",
          "ticks": 390240,
          "time": 184.77254250000001,
          "velocity": 0.7007874015748031
        },
        {
          "duration": 0.227272499999998,
          "durationTicks": 480,
          "midi": 59,
          "name": "B3",
          "ticks": 390240,
          "time": 184.77254250000001,
          "velocity": 0.7007874015748031
        },
        {
          "duration": 0.227272499999998,
          "durationTicks": 480,
          "midi": 56,
          "name": "G#3",
          "ticks": 390240,
          "time": 184.77254250000001,
          "velocity": 0.7007874015748031
        },
        {
          "duration": 0.227272499999998,
          "durationTicks": 480,
          "midi": 63,
          "name": "D#4",
          "ticks": 391200,
          "time": 185.2270875,
          "velocity": 0.7007874015748031
        },
        {
          "duration": 0.227272499999998,
          "durationTicks": 480,
          "midi": 59,
          "name": "B3",
          "ticks": 391200,
          "time": 185.2270875,
          "velocity": 0.7007874015748031
        },
        {
          "duration": 0.227272499999998,
          "durationTicks": 480,
          "midi": 56,
          "name": "G#3",
          "ticks": 391200,
          "time": 185.2270875,
          "velocity": 0.7007874015748031
        },
        {
          "duration": 0.227272499999998,
          "durationTicks": 480,
          "midi": 63,
          "name": "D#4",
          "ticks": 392160,
          "time": 185.6816325,
          "velocity": 0.7007874015748031
        },
        {
          "duration": 0.227272499999998,
          "durationTicks": 480,
          "midi": 59,
          "name": "B3",
          "ticks": 392160,
          "time": 185.6816325,
          "velocity": 0.7007874015748031
        },
        {
          "duration": 0.227272499999998,
          "durationTicks": 480,
          "midi": 54,
          "name": "F#3",
          "ticks": 392160,
          "time": 185.6816325,
          "velocity": 0.7007874015748031
        },
        {
          "duration": 0.227272499999998,
          "durationTicks": 480,
          "midi": 63,
          "name": "D#4",
          "ticks": 393120,
          "time": 186.1361775,
          "velocity": 0.7007874015748031
        },
        {
          "duration": 0.227272499999998,
          "durationTicks": 480,
          "midi": 59,
          "name": "B3",
          "ticks": 393120,
          "time": 186.1361775,
          "velocity": 0.7007874015748031
        },
        {
          "duration": 0.227272499999998,
          "durationTicks": 480,
          "midi": 54,
          "name": "F#3",
          "ticks": 393120,
          "time": 186.1361775,
          "velocity": 0.7007874015748031
        },
        {
          "duration": 0.227272499999998,
          "durationTicks": 480,
          "midi": 63,
          "name": "D#4",
          "ticks": 394080,
          "time": 186.59072250000003,
          "velocity": 0.7007874015748031
        },
        {
          "duration": 0.227272499999998,
          "durationTicks": 480,
          "midi": 59,
          "name": "B3",
          "ticks": 394080,
          "time": 186.59072250000003,
          "velocity": 0.7007874015748031
        },
        {
          "duration": 0.227272499999998,
          "durationTicks": 480,
          "midi": 54,
          "name": "F#3",
          "ticks": 394080,
          "time": 186.59072250000003,
          "velocity": 0.7007874015748031
        },
        {
          "duration": 0.227272499999998,
          "durationTicks": 480,
          "midi": 63,
          "name": "D#4",
          "ticks": 395040,
          "time": 187.04526750000002,
          "velocity": 0.7007874015748031
        },
        {
          "duration": 0.227272499999998,
          "durationTicks": 480,
          "midi": 59,
          "name": "B3",
          "ticks": 395040,
          "time": 187.04526750000002,
          "velocity": 0.7007874015748031
        },
        {
          "duration": 0.227272499999998,
          "durationTicks": 480,
          "midi": 54,
          "name": "F#3",
          "ticks": 395040,
          "time": 187.04526750000002,
          "velocity": 0.7007874015748031
        },
        {
          "duration": 0.227272499999998,
          "durationTicks": 480,
          "midi": 66,
          "name": "F#4",
          "ticks": 396000,
          "time": 187.49981250000002,
          "velocity": 0.7007874015748031
        },
        {
          "duration": 0.227272499999998,
          "durationTicks": 480,
          "midi": 58,
          "name": "A#3",
          "ticks": 396000,
          "time": 187.49981250000002,
          "velocity": 0.7007874015748031
        },
        {
          "duration": 0.227272499999998,
          "durationTicks": 480,
          "midi": 61,
          "name": "C#4",
          "ticks": 396000,
          "time": 187.49981250000002,
          "velocity": 0.7007874015748031
        },
        {
          "duration": 0.227272499999998,
          "durationTicks": 480,
          "midi": 66,
          "name": "F#4",
          "ticks": 396960,
          "time": 187.95435750000001,
          "velocity": 0.7007874015748031
        },
        {
          "duration": 0.227272499999998,
          "durationTicks": 480,
          "midi": 61,
          "name": "C#4",
          "ticks": 396960,
          "time": 187.95435750000001,
          "velocity": 0.7007874015748031
        },
        {
          "duration": 0.227272499999998,
          "durationTicks": 480,
          "midi": 58,
          "name": "A#3",
          "ticks": 396960,
          "time": 187.95435750000001,
          "velocity": 0.7007874015748031
        },
        {
          "duration": 0.227272499999998,
          "durationTicks": 480,
          "midi": 66,
          "name": "F#4",
          "ticks": 397920,
          "time": 188.4089025,
          "velocity": 0.7007874015748031
        },
        {
          "duration": 0.227272499999998,
          "durationTicks": 480,
          "midi": 61,
          "name": "C#4",
          "ticks": 397920,
          "time": 188.4089025,
          "velocity": 0.7007874015748031
        },
        {
          "duration": 0.227272499999998,
          "durationTicks": 480,
          "midi": 58,
          "name": "A#3",
          "ticks": 397920,
          "time": 188.4089025,
          "velocity": 0.7007874015748031
        },
        {
          "duration": 0.227272499999998,
          "durationTicks": 480,
          "midi": 66,
          "name": "F#4",
          "ticks": 398880,
          "time": 188.8634475,
          "velocity": 0.7007874015748031
        },
        {
          "duration": 0.227272499999998,
          "durationTicks": 480,
          "midi": 61,
          "name": "C#4",
          "ticks": 398880,
          "time": 188.8634475,
          "velocity": 0.7007874015748031
        },
        {
          "duration": 0.227272499999998,
          "durationTicks": 480,
          "midi": 58,
          "name": "A#3",
          "ticks": 398880,
          "time": 188.8634475,
          "velocity": 0.7007874015748031
        },
        {
          "duration": 0.227272499999998,
          "durationTicks": 480,
          "midi": 59,
          "name": "B3",
          "ticks": 399840,
          "time": 189.3179925,
          "velocity": 0.7007874015748031
        },
        {
          "duration": 0.227272499999998,
          "durationTicks": 480,
          "midi": 56,
          "name": "G#3",
          "ticks": 399840,
          "time": 189.3179925,
          "velocity": 0.7007874015748031
        },
        {
          "duration": 0.227272499999998,
          "durationTicks": 480,
          "midi": 64,
          "name": "E4",
          "ticks": 399840,
          "time": 189.3179925,
          "velocity": 0.7007874015748031
        },
        {
          "duration": 0.227272499999998,
          "durationTicks": 480,
          "midi": 66,
          "name": "F#4",
          "ticks": 399840,
          "time": 189.3179925,
          "velocity": 0.7007874015748031
        },
        {
          "duration": 0.227272499999998,
          "durationTicks": 480,
          "midi": 59,
          "name": "B3",
          "ticks": 400800,
          "time": 189.77253750000003,
          "velocity": 0.7007874015748031
        },
        {
          "duration": 0.227272499999998,
          "durationTicks": 480,
          "midi": 56,
          "name": "G#3",
          "ticks": 400800,
          "time": 189.77253750000003,
          "velocity": 0.7007874015748031
        },
        {
          "duration": 0.227272499999998,
          "durationTicks": 480,
          "midi": 64,
          "name": "E4",
          "ticks": 400800,
          "time": 189.77253750000003,
          "velocity": 0.7007874015748031
        },
        {
          "duration": 0.227272499999998,
          "durationTicks": 480,
          "midi": 59,
          "name": "B3",
          "ticks": 401760,
          "time": 190.22708250000002,
          "velocity": 0.7007874015748031
        },
        {
          "duration": 0.227272499999998,
          "durationTicks": 480,
          "midi": 56,
          "name": "G#3",
          "ticks": 401760,
          "time": 190.22708250000002,
          "velocity": 0.7007874015748031
        },
        {
          "duration": 0.227272499999998,
          "durationTicks": 480,
          "midi": 64,
          "name": "E4",
          "ticks": 401760,
          "time": 190.22708250000002,
          "velocity": 0.7007874015748031
        },
        {
          "duration": 0.227272499999998,
          "durationTicks": 480,
          "midi": 64,
          "name": "E4",
          "ticks": 402720,
          "time": 190.68162750000002,
          "velocity": 0.7007874015748031
        },
        {
          "duration": 0.227272499999998,
          "durationTicks": 480,
          "midi": 59,
          "name": "B3",
          "ticks": 402720,
          "time": 190.68162750000002,
          "velocity": 0.7007874015748031
        },
        {
          "duration": 0.227272499999998,
          "durationTicks": 480,
          "midi": 56,
          "name": "G#3",
          "ticks": 402720,
          "time": 190.68162750000002,
          "velocity": 0.7007874015748031
        },
        {
          "duration": 0.227272499999998,
          "durationTicks": 480,
          "midi": 63,
          "name": "D#4",
          "ticks": 403680,
          "time": 191.13617250000001,
          "velocity": 0.7007874015748031
        },
        {
          "duration": 0.227272499999998,
          "durationTicks": 480,
          "midi": 59,
          "name": "B3",
          "ticks": 403680,
          "time": 191.13617250000001,
          "velocity": 0.7007874015748031
        },
        {
          "duration": 0.227272499999998,
          "durationTicks": 480,
          "midi": 56,
          "name": "G#3",
          "ticks": 403680,
          "time": 191.13617250000001,
          "velocity": 0.7007874015748031
        },
        {
          "duration": 0.227272499999998,
          "durationTicks": 480,
          "midi": 63,
          "name": "D#4",
          "ticks": 404640,
          "time": 191.5907175,
          "velocity": 0.7007874015748031
        },
        {
          "duration": 0.227272499999998,
          "durationTicks": 480,
          "midi": 59,
          "name": "B3",
          "ticks": 404640,
          "time": 191.5907175,
          "velocity": 0.7007874015748031
        },
        {
          "duration": 0.227272499999998,
          "durationTicks": 480,
          "midi": 56,
          "name": "G#3",
          "ticks": 404640,
          "time": 191.5907175,
          "velocity": 0.7007874015748031
        },
        {
          "duration": 0.227272499999998,
          "durationTicks": 480,
          "midi": 63,
          "name": "D#4",
          "ticks": 405600,
          "time": 192.0452625,
          "velocity": 0.7007874015748031
        },
        {
          "duration": 0.227272499999998,
          "durationTicks": 480,
          "midi": 59,
          "name": "B3",
          "ticks": 405600,
          "time": 192.0452625,
          "velocity": 0.7007874015748031
        },
        {
          "duration": 0.227272499999998,
          "durationTicks": 480,
          "midi": 56,
          "name": "G#3",
          "ticks": 405600,
          "time": 192.0452625,
          "velocity": 0.7007874015748031
        },
        {
          "duration": 0.227272499999998,
          "durationTicks": 480,
          "midi": 63,
          "name": "D#4",
          "ticks": 406560,
          "time": 192.4998075,
          "velocity": 0.7007874015748031
        },
        {
          "duration": 0.227272499999998,
          "durationTicks": 480,
          "midi": 59,
          "name": "B3",
          "ticks": 406560,
          "time": 192.4998075,
          "velocity": 0.7007874015748031
        },
        {
          "duration": 0.227272499999998,
          "durationTicks": 480,
          "midi": 56,
          "name": "G#3",
          "ticks": 406560,
          "time": 192.4998075,
          "velocity": 0.7007874015748031
        },
        {
          "duration": 0.2272725000000264,
          "durationTicks": 480,
          "midi": 63,
          "name": "D#4",
          "ticks": 407040,
          "time": 192.72708,
          "velocity": 0.7007874015748031
        },
        {
          "duration": 0.2272725000000264,
          "durationTicks": 480,
          "midi": 59,
          "name": "B3",
          "ticks": 407040,
          "time": 192.72708,
          "velocity": 0.7007874015748031
        },
        {
          "duration": 0.2272725000000264,
          "durationTicks": 480,
          "midi": 54,
          "name": "F#3",
          "ticks": 407040,
          "time": 192.72708,
          "velocity": 0.7007874015748031
        },
        {
          "duration": 0.227272499999998,
          "durationTicks": 480,
          "midi": 63,
          "name": "D#4",
          "ticks": 408000,
          "time": 193.18162500000003,
          "velocity": 0.7007874015748031
        },
        {
          "duration": 0.227272499999998,
          "durationTicks": 480,
          "midi": 59,
          "name": "B3",
          "ticks": 408000,
          "time": 193.18162500000003,
          "velocity": 0.7007874015748031
        },
        {
          "duration": 0.227272499999998,
          "durationTicks": 480,
          "midi": 54,
          "name": "F#3",
          "ticks": 408000,
          "time": 193.18162500000003,
          "velocity": 0.7007874015748031
        },
        {
          "duration": 0.227272499999998,
          "durationTicks": 480,
          "midi": 63,
          "name": "D#4",
          "ticks": 408960,
          "time": 193.63617000000002,
          "velocity": 0.7007874015748031
        },
        {
          "duration": 0.227272499999998,
          "durationTicks": 480,
          "midi": 59,
          "name": "B3",
          "ticks": 408960,
          "time": 193.63617000000002,
          "velocity": 0.7007874015748031
        },
        {
          "duration": 0.227272499999998,
          "durationTicks": 480,
          "midi": 54,
          "name": "F#3",
          "ticks": 408960,
          "time": 193.63617000000002,
          "velocity": 0.7007874015748031
        },
        {
          "duration": 0.227272499999998,
          "durationTicks": 480,
          "midi": 63,
          "name": "D#4",
          "ticks": 409920,
          "time": 194.09071500000002,
          "velocity": 0.7007874015748031
        },
        {
          "duration": 0.227272499999998,
          "durationTicks": 480,
          "midi": 59,
          "name": "B3",
          "ticks": 409920,
          "time": 194.09071500000002,
          "velocity": 0.7007874015748031
        },
        {
          "duration": 0.227272499999998,
          "durationTicks": 480,
          "midi": 54,
          "name": "F#3",
          "ticks": 409920,
          "time": 194.09071500000002,
          "velocity": 0.7007874015748031
        },
        {
          "duration": 0.227272499999998,
          "durationTicks": 480,
          "midi": 66,
          "name": "F#4",
          "ticks": 411360,
          "time": 194.7725325,
          "velocity": 0.7007874015748031
        },
        {
          "duration": 0.227272499999998,
          "durationTicks": 480,
          "midi": 58,
          "name": "A#3",
          "ticks": 411360,
          "time": 194.7725325,
          "velocity": 0.7007874015748031
        },
        {
          "duration": 0.227272499999998,
          "durationTicks": 480,
          "midi": 61,
          "name": "C#4",
          "ticks": 411360,
          "time": 194.7725325,
          "velocity": 0.7007874015748031
        },
        {
          "duration": 0.227272499999998,
          "durationTicks": 480,
          "midi": 66,
          "name": "F#4",
          "ticks": 412320,
          "time": 195.2270775,
          "velocity": 0.7007874015748031
        },
        {
          "duration": 0.227272499999998,
          "durationTicks": 480,
          "midi": 61,
          "name": "C#4",
          "ticks": 412320,
          "time": 195.2270775,
          "velocity": 0.7007874015748031
        },
        {
          "duration": 0.227272499999998,
          "durationTicks": 480,
          "midi": 58,
          "name": "A#3",
          "ticks": 412320,
          "time": 195.2270775,
          "velocity": 0.7007874015748031
        },
        {
          "duration": 0.227272499999998,
          "durationTicks": 480,
          "midi": 66,
          "name": "F#4",
          "ticks": 413280,
          "time": 195.6816225,
          "velocity": 0.7007874015748031
        },
        {
          "duration": 0.227272499999998,
          "durationTicks": 480,
          "midi": 61,
          "name": "C#4",
          "ticks": 413280,
          "time": 195.6816225,
          "velocity": 0.7007874015748031
        },
        {
          "duration": 0.227272499999998,
          "durationTicks": 480,
          "midi": 58,
          "name": "A#3",
          "ticks": 413280,
          "time": 195.6816225,
          "velocity": 0.7007874015748031
        },
        {
          "duration": 0.227272499999998,
          "durationTicks": 480,
          "midi": 66,
          "name": "F#4",
          "ticks": 414240,
          "time": 196.13616750000003,
          "velocity": 0.7007874015748031
        },
        {
          "duration": 0.227272499999998,
          "durationTicks": 480,
          "midi": 61,
          "name": "C#4",
          "ticks": 414240,
          "time": 196.13616750000003,
          "velocity": 0.7007874015748031
        },
        {
          "duration": 0.227272499999998,
          "durationTicks": 480,
          "midi": 58,
          "name": "A#3",
          "ticks": 414240,
          "time": 196.13616750000003,
          "velocity": 0.7007874015748031
        },
        {
          "duration": 0.227272499999998,
          "durationTicks": 480,
          "midi": 59,
          "name": "B3",
          "ticks": 415200,
          "time": 196.59071250000002,
          "velocity": 0.7007874015748031
        },
        {
          "duration": 0.227272499999998,
          "durationTicks": 480,
          "midi": 56,
          "name": "G#3",
          "ticks": 415200,
          "time": 196.59071250000002,
          "velocity": 0.7007874015748031
        },
        {
          "duration": 0.227272499999998,
          "durationTicks": 480,
          "midi": 64,
          "name": "E4",
          "ticks": 415200,
          "time": 196.59071250000002,
          "velocity": 0.7007874015748031
        },
        {
          "duration": 0.227272499999998,
          "durationTicks": 480,
          "midi": 66,
          "name": "F#4",
          "ticks": 415200,
          "time": 196.59071250000002,
          "velocity": 0.7007874015748031
        },
        {
          "duration": 0.227272499999998,
          "durationTicks": 480,
          "midi": 59,
          "name": "B3",
          "ticks": 416160,
          "time": 197.04525750000002,
          "velocity": 0.7007874015748031
        },
        {
          "duration": 0.227272499999998,
          "durationTicks": 480,
          "midi": 56,
          "name": "G#3",
          "ticks": 416160,
          "time": 197.04525750000002,
          "velocity": 0.7007874015748031
        },
        {
          "duration": 0.227272499999998,
          "durationTicks": 480,
          "midi": 64,
          "name": "E4",
          "ticks": 416160,
          "time": 197.04525750000002,
          "velocity": 0.7007874015748031
        },
        {
          "duration": 0.227272499999998,
          "durationTicks": 480,
          "midi": 66,
          "name": "F#4",
          "ticks": 416160,
          "time": 197.04525750000002,
          "velocity": 0.7007874015748031
        },
        {
          "duration": 0.227272499999998,
          "durationTicks": 480,
          "midi": 59,
          "name": "B3",
          "ticks": 417120,
          "time": 197.49980250000002,
          "velocity": 0.7007874015748031
        },
        {
          "duration": 0.227272499999998,
          "durationTicks": 480,
          "midi": 56,
          "name": "G#3",
          "ticks": 417120,
          "time": 197.49980250000002,
          "velocity": 0.7007874015748031
        },
        {
          "duration": 0.227272499999998,
          "durationTicks": 480,
          "midi": 64,
          "name": "E4",
          "ticks": 417120,
          "time": 197.49980250000002,
          "velocity": 0.7007874015748031
        },
        {
          "duration": 0.227272499999998,
          "durationTicks": 480,
          "midi": 66,
          "name": "F#4",
          "ticks": 417120,
          "time": 197.49980250000002,
          "velocity": 0.7007874015748031
        },
        {
          "duration": 0.227272499999998,
          "durationTicks": 480,
          "midi": 66,
          "name": "F#4",
          "ticks": 417600,
          "time": 197.727075,
          "velocity": 0.7007874015748031
        },
        {
          "duration": 0.227272499999998,
          "durationTicks": 480,
          "midi": 54,
          "name": "F#3",
          "ticks": 417600,
          "time": 197.727075,
          "velocity": 0.7007874015748031
        },
        {
          "duration": 0.227272499999998,
          "durationTicks": 480,
          "midi": 66,
          "name": "F#4",
          "ticks": 418080,
          "time": 197.9543475,
          "velocity": 0.7007874015748031
        },
        {
          "duration": 0.227272499999998,
          "durationTicks": 480,
          "midi": 54,
          "name": "F#3",
          "ticks": 418080,
          "time": 197.9543475,
          "velocity": 0.7007874015748031
        }
      ],
      "endOfTrackTicks": 422400
    },
    {
      "channel": 0,
      "controlChanges": {
        "10": [
          {
            "number": 10,
            "ticks": 0,
            "time": 0,
            "value": 0.9606299212598425
          }
        ]
      },
      "pitchBends": [],
      "instrument": {
        "family": "piano",
        "number": 0,
        "name": "acoustic grand piano"
      },
      "name": "Pitbull ft Ke$ha - Timber(2013)",
      "notes": [],
      "endOfTrackTicks": 424320
    },
    {
      "channel": 2,
      "controlChanges": {
        "7": [
          {
            "number": 7,
            "ticks": 0,
            "time": 0,
            "value": 1
          }
        ]
      },
      "pitchBends": [],
      "instrument": {
        "family": "bass",
        "number": 34,
        "name": "electric bass (pick)"
      },
      "name": "",
      "notes": [
        {
          "duration": 0.2272725,
          "durationTicks": 480,
          "midi": 51,
          "name": "D#3",
          "ticks": 3840,
          "time": 1.8181800000000001,
          "velocity": 0.7007874015748031
        },
        {
          "duration": 0.2272725,
          "durationTicks": 480,
          "midi": 44,
          "name": "G#2",
          "ticks": 3840,
          "time": 1.8181800000000001,
          "velocity": 0.7007874015748031
        },
        {
          "duration": 0.2272725000000002,
          "durationTicks": 480,
          "midi": 51,
          "name": "D#3",
          "ticks": 5280,
          "time": 2.4999975,
          "velocity": 0.7007874015748031
        },
        {
          "duration": 0.2272725000000002,
          "durationTicks": 480,
          "midi": 44,
          "name": "G#2",
          "ticks": 5280,
          "time": 2.4999975,
          "velocity": 0.7007874015748031
        },
        {
          "duration": 0.2272725000000002,
          "durationTicks": 480,
          "midi": 54,
          "name": "F#3",
          "ticks": 7680,
          "time": 3.6363600000000003,
          "velocity": 0.7007874015748031
        },
        {
          "duration": 0.2272725000000002,
          "durationTicks": 480,
          "midi": 47,
          "name": "B2",
          "ticks": 7680,
          "time": 3.6363600000000003,
          "velocity": 0.7007874015748031
        },
        {
          "duration": 0.22727250000000065,
          "durationTicks": 480,
          "midi": 54,
          "name": "F#3",
          "ticks": 9120,
          "time": 4.3181775,
          "velocity": 0.7007874015748031
        },
        {
          "duration": 0.22727250000000065,
          "durationTicks": 480,
          "midi": 47,
          "name": "B2",
          "ticks": 9120,
          "time": 4.3181775,
          "velocity": 0.7007874015748031
        },
        {
          "duration": 0.22727249999999977,
          "durationTicks": 480,
          "midi": 42,
          "name": "F#2",
          "ticks": 11520,
          "time": 5.454540000000001,
          "velocity": 0.7007874015748031
        },
        {
          "duration": 0.22727249999999977,
          "durationTicks": 480,
          "midi": 49,
          "name": "C#3",
          "ticks": 11520,
          "time": 5.454540000000001,
          "velocity": 0.7007874015748031
        },
        {
          "duration": 0.22727249999999977,
          "durationTicks": 480,
          "midi": 42,
          "name": "F#2",
          "ticks": 12960,
          "time": 6.136357500000001,
          "velocity": 0.7007874015748031
        },
        {
          "duration": 0.22727249999999977,
          "durationTicks": 480,
          "midi": 49,
          "name": "C#3",
          "ticks": 12960,
          "time": 6.136357500000001,
          "velocity": 0.7007874015748031
        },
        {
          "duration": 0.22727249999999977,
          "durationTicks": 480,
          "midi": 40,
          "name": "E2",
          "ticks": 15360,
          "time": 7.2727200000000005,
          "velocity": 0.7007874015748031
        },
        {
          "duration": 0.22727249999999977,
          "durationTicks": 480,
          "midi": 47,
          "name": "B2",
          "ticks": 15360,
          "time": 7.2727200000000005,
          "velocity": 0.7007874015748031
        },
        {
          "duration": 0.22727249999999977,
          "durationTicks": 480,
          "midi": 40,
          "name": "E2",
          "ticks": 16800,
          "time": 7.954537500000001,
          "velocity": 0.7007874015748031
        },
        {
          "duration": 0.22727249999999977,
          "durationTicks": 480,
          "midi": 47,
          "name": "B2",
          "ticks": 16800,
          "time": 7.954537500000001,
          "velocity": 0.7007874015748031
        },
        {
          "duration": 0.45454499999999953,
          "durationTicks": 960,
          "midi": 54,
          "name": "F#3",
          "ticks": 17760,
          "time": 8.4090825,
          "velocity": 0.7007874015748031
        },
        {
          "duration": 0.45454499999999953,
          "durationTicks": 960,
          "midi": 49,
          "name": "C#3",
          "ticks": 17760,
          "time": 8.4090825,
          "velocity": 0.7007874015748031
        },
        {
          "duration": 0.45454499999999953,
          "durationTicks": 960,
          "midi": 42,
          "name": "F#2",
          "ticks": 17760,
          "time": 8.4090825,
          "velocity": 0.7007874015748031
        },
        {
          "duration": 0.22727250000000154,
          "durationTicks": 480,
          "midi": 55,
          "name": "G3",
          "ticks": 18720,
          "time": 8.8636275,
          "velocity": 0.7007874015748031
        },
        {
          "duration": 0.22727250000000154,
          "durationTicks": 480,
          "midi": 50,
          "name": "D3",
          "ticks": 18720,
          "time": 8.8636275,
          "velocity": 0.7007874015748031
        },
        {
          "duration": 0.22727250000000154,
          "durationTicks": 480,
          "midi": 43,
          "name": "G2",
          "ticks": 18720,
          "time": 8.8636275,
          "velocity": 0.7007874015748031
        },
        {
          "duration": 0.22727249999999977,
          "durationTicks": 480,
          "midi": 51,
          "name": "D#3",
          "ticks": 19200,
          "time": 9.090900000000001,
          "velocity": 0.7007874015748031
        },
        {
          "duration": 0.22727249999999977,
          "durationTicks": 480,
          "midi": 44,
          "name": "G#2",
          "ticks": 19200,
          "time": 9.090900000000001,
          "velocity": 0.7007874015748031
        },
        {
          "duration": 0.22727249999999977,
          "durationTicks": 480,
          "midi": 56,
          "name": "G#3",
          "ticks": 19200,
          "time": 9.090900000000001,
          "velocity": 0.7007874015748031
        },
        {
          "duration": 0.22727249999999977,
          "durationTicks": 480,
          "midi": 51,
          "name": "D#3",
          "ticks": 20640,
          "time": 9.7727175,
          "velocity": 0.7007874015748031
        },
        {
          "duration": 0.22727249999999977,
          "durationTicks": 480,
          "midi": 44,
          "name": "G#2",
          "ticks": 20640,
          "time": 9.7727175,
          "velocity": 0.7007874015748031
        },
        {
          "duration": 0.22727249999999977,
          "durationTicks": 480,
          "midi": 54,
          "name": "F#3",
          "ticks": 23040,
          "time": 10.909080000000001,
          "velocity": 0.7007874015748031
        },
        {
          "duration": 0.22727249999999977,
          "durationTicks": 480,
          "midi": 47,
          "name": "B2",
          "ticks": 23040,
          "time": 10.909080000000001,
          "velocity": 0.7007874015748031
        },
        {
          "duration": 0.22727249999999977,
          "durationTicks": 480,
          "midi": 54,
          "name": "F#3",
          "ticks": 24480,
          "time": 11.5908975,
          "velocity": 0.7007874015748031
        },
        {
          "duration": 0.22727249999999977,
          "durationTicks": 480,
          "midi": 47,
          "name": "B2",
          "ticks": 24480,
          "time": 11.5908975,
          "velocity": 0.7007874015748031
        },
        {
          "duration": 0.22727249999999977,
          "durationTicks": 480,
          "midi": 42,
          "name": "F#2",
          "ticks": 26880,
          "time": 12.727260000000001,
          "velocity": 0.7007874015748031
        },
        {
          "duration": 0.22727249999999977,
          "durationTicks": 480,
          "midi": 49,
          "name": "C#3",
          "ticks": 26880,
          "time": 12.727260000000001,
          "velocity": 0.7007874015748031
        },
        {
          "duration": 0.22727249999999977,
          "durationTicks": 480,
          "midi": 42,
          "name": "F#2",
          "ticks": 28320,
          "time": 13.4090775,
          "velocity": 0.7007874015748031
        },
        {
          "duration": 0.22727249999999977,
          "durationTicks": 480,
          "midi": 49,
          "name": "C#3",
          "ticks": 28320,
          "time": 13.4090775,
          "velocity": 0.7007874015748031
        },
        {
          "duration": 0.22727249999999977,
          "durationTicks": 480,
          "midi": 40,
          "name": "E2",
          "ticks": 30720,
          "time": 14.545440000000001,
          "velocity": 0.7007874015748031
        },
        {
          "duration": 0.22727249999999977,
          "durationTicks": 480,
          "midi": 47,
          "name": "B2",
          "ticks": 30720,
          "time": 14.545440000000001,
          "velocity": 0.7007874015748031
        },
        {
          "duration": 0.22727250000000154,
          "durationTicks": 480,
          "midi": 40,
          "name": "E2",
          "ticks": 32160,
          "time": 15.2272575,
          "velocity": 0.7007874015748031
        },
        {
          "duration": 0.22727250000000154,
          "durationTicks": 480,
          "midi": 47,
          "name": "B2",
          "ticks": 32160,
          "time": 15.2272575,
          "velocity": 0.7007874015748031
        },
        {
          "duration": 0.45454499999999776,
          "durationTicks": 960,
          "midi": 54,
          "name": "F#3",
          "ticks": 33120,
          "time": 15.681802500000002,
          "velocity": 0.7007874015748031
        },
        {
          "duration": 0.45454499999999776,
          "durationTicks": 960,
          "midi": 49,
          "name": "C#3",
          "ticks": 33120,
          "time": 15.681802500000002,
          "velocity": 0.7007874015748031
        },
        {
          "duration": 0.45454499999999776,
          "durationTicks": 960,
          "midi": 42,
          "name": "F#2",
          "ticks": 33120,
          "time": 15.681802500000002,
          "velocity": 0.7007874015748031
        },
        {
          "duration": 0.22727250000000154,
          "durationTicks": 480,
          "midi": 55,
          "name": "G3",
          "ticks": 34080,
          "time": 16.1363475,
          "velocity": 0.7007874015748031
        },
        {
          "duration": 0.22727250000000154,
          "durationTicks": 480,
          "midi": 50,
          "name": "D3",
          "ticks": 34080,
          "time": 16.1363475,
          "velocity": 0.7007874015748031
        },
        {
          "duration": 0.22727250000000154,
          "durationTicks": 480,
          "midi": 43,
          "name": "G2",
          "ticks": 34080,
          "time": 16.1363475,
          "velocity": 0.7007874015748031
        },
        {
          "duration": 0.22727250000000154,
          "durationTicks": 480,
          "midi": 51,
          "name": "D#3",
          "ticks": 34560,
          "time": 16.36362,
          "velocity": 0.7007874015748031
        },
        {
          "duration": 0.22727250000000154,
          "durationTicks": 480,
          "midi": 44,
          "name": "G#2",
          "ticks": 34560,
          "time": 16.36362,
          "velocity": 0.7007874015748031
        },
        {
          "duration": 0.22727250000000154,
          "durationTicks": 480,
          "midi": 56,
          "name": "G#3",
          "ticks": 34560,
          "time": 16.36362,
          "velocity": 0.7007874015748031
        },
        {
          "duration": 0.227272499999998,
          "durationTicks": 480,
          "midi": 51,
          "name": "D#3",
          "ticks": 36000,
          "time": 17.045437500000002,
          "velocity": 0.7007874015748031
        },
        {
          "duration": 0.227272499999998,
          "durationTicks": 480,
          "midi": 44,
          "name": "G#2",
          "ticks": 36000,
          "time": 17.045437500000002,
          "velocity": 0.7007874015748031
        },
        {
          "duration": 0.227272499999998,
          "durationTicks": 480,
          "midi": 54,
          "name": "F#3",
          "ticks": 38400,
          "time": 18.181800000000003,
          "velocity": 0.7007874015748031
        },
        {
          "duration": 0.227272499999998,
          "durationTicks": 480,
          "midi": 47,
          "name": "B2",
          "ticks": 38400,
          "time": 18.181800000000003,
          "velocity": 0.7007874015748031
        },
        {
          "duration": 0.22727250000000154,
          "durationTicks": 480,
          "midi": 54,
          "name": "F#3",
          "ticks": 39840,
          "time": 18.8636175,
          "velocity": 0.7007874015748031
        },
        {
          "duration": 0.22727250000000154,
          "durationTicks": 480,
          "midi": 47,
          "name": "B2",
          "ticks": 39840,
          "time": 18.8636175,
          "velocity": 0.7007874015748031
        },
        {
          "duration": 0.22727250000000154,
          "durationTicks": 480,
          "midi": 42,
          "name": "F#2",
          "ticks": 42240,
          "time": 19.99998,
          "velocity": 0.7007874015748031
        },
        {
          "duration": 0.22727250000000154,
          "durationTicks": 480,
          "midi": 49,
          "name": "C#3",
          "ticks": 42240,
          "time": 19.99998,
          "velocity": 0.7007874015748031
        },
        {
          "duration": 0.227272499999998,
          "durationTicks": 480,
          "midi": 42,
          "name": "F#2",
          "ticks": 43680,
          "time": 20.681797500000002,
          "velocity": 0.7007874015748031
        },
        {
          "duration": 0.227272499999998,
          "durationTicks": 480,
          "midi": 49,
          "name": "C#3",
          "ticks": 43680,
          "time": 20.681797500000002,
          "velocity": 0.7007874015748031
        },
        {
          "duration": 0.227272499999998,
          "durationTicks": 480,
          "midi": 40,
          "name": "E2",
          "ticks": 46080,
          "time": 21.818160000000002,
          "velocity": 0.7007874015748031
        },
        {
          "duration": 0.227272499999998,
          "durationTicks": 480,
          "midi": 47,
          "name": "B2",
          "ticks": 46080,
          "time": 21.818160000000002,
          "velocity": 0.7007874015748031
        },
        {
          "duration": 0.22727250000000154,
          "durationTicks": 480,
          "midi": 40,
          "name": "E2",
          "ticks": 47520,
          "time": 22.4999775,
          "velocity": 0.7007874015748031
        },
        {
          "duration": 0.22727250000000154,
          "durationTicks": 480,
          "midi": 47,
          "name": "B2",
          "ticks": 47520,
          "time": 22.4999775,
          "velocity": 0.7007874015748031
        },
        {
          "duration": 0.45454499999999953,
          "durationTicks": 960,
          "midi": 54,
          "name": "F#3",
          "ticks": 48480,
          "time": 22.954522500000003,
          "velocity": 0.7007874015748031
        },
        {
          "duration": 0.45454499999999953,
          "durationTicks": 960,
          "midi": 49,
          "name": "C#3",
          "ticks": 48480,
          "time": 22.954522500000003,
          "velocity": 0.7007874015748031
        },
        {
          "duration": 0.45454499999999953,
          "durationTicks": 960,
          "midi": 42,
          "name": "F#2",
          "ticks": 48480,
          "time": 22.954522500000003,
          "velocity": 0.7007874015748031
        },
        {
          "duration": 0.227272499999998,
          "durationTicks": 480,
          "midi": 55,
          "name": "G3",
          "ticks": 49440,
          "time": 23.409067500000003,
          "velocity": 0.7007874015748031
        },
        {
          "duration": 0.227272499999998,
          "durationTicks": 480,
          "midi": 50,
          "name": "D3",
          "ticks": 49440,
          "time": 23.409067500000003,
          "velocity": 0.7007874015748031
        },
        {
          "duration": 0.227272499999998,
          "durationTicks": 480,
          "midi": 43,
          "name": "G2",
          "ticks": 49440,
          "time": 23.409067500000003,
          "velocity": 0.7007874015748031
        },
        {
          "duration": 0.22727250000000154,
          "durationTicks": 480,
          "midi": 51,
          "name": "D#3",
          "ticks": 49920,
          "time": 23.63634,
          "velocity": 0.7007874015748031
        },
        {
          "duration": 0.22727250000000154,
          "durationTicks": 480,
          "midi": 44,
          "name": "G#2",
          "ticks": 49920,
          "time": 23.63634,
          "velocity": 0.7007874015748031
        },
        {
          "duration": 0.22727250000000154,
          "durationTicks": 480,
          "midi": 56,
          "name": "G#3",
          "ticks": 49920,
          "time": 23.63634,
          "velocity": 0.7007874015748031
        },
        {
          "duration": 0.22727250000000154,
          "durationTicks": 480,
          "midi": 51,
          "name": "D#3",
          "ticks": 51360,
          "time": 24.3181575,
          "velocity": 0.7007874015748031
        },
        {
          "duration": 0.22727250000000154,
          "durationTicks": 480,
          "midi": 44,
          "name": "G#2",
          "ticks": 51360,
          "time": 24.3181575,
          "velocity": 0.7007874015748031
        },
        {
          "duration": 0.227272499999998,
          "durationTicks": 480,
          "midi": 54,
          "name": "F#3",
          "ticks": 53760,
          "time": 25.454520000000002,
          "velocity": 0.7007874015748031
        },
        {
          "duration": 0.227272499999998,
          "durationTicks": 480,
          "midi": 47,
          "name": "B2",
          "ticks": 53760,
          "time": 25.454520000000002,
          "velocity": 0.7007874015748031
        },
        {
          "duration": 0.227272499999998,
          "durationTicks": 480,
          "midi": 54,
          "name": "F#3",
          "ticks": 55200,
          "time": 26.136337500000003,
          "velocity": 0.7007874015748031
        },
        {
          "duration": 0.227272499999998,
          "durationTicks": 480,
          "midi": 47,
          "name": "B2",
          "ticks": 55200,
          "time": 26.136337500000003,
          "velocity": 0.7007874015748031
        },
        {
          "duration": 0.22727250000000154,
          "durationTicks": 480,
          "midi": 42,
          "name": "F#2",
          "ticks": 57600,
          "time": 27.2727,
          "velocity": 0.7007874015748031
        },
        {
          "duration": 0.22727250000000154,
          "durationTicks": 480,
          "midi": 49,
          "name": "C#3",
          "ticks": 57600,
          "time": 27.2727,
          "velocity": 0.7007874015748031
        },
        {
          "duration": 0.22727250000000154,
          "durationTicks": 480,
          "midi": 42,
          "name": "F#2",
          "ticks": 59040,
          "time": 27.9545175,
          "velocity": 0.7007874015748031
        },
        {
          "duration": 0.22727250000000154,
          "durationTicks": 480,
          "midi": 49,
          "name": "C#3",
          "ticks": 59040,
          "time": 27.9545175,
          "velocity": 0.7007874015748031
        },
        {
          "duration": 0.22727250000000154,
          "durationTicks": 480,
          "midi": 40,
          "name": "E2",
          "ticks": 61440,
          "time": 29.090880000000002,
          "velocity": 0.7007874015748031
        },
        {
          "duration": 0.22727250000000154,
          "durationTicks": 480,
          "midi": 47,
          "name": "B2",
          "ticks": 61440,
          "time": 29.090880000000002,
          "velocity": 0.7007874015748031
        },
        {
          "duration": 0.227272499999998,
          "durationTicks": 480,
          "midi": 40,
          "name": "E2",
          "ticks": 62880,
          "time": 29.772697500000003,
          "velocity": 0.7007874015748031
        },
        {
          "duration": 0.227272499999998,
          "durationTicks": 480,
          "midi": 47,
          "name": "B2",
          "ticks": 62880,
          "time": 29.772697500000003,
          "velocity": 0.7007874015748031
        },
        {
          "duration": 0.45454499999999953,
          "durationTicks": 960,
          "midi": 54,
          "name": "F#3",
          "ticks": 63840,
          "time": 30.227242500000003,
          "velocity": 0.7007874015748031
        },
        {
          "duration": 0.45454499999999953,
          "durationTicks": 960,
          "midi": 49,
          "name": "C#3",
          "ticks": 63840,
          "time": 30.227242500000003,
          "velocity": 0.7007874015748031
        },
        {
          "duration": 0.45454499999999953,
          "durationTicks": 960,
          "midi": 42,
          "name": "F#2",
          "ticks": 63840,
          "time": 30.227242500000003,
          "velocity": 0.7007874015748031
        },
        {
          "duration": 0.22727250000000154,
          "durationTicks": 480,
          "midi": 55,
          "name": "G3",
          "ticks": 64800,
          "time": 30.681787500000002,
          "velocity": 0.7007874015748031
        },
        {
          "duration": 0.22727250000000154,
          "durationTicks": 480,
          "midi": 50,
          "name": "D3",
          "ticks": 64800,
          "time": 30.681787500000002,
          "velocity": 0.7007874015748031
        },
        {
          "duration": 0.22727250000000154,
          "durationTicks": 480,
          "midi": 43,
          "name": "G2",
          "ticks": 64800,
          "time": 30.681787500000002,
          "velocity": 0.7007874015748031
        },
        {
          "duration": 0.227272499999998,
          "durationTicks": 480,
          "midi": 51,
          "name": "D#3",
          "ticks": 65280,
          "time": 30.909060000000004,
          "velocity": 0.7007874015748031
        },
        {
          "duration": 0.227272499999998,
          "durationTicks": 480,
          "midi": 44,
          "name": "G#2",
          "ticks": 65280,
          "time": 30.909060000000004,
          "velocity": 0.7007874015748031
        },
        {
          "duration": 0.227272499999998,
          "durationTicks": 480,
          "midi": 56,
          "name": "G#3",
          "ticks": 65280,
          "time": 30.909060000000004,
          "velocity": 0.7007874015748031
        },
        {
          "duration": 0.22727250000000154,
          "durationTicks": 480,
          "midi": 51,
          "name": "D#3",
          "ticks": 66720,
          "time": 31.5908775,
          "velocity": 0.7007874015748031
        },
        {
          "duration": 0.22727250000000154,
          "durationTicks": 480,
          "midi": 44,
          "name": "G#2",
          "ticks": 66720,
          "time": 31.5908775,
          "velocity": 0.7007874015748031
        },
        {
          "duration": 0.227272499999998,
          "durationTicks": 480,
          "midi": 54,
          "name": "F#3",
          "ticks": 69120,
          "time": 32.72724,
          "velocity": 0.7007874015748031
        },
        {
          "duration": 0.227272499999998,
          "durationTicks": 480,
          "midi": 47,
          "name": "B2",
          "ticks": 69120,
          "time": 32.72724,
          "velocity": 0.7007874015748031
        },
        {
          "duration": 0.227272499999998,
          "durationTicks": 480,
          "midi": 54,
          "name": "F#3",
          "ticks": 70560,
          "time": 33.4090575,
          "velocity": 0.7007874015748031
        },
        {
          "duration": 0.227272499999998,
          "durationTicks": 480,
          "midi": 47,
          "name": "B2",
          "ticks": 70560,
          "time": 33.4090575,
          "velocity": 0.7007874015748031
        },
        {
          "duration": 0.2272725000000051,
          "durationTicks": 480,
          "midi": 42,
          "name": "F#2",
          "ticks": 72960,
          "time": 34.54542,
          "velocity": 0.7007874015748031
        },
        {
          "duration": 0.2272725000000051,
          "durationTicks": 480,
          "midi": 49,
          "name": "C#3",
          "ticks": 72960,
          "time": 34.54542,
          "velocity": 0.7007874015748031
        },
        {
          "duration": 0.227272499999998,
          "durationTicks": 480,
          "midi": 42,
          "name": "F#2",
          "ticks": 74400,
          "time": 35.2272375,
          "velocity": 0.7007874015748031
        },
        {
          "duration": 0.227272499999998,
          "durationTicks": 480,
          "midi": 49,
          "name": "C#3",
          "ticks": 74400,
          "time": 35.2272375,
          "velocity": 0.7007874015748031
        },
        {
          "duration": 0.227272499999998,
          "durationTicks": 480,
          "midi": 40,
          "name": "E2",
          "ticks": 76800,
          "time": 36.363600000000005,
          "velocity": 0.7007874015748031
        },
        {
          "duration": 0.227272499999998,
          "durationTicks": 480,
          "midi": 47,
          "name": "B2",
          "ticks": 76800,
          "time": 36.363600000000005,
          "velocity": 0.7007874015748031
        },
        {
          "duration": 0.2272725000000051,
          "durationTicks": 480,
          "midi": 40,
          "name": "E2",
          "ticks": 78240,
          "time": 37.0454175,
          "velocity": 0.7007874015748031
        },
        {
          "duration": 0.2272725000000051,
          "durationTicks": 480,
          "midi": 47,
          "name": "B2",
          "ticks": 78240,
          "time": 37.0454175,
          "velocity": 0.7007874015748031
        },
        {
          "duration": 0.4545450000000031,
          "durationTicks": 960,
          "midi": 54,
          "name": "F#3",
          "ticks": 79200,
          "time": 37.4999625,
          "velocity": 0.7007874015748031
        },
        {
          "duration": 0.4545450000000031,
          "durationTicks": 960,
          "midi": 49,
          "name": "C#3",
          "ticks": 79200,
          "time": 37.4999625,
          "velocity": 0.7007874015748031
        },
        {
          "duration": 0.4545450000000031,
          "durationTicks": 960,
          "midi": 42,
          "name": "F#2",
          "ticks": 79200,
          "time": 37.4999625,
          "velocity": 0.7007874015748031
        },
        {
          "duration": 0.227272499999998,
          "durationTicks": 480,
          "midi": 55,
          "name": "G3",
          "ticks": 80160,
          "time": 37.954507500000005,
          "velocity": 0.7007874015748031
        },
        {
          "duration": 0.227272499999998,
          "durationTicks": 480,
          "midi": 50,
          "name": "D3",
          "ticks": 80160,
          "time": 37.954507500000005,
          "velocity": 0.7007874015748031
        },
        {
          "duration": 0.227272499999998,
          "durationTicks": 480,
          "midi": 43,
          "name": "G2",
          "ticks": 80160,
          "time": 37.954507500000005,
          "velocity": 0.7007874015748031
        },
        {
          "duration": 0.227272499999998,
          "durationTicks": 480,
          "midi": 32,
          "name": "G#1",
          "ticks": 80640,
          "time": 38.18178,
          "velocity": 0.7007874015748031
        },
        {
          "duration": 0.227272499999998,
          "durationTicks": 480,
          "midi": 44,
          "name": "G#2",
          "ticks": 81120,
          "time": 38.4090525,
          "velocity": 0.7007874015748031
        },
        {
          "duration": 0.2272725000000051,
          "durationTicks": 480,
          "midi": 32,
          "name": "G#1",
          "ticks": 81600,
          "time": 38.636325,
          "velocity": 0.7007874015748031
        },
        {
          "duration": 0.227272499999998,
          "durationTicks": 480,
          "midi": 44,
          "name": "G#2",
          "ticks": 82080,
          "time": 38.863597500000004,
          "velocity": 0.7007874015748031
        },
        {
          "duration": 0.227272499999998,
          "durationTicks": 480,
          "midi": 32,
          "name": "G#1",
          "ticks": 82560,
          "time": 39.09087,
          "velocity": 0.7007874015748031
        },
        {
          "duration": 0.2272725000000051,
          "durationTicks": 480,
          "midi": 44,
          "name": "G#2",
          "ticks": 83040,
          "time": 39.3181425,
          "velocity": 0.7007874015748031
        },
        {
          "duration": 0.227272499999998,
          "durationTicks": 480,
          "midi": 32,
          "name": "G#1",
          "ticks": 83520,
          "time": 39.545415000000006,
          "velocity": 0.7007874015748031
        },
        {
          "duration": 0.227272499999998,
          "durationTicks": 480,
          "midi": 44,
          "name": "G#2",
          "ticks": 84000,
          "time": 39.7726875,
          "velocity": 0.7007874015748031
        },
        {
          "duration": 0.227272499999998,
          "durationTicks": 480,
          "midi": 35,
          "name": "B1",
          "ticks": 84480,
          "time": 39.99996,
          "velocity": 0.7007874015748031
        },
        {
          "duration": 0.2272725000000051,
          "durationTicks": 480,
          "midi": 47,
          "name": "B2",
          "ticks": 84960,
          "time": 40.2272325,
          "velocity": 0.7007874015748031
        },
        {
          "duration": 0.227272499999998,
          "durationTicks": 480,
          "midi": 35,
          "name": "B1",
          "ticks": 85440,
          "time": 40.454505000000005,
          "velocity": 0.7007874015748031
        },
        {
          "duration": 0.227272499999998,
          "durationTicks": 480,
          "midi": 47,
          "name": "B2",
          "ticks": 85920,
          "time": 40.6817775,
          "velocity": 0.7007874015748031
        },
        {
          "duration": 0.2272725000000051,
          "durationTicks": 480,
          "midi": 35,
          "name": "B1",
          "ticks": 86400,
          "time": 40.90905,
          "velocity": 0.7007874015748031
        },
        {
          "duration": 0.227272499999998,
          "durationTicks": 480,
          "midi": 47,
          "name": "B2",
          "ticks": 86880,
          "time": 41.136322500000006,
          "velocity": 0.7007874015748031
        },
        {
          "duration": 0.227272499999998,
          "durationTicks": 480,
          "midi": 35,
          "name": "B1",
          "ticks": 87360,
          "time": 41.363595000000004,
          "velocity": 0.7007874015748031
        },
        {
          "duration": 0.227272499999998,
          "durationTicks": 480,
          "midi": 47,
          "name": "B2",
          "ticks": 87840,
          "time": 41.5908675,
          "velocity": 0.7007874015748031
        },
        {
          "duration": 0.2272725000000051,
          "durationTicks": 480,
          "midi": 30,
          "name": "F#1",
          "ticks": 88320,
          "time": 41.81814,
          "velocity": 0.7007874015748031
        },
        {
          "duration": 0.227272499999998,
          "durationTicks": 480,
          "midi": 42,
          "name": "F#2",
          "ticks": 88800,
          "time": 42.045412500000005,
          "velocity": 0.7007874015748031
        },
        {
          "duration": 0.227272499999998,
          "durationTicks": 480,
          "midi": 30,
          "name": "F#1",
          "ticks": 89280,
          "time": 42.272685,
          "velocity": 0.7007874015748031
        },
        {
          "duration": 0.2272725000000051,
          "durationTicks": 480,
          "midi": 42,
          "name": "F#2",
          "ticks": 89760,
          "time": 42.4999575,
          "velocity": 0.7007874015748031
        },
        {
          "duration": 0.227272499999998,
          "durationTicks": 480,
          "midi": 30,
          "name": "F#1",
          "ticks": 90240,
          "time": 42.727230000000006,
          "velocity": 0.7007874015748031
        },
        {
          "duration": 0.227272499999998,
          "durationTicks": 480,
          "midi": 42,
          "name": "F#2",
          "ticks": 90720,
          "time": 42.954502500000004,
          "velocity": 0.7007874015748031
        },
        {
          "duration": 0.227272499999998,
          "durationTicks": 480,
          "midi": 30,
          "name": "F#1",
          "ticks": 91200,
          "time": 43.181775,
          "velocity": 0.7007874015748031
        },
        {
          "duration": 0.2272725000000051,
          "durationTicks": 480,
          "midi": 42,
          "name": "F#2",
          "ticks": 91680,
          "time": 43.4090475,
          "velocity": 0.7007874015748031
        },
        {
          "duration": 0.227272499999998,
          "durationTicks": 480,
          "midi": 28,
          "name": "E1",
          "ticks": 92160,
          "time": 43.636320000000005,
          "velocity": 0.7007874015748031
        },
        {
          "duration": 0.227272499999998,
          "durationTicks": 480,
          "midi": 40,
          "name": "E2",
          "ticks": 92640,
          "time": 43.8635925,
          "velocity": 0.7007874015748031
        },
        {
          "duration": 0.2272725000000051,
          "durationTicks": 480,
          "midi": 28,
          "name": "E1",
          "ticks": 93120,
          "time": 44.090865,
          "velocity": 0.7007874015748031
        },
        {
          "duration": 0.227272499999998,
          "durationTicks": 480,
          "midi": 40,
          "name": "E2",
          "ticks": 93600,
          "time": 44.318137500000006,
          "velocity": 0.7007874015748031
        },
        {
          "duration": 0.227272499999998,
          "durationTicks": 480,
          "midi": 28,
          "name": "E1",
          "ticks": 94080,
          "time": 44.545410000000004,
          "velocity": 0.7007874015748031
        },
        {
          "duration": 0.227272499999998,
          "durationTicks": 480,
          "midi": 40,
          "name": "E2",
          "ticks": 94560,
          "time": 44.7726825,
          "velocity": 0.7007874015748031
        },
        {
          "duration": 0.227272499999998,
          "durationTicks": 480,
          "midi": 32,
          "name": "G#1",
          "ticks": 96000,
          "time": 45.4545,
          "velocity": 0.7007874015748031
        },
        {
          "duration": 0.2272725000000051,
          "durationTicks": 480,
          "midi": 44,
          "name": "G#2",
          "ticks": 96480,
          "time": 45.6817725,
          "velocity": 0.7007874015748031
        },
        {
          "duration": 0.227272499999998,
          "durationTicks": 480,
          "midi": 32,
          "name": "G#1",
          "ticks": 96960,
          "time": 45.909045000000006,
          "velocity": 0.7007874015748031
        },
        {
          "duration": 0.227272499999998,
          "durationTicks": 480,
          "midi": 44,
          "name": "G#2",
          "ticks": 97440,
          "time": 46.136317500000004,
          "velocity": 0.7007874015748031
        },
        {
          "duration": 0.227272499999998,
          "durationTicks": 480,
          "midi": 32,
          "name": "G#1",
          "ticks": 97920,
          "time": 46.36359,
          "velocity": 0.7007874015748031
        },
        {
          "duration": 0.2272725000000051,
          "durationTicks": 480,
          "midi": 42,
          "name": "F#2",
          "ticks": 98400,
          "time": 46.5908625,
          "velocity": 0.7007874015748031
        },
        {
          "duration": 0.2272725000000051,
          "durationTicks": 480,
          "midi": 35,
          "name": "B1",
          "ticks": 99840,
          "time": 47.27268,
          "velocity": 0.7007874015748031
        },
        {
          "duration": 0.227272499999998,
          "durationTicks": 480,
          "midi": 47,
          "name": "B2",
          "ticks": 100320,
          "time": 47.499952500000006,
          "velocity": 0.7007874015748031
        },
        {
          "duration": 0.227272499999998,
          "durationTicks": 480,
          "midi": 35,
          "name": "B1",
          "ticks": 100800,
          "time": 47.727225000000004,
          "velocity": 0.7007874015748031
        },
        {
          "duration": 0.227272499999998,
          "durationTicks": 480,
          "midi": 46,
          "name": "A#2",
          "ticks": 101280,
          "time": 47.9544975,
          "velocity": 0.7007874015748031
        },
        {
          "duration": 0.2272725000000051,
          "durationTicks": 480,
          "midi": 35,
          "name": "B1",
          "ticks": 101760,
          "time": 48.18177,
          "velocity": 0.7007874015748031
        },
        {
          "duration": 0.227272499999998,
          "durationTicks": 480,
          "midi": 47,
          "name": "B2",
          "ticks": 102240,
          "time": 48.409042500000005,
          "velocity": 0.7007874015748031
        },
        {
          "duration": 0.227272499999998,
          "durationTicks": 480,
          "midi": 30,
          "name": "F#1",
          "ticks": 103680,
          "time": 49.090860000000006,
          "velocity": 0.7007874015748031
        },
        {
          "duration": 0.227272499999998,
          "durationTicks": 480,
          "midi": 42,
          "name": "F#2",
          "ticks": 104160,
          "time": 49.318132500000004,
          "velocity": 0.7007874015748031
        },
        {
          "duration": 0.227272499999998,
          "durationTicks": 480,
          "midi": 30,
          "name": "F#1",
          "ticks": 104640,
          "time": 49.545405,
          "velocity": 0.7007874015748031
        },
        {
          "duration": 0.2272725000000051,
          "durationTicks": 480,
          "midi": 42,
          "name": "F#2",
          "ticks": 105120,
          "time": 49.7726775,
          "velocity": 0.7007874015748031
        },
        {
          "duration": 0.227272499999998,
          "durationTicks": 480,
          "midi": 30,
          "name": "F#1",
          "ticks": 105600,
          "time": 49.999950000000005,
          "velocity": 0.7007874015748031
        },
        {
          "duration": 0.227272499999998,
          "durationTicks": 480,
          "midi": 42,
          "name": "F#2",
          "ticks": 106080,
          "time": 50.2272225,
          "velocity": 0.7007874015748031
        },
        {
          "duration": 0.2272725000000051,
          "durationTicks": 480,
          "midi": 30,
          "name": "F#1",
          "ticks": 106560,
          "time": 50.454495,
          "velocity": 0.7007874015748031
        },
        {
          "duration": 0.227272499999998,
          "durationTicks": 480,
          "midi": 42,
          "name": "F#2",
          "ticks": 107040,
          "time": 50.68176750000001,
          "velocity": 0.7007874015748031
        },
        {
          "duration": 0.227272499999998,
          "durationTicks": 480,
          "midi": 28,
          "name": "E1",
          "ticks": 107520,
          "time": 50.909040000000005,
          "velocity": 0.7007874015748031
        },
        {
          "duration": 0.227272499999998,
          "durationTicks": 480,
          "midi": 40,
          "name": "E2",
          "ticks": 108000,
          "time": 51.1363125,
          "velocity": 0.7007874015748031
        },
        {
          "duration": 0.2272725000000051,
          "durationTicks": 480,
          "midi": 28,
          "name": "E1",
          "ticks": 108480,
          "time": 51.363585,
          "velocity": 0.7007874015748031
        },
        {
          "duration": 0.227272499999998,
          "durationTicks": 480,
          "midi": 40,
          "name": "E2",
          "ticks": 108960,
          "time": 51.590857500000006,
          "velocity": 0.7007874015748031
        },
        {
          "duration": 0.227272499999998,
          "durationTicks": 480,
          "midi": 28,
          "name": "E1",
          "ticks": 109440,
          "time": 51.818130000000004,
          "velocity": 0.7007874015748031
        },
        {
          "duration": 0.2272725000000051,
          "durationTicks": 480,
          "midi": 40,
          "name": "E2",
          "ticks": 109920,
          "time": 52.0454025,
          "velocity": 0.7007874015748031
        },
        {
          "duration": 0.227272499999998,
          "durationTicks": 480,
          "midi": 32,
          "name": "G#1",
          "ticks": 111360,
          "time": 52.72722,
          "velocity": 0.7007874015748031
        },
        {
          "duration": 0.2272725000000051,
          "durationTicks": 480,
          "midi": 44,
          "name": "G#2",
          "ticks": 111840,
          "time": 52.9544925,
          "velocity": 0.7007874015748031
        },
        {
          "duration": 0.227272499999998,
          "durationTicks": 480,
          "midi": 32,
          "name": "G#1",
          "ticks": 112320,
          "time": 53.181765000000006,
          "velocity": 0.7007874015748031
        },
        {
          "duration": 0.227272499999998,
          "durationTicks": 480,
          "midi": 44,
          "name": "G#2",
          "ticks": 112800,
          "time": 53.409037500000004,
          "velocity": 0.7007874015748031
        },
        {
          "duration": 0.2272725000000051,
          "durationTicks": 480,
          "midi": 32,
          "name": "G#1",
          "ticks": 113280,
          "time": 53.63631,
          "velocity": 0.7007874015748031
        },
        {
          "duration": 0.227272499999998,
          "durationTicks": 480,
          "midi": 44,
          "name": "G#2",
          "ticks": 113760,
          "time": 53.86358250000001,
          "velocity": 0.7007874015748031
        },
        {
          "duration": 0.227272499999998,
          "durationTicks": 480,
          "midi": 32,
          "name": "G#1",
          "ticks": 114240,
          "time": 54.090855000000005,
          "velocity": 0.7007874015748031
        },
        {
          "duration": 0.227272499999998,
          "durationTicks": 480,
          "midi": 44,
          "name": "G#2",
          "ticks": 114720,
          "time": 54.3181275,
          "velocity": 0.7007874015748031
        },
        {
          "duration": 0.2272725000000051,
          "durationTicks": 480,
          "midi": 35,
          "name": "B1",
          "ticks": 115200,
          "time": 54.5454,
          "velocity": 0.7007874015748031
        },
        {
          "duration": 0.227272499999998,
          "durationTicks": 480,
          "midi": 47,
          "name": "B2",
          "ticks": 115680,
          "time": 54.772672500000006,
          "velocity": 0.7007874015748031
        },
        {
          "duration": 0.227272499999998,
          "durationTicks": 480,
          "midi": 35,
          "name": "B1",
          "ticks": 116160,
          "time": 54.999945000000004,
          "velocity": 0.7007874015748031
        },
        {
          "duration": 0.2272725000000051,
          "durationTicks": 480,
          "midi": 47,
          "name": "B2",
          "ticks": 116640,
          "time": 55.2272175,
          "velocity": 0.7007874015748031
        },
        {
          "duration": 0.227272499999998,
          "durationTicks": 480,
          "midi": 35,
          "name": "B1",
          "ticks": 117120,
          "time": 55.45449000000001,
          "velocity": 0.7007874015748031
        },
        {
          "duration": 0.227272499999998,
          "durationTicks": 480,
          "midi": 47,
          "name": "B2",
          "ticks": 117600,
          "time": 55.681762500000005,
          "velocity": 0.7007874015748031
        },
        {
          "duration": 0.227272499999998,
          "durationTicks": 480,
          "midi": 35,
          "name": "B1",
          "ticks": 118080,
          "time": 55.909035,
          "velocity": 0.7007874015748031
        },
        {
          "duration": 0.2272725000000051,
          "durationTicks": 480,
          "midi": 47,
          "name": "B2",
          "ticks": 118560,
          "time": 56.1363075,
          "velocity": 0.7007874015748031
        },
        {
          "duration": 0.227272499999998,
          "durationTicks": 480,
          "midi": 30,
          "name": "F#1",
          "ticks": 119040,
          "time": 56.363580000000006,
          "velocity": 0.7007874015748031
        },
        {
          "duration": 0.227272499999998,
          "durationTicks": 480,
          "midi": 42,
          "name": "F#2",
          "ticks": 119520,
          "time": 56.590852500000004,
          "velocity": 0.7007874015748031
        },
        {
          "duration": 0.2272725000000051,
          "durationTicks": 480,
          "midi": 30,
          "name": "F#1",
          "ticks": 120000,
          "time": 56.818125,
          "velocity": 0.7007874015748031
        },
        {
          "duration": 0.227272499999998,
          "durationTicks": 480,
          "midi": 42,
          "name": "F#2",
          "ticks": 120480,
          "time": 57.04539750000001,
          "velocity": 0.7007874015748031
        },
        {
          "duration": 0.227272499999998,
          "durationTicks": 480,
          "midi": 30,
          "name": "F#1",
          "ticks": 120960,
          "time": 57.272670000000005,
          "velocity": 0.7007874015748031
        },
        {
          "duration": 0.227272499999998,
          "durationTicks": 480,
          "midi": 42,
          "name": "F#2",
          "ticks": 121440,
          "time": 57.4999425,
          "velocity": 0.7007874015748031
        },
        {
          "duration": 0.2272725000000051,
          "durationTicks": 480,
          "midi": 30,
          "name": "F#1",
          "ticks": 121920,
          "time": 57.727215,
          "velocity": 0.7007874015748031
        },
        {
          "duration": 0.227272499999998,
          "durationTicks": 480,
          "midi": 42,
          "name": "F#2",
          "ticks": 122400,
          "time": 57.954487500000006,
          "velocity": 0.7007874015748031
        },
        {
          "duration": 0.227272499999998,
          "durationTicks": 480,
          "midi": 28,
          "name": "E1",
          "ticks": 122880,
          "time": 58.181760000000004,
          "velocity": 0.7007874015748031
        },
        {
          "duration": 0.2272725000000051,
          "durationTicks": 480,
          "midi": 40,
          "name": "E2",
          "ticks": 123360,
          "time": 58.4090325,
          "velocity": 0.7007874015748031
        },
        {
          "duration": 0.227272499999998,
          "durationTicks": 480,
          "midi": 28,
          "name": "E1",
          "ticks": 123840,
          "time": 58.63630500000001,
          "velocity": 0.7007874015748031
        },
        {
          "duration": 0.227272499999998,
          "durationTicks": 480,
          "midi": 40,
          "name": "E2",
          "ticks": 124320,
          "time": 58.863577500000005,
          "velocity": 0.7007874015748031
        },
        {
          "duration": 0.227272499999998,
          "durationTicks": 480,
          "midi": 28,
          "name": "E1",
          "ticks": 124800,
          "time": 59.09085,
          "velocity": 0.7007874015748031
        },
        {
          "duration": 0.2272725000000051,
          "durationTicks": 480,
          "midi": 40,
          "name": "E2",
          "ticks": 125280,
          "time": 59.3181225,
          "velocity": 0.7007874015748031
        },
        {
          "duration": 0.227272499999998,
          "durationTicks": 480,
          "midi": 42,
          "name": "F#2",
          "ticks": 125760,
          "time": 59.545395000000006,
          "velocity": 0.7007874015748031
        },
        {
          "duration": 0.227272499999998,
          "durationTicks": 480,
          "midi": 30,
          "name": "F#1",
          "ticks": 125760,
          "time": 59.545395000000006,
          "velocity": 0.7007874015748031
        },
        {
          "duration": 0.227272499999998,
          "durationTicks": 480,
          "midi": 43,
          "name": "G2",
          "ticks": 126240,
          "time": 59.772667500000004,
          "velocity": 0.7007874015748031
        },
        {
          "duration": 0.227272499999998,
          "durationTicks": 480,
          "midi": 31,
          "name": "G1",
          "ticks": 126240,
          "time": 59.772667500000004,
          "velocity": 0.7007874015748031
        },
        {
          "duration": 0.2272725000000051,
          "durationTicks": 480,
          "midi": 30,
          "name": "F#1",
          "ticks": 126720,
          "time": 59.99994,
          "velocity": 0.7007874015748031
        },
        {
          "duration": 0.227272499999998,
          "durationTicks": 480,
          "midi": 42,
          "name": "F#2",
          "ticks": 127200,
          "time": 60.22721250000001,
          "velocity": 0.7007874015748031
        },
        {
          "duration": 0.227272499999998,
          "durationTicks": 480,
          "midi": 30,
          "name": "F#1",
          "ticks": 127680,
          "time": 60.454485000000005,
          "velocity": 0.7007874015748031
        },
        {
          "duration": 0.227272499999998,
          "durationTicks": 480,
          "midi": 42,
          "name": "F#2",
          "ticks": 128160,
          "time": 60.6817575,
          "velocity": 0.7007874015748031
        },
        {
          "duration": 0.2272725000000051,
          "durationTicks": 480,
          "midi": 30,
          "name": "F#1",
          "ticks": 128640,
          "time": 60.90903,
          "velocity": 0.7007874015748031
        },
        {
          "duration": 0.227272499999998,
          "durationTicks": 480,
          "midi": 42,
          "name": "F#2",
          "ticks": 129120,
          "time": 61.136302500000006,
          "velocity": 0.7007874015748031
        },
        {
          "duration": 0.227272499999998,
          "durationTicks": 480,
          "midi": 30,
          "name": "F#1",
          "ticks": 129600,
          "time": 61.363575000000004,
          "velocity": 0.7007874015748031
        },
        {
          "duration": 0.2272725000000051,
          "durationTicks": 480,
          "midi": 42,
          "name": "F#2",
          "ticks": 130080,
          "time": 61.5908475,
          "velocity": 0.7007874015748031
        },
        {
          "duration": 0.227272499999998,
          "durationTicks": 480,
          "midi": 35,
          "name": "B1",
          "ticks": 130560,
          "time": 61.81812000000001,
          "velocity": 0.7007874015748031
        },
        {
          "duration": 0.227272499999998,
          "durationTicks": 480,
          "midi": 47,
          "name": "B2",
          "ticks": 131040,
          "time": 62.045392500000005,
          "velocity": 0.7007874015748031
        },
        {
          "duration": 0.227272499999998,
          "durationTicks": 480,
          "midi": 35,
          "name": "B1",
          "ticks": 131520,
          "time": 62.272665,
          "velocity": 0.7007874015748031
        },
        {
          "duration": 0.2272725000000051,
          "durationTicks": 480,
          "midi": 47,
          "name": "B2",
          "ticks": 132000,
          "time": 62.4999375,
          "velocity": 0.7007874015748031
        },
        {
          "duration": 0.227272499999998,
          "durationTicks": 480,
          "midi": 35,
          "name": "B1",
          "ticks": 132480,
          "time": 62.72721000000001,
          "velocity": 0.7007874015748031
        },
        {
          "duration": 0.227272499999998,
          "durationTicks": 480,
          "midi": 47,
          "name": "B2",
          "ticks": 132960,
          "time": 62.954482500000005,
          "velocity": 0.7007874015748031
        },
        {
          "duration": 0.2272725000000051,
          "durationTicks": 480,
          "midi": 35,
          "name": "B1",
          "ticks": 133440,
          "time": 63.181755,
          "velocity": 0.7007874015748031
        },
        {
          "duration": 0.227272499999998,
          "durationTicks": 480,
          "midi": 47,
          "name": "B2",
          "ticks": 133920,
          "time": 63.40902750000001,
          "velocity": 0.7007874015748031
        },
        {
          "duration": 0.227272499999998,
          "durationTicks": 480,
          "midi": 30,
          "name": "F#1",
          "ticks": 134400,
          "time": 63.636300000000006,
          "velocity": 0.7007874015748031
        },
        {
          "duration": 0.227272499999998,
          "durationTicks": 480,
          "midi": 42,
          "name": "F#2",
          "ticks": 134880,
          "time": 63.863572500000004,
          "velocity": 0.7007874015748031
        },
        {
          "duration": 0.227272499999998,
          "durationTicks": 480,
          "midi": 30,
          "name": "F#1",
          "ticks": 135360,
          "time": 64.090845,
          "velocity": 0.7007874015748031
        },
        {
          "duration": 0.227272499999998,
          "durationTicks": 480,
          "midi": 42,
          "name": "F#2",
          "ticks": 135840,
          "time": 64.3181175,
          "velocity": 0.7007874015748031
        },
        {
          "duration": 0.2272725000000122,
          "durationTicks": 480,
          "midi": 30,
          "name": "F#1",
          "ticks": 136320,
          "time": 64.54539,
          "velocity": 0.7007874015748031
        },
        {
          "duration": 0.227272499999998,
          "durationTicks": 480,
          "midi": 42,
          "name": "F#2",
          "ticks": 136800,
          "time": 64.77266250000001,
          "velocity": 0.7007874015748031
        },
        {
          "duration": 0.227272499999998,
          "durationTicks": 480,
          "midi": 30,
          "name": "F#1",
          "ticks": 137280,
          "time": 64.99993500000001,
          "velocity": 0.7007874015748031
        },
        {
          "duration": 0.227272499999998,
          "durationTicks": 480,
          "midi": 42,
          "name": "F#2",
          "ticks": 137760,
          "time": 65.2272075,
          "velocity": 0.7007874015748031
        },
        {
          "duration": 0.227272499999998,
          "durationTicks": 480,
          "midi": 28,
          "name": "E1",
          "ticks": 138240,
          "time": 65.45448,
          "velocity": 0.7007874015748031
        },
        {
          "duration": 0.227272499999998,
          "durationTicks": 480,
          "midi": 40,
          "name": "E2",
          "ticks": 138720,
          "time": 65.6817525,
          "velocity": 0.7007874015748031
        },
        {
          "duration": 0.227272499999998,
          "durationTicks": 480,
          "midi": 28,
          "name": "E1",
          "ticks": 139200,
          "time": 65.909025,
          "velocity": 0.7007874015748031
        },
        {
          "duration": 0.2272725000000122,
          "durationTicks": 480,
          "midi": 40,
          "name": "E2",
          "ticks": 139680,
          "time": 66.1362975,
          "velocity": 0.7007874015748031
        },
        {
          "duration": 0.227272499999998,
          "durationTicks": 480,
          "midi": 28,
          "name": "E1",
          "ticks": 140160,
          "time": 66.36357000000001,
          "velocity": 0.7007874015748031
        },
        {
          "duration": 0.227272499999998,
          "durationTicks": 480,
          "midi": 40,
          "name": "E2",
          "ticks": 140640,
          "time": 66.59084250000001,
          "velocity": 0.7007874015748031
        },
        {
          "duration": 0.227272499999998,
          "durationTicks": 480,
          "midi": 42,
          "name": "F#2",
          "ticks": 141120,
          "time": 66.818115,
          "velocity": 0.7007874015748031
        },
        {
          "duration": 0.227272499999998,
          "durationTicks": 480,
          "midi": 30,
          "name": "F#1",
          "ticks": 141120,
          "time": 66.818115,
          "velocity": 0.7007874015748031
        },
        {
          "duration": 0.227272499999998,
          "durationTicks": 480,
          "midi": 43,
          "name": "G2",
          "ticks": 141600,
          "time": 67.0453875,
          "velocity": 0.7007874015748031
        },
        {
          "duration": 0.227272499999998,
          "durationTicks": 480,
          "midi": 31,
          "name": "G1",
          "ticks": 141600,
          "time": 67.0453875,
          "velocity": 0.7007874015748031
        },
        {
          "duration": 0.227272499999998,
          "durationTicks": 480,
          "midi": 51,
          "name": "D#3",
          "ticks": 142080,
          "time": 67.27266,
          "velocity": 0.7007874015748031
        },
        {
          "duration": 0.227272499999998,
          "durationTicks": 480,
          "midi": 44,
          "name": "G#2",
          "ticks": 142080,
          "time": 67.27266,
          "velocity": 0.7007874015748031
        },
        {
          "duration": 0.227272499999998,
          "durationTicks": 480,
          "midi": 51,
          "name": "D#3",
          "ticks": 143520,
          "time": 67.95447750000001,
          "velocity": 0.7007874015748031
        },
        {
          "duration": 0.227272499999998,
          "durationTicks": 480,
          "midi": 44,
          "name": "G#2",
          "ticks": 143520,
          "time": 67.95447750000001,
          "velocity": 0.7007874015748031
        },
        {
          "duration": 0.227272499999998,
          "durationTicks": 480,
          "midi": 47,
          "name": "B2",
          "ticks": 145920,
          "time": 69.09084,
          "velocity": 0.7007874015748031
        },
        {
          "duration": 0.227272499999998,
          "durationTicks": 480,
          "midi": 35,
          "name": "B1",
          "ticks": 145920,
          "time": 69.09084,
          "velocity": 0.7007874015748031
        },
        {
          "duration": 0.227272499999998,
          "durationTicks": 480,
          "midi": 47,
          "name": "B2",
          "ticks": 147360,
          "time": 69.77265750000001,
          "velocity": 0.7007874015748031
        },
        {
          "duration": 0.227272499999998,
          "durationTicks": 480,
          "midi": 35,
          "name": "B1",
          "ticks": 147360,
          "time": 69.77265750000001,
          "velocity": 0.7007874015748031
        },
        {
          "duration": 0.2272725000000122,
          "durationTicks": 480,
          "midi": 42,
          "name": "F#2",
          "ticks": 149760,
          "time": 70.90902,
          "velocity": 0.7007874015748031
        },
        {
          "duration": 0.2272725000000122,
          "durationTicks": 480,
          "midi": 49,
          "name": "C#3",
          "ticks": 149760,
          "time": 70.90902,
          "velocity": 0.7007874015748031
        },
        {
          "duration": 0.227272499999998,
          "durationTicks": 480,
          "midi": 42,
          "name": "F#2",
          "ticks": 151200,
          "time": 71.5908375,
          "velocity": 0.7007874015748031
        },
        {
          "duration": 0.227272499999998,
          "durationTicks": 480,
          "midi": 49,
          "name": "C#3",
          "ticks": 151200,
          "time": 71.5908375,
          "velocity": 0.7007874015748031
        },
        {
          "duration": 0.227272499999998,
          "durationTicks": 480,
          "midi": 40,
          "name": "E2",
          "ticks": 153600,
          "time": 72.72720000000001,
          "velocity": 0.7007874015748031
        },
        {
          "duration": 0.227272499999998,
          "durationTicks": 480,
          "midi": 47,
          "name": "B2",
          "ticks": 153600,
          "time": 72.72720000000001,
          "velocity": 0.7007874015748031
        },
        {
          "duration": 0.227272499999998,
          "durationTicks": 480,
          "midi": 40,
          "name": "E2",
          "ticks": 155040,
          "time": 73.4090175,
          "velocity": 0.7007874015748031
        },
        {
          "duration": 0.227272499999998,
          "durationTicks": 480,
          "midi": 47,
          "name": "B2",
          "ticks": 155040,
          "time": 73.4090175,
          "velocity": 0.7007874015748031
        },
        {
          "duration": 0.4545450000000102,
          "durationTicks": 960,
          "midi": 49,
          "name": "C#3",
          "ticks": 156000,
          "time": 73.8635625,
          "velocity": 0.7007874015748031
        },
        {
          "duration": 0.4545450000000102,
          "durationTicks": 960,
          "midi": 42,
          "name": "F#2",
          "ticks": 156000,
          "time": 73.8635625,
          "velocity": 0.7007874015748031
        },
        {
          "duration": 0.227272499999998,
          "durationTicks": 480,
          "midi": 50,
          "name": "D3",
          "ticks": 156960,
          "time": 74.31810750000001,
          "velocity": 0.7007874015748031
        },
        {
          "duration": 0.227272499999998,
          "durationTicks": 480,
          "midi": 43,
          "name": "G2",
          "ticks": 156960,
          "time": 74.31810750000001,
          "velocity": 0.7007874015748031
        },
        {
          "duration": 0.227272499999998,
          "durationTicks": 480,
          "midi": 51,
          "name": "D#3",
          "ticks": 157440,
          "time": 74.54538000000001,
          "velocity": 0.7007874015748031
        },
        {
          "duration": 0.227272499999998,
          "durationTicks": 480,
          "midi": 44,
          "name": "G#2",
          "ticks": 157440,
          "time": 74.54538000000001,
          "velocity": 0.7007874015748031
        },
        {
          "duration": 0.227272499999998,
          "durationTicks": 480,
          "midi": 51,
          "name": "D#3",
          "ticks": 158880,
          "time": 75.2271975,
          "velocity": 0.7007874015748031
        },
        {
          "duration": 0.227272499999998,
          "durationTicks": 480,
          "midi": 44,
          "name": "G#2",
          "ticks": 158880,
          "time": 75.2271975,
          "velocity": 0.7007874015748031
        },
        {
          "duration": 0.227272499999998,
          "durationTicks": 480,
          "midi": 47,
          "name": "B2",
          "ticks": 161280,
          "time": 76.36356,
          "velocity": 0.7007874015748031
        },
        {
          "duration": 0.227272499999998,
          "durationTicks": 480,
          "midi": 35,
          "name": "B1",
          "ticks": 161280,
          "time": 76.36356,
          "velocity": 0.7007874015748031
        },
        {
          "duration": 0.227272499999998,
          "durationTicks": 480,
          "midi": 47,
          "name": "B2",
          "ticks": 162720,
          "time": 77.0453775,
          "velocity": 0.7007874015748031
        },
        {
          "duration": 0.227272499999998,
          "durationTicks": 480,
          "midi": 37,
          "name": "C#2",
          "ticks": 162720,
          "time": 77.0453775,
          "velocity": 0.7007874015748031
        },
        {
          "duration": 0.227272499999998,
          "durationTicks": 480,
          "midi": 42,
          "name": "F#2",
          "ticks": 165120,
          "time": 78.18174,
          "velocity": 0.7007874015748031
        },
        {
          "duration": 0.227272499999998,
          "durationTicks": 480,
          "midi": 49,
          "name": "C#3",
          "ticks": 165120,
          "time": 78.18174,
          "velocity": 0.7007874015748031
        },
        {
          "duration": 0.2272725000000122,
          "durationTicks": 480,
          "midi": 42,
          "name": "F#2",
          "ticks": 166560,
          "time": 78.8635575,
          "velocity": 0.7007874015748031
        },
        {
          "duration": 0.2272725000000122,
          "durationTicks": 480,
          "midi": 49,
          "name": "C#3",
          "ticks": 166560,
          "time": 78.8635575,
          "velocity": 0.7007874015748031
        },
        {
          "duration": 0.227272499999998,
          "durationTicks": 480,
          "midi": 47,
          "name": "B2",
          "ticks": 168960,
          "time": 79.99992,
          "velocity": 0.7007874015748031
        },
        {
          "duration": 0.227272499999998,
          "durationTicks": 480,
          "midi": 40,
          "name": "E2",
          "ticks": 168960,
          "time": 79.99992,
          "velocity": 0.7007874015748031
        },
        {
          "duration": 0.227272499999998,
          "durationTicks": 480,
          "midi": 47,
          "name": "B2",
          "ticks": 170400,
          "time": 80.68173750000001,
          "velocity": 0.7007874015748031
        },
        {
          "duration": 0.227272499999998,
          "durationTicks": 480,
          "midi": 40,
          "name": "E2",
          "ticks": 170400,
          "time": 80.68173750000001,
          "velocity": 0.7007874015748031
        },
        {
          "duration": 0.454544999999996,
          "durationTicks": 960,
          "midi": 42,
          "name": "F#2",
          "ticks": 171360,
          "time": 81.13628250000001,
          "velocity": 0.7007874015748031
        },
        {
          "duration": 0.454544999999996,
          "durationTicks": 960,
          "midi": 49,
          "name": "C#3",
          "ticks": 171360,
          "time": 81.13628250000001,
          "velocity": 0.7007874015748031
        },
        {
          "duration": 0.227272499999998,
          "durationTicks": 480,
          "midi": 50,
          "name": "D3",
          "ticks": 172320,
          "time": 81.5908275,
          "velocity": 0.7007874015748031
        },
        {
          "duration": 0.227272499999998,
          "durationTicks": 480,
          "midi": 43,
          "name": "G2",
          "ticks": 172320,
          "time": 81.5908275,
          "velocity": 0.7007874015748031
        },
        {
          "duration": 0.227272499999998,
          "durationTicks": 480,
          "midi": 51,
          "name": "D#3",
          "ticks": 172800,
          "time": 81.8181,
          "velocity": 0.7007874015748031
        },
        {
          "duration": 0.227272499999998,
          "durationTicks": 480,
          "midi": 44,
          "name": "G#2",
          "ticks": 172800,
          "time": 81.8181,
          "velocity": 0.7007874015748031
        },
        {
          "duration": 0.227272499999998,
          "durationTicks": 480,
          "midi": 51,
          "name": "D#3",
          "ticks": 174240,
          "time": 82.49991750000001,
          "velocity": 0.7007874015748031
        },
        {
          "duration": 0.227272499999998,
          "durationTicks": 480,
          "midi": 44,
          "name": "G#2",
          "ticks": 174240,
          "time": 82.49991750000001,
          "velocity": 0.7007874015748031
        },
        {
          "duration": 0.2272725000000122,
          "durationTicks": 480,
          "midi": 47,
          "name": "B2",
          "ticks": 176640,
          "time": 83.63628,
          "velocity": 0.7007874015748031
        },
        {
          "duration": 0.2272725000000122,
          "durationTicks": 480,
          "midi": 35,
          "name": "B1",
          "ticks": 176640,
          "time": 83.63628,
          "velocity": 0.7007874015748031
        },
        {
          "duration": 0.227272499999998,
          "durationTicks": 480,
          "midi": 47,
          "name": "B2",
          "ticks": 178080,
          "time": 84.31809750000001,
          "velocity": 0.7007874015748031
        },
        {
          "duration": 0.227272499999998,
          "durationTicks": 480,
          "midi": 35,
          "name": "B1",
          "ticks": 178080,
          "time": 84.31809750000001,
          "velocity": 0.7007874015748031
        },
        {
          "duration": 0.227272499999998,
          "durationTicks": 480,
          "midi": 42,
          "name": "F#2",
          "ticks": 180480,
          "time": 85.45446000000001,
          "velocity": 0.7007874015748031
        },
        {
          "duration": 0.227272499999998,
          "durationTicks": 480,
          "midi": 49,
          "name": "C#3",
          "ticks": 180480,
          "time": 85.45446000000001,
          "velocity": 0.7007874015748031
        },
        {
          "duration": 0.227272499999998,
          "durationTicks": 480,
          "midi": 42,
          "name": "F#2",
          "ticks": 181920,
          "time": 86.1362775,
          "velocity": 0.7007874015748031
        },
        {
          "duration": 0.227272499999998,
          "durationTicks": 480,
          "midi": 49,
          "name": "C#3",
          "ticks": 181920,
          "time": 86.1362775,
          "velocity": 0.7007874015748031
        },
        {
          "duration": 0.227272499999998,
          "durationTicks": 480,
          "midi": 40,
          "name": "E2",
          "ticks": 184320,
          "time": 87.27264000000001,
          "velocity": 0.7007874015748031
        },
        {
          "duration": 0.227272499999998,
          "durationTicks": 480,
          "midi": 47,
          "name": "B2",
          "ticks": 184320,
          "time": 87.27264000000001,
          "velocity": 0.7007874015748031
        },
        {
          "duration": 0.227272499999998,
          "durationTicks": 480,
          "midi": 40,
          "name": "E2",
          "ticks": 185760,
          "time": 87.9544575,
          "velocity": 0.7007874015748031
        },
        {
          "duration": 0.227272499999998,
          "durationTicks": 480,
          "midi": 47,
          "name": "B2",
          "ticks": 185760,
          "time": 87.9544575,
          "velocity": 0.7007874015748031
        },
        {
          "duration": 0.4545450000000102,
          "durationTicks": 960,
          "midi": 49,
          "name": "C#3",
          "ticks": 186720,
          "time": 88.4090025,
          "velocity": 0.7007874015748031
        },
        {
          "duration": 0.4545450000000102,
          "durationTicks": 960,
          "midi": 42,
          "name": "F#2",
          "ticks": 186720,
          "time": 88.4090025,
          "velocity": 0.7007874015748031
        },
        {
          "duration": 0.227272499999998,
          "durationTicks": 480,
          "midi": 50,
          "name": "D3",
          "ticks": 187680,
          "time": 88.86354750000001,
          "velocity": 0.7007874015748031
        },
        {
          "duration": 0.227272499999998,
          "durationTicks": 480,
          "midi": 43,
          "name": "G2",
          "ticks": 187680,
          "time": 88.86354750000001,
          "velocity": 0.7007874015748031
        },
        {
          "duration": 0.227272499999998,
          "durationTicks": 480,
          "midi": 51,
          "name": "D#3",
          "ticks": 188160,
          "time": 89.09082000000001,
          "velocity": 0.7007874015748031
        },
        {
          "duration": 0.227272499999998,
          "durationTicks": 480,
          "midi": 44,
          "name": "G#2",
          "ticks": 188160,
          "time": 89.09082000000001,
          "velocity": 0.7007874015748031
        },
        {
          "duration": 0.227272499999998,
          "durationTicks": 480,
          "midi": 51,
          "name": "D#3",
          "ticks": 189600,
          "time": 89.7726375,
          "velocity": 0.7007874015748031
        },
        {
          "duration": 0.227272499999998,
          "durationTicks": 480,
          "midi": 44,
          "name": "G#2",
          "ticks": 189600,
          "time": 89.7726375,
          "velocity": 0.7007874015748031
        },
        {
          "duration": 0.227272499999998,
          "durationTicks": 480,
          "midi": 47,
          "name": "B2",
          "ticks": 192000,
          "time": 90.909,
          "velocity": 0.7007874015748031
        },
        {
          "duration": 0.227272499999998,
          "durationTicks": 480,
          "midi": 35,
          "name": "B1",
          "ticks": 192000,
          "time": 90.909,
          "velocity": 0.7007874015748031
        },
        {
          "duration": 0.2272725000000122,
          "durationTicks": 480,
          "midi": 47,
          "name": "B2",
          "ticks": 193440,
          "time": 91.5908175,
          "velocity": 0.7007874015748031
        },
        {
          "duration": 0.2272725000000122,
          "durationTicks": 480,
          "midi": 37,
          "name": "C#2",
          "ticks": 193440,
          "time": 91.5908175,
          "velocity": 0.7007874015748031
        },
        {
          "duration": 0.227272499999998,
          "durationTicks": 480,
          "midi": 42,
          "name": "F#2",
          "ticks": 195840,
          "time": 92.72718,
          "velocity": 0.7007874015748031
        },
        {
          "duration": 0.227272499999998,
          "durationTicks": 480,
          "midi": 49,
          "name": "C#3",
          "ticks": 195840,
          "time": 92.72718,
          "velocity": 0.7007874015748031
        },
        {
          "duration": 0.227272499999998,
          "durationTicks": 480,
          "midi": 42,
          "name": "F#2",
          "ticks": 197280,
          "time": 93.40899750000001,
          "velocity": 0.7007874015748031
        },
        {
          "duration": 0.227272499999998,
          "durationTicks": 480,
          "midi": 49,
          "name": "C#3",
          "ticks": 197280,
          "time": 93.40899750000001,
          "velocity": 0.7007874015748031
        },
        {
          "duration": 0.227272499999998,
          "durationTicks": 480,
          "midi": 40,
          "name": "E2",
          "ticks": 199680,
          "time": 94.54536,
          "velocity": 0.7007874015748031
        },
        {
          "duration": 0.227272499999998,
          "durationTicks": 480,
          "midi": 47,
          "name": "B2",
          "ticks": 199680,
          "time": 94.54536,
          "velocity": 0.7007874015748031
        },
        {
          "duration": 0.227272499999998,
          "durationTicks": 480,
          "midi": 40,
          "name": "E2",
          "ticks": 201120,
          "time": 95.22717750000001,
          "velocity": 0.7007874015748031
        },
        {
          "duration": 0.227272499999998,
          "durationTicks": 480,
          "midi": 47,
          "name": "B2",
          "ticks": 201120,
          "time": 95.22717750000001,
          "velocity": 0.7007874015748031
        },
        {
          "duration": 0.454544999999996,
          "durationTicks": 960,
          "midi": 54,
          "name": "F#3",
          "ticks": 202080,
          "time": 95.6817225,
          "velocity": 0.7007874015748031
        },
        {
          "duration": 0.454544999999996,
          "durationTicks": 960,
          "midi": 49,
          "name": "C#3",
          "ticks": 202080,
          "time": 95.6817225,
          "velocity": 0.7007874015748031
        },
        {
          "duration": 0.454544999999996,
          "durationTicks": 960,
          "midi": 42,
          "name": "F#2",
          "ticks": 202080,
          "time": 95.6817225,
          "velocity": 0.7007874015748031
        },
        {
          "duration": 0.227272499999998,
          "durationTicks": 480,
          "midi": 55,
          "name": "G3",
          "ticks": 203040,
          "time": 96.1362675,
          "velocity": 0.7007874015748031
        },
        {
          "duration": 0.227272499999998,
          "durationTicks": 480,
          "midi": 50,
          "name": "D3",
          "ticks": 203040,
          "time": 96.1362675,
          "velocity": 0.7007874015748031
        },
        {
          "duration": 0.227272499999998,
          "durationTicks": 480,
          "midi": 43,
          "name": "G2",
          "ticks": 203040,
          "time": 96.1362675,
          "velocity": 0.7007874015748031
        },
        {
          "duration": 0.2272725000000122,
          "durationTicks": 480,
          "midi": 32,
          "name": "G#1",
          "ticks": 203520,
          "time": 96.36354,
          "velocity": 0.7007874015748031
        },
        {
          "duration": 0.227272499999998,
          "durationTicks": 480,
          "midi": 44,
          "name": "G#2",
          "ticks": 204000,
          "time": 96.59081250000001,
          "velocity": 0.7007874015748031
        },
        {
          "duration": 0.227272499999998,
          "durationTicks": 480,
          "midi": 32,
          "name": "G#1",
          "ticks": 204480,
          "time": 96.81808500000001,
          "velocity": 0.7007874015748031
        },
        {
          "duration": 0.227272499999998,
          "durationTicks": 480,
          "midi": 44,
          "name": "G#2",
          "ticks": 204960,
          "time": 97.04535750000001,
          "velocity": 0.7007874015748031
        },
        {
          "duration": 0.227272499999998,
          "durationTicks": 480,
          "midi": 32,
          "name": "G#1",
          "ticks": 205440,
          "time": 97.27263,
          "velocity": 0.7007874015748031
        },
        {
          "duration": 0.227272499999998,
          "durationTicks": 480,
          "midi": 44,
          "name": "G#2",
          "ticks": 205920,
          "time": 97.4999025,
          "velocity": 0.7007874015748031
        },
        {
          "duration": 0.227272499999998,
          "durationTicks": 480,
          "midi": 32,
          "name": "G#1",
          "ticks": 206400,
          "time": 97.727175,
          "velocity": 0.7007874015748031
        },
        {
          "duration": 0.2272725000000122,
          "durationTicks": 480,
          "midi": 44,
          "name": "G#2",
          "ticks": 206880,
          "time": 97.9544475,
          "velocity": 0.7007874015748031
        },
        {
          "duration": 0.227272499999998,
          "durationTicks": 480,
          "midi": 35,
          "name": "B1",
          "ticks": 207360,
          "time": 98.18172000000001,
          "velocity": 0.7007874015748031
        },
        {
          "duration": 0.227272499999998,
          "durationTicks": 480,
          "midi": 47,
          "name": "B2",
          "ticks": 207840,
          "time": 98.40899250000001,
          "velocity": 0.7007874015748031
        },
        {
          "duration": 0.227272499999998,
          "durationTicks": 480,
          "midi": 35,
          "name": "B1",
          "ticks": 208320,
          "time": 98.63626500000001,
          "velocity": 0.7007874015748031
        },
        {
          "duration": 0.227272499999998,
          "durationTicks": 480,
          "midi": 47,
          "name": "B2",
          "ticks": 208800,
          "time": 98.8635375,
          "velocity": 0.7007874015748031
        },
        {
          "duration": 0.227272499999998,
          "durationTicks": 480,
          "midi": 35,
          "name": "B1",
          "ticks": 209280,
          "time": 99.09081,
          "velocity": 0.7007874015748031
        },
        {
          "duration": 0.227272499999998,
          "durationTicks": 480,
          "midi": 47,
          "name": "B2",
          "ticks": 209760,
          "time": 99.3180825,
          "velocity": 0.7007874015748031
        },
        {
          "duration": 0.2272725000000122,
          "durationTicks": 480,
          "midi": 35,
          "name": "B1",
          "ticks": 210240,
          "time": 99.545355,
          "velocity": 0.7007874015748031
        },
        {
          "duration": 0.227272499999998,
          "durationTicks": 480,
          "midi": 47,
          "name": "B2",
          "ticks": 210720,
          "time": 99.77262750000001,
          "velocity": 0.7007874015748031
        },
        {
          "duration": 0.227272499999998,
          "durationTicks": 480,
          "midi": 30,
          "name": "F#1",
          "ticks": 211200,
          "time": 99.99990000000001,
          "velocity": 0.7007874015748031
        },
        {
          "duration": 0.227272499999998,
          "durationTicks": 480,
          "midi": 42,
          "name": "F#2",
          "ticks": 211680,
          "time": 100.22717250000001,
          "velocity": 0.7007874015748031
        },
        {
          "duration": 0.227272499999998,
          "durationTicks": 480,
          "midi": 30,
          "name": "F#1",
          "ticks": 212160,
          "time": 100.454445,
          "velocity": 0.7007874015748031
        },
        {
          "duration": 0.227272499999998,
          "durationTicks": 480,
          "midi": 42,
          "name": "F#2",
          "ticks": 212640,
          "time": 100.6817175,
          "velocity": 0.7007874015748031
        },
        {
          "duration": 0.227272499999998,
          "durationTicks": 480,
          "midi": 30,
          "name": "F#1",
          "ticks": 213120,
          "time": 100.90899,
          "velocity": 0.7007874015748031
        },
        {
          "duration": 0.2272725000000122,
          "durationTicks": 480,
          "midi": 42,
          "name": "F#2",
          "ticks": 213600,
          "time": 101.1362625,
          "velocity": 0.7007874015748031
        },
        {
          "duration": 0.227272499999998,
          "durationTicks": 480,
          "midi": 30,
          "name": "F#1",
          "ticks": 214080,
          "time": 101.36353500000001,
          "velocity": 0.7007874015748031
        },
        {
          "duration": 0.227272499999998,
          "durationTicks": 480,
          "midi": 42,
          "name": "F#2",
          "ticks": 214560,
          "time": 101.59080750000001,
          "velocity": 0.7007874015748031
        },
        {
          "duration": 0.227272499999998,
          "durationTicks": 480,
          "midi": 28,
          "name": "E1",
          "ticks": 215040,
          "time": 101.81808000000001,
          "velocity": 0.7007874015748031
        },
        {
          "duration": 0.227272499999998,
          "durationTicks": 480,
          "midi": 40,
          "name": "E2",
          "ticks": 215520,
          "time": 102.0453525,
          "velocity": 0.7007874015748031
        },
        {
          "duration": 0.227272499999998,
          "durationTicks": 480,
          "midi": 28,
          "name": "E1",
          "ticks": 216000,
          "time": 102.272625,
          "velocity": 0.7007874015748031
        },
        {
          "duration": 0.227272499999998,
          "durationTicks": 480,
          "midi": 40,
          "name": "E2",
          "ticks": 216480,
          "time": 102.4998975,
          "velocity": 0.7007874015748031
        },
        {
          "duration": 0.2272725000000122,
          "durationTicks": 480,
          "midi": 28,
          "name": "E1",
          "ticks": 216960,
          "time": 102.72717,
          "velocity": 0.7007874015748031
        },
        {
          "duration": 0.227272499999998,
          "durationTicks": 480,
          "midi": 40,
          "name": "E2",
          "ticks": 217440,
          "time": 102.95444250000001,
          "velocity": 0.7007874015748031
        },
        {
          "duration": 0.227272499999998,
          "durationTicks": 480,
          "midi": 30,
          "name": "F#1",
          "ticks": 217920,
          "time": 103.18171500000001,
          "velocity": 0.7007874015748031
        },
        {
          "duration": 0.227272499999998,
          "durationTicks": 480,
          "midi": 42,
          "name": "F#2",
          "ticks": 217920,
          "time": 103.18171500000001,
          "velocity": 0.7007874015748031
        },
        {
          "duration": 0.227272499999998,
          "durationTicks": 480,
          "midi": 43,
          "name": "G2",
          "ticks": 218400,
          "time": 103.40898750000001,
          "velocity": 0.7007874015748031
        },
        {
          "duration": 0.227272499999998,
          "durationTicks": 480,
          "midi": 31,
          "name": "G1",
          "ticks": 218400,
          "time": 103.40898750000001,
          "velocity": 0.7007874015748031
        },
        {
          "duration": 0.227272499999998,
          "durationTicks": 480,
          "midi": 32,
          "name": "G#1",
          "ticks": 218880,
          "time": 103.63626000000001,
          "velocity": 0.7007874015748031
        },
        {
          "duration": 0.227272499999998,
          "durationTicks": 480,
          "midi": 44,
          "name": "G#2",
          "ticks": 219360,
          "time": 103.8635325,
          "velocity": 0.7007874015748031
        },
        {
          "duration": 0.227272499999998,
          "durationTicks": 480,
          "midi": 32,
          "name": "G#1",
          "ticks": 219840,
          "time": 104.090805,
          "velocity": 0.7007874015748031
        },
        {
          "duration": 0.2272725000000122,
          "durationTicks": 480,
          "midi": 44,
          "name": "G#2",
          "ticks": 220320,
          "time": 104.3180775,
          "velocity": 0.7007874015748031
        },
        {
          "duration": 0.227272499999998,
          "durationTicks": 480,
          "midi": 32,
          "name": "G#1",
          "ticks": 220800,
          "time": 104.54535000000001,
          "velocity": 0.7007874015748031
        },
        {
          "duration": 0.227272499999998,
          "durationTicks": 480,
          "midi": 44,
          "name": "G#2",
          "ticks": 221280,
          "time": 104.77262250000001,
          "velocity": 0.7007874015748031
        },
        {
          "duration": 0.227272499999998,
          "durationTicks": 480,
          "midi": 32,
          "name": "G#1",
          "ticks": 221760,
          "time": 104.99989500000001,
          "velocity": 0.7007874015748031
        },
        {
          "duration": 0.227272499999998,
          "durationTicks": 480,
          "midi": 44,
          "name": "G#2",
          "ticks": 222240,
          "time": 105.22716750000001,
          "velocity": 0.7007874015748031
        },
        {
          "duration": 0.227272499999998,
          "durationTicks": 480,
          "midi": 35,
          "name": "B1",
          "ticks": 222720,
          "time": 105.45444,
          "velocity": 0.7007874015748031
        },
        {
          "duration": 0.227272499999998,
          "durationTicks": 480,
          "midi": 47,
          "name": "B2",
          "ticks": 223200,
          "time": 105.6817125,
          "velocity": 0.7007874015748031
        },
        {
          "duration": 0.2272725000000122,
          "durationTicks": 480,
          "midi": 35,
          "name": "B1",
          "ticks": 223680,
          "time": 105.908985,
          "velocity": 0.7007874015748031
        },
        {
          "duration": 0.227272499999998,
          "durationTicks": 480,
          "midi": 46,
          "name": "A#2",
          "ticks": 224160,
          "time": 106.13625750000001,
          "velocity": 0.7007874015748031
        },
        {
          "duration": 0.227272499999998,
          "durationTicks": 480,
          "midi": 35,
          "name": "B1",
          "ticks": 224640,
          "time": 106.36353000000001,
          "velocity": 0.7007874015748031
        },
        {
          "duration": 0.227272499999998,
          "durationTicks": 480,
          "midi": 47,
          "name": "B2",
          "ticks": 225120,
          "time": 106.59080250000001,
          "velocity": 0.7007874015748031
        },
        {
          "duration": 0.227272499999998,
          "durationTicks": 480,
          "midi": 35,
          "name": "B1",
          "ticks": 225600,
          "time": 106.81807500000001,
          "velocity": 0.7007874015748031
        },
        {
          "duration": 0.227272499999998,
          "durationTicks": 480,
          "midi": 47,
          "name": "B2",
          "ticks": 226080,
          "time": 107.0453475,
          "velocity": 0.7007874015748031
        },
        {
          "duration": 0.227272499999998,
          "durationTicks": 480,
          "midi": 30,
          "name": "F#1",
          "ticks": 226560,
          "time": 107.27262,
          "velocity": 0.7007874015748031
        },
        {
          "duration": 0.2272725000000122,
          "durationTicks": 480,
          "midi": 42,
          "name": "F#2",
          "ticks": 227040,
          "time": 107.4998925,
          "velocity": 0.7007874015748031
        },
        {
          "duration": 0.227272499999998,
          "durationTicks": 480,
          "midi": 30,
          "name": "F#1",
          "ticks": 227520,
          "time": 107.72716500000001,
          "velocity": 0.7007874015748031
        },
        {
          "duration": 0.227272499999998,
          "durationTicks": 480,
          "midi": 42,
          "name": "F#2",
          "ticks": 228000,
          "time": 107.95443750000001,
          "velocity": 0.7007874015748031
        },
        {
          "duration": 0.227272499999998,
          "durationTicks": 480,
          "midi": 30,
          "name": "F#1",
          "ticks": 228480,
          "time": 108.18171000000001,
          "velocity": 0.7007874015748031
        },
        {
          "duration": 0.227272499999998,
          "durationTicks": 480,
          "midi": 42,
          "name": "F#2",
          "ticks": 228960,
          "time": 108.40898250000001,
          "velocity": 0.7007874015748031
        },
        {
          "duration": 0.227272499999998,
          "durationTicks": 480,
          "midi": 30,
          "name": "F#1",
          "ticks": 229440,
          "time": 108.636255,
          "velocity": 0.7007874015748031
        },
        {
          "duration": 0.227272499999998,
          "durationTicks": 480,
          "midi": 42,
          "name": "F#2",
          "ticks": 229920,
          "time": 108.8635275,
          "velocity": 0.7007874015748031
        },
        {
          "duration": 0.2272725000000122,
          "durationTicks": 480,
          "midi": 28,
          "name": "E1",
          "ticks": 230400,
          "time": 109.0908,
          "velocity": 0.7007874015748031
        },
        {
          "duration": 0.227272499999998,
          "durationTicks": 480,
          "midi": 40,
          "name": "E2",
          "ticks": 230880,
          "time": 109.31807250000001,
          "velocity": 0.7007874015748031
        },
        {
          "duration": 0.227272499999998,
          "durationTicks": 480,
          "midi": 28,
          "name": "E1",
          "ticks": 231360,
          "time": 109.54534500000001,
          "velocity": 0.7007874015748031
        },
        {
          "duration": 0.227272499999998,
          "durationTicks": 480,
          "midi": 40,
          "name": "E2",
          "ticks": 231840,
          "time": 109.77261750000001,
          "velocity": 0.7007874015748031
        },
        {
          "duration": 0.227272499999998,
          "durationTicks": 480,
          "midi": 32,
          "name": "G#1",
          "ticks": 232320,
          "time": 109.99989000000001,
          "velocity": 0.7007874015748031
        },
        {
          "duration": 0.227272499999998,
          "durationTicks": 480,
          "midi": 40,
          "name": "E2",
          "ticks": 232800,
          "time": 110.2271625,
          "velocity": 0.7007874015748031
        },
        {
          "duration": 0.227272499999998,
          "durationTicks": 480,
          "midi": 32,
          "name": "G#1",
          "ticks": 234240,
          "time": 110.90898000000001,
          "velocity": 0.7007874015748031
        },
        {
          "duration": 0.227272499999998,
          "durationTicks": 480,
          "midi": 44,
          "name": "G#2",
          "ticks": 234720,
          "time": 111.13625250000001,
          "velocity": 0.7007874015748031
        },
        {
          "duration": 0.227272499999998,
          "durationTicks": 480,
          "midi": 32,
          "name": "G#1",
          "ticks": 235200,
          "time": 111.36352500000001,
          "velocity": 0.7007874015748031
        },
        {
          "duration": 0.227272499999998,
          "durationTicks": 480,
          "midi": 44,
          "name": "G#2",
          "ticks": 235680,
          "time": 111.59079750000001,
          "velocity": 0.7007874015748031
        },
        {
          "duration": 0.227272499999998,
          "durationTicks": 480,
          "midi": 32,
          "name": "G#1",
          "ticks": 236160,
          "time": 111.81807,
          "velocity": 0.7007874015748031
        },
        {
          "duration": 0.227272499999998,
          "durationTicks": 480,
          "midi": 44,
          "name": "G#2",
          "ticks": 236640,
          "time": 112.0453425,
          "velocity": 0.7007874015748031
        },
        {
          "duration": 0.2272725000000122,
          "durationTicks": 480,
          "midi": 32,
          "name": "G#1",
          "ticks": 237120,
          "time": 112.272615,
          "velocity": 0.7007874015748031
        },
        {
          "duration": 0.227272499999998,
          "durationTicks": 480,
          "midi": 44,
          "name": "G#2",
          "ticks": 237600,
          "time": 112.49988750000001,
          "velocity": 0.7007874015748031
        },
        {
          "duration": 0.227272499999998,
          "durationTicks": 480,
          "midi": 35,
          "name": "B1",
          "ticks": 238080,
          "time": 112.72716000000001,
          "velocity": 0.7007874015748031
        },
        {
          "duration": 0.227272499999998,
          "durationTicks": 480,
          "midi": 47,
          "name": "B2",
          "ticks": 238560,
          "time": 112.95443250000001,
          "velocity": 0.7007874015748031
        },
        {
          "duration": 0.227272499999998,
          "durationTicks": 480,
          "midi": 35,
          "name": "B1",
          "ticks": 239040,
          "time": 113.18170500000001,
          "velocity": 0.7007874015748031
        },
        {
          "duration": 0.227272499999998,
          "durationTicks": 480,
          "midi": 47,
          "name": "B2",
          "ticks": 239520,
          "time": 113.4089775,
          "velocity": 0.7007874015748031
        },
        {
          "duration": 0.227272499999998,
          "durationTicks": 480,
          "midi": 35,
          "name": "B1",
          "ticks": 240000,
          "time": 113.63625,
          "velocity": 0.7007874015748031
        },
        {
          "duration": 0.2272725000000122,
          "durationTicks": 480,
          "midi": 47,
          "name": "B2",
          "ticks": 240480,
          "time": 113.8635225,
          "velocity": 0.7007874015748031
        },
        {
          "duration": 0.227272499999998,
          "durationTicks": 480,
          "midi": 35,
          "name": "B1",
          "ticks": 240960,
          "time": 114.09079500000001,
          "velocity": 0.7007874015748031
        },
        {
          "duration": 0.227272499999998,
          "durationTicks": 480,
          "midi": 47,
          "name": "B2",
          "ticks": 241440,
          "time": 114.31806750000001,
          "velocity": 0.7007874015748031
        },
        {
          "duration": 0.227272499999998,
          "durationTicks": 480,
          "midi": 30,
          "name": "F#1",
          "ticks": 241920,
          "time": 114.54534000000001,
          "velocity": 0.7007874015748031
        },
        {
          "duration": 0.227272499999998,
          "durationTicks": 480,
          "midi": 42,
          "name": "F#2",
          "ticks": 242400,
          "time": 114.77261250000001,
          "velocity": 0.7007874015748031
        },
        {
          "duration": 0.227272499999998,
          "durationTicks": 480,
          "midi": 30,
          "name": "F#1",
          "ticks": 242880,
          "time": 114.999885,
          "velocity": 0.7007874015748031
        },
        {
          "duration": 0.227272499999998,
          "durationTicks": 480,
          "midi": 42,
          "name": "F#2",
          "ticks": 243360,
          "time": 115.2271575,
          "velocity": 0.7007874015748031
        },
        {
          "duration": 0.2272725000000122,
          "durationTicks": 480,
          "midi": 30,
          "name": "F#1",
          "ticks": 243840,
          "time": 115.45443,
          "velocity": 0.7007874015748031
        },
        {
          "duration": 0.227272499999998,
          "durationTicks": 480,
          "midi": 42,
          "name": "F#2",
          "ticks": 244320,
          "time": 115.68170250000001,
          "velocity": 0.7007874015748031
        },
        {
          "duration": 0.227272499999998,
          "durationTicks": 480,
          "midi": 30,
          "name": "F#1",
          "ticks": 244800,
          "time": 115.90897500000001,
          "velocity": 0.7007874015748031
        },
        {
          "duration": 0.227272499999998,
          "durationTicks": 480,
          "midi": 42,
          "name": "F#2",
          "ticks": 245280,
          "time": 116.13624750000001,
          "velocity": 0.7007874015748031
        },
        {
          "duration": 0.227272499999998,
          "durationTicks": 480,
          "midi": 28,
          "name": "E1",
          "ticks": 245760,
          "time": 116.36352000000001,
          "velocity": 0.7007874015748031
        },
        {
          "duration": 0.227272499999998,
          "durationTicks": 480,
          "midi": 40,
          "name": "E2",
          "ticks": 246240,
          "time": 116.5907925,
          "velocity": 0.7007874015748031
        },
        {
          "duration": 0.227272499999998,
          "durationTicks": 480,
          "midi": 28,
          "name": "E1",
          "ticks": 246720,
          "time": 116.818065,
          "velocity": 0.7007874015748031
        },
        {
          "duration": 0.2272725000000122,
          "durationTicks": 480,
          "midi": 40,
          "name": "E2",
          "ticks": 247200,
          "time": 117.0453375,
          "velocity": 0.7007874015748031
        },
        {
          "duration": 0.227272499999998,
          "durationTicks": 480,
          "midi": 32,
          "name": "G#1",
          "ticks": 249600,
          "time": 118.1817,
          "velocity": 0.7007874015748031
        },
        {
          "duration": 0.227272499999998,
          "durationTicks": 480,
          "midi": 44,
          "name": "G#2",
          "ticks": 250080,
          "time": 118.4089725,
          "velocity": 0.7007874015748031
        },
        {
          "duration": 0.2272725000000122,
          "durationTicks": 480,
          "midi": 32,
          "name": "G#1",
          "ticks": 250560,
          "time": 118.636245,
          "velocity": 0.7007874015748031
        },
        {
          "duration": 0.227272499999998,
          "durationTicks": 480,
          "midi": 44,
          "name": "G#2",
          "ticks": 251040,
          "time": 118.86351750000001,
          "velocity": 0.7007874015748031
        },
        {
          "duration": 0.227272499999998,
          "durationTicks": 480,
          "midi": 32,
          "name": "G#1",
          "ticks": 251520,
          "time": 119.09079000000001,
          "velocity": 0.7007874015748031
        },
        {
          "duration": 0.227272499999998,
          "durationTicks": 480,
          "midi": 44,
          "name": "G#2",
          "ticks": 252000,
          "time": 119.31806250000001,
          "velocity": 0.7007874015748031
        },
        {
          "duration": 0.227272499999998,
          "durationTicks": 480,
          "midi": 35,
          "name": "B1",
          "ticks": 253440,
          "time": 119.99988,
          "velocity": 0.7007874015748031
        },
        {
          "duration": 0.2272725000000122,
          "durationTicks": 480,
          "midi": 47,
          "name": "B2",
          "ticks": 253920,
          "time": 120.2271525,
          "velocity": 0.7007874015748031
        },
        {
          "duration": 0.227272499999998,
          "durationTicks": 480,
          "midi": 35,
          "name": "B1",
          "ticks": 254400,
          "time": 120.45442500000001,
          "velocity": 0.7007874015748031
        },
        {
          "duration": 0.227272499999998,
          "durationTicks": 480,
          "midi": 46,
          "name": "A#2",
          "ticks": 254880,
          "time": 120.68169750000001,
          "velocity": 0.7007874015748031
        },
        {
          "duration": 0.227272499999998,
          "durationTicks": 480,
          "midi": 35,
          "name": "B1",
          "ticks": 255360,
          "time": 120.90897000000001,
          "velocity": 0.7007874015748031
        },
        {
          "duration": 0.227272499999998,
          "durationTicks": 480,
          "midi": 47,
          "name": "B2",
          "ticks": 255840,
          "time": 121.13624250000001,
          "velocity": 0.7007874015748031
        },
        {
          "duration": 0.2272725000000122,
          "durationTicks": 480,
          "midi": 30,
          "name": "F#1",
          "ticks": 257280,
          "time": 121.81806,
          "velocity": 0.7007874015748031
        },
        {
          "duration": 0.227272499999998,
          "durationTicks": 480,
          "midi": 42,
          "name": "F#2",
          "ticks": 257760,
          "time": 122.04533250000001,
          "velocity": 0.7007874015748031
        },
        {
          "duration": 0.227272499999998,
          "durationTicks": 480,
          "midi": 30,
          "name": "F#1",
          "ticks": 258240,
          "time": 122.27260500000001,
          "velocity": 0.7007874015748031
        },
        {
          "duration": 0.227272499999998,
          "durationTicks": 480,
          "midi": 42,
          "name": "F#2",
          "ticks": 258720,
          "time": 122.49987750000001,
          "velocity": 0.7007874015748031
        },
        {
          "duration": 0.227272499999998,
          "durationTicks": 480,
          "midi": 30,
          "name": "F#1",
          "ticks": 259200,
          "time": 122.72715000000001,
          "velocity": 0.7007874015748031
        },
        {
          "duration": 0.227272499999998,
          "durationTicks": 480,
          "midi": 42,
          "name": "F#2",
          "ticks": 259680,
          "time": 122.9544225,
          "velocity": 0.7007874015748031
        },
        {
          "duration": 0.227272499999998,
          "durationTicks": 480,
          "midi": 30,
          "name": "F#1",
          "ticks": 260160,
          "time": 123.181695,
          "velocity": 0.7007874015748031
        },
        {
          "duration": 0.2272725000000122,
          "durationTicks": 480,
          "midi": 42,
          "name": "F#2",
          "ticks": 260640,
          "time": 123.4089675,
          "velocity": 0.7007874015748031
        },
        {
          "duration": 0.227272499999998,
          "durationTicks": 480,
          "midi": 28,
          "name": "E1",
          "ticks": 261120,
          "time": 123.63624000000002,
          "velocity": 0.7007874015748031
        },
        {
          "duration": 0.227272499999998,
          "durationTicks": 480,
          "midi": 28,
          "name": "E1",
          "ticks": 262080,
          "time": 124.09078500000001,
          "velocity": 0.7007874015748031
        },
        {
          "duration": 0.227272499999998,
          "durationTicks": 480,
          "midi": 28,
          "name": "E1",
          "ticks": 263040,
          "time": 124.54533,
          "velocity": 0.7007874015748031
        },
        {
          "duration": 0.2272725000000122,
          "durationTicks": 480,
          "midi": 42,
          "name": "F#2",
          "ticks": 264000,
          "time": 124.999875,
          "velocity": 0.7007874015748031
        },
        {
          "duration": 0.2272725000000122,
          "durationTicks": 480,
          "midi": 30,
          "name": "F#1",
          "ticks": 264000,
          "time": 124.999875,
          "velocity": 0.7007874015748031
        },
        {
          "duration": 0.227272499999998,
          "durationTicks": 480,
          "midi": 43,
          "name": "G2",
          "ticks": 264480,
          "time": 125.22714750000002,
          "velocity": 0.7007874015748031
        },
        {
          "duration": 0.227272499999998,
          "durationTicks": 480,
          "midi": 31,
          "name": "G1",
          "ticks": 264480,
          "time": 125.22714750000002,
          "velocity": 0.7007874015748031
        },
        {
          "duration": 0.227272499999998,
          "durationTicks": 480,
          "midi": 32,
          "name": "G#1",
          "ticks": 264960,
          "time": 125.45442000000001,
          "velocity": 0.7007874015748031
        },
        {
          "duration": 0.227272499999998,
          "durationTicks": 480,
          "midi": 44,
          "name": "G#2",
          "ticks": 265440,
          "time": 125.68169250000001,
          "velocity": 0.7007874015748031
        },
        {
          "duration": 0.227272499999998,
          "durationTicks": 480,
          "midi": 32,
          "name": "G#1",
          "ticks": 265920,
          "time": 125.90896500000001,
          "velocity": 0.7007874015748031
        },
        {
          "duration": 0.227272499999998,
          "durationTicks": 480,
          "midi": 44,
          "name": "G#2",
          "ticks": 266400,
          "time": 126.13623750000001,
          "velocity": 0.7007874015748031
        },
        {
          "duration": 0.227272499999998,
          "durationTicks": 480,
          "midi": 32,
          "name": "G#1",
          "ticks": 266880,
          "time": 126.36351,
          "velocity": 0.7007874015748031
        },
        {
          "duration": 0.2272725000000122,
          "durationTicks": 480,
          "midi": 44,
          "name": "G#2",
          "ticks": 267360,
          "time": 126.5907825,
          "velocity": 0.7007874015748031
        },
        {
          "duration": 0.227272499999998,
          "durationTicks": 480,
          "midi": 32,
          "name": "G#1",
          "ticks": 267840,
          "time": 126.81805500000002,
          "velocity": 0.7007874015748031
        },
        {
          "duration": 0.227272499999998,
          "durationTicks": 480,
          "midi": 44,
          "name": "G#2",
          "ticks": 268320,
          "time": 127.04532750000001,
          "velocity": 0.7007874015748031
        },
        {
          "duration": 0.227272499999998,
          "durationTicks": 480,
          "midi": 35,
          "name": "B1",
          "ticks": 268800,
          "time": 127.27260000000001,
          "velocity": 0.7007874015748031
        },
        {
          "duration": 0.227272499999998,
          "durationTicks": 480,
          "midi": 47,
          "name": "B2",
          "ticks": 269280,
          "time": 127.49987250000001,
          "velocity": 0.7007874015748031
        },
        {
          "duration": 0.227272499999998,
          "durationTicks": 480,
          "midi": 35,
          "name": "B1",
          "ticks": 269760,
          "time": 127.72714500000001,
          "velocity": 0.7007874015748031
        },
        {
          "duration": 0.227272499999998,
          "durationTicks": 480,
          "midi": 47,
          "name": "B2",
          "ticks": 270240,
          "time": 127.9544175,
          "velocity": 0.7007874015748031
        },
        {
          "duration": 0.227272499999998,
          "durationTicks": 480,
          "midi": 35,
          "name": "B1",
          "ticks": 270720,
          "time": 128.18169,
          "velocity": 0.7007874015748031
        },
        {
          "duration": 0.227272499999998,
          "durationTicks": 480,
          "midi": 47,
          "name": "B2",
          "ticks": 271200,
          "time": 128.4089625,
          "velocity": 0.7007874015748031
        },
        {
          "duration": 0.227272499999998,
          "durationTicks": 480,
          "midi": 35,
          "name": "B1",
          "ticks": 271680,
          "time": 128.636235,
          "velocity": 0.7007874015748031
        },
        {
          "duration": 0.227272499999998,
          "durationTicks": 480,
          "midi": 47,
          "name": "B2",
          "ticks": 272160,
          "time": 128.8635075,
          "velocity": 0.7007874015748031
        },
        {
          "duration": 0.2272725000000264,
          "durationTicks": 480,
          "midi": 30,
          "name": "F#1",
          "ticks": 272640,
          "time": 129.09078,
          "velocity": 0.7007874015748031
        },
        {
          "duration": 0.227272499999998,
          "durationTicks": 480,
          "midi": 42,
          "name": "F#2",
          "ticks": 273120,
          "time": 129.31805250000002,
          "velocity": 0.7007874015748031
        },
        {
          "duration": 0.227272499999998,
          "durationTicks": 480,
          "midi": 30,
          "name": "F#1",
          "ticks": 273600,
          "time": 129.54532500000002,
          "velocity": 0.7007874015748031
        },
        {
          "duration": 0.227272499999998,
          "durationTicks": 480,
          "midi": 42,
          "name": "F#2",
          "ticks": 274080,
          "time": 129.77259750000002,
          "velocity": 0.7007874015748031
        },
        {
          "duration": 0.227272499999998,
          "durationTicks": 480,
          "midi": 30,
          "name": "F#1",
          "ticks": 274560,
          "time": 129.99987000000002,
          "velocity": 0.7007874015748031
        },
        {
          "duration": 0.227272499999998,
          "durationTicks": 480,
          "midi": 42,
          "name": "F#2",
          "ticks": 275040,
          "time": 130.2271425,
          "velocity": 0.7007874015748031
        },
        {
          "duration": 0.227272499999998,
          "durationTicks": 480,
          "midi": 30,
          "name": "F#1",
          "ticks": 275520,
          "time": 130.454415,
          "velocity": 0.7007874015748031
        },
        {
          "duration": 0.227272499999998,
          "durationTicks": 480,
          "midi": 42,
          "name": "F#2",
          "ticks": 276000,
          "time": 130.6816875,
          "velocity": 0.7007874015748031
        },
        {
          "duration": 0.227272499999998,
          "durationTicks": 480,
          "midi": 28,
          "name": "E1",
          "ticks": 276480,
          "time": 130.90896,
          "velocity": 0.7007874015748031
        },
        {
          "duration": 0.227272499999998,
          "durationTicks": 480,
          "midi": 40,
          "name": "E2",
          "ticks": 276960,
          "time": 131.1362325,
          "velocity": 0.7007874015748031
        },
        {
          "duration": 0.227272499999998,
          "durationTicks": 480,
          "midi": 28,
          "name": "E1",
          "ticks": 277440,
          "time": 131.363505,
          "velocity": 0.7007874015748031
        },
        {
          "duration": 0.227272499999998,
          "durationTicks": 480,
          "midi": 40,
          "name": "E2",
          "ticks": 277920,
          "time": 131.5907775,
          "velocity": 0.7007874015748031
        },
        {
          "duration": 0.227272499999998,
          "durationTicks": 480,
          "midi": 28,
          "name": "E1",
          "ticks": 278400,
          "time": 131.81805,
          "velocity": 0.7007874015748031
        },
        {
          "duration": 0.227272499999998,
          "durationTicks": 480,
          "midi": 40,
          "name": "E2",
          "ticks": 278880,
          "time": 132.0453225,
          "velocity": 0.7007874015748031
        },
        {
          "duration": 0.2272725000000264,
          "durationTicks": 480,
          "midi": 42,
          "name": "F#2",
          "ticks": 279360,
          "time": 132.272595,
          "velocity": 0.7007874015748031
        },
        {
          "duration": 0.2272725000000264,
          "durationTicks": 480,
          "midi": 30,
          "name": "F#1",
          "ticks": 279360,
          "time": 132.272595,
          "velocity": 0.7007874015748031
        },
        {
          "duration": 0.227272499999998,
          "durationTicks": 480,
          "midi": 43,
          "name": "G2",
          "ticks": 279840,
          "time": 132.49986750000002,
          "velocity": 0.7007874015748031
        },
        {
          "duration": 0.227272499999998,
          "durationTicks": 480,
          "midi": 31,
          "name": "G1",
          "ticks": 279840,
          "time": 132.49986750000002,
          "velocity": 0.7007874015748031
        },
        {
          "duration": 0.227272499999998,
          "durationTicks": 480,
          "midi": 30,
          "name": "F#1",
          "ticks": 280320,
          "time": 132.72714000000002,
          "velocity": 0.7007874015748031
        },
        {
          "duration": 0.227272499999998,
          "durationTicks": 480,
          "midi": 42,
          "name": "F#2",
          "ticks": 280800,
          "time": 132.95441250000002,
          "velocity": 0.7007874015748031
        },
        {
          "duration": 0.227272499999998,
          "durationTicks": 480,
          "midi": 30,
          "name": "F#1",
          "ticks": 281280,
          "time": 133.18168500000002,
          "velocity": 0.7007874015748031
        },
        {
          "duration": 0.227272499999998,
          "durationTicks": 480,
          "midi": 42,
          "name": "F#2",
          "ticks": 281760,
          "time": 133.4089575,
          "velocity": 0.7007874015748031
        },
        {
          "duration": 0.227272499999998,
          "durationTicks": 480,
          "midi": 30,
          "name": "F#1",
          "ticks": 282240,
          "time": 133.63623,
          "velocity": 0.7007874015748031
        },
        {
          "duration": 0.227272499999998,
          "durationTicks": 480,
          "midi": 42,
          "name": "F#2",
          "ticks": 282720,
          "time": 133.8635025,
          "velocity": 0.7007874015748031
        },
        {
          "duration": 0.227272499999998,
          "durationTicks": 480,
          "midi": 30,
          "name": "F#1",
          "ticks": 283200,
          "time": 134.090775,
          "velocity": 0.7007874015748031
        },
        {
          "duration": 0.227272499999998,
          "durationTicks": 480,
          "midi": 42,
          "name": "F#2",
          "ticks": 283680,
          "time": 134.3180475,
          "velocity": 0.7007874015748031
        },
        {
          "duration": 0.227272499999998,
          "durationTicks": 480,
          "midi": 35,
          "name": "B1",
          "ticks": 284160,
          "time": 134.54532,
          "velocity": 0.7007874015748031
        },
        {
          "duration": 0.227272499999998,
          "durationTicks": 480,
          "midi": 47,
          "name": "B2",
          "ticks": 284640,
          "time": 134.7725925,
          "velocity": 0.7007874015748031
        },
        {
          "duration": 0.227272499999998,
          "durationTicks": 480,
          "midi": 35,
          "name": "B1",
          "ticks": 285120,
          "time": 134.999865,
          "velocity": 0.7007874015748031
        },
        {
          "duration": 0.227272499999998,
          "durationTicks": 480,
          "midi": 47,
          "name": "B2",
          "ticks": 285600,
          "time": 135.2271375,
          "velocity": 0.7007874015748031
        },
        {
          "duration": 0.2272725000000264,
          "durationTicks": 480,
          "midi": 35,
          "name": "B1",
          "ticks": 286080,
          "time": 135.45441,
          "velocity": 0.7007874015748031
        },
        {
          "duration": 0.227272499999998,
          "durationTicks": 480,
          "midi": 47,
          "name": "B2",
          "ticks": 286560,
          "time": 135.68168250000002,
          "velocity": 0.7007874015748031
        },
        {
          "duration": 0.227272499999998,
          "durationTicks": 480,
          "midi": 35,
          "name": "B1",
          "ticks": 287040,
          "time": 135.90895500000002,
          "velocity": 0.7007874015748031
        },
        {
          "duration": 0.227272499999998,
          "durationTicks": 480,
          "midi": 47,
          "name": "B2",
          "ticks": 287520,
          "time": 136.13622750000002,
          "velocity": 0.7007874015748031
        },
        {
          "duration": 0.227272499999998,
          "durationTicks": 480,
          "midi": 30,
          "name": "F#1",
          "ticks": 288000,
          "time": 136.36350000000002,
          "velocity": 0.7007874015748031
        },
        {
          "duration": 0.227272499999998,
          "durationTicks": 480,
          "midi": 42,
          "name": "F#2",
          "ticks": 288480,
          "time": 136.5907725,
          "velocity": 0.7007874015748031
        },
        {
          "duration": 0.227272499999998,
          "durationTicks": 480,
          "midi": 30,
          "name": "F#1",
          "ticks": 288960,
          "time": 136.818045,
          "velocity": 0.7007874015748031
        },
        {
          "duration": 0.227272499999998,
          "durationTicks": 480,
          "midi": 42,
          "name": "F#2",
          "ticks": 289440,
          "time": 137.0453175,
          "velocity": 0.7007874015748031
        },
        {
          "duration": 0.227272499999998,
          "durationTicks": 480,
          "midi": 30,
          "name": "F#1",
          "ticks": 289920,
          "time": 137.27259,
          "velocity": 0.7007874015748031
        },
        {
          "duration": 0.227272499999998,
          "durationTicks": 480,
          "midi": 42,
          "name": "F#2",
          "ticks": 290400,
          "time": 137.4998625,
          "velocity": 0.7007874015748031
        },
        {
          "duration": 0.227272499999998,
          "durationTicks": 480,
          "midi": 30,
          "name": "F#1",
          "ticks": 290880,
          "time": 137.727135,
          "velocity": 0.7007874015748031
        },
        {
          "duration": 0.227272499999998,
          "durationTicks": 480,
          "midi": 42,
          "name": "F#2",
          "ticks": 291360,
          "time": 137.9544075,
          "velocity": 0.7007874015748031
        },
        {
          "duration": 0.227272499999998,
          "durationTicks": 480,
          "midi": 28,
          "name": "E1",
          "ticks": 291840,
          "time": 138.18168,
          "velocity": 0.7007874015748031
        },
        {
          "duration": 0.227272499999998,
          "durationTicks": 480,
          "midi": 40,
          "name": "E2",
          "ticks": 292320,
          "time": 138.4089525,
          "velocity": 0.7007874015748031
        },
        {
          "duration": 0.2272725000000264,
          "durationTicks": 480,
          "midi": 28,
          "name": "E1",
          "ticks": 292800,
          "time": 138.636225,
          "velocity": 0.7007874015748031
        },
        {
          "duration": 0.227272499999998,
          "durationTicks": 480,
          "midi": 40,
          "name": "E2",
          "ticks": 293280,
          "time": 138.86349750000002,
          "velocity": 0.7007874015748031
        },
        {
          "duration": 0.227272499999998,
          "durationTicks": 480,
          "midi": 28,
          "name": "E1",
          "ticks": 293760,
          "time": 139.09077000000002,
          "velocity": 0.7007874015748031
        },
        {
          "duration": 0.227272499999998,
          "durationTicks": 480,
          "midi": 40,
          "name": "E2",
          "ticks": 294240,
          "time": 139.31804250000002,
          "velocity": 0.7007874015748031
        },
        {
          "duration": 0.227272499999998,
          "durationTicks": 480,
          "midi": 42,
          "name": "F#2",
          "ticks": 294720,
          "time": 139.54531500000002,
          "velocity": 0.7007874015748031
        },
        {
          "duration": 0.227272499999998,
          "durationTicks": 480,
          "midi": 30,
          "name": "F#1",
          "ticks": 294720,
          "time": 139.54531500000002,
          "velocity": 0.7007874015748031
        },
        {
          "duration": 0.227272499999998,
          "durationTicks": 480,
          "midi": 43,
          "name": "G2",
          "ticks": 295200,
          "time": 139.77258750000001,
          "velocity": 0.7007874015748031
        },
        {
          "duration": 0.227272499999998,
          "durationTicks": 480,
          "midi": 31,
          "name": "G1",
          "ticks": 295200,
          "time": 139.77258750000001,
          "velocity": 0.7007874015748031
        },
        {
          "duration": 0.227272499999998,
          "durationTicks": 480,
          "midi": 51,
          "name": "D#3",
          "ticks": 295680,
          "time": 139.99986,
          "velocity": 0.7007874015748031
        },
        {
          "duration": 0.227272499999998,
          "durationTicks": 480,
          "midi": 44,
          "name": "G#2",
          "ticks": 295680,
          "time": 139.99986,
          "velocity": 0.7007874015748031
        },
        {
          "duration": 0.227272499999998,
          "durationTicks": 480,
          "midi": 51,
          "name": "D#3",
          "ticks": 297120,
          "time": 140.6816775,
          "velocity": 0.7007874015748031
        },
        {
          "duration": 0.227272499999998,
          "durationTicks": 480,
          "midi": 44,
          "name": "G#2",
          "ticks": 297120,
          "time": 140.6816775,
          "velocity": 0.7007874015748031
        },
        {
          "duration": 0.2272725000000264,
          "durationTicks": 480,
          "midi": 47,
          "name": "B2",
          "ticks": 299520,
          "time": 141.81804,
          "velocity": 0.7007874015748031
        },
        {
          "duration": 0.2272725000000264,
          "durationTicks": 480,
          "midi": 35,
          "name": "B1",
          "ticks": 299520,
          "time": 141.81804,
          "velocity": 0.7007874015748031
        },
        {
          "duration": 0.227272499999998,
          "durationTicks": 480,
          "midi": 47,
          "name": "B2",
          "ticks": 300960,
          "time": 142.49985750000002,
          "velocity": 0.7007874015748031
        },
        {
          "duration": 0.227272499999998,
          "durationTicks": 480,
          "midi": 35,
          "name": "B1",
          "ticks": 300960,
          "time": 142.49985750000002,
          "velocity": 0.7007874015748031
        },
        {
          "duration": 0.227272499999998,
          "durationTicks": 480,
          "midi": 42,
          "name": "F#2",
          "ticks": 303360,
          "time": 143.63622,
          "velocity": 0.7007874015748031
        },
        {
          "duration": 0.227272499999998,
          "durationTicks": 480,
          "midi": 49,
          "name": "C#3",
          "ticks": 303360,
          "time": 143.63622,
          "velocity": 0.7007874015748031
        },
        {
          "duration": 0.227272499999998,
          "durationTicks": 480,
          "midi": 42,
          "name": "F#2",
          "ticks": 304800,
          "time": 144.3180375,
          "velocity": 0.7007874015748031
        },
        {
          "duration": 0.227272499999998,
          "durationTicks": 480,
          "midi": 49,
          "name": "C#3",
          "ticks": 304800,
          "time": 144.3180375,
          "velocity": 0.7007874015748031
        },
        {
          "duration": 0.227272499999998,
          "durationTicks": 480,
          "midi": 40,
          "name": "E2",
          "ticks": 307200,
          "time": 145.45440000000002,
          "velocity": 0.7007874015748031
        },
        {
          "duration": 0.227272499999998,
          "durationTicks": 480,
          "midi": 47,
          "name": "B2",
          "ticks": 307200,
          "time": 145.45440000000002,
          "velocity": 0.7007874015748031
        },
        {
          "duration": 0.227272499999998,
          "durationTicks": 480,
          "midi": 40,
          "name": "E2",
          "ticks": 308640,
          "time": 146.13621750000001,
          "velocity": 0.7007874015748031
        },
        {
          "duration": 0.227272499999998,
          "durationTicks": 480,
          "midi": 47,
          "name": "B2",
          "ticks": 308640,
          "time": 146.13621750000001,
          "velocity": 0.7007874015748031
        },
        {
          "duration": 0.454544999999996,
          "durationTicks": 960,
          "midi": 49,
          "name": "C#3",
          "ticks": 309600,
          "time": 146.5907625,
          "velocity": 0.7007874015748031
        },
        {
          "duration": 0.454544999999996,
          "durationTicks": 960,
          "midi": 42,
          "name": "F#2",
          "ticks": 309600,
          "time": 146.5907625,
          "velocity": 0.7007874015748031
        },
        {
          "duration": 0.227272499999998,
          "durationTicks": 480,
          "midi": 50,
          "name": "D3",
          "ticks": 310560,
          "time": 147.0453075,
          "velocity": 0.7007874015748031
        },
        {
          "duration": 0.227272499999998,
          "durationTicks": 480,
          "midi": 43,
          "name": "G2",
          "ticks": 310560,
          "time": 147.0453075,
          "velocity": 0.7007874015748031
        },
        {
          "duration": 0.227272499999998,
          "durationTicks": 480,
          "midi": 51,
          "name": "D#3",
          "ticks": 311040,
          "time": 147.27258,
          "velocity": 0.7007874015748031
        },
        {
          "duration": 0.227272499999998,
          "durationTicks": 480,
          "midi": 44,
          "name": "G#2",
          "ticks": 311040,
          "time": 147.27258,
          "velocity": 0.7007874015748031
        },
        {
          "duration": 0.227272499999998,
          "durationTicks": 480,
          "midi": 51,
          "name": "D#3",
          "ticks": 312480,
          "time": 147.9543975,
          "velocity": 0.7007874015748031
        },
        {
          "duration": 0.227272499999998,
          "durationTicks": 480,
          "midi": 44,
          "name": "G#2",
          "ticks": 312480,
          "time": 147.9543975,
          "velocity": 0.7007874015748031
        },
        {
          "duration": 0.227272499999998,
          "durationTicks": 480,
          "midi": 47,
          "name": "B2",
          "ticks": 314880,
          "time": 149.09076000000002,
          "velocity": 0.7007874015748031
        },
        {
          "duration": 0.227272499999998,
          "durationTicks": 480,
          "midi": 35,
          "name": "B1",
          "ticks": 314880,
          "time": 149.09076000000002,
          "velocity": 0.7007874015748031
        },
        {
          "duration": 0.227272499999998,
          "durationTicks": 480,
          "midi": 47,
          "name": "B2",
          "ticks": 316320,
          "time": 149.7725775,
          "velocity": 0.7007874015748031
        },
        {
          "duration": 0.227272499999998,
          "durationTicks": 480,
          "midi": 37,
          "name": "C#2",
          "ticks": 316320,
          "time": 149.7725775,
          "velocity": 0.7007874015748031
        },
        {
          "duration": 0.227272499999998,
          "durationTicks": 480,
          "midi": 42,
          "name": "F#2",
          "ticks": 318720,
          "time": 150.90894,
          "velocity": 0.7007874015748031
        },
        {
          "duration": 0.227272499999998,
          "durationTicks": 480,
          "midi": 49,
          "name": "C#3",
          "ticks": 318720,
          "time": 150.90894,
          "velocity": 0.7007874015748031
        },
        {
          "duration": 0.227272499999998,
          "durationTicks": 480,
          "midi": 42,
          "name": "F#2",
          "ticks": 320160,
          "time": 151.59075750000002,
          "velocity": 0.7007874015748031
        },
        {
          "duration": 0.227272499999998,
          "durationTicks": 480,
          "midi": 49,
          "name": "C#3",
          "ticks": 320160,
          "time": 151.59075750000002,
          "velocity": 0.7007874015748031
        },
        {
          "duration": 0.227272499999998,
          "durationTicks": 480,
          "midi": 47,
          "name": "B2",
          "ticks": 322560,
          "time": 152.72712,
          "velocity": 0.7007874015748031
        },
        {
          "duration": 0.227272499999998,
          "durationTicks": 480,
          "midi": 40,
          "name": "E2",
          "ticks": 322560,
          "time": 152.72712,
          "velocity": 0.7007874015748031
        },
        {
          "duration": 0.227272499999998,
          "durationTicks": 480,
          "midi": 47,
          "name": "B2",
          "ticks": 324000,
          "time": 153.4089375,
          "velocity": 0.7007874015748031
        },
        {
          "duration": 0.227272499999998,
          "durationTicks": 480,
          "midi": 40,
          "name": "E2",
          "ticks": 324000,
          "time": 153.4089375,
          "velocity": 0.7007874015748031
        },
        {
          "duration": 0.454544999999996,
          "durationTicks": 960,
          "midi": 42,
          "name": "F#2",
          "ticks": 324960,
          "time": 153.8634825,
          "velocity": 0.7007874015748031
        },
        {
          "duration": 0.454544999999996,
          "durationTicks": 960,
          "midi": 49,
          "name": "C#3",
          "ticks": 324960,
          "time": 153.8634825,
          "velocity": 0.7007874015748031
        },
        {
          "duration": 0.227272499999998,
          "durationTicks": 480,
          "midi": 50,
          "name": "D3",
          "ticks": 325920,
          "time": 154.3180275,
          "velocity": 0.7007874015748031
        },
        {
          "duration": 0.227272499999998,
          "durationTicks": 480,
          "midi": 43,
          "name": "G2",
          "ticks": 325920,
          "time": 154.3180275,
          "velocity": 0.7007874015748031
        },
        {
          "duration": 0.2272725000000264,
          "durationTicks": 480,
          "midi": 51,
          "name": "D#3",
          "ticks": 326400,
          "time": 154.5453,
          "velocity": 0.7007874015748031
        },
        {
          "duration": 0.2272725000000264,
          "durationTicks": 480,
          "midi": 44,
          "name": "G#2",
          "ticks": 326400,
          "time": 154.5453,
          "velocity": 0.7007874015748031
        },
        {
          "duration": 0.227272499999998,
          "durationTicks": 480,
          "midi": 51,
          "name": "D#3",
          "ticks": 327840,
          "time": 155.22711750000002,
          "velocity": 0.7007874015748031
        },
        {
          "duration": 0.227272499999998,
          "durationTicks": 480,
          "midi": 44,
          "name": "G#2",
          "ticks": 327840,
          "time": 155.22711750000002,
          "velocity": 0.7007874015748031
        },
        {
          "duration": 0.227272499999998,
          "durationTicks": 480,
          "midi": 47,
          "name": "B2",
          "ticks": 330240,
          "time": 156.36348,
          "velocity": 0.7007874015748031
        },
        {
          "duration": 0.227272499999998,
          "durationTicks": 480,
          "midi": 35,
          "name": "B1",
          "ticks": 330240,
          "time": 156.36348,
          "velocity": 0.7007874015748031
        },
        {
          "duration": 0.227272499999998,
          "durationTicks": 480,
          "midi": 47,
          "name": "B2",
          "ticks": 331680,
          "time": 157.0452975,
          "velocity": 0.7007874015748031
        },
        {
          "duration": 0.227272499999998,
          "durationTicks": 480,
          "midi": 35,
          "name": "B1",
          "ticks": 331680,
          "time": 157.0452975,
          "velocity": 0.7007874015748031
        },
        {
          "duration": 0.227272499999998,
          "durationTicks": 480,
          "midi": 42,
          "name": "F#2",
          "ticks": 334080,
          "time": 158.18166000000002,
          "velocity": 0.7007874015748031
        },
        {
          "duration": 0.227272499999998,
          "durationTicks": 480,
          "midi": 49,
          "name": "C#3",
          "ticks": 334080,
          "time": 158.18166000000002,
          "velocity": 0.7007874015748031
        },
        {
          "duration": 0.227272499999998,
          "durationTicks": 480,
          "midi": 42,
          "name": "F#2",
          "ticks": 335520,
          "time": 158.86347750000002,
          "velocity": 0.7007874015748031
        },
        {
          "duration": 0.227272499999998,
          "durationTicks": 480,
          "midi": 49,
          "name": "C#3",
          "ticks": 335520,
          "time": 158.86347750000002,
          "velocity": 0.7007874015748031
        },
        {
          "duration": 0.227272499999998,
          "durationTicks": 480,
          "midi": 40,
          "name": "E2",
          "ticks": 337920,
          "time": 159.99984,
          "velocity": 0.7007874015748031
        },
        {
          "duration": 0.227272499999998,
          "durationTicks": 480,
          "midi": 47,
          "name": "B2",
          "ticks": 337920,
          "time": 159.99984,
          "velocity": 0.7007874015748031
        },
        {
          "duration": 0.227272499999998,
          "durationTicks": 480,
          "midi": 40,
          "name": "E2",
          "ticks": 339360,
          "time": 160.6816575,
          "velocity": 0.7007874015748031
        },
        {
          "duration": 0.227272499999998,
          "durationTicks": 480,
          "midi": 47,
          "name": "B2",
          "ticks": 339360,
          "time": 160.6816575,
          "velocity": 0.7007874015748031
        },
        {
          "duration": 0.454544999999996,
          "durationTicks": 960,
          "midi": 49,
          "name": "C#3",
          "ticks": 340320,
          "time": 161.13620250000002,
          "velocity": 0.7007874015748031
        },
        {
          "duration": 0.454544999999996,
          "durationTicks": 960,
          "midi": 42,
          "name": "F#2",
          "ticks": 340320,
          "time": 161.13620250000002,
          "velocity": 0.7007874015748031
        },
        {
          "duration": 0.227272499999998,
          "durationTicks": 480,
          "midi": 50,
          "name": "D3",
          "ticks": 341280,
          "time": 161.59074750000002,
          "velocity": 0.7007874015748031
        },
        {
          "duration": 0.227272499999998,
          "durationTicks": 480,
          "midi": 43,
          "name": "G2",
          "ticks": 341280,
          "time": 161.59074750000002,
          "velocity": 0.7007874015748031
        },
        {
          "duration": 0.227272499999998,
          "durationTicks": 480,
          "midi": 51,
          "name": "D#3",
          "ticks": 341760,
          "time": 161.81802000000002,
          "velocity": 0.7007874015748031
        },
        {
          "duration": 0.227272499999998,
          "durationTicks": 480,
          "midi": 44,
          "name": "G#2",
          "ticks": 341760,
          "time": 161.81802000000002,
          "velocity": 0.7007874015748031
        },
        {
          "duration": 0.227272499999998,
          "durationTicks": 480,
          "midi": 51,
          "name": "D#3",
          "ticks": 343200,
          "time": 162.4998375,
          "velocity": 0.7007874015748031
        },
        {
          "duration": 0.227272499999998,
          "durationTicks": 480,
          "midi": 44,
          "name": "G#2",
          "ticks": 343200,
          "time": 162.4998375,
          "velocity": 0.7007874015748031
        },
        {
          "duration": 0.227272499999998,
          "durationTicks": 480,
          "midi": 47,
          "name": "B2",
          "ticks": 345600,
          "time": 163.6362,
          "velocity": 0.7007874015748031
        },
        {
          "duration": 0.227272499999998,
          "durationTicks": 480,
          "midi": 35,
          "name": "B1",
          "ticks": 345600,
          "time": 163.6362,
          "velocity": 0.7007874015748031
        },
        {
          "duration": 0.227272499999998,
          "durationTicks": 480,
          "midi": 47,
          "name": "B2",
          "ticks": 347040,
          "time": 164.31801750000002,
          "velocity": 0.7007874015748031
        },
        {
          "duration": 0.227272499999998,
          "durationTicks": 480,
          "midi": 37,
          "name": "C#2",
          "ticks": 347040,
          "time": 164.31801750000002,
          "velocity": 0.7007874015748031
        },
        {
          "duration": 0.227272499999998,
          "durationTicks": 480,
          "midi": 42,
          "name": "F#2",
          "ticks": 349440,
          "time": 165.45438000000001,
          "velocity": 0.7007874015748031
        },
        {
          "duration": 0.227272499999998,
          "durationTicks": 480,
          "midi": 49,
          "name": "C#3",
          "ticks": 349440,
          "time": 165.45438000000001,
          "velocity": 0.7007874015748031
        },
        {
          "duration": 0.227272499999998,
          "durationTicks": 480,
          "midi": 42,
          "name": "F#2",
          "ticks": 350880,
          "time": 166.1361975,
          "velocity": 0.7007874015748031
        },
        {
          "duration": 0.227272499999998,
          "durationTicks": 480,
          "midi": 49,
          "name": "C#3",
          "ticks": 350880,
          "time": 166.1361975,
          "velocity": 0.7007874015748031
        },
        {
          "duration": 0.2272725000000264,
          "durationTicks": 480,
          "midi": 40,
          "name": "E2",
          "ticks": 353280,
          "time": 167.27256,
          "velocity": 0.7007874015748031
        },
        {
          "duration": 0.2272725000000264,
          "durationTicks": 480,
          "midi": 47,
          "name": "B2",
          "ticks": 353280,
          "time": 167.27256,
          "velocity": 0.7007874015748031
        },
        {
          "duration": 0.227272499999998,
          "durationTicks": 480,
          "midi": 40,
          "name": "E2",
          "ticks": 354720,
          "time": 167.95437750000002,
          "velocity": 0.7007874015748031
        },
        {
          "duration": 0.227272499999998,
          "durationTicks": 480,
          "midi": 47,
          "name": "B2",
          "ticks": 354720,
          "time": 167.95437750000002,
          "velocity": 0.7007874015748031
        },
        {
          "duration": 0.454544999999996,
          "durationTicks": 960,
          "midi": 54,
          "name": "F#3",
          "ticks": 355680,
          "time": 168.40892250000002,
          "velocity": 0.7007874015748031
        },
        {
          "duration": 0.454544999999996,
          "durationTicks": 960,
          "midi": 49,
          "name": "C#3",
          "ticks": 355680,
          "time": 168.40892250000002,
          "velocity": 0.7007874015748031
        },
        {
          "duration": 0.454544999999996,
          "durationTicks": 960,
          "midi": 42,
          "name": "F#2",
          "ticks": 355680,
          "time": 168.40892250000002,
          "velocity": 0.7007874015748031
        },
        {
          "duration": 0.227272499999998,
          "durationTicks": 480,
          "midi": 55,
          "name": "G3",
          "ticks": 356640,
          "time": 168.8634675,
          "velocity": 0.7007874015748031
        },
        {
          "duration": 0.227272499999998,
          "durationTicks": 480,
          "midi": 50,
          "name": "D3",
          "ticks": 356640,
          "time": 168.8634675,
          "velocity": 0.7007874015748031
        },
        {
          "duration": 0.227272499999998,
          "durationTicks": 480,
          "midi": 43,
          "name": "G2",
          "ticks": 356640,
          "time": 168.8634675,
          "velocity": 0.7007874015748031
        },
        {
          "duration": 0.227272499999998,
          "durationTicks": 480,
          "midi": 32,
          "name": "G#1",
          "ticks": 357120,
          "time": 169.09074,
          "velocity": 0.7007874015748031
        },
        {
          "duration": 0.227272499999998,
          "durationTicks": 480,
          "midi": 44,
          "name": "G#2",
          "ticks": 357600,
          "time": 169.3180125,
          "velocity": 0.7007874015748031
        },
        {
          "duration": 0.227272499999998,
          "durationTicks": 480,
          "midi": 32,
          "name": "G#1",
          "ticks": 358080,
          "time": 169.545285,
          "velocity": 0.7007874015748031
        },
        {
          "duration": 0.227272499999998,
          "durationTicks": 480,
          "midi": 44,
          "name": "G#2",
          "ticks": 358560,
          "time": 169.7725575,
          "velocity": 0.7007874015748031
        },
        {
          "duration": 0.227272499999998,
          "durationTicks": 480,
          "midi": 32,
          "name": "G#1",
          "ticks": 359040,
          "time": 169.99983,
          "velocity": 0.7007874015748031
        },
        {
          "duration": 0.227272499999998,
          "durationTicks": 480,
          "midi": 44,
          "name": "G#2",
          "ticks": 359520,
          "time": 170.2271025,
          "velocity": 0.7007874015748031
        },
        {
          "duration": 0.2272725000000264,
          "durationTicks": 480,
          "midi": 32,
          "name": "G#1",
          "ticks": 360000,
          "time": 170.454375,
          "velocity": 0.7007874015748031
        },
        {
          "duration": 0.227272499999998,
          "durationTicks": 480,
          "midi": 44,
          "name": "G#2",
          "ticks": 360480,
          "time": 170.68164750000003,
          "velocity": 0.7007874015748031
        },
        {
          "duration": 0.227272499999998,
          "durationTicks": 480,
          "midi": 35,
          "name": "B1",
          "ticks": 360960,
          "time": 170.90892000000002,
          "velocity": 0.7007874015748031
        },
        {
          "duration": 0.227272499999998,
          "durationTicks": 480,
          "midi": 47,
          "name": "B2",
          "ticks": 361440,
          "time": 171.13619250000002,
          "velocity": 0.7007874015748031
        },
        {
          "duration": 0.227272499999998,
          "durationTicks": 480,
          "midi": 35,
          "name": "B1",
          "ticks": 361920,
          "time": 171.36346500000002,
          "velocity": 0.7007874015748031
        },
        {
          "duration": 0.227272499999998,
          "durationTicks": 480,
          "midi": 47,
          "name": "B2",
          "ticks": 362400,
          "time": 171.59073750000002,
          "velocity": 0.7007874015748031
        },
        {
          "duration": 0.227272499999998,
          "durationTicks": 480,
          "midi": 35,
          "name": "B1",
          "ticks": 362880,
          "time": 171.81801000000002,
          "velocity": 0.7007874015748031
        },
        {
          "duration": 0.227272499999998,
          "durationTicks": 480,
          "midi": 47,
          "name": "B2",
          "ticks": 363360,
          "time": 172.0452825,
          "velocity": 0.7007874015748031
        },
        {
          "duration": 0.227272499999998,
          "durationTicks": 480,
          "midi": 35,
          "name": "B1",
          "ticks": 363840,
          "time": 172.272555,
          "velocity": 0.7007874015748031
        },
        {
          "duration": 0.227272499999998,
          "durationTicks": 480,
          "midi": 47,
          "name": "B2",
          "ticks": 364320,
          "time": 172.4998275,
          "velocity": 0.7007874015748031
        },
        {
          "duration": 0.227272499999998,
          "durationTicks": 480,
          "midi": 30,
          "name": "F#1",
          "ticks": 364800,
          "time": 172.7271,
          "velocity": 0.7007874015748031
        },
        {
          "duration": 0.227272499999998,
          "durationTicks": 480,
          "midi": 42,
          "name": "F#2",
          "ticks": 365280,
          "time": 172.9543725,
          "velocity": 0.7007874015748031
        },
        {
          "duration": 0.227272499999998,
          "durationTicks": 480,
          "midi": 30,
          "name": "F#1",
          "ticks": 365760,
          "time": 173.181645,
          "velocity": 0.7007874015748031
        },
        {
          "duration": 0.227272499999998,
          "durationTicks": 480,
          "midi": 42,
          "name": "F#2",
          "ticks": 366240,
          "time": 173.4089175,
          "velocity": 0.7007874015748031
        },
        {
          "duration": 0.2272725000000264,
          "durationTicks": 480,
          "midi": 30,
          "name": "F#1",
          "ticks": 366720,
          "time": 173.63619,
          "velocity": 0.7007874015748031
        },
        {
          "duration": 0.227272499999998,
          "durationTicks": 480,
          "midi": 42,
          "name": "F#2",
          "ticks": 367200,
          "time": 173.86346250000003,
          "velocity": 0.7007874015748031
        },
        {
          "duration": 0.227272499999998,
          "durationTicks": 480,
          "midi": 30,
          "name": "F#1",
          "ticks": 367680,
          "time": 174.09073500000002,
          "velocity": 0.7007874015748031
        },
        {
          "duration": 0.227272499999998,
          "durationTicks": 480,
          "midi": 42,
          "name": "F#2",
          "ticks": 368160,
          "time": 174.31800750000002,
          "velocity": 0.7007874015748031
        },
        {
          "duration": 0.227272499999998,
          "durationTicks": 480,
          "midi": 28,
          "name": "E1",
          "ticks": 368640,
          "time": 174.54528000000002,
          "velocity": 0.7007874015748031
        },
        {
          "duration": 0.227272499999998,
          "durationTicks": 480,
          "midi": 40,
          "name": "E2",
          "ticks": 369120,
          "time": 174.77255250000002,
          "velocity": 0.7007874015748031
        },
        {
          "duration": 0.227272499999998,
          "durationTicks": 480,
          "midi": 28,
          "name": "E1",
          "ticks": 369600,
          "time": 174.99982500000002,
          "velocity": 0.7007874015748031
        },
        {
          "duration": 0.227272499999998,
          "durationTicks": 480,
          "midi": 40,
          "name": "E2",
          "ticks": 370080,
          "time": 175.2270975,
          "velocity": 0.7007874015748031
        },
        {
          "duration": 0.227272499999998,
          "durationTicks": 480,
          "midi": 28,
          "name": "E1",
          "ticks": 370560,
          "time": 175.45437,
          "velocity": 0.7007874015748031
        },
        {
          "duration": 0.227272499999998,
          "durationTicks": 480,
          "midi": 40,
          "name": "E2",
          "ticks": 371040,
          "time": 175.6816425,
          "velocity": 0.7007874015748031
        },
        {
          "duration": 0.227272499999998,
          "durationTicks": 480,
          "midi": 30,
          "name": "F#1",
          "ticks": 371520,
          "time": 175.908915,
          "velocity": 0.7007874015748031
        },
        {
          "duration": 0.227272499999998,
          "durationTicks": 480,
          "midi": 42,
          "name": "F#2",
          "ticks": 371520,
          "time": 175.908915,
          "velocity": 0.7007874015748031
        },
        {
          "duration": 0.227272499999998,
          "durationTicks": 480,
          "midi": 43,
          "name": "G2",
          "ticks": 372000,
          "time": 176.1361875,
          "velocity": 0.7007874015748031
        },
        {
          "duration": 0.227272499999998,
          "durationTicks": 480,
          "midi": 31,
          "name": "G1",
          "ticks": 372000,
          "time": 176.1361875,
          "velocity": 0.7007874015748031
        },
        {
          "duration": 0.227272499999998,
          "durationTicks": 480,
          "midi": 32,
          "name": "G#1",
          "ticks": 372480,
          "time": 176.36346,
          "velocity": 0.7007874015748031
        },
        {
          "duration": 0.227272499999998,
          "durationTicks": 480,
          "midi": 44,
          "name": "G#2",
          "ticks": 372960,
          "time": 176.5907325,
          "velocity": 0.7007874015748031
        },
        {
          "duration": 0.2272725000000264,
          "durationTicks": 480,
          "midi": 32,
          "name": "G#1",
          "ticks": 373440,
          "time": 176.818005,
          "velocity": 0.7007874015748031
        },
        {
          "duration": 0.227272499999998,
          "durationTicks": 480,
          "midi": 44,
          "name": "G#2",
          "ticks": 373920,
          "time": 177.04527750000003,
          "velocity": 0.7007874015748031
        },
        {
          "duration": 0.227272499999998,
          "durationTicks": 480,
          "midi": 32,
          "name": "G#1",
          "ticks": 374400,
          "time": 177.27255000000002,
          "velocity": 0.7007874015748031
        },
        {
          "duration": 0.227272499999998,
          "durationTicks": 480,
          "midi": 44,
          "name": "G#2",
          "ticks": 374880,
          "time": 177.49982250000002,
          "velocity": 0.7007874015748031
        },
        {
          "duration": 0.227272499999998,
          "durationTicks": 480,
          "midi": 32,
          "name": "G#1",
          "ticks": 375360,
          "time": 177.72709500000002,
          "velocity": 0.7007874015748031
        },
        {
          "duration": 0.227272499999998,
          "durationTicks": 480,
          "midi": 44,
          "name": "G#2",
          "ticks": 375840,
          "time": 177.95436750000002,
          "velocity": 0.7007874015748031
        },
        {
          "duration": 0.227272499999998,
          "durationTicks": 480,
          "midi": 35,
          "name": "B1",
          "ticks": 376320,
          "time": 178.18164000000002,
          "velocity": 0.7007874015748031
        },
        {
          "duration": 0.227272499999998,
          "durationTicks": 480,
          "midi": 47,
          "name": "B2",
          "ticks": 376800,
          "time": 178.4089125,
          "velocity": 0.7007874015748031
        },
        {
          "duration": 0.227272499999998,
          "durationTicks": 480,
          "midi": 35,
          "name": "B1",
          "ticks": 377280,
          "time": 178.636185,
          "velocity": 0.7007874015748031
        },
        {
          "duration": 0.227272499999998,
          "durationTicks": 480,
          "midi": 46,
          "name": "A#2",
          "ticks": 377760,
          "time": 178.8634575,
          "velocity": 0.7007874015748031
        },
        {
          "duration": 0.227272499999998,
          "durationTicks": 480,
          "midi": 35,
          "name": "B1",
          "ticks": 378240,
          "time": 179.09073,
          "velocity": 0.7007874015748031
        },
        {
          "duration": 0.227272499999998,
          "durationTicks": 480,
          "midi": 47,
          "name": "B2",
          "ticks": 378720,
          "time": 179.3180025,
          "velocity": 0.7007874015748031
        },
        {
          "duration": 0.227272499999998,
          "durationTicks": 480,
          "midi": 35,
          "name": "B1",
          "ticks": 379200,
          "time": 179.545275,
          "velocity": 0.7007874015748031
        },
        {
          "duration": 0.227272499999998,
          "durationTicks": 480,
          "midi": 47,
          "name": "B2",
          "ticks": 379680,
          "time": 179.7725475,
          "velocity": 0.7007874015748031
        },
        {
          "duration": 0.2272725000000264,
          "durationTicks": 480,
          "midi": 30,
          "name": "F#1",
          "ticks": 380160,
          "time": 179.99982,
          "velocity": 0.7007874015748031
        },
        {
          "duration": 0.227272499999998,
          "durationTicks": 480,
          "midi": 42,
          "name": "F#2",
          "ticks": 380640,
          "time": 180.22709250000003,
          "velocity": 0.7007874015748031
        },
        {
          "duration": 0.227272499999998,
          "durationTicks": 480,
          "midi": 30,
          "name": "F#1",
          "ticks": 381120,
          "time": 180.45436500000002,
          "velocity": 0.7007874015748031
        },
        {
          "duration": 0.227272499999998,
          "durationTicks": 480,
          "midi": 42,
          "name": "F#2",
          "ticks": 381600,
          "time": 180.68163750000002,
          "velocity": 0.7007874015748031
        },
        {
          "duration": 0.227272499999998,
          "durationTicks": 480,
          "midi": 30,
          "name": "F#1",
          "ticks": 382080,
          "time": 180.90891000000002,
          "velocity": 0.7007874015748031
        },
        {
          "duration": 0.227272499999998,
          "durationTicks": 480,
          "midi": 42,
          "name": "F#2",
          "ticks": 382560,
          "time": 181.13618250000002,
          "velocity": 0.7007874015748031
        },
        {
          "duration": 0.227272499999998,
          "durationTicks": 480,
          "midi": 30,
          "name": "F#1",
          "ticks": 383040,
          "time": 181.36345500000002,
          "velocity": 0.7007874015748031
        },
        {
          "duration": 0.227272499999998,
          "durationTicks": 480,
          "midi": 42,
          "name": "F#2",
          "ticks": 383520,
          "time": 181.5907275,
          "velocity": 0.7007874015748031
        },
        {
          "duration": 0.227272499999998,
          "durationTicks": 480,
          "midi": 28,
          "name": "E1",
          "ticks": 384000,
          "time": 181.818,
          "velocity": 0.7007874015748031
        },
        {
          "duration": 0.227272499999998,
          "durationTicks": 480,
          "midi": 40,
          "name": "E2",
          "ticks": 384480,
          "time": 182.0452725,
          "velocity": 0.7007874015748031
        },
        {
          "duration": 0.227272499999998,
          "durationTicks": 480,
          "midi": 28,
          "name": "E1",
          "ticks": 384960,
          "time": 182.272545,
          "velocity": 0.7007874015748031
        },
        {
          "duration": 0.227272499999998,
          "durationTicks": 480,
          "midi": 40,
          "name": "E2",
          "ticks": 385440,
          "time": 182.4998175,
          "velocity": 0.7007874015748031
        },
        {
          "duration": 0.227272499999998,
          "durationTicks": 480,
          "midi": 32,
          "name": "G#1",
          "ticks": 385920,
          "time": 182.72709,
          "velocity": 0.7007874015748031
        },
        {
          "duration": 0.227272499999998,
          "durationTicks": 480,
          "midi": 40,
          "name": "E2",
          "ticks": 386400,
          "time": 182.9543625,
          "velocity": 0.7007874015748031
        },
        {
          "duration": 0.227272499999998,
          "durationTicks": 480,
          "midi": 32,
          "name": "G#1",
          "ticks": 387840,
          "time": 183.63618000000002,
          "velocity": 0.7007874015748031
        },
        {
          "duration": 0.227272499999998,
          "durationTicks": 480,
          "midi": 44,
          "name": "G#2",
          "ticks": 388320,
          "time": 183.86345250000002,
          "velocity": 0.7007874015748031
        },
        {
          "duration": 0.227272499999998,
          "durationTicks": 480,
          "midi": 32,
          "name": "G#1",
          "ticks": 388800,
          "time": 184.09072500000002,
          "velocity": 0.7007874015748031
        },
        {
          "duration": 0.227272499999998,
          "durationTicks": 480,
          "midi": 44,
          "name": "G#2",
          "ticks": 389280,
          "time": 184.31799750000002,
          "velocity": 0.7007874015748031
        },
        {
          "duration": 0.227272499999998,
          "durationTicks": 480,
          "midi": 32,
          "name": "G#1",
          "ticks": 389760,
          "time": 184.54527000000002,
          "velocity": 0.7007874015748031
        },
        {
          "duration": 0.227272499999998,
          "durationTicks": 480,
          "midi": 44,
          "name": "G#2",
          "ticks": 390240,
          "time": 184.77254250000001,
          "velocity": 0.7007874015748031
        },
        {
          "duration": 0.227272499999998,
          "durationTicks": 480,
          "midi": 32,
          "name": "G#1",
          "ticks": 390720,
          "time": 184.999815,
          "velocity": 0.7007874015748031
        },
        {
          "duration": 0.227272499999998,
          "durationTicks": 480,
          "midi": 44,
          "name": "G#2",
          "ticks": 391200,
          "time": 185.2270875,
          "velocity": 0.7007874015748031
        },
        {
          "duration": 0.227272499999998,
          "durationTicks": 480,
          "midi": 35,
          "name": "B1",
          "ticks": 391680,
          "time": 185.45436,
          "velocity": 0.7007874015748031
        },
        {
          "duration": 0.227272499999998,
          "durationTicks": 480,
          "midi": 47,
          "name": "B2",
          "ticks": 392160,
          "time": 185.6816325,
          "velocity": 0.7007874015748031
        },
        {
          "duration": 0.227272499999998,
          "durationTicks": 480,
          "midi": 35,
          "name": "B1",
          "ticks": 392640,
          "time": 185.908905,
          "velocity": 0.7007874015748031
        },
        {
          "duration": 0.227272499999998,
          "durationTicks": 480,
          "midi": 47,
          "name": "B2",
          "ticks": 393120,
          "time": 186.1361775,
          "velocity": 0.7007874015748031
        },
        {
          "duration": 0.2272725000000264,
          "durationTicks": 480,
          "midi": 35,
          "name": "B1",
          "ticks": 393600,
          "time": 186.36345,
          "velocity": 0.7007874015748031
        },
        {
          "duration": 0.227272499999998,
          "durationTicks": 480,
          "midi": 47,
          "name": "B2",
          "ticks": 394080,
          "time": 186.59072250000003,
          "velocity": 0.7007874015748031
        },
        {
          "duration": 0.227272499999998,
          "durationTicks": 480,
          "midi": 35,
          "name": "B1",
          "ticks": 394560,
          "time": 186.81799500000002,
          "velocity": 0.7007874015748031
        },
        {
          "duration": 0.227272499999998,
          "durationTicks": 480,
          "midi": 47,
          "name": "B2",
          "ticks": 395040,
          "time": 187.04526750000002,
          "velocity": 0.7007874015748031
        },
        {
          "duration": 0.227272499999998,
          "durationTicks": 480,
          "midi": 30,
          "name": "F#1",
          "ticks": 395520,
          "time": 187.27254000000002,
          "velocity": 0.7007874015748031
        },
        {
          "duration": 0.227272499999998,
          "durationTicks": 480,
          "midi": 42,
          "name": "F#2",
          "ticks": 396000,
          "time": 187.49981250000002,
          "velocity": 0.7007874015748031
        },
        {
          "duration": 0.227272499999998,
          "durationTicks": 480,
          "midi": 30,
          "name": "F#1",
          "ticks": 396480,
          "time": 187.72708500000002,
          "velocity": 0.7007874015748031
        },
        {
          "duration": 0.227272499999998,
          "durationTicks": 480,
          "midi": 42,
          "name": "F#2",
          "ticks": 396960,
          "time": 187.95435750000001,
          "velocity": 0.7007874015748031
        },
        {
          "duration": 0.227272499999998,
          "durationTicks": 480,
          "midi": 30,
          "name": "F#1",
          "ticks": 397440,
          "time": 188.18163,
          "velocity": 0.7007874015748031
        },
        {
          "duration": 0.227272499999998,
          "durationTicks": 480,
          "midi": 42,
          "name": "F#2",
          "ticks": 397920,
          "time": 188.4089025,
          "velocity": 0.7007874015748031
        },
        {
          "duration": 0.227272499999998,
          "durationTicks": 480,
          "midi": 30,
          "name": "F#1",
          "ticks": 398400,
          "time": 188.636175,
          "velocity": 0.7007874015748031
        },
        {
          "duration": 0.227272499999998,
          "durationTicks": 480,
          "midi": 42,
          "name": "F#2",
          "ticks": 398880,
          "time": 188.8634475,
          "velocity": 0.7007874015748031
        },
        {
          "duration": 0.227272499999998,
          "durationTicks": 480,
          "midi": 28,
          "name": "E1",
          "ticks": 399360,
          "time": 189.09072,
          "velocity": 0.7007874015748031
        },
        {
          "duration": 0.227272499999998,
          "durationTicks": 480,
          "midi": 40,
          "name": "E2",
          "ticks": 399840,
          "time": 189.3179925,
          "velocity": 0.7007874015748031
        },
        {
          "duration": 0.2272725000000264,
          "durationTicks": 480,
          "midi": 28,
          "name": "E1",
          "ticks": 400320,
          "time": 189.545265,
          "velocity": 0.7007874015748031
        },
        {
          "duration": 0.227272499999998,
          "durationTicks": 480,
          "midi": 40,
          "name": "E2",
          "ticks": 400800,
          "time": 189.77253750000003,
          "velocity": 0.7007874015748031
        },
        {
          "duration": 0.227272499999998,
          "durationTicks": 480,
          "midi": 28,
          "name": "E1",
          "ticks": 401280,
          "time": 189.99981000000002,
          "velocity": 0.7007874015748031
        },
        {
          "duration": 0.227272499999998,
          "durationTicks": 480,
          "midi": 40,
          "name": "E2",
          "ticks": 401760,
          "time": 190.22708250000002,
          "velocity": 0.7007874015748031
        },
        {
          "duration": 0.227272499999998,
          "durationTicks": 480,
          "midi": 30,
          "name": "F#1",
          "ticks": 402240,
          "time": 190.45435500000002,
          "velocity": 0.7007874015748031
        },
        {
          "duration": 0.227272499999998,
          "durationTicks": 480,
          "midi": 42,
          "name": "F#2",
          "ticks": 402240,
          "time": 190.45435500000002,
          "velocity": 0.7007874015748031
        },
        {
          "duration": 0.227272499999998,
          "durationTicks": 480,
          "midi": 43,
          "name": "G2",
          "ticks": 402720,
          "time": 190.68162750000002,
          "velocity": 0.7007874015748031
        },
        {
          "duration": 0.227272499999998,
          "durationTicks": 480,
          "midi": 31,
          "name": "G1",
          "ticks": 402720,
          "time": 190.68162750000002,
          "velocity": 0.7007874015748031
        },
        {
          "duration": 0.227272499999998,
          "durationTicks": 480,
          "midi": 32,
          "name": "G#1",
          "ticks": 403200,
          "time": 190.90890000000002,
          "velocity": 0.7007874015748031
        },
        {
          "duration": 0.227272499999998,
          "durationTicks": 480,
          "midi": 44,
          "name": "G#2",
          "ticks": 403680,
          "time": 191.13617250000001,
          "velocity": 0.7007874015748031
        },
        {
          "duration": 0.227272499999998,
          "durationTicks": 480,
          "midi": 32,
          "name": "G#1",
          "ticks": 404160,
          "time": 191.363445,
          "velocity": 0.7007874015748031
        },
        {
          "duration": 0.227272499999998,
          "durationTicks": 480,
          "midi": 44,
          "name": "G#2",
          "ticks": 404640,
          "time": 191.5907175,
          "velocity": 0.7007874015748031
        },
        {
          "duration": 0.227272499999998,
          "durationTicks": 480,
          "midi": 32,
          "name": "G#1",
          "ticks": 405120,
          "time": 191.81799,
          "velocity": 0.7007874015748031
        },
        {
          "duration": 0.227272499999998,
          "durationTicks": 480,
          "midi": 44,
          "name": "G#2",
          "ticks": 405600,
          "time": 192.0452625,
          "velocity": 0.7007874015748031
        },
        {
          "duration": 0.227272499999998,
          "durationTicks": 480,
          "midi": 32,
          "name": "G#1",
          "ticks": 406080,
          "time": 192.272535,
          "velocity": 0.7007874015748031
        },
        {
          "duration": 0.227272499999998,
          "durationTicks": 480,
          "midi": 44,
          "name": "G#2",
          "ticks": 406560,
          "time": 192.4998075,
          "velocity": 0.7007874015748031
        },
        {
          "duration": 0.2272725000000264,
          "durationTicks": 480,
          "midi": 35,
          "name": "B1",
          "ticks": 407040,
          "time": 192.72708,
          "velocity": 0.7007874015748031
        },
        {
          "duration": 0.227272499999998,
          "durationTicks": 480,
          "midi": 47,
          "name": "B2",
          "ticks": 407520,
          "time": 192.95435250000003,
          "velocity": 0.7007874015748031
        },
        {
          "duration": 0.227272499999998,
          "durationTicks": 480,
          "midi": 35,
          "name": "B1",
          "ticks": 408000,
          "time": 193.18162500000003,
          "velocity": 0.7007874015748031
        },
        {
          "duration": 0.227272499999998,
          "durationTicks": 480,
          "midi": 46,
          "name": "A#2",
          "ticks": 408480,
          "time": 193.40889750000002,
          "velocity": 0.7007874015748031
        },
        {
          "duration": 0.227272499999998,
          "durationTicks": 480,
          "midi": 35,
          "name": "B1",
          "ticks": 408960,
          "time": 193.63617000000002,
          "velocity": 0.7007874015748031
        },
        {
          "duration": 0.227272499999998,
          "durationTicks": 480,
          "midi": 47,
          "name": "B2",
          "ticks": 409440,
          "time": 193.86344250000002,
          "velocity": 0.7007874015748031
        },
        {
          "duration": 0.227272499999998,
          "durationTicks": 480,
          "midi": 35,
          "name": "B1",
          "ticks": 409920,
          "time": 194.09071500000002,
          "velocity": 0.7007874015748031
        },
        {
          "duration": 0.227272499999998,
          "durationTicks": 480,
          "midi": 47,
          "name": "B2",
          "ticks": 410400,
          "time": 194.31798750000002,
          "velocity": 0.7007874015748031
        },
        {
          "duration": 0.227272499999998,
          "durationTicks": 480,
          "midi": 30,
          "name": "F#1",
          "ticks": 410880,
          "time": 194.54526,
          "velocity": 0.7007874015748031
        },
        {
          "duration": 0.227272499999998,
          "durationTicks": 480,
          "midi": 42,
          "name": "F#2",
          "ticks": 411360,
          "time": 194.7725325,
          "velocity": 0.7007874015748031
        },
        {
          "duration": 0.227272499999998,
          "durationTicks": 480,
          "midi": 30,
          "name": "F#1",
          "ticks": 411840,
          "time": 194.999805,
          "velocity": 0.7007874015748031
        },
        {
          "duration": 0.227272499999998,
          "durationTicks": 480,
          "midi": 42,
          "name": "F#2",
          "ticks": 412320,
          "time": 195.2270775,
          "velocity": 0.7007874015748031
        },
        {
          "duration": 0.227272499999998,
          "durationTicks": 480,
          "midi": 30,
          "name": "F#1",
          "ticks": 412800,
          "time": 195.45435,
          "velocity": 0.7007874015748031
        },
        {
          "duration": 0.227272499999998,
          "durationTicks": 480,
          "midi": 42,
          "name": "F#2",
          "ticks": 413280,
          "time": 195.6816225,
          "velocity": 0.7007874015748031
        },
        {
          "duration": 0.2272725000000264,
          "durationTicks": 480,
          "midi": 30,
          "name": "F#1",
          "ticks": 413760,
          "time": 195.908895,
          "velocity": 0.7007874015748031
        },
        {
          "duration": 0.227272499999998,
          "durationTicks": 480,
          "midi": 42,
          "name": "F#2",
          "ticks": 414240,
          "time": 196.13616750000003,
          "velocity": 0.7007874015748031
        },
        {
          "duration": 0.227272499999998,
          "durationTicks": 480,
          "midi": 28,
          "name": "E1",
          "ticks": 414720,
          "time": 196.36344000000003,
          "velocity": 0.7007874015748031
        },
        {
          "duration": 0.227272499999998,
          "durationTicks": 480,
          "midi": 40,
          "name": "E2",
          "ticks": 415200,
          "time": 196.59071250000002,
          "velocity": 0.7007874015748031
        },
        {
          "duration": 0.227272499999998,
          "durationTicks": 480,
          "midi": 28,
          "name": "E1",
          "ticks": 415680,
          "time": 196.81798500000002,
          "velocity": 0.7007874015748031
        },
        {
          "duration": 0.227272499999998,
          "durationTicks": 480,
          "midi": 40,
          "name": "E2",
          "ticks": 416160,
          "time": 197.04525750000002,
          "velocity": 0.7007874015748031
        },
        {
          "duration": 0.227272499999998,
          "durationTicks": 480,
          "midi": 28,
          "name": "E1",
          "ticks": 416640,
          "time": 197.27253000000002,
          "velocity": 0.7007874015748031
        },
        {
          "duration": 0.227272499999998,
          "durationTicks": 480,
          "midi": 40,
          "name": "E2",
          "ticks": 417120,
          "time": 197.49980250000002,
          "velocity": 0.7007874015748031
        },
        {
          "duration": 0.227272499999998,
          "durationTicks": 480,
          "midi": 42,
          "name": "F#2",
          "ticks": 417600,
          "time": 197.727075,
          "velocity": 0.7007874015748031
        },
        {
          "duration": 0.227272499999998,
          "durationTicks": 480,
          "midi": 30,
          "name": "F#1",
          "ticks": 417600,
          "time": 197.727075,
          "velocity": 0.7007874015748031
        },
        {
          "duration": 0.227272499999998,
          "durationTicks": 480,
          "midi": 43,
          "name": "G2",
          "ticks": 418080,
          "time": 197.9543475,
          "velocity": 0.7007874015748031
        },
        {
          "duration": 0.227272499999998,
          "durationTicks": 480,
          "midi": 31,
          "name": "G1",
          "ticks": 418080,
          "time": 197.9543475,
          "velocity": 0.7007874015748031
        },
        {
          "duration": 0.454544999999996,
          "durationTicks": 960,
          "midi": 42,
          "name": "F#2",
          "ticks": 418560,
          "time": 198.18162,
          "velocity": 0.7007874015748031
        },
        {
          "duration": 0.454544999999996,
          "durationTicks": 960,
          "midi": 32,
          "name": "G#1",
          "ticks": 418560,
          "time": 198.18162,
          "velocity": 0.7007874015748031
        }
      ]
    },
    {
      "channel": 0,
      "controlChanges": {
        "7": [
          {
            "number": 7,
            "ticks": 0,
            "time": 0,
            "value": 1
          }
        ],
        "10": [
          {
            "number": 10,
            "ticks": 0,
            "time": 0,
            "value": 0.8503937007874016
          }
        ]
      },
      "pitchBends": [],
      "instrument": {
        "family": "piano",
        "number": 0,
        "name": "acoustic grand piano"
      },
      "name": "From The Album \"Meltdown\"",
      "notes": [],
      "endOfTrackTicks": 422400
    },
    {
      "channel": 3,
      "controlChanges": {},
      "pitchBends": [],
      "instrument": {
        "family": "organ",
        "number": 22,
        "name": "harmonica"
      },
      "name": "",
      "notes": [
        {
          "duration": 0.2272725,
          "durationTicks": 480,
          "midi": 68,
          "name": "G#4",
          "ticks": 2400,
          "time": 1.1363625000000002,
          "velocity": 0.7007874015748031
        },
        {
          "duration": 0.11363624999999988,
          "durationTicks": 240,
          "midi": 71,
          "name": "B4",
          "ticks": 2880,
          "time": 1.3636350000000002,
          "velocity": 0.7007874015748031
        },
        {
          "duration": 0.3409087500000001,
          "durationTicks": 720,
          "midi": 71,
          "name": "B4",
          "ticks": 3120,
          "time": 1.47727125,
          "velocity": 0.7007874015748031
        },
        {
          "duration": 0.34090874999999987,
          "durationTicks": 720,
          "midi": 71,
          "name": "B4",
          "ticks": 3840,
          "time": 1.8181800000000001,
          "velocity": 0.7007874015748031
        },
        {
          "duration": 0.11363625000000033,
          "durationTicks": 240,
          "midi": 68,
          "name": "G#4",
          "ticks": 4560,
          "time": 2.15908875,
          "velocity": 0.7007874015748031
        },
        {
          "duration": 0.22727249999999977,
          "durationTicks": 480,
          "midi": 66,
          "name": "F#4",
          "ticks": 4800,
          "time": 2.2727250000000003,
          "velocity": 0.7007874015748031
        },
        {
          "duration": 0.2272725000000002,
          "durationTicks": 480,
          "midi": 78,
          "name": "F#5",
          "ticks": 6240,
          "time": 2.9545425,
          "velocity": 0.7007874015748031
        },
        {
          "duration": 0.11363624999999988,
          "durationTicks": 240,
          "midi": 75,
          "name": "D#5",
          "ticks": 6720,
          "time": 3.1818150000000003,
          "velocity": 0.7007874015748031
        },
        {
          "duration": 0.11363624999999988,
          "durationTicks": 240,
          "midi": 73,
          "name": "C#5",
          "ticks": 6960,
          "time": 3.29545125,
          "velocity": 0.7007874015748031
        },
        {
          "duration": 0.2272725000000002,
          "durationTicks": 480,
          "midi": 71,
          "name": "B4",
          "ticks": 7200,
          "time": 3.4090875,
          "velocity": 0.7007874015748031
        },
        {
          "duration": 0.2272725000000002,
          "durationTicks": 480,
          "midi": 75,
          "name": "D#5",
          "ticks": 7680,
          "time": 3.6363600000000003,
          "velocity": 0.7007874015748031
        },
        {
          "duration": 1.1363624999999997,
          "durationTicks": 2400,
          "midi": 78,
          "name": "F#5",
          "ticks": 8160,
          "time": 3.8636325000000005,
          "velocity": 0.7007874015748031
        },
        {
          "duration": 1.3636349999999995,
          "durationTicks": 2880,
          "midi": 78,
          "name": "F#5",
          "ticks": 11520,
          "time": 5.454540000000001,
          "velocity": 0.7007874015748031
        },
        {
          "duration": 0.11363625000000077,
          "durationTicks": 240,
          "midi": 75,
          "name": "D#5",
          "ticks": 14400,
          "time": 6.818175,
          "velocity": 0.7007874015748031
        },
        {
          "duration": 0.11363624999999988,
          "durationTicks": 240,
          "midi": 73,
          "name": "C#5",
          "ticks": 14640,
          "time": 6.931811250000001,
          "velocity": 0.7007874015748031
        },
        {
          "duration": 0.22727249999999977,
          "durationTicks": 480,
          "midi": 71,
          "name": "B4",
          "ticks": 14880,
          "time": 7.045447500000001,
          "velocity": 0.7007874015748031
        },
        {
          "duration": 0.22727249999999977,
          "durationTicks": 480,
          "midi": 68,
          "name": "G#4",
          "ticks": 15360,
          "time": 7.2727200000000005,
          "velocity": 0.7007874015748031
        },
        {
          "duration": 0.6818175000000002,
          "durationTicks": 1440,
          "midi": 71,
          "name": "B4",
          "ticks": 15840,
          "time": 7.4999925,
          "velocity": 0.7007874015748031
        },
        {
          "duration": 0.22727249999999977,
          "durationTicks": 480,
          "midi": 68,
          "name": "G#4",
          "ticks": 17760,
          "time": 8.4090825,
          "velocity": 0.7007874015748031
        },
        {
          "duration": 0.11363625000000077,
          "durationTicks": 240,
          "midi": 71,
          "name": "B4",
          "ticks": 18240,
          "time": 8.636355,
          "velocity": 0.7007874015748031
        },
        {
          "duration": 0.34090875000000054,
          "durationTicks": 720,
          "midi": 71,
          "name": "B4",
          "ticks": 18480,
          "time": 8.74999125,
          "velocity": 0.7007874015748031
        },
        {
          "duration": 0.34090874999999876,
          "durationTicks": 720,
          "midi": 71,
          "name": "B4",
          "ticks": 19200,
          "time": 9.090900000000001,
          "velocity": 0.7007874015748031
        },
        {
          "duration": 0.11363625000000077,
          "durationTicks": 240,
          "midi": 68,
          "name": "G#4",
          "ticks": 19920,
          "time": 9.43180875,
          "velocity": 0.7007874015748031
        },
        {
          "duration": 0.22727249999999977,
          "durationTicks": 480,
          "midi": 66,
          "name": "F#4",
          "ticks": 20160,
          "time": 9.545445,
          "velocity": 0.7007874015748031
        },
        {
          "duration": 0.22727249999999977,
          "durationTicks": 480,
          "midi": 78,
          "name": "F#5",
          "ticks": 21600,
          "time": 10.2272625,
          "velocity": 0.7007874015748031
        },
        {
          "duration": 0.11363625000000077,
          "durationTicks": 240,
          "midi": 75,
          "name": "D#5",
          "ticks": 22080,
          "time": 10.454535,
          "velocity": 0.7007874015748031
        },
        {
          "duration": 0.11363625000000077,
          "durationTicks": 240,
          "midi": 73,
          "name": "C#5",
          "ticks": 22320,
          "time": 10.56817125,
          "velocity": 0.7007874015748031
        },
        {
          "duration": 0.22727249999999977,
          "durationTicks": 480,
          "midi": 71,
          "name": "B4",
          "ticks": 22560,
          "time": 10.681807500000001,
          "velocity": 0.7007874015748031
        },
        {
          "duration": 0.22727249999999977,
          "durationTicks": 480,
          "midi": 75,
          "name": "D#5",
          "ticks": 23040,
          "time": 10.909080000000001,
          "velocity": 0.7007874015748031
        },
        {
          "duration": 1.1363625000000006,
          "durationTicks": 2400,
          "midi": 78,
          "name": "F#5",
          "ticks": 23520,
          "time": 11.136352500000001,
          "velocity": 0.7007874015748031
        },
        {
          "duration": 1.3636350000000004,
          "durationTicks": 2880,
          "midi": 78,
          "name": "F#5",
          "ticks": 26880,
          "time": 12.727260000000001,
          "velocity": 0.7007874015748031
        },
        {
          "duration": 0.113636249999999,
          "durationTicks": 240,
          "midi": 75,
          "name": "D#5",
          "ticks": 29760,
          "time": 14.090895000000002,
          "velocity": 0.7007874015748031
        },
        {
          "duration": 0.11363625000000077,
          "durationTicks": 240,
          "midi": 73,
          "name": "C#5",
          "ticks": 30000,
          "time": 14.20453125,
          "velocity": 0.7007874015748031
        },
        {
          "duration": 0.22727249999999977,
          "durationTicks": 480,
          "midi": 71,
          "name": "B4",
          "ticks": 30240,
          "time": 14.318167500000001,
          "velocity": 0.7007874015748031
        },
        {
          "duration": 0.22727249999999977,
          "durationTicks": 480,
          "midi": 68,
          "name": "G#4",
          "ticks": 30720,
          "time": 14.545440000000001,
          "velocity": 0.7007874015748031
        },
        {
          "duration": 0.6818175000000011,
          "durationTicks": 1440,
          "midi": 71,
          "name": "B4",
          "ticks": 31200,
          "time": 14.7727125,
          "velocity": 0.7007874015748031
        },
        {
          "duration": 0.22727249999999977,
          "durationTicks": 480,
          "midi": 68,
          "name": "G#4",
          "ticks": 33120,
          "time": 15.681802500000002,
          "velocity": 0.7007874015748031
        },
        {
          "duration": 0.113636249999999,
          "durationTicks": 240,
          "midi": 71,
          "name": "B4",
          "ticks": 33600,
          "time": 15.909075000000001,
          "velocity": 0.7007874015748031
        },
        {
          "duration": 0.34090875000000054,
          "durationTicks": 720,
          "midi": 71,
          "name": "B4",
          "ticks": 33840,
          "time": 16.02271125,
          "velocity": 0.7007874015748031
        },
        {
          "duration": 0.34090875000000054,
          "durationTicks": 720,
          "midi": 71,
          "name": "B4",
          "ticks": 34560,
          "time": 16.36362,
          "velocity": 0.7007874015748031
        },
        {
          "duration": 0.113636249999999,
          "durationTicks": 240,
          "midi": 68,
          "name": "G#4",
          "ticks": 35280,
          "time": 16.70452875,
          "velocity": 0.7007874015748031
        },
        {
          "duration": 0.22727250000000154,
          "durationTicks": 480,
          "midi": 66,
          "name": "F#4",
          "ticks": 35520,
          "time": 16.818165,
          "velocity": 0.7007874015748031
        },
        {
          "duration": 0.227272499999998,
          "durationTicks": 480,
          "midi": 78,
          "name": "F#5",
          "ticks": 36960,
          "time": 17.4999825,
          "velocity": 0.7007874015748031
        },
        {
          "duration": 0.11363625000000255,
          "durationTicks": 240,
          "midi": 75,
          "name": "D#5",
          "ticks": 37440,
          "time": 17.727255,
          "velocity": 0.7007874015748031
        },
        {
          "duration": 0.113636249999999,
          "durationTicks": 240,
          "midi": 73,
          "name": "C#5",
          "ticks": 37680,
          "time": 17.840891250000002,
          "velocity": 0.7007874015748031
        },
        {
          "duration": 0.22727250000000154,
          "durationTicks": 480,
          "midi": 71,
          "name": "B4",
          "ticks": 37920,
          "time": 17.9545275,
          "velocity": 0.7007874015748031
        },
        {
          "duration": 0.227272499999998,
          "durationTicks": 480,
          "midi": 75,
          "name": "D#5",
          "ticks": 38400,
          "time": 18.181800000000003,
          "velocity": 0.7007874015748031
        },
        {
          "duration": 1.1363625000000006,
          "durationTicks": 2400,
          "midi": 78,
          "name": "F#5",
          "ticks": 38880,
          "time": 18.4090725,
          "velocity": 0.7007874015748031
        },
        {
          "duration": 1.3636350000000022,
          "durationTicks": 2880,
          "midi": 78,
          "name": "F#5",
          "ticks": 42240,
          "time": 19.99998,
          "velocity": 0.7007874015748031
        },
        {
          "duration": 0.113636249999999,
          "durationTicks": 240,
          "midi": 75,
          "name": "D#5",
          "ticks": 45120,
          "time": 21.363615000000003,
          "velocity": 0.7007874015748031
        },
        {
          "duration": 0.113636249999999,
          "durationTicks": 240,
          "midi": 73,
          "name": "C#5",
          "ticks": 45360,
          "time": 21.477251250000002,
          "velocity": 0.7007874015748031
        },
        {
          "duration": 0.22727250000000154,
          "durationTicks": 480,
          "midi": 71,
          "name": "B4",
          "ticks": 45600,
          "time": 21.5908875,
          "velocity": 0.7007874015748031
        },
        {
          "duration": 0.227272499999998,
          "durationTicks": 480,
          "midi": 68,
          "name": "G#4",
          "ticks": 46080,
          "time": 21.818160000000002,
          "velocity": 0.7007874015748031
        },
        {
          "duration": 0.6818175000000011,
          "durationTicks": 1440,
          "midi": 71,
          "name": "B4",
          "ticks": 46560,
          "time": 22.0454325,
          "velocity": 0.7007874015748031
        },
        {
          "duration": 0.227272499999998,
          "durationTicks": 480,
          "midi": 68,
          "name": "G#4",
          "ticks": 48480,
          "time": 22.954522500000003,
          "velocity": 0.7007874015748031
        },
        {
          "duration": 0.113636249999999,
          "durationTicks": 240,
          "midi": 71,
          "name": "B4",
          "ticks": 48960,
          "time": 23.181795,
          "velocity": 0.7007874015748031
        },
        {
          "duration": 0.34090875000000054,
          "durationTicks": 720,
          "midi": 71,
          "name": "B4",
          "ticks": 49200,
          "time": 23.29543125,
          "velocity": 0.7007874015748031
        },
        {
          "duration": 0.34090875000000054,
          "durationTicks": 720,
          "midi": 71,
          "name": "B4",
          "ticks": 49920,
          "time": 23.63634,
          "velocity": 0.7007874015748031
        },
        {
          "duration": 0.113636249999999,
          "durationTicks": 240,
          "midi": 68,
          "name": "G#4",
          "ticks": 50640,
          "time": 23.97724875,
          "velocity": 0.7007874015748031
        },
        {
          "duration": 0.22727250000000154,
          "durationTicks": 480,
          "midi": 66,
          "name": "F#4",
          "ticks": 50880,
          "time": 24.090885,
          "velocity": 0.7007874015748031
        },
        {
          "duration": 0.22727250000000154,
          "durationTicks": 480,
          "midi": 78,
          "name": "F#5",
          "ticks": 52320,
          "time": 24.7727025,
          "velocity": 0.7007874015748031
        },
        {
          "duration": 0.113636249999999,
          "durationTicks": 240,
          "midi": 75,
          "name": "D#5",
          "ticks": 52800,
          "time": 24.999975000000003,
          "velocity": 0.7007874015748031
        },
        {
          "duration": 0.113636249999999,
          "durationTicks": 240,
          "midi": 73,
          "name": "C#5",
          "ticks": 53040,
          "time": 25.11361125,
          "velocity": 0.7007874015748031
        },
        {
          "duration": 0.22727250000000154,
          "durationTicks": 480,
          "midi": 71,
          "name": "B4",
          "ticks": 53280,
          "time": 25.2272475,
          "velocity": 0.7007874015748031
        },
        {
          "duration": 0.227272499999998,
          "durationTicks": 480,
          "midi": 75,
          "name": "D#5",
          "ticks": 53760,
          "time": 25.454520000000002,
          "velocity": 0.7007874015748031
        },
        {
          "duration": 1.1363625000000006,
          "durationTicks": 2400,
          "midi": 78,
          "name": "F#5",
          "ticks": 54240,
          "time": 25.6817925,
          "velocity": 0.7007874015748031
        },
        {
          "duration": 1.3636350000000022,
          "durationTicks": 2880,
          "midi": 78,
          "name": "F#5",
          "ticks": 57600,
          "time": 27.2727,
          "velocity": 0.7007874015748031
        },
        {
          "duration": 0.113636249999999,
          "durationTicks": 240,
          "midi": 75,
          "name": "D#5",
          "ticks": 60480,
          "time": 28.636335000000003,
          "velocity": 0.7007874015748031
        },
        {
          "duration": 0.113636249999999,
          "durationTicks": 240,
          "midi": 73,
          "name": "C#5",
          "ticks": 60720,
          "time": 28.74997125,
          "velocity": 0.7007874015748031
        },
        {
          "duration": 0.22727250000000154,
          "durationTicks": 480,
          "midi": 71,
          "name": "B4",
          "ticks": 60960,
          "time": 28.8636075,
          "velocity": 0.7007874015748031
        },
        {
          "duration": 0.22727250000000154,
          "durationTicks": 480,
          "midi": 68,
          "name": "G#4",
          "ticks": 61440,
          "time": 29.090880000000002,
          "velocity": 0.7007874015748031
        },
        {
          "duration": 0.6818174999999975,
          "durationTicks": 1440,
          "midi": 71,
          "name": "B4",
          "ticks": 61920,
          "time": 29.318152500000004,
          "velocity": 0.7007874015748031
        },
        {
          "duration": 0.227272499999998,
          "durationTicks": 480,
          "midi": 68,
          "name": "G#4",
          "ticks": 63840,
          "time": 30.227242500000003,
          "velocity": 0.7007874015748031
        },
        {
          "duration": 0.11363625000000255,
          "durationTicks": 240,
          "midi": 71,
          "name": "B4",
          "ticks": 64320,
          "time": 30.454515,
          "velocity": 0.7007874015748031
        },
        {
          "duration": 0.34090875000000054,
          "durationTicks": 720,
          "midi": 71,
          "name": "B4",
          "ticks": 64560,
          "time": 30.568151250000003,
          "velocity": 0.7007874015748031
        },
        {
          "duration": 0.340908749999997,
          "durationTicks": 720,
          "midi": 71,
          "name": "B4",
          "ticks": 65280,
          "time": 30.909060000000004,
          "velocity": 0.7007874015748031
        },
        {
          "duration": 0.11363625000000255,
          "durationTicks": 240,
          "midi": 68,
          "name": "G#4",
          "ticks": 66000,
          "time": 31.24996875,
          "velocity": 0.7007874015748031
        },
        {
          "duration": 0.227272499999998,
          "durationTicks": 480,
          "midi": 66,
          "name": "F#4",
          "ticks": 66240,
          "time": 31.363605000000003,
          "velocity": 0.7007874015748031
        },
        {
          "duration": 0.227272499999998,
          "durationTicks": 480,
          "midi": 78,
          "name": "F#5",
          "ticks": 67680,
          "time": 32.0454225,
          "velocity": 0.7007874015748031
        },
        {
          "duration": 0.1136362500000061,
          "durationTicks": 240,
          "midi": 75,
          "name": "D#5",
          "ticks": 68160,
          "time": 32.272695,
          "velocity": 0.7007874015748031
        },
        {
          "duration": 0.113636249999999,
          "durationTicks": 240,
          "midi": 73,
          "name": "C#5",
          "ticks": 68400,
          "time": 32.386331250000005,
          "velocity": 0.7007874015748031
        },
        {
          "duration": 0.227272499999998,
          "durationTicks": 480,
          "midi": 71,
          "name": "B4",
          "ticks": 68640,
          "time": 32.499967500000004,
          "velocity": 0.7007874015748031
        },
        {
          "duration": 0.227272499999998,
          "durationTicks": 480,
          "midi": 75,
          "name": "D#5",
          "ticks": 69120,
          "time": 32.72724,
          "velocity": 0.7007874015748031
        },
        {
          "duration": 1.1363625000000042,
          "durationTicks": 2400,
          "midi": 78,
          "name": "F#5",
          "ticks": 69600,
          "time": 32.9545125,
          "velocity": 0.7007874015748031
        },
        {
          "duration": 1.3636350000000022,
          "durationTicks": 2880,
          "midi": 78,
          "name": "F#5",
          "ticks": 72960,
          "time": 34.54542,
          "velocity": 0.7007874015748031
        },
        {
          "duration": 0.113636249999999,
          "durationTicks": 240,
          "midi": 75,
          "name": "D#5",
          "ticks": 75840,
          "time": 35.909055,
          "velocity": 0.7007874015748031
        },
        {
          "duration": 0.113636249999999,
          "durationTicks": 240,
          "midi": 73,
          "name": "C#5",
          "ticks": 76080,
          "time": 36.02269125,
          "velocity": 0.7007874015748031
        },
        {
          "duration": 0.2272725000000051,
          "durationTicks": 480,
          "midi": 71,
          "name": "B4",
          "ticks": 76320,
          "time": 36.1363275,
          "velocity": 0.7007874015748031
        },
        {
          "duration": 0.227272499999998,
          "durationTicks": 480,
          "midi": 68,
          "name": "G#4",
          "ticks": 76800,
          "time": 36.363600000000005,
          "velocity": 0.7007874015748031
        },
        {
          "duration": 0.6818175000000011,
          "durationTicks": 1440,
          "midi": 71,
          "name": "B4",
          "ticks": 77280,
          "time": 36.5908725,
          "velocity": 0.7007874015748031
        },
        {
          "duration": 0.227272499999998,
          "durationTicks": 480,
          "midi": 68,
          "name": "G#4",
          "ticks": 79200,
          "time": 37.4999625,
          "velocity": 0.7007874015748031
        },
        {
          "duration": 0.113636249999999,
          "durationTicks": 240,
          "midi": 71,
          "name": "B4",
          "ticks": 79680,
          "time": 37.727235,
          "velocity": 0.7007874015748031
        },
        {
          "duration": 0.3409087500000041,
          "durationTicks": 720,
          "midi": 71,
          "name": "B4",
          "ticks": 79920,
          "time": 37.84087125,
          "velocity": 0.7007874015748031
        },
        {
          "duration": 0.3409087500000041,
          "durationTicks": 720,
          "midi": 71,
          "name": "B4",
          "ticks": 111360,
          "time": 52.72722,
          "velocity": 0.7007874015748031
        },
        {
          "duration": 0.113636249999999,
          "durationTicks": 240,
          "midi": 68,
          "name": "G#4",
          "ticks": 112080,
          "time": 53.06812875000001,
          "velocity": 0.7007874015748031
        },
        {
          "duration": 0.227272499999998,
          "durationTicks": 480,
          "midi": 66,
          "name": "F#4",
          "ticks": 112320,
          "time": 53.181765000000006,
          "velocity": 0.7007874015748031
        },
        {
          "duration": 0.227272499999998,
          "durationTicks": 480,
          "midi": 78,
          "name": "F#5",
          "ticks": 113760,
          "time": 53.86358250000001,
          "velocity": 0.7007874015748031
        },
        {
          "duration": 0.113636249999999,
          "durationTicks": 240,
          "midi": 75,
          "name": "D#5",
          "ticks": 114240,
          "time": 54.090855000000005,
          "velocity": 0.7007874015748031
        },
        {
          "duration": 0.113636249999999,
          "durationTicks": 240,
          "midi": 73,
          "name": "C#5",
          "ticks": 114480,
          "time": 54.204491250000004,
          "velocity": 0.7007874015748031
        },
        {
          "duration": 0.227272499999998,
          "durationTicks": 480,
          "midi": 71,
          "name": "B4",
          "ticks": 114720,
          "time": 54.3181275,
          "velocity": 0.7007874015748031
        },
        {
          "duration": 0.2272725000000051,
          "durationTicks": 480,
          "midi": 75,
          "name": "D#5",
          "ticks": 115200,
          "time": 54.5454,
          "velocity": 0.7007874015748031
        },
        {
          "duration": 1.136362499999997,
          "durationTicks": 2400,
          "midi": 78,
          "name": "F#5",
          "ticks": 115680,
          "time": 54.772672500000006,
          "velocity": 0.7007874015748031
        },
        {
          "duration": 1.363634999999995,
          "durationTicks": 2880,
          "midi": 78,
          "name": "F#5",
          "ticks": 119040,
          "time": 56.363580000000006,
          "velocity": 0.7007874015748031
        },
        {
          "duration": 0.1136362500000061,
          "durationTicks": 240,
          "midi": 75,
          "name": "D#5",
          "ticks": 121920,
          "time": 57.727215,
          "velocity": 0.7007874015748031
        },
        {
          "duration": 0.113636249999999,
          "durationTicks": 240,
          "midi": 73,
          "name": "C#5",
          "ticks": 122160,
          "time": 57.84085125000001,
          "velocity": 0.7007874015748031
        },
        {
          "duration": 0.227272499999998,
          "durationTicks": 480,
          "midi": 71,
          "name": "B4",
          "ticks": 122400,
          "time": 57.954487500000006,
          "velocity": 0.7007874015748031
        },
        {
          "duration": 0.227272499999998,
          "durationTicks": 480,
          "midi": 68,
          "name": "G#4",
          "ticks": 122880,
          "time": 58.181760000000004,
          "velocity": 0.7007874015748031
        },
        {
          "duration": 0.6818175000000011,
          "durationTicks": 1440,
          "midi": 71,
          "name": "B4",
          "ticks": 123360,
          "time": 58.4090325,
          "velocity": 0.7007874015748031
        },
        {
          "duration": 0.2272725000000051,
          "durationTicks": 480,
          "midi": 68,
          "name": "G#4",
          "ticks": 125280,
          "time": 59.3181225,
          "velocity": 0.7007874015748031
        },
        {
          "duration": 0.113636249999999,
          "durationTicks": 240,
          "midi": 71,
          "name": "B4",
          "ticks": 125760,
          "time": 59.545395000000006,
          "velocity": 0.7007874015748031
        },
        {
          "duration": 0.340908749999997,
          "durationTicks": 720,
          "midi": 71,
          "name": "B4",
          "ticks": 126000,
          "time": 59.659031250000005,
          "velocity": 0.7007874015748031
        },
        {
          "duration": 0.3409087500000041,
          "durationTicks": 720,
          "midi": 71,
          "name": "B4",
          "ticks": 126720,
          "time": 59.99994,
          "velocity": 0.7007874015748031
        },
        {
          "duration": 0.113636249999999,
          "durationTicks": 240,
          "midi": 68,
          "name": "G#4",
          "ticks": 127440,
          "time": 60.340848750000006,
          "velocity": 0.7007874015748031
        },
        {
          "duration": 0.227272499999998,
          "durationTicks": 480,
          "midi": 66,
          "name": "F#4",
          "ticks": 127680,
          "time": 60.454485000000005,
          "velocity": 0.7007874015748031
        },
        {
          "duration": 0.227272499999998,
          "durationTicks": 480,
          "midi": 78,
          "name": "F#5",
          "ticks": 129120,
          "time": 61.136302500000006,
          "velocity": 0.7007874015748031
        },
        {
          "duration": 0.113636249999999,
          "durationTicks": 240,
          "midi": 75,
          "name": "D#5",
          "ticks": 129600,
          "time": 61.363575000000004,
          "velocity": 0.7007874015748031
        },
        {
          "duration": 0.113636249999999,
          "durationTicks": 240,
          "midi": 73,
          "name": "C#5",
          "ticks": 129840,
          "time": 61.47721125,
          "velocity": 0.7007874015748031
        },
        {
          "duration": 0.2272725000000051,
          "durationTicks": 480,
          "midi": 71,
          "name": "B4",
          "ticks": 130080,
          "time": 61.5908475,
          "velocity": 0.7007874015748031
        },
        {
          "duration": 0.227272499999998,
          "durationTicks": 480,
          "midi": 75,
          "name": "D#5",
          "ticks": 130560,
          "time": 61.81812000000001,
          "velocity": 0.7007874015748031
        },
        {
          "duration": 1.136362499999997,
          "durationTicks": 2400,
          "midi": 78,
          "name": "F#5",
          "ticks": 131040,
          "time": 62.045392500000005,
          "velocity": 0.7007874015748031
        },
        {
          "duration": 1.3636350000000022,
          "durationTicks": 2880,
          "midi": 78,
          "name": "F#5",
          "ticks": 134400,
          "time": 63.636300000000006,
          "velocity": 0.7007874015748031
        },
        {
          "duration": 0.113636249999999,
          "durationTicks": 240,
          "midi": 75,
          "name": "D#5",
          "ticks": 137280,
          "time": 64.99993500000001,
          "velocity": 0.7007874015748031
        },
        {
          "duration": 0.113636249999999,
          "durationTicks": 240,
          "midi": 73,
          "name": "C#5",
          "ticks": 137520,
          "time": 65.11357125,
          "velocity": 0.7007874015748031
        },
        {
          "duration": 0.227272499999998,
          "durationTicks": 480,
          "midi": 71,
          "name": "B4",
          "ticks": 137760,
          "time": 65.2272075,
          "velocity": 0.7007874015748031
        },
        {
          "duration": 0.227272499999998,
          "durationTicks": 480,
          "midi": 68,
          "name": "G#4",
          "ticks": 138240,
          "time": 65.45448,
          "velocity": 0.7007874015748031
        },
        {
          "duration": 0.6818175000000082,
          "durationTicks": 1440,
          "midi": 71,
          "name": "B4",
          "ticks": 138720,
          "time": 65.6817525,
          "velocity": 0.7007874015748031
        },
        {
          "duration": 0.227272499999998,
          "durationTicks": 480,
          "midi": 68,
          "name": "G#4",
          "ticks": 140640,
          "time": 66.59084250000001,
          "velocity": 0.7007874015748031
        },
        {
          "duration": 0.113636249999999,
          "durationTicks": 240,
          "midi": 71,
          "name": "B4",
          "ticks": 141120,
          "time": 66.818115,
          "velocity": 0.7007874015748031
        },
        {
          "duration": 0.340908749999997,
          "durationTicks": 720,
          "midi": 71,
          "name": "B4",
          "ticks": 141360,
          "time": 66.93175125,
          "velocity": 0.7007874015748031
        },
        {
          "duration": 0.340908749999997,
          "durationTicks": 720,
          "midi": 71,
          "name": "B4",
          "ticks": 142080,
          "time": 67.27266,
          "velocity": 0.7007874015748031
        },
        {
          "duration": 0.113636249999999,
          "durationTicks": 240,
          "midi": 68,
          "name": "G#4",
          "ticks": 142800,
          "time": 67.61356875,
          "velocity": 0.7007874015748031
        },
        {
          "duration": 0.2272725000000122,
          "durationTicks": 480,
          "midi": 66,
          "name": "F#4",
          "ticks": 143040,
          "time": 67.727205,
          "velocity": 0.7007874015748031
        },
        {
          "duration": 0.227272499999998,
          "durationTicks": 480,
          "midi": 78,
          "name": "F#5",
          "ticks": 144480,
          "time": 68.4090225,
          "velocity": 0.7007874015748031
        },
        {
          "duration": 0.113636249999999,
          "durationTicks": 240,
          "midi": 75,
          "name": "D#5",
          "ticks": 144960,
          "time": 68.636295,
          "velocity": 0.7007874015748031
        },
        {
          "duration": 0.113636249999999,
          "durationTicks": 240,
          "midi": 73,
          "name": "C#5",
          "ticks": 145200,
          "time": 68.74993125,
          "velocity": 0.7007874015748031
        },
        {
          "duration": 0.227272499999998,
          "durationTicks": 480,
          "midi": 71,
          "name": "B4",
          "ticks": 145440,
          "time": 68.8635675,
          "velocity": 0.7007874015748031
        },
        {
          "duration": 0.227272499999998,
          "durationTicks": 480,
          "midi": 75,
          "name": "D#5",
          "ticks": 145920,
          "time": 69.09084,
          "velocity": 0.7007874015748031
        },
        {
          "duration": 1.1363625000000042,
          "durationTicks": 2400,
          "midi": 78,
          "name": "F#5",
          "ticks": 146400,
          "time": 69.3181125,
          "velocity": 0.7007874015748031
        },
        {
          "duration": 1.3636350000000022,
          "durationTicks": 2880,
          "midi": 78,
          "name": "F#5",
          "ticks": 149760,
          "time": 70.90902,
          "velocity": 0.7007874015748031
        },
        {
          "duration": 0.227272499999998,
          "durationTicks": 480,
          "midi": 68,
          "name": "G#4",
          "ticks": 153600,
          "time": 72.72720000000001,
          "velocity": 0.7007874015748031
        },
        {
          "duration": 0.681817499999994,
          "durationTicks": 1440,
          "midi": 71,
          "name": "B4",
          "ticks": 154080,
          "time": 72.95447250000001,
          "velocity": 0.7007874015748031
        },
        {
          "duration": 0.227272499999998,
          "durationTicks": 480,
          "midi": 68,
          "name": "G#4",
          "ticks": 156000,
          "time": 73.8635625,
          "velocity": 0.7007874015748031
        },
        {
          "duration": 0.1136362500000132,
          "durationTicks": 240,
          "midi": 71,
          "name": "B4",
          "ticks": 156480,
          "time": 74.090835,
          "velocity": 0.7007874015748031
        },
        {
          "duration": 0.340908749999997,
          "durationTicks": 720,
          "midi": 71,
          "name": "B4",
          "ticks": 156720,
          "time": 74.20447125000001,
          "velocity": 0.7007874015748031
        },
        {
          "duration": 0.340908749999997,
          "durationTicks": 720,
          "midi": 71,
          "name": "B4",
          "ticks": 157440,
          "time": 74.54538000000001,
          "velocity": 0.7007874015748031
        },
        {
          "duration": 0.113636249999999,
          "durationTicks": 240,
          "midi": 68,
          "name": "G#4",
          "ticks": 158160,
          "time": 74.88628875,
          "velocity": 0.7007874015748031
        },
        {
          "duration": 0.227272499999998,
          "durationTicks": 480,
          "midi": 66,
          "name": "F#4",
          "ticks": 158400,
          "time": 74.999925,
          "velocity": 0.7007874015748031
        },
        {
          "duration": 0.2272725000000122,
          "durationTicks": 480,
          "midi": 78,
          "name": "F#5",
          "ticks": 159840,
          "time": 75.6817425,
          "velocity": 0.7007874015748031
        },
        {
          "duration": 0.113636249999999,
          "durationTicks": 240,
          "midi": 75,
          "name": "D#5",
          "ticks": 160320,
          "time": 75.90901500000001,
          "velocity": 0.7007874015748031
        },
        {
          "duration": 0.113636249999999,
          "durationTicks": 240,
          "midi": 73,
          "name": "C#5",
          "ticks": 160560,
          "time": 76.02265125000001,
          "velocity": 0.7007874015748031
        },
        {
          "duration": 0.227272499999998,
          "durationTicks": 480,
          "midi": 71,
          "name": "B4",
          "ticks": 160800,
          "time": 76.13628750000001,
          "velocity": 0.7007874015748031
        },
        {
          "duration": 0.227272499999998,
          "durationTicks": 480,
          "midi": 75,
          "name": "D#5",
          "ticks": 161280,
          "time": 76.36356,
          "velocity": 0.7007874015748031
        },
        {
          "duration": 1.1363625000000042,
          "durationTicks": 2400,
          "midi": 78,
          "name": "F#5",
          "ticks": 161760,
          "time": 76.5908325,
          "velocity": 0.7007874015748031
        },
        {
          "duration": 1.3636350000000022,
          "durationTicks": 2880,
          "midi": 78,
          "name": "F#5",
          "ticks": 165120,
          "time": 78.18174,
          "velocity": 0.7007874015748031
        },
        {
          "duration": 0.113636249999999,
          "durationTicks": 240,
          "midi": 75,
          "name": "D#5",
          "ticks": 168000,
          "time": 79.545375,
          "velocity": 0.7007874015748031
        },
        {
          "duration": 0.113636249999999,
          "durationTicks": 240,
          "midi": 73,
          "name": "C#5",
          "ticks": 168240,
          "time": 79.65901125,
          "velocity": 0.7007874015748031
        },
        {
          "duration": 0.227272499999998,
          "durationTicks": 480,
          "midi": 71,
          "name": "B4",
          "ticks": 168480,
          "time": 79.7726475,
          "velocity": 0.7007874015748031
        },
        {
          "duration": 0.227272499999998,
          "durationTicks": 480,
          "midi": 68,
          "name": "G#4",
          "ticks": 168960,
          "time": 79.99992,
          "velocity": 0.7007874015748031
        },
        {
          "duration": 0.6818175000000082,
          "durationTicks": 1440,
          "midi": 71,
          "name": "B4",
          "ticks": 169440,
          "time": 80.2271925,
          "velocity": 0.7007874015748031
        },
        {
          "duration": 0.227272499999998,
          "durationTicks": 480,
          "midi": 68,
          "name": "G#4",
          "ticks": 171360,
          "time": 81.13628250000001,
          "velocity": 0.7007874015748031
        },
        {
          "duration": 0.113636249999999,
          "durationTicks": 240,
          "midi": 71,
          "name": "B4",
          "ticks": 171840,
          "time": 81.363555,
          "velocity": 0.7007874015748031
        },
        {
          "duration": 0.340908749999997,
          "durationTicks": 720,
          "midi": 71,
          "name": "B4",
          "ticks": 172080,
          "time": 81.47719125,
          "velocity": 0.7007874015748031
        },
        {
          "duration": 0.3409087500000112,
          "durationTicks": 720,
          "midi": 71,
          "name": "B4",
          "ticks": 172800,
          "time": 81.8181,
          "velocity": 0.7007874015748031
        },
        {
          "duration": 0.113636249999999,
          "durationTicks": 240,
          "midi": 68,
          "name": "G#4",
          "ticks": 173520,
          "time": 82.15900875000001,
          "velocity": 0.7007874015748031
        },
        {
          "duration": 0.227272499999998,
          "durationTicks": 480,
          "midi": 66,
          "name": "F#4",
          "ticks": 173760,
          "time": 82.27264500000001,
          "velocity": 0.7007874015748031
        },
        {
          "duration": 0.227272499999998,
          "durationTicks": 480,
          "midi": 78,
          "name": "F#5",
          "ticks": 175200,
          "time": 82.9544625,
          "velocity": 0.7007874015748031
        },
        {
          "duration": 0.113636249999999,
          "durationTicks": 240,
          "midi": 75,
          "name": "D#5",
          "ticks": 175680,
          "time": 83.181735,
          "velocity": 0.7007874015748031
        },
        {
          "duration": 0.113636249999999,
          "durationTicks": 240,
          "midi": 73,
          "name": "C#5",
          "ticks": 175920,
          "time": 83.29537125,
          "velocity": 0.7007874015748031
        },
        {
          "duration": 0.227272499999998,
          "durationTicks": 480,
          "midi": 71,
          "name": "B4",
          "ticks": 176160,
          "time": 83.4090075,
          "velocity": 0.7007874015748031
        },
        {
          "duration": 0.2272725000000122,
          "durationTicks": 480,
          "midi": 75,
          "name": "D#5",
          "ticks": 176640,
          "time": 83.63628,
          "velocity": 0.7007874015748031
        },
        {
          "duration": 1.13636249999999,
          "durationTicks": 2400,
          "midi": 78,
          "name": "F#5",
          "ticks": 177120,
          "time": 83.86355250000001,
          "velocity": 0.7007874015748031
        },
        {
          "duration": 1.363634999999988,
          "durationTicks": 2880,
          "midi": 78,
          "name": "F#5",
          "ticks": 180480,
          "time": 85.45446000000001,
          "velocity": 0.7007874015748031
        },
        {
          "duration": 0.1136362500000132,
          "durationTicks": 240,
          "midi": 75,
          "name": "D#5",
          "ticks": 183360,
          "time": 86.818095,
          "velocity": 0.7007874015748031
        },
        {
          "duration": 0.113636249999999,
          "durationTicks": 240,
          "midi": 73,
          "name": "C#5",
          "ticks": 183600,
          "time": 86.93173125000001,
          "velocity": 0.7007874015748031
        },
        {
          "duration": 0.227272499999998,
          "durationTicks": 480,
          "midi": 71,
          "name": "B4",
          "ticks": 183840,
          "time": 87.04536750000001,
          "velocity": 0.7007874015748031
        },
        {
          "duration": 0.227272499999998,
          "durationTicks": 480,
          "midi": 68,
          "name": "G#4",
          "ticks": 184320,
          "time": 87.27264000000001,
          "velocity": 0.7007874015748031
        },
        {
          "duration": 0.681817499999994,
          "durationTicks": 1440,
          "midi": 71,
          "name": "B4",
          "ticks": 184800,
          "time": 87.49991250000001,
          "velocity": 0.7007874015748031
        },
        {
          "duration": 0.2272725000000122,
          "durationTicks": 480,
          "midi": 68,
          "name": "G#4",
          "ticks": 186720,
          "time": 88.4090025,
          "velocity": 0.7007874015748031
        },
        {
          "duration": 0.113636249999999,
          "durationTicks": 240,
          "midi": 71,
          "name": "B4",
          "ticks": 187200,
          "time": 88.63627500000001,
          "velocity": 0.7007874015748031
        },
        {
          "duration": 0.340908749999997,
          "durationTicks": 720,
          "midi": 71,
          "name": "B4",
          "ticks": 187440,
          "time": 88.74991125000001,
          "velocity": 0.7007874015748031
        },
        {
          "duration": 0.340908749999997,
          "durationTicks": 720,
          "midi": 71,
          "name": "B4",
          "ticks": 188160,
          "time": 89.09082000000001,
          "velocity": 0.7007874015748031
        },
        {
          "duration": 0.113636249999999,
          "durationTicks": 240,
          "midi": 68,
          "name": "G#4",
          "ticks": 188880,
          "time": 89.43172875,
          "velocity": 0.7007874015748031
        },
        {
          "duration": 0.227272499999998,
          "durationTicks": 480,
          "midi": 66,
          "name": "F#4",
          "ticks": 189120,
          "time": 89.545365,
          "velocity": 0.7007874015748031
        },
        {
          "duration": 0.227272499999998,
          "durationTicks": 480,
          "midi": 78,
          "name": "F#5",
          "ticks": 190560,
          "time": 90.22718250000001,
          "velocity": 0.7007874015748031
        },
        {
          "duration": 0.113636249999999,
          "durationTicks": 240,
          "midi": 75,
          "name": "D#5",
          "ticks": 191040,
          "time": 90.45445500000001,
          "velocity": 0.7007874015748031
        },
        {
          "duration": 0.113636249999999,
          "durationTicks": 240,
          "midi": 73,
          "name": "C#5",
          "ticks": 191280,
          "time": 90.56809125000001,
          "velocity": 0.7007874015748031
        },
        {
          "duration": 0.227272499999998,
          "durationTicks": 480,
          "midi": 71,
          "name": "B4",
          "ticks": 191520,
          "time": 90.68172750000001,
          "velocity": 0.7007874015748031
        },
        {
          "duration": 0.227272499999998,
          "durationTicks": 480,
          "midi": 75,
          "name": "D#5",
          "ticks": 192000,
          "time": 90.909,
          "velocity": 0.7007874015748031
        },
        {
          "duration": 1.1363625000000042,
          "durationTicks": 2400,
          "midi": 78,
          "name": "F#5",
          "ticks": 192480,
          "time": 91.1362725,
          "velocity": 0.7007874015748031
        },
        {
          "duration": 1.3636350000000022,
          "durationTicks": 2880,
          "midi": 78,
          "name": "F#5",
          "ticks": 195840,
          "time": 92.72718,
          "velocity": 0.7007874015748031
        },
        {
          "duration": 0.113636249999999,
          "durationTicks": 240,
          "midi": 75,
          "name": "D#5",
          "ticks": 198720,
          "time": 94.090815,
          "velocity": 0.7007874015748031
        },
        {
          "duration": 0.113636249999999,
          "durationTicks": 240,
          "midi": 73,
          "name": "C#5",
          "ticks": 198960,
          "time": 94.20445125,
          "velocity": 0.7007874015748031
        },
        {
          "duration": 0.227272499999998,
          "durationTicks": 480,
          "midi": 71,
          "name": "B4",
          "ticks": 199200,
          "time": 94.3180875,
          "velocity": 0.7007874015748031
        },
        {
          "duration": 0.227272499999998,
          "durationTicks": 480,
          "midi": 68,
          "name": "G#4",
          "ticks": 199680,
          "time": 94.54536,
          "velocity": 0.7007874015748031
        },
        {
          "duration": 0.6818175000000082,
          "durationTicks": 1440,
          "midi": 71,
          "name": "B4",
          "ticks": 200160,
          "time": 94.7726325,
          "velocity": 0.7007874015748031
        },
        {
          "duration": 0.227272499999998,
          "durationTicks": 480,
          "midi": 68,
          "name": "G#4",
          "ticks": 202080,
          "time": 95.6817225,
          "velocity": 0.7007874015748031
        },
        {
          "duration": 0.113636249999999,
          "durationTicks": 240,
          "midi": 71,
          "name": "B4",
          "ticks": 202560,
          "time": 95.908995,
          "velocity": 0.7007874015748031
        },
        {
          "duration": 0.340908749999997,
          "durationTicks": 720,
          "midi": 71,
          "name": "B4",
          "ticks": 202800,
          "time": 96.02263125,
          "velocity": 0.7007874015748031
        },
        {
          "duration": 0.3409087500000112,
          "durationTicks": 720,
          "midi": 71,
          "name": "B4",
          "ticks": 203520,
          "time": 96.36354,
          "velocity": 0.7007874015748031
        },
        {
          "duration": 0.113636249999999,
          "durationTicks": 240,
          "midi": 68,
          "name": "G#4",
          "ticks": 204240,
          "time": 96.70444875000001,
          "velocity": 0.7007874015748031
        },
        {
          "duration": 0.227272499999998,
          "durationTicks": 480,
          "midi": 66,
          "name": "F#4",
          "ticks": 204480,
          "time": 96.81808500000001,
          "velocity": 0.7007874015748031
        },
        {
          "duration": 0.227272499999998,
          "durationTicks": 480,
          "midi": 78,
          "name": "F#5",
          "ticks": 205920,
          "time": 97.4999025,
          "velocity": 0.7007874015748031
        },
        {
          "duration": 0.113636249999999,
          "durationTicks": 240,
          "midi": 75,
          "name": "D#5",
          "ticks": 206400,
          "time": 97.727175,
          "velocity": 0.7007874015748031
        },
        {
          "duration": 0.113636249999999,
          "durationTicks": 240,
          "midi": 73,
          "name": "C#5",
          "ticks": 206640,
          "time": 97.84081125,
          "velocity": 0.7007874015748031
        },
        {
          "duration": 0.2272725000000122,
          "durationTicks": 480,
          "midi": 71,
          "name": "B4",
          "ticks": 206880,
          "time": 97.9544475,
          "velocity": 0.7007874015748031
        },
        {
          "duration": 0.227272499999998,
          "durationTicks": 480,
          "midi": 75,
          "name": "D#5",
          "ticks": 207360,
          "time": 98.18172000000001,
          "velocity": 0.7007874015748031
        },
        {
          "duration": 1.13636249999999,
          "durationTicks": 2400,
          "midi": 78,
          "name": "F#5",
          "ticks": 207840,
          "time": 98.40899250000001,
          "velocity": 0.7007874015748031
        },
        {
          "duration": 1.3636350000000022,
          "durationTicks": 2880,
          "midi": 78,
          "name": "F#5",
          "ticks": 211200,
          "time": 99.99990000000001,
          "velocity": 0.7007874015748031
        },
        {
          "duration": 0.113636249999999,
          "durationTicks": 240,
          "midi": 75,
          "name": "D#5",
          "ticks": 214080,
          "time": 101.36353500000001,
          "velocity": 0.7007874015748031
        },
        {
          "duration": 0.113636249999999,
          "durationTicks": 240,
          "midi": 73,
          "name": "C#5",
          "ticks": 214320,
          "time": 101.47717125000001,
          "velocity": 0.7007874015748031
        },
        {
          "duration": 0.227272499999998,
          "durationTicks": 480,
          "midi": 71,
          "name": "B4",
          "ticks": 214560,
          "time": 101.59080750000001,
          "velocity": 0.7007874015748031
        },
        {
          "duration": 0.227272499999998,
          "durationTicks": 480,
          "midi": 68,
          "name": "G#4",
          "ticks": 215040,
          "time": 101.81808000000001,
          "velocity": 0.7007874015748031
        },
        {
          "duration": 0.681817499999994,
          "durationTicks": 1440,
          "midi": 71,
          "name": "B4",
          "ticks": 215520,
          "time": 102.0453525,
          "velocity": 0.7007874015748031
        },
        {
          "duration": 0.227272499999998,
          "durationTicks": 480,
          "midi": 68,
          "name": "G#4",
          "ticks": 217440,
          "time": 102.95444250000001,
          "velocity": 0.7007874015748031
        },
        {
          "duration": 0.113636249999999,
          "durationTicks": 240,
          "midi": 71,
          "name": "B4",
          "ticks": 217920,
          "time": 103.18171500000001,
          "velocity": 0.7007874015748031
        },
        {
          "duration": 0.340908749999997,
          "durationTicks": 720,
          "midi": 71,
          "name": "B4",
          "ticks": 218160,
          "time": 103.29535125000001,
          "velocity": 0.7007874015748031
        },
        {
          "duration": 0.340908749999997,
          "durationTicks": 720,
          "midi": 71,
          "name": "B4",
          "ticks": 218880,
          "time": 103.63626000000001,
          "velocity": 0.7007874015748031
        },
        {
          "duration": 0.113636249999999,
          "durationTicks": 240,
          "midi": 68,
          "name": "G#4",
          "ticks": 219600,
          "time": 103.97716875,
          "velocity": 0.7007874015748031
        },
        {
          "duration": 0.227272499999998,
          "durationTicks": 480,
          "midi": 66,
          "name": "F#4",
          "ticks": 219840,
          "time": 104.090805,
          "velocity": 0.7007874015748031
        },
        {
          "duration": 0.227272499999998,
          "durationTicks": 480,
          "midi": 78,
          "name": "F#5",
          "ticks": 221280,
          "time": 104.77262250000001,
          "velocity": 0.7007874015748031
        },
        {
          "duration": 0.113636249999999,
          "durationTicks": 240,
          "midi": 75,
          "name": "D#5",
          "ticks": 221760,
          "time": 104.99989500000001,
          "velocity": 0.7007874015748031
        },
        {
          "duration": 0.113636249999999,
          "durationTicks": 240,
          "midi": 73,
          "name": "C#5",
          "ticks": 222000,
          "time": 105.11353125000001,
          "velocity": 0.7007874015748031
        },
        {
          "duration": 0.227272499999998,
          "durationTicks": 480,
          "midi": 71,
          "name": "B4",
          "ticks": 222240,
          "time": 105.22716750000001,
          "velocity": 0.7007874015748031
        },
        {
          "duration": 0.227272499999998,
          "durationTicks": 480,
          "midi": 75,
          "name": "D#5",
          "ticks": 222720,
          "time": 105.45444,
          "velocity": 0.7007874015748031
        },
        {
          "duration": 1.1363625000000042,
          "durationTicks": 2400,
          "midi": 78,
          "name": "F#5",
          "ticks": 223200,
          "time": 105.6817125,
          "velocity": 0.7007874015748031
        },
        {
          "duration": 1.3636350000000022,
          "durationTicks": 2880,
          "midi": 78,
          "name": "F#5",
          "ticks": 226560,
          "time": 107.27262,
          "velocity": 0.7007874015748031
        },
        {
          "duration": 0.113636249999999,
          "durationTicks": 240,
          "midi": 75,
          "name": "D#5",
          "ticks": 229440,
          "time": 108.636255,
          "velocity": 0.7007874015748031
        },
        {
          "duration": 0.113636249999999,
          "durationTicks": 240,
          "midi": 73,
          "name": "C#5",
          "ticks": 229680,
          "time": 108.74989125,
          "velocity": 0.7007874015748031
        },
        {
          "duration": 0.227272499999998,
          "durationTicks": 480,
          "midi": 71,
          "name": "B4",
          "ticks": 229920,
          "time": 108.8635275,
          "velocity": 0.7007874015748031
        },
        {
          "duration": 0.2272725000000122,
          "durationTicks": 480,
          "midi": 68,
          "name": "G#4",
          "ticks": 230400,
          "time": 109.0908,
          "velocity": 0.7007874015748031
        },
        {
          "duration": 0.681817499999994,
          "durationTicks": 1440,
          "midi": 71,
          "name": "B4",
          "ticks": 230880,
          "time": 109.31807250000001,
          "velocity": 0.7007874015748031
        },
        {
          "duration": 0.227272499999998,
          "durationTicks": 480,
          "midi": 68,
          "name": "G#4",
          "ticks": 232800,
          "time": 110.2271625,
          "velocity": 0.7007874015748031
        },
        {
          "duration": 0.113636249999999,
          "durationTicks": 240,
          "midi": 71,
          "name": "B4",
          "ticks": 233280,
          "time": 110.454435,
          "velocity": 0.7007874015748031
        },
        {
          "duration": 0.3409087500000112,
          "durationTicks": 720,
          "midi": 71,
          "name": "B4",
          "ticks": 233520,
          "time": 110.56807125,
          "velocity": 0.7007874015748031
        },
        {
          "duration": 0.340908749999997,
          "durationTicks": 720,
          "midi": 71,
          "name": "B4",
          "ticks": 264960,
          "time": 125.45442000000001,
          "velocity": 0.7007874015748031
        },
        {
          "duration": 0.113636249999999,
          "durationTicks": 240,
          "midi": 68,
          "name": "G#4",
          "ticks": 265680,
          "time": 125.79532875000001,
          "velocity": 0.7007874015748031
        },
        {
          "duration": 0.227272499999998,
          "durationTicks": 480,
          "midi": 66,
          "name": "F#4",
          "ticks": 265920,
          "time": 125.90896500000001,
          "velocity": 0.7007874015748031
        },
        {
          "duration": 0.2272725000000122,
          "durationTicks": 480,
          "midi": 78,
          "name": "F#5",
          "ticks": 267360,
          "time": 126.5907825,
          "velocity": 0.7007874015748031
        },
        {
          "duration": 0.113636249999999,
          "durationTicks": 240,
          "midi": 75,
          "name": "D#5",
          "ticks": 267840,
          "time": 126.81805500000002,
          "velocity": 0.7007874015748031
        },
        {
          "duration": 0.113636249999999,
          "durationTicks": 240,
          "midi": 73,
          "name": "C#5",
          "ticks": 268080,
          "time": 126.93169125000001,
          "velocity": 0.7007874015748031
        },
        {
          "duration": 0.227272499999998,
          "durationTicks": 480,
          "midi": 71,
          "name": "B4",
          "ticks": 268320,
          "time": 127.04532750000001,
          "velocity": 0.7007874015748031
        },
        {
          "duration": 0.227272499999998,
          "durationTicks": 480,
          "midi": 75,
          "name": "D#5",
          "ticks": 268800,
          "time": 127.27260000000001,
          "velocity": 0.7007874015748031
        },
        {
          "duration": 1.13636249999999,
          "durationTicks": 2400,
          "midi": 78,
          "name": "F#5",
          "ticks": 269280,
          "time": 127.49987250000001,
          "velocity": 0.7007874015748031
        },
        {
          "duration": 1.3636350000000164,
          "durationTicks": 2880,
          "midi": 78,
          "name": "F#5",
          "ticks": 272640,
          "time": 129.09078,
          "velocity": 0.7007874015748031
        },
        {
          "duration": 0.11363624999998478,
          "durationTicks": 240,
          "midi": 75,
          "name": "D#5",
          "ticks": 275520,
          "time": 130.454415,
          "velocity": 0.7007874015748031
        },
        {
          "duration": 0.1136362500000132,
          "durationTicks": 240,
          "midi": 73,
          "name": "C#5",
          "ticks": 275760,
          "time": 130.56805125,
          "velocity": 0.7007874015748031
        },
        {
          "duration": 0.227272499999998,
          "durationTicks": 480,
          "midi": 71,
          "name": "B4",
          "ticks": 276000,
          "time": 130.6816875,
          "velocity": 0.7007874015748031
        },
        {
          "duration": 0.227272499999998,
          "durationTicks": 480,
          "midi": 68,
          "name": "G#4",
          "ticks": 276480,
          "time": 130.90896,
          "velocity": 0.7007874015748031
        },
        {
          "duration": 0.681817499999994,
          "durationTicks": 1440,
          "midi": 71,
          "name": "B4",
          "ticks": 276960,
          "time": 131.1362325,
          "velocity": 0.7007874015748031
        },
        {
          "duration": 0.227272499999998,
          "durationTicks": 480,
          "midi": 68,
          "name": "G#4",
          "ticks": 278880,
          "time": 132.0453225,
          "velocity": 0.7007874015748031
        },
        {
          "duration": 0.1136362500000132,
          "durationTicks": 240,
          "midi": 71,
          "name": "B4",
          "ticks": 279360,
          "time": 132.272595,
          "velocity": 0.7007874015748031
        },
        {
          "duration": 0.3409087500000112,
          "durationTicks": 720,
          "midi": 71,
          "name": "B4",
          "ticks": 279600,
          "time": 132.38623125,
          "velocity": 0.7007874015748031
        },
        {
          "duration": 0.3409087499999828,
          "durationTicks": 720,
          "midi": 71,
          "name": "B4",
          "ticks": 280320,
          "time": 132.72714000000002,
          "velocity": 0.7007874015748031
        },
        {
          "duration": 0.1136362500000132,
          "durationTicks": 240,
          "midi": 68,
          "name": "G#4",
          "ticks": 281040,
          "time": 133.06804875,
          "velocity": 0.7007874015748031
        },
        {
          "duration": 0.227272499999998,
          "durationTicks": 480,
          "midi": 66,
          "name": "F#4",
          "ticks": 281280,
          "time": 133.18168500000002,
          "velocity": 0.7007874015748031
        },
        {
          "duration": 0.227272499999998,
          "durationTicks": 480,
          "midi": 78,
          "name": "F#5",
          "ticks": 282720,
          "time": 133.8635025,
          "velocity": 0.7007874015748031
        },
        {
          "duration": 0.1136362500000132,
          "durationTicks": 240,
          "midi": 75,
          "name": "D#5",
          "ticks": 283200,
          "time": 134.090775,
          "velocity": 0.7007874015748031
        },
        {
          "duration": 0.11363624999998478,
          "durationTicks": 240,
          "midi": 73,
          "name": "C#5",
          "ticks": 283440,
          "time": 134.20441125000002,
          "velocity": 0.7007874015748031
        },
        {
          "duration": 0.227272499999998,
          "durationTicks": 480,
          "midi": 71,
          "name": "B4",
          "ticks": 283680,
          "time": 134.3180475,
          "velocity": 0.7007874015748031
        },
        {
          "duration": 0.227272499999998,
          "durationTicks": 480,
          "midi": 75,
          "name": "D#5",
          "ticks": 284160,
          "time": 134.54532,
          "velocity": 0.7007874015748031
        },
        {
          "duration": 1.1363625000000184,
          "durationTicks": 2400,
          "midi": 78,
          "name": "F#5",
          "ticks": 284640,
          "time": 134.7725925,
          "velocity": 0.7007874015748031
        },
        {
          "duration": 1.363634999999988,
          "durationTicks": 2880,
          "midi": 78,
          "name": "F#5",
          "ticks": 288000,
          "time": 136.36350000000002,
          "velocity": 0.7007874015748031
        },
        {
          "duration": 0.1136362500000132,
          "durationTicks": 240,
          "midi": 75,
          "name": "D#5",
          "ticks": 290880,
          "time": 137.727135,
          "velocity": 0.7007874015748031
        },
        {
          "duration": 0.11363624999998478,
          "durationTicks": 240,
          "midi": 73,
          "name": "C#5",
          "ticks": 291120,
          "time": 137.84077125000002,
          "velocity": 0.7007874015748031
        },
        {
          "duration": 0.227272499999998,
          "durationTicks": 480,
          "midi": 71,
          "name": "B4",
          "ticks": 291360,
          "time": 137.9544075,
          "velocity": 0.7007874015748031
        },
        {
          "duration": 0.227272499999998,
          "durationTicks": 480,
          "midi": 68,
          "name": "G#4",
          "ticks": 291840,
          "time": 138.18168,
          "velocity": 0.7007874015748031
        },
        {
          "duration": 0.6818175000000224,
          "durationTicks": 1440,
          "midi": 71,
          "name": "B4",
          "ticks": 292320,
          "time": 138.4089525,
          "velocity": 0.7007874015748031
        },
        {
          "duration": 0.227272499999998,
          "durationTicks": 480,
          "midi": 68,
          "name": "G#4",
          "ticks": 294240,
          "time": 139.31804250000002,
          "velocity": 0.7007874015748031
        },
        {
          "duration": 0.11363624999998478,
          "durationTicks": 240,
          "midi": 71,
          "name": "B4",
          "ticks": 294720,
          "time": 139.54531500000002,
          "velocity": 0.7007874015748031
        },
        {
          "duration": 0.3409087500000112,
          "durationTicks": 720,
          "midi": 71,
          "name": "B4",
          "ticks": 294960,
          "time": 139.65895125,
          "velocity": 0.7007874015748031
        },
        {
          "duration": 0.3409087500000112,
          "durationTicks": 720,
          "midi": 71,
          "name": "B4",
          "ticks": 295680,
          "time": 139.99986,
          "velocity": 0.7007874015748031
        },
        {
          "duration": 0.11363624999998478,
          "durationTicks": 240,
          "midi": 68,
          "name": "G#4",
          "ticks": 296400,
          "time": 140.34076875000002,
          "velocity": 0.7007874015748031
        },
        {
          "duration": 0.227272499999998,
          "durationTicks": 480,
          "midi": 66,
          "name": "F#4",
          "ticks": 296640,
          "time": 140.454405,
          "velocity": 0.7007874015748031
        },
        {
          "duration": 0.227272499999998,
          "durationTicks": 480,
          "midi": 78,
          "name": "F#5",
          "ticks": 298080,
          "time": 141.1362225,
          "velocity": 0.7007874015748031
        },
        {
          "duration": 0.1136362500000132,
          "durationTicks": 240,
          "midi": 75,
          "name": "D#5",
          "ticks": 298560,
          "time": 141.363495,
          "velocity": 0.7007874015748031
        },
        {
          "duration": 0.11363624999998478,
          "durationTicks": 240,
          "midi": 73,
          "name": "C#5",
          "ticks": 298800,
          "time": 141.47713125,
          "velocity": 0.7007874015748031
        },
        {
          "duration": 0.227272499999998,
          "durationTicks": 480,
          "midi": 71,
          "name": "B4",
          "ticks": 299040,
          "time": 141.5907675,
          "velocity": 0.7007874015748031
        },
        {
          "duration": 0.2272725000000264,
          "durationTicks": 480,
          "midi": 75,
          "name": "D#5",
          "ticks": 299520,
          "time": 141.81804,
          "velocity": 0.7007874015748031
        },
        {
          "duration": 1.13636249999999,
          "durationTicks": 2400,
          "midi": 78,
          "name": "F#5",
          "ticks": 300000,
          "time": 142.04531250000002,
          "velocity": 0.7007874015748031
        },
        {
          "duration": 1.363634999999988,
          "durationTicks": 2880,
          "midi": 78,
          "name": "F#5",
          "ticks": 303360,
          "time": 143.63622,
          "velocity": 0.7007874015748031
        },
        {
          "duration": 0.227272499999998,
          "durationTicks": 480,
          "midi": 68,
          "name": "G#4",
          "ticks": 307200,
          "time": 145.45440000000002,
          "velocity": 0.7007874015748031
        },
        {
          "duration": 0.681817499999994,
          "durationTicks": 1440,
          "midi": 71,
          "name": "B4",
          "ticks": 307680,
          "time": 145.68167250000002,
          "velocity": 0.7007874015748031
        },
        {
          "duration": 0.227272499999998,
          "durationTicks": 480,
          "midi": 68,
          "name": "G#4",
          "ticks": 309600,
          "time": 146.5907625,
          "velocity": 0.7007874015748031
        },
        {
          "duration": 0.1136362500000132,
          "durationTicks": 240,
          "midi": 71,
          "name": "B4",
          "ticks": 310080,
          "time": 146.818035,
          "velocity": 0.7007874015748031
        },
        {
          "duration": 0.3409087499999828,
          "durationTicks": 720,
          "midi": 71,
          "name": "B4",
          "ticks": 310320,
          "time": 146.93167125000002,
          "velocity": 0.7007874015748031
        },
        {
          "duration": 0.3409087500000112,
          "durationTicks": 720,
          "midi": 71,
          "name": "B4",
          "ticks": 311040,
          "time": 147.27258,
          "velocity": 0.7007874015748031
        },
        {
          "duration": 0.11363624999998478,
          "durationTicks": 240,
          "midi": 68,
          "name": "G#4",
          "ticks": 311760,
          "time": 147.61348875000002,
          "velocity": 0.7007874015748031
        },
        {
          "duration": 0.227272499999998,
          "durationTicks": 480,
          "midi": 66,
          "name": "F#4",
          "ticks": 312000,
          "time": 147.727125,
          "velocity": 0.7007874015748031
        },
        {
          "duration": 0.227272499999998,
          "durationTicks": 480,
          "midi": 78,
          "name": "F#5",
          "ticks": 313440,
          "time": 148.40894250000002,
          "velocity": 0.7007874015748031
        },
        {
          "duration": 0.11363624999998478,
          "durationTicks": 240,
          "midi": 75,
          "name": "D#5",
          "ticks": 313920,
          "time": 148.63621500000002,
          "velocity": 0.7007874015748031
        },
        {
          "duration": 0.1136362500000132,
          "durationTicks": 240,
          "midi": 73,
          "name": "C#5",
          "ticks": 314160,
          "time": 148.74985125,
          "velocity": 0.7007874015748031
        },
        {
          "duration": 0.227272499999998,
          "durationTicks": 480,
          "midi": 71,
          "name": "B4",
          "ticks": 314400,
          "time": 148.86348750000002,
          "velocity": 0.7007874015748031
        },
        {
          "duration": 0.227272499999998,
          "durationTicks": 480,
          "midi": 75,
          "name": "D#5",
          "ticks": 314880,
          "time": 149.09076000000002,
          "velocity": 0.7007874015748031
        },
        {
          "duration": 1.13636249999999,
          "durationTicks": 2400,
          "midi": 78,
          "name": "F#5",
          "ticks": 315360,
          "time": 149.31803250000002,
          "velocity": 0.7007874015748031
        },
        {
          "duration": 1.3636350000000164,
          "durationTicks": 2880,
          "midi": 78,
          "name": "F#5",
          "ticks": 318720,
          "time": 150.90894,
          "velocity": 0.7007874015748031
        },
        {
          "duration": 0.11363624999998478,
          "durationTicks": 240,
          "midi": 75,
          "name": "D#5",
          "ticks": 321600,
          "time": 152.27257500000002,
          "velocity": 0.7007874015748031
        },
        {
          "duration": 0.1136362500000132,
          "durationTicks": 240,
          "midi": 73,
          "name": "C#5",
          "ticks": 321840,
          "time": 152.38621125,
          "velocity": 0.7007874015748031
        },
        {
          "duration": 0.227272499999998,
          "durationTicks": 480,
          "midi": 71,
          "name": "B4",
          "ticks": 322080,
          "time": 152.49984750000002,
          "velocity": 0.7007874015748031
        },
        {
          "duration": 0.227272499999998,
          "durationTicks": 480,
          "midi": 68,
          "name": "G#4",
          "ticks": 322560,
          "time": 152.72712,
          "velocity": 0.7007874015748031
        },
        {
          "duration": 0.681817499999994,
          "durationTicks": 1440,
          "midi": 71,
          "name": "B4",
          "ticks": 323040,
          "time": 152.9543925,
          "velocity": 0.7007874015748031
        },
        {
          "duration": 0.227272499999998,
          "durationTicks": 480,
          "midi": 68,
          "name": "G#4",
          "ticks": 324960,
          "time": 153.8634825,
          "velocity": 0.7007874015748031
        },
        {
          "duration": 0.1136362500000132,
          "durationTicks": 240,
          "midi": 71,
          "name": "B4",
          "ticks": 325440,
          "time": 154.090755,
          "velocity": 0.7007874015748031
        },
        {
          "duration": 0.3409087499999828,
          "durationTicks": 720,
          "midi": 71,
          "name": "B4",
          "ticks": 325680,
          "time": 154.20439125000001,
          "velocity": 0.7007874015748031
        },
        {
          "duration": 0.3409087500000112,
          "durationTicks": 720,
          "midi": 71,
          "name": "B4",
          "ticks": 326400,
          "time": 154.5453,
          "velocity": 0.7007874015748031
        },
        {
          "duration": 0.1136362500000132,
          "durationTicks": 240,
          "midi": 68,
          "name": "G#4",
          "ticks": 327120,
          "time": 154.88620875,
          "velocity": 0.7007874015748031
        },
        {
          "duration": 0.227272499999998,
          "durationTicks": 480,
          "midi": 66,
          "name": "F#4",
          "ticks": 327360,
          "time": 154.99984500000002,
          "velocity": 0.7007874015748031
        },
        {
          "duration": 0.227272499999998,
          "durationTicks": 480,
          "midi": 78,
          "name": "F#5",
          "ticks": 328800,
          "time": 155.68166250000002,
          "velocity": 0.7007874015748031
        },
        {
          "duration": 0.11363624999998478,
          "durationTicks": 240,
          "midi": 75,
          "name": "D#5",
          "ticks": 329280,
          "time": 155.908935,
          "velocity": 0.7007874015748031
        },
        {
          "duration": 0.1136362500000132,
          "durationTicks": 240,
          "midi": 73,
          "name": "C#5",
          "ticks": 329520,
          "time": 156.02257125,
          "velocity": 0.7007874015748031
        },
        {
          "duration": 0.227272499999998,
          "durationTicks": 480,
          "midi": 71,
          "name": "B4",
          "ticks": 329760,
          "time": 156.1362075,
          "velocity": 0.7007874015748031
        },
        {
          "duration": 0.227272499999998,
          "durationTicks": 480,
          "midi": 75,
          "name": "D#5",
          "ticks": 330240,
          "time": 156.36348,
          "velocity": 0.7007874015748031
        },
        {
          "duration": 1.13636249999999,
          "durationTicks": 2400,
          "midi": 78,
          "name": "F#5",
          "ticks": 330720,
          "time": 156.5907525,
          "velocity": 0.7007874015748031
        },
        {
          "duration": 1.363634999999988,
          "durationTicks": 2880,
          "midi": 78,
          "name": "F#5",
          "ticks": 334080,
          "time": 158.18166000000002,
          "velocity": 0.7007874015748031
        },
        {
          "duration": 0.1136362500000132,
          "durationTicks": 240,
          "midi": 75,
          "name": "D#5",
          "ticks": 336960,
          "time": 159.545295,
          "velocity": 0.7007874015748031
        },
        {
          "duration": 0.11363624999998478,
          "durationTicks": 240,
          "midi": 73,
          "name": "C#5",
          "ticks": 337200,
          "time": 159.65893125000002,
          "velocity": 0.7007874015748031
        },
        {
          "duration": 0.227272499999998,
          "durationTicks": 480,
          "midi": 71,
          "name": "B4",
          "ticks": 337440,
          "time": 159.7725675,
          "velocity": 0.7007874015748031
        },
        {
          "duration": 0.227272499999998,
          "durationTicks": 480,
          "midi": 68,
          "name": "G#4",
          "ticks": 337920,
          "time": 159.99984,
          "velocity": 0.7007874015748031
        },
        {
          "duration": 0.681817499999994,
          "durationTicks": 1440,
          "midi": 71,
          "name": "B4",
          "ticks": 338400,
          "time": 160.2271125,
          "velocity": 0.7007874015748031
        },
        {
          "duration": 0.227272499999998,
          "durationTicks": 480,
          "midi": 68,
          "name": "G#4",
          "ticks": 340320,
          "time": 161.13620250000002,
          "velocity": 0.7007874015748031
        },
        {
          "duration": 0.11363624999998478,
          "durationTicks": 240,
          "midi": 71,
          "name": "B4",
          "ticks": 340800,
          "time": 161.36347500000002,
          "velocity": 0.7007874015748031
        },
        {
          "duration": 0.3409087500000112,
          "durationTicks": 720,
          "midi": 71,
          "name": "B4",
          "ticks": 341040,
          "time": 161.47711125,
          "velocity": 0.7007874015748031
        },
        {
          "duration": 0.3409087499999828,
          "durationTicks": 720,
          "midi": 71,
          "name": "B4",
          "ticks": 341760,
          "time": 161.81802000000002,
          "velocity": 0.7007874015748031
        },
        {
          "duration": 0.1136362500000132,
          "durationTicks": 240,
          "midi": 68,
          "name": "G#4",
          "ticks": 342480,
          "time": 162.15892875,
          "velocity": 0.7007874015748031
        },
        {
          "duration": 0.227272499999998,
          "durationTicks": 480,
          "midi": 66,
          "name": "F#4",
          "ticks": 342720,
          "time": 162.27256500000001,
          "velocity": 0.7007874015748031
        },
        {
          "duration": 0.227272499999998,
          "durationTicks": 480,
          "midi": 78,
          "name": "F#5",
          "ticks": 344160,
          "time": 162.9543825,
          "velocity": 0.7007874015748031
        },
        {
          "duration": 0.1136362500000132,
          "durationTicks": 240,
          "midi": 75,
          "name": "D#5",
          "ticks": 344640,
          "time": 163.181655,
          "velocity": 0.7007874015748031
        },
        {
          "duration": 0.11363624999998478,
          "durationTicks": 240,
          "midi": 73,
          "name": "C#5",
          "ticks": 344880,
          "time": 163.29529125000002,
          "velocity": 0.7007874015748031
        },
        {
          "duration": 0.227272499999998,
          "durationTicks": 480,
          "midi": 71,
          "name": "B4",
          "ticks": 345120,
          "time": 163.4089275,
          "velocity": 0.7007874015748031
        },
        {
          "duration": 0.227272499999998,
          "durationTicks": 480,
          "midi": 75,
          "name": "D#5",
          "ticks": 345600,
          "time": 163.6362,
          "velocity": 0.7007874015748031
        },
        {
          "duration": 1.1363625000000184,
          "durationTicks": 2400,
          "midi": 78,
          "name": "F#5",
          "ticks": 346080,
          "time": 163.8634725,
          "velocity": 0.7007874015748031
        },
        {
          "duration": 1.363634999999988,
          "durationTicks": 2880,
          "midi": 78,
          "name": "F#5",
          "ticks": 349440,
          "time": 165.45438000000001,
          "velocity": 0.7007874015748031
        },
        {
          "duration": 0.1136362500000132,
          "durationTicks": 240,
          "midi": 75,
          "name": "D#5",
          "ticks": 352320,
          "time": 166.818015,
          "velocity": 0.7007874015748031
        },
        {
          "duration": 0.11363624999998478,
          "durationTicks": 240,
          "midi": 73,
          "name": "C#5",
          "ticks": 352560,
          "time": 166.93165125000002,
          "velocity": 0.7007874015748031
        },
        {
          "duration": 0.227272499999998,
          "durationTicks": 480,
          "midi": 71,
          "name": "B4",
          "ticks": 352800,
          "time": 167.0452875,
          "velocity": 0.7007874015748031
        },
        {
          "duration": 0.2272725000000264,
          "durationTicks": 480,
          "midi": 68,
          "name": "G#4",
          "ticks": 353280,
          "time": 167.27256,
          "velocity": 0.7007874015748031
        },
        {
          "duration": 0.681817499999994,
          "durationTicks": 1440,
          "midi": 71,
          "name": "B4",
          "ticks": 353760,
          "time": 167.49983250000002,
          "velocity": 0.7007874015748031
        },
        {
          "duration": 0.227272499999998,
          "durationTicks": 480,
          "midi": 68,
          "name": "G#4",
          "ticks": 355680,
          "time": 168.40892250000002,
          "velocity": 0.7007874015748031
        },
        {
          "duration": 0.11363624999998478,
          "durationTicks": 240,
          "midi": 71,
          "name": "B4",
          "ticks": 356160,
          "time": 168.63619500000001,
          "velocity": 0.7007874015748031
        },
        {
          "duration": 0.3409087500000112,
          "durationTicks": 720,
          "midi": 71,
          "name": "B4",
          "ticks": 356400,
          "time": 168.74983125,
          "velocity": 0.7007874015748031
        },
        {
          "duration": 0.3409087500000112,
          "durationTicks": 720,
          "midi": 71,
          "name": "B4",
          "ticks": 357120,
          "time": 169.09074,
          "velocity": 0.7007874015748031
        },
        {
          "duration": 0.11363624999998478,
          "durationTicks": 240,
          "midi": 68,
          "name": "G#4",
          "ticks": 357840,
          "time": 169.43164875000002,
          "velocity": 0.7007874015748031
        },
        {
          "duration": 0.227272499999998,
          "durationTicks": 480,
          "midi": 66,
          "name": "F#4",
          "ticks": 358080,
          "time": 169.545285,
          "velocity": 0.7007874015748031
        },
        {
          "duration": 0.227272499999998,
          "durationTicks": 480,
          "midi": 78,
          "name": "F#5",
          "ticks": 359520,
          "time": 170.2271025,
          "velocity": 0.7007874015748031
        },
        {
          "duration": 0.1136362500000132,
          "durationTicks": 240,
          "midi": 75,
          "name": "D#5",
          "ticks": 360000,
          "time": 170.454375,
          "velocity": 0.7007874015748031
        },
        {
          "duration": 0.1136362500000132,
          "durationTicks": 240,
          "midi": 73,
          "name": "C#5",
          "ticks": 360240,
          "time": 170.56801125,
          "velocity": 0.7007874015748031
        },
        {
          "duration": 0.227272499999998,
          "durationTicks": 480,
          "midi": 71,
          "name": "B4",
          "ticks": 360480,
          "time": 170.68164750000003,
          "velocity": 0.7007874015748031
        },
        {
          "duration": 0.227272499999998,
          "durationTicks": 480,
          "midi": 75,
          "name": "D#5",
          "ticks": 360960,
          "time": 170.90892000000002,
          "velocity": 0.7007874015748031
        },
        {
          "duration": 1.13636249999999,
          "durationTicks": 2400,
          "midi": 78,
          "name": "F#5",
          "ticks": 361440,
          "time": 171.13619250000002,
          "velocity": 0.7007874015748031
        },
        {
          "duration": 1.3636350000000164,
          "durationTicks": 2880,
          "midi": 78,
          "name": "F#5",
          "ticks": 364800,
          "time": 172.7271,
          "velocity": 0.7007874015748031
        },
        {
          "duration": 0.11363624999998478,
          "durationTicks": 240,
          "midi": 75,
          "name": "D#5",
          "ticks": 367680,
          "time": 174.09073500000002,
          "velocity": 0.7007874015748031
        },
        {
          "duration": 0.1136362500000132,
          "durationTicks": 240,
          "midi": 73,
          "name": "C#5",
          "ticks": 367920,
          "time": 174.20437125,
          "velocity": 0.7007874015748031
        },
        {
          "duration": 0.227272499999998,
          "durationTicks": 480,
          "midi": 71,
          "name": "B4",
          "ticks": 368160,
          "time": 174.31800750000002,
          "velocity": 0.7007874015748031
        },
        {
          "duration": 0.227272499999998,
          "durationTicks": 480,
          "midi": 68,
          "name": "G#4",
          "ticks": 368640,
          "time": 174.54528000000002,
          "velocity": 0.7007874015748031
        },
        {
          "duration": 0.681817499999994,
          "durationTicks": 1440,
          "midi": 71,
          "name": "B4",
          "ticks": 369120,
          "time": 174.77255250000002,
          "velocity": 0.7007874015748031
        },
        {
          "duration": 0.227272499999998,
          "durationTicks": 480,
          "midi": 68,
          "name": "G#4",
          "ticks": 371040,
          "time": 175.6816425,
          "velocity": 0.7007874015748031
        },
        {
          "duration": 0.1136362500000132,
          "durationTicks": 240,
          "midi": 71,
          "name": "B4",
          "ticks": 371520,
          "time": 175.908915,
          "velocity": 0.7007874015748031
        },
        {
          "duration": 0.3409087499999828,
          "durationTicks": 720,
          "midi": 71,
          "name": "B4",
          "ticks": 371760,
          "time": 176.02255125000002,
          "velocity": 0.7007874015748031
        },
        {
          "duration": 0.3409087500000112,
          "durationTicks": 720,
          "midi": 71,
          "name": "B4",
          "ticks": 372480,
          "time": 176.36346,
          "velocity": 0.7007874015748031
        },
        {
          "duration": 0.11363624999998478,
          "durationTicks": 240,
          "midi": 68,
          "name": "G#4",
          "ticks": 373200,
          "time": 176.70436875000001,
          "velocity": 0.7007874015748031
        },
        {
          "duration": 0.2272725000000264,
          "durationTicks": 480,
          "midi": 66,
          "name": "F#4",
          "ticks": 373440,
          "time": 176.818005,
          "velocity": 0.7007874015748031
        },
        {
          "duration": 0.227272499999998,
          "durationTicks": 480,
          "midi": 78,
          "name": "F#5",
          "ticks": 374880,
          "time": 177.49982250000002,
          "velocity": 0.7007874015748031
        },
        {
          "duration": 0.11363624999998478,
          "durationTicks": 240,
          "midi": 75,
          "name": "D#5",
          "ticks": 375360,
          "time": 177.72709500000002,
          "velocity": 0.7007874015748031
        },
        {
          "duration": 0.1136362500000132,
          "durationTicks": 240,
          "midi": 73,
          "name": "C#5",
          "ticks": 375600,
          "time": 177.84073125,
          "velocity": 0.7007874015748031
        },
        {
          "duration": 0.227272499999998,
          "durationTicks": 480,
          "midi": 71,
          "name": "B4",
          "ticks": 375840,
          "time": 177.95436750000002,
          "velocity": 0.7007874015748031
        },
        {
          "duration": 0.227272499999998,
          "durationTicks": 480,
          "midi": 75,
          "name": "D#5",
          "ticks": 376320,
          "time": 178.18164000000002,
          "velocity": 0.7007874015748031
        },
        {
          "duration": 1.13636249999999,
          "durationTicks": 2400,
          "midi": 78,
          "name": "F#5",
          "ticks": 376800,
          "time": 178.4089125,
          "velocity": 0.7007874015748031
        },
        {
          "duration": 1.3636350000000164,
          "durationTicks": 2880,
          "midi": 78,
          "name": "F#5",
          "ticks": 380160,
          "time": 179.99982,
          "velocity": 0.7007874015748031
        },
        {
          "duration": 0.11363624999998478,
          "durationTicks": 240,
          "midi": 75,
          "name": "D#5",
          "ticks": 383040,
          "time": 181.36345500000002,
          "velocity": 0.7007874015748031
        },
        {
          "duration": 0.1136362500000132,
          "durationTicks": 240,
          "midi": 73,
          "name": "C#5",
          "ticks": 383280,
          "time": 181.47709125,
          "velocity": 0.7007874015748031
        },
        {
          "duration": 0.227272499999998,
          "durationTicks": 480,
          "midi": 71,
          "name": "B4",
          "ticks": 383520,
          "time": 181.5907275,
          "velocity": 0.7007874015748031
        },
        {
          "duration": 0.227272499999998,
          "durationTicks": 480,
          "midi": 68,
          "name": "G#4",
          "ticks": 384000,
          "time": 181.818,
          "velocity": 0.7007874015748031
        },
        {
          "duration": 0.681817499999994,
          "durationTicks": 1440,
          "midi": 71,
          "name": "B4",
          "ticks": 384480,
          "time": 182.0452725,
          "velocity": 0.7007874015748031
        },
        {
          "duration": 0.227272499999998,
          "durationTicks": 480,
          "midi": 68,
          "name": "G#4",
          "ticks": 386400,
          "time": 182.9543625,
          "velocity": 0.7007874015748031
        },
        {
          "duration": 0.1136362500000132,
          "durationTicks": 240,
          "midi": 71,
          "name": "B4",
          "ticks": 386880,
          "time": 183.181635,
          "velocity": 0.7007874015748031
        },
        {
          "duration": 0.3409087500000112,
          "durationTicks": 720,
          "midi": 71,
          "name": "B4",
          "ticks": 387120,
          "time": 183.29527125,
          "velocity": 0.7007874015748031
        },
        {
          "duration": 0.3409087499999828,
          "durationTicks": 720,
          "midi": 71,
          "name": "B4",
          "ticks": 387840,
          "time": 183.63618000000002,
          "velocity": 0.7007874015748031
        },
        {
          "duration": 0.1136362500000132,
          "durationTicks": 240,
          "midi": 68,
          "name": "G#4",
          "ticks": 388560,
          "time": 183.97708875,
          "velocity": 0.7007874015748031
        },
        {
          "duration": 0.227272499999998,
          "durationTicks": 480,
          "midi": 66,
          "name": "F#4",
          "ticks": 388800,
          "time": 184.09072500000002,
          "velocity": 0.7007874015748031
        },
        {
          "duration": 0.227272499999998,
          "durationTicks": 480,
          "midi": 78,
          "name": "F#5",
          "ticks": 390240,
          "time": 184.77254250000001,
          "velocity": 0.7007874015748031
        },
        {
          "duration": 0.1136362500000132,
          "durationTicks": 240,
          "midi": 75,
          "name": "D#5",
          "ticks": 390720,
          "time": 184.999815,
          "velocity": 0.7007874015748031
        },
        {
          "duration": 0.11363624999998478,
          "durationTicks": 240,
          "midi": 73,
          "name": "C#5",
          "ticks": 390960,
          "time": 185.11345125000003,
          "velocity": 0.7007874015748031
        },
        {
          "duration": 0.227272499999998,
          "durationTicks": 480,
          "midi": 71,
          "name": "B4",
          "ticks": 391200,
          "time": 185.2270875,
          "velocity": 0.7007874015748031
        },
        {
          "duration": 0.227272499999998,
          "durationTicks": 480,
          "midi": 75,
          "name": "D#5",
          "ticks": 391680,
          "time": 185.45436,
          "velocity": 0.7007874015748031
        },
        {
          "duration": 1.1363625000000184,
          "durationTicks": 2400,
          "midi": 78,
          "name": "F#5",
          "ticks": 392160,
          "time": 185.6816325,
          "velocity": 0.7007874015748031
        },
        {
          "duration": 1.363634999999988,
          "durationTicks": 2880,
          "midi": 78,
          "name": "F#5",
          "ticks": 395520,
          "time": 187.27254000000002,
          "velocity": 0.7007874015748031
        },
        {
          "duration": 0.1136362500000132,
          "durationTicks": 240,
          "midi": 75,
          "name": "D#5",
          "ticks": 398400,
          "time": 188.636175,
          "velocity": 0.7007874015748031
        },
        {
          "duration": 0.11363624999998478,
          "durationTicks": 240,
          "midi": 73,
          "name": "C#5",
          "ticks": 398640,
          "time": 188.74981125000002,
          "velocity": 0.7007874015748031
        },
        {
          "duration": 0.227272499999998,
          "durationTicks": 480,
          "midi": 71,
          "name": "B4",
          "ticks": 398880,
          "time": 188.8634475,
          "velocity": 0.7007874015748031
        },
        {
          "duration": 0.227272499999998,
          "durationTicks": 480,
          "midi": 68,
          "name": "G#4",
          "ticks": 399360,
          "time": 189.09072,
          "velocity": 0.7007874015748031
        },
        {
          "duration": 0.6818175000000224,
          "durationTicks": 1440,
          "midi": 71,
          "name": "B4",
          "ticks": 399840,
          "time": 189.3179925,
          "velocity": 0.7007874015748031
        },
        {
          "duration": 0.227272499999998,
          "durationTicks": 480,
          "midi": 68,
          "name": "G#4",
          "ticks": 401760,
          "time": 190.22708250000002,
          "velocity": 0.7007874015748031
        },
        {
          "duration": 0.11363624999998478,
          "durationTicks": 240,
          "midi": 71,
          "name": "B4",
          "ticks": 402240,
          "time": 190.45435500000002,
          "velocity": 0.7007874015748031
        },
        {
          "duration": 0.3409087500000112,
          "durationTicks": 720,
          "midi": 71,
          "name": "B4",
          "ticks": 402480,
          "time": 190.56799125,
          "velocity": 0.7007874015748031
        },
        {
          "duration": 0.3409087499999828,
          "durationTicks": 720,
          "midi": 71,
          "name": "B4",
          "ticks": 403200,
          "time": 190.90890000000002,
          "velocity": 0.7007874015748031
        },
        {
          "duration": 0.1136362500000132,
          "durationTicks": 240,
          "midi": 68,
          "name": "G#4",
          "ticks": 403920,
          "time": 191.24980875,
          "velocity": 0.7007874015748031
        },
        {
          "duration": 0.227272499999998,
          "durationTicks": 480,
          "midi": 66,
          "name": "F#4",
          "ticks": 404160,
          "time": 191.363445,
          "velocity": 0.7007874015748031
        },
        {
          "duration": 0.227272499999998,
          "durationTicks": 480,
          "midi": 78,
          "name": "F#5",
          "ticks": 405600,
          "time": 192.0452625,
          "velocity": 0.7007874015748031
        },
        {
          "duration": 0.1136362500000132,
          "durationTicks": 240,
          "midi": 75,
          "name": "D#5",
          "ticks": 406080,
          "time": 192.272535,
          "velocity": 0.7007874015748031
        },
        {
          "duration": 0.11363624999998478,
          "durationTicks": 240,
          "midi": 73,
          "name": "C#5",
          "ticks": 406320,
          "time": 192.38617125000002,
          "velocity": 0.7007874015748031
        },
        {
          "duration": 0.227272499999998,
          "durationTicks": 480,
          "midi": 71,
          "name": "B4",
          "ticks": 406560,
          "time": 192.4998075,
          "velocity": 0.7007874015748031
        },
        {
          "duration": 0.2272725000000264,
          "durationTicks": 480,
          "midi": 75,
          "name": "D#5",
          "ticks": 407040,
          "time": 192.72708,
          "velocity": 0.7007874015748031
        },
        {
          "duration": 1.13636249999999,
          "durationTicks": 2400,
          "midi": 78,
          "name": "F#5",
          "ticks": 407520,
          "time": 192.95435250000003,
          "velocity": 0.7007874015748031
        },
        {
          "duration": 1.363634999999988,
          "durationTicks": 2880,
          "midi": 78,
          "name": "F#5",
          "ticks": 410880,
          "time": 194.54526,
          "velocity": 0.7007874015748031
        },
        {
          "duration": 0.1136362500000132,
          "durationTicks": 240,
          "midi": 75,
          "name": "D#5",
          "ticks": 413760,
          "time": 195.908895,
          "velocity": 0.7007874015748031
        },
        {
          "duration": 0.1136362500000132,
          "durationTicks": 240,
          "midi": 73,
          "name": "C#5",
          "ticks": 414000,
          "time": 196.02253125000001,
          "velocity": 0.7007874015748031
        },
        {
          "duration": 0.227272499999998,
          "durationTicks": 480,
          "midi": 71,
          "name": "B4",
          "ticks": 414240,
          "time": 196.13616750000003,
          "velocity": 0.7007874015748031
        },
        {
          "duration": 0.227272499999998,
          "durationTicks": 480,
          "midi": 68,
          "name": "G#4",
          "ticks": 414720,
          "time": 196.36344000000003,
          "velocity": 0.7007874015748031
        },
        {
          "duration": 0.681817499999994,
          "durationTicks": 1440,
          "midi": 71,
          "name": "B4",
          "ticks": 415200,
          "time": 196.59071250000002,
          "velocity": 0.7007874015748031
        },
        {
          "duration": 0.227272499999998,
          "durationTicks": 480,
          "midi": 68,
          "name": "G#4",
          "ticks": 417120,
          "time": 197.49980250000002,
          "velocity": 0.7007874015748031
        },
        {
          "duration": 0.1136362500000132,
          "durationTicks": 240,
          "midi": 71,
          "name": "B4",
          "ticks": 417600,
          "time": 197.727075,
          "velocity": 0.7007874015748031
        },
        {
          "duration": 0.3409087499999828,
          "durationTicks": 720,
          "midi": 71,
          "name": "B4",
          "ticks": 417840,
          "time": 197.84071125000003,
          "velocity": 0.7007874015748031
        },
        {
          "duration": 0.909089999999992,
          "durationTicks": 1920,
          "midi": 71,
          "name": "B4",
          "ticks": 418560,
          "time": 198.18162,
          "velocity": 0.7007874015748031
        }
      ]
    },
    {
      "channel": 0,
      "controlChanges": {
        "10": [
          {
            "number": 10,
            "ticks": 0,
            "time": 0,
            "value": 0.9291338582677166
          }
        ]
      },
      "pitchBends": [],
      "instrument": {
        "family": "piano",
        "number": 0,
        "name": "acoustic grand piano"
      },
      "name": "Words & Music By Lukasz Gottwald, Keri Oskar, Lee Oskar",
      "notes": [],
      "endOfTrackTicks": 264960
    },
    {
      "channel": 4,
      "controlChanges": {},
      "pitchBends": [],
      "instrument": {
        "family": "percussive",
        "number": 115,
        "name": "woodblock"
      },
      "name": "",
      "notes": [
        {
          "duration": 0.113636249999999,
          "durationTicks": 240,
          "midi": 73,
          "name": "C#5",
          "ticks": 80640,
          "time": 38.18178,
          "velocity": 0.7007874015748031
        },
        {
          "duration": 0.113636249999999,
          "durationTicks": 240,
          "midi": 73,
          "name": "C#5",
          "ticks": 80880,
          "time": 38.29541625,
          "velocity": 0.7007874015748031
        },
        {
          "duration": 0.113636249999999,
          "durationTicks": 240,
          "midi": 73,
          "name": "C#5",
          "ticks": 81120,
          "time": 38.4090525,
          "velocity": 0.7007874015748031
        },
        {
          "duration": 0.113636249999999,
          "durationTicks": 240,
          "midi": 73,
          "name": "C#5",
          "ticks": 81360,
          "time": 38.52268875,
          "velocity": 0.7007874015748031
        },
        {
          "duration": 0.113636249999999,
          "durationTicks": 240,
          "midi": 73,
          "name": "C#5",
          "ticks": 81840,
          "time": 38.749961250000005,
          "velocity": 0.7007874015748031
        },
        {
          "duration": 0.113636249999999,
          "durationTicks": 240,
          "midi": 73,
          "name": "C#5",
          "ticks": 82080,
          "time": 38.863597500000004,
          "velocity": 0.7007874015748031
        },
        {
          "duration": 0.113636249999999,
          "durationTicks": 240,
          "midi": 73,
          "name": "C#5",
          "ticks": 82320,
          "time": 38.97723375,
          "velocity": 0.7007874015748031
        },
        {
          "duration": 0.113636249999999,
          "durationTicks": 240,
          "midi": 73,
          "name": "C#5",
          "ticks": 82560,
          "time": 39.09087,
          "velocity": 0.7007874015748031
        },
        {
          "duration": 0.3409087500000041,
          "durationTicks": 720,
          "midi": 73,
          "name": "C#5",
          "ticks": 82800,
          "time": 39.20450625,
          "velocity": 0.7007874015748031
        },
        {
          "duration": 0.227272499999998,
          "durationTicks": 480,
          "midi": 73,
          "name": "C#5",
          "ticks": 84000,
          "time": 39.7726875,
          "velocity": 0.7007874015748031
        },
        {
          "duration": 0.113636249999999,
          "durationTicks": 240,
          "midi": 73,
          "name": "C#5",
          "ticks": 84480,
          "time": 39.99996,
          "velocity": 0.7007874015748031
        },
        {
          "duration": 0.113636249999999,
          "durationTicks": 240,
          "midi": 73,
          "name": "C#5",
          "ticks": 84720,
          "time": 40.11359625,
          "velocity": 0.7007874015748031
        },
        {
          "duration": 0.1136362500000061,
          "durationTicks": 240,
          "midi": 73,
          "name": "C#5",
          "ticks": 84960,
          "time": 40.2272325,
          "velocity": 0.7007874015748031
        },
        {
          "duration": 0.113636249999999,
          "durationTicks": 240,
          "midi": 73,
          "name": "C#5",
          "ticks": 85200,
          "time": 40.340868750000006,
          "velocity": 0.7007874015748031
        },
        {
          "duration": 0.113636249999999,
          "durationTicks": 240,
          "midi": 73,
          "name": "C#5",
          "ticks": 85680,
          "time": 40.568141250000004,
          "velocity": 0.7007874015748031
        },
        {
          "duration": 0.113636249999999,
          "durationTicks": 240,
          "midi": 73,
          "name": "C#5",
          "ticks": 85920,
          "time": 40.6817775,
          "velocity": 0.7007874015748031
        },
        {
          "duration": 0.113636249999999,
          "durationTicks": 240,
          "midi": 73,
          "name": "C#5",
          "ticks": 86160,
          "time": 40.79541375,
          "velocity": 0.7007874015748031
        },
        {
          "duration": 0.113636249999999,
          "durationTicks": 240,
          "midi": 73,
          "name": "C#5",
          "ticks": 86400,
          "time": 40.90905,
          "velocity": 0.7007874015748031
        },
        {
          "duration": 0.3409087500000041,
          "durationTicks": 720,
          "midi": 73,
          "name": "C#5",
          "ticks": 86640,
          "time": 41.02268625,
          "velocity": 0.7007874015748031
        },
        {
          "duration": 0.113636249999999,
          "durationTicks": 240,
          "midi": 73,
          "name": "C#5",
          "ticks": 88080,
          "time": 41.70450375,
          "velocity": 0.7007874015748031
        },
        {
          "duration": 0.1136362500000061,
          "durationTicks": 240,
          "midi": 73,
          "name": "C#5",
          "ticks": 88320,
          "time": 41.81814,
          "velocity": 0.7007874015748031
        },
        {
          "duration": 0.113636249999999,
          "durationTicks": 240,
          "midi": 73,
          "name": "C#5",
          "ticks": 88560,
          "time": 41.931776250000006,
          "velocity": 0.7007874015748031
        },
        {
          "duration": 0.227272499999998,
          "durationTicks": 480,
          "midi": 73,
          "name": "C#5",
          "ticks": 88800,
          "time": 42.045412500000005,
          "velocity": 0.7007874015748031
        },
        {
          "duration": 0.227272499999998,
          "durationTicks": 480,
          "midi": 73,
          "name": "C#5",
          "ticks": 89280,
          "time": 42.272685,
          "velocity": 0.7007874015748031
        },
        {
          "duration": 0.113636249999999,
          "durationTicks": 240,
          "midi": 73,
          "name": "C#5",
          "ticks": 89760,
          "time": 42.4999575,
          "velocity": 0.7007874015748031
        },
        {
          "duration": 0.2272725000000051,
          "durationTicks": 480,
          "midi": 73,
          "name": "C#5",
          "ticks": 90000,
          "time": 42.61359375,
          "velocity": 0.7007874015748031
        },
        {
          "duration": 0.113636249999999,
          "durationTicks": 240,
          "midi": 73,
          "name": "C#5",
          "ticks": 90480,
          "time": 42.840866250000005,
          "velocity": 0.7007874015748031
        },
        {
          "duration": 0.227272499999998,
          "durationTicks": 480,
          "midi": 73,
          "name": "C#5",
          "ticks": 90720,
          "time": 42.954502500000004,
          "velocity": 0.7007874015748031
        },
        {
          "duration": 0.227272499999998,
          "durationTicks": 480,
          "midi": 73,
          "name": "C#5",
          "ticks": 91200,
          "time": 43.181775,
          "velocity": 0.7007874015748031
        },
        {
          "duration": 0.113636249999999,
          "durationTicks": 240,
          "midi": 73,
          "name": "C#5",
          "ticks": 92160,
          "time": 43.636320000000005,
          "velocity": 0.7007874015748031
        },
        {
          "duration": 0.113636249999999,
          "durationTicks": 240,
          "midi": 73,
          "name": "C#5",
          "ticks": 92400,
          "time": 43.749956250000004,
          "velocity": 0.7007874015748031
        },
        {
          "duration": 0.113636249999999,
          "durationTicks": 240,
          "midi": 73,
          "name": "C#5",
          "ticks": 92640,
          "time": 43.8635925,
          "velocity": 0.7007874015748031
        },
        {
          "duration": 0.113636249999999,
          "durationTicks": 240,
          "midi": 73,
          "name": "C#5",
          "ticks": 92880,
          "time": 43.97722875,
          "velocity": 0.7007874015748031
        },
        {
          "duration": 0.2272725000000051,
          "durationTicks": 480,
          "midi": 73,
          "name": "C#5",
          "ticks": 93120,
          "time": 44.090865,
          "velocity": 0.7007874015748031
        },
        {
          "duration": 0.113636249999999,
          "durationTicks": 240,
          "midi": 73,
          "name": "C#5",
          "ticks": 93600,
          "time": 44.318137500000006,
          "velocity": 0.7007874015748031
        },
        {
          "duration": 0.340908749999997,
          "durationTicks": 720,
          "midi": 73,
          "name": "C#5",
          "ticks": 93840,
          "time": 44.431773750000005,
          "velocity": 0.7007874015748031
        },
        {
          "duration": 0.2272725000000051,
          "durationTicks": 480,
          "midi": 73,
          "name": "C#5",
          "ticks": 95040,
          "time": 44.999955,
          "velocity": 0.7007874015748031
        },
        {
          "duration": 0.227272499999998,
          "durationTicks": 480,
          "midi": 71,
          "name": "B4",
          "ticks": 95520,
          "time": 45.227227500000005,
          "velocity": 0.7007874015748031
        },
        {
          "duration": 0.340908749999997,
          "durationTicks": 720,
          "midi": 73,
          "name": "C#5",
          "ticks": 96000,
          "time": 45.4545,
          "velocity": 0.7007874015748031
        },
        {
          "duration": 0.3409087500000041,
          "durationTicks": 720,
          "midi": 73,
          "name": "C#5",
          "ticks": 96720,
          "time": 45.79540875,
          "velocity": 0.7007874015748031
        },
        {
          "duration": 0.227272499999998,
          "durationTicks": 480,
          "midi": 73,
          "name": "C#5",
          "ticks": 97440,
          "time": 46.136317500000004,
          "velocity": 0.7007874015748031
        },
        {
          "duration": 0.113636249999999,
          "durationTicks": 240,
          "midi": 73,
          "name": "C#5",
          "ticks": 97920,
          "time": 46.36359,
          "velocity": 0.7007874015748031
        },
        {
          "duration": 0.3409087500000041,
          "durationTicks": 720,
          "midi": 73,
          "name": "C#5",
          "ticks": 98160,
          "time": 46.47722625,
          "velocity": 0.7007874015748031
        },
        {
          "duration": 0.227272499999998,
          "durationTicks": 480,
          "midi": 73,
          "name": "C#5",
          "ticks": 98880,
          "time": 46.818135000000005,
          "velocity": 0.7007874015748031
        },
        {
          "duration": 0.227272499999998,
          "durationTicks": 480,
          "midi": 71,
          "name": "B4",
          "ticks": 99360,
          "time": 47.0454075,
          "velocity": 0.7007874015748031
        },
        {
          "duration": 0.2272725000000051,
          "durationTicks": 480,
          "midi": 73,
          "name": "C#5",
          "ticks": 99840,
          "time": 47.27268,
          "velocity": 0.7007874015748031
        },
        {
          "duration": 0.113636249999999,
          "durationTicks": 240,
          "midi": 73,
          "name": "C#5",
          "ticks": 100320,
          "time": 47.499952500000006,
          "velocity": 0.7007874015748031
        },
        {
          "duration": 0.227272499999998,
          "durationTicks": 480,
          "midi": 73,
          "name": "C#5",
          "ticks": 100560,
          "time": 47.613588750000005,
          "velocity": 0.7007874015748031
        },
        {
          "duration": 0.113636249999999,
          "durationTicks": 240,
          "midi": 73,
          "name": "C#5",
          "ticks": 101040,
          "time": 47.84086125,
          "velocity": 0.7007874015748031
        },
        {
          "duration": 0.227272499999998,
          "durationTicks": 480,
          "midi": 73,
          "name": "C#5",
          "ticks": 101280,
          "time": 47.9544975,
          "velocity": 0.7007874015748031
        },
        {
          "duration": 0.1136362500000061,
          "durationTicks": 240,
          "midi": 73,
          "name": "C#5",
          "ticks": 101760,
          "time": 48.18177,
          "velocity": 0.7007874015748031
        },
        {
          "duration": 0.340908749999997,
          "durationTicks": 720,
          "midi": 73,
          "name": "C#5",
          "ticks": 102000,
          "time": 48.295406250000006,
          "velocity": 0.7007874015748031
        },
        {
          "duration": 0.227272499999998,
          "durationTicks": 480,
          "midi": 73,
          "name": "C#5",
          "ticks": 102720,
          "time": 48.636315,
          "velocity": 0.7007874015748031
        },
        {
          "duration": 0.2272725000000051,
          "durationTicks": 480,
          "midi": 71,
          "name": "B4",
          "ticks": 103200,
          "time": 48.8635875,
          "velocity": 0.7007874015748031
        },
        {
          "duration": 0.113636249999999,
          "durationTicks": 240,
          "midi": 73,
          "name": "C#5",
          "ticks": 103680,
          "time": 49.090860000000006,
          "velocity": 0.7007874015748031
        },
        {
          "duration": 0.113636249999999,
          "durationTicks": 240,
          "midi": 73,
          "name": "C#5",
          "ticks": 103920,
          "time": 49.204496250000005,
          "velocity": 0.7007874015748031
        },
        {
          "duration": 0.113636249999999,
          "durationTicks": 240,
          "midi": 73,
          "name": "C#5",
          "ticks": 104160,
          "time": 49.318132500000004,
          "velocity": 0.7007874015748031
        },
        {
          "duration": 0.113636249999999,
          "durationTicks": 240,
          "midi": 73,
          "name": "C#5",
          "ticks": 104400,
          "time": 49.43176875,
          "velocity": 0.7007874015748031
        },
        {
          "duration": 0.227272499999998,
          "durationTicks": 480,
          "midi": 73,
          "name": "C#5",
          "ticks": 104640,
          "time": 49.545405,
          "velocity": 0.7007874015748031
        },
        {
          "duration": 0.1136362500000061,
          "durationTicks": 240,
          "midi": 73,
          "name": "C#5",
          "ticks": 105120,
          "time": 49.7726775,
          "velocity": 0.7007874015748031
        },
        {
          "duration": 0.340908749999997,
          "durationTicks": 720,
          "midi": 73,
          "name": "C#5",
          "ticks": 105360,
          "time": 49.88631375000001,
          "velocity": 0.7007874015748031
        },
        {
          "duration": 0.113636249999999,
          "durationTicks": 240,
          "midi": 73,
          "name": "C#5",
          "ticks": 106080,
          "time": 50.2272225,
          "velocity": 0.7007874015748031
        },
        {
          "duration": 0.3409087500000041,
          "durationTicks": 720,
          "midi": 73,
          "name": "C#5",
          "ticks": 106320,
          "time": 50.34085875,
          "velocity": 0.7007874015748031
        },
        {
          "duration": 0.113636249999999,
          "durationTicks": 240,
          "midi": 73,
          "name": "C#5",
          "ticks": 107040,
          "time": 50.68176750000001,
          "velocity": 0.7007874015748031
        },
        {
          "duration": 0.113636249999999,
          "durationTicks": 240,
          "midi": 73,
          "name": "C#5",
          "ticks": 107280,
          "time": 50.795403750000006,
          "velocity": 0.7007874015748031
        },
        {
          "duration": 0.113636249999999,
          "durationTicks": 240,
          "midi": 71,
          "name": "B4",
          "ticks": 108000,
          "time": 51.1363125,
          "velocity": 0.7007874015748031
        },
        {
          "duration": 0.113636249999999,
          "durationTicks": 240,
          "midi": 71,
          "name": "B4",
          "ticks": 108240,
          "time": 51.24994875,
          "velocity": 0.7007874015748031
        },
        {
          "duration": 0.2272725000000051,
          "durationTicks": 480,
          "midi": 71,
          "name": "B4",
          "ticks": 108480,
          "time": 51.363585,
          "velocity": 0.7007874015748031
        },
        {
          "duration": 0.113636249999999,
          "durationTicks": 240,
          "midi": 71,
          "name": "B4",
          "ticks": 108960,
          "time": 51.590857500000006,
          "velocity": 0.7007874015748031
        },
        {
          "duration": 0.113636249999999,
          "durationTicks": 240,
          "midi": 71,
          "name": "B4",
          "ticks": 109200,
          "time": 51.704493750000005,
          "velocity": 0.7007874015748031
        },
        {
          "duration": 0.227272499999998,
          "durationTicks": 480,
          "midi": 71,
          "name": "B4",
          "ticks": 110400,
          "time": 52.27267500000001,
          "velocity": 0.7007874015748031
        },
        {
          "duration": 0.227272499999998,
          "durationTicks": 480,
          "midi": 68,
          "name": "G#4",
          "ticks": 110880,
          "time": 52.499947500000005,
          "velocity": 0.7007874015748031
        },
        {
          "duration": 0.4545450000000102,
          "durationTicks": 960,
          "midi": 78,
          "name": "F#5",
          "ticks": 233280,
          "time": 110.454435,
          "velocity": 0.7007874015748031
        },
        {
          "duration": 0.113636249999999,
          "durationTicks": 240,
          "midi": 73,
          "name": "C#5",
          "ticks": 234240,
          "time": 110.90898000000001,
          "velocity": 0.7007874015748031
        },
        {
          "duration": 0.113636249999999,
          "durationTicks": 240,
          "midi": 73,
          "name": "C#5",
          "ticks": 234480,
          "time": 111.02261625000001,
          "velocity": 0.7007874015748031
        },
        {
          "duration": 0.113636249999999,
          "durationTicks": 240,
          "midi": 73,
          "name": "C#5",
          "ticks": 234720,
          "time": 111.13625250000001,
          "velocity": 0.7007874015748031
        },
        {
          "duration": 0.113636249999999,
          "durationTicks": 240,
          "midi": 73,
          "name": "C#5",
          "ticks": 234960,
          "time": 111.24988875000001,
          "velocity": 0.7007874015748031
        },
        {
          "duration": 0.227272499999998,
          "durationTicks": 480,
          "midi": 73,
          "name": "C#5",
          "ticks": 235200,
          "time": 111.36352500000001,
          "velocity": 0.7007874015748031
        },
        {
          "duration": 0.113636249999999,
          "durationTicks": 240,
          "midi": 73,
          "name": "C#5",
          "ticks": 235680,
          "time": 111.59079750000001,
          "velocity": 0.7007874015748031
        },
        {
          "duration": 0.113636249999999,
          "durationTicks": 240,
          "midi": 73,
          "name": "C#5",
          "ticks": 235920,
          "time": 111.70443375,
          "velocity": 0.7007874015748031
        },
        {
          "duration": 0.227272499999998,
          "durationTicks": 480,
          "midi": 73,
          "name": "C#5",
          "ticks": 236160,
          "time": 111.81807,
          "velocity": 0.7007874015748031
        },
        {
          "duration": 0.113636249999999,
          "durationTicks": 240,
          "midi": 73,
          "name": "C#5",
          "ticks": 236640,
          "time": 112.0453425,
          "velocity": 0.7007874015748031
        },
        {
          "duration": 0.113636249999999,
          "durationTicks": 240,
          "midi": 73,
          "name": "C#5",
          "ticks": 236880,
          "time": 112.15897875,
          "velocity": 0.7007874015748031
        },
        {
          "duration": 0.2272725000000122,
          "durationTicks": 480,
          "midi": 73,
          "name": "C#5",
          "ticks": 237120,
          "time": 112.272615,
          "velocity": 0.7007874015748031
        },
        {
          "duration": 0.113636249999999,
          "durationTicks": 240,
          "midi": 73,
          "name": "C#5",
          "ticks": 238080,
          "time": 112.72716000000001,
          "velocity": 0.7007874015748031
        },
        {
          "duration": 0.113636249999999,
          "durationTicks": 240,
          "midi": 73,
          "name": "C#5",
          "ticks": 238320,
          "time": 112.84079625000001,
          "velocity": 0.7007874015748031
        },
        {
          "duration": 0.227272499999998,
          "durationTicks": 480,
          "midi": 73,
          "name": "C#5",
          "ticks": 238560,
          "time": 112.95443250000001,
          "velocity": 0.7007874015748031
        },
        {
          "duration": 0.227272499999998,
          "durationTicks": 480,
          "midi": 73,
          "name": "C#5",
          "ticks": 239040,
          "time": 113.18170500000001,
          "velocity": 0.7007874015748031
        },
        {
          "duration": 0.113636249999999,
          "durationTicks": 240,
          "midi": 73,
          "name": "C#5",
          "ticks": 239520,
          "time": 113.4089775,
          "velocity": 0.7007874015748031
        },
        {
          "duration": 0.113636249999999,
          "durationTicks": 240,
          "midi": 73,
          "name": "C#5",
          "ticks": 239760,
          "time": 113.52261375,
          "velocity": 0.7007874015748031
        },
        {
          "duration": 0.227272499999998,
          "durationTicks": 480,
          "midi": 73,
          "name": "C#5",
          "ticks": 240000,
          "time": 113.63625,
          "velocity": 0.7007874015748031
        },
        {
          "duration": 0.2272725000000122,
          "durationTicks": 480,
          "midi": 73,
          "name": "C#5",
          "ticks": 240480,
          "time": 113.8635225,
          "velocity": 0.7007874015748031
        },
        {
          "duration": 0.227272499999998,
          "durationTicks": 480,
          "midi": 73,
          "name": "C#5",
          "ticks": 240960,
          "time": 114.09079500000001,
          "velocity": 0.7007874015748031
        },
        {
          "duration": 0.113636249999999,
          "durationTicks": 240,
          "midi": 73,
          "name": "C#5",
          "ticks": 241920,
          "time": 114.54534000000001,
          "velocity": 0.7007874015748031
        },
        {
          "duration": 0.113636249999999,
          "durationTicks": 240,
          "midi": 73,
          "name": "C#5",
          "ticks": 242160,
          "time": 114.65897625000001,
          "velocity": 0.7007874015748031
        },
        {
          "duration": 0.227272499999998,
          "durationTicks": 480,
          "midi": 73,
          "name": "C#5",
          "ticks": 242400,
          "time": 114.77261250000001,
          "velocity": 0.7007874015748031
        },
        {
          "duration": 0.454544999999996,
          "durationTicks": 960,
          "midi": 73,
          "name": "C#5",
          "ticks": 242880,
          "time": 114.999885,
          "velocity": 0.7007874015748031
        },
        {
          "duration": 0.1136362500000132,
          "durationTicks": 240,
          "midi": 73,
          "name": "C#5",
          "ticks": 243840,
          "time": 115.45443,
          "velocity": 0.7007874015748031
        },
        {
          "duration": 0.227272499999998,
          "durationTicks": 480,
          "midi": 73,
          "name": "C#5",
          "ticks": 244080,
          "time": 115.56806625000002,
          "velocity": 0.7007874015748031
        },
        {
          "duration": 0.340908749999997,
          "durationTicks": 720,
          "midi": 73,
          "name": "C#5",
          "ticks": 244560,
          "time": 115.79533875000001,
          "velocity": 0.7007874015748031
        },
        {
          "duration": 0.113636249999999,
          "durationTicks": 240,
          "midi": 73,
          "name": "C#5",
          "ticks": 245760,
          "time": 116.36352000000001,
          "velocity": 0.7007874015748031
        },
        {
          "duration": 0.227272499999998,
          "durationTicks": 480,
          "midi": 73,
          "name": "C#5",
          "ticks": 246000,
          "time": 116.47715625000001,
          "velocity": 0.7007874015748031
        },
        {
          "duration": 0.340908749999997,
          "durationTicks": 720,
          "midi": 73,
          "name": "C#5",
          "ticks": 246480,
          "time": 116.70442875,
          "velocity": 0.7007874015748031
        },
        {
          "duration": 0.113636249999999,
          "durationTicks": 240,
          "midi": 73,
          "name": "C#5",
          "ticks": 247680,
          "time": 117.27261000000001,
          "velocity": 0.7007874015748031
        },
        {
          "duration": 0.113636249999999,
          "durationTicks": 240,
          "midi": 73,
          "name": "C#5",
          "ticks": 247920,
          "time": 117.38624625000001,
          "velocity": 0.7007874015748031
        },
        {
          "duration": 0.113636249999999,
          "durationTicks": 240,
          "midi": 73,
          "name": "C#5",
          "ticks": 248160,
          "time": 117.49988250000001,
          "velocity": 0.7007874015748031
        },
        {
          "duration": 0.113636249999999,
          "durationTicks": 240,
          "midi": 73,
          "name": "C#5",
          "ticks": 248400,
          "time": 117.61351875000001,
          "velocity": 0.7007874015748031
        },
        {
          "duration": 0.227272499999998,
          "durationTicks": 480,
          "midi": 73,
          "name": "C#5",
          "ticks": 248640,
          "time": 117.72715500000001,
          "velocity": 0.7007874015748031
        },
        {
          "duration": 0.227272499999998,
          "durationTicks": 480,
          "midi": 73,
          "name": "C#5",
          "ticks": 249120,
          "time": 117.95442750000001,
          "velocity": 0.7007874015748031
        },
        {
          "duration": 0.113636249999999,
          "durationTicks": 240,
          "midi": 73,
          "name": "C#5",
          "ticks": 249600,
          "time": 118.1817,
          "velocity": 0.7007874015748031
        },
        {
          "duration": 0.113636249999999,
          "durationTicks": 240,
          "midi": 73,
          "name": "C#5",
          "ticks": 249840,
          "time": 118.29533625,
          "velocity": 0.7007874015748031
        },
        {
          "duration": 0.113636249999999,
          "durationTicks": 240,
          "midi": 73,
          "name": "C#5",
          "ticks": 250080,
          "time": 118.4089725,
          "velocity": 0.7007874015748031
        },
        {
          "duration": 0.113636249999999,
          "durationTicks": 240,
          "midi": 73,
          "name": "C#5",
          "ticks": 250320,
          "time": 118.52260875,
          "velocity": 0.7007874015748031
        },
        {
          "duration": 0.3409087500000112,
          "durationTicks": 720,
          "midi": 73,
          "name": "C#5",
          "ticks": 250560,
          "time": 118.636245,
          "velocity": 0.7007874015748031
        },
        {
          "duration": 0.568181249999995,
          "durationTicks": 1200,
          "midi": 73,
          "name": "C#5",
          "ticks": 251280,
          "time": 118.97715375000001,
          "velocity": 0.7007874015748031
        },
        {
          "duration": 0.227272499999998,
          "durationTicks": 480,
          "midi": 73,
          "name": "C#5",
          "ticks": 252480,
          "time": 119.54533500000001,
          "velocity": 0.7007874015748031
        },
        {
          "duration": 0.227272499999998,
          "durationTicks": 480,
          "midi": 71,
          "name": "B4",
          "ticks": 252960,
          "time": 119.7726075,
          "velocity": 0.7007874015748031
        },
        {
          "duration": 0.113636249999999,
          "durationTicks": 240,
          "midi": 73,
          "name": "C#5",
          "ticks": 253440,
          "time": 119.99988,
          "velocity": 0.7007874015748031
        },
        {
          "duration": 0.113636249999999,
          "durationTicks": 240,
          "midi": 73,
          "name": "C#5",
          "ticks": 253680,
          "time": 120.11351625,
          "velocity": 0.7007874015748031
        },
        {
          "duration": 0.113636249999999,
          "durationTicks": 240,
          "midi": 73,
          "name": "C#5",
          "ticks": 253920,
          "time": 120.2271525,
          "velocity": 0.7007874015748031
        },
        {
          "duration": 0.1136362500000132,
          "durationTicks": 240,
          "midi": 73,
          "name": "C#5",
          "ticks": 254160,
          "time": 120.34078875,
          "velocity": 0.7007874015748031
        },
        {
          "duration": 0.227272499999998,
          "durationTicks": 480,
          "midi": 73,
          "name": "C#5",
          "ticks": 254400,
          "time": 120.45442500000001,
          "velocity": 0.7007874015748031
        },
        {
          "duration": 0.113636249999999,
          "durationTicks": 240,
          "midi": 73,
          "name": "C#5",
          "ticks": 254880,
          "time": 120.68169750000001,
          "velocity": 0.7007874015748031
        },
        {
          "duration": 0.340908749999997,
          "durationTicks": 720,
          "midi": 73,
          "name": "C#5",
          "ticks": 255120,
          "time": 120.79533375000001,
          "velocity": 0.7007874015748031
        },
        {
          "duration": 0.227272499999998,
          "durationTicks": 480,
          "midi": 73,
          "name": "C#5",
          "ticks": 256320,
          "time": 121.363515,
          "velocity": 0.7007874015748031
        },
        {
          "duration": 0.227272499999998,
          "durationTicks": 480,
          "midi": 71,
          "name": "B4",
          "ticks": 256800,
          "time": 121.5907875,
          "velocity": 0.7007874015748031
        },
        {
          "duration": 0.2272725000000122,
          "durationTicks": 480,
          "midi": 73,
          "name": "C#5",
          "ticks": 257280,
          "time": 121.81806,
          "velocity": 0.7007874015748031
        },
        {
          "duration": 0.113636249999999,
          "durationTicks": 240,
          "midi": 73,
          "name": "C#5",
          "ticks": 257760,
          "time": 122.04533250000001,
          "velocity": 0.7007874015748031
        },
        {
          "duration": 0.227272499999998,
          "durationTicks": 480,
          "midi": 73,
          "name": "C#5",
          "ticks": 258000,
          "time": 122.15896875000001,
          "velocity": 0.7007874015748031
        },
        {
          "duration": 0.113636249999999,
          "durationTicks": 240,
          "midi": 73,
          "name": "C#5",
          "ticks": 258480,
          "time": 122.38624125000001,
          "velocity": 0.7007874015748031
        },
        {
          "duration": 0.227272499999998,
          "durationTicks": 480,
          "midi": 73,
          "name": "C#5",
          "ticks": 258720,
          "time": 122.49987750000001,
          "velocity": 0.7007874015748031
        },
        {
          "duration": 0.340908749999997,
          "durationTicks": 720,
          "midi": 73,
          "name": "C#5",
          "ticks": 260160,
          "time": 123.181695,
          "velocity": 0.7007874015748031
        },
        {
          "duration": 0.1136362500000132,
          "durationTicks": 240,
          "midi": 73,
          "name": "C#5",
          "ticks": 260880,
          "time": 123.52260375,
          "velocity": 0.7007874015748031
        },
        {
          "duration": 0.340908749999997,
          "durationTicks": 720,
          "midi": 71,
          "name": "B4",
          "ticks": 261120,
          "time": 123.63624000000002,
          "velocity": 0.7007874015748031
        },
        {
          "duration": 0.113636249999999,
          "durationTicks": 240,
          "midi": 71,
          "name": "B4",
          "ticks": 261840,
          "time": 123.97714875000001,
          "velocity": 0.7007874015748031
        },
        {
          "duration": 0.340908749999997,
          "durationTicks": 720,
          "midi": 71,
          "name": "B4",
          "ticks": 262080,
          "time": 124.09078500000001,
          "velocity": 0.7007874015748031
        },
        {
          "duration": 0.113636249999999,
          "durationTicks": 240,
          "midi": 71,
          "name": "B4",
          "ticks": 262800,
          "time": 124.43169375000001,
          "velocity": 0.7007874015748031
        },
        {
          "duration": 0.227272499999998,
          "durationTicks": 480,
          "midi": 71,
          "name": "B4",
          "ticks": 263040,
          "time": 124.54533,
          "velocity": 0.7007874015748031
        },
        {
          "duration": 0.4545450000000102,
          "durationTicks": 960,
          "midi": 71,
          "name": "B4",
          "ticks": 264000,
          "time": 124.999875,
          "velocity": 0.7007874015748031
        }
      ]
    },
    {
      "channel": 0,
      "controlChanges": {
        "7": [
          {
            "number": 7,
            "ticks": 0,
            "time": 0,
            "value": 1
          }
        ],
        "10": [
          {
            "number": 10,
            "ticks": 0,
            "time": 0,
            "value": 0.84251968503937
          }
        ]
      },
      "pitchBends": [],
      "instrument": {
        "family": "piano",
        "number": 0,
        "name": "acoustic grand piano"
      },
      "name": "Greg Errico, Armando Perez, Kesha Sebert, Henry Walter",
      "notes": [],
      "endOfTrackTicks": 422400
    },
    {
      "channel": 5,
      "controlChanges": {},
      "pitchBends": [],
      "instrument": {
        "family": "synth lead",
        "number": 82,
        "name": "lead 3 (calliope)"
      },
      "name": "",
      "notes": [
        {
          "duration": 0.22727249999999977,
          "durationTicks": 480,
          "midi": 63,
          "name": "D#4",
          "ticks": 17760,
          "time": 8.4090825,
          "velocity": 0.7007874015748031
        },
        {
          "duration": 0.22727249999999977,
          "durationTicks": 480,
          "midi": 61,
          "name": "C#4",
          "ticks": 18240,
          "time": 8.636355,
          "velocity": 0.7007874015748031
        },
        {
          "duration": 0.22727250000000154,
          "durationTicks": 480,
          "midi": 59,
          "name": "B3",
          "ticks": 18720,
          "time": 8.8636275,
          "velocity": 0.7007874015748031
        },
        {
          "duration": 0.22727249999999977,
          "durationTicks": 480,
          "midi": 59,
          "name": "B3",
          "ticks": 19200,
          "time": 9.090900000000001,
          "velocity": 0.7007874015748031
        },
        {
          "duration": 0.45454499999999953,
          "durationTicks": 960,
          "midi": 56,
          "name": "G#3",
          "ticks": 19680,
          "time": 9.318172500000001,
          "velocity": 0.7007874015748031
        },
        {
          "duration": 0.22727249999999977,
          "durationTicks": 480,
          "midi": 63,
          "name": "D#4",
          "ticks": 21600,
          "time": 10.2272625,
          "velocity": 0.7007874015748031
        },
        {
          "duration": 0.22727250000000154,
          "durationTicks": 480,
          "midi": 61,
          "name": "C#4",
          "ticks": 22080,
          "time": 10.454535,
          "velocity": 0.7007874015748031
        },
        {
          "duration": 0.22727249999999977,
          "durationTicks": 480,
          "midi": 59,
          "name": "B3",
          "ticks": 22560,
          "time": 10.681807500000001,
          "velocity": 0.7007874015748031
        },
        {
          "duration": 0.22727249999999977,
          "durationTicks": 480,
          "midi": 63,
          "name": "D#4",
          "ticks": 23040,
          "time": 10.909080000000001,
          "velocity": 0.7007874015748031
        },
        {
          "duration": 0.6818174999999993,
          "durationTicks": 1440,
          "midi": 66,
          "name": "F#4",
          "ticks": 23520,
          "time": 11.136352500000001,
          "velocity": 0.7007874015748031
        },
        {
          "duration": 0.22727250000000154,
          "durationTicks": 480,
          "midi": 63,
          "name": "D#4",
          "ticks": 25440,
          "time": 12.0454425,
          "velocity": 0.7007874015748031
        },
        {
          "duration": 0.22727249999999977,
          "durationTicks": 480,
          "midi": 61,
          "name": "C#4",
          "ticks": 25920,
          "time": 12.272715000000002,
          "velocity": 0.7007874015748031
        },
        {
          "duration": 0.22727249999999977,
          "durationTicks": 480,
          "midi": 59,
          "name": "B3",
          "ticks": 26400,
          "time": 12.499987500000001,
          "velocity": 0.7007874015748031
        },
        {
          "duration": 0.113636249999999,
          "durationTicks": 240,
          "midi": 59,
          "name": "B3",
          "ticks": 26880,
          "time": 12.727260000000001,
          "velocity": 0.7007874015748031
        },
        {
          "duration": 0.5681812500000003,
          "durationTicks": 1200,
          "midi": 61,
          "name": "C#4",
          "ticks": 27120,
          "time": 12.84089625,
          "velocity": 0.7007874015748031
        },
        {
          "duration": 0.22727249999999977,
          "durationTicks": 480,
          "midi": 63,
          "name": "D#4",
          "ticks": 29280,
          "time": 13.863622500000002,
          "velocity": 0.7007874015748031
        },
        {
          "duration": 0.22727249999999977,
          "durationTicks": 480,
          "midi": 61,
          "name": "C#4",
          "ticks": 29760,
          "time": 14.090895000000002,
          "velocity": 0.7007874015748031
        },
        {
          "duration": 0.22727249999999977,
          "durationTicks": 480,
          "midi": 59,
          "name": "B3",
          "ticks": 30240,
          "time": 14.318167500000001,
          "velocity": 0.7007874015748031
        },
        {
          "duration": 0.22727249999999977,
          "durationTicks": 480,
          "midi": 59,
          "name": "B3",
          "ticks": 30720,
          "time": 14.545440000000001,
          "velocity": 0.7007874015748031
        },
        {
          "duration": 0.45454499999999953,
          "durationTicks": 960,
          "midi": 56,
          "name": "G#3",
          "ticks": 31200,
          "time": 14.7727125,
          "velocity": 0.7007874015748031
        },
        {
          "duration": 0.22727249999999977,
          "durationTicks": 480,
          "midi": 63,
          "name": "D#4",
          "ticks": 33120,
          "time": 15.681802500000002,
          "velocity": 0.7007874015748031
        },
        {
          "duration": 0.227272499999998,
          "durationTicks": 480,
          "midi": 61,
          "name": "C#4",
          "ticks": 33600,
          "time": 15.909075000000001,
          "velocity": 0.7007874015748031
        },
        {
          "duration": 0.22727250000000154,
          "durationTicks": 480,
          "midi": 59,
          "name": "B3",
          "ticks": 34080,
          "time": 16.1363475,
          "velocity": 0.7007874015748031
        },
        {
          "duration": 0.45454499999999953,
          "durationTicks": 960,
          "midi": 59,
          "name": "B3",
          "ticks": 34560,
          "time": 16.36362,
          "velocity": 0.7007874015748031
        },
        {
          "duration": 0.227272499999998,
          "durationTicks": 480,
          "midi": 63,
          "name": "D#4",
          "ticks": 36960,
          "time": 17.4999825,
          "velocity": 0.7007874015748031
        },
        {
          "duration": 0.22727250000000154,
          "durationTicks": 480,
          "midi": 61,
          "name": "C#4",
          "ticks": 37440,
          "time": 17.727255,
          "velocity": 0.7007874015748031
        },
        {
          "duration": 0.22727250000000154,
          "durationTicks": 480,
          "midi": 59,
          "name": "B3",
          "ticks": 37920,
          "time": 17.9545275,
          "velocity": 0.7007874015748031
        },
        {
          "duration": 0.227272499999998,
          "durationTicks": 480,
          "midi": 63,
          "name": "D#4",
          "ticks": 38400,
          "time": 18.181800000000003,
          "velocity": 0.7007874015748031
        },
        {
          "duration": 0.6818175000000011,
          "durationTicks": 1440,
          "midi": 66,
          "name": "F#4",
          "ticks": 38880,
          "time": 18.4090725,
          "velocity": 0.7007874015748031
        },
        {
          "duration": 0.22727250000000154,
          "durationTicks": 480,
          "midi": 63,
          "name": "D#4",
          "ticks": 40800,
          "time": 19.3181625,
          "velocity": 0.7007874015748031
        },
        {
          "duration": 0.22727250000000154,
          "durationTicks": 480,
          "midi": 61,
          "name": "C#4",
          "ticks": 41280,
          "time": 19.545435,
          "velocity": 0.7007874015748031
        },
        {
          "duration": 0.227272499999998,
          "durationTicks": 480,
          "midi": 59,
          "name": "B3",
          "ticks": 41760,
          "time": 19.772707500000003,
          "velocity": 0.7007874015748031
        },
        {
          "duration": 0.113636249999999,
          "durationTicks": 240,
          "midi": 59,
          "name": "B3",
          "ticks": 42240,
          "time": 19.99998,
          "velocity": 0.7007874015748031
        },
        {
          "duration": 0.5681812500000021,
          "durationTicks": 1200,
          "midi": 61,
          "name": "C#4",
          "ticks": 42480,
          "time": 20.11361625,
          "velocity": 0.7007874015748031
        },
        {
          "duration": 0.22727250000000154,
          "durationTicks": 480,
          "midi": 63,
          "name": "D#4",
          "ticks": 44640,
          "time": 21.1363425,
          "velocity": 0.7007874015748031
        },
        {
          "duration": 0.227272499999998,
          "durationTicks": 480,
          "midi": 61,
          "name": "C#4",
          "ticks": 45120,
          "time": 21.363615000000003,
          "velocity": 0.7007874015748031
        },
        {
          "duration": 0.22727250000000154,
          "durationTicks": 480,
          "midi": 59,
          "name": "B3",
          "ticks": 45600,
          "time": 21.5908875,
          "velocity": 0.7007874015748031
        },
        {
          "duration": 0.227272499999998,
          "durationTicks": 480,
          "midi": 59,
          "name": "B3",
          "ticks": 46080,
          "time": 21.818160000000002,
          "velocity": 0.7007874015748031
        },
        {
          "duration": 0.6818175000000011,
          "durationTicks": 1440,
          "midi": 61,
          "name": "C#4",
          "ticks": 46560,
          "time": 22.0454325,
          "velocity": 0.7007874015748031
        },
        {
          "duration": 0.6818174999999975,
          "durationTicks": 1440,
          "midi": 71,
          "name": "B4",
          "ticks": 49440,
          "time": 23.409067500000003,
          "velocity": 0.7007874015748031
        },
        {
          "duration": 0.22727250000000154,
          "durationTicks": 480,
          "midi": 68,
          "name": "G#4",
          "ticks": 50880,
          "time": 24.090885,
          "velocity": 0.7007874015748031
        },
        {
          "duration": 0.45454499999999953,
          "durationTicks": 960,
          "midi": 66,
          "name": "F#4",
          "ticks": 51360,
          "time": 24.3181575,
          "velocity": 0.7007874015748031
        },
        {
          "duration": 0.6818175000000011,
          "durationTicks": 1440,
          "midi": 68,
          "name": "G#4",
          "ticks": 52320,
          "time": 24.7727025,
          "velocity": 0.7007874015748031
        },
        {
          "duration": 0.22727250000000154,
          "durationTicks": 480,
          "midi": 66,
          "name": "F#4",
          "ticks": 54240,
          "time": 25.6817925,
          "velocity": 0.7007874015748031
        },
        {
          "duration": 0.113636249999999,
          "durationTicks": 240,
          "midi": 63,
          "name": "D#4",
          "ticks": 54720,
          "time": 25.909065000000002,
          "velocity": 0.7007874015748031
        },
        {
          "duration": 0.11363625000000255,
          "durationTicks": 240,
          "midi": 61,
          "name": "C#4",
          "ticks": 54960,
          "time": 26.02270125,
          "velocity": 0.7007874015748031
        },
        {
          "duration": 0.227272499999998,
          "durationTicks": 480,
          "midi": 59,
          "name": "B3",
          "ticks": 55200,
          "time": 26.136337500000003,
          "velocity": 0.7007874015748031
        },
        {
          "duration": 0.45454499999999953,
          "durationTicks": 960,
          "midi": 61,
          "name": "C#4",
          "ticks": 55680,
          "time": 26.36361,
          "velocity": 0.7007874015748031
        },
        {
          "duration": 0.22727250000000154,
          "durationTicks": 480,
          "midi": 71,
          "name": "B4",
          "ticks": 58080,
          "time": 27.499972500000002,
          "velocity": 0.7007874015748031
        },
        {
          "duration": 0.227272499999998,
          "durationTicks": 480,
          "midi": 68,
          "name": "G#4",
          "ticks": 58560,
          "time": 27.727245000000003,
          "velocity": 0.7007874015748031
        },
        {
          "duration": 0.22727250000000154,
          "durationTicks": 480,
          "midi": 71,
          "name": "B4",
          "ticks": 59040,
          "time": 27.9545175,
          "velocity": 0.7007874015748031
        },
        {
          "duration": 0.227272499999998,
          "durationTicks": 480,
          "midi": 68,
          "name": "G#4",
          "ticks": 59520,
          "time": 28.181790000000003,
          "velocity": 0.7007874015748031
        },
        {
          "duration": 0.22727250000000154,
          "durationTicks": 480,
          "midi": 66,
          "name": "F#4",
          "ticks": 60000,
          "time": 28.4090625,
          "velocity": 0.7007874015748031
        },
        {
          "duration": 0.113636249999999,
          "durationTicks": 240,
          "midi": 63,
          "name": "D#4",
          "ticks": 60480,
          "time": 28.636335000000003,
          "velocity": 0.7007874015748031
        },
        {
          "duration": 0.113636249999999,
          "durationTicks": 240,
          "midi": 61,
          "name": "C#4",
          "ticks": 60720,
          "time": 28.74997125,
          "velocity": 0.7007874015748031
        },
        {
          "duration": 0.22727250000000154,
          "durationTicks": 480,
          "midi": 59,
          "name": "B3",
          "ticks": 60960,
          "time": 28.8636075,
          "velocity": 0.7007874015748031
        },
        {
          "duration": 0.113636249999999,
          "durationTicks": 240,
          "midi": 61,
          "name": "C#4",
          "ticks": 61440,
          "time": 29.090880000000002,
          "velocity": 0.7007874015748031
        },
        {
          "duration": 0.11363625000000255,
          "durationTicks": 240,
          "midi": 63,
          "name": "D#4",
          "ticks": 61680,
          "time": 29.20451625,
          "velocity": 0.7007874015748031
        },
        {
          "duration": 0.227272499999998,
          "durationTicks": 480,
          "midi": 66,
          "name": "F#4",
          "ticks": 61920,
          "time": 29.318152500000004,
          "velocity": 0.7007874015748031
        },
        {
          "duration": 0.113636249999999,
          "durationTicks": 240,
          "midi": 63,
          "name": "D#4",
          "ticks": 62400,
          "time": 29.545425,
          "velocity": 0.7007874015748031
        },
        {
          "duration": 0.11363625000000255,
          "durationTicks": 240,
          "midi": 61,
          "name": "C#4",
          "ticks": 62640,
          "time": 29.65906125,
          "velocity": 0.7007874015748031
        },
        {
          "duration": 0.227272499999998,
          "durationTicks": 480,
          "midi": 59,
          "name": "B3",
          "ticks": 62880,
          "time": 29.772697500000003,
          "velocity": 0.7007874015748031
        },
        {
          "duration": 0.45454499999999953,
          "durationTicks": 960,
          "midi": 61,
          "name": "C#4",
          "ticks": 63360,
          "time": 29.99997,
          "velocity": 0.7007874015748031
        },
        {
          "duration": 0.6818175000000011,
          "durationTicks": 1440,
          "midi": 71,
          "name": "B4",
          "ticks": 64800,
          "time": 30.681787500000002,
          "velocity": 0.7007874015748031
        },
        {
          "duration": 0.227272499999998,
          "durationTicks": 480,
          "midi": 68,
          "name": "G#4",
          "ticks": 66240,
          "time": 31.363605000000003,
          "velocity": 0.7007874015748031
        },
        {
          "duration": 0.45454499999999953,
          "durationTicks": 960,
          "midi": 66,
          "name": "F#4",
          "ticks": 66720,
          "time": 31.5908775,
          "velocity": 0.7007874015748031
        },
        {
          "duration": 0.6818175000000011,
          "durationTicks": 1440,
          "midi": 68,
          "name": "G#4",
          "ticks": 67680,
          "time": 32.0454225,
          "velocity": 0.7007874015748031
        },
        {
          "duration": 0.2272725000000051,
          "durationTicks": 480,
          "midi": 66,
          "name": "F#4",
          "ticks": 69600,
          "time": 32.9545125,
          "velocity": 0.7007874015748031
        },
        {
          "duration": 0.113636249999999,
          "durationTicks": 240,
          "midi": 63,
          "name": "D#4",
          "ticks": 70080,
          "time": 33.181785000000005,
          "velocity": 0.7007874015748031
        },
        {
          "duration": 0.113636249999999,
          "durationTicks": 240,
          "midi": 61,
          "name": "C#4",
          "ticks": 70320,
          "time": 33.295421250000004,
          "velocity": 0.7007874015748031
        },
        {
          "duration": 0.227272499999998,
          "durationTicks": 480,
          "midi": 59,
          "name": "B3",
          "ticks": 70560,
          "time": 33.4090575,
          "velocity": 0.7007874015748031
        },
        {
          "duration": 0.4545450000000031,
          "durationTicks": 960,
          "midi": 61,
          "name": "C#4",
          "ticks": 71040,
          "time": 33.63633,
          "velocity": 0.7007874015748031
        },
        {
          "duration": 0.227272499999998,
          "durationTicks": 480,
          "midi": 71,
          "name": "B4",
          "ticks": 73440,
          "time": 34.772692500000005,
          "velocity": 0.7007874015748031
        },
        {
          "duration": 0.227272499999998,
          "durationTicks": 480,
          "midi": 68,
          "name": "G#4",
          "ticks": 73920,
          "time": 34.999965,
          "velocity": 0.7007874015748031
        },
        {
          "duration": 0.227272499999998,
          "durationTicks": 480,
          "midi": 71,
          "name": "B4",
          "ticks": 74400,
          "time": 35.2272375,
          "velocity": 0.7007874015748031
        },
        {
          "duration": 0.2272725000000051,
          "durationTicks": 480,
          "midi": 68,
          "name": "G#4",
          "ticks": 74880,
          "time": 35.45451,
          "velocity": 0.7007874015748031
        },
        {
          "duration": 0.227272499999998,
          "durationTicks": 480,
          "midi": 66,
          "name": "F#4",
          "ticks": 75360,
          "time": 35.681782500000004,
          "velocity": 0.7007874015748031
        },
        {
          "duration": 0.113636249999999,
          "durationTicks": 240,
          "midi": 63,
          "name": "D#4",
          "ticks": 75840,
          "time": 35.909055,
          "velocity": 0.7007874015748031
        },
        {
          "duration": 0.113636249999999,
          "durationTicks": 240,
          "midi": 61,
          "name": "C#4",
          "ticks": 76080,
          "time": 36.02269125,
          "velocity": 0.7007874015748031
        },
        {
          "duration": 0.2272725000000051,
          "durationTicks": 480,
          "midi": 59,
          "name": "B3",
          "ticks": 76320,
          "time": 36.1363275,
          "velocity": 0.7007874015748031
        },
        {
          "duration": 0.113636249999999,
          "durationTicks": 240,
          "midi": 61,
          "name": "C#4",
          "ticks": 76800,
          "time": 36.363600000000005,
          "velocity": 0.7007874015748031
        },
        {
          "duration": 0.113636249999999,
          "durationTicks": 240,
          "midi": 63,
          "name": "D#4",
          "ticks": 77040,
          "time": 36.477236250000004,
          "velocity": 0.7007874015748031
        },
        {
          "duration": 0.227272499999998,
          "durationTicks": 480,
          "midi": 66,
          "name": "F#4",
          "ticks": 77280,
          "time": 36.5908725,
          "velocity": 0.7007874015748031
        },
        {
          "duration": 0.113636249999999,
          "durationTicks": 240,
          "midi": 63,
          "name": "D#4",
          "ticks": 77760,
          "time": 36.818145,
          "velocity": 0.7007874015748031
        },
        {
          "duration": 0.113636249999999,
          "durationTicks": 240,
          "midi": 61,
          "name": "C#4",
          "ticks": 78000,
          "time": 36.93178125,
          "velocity": 0.7007874015748031
        },
        {
          "duration": 0.2272725000000051,
          "durationTicks": 480,
          "midi": 59,
          "name": "B3",
          "ticks": 78240,
          "time": 37.0454175,
          "velocity": 0.7007874015748031
        },
        {
          "duration": 0.454544999999996,
          "durationTicks": 960,
          "midi": 61,
          "name": "C#4",
          "ticks": 78720,
          "time": 37.272690000000004,
          "velocity": 0.7007874015748031
        },
        {
          "duration": 0.227272499999998,
          "durationTicks": 480,
          "midi": 68,
          "name": "G#4",
          "ticks": 111360,
          "time": 52.72722,
          "velocity": 0.7007874015748031
        },
        {
          "duration": 0.2272725000000051,
          "durationTicks": 480,
          "midi": 68,
          "name": "G#4",
          "ticks": 111840,
          "time": 52.9544925,
          "velocity": 0.7007874015748031
        },
        {
          "duration": 0.227272499999998,
          "durationTicks": 480,
          "midi": 68,
          "name": "G#4",
          "ticks": 112320,
          "time": 53.181765000000006,
          "velocity": 0.7007874015748031
        },
        {
          "duration": 0.227272499999998,
          "durationTicks": 480,
          "midi": 63,
          "name": "D#4",
          "ticks": 112800,
          "time": 53.409037500000004,
          "velocity": 0.7007874015748031
        },
        {
          "duration": 0.2272725000000051,
          "durationTicks": 480,
          "midi": 66,
          "name": "F#4",
          "ticks": 113280,
          "time": 53.63631,
          "velocity": 0.7007874015748031
        },
        {
          "duration": 0.227272499999998,
          "durationTicks": 480,
          "midi": 66,
          "name": "F#4",
          "ticks": 113760,
          "time": 53.86358250000001,
          "velocity": 0.7007874015748031
        },
        {
          "duration": 0.454544999999996,
          "durationTicks": 960,
          "midi": 66,
          "name": "F#4",
          "ticks": 114240,
          "time": 54.090855000000005,
          "velocity": 0.7007874015748031
        },
        {
          "duration": 0.2272725000000051,
          "durationTicks": 480,
          "midi": 66,
          "name": "F#4",
          "ticks": 115200,
          "time": 54.5454,
          "velocity": 0.7007874015748031
        },
        {
          "duration": 0.113636249999999,
          "durationTicks": 240,
          "midi": 66,
          "name": "F#4",
          "ticks": 115680,
          "time": 54.772672500000006,
          "velocity": 0.7007874015748031
        },
        {
          "duration": 0.113636249999999,
          "durationTicks": 240,
          "midi": 66,
          "name": "F#4",
          "ticks": 115920,
          "time": 54.886308750000005,
          "velocity": 0.7007874015748031
        },
        {
          "duration": 0.227272499999998,
          "durationTicks": 480,
          "midi": 66,
          "name": "F#4",
          "ticks": 116160,
          "time": 54.999945000000004,
          "velocity": 0.7007874015748031
        },
        {
          "duration": 0.2272725000000051,
          "durationTicks": 480,
          "midi": 66,
          "name": "F#4",
          "ticks": 116640,
          "time": 55.2272175,
          "velocity": 0.7007874015748031
        },
        {
          "duration": 0.227272499999998,
          "durationTicks": 480,
          "midi": 66,
          "name": "F#4",
          "ticks": 117120,
          "time": 55.45449000000001,
          "velocity": 0.7007874015748031
        },
        {
          "duration": 0.227272499999998,
          "durationTicks": 480,
          "midi": 66,
          "name": "F#4",
          "ticks": 117600,
          "time": 55.681762500000005,
          "velocity": 0.7007874015748031
        },
        {
          "duration": 0.4545450000000031,
          "durationTicks": 960,
          "midi": 66,
          "name": "F#4",
          "ticks": 118080,
          "time": 55.909035,
          "velocity": 0.7007874015748031
        },
        {
          "duration": 0.227272499999998,
          "durationTicks": 480,
          "midi": 66,
          "name": "F#4",
          "ticks": 119040,
          "time": 56.363580000000006,
          "velocity": 0.7007874015748031
        },
        {
          "duration": 0.227272499999998,
          "durationTicks": 480,
          "midi": 66,
          "name": "F#4",
          "ticks": 119520,
          "time": 56.590852500000004,
          "velocity": 0.7007874015748031
        },
        {
          "duration": 0.2272725000000051,
          "durationTicks": 480,
          "midi": 66,
          "name": "F#4",
          "ticks": 120000,
          "time": 56.818125,
          "velocity": 0.7007874015748031
        },
        {
          "duration": 0.227272499999998,
          "durationTicks": 480,
          "midi": 66,
          "name": "F#4",
          "ticks": 120480,
          "time": 57.04539750000001,
          "velocity": 0.7007874015748031
        },
        {
          "duration": 0.227272499999998,
          "durationTicks": 480,
          "midi": 66,
          "name": "F#4",
          "ticks": 120960,
          "time": 57.272670000000005,
          "velocity": 0.7007874015748031
        },
        {
          "duration": 0.227272499999998,
          "durationTicks": 480,
          "midi": 66,
          "name": "F#4",
          "ticks": 121440,
          "time": 57.4999425,
          "velocity": 0.7007874015748031
        },
        {
          "duration": 0.4545450000000031,
          "durationTicks": 960,
          "midi": 66,
          "name": "F#4",
          "ticks": 121920,
          "time": 57.727215,
          "velocity": 0.7007874015748031
        },
        {
          "duration": 0.227272499999998,
          "durationTicks": 480,
          "midi": 66,
          "name": "F#4",
          "ticks": 122880,
          "time": 58.181760000000004,
          "velocity": 0.7007874015748031
        },
        {
          "duration": 0.113636249999999,
          "durationTicks": 240,
          "midi": 66,
          "name": "F#4",
          "ticks": 123360,
          "time": 58.4090325,
          "velocity": 0.7007874015748031
        },
        {
          "duration": 0.1136362500000061,
          "durationTicks": 240,
          "midi": 66,
          "name": "F#4",
          "ticks": 123600,
          "time": 58.52266875,
          "velocity": 0.7007874015748031
        },
        {
          "duration": 0.227272499999998,
          "durationTicks": 480,
          "midi": 66,
          "name": "F#4",
          "ticks": 123840,
          "time": 58.63630500000001,
          "velocity": 0.7007874015748031
        },
        {
          "duration": 0.227272499999998,
          "durationTicks": 480,
          "midi": 66,
          "name": "F#4",
          "ticks": 124320,
          "time": 58.863577500000005,
          "velocity": 0.7007874015748031
        },
        {
          "duration": 0.227272499999998,
          "durationTicks": 480,
          "midi": 66,
          "name": "F#4",
          "ticks": 124800,
          "time": 59.09085,
          "velocity": 0.7007874015748031
        },
        {
          "duration": 0.2272725000000051,
          "durationTicks": 480,
          "midi": 66,
          "name": "F#4",
          "ticks": 125280,
          "time": 59.3181225,
          "velocity": 0.7007874015748031
        },
        {
          "duration": 0.454544999999996,
          "durationTicks": 960,
          "midi": 66,
          "name": "F#4",
          "ticks": 125760,
          "time": 59.545395000000006,
          "velocity": 0.7007874015748031
        },
        {
          "duration": 0.2272725000000051,
          "durationTicks": 480,
          "midi": 68,
          "name": "G#4",
          "ticks": 126720,
          "time": 59.99994,
          "velocity": 0.7007874015748031
        },
        {
          "duration": 0.227272499999998,
          "durationTicks": 480,
          "midi": 68,
          "name": "G#4",
          "ticks": 127200,
          "time": 60.22721250000001,
          "velocity": 0.7007874015748031
        },
        {
          "duration": 0.227272499999998,
          "durationTicks": 480,
          "midi": 68,
          "name": "G#4",
          "ticks": 127680,
          "time": 60.454485000000005,
          "velocity": 0.7007874015748031
        },
        {
          "duration": 0.227272499999998,
          "durationTicks": 480,
          "midi": 63,
          "name": "D#4",
          "ticks": 128160,
          "time": 60.6817575,
          "velocity": 0.7007874015748031
        },
        {
          "duration": 0.2272725000000051,
          "durationTicks": 480,
          "midi": 66,
          "name": "F#4",
          "ticks": 128640,
          "time": 60.90903,
          "velocity": 0.7007874015748031
        },
        {
          "duration": 0.227272499999998,
          "durationTicks": 480,
          "midi": 66,
          "name": "F#4",
          "ticks": 129120,
          "time": 61.136302500000006,
          "velocity": 0.7007874015748031
        },
        {
          "duration": 0.4545450000000031,
          "durationTicks": 960,
          "midi": 66,
          "name": "F#4",
          "ticks": 129600,
          "time": 61.363575000000004,
          "velocity": 0.7007874015748031
        },
        {
          "duration": 0.227272499999998,
          "durationTicks": 480,
          "midi": 66,
          "name": "F#4",
          "ticks": 130560,
          "time": 61.81812000000001,
          "velocity": 0.7007874015748031
        },
        {
          "duration": 0.113636249999999,
          "durationTicks": 240,
          "midi": 66,
          "name": "F#4",
          "ticks": 131040,
          "time": 62.045392500000005,
          "velocity": 0.7007874015748031
        },
        {
          "duration": 0.113636249999999,
          "durationTicks": 240,
          "midi": 66,
          "name": "F#4",
          "ticks": 131280,
          "time": 62.159028750000004,
          "velocity": 0.7007874015748031
        },
        {
          "duration": 0.227272499999998,
          "durationTicks": 480,
          "midi": 66,
          "name": "F#4",
          "ticks": 131520,
          "time": 62.272665,
          "velocity": 0.7007874015748031
        },
        {
          "duration": 0.2272725000000051,
          "durationTicks": 480,
          "midi": 66,
          "name": "F#4",
          "ticks": 132000,
          "time": 62.4999375,
          "velocity": 0.7007874015748031
        },
        {
          "duration": 0.227272499999998,
          "durationTicks": 480,
          "midi": 66,
          "name": "F#4",
          "ticks": 132480,
          "time": 62.72721000000001,
          "velocity": 0.7007874015748031
        },
        {
          "duration": 0.227272499999998,
          "durationTicks": 480,
          "midi": 66,
          "name": "F#4",
          "ticks": 132960,
          "time": 62.954482500000005,
          "velocity": 0.7007874015748031
        },
        {
          "duration": 0.4545450000000031,
          "durationTicks": 960,
          "midi": 66,
          "name": "F#4",
          "ticks": 133440,
          "time": 63.181755,
          "velocity": 0.7007874015748031
        },
        {
          "duration": 0.227272499999998,
          "durationTicks": 480,
          "midi": 66,
          "name": "F#4",
          "ticks": 134400,
          "time": 63.636300000000006,
          "velocity": 0.7007874015748031
        },
        {
          "duration": 0.227272499999998,
          "durationTicks": 480,
          "midi": 66,
          "name": "F#4",
          "ticks": 134880,
          "time": 63.863572500000004,
          "velocity": 0.7007874015748031
        },
        {
          "duration": 0.227272499999998,
          "durationTicks": 480,
          "midi": 66,
          "name": "F#4",
          "ticks": 135360,
          "time": 64.090845,
          "velocity": 0.7007874015748031
        },
        {
          "duration": 0.227272499999998,
          "durationTicks": 480,
          "midi": 66,
          "name": "F#4",
          "ticks": 135840,
          "time": 64.3181175,
          "velocity": 0.7007874015748031
        },
        {
          "duration": 0.2272725000000122,
          "durationTicks": 480,
          "midi": 66,
          "name": "F#4",
          "ticks": 136320,
          "time": 64.54539,
          "velocity": 0.7007874015748031
        },
        {
          "duration": 0.227272499999998,
          "durationTicks": 480,
          "midi": 66,
          "name": "F#4",
          "ticks": 136800,
          "time": 64.77266250000001,
          "velocity": 0.7007874015748031
        },
        {
          "duration": 0.454544999999996,
          "durationTicks": 960,
          "midi": 66,
          "name": "F#4",
          "ticks": 137280,
          "time": 64.99993500000001,
          "velocity": 0.7007874015748031
        },
        {
          "duration": 0.227272499999998,
          "durationTicks": 480,
          "midi": 66,
          "name": "F#4",
          "ticks": 138240,
          "time": 65.45448,
          "velocity": 0.7007874015748031
        },
        {
          "duration": 0.113636249999999,
          "durationTicks": 240,
          "midi": 66,
          "name": "F#4",
          "ticks": 138720,
          "time": 65.6817525,
          "velocity": 0.7007874015748031
        },
        {
          "duration": 0.113636249999999,
          "durationTicks": 240,
          "midi": 66,
          "name": "F#4",
          "ticks": 138960,
          "time": 65.79538875,
          "velocity": 0.7007874015748031
        },
        {
          "duration": 0.227272499999998,
          "durationTicks": 480,
          "midi": 66,
          "name": "F#4",
          "ticks": 139200,
          "time": 65.909025,
          "velocity": 0.7007874015748031
        },
        {
          "duration": 0.2272725000000122,
          "durationTicks": 480,
          "midi": 66,
          "name": "F#4",
          "ticks": 139680,
          "time": 66.1362975,
          "velocity": 0.7007874015748031
        },
        {
          "duration": 0.227272499999998,
          "durationTicks": 480,
          "midi": 66,
          "name": "F#4",
          "ticks": 140160,
          "time": 66.36357000000001,
          "velocity": 0.7007874015748031
        },
        {
          "duration": 0.227272499999998,
          "durationTicks": 480,
          "midi": 66,
          "name": "F#4",
          "ticks": 140640,
          "time": 66.59084250000001,
          "velocity": 0.7007874015748031
        },
        {
          "duration": 0.454544999999996,
          "durationTicks": 960,
          "midi": 66,
          "name": "F#4",
          "ticks": 141120,
          "time": 66.818115,
          "velocity": 0.7007874015748031
        },
        {
          "duration": 0.227272499999998,
          "durationTicks": 480,
          "midi": 59,
          "name": "B3",
          "ticks": 142080,
          "time": 67.27266,
          "velocity": 0.7007874015748031
        },
        {
          "duration": 0.4545450000000102,
          "durationTicks": 960,
          "midi": 56,
          "name": "G#3",
          "ticks": 142560,
          "time": 67.4999325,
          "velocity": 0.7007874015748031
        },
        {
          "duration": 0.227272499999998,
          "durationTicks": 480,
          "midi": 63,
          "name": "D#4",
          "ticks": 144480,
          "time": 68.4090225,
          "velocity": 0.7007874015748031
        },
        {
          "duration": 0.227272499999998,
          "durationTicks": 480,
          "midi": 61,
          "name": "C#4",
          "ticks": 144960,
          "time": 68.636295,
          "velocity": 0.7007874015748031
        },
        {
          "duration": 0.227272499999998,
          "durationTicks": 480,
          "midi": 59,
          "name": "B3",
          "ticks": 145440,
          "time": 68.8635675,
          "velocity": 0.7007874015748031
        },
        {
          "duration": 0.227272499999998,
          "durationTicks": 480,
          "midi": 63,
          "name": "D#4",
          "ticks": 145920,
          "time": 69.09084,
          "velocity": 0.7007874015748031
        },
        {
          "duration": 0.6818175000000082,
          "durationTicks": 1440,
          "midi": 66,
          "name": "F#4",
          "ticks": 146400,
          "time": 69.3181125,
          "velocity": 0.7007874015748031
        },
        {
          "duration": 0.227272499999998,
          "durationTicks": 480,
          "midi": 63,
          "name": "D#4",
          "ticks": 148320,
          "time": 70.2272025,
          "velocity": 0.7007874015748031
        },
        {
          "duration": 0.227272499999998,
          "durationTicks": 480,
          "midi": 61,
          "name": "C#4",
          "ticks": 148800,
          "time": 70.454475,
          "velocity": 0.7007874015748031
        },
        {
          "duration": 0.227272499999998,
          "durationTicks": 480,
          "midi": 59,
          "name": "B3",
          "ticks": 149280,
          "time": 70.6817475,
          "velocity": 0.7007874015748031
        },
        {
          "duration": 0.1136362500000132,
          "durationTicks": 240,
          "midi": 59,
          "name": "B3",
          "ticks": 149760,
          "time": 70.90902,
          "velocity": 0.7007874015748031
        },
        {
          "duration": 0.568181249999995,
          "durationTicks": 1200,
          "midi": 61,
          "name": "C#4",
          "ticks": 150000,
          "time": 71.02265625000001,
          "velocity": 0.7007874015748031
        },
        {
          "duration": 0.227272499999998,
          "durationTicks": 480,
          "midi": 63,
          "name": "D#4",
          "ticks": 152160,
          "time": 72.0453825,
          "velocity": 0.7007874015748031
        },
        {
          "duration": 0.227272499999998,
          "durationTicks": 480,
          "midi": 61,
          "name": "C#4",
          "ticks": 152640,
          "time": 72.272655,
          "velocity": 0.7007874015748031
        },
        {
          "duration": 0.2272725000000122,
          "durationTicks": 480,
          "midi": 59,
          "name": "B3",
          "ticks": 153120,
          "time": 72.4999275,
          "velocity": 0.7007874015748031
        },
        {
          "duration": 0.227272499999998,
          "durationTicks": 480,
          "midi": 59,
          "name": "B3",
          "ticks": 153600,
          "time": 72.72720000000001,
          "velocity": 0.7007874015748031
        },
        {
          "duration": 0.454544999999996,
          "durationTicks": 960,
          "midi": 56,
          "name": "G#3",
          "ticks": 154080,
          "time": 72.95447250000001,
          "velocity": 0.7007874015748031
        },
        {
          "duration": 0.227272499999998,
          "durationTicks": 480,
          "midi": 63,
          "name": "D#4",
          "ticks": 156000,
          "time": 73.8635625,
          "velocity": 0.7007874015748031
        },
        {
          "duration": 0.2272725000000122,
          "durationTicks": 480,
          "midi": 61,
          "name": "C#4",
          "ticks": 156480,
          "time": 74.090835,
          "velocity": 0.7007874015748031
        },
        {
          "duration": 0.227272499999998,
          "durationTicks": 480,
          "midi": 59,
          "name": "B3",
          "ticks": 156960,
          "time": 74.31810750000001,
          "velocity": 0.7007874015748031
        },
        {
          "duration": 0.454544999999996,
          "durationTicks": 960,
          "midi": 59,
          "name": "B3",
          "ticks": 157440,
          "time": 74.54538000000001,
          "velocity": 0.7007874015748031
        },
        {
          "duration": 0.2272725000000122,
          "durationTicks": 480,
          "midi": 63,
          "name": "D#4",
          "ticks": 159840,
          "time": 75.6817425,
          "velocity": 0.7007874015748031
        },
        {
          "duration": 0.227272499999998,
          "durationTicks": 480,
          "midi": 61,
          "name": "C#4",
          "ticks": 160320,
          "time": 75.90901500000001,
          "velocity": 0.7007874015748031
        },
        {
          "duration": 0.227272499999998,
          "durationTicks": 480,
          "midi": 59,
          "name": "B3",
          "ticks": 160800,
          "time": 76.13628750000001,
          "velocity": 0.7007874015748031
        },
        {
          "duration": 0.227272499999998,
          "durationTicks": 480,
          "midi": 63,
          "name": "D#4",
          "ticks": 161280,
          "time": 76.36356,
          "velocity": 0.7007874015748031
        },
        {
          "duration": 0.681817499999994,
          "durationTicks": 1440,
          "midi": 66,
          "name": "F#4",
          "ticks": 161760,
          "time": 76.5908325,
          "velocity": 0.7007874015748031
        },
        {
          "duration": 0.227272499999998,
          "durationTicks": 480,
          "midi": 63,
          "name": "D#4",
          "ticks": 163680,
          "time": 77.49992250000001,
          "velocity": 0.7007874015748031
        },
        {
          "duration": 0.227272499999998,
          "durationTicks": 480,
          "midi": 61,
          "name": "C#4",
          "ticks": 164160,
          "time": 77.72719500000001,
          "velocity": 0.7007874015748031
        },
        {
          "duration": 0.227272499999998,
          "durationTicks": 480,
          "midi": 59,
          "name": "B3",
          "ticks": 164640,
          "time": 77.9544675,
          "velocity": 0.7007874015748031
        },
        {
          "duration": 0.113636249999999,
          "durationTicks": 240,
          "midi": 59,
          "name": "B3",
          "ticks": 165120,
          "time": 78.18174,
          "velocity": 0.7007874015748031
        },
        {
          "duration": 0.568181249999995,
          "durationTicks": 1200,
          "midi": 61,
          "name": "C#4",
          "ticks": 165360,
          "time": 78.29537625,
          "velocity": 0.7007874015748031
        },
        {
          "duration": 0.227272499999998,
          "durationTicks": 480,
          "midi": 63,
          "name": "D#4",
          "ticks": 167520,
          "time": 79.31810250000001,
          "velocity": 0.7007874015748031
        },
        {
          "duration": 0.227272499999998,
          "durationTicks": 480,
          "midi": 61,
          "name": "C#4",
          "ticks": 168000,
          "time": 79.545375,
          "velocity": 0.7007874015748031
        },
        {
          "duration": 0.227272499999998,
          "durationTicks": 480,
          "midi": 59,
          "name": "B3",
          "ticks": 168480,
          "time": 79.7726475,
          "velocity": 0.7007874015748031
        },
        {
          "duration": 0.227272499999998,
          "durationTicks": 480,
          "midi": 59,
          "name": "B3",
          "ticks": 168960,
          "time": 79.99992,
          "velocity": 0.7007874015748031
        },
        {
          "duration": 0.4545450000000102,
          "durationTicks": 960,
          "midi": 61,
          "name": "C#4",
          "ticks": 169440,
          "time": 80.2271925,
          "velocity": 0.7007874015748031
        },
        {
          "duration": 0.227272499999998,
          "durationTicks": 480,
          "midi": 63,
          "name": "D#4",
          "ticks": 171360,
          "time": 81.13628250000001,
          "velocity": 0.7007874015748031
        },
        {
          "duration": 0.227272499999998,
          "durationTicks": 480,
          "midi": 61,
          "name": "C#4",
          "ticks": 171840,
          "time": 81.363555,
          "velocity": 0.7007874015748031
        },
        {
          "duration": 0.227272499999998,
          "durationTicks": 480,
          "midi": 59,
          "name": "B3",
          "ticks": 172320,
          "time": 81.5908275,
          "velocity": 0.7007874015748031
        },
        {
          "duration": 0.227272499999998,
          "durationTicks": 480,
          "midi": 59,
          "name": "B3",
          "ticks": 172800,
          "time": 81.8181,
          "velocity": 0.7007874015748031
        },
        {
          "duration": 0.4545450000000102,
          "durationTicks": 960,
          "midi": 56,
          "name": "G#3",
          "ticks": 173280,
          "time": 82.0453725,
          "velocity": 0.7007874015748031
        },
        {
          "duration": 0.227272499999998,
          "durationTicks": 480,
          "midi": 63,
          "name": "D#4",
          "ticks": 175200,
          "time": 82.9544625,
          "velocity": 0.7007874015748031
        },
        {
          "duration": 0.227272499999998,
          "durationTicks": 480,
          "midi": 61,
          "name": "C#4",
          "ticks": 175680,
          "time": 83.181735,
          "velocity": 0.7007874015748031
        },
        {
          "duration": 0.227272499999998,
          "durationTicks": 480,
          "midi": 59,
          "name": "B3",
          "ticks": 176160,
          "time": 83.4090075,
          "velocity": 0.7007874015748031
        },
        {
          "duration": 0.2272725000000122,
          "durationTicks": 480,
          "midi": 63,
          "name": "D#4",
          "ticks": 176640,
          "time": 83.63628,
          "velocity": 0.7007874015748031
        },
        {
          "duration": 0.681817499999994,
          "durationTicks": 1440,
          "midi": 66,
          "name": "F#4",
          "ticks": 177120,
          "time": 83.86355250000001,
          "velocity": 0.7007874015748031
        },
        {
          "duration": 0.227272499999998,
          "durationTicks": 480,
          "midi": 63,
          "name": "D#4",
          "ticks": 179040,
          "time": 84.7726425,
          "velocity": 0.7007874015748031
        },
        {
          "duration": 0.227272499999998,
          "durationTicks": 480,
          "midi": 61,
          "name": "C#4",
          "ticks": 179520,
          "time": 84.999915,
          "velocity": 0.7007874015748031
        },
        {
          "duration": 0.2272725000000122,
          "durationTicks": 480,
          "midi": 59,
          "name": "B3",
          "ticks": 180000,
          "time": 85.2271875,
          "velocity": 0.7007874015748031
        },
        {
          "duration": 0.113636249999999,
          "durationTicks": 240,
          "midi": 59,
          "name": "B3",
          "ticks": 180480,
          "time": 85.45446000000001,
          "velocity": 0.7007874015748031
        },
        {
          "duration": 0.568181249999995,
          "durationTicks": 1200,
          "midi": 61,
          "name": "C#4",
          "ticks": 180720,
          "time": 85.56809625000001,
          "velocity": 0.7007874015748031
        },
        {
          "duration": 0.227272499999998,
          "durationTicks": 480,
          "midi": 63,
          "name": "D#4",
          "ticks": 182880,
          "time": 86.5908225,
          "velocity": 0.7007874015748031
        },
        {
          "duration": 0.2272725000000122,
          "durationTicks": 480,
          "midi": 61,
          "name": "C#4",
          "ticks": 183360,
          "time": 86.818095,
          "velocity": 0.7007874015748031
        },
        {
          "duration": 0.227272499999998,
          "durationTicks": 480,
          "midi": 59,
          "name": "B3",
          "ticks": 183840,
          "time": 87.04536750000001,
          "velocity": 0.7007874015748031
        },
        {
          "duration": 0.227272499999998,
          "durationTicks": 480,
          "midi": 59,
          "name": "B3",
          "ticks": 184320,
          "time": 87.27264000000001,
          "velocity": 0.7007874015748031
        },
        {
          "duration": 0.454544999999996,
          "durationTicks": 960,
          "midi": 56,
          "name": "G#3",
          "ticks": 184800,
          "time": 87.49991250000001,
          "velocity": 0.7007874015748031
        },
        {
          "duration": 0.2272725000000122,
          "durationTicks": 480,
          "midi": 63,
          "name": "D#4",
          "ticks": 186720,
          "time": 88.4090025,
          "velocity": 0.7007874015748031
        },
        {
          "duration": 0.227272499999998,
          "durationTicks": 480,
          "midi": 61,
          "name": "C#4",
          "ticks": 187200,
          "time": 88.63627500000001,
          "velocity": 0.7007874015748031
        },
        {
          "duration": 0.227272499999998,
          "durationTicks": 480,
          "midi": 59,
          "name": "B3",
          "ticks": 187680,
          "time": 88.86354750000001,
          "velocity": 0.7007874015748031
        },
        {
          "duration": 0.454544999999996,
          "durationTicks": 960,
          "midi": 59,
          "name": "B3",
          "ticks": 188160,
          "time": 89.09082000000001,
          "velocity": 0.7007874015748031
        },
        {
          "duration": 0.227272499999998,
          "durationTicks": 480,
          "midi": 63,
          "name": "D#4",
          "ticks": 190560,
          "time": 90.22718250000001,
          "velocity": 0.7007874015748031
        },
        {
          "duration": 0.227272499999998,
          "durationTicks": 480,
          "midi": 61,
          "name": "C#4",
          "ticks": 191040,
          "time": 90.45445500000001,
          "velocity": 0.7007874015748031
        },
        {
          "duration": 0.227272499999998,
          "durationTicks": 480,
          "midi": 59,
          "name": "B3",
          "ticks": 191520,
          "time": 90.68172750000001,
          "velocity": 0.7007874015748031
        },
        {
          "duration": 0.227272499999998,
          "durationTicks": 480,
          "midi": 63,
          "name": "D#4",
          "ticks": 192000,
          "time": 90.909,
          "velocity": 0.7007874015748031
        },
        {
          "duration": 0.6818175000000082,
          "durationTicks": 1440,
          "midi": 66,
          "name": "F#4",
          "ticks": 192480,
          "time": 91.1362725,
          "velocity": 0.7007874015748031
        },
        {
          "duration": 0.227272499999998,
          "durationTicks": 480,
          "midi": 63,
          "name": "D#4",
          "ticks": 194400,
          "time": 92.04536250000001,
          "velocity": 0.7007874015748031
        },
        {
          "duration": 0.227272499999998,
          "durationTicks": 480,
          "midi": 61,
          "name": "C#4",
          "ticks": 194880,
          "time": 92.27263500000001,
          "velocity": 0.7007874015748031
        },
        {
          "duration": 0.227272499999998,
          "durationTicks": 480,
          "midi": 59,
          "name": "B3",
          "ticks": 195360,
          "time": 92.4999075,
          "velocity": 0.7007874015748031
        },
        {
          "duration": 0.113636249999999,
          "durationTicks": 240,
          "midi": 59,
          "name": "B3",
          "ticks": 195840,
          "time": 92.72718,
          "velocity": 0.7007874015748031
        },
        {
          "duration": 0.5681812500000092,
          "durationTicks": 1200,
          "midi": 61,
          "name": "C#4",
          "ticks": 196080,
          "time": 92.84081625,
          "velocity": 0.7007874015748031
        },
        {
          "duration": 0.227272499999998,
          "durationTicks": 480,
          "midi": 63,
          "name": "D#4",
          "ticks": 198240,
          "time": 93.86354250000001,
          "velocity": 0.7007874015748031
        },
        {
          "duration": 0.227272499999998,
          "durationTicks": 480,
          "midi": 61,
          "name": "C#4",
          "ticks": 198720,
          "time": 94.090815,
          "velocity": 0.7007874015748031
        },
        {
          "duration": 0.227272499999998,
          "durationTicks": 480,
          "midi": 59,
          "name": "B3",
          "ticks": 199200,
          "time": 94.3180875,
          "velocity": 0.7007874015748031
        },
        {
          "duration": 0.227272499999998,
          "durationTicks": 480,
          "midi": 59,
          "name": "B3",
          "ticks": 199680,
          "time": 94.54536,
          "velocity": 0.7007874015748031
        },
        {
          "duration": 0.6818175000000082,
          "durationTicks": 1440,
          "midi": 61,
          "name": "C#4",
          "ticks": 200160,
          "time": 94.7726325,
          "velocity": 0.7007874015748031
        },
        {
          "duration": 0.6818175000000082,
          "durationTicks": 1440,
          "midi": 71,
          "name": "B4",
          "ticks": 203040,
          "time": 96.1362675,
          "velocity": 0.7007874015748031
        },
        {
          "duration": 0.227272499999998,
          "durationTicks": 480,
          "midi": 68,
          "name": "G#4",
          "ticks": 204480,
          "time": 96.81808500000001,
          "velocity": 0.7007874015748031
        },
        {
          "duration": 0.454544999999996,
          "durationTicks": 960,
          "midi": 66,
          "name": "F#4",
          "ticks": 204960,
          "time": 97.04535750000001,
          "velocity": 0.7007874015748031
        },
        {
          "duration": 0.6818175000000082,
          "durationTicks": 1440,
          "midi": 68,
          "name": "G#4",
          "ticks": 205920,
          "time": 97.4999025,
          "velocity": 0.7007874015748031
        },
        {
          "duration": 0.227272499999998,
          "durationTicks": 480,
          "midi": 66,
          "name": "F#4",
          "ticks": 208320,
          "time": 98.63626500000001,
          "velocity": 0.7007874015748031
        },
        {
          "duration": 0.113636249999999,
          "durationTicks": 240,
          "midi": 63,
          "name": "D#4",
          "ticks": 208800,
          "time": 98.8635375,
          "velocity": 0.7007874015748031
        },
        {
          "duration": 0.113636249999999,
          "durationTicks": 240,
          "midi": 61,
          "name": "C#4",
          "ticks": 209040,
          "time": 98.97717375,
          "velocity": 0.7007874015748031
        },
        {
          "duration": 0.227272499999998,
          "durationTicks": 480,
          "midi": 59,
          "name": "B3",
          "ticks": 209280,
          "time": 99.09081,
          "velocity": 0.7007874015748031
        },
        {
          "duration": 0.4545450000000102,
          "durationTicks": 960,
          "midi": 61,
          "name": "C#4",
          "ticks": 209760,
          "time": 99.3180825,
          "velocity": 0.7007874015748031
        },
        {
          "duration": 0.227272499999998,
          "durationTicks": 480,
          "midi": 71,
          "name": "B4",
          "ticks": 211680,
          "time": 100.22717250000001,
          "velocity": 0.7007874015748031
        },
        {
          "duration": 0.227272499999998,
          "durationTicks": 480,
          "midi": 68,
          "name": "G#4",
          "ticks": 212160,
          "time": 100.454445,
          "velocity": 0.7007874015748031
        },
        {
          "duration": 0.227272499999998,
          "durationTicks": 480,
          "midi": 71,
          "name": "B4",
          "ticks": 212640,
          "time": 100.6817175,
          "velocity": 0.7007874015748031
        },
        {
          "duration": 0.227272499999998,
          "durationTicks": 480,
          "midi": 68,
          "name": "G#4",
          "ticks": 213120,
          "time": 100.90899,
          "velocity": 0.7007874015748031
        },
        {
          "duration": 0.2272725000000122,
          "durationTicks": 480,
          "midi": 66,
          "name": "F#4",
          "ticks": 213600,
          "time": 101.1362625,
          "velocity": 0.7007874015748031
        },
        {
          "duration": 0.113636249999999,
          "durationTicks": 240,
          "midi": 63,
          "name": "D#4",
          "ticks": 214080,
          "time": 101.36353500000001,
          "velocity": 0.7007874015748031
        },
        {
          "duration": 0.113636249999999,
          "durationTicks": 240,
          "midi": 61,
          "name": "C#4",
          "ticks": 214320,
          "time": 101.47717125000001,
          "velocity": 0.7007874015748031
        },
        {
          "duration": 0.227272499999998,
          "durationTicks": 480,
          "midi": 59,
          "name": "B3",
          "ticks": 214560,
          "time": 101.59080750000001,
          "velocity": 0.7007874015748031
        },
        {
          "duration": 0.113636249999999,
          "durationTicks": 240,
          "midi": 61,
          "name": "C#4",
          "ticks": 215040,
          "time": 101.81808000000001,
          "velocity": 0.7007874015748031
        },
        {
          "duration": 0.113636249999999,
          "durationTicks": 240,
          "midi": 63,
          "name": "D#4",
          "ticks": 215280,
          "time": 101.93171625000001,
          "velocity": 0.7007874015748031
        },
        {
          "duration": 0.227272499999998,
          "durationTicks": 480,
          "midi": 66,
          "name": "F#4",
          "ticks": 215520,
          "time": 102.0453525,
          "velocity": 0.7007874015748031
        },
        {
          "duration": 0.113636249999999,
          "durationTicks": 240,
          "midi": 63,
          "name": "D#4",
          "ticks": 216000,
          "time": 102.272625,
          "velocity": 0.7007874015748031
        },
        {
          "duration": 0.113636249999999,
          "durationTicks": 240,
          "midi": 61,
          "name": "C#4",
          "ticks": 216240,
          "time": 102.38626125,
          "velocity": 0.7007874015748031
        },
        {
          "duration": 0.227272499999998,
          "durationTicks": 480,
          "midi": 59,
          "name": "B3",
          "ticks": 216480,
          "time": 102.4998975,
          "velocity": 0.7007874015748031
        },
        {
          "duration": 0.4545450000000102,
          "durationTicks": 960,
          "midi": 61,
          "name": "C#4",
          "ticks": 216960,
          "time": 102.72717,
          "velocity": 0.7007874015748031
        },
        {
          "duration": 0.227272499999998,
          "durationTicks": 480,
          "midi": 71,
          "name": "B4",
          "ticks": 218400,
          "time": 103.40898750000001,
          "velocity": 0.7007874015748031
        },
        {
          "duration": 0.454544999999996,
          "durationTicks": 960,
          "midi": 71,
          "name": "B4",
          "ticks": 218880,
          "time": 103.63626000000001,
          "velocity": 0.7007874015748031
        },
        {
          "duration": 0.227272499999998,
          "durationTicks": 480,
          "midi": 68,
          "name": "G#4",
          "ticks": 219840,
          "time": 104.090805,
          "velocity": 0.7007874015748031
        },
        {
          "duration": 0.4545450000000102,
          "durationTicks": 960,
          "midi": 66,
          "name": "F#4",
          "ticks": 220320,
          "time": 104.3180775,
          "velocity": 0.7007874015748031
        },
        {
          "duration": 0.681817499999994,
          "durationTicks": 1440,
          "midi": 68,
          "name": "G#4",
          "ticks": 221280,
          "time": 104.77262250000001,
          "velocity": 0.7007874015748031
        },
        {
          "duration": 0.227272499999998,
          "durationTicks": 480,
          "midi": 66,
          "name": "F#4",
          "ticks": 223200,
          "time": 105.6817125,
          "velocity": 0.7007874015748031
        },
        {
          "duration": 0.1136362500000132,
          "durationTicks": 240,
          "midi": 63,
          "name": "D#4",
          "ticks": 223680,
          "time": 105.908985,
          "velocity": 0.7007874015748031
        },
        {
          "duration": 0.113636249999999,
          "durationTicks": 240,
          "midi": 61,
          "name": "C#4",
          "ticks": 223920,
          "time": 106.02262125000001,
          "velocity": 0.7007874015748031
        },
        {
          "duration": 0.227272499999998,
          "durationTicks": 480,
          "midi": 59,
          "name": "B3",
          "ticks": 224160,
          "time": 106.13625750000001,
          "velocity": 0.7007874015748031
        },
        {
          "duration": 0.454544999999996,
          "durationTicks": 960,
          "midi": 61,
          "name": "C#4",
          "ticks": 224640,
          "time": 106.36353000000001,
          "velocity": 0.7007874015748031
        },
        {
          "duration": 0.2272725000000122,
          "durationTicks": 480,
          "midi": 71,
          "name": "B4",
          "ticks": 227040,
          "time": 107.4998925,
          "velocity": 0.7007874015748031
        },
        {
          "duration": 0.227272499999998,
          "durationTicks": 480,
          "midi": 68,
          "name": "G#4",
          "ticks": 227520,
          "time": 107.72716500000001,
          "velocity": 0.7007874015748031
        },
        {
          "duration": 0.227272499999998,
          "durationTicks": 480,
          "midi": 71,
          "name": "B4",
          "ticks": 228000,
          "time": 107.95443750000001,
          "velocity": 0.7007874015748031
        },
        {
          "duration": 0.227272499999998,
          "durationTicks": 480,
          "midi": 68,
          "name": "G#4",
          "ticks": 228480,
          "time": 108.18171000000001,
          "velocity": 0.7007874015748031
        },
        {
          "duration": 0.227272499999998,
          "durationTicks": 480,
          "midi": 66,
          "name": "F#4",
          "ticks": 228960,
          "time": 108.40898250000001,
          "velocity": 0.7007874015748031
        },
        {
          "duration": 0.113636249999999,
          "durationTicks": 240,
          "midi": 63,
          "name": "D#4",
          "ticks": 229440,
          "time": 108.636255,
          "velocity": 0.7007874015748031
        },
        {
          "duration": 0.113636249999999,
          "durationTicks": 240,
          "midi": 61,
          "name": "C#4",
          "ticks": 229680,
          "time": 108.74989125,
          "velocity": 0.7007874015748031
        },
        {
          "duration": 0.227272499999998,
          "durationTicks": 480,
          "midi": 59,
          "name": "B3",
          "ticks": 229920,
          "time": 108.8635275,
          "velocity": 0.7007874015748031
        },
        {
          "duration": 0.1136362500000132,
          "durationTicks": 240,
          "midi": 61,
          "name": "C#4",
          "ticks": 230400,
          "time": 109.0908,
          "velocity": 0.7007874015748031
        },
        {
          "duration": 0.113636249999999,
          "durationTicks": 240,
          "midi": 63,
          "name": "D#4",
          "ticks": 230640,
          "time": 109.20443625000001,
          "velocity": 0.7007874015748031
        },
        {
          "duration": 0.227272499999998,
          "durationTicks": 480,
          "midi": 66,
          "name": "F#4",
          "ticks": 230880,
          "time": 109.31807250000001,
          "velocity": 0.7007874015748031
        },
        {
          "duration": 0.113636249999999,
          "durationTicks": 240,
          "midi": 63,
          "name": "D#4",
          "ticks": 231360,
          "time": 109.54534500000001,
          "velocity": 0.7007874015748031
        },
        {
          "duration": 0.113636249999999,
          "durationTicks": 240,
          "midi": 61,
          "name": "C#4",
          "ticks": 231600,
          "time": 109.65898125000001,
          "velocity": 0.7007874015748031
        },
        {
          "duration": 0.227272499999998,
          "durationTicks": 480,
          "midi": 59,
          "name": "B3",
          "ticks": 231840,
          "time": 109.77261750000001,
          "velocity": 0.7007874015748031
        },
        {
          "duration": 0.454544999999996,
          "durationTicks": 960,
          "midi": 61,
          "name": "C#4",
          "ticks": 232320,
          "time": 109.99989000000001,
          "velocity": 0.7007874015748031
        },
        {
          "duration": 0.227272499999998,
          "durationTicks": 480,
          "midi": 68,
          "name": "G#4",
          "ticks": 264960,
          "time": 125.45442000000001,
          "velocity": 0.7007874015748031
        },
        {
          "duration": 0.227272499999998,
          "durationTicks": 480,
          "midi": 68,
          "name": "G#4",
          "ticks": 265440,
          "time": 125.68169250000001,
          "velocity": 0.7007874015748031
        },
        {
          "duration": 0.227272499999998,
          "durationTicks": 480,
          "midi": 68,
          "name": "G#4",
          "ticks": 265920,
          "time": 125.90896500000001,
          "velocity": 0.7007874015748031
        },
        {
          "duration": 0.227272499999998,
          "durationTicks": 480,
          "midi": 63,
          "name": "D#4",
          "ticks": 266400,
          "time": 126.13623750000001,
          "velocity": 0.7007874015748031
        },
        {
          "duration": 0.227272499999998,
          "durationTicks": 480,
          "midi": 66,
          "name": "F#4",
          "ticks": 266880,
          "time": 126.36351,
          "velocity": 0.7007874015748031
        },
        {
          "duration": 0.2272725000000122,
          "durationTicks": 480,
          "midi": 66,
          "name": "F#4",
          "ticks": 267360,
          "time": 126.5907825,
          "velocity": 0.7007874015748031
        },
        {
          "duration": 0.454544999999996,
          "durationTicks": 960,
          "midi": 66,
          "name": "F#4",
          "ticks": 267840,
          "time": 126.81805500000002,
          "velocity": 0.7007874015748031
        },
        {
          "duration": 0.227272499999998,
          "durationTicks": 480,
          "midi": 66,
          "name": "F#4",
          "ticks": 268800,
          "time": 127.27260000000001,
          "velocity": 0.7007874015748031
        },
        {
          "duration": 0.113636249999999,
          "durationTicks": 240,
          "midi": 66,
          "name": "F#4",
          "ticks": 269280,
          "time": 127.49987250000001,
          "velocity": 0.7007874015748031
        },
        {
          "duration": 0.113636249999999,
          "durationTicks": 240,
          "midi": 66,
          "name": "F#4",
          "ticks": 269520,
          "time": 127.61350875000001,
          "velocity": 0.7007874015748031
        },
        {
          "duration": 0.227272499999998,
          "durationTicks": 480,
          "midi": 66,
          "name": "F#4",
          "ticks": 269760,
          "time": 127.72714500000001,
          "velocity": 0.7007874015748031
        },
        {
          "duration": 0.227272499999998,
          "durationTicks": 480,
          "midi": 66,
          "name": "F#4",
          "ticks": 270240,
          "time": 127.9544175,
          "velocity": 0.7007874015748031
        },
        {
          "duration": 0.227272499999998,
          "durationTicks": 480,
          "midi": 66,
          "name": "F#4",
          "ticks": 270720,
          "time": 128.18169,
          "velocity": 0.7007874015748031
        },
        {
          "duration": 0.227272499999998,
          "durationTicks": 480,
          "midi": 66,
          "name": "F#4",
          "ticks": 271200,
          "time": 128.4089625,
          "velocity": 0.7007874015748031
        },
        {
          "duration": 0.454544999999996,
          "durationTicks": 960,
          "midi": 66,
          "name": "F#4",
          "ticks": 271680,
          "time": 128.636235,
          "velocity": 0.7007874015748031
        },
        {
          "duration": 0.2272725000000264,
          "durationTicks": 480,
          "midi": 66,
          "name": "F#4",
          "ticks": 272640,
          "time": 129.09078,
          "velocity": 0.7007874015748031
        },
        {
          "duration": 0.227272499999998,
          "durationTicks": 480,
          "midi": 66,
          "name": "F#4",
          "ticks": 273120,
          "time": 129.31805250000002,
          "velocity": 0.7007874015748031
        },
        {
          "duration": 0.227272499999998,
          "durationTicks": 480,
          "midi": 66,
          "name": "F#4",
          "ticks": 273600,
          "time": 129.54532500000002,
          "velocity": 0.7007874015748031
        },
        {
          "duration": 0.227272499999998,
          "durationTicks": 480,
          "midi": 66,
          "name": "F#4",
          "ticks": 274080,
          "time": 129.77259750000002,
          "velocity": 0.7007874015748031
        },
        {
          "duration": 0.227272499999998,
          "durationTicks": 480,
          "midi": 66,
          "name": "F#4",
          "ticks": 274560,
          "time": 129.99987000000002,
          "velocity": 0.7007874015748031
        },
        {
          "duration": 0.227272499999998,
          "durationTicks": 480,
          "midi": 66,
          "name": "F#4",
          "ticks": 275040,
          "time": 130.2271425,
          "velocity": 0.7007874015748031
        },
        {
          "duration": 0.454544999999996,
          "durationTicks": 960,
          "midi": 66,
          "name": "F#4",
          "ticks": 275520,
          "time": 130.454415,
          "velocity": 0.7007874015748031
        },
        {
          "duration": 0.227272499999998,
          "durationTicks": 480,
          "midi": 66,
          "name": "F#4",
          "ticks": 276480,
          "time": 130.90896,
          "velocity": 0.7007874015748031
        },
        {
          "duration": 0.1136362500000132,
          "durationTicks": 240,
          "midi": 66,
          "name": "F#4",
          "ticks": 276960,
          "time": 131.1362325,
          "velocity": 0.7007874015748031
        },
        {
          "duration": 0.11363624999998478,
          "durationTicks": 240,
          "midi": 66,
          "name": "F#4",
          "ticks": 277200,
          "time": 131.24986875000002,
          "velocity": 0.7007874015748031
        },
        {
          "duration": 0.227272499999998,
          "durationTicks": 480,
          "midi": 66,
          "name": "F#4",
          "ticks": 277440,
          "time": 131.363505,
          "velocity": 0.7007874015748031
        },
        {
          "duration": 0.227272499999998,
          "durationTicks": 480,
          "midi": 66,
          "name": "F#4",
          "ticks": 277920,
          "time": 131.5907775,
          "velocity": 0.7007874015748031
        },
        {
          "duration": 0.227272499999998,
          "durationTicks": 480,
          "midi": 66,
          "name": "F#4",
          "ticks": 278400,
          "time": 131.81805,
          "velocity": 0.7007874015748031
        },
        {
          "duration": 0.227272499999998,
          "durationTicks": 480,
          "midi": 66,
          "name": "F#4",
          "ticks": 278880,
          "time": 132.0453225,
          "velocity": 0.7007874015748031
        },
        {
          "duration": 0.4545450000000244,
          "durationTicks": 960,
          "midi": 66,
          "name": "F#4",
          "ticks": 279360,
          "time": 132.272595,
          "velocity": 0.7007874015748031
        },
        {
          "duration": 0.227272499999998,
          "durationTicks": 480,
          "midi": 68,
          "name": "G#4",
          "ticks": 280320,
          "time": 132.72714000000002,
          "velocity": 0.7007874015748031
        },
        {
          "duration": 0.227272499999998,
          "durationTicks": 480,
          "midi": 68,
          "name": "G#4",
          "ticks": 280800,
          "time": 132.95441250000002,
          "velocity": 0.7007874015748031
        },
        {
          "duration": 0.227272499999998,
          "durationTicks": 480,
          "midi": 68,
          "name": "G#4",
          "ticks": 281280,
          "time": 133.18168500000002,
          "velocity": 0.7007874015748031
        },
        {
          "duration": 0.227272499999998,
          "durationTicks": 480,
          "midi": 63,
          "name": "D#4",
          "ticks": 281760,
          "time": 133.4089575,
          "velocity": 0.7007874015748031
        },
        {
          "duration": 0.227272499999998,
          "durationTicks": 480,
          "midi": 66,
          "name": "F#4",
          "ticks": 282240,
          "time": 133.63623,
          "velocity": 0.7007874015748031
        },
        {
          "duration": 0.227272499999998,
          "durationTicks": 480,
          "midi": 66,
          "name": "F#4",
          "ticks": 282720,
          "time": 133.8635025,
          "velocity": 0.7007874015748031
        },
        {
          "duration": 0.454544999999996,
          "durationTicks": 960,
          "midi": 66,
          "name": "F#4",
          "ticks": 283200,
          "time": 134.090775,
          "velocity": 0.7007874015748031
        },
        {
          "duration": 0.227272499999998,
          "durationTicks": 480,
          "midi": 66,
          "name": "F#4",
          "ticks": 284160,
          "time": 134.54532,
          "velocity": 0.7007874015748031
        },
        {
          "duration": 0.1136362500000132,
          "durationTicks": 240,
          "midi": 66,
          "name": "F#4",
          "ticks": 284640,
          "time": 134.7725925,
          "velocity": 0.7007874015748031
        },
        {
          "duration": 0.11363624999998478,
          "durationTicks": 240,
          "midi": 66,
          "name": "F#4",
          "ticks": 284880,
          "time": 134.88622875000001,
          "velocity": 0.7007874015748031
        },
        {
          "duration": 0.227272499999998,
          "durationTicks": 480,
          "midi": 66,
          "name": "F#4",
          "ticks": 285120,
          "time": 134.999865,
          "velocity": 0.7007874015748031
        },
        {
          "duration": 0.227272499999998,
          "durationTicks": 480,
          "midi": 66,
          "name": "F#4",
          "ticks": 285600,
          "time": 135.2271375,
          "velocity": 0.7007874015748031
        },
        {
          "duration": 0.2272725000000264,
          "durationTicks": 480,
          "midi": 66,
          "name": "F#4",
          "ticks": 286080,
          "time": 135.45441,
          "velocity": 0.7007874015748031
        },
        {
          "duration": 0.227272499999998,
          "durationTicks": 480,
          "midi": 66,
          "name": "F#4",
          "ticks": 286560,
          "time": 135.68168250000002,
          "velocity": 0.7007874015748031
        },
        {
          "duration": 0.454544999999996,
          "durationTicks": 960,
          "midi": 66,
          "name": "F#4",
          "ticks": 287040,
          "time": 135.90895500000002,
          "velocity": 0.7007874015748031
        },
        {
          "duration": 0.227272499999998,
          "durationTicks": 480,
          "midi": 66,
          "name": "F#4",
          "ticks": 288000,
          "time": 136.36350000000002,
          "velocity": 0.7007874015748031
        },
        {
          "duration": 0.227272499999998,
          "durationTicks": 480,
          "midi": 66,
          "name": "F#4",
          "ticks": 288480,
          "time": 136.5907725,
          "velocity": 0.7007874015748031
        },
        {
          "duration": 0.227272499999998,
          "durationTicks": 480,
          "midi": 66,
          "name": "F#4",
          "ticks": 288960,
          "time": 136.818045,
          "velocity": 0.7007874015748031
        },
        {
          "duration": 0.227272499999998,
          "durationTicks": 480,
          "midi": 66,
          "name": "F#4",
          "ticks": 289440,
          "time": 137.0453175,
          "velocity": 0.7007874015748031
        },
        {
          "duration": 0.227272499999998,
          "durationTicks": 480,
          "midi": 66,
          "name": "F#4",
          "ticks": 289920,
          "time": 137.27259,
          "velocity": 0.7007874015748031
        },
        {
          "duration": 0.227272499999998,
          "durationTicks": 480,
          "midi": 66,
          "name": "F#4",
          "ticks": 290400,
          "time": 137.4998625,
          "velocity": 0.7007874015748031
        },
        {
          "duration": 0.454544999999996,
          "durationTicks": 960,
          "midi": 66,
          "name": "F#4",
          "ticks": 290880,
          "time": 137.727135,
          "velocity": 0.7007874015748031
        },
        {
          "duration": 0.227272499999998,
          "durationTicks": 480,
          "midi": 66,
          "name": "F#4",
          "ticks": 291840,
          "time": 138.18168,
          "velocity": 0.7007874015748031
        },
        {
          "duration": 0.1136362500000132,
          "durationTicks": 240,
          "midi": 66,
          "name": "F#4",
          "ticks": 292320,
          "time": 138.4089525,
          "velocity": 0.7007874015748031
        },
        {
          "duration": 0.11363624999998478,
          "durationTicks": 240,
          "midi": 66,
          "name": "F#4",
          "ticks": 292560,
          "time": 138.52258875,
          "velocity": 0.7007874015748031
        },
        {
          "duration": 0.2272725000000264,
          "durationTicks": 480,
          "midi": 66,
          "name": "F#4",
          "ticks": 292800,
          "time": 138.636225,
          "velocity": 0.7007874015748031
        },
        {
          "duration": 0.227272499999998,
          "durationTicks": 480,
          "midi": 66,
          "name": "F#4",
          "ticks": 293280,
          "time": 138.86349750000002,
          "velocity": 0.7007874015748031
        },
        {
          "duration": 0.227272499999998,
          "durationTicks": 480,
          "midi": 66,
          "name": "F#4",
          "ticks": 293760,
          "time": 139.09077000000002,
          "velocity": 0.7007874015748031
        },
        {
          "duration": 0.227272499999998,
          "durationTicks": 480,
          "midi": 66,
          "name": "F#4",
          "ticks": 294240,
          "time": 139.31804250000002,
          "velocity": 0.7007874015748031
        },
        {
          "duration": 0.454544999999996,
          "durationTicks": 960,
          "midi": 66,
          "name": "F#4",
          "ticks": 294720,
          "time": 139.54531500000002,
          "velocity": 0.7007874015748031
        },
        {
          "duration": 0.227272499999998,
          "durationTicks": 480,
          "midi": 59,
          "name": "B3",
          "ticks": 295680,
          "time": 139.99986,
          "velocity": 0.7007874015748031
        },
        {
          "duration": 0.454544999999996,
          "durationTicks": 960,
          "midi": 56,
          "name": "G#3",
          "ticks": 296160,
          "time": 140.2271325,
          "velocity": 0.7007874015748031
        },
        {
          "duration": 0.227272499999998,
          "durationTicks": 480,
          "midi": 63,
          "name": "D#4",
          "ticks": 298080,
          "time": 141.1362225,
          "velocity": 0.7007874015748031
        },
        {
          "duration": 0.227272499999998,
          "durationTicks": 480,
          "midi": 61,
          "name": "C#4",
          "ticks": 298560,
          "time": 141.363495,
          "velocity": 0.7007874015748031
        },
        {
          "duration": 0.227272499999998,
          "durationTicks": 480,
          "midi": 59,
          "name": "B3",
          "ticks": 299040,
          "time": 141.5907675,
          "velocity": 0.7007874015748031
        },
        {
          "duration": 0.2272725000000264,
          "durationTicks": 480,
          "midi": 63,
          "name": "D#4",
          "ticks": 299520,
          "time": 141.81804,
          "velocity": 0.7007874015748031
        },
        {
          "duration": 0.681817499999994,
          "durationTicks": 1440,
          "midi": 66,
          "name": "F#4",
          "ticks": 300000,
          "time": 142.04531250000002,
          "velocity": 0.7007874015748031
        },
        {
          "duration": 0.227272499999998,
          "durationTicks": 480,
          "midi": 63,
          "name": "D#4",
          "ticks": 301920,
          "time": 142.95440250000001,
          "velocity": 0.7007874015748031
        },
        {
          "duration": 0.227272499999998,
          "durationTicks": 480,
          "midi": 61,
          "name": "C#4",
          "ticks": 302400,
          "time": 143.181675,
          "velocity": 0.7007874015748031
        },
        {
          "duration": 0.227272499999998,
          "durationTicks": 480,
          "midi": 59,
          "name": "B3",
          "ticks": 302880,
          "time": 143.4089475,
          "velocity": 0.7007874015748031
        },
        {
          "duration": 0.1136362500000132,
          "durationTicks": 240,
          "midi": 59,
          "name": "B3",
          "ticks": 303360,
          "time": 143.63622,
          "velocity": 0.7007874015748031
        },
        {
          "duration": 0.5681812499999808,
          "durationTicks": 1200,
          "midi": 61,
          "name": "C#4",
          "ticks": 303600,
          "time": 143.74985625000002,
          "velocity": 0.7007874015748031
        },
        {
          "duration": 0.227272499999998,
          "durationTicks": 480,
          "midi": 63,
          "name": "D#4",
          "ticks": 305760,
          "time": 144.7725825,
          "velocity": 0.7007874015748031
        },
        {
          "duration": 0.2272725000000264,
          "durationTicks": 480,
          "midi": 61,
          "name": "C#4",
          "ticks": 306240,
          "time": 144.999855,
          "velocity": 0.7007874015748031
        },
        {
          "duration": 0.227272499999998,
          "durationTicks": 480,
          "midi": 59,
          "name": "B3",
          "ticks": 306720,
          "time": 145.22712750000002,
          "velocity": 0.7007874015748031
        },
        {
          "duration": 0.227272499999998,
          "durationTicks": 480,
          "midi": 59,
          "name": "B3",
          "ticks": 307200,
          "time": 145.45440000000002,
          "velocity": 0.7007874015748031
        },
        {
          "duration": 0.454544999999996,
          "durationTicks": 960,
          "midi": 56,
          "name": "G#3",
          "ticks": 307680,
          "time": 145.68167250000002,
          "velocity": 0.7007874015748031
        },
        {
          "duration": 0.227272499999998,
          "durationTicks": 480,
          "midi": 63,
          "name": "D#4",
          "ticks": 309600,
          "time": 146.5907625,
          "velocity": 0.7007874015748031
        },
        {
          "duration": 0.227272499999998,
          "durationTicks": 480,
          "midi": 61,
          "name": "C#4",
          "ticks": 310080,
          "time": 146.818035,
          "velocity": 0.7007874015748031
        },
        {
          "duration": 0.227272499999998,
          "durationTicks": 480,
          "midi": 59,
          "name": "B3",
          "ticks": 310560,
          "time": 147.0453075,
          "velocity": 0.7007874015748031
        },
        {
          "duration": 0.454544999999996,
          "durationTicks": 960,
          "midi": 59,
          "name": "B3",
          "ticks": 311040,
          "time": 147.27258,
          "velocity": 0.7007874015748031
        },
        {
          "duration": 0.227272499999998,
          "durationTicks": 480,
          "midi": 63,
          "name": "D#4",
          "ticks": 313440,
          "time": 148.40894250000002,
          "velocity": 0.7007874015748031
        },
        {
          "duration": 0.227272499999998,
          "durationTicks": 480,
          "midi": 61,
          "name": "C#4",
          "ticks": 313920,
          "time": 148.63621500000002,
          "velocity": 0.7007874015748031
        },
        {
          "duration": 0.227272499999998,
          "durationTicks": 480,
          "midi": 59,
          "name": "B3",
          "ticks": 314400,
          "time": 148.86348750000002,
          "velocity": 0.7007874015748031
        },
        {
          "duration": 0.227272499999998,
          "durationTicks": 480,
          "midi": 63,
          "name": "D#4",
          "ticks": 314880,
          "time": 149.09076000000002,
          "velocity": 0.7007874015748031
        },
        {
          "duration": 0.681817499999994,
          "durationTicks": 1440,
          "midi": 66,
          "name": "F#4",
          "ticks": 315360,
          "time": 149.31803250000002,
          "velocity": 0.7007874015748031
        },
        {
          "duration": 0.227272499999998,
          "durationTicks": 480,
          "midi": 63,
          "name": "D#4",
          "ticks": 317280,
          "time": 150.2271225,
          "velocity": 0.7007874015748031
        },
        {
          "duration": 0.227272499999998,
          "durationTicks": 480,
          "midi": 61,
          "name": "C#4",
          "ticks": 317760,
          "time": 150.454395,
          "velocity": 0.7007874015748031
        },
        {
          "duration": 0.227272499999998,
          "durationTicks": 480,
          "midi": 59,
          "name": "B3",
          "ticks": 318240,
          "time": 150.6816675,
          "velocity": 0.7007874015748031
        },
        {
          "duration": 0.1136362500000132,
          "durationTicks": 240,
          "midi": 59,
          "name": "B3",
          "ticks": 318720,
          "time": 150.90894,
          "velocity": 0.7007874015748031
        },
        {
          "duration": 0.5681812500000092,
          "durationTicks": 1200,
          "midi": 61,
          "name": "C#4",
          "ticks": 318960,
          "time": 151.02257625000001,
          "velocity": 0.7007874015748031
        },
        {
          "duration": 0.227272499999998,
          "durationTicks": 480,
          "midi": 63,
          "name": "D#4",
          "ticks": 321120,
          "time": 152.04530250000002,
          "velocity": 0.7007874015748031
        },
        {
          "duration": 0.227272499999998,
          "durationTicks": 480,
          "midi": 61,
          "name": "C#4",
          "ticks": 321600,
          "time": 152.27257500000002,
          "velocity": 0.7007874015748031
        },
        {
          "duration": 0.227272499999998,
          "durationTicks": 480,
          "midi": 59,
          "name": "B3",
          "ticks": 322080,
          "time": 152.49984750000002,
          "velocity": 0.7007874015748031
        },
        {
          "duration": 0.227272499999998,
          "durationTicks": 480,
          "midi": 59,
          "name": "B3",
          "ticks": 322560,
          "time": 152.72712,
          "velocity": 0.7007874015748031
        },
        {
          "duration": 0.454544999999996,
          "durationTicks": 960,
          "midi": 61,
          "name": "C#4",
          "ticks": 323040,
          "time": 152.9543925,
          "velocity": 0.7007874015748031
        },
        {
          "duration": 0.227272499999998,
          "durationTicks": 480,
          "midi": 63,
          "name": "D#4",
          "ticks": 324960,
          "time": 153.8634825,
          "velocity": 0.7007874015748031
        },
        {
          "duration": 0.227272499999998,
          "durationTicks": 480,
          "midi": 61,
          "name": "C#4",
          "ticks": 325440,
          "time": 154.090755,
          "velocity": 0.7007874015748031
        },
        {
          "duration": 0.227272499999998,
          "durationTicks": 480,
          "midi": 59,
          "name": "B3",
          "ticks": 325920,
          "time": 154.3180275,
          "velocity": 0.7007874015748031
        },
        {
          "duration": 0.2272725000000264,
          "durationTicks": 480,
          "midi": 59,
          "name": "B3",
          "ticks": 326400,
          "time": 154.5453,
          "velocity": 0.7007874015748031
        },
        {
          "duration": 0.454544999999996,
          "durationTicks": 960,
          "midi": 56,
          "name": "G#3",
          "ticks": 326880,
          "time": 154.77257250000002,
          "velocity": 0.7007874015748031
        },
        {
          "duration": 0.227272499999998,
          "durationTicks": 480,
          "midi": 63,
          "name": "D#4",
          "ticks": 328800,
          "time": 155.68166250000002,
          "velocity": 0.7007874015748031
        },
        {
          "duration": 0.227272499999998,
          "durationTicks": 480,
          "midi": 61,
          "name": "C#4",
          "ticks": 329280,
          "time": 155.908935,
          "velocity": 0.7007874015748031
        },
        {
          "duration": 0.227272499999998,
          "durationTicks": 480,
          "midi": 59,
          "name": "B3",
          "ticks": 329760,
          "time": 156.1362075,
          "velocity": 0.7007874015748031
        },
        {
          "duration": 0.227272499999998,
          "durationTicks": 480,
          "midi": 63,
          "name": "D#4",
          "ticks": 330240,
          "time": 156.36348,
          "velocity": 0.7007874015748031
        },
        {
          "duration": 0.681817499999994,
          "durationTicks": 1440,
          "midi": 66,
          "name": "F#4",
          "ticks": 330720,
          "time": 156.5907525,
          "velocity": 0.7007874015748031
        },
        {
          "duration": 0.227272499999998,
          "durationTicks": 480,
          "midi": 63,
          "name": "D#4",
          "ticks": 332640,
          "time": 157.4998425,
          "velocity": 0.7007874015748031
        },
        {
          "duration": 0.2272725000000264,
          "durationTicks": 480,
          "midi": 61,
          "name": "C#4",
          "ticks": 333120,
          "time": 157.727115,
          "velocity": 0.7007874015748031
        },
        {
          "duration": 0.227272499999998,
          "durationTicks": 480,
          "midi": 59,
          "name": "B3",
          "ticks": 333600,
          "time": 157.95438750000002,
          "velocity": 0.7007874015748031
        },
        {
          "duration": 0.11363624999998478,
          "durationTicks": 240,
          "midi": 59,
          "name": "B3",
          "ticks": 334080,
          "time": 158.18166000000002,
          "velocity": 0.7007874015748031
        },
        {
          "duration": 0.5681812500000092,
          "durationTicks": 1200,
          "midi": 61,
          "name": "C#4",
          "ticks": 334320,
          "time": 158.29529625,
          "velocity": 0.7007874015748031
        },
        {
          "duration": 0.227272499999998,
          "durationTicks": 480,
          "midi": 63,
          "name": "D#4",
          "ticks": 336480,
          "time": 159.3180225,
          "velocity": 0.7007874015748031
        },
        {
          "duration": 0.227272499999998,
          "durationTicks": 480,
          "midi": 61,
          "name": "C#4",
          "ticks": 336960,
          "time": 159.545295,
          "velocity": 0.7007874015748031
        },
        {
          "duration": 0.227272499999998,
          "durationTicks": 480,
          "midi": 59,
          "name": "B3",
          "ticks": 337440,
          "time": 159.7725675,
          "velocity": 0.7007874015748031
        },
        {
          "duration": 0.227272499999998,
          "durationTicks": 480,
          "midi": 59,
          "name": "B3",
          "ticks": 337920,
          "time": 159.99984,
          "velocity": 0.7007874015748031
        },
        {
          "duration": 0.454544999999996,
          "durationTicks": 960,
          "midi": 56,
          "name": "G#3",
          "ticks": 338400,
          "time": 160.2271125,
          "velocity": 0.7007874015748031
        },
        {
          "duration": 0.227272499999998,
          "durationTicks": 480,
          "midi": 63,
          "name": "D#4",
          "ticks": 340320,
          "time": 161.13620250000002,
          "velocity": 0.7007874015748031
        },
        {
          "duration": 0.227272499999998,
          "durationTicks": 480,
          "midi": 61,
          "name": "C#4",
          "ticks": 340800,
          "time": 161.36347500000002,
          "velocity": 0.7007874015748031
        },
        {
          "duration": 0.227272499999998,
          "durationTicks": 480,
          "midi": 59,
          "name": "B3",
          "ticks": 341280,
          "time": 161.59074750000002,
          "velocity": 0.7007874015748031
        },
        {
          "duration": 0.454544999999996,
          "durationTicks": 960,
          "midi": 59,
          "name": "B3",
          "ticks": 341760,
          "time": 161.81802000000002,
          "velocity": 0.7007874015748031
        },
        {
          "duration": 0.227272499999998,
          "durationTicks": 480,
          "midi": 63,
          "name": "D#4",
          "ticks": 344160,
          "time": 162.9543825,
          "velocity": 0.7007874015748031
        },
        {
          "duration": 0.227272499999998,
          "durationTicks": 480,
          "midi": 61,
          "name": "C#4",
          "ticks": 344640,
          "time": 163.181655,
          "velocity": 0.7007874015748031
        },
        {
          "duration": 0.227272499999998,
          "durationTicks": 480,
          "midi": 59,
          "name": "B3",
          "ticks": 345120,
          "time": 163.4089275,
          "velocity": 0.7007874015748031
        },
        {
          "duration": 0.227272499999998,
          "durationTicks": 480,
          "midi": 63,
          "name": "D#4",
          "ticks": 345600,
          "time": 163.6362,
          "velocity": 0.7007874015748031
        },
        {
          "duration": 0.6818175000000224,
          "durationTicks": 1440,
          "midi": 66,
          "name": "F#4",
          "ticks": 346080,
          "time": 163.8634725,
          "velocity": 0.7007874015748031
        },
        {
          "duration": 0.227272499999998,
          "durationTicks": 480,
          "midi": 63,
          "name": "D#4",
          "ticks": 348000,
          "time": 164.77256250000002,
          "velocity": 0.7007874015748031
        },
        {
          "duration": 0.227272499999998,
          "durationTicks": 480,
          "midi": 61,
          "name": "C#4",
          "ticks": 348480,
          "time": 164.99983500000002,
          "velocity": 0.7007874015748031
        },
        {
          "duration": 0.227272499999998,
          "durationTicks": 480,
          "midi": 59,
          "name": "B3",
          "ticks": 348960,
          "time": 165.22710750000002,
          "velocity": 0.7007874015748031
        },
        {
          "duration": 0.11363624999998478,
          "durationTicks": 240,
          "midi": 59,
          "name": "B3",
          "ticks": 349440,
          "time": 165.45438000000001,
          "velocity": 0.7007874015748031
        },
        {
          "duration": 0.5681812500000092,
          "durationTicks": 1200,
          "midi": 61,
          "name": "C#4",
          "ticks": 349680,
          "time": 165.56801625,
          "velocity": 0.7007874015748031
        },
        {
          "duration": 0.227272499999998,
          "durationTicks": 480,
          "midi": 63,
          "name": "D#4",
          "ticks": 351840,
          "time": 166.5907425,
          "velocity": 0.7007874015748031
        },
        {
          "duration": 0.227272499999998,
          "durationTicks": 480,
          "midi": 61,
          "name": "C#4",
          "ticks": 352320,
          "time": 166.818015,
          "velocity": 0.7007874015748031
        },
        {
          "duration": 0.227272499999998,
          "durationTicks": 480,
          "midi": 59,
          "name": "B3",
          "ticks": 352800,
          "time": 167.0452875,
          "velocity": 0.7007874015748031
        },
        {
          "duration": 0.2272725000000264,
          "durationTicks": 480,
          "midi": 59,
          "name": "B3",
          "ticks": 353280,
          "time": 167.27256,
          "velocity": 0.7007874015748031
        },
        {
          "duration": 0.681817499999994,
          "durationTicks": 1440,
          "midi": 61,
          "name": "C#4",
          "ticks": 353760,
          "time": 167.49983250000002,
          "velocity": 0.7007874015748031
        },
        {
          "duration": 0.681817499999994,
          "durationTicks": 1440,
          "midi": 71,
          "name": "B4",
          "ticks": 356640,
          "time": 168.8634675,
          "velocity": 0.7007874015748031
        },
        {
          "duration": 0.227272499999998,
          "durationTicks": 480,
          "midi": 68,
          "name": "G#4",
          "ticks": 358080,
          "time": 169.545285,
          "velocity": 0.7007874015748031
        },
        {
          "duration": 0.454544999999996,
          "durationTicks": 960,
          "midi": 66,
          "name": "F#4",
          "ticks": 358560,
          "time": 169.7725575,
          "velocity": 0.7007874015748031
        },
        {
          "duration": 0.6818175000000224,
          "durationTicks": 1440,
          "midi": 68,
          "name": "G#4",
          "ticks": 359520,
          "time": 170.2271025,
          "velocity": 0.7007874015748031
        },
        {
          "duration": 0.227272499999998,
          "durationTicks": 480,
          "midi": 66,
          "name": "F#4",
          "ticks": 361920,
          "time": 171.36346500000002,
          "velocity": 0.7007874015748031
        },
        {
          "duration": 0.11363624999998478,
          "durationTicks": 240,
          "midi": 63,
          "name": "D#4",
          "ticks": 362400,
          "time": 171.59073750000002,
          "velocity": 0.7007874015748031
        },
        {
          "duration": 0.1136362500000132,
          "durationTicks": 240,
          "midi": 61,
          "name": "C#4",
          "ticks": 362640,
          "time": 171.70437375,
          "velocity": 0.7007874015748031
        },
        {
          "duration": 0.227272499999998,
          "durationTicks": 480,
          "midi": 59,
          "name": "B3",
          "ticks": 362880,
          "time": 171.81801000000002,
          "velocity": 0.7007874015748031
        },
        {
          "duration": 0.454544999999996,
          "durationTicks": 960,
          "midi": 61,
          "name": "C#4",
          "ticks": 363360,
          "time": 172.0452825,
          "velocity": 0.7007874015748031
        },
        {
          "duration": 0.227272499999998,
          "durationTicks": 480,
          "midi": 71,
          "name": "B4",
          "ticks": 365280,
          "time": 172.9543725,
          "velocity": 0.7007874015748031
        },
        {
          "duration": 0.227272499999998,
          "durationTicks": 480,
          "midi": 68,
          "name": "G#4",
          "ticks": 365760,
          "time": 173.181645,
          "velocity": 0.7007874015748031
        },
        {
          "duration": 0.227272499999998,
          "durationTicks": 480,
          "midi": 71,
          "name": "B4",
          "ticks": 366240,
          "time": 173.4089175,
          "velocity": 0.7007874015748031
        },
        {
          "duration": 0.2272725000000264,
          "durationTicks": 480,
          "midi": 68,
          "name": "G#4",
          "ticks": 366720,
          "time": 173.63619,
          "velocity": 0.7007874015748031
        },
        {
          "duration": 0.227272499999998,
          "durationTicks": 480,
          "midi": 66,
          "name": "F#4",
          "ticks": 367200,
          "time": 173.86346250000003,
          "velocity": 0.7007874015748031
        },
        {
          "duration": 0.11363624999998478,
          "durationTicks": 240,
          "midi": 63,
          "name": "D#4",
          "ticks": 367680,
          "time": 174.09073500000002,
          "velocity": 0.7007874015748031
        },
        {
          "duration": 0.1136362500000132,
          "durationTicks": 240,
          "midi": 61,
          "name": "C#4",
          "ticks": 367920,
          "time": 174.20437125,
          "velocity": 0.7007874015748031
        },
        {
          "duration": 0.227272499999998,
          "durationTicks": 480,
          "midi": 59,
          "name": "B3",
          "ticks": 368160,
          "time": 174.31800750000002,
          "velocity": 0.7007874015748031
        },
        {
          "duration": 0.11363624999998478,
          "durationTicks": 240,
          "midi": 61,
          "name": "C#4",
          "ticks": 368640,
          "time": 174.54528000000002,
          "velocity": 0.7007874015748031
        },
        {
          "duration": 0.1136362500000132,
          "durationTicks": 240,
          "midi": 63,
          "name": "D#4",
          "ticks": 368880,
          "time": 174.65891625,
          "velocity": 0.7007874015748031
        },
        {
          "duration": 0.227272499999998,
          "durationTicks": 480,
          "midi": 66,
          "name": "F#4",
          "ticks": 369120,
          "time": 174.77255250000002,
          "velocity": 0.7007874015748031
        },
        {
          "duration": 0.11363624999998478,
          "durationTicks": 240,
          "midi": 63,
          "name": "D#4",
          "ticks": 369600,
          "time": 174.99982500000002,
          "velocity": 0.7007874015748031
        },
        {
          "duration": 0.1136362500000132,
          "durationTicks": 240,
          "midi": 61,
          "name": "C#4",
          "ticks": 369840,
          "time": 175.11346125,
          "velocity": 0.7007874015748031
        },
        {
          "duration": 0.227272499999998,
          "durationTicks": 480,
          "midi": 59,
          "name": "B3",
          "ticks": 370080,
          "time": 175.2270975,
          "velocity": 0.7007874015748031
        },
        {
          "duration": 0.454544999999996,
          "durationTicks": 960,
          "midi": 61,
          "name": "C#4",
          "ticks": 370560,
          "time": 175.45437,
          "velocity": 0.7007874015748031
        },
        {
          "duration": 0.681817499999994,
          "durationTicks": 1440,
          "midi": 71,
          "name": "B4",
          "ticks": 372000,
          "time": 176.1361875,
          "velocity": 0.7007874015748031
        },
        {
          "duration": 0.2272725000000264,
          "durationTicks": 480,
          "midi": 68,
          "name": "G#4",
          "ticks": 373440,
          "time": 176.818005,
          "velocity": 0.7007874015748031
        },
        {
          "duration": 0.454544999999996,
          "durationTicks": 960,
          "midi": 66,
          "name": "F#4",
          "ticks": 373920,
          "time": 177.04527750000003,
          "velocity": 0.7007874015748031
        },
        {
          "duration": 0.681817499999994,
          "durationTicks": 1440,
          "midi": 68,
          "name": "G#4",
          "ticks": 374880,
          "time": 177.49982250000002,
          "velocity": 0.7007874015748031
        },
        {
          "duration": 0.227272499999998,
          "durationTicks": 480,
          "midi": 66,
          "name": "F#4",
          "ticks": 376800,
          "time": 178.4089125,
          "velocity": 0.7007874015748031
        },
        {
          "duration": 0.1136362500000132,
          "durationTicks": 240,
          "midi": 63,
          "name": "D#4",
          "ticks": 377280,
          "time": 178.636185,
          "velocity": 0.7007874015748031
        },
        {
          "duration": 0.11363624999998478,
          "durationTicks": 240,
          "midi": 61,
          "name": "C#4",
          "ticks": 377520,
          "time": 178.74982125000002,
          "velocity": 0.7007874015748031
        },
        {
          "duration": 0.227272499999998,
          "durationTicks": 480,
          "midi": 59,
          "name": "B3",
          "ticks": 377760,
          "time": 178.8634575,
          "velocity": 0.7007874015748031
        },
        {
          "duration": 0.454544999999996,
          "durationTicks": 960,
          "midi": 61,
          "name": "C#4",
          "ticks": 378240,
          "time": 179.09073,
          "velocity": 0.7007874015748031
        },
        {
          "duration": 0.227272499999998,
          "durationTicks": 480,
          "midi": 71,
          "name": "B4",
          "ticks": 380640,
          "time": 180.22709250000003,
          "velocity": 0.7007874015748031
        },
        {
          "duration": 0.227272499999998,
          "durationTicks": 480,
          "midi": 68,
          "name": "G#4",
          "ticks": 381120,
          "time": 180.45436500000002,
          "velocity": 0.7007874015748031
        },
        {
          "duration": 0.227272499999998,
          "durationTicks": 480,
          "midi": 71,
          "name": "B4",
          "ticks": 381600,
          "time": 180.68163750000002,
          "velocity": 0.7007874015748031
        },
        {
          "duration": 0.227272499999998,
          "durationTicks": 480,
          "midi": 68,
          "name": "G#4",
          "ticks": 382080,
          "time": 180.90891000000002,
          "velocity": 0.7007874015748031
        },
        {
          "duration": 0.227272499999998,
          "durationTicks": 480,
          "midi": 66,
          "name": "F#4",
          "ticks": 382560,
          "time": 181.13618250000002,
          "velocity": 0.7007874015748031
        },
        {
          "duration": 0.11363624999998478,
          "durationTicks": 240,
          "midi": 63,
          "name": "D#4",
          "ticks": 383040,
          "time": 181.36345500000002,
          "velocity": 0.7007874015748031
        },
        {
          "duration": 0.1136362500000132,
          "durationTicks": 240,
          "midi": 61,
          "name": "C#4",
          "ticks": 383280,
          "time": 181.47709125,
          "velocity": 0.7007874015748031
        },
        {
          "duration": 0.227272499999998,
          "durationTicks": 480,
          "midi": 59,
          "name": "B3",
          "ticks": 383520,
          "time": 181.5907275,
          "velocity": 0.7007874015748031
        },
        {
          "duration": 0.1136362500000132,
          "durationTicks": 240,
          "midi": 61,
          "name": "C#4",
          "ticks": 384000,
          "time": 181.818,
          "velocity": 0.7007874015748031
        },
        {
          "duration": 0.11363624999998478,
          "durationTicks": 240,
          "midi": 63,
          "name": "D#4",
          "ticks": 384240,
          "time": 181.93163625000003,
          "velocity": 0.7007874015748031
        },
        {
          "duration": 0.227272499999998,
          "durationTicks": 480,
          "midi": 66,
          "name": "F#4",
          "ticks": 384480,
          "time": 182.0452725,
          "velocity": 0.7007874015748031
        },
        {
          "duration": 0.1136362500000132,
          "durationTicks": 240,
          "midi": 63,
          "name": "D#4",
          "ticks": 384960,
          "time": 182.272545,
          "velocity": 0.7007874015748031
        },
        {
          "duration": 0.11363624999998478,
          "durationTicks": 240,
          "midi": 61,
          "name": "C#4",
          "ticks": 385200,
          "time": 182.38618125000002,
          "velocity": 0.7007874015748031
        },
        {
          "duration": 0.227272499999998,
          "durationTicks": 480,
          "midi": 59,
          "name": "B3",
          "ticks": 385440,
          "time": 182.4998175,
          "velocity": 0.7007874015748031
        },
        {
          "duration": 0.454544999999996,
          "durationTicks": 960,
          "midi": 61,
          "name": "C#4",
          "ticks": 385920,
          "time": 182.72709,
          "velocity": 0.7007874015748031
        },
        {
          "duration": 0.681817499999994,
          "durationTicks": 1440,
          "midi": 71,
          "name": "B4",
          "ticks": 387360,
          "time": 183.40890750000003,
          "velocity": 0.7007874015748031
        },
        {
          "duration": 0.227272499999998,
          "durationTicks": 480,
          "midi": 68,
          "name": "G#4",
          "ticks": 388800,
          "time": 184.09072500000002,
          "velocity": 0.7007874015748031
        },
        {
          "duration": 0.454544999999996,
          "durationTicks": 960,
          "midi": 66,
          "name": "F#4",
          "ticks": 389280,
          "time": 184.31799750000002,
          "velocity": 0.7007874015748031
        },
        {
          "duration": 0.681817499999994,
          "durationTicks": 1440,
          "midi": 68,
          "name": "G#4",
          "ticks": 390240,
          "time": 184.77254250000001,
          "velocity": 0.7007874015748031
        },
        {
          "duration": 0.227272499999998,
          "durationTicks": 480,
          "midi": 66,
          "name": "F#4",
          "ticks": 392640,
          "time": 185.908905,
          "velocity": 0.7007874015748031
        },
        {
          "duration": 0.1136362500000132,
          "durationTicks": 240,
          "midi": 63,
          "name": "D#4",
          "ticks": 393120,
          "time": 186.1361775,
          "velocity": 0.7007874015748031
        },
        {
          "duration": 0.11363624999998478,
          "durationTicks": 240,
          "midi": 61,
          "name": "C#4",
          "ticks": 393360,
          "time": 186.24981375000002,
          "velocity": 0.7007874015748031
        },
        {
          "duration": 0.2272725000000264,
          "durationTicks": 480,
          "midi": 59,
          "name": "B3",
          "ticks": 393600,
          "time": 186.36345,
          "velocity": 0.7007874015748031
        },
        {
          "duration": 0.454544999999996,
          "durationTicks": 960,
          "midi": 61,
          "name": "C#4",
          "ticks": 394080,
          "time": 186.59072250000003,
          "velocity": 0.7007874015748031
        },
        {
          "duration": 0.227272499999998,
          "durationTicks": 480,
          "midi": 71,
          "name": "B4",
          "ticks": 396000,
          "time": 187.49981250000002,
          "velocity": 0.7007874015748031
        },
        {
          "duration": 0.227272499999998,
          "durationTicks": 480,
          "midi": 68,
          "name": "G#4",
          "ticks": 396480,
          "time": 187.72708500000002,
          "velocity": 0.7007874015748031
        },
        {
          "duration": 0.227272499999998,
          "durationTicks": 480,
          "midi": 71,
          "name": "B4",
          "ticks": 396960,
          "time": 187.95435750000001,
          "velocity": 0.7007874015748031
        },
        {
          "duration": 0.227272499999998,
          "durationTicks": 480,
          "midi": 68,
          "name": "G#4",
          "ticks": 397440,
          "time": 188.18163,
          "velocity": 0.7007874015748031
        },
        {
          "duration": 0.227272499999998,
          "durationTicks": 480,
          "midi": 66,
          "name": "F#4",
          "ticks": 397920,
          "time": 188.4089025,
          "velocity": 0.7007874015748031
        },
        {
          "duration": 0.1136362500000132,
          "durationTicks": 240,
          "midi": 63,
          "name": "D#4",
          "ticks": 398400,
          "time": 188.636175,
          "velocity": 0.7007874015748031
        },
        {
          "duration": 0.11363624999998478,
          "durationTicks": 240,
          "midi": 61,
          "name": "C#4",
          "ticks": 398640,
          "time": 188.74981125000002,
          "velocity": 0.7007874015748031
        },
        {
          "duration": 0.227272499999998,
          "durationTicks": 480,
          "midi": 59,
          "name": "B3",
          "ticks": 398880,
          "time": 188.8634475,
          "velocity": 0.7007874015748031
        },
        {
          "duration": 0.1136362500000132,
          "durationTicks": 240,
          "midi": 61,
          "name": "C#4",
          "ticks": 399360,
          "time": 189.09072,
          "velocity": 0.7007874015748031
        },
        {
          "duration": 0.11363624999998478,
          "durationTicks": 240,
          "midi": 63,
          "name": "D#4",
          "ticks": 399600,
          "time": 189.20435625000002,
          "velocity": 0.7007874015748031
        },
        {
          "duration": 0.227272499999998,
          "durationTicks": 480,
          "midi": 66,
          "name": "F#4",
          "ticks": 399840,
          "time": 189.3179925,
          "velocity": 0.7007874015748031
        },
        {
          "duration": 0.1136362500000132,
          "durationTicks": 240,
          "midi": 63,
          "name": "D#4",
          "ticks": 400320,
          "time": 189.545265,
          "velocity": 0.7007874015748031
        },
        {
          "duration": 0.1136362500000132,
          "durationTicks": 240,
          "midi": 61,
          "name": "C#4",
          "ticks": 400560,
          "time": 189.65890125,
          "velocity": 0.7007874015748031
        },
        {
          "duration": 0.227272499999998,
          "durationTicks": 480,
          "midi": 59,
          "name": "B3",
          "ticks": 400800,
          "time": 189.77253750000003,
          "velocity": 0.7007874015748031
        },
        {
          "duration": 0.454544999999996,
          "durationTicks": 960,
          "midi": 61,
          "name": "C#4",
          "ticks": 401280,
          "time": 189.99981000000002,
          "velocity": 0.7007874015748031
        },
        {
          "duration": 0.681817499999994,
          "durationTicks": 1440,
          "midi": 71,
          "name": "B4",
          "ticks": 402720,
          "time": 190.68162750000002,
          "velocity": 0.7007874015748031
        },
        {
          "duration": 0.227272499999998,
          "durationTicks": 480,
          "midi": 68,
          "name": "G#4",
          "ticks": 404160,
          "time": 191.363445,
          "velocity": 0.7007874015748031
        },
        {
          "duration": 0.454544999999996,
          "durationTicks": 960,
          "midi": 66,
          "name": "F#4",
          "ticks": 404640,
          "time": 191.5907175,
          "velocity": 0.7007874015748031
        },
        {
          "duration": 0.681817499999994,
          "durationTicks": 1440,
          "midi": 68,
          "name": "G#4",
          "ticks": 405600,
          "time": 192.0452625,
          "velocity": 0.7007874015748031
        },
        {
          "duration": 0.227272499999998,
          "durationTicks": 480,
          "midi": 66,
          "name": "F#4",
          "ticks": 407520,
          "time": 192.95435250000003,
          "velocity": 0.7007874015748031
        },
        {
          "duration": 0.11363624999998478,
          "durationTicks": 240,
          "midi": 63,
          "name": "D#4",
          "ticks": 408000,
          "time": 193.18162500000003,
          "velocity": 0.7007874015748031
        },
        {
          "duration": 0.1136362500000132,
          "durationTicks": 240,
          "midi": 61,
          "name": "C#4",
          "ticks": 408240,
          "time": 193.29526125,
          "velocity": 0.7007874015748031
        },
        {
          "duration": 0.227272499999998,
          "durationTicks": 480,
          "midi": 59,
          "name": "B3",
          "ticks": 408480,
          "time": 193.40889750000002,
          "velocity": 0.7007874015748031
        },
        {
          "duration": 0.454544999999996,
          "durationTicks": 960,
          "midi": 61,
          "name": "C#4",
          "ticks": 408960,
          "time": 193.63617000000002,
          "velocity": 0.7007874015748031
        },
        {
          "duration": 0.227272499999998,
          "durationTicks": 480,
          "midi": 71,
          "name": "B4",
          "ticks": 411360,
          "time": 194.7725325,
          "velocity": 0.7007874015748031
        },
        {
          "duration": 0.227272499999998,
          "durationTicks": 480,
          "midi": 68,
          "name": "G#4",
          "ticks": 411840,
          "time": 194.999805,
          "velocity": 0.7007874015748031
        },
        {
          "duration": 0.227272499999998,
          "durationTicks": 480,
          "midi": 71,
          "name": "B4",
          "ticks": 412320,
          "time": 195.2270775,
          "velocity": 0.7007874015748031
        },
        {
          "duration": 0.227272499999998,
          "durationTicks": 480,
          "midi": 68,
          "name": "G#4",
          "ticks": 412800,
          "time": 195.45435,
          "velocity": 0.7007874015748031
        },
        {
          "duration": 0.227272499999998,
          "durationTicks": 480,
          "midi": 66,
          "name": "F#4",
          "ticks": 413280,
          "time": 195.6816225,
          "velocity": 0.7007874015748031
        },
        {
          "duration": 0.1136362500000132,
          "durationTicks": 240,
          "midi": 63,
          "name": "D#4",
          "ticks": 413760,
          "time": 195.908895,
          "velocity": 0.7007874015748031
        },
        {
          "duration": 0.1136362500000132,
          "durationTicks": 240,
          "midi": 61,
          "name": "C#4",
          "ticks": 414000,
          "time": 196.02253125000001,
          "velocity": 0.7007874015748031
        },
        {
          "duration": 0.227272499999998,
          "durationTicks": 480,
          "midi": 59,
          "name": "B3",
          "ticks": 414240,
          "time": 196.13616750000003,
          "velocity": 0.7007874015748031
        },
        {
          "duration": 0.11363624999998478,
          "durationTicks": 240,
          "midi": 61,
          "name": "C#4",
          "ticks": 414720,
          "time": 196.36344000000003,
          "velocity": 0.7007874015748031
        },
        {
          "duration": 0.1136362500000132,
          "durationTicks": 240,
          "midi": 63,
          "name": "D#4",
          "ticks": 414960,
          "time": 196.47707625,
          "velocity": 0.7007874015748031
        },
        {
          "duration": 0.227272499999998,
          "durationTicks": 480,
          "midi": 66,
          "name": "F#4",
          "ticks": 415200,
          "time": 196.59071250000002,
          "velocity": 0.7007874015748031
        },
        {
          "duration": 0.11363624999998478,
          "durationTicks": 240,
          "midi": 63,
          "name": "D#4",
          "ticks": 415680,
          "time": 196.81798500000002,
          "velocity": 0.7007874015748031
        },
        {
          "duration": 0.1136362500000132,
          "durationTicks": 240,
          "midi": 61,
          "name": "C#4",
          "ticks": 415920,
          "time": 196.93162125,
          "velocity": 0.7007874015748031
        },
        {
          "duration": 0.227272499999998,
          "durationTicks": 480,
          "midi": 59,
          "name": "B3",
          "ticks": 416160,
          "time": 197.04525750000002,
          "velocity": 0.7007874015748031
        },
        {
          "duration": 0.454544999999996,
          "durationTicks": 960,
          "midi": 61,
          "name": "C#4",
          "ticks": 416640,
          "time": 197.27253000000002,
          "velocity": 0.7007874015748031
        }
      ]
    },
    {
      "channel": 6,
      "controlChanges": {
        "10": [
          {
            "number": 10,
            "ticks": 0,
            "time": 0,
            "value": 0.09448818897637795
          }
        ]
      },
      "pitchBends": [],
      "instrument": {
        "family": "guitar",
        "number": 25,
        "name": "acoustic guitar (steel)"
      },
      "name": "Breyan Issac, James Sanderson and Priscilla Renea",
      "notes": [
        {
          "duration": 0.2272725000000002,
          "durationTicks": 480,
          "midi": 56,
          "name": "G#3",
          "ticks": 4320,
          "time": 2.0454525,
          "velocity": 0.7007874015748031
        },
        {
          "duration": 0.22727249999999977,
          "durationTicks": 480,
          "midi": 59,
          "name": "B3",
          "ticks": 4800,
          "time": 2.2727250000000003,
          "velocity": 0.7007874015748031
        },
        {
          "duration": 0.2272725000000002,
          "durationTicks": 480,
          "midi": 63,
          "name": "D#4",
          "ticks": 5280,
          "time": 2.4999975,
          "velocity": 0.7007874015748031
        },
        {
          "duration": 0.2272725000000002,
          "durationTicks": 480,
          "midi": 68,
          "name": "G#4",
          "ticks": 5280,
          "time": 2.4999975,
          "velocity": 0.7007874015748031
        },
        {
          "duration": 0.22727249999999977,
          "durationTicks": 480,
          "midi": 59,
          "name": "B3",
          "ticks": 8160,
          "time": 3.8636325000000005,
          "velocity": 0.7007874015748031
        },
        {
          "duration": 0.22727249999999977,
          "durationTicks": 480,
          "midi": 63,
          "name": "D#4",
          "ticks": 8640,
          "time": 4.090905,
          "velocity": 0.7007874015748031
        },
        {
          "duration": 0.22727250000000065,
          "durationTicks": 480,
          "midi": 71,
          "name": "B4",
          "ticks": 9120,
          "time": 4.3181775,
          "velocity": 0.7007874015748031
        },
        {
          "duration": 0.22727250000000065,
          "durationTicks": 480,
          "midi": 66,
          "name": "F#4",
          "ticks": 9120,
          "time": 4.3181775,
          "velocity": 0.7007874015748031
        },
        {
          "duration": 0.22727249999999977,
          "durationTicks": 480,
          "midi": 58,
          "name": "A#3",
          "ticks": 12000,
          "time": 5.6818125,
          "velocity": 0.7007874015748031
        },
        {
          "duration": 0.22727250000000065,
          "durationTicks": 480,
          "midi": 61,
          "name": "C#4",
          "ticks": 12480,
          "time": 5.909085,
          "velocity": 0.7007874015748031
        },
        {
          "duration": 0.22727249999999977,
          "durationTicks": 480,
          "midi": 61,
          "name": "C#4",
          "ticks": 12960,
          "time": 6.136357500000001,
          "velocity": 0.7007874015748031
        },
        {
          "duration": 0.22727249999999977,
          "durationTicks": 480,
          "midi": 66,
          "name": "F#4",
          "ticks": 12960,
          "time": 6.136357500000001,
          "velocity": 0.7007874015748031
        },
        {
          "duration": 0.22727250000000065,
          "durationTicks": 480,
          "midi": 52,
          "name": "E3",
          "ticks": 15840,
          "time": 7.4999925,
          "velocity": 0.7007874015748031
        },
        {
          "duration": 0.22727249999999977,
          "durationTicks": 480,
          "midi": 56,
          "name": "G#3",
          "ticks": 16320,
          "time": 7.727265000000001,
          "velocity": 0.7007874015748031
        },
        {
          "duration": 0.22727249999999977,
          "durationTicks": 480,
          "midi": 59,
          "name": "B3",
          "ticks": 16800,
          "time": 7.954537500000001,
          "velocity": 0.7007874015748031
        },
        {
          "duration": 0.22727249999999977,
          "durationTicks": 480,
          "midi": 64,
          "name": "E4",
          "ticks": 16800,
          "time": 7.954537500000001,
          "velocity": 0.7007874015748031
        },
        {
          "duration": 0.22727249999999977,
          "durationTicks": 480,
          "midi": 56,
          "name": "G#3",
          "ticks": 19680,
          "time": 9.318172500000001,
          "velocity": 0.7007874015748031
        },
        {
          "duration": 0.22727249999999977,
          "durationTicks": 480,
          "midi": 59,
          "name": "B3",
          "ticks": 20160,
          "time": 9.545445,
          "velocity": 0.7007874015748031
        },
        {
          "duration": 0.22727249999999977,
          "durationTicks": 480,
          "midi": 63,
          "name": "D#4",
          "ticks": 20640,
          "time": 9.7727175,
          "velocity": 0.7007874015748031
        },
        {
          "duration": 0.22727249999999977,
          "durationTicks": 480,
          "midi": 68,
          "name": "G#4",
          "ticks": 20640,
          "time": 9.7727175,
          "velocity": 0.7007874015748031
        },
        {
          "duration": 0.22727249999999977,
          "durationTicks": 480,
          "midi": 59,
          "name": "B3",
          "ticks": 23520,
          "time": 11.136352500000001,
          "velocity": 0.7007874015748031
        },
        {
          "duration": 0.22727249999999977,
          "durationTicks": 480,
          "midi": 63,
          "name": "D#4",
          "ticks": 24000,
          "time": 11.363625,
          "velocity": 0.7007874015748031
        },
        {
          "duration": 0.22727249999999977,
          "durationTicks": 480,
          "midi": 71,
          "name": "B4",
          "ticks": 24480,
          "time": 11.5908975,
          "velocity": 0.7007874015748031
        },
        {
          "duration": 0.22727249999999977,
          "durationTicks": 480,
          "midi": 66,
          "name": "F#4",
          "ticks": 24480,
          "time": 11.5908975,
          "velocity": 0.7007874015748031
        },
        {
          "duration": 0.22727249999999977,
          "durationTicks": 480,
          "midi": 58,
          "name": "A#3",
          "ticks": 27360,
          "time": 12.954532500000001,
          "velocity": 0.7007874015748031
        },
        {
          "duration": 0.22727249999999977,
          "durationTicks": 480,
          "midi": 61,
          "name": "C#4",
          "ticks": 27840,
          "time": 13.181805,
          "velocity": 0.7007874015748031
        },
        {
          "duration": 0.22727249999999977,
          "durationTicks": 480,
          "midi": 61,
          "name": "C#4",
          "ticks": 28320,
          "time": 13.4090775,
          "velocity": 0.7007874015748031
        },
        {
          "duration": 0.22727249999999977,
          "durationTicks": 480,
          "midi": 66,
          "name": "F#4",
          "ticks": 28320,
          "time": 13.4090775,
          "velocity": 0.7007874015748031
        },
        {
          "duration": 0.22727249999999977,
          "durationTicks": 480,
          "midi": 52,
          "name": "E3",
          "ticks": 31200,
          "time": 14.7727125,
          "velocity": 0.7007874015748031
        },
        {
          "duration": 0.22727249999999977,
          "durationTicks": 480,
          "midi": 56,
          "name": "G#3",
          "ticks": 31680,
          "time": 14.999985,
          "velocity": 0.7007874015748031
        },
        {
          "duration": 0.22727250000000154,
          "durationTicks": 480,
          "midi": 59,
          "name": "B3",
          "ticks": 32160,
          "time": 15.2272575,
          "velocity": 0.7007874015748031
        },
        {
          "duration": 0.22727250000000154,
          "durationTicks": 480,
          "midi": 64,
          "name": "E4",
          "ticks": 32160,
          "time": 15.2272575,
          "velocity": 0.7007874015748031
        },
        {
          "duration": 0.227272499999998,
          "durationTicks": 480,
          "midi": 56,
          "name": "G#3",
          "ticks": 35040,
          "time": 16.590892500000002,
          "velocity": 0.7007874015748031
        },
        {
          "duration": 0.22727250000000154,
          "durationTicks": 480,
          "midi": 59,
          "name": "B3",
          "ticks": 35520,
          "time": 16.818165,
          "velocity": 0.7007874015748031
        },
        {
          "duration": 0.227272499999998,
          "durationTicks": 480,
          "midi": 63,
          "name": "D#4",
          "ticks": 36000,
          "time": 17.045437500000002,
          "velocity": 0.7007874015748031
        },
        {
          "duration": 0.227272499999998,
          "durationTicks": 480,
          "midi": 68,
          "name": "G#4",
          "ticks": 36000,
          "time": 17.045437500000002,
          "velocity": 0.7007874015748031
        },
        {
          "duration": 0.22727250000000154,
          "durationTicks": 480,
          "midi": 59,
          "name": "B3",
          "ticks": 38880,
          "time": 18.4090725,
          "velocity": 0.7007874015748031
        },
        {
          "duration": 0.227272499999998,
          "durationTicks": 480,
          "midi": 63,
          "name": "D#4",
          "ticks": 39360,
          "time": 18.636345000000002,
          "velocity": 0.7007874015748031
        },
        {
          "duration": 0.22727250000000154,
          "durationTicks": 480,
          "midi": 71,
          "name": "B4",
          "ticks": 39840,
          "time": 18.8636175,
          "velocity": 0.7007874015748031
        },
        {
          "duration": 0.22727250000000154,
          "durationTicks": 480,
          "midi": 66,
          "name": "F#4",
          "ticks": 39840,
          "time": 18.8636175,
          "velocity": 0.7007874015748031
        },
        {
          "duration": 0.227272499999998,
          "durationTicks": 480,
          "midi": 58,
          "name": "A#3",
          "ticks": 42720,
          "time": 20.227252500000002,
          "velocity": 0.7007874015748031
        },
        {
          "duration": 0.22727250000000154,
          "durationTicks": 480,
          "midi": 61,
          "name": "C#4",
          "ticks": 43200,
          "time": 20.454525,
          "velocity": 0.7007874015748031
        },
        {
          "duration": 0.227272499999998,
          "durationTicks": 480,
          "midi": 61,
          "name": "C#4",
          "ticks": 43680,
          "time": 20.681797500000002,
          "velocity": 0.7007874015748031
        },
        {
          "duration": 0.227272499999998,
          "durationTicks": 480,
          "midi": 66,
          "name": "F#4",
          "ticks": 43680,
          "time": 20.681797500000002,
          "velocity": 0.7007874015748031
        },
        {
          "duration": 0.22727250000000154,
          "durationTicks": 480,
          "midi": 52,
          "name": "E3",
          "ticks": 46560,
          "time": 22.0454325,
          "velocity": 0.7007874015748031
        },
        {
          "duration": 0.227272499999998,
          "durationTicks": 480,
          "midi": 56,
          "name": "G#3",
          "ticks": 47040,
          "time": 22.272705000000002,
          "velocity": 0.7007874015748031
        },
        {
          "duration": 0.22727250000000154,
          "durationTicks": 480,
          "midi": 59,
          "name": "B3",
          "ticks": 47520,
          "time": 22.4999775,
          "velocity": 0.7007874015748031
        },
        {
          "duration": 0.22727250000000154,
          "durationTicks": 480,
          "midi": 64,
          "name": "E4",
          "ticks": 47520,
          "time": 22.4999775,
          "velocity": 0.7007874015748031
        },
        {
          "duration": 0.227272499999998,
          "durationTicks": 480,
          "midi": 56,
          "name": "G#3",
          "ticks": 50400,
          "time": 23.863612500000002,
          "velocity": 0.7007874015748031
        },
        {
          "duration": 0.22727250000000154,
          "durationTicks": 480,
          "midi": 59,
          "name": "B3",
          "ticks": 50880,
          "time": 24.090885,
          "velocity": 0.7007874015748031
        },
        {
          "duration": 0.22727250000000154,
          "durationTicks": 480,
          "midi": 63,
          "name": "D#4",
          "ticks": 51360,
          "time": 24.3181575,
          "velocity": 0.7007874015748031
        },
        {
          "duration": 0.22727250000000154,
          "durationTicks": 480,
          "midi": 68,
          "name": "G#4",
          "ticks": 51360,
          "time": 24.3181575,
          "velocity": 0.7007874015748031
        },
        {
          "duration": 0.22727250000000154,
          "durationTicks": 480,
          "midi": 59,
          "name": "B3",
          "ticks": 54240,
          "time": 25.6817925,
          "velocity": 0.7007874015748031
        },
        {
          "duration": 0.22727250000000154,
          "durationTicks": 480,
          "midi": 63,
          "name": "D#4",
          "ticks": 54720,
          "time": 25.909065000000002,
          "velocity": 0.7007874015748031
        },
        {
          "duration": 0.227272499999998,
          "durationTicks": 480,
          "midi": 71,
          "name": "B4",
          "ticks": 55200,
          "time": 26.136337500000003,
          "velocity": 0.7007874015748031
        },
        {
          "duration": 0.227272499999998,
          "durationTicks": 480,
          "midi": 66,
          "name": "F#4",
          "ticks": 55200,
          "time": 26.136337500000003,
          "velocity": 0.7007874015748031
        },
        {
          "duration": 0.22727250000000154,
          "durationTicks": 480,
          "midi": 58,
          "name": "A#3",
          "ticks": 58080,
          "time": 27.499972500000002,
          "velocity": 0.7007874015748031
        },
        {
          "duration": 0.227272499999998,
          "durationTicks": 480,
          "midi": 61,
          "name": "C#4",
          "ticks": 58560,
          "time": 27.727245000000003,
          "velocity": 0.7007874015748031
        },
        {
          "duration": 0.22727250000000154,
          "durationTicks": 480,
          "midi": 61,
          "name": "C#4",
          "ticks": 59040,
          "time": 27.9545175,
          "velocity": 0.7007874015748031
        },
        {
          "duration": 0.22727250000000154,
          "durationTicks": 480,
          "midi": 66,
          "name": "F#4",
          "ticks": 59040,
          "time": 27.9545175,
          "velocity": 0.7007874015748031
        },
        {
          "duration": 0.227272499999998,
          "durationTicks": 480,
          "midi": 52,
          "name": "E3",
          "ticks": 61920,
          "time": 29.318152500000004,
          "velocity": 0.7007874015748031
        },
        {
          "duration": 0.22727250000000154,
          "durationTicks": 480,
          "midi": 56,
          "name": "G#3",
          "ticks": 62400,
          "time": 29.545425,
          "velocity": 0.7007874015748031
        },
        {
          "duration": 0.227272499999998,
          "durationTicks": 480,
          "midi": 59,
          "name": "B3",
          "ticks": 62880,
          "time": 29.772697500000003,
          "velocity": 0.7007874015748031
        },
        {
          "duration": 0.227272499999998,
          "durationTicks": 480,
          "midi": 64,
          "name": "E4",
          "ticks": 62880,
          "time": 29.772697500000003,
          "velocity": 0.7007874015748031
        },
        {
          "duration": 0.22727250000000154,
          "durationTicks": 480,
          "midi": 56,
          "name": "G#3",
          "ticks": 65760,
          "time": 31.1363325,
          "velocity": 0.7007874015748031
        },
        {
          "duration": 0.227272499999998,
          "durationTicks": 480,
          "midi": 59,
          "name": "B3",
          "ticks": 66240,
          "time": 31.363605000000003,
          "velocity": 0.7007874015748031
        },
        {
          "duration": 0.22727250000000154,
          "durationTicks": 480,
          "midi": 63,
          "name": "D#4",
          "ticks": 66720,
          "time": 31.5908775,
          "velocity": 0.7007874015748031
        },
        {
          "duration": 0.22727250000000154,
          "durationTicks": 480,
          "midi": 68,
          "name": "G#4",
          "ticks": 66720,
          "time": 31.5908775,
          "velocity": 0.7007874015748031
        },
        {
          "duration": 0.2272725000000051,
          "durationTicks": 480,
          "midi": 59,
          "name": "B3",
          "ticks": 69600,
          "time": 32.9545125,
          "velocity": 0.7007874015748031
        },
        {
          "duration": 0.227272499999998,
          "durationTicks": 480,
          "midi": 63,
          "name": "D#4",
          "ticks": 70080,
          "time": 33.181785000000005,
          "velocity": 0.7007874015748031
        },
        {
          "duration": 0.227272499999998,
          "durationTicks": 480,
          "midi": 71,
          "name": "B4",
          "ticks": 70560,
          "time": 33.4090575,
          "velocity": 0.7007874015748031
        },
        {
          "duration": 0.227272499999998,
          "durationTicks": 480,
          "midi": 66,
          "name": "F#4",
          "ticks": 70560,
          "time": 33.4090575,
          "velocity": 0.7007874015748031
        },
        {
          "duration": 0.227272499999998,
          "durationTicks": 480,
          "midi": 58,
          "name": "A#3",
          "ticks": 73440,
          "time": 34.772692500000005,
          "velocity": 0.7007874015748031
        },
        {
          "duration": 0.227272499999998,
          "durationTicks": 480,
          "midi": 61,
          "name": "C#4",
          "ticks": 73920,
          "time": 34.999965,
          "velocity": 0.7007874015748031
        },
        {
          "duration": 0.227272499999998,
          "durationTicks": 480,
          "midi": 61,
          "name": "C#4",
          "ticks": 74400,
          "time": 35.2272375,
          "velocity": 0.7007874015748031
        },
        {
          "duration": 0.227272499999998,
          "durationTicks": 480,
          "midi": 66,
          "name": "F#4",
          "ticks": 74400,
          "time": 35.2272375,
          "velocity": 0.7007874015748031
        },
        {
          "duration": 0.227272499999998,
          "durationTicks": 480,
          "midi": 52,
          "name": "E3",
          "ticks": 77280,
          "time": 36.5908725,
          "velocity": 0.7007874015748031
        },
        {
          "duration": 0.227272499999998,
          "durationTicks": 480,
          "midi": 56,
          "name": "G#3",
          "ticks": 77760,
          "time": 36.818145,
          "velocity": 0.7007874015748031
        },
        {
          "duration": 0.2272725000000051,
          "durationTicks": 480,
          "midi": 59,
          "name": "B3",
          "ticks": 78240,
          "time": 37.0454175,
          "velocity": 0.7007874015748031
        },
        {
          "duration": 0.2272725000000051,
          "durationTicks": 480,
          "midi": 64,
          "name": "E4",
          "ticks": 78240,
          "time": 37.0454175,
          "velocity": 0.7007874015748031
        },
        {
          "duration": 0.227272499999998,
          "durationTicks": 480,
          "midi": 63,
          "name": "D#4",
          "ticks": 81120,
          "time": 38.4090525,
          "velocity": 0.7007874015748031
        },
        {
          "duration": 0.227272499999998,
          "durationTicks": 480,
          "midi": 59,
          "name": "B3",
          "ticks": 81120,
          "time": 38.4090525,
          "velocity": 0.7007874015748031
        },
        {
          "duration": 0.227272499999998,
          "durationTicks": 480,
          "midi": 56,
          "name": "G#3",
          "ticks": 81120,
          "time": 38.4090525,
          "velocity": 0.7007874015748031
        },
        {
          "duration": 0.227272499999998,
          "durationTicks": 480,
          "midi": 63,
          "name": "D#4",
          "ticks": 82080,
          "time": 38.863597500000004,
          "velocity": 0.7007874015748031
        },
        {
          "duration": 0.227272499999998,
          "durationTicks": 480,
          "midi": 59,
          "name": "B3",
          "ticks": 82080,
          "time": 38.863597500000004,
          "velocity": 0.7007874015748031
        },
        {
          "duration": 0.227272499999998,
          "durationTicks": 480,
          "midi": 56,
          "name": "G#3",
          "ticks": 82080,
          "time": 38.863597500000004,
          "velocity": 0.7007874015748031
        },
        {
          "duration": 0.2272725000000051,
          "durationTicks": 480,
          "midi": 63,
          "name": "D#4",
          "ticks": 83040,
          "time": 39.3181425,
          "velocity": 0.7007874015748031
        },
        {
          "duration": 0.2272725000000051,
          "durationTicks": 480,
          "midi": 59,
          "name": "B3",
          "ticks": 83040,
          "time": 39.3181425,
          "velocity": 0.7007874015748031
        },
        {
          "duration": 0.2272725000000051,
          "durationTicks": 480,
          "midi": 56,
          "name": "G#3",
          "ticks": 83040,
          "time": 39.3181425,
          "velocity": 0.7007874015748031
        },
        {
          "duration": 0.227272499999998,
          "durationTicks": 480,
          "midi": 63,
          "name": "D#4",
          "ticks": 84000,
          "time": 39.7726875,
          "velocity": 0.7007874015748031
        },
        {
          "duration": 0.227272499999998,
          "durationTicks": 480,
          "midi": 59,
          "name": "B3",
          "ticks": 84000,
          "time": 39.7726875,
          "velocity": 0.7007874015748031
        },
        {
          "duration": 0.227272499999998,
          "durationTicks": 480,
          "midi": 56,
          "name": "G#3",
          "ticks": 84000,
          "time": 39.7726875,
          "velocity": 0.7007874015748031
        },
        {
          "duration": 0.2272725000000051,
          "durationTicks": 480,
          "midi": 63,
          "name": "D#4",
          "ticks": 84960,
          "time": 40.2272325,
          "velocity": 0.7007874015748031
        },
        {
          "duration": 0.2272725000000051,
          "durationTicks": 480,
          "midi": 59,
          "name": "B3",
          "ticks": 84960,
          "time": 40.2272325,
          "velocity": 0.7007874015748031
        },
        {
          "duration": 0.2272725000000051,
          "durationTicks": 480,
          "midi": 54,
          "name": "F#3",
          "ticks": 84960,
          "time": 40.2272325,
          "velocity": 0.7007874015748031
        },
        {
          "duration": 0.227272499999998,
          "durationTicks": 480,
          "midi": 63,
          "name": "D#4",
          "ticks": 85920,
          "time": 40.6817775,
          "velocity": 0.7007874015748031
        },
        {
          "duration": 0.227272499999998,
          "durationTicks": 480,
          "midi": 59,
          "name": "B3",
          "ticks": 85920,
          "time": 40.6817775,
          "velocity": 0.7007874015748031
        },
        {
          "duration": 0.227272499999998,
          "durationTicks": 480,
          "midi": 54,
          "name": "F#3",
          "ticks": 85920,
          "time": 40.6817775,
          "velocity": 0.7007874015748031
        },
        {
          "duration": 0.227272499999998,
          "durationTicks": 480,
          "midi": 63,
          "name": "D#4",
          "ticks": 86880,
          "time": 41.136322500000006,
          "velocity": 0.7007874015748031
        },
        {
          "duration": 0.227272499999998,
          "durationTicks": 480,
          "midi": 59,
          "name": "B3",
          "ticks": 86880,
          "time": 41.136322500000006,
          "velocity": 0.7007874015748031
        },
        {
          "duration": 0.227272499999998,
          "durationTicks": 480,
          "midi": 54,
          "name": "F#3",
          "ticks": 86880,
          "time": 41.136322500000006,
          "velocity": 0.7007874015748031
        },
        {
          "duration": 0.227272499999998,
          "durationTicks": 480,
          "midi": 63,
          "name": "D#4",
          "ticks": 87840,
          "time": 41.5908675,
          "velocity": 0.7007874015748031
        },
        {
          "duration": 0.227272499999998,
          "durationTicks": 480,
          "midi": 59,
          "name": "B3",
          "ticks": 87840,
          "time": 41.5908675,
          "velocity": 0.7007874015748031
        },
        {
          "duration": 0.227272499999998,
          "durationTicks": 480,
          "midi": 54,
          "name": "F#3",
          "ticks": 87840,
          "time": 41.5908675,
          "velocity": 0.7007874015748031
        },
        {
          "duration": 0.227272499999998,
          "durationTicks": 480,
          "midi": 66,
          "name": "F#4",
          "ticks": 88800,
          "time": 42.045412500000005,
          "velocity": 0.7007874015748031
        },
        {
          "duration": 0.227272499999998,
          "durationTicks": 480,
          "midi": 58,
          "name": "A#3",
          "ticks": 88800,
          "time": 42.045412500000005,
          "velocity": 0.7007874015748031
        },
        {
          "duration": 0.227272499999998,
          "durationTicks": 480,
          "midi": 61,
          "name": "C#4",
          "ticks": 88800,
          "time": 42.045412500000005,
          "velocity": 0.7007874015748031
        },
        {
          "duration": 0.2272725000000051,
          "durationTicks": 480,
          "midi": 66,
          "name": "F#4",
          "ticks": 89760,
          "time": 42.4999575,
          "velocity": 0.7007874015748031
        },
        {
          "duration": 0.2272725000000051,
          "durationTicks": 480,
          "midi": 61,
          "name": "C#4",
          "ticks": 89760,
          "time": 42.4999575,
          "velocity": 0.7007874015748031
        },
        {
          "duration": 0.2272725000000051,
          "durationTicks": 480,
          "midi": 58,
          "name": "A#3",
          "ticks": 89760,
          "time": 42.4999575,
          "velocity": 0.7007874015748031
        },
        {
          "duration": 0.227272499999998,
          "durationTicks": 480,
          "midi": 66,
          "name": "F#4",
          "ticks": 90720,
          "time": 42.954502500000004,
          "velocity": 0.7007874015748031
        },
        {
          "duration": 0.227272499999998,
          "durationTicks": 480,
          "midi": 61,
          "name": "C#4",
          "ticks": 90720,
          "time": 42.954502500000004,
          "velocity": 0.7007874015748031
        },
        {
          "duration": 0.227272499999998,
          "durationTicks": 480,
          "midi": 58,
          "name": "A#3",
          "ticks": 90720,
          "time": 42.954502500000004,
          "velocity": 0.7007874015748031
        },
        {
          "duration": 0.2272725000000051,
          "durationTicks": 480,
          "midi": 66,
          "name": "F#4",
          "ticks": 91680,
          "time": 43.4090475,
          "velocity": 0.7007874015748031
        },
        {
          "duration": 0.2272725000000051,
          "durationTicks": 480,
          "midi": 61,
          "name": "C#4",
          "ticks": 91680,
          "time": 43.4090475,
          "velocity": 0.7007874015748031
        },
        {
          "duration": 0.2272725000000051,
          "durationTicks": 480,
          "midi": 58,
          "name": "A#3",
          "ticks": 91680,
          "time": 43.4090475,
          "velocity": 0.7007874015748031
        },
        {
          "duration": 0.227272499999998,
          "durationTicks": 480,
          "midi": 59,
          "name": "B3",
          "ticks": 92640,
          "time": 43.8635925,
          "velocity": 0.7007874015748031
        },
        {
          "duration": 0.227272499999998,
          "durationTicks": 480,
          "midi": 56,
          "name": "G#3",
          "ticks": 92640,
          "time": 43.8635925,
          "velocity": 0.7007874015748031
        },
        {
          "duration": 0.227272499999998,
          "durationTicks": 480,
          "midi": 64,
          "name": "E4",
          "ticks": 92640,
          "time": 43.8635925,
          "velocity": 0.7007874015748031
        },
        {
          "duration": 0.227272499999998,
          "durationTicks": 480,
          "midi": 66,
          "name": "F#4",
          "ticks": 92640,
          "time": 43.8635925,
          "velocity": 0.7007874015748031
        },
        {
          "duration": 0.227272499999998,
          "durationTicks": 480,
          "midi": 59,
          "name": "B3",
          "ticks": 93600,
          "time": 44.318137500000006,
          "velocity": 0.7007874015748031
        },
        {
          "duration": 0.227272499999998,
          "durationTicks": 480,
          "midi": 56,
          "name": "G#3",
          "ticks": 93600,
          "time": 44.318137500000006,
          "velocity": 0.7007874015748031
        },
        {
          "duration": 0.227272499999998,
          "durationTicks": 480,
          "midi": 64,
          "name": "E4",
          "ticks": 93600,
          "time": 44.318137500000006,
          "velocity": 0.7007874015748031
        },
        {
          "duration": 0.227272499999998,
          "durationTicks": 480,
          "midi": 66,
          "name": "F#4",
          "ticks": 93600,
          "time": 44.318137500000006,
          "velocity": 0.7007874015748031
        },
        {
          "duration": 0.227272499999998,
          "durationTicks": 480,
          "midi": 59,
          "name": "B3",
          "ticks": 94560,
          "time": 44.7726825,
          "velocity": 0.7007874015748031
        },
        {
          "duration": 0.227272499999998,
          "durationTicks": 480,
          "midi": 56,
          "name": "G#3",
          "ticks": 94560,
          "time": 44.7726825,
          "velocity": 0.7007874015748031
        },
        {
          "duration": 0.227272499999998,
          "durationTicks": 480,
          "midi": 64,
          "name": "E4",
          "ticks": 94560,
          "time": 44.7726825,
          "velocity": 0.7007874015748031
        },
        {
          "duration": 0.227272499999998,
          "durationTicks": 480,
          "midi": 66,
          "name": "F#4",
          "ticks": 94560,
          "time": 44.7726825,
          "velocity": 0.7007874015748031
        },
        {
          "duration": 0.2272725000000051,
          "durationTicks": 480,
          "midi": 63,
          "name": "D#4",
          "ticks": 96480,
          "time": 45.6817725,
          "velocity": 0.7007874015748031
        },
        {
          "duration": 0.2272725000000051,
          "durationTicks": 480,
          "midi": 59,
          "name": "B3",
          "ticks": 96480,
          "time": 45.6817725,
          "velocity": 0.7007874015748031
        },
        {
          "duration": 0.2272725000000051,
          "durationTicks": 480,
          "midi": 56,
          "name": "G#3",
          "ticks": 96480,
          "time": 45.6817725,
          "velocity": 0.7007874015748031
        },
        {
          "duration": 0.227272499999998,
          "durationTicks": 480,
          "midi": 63,
          "name": "D#4",
          "ticks": 97440,
          "time": 46.136317500000004,
          "velocity": 0.7007874015748031
        },
        {
          "duration": 0.227272499999998,
          "durationTicks": 480,
          "midi": 59,
          "name": "B3",
          "ticks": 97440,
          "time": 46.136317500000004,
          "velocity": 0.7007874015748031
        },
        {
          "duration": 0.227272499999998,
          "durationTicks": 480,
          "midi": 56,
          "name": "G#3",
          "ticks": 97440,
          "time": 46.136317500000004,
          "velocity": 0.7007874015748031
        },
        {
          "duration": 0.2272725000000051,
          "durationTicks": 480,
          "midi": 63,
          "name": "D#4",
          "ticks": 98400,
          "time": 46.5908625,
          "velocity": 0.7007874015748031
        },
        {
          "duration": 0.2272725000000051,
          "durationTicks": 480,
          "midi": 59,
          "name": "B3",
          "ticks": 98400,
          "time": 46.5908625,
          "velocity": 0.7007874015748031
        },
        {
          "duration": 0.2272725000000051,
          "durationTicks": 480,
          "midi": 56,
          "name": "G#3",
          "ticks": 98400,
          "time": 46.5908625,
          "velocity": 0.7007874015748031
        },
        {
          "duration": 0.227272499999998,
          "durationTicks": 480,
          "midi": 63,
          "name": "D#4",
          "ticks": 100320,
          "time": 47.499952500000006,
          "velocity": 0.7007874015748031
        },
        {
          "duration": 0.227272499999998,
          "durationTicks": 480,
          "midi": 59,
          "name": "B3",
          "ticks": 100320,
          "time": 47.499952500000006,
          "velocity": 0.7007874015748031
        },
        {
          "duration": 0.227272499999998,
          "durationTicks": 480,
          "midi": 54,
          "name": "F#3",
          "ticks": 100320,
          "time": 47.499952500000006,
          "velocity": 0.7007874015748031
        },
        {
          "duration": 0.227272499999998,
          "durationTicks": 480,
          "midi": 63,
          "name": "D#4",
          "ticks": 101280,
          "time": 47.9544975,
          "velocity": 0.7007874015748031
        },
        {
          "duration": 0.227272499999998,
          "durationTicks": 480,
          "midi": 59,
          "name": "B3",
          "ticks": 101280,
          "time": 47.9544975,
          "velocity": 0.7007874015748031
        },
        {
          "duration": 0.227272499999998,
          "durationTicks": 480,
          "midi": 54,
          "name": "F#3",
          "ticks": 101280,
          "time": 47.9544975,
          "velocity": 0.7007874015748031
        },
        {
          "duration": 0.227272499999998,
          "durationTicks": 480,
          "midi": 63,
          "name": "D#4",
          "ticks": 102240,
          "time": 48.409042500000005,
          "velocity": 0.7007874015748031
        },
        {
          "duration": 0.227272499999998,
          "durationTicks": 480,
          "midi": 59,
          "name": "B3",
          "ticks": 102240,
          "time": 48.409042500000005,
          "velocity": 0.7007874015748031
        },
        {
          "duration": 0.227272499999998,
          "durationTicks": 480,
          "midi": 54,
          "name": "F#3",
          "ticks": 102240,
          "time": 48.409042500000005,
          "velocity": 0.7007874015748031
        },
        {
          "duration": 0.227272499999998,
          "durationTicks": 480,
          "midi": 66,
          "name": "F#4",
          "ticks": 104160,
          "time": 49.318132500000004,
          "velocity": 0.7007874015748031
        },
        {
          "duration": 0.227272499999998,
          "durationTicks": 480,
          "midi": 58,
          "name": "A#3",
          "ticks": 104160,
          "time": 49.318132500000004,
          "velocity": 0.7007874015748031
        },
        {
          "duration": 0.227272499999998,
          "durationTicks": 480,
          "midi": 61,
          "name": "C#4",
          "ticks": 104160,
          "time": 49.318132500000004,
          "velocity": 0.7007874015748031
        },
        {
          "duration": 0.2272725000000051,
          "durationTicks": 480,
          "midi": 66,
          "name": "F#4",
          "ticks": 105120,
          "time": 49.7726775,
          "velocity": 0.7007874015748031
        },
        {
          "duration": 0.2272725000000051,
          "durationTicks": 480,
          "midi": 61,
          "name": "C#4",
          "ticks": 105120,
          "time": 49.7726775,
          "velocity": 0.7007874015748031
        },
        {
          "duration": 0.2272725000000051,
          "durationTicks": 480,
          "midi": 58,
          "name": "A#3",
          "ticks": 105120,
          "time": 49.7726775,
          "velocity": 0.7007874015748031
        },
        {
          "duration": 0.227272499999998,
          "durationTicks": 480,
          "midi": 66,
          "name": "F#4",
          "ticks": 106080,
          "time": 50.2272225,
          "velocity": 0.7007874015748031
        },
        {
          "duration": 0.227272499999998,
          "durationTicks": 480,
          "midi": 61,
          "name": "C#4",
          "ticks": 106080,
          "time": 50.2272225,
          "velocity": 0.7007874015748031
        },
        {
          "duration": 0.227272499999998,
          "durationTicks": 480,
          "midi": 58,
          "name": "A#3",
          "ticks": 106080,
          "time": 50.2272225,
          "velocity": 0.7007874015748031
        },
        {
          "duration": 0.227272499999998,
          "durationTicks": 480,
          "midi": 66,
          "name": "F#4",
          "ticks": 107040,
          "time": 50.68176750000001,
          "velocity": 0.7007874015748031
        },
        {
          "duration": 0.227272499999998,
          "durationTicks": 480,
          "midi": 61,
          "name": "C#4",
          "ticks": 107040,
          "time": 50.68176750000001,
          "velocity": 0.7007874015748031
        },
        {
          "duration": 0.227272499999998,
          "durationTicks": 480,
          "midi": 58,
          "name": "A#3",
          "ticks": 107040,
          "time": 50.68176750000001,
          "velocity": 0.7007874015748031
        },
        {
          "duration": 0.227272499999998,
          "durationTicks": 480,
          "midi": 59,
          "name": "B3",
          "ticks": 108000,
          "time": 51.1363125,
          "velocity": 0.7007874015748031
        },
        {
          "duration": 0.227272499999998,
          "durationTicks": 480,
          "midi": 56,
          "name": "G#3",
          "ticks": 108000,
          "time": 51.1363125,
          "velocity": 0.7007874015748031
        },
        {
          "duration": 0.227272499999998,
          "durationTicks": 480,
          "midi": 64,
          "name": "E4",
          "ticks": 108000,
          "time": 51.1363125,
          "velocity": 0.7007874015748031
        },
        {
          "duration": 0.227272499999998,
          "durationTicks": 480,
          "midi": 66,
          "name": "F#4",
          "ticks": 108000,
          "time": 51.1363125,
          "velocity": 0.7007874015748031
        },
        {
          "duration": 0.227272499999998,
          "durationTicks": 480,
          "midi": 59,
          "name": "B3",
          "ticks": 108960,
          "time": 51.590857500000006,
          "velocity": 0.7007874015748031
        },
        {
          "duration": 0.227272499999998,
          "durationTicks": 480,
          "midi": 56,
          "name": "G#3",
          "ticks": 108960,
          "time": 51.590857500000006,
          "velocity": 0.7007874015748031
        },
        {
          "duration": 0.227272499999998,
          "durationTicks": 480,
          "midi": 64,
          "name": "E4",
          "ticks": 108960,
          "time": 51.590857500000006,
          "velocity": 0.7007874015748031
        },
        {
          "duration": 0.227272499999998,
          "durationTicks": 480,
          "midi": 66,
          "name": "F#4",
          "ticks": 108960,
          "time": 51.590857500000006,
          "velocity": 0.7007874015748031
        },
        {
          "duration": 0.2272725000000051,
          "durationTicks": 480,
          "midi": 59,
          "name": "B3",
          "ticks": 109920,
          "time": 52.0454025,
          "velocity": 0.7007874015748031
        },
        {
          "duration": 0.2272725000000051,
          "durationTicks": 480,
          "midi": 56,
          "name": "G#3",
          "ticks": 109920,
          "time": 52.0454025,
          "velocity": 0.7007874015748031
        },
        {
          "duration": 0.2272725000000051,
          "durationTicks": 480,
          "midi": 64,
          "name": "E4",
          "ticks": 109920,
          "time": 52.0454025,
          "velocity": 0.7007874015748031
        },
        {
          "duration": 0.2272725000000051,
          "durationTicks": 480,
          "midi": 66,
          "name": "F#4",
          "ticks": 109920,
          "time": 52.0454025,
          "velocity": 0.7007874015748031
        },
        {
          "duration": 0.2272725000000051,
          "durationTicks": 480,
          "midi": 63,
          "name": "D#4",
          "ticks": 111840,
          "time": 52.9544925,
          "velocity": 0.7007874015748031
        },
        {
          "duration": 0.2272725000000051,
          "durationTicks": 480,
          "midi": 59,
          "name": "B3",
          "ticks": 111840,
          "time": 52.9544925,
          "velocity": 0.7007874015748031
        },
        {
          "duration": 0.2272725000000051,
          "durationTicks": 480,
          "midi": 56,
          "name": "G#3",
          "ticks": 111840,
          "time": 52.9544925,
          "velocity": 0.7007874015748031
        },
        {
          "duration": 0.227272499999998,
          "durationTicks": 480,
          "midi": 63,
          "name": "D#4",
          "ticks": 112800,
          "time": 53.409037500000004,
          "velocity": 0.7007874015748031
        },
        {
          "duration": 0.227272499999998,
          "durationTicks": 480,
          "midi": 59,
          "name": "B3",
          "ticks": 112800,
          "time": 53.409037500000004,
          "velocity": 0.7007874015748031
        },
        {
          "duration": 0.227272499999998,
          "durationTicks": 480,
          "midi": 56,
          "name": "G#3",
          "ticks": 112800,
          "time": 53.409037500000004,
          "velocity": 0.7007874015748031
        },
        {
          "duration": 0.227272499999998,
          "durationTicks": 480,
          "midi": 63,
          "name": "D#4",
          "ticks": 113760,
          "time": 53.86358250000001,
          "velocity": 0.7007874015748031
        },
        {
          "duration": 0.227272499999998,
          "durationTicks": 480,
          "midi": 59,
          "name": "B3",
          "ticks": 113760,
          "time": 53.86358250000001,
          "velocity": 0.7007874015748031
        },
        {
          "duration": 0.227272499999998,
          "durationTicks": 480,
          "midi": 56,
          "name": "G#3",
          "ticks": 113760,
          "time": 53.86358250000001,
          "velocity": 0.7007874015748031
        },
        {
          "duration": 0.227272499999998,
          "durationTicks": 480,
          "midi": 63,
          "name": "D#4",
          "ticks": 114720,
          "time": 54.3181275,
          "velocity": 0.7007874015748031
        },
        {
          "duration": 0.227272499999998,
          "durationTicks": 480,
          "midi": 59,
          "name": "B3",
          "ticks": 114720,
          "time": 54.3181275,
          "velocity": 0.7007874015748031
        },
        {
          "duration": 0.227272499999998,
          "durationTicks": 480,
          "midi": 56,
          "name": "G#3",
          "ticks": 114720,
          "time": 54.3181275,
          "velocity": 0.7007874015748031
        },
        {
          "duration": 0.227272499999998,
          "durationTicks": 480,
          "midi": 63,
          "name": "D#4",
          "ticks": 115680,
          "time": 54.772672500000006,
          "velocity": 0.7007874015748031
        },
        {
          "duration": 0.227272499999998,
          "durationTicks": 480,
          "midi": 59,
          "name": "B3",
          "ticks": 115680,
          "time": 54.772672500000006,
          "velocity": 0.7007874015748031
        },
        {
          "duration": 0.227272499999998,
          "durationTicks": 480,
          "midi": 54,
          "name": "F#3",
          "ticks": 115680,
          "time": 54.772672500000006,
          "velocity": 0.7007874015748031
        },
        {
          "duration": 0.2272725000000051,
          "durationTicks": 480,
          "midi": 63,
          "name": "D#4",
          "ticks": 116640,
          "time": 55.2272175,
          "velocity": 0.7007874015748031
        },
        {
          "duration": 0.2272725000000051,
          "durationTicks": 480,
          "midi": 59,
          "name": "B3",
          "ticks": 116640,
          "time": 55.2272175,
          "velocity": 0.7007874015748031
        },
        {
          "duration": 0.2272725000000051,
          "durationTicks": 480,
          "midi": 54,
          "name": "F#3",
          "ticks": 116640,
          "time": 55.2272175,
          "velocity": 0.7007874015748031
        },
        {
          "duration": 0.227272499999998,
          "durationTicks": 480,
          "midi": 63,
          "name": "D#4",
          "ticks": 117600,
          "time": 55.681762500000005,
          "velocity": 0.7007874015748031
        },
        {
          "duration": 0.227272499999998,
          "durationTicks": 480,
          "midi": 59,
          "name": "B3",
          "ticks": 117600,
          "time": 55.681762500000005,
          "velocity": 0.7007874015748031
        },
        {
          "duration": 0.227272499999998,
          "durationTicks": 480,
          "midi": 54,
          "name": "F#3",
          "ticks": 117600,
          "time": 55.681762500000005,
          "velocity": 0.7007874015748031
        },
        {
          "duration": 0.2272725000000051,
          "durationTicks": 480,
          "midi": 63,
          "name": "D#4",
          "ticks": 118560,
          "time": 56.1363075,
          "velocity": 0.7007874015748031
        },
        {
          "duration": 0.2272725000000051,
          "durationTicks": 480,
          "midi": 59,
          "name": "B3",
          "ticks": 118560,
          "time": 56.1363075,
          "velocity": 0.7007874015748031
        },
        {
          "duration": 0.2272725000000051,
          "durationTicks": 480,
          "midi": 54,
          "name": "F#3",
          "ticks": 118560,
          "time": 56.1363075,
          "velocity": 0.7007874015748031
        },
        {
          "duration": 0.227272499999998,
          "durationTicks": 480,
          "midi": 66,
          "name": "F#4",
          "ticks": 119520,
          "time": 56.590852500000004,
          "velocity": 0.7007874015748031
        },
        {
          "duration": 0.227272499999998,
          "durationTicks": 480,
          "midi": 58,
          "name": "A#3",
          "ticks": 119520,
          "time": 56.590852500000004,
          "velocity": 0.7007874015748031
        },
        {
          "duration": 0.227272499999998,
          "durationTicks": 480,
          "midi": 61,
          "name": "C#4",
          "ticks": 119520,
          "time": 56.590852500000004,
          "velocity": 0.7007874015748031
        },
        {
          "duration": 0.227272499999998,
          "durationTicks": 480,
          "midi": 66,
          "name": "F#4",
          "ticks": 120480,
          "time": 57.04539750000001,
          "velocity": 0.7007874015748031
        },
        {
          "duration": 0.227272499999998,
          "durationTicks": 480,
          "midi": 61,
          "name": "C#4",
          "ticks": 120480,
          "time": 57.04539750000001,
          "velocity": 0.7007874015748031
        },
        {
          "duration": 0.227272499999998,
          "durationTicks": 480,
          "midi": 58,
          "name": "A#3",
          "ticks": 120480,
          "time": 57.04539750000001,
          "velocity": 0.7007874015748031
        },
        {
          "duration": 0.227272499999998,
          "durationTicks": 480,
          "midi": 66,
          "name": "F#4",
          "ticks": 121440,
          "time": 57.4999425,
          "velocity": 0.7007874015748031
        },
        {
          "duration": 0.227272499999998,
          "durationTicks": 480,
          "midi": 61,
          "name": "C#4",
          "ticks": 121440,
          "time": 57.4999425,
          "velocity": 0.7007874015748031
        },
        {
          "duration": 0.227272499999998,
          "durationTicks": 480,
          "midi": 58,
          "name": "A#3",
          "ticks": 121440,
          "time": 57.4999425,
          "velocity": 0.7007874015748031
        },
        {
          "duration": 0.227272499999998,
          "durationTicks": 480,
          "midi": 66,
          "name": "F#4",
          "ticks": 122400,
          "time": 57.954487500000006,
          "velocity": 0.7007874015748031
        },
        {
          "duration": 0.227272499999998,
          "durationTicks": 480,
          "midi": 61,
          "name": "C#4",
          "ticks": 122400,
          "time": 57.954487500000006,
          "velocity": 0.7007874015748031
        },
        {
          "duration": 0.227272499999998,
          "durationTicks": 480,
          "midi": 58,
          "name": "A#3",
          "ticks": 122400,
          "time": 57.954487500000006,
          "velocity": 0.7007874015748031
        },
        {
          "duration": 0.2272725000000051,
          "durationTicks": 480,
          "midi": 59,
          "name": "B3",
          "ticks": 123360,
          "time": 58.4090325,
          "velocity": 0.7007874015748031
        },
        {
          "duration": 0.2272725000000051,
          "durationTicks": 480,
          "midi": 56,
          "name": "G#3",
          "ticks": 123360,
          "time": 58.4090325,
          "velocity": 0.7007874015748031
        },
        {
          "duration": 0.2272725000000051,
          "durationTicks": 480,
          "midi": 64,
          "name": "E4",
          "ticks": 123360,
          "time": 58.4090325,
          "velocity": 0.7007874015748031
        },
        {
          "duration": 0.2272725000000051,
          "durationTicks": 480,
          "midi": 66,
          "name": "F#4",
          "ticks": 123360,
          "time": 58.4090325,
          "velocity": 0.7007874015748031
        },
        {
          "duration": 0.227272499999998,
          "durationTicks": 480,
          "midi": 59,
          "name": "B3",
          "ticks": 124320,
          "time": 58.863577500000005,
          "velocity": 0.7007874015748031
        },
        {
          "duration": 0.227272499999998,
          "durationTicks": 480,
          "midi": 56,
          "name": "G#3",
          "ticks": 124320,
          "time": 58.863577500000005,
          "velocity": 0.7007874015748031
        },
        {
          "duration": 0.227272499999998,
          "durationTicks": 480,
          "midi": 64,
          "name": "E4",
          "ticks": 124320,
          "time": 58.863577500000005,
          "velocity": 0.7007874015748031
        },
        {
          "duration": 0.227272499999998,
          "durationTicks": 480,
          "midi": 66,
          "name": "F#4",
          "ticks": 124320,
          "time": 58.863577500000005,
          "velocity": 0.7007874015748031
        },
        {
          "duration": 0.2272725000000051,
          "durationTicks": 480,
          "midi": 59,
          "name": "B3",
          "ticks": 125280,
          "time": 59.3181225,
          "velocity": 0.7007874015748031
        },
        {
          "duration": 0.2272725000000051,
          "durationTicks": 480,
          "midi": 56,
          "name": "G#3",
          "ticks": 125280,
          "time": 59.3181225,
          "velocity": 0.7007874015748031
        },
        {
          "duration": 0.2272725000000051,
          "durationTicks": 480,
          "midi": 64,
          "name": "E4",
          "ticks": 125280,
          "time": 59.3181225,
          "velocity": 0.7007874015748031
        },
        {
          "duration": 0.227272499999998,
          "durationTicks": 480,
          "midi": 59,
          "name": "B3",
          "ticks": 126240,
          "time": 59.772667500000004,
          "velocity": 0.7007874015748031
        },
        {
          "duration": 0.227272499999998,
          "durationTicks": 480,
          "midi": 56,
          "name": "G#3",
          "ticks": 126240,
          "time": 59.772667500000004,
          "velocity": 0.7007874015748031
        },
        {
          "duration": 0.227272499999998,
          "durationTicks": 480,
          "midi": 64,
          "name": "E4",
          "ticks": 126240,
          "time": 59.772667500000004,
          "velocity": 0.7007874015748031
        },
        {
          "duration": 0.227272499999998,
          "durationTicks": 480,
          "midi": 63,
          "name": "D#4",
          "ticks": 127200,
          "time": 60.22721250000001,
          "velocity": 0.7007874015748031
        },
        {
          "duration": 0.227272499999998,
          "durationTicks": 480,
          "midi": 59,
          "name": "B3",
          "ticks": 127200,
          "time": 60.22721250000001,
          "velocity": 0.7007874015748031
        },
        {
          "duration": 0.227272499999998,
          "durationTicks": 480,
          "midi": 56,
          "name": "G#3",
          "ticks": 127200,
          "time": 60.22721250000001,
          "velocity": 0.7007874015748031
        },
        {
          "duration": 0.227272499999998,
          "durationTicks": 480,
          "midi": 63,
          "name": "D#4",
          "ticks": 128160,
          "time": 60.6817575,
          "velocity": 0.7007874015748031
        },
        {
          "duration": 0.227272499999998,
          "durationTicks": 480,
          "midi": 59,
          "name": "B3",
          "ticks": 128160,
          "time": 60.6817575,
          "velocity": 0.7007874015748031
        },
        {
          "duration": 0.227272499999998,
          "durationTicks": 480,
          "midi": 56,
          "name": "G#3",
          "ticks": 128160,
          "time": 60.6817575,
          "velocity": 0.7007874015748031
        },
        {
          "duration": 0.227272499999998,
          "durationTicks": 480,
          "midi": 63,
          "name": "D#4",
          "ticks": 129120,
          "time": 61.136302500000006,
          "velocity": 0.7007874015748031
        },
        {
          "duration": 0.227272499999998,
          "durationTicks": 480,
          "midi": 59,
          "name": "B3",
          "ticks": 129120,
          "time": 61.136302500000006,
          "velocity": 0.7007874015748031
        },
        {
          "duration": 0.227272499999998,
          "durationTicks": 480,
          "midi": 56,
          "name": "G#3",
          "ticks": 129120,
          "time": 61.136302500000006,
          "velocity": 0.7007874015748031
        },
        {
          "duration": 0.2272725000000051,
          "durationTicks": 480,
          "midi": 63,
          "name": "D#4",
          "ticks": 130080,
          "time": 61.5908475,
          "velocity": 0.7007874015748031
        },
        {
          "duration": 0.2272725000000051,
          "durationTicks": 480,
          "midi": 59,
          "name": "B3",
          "ticks": 130080,
          "time": 61.5908475,
          "velocity": 0.7007874015748031
        },
        {
          "duration": 0.2272725000000051,
          "durationTicks": 480,
          "midi": 56,
          "name": "G#3",
          "ticks": 130080,
          "time": 61.5908475,
          "velocity": 0.7007874015748031
        },
        {
          "duration": 0.227272499999998,
          "durationTicks": 480,
          "midi": 63,
          "name": "D#4",
          "ticks": 131040,
          "time": 62.045392500000005,
          "velocity": 0.7007874015748031
        },
        {
          "duration": 0.227272499999998,
          "durationTicks": 480,
          "midi": 59,
          "name": "B3",
          "ticks": 131040,
          "time": 62.045392500000005,
          "velocity": 0.7007874015748031
        },
        {
          "duration": 0.227272499999998,
          "durationTicks": 480,
          "midi": 54,
          "name": "F#3",
          "ticks": 131040,
          "time": 62.045392500000005,
          "velocity": 0.7007874015748031
        },
        {
          "duration": 0.2272725000000051,
          "durationTicks": 480,
          "midi": 63,
          "name": "D#4",
          "ticks": 132000,
          "time": 62.4999375,
          "velocity": 0.7007874015748031
        },
        {
          "duration": 0.2272725000000051,
          "durationTicks": 480,
          "midi": 59,
          "name": "B3",
          "ticks": 132000,
          "time": 62.4999375,
          "velocity": 0.7007874015748031
        },
        {
          "duration": 0.2272725000000051,
          "durationTicks": 480,
          "midi": 54,
          "name": "F#3",
          "ticks": 132000,
          "time": 62.4999375,
          "velocity": 0.7007874015748031
        },
        {
          "duration": 0.227272499999998,
          "durationTicks": 480,
          "midi": 63,
          "name": "D#4",
          "ticks": 132960,
          "time": 62.954482500000005,
          "velocity": 0.7007874015748031
        },
        {
          "duration": 0.227272499999998,
          "durationTicks": 480,
          "midi": 59,
          "name": "B3",
          "ticks": 132960,
          "time": 62.954482500000005,
          "velocity": 0.7007874015748031
        },
        {
          "duration": 0.227272499999998,
          "durationTicks": 480,
          "midi": 54,
          "name": "F#3",
          "ticks": 132960,
          "time": 62.954482500000005,
          "velocity": 0.7007874015748031
        },
        {
          "duration": 0.227272499999998,
          "durationTicks": 480,
          "midi": 63,
          "name": "D#4",
          "ticks": 133920,
          "time": 63.40902750000001,
          "velocity": 0.7007874015748031
        },
        {
          "duration": 0.227272499999998,
          "durationTicks": 480,
          "midi": 59,
          "name": "B3",
          "ticks": 133920,
          "time": 63.40902750000001,
          "velocity": 0.7007874015748031
        },
        {
          "duration": 0.227272499999998,
          "durationTicks": 480,
          "midi": 54,
          "name": "F#3",
          "ticks": 133920,
          "time": 63.40902750000001,
          "velocity": 0.7007874015748031
        },
        {
          "duration": 0.227272499999998,
          "durationTicks": 480,
          "midi": 66,
          "name": "F#4",
          "ticks": 134880,
          "time": 63.863572500000004,
          "velocity": 0.7007874015748031
        },
        {
          "duration": 0.227272499999998,
          "durationTicks": 480,
          "midi": 58,
          "name": "A#3",
          "ticks": 134880,
          "time": 63.863572500000004,
          "velocity": 0.7007874015748031
        },
        {
          "duration": 0.227272499999998,
          "durationTicks": 480,
          "midi": 61,
          "name": "C#4",
          "ticks": 134880,
          "time": 63.863572500000004,
          "velocity": 0.7007874015748031
        },
        {
          "duration": 0.227272499999998,
          "durationTicks": 480,
          "midi": 66,
          "name": "F#4",
          "ticks": 135840,
          "time": 64.3181175,
          "velocity": 0.7007874015748031
        },
        {
          "duration": 0.227272499999998,
          "durationTicks": 480,
          "midi": 61,
          "name": "C#4",
          "ticks": 135840,
          "time": 64.3181175,
          "velocity": 0.7007874015748031
        },
        {
          "duration": 0.227272499999998,
          "durationTicks": 480,
          "midi": 58,
          "name": "A#3",
          "ticks": 135840,
          "time": 64.3181175,
          "velocity": 0.7007874015748031
        },
        {
          "duration": 0.227272499999998,
          "durationTicks": 480,
          "midi": 66,
          "name": "F#4",
          "ticks": 136800,
          "time": 64.77266250000001,
          "velocity": 0.7007874015748031
        },
        {
          "duration": 0.227272499999998,
          "durationTicks": 480,
          "midi": 61,
          "name": "C#4",
          "ticks": 136800,
          "time": 64.77266250000001,
          "velocity": 0.7007874015748031
        },
        {
          "duration": 0.227272499999998,
          "durationTicks": 480,
          "midi": 58,
          "name": "A#3",
          "ticks": 136800,
          "time": 64.77266250000001,
          "velocity": 0.7007874015748031
        },
        {
          "duration": 0.227272499999998,
          "durationTicks": 480,
          "midi": 66,
          "name": "F#4",
          "ticks": 137760,
          "time": 65.2272075,
          "velocity": 0.7007874015748031
        },
        {
          "duration": 0.227272499999998,
          "durationTicks": 480,
          "midi": 61,
          "name": "C#4",
          "ticks": 137760,
          "time": 65.2272075,
          "velocity": 0.7007874015748031
        },
        {
          "duration": 0.227272499999998,
          "durationTicks": 480,
          "midi": 58,
          "name": "A#3",
          "ticks": 137760,
          "time": 65.2272075,
          "velocity": 0.7007874015748031
        },
        {
          "duration": 0.227272499999998,
          "durationTicks": 480,
          "midi": 59,
          "name": "B3",
          "ticks": 138720,
          "time": 65.6817525,
          "velocity": 0.7007874015748031
        },
        {
          "duration": 0.227272499999998,
          "durationTicks": 480,
          "midi": 56,
          "name": "G#3",
          "ticks": 138720,
          "time": 65.6817525,
          "velocity": 0.7007874015748031
        },
        {
          "duration": 0.227272499999998,
          "durationTicks": 480,
          "midi": 64,
          "name": "E4",
          "ticks": 138720,
          "time": 65.6817525,
          "velocity": 0.7007874015748031
        },
        {
          "duration": 0.227272499999998,
          "durationTicks": 480,
          "midi": 66,
          "name": "F#4",
          "ticks": 138720,
          "time": 65.6817525,
          "velocity": 0.7007874015748031
        },
        {
          "duration": 0.2272725000000122,
          "durationTicks": 480,
          "midi": 59,
          "name": "B3",
          "ticks": 139680,
          "time": 66.1362975,
          "velocity": 0.7007874015748031
        },
        {
          "duration": 0.2272725000000122,
          "durationTicks": 480,
          "midi": 56,
          "name": "G#3",
          "ticks": 139680,
          "time": 66.1362975,
          "velocity": 0.7007874015748031
        },
        {
          "duration": 0.2272725000000122,
          "durationTicks": 480,
          "midi": 64,
          "name": "E4",
          "ticks": 139680,
          "time": 66.1362975,
          "velocity": 0.7007874015748031
        },
        {
          "duration": 0.2272725000000122,
          "durationTicks": 480,
          "midi": 66,
          "name": "F#4",
          "ticks": 139680,
          "time": 66.1362975,
          "velocity": 0.7007874015748031
        },
        {
          "duration": 0.227272499999998,
          "durationTicks": 480,
          "midi": 59,
          "name": "B3",
          "ticks": 140640,
          "time": 66.59084250000001,
          "velocity": 0.7007874015748031
        },
        {
          "duration": 0.227272499999998,
          "durationTicks": 480,
          "midi": 56,
          "name": "G#3",
          "ticks": 140640,
          "time": 66.59084250000001,
          "velocity": 0.7007874015748031
        },
        {
          "duration": 0.227272499999998,
          "durationTicks": 480,
          "midi": 64,
          "name": "E4",
          "ticks": 140640,
          "time": 66.59084250000001,
          "velocity": 0.7007874015748031
        },
        {
          "duration": 0.227272499999998,
          "durationTicks": 480,
          "midi": 59,
          "name": "B3",
          "ticks": 141600,
          "time": 67.0453875,
          "velocity": 0.7007874015748031
        },
        {
          "duration": 0.227272499999998,
          "durationTicks": 480,
          "midi": 56,
          "name": "G#3",
          "ticks": 141600,
          "time": 67.0453875,
          "velocity": 0.7007874015748031
        },
        {
          "duration": 0.227272499999998,
          "durationTicks": 480,
          "midi": 64,
          "name": "E4",
          "ticks": 141600,
          "time": 67.0453875,
          "velocity": 0.7007874015748031
        },
        {
          "duration": 0.227272499999998,
          "durationTicks": 480,
          "midi": 63,
          "name": "D#4",
          "ticks": 142080,
          "time": 67.27266,
          "velocity": 0.7007874015748031
        },
        {
          "duration": 0.227272499999998,
          "durationTicks": 480,
          "midi": 59,
          "name": "B3",
          "ticks": 142080,
          "time": 67.27266,
          "velocity": 0.7007874015748031
        },
        {
          "duration": 0.227272499999998,
          "durationTicks": 480,
          "midi": 56,
          "name": "G#3",
          "ticks": 142080,
          "time": 67.27266,
          "velocity": 0.7007874015748031
        },
        {
          "duration": 0.227272499999998,
          "durationTicks": 480,
          "midi": 63,
          "name": "D#4",
          "ticks": 142560,
          "time": 67.4999325,
          "velocity": 0.7007874015748031
        },
        {
          "duration": 0.227272499999998,
          "durationTicks": 480,
          "midi": 59,
          "name": "B3",
          "ticks": 142560,
          "time": 67.4999325,
          "velocity": 0.7007874015748031
        },
        {
          "duration": 0.227272499999998,
          "durationTicks": 480,
          "midi": 56,
          "name": "G#3",
          "ticks": 142560,
          "time": 67.4999325,
          "velocity": 0.7007874015748031
        },
        {
          "duration": 0.227272499999998,
          "durationTicks": 480,
          "midi": 63,
          "name": "D#4",
          "ticks": 143520,
          "time": 67.95447750000001,
          "velocity": 0.7007874015748031
        },
        {
          "duration": 0.227272499999998,
          "durationTicks": 480,
          "midi": 59,
          "name": "B3",
          "ticks": 143520,
          "time": 67.95447750000001,
          "velocity": 0.7007874015748031
        },
        {
          "duration": 0.227272499999998,
          "durationTicks": 480,
          "midi": 56,
          "name": "G#3",
          "ticks": 143520,
          "time": 67.95447750000001,
          "velocity": 0.7007874015748031
        },
        {
          "duration": 0.227272499999998,
          "durationTicks": 480,
          "midi": 63,
          "name": "D#4",
          "ticks": 144480,
          "time": 68.4090225,
          "velocity": 0.7007874015748031
        },
        {
          "duration": 0.227272499999998,
          "durationTicks": 480,
          "midi": 59,
          "name": "B3",
          "ticks": 144480,
          "time": 68.4090225,
          "velocity": 0.7007874015748031
        },
        {
          "duration": 0.227272499999998,
          "durationTicks": 480,
          "midi": 56,
          "name": "G#3",
          "ticks": 144480,
          "time": 68.4090225,
          "velocity": 0.7007874015748031
        },
        {
          "duration": 0.227272499999998,
          "durationTicks": 480,
          "midi": 63,
          "name": "D#4",
          "ticks": 145920,
          "time": 69.09084,
          "velocity": 0.7007874015748031
        },
        {
          "duration": 0.227272499999998,
          "durationTicks": 480,
          "midi": 59,
          "name": "B3",
          "ticks": 145920,
          "time": 69.09084,
          "velocity": 0.7007874015748031
        },
        {
          "duration": 0.227272499999998,
          "durationTicks": 480,
          "midi": 54,
          "name": "F#3",
          "ticks": 145920,
          "time": 69.09084,
          "velocity": 0.7007874015748031
        },
        {
          "duration": 0.2272725000000122,
          "durationTicks": 480,
          "midi": 63,
          "name": "D#4",
          "ticks": 146400,
          "time": 69.3181125,
          "velocity": 0.7007874015748031
        },
        {
          "duration": 0.2272725000000122,
          "durationTicks": 480,
          "midi": 59,
          "name": "B3",
          "ticks": 146400,
          "time": 69.3181125,
          "velocity": 0.7007874015748031
        },
        {
          "duration": 0.2272725000000122,
          "durationTicks": 480,
          "midi": 54,
          "name": "F#3",
          "ticks": 146400,
          "time": 69.3181125,
          "velocity": 0.7007874015748031
        },
        {
          "duration": 0.227272499999998,
          "durationTicks": 480,
          "midi": 63,
          "name": "D#4",
          "ticks": 147360,
          "time": 69.77265750000001,
          "velocity": 0.7007874015748031
        },
        {
          "duration": 0.227272499999998,
          "durationTicks": 480,
          "midi": 59,
          "name": "B3",
          "ticks": 147360,
          "time": 69.77265750000001,
          "velocity": 0.7007874015748031
        },
        {
          "duration": 0.227272499999998,
          "durationTicks": 480,
          "midi": 54,
          "name": "F#3",
          "ticks": 147360,
          "time": 69.77265750000001,
          "velocity": 0.7007874015748031
        },
        {
          "duration": 0.227272499999998,
          "durationTicks": 480,
          "midi": 63,
          "name": "D#4",
          "ticks": 148320,
          "time": 70.2272025,
          "velocity": 0.7007874015748031
        },
        {
          "duration": 0.227272499999998,
          "durationTicks": 480,
          "midi": 59,
          "name": "B3",
          "ticks": 148320,
          "time": 70.2272025,
          "velocity": 0.7007874015748031
        },
        {
          "duration": 0.227272499999998,
          "durationTicks": 480,
          "midi": 54,
          "name": "F#3",
          "ticks": 148320,
          "time": 70.2272025,
          "velocity": 0.7007874015748031
        },
        {
          "duration": 0.2272725000000122,
          "durationTicks": 480,
          "midi": 66,
          "name": "F#4",
          "ticks": 149760,
          "time": 70.90902,
          "velocity": 0.7007874015748031
        },
        {
          "duration": 0.2272725000000122,
          "durationTicks": 480,
          "midi": 58,
          "name": "A#3",
          "ticks": 149760,
          "time": 70.90902,
          "velocity": 0.7007874015748031
        },
        {
          "duration": 0.2272725000000122,
          "durationTicks": 480,
          "midi": 61,
          "name": "C#4",
          "ticks": 149760,
          "time": 70.90902,
          "velocity": 0.7007874015748031
        },
        {
          "duration": 0.227272499999998,
          "durationTicks": 480,
          "midi": 66,
          "name": "F#4",
          "ticks": 150240,
          "time": 71.13629250000001,
          "velocity": 0.7007874015748031
        },
        {
          "duration": 0.227272499999998,
          "durationTicks": 480,
          "midi": 61,
          "name": "C#4",
          "ticks": 150240,
          "time": 71.13629250000001,
          "velocity": 0.7007874015748031
        },
        {
          "duration": 0.227272499999998,
          "durationTicks": 480,
          "midi": 58,
          "name": "A#3",
          "ticks": 150240,
          "time": 71.13629250000001,
          "velocity": 0.7007874015748031
        },
        {
          "duration": 0.227272499999998,
          "durationTicks": 480,
          "midi": 66,
          "name": "F#4",
          "ticks": 151200,
          "time": 71.5908375,
          "velocity": 0.7007874015748031
        },
        {
          "duration": 0.227272499999998,
          "durationTicks": 480,
          "midi": 61,
          "name": "C#4",
          "ticks": 151200,
          "time": 71.5908375,
          "velocity": 0.7007874015748031
        },
        {
          "duration": 0.227272499999998,
          "durationTicks": 480,
          "midi": 58,
          "name": "A#3",
          "ticks": 151200,
          "time": 71.5908375,
          "velocity": 0.7007874015748031
        },
        {
          "duration": 0.227272499999998,
          "durationTicks": 480,
          "midi": 66,
          "name": "F#4",
          "ticks": 152160,
          "time": 72.0453825,
          "velocity": 0.7007874015748031
        },
        {
          "duration": 0.227272499999998,
          "durationTicks": 480,
          "midi": 61,
          "name": "C#4",
          "ticks": 152160,
          "time": 72.0453825,
          "velocity": 0.7007874015748031
        },
        {
          "duration": 0.227272499999998,
          "durationTicks": 480,
          "midi": 58,
          "name": "A#3",
          "ticks": 152160,
          "time": 72.0453825,
          "velocity": 0.7007874015748031
        },
        {
          "duration": 0.227272499999998,
          "durationTicks": 480,
          "midi": 59,
          "name": "B3",
          "ticks": 153600,
          "time": 72.72720000000001,
          "velocity": 0.7007874015748031
        },
        {
          "duration": 0.227272499999998,
          "durationTicks": 480,
          "midi": 56,
          "name": "G#3",
          "ticks": 153600,
          "time": 72.72720000000001,
          "velocity": 0.7007874015748031
        },
        {
          "duration": 0.227272499999998,
          "durationTicks": 480,
          "midi": 64,
          "name": "E4",
          "ticks": 153600,
          "time": 72.72720000000001,
          "velocity": 0.7007874015748031
        },
        {
          "duration": 0.227272499999998,
          "durationTicks": 480,
          "midi": 59,
          "name": "B3",
          "ticks": 154080,
          "time": 72.95447250000001,
          "velocity": 0.7007874015748031
        },
        {
          "duration": 0.227272499999998,
          "durationTicks": 480,
          "midi": 56,
          "name": "G#3",
          "ticks": 154080,
          "time": 72.95447250000001,
          "velocity": 0.7007874015748031
        },
        {
          "duration": 0.227272499999998,
          "durationTicks": 480,
          "midi": 64,
          "name": "E4",
          "ticks": 154080,
          "time": 72.95447250000001,
          "velocity": 0.7007874015748031
        },
        {
          "duration": 0.227272499999998,
          "durationTicks": 480,
          "midi": 59,
          "name": "B3",
          "ticks": 155040,
          "time": 73.4090175,
          "velocity": 0.7007874015748031
        },
        {
          "duration": 0.227272499999998,
          "durationTicks": 480,
          "midi": 56,
          "name": "G#3",
          "ticks": 155040,
          "time": 73.4090175,
          "velocity": 0.7007874015748031
        },
        {
          "duration": 0.227272499999998,
          "durationTicks": 480,
          "midi": 64,
          "name": "E4",
          "ticks": 155040,
          "time": 73.4090175,
          "velocity": 0.7007874015748031
        },
        {
          "duration": 0.227272499999998,
          "durationTicks": 480,
          "midi": 59,
          "name": "B3",
          "ticks": 156000,
          "time": 73.8635625,
          "velocity": 0.7007874015748031
        },
        {
          "duration": 0.227272499999998,
          "durationTicks": 480,
          "midi": 56,
          "name": "G#3",
          "ticks": 156000,
          "time": 73.8635625,
          "velocity": 0.7007874015748031
        },
        {
          "duration": 0.227272499999998,
          "durationTicks": 480,
          "midi": 64,
          "name": "E4",
          "ticks": 156000,
          "time": 73.8635625,
          "velocity": 0.7007874015748031
        },
        {
          "duration": 0.227272499999998,
          "durationTicks": 480,
          "midi": 63,
          "name": "D#4",
          "ticks": 157440,
          "time": 74.54538000000001,
          "velocity": 0.7007874015748031
        },
        {
          "duration": 0.227272499999998,
          "durationTicks": 480,
          "midi": 59,
          "name": "B3",
          "ticks": 157440,
          "time": 74.54538000000001,
          "velocity": 0.7007874015748031
        },
        {
          "duration": 0.227272499999998,
          "durationTicks": 480,
          "midi": 56,
          "name": "G#3",
          "ticks": 157440,
          "time": 74.54538000000001,
          "velocity": 0.7007874015748031
        },
        {
          "duration": 0.227272499999998,
          "durationTicks": 480,
          "midi": 63,
          "name": "D#4",
          "ticks": 157920,
          "time": 74.7726525,
          "velocity": 0.7007874015748031
        },
        {
          "duration": 0.227272499999998,
          "durationTicks": 480,
          "midi": 59,
          "name": "B3",
          "ticks": 157920,
          "time": 74.7726525,
          "velocity": 0.7007874015748031
        },
        {
          "duration": 0.227272499999998,
          "durationTicks": 480,
          "midi": 56,
          "name": "G#3",
          "ticks": 157920,
          "time": 74.7726525,
          "velocity": 0.7007874015748031
        },
        {
          "duration": 0.227272499999998,
          "durationTicks": 480,
          "midi": 63,
          "name": "D#4",
          "ticks": 158880,
          "time": 75.2271975,
          "velocity": 0.7007874015748031
        },
        {
          "duration": 0.227272499999998,
          "durationTicks": 480,
          "midi": 59,
          "name": "B3",
          "ticks": 158880,
          "time": 75.2271975,
          "velocity": 0.7007874015748031
        },
        {
          "duration": 0.227272499999998,
          "durationTicks": 480,
          "midi": 56,
          "name": "G#3",
          "ticks": 158880,
          "time": 75.2271975,
          "velocity": 0.7007874015748031
        },
        {
          "duration": 0.2272725000000122,
          "durationTicks": 480,
          "midi": 63,
          "name": "D#4",
          "ticks": 159840,
          "time": 75.6817425,
          "velocity": 0.7007874015748031
        },
        {
          "duration": 0.2272725000000122,
          "durationTicks": 480,
          "midi": 59,
          "name": "B3",
          "ticks": 159840,
          "time": 75.6817425,
          "velocity": 0.7007874015748031
        },
        {
          "duration": 0.2272725000000122,
          "durationTicks": 480,
          "midi": 56,
          "name": "G#3",
          "ticks": 159840,
          "time": 75.6817425,
          "velocity": 0.7007874015748031
        },
        {
          "duration": 0.227272499999998,
          "durationTicks": 480,
          "midi": 63,
          "name": "D#4",
          "ticks": 161280,
          "time": 76.36356,
          "velocity": 0.7007874015748031
        },
        {
          "duration": 0.227272499999998,
          "durationTicks": 480,
          "midi": 59,
          "name": "B3",
          "ticks": 161280,
          "time": 76.36356,
          "velocity": 0.7007874015748031
        },
        {
          "duration": 0.227272499999998,
          "durationTicks": 480,
          "midi": 54,
          "name": "F#3",
          "ticks": 161280,
          "time": 76.36356,
          "velocity": 0.7007874015748031
        },
        {
          "duration": 0.227272499999998,
          "durationTicks": 480,
          "midi": 63,
          "name": "D#4",
          "ticks": 161760,
          "time": 76.5908325,
          "velocity": 0.7007874015748031
        },
        {
          "duration": 0.227272499999998,
          "durationTicks": 480,
          "midi": 59,
          "name": "B3",
          "ticks": 161760,
          "time": 76.5908325,
          "velocity": 0.7007874015748031
        },
        {
          "duration": 0.227272499999998,
          "durationTicks": 480,
          "midi": 54,
          "name": "F#3",
          "ticks": 161760,
          "time": 76.5908325,
          "velocity": 0.7007874015748031
        },
        {
          "duration": 0.227272499999998,
          "durationTicks": 480,
          "midi": 63,
          "name": "D#4",
          "ticks": 162720,
          "time": 77.0453775,
          "velocity": 0.7007874015748031
        },
        {
          "duration": 0.227272499999998,
          "durationTicks": 480,
          "midi": 59,
          "name": "B3",
          "ticks": 162720,
          "time": 77.0453775,
          "velocity": 0.7007874015748031
        },
        {
          "duration": 0.227272499999998,
          "durationTicks": 480,
          "midi": 54,
          "name": "F#3",
          "ticks": 162720,
          "time": 77.0453775,
          "velocity": 0.7007874015748031
        },
        {
          "duration": 0.227272499999998,
          "durationTicks": 480,
          "midi": 63,
          "name": "D#4",
          "ticks": 163680,
          "time": 77.49992250000001,
          "velocity": 0.7007874015748031
        },
        {
          "duration": 0.227272499999998,
          "durationTicks": 480,
          "midi": 59,
          "name": "B3",
          "ticks": 163680,
          "time": 77.49992250000001,
          "velocity": 0.7007874015748031
        },
        {
          "duration": 0.227272499999998,
          "durationTicks": 480,
          "midi": 54,
          "name": "F#3",
          "ticks": 163680,
          "time": 77.49992250000001,
          "velocity": 0.7007874015748031
        },
        {
          "duration": 0.227272499999998,
          "durationTicks": 480,
          "midi": 66,
          "name": "F#4",
          "ticks": 165120,
          "time": 78.18174,
          "velocity": 0.7007874015748031
        },
        {
          "duration": 0.227272499999998,
          "durationTicks": 480,
          "midi": 58,
          "name": "A#3",
          "ticks": 165120,
          "time": 78.18174,
          "velocity": 0.7007874015748031
        },
        {
          "duration": 0.227272499999998,
          "durationTicks": 480,
          "midi": 61,
          "name": "C#4",
          "ticks": 165120,
          "time": 78.18174,
          "velocity": 0.7007874015748031
        },
        {
          "duration": 0.227272499999998,
          "durationTicks": 480,
          "midi": 66,
          "name": "F#4",
          "ticks": 165600,
          "time": 78.4090125,
          "velocity": 0.7007874015748031
        },
        {
          "duration": 0.227272499999998,
          "durationTicks": 480,
          "midi": 61,
          "name": "C#4",
          "ticks": 165600,
          "time": 78.4090125,
          "velocity": 0.7007874015748031
        },
        {
          "duration": 0.227272499999998,
          "durationTicks": 480,
          "midi": 58,
          "name": "A#3",
          "ticks": 165600,
          "time": 78.4090125,
          "velocity": 0.7007874015748031
        },
        {
          "duration": 0.2272725000000122,
          "durationTicks": 480,
          "midi": 66,
          "name": "F#4",
          "ticks": 166560,
          "time": 78.8635575,
          "velocity": 0.7007874015748031
        },
        {
          "duration": 0.2272725000000122,
          "durationTicks": 480,
          "midi": 61,
          "name": "C#4",
          "ticks": 166560,
          "time": 78.8635575,
          "velocity": 0.7007874015748031
        },
        {
          "duration": 0.2272725000000122,
          "durationTicks": 480,
          "midi": 58,
          "name": "A#3",
          "ticks": 166560,
          "time": 78.8635575,
          "velocity": 0.7007874015748031
        },
        {
          "duration": 0.227272499999998,
          "durationTicks": 480,
          "midi": 66,
          "name": "F#4",
          "ticks": 167520,
          "time": 79.31810250000001,
          "velocity": 0.7007874015748031
        },
        {
          "duration": 0.227272499999998,
          "durationTicks": 480,
          "midi": 61,
          "name": "C#4",
          "ticks": 167520,
          "time": 79.31810250000001,
          "velocity": 0.7007874015748031
        },
        {
          "duration": 0.227272499999998,
          "durationTicks": 480,
          "midi": 58,
          "name": "A#3",
          "ticks": 167520,
          "time": 79.31810250000001,
          "velocity": 0.7007874015748031
        },
        {
          "duration": 0.227272499999998,
          "durationTicks": 480,
          "midi": 64,
          "name": "E4",
          "ticks": 168960,
          "time": 79.99992,
          "velocity": 0.7007874015748031
        },
        {
          "duration": 0.227272499999998,
          "durationTicks": 480,
          "midi": 56,
          "name": "G#3",
          "ticks": 168960,
          "time": 79.99992,
          "velocity": 0.7007874015748031
        },
        {
          "duration": 0.227272499999998,
          "durationTicks": 480,
          "midi": 59,
          "name": "B3",
          "ticks": 168960,
          "time": 79.99992,
          "velocity": 0.7007874015748031
        },
        {
          "duration": 0.227272499999998,
          "durationTicks": 480,
          "midi": 64,
          "name": "E4",
          "ticks": 169440,
          "time": 80.2271925,
          "velocity": 0.7007874015748031
        },
        {
          "duration": 0.227272499999998,
          "durationTicks": 480,
          "midi": 56,
          "name": "G#3",
          "ticks": 169440,
          "time": 80.2271925,
          "velocity": 0.7007874015748031
        },
        {
          "duration": 0.227272499999998,
          "durationTicks": 480,
          "midi": 59,
          "name": "B3",
          "ticks": 169440,
          "time": 80.2271925,
          "velocity": 0.7007874015748031
        },
        {
          "duration": 0.227272499999998,
          "durationTicks": 480,
          "midi": 64,
          "name": "E4",
          "ticks": 170400,
          "time": 80.68173750000001,
          "velocity": 0.7007874015748031
        },
        {
          "duration": 0.227272499999998,
          "durationTicks": 480,
          "midi": 56,
          "name": "G#3",
          "ticks": 170400,
          "time": 80.68173750000001,
          "velocity": 0.7007874015748031
        },
        {
          "duration": 0.227272499999998,
          "durationTicks": 480,
          "midi": 59,
          "name": "B3",
          "ticks": 170400,
          "time": 80.68173750000001,
          "velocity": 0.7007874015748031
        },
        {
          "duration": 0.227272499999998,
          "durationTicks": 480,
          "midi": 64,
          "name": "E4",
          "ticks": 171360,
          "time": 81.13628250000001,
          "velocity": 0.7007874015748031
        },
        {
          "duration": 0.227272499999998,
          "durationTicks": 480,
          "midi": 56,
          "name": "G#3",
          "ticks": 171360,
          "time": 81.13628250000001,
          "velocity": 0.7007874015748031
        },
        {
          "duration": 0.227272499999998,
          "durationTicks": 480,
          "midi": 59,
          "name": "B3",
          "ticks": 171360,
          "time": 81.13628250000001,
          "velocity": 0.7007874015748031
        },
        {
          "duration": 0.227272499999998,
          "durationTicks": 480,
          "midi": 63,
          "name": "D#4",
          "ticks": 172800,
          "time": 81.8181,
          "velocity": 0.7007874015748031
        },
        {
          "duration": 0.227272499999998,
          "durationTicks": 480,
          "midi": 59,
          "name": "B3",
          "ticks": 172800,
          "time": 81.8181,
          "velocity": 0.7007874015748031
        },
        {
          "duration": 0.227272499999998,
          "durationTicks": 480,
          "midi": 56,
          "name": "G#3",
          "ticks": 172800,
          "time": 81.8181,
          "velocity": 0.7007874015748031
        },
        {
          "duration": 0.2272725000000122,
          "durationTicks": 480,
          "midi": 63,
          "name": "D#4",
          "ticks": 173280,
          "time": 82.0453725,
          "velocity": 0.7007874015748031
        },
        {
          "duration": 0.2272725000000122,
          "durationTicks": 480,
          "midi": 59,
          "name": "B3",
          "ticks": 173280,
          "time": 82.0453725,
          "velocity": 0.7007874015748031
        },
        {
          "duration": 0.2272725000000122,
          "durationTicks": 480,
          "midi": 56,
          "name": "G#3",
          "ticks": 173280,
          "time": 82.0453725,
          "velocity": 0.7007874015748031
        },
        {
          "duration": 0.227272499999998,
          "durationTicks": 480,
          "midi": 63,
          "name": "D#4",
          "ticks": 174240,
          "time": 82.49991750000001,
          "velocity": 0.7007874015748031
        },
        {
          "duration": 0.227272499999998,
          "durationTicks": 480,
          "midi": 59,
          "name": "B3",
          "ticks": 174240,
          "time": 82.49991750000001,
          "velocity": 0.7007874015748031
        },
        {
          "duration": 0.227272499999998,
          "durationTicks": 480,
          "midi": 56,
          "name": "G#3",
          "ticks": 174240,
          "time": 82.49991750000001,
          "velocity": 0.7007874015748031
        },
        {
          "duration": 0.227272499999998,
          "durationTicks": 480,
          "midi": 63,
          "name": "D#4",
          "ticks": 175200,
          "time": 82.9544625,
          "velocity": 0.7007874015748031
        },
        {
          "duration": 0.227272499999998,
          "durationTicks": 480,
          "midi": 59,
          "name": "B3",
          "ticks": 175200,
          "time": 82.9544625,
          "velocity": 0.7007874015748031
        },
        {
          "duration": 0.227272499999998,
          "durationTicks": 480,
          "midi": 56,
          "name": "G#3",
          "ticks": 175200,
          "time": 82.9544625,
          "velocity": 0.7007874015748031
        },
        {
          "duration": 0.2272725000000122,
          "durationTicks": 480,
          "midi": 63,
          "name": "D#4",
          "ticks": 176640,
          "time": 83.63628,
          "velocity": 0.7007874015748031
        },
        {
          "duration": 0.2272725000000122,
          "durationTicks": 480,
          "midi": 59,
          "name": "B3",
          "ticks": 176640,
          "time": 83.63628,
          "velocity": 0.7007874015748031
        },
        {
          "duration": 0.2272725000000122,
          "durationTicks": 480,
          "midi": 54,
          "name": "F#3",
          "ticks": 176640,
          "time": 83.63628,
          "velocity": 0.7007874015748031
        },
        {
          "duration": 0.227272499999998,
          "durationTicks": 480,
          "midi": 63,
          "name": "D#4",
          "ticks": 177120,
          "time": 83.86355250000001,
          "velocity": 0.7007874015748031
        },
        {
          "duration": 0.227272499999998,
          "durationTicks": 480,
          "midi": 59,
          "name": "B3",
          "ticks": 177120,
          "time": 83.86355250000001,
          "velocity": 0.7007874015748031
        },
        {
          "duration": 0.227272499999998,
          "durationTicks": 480,
          "midi": 54,
          "name": "F#3",
          "ticks": 177120,
          "time": 83.86355250000001,
          "velocity": 0.7007874015748031
        },
        {
          "duration": 0.227272499999998,
          "durationTicks": 480,
          "midi": 63,
          "name": "D#4",
          "ticks": 178080,
          "time": 84.31809750000001,
          "velocity": 0.7007874015748031
        },
        {
          "duration": 0.227272499999998,
          "durationTicks": 480,
          "midi": 59,
          "name": "B3",
          "ticks": 178080,
          "time": 84.31809750000001,
          "velocity": 0.7007874015748031
        },
        {
          "duration": 0.227272499999998,
          "durationTicks": 480,
          "midi": 54,
          "name": "F#3",
          "ticks": 178080,
          "time": 84.31809750000001,
          "velocity": 0.7007874015748031
        },
        {
          "duration": 0.227272499999998,
          "durationTicks": 480,
          "midi": 63,
          "name": "D#4",
          "ticks": 179040,
          "time": 84.7726425,
          "velocity": 0.7007874015748031
        },
        {
          "duration": 0.227272499999998,
          "durationTicks": 480,
          "midi": 59,
          "name": "B3",
          "ticks": 179040,
          "time": 84.7726425,
          "velocity": 0.7007874015748031
        },
        {
          "duration": 0.227272499999998,
          "durationTicks": 480,
          "midi": 54,
          "name": "F#3",
          "ticks": 179040,
          "time": 84.7726425,
          "velocity": 0.7007874015748031
        },
        {
          "duration": 0.227272499999998,
          "durationTicks": 480,
          "midi": 66,
          "name": "F#4",
          "ticks": 180480,
          "time": 85.45446000000001,
          "velocity": 0.7007874015748031
        },
        {
          "duration": 0.227272499999998,
          "durationTicks": 480,
          "midi": 58,
          "name": "A#3",
          "ticks": 180480,
          "time": 85.45446000000001,
          "velocity": 0.7007874015748031
        },
        {
          "duration": 0.227272499999998,
          "durationTicks": 480,
          "midi": 61,
          "name": "C#4",
          "ticks": 180480,
          "time": 85.45446000000001,
          "velocity": 0.7007874015748031
        },
        {
          "duration": 0.227272499999998,
          "durationTicks": 480,
          "midi": 66,
          "name": "F#4",
          "ticks": 180960,
          "time": 85.68173250000001,
          "velocity": 0.7007874015748031
        },
        {
          "duration": 0.227272499999998,
          "durationTicks": 480,
          "midi": 61,
          "name": "C#4",
          "ticks": 180960,
          "time": 85.68173250000001,
          "velocity": 0.7007874015748031
        },
        {
          "duration": 0.227272499999998,
          "durationTicks": 480,
          "midi": 58,
          "name": "A#3",
          "ticks": 180960,
          "time": 85.68173250000001,
          "velocity": 0.7007874015748031
        },
        {
          "duration": 0.227272499999998,
          "durationTicks": 480,
          "midi": 66,
          "name": "F#4",
          "ticks": 181920,
          "time": 86.1362775,
          "velocity": 0.7007874015748031
        },
        {
          "duration": 0.227272499999998,
          "durationTicks": 480,
          "midi": 61,
          "name": "C#4",
          "ticks": 181920,
          "time": 86.1362775,
          "velocity": 0.7007874015748031
        },
        {
          "duration": 0.227272499999998,
          "durationTicks": 480,
          "midi": 58,
          "name": "A#3",
          "ticks": 181920,
          "time": 86.1362775,
          "velocity": 0.7007874015748031
        },
        {
          "duration": 0.227272499999998,
          "durationTicks": 480,
          "midi": 66,
          "name": "F#4",
          "ticks": 182880,
          "time": 86.5908225,
          "velocity": 0.7007874015748031
        },
        {
          "duration": 0.227272499999998,
          "durationTicks": 480,
          "midi": 61,
          "name": "C#4",
          "ticks": 182880,
          "time": 86.5908225,
          "velocity": 0.7007874015748031
        },
        {
          "duration": 0.227272499999998,
          "durationTicks": 480,
          "midi": 58,
          "name": "A#3",
          "ticks": 182880,
          "time": 86.5908225,
          "velocity": 0.7007874015748031
        },
        {
          "duration": 0.227272499999998,
          "durationTicks": 480,
          "midi": 59,
          "name": "B3",
          "ticks": 184320,
          "time": 87.27264000000001,
          "velocity": 0.7007874015748031
        },
        {
          "duration": 0.227272499999998,
          "durationTicks": 480,
          "midi": 56,
          "name": "G#3",
          "ticks": 184320,
          "time": 87.27264000000001,
          "velocity": 0.7007874015748031
        },
        {
          "duration": 0.227272499999998,
          "durationTicks": 480,
          "midi": 64,
          "name": "E4",
          "ticks": 184320,
          "time": 87.27264000000001,
          "velocity": 0.7007874015748031
        },
        {
          "duration": 0.227272499999998,
          "durationTicks": 480,
          "midi": 59,
          "name": "B3",
          "ticks": 184800,
          "time": 87.49991250000001,
          "velocity": 0.7007874015748031
        },
        {
          "duration": 0.227272499999998,
          "durationTicks": 480,
          "midi": 56,
          "name": "G#3",
          "ticks": 184800,
          "time": 87.49991250000001,
          "velocity": 0.7007874015748031
        },
        {
          "duration": 0.227272499999998,
          "durationTicks": 480,
          "midi": 64,
          "name": "E4",
          "ticks": 184800,
          "time": 87.49991250000001,
          "velocity": 0.7007874015748031
        },
        {
          "duration": 0.227272499999998,
          "durationTicks": 480,
          "midi": 59,
          "name": "B3",
          "ticks": 185760,
          "time": 87.9544575,
          "velocity": 0.7007874015748031
        },
        {
          "duration": 0.227272499999998,
          "durationTicks": 480,
          "midi": 56,
          "name": "G#3",
          "ticks": 185760,
          "time": 87.9544575,
          "velocity": 0.7007874015748031
        },
        {
          "duration": 0.227272499999998,
          "durationTicks": 480,
          "midi": 64,
          "name": "E4",
          "ticks": 185760,
          "time": 87.9544575,
          "velocity": 0.7007874015748031
        },
        {
          "duration": 0.2272725000000122,
          "durationTicks": 480,
          "midi": 59,
          "name": "B3",
          "ticks": 186720,
          "time": 88.4090025,
          "velocity": 0.7007874015748031
        },
        {
          "duration": 0.2272725000000122,
          "durationTicks": 480,
          "midi": 56,
          "name": "G#3",
          "ticks": 186720,
          "time": 88.4090025,
          "velocity": 0.7007874015748031
        },
        {
          "duration": 0.2272725000000122,
          "durationTicks": 480,
          "midi": 64,
          "name": "E4",
          "ticks": 186720,
          "time": 88.4090025,
          "velocity": 0.7007874015748031
        },
        {
          "duration": 0.227272499999998,
          "durationTicks": 480,
          "midi": 63,
          "name": "D#4",
          "ticks": 188160,
          "time": 89.09082000000001,
          "velocity": 0.7007874015748031
        },
        {
          "duration": 0.227272499999998,
          "durationTicks": 480,
          "midi": 59,
          "name": "B3",
          "ticks": 188160,
          "time": 89.09082000000001,
          "velocity": 0.7007874015748031
        },
        {
          "duration": 0.227272499999998,
          "durationTicks": 480,
          "midi": 56,
          "name": "G#3",
          "ticks": 188160,
          "time": 89.09082000000001,
          "velocity": 0.7007874015748031
        },
        {
          "duration": 0.227272499999998,
          "durationTicks": 480,
          "midi": 63,
          "name": "D#4",
          "ticks": 188640,
          "time": 89.3180925,
          "velocity": 0.7007874015748031
        },
        {
          "duration": 0.227272499999998,
          "durationTicks": 480,
          "midi": 59,
          "name": "B3",
          "ticks": 188640,
          "time": 89.3180925,
          "velocity": 0.7007874015748031
        },
        {
          "duration": 0.227272499999998,
          "durationTicks": 480,
          "midi": 56,
          "name": "G#3",
          "ticks": 188640,
          "time": 89.3180925,
          "velocity": 0.7007874015748031
        },
        {
          "duration": 0.227272499999998,
          "durationTicks": 480,
          "midi": 63,
          "name": "D#4",
          "ticks": 189600,
          "time": 89.7726375,
          "velocity": 0.7007874015748031
        },
        {
          "duration": 0.227272499999998,
          "durationTicks": 480,
          "midi": 59,
          "name": "B3",
          "ticks": 189600,
          "time": 89.7726375,
          "velocity": 0.7007874015748031
        },
        {
          "duration": 0.227272499999998,
          "durationTicks": 480,
          "midi": 56,
          "name": "G#3",
          "ticks": 189600,
          "time": 89.7726375,
          "velocity": 0.7007874015748031
        },
        {
          "duration": 0.227272499999998,
          "durationTicks": 480,
          "midi": 63,
          "name": "D#4",
          "ticks": 190560,
          "time": 90.22718250000001,
          "velocity": 0.7007874015748031
        },
        {
          "duration": 0.227272499999998,
          "durationTicks": 480,
          "midi": 59,
          "name": "B3",
          "ticks": 190560,
          "time": 90.22718250000001,
          "velocity": 0.7007874015748031
        },
        {
          "duration": 0.227272499999998,
          "durationTicks": 480,
          "midi": 56,
          "name": "G#3",
          "ticks": 190560,
          "time": 90.22718250000001,
          "velocity": 0.7007874015748031
        },
        {
          "duration": 0.227272499999998,
          "durationTicks": 480,
          "midi": 63,
          "name": "D#4",
          "ticks": 192000,
          "time": 90.909,
          "velocity": 0.7007874015748031
        },
        {
          "duration": 0.227272499999998,
          "durationTicks": 480,
          "midi": 59,
          "name": "B3",
          "ticks": 192000,
          "time": 90.909,
          "velocity": 0.7007874015748031
        },
        {
          "duration": 0.227272499999998,
          "durationTicks": 480,
          "midi": 54,
          "name": "F#3",
          "ticks": 192000,
          "time": 90.909,
          "velocity": 0.7007874015748031
        },
        {
          "duration": 0.227272499999998,
          "durationTicks": 480,
          "midi": 63,
          "name": "D#4",
          "ticks": 192480,
          "time": 91.1362725,
          "velocity": 0.7007874015748031
        },
        {
          "duration": 0.227272499999998,
          "durationTicks": 480,
          "midi": 59,
          "name": "B3",
          "ticks": 192480,
          "time": 91.1362725,
          "velocity": 0.7007874015748031
        },
        {
          "duration": 0.227272499999998,
          "durationTicks": 480,
          "midi": 54,
          "name": "F#3",
          "ticks": 192480,
          "time": 91.1362725,
          "velocity": 0.7007874015748031
        },
        {
          "duration": 0.2272725000000122,
          "durationTicks": 480,
          "midi": 63,
          "name": "D#4",
          "ticks": 193440,
          "time": 91.5908175,
          "velocity": 0.7007874015748031
        },
        {
          "duration": 0.2272725000000122,
          "durationTicks": 480,
          "midi": 59,
          "name": "B3",
          "ticks": 193440,
          "time": 91.5908175,
          "velocity": 0.7007874015748031
        },
        {
          "duration": 0.2272725000000122,
          "durationTicks": 480,
          "midi": 54,
          "name": "F#3",
          "ticks": 193440,
          "time": 91.5908175,
          "velocity": 0.7007874015748031
        },
        {
          "duration": 0.227272499999998,
          "durationTicks": 480,
          "midi": 63,
          "name": "D#4",
          "ticks": 194400,
          "time": 92.04536250000001,
          "velocity": 0.7007874015748031
        },
        {
          "duration": 0.227272499999998,
          "durationTicks": 480,
          "midi": 59,
          "name": "B3",
          "ticks": 194400,
          "time": 92.04536250000001,
          "velocity": 0.7007874015748031
        },
        {
          "duration": 0.227272499999998,
          "durationTicks": 480,
          "midi": 54,
          "name": "F#3",
          "ticks": 194400,
          "time": 92.04536250000001,
          "velocity": 0.7007874015748031
        },
        {
          "duration": 0.227272499999998,
          "durationTicks": 480,
          "midi": 66,
          "name": "F#4",
          "ticks": 195840,
          "time": 92.72718,
          "velocity": 0.7007874015748031
        },
        {
          "duration": 0.227272499999998,
          "durationTicks": 480,
          "midi": 58,
          "name": "A#3",
          "ticks": 195840,
          "time": 92.72718,
          "velocity": 0.7007874015748031
        },
        {
          "duration": 0.227272499999998,
          "durationTicks": 480,
          "midi": 61,
          "name": "C#4",
          "ticks": 195840,
          "time": 92.72718,
          "velocity": 0.7007874015748031
        },
        {
          "duration": 0.227272499999998,
          "durationTicks": 480,
          "midi": 66,
          "name": "F#4",
          "ticks": 196320,
          "time": 92.9544525,
          "velocity": 0.7007874015748031
        },
        {
          "duration": 0.227272499999998,
          "durationTicks": 480,
          "midi": 61,
          "name": "C#4",
          "ticks": 196320,
          "time": 92.9544525,
          "velocity": 0.7007874015748031
        },
        {
          "duration": 0.227272499999998,
          "durationTicks": 480,
          "midi": 58,
          "name": "A#3",
          "ticks": 196320,
          "time": 92.9544525,
          "velocity": 0.7007874015748031
        },
        {
          "duration": 0.227272499999998,
          "durationTicks": 480,
          "midi": 66,
          "name": "F#4",
          "ticks": 197280,
          "time": 93.40899750000001,
          "velocity": 0.7007874015748031
        },
        {
          "duration": 0.227272499999998,
          "durationTicks": 480,
          "midi": 61,
          "name": "C#4",
          "ticks": 197280,
          "time": 93.40899750000001,
          "velocity": 0.7007874015748031
        },
        {
          "duration": 0.227272499999998,
          "durationTicks": 480,
          "midi": 58,
          "name": "A#3",
          "ticks": 197280,
          "time": 93.40899750000001,
          "velocity": 0.7007874015748031
        },
        {
          "duration": 0.227272499999998,
          "durationTicks": 480,
          "midi": 66,
          "name": "F#4",
          "ticks": 198240,
          "time": 93.86354250000001,
          "velocity": 0.7007874015748031
        },
        {
          "duration": 0.227272499999998,
          "durationTicks": 480,
          "midi": 61,
          "name": "C#4",
          "ticks": 198240,
          "time": 93.86354250000001,
          "velocity": 0.7007874015748031
        },
        {
          "duration": 0.227272499999998,
          "durationTicks": 480,
          "midi": 58,
          "name": "A#3",
          "ticks": 198240,
          "time": 93.86354250000001,
          "velocity": 0.7007874015748031
        },
        {
          "duration": 0.227272499999998,
          "durationTicks": 480,
          "midi": 64,
          "name": "E4",
          "ticks": 199680,
          "time": 94.54536,
          "velocity": 0.7007874015748031
        },
        {
          "duration": 0.227272499999998,
          "durationTicks": 480,
          "midi": 56,
          "name": "G#3",
          "ticks": 199680,
          "time": 94.54536,
          "velocity": 0.7007874015748031
        },
        {
          "duration": 0.227272499999998,
          "durationTicks": 480,
          "midi": 59,
          "name": "B3",
          "ticks": 199680,
          "time": 94.54536,
          "velocity": 0.7007874015748031
        },
        {
          "duration": 0.2272725000000122,
          "durationTicks": 480,
          "midi": 64,
          "name": "E4",
          "ticks": 200160,
          "time": 94.7726325,
          "velocity": 0.7007874015748031
        },
        {
          "duration": 0.2272725000000122,
          "durationTicks": 480,
          "midi": 56,
          "name": "G#3",
          "ticks": 200160,
          "time": 94.7726325,
          "velocity": 0.7007874015748031
        },
        {
          "duration": 0.2272725000000122,
          "durationTicks": 480,
          "midi": 59,
          "name": "B3",
          "ticks": 200160,
          "time": 94.7726325,
          "velocity": 0.7007874015748031
        },
        {
          "duration": 0.227272499999998,
          "durationTicks": 480,
          "midi": 64,
          "name": "E4",
          "ticks": 201120,
          "time": 95.22717750000001,
          "velocity": 0.7007874015748031
        },
        {
          "duration": 0.227272499999998,
          "durationTicks": 480,
          "midi": 56,
          "name": "G#3",
          "ticks": 201120,
          "time": 95.22717750000001,
          "velocity": 0.7007874015748031
        },
        {
          "duration": 0.227272499999998,
          "durationTicks": 480,
          "midi": 59,
          "name": "B3",
          "ticks": 201120,
          "time": 95.22717750000001,
          "velocity": 0.7007874015748031
        },
        {
          "duration": 0.227272499999998,
          "durationTicks": 480,
          "midi": 64,
          "name": "E4",
          "ticks": 202080,
          "time": 95.6817225,
          "velocity": 0.7007874015748031
        },
        {
          "duration": 0.227272499999998,
          "durationTicks": 480,
          "midi": 56,
          "name": "G#3",
          "ticks": 202080,
          "time": 95.6817225,
          "velocity": 0.7007874015748031
        },
        {
          "duration": 0.227272499999998,
          "durationTicks": 480,
          "midi": 59,
          "name": "B3",
          "ticks": 202080,
          "time": 95.6817225,
          "velocity": 0.7007874015748031
        },
        {
          "duration": 0.227272499999998,
          "durationTicks": 480,
          "midi": 63,
          "name": "D#4",
          "ticks": 204000,
          "time": 96.59081250000001,
          "velocity": 0.7007874015748031
        },
        {
          "duration": 0.227272499999998,
          "durationTicks": 480,
          "midi": 59,
          "name": "B3",
          "ticks": 204000,
          "time": 96.59081250000001,
          "velocity": 0.7007874015748031
        },
        {
          "duration": 0.227272499999998,
          "durationTicks": 480,
          "midi": 56,
          "name": "G#3",
          "ticks": 204000,
          "time": 96.59081250000001,
          "velocity": 0.7007874015748031
        },
        {
          "duration": 0.227272499999998,
          "durationTicks": 480,
          "midi": 63,
          "name": "D#4",
          "ticks": 204960,
          "time": 97.04535750000001,
          "velocity": 0.7007874015748031
        },
        {
          "duration": 0.227272499999998,
          "durationTicks": 480,
          "midi": 59,
          "name": "B3",
          "ticks": 204960,
          "time": 97.04535750000001,
          "velocity": 0.7007874015748031
        },
        {
          "duration": 0.227272499999998,
          "durationTicks": 480,
          "midi": 56,
          "name": "G#3",
          "ticks": 204960,
          "time": 97.04535750000001,
          "velocity": 0.7007874015748031
        },
        {
          "duration": 0.227272499999998,
          "durationTicks": 480,
          "midi": 63,
          "name": "D#4",
          "ticks": 205920,
          "time": 97.4999025,
          "velocity": 0.7007874015748031
        },
        {
          "duration": 0.227272499999998,
          "durationTicks": 480,
          "midi": 59,
          "name": "B3",
          "ticks": 205920,
          "time": 97.4999025,
          "velocity": 0.7007874015748031
        },
        {
          "duration": 0.227272499999998,
          "durationTicks": 480,
          "midi": 56,
          "name": "G#3",
          "ticks": 205920,
          "time": 97.4999025,
          "velocity": 0.7007874015748031
        },
        {
          "duration": 0.2272725000000122,
          "durationTicks": 480,
          "midi": 63,
          "name": "D#4",
          "ticks": 206880,
          "time": 97.9544475,
          "velocity": 0.7007874015748031
        },
        {
          "duration": 0.2272725000000122,
          "durationTicks": 480,
          "midi": 59,
          "name": "B3",
          "ticks": 206880,
          "time": 97.9544475,
          "velocity": 0.7007874015748031
        },
        {
          "duration": 0.2272725000000122,
          "durationTicks": 480,
          "midi": 56,
          "name": "G#3",
          "ticks": 206880,
          "time": 97.9544475,
          "velocity": 0.7007874015748031
        },
        {
          "duration": 0.227272499999998,
          "durationTicks": 480,
          "midi": 63,
          "name": "D#4",
          "ticks": 207840,
          "time": 98.40899250000001,
          "velocity": 0.7007874015748031
        },
        {
          "duration": 0.227272499999998,
          "durationTicks": 480,
          "midi": 59,
          "name": "B3",
          "ticks": 207840,
          "time": 98.40899250000001,
          "velocity": 0.7007874015748031
        },
        {
          "duration": 0.227272499999998,
          "durationTicks": 480,
          "midi": 54,
          "name": "F#3",
          "ticks": 207840,
          "time": 98.40899250000001,
          "velocity": 0.7007874015748031
        },
        {
          "duration": 0.227272499999998,
          "durationTicks": 480,
          "midi": 63,
          "name": "D#4",
          "ticks": 208800,
          "time": 98.8635375,
          "velocity": 0.7007874015748031
        },
        {
          "duration": 0.227272499999998,
          "durationTicks": 480,
          "midi": 59,
          "name": "B3",
          "ticks": 208800,
          "time": 98.8635375,
          "velocity": 0.7007874015748031
        },
        {
          "duration": 0.227272499999998,
          "durationTicks": 480,
          "midi": 54,
          "name": "F#3",
          "ticks": 208800,
          "time": 98.8635375,
          "velocity": 0.7007874015748031
        },
        {
          "duration": 0.227272499999998,
          "durationTicks": 480,
          "midi": 63,
          "name": "D#4",
          "ticks": 209760,
          "time": 99.3180825,
          "velocity": 0.7007874015748031
        },
        {
          "duration": 0.227272499999998,
          "durationTicks": 480,
          "midi": 59,
          "name": "B3",
          "ticks": 209760,
          "time": 99.3180825,
          "velocity": 0.7007874015748031
        },
        {
          "duration": 0.227272499999998,
          "durationTicks": 480,
          "midi": 54,
          "name": "F#3",
          "ticks": 209760,
          "time": 99.3180825,
          "velocity": 0.7007874015748031
        },
        {
          "duration": 0.227272499999998,
          "durationTicks": 480,
          "midi": 63,
          "name": "D#4",
          "ticks": 210720,
          "time": 99.77262750000001,
          "velocity": 0.7007874015748031
        },
        {
          "duration": 0.227272499999998,
          "durationTicks": 480,
          "midi": 59,
          "name": "B3",
          "ticks": 210720,
          "time": 99.77262750000001,
          "velocity": 0.7007874015748031
        },
        {
          "duration": 0.227272499999998,
          "durationTicks": 480,
          "midi": 54,
          "name": "F#3",
          "ticks": 210720,
          "time": 99.77262750000001,
          "velocity": 0.7007874015748031
        },
        {
          "duration": 0.227272499999998,
          "durationTicks": 480,
          "midi": 66,
          "name": "F#4",
          "ticks": 211680,
          "time": 100.22717250000001,
          "velocity": 0.7007874015748031
        },
        {
          "duration": 0.227272499999998,
          "durationTicks": 480,
          "midi": 58,
          "name": "A#3",
          "ticks": 211680,
          "time": 100.22717250000001,
          "velocity": 0.7007874015748031
        },
        {
          "duration": 0.227272499999998,
          "durationTicks": 480,
          "midi": 61,
          "name": "C#4",
          "ticks": 211680,
          "time": 100.22717250000001,
          "velocity": 0.7007874015748031
        },
        {
          "duration": 0.227272499999998,
          "durationTicks": 480,
          "midi": 66,
          "name": "F#4",
          "ticks": 212640,
          "time": 100.6817175,
          "velocity": 0.7007874015748031
        },
        {
          "duration": 0.227272499999998,
          "durationTicks": 480,
          "midi": 61,
          "name": "C#4",
          "ticks": 212640,
          "time": 100.6817175,
          "velocity": 0.7007874015748031
        },
        {
          "duration": 0.227272499999998,
          "durationTicks": 480,
          "midi": 58,
          "name": "A#3",
          "ticks": 212640,
          "time": 100.6817175,
          "velocity": 0.7007874015748031
        },
        {
          "duration": 0.2272725000000122,
          "durationTicks": 480,
          "midi": 66,
          "name": "F#4",
          "ticks": 213600,
          "time": 101.1362625,
          "velocity": 0.7007874015748031
        },
        {
          "duration": 0.2272725000000122,
          "durationTicks": 480,
          "midi": 61,
          "name": "C#4",
          "ticks": 213600,
          "time": 101.1362625,
          "velocity": 0.7007874015748031
        },
        {
          "duration": 0.2272725000000122,
          "durationTicks": 480,
          "midi": 58,
          "name": "A#3",
          "ticks": 213600,
          "time": 101.1362625,
          "velocity": 0.7007874015748031
        },
        {
          "duration": 0.227272499999998,
          "durationTicks": 480,
          "midi": 66,
          "name": "F#4",
          "ticks": 214560,
          "time": 101.59080750000001,
          "velocity": 0.7007874015748031
        },
        {
          "duration": 0.227272499999998,
          "durationTicks": 480,
          "midi": 61,
          "name": "C#4",
          "ticks": 214560,
          "time": 101.59080750000001,
          "velocity": 0.7007874015748031
        },
        {
          "duration": 0.227272499999998,
          "durationTicks": 480,
          "midi": 58,
          "name": "A#3",
          "ticks": 214560,
          "time": 101.59080750000001,
          "velocity": 0.7007874015748031
        },
        {
          "duration": 0.227272499999998,
          "durationTicks": 480,
          "midi": 59,
          "name": "B3",
          "ticks": 215520,
          "time": 102.0453525,
          "velocity": 0.7007874015748031
        },
        {
          "duration": 0.227272499999998,
          "durationTicks": 480,
          "midi": 56,
          "name": "G#3",
          "ticks": 215520,
          "time": 102.0453525,
          "velocity": 0.7007874015748031
        },
        {
          "duration": 0.227272499999998,
          "durationTicks": 480,
          "midi": 64,
          "name": "E4",
          "ticks": 215520,
          "time": 102.0453525,
          "velocity": 0.7007874015748031
        },
        {
          "duration": 0.227272499999998,
          "durationTicks": 480,
          "midi": 66,
          "name": "F#4",
          "ticks": 215520,
          "time": 102.0453525,
          "velocity": 0.7007874015748031
        },
        {
          "duration": 0.227272499999998,
          "durationTicks": 480,
          "midi": 59,
          "name": "B3",
          "ticks": 216480,
          "time": 102.4998975,
          "velocity": 0.7007874015748031
        },
        {
          "duration": 0.227272499999998,
          "durationTicks": 480,
          "midi": 56,
          "name": "G#3",
          "ticks": 216480,
          "time": 102.4998975,
          "velocity": 0.7007874015748031
        },
        {
          "duration": 0.227272499999998,
          "durationTicks": 480,
          "midi": 64,
          "name": "E4",
          "ticks": 216480,
          "time": 102.4998975,
          "velocity": 0.7007874015748031
        },
        {
          "duration": 0.227272499999998,
          "durationTicks": 480,
          "midi": 59,
          "name": "B3",
          "ticks": 217440,
          "time": 102.95444250000001,
          "velocity": 0.7007874015748031
        },
        {
          "duration": 0.227272499999998,
          "durationTicks": 480,
          "midi": 56,
          "name": "G#3",
          "ticks": 217440,
          "time": 102.95444250000001,
          "velocity": 0.7007874015748031
        },
        {
          "duration": 0.227272499999998,
          "durationTicks": 480,
          "midi": 64,
          "name": "E4",
          "ticks": 217440,
          "time": 102.95444250000001,
          "velocity": 0.7007874015748031
        },
        {
          "duration": 0.227272499999998,
          "durationTicks": 480,
          "midi": 64,
          "name": "E4",
          "ticks": 218400,
          "time": 103.40898750000001,
          "velocity": 0.7007874015748031
        },
        {
          "duration": 0.227272499999998,
          "durationTicks": 480,
          "midi": 59,
          "name": "B3",
          "ticks": 218400,
          "time": 103.40898750000001,
          "velocity": 0.7007874015748031
        },
        {
          "duration": 0.227272499999998,
          "durationTicks": 480,
          "midi": 56,
          "name": "G#3",
          "ticks": 218400,
          "time": 103.40898750000001,
          "velocity": 0.7007874015748031
        },
        {
          "duration": 0.227272499999998,
          "durationTicks": 480,
          "midi": 63,
          "name": "D#4",
          "ticks": 219360,
          "time": 103.8635325,
          "velocity": 0.7007874015748031
        },
        {
          "duration": 0.227272499999998,
          "durationTicks": 480,
          "midi": 59,
          "name": "B3",
          "ticks": 219360,
          "time": 103.8635325,
          "velocity": 0.7007874015748031
        },
        {
          "duration": 0.227272499999998,
          "durationTicks": 480,
          "midi": 56,
          "name": "G#3",
          "ticks": 219360,
          "time": 103.8635325,
          "velocity": 0.7007874015748031
        },
        {
          "duration": 0.2272725000000122,
          "durationTicks": 480,
          "midi": 63,
          "name": "D#4",
          "ticks": 220320,
          "time": 104.3180775,
          "velocity": 0.7007874015748031
        },
        {
          "duration": 0.2272725000000122,
          "durationTicks": 480,
          "midi": 59,
          "name": "B3",
          "ticks": 220320,
          "time": 104.3180775,
          "velocity": 0.7007874015748031
        },
        {
          "duration": 0.2272725000000122,
          "durationTicks": 480,
          "midi": 56,
          "name": "G#3",
          "ticks": 220320,
          "time": 104.3180775,
          "velocity": 0.7007874015748031
        },
        {
          "duration": 0.227272499999998,
          "durationTicks": 480,
          "midi": 63,
          "name": "D#4",
          "ticks": 221280,
          "time": 104.77262250000001,
          "velocity": 0.7007874015748031
        },
        {
          "duration": 0.227272499999998,
          "durationTicks": 480,
          "midi": 59,
          "name": "B3",
          "ticks": 221280,
          "time": 104.77262250000001,
          "velocity": 0.7007874015748031
        },
        {
          "duration": 0.227272499999998,
          "durationTicks": 480,
          "midi": 56,
          "name": "G#3",
          "ticks": 221280,
          "time": 104.77262250000001,
          "velocity": 0.7007874015748031
        },
        {
          "duration": 0.227272499999998,
          "durationTicks": 480,
          "midi": 63,
          "name": "D#4",
          "ticks": 222240,
          "time": 105.22716750000001,
          "velocity": 0.7007874015748031
        },
        {
          "duration": 0.227272499999998,
          "durationTicks": 480,
          "midi": 59,
          "name": "B3",
          "ticks": 222240,
          "time": 105.22716750000001,
          "velocity": 0.7007874015748031
        },
        {
          "duration": 0.227272499999998,
          "durationTicks": 480,
          "midi": 56,
          "name": "G#3",
          "ticks": 222240,
          "time": 105.22716750000001,
          "velocity": 0.7007874015748031
        },
        {
          "duration": 0.227272499999998,
          "durationTicks": 480,
          "midi": 63,
          "name": "D#4",
          "ticks": 222720,
          "time": 105.45444,
          "velocity": 0.7007874015748031
        },
        {
          "duration": 0.227272499999998,
          "durationTicks": 480,
          "midi": 59,
          "name": "B3",
          "ticks": 222720,
          "time": 105.45444,
          "velocity": 0.7007874015748031
        },
        {
          "duration": 0.227272499999998,
          "durationTicks": 480,
          "midi": 54,
          "name": "F#3",
          "ticks": 222720,
          "time": 105.45444,
          "velocity": 0.7007874015748031
        },
        {
          "duration": 0.2272725000000122,
          "durationTicks": 480,
          "midi": 63,
          "name": "D#4",
          "ticks": 223680,
          "time": 105.908985,
          "velocity": 0.7007874015748031
        },
        {
          "duration": 0.2272725000000122,
          "durationTicks": 480,
          "midi": 59,
          "name": "B3",
          "ticks": 223680,
          "time": 105.908985,
          "velocity": 0.7007874015748031
        },
        {
          "duration": 0.2272725000000122,
          "durationTicks": 480,
          "midi": 54,
          "name": "F#3",
          "ticks": 223680,
          "time": 105.908985,
          "velocity": 0.7007874015748031
        },
        {
          "duration": 0.227272499999998,
          "durationTicks": 480,
          "midi": 63,
          "name": "D#4",
          "ticks": 224640,
          "time": 106.36353000000001,
          "velocity": 0.7007874015748031
        },
        {
          "duration": 0.227272499999998,
          "durationTicks": 480,
          "midi": 59,
          "name": "B3",
          "ticks": 224640,
          "time": 106.36353000000001,
          "velocity": 0.7007874015748031
        },
        {
          "duration": 0.227272499999998,
          "durationTicks": 480,
          "midi": 54,
          "name": "F#3",
          "ticks": 224640,
          "time": 106.36353000000001,
          "velocity": 0.7007874015748031
        },
        {
          "duration": 0.227272499999998,
          "durationTicks": 480,
          "midi": 63,
          "name": "D#4",
          "ticks": 225600,
          "time": 106.81807500000001,
          "velocity": 0.7007874015748031
        },
        {
          "duration": 0.227272499999998,
          "durationTicks": 480,
          "midi": 59,
          "name": "B3",
          "ticks": 225600,
          "time": 106.81807500000001,
          "velocity": 0.7007874015748031
        },
        {
          "duration": 0.227272499999998,
          "durationTicks": 480,
          "midi": 54,
          "name": "F#3",
          "ticks": 225600,
          "time": 106.81807500000001,
          "velocity": 0.7007874015748031
        },
        {
          "duration": 0.2272725000000122,
          "durationTicks": 480,
          "midi": 66,
          "name": "F#4",
          "ticks": 227040,
          "time": 107.4998925,
          "velocity": 0.7007874015748031
        },
        {
          "duration": 0.2272725000000122,
          "durationTicks": 480,
          "midi": 58,
          "name": "A#3",
          "ticks": 227040,
          "time": 107.4998925,
          "velocity": 0.7007874015748031
        },
        {
          "duration": 0.2272725000000122,
          "durationTicks": 480,
          "midi": 61,
          "name": "C#4",
          "ticks": 227040,
          "time": 107.4998925,
          "velocity": 0.7007874015748031
        },
        {
          "duration": 0.227272499999998,
          "durationTicks": 480,
          "midi": 66,
          "name": "F#4",
          "ticks": 228000,
          "time": 107.95443750000001,
          "velocity": 0.7007874015748031
        },
        {
          "duration": 0.227272499999998,
          "durationTicks": 480,
          "midi": 61,
          "name": "C#4",
          "ticks": 228000,
          "time": 107.95443750000001,
          "velocity": 0.7007874015748031
        },
        {
          "duration": 0.227272499999998,
          "durationTicks": 480,
          "midi": 58,
          "name": "A#3",
          "ticks": 228000,
          "time": 107.95443750000001,
          "velocity": 0.7007874015748031
        },
        {
          "duration": 0.227272499999998,
          "durationTicks": 480,
          "midi": 66,
          "name": "F#4",
          "ticks": 228960,
          "time": 108.40898250000001,
          "velocity": 0.7007874015748031
        },
        {
          "duration": 0.227272499999998,
          "durationTicks": 480,
          "midi": 61,
          "name": "C#4",
          "ticks": 228960,
          "time": 108.40898250000001,
          "velocity": 0.7007874015748031
        },
        {
          "duration": 0.227272499999998,
          "durationTicks": 480,
          "midi": 58,
          "name": "A#3",
          "ticks": 228960,
          "time": 108.40898250000001,
          "velocity": 0.7007874015748031
        },
        {
          "duration": 0.227272499999998,
          "durationTicks": 480,
          "midi": 66,
          "name": "F#4",
          "ticks": 229920,
          "time": 108.8635275,
          "velocity": 0.7007874015748031
        },
        {
          "duration": 0.227272499999998,
          "durationTicks": 480,
          "midi": 61,
          "name": "C#4",
          "ticks": 229920,
          "time": 108.8635275,
          "velocity": 0.7007874015748031
        },
        {
          "duration": 0.227272499999998,
          "durationTicks": 480,
          "midi": 58,
          "name": "A#3",
          "ticks": 229920,
          "time": 108.8635275,
          "velocity": 0.7007874015748031
        },
        {
          "duration": 0.227272499999998,
          "durationTicks": 480,
          "midi": 59,
          "name": "B3",
          "ticks": 230880,
          "time": 109.31807250000001,
          "velocity": 0.7007874015748031
        },
        {
          "duration": 0.227272499999998,
          "durationTicks": 480,
          "midi": 56,
          "name": "G#3",
          "ticks": 230880,
          "time": 109.31807250000001,
          "velocity": 0.7007874015748031
        },
        {
          "duration": 0.227272499999998,
          "durationTicks": 480,
          "midi": 64,
          "name": "E4",
          "ticks": 230880,
          "time": 109.31807250000001,
          "velocity": 0.7007874015748031
        },
        {
          "duration": 0.227272499999998,
          "durationTicks": 480,
          "midi": 66,
          "name": "F#4",
          "ticks": 230880,
          "time": 109.31807250000001,
          "velocity": 0.7007874015748031
        },
        {
          "duration": 0.227272499999998,
          "durationTicks": 480,
          "midi": 59,
          "name": "B3",
          "ticks": 231840,
          "time": 109.77261750000001,
          "velocity": 0.7007874015748031
        },
        {
          "duration": 0.227272499999998,
          "durationTicks": 480,
          "midi": 56,
          "name": "G#3",
          "ticks": 231840,
          "time": 109.77261750000001,
          "velocity": 0.7007874015748031
        },
        {
          "duration": 0.227272499999998,
          "durationTicks": 480,
          "midi": 64,
          "name": "E4",
          "ticks": 231840,
          "time": 109.77261750000001,
          "velocity": 0.7007874015748031
        },
        {
          "duration": 0.227272499999998,
          "durationTicks": 480,
          "midi": 66,
          "name": "F#4",
          "ticks": 231840,
          "time": 109.77261750000001,
          "velocity": 0.7007874015748031
        },
        {
          "duration": 0.227272499999998,
          "durationTicks": 480,
          "midi": 59,
          "name": "B3",
          "ticks": 232800,
          "time": 110.2271625,
          "velocity": 0.7007874015748031
        },
        {
          "duration": 0.227272499999998,
          "durationTicks": 480,
          "midi": 56,
          "name": "G#3",
          "ticks": 232800,
          "time": 110.2271625,
          "velocity": 0.7007874015748031
        },
        {
          "duration": 0.227272499999998,
          "durationTicks": 480,
          "midi": 64,
          "name": "E4",
          "ticks": 232800,
          "time": 110.2271625,
          "velocity": 0.7007874015748031
        },
        {
          "duration": 0.227272499999998,
          "durationTicks": 480,
          "midi": 66,
          "name": "F#4",
          "ticks": 232800,
          "time": 110.2271625,
          "velocity": 0.7007874015748031
        },
        {
          "duration": 0.227272499999998,
          "durationTicks": 480,
          "midi": 63,
          "name": "D#4",
          "ticks": 234720,
          "time": 111.13625250000001,
          "velocity": 0.7007874015748031
        },
        {
          "duration": 0.227272499999998,
          "durationTicks": 480,
          "midi": 59,
          "name": "B3",
          "ticks": 234720,
          "time": 111.13625250000001,
          "velocity": 0.7007874015748031
        },
        {
          "duration": 0.227272499999998,
          "durationTicks": 480,
          "midi": 56,
          "name": "G#3",
          "ticks": 234720,
          "time": 111.13625250000001,
          "velocity": 0.7007874015748031
        },
        {
          "duration": 0.227272499999998,
          "durationTicks": 480,
          "midi": 63,
          "name": "D#4",
          "ticks": 235680,
          "time": 111.59079750000001,
          "velocity": 0.7007874015748031
        },
        {
          "duration": 0.227272499999998,
          "durationTicks": 480,
          "midi": 59,
          "name": "B3",
          "ticks": 235680,
          "time": 111.59079750000001,
          "velocity": 0.7007874015748031
        },
        {
          "duration": 0.227272499999998,
          "durationTicks": 480,
          "midi": 56,
          "name": "G#3",
          "ticks": 235680,
          "time": 111.59079750000001,
          "velocity": 0.7007874015748031
        },
        {
          "duration": 0.227272499999998,
          "durationTicks": 480,
          "midi": 63,
          "name": "D#4",
          "ticks": 236640,
          "time": 112.0453425,
          "velocity": 0.7007874015748031
        },
        {
          "duration": 0.227272499999998,
          "durationTicks": 480,
          "midi": 59,
          "name": "B3",
          "ticks": 236640,
          "time": 112.0453425,
          "velocity": 0.7007874015748031
        },
        {
          "duration": 0.227272499999998,
          "durationTicks": 480,
          "midi": 56,
          "name": "G#3",
          "ticks": 236640,
          "time": 112.0453425,
          "velocity": 0.7007874015748031
        },
        {
          "duration": 0.227272499999998,
          "durationTicks": 480,
          "midi": 63,
          "name": "D#4",
          "ticks": 237600,
          "time": 112.49988750000001,
          "velocity": 0.7007874015748031
        },
        {
          "duration": 0.227272499999998,
          "durationTicks": 480,
          "midi": 59,
          "name": "B3",
          "ticks": 237600,
          "time": 112.49988750000001,
          "velocity": 0.7007874015748031
        },
        {
          "duration": 0.227272499999998,
          "durationTicks": 480,
          "midi": 56,
          "name": "G#3",
          "ticks": 237600,
          "time": 112.49988750000001,
          "velocity": 0.7007874015748031
        },
        {
          "duration": 0.227272499999998,
          "durationTicks": 480,
          "midi": 63,
          "name": "D#4",
          "ticks": 238560,
          "time": 112.95443250000001,
          "velocity": 0.7007874015748031
        },
        {
          "duration": 0.227272499999998,
          "durationTicks": 480,
          "midi": 59,
          "name": "B3",
          "ticks": 238560,
          "time": 112.95443250000001,
          "velocity": 0.7007874015748031
        },
        {
          "duration": 0.227272499999998,
          "durationTicks": 480,
          "midi": 54,
          "name": "F#3",
          "ticks": 238560,
          "time": 112.95443250000001,
          "velocity": 0.7007874015748031
        },
        {
          "duration": 0.227272499999998,
          "durationTicks": 480,
          "midi": 63,
          "name": "D#4",
          "ticks": 239520,
          "time": 113.4089775,
          "velocity": 0.7007874015748031
        },
        {
          "duration": 0.227272499999998,
          "durationTicks": 480,
          "midi": 59,
          "name": "B3",
          "ticks": 239520,
          "time": 113.4089775,
          "velocity": 0.7007874015748031
        },
        {
          "duration": 0.227272499999998,
          "durationTicks": 480,
          "midi": 54,
          "name": "F#3",
          "ticks": 239520,
          "time": 113.4089775,
          "velocity": 0.7007874015748031
        },
        {
          "duration": 0.2272725000000122,
          "durationTicks": 480,
          "midi": 63,
          "name": "D#4",
          "ticks": 240480,
          "time": 113.8635225,
          "velocity": 0.7007874015748031
        },
        {
          "duration": 0.2272725000000122,
          "durationTicks": 480,
          "midi": 59,
          "name": "B3",
          "ticks": 240480,
          "time": 113.8635225,
          "velocity": 0.7007874015748031
        },
        {
          "duration": 0.2272725000000122,
          "durationTicks": 480,
          "midi": 54,
          "name": "F#3",
          "ticks": 240480,
          "time": 113.8635225,
          "velocity": 0.7007874015748031
        },
        {
          "duration": 0.227272499999998,
          "durationTicks": 480,
          "midi": 63,
          "name": "D#4",
          "ticks": 241440,
          "time": 114.31806750000001,
          "velocity": 0.7007874015748031
        },
        {
          "duration": 0.227272499999998,
          "durationTicks": 480,
          "midi": 59,
          "name": "B3",
          "ticks": 241440,
          "time": 114.31806750000001,
          "velocity": 0.7007874015748031
        },
        {
          "duration": 0.227272499999998,
          "durationTicks": 480,
          "midi": 54,
          "name": "F#3",
          "ticks": 241440,
          "time": 114.31806750000001,
          "velocity": 0.7007874015748031
        },
        {
          "duration": 0.227272499999998,
          "durationTicks": 480,
          "midi": 66,
          "name": "F#4",
          "ticks": 242400,
          "time": 114.77261250000001,
          "velocity": 0.7007874015748031
        },
        {
          "duration": 0.227272499999998,
          "durationTicks": 480,
          "midi": 58,
          "name": "A#3",
          "ticks": 242400,
          "time": 114.77261250000001,
          "velocity": 0.7007874015748031
        },
        {
          "duration": 0.227272499999998,
          "durationTicks": 480,
          "midi": 61,
          "name": "C#4",
          "ticks": 242400,
          "time": 114.77261250000001,
          "velocity": 0.7007874015748031
        },
        {
          "duration": 0.227272499999998,
          "durationTicks": 480,
          "midi": 66,
          "name": "F#4",
          "ticks": 243360,
          "time": 115.2271575,
          "velocity": 0.7007874015748031
        },
        {
          "duration": 0.227272499999998,
          "durationTicks": 480,
          "midi": 61,
          "name": "C#4",
          "ticks": 243360,
          "time": 115.2271575,
          "velocity": 0.7007874015748031
        },
        {
          "duration": 0.227272499999998,
          "durationTicks": 480,
          "midi": 58,
          "name": "A#3",
          "ticks": 243360,
          "time": 115.2271575,
          "velocity": 0.7007874015748031
        },
        {
          "duration": 0.227272499999998,
          "durationTicks": 480,
          "midi": 66,
          "name": "F#4",
          "ticks": 244320,
          "time": 115.68170250000001,
          "velocity": 0.7007874015748031
        },
        {
          "duration": 0.227272499999998,
          "durationTicks": 480,
          "midi": 61,
          "name": "C#4",
          "ticks": 244320,
          "time": 115.68170250000001,
          "velocity": 0.7007874015748031
        },
        {
          "duration": 0.227272499999998,
          "durationTicks": 480,
          "midi": 58,
          "name": "A#3",
          "ticks": 244320,
          "time": 115.68170250000001,
          "velocity": 0.7007874015748031
        },
        {
          "duration": 0.227272499999998,
          "durationTicks": 480,
          "midi": 66,
          "name": "F#4",
          "ticks": 245280,
          "time": 116.13624750000001,
          "velocity": 0.7007874015748031
        },
        {
          "duration": 0.227272499999998,
          "durationTicks": 480,
          "midi": 61,
          "name": "C#4",
          "ticks": 245280,
          "time": 116.13624750000001,
          "velocity": 0.7007874015748031
        },
        {
          "duration": 0.227272499999998,
          "durationTicks": 480,
          "midi": 58,
          "name": "A#3",
          "ticks": 245280,
          "time": 116.13624750000001,
          "velocity": 0.7007874015748031
        },
        {
          "duration": 0.227272499999998,
          "durationTicks": 480,
          "midi": 59,
          "name": "B3",
          "ticks": 246240,
          "time": 116.5907925,
          "velocity": 0.7007874015748031
        },
        {
          "duration": 0.227272499999998,
          "durationTicks": 480,
          "midi": 56,
          "name": "G#3",
          "ticks": 246240,
          "time": 116.5907925,
          "velocity": 0.7007874015748031
        },
        {
          "duration": 0.227272499999998,
          "durationTicks": 480,
          "midi": 64,
          "name": "E4",
          "ticks": 246240,
          "time": 116.5907925,
          "velocity": 0.7007874015748031
        },
        {
          "duration": 0.227272499999998,
          "durationTicks": 480,
          "midi": 66,
          "name": "F#4",
          "ticks": 246240,
          "time": 116.5907925,
          "velocity": 0.7007874015748031
        },
        {
          "duration": 0.2272725000000122,
          "durationTicks": 480,
          "midi": 59,
          "name": "B3",
          "ticks": 247200,
          "time": 117.0453375,
          "velocity": 0.7007874015748031
        },
        {
          "duration": 0.2272725000000122,
          "durationTicks": 480,
          "midi": 56,
          "name": "G#3",
          "ticks": 247200,
          "time": 117.0453375,
          "velocity": 0.7007874015748031
        },
        {
          "duration": 0.2272725000000122,
          "durationTicks": 480,
          "midi": 64,
          "name": "E4",
          "ticks": 247200,
          "time": 117.0453375,
          "velocity": 0.7007874015748031
        },
        {
          "duration": 0.2272725000000122,
          "durationTicks": 480,
          "midi": 66,
          "name": "F#4",
          "ticks": 247200,
          "time": 117.0453375,
          "velocity": 0.7007874015748031
        },
        {
          "duration": 0.227272499999998,
          "durationTicks": 480,
          "midi": 63,
          "name": "D#4",
          "ticks": 250080,
          "time": 118.4089725,
          "velocity": 0.7007874015748031
        },
        {
          "duration": 0.227272499999998,
          "durationTicks": 480,
          "midi": 59,
          "name": "B3",
          "ticks": 250080,
          "time": 118.4089725,
          "velocity": 0.7007874015748031
        },
        {
          "duration": 0.227272499999998,
          "durationTicks": 480,
          "midi": 56,
          "name": "G#3",
          "ticks": 250080,
          "time": 118.4089725,
          "velocity": 0.7007874015748031
        },
        {
          "duration": 0.227272499999998,
          "durationTicks": 480,
          "midi": 63,
          "name": "D#4",
          "ticks": 251040,
          "time": 118.86351750000001,
          "velocity": 0.7007874015748031
        },
        {
          "duration": 0.227272499999998,
          "durationTicks": 480,
          "midi": 59,
          "name": "B3",
          "ticks": 251040,
          "time": 118.86351750000001,
          "velocity": 0.7007874015748031
        },
        {
          "duration": 0.227272499999998,
          "durationTicks": 480,
          "midi": 56,
          "name": "G#3",
          "ticks": 251040,
          "time": 118.86351750000001,
          "velocity": 0.7007874015748031
        },
        {
          "duration": 0.227272499999998,
          "durationTicks": 480,
          "midi": 63,
          "name": "D#4",
          "ticks": 252000,
          "time": 119.31806250000001,
          "velocity": 0.7007874015748031
        },
        {
          "duration": 0.227272499999998,
          "durationTicks": 480,
          "midi": 59,
          "name": "B3",
          "ticks": 252000,
          "time": 119.31806250000001,
          "velocity": 0.7007874015748031
        },
        {
          "duration": 0.227272499999998,
          "durationTicks": 480,
          "midi": 56,
          "name": "G#3",
          "ticks": 252000,
          "time": 119.31806250000001,
          "velocity": 0.7007874015748031
        },
        {
          "duration": 0.227272499999998,
          "durationTicks": 480,
          "midi": 63,
          "name": "D#4",
          "ticks": 253440,
          "time": 119.99988,
          "velocity": 0.7007874015748031
        },
        {
          "duration": 0.227272499999998,
          "durationTicks": 480,
          "midi": 59,
          "name": "B3",
          "ticks": 253440,
          "time": 119.99988,
          "velocity": 0.7007874015748031
        },
        {
          "duration": 0.227272499999998,
          "durationTicks": 480,
          "midi": 54,
          "name": "F#3",
          "ticks": 253440,
          "time": 119.99988,
          "velocity": 0.7007874015748031
        },
        {
          "duration": 0.227272499999998,
          "durationTicks": 480,
          "midi": 63,
          "name": "D#4",
          "ticks": 254400,
          "time": 120.45442500000001,
          "velocity": 0.7007874015748031
        },
        {
          "duration": 0.227272499999998,
          "durationTicks": 480,
          "midi": 59,
          "name": "B3",
          "ticks": 254400,
          "time": 120.45442500000001,
          "velocity": 0.7007874015748031
        },
        {
          "duration": 0.227272499999998,
          "durationTicks": 480,
          "midi": 54,
          "name": "F#3",
          "ticks": 254400,
          "time": 120.45442500000001,
          "velocity": 0.7007874015748031
        },
        {
          "duration": 0.227272499999998,
          "durationTicks": 480,
          "midi": 63,
          "name": "D#4",
          "ticks": 255360,
          "time": 120.90897000000001,
          "velocity": 0.7007874015748031
        },
        {
          "duration": 0.227272499999998,
          "durationTicks": 480,
          "midi": 59,
          "name": "B3",
          "ticks": 255360,
          "time": 120.90897000000001,
          "velocity": 0.7007874015748031
        },
        {
          "duration": 0.227272499999998,
          "durationTicks": 480,
          "midi": 54,
          "name": "F#3",
          "ticks": 255360,
          "time": 120.90897000000001,
          "velocity": 0.7007874015748031
        },
        {
          "duration": 0.227272499999998,
          "durationTicks": 480,
          "midi": 66,
          "name": "F#4",
          "ticks": 257760,
          "time": 122.04533250000001,
          "velocity": 0.7007874015748031
        },
        {
          "duration": 0.227272499999998,
          "durationTicks": 480,
          "midi": 58,
          "name": "A#3",
          "ticks": 257760,
          "time": 122.04533250000001,
          "velocity": 0.7007874015748031
        },
        {
          "duration": 0.227272499999998,
          "durationTicks": 480,
          "midi": 61,
          "name": "C#4",
          "ticks": 257760,
          "time": 122.04533250000001,
          "velocity": 0.7007874015748031
        },
        {
          "duration": 0.227272499999998,
          "durationTicks": 480,
          "midi": 66,
          "name": "F#4",
          "ticks": 258720,
          "time": 122.49987750000001,
          "velocity": 0.7007874015748031
        },
        {
          "duration": 0.227272499999998,
          "durationTicks": 480,
          "midi": 61,
          "name": "C#4",
          "ticks": 258720,
          "time": 122.49987750000001,
          "velocity": 0.7007874015748031
        },
        {
          "duration": 0.227272499999998,
          "durationTicks": 480,
          "midi": 58,
          "name": "A#3",
          "ticks": 258720,
          "time": 122.49987750000001,
          "velocity": 0.7007874015748031
        },
        {
          "duration": 0.227272499999998,
          "durationTicks": 480,
          "midi": 66,
          "name": "F#4",
          "ticks": 259680,
          "time": 122.9544225,
          "velocity": 0.7007874015748031
        },
        {
          "duration": 0.227272499999998,
          "durationTicks": 480,
          "midi": 61,
          "name": "C#4",
          "ticks": 259680,
          "time": 122.9544225,
          "velocity": 0.7007874015748031
        },
        {
          "duration": 0.227272499999998,
          "durationTicks": 480,
          "midi": 58,
          "name": "A#3",
          "ticks": 259680,
          "time": 122.9544225,
          "velocity": 0.7007874015748031
        },
        {
          "duration": 0.2272725000000122,
          "durationTicks": 480,
          "midi": 66,
          "name": "F#4",
          "ticks": 260640,
          "time": 123.4089675,
          "velocity": 0.7007874015748031
        },
        {
          "duration": 0.2272725000000122,
          "durationTicks": 480,
          "midi": 61,
          "name": "C#4",
          "ticks": 260640,
          "time": 123.4089675,
          "velocity": 0.7007874015748031
        },
        {
          "duration": 0.2272725000000122,
          "durationTicks": 480,
          "midi": 58,
          "name": "A#3",
          "ticks": 260640,
          "time": 123.4089675,
          "velocity": 0.7007874015748031
        },
        {
          "duration": 0.227272499999998,
          "durationTicks": 480,
          "midi": 59,
          "name": "B3",
          "ticks": 261600,
          "time": 123.86351250000001,
          "velocity": 0.7007874015748031
        },
        {
          "duration": 0.227272499999998,
          "durationTicks": 480,
          "midi": 56,
          "name": "G#3",
          "ticks": 261600,
          "time": 123.86351250000001,
          "velocity": 0.7007874015748031
        },
        {
          "duration": 0.227272499999998,
          "durationTicks": 480,
          "midi": 64,
          "name": "E4",
          "ticks": 261600,
          "time": 123.86351250000001,
          "velocity": 0.7007874015748031
        },
        {
          "duration": 0.227272499999998,
          "durationTicks": 480,
          "midi": 59,
          "name": "B3",
          "ticks": 262560,
          "time": 124.31805750000001,
          "velocity": 0.7007874015748031
        },
        {
          "duration": 0.227272499999998,
          "durationTicks": 480,
          "midi": 56,
          "name": "G#3",
          "ticks": 262560,
          "time": 124.31805750000001,
          "velocity": 0.7007874015748031
        },
        {
          "duration": 0.227272499999998,
          "durationTicks": 480,
          "midi": 64,
          "name": "E4",
          "ticks": 262560,
          "time": 124.31805750000001,
          "velocity": 0.7007874015748031
        },
        {
          "duration": 0.227272499999998,
          "durationTicks": 480,
          "midi": 66,
          "name": "F#4",
          "ticks": 262560,
          "time": 124.31805750000001,
          "velocity": 0.7007874015748031
        },
        {
          "duration": 0.227272499999998,
          "durationTicks": 480,
          "midi": 59,
          "name": "B3",
          "ticks": 263520,
          "time": 124.7726025,
          "velocity": 0.7007874015748031
        },
        {
          "duration": 0.227272499999998,
          "durationTicks": 480,
          "midi": 56,
          "name": "G#3",
          "ticks": 263520,
          "time": 124.7726025,
          "velocity": 0.7007874015748031
        },
        {
          "duration": 0.227272499999998,
          "durationTicks": 480,
          "midi": 64,
          "name": "E4",
          "ticks": 263520,
          "time": 124.7726025,
          "velocity": 0.7007874015748031
        },
        {
          "duration": 0.227272499999998,
          "durationTicks": 480,
          "midi": 66,
          "name": "F#4",
          "ticks": 263520,
          "time": 124.7726025,
          "velocity": 0.7007874015748031
        },
        {
          "duration": 0.2272725000000122,
          "durationTicks": 480,
          "midi": 54,
          "name": "F#3",
          "ticks": 264000,
          "time": 124.999875,
          "velocity": 0.7007874015748031
        },
        {
          "duration": 0.227272499999998,
          "durationTicks": 480,
          "midi": 55,
          "name": "G3",
          "ticks": 264480,
          "time": 125.22714750000002,
          "velocity": 0.7007874015748031
        },
        {
          "duration": 0.227272499999998,
          "durationTicks": 480,
          "midi": 63,
          "name": "D#4",
          "ticks": 265440,
          "time": 125.68169250000001,
          "velocity": 0.7007874015748031
        },
        {
          "duration": 0.227272499999998,
          "durationTicks": 480,
          "midi": 59,
          "name": "B3",
          "ticks": 265440,
          "time": 125.68169250000001,
          "velocity": 0.7007874015748031
        },
        {
          "duration": 0.227272499999998,
          "durationTicks": 480,
          "midi": 56,
          "name": "G#3",
          "ticks": 265440,
          "time": 125.68169250000001,
          "velocity": 0.7007874015748031
        },
        {
          "duration": 0.227272499999998,
          "durationTicks": 480,
          "midi": 63,
          "name": "D#4",
          "ticks": 266400,
          "time": 126.13623750000001,
          "velocity": 0.7007874015748031
        },
        {
          "duration": 0.227272499999998,
          "durationTicks": 480,
          "midi": 59,
          "name": "B3",
          "ticks": 266400,
          "time": 126.13623750000001,
          "velocity": 0.7007874015748031
        },
        {
          "duration": 0.227272499999998,
          "durationTicks": 480,
          "midi": 56,
          "name": "G#3",
          "ticks": 266400,
          "time": 126.13623750000001,
          "velocity": 0.7007874015748031
        },
        {
          "duration": 0.2272725000000122,
          "durationTicks": 480,
          "midi": 63,
          "name": "D#4",
          "ticks": 267360,
          "time": 126.5907825,
          "velocity": 0.7007874015748031
        },
        {
          "duration": 0.2272725000000122,
          "durationTicks": 480,
          "midi": 59,
          "name": "B3",
          "ticks": 267360,
          "time": 126.5907825,
          "velocity": 0.7007874015748031
        },
        {
          "duration": 0.2272725000000122,
          "durationTicks": 480,
          "midi": 56,
          "name": "G#3",
          "ticks": 267360,
          "time": 126.5907825,
          "velocity": 0.7007874015748031
        },
        {
          "duration": 0.227272499999998,
          "durationTicks": 480,
          "midi": 63,
          "name": "D#4",
          "ticks": 268320,
          "time": 127.04532750000001,
          "velocity": 0.7007874015748031
        },
        {
          "duration": 0.227272499999998,
          "durationTicks": 480,
          "midi": 59,
          "name": "B3",
          "ticks": 268320,
          "time": 127.04532750000001,
          "velocity": 0.7007874015748031
        },
        {
          "duration": 0.227272499999998,
          "durationTicks": 480,
          "midi": 56,
          "name": "G#3",
          "ticks": 268320,
          "time": 127.04532750000001,
          "velocity": 0.7007874015748031
        },
        {
          "duration": 0.227272499999998,
          "durationTicks": 480,
          "midi": 63,
          "name": "D#4",
          "ticks": 269280,
          "time": 127.49987250000001,
          "velocity": 0.7007874015748031
        },
        {
          "duration": 0.227272499999998,
          "durationTicks": 480,
          "midi": 59,
          "name": "B3",
          "ticks": 269280,
          "time": 127.49987250000001,
          "velocity": 0.7007874015748031
        },
        {
          "duration": 0.227272499999998,
          "durationTicks": 480,
          "midi": 54,
          "name": "F#3",
          "ticks": 269280,
          "time": 127.49987250000001,
          "velocity": 0.7007874015748031
        },
        {
          "duration": 0.227272499999998,
          "durationTicks": 480,
          "midi": 63,
          "name": "D#4",
          "ticks": 270240,
          "time": 127.9544175,
          "velocity": 0.7007874015748031
        },
        {
          "duration": 0.227272499999998,
          "durationTicks": 480,
          "midi": 59,
          "name": "B3",
          "ticks": 270240,
          "time": 127.9544175,
          "velocity": 0.7007874015748031
        },
        {
          "duration": 0.227272499999998,
          "durationTicks": 480,
          "midi": 54,
          "name": "F#3",
          "ticks": 270240,
          "time": 127.9544175,
          "velocity": 0.7007874015748031
        },
        {
          "duration": 0.227272499999998,
          "durationTicks": 480,
          "midi": 63,
          "name": "D#4",
          "ticks": 271200,
          "time": 128.4089625,
          "velocity": 0.7007874015748031
        },
        {
          "duration": 0.227272499999998,
          "durationTicks": 480,
          "midi": 59,
          "name": "B3",
          "ticks": 271200,
          "time": 128.4089625,
          "velocity": 0.7007874015748031
        },
        {
          "duration": 0.227272499999998,
          "durationTicks": 480,
          "midi": 54,
          "name": "F#3",
          "ticks": 271200,
          "time": 128.4089625,
          "velocity": 0.7007874015748031
        },
        {
          "duration": 0.227272499999998,
          "durationTicks": 480,
          "midi": 63,
          "name": "D#4",
          "ticks": 272160,
          "time": 128.8635075,
          "velocity": 0.7007874015748031
        },
        {
          "duration": 0.227272499999998,
          "durationTicks": 480,
          "midi": 59,
          "name": "B3",
          "ticks": 272160,
          "time": 128.8635075,
          "velocity": 0.7007874015748031
        },
        {
          "duration": 0.227272499999998,
          "durationTicks": 480,
          "midi": 54,
          "name": "F#3",
          "ticks": 272160,
          "time": 128.8635075,
          "velocity": 0.7007874015748031
        },
        {
          "duration": 0.227272499999998,
          "durationTicks": 480,
          "midi": 66,
          "name": "F#4",
          "ticks": 273120,
          "time": 129.31805250000002,
          "velocity": 0.7007874015748031
        },
        {
          "duration": 0.227272499999998,
          "durationTicks": 480,
          "midi": 58,
          "name": "A#3",
          "ticks": 273120,
          "time": 129.31805250000002,
          "velocity": 0.7007874015748031
        },
        {
          "duration": 0.227272499999998,
          "durationTicks": 480,
          "midi": 61,
          "name": "C#4",
          "ticks": 273120,
          "time": 129.31805250000002,
          "velocity": 0.7007874015748031
        },
        {
          "duration": 0.227272499999998,
          "durationTicks": 480,
          "midi": 66,
          "name": "F#4",
          "ticks": 274080,
          "time": 129.77259750000002,
          "velocity": 0.7007874015748031
        },
        {
          "duration": 0.227272499999998,
          "durationTicks": 480,
          "midi": 61,
          "name": "C#4",
          "ticks": 274080,
          "time": 129.77259750000002,
          "velocity": 0.7007874015748031
        },
        {
          "duration": 0.227272499999998,
          "durationTicks": 480,
          "midi": 58,
          "name": "A#3",
          "ticks": 274080,
          "time": 129.77259750000002,
          "velocity": 0.7007874015748031
        },
        {
          "duration": 0.227272499999998,
          "durationTicks": 480,
          "midi": 66,
          "name": "F#4",
          "ticks": 275040,
          "time": 130.2271425,
          "velocity": 0.7007874015748031
        },
        {
          "duration": 0.227272499999998,
          "durationTicks": 480,
          "midi": 61,
          "name": "C#4",
          "ticks": 275040,
          "time": 130.2271425,
          "velocity": 0.7007874015748031
        },
        {
          "duration": 0.227272499999998,
          "durationTicks": 480,
          "midi": 58,
          "name": "A#3",
          "ticks": 275040,
          "time": 130.2271425,
          "velocity": 0.7007874015748031
        },
        {
          "duration": 0.227272499999998,
          "durationTicks": 480,
          "midi": 66,
          "name": "F#4",
          "ticks": 276000,
          "time": 130.6816875,
          "velocity": 0.7007874015748031
        },
        {
          "duration": 0.227272499999998,
          "durationTicks": 480,
          "midi": 61,
          "name": "C#4",
          "ticks": 276000,
          "time": 130.6816875,
          "velocity": 0.7007874015748031
        },
        {
          "duration": 0.227272499999998,
          "durationTicks": 480,
          "midi": 58,
          "name": "A#3",
          "ticks": 276000,
          "time": 130.6816875,
          "velocity": 0.7007874015748031
        },
        {
          "duration": 0.227272499999998,
          "durationTicks": 480,
          "midi": 59,
          "name": "B3",
          "ticks": 276960,
          "time": 131.1362325,
          "velocity": 0.7007874015748031
        },
        {
          "duration": 0.227272499999998,
          "durationTicks": 480,
          "midi": 56,
          "name": "G#3",
          "ticks": 276960,
          "time": 131.1362325,
          "velocity": 0.7007874015748031
        },
        {
          "duration": 0.227272499999998,
          "durationTicks": 480,
          "midi": 64,
          "name": "E4",
          "ticks": 276960,
          "time": 131.1362325,
          "velocity": 0.7007874015748031
        },
        {
          "duration": 0.227272499999998,
          "durationTicks": 480,
          "midi": 66,
          "name": "F#4",
          "ticks": 276960,
          "time": 131.1362325,
          "velocity": 0.7007874015748031
        },
        {
          "duration": 0.227272499999998,
          "durationTicks": 480,
          "midi": 59,
          "name": "B3",
          "ticks": 277920,
          "time": 131.5907775,
          "velocity": 0.7007874015748031
        },
        {
          "duration": 0.227272499999998,
          "durationTicks": 480,
          "midi": 56,
          "name": "G#3",
          "ticks": 277920,
          "time": 131.5907775,
          "velocity": 0.7007874015748031
        },
        {
          "duration": 0.227272499999998,
          "durationTicks": 480,
          "midi": 64,
          "name": "E4",
          "ticks": 277920,
          "time": 131.5907775,
          "velocity": 0.7007874015748031
        },
        {
          "duration": 0.227272499999998,
          "durationTicks": 480,
          "midi": 66,
          "name": "F#4",
          "ticks": 277920,
          "time": 131.5907775,
          "velocity": 0.7007874015748031
        },
        {
          "duration": 0.227272499999998,
          "durationTicks": 480,
          "midi": 59,
          "name": "B3",
          "ticks": 278880,
          "time": 132.0453225,
          "velocity": 0.7007874015748031
        },
        {
          "duration": 0.227272499999998,
          "durationTicks": 480,
          "midi": 56,
          "name": "G#3",
          "ticks": 278880,
          "time": 132.0453225,
          "velocity": 0.7007874015748031
        },
        {
          "duration": 0.227272499999998,
          "durationTicks": 480,
          "midi": 64,
          "name": "E4",
          "ticks": 278880,
          "time": 132.0453225,
          "velocity": 0.7007874015748031
        },
        {
          "duration": 0.227272499999998,
          "durationTicks": 480,
          "midi": 59,
          "name": "B3",
          "ticks": 279840,
          "time": 132.49986750000002,
          "velocity": 0.7007874015748031
        },
        {
          "duration": 0.227272499999998,
          "durationTicks": 480,
          "midi": 56,
          "name": "G#3",
          "ticks": 279840,
          "time": 132.49986750000002,
          "velocity": 0.7007874015748031
        },
        {
          "duration": 0.227272499999998,
          "durationTicks": 480,
          "midi": 64,
          "name": "E4",
          "ticks": 279840,
          "time": 132.49986750000002,
          "velocity": 0.7007874015748031
        },
        {
          "duration": 0.227272499999998,
          "durationTicks": 480,
          "midi": 63,
          "name": "D#4",
          "ticks": 280800,
          "time": 132.95441250000002,
          "velocity": 0.7007874015748031
        },
        {
          "duration": 0.227272499999998,
          "durationTicks": 480,
          "midi": 59,
          "name": "B3",
          "ticks": 280800,
          "time": 132.95441250000002,
          "velocity": 0.7007874015748031
        },
        {
          "duration": 0.227272499999998,
          "durationTicks": 480,
          "midi": 56,
          "name": "G#3",
          "ticks": 280800,
          "time": 132.95441250000002,
          "velocity": 0.7007874015748031
        },
        {
          "duration": 0.227272499999998,
          "durationTicks": 480,
          "midi": 63,
          "name": "D#4",
          "ticks": 281760,
          "time": 133.4089575,
          "velocity": 0.7007874015748031
        },
        {
          "duration": 0.227272499999998,
          "durationTicks": 480,
          "midi": 59,
          "name": "B3",
          "ticks": 281760,
          "time": 133.4089575,
          "velocity": 0.7007874015748031
        },
        {
          "duration": 0.227272499999998,
          "durationTicks": 480,
          "midi": 56,
          "name": "G#3",
          "ticks": 281760,
          "time": 133.4089575,
          "velocity": 0.7007874015748031
        },
        {
          "duration": 0.227272499999998,
          "durationTicks": 480,
          "midi": 63,
          "name": "D#4",
          "ticks": 282720,
          "time": 133.8635025,
          "velocity": 0.7007874015748031
        },
        {
          "duration": 0.227272499999998,
          "durationTicks": 480,
          "midi": 59,
          "name": "B3",
          "ticks": 282720,
          "time": 133.8635025,
          "velocity": 0.7007874015748031
        },
        {
          "duration": 0.227272499999998,
          "durationTicks": 480,
          "midi": 56,
          "name": "G#3",
          "ticks": 282720,
          "time": 133.8635025,
          "velocity": 0.7007874015748031
        },
        {
          "duration": 0.227272499999998,
          "durationTicks": 480,
          "midi": 63,
          "name": "D#4",
          "ticks": 283680,
          "time": 134.3180475,
          "velocity": 0.7007874015748031
        },
        {
          "duration": 0.227272499999998,
          "durationTicks": 480,
          "midi": 59,
          "name": "B3",
          "ticks": 283680,
          "time": 134.3180475,
          "velocity": 0.7007874015748031
        },
        {
          "duration": 0.227272499999998,
          "durationTicks": 480,
          "midi": 56,
          "name": "G#3",
          "ticks": 283680,
          "time": 134.3180475,
          "velocity": 0.7007874015748031
        },
        {
          "duration": 0.227272499999998,
          "durationTicks": 480,
          "midi": 63,
          "name": "D#4",
          "ticks": 284640,
          "time": 134.7725925,
          "velocity": 0.7007874015748031
        },
        {
          "duration": 0.227272499999998,
          "durationTicks": 480,
          "midi": 59,
          "name": "B3",
          "ticks": 284640,
          "time": 134.7725925,
          "velocity": 0.7007874015748031
        },
        {
          "duration": 0.227272499999998,
          "durationTicks": 480,
          "midi": 54,
          "name": "F#3",
          "ticks": 284640,
          "time": 134.7725925,
          "velocity": 0.7007874015748031
        },
        {
          "duration": 0.227272499999998,
          "durationTicks": 480,
          "midi": 63,
          "name": "D#4",
          "ticks": 285600,
          "time": 135.2271375,
          "velocity": 0.7007874015748031
        },
        {
          "duration": 0.227272499999998,
          "durationTicks": 480,
          "midi": 59,
          "name": "B3",
          "ticks": 285600,
          "time": 135.2271375,
          "velocity": 0.7007874015748031
        },
        {
          "duration": 0.227272499999998,
          "durationTicks": 480,
          "midi": 54,
          "name": "F#3",
          "ticks": 285600,
          "time": 135.2271375,
          "velocity": 0.7007874015748031
        },
        {
          "duration": 0.227272499999998,
          "durationTicks": 480,
          "midi": 63,
          "name": "D#4",
          "ticks": 286560,
          "time": 135.68168250000002,
          "velocity": 0.7007874015748031
        },
        {
          "duration": 0.227272499999998,
          "durationTicks": 480,
          "midi": 59,
          "name": "B3",
          "ticks": 286560,
          "time": 135.68168250000002,
          "velocity": 0.7007874015748031
        },
        {
          "duration": 0.227272499999998,
          "durationTicks": 480,
          "midi": 54,
          "name": "F#3",
          "ticks": 286560,
          "time": 135.68168250000002,
          "velocity": 0.7007874015748031
        },
        {
          "duration": 0.227272499999998,
          "durationTicks": 480,
          "midi": 63,
          "name": "D#4",
          "ticks": 287520,
          "time": 136.13622750000002,
          "velocity": 0.7007874015748031
        },
        {
          "duration": 0.227272499999998,
          "durationTicks": 480,
          "midi": 59,
          "name": "B3",
          "ticks": 287520,
          "time": 136.13622750000002,
          "velocity": 0.7007874015748031
        },
        {
          "duration": 0.227272499999998,
          "durationTicks": 480,
          "midi": 54,
          "name": "F#3",
          "ticks": 287520,
          "time": 136.13622750000002,
          "velocity": 0.7007874015748031
        },
        {
          "duration": 0.227272499999998,
          "durationTicks": 480,
          "midi": 66,
          "name": "F#4",
          "ticks": 288480,
          "time": 136.5907725,
          "velocity": 0.7007874015748031
        },
        {
          "duration": 0.227272499999998,
          "durationTicks": 480,
          "midi": 58,
          "name": "A#3",
          "ticks": 288480,
          "time": 136.5907725,
          "velocity": 0.7007874015748031
        },
        {
          "duration": 0.227272499999998,
          "durationTicks": 480,
          "midi": 61,
          "name": "C#4",
          "ticks": 288480,
          "time": 136.5907725,
          "velocity": 0.7007874015748031
        },
        {
          "duration": 0.227272499999998,
          "durationTicks": 480,
          "midi": 66,
          "name": "F#4",
          "ticks": 289440,
          "time": 137.0453175,
          "velocity": 0.7007874015748031
        },
        {
          "duration": 0.227272499999998,
          "durationTicks": 480,
          "midi": 61,
          "name": "C#4",
          "ticks": 289440,
          "time": 137.0453175,
          "velocity": 0.7007874015748031
        },
        {
          "duration": 0.227272499999998,
          "durationTicks": 480,
          "midi": 58,
          "name": "A#3",
          "ticks": 289440,
          "time": 137.0453175,
          "velocity": 0.7007874015748031
        },
        {
          "duration": 0.227272499999998,
          "durationTicks": 480,
          "midi": 66,
          "name": "F#4",
          "ticks": 290400,
          "time": 137.4998625,
          "velocity": 0.7007874015748031
        },
        {
          "duration": 0.227272499999998,
          "durationTicks": 480,
          "midi": 61,
          "name": "C#4",
          "ticks": 290400,
          "time": 137.4998625,
          "velocity": 0.7007874015748031
        },
        {
          "duration": 0.227272499999998,
          "durationTicks": 480,
          "midi": 58,
          "name": "A#3",
          "ticks": 290400,
          "time": 137.4998625,
          "velocity": 0.7007874015748031
        },
        {
          "duration": 0.227272499999998,
          "durationTicks": 480,
          "midi": 66,
          "name": "F#4",
          "ticks": 291360,
          "time": 137.9544075,
          "velocity": 0.7007874015748031
        },
        {
          "duration": 0.227272499999998,
          "durationTicks": 480,
          "midi": 61,
          "name": "C#4",
          "ticks": 291360,
          "time": 137.9544075,
          "velocity": 0.7007874015748031
        },
        {
          "duration": 0.227272499999998,
          "durationTicks": 480,
          "midi": 58,
          "name": "A#3",
          "ticks": 291360,
          "time": 137.9544075,
          "velocity": 0.7007874015748031
        },
        {
          "duration": 0.227272499999998,
          "durationTicks": 480,
          "midi": 59,
          "name": "B3",
          "ticks": 292320,
          "time": 138.4089525,
          "velocity": 0.7007874015748031
        },
        {
          "duration": 0.227272499999998,
          "durationTicks": 480,
          "midi": 56,
          "name": "G#3",
          "ticks": 292320,
          "time": 138.4089525,
          "velocity": 0.7007874015748031
        },
        {
          "duration": 0.227272499999998,
          "durationTicks": 480,
          "midi": 64,
          "name": "E4",
          "ticks": 292320,
          "time": 138.4089525,
          "velocity": 0.7007874015748031
        },
        {
          "duration": 0.227272499999998,
          "durationTicks": 480,
          "midi": 66,
          "name": "F#4",
          "ticks": 292320,
          "time": 138.4089525,
          "velocity": 0.7007874015748031
        },
        {
          "duration": 0.227272499999998,
          "durationTicks": 480,
          "midi": 59,
          "name": "B3",
          "ticks": 293280,
          "time": 138.86349750000002,
          "velocity": 0.7007874015748031
        },
        {
          "duration": 0.227272499999998,
          "durationTicks": 480,
          "midi": 56,
          "name": "G#3",
          "ticks": 293280,
          "time": 138.86349750000002,
          "velocity": 0.7007874015748031
        },
        {
          "duration": 0.227272499999998,
          "durationTicks": 480,
          "midi": 64,
          "name": "E4",
          "ticks": 293280,
          "time": 138.86349750000002,
          "velocity": 0.7007874015748031
        },
        {
          "duration": 0.227272499999998,
          "durationTicks": 480,
          "midi": 66,
          "name": "F#4",
          "ticks": 293280,
          "time": 138.86349750000002,
          "velocity": 0.7007874015748031
        },
        {
          "duration": 0.227272499999998,
          "durationTicks": 480,
          "midi": 59,
          "name": "B3",
          "ticks": 294240,
          "time": 139.31804250000002,
          "velocity": 0.7007874015748031
        },
        {
          "duration": 0.227272499999998,
          "durationTicks": 480,
          "midi": 56,
          "name": "G#3",
          "ticks": 294240,
          "time": 139.31804250000002,
          "velocity": 0.7007874015748031
        },
        {
          "duration": 0.227272499999998,
          "durationTicks": 480,
          "midi": 64,
          "name": "E4",
          "ticks": 294240,
          "time": 139.31804250000002,
          "velocity": 0.7007874015748031
        },
        {
          "duration": 0.227272499999998,
          "durationTicks": 480,
          "midi": 59,
          "name": "B3",
          "ticks": 295200,
          "time": 139.77258750000001,
          "velocity": 0.7007874015748031
        },
        {
          "duration": 0.227272499999998,
          "durationTicks": 480,
          "midi": 56,
          "name": "G#3",
          "ticks": 295200,
          "time": 139.77258750000001,
          "velocity": 0.7007874015748031
        },
        {
          "duration": 0.227272499999998,
          "durationTicks": 480,
          "midi": 64,
          "name": "E4",
          "ticks": 295200,
          "time": 139.77258750000001,
          "velocity": 0.7007874015748031
        },
        {
          "duration": 0.227272499999998,
          "durationTicks": 480,
          "midi": 63,
          "name": "D#4",
          "ticks": 295680,
          "time": 139.99986,
          "velocity": 0.7007874015748031
        },
        {
          "duration": 0.227272499999998,
          "durationTicks": 480,
          "midi": 59,
          "name": "B3",
          "ticks": 295680,
          "time": 139.99986,
          "velocity": 0.7007874015748031
        },
        {
          "duration": 0.227272499999998,
          "durationTicks": 480,
          "midi": 56,
          "name": "G#3",
          "ticks": 295680,
          "time": 139.99986,
          "velocity": 0.7007874015748031
        },
        {
          "duration": 0.227272499999998,
          "durationTicks": 480,
          "midi": 63,
          "name": "D#4",
          "ticks": 296160,
          "time": 140.2271325,
          "velocity": 0.7007874015748031
        },
        {
          "duration": 0.227272499999998,
          "durationTicks": 480,
          "midi": 59,
          "name": "B3",
          "ticks": 296160,
          "time": 140.2271325,
          "velocity": 0.7007874015748031
        },
        {
          "duration": 0.227272499999998,
          "durationTicks": 480,
          "midi": 56,
          "name": "G#3",
          "ticks": 296160,
          "time": 140.2271325,
          "velocity": 0.7007874015748031
        },
        {
          "duration": 0.227272499999998,
          "durationTicks": 480,
          "midi": 63,
          "name": "D#4",
          "ticks": 297120,
          "time": 140.6816775,
          "velocity": 0.7007874015748031
        },
        {
          "duration": 0.227272499999998,
          "durationTicks": 480,
          "midi": 59,
          "name": "B3",
          "ticks": 297120,
          "time": 140.6816775,
          "velocity": 0.7007874015748031
        },
        {
          "duration": 0.227272499999998,
          "durationTicks": 480,
          "midi": 56,
          "name": "G#3",
          "ticks": 297120,
          "time": 140.6816775,
          "velocity": 0.7007874015748031
        },
        {
          "duration": 0.227272499999998,
          "durationTicks": 480,
          "midi": 63,
          "name": "D#4",
          "ticks": 298080,
          "time": 141.1362225,
          "velocity": 0.7007874015748031
        },
        {
          "duration": 0.227272499999998,
          "durationTicks": 480,
          "midi": 59,
          "name": "B3",
          "ticks": 298080,
          "time": 141.1362225,
          "velocity": 0.7007874015748031
        },
        {
          "duration": 0.227272499999998,
          "durationTicks": 480,
          "midi": 56,
          "name": "G#3",
          "ticks": 298080,
          "time": 141.1362225,
          "velocity": 0.7007874015748031
        },
        {
          "duration": 0.2272725000000264,
          "durationTicks": 480,
          "midi": 63,
          "name": "D#4",
          "ticks": 299520,
          "time": 141.81804,
          "velocity": 0.7007874015748031
        },
        {
          "duration": 0.2272725000000264,
          "durationTicks": 480,
          "midi": 59,
          "name": "B3",
          "ticks": 299520,
          "time": 141.81804,
          "velocity": 0.7007874015748031
        },
        {
          "duration": 0.2272725000000264,
          "durationTicks": 480,
          "midi": 54,
          "name": "F#3",
          "ticks": 299520,
          "time": 141.81804,
          "velocity": 0.7007874015748031
        },
        {
          "duration": 0.227272499999998,
          "durationTicks": 480,
          "midi": 63,
          "name": "D#4",
          "ticks": 300000,
          "time": 142.04531250000002,
          "velocity": 0.7007874015748031
        },
        {
          "duration": 0.227272499999998,
          "durationTicks": 480,
          "midi": 59,
          "name": "B3",
          "ticks": 300000,
          "time": 142.04531250000002,
          "velocity": 0.7007874015748031
        },
        {
          "duration": 0.227272499999998,
          "durationTicks": 480,
          "midi": 54,
          "name": "F#3",
          "ticks": 300000,
          "time": 142.04531250000002,
          "velocity": 0.7007874015748031
        },
        {
          "duration": 0.227272499999998,
          "durationTicks": 480,
          "midi": 63,
          "name": "D#4",
          "ticks": 300960,
          "time": 142.49985750000002,
          "velocity": 0.7007874015748031
        },
        {
          "duration": 0.227272499999998,
          "durationTicks": 480,
          "midi": 59,
          "name": "B3",
          "ticks": 300960,
          "time": 142.49985750000002,
          "velocity": 0.7007874015748031
        },
        {
          "duration": 0.227272499999998,
          "durationTicks": 480,
          "midi": 54,
          "name": "F#3",
          "ticks": 300960,
          "time": 142.49985750000002,
          "velocity": 0.7007874015748031
        },
        {
          "duration": 0.227272499999998,
          "durationTicks": 480,
          "midi": 63,
          "name": "D#4",
          "ticks": 301920,
          "time": 142.95440250000001,
          "velocity": 0.7007874015748031
        },
        {
          "duration": 0.227272499999998,
          "durationTicks": 480,
          "midi": 59,
          "name": "B3",
          "ticks": 301920,
          "time": 142.95440250000001,
          "velocity": 0.7007874015748031
        },
        {
          "duration": 0.227272499999998,
          "durationTicks": 480,
          "midi": 54,
          "name": "F#3",
          "ticks": 301920,
          "time": 142.95440250000001,
          "velocity": 0.7007874015748031
        },
        {
          "duration": 0.227272499999998,
          "durationTicks": 480,
          "midi": 66,
          "name": "F#4",
          "ticks": 303360,
          "time": 143.63622,
          "velocity": 0.7007874015748031
        },
        {
          "duration": 0.227272499999998,
          "durationTicks": 480,
          "midi": 58,
          "name": "A#3",
          "ticks": 303360,
          "time": 143.63622,
          "velocity": 0.7007874015748031
        },
        {
          "duration": 0.227272499999998,
          "durationTicks": 480,
          "midi": 61,
          "name": "C#4",
          "ticks": 303360,
          "time": 143.63622,
          "velocity": 0.7007874015748031
        },
        {
          "duration": 0.227272499999998,
          "durationTicks": 480,
          "midi": 66,
          "name": "F#4",
          "ticks": 303840,
          "time": 143.8634925,
          "velocity": 0.7007874015748031
        },
        {
          "duration": 0.227272499999998,
          "durationTicks": 480,
          "midi": 61,
          "name": "C#4",
          "ticks": 303840,
          "time": 143.8634925,
          "velocity": 0.7007874015748031
        },
        {
          "duration": 0.227272499999998,
          "durationTicks": 480,
          "midi": 58,
          "name": "A#3",
          "ticks": 303840,
          "time": 143.8634925,
          "velocity": 0.7007874015748031
        },
        {
          "duration": 0.227272499999998,
          "durationTicks": 480,
          "midi": 66,
          "name": "F#4",
          "ticks": 304800,
          "time": 144.3180375,
          "velocity": 0.7007874015748031
        },
        {
          "duration": 0.227272499999998,
          "durationTicks": 480,
          "midi": 61,
          "name": "C#4",
          "ticks": 304800,
          "time": 144.3180375,
          "velocity": 0.7007874015748031
        },
        {
          "duration": 0.227272499999998,
          "durationTicks": 480,
          "midi": 58,
          "name": "A#3",
          "ticks": 304800,
          "time": 144.3180375,
          "velocity": 0.7007874015748031
        },
        {
          "duration": 0.227272499999998,
          "durationTicks": 480,
          "midi": 66,
          "name": "F#4",
          "ticks": 305760,
          "time": 144.7725825,
          "velocity": 0.7007874015748031
        },
        {
          "duration": 0.227272499999998,
          "durationTicks": 480,
          "midi": 61,
          "name": "C#4",
          "ticks": 305760,
          "time": 144.7725825,
          "velocity": 0.7007874015748031
        },
        {
          "duration": 0.227272499999998,
          "durationTicks": 480,
          "midi": 58,
          "name": "A#3",
          "ticks": 305760,
          "time": 144.7725825,
          "velocity": 0.7007874015748031
        },
        {
          "duration": 0.227272499999998,
          "durationTicks": 480,
          "midi": 59,
          "name": "B3",
          "ticks": 307200,
          "time": 145.45440000000002,
          "velocity": 0.7007874015748031
        },
        {
          "duration": 0.227272499999998,
          "durationTicks": 480,
          "midi": 56,
          "name": "G#3",
          "ticks": 307200,
          "time": 145.45440000000002,
          "velocity": 0.7007874015748031
        },
        {
          "duration": 0.227272499999998,
          "durationTicks": 480,
          "midi": 64,
          "name": "E4",
          "ticks": 307200,
          "time": 145.45440000000002,
          "velocity": 0.7007874015748031
        },
        {
          "duration": 0.227272499999998,
          "durationTicks": 480,
          "midi": 59,
          "name": "B3",
          "ticks": 307680,
          "time": 145.68167250000002,
          "velocity": 0.7007874015748031
        },
        {
          "duration": 0.227272499999998,
          "durationTicks": 480,
          "midi": 56,
          "name": "G#3",
          "ticks": 307680,
          "time": 145.68167250000002,
          "velocity": 0.7007874015748031
        },
        {
          "duration": 0.227272499999998,
          "durationTicks": 480,
          "midi": 64,
          "name": "E4",
          "ticks": 307680,
          "time": 145.68167250000002,
          "velocity": 0.7007874015748031
        },
        {
          "duration": 0.227272499999998,
          "durationTicks": 480,
          "midi": 59,
          "name": "B3",
          "ticks": 308640,
          "time": 146.13621750000001,
          "velocity": 0.7007874015748031
        },
        {
          "duration": 0.227272499999998,
          "durationTicks": 480,
          "midi": 56,
          "name": "G#3",
          "ticks": 308640,
          "time": 146.13621750000001,
          "velocity": 0.7007874015748031
        },
        {
          "duration": 0.227272499999998,
          "durationTicks": 480,
          "midi": 64,
          "name": "E4",
          "ticks": 308640,
          "time": 146.13621750000001,
          "velocity": 0.7007874015748031
        },
        {
          "duration": 0.227272499999998,
          "durationTicks": 480,
          "midi": 59,
          "name": "B3",
          "ticks": 309600,
          "time": 146.5907625,
          "velocity": 0.7007874015748031
        },
        {
          "duration": 0.227272499999998,
          "durationTicks": 480,
          "midi": 56,
          "name": "G#3",
          "ticks": 309600,
          "time": 146.5907625,
          "velocity": 0.7007874015748031
        },
        {
          "duration": 0.227272499999998,
          "durationTicks": 480,
          "midi": 64,
          "name": "E4",
          "ticks": 309600,
          "time": 146.5907625,
          "velocity": 0.7007874015748031
        },
        {
          "duration": 0.227272499999998,
          "durationTicks": 480,
          "midi": 63,
          "name": "D#4",
          "ticks": 311040,
          "time": 147.27258,
          "velocity": 0.7007874015748031
        },
        {
          "duration": 0.227272499999998,
          "durationTicks": 480,
          "midi": 59,
          "name": "B3",
          "ticks": 311040,
          "time": 147.27258,
          "velocity": 0.7007874015748031
        },
        {
          "duration": 0.227272499999998,
          "durationTicks": 480,
          "midi": 56,
          "name": "G#3",
          "ticks": 311040,
          "time": 147.27258,
          "velocity": 0.7007874015748031
        },
        {
          "duration": 0.227272499999998,
          "durationTicks": 480,
          "midi": 63,
          "name": "D#4",
          "ticks": 311520,
          "time": 147.4998525,
          "velocity": 0.7007874015748031
        },
        {
          "duration": 0.227272499999998,
          "durationTicks": 480,
          "midi": 59,
          "name": "B3",
          "ticks": 311520,
          "time": 147.4998525,
          "velocity": 0.7007874015748031
        },
        {
          "duration": 0.227272499999998,
          "durationTicks": 480,
          "midi": 56,
          "name": "G#3",
          "ticks": 311520,
          "time": 147.4998525,
          "velocity": 0.7007874015748031
        },
        {
          "duration": 0.227272499999998,
          "durationTicks": 480,
          "midi": 63,
          "name": "D#4",
          "ticks": 312480,
          "time": 147.9543975,
          "velocity": 0.7007874015748031
        },
        {
          "duration": 0.227272499999998,
          "durationTicks": 480,
          "midi": 59,
          "name": "B3",
          "ticks": 312480,
          "time": 147.9543975,
          "velocity": 0.7007874015748031
        },
        {
          "duration": 0.227272499999998,
          "durationTicks": 480,
          "midi": 56,
          "name": "G#3",
          "ticks": 312480,
          "time": 147.9543975,
          "velocity": 0.7007874015748031
        },
        {
          "duration": 0.227272499999998,
          "durationTicks": 480,
          "midi": 63,
          "name": "D#4",
          "ticks": 313440,
          "time": 148.40894250000002,
          "velocity": 0.7007874015748031
        },
        {
          "duration": 0.227272499999998,
          "durationTicks": 480,
          "midi": 59,
          "name": "B3",
          "ticks": 313440,
          "time": 148.40894250000002,
          "velocity": 0.7007874015748031
        },
        {
          "duration": 0.227272499999998,
          "durationTicks": 480,
          "midi": 56,
          "name": "G#3",
          "ticks": 313440,
          "time": 148.40894250000002,
          "velocity": 0.7007874015748031
        },
        {
          "duration": 0.227272499999998,
          "durationTicks": 480,
          "midi": 63,
          "name": "D#4",
          "ticks": 314880,
          "time": 149.09076000000002,
          "velocity": 0.7007874015748031
        },
        {
          "duration": 0.227272499999998,
          "durationTicks": 480,
          "midi": 59,
          "name": "B3",
          "ticks": 314880,
          "time": 149.09076000000002,
          "velocity": 0.7007874015748031
        },
        {
          "duration": 0.227272499999998,
          "durationTicks": 480,
          "midi": 54,
          "name": "F#3",
          "ticks": 314880,
          "time": 149.09076000000002,
          "velocity": 0.7007874015748031
        },
        {
          "duration": 0.227272499999998,
          "durationTicks": 480,
          "midi": 63,
          "name": "D#4",
          "ticks": 315360,
          "time": 149.31803250000002,
          "velocity": 0.7007874015748031
        },
        {
          "duration": 0.227272499999998,
          "durationTicks": 480,
          "midi": 59,
          "name": "B3",
          "ticks": 315360,
          "time": 149.31803250000002,
          "velocity": 0.7007874015748031
        },
        {
          "duration": 0.227272499999998,
          "durationTicks": 480,
          "midi": 54,
          "name": "F#3",
          "ticks": 315360,
          "time": 149.31803250000002,
          "velocity": 0.7007874015748031
        },
        {
          "duration": 0.227272499999998,
          "durationTicks": 480,
          "midi": 63,
          "name": "D#4",
          "ticks": 316320,
          "time": 149.7725775,
          "velocity": 0.7007874015748031
        },
        {
          "duration": 0.227272499999998,
          "durationTicks": 480,
          "midi": 59,
          "name": "B3",
          "ticks": 316320,
          "time": 149.7725775,
          "velocity": 0.7007874015748031
        },
        {
          "duration": 0.227272499999998,
          "durationTicks": 480,
          "midi": 54,
          "name": "F#3",
          "ticks": 316320,
          "time": 149.7725775,
          "velocity": 0.7007874015748031
        },
        {
          "duration": 0.227272499999998,
          "durationTicks": 480,
          "midi": 63,
          "name": "D#4",
          "ticks": 317280,
          "time": 150.2271225,
          "velocity": 0.7007874015748031
        },
        {
          "duration": 0.227272499999998,
          "durationTicks": 480,
          "midi": 59,
          "name": "B3",
          "ticks": 317280,
          "time": 150.2271225,
          "velocity": 0.7007874015748031
        },
        {
          "duration": 0.227272499999998,
          "durationTicks": 480,
          "midi": 54,
          "name": "F#3",
          "ticks": 317280,
          "time": 150.2271225,
          "velocity": 0.7007874015748031
        },
        {
          "duration": 0.227272499999998,
          "durationTicks": 480,
          "midi": 66,
          "name": "F#4",
          "ticks": 318720,
          "time": 150.90894,
          "velocity": 0.7007874015748031
        },
        {
          "duration": 0.227272499999998,
          "durationTicks": 480,
          "midi": 58,
          "name": "A#3",
          "ticks": 318720,
          "time": 150.90894,
          "velocity": 0.7007874015748031
        },
        {
          "duration": 0.227272499999998,
          "durationTicks": 480,
          "midi": 61,
          "name": "C#4",
          "ticks": 318720,
          "time": 150.90894,
          "velocity": 0.7007874015748031
        },
        {
          "duration": 0.227272499999998,
          "durationTicks": 480,
          "midi": 66,
          "name": "F#4",
          "ticks": 319200,
          "time": 151.1362125,
          "velocity": 0.7007874015748031
        },
        {
          "duration": 0.227272499999998,
          "durationTicks": 480,
          "midi": 61,
          "name": "C#4",
          "ticks": 319200,
          "time": 151.1362125,
          "velocity": 0.7007874015748031
        },
        {
          "duration": 0.227272499999998,
          "durationTicks": 480,
          "midi": 58,
          "name": "A#3",
          "ticks": 319200,
          "time": 151.1362125,
          "velocity": 0.7007874015748031
        },
        {
          "duration": 0.227272499999998,
          "durationTicks": 480,
          "midi": 66,
          "name": "F#4",
          "ticks": 320160,
          "time": 151.59075750000002,
          "velocity": 0.7007874015748031
        },
        {
          "duration": 0.227272499999998,
          "durationTicks": 480,
          "midi": 61,
          "name": "C#4",
          "ticks": 320160,
          "time": 151.59075750000002,
          "velocity": 0.7007874015748031
        },
        {
          "duration": 0.227272499999998,
          "durationTicks": 480,
          "midi": 58,
          "name": "A#3",
          "ticks": 320160,
          "time": 151.59075750000002,
          "velocity": 0.7007874015748031
        },
        {
          "duration": 0.227272499999998,
          "durationTicks": 480,
          "midi": 66,
          "name": "F#4",
          "ticks": 321120,
          "time": 152.04530250000002,
          "velocity": 0.7007874015748031
        },
        {
          "duration": 0.227272499999998,
          "durationTicks": 480,
          "midi": 61,
          "name": "C#4",
          "ticks": 321120,
          "time": 152.04530250000002,
          "velocity": 0.7007874015748031
        },
        {
          "duration": 0.227272499999998,
          "durationTicks": 480,
          "midi": 58,
          "name": "A#3",
          "ticks": 321120,
          "time": 152.04530250000002,
          "velocity": 0.7007874015748031
        },
        {
          "duration": 0.227272499999998,
          "durationTicks": 480,
          "midi": 64,
          "name": "E4",
          "ticks": 322560,
          "time": 152.72712,
          "velocity": 0.7007874015748031
        },
        {
          "duration": 0.227272499999998,
          "durationTicks": 480,
          "midi": 56,
          "name": "G#3",
          "ticks": 322560,
          "time": 152.72712,
          "velocity": 0.7007874015748031
        },
        {
          "duration": 0.227272499999998,
          "durationTicks": 480,
          "midi": 59,
          "name": "B3",
          "ticks": 322560,
          "time": 152.72712,
          "velocity": 0.7007874015748031
        },
        {
          "duration": 0.227272499999998,
          "durationTicks": 480,
          "midi": 64,
          "name": "E4",
          "ticks": 323040,
          "time": 152.9543925,
          "velocity": 0.7007874015748031
        },
        {
          "duration": 0.227272499999998,
          "durationTicks": 480,
          "midi": 56,
          "name": "G#3",
          "ticks": 323040,
          "time": 152.9543925,
          "velocity": 0.7007874015748031
        },
        {
          "duration": 0.227272499999998,
          "durationTicks": 480,
          "midi": 59,
          "name": "B3",
          "ticks": 323040,
          "time": 152.9543925,
          "velocity": 0.7007874015748031
        },
        {
          "duration": 0.227272499999998,
          "durationTicks": 480,
          "midi": 64,
          "name": "E4",
          "ticks": 324000,
          "time": 153.4089375,
          "velocity": 0.7007874015748031
        },
        {
          "duration": 0.227272499999998,
          "durationTicks": 480,
          "midi": 56,
          "name": "G#3",
          "ticks": 324000,
          "time": 153.4089375,
          "velocity": 0.7007874015748031
        },
        {
          "duration": 0.227272499999998,
          "durationTicks": 480,
          "midi": 59,
          "name": "B3",
          "ticks": 324000,
          "time": 153.4089375,
          "velocity": 0.7007874015748031
        },
        {
          "duration": 0.227272499999998,
          "durationTicks": 480,
          "midi": 64,
          "name": "E4",
          "ticks": 324960,
          "time": 153.8634825,
          "velocity": 0.7007874015748031
        },
        {
          "duration": 0.227272499999998,
          "durationTicks": 480,
          "midi": 56,
          "name": "G#3",
          "ticks": 324960,
          "time": 153.8634825,
          "velocity": 0.7007874015748031
        },
        {
          "duration": 0.227272499999998,
          "durationTicks": 480,
          "midi": 59,
          "name": "B3",
          "ticks": 324960,
          "time": 153.8634825,
          "velocity": 0.7007874015748031
        },
        {
          "duration": 0.2272725000000264,
          "durationTicks": 480,
          "midi": 63,
          "name": "D#4",
          "ticks": 326400,
          "time": 154.5453,
          "velocity": 0.7007874015748031
        },
        {
          "duration": 0.2272725000000264,
          "durationTicks": 480,
          "midi": 59,
          "name": "B3",
          "ticks": 326400,
          "time": 154.5453,
          "velocity": 0.7007874015748031
        },
        {
          "duration": 0.2272725000000264,
          "durationTicks": 480,
          "midi": 56,
          "name": "G#3",
          "ticks": 326400,
          "time": 154.5453,
          "velocity": 0.7007874015748031
        },
        {
          "duration": 0.227272499999998,
          "durationTicks": 480,
          "midi": 63,
          "name": "D#4",
          "ticks": 326880,
          "time": 154.77257250000002,
          "velocity": 0.7007874015748031
        },
        {
          "duration": 0.227272499999998,
          "durationTicks": 480,
          "midi": 59,
          "name": "B3",
          "ticks": 326880,
          "time": 154.77257250000002,
          "velocity": 0.7007874015748031
        },
        {
          "duration": 0.227272499999998,
          "durationTicks": 480,
          "midi": 56,
          "name": "G#3",
          "ticks": 326880,
          "time": 154.77257250000002,
          "velocity": 0.7007874015748031
        },
        {
          "duration": 0.227272499999998,
          "durationTicks": 480,
          "midi": 63,
          "name": "D#4",
          "ticks": 327840,
          "time": 155.22711750000002,
          "velocity": 0.7007874015748031
        },
        {
          "duration": 0.227272499999998,
          "durationTicks": 480,
          "midi": 59,
          "name": "B3",
          "ticks": 327840,
          "time": 155.22711750000002,
          "velocity": 0.7007874015748031
        },
        {
          "duration": 0.227272499999998,
          "durationTicks": 480,
          "midi": 56,
          "name": "G#3",
          "ticks": 327840,
          "time": 155.22711750000002,
          "velocity": 0.7007874015748031
        },
        {
          "duration": 0.227272499999998,
          "durationTicks": 480,
          "midi": 63,
          "name": "D#4",
          "ticks": 328800,
          "time": 155.68166250000002,
          "velocity": 0.7007874015748031
        },
        {
          "duration": 0.227272499999998,
          "durationTicks": 480,
          "midi": 59,
          "name": "B3",
          "ticks": 328800,
          "time": 155.68166250000002,
          "velocity": 0.7007874015748031
        },
        {
          "duration": 0.227272499999998,
          "durationTicks": 480,
          "midi": 56,
          "name": "G#3",
          "ticks": 328800,
          "time": 155.68166250000002,
          "velocity": 0.7007874015748031
        },
        {
          "duration": 0.227272499999998,
          "durationTicks": 480,
          "midi": 63,
          "name": "D#4",
          "ticks": 330240,
          "time": 156.36348,
          "velocity": 0.7007874015748031
        },
        {
          "duration": 0.227272499999998,
          "durationTicks": 480,
          "midi": 59,
          "name": "B3",
          "ticks": 330240,
          "time": 156.36348,
          "velocity": 0.7007874015748031
        },
        {
          "duration": 0.227272499999998,
          "durationTicks": 480,
          "midi": 54,
          "name": "F#3",
          "ticks": 330240,
          "time": 156.36348,
          "velocity": 0.7007874015748031
        },
        {
          "duration": 0.227272499999998,
          "durationTicks": 480,
          "midi": 63,
          "name": "D#4",
          "ticks": 330720,
          "time": 156.5907525,
          "velocity": 0.7007874015748031
        },
        {
          "duration": 0.227272499999998,
          "durationTicks": 480,
          "midi": 59,
          "name": "B3",
          "ticks": 330720,
          "time": 156.5907525,
          "velocity": 0.7007874015748031
        },
        {
          "duration": 0.227272499999998,
          "durationTicks": 480,
          "midi": 54,
          "name": "F#3",
          "ticks": 330720,
          "time": 156.5907525,
          "velocity": 0.7007874015748031
        },
        {
          "duration": 0.227272499999998,
          "durationTicks": 480,
          "midi": 63,
          "name": "D#4",
          "ticks": 331680,
          "time": 157.0452975,
          "velocity": 0.7007874015748031
        },
        {
          "duration": 0.227272499999998,
          "durationTicks": 480,
          "midi": 59,
          "name": "B3",
          "ticks": 331680,
          "time": 157.0452975,
          "velocity": 0.7007874015748031
        },
        {
          "duration": 0.227272499999998,
          "durationTicks": 480,
          "midi": 54,
          "name": "F#3",
          "ticks": 331680,
          "time": 157.0452975,
          "velocity": 0.7007874015748031
        },
        {
          "duration": 0.227272499999998,
          "durationTicks": 480,
          "midi": 63,
          "name": "D#4",
          "ticks": 332640,
          "time": 157.4998425,
          "velocity": 0.7007874015748031
        },
        {
          "duration": 0.227272499999998,
          "durationTicks": 480,
          "midi": 59,
          "name": "B3",
          "ticks": 332640,
          "time": 157.4998425,
          "velocity": 0.7007874015748031
        },
        {
          "duration": 0.227272499999998,
          "durationTicks": 480,
          "midi": 54,
          "name": "F#3",
          "ticks": 332640,
          "time": 157.4998425,
          "velocity": 0.7007874015748031
        },
        {
          "duration": 0.227272499999998,
          "durationTicks": 480,
          "midi": 66,
          "name": "F#4",
          "ticks": 334080,
          "time": 158.18166000000002,
          "velocity": 0.7007874015748031
        },
        {
          "duration": 0.227272499999998,
          "durationTicks": 480,
          "midi": 58,
          "name": "A#3",
          "ticks": 334080,
          "time": 158.18166000000002,
          "velocity": 0.7007874015748031
        },
        {
          "duration": 0.227272499999998,
          "durationTicks": 480,
          "midi": 61,
          "name": "C#4",
          "ticks": 334080,
          "time": 158.18166000000002,
          "velocity": 0.7007874015748031
        },
        {
          "duration": 0.227272499999998,
          "durationTicks": 480,
          "midi": 66,
          "name": "F#4",
          "ticks": 334560,
          "time": 158.40893250000002,
          "velocity": 0.7007874015748031
        },
        {
          "duration": 0.227272499999998,
          "durationTicks": 480,
          "midi": 61,
          "name": "C#4",
          "ticks": 334560,
          "time": 158.40893250000002,
          "velocity": 0.7007874015748031
        },
        {
          "duration": 0.227272499999998,
          "durationTicks": 480,
          "midi": 58,
          "name": "A#3",
          "ticks": 334560,
          "time": 158.40893250000002,
          "velocity": 0.7007874015748031
        },
        {
          "duration": 0.227272499999998,
          "durationTicks": 480,
          "midi": 66,
          "name": "F#4",
          "ticks": 335520,
          "time": 158.86347750000002,
          "velocity": 0.7007874015748031
        },
        {
          "duration": 0.227272499999998,
          "durationTicks": 480,
          "midi": 61,
          "name": "C#4",
          "ticks": 335520,
          "time": 158.86347750000002,
          "velocity": 0.7007874015748031
        },
        {
          "duration": 0.227272499999998,
          "durationTicks": 480,
          "midi": 58,
          "name": "A#3",
          "ticks": 335520,
          "time": 158.86347750000002,
          "velocity": 0.7007874015748031
        },
        {
          "duration": 0.227272499999998,
          "durationTicks": 480,
          "midi": 66,
          "name": "F#4",
          "ticks": 336480,
          "time": 159.3180225,
          "velocity": 0.7007874015748031
        },
        {
          "duration": 0.227272499999998,
          "durationTicks": 480,
          "midi": 61,
          "name": "C#4",
          "ticks": 336480,
          "time": 159.3180225,
          "velocity": 0.7007874015748031
        },
        {
          "duration": 0.227272499999998,
          "durationTicks": 480,
          "midi": 58,
          "name": "A#3",
          "ticks": 336480,
          "time": 159.3180225,
          "velocity": 0.7007874015748031
        },
        {
          "duration": 0.227272499999998,
          "durationTicks": 480,
          "midi": 59,
          "name": "B3",
          "ticks": 337920,
          "time": 159.99984,
          "velocity": 0.7007874015748031
        },
        {
          "duration": 0.227272499999998,
          "durationTicks": 480,
          "midi": 56,
          "name": "G#3",
          "ticks": 337920,
          "time": 159.99984,
          "velocity": 0.7007874015748031
        },
        {
          "duration": 0.227272499999998,
          "durationTicks": 480,
          "midi": 64,
          "name": "E4",
          "ticks": 337920,
          "time": 159.99984,
          "velocity": 0.7007874015748031
        },
        {
          "duration": 0.227272499999998,
          "durationTicks": 480,
          "midi": 59,
          "name": "B3",
          "ticks": 338400,
          "time": 160.2271125,
          "velocity": 0.7007874015748031
        },
        {
          "duration": 0.227272499999998,
          "durationTicks": 480,
          "midi": 56,
          "name": "G#3",
          "ticks": 338400,
          "time": 160.2271125,
          "velocity": 0.7007874015748031
        },
        {
          "duration": 0.227272499999998,
          "durationTicks": 480,
          "midi": 64,
          "name": "E4",
          "ticks": 338400,
          "time": 160.2271125,
          "velocity": 0.7007874015748031
        },
        {
          "duration": 0.227272499999998,
          "durationTicks": 480,
          "midi": 59,
          "name": "B3",
          "ticks": 339360,
          "time": 160.6816575,
          "velocity": 0.7007874015748031
        },
        {
          "duration": 0.227272499999998,
          "durationTicks": 480,
          "midi": 56,
          "name": "G#3",
          "ticks": 339360,
          "time": 160.6816575,
          "velocity": 0.7007874015748031
        },
        {
          "duration": 0.227272499999998,
          "durationTicks": 480,
          "midi": 64,
          "name": "E4",
          "ticks": 339360,
          "time": 160.6816575,
          "velocity": 0.7007874015748031
        },
        {
          "duration": 0.227272499999998,
          "durationTicks": 480,
          "midi": 59,
          "name": "B3",
          "ticks": 340320,
          "time": 161.13620250000002,
          "velocity": 0.7007874015748031
        },
        {
          "duration": 0.227272499999998,
          "durationTicks": 480,
          "midi": 56,
          "name": "G#3",
          "ticks": 340320,
          "time": 161.13620250000002,
          "velocity": 0.7007874015748031
        },
        {
          "duration": 0.227272499999998,
          "durationTicks": 480,
          "midi": 64,
          "name": "E4",
          "ticks": 340320,
          "time": 161.13620250000002,
          "velocity": 0.7007874015748031
        },
        {
          "duration": 0.227272499999998,
          "durationTicks": 480,
          "midi": 63,
          "name": "D#4",
          "ticks": 341760,
          "time": 161.81802000000002,
          "velocity": 0.7007874015748031
        },
        {
          "duration": 0.227272499999998,
          "durationTicks": 480,
          "midi": 59,
          "name": "B3",
          "ticks": 341760,
          "time": 161.81802000000002,
          "velocity": 0.7007874015748031
        },
        {
          "duration": 0.227272499999998,
          "durationTicks": 480,
          "midi": 56,
          "name": "G#3",
          "ticks": 341760,
          "time": 161.81802000000002,
          "velocity": 0.7007874015748031
        },
        {
          "duration": 0.227272499999998,
          "durationTicks": 480,
          "midi": 63,
          "name": "D#4",
          "ticks": 342240,
          "time": 162.04529250000002,
          "velocity": 0.7007874015748031
        },
        {
          "duration": 0.227272499999998,
          "durationTicks": 480,
          "midi": 59,
          "name": "B3",
          "ticks": 342240,
          "time": 162.04529250000002,
          "velocity": 0.7007874015748031
        },
        {
          "duration": 0.227272499999998,
          "durationTicks": 480,
          "midi": 56,
          "name": "G#3",
          "ticks": 342240,
          "time": 162.04529250000002,
          "velocity": 0.7007874015748031
        },
        {
          "duration": 0.227272499999998,
          "durationTicks": 480,
          "midi": 63,
          "name": "D#4",
          "ticks": 343200,
          "time": 162.4998375,
          "velocity": 0.7007874015748031
        },
        {
          "duration": 0.227272499999998,
          "durationTicks": 480,
          "midi": 59,
          "name": "B3",
          "ticks": 343200,
          "time": 162.4998375,
          "velocity": 0.7007874015748031
        },
        {
          "duration": 0.227272499999998,
          "durationTicks": 480,
          "midi": 56,
          "name": "G#3",
          "ticks": 343200,
          "time": 162.4998375,
          "velocity": 0.7007874015748031
        },
        {
          "duration": 0.227272499999998,
          "durationTicks": 480,
          "midi": 63,
          "name": "D#4",
          "ticks": 344160,
          "time": 162.9543825,
          "velocity": 0.7007874015748031
        },
        {
          "duration": 0.227272499999998,
          "durationTicks": 480,
          "midi": 59,
          "name": "B3",
          "ticks": 344160,
          "time": 162.9543825,
          "velocity": 0.7007874015748031
        },
        {
          "duration": 0.227272499999998,
          "durationTicks": 480,
          "midi": 56,
          "name": "G#3",
          "ticks": 344160,
          "time": 162.9543825,
          "velocity": 0.7007874015748031
        },
        {
          "duration": 0.227272499999998,
          "durationTicks": 480,
          "midi": 63,
          "name": "D#4",
          "ticks": 345600,
          "time": 163.6362,
          "velocity": 0.7007874015748031
        },
        {
          "duration": 0.227272499999998,
          "durationTicks": 480,
          "midi": 59,
          "name": "B3",
          "ticks": 345600,
          "time": 163.6362,
          "velocity": 0.7007874015748031
        },
        {
          "duration": 0.227272499999998,
          "durationTicks": 480,
          "midi": 54,
          "name": "F#3",
          "ticks": 345600,
          "time": 163.6362,
          "velocity": 0.7007874015748031
        },
        {
          "duration": 0.227272499999998,
          "durationTicks": 480,
          "midi": 63,
          "name": "D#4",
          "ticks": 346080,
          "time": 163.8634725,
          "velocity": 0.7007874015748031
        },
        {
          "duration": 0.227272499999998,
          "durationTicks": 480,
          "midi": 59,
          "name": "B3",
          "ticks": 346080,
          "time": 163.8634725,
          "velocity": 0.7007874015748031
        },
        {
          "duration": 0.227272499999998,
          "durationTicks": 480,
          "midi": 54,
          "name": "F#3",
          "ticks": 346080,
          "time": 163.8634725,
          "velocity": 0.7007874015748031
        },
        {
          "duration": 0.227272499999998,
          "durationTicks": 480,
          "midi": 63,
          "name": "D#4",
          "ticks": 347040,
          "time": 164.31801750000002,
          "velocity": 0.7007874015748031
        },
        {
          "duration": 0.227272499999998,
          "durationTicks": 480,
          "midi": 59,
          "name": "B3",
          "ticks": 347040,
          "time": 164.31801750000002,
          "velocity": 0.7007874015748031
        },
        {
          "duration": 0.227272499999998,
          "durationTicks": 480,
          "midi": 54,
          "name": "F#3",
          "ticks": 347040,
          "time": 164.31801750000002,
          "velocity": 0.7007874015748031
        },
        {
          "duration": 0.227272499999998,
          "durationTicks": 480,
          "midi": 63,
          "name": "D#4",
          "ticks": 348000,
          "time": 164.77256250000002,
          "velocity": 0.7007874015748031
        },
        {
          "duration": 0.227272499999998,
          "durationTicks": 480,
          "midi": 59,
          "name": "B3",
          "ticks": 348000,
          "time": 164.77256250000002,
          "velocity": 0.7007874015748031
        },
        {
          "duration": 0.227272499999998,
          "durationTicks": 480,
          "midi": 54,
          "name": "F#3",
          "ticks": 348000,
          "time": 164.77256250000002,
          "velocity": 0.7007874015748031
        },
        {
          "duration": 0.227272499999998,
          "durationTicks": 480,
          "midi": 66,
          "name": "F#4",
          "ticks": 349440,
          "time": 165.45438000000001,
          "velocity": 0.7007874015748031
        },
        {
          "duration": 0.227272499999998,
          "durationTicks": 480,
          "midi": 58,
          "name": "A#3",
          "ticks": 349440,
          "time": 165.45438000000001,
          "velocity": 0.7007874015748031
        },
        {
          "duration": 0.227272499999998,
          "durationTicks": 480,
          "midi": 61,
          "name": "C#4",
          "ticks": 349440,
          "time": 165.45438000000001,
          "velocity": 0.7007874015748031
        },
        {
          "duration": 0.227272499999998,
          "durationTicks": 480,
          "midi": 66,
          "name": "F#4",
          "ticks": 349920,
          "time": 165.6816525,
          "velocity": 0.7007874015748031
        },
        {
          "duration": 0.227272499999998,
          "durationTicks": 480,
          "midi": 61,
          "name": "C#4",
          "ticks": 349920,
          "time": 165.6816525,
          "velocity": 0.7007874015748031
        },
        {
          "duration": 0.227272499999998,
          "durationTicks": 480,
          "midi": 58,
          "name": "A#3",
          "ticks": 349920,
          "time": 165.6816525,
          "velocity": 0.7007874015748031
        },
        {
          "duration": 0.227272499999998,
          "durationTicks": 480,
          "midi": 66,
          "name": "F#4",
          "ticks": 350880,
          "time": 166.1361975,
          "velocity": 0.7007874015748031
        },
        {
          "duration": 0.227272499999998,
          "durationTicks": 480,
          "midi": 61,
          "name": "C#4",
          "ticks": 350880,
          "time": 166.1361975,
          "velocity": 0.7007874015748031
        },
        {
          "duration": 0.227272499999998,
          "durationTicks": 480,
          "midi": 58,
          "name": "A#3",
          "ticks": 350880,
          "time": 166.1361975,
          "velocity": 0.7007874015748031
        },
        {
          "duration": 0.227272499999998,
          "durationTicks": 480,
          "midi": 66,
          "name": "F#4",
          "ticks": 351840,
          "time": 166.5907425,
          "velocity": 0.7007874015748031
        },
        {
          "duration": 0.227272499999998,
          "durationTicks": 480,
          "midi": 61,
          "name": "C#4",
          "ticks": 351840,
          "time": 166.5907425,
          "velocity": 0.7007874015748031
        },
        {
          "duration": 0.227272499999998,
          "durationTicks": 480,
          "midi": 58,
          "name": "A#3",
          "ticks": 351840,
          "time": 166.5907425,
          "velocity": 0.7007874015748031
        },
        {
          "duration": 0.2272725000000264,
          "durationTicks": 480,
          "midi": 64,
          "name": "E4",
          "ticks": 353280,
          "time": 167.27256,
          "velocity": 0.7007874015748031
        },
        {
          "duration": 0.2272725000000264,
          "durationTicks": 480,
          "midi": 56,
          "name": "G#3",
          "ticks": 353280,
          "time": 167.27256,
          "velocity": 0.7007874015748031
        },
        {
          "duration": 0.2272725000000264,
          "durationTicks": 480,
          "midi": 59,
          "name": "B3",
          "ticks": 353280,
          "time": 167.27256,
          "velocity": 0.7007874015748031
        },
        {
          "duration": 0.227272499999998,
          "durationTicks": 480,
          "midi": 64,
          "name": "E4",
          "ticks": 353760,
          "time": 167.49983250000002,
          "velocity": 0.7007874015748031
        },
        {
          "duration": 0.227272499999998,
          "durationTicks": 480,
          "midi": 56,
          "name": "G#3",
          "ticks": 353760,
          "time": 167.49983250000002,
          "velocity": 0.7007874015748031
        },
        {
          "duration": 0.227272499999998,
          "durationTicks": 480,
          "midi": 59,
          "name": "B3",
          "ticks": 353760,
          "time": 167.49983250000002,
          "velocity": 0.7007874015748031
        },
        {
          "duration": 0.227272499999998,
          "durationTicks": 480,
          "midi": 64,
          "name": "E4",
          "ticks": 354720,
          "time": 167.95437750000002,
          "velocity": 0.7007874015748031
        },
        {
          "duration": 0.227272499999998,
          "durationTicks": 480,
          "midi": 56,
          "name": "G#3",
          "ticks": 354720,
          "time": 167.95437750000002,
          "velocity": 0.7007874015748031
        },
        {
          "duration": 0.227272499999998,
          "durationTicks": 480,
          "midi": 59,
          "name": "B3",
          "ticks": 354720,
          "time": 167.95437750000002,
          "velocity": 0.7007874015748031
        },
        {
          "duration": 0.227272499999998,
          "durationTicks": 480,
          "midi": 64,
          "name": "E4",
          "ticks": 355680,
          "time": 168.40892250000002,
          "velocity": 0.7007874015748031
        },
        {
          "duration": 0.227272499999998,
          "durationTicks": 480,
          "midi": 56,
          "name": "G#3",
          "ticks": 355680,
          "time": 168.40892250000002,
          "velocity": 0.7007874015748031
        },
        {
          "duration": 0.227272499999998,
          "durationTicks": 480,
          "midi": 59,
          "name": "B3",
          "ticks": 355680,
          "time": 168.40892250000002,
          "velocity": 0.7007874015748031
        },
        {
          "duration": 0.227272499999998,
          "durationTicks": 480,
          "midi": 63,
          "name": "D#4",
          "ticks": 357600,
          "time": 169.3180125,
          "velocity": 0.7007874015748031
        },
        {
          "duration": 0.227272499999998,
          "durationTicks": 480,
          "midi": 59,
          "name": "B3",
          "ticks": 357600,
          "time": 169.3180125,
          "velocity": 0.7007874015748031
        },
        {
          "duration": 0.227272499999998,
          "durationTicks": 480,
          "midi": 56,
          "name": "G#3",
          "ticks": 357600,
          "time": 169.3180125,
          "velocity": 0.7007874015748031
        },
        {
          "duration": 0.227272499999998,
          "durationTicks": 480,
          "midi": 63,
          "name": "D#4",
          "ticks": 358560,
          "time": 169.7725575,
          "velocity": 0.7007874015748031
        },
        {
          "duration": 0.227272499999998,
          "durationTicks": 480,
          "midi": 59,
          "name": "B3",
          "ticks": 358560,
          "time": 169.7725575,
          "velocity": 0.7007874015748031
        },
        {
          "duration": 0.227272499999998,
          "durationTicks": 480,
          "midi": 56,
          "name": "G#3",
          "ticks": 358560,
          "time": 169.7725575,
          "velocity": 0.7007874015748031
        },
        {
          "duration": 0.227272499999998,
          "durationTicks": 480,
          "midi": 63,
          "name": "D#4",
          "ticks": 359520,
          "time": 170.2271025,
          "velocity": 0.7007874015748031
        },
        {
          "duration": 0.227272499999998,
          "durationTicks": 480,
          "midi": 59,
          "name": "B3",
          "ticks": 359520,
          "time": 170.2271025,
          "velocity": 0.7007874015748031
        },
        {
          "duration": 0.227272499999998,
          "durationTicks": 480,
          "midi": 56,
          "name": "G#3",
          "ticks": 359520,
          "time": 170.2271025,
          "velocity": 0.7007874015748031
        },
        {
          "duration": 0.227272499999998,
          "durationTicks": 480,
          "midi": 63,
          "name": "D#4",
          "ticks": 360480,
          "time": 170.68164750000003,
          "velocity": 0.7007874015748031
        },
        {
          "duration": 0.227272499999998,
          "durationTicks": 480,
          "midi": 59,
          "name": "B3",
          "ticks": 360480,
          "time": 170.68164750000003,
          "velocity": 0.7007874015748031
        },
        {
          "duration": 0.227272499999998,
          "durationTicks": 480,
          "midi": 56,
          "name": "G#3",
          "ticks": 360480,
          "time": 170.68164750000003,
          "velocity": 0.7007874015748031
        },
        {
          "duration": 0.227272499999998,
          "durationTicks": 480,
          "midi": 63,
          "name": "D#4",
          "ticks": 361440,
          "time": 171.13619250000002,
          "velocity": 0.7007874015748031
        },
        {
          "duration": 0.227272499999998,
          "durationTicks": 480,
          "midi": 59,
          "name": "B3",
          "ticks": 361440,
          "time": 171.13619250000002,
          "velocity": 0.7007874015748031
        },
        {
          "duration": 0.227272499999998,
          "durationTicks": 480,
          "midi": 54,
          "name": "F#3",
          "ticks": 361440,
          "time": 171.13619250000002,
          "velocity": 0.7007874015748031
        },
        {
          "duration": 0.227272499999998,
          "durationTicks": 480,
          "midi": 63,
          "name": "D#4",
          "ticks": 362400,
          "time": 171.59073750000002,
          "velocity": 0.7007874015748031
        },
        {
          "duration": 0.227272499999998,
          "durationTicks": 480,
          "midi": 59,
          "name": "B3",
          "ticks": 362400,
          "time": 171.59073750000002,
          "velocity": 0.7007874015748031
        },
        {
          "duration": 0.227272499999998,
          "durationTicks": 480,
          "midi": 54,
          "name": "F#3",
          "ticks": 362400,
          "time": 171.59073750000002,
          "velocity": 0.7007874015748031
        },
        {
          "duration": 0.227272499999998,
          "durationTicks": 480,
          "midi": 63,
          "name": "D#4",
          "ticks": 363360,
          "time": 172.0452825,
          "velocity": 0.7007874015748031
        },
        {
          "duration": 0.227272499999998,
          "durationTicks": 480,
          "midi": 59,
          "name": "B3",
          "ticks": 363360,
          "time": 172.0452825,
          "velocity": 0.7007874015748031
        },
        {
          "duration": 0.227272499999998,
          "durationTicks": 480,
          "midi": 54,
          "name": "F#3",
          "ticks": 363360,
          "time": 172.0452825,
          "velocity": 0.7007874015748031
        },
        {
          "duration": 0.227272499999998,
          "durationTicks": 480,
          "midi": 63,
          "name": "D#4",
          "ticks": 364320,
          "time": 172.4998275,
          "velocity": 0.7007874015748031
        },
        {
          "duration": 0.227272499999998,
          "durationTicks": 480,
          "midi": 59,
          "name": "B3",
          "ticks": 364320,
          "time": 172.4998275,
          "velocity": 0.7007874015748031
        },
        {
          "duration": 0.227272499999998,
          "durationTicks": 480,
          "midi": 54,
          "name": "F#3",
          "ticks": 364320,
          "time": 172.4998275,
          "velocity": 0.7007874015748031
        },
        {
          "duration": 0.227272499999998,
          "durationTicks": 480,
          "midi": 66,
          "name": "F#4",
          "ticks": 365280,
          "time": 172.9543725,
          "velocity": 0.7007874015748031
        },
        {
          "duration": 0.227272499999998,
          "durationTicks": 480,
          "midi": 58,
          "name": "A#3",
          "ticks": 365280,
          "time": 172.9543725,
          "velocity": 0.7007874015748031
        },
        {
          "duration": 0.227272499999998,
          "durationTicks": 480,
          "midi": 61,
          "name": "C#4",
          "ticks": 365280,
          "time": 172.9543725,
          "velocity": 0.7007874015748031
        },
        {
          "duration": 0.227272499999998,
          "durationTicks": 480,
          "midi": 66,
          "name": "F#4",
          "ticks": 366240,
          "time": 173.4089175,
          "velocity": 0.7007874015748031
        },
        {
          "duration": 0.227272499999998,
          "durationTicks": 480,
          "midi": 61,
          "name": "C#4",
          "ticks": 366240,
          "time": 173.4089175,
          "velocity": 0.7007874015748031
        },
        {
          "duration": 0.227272499999998,
          "durationTicks": 480,
          "midi": 58,
          "name": "A#3",
          "ticks": 366240,
          "time": 173.4089175,
          "velocity": 0.7007874015748031
        },
        {
          "duration": 0.227272499999998,
          "durationTicks": 480,
          "midi": 66,
          "name": "F#4",
          "ticks": 367200,
          "time": 173.86346250000003,
          "velocity": 0.7007874015748031
        },
        {
          "duration": 0.227272499999998,
          "durationTicks": 480,
          "midi": 61,
          "name": "C#4",
          "ticks": 367200,
          "time": 173.86346250000003,
          "velocity": 0.7007874015748031
        },
        {
          "duration": 0.227272499999998,
          "durationTicks": 480,
          "midi": 58,
          "name": "A#3",
          "ticks": 367200,
          "time": 173.86346250000003,
          "velocity": 0.7007874015748031
        },
        {
          "duration": 0.227272499999998,
          "durationTicks": 480,
          "midi": 66,
          "name": "F#4",
          "ticks": 368160,
          "time": 174.31800750000002,
          "velocity": 0.7007874015748031
        },
        {
          "duration": 0.227272499999998,
          "durationTicks": 480,
          "midi": 61,
          "name": "C#4",
          "ticks": 368160,
          "time": 174.31800750000002,
          "velocity": 0.7007874015748031
        },
        {
          "duration": 0.227272499999998,
          "durationTicks": 480,
          "midi": 58,
          "name": "A#3",
          "ticks": 368160,
          "time": 174.31800750000002,
          "velocity": 0.7007874015748031
        },
        {
          "duration": 0.227272499999998,
          "durationTicks": 480,
          "midi": 59,
          "name": "B3",
          "ticks": 369120,
          "time": 174.77255250000002,
          "velocity": 0.7007874015748031
        },
        {
          "duration": 0.227272499999998,
          "durationTicks": 480,
          "midi": 56,
          "name": "G#3",
          "ticks": 369120,
          "time": 174.77255250000002,
          "velocity": 0.7007874015748031
        },
        {
          "duration": 0.227272499999998,
          "durationTicks": 480,
          "midi": 64,
          "name": "E4",
          "ticks": 369120,
          "time": 174.77255250000002,
          "velocity": 0.7007874015748031
        },
        {
          "duration": 0.227272499999998,
          "durationTicks": 480,
          "midi": 66,
          "name": "F#4",
          "ticks": 369120,
          "time": 174.77255250000002,
          "velocity": 0.7007874015748031
        },
        {
          "duration": 0.227272499999998,
          "durationTicks": 480,
          "midi": 59,
          "name": "B3",
          "ticks": 370080,
          "time": 175.2270975,
          "velocity": 0.7007874015748031
        },
        {
          "duration": 0.227272499999998,
          "durationTicks": 480,
          "midi": 56,
          "name": "G#3",
          "ticks": 370080,
          "time": 175.2270975,
          "velocity": 0.7007874015748031
        },
        {
          "duration": 0.227272499999998,
          "durationTicks": 480,
          "midi": 64,
          "name": "E4",
          "ticks": 370080,
          "time": 175.2270975,
          "velocity": 0.7007874015748031
        },
        {
          "duration": 0.227272499999998,
          "durationTicks": 480,
          "midi": 59,
          "name": "B3",
          "ticks": 371040,
          "time": 175.6816425,
          "velocity": 0.7007874015748031
        },
        {
          "duration": 0.227272499999998,
          "durationTicks": 480,
          "midi": 56,
          "name": "G#3",
          "ticks": 371040,
          "time": 175.6816425,
          "velocity": 0.7007874015748031
        },
        {
          "duration": 0.227272499999998,
          "durationTicks": 480,
          "midi": 64,
          "name": "E4",
          "ticks": 371040,
          "time": 175.6816425,
          "velocity": 0.7007874015748031
        },
        {
          "duration": 0.227272499999998,
          "durationTicks": 480,
          "midi": 64,
          "name": "E4",
          "ticks": 372000,
          "time": 176.1361875,
          "velocity": 0.7007874015748031
        },
        {
          "duration": 0.227272499999998,
          "durationTicks": 480,
          "midi": 59,
          "name": "B3",
          "ticks": 372000,
          "time": 176.1361875,
          "velocity": 0.7007874015748031
        },
        {
          "duration": 0.227272499999998,
          "durationTicks": 480,
          "midi": 56,
          "name": "G#3",
          "ticks": 372000,
          "time": 176.1361875,
          "velocity": 0.7007874015748031
        },
        {
          "duration": 0.227272499999998,
          "durationTicks": 480,
          "midi": 63,
          "name": "D#4",
          "ticks": 372960,
          "time": 176.5907325,
          "velocity": 0.7007874015748031
        },
        {
          "duration": 0.227272499999998,
          "durationTicks": 480,
          "midi": 59,
          "name": "B3",
          "ticks": 372960,
          "time": 176.5907325,
          "velocity": 0.7007874015748031
        },
        {
          "duration": 0.227272499999998,
          "durationTicks": 480,
          "midi": 56,
          "name": "G#3",
          "ticks": 372960,
          "time": 176.5907325,
          "velocity": 0.7007874015748031
        },
        {
          "duration": 0.227272499999998,
          "durationTicks": 480,
          "midi": 63,
          "name": "D#4",
          "ticks": 373920,
          "time": 177.04527750000003,
          "velocity": 0.7007874015748031
        },
        {
          "duration": 0.227272499999998,
          "durationTicks": 480,
          "midi": 59,
          "name": "B3",
          "ticks": 373920,
          "time": 177.04527750000003,
          "velocity": 0.7007874015748031
        },
        {
          "duration": 0.227272499999998,
          "durationTicks": 480,
          "midi": 56,
          "name": "G#3",
          "ticks": 373920,
          "time": 177.04527750000003,
          "velocity": 0.7007874015748031
        },
        {
          "duration": 0.227272499999998,
          "durationTicks": 480,
          "midi": 63,
          "name": "D#4",
          "ticks": 374880,
          "time": 177.49982250000002,
          "velocity": 0.7007874015748031
        },
        {
          "duration": 0.227272499999998,
          "durationTicks": 480,
          "midi": 59,
          "name": "B3",
          "ticks": 374880,
          "time": 177.49982250000002,
          "velocity": 0.7007874015748031
        },
        {
          "duration": 0.227272499999998,
          "durationTicks": 480,
          "midi": 56,
          "name": "G#3",
          "ticks": 374880,
          "time": 177.49982250000002,
          "velocity": 0.7007874015748031
        },
        {
          "duration": 0.227272499999998,
          "durationTicks": 480,
          "midi": 63,
          "name": "D#4",
          "ticks": 375840,
          "time": 177.95436750000002,
          "velocity": 0.7007874015748031
        },
        {
          "duration": 0.227272499999998,
          "durationTicks": 480,
          "midi": 59,
          "name": "B3",
          "ticks": 375840,
          "time": 177.95436750000002,
          "velocity": 0.7007874015748031
        },
        {
          "duration": 0.227272499999998,
          "durationTicks": 480,
          "midi": 56,
          "name": "G#3",
          "ticks": 375840,
          "time": 177.95436750000002,
          "velocity": 0.7007874015748031
        },
        {
          "duration": 0.227272499999998,
          "durationTicks": 480,
          "midi": 63,
          "name": "D#4",
          "ticks": 376320,
          "time": 178.18164000000002,
          "velocity": 0.7007874015748031
        },
        {
          "duration": 0.227272499999998,
          "durationTicks": 480,
          "midi": 59,
          "name": "B3",
          "ticks": 376320,
          "time": 178.18164000000002,
          "velocity": 0.7007874015748031
        },
        {
          "duration": 0.227272499999998,
          "durationTicks": 480,
          "midi": 54,
          "name": "F#3",
          "ticks": 376320,
          "time": 178.18164000000002,
          "velocity": 0.7007874015748031
        },
        {
          "duration": 0.227272499999998,
          "durationTicks": 480,
          "midi": 63,
          "name": "D#4",
          "ticks": 377280,
          "time": 178.636185,
          "velocity": 0.7007874015748031
        },
        {
          "duration": 0.227272499999998,
          "durationTicks": 480,
          "midi": 59,
          "name": "B3",
          "ticks": 377280,
          "time": 178.636185,
          "velocity": 0.7007874015748031
        },
        {
          "duration": 0.227272499999998,
          "durationTicks": 480,
          "midi": 54,
          "name": "F#3",
          "ticks": 377280,
          "time": 178.636185,
          "velocity": 0.7007874015748031
        },
        {
          "duration": 0.227272499999998,
          "durationTicks": 480,
          "midi": 63,
          "name": "D#4",
          "ticks": 378240,
          "time": 179.09073,
          "velocity": 0.7007874015748031
        },
        {
          "duration": 0.227272499999998,
          "durationTicks": 480,
          "midi": 59,
          "name": "B3",
          "ticks": 378240,
          "time": 179.09073,
          "velocity": 0.7007874015748031
        },
        {
          "duration": 0.227272499999998,
          "durationTicks": 480,
          "midi": 54,
          "name": "F#3",
          "ticks": 378240,
          "time": 179.09073,
          "velocity": 0.7007874015748031
        },
        {
          "duration": 0.227272499999998,
          "durationTicks": 480,
          "midi": 63,
          "name": "D#4",
          "ticks": 379200,
          "time": 179.545275,
          "velocity": 0.7007874015748031
        },
        {
          "duration": 0.227272499999998,
          "durationTicks": 480,
          "midi": 59,
          "name": "B3",
          "ticks": 379200,
          "time": 179.545275,
          "velocity": 0.7007874015748031
        },
        {
          "duration": 0.227272499999998,
          "durationTicks": 480,
          "midi": 54,
          "name": "F#3",
          "ticks": 379200,
          "time": 179.545275,
          "velocity": 0.7007874015748031
        },
        {
          "duration": 0.227272499999998,
          "durationTicks": 480,
          "midi": 66,
          "name": "F#4",
          "ticks": 380640,
          "time": 180.22709250000003,
          "velocity": 0.7007874015748031
        },
        {
          "duration": 0.227272499999998,
          "durationTicks": 480,
          "midi": 58,
          "name": "A#3",
          "ticks": 380640,
          "time": 180.22709250000003,
          "velocity": 0.7007874015748031
        },
        {
          "duration": 0.227272499999998,
          "durationTicks": 480,
          "midi": 61,
          "name": "C#4",
          "ticks": 380640,
          "time": 180.22709250000003,
          "velocity": 0.7007874015748031
        },
        {
          "duration": 0.227272499999998,
          "durationTicks": 480,
          "midi": 66,
          "name": "F#4",
          "ticks": 381600,
          "time": 180.68163750000002,
          "velocity": 0.7007874015748031
        },
        {
          "duration": 0.227272499999998,
          "durationTicks": 480,
          "midi": 61,
          "name": "C#4",
          "ticks": 381600,
          "time": 180.68163750000002,
          "velocity": 0.7007874015748031
        },
        {
          "duration": 0.227272499999998,
          "durationTicks": 480,
          "midi": 58,
          "name": "A#3",
          "ticks": 381600,
          "time": 180.68163750000002,
          "velocity": 0.7007874015748031
        },
        {
          "duration": 0.227272499999998,
          "durationTicks": 480,
          "midi": 66,
          "name": "F#4",
          "ticks": 382560,
          "time": 181.13618250000002,
          "velocity": 0.7007874015748031
        },
        {
          "duration": 0.227272499999998,
          "durationTicks": 480,
          "midi": 61,
          "name": "C#4",
          "ticks": 382560,
          "time": 181.13618250000002,
          "velocity": 0.7007874015748031
        },
        {
          "duration": 0.227272499999998,
          "durationTicks": 480,
          "midi": 58,
          "name": "A#3",
          "ticks": 382560,
          "time": 181.13618250000002,
          "velocity": 0.7007874015748031
        },
        {
          "duration": 0.227272499999998,
          "durationTicks": 480,
          "midi": 66,
          "name": "F#4",
          "ticks": 383520,
          "time": 181.5907275,
          "velocity": 0.7007874015748031
        },
        {
          "duration": 0.227272499999998,
          "durationTicks": 480,
          "midi": 61,
          "name": "C#4",
          "ticks": 383520,
          "time": 181.5907275,
          "velocity": 0.7007874015748031
        },
        {
          "duration": 0.227272499999998,
          "durationTicks": 480,
          "midi": 58,
          "name": "A#3",
          "ticks": 383520,
          "time": 181.5907275,
          "velocity": 0.7007874015748031
        },
        {
          "duration": 0.227272499999998,
          "durationTicks": 480,
          "midi": 59,
          "name": "B3",
          "ticks": 384480,
          "time": 182.0452725,
          "velocity": 0.7007874015748031
        },
        {
          "duration": 0.227272499999998,
          "durationTicks": 480,
          "midi": 56,
          "name": "G#3",
          "ticks": 384480,
          "time": 182.0452725,
          "velocity": 0.7007874015748031
        },
        {
          "duration": 0.227272499999998,
          "durationTicks": 480,
          "midi": 64,
          "name": "E4",
          "ticks": 384480,
          "time": 182.0452725,
          "velocity": 0.7007874015748031
        },
        {
          "duration": 0.227272499999998,
          "durationTicks": 480,
          "midi": 66,
          "name": "F#4",
          "ticks": 384480,
          "time": 182.0452725,
          "velocity": 0.7007874015748031
        },
        {
          "duration": 0.227272499999998,
          "durationTicks": 480,
          "midi": 59,
          "name": "B3",
          "ticks": 385440,
          "time": 182.4998175,
          "velocity": 0.7007874015748031
        },
        {
          "duration": 0.227272499999998,
          "durationTicks": 480,
          "midi": 56,
          "name": "G#3",
          "ticks": 385440,
          "time": 182.4998175,
          "velocity": 0.7007874015748031
        },
        {
          "duration": 0.227272499999998,
          "durationTicks": 480,
          "midi": 64,
          "name": "E4",
          "ticks": 385440,
          "time": 182.4998175,
          "velocity": 0.7007874015748031
        },
        {
          "duration": 0.227272499999998,
          "durationTicks": 480,
          "midi": 66,
          "name": "F#4",
          "ticks": 385440,
          "time": 182.4998175,
          "velocity": 0.7007874015748031
        },
        {
          "duration": 0.227272499999998,
          "durationTicks": 480,
          "midi": 59,
          "name": "B3",
          "ticks": 386400,
          "time": 182.9543625,
          "velocity": 0.7007874015748031
        },
        {
          "duration": 0.227272499999998,
          "durationTicks": 480,
          "midi": 56,
          "name": "G#3",
          "ticks": 386400,
          "time": 182.9543625,
          "velocity": 0.7007874015748031
        },
        {
          "duration": 0.227272499999998,
          "durationTicks": 480,
          "midi": 64,
          "name": "E4",
          "ticks": 386400,
          "time": 182.9543625,
          "velocity": 0.7007874015748031
        },
        {
          "duration": 0.227272499999998,
          "durationTicks": 480,
          "midi": 66,
          "name": "F#4",
          "ticks": 386400,
          "time": 182.9543625,
          "velocity": 0.7007874015748031
        },
        {
          "duration": 0.227272499999998,
          "durationTicks": 480,
          "midi": 63,
          "name": "D#4",
          "ticks": 388320,
          "time": 183.86345250000002,
          "velocity": 0.7007874015748031
        },
        {
          "duration": 0.227272499999998,
          "durationTicks": 480,
          "midi": 59,
          "name": "B3",
          "ticks": 388320,
          "time": 183.86345250000002,
          "velocity": 0.7007874015748031
        },
        {
          "duration": 0.227272499999998,
          "durationTicks": 480,
          "midi": 56,
          "name": "G#3",
          "ticks": 388320,
          "time": 183.86345250000002,
          "velocity": 0.7007874015748031
        },
        {
          "duration": 0.227272499999998,
          "durationTicks": 480,
          "midi": 63,
          "name": "D#4",
          "ticks": 389280,
          "time": 184.31799750000002,
          "velocity": 0.7007874015748031
        },
        {
          "duration": 0.227272499999998,
          "durationTicks": 480,
          "midi": 59,
          "name": "B3",
          "ticks": 389280,
          "time": 184.31799750000002,
          "velocity": 0.7007874015748031
        },
        {
          "duration": 0.227272499999998,
          "durationTicks": 480,
          "midi": 56,
          "name": "G#3",
          "ticks": 389280,
          "time": 184.31799750000002,
          "velocity": 0.7007874015748031
        },
        {
          "duration": 0.227272499999998,
          "durationTicks": 480,
          "midi": 63,
          "name": "D#4",
          "ticks": 390240,
          "time": 184.77254250000001,
          "velocity": 0.7007874015748031
        },
        {
          "duration": 0.227272499999998,
          "durationTicks": 480,
          "midi": 59,
          "name": "B3",
          "ticks": 390240,
          "time": 184.77254250000001,
          "velocity": 0.7007874015748031
        },
        {
          "duration": 0.227272499999998,
          "durationTicks": 480,
          "midi": 56,
          "name": "G#3",
          "ticks": 390240,
          "time": 184.77254250000001,
          "velocity": 0.7007874015748031
        },
        {
          "duration": 0.227272499999998,
          "durationTicks": 480,
          "midi": 63,
          "name": "D#4",
          "ticks": 391200,
          "time": 185.2270875,
          "velocity": 0.7007874015748031
        },
        {
          "duration": 0.227272499999998,
          "durationTicks": 480,
          "midi": 59,
          "name": "B3",
          "ticks": 391200,
          "time": 185.2270875,
          "velocity": 0.7007874015748031
        },
        {
          "duration": 0.227272499999998,
          "durationTicks": 480,
          "midi": 56,
          "name": "G#3",
          "ticks": 391200,
          "time": 185.2270875,
          "velocity": 0.7007874015748031
        },
        {
          "duration": 0.227272499999998,
          "durationTicks": 480,
          "midi": 63,
          "name": "D#4",
          "ticks": 392160,
          "time": 185.6816325,
          "velocity": 0.7007874015748031
        },
        {
          "duration": 0.227272499999998,
          "durationTicks": 480,
          "midi": 59,
          "name": "B3",
          "ticks": 392160,
          "time": 185.6816325,
          "velocity": 0.7007874015748031
        },
        {
          "duration": 0.227272499999998,
          "durationTicks": 480,
          "midi": 54,
          "name": "F#3",
          "ticks": 392160,
          "time": 185.6816325,
          "velocity": 0.7007874015748031
        },
        {
          "duration": 0.227272499999998,
          "durationTicks": 480,
          "midi": 63,
          "name": "D#4",
          "ticks": 393120,
          "time": 186.1361775,
          "velocity": 0.7007874015748031
        },
        {
          "duration": 0.227272499999998,
          "durationTicks": 480,
          "midi": 59,
          "name": "B3",
          "ticks": 393120,
          "time": 186.1361775,
          "velocity": 0.7007874015748031
        },
        {
          "duration": 0.227272499999998,
          "durationTicks": 480,
          "midi": 54,
          "name": "F#3",
          "ticks": 393120,
          "time": 186.1361775,
          "velocity": 0.7007874015748031
        },
        {
          "duration": 0.227272499999998,
          "durationTicks": 480,
          "midi": 63,
          "name": "D#4",
          "ticks": 394080,
          "time": 186.59072250000003,
          "velocity": 0.7007874015748031
        },
        {
          "duration": 0.227272499999998,
          "durationTicks": 480,
          "midi": 59,
          "name": "B3",
          "ticks": 394080,
          "time": 186.59072250000003,
          "velocity": 0.7007874015748031
        },
        {
          "duration": 0.227272499999998,
          "durationTicks": 480,
          "midi": 54,
          "name": "F#3",
          "ticks": 394080,
          "time": 186.59072250000003,
          "velocity": 0.7007874015748031
        },
        {
          "duration": 0.227272499999998,
          "durationTicks": 480,
          "midi": 63,
          "name": "D#4",
          "ticks": 395040,
          "time": 187.04526750000002,
          "velocity": 0.7007874015748031
        },
        {
          "duration": 0.227272499999998,
          "durationTicks": 480,
          "midi": 59,
          "name": "B3",
          "ticks": 395040,
          "time": 187.04526750000002,
          "velocity": 0.7007874015748031
        },
        {
          "duration": 0.227272499999998,
          "durationTicks": 480,
          "midi": 54,
          "name": "F#3",
          "ticks": 395040,
          "time": 187.04526750000002,
          "velocity": 0.7007874015748031
        },
        {
          "duration": 0.227272499999998,
          "durationTicks": 480,
          "midi": 66,
          "name": "F#4",
          "ticks": 396000,
          "time": 187.49981250000002,
          "velocity": 0.7007874015748031
        },
        {
          "duration": 0.227272499999998,
          "durationTicks": 480,
          "midi": 58,
          "name": "A#3",
          "ticks": 396000,
          "time": 187.49981250000002,
          "velocity": 0.7007874015748031
        },
        {
          "duration": 0.227272499999998,
          "durationTicks": 480,
          "midi": 61,
          "name": "C#4",
          "ticks": 396000,
          "time": 187.49981250000002,
          "velocity": 0.7007874015748031
        },
        {
          "duration": 0.227272499999998,
          "durationTicks": 480,
          "midi": 66,
          "name": "F#4",
          "ticks": 396960,
          "time": 187.95435750000001,
          "velocity": 0.7007874015748031
        },
        {
          "duration": 0.227272499999998,
          "durationTicks": 480,
          "midi": 61,
          "name": "C#4",
          "ticks": 396960,
          "time": 187.95435750000001,
          "velocity": 0.7007874015748031
        },
        {
          "duration": 0.227272499999998,
          "durationTicks": 480,
          "midi": 58,
          "name": "A#3",
          "ticks": 396960,
          "time": 187.95435750000001,
          "velocity": 0.7007874015748031
        },
        {
          "duration": 0.227272499999998,
          "durationTicks": 480,
          "midi": 66,
          "name": "F#4",
          "ticks": 397920,
          "time": 188.4089025,
          "velocity": 0.7007874015748031
        },
        {
          "duration": 0.227272499999998,
          "durationTicks": 480,
          "midi": 61,
          "name": "C#4",
          "ticks": 397920,
          "time": 188.4089025,
          "velocity": 0.7007874015748031
        },
        {
          "duration": 0.227272499999998,
          "durationTicks": 480,
          "midi": 58,
          "name": "A#3",
          "ticks": 397920,
          "time": 188.4089025,
          "velocity": 0.7007874015748031
        },
        {
          "duration": 0.227272499999998,
          "durationTicks": 480,
          "midi": 66,
          "name": "F#4",
          "ticks": 398880,
          "time": 188.8634475,
          "velocity": 0.7007874015748031
        },
        {
          "duration": 0.227272499999998,
          "durationTicks": 480,
          "midi": 61,
          "name": "C#4",
          "ticks": 398880,
          "time": 188.8634475,
          "velocity": 0.7007874015748031
        },
        {
          "duration": 0.227272499999998,
          "durationTicks": 480,
          "midi": 58,
          "name": "A#3",
          "ticks": 398880,
          "time": 188.8634475,
          "velocity": 0.7007874015748031
        },
        {
          "duration": 0.227272499999998,
          "durationTicks": 480,
          "midi": 59,
          "name": "B3",
          "ticks": 399840,
          "time": 189.3179925,
          "velocity": 0.7007874015748031
        },
        {
          "duration": 0.227272499999998,
          "durationTicks": 480,
          "midi": 56,
          "name": "G#3",
          "ticks": 399840,
          "time": 189.3179925,
          "velocity": 0.7007874015748031
        },
        {
          "duration": 0.227272499999998,
          "durationTicks": 480,
          "midi": 64,
          "name": "E4",
          "ticks": 399840,
          "time": 189.3179925,
          "velocity": 0.7007874015748031
        },
        {
          "duration": 0.227272499999998,
          "durationTicks": 480,
          "midi": 66,
          "name": "F#4",
          "ticks": 399840,
          "time": 189.3179925,
          "velocity": 0.7007874015748031
        },
        {
          "duration": 0.227272499999998,
          "durationTicks": 480,
          "midi": 59,
          "name": "B3",
          "ticks": 400800,
          "time": 189.77253750000003,
          "velocity": 0.7007874015748031
        },
        {
          "duration": 0.227272499999998,
          "durationTicks": 480,
          "midi": 56,
          "name": "G#3",
          "ticks": 400800,
          "time": 189.77253750000003,
          "velocity": 0.7007874015748031
        },
        {
          "duration": 0.227272499999998,
          "durationTicks": 480,
          "midi": 64,
          "name": "E4",
          "ticks": 400800,
          "time": 189.77253750000003,
          "velocity": 0.7007874015748031
        },
        {
          "duration": 0.227272499999998,
          "durationTicks": 480,
          "midi": 59,
          "name": "B3",
          "ticks": 401760,
          "time": 190.22708250000002,
          "velocity": 0.7007874015748031
        },
        {
          "duration": 0.227272499999998,
          "durationTicks": 480,
          "midi": 56,
          "name": "G#3",
          "ticks": 401760,
          "time": 190.22708250000002,
          "velocity": 0.7007874015748031
        },
        {
          "duration": 0.227272499999998,
          "durationTicks": 480,
          "midi": 64,
          "name": "E4",
          "ticks": 401760,
          "time": 190.22708250000002,
          "velocity": 0.7007874015748031
        },
        {
          "duration": 0.227272499999998,
          "durationTicks": 480,
          "midi": 64,
          "name": "E4",
          "ticks": 402720,
          "time": 190.68162750000002,
          "velocity": 0.7007874015748031
        },
        {
          "duration": 0.227272499999998,
          "durationTicks": 480,
          "midi": 59,
          "name": "B3",
          "ticks": 402720,
          "time": 190.68162750000002,
          "velocity": 0.7007874015748031
        },
        {
          "duration": 0.227272499999998,
          "durationTicks": 480,
          "midi": 56,
          "name": "G#3",
          "ticks": 402720,
          "time": 190.68162750000002,
          "velocity": 0.7007874015748031
        },
        {
          "duration": 0.227272499999998,
          "durationTicks": 480,
          "midi": 63,
          "name": "D#4",
          "ticks": 403680,
          "time": 191.13617250000001,
          "velocity": 0.7007874015748031
        },
        {
          "duration": 0.227272499999998,
          "durationTicks": 480,
          "midi": 59,
          "name": "B3",
          "ticks": 403680,
          "time": 191.13617250000001,
          "velocity": 0.7007874015748031
        },
        {
          "duration": 0.227272499999998,
          "durationTicks": 480,
          "midi": 56,
          "name": "G#3",
          "ticks": 403680,
          "time": 191.13617250000001,
          "velocity": 0.7007874015748031
        },
        {
          "duration": 0.227272499999998,
          "durationTicks": 480,
          "midi": 63,
          "name": "D#4",
          "ticks": 404640,
          "time": 191.5907175,
          "velocity": 0.7007874015748031
        },
        {
          "duration": 0.227272499999998,
          "durationTicks": 480,
          "midi": 59,
          "name": "B3",
          "ticks": 404640,
          "time": 191.5907175,
          "velocity": 0.7007874015748031
        },
        {
          "duration": 0.227272499999998,
          "durationTicks": 480,
          "midi": 56,
          "name": "G#3",
          "ticks": 404640,
          "time": 191.5907175,
          "velocity": 0.7007874015748031
        },
        {
          "duration": 0.227272499999998,
          "durationTicks": 480,
          "midi": 63,
          "name": "D#4",
          "ticks": 405600,
          "time": 192.0452625,
          "velocity": 0.7007874015748031
        },
        {
          "duration": 0.227272499999998,
          "durationTicks": 480,
          "midi": 59,
          "name": "B3",
          "ticks": 405600,
          "time": 192.0452625,
          "velocity": 0.7007874015748031
        },
        {
          "duration": 0.227272499999998,
          "durationTicks": 480,
          "midi": 56,
          "name": "G#3",
          "ticks": 405600,
          "time": 192.0452625,
          "velocity": 0.7007874015748031
        },
        {
          "duration": 0.227272499999998,
          "durationTicks": 480,
          "midi": 63,
          "name": "D#4",
          "ticks": 406560,
          "time": 192.4998075,
          "velocity": 0.7007874015748031
        },
        {
          "duration": 0.227272499999998,
          "durationTicks": 480,
          "midi": 59,
          "name": "B3",
          "ticks": 406560,
          "time": 192.4998075,
          "velocity": 0.7007874015748031
        },
        {
          "duration": 0.227272499999998,
          "durationTicks": 480,
          "midi": 56,
          "name": "G#3",
          "ticks": 406560,
          "time": 192.4998075,
          "velocity": 0.7007874015748031
        },
        {
          "duration": 0.2272725000000264,
          "durationTicks": 480,
          "midi": 63,
          "name": "D#4",
          "ticks": 407040,
          "time": 192.72708,
          "velocity": 0.7007874015748031
        },
        {
          "duration": 0.2272725000000264,
          "durationTicks": 480,
          "midi": 59,
          "name": "B3",
          "ticks": 407040,
          "time": 192.72708,
          "velocity": 0.7007874015748031
        },
        {
          "duration": 0.2272725000000264,
          "durationTicks": 480,
          "midi": 54,
          "name": "F#3",
          "ticks": 407040,
          "time": 192.72708,
          "velocity": 0.7007874015748031
        },
        {
          "duration": 0.227272499999998,
          "durationTicks": 480,
          "midi": 63,
          "name": "D#4",
          "ticks": 408000,
          "time": 193.18162500000003,
          "velocity": 0.7007874015748031
        },
        {
          "duration": 0.227272499999998,
          "durationTicks": 480,
          "midi": 59,
          "name": "B3",
          "ticks": 408000,
          "time": 193.18162500000003,
          "velocity": 0.7007874015748031
        },
        {
          "duration": 0.227272499999998,
          "durationTicks": 480,
          "midi": 54,
          "name": "F#3",
          "ticks": 408000,
          "time": 193.18162500000003,
          "velocity": 0.7007874015748031
        },
        {
          "duration": 0.227272499999998,
          "durationTicks": 480,
          "midi": 63,
          "name": "D#4",
          "ticks": 408960,
          "time": 193.63617000000002,
          "velocity": 0.7007874015748031
        },
        {
          "duration": 0.227272499999998,
          "durationTicks": 480,
          "midi": 59,
          "name": "B3",
          "ticks": 408960,
          "time": 193.63617000000002,
          "velocity": 0.7007874015748031
        },
        {
          "duration": 0.227272499999998,
          "durationTicks": 480,
          "midi": 54,
          "name": "F#3",
          "ticks": 408960,
          "time": 193.63617000000002,
          "velocity": 0.7007874015748031
        },
        {
          "duration": 0.227272499999998,
          "durationTicks": 480,
          "midi": 63,
          "name": "D#4",
          "ticks": 409920,
          "time": 194.09071500000002,
          "velocity": 0.7007874015748031
        },
        {
          "duration": 0.227272499999998,
          "durationTicks": 480,
          "midi": 59,
          "name": "B3",
          "ticks": 409920,
          "time": 194.09071500000002,
          "velocity": 0.7007874015748031
        },
        {
          "duration": 0.227272499999998,
          "durationTicks": 480,
          "midi": 54,
          "name": "F#3",
          "ticks": 409920,
          "time": 194.09071500000002,
          "velocity": 0.7007874015748031
        },
        {
          "duration": 0.227272499999998,
          "durationTicks": 480,
          "midi": 66,
          "name": "F#4",
          "ticks": 411360,
          "time": 194.7725325,
          "velocity": 0.7007874015748031
        },
        {
          "duration": 0.227272499999998,
          "durationTicks": 480,
          "midi": 58,
          "name": "A#3",
          "ticks": 411360,
          "time": 194.7725325,
          "velocity": 0.7007874015748031
        },
        {
          "duration": 0.227272499999998,
          "durationTicks": 480,
          "midi": 61,
          "name": "C#4",
          "ticks": 411360,
          "time": 194.7725325,
          "velocity": 0.7007874015748031
        },
        {
          "duration": 0.227272499999998,
          "durationTicks": 480,
          "midi": 66,
          "name": "F#4",
          "ticks": 412320,
          "time": 195.2270775,
          "velocity": 0.7007874015748031
        },
        {
          "duration": 0.227272499999998,
          "durationTicks": 480,
          "midi": 61,
          "name": "C#4",
          "ticks": 412320,
          "time": 195.2270775,
          "velocity": 0.7007874015748031
        },
        {
          "duration": 0.227272499999998,
          "durationTicks": 480,
          "midi": 58,
          "name": "A#3",
          "ticks": 412320,
          "time": 195.2270775,
          "velocity": 0.7007874015748031
        },
        {
          "duration": 0.227272499999998,
          "durationTicks": 480,
          "midi": 66,
          "name": "F#4",
          "ticks": 413280,
          "time": 195.6816225,
          "velocity": 0.7007874015748031
        },
        {
          "duration": 0.227272499999998,
          "durationTicks": 480,
          "midi": 61,
          "name": "C#4",
          "ticks": 413280,
          "time": 195.6816225,
          "velocity": 0.7007874015748031
        },
        {
          "duration": 0.227272499999998,
          "durationTicks": 480,
          "midi": 58,
          "name": "A#3",
          "ticks": 413280,
          "time": 195.6816225,
          "velocity": 0.7007874015748031
        },
        {
          "duration": 0.227272499999998,
          "durationTicks": 480,
          "midi": 66,
          "name": "F#4",
          "ticks": 414240,
          "time": 196.13616750000003,
          "velocity": 0.7007874015748031
        },
        {
          "duration": 0.227272499999998,
          "durationTicks": 480,
          "midi": 61,
          "name": "C#4",
          "ticks": 414240,
          "time": 196.13616750000003,
          "velocity": 0.7007874015748031
        },
        {
          "duration": 0.227272499999998,
          "durationTicks": 480,
          "midi": 58,
          "name": "A#3",
          "ticks": 414240,
          "time": 196.13616750000003,
          "velocity": 0.7007874015748031
        },
        {
          "duration": 0.227272499999998,
          "durationTicks": 480,
          "midi": 59,
          "name": "B3",
          "ticks": 415200,
          "time": 196.59071250000002,
          "velocity": 0.7007874015748031
        },
        {
          "duration": 0.227272499999998,
          "durationTicks": 480,
          "midi": 56,
          "name": "G#3",
          "ticks": 415200,
          "time": 196.59071250000002,
          "velocity": 0.7007874015748031
        },
        {
          "duration": 0.227272499999998,
          "durationTicks": 480,
          "midi": 64,
          "name": "E4",
          "ticks": 415200,
          "time": 196.59071250000002,
          "velocity": 0.7007874015748031
        },
        {
          "duration": 0.227272499999998,
          "durationTicks": 480,
          "midi": 66,
          "name": "F#4",
          "ticks": 415200,
          "time": 196.59071250000002,
          "velocity": 0.7007874015748031
        },
        {
          "duration": 0.227272499999998,
          "durationTicks": 480,
          "midi": 59,
          "name": "B3",
          "ticks": 416160,
          "time": 197.04525750000002,
          "velocity": 0.7007874015748031
        },
        {
          "duration": 0.227272499999998,
          "durationTicks": 480,
          "midi": 56,
          "name": "G#3",
          "ticks": 416160,
          "time": 197.04525750000002,
          "velocity": 0.7007874015748031
        },
        {
          "duration": 0.227272499999998,
          "durationTicks": 480,
          "midi": 64,
          "name": "E4",
          "ticks": 416160,
          "time": 197.04525750000002,
          "velocity": 0.7007874015748031
        },
        {
          "duration": 0.227272499999998,
          "durationTicks": 480,
          "midi": 66,
          "name": "F#4",
          "ticks": 416160,
          "time": 197.04525750000002,
          "velocity": 0.7007874015748031
        },
        {
          "duration": 0.227272499999998,
          "durationTicks": 480,
          "midi": 59,
          "name": "B3",
          "ticks": 417120,
          "time": 197.49980250000002,
          "velocity": 0.7007874015748031
        },
        {
          "duration": 0.227272499999998,
          "durationTicks": 480,
          "midi": 56,
          "name": "G#3",
          "ticks": 417120,
          "time": 197.49980250000002,
          "velocity": 0.7007874015748031
        },
        {
          "duration": 0.227272499999998,
          "durationTicks": 480,
          "midi": 64,
          "name": "E4",
          "ticks": 417120,
          "time": 197.49980250000002,
          "velocity": 0.7007874015748031
        },
        {
          "duration": 0.227272499999998,
          "durationTicks": 480,
          "midi": 66,
          "name": "F#4",
          "ticks": 417120,
          "time": 197.49980250000002,
          "velocity": 0.7007874015748031
        },
        {
          "duration": 0.227272499999998,
          "durationTicks": 480,
          "midi": 66,
          "name": "F#4",
          "ticks": 417600,
          "time": 197.727075,
          "velocity": 0.7007874015748031
        },
        {
          "duration": 0.227272499999998,
          "durationTicks": 480,
          "midi": 54,
          "name": "F#3",
          "ticks": 417600,
          "time": 197.727075,
          "velocity": 0.7007874015748031
        },
        {
          "duration": 0.227272499999998,
          "durationTicks": 480,
          "midi": 66,
          "name": "F#4",
          "ticks": 418080,
          "time": 197.9543475,
          "velocity": 0.7007874015748031
        },
        {
          "duration": 0.227272499999998,
          "durationTicks": 480,
          "midi": 54,
          "name": "F#3",
          "ticks": 418080,
          "time": 197.9543475,
          "velocity": 0.7007874015748031
        }
      ],
      "endOfTrackTicks": 418560
    },
    {
      "channel": 0,
      "controlChanges": {
        "7": [
          {
            "number": 7,
            "ticks": 0,
            "time": 0,
            "value": 1
          }
        ],
        "10": [
          {
            "number": 10,
            "ticks": 0,
            "time": 0,
            "value": 0.2204724409448819
          }
        ]
      },
      "pitchBends": [],
      "instrument": {
        "family": "piano",
        "number": 0,
        "name": "acoustic grand piano"
      },
      "name": "Chart Positions: UK/US/AUT/CAN/GER No.1",
      "notes": [],
      "endOfTrackTicks": 422400
    },
    {
      "channel": 7,
      "controlChanges": {},
      "pitchBends": [],
      "instrument": {
        "family": "reed",
        "number": 64,
        "name": "soprano sax"
      },
      "name": "",
      "notes": [
        {
          "duration": 0.2272725,
          "durationTicks": 480,
          "midi": 68,
          "name": "G#4",
          "ticks": 2400,
          "time": 1.1363625000000002,
          "velocity": 0.7007874015748031
        },
        {
          "duration": 0.11363624999999988,
          "durationTicks": 240,
          "midi": 71,
          "name": "B4",
          "ticks": 2880,
          "time": 1.3636350000000002,
          "velocity": 0.7007874015748031
        },
        {
          "duration": 0.3409087500000001,
          "durationTicks": 720,
          "midi": 71,
          "name": "B4",
          "ticks": 3120,
          "time": 1.47727125,
          "velocity": 0.7007874015748031
        },
        {
          "duration": 0.34090874999999987,
          "durationTicks": 720,
          "midi": 71,
          "name": "B4",
          "ticks": 3840,
          "time": 1.8181800000000001,
          "velocity": 0.7007874015748031
        },
        {
          "duration": 0.11363625000000033,
          "durationTicks": 240,
          "midi": 68,
          "name": "G#4",
          "ticks": 4560,
          "time": 2.15908875,
          "velocity": 0.7007874015748031
        },
        {
          "duration": 0.22727249999999977,
          "durationTicks": 480,
          "midi": 66,
          "name": "F#4",
          "ticks": 4800,
          "time": 2.2727250000000003,
          "velocity": 0.7007874015748031
        },
        {
          "duration": 0.2272725000000002,
          "durationTicks": 480,
          "midi": 78,
          "name": "F#5",
          "ticks": 6240,
          "time": 2.9545425,
          "velocity": 0.7007874015748031
        },
        {
          "duration": 0.11363624999999988,
          "durationTicks": 240,
          "midi": 75,
          "name": "D#5",
          "ticks": 6720,
          "time": 3.1818150000000003,
          "velocity": 0.7007874015748031
        },
        {
          "duration": 0.11363624999999988,
          "durationTicks": 240,
          "midi": 73,
          "name": "C#5",
          "ticks": 6960,
          "time": 3.29545125,
          "velocity": 0.7007874015748031
        },
        {
          "duration": 0.2272725000000002,
          "durationTicks": 480,
          "midi": 71,
          "name": "B4",
          "ticks": 7200,
          "time": 3.4090875,
          "velocity": 0.7007874015748031
        },
        {
          "duration": 0.2272725000000002,
          "durationTicks": 480,
          "midi": 75,
          "name": "D#5",
          "ticks": 7680,
          "time": 3.6363600000000003,
          "velocity": 0.7007874015748031
        },
        {
          "duration": 1.1363624999999997,
          "durationTicks": 2400,
          "midi": 78,
          "name": "F#5",
          "ticks": 8160,
          "time": 3.8636325000000005,
          "velocity": 0.7007874015748031
        },
        {
          "duration": 1.3636349999999995,
          "durationTicks": 2880,
          "midi": 78,
          "name": "F#5",
          "ticks": 11520,
          "time": 5.454540000000001,
          "velocity": 0.7007874015748031
        },
        {
          "duration": 0.11363625000000077,
          "durationTicks": 240,
          "midi": 75,
          "name": "D#5",
          "ticks": 14400,
          "time": 6.818175,
          "velocity": 0.7007874015748031
        },
        {
          "duration": 0.11363624999999988,
          "durationTicks": 240,
          "midi": 73,
          "name": "C#5",
          "ticks": 14640,
          "time": 6.931811250000001,
          "velocity": 0.7007874015748031
        },
        {
          "duration": 0.22727249999999977,
          "durationTicks": 480,
          "midi": 71,
          "name": "B4",
          "ticks": 14880,
          "time": 7.045447500000001,
          "velocity": 0.7007874015748031
        },
        {
          "duration": 0.22727249999999977,
          "durationTicks": 480,
          "midi": 68,
          "name": "G#4",
          "ticks": 15360,
          "time": 7.2727200000000005,
          "velocity": 0.7007874015748031
        },
        {
          "duration": 0.6818175000000002,
          "durationTicks": 1440,
          "midi": 71,
          "name": "B4",
          "ticks": 15840,
          "time": 7.4999925,
          "velocity": 0.7007874015748031
        },
        {
          "duration": 0.22727249999999977,
          "durationTicks": 480,
          "midi": 68,
          "name": "G#4",
          "ticks": 17760,
          "time": 8.4090825,
          "velocity": 0.7007874015748031
        },
        {
          "duration": 0.11363625000000077,
          "durationTicks": 240,
          "midi": 71,
          "name": "B4",
          "ticks": 18240,
          "time": 8.636355,
          "velocity": 0.7007874015748031
        },
        {
          "duration": 0.34090875000000054,
          "durationTicks": 720,
          "midi": 71,
          "name": "B4",
          "ticks": 18480,
          "time": 8.74999125,
          "velocity": 0.7007874015748031
        },
        {
          "duration": 0.34090874999999876,
          "durationTicks": 720,
          "midi": 71,
          "name": "B4",
          "ticks": 19200,
          "time": 9.090900000000001,
          "velocity": 0.7007874015748031
        },
        {
          "duration": 0.11363625000000077,
          "durationTicks": 240,
          "midi": 68,
          "name": "G#4",
          "ticks": 19920,
          "time": 9.43180875,
          "velocity": 0.7007874015748031
        },
        {
          "duration": 0.22727249999999977,
          "durationTicks": 480,
          "midi": 66,
          "name": "F#4",
          "ticks": 20160,
          "time": 9.545445,
          "velocity": 0.7007874015748031
        },
        {
          "duration": 0.22727249999999977,
          "durationTicks": 480,
          "midi": 78,
          "name": "F#5",
          "ticks": 21600,
          "time": 10.2272625,
          "velocity": 0.7007874015748031
        },
        {
          "duration": 0.11363625000000077,
          "durationTicks": 240,
          "midi": 75,
          "name": "D#5",
          "ticks": 22080,
          "time": 10.454535,
          "velocity": 0.7007874015748031
        },
        {
          "duration": 0.11363625000000077,
          "durationTicks": 240,
          "midi": 73,
          "name": "C#5",
          "ticks": 22320,
          "time": 10.56817125,
          "velocity": 0.7007874015748031
        },
        {
          "duration": 0.22727249999999977,
          "durationTicks": 480,
          "midi": 71,
          "name": "B4",
          "ticks": 22560,
          "time": 10.681807500000001,
          "velocity": 0.7007874015748031
        },
        {
          "duration": 0.22727249999999977,
          "durationTicks": 480,
          "midi": 75,
          "name": "D#5",
          "ticks": 23040,
          "time": 10.909080000000001,
          "velocity": 0.7007874015748031
        },
        {
          "duration": 1.1363625000000006,
          "durationTicks": 2400,
          "midi": 78,
          "name": "F#5",
          "ticks": 23520,
          "time": 11.136352500000001,
          "velocity": 0.7007874015748031
        },
        {
          "duration": 1.3636350000000004,
          "durationTicks": 2880,
          "midi": 78,
          "name": "F#5",
          "ticks": 26880,
          "time": 12.727260000000001,
          "velocity": 0.7007874015748031
        },
        {
          "duration": 0.113636249999999,
          "durationTicks": 240,
          "midi": 75,
          "name": "D#5",
          "ticks": 29760,
          "time": 14.090895000000002,
          "velocity": 0.7007874015748031
        },
        {
          "duration": 0.11363625000000077,
          "durationTicks": 240,
          "midi": 73,
          "name": "C#5",
          "ticks": 30000,
          "time": 14.20453125,
          "velocity": 0.7007874015748031
        },
        {
          "duration": 0.22727249999999977,
          "durationTicks": 480,
          "midi": 71,
          "name": "B4",
          "ticks": 30240,
          "time": 14.318167500000001,
          "velocity": 0.7007874015748031
        },
        {
          "duration": 0.22727249999999977,
          "durationTicks": 480,
          "midi": 68,
          "name": "G#4",
          "ticks": 30720,
          "time": 14.545440000000001,
          "velocity": 0.7007874015748031
        },
        {
          "duration": 0.6818175000000011,
          "durationTicks": 1440,
          "midi": 71,
          "name": "B4",
          "ticks": 31200,
          "time": 14.7727125,
          "velocity": 0.7007874015748031
        },
        {
          "duration": 0.22727249999999977,
          "durationTicks": 480,
          "midi": 68,
          "name": "G#4",
          "ticks": 33120,
          "time": 15.681802500000002,
          "velocity": 0.7007874015748031
        },
        {
          "duration": 0.113636249999999,
          "durationTicks": 240,
          "midi": 71,
          "name": "B4",
          "ticks": 33600,
          "time": 15.909075000000001,
          "velocity": 0.7007874015748031
        },
        {
          "duration": 0.34090875000000054,
          "durationTicks": 720,
          "midi": 71,
          "name": "B4",
          "ticks": 33840,
          "time": 16.02271125,
          "velocity": 0.7007874015748031
        },
        {
          "duration": 0.34090875000000054,
          "durationTicks": 720,
          "midi": 71,
          "name": "B4",
          "ticks": 34560,
          "time": 16.36362,
          "velocity": 0.7007874015748031
        },
        {
          "duration": 0.113636249999999,
          "durationTicks": 240,
          "midi": 68,
          "name": "G#4",
          "ticks": 35280,
          "time": 16.70452875,
          "velocity": 0.7007874015748031
        },
        {
          "duration": 0.22727250000000154,
          "durationTicks": 480,
          "midi": 66,
          "name": "F#4",
          "ticks": 35520,
          "time": 16.818165,
          "velocity": 0.7007874015748031
        },
        {
          "duration": 0.227272499999998,
          "durationTicks": 480,
          "midi": 78,
          "name": "F#5",
          "ticks": 36960,
          "time": 17.4999825,
          "velocity": 0.7007874015748031
        },
        {
          "duration": 0.11363625000000255,
          "durationTicks": 240,
          "midi": 75,
          "name": "D#5",
          "ticks": 37440,
          "time": 17.727255,
          "velocity": 0.7007874015748031
        },
        {
          "duration": 0.113636249999999,
          "durationTicks": 240,
          "midi": 73,
          "name": "C#5",
          "ticks": 37680,
          "time": 17.840891250000002,
          "velocity": 0.7007874015748031
        },
        {
          "duration": 0.22727250000000154,
          "durationTicks": 480,
          "midi": 71,
          "name": "B4",
          "ticks": 37920,
          "time": 17.9545275,
          "velocity": 0.7007874015748031
        },
        {
          "duration": 0.227272499999998,
          "durationTicks": 480,
          "midi": 75,
          "name": "D#5",
          "ticks": 38400,
          "time": 18.181800000000003,
          "velocity": 0.7007874015748031
        },
        {
          "duration": 1.1363625000000006,
          "durationTicks": 2400,
          "midi": 78,
          "name": "F#5",
          "ticks": 38880,
          "time": 18.4090725,
          "velocity": 0.7007874015748031
        },
        {
          "duration": 1.3636350000000022,
          "durationTicks": 2880,
          "midi": 78,
          "name": "F#5",
          "ticks": 42240,
          "time": 19.99998,
          "velocity": 0.7007874015748031
        },
        {
          "duration": 0.113636249999999,
          "durationTicks": 240,
          "midi": 75,
          "name": "D#5",
          "ticks": 45120,
          "time": 21.363615000000003,
          "velocity": 0.7007874015748031
        },
        {
          "duration": 0.113636249999999,
          "durationTicks": 240,
          "midi": 73,
          "name": "C#5",
          "ticks": 45360,
          "time": 21.477251250000002,
          "velocity": 0.7007874015748031
        },
        {
          "duration": 0.22727250000000154,
          "durationTicks": 480,
          "midi": 71,
          "name": "B4",
          "ticks": 45600,
          "time": 21.5908875,
          "velocity": 0.7007874015748031
        },
        {
          "duration": 0.227272499999998,
          "durationTicks": 480,
          "midi": 68,
          "name": "G#4",
          "ticks": 46080,
          "time": 21.818160000000002,
          "velocity": 0.7007874015748031
        },
        {
          "duration": 0.6818175000000011,
          "durationTicks": 1440,
          "midi": 71,
          "name": "B4",
          "ticks": 46560,
          "time": 22.0454325,
          "velocity": 0.7007874015748031
        },
        {
          "duration": 0.227272499999998,
          "durationTicks": 480,
          "midi": 68,
          "name": "G#4",
          "ticks": 48480,
          "time": 22.954522500000003,
          "velocity": 0.7007874015748031
        },
        {
          "duration": 0.113636249999999,
          "durationTicks": 240,
          "midi": 71,
          "name": "B4",
          "ticks": 48960,
          "time": 23.181795,
          "velocity": 0.7007874015748031
        },
        {
          "duration": 0.34090875000000054,
          "durationTicks": 720,
          "midi": 71,
          "name": "B4",
          "ticks": 49200,
          "time": 23.29543125,
          "velocity": 0.7007874015748031
        },
        {
          "duration": 0.34090875000000054,
          "durationTicks": 720,
          "midi": 71,
          "name": "B4",
          "ticks": 49920,
          "time": 23.63634,
          "velocity": 0.7007874015748031
        },
        {
          "duration": 0.113636249999999,
          "durationTicks": 240,
          "midi": 68,
          "name": "G#4",
          "ticks": 50640,
          "time": 23.97724875,
          "velocity": 0.7007874015748031
        },
        {
          "duration": 0.22727250000000154,
          "durationTicks": 480,
          "midi": 66,
          "name": "F#4",
          "ticks": 50880,
          "time": 24.090885,
          "velocity": 0.7007874015748031
        },
        {
          "duration": 0.22727250000000154,
          "durationTicks": 480,
          "midi": 78,
          "name": "F#5",
          "ticks": 52320,
          "time": 24.7727025,
          "velocity": 0.7007874015748031
        },
        {
          "duration": 0.113636249999999,
          "durationTicks": 240,
          "midi": 75,
          "name": "D#5",
          "ticks": 52800,
          "time": 24.999975000000003,
          "velocity": 0.7007874015748031
        },
        {
          "duration": 0.113636249999999,
          "durationTicks": 240,
          "midi": 73,
          "name": "C#5",
          "ticks": 53040,
          "time": 25.11361125,
          "velocity": 0.7007874015748031
        },
        {
          "duration": 0.22727250000000154,
          "durationTicks": 480,
          "midi": 71,
          "name": "B4",
          "ticks": 53280,
          "time": 25.2272475,
          "velocity": 0.7007874015748031
        },
        {
          "duration": 0.227272499999998,
          "durationTicks": 480,
          "midi": 75,
          "name": "D#5",
          "ticks": 53760,
          "time": 25.454520000000002,
          "velocity": 0.7007874015748031
        },
        {
          "duration": 1.1363625000000006,
          "durationTicks": 2400,
          "midi": 78,
          "name": "F#5",
          "ticks": 54240,
          "time": 25.6817925,
          "velocity": 0.7007874015748031
        },
        {
          "duration": 1.3636350000000022,
          "durationTicks": 2880,
          "midi": 78,
          "name": "F#5",
          "ticks": 57600,
          "time": 27.2727,
          "velocity": 0.7007874015748031
        },
        {
          "duration": 0.113636249999999,
          "durationTicks": 240,
          "midi": 75,
          "name": "D#5",
          "ticks": 60480,
          "time": 28.636335000000003,
          "velocity": 0.7007874015748031
        },
        {
          "duration": 0.113636249999999,
          "durationTicks": 240,
          "midi": 73,
          "name": "C#5",
          "ticks": 60720,
          "time": 28.74997125,
          "velocity": 0.7007874015748031
        },
        {
          "duration": 0.22727250000000154,
          "durationTicks": 480,
          "midi": 71,
          "name": "B4",
          "ticks": 60960,
          "time": 28.8636075,
          "velocity": 0.7007874015748031
        },
        {
          "duration": 0.22727250000000154,
          "durationTicks": 480,
          "midi": 68,
          "name": "G#4",
          "ticks": 61440,
          "time": 29.090880000000002,
          "velocity": 0.7007874015748031
        },
        {
          "duration": 0.6818174999999975,
          "durationTicks": 1440,
          "midi": 71,
          "name": "B4",
          "ticks": 61920,
          "time": 29.318152500000004,
          "velocity": 0.7007874015748031
        },
        {
          "duration": 0.227272499999998,
          "durationTicks": 480,
          "midi": 68,
          "name": "G#4",
          "ticks": 63840,
          "time": 30.227242500000003,
          "velocity": 0.7007874015748031
        },
        {
          "duration": 0.11363625000000255,
          "durationTicks": 240,
          "midi": 71,
          "name": "B4",
          "ticks": 64320,
          "time": 30.454515,
          "velocity": 0.7007874015748031
        },
        {
          "duration": 0.34090875000000054,
          "durationTicks": 720,
          "midi": 71,
          "name": "B4",
          "ticks": 64560,
          "time": 30.568151250000003,
          "velocity": 0.7007874015748031
        },
        {
          "duration": 0.340908749999997,
          "durationTicks": 720,
          "midi": 71,
          "name": "B4",
          "ticks": 65280,
          "time": 30.909060000000004,
          "velocity": 0.7007874015748031
        },
        {
          "duration": 0.11363625000000255,
          "durationTicks": 240,
          "midi": 68,
          "name": "G#4",
          "ticks": 66000,
          "time": 31.24996875,
          "velocity": 0.7007874015748031
        },
        {
          "duration": 0.227272499999998,
          "durationTicks": 480,
          "midi": 66,
          "name": "F#4",
          "ticks": 66240,
          "time": 31.363605000000003,
          "velocity": 0.7007874015748031
        },
        {
          "duration": 0.227272499999998,
          "durationTicks": 480,
          "midi": 78,
          "name": "F#5",
          "ticks": 67680,
          "time": 32.0454225,
          "velocity": 0.7007874015748031
        },
        {
          "duration": 0.1136362500000061,
          "durationTicks": 240,
          "midi": 75,
          "name": "D#5",
          "ticks": 68160,
          "time": 32.272695,
          "velocity": 0.7007874015748031
        },
        {
          "duration": 0.113636249999999,
          "durationTicks": 240,
          "midi": 73,
          "name": "C#5",
          "ticks": 68400,
          "time": 32.386331250000005,
          "velocity": 0.7007874015748031
        },
        {
          "duration": 0.227272499999998,
          "durationTicks": 480,
          "midi": 71,
          "name": "B4",
          "ticks": 68640,
          "time": 32.499967500000004,
          "velocity": 0.7007874015748031
        },
        {
          "duration": 0.227272499999998,
          "durationTicks": 480,
          "midi": 75,
          "name": "D#5",
          "ticks": 69120,
          "time": 32.72724,
          "velocity": 0.7007874015748031
        },
        {
          "duration": 1.1363625000000042,
          "durationTicks": 2400,
          "midi": 78,
          "name": "F#5",
          "ticks": 69600,
          "time": 32.9545125,
          "velocity": 0.7007874015748031
        },
        {
          "duration": 1.3636350000000022,
          "durationTicks": 2880,
          "midi": 78,
          "name": "F#5",
          "ticks": 72960,
          "time": 34.54542,
          "velocity": 0.7007874015748031
        },
        {
          "duration": 0.113636249999999,
          "durationTicks": 240,
          "midi": 75,
          "name": "D#5",
          "ticks": 75840,
          "time": 35.909055,
          "velocity": 0.7007874015748031
        },
        {
          "duration": 0.113636249999999,
          "durationTicks": 240,
          "midi": 73,
          "name": "C#5",
          "ticks": 76080,
          "time": 36.02269125,
          "velocity": 0.7007874015748031
        },
        {
          "duration": 0.2272725000000051,
          "durationTicks": 480,
          "midi": 71,
          "name": "B4",
          "ticks": 76320,
          "time": 36.1363275,
          "velocity": 0.7007874015748031
        },
        {
          "duration": 0.227272499999998,
          "durationTicks": 480,
          "midi": 68,
          "name": "G#4",
          "ticks": 76800,
          "time": 36.363600000000005,
          "velocity": 0.7007874015748031
        },
        {
          "duration": 0.6818175000000011,
          "durationTicks": 1440,
          "midi": 71,
          "name": "B4",
          "ticks": 77280,
          "time": 36.5908725,
          "velocity": 0.7007874015748031
        },
        {
          "duration": 0.227272499999998,
          "durationTicks": 480,
          "midi": 68,
          "name": "G#4",
          "ticks": 79200,
          "time": 37.4999625,
          "velocity": 0.7007874015748031
        },
        {
          "duration": 0.113636249999999,
          "durationTicks": 240,
          "midi": 71,
          "name": "B4",
          "ticks": 79680,
          "time": 37.727235,
          "velocity": 0.7007874015748031
        },
        {
          "duration": 0.3409087500000041,
          "durationTicks": 720,
          "midi": 71,
          "name": "B4",
          "ticks": 79920,
          "time": 37.84087125,
          "velocity": 0.7007874015748031
        },
        {
          "duration": 0.3409087500000041,
          "durationTicks": 720,
          "midi": 71,
          "name": "B4",
          "ticks": 111360,
          "time": 52.72722,
          "velocity": 0.7007874015748031
        },
        {
          "duration": 0.113636249999999,
          "durationTicks": 240,
          "midi": 68,
          "name": "G#4",
          "ticks": 112080,
          "time": 53.06812875000001,
          "velocity": 0.7007874015748031
        },
        {
          "duration": 0.227272499999998,
          "durationTicks": 480,
          "midi": 66,
          "name": "F#4",
          "ticks": 112320,
          "time": 53.181765000000006,
          "velocity": 0.7007874015748031
        },
        {
          "duration": 0.227272499999998,
          "durationTicks": 480,
          "midi": 78,
          "name": "F#5",
          "ticks": 113760,
          "time": 53.86358250000001,
          "velocity": 0.7007874015748031
        },
        {
          "duration": 0.113636249999999,
          "durationTicks": 240,
          "midi": 75,
          "name": "D#5",
          "ticks": 114240,
          "time": 54.090855000000005,
          "velocity": 0.7007874015748031
        },
        {
          "duration": 0.113636249999999,
          "durationTicks": 240,
          "midi": 73,
          "name": "C#5",
          "ticks": 114480,
          "time": 54.204491250000004,
          "velocity": 0.7007874015748031
        },
        {
          "duration": 0.227272499999998,
          "durationTicks": 480,
          "midi": 71,
          "name": "B4",
          "ticks": 114720,
          "time": 54.3181275,
          "velocity": 0.7007874015748031
        },
        {
          "duration": 0.2272725000000051,
          "durationTicks": 480,
          "midi": 75,
          "name": "D#5",
          "ticks": 115200,
          "time": 54.5454,
          "velocity": 0.7007874015748031
        },
        {
          "duration": 1.136362499999997,
          "durationTicks": 2400,
          "midi": 78,
          "name": "F#5",
          "ticks": 115680,
          "time": 54.772672500000006,
          "velocity": 0.7007874015748031
        },
        {
          "duration": 1.363634999999995,
          "durationTicks": 2880,
          "midi": 78,
          "name": "F#5",
          "ticks": 119040,
          "time": 56.363580000000006,
          "velocity": 0.7007874015748031
        },
        {
          "duration": 0.1136362500000061,
          "durationTicks": 240,
          "midi": 75,
          "name": "D#5",
          "ticks": 121920,
          "time": 57.727215,
          "velocity": 0.7007874015748031
        },
        {
          "duration": 0.113636249999999,
          "durationTicks": 240,
          "midi": 73,
          "name": "C#5",
          "ticks": 122160,
          "time": 57.84085125000001,
          "velocity": 0.7007874015748031
        },
        {
          "duration": 0.227272499999998,
          "durationTicks": 480,
          "midi": 71,
          "name": "B4",
          "ticks": 122400,
          "time": 57.954487500000006,
          "velocity": 0.7007874015748031
        },
        {
          "duration": 0.227272499999998,
          "durationTicks": 480,
          "midi": 68,
          "name": "G#4",
          "ticks": 122880,
          "time": 58.181760000000004,
          "velocity": 0.7007874015748031
        },
        {
          "duration": 0.6818175000000011,
          "durationTicks": 1440,
          "midi": 71,
          "name": "B4",
          "ticks": 123360,
          "time": 58.4090325,
          "velocity": 0.7007874015748031
        },
        {
          "duration": 0.2272725000000051,
          "durationTicks": 480,
          "midi": 68,
          "name": "G#4",
          "ticks": 125280,
          "time": 59.3181225,
          "velocity": 0.7007874015748031
        },
        {
          "duration": 0.113636249999999,
          "durationTicks": 240,
          "midi": 71,
          "name": "B4",
          "ticks": 125760,
          "time": 59.545395000000006,
          "velocity": 0.7007874015748031
        },
        {
          "duration": 0.340908749999997,
          "durationTicks": 720,
          "midi": 71,
          "name": "B4",
          "ticks": 126000,
          "time": 59.659031250000005,
          "velocity": 0.7007874015748031
        },
        {
          "duration": 0.3409087500000041,
          "durationTicks": 720,
          "midi": 71,
          "name": "B4",
          "ticks": 126720,
          "time": 59.99994,
          "velocity": 0.7007874015748031
        },
        {
          "duration": 0.113636249999999,
          "durationTicks": 240,
          "midi": 68,
          "name": "G#4",
          "ticks": 127440,
          "time": 60.340848750000006,
          "velocity": 0.7007874015748031
        },
        {
          "duration": 0.227272499999998,
          "durationTicks": 480,
          "midi": 66,
          "name": "F#4",
          "ticks": 127680,
          "time": 60.454485000000005,
          "velocity": 0.7007874015748031
        },
        {
          "duration": 0.227272499999998,
          "durationTicks": 480,
          "midi": 78,
          "name": "F#5",
          "ticks": 129120,
          "time": 61.136302500000006,
          "velocity": 0.7007874015748031
        },
        {
          "duration": 0.113636249999999,
          "durationTicks": 240,
          "midi": 75,
          "name": "D#5",
          "ticks": 129600,
          "time": 61.363575000000004,
          "velocity": 0.7007874015748031
        },
        {
          "duration": 0.113636249999999,
          "durationTicks": 240,
          "midi": 73,
          "name": "C#5",
          "ticks": 129840,
          "time": 61.47721125,
          "velocity": 0.7007874015748031
        },
        {
          "duration": 0.2272725000000051,
          "durationTicks": 480,
          "midi": 71,
          "name": "B4",
          "ticks": 130080,
          "time": 61.5908475,
          "velocity": 0.7007874015748031
        },
        {
          "duration": 0.227272499999998,
          "durationTicks": 480,
          "midi": 75,
          "name": "D#5",
          "ticks": 130560,
          "time": 61.81812000000001,
          "velocity": 0.7007874015748031
        },
        {
          "duration": 1.136362499999997,
          "durationTicks": 2400,
          "midi": 78,
          "name": "F#5",
          "ticks": 131040,
          "time": 62.045392500000005,
          "velocity": 0.7007874015748031
        },
        {
          "duration": 1.3636350000000022,
          "durationTicks": 2880,
          "midi": 78,
          "name": "F#5",
          "ticks": 134400,
          "time": 63.636300000000006,
          "velocity": 0.7007874015748031
        },
        {
          "duration": 0.113636249999999,
          "durationTicks": 240,
          "midi": 75,
          "name": "D#5",
          "ticks": 137280,
          "time": 64.99993500000001,
          "velocity": 0.7007874015748031
        },
        {
          "duration": 0.113636249999999,
          "durationTicks": 240,
          "midi": 73,
          "name": "C#5",
          "ticks": 137520,
          "time": 65.11357125,
          "velocity": 0.7007874015748031
        },
        {
          "duration": 0.227272499999998,
          "durationTicks": 480,
          "midi": 71,
          "name": "B4",
          "ticks": 137760,
          "time": 65.2272075,
          "velocity": 0.7007874015748031
        },
        {
          "duration": 0.227272499999998,
          "durationTicks": 480,
          "midi": 68,
          "name": "G#4",
          "ticks": 138240,
          "time": 65.45448,
          "velocity": 0.7007874015748031
        },
        {
          "duration": 0.6818175000000082,
          "durationTicks": 1440,
          "midi": 71,
          "name": "B4",
          "ticks": 138720,
          "time": 65.6817525,
          "velocity": 0.7007874015748031
        },
        {
          "duration": 0.227272499999998,
          "durationTicks": 480,
          "midi": 68,
          "name": "G#4",
          "ticks": 140640,
          "time": 66.59084250000001,
          "velocity": 0.7007874015748031
        },
        {
          "duration": 0.113636249999999,
          "durationTicks": 240,
          "midi": 71,
          "name": "B4",
          "ticks": 141120,
          "time": 66.818115,
          "velocity": 0.7007874015748031
        },
        {
          "duration": 0.340908749999997,
          "durationTicks": 720,
          "midi": 71,
          "name": "B4",
          "ticks": 141360,
          "time": 66.93175125,
          "velocity": 0.7007874015748031
        },
        {
          "duration": 0.340908749999997,
          "durationTicks": 720,
          "midi": 71,
          "name": "B4",
          "ticks": 142080,
          "time": 67.27266,
          "velocity": 0.7007874015748031
        },
        {
          "duration": 0.113636249999999,
          "durationTicks": 240,
          "midi": 68,
          "name": "G#4",
          "ticks": 142800,
          "time": 67.61356875,
          "velocity": 0.7007874015748031
        },
        {
          "duration": 0.2272725000000122,
          "durationTicks": 480,
          "midi": 66,
          "name": "F#4",
          "ticks": 143040,
          "time": 67.727205,
          "velocity": 0.7007874015748031
        },
        {
          "duration": 0.227272499999998,
          "durationTicks": 480,
          "midi": 78,
          "name": "F#5",
          "ticks": 144480,
          "time": 68.4090225,
          "velocity": 0.7007874015748031
        },
        {
          "duration": 0.113636249999999,
          "durationTicks": 240,
          "midi": 75,
          "name": "D#5",
          "ticks": 144960,
          "time": 68.636295,
          "velocity": 0.7007874015748031
        },
        {
          "duration": 0.113636249999999,
          "durationTicks": 240,
          "midi": 73,
          "name": "C#5",
          "ticks": 145200,
          "time": 68.74993125,
          "velocity": 0.7007874015748031
        },
        {
          "duration": 0.227272499999998,
          "durationTicks": 480,
          "midi": 71,
          "name": "B4",
          "ticks": 145440,
          "time": 68.8635675,
          "velocity": 0.7007874015748031
        },
        {
          "duration": 0.227272499999998,
          "durationTicks": 480,
          "midi": 75,
          "name": "D#5",
          "ticks": 145920,
          "time": 69.09084,
          "velocity": 0.7007874015748031
        },
        {
          "duration": 1.1363625000000042,
          "durationTicks": 2400,
          "midi": 78,
          "name": "F#5",
          "ticks": 146400,
          "time": 69.3181125,
          "velocity": 0.7007874015748031
        },
        {
          "duration": 1.3636350000000022,
          "durationTicks": 2880,
          "midi": 78,
          "name": "F#5",
          "ticks": 149760,
          "time": 70.90902,
          "velocity": 0.7007874015748031
        },
        {
          "duration": 0.227272499999998,
          "durationTicks": 480,
          "midi": 68,
          "name": "G#4",
          "ticks": 153600,
          "time": 72.72720000000001,
          "velocity": 0.7007874015748031
        },
        {
          "duration": 0.681817499999994,
          "durationTicks": 1440,
          "midi": 71,
          "name": "B4",
          "ticks": 154080,
          "time": 72.95447250000001,
          "velocity": 0.7007874015748031
        },
        {
          "duration": 0.227272499999998,
          "durationTicks": 480,
          "midi": 68,
          "name": "G#4",
          "ticks": 156000,
          "time": 73.8635625,
          "velocity": 0.7007874015748031
        },
        {
          "duration": 0.1136362500000132,
          "durationTicks": 240,
          "midi": 71,
          "name": "B4",
          "ticks": 156480,
          "time": 74.090835,
          "velocity": 0.7007874015748031
        },
        {
          "duration": 0.340908749999997,
          "durationTicks": 720,
          "midi": 71,
          "name": "B4",
          "ticks": 156720,
          "time": 74.20447125000001,
          "velocity": 0.7007874015748031
        },
        {
          "duration": 0.340908749999997,
          "durationTicks": 720,
          "midi": 71,
          "name": "B4",
          "ticks": 157440,
          "time": 74.54538000000001,
          "velocity": 0.7007874015748031
        },
        {
          "duration": 0.113636249999999,
          "durationTicks": 240,
          "midi": 68,
          "name": "G#4",
          "ticks": 158160,
          "time": 74.88628875,
          "velocity": 0.7007874015748031
        },
        {
          "duration": 0.227272499999998,
          "durationTicks": 480,
          "midi": 66,
          "name": "F#4",
          "ticks": 158400,
          "time": 74.999925,
          "velocity": 0.7007874015748031
        },
        {
          "duration": 0.2272725000000122,
          "durationTicks": 480,
          "midi": 78,
          "name": "F#5",
          "ticks": 159840,
          "time": 75.6817425,
          "velocity": 0.7007874015748031
        },
        {
          "duration": 0.113636249999999,
          "durationTicks": 240,
          "midi": 75,
          "name": "D#5",
          "ticks": 160320,
          "time": 75.90901500000001,
          "velocity": 0.7007874015748031
        },
        {
          "duration": 0.113636249999999,
          "durationTicks": 240,
          "midi": 73,
          "name": "C#5",
          "ticks": 160560,
          "time": 76.02265125000001,
          "velocity": 0.7007874015748031
        },
        {
          "duration": 0.227272499999998,
          "durationTicks": 480,
          "midi": 71,
          "name": "B4",
          "ticks": 160800,
          "time": 76.13628750000001,
          "velocity": 0.7007874015748031
        },
        {
          "duration": 0.227272499999998,
          "durationTicks": 480,
          "midi": 75,
          "name": "D#5",
          "ticks": 161280,
          "time": 76.36356,
          "velocity": 0.7007874015748031
        },
        {
          "duration": 1.1363625000000042,
          "durationTicks": 2400,
          "midi": 78,
          "name": "F#5",
          "ticks": 161760,
          "time": 76.5908325,
          "velocity": 0.7007874015748031
        },
        {
          "duration": 1.3636350000000022,
          "durationTicks": 2880,
          "midi": 78,
          "name": "F#5",
          "ticks": 165120,
          "time": 78.18174,
          "velocity": 0.7007874015748031
        },
        {
          "duration": 0.113636249999999,
          "durationTicks": 240,
          "midi": 75,
          "name": "D#5",
          "ticks": 168000,
          "time": 79.545375,
          "velocity": 0.7007874015748031
        },
        {
          "duration": 0.113636249999999,
          "durationTicks": 240,
          "midi": 73,
          "name": "C#5",
          "ticks": 168240,
          "time": 79.65901125,
          "velocity": 0.7007874015748031
        },
        {
          "duration": 0.227272499999998,
          "durationTicks": 480,
          "midi": 71,
          "name": "B4",
          "ticks": 168480,
          "time": 79.7726475,
          "velocity": 0.7007874015748031
        },
        {
          "duration": 0.227272499999998,
          "durationTicks": 480,
          "midi": 68,
          "name": "G#4",
          "ticks": 168960,
          "time": 79.99992,
          "velocity": 0.7007874015748031
        },
        {
          "duration": 0.6818175000000082,
          "durationTicks": 1440,
          "midi": 71,
          "name": "B4",
          "ticks": 169440,
          "time": 80.2271925,
          "velocity": 0.7007874015748031
        },
        {
          "duration": 0.227272499999998,
          "durationTicks": 480,
          "midi": 68,
          "name": "G#4",
          "ticks": 171360,
          "time": 81.13628250000001,
          "velocity": 0.7007874015748031
        },
        {
          "duration": 0.113636249999999,
          "durationTicks": 240,
          "midi": 71,
          "name": "B4",
          "ticks": 171840,
          "time": 81.363555,
          "velocity": 0.7007874015748031
        },
        {
          "duration": 0.340908749999997,
          "durationTicks": 720,
          "midi": 71,
          "name": "B4",
          "ticks": 172080,
          "time": 81.47719125,
          "velocity": 0.7007874015748031
        },
        {
          "duration": 0.3409087500000112,
          "durationTicks": 720,
          "midi": 71,
          "name": "B4",
          "ticks": 172800,
          "time": 81.8181,
          "velocity": 0.7007874015748031
        },
        {
          "duration": 0.113636249999999,
          "durationTicks": 240,
          "midi": 68,
          "name": "G#4",
          "ticks": 173520,
          "time": 82.15900875000001,
          "velocity": 0.7007874015748031
        },
        {
          "duration": 0.227272499999998,
          "durationTicks": 480,
          "midi": 66,
          "name": "F#4",
          "ticks": 173760,
          "time": 82.27264500000001,
          "velocity": 0.7007874015748031
        },
        {
          "duration": 0.227272499999998,
          "durationTicks": 480,
          "midi": 78,
          "name": "F#5",
          "ticks": 175200,
          "time": 82.9544625,
          "velocity": 0.7007874015748031
        },
        {
          "duration": 0.113636249999999,
          "durationTicks": 240,
          "midi": 75,
          "name": "D#5",
          "ticks": 175680,
          "time": 83.181735,
          "velocity": 0.7007874015748031
        },
        {
          "duration": 0.113636249999999,
          "durationTicks": 240,
          "midi": 73,
          "name": "C#5",
          "ticks": 175920,
          "time": 83.29537125,
          "velocity": 0.7007874015748031
        },
        {
          "duration": 0.227272499999998,
          "durationTicks": 480,
          "midi": 71,
          "name": "B4",
          "ticks": 176160,
          "time": 83.4090075,
          "velocity": 0.7007874015748031
        },
        {
          "duration": 0.2272725000000122,
          "durationTicks": 480,
          "midi": 75,
          "name": "D#5",
          "ticks": 176640,
          "time": 83.63628,
          "velocity": 0.7007874015748031
        },
        {
          "duration": 1.13636249999999,
          "durationTicks": 2400,
          "midi": 78,
          "name": "F#5",
          "ticks": 177120,
          "time": 83.86355250000001,
          "velocity": 0.7007874015748031
        },
        {
          "duration": 1.363634999999988,
          "durationTicks": 2880,
          "midi": 78,
          "name": "F#5",
          "ticks": 180480,
          "time": 85.45446000000001,
          "velocity": 0.7007874015748031
        },
        {
          "duration": 0.1136362500000132,
          "durationTicks": 240,
          "midi": 75,
          "name": "D#5",
          "ticks": 183360,
          "time": 86.818095,
          "velocity": 0.7007874015748031
        },
        {
          "duration": 0.113636249999999,
          "durationTicks": 240,
          "midi": 73,
          "name": "C#5",
          "ticks": 183600,
          "time": 86.93173125000001,
          "velocity": 0.7007874015748031
        },
        {
          "duration": 0.227272499999998,
          "durationTicks": 480,
          "midi": 71,
          "name": "B4",
          "ticks": 183840,
          "time": 87.04536750000001,
          "velocity": 0.7007874015748031
        },
        {
          "duration": 0.227272499999998,
          "durationTicks": 480,
          "midi": 68,
          "name": "G#4",
          "ticks": 184320,
          "time": 87.27264000000001,
          "velocity": 0.7007874015748031
        },
        {
          "duration": 0.681817499999994,
          "durationTicks": 1440,
          "midi": 71,
          "name": "B4",
          "ticks": 184800,
          "time": 87.49991250000001,
          "velocity": 0.7007874015748031
        },
        {
          "duration": 0.2272725000000122,
          "durationTicks": 480,
          "midi": 68,
          "name": "G#4",
          "ticks": 186720,
          "time": 88.4090025,
          "velocity": 0.7007874015748031
        },
        {
          "duration": 0.113636249999999,
          "durationTicks": 240,
          "midi": 71,
          "name": "B4",
          "ticks": 187200,
          "time": 88.63627500000001,
          "velocity": 0.7007874015748031
        },
        {
          "duration": 0.340908749999997,
          "durationTicks": 720,
          "midi": 71,
          "name": "B4",
          "ticks": 187440,
          "time": 88.74991125000001,
          "velocity": 0.7007874015748031
        },
        {
          "duration": 0.340908749999997,
          "durationTicks": 720,
          "midi": 71,
          "name": "B4",
          "ticks": 188160,
          "time": 89.09082000000001,
          "velocity": 0.7007874015748031
        },
        {
          "duration": 0.113636249999999,
          "durationTicks": 240,
          "midi": 68,
          "name": "G#4",
          "ticks": 188880,
          "time": 89.43172875,
          "velocity": 0.7007874015748031
        },
        {
          "duration": 0.227272499999998,
          "durationTicks": 480,
          "midi": 66,
          "name": "F#4",
          "ticks": 189120,
          "time": 89.545365,
          "velocity": 0.7007874015748031
        },
        {
          "duration": 0.227272499999998,
          "durationTicks": 480,
          "midi": 78,
          "name": "F#5",
          "ticks": 190560,
          "time": 90.22718250000001,
          "velocity": 0.7007874015748031
        },
        {
          "duration": 0.113636249999999,
          "durationTicks": 240,
          "midi": 75,
          "name": "D#5",
          "ticks": 191040,
          "time": 90.45445500000001,
          "velocity": 0.7007874015748031
        },
        {
          "duration": 0.113636249999999,
          "durationTicks": 240,
          "midi": 73,
          "name": "C#5",
          "ticks": 191280,
          "time": 90.56809125000001,
          "velocity": 0.7007874015748031
        },
        {
          "duration": 0.227272499999998,
          "durationTicks": 480,
          "midi": 71,
          "name": "B4",
          "ticks": 191520,
          "time": 90.68172750000001,
          "velocity": 0.7007874015748031
        },
        {
          "duration": 0.227272499999998,
          "durationTicks": 480,
          "midi": 75,
          "name": "D#5",
          "ticks": 192000,
          "time": 90.909,
          "velocity": 0.7007874015748031
        },
        {
          "duration": 1.1363625000000042,
          "durationTicks": 2400,
          "midi": 78,
          "name": "F#5",
          "ticks": 192480,
          "time": 91.1362725,
          "velocity": 0.7007874015748031
        },
        {
          "duration": 1.3636350000000022,
          "durationTicks": 2880,
          "midi": 78,
          "name": "F#5",
          "ticks": 195840,
          "time": 92.72718,
          "velocity": 0.7007874015748031
        },
        {
          "duration": 0.113636249999999,
          "durationTicks": 240,
          "midi": 75,
          "name": "D#5",
          "ticks": 198720,
          "time": 94.090815,
          "velocity": 0.7007874015748031
        },
        {
          "duration": 0.113636249999999,
          "durationTicks": 240,
          "midi": 73,
          "name": "C#5",
          "ticks": 198960,
          "time": 94.20445125,
          "velocity": 0.7007874015748031
        },
        {
          "duration": 0.227272499999998,
          "durationTicks": 480,
          "midi": 71,
          "name": "B4",
          "ticks": 199200,
          "time": 94.3180875,
          "velocity": 0.7007874015748031
        },
        {
          "duration": 0.227272499999998,
          "durationTicks": 480,
          "midi": 68,
          "name": "G#4",
          "ticks": 199680,
          "time": 94.54536,
          "velocity": 0.7007874015748031
        },
        {
          "duration": 0.6818175000000082,
          "durationTicks": 1440,
          "midi": 71,
          "name": "B4",
          "ticks": 200160,
          "time": 94.7726325,
          "velocity": 0.7007874015748031
        },
        {
          "duration": 0.227272499999998,
          "durationTicks": 480,
          "midi": 68,
          "name": "G#4",
          "ticks": 202080,
          "time": 95.6817225,
          "velocity": 0.7007874015748031
        },
        {
          "duration": 0.113636249999999,
          "durationTicks": 240,
          "midi": 71,
          "name": "B4",
          "ticks": 202560,
          "time": 95.908995,
          "velocity": 0.7007874015748031
        },
        {
          "duration": 0.340908749999997,
          "durationTicks": 720,
          "midi": 71,
          "name": "B4",
          "ticks": 202800,
          "time": 96.02263125,
          "velocity": 0.7007874015748031
        },
        {
          "duration": 0.3409087500000112,
          "durationTicks": 720,
          "midi": 71,
          "name": "B4",
          "ticks": 203520,
          "time": 96.36354,
          "velocity": 0.7007874015748031
        },
        {
          "duration": 0.113636249999999,
          "durationTicks": 240,
          "midi": 68,
          "name": "G#4",
          "ticks": 204240,
          "time": 96.70444875000001,
          "velocity": 0.7007874015748031
        },
        {
          "duration": 0.227272499999998,
          "durationTicks": 480,
          "midi": 66,
          "name": "F#4",
          "ticks": 204480,
          "time": 96.81808500000001,
          "velocity": 0.7007874015748031
        },
        {
          "duration": 0.227272499999998,
          "durationTicks": 480,
          "midi": 78,
          "name": "F#5",
          "ticks": 205920,
          "time": 97.4999025,
          "velocity": 0.7007874015748031
        },
        {
          "duration": 0.113636249999999,
          "durationTicks": 240,
          "midi": 75,
          "name": "D#5",
          "ticks": 206400,
          "time": 97.727175,
          "velocity": 0.7007874015748031
        },
        {
          "duration": 0.113636249999999,
          "durationTicks": 240,
          "midi": 73,
          "name": "C#5",
          "ticks": 206640,
          "time": 97.84081125,
          "velocity": 0.7007874015748031
        },
        {
          "duration": 0.2272725000000122,
          "durationTicks": 480,
          "midi": 71,
          "name": "B4",
          "ticks": 206880,
          "time": 97.9544475,
          "velocity": 0.7007874015748031
        },
        {
          "duration": 0.227272499999998,
          "durationTicks": 480,
          "midi": 75,
          "name": "D#5",
          "ticks": 207360,
          "time": 98.18172000000001,
          "velocity": 0.7007874015748031
        },
        {
          "duration": 1.13636249999999,
          "durationTicks": 2400,
          "midi": 78,
          "name": "F#5",
          "ticks": 207840,
          "time": 98.40899250000001,
          "velocity": 0.7007874015748031
        },
        {
          "duration": 1.3636350000000022,
          "durationTicks": 2880,
          "midi": 78,
          "name": "F#5",
          "ticks": 211200,
          "time": 99.99990000000001,
          "velocity": 0.7007874015748031
        },
        {
          "duration": 0.113636249999999,
          "durationTicks": 240,
          "midi": 75,
          "name": "D#5",
          "ticks": 214080,
          "time": 101.36353500000001,
          "velocity": 0.7007874015748031
        },
        {
          "duration": 0.113636249999999,
          "durationTicks": 240,
          "midi": 73,
          "name": "C#5",
          "ticks": 214320,
          "time": 101.47717125000001,
          "velocity": 0.7007874015748031
        },
        {
          "duration": 0.227272499999998,
          "durationTicks": 480,
          "midi": 71,
          "name": "B4",
          "ticks": 214560,
          "time": 101.59080750000001,
          "velocity": 0.7007874015748031
        },
        {
          "duration": 0.227272499999998,
          "durationTicks": 480,
          "midi": 68,
          "name": "G#4",
          "ticks": 215040,
          "time": 101.81808000000001,
          "velocity": 0.7007874015748031
        },
        {
          "duration": 0.681817499999994,
          "durationTicks": 1440,
          "midi": 71,
          "name": "B4",
          "ticks": 215520,
          "time": 102.0453525,
          "velocity": 0.7007874015748031
        },
        {
          "duration": 0.227272499999998,
          "durationTicks": 480,
          "midi": 68,
          "name": "G#4",
          "ticks": 217440,
          "time": 102.95444250000001,
          "velocity": 0.7007874015748031
        },
        {
          "duration": 0.113636249999999,
          "durationTicks": 240,
          "midi": 71,
          "name": "B4",
          "ticks": 217920,
          "time": 103.18171500000001,
          "velocity": 0.7007874015748031
        },
        {
          "duration": 0.340908749999997,
          "durationTicks": 720,
          "midi": 71,
          "name": "B4",
          "ticks": 218160,
          "time": 103.29535125000001,
          "velocity": 0.7007874015748031
        },
        {
          "duration": 0.340908749999997,
          "durationTicks": 720,
          "midi": 71,
          "name": "B4",
          "ticks": 218880,
          "time": 103.63626000000001,
          "velocity": 0.7007874015748031
        },
        {
          "duration": 0.113636249999999,
          "durationTicks": 240,
          "midi": 68,
          "name": "G#4",
          "ticks": 219600,
          "time": 103.97716875,
          "velocity": 0.7007874015748031
        },
        {
          "duration": 0.227272499999998,
          "durationTicks": 480,
          "midi": 66,
          "name": "F#4",
          "ticks": 219840,
          "time": 104.090805,
          "velocity": 0.7007874015748031
        },
        {
          "duration": 0.227272499999998,
          "durationTicks": 480,
          "midi": 78,
          "name": "F#5",
          "ticks": 221280,
          "time": 104.77262250000001,
          "velocity": 0.7007874015748031
        },
        {
          "duration": 0.113636249999999,
          "durationTicks": 240,
          "midi": 75,
          "name": "D#5",
          "ticks": 221760,
          "time": 104.99989500000001,
          "velocity": 0.7007874015748031
        },
        {
          "duration": 0.113636249999999,
          "durationTicks": 240,
          "midi": 73,
          "name": "C#5",
          "ticks": 222000,
          "time": 105.11353125000001,
          "velocity": 0.7007874015748031
        },
        {
          "duration": 0.227272499999998,
          "durationTicks": 480,
          "midi": 71,
          "name": "B4",
          "ticks": 222240,
          "time": 105.22716750000001,
          "velocity": 0.7007874015748031
        },
        {
          "duration": 0.227272499999998,
          "durationTicks": 480,
          "midi": 75,
          "name": "D#5",
          "ticks": 222720,
          "time": 105.45444,
          "velocity": 0.7007874015748031
        },
        {
          "duration": 1.1363625000000042,
          "durationTicks": 2400,
          "midi": 78,
          "name": "F#5",
          "ticks": 223200,
          "time": 105.6817125,
          "velocity": 0.7007874015748031
        },
        {
          "duration": 1.3636350000000022,
          "durationTicks": 2880,
          "midi": 78,
          "name": "F#5",
          "ticks": 226560,
          "time": 107.27262,
          "velocity": 0.7007874015748031
        },
        {
          "duration": 0.113636249999999,
          "durationTicks": 240,
          "midi": 75,
          "name": "D#5",
          "ticks": 229440,
          "time": 108.636255,
          "velocity": 0.7007874015748031
        },
        {
          "duration": 0.113636249999999,
          "durationTicks": 240,
          "midi": 73,
          "name": "C#5",
          "ticks": 229680,
          "time": 108.74989125,
          "velocity": 0.7007874015748031
        },
        {
          "duration": 0.227272499999998,
          "durationTicks": 480,
          "midi": 71,
          "name": "B4",
          "ticks": 229920,
          "time": 108.8635275,
          "velocity": 0.7007874015748031
        },
        {
          "duration": 0.2272725000000122,
          "durationTicks": 480,
          "midi": 68,
          "name": "G#4",
          "ticks": 230400,
          "time": 109.0908,
          "velocity": 0.7007874015748031
        },
        {
          "duration": 0.681817499999994,
          "durationTicks": 1440,
          "midi": 71,
          "name": "B4",
          "ticks": 230880,
          "time": 109.31807250000001,
          "velocity": 0.7007874015748031
        },
        {
          "duration": 0.227272499999998,
          "durationTicks": 480,
          "midi": 68,
          "name": "G#4",
          "ticks": 232800,
          "time": 110.2271625,
          "velocity": 0.7007874015748031
        },
        {
          "duration": 0.113636249999999,
          "durationTicks": 240,
          "midi": 71,
          "name": "B4",
          "ticks": 233280,
          "time": 110.454435,
          "velocity": 0.7007874015748031
        },
        {
          "duration": 0.3409087500000112,
          "durationTicks": 720,
          "midi": 71,
          "name": "B4",
          "ticks": 233520,
          "time": 110.56807125,
          "velocity": 0.7007874015748031
        },
        {
          "duration": 0.340908749999997,
          "durationTicks": 720,
          "midi": 71,
          "name": "B4",
          "ticks": 264960,
          "time": 125.45442000000001,
          "velocity": 0.7007874015748031
        },
        {
          "duration": 0.113636249999999,
          "durationTicks": 240,
          "midi": 68,
          "name": "G#4",
          "ticks": 265680,
          "time": 125.79532875000001,
          "velocity": 0.7007874015748031
        },
        {
          "duration": 0.227272499999998,
          "durationTicks": 480,
          "midi": 66,
          "name": "F#4",
          "ticks": 265920,
          "time": 125.90896500000001,
          "velocity": 0.7007874015748031
        },
        {
          "duration": 0.2272725000000122,
          "durationTicks": 480,
          "midi": 78,
          "name": "F#5",
          "ticks": 267360,
          "time": 126.5907825,
          "velocity": 0.7007874015748031
        },
        {
          "duration": 0.113636249999999,
          "durationTicks": 240,
          "midi": 75,
          "name": "D#5",
          "ticks": 267840,
          "time": 126.81805500000002,
          "velocity": 0.7007874015748031
        },
        {
          "duration": 0.113636249999999,
          "durationTicks": 240,
          "midi": 73,
          "name": "C#5",
          "ticks": 268080,
          "time": 126.93169125000001,
          "velocity": 0.7007874015748031
        },
        {
          "duration": 0.227272499999998,
          "durationTicks": 480,
          "midi": 71,
          "name": "B4",
          "ticks": 268320,
          "time": 127.04532750000001,
          "velocity": 0.7007874015748031
        },
        {
          "duration": 0.227272499999998,
          "durationTicks": 480,
          "midi": 75,
          "name": "D#5",
          "ticks": 268800,
          "time": 127.27260000000001,
          "velocity": 0.7007874015748031
        },
        {
          "duration": 1.13636249999999,
          "durationTicks": 2400,
          "midi": 78,
          "name": "F#5",
          "ticks": 269280,
          "time": 127.49987250000001,
          "velocity": 0.7007874015748031
        },
        {
          "duration": 1.3636350000000164,
          "durationTicks": 2880,
          "midi": 78,
          "name": "F#5",
          "ticks": 272640,
          "time": 129.09078,
          "velocity": 0.7007874015748031
        },
        {
          "duration": 0.11363624999998478,
          "durationTicks": 240,
          "midi": 75,
          "name": "D#5",
          "ticks": 275520,
          "time": 130.454415,
          "velocity": 0.7007874015748031
        },
        {
          "duration": 0.1136362500000132,
          "durationTicks": 240,
          "midi": 73,
          "name": "C#5",
          "ticks": 275760,
          "time": 130.56805125,
          "velocity": 0.7007874015748031
        },
        {
          "duration": 0.227272499999998,
          "durationTicks": 480,
          "midi": 71,
          "name": "B4",
          "ticks": 276000,
          "time": 130.6816875,
          "velocity": 0.7007874015748031
        },
        {
          "duration": 0.227272499999998,
          "durationTicks": 480,
          "midi": 68,
          "name": "G#4",
          "ticks": 276480,
          "time": 130.90896,
          "velocity": 0.7007874015748031
        },
        {
          "duration": 0.681817499999994,
          "durationTicks": 1440,
          "midi": 71,
          "name": "B4",
          "ticks": 276960,
          "time": 131.1362325,
          "velocity": 0.7007874015748031
        },
        {
          "duration": 0.227272499999998,
          "durationTicks": 480,
          "midi": 68,
          "name": "G#4",
          "ticks": 278880,
          "time": 132.0453225,
          "velocity": 0.7007874015748031
        },
        {
          "duration": 0.1136362500000132,
          "durationTicks": 240,
          "midi": 71,
          "name": "B4",
          "ticks": 279360,
          "time": 132.272595,
          "velocity": 0.7007874015748031
        },
        {
          "duration": 0.3409087500000112,
          "durationTicks": 720,
          "midi": 71,
          "name": "B4",
          "ticks": 279600,
          "time": 132.38623125,
          "velocity": 0.7007874015748031
        },
        {
          "duration": 0.3409087499999828,
          "durationTicks": 720,
          "midi": 71,
          "name": "B4",
          "ticks": 280320,
          "time": 132.72714000000002,
          "velocity": 0.7007874015748031
        },
        {
          "duration": 0.1136362500000132,
          "durationTicks": 240,
          "midi": 68,
          "name": "G#4",
          "ticks": 281040,
          "time": 133.06804875,
          "velocity": 0.7007874015748031
        },
        {
          "duration": 0.227272499999998,
          "durationTicks": 480,
          "midi": 66,
          "name": "F#4",
          "ticks": 281280,
          "time": 133.18168500000002,
          "velocity": 0.7007874015748031
        },
        {
          "duration": 0.227272499999998,
          "durationTicks": 480,
          "midi": 78,
          "name": "F#5",
          "ticks": 282720,
          "time": 133.8635025,
          "velocity": 0.7007874015748031
        },
        {
          "duration": 0.1136362500000132,
          "durationTicks": 240,
          "midi": 75,
          "name": "D#5",
          "ticks": 283200,
          "time": 134.090775,
          "velocity": 0.7007874015748031
        },
        {
          "duration": 0.11363624999998478,
          "durationTicks": 240,
          "midi": 73,
          "name": "C#5",
          "ticks": 283440,
          "time": 134.20441125000002,
          "velocity": 0.7007874015748031
        },
        {
          "duration": 0.227272499999998,
          "durationTicks": 480,
          "midi": 71,
          "name": "B4",
          "ticks": 283680,
          "time": 134.3180475,
          "velocity": 0.7007874015748031
        },
        {
          "duration": 0.227272499999998,
          "durationTicks": 480,
          "midi": 75,
          "name": "D#5",
          "ticks": 284160,
          "time": 134.54532,
          "velocity": 0.7007874015748031
        },
        {
          "duration": 1.1363625000000184,
          "durationTicks": 2400,
          "midi": 78,
          "name": "F#5",
          "ticks": 284640,
          "time": 134.7725925,
          "velocity": 0.7007874015748031
        },
        {
          "duration": 1.363634999999988,
          "durationTicks": 2880,
          "midi": 78,
          "name": "F#5",
          "ticks": 288000,
          "time": 136.36350000000002,
          "velocity": 0.7007874015748031
        },
        {
          "duration": 0.1136362500000132,
          "durationTicks": 240,
          "midi": 75,
          "name": "D#5",
          "ticks": 290880,
          "time": 137.727135,
          "velocity": 0.7007874015748031
        },
        {
          "duration": 0.11363624999998478,
          "durationTicks": 240,
          "midi": 73,
          "name": "C#5",
          "ticks": 291120,
          "time": 137.84077125000002,
          "velocity": 0.7007874015748031
        },
        {
          "duration": 0.227272499999998,
          "durationTicks": 480,
          "midi": 71,
          "name": "B4",
          "ticks": 291360,
          "time": 137.9544075,
          "velocity": 0.7007874015748031
        },
        {
          "duration": 0.227272499999998,
          "durationTicks": 480,
          "midi": 68,
          "name": "G#4",
          "ticks": 291840,
          "time": 138.18168,
          "velocity": 0.7007874015748031
        },
        {
          "duration": 0.6818175000000224,
          "durationTicks": 1440,
          "midi": 71,
          "name": "B4",
          "ticks": 292320,
          "time": 138.4089525,
          "velocity": 0.7007874015748031
        },
        {
          "duration": 0.227272499999998,
          "durationTicks": 480,
          "midi": 68,
          "name": "G#4",
          "ticks": 294240,
          "time": 139.31804250000002,
          "velocity": 0.7007874015748031
        },
        {
          "duration": 0.11363624999998478,
          "durationTicks": 240,
          "midi": 71,
          "name": "B4",
          "ticks": 294720,
          "time": 139.54531500000002,
          "velocity": 0.7007874015748031
        },
        {
          "duration": 0.3409087500000112,
          "durationTicks": 720,
          "midi": 71,
          "name": "B4",
          "ticks": 294960,
          "time": 139.65895125,
          "velocity": 0.7007874015748031
        },
        {
          "duration": 0.3409087500000112,
          "durationTicks": 720,
          "midi": 71,
          "name": "B4",
          "ticks": 295680,
          "time": 139.99986,
          "velocity": 0.7007874015748031
        },
        {
          "duration": 0.11363624999998478,
          "durationTicks": 240,
          "midi": 68,
          "name": "G#4",
          "ticks": 296400,
          "time": 140.34076875000002,
          "velocity": 0.7007874015748031
        },
        {
          "duration": 0.227272499999998,
          "durationTicks": 480,
          "midi": 66,
          "name": "F#4",
          "ticks": 296640,
          "time": 140.454405,
          "velocity": 0.7007874015748031
        },
        {
          "duration": 0.227272499999998,
          "durationTicks": 480,
          "midi": 78,
          "name": "F#5",
          "ticks": 298080,
          "time": 141.1362225,
          "velocity": 0.7007874015748031
        },
        {
          "duration": 0.1136362500000132,
          "durationTicks": 240,
          "midi": 75,
          "name": "D#5",
          "ticks": 298560,
          "time": 141.363495,
          "velocity": 0.7007874015748031
        },
        {
          "duration": 0.11363624999998478,
          "durationTicks": 240,
          "midi": 73,
          "name": "C#5",
          "ticks": 298800,
          "time": 141.47713125,
          "velocity": 0.7007874015748031
        },
        {
          "duration": 0.227272499999998,
          "durationTicks": 480,
          "midi": 71,
          "name": "B4",
          "ticks": 299040,
          "time": 141.5907675,
          "velocity": 0.7007874015748031
        },
        {
          "duration": 0.2272725000000264,
          "durationTicks": 480,
          "midi": 75,
          "name": "D#5",
          "ticks": 299520,
          "time": 141.81804,
          "velocity": 0.7007874015748031
        },
        {
          "duration": 1.13636249999999,
          "durationTicks": 2400,
          "midi": 78,
          "name": "F#5",
          "ticks": 300000,
          "time": 142.04531250000002,
          "velocity": 0.7007874015748031
        },
        {
          "duration": 1.363634999999988,
          "durationTicks": 2880,
          "midi": 78,
          "name": "F#5",
          "ticks": 303360,
          "time": 143.63622,
          "velocity": 0.7007874015748031
        },
        {
          "duration": 0.227272499999998,
          "durationTicks": 480,
          "midi": 68,
          "name": "G#4",
          "ticks": 307200,
          "time": 145.45440000000002,
          "velocity": 0.7007874015748031
        },
        {
          "duration": 0.681817499999994,
          "durationTicks": 1440,
          "midi": 71,
          "name": "B4",
          "ticks": 307680,
          "time": 145.68167250000002,
          "velocity": 0.7007874015748031
        },
        {
          "duration": 0.227272499999998,
          "durationTicks": 480,
          "midi": 68,
          "name": "G#4",
          "ticks": 309600,
          "time": 146.5907625,
          "velocity": 0.7007874015748031
        },
        {
          "duration": 0.1136362500000132,
          "durationTicks": 240,
          "midi": 71,
          "name": "B4",
          "ticks": 310080,
          "time": 146.818035,
          "velocity": 0.7007874015748031
        },
        {
          "duration": 0.3409087499999828,
          "durationTicks": 720,
          "midi": 71,
          "name": "B4",
          "ticks": 310320,
          "time": 146.93167125000002,
          "velocity": 0.7007874015748031
        },
        {
          "duration": 0.3409087500000112,
          "durationTicks": 720,
          "midi": 71,
          "name": "B4",
          "ticks": 311040,
          "time": 147.27258,
          "velocity": 0.7007874015748031
        },
        {
          "duration": 0.11363624999998478,
          "durationTicks": 240,
          "midi": 68,
          "name": "G#4",
          "ticks": 311760,
          "time": 147.61348875000002,
          "velocity": 0.7007874015748031
        },
        {
          "duration": 0.227272499999998,
          "durationTicks": 480,
          "midi": 66,
          "name": "F#4",
          "ticks": 312000,
          "time": 147.727125,
          "velocity": 0.7007874015748031
        },
        {
          "duration": 0.227272499999998,
          "durationTicks": 480,
          "midi": 78,
          "name": "F#5",
          "ticks": 313440,
          "time": 148.40894250000002,
          "velocity": 0.7007874015748031
        },
        {
          "duration": 0.11363624999998478,
          "durationTicks": 240,
          "midi": 75,
          "name": "D#5",
          "ticks": 313920,
          "time": 148.63621500000002,
          "velocity": 0.7007874015748031
        },
        {
          "duration": 0.1136362500000132,
          "durationTicks": 240,
          "midi": 73,
          "name": "C#5",
          "ticks": 314160,
          "time": 148.74985125,
          "velocity": 0.7007874015748031
        },
        {
          "duration": 0.227272499999998,
          "durationTicks": 480,
          "midi": 71,
          "name": "B4",
          "ticks": 314400,
          "time": 148.86348750000002,
          "velocity": 0.7007874015748031
        },
        {
          "duration": 0.227272499999998,
          "durationTicks": 480,
          "midi": 75,
          "name": "D#5",
          "ticks": 314880,
          "time": 149.09076000000002,
          "velocity": 0.7007874015748031
        },
        {
          "duration": 1.13636249999999,
          "durationTicks": 2400,
          "midi": 78,
          "name": "F#5",
          "ticks": 315360,
          "time": 149.31803250000002,
          "velocity": 0.7007874015748031
        },
        {
          "duration": 1.3636350000000164,
          "durationTicks": 2880,
          "midi": 78,
          "name": "F#5",
          "ticks": 318720,
          "time": 150.90894,
          "velocity": 0.7007874015748031
        },
        {
          "duration": 0.11363624999998478,
          "durationTicks": 240,
          "midi": 75,
          "name": "D#5",
          "ticks": 321600,
          "time": 152.27257500000002,
          "velocity": 0.7007874015748031
        },
        {
          "duration": 0.1136362500000132,
          "durationTicks": 240,
          "midi": 73,
          "name": "C#5",
          "ticks": 321840,
          "time": 152.38621125,
          "velocity": 0.7007874015748031
        },
        {
          "duration": 0.227272499999998,
          "durationTicks": 480,
          "midi": 71,
          "name": "B4",
          "ticks": 322080,
          "time": 152.49984750000002,
          "velocity": 0.7007874015748031
        },
        {
          "duration": 0.227272499999998,
          "durationTicks": 480,
          "midi": 68,
          "name": "G#4",
          "ticks": 322560,
          "time": 152.72712,
          "velocity": 0.7007874015748031
        },
        {
          "duration": 0.681817499999994,
          "durationTicks": 1440,
          "midi": 71,
          "name": "B4",
          "ticks": 323040,
          "time": 152.9543925,
          "velocity": 0.7007874015748031
        },
        {
          "duration": 0.227272499999998,
          "durationTicks": 480,
          "midi": 68,
          "name": "G#4",
          "ticks": 324960,
          "time": 153.8634825,
          "velocity": 0.7007874015748031
        },
        {
          "duration": 0.1136362500000132,
          "durationTicks": 240,
          "midi": 71,
          "name": "B4",
          "ticks": 325440,
          "time": 154.090755,
          "velocity": 0.7007874015748031
        },
        {
          "duration": 0.3409087499999828,
          "durationTicks": 720,
          "midi": 71,
          "name": "B4",
          "ticks": 325680,
          "time": 154.20439125000001,
          "velocity": 0.7007874015748031
        },
        {
          "duration": 0.3409087500000112,
          "durationTicks": 720,
          "midi": 71,
          "name": "B4",
          "ticks": 326400,
          "time": 154.5453,
          "velocity": 0.7007874015748031
        },
        {
          "duration": 0.1136362500000132,
          "durationTicks": 240,
          "midi": 68,
          "name": "G#4",
          "ticks": 327120,
          "time": 154.88620875,
          "velocity": 0.7007874015748031
        },
        {
          "duration": 0.227272499999998,
          "durationTicks": 480,
          "midi": 66,
          "name": "F#4",
          "ticks": 327360,
          "time": 154.99984500000002,
          "velocity": 0.7007874015748031
        },
        {
          "duration": 0.227272499999998,
          "durationTicks": 480,
          "midi": 78,
          "name": "F#5",
          "ticks": 328800,
          "time": 155.68166250000002,
          "velocity": 0.7007874015748031
        },
        {
          "duration": 0.11363624999998478,
          "durationTicks": 240,
          "midi": 75,
          "name": "D#5",
          "ticks": 329280,
          "time": 155.908935,
          "velocity": 0.7007874015748031
        },
        {
          "duration": 0.1136362500000132,
          "durationTicks": 240,
          "midi": 73,
          "name": "C#5",
          "ticks": 329520,
          "time": 156.02257125,
          "velocity": 0.7007874015748031
        },
        {
          "duration": 0.227272499999998,
          "durationTicks": 480,
          "midi": 71,
          "name": "B4",
          "ticks": 329760,
          "time": 156.1362075,
          "velocity": 0.7007874015748031
        },
        {
          "duration": 0.227272499999998,
          "durationTicks": 480,
          "midi": 75,
          "name": "D#5",
          "ticks": 330240,
          "time": 156.36348,
          "velocity": 0.7007874015748031
        },
        {
          "duration": 1.13636249999999,
          "durationTicks": 2400,
          "midi": 78,
          "name": "F#5",
          "ticks": 330720,
          "time": 156.5907525,
          "velocity": 0.7007874015748031
        },
        {
          "duration": 1.363634999999988,
          "durationTicks": 2880,
          "midi": 78,
          "name": "F#5",
          "ticks": 334080,
          "time": 158.18166000000002,
          "velocity": 0.7007874015748031
        },
        {
          "duration": 0.1136362500000132,
          "durationTicks": 240,
          "midi": 75,
          "name": "D#5",
          "ticks": 336960,
          "time": 159.545295,
          "velocity": 0.7007874015748031
        },
        {
          "duration": 0.11363624999998478,
          "durationTicks": 240,
          "midi": 73,
          "name": "C#5",
          "ticks": 337200,
          "time": 159.65893125000002,
          "velocity": 0.7007874015748031
        },
        {
          "duration": 0.227272499999998,
          "durationTicks": 480,
          "midi": 71,
          "name": "B4",
          "ticks": 337440,
          "time": 159.7725675,
          "velocity": 0.7007874015748031
        },
        {
          "duration": 0.227272499999998,
          "durationTicks": 480,
          "midi": 68,
          "name": "G#4",
          "ticks": 337920,
          "time": 159.99984,
          "velocity": 0.7007874015748031
        },
        {
          "duration": 0.681817499999994,
          "durationTicks": 1440,
          "midi": 71,
          "name": "B4",
          "ticks": 338400,
          "time": 160.2271125,
          "velocity": 0.7007874015748031
        },
        {
          "duration": 0.227272499999998,
          "durationTicks": 480,
          "midi": 68,
          "name": "G#4",
          "ticks": 340320,
          "time": 161.13620250000002,
          "velocity": 0.7007874015748031
        },
        {
          "duration": 0.11363624999998478,
          "durationTicks": 240,
          "midi": 71,
          "name": "B4",
          "ticks": 340800,
          "time": 161.36347500000002,
          "velocity": 0.7007874015748031
        },
        {
          "duration": 0.3409087500000112,
          "durationTicks": 720,
          "midi": 71,
          "name": "B4",
          "ticks": 341040,
          "time": 161.47711125,
          "velocity": 0.7007874015748031
        },
        {
          "duration": 0.3409087499999828,
          "durationTicks": 720,
          "midi": 71,
          "name": "B4",
          "ticks": 341760,
          "time": 161.81802000000002,
          "velocity": 0.7007874015748031
        },
        {
          "duration": 0.1136362500000132,
          "durationTicks": 240,
          "midi": 68,
          "name": "G#4",
          "ticks": 342480,
          "time": 162.15892875,
          "velocity": 0.7007874015748031
        },
        {
          "duration": 0.227272499999998,
          "durationTicks": 480,
          "midi": 66,
          "name": "F#4",
          "ticks": 342720,
          "time": 162.27256500000001,
          "velocity": 0.7007874015748031
        },
        {
          "duration": 0.227272499999998,
          "durationTicks": 480,
          "midi": 78,
          "name": "F#5",
          "ticks": 344160,
          "time": 162.9543825,
          "velocity": 0.7007874015748031
        },
        {
          "duration": 0.1136362500000132,
          "durationTicks": 240,
          "midi": 75,
          "name": "D#5",
          "ticks": 344640,
          "time": 163.181655,
          "velocity": 0.7007874015748031
        },
        {
          "duration": 0.11363624999998478,
          "durationTicks": 240,
          "midi": 73,
          "name": "C#5",
          "ticks": 344880,
          "time": 163.29529125000002,
          "velocity": 0.7007874015748031
        },
        {
          "duration": 0.227272499999998,
          "durationTicks": 480,
          "midi": 71,
          "name": "B4",
          "ticks": 345120,
          "time": 163.4089275,
          "velocity": 0.7007874015748031
        },
        {
          "duration": 0.227272499999998,
          "durationTicks": 480,
          "midi": 75,
          "name": "D#5",
          "ticks": 345600,
          "time": 163.6362,
          "velocity": 0.7007874015748031
        },
        {
          "duration": 1.1363625000000184,
          "durationTicks": 2400,
          "midi": 78,
          "name": "F#5",
          "ticks": 346080,
          "time": 163.8634725,
          "velocity": 0.7007874015748031
        },
        {
          "duration": 1.363634999999988,
          "durationTicks": 2880,
          "midi": 78,
          "name": "F#5",
          "ticks": 349440,
          "time": 165.45438000000001,
          "velocity": 0.7007874015748031
        },
        {
          "duration": 0.1136362500000132,
          "durationTicks": 240,
          "midi": 75,
          "name": "D#5",
          "ticks": 352320,
          "time": 166.818015,
          "velocity": 0.7007874015748031
        },
        {
          "duration": 0.11363624999998478,
          "durationTicks": 240,
          "midi": 73,
          "name": "C#5",
          "ticks": 352560,
          "time": 166.93165125000002,
          "velocity": 0.7007874015748031
        },
        {
          "duration": 0.227272499999998,
          "durationTicks": 480,
          "midi": 71,
          "name": "B4",
          "ticks": 352800,
          "time": 167.0452875,
          "velocity": 0.7007874015748031
        },
        {
          "duration": 0.2272725000000264,
          "durationTicks": 480,
          "midi": 68,
          "name": "G#4",
          "ticks": 353280,
          "time": 167.27256,
          "velocity": 0.7007874015748031
        },
        {
          "duration": 0.681817499999994,
          "durationTicks": 1440,
          "midi": 71,
          "name": "B4",
          "ticks": 353760,
          "time": 167.49983250000002,
          "velocity": 0.7007874015748031
        },
        {
          "duration": 0.227272499999998,
          "durationTicks": 480,
          "midi": 68,
          "name": "G#4",
          "ticks": 355680,
          "time": 168.40892250000002,
          "velocity": 0.7007874015748031
        },
        {
          "duration": 0.11363624999998478,
          "durationTicks": 240,
          "midi": 71,
          "name": "B4",
          "ticks": 356160,
          "time": 168.63619500000001,
          "velocity": 0.7007874015748031
        },
        {
          "duration": 0.3409087500000112,
          "durationTicks": 720,
          "midi": 71,
          "name": "B4",
          "ticks": 356400,
          "time": 168.74983125,
          "velocity": 0.7007874015748031
        },
        {
          "duration": 0.3409087500000112,
          "durationTicks": 720,
          "midi": 71,
          "name": "B4",
          "ticks": 357120,
          "time": 169.09074,
          "velocity": 0.7007874015748031
        },
        {
          "duration": 0.11363624999998478,
          "durationTicks": 240,
          "midi": 68,
          "name": "G#4",
          "ticks": 357840,
          "time": 169.43164875000002,
          "velocity": 0.7007874015748031
        },
        {
          "duration": 0.227272499999998,
          "durationTicks": 480,
          "midi": 66,
          "name": "F#4",
          "ticks": 358080,
          "time": 169.545285,
          "velocity": 0.7007874015748031
        },
        {
          "duration": 0.227272499999998,
          "durationTicks": 480,
          "midi": 78,
          "name": "F#5",
          "ticks": 359520,
          "time": 170.2271025,
          "velocity": 0.7007874015748031
        },
        {
          "duration": 0.1136362500000132,
          "durationTicks": 240,
          "midi": 75,
          "name": "D#5",
          "ticks": 360000,
          "time": 170.454375,
          "velocity": 0.7007874015748031
        },
        {
          "duration": 0.1136362500000132,
          "durationTicks": 240,
          "midi": 73,
          "name": "C#5",
          "ticks": 360240,
          "time": 170.56801125,
          "velocity": 0.7007874015748031
        },
        {
          "duration": 0.227272499999998,
          "durationTicks": 480,
          "midi": 71,
          "name": "B4",
          "ticks": 360480,
          "time": 170.68164750000003,
          "velocity": 0.7007874015748031
        },
        {
          "duration": 0.227272499999998,
          "durationTicks": 480,
          "midi": 75,
          "name": "D#5",
          "ticks": 360960,
          "time": 170.90892000000002,
          "velocity": 0.7007874015748031
        },
        {
          "duration": 1.13636249999999,
          "durationTicks": 2400,
          "midi": 78,
          "name": "F#5",
          "ticks": 361440,
          "time": 171.13619250000002,
          "velocity": 0.7007874015748031
        },
        {
          "duration": 1.3636350000000164,
          "durationTicks": 2880,
          "midi": 78,
          "name": "F#5",
          "ticks": 364800,
          "time": 172.7271,
          "velocity": 0.7007874015748031
        },
        {
          "duration": 0.11363624999998478,
          "durationTicks": 240,
          "midi": 75,
          "name": "D#5",
          "ticks": 367680,
          "time": 174.09073500000002,
          "velocity": 0.7007874015748031
        },
        {
          "duration": 0.1136362500000132,
          "durationTicks": 240,
          "midi": 73,
          "name": "C#5",
          "ticks": 367920,
          "time": 174.20437125,
          "velocity": 0.7007874015748031
        },
        {
          "duration": 0.227272499999998,
          "durationTicks": 480,
          "midi": 71,
          "name": "B4",
          "ticks": 368160,
          "time": 174.31800750000002,
          "velocity": 0.7007874015748031
        },
        {
          "duration": 0.227272499999998,
          "durationTicks": 480,
          "midi": 68,
          "name": "G#4",
          "ticks": 368640,
          "time": 174.54528000000002,
          "velocity": 0.7007874015748031
        },
        {
          "duration": 0.681817499999994,
          "durationTicks": 1440,
          "midi": 71,
          "name": "B4",
          "ticks": 369120,
          "time": 174.77255250000002,
          "velocity": 0.7007874015748031
        },
        {
          "duration": 0.227272499999998,
          "durationTicks": 480,
          "midi": 68,
          "name": "G#4",
          "ticks": 371040,
          "time": 175.6816425,
          "velocity": 0.7007874015748031
        },
        {
          "duration": 0.1136362500000132,
          "durationTicks": 240,
          "midi": 71,
          "name": "B4",
          "ticks": 371520,
          "time": 175.908915,
          "velocity": 0.7007874015748031
        },
        {
          "duration": 0.3409087499999828,
          "durationTicks": 720,
          "midi": 71,
          "name": "B4",
          "ticks": 371760,
          "time": 176.02255125000002,
          "velocity": 0.7007874015748031
        },
        {
          "duration": 0.3409087500000112,
          "durationTicks": 720,
          "midi": 71,
          "name": "B4",
          "ticks": 372480,
          "time": 176.36346,
          "velocity": 0.7007874015748031
        },
        {
          "duration": 0.11363624999998478,
          "durationTicks": 240,
          "midi": 68,
          "name": "G#4",
          "ticks": 373200,
          "time": 176.70436875000001,
          "velocity": 0.7007874015748031
        },
        {
          "duration": 0.2272725000000264,
          "durationTicks": 480,
          "midi": 66,
          "name": "F#4",
          "ticks": 373440,
          "time": 176.818005,
          "velocity": 0.7007874015748031
        },
        {
          "duration": 0.227272499999998,
          "durationTicks": 480,
          "midi": 78,
          "name": "F#5",
          "ticks": 374880,
          "time": 177.49982250000002,
          "velocity": 0.7007874015748031
        },
        {
          "duration": 0.11363624999998478,
          "durationTicks": 240,
          "midi": 75,
          "name": "D#5",
          "ticks": 375360,
          "time": 177.72709500000002,
          "velocity": 0.7007874015748031
        },
        {
          "duration": 0.1136362500000132,
          "durationTicks": 240,
          "midi": 73,
          "name": "C#5",
          "ticks": 375600,
          "time": 177.84073125,
          "velocity": 0.7007874015748031
        },
        {
          "duration": 0.227272499999998,
          "durationTicks": 480,
          "midi": 71,
          "name": "B4",
          "ticks": 375840,
          "time": 177.95436750000002,
          "velocity": 0.7007874015748031
        },
        {
          "duration": 0.227272499999998,
          "durationTicks": 480,
          "midi": 75,
          "name": "D#5",
          "ticks": 376320,
          "time": 178.18164000000002,
          "velocity": 0.7007874015748031
        },
        {
          "duration": 1.13636249999999,
          "durationTicks": 2400,
          "midi": 78,
          "name": "F#5",
          "ticks": 376800,
          "time": 178.4089125,
          "velocity": 0.7007874015748031
        },
        {
          "duration": 1.3636350000000164,
          "durationTicks": 2880,
          "midi": 78,
          "name": "F#5",
          "ticks": 380160,
          "time": 179.99982,
          "velocity": 0.7007874015748031
        },
        {
          "duration": 0.11363624999998478,
          "durationTicks": 240,
          "midi": 75,
          "name": "D#5",
          "ticks": 383040,
          "time": 181.36345500000002,
          "velocity": 0.7007874015748031
        },
        {
          "duration": 0.1136362500000132,
          "durationTicks": 240,
          "midi": 73,
          "name": "C#5",
          "ticks": 383280,
          "time": 181.47709125,
          "velocity": 0.7007874015748031
        },
        {
          "duration": 0.227272499999998,
          "durationTicks": 480,
          "midi": 71,
          "name": "B4",
          "ticks": 383520,
          "time": 181.5907275,
          "velocity": 0.7007874015748031
        },
        {
          "duration": 0.227272499999998,
          "durationTicks": 480,
          "midi": 68,
          "name": "G#4",
          "ticks": 384000,
          "time": 181.818,
          "velocity": 0.7007874015748031
        },
        {
          "duration": 0.681817499999994,
          "durationTicks": 1440,
          "midi": 71,
          "name": "B4",
          "ticks": 384480,
          "time": 182.0452725,
          "velocity": 0.7007874015748031
        },
        {
          "duration": 0.227272499999998,
          "durationTicks": 480,
          "midi": 68,
          "name": "G#4",
          "ticks": 386400,
          "time": 182.9543625,
          "velocity": 0.7007874015748031
        },
        {
          "duration": 0.1136362500000132,
          "durationTicks": 240,
          "midi": 71,
          "name": "B4",
          "ticks": 386880,
          "time": 183.181635,
          "velocity": 0.7007874015748031
        },
        {
          "duration": 0.3409087500000112,
          "durationTicks": 720,
          "midi": 71,
          "name": "B4",
          "ticks": 387120,
          "time": 183.29527125,
          "velocity": 0.7007874015748031
        },
        {
          "duration": 0.3409087499999828,
          "durationTicks": 720,
          "midi": 71,
          "name": "B4",
          "ticks": 387840,
          "time": 183.63618000000002,
          "velocity": 0.7007874015748031
        },
        {
          "duration": 0.1136362500000132,
          "durationTicks": 240,
          "midi": 68,
          "name": "G#4",
          "ticks": 388560,
          "time": 183.97708875,
          "velocity": 0.7007874015748031
        },
        {
          "duration": 0.227272499999998,
          "durationTicks": 480,
          "midi": 66,
          "name": "F#4",
          "ticks": 388800,
          "time": 184.09072500000002,
          "velocity": 0.7007874015748031
        },
        {
          "duration": 0.227272499999998,
          "durationTicks": 480,
          "midi": 78,
          "name": "F#5",
          "ticks": 390240,
          "time": 184.77254250000001,
          "velocity": 0.7007874015748031
        },
        {
          "duration": 0.1136362500000132,
          "durationTicks": 240,
          "midi": 75,
          "name": "D#5",
          "ticks": 390720,
          "time": 184.999815,
          "velocity": 0.7007874015748031
        },
        {
          "duration": 0.11363624999998478,
          "durationTicks": 240,
          "midi": 73,
          "name": "C#5",
          "ticks": 390960,
          "time": 185.11345125000003,
          "velocity": 0.7007874015748031
        },
        {
          "duration": 0.227272499999998,
          "durationTicks": 480,
          "midi": 71,
          "name": "B4",
          "ticks": 391200,
          "time": 185.2270875,
          "velocity": 0.7007874015748031
        },
        {
          "duration": 0.227272499999998,
          "durationTicks": 480,
          "midi": 75,
          "name": "D#5",
          "ticks": 391680,
          "time": 185.45436,
          "velocity": 0.7007874015748031
        },
        {
          "duration": 1.1363625000000184,
          "durationTicks": 2400,
          "midi": 78,
          "name": "F#5",
          "ticks": 392160,
          "time": 185.6816325,
          "velocity": 0.7007874015748031
        },
        {
          "duration": 1.363634999999988,
          "durationTicks": 2880,
          "midi": 78,
          "name": "F#5",
          "ticks": 395520,
          "time": 187.27254000000002,
          "velocity": 0.7007874015748031
        },
        {
          "duration": 0.1136362500000132,
          "durationTicks": 240,
          "midi": 75,
          "name": "D#5",
          "ticks": 398400,
          "time": 188.636175,
          "velocity": 0.7007874015748031
        },
        {
          "duration": 0.11363624999998478,
          "durationTicks": 240,
          "midi": 73,
          "name": "C#5",
          "ticks": 398640,
          "time": 188.74981125000002,
          "velocity": 0.7007874015748031
        },
        {
          "duration": 0.227272499999998,
          "durationTicks": 480,
          "midi": 71,
          "name": "B4",
          "ticks": 398880,
          "time": 188.8634475,
          "velocity": 0.7007874015748031
        },
        {
          "duration": 0.227272499999998,
          "durationTicks": 480,
          "midi": 68,
          "name": "G#4",
          "ticks": 399360,
          "time": 189.09072,
          "velocity": 0.7007874015748031
        },
        {
          "duration": 0.6818175000000224,
          "durationTicks": 1440,
          "midi": 71,
          "name": "B4",
          "ticks": 399840,
          "time": 189.3179925,
          "velocity": 0.7007874015748031
        },
        {
          "duration": 0.227272499999998,
          "durationTicks": 480,
          "midi": 68,
          "name": "G#4",
          "ticks": 401760,
          "time": 190.22708250000002,
          "velocity": 0.7007874015748031
        },
        {
          "duration": 0.11363624999998478,
          "durationTicks": 240,
          "midi": 71,
          "name": "B4",
          "ticks": 402240,
          "time": 190.45435500000002,
          "velocity": 0.7007874015748031
        },
        {
          "duration": 0.3409087500000112,
          "durationTicks": 720,
          "midi": 71,
          "name": "B4",
          "ticks": 402480,
          "time": 190.56799125,
          "velocity": 0.7007874015748031
        },
        {
          "duration": 0.3409087499999828,
          "durationTicks": 720,
          "midi": 71,
          "name": "B4",
          "ticks": 403200,
          "time": 190.90890000000002,
          "velocity": 0.7007874015748031
        },
        {
          "duration": 0.1136362500000132,
          "durationTicks": 240,
          "midi": 68,
          "name": "G#4",
          "ticks": 403920,
          "time": 191.24980875,
          "velocity": 0.7007874015748031
        },
        {
          "duration": 0.227272499999998,
          "durationTicks": 480,
          "midi": 66,
          "name": "F#4",
          "ticks": 404160,
          "time": 191.363445,
          "velocity": 0.7007874015748031
        },
        {
          "duration": 0.227272499999998,
          "durationTicks": 480,
          "midi": 78,
          "name": "F#5",
          "ticks": 405600,
          "time": 192.0452625,
          "velocity": 0.7007874015748031
        },
        {
          "duration": 0.1136362500000132,
          "durationTicks": 240,
          "midi": 75,
          "name": "D#5",
          "ticks": 406080,
          "time": 192.272535,
          "velocity": 0.7007874015748031
        },
        {
          "duration": 0.11363624999998478,
          "durationTicks": 240,
          "midi": 73,
          "name": "C#5",
          "ticks": 406320,
          "time": 192.38617125000002,
          "velocity": 0.7007874015748031
        },
        {
          "duration": 0.227272499999998,
          "durationTicks": 480,
          "midi": 71,
          "name": "B4",
          "ticks": 406560,
          "time": 192.4998075,
          "velocity": 0.7007874015748031
        },
        {
          "duration": 0.2272725000000264,
          "durationTicks": 480,
          "midi": 75,
          "name": "D#5",
          "ticks": 407040,
          "time": 192.72708,
          "velocity": 0.7007874015748031
        },
        {
          "duration": 1.13636249999999,
          "durationTicks": 2400,
          "midi": 78,
          "name": "F#5",
          "ticks": 407520,
          "time": 192.95435250000003,
          "velocity": 0.7007874015748031
        },
        {
          "duration": 1.363634999999988,
          "durationTicks": 2880,
          "midi": 78,
          "name": "F#5",
          "ticks": 410880,
          "time": 194.54526,
          "velocity": 0.7007874015748031
        },
        {
          "duration": 0.1136362500000132,
          "durationTicks": 240,
          "midi": 75,
          "name": "D#5",
          "ticks": 413760,
          "time": 195.908895,
          "velocity": 0.7007874015748031
        },
        {
          "duration": 0.1136362500000132,
          "durationTicks": 240,
          "midi": 73,
          "name": "C#5",
          "ticks": 414000,
          "time": 196.02253125000001,
          "velocity": 0.7007874015748031
        },
        {
          "duration": 0.227272499999998,
          "durationTicks": 480,
          "midi": 71,
          "name": "B4",
          "ticks": 414240,
          "time": 196.13616750000003,
          "velocity": 0.7007874015748031
        },
        {
          "duration": 0.227272499999998,
          "durationTicks": 480,
          "midi": 68,
          "name": "G#4",
          "ticks": 414720,
          "time": 196.36344000000003,
          "velocity": 0.7007874015748031
        },
        {
          "duration": 0.681817499999994,
          "durationTicks": 1440,
          "midi": 71,
          "name": "B4",
          "ticks": 415200,
          "time": 196.59071250000002,
          "velocity": 0.7007874015748031
        },
        {
          "duration": 0.227272499999998,
          "durationTicks": 480,
          "midi": 68,
          "name": "G#4",
          "ticks": 417120,
          "time": 197.49980250000002,
          "velocity": 0.7007874015748031
        },
        {
          "duration": 0.1136362500000132,
          "durationTicks": 240,
          "midi": 71,
          "name": "B4",
          "ticks": 417600,
          "time": 197.727075,
          "velocity": 0.7007874015748031
        },
        {
          "duration": 0.3409087499999828,
          "durationTicks": 720,
          "midi": 71,
          "name": "B4",
          "ticks": 417840,
          "time": 197.84071125000003,
          "velocity": 0.7007874015748031
        },
        {
          "duration": 0.909089999999992,
          "durationTicks": 1920,
          "midi": 71,
          "name": "B4",
          "ticks": 418560,
          "time": 198.18162,
          "velocity": 0.7007874015748031
        }
      ]
    },
    {
      "channel": 0,
      "controlChanges": {
        "7": [
          {
            "number": 7,
            "ticks": 0,
            "time": 0,
            "value": 0.984251968503937
          }
        ],
        "10": [
          {
            "number": 10,
            "ticks": 0,
            "time": 0,
            "value": 0.12598425196850394
          }
        ]
      },
      "pitchBends": [],
      "instrument": {
        "family": "piano",
        "number": 0,
        "name": "acoustic grand piano"
      },
      "name": "NZ/SWI No.3 AUS No.4 SPA No.6",
      "notes": [],
      "endOfTrackTicks": 268800
    },
    {
      "channel": 8,
      "controlChanges": {},
      "pitchBends": [],
      "instrument": {
        "family": "percussive",
        "number": 115,
        "name": "woodblock"
      },
      "name": "",
      "notes": [
        {
          "duration": 0.113636249999999,
          "durationTicks": 240,
          "midi": 73,
          "name": "C#5",
          "ticks": 80640,
          "time": 38.18178,
          "velocity": 0.7007874015748031
        },
        {
          "duration": 0.113636249999999,
          "durationTicks": 240,
          "midi": 73,
          "name": "C#5",
          "ticks": 80880,
          "time": 38.29541625,
          "velocity": 0.7007874015748031
        },
        {
          "duration": 0.113636249999999,
          "durationTicks": 240,
          "midi": 73,
          "name": "C#5",
          "ticks": 81120,
          "time": 38.4090525,
          "velocity": 0.7007874015748031
        },
        {
          "duration": 0.113636249999999,
          "durationTicks": 240,
          "midi": 73,
          "name": "C#5",
          "ticks": 81360,
          "time": 38.52268875,
          "velocity": 0.7007874015748031
        },
        {
          "duration": 0.113636249999999,
          "durationTicks": 240,
          "midi": 73,
          "name": "C#5",
          "ticks": 81840,
          "time": 38.749961250000005,
          "velocity": 0.7007874015748031
        },
        {
          "duration": 0.113636249999999,
          "durationTicks": 240,
          "midi": 73,
          "name": "C#5",
          "ticks": 82080,
          "time": 38.863597500000004,
          "velocity": 0.7007874015748031
        },
        {
          "duration": 0.113636249999999,
          "durationTicks": 240,
          "midi": 73,
          "name": "C#5",
          "ticks": 82320,
          "time": 38.97723375,
          "velocity": 0.7007874015748031
        },
        {
          "duration": 0.113636249999999,
          "durationTicks": 240,
          "midi": 73,
          "name": "C#5",
          "ticks": 82560,
          "time": 39.09087,
          "velocity": 0.7007874015748031
        },
        {
          "duration": 0.3409087500000041,
          "durationTicks": 720,
          "midi": 73,
          "name": "C#5",
          "ticks": 82800,
          "time": 39.20450625,
          "velocity": 0.7007874015748031
        },
        {
          "duration": 0.227272499999998,
          "durationTicks": 480,
          "midi": 73,
          "name": "C#5",
          "ticks": 84000,
          "time": 39.7726875,
          "velocity": 0.7007874015748031
        },
        {
          "duration": 0.113636249999999,
          "durationTicks": 240,
          "midi": 73,
          "name": "C#5",
          "ticks": 84480,
          "time": 39.99996,
          "velocity": 0.7007874015748031
        },
        {
          "duration": 0.113636249999999,
          "durationTicks": 240,
          "midi": 73,
          "name": "C#5",
          "ticks": 84720,
          "time": 40.11359625,
          "velocity": 0.7007874015748031
        },
        {
          "duration": 0.1136362500000061,
          "durationTicks": 240,
          "midi": 73,
          "name": "C#5",
          "ticks": 84960,
          "time": 40.2272325,
          "velocity": 0.7007874015748031
        },
        {
          "duration": 0.113636249999999,
          "durationTicks": 240,
          "midi": 73,
          "name": "C#5",
          "ticks": 85200,
          "time": 40.340868750000006,
          "velocity": 0.7007874015748031
        },
        {
          "duration": 0.113636249999999,
          "durationTicks": 240,
          "midi": 73,
          "name": "C#5",
          "ticks": 85680,
          "time": 40.568141250000004,
          "velocity": 0.7007874015748031
        },
        {
          "duration": 0.113636249999999,
          "durationTicks": 240,
          "midi": 73,
          "name": "C#5",
          "ticks": 85920,
          "time": 40.6817775,
          "velocity": 0.7007874015748031
        },
        {
          "duration": 0.113636249999999,
          "durationTicks": 240,
          "midi": 73,
          "name": "C#5",
          "ticks": 86160,
          "time": 40.79541375,
          "velocity": 0.7007874015748031
        },
        {
          "duration": 0.113636249999999,
          "durationTicks": 240,
          "midi": 73,
          "name": "C#5",
          "ticks": 86400,
          "time": 40.90905,
          "velocity": 0.7007874015748031
        },
        {
          "duration": 0.3409087500000041,
          "durationTicks": 720,
          "midi": 73,
          "name": "C#5",
          "ticks": 86640,
          "time": 41.02268625,
          "velocity": 0.7007874015748031
        },
        {
          "duration": 0.113636249999999,
          "durationTicks": 240,
          "midi": 73,
          "name": "C#5",
          "ticks": 88080,
          "time": 41.70450375,
          "velocity": 0.7007874015748031
        },
        {
          "duration": 0.1136362500000061,
          "durationTicks": 240,
          "midi": 73,
          "name": "C#5",
          "ticks": 88320,
          "time": 41.81814,
          "velocity": 0.7007874015748031
        },
        {
          "duration": 0.113636249999999,
          "durationTicks": 240,
          "midi": 73,
          "name": "C#5",
          "ticks": 88560,
          "time": 41.931776250000006,
          "velocity": 0.7007874015748031
        },
        {
          "duration": 0.227272499999998,
          "durationTicks": 480,
          "midi": 73,
          "name": "C#5",
          "ticks": 88800,
          "time": 42.045412500000005,
          "velocity": 0.7007874015748031
        },
        {
          "duration": 0.227272499999998,
          "durationTicks": 480,
          "midi": 73,
          "name": "C#5",
          "ticks": 89280,
          "time": 42.272685,
          "velocity": 0.7007874015748031
        },
        {
          "duration": 0.113636249999999,
          "durationTicks": 240,
          "midi": 73,
          "name": "C#5",
          "ticks": 89760,
          "time": 42.4999575,
          "velocity": 0.7007874015748031
        },
        {
          "duration": 0.2272725000000051,
          "durationTicks": 480,
          "midi": 73,
          "name": "C#5",
          "ticks": 90000,
          "time": 42.61359375,
          "velocity": 0.7007874015748031
        },
        {
          "duration": 0.113636249999999,
          "durationTicks": 240,
          "midi": 73,
          "name": "C#5",
          "ticks": 90480,
          "time": 42.840866250000005,
          "velocity": 0.7007874015748031
        },
        {
          "duration": 0.227272499999998,
          "durationTicks": 480,
          "midi": 73,
          "name": "C#5",
          "ticks": 90720,
          "time": 42.954502500000004,
          "velocity": 0.7007874015748031
        },
        {
          "duration": 0.227272499999998,
          "durationTicks": 480,
          "midi": 73,
          "name": "C#5",
          "ticks": 91200,
          "time": 43.181775,
          "velocity": 0.7007874015748031
        },
        {
          "duration": 0.113636249999999,
          "durationTicks": 240,
          "midi": 73,
          "name": "C#5",
          "ticks": 92160,
          "time": 43.636320000000005,
          "velocity": 0.7007874015748031
        },
        {
          "duration": 0.113636249999999,
          "durationTicks": 240,
          "midi": 73,
          "name": "C#5",
          "ticks": 92400,
          "time": 43.749956250000004,
          "velocity": 0.7007874015748031
        },
        {
          "duration": 0.113636249999999,
          "durationTicks": 240,
          "midi": 73,
          "name": "C#5",
          "ticks": 92640,
          "time": 43.8635925,
          "velocity": 0.7007874015748031
        },
        {
          "duration": 0.113636249999999,
          "durationTicks": 240,
          "midi": 73,
          "name": "C#5",
          "ticks": 92880,
          "time": 43.97722875,
          "velocity": 0.7007874015748031
        },
        {
          "duration": 0.2272725000000051,
          "durationTicks": 480,
          "midi": 73,
          "name": "C#5",
          "ticks": 93120,
          "time": 44.090865,
          "velocity": 0.7007874015748031
        },
        {
          "duration": 0.113636249999999,
          "durationTicks": 240,
          "midi": 73,
          "name": "C#5",
          "ticks": 93600,
          "time": 44.318137500000006,
          "velocity": 0.7007874015748031
        },
        {
          "duration": 0.340908749999997,
          "durationTicks": 720,
          "midi": 73,
          "name": "C#5",
          "ticks": 93840,
          "time": 44.431773750000005,
          "velocity": 0.7007874015748031
        },
        {
          "duration": 0.2272725000000051,
          "durationTicks": 480,
          "midi": 73,
          "name": "C#5",
          "ticks": 95040,
          "time": 44.999955,
          "velocity": 0.7007874015748031
        },
        {
          "duration": 0.227272499999998,
          "durationTicks": 480,
          "midi": 71,
          "name": "B4",
          "ticks": 95520,
          "time": 45.227227500000005,
          "velocity": 0.7007874015748031
        },
        {
          "duration": 0.340908749999997,
          "durationTicks": 720,
          "midi": 73,
          "name": "C#5",
          "ticks": 96000,
          "time": 45.4545,
          "velocity": 0.7007874015748031
        },
        {
          "duration": 0.3409087500000041,
          "durationTicks": 720,
          "midi": 73,
          "name": "C#5",
          "ticks": 96720,
          "time": 45.79540875,
          "velocity": 0.7007874015748031
        },
        {
          "duration": 0.227272499999998,
          "durationTicks": 480,
          "midi": 73,
          "name": "C#5",
          "ticks": 97440,
          "time": 46.136317500000004,
          "velocity": 0.7007874015748031
        },
        {
          "duration": 0.113636249999999,
          "durationTicks": 240,
          "midi": 73,
          "name": "C#5",
          "ticks": 97920,
          "time": 46.36359,
          "velocity": 0.7007874015748031
        },
        {
          "duration": 0.3409087500000041,
          "durationTicks": 720,
          "midi": 73,
          "name": "C#5",
          "ticks": 98160,
          "time": 46.47722625,
          "velocity": 0.7007874015748031
        },
        {
          "duration": 0.227272499999998,
          "durationTicks": 480,
          "midi": 73,
          "name": "C#5",
          "ticks": 98880,
          "time": 46.818135000000005,
          "velocity": 0.7007874015748031
        },
        {
          "duration": 0.227272499999998,
          "durationTicks": 480,
          "midi": 71,
          "name": "B4",
          "ticks": 99360,
          "time": 47.0454075,
          "velocity": 0.7007874015748031
        },
        {
          "duration": 0.2272725000000051,
          "durationTicks": 480,
          "midi": 73,
          "name": "C#5",
          "ticks": 99840,
          "time": 47.27268,
          "velocity": 0.7007874015748031
        },
        {
          "duration": 0.113636249999999,
          "durationTicks": 240,
          "midi": 73,
          "name": "C#5",
          "ticks": 100320,
          "time": 47.499952500000006,
          "velocity": 0.7007874015748031
        },
        {
          "duration": 0.227272499999998,
          "durationTicks": 480,
          "midi": 73,
          "name": "C#5",
          "ticks": 100560,
          "time": 47.613588750000005,
          "velocity": 0.7007874015748031
        },
        {
          "duration": 0.113636249999999,
          "durationTicks": 240,
          "midi": 73,
          "name": "C#5",
          "ticks": 101040,
          "time": 47.84086125,
          "velocity": 0.7007874015748031
        },
        {
          "duration": 0.227272499999998,
          "durationTicks": 480,
          "midi": 73,
          "name": "C#5",
          "ticks": 101280,
          "time": 47.9544975,
          "velocity": 0.7007874015748031
        },
        {
          "duration": 0.1136362500000061,
          "durationTicks": 240,
          "midi": 73,
          "name": "C#5",
          "ticks": 101760,
          "time": 48.18177,
          "velocity": 0.7007874015748031
        },
        {
          "duration": 0.340908749999997,
          "durationTicks": 720,
          "midi": 73,
          "name": "C#5",
          "ticks": 102000,
          "time": 48.295406250000006,
          "velocity": 0.7007874015748031
        },
        {
          "duration": 0.227272499999998,
          "durationTicks": 480,
          "midi": 73,
          "name": "C#5",
          "ticks": 102720,
          "time": 48.636315,
          "velocity": 0.7007874015748031
        },
        {
          "duration": 0.2272725000000051,
          "durationTicks": 480,
          "midi": 71,
          "name": "B4",
          "ticks": 103200,
          "time": 48.8635875,
          "velocity": 0.7007874015748031
        },
        {
          "duration": 0.113636249999999,
          "durationTicks": 240,
          "midi": 73,
          "name": "C#5",
          "ticks": 103680,
          "time": 49.090860000000006,
          "velocity": 0.7007874015748031
        },
        {
          "duration": 0.113636249999999,
          "durationTicks": 240,
          "midi": 73,
          "name": "C#5",
          "ticks": 103920,
          "time": 49.204496250000005,
          "velocity": 0.7007874015748031
        },
        {
          "duration": 0.113636249999999,
          "durationTicks": 240,
          "midi": 73,
          "name": "C#5",
          "ticks": 104160,
          "time": 49.318132500000004,
          "velocity": 0.7007874015748031
        },
        {
          "duration": 0.113636249999999,
          "durationTicks": 240,
          "midi": 73,
          "name": "C#5",
          "ticks": 104400,
          "time": 49.43176875,
          "velocity": 0.7007874015748031
        },
        {
          "duration": 0.227272499999998,
          "durationTicks": 480,
          "midi": 73,
          "name": "C#5",
          "ticks": 104640,
          "time": 49.545405,
          "velocity": 0.7007874015748031
        },
        {
          "duration": 0.1136362500000061,
          "durationTicks": 240,
          "midi": 73,
          "name": "C#5",
          "ticks": 105120,
          "time": 49.7726775,
          "velocity": 0.7007874015748031
        },
        {
          "duration": 0.340908749999997,
          "durationTicks": 720,
          "midi": 73,
          "name": "C#5",
          "ticks": 105360,
          "time": 49.88631375000001,
          "velocity": 0.7007874015748031
        },
        {
          "duration": 0.113636249999999,
          "durationTicks": 240,
          "midi": 73,
          "name": "C#5",
          "ticks": 106080,
          "time": 50.2272225,
          "velocity": 0.7007874015748031
        },
        {
          "duration": 0.3409087500000041,
          "durationTicks": 720,
          "midi": 73,
          "name": "C#5",
          "ticks": 106320,
          "time": 50.34085875,
          "velocity": 0.7007874015748031
        },
        {
          "duration": 0.113636249999999,
          "durationTicks": 240,
          "midi": 73,
          "name": "C#5",
          "ticks": 107040,
          "time": 50.68176750000001,
          "velocity": 0.7007874015748031
        },
        {
          "duration": 0.113636249999999,
          "durationTicks": 240,
          "midi": 73,
          "name": "C#5",
          "ticks": 107280,
          "time": 50.795403750000006,
          "velocity": 0.7007874015748031
        },
        {
          "duration": 0.113636249999999,
          "durationTicks": 240,
          "midi": 71,
          "name": "B4",
          "ticks": 108000,
          "time": 51.1363125,
          "velocity": 0.7007874015748031
        },
        {
          "duration": 0.113636249999999,
          "durationTicks": 240,
          "midi": 71,
          "name": "B4",
          "ticks": 108240,
          "time": 51.24994875,
          "velocity": 0.7007874015748031
        },
        {
          "duration": 0.2272725000000051,
          "durationTicks": 480,
          "midi": 71,
          "name": "B4",
          "ticks": 108480,
          "time": 51.363585,
          "velocity": 0.7007874015748031
        },
        {
          "duration": 0.113636249999999,
          "durationTicks": 240,
          "midi": 71,
          "name": "B4",
          "ticks": 108960,
          "time": 51.590857500000006,
          "velocity": 0.7007874015748031
        },
        {
          "duration": 0.113636249999999,
          "durationTicks": 240,
          "midi": 71,
          "name": "B4",
          "ticks": 109200,
          "time": 51.704493750000005,
          "velocity": 0.7007874015748031
        },
        {
          "duration": 0.227272499999998,
          "durationTicks": 480,
          "midi": 71,
          "name": "B4",
          "ticks": 110400,
          "time": 52.27267500000001,
          "velocity": 0.7007874015748031
        },
        {
          "duration": 0.227272499999998,
          "durationTicks": 480,
          "midi": 68,
          "name": "G#4",
          "ticks": 110880,
          "time": 52.499947500000005,
          "velocity": 0.7007874015748031
        },
        {
          "duration": 0.4545450000000102,
          "durationTicks": 960,
          "midi": 78,
          "name": "F#5",
          "ticks": 233280,
          "time": 110.454435,
          "velocity": 0.7007874015748031
        },
        {
          "duration": 0.113636249999999,
          "durationTicks": 240,
          "midi": 73,
          "name": "C#5",
          "ticks": 234240,
          "time": 110.90898000000001,
          "velocity": 0.7007874015748031
        },
        {
          "duration": 0.113636249999999,
          "durationTicks": 240,
          "midi": 73,
          "name": "C#5",
          "ticks": 234480,
          "time": 111.02261625000001,
          "velocity": 0.7007874015748031
        },
        {
          "duration": 0.113636249999999,
          "durationTicks": 240,
          "midi": 73,
          "name": "C#5",
          "ticks": 234720,
          "time": 111.13625250000001,
          "velocity": 0.7007874015748031
        },
        {
          "duration": 0.113636249999999,
          "durationTicks": 240,
          "midi": 73,
          "name": "C#5",
          "ticks": 234960,
          "time": 111.24988875000001,
          "velocity": 0.7007874015748031
        },
        {
          "duration": 0.227272499999998,
          "durationTicks": 480,
          "midi": 73,
          "name": "C#5",
          "ticks": 235200,
          "time": 111.36352500000001,
          "velocity": 0.7007874015748031
        },
        {
          "duration": 0.113636249999999,
          "durationTicks": 240,
          "midi": 73,
          "name": "C#5",
          "ticks": 235680,
          "time": 111.59079750000001,
          "velocity": 0.7007874015748031
        },
        {
          "duration": 0.113636249999999,
          "durationTicks": 240,
          "midi": 73,
          "name": "C#5",
          "ticks": 235920,
          "time": 111.70443375,
          "velocity": 0.7007874015748031
        },
        {
          "duration": 0.227272499999998,
          "durationTicks": 480,
          "midi": 73,
          "name": "C#5",
          "ticks": 236160,
          "time": 111.81807,
          "velocity": 0.7007874015748031
        },
        {
          "duration": 0.113636249999999,
          "durationTicks": 240,
          "midi": 73,
          "name": "C#5",
          "ticks": 236640,
          "time": 112.0453425,
          "velocity": 0.7007874015748031
        },
        {
          "duration": 0.113636249999999,
          "durationTicks": 240,
          "midi": 73,
          "name": "C#5",
          "ticks": 236880,
          "time": 112.15897875,
          "velocity": 0.7007874015748031
        },
        {
          "duration": 0.2272725000000122,
          "durationTicks": 480,
          "midi": 73,
          "name": "C#5",
          "ticks": 237120,
          "time": 112.272615,
          "velocity": 0.7007874015748031
        },
        {
          "duration": 0.113636249999999,
          "durationTicks": 240,
          "midi": 73,
          "name": "C#5",
          "ticks": 238080,
          "time": 112.72716000000001,
          "velocity": 0.7007874015748031
        },
        {
          "duration": 0.113636249999999,
          "durationTicks": 240,
          "midi": 73,
          "name": "C#5",
          "ticks": 238320,
          "time": 112.84079625000001,
          "velocity": 0.7007874015748031
        },
        {
          "duration": 0.227272499999998,
          "durationTicks": 480,
          "midi": 73,
          "name": "C#5",
          "ticks": 238560,
          "time": 112.95443250000001,
          "velocity": 0.7007874015748031
        },
        {
          "duration": 0.227272499999998,
          "durationTicks": 480,
          "midi": 73,
          "name": "C#5",
          "ticks": 239040,
          "time": 113.18170500000001,
          "velocity": 0.7007874015748031
        },
        {
          "duration": 0.113636249999999,
          "durationTicks": 240,
          "midi": 73,
          "name": "C#5",
          "ticks": 239520,
          "time": 113.4089775,
          "velocity": 0.7007874015748031
        },
        {
          "duration": 0.113636249999999,
          "durationTicks": 240,
          "midi": 73,
          "name": "C#5",
          "ticks": 239760,
          "time": 113.52261375,
          "velocity": 0.7007874015748031
        },
        {
          "duration": 0.227272499999998,
          "durationTicks": 480,
          "midi": 73,
          "name": "C#5",
          "ticks": 240000,
          "time": 113.63625,
          "velocity": 0.7007874015748031
        },
        {
          "duration": 0.2272725000000122,
          "durationTicks": 480,
          "midi": 73,
          "name": "C#5",
          "ticks": 240480,
          "time": 113.8635225,
          "velocity": 0.7007874015748031
        },
        {
          "duration": 0.227272499999998,
          "durationTicks": 480,
          "midi": 73,
          "name": "C#5",
          "ticks": 240960,
          "time": 114.09079500000001,
          "velocity": 0.7007874015748031
        },
        {
          "duration": 0.113636249999999,
          "durationTicks": 240,
          "midi": 73,
          "name": "C#5",
          "ticks": 241920,
          "time": 114.54534000000001,
          "velocity": 0.7007874015748031
        },
        {
          "duration": 0.113636249999999,
          "durationTicks": 240,
          "midi": 73,
          "name": "C#5",
          "ticks": 242160,
          "time": 114.65897625000001,
          "velocity": 0.7007874015748031
        },
        {
          "duration": 0.227272499999998,
          "durationTicks": 480,
          "midi": 73,
          "name": "C#5",
          "ticks": 242400,
          "time": 114.77261250000001,
          "velocity": 0.7007874015748031
        },
        {
          "duration": 0.454544999999996,
          "durationTicks": 960,
          "midi": 73,
          "name": "C#5",
          "ticks": 242880,
          "time": 114.999885,
          "velocity": 0.7007874015748031
        },
        {
          "duration": 0.1136362500000132,
          "durationTicks": 240,
          "midi": 73,
          "name": "C#5",
          "ticks": 243840,
          "time": 115.45443,
          "velocity": 0.7007874015748031
        },
        {
          "duration": 0.227272499999998,
          "durationTicks": 480,
          "midi": 73,
          "name": "C#5",
          "ticks": 244080,
          "time": 115.56806625000002,
          "velocity": 0.7007874015748031
        },
        {
          "duration": 0.340908749999997,
          "durationTicks": 720,
          "midi": 73,
          "name": "C#5",
          "ticks": 244560,
          "time": 115.79533875000001,
          "velocity": 0.7007874015748031
        },
        {
          "duration": 0.113636249999999,
          "durationTicks": 240,
          "midi": 73,
          "name": "C#5",
          "ticks": 245760,
          "time": 116.36352000000001,
          "velocity": 0.7007874015748031
        },
        {
          "duration": 0.227272499999998,
          "durationTicks": 480,
          "midi": 73,
          "name": "C#5",
          "ticks": 246000,
          "time": 116.47715625000001,
          "velocity": 0.7007874015748031
        },
        {
          "duration": 0.340908749999997,
          "durationTicks": 720,
          "midi": 73,
          "name": "C#5",
          "ticks": 246480,
          "time": 116.70442875,
          "velocity": 0.7007874015748031
        },
        {
          "duration": 0.113636249999999,
          "durationTicks": 240,
          "midi": 73,
          "name": "C#5",
          "ticks": 247680,
          "time": 117.27261000000001,
          "velocity": 0.7007874015748031
        },
        {
          "duration": 0.113636249999999,
          "durationTicks": 240,
          "midi": 73,
          "name": "C#5",
          "ticks": 247920,
          "time": 117.38624625000001,
          "velocity": 0.7007874015748031
        },
        {
          "duration": 0.113636249999999,
          "durationTicks": 240,
          "midi": 73,
          "name": "C#5",
          "ticks": 248160,
          "time": 117.49988250000001,
          "velocity": 0.7007874015748031
        },
        {
          "duration": 0.113636249999999,
          "durationTicks": 240,
          "midi": 73,
          "name": "C#5",
          "ticks": 248400,
          "time": 117.61351875000001,
          "velocity": 0.7007874015748031
        },
        {
          "duration": 0.227272499999998,
          "durationTicks": 480,
          "midi": 73,
          "name": "C#5",
          "ticks": 248640,
          "time": 117.72715500000001,
          "velocity": 0.7007874015748031
        },
        {
          "duration": 0.227272499999998,
          "durationTicks": 480,
          "midi": 73,
          "name": "C#5",
          "ticks": 249120,
          "time": 117.95442750000001,
          "velocity": 0.7007874015748031
        },
        {
          "duration": 0.113636249999999,
          "durationTicks": 240,
          "midi": 73,
          "name": "C#5",
          "ticks": 249600,
          "time": 118.1817,
          "velocity": 0.7007874015748031
        },
        {
          "duration": 0.113636249999999,
          "durationTicks": 240,
          "midi": 73,
          "name": "C#5",
          "ticks": 249840,
          "time": 118.29533625,
          "velocity": 0.7007874015748031
        },
        {
          "duration": 0.113636249999999,
          "durationTicks": 240,
          "midi": 73,
          "name": "C#5",
          "ticks": 250080,
          "time": 118.4089725,
          "velocity": 0.7007874015748031
        },
        {
          "duration": 0.113636249999999,
          "durationTicks": 240,
          "midi": 73,
          "name": "C#5",
          "ticks": 250320,
          "time": 118.52260875,
          "velocity": 0.7007874015748031
        },
        {
          "duration": 0.3409087500000112,
          "durationTicks": 720,
          "midi": 73,
          "name": "C#5",
          "ticks": 250560,
          "time": 118.636245,
          "velocity": 0.7007874015748031
        },
        {
          "duration": 0.568181249999995,
          "durationTicks": 1200,
          "midi": 73,
          "name": "C#5",
          "ticks": 251280,
          "time": 118.97715375000001,
          "velocity": 0.7007874015748031
        },
        {
          "duration": 0.227272499999998,
          "durationTicks": 480,
          "midi": 73,
          "name": "C#5",
          "ticks": 252480,
          "time": 119.54533500000001,
          "velocity": 0.7007874015748031
        },
        {
          "duration": 0.227272499999998,
          "durationTicks": 480,
          "midi": 71,
          "name": "B4",
          "ticks": 252960,
          "time": 119.7726075,
          "velocity": 0.7007874015748031
        },
        {
          "duration": 0.113636249999999,
          "durationTicks": 240,
          "midi": 73,
          "name": "C#5",
          "ticks": 253440,
          "time": 119.99988,
          "velocity": 0.7007874015748031
        },
        {
          "duration": 0.113636249999999,
          "durationTicks": 240,
          "midi": 73,
          "name": "C#5",
          "ticks": 253680,
          "time": 120.11351625,
          "velocity": 0.7007874015748031
        },
        {
          "duration": 0.113636249999999,
          "durationTicks": 240,
          "midi": 73,
          "name": "C#5",
          "ticks": 253920,
          "time": 120.2271525,
          "velocity": 0.7007874015748031
        },
        {
          "duration": 0.1136362500000132,
          "durationTicks": 240,
          "midi": 73,
          "name": "C#5",
          "ticks": 254160,
          "time": 120.34078875,
          "velocity": 0.7007874015748031
        },
        {
          "duration": 0.227272499999998,
          "durationTicks": 480,
          "midi": 73,
          "name": "C#5",
          "ticks": 254400,
          "time": 120.45442500000001,
          "velocity": 0.7007874015748031
        },
        {
          "duration": 0.113636249999999,
          "durationTicks": 240,
          "midi": 73,
          "name": "C#5",
          "ticks": 254880,
          "time": 120.68169750000001,
          "velocity": 0.7007874015748031
        },
        {
          "duration": 0.340908749999997,
          "durationTicks": 720,
          "midi": 73,
          "name": "C#5",
          "ticks": 255120,
          "time": 120.79533375000001,
          "velocity": 0.7007874015748031
        },
        {
          "duration": 0.227272499999998,
          "durationTicks": 480,
          "midi": 73,
          "name": "C#5",
          "ticks": 256320,
          "time": 121.363515,
          "velocity": 0.7007874015748031
        },
        {
          "duration": 0.227272499999998,
          "durationTicks": 480,
          "midi": 71,
          "name": "B4",
          "ticks": 256800,
          "time": 121.5907875,
          "velocity": 0.7007874015748031
        },
        {
          "duration": 0.2272725000000122,
          "durationTicks": 480,
          "midi": 73,
          "name": "C#5",
          "ticks": 257280,
          "time": 121.81806,
          "velocity": 0.7007874015748031
        },
        {
          "duration": 0.113636249999999,
          "durationTicks": 240,
          "midi": 73,
          "name": "C#5",
          "ticks": 257760,
          "time": 122.04533250000001,
          "velocity": 0.7007874015748031
        },
        {
          "duration": 0.227272499999998,
          "durationTicks": 480,
          "midi": 73,
          "name": "C#5",
          "ticks": 258000,
          "time": 122.15896875000001,
          "velocity": 0.7007874015748031
        },
        {
          "duration": 0.113636249999999,
          "durationTicks": 240,
          "midi": 73,
          "name": "C#5",
          "ticks": 258480,
          "time": 122.38624125000001,
          "velocity": 0.7007874015748031
        },
        {
          "duration": 0.227272499999998,
          "durationTicks": 480,
          "midi": 73,
          "name": "C#5",
          "ticks": 258720,
          "time": 122.49987750000001,
          "velocity": 0.7007874015748031
        },
        {
          "duration": 0.340908749999997,
          "durationTicks": 720,
          "midi": 73,
          "name": "C#5",
          "ticks": 260160,
          "time": 123.181695,
          "velocity": 0.7007874015748031
        },
        {
          "duration": 0.1136362500000132,
          "durationTicks": 240,
          "midi": 73,
          "name": "C#5",
          "ticks": 260880,
          "time": 123.52260375,
          "velocity": 0.7007874015748031
        },
        {
          "duration": 0.340908749999997,
          "durationTicks": 720,
          "midi": 71,
          "name": "B4",
          "ticks": 261120,
          "time": 123.63624000000002,
          "velocity": 0.7007874015748031
        },
        {
          "duration": 0.113636249999999,
          "durationTicks": 240,
          "midi": 71,
          "name": "B4",
          "ticks": 261840,
          "time": 123.97714875000001,
          "velocity": 0.7007874015748031
        },
        {
          "duration": 0.340908749999997,
          "durationTicks": 720,
          "midi": 71,
          "name": "B4",
          "ticks": 262080,
          "time": 124.09078500000001,
          "velocity": 0.7007874015748031
        },
        {
          "duration": 0.113636249999999,
          "durationTicks": 240,
          "midi": 71,
          "name": "B4",
          "ticks": 262800,
          "time": 124.43169375000001,
          "velocity": 0.7007874015748031
        },
        {
          "duration": 0.227272499999998,
          "durationTicks": 480,
          "midi": 71,
          "name": "B4",
          "ticks": 263040,
          "time": 124.54533,
          "velocity": 0.7007874015748031
        },
        {
          "duration": 0.4545450000000102,
          "durationTicks": 960,
          "midi": 71,
          "name": "B4",
          "ticks": 264000,
          "time": 124.999875,
          "velocity": 0.7007874015748031
        }
      ]
    },
    {
      "channel": 9,
      "controlChanges": {
        "7": [
          {
            "number": 7,
            "ticks": 0,
            "time": 0,
            "value": 1
          }
        ],
        "120": [
          {
            "number": 120,
            "ticks": 34560,
            "time": 16.36362,
            "value": 0
          },
          {
            "number": 120,
            "ticks": 65280,
            "time": 30.909060000000004,
            "value": 0
          },
          {
            "number": 120,
            "ticks": 80640,
            "time": 38.18178,
            "value": 0
          },
          {
            "number": 120,
            "ticks": 172800,
            "time": 81.8181,
            "value": 0
          },
          {
            "number": 120,
            "ticks": 203520,
            "time": 96.36354,
            "value": 0
          },
          {
            "number": 120,
            "ticks": 218880,
            "time": 103.63626000000001,
            "value": 0
          },
          {
            "number": 120,
            "ticks": 218880,
            "time": 103.63626000000001,
            "value": 0
          },
          {
            "number": 120,
            "ticks": 234240,
            "time": 110.90898000000001,
            "value": 0
          },
          {
            "number": 120,
            "ticks": 311040,
            "time": 147.27258,
            "value": 0
          },
          {
            "number": 120,
            "ticks": 341760,
            "time": 161.81802000000002,
            "value": 0
          },
          {
            "number": 120,
            "ticks": 357120,
            "time": 169.09074,
            "value": 0
          }
        ],
        "121": [
          {
            "number": 121,
            "ticks": 34560,
            "time": 16.36362,
            "value": 0
          },
          {
            "number": 121,
            "ticks": 65280,
            "time": 30.909060000000004,
            "value": 0
          },
          {
            "number": 121,
            "ticks": 80640,
            "time": 38.18178,
            "value": 0
          },
          {
            "number": 121,
            "ticks": 172800,
            "time": 81.8181,
            "value": 0
          },
          {
            "number": 121,
            "ticks": 203520,
            "time": 96.36354,
            "value": 0
          },
          {
            "number": 121,
            "ticks": 218880,
            "time": 103.63626000000001,
            "value": 0
          },
          {
            "number": 121,
            "ticks": 218880,
            "time": 103.63626000000001,
            "value": 0
          },
          {
            "number": 121,
            "ticks": 234240,
            "time": 110.90898000000001,
            "value": 0
          },
          {
            "number": 121,
            "ticks": 311040,
            "time": 147.27258,
            "value": 0
          },
          {
            "number": 121,
            "ticks": 341760,
            "time": 161.81802000000002,
            "value": 0
          },
          {
            "number": 121,
            "ticks": 357120,
            "time": 169.09074,
            "value": 0
          }
        ],
        "123": [
          {
            "number": 123,
            "ticks": 34560,
            "time": 16.36362,
            "value": 0
          },
          {
            "number": 123,
            "ticks": 65280,
            "time": 30.909060000000004,
            "value": 0
          },
          {
            "number": 123,
            "ticks": 80640,
            "time": 38.18178,
            "value": 0
          },
          {
            "number": 123,
            "ticks": 172800,
            "time": 81.8181,
            "value": 0
          },
          {
            "number": 123,
            "ticks": 203520,
            "time": 96.36354,
            "value": 0
          },
          {
            "number": 123,
            "ticks": 218880,
            "time": 103.63626000000001,
            "value": 0
          },
          {
            "number": 123,
            "ticks": 218880,
            "time": 103.63626000000001,
            "value": 0
          },
          {
            "number": 123,
            "ticks": 234240,
            "time": 110.90898000000001,
            "value": 0
          },
          {
            "number": 123,
            "ticks": 311040,
            "time": 147.27258,
            "value": 0
          },
          {
            "number": 123,
            "ticks": 341760,
            "time": 161.81802000000002,
            "value": 0
          },
          {
            "number": 123,
            "ticks": 357120,
            "time": 169.09074,
            "value": 0
          }
        ]
      },
      "pitchBends": [],
      "instrument": {
        "family": "drums",
        "number": 0,
        "name": "standard kit"
      },
      "name": "Sequence by Geoffrey Carter 24th February 2014",
      "notes": [
        {
          "duration": 0.022727249999999977,
          "durationTicks": 48,
          "midi": 39,
          "name": "D#2",
          "ticks": 3840,
          "time": 1.8181800000000001,
          "velocity": 0.5511811023622047
        },
        {
          "duration": 0.022727249999999533,
          "durationTicks": 48,
          "midi": 39,
          "name": "D#2",
          "ticks": 4800,
          "time": 2.2727250000000003,
          "velocity": 0.6299212598425197
        },
        {
          "duration": 0.022727249999999977,
          "durationTicks": 48,
          "midi": 39,
          "name": "D#2",
          "ticks": 5760,
          "time": 2.7272700000000003,
          "velocity": 0.5748031496062992
        },
        {
          "duration": 0.022727249999999977,
          "durationTicks": 48,
          "midi": 39,
          "name": "D#2",
          "ticks": 6720,
          "time": 3.1818150000000003,
          "velocity": 0.6299212598425197
        },
        {
          "duration": 0.02272725000000042,
          "durationTicks": 48,
          "midi": 39,
          "name": "D#2",
          "ticks": 7680,
          "time": 3.6363600000000003,
          "velocity": 0.5511811023622047
        },
        {
          "duration": 0.022727249999999977,
          "durationTicks": 48,
          "midi": 39,
          "name": "D#2",
          "ticks": 8640,
          "time": 4.090905,
          "velocity": 0.6299212598425197
        },
        {
          "duration": 0.022727249999999977,
          "durationTicks": 48,
          "midi": 39,
          "name": "D#2",
          "ticks": 9600,
          "time": 4.545450000000001,
          "velocity": 0.5748031496062992
        },
        {
          "duration": 0.022727250000000865,
          "durationTicks": 48,
          "midi": 39,
          "name": "D#2",
          "ticks": 10560,
          "time": 4.999995,
          "velocity": 0.6299212598425197
        },
        {
          "duration": 0.022727249999999977,
          "durationTicks": 48,
          "midi": 39,
          "name": "D#2",
          "ticks": 11520,
          "time": 5.454540000000001,
          "velocity": 0.5511811023622047
        },
        {
          "duration": 0.022727250000000865,
          "durationTicks": 48,
          "midi": 39,
          "name": "D#2",
          "ticks": 12480,
          "time": 5.909085,
          "velocity": 0.6299212598425197
        },
        {
          "duration": 0.022727249999999977,
          "durationTicks": 48,
          "midi": 39,
          "name": "D#2",
          "ticks": 13440,
          "time": 6.363630000000001,
          "velocity": 0.5748031496062992
        },
        {
          "duration": 0.022727250000000865,
          "durationTicks": 48,
          "midi": 39,
          "name": "D#2",
          "ticks": 14400,
          "time": 6.818175,
          "velocity": 0.6299212598425197
        },
        {
          "duration": 0.022727249999999977,
          "durationTicks": 48,
          "midi": 39,
          "name": "D#2",
          "ticks": 15360,
          "time": 7.2727200000000005,
          "velocity": 0.5511811023622047
        },
        {
          "duration": 0.022727249999999977,
          "durationTicks": 48,
          "midi": 39,
          "name": "D#2",
          "ticks": 16320,
          "time": 7.727265000000001,
          "velocity": 0.6299212598425197
        },
        {
          "duration": 0.022727250000000865,
          "durationTicks": 48,
          "midi": 39,
          "name": "D#2",
          "ticks": 17280,
          "time": 8.18181,
          "velocity": 0.5748031496062992
        },
        {
          "duration": 0.022727250000000865,
          "durationTicks": 48,
          "midi": 39,
          "name": "D#2",
          "ticks": 18240,
          "time": 8.636355,
          "velocity": 0.6299212598425197
        },
        {
          "duration": 0.02272724999999909,
          "durationTicks": 48,
          "midi": 39,
          "name": "D#2",
          "ticks": 19200,
          "time": 9.090900000000001,
          "velocity": 0.5511811023622047
        },
        {
          "duration": 0.022727250000000865,
          "durationTicks": 48,
          "midi": 39,
          "name": "D#2",
          "ticks": 20160,
          "time": 9.545445,
          "velocity": 0.6299212598425197
        },
        {
          "duration": 0.022727250000000865,
          "durationTicks": 48,
          "midi": 39,
          "name": "D#2",
          "ticks": 21120,
          "time": 9.99999,
          "velocity": 0.5748031496062992
        },
        {
          "duration": 0.022727250000000865,
          "durationTicks": 48,
          "midi": 39,
          "name": "D#2",
          "ticks": 22080,
          "time": 10.454535,
          "velocity": 0.6299212598425197
        },
        {
          "duration": 0.02272724999999909,
          "durationTicks": 48,
          "midi": 39,
          "name": "D#2",
          "ticks": 23040,
          "time": 10.909080000000001,
          "velocity": 0.5511811023622047
        },
        {
          "duration": 0.022727250000000865,
          "durationTicks": 48,
          "midi": 39,
          "name": "D#2",
          "ticks": 24000,
          "time": 11.363625,
          "velocity": 0.6299212598425197
        },
        {
          "duration": 0.022727250000000865,
          "durationTicks": 48,
          "midi": 39,
          "name": "D#2",
          "ticks": 24960,
          "time": 11.81817,
          "velocity": 0.5748031496062992
        },
        {
          "duration": 0.02272724999999909,
          "durationTicks": 48,
          "midi": 39,
          "name": "D#2",
          "ticks": 25920,
          "time": 12.272715000000002,
          "velocity": 0.6299212598425197
        },
        {
          "duration": 0.022727250000000865,
          "durationTicks": 48,
          "midi": 39,
          "name": "D#2",
          "ticks": 26880,
          "time": 12.727260000000001,
          "velocity": 0.5511811023622047
        },
        {
          "duration": 0.022727250000000865,
          "durationTicks": 48,
          "midi": 39,
          "name": "D#2",
          "ticks": 27840,
          "time": 13.181805,
          "velocity": 0.6299212598425197
        },
        {
          "duration": 0.022727250000000865,
          "durationTicks": 48,
          "midi": 39,
          "name": "D#2",
          "ticks": 28800,
          "time": 13.63635,
          "velocity": 0.5748031496062992
        },
        {
          "duration": 0.02272724999999909,
          "durationTicks": 48,
          "midi": 39,
          "name": "D#2",
          "ticks": 29760,
          "time": 14.090895000000002,
          "velocity": 0.6299212598425197
        },
        {
          "duration": 0.02272724999999909,
          "durationTicks": 48,
          "midi": 39,
          "name": "D#2",
          "ticks": 30720,
          "time": 14.545440000000001,
          "velocity": 0.5511811023622047
        },
        {
          "duration": 0.02272724999999909,
          "durationTicks": 48,
          "midi": 39,
          "name": "D#2",
          "ticks": 31680,
          "time": 14.999985,
          "velocity": 0.6299212598425197
        },
        {
          "duration": 0.022727249999997312,
          "durationTicks": 48,
          "midi": 39,
          "name": "D#2",
          "ticks": 32640,
          "time": 15.454530000000002,
          "velocity": 0.5748031496062992
        },
        {
          "duration": 0.02272724999999909,
          "durationTicks": 48,
          "midi": 39,
          "name": "D#2",
          "ticks": 33600,
          "time": 15.909075000000001,
          "velocity": 0.6299212598425197
        },
        {
          "duration": 0.02272724999999909,
          "durationTicks": 48,
          "midi": 39,
          "name": "D#2",
          "ticks": 34560,
          "time": 16.36362,
          "velocity": 0.5511811023622047
        },
        {
          "duration": 0.02272724999999909,
          "durationTicks": 48,
          "midi": 39,
          "name": "D#2",
          "ticks": 35520,
          "time": 16.818165,
          "velocity": 0.6299212598425197
        },
        {
          "duration": 0.02272724999999909,
          "durationTicks": 48,
          "midi": 39,
          "name": "D#2",
          "ticks": 36480,
          "time": 17.27271,
          "velocity": 0.5748031496062992
        },
        {
          "duration": 0.02272724999999909,
          "durationTicks": 48,
          "midi": 39,
          "name": "D#2",
          "ticks": 37440,
          "time": 17.727255,
          "velocity": 0.6299212598425197
        },
        {
          "duration": 0.02272724999999909,
          "durationTicks": 48,
          "midi": 39,
          "name": "D#2",
          "ticks": 38400,
          "time": 18.181800000000003,
          "velocity": 0.5511811023622047
        },
        {
          "duration": 0.02272724999999909,
          "durationTicks": 48,
          "midi": 39,
          "name": "D#2",
          "ticks": 39360,
          "time": 18.636345000000002,
          "velocity": 0.6299212598425197
        },
        {
          "duration": 0.02272724999999909,
          "durationTicks": 48,
          "midi": 39,
          "name": "D#2",
          "ticks": 40320,
          "time": 19.09089,
          "velocity": 0.5748031496062992
        },
        {
          "duration": 0.02272724999999909,
          "durationTicks": 48,
          "midi": 39,
          "name": "D#2",
          "ticks": 41280,
          "time": 19.545435,
          "velocity": 0.6299212598425197
        },
        {
          "duration": 0.02272724999999909,
          "durationTicks": 48,
          "midi": 39,
          "name": "D#2",
          "ticks": 42240,
          "time": 19.99998,
          "velocity": 0.5511811023622047
        },
        {
          "duration": 0.02272724999999909,
          "durationTicks": 48,
          "midi": 39,
          "name": "D#2",
          "ticks": 43200,
          "time": 20.454525,
          "velocity": 0.6299212598425197
        },
        {
          "duration": 0.02272724999999909,
          "durationTicks": 48,
          "midi": 39,
          "name": "D#2",
          "ticks": 44160,
          "time": 20.90907,
          "velocity": 0.5748031496062992
        },
        {
          "duration": 0.02272724999999909,
          "durationTicks": 48,
          "midi": 39,
          "name": "D#2",
          "ticks": 45120,
          "time": 21.363615000000003,
          "velocity": 0.6299212598425197
        },
        {
          "duration": 0.02272724999999909,
          "durationTicks": 48,
          "midi": 39,
          "name": "D#2",
          "ticks": 46080,
          "time": 21.818160000000002,
          "velocity": 0.5511811023622047
        },
        {
          "duration": 0.02272724999999909,
          "durationTicks": 48,
          "midi": 39,
          "name": "D#2",
          "ticks": 47040,
          "time": 22.272705000000002,
          "velocity": 0.6299212598425197
        },
        {
          "duration": 0.02272724999999909,
          "durationTicks": 48,
          "midi": 39,
          "name": "D#2",
          "ticks": 48000,
          "time": 22.72725,
          "velocity": 0.5748031496062992
        },
        {
          "duration": 0.02272724999999909,
          "durationTicks": 48,
          "midi": 39,
          "name": "D#2",
          "ticks": 48960,
          "time": 23.181795,
          "velocity": 0.6299212598425197
        },
        {
          "duration": 0.02272724999999909,
          "durationTicks": 48,
          "midi": 39,
          "name": "D#2",
          "ticks": 49920,
          "time": 23.63634,
          "velocity": 0.5511811023622047
        },
        {
          "duration": 0.02272724999999909,
          "durationTicks": 48,
          "midi": 39,
          "name": "D#2",
          "ticks": 50880,
          "time": 24.090885,
          "velocity": 0.6299212598425197
        },
        {
          "duration": 0.022727249999995536,
          "durationTicks": 48,
          "midi": 39,
          "name": "D#2",
          "ticks": 51840,
          "time": 24.545430000000003,
          "velocity": 0.5748031496062992
        },
        {
          "duration": 0.02272724999999909,
          "durationTicks": 48,
          "midi": 39,
          "name": "D#2",
          "ticks": 52800,
          "time": 24.999975000000003,
          "velocity": 0.6299212598425197
        },
        {
          "duration": 0.02272724999999909,
          "durationTicks": 48,
          "midi": 39,
          "name": "D#2",
          "ticks": 53760,
          "time": 25.454520000000002,
          "velocity": 0.5511811023622047
        },
        {
          "duration": 0.02272724999999909,
          "durationTicks": 48,
          "midi": 39,
          "name": "D#2",
          "ticks": 54720,
          "time": 25.909065000000002,
          "velocity": 0.6299212598425197
        },
        {
          "duration": 0.02272724999999909,
          "durationTicks": 48,
          "midi": 39,
          "name": "D#2",
          "ticks": 55680,
          "time": 26.36361,
          "velocity": 0.5748031496062992
        },
        {
          "duration": 0.02272724999999909,
          "durationTicks": 48,
          "midi": 39,
          "name": "D#2",
          "ticks": 56640,
          "time": 26.818155,
          "velocity": 0.6299212598425197
        },
        {
          "duration": 0.02272724999999909,
          "durationTicks": 48,
          "midi": 39,
          "name": "D#2",
          "ticks": 57600,
          "time": 27.2727,
          "velocity": 0.5511811023622047
        },
        {
          "duration": 0.022727249999995536,
          "durationTicks": 48,
          "midi": 39,
          "name": "D#2",
          "ticks": 58560,
          "time": 27.727245000000003,
          "velocity": 0.6299212598425197
        },
        {
          "duration": 0.02272724999999909,
          "durationTicks": 48,
          "midi": 39,
          "name": "D#2",
          "ticks": 59520,
          "time": 28.181790000000003,
          "velocity": 0.5748031496062992
        },
        {
          "duration": 0.02272724999999909,
          "durationTicks": 48,
          "midi": 39,
          "name": "D#2",
          "ticks": 60480,
          "time": 28.636335000000003,
          "velocity": 0.6299212598425197
        },
        {
          "duration": 0.02272724999999909,
          "durationTicks": 48,
          "midi": 39,
          "name": "D#2",
          "ticks": 61440,
          "time": 29.090880000000002,
          "velocity": 0.5511811023622047
        },
        {
          "duration": 0.02272724999999909,
          "durationTicks": 48,
          "midi": 39,
          "name": "D#2",
          "ticks": 62400,
          "time": 29.545425,
          "velocity": 0.6299212598425197
        },
        {
          "duration": 0.02272724999999909,
          "durationTicks": 48,
          "midi": 39,
          "name": "D#2",
          "ticks": 63360,
          "time": 29.99997,
          "velocity": 0.5748031496062992
        },
        {
          "duration": 0.02272724999999909,
          "durationTicks": 48,
          "midi": 39,
          "name": "D#2",
          "ticks": 64320,
          "time": 30.454515,
          "velocity": 0.6299212598425197
        },
        {
          "duration": 0.022727249999995536,
          "durationTicks": 48,
          "midi": 39,
          "name": "D#2",
          "ticks": 65280,
          "time": 30.909060000000004,
          "velocity": 0.5511811023622047
        },
        {
          "duration": 0.02272724999999909,
          "durationTicks": 48,
          "midi": 39,
          "name": "D#2",
          "ticks": 66240,
          "time": 31.363605000000003,
          "velocity": 0.6299212598425197
        },
        {
          "duration": 0.02272724999999909,
          "durationTicks": 48,
          "midi": 39,
          "name": "D#2",
          "ticks": 67200,
          "time": 31.818150000000003,
          "velocity": 0.5748031496062992
        },
        {
          "duration": 0.02272725000000264,
          "durationTicks": 48,
          "midi": 39,
          "name": "D#2",
          "ticks": 68160,
          "time": 32.272695,
          "velocity": 0.6299212598425197
        },
        {
          "duration": 0.02272725000000264,
          "durationTicks": 48,
          "midi": 39,
          "name": "D#2",
          "ticks": 69120,
          "time": 32.72724,
          "velocity": 0.5511811023622047
        },
        {
          "duration": 0.022727249999995536,
          "durationTicks": 48,
          "midi": 39,
          "name": "D#2",
          "ticks": 70080,
          "time": 33.181785000000005,
          "velocity": 0.6299212598425197
        },
        {
          "duration": 0.02272725000000264,
          "durationTicks": 48,
          "midi": 39,
          "name": "D#2",
          "ticks": 71040,
          "time": 33.63633,
          "velocity": 0.5748031496062992
        },
        {
          "duration": 0.022727249999995536,
          "durationTicks": 48,
          "midi": 39,
          "name": "D#2",
          "ticks": 72000,
          "time": 34.090875000000004,
          "velocity": 0.6299212598425197
        },
        {
          "duration": 0.02272725000000264,
          "durationTicks": 48,
          "midi": 39,
          "name": "D#2",
          "ticks": 72960,
          "time": 34.54542,
          "velocity": 0.5511811023622047
        },
        {
          "duration": 0.022727249999995536,
          "durationTicks": 48,
          "midi": 39,
          "name": "D#2",
          "ticks": 73920,
          "time": 34.999965,
          "velocity": 0.6299212598425197
        },
        {
          "duration": 0.02272725000000264,
          "durationTicks": 48,
          "midi": 39,
          "name": "D#2",
          "ticks": 74880,
          "time": 35.45451,
          "velocity": 0.5748031496062992
        },
        {
          "duration": 0.02272725000000264,
          "durationTicks": 48,
          "midi": 39,
          "name": "D#2",
          "ticks": 75840,
          "time": 35.909055,
          "velocity": 0.6299212598425197
        },
        {
          "duration": 0.022727249999995536,
          "durationTicks": 48,
          "midi": 39,
          "name": "D#2",
          "ticks": 76800,
          "time": 36.363600000000005,
          "velocity": 0.5511811023622047
        },
        {
          "duration": 0.02272725000000264,
          "durationTicks": 48,
          "midi": 39,
          "name": "D#2",
          "ticks": 77760,
          "time": 36.818145,
          "velocity": 0.6299212598425197
        },
        {
          "duration": 0.022727249999995536,
          "durationTicks": 48,
          "midi": 39,
          "name": "D#2",
          "ticks": 78720,
          "time": 37.272690000000004,
          "velocity": 0.5748031496062992
        },
        {
          "duration": 0.02272725000000264,
          "durationTicks": 48,
          "midi": 39,
          "name": "D#2",
          "ticks": 79680,
          "time": 37.727235,
          "velocity": 0.6299212598425197
        },
        {
          "duration": 0.02272725000000264,
          "durationTicks": 48,
          "midi": 39,
          "name": "D#2",
          "ticks": 142080,
          "time": 67.27266,
          "velocity": 0.5511811023622047
        },
        {
          "duration": 0.022727250000016852,
          "durationTicks": 48,
          "midi": 39,
          "name": "D#2",
          "ticks": 143040,
          "time": 67.727205,
          "velocity": 0.6299212598425197
        },
        {
          "duration": 0.02272725000000264,
          "durationTicks": 48,
          "midi": 39,
          "name": "D#2",
          "ticks": 144000,
          "time": 68.18175000000001,
          "velocity": 0.5748031496062992
        },
        {
          "duration": 0.02272725000000264,
          "durationTicks": 48,
          "midi": 39,
          "name": "D#2",
          "ticks": 144960,
          "time": 68.636295,
          "velocity": 0.6299212598425197
        },
        {
          "duration": 0.022727250000016852,
          "durationTicks": 48,
          "midi": 39,
          "name": "D#2",
          "ticks": 145920,
          "time": 69.09084,
          "velocity": 0.5511811023622047
        },
        {
          "duration": 0.02272725000000264,
          "durationTicks": 48,
          "midi": 39,
          "name": "D#2",
          "ticks": 146880,
          "time": 69.54538500000001,
          "velocity": 0.6299212598425197
        },
        {
          "duration": 0.02272725000000264,
          "durationTicks": 48,
          "midi": 39,
          "name": "D#2",
          "ticks": 147840,
          "time": 69.99993,
          "velocity": 0.5748031496062992
        },
        {
          "duration": 0.02272725000000264,
          "durationTicks": 48,
          "midi": 39,
          "name": "D#2",
          "ticks": 148800,
          "time": 70.454475,
          "velocity": 0.6299212598425197
        },
        {
          "duration": 0.022727250000016852,
          "durationTicks": 48,
          "midi": 39,
          "name": "D#2",
          "ticks": 149760,
          "time": 70.90902,
          "velocity": 0.5511811023622047
        },
        {
          "duration": 0.02272725000000264,
          "durationTicks": 48,
          "midi": 39,
          "name": "D#2",
          "ticks": 150720,
          "time": 71.36356500000001,
          "velocity": 0.6299212598425197
        },
        {
          "duration": 0.02272725000000264,
          "durationTicks": 48,
          "midi": 39,
          "name": "D#2",
          "ticks": 151680,
          "time": 71.81811,
          "velocity": 0.5748031496062992
        },
        {
          "duration": 0.022727250000016852,
          "durationTicks": 48,
          "midi": 39,
          "name": "D#2",
          "ticks": 152640,
          "time": 72.272655,
          "velocity": 0.6299212598425197
        },
        {
          "duration": 0.02272725000000264,
          "durationTicks": 48,
          "midi": 39,
          "name": "D#2",
          "ticks": 153600,
          "time": 72.72720000000001,
          "velocity": 0.5511811023622047
        },
        {
          "duration": 0.02272725000000264,
          "durationTicks": 48,
          "midi": 39,
          "name": "D#2",
          "ticks": 154560,
          "time": 73.181745,
          "velocity": 0.6299212598425197
        },
        {
          "duration": 0.02272725000000264,
          "durationTicks": 48,
          "midi": 39,
          "name": "D#2",
          "ticks": 155520,
          "time": 73.63629,
          "velocity": 0.5748031496062992
        },
        {
          "duration": 0.022727250000016852,
          "durationTicks": 48,
          "midi": 39,
          "name": "D#2",
          "ticks": 156480,
          "time": 74.090835,
          "velocity": 0.6299212598425197
        },
        {
          "duration": 0.02272725000000264,
          "durationTicks": 48,
          "midi": 39,
          "name": "D#2",
          "ticks": 157440,
          "time": 74.54538000000001,
          "velocity": 0.5511811023622047
        },
        {
          "duration": 0.02272725000000264,
          "durationTicks": 48,
          "midi": 39,
          "name": "D#2",
          "ticks": 158400,
          "time": 74.999925,
          "velocity": 0.6299212598425197
        },
        {
          "duration": 0.022727250000016852,
          "durationTicks": 48,
          "midi": 39,
          "name": "D#2",
          "ticks": 159360,
          "time": 75.45447,
          "velocity": 0.5748031496062992
        },
        {
          "duration": 0.02272725000000264,
          "durationTicks": 48,
          "midi": 39,
          "name": "D#2",
          "ticks": 160320,
          "time": 75.90901500000001,
          "velocity": 0.6299212598425197
        },
        {
          "duration": 0.02272725000000264,
          "durationTicks": 48,
          "midi": 39,
          "name": "D#2",
          "ticks": 161280,
          "time": 76.36356,
          "velocity": 0.5511811023622047
        },
        {
          "duration": 0.02272725000000264,
          "durationTicks": 48,
          "midi": 39,
          "name": "D#2",
          "ticks": 162240,
          "time": 76.818105,
          "velocity": 0.6299212598425197
        },
        {
          "duration": 0.022727250000016852,
          "durationTicks": 48,
          "midi": 39,
          "name": "D#2",
          "ticks": 163200,
          "time": 77.27265,
          "velocity": 0.5748031496062992
        },
        {
          "duration": 0.02272725000000264,
          "durationTicks": 48,
          "midi": 39,
          "name": "D#2",
          "ticks": 164160,
          "time": 77.72719500000001,
          "velocity": 0.6299212598425197
        },
        {
          "duration": 0.02272725000000264,
          "durationTicks": 48,
          "midi": 39,
          "name": "D#2",
          "ticks": 165120,
          "time": 78.18174,
          "velocity": 0.5511811023622047
        },
        {
          "duration": 0.022727250000016852,
          "durationTicks": 48,
          "midi": 39,
          "name": "D#2",
          "ticks": 166080,
          "time": 78.636285,
          "velocity": 0.6299212598425197
        },
        {
          "duration": 0.02272725000000264,
          "durationTicks": 48,
          "midi": 39,
          "name": "D#2",
          "ticks": 167040,
          "time": 79.09083000000001,
          "velocity": 0.5748031496062992
        },
        {
          "duration": 0.02272725000000264,
          "durationTicks": 48,
          "midi": 39,
          "name": "D#2",
          "ticks": 168000,
          "time": 79.545375,
          "velocity": 0.6299212598425197
        },
        {
          "duration": 0.02272725000000264,
          "durationTicks": 48,
          "midi": 39,
          "name": "D#2",
          "ticks": 168960,
          "time": 79.99992,
          "velocity": 0.5511811023622047
        },
        {
          "duration": 0.022727250000016852,
          "durationTicks": 48,
          "midi": 39,
          "name": "D#2",
          "ticks": 169920,
          "time": 80.454465,
          "velocity": 0.6299212598425197
        },
        {
          "duration": 0.02272725000000264,
          "durationTicks": 48,
          "midi": 39,
          "name": "D#2",
          "ticks": 170880,
          "time": 80.90901000000001,
          "velocity": 0.5748031496062992
        },
        {
          "duration": 0.02272725000000264,
          "durationTicks": 48,
          "midi": 39,
          "name": "D#2",
          "ticks": 171840,
          "time": 81.363555,
          "velocity": 0.6299212598425197
        },
        {
          "duration": 0.022727250000016852,
          "durationTicks": 48,
          "midi": 39,
          "name": "D#2",
          "ticks": 172800,
          "time": 81.8181,
          "velocity": 0.5511811023622047
        },
        {
          "duration": 0.02272725000000264,
          "durationTicks": 48,
          "midi": 39,
          "name": "D#2",
          "ticks": 173760,
          "time": 82.27264500000001,
          "velocity": 0.6299212598425197
        },
        {
          "duration": 0.02272725000000264,
          "durationTicks": 48,
          "midi": 39,
          "name": "D#2",
          "ticks": 174720,
          "time": 82.72719000000001,
          "velocity": 0.5748031496062992
        },
        {
          "duration": 0.02272725000000264,
          "durationTicks": 48,
          "midi": 39,
          "name": "D#2",
          "ticks": 175680,
          "time": 83.181735,
          "velocity": 0.6299212598425197
        },
        {
          "duration": 0.022727250000016852,
          "durationTicks": 48,
          "midi": 39,
          "name": "D#2",
          "ticks": 176640,
          "time": 83.63628,
          "velocity": 0.5511811023622047
        },
        {
          "duration": 0.02272725000000264,
          "durationTicks": 48,
          "midi": 39,
          "name": "D#2",
          "ticks": 177600,
          "time": 84.09082500000001,
          "velocity": 0.6299212598425197
        },
        {
          "duration": 0.02272725000000264,
          "durationTicks": 48,
          "midi": 39,
          "name": "D#2",
          "ticks": 178560,
          "time": 84.54537,
          "velocity": 0.5748031496062992
        },
        {
          "duration": 0.022727250000016852,
          "durationTicks": 48,
          "midi": 39,
          "name": "D#2",
          "ticks": 179520,
          "time": 84.999915,
          "velocity": 0.6299212598425197
        },
        {
          "duration": 0.02272725000000264,
          "durationTicks": 48,
          "midi": 39,
          "name": "D#2",
          "ticks": 180480,
          "time": 85.45446000000001,
          "velocity": 0.5511811023622047
        },
        {
          "duration": 0.02272725000000264,
          "durationTicks": 48,
          "midi": 39,
          "name": "D#2",
          "ticks": 181440,
          "time": 85.90900500000001,
          "velocity": 0.6299212598425197
        },
        {
          "duration": 0.02272725000000264,
          "durationTicks": 48,
          "midi": 39,
          "name": "D#2",
          "ticks": 182400,
          "time": 86.36355,
          "velocity": 0.5748031496062992
        },
        {
          "duration": 0.022727250000016852,
          "durationTicks": 48,
          "midi": 39,
          "name": "D#2",
          "ticks": 183360,
          "time": 86.818095,
          "velocity": 0.6299212598425197
        },
        {
          "duration": 0.02272725000000264,
          "durationTicks": 48,
          "midi": 39,
          "name": "D#2",
          "ticks": 184320,
          "time": 87.27264000000001,
          "velocity": 0.5511811023622047
        },
        {
          "duration": 0.02272725000000264,
          "durationTicks": 48,
          "midi": 39,
          "name": "D#2",
          "ticks": 185280,
          "time": 87.727185,
          "velocity": 0.6299212598425197
        },
        {
          "duration": 0.02272725000000264,
          "durationTicks": 48,
          "midi": 39,
          "name": "D#2",
          "ticks": 186240,
          "time": 88.18173,
          "velocity": 0.5748031496062992
        },
        {
          "duration": 0.02272725000000264,
          "durationTicks": 48,
          "midi": 39,
          "name": "D#2",
          "ticks": 187200,
          "time": 88.63627500000001,
          "velocity": 0.6299212598425197
        },
        {
          "duration": 0.02272725000000264,
          "durationTicks": 48,
          "midi": 39,
          "name": "D#2",
          "ticks": 188160,
          "time": 89.09082000000001,
          "velocity": 0.5511811023622047
        },
        {
          "duration": 0.02272725000000264,
          "durationTicks": 48,
          "midi": 39,
          "name": "D#2",
          "ticks": 189120,
          "time": 89.545365,
          "velocity": 0.6299212598425197
        },
        {
          "duration": 0.022727250000016852,
          "durationTicks": 48,
          "midi": 39,
          "name": "D#2",
          "ticks": 190080,
          "time": 89.99991,
          "velocity": 0.5748031496062992
        },
        {
          "duration": 0.02272725000000264,
          "durationTicks": 48,
          "midi": 39,
          "name": "D#2",
          "ticks": 191040,
          "time": 90.45445500000001,
          "velocity": 0.6299212598425197
        },
        {
          "duration": 0.02272725000000264,
          "durationTicks": 48,
          "midi": 39,
          "name": "D#2",
          "ticks": 192000,
          "time": 90.909,
          "velocity": 0.5511811023622047
        },
        {
          "duration": 0.02272725000000264,
          "durationTicks": 48,
          "midi": 39,
          "name": "D#2",
          "ticks": 192960,
          "time": 91.363545,
          "velocity": 0.6299212598425197
        },
        {
          "duration": 0.02272725000000264,
          "durationTicks": 48,
          "midi": 39,
          "name": "D#2",
          "ticks": 193920,
          "time": 91.81809000000001,
          "velocity": 0.5748031496062992
        },
        {
          "duration": 0.02272725000000264,
          "durationTicks": 48,
          "midi": 39,
          "name": "D#2",
          "ticks": 194880,
          "time": 92.27263500000001,
          "velocity": 0.6299212598425197
        },
        {
          "duration": 0.02272725000000264,
          "durationTicks": 48,
          "midi": 39,
          "name": "D#2",
          "ticks": 195840,
          "time": 92.72718,
          "velocity": 0.5511811023622047
        },
        {
          "duration": 0.022727250000016852,
          "durationTicks": 48,
          "midi": 39,
          "name": "D#2",
          "ticks": 196800,
          "time": 93.181725,
          "velocity": 0.6299212598425197
        },
        {
          "duration": 0.02272725000000264,
          "durationTicks": 48,
          "midi": 39,
          "name": "D#2",
          "ticks": 197760,
          "time": 93.63627000000001,
          "velocity": 0.5748031496062992
        },
        {
          "duration": 0.02272725000000264,
          "durationTicks": 48,
          "midi": 39,
          "name": "D#2",
          "ticks": 198720,
          "time": 94.090815,
          "velocity": 0.6299212598425197
        },
        {
          "duration": 0.02272725000000264,
          "durationTicks": 48,
          "midi": 39,
          "name": "D#2",
          "ticks": 199680,
          "time": 94.54536,
          "velocity": 0.5511811023622047
        },
        {
          "duration": 0.02272725000000264,
          "durationTicks": 48,
          "midi": 39,
          "name": "D#2",
          "ticks": 200640,
          "time": 94.99990500000001,
          "velocity": 0.6299212598425197
        },
        {
          "duration": 0.02272725000000264,
          "durationTicks": 48,
          "midi": 39,
          "name": "D#2",
          "ticks": 201600,
          "time": 95.45445000000001,
          "velocity": 0.5748031496062992
        },
        {
          "duration": 0.02272725000000264,
          "durationTicks": 48,
          "midi": 39,
          "name": "D#2",
          "ticks": 202560,
          "time": 95.908995,
          "velocity": 0.6299212598425197
        },
        {
          "duration": 0.022727250000016852,
          "durationTicks": 48,
          "midi": 39,
          "name": "D#2",
          "ticks": 203520,
          "time": 96.36354,
          "velocity": 0.5511811023622047
        },
        {
          "duration": 0.02272725000000264,
          "durationTicks": 48,
          "midi": 39,
          "name": "D#2",
          "ticks": 204480,
          "time": 96.81808500000001,
          "velocity": 0.6299212598425197
        },
        {
          "duration": 0.02272725000000264,
          "durationTicks": 48,
          "midi": 39,
          "name": "D#2",
          "ticks": 205440,
          "time": 97.27263,
          "velocity": 0.5748031496062992
        },
        {
          "duration": 0.02272725000000264,
          "durationTicks": 48,
          "midi": 39,
          "name": "D#2",
          "ticks": 206400,
          "time": 97.727175,
          "velocity": 0.6299212598425197
        },
        {
          "duration": 0.02272725000000264,
          "durationTicks": 48,
          "midi": 39,
          "name": "D#2",
          "ticks": 207360,
          "time": 98.18172000000001,
          "velocity": 0.5511811023622047
        },
        {
          "duration": 0.02272725000000264,
          "durationTicks": 48,
          "midi": 39,
          "name": "D#2",
          "ticks": 208320,
          "time": 98.63626500000001,
          "velocity": 0.6299212598425197
        },
        {
          "duration": 0.02272725000000264,
          "durationTicks": 48,
          "midi": 39,
          "name": "D#2",
          "ticks": 209280,
          "time": 99.09081,
          "velocity": 0.5748031496062992
        },
        {
          "duration": 0.022727250000016852,
          "durationTicks": 48,
          "midi": 39,
          "name": "D#2",
          "ticks": 210240,
          "time": 99.545355,
          "velocity": 0.6299212598425197
        },
        {
          "duration": 0.02272725000000264,
          "durationTicks": 48,
          "midi": 39,
          "name": "D#2",
          "ticks": 211200,
          "time": 99.99990000000001,
          "velocity": 0.5511811023622047
        },
        {
          "duration": 0.02272725000000264,
          "durationTicks": 48,
          "midi": 39,
          "name": "D#2",
          "ticks": 212160,
          "time": 100.454445,
          "velocity": 0.6299212598425197
        },
        {
          "duration": 0.02272725000000264,
          "durationTicks": 48,
          "midi": 39,
          "name": "D#2",
          "ticks": 213120,
          "time": 100.90899,
          "velocity": 0.5748031496062992
        },
        {
          "duration": 0.02272725000000264,
          "durationTicks": 48,
          "midi": 39,
          "name": "D#2",
          "ticks": 214080,
          "time": 101.36353500000001,
          "velocity": 0.6299212598425197
        },
        {
          "duration": 0.02272725000000264,
          "durationTicks": 48,
          "midi": 39,
          "name": "D#2",
          "ticks": 215040,
          "time": 101.81808000000001,
          "velocity": 0.5511811023622047
        },
        {
          "duration": 0.02272725000000264,
          "durationTicks": 48,
          "midi": 39,
          "name": "D#2",
          "ticks": 216000,
          "time": 102.272625,
          "velocity": 0.6299212598425197
        },
        {
          "duration": 0.022727250000016852,
          "durationTicks": 48,
          "midi": 39,
          "name": "D#2",
          "ticks": 216960,
          "time": 102.72717,
          "velocity": 0.5748031496062992
        },
        {
          "duration": 0.02272725000000264,
          "durationTicks": 48,
          "midi": 39,
          "name": "D#2",
          "ticks": 217920,
          "time": 103.18171500000001,
          "velocity": 0.6299212598425197
        },
        {
          "duration": 0.02272725000000264,
          "durationTicks": 48,
          "midi": 39,
          "name": "D#2",
          "ticks": 218880,
          "time": 103.63626000000001,
          "velocity": 0.5511811023622047
        },
        {
          "duration": 0.02272725000000264,
          "durationTicks": 48,
          "midi": 39,
          "name": "D#2",
          "ticks": 219840,
          "time": 104.090805,
          "velocity": 0.6299212598425197
        },
        {
          "duration": 0.02272725000000264,
          "durationTicks": 48,
          "midi": 39,
          "name": "D#2",
          "ticks": 220800,
          "time": 104.54535000000001,
          "velocity": 0.5748031496062992
        },
        {
          "duration": 0.02272725000000264,
          "durationTicks": 48,
          "midi": 39,
          "name": "D#2",
          "ticks": 221760,
          "time": 104.99989500000001,
          "velocity": 0.6299212598425197
        },
        {
          "duration": 0.02272725000000264,
          "durationTicks": 48,
          "midi": 39,
          "name": "D#2",
          "ticks": 222720,
          "time": 105.45444,
          "velocity": 0.5511811023622047
        },
        {
          "duration": 0.022727250000016852,
          "durationTicks": 48,
          "midi": 39,
          "name": "D#2",
          "ticks": 223680,
          "time": 105.908985,
          "velocity": 0.6299212598425197
        },
        {
          "duration": 0.02272725000000264,
          "durationTicks": 48,
          "midi": 39,
          "name": "D#2",
          "ticks": 224640,
          "time": 106.36353000000001,
          "velocity": 0.5748031496062992
        },
        {
          "duration": 0.02272725000000264,
          "durationTicks": 48,
          "midi": 39,
          "name": "D#2",
          "ticks": 225600,
          "time": 106.81807500000001,
          "velocity": 0.6299212598425197
        },
        {
          "duration": 0.02272725000000264,
          "durationTicks": 48,
          "midi": 39,
          "name": "D#2",
          "ticks": 226560,
          "time": 107.27262,
          "velocity": 0.5511811023622047
        },
        {
          "duration": 0.02272725000000264,
          "durationTicks": 48,
          "midi": 39,
          "name": "D#2",
          "ticks": 227520,
          "time": 107.72716500000001,
          "velocity": 0.6299212598425197
        },
        {
          "duration": 0.02272725000000264,
          "durationTicks": 48,
          "midi": 39,
          "name": "D#2",
          "ticks": 228480,
          "time": 108.18171000000001,
          "velocity": 0.5748031496062992
        },
        {
          "duration": 0.02272725000000264,
          "durationTicks": 48,
          "midi": 39,
          "name": "D#2",
          "ticks": 229440,
          "time": 108.636255,
          "velocity": 0.6299212598425197
        },
        {
          "duration": 0.022727250000016852,
          "durationTicks": 48,
          "midi": 39,
          "name": "D#2",
          "ticks": 230400,
          "time": 109.0908,
          "velocity": 0.5511811023622047
        },
        {
          "duration": 0.02272725000000264,
          "durationTicks": 48,
          "midi": 39,
          "name": "D#2",
          "ticks": 231360,
          "time": 109.54534500000001,
          "velocity": 0.6299212598425197
        },
        {
          "duration": 0.02272725000000264,
          "durationTicks": 48,
          "midi": 39,
          "name": "D#2",
          "ticks": 232320,
          "time": 109.99989000000001,
          "velocity": 0.5748031496062992
        },
        {
          "duration": 0.02272725000000264,
          "durationTicks": 48,
          "midi": 39,
          "name": "D#2",
          "ticks": 233280,
          "time": 110.454435,
          "velocity": 0.6299212598425197
        },
        {
          "duration": 0.02272725000000264,
          "durationTicks": 48,
          "midi": 39,
          "name": "D#2",
          "ticks": 295680,
          "time": 139.99986,
          "velocity": 0.5511811023622047
        },
        {
          "duration": 0.02272725000000264,
          "durationTicks": 48,
          "midi": 39,
          "name": "D#2",
          "ticks": 296640,
          "time": 140.454405,
          "velocity": 0.6299212598425197
        },
        {
          "duration": 0.02272725000000264,
          "durationTicks": 48,
          "midi": 39,
          "name": "D#2",
          "ticks": 297600,
          "time": 140.90895,
          "velocity": 0.5748031496062992
        },
        {
          "duration": 0.02272725000000264,
          "durationTicks": 48,
          "midi": 39,
          "name": "D#2",
          "ticks": 298560,
          "time": 141.363495,
          "velocity": 0.6299212598425197
        },
        {
          "duration": 0.022727250000031063,
          "durationTicks": 48,
          "midi": 39,
          "name": "D#2",
          "ticks": 299520,
          "time": 141.81804,
          "velocity": 0.5511811023622047
        },
        {
          "duration": 0.02272725000000264,
          "durationTicks": 48,
          "midi": 39,
          "name": "D#2",
          "ticks": 300480,
          "time": 142.27258500000002,
          "velocity": 0.6299212598425197
        },
        {
          "duration": 0.02272725000000264,
          "durationTicks": 48,
          "midi": 39,
          "name": "D#2",
          "ticks": 301440,
          "time": 142.72713000000002,
          "velocity": 0.5748031496062992
        },
        {
          "duration": 0.02272725000000264,
          "durationTicks": 48,
          "midi": 39,
          "name": "D#2",
          "ticks": 302400,
          "time": 143.181675,
          "velocity": 0.6299212598425197
        },
        {
          "duration": 0.02272725000000264,
          "durationTicks": 48,
          "midi": 39,
          "name": "D#2",
          "ticks": 303360,
          "time": 143.63622,
          "velocity": 0.5511811023622047
        },
        {
          "duration": 0.02272725000000264,
          "durationTicks": 48,
          "midi": 39,
          "name": "D#2",
          "ticks": 304320,
          "time": 144.090765,
          "velocity": 0.6299212598425197
        },
        {
          "duration": 0.02272725000000264,
          "durationTicks": 48,
          "midi": 39,
          "name": "D#2",
          "ticks": 305280,
          "time": 144.54531,
          "velocity": 0.5748031496062992
        },
        {
          "duration": 0.022727250000031063,
          "durationTicks": 48,
          "midi": 39,
          "name": "D#2",
          "ticks": 306240,
          "time": 144.999855,
          "velocity": 0.6299212598425197
        },
        {
          "duration": 0.02272725000000264,
          "durationTicks": 48,
          "midi": 39,
          "name": "D#2",
          "ticks": 307200,
          "time": 145.45440000000002,
          "velocity": 0.5511811023622047
        },
        {
          "duration": 0.02272725000000264,
          "durationTicks": 48,
          "midi": 39,
          "name": "D#2",
          "ticks": 308160,
          "time": 145.90894500000002,
          "velocity": 0.6299212598425197
        },
        {
          "duration": 0.02272725000000264,
          "durationTicks": 48,
          "midi": 39,
          "name": "D#2",
          "ticks": 309120,
          "time": 146.36349,
          "velocity": 0.5748031496062992
        },
        {
          "duration": 0.02272725000000264,
          "durationTicks": 48,
          "midi": 39,
          "name": "D#2",
          "ticks": 310080,
          "time": 146.818035,
          "velocity": 0.6299212598425197
        },
        {
          "duration": 0.02272725000000264,
          "durationTicks": 48,
          "midi": 39,
          "name": "D#2",
          "ticks": 311040,
          "time": 147.27258,
          "velocity": 0.5511811023622047
        },
        {
          "duration": 0.02272725000000264,
          "durationTicks": 48,
          "midi": 39,
          "name": "D#2",
          "ticks": 312000,
          "time": 147.727125,
          "velocity": 0.6299212598425197
        },
        {
          "duration": 0.022727250000031063,
          "durationTicks": 48,
          "midi": 39,
          "name": "D#2",
          "ticks": 312960,
          "time": 148.18167,
          "velocity": 0.5748031496062992
        },
        {
          "duration": 0.02272725000000264,
          "durationTicks": 48,
          "midi": 39,
          "name": "D#2",
          "ticks": 313920,
          "time": 148.63621500000002,
          "velocity": 0.6299212598425197
        },
        {
          "duration": 0.02272725000000264,
          "durationTicks": 48,
          "midi": 39,
          "name": "D#2",
          "ticks": 314880,
          "time": 149.09076000000002,
          "velocity": 0.5511811023622047
        },
        {
          "duration": 0.02272725000000264,
          "durationTicks": 48,
          "midi": 39,
          "name": "D#2",
          "ticks": 315840,
          "time": 149.545305,
          "velocity": 0.6299212598425197
        },
        {
          "duration": 0.02272725000000264,
          "durationTicks": 48,
          "midi": 39,
          "name": "D#2",
          "ticks": 316800,
          "time": 149.99985,
          "velocity": 0.5748031496062992
        },
        {
          "duration": 0.02272725000000264,
          "durationTicks": 48,
          "midi": 39,
          "name": "D#2",
          "ticks": 317760,
          "time": 150.454395,
          "velocity": 0.6299212598425197
        },
        {
          "duration": 0.02272725000000264,
          "durationTicks": 48,
          "midi": 39,
          "name": "D#2",
          "ticks": 318720,
          "time": 150.90894,
          "velocity": 0.5511811023622047
        },
        {
          "duration": 0.022727250000031063,
          "durationTicks": 48,
          "midi": 39,
          "name": "D#2",
          "ticks": 319680,
          "time": 151.363485,
          "velocity": 0.6299212598425197
        },
        {
          "duration": 0.02272725000000264,
          "durationTicks": 48,
          "midi": 39,
          "name": "D#2",
          "ticks": 320640,
          "time": 151.81803000000002,
          "velocity": 0.5748031496062992
        },
        {
          "duration": 0.02272725000000264,
          "durationTicks": 48,
          "midi": 39,
          "name": "D#2",
          "ticks": 321600,
          "time": 152.27257500000002,
          "velocity": 0.6299212598425197
        },
        {
          "duration": 0.02272725000000264,
          "durationTicks": 48,
          "midi": 39,
          "name": "D#2",
          "ticks": 322560,
          "time": 152.72712,
          "velocity": 0.5511811023622047
        },
        {
          "duration": 0.02272725000000264,
          "durationTicks": 48,
          "midi": 39,
          "name": "D#2",
          "ticks": 323520,
          "time": 153.181665,
          "velocity": 0.6299212598425197
        },
        {
          "duration": 0.02272725000000264,
          "durationTicks": 48,
          "midi": 39,
          "name": "D#2",
          "ticks": 324480,
          "time": 153.63621,
          "velocity": 0.5748031496062992
        },
        {
          "duration": 0.02272725000000264,
          "durationTicks": 48,
          "midi": 39,
          "name": "D#2",
          "ticks": 325440,
          "time": 154.090755,
          "velocity": 0.6299212598425197
        },
        {
          "duration": 0.022727250000031063,
          "durationTicks": 48,
          "midi": 39,
          "name": "D#2",
          "ticks": 326400,
          "time": 154.5453,
          "velocity": 0.5511811023622047
        },
        {
          "duration": 0.02272725000000264,
          "durationTicks": 48,
          "midi": 39,
          "name": "D#2",
          "ticks": 327360,
          "time": 154.99984500000002,
          "velocity": 0.6299212598425197
        },
        {
          "duration": 0.02272725000000264,
          "durationTicks": 48,
          "midi": 39,
          "name": "D#2",
          "ticks": 328320,
          "time": 155.45439000000002,
          "velocity": 0.5748031496062992
        },
        {
          "duration": 0.02272725000000264,
          "durationTicks": 48,
          "midi": 39,
          "name": "D#2",
          "ticks": 329280,
          "time": 155.908935,
          "velocity": 0.6299212598425197
        },
        {
          "duration": 0.02272725000000264,
          "durationTicks": 48,
          "midi": 39,
          "name": "D#2",
          "ticks": 330240,
          "time": 156.36348,
          "velocity": 0.5511811023622047
        },
        {
          "duration": 0.02272725000000264,
          "durationTicks": 48,
          "midi": 39,
          "name": "D#2",
          "ticks": 331200,
          "time": 156.818025,
          "velocity": 0.6299212598425197
        },
        {
          "duration": 0.02272725000000264,
          "durationTicks": 48,
          "midi": 39,
          "name": "D#2",
          "ticks": 332160,
          "time": 157.27257,
          "velocity": 0.5748031496062992
        },
        {
          "duration": 0.022727250000031063,
          "durationTicks": 48,
          "midi": 39,
          "name": "D#2",
          "ticks": 333120,
          "time": 157.727115,
          "velocity": 0.6299212598425197
        },
        {
          "duration": 0.02272725000000264,
          "durationTicks": 48,
          "midi": 39,
          "name": "D#2",
          "ticks": 334080,
          "time": 158.18166000000002,
          "velocity": 0.5511811023622047
        },
        {
          "duration": 0.02272725000000264,
          "durationTicks": 48,
          "midi": 39,
          "name": "D#2",
          "ticks": 335040,
          "time": 158.63620500000002,
          "velocity": 0.6299212598425197
        },
        {
          "duration": 0.02272725000000264,
          "durationTicks": 48,
          "midi": 39,
          "name": "D#2",
          "ticks": 336000,
          "time": 159.09075,
          "velocity": 0.5748031496062992
        },
        {
          "duration": 0.02272725000000264,
          "durationTicks": 48,
          "midi": 39,
          "name": "D#2",
          "ticks": 336960,
          "time": 159.545295,
          "velocity": 0.6299212598425197
        },
        {
          "duration": 0.02272725000000264,
          "durationTicks": 48,
          "midi": 39,
          "name": "D#2",
          "ticks": 337920,
          "time": 159.99984,
          "velocity": 0.5511811023622047
        },
        {
          "duration": 0.02272725000000264,
          "durationTicks": 48,
          "midi": 39,
          "name": "D#2",
          "ticks": 338880,
          "time": 160.454385,
          "velocity": 0.6299212598425197
        },
        {
          "duration": 0.022727250000031063,
          "durationTicks": 48,
          "midi": 39,
          "name": "D#2",
          "ticks": 339840,
          "time": 160.90893,
          "velocity": 0.5748031496062992
        },
        {
          "duration": 0.02272725000000264,
          "durationTicks": 48,
          "midi": 39,
          "name": "D#2",
          "ticks": 340800,
          "time": 161.36347500000002,
          "velocity": 0.6299212598425197
        },
        {
          "duration": 0.02272725000000264,
          "durationTicks": 48,
          "midi": 39,
          "name": "D#2",
          "ticks": 341760,
          "time": 161.81802000000002,
          "velocity": 0.5511811023622047
        },
        {
          "duration": 0.02272725000000264,
          "durationTicks": 48,
          "midi": 39,
          "name": "D#2",
          "ticks": 342720,
          "time": 162.27256500000001,
          "velocity": 0.6299212598425197
        },
        {
          "duration": 0.02272725000000264,
          "durationTicks": 48,
          "midi": 39,
          "name": "D#2",
          "ticks": 343680,
          "time": 162.72711,
          "velocity": 0.5748031496062992
        },
        {
          "duration": 0.02272725000000264,
          "durationTicks": 48,
          "midi": 39,
          "name": "D#2",
          "ticks": 344640,
          "time": 163.181655,
          "velocity": 0.6299212598425197
        },
        {
          "duration": 0.02272725000000264,
          "durationTicks": 48,
          "midi": 39,
          "name": "D#2",
          "ticks": 345600,
          "time": 163.6362,
          "velocity": 0.5511811023622047
        },
        {
          "duration": 0.022727250000031063,
          "durationTicks": 48,
          "midi": 39,
          "name": "D#2",
          "ticks": 346560,
          "time": 164.090745,
          "velocity": 0.6299212598425197
        },
        {
          "duration": 0.02272725000000264,
          "durationTicks": 48,
          "midi": 39,
          "name": "D#2",
          "ticks": 347520,
          "time": 164.54529000000002,
          "velocity": 0.5748031496062992
        },
        {
          "duration": 0.02272725000000264,
          "durationTicks": 48,
          "midi": 39,
          "name": "D#2",
          "ticks": 348480,
          "time": 164.99983500000002,
          "velocity": 0.6299212598425197
        },
        {
          "duration": 0.02272725000000264,
          "durationTicks": 48,
          "midi": 39,
          "name": "D#2",
          "ticks": 349440,
          "time": 165.45438000000001,
          "velocity": 0.5511811023622047
        },
        {
          "duration": 0.02272725000000264,
          "durationTicks": 48,
          "midi": 39,
          "name": "D#2",
          "ticks": 350400,
          "time": 165.908925,
          "velocity": 0.6299212598425197
        },
        {
          "duration": 0.02272725000000264,
          "durationTicks": 48,
          "midi": 39,
          "name": "D#2",
          "ticks": 351360,
          "time": 166.36347,
          "velocity": 0.5748031496062992
        },
        {
          "duration": 0.02272725000000264,
          "durationTicks": 48,
          "midi": 39,
          "name": "D#2",
          "ticks": 352320,
          "time": 166.818015,
          "velocity": 0.6299212598425197
        },
        {
          "duration": 0.022727250000031063,
          "durationTicks": 48,
          "midi": 39,
          "name": "D#2",
          "ticks": 353280,
          "time": 167.27256,
          "velocity": 0.5511811023622047
        },
        {
          "duration": 0.02272725000000264,
          "durationTicks": 48,
          "midi": 39,
          "name": "D#2",
          "ticks": 354240,
          "time": 167.72710500000002,
          "velocity": 0.6299212598425197
        },
        {
          "duration": 0.02272725000000264,
          "durationTicks": 48,
          "midi": 39,
          "name": "D#2",
          "ticks": 355200,
          "time": 168.18165000000002,
          "velocity": 0.5748031496062992
        },
        {
          "duration": 0.02272725000000264,
          "durationTicks": 48,
          "midi": 39,
          "name": "D#2",
          "ticks": 356160,
          "time": 168.63619500000001,
          "velocity": 0.6299212598425197
        }
      ],
      "endOfTrackTicks": 360960
    },
    {
      "channel": 9,
      "controlChanges": {
        "10": [
          {
            "number": 10,
            "ticks": 0,
            "time": 0,
            "value": 0.9212598425196851
          }
        ]
      },
      "pitchBends": [],
      "instrument": {
        "family": "drums",
        "number": 0,
        "name": "standard kit"
      },
      "name": "Bass Drum",
      "notes": [
        {
          "duration": 0.454544999999996,
          "durationTicks": 960,
          "midi": 35,
          "name": "B1",
          "ticks": 80640,
          "time": 38.18178,
          "velocity": 0.7007874015748031
        },
        {
          "duration": 0.4545450000000031,
          "durationTicks": 960,
          "midi": 35,
          "name": "B1",
          "ticks": 81600,
          "time": 38.636325,
          "velocity": 0.7007874015748031
        },
        {
          "duration": 0.4545450000000031,
          "durationTicks": 960,
          "midi": 35,
          "name": "B1",
          "ticks": 82560,
          "time": 39.09087,
          "velocity": 0.7007874015748031
        },
        {
          "duration": 0.454544999999996,
          "durationTicks": 960,
          "midi": 35,
          "name": "B1",
          "ticks": 83520,
          "time": 39.545415000000006,
          "velocity": 0.7007874015748031
        },
        {
          "duration": 0.4545450000000031,
          "durationTicks": 960,
          "midi": 35,
          "name": "B1",
          "ticks": 84480,
          "time": 39.99996,
          "velocity": 0.7007874015748031
        },
        {
          "duration": 0.454544999999996,
          "durationTicks": 960,
          "midi": 35,
          "name": "B1",
          "ticks": 85440,
          "time": 40.454505000000005,
          "velocity": 0.7007874015748031
        },
        {
          "duration": 0.4545450000000031,
          "durationTicks": 960,
          "midi": 35,
          "name": "B1",
          "ticks": 86400,
          "time": 40.90905,
          "velocity": 0.7007874015748031
        },
        {
          "duration": 0.454544999999996,
          "durationTicks": 960,
          "midi": 35,
          "name": "B1",
          "ticks": 87360,
          "time": 41.363595000000004,
          "velocity": 0.7007874015748031
        },
        {
          "duration": 0.4545450000000031,
          "durationTicks": 960,
          "midi": 35,
          "name": "B1",
          "ticks": 88320,
          "time": 41.81814,
          "velocity": 0.7007874015748031
        },
        {
          "duration": 0.4545450000000031,
          "durationTicks": 960,
          "midi": 35,
          "name": "B1",
          "ticks": 89280,
          "time": 42.272685,
          "velocity": 0.7007874015748031
        },
        {
          "duration": 0.454544999999996,
          "durationTicks": 960,
          "midi": 35,
          "name": "B1",
          "ticks": 90240,
          "time": 42.727230000000006,
          "velocity": 0.7007874015748031
        },
        {
          "duration": 0.4545450000000031,
          "durationTicks": 960,
          "midi": 35,
          "name": "B1",
          "ticks": 91200,
          "time": 43.181775,
          "velocity": 0.7007874015748031
        },
        {
          "duration": 0.454544999999996,
          "durationTicks": 960,
          "midi": 35,
          "name": "B1",
          "ticks": 92160,
          "time": 43.636320000000005,
          "velocity": 0.7007874015748031
        },
        {
          "duration": 0.4545450000000031,
          "durationTicks": 960,
          "midi": 35,
          "name": "B1",
          "ticks": 93120,
          "time": 44.090865,
          "velocity": 0.7007874015748031
        },
        {
          "duration": 0.454544999999996,
          "durationTicks": 960,
          "midi": 35,
          "name": "B1",
          "ticks": 94080,
          "time": 44.545410000000004,
          "velocity": 0.7007874015748031
        },
        {
          "duration": 0.4545450000000031,
          "durationTicks": 960,
          "midi": 35,
          "name": "B1",
          "ticks": 96000,
          "time": 45.4545,
          "velocity": 0.7007874015748031
        },
        {
          "duration": 0.454544999999996,
          "durationTicks": 960,
          "midi": 35,
          "name": "B1",
          "ticks": 96960,
          "time": 45.909045000000006,
          "velocity": 0.7007874015748031
        },
        {
          "duration": 0.4545450000000031,
          "durationTicks": 960,
          "midi": 35,
          "name": "B1",
          "ticks": 97920,
          "time": 46.36359,
          "velocity": 0.7007874015748031
        },
        {
          "duration": 0.4545450000000031,
          "durationTicks": 960,
          "midi": 35,
          "name": "B1",
          "ticks": 99840,
          "time": 47.27268,
          "velocity": 0.7007874015748031
        },
        {
          "duration": 0.454544999999996,
          "durationTicks": 960,
          "midi": 35,
          "name": "B1",
          "ticks": 100800,
          "time": 47.727225000000004,
          "velocity": 0.7007874015748031
        },
        {
          "duration": 0.4545450000000031,
          "durationTicks": 960,
          "midi": 35,
          "name": "B1",
          "ticks": 101760,
          "time": 48.18177,
          "velocity": 0.7007874015748031
        },
        {
          "duration": 0.454544999999996,
          "durationTicks": 960,
          "midi": 35,
          "name": "B1",
          "ticks": 103680,
          "time": 49.090860000000006,
          "velocity": 0.7007874015748031
        },
        {
          "duration": 0.4545450000000031,
          "durationTicks": 960,
          "midi": 35,
          "name": "B1",
          "ticks": 104640,
          "time": 49.545405,
          "velocity": 0.7007874015748031
        },
        {
          "duration": 0.454544999999996,
          "durationTicks": 960,
          "midi": 35,
          "name": "B1",
          "ticks": 105600,
          "time": 49.999950000000005,
          "velocity": 0.7007874015748031
        },
        {
          "duration": 0.4545450000000031,
          "durationTicks": 960,
          "midi": 35,
          "name": "B1",
          "ticks": 106560,
          "time": 50.454495,
          "velocity": 0.7007874015748031
        },
        {
          "duration": 0.454544999999996,
          "durationTicks": 960,
          "midi": 35,
          "name": "B1",
          "ticks": 107520,
          "time": 50.909040000000005,
          "velocity": 0.7007874015748031
        },
        {
          "duration": 0.4545450000000031,
          "durationTicks": 960,
          "midi": 35,
          "name": "B1",
          "ticks": 108480,
          "time": 51.363585,
          "velocity": 0.7007874015748031
        },
        {
          "duration": 0.4545450000000031,
          "durationTicks": 960,
          "midi": 35,
          "name": "B1",
          "ticks": 109440,
          "time": 51.818130000000004,
          "velocity": 0.7007874015748031
        },
        {
          "duration": 0.4545450000000031,
          "durationTicks": 960,
          "midi": 35,
          "name": "B1",
          "ticks": 111360,
          "time": 52.72722,
          "velocity": 0.7007874015748031
        },
        {
          "duration": 0.454544999999996,
          "durationTicks": 960,
          "midi": 35,
          "name": "B1",
          "ticks": 112320,
          "time": 53.181765000000006,
          "velocity": 0.7007874015748031
        },
        {
          "duration": 0.4545450000000031,
          "durationTicks": 960,
          "midi": 35,
          "name": "B1",
          "ticks": 113280,
          "time": 53.63631,
          "velocity": 0.7007874015748031
        },
        {
          "duration": 0.454544999999996,
          "durationTicks": 960,
          "midi": 35,
          "name": "B1",
          "ticks": 114240,
          "time": 54.090855000000005,
          "velocity": 0.7007874015748031
        },
        {
          "duration": 0.4545450000000031,
          "durationTicks": 960,
          "midi": 35,
          "name": "B1",
          "ticks": 115200,
          "time": 54.5454,
          "velocity": 0.7007874015748031
        },
        {
          "duration": 0.4545450000000031,
          "durationTicks": 960,
          "midi": 35,
          "name": "B1",
          "ticks": 116160,
          "time": 54.999945000000004,
          "velocity": 0.7007874015748031
        },
        {
          "duration": 0.454544999999996,
          "durationTicks": 960,
          "midi": 35,
          "name": "B1",
          "ticks": 117120,
          "time": 55.45449000000001,
          "velocity": 0.7007874015748031
        },
        {
          "duration": 0.4545450000000031,
          "durationTicks": 960,
          "midi": 35,
          "name": "B1",
          "ticks": 118080,
          "time": 55.909035,
          "velocity": 0.7007874015748031
        },
        {
          "duration": 0.454544999999996,
          "durationTicks": 960,
          "midi": 35,
          "name": "B1",
          "ticks": 119040,
          "time": 56.363580000000006,
          "velocity": 0.7007874015748031
        },
        {
          "duration": 0.4545450000000031,
          "durationTicks": 960,
          "midi": 35,
          "name": "B1",
          "ticks": 120000,
          "time": 56.818125,
          "velocity": 0.7007874015748031
        },
        {
          "duration": 0.454544999999996,
          "durationTicks": 960,
          "midi": 35,
          "name": "B1",
          "ticks": 120960,
          "time": 57.272670000000005,
          "velocity": 0.7007874015748031
        },
        {
          "duration": 0.4545450000000031,
          "durationTicks": 960,
          "midi": 35,
          "name": "B1",
          "ticks": 121920,
          "time": 57.727215,
          "velocity": 0.7007874015748031
        },
        {
          "duration": 0.4545450000000031,
          "durationTicks": 960,
          "midi": 35,
          "name": "B1",
          "ticks": 122880,
          "time": 58.181760000000004,
          "velocity": 0.7007874015748031
        },
        {
          "duration": 0.454544999999996,
          "durationTicks": 960,
          "midi": 35,
          "name": "B1",
          "ticks": 123840,
          "time": 58.63630500000001,
          "velocity": 0.7007874015748031
        },
        {
          "duration": 0.4545450000000031,
          "durationTicks": 960,
          "midi": 35,
          "name": "B1",
          "ticks": 124800,
          "time": 59.09085,
          "velocity": 0.7007874015748031
        },
        {
          "duration": 0.454544999999996,
          "durationTicks": 960,
          "midi": 35,
          "name": "B1",
          "ticks": 125760,
          "time": 59.545395000000006,
          "velocity": 0.7007874015748031
        },
        {
          "duration": 0.4545450000000031,
          "durationTicks": 960,
          "midi": 35,
          "name": "B1",
          "ticks": 126720,
          "time": 59.99994,
          "velocity": 0.7007874015748031
        },
        {
          "duration": 0.454544999999996,
          "durationTicks": 960,
          "midi": 35,
          "name": "B1",
          "ticks": 127680,
          "time": 60.454485000000005,
          "velocity": 0.7007874015748031
        },
        {
          "duration": 0.4545450000000031,
          "durationTicks": 960,
          "midi": 35,
          "name": "B1",
          "ticks": 128640,
          "time": 60.90903,
          "velocity": 0.7007874015748031
        },
        {
          "duration": 0.4545450000000031,
          "durationTicks": 960,
          "midi": 35,
          "name": "B1",
          "ticks": 129600,
          "time": 61.363575000000004,
          "velocity": 0.7007874015748031
        },
        {
          "duration": 0.454544999999996,
          "durationTicks": 960,
          "midi": 35,
          "name": "B1",
          "ticks": 130560,
          "time": 61.81812000000001,
          "velocity": 0.7007874015748031
        },
        {
          "duration": 0.4545450000000031,
          "durationTicks": 960,
          "midi": 35,
          "name": "B1",
          "ticks": 131520,
          "time": 62.272665,
          "velocity": 0.7007874015748031
        },
        {
          "duration": 0.454544999999996,
          "durationTicks": 960,
          "midi": 35,
          "name": "B1",
          "ticks": 132480,
          "time": 62.72721000000001,
          "velocity": 0.7007874015748031
        },
        {
          "duration": 0.4545450000000031,
          "durationTicks": 960,
          "midi": 35,
          "name": "B1",
          "ticks": 133440,
          "time": 63.181755,
          "velocity": 0.7007874015748031
        },
        {
          "duration": 0.454544999999996,
          "durationTicks": 960,
          "midi": 35,
          "name": "B1",
          "ticks": 134400,
          "time": 63.636300000000006,
          "velocity": 0.7007874015748031
        },
        {
          "duration": 0.454544999999996,
          "durationTicks": 960,
          "midi": 35,
          "name": "B1",
          "ticks": 135360,
          "time": 64.090845,
          "velocity": 0.7007874015748031
        },
        {
          "duration": 0.4545450000000102,
          "durationTicks": 960,
          "midi": 35,
          "name": "B1",
          "ticks": 136320,
          "time": 64.54539,
          "velocity": 0.7007874015748031
        },
        {
          "duration": 0.454544999999996,
          "durationTicks": 960,
          "midi": 35,
          "name": "B1",
          "ticks": 137280,
          "time": 64.99993500000001,
          "velocity": 0.7007874015748031
        },
        {
          "duration": 0.454544999999996,
          "durationTicks": 960,
          "midi": 35,
          "name": "B1",
          "ticks": 138240,
          "time": 65.45448,
          "velocity": 0.7007874015748031
        },
        {
          "duration": 0.4545450000000102,
          "durationTicks": 960,
          "midi": 35,
          "name": "B1",
          "ticks": 139200,
          "time": 65.909025,
          "velocity": 0.7007874015748031
        },
        {
          "duration": 0.454544999999996,
          "durationTicks": 960,
          "midi": 35,
          "name": "B1",
          "ticks": 140160,
          "time": 66.36357000000001,
          "velocity": 0.7007874015748031
        },
        {
          "duration": 0.454544999999996,
          "durationTicks": 960,
          "midi": 35,
          "name": "B1",
          "ticks": 141120,
          "time": 66.818115,
          "velocity": 0.7007874015748031
        },
        {
          "duration": 0.4545450000000102,
          "durationTicks": 960,
          "midi": 35,
          "name": "B1",
          "ticks": 203520,
          "time": 96.36354,
          "velocity": 0.7007874015748031
        },
        {
          "duration": 0.454544999999996,
          "durationTicks": 960,
          "midi": 35,
          "name": "B1",
          "ticks": 204480,
          "time": 96.81808500000001,
          "velocity": 0.7007874015748031
        },
        {
          "duration": 0.454544999999996,
          "durationTicks": 960,
          "midi": 35,
          "name": "B1",
          "ticks": 205440,
          "time": 97.27263,
          "velocity": 0.7007874015748031
        },
        {
          "duration": 0.4545450000000102,
          "durationTicks": 960,
          "midi": 35,
          "name": "B1",
          "ticks": 206400,
          "time": 97.727175,
          "velocity": 0.7007874015748031
        },
        {
          "duration": 0.454544999999996,
          "durationTicks": 960,
          "midi": 35,
          "name": "B1",
          "ticks": 207360,
          "time": 98.18172000000001,
          "velocity": 0.7007874015748031
        },
        {
          "duration": 0.454544999999996,
          "durationTicks": 960,
          "midi": 35,
          "name": "B1",
          "ticks": 208320,
          "time": 98.63626500000001,
          "velocity": 0.7007874015748031
        },
        {
          "duration": 0.454544999999996,
          "durationTicks": 960,
          "midi": 35,
          "name": "B1",
          "ticks": 209280,
          "time": 99.09081,
          "velocity": 0.7007874015748031
        },
        {
          "duration": 0.4545450000000102,
          "durationTicks": 960,
          "midi": 35,
          "name": "B1",
          "ticks": 210240,
          "time": 99.545355,
          "velocity": 0.7007874015748031
        },
        {
          "duration": 0.454544999999996,
          "durationTicks": 960,
          "midi": 35,
          "name": "B1",
          "ticks": 211200,
          "time": 99.99990000000001,
          "velocity": 0.7007874015748031
        },
        {
          "duration": 0.454544999999996,
          "durationTicks": 960,
          "midi": 35,
          "name": "B1",
          "ticks": 212160,
          "time": 100.454445,
          "velocity": 0.7007874015748031
        },
        {
          "duration": 0.4545450000000102,
          "durationTicks": 960,
          "midi": 35,
          "name": "B1",
          "ticks": 213120,
          "time": 100.90899,
          "velocity": 0.7007874015748031
        },
        {
          "duration": 0.454544999999996,
          "durationTicks": 960,
          "midi": 35,
          "name": "B1",
          "ticks": 214080,
          "time": 101.36353500000001,
          "velocity": 0.7007874015748031
        },
        {
          "duration": 0.454544999999996,
          "durationTicks": 960,
          "midi": 35,
          "name": "B1",
          "ticks": 215040,
          "time": 101.81808000000001,
          "velocity": 0.7007874015748031
        },
        {
          "duration": 0.454544999999996,
          "durationTicks": 960,
          "midi": 35,
          "name": "B1",
          "ticks": 216000,
          "time": 102.272625,
          "velocity": 0.7007874015748031
        },
        {
          "duration": 0.4545450000000102,
          "durationTicks": 960,
          "midi": 35,
          "name": "B1",
          "ticks": 216960,
          "time": 102.72717,
          "velocity": 0.7007874015748031
        },
        {
          "duration": 0.454544999999996,
          "durationTicks": 960,
          "midi": 35,
          "name": "B1",
          "ticks": 217920,
          "time": 103.18171500000001,
          "velocity": 0.7007874015748031
        },
        {
          "duration": 0.454544999999996,
          "durationTicks": 960,
          "midi": 35,
          "name": "B1",
          "ticks": 218880,
          "time": 103.63626000000001,
          "velocity": 0.7007874015748031
        },
        {
          "duration": 0.4545450000000102,
          "durationTicks": 960,
          "midi": 35,
          "name": "B1",
          "ticks": 219840,
          "time": 104.090805,
          "velocity": 0.7007874015748031
        },
        {
          "duration": 0.454544999999996,
          "durationTicks": 960,
          "midi": 35,
          "name": "B1",
          "ticks": 220800,
          "time": 104.54535000000001,
          "velocity": 0.7007874015748031
        },
        {
          "duration": 0.454544999999996,
          "durationTicks": 960,
          "midi": 35,
          "name": "B1",
          "ticks": 221760,
          "time": 104.99989500000001,
          "velocity": 0.7007874015748031
        },
        {
          "duration": 0.454544999999996,
          "durationTicks": 960,
          "midi": 35,
          "name": "B1",
          "ticks": 222720,
          "time": 105.45444,
          "velocity": 0.7007874015748031
        },
        {
          "duration": 0.4545450000000102,
          "durationTicks": 960,
          "midi": 35,
          "name": "B1",
          "ticks": 223680,
          "time": 105.908985,
          "velocity": 0.7007874015748031
        },
        {
          "duration": 0.454544999999996,
          "durationTicks": 960,
          "midi": 35,
          "name": "B1",
          "ticks": 224640,
          "time": 106.36353000000001,
          "velocity": 0.7007874015748031
        },
        {
          "duration": 0.454544999999996,
          "durationTicks": 960,
          "midi": 35,
          "name": "B1",
          "ticks": 225600,
          "time": 106.81807500000001,
          "velocity": 0.7007874015748031
        },
        {
          "duration": 0.4545450000000102,
          "durationTicks": 960,
          "midi": 35,
          "name": "B1",
          "ticks": 226560,
          "time": 107.27262,
          "velocity": 0.7007874015748031
        },
        {
          "duration": 0.454544999999996,
          "durationTicks": 960,
          "midi": 35,
          "name": "B1",
          "ticks": 227520,
          "time": 107.72716500000001,
          "velocity": 0.7007874015748031
        },
        {
          "duration": 0.454544999999996,
          "durationTicks": 960,
          "midi": 35,
          "name": "B1",
          "ticks": 228480,
          "time": 108.18171000000001,
          "velocity": 0.7007874015748031
        },
        {
          "duration": 0.454544999999996,
          "durationTicks": 960,
          "midi": 35,
          "name": "B1",
          "ticks": 229440,
          "time": 108.636255,
          "velocity": 0.7007874015748031
        },
        {
          "duration": 0.4545450000000102,
          "durationTicks": 960,
          "midi": 35,
          "name": "B1",
          "ticks": 230400,
          "time": 109.0908,
          "velocity": 0.7007874015748031
        },
        {
          "duration": 0.454544999999996,
          "durationTicks": 960,
          "midi": 35,
          "name": "B1",
          "ticks": 231360,
          "time": 109.54534500000001,
          "velocity": 0.7007874015748031
        },
        {
          "duration": 0.454544999999996,
          "durationTicks": 960,
          "midi": 35,
          "name": "B1",
          "ticks": 232320,
          "time": 109.99989000000001,
          "velocity": 0.7007874015748031
        },
        {
          "duration": 0.4545450000000102,
          "durationTicks": 960,
          "midi": 35,
          "name": "B1",
          "ticks": 233280,
          "time": 110.454435,
          "velocity": 0.7007874015748031
        },
        {
          "duration": 0.454544999999996,
          "durationTicks": 960,
          "midi": 35,
          "name": "B1",
          "ticks": 234240,
          "time": 110.90898000000001,
          "velocity": 0.7007874015748031
        },
        {
          "duration": 0.454544999999996,
          "durationTicks": 960,
          "midi": 35,
          "name": "B1",
          "ticks": 235200,
          "time": 111.36352500000001,
          "velocity": 0.7007874015748031
        },
        {
          "duration": 0.454544999999996,
          "durationTicks": 960,
          "midi": 35,
          "name": "B1",
          "ticks": 236160,
          "time": 111.81807,
          "velocity": 0.7007874015748031
        },
        {
          "duration": 0.4545450000000102,
          "durationTicks": 960,
          "midi": 35,
          "name": "B1",
          "ticks": 237120,
          "time": 112.272615,
          "velocity": 0.7007874015748031
        },
        {
          "duration": 0.454544999999996,
          "durationTicks": 960,
          "midi": 35,
          "name": "B1",
          "ticks": 238080,
          "time": 112.72716000000001,
          "velocity": 0.7007874015748031
        },
        {
          "duration": 0.454544999999996,
          "durationTicks": 960,
          "midi": 35,
          "name": "B1",
          "ticks": 239040,
          "time": 113.18170500000001,
          "velocity": 0.7007874015748031
        },
        {
          "duration": 0.4545450000000102,
          "durationTicks": 960,
          "midi": 35,
          "name": "B1",
          "ticks": 240000,
          "time": 113.63625,
          "velocity": 0.7007874015748031
        },
        {
          "duration": 0.454544999999996,
          "durationTicks": 960,
          "midi": 35,
          "name": "B1",
          "ticks": 240960,
          "time": 114.09079500000001,
          "velocity": 0.7007874015748031
        },
        {
          "duration": 0.454544999999996,
          "durationTicks": 960,
          "midi": 35,
          "name": "B1",
          "ticks": 241920,
          "time": 114.54534000000001,
          "velocity": 0.7007874015748031
        },
        {
          "duration": 0.454544999999996,
          "durationTicks": 960,
          "midi": 35,
          "name": "B1",
          "ticks": 242880,
          "time": 114.999885,
          "velocity": 0.7007874015748031
        },
        {
          "duration": 0.4545450000000102,
          "durationTicks": 960,
          "midi": 35,
          "name": "B1",
          "ticks": 243840,
          "time": 115.45443,
          "velocity": 0.7007874015748031
        },
        {
          "duration": 0.454544999999996,
          "durationTicks": 960,
          "midi": 35,
          "name": "B1",
          "ticks": 244800,
          "time": 115.90897500000001,
          "velocity": 0.7007874015748031
        },
        {
          "duration": 0.454544999999996,
          "durationTicks": 960,
          "midi": 35,
          "name": "B1",
          "ticks": 245760,
          "time": 116.36352000000001,
          "velocity": 0.7007874015748031
        },
        {
          "duration": 0.4545450000000102,
          "durationTicks": 960,
          "midi": 35,
          "name": "B1",
          "ticks": 246720,
          "time": 116.818065,
          "velocity": 0.7007874015748031
        },
        {
          "duration": 0.454544999999996,
          "durationTicks": 960,
          "midi": 35,
          "name": "B1",
          "ticks": 247680,
          "time": 117.27261000000001,
          "velocity": 0.7007874015748031
        },
        {
          "duration": 0.454544999999996,
          "durationTicks": 960,
          "midi": 35,
          "name": "B1",
          "ticks": 248640,
          "time": 117.72715500000001,
          "velocity": 0.7007874015748031
        },
        {
          "duration": 0.454544999999996,
          "durationTicks": 960,
          "midi": 35,
          "name": "B1",
          "ticks": 249600,
          "time": 118.1817,
          "velocity": 0.7007874015748031
        },
        {
          "duration": 0.4545450000000102,
          "durationTicks": 960,
          "midi": 35,
          "name": "B1",
          "ticks": 250560,
          "time": 118.636245,
          "velocity": 0.7007874015748031
        },
        {
          "duration": 0.454544999999996,
          "durationTicks": 960,
          "midi": 35,
          "name": "B1",
          "ticks": 251520,
          "time": 119.09079000000001,
          "velocity": 0.7007874015748031
        },
        {
          "duration": 0.4545450000000102,
          "durationTicks": 960,
          "midi": 35,
          "name": "B1",
          "ticks": 253440,
          "time": 119.99988,
          "velocity": 0.7007874015748031
        },
        {
          "duration": 0.454544999999996,
          "durationTicks": 960,
          "midi": 35,
          "name": "B1",
          "ticks": 254400,
          "time": 120.45442500000001,
          "velocity": 0.7007874015748031
        },
        {
          "duration": 0.454544999999996,
          "durationTicks": 960,
          "midi": 35,
          "name": "B1",
          "ticks": 255360,
          "time": 120.90897000000001,
          "velocity": 0.7007874015748031
        },
        {
          "duration": 0.4545450000000102,
          "durationTicks": 960,
          "midi": 35,
          "name": "B1",
          "ticks": 257280,
          "time": 121.81806,
          "velocity": 0.7007874015748031
        },
        {
          "duration": 0.454544999999996,
          "durationTicks": 960,
          "midi": 35,
          "name": "B1",
          "ticks": 258240,
          "time": 122.27260500000001,
          "velocity": 0.7007874015748031
        },
        {
          "duration": 0.454544999999996,
          "durationTicks": 960,
          "midi": 35,
          "name": "B1",
          "ticks": 259200,
          "time": 122.72715000000001,
          "velocity": 0.7007874015748031
        },
        {
          "duration": 0.454544999999996,
          "durationTicks": 960,
          "midi": 35,
          "name": "B1",
          "ticks": 261120,
          "time": 123.63624000000002,
          "velocity": 0.7007874015748031
        },
        {
          "duration": 0.454544999999996,
          "durationTicks": 960,
          "midi": 35,
          "name": "B1",
          "ticks": 262080,
          "time": 124.09078500000001,
          "velocity": 0.7007874015748031
        },
        {
          "duration": 0.454544999999996,
          "durationTicks": 960,
          "midi": 35,
          "name": "B1",
          "ticks": 263040,
          "time": 124.54533,
          "velocity": 0.7007874015748031
        },
        {
          "duration": 0.4545450000000102,
          "durationTicks": 960,
          "midi": 35,
          "name": "B1",
          "ticks": 264000,
          "time": 124.999875,
          "velocity": 0.7007874015748031
        },
        {
          "duration": 0.454544999999996,
          "durationTicks": 960,
          "midi": 35,
          "name": "B1",
          "ticks": 264960,
          "time": 125.45442000000001,
          "velocity": 0.7007874015748031
        },
        {
          "duration": 0.454544999999996,
          "durationTicks": 960,
          "midi": 35,
          "name": "B1",
          "ticks": 265920,
          "time": 125.90896500000001,
          "velocity": 0.7007874015748031
        },
        {
          "duration": 0.4545450000000102,
          "durationTicks": 960,
          "midi": 35,
          "name": "B1",
          "ticks": 266880,
          "time": 126.36351,
          "velocity": 0.7007874015748031
        },
        {
          "duration": 0.454544999999996,
          "durationTicks": 960,
          "midi": 35,
          "name": "B1",
          "ticks": 267840,
          "time": 126.81805500000002,
          "velocity": 0.7007874015748031
        },
        {
          "duration": 0.454544999999996,
          "durationTicks": 960,
          "midi": 35,
          "name": "B1",
          "ticks": 268800,
          "time": 127.27260000000001,
          "velocity": 0.7007874015748031
        },
        {
          "duration": 0.454544999999996,
          "durationTicks": 960,
          "midi": 35,
          "name": "B1",
          "ticks": 269760,
          "time": 127.72714500000001,
          "velocity": 0.7007874015748031
        },
        {
          "duration": 0.454544999999996,
          "durationTicks": 960,
          "midi": 35,
          "name": "B1",
          "ticks": 270720,
          "time": 128.18169,
          "velocity": 0.7007874015748031
        },
        {
          "duration": 0.454544999999996,
          "durationTicks": 960,
          "midi": 35,
          "name": "B1",
          "ticks": 271680,
          "time": 128.636235,
          "velocity": 0.7007874015748031
        },
        {
          "duration": 0.4545450000000244,
          "durationTicks": 960,
          "midi": 35,
          "name": "B1",
          "ticks": 272640,
          "time": 129.09078,
          "velocity": 0.7007874015748031
        },
        {
          "duration": 0.454544999999996,
          "durationTicks": 960,
          "midi": 35,
          "name": "B1",
          "ticks": 273600,
          "time": 129.54532500000002,
          "velocity": 0.7007874015748031
        },
        {
          "duration": 0.454544999999996,
          "durationTicks": 960,
          "midi": 35,
          "name": "B1",
          "ticks": 274560,
          "time": 129.99987000000002,
          "velocity": 0.7007874015748031
        },
        {
          "duration": 0.454544999999996,
          "durationTicks": 960,
          "midi": 35,
          "name": "B1",
          "ticks": 275520,
          "time": 130.454415,
          "velocity": 0.7007874015748031
        },
        {
          "duration": 0.454544999999996,
          "durationTicks": 960,
          "midi": 35,
          "name": "B1",
          "ticks": 276480,
          "time": 130.90896,
          "velocity": 0.7007874015748031
        },
        {
          "duration": 0.454544999999996,
          "durationTicks": 960,
          "midi": 35,
          "name": "B1",
          "ticks": 277440,
          "time": 131.363505,
          "velocity": 0.7007874015748031
        },
        {
          "duration": 0.454544999999996,
          "durationTicks": 960,
          "midi": 35,
          "name": "B1",
          "ticks": 278400,
          "time": 131.81805,
          "velocity": 0.7007874015748031
        },
        {
          "duration": 0.4545450000000244,
          "durationTicks": 960,
          "midi": 35,
          "name": "B1",
          "ticks": 279360,
          "time": 132.272595,
          "velocity": 0.7007874015748031
        },
        {
          "duration": 0.454544999999996,
          "durationTicks": 960,
          "midi": 35,
          "name": "B1",
          "ticks": 280320,
          "time": 132.72714000000002,
          "velocity": 0.7007874015748031
        },
        {
          "duration": 0.454544999999996,
          "durationTicks": 960,
          "midi": 35,
          "name": "B1",
          "ticks": 281280,
          "time": 133.18168500000002,
          "velocity": 0.7007874015748031
        },
        {
          "duration": 0.454544999999996,
          "durationTicks": 960,
          "midi": 35,
          "name": "B1",
          "ticks": 282240,
          "time": 133.63623,
          "velocity": 0.7007874015748031
        },
        {
          "duration": 0.454544999999996,
          "durationTicks": 960,
          "midi": 35,
          "name": "B1",
          "ticks": 283200,
          "time": 134.090775,
          "velocity": 0.7007874015748031
        },
        {
          "duration": 0.454544999999996,
          "durationTicks": 960,
          "midi": 35,
          "name": "B1",
          "ticks": 284160,
          "time": 134.54532,
          "velocity": 0.7007874015748031
        },
        {
          "duration": 0.454544999999996,
          "durationTicks": 960,
          "midi": 35,
          "name": "B1",
          "ticks": 285120,
          "time": 134.999865,
          "velocity": 0.7007874015748031
        },
        {
          "duration": 0.4545450000000244,
          "durationTicks": 960,
          "midi": 35,
          "name": "B1",
          "ticks": 286080,
          "time": 135.45441,
          "velocity": 0.7007874015748031
        },
        {
          "duration": 0.454544999999996,
          "durationTicks": 960,
          "midi": 35,
          "name": "B1",
          "ticks": 287040,
          "time": 135.90895500000002,
          "velocity": 0.7007874015748031
        },
        {
          "duration": 0.454544999999996,
          "durationTicks": 960,
          "midi": 35,
          "name": "B1",
          "ticks": 288000,
          "time": 136.36350000000002,
          "velocity": 0.7007874015748031
        },
        {
          "duration": 0.454544999999996,
          "durationTicks": 960,
          "midi": 35,
          "name": "B1",
          "ticks": 288960,
          "time": 136.818045,
          "velocity": 0.7007874015748031
        },
        {
          "duration": 0.454544999999996,
          "durationTicks": 960,
          "midi": 35,
          "name": "B1",
          "ticks": 289920,
          "time": 137.27259,
          "velocity": 0.7007874015748031
        },
        {
          "duration": 0.454544999999996,
          "durationTicks": 960,
          "midi": 35,
          "name": "B1",
          "ticks": 290880,
          "time": 137.727135,
          "velocity": 0.7007874015748031
        },
        {
          "duration": 0.454544999999996,
          "durationTicks": 960,
          "midi": 35,
          "name": "B1",
          "ticks": 291840,
          "time": 138.18168,
          "velocity": 0.7007874015748031
        },
        {
          "duration": 0.4545450000000244,
          "durationTicks": 960,
          "midi": 35,
          "name": "B1",
          "ticks": 292800,
          "time": 138.636225,
          "velocity": 0.7007874015748031
        },
        {
          "duration": 0.454544999999996,
          "durationTicks": 960,
          "midi": 35,
          "name": "B1",
          "ticks": 293760,
          "time": 139.09077000000002,
          "velocity": 0.7007874015748031
        },
        {
          "duration": 0.454544999999996,
          "durationTicks": 960,
          "midi": 35,
          "name": "B1",
          "ticks": 294720,
          "time": 139.54531500000002,
          "velocity": 0.7007874015748031
        },
        {
          "duration": 0.454544999999996,
          "durationTicks": 960,
          "midi": 35,
          "name": "B1",
          "ticks": 357120,
          "time": 169.09074,
          "velocity": 0.7007874015748031
        },
        {
          "duration": 0.454544999999996,
          "durationTicks": 960,
          "midi": 35,
          "name": "B1",
          "ticks": 358080,
          "time": 169.545285,
          "velocity": 0.7007874015748031
        },
        {
          "duration": 0.454544999999996,
          "durationTicks": 960,
          "midi": 35,
          "name": "B1",
          "ticks": 359040,
          "time": 169.99983,
          "velocity": 0.7007874015748031
        },
        {
          "duration": 0.4545450000000244,
          "durationTicks": 960,
          "midi": 35,
          "name": "B1",
          "ticks": 360000,
          "time": 170.454375,
          "velocity": 0.7007874015748031
        },
        {
          "duration": 0.454544999999996,
          "durationTicks": 960,
          "midi": 35,
          "name": "B1",
          "ticks": 360960,
          "time": 170.90892000000002,
          "velocity": 0.7007874015748031
        },
        {
          "duration": 0.454544999999996,
          "durationTicks": 960,
          "midi": 35,
          "name": "B1",
          "ticks": 361920,
          "time": 171.36346500000002,
          "velocity": 0.7007874015748031
        },
        {
          "duration": 0.454544999999996,
          "durationTicks": 960,
          "midi": 35,
          "name": "B1",
          "ticks": 362880,
          "time": 171.81801000000002,
          "velocity": 0.7007874015748031
        },
        {
          "duration": 0.454544999999996,
          "durationTicks": 960,
          "midi": 35,
          "name": "B1",
          "ticks": 363840,
          "time": 172.272555,
          "velocity": 0.7007874015748031
        },
        {
          "duration": 0.454544999999996,
          "durationTicks": 960,
          "midi": 35,
          "name": "B1",
          "ticks": 364800,
          "time": 172.7271,
          "velocity": 0.7007874015748031
        },
        {
          "duration": 0.454544999999996,
          "durationTicks": 960,
          "midi": 35,
          "name": "B1",
          "ticks": 365760,
          "time": 173.181645,
          "velocity": 0.7007874015748031
        },
        {
          "duration": 0.4545450000000244,
          "durationTicks": 960,
          "midi": 35,
          "name": "B1",
          "ticks": 366720,
          "time": 173.63619,
          "velocity": 0.7007874015748031
        },
        {
          "duration": 0.454544999999996,
          "durationTicks": 960,
          "midi": 35,
          "name": "B1",
          "ticks": 367680,
          "time": 174.09073500000002,
          "velocity": 0.7007874015748031
        },
        {
          "duration": 0.454544999999996,
          "durationTicks": 960,
          "midi": 35,
          "name": "B1",
          "ticks": 368640,
          "time": 174.54528000000002,
          "velocity": 0.7007874015748031
        },
        {
          "duration": 0.454544999999996,
          "durationTicks": 960,
          "midi": 35,
          "name": "B1",
          "ticks": 369600,
          "time": 174.99982500000002,
          "velocity": 0.7007874015748031
        },
        {
          "duration": 0.454544999999996,
          "durationTicks": 960,
          "midi": 35,
          "name": "B1",
          "ticks": 370560,
          "time": 175.45437,
          "velocity": 0.7007874015748031
        },
        {
          "duration": 0.454544999999996,
          "durationTicks": 960,
          "midi": 35,
          "name": "B1",
          "ticks": 371520,
          "time": 175.908915,
          "velocity": 0.7007874015748031
        },
        {
          "duration": 0.454544999999996,
          "durationTicks": 960,
          "midi": 35,
          "name": "B1",
          "ticks": 372480,
          "time": 176.36346,
          "velocity": 0.7007874015748031
        },
        {
          "duration": 0.4545450000000244,
          "durationTicks": 960,
          "midi": 35,
          "name": "B1",
          "ticks": 373440,
          "time": 176.818005,
          "velocity": 0.7007874015748031
        },
        {
          "duration": 0.454544999999996,
          "durationTicks": 960,
          "midi": 35,
          "name": "B1",
          "ticks": 374400,
          "time": 177.27255000000002,
          "velocity": 0.7007874015748031
        },
        {
          "duration": 0.454544999999996,
          "durationTicks": 960,
          "midi": 35,
          "name": "B1",
          "ticks": 375360,
          "time": 177.72709500000002,
          "velocity": 0.7007874015748031
        },
        {
          "duration": 0.454544999999996,
          "durationTicks": 960,
          "midi": 35,
          "name": "B1",
          "ticks": 376320,
          "time": 178.18164000000002,
          "velocity": 0.7007874015748031
        },
        {
          "duration": 0.454544999999996,
          "durationTicks": 960,
          "midi": 35,
          "name": "B1",
          "ticks": 377280,
          "time": 178.636185,
          "velocity": 0.7007874015748031
        },
        {
          "duration": 0.454544999999996,
          "durationTicks": 960,
          "midi": 35,
          "name": "B1",
          "ticks": 378240,
          "time": 179.09073,
          "velocity": 0.7007874015748031
        },
        {
          "duration": 0.454544999999996,
          "durationTicks": 960,
          "midi": 35,
          "name": "B1",
          "ticks": 379200,
          "time": 179.545275,
          "velocity": 0.7007874015748031
        },
        {
          "duration": 0.4545450000000244,
          "durationTicks": 960,
          "midi": 35,
          "name": "B1",
          "ticks": 380160,
          "time": 179.99982,
          "velocity": 0.7007874015748031
        },
        {
          "duration": 0.454544999999996,
          "durationTicks": 960,
          "midi": 35,
          "name": "B1",
          "ticks": 381120,
          "time": 180.45436500000002,
          "velocity": 0.7007874015748031
        },
        {
          "duration": 0.454544999999996,
          "durationTicks": 960,
          "midi": 35,
          "name": "B1",
          "ticks": 382080,
          "time": 180.90891000000002,
          "velocity": 0.7007874015748031
        },
        {
          "duration": 0.454544999999996,
          "durationTicks": 960,
          "midi": 35,
          "name": "B1",
          "ticks": 383040,
          "time": 181.36345500000002,
          "velocity": 0.7007874015748031
        },
        {
          "duration": 0.454544999999996,
          "durationTicks": 960,
          "midi": 35,
          "name": "B1",
          "ticks": 384000,
          "time": 181.818,
          "velocity": 0.7007874015748031
        },
        {
          "duration": 0.454544999999996,
          "durationTicks": 960,
          "midi": 35,
          "name": "B1",
          "ticks": 384960,
          "time": 182.272545,
          "velocity": 0.7007874015748031
        },
        {
          "duration": 0.454544999999996,
          "durationTicks": 960,
          "midi": 35,
          "name": "B1",
          "ticks": 385920,
          "time": 182.72709,
          "velocity": 0.7007874015748031
        },
        {
          "duration": 0.4545450000000244,
          "durationTicks": 960,
          "midi": 35,
          "name": "B1",
          "ticks": 386880,
          "time": 183.181635,
          "velocity": 0.7007874015748031
        },
        {
          "duration": 0.454544999999996,
          "durationTicks": 960,
          "midi": 35,
          "name": "B1",
          "ticks": 387840,
          "time": 183.63618000000002,
          "velocity": 0.7007874015748031
        },
        {
          "duration": 0.454544999999996,
          "durationTicks": 960,
          "midi": 35,
          "name": "B1",
          "ticks": 388800,
          "time": 184.09072500000002,
          "velocity": 0.7007874015748031
        },
        {
          "duration": 0.454544999999996,
          "durationTicks": 960,
          "midi": 35,
          "name": "B1",
          "ticks": 389760,
          "time": 184.54527000000002,
          "velocity": 0.7007874015748031
        },
        {
          "duration": 0.454544999999996,
          "durationTicks": 960,
          "midi": 35,
          "name": "B1",
          "ticks": 390720,
          "time": 184.999815,
          "velocity": 0.7007874015748031
        },
        {
          "duration": 0.454544999999996,
          "durationTicks": 960,
          "midi": 35,
          "name": "B1",
          "ticks": 391680,
          "time": 185.45436,
          "velocity": 0.7007874015748031
        },
        {
          "duration": 0.454544999999996,
          "durationTicks": 960,
          "midi": 35,
          "name": "B1",
          "ticks": 392640,
          "time": 185.908905,
          "velocity": 0.7007874015748031
        },
        {
          "duration": 0.4545450000000244,
          "durationTicks": 960,
          "midi": 35,
          "name": "B1",
          "ticks": 393600,
          "time": 186.36345,
          "velocity": 0.7007874015748031
        },
        {
          "duration": 0.454544999999996,
          "durationTicks": 960,
          "midi": 35,
          "name": "B1",
          "ticks": 394560,
          "time": 186.81799500000002,
          "velocity": 0.7007874015748031
        },
        {
          "duration": 0.454544999999996,
          "durationTicks": 960,
          "midi": 35,
          "name": "B1",
          "ticks": 395520,
          "time": 187.27254000000002,
          "velocity": 0.7007874015748031
        },
        {
          "duration": 0.454544999999996,
          "durationTicks": 960,
          "midi": 35,
          "name": "B1",
          "ticks": 396480,
          "time": 187.72708500000002,
          "velocity": 0.7007874015748031
        },
        {
          "duration": 0.454544999999996,
          "durationTicks": 960,
          "midi": 35,
          "name": "B1",
          "ticks": 397440,
          "time": 188.18163,
          "velocity": 0.7007874015748031
        },
        {
          "duration": 0.454544999999996,
          "durationTicks": 960,
          "midi": 35,
          "name": "B1",
          "ticks": 398400,
          "time": 188.636175,
          "velocity": 0.7007874015748031
        },
        {
          "duration": 0.454544999999996,
          "durationTicks": 960,
          "midi": 35,
          "name": "B1",
          "ticks": 399360,
          "time": 189.09072,
          "velocity": 0.7007874015748031
        },
        {
          "duration": 0.4545450000000244,
          "durationTicks": 960,
          "midi": 35,
          "name": "B1",
          "ticks": 400320,
          "time": 189.545265,
          "velocity": 0.7007874015748031
        },
        {
          "duration": 0.454544999999996,
          "durationTicks": 960,
          "midi": 35,
          "name": "B1",
          "ticks": 401280,
          "time": 189.99981000000002,
          "velocity": 0.7007874015748031
        },
        {
          "duration": 0.454544999999996,
          "durationTicks": 960,
          "midi": 35,
          "name": "B1",
          "ticks": 402240,
          "time": 190.45435500000002,
          "velocity": 0.7007874015748031
        },
        {
          "duration": 0.454544999999996,
          "durationTicks": 960,
          "midi": 35,
          "name": "B1",
          "ticks": 403200,
          "time": 190.90890000000002,
          "velocity": 0.7007874015748031
        },
        {
          "duration": 0.454544999999996,
          "durationTicks": 960,
          "midi": 35,
          "name": "B1",
          "ticks": 404160,
          "time": 191.363445,
          "velocity": 0.7007874015748031
        },
        {
          "duration": 0.454544999999996,
          "durationTicks": 960,
          "midi": 35,
          "name": "B1",
          "ticks": 405120,
          "time": 191.81799,
          "velocity": 0.7007874015748031
        },
        {
          "duration": 0.454544999999996,
          "durationTicks": 960,
          "midi": 35,
          "name": "B1",
          "ticks": 406080,
          "time": 192.272535,
          "velocity": 0.7007874015748031
        },
        {
          "duration": 0.4545450000000244,
          "durationTicks": 960,
          "midi": 35,
          "name": "B1",
          "ticks": 407040,
          "time": 192.72708,
          "velocity": 0.7007874015748031
        },
        {
          "duration": 0.454544999999996,
          "durationTicks": 960,
          "midi": 35,
          "name": "B1",
          "ticks": 408000,
          "time": 193.18162500000003,
          "velocity": 0.7007874015748031
        },
        {
          "duration": 0.454544999999996,
          "durationTicks": 960,
          "midi": 35,
          "name": "B1",
          "ticks": 408960,
          "time": 193.63617000000002,
          "velocity": 0.7007874015748031
        },
        {
          "duration": 0.454544999999996,
          "durationTicks": 960,
          "midi": 35,
          "name": "B1",
          "ticks": 409920,
          "time": 194.09071500000002,
          "velocity": 0.7007874015748031
        },
        {
          "duration": 0.454544999999996,
          "durationTicks": 960,
          "midi": 35,
          "name": "B1",
          "ticks": 410880,
          "time": 194.54526,
          "velocity": 0.7007874015748031
        },
        {
          "duration": 0.454544999999996,
          "durationTicks": 960,
          "midi": 35,
          "name": "B1",
          "ticks": 411840,
          "time": 194.999805,
          "velocity": 0.7007874015748031
        },
        {
          "duration": 0.454544999999996,
          "durationTicks": 960,
          "midi": 35,
          "name": "B1",
          "ticks": 412800,
          "time": 195.45435,
          "velocity": 0.7007874015748031
        },
        {
          "duration": 0.4545450000000244,
          "durationTicks": 960,
          "midi": 35,
          "name": "B1",
          "ticks": 413760,
          "time": 195.908895,
          "velocity": 0.7007874015748031
        },
        {
          "duration": 0.454544999999996,
          "durationTicks": 960,
          "midi": 35,
          "name": "B1",
          "ticks": 414720,
          "time": 196.36344000000003,
          "velocity": 0.7007874015748031
        },
        {
          "duration": 0.454544999999996,
          "durationTicks": 960,
          "midi": 35,
          "name": "B1",
          "ticks": 415680,
          "time": 196.81798500000002,
          "velocity": 0.7007874015748031
        },
        {
          "duration": 0.454544999999996,
          "durationTicks": 960,
          "midi": 35,
          "name": "B1",
          "ticks": 416640,
          "time": 197.27253000000002,
          "velocity": 0.7007874015748031
        },
        {
          "duration": 0.454544999999996,
          "durationTicks": 960,
          "midi": 35,
          "name": "B1",
          "ticks": 417600,
          "time": 197.727075,
          "velocity": 0.7007874015748031
        }
      ],
      "endOfTrackTicks": 422400
    },
    {
      "channel": 0,
      "controlChanges": {
        "7": [
          {
            "number": 7,
            "ticks": 0,
            "time": 0,
            "value": 0.9212598425196851
          }
        ],
        "10": [
          {
            "number": 10,
            "ticks": 0,
            "time": 0,
            "value": 0.11023622047244094
          }
        ]
      },
      "pitchBends": [],
      "instrument": {
        "family": "piano",
        "number": 0,
        "name": "acoustic grand piano"
      },
      "name": "Synth Drum",
      "notes": [],
      "endOfTrackTicks": 422400
    },
    {
      "channel": 10,
      "controlChanges": {},
      "pitchBends": [],
      "instrument": {
        "family": "percussive",
        "number": 118,
        "name": "synth drum"
      },
      "name": "",
      "notes": [
        {
          "duration": 0.454544999999996,
          "durationTicks": 960,
          "midi": 44,
          "name": "G#2",
          "ticks": 80640,
          "time": 38.18178,
          "velocity": 0.7007874015748031
        },
        {
          "duration": 0.4545450000000031,
          "durationTicks": 960,
          "midi": 44,
          "name": "G#2",
          "ticks": 81600,
          "time": 38.636325,
          "velocity": 0.7007874015748031
        },
        {
          "duration": 0.4545450000000031,
          "durationTicks": 960,
          "midi": 44,
          "name": "G#2",
          "ticks": 82560,
          "time": 39.09087,
          "velocity": 0.7007874015748031
        },
        {
          "duration": 0.454544999999996,
          "durationTicks": 960,
          "midi": 44,
          "name": "G#2",
          "ticks": 83520,
          "time": 39.545415000000006,
          "velocity": 0.7007874015748031
        },
        {
          "duration": 0.4545450000000031,
          "durationTicks": 960,
          "midi": 44,
          "name": "G#2",
          "ticks": 84480,
          "time": 39.99996,
          "velocity": 0.7007874015748031
        },
        {
          "duration": 0.454544999999996,
          "durationTicks": 960,
          "midi": 44,
          "name": "G#2",
          "ticks": 85440,
          "time": 40.454505000000005,
          "velocity": 0.7007874015748031
        },
        {
          "duration": 0.4545450000000031,
          "durationTicks": 960,
          "midi": 44,
          "name": "G#2",
          "ticks": 86400,
          "time": 40.90905,
          "velocity": 0.7007874015748031
        },
        {
          "duration": 0.454544999999996,
          "durationTicks": 960,
          "midi": 44,
          "name": "G#2",
          "ticks": 87360,
          "time": 41.363595000000004,
          "velocity": 0.7007874015748031
        },
        {
          "duration": 0.4545450000000031,
          "durationTicks": 960,
          "midi": 44,
          "name": "G#2",
          "ticks": 88320,
          "time": 41.81814,
          "velocity": 0.7007874015748031
        },
        {
          "duration": 0.4545450000000031,
          "durationTicks": 960,
          "midi": 44,
          "name": "G#2",
          "ticks": 89280,
          "time": 42.272685,
          "velocity": 0.7007874015748031
        },
        {
          "duration": 0.454544999999996,
          "durationTicks": 960,
          "midi": 44,
          "name": "G#2",
          "ticks": 90240,
          "time": 42.727230000000006,
          "velocity": 0.7007874015748031
        },
        {
          "duration": 0.4545450000000031,
          "durationTicks": 960,
          "midi": 44,
          "name": "G#2",
          "ticks": 91200,
          "time": 43.181775,
          "velocity": 0.7007874015748031
        },
        {
          "duration": 0.454544999999996,
          "durationTicks": 960,
          "midi": 44,
          "name": "G#2",
          "ticks": 92160,
          "time": 43.636320000000005,
          "velocity": 0.7007874015748031
        },
        {
          "duration": 0.4545450000000031,
          "durationTicks": 960,
          "midi": 44,
          "name": "G#2",
          "ticks": 93120,
          "time": 44.090865,
          "velocity": 0.7007874015748031
        },
        {
          "duration": 0.454544999999996,
          "durationTicks": 960,
          "midi": 44,
          "name": "G#2",
          "ticks": 94080,
          "time": 44.545410000000004,
          "velocity": 0.7007874015748031
        },
        {
          "duration": 0.4545450000000031,
          "durationTicks": 960,
          "midi": 44,
          "name": "G#2",
          "ticks": 96000,
          "time": 45.4545,
          "velocity": 0.7007874015748031
        },
        {
          "duration": 0.454544999999996,
          "durationTicks": 960,
          "midi": 44,
          "name": "G#2",
          "ticks": 96960,
          "time": 45.909045000000006,
          "velocity": 0.7007874015748031
        },
        {
          "duration": 0.4545450000000031,
          "durationTicks": 960,
          "midi": 44,
          "name": "G#2",
          "ticks": 97920,
          "time": 46.36359,
          "velocity": 0.7007874015748031
        },
        {
          "duration": 0.4545450000000031,
          "durationTicks": 960,
          "midi": 44,
          "name": "G#2",
          "ticks": 99840,
          "time": 47.27268,
          "velocity": 0.7007874015748031
        },
        {
          "duration": 0.454544999999996,
          "durationTicks": 960,
          "midi": 44,
          "name": "G#2",
          "ticks": 100800,
          "time": 47.727225000000004,
          "velocity": 0.7007874015748031
        },
        {
          "duration": 0.4545450000000031,
          "durationTicks": 960,
          "midi": 44,
          "name": "G#2",
          "ticks": 101760,
          "time": 48.18177,
          "velocity": 0.7007874015748031
        },
        {
          "duration": 0.454544999999996,
          "durationTicks": 960,
          "midi": 44,
          "name": "G#2",
          "ticks": 103680,
          "time": 49.090860000000006,
          "velocity": 0.7007874015748031
        },
        {
          "duration": 0.4545450000000031,
          "durationTicks": 960,
          "midi": 44,
          "name": "G#2",
          "ticks": 104640,
          "time": 49.545405,
          "velocity": 0.7007874015748031
        },
        {
          "duration": 0.454544999999996,
          "durationTicks": 960,
          "midi": 44,
          "name": "G#2",
          "ticks": 105600,
          "time": 49.999950000000005,
          "velocity": 0.7007874015748031
        },
        {
          "duration": 0.4545450000000031,
          "durationTicks": 960,
          "midi": 44,
          "name": "G#2",
          "ticks": 106560,
          "time": 50.454495,
          "velocity": 0.7007874015748031
        },
        {
          "duration": 0.454544999999996,
          "durationTicks": 960,
          "midi": 44,
          "name": "G#2",
          "ticks": 107520,
          "time": 50.909040000000005,
          "velocity": 0.7007874015748031
        },
        {
          "duration": 0.4545450000000031,
          "durationTicks": 960,
          "midi": 44,
          "name": "G#2",
          "ticks": 108480,
          "time": 51.363585,
          "velocity": 0.7007874015748031
        },
        {
          "duration": 0.454544999999996,
          "durationTicks": 960,
          "midi": 44,
          "name": "G#2",
          "ticks": 110400,
          "time": 52.27267500000001,
          "velocity": 0.7007874015748031
        },
        {
          "duration": 0.4545450000000031,
          "durationTicks": 960,
          "midi": 44,
          "name": "G#2",
          "ticks": 111360,
          "time": 52.72722,
          "velocity": 0.7007874015748031
        },
        {
          "duration": 0.454544999999996,
          "durationTicks": 960,
          "midi": 44,
          "name": "G#2",
          "ticks": 112320,
          "time": 53.181765000000006,
          "velocity": 0.7007874015748031
        },
        {
          "duration": 0.4545450000000031,
          "durationTicks": 960,
          "midi": 44,
          "name": "G#2",
          "ticks": 113280,
          "time": 53.63631,
          "velocity": 0.7007874015748031
        },
        {
          "duration": 0.454544999999996,
          "durationTicks": 960,
          "midi": 44,
          "name": "G#2",
          "ticks": 114240,
          "time": 54.090855000000005,
          "velocity": 0.7007874015748031
        },
        {
          "duration": 0.4545450000000031,
          "durationTicks": 960,
          "midi": 44,
          "name": "G#2",
          "ticks": 115200,
          "time": 54.5454,
          "velocity": 0.7007874015748031
        },
        {
          "duration": 0.4545450000000031,
          "durationTicks": 960,
          "midi": 44,
          "name": "G#2",
          "ticks": 116160,
          "time": 54.999945000000004,
          "velocity": 0.7007874015748031
        },
        {
          "duration": 0.454544999999996,
          "durationTicks": 960,
          "midi": 44,
          "name": "G#2",
          "ticks": 117120,
          "time": 55.45449000000001,
          "velocity": 0.7007874015748031
        },
        {
          "duration": 0.4545450000000031,
          "durationTicks": 960,
          "midi": 44,
          "name": "G#2",
          "ticks": 118080,
          "time": 55.909035,
          "velocity": 0.7007874015748031
        },
        {
          "duration": 0.454544999999996,
          "durationTicks": 960,
          "midi": 44,
          "name": "G#2",
          "ticks": 119040,
          "time": 56.363580000000006,
          "velocity": 0.7007874015748031
        },
        {
          "duration": 0.4545450000000031,
          "durationTicks": 960,
          "midi": 44,
          "name": "G#2",
          "ticks": 120000,
          "time": 56.818125,
          "velocity": 0.7007874015748031
        },
        {
          "duration": 0.454544999999996,
          "durationTicks": 960,
          "midi": 44,
          "name": "G#2",
          "ticks": 120960,
          "time": 57.272670000000005,
          "velocity": 0.7007874015748031
        },
        {
          "duration": 0.4545450000000031,
          "durationTicks": 960,
          "midi": 44,
          "name": "G#2",
          "ticks": 121920,
          "time": 57.727215,
          "velocity": 0.7007874015748031
        },
        {
          "duration": 0.4545450000000031,
          "durationTicks": 960,
          "midi": 44,
          "name": "G#2",
          "ticks": 122880,
          "time": 58.181760000000004,
          "velocity": 0.7007874015748031
        },
        {
          "duration": 0.454544999999996,
          "durationTicks": 960,
          "midi": 44,
          "name": "G#2",
          "ticks": 123840,
          "time": 58.63630500000001,
          "velocity": 0.7007874015748031
        },
        {
          "duration": 0.4545450000000031,
          "durationTicks": 960,
          "midi": 44,
          "name": "G#2",
          "ticks": 124800,
          "time": 59.09085,
          "velocity": 0.7007874015748031
        },
        {
          "duration": 0.454544999999996,
          "durationTicks": 960,
          "midi": 44,
          "name": "G#2",
          "ticks": 125760,
          "time": 59.545395000000006,
          "velocity": 0.7007874015748031
        },
        {
          "duration": 0.4545450000000031,
          "durationTicks": 960,
          "midi": 44,
          "name": "G#2",
          "ticks": 126720,
          "time": 59.99994,
          "velocity": 0.7007874015748031
        },
        {
          "duration": 0.454544999999996,
          "durationTicks": 960,
          "midi": 44,
          "name": "G#2",
          "ticks": 127680,
          "time": 60.454485000000005,
          "velocity": 0.7007874015748031
        },
        {
          "duration": 0.4545450000000031,
          "durationTicks": 960,
          "midi": 44,
          "name": "G#2",
          "ticks": 128640,
          "time": 60.90903,
          "velocity": 0.7007874015748031
        },
        {
          "duration": 0.4545450000000031,
          "durationTicks": 960,
          "midi": 44,
          "name": "G#2",
          "ticks": 129600,
          "time": 61.363575000000004,
          "velocity": 0.7007874015748031
        },
        {
          "duration": 0.454544999999996,
          "durationTicks": 960,
          "midi": 44,
          "name": "G#2",
          "ticks": 130560,
          "time": 61.81812000000001,
          "velocity": 0.7007874015748031
        },
        {
          "duration": 0.4545450000000031,
          "durationTicks": 960,
          "midi": 44,
          "name": "G#2",
          "ticks": 131520,
          "time": 62.272665,
          "velocity": 0.7007874015748031
        },
        {
          "duration": 0.454544999999996,
          "durationTicks": 960,
          "midi": 44,
          "name": "G#2",
          "ticks": 132480,
          "time": 62.72721000000001,
          "velocity": 0.7007874015748031
        },
        {
          "duration": 0.4545450000000031,
          "durationTicks": 960,
          "midi": 44,
          "name": "G#2",
          "ticks": 133440,
          "time": 63.181755,
          "velocity": 0.7007874015748031
        },
        {
          "duration": 0.454544999999996,
          "durationTicks": 960,
          "midi": 44,
          "name": "G#2",
          "ticks": 134400,
          "time": 63.636300000000006,
          "velocity": 0.7007874015748031
        },
        {
          "duration": 0.454544999999996,
          "durationTicks": 960,
          "midi": 44,
          "name": "G#2",
          "ticks": 135360,
          "time": 64.090845,
          "velocity": 0.7007874015748031
        },
        {
          "duration": 0.4545450000000102,
          "durationTicks": 960,
          "midi": 44,
          "name": "G#2",
          "ticks": 136320,
          "time": 64.54539,
          "velocity": 0.7007874015748031
        },
        {
          "duration": 0.454544999999996,
          "durationTicks": 960,
          "midi": 44,
          "name": "G#2",
          "ticks": 137280,
          "time": 64.99993500000001,
          "velocity": 0.7007874015748031
        },
        {
          "duration": 0.454544999999996,
          "durationTicks": 960,
          "midi": 44,
          "name": "G#2",
          "ticks": 138240,
          "time": 65.45448,
          "velocity": 0.7007874015748031
        },
        {
          "duration": 0.4545450000000102,
          "durationTicks": 960,
          "midi": 44,
          "name": "G#2",
          "ticks": 139200,
          "time": 65.909025,
          "velocity": 0.7007874015748031
        },
        {
          "duration": 0.454544999999996,
          "durationTicks": 960,
          "midi": 44,
          "name": "G#2",
          "ticks": 140160,
          "time": 66.36357000000001,
          "velocity": 0.7007874015748031
        },
        {
          "duration": 0.4545450000000102,
          "durationTicks": 960,
          "midi": 44,
          "name": "G#2",
          "ticks": 203520,
          "time": 96.36354,
          "velocity": 0.7007874015748031
        },
        {
          "duration": 0.454544999999996,
          "durationTicks": 960,
          "midi": 44,
          "name": "G#2",
          "ticks": 204480,
          "time": 96.81808500000001,
          "velocity": 0.7007874015748031
        },
        {
          "duration": 0.454544999999996,
          "durationTicks": 960,
          "midi": 44,
          "name": "G#2",
          "ticks": 205440,
          "time": 97.27263,
          "velocity": 0.7007874015748031
        },
        {
          "duration": 0.4545450000000102,
          "durationTicks": 960,
          "midi": 44,
          "name": "G#2",
          "ticks": 206400,
          "time": 97.727175,
          "velocity": 0.7007874015748031
        },
        {
          "duration": 0.454544999999996,
          "durationTicks": 960,
          "midi": 44,
          "name": "G#2",
          "ticks": 207360,
          "time": 98.18172000000001,
          "velocity": 0.7007874015748031
        },
        {
          "duration": 0.454544999999996,
          "durationTicks": 960,
          "midi": 44,
          "name": "G#2",
          "ticks": 208320,
          "time": 98.63626500000001,
          "velocity": 0.7007874015748031
        },
        {
          "duration": 0.454544999999996,
          "durationTicks": 960,
          "midi": 44,
          "name": "G#2",
          "ticks": 209280,
          "time": 99.09081,
          "velocity": 0.7007874015748031
        },
        {
          "duration": 0.4545450000000102,
          "durationTicks": 960,
          "midi": 44,
          "name": "G#2",
          "ticks": 210240,
          "time": 99.545355,
          "velocity": 0.7007874015748031
        },
        {
          "duration": 0.454544999999996,
          "durationTicks": 960,
          "midi": 44,
          "name": "G#2",
          "ticks": 211200,
          "time": 99.99990000000001,
          "velocity": 0.7007874015748031
        },
        {
          "duration": 0.454544999999996,
          "durationTicks": 960,
          "midi": 44,
          "name": "G#2",
          "ticks": 212160,
          "time": 100.454445,
          "velocity": 0.7007874015748031
        },
        {
          "duration": 0.4545450000000102,
          "durationTicks": 960,
          "midi": 44,
          "name": "G#2",
          "ticks": 213120,
          "time": 100.90899,
          "velocity": 0.7007874015748031
        },
        {
          "duration": 0.454544999999996,
          "durationTicks": 960,
          "midi": 44,
          "name": "G#2",
          "ticks": 214080,
          "time": 101.36353500000001,
          "velocity": 0.7007874015748031
        },
        {
          "duration": 0.454544999999996,
          "durationTicks": 960,
          "midi": 44,
          "name": "G#2",
          "ticks": 215040,
          "time": 101.81808000000001,
          "velocity": 0.7007874015748031
        },
        {
          "duration": 0.454544999999996,
          "durationTicks": 960,
          "midi": 44,
          "name": "G#2",
          "ticks": 216000,
          "time": 102.272625,
          "velocity": 0.7007874015748031
        },
        {
          "duration": 0.4545450000000102,
          "durationTicks": 960,
          "midi": 44,
          "name": "G#2",
          "ticks": 216960,
          "time": 102.72717,
          "velocity": 0.7007874015748031
        },
        {
          "duration": 0.454544999999996,
          "durationTicks": 960,
          "midi": 44,
          "name": "G#2",
          "ticks": 217920,
          "time": 103.18171500000001,
          "velocity": 0.7007874015748031
        },
        {
          "duration": 0.454544999999996,
          "durationTicks": 960,
          "midi": 44,
          "name": "G#2",
          "ticks": 218880,
          "time": 103.63626000000001,
          "velocity": 0.7007874015748031
        },
        {
          "duration": 0.4545450000000102,
          "durationTicks": 960,
          "midi": 44,
          "name": "G#2",
          "ticks": 219840,
          "time": 104.090805,
          "velocity": 0.7007874015748031
        },
        {
          "duration": 0.454544999999996,
          "durationTicks": 960,
          "midi": 44,
          "name": "G#2",
          "ticks": 220800,
          "time": 104.54535000000001,
          "velocity": 0.7007874015748031
        },
        {
          "duration": 0.454544999999996,
          "durationTicks": 960,
          "midi": 44,
          "name": "G#2",
          "ticks": 221760,
          "time": 104.99989500000001,
          "velocity": 0.7007874015748031
        },
        {
          "duration": 0.454544999999996,
          "durationTicks": 960,
          "midi": 44,
          "name": "G#2",
          "ticks": 222720,
          "time": 105.45444,
          "velocity": 0.7007874015748031
        },
        {
          "duration": 0.4545450000000102,
          "durationTicks": 960,
          "midi": 44,
          "name": "G#2",
          "ticks": 223680,
          "time": 105.908985,
          "velocity": 0.7007874015748031
        },
        {
          "duration": 0.454544999999996,
          "durationTicks": 960,
          "midi": 44,
          "name": "G#2",
          "ticks": 224640,
          "time": 106.36353000000001,
          "velocity": 0.7007874015748031
        },
        {
          "duration": 0.454544999999996,
          "durationTicks": 960,
          "midi": 44,
          "name": "G#2",
          "ticks": 225600,
          "time": 106.81807500000001,
          "velocity": 0.7007874015748031
        },
        {
          "duration": 0.4545450000000102,
          "durationTicks": 960,
          "midi": 44,
          "name": "G#2",
          "ticks": 226560,
          "time": 107.27262,
          "velocity": 0.7007874015748031
        },
        {
          "duration": 0.454544999999996,
          "durationTicks": 960,
          "midi": 44,
          "name": "G#2",
          "ticks": 227520,
          "time": 107.72716500000001,
          "velocity": 0.7007874015748031
        },
        {
          "duration": 0.454544999999996,
          "durationTicks": 960,
          "midi": 44,
          "name": "G#2",
          "ticks": 228480,
          "time": 108.18171000000001,
          "velocity": 0.7007874015748031
        },
        {
          "duration": 0.454544999999996,
          "durationTicks": 960,
          "midi": 44,
          "name": "G#2",
          "ticks": 229440,
          "time": 108.636255,
          "velocity": 0.7007874015748031
        },
        {
          "duration": 0.4545450000000102,
          "durationTicks": 960,
          "midi": 44,
          "name": "G#2",
          "ticks": 230400,
          "time": 109.0908,
          "velocity": 0.7007874015748031
        },
        {
          "duration": 0.454544999999996,
          "durationTicks": 960,
          "midi": 44,
          "name": "G#2",
          "ticks": 231360,
          "time": 109.54534500000001,
          "velocity": 0.7007874015748031
        },
        {
          "duration": 0.454544999999996,
          "durationTicks": 960,
          "midi": 44,
          "name": "G#2",
          "ticks": 232320,
          "time": 109.99989000000001,
          "velocity": 0.7007874015748031
        },
        {
          "duration": 0.4545450000000102,
          "durationTicks": 960,
          "midi": 44,
          "name": "G#2",
          "ticks": 233280,
          "time": 110.454435,
          "velocity": 0.7007874015748031
        },
        {
          "duration": 0.454544999999996,
          "durationTicks": 960,
          "midi": 44,
          "name": "G#2",
          "ticks": 234240,
          "time": 110.90898000000001,
          "velocity": 0.7007874015748031
        },
        {
          "duration": 0.454544999999996,
          "durationTicks": 960,
          "midi": 44,
          "name": "G#2",
          "ticks": 235200,
          "time": 111.36352500000001,
          "velocity": 0.7007874015748031
        },
        {
          "duration": 0.454544999999996,
          "durationTicks": 960,
          "midi": 44,
          "name": "G#2",
          "ticks": 236160,
          "time": 111.81807,
          "velocity": 0.7007874015748031
        },
        {
          "duration": 0.4545450000000102,
          "durationTicks": 960,
          "midi": 44,
          "name": "G#2",
          "ticks": 237120,
          "time": 112.272615,
          "velocity": 0.7007874015748031
        },
        {
          "duration": 0.454544999999996,
          "durationTicks": 960,
          "midi": 44,
          "name": "G#2",
          "ticks": 238080,
          "time": 112.72716000000001,
          "velocity": 0.7007874015748031
        },
        {
          "duration": 0.454544999999996,
          "durationTicks": 960,
          "midi": 44,
          "name": "G#2",
          "ticks": 239040,
          "time": 113.18170500000001,
          "velocity": 0.7007874015748031
        },
        {
          "duration": 0.4545450000000102,
          "durationTicks": 960,
          "midi": 44,
          "name": "G#2",
          "ticks": 240000,
          "time": 113.63625,
          "velocity": 0.7007874015748031
        },
        {
          "duration": 0.454544999999996,
          "durationTicks": 960,
          "midi": 44,
          "name": "G#2",
          "ticks": 240960,
          "time": 114.09079500000001,
          "velocity": 0.7007874015748031
        },
        {
          "duration": 0.454544999999996,
          "durationTicks": 960,
          "midi": 44,
          "name": "G#2",
          "ticks": 241920,
          "time": 114.54534000000001,
          "velocity": 0.7007874015748031
        },
        {
          "duration": 0.454544999999996,
          "durationTicks": 960,
          "midi": 44,
          "name": "G#2",
          "ticks": 242880,
          "time": 114.999885,
          "velocity": 0.7007874015748031
        },
        {
          "duration": 0.4545450000000102,
          "durationTicks": 960,
          "midi": 44,
          "name": "G#2",
          "ticks": 243840,
          "time": 115.45443,
          "velocity": 0.7007874015748031
        },
        {
          "duration": 0.454544999999996,
          "durationTicks": 960,
          "midi": 44,
          "name": "G#2",
          "ticks": 244800,
          "time": 115.90897500000001,
          "velocity": 0.7007874015748031
        },
        {
          "duration": 0.454544999999996,
          "durationTicks": 960,
          "midi": 44,
          "name": "G#2",
          "ticks": 245760,
          "time": 116.36352000000001,
          "velocity": 0.7007874015748031
        },
        {
          "duration": 0.4545450000000102,
          "durationTicks": 960,
          "midi": 44,
          "name": "G#2",
          "ticks": 246720,
          "time": 116.818065,
          "velocity": 0.7007874015748031
        },
        {
          "duration": 0.454544999999996,
          "durationTicks": 960,
          "midi": 44,
          "name": "G#2",
          "ticks": 247680,
          "time": 117.27261000000001,
          "velocity": 0.7007874015748031
        },
        {
          "duration": 0.454544999999996,
          "durationTicks": 960,
          "midi": 44,
          "name": "G#2",
          "ticks": 248640,
          "time": 117.72715500000001,
          "velocity": 0.7007874015748031
        },
        {
          "duration": 0.454544999999996,
          "durationTicks": 960,
          "midi": 44,
          "name": "G#2",
          "ticks": 249600,
          "time": 118.1817,
          "velocity": 0.7007874015748031
        },
        {
          "duration": 0.4545450000000102,
          "durationTicks": 960,
          "midi": 44,
          "name": "G#2",
          "ticks": 250560,
          "time": 118.636245,
          "velocity": 0.7007874015748031
        },
        {
          "duration": 0.454544999999996,
          "durationTicks": 960,
          "midi": 44,
          "name": "G#2",
          "ticks": 251520,
          "time": 119.09079000000001,
          "velocity": 0.7007874015748031
        },
        {
          "duration": 0.4545450000000102,
          "durationTicks": 960,
          "midi": 44,
          "name": "G#2",
          "ticks": 253440,
          "time": 119.99988,
          "velocity": 0.7007874015748031
        },
        {
          "duration": 0.454544999999996,
          "durationTicks": 960,
          "midi": 44,
          "name": "G#2",
          "ticks": 254400,
          "time": 120.45442500000001,
          "velocity": 0.7007874015748031
        },
        {
          "duration": 0.454544999999996,
          "durationTicks": 960,
          "midi": 44,
          "name": "G#2",
          "ticks": 255360,
          "time": 120.90897000000001,
          "velocity": 0.7007874015748031
        },
        {
          "duration": 0.4545450000000102,
          "durationTicks": 960,
          "midi": 44,
          "name": "G#2",
          "ticks": 257280,
          "time": 121.81806,
          "velocity": 0.7007874015748031
        },
        {
          "duration": 0.454544999999996,
          "durationTicks": 960,
          "midi": 44,
          "name": "G#2",
          "ticks": 258240,
          "time": 122.27260500000001,
          "velocity": 0.7007874015748031
        },
        {
          "duration": 0.454544999999996,
          "durationTicks": 960,
          "midi": 44,
          "name": "G#2",
          "ticks": 259200,
          "time": 122.72715000000001,
          "velocity": 0.7007874015748031
        },
        {
          "duration": 0.454544999999996,
          "durationTicks": 960,
          "midi": 44,
          "name": "G#2",
          "ticks": 261120,
          "time": 123.63624000000002,
          "velocity": 0.7007874015748031
        },
        {
          "duration": 0.454544999999996,
          "durationTicks": 960,
          "midi": 44,
          "name": "G#2",
          "ticks": 262080,
          "time": 124.09078500000001,
          "velocity": 0.7007874015748031
        },
        {
          "duration": 0.454544999999996,
          "durationTicks": 960,
          "midi": 44,
          "name": "G#2",
          "ticks": 263040,
          "time": 124.54533,
          "velocity": 0.7007874015748031
        },
        {
          "duration": 0.4545450000000102,
          "durationTicks": 960,
          "midi": 44,
          "name": "G#2",
          "ticks": 264000,
          "time": 124.999875,
          "velocity": 0.7007874015748031
        },
        {
          "duration": 0.454544999999996,
          "durationTicks": 960,
          "midi": 44,
          "name": "G#2",
          "ticks": 264960,
          "time": 125.45442000000001,
          "velocity": 0.7007874015748031
        },
        {
          "duration": 0.454544999999996,
          "durationTicks": 960,
          "midi": 44,
          "name": "G#2",
          "ticks": 265920,
          "time": 125.90896500000001,
          "velocity": 0.7007874015748031
        },
        {
          "duration": 0.4545450000000102,
          "durationTicks": 960,
          "midi": 44,
          "name": "G#2",
          "ticks": 266880,
          "time": 126.36351,
          "velocity": 0.7007874015748031
        },
        {
          "duration": 0.454544999999996,
          "durationTicks": 960,
          "midi": 44,
          "name": "G#2",
          "ticks": 267840,
          "time": 126.81805500000002,
          "velocity": 0.7007874015748031
        },
        {
          "duration": 0.454544999999996,
          "durationTicks": 960,
          "midi": 44,
          "name": "G#2",
          "ticks": 268800,
          "time": 127.27260000000001,
          "velocity": 0.7007874015748031
        },
        {
          "duration": 0.454544999999996,
          "durationTicks": 960,
          "midi": 44,
          "name": "G#2",
          "ticks": 269760,
          "time": 127.72714500000001,
          "velocity": 0.7007874015748031
        },
        {
          "duration": 0.454544999999996,
          "durationTicks": 960,
          "midi": 44,
          "name": "G#2",
          "ticks": 270720,
          "time": 128.18169,
          "velocity": 0.7007874015748031
        },
        {
          "duration": 0.454544999999996,
          "durationTicks": 960,
          "midi": 44,
          "name": "G#2",
          "ticks": 271680,
          "time": 128.636235,
          "velocity": 0.7007874015748031
        },
        {
          "duration": 0.4545450000000244,
          "durationTicks": 960,
          "midi": 44,
          "name": "G#2",
          "ticks": 272640,
          "time": 129.09078,
          "velocity": 0.7007874015748031
        },
        {
          "duration": 0.454544999999996,
          "durationTicks": 960,
          "midi": 44,
          "name": "G#2",
          "ticks": 273600,
          "time": 129.54532500000002,
          "velocity": 0.7007874015748031
        },
        {
          "duration": 0.454544999999996,
          "durationTicks": 960,
          "midi": 44,
          "name": "G#2",
          "ticks": 274560,
          "time": 129.99987000000002,
          "velocity": 0.7007874015748031
        },
        {
          "duration": 0.454544999999996,
          "durationTicks": 960,
          "midi": 44,
          "name": "G#2",
          "ticks": 275520,
          "time": 130.454415,
          "velocity": 0.7007874015748031
        },
        {
          "duration": 0.454544999999996,
          "durationTicks": 960,
          "midi": 44,
          "name": "G#2",
          "ticks": 276480,
          "time": 130.90896,
          "velocity": 0.7007874015748031
        },
        {
          "duration": 0.454544999999996,
          "durationTicks": 960,
          "midi": 44,
          "name": "G#2",
          "ticks": 277440,
          "time": 131.363505,
          "velocity": 0.7007874015748031
        },
        {
          "duration": 0.454544999999996,
          "durationTicks": 960,
          "midi": 44,
          "name": "G#2",
          "ticks": 278400,
          "time": 131.81805,
          "velocity": 0.7007874015748031
        },
        {
          "duration": 0.4545450000000244,
          "durationTicks": 960,
          "midi": 44,
          "name": "G#2",
          "ticks": 279360,
          "time": 132.272595,
          "velocity": 0.7007874015748031
        },
        {
          "duration": 0.454544999999996,
          "durationTicks": 960,
          "midi": 44,
          "name": "G#2",
          "ticks": 280320,
          "time": 132.72714000000002,
          "velocity": 0.7007874015748031
        },
        {
          "duration": 0.454544999999996,
          "durationTicks": 960,
          "midi": 44,
          "name": "G#2",
          "ticks": 281280,
          "time": 133.18168500000002,
          "velocity": 0.7007874015748031
        },
        {
          "duration": 0.454544999999996,
          "durationTicks": 960,
          "midi": 44,
          "name": "G#2",
          "ticks": 282240,
          "time": 133.63623,
          "velocity": 0.7007874015748031
        },
        {
          "duration": 0.454544999999996,
          "durationTicks": 960,
          "midi": 44,
          "name": "G#2",
          "ticks": 283200,
          "time": 134.090775,
          "velocity": 0.7007874015748031
        },
        {
          "duration": 0.454544999999996,
          "durationTicks": 960,
          "midi": 44,
          "name": "G#2",
          "ticks": 284160,
          "time": 134.54532,
          "velocity": 0.7007874015748031
        },
        {
          "duration": 0.454544999999996,
          "durationTicks": 960,
          "midi": 44,
          "name": "G#2",
          "ticks": 285120,
          "time": 134.999865,
          "velocity": 0.7007874015748031
        },
        {
          "duration": 0.4545450000000244,
          "durationTicks": 960,
          "midi": 44,
          "name": "G#2",
          "ticks": 286080,
          "time": 135.45441,
          "velocity": 0.7007874015748031
        },
        {
          "duration": 0.454544999999996,
          "durationTicks": 960,
          "midi": 44,
          "name": "G#2",
          "ticks": 287040,
          "time": 135.90895500000002,
          "velocity": 0.7007874015748031
        },
        {
          "duration": 0.454544999999996,
          "durationTicks": 960,
          "midi": 44,
          "name": "G#2",
          "ticks": 288000,
          "time": 136.36350000000002,
          "velocity": 0.7007874015748031
        },
        {
          "duration": 0.454544999999996,
          "durationTicks": 960,
          "midi": 44,
          "name": "G#2",
          "ticks": 288960,
          "time": 136.818045,
          "velocity": 0.7007874015748031
        },
        {
          "duration": 0.454544999999996,
          "durationTicks": 960,
          "midi": 44,
          "name": "G#2",
          "ticks": 289920,
          "time": 137.27259,
          "velocity": 0.7007874015748031
        },
        {
          "duration": 0.454544999999996,
          "durationTicks": 960,
          "midi": 44,
          "name": "G#2",
          "ticks": 290880,
          "time": 137.727135,
          "velocity": 0.7007874015748031
        },
        {
          "duration": 0.454544999999996,
          "durationTicks": 960,
          "midi": 44,
          "name": "G#2",
          "ticks": 291840,
          "time": 138.18168,
          "velocity": 0.7007874015748031
        },
        {
          "duration": 0.4545450000000244,
          "durationTicks": 960,
          "midi": 44,
          "name": "G#2",
          "ticks": 292800,
          "time": 138.636225,
          "velocity": 0.7007874015748031
        },
        {
          "duration": 0.454544999999996,
          "durationTicks": 960,
          "midi": 44,
          "name": "G#2",
          "ticks": 293760,
          "time": 139.09077000000002,
          "velocity": 0.7007874015748031
        },
        {
          "duration": 0.454544999999996,
          "durationTicks": 960,
          "midi": 44,
          "name": "G#2",
          "ticks": 294720,
          "time": 139.54531500000002,
          "velocity": 0.7007874015748031
        },
        {
          "duration": 0.454544999999996,
          "durationTicks": 960,
          "midi": 44,
          "name": "G#2",
          "ticks": 357120,
          "time": 169.09074,
          "velocity": 0.7007874015748031
        },
        {
          "duration": 0.454544999999996,
          "durationTicks": 960,
          "midi": 44,
          "name": "G#2",
          "ticks": 358080,
          "time": 169.545285,
          "velocity": 0.7007874015748031
        },
        {
          "duration": 0.454544999999996,
          "durationTicks": 960,
          "midi": 44,
          "name": "G#2",
          "ticks": 359040,
          "time": 169.99983,
          "velocity": 0.7007874015748031
        },
        {
          "duration": 0.4545450000000244,
          "durationTicks": 960,
          "midi": 44,
          "name": "G#2",
          "ticks": 360000,
          "time": 170.454375,
          "velocity": 0.7007874015748031
        },
        {
          "duration": 0.454544999999996,
          "durationTicks": 960,
          "midi": 44,
          "name": "G#2",
          "ticks": 360960,
          "time": 170.90892000000002,
          "velocity": 0.7007874015748031
        },
        {
          "duration": 0.454544999999996,
          "durationTicks": 960,
          "midi": 44,
          "name": "G#2",
          "ticks": 361920,
          "time": 171.36346500000002,
          "velocity": 0.7007874015748031
        },
        {
          "duration": 0.454544999999996,
          "durationTicks": 960,
          "midi": 44,
          "name": "G#2",
          "ticks": 362880,
          "time": 171.81801000000002,
          "velocity": 0.7007874015748031
        },
        {
          "duration": 0.454544999999996,
          "durationTicks": 960,
          "midi": 44,
          "name": "G#2",
          "ticks": 363840,
          "time": 172.272555,
          "velocity": 0.7007874015748031
        },
        {
          "duration": 0.454544999999996,
          "durationTicks": 960,
          "midi": 44,
          "name": "G#2",
          "ticks": 364800,
          "time": 172.7271,
          "velocity": 0.7007874015748031
        },
        {
          "duration": 0.454544999999996,
          "durationTicks": 960,
          "midi": 44,
          "name": "G#2",
          "ticks": 365760,
          "time": 173.181645,
          "velocity": 0.7007874015748031
        },
        {
          "duration": 0.4545450000000244,
          "durationTicks": 960,
          "midi": 44,
          "name": "G#2",
          "ticks": 366720,
          "time": 173.63619,
          "velocity": 0.7007874015748031
        },
        {
          "duration": 0.454544999999996,
          "durationTicks": 960,
          "midi": 44,
          "name": "G#2",
          "ticks": 367680,
          "time": 174.09073500000002,
          "velocity": 0.7007874015748031
        },
        {
          "duration": 0.454544999999996,
          "durationTicks": 960,
          "midi": 44,
          "name": "G#2",
          "ticks": 368640,
          "time": 174.54528000000002,
          "velocity": 0.7007874015748031
        },
        {
          "duration": 0.454544999999996,
          "durationTicks": 960,
          "midi": 44,
          "name": "G#2",
          "ticks": 369600,
          "time": 174.99982500000002,
          "velocity": 0.7007874015748031
        },
        {
          "duration": 0.454544999999996,
          "durationTicks": 960,
          "midi": 44,
          "name": "G#2",
          "ticks": 370560,
          "time": 175.45437,
          "velocity": 0.7007874015748031
        },
        {
          "duration": 0.454544999999996,
          "durationTicks": 960,
          "midi": 44,
          "name": "G#2",
          "ticks": 371520,
          "time": 175.908915,
          "velocity": 0.7007874015748031
        },
        {
          "duration": 0.454544999999996,
          "durationTicks": 960,
          "midi": 44,
          "name": "G#2",
          "ticks": 372480,
          "time": 176.36346,
          "velocity": 0.7007874015748031
        },
        {
          "duration": 0.4545450000000244,
          "durationTicks": 960,
          "midi": 44,
          "name": "G#2",
          "ticks": 373440,
          "time": 176.818005,
          "velocity": 0.7007874015748031
        },
        {
          "duration": 0.454544999999996,
          "durationTicks": 960,
          "midi": 44,
          "name": "G#2",
          "ticks": 374400,
          "time": 177.27255000000002,
          "velocity": 0.7007874015748031
        },
        {
          "duration": 0.454544999999996,
          "durationTicks": 960,
          "midi": 44,
          "name": "G#2",
          "ticks": 375360,
          "time": 177.72709500000002,
          "velocity": 0.7007874015748031
        },
        {
          "duration": 0.454544999999996,
          "durationTicks": 960,
          "midi": 44,
          "name": "G#2",
          "ticks": 376320,
          "time": 178.18164000000002,
          "velocity": 0.7007874015748031
        },
        {
          "duration": 0.454544999999996,
          "durationTicks": 960,
          "midi": 44,
          "name": "G#2",
          "ticks": 377280,
          "time": 178.636185,
          "velocity": 0.7007874015748031
        },
        {
          "duration": 0.454544999999996,
          "durationTicks": 960,
          "midi": 44,
          "name": "G#2",
          "ticks": 378240,
          "time": 179.09073,
          "velocity": 0.7007874015748031
        },
        {
          "duration": 0.454544999999996,
          "durationTicks": 960,
          "midi": 44,
          "name": "G#2",
          "ticks": 379200,
          "time": 179.545275,
          "velocity": 0.7007874015748031
        },
        {
          "duration": 0.4545450000000244,
          "durationTicks": 960,
          "midi": 44,
          "name": "G#2",
          "ticks": 380160,
          "time": 179.99982,
          "velocity": 0.7007874015748031
        },
        {
          "duration": 0.454544999999996,
          "durationTicks": 960,
          "midi": 44,
          "name": "G#2",
          "ticks": 381120,
          "time": 180.45436500000002,
          "velocity": 0.7007874015748031
        },
        {
          "duration": 0.454544999999996,
          "durationTicks": 960,
          "midi": 44,
          "name": "G#2",
          "ticks": 382080,
          "time": 180.90891000000002,
          "velocity": 0.7007874015748031
        },
        {
          "duration": 0.454544999999996,
          "durationTicks": 960,
          "midi": 44,
          "name": "G#2",
          "ticks": 383040,
          "time": 181.36345500000002,
          "velocity": 0.7007874015748031
        },
        {
          "duration": 0.454544999999996,
          "durationTicks": 960,
          "midi": 44,
          "name": "G#2",
          "ticks": 384000,
          "time": 181.818,
          "velocity": 0.7007874015748031
        },
        {
          "duration": 0.454544999999996,
          "durationTicks": 960,
          "midi": 44,
          "name": "G#2",
          "ticks": 384960,
          "time": 182.272545,
          "velocity": 0.7007874015748031
        },
        {
          "duration": 0.454544999999996,
          "durationTicks": 960,
          "midi": 44,
          "name": "G#2",
          "ticks": 385920,
          "time": 182.72709,
          "velocity": 0.7007874015748031
        },
        {
          "duration": 0.4545450000000244,
          "durationTicks": 960,
          "midi": 44,
          "name": "G#2",
          "ticks": 386880,
          "time": 183.181635,
          "velocity": 0.7007874015748031
        },
        {
          "duration": 0.454544999999996,
          "durationTicks": 960,
          "midi": 44,
          "name": "G#2",
          "ticks": 387840,
          "time": 183.63618000000002,
          "velocity": 0.7007874015748031
        },
        {
          "duration": 0.454544999999996,
          "durationTicks": 960,
          "midi": 44,
          "name": "G#2",
          "ticks": 388800,
          "time": 184.09072500000002,
          "velocity": 0.7007874015748031
        },
        {
          "duration": 0.454544999999996,
          "durationTicks": 960,
          "midi": 44,
          "name": "G#2",
          "ticks": 389760,
          "time": 184.54527000000002,
          "velocity": 0.7007874015748031
        },
        {
          "duration": 0.454544999999996,
          "durationTicks": 960,
          "midi": 44,
          "name": "G#2",
          "ticks": 390720,
          "time": 184.999815,
          "velocity": 0.7007874015748031
        },
        {
          "duration": 0.454544999999996,
          "durationTicks": 960,
          "midi": 44,
          "name": "G#2",
          "ticks": 391680,
          "time": 185.45436,
          "velocity": 0.7007874015748031
        },
        {
          "duration": 0.454544999999996,
          "durationTicks": 960,
          "midi": 44,
          "name": "G#2",
          "ticks": 392640,
          "time": 185.908905,
          "velocity": 0.7007874015748031
        },
        {
          "duration": 0.4545450000000244,
          "durationTicks": 960,
          "midi": 44,
          "name": "G#2",
          "ticks": 393600,
          "time": 186.36345,
          "velocity": 0.7007874015748031
        },
        {
          "duration": 0.454544999999996,
          "durationTicks": 960,
          "midi": 44,
          "name": "G#2",
          "ticks": 394560,
          "time": 186.81799500000002,
          "velocity": 0.7007874015748031
        },
        {
          "duration": 0.454544999999996,
          "durationTicks": 960,
          "midi": 44,
          "name": "G#2",
          "ticks": 395520,
          "time": 187.27254000000002,
          "velocity": 0.7007874015748031
        },
        {
          "duration": 0.454544999999996,
          "durationTicks": 960,
          "midi": 44,
          "name": "G#2",
          "ticks": 396480,
          "time": 187.72708500000002,
          "velocity": 0.7007874015748031
        },
        {
          "duration": 0.454544999999996,
          "durationTicks": 960,
          "midi": 44,
          "name": "G#2",
          "ticks": 397440,
          "time": 188.18163,
          "velocity": 0.7007874015748031
        },
        {
          "duration": 0.454544999999996,
          "durationTicks": 960,
          "midi": 44,
          "name": "G#2",
          "ticks": 398400,
          "time": 188.636175,
          "velocity": 0.7007874015748031
        },
        {
          "duration": 0.454544999999996,
          "durationTicks": 960,
          "midi": 44,
          "name": "G#2",
          "ticks": 399360,
          "time": 189.09072,
          "velocity": 0.7007874015748031
        },
        {
          "duration": 0.4545450000000244,
          "durationTicks": 960,
          "midi": 44,
          "name": "G#2",
          "ticks": 400320,
          "time": 189.545265,
          "velocity": 0.7007874015748031
        },
        {
          "duration": 0.454544999999996,
          "durationTicks": 960,
          "midi": 44,
          "name": "G#2",
          "ticks": 401280,
          "time": 189.99981000000002,
          "velocity": 0.7007874015748031
        },
        {
          "duration": 0.454544999999996,
          "durationTicks": 960,
          "midi": 44,
          "name": "G#2",
          "ticks": 402240,
          "time": 190.45435500000002,
          "velocity": 0.7007874015748031
        },
        {
          "duration": 0.454544999999996,
          "durationTicks": 960,
          "midi": 44,
          "name": "G#2",
          "ticks": 403200,
          "time": 190.90890000000002,
          "velocity": 0.7007874015748031
        },
        {
          "duration": 0.454544999999996,
          "durationTicks": 960,
          "midi": 44,
          "name": "G#2",
          "ticks": 404160,
          "time": 191.363445,
          "velocity": 0.7007874015748031
        },
        {
          "duration": 0.454544999999996,
          "durationTicks": 960,
          "midi": 44,
          "name": "G#2",
          "ticks": 405120,
          "time": 191.81799,
          "velocity": 0.7007874015748031
        },
        {
          "duration": 0.454544999999996,
          "durationTicks": 960,
          "midi": 44,
          "name": "G#2",
          "ticks": 406080,
          "time": 192.272535,
          "velocity": 0.7007874015748031
        },
        {
          "duration": 0.4545450000000244,
          "durationTicks": 960,
          "midi": 44,
          "name": "G#2",
          "ticks": 407040,
          "time": 192.72708,
          "velocity": 0.7007874015748031
        },
        {
          "duration": 0.454544999999996,
          "durationTicks": 960,
          "midi": 44,
          "name": "G#2",
          "ticks": 408000,
          "time": 193.18162500000003,
          "velocity": 0.7007874015748031
        },
        {
          "duration": 0.454544999999996,
          "durationTicks": 960,
          "midi": 44,
          "name": "G#2",
          "ticks": 408960,
          "time": 193.63617000000002,
          "velocity": 0.7007874015748031
        },
        {
          "duration": 0.454544999999996,
          "durationTicks": 960,
          "midi": 44,
          "name": "G#2",
          "ticks": 409920,
          "time": 194.09071500000002,
          "velocity": 0.7007874015748031
        },
        {
          "duration": 0.454544999999996,
          "durationTicks": 960,
          "midi": 44,
          "name": "G#2",
          "ticks": 410880,
          "time": 194.54526,
          "velocity": 0.7007874015748031
        },
        {
          "duration": 0.454544999999996,
          "durationTicks": 960,
          "midi": 44,
          "name": "G#2",
          "ticks": 411840,
          "time": 194.999805,
          "velocity": 0.7007874015748031
        },
        {
          "duration": 0.454544999999996,
          "durationTicks": 960,
          "midi": 44,
          "name": "G#2",
          "ticks": 412800,
          "time": 195.45435,
          "velocity": 0.7007874015748031
        },
        {
          "duration": 0.4545450000000244,
          "durationTicks": 960,
          "midi": 44,
          "name": "G#2",
          "ticks": 413760,
          "time": 195.908895,
          "velocity": 0.7007874015748031
        },
        {
          "duration": 0.454544999999996,
          "durationTicks": 960,
          "midi": 44,
          "name": "G#2",
          "ticks": 414720,
          "time": 196.36344000000003,
          "velocity": 0.7007874015748031
        },
        {
          "duration": 0.454544999999996,
          "durationTicks": 960,
          "midi": 44,
          "name": "G#2",
          "ticks": 415680,
          "time": 196.81798500000002,
          "velocity": 0.7007874015748031
        },
        {
          "duration": 0.454544999999996,
          "durationTicks": 960,
          "midi": 44,
          "name": "G#2",
          "ticks": 416640,
          "time": 197.27253000000002,
          "velocity": 0.7007874015748031
        },
        {
          "duration": 0.454544999999996,
          "durationTicks": 960,
          "midi": 44,
          "name": "G#2",
          "ticks": 417600,
          "time": 197.727075,
          "velocity": 0.7007874015748031
        }
      ]
    },
    {
      "channel": 0,
      "controlChanges": {
        "7": [
          {
            "number": 7,
            "ticks": 0,
            "time": 0,
            "value": 1
          }
        ],
        "10": [
          {
            "number": 10,
            "ticks": 0,
            "time": 0,
            "value": 0.4881889763779528
          }
        ]
      },
      "pitchBends": [],
      "instrument": {
        "family": "piano",
        "number": 0,
        "name": "acoustic grand piano"
      },
      "name": "Taico Drum",
      "notes": [],
      "endOfTrackTicks": 422400
    },
    {
      "channel": 11,
      "controlChanges": {},
      "pitchBends": [],
      "instrument": {
        "family": "percussive",
        "number": 116,
        "name": "taiko drum"
      },
      "name": "",
      "notes": [
        {
          "duration": 0.454544999999996,
          "durationTicks": 960,
          "midi": 40,
          "name": "E2",
          "ticks": 80640,
          "time": 38.18178,
          "velocity": 0.7007874015748031
        },
        {
          "duration": 0.4545450000000031,
          "durationTicks": 960,
          "midi": 40,
          "name": "E2",
          "ticks": 81600,
          "time": 38.636325,
          "velocity": 0.7007874015748031
        },
        {
          "duration": 0.4545450000000031,
          "durationTicks": 960,
          "midi": 40,
          "name": "E2",
          "ticks": 82560,
          "time": 39.09087,
          "velocity": 0.7007874015748031
        },
        {
          "duration": 0.454544999999996,
          "durationTicks": 960,
          "midi": 40,
          "name": "E2",
          "ticks": 83520,
          "time": 39.545415000000006,
          "velocity": 0.7007874015748031
        },
        {
          "duration": 0.4545450000000031,
          "durationTicks": 960,
          "midi": 40,
          "name": "E2",
          "ticks": 84480,
          "time": 39.99996,
          "velocity": 0.7007874015748031
        },
        {
          "duration": 0.454544999999996,
          "durationTicks": 960,
          "midi": 40,
          "name": "E2",
          "ticks": 85440,
          "time": 40.454505000000005,
          "velocity": 0.7007874015748031
        },
        {
          "duration": 0.4545450000000031,
          "durationTicks": 960,
          "midi": 40,
          "name": "E2",
          "ticks": 86400,
          "time": 40.90905,
          "velocity": 0.7007874015748031
        },
        {
          "duration": 0.454544999999996,
          "durationTicks": 960,
          "midi": 40,
          "name": "E2",
          "ticks": 87360,
          "time": 41.363595000000004,
          "velocity": 0.7007874015748031
        },
        {
          "duration": 0.4545450000000031,
          "durationTicks": 960,
          "midi": 40,
          "name": "E2",
          "ticks": 88320,
          "time": 41.81814,
          "velocity": 0.7007874015748031
        },
        {
          "duration": 0.4545450000000031,
          "durationTicks": 960,
          "midi": 40,
          "name": "E2",
          "ticks": 89280,
          "time": 42.272685,
          "velocity": 0.7007874015748031
        },
        {
          "duration": 0.454544999999996,
          "durationTicks": 960,
          "midi": 40,
          "name": "E2",
          "ticks": 90240,
          "time": 42.727230000000006,
          "velocity": 0.7007874015748031
        },
        {
          "duration": 0.4545450000000031,
          "durationTicks": 960,
          "midi": 40,
          "name": "E2",
          "ticks": 91200,
          "time": 43.181775,
          "velocity": 0.7007874015748031
        },
        {
          "duration": 0.454544999999996,
          "durationTicks": 960,
          "midi": 40,
          "name": "E2",
          "ticks": 92160,
          "time": 43.636320000000005,
          "velocity": 0.7007874015748031
        },
        {
          "duration": 0.4545450000000031,
          "durationTicks": 960,
          "midi": 40,
          "name": "E2",
          "ticks": 93120,
          "time": 44.090865,
          "velocity": 0.7007874015748031
        },
        {
          "duration": 0.454544999999996,
          "durationTicks": 960,
          "midi": 40,
          "name": "E2",
          "ticks": 94080,
          "time": 44.545410000000004,
          "velocity": 0.7007874015748031
        },
        {
          "duration": 0.4545450000000031,
          "durationTicks": 960,
          "midi": 40,
          "name": "E2",
          "ticks": 96000,
          "time": 45.4545,
          "velocity": 0.7007874015748031
        },
        {
          "duration": 0.454544999999996,
          "durationTicks": 960,
          "midi": 40,
          "name": "E2",
          "ticks": 96960,
          "time": 45.909045000000006,
          "velocity": 0.7007874015748031
        },
        {
          "duration": 0.4545450000000031,
          "durationTicks": 960,
          "midi": 40,
          "name": "E2",
          "ticks": 97920,
          "time": 46.36359,
          "velocity": 0.7007874015748031
        },
        {
          "duration": 0.4545450000000031,
          "durationTicks": 960,
          "midi": 40,
          "name": "E2",
          "ticks": 99840,
          "time": 47.27268,
          "velocity": 0.7007874015748031
        },
        {
          "duration": 0.454544999999996,
          "durationTicks": 960,
          "midi": 40,
          "name": "E2",
          "ticks": 100800,
          "time": 47.727225000000004,
          "velocity": 0.7007874015748031
        },
        {
          "duration": 0.4545450000000031,
          "durationTicks": 960,
          "midi": 40,
          "name": "E2",
          "ticks": 101760,
          "time": 48.18177,
          "velocity": 0.7007874015748031
        },
        {
          "duration": 0.454544999999996,
          "durationTicks": 960,
          "midi": 40,
          "name": "E2",
          "ticks": 103680,
          "time": 49.090860000000006,
          "velocity": 0.7007874015748031
        },
        {
          "duration": 0.4545450000000031,
          "durationTicks": 960,
          "midi": 40,
          "name": "E2",
          "ticks": 104640,
          "time": 49.545405,
          "velocity": 0.7007874015748031
        },
        {
          "duration": 0.454544999999996,
          "durationTicks": 960,
          "midi": 40,
          "name": "E2",
          "ticks": 105600,
          "time": 49.999950000000005,
          "velocity": 0.7007874015748031
        },
        {
          "duration": 0.4545450000000031,
          "durationTicks": 960,
          "midi": 40,
          "name": "E2",
          "ticks": 106560,
          "time": 50.454495,
          "velocity": 0.7007874015748031
        },
        {
          "duration": 0.454544999999996,
          "durationTicks": 960,
          "midi": 40,
          "name": "E2",
          "ticks": 107520,
          "time": 50.909040000000005,
          "velocity": 0.7007874015748031
        },
        {
          "duration": 0.4545450000000031,
          "durationTicks": 960,
          "midi": 40,
          "name": "E2",
          "ticks": 108480,
          "time": 51.363585,
          "velocity": 0.7007874015748031
        },
        {
          "duration": 0.4545450000000031,
          "durationTicks": 960,
          "midi": 40,
          "name": "E2",
          "ticks": 109440,
          "time": 51.818130000000004,
          "velocity": 0.7007874015748031
        },
        {
          "duration": 0.4545450000000031,
          "durationTicks": 960,
          "midi": 40,
          "name": "E2",
          "ticks": 111360,
          "time": 52.72722,
          "velocity": 0.7007874015748031
        },
        {
          "duration": 0.454544999999996,
          "durationTicks": 960,
          "midi": 40,
          "name": "E2",
          "ticks": 112320,
          "time": 53.181765000000006,
          "velocity": 0.7007874015748031
        },
        {
          "duration": 0.4545450000000031,
          "durationTicks": 960,
          "midi": 40,
          "name": "E2",
          "ticks": 113280,
          "time": 53.63631,
          "velocity": 0.7007874015748031
        },
        {
          "duration": 0.454544999999996,
          "durationTicks": 960,
          "midi": 40,
          "name": "E2",
          "ticks": 114240,
          "time": 54.090855000000005,
          "velocity": 0.7007874015748031
        },
        {
          "duration": 0.4545450000000031,
          "durationTicks": 960,
          "midi": 40,
          "name": "E2",
          "ticks": 115200,
          "time": 54.5454,
          "velocity": 0.7007874015748031
        },
        {
          "duration": 0.4545450000000031,
          "durationTicks": 960,
          "midi": 40,
          "name": "E2",
          "ticks": 116160,
          "time": 54.999945000000004,
          "velocity": 0.7007874015748031
        },
        {
          "duration": 0.454544999999996,
          "durationTicks": 960,
          "midi": 40,
          "name": "E2",
          "ticks": 117120,
          "time": 55.45449000000001,
          "velocity": 0.7007874015748031
        },
        {
          "duration": 0.4545450000000031,
          "durationTicks": 960,
          "midi": 40,
          "name": "E2",
          "ticks": 118080,
          "time": 55.909035,
          "velocity": 0.7007874015748031
        },
        {
          "duration": 0.454544999999996,
          "durationTicks": 960,
          "midi": 40,
          "name": "E2",
          "ticks": 119040,
          "time": 56.363580000000006,
          "velocity": 0.7007874015748031
        },
        {
          "duration": 0.4545450000000031,
          "durationTicks": 960,
          "midi": 40,
          "name": "E2",
          "ticks": 120000,
          "time": 56.818125,
          "velocity": 0.7007874015748031
        },
        {
          "duration": 0.454544999999996,
          "durationTicks": 960,
          "midi": 40,
          "name": "E2",
          "ticks": 120960,
          "time": 57.272670000000005,
          "velocity": 0.7007874015748031
        },
        {
          "duration": 0.4545450000000031,
          "durationTicks": 960,
          "midi": 40,
          "name": "E2",
          "ticks": 121920,
          "time": 57.727215,
          "velocity": 0.7007874015748031
        },
        {
          "duration": 0.4545450000000031,
          "durationTicks": 960,
          "midi": 40,
          "name": "E2",
          "ticks": 122880,
          "time": 58.181760000000004,
          "velocity": 0.7007874015748031
        },
        {
          "duration": 0.454544999999996,
          "durationTicks": 960,
          "midi": 40,
          "name": "E2",
          "ticks": 123840,
          "time": 58.63630500000001,
          "velocity": 0.7007874015748031
        },
        {
          "duration": 0.4545450000000031,
          "durationTicks": 960,
          "midi": 40,
          "name": "E2",
          "ticks": 124800,
          "time": 59.09085,
          "velocity": 0.7007874015748031
        },
        {
          "duration": 0.454544999999996,
          "durationTicks": 960,
          "midi": 40,
          "name": "E2",
          "ticks": 125760,
          "time": 59.545395000000006,
          "velocity": 0.7007874015748031
        },
        {
          "duration": 0.4545450000000031,
          "durationTicks": 960,
          "midi": 40,
          "name": "E2",
          "ticks": 126720,
          "time": 59.99994,
          "velocity": 0.7007874015748031
        },
        {
          "duration": 0.454544999999996,
          "durationTicks": 960,
          "midi": 40,
          "name": "E2",
          "ticks": 127680,
          "time": 60.454485000000005,
          "velocity": 0.7007874015748031
        },
        {
          "duration": 0.4545450000000031,
          "durationTicks": 960,
          "midi": 40,
          "name": "E2",
          "ticks": 128640,
          "time": 60.90903,
          "velocity": 0.7007874015748031
        },
        {
          "duration": 0.4545450000000031,
          "durationTicks": 960,
          "midi": 40,
          "name": "E2",
          "ticks": 129600,
          "time": 61.363575000000004,
          "velocity": 0.7007874015748031
        },
        {
          "duration": 0.454544999999996,
          "durationTicks": 960,
          "midi": 40,
          "name": "E2",
          "ticks": 130560,
          "time": 61.81812000000001,
          "velocity": 0.7007874015748031
        },
        {
          "duration": 0.4545450000000031,
          "durationTicks": 960,
          "midi": 40,
          "name": "E2",
          "ticks": 131520,
          "time": 62.272665,
          "velocity": 0.7007874015748031
        },
        {
          "duration": 0.454544999999996,
          "durationTicks": 960,
          "midi": 40,
          "name": "E2",
          "ticks": 132480,
          "time": 62.72721000000001,
          "velocity": 0.7007874015748031
        },
        {
          "duration": 0.4545450000000031,
          "durationTicks": 960,
          "midi": 40,
          "name": "E2",
          "ticks": 133440,
          "time": 63.181755,
          "velocity": 0.7007874015748031
        },
        {
          "duration": 0.454544999999996,
          "durationTicks": 960,
          "midi": 40,
          "name": "E2",
          "ticks": 134400,
          "time": 63.636300000000006,
          "velocity": 0.7007874015748031
        },
        {
          "duration": 0.454544999999996,
          "durationTicks": 960,
          "midi": 40,
          "name": "E2",
          "ticks": 135360,
          "time": 64.090845,
          "velocity": 0.7007874015748031
        },
        {
          "duration": 0.4545450000000102,
          "durationTicks": 960,
          "midi": 40,
          "name": "E2",
          "ticks": 136320,
          "time": 64.54539,
          "velocity": 0.7007874015748031
        },
        {
          "duration": 0.454544999999996,
          "durationTicks": 960,
          "midi": 40,
          "name": "E2",
          "ticks": 137280,
          "time": 64.99993500000001,
          "velocity": 0.7007874015748031
        },
        {
          "duration": 0.454544999999996,
          "durationTicks": 960,
          "midi": 40,
          "name": "E2",
          "ticks": 138240,
          "time": 65.45448,
          "velocity": 0.7007874015748031
        },
        {
          "duration": 0.4545450000000102,
          "durationTicks": 960,
          "midi": 40,
          "name": "E2",
          "ticks": 139200,
          "time": 65.909025,
          "velocity": 0.7007874015748031
        },
        {
          "duration": 0.454544999999996,
          "durationTicks": 960,
          "midi": 40,
          "name": "E2",
          "ticks": 140160,
          "time": 66.36357000000001,
          "velocity": 0.7007874015748031
        },
        {
          "duration": 0.454544999999996,
          "durationTicks": 960,
          "midi": 40,
          "name": "E2",
          "ticks": 141120,
          "time": 66.818115,
          "velocity": 0.7007874015748031
        },
        {
          "duration": 0.4545450000000102,
          "durationTicks": 960,
          "midi": 40,
          "name": "E2",
          "ticks": 203520,
          "time": 96.36354,
          "velocity": 0.7007874015748031
        },
        {
          "duration": 0.454544999999996,
          "durationTicks": 960,
          "midi": 40,
          "name": "E2",
          "ticks": 204480,
          "time": 96.81808500000001,
          "velocity": 0.7007874015748031
        },
        {
          "duration": 0.454544999999996,
          "durationTicks": 960,
          "midi": 40,
          "name": "E2",
          "ticks": 205440,
          "time": 97.27263,
          "velocity": 0.7007874015748031
        },
        {
          "duration": 0.4545450000000102,
          "durationTicks": 960,
          "midi": 40,
          "name": "E2",
          "ticks": 206400,
          "time": 97.727175,
          "velocity": 0.7007874015748031
        },
        {
          "duration": 0.454544999999996,
          "durationTicks": 960,
          "midi": 40,
          "name": "E2",
          "ticks": 207360,
          "time": 98.18172000000001,
          "velocity": 0.7007874015748031
        },
        {
          "duration": 0.454544999999996,
          "durationTicks": 960,
          "midi": 40,
          "name": "E2",
          "ticks": 208320,
          "time": 98.63626500000001,
          "velocity": 0.7007874015748031
        },
        {
          "duration": 0.454544999999996,
          "durationTicks": 960,
          "midi": 40,
          "name": "E2",
          "ticks": 209280,
          "time": 99.09081,
          "velocity": 0.7007874015748031
        },
        {
          "duration": 0.4545450000000102,
          "durationTicks": 960,
          "midi": 40,
          "name": "E2",
          "ticks": 210240,
          "time": 99.545355,
          "velocity": 0.7007874015748031
        },
        {
          "duration": 0.454544999999996,
          "durationTicks": 960,
          "midi": 40,
          "name": "E2",
          "ticks": 211200,
          "time": 99.99990000000001,
          "velocity": 0.7007874015748031
        },
        {
          "duration": 0.454544999999996,
          "durationTicks": 960,
          "midi": 40,
          "name": "E2",
          "ticks": 212160,
          "time": 100.454445,
          "velocity": 0.7007874015748031
        },
        {
          "duration": 0.4545450000000102,
          "durationTicks": 960,
          "midi": 40,
          "name": "E2",
          "ticks": 213120,
          "time": 100.90899,
          "velocity": 0.7007874015748031
        },
        {
          "duration": 0.454544999999996,
          "durationTicks": 960,
          "midi": 40,
          "name": "E2",
          "ticks": 214080,
          "time": 101.36353500000001,
          "velocity": 0.7007874015748031
        },
        {
          "duration": 0.454544999999996,
          "durationTicks": 960,
          "midi": 40,
          "name": "E2",
          "ticks": 215040,
          "time": 101.81808000000001,
          "velocity": 0.7007874015748031
        },
        {
          "duration": 0.454544999999996,
          "durationTicks": 960,
          "midi": 40,
          "name": "E2",
          "ticks": 216000,
          "time": 102.272625,
          "velocity": 0.7007874015748031
        },
        {
          "duration": 0.4545450000000102,
          "durationTicks": 960,
          "midi": 40,
          "name": "E2",
          "ticks": 216960,
          "time": 102.72717,
          "velocity": 0.7007874015748031
        },
        {
          "duration": 0.454544999999996,
          "durationTicks": 960,
          "midi": 40,
          "name": "E2",
          "ticks": 217920,
          "time": 103.18171500000001,
          "velocity": 0.7007874015748031
        },
        {
          "duration": 0.454544999999996,
          "durationTicks": 960,
          "midi": 40,
          "name": "E2",
          "ticks": 218880,
          "time": 103.63626000000001,
          "velocity": 0.7007874015748031
        },
        {
          "duration": 0.4545450000000102,
          "durationTicks": 960,
          "midi": 40,
          "name": "E2",
          "ticks": 219840,
          "time": 104.090805,
          "velocity": 0.7007874015748031
        },
        {
          "duration": 0.454544999999996,
          "durationTicks": 960,
          "midi": 40,
          "name": "E2",
          "ticks": 220800,
          "time": 104.54535000000001,
          "velocity": 0.7007874015748031
        },
        {
          "duration": 0.454544999999996,
          "durationTicks": 960,
          "midi": 40,
          "name": "E2",
          "ticks": 221760,
          "time": 104.99989500000001,
          "velocity": 0.7007874015748031
        },
        {
          "duration": 0.454544999999996,
          "durationTicks": 960,
          "midi": 40,
          "name": "E2",
          "ticks": 222720,
          "time": 105.45444,
          "velocity": 0.7007874015748031
        },
        {
          "duration": 0.4545450000000102,
          "durationTicks": 960,
          "midi": 40,
          "name": "E2",
          "ticks": 223680,
          "time": 105.908985,
          "velocity": 0.7007874015748031
        },
        {
          "duration": 0.454544999999996,
          "durationTicks": 960,
          "midi": 40,
          "name": "E2",
          "ticks": 224640,
          "time": 106.36353000000001,
          "velocity": 0.7007874015748031
        },
        {
          "duration": 0.454544999999996,
          "durationTicks": 960,
          "midi": 40,
          "name": "E2",
          "ticks": 225600,
          "time": 106.81807500000001,
          "velocity": 0.7007874015748031
        },
        {
          "duration": 0.4545450000000102,
          "durationTicks": 960,
          "midi": 40,
          "name": "E2",
          "ticks": 226560,
          "time": 107.27262,
          "velocity": 0.7007874015748031
        },
        {
          "duration": 0.454544999999996,
          "durationTicks": 960,
          "midi": 40,
          "name": "E2",
          "ticks": 227520,
          "time": 107.72716500000001,
          "velocity": 0.7007874015748031
        },
        {
          "duration": 0.454544999999996,
          "durationTicks": 960,
          "midi": 40,
          "name": "E2",
          "ticks": 228480,
          "time": 108.18171000000001,
          "velocity": 0.7007874015748031
        },
        {
          "duration": 0.454544999999996,
          "durationTicks": 960,
          "midi": 40,
          "name": "E2",
          "ticks": 229440,
          "time": 108.636255,
          "velocity": 0.7007874015748031
        },
        {
          "duration": 0.4545450000000102,
          "durationTicks": 960,
          "midi": 40,
          "name": "E2",
          "ticks": 230400,
          "time": 109.0908,
          "velocity": 0.7007874015748031
        },
        {
          "duration": 0.454544999999996,
          "durationTicks": 960,
          "midi": 40,
          "name": "E2",
          "ticks": 231360,
          "time": 109.54534500000001,
          "velocity": 0.7007874015748031
        },
        {
          "duration": 0.454544999999996,
          "durationTicks": 960,
          "midi": 40,
          "name": "E2",
          "ticks": 232320,
          "time": 109.99989000000001,
          "velocity": 0.7007874015748031
        },
        {
          "duration": 0.4545450000000102,
          "durationTicks": 960,
          "midi": 40,
          "name": "E2",
          "ticks": 233280,
          "time": 110.454435,
          "velocity": 0.7007874015748031
        },
        {
          "duration": 0.454544999999996,
          "durationTicks": 960,
          "midi": 40,
          "name": "E2",
          "ticks": 234240,
          "time": 110.90898000000001,
          "velocity": 0.7007874015748031
        },
        {
          "duration": 0.454544999999996,
          "durationTicks": 960,
          "midi": 40,
          "name": "E2",
          "ticks": 235200,
          "time": 111.36352500000001,
          "velocity": 0.7007874015748031
        },
        {
          "duration": 0.454544999999996,
          "durationTicks": 960,
          "midi": 40,
          "name": "E2",
          "ticks": 236160,
          "time": 111.81807,
          "velocity": 0.7007874015748031
        },
        {
          "duration": 0.4545450000000102,
          "durationTicks": 960,
          "midi": 40,
          "name": "E2",
          "ticks": 237120,
          "time": 112.272615,
          "velocity": 0.7007874015748031
        },
        {
          "duration": 0.454544999999996,
          "durationTicks": 960,
          "midi": 40,
          "name": "E2",
          "ticks": 238080,
          "time": 112.72716000000001,
          "velocity": 0.7007874015748031
        },
        {
          "duration": 0.454544999999996,
          "durationTicks": 960,
          "midi": 40,
          "name": "E2",
          "ticks": 239040,
          "time": 113.18170500000001,
          "velocity": 0.7007874015748031
        },
        {
          "duration": 0.4545450000000102,
          "durationTicks": 960,
          "midi": 40,
          "name": "E2",
          "ticks": 240000,
          "time": 113.63625,
          "velocity": 0.7007874015748031
        },
        {
          "duration": 0.454544999999996,
          "durationTicks": 960,
          "midi": 40,
          "name": "E2",
          "ticks": 240960,
          "time": 114.09079500000001,
          "velocity": 0.7007874015748031
        },
        {
          "duration": 0.454544999999996,
          "durationTicks": 960,
          "midi": 40,
          "name": "E2",
          "ticks": 241920,
          "time": 114.54534000000001,
          "velocity": 0.7007874015748031
        },
        {
          "duration": 0.454544999999996,
          "durationTicks": 960,
          "midi": 40,
          "name": "E2",
          "ticks": 242880,
          "time": 114.999885,
          "velocity": 0.7007874015748031
        },
        {
          "duration": 0.4545450000000102,
          "durationTicks": 960,
          "midi": 40,
          "name": "E2",
          "ticks": 243840,
          "time": 115.45443,
          "velocity": 0.7007874015748031
        },
        {
          "duration": 0.454544999999996,
          "durationTicks": 960,
          "midi": 40,
          "name": "E2",
          "ticks": 244800,
          "time": 115.90897500000001,
          "velocity": 0.7007874015748031
        },
        {
          "duration": 0.454544999999996,
          "durationTicks": 960,
          "midi": 40,
          "name": "E2",
          "ticks": 245760,
          "time": 116.36352000000001,
          "velocity": 0.7007874015748031
        },
        {
          "duration": 0.4545450000000102,
          "durationTicks": 960,
          "midi": 40,
          "name": "E2",
          "ticks": 246720,
          "time": 116.818065,
          "velocity": 0.7007874015748031
        },
        {
          "duration": 0.454544999999996,
          "durationTicks": 960,
          "midi": 40,
          "name": "E2",
          "ticks": 247680,
          "time": 117.27261000000001,
          "velocity": 0.7007874015748031
        },
        {
          "duration": 0.454544999999996,
          "durationTicks": 960,
          "midi": 40,
          "name": "E2",
          "ticks": 248640,
          "time": 117.72715500000001,
          "velocity": 0.7007874015748031
        },
        {
          "duration": 0.454544999999996,
          "durationTicks": 960,
          "midi": 40,
          "name": "E2",
          "ticks": 249600,
          "time": 118.1817,
          "velocity": 0.7007874015748031
        },
        {
          "duration": 0.4545450000000102,
          "durationTicks": 960,
          "midi": 40,
          "name": "E2",
          "ticks": 250560,
          "time": 118.636245,
          "velocity": 0.7007874015748031
        },
        {
          "duration": 0.454544999999996,
          "durationTicks": 960,
          "midi": 40,
          "name": "E2",
          "ticks": 251520,
          "time": 119.09079000000001,
          "velocity": 0.7007874015748031
        },
        {
          "duration": 0.4545450000000102,
          "durationTicks": 960,
          "midi": 40,
          "name": "E2",
          "ticks": 253440,
          "time": 119.99988,
          "velocity": 0.7007874015748031
        },
        {
          "duration": 0.454544999999996,
          "durationTicks": 960,
          "midi": 40,
          "name": "E2",
          "ticks": 254400,
          "time": 120.45442500000001,
          "velocity": 0.7007874015748031
        },
        {
          "duration": 0.454544999999996,
          "durationTicks": 960,
          "midi": 40,
          "name": "E2",
          "ticks": 255360,
          "time": 120.90897000000001,
          "velocity": 0.7007874015748031
        },
        {
          "duration": 0.4545450000000102,
          "durationTicks": 960,
          "midi": 40,
          "name": "E2",
          "ticks": 257280,
          "time": 121.81806,
          "velocity": 0.7007874015748031
        },
        {
          "duration": 0.454544999999996,
          "durationTicks": 960,
          "midi": 40,
          "name": "E2",
          "ticks": 258240,
          "time": 122.27260500000001,
          "velocity": 0.7007874015748031
        },
        {
          "duration": 0.454544999999996,
          "durationTicks": 960,
          "midi": 40,
          "name": "E2",
          "ticks": 259200,
          "time": 122.72715000000001,
          "velocity": 0.7007874015748031
        },
        {
          "duration": 0.454544999999996,
          "durationTicks": 960,
          "midi": 40,
          "name": "E2",
          "ticks": 261120,
          "time": 123.63624000000002,
          "velocity": 0.7007874015748031
        },
        {
          "duration": 0.454544999999996,
          "durationTicks": 960,
          "midi": 40,
          "name": "E2",
          "ticks": 262080,
          "time": 124.09078500000001,
          "velocity": 0.7007874015748031
        },
        {
          "duration": 0.454544999999996,
          "durationTicks": 960,
          "midi": 40,
          "name": "E2",
          "ticks": 263040,
          "time": 124.54533,
          "velocity": 0.7007874015748031
        },
        {
          "duration": 0.4545450000000102,
          "durationTicks": 960,
          "midi": 40,
          "name": "E2",
          "ticks": 264000,
          "time": 124.999875,
          "velocity": 0.7007874015748031
        },
        {
          "duration": 0.454544999999996,
          "durationTicks": 960,
          "midi": 40,
          "name": "E2",
          "ticks": 264960,
          "time": 125.45442000000001,
          "velocity": 0.7007874015748031
        },
        {
          "duration": 0.454544999999996,
          "durationTicks": 960,
          "midi": 40,
          "name": "E2",
          "ticks": 265920,
          "time": 125.90896500000001,
          "velocity": 0.7007874015748031
        },
        {
          "duration": 0.4545450000000102,
          "durationTicks": 960,
          "midi": 40,
          "name": "E2",
          "ticks": 266880,
          "time": 126.36351,
          "velocity": 0.7007874015748031
        },
        {
          "duration": 0.454544999999996,
          "durationTicks": 960,
          "midi": 40,
          "name": "E2",
          "ticks": 267840,
          "time": 126.81805500000002,
          "velocity": 0.7007874015748031
        },
        {
          "duration": 0.454544999999996,
          "durationTicks": 960,
          "midi": 40,
          "name": "E2",
          "ticks": 268800,
          "time": 127.27260000000001,
          "velocity": 0.7007874015748031
        },
        {
          "duration": 0.454544999999996,
          "durationTicks": 960,
          "midi": 40,
          "name": "E2",
          "ticks": 269760,
          "time": 127.72714500000001,
          "velocity": 0.7007874015748031
        },
        {
          "duration": 0.454544999999996,
          "durationTicks": 960,
          "midi": 40,
          "name": "E2",
          "ticks": 270720,
          "time": 128.18169,
          "velocity": 0.7007874015748031
        },
        {
          "duration": 0.454544999999996,
          "durationTicks": 960,
          "midi": 40,
          "name": "E2",
          "ticks": 271680,
          "time": 128.636235,
          "velocity": 0.7007874015748031
        },
        {
          "duration": 0.4545450000000244,
          "durationTicks": 960,
          "midi": 40,
          "name": "E2",
          "ticks": 272640,
          "time": 129.09078,
          "velocity": 0.7007874015748031
        },
        {
          "duration": 0.454544999999996,
          "durationTicks": 960,
          "midi": 40,
          "name": "E2",
          "ticks": 273600,
          "time": 129.54532500000002,
          "velocity": 0.7007874015748031
        },
        {
          "duration": 0.454544999999996,
          "durationTicks": 960,
          "midi": 40,
          "name": "E2",
          "ticks": 274560,
          "time": 129.99987000000002,
          "velocity": 0.7007874015748031
        },
        {
          "duration": 0.454544999999996,
          "durationTicks": 960,
          "midi": 40,
          "name": "E2",
          "ticks": 275520,
          "time": 130.454415,
          "velocity": 0.7007874015748031
        },
        {
          "duration": 0.454544999999996,
          "durationTicks": 960,
          "midi": 40,
          "name": "E2",
          "ticks": 276480,
          "time": 130.90896,
          "velocity": 0.7007874015748031
        },
        {
          "duration": 0.454544999999996,
          "durationTicks": 960,
          "midi": 40,
          "name": "E2",
          "ticks": 277440,
          "time": 131.363505,
          "velocity": 0.7007874015748031
        },
        {
          "duration": 0.454544999999996,
          "durationTicks": 960,
          "midi": 40,
          "name": "E2",
          "ticks": 278400,
          "time": 131.81805,
          "velocity": 0.7007874015748031
        },
        {
          "duration": 0.4545450000000244,
          "durationTicks": 960,
          "midi": 40,
          "name": "E2",
          "ticks": 279360,
          "time": 132.272595,
          "velocity": 0.7007874015748031
        },
        {
          "duration": 0.454544999999996,
          "durationTicks": 960,
          "midi": 40,
          "name": "E2",
          "ticks": 280320,
          "time": 132.72714000000002,
          "velocity": 0.7007874015748031
        },
        {
          "duration": 0.454544999999996,
          "durationTicks": 960,
          "midi": 40,
          "name": "E2",
          "ticks": 281280,
          "time": 133.18168500000002,
          "velocity": 0.7007874015748031
        },
        {
          "duration": 0.454544999999996,
          "durationTicks": 960,
          "midi": 40,
          "name": "E2",
          "ticks": 282240,
          "time": 133.63623,
          "velocity": 0.7007874015748031
        },
        {
          "duration": 0.454544999999996,
          "durationTicks": 960,
          "midi": 40,
          "name": "E2",
          "ticks": 283200,
          "time": 134.090775,
          "velocity": 0.7007874015748031
        },
        {
          "duration": 0.454544999999996,
          "durationTicks": 960,
          "midi": 40,
          "name": "E2",
          "ticks": 284160,
          "time": 134.54532,
          "velocity": 0.7007874015748031
        },
        {
          "duration": 0.454544999999996,
          "durationTicks": 960,
          "midi": 40,
          "name": "E2",
          "ticks": 285120,
          "time": 134.999865,
          "velocity": 0.7007874015748031
        },
        {
          "duration": 0.4545450000000244,
          "durationTicks": 960,
          "midi": 40,
          "name": "E2",
          "ticks": 286080,
          "time": 135.45441,
          "velocity": 0.7007874015748031
        },
        {
          "duration": 0.454544999999996,
          "durationTicks": 960,
          "midi": 40,
          "name": "E2",
          "ticks": 287040,
          "time": 135.90895500000002,
          "velocity": 0.7007874015748031
        },
        {
          "duration": 0.454544999999996,
          "durationTicks": 960,
          "midi": 40,
          "name": "E2",
          "ticks": 288000,
          "time": 136.36350000000002,
          "velocity": 0.7007874015748031
        },
        {
          "duration": 0.454544999999996,
          "durationTicks": 960,
          "midi": 40,
          "name": "E2",
          "ticks": 288960,
          "time": 136.818045,
          "velocity": 0.7007874015748031
        },
        {
          "duration": 0.454544999999996,
          "durationTicks": 960,
          "midi": 40,
          "name": "E2",
          "ticks": 289920,
          "time": 137.27259,
          "velocity": 0.7007874015748031
        },
        {
          "duration": 0.454544999999996,
          "durationTicks": 960,
          "midi": 40,
          "name": "E2",
          "ticks": 290880,
          "time": 137.727135,
          "velocity": 0.7007874015748031
        },
        {
          "duration": 0.454544999999996,
          "durationTicks": 960,
          "midi": 40,
          "name": "E2",
          "ticks": 291840,
          "time": 138.18168,
          "velocity": 0.7007874015748031
        },
        {
          "duration": 0.4545450000000244,
          "durationTicks": 960,
          "midi": 40,
          "name": "E2",
          "ticks": 292800,
          "time": 138.636225,
          "velocity": 0.7007874015748031
        },
        {
          "duration": 0.454544999999996,
          "durationTicks": 960,
          "midi": 40,
          "name": "E2",
          "ticks": 293760,
          "time": 139.09077000000002,
          "velocity": 0.7007874015748031
        },
        {
          "duration": 0.454544999999996,
          "durationTicks": 960,
          "midi": 40,
          "name": "E2",
          "ticks": 294720,
          "time": 139.54531500000002,
          "velocity": 0.7007874015748031
        },
        {
          "duration": 0.454544999999996,
          "durationTicks": 960,
          "midi": 40,
          "name": "E2",
          "ticks": 357120,
          "time": 169.09074,
          "velocity": 0.7007874015748031
        },
        {
          "duration": 0.454544999999996,
          "durationTicks": 960,
          "midi": 40,
          "name": "E2",
          "ticks": 358080,
          "time": 169.545285,
          "velocity": 0.7007874015748031
        },
        {
          "duration": 0.454544999999996,
          "durationTicks": 960,
          "midi": 40,
          "name": "E2",
          "ticks": 359040,
          "time": 169.99983,
          "velocity": 0.7007874015748031
        },
        {
          "duration": 0.4545450000000244,
          "durationTicks": 960,
          "midi": 40,
          "name": "E2",
          "ticks": 360000,
          "time": 170.454375,
          "velocity": 0.7007874015748031
        },
        {
          "duration": 0.454544999999996,
          "durationTicks": 960,
          "midi": 40,
          "name": "E2",
          "ticks": 360960,
          "time": 170.90892000000002,
          "velocity": 0.7007874015748031
        },
        {
          "duration": 0.454544999999996,
          "durationTicks": 960,
          "midi": 40,
          "name": "E2",
          "ticks": 361920,
          "time": 171.36346500000002,
          "velocity": 0.7007874015748031
        },
        {
          "duration": 0.454544999999996,
          "durationTicks": 960,
          "midi": 40,
          "name": "E2",
          "ticks": 362880,
          "time": 171.81801000000002,
          "velocity": 0.7007874015748031
        },
        {
          "duration": 0.454544999999996,
          "durationTicks": 960,
          "midi": 40,
          "name": "E2",
          "ticks": 363840,
          "time": 172.272555,
          "velocity": 0.7007874015748031
        },
        {
          "duration": 0.454544999999996,
          "durationTicks": 960,
          "midi": 40,
          "name": "E2",
          "ticks": 364800,
          "time": 172.7271,
          "velocity": 0.7007874015748031
        },
        {
          "duration": 0.454544999999996,
          "durationTicks": 960,
          "midi": 40,
          "name": "E2",
          "ticks": 365760,
          "time": 173.181645,
          "velocity": 0.7007874015748031
        },
        {
          "duration": 0.4545450000000244,
          "durationTicks": 960,
          "midi": 40,
          "name": "E2",
          "ticks": 366720,
          "time": 173.63619,
          "velocity": 0.7007874015748031
        },
        {
          "duration": 0.454544999999996,
          "durationTicks": 960,
          "midi": 40,
          "name": "E2",
          "ticks": 367680,
          "time": 174.09073500000002,
          "velocity": 0.7007874015748031
        },
        {
          "duration": 0.454544999999996,
          "durationTicks": 960,
          "midi": 40,
          "name": "E2",
          "ticks": 368640,
          "time": 174.54528000000002,
          "velocity": 0.7007874015748031
        },
        {
          "duration": 0.454544999999996,
          "durationTicks": 960,
          "midi": 40,
          "name": "E2",
          "ticks": 369600,
          "time": 174.99982500000002,
          "velocity": 0.7007874015748031
        },
        {
          "duration": 0.454544999999996,
          "durationTicks": 960,
          "midi": 40,
          "name": "E2",
          "ticks": 370560,
          "time": 175.45437,
          "velocity": 0.7007874015748031
        },
        {
          "duration": 0.454544999999996,
          "durationTicks": 960,
          "midi": 40,
          "name": "E2",
          "ticks": 371520,
          "time": 175.908915,
          "velocity": 0.7007874015748031
        },
        {
          "duration": 0.454544999999996,
          "durationTicks": 960,
          "midi": 40,
          "name": "E2",
          "ticks": 372480,
          "time": 176.36346,
          "velocity": 0.7007874015748031
        },
        {
          "duration": 0.4545450000000244,
          "durationTicks": 960,
          "midi": 40,
          "name": "E2",
          "ticks": 373440,
          "time": 176.818005,
          "velocity": 0.7007874015748031
        },
        {
          "duration": 0.454544999999996,
          "durationTicks": 960,
          "midi": 40,
          "name": "E2",
          "ticks": 374400,
          "time": 177.27255000000002,
          "velocity": 0.7007874015748031
        },
        {
          "duration": 0.454544999999996,
          "durationTicks": 960,
          "midi": 40,
          "name": "E2",
          "ticks": 375360,
          "time": 177.72709500000002,
          "velocity": 0.7007874015748031
        },
        {
          "duration": 0.454544999999996,
          "durationTicks": 960,
          "midi": 40,
          "name": "E2",
          "ticks": 376320,
          "time": 178.18164000000002,
          "velocity": 0.7007874015748031
        },
        {
          "duration": 0.454544999999996,
          "durationTicks": 960,
          "midi": 40,
          "name": "E2",
          "ticks": 377280,
          "time": 178.636185,
          "velocity": 0.7007874015748031
        },
        {
          "duration": 0.454544999999996,
          "durationTicks": 960,
          "midi": 40,
          "name": "E2",
          "ticks": 378240,
          "time": 179.09073,
          "velocity": 0.7007874015748031
        },
        {
          "duration": 0.454544999999996,
          "durationTicks": 960,
          "midi": 40,
          "name": "E2",
          "ticks": 379200,
          "time": 179.545275,
          "velocity": 0.7007874015748031
        },
        {
          "duration": 0.4545450000000244,
          "durationTicks": 960,
          "midi": 40,
          "name": "E2",
          "ticks": 380160,
          "time": 179.99982,
          "velocity": 0.7007874015748031
        },
        {
          "duration": 0.454544999999996,
          "durationTicks": 960,
          "midi": 40,
          "name": "E2",
          "ticks": 381120,
          "time": 180.45436500000002,
          "velocity": 0.7007874015748031
        },
        {
          "duration": 0.454544999999996,
          "durationTicks": 960,
          "midi": 40,
          "name": "E2",
          "ticks": 382080,
          "time": 180.90891000000002,
          "velocity": 0.7007874015748031
        },
        {
          "duration": 0.454544999999996,
          "durationTicks": 960,
          "midi": 40,
          "name": "E2",
          "ticks": 383040,
          "time": 181.36345500000002,
          "velocity": 0.7007874015748031
        },
        {
          "duration": 0.454544999999996,
          "durationTicks": 960,
          "midi": 40,
          "name": "E2",
          "ticks": 384000,
          "time": 181.818,
          "velocity": 0.7007874015748031
        },
        {
          "duration": 0.454544999999996,
          "durationTicks": 960,
          "midi": 40,
          "name": "E2",
          "ticks": 384960,
          "time": 182.272545,
          "velocity": 0.7007874015748031
        },
        {
          "duration": 0.454544999999996,
          "durationTicks": 960,
          "midi": 40,
          "name": "E2",
          "ticks": 385920,
          "time": 182.72709,
          "velocity": 0.7007874015748031
        },
        {
          "duration": 0.4545450000000244,
          "durationTicks": 960,
          "midi": 40,
          "name": "E2",
          "ticks": 386880,
          "time": 183.181635,
          "velocity": 0.7007874015748031
        },
        {
          "duration": 0.454544999999996,
          "durationTicks": 960,
          "midi": 40,
          "name": "E2",
          "ticks": 387840,
          "time": 183.63618000000002,
          "velocity": 0.7007874015748031
        },
        {
          "duration": 0.454544999999996,
          "durationTicks": 960,
          "midi": 40,
          "name": "E2",
          "ticks": 388800,
          "time": 184.09072500000002,
          "velocity": 0.7007874015748031
        },
        {
          "duration": 0.454544999999996,
          "durationTicks": 960,
          "midi": 40,
          "name": "E2",
          "ticks": 389760,
          "time": 184.54527000000002,
          "velocity": 0.7007874015748031
        },
        {
          "duration": 0.454544999999996,
          "durationTicks": 960,
          "midi": 40,
          "name": "E2",
          "ticks": 390720,
          "time": 184.999815,
          "velocity": 0.7007874015748031
        },
        {
          "duration": 0.454544999999996,
          "durationTicks": 960,
          "midi": 40,
          "name": "E2",
          "ticks": 391680,
          "time": 185.45436,
          "velocity": 0.7007874015748031
        },
        {
          "duration": 0.454544999999996,
          "durationTicks": 960,
          "midi": 40,
          "name": "E2",
          "ticks": 392640,
          "time": 185.908905,
          "velocity": 0.7007874015748031
        },
        {
          "duration": 0.4545450000000244,
          "durationTicks": 960,
          "midi": 40,
          "name": "E2",
          "ticks": 393600,
          "time": 186.36345,
          "velocity": 0.7007874015748031
        },
        {
          "duration": 0.454544999999996,
          "durationTicks": 960,
          "midi": 40,
          "name": "E2",
          "ticks": 394560,
          "time": 186.81799500000002,
          "velocity": 0.7007874015748031
        },
        {
          "duration": 0.454544999999996,
          "durationTicks": 960,
          "midi": 40,
          "name": "E2",
          "ticks": 395520,
          "time": 187.27254000000002,
          "velocity": 0.7007874015748031
        },
        {
          "duration": 0.454544999999996,
          "durationTicks": 960,
          "midi": 40,
          "name": "E2",
          "ticks": 396480,
          "time": 187.72708500000002,
          "velocity": 0.7007874015748031
        },
        {
          "duration": 0.454544999999996,
          "durationTicks": 960,
          "midi": 40,
          "name": "E2",
          "ticks": 397440,
          "time": 188.18163,
          "velocity": 0.7007874015748031
        },
        {
          "duration": 0.454544999999996,
          "durationTicks": 960,
          "midi": 40,
          "name": "E2",
          "ticks": 398400,
          "time": 188.636175,
          "velocity": 0.7007874015748031
        },
        {
          "duration": 0.454544999999996,
          "durationTicks": 960,
          "midi": 40,
          "name": "E2",
          "ticks": 399360,
          "time": 189.09072,
          "velocity": 0.7007874015748031
        },
        {
          "duration": 0.4545450000000244,
          "durationTicks": 960,
          "midi": 40,
          "name": "E2",
          "ticks": 400320,
          "time": 189.545265,
          "velocity": 0.7007874015748031
        },
        {
          "duration": 0.454544999999996,
          "durationTicks": 960,
          "midi": 40,
          "name": "E2",
          "ticks": 401280,
          "time": 189.99981000000002,
          "velocity": 0.7007874015748031
        },
        {
          "duration": 0.454544999999996,
          "durationTicks": 960,
          "midi": 40,
          "name": "E2",
          "ticks": 402240,
          "time": 190.45435500000002,
          "velocity": 0.7007874015748031
        },
        {
          "duration": 0.454544999999996,
          "durationTicks": 960,
          "midi": 40,
          "name": "E2",
          "ticks": 403200,
          "time": 190.90890000000002,
          "velocity": 0.7007874015748031
        },
        {
          "duration": 0.454544999999996,
          "durationTicks": 960,
          "midi": 40,
          "name": "E2",
          "ticks": 404160,
          "time": 191.363445,
          "velocity": 0.7007874015748031
        },
        {
          "duration": 0.454544999999996,
          "durationTicks": 960,
          "midi": 40,
          "name": "E2",
          "ticks": 405120,
          "time": 191.81799,
          "velocity": 0.7007874015748031
        },
        {
          "duration": 0.454544999999996,
          "durationTicks": 960,
          "midi": 40,
          "name": "E2",
          "ticks": 406080,
          "time": 192.272535,
          "velocity": 0.7007874015748031
        },
        {
          "duration": 0.4545450000000244,
          "durationTicks": 960,
          "midi": 40,
          "name": "E2",
          "ticks": 407040,
          "time": 192.72708,
          "velocity": 0.7007874015748031
        },
        {
          "duration": 0.454544999999996,
          "durationTicks": 960,
          "midi": 40,
          "name": "E2",
          "ticks": 408000,
          "time": 193.18162500000003,
          "velocity": 0.7007874015748031
        },
        {
          "duration": 0.454544999999996,
          "durationTicks": 960,
          "midi": 40,
          "name": "E2",
          "ticks": 408960,
          "time": 193.63617000000002,
          "velocity": 0.7007874015748031
        },
        {
          "duration": 0.454544999999996,
          "durationTicks": 960,
          "midi": 40,
          "name": "E2",
          "ticks": 409920,
          "time": 194.09071500000002,
          "velocity": 0.7007874015748031
        },
        {
          "duration": 0.454544999999996,
          "durationTicks": 960,
          "midi": 40,
          "name": "E2",
          "ticks": 410880,
          "time": 194.54526,
          "velocity": 0.7007874015748031
        },
        {
          "duration": 0.454544999999996,
          "durationTicks": 960,
          "midi": 40,
          "name": "E2",
          "ticks": 411840,
          "time": 194.999805,
          "velocity": 0.7007874015748031
        },
        {
          "duration": 0.454544999999996,
          "durationTicks": 960,
          "midi": 40,
          "name": "E2",
          "ticks": 412800,
          "time": 195.45435,
          "velocity": 0.7007874015748031
        },
        {
          "duration": 0.4545450000000244,
          "durationTicks": 960,
          "midi": 40,
          "name": "E2",
          "ticks": 413760,
          "time": 195.908895,
          "velocity": 0.7007874015748031
        },
        {
          "duration": 0.454544999999996,
          "durationTicks": 960,
          "midi": 40,
          "name": "E2",
          "ticks": 414720,
          "time": 196.36344000000003,
          "velocity": 0.7007874015748031
        },
        {
          "duration": 0.454544999999996,
          "durationTicks": 960,
          "midi": 40,
          "name": "E2",
          "ticks": 415680,
          "time": 196.81798500000002,
          "velocity": 0.7007874015748031
        },
        {
          "duration": 0.454544999999996,
          "durationTicks": 960,
          "midi": 40,
          "name": "E2",
          "ticks": 416640,
          "time": 197.27253000000002,
          "velocity": 0.7007874015748031
        },
        {
          "duration": 0.454544999999996,
          "durationTicks": 960,
          "midi": 40,
          "name": "E2",
          "ticks": 417600,
          "time": 197.727075,
          "velocity": 0.7007874015748031
        }
      ]
    },
    {
      "channel": 0,
      "controlChanges": {
        "7": [
          {
            "number": 7,
            "ticks": 0,
            "time": 0,
            "value": 1
          }
        ]
      },
      "pitchBends": [],
      "instrument": {
        "family": "piano",
        "number": 0,
        "name": "acoustic grand piano"
      },
      "name": "Electric Bass (Finger)",
      "notes": [],
      "endOfTrackTicks": 422400
    },
    {
      "channel": 12,
      "controlChanges": {
        "10": [
          {
            "number": 10,
            "ticks": 0,
            "time": 0,
            "value": 0.10236220472440945
          }
        ]
      },
      "pitchBends": [],
      "instrument": {
        "family": "bass",
        "number": 33,
        "name": "electric bass (finger)"
      },
      "name": "",
      "notes": [
        {
          "duration": 0.2272725,
          "durationTicks": 480,
          "midi": 51,
          "name": "D#3",
          "ticks": 3840,
          "time": 1.8181800000000001,
          "velocity": 0.7007874015748031
        },
        {
          "duration": 0.2272725,
          "durationTicks": 480,
          "midi": 44,
          "name": "G#2",
          "ticks": 3840,
          "time": 1.8181800000000001,
          "velocity": 0.7007874015748031
        },
        {
          "duration": 0.2272725000000002,
          "durationTicks": 480,
          "midi": 51,
          "name": "D#3",
          "ticks": 5280,
          "time": 2.4999975,
          "velocity": 0.7007874015748031
        },
        {
          "duration": 0.2272725000000002,
          "durationTicks": 480,
          "midi": 44,
          "name": "G#2",
          "ticks": 5280,
          "time": 2.4999975,
          "velocity": 0.7007874015748031
        },
        {
          "duration": 0.2272725000000002,
          "durationTicks": 480,
          "midi": 54,
          "name": "F#3",
          "ticks": 7680,
          "time": 3.6363600000000003,
          "velocity": 0.7007874015748031
        },
        {
          "duration": 0.2272725000000002,
          "durationTicks": 480,
          "midi": 47,
          "name": "B2",
          "ticks": 7680,
          "time": 3.6363600000000003,
          "velocity": 0.7007874015748031
        },
        {
          "duration": 0.22727250000000065,
          "durationTicks": 480,
          "midi": 54,
          "name": "F#3",
          "ticks": 9120,
          "time": 4.3181775,
          "velocity": 0.7007874015748031
        },
        {
          "duration": 0.22727250000000065,
          "durationTicks": 480,
          "midi": 47,
          "name": "B2",
          "ticks": 9120,
          "time": 4.3181775,
          "velocity": 0.7007874015748031
        },
        {
          "duration": 0.22727249999999977,
          "durationTicks": 480,
          "midi": 42,
          "name": "F#2",
          "ticks": 11520,
          "time": 5.454540000000001,
          "velocity": 0.7007874015748031
        },
        {
          "duration": 0.22727249999999977,
          "durationTicks": 480,
          "midi": 49,
          "name": "C#3",
          "ticks": 11520,
          "time": 5.454540000000001,
          "velocity": 0.7007874015748031
        },
        {
          "duration": 0.22727249999999977,
          "durationTicks": 480,
          "midi": 42,
          "name": "F#2",
          "ticks": 12960,
          "time": 6.136357500000001,
          "velocity": 0.7007874015748031
        },
        {
          "duration": 0.22727249999999977,
          "durationTicks": 480,
          "midi": 49,
          "name": "C#3",
          "ticks": 12960,
          "time": 6.136357500000001,
          "velocity": 0.7007874015748031
        },
        {
          "duration": 0.22727249999999977,
          "durationTicks": 480,
          "midi": 40,
          "name": "E2",
          "ticks": 15360,
          "time": 7.2727200000000005,
          "velocity": 0.7007874015748031
        },
        {
          "duration": 0.22727249999999977,
          "durationTicks": 480,
          "midi": 47,
          "name": "B2",
          "ticks": 15360,
          "time": 7.2727200000000005,
          "velocity": 0.7007874015748031
        },
        {
          "duration": 0.22727249999999977,
          "durationTicks": 480,
          "midi": 40,
          "name": "E2",
          "ticks": 16800,
          "time": 7.954537500000001,
          "velocity": 0.7007874015748031
        },
        {
          "duration": 0.22727249999999977,
          "durationTicks": 480,
          "midi": 47,
          "name": "B2",
          "ticks": 16800,
          "time": 7.954537500000001,
          "velocity": 0.7007874015748031
        },
        {
          "duration": 0.45454499999999953,
          "durationTicks": 960,
          "midi": 54,
          "name": "F#3",
          "ticks": 17760,
          "time": 8.4090825,
          "velocity": 0.7007874015748031
        },
        {
          "duration": 0.45454499999999953,
          "durationTicks": 960,
          "midi": 49,
          "name": "C#3",
          "ticks": 17760,
          "time": 8.4090825,
          "velocity": 0.7007874015748031
        },
        {
          "duration": 0.45454499999999953,
          "durationTicks": 960,
          "midi": 42,
          "name": "F#2",
          "ticks": 17760,
          "time": 8.4090825,
          "velocity": 0.7007874015748031
        },
        {
          "duration": 0.22727250000000154,
          "durationTicks": 480,
          "midi": 55,
          "name": "G3",
          "ticks": 18720,
          "time": 8.8636275,
          "velocity": 0.7007874015748031
        },
        {
          "duration": 0.22727250000000154,
          "durationTicks": 480,
          "midi": 50,
          "name": "D3",
          "ticks": 18720,
          "time": 8.8636275,
          "velocity": 0.7007874015748031
        },
        {
          "duration": 0.22727250000000154,
          "durationTicks": 480,
          "midi": 43,
          "name": "G2",
          "ticks": 18720,
          "time": 8.8636275,
          "velocity": 0.7007874015748031
        },
        {
          "duration": 0.22727249999999977,
          "durationTicks": 480,
          "midi": 51,
          "name": "D#3",
          "ticks": 19200,
          "time": 9.090900000000001,
          "velocity": 0.7007874015748031
        },
        {
          "duration": 0.22727249999999977,
          "durationTicks": 480,
          "midi": 44,
          "name": "G#2",
          "ticks": 19200,
          "time": 9.090900000000001,
          "velocity": 0.7007874015748031
        },
        {
          "duration": 0.22727249999999977,
          "durationTicks": 480,
          "midi": 56,
          "name": "G#3",
          "ticks": 19200,
          "time": 9.090900000000001,
          "velocity": 0.7007874015748031
        },
        {
          "duration": 0.22727249999999977,
          "durationTicks": 480,
          "midi": 51,
          "name": "D#3",
          "ticks": 20640,
          "time": 9.7727175,
          "velocity": 0.7007874015748031
        },
        {
          "duration": 0.22727249999999977,
          "durationTicks": 480,
          "midi": 44,
          "name": "G#2",
          "ticks": 20640,
          "time": 9.7727175,
          "velocity": 0.7007874015748031
        },
        {
          "duration": 0.22727249999999977,
          "durationTicks": 480,
          "midi": 54,
          "name": "F#3",
          "ticks": 23040,
          "time": 10.909080000000001,
          "velocity": 0.7007874015748031
        },
        {
          "duration": 0.22727249999999977,
          "durationTicks": 480,
          "midi": 47,
          "name": "B2",
          "ticks": 23040,
          "time": 10.909080000000001,
          "velocity": 0.7007874015748031
        },
        {
          "duration": 0.22727249999999977,
          "durationTicks": 480,
          "midi": 54,
          "name": "F#3",
          "ticks": 24480,
          "time": 11.5908975,
          "velocity": 0.7007874015748031
        },
        {
          "duration": 0.22727249999999977,
          "durationTicks": 480,
          "midi": 47,
          "name": "B2",
          "ticks": 24480,
          "time": 11.5908975,
          "velocity": 0.7007874015748031
        },
        {
          "duration": 0.22727249999999977,
          "durationTicks": 480,
          "midi": 42,
          "name": "F#2",
          "ticks": 26880,
          "time": 12.727260000000001,
          "velocity": 0.7007874015748031
        },
        {
          "duration": 0.22727249999999977,
          "durationTicks": 480,
          "midi": 49,
          "name": "C#3",
          "ticks": 26880,
          "time": 12.727260000000001,
          "velocity": 0.7007874015748031
        },
        {
          "duration": 0.22727249999999977,
          "durationTicks": 480,
          "midi": 42,
          "name": "F#2",
          "ticks": 28320,
          "time": 13.4090775,
          "velocity": 0.7007874015748031
        },
        {
          "duration": 0.22727249999999977,
          "durationTicks": 480,
          "midi": 49,
          "name": "C#3",
          "ticks": 28320,
          "time": 13.4090775,
          "velocity": 0.7007874015748031
        },
        {
          "duration": 0.22727249999999977,
          "durationTicks": 480,
          "midi": 40,
          "name": "E2",
          "ticks": 30720,
          "time": 14.545440000000001,
          "velocity": 0.7007874015748031
        },
        {
          "duration": 0.22727249999999977,
          "durationTicks": 480,
          "midi": 47,
          "name": "B2",
          "ticks": 30720,
          "time": 14.545440000000001,
          "velocity": 0.7007874015748031
        },
        {
          "duration": 0.22727250000000154,
          "durationTicks": 480,
          "midi": 40,
          "name": "E2",
          "ticks": 32160,
          "time": 15.2272575,
          "velocity": 0.7007874015748031
        },
        {
          "duration": 0.22727250000000154,
          "durationTicks": 480,
          "midi": 47,
          "name": "B2",
          "ticks": 32160,
          "time": 15.2272575,
          "velocity": 0.7007874015748031
        },
        {
          "duration": 0.45454499999999776,
          "durationTicks": 960,
          "midi": 54,
          "name": "F#3",
          "ticks": 33120,
          "time": 15.681802500000002,
          "velocity": 0.7007874015748031
        },
        {
          "duration": 0.45454499999999776,
          "durationTicks": 960,
          "midi": 49,
          "name": "C#3",
          "ticks": 33120,
          "time": 15.681802500000002,
          "velocity": 0.7007874015748031
        },
        {
          "duration": 0.45454499999999776,
          "durationTicks": 960,
          "midi": 42,
          "name": "F#2",
          "ticks": 33120,
          "time": 15.681802500000002,
          "velocity": 0.7007874015748031
        },
        {
          "duration": 0.22727250000000154,
          "durationTicks": 480,
          "midi": 55,
          "name": "G3",
          "ticks": 34080,
          "time": 16.1363475,
          "velocity": 0.7007874015748031
        },
        {
          "duration": 0.22727250000000154,
          "durationTicks": 480,
          "midi": 50,
          "name": "D3",
          "ticks": 34080,
          "time": 16.1363475,
          "velocity": 0.7007874015748031
        },
        {
          "duration": 0.22727250000000154,
          "durationTicks": 480,
          "midi": 43,
          "name": "G2",
          "ticks": 34080,
          "time": 16.1363475,
          "velocity": 0.7007874015748031
        },
        {
          "duration": 0.22727250000000154,
          "durationTicks": 480,
          "midi": 51,
          "name": "D#3",
          "ticks": 34560,
          "time": 16.36362,
          "velocity": 0.7007874015748031
        },
        {
          "duration": 0.22727250000000154,
          "durationTicks": 480,
          "midi": 44,
          "name": "G#2",
          "ticks": 34560,
          "time": 16.36362,
          "velocity": 0.7007874015748031
        },
        {
          "duration": 0.22727250000000154,
          "durationTicks": 480,
          "midi": 56,
          "name": "G#3",
          "ticks": 34560,
          "time": 16.36362,
          "velocity": 0.7007874015748031
        },
        {
          "duration": 0.227272499999998,
          "durationTicks": 480,
          "midi": 51,
          "name": "D#3",
          "ticks": 36000,
          "time": 17.045437500000002,
          "velocity": 0.7007874015748031
        },
        {
          "duration": 0.227272499999998,
          "durationTicks": 480,
          "midi": 44,
          "name": "G#2",
          "ticks": 36000,
          "time": 17.045437500000002,
          "velocity": 0.7007874015748031
        },
        {
          "duration": 0.227272499999998,
          "durationTicks": 480,
          "midi": 54,
          "name": "F#3",
          "ticks": 38400,
          "time": 18.181800000000003,
          "velocity": 0.7007874015748031
        },
        {
          "duration": 0.227272499999998,
          "durationTicks": 480,
          "midi": 47,
          "name": "B2",
          "ticks": 38400,
          "time": 18.181800000000003,
          "velocity": 0.7007874015748031
        },
        {
          "duration": 0.22727250000000154,
          "durationTicks": 480,
          "midi": 54,
          "name": "F#3",
          "ticks": 39840,
          "time": 18.8636175,
          "velocity": 0.7007874015748031
        },
        {
          "duration": 0.22727250000000154,
          "durationTicks": 480,
          "midi": 47,
          "name": "B2",
          "ticks": 39840,
          "time": 18.8636175,
          "velocity": 0.7007874015748031
        },
        {
          "duration": 0.22727250000000154,
          "durationTicks": 480,
          "midi": 42,
          "name": "F#2",
          "ticks": 42240,
          "time": 19.99998,
          "velocity": 0.7007874015748031
        },
        {
          "duration": 0.22727250000000154,
          "durationTicks": 480,
          "midi": 49,
          "name": "C#3",
          "ticks": 42240,
          "time": 19.99998,
          "velocity": 0.7007874015748031
        },
        {
          "duration": 0.227272499999998,
          "durationTicks": 480,
          "midi": 42,
          "name": "F#2",
          "ticks": 43680,
          "time": 20.681797500000002,
          "velocity": 0.7007874015748031
        },
        {
          "duration": 0.227272499999998,
          "durationTicks": 480,
          "midi": 49,
          "name": "C#3",
          "ticks": 43680,
          "time": 20.681797500000002,
          "velocity": 0.7007874015748031
        },
        {
          "duration": 0.227272499999998,
          "durationTicks": 480,
          "midi": 40,
          "name": "E2",
          "ticks": 46080,
          "time": 21.818160000000002,
          "velocity": 0.7007874015748031
        },
        {
          "duration": 0.227272499999998,
          "durationTicks": 480,
          "midi": 47,
          "name": "B2",
          "ticks": 46080,
          "time": 21.818160000000002,
          "velocity": 0.7007874015748031
        },
        {
          "duration": 0.22727250000000154,
          "durationTicks": 480,
          "midi": 40,
          "name": "E2",
          "ticks": 47520,
          "time": 22.4999775,
          "velocity": 0.7007874015748031
        },
        {
          "duration": 0.22727250000000154,
          "durationTicks": 480,
          "midi": 47,
          "name": "B2",
          "ticks": 47520,
          "time": 22.4999775,
          "velocity": 0.7007874015748031
        },
        {
          "duration": 0.45454499999999953,
          "durationTicks": 960,
          "midi": 54,
          "name": "F#3",
          "ticks": 48480,
          "time": 22.954522500000003,
          "velocity": 0.7007874015748031
        },
        {
          "duration": 0.45454499999999953,
          "durationTicks": 960,
          "midi": 49,
          "name": "C#3",
          "ticks": 48480,
          "time": 22.954522500000003,
          "velocity": 0.7007874015748031
        },
        {
          "duration": 0.45454499999999953,
          "durationTicks": 960,
          "midi": 42,
          "name": "F#2",
          "ticks": 48480,
          "time": 22.954522500000003,
          "velocity": 0.7007874015748031
        },
        {
          "duration": 0.227272499999998,
          "durationTicks": 480,
          "midi": 55,
          "name": "G3",
          "ticks": 49440,
          "time": 23.409067500000003,
          "velocity": 0.7007874015748031
        },
        {
          "duration": 0.227272499999998,
          "durationTicks": 480,
          "midi": 50,
          "name": "D3",
          "ticks": 49440,
          "time": 23.409067500000003,
          "velocity": 0.7007874015748031
        },
        {
          "duration": 0.227272499999998,
          "durationTicks": 480,
          "midi": 43,
          "name": "G2",
          "ticks": 49440,
          "time": 23.409067500000003,
          "velocity": 0.7007874015748031
        },
        {
          "duration": 0.22727250000000154,
          "durationTicks": 480,
          "midi": 51,
          "name": "D#3",
          "ticks": 49920,
          "time": 23.63634,
          "velocity": 0.7007874015748031
        },
        {
          "duration": 0.22727250000000154,
          "durationTicks": 480,
          "midi": 44,
          "name": "G#2",
          "ticks": 49920,
          "time": 23.63634,
          "velocity": 0.7007874015748031
        },
        {
          "duration": 0.22727250000000154,
          "durationTicks": 480,
          "midi": 56,
          "name": "G#3",
          "ticks": 49920,
          "time": 23.63634,
          "velocity": 0.7007874015748031
        },
        {
          "duration": 0.22727250000000154,
          "durationTicks": 480,
          "midi": 51,
          "name": "D#3",
          "ticks": 51360,
          "time": 24.3181575,
          "velocity": 0.7007874015748031
        },
        {
          "duration": 0.22727250000000154,
          "durationTicks": 480,
          "midi": 44,
          "name": "G#2",
          "ticks": 51360,
          "time": 24.3181575,
          "velocity": 0.7007874015748031
        },
        {
          "duration": 0.227272499999998,
          "durationTicks": 480,
          "midi": 54,
          "name": "F#3",
          "ticks": 53760,
          "time": 25.454520000000002,
          "velocity": 0.7007874015748031
        },
        {
          "duration": 0.227272499999998,
          "durationTicks": 480,
          "midi": 47,
          "name": "B2",
          "ticks": 53760,
          "time": 25.454520000000002,
          "velocity": 0.7007874015748031
        },
        {
          "duration": 0.227272499999998,
          "durationTicks": 480,
          "midi": 54,
          "name": "F#3",
          "ticks": 55200,
          "time": 26.136337500000003,
          "velocity": 0.7007874015748031
        },
        {
          "duration": 0.227272499999998,
          "durationTicks": 480,
          "midi": 47,
          "name": "B2",
          "ticks": 55200,
          "time": 26.136337500000003,
          "velocity": 0.7007874015748031
        },
        {
          "duration": 0.22727250000000154,
          "durationTicks": 480,
          "midi": 42,
          "name": "F#2",
          "ticks": 57600,
          "time": 27.2727,
          "velocity": 0.7007874015748031
        },
        {
          "duration": 0.22727250000000154,
          "durationTicks": 480,
          "midi": 49,
          "name": "C#3",
          "ticks": 57600,
          "time": 27.2727,
          "velocity": 0.7007874015748031
        },
        {
          "duration": 0.22727250000000154,
          "durationTicks": 480,
          "midi": 42,
          "name": "F#2",
          "ticks": 59040,
          "time": 27.9545175,
          "velocity": 0.7007874015748031
        },
        {
          "duration": 0.22727250000000154,
          "durationTicks": 480,
          "midi": 49,
          "name": "C#3",
          "ticks": 59040,
          "time": 27.9545175,
          "velocity": 0.7007874015748031
        },
        {
          "duration": 0.22727250000000154,
          "durationTicks": 480,
          "midi": 40,
          "name": "E2",
          "ticks": 61440,
          "time": 29.090880000000002,
          "velocity": 0.7007874015748031
        },
        {
          "duration": 0.22727250000000154,
          "durationTicks": 480,
          "midi": 47,
          "name": "B2",
          "ticks": 61440,
          "time": 29.090880000000002,
          "velocity": 0.7007874015748031
        },
        {
          "duration": 0.227272499999998,
          "durationTicks": 480,
          "midi": 40,
          "name": "E2",
          "ticks": 62880,
          "time": 29.772697500000003,
          "velocity": 0.7007874015748031
        },
        {
          "duration": 0.227272499999998,
          "durationTicks": 480,
          "midi": 47,
          "name": "B2",
          "ticks": 62880,
          "time": 29.772697500000003,
          "velocity": 0.7007874015748031
        },
        {
          "duration": 0.45454499999999953,
          "durationTicks": 960,
          "midi": 54,
          "name": "F#3",
          "ticks": 63840,
          "time": 30.227242500000003,
          "velocity": 0.7007874015748031
        },
        {
          "duration": 0.45454499999999953,
          "durationTicks": 960,
          "midi": 49,
          "name": "C#3",
          "ticks": 63840,
          "time": 30.227242500000003,
          "velocity": 0.7007874015748031
        },
        {
          "duration": 0.45454499999999953,
          "durationTicks": 960,
          "midi": 42,
          "name": "F#2",
          "ticks": 63840,
          "time": 30.227242500000003,
          "velocity": 0.7007874015748031
        },
        {
          "duration": 0.22727250000000154,
          "durationTicks": 480,
          "midi": 55,
          "name": "G3",
          "ticks": 64800,
          "time": 30.681787500000002,
          "velocity": 0.7007874015748031
        },
        {
          "duration": 0.22727250000000154,
          "durationTicks": 480,
          "midi": 50,
          "name": "D3",
          "ticks": 64800,
          "time": 30.681787500000002,
          "velocity": 0.7007874015748031
        },
        {
          "duration": 0.22727250000000154,
          "durationTicks": 480,
          "midi": 43,
          "name": "G2",
          "ticks": 64800,
          "time": 30.681787500000002,
          "velocity": 0.7007874015748031
        },
        {
          "duration": 0.227272499999998,
          "durationTicks": 480,
          "midi": 51,
          "name": "D#3",
          "ticks": 65280,
          "time": 30.909060000000004,
          "velocity": 0.7007874015748031
        },
        {
          "duration": 0.227272499999998,
          "durationTicks": 480,
          "midi": 44,
          "name": "G#2",
          "ticks": 65280,
          "time": 30.909060000000004,
          "velocity": 0.7007874015748031
        },
        {
          "duration": 0.227272499999998,
          "durationTicks": 480,
          "midi": 56,
          "name": "G#3",
          "ticks": 65280,
          "time": 30.909060000000004,
          "velocity": 0.7007874015748031
        },
        {
          "duration": 0.22727250000000154,
          "durationTicks": 480,
          "midi": 51,
          "name": "D#3",
          "ticks": 66720,
          "time": 31.5908775,
          "velocity": 0.7007874015748031
        },
        {
          "duration": 0.22727250000000154,
          "durationTicks": 480,
          "midi": 44,
          "name": "G#2",
          "ticks": 66720,
          "time": 31.5908775,
          "velocity": 0.7007874015748031
        },
        {
          "duration": 0.227272499999998,
          "durationTicks": 480,
          "midi": 54,
          "name": "F#3",
          "ticks": 69120,
          "time": 32.72724,
          "velocity": 0.7007874015748031
        },
        {
          "duration": 0.227272499999998,
          "durationTicks": 480,
          "midi": 47,
          "name": "B2",
          "ticks": 69120,
          "time": 32.72724,
          "velocity": 0.7007874015748031
        },
        {
          "duration": 0.227272499999998,
          "durationTicks": 480,
          "midi": 54,
          "name": "F#3",
          "ticks": 70560,
          "time": 33.4090575,
          "velocity": 0.7007874015748031
        },
        {
          "duration": 0.227272499999998,
          "durationTicks": 480,
          "midi": 47,
          "name": "B2",
          "ticks": 70560,
          "time": 33.4090575,
          "velocity": 0.7007874015748031
        },
        {
          "duration": 0.2272725000000051,
          "durationTicks": 480,
          "midi": 42,
          "name": "F#2",
          "ticks": 72960,
          "time": 34.54542,
          "velocity": 0.7007874015748031
        },
        {
          "duration": 0.2272725000000051,
          "durationTicks": 480,
          "midi": 49,
          "name": "C#3",
          "ticks": 72960,
          "time": 34.54542,
          "velocity": 0.7007874015748031
        },
        {
          "duration": 0.227272499999998,
          "durationTicks": 480,
          "midi": 42,
          "name": "F#2",
          "ticks": 74400,
          "time": 35.2272375,
          "velocity": 0.7007874015748031
        },
        {
          "duration": 0.227272499999998,
          "durationTicks": 480,
          "midi": 49,
          "name": "C#3",
          "ticks": 74400,
          "time": 35.2272375,
          "velocity": 0.7007874015748031
        },
        {
          "duration": 0.227272499999998,
          "durationTicks": 480,
          "midi": 40,
          "name": "E2",
          "ticks": 76800,
          "time": 36.363600000000005,
          "velocity": 0.7007874015748031
        },
        {
          "duration": 0.227272499999998,
          "durationTicks": 480,
          "midi": 47,
          "name": "B2",
          "ticks": 76800,
          "time": 36.363600000000005,
          "velocity": 0.7007874015748031
        },
        {
          "duration": 0.2272725000000051,
          "durationTicks": 480,
          "midi": 40,
          "name": "E2",
          "ticks": 78240,
          "time": 37.0454175,
          "velocity": 0.7007874015748031
        },
        {
          "duration": 0.2272725000000051,
          "durationTicks": 480,
          "midi": 47,
          "name": "B2",
          "ticks": 78240,
          "time": 37.0454175,
          "velocity": 0.7007874015748031
        },
        {
          "duration": 0.4545450000000031,
          "durationTicks": 960,
          "midi": 54,
          "name": "F#3",
          "ticks": 79200,
          "time": 37.4999625,
          "velocity": 0.7007874015748031
        },
        {
          "duration": 0.4545450000000031,
          "durationTicks": 960,
          "midi": 49,
          "name": "C#3",
          "ticks": 79200,
          "time": 37.4999625,
          "velocity": 0.7007874015748031
        },
        {
          "duration": 0.4545450000000031,
          "durationTicks": 960,
          "midi": 42,
          "name": "F#2",
          "ticks": 79200,
          "time": 37.4999625,
          "velocity": 0.7007874015748031
        },
        {
          "duration": 0.227272499999998,
          "durationTicks": 480,
          "midi": 55,
          "name": "G3",
          "ticks": 80160,
          "time": 37.954507500000005,
          "velocity": 0.7007874015748031
        },
        {
          "duration": 0.227272499999998,
          "durationTicks": 480,
          "midi": 50,
          "name": "D3",
          "ticks": 80160,
          "time": 37.954507500000005,
          "velocity": 0.7007874015748031
        },
        {
          "duration": 0.227272499999998,
          "durationTicks": 480,
          "midi": 43,
          "name": "G2",
          "ticks": 80160,
          "time": 37.954507500000005,
          "velocity": 0.7007874015748031
        },
        {
          "duration": 0.227272499999998,
          "durationTicks": 480,
          "midi": 32,
          "name": "G#1",
          "ticks": 80640,
          "time": 38.18178,
          "velocity": 0.7007874015748031
        },
        {
          "duration": 0.227272499999998,
          "durationTicks": 480,
          "midi": 44,
          "name": "G#2",
          "ticks": 81120,
          "time": 38.4090525,
          "velocity": 0.7007874015748031
        },
        {
          "duration": 0.2272725000000051,
          "durationTicks": 480,
          "midi": 32,
          "name": "G#1",
          "ticks": 81600,
          "time": 38.636325,
          "velocity": 0.7007874015748031
        },
        {
          "duration": 0.227272499999998,
          "durationTicks": 480,
          "midi": 44,
          "name": "G#2",
          "ticks": 82080,
          "time": 38.863597500000004,
          "velocity": 0.7007874015748031
        },
        {
          "duration": 0.227272499999998,
          "durationTicks": 480,
          "midi": 32,
          "name": "G#1",
          "ticks": 82560,
          "time": 39.09087,
          "velocity": 0.7007874015748031
        },
        {
          "duration": 0.2272725000000051,
          "durationTicks": 480,
          "midi": 44,
          "name": "G#2",
          "ticks": 83040,
          "time": 39.3181425,
          "velocity": 0.7007874015748031
        },
        {
          "duration": 0.227272499999998,
          "durationTicks": 480,
          "midi": 32,
          "name": "G#1",
          "ticks": 83520,
          "time": 39.545415000000006,
          "velocity": 0.7007874015748031
        },
        {
          "duration": 0.227272499999998,
          "durationTicks": 480,
          "midi": 44,
          "name": "G#2",
          "ticks": 84000,
          "time": 39.7726875,
          "velocity": 0.7007874015748031
        },
        {
          "duration": 0.227272499999998,
          "durationTicks": 480,
          "midi": 35,
          "name": "B1",
          "ticks": 84480,
          "time": 39.99996,
          "velocity": 0.7007874015748031
        },
        {
          "duration": 0.2272725000000051,
          "durationTicks": 480,
          "midi": 47,
          "name": "B2",
          "ticks": 84960,
          "time": 40.2272325,
          "velocity": 0.7007874015748031
        },
        {
          "duration": 0.227272499999998,
          "durationTicks": 480,
          "midi": 35,
          "name": "B1",
          "ticks": 85440,
          "time": 40.454505000000005,
          "velocity": 0.7007874015748031
        },
        {
          "duration": 0.227272499999998,
          "durationTicks": 480,
          "midi": 47,
          "name": "B2",
          "ticks": 85920,
          "time": 40.6817775,
          "velocity": 0.7007874015748031
        },
        {
          "duration": 0.2272725000000051,
          "durationTicks": 480,
          "midi": 35,
          "name": "B1",
          "ticks": 86400,
          "time": 40.90905,
          "velocity": 0.7007874015748031
        },
        {
          "duration": 0.227272499999998,
          "durationTicks": 480,
          "midi": 47,
          "name": "B2",
          "ticks": 86880,
          "time": 41.136322500000006,
          "velocity": 0.7007874015748031
        },
        {
          "duration": 0.227272499999998,
          "durationTicks": 480,
          "midi": 35,
          "name": "B1",
          "ticks": 87360,
          "time": 41.363595000000004,
          "velocity": 0.7007874015748031
        },
        {
          "duration": 0.227272499999998,
          "durationTicks": 480,
          "midi": 47,
          "name": "B2",
          "ticks": 87840,
          "time": 41.5908675,
          "velocity": 0.7007874015748031
        },
        {
          "duration": 0.2272725000000051,
          "durationTicks": 480,
          "midi": 30,
          "name": "F#1",
          "ticks": 88320,
          "time": 41.81814,
          "velocity": 0.7007874015748031
        },
        {
          "duration": 0.227272499999998,
          "durationTicks": 480,
          "midi": 42,
          "name": "F#2",
          "ticks": 88800,
          "time": 42.045412500000005,
          "velocity": 0.7007874015748031
        },
        {
          "duration": 0.227272499999998,
          "durationTicks": 480,
          "midi": 30,
          "name": "F#1",
          "ticks": 89280,
          "time": 42.272685,
          "velocity": 0.7007874015748031
        },
        {
          "duration": 0.2272725000000051,
          "durationTicks": 480,
          "midi": 42,
          "name": "F#2",
          "ticks": 89760,
          "time": 42.4999575,
          "velocity": 0.7007874015748031
        },
        {
          "duration": 0.227272499999998,
          "durationTicks": 480,
          "midi": 30,
          "name": "F#1",
          "ticks": 90240,
          "time": 42.727230000000006,
          "velocity": 0.7007874015748031
        },
        {
          "duration": 0.227272499999998,
          "durationTicks": 480,
          "midi": 42,
          "name": "F#2",
          "ticks": 90720,
          "time": 42.954502500000004,
          "velocity": 0.7007874015748031
        },
        {
          "duration": 0.227272499999998,
          "durationTicks": 480,
          "midi": 30,
          "name": "F#1",
          "ticks": 91200,
          "time": 43.181775,
          "velocity": 0.7007874015748031
        },
        {
          "duration": 0.2272725000000051,
          "durationTicks": 480,
          "midi": 42,
          "name": "F#2",
          "ticks": 91680,
          "time": 43.4090475,
          "velocity": 0.7007874015748031
        },
        {
          "duration": 0.227272499999998,
          "durationTicks": 480,
          "midi": 28,
          "name": "E1",
          "ticks": 92160,
          "time": 43.636320000000005,
          "velocity": 0.7007874015748031
        },
        {
          "duration": 0.227272499999998,
          "durationTicks": 480,
          "midi": 40,
          "name": "E2",
          "ticks": 92640,
          "time": 43.8635925,
          "velocity": 0.7007874015748031
        },
        {
          "duration": 0.2272725000000051,
          "durationTicks": 480,
          "midi": 28,
          "name": "E1",
          "ticks": 93120,
          "time": 44.090865,
          "velocity": 0.7007874015748031
        },
        {
          "duration": 0.227272499999998,
          "durationTicks": 480,
          "midi": 40,
          "name": "E2",
          "ticks": 93600,
          "time": 44.318137500000006,
          "velocity": 0.7007874015748031
        },
        {
          "duration": 0.227272499999998,
          "durationTicks": 480,
          "midi": 28,
          "name": "E1",
          "ticks": 94080,
          "time": 44.545410000000004,
          "velocity": 0.7007874015748031
        },
        {
          "duration": 0.227272499999998,
          "durationTicks": 480,
          "midi": 40,
          "name": "E2",
          "ticks": 94560,
          "time": 44.7726825,
          "velocity": 0.7007874015748031
        },
        {
          "duration": 0.227272499999998,
          "durationTicks": 480,
          "midi": 32,
          "name": "G#1",
          "ticks": 96000,
          "time": 45.4545,
          "velocity": 0.7007874015748031
        },
        {
          "duration": 0.2272725000000051,
          "durationTicks": 480,
          "midi": 44,
          "name": "G#2",
          "ticks": 96480,
          "time": 45.6817725,
          "velocity": 0.7007874015748031
        },
        {
          "duration": 0.227272499999998,
          "durationTicks": 480,
          "midi": 32,
          "name": "G#1",
          "ticks": 96960,
          "time": 45.909045000000006,
          "velocity": 0.7007874015748031
        },
        {
          "duration": 0.227272499999998,
          "durationTicks": 480,
          "midi": 44,
          "name": "G#2",
          "ticks": 97440,
          "time": 46.136317500000004,
          "velocity": 0.7007874015748031
        },
        {
          "duration": 0.227272499999998,
          "durationTicks": 480,
          "midi": 32,
          "name": "G#1",
          "ticks": 97920,
          "time": 46.36359,
          "velocity": 0.7007874015748031
        },
        {
          "duration": 0.2272725000000051,
          "durationTicks": 480,
          "midi": 42,
          "name": "F#2",
          "ticks": 98400,
          "time": 46.5908625,
          "velocity": 0.7007874015748031
        },
        {
          "duration": 0.2272725000000051,
          "durationTicks": 480,
          "midi": 35,
          "name": "B1",
          "ticks": 99840,
          "time": 47.27268,
          "velocity": 0.7007874015748031
        },
        {
          "duration": 0.227272499999998,
          "durationTicks": 480,
          "midi": 47,
          "name": "B2",
          "ticks": 100320,
          "time": 47.499952500000006,
          "velocity": 0.7007874015748031
        },
        {
          "duration": 0.227272499999998,
          "durationTicks": 480,
          "midi": 35,
          "name": "B1",
          "ticks": 100800,
          "time": 47.727225000000004,
          "velocity": 0.7007874015748031
        },
        {
          "duration": 0.227272499999998,
          "durationTicks": 480,
          "midi": 46,
          "name": "A#2",
          "ticks": 101280,
          "time": 47.9544975,
          "velocity": 0.7007874015748031
        },
        {
          "duration": 0.2272725000000051,
          "durationTicks": 480,
          "midi": 35,
          "name": "B1",
          "ticks": 101760,
          "time": 48.18177,
          "velocity": 0.7007874015748031
        },
        {
          "duration": 0.227272499999998,
          "durationTicks": 480,
          "midi": 47,
          "name": "B2",
          "ticks": 102240,
          "time": 48.409042500000005,
          "velocity": 0.7007874015748031
        },
        {
          "duration": 0.227272499999998,
          "durationTicks": 480,
          "midi": 30,
          "name": "F#1",
          "ticks": 103680,
          "time": 49.090860000000006,
          "velocity": 0.7007874015748031
        },
        {
          "duration": 0.227272499999998,
          "durationTicks": 480,
          "midi": 42,
          "name": "F#2",
          "ticks": 104160,
          "time": 49.318132500000004,
          "velocity": 0.7007874015748031
        },
        {
          "duration": 0.227272499999998,
          "durationTicks": 480,
          "midi": 30,
          "name": "F#1",
          "ticks": 104640,
          "time": 49.545405,
          "velocity": 0.7007874015748031
        },
        {
          "duration": 0.2272725000000051,
          "durationTicks": 480,
          "midi": 42,
          "name": "F#2",
          "ticks": 105120,
          "time": 49.7726775,
          "velocity": 0.7007874015748031
        },
        {
          "duration": 0.227272499999998,
          "durationTicks": 480,
          "midi": 30,
          "name": "F#1",
          "ticks": 105600,
          "time": 49.999950000000005,
          "velocity": 0.7007874015748031
        },
        {
          "duration": 0.227272499999998,
          "durationTicks": 480,
          "midi": 42,
          "name": "F#2",
          "ticks": 106080,
          "time": 50.2272225,
          "velocity": 0.7007874015748031
        },
        {
          "duration": 0.2272725000000051,
          "durationTicks": 480,
          "midi": 30,
          "name": "F#1",
          "ticks": 106560,
          "time": 50.454495,
          "velocity": 0.7007874015748031
        },
        {
          "duration": 0.227272499999998,
          "durationTicks": 480,
          "midi": 42,
          "name": "F#2",
          "ticks": 107040,
          "time": 50.68176750000001,
          "velocity": 0.7007874015748031
        },
        {
          "duration": 0.227272499999998,
          "durationTicks": 480,
          "midi": 28,
          "name": "E1",
          "ticks": 107520,
          "time": 50.909040000000005,
          "velocity": 0.7007874015748031
        },
        {
          "duration": 0.227272499999998,
          "durationTicks": 480,
          "midi": 40,
          "name": "E2",
          "ticks": 108000,
          "time": 51.1363125,
          "velocity": 0.7007874015748031
        },
        {
          "duration": 0.2272725000000051,
          "durationTicks": 480,
          "midi": 28,
          "name": "E1",
          "ticks": 108480,
          "time": 51.363585,
          "velocity": 0.7007874015748031
        },
        {
          "duration": 0.227272499999998,
          "durationTicks": 480,
          "midi": 40,
          "name": "E2",
          "ticks": 108960,
          "time": 51.590857500000006,
          "velocity": 0.7007874015748031
        },
        {
          "duration": 0.227272499999998,
          "durationTicks": 480,
          "midi": 28,
          "name": "E1",
          "ticks": 109440,
          "time": 51.818130000000004,
          "velocity": 0.7007874015748031
        },
        {
          "duration": 0.2272725000000051,
          "durationTicks": 480,
          "midi": 40,
          "name": "E2",
          "ticks": 109920,
          "time": 52.0454025,
          "velocity": 0.7007874015748031
        },
        {
          "duration": 0.227272499999998,
          "durationTicks": 480,
          "midi": 32,
          "name": "G#1",
          "ticks": 111360,
          "time": 52.72722,
          "velocity": 0.7007874015748031
        },
        {
          "duration": 0.2272725000000051,
          "durationTicks": 480,
          "midi": 44,
          "name": "G#2",
          "ticks": 111840,
          "time": 52.9544925,
          "velocity": 0.7007874015748031
        },
        {
          "duration": 0.227272499999998,
          "durationTicks": 480,
          "midi": 32,
          "name": "G#1",
          "ticks": 112320,
          "time": 53.181765000000006,
          "velocity": 0.7007874015748031
        },
        {
          "duration": 0.227272499999998,
          "durationTicks": 480,
          "midi": 44,
          "name": "G#2",
          "ticks": 112800,
          "time": 53.409037500000004,
          "velocity": 0.7007874015748031
        },
        {
          "duration": 0.2272725000000051,
          "durationTicks": 480,
          "midi": 32,
          "name": "G#1",
          "ticks": 113280,
          "time": 53.63631,
          "velocity": 0.7007874015748031
        },
        {
          "duration": 0.227272499999998,
          "durationTicks": 480,
          "midi": 44,
          "name": "G#2",
          "ticks": 113760,
          "time": 53.86358250000001,
          "velocity": 0.7007874015748031
        },
        {
          "duration": 0.227272499999998,
          "durationTicks": 480,
          "midi": 32,
          "name": "G#1",
          "ticks": 114240,
          "time": 54.090855000000005,
          "velocity": 0.7007874015748031
        },
        {
          "duration": 0.227272499999998,
          "durationTicks": 480,
          "midi": 44,
          "name": "G#2",
          "ticks": 114720,
          "time": 54.3181275,
          "velocity": 0.7007874015748031
        },
        {
          "duration": 0.2272725000000051,
          "durationTicks": 480,
          "midi": 35,
          "name": "B1",
          "ticks": 115200,
          "time": 54.5454,
          "velocity": 0.7007874015748031
        },
        {
          "duration": 0.227272499999998,
          "durationTicks": 480,
          "midi": 47,
          "name": "B2",
          "ticks": 115680,
          "time": 54.772672500000006,
          "velocity": 0.7007874015748031
        },
        {
          "duration": 0.227272499999998,
          "durationTicks": 480,
          "midi": 35,
          "name": "B1",
          "ticks": 116160,
          "time": 54.999945000000004,
          "velocity": 0.7007874015748031
        },
        {
          "duration": 0.2272725000000051,
          "durationTicks": 480,
          "midi": 47,
          "name": "B2",
          "ticks": 116640,
          "time": 55.2272175,
          "velocity": 0.7007874015748031
        },
        {
          "duration": 0.227272499999998,
          "durationTicks": 480,
          "midi": 35,
          "name": "B1",
          "ticks": 117120,
          "time": 55.45449000000001,
          "velocity": 0.7007874015748031
        },
        {
          "duration": 0.227272499999998,
          "durationTicks": 480,
          "midi": 47,
          "name": "B2",
          "ticks": 117600,
          "time": 55.681762500000005,
          "velocity": 0.7007874015748031
        },
        {
          "duration": 0.227272499999998,
          "durationTicks": 480,
          "midi": 35,
          "name": "B1",
          "ticks": 118080,
          "time": 55.909035,
          "velocity": 0.7007874015748031
        },
        {
          "duration": 0.2272725000000051,
          "durationTicks": 480,
          "midi": 47,
          "name": "B2",
          "ticks": 118560,
          "time": 56.1363075,
          "velocity": 0.7007874015748031
        },
        {
          "duration": 0.227272499999998,
          "durationTicks": 480,
          "midi": 30,
          "name": "F#1",
          "ticks": 119040,
          "time": 56.363580000000006,
          "velocity": 0.7007874015748031
        },
        {
          "duration": 0.227272499999998,
          "durationTicks": 480,
          "midi": 42,
          "name": "F#2",
          "ticks": 119520,
          "time": 56.590852500000004,
          "velocity": 0.7007874015748031
        },
        {
          "duration": 0.2272725000000051,
          "durationTicks": 480,
          "midi": 30,
          "name": "F#1",
          "ticks": 120000,
          "time": 56.818125,
          "velocity": 0.7007874015748031
        },
        {
          "duration": 0.227272499999998,
          "durationTicks": 480,
          "midi": 42,
          "name": "F#2",
          "ticks": 120480,
          "time": 57.04539750000001,
          "velocity": 0.7007874015748031
        },
        {
          "duration": 0.227272499999998,
          "durationTicks": 480,
          "midi": 30,
          "name": "F#1",
          "ticks": 120960,
          "time": 57.272670000000005,
          "velocity": 0.7007874015748031
        },
        {
          "duration": 0.227272499999998,
          "durationTicks": 480,
          "midi": 42,
          "name": "F#2",
          "ticks": 121440,
          "time": 57.4999425,
          "velocity": 0.7007874015748031
        },
        {
          "duration": 0.2272725000000051,
          "durationTicks": 480,
          "midi": 30,
          "name": "F#1",
          "ticks": 121920,
          "time": 57.727215,
          "velocity": 0.7007874015748031
        },
        {
          "duration": 0.227272499999998,
          "durationTicks": 480,
          "midi": 42,
          "name": "F#2",
          "ticks": 122400,
          "time": 57.954487500000006,
          "velocity": 0.7007874015748031
        },
        {
          "duration": 0.227272499999998,
          "durationTicks": 480,
          "midi": 28,
          "name": "E1",
          "ticks": 122880,
          "time": 58.181760000000004,
          "velocity": 0.7007874015748031
        },
        {
          "duration": 0.2272725000000051,
          "durationTicks": 480,
          "midi": 40,
          "name": "E2",
          "ticks": 123360,
          "time": 58.4090325,
          "velocity": 0.7007874015748031
        },
        {
          "duration": 0.227272499999998,
          "durationTicks": 480,
          "midi": 28,
          "name": "E1",
          "ticks": 123840,
          "time": 58.63630500000001,
          "velocity": 0.7007874015748031
        },
        {
          "duration": 0.227272499999998,
          "durationTicks": 480,
          "midi": 40,
          "name": "E2",
          "ticks": 124320,
          "time": 58.863577500000005,
          "velocity": 0.7007874015748031
        },
        {
          "duration": 0.227272499999998,
          "durationTicks": 480,
          "midi": 28,
          "name": "E1",
          "ticks": 124800,
          "time": 59.09085,
          "velocity": 0.7007874015748031
        },
        {
          "duration": 0.2272725000000051,
          "durationTicks": 480,
          "midi": 40,
          "name": "E2",
          "ticks": 125280,
          "time": 59.3181225,
          "velocity": 0.7007874015748031
        },
        {
          "duration": 0.227272499999998,
          "durationTicks": 480,
          "midi": 42,
          "name": "F#2",
          "ticks": 125760,
          "time": 59.545395000000006,
          "velocity": 0.7007874015748031
        },
        {
          "duration": 0.227272499999998,
          "durationTicks": 480,
          "midi": 30,
          "name": "F#1",
          "ticks": 125760,
          "time": 59.545395000000006,
          "velocity": 0.7007874015748031
        },
        {
          "duration": 0.227272499999998,
          "durationTicks": 480,
          "midi": 43,
          "name": "G2",
          "ticks": 126240,
          "time": 59.772667500000004,
          "velocity": 0.7007874015748031
        },
        {
          "duration": 0.227272499999998,
          "durationTicks": 480,
          "midi": 31,
          "name": "G1",
          "ticks": 126240,
          "time": 59.772667500000004,
          "velocity": 0.7007874015748031
        },
        {
          "duration": 0.2272725000000051,
          "durationTicks": 480,
          "midi": 30,
          "name": "F#1",
          "ticks": 126720,
          "time": 59.99994,
          "velocity": 0.7007874015748031
        },
        {
          "duration": 0.227272499999998,
          "durationTicks": 480,
          "midi": 42,
          "name": "F#2",
          "ticks": 127200,
          "time": 60.22721250000001,
          "velocity": 0.7007874015748031
        },
        {
          "duration": 0.227272499999998,
          "durationTicks": 480,
          "midi": 30,
          "name": "F#1",
          "ticks": 127680,
          "time": 60.454485000000005,
          "velocity": 0.7007874015748031
        },
        {
          "duration": 0.227272499999998,
          "durationTicks": 480,
          "midi": 42,
          "name": "F#2",
          "ticks": 128160,
          "time": 60.6817575,
          "velocity": 0.7007874015748031
        },
        {
          "duration": 0.2272725000000051,
          "durationTicks": 480,
          "midi": 30,
          "name": "F#1",
          "ticks": 128640,
          "time": 60.90903,
          "velocity": 0.7007874015748031
        },
        {
          "duration": 0.227272499999998,
          "durationTicks": 480,
          "midi": 42,
          "name": "F#2",
          "ticks": 129120,
          "time": 61.136302500000006,
          "velocity": 0.7007874015748031
        },
        {
          "duration": 0.227272499999998,
          "durationTicks": 480,
          "midi": 30,
          "name": "F#1",
          "ticks": 129600,
          "time": 61.363575000000004,
          "velocity": 0.7007874015748031
        },
        {
          "duration": 0.2272725000000051,
          "durationTicks": 480,
          "midi": 42,
          "name": "F#2",
          "ticks": 130080,
          "time": 61.5908475,
          "velocity": 0.7007874015748031
        },
        {
          "duration": 0.227272499999998,
          "durationTicks": 480,
          "midi": 35,
          "name": "B1",
          "ticks": 130560,
          "time": 61.81812000000001,
          "velocity": 0.7007874015748031
        },
        {
          "duration": 0.227272499999998,
          "durationTicks": 480,
          "midi": 47,
          "name": "B2",
          "ticks": 131040,
          "time": 62.045392500000005,
          "velocity": 0.7007874015748031
        },
        {
          "duration": 0.227272499999998,
          "durationTicks": 480,
          "midi": 35,
          "name": "B1",
          "ticks": 131520,
          "time": 62.272665,
          "velocity": 0.7007874015748031
        },
        {
          "duration": 0.2272725000000051,
          "durationTicks": 480,
          "midi": 47,
          "name": "B2",
          "ticks": 132000,
          "time": 62.4999375,
          "velocity": 0.7007874015748031
        },
        {
          "duration": 0.227272499999998,
          "durationTicks": 480,
          "midi": 35,
          "name": "B1",
          "ticks": 132480,
          "time": 62.72721000000001,
          "velocity": 0.7007874015748031
        },
        {
          "duration": 0.227272499999998,
          "durationTicks": 480,
          "midi": 47,
          "name": "B2",
          "ticks": 132960,
          "time": 62.954482500000005,
          "velocity": 0.7007874015748031
        },
        {
          "duration": 0.2272725000000051,
          "durationTicks": 480,
          "midi": 35,
          "name": "B1",
          "ticks": 133440,
          "time": 63.181755,
          "velocity": 0.7007874015748031
        },
        {
          "duration": 0.227272499999998,
          "durationTicks": 480,
          "midi": 47,
          "name": "B2",
          "ticks": 133920,
          "time": 63.40902750000001,
          "velocity": 0.7007874015748031
        },
        {
          "duration": 0.227272499999998,
          "durationTicks": 480,
          "midi": 30,
          "name": "F#1",
          "ticks": 134400,
          "time": 63.636300000000006,
          "velocity": 0.7007874015748031
        },
        {
          "duration": 0.227272499999998,
          "durationTicks": 480,
          "midi": 42,
          "name": "F#2",
          "ticks": 134880,
          "time": 63.863572500000004,
          "velocity": 0.7007874015748031
        },
        {
          "duration": 0.227272499999998,
          "durationTicks": 480,
          "midi": 30,
          "name": "F#1",
          "ticks": 135360,
          "time": 64.090845,
          "velocity": 0.7007874015748031
        },
        {
          "duration": 0.227272499999998,
          "durationTicks": 480,
          "midi": 42,
          "name": "F#2",
          "ticks": 135840,
          "time": 64.3181175,
          "velocity": 0.7007874015748031
        },
        {
          "duration": 0.2272725000000122,
          "durationTicks": 480,
          "midi": 30,
          "name": "F#1",
          "ticks": 136320,
          "time": 64.54539,
          "velocity": 0.7007874015748031
        },
        {
          "duration": 0.227272499999998,
          "durationTicks": 480,
          "midi": 42,
          "name": "F#2",
          "ticks": 136800,
          "time": 64.77266250000001,
          "velocity": 0.7007874015748031
        },
        {
          "duration": 0.227272499999998,
          "durationTicks": 480,
          "midi": 30,
          "name": "F#1",
          "ticks": 137280,
          "time": 64.99993500000001,
          "velocity": 0.7007874015748031
        },
        {
          "duration": 0.227272499999998,
          "durationTicks": 480,
          "midi": 42,
          "name": "F#2",
          "ticks": 137760,
          "time": 65.2272075,
          "velocity": 0.7007874015748031
        },
        {
          "duration": 0.227272499999998,
          "durationTicks": 480,
          "midi": 28,
          "name": "E1",
          "ticks": 138240,
          "time": 65.45448,
          "velocity": 0.7007874015748031
        },
        {
          "duration": 0.227272499999998,
          "durationTicks": 480,
          "midi": 40,
          "name": "E2",
          "ticks": 138720,
          "time": 65.6817525,
          "velocity": 0.7007874015748031
        },
        {
          "duration": 0.227272499999998,
          "durationTicks": 480,
          "midi": 28,
          "name": "E1",
          "ticks": 139200,
          "time": 65.909025,
          "velocity": 0.7007874015748031
        },
        {
          "duration": 0.2272725000000122,
          "durationTicks": 480,
          "midi": 40,
          "name": "E2",
          "ticks": 139680,
          "time": 66.1362975,
          "velocity": 0.7007874015748031
        },
        {
          "duration": 0.227272499999998,
          "durationTicks": 480,
          "midi": 28,
          "name": "E1",
          "ticks": 140160,
          "time": 66.36357000000001,
          "velocity": 0.7007874015748031
        },
        {
          "duration": 0.227272499999998,
          "durationTicks": 480,
          "midi": 40,
          "name": "E2",
          "ticks": 140640,
          "time": 66.59084250000001,
          "velocity": 0.7007874015748031
        },
        {
          "duration": 0.227272499999998,
          "durationTicks": 480,
          "midi": 42,
          "name": "F#2",
          "ticks": 141120,
          "time": 66.818115,
          "velocity": 0.7007874015748031
        },
        {
          "duration": 0.227272499999998,
          "durationTicks": 480,
          "midi": 30,
          "name": "F#1",
          "ticks": 141120,
          "time": 66.818115,
          "velocity": 0.7007874015748031
        },
        {
          "duration": 0.227272499999998,
          "durationTicks": 480,
          "midi": 43,
          "name": "G2",
          "ticks": 141600,
          "time": 67.0453875,
          "velocity": 0.7007874015748031
        },
        {
          "duration": 0.227272499999998,
          "durationTicks": 480,
          "midi": 31,
          "name": "G1",
          "ticks": 141600,
          "time": 67.0453875,
          "velocity": 0.7007874015748031
        },
        {
          "duration": 0.227272499999998,
          "durationTicks": 480,
          "midi": 51,
          "name": "D#3",
          "ticks": 142080,
          "time": 67.27266,
          "velocity": 0.7007874015748031
        },
        {
          "duration": 0.227272499999998,
          "durationTicks": 480,
          "midi": 44,
          "name": "G#2",
          "ticks": 142080,
          "time": 67.27266,
          "velocity": 0.7007874015748031
        },
        {
          "duration": 0.227272499999998,
          "durationTicks": 480,
          "midi": 51,
          "name": "D#3",
          "ticks": 143520,
          "time": 67.95447750000001,
          "velocity": 0.7007874015748031
        },
        {
          "duration": 0.227272499999998,
          "durationTicks": 480,
          "midi": 44,
          "name": "G#2",
          "ticks": 143520,
          "time": 67.95447750000001,
          "velocity": 0.7007874015748031
        },
        {
          "duration": 0.227272499999998,
          "durationTicks": 480,
          "midi": 47,
          "name": "B2",
          "ticks": 145920,
          "time": 69.09084,
          "velocity": 0.7007874015748031
        },
        {
          "duration": 0.227272499999998,
          "durationTicks": 480,
          "midi": 35,
          "name": "B1",
          "ticks": 145920,
          "time": 69.09084,
          "velocity": 0.7007874015748031
        },
        {
          "duration": 0.227272499999998,
          "durationTicks": 480,
          "midi": 47,
          "name": "B2",
          "ticks": 147360,
          "time": 69.77265750000001,
          "velocity": 0.7007874015748031
        },
        {
          "duration": 0.227272499999998,
          "durationTicks": 480,
          "midi": 35,
          "name": "B1",
          "ticks": 147360,
          "time": 69.77265750000001,
          "velocity": 0.7007874015748031
        },
        {
          "duration": 0.2272725000000122,
          "durationTicks": 480,
          "midi": 42,
          "name": "F#2",
          "ticks": 149760,
          "time": 70.90902,
          "velocity": 0.7007874015748031
        },
        {
          "duration": 0.2272725000000122,
          "durationTicks": 480,
          "midi": 49,
          "name": "C#3",
          "ticks": 149760,
          "time": 70.90902,
          "velocity": 0.7007874015748031
        },
        {
          "duration": 0.227272499999998,
          "durationTicks": 480,
          "midi": 42,
          "name": "F#2",
          "ticks": 151200,
          "time": 71.5908375,
          "velocity": 0.7007874015748031
        },
        {
          "duration": 0.227272499999998,
          "durationTicks": 480,
          "midi": 49,
          "name": "C#3",
          "ticks": 151200,
          "time": 71.5908375,
          "velocity": 0.7007874015748031
        },
        {
          "duration": 0.227272499999998,
          "durationTicks": 480,
          "midi": 40,
          "name": "E2",
          "ticks": 153600,
          "time": 72.72720000000001,
          "velocity": 0.7007874015748031
        },
        {
          "duration": 0.227272499999998,
          "durationTicks": 480,
          "midi": 47,
          "name": "B2",
          "ticks": 153600,
          "time": 72.72720000000001,
          "velocity": 0.7007874015748031
        },
        {
          "duration": 0.227272499999998,
          "durationTicks": 480,
          "midi": 40,
          "name": "E2",
          "ticks": 155040,
          "time": 73.4090175,
          "velocity": 0.7007874015748031
        },
        {
          "duration": 0.227272499999998,
          "durationTicks": 480,
          "midi": 47,
          "name": "B2",
          "ticks": 155040,
          "time": 73.4090175,
          "velocity": 0.7007874015748031
        },
        {
          "duration": 0.4545450000000102,
          "durationTicks": 960,
          "midi": 49,
          "name": "C#3",
          "ticks": 156000,
          "time": 73.8635625,
          "velocity": 0.7007874015748031
        },
        {
          "duration": 0.4545450000000102,
          "durationTicks": 960,
          "midi": 42,
          "name": "F#2",
          "ticks": 156000,
          "time": 73.8635625,
          "velocity": 0.7007874015748031
        },
        {
          "duration": 0.227272499999998,
          "durationTicks": 480,
          "midi": 50,
          "name": "D3",
          "ticks": 156960,
          "time": 74.31810750000001,
          "velocity": 0.7007874015748031
        },
        {
          "duration": 0.227272499999998,
          "durationTicks": 480,
          "midi": 43,
          "name": "G2",
          "ticks": 156960,
          "time": 74.31810750000001,
          "velocity": 0.7007874015748031
        },
        {
          "duration": 0.227272499999998,
          "durationTicks": 480,
          "midi": 51,
          "name": "D#3",
          "ticks": 157440,
          "time": 74.54538000000001,
          "velocity": 0.7007874015748031
        },
        {
          "duration": 0.227272499999998,
          "durationTicks": 480,
          "midi": 44,
          "name": "G#2",
          "ticks": 157440,
          "time": 74.54538000000001,
          "velocity": 0.7007874015748031
        },
        {
          "duration": 0.227272499999998,
          "durationTicks": 480,
          "midi": 51,
          "name": "D#3",
          "ticks": 158880,
          "time": 75.2271975,
          "velocity": 0.7007874015748031
        },
        {
          "duration": 0.227272499999998,
          "durationTicks": 480,
          "midi": 44,
          "name": "G#2",
          "ticks": 158880,
          "time": 75.2271975,
          "velocity": 0.7007874015748031
        },
        {
          "duration": 0.227272499999998,
          "durationTicks": 480,
          "midi": 47,
          "name": "B2",
          "ticks": 161280,
          "time": 76.36356,
          "velocity": 0.7007874015748031
        },
        {
          "duration": 0.227272499999998,
          "durationTicks": 480,
          "midi": 35,
          "name": "B1",
          "ticks": 161280,
          "time": 76.36356,
          "velocity": 0.7007874015748031
        },
        {
          "duration": 0.227272499999998,
          "durationTicks": 480,
          "midi": 47,
          "name": "B2",
          "ticks": 162720,
          "time": 77.0453775,
          "velocity": 0.7007874015748031
        },
        {
          "duration": 0.227272499999998,
          "durationTicks": 480,
          "midi": 37,
          "name": "C#2",
          "ticks": 162720,
          "time": 77.0453775,
          "velocity": 0.7007874015748031
        },
        {
          "duration": 0.227272499999998,
          "durationTicks": 480,
          "midi": 42,
          "name": "F#2",
          "ticks": 165120,
          "time": 78.18174,
          "velocity": 0.7007874015748031
        },
        {
          "duration": 0.227272499999998,
          "durationTicks": 480,
          "midi": 49,
          "name": "C#3",
          "ticks": 165120,
          "time": 78.18174,
          "velocity": 0.7007874015748031
        },
        {
          "duration": 0.2272725000000122,
          "durationTicks": 480,
          "midi": 42,
          "name": "F#2",
          "ticks": 166560,
          "time": 78.8635575,
          "velocity": 0.7007874015748031
        },
        {
          "duration": 0.2272725000000122,
          "durationTicks": 480,
          "midi": 49,
          "name": "C#3",
          "ticks": 166560,
          "time": 78.8635575,
          "velocity": 0.7007874015748031
        },
        {
          "duration": 0.227272499999998,
          "durationTicks": 480,
          "midi": 47,
          "name": "B2",
          "ticks": 168960,
          "time": 79.99992,
          "velocity": 0.7007874015748031
        },
        {
          "duration": 0.227272499999998,
          "durationTicks": 480,
          "midi": 40,
          "name": "E2",
          "ticks": 168960,
          "time": 79.99992,
          "velocity": 0.7007874015748031
        },
        {
          "duration": 0.227272499999998,
          "durationTicks": 480,
          "midi": 47,
          "name": "B2",
          "ticks": 170400,
          "time": 80.68173750000001,
          "velocity": 0.7007874015748031
        },
        {
          "duration": 0.227272499999998,
          "durationTicks": 480,
          "midi": 40,
          "name": "E2",
          "ticks": 170400,
          "time": 80.68173750000001,
          "velocity": 0.7007874015748031
        },
        {
          "duration": 0.454544999999996,
          "durationTicks": 960,
          "midi": 42,
          "name": "F#2",
          "ticks": 171360,
          "time": 81.13628250000001,
          "velocity": 0.7007874015748031
        },
        {
          "duration": 0.454544999999996,
          "durationTicks": 960,
          "midi": 49,
          "name": "C#3",
          "ticks": 171360,
          "time": 81.13628250000001,
          "velocity": 0.7007874015748031
        },
        {
          "duration": 0.227272499999998,
          "durationTicks": 480,
          "midi": 50,
          "name": "D3",
          "ticks": 172320,
          "time": 81.5908275,
          "velocity": 0.7007874015748031
        },
        {
          "duration": 0.227272499999998,
          "durationTicks": 480,
          "midi": 43,
          "name": "G2",
          "ticks": 172320,
          "time": 81.5908275,
          "velocity": 0.7007874015748031
        },
        {
          "duration": 0.227272499999998,
          "durationTicks": 480,
          "midi": 51,
          "name": "D#3",
          "ticks": 172800,
          "time": 81.8181,
          "velocity": 0.7007874015748031
        },
        {
          "duration": 0.227272499999998,
          "durationTicks": 480,
          "midi": 44,
          "name": "G#2",
          "ticks": 172800,
          "time": 81.8181,
          "velocity": 0.7007874015748031
        },
        {
          "duration": 0.227272499999998,
          "durationTicks": 480,
          "midi": 51,
          "name": "D#3",
          "ticks": 174240,
          "time": 82.49991750000001,
          "velocity": 0.7007874015748031
        },
        {
          "duration": 0.227272499999998,
          "durationTicks": 480,
          "midi": 44,
          "name": "G#2",
          "ticks": 174240,
          "time": 82.49991750000001,
          "velocity": 0.7007874015748031
        },
        {
          "duration": 0.2272725000000122,
          "durationTicks": 480,
          "midi": 47,
          "name": "B2",
          "ticks": 176640,
          "time": 83.63628,
          "velocity": 0.7007874015748031
        },
        {
          "duration": 0.2272725000000122,
          "durationTicks": 480,
          "midi": 35,
          "name": "B1",
          "ticks": 176640,
          "time": 83.63628,
          "velocity": 0.7007874015748031
        },
        {
          "duration": 0.227272499999998,
          "durationTicks": 480,
          "midi": 47,
          "name": "B2",
          "ticks": 178080,
          "time": 84.31809750000001,
          "velocity": 0.7007874015748031
        },
        {
          "duration": 0.227272499999998,
          "durationTicks": 480,
          "midi": 35,
          "name": "B1",
          "ticks": 178080,
          "time": 84.31809750000001,
          "velocity": 0.7007874015748031
        },
        {
          "duration": 0.227272499999998,
          "durationTicks": 480,
          "midi": 42,
          "name": "F#2",
          "ticks": 180480,
          "time": 85.45446000000001,
          "velocity": 0.7007874015748031
        },
        {
          "duration": 0.227272499999998,
          "durationTicks": 480,
          "midi": 49,
          "name": "C#3",
          "ticks": 180480,
          "time": 85.45446000000001,
          "velocity": 0.7007874015748031
        },
        {
          "duration": 0.227272499999998,
          "durationTicks": 480,
          "midi": 42,
          "name": "F#2",
          "ticks": 181920,
          "time": 86.1362775,
          "velocity": 0.7007874015748031
        },
        {
          "duration": 0.227272499999998,
          "durationTicks": 480,
          "midi": 49,
          "name": "C#3",
          "ticks": 181920,
          "time": 86.1362775,
          "velocity": 0.7007874015748031
        },
        {
          "duration": 0.227272499999998,
          "durationTicks": 480,
          "midi": 40,
          "name": "E2",
          "ticks": 184320,
          "time": 87.27264000000001,
          "velocity": 0.7007874015748031
        },
        {
          "duration": 0.227272499999998,
          "durationTicks": 480,
          "midi": 47,
          "name": "B2",
          "ticks": 184320,
          "time": 87.27264000000001,
          "velocity": 0.7007874015748031
        },
        {
          "duration": 0.227272499999998,
          "durationTicks": 480,
          "midi": 40,
          "name": "E2",
          "ticks": 185760,
          "time": 87.9544575,
          "velocity": 0.7007874015748031
        },
        {
          "duration": 0.227272499999998,
          "durationTicks": 480,
          "midi": 47,
          "name": "B2",
          "ticks": 185760,
          "time": 87.9544575,
          "velocity": 0.7007874015748031
        },
        {
          "duration": 0.4545450000000102,
          "durationTicks": 960,
          "midi": 49,
          "name": "C#3",
          "ticks": 186720,
          "time": 88.4090025,
          "velocity": 0.7007874015748031
        },
        {
          "duration": 0.4545450000000102,
          "durationTicks": 960,
          "midi": 42,
          "name": "F#2",
          "ticks": 186720,
          "time": 88.4090025,
          "velocity": 0.7007874015748031
        },
        {
          "duration": 0.227272499999998,
          "durationTicks": 480,
          "midi": 50,
          "name": "D3",
          "ticks": 187680,
          "time": 88.86354750000001,
          "velocity": 0.7007874015748031
        },
        {
          "duration": 0.227272499999998,
          "durationTicks": 480,
          "midi": 43,
          "name": "G2",
          "ticks": 187680,
          "time": 88.86354750000001,
          "velocity": 0.7007874015748031
        },
        {
          "duration": 0.227272499999998,
          "durationTicks": 480,
          "midi": 51,
          "name": "D#3",
          "ticks": 188160,
          "time": 89.09082000000001,
          "velocity": 0.7007874015748031
        },
        {
          "duration": 0.227272499999998,
          "durationTicks": 480,
          "midi": 44,
          "name": "G#2",
          "ticks": 188160,
          "time": 89.09082000000001,
          "velocity": 0.7007874015748031
        },
        {
          "duration": 0.227272499999998,
          "durationTicks": 480,
          "midi": 51,
          "name": "D#3",
          "ticks": 189600,
          "time": 89.7726375,
          "velocity": 0.7007874015748031
        },
        {
          "duration": 0.227272499999998,
          "durationTicks": 480,
          "midi": 44,
          "name": "G#2",
          "ticks": 189600,
          "time": 89.7726375,
          "velocity": 0.7007874015748031
        },
        {
          "duration": 0.227272499999998,
          "durationTicks": 480,
          "midi": 47,
          "name": "B2",
          "ticks": 192000,
          "time": 90.909,
          "velocity": 0.7007874015748031
        },
        {
          "duration": 0.227272499999998,
          "durationTicks": 480,
          "midi": 35,
          "name": "B1",
          "ticks": 192000,
          "time": 90.909,
          "velocity": 0.7007874015748031
        },
        {
          "duration": 0.2272725000000122,
          "durationTicks": 480,
          "midi": 47,
          "name": "B2",
          "ticks": 193440,
          "time": 91.5908175,
          "velocity": 0.7007874015748031
        },
        {
          "duration": 0.2272725000000122,
          "durationTicks": 480,
          "midi": 37,
          "name": "C#2",
          "ticks": 193440,
          "time": 91.5908175,
          "velocity": 0.7007874015748031
        },
        {
          "duration": 0.227272499999998,
          "durationTicks": 480,
          "midi": 42,
          "name": "F#2",
          "ticks": 195840,
          "time": 92.72718,
          "velocity": 0.7007874015748031
        },
        {
          "duration": 0.227272499999998,
          "durationTicks": 480,
          "midi": 49,
          "name": "C#3",
          "ticks": 195840,
          "time": 92.72718,
          "velocity": 0.7007874015748031
        },
        {
          "duration": 0.227272499999998,
          "durationTicks": 480,
          "midi": 42,
          "name": "F#2",
          "ticks": 197280,
          "time": 93.40899750000001,
          "velocity": 0.7007874015748031
        },
        {
          "duration": 0.227272499999998,
          "durationTicks": 480,
          "midi": 49,
          "name": "C#3",
          "ticks": 197280,
          "time": 93.40899750000001,
          "velocity": 0.7007874015748031
        },
        {
          "duration": 0.227272499999998,
          "durationTicks": 480,
          "midi": 40,
          "name": "E2",
          "ticks": 199680,
          "time": 94.54536,
          "velocity": 0.7007874015748031
        },
        {
          "duration": 0.227272499999998,
          "durationTicks": 480,
          "midi": 47,
          "name": "B2",
          "ticks": 199680,
          "time": 94.54536,
          "velocity": 0.7007874015748031
        },
        {
          "duration": 0.227272499999998,
          "durationTicks": 480,
          "midi": 40,
          "name": "E2",
          "ticks": 201120,
          "time": 95.22717750000001,
          "velocity": 0.7007874015748031
        },
        {
          "duration": 0.227272499999998,
          "durationTicks": 480,
          "midi": 47,
          "name": "B2",
          "ticks": 201120,
          "time": 95.22717750000001,
          "velocity": 0.7007874015748031
        },
        {
          "duration": 0.454544999999996,
          "durationTicks": 960,
          "midi": 54,
          "name": "F#3",
          "ticks": 202080,
          "time": 95.6817225,
          "velocity": 0.7007874015748031
        },
        {
          "duration": 0.454544999999996,
          "durationTicks": 960,
          "midi": 49,
          "name": "C#3",
          "ticks": 202080,
          "time": 95.6817225,
          "velocity": 0.7007874015748031
        },
        {
          "duration": 0.454544999999996,
          "durationTicks": 960,
          "midi": 42,
          "name": "F#2",
          "ticks": 202080,
          "time": 95.6817225,
          "velocity": 0.7007874015748031
        },
        {
          "duration": 0.227272499999998,
          "durationTicks": 480,
          "midi": 55,
          "name": "G3",
          "ticks": 203040,
          "time": 96.1362675,
          "velocity": 0.7007874015748031
        },
        {
          "duration": 0.227272499999998,
          "durationTicks": 480,
          "midi": 50,
          "name": "D3",
          "ticks": 203040,
          "time": 96.1362675,
          "velocity": 0.7007874015748031
        },
        {
          "duration": 0.227272499999998,
          "durationTicks": 480,
          "midi": 43,
          "name": "G2",
          "ticks": 203040,
          "time": 96.1362675,
          "velocity": 0.7007874015748031
        },
        {
          "duration": 0.2272725000000122,
          "durationTicks": 480,
          "midi": 32,
          "name": "G#1",
          "ticks": 203520,
          "time": 96.36354,
          "velocity": 0.7007874015748031
        },
        {
          "duration": 0.227272499999998,
          "durationTicks": 480,
          "midi": 44,
          "name": "G#2",
          "ticks": 204000,
          "time": 96.59081250000001,
          "velocity": 0.7007874015748031
        },
        {
          "duration": 0.227272499999998,
          "durationTicks": 480,
          "midi": 32,
          "name": "G#1",
          "ticks": 204480,
          "time": 96.81808500000001,
          "velocity": 0.7007874015748031
        },
        {
          "duration": 0.227272499999998,
          "durationTicks": 480,
          "midi": 44,
          "name": "G#2",
          "ticks": 204960,
          "time": 97.04535750000001,
          "velocity": 0.7007874015748031
        },
        {
          "duration": 0.227272499999998,
          "durationTicks": 480,
          "midi": 32,
          "name": "G#1",
          "ticks": 205440,
          "time": 97.27263,
          "velocity": 0.7007874015748031
        },
        {
          "duration": 0.227272499999998,
          "durationTicks": 480,
          "midi": 44,
          "name": "G#2",
          "ticks": 205920,
          "time": 97.4999025,
          "velocity": 0.7007874015748031
        },
        {
          "duration": 0.227272499999998,
          "durationTicks": 480,
          "midi": 32,
          "name": "G#1",
          "ticks": 206400,
          "time": 97.727175,
          "velocity": 0.7007874015748031
        },
        {
          "duration": 0.2272725000000122,
          "durationTicks": 480,
          "midi": 44,
          "name": "G#2",
          "ticks": 206880,
          "time": 97.9544475,
          "velocity": 0.7007874015748031
        },
        {
          "duration": 0.227272499999998,
          "durationTicks": 480,
          "midi": 35,
          "name": "B1",
          "ticks": 207360,
          "time": 98.18172000000001,
          "velocity": 0.7007874015748031
        },
        {
          "duration": 0.227272499999998,
          "durationTicks": 480,
          "midi": 47,
          "name": "B2",
          "ticks": 207840,
          "time": 98.40899250000001,
          "velocity": 0.7007874015748031
        },
        {
          "duration": 0.227272499999998,
          "durationTicks": 480,
          "midi": 35,
          "name": "B1",
          "ticks": 208320,
          "time": 98.63626500000001,
          "velocity": 0.7007874015748031
        },
        {
          "duration": 0.227272499999998,
          "durationTicks": 480,
          "midi": 47,
          "name": "B2",
          "ticks": 208800,
          "time": 98.8635375,
          "velocity": 0.7007874015748031
        },
        {
          "duration": 0.227272499999998,
          "durationTicks": 480,
          "midi": 35,
          "name": "B1",
          "ticks": 209280,
          "time": 99.09081,
          "velocity": 0.7007874015748031
        },
        {
          "duration": 0.227272499999998,
          "durationTicks": 480,
          "midi": 47,
          "name": "B2",
          "ticks": 209760,
          "time": 99.3180825,
          "velocity": 0.7007874015748031
        },
        {
          "duration": 0.2272725000000122,
          "durationTicks": 480,
          "midi": 35,
          "name": "B1",
          "ticks": 210240,
          "time": 99.545355,
          "velocity": 0.7007874015748031
        },
        {
          "duration": 0.227272499999998,
          "durationTicks": 480,
          "midi": 47,
          "name": "B2",
          "ticks": 210720,
          "time": 99.77262750000001,
          "velocity": 0.7007874015748031
        },
        {
          "duration": 0.227272499999998,
          "durationTicks": 480,
          "midi": 30,
          "name": "F#1",
          "ticks": 211200,
          "time": 99.99990000000001,
          "velocity": 0.7007874015748031
        },
        {
          "duration": 0.227272499999998,
          "durationTicks": 480,
          "midi": 42,
          "name": "F#2",
          "ticks": 211680,
          "time": 100.22717250000001,
          "velocity": 0.7007874015748031
        },
        {
          "duration": 0.227272499999998,
          "durationTicks": 480,
          "midi": 30,
          "name": "F#1",
          "ticks": 212160,
          "time": 100.454445,
          "velocity": 0.7007874015748031
        },
        {
          "duration": 0.227272499999998,
          "durationTicks": 480,
          "midi": 42,
          "name": "F#2",
          "ticks": 212640,
          "time": 100.6817175,
          "velocity": 0.7007874015748031
        },
        {
          "duration": 0.227272499999998,
          "durationTicks": 480,
          "midi": 30,
          "name": "F#1",
          "ticks": 213120,
          "time": 100.90899,
          "velocity": 0.7007874015748031
        },
        {
          "duration": 0.2272725000000122,
          "durationTicks": 480,
          "midi": 42,
          "name": "F#2",
          "ticks": 213600,
          "time": 101.1362625,
          "velocity": 0.7007874015748031
        },
        {
          "duration": 0.227272499999998,
          "durationTicks": 480,
          "midi": 30,
          "name": "F#1",
          "ticks": 214080,
          "time": 101.36353500000001,
          "velocity": 0.7007874015748031
        },
        {
          "duration": 0.227272499999998,
          "durationTicks": 480,
          "midi": 42,
          "name": "F#2",
          "ticks": 214560,
          "time": 101.59080750000001,
          "velocity": 0.7007874015748031
        },
        {
          "duration": 0.227272499999998,
          "durationTicks": 480,
          "midi": 28,
          "name": "E1",
          "ticks": 215040,
          "time": 101.81808000000001,
          "velocity": 0.7007874015748031
        },
        {
          "duration": 0.227272499999998,
          "durationTicks": 480,
          "midi": 40,
          "name": "E2",
          "ticks": 215520,
          "time": 102.0453525,
          "velocity": 0.7007874015748031
        },
        {
          "duration": 0.227272499999998,
          "durationTicks": 480,
          "midi": 28,
          "name": "E1",
          "ticks": 216000,
          "time": 102.272625,
          "velocity": 0.7007874015748031
        },
        {
          "duration": 0.227272499999998,
          "durationTicks": 480,
          "midi": 40,
          "name": "E2",
          "ticks": 216480,
          "time": 102.4998975,
          "velocity": 0.7007874015748031
        },
        {
          "duration": 0.2272725000000122,
          "durationTicks": 480,
          "midi": 28,
          "name": "E1",
          "ticks": 216960,
          "time": 102.72717,
          "velocity": 0.7007874015748031
        },
        {
          "duration": 0.227272499999998,
          "durationTicks": 480,
          "midi": 40,
          "name": "E2",
          "ticks": 217440,
          "time": 102.95444250000001,
          "velocity": 0.7007874015748031
        },
        {
          "duration": 0.227272499999998,
          "durationTicks": 480,
          "midi": 30,
          "name": "F#1",
          "ticks": 217920,
          "time": 103.18171500000001,
          "velocity": 0.7007874015748031
        },
        {
          "duration": 0.227272499999998,
          "durationTicks": 480,
          "midi": 42,
          "name": "F#2",
          "ticks": 217920,
          "time": 103.18171500000001,
          "velocity": 0.7007874015748031
        },
        {
          "duration": 0.227272499999998,
          "durationTicks": 480,
          "midi": 43,
          "name": "G2",
          "ticks": 218400,
          "time": 103.40898750000001,
          "velocity": 0.7007874015748031
        },
        {
          "duration": 0.227272499999998,
          "durationTicks": 480,
          "midi": 31,
          "name": "G1",
          "ticks": 218400,
          "time": 103.40898750000001,
          "velocity": 0.7007874015748031
        },
        {
          "duration": 0.227272499999998,
          "durationTicks": 480,
          "midi": 32,
          "name": "G#1",
          "ticks": 218880,
          "time": 103.63626000000001,
          "velocity": 0.7007874015748031
        },
        {
          "duration": 0.227272499999998,
          "durationTicks": 480,
          "midi": 44,
          "name": "G#2",
          "ticks": 219360,
          "time": 103.8635325,
          "velocity": 0.7007874015748031
        },
        {
          "duration": 0.227272499999998,
          "durationTicks": 480,
          "midi": 32,
          "name": "G#1",
          "ticks": 219840,
          "time": 104.090805,
          "velocity": 0.7007874015748031
        },
        {
          "duration": 0.2272725000000122,
          "durationTicks": 480,
          "midi": 44,
          "name": "G#2",
          "ticks": 220320,
          "time": 104.3180775,
          "velocity": 0.7007874015748031
        },
        {
          "duration": 0.227272499999998,
          "durationTicks": 480,
          "midi": 32,
          "name": "G#1",
          "ticks": 220800,
          "time": 104.54535000000001,
          "velocity": 0.7007874015748031
        },
        {
          "duration": 0.227272499999998,
          "durationTicks": 480,
          "midi": 44,
          "name": "G#2",
          "ticks": 221280,
          "time": 104.77262250000001,
          "velocity": 0.7007874015748031
        },
        {
          "duration": 0.227272499999998,
          "durationTicks": 480,
          "midi": 32,
          "name": "G#1",
          "ticks": 221760,
          "time": 104.99989500000001,
          "velocity": 0.7007874015748031
        },
        {
          "duration": 0.227272499999998,
          "durationTicks": 480,
          "midi": 44,
          "name": "G#2",
          "ticks": 222240,
          "time": 105.22716750000001,
          "velocity": 0.7007874015748031
        },
        {
          "duration": 0.227272499999998,
          "durationTicks": 480,
          "midi": 35,
          "name": "B1",
          "ticks": 222720,
          "time": 105.45444,
          "velocity": 0.7007874015748031
        },
        {
          "duration": 0.227272499999998,
          "durationTicks": 480,
          "midi": 47,
          "name": "B2",
          "ticks": 223200,
          "time": 105.6817125,
          "velocity": 0.7007874015748031
        },
        {
          "duration": 0.2272725000000122,
          "durationTicks": 480,
          "midi": 35,
          "name": "B1",
          "ticks": 223680,
          "time": 105.908985,
          "velocity": 0.7007874015748031
        },
        {
          "duration": 0.227272499999998,
          "durationTicks": 480,
          "midi": 46,
          "name": "A#2",
          "ticks": 224160,
          "time": 106.13625750000001,
          "velocity": 0.7007874015748031
        },
        {
          "duration": 0.227272499999998,
          "durationTicks": 480,
          "midi": 35,
          "name": "B1",
          "ticks": 224640,
          "time": 106.36353000000001,
          "velocity": 0.7007874015748031
        },
        {
          "duration": 0.227272499999998,
          "durationTicks": 480,
          "midi": 47,
          "name": "B2",
          "ticks": 225120,
          "time": 106.59080250000001,
          "velocity": 0.7007874015748031
        },
        {
          "duration": 0.227272499999998,
          "durationTicks": 480,
          "midi": 35,
          "name": "B1",
          "ticks": 225600,
          "time": 106.81807500000001,
          "velocity": 0.7007874015748031
        },
        {
          "duration": 0.227272499999998,
          "durationTicks": 480,
          "midi": 47,
          "name": "B2",
          "ticks": 226080,
          "time": 107.0453475,
          "velocity": 0.7007874015748031
        },
        {
          "duration": 0.227272499999998,
          "durationTicks": 480,
          "midi": 30,
          "name": "F#1",
          "ticks": 226560,
          "time": 107.27262,
          "velocity": 0.7007874015748031
        },
        {
          "duration": 0.2272725000000122,
          "durationTicks": 480,
          "midi": 42,
          "name": "F#2",
          "ticks": 227040,
          "time": 107.4998925,
          "velocity": 0.7007874015748031
        },
        {
          "duration": 0.227272499999998,
          "durationTicks": 480,
          "midi": 30,
          "name": "F#1",
          "ticks": 227520,
          "time": 107.72716500000001,
          "velocity": 0.7007874015748031
        },
        {
          "duration": 0.227272499999998,
          "durationTicks": 480,
          "midi": 42,
          "name": "F#2",
          "ticks": 228000,
          "time": 107.95443750000001,
          "velocity": 0.7007874015748031
        },
        {
          "duration": 0.227272499999998,
          "durationTicks": 480,
          "midi": 30,
          "name": "F#1",
          "ticks": 228480,
          "time": 108.18171000000001,
          "velocity": 0.7007874015748031
        },
        {
          "duration": 0.227272499999998,
          "durationTicks": 480,
          "midi": 42,
          "name": "F#2",
          "ticks": 228960,
          "time": 108.40898250000001,
          "velocity": 0.7007874015748031
        },
        {
          "duration": 0.227272499999998,
          "durationTicks": 480,
          "midi": 30,
          "name": "F#1",
          "ticks": 229440,
          "time": 108.636255,
          "velocity": 0.7007874015748031
        },
        {
          "duration": 0.227272499999998,
          "durationTicks": 480,
          "midi": 42,
          "name": "F#2",
          "ticks": 229920,
          "time": 108.8635275,
          "velocity": 0.7007874015748031
        },
        {
          "duration": 0.2272725000000122,
          "durationTicks": 480,
          "midi": 28,
          "name": "E1",
          "ticks": 230400,
          "time": 109.0908,
          "velocity": 0.7007874015748031
        },
        {
          "duration": 0.227272499999998,
          "durationTicks": 480,
          "midi": 40,
          "name": "E2",
          "ticks": 230880,
          "time": 109.31807250000001,
          "velocity": 0.7007874015748031
        },
        {
          "duration": 0.227272499999998,
          "durationTicks": 480,
          "midi": 28,
          "name": "E1",
          "ticks": 231360,
          "time": 109.54534500000001,
          "velocity": 0.7007874015748031
        },
        {
          "duration": 0.227272499999998,
          "durationTicks": 480,
          "midi": 40,
          "name": "E2",
          "ticks": 231840,
          "time": 109.77261750000001,
          "velocity": 0.7007874015748031
        },
        {
          "duration": 0.227272499999998,
          "durationTicks": 480,
          "midi": 32,
          "name": "G#1",
          "ticks": 232320,
          "time": 109.99989000000001,
          "velocity": 0.7007874015748031
        },
        {
          "duration": 0.227272499999998,
          "durationTicks": 480,
          "midi": 40,
          "name": "E2",
          "ticks": 232800,
          "time": 110.2271625,
          "velocity": 0.7007874015748031
        },
        {
          "duration": 0.227272499999998,
          "durationTicks": 480,
          "midi": 32,
          "name": "G#1",
          "ticks": 234240,
          "time": 110.90898000000001,
          "velocity": 0.7007874015748031
        },
        {
          "duration": 0.227272499999998,
          "durationTicks": 480,
          "midi": 44,
          "name": "G#2",
          "ticks": 234720,
          "time": 111.13625250000001,
          "velocity": 0.7007874015748031
        },
        {
          "duration": 0.227272499999998,
          "durationTicks": 480,
          "midi": 32,
          "name": "G#1",
          "ticks": 235200,
          "time": 111.36352500000001,
          "velocity": 0.7007874015748031
        },
        {
          "duration": 0.227272499999998,
          "durationTicks": 480,
          "midi": 44,
          "name": "G#2",
          "ticks": 235680,
          "time": 111.59079750000001,
          "velocity": 0.7007874015748031
        },
        {
          "duration": 0.227272499999998,
          "durationTicks": 480,
          "midi": 32,
          "name": "G#1",
          "ticks": 236160,
          "time": 111.81807,
          "velocity": 0.7007874015748031
        },
        {
          "duration": 0.227272499999998,
          "durationTicks": 480,
          "midi": 44,
          "name": "G#2",
          "ticks": 236640,
          "time": 112.0453425,
          "velocity": 0.7007874015748031
        },
        {
          "duration": 0.2272725000000122,
          "durationTicks": 480,
          "midi": 32,
          "name": "G#1",
          "ticks": 237120,
          "time": 112.272615,
          "velocity": 0.7007874015748031
        },
        {
          "duration": 0.227272499999998,
          "durationTicks": 480,
          "midi": 44,
          "name": "G#2",
          "ticks": 237600,
          "time": 112.49988750000001,
          "velocity": 0.7007874015748031
        },
        {
          "duration": 0.227272499999998,
          "durationTicks": 480,
          "midi": 35,
          "name": "B1",
          "ticks": 238080,
          "time": 112.72716000000001,
          "velocity": 0.7007874015748031
        },
        {
          "duration": 0.227272499999998,
          "durationTicks": 480,
          "midi": 47,
          "name": "B2",
          "ticks": 238560,
          "time": 112.95443250000001,
          "velocity": 0.7007874015748031
        },
        {
          "duration": 0.227272499999998,
          "durationTicks": 480,
          "midi": 35,
          "name": "B1",
          "ticks": 239040,
          "time": 113.18170500000001,
          "velocity": 0.7007874015748031
        },
        {
          "duration": 0.227272499999998,
          "durationTicks": 480,
          "midi": 47,
          "name": "B2",
          "ticks": 239520,
          "time": 113.4089775,
          "velocity": 0.7007874015748031
        },
        {
          "duration": 0.227272499999998,
          "durationTicks": 480,
          "midi": 35,
          "name": "B1",
          "ticks": 240000,
          "time": 113.63625,
          "velocity": 0.7007874015748031
        },
        {
          "duration": 0.2272725000000122,
          "durationTicks": 480,
          "midi": 47,
          "name": "B2",
          "ticks": 240480,
          "time": 113.8635225,
          "velocity": 0.7007874015748031
        },
        {
          "duration": 0.227272499999998,
          "durationTicks": 480,
          "midi": 35,
          "name": "B1",
          "ticks": 240960,
          "time": 114.09079500000001,
          "velocity": 0.7007874015748031
        },
        {
          "duration": 0.227272499999998,
          "durationTicks": 480,
          "midi": 47,
          "name": "B2",
          "ticks": 241440,
          "time": 114.31806750000001,
          "velocity": 0.7007874015748031
        },
        {
          "duration": 0.227272499999998,
          "durationTicks": 480,
          "midi": 30,
          "name": "F#1",
          "ticks": 241920,
          "time": 114.54534000000001,
          "velocity": 0.7007874015748031
        },
        {
          "duration": 0.227272499999998,
          "durationTicks": 480,
          "midi": 42,
          "name": "F#2",
          "ticks": 242400,
          "time": 114.77261250000001,
          "velocity": 0.7007874015748031
        },
        {
          "duration": 0.227272499999998,
          "durationTicks": 480,
          "midi": 30,
          "name": "F#1",
          "ticks": 242880,
          "time": 114.999885,
          "velocity": 0.7007874015748031
        },
        {
          "duration": 0.227272499999998,
          "durationTicks": 480,
          "midi": 42,
          "name": "F#2",
          "ticks": 243360,
          "time": 115.2271575,
          "velocity": 0.7007874015748031
        },
        {
          "duration": 0.2272725000000122,
          "durationTicks": 480,
          "midi": 30,
          "name": "F#1",
          "ticks": 243840,
          "time": 115.45443,
          "velocity": 0.7007874015748031
        },
        {
          "duration": 0.227272499999998,
          "durationTicks": 480,
          "midi": 42,
          "name": "F#2",
          "ticks": 244320,
          "time": 115.68170250000001,
          "velocity": 0.7007874015748031
        },
        {
          "duration": 0.227272499999998,
          "durationTicks": 480,
          "midi": 30,
          "name": "F#1",
          "ticks": 244800,
          "time": 115.90897500000001,
          "velocity": 0.7007874015748031
        },
        {
          "duration": 0.227272499999998,
          "durationTicks": 480,
          "midi": 42,
          "name": "F#2",
          "ticks": 245280,
          "time": 116.13624750000001,
          "velocity": 0.7007874015748031
        },
        {
          "duration": 0.227272499999998,
          "durationTicks": 480,
          "midi": 28,
          "name": "E1",
          "ticks": 245760,
          "time": 116.36352000000001,
          "velocity": 0.7007874015748031
        },
        {
          "duration": 0.227272499999998,
          "durationTicks": 480,
          "midi": 40,
          "name": "E2",
          "ticks": 246240,
          "time": 116.5907925,
          "velocity": 0.7007874015748031
        },
        {
          "duration": 0.227272499999998,
          "durationTicks": 480,
          "midi": 28,
          "name": "E1",
          "ticks": 246720,
          "time": 116.818065,
          "velocity": 0.7007874015748031
        },
        {
          "duration": 0.2272725000000122,
          "durationTicks": 480,
          "midi": 40,
          "name": "E2",
          "ticks": 247200,
          "time": 117.0453375,
          "velocity": 0.7007874015748031
        },
        {
          "duration": 0.227272499999998,
          "durationTicks": 480,
          "midi": 32,
          "name": "G#1",
          "ticks": 249600,
          "time": 118.1817,
          "velocity": 0.7007874015748031
        },
        {
          "duration": 0.227272499999998,
          "durationTicks": 480,
          "midi": 44,
          "name": "G#2",
          "ticks": 250080,
          "time": 118.4089725,
          "velocity": 0.7007874015748031
        },
        {
          "duration": 0.2272725000000122,
          "durationTicks": 480,
          "midi": 32,
          "name": "G#1",
          "ticks": 250560,
          "time": 118.636245,
          "velocity": 0.7007874015748031
        },
        {
          "duration": 0.227272499999998,
          "durationTicks": 480,
          "midi": 44,
          "name": "G#2",
          "ticks": 251040,
          "time": 118.86351750000001,
          "velocity": 0.7007874015748031
        },
        {
          "duration": 0.227272499999998,
          "durationTicks": 480,
          "midi": 32,
          "name": "G#1",
          "ticks": 251520,
          "time": 119.09079000000001,
          "velocity": 0.7007874015748031
        },
        {
          "duration": 0.227272499999998,
          "durationTicks": 480,
          "midi": 44,
          "name": "G#2",
          "ticks": 252000,
          "time": 119.31806250000001,
          "velocity": 0.7007874015748031
        },
        {
          "duration": 0.227272499999998,
          "durationTicks": 480,
          "midi": 35,
          "name": "B1",
          "ticks": 253440,
          "time": 119.99988,
          "velocity": 0.7007874015748031
        },
        {
          "duration": 0.2272725000000122,
          "durationTicks": 480,
          "midi": 47,
          "name": "B2",
          "ticks": 253920,
          "time": 120.2271525,
          "velocity": 0.7007874015748031
        },
        {
          "duration": 0.227272499999998,
          "durationTicks": 480,
          "midi": 35,
          "name": "B1",
          "ticks": 254400,
          "time": 120.45442500000001,
          "velocity": 0.7007874015748031
        },
        {
          "duration": 0.227272499999998,
          "durationTicks": 480,
          "midi": 46,
          "name": "A#2",
          "ticks": 254880,
          "time": 120.68169750000001,
          "velocity": 0.7007874015748031
        },
        {
          "duration": 0.227272499999998,
          "durationTicks": 480,
          "midi": 35,
          "name": "B1",
          "ticks": 255360,
          "time": 120.90897000000001,
          "velocity": 0.7007874015748031
        },
        {
          "duration": 0.227272499999998,
          "durationTicks": 480,
          "midi": 47,
          "name": "B2",
          "ticks": 255840,
          "time": 121.13624250000001,
          "velocity": 0.7007874015748031
        },
        {
          "duration": 0.2272725000000122,
          "durationTicks": 480,
          "midi": 30,
          "name": "F#1",
          "ticks": 257280,
          "time": 121.81806,
          "velocity": 0.7007874015748031
        },
        {
          "duration": 0.227272499999998,
          "durationTicks": 480,
          "midi": 42,
          "name": "F#2",
          "ticks": 257760,
          "time": 122.04533250000001,
          "velocity": 0.7007874015748031
        },
        {
          "duration": 0.227272499999998,
          "durationTicks": 480,
          "midi": 30,
          "name": "F#1",
          "ticks": 258240,
          "time": 122.27260500000001,
          "velocity": 0.7007874015748031
        },
        {
          "duration": 0.227272499999998,
          "durationTicks": 480,
          "midi": 42,
          "name": "F#2",
          "ticks": 258720,
          "time": 122.49987750000001,
          "velocity": 0.7007874015748031
        },
        {
          "duration": 0.227272499999998,
          "durationTicks": 480,
          "midi": 30,
          "name": "F#1",
          "ticks": 259200,
          "time": 122.72715000000001,
          "velocity": 0.7007874015748031
        },
        {
          "duration": 0.227272499999998,
          "durationTicks": 480,
          "midi": 42,
          "name": "F#2",
          "ticks": 259680,
          "time": 122.9544225,
          "velocity": 0.7007874015748031
        },
        {
          "duration": 0.227272499999998,
          "durationTicks": 480,
          "midi": 30,
          "name": "F#1",
          "ticks": 260160,
          "time": 123.181695,
          "velocity": 0.7007874015748031
        },
        {
          "duration": 0.2272725000000122,
          "durationTicks": 480,
          "midi": 42,
          "name": "F#2",
          "ticks": 260640,
          "time": 123.4089675,
          "velocity": 0.7007874015748031
        },
        {
          "duration": 0.227272499999998,
          "durationTicks": 480,
          "midi": 28,
          "name": "E1",
          "ticks": 261120,
          "time": 123.63624000000002,
          "velocity": 0.7007874015748031
        },
        {
          "duration": 0.227272499999998,
          "durationTicks": 480,
          "midi": 28,
          "name": "E1",
          "ticks": 262080,
          "time": 124.09078500000001,
          "velocity": 0.7007874015748031
        },
        {
          "duration": 0.227272499999998,
          "durationTicks": 480,
          "midi": 28,
          "name": "E1",
          "ticks": 263040,
          "time": 124.54533,
          "velocity": 0.7007874015748031
        },
        {
          "duration": 0.2272725000000122,
          "durationTicks": 480,
          "midi": 42,
          "name": "F#2",
          "ticks": 264000,
          "time": 124.999875,
          "velocity": 0.7007874015748031
        },
        {
          "duration": 0.2272725000000122,
          "durationTicks": 480,
          "midi": 30,
          "name": "F#1",
          "ticks": 264000,
          "time": 124.999875,
          "velocity": 0.7007874015748031
        },
        {
          "duration": 0.227272499999998,
          "durationTicks": 480,
          "midi": 43,
          "name": "G2",
          "ticks": 264480,
          "time": 125.22714750000002,
          "velocity": 0.7007874015748031
        },
        {
          "duration": 0.227272499999998,
          "durationTicks": 480,
          "midi": 31,
          "name": "G1",
          "ticks": 264480,
          "time": 125.22714750000002,
          "velocity": 0.7007874015748031
        },
        {
          "duration": 0.227272499999998,
          "durationTicks": 480,
          "midi": 32,
          "name": "G#1",
          "ticks": 264960,
          "time": 125.45442000000001,
          "velocity": 0.7007874015748031
        },
        {
          "duration": 0.227272499999998,
          "durationTicks": 480,
          "midi": 44,
          "name": "G#2",
          "ticks": 265440,
          "time": 125.68169250000001,
          "velocity": 0.7007874015748031
        },
        {
          "duration": 0.227272499999998,
          "durationTicks": 480,
          "midi": 32,
          "name": "G#1",
          "ticks": 265920,
          "time": 125.90896500000001,
          "velocity": 0.7007874015748031
        },
        {
          "duration": 0.227272499999998,
          "durationTicks": 480,
          "midi": 44,
          "name": "G#2",
          "ticks": 266400,
          "time": 126.13623750000001,
          "velocity": 0.7007874015748031
        },
        {
          "duration": 0.227272499999998,
          "durationTicks": 480,
          "midi": 32,
          "name": "G#1",
          "ticks": 266880,
          "time": 126.36351,
          "velocity": 0.7007874015748031
        },
        {
          "duration": 0.2272725000000122,
          "durationTicks": 480,
          "midi": 44,
          "name": "G#2",
          "ticks": 267360,
          "time": 126.5907825,
          "velocity": 0.7007874015748031
        },
        {
          "duration": 0.227272499999998,
          "durationTicks": 480,
          "midi": 32,
          "name": "G#1",
          "ticks": 267840,
          "time": 126.81805500000002,
          "velocity": 0.7007874015748031
        },
        {
          "duration": 0.227272499999998,
          "durationTicks": 480,
          "midi": 44,
          "name": "G#2",
          "ticks": 268320,
          "time": 127.04532750000001,
          "velocity": 0.7007874015748031
        },
        {
          "duration": 0.227272499999998,
          "durationTicks": 480,
          "midi": 35,
          "name": "B1",
          "ticks": 268800,
          "time": 127.27260000000001,
          "velocity": 0.7007874015748031
        },
        {
          "duration": 0.227272499999998,
          "durationTicks": 480,
          "midi": 47,
          "name": "B2",
          "ticks": 269280,
          "time": 127.49987250000001,
          "velocity": 0.7007874015748031
        },
        {
          "duration": 0.227272499999998,
          "durationTicks": 480,
          "midi": 35,
          "name": "B1",
          "ticks": 269760,
          "time": 127.72714500000001,
          "velocity": 0.7007874015748031
        },
        {
          "duration": 0.227272499999998,
          "durationTicks": 480,
          "midi": 47,
          "name": "B2",
          "ticks": 270240,
          "time": 127.9544175,
          "velocity": 0.7007874015748031
        },
        {
          "duration": 0.227272499999998,
          "durationTicks": 480,
          "midi": 35,
          "name": "B1",
          "ticks": 270720,
          "time": 128.18169,
          "velocity": 0.7007874015748031
        },
        {
          "duration": 0.227272499999998,
          "durationTicks": 480,
          "midi": 47,
          "name": "B2",
          "ticks": 271200,
          "time": 128.4089625,
          "velocity": 0.7007874015748031
        },
        {
          "duration": 0.227272499999998,
          "durationTicks": 480,
          "midi": 35,
          "name": "B1",
          "ticks": 271680,
          "time": 128.636235,
          "velocity": 0.7007874015748031
        },
        {
          "duration": 0.227272499999998,
          "durationTicks": 480,
          "midi": 47,
          "name": "B2",
          "ticks": 272160,
          "time": 128.8635075,
          "velocity": 0.7007874015748031
        },
        {
          "duration": 0.2272725000000264,
          "durationTicks": 480,
          "midi": 30,
          "name": "F#1",
          "ticks": 272640,
          "time": 129.09078,
          "velocity": 0.7007874015748031
        },
        {
          "duration": 0.227272499999998,
          "durationTicks": 480,
          "midi": 42,
          "name": "F#2",
          "ticks": 273120,
          "time": 129.31805250000002,
          "velocity": 0.7007874015748031
        },
        {
          "duration": 0.227272499999998,
          "durationTicks": 480,
          "midi": 30,
          "name": "F#1",
          "ticks": 273600,
          "time": 129.54532500000002,
          "velocity": 0.7007874015748031
        },
        {
          "duration": 0.227272499999998,
          "durationTicks": 480,
          "midi": 42,
          "name": "F#2",
          "ticks": 274080,
          "time": 129.77259750000002,
          "velocity": 0.7007874015748031
        },
        {
          "duration": 0.227272499999998,
          "durationTicks": 480,
          "midi": 30,
          "name": "F#1",
          "ticks": 274560,
          "time": 129.99987000000002,
          "velocity": 0.7007874015748031
        },
        {
          "duration": 0.227272499999998,
          "durationTicks": 480,
          "midi": 42,
          "name": "F#2",
          "ticks": 275040,
          "time": 130.2271425,
          "velocity": 0.7007874015748031
        },
        {
          "duration": 0.227272499999998,
          "durationTicks": 480,
          "midi": 30,
          "name": "F#1",
          "ticks": 275520,
          "time": 130.454415,
          "velocity": 0.7007874015748031
        },
        {
          "duration": 0.227272499999998,
          "durationTicks": 480,
          "midi": 42,
          "name": "F#2",
          "ticks": 276000,
          "time": 130.6816875,
          "velocity": 0.7007874015748031
        },
        {
          "duration": 0.227272499999998,
          "durationTicks": 480,
          "midi": 28,
          "name": "E1",
          "ticks": 276480,
          "time": 130.90896,
          "velocity": 0.7007874015748031
        },
        {
          "duration": 0.227272499999998,
          "durationTicks": 480,
          "midi": 40,
          "name": "E2",
          "ticks": 276960,
          "time": 131.1362325,
          "velocity": 0.7007874015748031
        },
        {
          "duration": 0.227272499999998,
          "durationTicks": 480,
          "midi": 28,
          "name": "E1",
          "ticks": 277440,
          "time": 131.363505,
          "velocity": 0.7007874015748031
        },
        {
          "duration": 0.227272499999998,
          "durationTicks": 480,
          "midi": 40,
          "name": "E2",
          "ticks": 277920,
          "time": 131.5907775,
          "velocity": 0.7007874015748031
        },
        {
          "duration": 0.227272499999998,
          "durationTicks": 480,
          "midi": 28,
          "name": "E1",
          "ticks": 278400,
          "time": 131.81805,
          "velocity": 0.7007874015748031
        },
        {
          "duration": 0.227272499999998,
          "durationTicks": 480,
          "midi": 40,
          "name": "E2",
          "ticks": 278880,
          "time": 132.0453225,
          "velocity": 0.7007874015748031
        },
        {
          "duration": 0.2272725000000264,
          "durationTicks": 480,
          "midi": 42,
          "name": "F#2",
          "ticks": 279360,
          "time": 132.272595,
          "velocity": 0.7007874015748031
        },
        {
          "duration": 0.2272725000000264,
          "durationTicks": 480,
          "midi": 30,
          "name": "F#1",
          "ticks": 279360,
          "time": 132.272595,
          "velocity": 0.7007874015748031
        },
        {
          "duration": 0.227272499999998,
          "durationTicks": 480,
          "midi": 43,
          "name": "G2",
          "ticks": 279840,
          "time": 132.49986750000002,
          "velocity": 0.7007874015748031
        },
        {
          "duration": 0.227272499999998,
          "durationTicks": 480,
          "midi": 31,
          "name": "G1",
          "ticks": 279840,
          "time": 132.49986750000002,
          "velocity": 0.7007874015748031
        },
        {
          "duration": 0.227272499999998,
          "durationTicks": 480,
          "midi": 30,
          "name": "F#1",
          "ticks": 280320,
          "time": 132.72714000000002,
          "velocity": 0.7007874015748031
        },
        {
          "duration": 0.227272499999998,
          "durationTicks": 480,
          "midi": 42,
          "name": "F#2",
          "ticks": 280800,
          "time": 132.95441250000002,
          "velocity": 0.7007874015748031
        },
        {
          "duration": 0.227272499999998,
          "durationTicks": 480,
          "midi": 30,
          "name": "F#1",
          "ticks": 281280,
          "time": 133.18168500000002,
          "velocity": 0.7007874015748031
        },
        {
          "duration": 0.227272499999998,
          "durationTicks": 480,
          "midi": 42,
          "name": "F#2",
          "ticks": 281760,
          "time": 133.4089575,
          "velocity": 0.7007874015748031
        },
        {
          "duration": 0.227272499999998,
          "durationTicks": 480,
          "midi": 30,
          "name": "F#1",
          "ticks": 282240,
          "time": 133.63623,
          "velocity": 0.7007874015748031
        },
        {
          "duration": 0.227272499999998,
          "durationTicks": 480,
          "midi": 42,
          "name": "F#2",
          "ticks": 282720,
          "time": 133.8635025,
          "velocity": 0.7007874015748031
        },
        {
          "duration": 0.227272499999998,
          "durationTicks": 480,
          "midi": 30,
          "name": "F#1",
          "ticks": 283200,
          "time": 134.090775,
          "velocity": 0.7007874015748031
        },
        {
          "duration": 0.227272499999998,
          "durationTicks": 480,
          "midi": 42,
          "name": "F#2",
          "ticks": 283680,
          "time": 134.3180475,
          "velocity": 0.7007874015748031
        },
        {
          "duration": 0.227272499999998,
          "durationTicks": 480,
          "midi": 35,
          "name": "B1",
          "ticks": 284160,
          "time": 134.54532,
          "velocity": 0.7007874015748031
        },
        {
          "duration": 0.227272499999998,
          "durationTicks": 480,
          "midi": 47,
          "name": "B2",
          "ticks": 284640,
          "time": 134.7725925,
          "velocity": 0.7007874015748031
        },
        {
          "duration": 0.227272499999998,
          "durationTicks": 480,
          "midi": 35,
          "name": "B1",
          "ticks": 285120,
          "time": 134.999865,
          "velocity": 0.7007874015748031
        },
        {
          "duration": 0.227272499999998,
          "durationTicks": 480,
          "midi": 47,
          "name": "B2",
          "ticks": 285600,
          "time": 135.2271375,
          "velocity": 0.7007874015748031
        },
        {
          "duration": 0.2272725000000264,
          "durationTicks": 480,
          "midi": 35,
          "name": "B1",
          "ticks": 286080,
          "time": 135.45441,
          "velocity": 0.7007874015748031
        },
        {
          "duration": 0.227272499999998,
          "durationTicks": 480,
          "midi": 47,
          "name": "B2",
          "ticks": 286560,
          "time": 135.68168250000002,
          "velocity": 0.7007874015748031
        },
        {
          "duration": 0.227272499999998,
          "durationTicks": 480,
          "midi": 35,
          "name": "B1",
          "ticks": 287040,
          "time": 135.90895500000002,
          "velocity": 0.7007874015748031
        },
        {
          "duration": 0.227272499999998,
          "durationTicks": 480,
          "midi": 47,
          "name": "B2",
          "ticks": 287520,
          "time": 136.13622750000002,
          "velocity": 0.7007874015748031
        },
        {
          "duration": 0.227272499999998,
          "durationTicks": 480,
          "midi": 30,
          "name": "F#1",
          "ticks": 288000,
          "time": 136.36350000000002,
          "velocity": 0.7007874015748031
        },
        {
          "duration": 0.227272499999998,
          "durationTicks": 480,
          "midi": 42,
          "name": "F#2",
          "ticks": 288480,
          "time": 136.5907725,
          "velocity": 0.7007874015748031
        },
        {
          "duration": 0.227272499999998,
          "durationTicks": 480,
          "midi": 30,
          "name": "F#1",
          "ticks": 288960,
          "time": 136.818045,
          "velocity": 0.7007874015748031
        },
        {
          "duration": 0.227272499999998,
          "durationTicks": 480,
          "midi": 42,
          "name": "F#2",
          "ticks": 289440,
          "time": 137.0453175,
          "velocity": 0.7007874015748031
        },
        {
          "duration": 0.227272499999998,
          "durationTicks": 480,
          "midi": 30,
          "name": "F#1",
          "ticks": 289920,
          "time": 137.27259,
          "velocity": 0.7007874015748031
        },
        {
          "duration": 0.227272499999998,
          "durationTicks": 480,
          "midi": 42,
          "name": "F#2",
          "ticks": 290400,
          "time": 137.4998625,
          "velocity": 0.7007874015748031
        },
        {
          "duration": 0.227272499999998,
          "durationTicks": 480,
          "midi": 30,
          "name": "F#1",
          "ticks": 290880,
          "time": 137.727135,
          "velocity": 0.7007874015748031
        },
        {
          "duration": 0.227272499999998,
          "durationTicks": 480,
          "midi": 42,
          "name": "F#2",
          "ticks": 291360,
          "time": 137.9544075,
          "velocity": 0.7007874015748031
        },
        {
          "duration": 0.227272499999998,
          "durationTicks": 480,
          "midi": 28,
          "name": "E1",
          "ticks": 291840,
          "time": 138.18168,
          "velocity": 0.7007874015748031
        },
        {
          "duration": 0.227272499999998,
          "durationTicks": 480,
          "midi": 40,
          "name": "E2",
          "ticks": 292320,
          "time": 138.4089525,
          "velocity": 0.7007874015748031
        },
        {
          "duration": 0.2272725000000264,
          "durationTicks": 480,
          "midi": 28,
          "name": "E1",
          "ticks": 292800,
          "time": 138.636225,
          "velocity": 0.7007874015748031
        },
        {
          "duration": 0.227272499999998,
          "durationTicks": 480,
          "midi": 40,
          "name": "E2",
          "ticks": 293280,
          "time": 138.86349750000002,
          "velocity": 0.7007874015748031
        },
        {
          "duration": 0.227272499999998,
          "durationTicks": 480,
          "midi": 28,
          "name": "E1",
          "ticks": 293760,
          "time": 139.09077000000002,
          "velocity": 0.7007874015748031
        },
        {
          "duration": 0.227272499999998,
          "durationTicks": 480,
          "midi": 40,
          "name": "E2",
          "ticks": 294240,
          "time": 139.31804250000002,
          "velocity": 0.7007874015748031
        },
        {
          "duration": 0.227272499999998,
          "durationTicks": 480,
          "midi": 42,
          "name": "F#2",
          "ticks": 294720,
          "time": 139.54531500000002,
          "velocity": 0.7007874015748031
        },
        {
          "duration": 0.227272499999998,
          "durationTicks": 480,
          "midi": 30,
          "name": "F#1",
          "ticks": 294720,
          "time": 139.54531500000002,
          "velocity": 0.7007874015748031
        },
        {
          "duration": 0.227272499999998,
          "durationTicks": 480,
          "midi": 43,
          "name": "G2",
          "ticks": 295200,
          "time": 139.77258750000001,
          "velocity": 0.7007874015748031
        },
        {
          "duration": 0.227272499999998,
          "durationTicks": 480,
          "midi": 31,
          "name": "G1",
          "ticks": 295200,
          "time": 139.77258750000001,
          "velocity": 0.7007874015748031
        },
        {
          "duration": 0.227272499999998,
          "durationTicks": 480,
          "midi": 51,
          "name": "D#3",
          "ticks": 295680,
          "time": 139.99986,
          "velocity": 0.7007874015748031
        },
        {
          "duration": 0.227272499999998,
          "durationTicks": 480,
          "midi": 44,
          "name": "G#2",
          "ticks": 295680,
          "time": 139.99986,
          "velocity": 0.7007874015748031
        },
        {
          "duration": 0.227272499999998,
          "durationTicks": 480,
          "midi": 51,
          "name": "D#3",
          "ticks": 297120,
          "time": 140.6816775,
          "velocity": 0.7007874015748031
        },
        {
          "duration": 0.227272499999998,
          "durationTicks": 480,
          "midi": 44,
          "name": "G#2",
          "ticks": 297120,
          "time": 140.6816775,
          "velocity": 0.7007874015748031
        },
        {
          "duration": 0.2272725000000264,
          "durationTicks": 480,
          "midi": 47,
          "name": "B2",
          "ticks": 299520,
          "time": 141.81804,
          "velocity": 0.7007874015748031
        },
        {
          "duration": 0.2272725000000264,
          "durationTicks": 480,
          "midi": 35,
          "name": "B1",
          "ticks": 299520,
          "time": 141.81804,
          "velocity": 0.7007874015748031
        },
        {
          "duration": 0.227272499999998,
          "durationTicks": 480,
          "midi": 47,
          "name": "B2",
          "ticks": 300960,
          "time": 142.49985750000002,
          "velocity": 0.7007874015748031
        },
        {
          "duration": 0.227272499999998,
          "durationTicks": 480,
          "midi": 35,
          "name": "B1",
          "ticks": 300960,
          "time": 142.49985750000002,
          "velocity": 0.7007874015748031
        },
        {
          "duration": 0.227272499999998,
          "durationTicks": 480,
          "midi": 42,
          "name": "F#2",
          "ticks": 303360,
          "time": 143.63622,
          "velocity": 0.7007874015748031
        },
        {
          "duration": 0.227272499999998,
          "durationTicks": 480,
          "midi": 49,
          "name": "C#3",
          "ticks": 303360,
          "time": 143.63622,
          "velocity": 0.7007874015748031
        },
        {
          "duration": 0.227272499999998,
          "durationTicks": 480,
          "midi": 42,
          "name": "F#2",
          "ticks": 304800,
          "time": 144.3180375,
          "velocity": 0.7007874015748031
        },
        {
          "duration": 0.227272499999998,
          "durationTicks": 480,
          "midi": 49,
          "name": "C#3",
          "ticks": 304800,
          "time": 144.3180375,
          "velocity": 0.7007874015748031
        },
        {
          "duration": 0.227272499999998,
          "durationTicks": 480,
          "midi": 40,
          "name": "E2",
          "ticks": 307200,
          "time": 145.45440000000002,
          "velocity": 0.7007874015748031
        },
        {
          "duration": 0.227272499999998,
          "durationTicks": 480,
          "midi": 47,
          "name": "B2",
          "ticks": 307200,
          "time": 145.45440000000002,
          "velocity": 0.7007874015748031
        },
        {
          "duration": 0.227272499999998,
          "durationTicks": 480,
          "midi": 40,
          "name": "E2",
          "ticks": 308640,
          "time": 146.13621750000001,
          "velocity": 0.7007874015748031
        },
        {
          "duration": 0.227272499999998,
          "durationTicks": 480,
          "midi": 47,
          "name": "B2",
          "ticks": 308640,
          "time": 146.13621750000001,
          "velocity": 0.7007874015748031
        },
        {
          "duration": 0.454544999999996,
          "durationTicks": 960,
          "midi": 49,
          "name": "C#3",
          "ticks": 309600,
          "time": 146.5907625,
          "velocity": 0.7007874015748031
        },
        {
          "duration": 0.454544999999996,
          "durationTicks": 960,
          "midi": 42,
          "name": "F#2",
          "ticks": 309600,
          "time": 146.5907625,
          "velocity": 0.7007874015748031
        },
        {
          "duration": 0.227272499999998,
          "durationTicks": 480,
          "midi": 50,
          "name": "D3",
          "ticks": 310560,
          "time": 147.0453075,
          "velocity": 0.7007874015748031
        },
        {
          "duration": 0.227272499999998,
          "durationTicks": 480,
          "midi": 43,
          "name": "G2",
          "ticks": 310560,
          "time": 147.0453075,
          "velocity": 0.7007874015748031
        },
        {
          "duration": 0.227272499999998,
          "durationTicks": 480,
          "midi": 51,
          "name": "D#3",
          "ticks": 311040,
          "time": 147.27258,
          "velocity": 0.7007874015748031
        },
        {
          "duration": 0.227272499999998,
          "durationTicks": 480,
          "midi": 44,
          "name": "G#2",
          "ticks": 311040,
          "time": 147.27258,
          "velocity": 0.7007874015748031
        },
        {
          "duration": 0.227272499999998,
          "durationTicks": 480,
          "midi": 51,
          "name": "D#3",
          "ticks": 312480,
          "time": 147.9543975,
          "velocity": 0.7007874015748031
        },
        {
          "duration": 0.227272499999998,
          "durationTicks": 480,
          "midi": 44,
          "name": "G#2",
          "ticks": 312480,
          "time": 147.9543975,
          "velocity": 0.7007874015748031
        },
        {
          "duration": 0.227272499999998,
          "durationTicks": 480,
          "midi": 47,
          "name": "B2",
          "ticks": 314880,
          "time": 149.09076000000002,
          "velocity": 0.7007874015748031
        },
        {
          "duration": 0.227272499999998,
          "durationTicks": 480,
          "midi": 35,
          "name": "B1",
          "ticks": 314880,
          "time": 149.09076000000002,
          "velocity": 0.7007874015748031
        },
        {
          "duration": 0.227272499999998,
          "durationTicks": 480,
          "midi": 47,
          "name": "B2",
          "ticks": 316320,
          "time": 149.7725775,
          "velocity": 0.7007874015748031
        },
        {
          "duration": 0.227272499999998,
          "durationTicks": 480,
          "midi": 37,
          "name": "C#2",
          "ticks": 316320,
          "time": 149.7725775,
          "velocity": 0.7007874015748031
        },
        {
          "duration": 0.227272499999998,
          "durationTicks": 480,
          "midi": 42,
          "name": "F#2",
          "ticks": 318720,
          "time": 150.90894,
          "velocity": 0.7007874015748031
        },
        {
          "duration": 0.227272499999998,
          "durationTicks": 480,
          "midi": 49,
          "name": "C#3",
          "ticks": 318720,
          "time": 150.90894,
          "velocity": 0.7007874015748031
        },
        {
          "duration": 0.227272499999998,
          "durationTicks": 480,
          "midi": 42,
          "name": "F#2",
          "ticks": 320160,
          "time": 151.59075750000002,
          "velocity": 0.7007874015748031
        },
        {
          "duration": 0.227272499999998,
          "durationTicks": 480,
          "midi": 49,
          "name": "C#3",
          "ticks": 320160,
          "time": 151.59075750000002,
          "velocity": 0.7007874015748031
        },
        {
          "duration": 0.227272499999998,
          "durationTicks": 480,
          "midi": 47,
          "name": "B2",
          "ticks": 322560,
          "time": 152.72712,
          "velocity": 0.7007874015748031
        },
        {
          "duration": 0.227272499999998,
          "durationTicks": 480,
          "midi": 40,
          "name": "E2",
          "ticks": 322560,
          "time": 152.72712,
          "velocity": 0.7007874015748031
        },
        {
          "duration": 0.227272499999998,
          "durationTicks": 480,
          "midi": 47,
          "name": "B2",
          "ticks": 324000,
          "time": 153.4089375,
          "velocity": 0.7007874015748031
        },
        {
          "duration": 0.227272499999998,
          "durationTicks": 480,
          "midi": 40,
          "name": "E2",
          "ticks": 324000,
          "time": 153.4089375,
          "velocity": 0.7007874015748031
        },
        {
          "duration": 0.454544999999996,
          "durationTicks": 960,
          "midi": 42,
          "name": "F#2",
          "ticks": 324960,
          "time": 153.8634825,
          "velocity": 0.7007874015748031
        },
        {
          "duration": 0.454544999999996,
          "durationTicks": 960,
          "midi": 49,
          "name": "C#3",
          "ticks": 324960,
          "time": 153.8634825,
          "velocity": 0.7007874015748031
        },
        {
          "duration": 0.227272499999998,
          "durationTicks": 480,
          "midi": 50,
          "name": "D3",
          "ticks": 325920,
          "time": 154.3180275,
          "velocity": 0.7007874015748031
        },
        {
          "duration": 0.227272499999998,
          "durationTicks": 480,
          "midi": 43,
          "name": "G2",
          "ticks": 325920,
          "time": 154.3180275,
          "velocity": 0.7007874015748031
        },
        {
          "duration": 0.2272725000000264,
          "durationTicks": 480,
          "midi": 51,
          "name": "D#3",
          "ticks": 326400,
          "time": 154.5453,
          "velocity": 0.7007874015748031
        },
        {
          "duration": 0.2272725000000264,
          "durationTicks": 480,
          "midi": 44,
          "name": "G#2",
          "ticks": 326400,
          "time": 154.5453,
          "velocity": 0.7007874015748031
        },
        {
          "duration": 0.227272499999998,
          "durationTicks": 480,
          "midi": 51,
          "name": "D#3",
          "ticks": 327840,
          "time": 155.22711750000002,
          "velocity": 0.7007874015748031
        },
        {
          "duration": 0.227272499999998,
          "durationTicks": 480,
          "midi": 44,
          "name": "G#2",
          "ticks": 327840,
          "time": 155.22711750000002,
          "velocity": 0.7007874015748031
        },
        {
          "duration": 0.227272499999998,
          "durationTicks": 480,
          "midi": 47,
          "name": "B2",
          "ticks": 330240,
          "time": 156.36348,
          "velocity": 0.7007874015748031
        },
        {
          "duration": 0.227272499999998,
          "durationTicks": 480,
          "midi": 35,
          "name": "B1",
          "ticks": 330240,
          "time": 156.36348,
          "velocity": 0.7007874015748031
        },
        {
          "duration": 0.227272499999998,
          "durationTicks": 480,
          "midi": 47,
          "name": "B2",
          "ticks": 331680,
          "time": 157.0452975,
          "velocity": 0.7007874015748031
        },
        {
          "duration": 0.227272499999998,
          "durationTicks": 480,
          "midi": 35,
          "name": "B1",
          "ticks": 331680,
          "time": 157.0452975,
          "velocity": 0.7007874015748031
        },
        {
          "duration": 0.227272499999998,
          "durationTicks": 480,
          "midi": 42,
          "name": "F#2",
          "ticks": 334080,
          "time": 158.18166000000002,
          "velocity": 0.7007874015748031
        },
        {
          "duration": 0.227272499999998,
          "durationTicks": 480,
          "midi": 49,
          "name": "C#3",
          "ticks": 334080,
          "time": 158.18166000000002,
          "velocity": 0.7007874015748031
        },
        {
          "duration": 0.227272499999998,
          "durationTicks": 480,
          "midi": 42,
          "name": "F#2",
          "ticks": 335520,
          "time": 158.86347750000002,
          "velocity": 0.7007874015748031
        },
        {
          "duration": 0.227272499999998,
          "durationTicks": 480,
          "midi": 49,
          "name": "C#3",
          "ticks": 335520,
          "time": 158.86347750000002,
          "velocity": 0.7007874015748031
        },
        {
          "duration": 0.227272499999998,
          "durationTicks": 480,
          "midi": 40,
          "name": "E2",
          "ticks": 337920,
          "time": 159.99984,
          "velocity": 0.7007874015748031
        },
        {
          "duration": 0.227272499999998,
          "durationTicks": 480,
          "midi": 47,
          "name": "B2",
          "ticks": 337920,
          "time": 159.99984,
          "velocity": 0.7007874015748031
        },
        {
          "duration": 0.227272499999998,
          "durationTicks": 480,
          "midi": 40,
          "name": "E2",
          "ticks": 339360,
          "time": 160.6816575,
          "velocity": 0.7007874015748031
        },
        {
          "duration": 0.227272499999998,
          "durationTicks": 480,
          "midi": 47,
          "name": "B2",
          "ticks": 339360,
          "time": 160.6816575,
          "velocity": 0.7007874015748031
        },
        {
          "duration": 0.454544999999996,
          "durationTicks": 960,
          "midi": 49,
          "name": "C#3",
          "ticks": 340320,
          "time": 161.13620250000002,
          "velocity": 0.7007874015748031
        },
        {
          "duration": 0.454544999999996,
          "durationTicks": 960,
          "midi": 42,
          "name": "F#2",
          "ticks": 340320,
          "time": 161.13620250000002,
          "velocity": 0.7007874015748031
        },
        {
          "duration": 0.227272499999998,
          "durationTicks": 480,
          "midi": 50,
          "name": "D3",
          "ticks": 341280,
          "time": 161.59074750000002,
          "velocity": 0.7007874015748031
        },
        {
          "duration": 0.227272499999998,
          "durationTicks": 480,
          "midi": 43,
          "name": "G2",
          "ticks": 341280,
          "time": 161.59074750000002,
          "velocity": 0.7007874015748031
        },
        {
          "duration": 0.227272499999998,
          "durationTicks": 480,
          "midi": 51,
          "name": "D#3",
          "ticks": 341760,
          "time": 161.81802000000002,
          "velocity": 0.7007874015748031
        },
        {
          "duration": 0.227272499999998,
          "durationTicks": 480,
          "midi": 44,
          "name": "G#2",
          "ticks": 341760,
          "time": 161.81802000000002,
          "velocity": 0.7007874015748031
        },
        {
          "duration": 0.227272499999998,
          "durationTicks": 480,
          "midi": 51,
          "name": "D#3",
          "ticks": 343200,
          "time": 162.4998375,
          "velocity": 0.7007874015748031
        },
        {
          "duration": 0.227272499999998,
          "durationTicks": 480,
          "midi": 44,
          "name": "G#2",
          "ticks": 343200,
          "time": 162.4998375,
          "velocity": 0.7007874015748031
        },
        {
          "duration": 0.227272499999998,
          "durationTicks": 480,
          "midi": 47,
          "name": "B2",
          "ticks": 345600,
          "time": 163.6362,
          "velocity": 0.7007874015748031
        },
        {
          "duration": 0.227272499999998,
          "durationTicks": 480,
          "midi": 35,
          "name": "B1",
          "ticks": 345600,
          "time": 163.6362,
          "velocity": 0.7007874015748031
        },
        {
          "duration": 0.227272499999998,
          "durationTicks": 480,
          "midi": 47,
          "name": "B2",
          "ticks": 347040,
          "time": 164.31801750000002,
          "velocity": 0.7007874015748031
        },
        {
          "duration": 0.227272499999998,
          "durationTicks": 480,
          "midi": 37,
          "name": "C#2",
          "ticks": 347040,
          "time": 164.31801750000002,
          "velocity": 0.7007874015748031
        },
        {
          "duration": 0.227272499999998,
          "durationTicks": 480,
          "midi": 42,
          "name": "F#2",
          "ticks": 349440,
          "time": 165.45438000000001,
          "velocity": 0.7007874015748031
        },
        {
          "duration": 0.227272499999998,
          "durationTicks": 480,
          "midi": 49,
          "name": "C#3",
          "ticks": 349440,
          "time": 165.45438000000001,
          "velocity": 0.7007874015748031
        },
        {
          "duration": 0.227272499999998,
          "durationTicks": 480,
          "midi": 42,
          "name": "F#2",
          "ticks": 350880,
          "time": 166.1361975,
          "velocity": 0.7007874015748031
        },
        {
          "duration": 0.227272499999998,
          "durationTicks": 480,
          "midi": 49,
          "name": "C#3",
          "ticks": 350880,
          "time": 166.1361975,
          "velocity": 0.7007874015748031
        },
        {
          "duration": 0.2272725000000264,
          "durationTicks": 480,
          "midi": 40,
          "name": "E2",
          "ticks": 353280,
          "time": 167.27256,
          "velocity": 0.7007874015748031
        },
        {
          "duration": 0.2272725000000264,
          "durationTicks": 480,
          "midi": 47,
          "name": "B2",
          "ticks": 353280,
          "time": 167.27256,
          "velocity": 0.7007874015748031
        },
        {
          "duration": 0.227272499999998,
          "durationTicks": 480,
          "midi": 40,
          "name": "E2",
          "ticks": 354720,
          "time": 167.95437750000002,
          "velocity": 0.7007874015748031
        },
        {
          "duration": 0.227272499999998,
          "durationTicks": 480,
          "midi": 47,
          "name": "B2",
          "ticks": 354720,
          "time": 167.95437750000002,
          "velocity": 0.7007874015748031
        },
        {
          "duration": 0.454544999999996,
          "durationTicks": 960,
          "midi": 54,
          "name": "F#3",
          "ticks": 355680,
          "time": 168.40892250000002,
          "velocity": 0.7007874015748031
        },
        {
          "duration": 0.454544999999996,
          "durationTicks": 960,
          "midi": 49,
          "name": "C#3",
          "ticks": 355680,
          "time": 168.40892250000002,
          "velocity": 0.7007874015748031
        },
        {
          "duration": 0.454544999999996,
          "durationTicks": 960,
          "midi": 42,
          "name": "F#2",
          "ticks": 355680,
          "time": 168.40892250000002,
          "velocity": 0.7007874015748031
        },
        {
          "duration": 0.227272499999998,
          "durationTicks": 480,
          "midi": 55,
          "name": "G3",
          "ticks": 356640,
          "time": 168.8634675,
          "velocity": 0.7007874015748031
        },
        {
          "duration": 0.227272499999998,
          "durationTicks": 480,
          "midi": 50,
          "name": "D3",
          "ticks": 356640,
          "time": 168.8634675,
          "velocity": 0.7007874015748031
        },
        {
          "duration": 0.227272499999998,
          "durationTicks": 480,
          "midi": 43,
          "name": "G2",
          "ticks": 356640,
          "time": 168.8634675,
          "velocity": 0.7007874015748031
        },
        {
          "duration": 0.227272499999998,
          "durationTicks": 480,
          "midi": 32,
          "name": "G#1",
          "ticks": 357120,
          "time": 169.09074,
          "velocity": 0.7007874015748031
        },
        {
          "duration": 0.227272499999998,
          "durationTicks": 480,
          "midi": 44,
          "name": "G#2",
          "ticks": 357600,
          "time": 169.3180125,
          "velocity": 0.7007874015748031
        },
        {
          "duration": 0.227272499999998,
          "durationTicks": 480,
          "midi": 32,
          "name": "G#1",
          "ticks": 358080,
          "time": 169.545285,
          "velocity": 0.7007874015748031
        },
        {
          "duration": 0.227272499999998,
          "durationTicks": 480,
          "midi": 44,
          "name": "G#2",
          "ticks": 358560,
          "time": 169.7725575,
          "velocity": 0.7007874015748031
        },
        {
          "duration": 0.227272499999998,
          "durationTicks": 480,
          "midi": 32,
          "name": "G#1",
          "ticks": 359040,
          "time": 169.99983,
          "velocity": 0.7007874015748031
        },
        {
          "duration": 0.227272499999998,
          "durationTicks": 480,
          "midi": 44,
          "name": "G#2",
          "ticks": 359520,
          "time": 170.2271025,
          "velocity": 0.7007874015748031
        },
        {
          "duration": 0.2272725000000264,
          "durationTicks": 480,
          "midi": 32,
          "name": "G#1",
          "ticks": 360000,
          "time": 170.454375,
          "velocity": 0.7007874015748031
        },
        {
          "duration": 0.227272499999998,
          "durationTicks": 480,
          "midi": 44,
          "name": "G#2",
          "ticks": 360480,
          "time": 170.68164750000003,
          "velocity": 0.7007874015748031
        },
        {
          "duration": 0.227272499999998,
          "durationTicks": 480,
          "midi": 35,
          "name": "B1",
          "ticks": 360960,
          "time": 170.90892000000002,
          "velocity": 0.7007874015748031
        },
        {
          "duration": 0.227272499999998,
          "durationTicks": 480,
          "midi": 47,
          "name": "B2",
          "ticks": 361440,
          "time": 171.13619250000002,
          "velocity": 0.7007874015748031
        },
        {
          "duration": 0.227272499999998,
          "durationTicks": 480,
          "midi": 35,
          "name": "B1",
          "ticks": 361920,
          "time": 171.36346500000002,
          "velocity": 0.7007874015748031
        },
        {
          "duration": 0.227272499999998,
          "durationTicks": 480,
          "midi": 47,
          "name": "B2",
          "ticks": 362400,
          "time": 171.59073750000002,
          "velocity": 0.7007874015748031
        },
        {
          "duration": 0.227272499999998,
          "durationTicks": 480,
          "midi": 35,
          "name": "B1",
          "ticks": 362880,
          "time": 171.81801000000002,
          "velocity": 0.7007874015748031
        },
        {
          "duration": 0.227272499999998,
          "durationTicks": 480,
          "midi": 47,
          "name": "B2",
          "ticks": 363360,
          "time": 172.0452825,
          "velocity": 0.7007874015748031
        },
        {
          "duration": 0.227272499999998,
          "durationTicks": 480,
          "midi": 35,
          "name": "B1",
          "ticks": 363840,
          "time": 172.272555,
          "velocity": 0.7007874015748031
        },
        {
          "duration": 0.227272499999998,
          "durationTicks": 480,
          "midi": 47,
          "name": "B2",
          "ticks": 364320,
          "time": 172.4998275,
          "velocity": 0.7007874015748031
        },
        {
          "duration": 0.227272499999998,
          "durationTicks": 480,
          "midi": 30,
          "name": "F#1",
          "ticks": 364800,
          "time": 172.7271,
          "velocity": 0.7007874015748031
        },
        {
          "duration": 0.227272499999998,
          "durationTicks": 480,
          "midi": 42,
          "name": "F#2",
          "ticks": 365280,
          "time": 172.9543725,
          "velocity": 0.7007874015748031
        },
        {
          "duration": 0.227272499999998,
          "durationTicks": 480,
          "midi": 30,
          "name": "F#1",
          "ticks": 365760,
          "time": 173.181645,
          "velocity": 0.7007874015748031
        },
        {
          "duration": 0.227272499999998,
          "durationTicks": 480,
          "midi": 42,
          "name": "F#2",
          "ticks": 366240,
          "time": 173.4089175,
          "velocity": 0.7007874015748031
        },
        {
          "duration": 0.2272725000000264,
          "durationTicks": 480,
          "midi": 30,
          "name": "F#1",
          "ticks": 366720,
          "time": 173.63619,
          "velocity": 0.7007874015748031
        },
        {
          "duration": 0.227272499999998,
          "durationTicks": 480,
          "midi": 42,
          "name": "F#2",
          "ticks": 367200,
          "time": 173.86346250000003,
          "velocity": 0.7007874015748031
        },
        {
          "duration": 0.227272499999998,
          "durationTicks": 480,
          "midi": 30,
          "name": "F#1",
          "ticks": 367680,
          "time": 174.09073500000002,
          "velocity": 0.7007874015748031
        },
        {
          "duration": 0.227272499999998,
          "durationTicks": 480,
          "midi": 42,
          "name": "F#2",
          "ticks": 368160,
          "time": 174.31800750000002,
          "velocity": 0.7007874015748031
        },
        {
          "duration": 0.227272499999998,
          "durationTicks": 480,
          "midi": 28,
          "name": "E1",
          "ticks": 368640,
          "time": 174.54528000000002,
          "velocity": 0.7007874015748031
        },
        {
          "duration": 0.227272499999998,
          "durationTicks": 480,
          "midi": 40,
          "name": "E2",
          "ticks": 369120,
          "time": 174.77255250000002,
          "velocity": 0.7007874015748031
        },
        {
          "duration": 0.227272499999998,
          "durationTicks": 480,
          "midi": 28,
          "name": "E1",
          "ticks": 369600,
          "time": 174.99982500000002,
          "velocity": 0.7007874015748031
        },
        {
          "duration": 0.227272499999998,
          "durationTicks": 480,
          "midi": 40,
          "name": "E2",
          "ticks": 370080,
          "time": 175.2270975,
          "velocity": 0.7007874015748031
        },
        {
          "duration": 0.227272499999998,
          "durationTicks": 480,
          "midi": 28,
          "name": "E1",
          "ticks": 370560,
          "time": 175.45437,
          "velocity": 0.7007874015748031
        },
        {
          "duration": 0.227272499999998,
          "durationTicks": 480,
          "midi": 40,
          "name": "E2",
          "ticks": 371040,
          "time": 175.6816425,
          "velocity": 0.7007874015748031
        },
        {
          "duration": 0.227272499999998,
          "durationTicks": 480,
          "midi": 30,
          "name": "F#1",
          "ticks": 371520,
          "time": 175.908915,
          "velocity": 0.7007874015748031
        },
        {
          "duration": 0.227272499999998,
          "durationTicks": 480,
          "midi": 42,
          "name": "F#2",
          "ticks": 371520,
          "time": 175.908915,
          "velocity": 0.7007874015748031
        },
        {
          "duration": 0.227272499999998,
          "durationTicks": 480,
          "midi": 43,
          "name": "G2",
          "ticks": 372000,
          "time": 176.1361875,
          "velocity": 0.7007874015748031
        },
        {
          "duration": 0.227272499999998,
          "durationTicks": 480,
          "midi": 31,
          "name": "G1",
          "ticks": 372000,
          "time": 176.1361875,
          "velocity": 0.7007874015748031
        },
        {
          "duration": 0.227272499999998,
          "durationTicks": 480,
          "midi": 32,
          "name": "G#1",
          "ticks": 372480,
          "time": 176.36346,
          "velocity": 0.7007874015748031
        },
        {
          "duration": 0.227272499999998,
          "durationTicks": 480,
          "midi": 44,
          "name": "G#2",
          "ticks": 372960,
          "time": 176.5907325,
          "velocity": 0.7007874015748031
        },
        {
          "duration": 0.2272725000000264,
          "durationTicks": 480,
          "midi": 32,
          "name": "G#1",
          "ticks": 373440,
          "time": 176.818005,
          "velocity": 0.7007874015748031
        },
        {
          "duration": 0.227272499999998,
          "durationTicks": 480,
          "midi": 44,
          "name": "G#2",
          "ticks": 373920,
          "time": 177.04527750000003,
          "velocity": 0.7007874015748031
        },
        {
          "duration": 0.227272499999998,
          "durationTicks": 480,
          "midi": 32,
          "name": "G#1",
          "ticks": 374400,
          "time": 177.27255000000002,
          "velocity": 0.7007874015748031
        },
        {
          "duration": 0.227272499999998,
          "durationTicks": 480,
          "midi": 44,
          "name": "G#2",
          "ticks": 374880,
          "time": 177.49982250000002,
          "velocity": 0.7007874015748031
        },
        {
          "duration": 0.227272499999998,
          "durationTicks": 480,
          "midi": 32,
          "name": "G#1",
          "ticks": 375360,
          "time": 177.72709500000002,
          "velocity": 0.7007874015748031
        },
        {
          "duration": 0.227272499999998,
          "durationTicks": 480,
          "midi": 44,
          "name": "G#2",
          "ticks": 375840,
          "time": 177.95436750000002,
          "velocity": 0.7007874015748031
        },
        {
          "duration": 0.227272499999998,
          "durationTicks": 480,
          "midi": 35,
          "name": "B1",
          "ticks": 376320,
          "time": 178.18164000000002,
          "velocity": 0.7007874015748031
        },
        {
          "duration": 0.227272499999998,
          "durationTicks": 480,
          "midi": 47,
          "name": "B2",
          "ticks": 376800,
          "time": 178.4089125,
          "velocity": 0.7007874015748031
        },
        {
          "duration": 0.227272499999998,
          "durationTicks": 480,
          "midi": 35,
          "name": "B1",
          "ticks": 377280,
          "time": 178.636185,
          "velocity": 0.7007874015748031
        },
        {
          "duration": 0.227272499999998,
          "durationTicks": 480,
          "midi": 46,
          "name": "A#2",
          "ticks": 377760,
          "time": 178.8634575,
          "velocity": 0.7007874015748031
        },
        {
          "duration": 0.227272499999998,
          "durationTicks": 480,
          "midi": 35,
          "name": "B1",
          "ticks": 378240,
          "time": 179.09073,
          "velocity": 0.7007874015748031
        },
        {
          "duration": 0.227272499999998,
          "durationTicks": 480,
          "midi": 47,
          "name": "B2",
          "ticks": 378720,
          "time": 179.3180025,
          "velocity": 0.7007874015748031
        },
        {
          "duration": 0.227272499999998,
          "durationTicks": 480,
          "midi": 35,
          "name": "B1",
          "ticks": 379200,
          "time": 179.545275,
          "velocity": 0.7007874015748031
        },
        {
          "duration": 0.227272499999998,
          "durationTicks": 480,
          "midi": 47,
          "name": "B2",
          "ticks": 379680,
          "time": 179.7725475,
          "velocity": 0.7007874015748031
        },
        {
          "duration": 0.2272725000000264,
          "durationTicks": 480,
          "midi": 30,
          "name": "F#1",
          "ticks": 380160,
          "time": 179.99982,
          "velocity": 0.7007874015748031
        },
        {
          "duration": 0.227272499999998,
          "durationTicks": 480,
          "midi": 42,
          "name": "F#2",
          "ticks": 380640,
          "time": 180.22709250000003,
          "velocity": 0.7007874015748031
        },
        {
          "duration": 0.227272499999998,
          "durationTicks": 480,
          "midi": 30,
          "name": "F#1",
          "ticks": 381120,
          "time": 180.45436500000002,
          "velocity": 0.7007874015748031
        },
        {
          "duration": 0.227272499999998,
          "durationTicks": 480,
          "midi": 42,
          "name": "F#2",
          "ticks": 381600,
          "time": 180.68163750000002,
          "velocity": 0.7007874015748031
        },
        {
          "duration": 0.227272499999998,
          "durationTicks": 480,
          "midi": 30,
          "name": "F#1",
          "ticks": 382080,
          "time": 180.90891000000002,
          "velocity": 0.7007874015748031
        },
        {
          "duration": 0.227272499999998,
          "durationTicks": 480,
          "midi": 42,
          "name": "F#2",
          "ticks": 382560,
          "time": 181.13618250000002,
          "velocity": 0.7007874015748031
        },
        {
          "duration": 0.227272499999998,
          "durationTicks": 480,
          "midi": 30,
          "name": "F#1",
          "ticks": 383040,
          "time": 181.36345500000002,
          "velocity": 0.7007874015748031
        },
        {
          "duration": 0.227272499999998,
          "durationTicks": 480,
          "midi": 42,
          "name": "F#2",
          "ticks": 383520,
          "time": 181.5907275,
          "velocity": 0.7007874015748031
        },
        {
          "duration": 0.227272499999998,
          "durationTicks": 480,
          "midi": 28,
          "name": "E1",
          "ticks": 384000,
          "time": 181.818,
          "velocity": 0.7007874015748031
        },
        {
          "duration": 0.227272499999998,
          "durationTicks": 480,
          "midi": 40,
          "name": "E2",
          "ticks": 384480,
          "time": 182.0452725,
          "velocity": 0.7007874015748031
        },
        {
          "duration": 0.227272499999998,
          "durationTicks": 480,
          "midi": 28,
          "name": "E1",
          "ticks": 384960,
          "time": 182.272545,
          "velocity": 0.7007874015748031
        },
        {
          "duration": 0.227272499999998,
          "durationTicks": 480,
          "midi": 40,
          "name": "E2",
          "ticks": 385440,
          "time": 182.4998175,
          "velocity": 0.7007874015748031
        },
        {
          "duration": 0.227272499999998,
          "durationTicks": 480,
          "midi": 32,
          "name": "G#1",
          "ticks": 385920,
          "time": 182.72709,
          "velocity": 0.7007874015748031
        },
        {
          "duration": 0.227272499999998,
          "durationTicks": 480,
          "midi": 40,
          "name": "E2",
          "ticks": 386400,
          "time": 182.9543625,
          "velocity": 0.7007874015748031
        },
        {
          "duration": 0.227272499999998,
          "durationTicks": 480,
          "midi": 32,
          "name": "G#1",
          "ticks": 387840,
          "time": 183.63618000000002,
          "velocity": 0.7007874015748031
        },
        {
          "duration": 0.227272499999998,
          "durationTicks": 480,
          "midi": 44,
          "name": "G#2",
          "ticks": 388320,
          "time": 183.86345250000002,
          "velocity": 0.7007874015748031
        },
        {
          "duration": 0.227272499999998,
          "durationTicks": 480,
          "midi": 32,
          "name": "G#1",
          "ticks": 388800,
          "time": 184.09072500000002,
          "velocity": 0.7007874015748031
        },
        {
          "duration": 0.227272499999998,
          "durationTicks": 480,
          "midi": 44,
          "name": "G#2",
          "ticks": 389280,
          "time": 184.31799750000002,
          "velocity": 0.7007874015748031
        },
        {
          "duration": 0.227272499999998,
          "durationTicks": 480,
          "midi": 32,
          "name": "G#1",
          "ticks": 389760,
          "time": 184.54527000000002,
          "velocity": 0.7007874015748031
        },
        {
          "duration": 0.227272499999998,
          "durationTicks": 480,
          "midi": 44,
          "name": "G#2",
          "ticks": 390240,
          "time": 184.77254250000001,
          "velocity": 0.7007874015748031
        },
        {
          "duration": 0.227272499999998,
          "durationTicks": 480,
          "midi": 32,
          "name": "G#1",
          "ticks": 390720,
          "time": 184.999815,
          "velocity": 0.7007874015748031
        },
        {
          "duration": 0.227272499999998,
          "durationTicks": 480,
          "midi": 44,
          "name": "G#2",
          "ticks": 391200,
          "time": 185.2270875,
          "velocity": 0.7007874015748031
        },
        {
          "duration": 0.227272499999998,
          "durationTicks": 480,
          "midi": 35,
          "name": "B1",
          "ticks": 391680,
          "time": 185.45436,
          "velocity": 0.7007874015748031
        },
        {
          "duration": 0.227272499999998,
          "durationTicks": 480,
          "midi": 47,
          "name": "B2",
          "ticks": 392160,
          "time": 185.6816325,
          "velocity": 0.7007874015748031
        },
        {
          "duration": 0.227272499999998,
          "durationTicks": 480,
          "midi": 35,
          "name": "B1",
          "ticks": 392640,
          "time": 185.908905,
          "velocity": 0.7007874015748031
        },
        {
          "duration": 0.227272499999998,
          "durationTicks": 480,
          "midi": 47,
          "name": "B2",
          "ticks": 393120,
          "time": 186.1361775,
          "velocity": 0.7007874015748031
        },
        {
          "duration": 0.2272725000000264,
          "durationTicks": 480,
          "midi": 35,
          "name": "B1",
          "ticks": 393600,
          "time": 186.36345,
          "velocity": 0.7007874015748031
        },
        {
          "duration": 0.227272499999998,
          "durationTicks": 480,
          "midi": 47,
          "name": "B2",
          "ticks": 394080,
          "time": 186.59072250000003,
          "velocity": 0.7007874015748031
        },
        {
          "duration": 0.227272499999998,
          "durationTicks": 480,
          "midi": 35,
          "name": "B1",
          "ticks": 394560,
          "time": 186.81799500000002,
          "velocity": 0.7007874015748031
        },
        {
          "duration": 0.227272499999998,
          "durationTicks": 480,
          "midi": 47,
          "name": "B2",
          "ticks": 395040,
          "time": 187.04526750000002,
          "velocity": 0.7007874015748031
        },
        {
          "duration": 0.227272499999998,
          "durationTicks": 480,
          "midi": 30,
          "name": "F#1",
          "ticks": 395520,
          "time": 187.27254000000002,
          "velocity": 0.7007874015748031
        },
        {
          "duration": 0.227272499999998,
          "durationTicks": 480,
          "midi": 42,
          "name": "F#2",
          "ticks": 396000,
          "time": 187.49981250000002,
          "velocity": 0.7007874015748031
        },
        {
          "duration": 0.227272499999998,
          "durationTicks": 480,
          "midi": 30,
          "name": "F#1",
          "ticks": 396480,
          "time": 187.72708500000002,
          "velocity": 0.7007874015748031
        },
        {
          "duration": 0.227272499999998,
          "durationTicks": 480,
          "midi": 42,
          "name": "F#2",
          "ticks": 396960,
          "time": 187.95435750000001,
          "velocity": 0.7007874015748031
        },
        {
          "duration": 0.227272499999998,
          "durationTicks": 480,
          "midi": 30,
          "name": "F#1",
          "ticks": 397440,
          "time": 188.18163,
          "velocity": 0.7007874015748031
        },
        {
          "duration": 0.227272499999998,
          "durationTicks": 480,
          "midi": 42,
          "name": "F#2",
          "ticks": 397920,
          "time": 188.4089025,
          "velocity": 0.7007874015748031
        },
        {
          "duration": 0.227272499999998,
          "durationTicks": 480,
          "midi": 30,
          "name": "F#1",
          "ticks": 398400,
          "time": 188.636175,
          "velocity": 0.7007874015748031
        },
        {
          "duration": 0.227272499999998,
          "durationTicks": 480,
          "midi": 42,
          "name": "F#2",
          "ticks": 398880,
          "time": 188.8634475,
          "velocity": 0.7007874015748031
        },
        {
          "duration": 0.227272499999998,
          "durationTicks": 480,
          "midi": 28,
          "name": "E1",
          "ticks": 399360,
          "time": 189.09072,
          "velocity": 0.7007874015748031
        },
        {
          "duration": 0.227272499999998,
          "durationTicks": 480,
          "midi": 40,
          "name": "E2",
          "ticks": 399840,
          "time": 189.3179925,
          "velocity": 0.7007874015748031
        },
        {
          "duration": 0.2272725000000264,
          "durationTicks": 480,
          "midi": 28,
          "name": "E1",
          "ticks": 400320,
          "time": 189.545265,
          "velocity": 0.7007874015748031
        },
        {
          "duration": 0.227272499999998,
          "durationTicks": 480,
          "midi": 40,
          "name": "E2",
          "ticks": 400800,
          "time": 189.77253750000003,
          "velocity": 0.7007874015748031
        },
        {
          "duration": 0.227272499999998,
          "durationTicks": 480,
          "midi": 28,
          "name": "E1",
          "ticks": 401280,
          "time": 189.99981000000002,
          "velocity": 0.7007874015748031
        },
        {
          "duration": 0.227272499999998,
          "durationTicks": 480,
          "midi": 40,
          "name": "E2",
          "ticks": 401760,
          "time": 190.22708250000002,
          "velocity": 0.7007874015748031
        },
        {
          "duration": 0.227272499999998,
          "durationTicks": 480,
          "midi": 30,
          "name": "F#1",
          "ticks": 402240,
          "time": 190.45435500000002,
          "velocity": 0.7007874015748031
        },
        {
          "duration": 0.227272499999998,
          "durationTicks": 480,
          "midi": 42,
          "name": "F#2",
          "ticks": 402240,
          "time": 190.45435500000002,
          "velocity": 0.7007874015748031
        },
        {
          "duration": 0.227272499999998,
          "durationTicks": 480,
          "midi": 43,
          "name": "G2",
          "ticks": 402720,
          "time": 190.68162750000002,
          "velocity": 0.7007874015748031
        },
        {
          "duration": 0.227272499999998,
          "durationTicks": 480,
          "midi": 31,
          "name": "G1",
          "ticks": 402720,
          "time": 190.68162750000002,
          "velocity": 0.7007874015748031
        },
        {
          "duration": 0.227272499999998,
          "durationTicks": 480,
          "midi": 32,
          "name": "G#1",
          "ticks": 403200,
          "time": 190.90890000000002,
          "velocity": 0.7007874015748031
        },
        {
          "duration": 0.227272499999998,
          "durationTicks": 480,
          "midi": 44,
          "name": "G#2",
          "ticks": 403680,
          "time": 191.13617250000001,
          "velocity": 0.7007874015748031
        },
        {
          "duration": 0.227272499999998,
          "durationTicks": 480,
          "midi": 32,
          "name": "G#1",
          "ticks": 404160,
          "time": 191.363445,
          "velocity": 0.7007874015748031
        },
        {
          "duration": 0.227272499999998,
          "durationTicks": 480,
          "midi": 44,
          "name": "G#2",
          "ticks": 404640,
          "time": 191.5907175,
          "velocity": 0.7007874015748031
        },
        {
          "duration": 0.227272499999998,
          "durationTicks": 480,
          "midi": 32,
          "name": "G#1",
          "ticks": 405120,
          "time": 191.81799,
          "velocity": 0.7007874015748031
        },
        {
          "duration": 0.227272499999998,
          "durationTicks": 480,
          "midi": 44,
          "name": "G#2",
          "ticks": 405600,
          "time": 192.0452625,
          "velocity": 0.7007874015748031
        },
        {
          "duration": 0.227272499999998,
          "durationTicks": 480,
          "midi": 32,
          "name": "G#1",
          "ticks": 406080,
          "time": 192.272535,
          "velocity": 0.7007874015748031
        },
        {
          "duration": 0.227272499999998,
          "durationTicks": 480,
          "midi": 44,
          "name": "G#2",
          "ticks": 406560,
          "time": 192.4998075,
          "velocity": 0.7007874015748031
        },
        {
          "duration": 0.2272725000000264,
          "durationTicks": 480,
          "midi": 35,
          "name": "B1",
          "ticks": 407040,
          "time": 192.72708,
          "velocity": 0.7007874015748031
        },
        {
          "duration": 0.227272499999998,
          "durationTicks": 480,
          "midi": 47,
          "name": "B2",
          "ticks": 407520,
          "time": 192.95435250000003,
          "velocity": 0.7007874015748031
        },
        {
          "duration": 0.227272499999998,
          "durationTicks": 480,
          "midi": 35,
          "name": "B1",
          "ticks": 408000,
          "time": 193.18162500000003,
          "velocity": 0.7007874015748031
        },
        {
          "duration": 0.227272499999998,
          "durationTicks": 480,
          "midi": 46,
          "name": "A#2",
          "ticks": 408480,
          "time": 193.40889750000002,
          "velocity": 0.7007874015748031
        },
        {
          "duration": 0.227272499999998,
          "durationTicks": 480,
          "midi": 35,
          "name": "B1",
          "ticks": 408960,
          "time": 193.63617000000002,
          "velocity": 0.7007874015748031
        },
        {
          "duration": 0.227272499999998,
          "durationTicks": 480,
          "midi": 47,
          "name": "B2",
          "ticks": 409440,
          "time": 193.86344250000002,
          "velocity": 0.7007874015748031
        },
        {
          "duration": 0.227272499999998,
          "durationTicks": 480,
          "midi": 35,
          "name": "B1",
          "ticks": 409920,
          "time": 194.09071500000002,
          "velocity": 0.7007874015748031
        },
        {
          "duration": 0.227272499999998,
          "durationTicks": 480,
          "midi": 47,
          "name": "B2",
          "ticks": 410400,
          "time": 194.31798750000002,
          "velocity": 0.7007874015748031
        },
        {
          "duration": 0.227272499999998,
          "durationTicks": 480,
          "midi": 30,
          "name": "F#1",
          "ticks": 410880,
          "time": 194.54526,
          "velocity": 0.7007874015748031
        },
        {
          "duration": 0.227272499999998,
          "durationTicks": 480,
          "midi": 42,
          "name": "F#2",
          "ticks": 411360,
          "time": 194.7725325,
          "velocity": 0.7007874015748031
        },
        {
          "duration": 0.227272499999998,
          "durationTicks": 480,
          "midi": 30,
          "name": "F#1",
          "ticks": 411840,
          "time": 194.999805,
          "velocity": 0.7007874015748031
        },
        {
          "duration": 0.227272499999998,
          "durationTicks": 480,
          "midi": 42,
          "name": "F#2",
          "ticks": 412320,
          "time": 195.2270775,
          "velocity": 0.7007874015748031
        },
        {
          "duration": 0.227272499999998,
          "durationTicks": 480,
          "midi": 30,
          "name": "F#1",
          "ticks": 412800,
          "time": 195.45435,
          "velocity": 0.7007874015748031
        },
        {
          "duration": 0.227272499999998,
          "durationTicks": 480,
          "midi": 42,
          "name": "F#2",
          "ticks": 413280,
          "time": 195.6816225,
          "velocity": 0.7007874015748031
        },
        {
          "duration": 0.2272725000000264,
          "durationTicks": 480,
          "midi": 30,
          "name": "F#1",
          "ticks": 413760,
          "time": 195.908895,
          "velocity": 0.7007874015748031
        },
        {
          "duration": 0.227272499999998,
          "durationTicks": 480,
          "midi": 42,
          "name": "F#2",
          "ticks": 414240,
          "time": 196.13616750000003,
          "velocity": 0.7007874015748031
        },
        {
          "duration": 0.227272499999998,
          "durationTicks": 480,
          "midi": 28,
          "name": "E1",
          "ticks": 414720,
          "time": 196.36344000000003,
          "velocity": 0.7007874015748031
        },
        {
          "duration": 0.227272499999998,
          "durationTicks": 480,
          "midi": 40,
          "name": "E2",
          "ticks": 415200,
          "time": 196.59071250000002,
          "velocity": 0.7007874015748031
        },
        {
          "duration": 0.227272499999998,
          "durationTicks": 480,
          "midi": 28,
          "name": "E1",
          "ticks": 415680,
          "time": 196.81798500000002,
          "velocity": 0.7007874015748031
        },
        {
          "duration": 0.227272499999998,
          "durationTicks": 480,
          "midi": 40,
          "name": "E2",
          "ticks": 416160,
          "time": 197.04525750000002,
          "velocity": 0.7007874015748031
        },
        {
          "duration": 0.227272499999998,
          "durationTicks": 480,
          "midi": 28,
          "name": "E1",
          "ticks": 416640,
          "time": 197.27253000000002,
          "velocity": 0.7007874015748031
        },
        {
          "duration": 0.227272499999998,
          "durationTicks": 480,
          "midi": 40,
          "name": "E2",
          "ticks": 417120,
          "time": 197.49980250000002,
          "velocity": 0.7007874015748031
        },
        {
          "duration": 0.227272499999998,
          "durationTicks": 480,
          "midi": 42,
          "name": "F#2",
          "ticks": 417600,
          "time": 197.727075,
          "velocity": 0.7007874015748031
        },
        {
          "duration": 0.227272499999998,
          "durationTicks": 480,
          "midi": 30,
          "name": "F#1",
          "ticks": 417600,
          "time": 197.727075,
          "velocity": 0.7007874015748031
        },
        {
          "duration": 0.227272499999998,
          "durationTicks": 480,
          "midi": 43,
          "name": "G2",
          "ticks": 418080,
          "time": 197.9543475,
          "velocity": 0.7007874015748031
        },
        {
          "duration": 0.227272499999998,
          "durationTicks": 480,
          "midi": 31,
          "name": "G1",
          "ticks": 418080,
          "time": 197.9543475,
          "velocity": 0.7007874015748031
        },
        {
          "duration": 0.454544999999996,
          "durationTicks": 960,
          "midi": 42,
          "name": "F#2",
          "ticks": 418560,
          "time": 198.18162,
          "velocity": 0.7007874015748031
        },
        {
          "duration": 0.454544999999996,
          "durationTicks": 960,
          "midi": 32,
          "name": "G#1",
          "ticks": 418560,
          "time": 198.18162,
          "velocity": 0.7007874015748031
        }
      ]
    }
  ]
}