{
  "header": {
    "keySignatures": [
      {
        "key": "C",
        "scale": "major",
        "ticks": 0
      }
    ],
    "meta": {
      "title": "Tokyo Drift (Fast & Furious)",
      "artist": "Teriyaki Boyz",
      "creator": "unknown"
    },
    "name": "",
    "ppq": 480,
    "tempos": [
      {
        "bpm": 125,
        "ticks": 0
      }
    ],
    "timeSignatures": [
      {
        "ticks": 0,
        "timeSignature": [
          4,
          4
        ],
        "measures": 0
      }
    ]
  },
  "tracks": [
    {
      "channel": 0,
      "controlChanges": {
        "0": [
          {
            "number": 0,
            "ticks": 0,
            "time": 0,
            "value": 0
          }
        ],
        "32": [
          {
            "number": 32,
            "ticks": 0,
            "time": 0,
            "value": 0
          }
        ]
      },
      "pitchBends": [],
      "instrument": {
        "family": "piano",
        "number": 0,
        "name": "acoustic grand piano"
      },
      "name": "",
      "notes": [],
      "endOfTrackTicks": 42000
    },
    {
      "channel": 0,
      "controlChanges": {
        "7": [
          {
            "number": 7,
            "ticks": 0,
            "time": 0,
            "value": 0.6929133858267716
          }
        ],
        "10": [
          {
            "number": 10,
            "ticks": 0,
            "time": 0,
            "value": 0.6771653543307087
          }
        ]
      },
      "pitchBends": [],
      "instrument": {
        "family": "chromatic percussion",
        "number": 11,
        "name": "vibraphone"
      },
      "name": "",
      "notes": [
        {
          "duration": 0.12,
          "durationTicks": 120,
          "midi": 70,
          "name": "A#4",
          "ticks": 0,
          "time": 0,
          "velocity": 0.7874015748031497
        },
        {
          "duration": 0.12,
          "durationTicks": 120,
          "midi": 70,
          "name": "A#4",
          "ticks": 480,
          "time": 0.48,
          "velocity": 0.7874015748031497
        },
        {
          "duration": 0.1200000000000001,
          "durationTicks": 120,
          "midi": 70,
          "name": "A#4",
          "ticks": 960,
          "time": 0.96,
          "velocity": 0.7874015748031497
        },
        {
          "duration": 0.1200000000000001,
          "durationTicks": 120,
          "midi": 70,
          "name": "A#4",
          "ticks": 1440,
          "time": 1.44,
          "velocity": 0.7874015748031497
        },
        {
          "duration": 0.3599999999999999,
          "durationTicks": 360,
          "midi": 70,
          "name": "A#4",
          "ticks": 1920,
          "time": 1.92,
          "velocity": 0.7874015748031497
        },
        {
          "duration": 0.3599999999999999,
          "durationTicks": 360,
          "midi": 71,
          "name": "B4",
          "ticks": 2280,
          "time": 2.28,
          "velocity": 0.7874015748031497
        },
        {
          "duration": 0.2400000000000002,
          "durationTicks": 240,
          "midi": 75,
          "name": "D#5",
          "ticks": 2640,
          "time": 2.6399999999999997,
          "velocity": 0.7874015748031497
        },
        {
          "duration": 0.2400000000000002,
          "durationTicks": 240,
          "midi": 70,
          "name": "A#4",
          "ticks": 2880,
          "time": 2.88,
          "velocity": 0.7874015748031497
        },
        {
          "duration": 0.23999999999999977,
          "durationTicks": 240,
          "midi": 70,
          "name": "A#4",
          "ticks": 3360,
          "time": 3.36,
          "velocity": 0.7874015748031497
        },
        {
          "duration": 0.3600000000000003,
          "durationTicks": 360,
          "midi": 70,
          "name": "A#4",
          "ticks": 3840,
          "time": 3.84,
          "velocity": 0.7874015748031497
        },
        {
          "duration": 0.35999999999999943,
          "durationTicks": 360,
          "midi": 71,
          "name": "B4",
          "ticks": 4200,
          "time": 4.2,
          "velocity": 0.7874015748031497
        },
        {
          "duration": 0.2400000000000002,
          "durationTicks": 240,
          "midi": 75,
          "name": "D#5",
          "ticks": 4560,
          "time": 4.56,
          "velocity": 0.7874015748031497
        },
        {
          "duration": 0.2400000000000002,
          "durationTicks": 240,
          "midi": 70,
          "name": "A#4",
          "ticks": 4800,
          "time": 4.8,
          "velocity": 0.7874015748031497
        },
        {
          "duration": 0.2400000000000002,
          "durationTicks": 240,
          "midi": 70,
          "name": "A#4",
          "ticks": 5280,
          "time": 5.279999999999999,
          "velocity": 0.7874015748031497
        },
        {
          "duration": 0.3600000000000003,
          "durationTicks": 360,
          "midi": 70,
          "name": "A#4",
          "ticks": 5760,
          "time": 5.76,
          "velocity": 0.7874015748031497
        },
        {
          "duration": 0.35999999999999943,
          "durationTicks": 360,
          "midi": 71,
          "name": "B4",
          "ticks": 6120,
          "time": 6.12,
          "velocity": 0.7874015748031497
        },
        {
          "duration": 0.2400000000000002,
          "durationTicks": 240,
          "midi": 75,
          "name": "D#5",
          "ticks": 6480,
          "time": 6.4799999999999995,
          "velocity": 0.7874015748031497
        },
        {
          "duration": 0.2400000000000002,
          "durationTicks": 240,
          "midi": 70,
          "name": "A#4",
          "ticks": 6720,
          "time": 6.72,
          "velocity": 0.7874015748031497
        },
        {
          "duration": 0.2400000000000002,
          "durationTicks": 240,
          "midi": 70,
          "name": "A#4",
          "ticks": 7200,
          "time": 7.199999999999999,
          "velocity": 0.7874015748031497
        },
        {
          "duration": 0.35999999999999943,
          "durationTicks": 360,
          "midi": 70,
          "name": "A#4",
          "ticks": 7680,
          "time": 7.68,
          "velocity": 0.7874015748031497
        },
        {
          "duration": 0.3600000000000012,
          "durationTicks": 360,
          "midi": 71,
          "name": "B4",
          "ticks": 8040,
          "time": 8.04,
          "velocity": 0.7874015748031497
        },
        {
          "duration": 0.2400000000000002,
          "durationTicks": 240,
          "midi": 75,
          "name": "D#5",
          "ticks": 8400,
          "time": 8.4,
          "velocity": 0.7874015748031497
        },
        {
          "duration": 0.23999999999999844,
          "durationTicks": 240,
          "midi": 70,
          "name": "A#4",
          "ticks": 8640,
          "time": 8.64,
          "velocity": 0.7874015748031497
        },
        {
          "duration": 0.2400000000000002,
          "durationTicks": 240,
          "midi": 70,
          "name": "A#4",
          "ticks": 9120,
          "time": 9.12,
          "velocity": 0.7874015748031497
        },
        {
          "duration": 0.35999999999999943,
          "durationTicks": 360,
          "midi": 70,
          "name": "A#4",
          "ticks": 9600,
          "time": 9.6,
          "velocity": 0.7874015748031497
        },
        {
          "duration": 0.3600000000000012,
          "durationTicks": 360,
          "midi": 71,
          "name": "B4",
          "ticks": 9960,
          "time": 9.959999999999999,
          "velocity": 0.7874015748031497
        },
        {
          "duration": 0.23999999999999844,
          "durationTicks": 240,
          "midi": 75,
          "name": "D#5",
          "ticks": 10320,
          "time": 10.32,
          "velocity": 0.7874015748031497
        },
        {
          "duration": 0.2400000000000002,
          "durationTicks": 240,
          "midi": 70,
          "name": "A#4",
          "ticks": 10560,
          "time": 10.559999999999999,
          "velocity": 0.7874015748031497
        },
        {
          "duration": 0.2400000000000002,
          "durationTicks": 240,
          "midi": 70,
          "name": "A#4",
          "ticks": 11040,
          "time": 11.04,
          "velocity": 0.7874015748031497
        },
        {
          "duration": 0.35999999999999943,
          "durationTicks": 360,
          "midi": 70,
          "name": "A#4",
          "ticks": 11520,
          "time": 11.52,
          "velocity": 0.7874015748031497
        },
        {
          "duration": 0.3600000000000012,
          "durationTicks": 360,
          "midi": 71,
          "name": "B4",
          "ticks": 11880,
          "time": 11.879999999999999,
          "velocity": 0.7874015748031497
        },
        {
          "duration": 0.2400000000000002,
          "durationTicks": 240,
          "midi": 75,
          "name": "D#5",
          "ticks": 12240,
          "time": 12.24,
          "velocity": 0.7874015748031497
        },
        {
          "duration": 0.23999999999999844,
          "durationTicks": 240,
          "midi": 70,
          "name": "A#4",
          "ticks": 12480,
          "time": 12.48,
          "velocity": 0.7874015748031497
        },
        {
          "duration": 0.2400000000000002,
          "durationTicks": 240,
          "midi": 70,
          "name": "A#4",
          "ticks": 12960,
          "time": 12.959999999999999,
          "velocity": 0.7874015748031497
        },
        {
          "duration": 0.35999999999999943,
          "durationTicks": 360,
          "midi": 70,
          "name": "A#4",
          "ticks": 13440,
          "time": 13.44,
          "velocity": 0.7874015748031497
        },
        {
          "duration": 0.3600000000000012,
          "durationTicks": 360,
          "midi": 71,
          "name": "B4",
          "ticks": 13800,
          "time": 13.799999999999999,
          "velocity": 0.7874015748031497
        },
        {
          "duration": 0.23999999999999844,
          "durationTicks": 240,
          "midi": 75,
          "name": "D#5",
          "ticks": 14160,
          "time": 14.16,
          "velocity": 0.7874015748031497
        },
        {
          "duration": 0.2400000000000002,
          "durationTicks": 240,
          "midi": 70,
          "name": "A#4",
          "ticks": 14400,
          "time": 14.399999999999999,
          "velocity": 0.7874015748031497
        },
        {
          "duration": 0.2400000000000002,
          "durationTicks": 240,
          "midi": 70,
          "name": "A#4",
          "ticks": 14880,
          "time": 14.879999999999999,
          "velocity": 0.7874015748031497
        },
        {
          "duration": 0.35999999999999943,
          "durationTicks": 360,
          "midi": 70,
          "name": "A#4",
          "ticks": 15360,
          "time": 15.36,
          "velocity": 0.7874015748031497
        },
        {
          "duration": 0.35999999999999943,
          "durationTicks": 360,
          "midi": 71,
          "name": "B4",
          "ticks": 15720,
          "time": 15.719999999999999,
          "velocity": 0.7874015748031497
        },
        {
          "duration": 0.240000000000002,
          "durationTicks": 240,
          "midi": 75,
          "name": "D#5",
          "ticks": 16080,
          "time": 16.08,
          "velocity": 0.7874015748031497
        },
        {
          "duration": 0.23999999999999844,
          "durationTicks": 240,
          "midi": 70,
          "name": "A#4",
          "ticks": 16320,
          "time": 16.32,
          "velocity": 0.7874015748031497
        },
        {
          "duration": 0.23999999999999844,
          "durationTicks": 240,
          "midi": 70,
          "name": "A#4",
          "ticks": 16800,
          "time": 16.8,
          "velocity": 0.7874015748031497
        },
        {
          "duration": 0.35999999999999943,
          "durationTicks": 360,
          "midi": 70,
          "name": "A#4",
          "ticks": 17280,
          "time": 17.28,
          "velocity": 0.7874015748031497
        },
        {
          "duration": 0.35999999999999943,
          "durationTicks": 360,
          "midi": 71,
          "name": "B4",
          "ticks": 17640,
          "time": 17.64,
          "velocity": 0.7874015748031497
        },
        {
          "duration": 0.23999999999999844,
          "durationTicks": 240,
          "midi": 75,
          "name": "D#5",
          "ticks": 18000,
          "time": 18,
          "velocity": 0.7874015748031497
        },
        {
          "duration": 0.240000000000002,
          "durationTicks": 240,
          "midi": 77,
          "name": "F5",
          "ticks": 18240,
          "time": 18.24,
          "velocity": 0.7874015748031497
        },
        {
          "duration": 0.240000000000002,
          "durationTicks": 240,
          "midi": 77,
          "name": "F5",
          "ticks": 18720,
          "time": 18.72,
          "velocity": 0.7874015748031497
        },
        {
          "duration": 0.35999999999999943,
          "durationTicks": 360,
          "midi": 80,
          "name": "G#5",
          "ticks": 19200,
          "time": 19.2,
          "velocity": 0.7874015748031497
        },
        {
          "duration": 0.35999999999999943,
          "durationTicks": 360,
          "midi": 78,
          "name": "F#5",
          "ticks": 19560,
          "time": 19.56,
          "velocity": 0.7874015748031497
        },
        {
          "duration": 0.240000000000002,
          "durationTicks": 240,
          "midi": 77,
          "name": "F5",
          "ticks": 19920,
          "time": 19.919999999999998,
          "velocity": 0.7874015748031497
        },
        {
          "duration": 0.23999999999999844,
          "durationTicks": 240,
          "midi": 75,
          "name": "D#5",
          "ticks": 20160,
          "time": 20.16,
          "velocity": 0.7874015748031497
        },
        {
          "duration": 0.23999999999999844,
          "durationTicks": 240,
          "midi": 75,
          "name": "D#5",
          "ticks": 20640,
          "time": 20.64,
          "velocity": 0.7874015748031497
        },
        {
          "duration": 0.360000000000003,
          "durationTicks": 360,
          "midi": 80,
          "name": "G#5",
          "ticks": 21120,
          "time": 21.119999999999997,
          "velocity": 0.7874015748031497
        },
        {
          "duration": 0.35999999999999943,
          "durationTicks": 360,
          "midi": 78,
          "name": "F#5",
          "ticks": 21480,
          "time": 21.48,
          "velocity": 0.7874015748031497
        },
        {
          "duration": 0.23999999999999844,
          "durationTicks": 240,
          "midi": 77,
          "name": "F5",
          "ticks": 21840,
          "time": 21.84,
          "velocity": 0.7874015748031497
        },
        {
          "duration": 0.240000000000002,
          "durationTicks": 240,
          "midi": 75,
          "name": "D#5",
          "ticks": 22080,
          "time": 22.08,
          "velocity": 0.7874015748031497
        },
        {
          "duration": 0.240000000000002,
          "durationTicks": 240,
          "midi": 75,
          "name": "D#5",
          "ticks": 22560,
          "time": 22.56,
          "velocity": 0.7874015748031497
        },
        {
          "duration": 0.35999999999999943,
          "durationTicks": 360,
          "midi": 70,
          "name": "A#4",
          "ticks": 23040,
          "time": 23.04,
          "velocity": 0.7874015748031497
        },
        {
          "duration": 0.35999999999999943,
          "durationTicks": 360,
          "midi": 71,
          "name": "B4",
          "ticks": 23400,
          "time": 23.4,
          "velocity": 0.7874015748031497
        },
        {
          "duration": 0.240000000000002,
          "durationTicks": 240,
          "midi": 75,
          "name": "D#5",
          "ticks": 23760,
          "time": 23.759999999999998,
          "velocity": 0.7874015748031497
        },
        {
          "duration": 0.23999999999999844,
          "durationTicks": 240,
          "midi": 70,
          "name": "A#4",
          "ticks": 24000,
          "time": 24,
          "velocity": 0.7874015748031497
        },
        {
          "duration": 0.23999999999999844,
          "durationTicks": 240,
          "midi": 70,
          "name": "A#4",
          "ticks": 24480,
          "time": 24.48,
          "velocity": 0.7874015748031497
        },
        {
          "duration": 0.35999999999999943,
          "durationTicks": 360,
          "midi": 70,
          "name": "A#4",
          "ticks": 24960,
          "time": 24.96,
          "velocity": 0.7874015748031497
        },
        {
          "duration": 0.35999999999999943,
          "durationTicks": 360,
          "midi": 71,
          "name": "B4",
          "ticks": 25320,
          "time": 25.32,
          "velocity": 0.7874015748031497
        },
        {
          "duration": 0.23999999999999844,
          "durationTicks": 240,
          "midi": 75,
          "name": "D#5",
          "ticks": 25680,
          "time": 25.68,
          "velocity": 0.7874015748031497
        },
        {
          "duration": 0.240000000000002,
          "durationTicks": 240,
          "midi": 70,
          "name": "A#4",
          "ticks": 25920,
          "time": 25.919999999999998,
          "velocity": 0.7874015748031497
        },
        {
          "duration": 0.240000000000002,
          "durationTicks": 240,
          "midi": 70,
          "name": "A#4",
          "ticks": 26400,
          "time": 26.4,
          "velocity": 0.7874015748031497
        },
        {
          "duration": 0.35999999999999943,
          "durationTicks": 360,
          "midi": 70,
          "name": "A#4",
          "ticks": 26880,
          "time": 26.88,
          "velocity": 0.7874015748031497
        },
        {
          "duration": 0.35999999999999943,
          "durationTicks": 360,
          "midi": 71,
          "name": "B4",
          "ticks": 27240,
          "time": 27.24,
          "velocity": 0.7874015748031497
        },
        {
          "duration": 0.240000000000002,
          "durationTicks": 240,
          "midi": 75,
          "name": "D#5",
          "ticks": 27600,
          "time": 27.599999999999998,
          "velocity": 0.7874015748031497
        },
        {
          "duration": 0.23999999999999844,
          "durationTicks": 240,
          "midi": 70,
          "name": "A#4",
          "ticks": 27840,
          "time": 27.84,
          "velocity": 0.7874015748031497
        },
        {
          "duration": 0.23999999999999844,
          "durationTicks": 240,
          "midi": 70,
          "name": "A#4",
          "ticks": 28320,
          "time": 28.32,
          "velocity": 0.7874015748031497
        },
        {
          "duration": 0.360000000000003,
          "durationTicks": 360,
          "midi": 70,
          "name": "A#4",
          "ticks": 28800,
          "time": 28.799999999999997,
          "velocity": 0.7874015748031497
        },
        {
          "duration": 0.35999999999999943,
          "durationTicks": 360,
          "midi": 71,
          "name": "B4",
          "ticks": 29160,
          "time": 29.16,
          "velocity": 0.7874015748031497
        },
        {
          "duration": 0.23999999999999844,
          "durationTicks": 240,
          "midi": 75,
          "name": "D#5",
          "ticks": 29520,
          "time": 29.52,
          "velocity": 0.7874015748031497
        },
        {
          "duration": 0.240000000000002,
          "durationTicks": 240,
          "midi": 70,
          "name": "A#4",
          "ticks": 29760,
          "time": 29.759999999999998,
          "velocity": 0.7874015748031497
        },
        {
          "duration": 0.240000000000002,
          "durationTicks": 240,
          "midi": 70,
          "name": "A#4",
          "ticks": 30240,
          "time": 30.24,
          "velocity": 0.7874015748031497
        },
        {
          "duration": 0.35999999999999943,
          "durationTicks": 360,
          "midi": 70,
          "name": "A#4",
          "ticks": 30720,
          "time": 30.72,
          "velocity": 0.7874015748031497
        },
        {
          "duration": 0.35999999999999943,
          "durationTicks": 360,
          "midi": 71,
          "name": "B4",
          "ticks": 31080,
          "time": 31.08,
          "velocity": 0.7874015748031497
        },
        {
          "duration": 0.240000000000002,
          "durationTicks": 240,
          "midi": 75,
          "name": "D#5",
          "ticks": 31440,
          "time": 31.439999999999998,
          "velocity": 0.7874015748031497
        },
        {
          "duration": 0.23999999999999844,
          "durationTicks": 240,
          "midi": 70,
          "name": "A#4",
          "ticks": 31680,
          "time": 31.68,
          "velocity": 0.7874015748031497
        },
        {
          "duration": 0.240000000000002,
          "durationTicks": 240,
          "midi": 70,
          "name": "A#4",
          "ticks": 32160,
          "time": 32.16,
          "velocity": 0.7874015748031497
        },
        {
          "duration": 0.35999999999999943,
          "durationTicks": 360,
          "midi": 70,
          "name": "A#4",
          "ticks": 32640,
          "time": 32.64,
          "velocity": 0.7874015748031497
        },
        {
          "duration": 0.35999999999999943,
          "durationTicks": 360,
          "midi": 71,
          "name": "B4",
          "ticks": 33000,
          "time": 33,
          "velocity": 0.7874015748031497
        },
        {
          "duration": 0.240000000000002,
          "durationTicks": 240,
          "midi": 75,
          "name": "D#5",
          "ticks": 33360,
          "time": 33.36,
          "velocity": 0.7874015748031497
        },
        {
          "duration": 0.23999999999999488,
          "durationTicks": 240,
          "midi": 77,
          "name": "F5",
          "ticks": 33600,
          "time": 33.6,
          "velocity": 0.7874015748031497
        },
        {
          "duration": 0.240000000000002,
          "durationTicks": 240,
          "midi": 77,
          "name": "F5",
          "ticks": 34080,
          "time": 34.08,
          "velocity": 0.7874015748031497
        },
        {
          "duration": 0.35999999999999943,
          "durationTicks": 360,
          "midi": 80,
          "name": "G#5",
          "ticks": 34560,
          "time": 34.56,
          "velocity": 0.7874015748031497
        },
        {
          "duration": 0.35999999999999943,
          "durationTicks": 360,
          "midi": 78,
          "name": "F#5",
          "ticks": 34920,
          "time": 34.92,
          "velocity": 0.7874015748031497
        },
        {
          "duration": 0.23999999999999488,
          "durationTicks": 240,
          "midi": 77,
          "name": "F5",
          "ticks": 35280,
          "time": 35.28,
          "velocity": 0.7874015748031497
        },
        {
          "duration": 0.240000000000002,
          "durationTicks": 240,
          "midi": 75,
          "name": "D#5",
          "ticks": 35520,
          "time": 35.519999999999996,
          "velocity": 0.7874015748031497
        },
        {
          "duration": 0.240000000000002,
          "durationTicks": 240,
          "midi": 75,
          "name": "D#5",
          "ticks": 36000,
          "time": 36,
          "velocity": 0.7874015748031497
        },
        {
          "duration": 0.35999999999999943,
          "durationTicks": 360,
          "midi": 80,
          "name": "G#5",
          "ticks": 36480,
          "time": 36.48,
          "velocity": 0.7874015748031497
        },
        {
          "duration": 0.35999999999999943,
          "durationTicks": 360,
          "midi": 78,
          "name": "F#5",
          "ticks": 36840,
          "time": 36.839999999999996,
          "velocity": 0.7874015748031497
        },
        {
          "duration": 0.240000000000002,
          "durationTicks": 240,
          "midi": 77,
          "name": "F5",
          "ticks": 37200,
          "time": 37.199999999999996,
          "velocity": 0.7874015748031497
        },
        {
          "duration": 0.240000000000002,
          "durationTicks": 240,
          "midi": 75,
          "name": "D#5",
          "ticks": 37440,
          "time": 37.44,
          "velocity": 0.7874015748031497
        },
        {
          "duration": 0.23999999999999488,
          "durationTicks": 240,
          "midi": 75,
          "name": "D#5",
          "ticks": 37920,
          "time": 37.92,
          "velocity": 0.7874015748031497
        },
        {
          "duration": 0.35999999999999943,
          "durationTicks": 360,
          "midi": 70,
          "name": "A#4",
          "ticks": 38400,
          "time": 38.4,
          "velocity": 0.7874015748031497
        },
        {
          "duration": 0.35999999999999943,
          "durationTicks": 360,
          "midi": 71,
          "name": "B4",
          "ticks": 38760,
          "time": 38.76,
          "velocity": 0.7874015748031497
        },
        {
          "duration": 0.240000000000002,
          "durationTicks": 240,
          "midi": 75,
          "name": "D#5",
          "ticks": 39120,
          "time": 39.12,
          "velocity": 0.7874015748031497
        },
        {
          "duration": 0.240000000000002,
          "durationTicks": 240,
          "midi": 70,
          "name": "A#4",
          "ticks": 39360,
          "time": 39.36,
          "velocity": 0.7874015748031497
        },
        {
          "duration": 0.240000000000002,
          "durationTicks": 240,
          "midi": 70,
          "name": "A#4",
          "ticks": 39840,
          "time": 39.839999999999996,
          "velocity": 0.7874015748031497
        },
        {
          "duration": 0.35999999999999943,
          "durationTicks": 360,
          "midi": 70,
          "name": "A#4",
          "ticks": 40320,
          "time": 40.32,
          "velocity": 0.7874015748031497
        },
        {
          "duration": 0.35999999999999943,
          "durationTicks": 360,
          "midi": 71,
          "name": "B4",
          "ticks": 40680,
          "time": 40.68,
          "velocity": 0.7874015748031497
        },
        {
          "duration": 0.240000000000002,
          "durationTicks": 240,
          "midi": 75,
          "name": "D#5",
          "ticks": 41040,
          "time": 41.04,
          "velocity": 0.7874015748031497
        },
        {
          "duration": 0.23999999999999488,
          "durationTicks": 240,
          "midi": 70,
          "name": "A#4",
          "ticks": 41280,
          "time": 41.28,
          "velocity": 0.7874015748031497
        },
        {
          "duration": 0.240000000000002,
          "durationTicks": 240,
          "midi": 70,
          "name": "A#4",
          "ticks": 41760,
          "time": 41.76,
          "velocity": 0.7874015748031497
        }
      ]
    },
    {
      "channel": 0,
      "controlChanges": {
        "0": [
          {
            "number": 0,
            "ticks": 0,
            "time": 0,
            "value": 0
          }
        ],
        "32": [
          {
            "number": 32,
            "ticks": 0,
            "time": 0,
            "value": 0
          }
        ]
      },
      "pitchBends": [],
      "instrument": {
        "family": "piano",
        "number": 0,
        "name": "acoustic grand piano"
      },
      "name": "",
      "notes": [],
      "endOfTrackTicks": 11280
    },
    {
      "channel": 1,
      "controlChanges": {
        "7": [
          {
            "number": 7,
            "ticks": 0,
            "time": 0,
            "value": 0.5905511811023622
          }
        ],
        "10": [
          {
            "number": 10,
            "ticks": 0,
            "time": 0,
            "value": 0.3228346456692913
          }
        ]
      },
      "pitchBends": [],
      "instrument": {
        "family": "piano",
        "number": 6,
        "name": "harpsichord"
      },
      "name": "",
      "notes": [
        {
          "duration": 0.12,
          "durationTicks": 120,
          "midi": 70,
          "name": "A#4",
          "ticks": 0,
          "time": 0,
          "velocity": 0.7874015748031497
        },
        {
          "duration": 0.12,
          "durationTicks": 120,
          "midi": 70,
          "name": "A#4",
          "ticks": 480,
          "time": 0.48,
          "velocity": 0.7874015748031497
        },
        {
          "duration": 0.1200000000000001,
          "durationTicks": 120,
          "midi": 70,
          "name": "A#4",
          "ticks": 960,
          "time": 0.96,
          "velocity": 0.7874015748031497
        },
        {
          "duration": 0.1200000000000001,
          "durationTicks": 120,
          "midi": 70,
          "name": "A#4",
          "ticks": 1440,
          "time": 1.44,
          "velocity": 0.7874015748031497
        },
        {
          "duration": 0.3599999999999999,
          "durationTicks": 360,
          "midi": 70,
          "name": "A#4",
          "ticks": 1920,
          "time": 1.92,
          "velocity": 0.7874015748031497
        },
        {
          "duration": 0.3599999999999999,
          "durationTicks": 360,
          "midi": 71,
          "name": "B4",
          "ticks": 2280,
          "time": 2.28,
          "velocity": 0.7874015748031497
        },
        {
          "duration": 0.2400000000000002,
          "durationTicks": 240,
          "midi": 75,
          "name": "D#5",
          "ticks": 2640,
          "time": 2.6399999999999997,
          "velocity": 0.7874015748031497
        },
        {
          "duration": 0.2400000000000002,
          "durationTicks": 240,
          "midi": 70,
          "name": "A#4",
          "ticks": 2880,
          "time": 2.88,
          "velocity": 0.7874015748031497
        },
        {
          "duration": 0.23999999999999977,
          "durationTicks": 240,
          "midi": 70,
          "name": "A#4",
          "ticks": 3360,
          "time": 3.36,
          "velocity": 0.7874015748031497
        },
        {
          "duration": 0.3600000000000003,
          "durationTicks": 360,
          "midi": 70,
          "name": "A#4",
          "ticks": 3840,
          "time": 3.84,
          "velocity": 0.7874015748031497
        },
        {
          "duration": 0.35999999999999943,
          "durationTicks": 360,
          "midi": 71,
          "name": "B4",
          "ticks": 4200,
          "time": 4.2,
          "velocity": 0.7874015748031497
        },
        {
          "duration": 0.2400000000000002,
          "durationTicks": 240,
          "midi": 75,
          "name": "D#5",
          "ticks": 4560,
          "time": 4.56,
          "velocity": 0.7874015748031497
        },
        {
          "duration": 0.2400000000000002,
          "durationTicks": 240,
          "midi": 70,
          "name": "A#4",
          "ticks": 4800,
          "time": 4.8,
          "velocity": 0.7874015748031497
        },
        {
          "duration": 0.2400000000000002,
          "durationTicks": 240,
          "midi": 70,
          "name": "A#4",
          "ticks": 5280,
          "time": 5.279999999999999,
          "velocity": 0.7874015748031497
        },
        {
          "duration": 0.3600000000000003,
          "durationTicks": 360,
          "midi": 70,
          "name": "A#4",
          "ticks": 5760,
          "time": 5.76,
          "velocity": 0.7874015748031497
        },
        {
          "duration": 0.35999999999999943,
          "durationTicks": 360,
          "midi": 71,
          "name": "B4",
          "ticks": 6120,
          "time": 6.12,
          "velocity": 0.7874015748031497
        },
        {
          "duration": 0.2400000000000002,
          "durationTicks": 240,
          "midi": 75,
          "name": "D#5",
          "ticks": 6480,
          "time": 6.4799999999999995,
          "velocity": 0.7874015748031497
        },
        {
          "duration": 0.2400000000000002,
          "durationTicks": 240,
          "midi": 70,
          "name": "A#4",
          "ticks": 6720,
          "time": 6.72,
          "velocity": 0.7874015748031497
        },
        {
          "duration": 0.2400000000000002,
          "durationTicks": 240,
          "midi": 70,
          "name": "A#4",
          "ticks": 7200,
          "time": 7.199999999999999,
          "velocity": 0.7874015748031497
        },
        {
          "duration": 0.35999999999999943,
          "durationTicks": 360,
          "midi": 70,
          "name": "A#4",
          "ticks": 7680,
          "time": 7.68,
          "velocity": 0.7874015748031497
        },
        {
          "duration": 0.3600000000000012,
          "durationTicks": 360,
          "midi": 71,
          "name": "B4",
          "ticks": 8040,
          "time": 8.04,
          "velocity": 0.7874015748031497
        },
        {
          "duration": 0.2400000000000002,
          "durationTicks": 240,
          "midi": 75,
          "name": "D#5",
          "ticks": 8400,
          "time": 8.4,
          "velocity": 0.7874015748031497
        },
        {
          "duration": 0.23999999999999844,
          "durationTicks": 240,
          "midi": 70,
          "name": "A#4",
          "ticks": 8640,
          "time": 8.64,
          "velocity": 0.7874015748031497
        },
        {
          "duration": 0.2400000000000002,
          "durationTicks": 240,
          "midi": 70,
          "name": "A#4",
          "ticks": 9120,
          "time": 9.12,
          "velocity": 0.7874015748031497
        },
        {
          "duration": 0.35999999999999943,
          "durationTicks": 360,
          "midi": 70,
          "name": "A#4",
          "ticks": 9600,
          "time": 9.6,
          "velocity": 0.7874015748031497
        },
        {
          "duration": 0.3600000000000012,
          "durationTicks": 360,
          "midi": 71,
          "name": "B4",
          "ticks": 9960,
          "time": 9.959999999999999,
          "velocity": 0.7874015748031497
        },
        {
          "duration": 0.23999999999999844,
          "durationTicks": 240,
          "midi": 75,
          "name": "D#5",
          "ticks": 10320,
          "time": 10.32,
          "velocity": 0.7874015748031497
        },
        {
          "duration": 0.2400000000000002,
          "durationTicks": 240,
          "midi": 70,
          "name": "A#4",
          "ticks": 10560,
          "time": 10.559999999999999,
          "velocity": 0.7874015748031497
        },
        {
          "duration": 0.2400000000000002,
          "durationTicks": 240,
          "midi": 70,
          "name": "A#4",
          "ticks": 11040,
          "time": 11.04,
          "velocity": 0.7874015748031497
        }
      ]
    },
    {
      "channel": 0,
      "controlChanges": {
        "0": [
          {
            "number": 0,
            "ticks": 0,
            "time": 0,
            "value": 0
          }
        ],
        "7": [
          {
            "number": 7,
            "ticks": 0,
            "time": 0,
            "value": 0.6299212598425197
          }
        ],
        "10": [
          {
            "number": 10,
            "ticks": 0,
            "time": 0,
            "value": 0.5039370078740157
          }
        ],
        "32": [
          {
            "number": 32,
            "ticks": 1,
            "time": 0.001,
            "value": 0
          }
        ]
      },
      "pitchBends": [],
      "instrument": {
        "family": "piano",
        "number": 0,
        "name": "acoustic grand piano"
      },
      "name": "",
      "notes": [],
      "endOfTrackTicks": 42720
    },
    {
      "channel": 2,
      "controlChanges": {},
      "pitchBends": [],
      "instrument": {
        "family": "ensemble",
        "number": 55,
        "name": "orchestra hit"
      },
      "name": "",
      "notes": [
        {
          "duration": 0.2400000000000002,
          "durationTicks": 240,
          "midi": 70,
          "name": "A#4",
          "ticks": 3840,
          "time": 3.84,
          "velocity": 0.7874015748031497
        },
        {
          "duration": 0.4800000000000004,
          "durationTicks": 480,
          "midi": 58,
          "name": "A#3",
          "ticks": 3840,
          "time": 3.84,
          "velocity": 0.7874015748031497
        },
        {
          "duration": 0.2400000000000002,
          "durationTicks": 240,
          "midi": 75,
          "name": "D#5",
          "ticks": 4080,
          "time": 4.08,
          "velocity": 0.5039370078740157
        },
        {
          "duration": 0.2400000000000002,
          "durationTicks": 240,
          "midi": 63,
          "name": "D#4",
          "ticks": 4080,
          "time": 4.08,
          "velocity": 0.5039370078740157
        },
        {
          "duration": 0.47999999999999954,
          "durationTicks": 480,
          "midi": 58,
          "name": "A#3",
          "ticks": 4320,
          "time": 4.32,
          "velocity": 0.7874015748031497
        },
        {
          "duration": 0.23999999999999932,
          "durationTicks": 240,
          "midi": 70,
          "name": "A#4",
          "ticks": 4320,
          "time": 4.32,
          "velocity": 0.7874015748031497
        },
        {
          "duration": 0.2400000000000002,
          "durationTicks": 240,
          "midi": 75,
          "name": "D#5",
          "ticks": 4560,
          "time": 4.56,
          "velocity": 0.5039370078740157
        },
        {
          "duration": 0.2400000000000002,
          "durationTicks": 240,
          "midi": 63,
          "name": "D#4",
          "ticks": 4560,
          "time": 4.56,
          "velocity": 0.5039370078740157
        },
        {
          "duration": 0.2400000000000002,
          "durationTicks": 240,
          "midi": 70,
          "name": "A#4",
          "ticks": 4800,
          "time": 4.8,
          "velocity": 0.7874015748031497
        },
        {
          "duration": 0.47999999999999954,
          "durationTicks": 480,
          "midi": 58,
          "name": "A#3",
          "ticks": 4800,
          "time": 4.8,
          "velocity": 0.7874015748031497
        },
        {
          "duration": 0.23999999999999932,
          "durationTicks": 240,
          "midi": 75,
          "name": "D#5",
          "ticks": 5040,
          "time": 5.04,
          "velocity": 0.5039370078740157
        },
        {
          "duration": 0.23999999999999932,
          "durationTicks": 240,
          "midi": 63,
          "name": "D#4",
          "ticks": 5040,
          "time": 5.04,
          "velocity": 0.5039370078740157
        },
        {
          "duration": 0.2400000000000002,
          "durationTicks": 240,
          "midi": 70,
          "name": "A#4",
          "ticks": 5280,
          "time": 5.279999999999999,
          "velocity": 0.7874015748031497
        },
        {
          "duration": 0.4800000000000004,
          "durationTicks": 480,
          "midi": 58,
          "name": "A#3",
          "ticks": 5280,
          "time": 5.279999999999999,
          "velocity": 0.7874015748031497
        },
        {
          "duration": 0.2400000000000002,
          "durationTicks": 240,
          "midi": 63,
          "name": "D#4",
          "ticks": 5520,
          "time": 5.52,
          "velocity": 0.5118110236220472
        },
        {
          "duration": 0.2400000000000002,
          "durationTicks": 240,
          "midi": 75,
          "name": "D#5",
          "ticks": 5520,
          "time": 5.52,
          "velocity": 0.5118110236220472
        },
        {
          "duration": 0.2400000000000002,
          "durationTicks": 240,
          "midi": 70,
          "name": "A#4",
          "ticks": 5760,
          "time": 5.76,
          "velocity": 0.7874015748031497
        },
        {
          "duration": 0.4800000000000004,
          "durationTicks": 480,
          "midi": 58,
          "name": "A#3",
          "ticks": 5760,
          "time": 5.76,
          "velocity": 0.7874015748031497
        },
        {
          "duration": 0.2400000000000002,
          "durationTicks": 240,
          "midi": 75,
          "name": "D#5",
          "ticks": 6000,
          "time": 6,
          "velocity": 0.5039370078740157
        },
        {
          "duration": 0.2400000000000002,
          "durationTicks": 240,
          "midi": 63,
          "name": "D#4",
          "ticks": 6000,
          "time": 6,
          "velocity": 0.5039370078740157
        },
        {
          "duration": 0.23999999999999932,
          "durationTicks": 240,
          "midi": 70,
          "name": "A#4",
          "ticks": 6240,
          "time": 6.24,
          "velocity": 0.7874015748031497
        },
        {
          "duration": 0.47999999999999954,
          "durationTicks": 480,
          "midi": 58,
          "name": "A#3",
          "ticks": 6240,
          "time": 6.24,
          "velocity": 0.7874015748031497
        },
        {
          "duration": 0.2400000000000002,
          "durationTicks": 240,
          "midi": 63,
          "name": "D#4",
          "ticks": 6480,
          "time": 6.4799999999999995,
          "velocity": 0.5039370078740157
        },
        {
          "duration": 0.2400000000000002,
          "durationTicks": 240,
          "midi": 75,
          "name": "D#5",
          "ticks": 6480,
          "time": 6.4799999999999995,
          "velocity": 0.5039370078740157
        },
        {
          "duration": 0.47999999999999954,
          "durationTicks": 480,
          "midi": 58,
          "name": "A#3",
          "ticks": 6720,
          "time": 6.72,
          "velocity": 0.7874015748031497
        },
        {
          "duration": 0.2400000000000002,
          "durationTicks": 240,
          "midi": 70,
          "name": "A#4",
          "ticks": 6720,
          "time": 6.72,
          "velocity": 0.7874015748031497
        },
        {
          "duration": 0.23999999999999932,
          "durationTicks": 240,
          "midi": 75,
          "name": "D#5",
          "ticks": 6960,
          "time": 6.96,
          "velocity": 0.5039370078740157
        },
        {
          "duration": 0.23999999999999932,
          "durationTicks": 240,
          "midi": 63,
          "name": "D#4",
          "ticks": 6960,
          "time": 6.96,
          "velocity": 0.5039370078740157
        },
        {
          "duration": 0.2400000000000002,
          "durationTicks": 240,
          "midi": 70,
          "name": "A#4",
          "ticks": 7200,
          "time": 7.199999999999999,
          "velocity": 0.7874015748031497
        },
        {
          "duration": 0.4800000000000004,
          "durationTicks": 480,
          "midi": 58,
          "name": "A#3",
          "ticks": 7200,
          "time": 7.199999999999999,
          "velocity": 0.7874015748031497
        },
        {
          "duration": 0.2400000000000002,
          "durationTicks": 240,
          "midi": 63,
          "name": "D#4",
          "ticks": 7440,
          "time": 7.4399999999999995,
          "velocity": 0.5118110236220472
        },
        {
          "duration": 0.2400000000000002,
          "durationTicks": 240,
          "midi": 75,
          "name": "D#5",
          "ticks": 7440,
          "time": 7.4399999999999995,
          "velocity": 0.5118110236220472
        },
        {
          "duration": 0.2400000000000002,
          "durationTicks": 240,
          "midi": 70,
          "name": "A#4",
          "ticks": 7680,
          "time": 7.68,
          "velocity": 0.7874015748031497
        },
        {
          "duration": 0.4800000000000004,
          "durationTicks": 480,
          "midi": 58,
          "name": "A#3",
          "ticks": 7680,
          "time": 7.68,
          "velocity": 0.7874015748031497
        },
        {
          "duration": 0.2400000000000002,
          "durationTicks": 240,
          "midi": 63,
          "name": "D#4",
          "ticks": 7920,
          "time": 7.92,
          "velocity": 0.5039370078740157
        },
        {
          "duration": 0.2400000000000002,
          "durationTicks": 240,
          "midi": 75,
          "name": "D#5",
          "ticks": 7920,
          "time": 7.92,
          "velocity": 0.5039370078740157
        },
        {
          "duration": 0.4800000000000004,
          "durationTicks": 480,
          "midi": 58,
          "name": "A#3",
          "ticks": 8160,
          "time": 8.16,
          "velocity": 0.7874015748031497
        },
        {
          "duration": 0.2400000000000002,
          "durationTicks": 240,
          "midi": 70,
          "name": "A#4",
          "ticks": 8160,
          "time": 8.16,
          "velocity": 0.7874015748031497
        },
        {
          "duration": 0.2400000000000002,
          "durationTicks": 240,
          "midi": 63,
          "name": "D#4",
          "ticks": 8400,
          "time": 8.4,
          "velocity": 0.5039370078740157
        },
        {
          "duration": 0.2400000000000002,
          "durationTicks": 240,
          "midi": 75,
          "name": "D#5",
          "ticks": 8400,
          "time": 8.4,
          "velocity": 0.5039370078740157
        },
        {
          "duration": 0.23999999999999844,
          "durationTicks": 240,
          "midi": 70,
          "name": "A#4",
          "ticks": 8640,
          "time": 8.64,
          "velocity": 0.7874015748031497
        },
        {
          "duration": 0.47999999999999865,
          "durationTicks": 480,
          "midi": 58,
          "name": "A#3",
          "ticks": 8640,
          "time": 8.64,
          "velocity": 0.7874015748031497
        },
        {
          "duration": 0.2400000000000002,
          "durationTicks": 240,
          "midi": 63,
          "name": "D#4",
          "ticks": 8880,
          "time": 8.879999999999999,
          "velocity": 0.5039370078740157
        },
        {
          "duration": 0.2400000000000002,
          "durationTicks": 240,
          "midi": 75,
          "name": "D#5",
          "ticks": 8880,
          "time": 8.879999999999999,
          "velocity": 0.5039370078740157
        },
        {
          "duration": 0.4800000000000004,
          "durationTicks": 480,
          "midi": 58,
          "name": "A#3",
          "ticks": 9120,
          "time": 9.12,
          "velocity": 0.7874015748031497
        },
        {
          "duration": 0.2400000000000002,
          "durationTicks": 240,
          "midi": 70,
          "name": "A#4",
          "ticks": 9120,
          "time": 9.12,
          "velocity": 0.7874015748031497
        },
        {
          "duration": 0.2400000000000002,
          "durationTicks": 240,
          "midi": 63,
          "name": "D#4",
          "ticks": 9360,
          "time": 9.36,
          "velocity": 0.5118110236220472
        },
        {
          "duration": 0.2400000000000002,
          "durationTicks": 240,
          "midi": 75,
          "name": "D#5",
          "ticks": 9360,
          "time": 9.36,
          "velocity": 0.5118110236220472
        },
        {
          "duration": 0.2400000000000002,
          "durationTicks": 240,
          "midi": 70,
          "name": "A#4",
          "ticks": 9600,
          "time": 9.6,
          "velocity": 0.7874015748031497
        },
        {
          "duration": 0.4800000000000004,
          "durationTicks": 480,
          "midi": 58,
          "name": "A#3",
          "ticks": 9600,
          "time": 9.6,
          "velocity": 0.7874015748031497
        },
        {
          "duration": 0.2400000000000002,
          "durationTicks": 240,
          "midi": 75,
          "name": "D#5",
          "ticks": 9840,
          "time": 9.84,
          "velocity": 0.5039370078740157
        },
        {
          "duration": 0.2400000000000002,
          "durationTicks": 240,
          "midi": 63,
          "name": "D#4",
          "ticks": 9840,
          "time": 9.84,
          "velocity": 0.5039370078740157
        },
        {
          "duration": 0.2400000000000002,
          "durationTicks": 240,
          "midi": 70,
          "name": "A#4",
          "ticks": 10080,
          "time": 10.08,
          "velocity": 0.7874015748031497
        },
        {
          "duration": 0.47999999999999865,
          "durationTicks": 480,
          "midi": 58,
          "name": "A#3",
          "ticks": 10080,
          "time": 10.08,
          "velocity": 0.7874015748031497
        },
        {
          "duration": 0.23999999999999844,
          "durationTicks": 240,
          "midi": 75,
          "name": "D#5",
          "ticks": 10320,
          "time": 10.32,
          "velocity": 0.5039370078740157
        },
        {
          "duration": 0.23999999999999844,
          "durationTicks": 240,
          "midi": 63,
          "name": "D#4",
          "ticks": 10320,
          "time": 10.32,
          "velocity": 0.5039370078740157
        },
        {
          "duration": 0.2400000000000002,
          "durationTicks": 240,
          "midi": 70,
          "name": "A#4",
          "ticks": 10560,
          "time": 10.559999999999999,
          "velocity": 0.7874015748031497
        },
        {
          "duration": 0.4800000000000004,
          "durationTicks": 480,
          "midi": 58,
          "name": "A#3",
          "ticks": 10560,
          "time": 10.559999999999999,
          "velocity": 0.7874015748031497
        },
        {
          "duration": 0.2400000000000002,
          "durationTicks": 240,
          "midi": 63,
          "name": "D#4",
          "ticks": 10800,
          "time": 10.799999999999999,
          "velocity": 0.5039370078740157
        },
        {
          "duration": 0.2400000000000002,
          "durationTicks": 240,
          "midi": 75,
          "name": "D#5",
          "ticks": 10800,
          "time": 10.799999999999999,
          "velocity": 0.5039370078740157
        },
        {
          "duration": 0.2400000000000002,
          "durationTicks": 240,
          "midi": 70,
          "name": "A#4",
          "ticks": 11040,
          "time": 11.04,
          "velocity": 0.7874015748031497
        },
        {
          "duration": 0.4800000000000004,
          "durationTicks": 480,
          "midi": 58,
          "name": "A#3",
          "ticks": 11040,
          "time": 11.04,
          "velocity": 0.7874015748031497
        },
        {
          "duration": 0.2400000000000002,
          "durationTicks": 240,
          "midi": 63,
          "name": "D#4",
          "ticks": 11280,
          "time": 11.28,
          "velocity": 0.5118110236220472
        },
        {
          "duration": 0.2400000000000002,
          "durationTicks": 240,
          "midi": 75,
          "name": "D#5",
          "ticks": 11280,
          "time": 11.28,
          "velocity": 0.5118110236220472
        },
        {
          "duration": 0.4800000000000004,
          "durationTicks": 480,
          "midi": 58,
          "name": "A#3",
          "ticks": 11520,
          "time": 11.52,
          "velocity": 0.7874015748031497
        },
        {
          "duration": 0.2400000000000002,
          "durationTicks": 240,
          "midi": 70,
          "name": "A#4",
          "ticks": 11520,
          "time": 11.52,
          "velocity": 0.7874015748031497
        },
        {
          "duration": 0.2400000000000002,
          "durationTicks": 240,
          "midi": 70,
          "name": "A#4",
          "ticks": 13440,
          "time": 13.44,
          "velocity": 0.7874015748031497
        },
        {
          "duration": 0.4800000000000004,
          "durationTicks": 480,
          "midi": 58,
          "name": "A#3",
          "ticks": 13440,
          "time": 13.44,
          "velocity": 0.7874015748031497
        },
        {
          "duration": 0.4800000000000004,
          "durationTicks": 480,
          "midi": 58,
          "name": "A#3",
          "ticks": 15360,
          "time": 15.36,
          "velocity": 0.7874015748031497
        },
        {
          "duration": 0.2400000000000002,
          "durationTicks": 240,
          "midi": 70,
          "name": "A#4",
          "ticks": 15360,
          "time": 15.36,
          "velocity": 0.7874015748031497
        },
        {
          "duration": 0.23999999999999844,
          "durationTicks": 240,
          "midi": 70,
          "name": "A#4",
          "ticks": 17280,
          "time": 17.28,
          "velocity": 0.7874015748031497
        },
        {
          "duration": 0.4799999999999969,
          "durationTicks": 480,
          "midi": 58,
          "name": "A#3",
          "ticks": 17280,
          "time": 17.28,
          "velocity": 0.7874015748031497
        },
        {
          "duration": 0.23999999999999844,
          "durationTicks": 240,
          "midi": 68,
          "name": "G#4",
          "ticks": 19200,
          "time": 19.2,
          "velocity": 0.7874015748031497
        },
        {
          "duration": 0.4800000000000004,
          "durationTicks": 480,
          "midi": 56,
          "name": "G#3",
          "ticks": 19200,
          "time": 19.2,
          "velocity": 0.7874015748031497
        },
        {
          "duration": 0.240000000000002,
          "durationTicks": 240,
          "midi": 68,
          "name": "G#4",
          "ticks": 21120,
          "time": 21.119999999999997,
          "velocity": 0.7874015748031497
        },
        {
          "duration": 0.4800000000000004,
          "durationTicks": 480,
          "midi": 56,
          "name": "G#3",
          "ticks": 21120,
          "time": 21.119999999999997,
          "velocity": 0.7874015748031497
        },
        {
          "duration": 0.4800000000000004,
          "durationTicks": 480,
          "midi": 58,
          "name": "A#3",
          "ticks": 23040,
          "time": 23.04,
          "velocity": 0.7874015748031497
        },
        {
          "duration": 0.23999999999999844,
          "durationTicks": 240,
          "midi": 70,
          "name": "A#4",
          "ticks": 23040,
          "time": 23.04,
          "velocity": 0.7874015748031497
        },
        {
          "duration": 0.23999999999999844,
          "durationTicks": 240,
          "midi": 70,
          "name": "A#4",
          "ticks": 24960,
          "time": 24.96,
          "velocity": 0.7874015748031497
        },
        {
          "duration": 0.4799999999999969,
          "durationTicks": 480,
          "midi": 58,
          "name": "A#3",
          "ticks": 24960,
          "time": 24.96,
          "velocity": 0.7874015748031497
        },
        {
          "duration": 0.23999999999999844,
          "durationTicks": 240,
          "midi": 75,
          "name": "D#5",
          "ticks": 25200,
          "time": 25.2,
          "velocity": 0.5039370078740157
        },
        {
          "duration": 0.23999999999999844,
          "durationTicks": 240,
          "midi": 63,
          "name": "D#4",
          "ticks": 25200,
          "time": 25.2,
          "velocity": 0.5039370078740157
        },
        {
          "duration": 0.4800000000000004,
          "durationTicks": 480,
          "midi": 58,
          "name": "A#3",
          "ticks": 25440,
          "time": 25.439999999999998,
          "velocity": 0.7874015748031497
        },
        {
          "duration": 0.240000000000002,
          "durationTicks": 240,
          "midi": 70,
          "name": "A#4",
          "ticks": 25440,
          "time": 25.439999999999998,
          "velocity": 0.7874015748031497
        },
        {
          "duration": 0.23999999999999844,
          "durationTicks": 240,
          "midi": 75,
          "name": "D#5",
          "ticks": 25680,
          "time": 25.68,
          "velocity": 0.5039370078740157
        },
        {
          "duration": 0.23999999999999844,
          "durationTicks": 240,
          "midi": 63,
          "name": "D#4",
          "ticks": 25680,
          "time": 25.68,
          "velocity": 0.5039370078740157
        },
        {
          "duration": 0.240000000000002,
          "durationTicks": 240,
          "midi": 70,
          "name": "A#4",
          "ticks": 25920,
          "time": 25.919999999999998,
          "velocity": 0.7874015748031497
        },
        {
          "duration": 0.4800000000000004,
          "durationTicks": 480,
          "midi": 58,
          "name": "A#3",
          "ticks": 25920,
          "time": 25.919999999999998,
          "velocity": 0.7874015748031497
        },
        {
          "duration": 0.23999999999999844,
          "durationTicks": 240,
          "midi": 63,
          "name": "D#4",
          "ticks": 26160,
          "time": 26.16,
          "velocity": 0.5039370078740157
        },
        {
          "duration": 0.23999999999999844,
          "durationTicks": 240,
          "midi": 75,
          "name": "D#5",
          "ticks": 26160,
          "time": 26.16,
          "velocity": 0.5039370078740157
        },
        {
          "duration": 0.240000000000002,
          "durationTicks": 240,
          "midi": 70,
          "name": "A#4",
          "ticks": 26400,
          "time": 26.4,
          "velocity": 0.7874015748031497
        },
        {
          "duration": 0.4800000000000004,
          "durationTicks": 480,
          "midi": 58,
          "name": "A#3",
          "ticks": 26400,
          "time": 26.4,
          "velocity": 0.7874015748031497
        },
        {
          "duration": 0.23999999999999844,
          "durationTicks": 240,
          "midi": 75,
          "name": "D#5",
          "ticks": 26640,
          "time": 26.64,
          "velocity": 0.5118110236220472
        },
        {
          "duration": 0.23999999999999844,
          "durationTicks": 240,
          "midi": 63,
          "name": "D#4",
          "ticks": 26640,
          "time": 26.64,
          "velocity": 0.5118110236220472
        },
        {
          "duration": 0.4800000000000004,
          "durationTicks": 480,
          "midi": 58,
          "name": "A#3",
          "ticks": 26880,
          "time": 26.88,
          "velocity": 0.7874015748031497
        },
        {
          "duration": 0.23999999999999844,
          "durationTicks": 240,
          "midi": 70,
          "name": "A#4",
          "ticks": 26880,
          "time": 26.88,
          "velocity": 0.7874015748031497
        },
        {
          "duration": 0.240000000000002,
          "durationTicks": 240,
          "midi": 70,
          "name": "A#4",
          "ticks": 28800,
          "time": 28.799999999999997,
          "velocity": 0.7874015748031497
        },
        {
          "duration": 0.4800000000000004,
          "durationTicks": 480,
          "midi": 58,
          "name": "A#3",
          "ticks": 28800,
          "time": 28.799999999999997,
          "velocity": 0.7874015748031497
        },
        {
          "duration": 0.4800000000000004,
          "durationTicks": 480,
          "midi": 58,
          "name": "A#3",
          "ticks": 30720,
          "time": 30.72,
          "velocity": 0.7874015748031497
        },
        {
          "duration": 0.23999999999999844,
          "durationTicks": 240,
          "midi": 70,
          "name": "A#4",
          "ticks": 30720,
          "time": 30.72,
          "velocity": 0.7874015748031497
        },
        {
          "duration": 0.23999999999999488,
          "durationTicks": 240,
          "midi": 70,
          "name": "A#4",
          "ticks": 32640,
          "time": 32.64,
          "velocity": 0.7874015748031497
        },
        {
          "duration": 0.4799999999999969,
          "durationTicks": 480,
          "midi": 58,
          "name": "A#3",
          "ticks": 32640,
          "time": 32.64,
          "velocity": 0.7874015748031497
        },
        {
          "duration": 0.23999999999999488,
          "durationTicks": 240,
          "midi": 68,
          "name": "G#4",
          "ticks": 34560,
          "time": 34.56,
          "velocity": 0.7874015748031497
        },
        {
          "duration": 0.4799999999999969,
          "durationTicks": 480,
          "midi": 56,
          "name": "G#3",
          "ticks": 34560,
          "time": 34.56,
          "velocity": 0.7874015748031497
        },
        {
          "duration": 0.240000000000002,
          "durationTicks": 240,
          "midi": 68,
          "name": "G#4",
          "ticks": 36480,
          "time": 36.48,
          "velocity": 0.7874015748031497
        },
        {
          "duration": 0.480000000000004,
          "durationTicks": 480,
          "midi": 56,
          "name": "G#3",
          "ticks": 36480,
          "time": 36.48,
          "velocity": 0.7874015748031497
        },
        {
          "duration": 0.4799999999999969,
          "durationTicks": 480,
          "midi": 58,
          "name": "A#3",
          "ticks": 38400,
          "time": 38.4,
          "velocity": 0.7874015748031497
        },
        {
          "duration": 0.240000000000002,
          "durationTicks": 240,
          "midi": 70,
          "name": "A#4",
          "ticks": 38400,
          "time": 38.4,
          "velocity": 0.7874015748031497
        },
        {
          "duration": 0.23999999999999488,
          "durationTicks": 240,
          "midi": 70,
          "name": "A#4",
          "ticks": 40320,
          "time": 40.32,
          "velocity": 0.7874015748031497
        },
        {
          "duration": 0.4799999999999969,
          "durationTicks": 480,
          "midi": 58,
          "name": "A#3",
          "ticks": 40320,
          "time": 40.32,
          "velocity": 0.7874015748031497
        },
        {
          "duration": 0.240000000000002,
          "durationTicks": 240,
          "midi": 75,
          "name": "D#5",
          "ticks": 40560,
          "time": 40.559999999999995,
          "velocity": 0.5039370078740157
        },
        {
          "duration": 0.240000000000002,
          "durationTicks": 240,
          "midi": 63,
          "name": "D#4",
          "ticks": 40560,
          "time": 40.559999999999995,
          "velocity": 0.5039370078740157
        },
        {
          "duration": 0.480000000000004,
          "durationTicks": 480,
          "midi": 58,
          "name": "A#3",
          "ticks": 40800,
          "time": 40.8,
          "velocity": 0.7874015748031497
        },
        {
          "duration": 0.240000000000002,
          "durationTicks": 240,
          "midi": 70,
          "name": "A#4",
          "ticks": 40800,
          "time": 40.8,
          "velocity": 0.7874015748031497
        },
        {
          "duration": 0.240000000000002,
          "durationTicks": 240,
          "midi": 75,
          "name": "D#5",
          "ticks": 41040,
          "time": 41.04,
          "velocity": 0.5039370078740157
        },
        {
          "duration": 0.240000000000002,
          "durationTicks": 240,
          "midi": 63,
          "name": "D#4",
          "ticks": 41040,
          "time": 41.04,
          "velocity": 0.5039370078740157
        },
        {
          "duration": 0.23999999999999488,
          "durationTicks": 240,
          "midi": 70,
          "name": "A#4",
          "ticks": 41280,
          "time": 41.28,
          "velocity": 0.7874015748031497
        },
        {
          "duration": 0.4799999999999969,
          "durationTicks": 480,
          "midi": 58,
          "name": "A#3",
          "ticks": 41280,
          "time": 41.28,
          "velocity": 0.7874015748031497
        },
        {
          "duration": 0.240000000000002,
          "durationTicks": 240,
          "midi": 63,
          "name": "D#4",
          "ticks": 41520,
          "time": 41.519999999999996,
          "velocity": 0.5039370078740157
        },
        {
          "duration": 0.240000000000002,
          "durationTicks": 240,
          "midi": 75,
          "name": "D#5",
          "ticks": 41520,
          "time": 41.519999999999996,
          "velocity": 0.5039370078740157
        },
        {
          "duration": 0.240000000000002,
          "durationTicks": 240,
          "midi": 70,
          "name": "A#4",
          "ticks": 41760,
          "time": 41.76,
          "velocity": 0.7874015748031497
        },
        {
          "duration": 0.4799999999999969,
          "durationTicks": 480,
          "midi": 58,
          "name": "A#3",
          "ticks": 41760,
          "time": 41.76,
          "velocity": 0.7874015748031497
        },
        {
          "duration": 0.23999999999999488,
          "durationTicks": 240,
          "midi": 75,
          "name": "D#5",
          "ticks": 42000,
          "time": 42,
          "velocity": 0.5118110236220472
        },
        {
          "duration": 0.23999999999999488,
          "durationTicks": 240,
          "midi": 63,
          "name": "D#4",
          "ticks": 42000,
          "time": 42,
          "velocity": 0.5118110236220472
        },
        {
          "duration": 0.480000000000004,
          "durationTicks": 480,
          "midi": 58,
          "name": "A#3",
          "ticks": 42240,
          "time": 42.239999999999995,
          "velocity": 0.7874015748031497
        },
        {
          "duration": 0.240000000000002,
          "durationTicks": 240,
          "midi": 70,
          "name": "A#4",
          "ticks": 42240,
          "time": 42.239999999999995,
          "velocity": 0.7874015748031497
        }
      ]
    },
    {
      "channel": 0,
      "controlChanges": {
        "0": [
          {
            "number": 0,
            "ticks": 0,
            "time": 0,
            "value": 0
          }
        ],
        "7": [
          {
            "number": 7,
            "ticks": 0,
            "time": 0,
            "value": 0.6771653543307087
          }
        ],
        "32": [
          {
            "number": 32,
            "ticks": 1,
            "time": 0.001,
            "value": 0
          }
        ]
      },
      "pitchBends": [],
      "instrument": {
        "family": "piano",
        "number": 0,
        "name": "acoustic grand piano"
      },
      "name": "",
      "notes": [],
      "endOfTrackTicks": 40320
    },
    {
      "channel": 3,
      "controlChanges": {},
      "pitchBends": [],
      "instrument": {
        "family": "ensemble",
        "number": 51,
        "name": "synthstrings 2"
      },
      "name": "",
      "notes": [
        {
          "duration": 0.7200000000000006,
          "durationTicks": 720,
          "midi": 58,
          "name": "A#3",
          "ticks": 12720,
          "time": 12.719999999999999,
          "velocity": 0.7874015748031497
        },
        {
          "duration": 0.7200000000000006,
          "durationTicks": 720,
          "midi": 65,
          "name": "F4",
          "ticks": 12720,
          "time": 12.719999999999999,
          "velocity": 0.7874015748031497
        },
        {
          "duration": 0.7200000000000006,
          "durationTicks": 720,
          "midi": 62,
          "name": "D4",
          "ticks": 12720,
          "time": 12.719999999999999,
          "velocity": 0.7874015748031497
        },
        {
          "duration": 0.7200000000000006,
          "durationTicks": 720,
          "midi": 58,
          "name": "A#3",
          "ticks": 14640,
          "time": 14.639999999999999,
          "velocity": 0.7874015748031497
        },
        {
          "duration": 0.7200000000000006,
          "durationTicks": 720,
          "midi": 65,
          "name": "F4",
          "ticks": 14640,
          "time": 14.639999999999999,
          "velocity": 0.7874015748031497
        },
        {
          "duration": 0.7200000000000006,
          "durationTicks": 720,
          "midi": 62,
          "name": "D4",
          "ticks": 14640,
          "time": 14.639999999999999,
          "velocity": 0.7874015748031497
        },
        {
          "duration": 0.7200000000000024,
          "durationTicks": 720,
          "midi": 58,
          "name": "A#3",
          "ticks": 16560,
          "time": 16.56,
          "velocity": 0.7874015748031497
        },
        {
          "duration": 0.7200000000000024,
          "durationTicks": 720,
          "midi": 65,
          "name": "F4",
          "ticks": 16560,
          "time": 16.56,
          "velocity": 0.7874015748031497
        },
        {
          "duration": 0.7200000000000024,
          "durationTicks": 720,
          "midi": 62,
          "name": "D4",
          "ticks": 16560,
          "time": 16.56,
          "velocity": 0.7874015748031497
        },
        {
          "duration": 0.7199999999999989,
          "durationTicks": 720,
          "midi": 58,
          "name": "A#3",
          "ticks": 18480,
          "time": 18.48,
          "velocity": 0.7874015748031497
        },
        {
          "duration": 0.7199999999999989,
          "durationTicks": 720,
          "midi": 65,
          "name": "F4",
          "ticks": 18480,
          "time": 18.48,
          "velocity": 0.7874015748031497
        },
        {
          "duration": 0.7199999999999989,
          "durationTicks": 720,
          "midi": 62,
          "name": "D4",
          "ticks": 18480,
          "time": 18.48,
          "velocity": 0.7874015748031497
        },
        {
          "duration": 0.7199999999999989,
          "durationTicks": 720,
          "midi": 63,
          "name": "D#4",
          "ticks": 20400,
          "time": 20.4,
          "velocity": 0.7874015748031497
        },
        {
          "duration": 0.7199999999999989,
          "durationTicks": 720,
          "midi": 59,
          "name": "B3",
          "ticks": 20400,
          "time": 20.4,
          "velocity": 0.7874015748031497
        },
        {
          "duration": 0.7199999999999989,
          "durationTicks": 720,
          "midi": 68,
          "name": "G#4",
          "ticks": 20400,
          "time": 20.4,
          "velocity": 0.7874015748031497
        },
        {
          "duration": 0.7199999999999989,
          "durationTicks": 720,
          "midi": 59,
          "name": "B3",
          "ticks": 22320,
          "time": 22.32,
          "velocity": 0.7874015748031497
        },
        {
          "duration": 0.7199999999999989,
          "durationTicks": 720,
          "midi": 63,
          "name": "D#4",
          "ticks": 22320,
          "time": 22.32,
          "velocity": 0.7874015748031497
        },
        {
          "duration": 0.7199999999999989,
          "durationTicks": 720,
          "midi": 68,
          "name": "G#4",
          "ticks": 22320,
          "time": 22.32,
          "velocity": 0.7874015748031497
        },
        {
          "duration": 0.7200000000000024,
          "durationTicks": 720,
          "midi": 58,
          "name": "A#3",
          "ticks": 24240,
          "time": 24.24,
          "velocity": 0.7874015748031497
        },
        {
          "duration": 0.7200000000000024,
          "durationTicks": 720,
          "midi": 65,
          "name": "F4",
          "ticks": 24240,
          "time": 24.24,
          "velocity": 0.7874015748031497
        },
        {
          "duration": 0.7200000000000024,
          "durationTicks": 720,
          "midi": 62,
          "name": "D4",
          "ticks": 24240,
          "time": 24.24,
          "velocity": 0.7874015748031497
        },
        {
          "duration": 0.7199999999999989,
          "durationTicks": 720,
          "midi": 58,
          "name": "A#3",
          "ticks": 28080,
          "time": 28.08,
          "velocity": 0.7874015748031497
        },
        {
          "duration": 0.7199999999999989,
          "durationTicks": 720,
          "midi": 65,
          "name": "F4",
          "ticks": 28080,
          "time": 28.08,
          "velocity": 0.7874015748031497
        },
        {
          "duration": 0.7199999999999989,
          "durationTicks": 720,
          "midi": 62,
          "name": "D4",
          "ticks": 28080,
          "time": 28.08,
          "velocity": 0.7874015748031497
        },
        {
          "duration": 0.7199999999999989,
          "durationTicks": 720,
          "midi": 58,
          "name": "A#3",
          "ticks": 30000,
          "time": 30,
          "velocity": 0.7874015748031497
        },
        {
          "duration": 0.7199999999999989,
          "durationTicks": 720,
          "midi": 65,
          "name": "F4",
          "ticks": 30000,
          "time": 30,
          "velocity": 0.7874015748031497
        },
        {
          "duration": 0.7199999999999989,
          "durationTicks": 720,
          "midi": 62,
          "name": "D4",
          "ticks": 30000,
          "time": 30,
          "velocity": 0.7874015748031497
        },
        {
          "duration": 0.7200000000000024,
          "durationTicks": 720,
          "midi": 58,
          "name": "A#3",
          "ticks": 31920,
          "time": 31.919999999999998,
          "velocity": 0.7874015748031497
        },
        {
          "duration": 0.7200000000000024,
          "durationTicks": 720,
          "midi": 65,
          "name": "F4",
          "ticks": 31920,
          "time": 31.919999999999998,
          "velocity": 0.7874015748031497
        },
        {
          "duration": 0.7200000000000024,
          "durationTicks": 720,
          "midi": 62,
          "name": "D4",
          "ticks": 31920,
          "time": 31.919999999999998,
          "velocity": 0.7874015748031497
        },
        {
          "duration": 0.720000000000006,
          "durationTicks": 720,
          "midi": 58,
          "name": "A#3",
          "ticks": 33840,
          "time": 33.839999999999996,
          "velocity": 0.7874015748031497
        },
        {
          "duration": 0.720000000000006,
          "durationTicks": 720,
          "midi": 65,
          "name": "F4",
          "ticks": 33840,
          "time": 33.839999999999996,
          "velocity": 0.7874015748031497
        },
        {
          "duration": 0.720000000000006,
          "durationTicks": 720,
          "midi": 62,
          "name": "D4",
          "ticks": 33840,
          "time": 33.839999999999996,
          "velocity": 0.7874015748031497
        },
        {
          "duration": 0.7199999999999989,
          "durationTicks": 720,
          "midi": 63,
          "name": "D#4",
          "ticks": 35760,
          "time": 35.76,
          "velocity": 0.7874015748031497
        },
        {
          "duration": 0.7199999999999989,
          "durationTicks": 720,
          "midi": 59,
          "name": "B3",
          "ticks": 35760,
          "time": 35.76,
          "velocity": 0.7874015748031497
        },
        {
          "duration": 0.7199999999999989,
          "durationTicks": 720,
          "midi": 68,
          "name": "G#4",
          "ticks": 35760,
          "time": 35.76,
          "velocity": 0.7874015748031497
        },
        {
          "duration": 0.7199999999999989,
          "durationTicks": 720,
          "midi": 59,
          "name": "B3",
          "ticks": 37680,
          "time": 37.68,
          "velocity": 0.7874015748031497
        },
        {
          "duration": 0.7199999999999989,
          "durationTicks": 720,
          "midi": 63,
          "name": "D#4",
          "ticks": 37680,
          "time": 37.68,
          "velocity": 0.7874015748031497
        },
        {
          "duration": 0.7199999999999989,
          "durationTicks": 720,
          "midi": 68,
          "name": "G#4",
          "ticks": 37680,
          "time": 37.68,
          "velocity": 0.7874015748031497
        },
        {
          "duration": 0.7199999999999989,
          "durationTicks": 720,
          "midi": 58,
          "name": "A#3",
          "ticks": 39600,
          "time": 39.6,
          "velocity": 0.7874015748031497
        },
        {
          "duration": 0.7199999999999989,
          "durationTicks": 720,
          "midi": 65,
          "name": "F4",
          "ticks": 39600,
          "time": 39.6,
          "velocity": 0.7874015748031497
        },
        {
          "duration": 0.7199999999999989,
          "durationTicks": 720,
          "midi": 62,
          "name": "D4",
          "ticks": 39600,
          "time": 39.6,
          "velocity": 0.7874015748031497
        }
      ]
    },
    {
      "channel": 9,
      "controlChanges": {
        "0": [
          {
            "number": 0,
            "ticks": 0,
            "time": 0,
            "value": 0
          }
        ]
      },
      "pitchBends": [],
      "instrument": {
        "family": "drums",
        "number": 0,
        "name": "standard kit"
      },
      "name": "",
      "notes": [
        {
          "duration": 0.05999999999999961,
          "durationTicks": 60,
          "midi": 69,
          "name": "A4",
          "ticks": 3120,
          "time": 3.12,
          "velocity": 0.7874015748031497
        },
        {
          "duration": 0.06000000000000005,
          "durationTicks": 60,
          "midi": 70,
          "name": "A#4",
          "ticks": 3600,
          "time": 3.5999999999999996,
          "velocity": 0.7874015748031497
        },
        {
          "duration": 0.06000000000000005,
          "durationTicks": 60,
          "midi": 61,
          "name": "C#4",
          "ticks": 3840,
          "time": 3.84,
          "velocity": 0.7874015748031497
        },
        {
          "duration": 0.06000000000000005,
          "durationTicks": 60,
          "midi": 51,
          "name": "D#3",
          "ticks": 3840,
          "time": 3.84,
          "velocity": 0.7874015748031497
        },
        {
          "duration": 0.06000000000000005,
          "durationTicks": 60,
          "midi": 47,
          "name": "B2",
          "ticks": 3840,
          "time": 3.84,
          "velocity": 0.7874015748031497
        },
        {
          "duration": 0.06000000000000005,
          "durationTicks": 60,
          "midi": 42,
          "name": "F#2",
          "ticks": 3840,
          "time": 3.84,
          "velocity": 0.4881889763779528
        },
        {
          "duration": 0.05999999999999961,
          "durationTicks": 60,
          "midi": 42,
          "name": "F#2",
          "ticks": 3960,
          "time": 3.96,
          "velocity": 0.4881889763779528
        },
        {
          "duration": 0.05999999999999961,
          "durationTicks": 60,
          "midi": 32,
          "name": "G#1",
          "ticks": 4080,
          "time": 4.08,
          "velocity": 0.7874015748031497
        },
        {
          "duration": 0.05999999999999961,
          "durationTicks": 60,
          "midi": 42,
          "name": "F#2",
          "ticks": 4080,
          "time": 4.08,
          "velocity": 0.4881889763779528
        },
        {
          "duration": 0.05999999999999961,
          "durationTicks": 60,
          "midi": 60,
          "name": "C4",
          "ticks": 4200,
          "time": 4.2,
          "velocity": 0.7874015748031497
        },
        {
          "duration": 0.05999999999999961,
          "durationTicks": 60,
          "midi": 48,
          "name": "C3",
          "ticks": 4200,
          "time": 4.2,
          "velocity": 0.7874015748031497
        },
        {
          "duration": 0.05999999999999961,
          "durationTicks": 60,
          "midi": 16,
          "name": "E0",
          "ticks": 4320,
          "time": 4.32,
          "velocity": 0.7874015748031497
        },
        {
          "duration": 0.05999999999999961,
          "durationTicks": 60,
          "midi": 51,
          "name": "D#3",
          "ticks": 4320,
          "time": 4.32,
          "velocity": 0.7874015748031497
        },
        {
          "duration": 0.05999999999999961,
          "durationTicks": 60,
          "midi": 42,
          "name": "F#2",
          "ticks": 4320,
          "time": 4.32,
          "velocity": 0.4881889763779528
        },
        {
          "duration": 0.05999999999999961,
          "durationTicks": 60,
          "midi": 39,
          "name": "D#2",
          "ticks": 4320,
          "time": 4.32,
          "velocity": 0.6220472440944882
        },
        {
          "duration": 0.0600000000000005,
          "durationTicks": 60,
          "midi": 42,
          "name": "F#2",
          "ticks": 4440,
          "time": 4.4399999999999995,
          "velocity": 0.4881889763779528
        },
        {
          "duration": 0.0600000000000005,
          "durationTicks": 60,
          "midi": 61,
          "name": "C#4",
          "ticks": 4560,
          "time": 4.56,
          "velocity": 0.7874015748031497
        },
        {
          "duration": 0.0600000000000005,
          "durationTicks": 60,
          "midi": 47,
          "name": "B2",
          "ticks": 4560,
          "time": 4.56,
          "velocity": 0.7874015748031497
        },
        {
          "duration": 0.0600000000000005,
          "durationTicks": 60,
          "midi": 42,
          "name": "F#2",
          "ticks": 4560,
          "time": 4.56,
          "velocity": 0.4881889763779528
        },
        {
          "duration": 0.05999999999999961,
          "durationTicks": 60,
          "midi": 61,
          "name": "C#4",
          "ticks": 4800,
          "time": 4.8,
          "velocity": 0.7874015748031497
        },
        {
          "duration": 0.05999999999999961,
          "durationTicks": 60,
          "midi": 47,
          "name": "B2",
          "ticks": 4800,
          "time": 4.8,
          "velocity": 0.7874015748031497
        },
        {
          "duration": 0.05999999999999961,
          "durationTicks": 60,
          "midi": 51,
          "name": "D#3",
          "ticks": 4800,
          "time": 4.8,
          "velocity": 0.7874015748031497
        },
        {
          "duration": 0.05999999999999961,
          "durationTicks": 60,
          "midi": 42,
          "name": "F#2",
          "ticks": 4800,
          "time": 4.8,
          "velocity": 0.4881889763779528
        },
        {
          "duration": 0.05999999999999961,
          "durationTicks": 60,
          "midi": 42,
          "name": "F#2",
          "ticks": 4920,
          "time": 4.92,
          "velocity": 0.4881889763779528
        },
        {
          "duration": 0.05999999999999961,
          "durationTicks": 60,
          "midi": 32,
          "name": "G#1",
          "ticks": 5040,
          "time": 5.04,
          "velocity": 0.7874015748031497
        },
        {
          "duration": 0.05999999999999961,
          "durationTicks": 60,
          "midi": 69,
          "name": "A4",
          "ticks": 5040,
          "time": 5.04,
          "velocity": 0.7874015748031497
        },
        {
          "duration": 0.05999999999999961,
          "durationTicks": 60,
          "midi": 60,
          "name": "C4",
          "ticks": 5040,
          "time": 5.04,
          "velocity": 0.7874015748031497
        },
        {
          "duration": 0.05999999999999961,
          "durationTicks": 60,
          "midi": 42,
          "name": "F#2",
          "ticks": 5040,
          "time": 5.04,
          "velocity": 0.4881889763779528
        },
        {
          "duration": 0.05999999999999961,
          "durationTicks": 60,
          "midi": 51,
          "name": "D#3",
          "ticks": 5160,
          "time": 5.16,
          "velocity": 0.7874015748031497
        },
        {
          "duration": 0.0600000000000005,
          "durationTicks": 60,
          "midi": 16,
          "name": "E0",
          "ticks": 5280,
          "time": 5.279999999999999,
          "velocity": 0.7874015748031497
        },
        {
          "duration": 0.0600000000000005,
          "durationTicks": 60,
          "midi": 31,
          "name": "G1",
          "ticks": 5280,
          "time": 5.279999999999999,
          "velocity": 0.7874015748031497
        },
        {
          "duration": 0.0600000000000005,
          "durationTicks": 60,
          "midi": 61,
          "name": "C#4",
          "ticks": 5280,
          "time": 5.279999999999999,
          "velocity": 0.7874015748031497
        },
        {
          "duration": 0.0600000000000005,
          "durationTicks": 60,
          "midi": 47,
          "name": "B2",
          "ticks": 5280,
          "time": 5.279999999999999,
          "velocity": 0.7874015748031497
        },
        {
          "duration": 0.0600000000000005,
          "durationTicks": 60,
          "midi": 42,
          "name": "F#2",
          "ticks": 5280,
          "time": 5.279999999999999,
          "velocity": 0.4881889763779528
        },
        {
          "duration": 0.0600000000000005,
          "durationTicks": 60,
          "midi": 42,
          "name": "F#2",
          "ticks": 5400,
          "time": 5.3999999999999995,
          "velocity": 0.4881889763779528
        },
        {
          "duration": 0.0600000000000005,
          "durationTicks": 60,
          "midi": 46,
          "name": "A#2",
          "ticks": 5520,
          "time": 5.52,
          "velocity": 0.7874015748031497
        },
        {
          "duration": 0.0600000000000005,
          "durationTicks": 60,
          "midi": 70,
          "name": "A#4",
          "ticks": 5520,
          "time": 5.52,
          "velocity": 0.7874015748031497
        },
        {
          "duration": 0.0600000000000005,
          "durationTicks": 60,
          "midi": 60,
          "name": "C4",
          "ticks": 5520,
          "time": 5.52,
          "velocity": 0.7874015748031497
        },
        {
          "duration": 0.0600000000000005,
          "durationTicks": 60,
          "midi": 51,
          "name": "D#3",
          "ticks": 5520,
          "time": 5.52,
          "velocity": 0.7874015748031497
        },
        {
          "duration": 0.0600000000000005,
          "durationTicks": 60,
          "midi": 48,
          "name": "C3",
          "ticks": 5520,
          "time": 5.52,
          "velocity": 0.7874015748031497
        },
        {
          "duration": 0.0600000000000005,
          "durationTicks": 60,
          "midi": 42,
          "name": "F#2",
          "ticks": 5520,
          "time": 5.52,
          "velocity": 0.4881889763779528
        },
        {
          "duration": 0.05999999999999961,
          "durationTicks": 60,
          "midi": 61,
          "name": "C#4",
          "ticks": 5760,
          "time": 5.76,
          "velocity": 0.7874015748031497
        },
        {
          "duration": 0.05999999999999961,
          "durationTicks": 60,
          "midi": 51,
          "name": "D#3",
          "ticks": 5760,
          "time": 5.76,
          "velocity": 0.7874015748031497
        },
        {
          "duration": 0.05999999999999961,
          "durationTicks": 60,
          "midi": 47,
          "name": "B2",
          "ticks": 5760,
          "time": 5.76,
          "velocity": 0.7874015748031497
        },
        {
          "duration": 0.05999999999999961,
          "durationTicks": 60,
          "midi": 42,
          "name": "F#2",
          "ticks": 5760,
          "time": 5.76,
          "velocity": 0.4881889763779528
        },
        {
          "duration": 0.05999999999999961,
          "durationTicks": 60,
          "midi": 42,
          "name": "F#2",
          "ticks": 5880,
          "time": 5.88,
          "velocity": 0.4881889763779528
        },
        {
          "duration": 0.05999999999999961,
          "durationTicks": 60,
          "midi": 32,
          "name": "G#1",
          "ticks": 6000,
          "time": 6,
          "velocity": 0.7874015748031497
        },
        {
          "duration": 0.05999999999999961,
          "durationTicks": 60,
          "midi": 42,
          "name": "F#2",
          "ticks": 6000,
          "time": 6,
          "velocity": 0.4881889763779528
        },
        {
          "duration": 0.05999999999999961,
          "durationTicks": 60,
          "midi": 60,
          "name": "C4",
          "ticks": 6120,
          "time": 6.12,
          "velocity": 0.7874015748031497
        },
        {
          "duration": 0.05999999999999961,
          "durationTicks": 60,
          "midi": 48,
          "name": "C3",
          "ticks": 6120,
          "time": 6.12,
          "velocity": 0.7874015748031497
        },
        {
          "duration": 0.05999999999999961,
          "durationTicks": 60,
          "midi": 16,
          "name": "E0",
          "ticks": 6240,
          "time": 6.24,
          "velocity": 0.7874015748031497
        },
        {
          "duration": 0.05999999999999961,
          "durationTicks": 60,
          "midi": 51,
          "name": "D#3",
          "ticks": 6240,
          "time": 6.24,
          "velocity": 0.7874015748031497
        },
        {
          "duration": 0.05999999999999961,
          "durationTicks": 60,
          "midi": 42,
          "name": "F#2",
          "ticks": 6240,
          "time": 6.24,
          "velocity": 0.4881889763779528
        },
        {
          "duration": 0.05999999999999961,
          "durationTicks": 60,
          "midi": 39,
          "name": "D#2",
          "ticks": 6240,
          "time": 6.24,
          "velocity": 0.6220472440944882
        },
        {
          "duration": 0.0600000000000005,
          "durationTicks": 60,
          "midi": 42,
          "name": "F#2",
          "ticks": 6360,
          "time": 6.359999999999999,
          "velocity": 0.4881889763779528
        },
        {
          "duration": 0.0600000000000005,
          "durationTicks": 60,
          "midi": 61,
          "name": "C#4",
          "ticks": 6480,
          "time": 6.4799999999999995,
          "velocity": 0.7874015748031497
        },
        {
          "duration": 0.0600000000000005,
          "durationTicks": 60,
          "midi": 47,
          "name": "B2",
          "ticks": 6480,
          "time": 6.4799999999999995,
          "velocity": 0.7874015748031497
        },
        {
          "duration": 0.0600000000000005,
          "durationTicks": 60,
          "midi": 42,
          "name": "F#2",
          "ticks": 6480,
          "time": 6.4799999999999995,
          "velocity": 0.4881889763779528
        },
        {
          "duration": 0.05999999999999961,
          "durationTicks": 60,
          "midi": 61,
          "name": "C#4",
          "ticks": 6720,
          "time": 6.72,
          "velocity": 0.7874015748031497
        },
        {
          "duration": 0.05999999999999961,
          "durationTicks": 60,
          "midi": 47,
          "name": "B2",
          "ticks": 6720,
          "time": 6.72,
          "velocity": 0.7874015748031497
        },
        {
          "duration": 0.05999999999999961,
          "durationTicks": 60,
          "midi": 51,
          "name": "D#3",
          "ticks": 6720,
          "time": 6.72,
          "velocity": 0.7874015748031497
        },
        {
          "duration": 0.05999999999999961,
          "durationTicks": 60,
          "midi": 42,
          "name": "F#2",
          "ticks": 6720,
          "time": 6.72,
          "velocity": 0.4881889763779528
        },
        {
          "duration": 0.05999999999999961,
          "durationTicks": 60,
          "midi": 42,
          "name": "F#2",
          "ticks": 6840,
          "time": 6.84,
          "velocity": 0.4881889763779528
        },
        {
          "duration": 0.05999999999999961,
          "durationTicks": 60,
          "midi": 32,
          "name": "G#1",
          "ticks": 6960,
          "time": 6.96,
          "velocity": 0.7874015748031497
        },
        {
          "duration": 0.05999999999999961,
          "durationTicks": 60,
          "midi": 69,
          "name": "A4",
          "ticks": 6960,
          "time": 6.96,
          "velocity": 0.7874015748031497
        },
        {
          "duration": 0.05999999999999961,
          "durationTicks": 60,
          "midi": 60,
          "name": "C4",
          "ticks": 6960,
          "time": 6.96,
          "velocity": 0.7874015748031497
        },
        {
          "duration": 0.05999999999999961,
          "durationTicks": 60,
          "midi": 42,
          "name": "F#2",
          "ticks": 6960,
          "time": 6.96,
          "velocity": 0.4881889763779528
        },
        {
          "duration": 0.05999999999999961,
          "durationTicks": 60,
          "midi": 51,
          "name": "D#3",
          "ticks": 7080,
          "time": 7.08,
          "velocity": 0.7874015748031497
        },
        {
          "duration": 0.0600000000000005,
          "durationTicks": 60,
          "midi": 16,
          "name": "E0",
          "ticks": 7200,
          "time": 7.199999999999999,
          "velocity": 0.7874015748031497
        },
        {
          "duration": 0.0600000000000005,
          "durationTicks": 60,
          "midi": 31,
          "name": "G1",
          "ticks": 7200,
          "time": 7.199999999999999,
          "velocity": 0.7874015748031497
        },
        {
          "duration": 0.0600000000000005,
          "durationTicks": 60,
          "midi": 61,
          "name": "C#4",
          "ticks": 7200,
          "time": 7.199999999999999,
          "velocity": 0.7874015748031497
        },
        {
          "duration": 0.0600000000000005,
          "durationTicks": 60,
          "midi": 47,
          "name": "B2",
          "ticks": 7200,
          "time": 7.199999999999999,
          "velocity": 0.7874015748031497
        },
        {
          "duration": 0.0600000000000005,
          "durationTicks": 60,
          "midi": 42,
          "name": "F#2",
          "ticks": 7200,
          "time": 7.199999999999999,
          "velocity": 0.4881889763779528
        },
        {
          "duration": 0.0600000000000005,
          "durationTicks": 60,
          "midi": 42,
          "name": "F#2",
          "ticks": 7320,
          "time": 7.319999999999999,
          "velocity": 0.4881889763779528
        },
        {
          "duration": 0.0600000000000005,
          "durationTicks": 60,
          "midi": 46,
          "name": "A#2",
          "ticks": 7440,
          "time": 7.4399999999999995,
          "velocity": 0.7874015748031497
        },
        {
          "duration": 0.0600000000000005,
          "durationTicks": 60,
          "midi": 70,
          "name": "A#4",
          "ticks": 7440,
          "time": 7.4399999999999995,
          "velocity": 0.7874015748031497
        },
        {
          "duration": 0.0600000000000005,
          "durationTicks": 60,
          "midi": 60,
          "name": "C4",
          "ticks": 7440,
          "time": 7.4399999999999995,
          "velocity": 0.7874015748031497
        },
        {
          "duration": 0.0600000000000005,
          "durationTicks": 60,
          "midi": 51,
          "name": "D#3",
          "ticks": 7440,
          "time": 7.4399999999999995,
          "velocity": 0.7874015748031497
        },
        {
          "duration": 0.0600000000000005,
          "durationTicks": 60,
          "midi": 48,
          "name": "C3",
          "ticks": 7440,
          "time": 7.4399999999999995,
          "velocity": 0.7874015748031497
        },
        {
          "duration": 0.0600000000000005,
          "durationTicks": 60,
          "midi": 42,
          "name": "F#2",
          "ticks": 7440,
          "time": 7.4399999999999995,
          "velocity": 0.4881889763779528
        },
        {
          "duration": 0.05999999999999961,
          "durationTicks": 60,
          "midi": 61,
          "name": "C#4",
          "ticks": 7680,
          "time": 7.68,
          "velocity": 0.7874015748031497
        },
        {
          "duration": 0.05999999999999961,
          "durationTicks": 60,
          "midi": 51,
          "name": "D#3",
          "ticks": 7680,
          "time": 7.68,
          "velocity": 0.7874015748031497
        },
        {
          "duration": 0.05999999999999961,
          "durationTicks": 60,
          "midi": 47,
          "name": "B2",
          "ticks": 7680,
          "time": 7.68,
          "velocity": 0.7874015748031497
        },
        {
          "duration": 0.05999999999999961,
          "durationTicks": 60,
          "midi": 42,
          "name": "F#2",
          "ticks": 7680,
          "time": 7.68,
          "velocity": 0.4881889763779528
        },
        {
          "duration": 0.05999999999999961,
          "durationTicks": 60,
          "midi": 42,
          "name": "F#2",
          "ticks": 7800,
          "time": 7.8,
          "velocity": 0.4881889763779528
        },
        {
          "duration": 0.05999999999999961,
          "durationTicks": 60,
          "midi": 32,
          "name": "G#1",
          "ticks": 7920,
          "time": 7.92,
          "velocity": 0.7874015748031497
        },
        {
          "duration": 0.05999999999999961,
          "durationTicks": 60,
          "midi": 42,
          "name": "F#2",
          "ticks": 7920,
          "time": 7.92,
          "velocity": 0.4881889763779528
        },
        {
          "duration": 0.0600000000000005,
          "durationTicks": 60,
          "midi": 60,
          "name": "C4",
          "ticks": 8040,
          "time": 8.04,
          "velocity": 0.7874015748031497
        },
        {
          "duration": 0.0600000000000005,
          "durationTicks": 60,
          "midi": 48,
          "name": "C3",
          "ticks": 8040,
          "time": 8.04,
          "velocity": 0.7874015748031497
        },
        {
          "duration": 0.05999999999999872,
          "durationTicks": 60,
          "midi": 16,
          "name": "E0",
          "ticks": 8160,
          "time": 8.16,
          "velocity": 0.7874015748031497
        },
        {
          "duration": 0.05999999999999872,
          "durationTicks": 60,
          "midi": 51,
          "name": "D#3",
          "ticks": 8160,
          "time": 8.16,
          "velocity": 0.7874015748031497
        },
        {
          "duration": 0.05999999999999872,
          "durationTicks": 60,
          "midi": 42,
          "name": "F#2",
          "ticks": 8160,
          "time": 8.16,
          "velocity": 0.4881889763779528
        },
        {
          "duration": 0.05999999999999872,
          "durationTicks": 60,
          "midi": 39,
          "name": "D#2",
          "ticks": 8160,
          "time": 8.16,
          "velocity": 0.6220472440944882
        },
        {
          "duration": 0.0600000000000005,
          "durationTicks": 60,
          "midi": 42,
          "name": "F#2",
          "ticks": 8280,
          "time": 8.28,
          "velocity": 0.4881889763779528
        },
        {
          "duration": 0.05999999999999872,
          "durationTicks": 60,
          "midi": 61,
          "name": "C#4",
          "ticks": 8400,
          "time": 8.4,
          "velocity": 0.7874015748031497
        },
        {
          "duration": 0.05999999999999872,
          "durationTicks": 60,
          "midi": 47,
          "name": "B2",
          "ticks": 8400,
          "time": 8.4,
          "velocity": 0.7874015748031497
        },
        {
          "duration": 0.05999999999999872,
          "durationTicks": 60,
          "midi": 42,
          "name": "F#2",
          "ticks": 8400,
          "time": 8.4,
          "velocity": 0.4881889763779528
        },
        {
          "duration": 0.05999999999999872,
          "durationTicks": 60,
          "midi": 61,
          "name": "C#4",
          "ticks": 8640,
          "time": 8.64,
          "velocity": 0.7874015748031497
        },
        {
          "duration": 0.05999999999999872,
          "durationTicks": 60,
          "midi": 47,
          "name": "B2",
          "ticks": 8640,
          "time": 8.64,
          "velocity": 0.7874015748031497
        },
        {
          "duration": 0.05999999999999872,
          "durationTicks": 60,
          "midi": 51,
          "name": "D#3",
          "ticks": 8640,
          "time": 8.64,
          "velocity": 0.7874015748031497
        },
        {
          "duration": 0.05999999999999872,
          "durationTicks": 60,
          "midi": 42,
          "name": "F#2",
          "ticks": 8640,
          "time": 8.64,
          "velocity": 0.4881889763779528
        },
        {
          "duration": 0.0600000000000005,
          "durationTicks": 60,
          "midi": 42,
          "name": "F#2",
          "ticks": 8760,
          "time": 8.76,
          "velocity": 0.4881889763779528
        },
        {
          "duration": 0.0600000000000005,
          "durationTicks": 60,
          "midi": 32,
          "name": "G#1",
          "ticks": 8880,
          "time": 8.879999999999999,
          "velocity": 0.7874015748031497
        },
        {
          "duration": 0.0600000000000005,
          "durationTicks": 60,
          "midi": 69,
          "name": "A4",
          "ticks": 8880,
          "time": 8.879999999999999,
          "velocity": 0.7874015748031497
        },
        {
          "duration": 0.0600000000000005,
          "durationTicks": 60,
          "midi": 60,
          "name": "C4",
          "ticks": 8880,
          "time": 8.879999999999999,
          "velocity": 0.7874015748031497
        },
        {
          "duration": 0.0600000000000005,
          "durationTicks": 60,
          "midi": 42,
          "name": "F#2",
          "ticks": 8880,
          "time": 8.879999999999999,
          "velocity": 0.4881889763779528
        },
        {
          "duration": 0.0600000000000005,
          "durationTicks": 60,
          "midi": 51,
          "name": "D#3",
          "ticks": 9000,
          "time": 9,
          "velocity": 0.7874015748031497
        },
        {
          "duration": 0.0600000000000005,
          "durationTicks": 60,
          "midi": 16,
          "name": "E0",
          "ticks": 9120,
          "time": 9.12,
          "velocity": 0.7874015748031497
        },
        {
          "duration": 0.0600000000000005,
          "durationTicks": 60,
          "midi": 31,
          "name": "G1",
          "ticks": 9120,
          "time": 9.12,
          "velocity": 0.7874015748031497
        },
        {
          "duration": 0.0600000000000005,
          "durationTicks": 60,
          "midi": 61,
          "name": "C#4",
          "ticks": 9120,
          "time": 9.12,
          "velocity": 0.7874015748031497
        },
        {
          "duration": 0.0600000000000005,
          "durationTicks": 60,
          "midi": 47,
          "name": "B2",
          "ticks": 9120,
          "time": 9.12,
          "velocity": 0.7874015748031497
        },
        {
          "duration": 0.0600000000000005,
          "durationTicks": 60,
          "midi": 42,
          "name": "F#2",
          "ticks": 9120,
          "time": 9.12,
          "velocity": 0.4881889763779528
        },
        {
          "duration": 0.05999999999999872,
          "durationTicks": 60,
          "midi": 42,
          "name": "F#2",
          "ticks": 9240,
          "time": 9.24,
          "velocity": 0.4881889763779528
        },
        {
          "duration": 0.0600000000000005,
          "durationTicks": 60,
          "midi": 46,
          "name": "A#2",
          "ticks": 9360,
          "time": 9.36,
          "velocity": 0.7874015748031497
        },
        {
          "duration": 0.0600000000000005,
          "durationTicks": 60,
          "midi": 70,
          "name": "A#4",
          "ticks": 9360,
          "time": 9.36,
          "velocity": 0.7874015748031497
        },
        {
          "duration": 0.0600000000000005,
          "durationTicks": 60,
          "midi": 60,
          "name": "C4",
          "ticks": 9360,
          "time": 9.36,
          "velocity": 0.7874015748031497
        },
        {
          "duration": 0.0600000000000005,
          "durationTicks": 60,
          "midi": 51,
          "name": "D#3",
          "ticks": 9360,
          "time": 9.36,
          "velocity": 0.7874015748031497
        },
        {
          "duration": 0.0600000000000005,
          "durationTicks": 60,
          "midi": 48,
          "name": "C3",
          "ticks": 9360,
          "time": 9.36,
          "velocity": 0.7874015748031497
        },
        {
          "duration": 0.0600000000000005,
          "durationTicks": 60,
          "midi": 42,
          "name": "F#2",
          "ticks": 9360,
          "time": 9.36,
          "velocity": 0.4881889763779528
        },
        {
          "duration": 0.0600000000000005,
          "durationTicks": 60,
          "midi": 61,
          "name": "C#4",
          "ticks": 9600,
          "time": 9.6,
          "velocity": 0.7874015748031497
        },
        {
          "duration": 0.0600000000000005,
          "durationTicks": 60,
          "midi": 51,
          "name": "D#3",
          "ticks": 9600,
          "time": 9.6,
          "velocity": 0.7874015748031497
        },
        {
          "duration": 0.0600000000000005,
          "durationTicks": 60,
          "midi": 47,
          "name": "B2",
          "ticks": 9600,
          "time": 9.6,
          "velocity": 0.7874015748031497
        },
        {
          "duration": 0.0600000000000005,
          "durationTicks": 60,
          "midi": 42,
          "name": "F#2",
          "ticks": 9600,
          "time": 9.6,
          "velocity": 0.4881889763779528
        },
        {
          "duration": 0.0600000000000005,
          "durationTicks": 60,
          "midi": 42,
          "name": "F#2",
          "ticks": 9720,
          "time": 9.719999999999999,
          "velocity": 0.4881889763779528
        },
        {
          "duration": 0.0600000000000005,
          "durationTicks": 60,
          "midi": 32,
          "name": "G#1",
          "ticks": 9840,
          "time": 9.84,
          "velocity": 0.7874015748031497
        },
        {
          "duration": 0.0600000000000005,
          "durationTicks": 60,
          "midi": 42,
          "name": "F#2",
          "ticks": 9840,
          "time": 9.84,
          "velocity": 0.4881889763779528
        },
        {
          "duration": 0.0600000000000005,
          "durationTicks": 60,
          "midi": 60,
          "name": "C4",
          "ticks": 9960,
          "time": 9.959999999999999,
          "velocity": 0.7874015748031497
        },
        {
          "duration": 0.0600000000000005,
          "durationTicks": 60,
          "midi": 48,
          "name": "C3",
          "ticks": 9960,
          "time": 9.959999999999999,
          "velocity": 0.7874015748031497
        },
        {
          "duration": 0.05999999999999872,
          "durationTicks": 60,
          "midi": 16,
          "name": "E0",
          "ticks": 10080,
          "time": 10.08,
          "velocity": 0.7874015748031497
        },
        {
          "duration": 0.05999999999999872,
          "durationTicks": 60,
          "midi": 51,
          "name": "D#3",
          "ticks": 10080,
          "time": 10.08,
          "velocity": 0.7874015748031497
        },
        {
          "duration": 0.05999999999999872,
          "durationTicks": 60,
          "midi": 42,
          "name": "F#2",
          "ticks": 10080,
          "time": 10.08,
          "velocity": 0.4881889763779528
        },
        {
          "duration": 0.05999999999999872,
          "durationTicks": 60,
          "midi": 39,
          "name": "D#2",
          "ticks": 10080,
          "time": 10.08,
          "velocity": 0.6220472440944882
        },
        {
          "duration": 0.0600000000000005,
          "durationTicks": 60,
          "midi": 42,
          "name": "F#2",
          "ticks": 10200,
          "time": 10.2,
          "velocity": 0.4881889763779528
        },
        {
          "duration": 0.05999999999999872,
          "durationTicks": 60,
          "midi": 61,
          "name": "C#4",
          "ticks": 10320,
          "time": 10.32,
          "velocity": 0.7874015748031497
        },
        {
          "duration": 0.05999999999999872,
          "durationTicks": 60,
          "midi": 47,
          "name": "B2",
          "ticks": 10320,
          "time": 10.32,
          "velocity": 0.7874015748031497
        },
        {
          "duration": 0.05999999999999872,
          "durationTicks": 60,
          "midi": 42,
          "name": "F#2",
          "ticks": 10320,
          "time": 10.32,
          "velocity": 0.4881889763779528
        },
        {
          "duration": 0.0600000000000005,
          "durationTicks": 60,
          "midi": 61,
          "name": "C#4",
          "ticks": 10560,
          "time": 10.559999999999999,
          "velocity": 0.7874015748031497
        },
        {
          "duration": 0.0600000000000005,
          "durationTicks": 60,
          "midi": 47,
          "name": "B2",
          "ticks": 10560,
          "time": 10.559999999999999,
          "velocity": 0.7874015748031497
        },
        {
          "duration": 0.0600000000000005,
          "durationTicks": 60,
          "midi": 51,
          "name": "D#3",
          "ticks": 10560,
          "time": 10.559999999999999,
          "velocity": 0.7874015748031497
        },
        {
          "duration": 0.0600000000000005,
          "durationTicks": 60,
          "midi": 42,
          "name": "F#2",
          "ticks": 10560,
          "time": 10.559999999999999,
          "velocity": 0.4881889763779528
        },
        {
          "duration": 0.0600000000000005,
          "durationTicks": 60,
          "midi": 42,
          "name": "F#2",
          "ticks": 10680,
          "time": 10.68,
          "velocity": 0.4881889763779528
        },
        {
          "duration": 0.0600000000000005,
          "durationTicks": 60,
          "midi": 32,
          "name": "G#1",
          "ticks": 10800,
          "time": 10.799999999999999,
          "velocity": 0.7874015748031497
        },
        {
          "duration": 0.0600000000000005,
          "durationTicks": 60,
          "midi": 69,
          "name": "A4",
          "ticks": 10800,
          "time": 10.799999999999999,
          "velocity": 0.7874015748031497
        },
        {
          "duration": 0.0600000000000005,
          "durationTicks": 60,
          "midi": 60,
          "name": "C4",
          "ticks": 10800,
          "time": 10.799999999999999,
          "velocity": 0.7874015748031497
        },
        {
          "duration": 0.0600000000000005,
          "durationTicks": 60,
          "midi": 42,
          "name": "F#2",
          "ticks": 10800,
          "time": 10.799999999999999,
          "velocity": 0.4881889763779528
        },
        {
          "duration": 0.0600000000000005,
          "durationTicks": 60,
          "midi": 51,
          "name": "D#3",
          "ticks": 10920,
          "time": 10.92,
          "velocity": 0.7874015748031497
        },
        {
          "duration": 0.0600000000000005,
          "durationTicks": 60,
          "midi": 16,
          "name": "E0",
          "ticks": 11040,
          "time": 11.04,
          "velocity": 0.7874015748031497
        },
        {
          "duration": 0.0600000000000005,
          "durationTicks": 60,
          "midi": 31,
          "name": "G1",
          "ticks": 11040,
          "time": 11.04,
          "velocity": 0.7874015748031497
        },
        {
          "duration": 0.0600000000000005,
          "durationTicks": 60,
          "midi": 61,
          "name": "C#4",
          "ticks": 11040,
          "time": 11.04,
          "velocity": 0.7874015748031497
        },
        {
          "duration": 0.0600000000000005,
          "durationTicks": 60,
          "midi": 47,
          "name": "B2",
          "ticks": 11040,
          "time": 11.04,
          "velocity": 0.7874015748031497
        },
        {
          "duration": 0.0600000000000005,
          "durationTicks": 60,
          "midi": 42,
          "name": "F#2",
          "ticks": 11040,
          "time": 11.04,
          "velocity": 0.4881889763779528
        },
        {
          "duration": 0.05999999999999872,
          "durationTicks": 60,
          "midi": 42,
          "name": "F#2",
          "ticks": 11160,
          "time": 11.16,
          "velocity": 0.4881889763779528
        },
        {
          "duration": 0.0600000000000005,
          "durationTicks": 60,
          "midi": 46,
          "name": "A#2",
          "ticks": 11280,
          "time": 11.28,
          "velocity": 0.7874015748031497
        },
        {
          "duration": 0.0600000000000005,
          "durationTicks": 60,
          "midi": 70,
          "name": "A#4",
          "ticks": 11280,
          "time": 11.28,
          "velocity": 0.7874015748031497
        },
        {
          "duration": 0.0600000000000005,
          "durationTicks": 60,
          "midi": 60,
          "name": "C4",
          "ticks": 11280,
          "time": 11.28,
          "velocity": 0.7874015748031497
        },
        {
          "duration": 0.0600000000000005,
          "durationTicks": 60,
          "midi": 51,
          "name": "D#3",
          "ticks": 11280,
          "time": 11.28,
          "velocity": 0.7874015748031497
        },
        {
          "duration": 0.0600000000000005,
          "durationTicks": 60,
          "midi": 48,
          "name": "C3",
          "ticks": 11280,
          "time": 11.28,
          "velocity": 0.7874015748031497
        },
        {
          "duration": 0.0600000000000005,
          "durationTicks": 60,
          "midi": 42,
          "name": "F#2",
          "ticks": 11280,
          "time": 11.28,
          "velocity": 0.4881889763779528
        },
        {
          "duration": 0.0600000000000005,
          "durationTicks": 60,
          "midi": 48,
          "name": "C3",
          "ticks": 11520,
          "time": 11.52,
          "velocity": 0.7874015748031497
        },
        {
          "duration": 0.0600000000000005,
          "durationTicks": 60,
          "midi": 59,
          "name": "B3",
          "ticks": 11520,
          "time": 11.52,
          "velocity": 0.7874015748031497
        },
        {
          "duration": 0.0600000000000005,
          "durationTicks": 60,
          "midi": 33,
          "name": "A1",
          "ticks": 11520,
          "time": 11.52,
          "velocity": 0.7874015748031497
        },
        {
          "duration": 0.0600000000000005,
          "durationTicks": 60,
          "midi": 46,
          "name": "A#2",
          "ticks": 11760,
          "time": 11.76,
          "velocity": 0.3543307086614173
        },
        {
          "duration": 0.0600000000000005,
          "durationTicks": 60,
          "midi": 69,
          "name": "A4",
          "ticks": 11760,
          "time": 11.76,
          "velocity": 0.7874015748031497
        },
        {
          "duration": 0.0600000000000005,
          "durationTicks": 60,
          "midi": 47,
          "name": "B2",
          "ticks": 11880,
          "time": 11.879999999999999,
          "velocity": 0.7874015748031497
        },
        {
          "duration": 0.0600000000000005,
          "durationTicks": 60,
          "midi": 33,
          "name": "A1",
          "ticks": 11880,
          "time": 11.879999999999999,
          "velocity": 0.7874015748031497
        },
        {
          "duration": 0.05999999999999872,
          "durationTicks": 60,
          "midi": 59,
          "name": "B3",
          "ticks": 12000,
          "time": 12,
          "velocity": 0.7874015748031497
        },
        {
          "duration": 0.05999999999999872,
          "durationTicks": 60,
          "midi": 16,
          "name": "E0",
          "ticks": 12000,
          "time": 12,
          "velocity": 0.7874015748031497
        },
        {
          "duration": 0.05999999999999872,
          "durationTicks": 60,
          "midi": 19,
          "name": "G0",
          "ticks": 12000,
          "time": 12,
          "velocity": 0.7874015748031497
        },
        {
          "duration": 0.05999999999999872,
          "durationTicks": 60,
          "midi": 30,
          "name": "F#1",
          "ticks": 12000,
          "time": 12,
          "velocity": 0.7874015748031497
        },
        {
          "duration": 0.05999999999999872,
          "durationTicks": 60,
          "midi": 46,
          "name": "A#2",
          "ticks": 12240,
          "time": 12.24,
          "velocity": 0.3543307086614173
        },
        {
          "duration": 0.05999999999999872,
          "durationTicks": 60,
          "midi": 33,
          "name": "A1",
          "ticks": 12240,
          "time": 12.24,
          "velocity": 0.7874015748031497
        },
        {
          "duration": 0.05999999999999872,
          "durationTicks": 60,
          "midi": 45,
          "name": "A2",
          "ticks": 12240,
          "time": 12.24,
          "velocity": 0.7874015748031497
        },
        {
          "duration": 0.0600000000000005,
          "durationTicks": 60,
          "midi": 33,
          "name": "A1",
          "ticks": 12360,
          "time": 12.36,
          "velocity": 0.7874015748031497
        },
        {
          "duration": 0.05999999999999872,
          "durationTicks": 60,
          "midi": 59,
          "name": "B3",
          "ticks": 12480,
          "time": 12.48,
          "velocity": 0.7874015748031497
        },
        {
          "duration": 0.05999999999999872,
          "durationTicks": 60,
          "midi": 33,
          "name": "A1",
          "ticks": 12480,
          "time": 12.48,
          "velocity": 0.7874015748031497
        },
        {
          "duration": 0.05999999999999872,
          "durationTicks": 60,
          "midi": 43,
          "name": "G2",
          "ticks": 12480,
          "time": 12.48,
          "velocity": 0.7874015748031497
        },
        {
          "duration": 0.0600000000000005,
          "durationTicks": 60,
          "midi": 47,
          "name": "B2",
          "ticks": 12720,
          "time": 12.719999999999999,
          "velocity": 0.7874015748031497
        },
        {
          "duration": 0.0600000000000005,
          "durationTicks": 60,
          "midi": 46,
          "name": "A#2",
          "ticks": 12720,
          "time": 12.719999999999999,
          "velocity": 0.3543307086614173
        },
        {
          "duration": 0.0600000000000005,
          "durationTicks": 60,
          "midi": 33,
          "name": "A1",
          "ticks": 12720,
          "time": 12.719999999999999,
          "velocity": 0.7874015748031497
        },
        {
          "duration": 0.0600000000000005,
          "durationTicks": 60,
          "midi": 59,
          "name": "B3",
          "ticks": 12960,
          "time": 12.959999999999999,
          "velocity": 0.7874015748031497
        },
        {
          "duration": 0.0600000000000005,
          "durationTicks": 60,
          "midi": 16,
          "name": "E0",
          "ticks": 12960,
          "time": 12.959999999999999,
          "velocity": 0.7874015748031497
        },
        {
          "duration": 0.0600000000000005,
          "durationTicks": 60,
          "midi": 19,
          "name": "G0",
          "ticks": 12960,
          "time": 12.959999999999999,
          "velocity": 0.7874015748031497
        },
        {
          "duration": 0.0600000000000005,
          "durationTicks": 60,
          "midi": 30,
          "name": "F#1",
          "ticks": 12960,
          "time": 12.959999999999999,
          "velocity": 0.7874015748031497
        },
        {
          "duration": 0.0600000000000005,
          "durationTicks": 60,
          "midi": 33,
          "name": "A1",
          "ticks": 12960,
          "time": 12.959999999999999,
          "velocity": 0.7874015748031497
        },
        {
          "duration": 0.0600000000000005,
          "durationTicks": 60,
          "midi": 70,
          "name": "A#4",
          "ticks": 12960,
          "time": 12.959999999999999,
          "velocity": 0.7874015748031497
        },
        {
          "duration": 0.0600000000000005,
          "durationTicks": 60,
          "midi": 47,
          "name": "B2",
          "ticks": 13200,
          "time": 13.2,
          "velocity": 0.7874015748031497
        },
        {
          "duration": 0.0600000000000005,
          "durationTicks": 60,
          "midi": 46,
          "name": "A#2",
          "ticks": 13200,
          "time": 13.2,
          "velocity": 0.3543307086614173
        },
        {
          "duration": 0.0600000000000005,
          "durationTicks": 60,
          "midi": 52,
          "name": "E3",
          "ticks": 13200,
          "time": 13.2,
          "velocity": 0.3543307086614173
        },
        {
          "duration": 0.0600000000000005,
          "durationTicks": 60,
          "midi": 33,
          "name": "A1",
          "ticks": 13200,
          "time": 13.2,
          "velocity": 0.7874015748031497
        },
        {
          "duration": 0.0600000000000005,
          "durationTicks": 60,
          "midi": 69,
          "name": "A4",
          "ticks": 13200,
          "time": 13.2,
          "velocity": 0.7874015748031497
        },
        {
          "duration": 0.0600000000000005,
          "durationTicks": 60,
          "midi": 48,
          "name": "C3",
          "ticks": 13440,
          "time": 13.44,
          "velocity": 0.7874015748031497
        },
        {
          "duration": 0.0600000000000005,
          "durationTicks": 60,
          "midi": 59,
          "name": "B3",
          "ticks": 13440,
          "time": 13.44,
          "velocity": 0.7874015748031497
        },
        {
          "duration": 0.0600000000000005,
          "durationTicks": 60,
          "midi": 33,
          "name": "A1",
          "ticks": 13440,
          "time": 13.44,
          "velocity": 0.7874015748031497
        },
        {
          "duration": 0.0600000000000005,
          "durationTicks": 60,
          "midi": 46,
          "name": "A#2",
          "ticks": 13680,
          "time": 13.68,
          "velocity": 0.3543307086614173
        },
        {
          "duration": 0.0600000000000005,
          "durationTicks": 60,
          "midi": 69,
          "name": "A4",
          "ticks": 13680,
          "time": 13.68,
          "velocity": 0.7874015748031497
        },
        {
          "duration": 0.0600000000000005,
          "durationTicks": 60,
          "midi": 47,
          "name": "B2",
          "ticks": 13800,
          "time": 13.799999999999999,
          "velocity": 0.7874015748031497
        },
        {
          "duration": 0.0600000000000005,
          "durationTicks": 60,
          "midi": 33,
          "name": "A1",
          "ticks": 13800,
          "time": 13.799999999999999,
          "velocity": 0.7874015748031497
        },
        {
          "duration": 0.05999999999999872,
          "durationTicks": 60,
          "midi": 59,
          "name": "B3",
          "ticks": 13920,
          "time": 13.92,
          "velocity": 0.7874015748031497
        },
        {
          "duration": 0.05999999999999872,
          "durationTicks": 60,
          "midi": 16,
          "name": "E0",
          "ticks": 13920,
          "time": 13.92,
          "velocity": 0.7874015748031497
        },
        {
          "duration": 0.05999999999999872,
          "durationTicks": 60,
          "midi": 19,
          "name": "G0",
          "ticks": 13920,
          "time": 13.92,
          "velocity": 0.7874015748031497
        },
        {
          "duration": 0.05999999999999872,
          "durationTicks": 60,
          "midi": 30,
          "name": "F#1",
          "ticks": 13920,
          "time": 13.92,
          "velocity": 0.7874015748031497
        },
        {
          "duration": 0.05999999999999872,
          "durationTicks": 60,
          "midi": 45,
          "name": "A2",
          "ticks": 14160,
          "time": 14.16,
          "velocity": 0.7874015748031497
        },
        {
          "duration": 0.05999999999999872,
          "durationTicks": 60,
          "midi": 46,
          "name": "A#2",
          "ticks": 14160,
          "time": 14.16,
          "velocity": 0.3543307086614173
        },
        {
          "duration": 0.05999999999999872,
          "durationTicks": 60,
          "midi": 33,
          "name": "A1",
          "ticks": 14160,
          "time": 14.16,
          "velocity": 0.7874015748031497
        },
        {
          "duration": 0.0600000000000005,
          "durationTicks": 60,
          "midi": 33,
          "name": "A1",
          "ticks": 14280,
          "time": 14.28,
          "velocity": 0.7874015748031497
        },
        {
          "duration": 0.0600000000000005,
          "durationTicks": 60,
          "midi": 43,
          "name": "G2",
          "ticks": 14400,
          "time": 14.399999999999999,
          "velocity": 0.7874015748031497
        },
        {
          "duration": 0.0600000000000005,
          "durationTicks": 60,
          "midi": 59,
          "name": "B3",
          "ticks": 14400,
          "time": 14.399999999999999,
          "velocity": 0.7874015748031497
        },
        {
          "duration": 0.0600000000000005,
          "durationTicks": 60,
          "midi": 33,
          "name": "A1",
          "ticks": 14400,
          "time": 14.399999999999999,
          "velocity": 0.7874015748031497
        },
        {
          "duration": 0.0600000000000005,
          "durationTicks": 60,
          "midi": 47,
          "name": "B2",
          "ticks": 14640,
          "time": 14.639999999999999,
          "velocity": 0.7874015748031497
        },
        {
          "duration": 0.0600000000000005,
          "durationTicks": 60,
          "midi": 46,
          "name": "A#2",
          "ticks": 14640,
          "time": 14.639999999999999,
          "velocity": 0.3543307086614173
        },
        {
          "duration": 0.0600000000000005,
          "durationTicks": 60,
          "midi": 33,
          "name": "A1",
          "ticks": 14640,
          "time": 14.639999999999999,
          "velocity": 0.7874015748031497
        },
        {
          "duration": 0.0600000000000005,
          "durationTicks": 60,
          "midi": 59,
          "name": "B3",
          "ticks": 14880,
          "time": 14.879999999999999,
          "velocity": 0.7874015748031497
        },
        {
          "duration": 0.0600000000000005,
          "durationTicks": 60,
          "midi": 16,
          "name": "E0",
          "ticks": 14880,
          "time": 14.879999999999999,
          "velocity": 0.7874015748031497
        },
        {
          "duration": 0.0600000000000005,
          "durationTicks": 60,
          "midi": 19,
          "name": "G0",
          "ticks": 14880,
          "time": 14.879999999999999,
          "velocity": 0.7874015748031497
        },
        {
          "duration": 0.0600000000000005,
          "durationTicks": 60,
          "midi": 30,
          "name": "F#1",
          "ticks": 14880,
          "time": 14.879999999999999,
          "velocity": 0.7874015748031497
        },
        {
          "duration": 0.0600000000000005,
          "durationTicks": 60,
          "midi": 33,
          "name": "A1",
          "ticks": 14880,
          "time": 14.879999999999999,
          "velocity": 0.7874015748031497
        },
        {
          "duration": 0.0600000000000005,
          "durationTicks": 60,
          "midi": 70,
          "name": "A#4",
          "ticks": 14880,
          "time": 14.879999999999999,
          "velocity": 0.7874015748031497
        },
        {
          "duration": 0.0600000000000005,
          "durationTicks": 60,
          "midi": 47,
          "name": "B2",
          "ticks": 15120,
          "time": 15.12,
          "velocity": 0.7874015748031497
        },
        {
          "duration": 0.0600000000000005,
          "durationTicks": 60,
          "midi": 46,
          "name": "A#2",
          "ticks": 15120,
          "time": 15.12,
          "velocity": 0.3543307086614173
        },
        {
          "duration": 0.0600000000000005,
          "durationTicks": 60,
          "midi": 52,
          "name": "E3",
          "ticks": 15120,
          "time": 15.12,
          "velocity": 0.3543307086614173
        },
        {
          "duration": 0.0600000000000005,
          "durationTicks": 60,
          "midi": 33,
          "name": "A1",
          "ticks": 15120,
          "time": 15.12,
          "velocity": 0.7874015748031497
        },
        {
          "duration": 0.0600000000000005,
          "durationTicks": 60,
          "midi": 69,
          "name": "A4",
          "ticks": 15120,
          "time": 15.12,
          "velocity": 0.7874015748031497
        },
        {
          "duration": 0.0600000000000005,
          "durationTicks": 60,
          "midi": 48,
          "name": "C3",
          "ticks": 15360,
          "time": 15.36,
          "velocity": 0.7874015748031497
        },
        {
          "duration": 0.0600000000000005,
          "durationTicks": 60,
          "midi": 59,
          "name": "B3",
          "ticks": 15360,
          "time": 15.36,
          "velocity": 0.7874015748031497
        },
        {
          "duration": 0.0600000000000005,
          "durationTicks": 60,
          "midi": 33,
          "name": "A1",
          "ticks": 15360,
          "time": 15.36,
          "velocity": 0.7874015748031497
        },
        {
          "duration": 0.0600000000000005,
          "durationTicks": 60,
          "midi": 46,
          "name": "A#2",
          "ticks": 15600,
          "time": 15.6,
          "velocity": 0.3543307086614173
        },
        {
          "duration": 0.0600000000000005,
          "durationTicks": 60,
          "midi": 69,
          "name": "A4",
          "ticks": 15600,
          "time": 15.6,
          "velocity": 0.7874015748031497
        },
        {
          "duration": 0.0600000000000005,
          "durationTicks": 60,
          "midi": 47,
          "name": "B2",
          "ticks": 15720,
          "time": 15.719999999999999,
          "velocity": 0.7874015748031497
        },
        {
          "duration": 0.0600000000000005,
          "durationTicks": 60,
          "midi": 33,
          "name": "A1",
          "ticks": 15720,
          "time": 15.719999999999999,
          "velocity": 0.7874015748031497
        },
        {
          "duration": 0.05999999999999872,
          "durationTicks": 60,
          "midi": 59,
          "name": "B3",
          "ticks": 15840,
          "time": 15.84,
          "velocity": 0.7874015748031497
        },
        {
          "duration": 0.05999999999999872,
          "durationTicks": 60,
          "midi": 16,
          "name": "E0",
          "ticks": 15840,
          "time": 15.84,
          "velocity": 0.7874015748031497
        },
        {
          "duration": 0.05999999999999872,
          "durationTicks": 60,
          "midi": 19,
          "name": "G0",
          "ticks": 15840,
          "time": 15.84,
          "velocity": 0.7874015748031497
        },
        {
          "duration": 0.05999999999999872,
          "durationTicks": 60,
          "midi": 30,
          "name": "F#1",
          "ticks": 15840,
          "time": 15.84,
          "velocity": 0.7874015748031497
        },
        {
          "duration": 0.060000000000002274,
          "durationTicks": 60,
          "midi": 46,
          "name": "A#2",
          "ticks": 16080,
          "time": 16.08,
          "velocity": 0.3543307086614173
        },
        {
          "duration": 0.060000000000002274,
          "durationTicks": 60,
          "midi": 33,
          "name": "A1",
          "ticks": 16080,
          "time": 16.08,
          "velocity": 0.7874015748031497
        },
        {
          "duration": 0.060000000000002274,
          "durationTicks": 60,
          "midi": 45,
          "name": "A2",
          "ticks": 16080,
          "time": 16.08,
          "velocity": 0.7874015748031497
        },
        {
          "duration": 0.05999999999999872,
          "durationTicks": 60,
          "midi": 33,
          "name": "A1",
          "ticks": 16200,
          "time": 16.2,
          "velocity": 0.7874015748031497
        },
        {
          "duration": 0.05999999999999872,
          "durationTicks": 60,
          "midi": 59,
          "name": "B3",
          "ticks": 16320,
          "time": 16.32,
          "velocity": 0.7874015748031497
        },
        {
          "duration": 0.05999999999999872,
          "durationTicks": 60,
          "midi": 33,
          "name": "A1",
          "ticks": 16320,
          "time": 16.32,
          "velocity": 0.7874015748031497
        },
        {
          "duration": 0.05999999999999872,
          "durationTicks": 60,
          "midi": 43,
          "name": "G2",
          "ticks": 16320,
          "time": 16.32,
          "velocity": 0.7874015748031497
        },
        {
          "duration": 0.060000000000002274,
          "durationTicks": 60,
          "midi": 47,
          "name": "B2",
          "ticks": 16560,
          "time": 16.56,
          "velocity": 0.7874015748031497
        },
        {
          "duration": 0.060000000000002274,
          "durationTicks": 60,
          "midi": 46,
          "name": "A#2",
          "ticks": 16560,
          "time": 16.56,
          "velocity": 0.3543307086614173
        },
        {
          "duration": 0.060000000000002274,
          "durationTicks": 60,
          "midi": 33,
          "name": "A1",
          "ticks": 16560,
          "time": 16.56,
          "velocity": 0.7874015748031497
        },
        {
          "duration": 0.05999999999999872,
          "durationTicks": 60,
          "midi": 59,
          "name": "B3",
          "ticks": 16800,
          "time": 16.8,
          "velocity": 0.7874015748031497
        },
        {
          "duration": 0.05999999999999872,
          "durationTicks": 60,
          "midi": 16,
          "name": "E0",
          "ticks": 16800,
          "time": 16.8,
          "velocity": 0.7874015748031497
        },
        {
          "duration": 0.05999999999999872,
          "durationTicks": 60,
          "midi": 19,
          "name": "G0",
          "ticks": 16800,
          "time": 16.8,
          "velocity": 0.7874015748031497
        },
        {
          "duration": 0.05999999999999872,
          "durationTicks": 60,
          "midi": 30,
          "name": "F#1",
          "ticks": 16800,
          "time": 16.8,
          "velocity": 0.7874015748031497
        },
        {
          "duration": 0.05999999999999872,
          "durationTicks": 60,
          "midi": 33,
          "name": "A1",
          "ticks": 16800,
          "time": 16.8,
          "velocity": 0.7874015748031497
        },
        {
          "duration": 0.05999999999999872,
          "durationTicks": 60,
          "midi": 70,
          "name": "A#4",
          "ticks": 16800,
          "time": 16.8,
          "velocity": 0.7874015748031497
        },
        {
          "duration": 0.05999999999999872,
          "durationTicks": 60,
          "midi": 47,
          "name": "B2",
          "ticks": 17040,
          "time": 17.04,
          "velocity": 0.7874015748031497
        },
        {
          "duration": 0.05999999999999872,
          "durationTicks": 60,
          "midi": 46,
          "name": "A#2",
          "ticks": 17040,
          "time": 17.04,
          "velocity": 0.3543307086614173
        },
        {
          "duration": 0.05999999999999872,
          "durationTicks": 60,
          "midi": 52,
          "name": "E3",
          "ticks": 17040,
          "time": 17.04,
          "velocity": 0.3543307086614173
        },
        {
          "duration": 0.05999999999999872,
          "durationTicks": 60,
          "midi": 33,
          "name": "A1",
          "ticks": 17040,
          "time": 17.04,
          "velocity": 0.7874015748031497
        },
        {
          "duration": 0.05999999999999872,
          "durationTicks": 60,
          "midi": 69,
          "name": "A4",
          "ticks": 17040,
          "time": 17.04,
          "velocity": 0.7874015748031497
        },
        {
          "duration": 0.05999999999999872,
          "durationTicks": 60,
          "midi": 48,
          "name": "C3",
          "ticks": 17280,
          "time": 17.28,
          "velocity": 0.7874015748031497
        },
        {
          "duration": 0.05999999999999872,
          "durationTicks": 60,
          "midi": 59,
          "name": "B3",
          "ticks": 17280,
          "time": 17.28,
          "velocity": 0.7874015748031497
        },
        {
          "duration": 0.05999999999999872,
          "durationTicks": 60,
          "midi": 33,
          "name": "A1",
          "ticks": 17280,
          "time": 17.28,
          "velocity": 0.7874015748031497
        },
        {
          "duration": 0.05999999999999872,
          "durationTicks": 60,
          "midi": 46,
          "name": "A#2",
          "ticks": 17520,
          "time": 17.52,
          "velocity": 0.3543307086614173
        },
        {
          "duration": 0.05999999999999872,
          "durationTicks": 60,
          "midi": 69,
          "name": "A4",
          "ticks": 17520,
          "time": 17.52,
          "velocity": 0.7874015748031497
        },
        {
          "duration": 0.05999999999999872,
          "durationTicks": 60,
          "midi": 47,
          "name": "B2",
          "ticks": 17640,
          "time": 17.64,
          "velocity": 0.7874015748031497
        },
        {
          "duration": 0.05999999999999872,
          "durationTicks": 60,
          "midi": 33,
          "name": "A1",
          "ticks": 17640,
          "time": 17.64,
          "velocity": 0.7874015748031497
        },
        {
          "duration": 0.060000000000002274,
          "durationTicks": 60,
          "midi": 59,
          "name": "B3",
          "ticks": 17760,
          "time": 17.759999999999998,
          "velocity": 0.7874015748031497
        },
        {
          "duration": 0.060000000000002274,
          "durationTicks": 60,
          "midi": 16,
          "name": "E0",
          "ticks": 17760,
          "time": 17.759999999999998,
          "velocity": 0.7874015748031497
        },
        {
          "duration": 0.060000000000002274,
          "durationTicks": 60,
          "midi": 19,
          "name": "G0",
          "ticks": 17760,
          "time": 17.759999999999998,
          "velocity": 0.7874015748031497
        },
        {
          "duration": 0.060000000000002274,
          "durationTicks": 60,
          "midi": 30,
          "name": "F#1",
          "ticks": 17760,
          "time": 17.759999999999998,
          "velocity": 0.7874015748031497
        },
        {
          "duration": 0.05999999999999872,
          "durationTicks": 60,
          "midi": 45,
          "name": "A2",
          "ticks": 18000,
          "time": 18,
          "velocity": 0.7874015748031497
        },
        {
          "duration": 0.05999999999999872,
          "durationTicks": 60,
          "midi": 46,
          "name": "A#2",
          "ticks": 18000,
          "time": 18,
          "velocity": 0.3543307086614173
        },
        {
          "duration": 0.05999999999999872,
          "durationTicks": 60,
          "midi": 33,
          "name": "A1",
          "ticks": 18000,
          "time": 18,
          "velocity": 0.7874015748031497
        },
        {
          "duration": 0.05999999999999872,
          "durationTicks": 60,
          "midi": 33,
          "name": "A1",
          "ticks": 18120,
          "time": 18.12,
          "velocity": 0.7874015748031497
        },
        {
          "duration": 0.060000000000002274,
          "durationTicks": 60,
          "midi": 43,
          "name": "G2",
          "ticks": 18240,
          "time": 18.24,
          "velocity": 0.7874015748031497
        },
        {
          "duration": 0.060000000000002274,
          "durationTicks": 60,
          "midi": 59,
          "name": "B3",
          "ticks": 18240,
          "time": 18.24,
          "velocity": 0.7874015748031497
        },
        {
          "duration": 0.060000000000002274,
          "durationTicks": 60,
          "midi": 33,
          "name": "A1",
          "ticks": 18240,
          "time": 18.24,
          "velocity": 0.7874015748031497
        },
        {
          "duration": 0.05999999999999872,
          "durationTicks": 60,
          "midi": 47,
          "name": "B2",
          "ticks": 18480,
          "time": 18.48,
          "velocity": 0.7874015748031497
        },
        {
          "duration": 0.05999999999999872,
          "durationTicks": 60,
          "midi": 46,
          "name": "A#2",
          "ticks": 18480,
          "time": 18.48,
          "velocity": 0.3543307086614173
        },
        {
          "duration": 0.05999999999999872,
          "durationTicks": 60,
          "midi": 33,
          "name": "A1",
          "ticks": 18480,
          "time": 18.48,
          "velocity": 0.7874015748031497
        },
        {
          "duration": 0.05999999999999872,
          "durationTicks": 60,
          "midi": 59,
          "name": "B3",
          "ticks": 18720,
          "time": 18.72,
          "velocity": 0.7874015748031497
        },
        {
          "duration": 0.05999999999999872,
          "durationTicks": 60,
          "midi": 16,
          "name": "E0",
          "ticks": 18720,
          "time": 18.72,
          "velocity": 0.7874015748031497
        },
        {
          "duration": 0.05999999999999872,
          "durationTicks": 60,
          "midi": 19,
          "name": "G0",
          "ticks": 18720,
          "time": 18.72,
          "velocity": 0.7874015748031497
        },
        {
          "duration": 0.05999999999999872,
          "durationTicks": 60,
          "midi": 30,
          "name": "F#1",
          "ticks": 18720,
          "time": 18.72,
          "velocity": 0.7874015748031497
        },
        {
          "duration": 0.05999999999999872,
          "durationTicks": 60,
          "midi": 33,
          "name": "A1",
          "ticks": 18720,
          "time": 18.72,
          "velocity": 0.7874015748031497
        },
        {
          "duration": 0.05999999999999872,
          "durationTicks": 60,
          "midi": 70,
          "name": "A#4",
          "ticks": 18720,
          "time": 18.72,
          "velocity": 0.7874015748031497
        },
        {
          "duration": 0.05999999999999872,
          "durationTicks": 60,
          "midi": 47,
          "name": "B2",
          "ticks": 18960,
          "time": 18.96,
          "velocity": 0.7874015748031497
        },
        {
          "duration": 0.05999999999999872,
          "durationTicks": 60,
          "midi": 46,
          "name": "A#2",
          "ticks": 18960,
          "time": 18.96,
          "velocity": 0.3543307086614173
        },
        {
          "duration": 0.05999999999999872,
          "durationTicks": 60,
          "midi": 52,
          "name": "E3",
          "ticks": 18960,
          "time": 18.96,
          "velocity": 0.3543307086614173
        },
        {
          "duration": 0.05999999999999872,
          "durationTicks": 60,
          "midi": 33,
          "name": "A1",
          "ticks": 18960,
          "time": 18.96,
          "velocity": 0.7874015748031497
        },
        {
          "duration": 0.05999999999999872,
          "durationTicks": 60,
          "midi": 69,
          "name": "A4",
          "ticks": 18960,
          "time": 18.96,
          "velocity": 0.7874015748031497
        },
        {
          "duration": 0.05999999999999872,
          "durationTicks": 60,
          "midi": 48,
          "name": "C3",
          "ticks": 19200,
          "time": 19.2,
          "velocity": 0.7874015748031497
        },
        {
          "duration": 0.05999999999999872,
          "durationTicks": 60,
          "midi": 59,
          "name": "B3",
          "ticks": 19200,
          "time": 19.2,
          "velocity": 0.7874015748031497
        },
        {
          "duration": 0.05999999999999872,
          "durationTicks": 60,
          "midi": 33,
          "name": "A1",
          "ticks": 19200,
          "time": 19.2,
          "velocity": 0.7874015748031497
        },
        {
          "duration": 0.060000000000002274,
          "durationTicks": 60,
          "midi": 46,
          "name": "A#2",
          "ticks": 19440,
          "time": 19.439999999999998,
          "velocity": 0.3543307086614173
        },
        {
          "duration": 0.060000000000002274,
          "durationTicks": 60,
          "midi": 69,
          "name": "A4",
          "ticks": 19440,
          "time": 19.439999999999998,
          "velocity": 0.7874015748031497
        },
        {
          "duration": 0.060000000000002274,
          "durationTicks": 60,
          "midi": 47,
          "name": "B2",
          "ticks": 19560,
          "time": 19.56,
          "velocity": 0.7874015748031497
        },
        {
          "duration": 0.060000000000002274,
          "durationTicks": 60,
          "midi": 33,
          "name": "A1",
          "ticks": 19560,
          "time": 19.56,
          "velocity": 0.7874015748031497
        },
        {
          "duration": 0.05999999999999872,
          "durationTicks": 60,
          "midi": 59,
          "name": "B3",
          "ticks": 19680,
          "time": 19.68,
          "velocity": 0.7874015748031497
        },
        {
          "duration": 0.05999999999999872,
          "durationTicks": 60,
          "midi": 16,
          "name": "E0",
          "ticks": 19680,
          "time": 19.68,
          "velocity": 0.7874015748031497
        },
        {
          "duration": 0.05999999999999872,
          "durationTicks": 60,
          "midi": 19,
          "name": "G0",
          "ticks": 19680,
          "time": 19.68,
          "velocity": 0.7874015748031497
        },
        {
          "duration": 0.05999999999999872,
          "durationTicks": 60,
          "midi": 30,
          "name": "F#1",
          "ticks": 19680,
          "time": 19.68,
          "velocity": 0.7874015748031497
        },
        {
          "duration": 0.060000000000002274,
          "durationTicks": 60,
          "midi": 46,
          "name": "A#2",
          "ticks": 19920,
          "time": 19.919999999999998,
          "velocity": 0.3543307086614173
        },
        {
          "duration": 0.060000000000002274,
          "durationTicks": 60,
          "midi": 33,
          "name": "A1",
          "ticks": 19920,
          "time": 19.919999999999998,
          "velocity": 0.7874015748031497
        },
        {
          "duration": 0.060000000000002274,
          "durationTicks": 60,
          "midi": 45,
          "name": "A2",
          "ticks": 19920,
          "time": 19.919999999999998,
          "velocity": 0.7874015748031497
        },
        {
          "duration": 0.05999999999999872,
          "durationTicks": 60,
          "midi": 33,
          "name": "A1",
          "ticks": 20040,
          "time": 20.04,
          "velocity": 0.7874015748031497
        },
        {
          "duration": 0.05999999999999872,
          "durationTicks": 60,
          "midi": 59,
          "name": "B3",
          "ticks": 20160,
          "time": 20.16,
          "velocity": 0.7874015748031497
        },
        {
          "duration": 0.05999999999999872,
          "durationTicks": 60,
          "midi": 33,
          "name": "A1",
          "ticks": 20160,
          "time": 20.16,
          "velocity": 0.7874015748031497
        },
        {
          "duration": 0.05999999999999872,
          "durationTicks": 60,
          "midi": 43,
          "name": "G2",
          "ticks": 20160,
          "time": 20.16,
          "velocity": 0.7874015748031497
        },
        {
          "duration": 0.060000000000002274,
          "durationTicks": 60,
          "midi": 47,
          "name": "B2",
          "ticks": 20400,
          "time": 20.4,
          "velocity": 0.7874015748031497
        },
        {
          "duration": 0.060000000000002274,
          "durationTicks": 60,
          "midi": 46,
          "name": "A#2",
          "ticks": 20400,
          "time": 20.4,
          "velocity": 0.3543307086614173
        },
        {
          "duration": 0.060000000000002274,
          "durationTicks": 60,
          "midi": 33,
          "name": "A1",
          "ticks": 20400,
          "time": 20.4,
          "velocity": 0.7874015748031497
        },
        {
          "duration": 0.05999999999999872,
          "durationTicks": 60,
          "midi": 59,
          "name": "B3",
          "ticks": 20640,
          "time": 20.64,
          "velocity": 0.7874015748031497
        },
        {
          "duration": 0.05999999999999872,
          "durationTicks": 60,
          "midi": 16,
          "name": "E0",
          "ticks": 20640,
          "time": 20.64,
          "velocity": 0.7874015748031497
        },
        {
          "duration": 0.05999999999999872,
          "durationTicks": 60,
          "midi": 19,
          "name": "G0",
          "ticks": 20640,
          "time": 20.64,
          "velocity": 0.7874015748031497
        },
        {
          "duration": 0.05999999999999872,
          "durationTicks": 60,
          "midi": 30,
          "name": "F#1",
          "ticks": 20640,
          "time": 20.64,
          "velocity": 0.7874015748031497
        },
        {
          "duration": 0.05999999999999872,
          "durationTicks": 60,
          "midi": 33,
          "name": "A1",
          "ticks": 20640,
          "time": 20.64,
          "velocity": 0.7874015748031497
        },
        {
          "duration": 0.05999999999999872,
          "durationTicks": 60,
          "midi": 70,
          "name": "A#4",
          "ticks": 20640,
          "time": 20.64,
          "velocity": 0.7874015748031497
        },
        {
          "duration": 0.05999999999999872,
          "durationTicks": 60,
          "midi": 47,
          "name": "B2",
          "ticks": 20880,
          "time": 20.88,
          "velocity": 0.7874015748031497
        },
        {
          "duration": 0.05999999999999872,
          "durationTicks": 60,
          "midi": 46,
          "name": "A#2",
          "ticks": 20880,
          "time": 20.88,
          "velocity": 0.3543307086614173
        },
        {
          "duration": 0.05999999999999872,
          "durationTicks": 60,
          "midi": 52,
          "name": "E3",
          "ticks": 20880,
          "time": 20.88,
          "velocity": 0.3543307086614173
        },
        {
          "duration": 0.05999999999999872,
          "durationTicks": 60,
          "midi": 33,
          "name": "A1",
          "ticks": 20880,
          "time": 20.88,
          "velocity": 0.7874015748031497
        },
        {
          "duration": 0.05999999999999872,
          "durationTicks": 60,
          "midi": 69,
          "name": "A4",
          "ticks": 20880,
          "time": 20.88,
          "velocity": 0.7874015748031497
        },
        {
          "duration": 0.060000000000002274,
          "durationTicks": 60,
          "midi": 48,
          "name": "C3",
          "ticks": 21120,
          "time": 21.119999999999997,
          "velocity": 0.7874015748031497
        },
        {
          "duration": 0.060000000000002274,
          "durationTicks": 60,
          "midi": 59,
          "name": "B3",
          "ticks": 21120,
          "time": 21.119999999999997,
          "velocity": 0.7874015748031497
        },
        {
          "duration": 0.060000000000002274,
          "durationTicks": 60,
          "midi": 33,
          "name": "A1",
          "ticks": 21120,
          "time": 21.119999999999997,
          "velocity": 0.7874015748031497
        },
        {
          "duration": 0.05999999999999872,
          "durationTicks": 60,
          "midi": 46,
          "name": "A#2",
          "ticks": 21360,
          "time": 21.36,
          "velocity": 0.3543307086614173
        },
        {
          "duration": 0.05999999999999872,
          "durationTicks": 60,
          "midi": 69,
          "name": "A4",
          "ticks": 21360,
          "time": 21.36,
          "velocity": 0.7874015748031497
        },
        {
          "duration": 0.05999999999999872,
          "durationTicks": 60,
          "midi": 47,
          "name": "B2",
          "ticks": 21480,
          "time": 21.48,
          "velocity": 0.7874015748031497
        },
        {
          "duration": 0.05999999999999872,
          "durationTicks": 60,
          "midi": 33,
          "name": "A1",
          "ticks": 21480,
          "time": 21.48,
          "velocity": 0.7874015748031497
        },
        {
          "duration": 0.060000000000002274,
          "durationTicks": 60,
          "midi": 59,
          "name": "B3",
          "ticks": 21600,
          "time": 21.599999999999998,
          "velocity": 0.7874015748031497
        },
        {
          "duration": 0.060000000000002274,
          "durationTicks": 60,
          "midi": 16,
          "name": "E0",
          "ticks": 21600,
          "time": 21.599999999999998,
          "velocity": 0.7874015748031497
        },
        {
          "duration": 0.060000000000002274,
          "durationTicks": 60,
          "midi": 19,
          "name": "G0",
          "ticks": 21600,
          "time": 21.599999999999998,
          "velocity": 0.7874015748031497
        },
        {
          "duration": 0.060000000000002274,
          "durationTicks": 60,
          "midi": 30,
          "name": "F#1",
          "ticks": 21600,
          "time": 21.599999999999998,
          "velocity": 0.7874015748031497
        },
        {
          "duration": 0.05999999999999872,
          "durationTicks": 60,
          "midi": 45,
          "name": "A2",
          "ticks": 21840,
          "time": 21.84,
          "velocity": 0.7874015748031497
        },
        {
          "duration": 0.05999999999999872,
          "durationTicks": 60,
          "midi": 46,
          "name": "A#2",
          "ticks": 21840,
          "time": 21.84,
          "velocity": 0.3543307086614173
        },
        {
          "duration": 0.05999999999999872,
          "durationTicks": 60,
          "midi": 33,
          "name": "A1",
          "ticks": 21840,
          "time": 21.84,
          "velocity": 0.7874015748031497
        },
        {
          "duration": 0.05999999999999872,
          "durationTicks": 60,
          "midi": 33,
          "name": "A1",
          "ticks": 21960,
          "time": 21.96,
          "velocity": 0.7874015748031497
        },
        {
          "duration": 0.060000000000002274,
          "durationTicks": 60,
          "midi": 43,
          "name": "G2",
          "ticks": 22080,
          "time": 22.08,
          "velocity": 0.7874015748031497
        },
        {
          "duration": 0.060000000000002274,
          "durationTicks": 60,
          "midi": 59,
          "name": "B3",
          "ticks": 22080,
          "time": 22.08,
          "velocity": 0.7874015748031497
        },
        {
          "duration": 0.060000000000002274,
          "durationTicks": 60,
          "midi": 33,
          "name": "A1",
          "ticks": 22080,
          "time": 22.08,
          "velocity": 0.7874015748031497
        },
        {
          "duration": 0.05999999999999872,
          "durationTicks": 60,
          "midi": 47,
          "name": "B2",
          "ticks": 22320,
          "time": 22.32,
          "velocity": 0.7874015748031497
        },
        {
          "duration": 0.05999999999999872,
          "durationTicks": 60,
          "midi": 46,
          "name": "A#2",
          "ticks": 22320,
          "time": 22.32,
          "velocity": 0.3543307086614173
        },
        {
          "duration": 0.05999999999999872,
          "durationTicks": 60,
          "midi": 33,
          "name": "A1",
          "ticks": 22320,
          "time": 22.32,
          "velocity": 0.7874015748031497
        },
        {
          "duration": 0.05999999999999872,
          "durationTicks": 60,
          "midi": 59,
          "name": "B3",
          "ticks": 22560,
          "time": 22.56,
          "velocity": 0.7874015748031497
        },
        {
          "duration": 0.05999999999999872,
          "durationTicks": 60,
          "midi": 16,
          "name": "E0",
          "ticks": 22560,
          "time": 22.56,
          "velocity": 0.7874015748031497
        },
        {
          "duration": 0.05999999999999872,
          "durationTicks": 60,
          "midi": 19,
          "name": "G0",
          "ticks": 22560,
          "time": 22.56,
          "velocity": 0.7874015748031497
        },
        {
          "duration": 0.05999999999999872,
          "durationTicks": 60,
          "midi": 30,
          "name": "F#1",
          "ticks": 22560,
          "time": 22.56,
          "velocity": 0.7874015748031497
        },
        {
          "duration": 0.05999999999999872,
          "durationTicks": 60,
          "midi": 33,
          "name": "A1",
          "ticks": 22560,
          "time": 22.56,
          "velocity": 0.7874015748031497
        },
        {
          "duration": 0.05999999999999872,
          "durationTicks": 60,
          "midi": 70,
          "name": "A#4",
          "ticks": 22560,
          "time": 22.56,
          "velocity": 0.7874015748031497
        },
        {
          "duration": 0.05999999999999872,
          "durationTicks": 60,
          "midi": 47,
          "name": "B2",
          "ticks": 22800,
          "time": 22.8,
          "velocity": 0.7874015748031497
        },
        {
          "duration": 0.05999999999999872,
          "durationTicks": 60,
          "midi": 46,
          "name": "A#2",
          "ticks": 22800,
          "time": 22.8,
          "velocity": 0.3543307086614173
        },
        {
          "duration": 0.05999999999999872,
          "durationTicks": 60,
          "midi": 52,
          "name": "E3",
          "ticks": 22800,
          "time": 22.8,
          "velocity": 0.3543307086614173
        },
        {
          "duration": 0.05999999999999872,
          "durationTicks": 60,
          "midi": 33,
          "name": "A1",
          "ticks": 22800,
          "time": 22.8,
          "velocity": 0.7874015748031497
        },
        {
          "duration": 0.05999999999999872,
          "durationTicks": 60,
          "midi": 69,
          "name": "A4",
          "ticks": 22800,
          "time": 22.8,
          "velocity": 0.7874015748031497
        },
        {
          "duration": 0.05999999999999872,
          "durationTicks": 60,
          "midi": 48,
          "name": "C3",
          "ticks": 23040,
          "time": 23.04,
          "velocity": 0.7874015748031497
        },
        {
          "duration": 0.05999999999999872,
          "durationTicks": 60,
          "midi": 59,
          "name": "B3",
          "ticks": 23040,
          "time": 23.04,
          "velocity": 0.7874015748031497
        },
        {
          "duration": 0.05999999999999872,
          "durationTicks": 60,
          "midi": 33,
          "name": "A1",
          "ticks": 23040,
          "time": 23.04,
          "velocity": 0.7874015748031497
        },
        {
          "duration": 0.060000000000002274,
          "durationTicks": 60,
          "midi": 46,
          "name": "A#2",
          "ticks": 23280,
          "time": 23.279999999999998,
          "velocity": 0.3543307086614173
        },
        {
          "duration": 0.060000000000002274,
          "durationTicks": 60,
          "midi": 69,
          "name": "A4",
          "ticks": 23280,
          "time": 23.279999999999998,
          "velocity": 0.7874015748031497
        },
        {
          "duration": 0.060000000000002274,
          "durationTicks": 60,
          "midi": 47,
          "name": "B2",
          "ticks": 23400,
          "time": 23.4,
          "velocity": 0.7874015748031497
        },
        {
          "duration": 0.060000000000002274,
          "durationTicks": 60,
          "midi": 33,
          "name": "A1",
          "ticks": 23400,
          "time": 23.4,
          "velocity": 0.7874015748031497
        },
        {
          "duration": 0.05999999999999872,
          "durationTicks": 60,
          "midi": 59,
          "name": "B3",
          "ticks": 23520,
          "time": 23.52,
          "velocity": 0.7874015748031497
        },
        {
          "duration": 0.05999999999999872,
          "durationTicks": 60,
          "midi": 16,
          "name": "E0",
          "ticks": 23520,
          "time": 23.52,
          "velocity": 0.7874015748031497
        },
        {
          "duration": 0.05999999999999872,
          "durationTicks": 60,
          "midi": 19,
          "name": "G0",
          "ticks": 23520,
          "time": 23.52,
          "velocity": 0.7874015748031497
        },
        {
          "duration": 0.05999999999999872,
          "durationTicks": 60,
          "midi": 30,
          "name": "F#1",
          "ticks": 23520,
          "time": 23.52,
          "velocity": 0.7874015748031497
        },
        {
          "duration": 0.060000000000002274,
          "durationTicks": 60,
          "midi": 46,
          "name": "A#2",
          "ticks": 23760,
          "time": 23.759999999999998,
          "velocity": 0.3543307086614173
        },
        {
          "duration": 0.060000000000002274,
          "durationTicks": 60,
          "midi": 33,
          "name": "A1",
          "ticks": 23760,
          "time": 23.759999999999998,
          "velocity": 0.7874015748031497
        },
        {
          "duration": 0.060000000000002274,
          "durationTicks": 60,
          "midi": 45,
          "name": "A2",
          "ticks": 23760,
          "time": 23.759999999999998,
          "velocity": 0.7874015748031497
        },
        {
          "duration": 0.05999999999999872,
          "durationTicks": 60,
          "midi": 33,
          "name": "A1",
          "ticks": 23880,
          "time": 23.88,
          "velocity": 0.7874015748031497
        },
        {
          "duration": 0.05999999999999872,
          "durationTicks": 60,
          "midi": 59,
          "name": "B3",
          "ticks": 24000,
          "time": 24,
          "velocity": 0.7874015748031497
        },
        {
          "duration": 0.05999999999999872,
          "durationTicks": 60,
          "midi": 33,
          "name": "A1",
          "ticks": 24000,
          "time": 24,
          "velocity": 0.7874015748031497
        },
        {
          "duration": 0.05999999999999872,
          "durationTicks": 60,
          "midi": 43,
          "name": "G2",
          "ticks": 24000,
          "time": 24,
          "velocity": 0.7874015748031497
        },
        {
          "duration": 0.060000000000002274,
          "durationTicks": 60,
          "midi": 47,
          "name": "B2",
          "ticks": 24240,
          "time": 24.24,
          "velocity": 0.7874015748031497
        },
        {
          "duration": 0.060000000000002274,
          "durationTicks": 60,
          "midi": 46,
          "name": "A#2",
          "ticks": 24240,
          "time": 24.24,
          "velocity": 0.3543307086614173
        },
        {
          "duration": 0.060000000000002274,
          "durationTicks": 60,
          "midi": 33,
          "name": "A1",
          "ticks": 24240,
          "time": 24.24,
          "velocity": 0.7874015748031497
        },
        {
          "duration": 0.05999999999999872,
          "durationTicks": 60,
          "midi": 59,
          "name": "B3",
          "ticks": 24480,
          "time": 24.48,
          "velocity": 0.7874015748031497
        },
        {
          "duration": 0.05999999999999872,
          "durationTicks": 60,
          "midi": 16,
          "name": "E0",
          "ticks": 24480,
          "time": 24.48,
          "velocity": 0.7874015748031497
        },
        {
          "duration": 0.05999999999999872,
          "durationTicks": 60,
          "midi": 19,
          "name": "G0",
          "ticks": 24480,
          "time": 24.48,
          "velocity": 0.7874015748031497
        },
        {
          "duration": 0.05999999999999872,
          "durationTicks": 60,
          "midi": 30,
          "name": "F#1",
          "ticks": 24480,
          "time": 24.48,
          "velocity": 0.7874015748031497
        },
        {
          "duration": 0.05999999999999872,
          "durationTicks": 60,
          "midi": 33,
          "name": "A1",
          "ticks": 24480,
          "time": 24.48,
          "velocity": 0.7874015748031497
        },
        {
          "duration": 0.05999999999999872,
          "durationTicks": 60,
          "midi": 70,
          "name": "A#4",
          "ticks": 24480,
          "time": 24.48,
          "velocity": 0.7874015748031497
        },
        {
          "duration": 0.05999999999999872,
          "durationTicks": 60,
          "midi": 47,
          "name": "B2",
          "ticks": 24720,
          "time": 24.72,
          "velocity": 0.7874015748031497
        },
        {
          "duration": 0.05999999999999872,
          "durationTicks": 60,
          "midi": 46,
          "name": "A#2",
          "ticks": 24720,
          "time": 24.72,
          "velocity": 0.3543307086614173
        },
        {
          "duration": 0.05999999999999872,
          "durationTicks": 60,
          "midi": 52,
          "name": "E3",
          "ticks": 24720,
          "time": 24.72,
          "velocity": 0.3543307086614173
        },
        {
          "duration": 0.05999999999999872,
          "durationTicks": 60,
          "midi": 33,
          "name": "A1",
          "ticks": 24720,
          "time": 24.72,
          "velocity": 0.7874015748031497
        },
        {
          "duration": 0.05999999999999872,
          "durationTicks": 60,
          "midi": 69,
          "name": "A4",
          "ticks": 24720,
          "time": 24.72,
          "velocity": 0.7874015748031497
        },
        {
          "duration": 0.05999999999999872,
          "durationTicks": 60,
          "midi": 48,
          "name": "C3",
          "ticks": 24960,
          "time": 24.96,
          "velocity": 0.7874015748031497
        },
        {
          "duration": 0.05999999999999872,
          "durationTicks": 60,
          "midi": 59,
          "name": "B3",
          "ticks": 24960,
          "time": 24.96,
          "velocity": 0.7874015748031497
        },
        {
          "duration": 0.05999999999999872,
          "durationTicks": 60,
          "midi": 33,
          "name": "A1",
          "ticks": 24960,
          "time": 24.96,
          "velocity": 0.7874015748031497
        },
        {
          "duration": 0.05999999999999872,
          "durationTicks": 60,
          "midi": 46,
          "name": "A#2",
          "ticks": 25200,
          "time": 25.2,
          "velocity": 0.3543307086614173
        },
        {
          "duration": 0.05999999999999872,
          "durationTicks": 60,
          "midi": 69,
          "name": "A4",
          "ticks": 25200,
          "time": 25.2,
          "velocity": 0.7874015748031497
        },
        {
          "duration": 0.05999999999999872,
          "durationTicks": 60,
          "midi": 47,
          "name": "B2",
          "ticks": 25320,
          "time": 25.32,
          "velocity": 0.7874015748031497
        },
        {
          "duration": 0.05999999999999872,
          "durationTicks": 60,
          "midi": 33,
          "name": "A1",
          "ticks": 25320,
          "time": 25.32,
          "velocity": 0.7874015748031497
        },
        {
          "duration": 0.060000000000002274,
          "durationTicks": 60,
          "midi": 59,
          "name": "B3",
          "ticks": 25440,
          "time": 25.439999999999998,
          "velocity": 0.7874015748031497
        },
        {
          "duration": 0.060000000000002274,
          "durationTicks": 60,
          "midi": 16,
          "name": "E0",
          "ticks": 25440,
          "time": 25.439999999999998,
          "velocity": 0.7874015748031497
        },
        {
          "duration": 0.060000000000002274,
          "durationTicks": 60,
          "midi": 19,
          "name": "G0",
          "ticks": 25440,
          "time": 25.439999999999998,
          "velocity": 0.7874015748031497
        },
        {
          "duration": 0.060000000000002274,
          "durationTicks": 60,
          "midi": 30,
          "name": "F#1",
          "ticks": 25440,
          "time": 25.439999999999998,
          "velocity": 0.7874015748031497
        },
        {
          "duration": 0.05999999999999872,
          "durationTicks": 60,
          "midi": 45,
          "name": "A2",
          "ticks": 25680,
          "time": 25.68,
          "velocity": 0.7874015748031497
        },
        {
          "duration": 0.05999999999999872,
          "durationTicks": 60,
          "midi": 46,
          "name": "A#2",
          "ticks": 25680,
          "time": 25.68,
          "velocity": 0.3543307086614173
        },
        {
          "duration": 0.05999999999999872,
          "durationTicks": 60,
          "midi": 33,
          "name": "A1",
          "ticks": 25680,
          "time": 25.68,
          "velocity": 0.7874015748031497
        },
        {
          "duration": 0.05999999999999872,
          "durationTicks": 60,
          "midi": 33,
          "name": "A1",
          "ticks": 25800,
          "time": 25.8,
          "velocity": 0.7874015748031497
        },
        {
          "duration": 0.060000000000002274,
          "durationTicks": 60,
          "midi": 43,
          "name": "G2",
          "ticks": 25920,
          "time": 25.919999999999998,
          "velocity": 0.7874015748031497
        },
        {
          "duration": 0.060000000000002274,
          "durationTicks": 60,
          "midi": 59,
          "name": "B3",
          "ticks": 25920,
          "time": 25.919999999999998,
          "velocity": 0.7874015748031497
        },
        {
          "duration": 0.060000000000002274,
          "durationTicks": 60,
          "midi": 33,
          "name": "A1",
          "ticks": 25920,
          "time": 25.919999999999998,
          "velocity": 0.7874015748031497
        },
        {
          "duration": 0.05999999999999872,
          "durationTicks": 60,
          "midi": 47,
          "name": "B2",
          "ticks": 26160,
          "time": 26.16,
          "velocity": 0.7874015748031497
        },
        {
          "duration": 0.05999999999999872,
          "durationTicks": 60,
          "midi": 46,
          "name": "A#2",
          "ticks": 26160,
          "time": 26.16,
          "velocity": 0.3543307086614173
        },
        {
          "duration": 0.05999999999999872,
          "durationTicks": 60,
          "midi": 33,
          "name": "A1",
          "ticks": 26160,
          "time": 26.16,
          "velocity": 0.7874015748031497
        },
        {
          "duration": 0.05999999999999872,
          "durationTicks": 60,
          "midi": 59,
          "name": "B3",
          "ticks": 26400,
          "time": 26.4,
          "velocity": 0.7874015748031497
        },
        {
          "duration": 0.05999999999999872,
          "durationTicks": 60,
          "midi": 16,
          "name": "E0",
          "ticks": 26400,
          "time": 26.4,
          "velocity": 0.7874015748031497
        },
        {
          "duration": 0.05999999999999872,
          "durationTicks": 60,
          "midi": 19,
          "name": "G0",
          "ticks": 26400,
          "time": 26.4,
          "velocity": 0.7874015748031497
        },
        {
          "duration": 0.05999999999999872,
          "durationTicks": 60,
          "midi": 30,
          "name": "F#1",
          "ticks": 26400,
          "time": 26.4,
          "velocity": 0.7874015748031497
        },
        {
          "duration": 0.05999999999999872,
          "durationTicks": 60,
          "midi": 33,
          "name": "A1",
          "ticks": 26400,
          "time": 26.4,
          "velocity": 0.7874015748031497
        },
        {
          "duration": 0.05999999999999872,
          "durationTicks": 60,
          "midi": 70,
          "name": "A#4",
          "ticks": 26400,
          "time": 26.4,
          "velocity": 0.7874015748031497
        },
        {
          "duration": 0.05999999999999872,
          "durationTicks": 60,
          "midi": 47,
          "name": "B2",
          "ticks": 26640,
          "time": 26.64,
          "velocity": 0.7874015748031497
        },
        {
          "duration": 0.05999999999999872,
          "durationTicks": 60,
          "midi": 46,
          "name": "A#2",
          "ticks": 26640,
          "time": 26.64,
          "velocity": 0.3543307086614173
        },
        {
          "duration": 0.05999999999999872,
          "durationTicks": 60,
          "midi": 52,
          "name": "E3",
          "ticks": 26640,
          "time": 26.64,
          "velocity": 0.3543307086614173
        },
        {
          "duration": 0.05999999999999872,
          "durationTicks": 60,
          "midi": 33,
          "name": "A1",
          "ticks": 26640,
          "time": 26.64,
          "velocity": 0.7874015748031497
        },
        {
          "duration": 0.05999999999999872,
          "durationTicks": 60,
          "midi": 69,
          "name": "A4",
          "ticks": 26640,
          "time": 26.64,
          "velocity": 0.7874015748031497
        },
        {
          "duration": 0.05999999999999872,
          "durationTicks": 60,
          "midi": 48,
          "name": "C3",
          "ticks": 26880,
          "time": 26.88,
          "velocity": 0.7874015748031497
        },
        {
          "duration": 0.05999999999999872,
          "durationTicks": 60,
          "midi": 59,
          "name": "B3",
          "ticks": 26880,
          "time": 26.88,
          "velocity": 0.7874015748031497
        },
        {
          "duration": 0.05999999999999872,
          "durationTicks": 60,
          "midi": 33,
          "name": "A1",
          "ticks": 26880,
          "time": 26.88,
          "velocity": 0.7874015748031497
        },
        {
          "duration": 0.060000000000002274,
          "durationTicks": 60,
          "midi": 46,
          "name": "A#2",
          "ticks": 27120,
          "time": 27.119999999999997,
          "velocity": 0.3543307086614173
        },
        {
          "duration": 0.060000000000002274,
          "durationTicks": 60,
          "midi": 69,
          "name": "A4",
          "ticks": 27120,
          "time": 27.119999999999997,
          "velocity": 0.7874015748031497
        },
        {
          "duration": 0.060000000000002274,
          "durationTicks": 60,
          "midi": 47,
          "name": "B2",
          "ticks": 27240,
          "time": 27.24,
          "velocity": 0.7874015748031497
        },
        {
          "duration": 0.060000000000002274,
          "durationTicks": 60,
          "midi": 33,
          "name": "A1",
          "ticks": 27240,
          "time": 27.24,
          "velocity": 0.7874015748031497
        },
        {
          "duration": 0.05999999999999872,
          "durationTicks": 60,
          "midi": 59,
          "name": "B3",
          "ticks": 27360,
          "time": 27.36,
          "velocity": 0.7874015748031497
        },
        {
          "duration": 0.05999999999999872,
          "durationTicks": 60,
          "midi": 16,
          "name": "E0",
          "ticks": 27360,
          "time": 27.36,
          "velocity": 0.7874015748031497
        },
        {
          "duration": 0.05999999999999872,
          "durationTicks": 60,
          "midi": 19,
          "name": "G0",
          "ticks": 27360,
          "time": 27.36,
          "velocity": 0.7874015748031497
        },
        {
          "duration": 0.05999999999999872,
          "durationTicks": 60,
          "midi": 30,
          "name": "F#1",
          "ticks": 27360,
          "time": 27.36,
          "velocity": 0.7874015748031497
        },
        {
          "duration": 0.060000000000002274,
          "durationTicks": 60,
          "midi": 46,
          "name": "A#2",
          "ticks": 27600,
          "time": 27.599999999999998,
          "velocity": 0.3543307086614173
        },
        {
          "duration": 0.060000000000002274,
          "durationTicks": 60,
          "midi": 33,
          "name": "A1",
          "ticks": 27600,
          "time": 27.599999999999998,
          "velocity": 0.7874015748031497
        },
        {
          "duration": 0.060000000000002274,
          "durationTicks": 60,
          "midi": 45,
          "name": "A2",
          "ticks": 27600,
          "time": 27.599999999999998,
          "velocity": 0.7874015748031497
        },
        {
          "duration": 0.05999999999999872,
          "durationTicks": 60,
          "midi": 33,
          "name": "A1",
          "ticks": 27720,
          "time": 27.72,
          "velocity": 0.7874015748031497
        },
        {
          "duration": 0.05999999999999872,
          "durationTicks": 60,
          "midi": 59,
          "name": "B3",
          "ticks": 27840,
          "time": 27.84,
          "velocity": 0.7874015748031497
        },
        {
          "duration": 0.05999999999999872,
          "durationTicks": 60,
          "midi": 33,
          "name": "A1",
          "ticks": 27840,
          "time": 27.84,
          "velocity": 0.7874015748031497
        },
        {
          "duration": 0.05999999999999872,
          "durationTicks": 60,
          "midi": 43,
          "name": "G2",
          "ticks": 27840,
          "time": 27.84,
          "velocity": 0.7874015748031497
        },
        {
          "duration": 0.060000000000002274,
          "durationTicks": 60,
          "midi": 47,
          "name": "B2",
          "ticks": 28080,
          "time": 28.08,
          "velocity": 0.7874015748031497
        },
        {
          "duration": 0.060000000000002274,
          "durationTicks": 60,
          "midi": 46,
          "name": "A#2",
          "ticks": 28080,
          "time": 28.08,
          "velocity": 0.3543307086614173
        },
        {
          "duration": 0.060000000000002274,
          "durationTicks": 60,
          "midi": 33,
          "name": "A1",
          "ticks": 28080,
          "time": 28.08,
          "velocity": 0.7874015748031497
        },
        {
          "duration": 0.05999999999999872,
          "durationTicks": 60,
          "midi": 59,
          "name": "B3",
          "ticks": 28320,
          "time": 28.32,
          "velocity": 0.7874015748031497
        },
        {
          "duration": 0.05999999999999872,
          "durationTicks": 60,
          "midi": 16,
          "name": "E0",
          "ticks": 28320,
          "time": 28.32,
          "velocity": 0.7874015748031497
        },
        {
          "duration": 0.05999999999999872,
          "durationTicks": 60,
          "midi": 19,
          "name": "G0",
          "ticks": 28320,
          "time": 28.32,
          "velocity": 0.7874015748031497
        },
        {
          "duration": 0.05999999999999872,
          "durationTicks": 60,
          "midi": 30,
          "name": "F#1",
          "ticks": 28320,
          "time": 28.32,
          "velocity": 0.7874015748031497
        },
        {
          "duration": 0.05999999999999872,
          "durationTicks": 60,
          "midi": 33,
          "name": "A1",
          "ticks": 28320,
          "time": 28.32,
          "velocity": 0.7874015748031497
        },
        {
          "duration": 0.05999999999999872,
          "durationTicks": 60,
          "midi": 70,
          "name": "A#4",
          "ticks": 28320,
          "time": 28.32,
          "velocity": 0.7874015748031497
        },
        {
          "duration": 0.05999999999999872,
          "durationTicks": 60,
          "midi": 47,
          "name": "B2",
          "ticks": 28560,
          "time": 28.56,
          "velocity": 0.7874015748031497
        },
        {
          "duration": 0.05999999999999872,
          "durationTicks": 60,
          "midi": 46,
          "name": "A#2",
          "ticks": 28560,
          "time": 28.56,
          "velocity": 0.3543307086614173
        },
        {
          "duration": 0.05999999999999872,
          "durationTicks": 60,
          "midi": 52,
          "name": "E3",
          "ticks": 28560,
          "time": 28.56,
          "velocity": 0.3543307086614173
        },
        {
          "duration": 0.05999999999999872,
          "durationTicks": 60,
          "midi": 33,
          "name": "A1",
          "ticks": 28560,
          "time": 28.56,
          "velocity": 0.7874015748031497
        },
        {
          "duration": 0.05999999999999872,
          "durationTicks": 60,
          "midi": 69,
          "name": "A4",
          "ticks": 28560,
          "time": 28.56,
          "velocity": 0.7874015748031497
        },
        {
          "duration": 0.060000000000002274,
          "durationTicks": 60,
          "midi": 48,
          "name": "C3",
          "ticks": 28800,
          "time": 28.799999999999997,
          "velocity": 0.7874015748031497
        },
        {
          "duration": 0.060000000000002274,
          "durationTicks": 60,
          "midi": 59,
          "name": "B3",
          "ticks": 28800,
          "time": 28.799999999999997,
          "velocity": 0.7874015748031497
        },
        {
          "duration": 0.060000000000002274,
          "durationTicks": 60,
          "midi": 33,
          "name": "A1",
          "ticks": 28800,
          "time": 28.799999999999997,
          "velocity": 0.7874015748031497
        },
        {
          "duration": 0.05999999999999872,
          "durationTicks": 60,
          "midi": 46,
          "name": "A#2",
          "ticks": 29040,
          "time": 29.04,
          "velocity": 0.3543307086614173
        },
        {
          "duration": 0.05999999999999872,
          "durationTicks": 60,
          "midi": 69,
          "name": "A4",
          "ticks": 29040,
          "time": 29.04,
          "velocity": 0.7874015748031497
        },
        {
          "duration": 0.05999999999999872,
          "durationTicks": 60,
          "midi": 47,
          "name": "B2",
          "ticks": 29160,
          "time": 29.16,
          "velocity": 0.7874015748031497
        },
        {
          "duration": 0.05999999999999872,
          "durationTicks": 60,
          "midi": 33,
          "name": "A1",
          "ticks": 29160,
          "time": 29.16,
          "velocity": 0.7874015748031497
        },
        {
          "duration": 0.060000000000002274,
          "durationTicks": 60,
          "midi": 59,
          "name": "B3",
          "ticks": 29280,
          "time": 29.279999999999998,
          "velocity": 0.7874015748031497
        },
        {
          "duration": 0.060000000000002274,
          "durationTicks": 60,
          "midi": 16,
          "name": "E0",
          "ticks": 29280,
          "time": 29.279999999999998,
          "velocity": 0.7874015748031497
        },
        {
          "duration": 0.060000000000002274,
          "durationTicks": 60,
          "midi": 19,
          "name": "G0",
          "ticks": 29280,
          "time": 29.279999999999998,
          "velocity": 0.7874015748031497
        },
        {
          "duration": 0.060000000000002274,
          "durationTicks": 60,
          "midi": 30,
          "name": "F#1",
          "ticks": 29280,
          "time": 29.279999999999998,
          "velocity": 0.7874015748031497
        },
        {
          "duration": 0.05999999999999872,
          "durationTicks": 60,
          "midi": 45,
          "name": "A2",
          "ticks": 29520,
          "time": 29.52,
          "velocity": 0.7874015748031497
        },
        {
          "duration": 0.05999999999999872,
          "durationTicks": 60,
          "midi": 46,
          "name": "A#2",
          "ticks": 29520,
          "time": 29.52,
          "velocity": 0.3543307086614173
        },
        {
          "duration": 0.05999999999999872,
          "durationTicks": 60,
          "midi": 33,
          "name": "A1",
          "ticks": 29520,
          "time": 29.52,
          "velocity": 0.7874015748031497
        },
        {
          "duration": 0.05999999999999872,
          "durationTicks": 60,
          "midi": 33,
          "name": "A1",
          "ticks": 29640,
          "time": 29.64,
          "velocity": 0.7874015748031497
        },
        {
          "duration": 0.060000000000002274,
          "durationTicks": 60,
          "midi": 43,
          "name": "G2",
          "ticks": 29760,
          "time": 29.759999999999998,
          "velocity": 0.7874015748031497
        },
        {
          "duration": 0.060000000000002274,
          "durationTicks": 60,
          "midi": 59,
          "name": "B3",
          "ticks": 29760,
          "time": 29.759999999999998,
          "velocity": 0.7874015748031497
        },
        {
          "duration": 0.060000000000002274,
          "durationTicks": 60,
          "midi": 33,
          "name": "A1",
          "ticks": 29760,
          "time": 29.759999999999998,
          "velocity": 0.7874015748031497
        },
        {
          "duration": 0.05999999999999872,
          "durationTicks": 60,
          "midi": 47,
          "name": "B2",
          "ticks": 30000,
          "time": 30,
          "velocity": 0.7874015748031497
        },
        {
          "duration": 0.05999999999999872,
          "durationTicks": 60,
          "midi": 46,
          "name": "A#2",
          "ticks": 30000,
          "time": 30,
          "velocity": 0.3543307086614173
        },
        {
          "duration": 0.05999999999999872,
          "durationTicks": 60,
          "midi": 33,
          "name": "A1",
          "ticks": 30000,
          "time": 30,
          "velocity": 0.7874015748031497
        },
        {
          "duration": 0.05999999999999872,
          "durationTicks": 60,
          "midi": 59,
          "name": "B3",
          "ticks": 30240,
          "time": 30.24,
          "velocity": 0.7874015748031497
        },
        {
          "duration": 0.05999999999999872,
          "durationTicks": 60,
          "midi": 16,
          "name": "E0",
          "ticks": 30240,
          "time": 30.24,
          "velocity": 0.7874015748031497
        },
        {
          "duration": 0.05999999999999872,
          "durationTicks": 60,
          "midi": 19,
          "name": "G0",
          "ticks": 30240,
          "time": 30.24,
          "velocity": 0.7874015748031497
        },
        {
          "duration": 0.05999999999999872,
          "durationTicks": 60,
          "midi": 30,
          "name": "F#1",
          "ticks": 30240,
          "time": 30.24,
          "velocity": 0.7874015748031497
        },
        {
          "duration": 0.05999999999999872,
          "durationTicks": 60,
          "midi": 33,
          "name": "A1",
          "ticks": 30240,
          "time": 30.24,
          "velocity": 0.7874015748031497
        },
        {
          "duration": 0.05999999999999872,
          "durationTicks": 60,
          "midi": 70,
          "name": "A#4",
          "ticks": 30240,
          "time": 30.24,
          "velocity": 0.7874015748031497
        },
        {
          "duration": 0.05999999999999872,
          "durationTicks": 60,
          "midi": 47,
          "name": "B2",
          "ticks": 30480,
          "time": 30.48,
          "velocity": 0.7874015748031497
        },
        {
          "duration": 0.05999999999999872,
          "durationTicks": 60,
          "midi": 46,
          "name": "A#2",
          "ticks": 30480,
          "time": 30.48,
          "velocity": 0.3543307086614173
        },
        {
          "duration": 0.05999999999999872,
          "durationTicks": 60,
          "midi": 52,
          "name": "E3",
          "ticks": 30480,
          "time": 30.48,
          "velocity": 0.3543307086614173
        },
        {
          "duration": 0.05999999999999872,
          "durationTicks": 60,
          "midi": 33,
          "name": "A1",
          "ticks": 30480,
          "time": 30.48,
          "velocity": 0.7874015748031497
        },
        {
          "duration": 0.05999999999999872,
          "durationTicks": 60,
          "midi": 69,
          "name": "A4",
          "ticks": 30480,
          "time": 30.48,
          "velocity": 0.7874015748031497
        },
        {
          "duration": 0.05999999999999872,
          "durationTicks": 60,
          "midi": 48,
          "name": "C3",
          "ticks": 30720,
          "time": 30.72,
          "velocity": 0.7874015748031497
        },
        {
          "duration": 0.05999999999999872,
          "durationTicks": 60,
          "midi": 59,
          "name": "B3",
          "ticks": 30720,
          "time": 30.72,
          "velocity": 0.7874015748031497
        },
        {
          "duration": 0.05999999999999872,
          "durationTicks": 60,
          "midi": 33,
          "name": "A1",
          "ticks": 30720,
          "time": 30.72,
          "velocity": 0.7874015748031497
        },
        {
          "duration": 0.060000000000002274,
          "durationTicks": 60,
          "midi": 46,
          "name": "A#2",
          "ticks": 30960,
          "time": 30.959999999999997,
          "velocity": 0.3543307086614173
        },
        {
          "duration": 0.060000000000002274,
          "durationTicks": 60,
          "midi": 69,
          "name": "A4",
          "ticks": 30960,
          "time": 30.959999999999997,
          "velocity": 0.7874015748031497
        },
        {
          "duration": 0.060000000000002274,
          "durationTicks": 60,
          "midi": 47,
          "name": "B2",
          "ticks": 31080,
          "time": 31.08,
          "velocity": 0.7874015748031497
        },
        {
          "duration": 0.060000000000002274,
          "durationTicks": 60,
          "midi": 33,
          "name": "A1",
          "ticks": 31080,
          "time": 31.08,
          "velocity": 0.7874015748031497
        },
        {
          "duration": 0.05999999999999872,
          "durationTicks": 60,
          "midi": 59,
          "name": "B3",
          "ticks": 31200,
          "time": 31.2,
          "velocity": 0.7874015748031497
        },
        {
          "duration": 0.05999999999999872,
          "durationTicks": 60,
          "midi": 16,
          "name": "E0",
          "ticks": 31200,
          "time": 31.2,
          "velocity": 0.7874015748031497
        },
        {
          "duration": 0.05999999999999872,
          "durationTicks": 60,
          "midi": 19,
          "name": "G0",
          "ticks": 31200,
          "time": 31.2,
          "velocity": 0.7874015748031497
        },
        {
          "duration": 0.05999999999999872,
          "durationTicks": 60,
          "midi": 30,
          "name": "F#1",
          "ticks": 31200,
          "time": 31.2,
          "velocity": 0.7874015748031497
        },
        {
          "duration": 0.060000000000002274,
          "durationTicks": 60,
          "midi": 46,
          "name": "A#2",
          "ticks": 31440,
          "time": 31.439999999999998,
          "velocity": 0.3543307086614173
        },
        {
          "duration": 0.060000000000002274,
          "durationTicks": 60,
          "midi": 33,
          "name": "A1",
          "ticks": 31440,
          "time": 31.439999999999998,
          "velocity": 0.7874015748031497
        },
        {
          "duration": 0.060000000000002274,
          "durationTicks": 60,
          "midi": 45,
          "name": "A2",
          "ticks": 31440,
          "time": 31.439999999999998,
          "velocity": 0.7874015748031497
        },
        {
          "duration": 0.05999999999999872,
          "durationTicks": 60,
          "midi": 33,
          "name": "A1",
          "ticks": 31560,
          "time": 31.56,
          "velocity": 0.7874015748031497
        },
        {
          "duration": 0.05999999999999872,
          "durationTicks": 60,
          "midi": 59,
          "name": "B3",
          "ticks": 31680,
          "time": 31.68,
          "velocity": 0.7874015748031497
        },
        {
          "duration": 0.05999999999999872,
          "durationTicks": 60,
          "midi": 33,
          "name": "A1",
          "ticks": 31680,
          "time": 31.68,
          "velocity": 0.7874015748031497
        },
        {
          "duration": 0.05999999999999872,
          "durationTicks": 60,
          "midi": 43,
          "name": "G2",
          "ticks": 31680,
          "time": 31.68,
          "velocity": 0.7874015748031497
        },
        {
          "duration": 0.060000000000002274,
          "durationTicks": 60,
          "midi": 47,
          "name": "B2",
          "ticks": 31920,
          "time": 31.919999999999998,
          "velocity": 0.7874015748031497
        },
        {
          "duration": 0.060000000000002274,
          "durationTicks": 60,
          "midi": 46,
          "name": "A#2",
          "ticks": 31920,
          "time": 31.919999999999998,
          "velocity": 0.3543307086614173
        },
        {
          "duration": 0.060000000000002274,
          "durationTicks": 60,
          "midi": 33,
          "name": "A1",
          "ticks": 31920,
          "time": 31.919999999999998,
          "velocity": 0.7874015748031497
        },
        {
          "duration": 0.060000000000002274,
          "durationTicks": 60,
          "midi": 59,
          "name": "B3",
          "ticks": 32160,
          "time": 32.16,
          "velocity": 0.7874015748031497
        },
        {
          "duration": 0.060000000000002274,
          "durationTicks": 60,
          "midi": 16,
          "name": "E0",
          "ticks": 32160,
          "time": 32.16,
          "velocity": 0.7874015748031497
        },
        {
          "duration": 0.060000000000002274,
          "durationTicks": 60,
          "midi": 19,
          "name": "G0",
          "ticks": 32160,
          "time": 32.16,
          "velocity": 0.7874015748031497
        },
        {
          "duration": 0.060000000000002274,
          "durationTicks": 60,
          "midi": 30,
          "name": "F#1",
          "ticks": 32160,
          "time": 32.16,
          "velocity": 0.7874015748031497
        },
        {
          "duration": 0.060000000000002274,
          "durationTicks": 60,
          "midi": 33,
          "name": "A1",
          "ticks": 32160,
          "time": 32.16,
          "velocity": 0.7874015748031497
        },
        {
          "duration": 0.060000000000002274,
          "durationTicks": 60,
          "midi": 70,
          "name": "A#4",
          "ticks": 32160,
          "time": 32.16,
          "velocity": 0.7874015748031497
        },
        {
          "duration": 0.060000000000002274,
          "durationTicks": 60,
          "midi": 47,
          "name": "B2",
          "ticks": 32400,
          "time": 32.4,
          "velocity": 0.7874015748031497
        },
        {
          "duration": 0.060000000000002274,
          "durationTicks": 60,
          "midi": 46,
          "name": "A#2",
          "ticks": 32400,
          "time": 32.4,
          "velocity": 0.3543307086614173
        },
        {
          "duration": 0.060000000000002274,
          "durationTicks": 60,
          "midi": 52,
          "name": "E3",
          "ticks": 32400,
          "time": 32.4,
          "velocity": 0.3543307086614173
        },
        {
          "duration": 0.060000000000002274,
          "durationTicks": 60,
          "midi": 33,
          "name": "A1",
          "ticks": 32400,
          "time": 32.4,
          "velocity": 0.7874015748031497
        },
        {
          "duration": 0.060000000000002274,
          "durationTicks": 60,
          "midi": 69,
          "name": "A4",
          "ticks": 32400,
          "time": 32.4,
          "velocity": 0.7874015748031497
        },
        {
          "duration": 0.05999999999999517,
          "durationTicks": 60,
          "midi": 48,
          "name": "C3",
          "ticks": 32640,
          "time": 32.64,
          "velocity": 0.7874015748031497
        },
        {
          "duration": 0.05999999999999517,
          "durationTicks": 60,
          "midi": 59,
          "name": "B3",
          "ticks": 32640,
          "time": 32.64,
          "velocity": 0.7874015748031497
        },
        {
          "duration": 0.05999999999999517,
          "durationTicks": 60,
          "midi": 33,
          "name": "A1",
          "ticks": 32640,
          "time": 32.64,
          "velocity": 0.7874015748031497
        },
        {
          "duration": 0.060000000000002274,
          "durationTicks": 60,
          "midi": 46,
          "name": "A#2",
          "ticks": 32880,
          "time": 32.879999999999995,
          "velocity": 0.3543307086614173
        },
        {
          "duration": 0.060000000000002274,
          "durationTicks": 60,
          "midi": 69,
          "name": "A4",
          "ticks": 32880,
          "time": 32.879999999999995,
          "velocity": 0.7874015748031497
        },
        {
          "duration": 0.060000000000002274,
          "durationTicks": 60,
          "midi": 47,
          "name": "B2",
          "ticks": 33000,
          "time": 33,
          "velocity": 0.7874015748031497
        },
        {
          "duration": 0.060000000000002274,
          "durationTicks": 60,
          "midi": 33,
          "name": "A1",
          "ticks": 33000,
          "time": 33,
          "velocity": 0.7874015748031497
        },
        {
          "duration": 0.060000000000002274,
          "durationTicks": 60,
          "midi": 59,
          "name": "B3",
          "ticks": 33120,
          "time": 33.12,
          "velocity": 0.7874015748031497
        },
        {
          "duration": 0.060000000000002274,
          "durationTicks": 60,
          "midi": 16,
          "name": "E0",
          "ticks": 33120,
          "time": 33.12,
          "velocity": 0.7874015748031497
        },
        {
          "duration": 0.060000000000002274,
          "durationTicks": 60,
          "midi": 19,
          "name": "G0",
          "ticks": 33120,
          "time": 33.12,
          "velocity": 0.7874015748031497
        },
        {
          "duration": 0.060000000000002274,
          "durationTicks": 60,
          "midi": 30,
          "name": "F#1",
          "ticks": 33120,
          "time": 33.12,
          "velocity": 0.7874015748031497
        },
        {
          "duration": 0.060000000000002274,
          "durationTicks": 60,
          "midi": 45,
          "name": "A2",
          "ticks": 33360,
          "time": 33.36,
          "velocity": 0.7874015748031497
        },
        {
          "duration": 0.060000000000002274,
          "durationTicks": 60,
          "midi": 46,
          "name": "A#2",
          "ticks": 33360,
          "time": 33.36,
          "velocity": 0.3543307086614173
        },
        {
          "duration": 0.060000000000002274,
          "durationTicks": 60,
          "midi": 33,
          "name": "A1",
          "ticks": 33360,
          "time": 33.36,
          "velocity": 0.7874015748031497
        },
        {
          "duration": 0.060000000000002274,
          "durationTicks": 60,
          "midi": 33,
          "name": "A1",
          "ticks": 33480,
          "time": 33.48,
          "velocity": 0.7874015748031497
        },
        {
          "duration": 0.05999999999999517,
          "durationTicks": 60,
          "midi": 43,
          "name": "G2",
          "ticks": 33600,
          "time": 33.6,
          "velocity": 0.7874015748031497
        },
        {
          "duration": 0.05999999999999517,
          "durationTicks": 60,
          "midi": 59,
          "name": "B3",
          "ticks": 33600,
          "time": 33.6,
          "velocity": 0.7874015748031497
        },
        {
          "duration": 0.05999999999999517,
          "durationTicks": 60,
          "midi": 33,
          "name": "A1",
          "ticks": 33600,
          "time": 33.6,
          "velocity": 0.7874015748031497
        },
        {
          "duration": 0.060000000000002274,
          "durationTicks": 60,
          "midi": 47,
          "name": "B2",
          "ticks": 33840,
          "time": 33.839999999999996,
          "velocity": 0.7874015748031497
        },
        {
          "duration": 0.060000000000002274,
          "durationTicks": 60,
          "midi": 46,
          "name": "A#2",
          "ticks": 33840,
          "time": 33.839999999999996,
          "velocity": 0.3543307086614173
        },
        {
          "duration": 0.060000000000002274,
          "durationTicks": 60,
          "midi": 33,
          "name": "A1",
          "ticks": 33840,
          "time": 33.839999999999996,
          "velocity": 0.7874015748031497
        },
        {
          "duration": 0.060000000000002274,
          "durationTicks": 60,
          "midi": 59,
          "name": "B3",
          "ticks": 34080,
          "time": 34.08,
          "velocity": 0.7874015748031497
        },
        {
          "duration": 0.060000000000002274,
          "durationTicks": 60,
          "midi": 16,
          "name": "E0",
          "ticks": 34080,
          "time": 34.08,
          "velocity": 0.7874015748031497
        },
        {
          "duration": 0.060000000000002274,
          "durationTicks": 60,
          "midi": 19,
          "name": "G0",
          "ticks": 34080,
          "time": 34.08,
          "velocity": 0.7874015748031497
        },
        {
          "duration": 0.060000000000002274,
          "durationTicks": 60,
          "midi": 30,
          "name": "F#1",
          "ticks": 34080,
          "time": 34.08,
          "velocity": 0.7874015748031497
        },
        {
          "duration": 0.060000000000002274,
          "durationTicks": 60,
          "midi": 33,
          "name": "A1",
          "ticks": 34080,
          "time": 34.08,
          "velocity": 0.7874015748031497
        },
        {
          "duration": 0.060000000000002274,
          "durationTicks": 60,
          "midi": 70,
          "name": "A#4",
          "ticks": 34080,
          "time": 34.08,
          "velocity": 0.7874015748031497
        },
        {
          "duration": 0.05999999999999517,
          "durationTicks": 60,
          "midi": 47,
          "name": "B2",
          "ticks": 34320,
          "time": 34.32,
          "velocity": 0.7874015748031497
        },
        {
          "duration": 0.05999999999999517,
          "durationTicks": 60,
          "midi": 46,
          "name": "A#2",
          "ticks": 34320,
          "time": 34.32,
          "velocity": 0.3543307086614173
        },
        {
          "duration": 0.05999999999999517,
          "durationTicks": 60,
          "midi": 52,
          "name": "E3",
          "ticks": 34320,
          "time": 34.32,
          "velocity": 0.3543307086614173
        },
        {
          "duration": 0.05999999999999517,
          "durationTicks": 60,
          "midi": 33,
          "name": "A1",
          "ticks": 34320,
          "time": 34.32,
          "velocity": 0.7874015748031497
        },
        {
          "duration": 0.05999999999999517,
          "durationTicks": 60,
          "midi": 69,
          "name": "A4",
          "ticks": 34320,
          "time": 34.32,
          "velocity": 0.7874015748031497
        },
        {
          "duration": 0.05999999999999517,
          "durationTicks": 60,
          "midi": 48,
          "name": "C3",
          "ticks": 34560,
          "time": 34.56,
          "velocity": 0.7874015748031497
        },
        {
          "duration": 0.05999999999999517,
          "durationTicks": 60,
          "midi": 59,
          "name": "B3",
          "ticks": 34560,
          "time": 34.56,
          "velocity": 0.7874015748031497
        },
        {
          "duration": 0.05999999999999517,
          "durationTicks": 60,
          "midi": 33,
          "name": "A1",
          "ticks": 34560,
          "time": 34.56,
          "velocity": 0.7874015748031497
        },
        {
          "duration": 0.060000000000002274,
          "durationTicks": 60,
          "midi": 46,
          "name": "A#2",
          "ticks": 34800,
          "time": 34.8,
          "velocity": 0.3543307086614173
        },
        {
          "duration": 0.060000000000002274,
          "durationTicks": 60,
          "midi": 69,
          "name": "A4",
          "ticks": 34800,
          "time": 34.8,
          "velocity": 0.7874015748031497
        },
        {
          "duration": 0.05999999999999517,
          "durationTicks": 60,
          "midi": 47,
          "name": "B2",
          "ticks": 34920,
          "time": 34.92,
          "velocity": 0.7874015748031497
        },
        {
          "duration": 0.05999999999999517,
          "durationTicks": 60,
          "midi": 33,
          "name": "A1",
          "ticks": 34920,
          "time": 34.92,
          "velocity": 0.7874015748031497
        },
        {
          "duration": 0.060000000000002274,
          "durationTicks": 60,
          "midi": 59,
          "name": "B3",
          "ticks": 35040,
          "time": 35.04,
          "velocity": 0.7874015748031497
        },
        {
          "duration": 0.060000000000002274,
          "durationTicks": 60,
          "midi": 16,
          "name": "E0",
          "ticks": 35040,
          "time": 35.04,
          "velocity": 0.7874015748031497
        },
        {
          "duration": 0.060000000000002274,
          "durationTicks": 60,
          "midi": 19,
          "name": "G0",
          "ticks": 35040,
          "time": 35.04,
          "velocity": 0.7874015748031497
        },
        {
          "duration": 0.060000000000002274,
          "durationTicks": 60,
          "midi": 30,
          "name": "F#1",
          "ticks": 35040,
          "time": 35.04,
          "velocity": 0.7874015748031497
        },
        {
          "duration": 0.05999999999999517,
          "durationTicks": 60,
          "midi": 46,
          "name": "A#2",
          "ticks": 35280,
          "time": 35.28,
          "velocity": 0.3543307086614173
        },
        {
          "duration": 0.05999999999999517,
          "durationTicks": 60,
          "midi": 33,
          "name": "A1",
          "ticks": 35280,
          "time": 35.28,
          "velocity": 0.7874015748031497
        },
        {
          "duration": 0.05999999999999517,
          "durationTicks": 60,
          "midi": 45,
          "name": "A2",
          "ticks": 35280,
          "time": 35.28,
          "velocity": 0.7874015748031497
        },
        {
          "duration": 0.060000000000002274,
          "durationTicks": 60,
          "midi": 33,
          "name": "A1",
          "ticks": 35400,
          "time": 35.4,
          "velocity": 0.7874015748031497
        },
        {
          "duration": 0.060000000000002274,
          "durationTicks": 60,
          "midi": 59,
          "name": "B3",
          "ticks": 35520,
          "time": 35.519999999999996,
          "velocity": 0.7874015748031497
        },
        {
          "duration": 0.060000000000002274,
          "durationTicks": 60,
          "midi": 33,
          "name": "A1",
          "ticks": 35520,
          "time": 35.519999999999996,
          "velocity": 0.7874015748031497
        },
        {
          "duration": 0.060000000000002274,
          "durationTicks": 60,
          "midi": 43,
          "name": "G2",
          "ticks": 35520,
          "time": 35.519999999999996,
          "velocity": 0.7874015748031497
        },
        {
          "duration": 0.060000000000002274,
          "durationTicks": 60,
          "midi": 47,
          "name": "B2",
          "ticks": 35760,
          "time": 35.76,
          "velocity": 0.7874015748031497
        },
        {
          "duration": 0.060000000000002274,
          "durationTicks": 60,
          "midi": 46,
          "name": "A#2",
          "ticks": 35760,
          "time": 35.76,
          "velocity": 0.3543307086614173
        },
        {
          "duration": 0.060000000000002274,
          "durationTicks": 60,
          "midi": 33,
          "name": "A1",
          "ticks": 35760,
          "time": 35.76,
          "velocity": 0.7874015748031497
        },
        {
          "duration": 0.05999999999999517,
          "durationTicks": 60,
          "midi": 59,
          "name": "B3",
          "ticks": 36000,
          "time": 36,
          "velocity": 0.7874015748031497
        },
        {
          "duration": 0.05999999999999517,
          "durationTicks": 60,
          "midi": 16,
          "name": "E0",
          "ticks": 36000,
          "time": 36,
          "velocity": 0.7874015748031497
        },
        {
          "duration": 0.05999999999999517,
          "durationTicks": 60,
          "midi": 19,
          "name": "G0",
          "ticks": 36000,
          "time": 36,
          "velocity": 0.7874015748031497
        },
        {
          "duration": 0.05999999999999517,
          "durationTicks": 60,
          "midi": 30,
          "name": "F#1",
          "ticks": 36000,
          "time": 36,
          "velocity": 0.7874015748031497
        },
        {
          "duration": 0.05999999999999517,
          "durationTicks": 60,
          "midi": 33,
          "name": "A1",
          "ticks": 36000,
          "time": 36,
          "velocity": 0.7874015748031497
        },
        {
          "duration": 0.05999999999999517,
          "durationTicks": 60,
          "midi": 70,
          "name": "A#4",
          "ticks": 36000,
          "time": 36,
          "velocity": 0.7874015748031497
        },
        {
          "duration": 0.05999999999999517,
          "durationTicks": 60,
          "midi": 47,
          "name": "B2",
          "ticks": 36240,
          "time": 36.24,
          "velocity": 0.7874015748031497
        },
        {
          "duration": 0.05999999999999517,
          "durationTicks": 60,
          "midi": 46,
          "name": "A#2",
          "ticks": 36240,
          "time": 36.24,
          "velocity": 0.3543307086614173
        },
        {
          "duration": 0.05999999999999517,
          "durationTicks": 60,
          "midi": 52,
          "name": "E3",
          "ticks": 36240,
          "time": 36.24,
          "velocity": 0.3543307086614173
        },
        {
          "duration": 0.05999999999999517,
          "durationTicks": 60,
          "midi": 33,
          "name": "A1",
          "ticks": 36240,
          "time": 36.24,
          "velocity": 0.7874015748031497
        },
        {
          "duration": 0.05999999999999517,
          "durationTicks": 60,
          "midi": 69,
          "name": "A4",
          "ticks": 36240,
          "time": 36.24,
          "velocity": 0.7874015748031497
        },
        {
          "duration": 0.060000000000002274,
          "durationTicks": 60,
          "midi": 48,
          "name": "C3",
          "ticks": 36480,
          "time": 36.48,
          "velocity": 0.7874015748031497
        },
        {
          "duration": 0.060000000000002274,
          "durationTicks": 60,
          "midi": 59,
          "name": "B3",
          "ticks": 36480,
          "time": 36.48,
          "velocity": 0.7874015748031497
        },
        {
          "duration": 0.060000000000002274,
          "durationTicks": 60,
          "midi": 33,
          "name": "A1",
          "ticks": 36480,
          "time": 36.48,
          "velocity": 0.7874015748031497
        },
        {
          "duration": 0.060000000000002274,
          "durationTicks": 60,
          "midi": 46,
          "name": "A#2",
          "ticks": 36720,
          "time": 36.72,
          "velocity": 0.3543307086614173
        },
        {
          "duration": 0.060000000000002274,
          "durationTicks": 60,
          "midi": 69,
          "name": "A4",
          "ticks": 36720,
          "time": 36.72,
          "velocity": 0.7874015748031497
        },
        {
          "duration": 0.060000000000002274,
          "durationTicks": 60,
          "midi": 47,
          "name": "B2",
          "ticks": 36840,
          "time": 36.839999999999996,
          "velocity": 0.7874015748031497
        },
        {
          "duration": 0.060000000000002274,
          "durationTicks": 60,
          "midi": 33,
          "name": "A1",
          "ticks": 36840,
          "time": 36.839999999999996,
          "velocity": 0.7874015748031497
        },
        {
          "duration": 0.05999999999999517,
          "durationTicks": 60,
          "midi": 59,
          "name": "B3",
          "ticks": 36960,
          "time": 36.96,
          "velocity": 0.7874015748031497
        },
        {
          "duration": 0.05999999999999517,
          "durationTicks": 60,
          "midi": 16,
          "name": "E0",
          "ticks": 36960,
          "time": 36.96,
          "velocity": 0.7874015748031497
        },
        {
          "duration": 0.05999999999999517,
          "durationTicks": 60,
          "midi": 19,
          "name": "G0",
          "ticks": 36960,
          "time": 36.96,
          "velocity": 0.7874015748031497
        },
        {
          "duration": 0.05999999999999517,
          "durationTicks": 60,
          "midi": 30,
          "name": "F#1",
          "ticks": 36960,
          "time": 36.96,
          "velocity": 0.7874015748031497
        },
        {
          "duration": 0.060000000000002274,
          "durationTicks": 60,
          "midi": 45,
          "name": "A2",
          "ticks": 37200,
          "time": 37.199999999999996,
          "velocity": 0.7874015748031497
        },
        {
          "duration": 0.060000000000002274,
          "durationTicks": 60,
          "midi": 46,
          "name": "A#2",
          "ticks": 37200,
          "time": 37.199999999999996,
          "velocity": 0.3543307086614173
        },
        {
          "duration": 0.060000000000002274,
          "durationTicks": 60,
          "midi": 33,
          "name": "A1",
          "ticks": 37200,
          "time": 37.199999999999996,
          "velocity": 0.7874015748031497
        },
        {
          "duration": 0.05999999999999517,
          "durationTicks": 60,
          "midi": 33,
          "name": "A1",
          "ticks": 37320,
          "time": 37.32,
          "velocity": 0.7874015748031497
        },
        {
          "duration": 0.060000000000002274,
          "durationTicks": 60,
          "midi": 43,
          "name": "G2",
          "ticks": 37440,
          "time": 37.44,
          "velocity": 0.7874015748031497
        },
        {
          "duration": 0.060000000000002274,
          "durationTicks": 60,
          "midi": 59,
          "name": "B3",
          "ticks": 37440,
          "time": 37.44,
          "velocity": 0.7874015748031497
        },
        {
          "duration": 0.060000000000002274,
          "durationTicks": 60,
          "midi": 33,
          "name": "A1",
          "ticks": 37440,
          "time": 37.44,
          "velocity": 0.7874015748031497
        },
        {
          "duration": 0.060000000000002274,
          "durationTicks": 60,
          "midi": 47,
          "name": "B2",
          "ticks": 37680,
          "time": 37.68,
          "velocity": 0.7874015748031497
        },
        {
          "duration": 0.060000000000002274,
          "durationTicks": 60,
          "midi": 46,
          "name": "A#2",
          "ticks": 37680,
          "time": 37.68,
          "velocity": 0.3543307086614173
        },
        {
          "duration": 0.060000000000002274,
          "durationTicks": 60,
          "midi": 33,
          "name": "A1",
          "ticks": 37680,
          "time": 37.68,
          "velocity": 0.7874015748031497
        },
        {
          "duration": 0.05999999999999517,
          "durationTicks": 60,
          "midi": 59,
          "name": "B3",
          "ticks": 37920,
          "time": 37.92,
          "velocity": 0.7874015748031497
        },
        {
          "duration": 0.05999999999999517,
          "durationTicks": 60,
          "midi": 16,
          "name": "E0",
          "ticks": 37920,
          "time": 37.92,
          "velocity": 0.7874015748031497
        },
        {
          "duration": 0.05999999999999517,
          "durationTicks": 60,
          "midi": 19,
          "name": "G0",
          "ticks": 37920,
          "time": 37.92,
          "velocity": 0.7874015748031497
        },
        {
          "duration": 0.05999999999999517,
          "durationTicks": 60,
          "midi": 30,
          "name": "F#1",
          "ticks": 37920,
          "time": 37.92,
          "velocity": 0.7874015748031497
        },
        {
          "duration": 0.05999999999999517,
          "durationTicks": 60,
          "midi": 33,
          "name": "A1",
          "ticks": 37920,
          "time": 37.92,
          "velocity": 0.7874015748031497
        },
        {
          "duration": 0.05999999999999517,
          "durationTicks": 60,
          "midi": 70,
          "name": "A#4",
          "ticks": 37920,
          "time": 37.92,
          "velocity": 0.7874015748031497
        },
        {
          "duration": 0.060000000000002274,
          "durationTicks": 60,
          "midi": 47,
          "name": "B2",
          "ticks": 38160,
          "time": 38.16,
          "velocity": 0.7874015748031497
        },
        {
          "duration": 0.060000000000002274,
          "durationTicks": 60,
          "midi": 46,
          "name": "A#2",
          "ticks": 38160,
          "time": 38.16,
          "velocity": 0.3543307086614173
        },
        {
          "duration": 0.060000000000002274,
          "durationTicks": 60,
          "midi": 52,
          "name": "E3",
          "ticks": 38160,
          "time": 38.16,
          "velocity": 0.3543307086614173
        },
        {
          "duration": 0.060000000000002274,
          "durationTicks": 60,
          "midi": 33,
          "name": "A1",
          "ticks": 38160,
          "time": 38.16,
          "velocity": 0.7874015748031497
        },
        {
          "duration": 0.060000000000002274,
          "durationTicks": 60,
          "midi": 69,
          "name": "A4",
          "ticks": 38160,
          "time": 38.16,
          "velocity": 0.7874015748031497
        },
        {
          "duration": 0.060000000000002274,
          "durationTicks": 60,
          "midi": 48,
          "name": "C3",
          "ticks": 38400,
          "time": 38.4,
          "velocity": 0.7874015748031497
        },
        {
          "duration": 0.060000000000002274,
          "durationTicks": 60,
          "midi": 59,
          "name": "B3",
          "ticks": 38400,
          "time": 38.4,
          "velocity": 0.7874015748031497
        },
        {
          "duration": 0.060000000000002274,
          "durationTicks": 60,
          "midi": 33,
          "name": "A1",
          "ticks": 38400,
          "time": 38.4,
          "velocity": 0.7874015748031497
        },
        {
          "duration": 0.05999999999999517,
          "durationTicks": 60,
          "midi": 46,
          "name": "A#2",
          "ticks": 38640,
          "time": 38.64,
          "velocity": 0.3543307086614173
        },
        {
          "duration": 0.05999999999999517,
          "durationTicks": 60,
          "midi": 69,
          "name": "A4",
          "ticks": 38640,
          "time": 38.64,
          "velocity": 0.7874015748031497
        },
        {
          "duration": 0.060000000000002274,
          "durationTicks": 60,
          "midi": 47,
          "name": "B2",
          "ticks": 38760,
          "time": 38.76,
          "velocity": 0.7874015748031497
        },
        {
          "duration": 0.060000000000002274,
          "durationTicks": 60,
          "midi": 33,
          "name": "A1",
          "ticks": 38760,
          "time": 38.76,
          "velocity": 0.7874015748031497
        },
        {
          "duration": 0.060000000000002274,
          "durationTicks": 60,
          "midi": 59,
          "name": "B3",
          "ticks": 38880,
          "time": 38.879999999999995,
          "velocity": 0.7874015748031497
        },
        {
          "duration": 0.060000000000002274,
          "durationTicks": 60,
          "midi": 16,
          "name": "E0",
          "ticks": 38880,
          "time": 38.879999999999995,
          "velocity": 0.7874015748031497
        },
        {
          "duration": 0.060000000000002274,
          "durationTicks": 60,
          "midi": 19,
          "name": "G0",
          "ticks": 38880,
          "time": 38.879999999999995,
          "velocity": 0.7874015748031497
        },
        {
          "duration": 0.060000000000002274,
          "durationTicks": 60,
          "midi": 30,
          "name": "F#1",
          "ticks": 38880,
          "time": 38.879999999999995,
          "velocity": 0.7874015748031497
        },
        {
          "duration": 0.060000000000002274,
          "durationTicks": 60,
          "midi": 46,
          "name": "A#2",
          "ticks": 39120,
          "time": 39.12,
          "velocity": 0.3543307086614173
        },
        {
          "duration": 0.060000000000002274,
          "durationTicks": 60,
          "midi": 33,
          "name": "A1",
          "ticks": 39120,
          "time": 39.12,
          "velocity": 0.7874015748031497
        },
        {
          "duration": 0.060000000000002274,
          "durationTicks": 60,
          "midi": 45,
          "name": "A2",
          "ticks": 39120,
          "time": 39.12,
          "velocity": 0.7874015748031497
        },
        {
          "duration": 0.05999999999999517,
          "durationTicks": 60,
          "midi": 33,
          "name": "A1",
          "ticks": 39240,
          "time": 39.24,
          "velocity": 0.7874015748031497
        },
        {
          "duration": 0.060000000000002274,
          "durationTicks": 60,
          "midi": 59,
          "name": "B3",
          "ticks": 39360,
          "time": 39.36,
          "velocity": 0.7874015748031497
        },
        {
          "duration": 0.060000000000002274,
          "durationTicks": 60,
          "midi": 33,
          "name": "A1",
          "ticks": 39360,
          "time": 39.36,
          "velocity": 0.7874015748031497
        },
        {
          "duration": 0.060000000000002274,
          "durationTicks": 60,
          "midi": 43,
          "name": "G2",
          "ticks": 39360,
          "time": 39.36,
          "velocity": 0.7874015748031497
        },
        {
          "duration": 0.05999999999999517,
          "durationTicks": 60,
          "midi": 47,
          "name": "B2",
          "ticks": 39600,
          "time": 39.6,
          "velocity": 0.7874015748031497
        },
        {
          "duration": 0.05999999999999517,
          "durationTicks": 60,
          "midi": 46,
          "name": "A#2",
          "ticks": 39600,
          "time": 39.6,
          "velocity": 0.3543307086614173
        },
        {
          "duration": 0.05999999999999517,
          "durationTicks": 60,
          "midi": 33,
          "name": "A1",
          "ticks": 39600,
          "time": 39.6,
          "velocity": 0.7874015748031497
        },
        {
          "duration": 0.060000000000002274,
          "durationTicks": 60,
          "midi": 59,
          "name": "B3",
          "ticks": 39840,
          "time": 39.839999999999996,
          "velocity": 0.7874015748031497
        },
        {
          "duration": 0.060000000000002274,
          "durationTicks": 60,
          "midi": 16,
          "name": "E0",
          "ticks": 39840,
          "time": 39.839999999999996,
          "velocity": 0.7874015748031497
        },
        {
          "duration": 0.060000000000002274,
          "durationTicks": 60,
          "midi": 19,
          "name": "G0",
          "ticks": 39840,
          "time": 39.839999999999996,
          "velocity": 0.7874015748031497
        },
        {
          "duration": 0.060000000000002274,
          "durationTicks": 60,
          "midi": 30,
          "name": "F#1",
          "ticks": 39840,
          "time": 39.839999999999996,
          "velocity": 0.7874015748031497
        },
        {
          "duration": 0.060000000000002274,
          "durationTicks": 60,
          "midi": 33,
          "name": "A1",
          "ticks": 39840,
          "time": 39.839999999999996,
          "velocity": 0.7874015748031497
        },
        {
          "duration": 0.060000000000002274,
          "durationTicks": 60,
          "midi": 70,
          "name": "A#4",
          "ticks": 39840,
          "time": 39.839999999999996,
          "velocity": 0.7874015748031497
        },
        {
          "duration": 0.060000000000002274,
          "durationTicks": 60,
          "midi": 47,
          "name": "B2",
          "ticks": 40080,
          "time": 40.08,
          "velocity": 0.7874015748031497
        },
        {
          "duration": 0.060000000000002274,
          "durationTicks": 60,
          "midi": 46,
          "name": "A#2",
          "ticks": 40080,
          "time": 40.08,
          "velocity": 0.3543307086614173
        },
        {
          "duration": 0.060000000000002274,
          "durationTicks": 60,
          "midi": 52,
          "name": "E3",
          "ticks": 40080,
          "time": 40.08,
          "velocity": 0.3543307086614173
        },
        {
          "duration": 0.060000000000002274,
          "durationTicks": 60,
          "midi": 33,
          "name": "A1",
          "ticks": 40080,
          "time": 40.08,
          "velocity": 0.7874015748031497
        },
        {
          "duration": 0.060000000000002274,
          "durationTicks": 60,
          "midi": 69,
          "name": "A4",
          "ticks": 40080,
          "time": 40.08,
          "velocity": 0.7874015748031497
        },
        {
          "duration": 0.05999999999999517,
          "durationTicks": 60,
          "midi": 48,
          "name": "C3",
          "ticks": 40320,
          "time": 40.32,
          "velocity": 0.7874015748031497
        },
        {
          "duration": 0.05999999999999517,
          "durationTicks": 60,
          "midi": 59,
          "name": "B3",
          "ticks": 40320,
          "time": 40.32,
          "velocity": 0.7874015748031497
        },
        {
          "duration": 0.05999999999999517,
          "durationTicks": 60,
          "midi": 33,
          "name": "A1",
          "ticks": 40320,
          "time": 40.32,
          "velocity": 0.7874015748031497
        },
        {
          "duration": 0.060000000000002274,
          "durationTicks": 60,
          "midi": 46,
          "name": "A#2",
          "ticks": 40560,
          "time": 40.559999999999995,
          "velocity": 0.3543307086614173
        },
        {
          "duration": 0.060000000000002274,
          "durationTicks": 60,
          "midi": 69,
          "name": "A4",
          "ticks": 40560,
          "time": 40.559999999999995,
          "velocity": 0.7874015748031497
        },
        {
          "duration": 0.060000000000002274,
          "durationTicks": 60,
          "midi": 47,
          "name": "B2",
          "ticks": 40680,
          "time": 40.68,
          "velocity": 0.7874015748031497
        },
        {
          "duration": 0.060000000000002274,
          "durationTicks": 60,
          "midi": 33,
          "name": "A1",
          "ticks": 40680,
          "time": 40.68,
          "velocity": 0.7874015748031497
        },
        {
          "duration": 0.060000000000002274,
          "durationTicks": 60,
          "midi": 59,
          "name": "B3",
          "ticks": 40800,
          "time": 40.8,
          "velocity": 0.7874015748031497
        },
        {
          "duration": 0.060000000000002274,
          "durationTicks": 60,
          "midi": 16,
          "name": "E0",
          "ticks": 40800,
          "time": 40.8,
          "velocity": 0.7874015748031497
        },
        {
          "duration": 0.060000000000002274,
          "durationTicks": 60,
          "midi": 19,
          "name": "G0",
          "ticks": 40800,
          "time": 40.8,
          "velocity": 0.7874015748031497
        },
        {
          "duration": 0.060000000000002274,
          "durationTicks": 60,
          "midi": 30,
          "name": "F#1",
          "ticks": 40800,
          "time": 40.8,
          "velocity": 0.7874015748031497
        },
        {
          "duration": 0.060000000000002274,
          "durationTicks": 60,
          "midi": 45,
          "name": "A2",
          "ticks": 41040,
          "time": 41.04,
          "velocity": 0.7874015748031497
        },
        {
          "duration": 0.060000000000002274,
          "durationTicks": 60,
          "midi": 46,
          "name": "A#2",
          "ticks": 41040,
          "time": 41.04,
          "velocity": 0.3543307086614173
        },
        {
          "duration": 0.060000000000002274,
          "durationTicks": 60,
          "midi": 33,
          "name": "A1",
          "ticks": 41040,
          "time": 41.04,
          "velocity": 0.7874015748031497
        },
        {
          "duration": 0.060000000000002274,
          "durationTicks": 60,
          "midi": 33,
          "name": "A1",
          "ticks": 41160,
          "time": 41.16,
          "velocity": 0.7874015748031497
        },
        {
          "duration": 0.05999999999999517,
          "durationTicks": 60,
          "midi": 43,
          "name": "G2",
          "ticks": 41280,
          "time": 41.28,
          "velocity": 0.7874015748031497
        },
        {
          "duration": 0.05999999999999517,
          "durationTicks": 60,
          "midi": 59,
          "name": "B3",
          "ticks": 41280,
          "time": 41.28,
          "velocity": 0.7874015748031497
        },
        {
          "duration": 0.05999999999999517,
          "durationTicks": 60,
          "midi": 33,
          "name": "A1",
          "ticks": 41280,
          "time": 41.28,
          "velocity": 0.7874015748031497
        },
        {
          "duration": 0.060000000000002274,
          "durationTicks": 60,
          "midi": 47,
          "name": "B2",
          "ticks": 41520,
          "time": 41.519999999999996,
          "velocity": 0.7874015748031497
        },
        {
          "duration": 0.060000000000002274,
          "durationTicks": 60,
          "midi": 46,
          "name": "A#2",
          "ticks": 41520,
          "time": 41.519999999999996,
          "velocity": 0.3543307086614173
        },
        {
          "duration": 0.060000000000002274,
          "durationTicks": 60,
          "midi": 33,
          "name": "A1",
          "ticks": 41520,
          "time": 41.519999999999996,
          "velocity": 0.7874015748031497
        },
        {
          "duration": 0.060000000000002274,
          "durationTicks": 60,
          "midi": 59,
          "name": "B3",
          "ticks": 41760,
          "time": 41.76,
          "velocity": 0.7874015748031497
        },
        {
          "duration": 0.060000000000002274,
          "durationTicks": 60,
          "midi": 16,
          "name": "E0",
          "ticks": 41760,
          "time": 41.76,
          "velocity": 0.7874015748031497
        },
        {
          "duration": 0.060000000000002274,
          "durationTicks": 60,
          "midi": 19,
          "name": "G0",
          "ticks": 41760,
          "time": 41.76,
          "velocity": 0.7874015748031497
        },
        {
          "duration": 0.060000000000002274,
          "durationTicks": 60,
          "midi": 30,
          "name": "F#1",
          "ticks": 41760,
          "time": 41.76,
          "velocity": 0.7874015748031497
        },
        {
          "duration": 0.060000000000002274,
          "durationTicks": 60,
          "midi": 33,
          "name": "A1",
          "ticks": 41760,
          "time": 41.76,
          "velocity": 0.7874015748031497
        },
        {
          "duration": 0.060000000000002274,
          "durationTicks": 60,
          "midi": 70,
          "name": "A#4",
          "ticks": 41760,
          "time": 41.76,
          "velocity": 0.7874015748031497
        },
        {
          "duration": 0.05999999999999517,
          "durationTicks": 60,
          "midi": 47,
          "name": "B2",
          "ticks": 42000,
          "time": 42,
          "velocity": 0.7874015748031497
        },
        {
          "duration": 0.05999999999999517,
          "durationTicks": 60,
          "midi": 46,
          "name": "A#2",
          "ticks": 42000,
          "time": 42,
          "velocity": 0.3543307086614173
        },
        {
          "duration": 0.05999999999999517,
          "durationTicks": 60,
          "midi": 52,
          "name": "E3",
          "ticks": 42000,
          "time": 42,
          "velocity": 0.3543307086614173
        },
        {
          "duration": 0.05999999999999517,
          "durationTicks": 60,
          "midi": 33,
          "name": "A1",
          "ticks": 42000,
          "time": 42,
          "velocity": 0.7874015748031497
        },
        {
          "duration": 0.05999999999999517,
          "durationTicks": 60,
          "midi": 69,
          "name": "A4",
          "ticks": 42000,
          "time": 42,
          "velocity": 0.7874015748031497
        }
      ],
      "endOfTrackTicks": 42060
    }
  ]
}