{
  "header": {
    "keySignatures": [],
    "meta": {
      "title": "What I've Done",
      "artist": "Linkin Park",
      "creator": "unknown"
    },
    "name": "1",
    "ppq": 120,
    "tempos": [],
    "timeSignatures": []
  },
  "tracks": [
    {
      "channel": 9,
      "controlChanges": {
        "0": [
          {
            "number": 0,
            "ticks": 0,
            "time": 0,
            "value": 0
          }
        ],
        "7": [
          {
            "number": 7,
            "ticks": 0,
            "time": 0,
            "value": 0.8188976377952756
          },
          {
            "number": 7,
            "ticks": 4824,
            "time": 20.1,
            "value": 0.8267716535433071
          },
          {
            "number": 7,
            "ticks": 4848,
            "time": 20.2,
            "value": 0.8188976377952756
          },
          {
            "number": 7,
            "ticks": 5784,
            "time": 24.1,
            "value": 0.8267716535433071
          },
          {
            "number": 7,
            "ticks": 5816,
            "time": 24.233333333333334,
            "value": 0.8188976377952756
          },
          {
            "number": 7,
            "ticks": 6720,
            "time": 28,
            "value": 0.8267716535433071
          },
          {
            "number": 7,
            "ticks": 6744,
            "time": 28.1,
            "value": 0.8188976377952756
          },
          {
            "number": 7,
            "ticks": 13448,
            "time": 56.03333333333333,
            "value": 0.8267716535433071
          },
          {
            "number": 7,
            "ticks": 13472,
            "time": 56.13333333333333,
            "value": 0.8188976377952756
          },
          {
            "number": 7,
            "ticks": 22112,
            "time": 92.13333333333334,
            "value": 0.8267716535433071
          },
          {
            "number": 7,
            "ticks": 22144,
            "time": 92.26666666666667,
            "value": 0.8188976377952756
          },
          {
            "number": 7,
            "ticks": 23056,
            "time": 96.06666666666666,
            "value": 0.8267716535433071
          },
          {
            "number": 7,
            "ticks": 23096,
            "time": 96.23333333333333,
            "value": 0.8188976377952756
          },
          {
            "number": 7,
            "ticks": 37504,
            "time": 156.26666666666668,
            "value": 0.8267716535433071
          },
          {
            "number": 7,
            "ticks": 37536,
            "time": 156.4,
            "value": 0.8188976377952756
          },
          {
            "number": 7,
            "ticks": 38416,
            "time": 160.06666666666666,
            "value": 0.8267716535433071
          },
          {
            "number": 7,
            "ticks": 38456,
            "time": 160.23333333333332,
            "value": 0.8188976377952756
          },
          {
            "number": 7,
            "ticks": 48496,
            "time": 202.06666666666666,
            "value": 0.8267716535433071
          },
          {
            "number": 7,
            "ticks": 48504,
            "time": 202.1,
            "value": 0.8188976377952756
          },
          {
            "number": 7,
            "ticks": 49904,
            "time": 207.93333333333334,
            "value": 0
          },
          {
            "number": 7,
            "ticks": 50408,
            "time": 210.03333333333333,
            "value": 0.8188976377952756
          }
        ],
        "10": [
          {
            "number": 10,
            "ticks": 0,
            "time": 0,
            "value": 0.5039370078740157
          }
        ],
        "91": [
          {
            "number": 91,
            "ticks": 0,
            "time": 0,
            "value": 0.31496062992125984
          }
        ],
        "93": [
          {
            "number": 93,
            "ticks": 0,
            "time": 0,
            "value": 0
          }
        ]
      },
      "pitchBends": [],
      "instrument": {
        "family": "drums",
        "number": 0,
        "name": "standard kit"
      },
      "name": "1",
      "notes": [
        {
          "duration": 0.15000000000000036,
          "durationTicks": 36,
          "midi": 44,
          "name": "G#2",
          "ticks": 2880,
          "time": 12,
          "velocity": 0.8346456692913385
        },
        {
          "duration": 0.1083333333333325,
          "durationTicks": 26,
          "midi": 54,
          "name": "F#3",
          "ticks": 2940,
          "time": 12.25,
          "velocity": 0.3779527559055118
        },
        {
          "duration": 0.15000000000000036,
          "durationTicks": 36,
          "midi": 44,
          "name": "G#2",
          "ticks": 3000,
          "time": 12.5,
          "velocity": 0.8346456692913385
        },
        {
          "duration": 0.1083333333333325,
          "durationTicks": 26,
          "midi": 54,
          "name": "F#3",
          "ticks": 3060,
          "time": 12.75,
          "velocity": 0.3779527559055118
        },
        {
          "duration": 0.15000000000000036,
          "durationTicks": 36,
          "midi": 44,
          "name": "G#2",
          "ticks": 3120,
          "time": 13,
          "velocity": 0.8346456692913385
        },
        {
          "duration": 0.1083333333333325,
          "durationTicks": 26,
          "midi": 54,
          "name": "F#3",
          "ticks": 3180,
          "time": 13.25,
          "velocity": 0.3779527559055118
        },
        {
          "duration": 0.15000000000000036,
          "durationTicks": 36,
          "midi": 44,
          "name": "G#2",
          "ticks": 3240,
          "time": 13.5,
          "velocity": 0.8346456692913385
        },
        {
          "duration": 0.1083333333333325,
          "durationTicks": 26,
          "midi": 54,
          "name": "F#3",
          "ticks": 3300,
          "time": 13.75,
          "velocity": 0.3779527559055118
        },
        {
          "duration": 0.15000000000000036,
          "durationTicks": 36,
          "midi": 44,
          "name": "G#2",
          "ticks": 3360,
          "time": 14,
          "velocity": 0.8346456692913385
        },
        {
          "duration": 0.1083333333333325,
          "durationTicks": 26,
          "midi": 54,
          "name": "F#3",
          "ticks": 3420,
          "time": 14.25,
          "velocity": 0.3779527559055118
        },
        {
          "duration": 0.15000000000000036,
          "durationTicks": 36,
          "midi": 44,
          "name": "G#2",
          "ticks": 3480,
          "time": 14.5,
          "velocity": 0.8346456692913385
        },
        {
          "duration": 0.1083333333333325,
          "durationTicks": 26,
          "midi": 54,
          "name": "F#3",
          "ticks": 3540,
          "time": 14.75,
          "velocity": 0.3779527559055118
        },
        {
          "duration": 0.15000000000000036,
          "durationTicks": 36,
          "midi": 44,
          "name": "G#2",
          "ticks": 3600,
          "time": 15,
          "velocity": 0.8346456692913385
        },
        {
          "duration": 0.1083333333333325,
          "durationTicks": 26,
          "midi": 54,
          "name": "F#3",
          "ticks": 3660,
          "time": 15.25,
          "velocity": 0.3779527559055118
        },
        {
          "duration": 0.15000000000000036,
          "durationTicks": 36,
          "midi": 44,
          "name": "G#2",
          "ticks": 3720,
          "time": 15.5,
          "velocity": 0.8346456692913385
        },
        {
          "duration": 0.1083333333333325,
          "durationTicks": 26,
          "midi": 54,
          "name": "F#3",
          "ticks": 3780,
          "time": 15.75,
          "velocity": 0.3779527559055118
        },
        {
          "duration": 0.08333333333333215,
          "durationTicks": 20,
          "midi": 44,
          "name": "G#2",
          "ticks": 3840,
          "time": 16,
          "velocity": 0.8346456692913385
        },
        {
          "duration": 0.10833333333333428,
          "durationTicks": 26,
          "midi": 54,
          "name": "F#3",
          "ticks": 3900,
          "time": 16.25,
          "velocity": 0.3779527559055118
        },
        {
          "duration": 0.08333333333333215,
          "durationTicks": 20,
          "midi": 44,
          "name": "G#2",
          "ticks": 3960,
          "time": 16.5,
          "velocity": 0.8346456692913385
        },
        {
          "duration": 0.10833333333333428,
          "durationTicks": 26,
          "midi": 54,
          "name": "F#3",
          "ticks": 4020,
          "time": 16.75,
          "velocity": 0.3779527559055118
        },
        {
          "duration": 0.08333333333333215,
          "durationTicks": 20,
          "midi": 44,
          "name": "G#2",
          "ticks": 4080,
          "time": 17,
          "velocity": 0.8346456692913385
        },
        {
          "duration": 0.10833333333333428,
          "durationTicks": 26,
          "midi": 54,
          "name": "F#3",
          "ticks": 4140,
          "time": 17.25,
          "velocity": 0.3779527559055118
        },
        {
          "duration": 0.08333333333333215,
          "durationTicks": 20,
          "midi": 44,
          "name": "G#2",
          "ticks": 4200,
          "time": 17.5,
          "velocity": 0.8346456692913385
        },
        {
          "duration": 0.10833333333333428,
          "durationTicks": 26,
          "midi": 54,
          "name": "F#3",
          "ticks": 4260,
          "time": 17.75,
          "velocity": 0.3779527559055118
        },
        {
          "duration": 0.08333333333333215,
          "durationTicks": 20,
          "midi": 44,
          "name": "G#2",
          "ticks": 4320,
          "time": 18,
          "velocity": 0.8346456692913385
        },
        {
          "duration": 0.10833333333333428,
          "durationTicks": 26,
          "midi": 54,
          "name": "F#3",
          "ticks": 4380,
          "time": 18.25,
          "velocity": 0.3779527559055118
        },
        {
          "duration": 0.08333333333333215,
          "durationTicks": 20,
          "midi": 44,
          "name": "G#2",
          "ticks": 4440,
          "time": 18.5,
          "velocity": 0.8346456692913385
        },
        {
          "duration": 0.10833333333333428,
          "durationTicks": 26,
          "midi": 54,
          "name": "F#3",
          "ticks": 4500,
          "time": 18.75,
          "velocity": 0.3779527559055118
        },
        {
          "duration": 0.08333333333333215,
          "durationTicks": 20,
          "midi": 44,
          "name": "G#2",
          "ticks": 4560,
          "time": 19,
          "velocity": 0.8346456692913385
        },
        {
          "duration": 0.10833333333333428,
          "durationTicks": 26,
          "midi": 54,
          "name": "F#3",
          "ticks": 4620,
          "time": 19.25,
          "velocity": 0.3779527559055118
        },
        {
          "duration": 0.08333333333333215,
          "durationTicks": 20,
          "midi": 44,
          "name": "G#2",
          "ticks": 4680,
          "time": 19.5,
          "velocity": 0.8346456692913385
        },
        {
          "duration": 0.10833333333333428,
          "durationTicks": 26,
          "midi": 54,
          "name": "F#3",
          "ticks": 4740,
          "time": 19.75,
          "velocity": 0.3779527559055118
        },
        {
          "duration": 0.11666666666666714,
          "durationTicks": 28,
          "midi": 36,
          "name": "C2",
          "ticks": 4800,
          "time": 20,
          "velocity": 0.8346456692913385
        },
        {
          "duration": 0.16666666666666785,
          "durationTicks": 40,
          "midi": 46,
          "name": "A#2",
          "ticks": 4800,
          "time": 20,
          "velocity": 0.7322834645669292
        },
        {
          "duration": 0.10833333333333428,
          "durationTicks": 26,
          "midi": 54,
          "name": "F#3",
          "ticks": 4860,
          "time": 20.25,
          "velocity": 0.3779527559055118
        },
        {
          "duration": 0.11666666666666714,
          "durationTicks": 28,
          "midi": 36,
          "name": "C2",
          "ticks": 4920,
          "time": 20.5,
          "velocity": 0.8346456692913385
        },
        {
          "duration": 0.10833333333333428,
          "durationTicks": 26,
          "midi": 40,
          "name": "E2",
          "ticks": 4920,
          "time": 20.5,
          "velocity": 0.3779527559055118
        },
        {
          "duration": 0.08333333333333215,
          "durationTicks": 20,
          "midi": 44,
          "name": "G#2",
          "ticks": 4920,
          "time": 20.5,
          "velocity": 0.8346456692913385
        },
        {
          "duration": 0.10833333333333428,
          "durationTicks": 26,
          "midi": 37,
          "name": "C#2",
          "ticks": 4920,
          "time": 20.5,
          "velocity": 0.3779527559055118
        },
        {
          "duration": 0.11666666666666714,
          "durationTicks": 28,
          "midi": 36,
          "name": "C2",
          "ticks": 4980,
          "time": 20.75,
          "velocity": 0.8346456692913385
        },
        {
          "duration": 0.10833333333333428,
          "durationTicks": 26,
          "midi": 54,
          "name": "F#3",
          "ticks": 4980,
          "time": 20.75,
          "velocity": 0.3779527559055118
        },
        {
          "duration": 0.11666666666666714,
          "durationTicks": 28,
          "midi": 36,
          "name": "C2",
          "ticks": 5040,
          "time": 21,
          "velocity": 0.8346456692913385
        },
        {
          "duration": 0.08333333333333215,
          "durationTicks": 20,
          "midi": 44,
          "name": "G#2",
          "ticks": 5040,
          "time": 21,
          "velocity": 0.8346456692913385
        },
        {
          "duration": 0.10833333333333428,
          "durationTicks": 26,
          "midi": 54,
          "name": "F#3",
          "ticks": 5100,
          "time": 21.25,
          "velocity": 0.3779527559055118
        },
        {
          "duration": 0.10833333333333428,
          "durationTicks": 26,
          "midi": 37,
          "name": "C#2",
          "ticks": 5100,
          "time": 21.25,
          "velocity": 0.3779527559055118
        },
        {
          "duration": 0.11666666666666714,
          "durationTicks": 28,
          "midi": 36,
          "name": "C2",
          "ticks": 5100,
          "time": 21.25,
          "velocity": 0.8346456692913385
        },
        {
          "duration": 0.10833333333333428,
          "durationTicks": 26,
          "midi": 40,
          "name": "E2",
          "ticks": 5100,
          "time": 21.25,
          "velocity": 0.3779527559055118
        },
        {
          "duration": 0.08333333333333215,
          "durationTicks": 20,
          "midi": 44,
          "name": "G#2",
          "ticks": 5160,
          "time": 21.5,
          "velocity": 0.8346456692913385
        },
        {
          "duration": 0.10833333333333428,
          "durationTicks": 26,
          "midi": 54,
          "name": "F#3",
          "ticks": 5220,
          "time": 21.75,
          "velocity": 0.3779527559055118
        },
        {
          "duration": 0.11666666666666714,
          "durationTicks": 28,
          "midi": 36,
          "name": "C2",
          "ticks": 5220,
          "time": 21.75,
          "velocity": 0.8346456692913385
        },
        {
          "duration": 0.08333333333333215,
          "durationTicks": 20,
          "midi": 44,
          "name": "G#2",
          "ticks": 5280,
          "time": 22,
          "velocity": 0.8346456692913385
        },
        {
          "duration": 0.11666666666666714,
          "durationTicks": 28,
          "midi": 36,
          "name": "C2",
          "ticks": 5280,
          "time": 22,
          "velocity": 0.8346456692913385
        },
        {
          "duration": 0.10833333333333428,
          "durationTicks": 26,
          "midi": 54,
          "name": "F#3",
          "ticks": 5340,
          "time": 22.25,
          "velocity": 0.3779527559055118
        },
        {
          "duration": 0.08333333333333215,
          "durationTicks": 20,
          "midi": 44,
          "name": "G#2",
          "ticks": 5400,
          "time": 22.5,
          "velocity": 0.8346456692913385
        },
        {
          "duration": 0.10833333333333428,
          "durationTicks": 26,
          "midi": 37,
          "name": "C#2",
          "ticks": 5400,
          "time": 22.5,
          "velocity": 0.5039370078740157
        },
        {
          "duration": 0.10833333333333428,
          "durationTicks": 26,
          "midi": 40,
          "name": "E2",
          "ticks": 5400,
          "time": 22.5,
          "velocity": 0.3779527559055118
        },
        {
          "duration": 0.11666666666666714,
          "durationTicks": 28,
          "midi": 36,
          "name": "C2",
          "ticks": 5400,
          "time": 22.5,
          "velocity": 0.8346456692913385
        },
        {
          "duration": 0.11666666666666714,
          "durationTicks": 28,
          "midi": 36,
          "name": "C2",
          "ticks": 5460,
          "time": 22.75,
          "velocity": 0.8346456692913385
        },
        {
          "duration": 0.10833333333333428,
          "durationTicks": 26,
          "midi": 54,
          "name": "F#3",
          "ticks": 5460,
          "time": 22.75,
          "velocity": 0.3779527559055118
        },
        {
          "duration": 0.11666666666666714,
          "durationTicks": 28,
          "midi": 36,
          "name": "C2",
          "ticks": 5520,
          "time": 23,
          "velocity": 0.8346456692913385
        },
        {
          "duration": 0.08333333333333215,
          "durationTicks": 20,
          "midi": 44,
          "name": "G#2",
          "ticks": 5520,
          "time": 23,
          "velocity": 0.8346456692913385
        },
        {
          "duration": 0.10833333333333428,
          "durationTicks": 26,
          "midi": 40,
          "name": "E2",
          "ticks": 5580,
          "time": 23.25,
          "velocity": 0.3779527559055118
        },
        {
          "duration": 0.11666666666666714,
          "durationTicks": 28,
          "midi": 36,
          "name": "C2",
          "ticks": 5580,
          "time": 23.25,
          "velocity": 0.8346456692913385
        },
        {
          "duration": 0.11666666666666714,
          "durationTicks": 28,
          "midi": 37,
          "name": "C#2",
          "ticks": 5580,
          "time": 23.25,
          "velocity": 0.3779527559055118
        },
        {
          "duration": 0.10833333333333428,
          "durationTicks": 26,
          "midi": 54,
          "name": "F#3",
          "ticks": 5580,
          "time": 23.25,
          "velocity": 0.3779527559055118
        },
        {
          "duration": 0.08333333333333215,
          "durationTicks": 20,
          "midi": 44,
          "name": "G#2",
          "ticks": 5640,
          "time": 23.5,
          "velocity": 0.8346456692913385
        },
        {
          "duration": 0.11666666666666714,
          "durationTicks": 28,
          "midi": 36,
          "name": "C2",
          "ticks": 5700,
          "time": 23.75,
          "velocity": 0.8346456692913385
        },
        {
          "duration": 0.10833333333333428,
          "durationTicks": 26,
          "midi": 54,
          "name": "F#3",
          "ticks": 5700,
          "time": 23.75,
          "velocity": 0.3779527559055118
        },
        {
          "duration": 0.16666666666666785,
          "durationTicks": 40,
          "midi": 46,
          "name": "A#2",
          "ticks": 5760,
          "time": 24,
          "velocity": 0.7322834645669292
        },
        {
          "duration": 0.11666666666666714,
          "durationTicks": 28,
          "midi": 36,
          "name": "C2",
          "ticks": 5760,
          "time": 24,
          "velocity": 0.8346456692913385
        },
        {
          "duration": 0.10833333333333428,
          "durationTicks": 26,
          "midi": 54,
          "name": "F#3",
          "ticks": 5820,
          "time": 24.25,
          "velocity": 0.3779527559055118
        },
        {
          "duration": 0.11666666666666714,
          "durationTicks": 28,
          "midi": 36,
          "name": "C2",
          "ticks": 5880,
          "time": 24.5,
          "velocity": 0.8346456692913385
        },
        {
          "duration": 0.11666666666666714,
          "durationTicks": 28,
          "midi": 37,
          "name": "C#2",
          "ticks": 5880,
          "time": 24.5,
          "velocity": 0.3779527559055118
        },
        {
          "duration": 0.10833333333333428,
          "durationTicks": 26,
          "midi": 40,
          "name": "E2",
          "ticks": 5880,
          "time": 24.5,
          "velocity": 0.3779527559055118
        },
        {
          "duration": 0.08333333333333215,
          "durationTicks": 20,
          "midi": 44,
          "name": "G#2",
          "ticks": 5880,
          "time": 24.5,
          "velocity": 0.8346456692913385
        },
        {
          "duration": 0.10833333333333428,
          "durationTicks": 26,
          "midi": 54,
          "name": "F#3",
          "ticks": 5940,
          "time": 24.75,
          "velocity": 0.3779527559055118
        },
        {
          "duration": 0.11666666666666714,
          "durationTicks": 28,
          "midi": 36,
          "name": "C2",
          "ticks": 5940,
          "time": 24.75,
          "velocity": 0.8346456692913385
        },
        {
          "duration": 0.11666666666666714,
          "durationTicks": 28,
          "midi": 36,
          "name": "C2",
          "ticks": 6000,
          "time": 25,
          "velocity": 0.8346456692913385
        },
        {
          "duration": 0.08333333333333215,
          "durationTicks": 20,
          "midi": 44,
          "name": "G#2",
          "ticks": 6000,
          "time": 25,
          "velocity": 0.8346456692913385
        },
        {
          "duration": 0.11666666666666714,
          "durationTicks": 28,
          "midi": 36,
          "name": "C2",
          "ticks": 6060,
          "time": 25.25,
          "velocity": 0.8346456692913385
        },
        {
          "duration": 0.10833333333333428,
          "durationTicks": 26,
          "midi": 40,
          "name": "E2",
          "ticks": 6060,
          "time": 25.25,
          "velocity": 0.3779527559055118
        },
        {
          "duration": 0.10833333333333428,
          "durationTicks": 26,
          "midi": 54,
          "name": "F#3",
          "ticks": 6060,
          "time": 25.25,
          "velocity": 0.3779527559055118
        },
        {
          "duration": 0.10833333333333428,
          "durationTicks": 26,
          "midi": 37,
          "name": "C#2",
          "ticks": 6060,
          "time": 25.25,
          "velocity": 0.3779527559055118
        },
        {
          "duration": 0.08333333333333215,
          "durationTicks": 20,
          "midi": 44,
          "name": "G#2",
          "ticks": 6120,
          "time": 25.5,
          "velocity": 0.8346456692913385
        },
        {
          "duration": 0.10833333333333428,
          "durationTicks": 26,
          "midi": 54,
          "name": "F#3",
          "ticks": 6180,
          "time": 25.75,
          "velocity": 0.3779527559055118
        },
        {
          "duration": 0.11666666666666714,
          "durationTicks": 28,
          "midi": 36,
          "name": "C2",
          "ticks": 6180,
          "time": 25.75,
          "velocity": 0.8346456692913385
        },
        {
          "duration": 0.08333333333333215,
          "durationTicks": 20,
          "midi": 44,
          "name": "G#2",
          "ticks": 6240,
          "time": 26,
          "velocity": 0.8346456692913385
        },
        {
          "duration": 0.11666666666666714,
          "durationTicks": 28,
          "midi": 36,
          "name": "C2",
          "ticks": 6240,
          "time": 26,
          "velocity": 0.8346456692913385
        },
        {
          "duration": 0.10833333333333428,
          "durationTicks": 26,
          "midi": 54,
          "name": "F#3",
          "ticks": 6300,
          "time": 26.25,
          "velocity": 0.3779527559055118
        },
        {
          "duration": 0.11666666666666714,
          "durationTicks": 28,
          "midi": 36,
          "name": "C2",
          "ticks": 6360,
          "time": 26.5,
          "velocity": 0.8346456692913385
        },
        {
          "duration": 0.10833333333333428,
          "durationTicks": 26,
          "midi": 37,
          "name": "C#2",
          "ticks": 6360,
          "time": 26.5,
          "velocity": 0.5039370078740157
        },
        {
          "duration": 0.08333333333333215,
          "durationTicks": 20,
          "midi": 44,
          "name": "G#2",
          "ticks": 6360,
          "time": 26.5,
          "velocity": 0.8346456692913385
        },
        {
          "duration": 0.10833333333333428,
          "durationTicks": 26,
          "midi": 40,
          "name": "E2",
          "ticks": 6360,
          "time": 26.5,
          "velocity": 0.5039370078740157
        },
        {
          "duration": 0.10833333333333428,
          "durationTicks": 26,
          "midi": 54,
          "name": "F#3",
          "ticks": 6420,
          "time": 26.75,
          "velocity": 0.3779527559055118
        },
        {
          "duration": 0.11666666666666714,
          "durationTicks": 28,
          "midi": 36,
          "name": "C2",
          "ticks": 6420,
          "time": 26.75,
          "velocity": 0.8346456692913385
        },
        {
          "duration": 0.11666666666666714,
          "durationTicks": 28,
          "midi": 36,
          "name": "C2",
          "ticks": 6480,
          "time": 27,
          "velocity": 0.8346456692913385
        },
        {
          "duration": 0.08333333333333215,
          "durationTicks": 20,
          "midi": 44,
          "name": "G#2",
          "ticks": 6480,
          "time": 27,
          "velocity": 0.8346456692913385
        },
        {
          "duration": 0.10833333333333428,
          "durationTicks": 26,
          "midi": 40,
          "name": "E2",
          "ticks": 6540,
          "time": 27.25,
          "velocity": 0.5039370078740157
        },
        {
          "duration": 0.11666666666666714,
          "durationTicks": 28,
          "midi": 36,
          "name": "C2",
          "ticks": 6540,
          "time": 27.25,
          "velocity": 0.8346456692913385
        },
        {
          "duration": 0.10833333333333428,
          "durationTicks": 26,
          "midi": 54,
          "name": "F#3",
          "ticks": 6540,
          "time": 27.25,
          "velocity": 0.3779527559055118
        },
        {
          "duration": 0.10833333333333428,
          "durationTicks": 26,
          "midi": 37,
          "name": "C#2",
          "ticks": 6540,
          "time": 27.25,
          "velocity": 0.5039370078740157
        },
        {
          "duration": 0.08333333333333215,
          "durationTicks": 20,
          "midi": 44,
          "name": "G#2",
          "ticks": 6600,
          "time": 27.5,
          "velocity": 0.8346456692913385
        },
        {
          "duration": 0.10833333333333428,
          "durationTicks": 26,
          "midi": 54,
          "name": "F#3",
          "ticks": 6660,
          "time": 27.75,
          "velocity": 0.3779527559055118
        },
        {
          "duration": 0.11666666666666714,
          "durationTicks": 28,
          "midi": 36,
          "name": "C2",
          "ticks": 6660,
          "time": 27.75,
          "velocity": 0.8346456692913385
        },
        {
          "duration": 0.08333333333333215,
          "durationTicks": 20,
          "midi": 59,
          "name": "B3",
          "ticks": 6720,
          "time": 28,
          "velocity": 0.8346456692913385
        },
        {
          "duration": 0.08333333333333215,
          "durationTicks": 20,
          "midi": 55,
          "name": "G3",
          "ticks": 6720,
          "time": 28,
          "velocity": 0.8346456692913385
        },
        {
          "duration": 0.08333333333333215,
          "durationTicks": 20,
          "midi": 44,
          "name": "G#2",
          "ticks": 6720,
          "time": 28,
          "velocity": 0.8346456692913385
        },
        {
          "duration": 0.11666666666666714,
          "durationTicks": 28,
          "midi": 36,
          "name": "C2",
          "ticks": 6720,
          "time": 28,
          "velocity": 0.8346456692913385
        },
        {
          "duration": 0.10833333333333428,
          "durationTicks": 26,
          "midi": 54,
          "name": "F#3",
          "ticks": 6780,
          "time": 28.25,
          "velocity": 0.5039370078740157
        },
        {
          "duration": 0.08333333333333215,
          "durationTicks": 20,
          "midi": 44,
          "name": "G#2",
          "ticks": 6780,
          "time": 28.25,
          "velocity": 0.8346456692913385
        },
        {
          "duration": 0.11666666666666714,
          "durationTicks": 28,
          "midi": 36,
          "name": "C2",
          "ticks": 6840,
          "time": 28.5,
          "velocity": 0.8346456692913385
        },
        {
          "duration": 0.08333333333333215,
          "durationTicks": 20,
          "midi": 44,
          "name": "G#2",
          "ticks": 6840,
          "time": 28.5,
          "velocity": 0.8346456692913385
        },
        {
          "duration": 0.08333333333333215,
          "durationTicks": 20,
          "midi": 59,
          "name": "B3",
          "ticks": 6840,
          "time": 28.5,
          "velocity": 0.8346456692913385
        },
        {
          "duration": 0.10833333333333428,
          "durationTicks": 26,
          "midi": 37,
          "name": "C#2",
          "ticks": 6840,
          "time": 28.5,
          "velocity": 0.5039370078740157
        },
        {
          "duration": 0.10833333333333428,
          "durationTicks": 26,
          "midi": 40,
          "name": "E2",
          "ticks": 6840,
          "time": 28.5,
          "velocity": 0.5039370078740157
        },
        {
          "duration": 0.11666666666666714,
          "durationTicks": 28,
          "midi": 36,
          "name": "C2",
          "ticks": 6900,
          "time": 28.75,
          "velocity": 0.8346456692913385
        },
        {
          "duration": 0.08333333333333215,
          "durationTicks": 20,
          "midi": 44,
          "name": "G#2",
          "ticks": 6900,
          "time": 28.75,
          "velocity": 0.8346456692913385
        },
        {
          "duration": 0.10833333333333428,
          "durationTicks": 26,
          "midi": 54,
          "name": "F#3",
          "ticks": 6900,
          "time": 28.75,
          "velocity": 0.5039370078740157
        },
        {
          "duration": 0.08333333333333215,
          "durationTicks": 20,
          "midi": 44,
          "name": "G#2",
          "ticks": 6960,
          "time": 29,
          "velocity": 0.8346456692913385
        },
        {
          "duration": 0.11666666666666714,
          "durationTicks": 28,
          "midi": 36,
          "name": "C2",
          "ticks": 6960,
          "time": 29,
          "velocity": 0.8346456692913385
        },
        {
          "duration": 0.08333333333333215,
          "durationTicks": 20,
          "midi": 59,
          "name": "B3",
          "ticks": 6960,
          "time": 29,
          "velocity": 0.8346456692913385
        },
        {
          "duration": 0.10833333333333428,
          "durationTicks": 26,
          "midi": 37,
          "name": "C#2",
          "ticks": 7020,
          "time": 29.25,
          "velocity": 0.5039370078740157
        },
        {
          "duration": 0.10833333333333428,
          "durationTicks": 26,
          "midi": 40,
          "name": "E2",
          "ticks": 7020,
          "time": 29.25,
          "velocity": 0.5039370078740157
        },
        {
          "duration": 0.10833333333333428,
          "durationTicks": 26,
          "midi": 54,
          "name": "F#3",
          "ticks": 7020,
          "time": 29.25,
          "velocity": 0.5039370078740157
        },
        {
          "duration": 0.08333333333333215,
          "durationTicks": 20,
          "midi": 44,
          "name": "G#2",
          "ticks": 7020,
          "time": 29.25,
          "velocity": 0.8346456692913385
        },
        {
          "duration": 0.11666666666666714,
          "durationTicks": 28,
          "midi": 36,
          "name": "C2",
          "ticks": 7020,
          "time": 29.25,
          "velocity": 0.8346456692913385
        },
        {
          "duration": 0.08333333333333215,
          "durationTicks": 20,
          "midi": 44,
          "name": "G#2",
          "ticks": 7080,
          "time": 29.5,
          "velocity": 0.8346456692913385
        },
        {
          "duration": 0.11666666666666714,
          "durationTicks": 28,
          "midi": 36,
          "name": "C2",
          "ticks": 7080,
          "time": 29.5,
          "velocity": 0.8346456692913385
        },
        {
          "duration": 0.08333333333333215,
          "durationTicks": 20,
          "midi": 59,
          "name": "B3",
          "ticks": 7080,
          "time": 29.5,
          "velocity": 0.8346456692913385
        },
        {
          "duration": 0.08333333333333215,
          "durationTicks": 20,
          "midi": 44,
          "name": "G#2",
          "ticks": 7140,
          "time": 29.75,
          "velocity": 0.8346456692913385
        },
        {
          "duration": 0.10833333333333428,
          "durationTicks": 26,
          "midi": 54,
          "name": "F#3",
          "ticks": 7140,
          "time": 29.75,
          "velocity": 0.5039370078740157
        },
        {
          "duration": 0.11666666666666714,
          "durationTicks": 28,
          "midi": 36,
          "name": "C2",
          "ticks": 7140,
          "time": 29.75,
          "velocity": 0.8346456692913385
        },
        {
          "duration": 0.08333333333333215,
          "durationTicks": 20,
          "midi": 59,
          "name": "B3",
          "ticks": 7200,
          "time": 30,
          "velocity": 0.8346456692913385
        },
        {
          "duration": 0.11666666666666714,
          "durationTicks": 28,
          "midi": 36,
          "name": "C2",
          "ticks": 7200,
          "time": 30,
          "velocity": 0.8346456692913385
        },
        {
          "duration": 0.08333333333333215,
          "durationTicks": 20,
          "midi": 44,
          "name": "G#2",
          "ticks": 7200,
          "time": 30,
          "velocity": 0.8346456692913385
        },
        {
          "duration": 0.10833333333333428,
          "durationTicks": 26,
          "midi": 54,
          "name": "F#3",
          "ticks": 7260,
          "time": 30.25,
          "velocity": 0.5039370078740157
        },
        {
          "duration": 0.08333333333333215,
          "durationTicks": 20,
          "midi": 44,
          "name": "G#2",
          "ticks": 7260,
          "time": 30.25,
          "velocity": 0.8346456692913385
        },
        {
          "duration": 0.08333333333333215,
          "durationTicks": 20,
          "midi": 44,
          "name": "G#2",
          "ticks": 7320,
          "time": 30.5,
          "velocity": 0.8346456692913385
        },
        {
          "duration": 0.08333333333333215,
          "durationTicks": 20,
          "midi": 59,
          "name": "B3",
          "ticks": 7320,
          "time": 30.5,
          "velocity": 0.8346456692913385
        },
        {
          "duration": 0.10833333333333428,
          "durationTicks": 26,
          "midi": 37,
          "name": "C#2",
          "ticks": 7320,
          "time": 30.5,
          "velocity": 0.5039370078740157
        },
        {
          "duration": 0.10833333333333428,
          "durationTicks": 26,
          "midi": 40,
          "name": "E2",
          "ticks": 7320,
          "time": 30.5,
          "velocity": 0.5039370078740157
        },
        {
          "duration": 0.11666666666666714,
          "durationTicks": 28,
          "midi": 36,
          "name": "C2",
          "ticks": 7320,
          "time": 30.5,
          "velocity": 0.8346456692913385
        },
        {
          "duration": 0.11666666666666714,
          "durationTicks": 28,
          "midi": 36,
          "name": "C2",
          "ticks": 7380,
          "time": 30.75,
          "velocity": 0.8346456692913385
        },
        {
          "duration": 0.08333333333333215,
          "durationTicks": 20,
          "midi": 44,
          "name": "G#2",
          "ticks": 7380,
          "time": 30.75,
          "velocity": 0.8346456692913385
        },
        {
          "duration": 0.10833333333333428,
          "durationTicks": 26,
          "midi": 54,
          "name": "F#3",
          "ticks": 7380,
          "time": 30.75,
          "velocity": 0.5039370078740157
        },
        {
          "duration": 0.11666666666666714,
          "durationTicks": 28,
          "midi": 36,
          "name": "C2",
          "ticks": 7440,
          "time": 31,
          "velocity": 0.8346456692913385
        },
        {
          "duration": 0.08333333333333215,
          "durationTicks": 20,
          "midi": 59,
          "name": "B3",
          "ticks": 7440,
          "time": 31,
          "velocity": 0.8346456692913385
        },
        {
          "duration": 0.08333333333333215,
          "durationTicks": 20,
          "midi": 44,
          "name": "G#2",
          "ticks": 7440,
          "time": 31,
          "velocity": 0.8346456692913385
        },
        {
          "duration": 0.11666666666666714,
          "durationTicks": 28,
          "midi": 36,
          "name": "C2",
          "ticks": 7500,
          "time": 31.25,
          "velocity": 0.8346456692913385
        },
        {
          "duration": 0.10833333333333428,
          "durationTicks": 26,
          "midi": 40,
          "name": "E2",
          "ticks": 7500,
          "time": 31.25,
          "velocity": 0.5039370078740157
        },
        {
          "duration": 0.10833333333333428,
          "durationTicks": 26,
          "midi": 54,
          "name": "F#3",
          "ticks": 7500,
          "time": 31.25,
          "velocity": 0.5039370078740157
        },
        {
          "duration": 0.10833333333333428,
          "durationTicks": 26,
          "midi": 37,
          "name": "C#2",
          "ticks": 7500,
          "time": 31.25,
          "velocity": 0.5039370078740157
        },
        {
          "duration": 0.08333333333333215,
          "durationTicks": 20,
          "midi": 44,
          "name": "G#2",
          "ticks": 7500,
          "time": 31.25,
          "velocity": 0.8346456692913385
        },
        {
          "duration": 0.08333333333333215,
          "durationTicks": 20,
          "midi": 59,
          "name": "B3",
          "ticks": 7560,
          "time": 31.5,
          "velocity": 0.8346456692913385
        },
        {
          "duration": 0.08333333333333215,
          "durationTicks": 20,
          "midi": 44,
          "name": "G#2",
          "ticks": 7560,
          "time": 31.5,
          "velocity": 0.8346456692913385
        },
        {
          "duration": 0.11666666666666714,
          "durationTicks": 28,
          "midi": 36,
          "name": "C2",
          "ticks": 7560,
          "time": 31.5,
          "velocity": 0.8346456692913385
        },
        {
          "duration": 0.11666666666666714,
          "durationTicks": 28,
          "midi": 36,
          "name": "C2",
          "ticks": 7620,
          "time": 31.75,
          "velocity": 0.8346456692913385
        },
        {
          "duration": 0.08333333333333215,
          "durationTicks": 20,
          "midi": 44,
          "name": "G#2",
          "ticks": 7620,
          "time": 31.75,
          "velocity": 0.8346456692913385
        },
        {
          "duration": 0.10833333333333428,
          "durationTicks": 26,
          "midi": 54,
          "name": "F#3",
          "ticks": 7620,
          "time": 31.75,
          "velocity": 0.5039370078740157
        },
        {
          "duration": 0.11666666666666714,
          "durationTicks": 28,
          "midi": 36,
          "name": "C2",
          "ticks": 7680,
          "time": 32,
          "velocity": 0.8346456692913385
        },
        {
          "duration": 0.0833333333333357,
          "durationTicks": 20,
          "midi": 59,
          "name": "B3",
          "ticks": 7680,
          "time": 32,
          "velocity": 0.8346456692913385
        },
        {
          "duration": 0.0833333333333357,
          "durationTicks": 20,
          "midi": 44,
          "name": "G#2",
          "ticks": 7680,
          "time": 32,
          "velocity": 0.8346456692913385
        },
        {
          "duration": 0.0833333333333357,
          "durationTicks": 20,
          "midi": 44,
          "name": "G#2",
          "ticks": 7740,
          "time": 32.25,
          "velocity": 0.8346456692913385
        },
        {
          "duration": 0.10833333333333428,
          "durationTicks": 26,
          "midi": 54,
          "name": "F#3",
          "ticks": 7740,
          "time": 32.25,
          "velocity": 0.5039370078740157
        },
        {
          "duration": 0.11666666666666714,
          "durationTicks": 28,
          "midi": 36,
          "name": "C2",
          "ticks": 7800,
          "time": 32.5,
          "velocity": 0.8346456692913385
        },
        {
          "duration": 0.0833333333333357,
          "durationTicks": 20,
          "midi": 59,
          "name": "B3",
          "ticks": 7800,
          "time": 32.5,
          "velocity": 0.8346456692913385
        },
        {
          "duration": 0.10833333333333428,
          "durationTicks": 26,
          "midi": 40,
          "name": "E2",
          "ticks": 7800,
          "time": 32.5,
          "velocity": 0.5039370078740157
        },
        {
          "duration": 0.0833333333333357,
          "durationTicks": 20,
          "midi": 44,
          "name": "G#2",
          "ticks": 7800,
          "time": 32.5,
          "velocity": 0.8346456692913385
        },
        {
          "duration": 0.10833333333333428,
          "durationTicks": 26,
          "midi": 37,
          "name": "C#2",
          "ticks": 7800,
          "time": 32.5,
          "velocity": 0.5039370078740157
        },
        {
          "duration": 0.10833333333333428,
          "durationTicks": 26,
          "midi": 54,
          "name": "F#3",
          "ticks": 7860,
          "time": 32.75,
          "velocity": 0.5039370078740157
        },
        {
          "duration": 0.11666666666666714,
          "durationTicks": 28,
          "midi": 36,
          "name": "C2",
          "ticks": 7860,
          "time": 32.75,
          "velocity": 0.8346456692913385
        },
        {
          "duration": 0.0833333333333357,
          "durationTicks": 20,
          "midi": 44,
          "name": "G#2",
          "ticks": 7860,
          "time": 32.75,
          "velocity": 0.8346456692913385
        },
        {
          "duration": 0.11666666666666714,
          "durationTicks": 28,
          "midi": 36,
          "name": "C2",
          "ticks": 7920,
          "time": 33,
          "velocity": 0.8346456692913385
        },
        {
          "duration": 0.0833333333333357,
          "durationTicks": 20,
          "midi": 44,
          "name": "G#2",
          "ticks": 7920,
          "time": 33,
          "velocity": 0.8346456692913385
        },
        {
          "duration": 0.0833333333333357,
          "durationTicks": 20,
          "midi": 59,
          "name": "B3",
          "ticks": 7920,
          "time": 33,
          "velocity": 0.8346456692913385
        },
        {
          "duration": 0.0833333333333357,
          "durationTicks": 20,
          "midi": 44,
          "name": "G#2",
          "ticks": 7980,
          "time": 33.25,
          "velocity": 0.8346456692913385
        },
        {
          "duration": 0.10833333333333428,
          "durationTicks": 26,
          "midi": 40,
          "name": "E2",
          "ticks": 7980,
          "time": 33.25,
          "velocity": 0.5039370078740157
        },
        {
          "duration": 0.10833333333333428,
          "durationTicks": 26,
          "midi": 37,
          "name": "C#2",
          "ticks": 7980,
          "time": 33.25,
          "velocity": 0.5039370078740157
        },
        {
          "duration": 0.10833333333333428,
          "durationTicks": 26,
          "midi": 54,
          "name": "F#3",
          "ticks": 7980,
          "time": 33.25,
          "velocity": 0.5039370078740157
        },
        {
          "duration": 0.11666666666666714,
          "durationTicks": 28,
          "midi": 36,
          "name": "C2",
          "ticks": 7980,
          "time": 33.25,
          "velocity": 0.8346456692913385
        },
        {
          "duration": 0.11666666666666714,
          "durationTicks": 28,
          "midi": 36,
          "name": "C2",
          "ticks": 8040,
          "time": 33.5,
          "velocity": 0.8346456692913385
        },
        {
          "duration": 0.0833333333333357,
          "durationTicks": 20,
          "midi": 59,
          "name": "B3",
          "ticks": 8040,
          "time": 33.5,
          "velocity": 0.8346456692913385
        },
        {
          "duration": 0.0833333333333357,
          "durationTicks": 20,
          "midi": 44,
          "name": "G#2",
          "ticks": 8040,
          "time": 33.5,
          "velocity": 0.8346456692913385
        },
        {
          "duration": 0.10833333333333428,
          "durationTicks": 26,
          "midi": 54,
          "name": "F#3",
          "ticks": 8100,
          "time": 33.75,
          "velocity": 0.5039370078740157
        },
        {
          "duration": 0.0833333333333357,
          "durationTicks": 20,
          "midi": 44,
          "name": "G#2",
          "ticks": 8100,
          "time": 33.75,
          "velocity": 0.8346456692913385
        },
        {
          "duration": 0.11666666666666714,
          "durationTicks": 28,
          "midi": 36,
          "name": "C2",
          "ticks": 8100,
          "time": 33.75,
          "velocity": 0.8346456692913385
        },
        {
          "duration": 0.0833333333333357,
          "durationTicks": 20,
          "midi": 59,
          "name": "B3",
          "ticks": 8160,
          "time": 34,
          "velocity": 0.8346456692913385
        },
        {
          "duration": 0.0833333333333357,
          "durationTicks": 20,
          "midi": 44,
          "name": "G#2",
          "ticks": 8160,
          "time": 34,
          "velocity": 0.8346456692913385
        },
        {
          "duration": 0.11666666666666714,
          "durationTicks": 28,
          "midi": 36,
          "name": "C2",
          "ticks": 8160,
          "time": 34,
          "velocity": 0.8346456692913385
        },
        {
          "duration": 0.0833333333333357,
          "durationTicks": 20,
          "midi": 44,
          "name": "G#2",
          "ticks": 8220,
          "time": 34.25,
          "velocity": 0.8346456692913385
        },
        {
          "duration": 0.10833333333333428,
          "durationTicks": 26,
          "midi": 54,
          "name": "F#3",
          "ticks": 8220,
          "time": 34.25,
          "velocity": 0.5039370078740157
        },
        {
          "duration": 0.0833333333333357,
          "durationTicks": 20,
          "midi": 44,
          "name": "G#2",
          "ticks": 8280,
          "time": 34.5,
          "velocity": 0.8346456692913385
        },
        {
          "duration": 0.10833333333333428,
          "durationTicks": 26,
          "midi": 37,
          "name": "C#2",
          "ticks": 8280,
          "time": 34.5,
          "velocity": 0.5039370078740157
        },
        {
          "duration": 0.11666666666666714,
          "durationTicks": 28,
          "midi": 36,
          "name": "C2",
          "ticks": 8280,
          "time": 34.5,
          "velocity": 0.8346456692913385
        },
        {
          "duration": 0.0833333333333357,
          "durationTicks": 20,
          "midi": 59,
          "name": "B3",
          "ticks": 8280,
          "time": 34.5,
          "velocity": 0.8346456692913385
        },
        {
          "duration": 0.10833333333333428,
          "durationTicks": 26,
          "midi": 40,
          "name": "E2",
          "ticks": 8280,
          "time": 34.5,
          "velocity": 0.5039370078740157
        },
        {
          "duration": 0.11666666666666714,
          "durationTicks": 28,
          "midi": 36,
          "name": "C2",
          "ticks": 8340,
          "time": 34.75,
          "velocity": 0.8346456692913385
        },
        {
          "duration": 0.0833333333333357,
          "durationTicks": 20,
          "midi": 44,
          "name": "G#2",
          "ticks": 8340,
          "time": 34.75,
          "velocity": 0.8346456692913385
        },
        {
          "duration": 0.10833333333333428,
          "durationTicks": 26,
          "midi": 54,
          "name": "F#3",
          "ticks": 8340,
          "time": 34.75,
          "velocity": 0.5039370078740157
        },
        {
          "duration": 0.0833333333333357,
          "durationTicks": 20,
          "midi": 44,
          "name": "G#2",
          "ticks": 8400,
          "time": 35,
          "velocity": 0.8346456692913385
        },
        {
          "duration": 0.11666666666666714,
          "durationTicks": 28,
          "midi": 36,
          "name": "C2",
          "ticks": 8400,
          "time": 35,
          "velocity": 0.8346456692913385
        },
        {
          "duration": 0.0833333333333357,
          "durationTicks": 20,
          "midi": 59,
          "name": "B3",
          "ticks": 8400,
          "time": 35,
          "velocity": 0.8346456692913385
        },
        {
          "duration": 0.11666666666666714,
          "durationTicks": 28,
          "midi": 36,
          "name": "C2",
          "ticks": 8460,
          "time": 35.25,
          "velocity": 0.8346456692913385
        },
        {
          "duration": 0.0833333333333357,
          "durationTicks": 20,
          "midi": 44,
          "name": "G#2",
          "ticks": 8460,
          "time": 35.25,
          "velocity": 0.8346456692913385
        },
        {
          "duration": 0.10833333333333428,
          "durationTicks": 26,
          "midi": 54,
          "name": "F#3",
          "ticks": 8460,
          "time": 35.25,
          "velocity": 0.5039370078740157
        },
        {
          "duration": 0.10833333333333428,
          "durationTicks": 26,
          "midi": 37,
          "name": "C#2",
          "ticks": 8460,
          "time": 35.25,
          "velocity": 0.5039370078740157
        },
        {
          "duration": 0.10833333333333428,
          "durationTicks": 26,
          "midi": 40,
          "name": "E2",
          "ticks": 8460,
          "time": 35.25,
          "velocity": 0.5039370078740157
        },
        {
          "duration": 0.0833333333333357,
          "durationTicks": 20,
          "midi": 44,
          "name": "G#2",
          "ticks": 8520,
          "time": 35.5,
          "velocity": 0.8346456692913385
        },
        {
          "duration": 0.0833333333333357,
          "durationTicks": 20,
          "midi": 59,
          "name": "B3",
          "ticks": 8520,
          "time": 35.5,
          "velocity": 0.8346456692913385
        },
        {
          "duration": 0.11666666666666714,
          "durationTicks": 28,
          "midi": 36,
          "name": "C2",
          "ticks": 8520,
          "time": 35.5,
          "velocity": 0.8346456692913385
        },
        {
          "duration": 0.0833333333333357,
          "durationTicks": 20,
          "midi": 44,
          "name": "G#2",
          "ticks": 8580,
          "time": 35.75,
          "velocity": 0.8346456692913385
        },
        {
          "duration": 0.10833333333333428,
          "durationTicks": 26,
          "midi": 54,
          "name": "F#3",
          "ticks": 8580,
          "time": 35.75,
          "velocity": 0.5039370078740157
        },
        {
          "duration": 0.11666666666666714,
          "durationTicks": 28,
          "midi": 36,
          "name": "C2",
          "ticks": 8580,
          "time": 35.75,
          "velocity": 0.8346456692913385
        },
        {
          "duration": 0.0833333333333357,
          "durationTicks": 20,
          "midi": 59,
          "name": "B3",
          "ticks": 8640,
          "time": 36,
          "velocity": 0.8346456692913385
        },
        {
          "duration": 0.0833333333333357,
          "durationTicks": 20,
          "midi": 55,
          "name": "G3",
          "ticks": 8640,
          "time": 36,
          "velocity": 0.8346456692913385
        },
        {
          "duration": 0.0833333333333357,
          "durationTicks": 20,
          "midi": 44,
          "name": "G#2",
          "ticks": 8640,
          "time": 36,
          "velocity": 0.8346456692913385
        },
        {
          "duration": 0.11666666666666714,
          "durationTicks": 28,
          "midi": 36,
          "name": "C2",
          "ticks": 8640,
          "time": 36,
          "velocity": 0.8346456692913385
        },
        {
          "duration": 0.0833333333333357,
          "durationTicks": 20,
          "midi": 44,
          "name": "G#2",
          "ticks": 8700,
          "time": 36.25,
          "velocity": 0.8346456692913385
        },
        {
          "duration": 0.10833333333333428,
          "durationTicks": 26,
          "midi": 54,
          "name": "F#3",
          "ticks": 8700,
          "time": 36.25,
          "velocity": 0.5039370078740157
        },
        {
          "duration": 0.11666666666666714,
          "durationTicks": 28,
          "midi": 36,
          "name": "C2",
          "ticks": 8760,
          "time": 36.5,
          "velocity": 0.8346456692913385
        },
        {
          "duration": 0.10833333333333428,
          "durationTicks": 26,
          "midi": 37,
          "name": "C#2",
          "ticks": 8760,
          "time": 36.5,
          "velocity": 0.5039370078740157
        },
        {
          "duration": 0.10833333333333428,
          "durationTicks": 26,
          "midi": 40,
          "name": "E2",
          "ticks": 8760,
          "time": 36.5,
          "velocity": 0.5039370078740157
        },
        {
          "duration": 0.0833333333333357,
          "durationTicks": 20,
          "midi": 44,
          "name": "G#2",
          "ticks": 8760,
          "time": 36.5,
          "velocity": 0.8346456692913385
        },
        {
          "duration": 0.0833333333333357,
          "durationTicks": 20,
          "midi": 59,
          "name": "B3",
          "ticks": 8760,
          "time": 36.5,
          "velocity": 0.8346456692913385
        },
        {
          "duration": 0.10833333333333428,
          "durationTicks": 26,
          "midi": 54,
          "name": "F#3",
          "ticks": 8820,
          "time": 36.75,
          "velocity": 0.5039370078740157
        },
        {
          "duration": 0.0833333333333357,
          "durationTicks": 20,
          "midi": 44,
          "name": "G#2",
          "ticks": 8820,
          "time": 36.75,
          "velocity": 0.8346456692913385
        },
        {
          "duration": 0.11666666666666714,
          "durationTicks": 28,
          "midi": 36,
          "name": "C2",
          "ticks": 8820,
          "time": 36.75,
          "velocity": 0.8346456692913385
        },
        {
          "duration": 0.0833333333333357,
          "durationTicks": 20,
          "midi": 59,
          "name": "B3",
          "ticks": 8880,
          "time": 37,
          "velocity": 0.8346456692913385
        },
        {
          "duration": 0.11666666666666714,
          "durationTicks": 28,
          "midi": 36,
          "name": "C2",
          "ticks": 8880,
          "time": 37,
          "velocity": 0.8346456692913385
        },
        {
          "duration": 0.0833333333333357,
          "durationTicks": 20,
          "midi": 44,
          "name": "G#2",
          "ticks": 8880,
          "time": 37,
          "velocity": 0.8346456692913385
        },
        {
          "duration": 0.10833333333333428,
          "durationTicks": 26,
          "midi": 37,
          "name": "C#2",
          "ticks": 8940,
          "time": 37.25,
          "velocity": 0.5039370078740157
        },
        {
          "duration": 0.0833333333333357,
          "durationTicks": 20,
          "midi": 44,
          "name": "G#2",
          "ticks": 8940,
          "time": 37.25,
          "velocity": 0.8346456692913385
        },
        {
          "duration": 0.10833333333333428,
          "durationTicks": 26,
          "midi": 54,
          "name": "F#3",
          "ticks": 8940,
          "time": 37.25,
          "velocity": 0.5039370078740157
        },
        {
          "duration": 0.11666666666666714,
          "durationTicks": 28,
          "midi": 36,
          "name": "C2",
          "ticks": 8940,
          "time": 37.25,
          "velocity": 0.8346456692913385
        },
        {
          "duration": 0.10833333333333428,
          "durationTicks": 26,
          "midi": 40,
          "name": "E2",
          "ticks": 8940,
          "time": 37.25,
          "velocity": 0.5039370078740157
        },
        {
          "duration": 0.0833333333333357,
          "durationTicks": 20,
          "midi": 44,
          "name": "G#2",
          "ticks": 9000,
          "time": 37.5,
          "velocity": 0.8346456692913385
        },
        {
          "duration": 0.11666666666666714,
          "durationTicks": 28,
          "midi": 36,
          "name": "C2",
          "ticks": 9000,
          "time": 37.5,
          "velocity": 0.8346456692913385
        },
        {
          "duration": 0.0833333333333357,
          "durationTicks": 20,
          "midi": 59,
          "name": "B3",
          "ticks": 9000,
          "time": 37.5,
          "velocity": 0.8346456692913385
        },
        {
          "duration": 0.11666666666666714,
          "durationTicks": 28,
          "midi": 36,
          "name": "C2",
          "ticks": 9060,
          "time": 37.75,
          "velocity": 0.8346456692913385
        },
        {
          "duration": 0.0833333333333357,
          "durationTicks": 20,
          "midi": 44,
          "name": "G#2",
          "ticks": 9060,
          "time": 37.75,
          "velocity": 0.8346456692913385
        },
        {
          "duration": 0.10833333333333428,
          "durationTicks": 26,
          "midi": 54,
          "name": "F#3",
          "ticks": 9060,
          "time": 37.75,
          "velocity": 0.5039370078740157
        },
        {
          "duration": 0.0833333333333357,
          "durationTicks": 20,
          "midi": 59,
          "name": "B3",
          "ticks": 9120,
          "time": 38,
          "velocity": 0.8346456692913385
        },
        {
          "duration": 0.11666666666666714,
          "durationTicks": 28,
          "midi": 36,
          "name": "C2",
          "ticks": 9120,
          "time": 38,
          "velocity": 0.8346456692913385
        },
        {
          "duration": 0.0833333333333357,
          "durationTicks": 20,
          "midi": 44,
          "name": "G#2",
          "ticks": 9120,
          "time": 38,
          "velocity": 0.8346456692913385
        },
        {
          "duration": 0.0833333333333357,
          "durationTicks": 20,
          "midi": 44,
          "name": "G#2",
          "ticks": 9180,
          "time": 38.25,
          "velocity": 0.8346456692913385
        },
        {
          "duration": 0.10833333333333428,
          "durationTicks": 26,
          "midi": 54,
          "name": "F#3",
          "ticks": 9180,
          "time": 38.25,
          "velocity": 0.5039370078740157
        },
        {
          "duration": 0.11666666666666714,
          "durationTicks": 28,
          "midi": 36,
          "name": "C2",
          "ticks": 9240,
          "time": 38.5,
          "velocity": 0.8346456692913385
        },
        {
          "duration": 0.10833333333333428,
          "durationTicks": 26,
          "midi": 37,
          "name": "C#2",
          "ticks": 9240,
          "time": 38.5,
          "velocity": 0.5039370078740157
        },
        {
          "duration": 0.0833333333333357,
          "durationTicks": 20,
          "midi": 59,
          "name": "B3",
          "ticks": 9240,
          "time": 38.5,
          "velocity": 0.8346456692913385
        },
        {
          "duration": 0.0833333333333357,
          "durationTicks": 20,
          "midi": 44,
          "name": "G#2",
          "ticks": 9240,
          "time": 38.5,
          "velocity": 0.8346456692913385
        },
        {
          "duration": 0.10833333333333428,
          "durationTicks": 26,
          "midi": 40,
          "name": "E2",
          "ticks": 9240,
          "time": 38.5,
          "velocity": 0.5039370078740157
        },
        {
          "duration": 0.0833333333333357,
          "durationTicks": 20,
          "midi": 44,
          "name": "G#2",
          "ticks": 9300,
          "time": 38.75,
          "velocity": 0.8346456692913385
        },
        {
          "duration": 0.11666666666666714,
          "durationTicks": 28,
          "midi": 36,
          "name": "C2",
          "ticks": 9300,
          "time": 38.75,
          "velocity": 0.8346456692913385
        },
        {
          "duration": 0.10833333333333428,
          "durationTicks": 26,
          "midi": 54,
          "name": "F#3",
          "ticks": 9300,
          "time": 38.75,
          "velocity": 0.5039370078740157
        },
        {
          "duration": 0.0833333333333357,
          "durationTicks": 20,
          "midi": 59,
          "name": "B3",
          "ticks": 9360,
          "time": 39,
          "velocity": 0.8346456692913385
        },
        {
          "duration": 0.11666666666666714,
          "durationTicks": 28,
          "midi": 36,
          "name": "C2",
          "ticks": 9360,
          "time": 39,
          "velocity": 0.8346456692913385
        },
        {
          "duration": 0.0833333333333357,
          "durationTicks": 20,
          "midi": 44,
          "name": "G#2",
          "ticks": 9360,
          "time": 39,
          "velocity": 0.8346456692913385
        },
        {
          "duration": 0.10833333333333428,
          "durationTicks": 26,
          "midi": 54,
          "name": "F#3",
          "ticks": 9420,
          "time": 39.25,
          "velocity": 0.5039370078740157
        },
        {
          "duration": 0.0833333333333357,
          "durationTicks": 20,
          "midi": 44,
          "name": "G#2",
          "ticks": 9420,
          "time": 39.25,
          "velocity": 0.8346456692913385
        },
        {
          "duration": 0.10833333333333428,
          "durationTicks": 26,
          "midi": 37,
          "name": "C#2",
          "ticks": 9420,
          "time": 39.25,
          "velocity": 0.5039370078740157
        },
        {
          "duration": 0.10833333333333428,
          "durationTicks": 26,
          "midi": 40,
          "name": "E2",
          "ticks": 9420,
          "time": 39.25,
          "velocity": 0.5039370078740157
        },
        {
          "duration": 0.11666666666666714,
          "durationTicks": 28,
          "midi": 36,
          "name": "C2",
          "ticks": 9420,
          "time": 39.25,
          "velocity": 0.8346456692913385
        },
        {
          "duration": 0.11666666666666714,
          "durationTicks": 28,
          "midi": 36,
          "name": "C2",
          "ticks": 9480,
          "time": 39.5,
          "velocity": 0.8346456692913385
        },
        {
          "duration": 0.0833333333333357,
          "durationTicks": 20,
          "midi": 44,
          "name": "G#2",
          "ticks": 9480,
          "time": 39.5,
          "velocity": 0.8346456692913385
        },
        {
          "duration": 0.0833333333333357,
          "durationTicks": 20,
          "midi": 59,
          "name": "B3",
          "ticks": 9480,
          "time": 39.5,
          "velocity": 0.8346456692913385
        },
        {
          "duration": 0.10833333333333428,
          "durationTicks": 26,
          "midi": 54,
          "name": "F#3",
          "ticks": 9540,
          "time": 39.75,
          "velocity": 0.5039370078740157
        },
        {
          "duration": 0.11666666666666714,
          "durationTicks": 28,
          "midi": 36,
          "name": "C2",
          "ticks": 9540,
          "time": 39.75,
          "velocity": 0.8346456692913385
        },
        {
          "duration": 0.0833333333333357,
          "durationTicks": 20,
          "midi": 44,
          "name": "G#2",
          "ticks": 9540,
          "time": 39.75,
          "velocity": 0.8346456692913385
        },
        {
          "duration": 0.0833333333333357,
          "durationTicks": 20,
          "midi": 59,
          "name": "B3",
          "ticks": 9600,
          "time": 40,
          "velocity": 0.8346456692913385
        },
        {
          "duration": 0.11666666666666714,
          "durationTicks": 28,
          "midi": 36,
          "name": "C2",
          "ticks": 9600,
          "time": 40,
          "velocity": 0.8346456692913385
        },
        {
          "duration": 0.0833333333333357,
          "durationTicks": 20,
          "midi": 44,
          "name": "G#2",
          "ticks": 9600,
          "time": 40,
          "velocity": 0.8346456692913385
        },
        {
          "duration": 0.0833333333333357,
          "durationTicks": 20,
          "midi": 44,
          "name": "G#2",
          "ticks": 9660,
          "time": 40.25,
          "velocity": 0.8346456692913385
        },
        {
          "duration": 0.10833333333333428,
          "durationTicks": 26,
          "midi": 54,
          "name": "F#3",
          "ticks": 9660,
          "time": 40.25,
          "velocity": 0.5039370078740157
        },
        {
          "duration": 0.11666666666666714,
          "durationTicks": 28,
          "midi": 36,
          "name": "C2",
          "ticks": 9720,
          "time": 40.5,
          "velocity": 0.8346456692913385
        },
        {
          "duration": 0.0833333333333357,
          "durationTicks": 20,
          "midi": 44,
          "name": "G#2",
          "ticks": 9720,
          "time": 40.5,
          "velocity": 0.8346456692913385
        },
        {
          "duration": 0.10833333333333428,
          "durationTicks": 26,
          "midi": 37,
          "name": "C#2",
          "ticks": 9720,
          "time": 40.5,
          "velocity": 0.5039370078740157
        },
        {
          "duration": 0.10833333333333428,
          "durationTicks": 26,
          "midi": 40,
          "name": "E2",
          "ticks": 9720,
          "time": 40.5,
          "velocity": 0.5039370078740157
        },
        {
          "duration": 0.0833333333333357,
          "durationTicks": 20,
          "midi": 59,
          "name": "B3",
          "ticks": 9720,
          "time": 40.5,
          "velocity": 0.8346456692913385
        },
        {
          "duration": 0.11666666666666714,
          "durationTicks": 28,
          "midi": 36,
          "name": "C2",
          "ticks": 9780,
          "time": 40.75,
          "velocity": 0.8346456692913385
        },
        {
          "duration": 0.0833333333333357,
          "durationTicks": 20,
          "midi": 44,
          "name": "G#2",
          "ticks": 9780,
          "time": 40.75,
          "velocity": 0.8346456692913385
        },
        {
          "duration": 0.10833333333333428,
          "durationTicks": 26,
          "midi": 54,
          "name": "F#3",
          "ticks": 9780,
          "time": 40.75,
          "velocity": 0.5039370078740157
        },
        {
          "duration": 0.0833333333333357,
          "durationTicks": 20,
          "midi": 44,
          "name": "G#2",
          "ticks": 9840,
          "time": 41,
          "velocity": 0.8346456692913385
        },
        {
          "duration": 0.0833333333333357,
          "durationTicks": 20,
          "midi": 59,
          "name": "B3",
          "ticks": 9840,
          "time": 41,
          "velocity": 0.8346456692913385
        },
        {
          "duration": 0.11666666666666714,
          "durationTicks": 28,
          "midi": 36,
          "name": "C2",
          "ticks": 9840,
          "time": 41,
          "velocity": 0.8346456692913385
        },
        {
          "duration": 0.10833333333333428,
          "durationTicks": 26,
          "midi": 40,
          "name": "E2",
          "ticks": 9900,
          "time": 41.25,
          "velocity": 0.5039370078740157
        },
        {
          "duration": 0.0833333333333357,
          "durationTicks": 20,
          "midi": 44,
          "name": "G#2",
          "ticks": 9900,
          "time": 41.25,
          "velocity": 0.8346456692913385
        },
        {
          "duration": 0.10833333333333428,
          "durationTicks": 26,
          "midi": 37,
          "name": "C#2",
          "ticks": 9900,
          "time": 41.25,
          "velocity": 0.5039370078740157
        },
        {
          "duration": 0.10833333333333428,
          "durationTicks": 26,
          "midi": 54,
          "name": "F#3",
          "ticks": 9900,
          "time": 41.25,
          "velocity": 0.5039370078740157
        },
        {
          "duration": 0.11666666666666714,
          "durationTicks": 28,
          "midi": 36,
          "name": "C2",
          "ticks": 9900,
          "time": 41.25,
          "velocity": 0.8346456692913385
        },
        {
          "duration": 0.11666666666666714,
          "durationTicks": 28,
          "midi": 36,
          "name": "C2",
          "ticks": 9960,
          "time": 41.5,
          "velocity": 0.8346456692913385
        },
        {
          "duration": 0.0833333333333357,
          "durationTicks": 20,
          "midi": 59,
          "name": "B3",
          "ticks": 9960,
          "time": 41.5,
          "velocity": 0.8346456692913385
        },
        {
          "duration": 0.0833333333333357,
          "durationTicks": 20,
          "midi": 44,
          "name": "G#2",
          "ticks": 9960,
          "time": 41.5,
          "velocity": 0.8346456692913385
        },
        {
          "duration": 0.10833333333333428,
          "durationTicks": 26,
          "midi": 54,
          "name": "F#3",
          "ticks": 10020,
          "time": 41.75,
          "velocity": 0.5039370078740157
        },
        {
          "duration": 0.11666666666666714,
          "durationTicks": 28,
          "midi": 36,
          "name": "C2",
          "ticks": 10020,
          "time": 41.75,
          "velocity": 0.8346456692913385
        },
        {
          "duration": 0.0833333333333357,
          "durationTicks": 20,
          "midi": 44,
          "name": "G#2",
          "ticks": 10020,
          "time": 41.75,
          "velocity": 0.8346456692913385
        },
        {
          "duration": 0.0833333333333357,
          "durationTicks": 20,
          "midi": 44,
          "name": "G#2",
          "ticks": 10080,
          "time": 42,
          "velocity": 0.8346456692913385
        },
        {
          "duration": 0.11666666666666714,
          "durationTicks": 28,
          "midi": 36,
          "name": "C2",
          "ticks": 10080,
          "time": 42,
          "velocity": 0.8346456692913385
        },
        {
          "duration": 0.0833333333333357,
          "durationTicks": 20,
          "midi": 59,
          "name": "B3",
          "ticks": 10080,
          "time": 42,
          "velocity": 0.8346456692913385
        },
        {
          "duration": 0.0833333333333357,
          "durationTicks": 20,
          "midi": 44,
          "name": "G#2",
          "ticks": 10140,
          "time": 42.25,
          "velocity": 0.8346456692913385
        },
        {
          "duration": 0.10833333333333428,
          "durationTicks": 26,
          "midi": 54,
          "name": "F#3",
          "ticks": 10140,
          "time": 42.25,
          "velocity": 0.5039370078740157
        },
        {
          "duration": 0.11666666666666714,
          "durationTicks": 28,
          "midi": 36,
          "name": "C2",
          "ticks": 10200,
          "time": 42.5,
          "velocity": 0.8346456692913385
        },
        {
          "duration": 0.10833333333333428,
          "durationTicks": 26,
          "midi": 37,
          "name": "C#2",
          "ticks": 10200,
          "time": 42.5,
          "velocity": 0.5039370078740157
        },
        {
          "duration": 0.0833333333333357,
          "durationTicks": 20,
          "midi": 44,
          "name": "G#2",
          "ticks": 10200,
          "time": 42.5,
          "velocity": 0.8346456692913385
        },
        {
          "duration": 0.0833333333333357,
          "durationTicks": 20,
          "midi": 59,
          "name": "B3",
          "ticks": 10200,
          "time": 42.5,
          "velocity": 0.8346456692913385
        },
        {
          "duration": 0.10833333333333428,
          "durationTicks": 26,
          "midi": 40,
          "name": "E2",
          "ticks": 10200,
          "time": 42.5,
          "velocity": 0.5039370078740157
        },
        {
          "duration": 0.0833333333333357,
          "durationTicks": 20,
          "midi": 44,
          "name": "G#2",
          "ticks": 10260,
          "time": 42.75,
          "velocity": 0.8346456692913385
        },
        {
          "duration": 0.10833333333333428,
          "durationTicks": 26,
          "midi": 54,
          "name": "F#3",
          "ticks": 10260,
          "time": 42.75,
          "velocity": 0.5039370078740157
        },
        {
          "duration": 0.11666666666666714,
          "durationTicks": 28,
          "midi": 36,
          "name": "C2",
          "ticks": 10260,
          "time": 42.75,
          "velocity": 0.8346456692913385
        },
        {
          "duration": 0.0833333333333357,
          "durationTicks": 20,
          "midi": 44,
          "name": "G#2",
          "ticks": 10320,
          "time": 43,
          "velocity": 0.8346456692913385
        },
        {
          "duration": 0.11666666666666714,
          "durationTicks": 28,
          "midi": 36,
          "name": "C2",
          "ticks": 10320,
          "time": 43,
          "velocity": 0.8346456692913385
        },
        {
          "duration": 0.0833333333333357,
          "durationTicks": 20,
          "midi": 59,
          "name": "B3",
          "ticks": 10320,
          "time": 43,
          "velocity": 0.8346456692913385
        },
        {
          "duration": 0.10833333333333428,
          "durationTicks": 26,
          "midi": 40,
          "name": "E2",
          "ticks": 10380,
          "time": 43.25,
          "velocity": 0.5039370078740157
        },
        {
          "duration": 0.0833333333333357,
          "durationTicks": 20,
          "midi": 44,
          "name": "G#2",
          "ticks": 10380,
          "time": 43.25,
          "velocity": 0.8346456692913385
        },
        {
          "duration": 0.10833333333333428,
          "durationTicks": 26,
          "midi": 37,
          "name": "C#2",
          "ticks": 10380,
          "time": 43.25,
          "velocity": 0.5039370078740157
        },
        {
          "duration": 0.11666666666666714,
          "durationTicks": 28,
          "midi": 36,
          "name": "C2",
          "ticks": 10380,
          "time": 43.25,
          "velocity": 0.8346456692913385
        },
        {
          "duration": 0.10833333333333428,
          "durationTicks": 26,
          "midi": 54,
          "name": "F#3",
          "ticks": 10380,
          "time": 43.25,
          "velocity": 0.5039370078740157
        },
        {
          "duration": 0.0833333333333357,
          "durationTicks": 20,
          "midi": 59,
          "name": "B3",
          "ticks": 10440,
          "time": 43.5,
          "velocity": 0.8346456692913385
        },
        {
          "duration": 0.11666666666666714,
          "durationTicks": 28,
          "midi": 36,
          "name": "C2",
          "ticks": 10440,
          "time": 43.5,
          "velocity": 0.8346456692913385
        },
        {
          "duration": 0.0833333333333357,
          "durationTicks": 20,
          "midi": 44,
          "name": "G#2",
          "ticks": 10440,
          "time": 43.5,
          "velocity": 0.8346456692913385
        },
        {
          "duration": 0.0833333333333357,
          "durationTicks": 20,
          "midi": 44,
          "name": "G#2",
          "ticks": 10500,
          "time": 43.75,
          "velocity": 0.8346456692913385
        },
        {
          "duration": 0.11666666666666714,
          "durationTicks": 28,
          "midi": 36,
          "name": "C2",
          "ticks": 10500,
          "time": 43.75,
          "velocity": 0.8346456692913385
        },
        {
          "duration": 0.10833333333333428,
          "durationTicks": 26,
          "midi": 54,
          "name": "F#3",
          "ticks": 10500,
          "time": 43.75,
          "velocity": 0.5039370078740157
        },
        {
          "duration": 0.11666666666666714,
          "durationTicks": 28,
          "midi": 36,
          "name": "C2",
          "ticks": 10560,
          "time": 44,
          "velocity": 0.8346456692913385
        },
        {
          "duration": 0.0833333333333357,
          "durationTicks": 20,
          "midi": 55,
          "name": "G3",
          "ticks": 10560,
          "time": 44,
          "velocity": 0.8346456692913385
        },
        {
          "duration": 0.0833333333333357,
          "durationTicks": 20,
          "midi": 44,
          "name": "G#2",
          "ticks": 10560,
          "time": 44,
          "velocity": 0.8346456692913385
        },
        {
          "duration": 0.10833333333333428,
          "durationTicks": 26,
          "midi": 54,
          "name": "F#3",
          "ticks": 10620,
          "time": 44.25,
          "velocity": 0.5039370078740157
        },
        {
          "duration": 0.10833333333333428,
          "durationTicks": 26,
          "midi": 36,
          "name": "C2",
          "ticks": 10680,
          "time": 44.5,
          "velocity": 0.5039370078740157
        },
        {
          "duration": 0.0833333333333357,
          "durationTicks": 20,
          "midi": 44,
          "name": "G#2",
          "ticks": 10680,
          "time": 44.5,
          "velocity": 0.8346456692913385
        },
        {
          "duration": 0.10833333333333428,
          "durationTicks": 26,
          "midi": 37,
          "name": "C#2",
          "ticks": 10680,
          "time": 44.5,
          "velocity": 0.5039370078740157
        },
        {
          "duration": 0.10833333333333428,
          "durationTicks": 26,
          "midi": 40,
          "name": "E2",
          "ticks": 10680,
          "time": 44.5,
          "velocity": 0.5039370078740157
        },
        {
          "duration": 0.11666666666666714,
          "durationTicks": 28,
          "midi": 36,
          "name": "C2",
          "ticks": 10740,
          "time": 44.75,
          "velocity": 0.8346456692913385
        },
        {
          "duration": 0.10833333333333428,
          "durationTicks": 26,
          "midi": 54,
          "name": "F#3",
          "ticks": 10740,
          "time": 44.75,
          "velocity": 0.5039370078740157
        },
        {
          "duration": 0.11666666666666714,
          "durationTicks": 28,
          "midi": 36,
          "name": "C2",
          "ticks": 10800,
          "time": 45,
          "velocity": 0.8346456692913385
        },
        {
          "duration": 0.0833333333333357,
          "durationTicks": 20,
          "midi": 44,
          "name": "G#2",
          "ticks": 10800,
          "time": 45,
          "velocity": 0.8346456692913385
        },
        {
          "duration": 0.10833333333333428,
          "durationTicks": 26,
          "midi": 40,
          "name": "E2",
          "ticks": 10860,
          "time": 45.25,
          "velocity": 0.5039370078740157
        },
        {
          "duration": 0.10833333333333428,
          "durationTicks": 26,
          "midi": 54,
          "name": "F#3",
          "ticks": 10860,
          "time": 45.25,
          "velocity": 0.5039370078740157
        },
        {
          "duration": 0.10833333333333428,
          "durationTicks": 26,
          "midi": 36,
          "name": "C2",
          "ticks": 10860,
          "time": 45.25,
          "velocity": 0.5039370078740157
        },
        {
          "duration": 0.10833333333333428,
          "durationTicks": 26,
          "midi": 37,
          "name": "C#2",
          "ticks": 10860,
          "time": 45.25,
          "velocity": 0.5039370078740157
        },
        {
          "duration": 0.0833333333333357,
          "durationTicks": 20,
          "midi": 44,
          "name": "G#2",
          "ticks": 10920,
          "time": 45.5,
          "velocity": 0.8346456692913385
        },
        {
          "duration": 0.10833333333333428,
          "durationTicks": 26,
          "midi": 54,
          "name": "F#3",
          "ticks": 10980,
          "time": 45.75,
          "velocity": 0.5039370078740157
        },
        {
          "duration": 0.11666666666666714,
          "durationTicks": 28,
          "midi": 36,
          "name": "C2",
          "ticks": 10980,
          "time": 45.75,
          "velocity": 0.8346456692913385
        },
        {
          "duration": 0.0833333333333357,
          "durationTicks": 20,
          "midi": 44,
          "name": "G#2",
          "ticks": 11040,
          "time": 46,
          "velocity": 0.8346456692913385
        },
        {
          "duration": 0.11666666666666714,
          "durationTicks": 28,
          "midi": 36,
          "name": "C2",
          "ticks": 11040,
          "time": 46,
          "velocity": 0.8346456692913385
        },
        {
          "duration": 0.10833333333333428,
          "durationTicks": 26,
          "midi": 54,
          "name": "F#3",
          "ticks": 11100,
          "time": 46.25,
          "velocity": 0.5039370078740157
        },
        {
          "duration": 0.10833333333333428,
          "durationTicks": 26,
          "midi": 40,
          "name": "E2",
          "ticks": 11160,
          "time": 46.5,
          "velocity": 0.5039370078740157
        },
        {
          "duration": 0.0833333333333357,
          "durationTicks": 20,
          "midi": 44,
          "name": "G#2",
          "ticks": 11160,
          "time": 46.5,
          "velocity": 0.8346456692913385
        },
        {
          "duration": 0.10833333333333428,
          "durationTicks": 26,
          "midi": 37,
          "name": "C#2",
          "ticks": 11160,
          "time": 46.5,
          "velocity": 0.5039370078740157
        },
        {
          "duration": 0.11666666666666714,
          "durationTicks": 28,
          "midi": 36,
          "name": "C2",
          "ticks": 11160,
          "time": 46.5,
          "velocity": 0.8346456692913385
        },
        {
          "duration": 0.10833333333333428,
          "durationTicks": 26,
          "midi": 54,
          "name": "F#3",
          "ticks": 11220,
          "time": 46.75,
          "velocity": 0.5039370078740157
        },
        {
          "duration": 0.11666666666666714,
          "durationTicks": 28,
          "midi": 36,
          "name": "C2",
          "ticks": 11220,
          "time": 46.75,
          "velocity": 0.8346456692913385
        },
        {
          "duration": 0.0833333333333357,
          "durationTicks": 20,
          "midi": 44,
          "name": "G#2",
          "ticks": 11280,
          "time": 47,
          "velocity": 0.8346456692913385
        },
        {
          "duration": 0.11666666666666714,
          "durationTicks": 28,
          "midi": 36,
          "name": "C2",
          "ticks": 11280,
          "time": 47,
          "velocity": 0.8346456692913385
        },
        {
          "duration": 0.11666666666666714,
          "durationTicks": 28,
          "midi": 37,
          "name": "C#2",
          "ticks": 11340,
          "time": 47.25,
          "velocity": 0.5039370078740157
        },
        {
          "duration": 0.11666666666666714,
          "durationTicks": 28,
          "midi": 36,
          "name": "C2",
          "ticks": 11340,
          "time": 47.25,
          "velocity": 0.8346456692913385
        },
        {
          "duration": 0.10833333333333428,
          "durationTicks": 26,
          "midi": 54,
          "name": "F#3",
          "ticks": 11340,
          "time": 47.25,
          "velocity": 0.5039370078740157
        },
        {
          "duration": 0.11666666666666714,
          "durationTicks": 28,
          "midi": 40,
          "name": "E2",
          "ticks": 11340,
          "time": 47.25,
          "velocity": 0.5039370078740157
        },
        {
          "duration": 0.0833333333333357,
          "durationTicks": 20,
          "midi": 44,
          "name": "G#2",
          "ticks": 11400,
          "time": 47.5,
          "velocity": 0.8346456692913385
        },
        {
          "duration": 0.11666666666666714,
          "durationTicks": 28,
          "midi": 36,
          "name": "C2",
          "ticks": 11460,
          "time": 47.75,
          "velocity": 0.8346456692913385
        },
        {
          "duration": 0.10833333333333428,
          "durationTicks": 26,
          "midi": 54,
          "name": "F#3",
          "ticks": 11460,
          "time": 47.75,
          "velocity": 0.5039370078740157
        },
        {
          "duration": 0.1666666666666643,
          "durationTicks": 40,
          "midi": 46,
          "name": "A#2",
          "ticks": 11520,
          "time": 48,
          "velocity": 0.7322834645669292
        },
        {
          "duration": 0.11666666666666714,
          "durationTicks": 28,
          "midi": 36,
          "name": "C2",
          "ticks": 11520,
          "time": 48,
          "velocity": 0.8346456692913385
        },
        {
          "duration": 0.10833333333333428,
          "durationTicks": 26,
          "midi": 54,
          "name": "F#3",
          "ticks": 11580,
          "time": 48.25,
          "velocity": 0.5039370078740157
        },
        {
          "duration": 0.11666666666666714,
          "durationTicks": 28,
          "midi": 36,
          "name": "C2",
          "ticks": 11640,
          "time": 48.5,
          "velocity": 0.8346456692913385
        },
        {
          "duration": 0.11666666666666714,
          "durationTicks": 28,
          "midi": 37,
          "name": "C#2",
          "ticks": 11640,
          "time": 48.5,
          "velocity": 0.5039370078740157
        },
        {
          "duration": 0.0833333333333357,
          "durationTicks": 20,
          "midi": 44,
          "name": "G#2",
          "ticks": 11640,
          "time": 48.5,
          "velocity": 0.8346456692913385
        },
        {
          "duration": 0.11666666666666714,
          "durationTicks": 28,
          "midi": 40,
          "name": "E2",
          "ticks": 11640,
          "time": 48.5,
          "velocity": 0.5039370078740157
        },
        {
          "duration": 0.11666666666666714,
          "durationTicks": 28,
          "midi": 36,
          "name": "C2",
          "ticks": 11700,
          "time": 48.75,
          "velocity": 0.8346456692913385
        },
        {
          "duration": 0.10833333333333428,
          "durationTicks": 26,
          "midi": 54,
          "name": "F#3",
          "ticks": 11700,
          "time": 48.75,
          "velocity": 0.5039370078740157
        },
        {
          "duration": 0.0833333333333357,
          "durationTicks": 20,
          "midi": 44,
          "name": "G#2",
          "ticks": 11760,
          "time": 49,
          "velocity": 0.8346456692913385
        },
        {
          "duration": 0.11666666666666714,
          "durationTicks": 28,
          "midi": 36,
          "name": "C2",
          "ticks": 11760,
          "time": 49,
          "velocity": 0.8346456692913385
        },
        {
          "duration": 0.11666666666666714,
          "durationTicks": 28,
          "midi": 36,
          "name": "C2",
          "ticks": 11820,
          "time": 49.25,
          "velocity": 0.8346456692913385
        },
        {
          "duration": 0.10833333333333428,
          "durationTicks": 26,
          "midi": 37,
          "name": "C#2",
          "ticks": 11820,
          "time": 49.25,
          "velocity": 0.5039370078740157
        },
        {
          "duration": 0.10833333333333428,
          "durationTicks": 26,
          "midi": 40,
          "name": "E2",
          "ticks": 11820,
          "time": 49.25,
          "velocity": 0.5039370078740157
        },
        {
          "duration": 0.10833333333333428,
          "durationTicks": 26,
          "midi": 54,
          "name": "F#3",
          "ticks": 11820,
          "time": 49.25,
          "velocity": 0.5039370078740157
        },
        {
          "duration": 0.0833333333333357,
          "durationTicks": 20,
          "midi": 44,
          "name": "G#2",
          "ticks": 11880,
          "time": 49.5,
          "velocity": 0.8346456692913385
        },
        {
          "duration": 0.11666666666666714,
          "durationTicks": 28,
          "midi": 36,
          "name": "C2",
          "ticks": 11940,
          "time": 49.75,
          "velocity": 0.8346456692913385
        },
        {
          "duration": 0.10833333333333428,
          "durationTicks": 26,
          "midi": 54,
          "name": "F#3",
          "ticks": 11940,
          "time": 49.75,
          "velocity": 0.3779527559055118
        },
        {
          "duration": 0.0833333333333357,
          "durationTicks": 20,
          "midi": 44,
          "name": "G#2",
          "ticks": 12000,
          "time": 50,
          "velocity": 0.8346456692913385
        },
        {
          "duration": 0.11666666666666714,
          "durationTicks": 28,
          "midi": 36,
          "name": "C2",
          "ticks": 12000,
          "time": 50,
          "velocity": 0.8346456692913385
        },
        {
          "duration": 0.10833333333333428,
          "durationTicks": 26,
          "midi": 54,
          "name": "F#3",
          "ticks": 12060,
          "time": 50.25,
          "velocity": 0.3779527559055118
        },
        {
          "duration": 0.11666666666666714,
          "durationTicks": 28,
          "midi": 36,
          "name": "C2",
          "ticks": 12120,
          "time": 50.5,
          "velocity": 0.8346456692913385
        },
        {
          "duration": 0.0833333333333357,
          "durationTicks": 20,
          "midi": 44,
          "name": "G#2",
          "ticks": 12120,
          "time": 50.5,
          "velocity": 0.8346456692913385
        },
        {
          "duration": 0.10833333333333428,
          "durationTicks": 26,
          "midi": 37,
          "name": "C#2",
          "ticks": 12120,
          "time": 50.5,
          "velocity": 0.5039370078740157
        },
        {
          "duration": 0.10833333333333428,
          "durationTicks": 26,
          "midi": 40,
          "name": "E2",
          "ticks": 12120,
          "time": 50.5,
          "velocity": 0.5039370078740157
        },
        {
          "duration": 0.11666666666666714,
          "durationTicks": 28,
          "midi": 36,
          "name": "C2",
          "ticks": 12180,
          "time": 50.75,
          "velocity": 0.8346456692913385
        },
        {
          "duration": 0.10833333333333428,
          "durationTicks": 26,
          "midi": 54,
          "name": "F#3",
          "ticks": 12180,
          "time": 50.75,
          "velocity": 0.3779527559055118
        },
        {
          "duration": 0.11666666666666714,
          "durationTicks": 28,
          "midi": 36,
          "name": "C2",
          "ticks": 12240,
          "time": 51,
          "velocity": 0.8346456692913385
        },
        {
          "duration": 0.0833333333333357,
          "durationTicks": 20,
          "midi": 44,
          "name": "G#2",
          "ticks": 12240,
          "time": 51,
          "velocity": 0.8346456692913385
        },
        {
          "duration": 0.11666666666666714,
          "durationTicks": 28,
          "midi": 36,
          "name": "C2",
          "ticks": 12300,
          "time": 51.25,
          "velocity": 0.8346456692913385
        },
        {
          "duration": 0.10833333333333428,
          "durationTicks": 26,
          "midi": 40,
          "name": "E2",
          "ticks": 12300,
          "time": 51.25,
          "velocity": 0.5039370078740157
        },
        {
          "duration": 0.10833333333333428,
          "durationTicks": 26,
          "midi": 37,
          "name": "C#2",
          "ticks": 12300,
          "time": 51.25,
          "velocity": 0.5039370078740157
        },
        {
          "duration": 0.10833333333333428,
          "durationTicks": 26,
          "midi": 54,
          "name": "F#3",
          "ticks": 12300,
          "time": 51.25,
          "velocity": 0.5039370078740157
        },
        {
          "duration": 0.0833333333333357,
          "durationTicks": 20,
          "midi": 44,
          "name": "G#2",
          "ticks": 12360,
          "time": 51.5,
          "velocity": 0.8346456692913385
        },
        {
          "duration": 0.11666666666666714,
          "durationTicks": 28,
          "midi": 36,
          "name": "C2",
          "ticks": 12420,
          "time": 51.75,
          "velocity": 0.8346456692913385
        },
        {
          "duration": 0.10833333333333428,
          "durationTicks": 26,
          "midi": 54,
          "name": "F#3",
          "ticks": 12420,
          "time": 51.75,
          "velocity": 0.5039370078740157
        },
        {
          "duration": 0.1666666666666643,
          "durationTicks": 40,
          "midi": 46,
          "name": "A#2",
          "ticks": 12480,
          "time": 52,
          "velocity": 0.7322834645669292
        },
        {
          "duration": 0.11666666666666714,
          "durationTicks": 28,
          "midi": 36,
          "name": "C2",
          "ticks": 12480,
          "time": 52,
          "velocity": 0.8346456692913385
        },
        {
          "duration": 0.10833333333333428,
          "durationTicks": 26,
          "midi": 54,
          "name": "F#3",
          "ticks": 12540,
          "time": 52.25,
          "velocity": 0.5039370078740157
        },
        {
          "duration": 0.10833333333333428,
          "durationTicks": 26,
          "midi": 40,
          "name": "E2",
          "ticks": 12600,
          "time": 52.5,
          "velocity": 0.5039370078740157
        },
        {
          "duration": 0.10833333333333428,
          "durationTicks": 26,
          "midi": 37,
          "name": "C#2",
          "ticks": 12600,
          "time": 52.5,
          "velocity": 0.5039370078740157
        },
        {
          "duration": 0.0833333333333357,
          "durationTicks": 20,
          "midi": 44,
          "name": "G#2",
          "ticks": 12600,
          "time": 52.5,
          "velocity": 0.8346456692913385
        },
        {
          "duration": 0.11666666666666714,
          "durationTicks": 28,
          "midi": 36,
          "name": "C2",
          "ticks": 12600,
          "time": 52.5,
          "velocity": 0.8346456692913385
        },
        {
          "duration": 0.10833333333333428,
          "durationTicks": 26,
          "midi": 54,
          "name": "F#3",
          "ticks": 12660,
          "time": 52.75,
          "velocity": 0.5039370078740157
        },
        {
          "duration": 0.11666666666666714,
          "durationTicks": 28,
          "midi": 36,
          "name": "C2",
          "ticks": 12660,
          "time": 52.75,
          "velocity": 0.8346456692913385
        },
        {
          "duration": 0.11666666666666714,
          "durationTicks": 28,
          "midi": 36,
          "name": "C2",
          "ticks": 12720,
          "time": 53,
          "velocity": 0.8346456692913385
        },
        {
          "duration": 0.0833333333333357,
          "durationTicks": 20,
          "midi": 44,
          "name": "G#2",
          "ticks": 12720,
          "time": 53,
          "velocity": 0.8346456692913385
        },
        {
          "duration": 0.10833333333333428,
          "durationTicks": 26,
          "midi": 37,
          "name": "C#2",
          "ticks": 12780,
          "time": 53.25,
          "velocity": 0.5039370078740157
        },
        {
          "duration": 0.11666666666666714,
          "durationTicks": 28,
          "midi": 36,
          "name": "C2",
          "ticks": 12780,
          "time": 53.25,
          "velocity": 0.8346456692913385
        },
        {
          "duration": 0.10833333333333428,
          "durationTicks": 26,
          "midi": 54,
          "name": "F#3",
          "ticks": 12780,
          "time": 53.25,
          "velocity": 0.5039370078740157
        },
        {
          "duration": 0.10833333333333428,
          "durationTicks": 26,
          "midi": 40,
          "name": "E2",
          "ticks": 12780,
          "time": 53.25,
          "velocity": 0.5039370078740157
        },
        {
          "duration": 0.0833333333333357,
          "durationTicks": 20,
          "midi": 44,
          "name": "G#2",
          "ticks": 12840,
          "time": 53.5,
          "velocity": 0.8346456692913385
        },
        {
          "duration": 0.11666666666666714,
          "durationTicks": 28,
          "midi": 36,
          "name": "C2",
          "ticks": 12900,
          "time": 53.75,
          "velocity": 0.8346456692913385
        },
        {
          "duration": 0.10833333333333428,
          "durationTicks": 26,
          "midi": 54,
          "name": "F#3",
          "ticks": 12900,
          "time": 53.75,
          "velocity": 0.3779527559055118
        },
        {
          "duration": 0.11666666666666714,
          "durationTicks": 28,
          "midi": 36,
          "name": "C2",
          "ticks": 12960,
          "time": 54,
          "velocity": 0.8346456692913385
        },
        {
          "duration": 0.0833333333333357,
          "durationTicks": 20,
          "midi": 44,
          "name": "G#2",
          "ticks": 12960,
          "time": 54,
          "velocity": 0.8346456692913385
        },
        {
          "duration": 0.10833333333333428,
          "durationTicks": 26,
          "midi": 54,
          "name": "F#3",
          "ticks": 13020,
          "time": 54.25,
          "velocity": 0.3779527559055118
        },
        {
          "duration": 0.10833333333333428,
          "durationTicks": 26,
          "midi": 37,
          "name": "C#2",
          "ticks": 13080,
          "time": 54.5,
          "velocity": 0.5039370078740157
        },
        {
          "duration": 0.10833333333333428,
          "durationTicks": 26,
          "midi": 40,
          "name": "E2",
          "ticks": 13080,
          "time": 54.5,
          "velocity": 0.5039370078740157
        },
        {
          "duration": 0.0833333333333357,
          "durationTicks": 20,
          "midi": 44,
          "name": "G#2",
          "ticks": 13080,
          "time": 54.5,
          "velocity": 0.8346456692913385
        },
        {
          "duration": 0.11666666666666714,
          "durationTicks": 28,
          "midi": 36,
          "name": "C2",
          "ticks": 13080,
          "time": 54.5,
          "velocity": 0.8346456692913385
        },
        {
          "duration": 0.11666666666666714,
          "durationTicks": 28,
          "midi": 36,
          "name": "C2",
          "ticks": 13140,
          "time": 54.75,
          "velocity": 0.8346456692913385
        },
        {
          "duration": 0.10833333333333428,
          "durationTicks": 26,
          "midi": 54,
          "name": "F#3",
          "ticks": 13140,
          "time": 54.75,
          "velocity": 0.3779527559055118
        },
        {
          "duration": 0.0833333333333357,
          "durationTicks": 20,
          "midi": 44,
          "name": "G#2",
          "ticks": 13200,
          "time": 55,
          "velocity": 0.8346456692913385
        },
        {
          "duration": 0.11666666666666714,
          "durationTicks": 28,
          "midi": 36,
          "name": "C2",
          "ticks": 13200,
          "time": 55,
          "velocity": 0.8346456692913385
        },
        {
          "duration": 0.10833333333333428,
          "durationTicks": 26,
          "midi": 54,
          "name": "F#3",
          "ticks": 13260,
          "time": 55.25,
          "velocity": 0.3779527559055118
        },
        {
          "duration": 0.10833333333333428,
          "durationTicks": 26,
          "midi": 40,
          "name": "E2",
          "ticks": 13260,
          "time": 55.25,
          "velocity": 0.5039370078740157
        },
        {
          "duration": 0.11666666666666714,
          "durationTicks": 28,
          "midi": 36,
          "name": "C2",
          "ticks": 13260,
          "time": 55.25,
          "velocity": 0.8346456692913385
        },
        {
          "duration": 0.10833333333333428,
          "durationTicks": 26,
          "midi": 37,
          "name": "C#2",
          "ticks": 13260,
          "time": 55.25,
          "velocity": 0.5039370078740157
        },
        {
          "duration": 0.0833333333333357,
          "durationTicks": 20,
          "midi": 44,
          "name": "G#2",
          "ticks": 13320,
          "time": 55.5,
          "velocity": 0.8346456692913385
        },
        {
          "duration": 0.11666666666666714,
          "durationTicks": 28,
          "midi": 36,
          "name": "C2",
          "ticks": 13380,
          "time": 55.75,
          "velocity": 0.8346456692913385
        },
        {
          "duration": 0.10833333333333428,
          "durationTicks": 26,
          "midi": 54,
          "name": "F#3",
          "ticks": 13380,
          "time": 55.75,
          "velocity": 0.3779527559055118
        },
        {
          "duration": 0.11666666666666714,
          "durationTicks": 28,
          "midi": 36,
          "name": "C2",
          "ticks": 13440,
          "time": 56,
          "velocity": 0.8346456692913385
        },
        {
          "duration": 0.1666666666666643,
          "durationTicks": 40,
          "midi": 46,
          "name": "A#2",
          "ticks": 13440,
          "time": 56,
          "velocity": 0.7322834645669292
        },
        {
          "duration": 0.10833333333333428,
          "durationTicks": 26,
          "midi": 54,
          "name": "F#3",
          "ticks": 13500,
          "time": 56.25,
          "velocity": 0.5039370078740157
        },
        {
          "duration": 0.11666666666666714,
          "durationTicks": 28,
          "midi": 36,
          "name": "C2",
          "ticks": 13560,
          "time": 56.5,
          "velocity": 0.8346456692913385
        },
        {
          "duration": 0.10833333333333428,
          "durationTicks": 26,
          "midi": 37,
          "name": "C#2",
          "ticks": 13560,
          "time": 56.5,
          "velocity": 0.5039370078740157
        },
        {
          "duration": 0.10833333333333428,
          "durationTicks": 26,
          "midi": 40,
          "name": "E2",
          "ticks": 13560,
          "time": 56.5,
          "velocity": 0.5039370078740157
        },
        {
          "duration": 0.0833333333333357,
          "durationTicks": 20,
          "midi": 44,
          "name": "G#2",
          "ticks": 13560,
          "time": 56.5,
          "velocity": 0.8346456692913385
        },
        {
          "duration": 0.10833333333333428,
          "durationTicks": 26,
          "midi": 54,
          "name": "F#3",
          "ticks": 13620,
          "time": 56.75,
          "velocity": 0.5039370078740157
        },
        {
          "duration": 0.11666666666666714,
          "durationTicks": 28,
          "midi": 36,
          "name": "C2",
          "ticks": 13620,
          "time": 56.75,
          "velocity": 0.8346456692913385
        },
        {
          "duration": 0.0833333333333357,
          "durationTicks": 20,
          "midi": 44,
          "name": "G#2",
          "ticks": 13680,
          "time": 57,
          "velocity": 0.8346456692913385
        },
        {
          "duration": 0.11666666666666714,
          "durationTicks": 28,
          "midi": 36,
          "name": "C2",
          "ticks": 13680,
          "time": 57,
          "velocity": 0.8346456692913385
        },
        {
          "duration": 0.11666666666666714,
          "durationTicks": 28,
          "midi": 36,
          "name": "C2",
          "ticks": 13740,
          "time": 57.25,
          "velocity": 0.8346456692913385
        },
        {
          "duration": 0.10833333333333428,
          "durationTicks": 26,
          "midi": 40,
          "name": "E2",
          "ticks": 13740,
          "time": 57.25,
          "velocity": 0.5039370078740157
        },
        {
          "duration": 0.10833333333333428,
          "durationTicks": 26,
          "midi": 37,
          "name": "C#2",
          "ticks": 13740,
          "time": 57.25,
          "velocity": 0.5039370078740157
        },
        {
          "duration": 0.10833333333333428,
          "durationTicks": 26,
          "midi": 54,
          "name": "F#3",
          "ticks": 13740,
          "time": 57.25,
          "velocity": 0.5039370078740157
        },
        {
          "duration": 0.0833333333333357,
          "durationTicks": 20,
          "midi": 44,
          "name": "G#2",
          "ticks": 13800,
          "time": 57.5,
          "velocity": 0.8346456692913385
        },
        {
          "duration": 0.10833333333333428,
          "durationTicks": 26,
          "midi": 54,
          "name": "F#3",
          "ticks": 13860,
          "time": 57.75,
          "velocity": 0.3779527559055118
        },
        {
          "duration": 0.11666666666666714,
          "durationTicks": 28,
          "midi": 36,
          "name": "C2",
          "ticks": 13860,
          "time": 57.75,
          "velocity": 0.8346456692913385
        },
        {
          "duration": 0.11666666666666714,
          "durationTicks": 28,
          "midi": 36,
          "name": "C2",
          "ticks": 13920,
          "time": 58,
          "velocity": 0.8346456692913385
        },
        {
          "duration": 0.0833333333333357,
          "durationTicks": 20,
          "midi": 44,
          "name": "G#2",
          "ticks": 13920,
          "time": 58,
          "velocity": 0.8346456692913385
        },
        {
          "duration": 0.10833333333333428,
          "durationTicks": 26,
          "midi": 54,
          "name": "F#3",
          "ticks": 13980,
          "time": 58.25,
          "velocity": 0.3779527559055118
        },
        {
          "duration": 0.11666666666666714,
          "durationTicks": 28,
          "midi": 36,
          "name": "C2",
          "ticks": 14040,
          "time": 58.5,
          "velocity": 0.8346456692913385
        },
        {
          "duration": 0.10833333333333428,
          "durationTicks": 26,
          "midi": 40,
          "name": "E2",
          "ticks": 14040,
          "time": 58.5,
          "velocity": 0.5039370078740157
        },
        {
          "duration": 0.10833333333333428,
          "durationTicks": 26,
          "midi": 37,
          "name": "C#2",
          "ticks": 14040,
          "time": 58.5,
          "velocity": 0.5039370078740157
        },
        {
          "duration": 0.0833333333333357,
          "durationTicks": 20,
          "midi": 44,
          "name": "G#2",
          "ticks": 14040,
          "time": 58.5,
          "velocity": 0.8346456692913385
        },
        {
          "duration": 0.10833333333333428,
          "durationTicks": 26,
          "midi": 54,
          "name": "F#3",
          "ticks": 14100,
          "time": 58.75,
          "velocity": 0.3779527559055118
        },
        {
          "duration": 0.11666666666666714,
          "durationTicks": 28,
          "midi": 36,
          "name": "C2",
          "ticks": 14100,
          "time": 58.75,
          "velocity": 0.8346456692913385
        },
        {
          "duration": 0.0833333333333357,
          "durationTicks": 20,
          "midi": 44,
          "name": "G#2",
          "ticks": 14160,
          "time": 59,
          "velocity": 0.8346456692913385
        },
        {
          "duration": 0.11666666666666714,
          "durationTicks": 28,
          "midi": 36,
          "name": "C2",
          "ticks": 14160,
          "time": 59,
          "velocity": 0.8346456692913385
        },
        {
          "duration": 0.10833333333333428,
          "durationTicks": 26,
          "midi": 40,
          "name": "E2",
          "ticks": 14220,
          "time": 59.25,
          "velocity": 0.5039370078740157
        },
        {
          "duration": 0.11666666666666714,
          "durationTicks": 28,
          "midi": 36,
          "name": "C2",
          "ticks": 14220,
          "time": 59.25,
          "velocity": 0.8346456692913385
        },
        {
          "duration": 0.10833333333333428,
          "durationTicks": 26,
          "midi": 37,
          "name": "C#2",
          "ticks": 14220,
          "time": 59.25,
          "velocity": 0.5039370078740157
        },
        {
          "duration": 0.10833333333333428,
          "durationTicks": 26,
          "midi": 54,
          "name": "F#3",
          "ticks": 14220,
          "time": 59.25,
          "velocity": 0.3779527559055118
        },
        {
          "duration": 0.0833333333333357,
          "durationTicks": 20,
          "midi": 44,
          "name": "G#2",
          "ticks": 14280,
          "time": 59.5,
          "velocity": 0.8346456692913385
        },
        {
          "duration": 0.10833333333333428,
          "durationTicks": 26,
          "midi": 54,
          "name": "F#3",
          "ticks": 14340,
          "time": 59.75,
          "velocity": 0.3779527559055118
        },
        {
          "duration": 0.11666666666666714,
          "durationTicks": 28,
          "midi": 36,
          "name": "C2",
          "ticks": 14340,
          "time": 59.75,
          "velocity": 0.8346456692913385
        },
        {
          "duration": 0.1666666666666643,
          "durationTicks": 40,
          "midi": 46,
          "name": "A#2",
          "ticks": 14400,
          "time": 60,
          "velocity": 0.7322834645669292
        },
        {
          "duration": 0.11666666666666714,
          "durationTicks": 28,
          "midi": 36,
          "name": "C2",
          "ticks": 14400,
          "time": 60,
          "velocity": 0.8346456692913385
        },
        {
          "duration": 0.10833333333333428,
          "durationTicks": 26,
          "midi": 54,
          "name": "F#3",
          "ticks": 14460,
          "time": 60.25,
          "velocity": 0.5039370078740157
        },
        {
          "duration": 0.10833333333333428,
          "durationTicks": 26,
          "midi": 40,
          "name": "E2",
          "ticks": 14520,
          "time": 60.5,
          "velocity": 0.5039370078740157
        },
        {
          "duration": 0.11666666666666714,
          "durationTicks": 28,
          "midi": 36,
          "name": "C2",
          "ticks": 14520,
          "time": 60.5,
          "velocity": 0.8346456692913385
        },
        {
          "duration": 0.0833333333333357,
          "durationTicks": 20,
          "midi": 44,
          "name": "G#2",
          "ticks": 14520,
          "time": 60.5,
          "velocity": 0.8346456692913385
        },
        {
          "duration": 0.10833333333333428,
          "durationTicks": 26,
          "midi": 37,
          "name": "C#2",
          "ticks": 14520,
          "time": 60.5,
          "velocity": 0.5039370078740157
        },
        {
          "duration": 0.11666666666666714,
          "durationTicks": 28,
          "midi": 36,
          "name": "C2",
          "ticks": 14580,
          "time": 60.75,
          "velocity": 0.8346456692913385
        },
        {
          "duration": 0.10833333333333428,
          "durationTicks": 26,
          "midi": 54,
          "name": "F#3",
          "ticks": 14580,
          "time": 60.75,
          "velocity": 0.5039370078740157
        },
        {
          "duration": 0.11666666666666714,
          "durationTicks": 28,
          "midi": 36,
          "name": "C2",
          "ticks": 14640,
          "time": 61,
          "velocity": 0.8346456692913385
        },
        {
          "duration": 0.0833333333333357,
          "durationTicks": 20,
          "midi": 44,
          "name": "G#2",
          "ticks": 14640,
          "time": 61,
          "velocity": 0.8346456692913385
        },
        {
          "duration": 0.10833333333333428,
          "durationTicks": 26,
          "midi": 37,
          "name": "C#2",
          "ticks": 14700,
          "time": 61.25,
          "velocity": 0.5039370078740157
        },
        {
          "duration": 0.11666666666666714,
          "durationTicks": 28,
          "midi": 36,
          "name": "C2",
          "ticks": 14700,
          "time": 61.25,
          "velocity": 0.8346456692913385
        },
        {
          "duration": 0.10833333333333428,
          "durationTicks": 26,
          "midi": 40,
          "name": "E2",
          "ticks": 14700,
          "time": 61.25,
          "velocity": 0.5039370078740157
        },
        {
          "duration": 0.10833333333333428,
          "durationTicks": 26,
          "midi": 54,
          "name": "F#3",
          "ticks": 14700,
          "time": 61.25,
          "velocity": 0.5039370078740157
        },
        {
          "duration": 0.0833333333333357,
          "durationTicks": 20,
          "midi": 44,
          "name": "G#2",
          "ticks": 14760,
          "time": 61.5,
          "velocity": 0.8346456692913385
        },
        {
          "duration": 0.11666666666666714,
          "durationTicks": 28,
          "midi": 36,
          "name": "C2",
          "ticks": 14820,
          "time": 61.75,
          "velocity": 0.8346456692913385
        },
        {
          "duration": 0.10833333333333428,
          "durationTicks": 26,
          "midi": 54,
          "name": "F#3",
          "ticks": 14820,
          "time": 61.75,
          "velocity": 0.3779527559055118
        },
        {
          "duration": 0.11666666666666714,
          "durationTicks": 28,
          "midi": 36,
          "name": "C2",
          "ticks": 14880,
          "time": 62,
          "velocity": 0.8346456692913385
        },
        {
          "duration": 0.0833333333333357,
          "durationTicks": 20,
          "midi": 44,
          "name": "G#2",
          "ticks": 14880,
          "time": 62,
          "velocity": 0.8346456692913385
        },
        {
          "duration": 0.10833333333333428,
          "durationTicks": 26,
          "midi": 54,
          "name": "F#3",
          "ticks": 14940,
          "time": 62.25,
          "velocity": 0.3779527559055118
        },
        {
          "duration": 0.11666666666666714,
          "durationTicks": 28,
          "midi": 36,
          "name": "C2",
          "ticks": 15000,
          "time": 62.5,
          "velocity": 0.8346456692913385
        },
        {
          "duration": 0.0833333333333357,
          "durationTicks": 20,
          "midi": 44,
          "name": "G#2",
          "ticks": 15000,
          "time": 62.5,
          "velocity": 0.8346456692913385
        },
        {
          "duration": 0.10833333333333428,
          "durationTicks": 26,
          "midi": 37,
          "name": "C#2",
          "ticks": 15000,
          "time": 62.5,
          "velocity": 0.5039370078740157
        },
        {
          "duration": 0.10833333333333428,
          "durationTicks": 26,
          "midi": 40,
          "name": "E2",
          "ticks": 15000,
          "time": 62.5,
          "velocity": 0.5039370078740157
        },
        {
          "duration": 0.11666666666666714,
          "durationTicks": 28,
          "midi": 36,
          "name": "C2",
          "ticks": 15060,
          "time": 62.75,
          "velocity": 0.8346456692913385
        },
        {
          "duration": 0.10833333333333428,
          "durationTicks": 26,
          "midi": 54,
          "name": "F#3",
          "ticks": 15060,
          "time": 62.75,
          "velocity": 0.3779527559055118
        },
        {
          "duration": 0.11666666666666714,
          "durationTicks": 28,
          "midi": 36,
          "name": "C2",
          "ticks": 15120,
          "time": 63,
          "velocity": 0.8346456692913385
        },
        {
          "duration": 0.0833333333333357,
          "durationTicks": 20,
          "midi": 44,
          "name": "G#2",
          "ticks": 15120,
          "time": 63,
          "velocity": 0.8346456692913385
        },
        {
          "duration": 0.10833333333333428,
          "durationTicks": 26,
          "midi": 54,
          "name": "F#3",
          "ticks": 15180,
          "time": 63.25,
          "velocity": 0.3779527559055118
        },
        {
          "duration": 0.10833333333333428,
          "durationTicks": 26,
          "midi": 40,
          "name": "E2",
          "ticks": 15180,
          "time": 63.25,
          "velocity": 0.5039370078740157
        },
        {
          "duration": 0.10833333333333428,
          "durationTicks": 26,
          "midi": 37,
          "name": "C#2",
          "ticks": 15180,
          "time": 63.25,
          "velocity": 0.5039370078740157
        },
        {
          "duration": 0.11666666666666714,
          "durationTicks": 28,
          "midi": 36,
          "name": "C2",
          "ticks": 15180,
          "time": 63.25,
          "velocity": 0.8346456692913385
        },
        {
          "duration": 0.0833333333333357,
          "durationTicks": 20,
          "midi": 44,
          "name": "G#2",
          "ticks": 15240,
          "time": 63.5,
          "velocity": 0.8346456692913385
        },
        {
          "duration": 0.10833333333333428,
          "durationTicks": 26,
          "midi": 54,
          "name": "F#3",
          "ticks": 15300,
          "time": 63.75,
          "velocity": 0.3779527559055118
        },
        {
          "duration": 0.11666666666666714,
          "durationTicks": 28,
          "midi": 36,
          "name": "C2",
          "ticks": 15300,
          "time": 63.75,
          "velocity": 0.8346456692913385
        },
        {
          "duration": 0.0833333333333286,
          "durationTicks": 20,
          "midi": 55,
          "name": "G3",
          "ticks": 15360,
          "time": 64,
          "velocity": 0.8346456692913385
        },
        {
          "duration": 0.11666666666666003,
          "durationTicks": 28,
          "midi": 36,
          "name": "C2",
          "ticks": 15360,
          "time": 64,
          "velocity": 0.8346456692913385
        },
        {
          "duration": 0.0833333333333286,
          "durationTicks": 20,
          "midi": 44,
          "name": "G#2",
          "ticks": 15360,
          "time": 64,
          "velocity": 0.8346456692913385
        },
        {
          "duration": 0.10833333333333428,
          "durationTicks": 26,
          "midi": 54,
          "name": "F#3",
          "ticks": 15420,
          "time": 64.25,
          "velocity": 0.5039370078740157
        },
        {
          "duration": 0.10833333333333428,
          "durationTicks": 26,
          "midi": 37,
          "name": "C#2",
          "ticks": 15480,
          "time": 64.5,
          "velocity": 0.5039370078740157
        },
        {
          "duration": 0.10833333333333428,
          "durationTicks": 26,
          "midi": 40,
          "name": "E2",
          "ticks": 15480,
          "time": 64.5,
          "velocity": 0.5039370078740157
        },
        {
          "duration": 0.0833333333333286,
          "durationTicks": 20,
          "midi": 44,
          "name": "G#2",
          "ticks": 15480,
          "time": 64.5,
          "velocity": 0.8346456692913385
        },
        {
          "duration": 0.11666666666666003,
          "durationTicks": 28,
          "midi": 36,
          "name": "C2",
          "ticks": 15480,
          "time": 64.5,
          "velocity": 0.8346456692913385
        },
        {
          "duration": 0.10833333333333428,
          "durationTicks": 26,
          "midi": 54,
          "name": "F#3",
          "ticks": 15540,
          "time": 64.75,
          "velocity": 0.5039370078740157
        },
        {
          "duration": 0.11666666666666003,
          "durationTicks": 28,
          "midi": 36,
          "name": "C2",
          "ticks": 15540,
          "time": 64.75,
          "velocity": 0.8346456692913385
        },
        {
          "duration": 0.11666666666666003,
          "durationTicks": 28,
          "midi": 36,
          "name": "C2",
          "ticks": 15600,
          "time": 65,
          "velocity": 0.8346456692913385
        },
        {
          "duration": 0.0833333333333286,
          "durationTicks": 20,
          "midi": 44,
          "name": "G#2",
          "ticks": 15600,
          "time": 65,
          "velocity": 0.8346456692913385
        },
        {
          "duration": 0.10833333333333428,
          "durationTicks": 26,
          "midi": 37,
          "name": "C#2",
          "ticks": 15660,
          "time": 65.25,
          "velocity": 0.5039370078740157
        },
        {
          "duration": 0.11666666666666003,
          "durationTicks": 28,
          "midi": 36,
          "name": "C2",
          "ticks": 15660,
          "time": 65.25,
          "velocity": 0.8346456692913385
        },
        {
          "duration": 0.10833333333333428,
          "durationTicks": 26,
          "midi": 40,
          "name": "E2",
          "ticks": 15660,
          "time": 65.25,
          "velocity": 0.5039370078740157
        },
        {
          "duration": 0.10833333333333428,
          "durationTicks": 26,
          "midi": 54,
          "name": "F#3",
          "ticks": 15660,
          "time": 65.25,
          "velocity": 0.5039370078740157
        },
        {
          "duration": 0.0833333333333286,
          "durationTicks": 20,
          "midi": 44,
          "name": "G#2",
          "ticks": 15720,
          "time": 65.5,
          "velocity": 0.8346456692913385
        },
        {
          "duration": 0.10833333333333428,
          "durationTicks": 26,
          "midi": 54,
          "name": "F#3",
          "ticks": 15780,
          "time": 65.75,
          "velocity": 0.3779527559055118
        },
        {
          "duration": 0.11666666666666003,
          "durationTicks": 28,
          "midi": 36,
          "name": "C2",
          "ticks": 15780,
          "time": 65.75,
          "velocity": 0.8346456692913385
        },
        {
          "duration": 0.0833333333333286,
          "durationTicks": 20,
          "midi": 44,
          "name": "G#2",
          "ticks": 15840,
          "time": 66,
          "velocity": 0.8346456692913385
        },
        {
          "duration": 0.11666666666666003,
          "durationTicks": 28,
          "midi": 36,
          "name": "C2",
          "ticks": 15840,
          "time": 66,
          "velocity": 0.8346456692913385
        },
        {
          "duration": 0.10833333333333428,
          "durationTicks": 26,
          "midi": 54,
          "name": "F#3",
          "ticks": 15900,
          "time": 66.25,
          "velocity": 0.3779527559055118
        },
        {
          "duration": 0.0833333333333286,
          "durationTicks": 20,
          "midi": 44,
          "name": "G#2",
          "ticks": 15960,
          "time": 66.5,
          "velocity": 0.8346456692913385
        },
        {
          "duration": 0.10833333333333428,
          "durationTicks": 26,
          "midi": 37,
          "name": "C#2",
          "ticks": 15960,
          "time": 66.5,
          "velocity": 0.5039370078740157
        },
        {
          "duration": 0.11666666666666003,
          "durationTicks": 28,
          "midi": 36,
          "name": "C2",
          "ticks": 15960,
          "time": 66.5,
          "velocity": 0.8346456692913385
        },
        {
          "duration": 0.10833333333333428,
          "durationTicks": 26,
          "midi": 40,
          "name": "E2",
          "ticks": 15960,
          "time": 66.5,
          "velocity": 0.5039370078740157
        },
        {
          "duration": 0.11666666666666003,
          "durationTicks": 28,
          "midi": 36,
          "name": "C2",
          "ticks": 16020,
          "time": 66.75,
          "velocity": 0.8346456692913385
        },
        {
          "duration": 0.10833333333333428,
          "durationTicks": 26,
          "midi": 54,
          "name": "F#3",
          "ticks": 16020,
          "time": 66.75,
          "velocity": 0.3779527559055118
        },
        {
          "duration": 0.11666666666666003,
          "durationTicks": 28,
          "midi": 36,
          "name": "C2",
          "ticks": 16080,
          "time": 67,
          "velocity": 0.8346456692913385
        },
        {
          "duration": 0.0833333333333286,
          "durationTicks": 20,
          "midi": 44,
          "name": "G#2",
          "ticks": 16080,
          "time": 67,
          "velocity": 0.8346456692913385
        },
        {
          "duration": 0.11666666666666003,
          "durationTicks": 28,
          "midi": 36,
          "name": "C2",
          "ticks": 16140,
          "time": 67.25,
          "velocity": 0.8346456692913385
        },
        {
          "duration": 0.10833333333333428,
          "durationTicks": 26,
          "midi": 40,
          "name": "E2",
          "ticks": 16140,
          "time": 67.25,
          "velocity": 0.5039370078740157
        },
        {
          "duration": 0.10833333333333428,
          "durationTicks": 26,
          "midi": 54,
          "name": "F#3",
          "ticks": 16140,
          "time": 67.25,
          "velocity": 0.3779527559055118
        },
        {
          "duration": 0.10833333333333428,
          "durationTicks": 26,
          "midi": 37,
          "name": "C#2",
          "ticks": 16140,
          "time": 67.25,
          "velocity": 0.5039370078740157
        },
        {
          "duration": 0.0833333333333286,
          "durationTicks": 20,
          "midi": 44,
          "name": "G#2",
          "ticks": 16200,
          "time": 67.5,
          "velocity": 0.8346456692913385
        },
        {
          "duration": 0.10833333333333428,
          "durationTicks": 26,
          "midi": 54,
          "name": "F#3",
          "ticks": 16260,
          "time": 67.75,
          "velocity": 0.3779527559055118
        },
        {
          "duration": 0.11666666666666003,
          "durationTicks": 28,
          "midi": 36,
          "name": "C2",
          "ticks": 16260,
          "time": 67.75,
          "velocity": 0.8346456692913385
        },
        {
          "duration": 0.0833333333333286,
          "durationTicks": 20,
          "midi": 51,
          "name": "D#3",
          "ticks": 16320,
          "time": 68,
          "velocity": 0.8346456692913385
        },
        {
          "duration": 0.11666666666666003,
          "durationTicks": 28,
          "midi": 36,
          "name": "C2",
          "ticks": 16320,
          "time": 68,
          "velocity": 0.8346456692913385
        },
        {
          "duration": 0.0833333333333286,
          "durationTicks": 20,
          "midi": 44,
          "name": "G#2",
          "ticks": 16320,
          "time": 68,
          "velocity": 0.8346456692913385
        },
        {
          "duration": 0.10833333333333428,
          "durationTicks": 26,
          "midi": 54,
          "name": "F#3",
          "ticks": 16380,
          "time": 68.25,
          "velocity": 0.3779527559055118
        },
        {
          "duration": 0.10833333333333428,
          "durationTicks": 26,
          "midi": 37,
          "name": "C#2",
          "ticks": 16440,
          "time": 68.5,
          "velocity": 0.5039370078740157
        },
        {
          "duration": 0.0833333333333286,
          "durationTicks": 20,
          "midi": 44,
          "name": "G#2",
          "ticks": 16440,
          "time": 68.5,
          "velocity": 0.8346456692913385
        },
        {
          "duration": 0.11666666666666003,
          "durationTicks": 28,
          "midi": 36,
          "name": "C2",
          "ticks": 16440,
          "time": 68.5,
          "velocity": 0.8346456692913385
        },
        {
          "duration": 0.10833333333333428,
          "durationTicks": 26,
          "midi": 40,
          "name": "E2",
          "ticks": 16440,
          "time": 68.5,
          "velocity": 0.5039370078740157
        },
        {
          "duration": 0.10833333333333428,
          "durationTicks": 26,
          "midi": 54,
          "name": "F#3",
          "ticks": 16500,
          "time": 68.75,
          "velocity": 0.3779527559055118
        },
        {
          "duration": 0.11666666666666003,
          "durationTicks": 28,
          "midi": 36,
          "name": "C2",
          "ticks": 16500,
          "time": 68.75,
          "velocity": 0.8346456692913385
        },
        {
          "duration": 0.0833333333333286,
          "durationTicks": 20,
          "midi": 44,
          "name": "G#2",
          "ticks": 16560,
          "time": 69,
          "velocity": 0.8346456692913385
        },
        {
          "duration": 0.11666666666666003,
          "durationTicks": 28,
          "midi": 36,
          "name": "C2",
          "ticks": 16560,
          "time": 69,
          "velocity": 0.8346456692913385
        },
        {
          "duration": 0.10833333333333428,
          "durationTicks": 26,
          "midi": 40,
          "name": "E2",
          "ticks": 16620,
          "time": 69.25,
          "velocity": 0.5039370078740157
        },
        {
          "duration": 0.11666666666666003,
          "durationTicks": 28,
          "midi": 36,
          "name": "C2",
          "ticks": 16620,
          "time": 69.25,
          "velocity": 0.8346456692913385
        },
        {
          "duration": 0.10833333333333428,
          "durationTicks": 26,
          "midi": 37,
          "name": "C#2",
          "ticks": 16620,
          "time": 69.25,
          "velocity": 0.5039370078740157
        },
        {
          "duration": 0.10833333333333428,
          "durationTicks": 26,
          "midi": 54,
          "name": "F#3",
          "ticks": 16620,
          "time": 69.25,
          "velocity": 0.3779527559055118
        },
        {
          "duration": 0.0833333333333286,
          "durationTicks": 20,
          "midi": 44,
          "name": "G#2",
          "ticks": 16680,
          "time": 69.5,
          "velocity": 0.8346456692913385
        },
        {
          "duration": 0.11666666666666003,
          "durationTicks": 28,
          "midi": 36,
          "name": "C2",
          "ticks": 16740,
          "time": 69.75,
          "velocity": 0.8346456692913385
        },
        {
          "duration": 0.10833333333333428,
          "durationTicks": 26,
          "midi": 54,
          "name": "F#3",
          "ticks": 16740,
          "time": 69.75,
          "velocity": 0.3779527559055118
        },
        {
          "duration": 0.0833333333333286,
          "durationTicks": 20,
          "midi": 44,
          "name": "G#2",
          "ticks": 16800,
          "time": 70,
          "velocity": 0.8346456692913385
        },
        {
          "duration": 0.11666666666666003,
          "durationTicks": 28,
          "midi": 36,
          "name": "C2",
          "ticks": 16800,
          "time": 70,
          "velocity": 0.8346456692913385
        },
        {
          "duration": 0.09999999999999432,
          "durationTicks": 24,
          "midi": 55,
          "name": "G3",
          "ticks": 17280,
          "time": 72,
          "velocity": 0.8346456692913385
        },
        {
          "duration": 0.0833333333333286,
          "durationTicks": 20,
          "midi": 44,
          "name": "G#2",
          "ticks": 17280,
          "time": 72,
          "velocity": 0.8346456692913385
        },
        {
          "duration": 0.11666666666666003,
          "durationTicks": 28,
          "midi": 36,
          "name": "C2",
          "ticks": 17280,
          "time": 72,
          "velocity": 0.8346456692913385
        },
        {
          "duration": 0.0833333333333286,
          "durationTicks": 20,
          "midi": 59,
          "name": "B3",
          "ticks": 17280,
          "time": 72,
          "velocity": 0.8346456692913385
        },
        {
          "duration": 0.10833333333333428,
          "durationTicks": 26,
          "midi": 54,
          "name": "F#3",
          "ticks": 17340,
          "time": 72.25,
          "velocity": 0.5039370078740157
        },
        {
          "duration": 0.0833333333333286,
          "durationTicks": 20,
          "midi": 44,
          "name": "G#2",
          "ticks": 17340,
          "time": 72.25,
          "velocity": 0.8346456692913385
        },
        {
          "duration": 0.11666666666666003,
          "durationTicks": 28,
          "midi": 36,
          "name": "C2",
          "ticks": 17400,
          "time": 72.5,
          "velocity": 0.8346456692913385
        },
        {
          "duration": 0.0833333333333286,
          "durationTicks": 20,
          "midi": 59,
          "name": "B3",
          "ticks": 17400,
          "time": 72.5,
          "velocity": 0.8346456692913385
        },
        {
          "duration": 0.0833333333333286,
          "durationTicks": 20,
          "midi": 44,
          "name": "G#2",
          "ticks": 17400,
          "time": 72.5,
          "velocity": 0.8346456692913385
        },
        {
          "duration": 0.10833333333333428,
          "durationTicks": 26,
          "midi": 40,
          "name": "E2",
          "ticks": 17400,
          "time": 72.5,
          "velocity": 0.5039370078740157
        },
        {
          "duration": 0.10833333333333428,
          "durationTicks": 26,
          "midi": 37,
          "name": "C#2",
          "ticks": 17400,
          "time": 72.5,
          "velocity": 0.5039370078740157
        },
        {
          "duration": 0.0833333333333286,
          "durationTicks": 20,
          "midi": 44,
          "name": "G#2",
          "ticks": 17460,
          "time": 72.75,
          "velocity": 0.8346456692913385
        },
        {
          "duration": 0.10833333333333428,
          "durationTicks": 26,
          "midi": 54,
          "name": "F#3",
          "ticks": 17460,
          "time": 72.75,
          "velocity": 0.5039370078740157
        },
        {
          "duration": 0.11666666666666003,
          "durationTicks": 28,
          "midi": 36,
          "name": "C2",
          "ticks": 17460,
          "time": 72.75,
          "velocity": 0.8346456692913385
        },
        {
          "duration": 0.11666666666666003,
          "durationTicks": 28,
          "midi": 36,
          "name": "C2",
          "ticks": 17520,
          "time": 73,
          "velocity": 0.8346456692913385
        },
        {
          "duration": 0.0833333333333286,
          "durationTicks": 20,
          "midi": 59,
          "name": "B3",
          "ticks": 17520,
          "time": 73,
          "velocity": 0.8346456692913385
        },
        {
          "duration": 0.0833333333333286,
          "durationTicks": 20,
          "midi": 44,
          "name": "G#2",
          "ticks": 17520,
          "time": 73,
          "velocity": 0.8346456692913385
        },
        {
          "duration": 0.10833333333333428,
          "durationTicks": 26,
          "midi": 37,
          "name": "C#2",
          "ticks": 17580,
          "time": 73.25,
          "velocity": 0.5039370078740157
        },
        {
          "duration": 0.0833333333333286,
          "durationTicks": 20,
          "midi": 44,
          "name": "G#2",
          "ticks": 17580,
          "time": 73.25,
          "velocity": 0.8346456692913385
        },
        {
          "duration": 0.11666666666666003,
          "durationTicks": 28,
          "midi": 36,
          "name": "C2",
          "ticks": 17580,
          "time": 73.25,
          "velocity": 0.8346456692913385
        },
        {
          "duration": 0.10833333333333428,
          "durationTicks": 26,
          "midi": 40,
          "name": "E2",
          "ticks": 17580,
          "time": 73.25,
          "velocity": 0.5039370078740157
        },
        {
          "duration": 0.10833333333333428,
          "durationTicks": 26,
          "midi": 54,
          "name": "F#3",
          "ticks": 17580,
          "time": 73.25,
          "velocity": 0.5039370078740157
        },
        {
          "duration": 0.0833333333333286,
          "durationTicks": 20,
          "midi": 44,
          "name": "G#2",
          "ticks": 17640,
          "time": 73.5,
          "velocity": 0.8346456692913385
        },
        {
          "duration": 0.0833333333333286,
          "durationTicks": 20,
          "midi": 59,
          "name": "B3",
          "ticks": 17640,
          "time": 73.5,
          "velocity": 0.8346456692913385
        },
        {
          "duration": 0.11666666666666003,
          "durationTicks": 28,
          "midi": 36,
          "name": "C2",
          "ticks": 17640,
          "time": 73.5,
          "velocity": 0.8346456692913385
        },
        {
          "duration": 0.0833333333333286,
          "durationTicks": 20,
          "midi": 44,
          "name": "G#2",
          "ticks": 17700,
          "time": 73.75,
          "velocity": 0.8346456692913385
        },
        {
          "duration": 0.11666666666666003,
          "durationTicks": 28,
          "midi": 36,
          "name": "C2",
          "ticks": 17700,
          "time": 73.75,
          "velocity": 0.8346456692913385
        },
        {
          "duration": 0.10833333333333428,
          "durationTicks": 26,
          "midi": 54,
          "name": "F#3",
          "ticks": 17700,
          "time": 73.75,
          "velocity": 0.5039370078740157
        },
        {
          "duration": 0.11666666666666003,
          "durationTicks": 28,
          "midi": 36,
          "name": "C2",
          "ticks": 17760,
          "time": 74,
          "velocity": 0.8346456692913385
        },
        {
          "duration": 0.0833333333333286,
          "durationTicks": 20,
          "midi": 59,
          "name": "B3",
          "ticks": 17760,
          "time": 74,
          "velocity": 0.8346456692913385
        },
        {
          "duration": 0.0833333333333286,
          "durationTicks": 20,
          "midi": 44,
          "name": "G#2",
          "ticks": 17760,
          "time": 74,
          "velocity": 0.8346456692913385
        },
        {
          "duration": 0.0833333333333286,
          "durationTicks": 20,
          "midi": 44,
          "name": "G#2",
          "ticks": 17820,
          "time": 74.25,
          "velocity": 0.8346456692913385
        },
        {
          "duration": 0.10833333333333428,
          "durationTicks": 26,
          "midi": 54,
          "name": "F#3",
          "ticks": 17820,
          "time": 74.25,
          "velocity": 0.5039370078740157
        },
        {
          "duration": 0.11666666666666003,
          "durationTicks": 28,
          "midi": 36,
          "name": "C2",
          "ticks": 17880,
          "time": 74.5,
          "velocity": 0.8346456692913385
        },
        {
          "duration": 0.10833333333333428,
          "durationTicks": 26,
          "midi": 37,
          "name": "C#2",
          "ticks": 17880,
          "time": 74.5,
          "velocity": 0.5039370078740157
        },
        {
          "duration": 0.0833333333333286,
          "durationTicks": 20,
          "midi": 59,
          "name": "B3",
          "ticks": 17880,
          "time": 74.5,
          "velocity": 0.8346456692913385
        },
        {
          "duration": 0.10833333333333428,
          "durationTicks": 26,
          "midi": 40,
          "name": "E2",
          "ticks": 17880,
          "time": 74.5,
          "velocity": 0.5039370078740157
        },
        {
          "duration": 0.0833333333333286,
          "durationTicks": 20,
          "midi": 44,
          "name": "G#2",
          "ticks": 17880,
          "time": 74.5,
          "velocity": 0.8346456692913385
        },
        {
          "duration": 0.10833333333333428,
          "durationTicks": 26,
          "midi": 54,
          "name": "F#3",
          "ticks": 17940,
          "time": 74.75,
          "velocity": 0.5039370078740157
        },
        {
          "duration": 0.0833333333333286,
          "durationTicks": 20,
          "midi": 44,
          "name": "G#2",
          "ticks": 17940,
          "time": 74.75,
          "velocity": 0.8346456692913385
        },
        {
          "duration": 0.11666666666666003,
          "durationTicks": 28,
          "midi": 36,
          "name": "C2",
          "ticks": 17940,
          "time": 74.75,
          "velocity": 0.8346456692913385
        },
        {
          "duration": 0.0833333333333286,
          "durationTicks": 20,
          "midi": 59,
          "name": "B3",
          "ticks": 18000,
          "time": 75,
          "velocity": 0.8346456692913385
        },
        {
          "duration": 0.11666666666666003,
          "durationTicks": 28,
          "midi": 36,
          "name": "C2",
          "ticks": 18000,
          "time": 75,
          "velocity": 0.8346456692913385
        },
        {
          "duration": 0.0833333333333286,
          "durationTicks": 20,
          "midi": 44,
          "name": "G#2",
          "ticks": 18000,
          "time": 75,
          "velocity": 0.8346456692913385
        },
        {
          "duration": 0.10833333333333428,
          "durationTicks": 26,
          "midi": 54,
          "name": "F#3",
          "ticks": 18060,
          "time": 75.25,
          "velocity": 0.5039370078740157
        },
        {
          "duration": 0.10833333333333428,
          "durationTicks": 26,
          "midi": 37,
          "name": "C#2",
          "ticks": 18060,
          "time": 75.25,
          "velocity": 0.5039370078740157
        },
        {
          "duration": 0.0833333333333286,
          "durationTicks": 20,
          "midi": 44,
          "name": "G#2",
          "ticks": 18060,
          "time": 75.25,
          "velocity": 0.8346456692913385
        },
        {
          "duration": 0.11666666666666003,
          "durationTicks": 28,
          "midi": 36,
          "name": "C2",
          "ticks": 18060,
          "time": 75.25,
          "velocity": 0.8346456692913385
        },
        {
          "duration": 0.10833333333333428,
          "durationTicks": 26,
          "midi": 40,
          "name": "E2",
          "ticks": 18060,
          "time": 75.25,
          "velocity": 0.5039370078740157
        },
        {
          "duration": 0.0833333333333286,
          "durationTicks": 20,
          "midi": 44,
          "name": "G#2",
          "ticks": 18120,
          "time": 75.5,
          "velocity": 0.8346456692913385
        },
        {
          "duration": 0.11666666666666003,
          "durationTicks": 28,
          "midi": 36,
          "name": "C2",
          "ticks": 18120,
          "time": 75.5,
          "velocity": 0.8346456692913385
        },
        {
          "duration": 0.0833333333333286,
          "durationTicks": 20,
          "midi": 59,
          "name": "B3",
          "ticks": 18120,
          "time": 75.5,
          "velocity": 0.8346456692913385
        },
        {
          "duration": 0.11666666666666003,
          "durationTicks": 28,
          "midi": 36,
          "name": "C2",
          "ticks": 18180,
          "time": 75.75,
          "velocity": 0.8346456692913385
        },
        {
          "duration": 0.0833333333333286,
          "durationTicks": 20,
          "midi": 44,
          "name": "G#2",
          "ticks": 18180,
          "time": 75.75,
          "velocity": 0.8346456692913385
        },
        {
          "duration": 0.10833333333333428,
          "durationTicks": 26,
          "midi": 54,
          "name": "F#3",
          "ticks": 18180,
          "time": 75.75,
          "velocity": 0.5039370078740157
        },
        {
          "duration": 0.0833333333333286,
          "durationTicks": 20,
          "midi": 44,
          "name": "G#2",
          "ticks": 18240,
          "time": 76,
          "velocity": 0.8346456692913385
        },
        {
          "duration": 0.0833333333333286,
          "durationTicks": 20,
          "midi": 59,
          "name": "B3",
          "ticks": 18240,
          "time": 76,
          "velocity": 0.8346456692913385
        },
        {
          "duration": 0.11666666666666003,
          "durationTicks": 28,
          "midi": 36,
          "name": "C2",
          "ticks": 18240,
          "time": 76,
          "velocity": 0.8346456692913385
        },
        {
          "duration": 0.10833333333333428,
          "durationTicks": 26,
          "midi": 54,
          "name": "F#3",
          "ticks": 18300,
          "time": 76.25,
          "velocity": 0.5039370078740157
        },
        {
          "duration": 0.0833333333333286,
          "durationTicks": 20,
          "midi": 44,
          "name": "G#2",
          "ticks": 18300,
          "time": 76.25,
          "velocity": 0.8346456692913385
        },
        {
          "duration": 0.10833333333333428,
          "durationTicks": 26,
          "midi": 37,
          "name": "C#2",
          "ticks": 18360,
          "time": 76.5,
          "velocity": 0.5039370078740157
        },
        {
          "duration": 0.11666666666666003,
          "durationTicks": 28,
          "midi": 36,
          "name": "C2",
          "ticks": 18360,
          "time": 76.5,
          "velocity": 0.8346456692913385
        },
        {
          "duration": 0.0833333333333286,
          "durationTicks": 20,
          "midi": 59,
          "name": "B3",
          "ticks": 18360,
          "time": 76.5,
          "velocity": 0.8346456692913385
        },
        {
          "duration": 0.0833333333333286,
          "durationTicks": 20,
          "midi": 44,
          "name": "G#2",
          "ticks": 18360,
          "time": 76.5,
          "velocity": 0.8346456692913385
        },
        {
          "duration": 0.10833333333333428,
          "durationTicks": 26,
          "midi": 40,
          "name": "E2",
          "ticks": 18360,
          "time": 76.5,
          "velocity": 0.5039370078740157
        },
        {
          "duration": 0.10833333333333428,
          "durationTicks": 26,
          "midi": 54,
          "name": "F#3",
          "ticks": 18420,
          "time": 76.75,
          "velocity": 0.5039370078740157
        },
        {
          "duration": 0.11666666666666003,
          "durationTicks": 28,
          "midi": 36,
          "name": "C2",
          "ticks": 18420,
          "time": 76.75,
          "velocity": 0.8346456692913385
        },
        {
          "duration": 0.0833333333333286,
          "durationTicks": 20,
          "midi": 44,
          "name": "G#2",
          "ticks": 18420,
          "time": 76.75,
          "velocity": 0.8346456692913385
        },
        {
          "duration": 0.11666666666666003,
          "durationTicks": 28,
          "midi": 36,
          "name": "C2",
          "ticks": 18480,
          "time": 77,
          "velocity": 0.8346456692913385
        },
        {
          "duration": 0.0833333333333286,
          "durationTicks": 20,
          "midi": 44,
          "name": "G#2",
          "ticks": 18480,
          "time": 77,
          "velocity": 0.8346456692913385
        },
        {
          "duration": 0.0833333333333286,
          "durationTicks": 20,
          "midi": 59,
          "name": "B3",
          "ticks": 18480,
          "time": 77,
          "velocity": 0.8346456692913385
        },
        {
          "duration": 0.10833333333333428,
          "durationTicks": 26,
          "midi": 37,
          "name": "C#2",
          "ticks": 18540,
          "time": 77.25,
          "velocity": 0.5039370078740157
        },
        {
          "duration": 0.0833333333333286,
          "durationTicks": 20,
          "midi": 44,
          "name": "G#2",
          "ticks": 18540,
          "time": 77.25,
          "velocity": 0.8346456692913385
        },
        {
          "duration": 0.10833333333333428,
          "durationTicks": 26,
          "midi": 54,
          "name": "F#3",
          "ticks": 18540,
          "time": 77.25,
          "velocity": 0.5039370078740157
        },
        {
          "duration": 0.10833333333333428,
          "durationTicks": 26,
          "midi": 40,
          "name": "E2",
          "ticks": 18540,
          "time": 77.25,
          "velocity": 0.5039370078740157
        },
        {
          "duration": 0.11666666666666003,
          "durationTicks": 28,
          "midi": 36,
          "name": "C2",
          "ticks": 18540,
          "time": 77.25,
          "velocity": 0.8346456692913385
        },
        {
          "duration": 0.0833333333333286,
          "durationTicks": 20,
          "midi": 44,
          "name": "G#2",
          "ticks": 18600,
          "time": 77.5,
          "velocity": 0.8346456692913385
        },
        {
          "duration": 0.0833333333333286,
          "durationTicks": 20,
          "midi": 59,
          "name": "B3",
          "ticks": 18600,
          "time": 77.5,
          "velocity": 0.8346456692913385
        },
        {
          "duration": 0.11666666666666003,
          "durationTicks": 28,
          "midi": 36,
          "name": "C2",
          "ticks": 18600,
          "time": 77.5,
          "velocity": 0.8346456692913385
        },
        {
          "duration": 0.10833333333333428,
          "durationTicks": 26,
          "midi": 54,
          "name": "F#3",
          "ticks": 18660,
          "time": 77.75,
          "velocity": 0.5039370078740157
        },
        {
          "duration": 0.0833333333333286,
          "durationTicks": 20,
          "midi": 44,
          "name": "G#2",
          "ticks": 18660,
          "time": 77.75,
          "velocity": 0.8346456692913385
        },
        {
          "duration": 0.11666666666666003,
          "durationTicks": 28,
          "midi": 36,
          "name": "C2",
          "ticks": 18660,
          "time": 77.75,
          "velocity": 0.8346456692913385
        },
        {
          "duration": 0.11666666666666003,
          "durationTicks": 28,
          "midi": 36,
          "name": "C2",
          "ticks": 18720,
          "time": 78,
          "velocity": 0.8346456692913385
        },
        {
          "duration": 0.0833333333333286,
          "durationTicks": 20,
          "midi": 59,
          "name": "B3",
          "ticks": 18720,
          "time": 78,
          "velocity": 0.8346456692913385
        },
        {
          "duration": 0.0833333333333286,
          "durationTicks": 20,
          "midi": 44,
          "name": "G#2",
          "ticks": 18720,
          "time": 78,
          "velocity": 0.8346456692913385
        },
        {
          "duration": 0.0833333333333286,
          "durationTicks": 20,
          "midi": 44,
          "name": "G#2",
          "ticks": 18780,
          "time": 78.25,
          "velocity": 0.8346456692913385
        },
        {
          "duration": 0.10833333333333428,
          "durationTicks": 26,
          "midi": 54,
          "name": "F#3",
          "ticks": 18780,
          "time": 78.25,
          "velocity": 0.5039370078740157
        },
        {
          "duration": 0.10833333333333428,
          "durationTicks": 26,
          "midi": 37,
          "name": "C#2",
          "ticks": 18840,
          "time": 78.5,
          "velocity": 0.5039370078740157
        },
        {
          "duration": 0.11666666666666003,
          "durationTicks": 28,
          "midi": 36,
          "name": "C2",
          "ticks": 18840,
          "time": 78.5,
          "velocity": 0.8346456692913385
        },
        {
          "duration": 0.0833333333333286,
          "durationTicks": 20,
          "midi": 44,
          "name": "G#2",
          "ticks": 18840,
          "time": 78.5,
          "velocity": 0.8346456692913385
        },
        {
          "duration": 0.10833333333333428,
          "durationTicks": 26,
          "midi": 40,
          "name": "E2",
          "ticks": 18840,
          "time": 78.5,
          "velocity": 0.5039370078740157
        },
        {
          "duration": 0.0833333333333286,
          "durationTicks": 20,
          "midi": 59,
          "name": "B3",
          "ticks": 18840,
          "time": 78.5,
          "velocity": 0.8346456692913385
        },
        {
          "duration": 0.11666666666666003,
          "durationTicks": 28,
          "midi": 36,
          "name": "C2",
          "ticks": 18900,
          "time": 78.75,
          "velocity": 0.8346456692913385
        },
        {
          "duration": 0.0833333333333286,
          "durationTicks": 20,
          "midi": 44,
          "name": "G#2",
          "ticks": 18900,
          "time": 78.75,
          "velocity": 0.8346456692913385
        },
        {
          "duration": 0.10833333333333428,
          "durationTicks": 26,
          "midi": 54,
          "name": "F#3",
          "ticks": 18900,
          "time": 78.75,
          "velocity": 0.5039370078740157
        },
        {
          "duration": 0.0833333333333286,
          "durationTicks": 20,
          "midi": 59,
          "name": "B3",
          "ticks": 18960,
          "time": 79,
          "velocity": 0.8346456692913385
        },
        {
          "duration": 0.0833333333333286,
          "durationTicks": 20,
          "midi": 44,
          "name": "G#2",
          "ticks": 18960,
          "time": 79,
          "velocity": 0.8346456692913385
        },
        {
          "duration": 0.11666666666666003,
          "durationTicks": 28,
          "midi": 36,
          "name": "C2",
          "ticks": 18960,
          "time": 79,
          "velocity": 0.8346456692913385
        },
        {
          "duration": 0.0833333333333286,
          "durationTicks": 20,
          "midi": 44,
          "name": "G#2",
          "ticks": 19020,
          "time": 79.25,
          "velocity": 0.8346456692913385
        },
        {
          "duration": 0.10833333333333428,
          "durationTicks": 26,
          "midi": 37,
          "name": "C#2",
          "ticks": 19020,
          "time": 79.25,
          "velocity": 0.5039370078740157
        },
        {
          "duration": 0.10833333333333428,
          "durationTicks": 26,
          "midi": 40,
          "name": "E2",
          "ticks": 19020,
          "time": 79.25,
          "velocity": 0.5039370078740157
        },
        {
          "duration": 0.11666666666666003,
          "durationTicks": 28,
          "midi": 36,
          "name": "C2",
          "ticks": 19020,
          "time": 79.25,
          "velocity": 0.8346456692913385
        },
        {
          "duration": 0.10833333333333428,
          "durationTicks": 26,
          "midi": 54,
          "name": "F#3",
          "ticks": 19020,
          "time": 79.25,
          "velocity": 0.5039370078740157
        },
        {
          "duration": 0.0833333333333286,
          "durationTicks": 20,
          "midi": 59,
          "name": "B3",
          "ticks": 19080,
          "time": 79.5,
          "velocity": 0.8346456692913385
        },
        {
          "duration": 0.11666666666666003,
          "durationTicks": 28,
          "midi": 36,
          "name": "C2",
          "ticks": 19080,
          "time": 79.5,
          "velocity": 0.8346456692913385
        },
        {
          "duration": 0.0833333333333286,
          "durationTicks": 20,
          "midi": 44,
          "name": "G#2",
          "ticks": 19080,
          "time": 79.5,
          "velocity": 0.8346456692913385
        },
        {
          "duration": 0.11666666666666003,
          "durationTicks": 28,
          "midi": 36,
          "name": "C2",
          "ticks": 19140,
          "time": 79.75,
          "velocity": 0.8346456692913385
        },
        {
          "duration": 0.0833333333333286,
          "durationTicks": 20,
          "midi": 44,
          "name": "G#2",
          "ticks": 19140,
          "time": 79.75,
          "velocity": 0.8346456692913385
        },
        {
          "duration": 0.10833333333333428,
          "durationTicks": 26,
          "midi": 54,
          "name": "F#3",
          "ticks": 19140,
          "time": 79.75,
          "velocity": 0.5039370078740157
        },
        {
          "duration": 0.11666666666666003,
          "durationTicks": 28,
          "midi": 36,
          "name": "C2",
          "ticks": 19200,
          "time": 80,
          "velocity": 0.8346456692913385
        },
        {
          "duration": 0.0833333333333286,
          "durationTicks": 20,
          "midi": 59,
          "name": "B3",
          "ticks": 19200,
          "time": 80,
          "velocity": 0.8346456692913385
        },
        {
          "duration": 0.0833333333333286,
          "durationTicks": 20,
          "midi": 55,
          "name": "G3",
          "ticks": 19200,
          "time": 80,
          "velocity": 0.8346456692913385
        },
        {
          "duration": 0.0833333333333286,
          "durationTicks": 20,
          "midi": 44,
          "name": "G#2",
          "ticks": 19200,
          "time": 80,
          "velocity": 0.8346456692913385
        },
        {
          "duration": 0.0833333333333286,
          "durationTicks": 20,
          "midi": 44,
          "name": "G#2",
          "ticks": 19260,
          "time": 80.25,
          "velocity": 0.8346456692913385
        },
        {
          "duration": 0.10833333333333428,
          "durationTicks": 26,
          "midi": 54,
          "name": "F#3",
          "ticks": 19260,
          "time": 80.25,
          "velocity": 0.5039370078740157
        },
        {
          "duration": 0.0833333333333286,
          "durationTicks": 20,
          "midi": 59,
          "name": "B3",
          "ticks": 19320,
          "time": 80.5,
          "velocity": 0.8346456692913385
        },
        {
          "duration": 0.10833333333333428,
          "durationTicks": 26,
          "midi": 40,
          "name": "E2",
          "ticks": 19320,
          "time": 80.5,
          "velocity": 0.5039370078740157
        },
        {
          "duration": 0.11666666666666003,
          "durationTicks": 28,
          "midi": 36,
          "name": "C2",
          "ticks": 19320,
          "time": 80.5,
          "velocity": 0.8346456692913385
        },
        {
          "duration": 0.10833333333333428,
          "durationTicks": 26,
          "midi": 37,
          "name": "C#2",
          "ticks": 19320,
          "time": 80.5,
          "velocity": 0.5039370078740157
        },
        {
          "duration": 0.0833333333333286,
          "durationTicks": 20,
          "midi": 44,
          "name": "G#2",
          "ticks": 19320,
          "time": 80.5,
          "velocity": 0.8346456692913385
        },
        {
          "duration": 0.0833333333333286,
          "durationTicks": 20,
          "midi": 44,
          "name": "G#2",
          "ticks": 19380,
          "time": 80.75,
          "velocity": 0.8346456692913385
        },
        {
          "duration": 0.11666666666666003,
          "durationTicks": 28,
          "midi": 36,
          "name": "C2",
          "ticks": 19380,
          "time": 80.75,
          "velocity": 0.8346456692913385
        },
        {
          "duration": 0.10833333333333428,
          "durationTicks": 26,
          "midi": 54,
          "name": "F#3",
          "ticks": 19380,
          "time": 80.75,
          "velocity": 0.5039370078740157
        },
        {
          "duration": 0.0833333333333286,
          "durationTicks": 20,
          "midi": 44,
          "name": "G#2",
          "ticks": 19440,
          "time": 81,
          "velocity": 0.8346456692913385
        },
        {
          "duration": 0.11666666666666003,
          "durationTicks": 28,
          "midi": 36,
          "name": "C2",
          "ticks": 19440,
          "time": 81,
          "velocity": 0.8346456692913385
        },
        {
          "duration": 0.0833333333333286,
          "durationTicks": 20,
          "midi": 59,
          "name": "B3",
          "ticks": 19440,
          "time": 81,
          "velocity": 0.8346456692913385
        },
        {
          "duration": 0.10833333333333428,
          "durationTicks": 26,
          "midi": 40,
          "name": "E2",
          "ticks": 19500,
          "time": 81.25,
          "velocity": 0.5039370078740157
        },
        {
          "duration": 0.10833333333333428,
          "durationTicks": 26,
          "midi": 37,
          "name": "C#2",
          "ticks": 19500,
          "time": 81.25,
          "velocity": 0.5039370078740157
        },
        {
          "duration": 0.0833333333333286,
          "durationTicks": 20,
          "midi": 44,
          "name": "G#2",
          "ticks": 19500,
          "time": 81.25,
          "velocity": 0.8346456692913385
        },
        {
          "duration": 0.10833333333333428,
          "durationTicks": 26,
          "midi": 54,
          "name": "F#3",
          "ticks": 19500,
          "time": 81.25,
          "velocity": 0.5039370078740157
        },
        {
          "duration": 0.11666666666666003,
          "durationTicks": 28,
          "midi": 36,
          "name": "C2",
          "ticks": 19500,
          "time": 81.25,
          "velocity": 0.8346456692913385
        },
        {
          "duration": 0.0833333333333286,
          "durationTicks": 20,
          "midi": 44,
          "name": "G#2",
          "ticks": 19560,
          "time": 81.5,
          "velocity": 0.8346456692913385
        },
        {
          "duration": 0.11666666666666003,
          "durationTicks": 28,
          "midi": 36,
          "name": "C2",
          "ticks": 19560,
          "time": 81.5,
          "velocity": 0.8346456692913385
        },
        {
          "duration": 0.0833333333333286,
          "durationTicks": 20,
          "midi": 59,
          "name": "B3",
          "ticks": 19560,
          "time": 81.5,
          "velocity": 0.8346456692913385
        },
        {
          "duration": 0.0833333333333286,
          "durationTicks": 20,
          "midi": 44,
          "name": "G#2",
          "ticks": 19620,
          "time": 81.75,
          "velocity": 0.8346456692913385
        },
        {
          "duration": 0.10833333333333428,
          "durationTicks": 26,
          "midi": 54,
          "name": "F#3",
          "ticks": 19620,
          "time": 81.75,
          "velocity": 0.5039370078740157
        },
        {
          "duration": 0.11666666666666003,
          "durationTicks": 28,
          "midi": 36,
          "name": "C2",
          "ticks": 19620,
          "time": 81.75,
          "velocity": 0.8346456692913385
        },
        {
          "duration": 0.0833333333333286,
          "durationTicks": 20,
          "midi": 44,
          "name": "G#2",
          "ticks": 19680,
          "time": 82,
          "velocity": 0.8346456692913385
        },
        {
          "duration": 0.0833333333333286,
          "durationTicks": 20,
          "midi": 59,
          "name": "B3",
          "ticks": 19680,
          "time": 82,
          "velocity": 0.8346456692913385
        },
        {
          "duration": 0.11666666666666003,
          "durationTicks": 28,
          "midi": 36,
          "name": "C2",
          "ticks": 19680,
          "time": 82,
          "velocity": 0.8346456692913385
        },
        {
          "duration": 0.0833333333333286,
          "durationTicks": 20,
          "midi": 44,
          "name": "G#2",
          "ticks": 19740,
          "time": 82.25,
          "velocity": 0.8346456692913385
        },
        {
          "duration": 0.10833333333333428,
          "durationTicks": 26,
          "midi": 54,
          "name": "F#3",
          "ticks": 19740,
          "time": 82.25,
          "velocity": 0.5039370078740157
        },
        {
          "duration": 0.10833333333333428,
          "durationTicks": 26,
          "midi": 40,
          "name": "E2",
          "ticks": 19800,
          "time": 82.5,
          "velocity": 0.5039370078740157
        },
        {
          "duration": 0.10833333333333428,
          "durationTicks": 26,
          "midi": 37,
          "name": "C#2",
          "ticks": 19800,
          "time": 82.5,
          "velocity": 0.5039370078740157
        },
        {
          "duration": 0.0833333333333286,
          "durationTicks": 20,
          "midi": 44,
          "name": "G#2",
          "ticks": 19800,
          "time": 82.5,
          "velocity": 0.8346456692913385
        },
        {
          "duration": 0.0833333333333286,
          "durationTicks": 20,
          "midi": 59,
          "name": "B3",
          "ticks": 19800,
          "time": 82.5,
          "velocity": 0.8346456692913385
        },
        {
          "duration": 0.11666666666666003,
          "durationTicks": 28,
          "midi": 36,
          "name": "C2",
          "ticks": 19800,
          "time": 82.5,
          "velocity": 0.8346456692913385
        },
        {
          "duration": 0.11666666666666003,
          "durationTicks": 28,
          "midi": 36,
          "name": "C2",
          "ticks": 19860,
          "time": 82.75,
          "velocity": 0.8346456692913385
        },
        {
          "duration": 0.0833333333333286,
          "durationTicks": 20,
          "midi": 44,
          "name": "G#2",
          "ticks": 19860,
          "time": 82.75,
          "velocity": 0.8346456692913385
        },
        {
          "duration": 0.10833333333333428,
          "durationTicks": 26,
          "midi": 54,
          "name": "F#3",
          "ticks": 19860,
          "time": 82.75,
          "velocity": 0.5039370078740157
        },
        {
          "duration": 0.11666666666666003,
          "durationTicks": 28,
          "midi": 36,
          "name": "C2",
          "ticks": 19920,
          "time": 83,
          "velocity": 0.8346456692913385
        },
        {
          "duration": 0.0833333333333286,
          "durationTicks": 20,
          "midi": 59,
          "name": "B3",
          "ticks": 19920,
          "time": 83,
          "velocity": 0.8346456692913385
        },
        {
          "duration": 0.0833333333333286,
          "durationTicks": 20,
          "midi": 44,
          "name": "G#2",
          "ticks": 19920,
          "time": 83,
          "velocity": 0.8346456692913385
        },
        {
          "duration": 0.10833333333333428,
          "durationTicks": 26,
          "midi": 37,
          "name": "C#2",
          "ticks": 19980,
          "time": 83.25,
          "velocity": 0.5039370078740157
        },
        {
          "duration": 0.10833333333333428,
          "durationTicks": 26,
          "midi": 54,
          "name": "F#3",
          "ticks": 19980,
          "time": 83.25,
          "velocity": 0.5039370078740157
        },
        {
          "duration": 0.0833333333333286,
          "durationTicks": 20,
          "midi": 44,
          "name": "G#2",
          "ticks": 19980,
          "time": 83.25,
          "velocity": 0.8346456692913385
        },
        {
          "duration": 0.10833333333333428,
          "durationTicks": 26,
          "midi": 40,
          "name": "E2",
          "ticks": 19980,
          "time": 83.25,
          "velocity": 0.5039370078740157
        },
        {
          "duration": 0.11666666666666003,
          "durationTicks": 28,
          "midi": 36,
          "name": "C2",
          "ticks": 19980,
          "time": 83.25,
          "velocity": 0.8346456692913385
        },
        {
          "duration": 0.11666666666666003,
          "durationTicks": 28,
          "midi": 36,
          "name": "C2",
          "ticks": 20040,
          "time": 83.5,
          "velocity": 0.8346456692913385
        },
        {
          "duration": 0.0833333333333286,
          "durationTicks": 20,
          "midi": 59,
          "name": "B3",
          "ticks": 20040,
          "time": 83.5,
          "velocity": 0.8346456692913385
        },
        {
          "duration": 0.0833333333333286,
          "durationTicks": 20,
          "midi": 44,
          "name": "G#2",
          "ticks": 20040,
          "time": 83.5,
          "velocity": 0.8346456692913385
        },
        {
          "duration": 0.10833333333333428,
          "durationTicks": 26,
          "midi": 54,
          "name": "F#3",
          "ticks": 20100,
          "time": 83.75,
          "velocity": 0.5039370078740157
        },
        {
          "duration": 0.11666666666666003,
          "durationTicks": 28,
          "midi": 36,
          "name": "C2",
          "ticks": 20100,
          "time": 83.75,
          "velocity": 0.8346456692913385
        },
        {
          "duration": 0.0833333333333286,
          "durationTicks": 20,
          "midi": 44,
          "name": "G#2",
          "ticks": 20100,
          "time": 83.75,
          "velocity": 0.8346456692913385
        },
        {
          "duration": 0.0833333333333286,
          "durationTicks": 20,
          "midi": 44,
          "name": "G#2",
          "ticks": 20160,
          "time": 84,
          "velocity": 0.8346456692913385
        },
        {
          "duration": 0.0833333333333286,
          "durationTicks": 20,
          "midi": 59,
          "name": "B3",
          "ticks": 20160,
          "time": 84,
          "velocity": 0.8346456692913385
        },
        {
          "duration": 0.11666666666666003,
          "durationTicks": 28,
          "midi": 36,
          "name": "C2",
          "ticks": 20160,
          "time": 84,
          "velocity": 0.8346456692913385
        },
        {
          "duration": 0.10833333333333428,
          "durationTicks": 26,
          "midi": 54,
          "name": "F#3",
          "ticks": 20220,
          "time": 84.25,
          "velocity": 0.5039370078740157
        },
        {
          "duration": 0.0833333333333286,
          "durationTicks": 20,
          "midi": 44,
          "name": "G#2",
          "ticks": 20220,
          "time": 84.25,
          "velocity": 0.8346456692913385
        },
        {
          "duration": 0.10833333333333428,
          "durationTicks": 26,
          "midi": 37,
          "name": "C#2",
          "ticks": 20280,
          "time": 84.5,
          "velocity": 0.5039370078740157
        },
        {
          "duration": 0.10833333333333428,
          "durationTicks": 26,
          "midi": 40,
          "name": "E2",
          "ticks": 20280,
          "time": 84.5,
          "velocity": 0.5039370078740157
        },
        {
          "duration": 0.11666666666666003,
          "durationTicks": 28,
          "midi": 36,
          "name": "C2",
          "ticks": 20280,
          "time": 84.5,
          "velocity": 0.8346456692913385
        },
        {
          "duration": 0.0833333333333286,
          "durationTicks": 20,
          "midi": 59,
          "name": "B3",
          "ticks": 20280,
          "time": 84.5,
          "velocity": 0.8346456692913385
        },
        {
          "duration": 0.0833333333333286,
          "durationTicks": 20,
          "midi": 44,
          "name": "G#2",
          "ticks": 20280,
          "time": 84.5,
          "velocity": 0.8346456692913385
        },
        {
          "duration": 0.10833333333333428,
          "durationTicks": 26,
          "midi": 54,
          "name": "F#3",
          "ticks": 20340,
          "time": 84.75,
          "velocity": 0.5039370078740157
        },
        {
          "duration": 0.0833333333333286,
          "durationTicks": 20,
          "midi": 44,
          "name": "G#2",
          "ticks": 20340,
          "time": 84.75,
          "velocity": 0.8346456692913385
        },
        {
          "duration": 0.11666666666666003,
          "durationTicks": 28,
          "midi": 36,
          "name": "C2",
          "ticks": 20340,
          "time": 84.75,
          "velocity": 0.8346456692913385
        },
        {
          "duration": 0.11666666666666003,
          "durationTicks": 28,
          "midi": 36,
          "name": "C2",
          "ticks": 20400,
          "time": 85,
          "velocity": 0.8346456692913385
        },
        {
          "duration": 0.0833333333333286,
          "durationTicks": 20,
          "midi": 44,
          "name": "G#2",
          "ticks": 20400,
          "time": 85,
          "velocity": 0.8346456692913385
        },
        {
          "duration": 0.0833333333333286,
          "durationTicks": 20,
          "midi": 59,
          "name": "B3",
          "ticks": 20400,
          "time": 85,
          "velocity": 0.8346456692913385
        },
        {
          "duration": 0.11666666666666003,
          "durationTicks": 28,
          "midi": 36,
          "name": "C2",
          "ticks": 20460,
          "time": 85.25,
          "velocity": 0.8346456692913385
        },
        {
          "duration": 0.10833333333333428,
          "durationTicks": 26,
          "midi": 37,
          "name": "C#2",
          "ticks": 20460,
          "time": 85.25,
          "velocity": 0.5039370078740157
        },
        {
          "duration": 0.0833333333333286,
          "durationTicks": 20,
          "midi": 44,
          "name": "G#2",
          "ticks": 20460,
          "time": 85.25,
          "velocity": 0.8346456692913385
        },
        {
          "duration": 0.10833333333333428,
          "durationTicks": 26,
          "midi": 54,
          "name": "F#3",
          "ticks": 20460,
          "time": 85.25,
          "velocity": 0.5039370078740157
        },
        {
          "duration": 0.10833333333333428,
          "durationTicks": 26,
          "midi": 40,
          "name": "E2",
          "ticks": 20460,
          "time": 85.25,
          "velocity": 0.5039370078740157
        },
        {
          "duration": 0.11666666666666003,
          "durationTicks": 28,
          "midi": 36,
          "name": "C2",
          "ticks": 20520,
          "time": 85.5,
          "velocity": 0.8346456692913385
        },
        {
          "duration": 0.0833333333333286,
          "durationTicks": 20,
          "midi": 44,
          "name": "G#2",
          "ticks": 20520,
          "time": 85.5,
          "velocity": 0.8346456692913385
        },
        {
          "duration": 0.0833333333333286,
          "durationTicks": 20,
          "midi": 59,
          "name": "B3",
          "ticks": 20520,
          "time": 85.5,
          "velocity": 0.8346456692913385
        },
        {
          "duration": 0.0833333333333286,
          "durationTicks": 20,
          "midi": 44,
          "name": "G#2",
          "ticks": 20580,
          "time": 85.75,
          "velocity": 0.8346456692913385
        },
        {
          "duration": 0.11666666666666003,
          "durationTicks": 28,
          "midi": 36,
          "name": "C2",
          "ticks": 20580,
          "time": 85.75,
          "velocity": 0.8346456692913385
        },
        {
          "duration": 0.10833333333333428,
          "durationTicks": 26,
          "midi": 54,
          "name": "F#3",
          "ticks": 20580,
          "time": 85.75,
          "velocity": 0.5039370078740157
        },
        {
          "duration": 0.11666666666666003,
          "durationTicks": 28,
          "midi": 36,
          "name": "C2",
          "ticks": 20640,
          "time": 86,
          "velocity": 0.8346456692913385
        },
        {
          "duration": 0.0833333333333286,
          "durationTicks": 20,
          "midi": 59,
          "name": "B3",
          "ticks": 20640,
          "time": 86,
          "velocity": 0.8346456692913385
        },
        {
          "duration": 0.0833333333333286,
          "durationTicks": 20,
          "midi": 44,
          "name": "G#2",
          "ticks": 20640,
          "time": 86,
          "velocity": 0.8346456692913385
        },
        {
          "duration": 0.0833333333333286,
          "durationTicks": 20,
          "midi": 44,
          "name": "G#2",
          "ticks": 20700,
          "time": 86.25,
          "velocity": 0.8346456692913385
        },
        {
          "duration": 0.10833333333333428,
          "durationTicks": 26,
          "midi": 54,
          "name": "F#3",
          "ticks": 20700,
          "time": 86.25,
          "velocity": 0.5039370078740157
        },
        {
          "duration": 0.0833333333333286,
          "durationTicks": 20,
          "midi": 59,
          "name": "B3",
          "ticks": 20760,
          "time": 86.5,
          "velocity": 0.8346456692913385
        },
        {
          "duration": 0.10833333333333428,
          "durationTicks": 26,
          "midi": 40,
          "name": "E2",
          "ticks": 20760,
          "time": 86.5,
          "velocity": 0.5039370078740157
        },
        {
          "duration": 0.10833333333333428,
          "durationTicks": 26,
          "midi": 37,
          "name": "C#2",
          "ticks": 20760,
          "time": 86.5,
          "velocity": 0.5039370078740157
        },
        {
          "duration": 0.11666666666666003,
          "durationTicks": 28,
          "midi": 36,
          "name": "C2",
          "ticks": 20760,
          "time": 86.5,
          "velocity": 0.8346456692913385
        },
        {
          "duration": 0.0833333333333286,
          "durationTicks": 20,
          "midi": 44,
          "name": "G#2",
          "ticks": 20760,
          "time": 86.5,
          "velocity": 0.8346456692913385
        },
        {
          "duration": 0.11666666666666003,
          "durationTicks": 28,
          "midi": 36,
          "name": "C2",
          "ticks": 20820,
          "time": 86.75,
          "velocity": 0.8346456692913385
        },
        {
          "duration": 0.0833333333333286,
          "durationTicks": 20,
          "midi": 44,
          "name": "G#2",
          "ticks": 20820,
          "time": 86.75,
          "velocity": 0.8346456692913385
        },
        {
          "duration": 0.10833333333333428,
          "durationTicks": 26,
          "midi": 54,
          "name": "F#3",
          "ticks": 20820,
          "time": 86.75,
          "velocity": 0.5039370078740157
        },
        {
          "duration": 0.0833333333333286,
          "durationTicks": 20,
          "midi": 44,
          "name": "G#2",
          "ticks": 20880,
          "time": 87,
          "velocity": 0.8346456692913385
        },
        {
          "duration": 0.0833333333333286,
          "durationTicks": 20,
          "midi": 59,
          "name": "B3",
          "ticks": 20880,
          "time": 87,
          "velocity": 0.8346456692913385
        },
        {
          "duration": 0.11666666666666003,
          "durationTicks": 28,
          "midi": 36,
          "name": "C2",
          "ticks": 20880,
          "time": 87,
          "velocity": 0.8346456692913385
        },
        {
          "duration": 0.11666666666666003,
          "durationTicks": 28,
          "midi": 36,
          "name": "C2",
          "ticks": 20940,
          "time": 87.25,
          "velocity": 0.8346456692913385
        },
        {
          "duration": 0.10833333333333428,
          "durationTicks": 26,
          "midi": 37,
          "name": "C#2",
          "ticks": 20940,
          "time": 87.25,
          "velocity": 0.5039370078740157
        },
        {
          "duration": 0.10833333333333428,
          "durationTicks": 26,
          "midi": 40,
          "name": "E2",
          "ticks": 20940,
          "time": 87.25,
          "velocity": 0.5039370078740157
        },
        {
          "duration": 0.10833333333333428,
          "durationTicks": 26,
          "midi": 54,
          "name": "F#3",
          "ticks": 20940,
          "time": 87.25,
          "velocity": 0.5039370078740157
        },
        {
          "duration": 0.0833333333333286,
          "durationTicks": 20,
          "midi": 44,
          "name": "G#2",
          "ticks": 20940,
          "time": 87.25,
          "velocity": 0.8346456692913385
        },
        {
          "duration": 0.0833333333333286,
          "durationTicks": 20,
          "midi": 59,
          "name": "B3",
          "ticks": 21000,
          "time": 87.5,
          "velocity": 0.8346456692913385
        },
        {
          "duration": 0.0833333333333286,
          "durationTicks": 20,
          "midi": 44,
          "name": "G#2",
          "ticks": 21000,
          "time": 87.5,
          "velocity": 0.8346456692913385
        },
        {
          "duration": 0.11666666666666003,
          "durationTicks": 28,
          "midi": 36,
          "name": "C2",
          "ticks": 21000,
          "time": 87.5,
          "velocity": 0.8346456692913385
        },
        {
          "duration": 0.10833333333333428,
          "durationTicks": 26,
          "midi": 54,
          "name": "F#3",
          "ticks": 21060,
          "time": 87.75,
          "velocity": 0.5039370078740157
        },
        {
          "duration": 0.0833333333333286,
          "durationTicks": 20,
          "midi": 44,
          "name": "G#2",
          "ticks": 21060,
          "time": 87.75,
          "velocity": 0.8346456692913385
        },
        {
          "duration": 0.11666666666666003,
          "durationTicks": 28,
          "midi": 36,
          "name": "C2",
          "ticks": 21060,
          "time": 87.75,
          "velocity": 0.8346456692913385
        },
        {
          "duration": 0.0833333333333286,
          "durationTicks": 20,
          "midi": 55,
          "name": "G3",
          "ticks": 21120,
          "time": 88,
          "velocity": 0.8346456692913385
        },
        {
          "duration": 0.0833333333333286,
          "durationTicks": 20,
          "midi": 44,
          "name": "G#2",
          "ticks": 21120,
          "time": 88,
          "velocity": 0.8346456692913385
        },
        {
          "duration": 0.11666666666666003,
          "durationTicks": 28,
          "midi": 36,
          "name": "C2",
          "ticks": 21120,
          "time": 88,
          "velocity": 0.8346456692913385
        },
        {
          "duration": 0.10833333333333428,
          "durationTicks": 26,
          "midi": 54,
          "name": "F#3",
          "ticks": 21180,
          "time": 88.25,
          "velocity": 0.5039370078740157
        },
        {
          "duration": 0.0833333333333286,
          "durationTicks": 20,
          "midi": 44,
          "name": "G#2",
          "ticks": 21180,
          "time": 88.25,
          "velocity": 0.8346456692913385
        },
        {
          "duration": 0.10833333333333428,
          "durationTicks": 26,
          "midi": 40,
          "name": "E2",
          "ticks": 21240,
          "time": 88.5,
          "velocity": 0.5039370078740157
        },
        {
          "duration": 0.11666666666666003,
          "durationTicks": 28,
          "midi": 36,
          "name": "C2",
          "ticks": 21240,
          "time": 88.5,
          "velocity": 0.8346456692913385
        },
        {
          "duration": 0.10833333333333428,
          "durationTicks": 26,
          "midi": 37,
          "name": "C#2",
          "ticks": 21240,
          "time": 88.5,
          "velocity": 0.5039370078740157
        },
        {
          "duration": 0.0833333333333286,
          "durationTicks": 20,
          "midi": 44,
          "name": "G#2",
          "ticks": 21240,
          "time": 88.5,
          "velocity": 0.8346456692913385
        },
        {
          "duration": 0.10833333333333428,
          "durationTicks": 26,
          "midi": 54,
          "name": "F#3",
          "ticks": 21300,
          "time": 88.75,
          "velocity": 0.5039370078740157
        },
        {
          "duration": 0.11666666666666003,
          "durationTicks": 28,
          "midi": 36,
          "name": "C2",
          "ticks": 21300,
          "time": 88.75,
          "velocity": 0.8346456692913385
        },
        {
          "duration": 0.0833333333333286,
          "durationTicks": 20,
          "midi": 44,
          "name": "G#2",
          "ticks": 21300,
          "time": 88.75,
          "velocity": 0.8346456692913385
        },
        {
          "duration": 0.0833333333333286,
          "durationTicks": 20,
          "midi": 44,
          "name": "G#2",
          "ticks": 21360,
          "time": 89,
          "velocity": 0.8346456692913385
        },
        {
          "duration": 0.11666666666666003,
          "durationTicks": 28,
          "midi": 36,
          "name": "C2",
          "ticks": 21360,
          "time": 89,
          "velocity": 0.8346456692913385
        },
        {
          "duration": 0.10833333333333428,
          "durationTicks": 26,
          "midi": 54,
          "name": "F#3",
          "ticks": 21420,
          "time": 89.25,
          "velocity": 0.5039370078740157
        },
        {
          "duration": 0.10833333333333428,
          "durationTicks": 26,
          "midi": 37,
          "name": "C#2",
          "ticks": 21420,
          "time": 89.25,
          "velocity": 0.5039370078740157
        },
        {
          "duration": 0.11666666666666003,
          "durationTicks": 28,
          "midi": 36,
          "name": "C2",
          "ticks": 21420,
          "time": 89.25,
          "velocity": 0.8346456692913385
        },
        {
          "duration": 0.0833333333333286,
          "durationTicks": 20,
          "midi": 44,
          "name": "G#2",
          "ticks": 21420,
          "time": 89.25,
          "velocity": 0.8346456692913385
        },
        {
          "duration": 0.10833333333333428,
          "durationTicks": 26,
          "midi": 40,
          "name": "E2",
          "ticks": 21420,
          "time": 89.25,
          "velocity": 0.5039370078740157
        },
        {
          "duration": 0.0833333333333286,
          "durationTicks": 20,
          "midi": 44,
          "name": "G#2",
          "ticks": 21480,
          "time": 89.5,
          "velocity": 0.8346456692913385
        },
        {
          "duration": 0.0833333333333286,
          "durationTicks": 20,
          "midi": 44,
          "name": "G#2",
          "ticks": 21540,
          "time": 89.75,
          "velocity": 0.8346456692913385
        },
        {
          "duration": 0.11666666666666003,
          "durationTicks": 28,
          "midi": 36,
          "name": "C2",
          "ticks": 21540,
          "time": 89.75,
          "velocity": 0.8346456692913385
        },
        {
          "duration": 0.10833333333333428,
          "durationTicks": 26,
          "midi": 54,
          "name": "F#3",
          "ticks": 21540,
          "time": 89.75,
          "velocity": 0.3779527559055118
        },
        {
          "duration": 0.0833333333333286,
          "durationTicks": 20,
          "midi": 44,
          "name": "G#2",
          "ticks": 21600,
          "time": 90,
          "velocity": 0.8346456692913385
        },
        {
          "duration": 0.11666666666666003,
          "durationTicks": 28,
          "midi": 36,
          "name": "C2",
          "ticks": 21600,
          "time": 90,
          "velocity": 0.8346456692913385
        },
        {
          "duration": 0.0833333333333286,
          "durationTicks": 20,
          "midi": 44,
          "name": "G#2",
          "ticks": 21660,
          "time": 90.25,
          "velocity": 0.8346456692913385
        },
        {
          "duration": 0.10833333333333428,
          "durationTicks": 26,
          "midi": 54,
          "name": "F#3",
          "ticks": 21660,
          "time": 90.25,
          "velocity": 0.3779527559055118
        },
        {
          "duration": 0.11666666666666003,
          "durationTicks": 28,
          "midi": 36,
          "name": "C2",
          "ticks": 21720,
          "time": 90.5,
          "velocity": 0.8346456692913385
        },
        {
          "duration": 0.0833333333333286,
          "durationTicks": 20,
          "midi": 44,
          "name": "G#2",
          "ticks": 21720,
          "time": 90.5,
          "velocity": 0.8346456692913385
        },
        {
          "duration": 0.10833333333333428,
          "durationTicks": 26,
          "midi": 37,
          "name": "C#2",
          "ticks": 21720,
          "time": 90.5,
          "velocity": 0.5039370078740157
        },
        {
          "duration": 0.10833333333333428,
          "durationTicks": 26,
          "midi": 40,
          "name": "E2",
          "ticks": 21720,
          "time": 90.5,
          "velocity": 0.5039370078740157
        },
        {
          "duration": 0.0833333333333286,
          "durationTicks": 20,
          "midi": 44,
          "name": "G#2",
          "ticks": 21780,
          "time": 90.75,
          "velocity": 0.8346456692913385
        },
        {
          "duration": 0.10833333333333428,
          "durationTicks": 26,
          "midi": 54,
          "name": "F#3",
          "ticks": 21780,
          "time": 90.75,
          "velocity": 0.3779527559055118
        },
        {
          "duration": 0.11666666666666003,
          "durationTicks": 28,
          "midi": 36,
          "name": "C2",
          "ticks": 21780,
          "time": 90.75,
          "velocity": 0.8346456692913385
        },
        {
          "duration": 0.11666666666666003,
          "durationTicks": 28,
          "midi": 36,
          "name": "C2",
          "ticks": 21840,
          "time": 91,
          "velocity": 0.8346456692913385
        },
        {
          "duration": 0.0833333333333286,
          "durationTicks": 20,
          "midi": 44,
          "name": "G#2",
          "ticks": 21840,
          "time": 91,
          "velocity": 0.8346456692913385
        },
        {
          "duration": 0.11666666666666003,
          "durationTicks": 28,
          "midi": 36,
          "name": "C2",
          "ticks": 21900,
          "time": 91.25,
          "velocity": 0.8346456692913385
        },
        {
          "duration": 0.0833333333333286,
          "durationTicks": 20,
          "midi": 44,
          "name": "G#2",
          "ticks": 21900,
          "time": 91.25,
          "velocity": 0.8346456692913385
        },
        {
          "duration": 0.10833333333333428,
          "durationTicks": 26,
          "midi": 54,
          "name": "F#3",
          "ticks": 21900,
          "time": 91.25,
          "velocity": 0.3779527559055118
        },
        {
          "duration": 0.10833333333333428,
          "durationTicks": 26,
          "midi": 40,
          "name": "E2",
          "ticks": 21900,
          "time": 91.25,
          "velocity": 0.5039370078740157
        },
        {
          "duration": 0.10833333333333428,
          "durationTicks": 26,
          "midi": 37,
          "name": "C#2",
          "ticks": 21900,
          "time": 91.25,
          "velocity": 0.5039370078740157
        },
        {
          "duration": 0.0833333333333286,
          "durationTicks": 20,
          "midi": 44,
          "name": "G#2",
          "ticks": 21960,
          "time": 91.5,
          "velocity": 0.8346456692913385
        },
        {
          "duration": 0.10833333333333428,
          "durationTicks": 26,
          "midi": 54,
          "name": "F#3",
          "ticks": 22020,
          "time": 91.75,
          "velocity": 0.3779527559055118
        },
        {
          "duration": 0.0833333333333286,
          "durationTicks": 20,
          "midi": 44,
          "name": "G#2",
          "ticks": 22020,
          "time": 91.75,
          "velocity": 0.8346456692913385
        },
        {
          "duration": 0.11666666666666003,
          "durationTicks": 28,
          "midi": 36,
          "name": "C2",
          "ticks": 22020,
          "time": 91.75,
          "velocity": 0.8346456692913385
        },
        {
          "duration": 0.1666666666666714,
          "durationTicks": 40,
          "midi": 46,
          "name": "A#2",
          "ticks": 22080,
          "time": 92,
          "velocity": 0.7322834645669292
        },
        {
          "duration": 0.11666666666666003,
          "durationTicks": 28,
          "midi": 36,
          "name": "C2",
          "ticks": 22080,
          "time": 92,
          "velocity": 0.8346456692913385
        },
        {
          "duration": 0.0833333333333286,
          "durationTicks": 20,
          "midi": 44,
          "name": "G#2",
          "ticks": 22080,
          "time": 92,
          "velocity": 0.8346456692913385
        },
        {
          "duration": 0.0833333333333286,
          "durationTicks": 20,
          "midi": 44,
          "name": "G#2",
          "ticks": 22140,
          "time": 92.25,
          "velocity": 0.8346456692913385
        },
        {
          "duration": 0.10833333333333428,
          "durationTicks": 26,
          "midi": 54,
          "name": "F#3",
          "ticks": 22140,
          "time": 92.25,
          "velocity": 0.5039370078740157
        },
        {
          "duration": 0.0833333333333286,
          "durationTicks": 20,
          "midi": 44,
          "name": "G#2",
          "ticks": 22200,
          "time": 92.5,
          "velocity": 0.8346456692913385
        },
        {
          "duration": 0.11666666666666003,
          "durationTicks": 28,
          "midi": 36,
          "name": "C2",
          "ticks": 22200,
          "time": 92.5,
          "velocity": 0.8346456692913385
        },
        {
          "duration": 0.10833333333333428,
          "durationTicks": 26,
          "midi": 37,
          "name": "C#2",
          "ticks": 22200,
          "time": 92.5,
          "velocity": 0.5039370078740157
        },
        {
          "duration": 0.10833333333333428,
          "durationTicks": 26,
          "midi": 40,
          "name": "E2",
          "ticks": 22200,
          "time": 92.5,
          "velocity": 0.5039370078740157
        },
        {
          "duration": 0.10833333333333428,
          "durationTicks": 26,
          "midi": 54,
          "name": "F#3",
          "ticks": 22260,
          "time": 92.75,
          "velocity": 0.5039370078740157
        },
        {
          "duration": 0.0833333333333286,
          "durationTicks": 20,
          "midi": 44,
          "name": "G#2",
          "ticks": 22260,
          "time": 92.75,
          "velocity": 0.8346456692913385
        },
        {
          "duration": 0.11666666666666003,
          "durationTicks": 28,
          "midi": 36,
          "name": "C2",
          "ticks": 22260,
          "time": 92.75,
          "velocity": 0.8346456692913385
        },
        {
          "duration": 0.0833333333333286,
          "durationTicks": 20,
          "midi": 44,
          "name": "G#2",
          "ticks": 22320,
          "time": 93,
          "velocity": 0.8346456692913385
        },
        {
          "duration": 0.11666666666666003,
          "durationTicks": 28,
          "midi": 36,
          "name": "C2",
          "ticks": 22320,
          "time": 93,
          "velocity": 0.8346456692913385
        },
        {
          "duration": 0.11666666666666003,
          "durationTicks": 28,
          "midi": 36,
          "name": "C2",
          "ticks": 22380,
          "time": 93.25,
          "velocity": 0.8346456692913385
        },
        {
          "duration": 0.0833333333333286,
          "durationTicks": 20,
          "midi": 44,
          "name": "G#2",
          "ticks": 22380,
          "time": 93.25,
          "velocity": 0.8346456692913385
        },
        {
          "duration": 0.10833333333333428,
          "durationTicks": 26,
          "midi": 37,
          "name": "C#2",
          "ticks": 22380,
          "time": 93.25,
          "velocity": 0.5039370078740157
        },
        {
          "duration": 0.10833333333333428,
          "durationTicks": 26,
          "midi": 54,
          "name": "F#3",
          "ticks": 22380,
          "time": 93.25,
          "velocity": 0.5039370078740157
        },
        {
          "duration": 0.10833333333333428,
          "durationTicks": 26,
          "midi": 40,
          "name": "E2",
          "ticks": 22380,
          "time": 93.25,
          "velocity": 0.5039370078740157
        },
        {
          "duration": 0.0833333333333286,
          "durationTicks": 20,
          "midi": 44,
          "name": "G#2",
          "ticks": 22440,
          "time": 93.5,
          "velocity": 0.8346456692913385
        },
        {
          "duration": 0.10833333333333428,
          "durationTicks": 26,
          "midi": 54,
          "name": "F#3",
          "ticks": 22500,
          "time": 93.75,
          "velocity": 0.3779527559055118
        },
        {
          "duration": 0.11666666666666003,
          "durationTicks": 28,
          "midi": 36,
          "name": "C2",
          "ticks": 22500,
          "time": 93.75,
          "velocity": 0.8346456692913385
        },
        {
          "duration": 0.0833333333333286,
          "durationTicks": 20,
          "midi": 44,
          "name": "G#2",
          "ticks": 22500,
          "time": 93.75,
          "velocity": 0.8346456692913385
        },
        {
          "duration": 0.0833333333333286,
          "durationTicks": 20,
          "midi": 44,
          "name": "G#2",
          "ticks": 22560,
          "time": 94,
          "velocity": 0.8346456692913385
        },
        {
          "duration": 0.11666666666666003,
          "durationTicks": 28,
          "midi": 36,
          "name": "C2",
          "ticks": 22560,
          "time": 94,
          "velocity": 0.8346456692913385
        },
        {
          "duration": 0.0833333333333286,
          "durationTicks": 20,
          "midi": 44,
          "name": "G#2",
          "ticks": 22620,
          "time": 94.25,
          "velocity": 0.8346456692913385
        },
        {
          "duration": 0.10833333333333428,
          "durationTicks": 26,
          "midi": 54,
          "name": "F#3",
          "ticks": 22620,
          "time": 94.25,
          "velocity": 0.3779527559055118
        },
        {
          "duration": 0.0833333333333286,
          "durationTicks": 20,
          "midi": 44,
          "name": "G#2",
          "ticks": 22680,
          "time": 94.5,
          "velocity": 0.8346456692913385
        },
        {
          "duration": 0.10833333333333428,
          "durationTicks": 26,
          "midi": 37,
          "name": "C#2",
          "ticks": 22680,
          "time": 94.5,
          "velocity": 0.5039370078740157
        },
        {
          "duration": 0.10833333333333428,
          "durationTicks": 26,
          "midi": 40,
          "name": "E2",
          "ticks": 22680,
          "time": 94.5,
          "velocity": 0.5039370078740157
        },
        {
          "duration": 0.11666666666666003,
          "durationTicks": 28,
          "midi": 36,
          "name": "C2",
          "ticks": 22680,
          "time": 94.5,
          "velocity": 0.8346456692913385
        },
        {
          "duration": 0.11666666666666003,
          "durationTicks": 28,
          "midi": 36,
          "name": "C2",
          "ticks": 22740,
          "time": 94.75,
          "velocity": 0.8346456692913385
        },
        {
          "duration": 0.10833333333333428,
          "durationTicks": 26,
          "midi": 54,
          "name": "F#3",
          "ticks": 22740,
          "time": 94.75,
          "velocity": 0.3779527559055118
        },
        {
          "duration": 0.0833333333333286,
          "durationTicks": 20,
          "midi": 44,
          "name": "G#2",
          "ticks": 22740,
          "time": 94.75,
          "velocity": 0.8346456692913385
        },
        {
          "duration": 0.0833333333333286,
          "durationTicks": 20,
          "midi": 44,
          "name": "G#2",
          "ticks": 22800,
          "time": 95,
          "velocity": 0.8346456692913385
        },
        {
          "duration": 0.11666666666666003,
          "durationTicks": 28,
          "midi": 36,
          "name": "C2",
          "ticks": 22800,
          "time": 95,
          "velocity": 0.8346456692913385
        },
        {
          "duration": 0.10833333333333428,
          "durationTicks": 26,
          "midi": 40,
          "name": "E2",
          "ticks": 22860,
          "time": 95.25,
          "velocity": 0.5039370078740157
        },
        {
          "duration": 0.10833333333333428,
          "durationTicks": 26,
          "midi": 54,
          "name": "F#3",
          "ticks": 22860,
          "time": 95.25,
          "velocity": 0.3779527559055118
        },
        {
          "duration": 0.0833333333333286,
          "durationTicks": 20,
          "midi": 44,
          "name": "G#2",
          "ticks": 22860,
          "time": 95.25,
          "velocity": 0.8346456692913385
        },
        {
          "duration": 0.10833333333333428,
          "durationTicks": 26,
          "midi": 37,
          "name": "C#2",
          "ticks": 22860,
          "time": 95.25,
          "velocity": 0.5039370078740157
        },
        {
          "duration": 0.11666666666666003,
          "durationTicks": 28,
          "midi": 36,
          "name": "C2",
          "ticks": 22860,
          "time": 95.25,
          "velocity": 0.8346456692913385
        },
        {
          "duration": 0.0833333333333286,
          "durationTicks": 20,
          "midi": 44,
          "name": "G#2",
          "ticks": 22920,
          "time": 95.5,
          "velocity": 0.8346456692913385
        },
        {
          "duration": 0.0833333333333286,
          "durationTicks": 20,
          "midi": 44,
          "name": "G#2",
          "ticks": 22980,
          "time": 95.75,
          "velocity": 0.8346456692913385
        },
        {
          "duration": 0.10833333333333428,
          "durationTicks": 26,
          "midi": 54,
          "name": "F#3",
          "ticks": 22980,
          "time": 95.75,
          "velocity": 0.3779527559055118
        },
        {
          "duration": 0.11666666666666003,
          "durationTicks": 28,
          "midi": 36,
          "name": "C2",
          "ticks": 22980,
          "time": 95.75,
          "velocity": 0.8346456692913385
        },
        {
          "duration": 0.1666666666666714,
          "durationTicks": 40,
          "midi": 46,
          "name": "A#2",
          "ticks": 23040,
          "time": 96,
          "velocity": 0.7322834645669292
        },
        {
          "duration": 0.11666666666666003,
          "durationTicks": 28,
          "midi": 36,
          "name": "C2",
          "ticks": 23040,
          "time": 96,
          "velocity": 0.8346456692913385
        },
        {
          "duration": 0.10833333333333428,
          "durationTicks": 26,
          "midi": 54,
          "name": "F#3",
          "ticks": 23100,
          "time": 96.25,
          "velocity": 0.5039370078740157
        },
        {
          "duration": 0.0833333333333286,
          "durationTicks": 20,
          "midi": 44,
          "name": "G#2",
          "ticks": 23100,
          "time": 96.25,
          "velocity": 0.8346456692913385
        },
        {
          "duration": 0.11666666666666003,
          "durationTicks": 28,
          "midi": 36,
          "name": "C2",
          "ticks": 23160,
          "time": 96.5,
          "velocity": 0.8346456692913385
        },
        {
          "duration": 0.10833333333333428,
          "durationTicks": 26,
          "midi": 40,
          "name": "E2",
          "ticks": 23160,
          "time": 96.5,
          "velocity": 0.5039370078740157
        },
        {
          "duration": 0.10833333333333428,
          "durationTicks": 26,
          "midi": 37,
          "name": "C#2",
          "ticks": 23160,
          "time": 96.5,
          "velocity": 0.5039370078740157
        },
        {
          "duration": 0.0833333333333286,
          "durationTicks": 20,
          "midi": 44,
          "name": "G#2",
          "ticks": 23160,
          "time": 96.5,
          "velocity": 0.8346456692913385
        },
        {
          "duration": 0.0833333333333286,
          "durationTicks": 20,
          "midi": 44,
          "name": "G#2",
          "ticks": 23220,
          "time": 96.75,
          "velocity": 0.8346456692913385
        },
        {
          "duration": 0.10833333333333428,
          "durationTicks": 26,
          "midi": 54,
          "name": "F#3",
          "ticks": 23220,
          "time": 96.75,
          "velocity": 0.5039370078740157
        },
        {
          "duration": 0.11666666666666003,
          "durationTicks": 28,
          "midi": 36,
          "name": "C2",
          "ticks": 23220,
          "time": 96.75,
          "velocity": 0.8346456692913385
        },
        {
          "duration": 0.11666666666666003,
          "durationTicks": 28,
          "midi": 36,
          "name": "C2",
          "ticks": 23280,
          "time": 97,
          "velocity": 0.8346456692913385
        },
        {
          "duration": 0.0833333333333286,
          "durationTicks": 20,
          "midi": 44,
          "name": "G#2",
          "ticks": 23280,
          "time": 97,
          "velocity": 0.8346456692913385
        },
        {
          "duration": 0.10833333333333428,
          "durationTicks": 26,
          "midi": 40,
          "name": "E2",
          "ticks": 23340,
          "time": 97.25,
          "velocity": 0.5039370078740157
        },
        {
          "duration": 0.0833333333333286,
          "durationTicks": 20,
          "midi": 44,
          "name": "G#2",
          "ticks": 23340,
          "time": 97.25,
          "velocity": 0.8346456692913385
        },
        {
          "duration": 0.10833333333333428,
          "durationTicks": 26,
          "midi": 37,
          "name": "C#2",
          "ticks": 23340,
          "time": 97.25,
          "velocity": 0.5039370078740157
        },
        {
          "duration": 0.10833333333333428,
          "durationTicks": 26,
          "midi": 54,
          "name": "F#3",
          "ticks": 23340,
          "time": 97.25,
          "velocity": 0.5039370078740157
        },
        {
          "duration": 0.11666666666666003,
          "durationTicks": 28,
          "midi": 36,
          "name": "C2",
          "ticks": 23340,
          "time": 97.25,
          "velocity": 0.8346456692913385
        },
        {
          "duration": 0.0833333333333286,
          "durationTicks": 20,
          "midi": 44,
          "name": "G#2",
          "ticks": 23400,
          "time": 97.5,
          "velocity": 0.8346456692913385
        },
        {
          "duration": 0.11666666666666003,
          "durationTicks": 28,
          "midi": 36,
          "name": "C2",
          "ticks": 23460,
          "time": 97.75,
          "velocity": 0.8346456692913385
        },
        {
          "duration": 0.0833333333333286,
          "durationTicks": 20,
          "midi": 44,
          "name": "G#2",
          "ticks": 23460,
          "time": 97.75,
          "velocity": 0.8346456692913385
        },
        {
          "duration": 0.10833333333333428,
          "durationTicks": 26,
          "midi": 54,
          "name": "F#3",
          "ticks": 23460,
          "time": 97.75,
          "velocity": 0.3779527559055118
        },
        {
          "duration": 0.0833333333333286,
          "durationTicks": 20,
          "midi": 44,
          "name": "G#2",
          "ticks": 23520,
          "time": 98,
          "velocity": 0.8346456692913385
        },
        {
          "duration": 0.11666666666666003,
          "durationTicks": 28,
          "midi": 36,
          "name": "C2",
          "ticks": 23520,
          "time": 98,
          "velocity": 0.8346456692913385
        },
        {
          "duration": 0.0833333333333286,
          "durationTicks": 20,
          "midi": 44,
          "name": "G#2",
          "ticks": 23580,
          "time": 98.25,
          "velocity": 0.8346456692913385
        },
        {
          "duration": 0.10833333333333428,
          "durationTicks": 26,
          "midi": 54,
          "name": "F#3",
          "ticks": 23580,
          "time": 98.25,
          "velocity": 0.3779527559055118
        },
        {
          "duration": 0.11666666666666003,
          "durationTicks": 28,
          "midi": 36,
          "name": "C2",
          "ticks": 23640,
          "time": 98.5,
          "velocity": 0.8346456692913385
        },
        {
          "duration": 0.10833333333333428,
          "durationTicks": 26,
          "midi": 37,
          "name": "C#2",
          "ticks": 23640,
          "time": 98.5,
          "velocity": 0.5039370078740157
        },
        {
          "duration": 0.10833333333333428,
          "durationTicks": 26,
          "midi": 40,
          "name": "E2",
          "ticks": 23640,
          "time": 98.5,
          "velocity": 0.5039370078740157
        },
        {
          "duration": 0.0833333333333286,
          "durationTicks": 20,
          "midi": 44,
          "name": "G#2",
          "ticks": 23640,
          "time": 98.5,
          "velocity": 0.8346456692913385
        },
        {
          "duration": 0.11666666666666003,
          "durationTicks": 28,
          "midi": 36,
          "name": "C2",
          "ticks": 23700,
          "time": 98.75,
          "velocity": 0.8346456692913385
        },
        {
          "duration": 0.0833333333333286,
          "durationTicks": 20,
          "midi": 44,
          "name": "G#2",
          "ticks": 23700,
          "time": 98.75,
          "velocity": 0.8346456692913385
        },
        {
          "duration": 0.10833333333333428,
          "durationTicks": 26,
          "midi": 54,
          "name": "F#3",
          "ticks": 23700,
          "time": 98.75,
          "velocity": 0.3779527559055118
        },
        {
          "duration": 0.11666666666666003,
          "durationTicks": 28,
          "midi": 36,
          "name": "C2",
          "ticks": 23760,
          "time": 99,
          "velocity": 0.8346456692913385
        },
        {
          "duration": 0.0833333333333286,
          "durationTicks": 20,
          "midi": 44,
          "name": "G#2",
          "ticks": 23760,
          "time": 99,
          "velocity": 0.8346456692913385
        },
        {
          "duration": 0.10833333333333428,
          "durationTicks": 26,
          "midi": 40,
          "name": "E2",
          "ticks": 23820,
          "time": 99.25,
          "velocity": 0.5039370078740157
        },
        {
          "duration": 0.10833333333333428,
          "durationTicks": 26,
          "midi": 37,
          "name": "C#2",
          "ticks": 23820,
          "time": 99.25,
          "velocity": 0.5039370078740157
        },
        {
          "duration": 0.11666666666666003,
          "durationTicks": 28,
          "midi": 36,
          "name": "C2",
          "ticks": 23820,
          "time": 99.25,
          "velocity": 0.8346456692913385
        },
        {
          "duration": 0.0833333333333286,
          "durationTicks": 20,
          "midi": 44,
          "name": "G#2",
          "ticks": 23820,
          "time": 99.25,
          "velocity": 0.8346456692913385
        },
        {
          "duration": 0.10833333333333428,
          "durationTicks": 26,
          "midi": 54,
          "name": "F#3",
          "ticks": 23820,
          "time": 99.25,
          "velocity": 0.3779527559055118
        },
        {
          "duration": 0.0833333333333286,
          "durationTicks": 20,
          "midi": 44,
          "name": "G#2",
          "ticks": 23880,
          "time": 99.5,
          "velocity": 0.8346456692913385
        },
        {
          "duration": 0.0833333333333286,
          "durationTicks": 20,
          "midi": 44,
          "name": "G#2",
          "ticks": 23940,
          "time": 99.75,
          "velocity": 0.8346456692913385
        },
        {
          "duration": 0.11666666666666003,
          "durationTicks": 28,
          "midi": 36,
          "name": "C2",
          "ticks": 23940,
          "time": 99.75,
          "velocity": 0.8346456692913385
        },
        {
          "duration": 0.10833333333333428,
          "durationTicks": 26,
          "midi": 54,
          "name": "F#3",
          "ticks": 23940,
          "time": 99.75,
          "velocity": 0.3779527559055118
        },
        {
          "duration": 0.11666666666666003,
          "durationTicks": 28,
          "midi": 36,
          "name": "C2",
          "ticks": 24000,
          "time": 100,
          "velocity": 0.8346456692913385
        },
        {
          "duration": 0.1666666666666714,
          "durationTicks": 40,
          "midi": 46,
          "name": "A#2",
          "ticks": 24000,
          "time": 100,
          "velocity": 0.7322834645669292
        },
        {
          "duration": 0.10833333333333428,
          "durationTicks": 26,
          "midi": 54,
          "name": "F#3",
          "ticks": 24060,
          "time": 100.25,
          "velocity": 0.5039370078740157
        },
        {
          "duration": 0.0833333333333286,
          "durationTicks": 20,
          "midi": 44,
          "name": "G#2",
          "ticks": 24060,
          "time": 100.25,
          "velocity": 0.8346456692913385
        },
        {
          "duration": 0.10833333333333428,
          "durationTicks": 26,
          "midi": 37,
          "name": "C#2",
          "ticks": 24120,
          "time": 100.5,
          "velocity": 0.5039370078740157
        },
        {
          "duration": 0.0833333333333286,
          "durationTicks": 20,
          "midi": 44,
          "name": "G#2",
          "ticks": 24120,
          "time": 100.5,
          "velocity": 0.8346456692913385
        },
        {
          "duration": 0.10833333333333428,
          "durationTicks": 26,
          "midi": 40,
          "name": "E2",
          "ticks": 24120,
          "time": 100.5,
          "velocity": 0.5039370078740157
        },
        {
          "duration": 0.11666666666666003,
          "durationTicks": 28,
          "midi": 36,
          "name": "C2",
          "ticks": 24120,
          "time": 100.5,
          "velocity": 0.8346456692913385
        },
        {
          "duration": 0.0833333333333286,
          "durationTicks": 20,
          "midi": 44,
          "name": "G#2",
          "ticks": 24180,
          "time": 100.75,
          "velocity": 0.8346456692913385
        },
        {
          "duration": 0.11666666666666003,
          "durationTicks": 28,
          "midi": 36,
          "name": "C2",
          "ticks": 24180,
          "time": 100.75,
          "velocity": 0.8346456692913385
        },
        {
          "duration": 0.10833333333333428,
          "durationTicks": 26,
          "midi": 54,
          "name": "F#3",
          "ticks": 24180,
          "time": 100.75,
          "velocity": 0.5039370078740157
        },
        {
          "duration": 0.11666666666666003,
          "durationTicks": 28,
          "midi": 36,
          "name": "C2",
          "ticks": 24240,
          "time": 101,
          "velocity": 0.8346456692913385
        },
        {
          "duration": 0.0833333333333286,
          "durationTicks": 20,
          "midi": 44,
          "name": "G#2",
          "ticks": 24240,
          "time": 101,
          "velocity": 0.8346456692913385
        },
        {
          "duration": 0.10833333333333428,
          "durationTicks": 26,
          "midi": 40,
          "name": "E2",
          "ticks": 24300,
          "time": 101.25,
          "velocity": 0.5039370078740157
        },
        {
          "duration": 0.0833333333333286,
          "durationTicks": 20,
          "midi": 44,
          "name": "G#2",
          "ticks": 24300,
          "time": 101.25,
          "velocity": 0.8346456692913385
        },
        {
          "duration": 0.10833333333333428,
          "durationTicks": 26,
          "midi": 37,
          "name": "C#2",
          "ticks": 24300,
          "time": 101.25,
          "velocity": 0.5039370078740157
        },
        {
          "duration": 0.10833333333333428,
          "durationTicks": 26,
          "midi": 54,
          "name": "F#3",
          "ticks": 24300,
          "time": 101.25,
          "velocity": 0.5039370078740157
        },
        {
          "duration": 0.11666666666666003,
          "durationTicks": 28,
          "midi": 36,
          "name": "C2",
          "ticks": 24300,
          "time": 101.25,
          "velocity": 0.8346456692913385
        },
        {
          "duration": 0.0833333333333286,
          "durationTicks": 20,
          "midi": 44,
          "name": "G#2",
          "ticks": 24360,
          "time": 101.5,
          "velocity": 0.8346456692913385
        },
        {
          "duration": 0.0833333333333286,
          "durationTicks": 20,
          "midi": 44,
          "name": "G#2",
          "ticks": 24420,
          "time": 101.75,
          "velocity": 0.8346456692913385
        },
        {
          "duration": 0.11666666666666003,
          "durationTicks": 28,
          "midi": 36,
          "name": "C2",
          "ticks": 24420,
          "time": 101.75,
          "velocity": 0.8346456692913385
        },
        {
          "duration": 0.10833333333333428,
          "durationTicks": 26,
          "midi": 54,
          "name": "F#3",
          "ticks": 24420,
          "time": 101.75,
          "velocity": 0.3779527559055118
        },
        {
          "duration": 0.0833333333333286,
          "durationTicks": 20,
          "midi": 44,
          "name": "G#2",
          "ticks": 24480,
          "time": 102,
          "velocity": 0.8346456692913385
        },
        {
          "duration": 0.11666666666666003,
          "durationTicks": 28,
          "midi": 36,
          "name": "C2",
          "ticks": 24480,
          "time": 102,
          "velocity": 0.8346456692913385
        },
        {
          "duration": 0.10833333333333428,
          "durationTicks": 26,
          "midi": 54,
          "name": "F#3",
          "ticks": 24540,
          "time": 102.25,
          "velocity": 0.3779527559055118
        },
        {
          "duration": 0.0833333333333286,
          "durationTicks": 20,
          "midi": 44,
          "name": "G#2",
          "ticks": 24540,
          "time": 102.25,
          "velocity": 0.8346456692913385
        },
        {
          "duration": 0.0833333333333286,
          "durationTicks": 20,
          "midi": 44,
          "name": "G#2",
          "ticks": 24600,
          "time": 102.5,
          "velocity": 0.8346456692913385
        },
        {
          "duration": 0.11666666666666003,
          "durationTicks": 28,
          "midi": 36,
          "name": "C2",
          "ticks": 24600,
          "time": 102.5,
          "velocity": 0.8346456692913385
        },
        {
          "duration": 0.10833333333333428,
          "durationTicks": 26,
          "midi": 37,
          "name": "C#2",
          "ticks": 24600,
          "time": 102.5,
          "velocity": 0.5039370078740157
        },
        {
          "duration": 0.10833333333333428,
          "durationTicks": 26,
          "midi": 40,
          "name": "E2",
          "ticks": 24600,
          "time": 102.5,
          "velocity": 0.5039370078740157
        },
        {
          "duration": 0.0833333333333286,
          "durationTicks": 20,
          "midi": 44,
          "name": "G#2",
          "ticks": 24660,
          "time": 102.75,
          "velocity": 0.8346456692913385
        },
        {
          "duration": 0.11666666666666003,
          "durationTicks": 28,
          "midi": 36,
          "name": "C2",
          "ticks": 24660,
          "time": 102.75,
          "velocity": 0.8346456692913385
        },
        {
          "duration": 0.10833333333333428,
          "durationTicks": 26,
          "midi": 54,
          "name": "F#3",
          "ticks": 24660,
          "time": 102.75,
          "velocity": 0.3779527559055118
        },
        {
          "duration": 0.0833333333333286,
          "durationTicks": 20,
          "midi": 44,
          "name": "G#2",
          "ticks": 24720,
          "time": 103,
          "velocity": 0.8346456692913385
        },
        {
          "duration": 0.11666666666666003,
          "durationTicks": 28,
          "midi": 36,
          "name": "C2",
          "ticks": 24720,
          "time": 103,
          "velocity": 0.8346456692913385
        },
        {
          "duration": 0.10833333333333428,
          "durationTicks": 26,
          "midi": 54,
          "name": "F#3",
          "ticks": 24780,
          "time": 103.25,
          "velocity": 0.3779527559055118
        },
        {
          "duration": 0.10833333333333428,
          "durationTicks": 26,
          "midi": 40,
          "name": "E2",
          "ticks": 24780,
          "time": 103.25,
          "velocity": 0.5039370078740157
        },
        {
          "duration": 0.11666666666666003,
          "durationTicks": 28,
          "midi": 36,
          "name": "C2",
          "ticks": 24780,
          "time": 103.25,
          "velocity": 0.8346456692913385
        },
        {
          "duration": 0.0833333333333286,
          "durationTicks": 20,
          "midi": 44,
          "name": "G#2",
          "ticks": 24780,
          "time": 103.25,
          "velocity": 0.8346456692913385
        },
        {
          "duration": 0.10833333333333428,
          "durationTicks": 26,
          "midi": 37,
          "name": "C#2",
          "ticks": 24780,
          "time": 103.25,
          "velocity": 0.5039370078740157
        },
        {
          "duration": 0.0833333333333286,
          "durationTicks": 20,
          "midi": 44,
          "name": "G#2",
          "ticks": 24840,
          "time": 103.5,
          "velocity": 0.8346456692913385
        },
        {
          "duration": 0.11666666666666003,
          "durationTicks": 28,
          "midi": 36,
          "name": "C2",
          "ticks": 24900,
          "time": 103.75,
          "velocity": 0.8346456692913385
        },
        {
          "duration": 0.10833333333333428,
          "durationTicks": 26,
          "midi": 54,
          "name": "F#3",
          "ticks": 24900,
          "time": 103.75,
          "velocity": 0.3779527559055118
        },
        {
          "duration": 0.0833333333333286,
          "durationTicks": 20,
          "midi": 44,
          "name": "G#2",
          "ticks": 24900,
          "time": 103.75,
          "velocity": 0.8346456692913385
        },
        {
          "duration": 0.0833333333333286,
          "durationTicks": 20,
          "midi": 44,
          "name": "G#2",
          "ticks": 24960,
          "time": 104,
          "velocity": 0.8346456692913385
        },
        {
          "duration": 0.11666666666666003,
          "durationTicks": 28,
          "midi": 36,
          "name": "C2",
          "ticks": 24960,
          "time": 104,
          "velocity": 0.8346456692913385
        },
        {
          "duration": 0.0833333333333286,
          "durationTicks": 20,
          "midi": 55,
          "name": "G3",
          "ticks": 24960,
          "time": 104,
          "velocity": 0.8346456692913385
        },
        {
          "duration": 0.10833333333333428,
          "durationTicks": 26,
          "midi": 54,
          "name": "F#3",
          "ticks": 25020,
          "time": 104.25,
          "velocity": 0.5039370078740157
        },
        {
          "duration": 0.0833333333333286,
          "durationTicks": 20,
          "midi": 44,
          "name": "G#2",
          "ticks": 25080,
          "time": 104.5,
          "velocity": 0.8346456692913385
        },
        {
          "duration": 0.10833333333333428,
          "durationTicks": 26,
          "midi": 40,
          "name": "E2",
          "ticks": 25080,
          "time": 104.5,
          "velocity": 0.5039370078740157
        },
        {
          "duration": 0.11666666666666003,
          "durationTicks": 28,
          "midi": 36,
          "name": "C2",
          "ticks": 25080,
          "time": 104.5,
          "velocity": 0.8346456692913385
        },
        {
          "duration": 0.10833333333333428,
          "durationTicks": 26,
          "midi": 37,
          "name": "C#2",
          "ticks": 25080,
          "time": 104.5,
          "velocity": 0.5039370078740157
        },
        {
          "duration": 0.11666666666666003,
          "durationTicks": 28,
          "midi": 36,
          "name": "C2",
          "ticks": 25140,
          "time": 104.75,
          "velocity": 0.8346456692913385
        },
        {
          "duration": 0.10833333333333428,
          "durationTicks": 26,
          "midi": 54,
          "name": "F#3",
          "ticks": 25140,
          "time": 104.75,
          "velocity": 0.5039370078740157
        },
        {
          "duration": 0.11666666666666003,
          "durationTicks": 28,
          "midi": 36,
          "name": "C2",
          "ticks": 25200,
          "time": 105,
          "velocity": 0.8346456692913385
        },
        {
          "duration": 0.0833333333333286,
          "durationTicks": 20,
          "midi": 44,
          "name": "G#2",
          "ticks": 25200,
          "time": 105,
          "velocity": 0.8346456692913385
        },
        {
          "duration": 0.10833333333333428,
          "durationTicks": 26,
          "midi": 54,
          "name": "F#3",
          "ticks": 25260,
          "time": 105.25,
          "velocity": 0.5039370078740157
        },
        {
          "duration": 0.10833333333333428,
          "durationTicks": 26,
          "midi": 40,
          "name": "E2",
          "ticks": 25260,
          "time": 105.25,
          "velocity": 0.5039370078740157
        },
        {
          "duration": 0.10833333333333428,
          "durationTicks": 26,
          "midi": 37,
          "name": "C#2",
          "ticks": 25260,
          "time": 105.25,
          "velocity": 0.5039370078740157
        },
        {
          "duration": 0.11666666666666003,
          "durationTicks": 28,
          "midi": 36,
          "name": "C2",
          "ticks": 25260,
          "time": 105.25,
          "velocity": 0.8346456692913385
        },
        {
          "duration": 0.0833333333333286,
          "durationTicks": 20,
          "midi": 44,
          "name": "G#2",
          "ticks": 25320,
          "time": 105.5,
          "velocity": 0.8346456692913385
        },
        {
          "duration": 0.10833333333333428,
          "durationTicks": 26,
          "midi": 54,
          "name": "F#3",
          "ticks": 25380,
          "time": 105.75,
          "velocity": 0.3779527559055118
        },
        {
          "duration": 0.11666666666666003,
          "durationTicks": 28,
          "midi": 36,
          "name": "C2",
          "ticks": 25380,
          "time": 105.75,
          "velocity": 0.8346456692913385
        },
        {
          "duration": 0.11666666666666003,
          "durationTicks": 28,
          "midi": 36,
          "name": "C2",
          "ticks": 25440,
          "time": 106,
          "velocity": 0.8346456692913385
        },
        {
          "duration": 0.0833333333333286,
          "durationTicks": 20,
          "midi": 44,
          "name": "G#2",
          "ticks": 25440,
          "time": 106,
          "velocity": 0.8346456692913385
        },
        {
          "duration": 0.10833333333333428,
          "durationTicks": 26,
          "midi": 54,
          "name": "F#3",
          "ticks": 25500,
          "time": 106.25,
          "velocity": 0.3779527559055118
        },
        {
          "duration": 0.10833333333333428,
          "durationTicks": 26,
          "midi": 40,
          "name": "E2",
          "ticks": 25560,
          "time": 106.5,
          "velocity": 0.5039370078740157
        },
        {
          "duration": 0.0833333333333286,
          "durationTicks": 20,
          "midi": 44,
          "name": "G#2",
          "ticks": 25560,
          "time": 106.5,
          "velocity": 0.8346456692913385
        },
        {
          "duration": 0.10833333333333428,
          "durationTicks": 26,
          "midi": 37,
          "name": "C#2",
          "ticks": 25560,
          "time": 106.5,
          "velocity": 0.5039370078740157
        },
        {
          "duration": 0.11666666666666003,
          "durationTicks": 28,
          "midi": 36,
          "name": "C2",
          "ticks": 25560,
          "time": 106.5,
          "velocity": 0.8346456692913385
        },
        {
          "duration": 0.11666666666666003,
          "durationTicks": 28,
          "midi": 36,
          "name": "C2",
          "ticks": 25620,
          "time": 106.75,
          "velocity": 0.8346456692913385
        },
        {
          "duration": 0.10833333333333428,
          "durationTicks": 26,
          "midi": 54,
          "name": "F#3",
          "ticks": 25620,
          "time": 106.75,
          "velocity": 0.3779527559055118
        },
        {
          "duration": 0.11666666666666003,
          "durationTicks": 28,
          "midi": 36,
          "name": "C2",
          "ticks": 25680,
          "time": 107,
          "velocity": 0.8346456692913385
        },
        {
          "duration": 0.0833333333333286,
          "durationTicks": 20,
          "midi": 44,
          "name": "G#2",
          "ticks": 25680,
          "time": 107,
          "velocity": 0.8346456692913385
        },
        {
          "duration": 0.10833333333333428,
          "durationTicks": 26,
          "midi": 37,
          "name": "C#2",
          "ticks": 25740,
          "time": 107.25,
          "velocity": 0.5039370078740157
        },
        {
          "duration": 0.10833333333333428,
          "durationTicks": 26,
          "midi": 54,
          "name": "F#3",
          "ticks": 25740,
          "time": 107.25,
          "velocity": 0.3779527559055118
        },
        {
          "duration": 0.10833333333333428,
          "durationTicks": 26,
          "midi": 40,
          "name": "E2",
          "ticks": 25740,
          "time": 107.25,
          "velocity": 0.5039370078740157
        },
        {
          "duration": 0.11666666666666003,
          "durationTicks": 28,
          "midi": 36,
          "name": "C2",
          "ticks": 25740,
          "time": 107.25,
          "velocity": 0.8346456692913385
        },
        {
          "duration": 0.0833333333333286,
          "durationTicks": 20,
          "midi": 44,
          "name": "G#2",
          "ticks": 25800,
          "time": 107.5,
          "velocity": 0.8346456692913385
        },
        {
          "duration": 0.11666666666666003,
          "durationTicks": 28,
          "midi": 36,
          "name": "C2",
          "ticks": 25860,
          "time": 107.75,
          "velocity": 0.8346456692913385
        },
        {
          "duration": 0.10833333333333428,
          "durationTicks": 26,
          "midi": 54,
          "name": "F#3",
          "ticks": 25860,
          "time": 107.75,
          "velocity": 0.3779527559055118
        },
        {
          "duration": 0.11666666666666003,
          "durationTicks": 28,
          "midi": 36,
          "name": "C2",
          "ticks": 25920,
          "time": 108,
          "velocity": 0.8346456692913385
        },
        {
          "duration": 0.0833333333333286,
          "durationTicks": 20,
          "midi": 44,
          "name": "G#2",
          "ticks": 25920,
          "time": 108,
          "velocity": 0.8346456692913385
        },
        {
          "duration": 0.0833333333333286,
          "durationTicks": 20,
          "midi": 51,
          "name": "D#3",
          "ticks": 25920,
          "time": 108,
          "velocity": 0.8346456692913385
        },
        {
          "duration": 0.10833333333333428,
          "durationTicks": 26,
          "midi": 54,
          "name": "F#3",
          "ticks": 25980,
          "time": 108.25,
          "velocity": 0.3779527559055118
        },
        {
          "duration": 0.0833333333333286,
          "durationTicks": 20,
          "midi": 44,
          "name": "G#2",
          "ticks": 26040,
          "time": 108.5,
          "velocity": 0.8346456692913385
        },
        {
          "duration": 0.10833333333333428,
          "durationTicks": 26,
          "midi": 40,
          "name": "E2",
          "ticks": 26040,
          "time": 108.5,
          "velocity": 0.5039370078740157
        },
        {
          "duration": 0.11666666666666003,
          "durationTicks": 28,
          "midi": 36,
          "name": "C2",
          "ticks": 26040,
          "time": 108.5,
          "velocity": 0.8346456692913385
        },
        {
          "duration": 0.10833333333333428,
          "durationTicks": 26,
          "midi": 37,
          "name": "C#2",
          "ticks": 26040,
          "time": 108.5,
          "velocity": 0.5039370078740157
        },
        {
          "duration": 0.11666666666666003,
          "durationTicks": 28,
          "midi": 36,
          "name": "C2",
          "ticks": 26100,
          "time": 108.75,
          "velocity": 0.8346456692913385
        },
        {
          "duration": 0.10833333333333428,
          "durationTicks": 26,
          "midi": 54,
          "name": "F#3",
          "ticks": 26100,
          "time": 108.75,
          "velocity": 0.3779527559055118
        },
        {
          "duration": 0.11666666666666003,
          "durationTicks": 28,
          "midi": 36,
          "name": "C2",
          "ticks": 26160,
          "time": 109,
          "velocity": 0.8346456692913385
        },
        {
          "duration": 0.0833333333333286,
          "durationTicks": 20,
          "midi": 44,
          "name": "G#2",
          "ticks": 26160,
          "time": 109,
          "velocity": 0.8346456692913385
        },
        {
          "duration": 0.10833333333333428,
          "durationTicks": 26,
          "midi": 40,
          "name": "E2",
          "ticks": 26220,
          "time": 109.25,
          "velocity": 0.5039370078740157
        },
        {
          "duration": 0.11666666666666003,
          "durationTicks": 28,
          "midi": 36,
          "name": "C2",
          "ticks": 26220,
          "time": 109.25,
          "velocity": 0.8346456692913385
        },
        {
          "duration": 0.10833333333333428,
          "durationTicks": 26,
          "midi": 54,
          "name": "F#3",
          "ticks": 26220,
          "time": 109.25,
          "velocity": 0.3779527559055118
        },
        {
          "duration": 0.10833333333333428,
          "durationTicks": 26,
          "midi": 37,
          "name": "C#2",
          "ticks": 26220,
          "time": 109.25,
          "velocity": 0.5039370078740157
        },
        {
          "duration": 0.0833333333333286,
          "durationTicks": 20,
          "midi": 44,
          "name": "G#2",
          "ticks": 26280,
          "time": 109.5,
          "velocity": 0.8346456692913385
        },
        {
          "duration": 0.11666666666666003,
          "durationTicks": 28,
          "midi": 36,
          "name": "C2",
          "ticks": 26340,
          "time": 109.75,
          "velocity": 0.8346456692913385
        },
        {
          "duration": 0.10833333333333428,
          "durationTicks": 26,
          "midi": 54,
          "name": "F#3",
          "ticks": 26340,
          "time": 109.75,
          "velocity": 0.3779527559055118
        },
        {
          "duration": 0.11666666666666003,
          "durationTicks": 28,
          "midi": 36,
          "name": "C2",
          "ticks": 26400,
          "time": 110,
          "velocity": 0.8346456692913385
        },
        {
          "duration": 0.0833333333333286,
          "durationTicks": 20,
          "midi": 44,
          "name": "G#2",
          "ticks": 26400,
          "time": 110,
          "velocity": 0.8346456692913385
        },
        {
          "duration": 0.11666666666666003,
          "durationTicks": 28,
          "midi": 36,
          "name": "C2",
          "ticks": 26640,
          "time": 111,
          "velocity": 0.8346456692913385
        },
        {
          "duration": 0.0833333333333286,
          "durationTicks": 20,
          "midi": 44,
          "name": "G#2",
          "ticks": 26640,
          "time": 111,
          "velocity": 0.8346456692913385
        },
        {
          "duration": 0.10833333333333428,
          "durationTicks": 26,
          "midi": 40,
          "name": "E2",
          "ticks": 26640,
          "time": 111,
          "velocity": 0.5039370078740157
        },
        {
          "duration": 0.10833333333333428,
          "durationTicks": 26,
          "midi": 37,
          "name": "C#2",
          "ticks": 26640,
          "time": 111,
          "velocity": 0.5039370078740157
        },
        {
          "duration": 0.11666666666666003,
          "durationTicks": 28,
          "midi": 36,
          "name": "C2",
          "ticks": 26700,
          "time": 111.25,
          "velocity": 0.8346456692913385
        },
        {
          "duration": 0.0833333333333286,
          "durationTicks": 20,
          "midi": 44,
          "name": "G#2",
          "ticks": 26700,
          "time": 111.25,
          "velocity": 0.8346456692913385
        },
        {
          "duration": 0.10833333333333428,
          "durationTicks": 26,
          "midi": 40,
          "name": "E2",
          "ticks": 26760,
          "time": 111.5,
          "velocity": 0.5039370078740157
        },
        {
          "duration": 0.0833333333333286,
          "durationTicks": 20,
          "midi": 44,
          "name": "G#2",
          "ticks": 26760,
          "time": 111.5,
          "velocity": 0.8346456692913385
        },
        {
          "duration": 0.11666666666666003,
          "durationTicks": 28,
          "midi": 36,
          "name": "C2",
          "ticks": 26760,
          "time": 111.5,
          "velocity": 0.8346456692913385
        },
        {
          "duration": 0.10833333333333428,
          "durationTicks": 26,
          "midi": 37,
          "name": "C#2",
          "ticks": 26760,
          "time": 111.5,
          "velocity": 0.5039370078740157
        },
        {
          "duration": 0.0833333333333286,
          "durationTicks": 20,
          "midi": 44,
          "name": "G#2",
          "ticks": 26820,
          "time": 111.75,
          "velocity": 0.8346456692913385
        },
        {
          "duration": 0.11666666666666003,
          "durationTicks": 28,
          "midi": 36,
          "name": "C2",
          "ticks": 26820,
          "time": 111.75,
          "velocity": 0.8346456692913385
        },
        {
          "duration": 0.11666666666666003,
          "durationTicks": 28,
          "midi": 36,
          "name": "C2",
          "ticks": 26880,
          "time": 112,
          "velocity": 0.8346456692913385
        },
        {
          "duration": 0.0833333333333286,
          "durationTicks": 20,
          "midi": 55,
          "name": "G3",
          "ticks": 26880,
          "time": 112,
          "velocity": 0.8346456692913385
        },
        {
          "duration": 0.0833333333333286,
          "durationTicks": 20,
          "midi": 59,
          "name": "B3",
          "ticks": 26880,
          "time": 112,
          "velocity": 0.8346456692913385
        },
        {
          "duration": 0.0833333333333286,
          "durationTicks": 20,
          "midi": 44,
          "name": "G#2",
          "ticks": 26880,
          "time": 112,
          "velocity": 0.8346456692913385
        },
        {
          "duration": 0.0833333333333286,
          "durationTicks": 20,
          "midi": 44,
          "name": "G#2",
          "ticks": 26940,
          "time": 112.25,
          "velocity": 0.8346456692913385
        },
        {
          "duration": 0.10833333333333428,
          "durationTicks": 26,
          "midi": 54,
          "name": "F#3",
          "ticks": 26940,
          "time": 112.25,
          "velocity": 0.5039370078740157
        },
        {
          "duration": 0.10833333333333428,
          "durationTicks": 26,
          "midi": 37,
          "name": "C#2",
          "ticks": 27000,
          "time": 112.5,
          "velocity": 0.5039370078740157
        },
        {
          "duration": 0.0833333333333286,
          "durationTicks": 20,
          "midi": 59,
          "name": "B3",
          "ticks": 27000,
          "time": 112.5,
          "velocity": 0.8346456692913385
        },
        {
          "duration": 0.0833333333333286,
          "durationTicks": 20,
          "midi": 44,
          "name": "G#2",
          "ticks": 27000,
          "time": 112.5,
          "velocity": 0.8346456692913385
        },
        {
          "duration": 0.11666666666666003,
          "durationTicks": 28,
          "midi": 36,
          "name": "C2",
          "ticks": 27000,
          "time": 112.5,
          "velocity": 0.8346456692913385
        },
        {
          "duration": 0.10833333333333428,
          "durationTicks": 26,
          "midi": 40,
          "name": "E2",
          "ticks": 27000,
          "time": 112.5,
          "velocity": 0.5039370078740157
        },
        {
          "duration": 0.10833333333333428,
          "durationTicks": 26,
          "midi": 54,
          "name": "F#3",
          "ticks": 27060,
          "time": 112.75,
          "velocity": 0.5039370078740157
        },
        {
          "duration": 0.0833333333333286,
          "durationTicks": 20,
          "midi": 44,
          "name": "G#2",
          "ticks": 27060,
          "time": 112.75,
          "velocity": 0.8346456692913385
        },
        {
          "duration": 0.11666666666666003,
          "durationTicks": 28,
          "midi": 36,
          "name": "C2",
          "ticks": 27060,
          "time": 112.75,
          "velocity": 0.8346456692913385
        },
        {
          "duration": 0.0833333333333286,
          "durationTicks": 20,
          "midi": 59,
          "name": "B3",
          "ticks": 27120,
          "time": 113,
          "velocity": 0.8346456692913385
        },
        {
          "duration": 0.0833333333333286,
          "durationTicks": 20,
          "midi": 44,
          "name": "G#2",
          "ticks": 27120,
          "time": 113,
          "velocity": 0.8346456692913385
        },
        {
          "duration": 0.11666666666666003,
          "durationTicks": 28,
          "midi": 36,
          "name": "C2",
          "ticks": 27120,
          "time": 113,
          "velocity": 0.8346456692913385
        },
        {
          "duration": 0.10833333333333428,
          "durationTicks": 26,
          "midi": 40,
          "name": "E2",
          "ticks": 27180,
          "time": 113.25,
          "velocity": 0.5039370078740157
        },
        {
          "duration": 0.0833333333333286,
          "durationTicks": 20,
          "midi": 44,
          "name": "G#2",
          "ticks": 27180,
          "time": 113.25,
          "velocity": 0.8346456692913385
        },
        {
          "duration": 0.11666666666666003,
          "durationTicks": 28,
          "midi": 36,
          "name": "C2",
          "ticks": 27180,
          "time": 113.25,
          "velocity": 0.8346456692913385
        },
        {
          "duration": 0.10833333333333428,
          "durationTicks": 26,
          "midi": 54,
          "name": "F#3",
          "ticks": 27180,
          "time": 113.25,
          "velocity": 0.5039370078740157
        },
        {
          "duration": 0.10833333333333428,
          "durationTicks": 26,
          "midi": 37,
          "name": "C#2",
          "ticks": 27180,
          "time": 113.25,
          "velocity": 0.5039370078740157
        },
        {
          "duration": 0.11666666666666003,
          "durationTicks": 28,
          "midi": 36,
          "name": "C2",
          "ticks": 27240,
          "time": 113.5,
          "velocity": 0.8346456692913385
        },
        {
          "duration": 0.0833333333333286,
          "durationTicks": 20,
          "midi": 59,
          "name": "B3",
          "ticks": 27240,
          "time": 113.5,
          "velocity": 0.8346456692913385
        },
        {
          "duration": 0.0833333333333286,
          "durationTicks": 20,
          "midi": 44,
          "name": "G#2",
          "ticks": 27240,
          "time": 113.5,
          "velocity": 0.8346456692913385
        },
        {
          "duration": 0.11666666666666003,
          "durationTicks": 28,
          "midi": 36,
          "name": "C2",
          "ticks": 27300,
          "time": 113.75,
          "velocity": 0.8346456692913385
        },
        {
          "duration": 0.0833333333333286,
          "durationTicks": 20,
          "midi": 44,
          "name": "G#2",
          "ticks": 27300,
          "time": 113.75,
          "velocity": 0.8346456692913385
        },
        {
          "duration": 0.10833333333333428,
          "durationTicks": 26,
          "midi": 54,
          "name": "F#3",
          "ticks": 27300,
          "time": 113.75,
          "velocity": 0.5039370078740157
        },
        {
          "duration": 0.0833333333333286,
          "durationTicks": 20,
          "midi": 59,
          "name": "B3",
          "ticks": 27360,
          "time": 114,
          "velocity": 0.8346456692913385
        },
        {
          "duration": 0.11666666666666003,
          "durationTicks": 28,
          "midi": 36,
          "name": "C2",
          "ticks": 27360,
          "time": 114,
          "velocity": 0.8346456692913385
        },
        {
          "duration": 0.0833333333333286,
          "durationTicks": 20,
          "midi": 44,
          "name": "G#2",
          "ticks": 27360,
          "time": 114,
          "velocity": 0.8346456692913385
        },
        {
          "duration": 0.10833333333333428,
          "durationTicks": 26,
          "midi": 54,
          "name": "F#3",
          "ticks": 27420,
          "time": 114.25,
          "velocity": 0.5039370078740157
        },
        {
          "duration": 0.0833333333333286,
          "durationTicks": 20,
          "midi": 44,
          "name": "G#2",
          "ticks": 27420,
          "time": 114.25,
          "velocity": 0.8346456692913385
        },
        {
          "duration": 0.11666666666666003,
          "durationTicks": 28,
          "midi": 36,
          "name": "C2",
          "ticks": 27480,
          "time": 114.5,
          "velocity": 0.8346456692913385
        },
        {
          "duration": 0.10833333333333428,
          "durationTicks": 26,
          "midi": 40,
          "name": "E2",
          "ticks": 27480,
          "time": 114.5,
          "velocity": 0.5039370078740157
        },
        {
          "duration": 0.0833333333333286,
          "durationTicks": 20,
          "midi": 44,
          "name": "G#2",
          "ticks": 27480,
          "time": 114.5,
          "velocity": 0.8346456692913385
        },
        {
          "duration": 0.10833333333333428,
          "durationTicks": 26,
          "midi": 37,
          "name": "C#2",
          "ticks": 27480,
          "time": 114.5,
          "velocity": 0.5039370078740157
        },
        {
          "duration": 0.0833333333333286,
          "durationTicks": 20,
          "midi": 59,
          "name": "B3",
          "ticks": 27480,
          "time": 114.5,
          "velocity": 0.8346456692913385
        },
        {
          "duration": 0.0833333333333286,
          "durationTicks": 20,
          "midi": 44,
          "name": "G#2",
          "ticks": 27540,
          "time": 114.75,
          "velocity": 0.8346456692913385
        },
        {
          "duration": 0.10833333333333428,
          "durationTicks": 26,
          "midi": 54,
          "name": "F#3",
          "ticks": 27540,
          "time": 114.75,
          "velocity": 0.5039370078740157
        },
        {
          "duration": 0.11666666666666003,
          "durationTicks": 28,
          "midi": 36,
          "name": "C2",
          "ticks": 27540,
          "time": 114.75,
          "velocity": 0.8346456692913385
        },
        {
          "duration": 0.11666666666666003,
          "durationTicks": 28,
          "midi": 36,
          "name": "C2",
          "ticks": 27600,
          "time": 115,
          "velocity": 0.8346456692913385
        },
        {
          "duration": 0.0833333333333286,
          "durationTicks": 20,
          "midi": 44,
          "name": "G#2",
          "ticks": 27600,
          "time": 115,
          "velocity": 0.8346456692913385
        },
        {
          "duration": 0.0833333333333286,
          "durationTicks": 20,
          "midi": 59,
          "name": "B3",
          "ticks": 27600,
          "time": 115,
          "velocity": 0.8346456692913385
        },
        {
          "duration": 0.11666666666666003,
          "durationTicks": 28,
          "midi": 36,
          "name": "C2",
          "ticks": 27660,
          "time": 115.25,
          "velocity": 0.8346456692913385
        },
        {
          "duration": 0.10833333333333428,
          "durationTicks": 26,
          "midi": 37,
          "name": "C#2",
          "ticks": 27660,
          "time": 115.25,
          "velocity": 0.5039370078740157
        },
        {
          "duration": 0.0833333333333286,
          "durationTicks": 20,
          "midi": 44,
          "name": "G#2",
          "ticks": 27660,
          "time": 115.25,
          "velocity": 0.8346456692913385
        },
        {
          "duration": 0.10833333333333428,
          "durationTicks": 26,
          "midi": 40,
          "name": "E2",
          "ticks": 27660,
          "time": 115.25,
          "velocity": 0.5039370078740157
        },
        {
          "duration": 0.10833333333333428,
          "durationTicks": 26,
          "midi": 54,
          "name": "F#3",
          "ticks": 27660,
          "time": 115.25,
          "velocity": 0.5039370078740157
        },
        {
          "duration": 0.0833333333333286,
          "durationTicks": 20,
          "midi": 44,
          "name": "G#2",
          "ticks": 27720,
          "time": 115.5,
          "velocity": 0.8346456692913385
        },
        {
          "duration": 0.0833333333333286,
          "durationTicks": 20,
          "midi": 59,
          "name": "B3",
          "ticks": 27720,
          "time": 115.5,
          "velocity": 0.8346456692913385
        },
        {
          "duration": 0.11666666666666003,
          "durationTicks": 28,
          "midi": 36,
          "name": "C2",
          "ticks": 27720,
          "time": 115.5,
          "velocity": 0.8346456692913385
        },
        {
          "duration": 0.10833333333333428,
          "durationTicks": 26,
          "midi": 54,
          "name": "F#3",
          "ticks": 27780,
          "time": 115.75,
          "velocity": 0.5039370078740157
        },
        {
          "duration": 0.0833333333333286,
          "durationTicks": 20,
          "midi": 44,
          "name": "G#2",
          "ticks": 27780,
          "time": 115.75,
          "velocity": 0.8346456692913385
        },
        {
          "duration": 0.11666666666666003,
          "durationTicks": 28,
          "midi": 36,
          "name": "C2",
          "ticks": 27780,
          "time": 115.75,
          "velocity": 0.8346456692913385
        },
        {
          "duration": 0.11666666666666003,
          "durationTicks": 28,
          "midi": 36,
          "name": "C2",
          "ticks": 27840,
          "time": 116,
          "velocity": 0.8346456692913385
        },
        {
          "duration": 0.0833333333333286,
          "durationTicks": 20,
          "midi": 44,
          "name": "G#2",
          "ticks": 27840,
          "time": 116,
          "velocity": 0.8346456692913385
        },
        {
          "duration": 0.0833333333333286,
          "durationTicks": 20,
          "midi": 59,
          "name": "B3",
          "ticks": 27840,
          "time": 116,
          "velocity": 0.8346456692913385
        },
        {
          "duration": 0.10833333333333428,
          "durationTicks": 26,
          "midi": 54,
          "name": "F#3",
          "ticks": 27900,
          "time": 116.25,
          "velocity": 0.5039370078740157
        },
        {
          "duration": 0.0833333333333286,
          "durationTicks": 20,
          "midi": 44,
          "name": "G#2",
          "ticks": 27900,
          "time": 116.25,
          "velocity": 0.8346456692913385
        },
        {
          "duration": 0.11666666666666003,
          "durationTicks": 28,
          "midi": 36,
          "name": "C2",
          "ticks": 27960,
          "time": 116.5,
          "velocity": 0.8346456692913385
        },
        {
          "duration": 0.10833333333333428,
          "durationTicks": 26,
          "midi": 37,
          "name": "C#2",
          "ticks": 27960,
          "time": 116.5,
          "velocity": 0.5039370078740157
        },
        {
          "duration": 0.10833333333333428,
          "durationTicks": 26,
          "midi": 40,
          "name": "E2",
          "ticks": 27960,
          "time": 116.5,
          "velocity": 0.5039370078740157
        },
        {
          "duration": 0.0833333333333286,
          "durationTicks": 20,
          "midi": 59,
          "name": "B3",
          "ticks": 27960,
          "time": 116.5,
          "velocity": 0.8346456692913385
        },
        {
          "duration": 0.0833333333333286,
          "durationTicks": 20,
          "midi": 44,
          "name": "G#2",
          "ticks": 27960,
          "time": 116.5,
          "velocity": 0.8346456692913385
        },
        {
          "duration": 0.10833333333333428,
          "durationTicks": 26,
          "midi": 54,
          "name": "F#3",
          "ticks": 28020,
          "time": 116.75,
          "velocity": 0.5039370078740157
        },
        {
          "duration": 0.11666666666666003,
          "durationTicks": 28,
          "midi": 36,
          "name": "C2",
          "ticks": 28020,
          "time": 116.75,
          "velocity": 0.8346456692913385
        },
        {
          "duration": 0.0833333333333286,
          "durationTicks": 20,
          "midi": 44,
          "name": "G#2",
          "ticks": 28020,
          "time": 116.75,
          "velocity": 0.8346456692913385
        },
        {
          "duration": 0.0833333333333286,
          "durationTicks": 20,
          "midi": 59,
          "name": "B3",
          "ticks": 28080,
          "time": 117,
          "velocity": 0.8346456692913385
        },
        {
          "duration": 0.11666666666666003,
          "durationTicks": 28,
          "midi": 36,
          "name": "C2",
          "ticks": 28080,
          "time": 117,
          "velocity": 0.8346456692913385
        },
        {
          "duration": 0.0833333333333286,
          "durationTicks": 20,
          "midi": 44,
          "name": "G#2",
          "ticks": 28080,
          "time": 117,
          "velocity": 0.8346456692913385
        },
        {
          "duration": 0.10833333333333428,
          "durationTicks": 26,
          "midi": 37,
          "name": "C#2",
          "ticks": 28140,
          "time": 117.25,
          "velocity": 0.5039370078740157
        },
        {
          "duration": 0.11666666666666003,
          "durationTicks": 28,
          "midi": 36,
          "name": "C2",
          "ticks": 28140,
          "time": 117.25,
          "velocity": 0.8346456692913385
        },
        {
          "duration": 0.10833333333333428,
          "durationTicks": 26,
          "midi": 40,
          "name": "E2",
          "ticks": 28140,
          "time": 117.25,
          "velocity": 0.5039370078740157
        },
        {
          "duration": 0.0833333333333286,
          "durationTicks": 20,
          "midi": 44,
          "name": "G#2",
          "ticks": 28140,
          "time": 117.25,
          "velocity": 0.8346456692913385
        },
        {
          "duration": 0.10833333333333428,
          "durationTicks": 26,
          "midi": 54,
          "name": "F#3",
          "ticks": 28140,
          "time": 117.25,
          "velocity": 0.5039370078740157
        },
        {
          "duration": 0.11666666666666003,
          "durationTicks": 28,
          "midi": 36,
          "name": "C2",
          "ticks": 28200,
          "time": 117.5,
          "velocity": 0.8346456692913385
        },
        {
          "duration": 0.0833333333333286,
          "durationTicks": 20,
          "midi": 44,
          "name": "G#2",
          "ticks": 28200,
          "time": 117.5,
          "velocity": 0.8346456692913385
        },
        {
          "duration": 0.0833333333333286,
          "durationTicks": 20,
          "midi": 59,
          "name": "B3",
          "ticks": 28200,
          "time": 117.5,
          "velocity": 0.8346456692913385
        },
        {
          "duration": 0.0833333333333286,
          "durationTicks": 20,
          "midi": 44,
          "name": "G#2",
          "ticks": 28260,
          "time": 117.75,
          "velocity": 0.8346456692913385
        },
        {
          "duration": 0.11666666666666003,
          "durationTicks": 28,
          "midi": 36,
          "name": "C2",
          "ticks": 28260,
          "time": 117.75,
          "velocity": 0.8346456692913385
        },
        {
          "duration": 0.10833333333333428,
          "durationTicks": 26,
          "midi": 54,
          "name": "F#3",
          "ticks": 28260,
          "time": 117.75,
          "velocity": 0.5039370078740157
        },
        {
          "duration": 0.0833333333333286,
          "durationTicks": 20,
          "midi": 44,
          "name": "G#2",
          "ticks": 28320,
          "time": 118,
          "velocity": 0.8346456692913385
        },
        {
          "duration": 0.0833333333333286,
          "durationTicks": 20,
          "midi": 59,
          "name": "B3",
          "ticks": 28320,
          "time": 118,
          "velocity": 0.8346456692913385
        },
        {
          "duration": 0.11666666666666003,
          "durationTicks": 28,
          "midi": 36,
          "name": "C2",
          "ticks": 28320,
          "time": 118,
          "velocity": 0.8346456692913385
        },
        {
          "duration": 0.0833333333333286,
          "durationTicks": 20,
          "midi": 44,
          "name": "G#2",
          "ticks": 28380,
          "time": 118.25,
          "velocity": 0.8346456692913385
        },
        {
          "duration": 0.10833333333333428,
          "durationTicks": 26,
          "midi": 54,
          "name": "F#3",
          "ticks": 28380,
          "time": 118.25,
          "velocity": 0.5039370078740157
        },
        {
          "duration": 0.11666666666666003,
          "durationTicks": 28,
          "midi": 36,
          "name": "C2",
          "ticks": 28440,
          "time": 118.5,
          "velocity": 0.8346456692913385
        },
        {
          "duration": 0.10833333333333428,
          "durationTicks": 26,
          "midi": 40,
          "name": "E2",
          "ticks": 28440,
          "time": 118.5,
          "velocity": 0.5039370078740157
        },
        {
          "duration": 0.0833333333333286,
          "durationTicks": 20,
          "midi": 59,
          "name": "B3",
          "ticks": 28440,
          "time": 118.5,
          "velocity": 0.8346456692913385
        },
        {
          "duration": 0.0833333333333286,
          "durationTicks": 20,
          "midi": 44,
          "name": "G#2",
          "ticks": 28440,
          "time": 118.5,
          "velocity": 0.8346456692913385
        },
        {
          "duration": 0.10833333333333428,
          "durationTicks": 26,
          "midi": 37,
          "name": "C#2",
          "ticks": 28440,
          "time": 118.5,
          "velocity": 0.5039370078740157
        },
        {
          "duration": 0.0833333333333286,
          "durationTicks": 20,
          "midi": 44,
          "name": "G#2",
          "ticks": 28500,
          "time": 118.75,
          "velocity": 0.8346456692913385
        },
        {
          "duration": 0.11666666666666003,
          "durationTicks": 28,
          "midi": 36,
          "name": "C2",
          "ticks": 28500,
          "time": 118.75,
          "velocity": 0.8346456692913385
        },
        {
          "duration": 0.10833333333333428,
          "durationTicks": 26,
          "midi": 54,
          "name": "F#3",
          "ticks": 28500,
          "time": 118.75,
          "velocity": 0.5039370078740157
        },
        {
          "duration": 0.0833333333333286,
          "durationTicks": 20,
          "midi": 59,
          "name": "B3",
          "ticks": 28560,
          "time": 119,
          "velocity": 0.8346456692913385
        },
        {
          "duration": 0.0833333333333286,
          "durationTicks": 20,
          "midi": 44,
          "name": "G#2",
          "ticks": 28560,
          "time": 119,
          "velocity": 0.8346456692913385
        },
        {
          "duration": 0.11666666666666003,
          "durationTicks": 28,
          "midi": 36,
          "name": "C2",
          "ticks": 28560,
          "time": 119,
          "velocity": 0.8346456692913385
        },
        {
          "duration": 0.10833333333333428,
          "durationTicks": 26,
          "midi": 37,
          "name": "C#2",
          "ticks": 28620,
          "time": 119.25,
          "velocity": 0.5039370078740157
        },
        {
          "duration": 0.0833333333333286,
          "durationTicks": 20,
          "midi": 44,
          "name": "G#2",
          "ticks": 28620,
          "time": 119.25,
          "velocity": 0.8346456692913385
        },
        {
          "duration": 0.10833333333333428,
          "durationTicks": 26,
          "midi": 40,
          "name": "E2",
          "ticks": 28620,
          "time": 119.25,
          "velocity": 0.5039370078740157
        },
        {
          "duration": 0.10833333333333428,
          "durationTicks": 26,
          "midi": 54,
          "name": "F#3",
          "ticks": 28620,
          "time": 119.25,
          "velocity": 0.5039370078740157
        },
        {
          "duration": 0.11666666666666003,
          "durationTicks": 28,
          "midi": 36,
          "name": "C2",
          "ticks": 28620,
          "time": 119.25,
          "velocity": 0.8346456692913385
        },
        {
          "duration": 0.11666666666666003,
          "durationTicks": 28,
          "midi": 36,
          "name": "C2",
          "ticks": 28680,
          "time": 119.5,
          "velocity": 0.8346456692913385
        },
        {
          "duration": 0.0833333333333286,
          "durationTicks": 20,
          "midi": 44,
          "name": "G#2",
          "ticks": 28680,
          "time": 119.5,
          "velocity": 0.8346456692913385
        },
        {
          "duration": 0.0833333333333286,
          "durationTicks": 20,
          "midi": 59,
          "name": "B3",
          "ticks": 28680,
          "time": 119.5,
          "velocity": 0.8346456692913385
        },
        {
          "duration": 0.11666666666666003,
          "durationTicks": 28,
          "midi": 36,
          "name": "C2",
          "ticks": 28740,
          "time": 119.75,
          "velocity": 0.8346456692913385
        },
        {
          "duration": 0.10833333333333428,
          "durationTicks": 26,
          "midi": 54,
          "name": "F#3",
          "ticks": 28740,
          "time": 119.75,
          "velocity": 0.5039370078740157
        },
        {
          "duration": 0.0833333333333286,
          "durationTicks": 20,
          "midi": 44,
          "name": "G#2",
          "ticks": 28740,
          "time": 119.75,
          "velocity": 0.8346456692913385
        },
        {
          "duration": 0.0833333333333286,
          "durationTicks": 20,
          "midi": 59,
          "name": "B3",
          "ticks": 28800,
          "time": 120,
          "velocity": 0.8346456692913385
        },
        {
          "duration": 0.11666666666666003,
          "durationTicks": 28,
          "midi": 36,
          "name": "C2",
          "ticks": 28800,
          "time": 120,
          "velocity": 0.8346456692913385
        },
        {
          "duration": 0.0833333333333286,
          "durationTicks": 20,
          "midi": 55,
          "name": "G3",
          "ticks": 28800,
          "time": 120,
          "velocity": 0.8346456692913385
        },
        {
          "duration": 0.0833333333333286,
          "durationTicks": 20,
          "midi": 44,
          "name": "G#2",
          "ticks": 28800,
          "time": 120,
          "velocity": 0.8346456692913385
        },
        {
          "duration": 0.10833333333333428,
          "durationTicks": 26,
          "midi": 54,
          "name": "F#3",
          "ticks": 28860,
          "time": 120.25,
          "velocity": 0.5039370078740157
        },
        {
          "duration": 0.0833333333333286,
          "durationTicks": 20,
          "midi": 44,
          "name": "G#2",
          "ticks": 28860,
          "time": 120.25,
          "velocity": 0.8346456692913385
        },
        {
          "duration": 0.10833333333333428,
          "durationTicks": 26,
          "midi": 37,
          "name": "C#2",
          "ticks": 28920,
          "time": 120.5,
          "velocity": 0.5039370078740157
        },
        {
          "duration": 0.0833333333333286,
          "durationTicks": 20,
          "midi": 59,
          "name": "B3",
          "ticks": 28920,
          "time": 120.5,
          "velocity": 0.8346456692913385
        },
        {
          "duration": 0.11666666666666003,
          "durationTicks": 28,
          "midi": 36,
          "name": "C2",
          "ticks": 28920,
          "time": 120.5,
          "velocity": 0.8346456692913385
        },
        {
          "duration": 0.10833333333333428,
          "durationTicks": 26,
          "midi": 40,
          "name": "E2",
          "ticks": 28920,
          "time": 120.5,
          "velocity": 0.5039370078740157
        },
        {
          "duration": 0.0833333333333286,
          "durationTicks": 20,
          "midi": 44,
          "name": "G#2",
          "ticks": 28920,
          "time": 120.5,
          "velocity": 0.8346456692913385
        },
        {
          "duration": 0.10833333333333428,
          "durationTicks": 26,
          "midi": 54,
          "name": "F#3",
          "ticks": 28980,
          "time": 120.75,
          "velocity": 0.5039370078740157
        },
        {
          "duration": 0.11666666666666003,
          "durationTicks": 28,
          "midi": 36,
          "name": "C2",
          "ticks": 28980,
          "time": 120.75,
          "velocity": 0.8346456692913385
        },
        {
          "duration": 0.0833333333333286,
          "durationTicks": 20,
          "midi": 44,
          "name": "G#2",
          "ticks": 28980,
          "time": 120.75,
          "velocity": 0.8346456692913385
        },
        {
          "duration": 0.11666666666666003,
          "durationTicks": 28,
          "midi": 36,
          "name": "C2",
          "ticks": 29040,
          "time": 121,
          "velocity": 0.8346456692913385
        },
        {
          "duration": 0.0833333333333286,
          "durationTicks": 20,
          "midi": 44,
          "name": "G#2",
          "ticks": 29040,
          "time": 121,
          "velocity": 0.8346456692913385
        },
        {
          "duration": 0.0833333333333286,
          "durationTicks": 20,
          "midi": 59,
          "name": "B3",
          "ticks": 29040,
          "time": 121,
          "velocity": 0.8346456692913385
        },
        {
          "duration": 0.10833333333333428,
          "durationTicks": 26,
          "midi": 37,
          "name": "C#2",
          "ticks": 29100,
          "time": 121.25,
          "velocity": 0.5039370078740157
        },
        {
          "duration": 0.11666666666666003,
          "durationTicks": 28,
          "midi": 36,
          "name": "C2",
          "ticks": 29100,
          "time": 121.25,
          "velocity": 0.8346456692913385
        },
        {
          "duration": 0.10833333333333428,
          "durationTicks": 26,
          "midi": 40,
          "name": "E2",
          "ticks": 29100,
          "time": 121.25,
          "velocity": 0.5039370078740157
        },
        {
          "duration": 0.10833333333333428,
          "durationTicks": 26,
          "midi": 54,
          "name": "F#3",
          "ticks": 29100,
          "time": 121.25,
          "velocity": 0.5039370078740157
        },
        {
          "duration": 0.0833333333333286,
          "durationTicks": 20,
          "midi": 44,
          "name": "G#2",
          "ticks": 29100,
          "time": 121.25,
          "velocity": 0.8346456692913385
        },
        {
          "duration": 0.0833333333333286,
          "durationTicks": 20,
          "midi": 59,
          "name": "B3",
          "ticks": 29160,
          "time": 121.5,
          "velocity": 0.8346456692913385
        },
        {
          "duration": 0.0833333333333286,
          "durationTicks": 20,
          "midi": 44,
          "name": "G#2",
          "ticks": 29160,
          "time": 121.5,
          "velocity": 0.8346456692913385
        },
        {
          "duration": 0.11666666666666003,
          "durationTicks": 28,
          "midi": 36,
          "name": "C2",
          "ticks": 29160,
          "time": 121.5,
          "velocity": 0.8346456692913385
        },
        {
          "duration": 0.0833333333333286,
          "durationTicks": 20,
          "midi": 44,
          "name": "G#2",
          "ticks": 29220,
          "time": 121.75,
          "velocity": 0.8346456692913385
        },
        {
          "duration": 0.10833333333333428,
          "durationTicks": 26,
          "midi": 54,
          "name": "F#3",
          "ticks": 29220,
          "time": 121.75,
          "velocity": 0.5039370078740157
        },
        {
          "duration": 0.11666666666666003,
          "durationTicks": 28,
          "midi": 36,
          "name": "C2",
          "ticks": 29220,
          "time": 121.75,
          "velocity": 0.8346456692913385
        },
        {
          "duration": 0.0833333333333286,
          "durationTicks": 20,
          "midi": 44,
          "name": "G#2",
          "ticks": 29280,
          "time": 122,
          "velocity": 0.8346456692913385
        },
        {
          "duration": 0.0833333333333286,
          "durationTicks": 20,
          "midi": 59,
          "name": "B3",
          "ticks": 29280,
          "time": 122,
          "velocity": 0.8346456692913385
        },
        {
          "duration": 0.11666666666666003,
          "durationTicks": 28,
          "midi": 36,
          "name": "C2",
          "ticks": 29280,
          "time": 122,
          "velocity": 0.8346456692913385
        },
        {
          "duration": 0.0833333333333286,
          "durationTicks": 20,
          "midi": 44,
          "name": "G#2",
          "ticks": 29340,
          "time": 122.25,
          "velocity": 0.8346456692913385
        },
        {
          "duration": 0.10833333333333428,
          "durationTicks": 26,
          "midi": 54,
          "name": "F#3",
          "ticks": 29340,
          "time": 122.25,
          "velocity": 0.5039370078740157
        },
        {
          "duration": 0.0833333333333286,
          "durationTicks": 20,
          "midi": 44,
          "name": "G#2",
          "ticks": 29400,
          "time": 122.5,
          "velocity": 0.8346456692913385
        },
        {
          "duration": 0.10833333333333428,
          "durationTicks": 26,
          "midi": 40,
          "name": "E2",
          "ticks": 29400,
          "time": 122.5,
          "velocity": 0.5039370078740157
        },
        {
          "duration": 0.11666666666666003,
          "durationTicks": 28,
          "midi": 36,
          "name": "C2",
          "ticks": 29400,
          "time": 122.5,
          "velocity": 0.8346456692913385
        },
        {
          "duration": 0.10833333333333428,
          "durationTicks": 26,
          "midi": 37,
          "name": "C#2",
          "ticks": 29400,
          "time": 122.5,
          "velocity": 0.5039370078740157
        },
        {
          "duration": 0.0833333333333286,
          "durationTicks": 20,
          "midi": 59,
          "name": "B3",
          "ticks": 29400,
          "time": 122.5,
          "velocity": 0.8346456692913385
        },
        {
          "duration": 0.10833333333333428,
          "durationTicks": 26,
          "midi": 54,
          "name": "F#3",
          "ticks": 29460,
          "time": 122.75,
          "velocity": 0.5039370078740157
        },
        {
          "duration": 0.0833333333333286,
          "durationTicks": 20,
          "midi": 44,
          "name": "G#2",
          "ticks": 29460,
          "time": 122.75,
          "velocity": 0.8346456692913385
        },
        {
          "duration": 0.11666666666666003,
          "durationTicks": 28,
          "midi": 36,
          "name": "C2",
          "ticks": 29460,
          "time": 122.75,
          "velocity": 0.8346456692913385
        },
        {
          "duration": 0.0833333333333286,
          "durationTicks": 20,
          "midi": 59,
          "name": "B3",
          "ticks": 29520,
          "time": 123,
          "velocity": 0.8346456692913385
        },
        {
          "duration": 0.11666666666666003,
          "durationTicks": 28,
          "midi": 36,
          "name": "C2",
          "ticks": 29520,
          "time": 123,
          "velocity": 0.8346456692913385
        },
        {
          "duration": 0.0833333333333286,
          "durationTicks": 20,
          "midi": 44,
          "name": "G#2",
          "ticks": 29520,
          "time": 123,
          "velocity": 0.8346456692913385
        },
        {
          "duration": 0.10833333333333428,
          "durationTicks": 26,
          "midi": 40,
          "name": "E2",
          "ticks": 29580,
          "time": 123.25,
          "velocity": 0.5039370078740157
        },
        {
          "duration": 0.0833333333333286,
          "durationTicks": 20,
          "midi": 44,
          "name": "G#2",
          "ticks": 29580,
          "time": 123.25,
          "velocity": 0.8346456692913385
        },
        {
          "duration": 0.11666666666666003,
          "durationTicks": 28,
          "midi": 36,
          "name": "C2",
          "ticks": 29580,
          "time": 123.25,
          "velocity": 0.8346456692913385
        },
        {
          "duration": 0.10833333333333428,
          "durationTicks": 26,
          "midi": 54,
          "name": "F#3",
          "ticks": 29580,
          "time": 123.25,
          "velocity": 0.5039370078740157
        },
        {
          "duration": 0.10833333333333428,
          "durationTicks": 26,
          "midi": 37,
          "name": "C#2",
          "ticks": 29580,
          "time": 123.25,
          "velocity": 0.5039370078740157
        },
        {
          "duration": 0.0833333333333286,
          "durationTicks": 20,
          "midi": 44,
          "name": "G#2",
          "ticks": 29640,
          "time": 123.5,
          "velocity": 0.8346456692913385
        },
        {
          "duration": 0.0833333333333286,
          "durationTicks": 20,
          "midi": 59,
          "name": "B3",
          "ticks": 29640,
          "time": 123.5,
          "velocity": 0.8346456692913385
        },
        {
          "duration": 0.11666666666666003,
          "durationTicks": 28,
          "midi": 36,
          "name": "C2",
          "ticks": 29640,
          "time": 123.5,
          "velocity": 0.8346456692913385
        },
        {
          "duration": 0.11666666666666003,
          "durationTicks": 28,
          "midi": 36,
          "name": "C2",
          "ticks": 29700,
          "time": 123.75,
          "velocity": 0.8346456692913385
        },
        {
          "duration": 0.0833333333333286,
          "durationTicks": 20,
          "midi": 44,
          "name": "G#2",
          "ticks": 29700,
          "time": 123.75,
          "velocity": 0.8346456692913385
        },
        {
          "duration": 0.10833333333333428,
          "durationTicks": 26,
          "midi": 54,
          "name": "F#3",
          "ticks": 29700,
          "time": 123.75,
          "velocity": 0.5039370078740157
        },
        {
          "duration": 0.0833333333333286,
          "durationTicks": 20,
          "midi": 44,
          "name": "G#2",
          "ticks": 29760,
          "time": 124,
          "velocity": 0.8346456692913385
        },
        {
          "duration": 0.11666666666666003,
          "durationTicks": 28,
          "midi": 36,
          "name": "C2",
          "ticks": 29760,
          "time": 124,
          "velocity": 0.8346456692913385
        },
        {
          "duration": 0.0833333333333286,
          "durationTicks": 20,
          "midi": 59,
          "name": "B3",
          "ticks": 29760,
          "time": 124,
          "velocity": 0.8346456692913385
        },
        {
          "duration": 0.0833333333333286,
          "durationTicks": 20,
          "midi": 44,
          "name": "G#2",
          "ticks": 29820,
          "time": 124.25,
          "velocity": 0.8346456692913385
        },
        {
          "duration": 0.10833333333333428,
          "durationTicks": 26,
          "midi": 54,
          "name": "F#3",
          "ticks": 29820,
          "time": 124.25,
          "velocity": 0.5039370078740157
        },
        {
          "duration": 0.10833333333333428,
          "durationTicks": 26,
          "midi": 40,
          "name": "E2",
          "ticks": 29880,
          "time": 124.5,
          "velocity": 0.5039370078740157
        },
        {
          "duration": 0.0833333333333286,
          "durationTicks": 20,
          "midi": 44,
          "name": "G#2",
          "ticks": 29880,
          "time": 124.5,
          "velocity": 0.8346456692913385
        },
        {
          "duration": 0.0833333333333286,
          "durationTicks": 20,
          "midi": 59,
          "name": "B3",
          "ticks": 29880,
          "time": 124.5,
          "velocity": 0.8346456692913385
        },
        {
          "duration": 0.11666666666666003,
          "durationTicks": 28,
          "midi": 36,
          "name": "C2",
          "ticks": 29880,
          "time": 124.5,
          "velocity": 0.8346456692913385
        },
        {
          "duration": 0.10833333333333428,
          "durationTicks": 26,
          "midi": 37,
          "name": "C#2",
          "ticks": 29880,
          "time": 124.5,
          "velocity": 0.5039370078740157
        },
        {
          "duration": 0.0833333333333286,
          "durationTicks": 20,
          "midi": 44,
          "name": "G#2",
          "ticks": 29940,
          "time": 124.75,
          "velocity": 0.8346456692913385
        },
        {
          "duration": 0.11666666666666003,
          "durationTicks": 28,
          "midi": 36,
          "name": "C2",
          "ticks": 29940,
          "time": 124.75,
          "velocity": 0.8346456692913385
        },
        {
          "duration": 0.10833333333333428,
          "durationTicks": 26,
          "midi": 54,
          "name": "F#3",
          "ticks": 29940,
          "time": 124.75,
          "velocity": 0.5039370078740157
        },
        {
          "duration": 0.0833333333333286,
          "durationTicks": 20,
          "midi": 44,
          "name": "G#2",
          "ticks": 30000,
          "time": 125,
          "velocity": 0.8346456692913385
        },
        {
          "duration": 0.11666666666666003,
          "durationTicks": 28,
          "midi": 36,
          "name": "C2",
          "ticks": 30000,
          "time": 125,
          "velocity": 0.8346456692913385
        },
        {
          "duration": 0.0833333333333286,
          "durationTicks": 20,
          "midi": 59,
          "name": "B3",
          "ticks": 30000,
          "time": 125,
          "velocity": 0.8346456692913385
        },
        {
          "duration": 0.10833333333333428,
          "durationTicks": 26,
          "midi": 37,
          "name": "C#2",
          "ticks": 30060,
          "time": 125.25,
          "velocity": 0.5039370078740157
        },
        {
          "duration": 0.10833333333333428,
          "durationTicks": 26,
          "midi": 40,
          "name": "E2",
          "ticks": 30060,
          "time": 125.25,
          "velocity": 0.5039370078740157
        },
        {
          "duration": 0.10833333333333428,
          "durationTicks": 26,
          "midi": 54,
          "name": "F#3",
          "ticks": 30060,
          "time": 125.25,
          "velocity": 0.5039370078740157
        },
        {
          "duration": 0.0833333333333286,
          "durationTicks": 20,
          "midi": 44,
          "name": "G#2",
          "ticks": 30060,
          "time": 125.25,
          "velocity": 0.8346456692913385
        },
        {
          "duration": 0.11666666666666003,
          "durationTicks": 28,
          "midi": 36,
          "name": "C2",
          "ticks": 30060,
          "time": 125.25,
          "velocity": 0.8346456692913385
        },
        {
          "duration": 0.0833333333333286,
          "durationTicks": 20,
          "midi": 59,
          "name": "B3",
          "ticks": 30120,
          "time": 125.5,
          "velocity": 0.8346456692913385
        },
        {
          "duration": 0.0833333333333286,
          "durationTicks": 20,
          "midi": 44,
          "name": "G#2",
          "ticks": 30120,
          "time": 125.5,
          "velocity": 0.8346456692913385
        },
        {
          "duration": 0.11666666666666003,
          "durationTicks": 28,
          "midi": 36,
          "name": "C2",
          "ticks": 30120,
          "time": 125.5,
          "velocity": 0.8346456692913385
        },
        {
          "duration": 0.10833333333333428,
          "durationTicks": 26,
          "midi": 54,
          "name": "F#3",
          "ticks": 30180,
          "time": 125.75,
          "velocity": 0.5039370078740157
        },
        {
          "duration": 0.0833333333333286,
          "durationTicks": 20,
          "midi": 44,
          "name": "G#2",
          "ticks": 30180,
          "time": 125.75,
          "velocity": 0.8346456692913385
        },
        {
          "duration": 0.11666666666666003,
          "durationTicks": 28,
          "midi": 36,
          "name": "C2",
          "ticks": 30180,
          "time": 125.75,
          "velocity": 0.8346456692913385
        },
        {
          "duration": 0.11666666666666003,
          "durationTicks": 28,
          "midi": 36,
          "name": "C2",
          "ticks": 30240,
          "time": 126,
          "velocity": 0.8346456692913385
        },
        {
          "duration": 0.0833333333333286,
          "durationTicks": 20,
          "midi": 59,
          "name": "B3",
          "ticks": 30240,
          "time": 126,
          "velocity": 0.8346456692913385
        },
        {
          "duration": 0.0833333333333286,
          "durationTicks": 20,
          "midi": 44,
          "name": "G#2",
          "ticks": 30240,
          "time": 126,
          "velocity": 0.8346456692913385
        },
        {
          "duration": 0.0833333333333286,
          "durationTicks": 20,
          "midi": 44,
          "name": "G#2",
          "ticks": 30300,
          "time": 126.25,
          "velocity": 0.8346456692913385
        },
        {
          "duration": 0.10833333333333428,
          "durationTicks": 26,
          "midi": 54,
          "name": "F#3",
          "ticks": 30300,
          "time": 126.25,
          "velocity": 0.5039370078740157
        },
        {
          "duration": 0.10833333333333428,
          "durationTicks": 26,
          "midi": 37,
          "name": "C#2",
          "ticks": 30360,
          "time": 126.5,
          "velocity": 0.5039370078740157
        },
        {
          "duration": 0.10833333333333428,
          "durationTicks": 26,
          "midi": 40,
          "name": "E2",
          "ticks": 30360,
          "time": 126.5,
          "velocity": 0.5039370078740157
        },
        {
          "duration": 0.0833333333333286,
          "durationTicks": 20,
          "midi": 59,
          "name": "B3",
          "ticks": 30360,
          "time": 126.5,
          "velocity": 0.8346456692913385
        },
        {
          "duration": 0.0833333333333286,
          "durationTicks": 20,
          "midi": 44,
          "name": "G#2",
          "ticks": 30360,
          "time": 126.5,
          "velocity": 0.8346456692913385
        },
        {
          "duration": 0.11666666666666003,
          "durationTicks": 28,
          "midi": 36,
          "name": "C2",
          "ticks": 30360,
          "time": 126.5,
          "velocity": 0.8346456692913385
        },
        {
          "duration": 0.10833333333333428,
          "durationTicks": 26,
          "midi": 54,
          "name": "F#3",
          "ticks": 30420,
          "time": 126.75,
          "velocity": 0.5039370078740157
        },
        {
          "duration": 0.11666666666666003,
          "durationTicks": 28,
          "midi": 36,
          "name": "C2",
          "ticks": 30420,
          "time": 126.75,
          "velocity": 0.8346456692913385
        },
        {
          "duration": 0.0833333333333286,
          "durationTicks": 20,
          "midi": 44,
          "name": "G#2",
          "ticks": 30420,
          "time": 126.75,
          "velocity": 0.8346456692913385
        },
        {
          "duration": 0.0833333333333286,
          "durationTicks": 20,
          "midi": 44,
          "name": "G#2",
          "ticks": 30480,
          "time": 127,
          "velocity": 0.8346456692913385
        },
        {
          "duration": 0.11666666666666003,
          "durationTicks": 28,
          "midi": 36,
          "name": "C2",
          "ticks": 30480,
          "time": 127,
          "velocity": 0.8346456692913385
        },
        {
          "duration": 0.0833333333333286,
          "durationTicks": 20,
          "midi": 59,
          "name": "B3",
          "ticks": 30480,
          "time": 127,
          "velocity": 0.8346456692913385
        },
        {
          "duration": 0.10833333333333428,
          "durationTicks": 26,
          "midi": 54,
          "name": "F#3",
          "ticks": 30540,
          "time": 127.25,
          "velocity": 0.5039370078740157
        },
        {
          "duration": 0.0833333333333286,
          "durationTicks": 20,
          "midi": 44,
          "name": "G#2",
          "ticks": 30540,
          "time": 127.25,
          "velocity": 0.8346456692913385
        },
        {
          "duration": 0.11666666666666003,
          "durationTicks": 28,
          "midi": 36,
          "name": "C2",
          "ticks": 30540,
          "time": 127.25,
          "velocity": 0.8346456692913385
        },
        {
          "duration": 0.10833333333333428,
          "durationTicks": 26,
          "midi": 40,
          "name": "E2",
          "ticks": 30540,
          "time": 127.25,
          "velocity": 0.5039370078740157
        },
        {
          "duration": 0.10833333333333428,
          "durationTicks": 26,
          "midi": 37,
          "name": "C#2",
          "ticks": 30540,
          "time": 127.25,
          "velocity": 0.5039370078740157
        },
        {
          "duration": 0.0833333333333286,
          "durationTicks": 20,
          "midi": 44,
          "name": "G#2",
          "ticks": 30600,
          "time": 127.5,
          "velocity": 0.8346456692913385
        },
        {
          "duration": 0.0833333333333286,
          "durationTicks": 20,
          "midi": 59,
          "name": "B3",
          "ticks": 30600,
          "time": 127.5,
          "velocity": 0.8346456692913385
        },
        {
          "duration": 0.11666666666666003,
          "durationTicks": 28,
          "midi": 36,
          "name": "C2",
          "ticks": 30660,
          "time": 127.75,
          "velocity": 0.8346456692913385
        },
        {
          "duration": 0.0833333333333286,
          "durationTicks": 20,
          "midi": 44,
          "name": "G#2",
          "ticks": 30660,
          "time": 127.75,
          "velocity": 0.8346456692913385
        },
        {
          "duration": 0.10833333333333428,
          "durationTicks": 26,
          "midi": 54,
          "name": "F#3",
          "ticks": 30660,
          "time": 127.75,
          "velocity": 0.5039370078740157
        },
        {
          "duration": 0.11666666666667425,
          "durationTicks": 28,
          "midi": 36,
          "name": "C2",
          "ticks": 30720,
          "time": 128,
          "velocity": 0.8346456692913385
        },
        {
          "duration": 0.08333333333334281,
          "durationTicks": 20,
          "midi": 59,
          "name": "B3",
          "ticks": 30720,
          "time": 128,
          "velocity": 0.8346456692913385
        },
        {
          "duration": 0.08333333333334281,
          "durationTicks": 20,
          "midi": 44,
          "name": "G#2",
          "ticks": 30720,
          "time": 128,
          "velocity": 0.8346456692913385
        },
        {
          "duration": 0.10833333333332007,
          "durationTicks": 26,
          "midi": 54,
          "name": "F#3",
          "ticks": 30780,
          "time": 128.25,
          "velocity": 0.5039370078740157
        },
        {
          "duration": 0.08333333333334281,
          "durationTicks": 20,
          "midi": 44,
          "name": "G#2",
          "ticks": 30780,
          "time": 128.25,
          "velocity": 0.8346456692913385
        },
        {
          "duration": 0.08333333333334281,
          "durationTicks": 20,
          "midi": 59,
          "name": "B3",
          "ticks": 30840,
          "time": 128.5,
          "velocity": 0.8346456692913385
        },
        {
          "duration": 0.10833333333332007,
          "durationTicks": 26,
          "midi": 37,
          "name": "C#2",
          "ticks": 30840,
          "time": 128.5,
          "velocity": 0.5039370078740157
        },
        {
          "duration": 0.08333333333334281,
          "durationTicks": 20,
          "midi": 44,
          "name": "G#2",
          "ticks": 30840,
          "time": 128.5,
          "velocity": 0.8346456692913385
        },
        {
          "duration": 0.11666666666667425,
          "durationTicks": 28,
          "midi": 36,
          "name": "C2",
          "ticks": 30840,
          "time": 128.5,
          "velocity": 0.8346456692913385
        },
        {
          "duration": 0.10833333333332007,
          "durationTicks": 26,
          "midi": 40,
          "name": "E2",
          "ticks": 30840,
          "time": 128.5,
          "velocity": 0.5039370078740157
        },
        {
          "duration": 0.10833333333332007,
          "durationTicks": 26,
          "midi": 54,
          "name": "F#3",
          "ticks": 30900,
          "time": 128.75,
          "velocity": 0.5039370078740157
        },
        {
          "duration": 0.08333333333334281,
          "durationTicks": 20,
          "midi": 44,
          "name": "G#2",
          "ticks": 30900,
          "time": 128.75,
          "velocity": 0.8346456692913385
        },
        {
          "duration": 0.08333333333334281,
          "durationTicks": 20,
          "midi": 44,
          "name": "G#2",
          "ticks": 30960,
          "time": 129,
          "velocity": 0.8346456692913385
        },
        {
          "duration": 0.10833333333332007,
          "durationTicks": 26,
          "midi": 37,
          "name": "C#2",
          "ticks": 30960,
          "time": 129,
          "velocity": 0.5039370078740157
        },
        {
          "duration": 0.10833333333332007,
          "durationTicks": 26,
          "midi": 40,
          "name": "E2",
          "ticks": 30960,
          "time": 129,
          "velocity": 0.5039370078740157
        },
        {
          "duration": 0.11666666666667425,
          "durationTicks": 28,
          "midi": 36,
          "name": "C2",
          "ticks": 30960,
          "time": 129,
          "velocity": 0.8346456692913385
        },
        {
          "duration": 0.08333333333334281,
          "durationTicks": 20,
          "midi": 59,
          "name": "B3",
          "ticks": 30960,
          "time": 129,
          "velocity": 0.8346456692913385
        },
        {
          "duration": 0.10833333333332007,
          "durationTicks": 26,
          "midi": 54,
          "name": "F#3",
          "ticks": 31020,
          "time": 129.25,
          "velocity": 0.5039370078740157
        },
        {
          "duration": 0.08333333333334281,
          "durationTicks": 20,
          "midi": 44,
          "name": "G#2",
          "ticks": 31020,
          "time": 129.25,
          "velocity": 0.8346456692913385
        },
        {
          "duration": 0.08333333333334281,
          "durationTicks": 20,
          "midi": 59,
          "name": "B3",
          "ticks": 31080,
          "time": 129.5,
          "velocity": 0.8346456692913385
        },
        {
          "duration": 0.08333333333334281,
          "durationTicks": 20,
          "midi": 44,
          "name": "G#2",
          "ticks": 31080,
          "time": 129.5,
          "velocity": 0.8346456692913385
        },
        {
          "duration": 0.10833333333332007,
          "durationTicks": 26,
          "midi": 40,
          "name": "E2",
          "ticks": 31080,
          "time": 129.5,
          "velocity": 0.5039370078740157
        },
        {
          "duration": 0.10833333333332007,
          "durationTicks": 26,
          "midi": 37,
          "name": "C#2",
          "ticks": 31080,
          "time": 129.5,
          "velocity": 0.5039370078740157
        },
        {
          "duration": 0.11666666666667425,
          "durationTicks": 28,
          "midi": 36,
          "name": "C2",
          "ticks": 31080,
          "time": 129.5,
          "velocity": 0.8346456692913385
        },
        {
          "duration": 0.10833333333332007,
          "durationTicks": 26,
          "midi": 54,
          "name": "F#3",
          "ticks": 31140,
          "time": 129.75,
          "velocity": 0.5039370078740157
        },
        {
          "duration": 0.08333333333334281,
          "durationTicks": 20,
          "midi": 44,
          "name": "G#2",
          "ticks": 31140,
          "time": 129.75,
          "velocity": 0.8346456692913385
        },
        {
          "duration": 0.11666666666667425,
          "durationTicks": 28,
          "midi": 36,
          "name": "C2",
          "ticks": 31200,
          "time": 130,
          "velocity": 0.8346456692913385
        },
        {
          "duration": 0.08333333333334281,
          "durationTicks": 20,
          "midi": 44,
          "name": "G#2",
          "ticks": 31200,
          "time": 130,
          "velocity": 0.8346456692913385
        },
        {
          "duration": 0.08333333333334281,
          "durationTicks": 20,
          "midi": 55,
          "name": "G3",
          "ticks": 31200,
          "time": 130,
          "velocity": 0.8346456692913385
        },
        {
          "duration": 0.08333333333334281,
          "durationTicks": 20,
          "midi": 59,
          "name": "B3",
          "ticks": 31200,
          "time": 130,
          "velocity": 0.8346456692913385
        },
        {
          "duration": 0.10833333333332007,
          "durationTicks": 26,
          "midi": 54,
          "name": "F#3",
          "ticks": 31260,
          "time": 130.25,
          "velocity": 0.5039370078740157
        },
        {
          "duration": 0.08333333333334281,
          "durationTicks": 20,
          "midi": 44,
          "name": "G#2",
          "ticks": 31260,
          "time": 130.25,
          "velocity": 0.8346456692913385
        },
        {
          "duration": 0.08333333333334281,
          "durationTicks": 20,
          "midi": 59,
          "name": "B3",
          "ticks": 31320,
          "time": 130.5,
          "velocity": 0.8346456692913385
        },
        {
          "duration": 0.11666666666667425,
          "durationTicks": 28,
          "midi": 36,
          "name": "C2",
          "ticks": 31320,
          "time": 130.5,
          "velocity": 0.8346456692913385
        },
        {
          "duration": 0.08333333333334281,
          "durationTicks": 20,
          "midi": 44,
          "name": "G#2",
          "ticks": 31320,
          "time": 130.5,
          "velocity": 0.8346456692913385
        },
        {
          "duration": 0.11666666666667425,
          "durationTicks": 28,
          "midi": 36,
          "name": "C2",
          "ticks": 31380,
          "time": 130.75,
          "velocity": 0.8346456692913385
        },
        {
          "duration": 0.10833333333332007,
          "durationTicks": 26,
          "midi": 54,
          "name": "F#3",
          "ticks": 31380,
          "time": 130.75,
          "velocity": 0.5039370078740157
        },
        {
          "duration": 0.08333333333334281,
          "durationTicks": 20,
          "midi": 44,
          "name": "G#2",
          "ticks": 31380,
          "time": 130.75,
          "velocity": 0.8346456692913385
        },
        {
          "duration": 0.10833333333332007,
          "durationTicks": 26,
          "midi": 40,
          "name": "E2",
          "ticks": 31440,
          "time": 131,
          "velocity": 0.5039370078740157
        },
        {
          "duration": 0.10833333333332007,
          "durationTicks": 26,
          "midi": 37,
          "name": "C#2",
          "ticks": 31440,
          "time": 131,
          "velocity": 0.5039370078740157
        },
        {
          "duration": 0.08333333333334281,
          "durationTicks": 20,
          "midi": 44,
          "name": "G#2",
          "ticks": 31440,
          "time": 131,
          "velocity": 0.8346456692913385
        },
        {
          "duration": 0.11666666666667425,
          "durationTicks": 28,
          "midi": 36,
          "name": "C2",
          "ticks": 31440,
          "time": 131,
          "velocity": 0.8346456692913385
        },
        {
          "duration": 0.08333333333334281,
          "durationTicks": 20,
          "midi": 59,
          "name": "B3",
          "ticks": 31440,
          "time": 131,
          "velocity": 0.8346456692913385
        },
        {
          "duration": 0.11666666666667425,
          "durationTicks": 28,
          "midi": 36,
          "name": "C2",
          "ticks": 31500,
          "time": 131.25,
          "velocity": 0.8346456692913385
        },
        {
          "duration": 0.10833333333332007,
          "durationTicks": 26,
          "midi": 54,
          "name": "F#3",
          "ticks": 31500,
          "time": 131.25,
          "velocity": 0.5039370078740157
        },
        {
          "duration": 0.08333333333334281,
          "durationTicks": 20,
          "midi": 44,
          "name": "G#2",
          "ticks": 31500,
          "time": 131.25,
          "velocity": 0.8346456692913385
        },
        {
          "duration": 0.08333333333334281,
          "durationTicks": 20,
          "midi": 44,
          "name": "G#2",
          "ticks": 31560,
          "time": 131.5,
          "velocity": 0.8346456692913385
        },
        {
          "duration": 0.08333333333334281,
          "durationTicks": 20,
          "midi": 59,
          "name": "B3",
          "ticks": 31560,
          "time": 131.5,
          "velocity": 0.8346456692913385
        },
        {
          "duration": 0.10833333333332007,
          "durationTicks": 26,
          "midi": 54,
          "name": "F#3",
          "ticks": 31620,
          "time": 131.75,
          "velocity": 0.5039370078740157
        },
        {
          "duration": 0.11666666666667425,
          "durationTicks": 28,
          "midi": 36,
          "name": "C2",
          "ticks": 31620,
          "time": 131.75,
          "velocity": 0.8346456692913385
        },
        {
          "duration": 0.08333333333334281,
          "durationTicks": 20,
          "midi": 44,
          "name": "G#2",
          "ticks": 31620,
          "time": 131.75,
          "velocity": 0.8346456692913385
        },
        {
          "duration": 0.08333333333334281,
          "durationTicks": 20,
          "midi": 59,
          "name": "B3",
          "ticks": 31680,
          "time": 132,
          "velocity": 0.8346456692913385
        },
        {
          "duration": 0.11666666666667425,
          "durationTicks": 28,
          "midi": 36,
          "name": "C2",
          "ticks": 31680,
          "time": 132,
          "velocity": 0.8346456692913385
        },
        {
          "duration": 0.08333333333334281,
          "durationTicks": 20,
          "midi": 44,
          "name": "G#2",
          "ticks": 31680,
          "time": 132,
          "velocity": 0.8346456692913385
        },
        {
          "duration": 0.08333333333334281,
          "durationTicks": 20,
          "midi": 44,
          "name": "G#2",
          "ticks": 31740,
          "time": 132.25,
          "velocity": 0.8346456692913385
        },
        {
          "duration": 0.10833333333332007,
          "durationTicks": 26,
          "midi": 54,
          "name": "F#3",
          "ticks": 31740,
          "time": 132.25,
          "velocity": 0.5039370078740157
        },
        {
          "duration": 0.11666666666667425,
          "durationTicks": 28,
          "midi": 36,
          "name": "C2",
          "ticks": 31800,
          "time": 132.5,
          "velocity": 0.8346456692913385
        },
        {
          "duration": 0.08333333333334281,
          "durationTicks": 20,
          "midi": 44,
          "name": "G#2",
          "ticks": 31800,
          "time": 132.5,
          "velocity": 0.8346456692913385
        },
        {
          "duration": 0.08333333333334281,
          "durationTicks": 20,
          "midi": 59,
          "name": "B3",
          "ticks": 31800,
          "time": 132.5,
          "velocity": 0.8346456692913385
        },
        {
          "duration": 0.11666666666667425,
          "durationTicks": 28,
          "midi": 36,
          "name": "C2",
          "ticks": 31860,
          "time": 132.75,
          "velocity": 0.8346456692913385
        },
        {
          "duration": 0.10833333333332007,
          "durationTicks": 26,
          "midi": 54,
          "name": "F#3",
          "ticks": 31860,
          "time": 132.75,
          "velocity": 0.5039370078740157
        },
        {
          "duration": 0.08333333333334281,
          "durationTicks": 20,
          "midi": 44,
          "name": "G#2",
          "ticks": 31860,
          "time": 132.75,
          "velocity": 0.8346456692913385
        },
        {
          "duration": 0.08333333333334281,
          "durationTicks": 20,
          "midi": 44,
          "name": "G#2",
          "ticks": 31920,
          "time": 133,
          "velocity": 0.8346456692913385
        },
        {
          "duration": 0.08333333333334281,
          "durationTicks": 20,
          "midi": 59,
          "name": "B3",
          "ticks": 31920,
          "time": 133,
          "velocity": 0.8346456692913385
        },
        {
          "duration": 0.11666666666667425,
          "durationTicks": 28,
          "midi": 36,
          "name": "C2",
          "ticks": 31920,
          "time": 133,
          "velocity": 0.8346456692913385
        },
        {
          "duration": 0.10833333333332007,
          "durationTicks": 26,
          "midi": 40,
          "name": "E2",
          "ticks": 31920,
          "time": 133,
          "velocity": 0.5039370078740157
        },
        {
          "duration": 0.10833333333332007,
          "durationTicks": 26,
          "midi": 37,
          "name": "C#2",
          "ticks": 31920,
          "time": 133,
          "velocity": 0.5039370078740157
        },
        {
          "duration": 0.10833333333332007,
          "durationTicks": 26,
          "midi": 54,
          "name": "F#3",
          "ticks": 31980,
          "time": 133.25,
          "velocity": 0.5039370078740157
        },
        {
          "duration": 0.08333333333334281,
          "durationTicks": 20,
          "midi": 44,
          "name": "G#2",
          "ticks": 31980,
          "time": 133.25,
          "velocity": 0.8346456692913385
        },
        {
          "duration": 0.11666666666667425,
          "durationTicks": 28,
          "midi": 36,
          "name": "C2",
          "ticks": 31980,
          "time": 133.25,
          "velocity": 0.8346456692913385
        },
        {
          "duration": 0.08333333333334281,
          "durationTicks": 20,
          "midi": 44,
          "name": "G#2",
          "ticks": 32040,
          "time": 133.5,
          "velocity": 0.8346456692913385
        },
        {
          "duration": 0.08333333333334281,
          "durationTicks": 20,
          "midi": 59,
          "name": "B3",
          "ticks": 32040,
          "time": 133.5,
          "velocity": 0.8346456692913385
        },
        {
          "duration": 0.10833333333332007,
          "durationTicks": 26,
          "midi": 54,
          "name": "F#3",
          "ticks": 32100,
          "time": 133.75,
          "velocity": 0.5039370078740157
        },
        {
          "duration": 0.11666666666667425,
          "durationTicks": 28,
          "midi": 36,
          "name": "C2",
          "ticks": 32100,
          "time": 133.75,
          "velocity": 0.8346456692913385
        },
        {
          "duration": 0.08333333333334281,
          "durationTicks": 20,
          "midi": 44,
          "name": "G#2",
          "ticks": 32100,
          "time": 133.75,
          "velocity": 0.8346456692913385
        },
        {
          "duration": 0.08333333333334281,
          "durationTicks": 20,
          "midi": 59,
          "name": "B3",
          "ticks": 32160,
          "time": 134,
          "velocity": 0.8346456692913385
        },
        {
          "duration": 0.08333333333334281,
          "durationTicks": 20,
          "midi": 44,
          "name": "G#2",
          "ticks": 32160,
          "time": 134,
          "velocity": 0.8346456692913385
        },
        {
          "duration": 0.11666666666667425,
          "durationTicks": 28,
          "midi": 36,
          "name": "C2",
          "ticks": 32160,
          "time": 134,
          "velocity": 0.8346456692913385
        },
        {
          "duration": 0.10833333333332007,
          "durationTicks": 26,
          "midi": 54,
          "name": "F#3",
          "ticks": 32220,
          "time": 134.25,
          "velocity": 0.5039370078740157
        },
        {
          "duration": 0.08333333333334281,
          "durationTicks": 20,
          "midi": 44,
          "name": "G#2",
          "ticks": 32220,
          "time": 134.25,
          "velocity": 0.8346456692913385
        },
        {
          "duration": 0.08333333333334281,
          "durationTicks": 20,
          "midi": 59,
          "name": "B3",
          "ticks": 32280,
          "time": 134.5,
          "velocity": 0.8346456692913385
        },
        {
          "duration": 0.08333333333334281,
          "durationTicks": 20,
          "midi": 44,
          "name": "G#2",
          "ticks": 32280,
          "time": 134.5,
          "velocity": 0.8346456692913385
        },
        {
          "duration": 0.11666666666667425,
          "durationTicks": 28,
          "midi": 36,
          "name": "C2",
          "ticks": 32280,
          "time": 134.5,
          "velocity": 0.8346456692913385
        },
        {
          "duration": 0.10833333333332007,
          "durationTicks": 26,
          "midi": 54,
          "name": "F#3",
          "ticks": 32340,
          "time": 134.75,
          "velocity": 0.5039370078740157
        },
        {
          "duration": 0.11666666666667425,
          "durationTicks": 28,
          "midi": 36,
          "name": "C2",
          "ticks": 32340,
          "time": 134.75,
          "velocity": 0.8346456692913385
        },
        {
          "duration": 0.08333333333334281,
          "durationTicks": 20,
          "midi": 44,
          "name": "G#2",
          "ticks": 32340,
          "time": 134.75,
          "velocity": 0.8346456692913385
        },
        {
          "duration": 0.08333333333334281,
          "durationTicks": 20,
          "midi": 59,
          "name": "B3",
          "ticks": 32400,
          "time": 135,
          "velocity": 0.8346456692913385
        },
        {
          "duration": 0.08333333333334281,
          "durationTicks": 20,
          "midi": 44,
          "name": "G#2",
          "ticks": 32400,
          "time": 135,
          "velocity": 0.8346456692913385
        },
        {
          "duration": 0.10833333333332007,
          "durationTicks": 26,
          "midi": 37,
          "name": "C#2",
          "ticks": 32400,
          "time": 135,
          "velocity": 0.5039370078740157
        },
        {
          "duration": 0.10833333333332007,
          "durationTicks": 26,
          "midi": 40,
          "name": "E2",
          "ticks": 32400,
          "time": 135,
          "velocity": 0.5039370078740157
        },
        {
          "duration": 0.11666666666667425,
          "durationTicks": 28,
          "midi": 36,
          "name": "C2",
          "ticks": 32400,
          "time": 135,
          "velocity": 0.8346456692913385
        },
        {
          "duration": 0.10833333333332007,
          "durationTicks": 26,
          "midi": 54,
          "name": "F#3",
          "ticks": 32460,
          "time": 135.25,
          "velocity": 0.5039370078740157
        },
        {
          "duration": 0.08333333333334281,
          "durationTicks": 20,
          "midi": 44,
          "name": "G#2",
          "ticks": 32460,
          "time": 135.25,
          "velocity": 0.8346456692913385
        },
        {
          "duration": 0.11666666666667425,
          "durationTicks": 28,
          "midi": 36,
          "name": "C2",
          "ticks": 32460,
          "time": 135.25,
          "velocity": 0.8346456692913385
        },
        {
          "duration": 0.08333333333334281,
          "durationTicks": 20,
          "midi": 44,
          "name": "G#2",
          "ticks": 32520,
          "time": 135.5,
          "velocity": 0.8346456692913385
        },
        {
          "duration": 0.08333333333334281,
          "durationTicks": 20,
          "midi": 59,
          "name": "B3",
          "ticks": 32520,
          "time": 135.5,
          "velocity": 0.8346456692913385
        },
        {
          "duration": 0.10833333333332007,
          "durationTicks": 26,
          "midi": 54,
          "name": "F#3",
          "ticks": 32580,
          "time": 135.75,
          "velocity": 0.5039370078740157
        },
        {
          "duration": 0.11666666666667425,
          "durationTicks": 28,
          "midi": 36,
          "name": "C2",
          "ticks": 32580,
          "time": 135.75,
          "velocity": 0.8346456692913385
        },
        {
          "duration": 0.08333333333334281,
          "durationTicks": 20,
          "midi": 44,
          "name": "G#2",
          "ticks": 32580,
          "time": 135.75,
          "velocity": 0.8346456692913385
        },
        {
          "duration": 0.08333333333334281,
          "durationTicks": 20,
          "midi": 44,
          "name": "G#2",
          "ticks": 32640,
          "time": 136,
          "velocity": 0.8346456692913385
        },
        {
          "duration": 0.08333333333334281,
          "durationTicks": 20,
          "midi": 59,
          "name": "B3",
          "ticks": 32640,
          "time": 136,
          "velocity": 0.8346456692913385
        },
        {
          "duration": 0.11666666666667425,
          "durationTicks": 28,
          "midi": 36,
          "name": "C2",
          "ticks": 32640,
          "time": 136,
          "velocity": 0.8346456692913385
        },
        {
          "duration": 0.10833333333332007,
          "durationTicks": 26,
          "midi": 54,
          "name": "F#3",
          "ticks": 32700,
          "time": 136.25,
          "velocity": 0.5039370078740157
        },
        {
          "duration": 0.08333333333334281,
          "durationTicks": 20,
          "midi": 44,
          "name": "G#2",
          "ticks": 32700,
          "time": 136.25,
          "velocity": 0.8346456692913385
        },
        {
          "duration": 0.08333333333334281,
          "durationTicks": 20,
          "midi": 59,
          "name": "B3",
          "ticks": 32760,
          "time": 136.5,
          "velocity": 0.8346456692913385
        },
        {
          "duration": 0.11666666666667425,
          "durationTicks": 28,
          "midi": 36,
          "name": "C2",
          "ticks": 32760,
          "time": 136.5,
          "velocity": 0.8346456692913385
        },
        {
          "duration": 0.08333333333334281,
          "durationTicks": 20,
          "midi": 44,
          "name": "G#2",
          "ticks": 32760,
          "time": 136.5,
          "velocity": 0.8346456692913385
        },
        {
          "duration": 0.10833333333332007,
          "durationTicks": 26,
          "midi": 54,
          "name": "F#3",
          "ticks": 32820,
          "time": 136.75,
          "velocity": 0.5039370078740157
        },
        {
          "duration": 0.11666666666667425,
          "durationTicks": 28,
          "midi": 36,
          "name": "C2",
          "ticks": 32820,
          "time": 136.75,
          "velocity": 0.8346456692913385
        },
        {
          "duration": 0.08333333333334281,
          "durationTicks": 20,
          "midi": 44,
          "name": "G#2",
          "ticks": 32820,
          "time": 136.75,
          "velocity": 0.8346456692913385
        },
        {
          "duration": 0.10833333333332007,
          "durationTicks": 26,
          "midi": 40,
          "name": "E2",
          "ticks": 32880,
          "time": 137,
          "velocity": 0.5039370078740157
        },
        {
          "duration": 0.08333333333334281,
          "durationTicks": 20,
          "midi": 59,
          "name": "B3",
          "ticks": 32880,
          "time": 137,
          "velocity": 0.8346456692913385
        },
        {
          "duration": 0.08333333333334281,
          "durationTicks": 20,
          "midi": 44,
          "name": "G#2",
          "ticks": 32880,
          "time": 137,
          "velocity": 0.8346456692913385
        },
        {
          "duration": 0.10833333333332007,
          "durationTicks": 26,
          "midi": 37,
          "name": "C#2",
          "ticks": 32880,
          "time": 137,
          "velocity": 0.5039370078740157
        },
        {
          "duration": 0.11666666666667425,
          "durationTicks": 28,
          "midi": 36,
          "name": "C2",
          "ticks": 32880,
          "time": 137,
          "velocity": 0.8346456692913385
        },
        {
          "duration": 0.08333333333334281,
          "durationTicks": 20,
          "midi": 44,
          "name": "G#2",
          "ticks": 32940,
          "time": 137.25,
          "velocity": 0.8346456692913385
        },
        {
          "duration": 0.11666666666667425,
          "durationTicks": 28,
          "midi": 36,
          "name": "C2",
          "ticks": 32940,
          "time": 137.25,
          "velocity": 0.8346456692913385
        },
        {
          "duration": 0.10833333333332007,
          "durationTicks": 26,
          "midi": 54,
          "name": "F#3",
          "ticks": 32940,
          "time": 137.25,
          "velocity": 0.5039370078740157
        },
        {
          "duration": 0.08333333333334281,
          "durationTicks": 20,
          "midi": 59,
          "name": "B3",
          "ticks": 33000,
          "time": 137.5,
          "velocity": 0.8346456692913385
        },
        {
          "duration": 0.08333333333334281,
          "durationTicks": 20,
          "midi": 44,
          "name": "G#2",
          "ticks": 33000,
          "time": 137.5,
          "velocity": 0.8346456692913385
        },
        {
          "duration": 0.11666666666667425,
          "durationTicks": 28,
          "midi": 36,
          "name": "C2",
          "ticks": 33060,
          "time": 137.75,
          "velocity": 0.8346456692913385
        },
        {
          "duration": 0.10833333333332007,
          "durationTicks": 26,
          "midi": 54,
          "name": "F#3",
          "ticks": 33060,
          "time": 137.75,
          "velocity": 0.5039370078740157
        },
        {
          "duration": 0.08333333333334281,
          "durationTicks": 20,
          "midi": 44,
          "name": "G#2",
          "ticks": 33060,
          "time": 137.75,
          "velocity": 0.8346456692913385
        },
        {
          "duration": 0.11666666666667425,
          "durationTicks": 28,
          "midi": 36,
          "name": "C2",
          "ticks": 33120,
          "time": 138,
          "velocity": 0.8346456692913385
        },
        {
          "duration": 0.09999999999999432,
          "durationTicks": 24,
          "midi": 55,
          "name": "G3",
          "ticks": 33120,
          "time": 138,
          "velocity": 0.8346456692913385
        },
        {
          "duration": 0.08333333333334281,
          "durationTicks": 20,
          "midi": 44,
          "name": "G#2",
          "ticks": 33120,
          "time": 138,
          "velocity": 0.8346456692913385
        },
        {
          "duration": 0.08333333333334281,
          "durationTicks": 20,
          "midi": 59,
          "name": "B3",
          "ticks": 33120,
          "time": 138,
          "velocity": 0.8346456692913385
        },
        {
          "duration": 0.10833333333332007,
          "durationTicks": 26,
          "midi": 54,
          "name": "F#3",
          "ticks": 33180,
          "time": 138.25,
          "velocity": 0.5039370078740157
        },
        {
          "duration": 0.08333333333334281,
          "durationTicks": 20,
          "midi": 44,
          "name": "G#2",
          "ticks": 33180,
          "time": 138.25,
          "velocity": 0.8346456692913385
        },
        {
          "duration": 0.08333333333334281,
          "durationTicks": 20,
          "midi": 44,
          "name": "G#2",
          "ticks": 33240,
          "time": 138.5,
          "velocity": 0.8346456692913385
        },
        {
          "duration": 0.08333333333334281,
          "durationTicks": 20,
          "midi": 59,
          "name": "B3",
          "ticks": 33240,
          "time": 138.5,
          "velocity": 0.8346456692913385
        },
        {
          "duration": 0.11666666666667425,
          "durationTicks": 28,
          "midi": 36,
          "name": "C2",
          "ticks": 33240,
          "time": 138.5,
          "velocity": 0.8346456692913385
        },
        {
          "duration": 0.11666666666667425,
          "durationTicks": 28,
          "midi": 36,
          "name": "C2",
          "ticks": 33300,
          "time": 138.75,
          "velocity": 0.8346456692913385
        },
        {
          "duration": 0.08333333333334281,
          "durationTicks": 20,
          "midi": 44,
          "name": "G#2",
          "ticks": 33300,
          "time": 138.75,
          "velocity": 0.8346456692913385
        },
        {
          "duration": 0.10833333333332007,
          "durationTicks": 26,
          "midi": 54,
          "name": "F#3",
          "ticks": 33300,
          "time": 138.75,
          "velocity": 0.5039370078740157
        },
        {
          "duration": 0.10833333333332007,
          "durationTicks": 26,
          "midi": 40,
          "name": "E2",
          "ticks": 33360,
          "time": 139,
          "velocity": 0.5039370078740157
        },
        {
          "duration": 0.11666666666667425,
          "durationTicks": 28,
          "midi": 36,
          "name": "C2",
          "ticks": 33360,
          "time": 139,
          "velocity": 0.8346456692913385
        },
        {
          "duration": 0.10833333333332007,
          "durationTicks": 26,
          "midi": 37,
          "name": "C#2",
          "ticks": 33360,
          "time": 139,
          "velocity": 0.5039370078740157
        },
        {
          "duration": 0.08333333333334281,
          "durationTicks": 20,
          "midi": 59,
          "name": "B3",
          "ticks": 33360,
          "time": 139,
          "velocity": 0.8346456692913385
        },
        {
          "duration": 0.08333333333334281,
          "durationTicks": 20,
          "midi": 44,
          "name": "G#2",
          "ticks": 33360,
          "time": 139,
          "velocity": 0.8346456692913385
        },
        {
          "duration": 0.10833333333332007,
          "durationTicks": 26,
          "midi": 54,
          "name": "F#3",
          "ticks": 33420,
          "time": 139.25,
          "velocity": 0.5039370078740157
        },
        {
          "duration": 0.08333333333334281,
          "durationTicks": 20,
          "midi": 44,
          "name": "G#2",
          "ticks": 33420,
          "time": 139.25,
          "velocity": 0.8346456692913385
        },
        {
          "duration": 0.11666666666667425,
          "durationTicks": 28,
          "midi": 36,
          "name": "C2",
          "ticks": 33420,
          "time": 139.25,
          "velocity": 0.8346456692913385
        },
        {
          "duration": 0.08333333333334281,
          "durationTicks": 20,
          "midi": 59,
          "name": "B3",
          "ticks": 33480,
          "time": 139.5,
          "velocity": 0.8346456692913385
        },
        {
          "duration": 0.08333333333334281,
          "durationTicks": 20,
          "midi": 44,
          "name": "G#2",
          "ticks": 33480,
          "time": 139.5,
          "velocity": 0.8346456692913385
        },
        {
          "duration": 0.10833333333332007,
          "durationTicks": 26,
          "midi": 54,
          "name": "F#3",
          "ticks": 33540,
          "time": 139.75,
          "velocity": 0.5039370078740157
        },
        {
          "duration": 0.11666666666667425,
          "durationTicks": 28,
          "midi": 36,
          "name": "C2",
          "ticks": 33540,
          "time": 139.75,
          "velocity": 0.8346456692913385
        },
        {
          "duration": 0.08333333333334281,
          "durationTicks": 20,
          "midi": 44,
          "name": "G#2",
          "ticks": 33540,
          "time": 139.75,
          "velocity": 0.8346456692913385
        },
        {
          "duration": 0.08333333333334281,
          "durationTicks": 20,
          "midi": 59,
          "name": "B3",
          "ticks": 33600,
          "time": 140,
          "velocity": 0.8346456692913385
        },
        {
          "duration": 0.08333333333334281,
          "durationTicks": 20,
          "midi": 44,
          "name": "G#2",
          "ticks": 33600,
          "time": 140,
          "velocity": 0.8346456692913385
        },
        {
          "duration": 0.11666666666667425,
          "durationTicks": 28,
          "midi": 36,
          "name": "C2",
          "ticks": 33600,
          "time": 140,
          "velocity": 0.8346456692913385
        },
        {
          "duration": 0.10833333333332007,
          "durationTicks": 26,
          "midi": 54,
          "name": "F#3",
          "ticks": 33660,
          "time": 140.25,
          "velocity": 0.5039370078740157
        },
        {
          "duration": 0.08333333333334281,
          "durationTicks": 20,
          "midi": 44,
          "name": "G#2",
          "ticks": 33660,
          "time": 140.25,
          "velocity": 0.8346456692913385
        },
        {
          "duration": 0.08333333333334281,
          "durationTicks": 20,
          "midi": 59,
          "name": "B3",
          "ticks": 33720,
          "time": 140.5,
          "velocity": 0.8346456692913385
        },
        {
          "duration": 0.11666666666667425,
          "durationTicks": 28,
          "midi": 36,
          "name": "C2",
          "ticks": 33720,
          "time": 140.5,
          "velocity": 0.8346456692913385
        },
        {
          "duration": 0.08333333333334281,
          "durationTicks": 20,
          "midi": 44,
          "name": "G#2",
          "ticks": 33720,
          "time": 140.5,
          "velocity": 0.8346456692913385
        },
        {
          "duration": 0.11666666666667425,
          "durationTicks": 28,
          "midi": 36,
          "name": "C2",
          "ticks": 33780,
          "time": 140.75,
          "velocity": 0.8346456692913385
        },
        {
          "duration": 0.08333333333334281,
          "durationTicks": 20,
          "midi": 44,
          "name": "G#2",
          "ticks": 33780,
          "time": 140.75,
          "velocity": 0.8346456692913385
        },
        {
          "duration": 0.10833333333332007,
          "durationTicks": 26,
          "midi": 54,
          "name": "F#3",
          "ticks": 33780,
          "time": 140.75,
          "velocity": 0.5039370078740157
        },
        {
          "duration": 0.10833333333332007,
          "durationTicks": 26,
          "midi": 40,
          "name": "E2",
          "ticks": 33840,
          "time": 141,
          "velocity": 0.5039370078740157
        },
        {
          "duration": 0.08333333333334281,
          "durationTicks": 20,
          "midi": 59,
          "name": "B3",
          "ticks": 33840,
          "time": 141,
          "velocity": 0.8346456692913385
        },
        {
          "duration": 0.08333333333334281,
          "durationTicks": 20,
          "midi": 44,
          "name": "G#2",
          "ticks": 33840,
          "time": 141,
          "velocity": 0.8346456692913385
        },
        {
          "duration": 0.10833333333332007,
          "durationTicks": 26,
          "midi": 37,
          "name": "C#2",
          "ticks": 33840,
          "time": 141,
          "velocity": 0.5039370078740157
        },
        {
          "duration": 0.11666666666667425,
          "durationTicks": 28,
          "midi": 36,
          "name": "C2",
          "ticks": 33840,
          "time": 141,
          "velocity": 0.8346456692913385
        },
        {
          "duration": 0.10833333333332007,
          "durationTicks": 26,
          "midi": 54,
          "name": "F#3",
          "ticks": 33900,
          "time": 141.25,
          "velocity": 0.5039370078740157
        },
        {
          "duration": 0.08333333333334281,
          "durationTicks": 20,
          "midi": 44,
          "name": "G#2",
          "ticks": 33900,
          "time": 141.25,
          "velocity": 0.8346456692913385
        },
        {
          "duration": 0.11666666666667425,
          "durationTicks": 28,
          "midi": 36,
          "name": "C2",
          "ticks": 33900,
          "time": 141.25,
          "velocity": 0.8346456692913385
        },
        {
          "duration": 0.08333333333334281,
          "durationTicks": 20,
          "midi": 59,
          "name": "B3",
          "ticks": 33960,
          "time": 141.5,
          "velocity": 0.8346456692913385
        },
        {
          "duration": 0.08333333333334281,
          "durationTicks": 20,
          "midi": 44,
          "name": "G#2",
          "ticks": 33960,
          "time": 141.5,
          "velocity": 0.8346456692913385
        },
        {
          "duration": 0.10833333333332007,
          "durationTicks": 26,
          "midi": 54,
          "name": "F#3",
          "ticks": 34020,
          "time": 141.75,
          "velocity": 0.5039370078740157
        },
        {
          "duration": 0.08333333333334281,
          "durationTicks": 20,
          "midi": 44,
          "name": "G#2",
          "ticks": 34020,
          "time": 141.75,
          "velocity": 0.8346456692913385
        },
        {
          "duration": 0.11666666666667425,
          "durationTicks": 28,
          "midi": 36,
          "name": "C2",
          "ticks": 34020,
          "time": 141.75,
          "velocity": 0.8346456692913385
        },
        {
          "duration": 0.11666666666667425,
          "durationTicks": 28,
          "midi": 36,
          "name": "C2",
          "ticks": 34080,
          "time": 142,
          "velocity": 0.8346456692913385
        },
        {
          "duration": 0.08333333333334281,
          "durationTicks": 20,
          "midi": 44,
          "name": "G#2",
          "ticks": 34080,
          "time": 142,
          "velocity": 0.8346456692913385
        },
        {
          "duration": 0.08333333333334281,
          "durationTicks": 20,
          "midi": 59,
          "name": "B3",
          "ticks": 34080,
          "time": 142,
          "velocity": 0.8346456692913385
        },
        {
          "duration": 0.10833333333332007,
          "durationTicks": 26,
          "midi": 54,
          "name": "F#3",
          "ticks": 34140,
          "time": 142.25,
          "velocity": 0.5039370078740157
        },
        {
          "duration": 0.08333333333334281,
          "durationTicks": 20,
          "midi": 44,
          "name": "G#2",
          "ticks": 34140,
          "time": 142.25,
          "velocity": 0.8346456692913385
        },
        {
          "duration": 0.11666666666667425,
          "durationTicks": 28,
          "midi": 36,
          "name": "C2",
          "ticks": 34200,
          "time": 142.5,
          "velocity": 0.8346456692913385
        },
        {
          "duration": 0.08333333333334281,
          "durationTicks": 20,
          "midi": 44,
          "name": "G#2",
          "ticks": 34200,
          "time": 142.5,
          "velocity": 0.8346456692913385
        },
        {
          "duration": 0.08333333333334281,
          "durationTicks": 20,
          "midi": 59,
          "name": "B3",
          "ticks": 34200,
          "time": 142.5,
          "velocity": 0.8346456692913385
        },
        {
          "duration": 0.08333333333334281,
          "durationTicks": 20,
          "midi": 44,
          "name": "G#2",
          "ticks": 34260,
          "time": 142.75,
          "velocity": 0.8346456692913385
        },
        {
          "duration": 0.10833333333332007,
          "durationTicks": 26,
          "midi": 54,
          "name": "F#3",
          "ticks": 34260,
          "time": 142.75,
          "velocity": 0.5039370078740157
        },
        {
          "duration": 0.11666666666667425,
          "durationTicks": 28,
          "midi": 36,
          "name": "C2",
          "ticks": 34260,
          "time": 142.75,
          "velocity": 0.8346456692913385
        },
        {
          "duration": 0.08333333333334281,
          "durationTicks": 20,
          "midi": 44,
          "name": "G#2",
          "ticks": 34320,
          "time": 143,
          "velocity": 0.8346456692913385
        },
        {
          "duration": 0.08333333333334281,
          "durationTicks": 20,
          "midi": 59,
          "name": "B3",
          "ticks": 34320,
          "time": 143,
          "velocity": 0.8346456692913385
        },
        {
          "duration": 0.11666666666667425,
          "durationTicks": 28,
          "midi": 36,
          "name": "C2",
          "ticks": 34320,
          "time": 143,
          "velocity": 0.8346456692913385
        },
        {
          "duration": 0.10833333333332007,
          "durationTicks": 26,
          "midi": 40,
          "name": "E2",
          "ticks": 34320,
          "time": 143,
          "velocity": 0.5039370078740157
        },
        {
          "duration": 0.10833333333332007,
          "durationTicks": 26,
          "midi": 37,
          "name": "C#2",
          "ticks": 34320,
          "time": 143,
          "velocity": 0.5039370078740157
        },
        {
          "duration": 0.11666666666667425,
          "durationTicks": 28,
          "midi": 36,
          "name": "C2",
          "ticks": 34380,
          "time": 143.25,
          "velocity": 0.8346456692913385
        },
        {
          "duration": 0.08333333333334281,
          "durationTicks": 20,
          "midi": 44,
          "name": "G#2",
          "ticks": 34380,
          "time": 143.25,
          "velocity": 0.8346456692913385
        },
        {
          "duration": 0.10833333333332007,
          "durationTicks": 26,
          "midi": 54,
          "name": "F#3",
          "ticks": 34380,
          "time": 143.25,
          "velocity": 0.5039370078740157
        },
        {
          "duration": 0.08333333333334281,
          "durationTicks": 20,
          "midi": 59,
          "name": "B3",
          "ticks": 34440,
          "time": 143.5,
          "velocity": 0.8346456692913385
        },
        {
          "duration": 0.08333333333334281,
          "durationTicks": 20,
          "midi": 44,
          "name": "G#2",
          "ticks": 34440,
          "time": 143.5,
          "velocity": 0.8346456692913385
        },
        {
          "duration": 0.11666666666667425,
          "durationTicks": 28,
          "midi": 36,
          "name": "C2",
          "ticks": 34500,
          "time": 143.75,
          "velocity": 0.8346456692913385
        },
        {
          "duration": 0.10833333333332007,
          "durationTicks": 26,
          "midi": 54,
          "name": "F#3",
          "ticks": 34500,
          "time": 143.75,
          "velocity": 0.5039370078740157
        },
        {
          "duration": 0.08333333333334281,
          "durationTicks": 20,
          "midi": 44,
          "name": "G#2",
          "ticks": 34500,
          "time": 143.75,
          "velocity": 0.8346456692913385
        },
        {
          "duration": 0.08333333333334281,
          "durationTicks": 20,
          "midi": 59,
          "name": "B3",
          "ticks": 34560,
          "time": 144,
          "velocity": 0.8346456692913385
        },
        {
          "duration": 0.08333333333334281,
          "durationTicks": 20,
          "midi": 44,
          "name": "G#2",
          "ticks": 34560,
          "time": 144,
          "velocity": 0.8346456692913385
        },
        {
          "duration": 0.11666666666667425,
          "durationTicks": 28,
          "midi": 36,
          "name": "C2",
          "ticks": 34560,
          "time": 144,
          "velocity": 0.8346456692913385
        },
        {
          "duration": 0.10833333333332007,
          "durationTicks": 26,
          "midi": 54,
          "name": "F#3",
          "ticks": 34620,
          "time": 144.25,
          "velocity": 0.5039370078740157
        },
        {
          "duration": 0.08333333333334281,
          "durationTicks": 20,
          "midi": 44,
          "name": "G#2",
          "ticks": 34620,
          "time": 144.25,
          "velocity": 0.8346456692913385
        },
        {
          "duration": 0.08333333333334281,
          "durationTicks": 20,
          "midi": 59,
          "name": "B3",
          "ticks": 34680,
          "time": 144.5,
          "velocity": 0.8346456692913385
        },
        {
          "duration": 0.11666666666667425,
          "durationTicks": 28,
          "midi": 36,
          "name": "C2",
          "ticks": 34680,
          "time": 144.5,
          "velocity": 0.8346456692913385
        },
        {
          "duration": 0.08333333333334281,
          "durationTicks": 20,
          "midi": 44,
          "name": "G#2",
          "ticks": 34680,
          "time": 144.5,
          "velocity": 0.8346456692913385
        },
        {
          "duration": 0.08333333333334281,
          "durationTicks": 20,
          "midi": 44,
          "name": "G#2",
          "ticks": 34740,
          "time": 144.75,
          "velocity": 0.8346456692913385
        },
        {
          "duration": 0.10833333333332007,
          "durationTicks": 26,
          "midi": 54,
          "name": "F#3",
          "ticks": 34740,
          "time": 144.75,
          "velocity": 0.5039370078740157
        },
        {
          "duration": 0.11666666666667425,
          "durationTicks": 28,
          "midi": 36,
          "name": "C2",
          "ticks": 34740,
          "time": 144.75,
          "velocity": 0.8346456692913385
        },
        {
          "duration": 0.08333333333334281,
          "durationTicks": 20,
          "midi": 59,
          "name": "B3",
          "ticks": 34800,
          "time": 145,
          "velocity": 0.8346456692913385
        },
        {
          "duration": 0.08333333333334281,
          "durationTicks": 20,
          "midi": 44,
          "name": "G#2",
          "ticks": 34800,
          "time": 145,
          "velocity": 0.8346456692913385
        },
        {
          "duration": 0.10833333333332007,
          "durationTicks": 26,
          "midi": 40,
          "name": "E2",
          "ticks": 34800,
          "time": 145,
          "velocity": 0.5039370078740157
        },
        {
          "duration": 0.11666666666667425,
          "durationTicks": 28,
          "midi": 36,
          "name": "C2",
          "ticks": 34800,
          "time": 145,
          "velocity": 0.8346456692913385
        },
        {
          "duration": 0.10833333333332007,
          "durationTicks": 26,
          "midi": 37,
          "name": "C#2",
          "ticks": 34800,
          "time": 145,
          "velocity": 0.5039370078740157
        },
        {
          "duration": 0.11666666666667425,
          "durationTicks": 28,
          "midi": 36,
          "name": "C2",
          "ticks": 34860,
          "time": 145.25,
          "velocity": 0.8346456692913385
        },
        {
          "duration": 0.10833333333332007,
          "durationTicks": 26,
          "midi": 54,
          "name": "F#3",
          "ticks": 34860,
          "time": 145.25,
          "velocity": 0.5039370078740157
        },
        {
          "duration": 0.08333333333334281,
          "durationTicks": 20,
          "midi": 44,
          "name": "G#2",
          "ticks": 34860,
          "time": 145.25,
          "velocity": 0.8346456692913385
        },
        {
          "duration": 0.08333333333334281,
          "durationTicks": 20,
          "midi": 59,
          "name": "B3",
          "ticks": 34920,
          "time": 145.5,
          "velocity": 0.8346456692913385
        },
        {
          "duration": 0.08333333333334281,
          "durationTicks": 20,
          "midi": 44,
          "name": "G#2",
          "ticks": 34920,
          "time": 145.5,
          "velocity": 0.8346456692913385
        },
        {
          "duration": 0.10833333333332007,
          "durationTicks": 26,
          "midi": 54,
          "name": "F#3",
          "ticks": 34980,
          "time": 145.75,
          "velocity": 0.5039370078740157
        },
        {
          "duration": 0.08333333333334281,
          "durationTicks": 20,
          "midi": 44,
          "name": "G#2",
          "ticks": 34980,
          "time": 145.75,
          "velocity": 0.8346456692913385
        },
        {
          "duration": 0.11666666666667425,
          "durationTicks": 28,
          "midi": 36,
          "name": "C2",
          "ticks": 34980,
          "time": 145.75,
          "velocity": 0.8346456692913385
        },
        {
          "duration": 0.11666666666667425,
          "durationTicks": 28,
          "midi": 36,
          "name": "C2",
          "ticks": 35040,
          "time": 146,
          "velocity": 0.8346456692913385
        },
        {
          "duration": 0.08333333333334281,
          "durationTicks": 20,
          "midi": 44,
          "name": "G#2",
          "ticks": 35040,
          "time": 146,
          "velocity": 0.8346456692913385
        },
        {
          "duration": 0.08333333333334281,
          "durationTicks": 20,
          "midi": 59,
          "name": "B3",
          "ticks": 35040,
          "time": 146,
          "velocity": 0.8346456692913385
        },
        {
          "duration": 0.10833333333332007,
          "durationTicks": 26,
          "midi": 54,
          "name": "F#3",
          "ticks": 35100,
          "time": 146.25,
          "velocity": 0.5039370078740157
        },
        {
          "duration": 0.08333333333334281,
          "durationTicks": 20,
          "midi": 44,
          "name": "G#2",
          "ticks": 35100,
          "time": 146.25,
          "velocity": 0.8346456692913385
        },
        {
          "duration": 0.11666666666667425,
          "durationTicks": 28,
          "midi": 36,
          "name": "C2",
          "ticks": 35160,
          "time": 146.5,
          "velocity": 0.8346456692913385
        },
        {
          "duration": 0.08333333333334281,
          "durationTicks": 20,
          "midi": 59,
          "name": "B3",
          "ticks": 35160,
          "time": 146.5,
          "velocity": 0.8346456692913385
        },
        {
          "duration": 0.08333333333334281,
          "durationTicks": 20,
          "midi": 44,
          "name": "G#2",
          "ticks": 35160,
          "time": 146.5,
          "velocity": 0.8346456692913385
        },
        {
          "duration": 0.11666666666667425,
          "durationTicks": 28,
          "midi": 36,
          "name": "C2",
          "ticks": 35220,
          "time": 146.75,
          "velocity": 0.8346456692913385
        },
        {
          "duration": 0.08333333333334281,
          "durationTicks": 20,
          "midi": 44,
          "name": "G#2",
          "ticks": 35220,
          "time": 146.75,
          "velocity": 0.8346456692913385
        },
        {
          "duration": 0.10833333333332007,
          "durationTicks": 26,
          "midi": 54,
          "name": "F#3",
          "ticks": 35220,
          "time": 146.75,
          "velocity": 0.5039370078740157
        },
        {
          "duration": 0.10833333333332007,
          "durationTicks": 26,
          "midi": 40,
          "name": "E2",
          "ticks": 35280,
          "time": 147,
          "velocity": 0.5039370078740157
        },
        {
          "duration": 0.08333333333334281,
          "durationTicks": 20,
          "midi": 59,
          "name": "B3",
          "ticks": 35280,
          "time": 147,
          "velocity": 0.8346456692913385
        },
        {
          "duration": 0.08333333333334281,
          "durationTicks": 20,
          "midi": 44,
          "name": "G#2",
          "ticks": 35280,
          "time": 147,
          "velocity": 0.8346456692913385
        },
        {
          "duration": 0.10833333333332007,
          "durationTicks": 26,
          "midi": 37,
          "name": "C#2",
          "ticks": 35280,
          "time": 147,
          "velocity": 0.5039370078740157
        },
        {
          "duration": 0.11666666666667425,
          "durationTicks": 28,
          "midi": 36,
          "name": "C2",
          "ticks": 35280,
          "time": 147,
          "velocity": 0.8346456692913385
        },
        {
          "duration": 0.08333333333334281,
          "durationTicks": 20,
          "midi": 44,
          "name": "G#2",
          "ticks": 35340,
          "time": 147.25,
          "velocity": 0.8346456692913385
        },
        {
          "duration": 0.11666666666667425,
          "durationTicks": 28,
          "midi": 36,
          "name": "C2",
          "ticks": 35340,
          "time": 147.25,
          "velocity": 0.8346456692913385
        },
        {
          "duration": 0.10833333333332007,
          "durationTicks": 26,
          "midi": 54,
          "name": "F#3",
          "ticks": 35340,
          "time": 147.25,
          "velocity": 0.5039370078740157
        },
        {
          "duration": 0.08333333333334281,
          "durationTicks": 20,
          "midi": 59,
          "name": "B3",
          "ticks": 35400,
          "time": 147.5,
          "velocity": 0.8346456692913385
        },
        {
          "duration": 0.08333333333334281,
          "durationTicks": 20,
          "midi": 44,
          "name": "G#2",
          "ticks": 35400,
          "time": 147.5,
          "velocity": 0.8346456692913385
        },
        {
          "duration": 0.10833333333332007,
          "durationTicks": 26,
          "midi": 37,
          "name": "C#2",
          "ticks": 35400,
          "time": 147.5,
          "velocity": 0.5039370078740157
        },
        {
          "duration": 0.10833333333332007,
          "durationTicks": 26,
          "midi": 40,
          "name": "E2",
          "ticks": 35400,
          "time": 147.5,
          "velocity": 0.5039370078740157
        },
        {
          "duration": 0.08333333333334281,
          "durationTicks": 20,
          "midi": 44,
          "name": "G#2",
          "ticks": 35460,
          "time": 147.75,
          "velocity": 0.8346456692913385
        },
        {
          "duration": 0.10833333333332007,
          "durationTicks": 26,
          "midi": 54,
          "name": "F#3",
          "ticks": 35460,
          "time": 147.75,
          "velocity": 0.5039370078740157
        },
        {
          "duration": 0.11666666666667425,
          "durationTicks": 28,
          "midi": 36,
          "name": "C2",
          "ticks": 35460,
          "time": 147.75,
          "velocity": 0.8346456692913385
        },
        {
          "duration": 0.1666666666666572,
          "durationTicks": 40,
          "midi": 55,
          "name": "G3",
          "ticks": 35520,
          "time": 148,
          "velocity": 0.8346456692913385
        },
        {
          "duration": 0.1666666666666572,
          "durationTicks": 40,
          "midi": 46,
          "name": "A#2",
          "ticks": 37440,
          "time": 156,
          "velocity": 0.7322834645669292
        },
        {
          "duration": 0.11666666666667425,
          "durationTicks": 28,
          "midi": 36,
          "name": "C2",
          "ticks": 37440,
          "time": 156,
          "velocity": 0.5118110236220472
        },
        {
          "duration": 0.11666666666667425,
          "durationTicks": 28,
          "midi": 36,
          "name": "C2",
          "ticks": 37500,
          "time": 156.25,
          "velocity": 0.5039370078740157
        },
        {
          "duration": 0.08333333333334281,
          "durationTicks": 20,
          "midi": 44,
          "name": "G#2",
          "ticks": 37500,
          "time": 156.25,
          "velocity": 0.5118110236220472
        },
        {
          "duration": 0.10833333333332007,
          "durationTicks": 26,
          "midi": 54,
          "name": "F#3",
          "ticks": 37500,
          "time": 156.25,
          "velocity": 0.5118110236220472
        },
        {
          "duration": 0.08333333333334281,
          "durationTicks": 20,
          "midi": 44,
          "name": "G#2",
          "ticks": 37560,
          "time": 156.5,
          "velocity": 0.5118110236220472
        },
        {
          "duration": 0.11666666666667425,
          "durationTicks": 28,
          "midi": 36,
          "name": "C2",
          "ticks": 37560,
          "time": 156.5,
          "velocity": 0.5118110236220472
        },
        {
          "duration": 0.11666666666667425,
          "durationTicks": 28,
          "midi": 37,
          "name": "C#2",
          "ticks": 37560,
          "time": 156.5,
          "velocity": 0.5118110236220472
        },
        {
          "duration": 0.10833333333332007,
          "durationTicks": 26,
          "midi": 40,
          "name": "E2",
          "ticks": 37560,
          "time": 156.5,
          "velocity": 0.5118110236220472
        },
        {
          "duration": 0.08333333333334281,
          "durationTicks": 20,
          "midi": 44,
          "name": "G#2",
          "ticks": 37620,
          "time": 156.75,
          "velocity": 0.5118110236220472
        },
        {
          "duration": 0.11666666666667425,
          "durationTicks": 28,
          "midi": 36,
          "name": "C2",
          "ticks": 37620,
          "time": 156.75,
          "velocity": 0.5118110236220472
        },
        {
          "duration": 0.10833333333332007,
          "durationTicks": 26,
          "midi": 54,
          "name": "F#3",
          "ticks": 37620,
          "time": 156.75,
          "velocity": 0.5118110236220472
        },
        {
          "duration": 0.11666666666667425,
          "durationTicks": 28,
          "midi": 36,
          "name": "C2",
          "ticks": 37680,
          "time": 157,
          "velocity": 0.5039370078740157
        },
        {
          "duration": 0.08333333333334281,
          "durationTicks": 20,
          "midi": 44,
          "name": "G#2",
          "ticks": 37680,
          "time": 157,
          "velocity": 0.5039370078740157
        },
        {
          "duration": 0.10833333333332007,
          "durationTicks": 26,
          "midi": 54,
          "name": "F#3",
          "ticks": 37740,
          "time": 157.25,
          "velocity": 0.5039370078740157
        },
        {
          "duration": 0.11666666666667425,
          "durationTicks": 28,
          "midi": 37,
          "name": "C#2",
          "ticks": 37740,
          "time": 157.25,
          "velocity": 0.5118110236220472
        },
        {
          "duration": 0.11666666666667425,
          "durationTicks": 28,
          "midi": 36,
          "name": "C2",
          "ticks": 37740,
          "time": 157.25,
          "velocity": 0.5039370078740157
        },
        {
          "duration": 0.10833333333332007,
          "durationTicks": 26,
          "midi": 40,
          "name": "E2",
          "ticks": 37740,
          "time": 157.25,
          "velocity": 0.5039370078740157
        },
        {
          "duration": 0.08333333333334281,
          "durationTicks": 20,
          "midi": 44,
          "name": "G#2",
          "ticks": 37740,
          "time": 157.25,
          "velocity": 0.5118110236220472
        },
        {
          "duration": 0.11666666666667425,
          "durationTicks": 28,
          "midi": 36,
          "name": "C2",
          "ticks": 37800,
          "time": 157.5,
          "velocity": 0.5039370078740157
        },
        {
          "duration": 0.08333333333334281,
          "durationTicks": 20,
          "midi": 44,
          "name": "G#2",
          "ticks": 37800,
          "time": 157.5,
          "velocity": 0.5039370078740157
        },
        {
          "duration": 0.08333333333334281,
          "durationTicks": 20,
          "midi": 44,
          "name": "G#2",
          "ticks": 37860,
          "time": 157.75,
          "velocity": 0.5118110236220472
        },
        {
          "duration": 0.11666666666667425,
          "durationTicks": 28,
          "midi": 36,
          "name": "C2",
          "ticks": 37860,
          "time": 157.75,
          "velocity": 0.5039370078740157
        },
        {
          "duration": 0.10833333333332007,
          "durationTicks": 26,
          "midi": 54,
          "name": "F#3",
          "ticks": 37860,
          "time": 157.75,
          "velocity": 0.5039370078740157
        },
        {
          "duration": 0.08333333333334281,
          "durationTicks": 20,
          "midi": 44,
          "name": "G#2",
          "ticks": 37920,
          "time": 158,
          "velocity": 0.5039370078740157
        },
        {
          "duration": 0.11666666666667425,
          "durationTicks": 28,
          "midi": 36,
          "name": "C2",
          "ticks": 37920,
          "time": 158,
          "velocity": 0.5039370078740157
        },
        {
          "duration": 0.08333333333334281,
          "durationTicks": 20,
          "midi": 44,
          "name": "G#2",
          "ticks": 37980,
          "time": 158.25,
          "velocity": 0.5118110236220472
        },
        {
          "duration": 0.11666666666667425,
          "durationTicks": 28,
          "midi": 36,
          "name": "C2",
          "ticks": 37980,
          "time": 158.25,
          "velocity": 0.5039370078740157
        },
        {
          "duration": 0.10833333333332007,
          "durationTicks": 26,
          "midi": 54,
          "name": "F#3",
          "ticks": 37980,
          "time": 158.25,
          "velocity": 0.5118110236220472
        },
        {
          "duration": 0.08333333333334281,
          "durationTicks": 20,
          "midi": 44,
          "name": "G#2",
          "ticks": 38040,
          "time": 158.5,
          "velocity": 0.5118110236220472
        },
        {
          "duration": 0.10833333333332007,
          "durationTicks": 26,
          "midi": 40,
          "name": "E2",
          "ticks": 38040,
          "time": 158.5,
          "velocity": 0.5118110236220472
        },
        {
          "duration": 0.11666666666667425,
          "durationTicks": 28,
          "midi": 36,
          "name": "C2",
          "ticks": 38040,
          "time": 158.5,
          "velocity": 0.5118110236220472
        },
        {
          "duration": 0.11666666666667425,
          "durationTicks": 28,
          "midi": 37,
          "name": "C#2",
          "ticks": 38040,
          "time": 158.5,
          "velocity": 0.5118110236220472
        },
        {
          "duration": 0.11666666666667425,
          "durationTicks": 28,
          "midi": 36,
          "name": "C2",
          "ticks": 38100,
          "time": 158.75,
          "velocity": 0.5118110236220472
        },
        {
          "duration": 0.10833333333332007,
          "durationTicks": 26,
          "midi": 54,
          "name": "F#3",
          "ticks": 38100,
          "time": 158.75,
          "velocity": 0.5118110236220472
        },
        {
          "duration": 0.08333333333334281,
          "durationTicks": 20,
          "midi": 44,
          "name": "G#2",
          "ticks": 38100,
          "time": 158.75,
          "velocity": 0.5118110236220472
        },
        {
          "duration": 0.11666666666667425,
          "durationTicks": 28,
          "midi": 36,
          "name": "C2",
          "ticks": 38160,
          "time": 159,
          "velocity": 0.5118110236220472
        },
        {
          "duration": 0.08333333333334281,
          "durationTicks": 20,
          "midi": 44,
          "name": "G#2",
          "ticks": 38160,
          "time": 159,
          "velocity": 0.5118110236220472
        },
        {
          "duration": 0.08333333333334281,
          "durationTicks": 20,
          "midi": 44,
          "name": "G#2",
          "ticks": 38220,
          "time": 159.25,
          "velocity": 0.5118110236220472
        },
        {
          "duration": 0.10833333333332007,
          "durationTicks": 26,
          "midi": 54,
          "name": "F#3",
          "ticks": 38220,
          "time": 159.25,
          "velocity": 0.5039370078740157
        },
        {
          "duration": 0.10833333333332007,
          "durationTicks": 26,
          "midi": 40,
          "name": "E2",
          "ticks": 38220,
          "time": 159.25,
          "velocity": 0.5039370078740157
        },
        {
          "duration": 0.11666666666667425,
          "durationTicks": 28,
          "midi": 37,
          "name": "C#2",
          "ticks": 38220,
          "time": 159.25,
          "velocity": 0.5118110236220472
        },
        {
          "duration": 0.11666666666667425,
          "durationTicks": 28,
          "midi": 36,
          "name": "C2",
          "ticks": 38220,
          "time": 159.25,
          "velocity": 0.5039370078740157
        },
        {
          "duration": 0.11666666666667425,
          "durationTicks": 28,
          "midi": 36,
          "name": "C2",
          "ticks": 38280,
          "time": 159.5,
          "velocity": 0.5039370078740157
        },
        {
          "duration": 0.08333333333334281,
          "durationTicks": 20,
          "midi": 44,
          "name": "G#2",
          "ticks": 38280,
          "time": 159.5,
          "velocity": 0.5118110236220472
        },
        {
          "duration": 0.11666666666667425,
          "durationTicks": 28,
          "midi": 36,
          "name": "C2",
          "ticks": 38340,
          "time": 159.75,
          "velocity": 0.5039370078740157
        },
        {
          "duration": 0.08333333333334281,
          "durationTicks": 20,
          "midi": 44,
          "name": "G#2",
          "ticks": 38340,
          "time": 159.75,
          "velocity": 0.5118110236220472
        },
        {
          "duration": 0.10833333333332007,
          "durationTicks": 26,
          "midi": 54,
          "name": "F#3",
          "ticks": 38340,
          "time": 159.75,
          "velocity": 0.5039370078740157
        },
        {
          "duration": 0.11666666666667425,
          "durationTicks": 28,
          "midi": 36,
          "name": "C2",
          "ticks": 38400,
          "time": 160,
          "velocity": 0.5118110236220472
        },
        {
          "duration": 0.1666666666666572,
          "durationTicks": 40,
          "midi": 46,
          "name": "A#2",
          "ticks": 38400,
          "time": 160,
          "velocity": 0.7322834645669292
        },
        {
          "duration": 0.11666666666667425,
          "durationTicks": 28,
          "midi": 36,
          "name": "C2",
          "ticks": 38460,
          "time": 160.25,
          "velocity": 0.5118110236220472
        },
        {
          "duration": 0.10833333333332007,
          "durationTicks": 26,
          "midi": 54,
          "name": "F#3",
          "ticks": 38460,
          "time": 160.25,
          "velocity": 0.5118110236220472
        },
        {
          "duration": 0.08333333333334281,
          "durationTicks": 20,
          "midi": 44,
          "name": "G#2",
          "ticks": 38460,
          "time": 160.25,
          "velocity": 0.5118110236220472
        },
        {
          "duration": 0.11666666666667425,
          "durationTicks": 28,
          "midi": 36,
          "name": "C2",
          "ticks": 38520,
          "time": 160.5,
          "velocity": 0.5118110236220472
        },
        {
          "duration": 0.11666666666667425,
          "durationTicks": 28,
          "midi": 37,
          "name": "C#2",
          "ticks": 38520,
          "time": 160.5,
          "velocity": 0.5118110236220472
        },
        {
          "duration": 0.08333333333334281,
          "durationTicks": 20,
          "midi": 44,
          "name": "G#2",
          "ticks": 38520,
          "time": 160.5,
          "velocity": 0.5118110236220472
        },
        {
          "duration": 0.10833333333332007,
          "durationTicks": 26,
          "midi": 40,
          "name": "E2",
          "ticks": 38520,
          "time": 160.5,
          "velocity": 0.5118110236220472
        },
        {
          "duration": 0.10833333333332007,
          "durationTicks": 26,
          "midi": 54,
          "name": "F#3",
          "ticks": 38580,
          "time": 160.75,
          "velocity": 0.5118110236220472
        },
        {
          "duration": 0.08333333333334281,
          "durationTicks": 20,
          "midi": 44,
          "name": "G#2",
          "ticks": 38580,
          "time": 160.75,
          "velocity": 0.5118110236220472
        },
        {
          "duration": 0.11666666666667425,
          "durationTicks": 28,
          "midi": 36,
          "name": "C2",
          "ticks": 38580,
          "time": 160.75,
          "velocity": 0.5118110236220472
        },
        {
          "duration": 0.11666666666667425,
          "durationTicks": 28,
          "midi": 36,
          "name": "C2",
          "ticks": 38640,
          "time": 161,
          "velocity": 0.5039370078740157
        },
        {
          "duration": 0.08333333333334281,
          "durationTicks": 20,
          "midi": 44,
          "name": "G#2",
          "ticks": 38640,
          "time": 161,
          "velocity": 0.5039370078740157
        },
        {
          "duration": 0.10833333333332007,
          "durationTicks": 26,
          "midi": 54,
          "name": "F#3",
          "ticks": 38700,
          "time": 161.25,
          "velocity": 0.5039370078740157
        },
        {
          "duration": 0.11666666666667425,
          "durationTicks": 28,
          "midi": 36,
          "name": "C2",
          "ticks": 38700,
          "time": 161.25,
          "velocity": 0.5039370078740157
        },
        {
          "duration": 0.10833333333332007,
          "durationTicks": 26,
          "midi": 40,
          "name": "E2",
          "ticks": 38700,
          "time": 161.25,
          "velocity": 0.5039370078740157
        },
        {
          "duration": 0.08333333333334281,
          "durationTicks": 20,
          "midi": 44,
          "name": "G#2",
          "ticks": 38700,
          "time": 161.25,
          "velocity": 0.5039370078740157
        },
        {
          "duration": 0.11666666666667425,
          "durationTicks": 28,
          "midi": 37,
          "name": "C#2",
          "ticks": 38700,
          "time": 161.25,
          "velocity": 0.5039370078740157
        },
        {
          "duration": 0.08333333333334281,
          "durationTicks": 20,
          "midi": 44,
          "name": "G#2",
          "ticks": 38760,
          "time": 161.5,
          "velocity": 0.5039370078740157
        },
        {
          "duration": 0.11666666666667425,
          "durationTicks": 28,
          "midi": 36,
          "name": "C2",
          "ticks": 38760,
          "time": 161.5,
          "velocity": 0.5039370078740157
        },
        {
          "duration": 0.08333333333334281,
          "durationTicks": 20,
          "midi": 44,
          "name": "G#2",
          "ticks": 38820,
          "time": 161.75,
          "velocity": 0.5039370078740157
        },
        {
          "duration": 0.11666666666667425,
          "durationTicks": 28,
          "midi": 36,
          "name": "C2",
          "ticks": 38820,
          "time": 161.75,
          "velocity": 0.5039370078740157
        },
        {
          "duration": 0.10833333333332007,
          "durationTicks": 26,
          "midi": 54,
          "name": "F#3",
          "ticks": 38820,
          "time": 161.75,
          "velocity": 0.5039370078740157
        },
        {
          "duration": 0.11666666666667425,
          "durationTicks": 28,
          "midi": 36,
          "name": "C2",
          "ticks": 38880,
          "time": 162,
          "velocity": 0.5118110236220472
        },
        {
          "duration": 0.11666666666667425,
          "durationTicks": 28,
          "midi": 36,
          "name": "C2",
          "ticks": 38940,
          "time": 162.25,
          "velocity": 0.5826771653543307
        },
        {
          "duration": 0.11666666666667425,
          "durationTicks": 28,
          "midi": 36,
          "name": "C2",
          "ticks": 39000,
          "time": 162.5,
          "velocity": 0.6220472440944882
        },
        {
          "duration": 0.11666666666667425,
          "durationTicks": 28,
          "midi": 36,
          "name": "C2",
          "ticks": 39060,
          "time": 162.75,
          "velocity": 0.6456692913385826
        },
        {
          "duration": 0.11666666666667425,
          "durationTicks": 28,
          "midi": 36,
          "name": "C2",
          "ticks": 39120,
          "time": 163,
          "velocity": 0.6850393700787402
        },
        {
          "duration": 0.11666666666667425,
          "durationTicks": 28,
          "midi": 36,
          "name": "C2",
          "ticks": 39180,
          "time": 163.25,
          "velocity": 0.7244094488188977
        },
        {
          "duration": 0.11666666666667425,
          "durationTicks": 28,
          "midi": 36,
          "name": "C2",
          "ticks": 39240,
          "time": 163.5,
          "velocity": 0.7480314960629921
        },
        {
          "duration": 0.11666666666667425,
          "durationTicks": 28,
          "midi": 36,
          "name": "C2",
          "ticks": 39300,
          "time": 163.75,
          "velocity": 0.7795275590551181
        },
        {
          "duration": 0.11666666666667425,
          "durationTicks": 28,
          "midi": 36,
          "name": "C2",
          "ticks": 39360,
          "time": 164,
          "velocity": 0.8346456692913385
        },
        {
          "duration": 0.11666666666667425,
          "durationTicks": 28,
          "midi": 36,
          "name": "C2",
          "ticks": 39420,
          "time": 164.25,
          "velocity": 0.8976377952755905
        },
        {
          "duration": 0.11666666666667425,
          "durationTicks": 28,
          "midi": 36,
          "name": "C2",
          "ticks": 39480,
          "time": 164.5,
          "velocity": 0.9448818897637795
        },
        {
          "duration": 0.11666666666667425,
          "durationTicks": 28,
          "midi": 36,
          "name": "C2",
          "ticks": 39540,
          "time": 164.75,
          "velocity": 0.968503937007874
        },
        {
          "duration": 0.11666666666667425,
          "durationTicks": 28,
          "midi": 36,
          "name": "C2",
          "ticks": 39600,
          "time": 165,
          "velocity": 0.9921259842519685
        },
        {
          "duration": 0.11666666666667425,
          "durationTicks": 28,
          "midi": 36,
          "name": "C2",
          "ticks": 39660,
          "time": 165.25,
          "velocity": 0.9921259842519685
        },
        {
          "duration": 0.11666666666667425,
          "durationTicks": 28,
          "midi": 40,
          "name": "E2",
          "ticks": 39720,
          "time": 165.5,
          "velocity": 0.5905511811023622
        },
        {
          "duration": 0.11666666666667425,
          "durationTicks": 28,
          "midi": 38,
          "name": "D2",
          "ticks": 39720,
          "time": 165.5,
          "velocity": 0.5905511811023622
        },
        {
          "duration": 0.11666666666667425,
          "durationTicks": 28,
          "midi": 36,
          "name": "C2",
          "ticks": 39720,
          "time": 165.5,
          "velocity": 0.5905511811023622
        },
        {
          "duration": 0.11666666666667425,
          "durationTicks": 28,
          "midi": 36,
          "name": "C2",
          "ticks": 39840,
          "time": 166,
          "velocity": 0.8346456692913385
        },
        {
          "duration": 0.09999999999999432,
          "durationTicks": 24,
          "midi": 55,
          "name": "G3",
          "ticks": 39840,
          "time": 166,
          "velocity": 0.8346456692913385
        },
        {
          "duration": 0.08333333333334281,
          "durationTicks": 20,
          "midi": 59,
          "name": "B3",
          "ticks": 39840,
          "time": 166,
          "velocity": 0.8346456692913385
        },
        {
          "duration": 0.08333333333334281,
          "durationTicks": 20,
          "midi": 44,
          "name": "G#2",
          "ticks": 39840,
          "time": 166,
          "velocity": 0.8346456692913385
        },
        {
          "duration": 0.08333333333334281,
          "durationTicks": 20,
          "midi": 44,
          "name": "G#2",
          "ticks": 39900,
          "time": 166.25,
          "velocity": 0.8346456692913385
        },
        {
          "duration": 0.10833333333332007,
          "durationTicks": 26,
          "midi": 54,
          "name": "F#3",
          "ticks": 39900,
          "time": 166.25,
          "velocity": 0.5039370078740157
        },
        {
          "duration": 0.10833333333332007,
          "durationTicks": 26,
          "midi": 40,
          "name": "E2",
          "ticks": 39960,
          "time": 166.5,
          "velocity": 0.5039370078740157
        },
        {
          "duration": 0.08333333333334281,
          "durationTicks": 20,
          "midi": 44,
          "name": "G#2",
          "ticks": 39960,
          "time": 166.5,
          "velocity": 0.8346456692913385
        },
        {
          "duration": 0.11666666666667425,
          "durationTicks": 28,
          "midi": 36,
          "name": "C2",
          "ticks": 39960,
          "time": 166.5,
          "velocity": 0.8346456692913385
        },
        {
          "duration": 0.10833333333332007,
          "durationTicks": 26,
          "midi": 37,
          "name": "C#2",
          "ticks": 39960,
          "time": 166.5,
          "velocity": 0.5039370078740157
        },
        {
          "duration": 0.08333333333334281,
          "durationTicks": 20,
          "midi": 59,
          "name": "B3",
          "ticks": 39960,
          "time": 166.5,
          "velocity": 0.8346456692913385
        },
        {
          "duration": 0.08333333333334281,
          "durationTicks": 20,
          "midi": 44,
          "name": "G#2",
          "ticks": 40020,
          "time": 166.75,
          "velocity": 0.8346456692913385
        },
        {
          "duration": 0.11666666666667425,
          "durationTicks": 28,
          "midi": 36,
          "name": "C2",
          "ticks": 40020,
          "time": 166.75,
          "velocity": 0.8346456692913385
        },
        {
          "duration": 0.10833333333332007,
          "durationTicks": 26,
          "midi": 54,
          "name": "F#3",
          "ticks": 40020,
          "time": 166.75,
          "velocity": 0.5039370078740157
        },
        {
          "duration": 0.08333333333334281,
          "durationTicks": 20,
          "midi": 44,
          "name": "G#2",
          "ticks": 40080,
          "time": 167,
          "velocity": 0.8346456692913385
        },
        {
          "duration": 0.08333333333334281,
          "durationTicks": 20,
          "midi": 59,
          "name": "B3",
          "ticks": 40080,
          "time": 167,
          "velocity": 0.8346456692913385
        },
        {
          "duration": 0.11666666666667425,
          "durationTicks": 28,
          "midi": 36,
          "name": "C2",
          "ticks": 40080,
          "time": 167,
          "velocity": 0.8346456692913385
        },
        {
          "duration": 0.10833333333332007,
          "durationTicks": 26,
          "midi": 37,
          "name": "C#2",
          "ticks": 40140,
          "time": 167.25,
          "velocity": 0.5039370078740157
        },
        {
          "duration": 0.08333333333334281,
          "durationTicks": 20,
          "midi": 44,
          "name": "G#2",
          "ticks": 40140,
          "time": 167.25,
          "velocity": 0.8346456692913385
        },
        {
          "duration": 0.11666666666667425,
          "durationTicks": 28,
          "midi": 36,
          "name": "C2",
          "ticks": 40140,
          "time": 167.25,
          "velocity": 0.8346456692913385
        },
        {
          "duration": 0.10833333333332007,
          "durationTicks": 26,
          "midi": 40,
          "name": "E2",
          "ticks": 40140,
          "time": 167.25,
          "velocity": 0.5039370078740157
        },
        {
          "duration": 0.10833333333332007,
          "durationTicks": 26,
          "midi": 54,
          "name": "F#3",
          "ticks": 40140,
          "time": 167.25,
          "velocity": 0.5039370078740157
        },
        {
          "duration": 0.08333333333334281,
          "durationTicks": 20,
          "midi": 44,
          "name": "G#2",
          "ticks": 40200,
          "time": 167.5,
          "velocity": 0.8346456692913385
        },
        {
          "duration": 0.11666666666667425,
          "durationTicks": 28,
          "midi": 36,
          "name": "C2",
          "ticks": 40200,
          "time": 167.5,
          "velocity": 0.8346456692913385
        },
        {
          "duration": 0.08333333333334281,
          "durationTicks": 20,
          "midi": 59,
          "name": "B3",
          "ticks": 40200,
          "time": 167.5,
          "velocity": 0.8346456692913385
        },
        {
          "duration": 0.10833333333332007,
          "durationTicks": 26,
          "midi": 54,
          "name": "F#3",
          "ticks": 40260,
          "time": 167.75,
          "velocity": 0.5039370078740157
        },
        {
          "duration": 0.11666666666667425,
          "durationTicks": 28,
          "midi": 36,
          "name": "C2",
          "ticks": 40260,
          "time": 167.75,
          "velocity": 0.8346456692913385
        },
        {
          "duration": 0.08333333333334281,
          "durationTicks": 20,
          "midi": 44,
          "name": "G#2",
          "ticks": 40260,
          "time": 167.75,
          "velocity": 0.8346456692913385
        },
        {
          "duration": 0.08333333333334281,
          "durationTicks": 20,
          "midi": 59,
          "name": "B3",
          "ticks": 40320,
          "time": 168,
          "velocity": 0.8346456692913385
        },
        {
          "duration": 0.11666666666667425,
          "durationTicks": 28,
          "midi": 36,
          "name": "C2",
          "ticks": 40320,
          "time": 168,
          "velocity": 0.8346456692913385
        },
        {
          "duration": 0.08333333333334281,
          "durationTicks": 20,
          "midi": 44,
          "name": "G#2",
          "ticks": 40320,
          "time": 168,
          "velocity": 0.8346456692913385
        },
        {
          "duration": 0.08333333333334281,
          "durationTicks": 20,
          "midi": 44,
          "name": "G#2",
          "ticks": 40380,
          "time": 168.25,
          "velocity": 0.8346456692913385
        },
        {
          "duration": 0.10833333333332007,
          "durationTicks": 26,
          "midi": 54,
          "name": "F#3",
          "ticks": 40380,
          "time": 168.25,
          "velocity": 0.5039370078740157
        },
        {
          "duration": 0.08333333333334281,
          "durationTicks": 20,
          "midi": 59,
          "name": "B3",
          "ticks": 40440,
          "time": 168.5,
          "velocity": 0.8346456692913385
        },
        {
          "duration": 0.11666666666667425,
          "durationTicks": 28,
          "midi": 36,
          "name": "C2",
          "ticks": 40440,
          "time": 168.5,
          "velocity": 0.8346456692913385
        },
        {
          "duration": 0.08333333333334281,
          "durationTicks": 20,
          "midi": 44,
          "name": "G#2",
          "ticks": 40440,
          "time": 168.5,
          "velocity": 0.8346456692913385
        },
        {
          "duration": 0.10833333333332007,
          "durationTicks": 26,
          "midi": 37,
          "name": "C#2",
          "ticks": 40440,
          "time": 168.5,
          "velocity": 0.5039370078740157
        },
        {
          "duration": 0.10833333333332007,
          "durationTicks": 26,
          "midi": 40,
          "name": "E2",
          "ticks": 40440,
          "time": 168.5,
          "velocity": 0.5039370078740157
        },
        {
          "duration": 0.10833333333332007,
          "durationTicks": 26,
          "midi": 54,
          "name": "F#3",
          "ticks": 40500,
          "time": 168.75,
          "velocity": 0.5039370078740157
        },
        {
          "duration": 0.08333333333334281,
          "durationTicks": 20,
          "midi": 44,
          "name": "G#2",
          "ticks": 40500,
          "time": 168.75,
          "velocity": 0.8346456692913385
        },
        {
          "duration": 0.11666666666667425,
          "durationTicks": 28,
          "midi": 36,
          "name": "C2",
          "ticks": 40500,
          "time": 168.75,
          "velocity": 0.8346456692913385
        },
        {
          "duration": 0.08333333333334281,
          "durationTicks": 20,
          "midi": 44,
          "name": "G#2",
          "ticks": 40560,
          "time": 169,
          "velocity": 0.8346456692913385
        },
        {
          "duration": 0.11666666666667425,
          "durationTicks": 28,
          "midi": 36,
          "name": "C2",
          "ticks": 40560,
          "time": 169,
          "velocity": 0.8346456692913385
        },
        {
          "duration": 0.08333333333334281,
          "durationTicks": 20,
          "midi": 59,
          "name": "B3",
          "ticks": 40560,
          "time": 169,
          "velocity": 0.8346456692913385
        },
        {
          "duration": 0.11666666666667425,
          "durationTicks": 28,
          "midi": 36,
          "name": "C2",
          "ticks": 40620,
          "time": 169.25,
          "velocity": 0.8346456692913385
        },
        {
          "duration": 0.08333333333334281,
          "durationTicks": 20,
          "midi": 44,
          "name": "G#2",
          "ticks": 40620,
          "time": 169.25,
          "velocity": 0.8346456692913385
        },
        {
          "duration": 0.10833333333332007,
          "durationTicks": 26,
          "midi": 54,
          "name": "F#3",
          "ticks": 40620,
          "time": 169.25,
          "velocity": 0.5039370078740157
        },
        {
          "duration": 0.10833333333332007,
          "durationTicks": 26,
          "midi": 40,
          "name": "E2",
          "ticks": 40620,
          "time": 169.25,
          "velocity": 0.5039370078740157
        },
        {
          "duration": 0.10833333333332007,
          "durationTicks": 26,
          "midi": 37,
          "name": "C#2",
          "ticks": 40620,
          "time": 169.25,
          "velocity": 0.5039370078740157
        },
        {
          "duration": 0.11666666666667425,
          "durationTicks": 28,
          "midi": 36,
          "name": "C2",
          "ticks": 40680,
          "time": 169.5,
          "velocity": 0.8346456692913385
        },
        {
          "duration": 0.08333333333334281,
          "durationTicks": 20,
          "midi": 44,
          "name": "G#2",
          "ticks": 40680,
          "time": 169.5,
          "velocity": 0.8346456692913385
        },
        {
          "duration": 0.08333333333334281,
          "durationTicks": 20,
          "midi": 59,
          "name": "B3",
          "ticks": 40680,
          "time": 169.5,
          "velocity": 0.8346456692913385
        },
        {
          "duration": 0.11666666666667425,
          "durationTicks": 28,
          "midi": 36,
          "name": "C2",
          "ticks": 40740,
          "time": 169.75,
          "velocity": 0.8346456692913385
        },
        {
          "duration": 0.08333333333334281,
          "durationTicks": 20,
          "midi": 44,
          "name": "G#2",
          "ticks": 40740,
          "time": 169.75,
          "velocity": 0.8346456692913385
        },
        {
          "duration": 0.10833333333332007,
          "durationTicks": 26,
          "midi": 54,
          "name": "F#3",
          "ticks": 40740,
          "time": 169.75,
          "velocity": 0.5039370078740157
        },
        {
          "duration": 0.08333333333334281,
          "durationTicks": 20,
          "midi": 44,
          "name": "G#2",
          "ticks": 40800,
          "time": 170,
          "velocity": 0.8346456692913385
        },
        {
          "duration": 0.11666666666667425,
          "durationTicks": 28,
          "midi": 36,
          "name": "C2",
          "ticks": 40800,
          "time": 170,
          "velocity": 0.8346456692913385
        },
        {
          "duration": 0.08333333333334281,
          "durationTicks": 20,
          "midi": 59,
          "name": "B3",
          "ticks": 40800,
          "time": 170,
          "velocity": 0.8346456692913385
        },
        {
          "duration": 0.08333333333334281,
          "durationTicks": 20,
          "midi": 44,
          "name": "G#2",
          "ticks": 40860,
          "time": 170.25,
          "velocity": 0.8346456692913385
        },
        {
          "duration": 0.10833333333332007,
          "durationTicks": 26,
          "midi": 54,
          "name": "F#3",
          "ticks": 40860,
          "time": 170.25,
          "velocity": 0.5039370078740157
        },
        {
          "duration": 0.10833333333332007,
          "durationTicks": 26,
          "midi": 37,
          "name": "C#2",
          "ticks": 40920,
          "time": 170.5,
          "velocity": 0.5039370078740157
        },
        {
          "duration": 0.08333333333334281,
          "durationTicks": 20,
          "midi": 59,
          "name": "B3",
          "ticks": 40920,
          "time": 170.5,
          "velocity": 0.8346456692913385
        },
        {
          "duration": 0.10833333333332007,
          "durationTicks": 26,
          "midi": 40,
          "name": "E2",
          "ticks": 40920,
          "time": 170.5,
          "velocity": 0.5039370078740157
        },
        {
          "duration": 0.08333333333334281,
          "durationTicks": 20,
          "midi": 44,
          "name": "G#2",
          "ticks": 40920,
          "time": 170.5,
          "velocity": 0.8346456692913385
        },
        {
          "duration": 0.11666666666667425,
          "durationTicks": 28,
          "midi": 36,
          "name": "C2",
          "ticks": 40920,
          "time": 170.5,
          "velocity": 0.8346456692913385
        },
        {
          "duration": 0.11666666666667425,
          "durationTicks": 28,
          "midi": 36,
          "name": "C2",
          "ticks": 40980,
          "time": 170.75,
          "velocity": 0.8346456692913385
        },
        {
          "duration": 0.08333333333334281,
          "durationTicks": 20,
          "midi": 44,
          "name": "G#2",
          "ticks": 40980,
          "time": 170.75,
          "velocity": 0.8346456692913385
        },
        {
          "duration": 0.10833333333332007,
          "durationTicks": 26,
          "midi": 54,
          "name": "F#3",
          "ticks": 40980,
          "time": 170.75,
          "velocity": 0.5039370078740157
        },
        {
          "duration": 0.11666666666667425,
          "durationTicks": 28,
          "midi": 36,
          "name": "C2",
          "ticks": 41040,
          "time": 171,
          "velocity": 0.8346456692913385
        },
        {
          "duration": 0.08333333333334281,
          "durationTicks": 20,
          "midi": 59,
          "name": "B3",
          "ticks": 41040,
          "time": 171,
          "velocity": 0.8346456692913385
        },
        {
          "duration": 0.08333333333334281,
          "durationTicks": 20,
          "midi": 44,
          "name": "G#2",
          "ticks": 41040,
          "time": 171,
          "velocity": 0.8346456692913385
        },
        {
          "duration": 0.10833333333332007,
          "durationTicks": 26,
          "midi": 37,
          "name": "C#2",
          "ticks": 41100,
          "time": 171.25,
          "velocity": 0.5039370078740157
        },
        {
          "duration": 0.11666666666667425,
          "durationTicks": 28,
          "midi": 36,
          "name": "C2",
          "ticks": 41100,
          "time": 171.25,
          "velocity": 0.8346456692913385
        },
        {
          "duration": 0.08333333333334281,
          "durationTicks": 20,
          "midi": 44,
          "name": "G#2",
          "ticks": 41100,
          "time": 171.25,
          "velocity": 0.8346456692913385
        },
        {
          "duration": 0.10833333333332007,
          "durationTicks": 26,
          "midi": 40,
          "name": "E2",
          "ticks": 41100,
          "time": 171.25,
          "velocity": 0.5039370078740157
        },
        {
          "duration": 0.10833333333332007,
          "durationTicks": 26,
          "midi": 54,
          "name": "F#3",
          "ticks": 41100,
          "time": 171.25,
          "velocity": 0.5039370078740157
        },
        {
          "duration": 0.08333333333334281,
          "durationTicks": 20,
          "midi": 44,
          "name": "G#2",
          "ticks": 41160,
          "time": 171.5,
          "velocity": 0.8346456692913385
        },
        {
          "duration": 0.11666666666667425,
          "durationTicks": 28,
          "midi": 36,
          "name": "C2",
          "ticks": 41160,
          "time": 171.5,
          "velocity": 0.8346456692913385
        },
        {
          "duration": 0.08333333333334281,
          "durationTicks": 20,
          "midi": 59,
          "name": "B3",
          "ticks": 41160,
          "time": 171.5,
          "velocity": 0.8346456692913385
        },
        {
          "duration": 0.11666666666667425,
          "durationTicks": 28,
          "midi": 36,
          "name": "C2",
          "ticks": 41220,
          "time": 171.75,
          "velocity": 0.8346456692913385
        },
        {
          "duration": 0.10833333333332007,
          "durationTicks": 26,
          "midi": 54,
          "name": "F#3",
          "ticks": 41220,
          "time": 171.75,
          "velocity": 0.5039370078740157
        },
        {
          "duration": 0.08333333333334281,
          "durationTicks": 20,
          "midi": 44,
          "name": "G#2",
          "ticks": 41220,
          "time": 171.75,
          "velocity": 0.8346456692913385
        },
        {
          "duration": 0.08333333333334281,
          "durationTicks": 20,
          "midi": 44,
          "name": "G#2",
          "ticks": 41280,
          "time": 172,
          "velocity": 0.8346456692913385
        },
        {
          "duration": 0.08333333333334281,
          "durationTicks": 20,
          "midi": 59,
          "name": "B3",
          "ticks": 41280,
          "time": 172,
          "velocity": 0.8346456692913385
        },
        {
          "duration": 0.11666666666667425,
          "durationTicks": 28,
          "midi": 36,
          "name": "C2",
          "ticks": 41280,
          "time": 172,
          "velocity": 0.8346456692913385
        },
        {
          "duration": 0.10833333333332007,
          "durationTicks": 26,
          "midi": 54,
          "name": "F#3",
          "ticks": 41340,
          "time": 172.25,
          "velocity": 0.5039370078740157
        },
        {
          "duration": 0.08333333333334281,
          "durationTicks": 20,
          "midi": 44,
          "name": "G#2",
          "ticks": 41340,
          "time": 172.25,
          "velocity": 0.8346456692913385
        },
        {
          "duration": 0.08333333333334281,
          "durationTicks": 20,
          "midi": 59,
          "name": "B3",
          "ticks": 41400,
          "time": 172.5,
          "velocity": 0.8346456692913385
        },
        {
          "duration": 0.10833333333332007,
          "durationTicks": 26,
          "midi": 37,
          "name": "C#2",
          "ticks": 41400,
          "time": 172.5,
          "velocity": 0.5039370078740157
        },
        {
          "duration": 0.10833333333332007,
          "durationTicks": 26,
          "midi": 40,
          "name": "E2",
          "ticks": 41400,
          "time": 172.5,
          "velocity": 0.5039370078740157
        },
        {
          "duration": 0.08333333333334281,
          "durationTicks": 20,
          "midi": 44,
          "name": "G#2",
          "ticks": 41400,
          "time": 172.5,
          "velocity": 0.8346456692913385
        },
        {
          "duration": 0.11666666666667425,
          "durationTicks": 28,
          "midi": 36,
          "name": "C2",
          "ticks": 41400,
          "time": 172.5,
          "velocity": 0.8346456692913385
        },
        {
          "duration": 0.08333333333334281,
          "durationTicks": 20,
          "midi": 44,
          "name": "G#2",
          "ticks": 41460,
          "time": 172.75,
          "velocity": 0.8346456692913385
        },
        {
          "duration": 0.11666666666667425,
          "durationTicks": 28,
          "midi": 36,
          "name": "C2",
          "ticks": 41460,
          "time": 172.75,
          "velocity": 0.8346456692913385
        },
        {
          "duration": 0.10833333333332007,
          "durationTicks": 26,
          "midi": 54,
          "name": "F#3",
          "ticks": 41460,
          "time": 172.75,
          "velocity": 0.5039370078740157
        },
        {
          "duration": 0.08333333333334281,
          "durationTicks": 20,
          "midi": 44,
          "name": "G#2",
          "ticks": 41520,
          "time": 173,
          "velocity": 0.8346456692913385
        },
        {
          "duration": 0.11666666666667425,
          "durationTicks": 28,
          "midi": 36,
          "name": "C2",
          "ticks": 41520,
          "time": 173,
          "velocity": 0.8346456692913385
        },
        {
          "duration": 0.08333333333334281,
          "durationTicks": 20,
          "midi": 59,
          "name": "B3",
          "ticks": 41520,
          "time": 173,
          "velocity": 0.8346456692913385
        },
        {
          "duration": 0.11666666666667425,
          "durationTicks": 28,
          "midi": 36,
          "name": "C2",
          "ticks": 41580,
          "time": 173.25,
          "velocity": 0.8346456692913385
        },
        {
          "duration": 0.08333333333334281,
          "durationTicks": 20,
          "midi": 44,
          "name": "G#2",
          "ticks": 41580,
          "time": 173.25,
          "velocity": 0.8346456692913385
        },
        {
          "duration": 0.10833333333332007,
          "durationTicks": 26,
          "midi": 54,
          "name": "F#3",
          "ticks": 41580,
          "time": 173.25,
          "velocity": 0.5039370078740157
        },
        {
          "duration": 0.10833333333332007,
          "durationTicks": 26,
          "midi": 37,
          "name": "C#2",
          "ticks": 41580,
          "time": 173.25,
          "velocity": 0.5039370078740157
        },
        {
          "duration": 0.10833333333332007,
          "durationTicks": 26,
          "midi": 40,
          "name": "E2",
          "ticks": 41580,
          "time": 173.25,
          "velocity": 0.5039370078740157
        },
        {
          "duration": 0.08333333333334281,
          "durationTicks": 20,
          "midi": 44,
          "name": "G#2",
          "ticks": 41640,
          "time": 173.5,
          "velocity": 0.8346456692913385
        },
        {
          "duration": 0.11666666666667425,
          "durationTicks": 28,
          "midi": 36,
          "name": "C2",
          "ticks": 41640,
          "time": 173.5,
          "velocity": 0.8346456692913385
        },
        {
          "duration": 0.08333333333334281,
          "durationTicks": 20,
          "midi": 59,
          "name": "B3",
          "ticks": 41640,
          "time": 173.5,
          "velocity": 0.8346456692913385
        },
        {
          "duration": 0.11666666666667425,
          "durationTicks": 28,
          "midi": 36,
          "name": "C2",
          "ticks": 41700,
          "time": 173.75,
          "velocity": 0.8346456692913385
        },
        {
          "duration": 0.08333333333334281,
          "durationTicks": 20,
          "midi": 44,
          "name": "G#2",
          "ticks": 41700,
          "time": 173.75,
          "velocity": 0.8346456692913385
        },
        {
          "duration": 0.10833333333332007,
          "durationTicks": 26,
          "midi": 54,
          "name": "F#3",
          "ticks": 41700,
          "time": 173.75,
          "velocity": 0.5039370078740157
        },
        {
          "duration": 0.08333333333334281,
          "durationTicks": 20,
          "midi": 59,
          "name": "B3",
          "ticks": 41760,
          "time": 174,
          "velocity": 0.8346456692913385
        },
        {
          "duration": 0.11666666666667425,
          "durationTicks": 28,
          "midi": 36,
          "name": "C2",
          "ticks": 41760,
          "time": 174,
          "velocity": 0.8346456692913385
        },
        {
          "duration": 0.08333333333334281,
          "durationTicks": 20,
          "midi": 55,
          "name": "G3",
          "ticks": 41760,
          "time": 174,
          "velocity": 0.8346456692913385
        },
        {
          "duration": 0.08333333333334281,
          "durationTicks": 20,
          "midi": 44,
          "name": "G#2",
          "ticks": 41760,
          "time": 174,
          "velocity": 0.8346456692913385
        },
        {
          "duration": 0.10833333333332007,
          "durationTicks": 26,
          "midi": 54,
          "name": "F#3",
          "ticks": 41820,
          "time": 174.25,
          "velocity": 0.5039370078740157
        },
        {
          "duration": 0.08333333333334281,
          "durationTicks": 20,
          "midi": 44,
          "name": "G#2",
          "ticks": 41820,
          "time": 174.25,
          "velocity": 0.8346456692913385
        },
        {
          "duration": 0.08333333333334281,
          "durationTicks": 20,
          "midi": 44,
          "name": "G#2",
          "ticks": 41880,
          "time": 174.5,
          "velocity": 0.8346456692913385
        },
        {
          "duration": 0.10833333333332007,
          "durationTicks": 26,
          "midi": 40,
          "name": "E2",
          "ticks": 41880,
          "time": 174.5,
          "velocity": 0.5039370078740157
        },
        {
          "duration": 0.10833333333332007,
          "durationTicks": 26,
          "midi": 37,
          "name": "C#2",
          "ticks": 41880,
          "time": 174.5,
          "velocity": 0.5039370078740157
        },
        {
          "duration": 0.08333333333334281,
          "durationTicks": 20,
          "midi": 59,
          "name": "B3",
          "ticks": 41880,
          "time": 174.5,
          "velocity": 0.8346456692913385
        },
        {
          "duration": 0.11666666666667425,
          "durationTicks": 28,
          "midi": 36,
          "name": "C2",
          "ticks": 41880,
          "time": 174.5,
          "velocity": 0.8346456692913385
        },
        {
          "duration": 0.11666666666667425,
          "durationTicks": 28,
          "midi": 36,
          "name": "C2",
          "ticks": 41940,
          "time": 174.75,
          "velocity": 0.8346456692913385
        },
        {
          "duration": 0.08333333333334281,
          "durationTicks": 20,
          "midi": 44,
          "name": "G#2",
          "ticks": 41940,
          "time": 174.75,
          "velocity": 0.8346456692913385
        },
        {
          "duration": 0.10833333333332007,
          "durationTicks": 26,
          "midi": 54,
          "name": "F#3",
          "ticks": 41940,
          "time": 174.75,
          "velocity": 0.5039370078740157
        },
        {
          "duration": 0.11666666666667425,
          "durationTicks": 28,
          "midi": 36,
          "name": "C2",
          "ticks": 42000,
          "time": 175,
          "velocity": 0.8346456692913385
        },
        {
          "duration": 0.08333333333334281,
          "durationTicks": 20,
          "midi": 59,
          "name": "B3",
          "ticks": 42000,
          "time": 175,
          "velocity": 0.8346456692913385
        },
        {
          "duration": 0.08333333333334281,
          "durationTicks": 20,
          "midi": 44,
          "name": "G#2",
          "ticks": 42000,
          "time": 175,
          "velocity": 0.8346456692913385
        },
        {
          "duration": 0.10833333333332007,
          "durationTicks": 26,
          "midi": 40,
          "name": "E2",
          "ticks": 42060,
          "time": 175.25,
          "velocity": 0.5039370078740157
        },
        {
          "duration": 0.11666666666667425,
          "durationTicks": 28,
          "midi": 36,
          "name": "C2",
          "ticks": 42060,
          "time": 175.25,
          "velocity": 0.8346456692913385
        },
        {
          "duration": 0.10833333333332007,
          "durationTicks": 26,
          "midi": 54,
          "name": "F#3",
          "ticks": 42060,
          "time": 175.25,
          "velocity": 0.5039370078740157
        },
        {
          "duration": 0.10833333333332007,
          "durationTicks": 26,
          "midi": 37,
          "name": "C#2",
          "ticks": 42060,
          "time": 175.25,
          "velocity": 0.5039370078740157
        },
        {
          "duration": 0.08333333333334281,
          "durationTicks": 20,
          "midi": 44,
          "name": "G#2",
          "ticks": 42060,
          "time": 175.25,
          "velocity": 0.8346456692913385
        },
        {
          "duration": 0.08333333333334281,
          "durationTicks": 20,
          "midi": 44,
          "name": "G#2",
          "ticks": 42120,
          "time": 175.5,
          "velocity": 0.8346456692913385
        },
        {
          "duration": 0.08333333333334281,
          "durationTicks": 20,
          "midi": 59,
          "name": "B3",
          "ticks": 42120,
          "time": 175.5,
          "velocity": 0.8346456692913385
        },
        {
          "duration": 0.11666666666667425,
          "durationTicks": 28,
          "midi": 36,
          "name": "C2",
          "ticks": 42120,
          "time": 175.5,
          "velocity": 0.8346456692913385
        },
        {
          "duration": 0.08333333333334281,
          "durationTicks": 20,
          "midi": 44,
          "name": "G#2",
          "ticks": 42180,
          "time": 175.75,
          "velocity": 0.8346456692913385
        },
        {
          "duration": 0.10833333333332007,
          "durationTicks": 26,
          "midi": 54,
          "name": "F#3",
          "ticks": 42180,
          "time": 175.75,
          "velocity": 0.5039370078740157
        },
        {
          "duration": 0.11666666666667425,
          "durationTicks": 28,
          "midi": 36,
          "name": "C2",
          "ticks": 42180,
          "time": 175.75,
          "velocity": 0.8346456692913385
        },
        {
          "duration": 0.08333333333334281,
          "durationTicks": 20,
          "midi": 59,
          "name": "B3",
          "ticks": 42240,
          "time": 176,
          "velocity": 0.8346456692913385
        },
        {
          "duration": 0.08333333333334281,
          "durationTicks": 20,
          "midi": 44,
          "name": "G#2",
          "ticks": 42240,
          "time": 176,
          "velocity": 0.8346456692913385
        },
        {
          "duration": 0.11666666666667425,
          "durationTicks": 28,
          "midi": 36,
          "name": "C2",
          "ticks": 42240,
          "time": 176,
          "velocity": 0.8346456692913385
        },
        {
          "duration": 0.10833333333332007,
          "durationTicks": 26,
          "midi": 54,
          "name": "F#3",
          "ticks": 42300,
          "time": 176.25,
          "velocity": 0.5039370078740157
        },
        {
          "duration": 0.08333333333334281,
          "durationTicks": 20,
          "midi": 44,
          "name": "G#2",
          "ticks": 42300,
          "time": 176.25,
          "velocity": 0.8346456692913385
        },
        {
          "duration": 0.08333333333334281,
          "durationTicks": 20,
          "midi": 44,
          "name": "G#2",
          "ticks": 42360,
          "time": 176.5,
          "velocity": 0.8346456692913385
        },
        {
          "duration": 0.11666666666667425,
          "durationTicks": 28,
          "midi": 36,
          "name": "C2",
          "ticks": 42360,
          "time": 176.5,
          "velocity": 0.8346456692913385
        },
        {
          "duration": 0.10833333333332007,
          "durationTicks": 26,
          "midi": 40,
          "name": "E2",
          "ticks": 42360,
          "time": 176.5,
          "velocity": 0.5039370078740157
        },
        {
          "duration": 0.10833333333332007,
          "durationTicks": 26,
          "midi": 37,
          "name": "C#2",
          "ticks": 42360,
          "time": 176.5,
          "velocity": 0.5039370078740157
        },
        {
          "duration": 0.08333333333334281,
          "durationTicks": 20,
          "midi": 59,
          "name": "B3",
          "ticks": 42360,
          "time": 176.5,
          "velocity": 0.8346456692913385
        },
        {
          "duration": 0.08333333333334281,
          "durationTicks": 20,
          "midi": 44,
          "name": "G#2",
          "ticks": 42420,
          "time": 176.75,
          "velocity": 0.8346456692913385
        },
        {
          "duration": 0.11666666666667425,
          "durationTicks": 28,
          "midi": 36,
          "name": "C2",
          "ticks": 42420,
          "time": 176.75,
          "velocity": 0.8346456692913385
        },
        {
          "duration": 0.10833333333332007,
          "durationTicks": 26,
          "midi": 54,
          "name": "F#3",
          "ticks": 42420,
          "time": 176.75,
          "velocity": 0.5039370078740157
        },
        {
          "duration": 0.08333333333334281,
          "durationTicks": 20,
          "midi": 44,
          "name": "G#2",
          "ticks": 42480,
          "time": 177,
          "velocity": 0.8346456692913385
        },
        {
          "duration": 0.08333333333334281,
          "durationTicks": 20,
          "midi": 59,
          "name": "B3",
          "ticks": 42480,
          "time": 177,
          "velocity": 0.8346456692913385
        },
        {
          "duration": 0.11666666666667425,
          "durationTicks": 28,
          "midi": 36,
          "name": "C2",
          "ticks": 42480,
          "time": 177,
          "velocity": 0.8346456692913385
        },
        {
          "duration": 0.10833333333332007,
          "durationTicks": 26,
          "midi": 40,
          "name": "E2",
          "ticks": 42540,
          "time": 177.25,
          "velocity": 0.5039370078740157
        },
        {
          "duration": 0.10833333333332007,
          "durationTicks": 26,
          "midi": 37,
          "name": "C#2",
          "ticks": 42540,
          "time": 177.25,
          "velocity": 0.5039370078740157
        },
        {
          "duration": 0.11666666666667425,
          "durationTicks": 28,
          "midi": 36,
          "name": "C2",
          "ticks": 42540,
          "time": 177.25,
          "velocity": 0.8346456692913385
        },
        {
          "duration": 0.10833333333332007,
          "durationTicks": 26,
          "midi": 54,
          "name": "F#3",
          "ticks": 42540,
          "time": 177.25,
          "velocity": 0.5039370078740157
        },
        {
          "duration": 0.08333333333334281,
          "durationTicks": 20,
          "midi": 44,
          "name": "G#2",
          "ticks": 42540,
          "time": 177.25,
          "velocity": 0.8346456692913385
        },
        {
          "duration": 0.08333333333334281,
          "durationTicks": 20,
          "midi": 44,
          "name": "G#2",
          "ticks": 42600,
          "time": 177.5,
          "velocity": 0.8346456692913385
        },
        {
          "duration": 0.11666666666667425,
          "durationTicks": 28,
          "midi": 36,
          "name": "C2",
          "ticks": 42600,
          "time": 177.5,
          "velocity": 0.8346456692913385
        },
        {
          "duration": 0.08333333333334281,
          "durationTicks": 20,
          "midi": 59,
          "name": "B3",
          "ticks": 42600,
          "time": 177.5,
          "velocity": 0.8346456692913385
        },
        {
          "duration": 0.11666666666667425,
          "durationTicks": 28,
          "midi": 36,
          "name": "C2",
          "ticks": 42660,
          "time": 177.75,
          "velocity": 0.8346456692913385
        },
        {
          "duration": 0.10833333333332007,
          "durationTicks": 26,
          "midi": 54,
          "name": "F#3",
          "ticks": 42660,
          "time": 177.75,
          "velocity": 0.5039370078740157
        },
        {
          "duration": 0.08333333333334281,
          "durationTicks": 20,
          "midi": 44,
          "name": "G#2",
          "ticks": 42660,
          "time": 177.75,
          "velocity": 0.8346456692913385
        },
        {
          "duration": 0.11666666666667425,
          "durationTicks": 28,
          "midi": 36,
          "name": "C2",
          "ticks": 42720,
          "time": 178,
          "velocity": 0.8346456692913385
        },
        {
          "duration": 0.08333333333334281,
          "durationTicks": 20,
          "midi": 59,
          "name": "B3",
          "ticks": 42720,
          "time": 178,
          "velocity": 0.8346456692913385
        },
        {
          "duration": 0.08333333333334281,
          "durationTicks": 20,
          "midi": 44,
          "name": "G#2",
          "ticks": 42720,
          "time": 178,
          "velocity": 0.8346456692913385
        },
        {
          "duration": 0.10833333333332007,
          "durationTicks": 26,
          "midi": 54,
          "name": "F#3",
          "ticks": 42780,
          "time": 178.25,
          "velocity": 0.5039370078740157
        },
        {
          "duration": 0.08333333333334281,
          "durationTicks": 20,
          "midi": 44,
          "name": "G#2",
          "ticks": 42780,
          "time": 178.25,
          "velocity": 0.8346456692913385
        },
        {
          "duration": 0.11666666666667425,
          "durationTicks": 28,
          "midi": 36,
          "name": "C2",
          "ticks": 42840,
          "time": 178.5,
          "velocity": 0.8346456692913385
        },
        {
          "duration": 0.10833333333332007,
          "durationTicks": 26,
          "midi": 37,
          "name": "C#2",
          "ticks": 42840,
          "time": 178.5,
          "velocity": 0.5039370078740157
        },
        {
          "duration": 0.10833333333332007,
          "durationTicks": 26,
          "midi": 40,
          "name": "E2",
          "ticks": 42840,
          "time": 178.5,
          "velocity": 0.5039370078740157
        },
        {
          "duration": 0.08333333333334281,
          "durationTicks": 20,
          "midi": 59,
          "name": "B3",
          "ticks": 42840,
          "time": 178.5,
          "velocity": 0.8346456692913385
        },
        {
          "duration": 0.08333333333334281,
          "durationTicks": 20,
          "midi": 44,
          "name": "G#2",
          "ticks": 42840,
          "time": 178.5,
          "velocity": 0.8346456692913385
        },
        {
          "duration": 0.08333333333334281,
          "durationTicks": 20,
          "midi": 44,
          "name": "G#2",
          "ticks": 42900,
          "time": 178.75,
          "velocity": 0.8346456692913385
        },
        {
          "duration": 0.11666666666667425,
          "durationTicks": 28,
          "midi": 36,
          "name": "C2",
          "ticks": 42900,
          "time": 178.75,
          "velocity": 0.8346456692913385
        },
        {
          "duration": 0.10833333333332007,
          "durationTicks": 26,
          "midi": 54,
          "name": "F#3",
          "ticks": 42900,
          "time": 178.75,
          "velocity": 0.5039370078740157
        },
        {
          "duration": 0.08333333333334281,
          "durationTicks": 20,
          "midi": 59,
          "name": "B3",
          "ticks": 42960,
          "time": 179,
          "velocity": 0.8346456692913385
        },
        {
          "duration": 0.08333333333334281,
          "durationTicks": 20,
          "midi": 44,
          "name": "G#2",
          "ticks": 42960,
          "time": 179,
          "velocity": 0.8346456692913385
        },
        {
          "duration": 0.11666666666667425,
          "durationTicks": 28,
          "midi": 36,
          "name": "C2",
          "ticks": 42960,
          "time": 179,
          "velocity": 0.8346456692913385
        },
        {
          "duration": 0.11666666666667425,
          "durationTicks": 28,
          "midi": 36,
          "name": "C2",
          "ticks": 43020,
          "time": 179.25,
          "velocity": 0.8346456692913385
        },
        {
          "duration": 0.08333333333334281,
          "durationTicks": 20,
          "midi": 44,
          "name": "G#2",
          "ticks": 43020,
          "time": 179.25,
          "velocity": 0.8346456692913385
        },
        {
          "duration": 0.10833333333332007,
          "durationTicks": 26,
          "midi": 37,
          "name": "C#2",
          "ticks": 43020,
          "time": 179.25,
          "velocity": 0.5039370078740157
        },
        {
          "duration": 0.10833333333332007,
          "durationTicks": 26,
          "midi": 54,
          "name": "F#3",
          "ticks": 43020,
          "time": 179.25,
          "velocity": 0.5039370078740157
        },
        {
          "duration": 0.10833333333332007,
          "durationTicks": 26,
          "midi": 40,
          "name": "E2",
          "ticks": 43020,
          "time": 179.25,
          "velocity": 0.5039370078740157
        },
        {
          "duration": 0.08333333333334281,
          "durationTicks": 20,
          "midi": 44,
          "name": "G#2",
          "ticks": 43080,
          "time": 179.5,
          "velocity": 0.8346456692913385
        },
        {
          "duration": 0.08333333333334281,
          "durationTicks": 20,
          "midi": 59,
          "name": "B3",
          "ticks": 43080,
          "time": 179.5,
          "velocity": 0.8346456692913385
        },
        {
          "duration": 0.11666666666667425,
          "durationTicks": 28,
          "midi": 36,
          "name": "C2",
          "ticks": 43080,
          "time": 179.5,
          "velocity": 0.8346456692913385
        },
        {
          "duration": 0.10833333333332007,
          "durationTicks": 26,
          "midi": 54,
          "name": "F#3",
          "ticks": 43140,
          "time": 179.75,
          "velocity": 0.5039370078740157
        },
        {
          "duration": 0.11666666666667425,
          "durationTicks": 28,
          "midi": 36,
          "name": "C2",
          "ticks": 43140,
          "time": 179.75,
          "velocity": 0.8346456692913385
        },
        {
          "duration": 0.08333333333334281,
          "durationTicks": 20,
          "midi": 44,
          "name": "G#2",
          "ticks": 43140,
          "time": 179.75,
          "velocity": 0.8346456692913385
        },
        {
          "duration": 0.08333333333334281,
          "durationTicks": 20,
          "midi": 59,
          "name": "B3",
          "ticks": 43200,
          "time": 180,
          "velocity": 0.8346456692913385
        },
        {
          "duration": 0.08333333333334281,
          "durationTicks": 20,
          "midi": 44,
          "name": "G#2",
          "ticks": 43200,
          "time": 180,
          "velocity": 0.8346456692913385
        },
        {
          "duration": 0.11666666666667425,
          "durationTicks": 28,
          "midi": 36,
          "name": "C2",
          "ticks": 43200,
          "time": 180,
          "velocity": 0.8346456692913385
        },
        {
          "duration": 0.08333333333334281,
          "durationTicks": 20,
          "midi": 44,
          "name": "G#2",
          "ticks": 43260,
          "time": 180.25,
          "velocity": 0.8346456692913385
        },
        {
          "duration": 0.10833333333332007,
          "durationTicks": 26,
          "midi": 54,
          "name": "F#3",
          "ticks": 43260,
          "time": 180.25,
          "velocity": 0.5039370078740157
        },
        {
          "duration": 0.10833333333332007,
          "durationTicks": 26,
          "midi": 37,
          "name": "C#2",
          "ticks": 43320,
          "time": 180.5,
          "velocity": 0.5039370078740157
        },
        {
          "duration": 0.08333333333334281,
          "durationTicks": 20,
          "midi": 59,
          "name": "B3",
          "ticks": 43320,
          "time": 180.5,
          "velocity": 0.8346456692913385
        },
        {
          "duration": 0.10833333333332007,
          "durationTicks": 26,
          "midi": 40,
          "name": "E2",
          "ticks": 43320,
          "time": 180.5,
          "velocity": 0.5039370078740157
        },
        {
          "duration": 0.08333333333334281,
          "durationTicks": 20,
          "midi": 44,
          "name": "G#2",
          "ticks": 43320,
          "time": 180.5,
          "velocity": 0.8346456692913385
        },
        {
          "duration": 0.11666666666667425,
          "durationTicks": 28,
          "midi": 36,
          "name": "C2",
          "ticks": 43320,
          "time": 180.5,
          "velocity": 0.8346456692913385
        },
        {
          "duration": 0.08333333333334281,
          "durationTicks": 20,
          "midi": 44,
          "name": "G#2",
          "ticks": 43380,
          "time": 180.75,
          "velocity": 0.8346456692913385
        },
        {
          "duration": 0.11666666666667425,
          "durationTicks": 28,
          "midi": 36,
          "name": "C2",
          "ticks": 43380,
          "time": 180.75,
          "velocity": 0.8346456692913385
        },
        {
          "duration": 0.10833333333332007,
          "durationTicks": 26,
          "midi": 54,
          "name": "F#3",
          "ticks": 43380,
          "time": 180.75,
          "velocity": 0.5039370078740157
        },
        {
          "duration": 0.08333333333334281,
          "durationTicks": 20,
          "midi": 44,
          "name": "G#2",
          "ticks": 43440,
          "time": 181,
          "velocity": 0.8346456692913385
        },
        {
          "duration": 0.11666666666667425,
          "durationTicks": 28,
          "midi": 36,
          "name": "C2",
          "ticks": 43440,
          "time": 181,
          "velocity": 0.8346456692913385
        },
        {
          "duration": 0.08333333333334281,
          "durationTicks": 20,
          "midi": 59,
          "name": "B3",
          "ticks": 43440,
          "time": 181,
          "velocity": 0.8346456692913385
        },
        {
          "duration": 0.11666666666667425,
          "durationTicks": 28,
          "midi": 36,
          "name": "C2",
          "ticks": 43500,
          "time": 181.25,
          "velocity": 0.8346456692913385
        },
        {
          "duration": 0.10833333333332007,
          "durationTicks": 26,
          "midi": 40,
          "name": "E2",
          "ticks": 43500,
          "time": 181.25,
          "velocity": 0.5039370078740157
        },
        {
          "duration": 0.08333333333334281,
          "durationTicks": 20,
          "midi": 44,
          "name": "G#2",
          "ticks": 43500,
          "time": 181.25,
          "velocity": 0.8346456692913385
        },
        {
          "duration": 0.10833333333332007,
          "durationTicks": 26,
          "midi": 54,
          "name": "F#3",
          "ticks": 43500,
          "time": 181.25,
          "velocity": 0.5039370078740157
        },
        {
          "duration": 0.10833333333332007,
          "durationTicks": 26,
          "midi": 37,
          "name": "C#2",
          "ticks": 43500,
          "time": 181.25,
          "velocity": 0.5039370078740157
        },
        {
          "duration": 0.11666666666667425,
          "durationTicks": 28,
          "midi": 36,
          "name": "C2",
          "ticks": 43560,
          "time": 181.5,
          "velocity": 0.8346456692913385
        },
        {
          "duration": 0.08333333333334281,
          "durationTicks": 20,
          "midi": 59,
          "name": "B3",
          "ticks": 43560,
          "time": 181.5,
          "velocity": 0.8346456692913385
        },
        {
          "duration": 0.08333333333334281,
          "durationTicks": 20,
          "midi": 44,
          "name": "G#2",
          "ticks": 43560,
          "time": 181.5,
          "velocity": 0.8346456692913385
        },
        {
          "duration": 0.11666666666667425,
          "durationTicks": 28,
          "midi": 36,
          "name": "C2",
          "ticks": 43620,
          "time": 181.75,
          "velocity": 0.8346456692913385
        },
        {
          "duration": 0.08333333333334281,
          "durationTicks": 20,
          "midi": 44,
          "name": "G#2",
          "ticks": 43620,
          "time": 181.75,
          "velocity": 0.8346456692913385
        },
        {
          "duration": 0.10833333333332007,
          "durationTicks": 26,
          "midi": 54,
          "name": "F#3",
          "ticks": 43620,
          "time": 181.75,
          "velocity": 0.5039370078740157
        },
        {
          "duration": 0.08333333333334281,
          "durationTicks": 20,
          "midi": 59,
          "name": "B3",
          "ticks": 43680,
          "time": 182,
          "velocity": 0.8346456692913385
        },
        {
          "duration": 0.09999999999999432,
          "durationTicks": 24,
          "midi": 55,
          "name": "G3",
          "ticks": 43680,
          "time": 182,
          "velocity": 0.8346456692913385
        },
        {
          "duration": 0.08333333333334281,
          "durationTicks": 20,
          "midi": 44,
          "name": "G#2",
          "ticks": 43680,
          "time": 182,
          "velocity": 0.8346456692913385
        },
        {
          "duration": 0.11666666666667425,
          "durationTicks": 28,
          "midi": 36,
          "name": "C2",
          "ticks": 43680,
          "time": 182,
          "velocity": 0.8346456692913385
        },
        {
          "duration": 0.08333333333334281,
          "durationTicks": 20,
          "midi": 44,
          "name": "G#2",
          "ticks": 43740,
          "time": 182.25,
          "velocity": 0.8346456692913385
        },
        {
          "duration": 0.10833333333332007,
          "durationTicks": 26,
          "midi": 54,
          "name": "F#3",
          "ticks": 43740,
          "time": 182.25,
          "velocity": 0.5039370078740157
        },
        {
          "duration": 0.10833333333332007,
          "durationTicks": 26,
          "midi": 37,
          "name": "C#2",
          "ticks": 43800,
          "time": 182.5,
          "velocity": 0.5039370078740157
        },
        {
          "duration": 0.10833333333332007,
          "durationTicks": 26,
          "midi": 40,
          "name": "E2",
          "ticks": 43800,
          "time": 182.5,
          "velocity": 0.5039370078740157
        },
        {
          "duration": 0.11666666666667425,
          "durationTicks": 28,
          "midi": 36,
          "name": "C2",
          "ticks": 43800,
          "time": 182.5,
          "velocity": 0.8346456692913385
        },
        {
          "duration": 0.08333333333334281,
          "durationTicks": 20,
          "midi": 44,
          "name": "G#2",
          "ticks": 43800,
          "time": 182.5,
          "velocity": 0.8346456692913385
        },
        {
          "duration": 0.08333333333334281,
          "durationTicks": 20,
          "midi": 59,
          "name": "B3",
          "ticks": 43800,
          "time": 182.5,
          "velocity": 0.8346456692913385
        },
        {
          "duration": 0.10833333333332007,
          "durationTicks": 26,
          "midi": 54,
          "name": "F#3",
          "ticks": 43860,
          "time": 182.75,
          "velocity": 0.5039370078740157
        },
        {
          "duration": 0.08333333333334281,
          "durationTicks": 20,
          "midi": 44,
          "name": "G#2",
          "ticks": 43860,
          "time": 182.75,
          "velocity": 0.8346456692913385
        },
        {
          "duration": 0.11666666666667425,
          "durationTicks": 28,
          "midi": 36,
          "name": "C2",
          "ticks": 43860,
          "time": 182.75,
          "velocity": 0.8346456692913385
        },
        {
          "duration": 0.08333333333334281,
          "durationTicks": 20,
          "midi": 59,
          "name": "B3",
          "ticks": 43920,
          "time": 183,
          "velocity": 0.8346456692913385
        },
        {
          "duration": 0.11666666666667425,
          "durationTicks": 28,
          "midi": 36,
          "name": "C2",
          "ticks": 43920,
          "time": 183,
          "velocity": 0.8346456692913385
        },
        {
          "duration": 0.08333333333334281,
          "durationTicks": 20,
          "midi": 44,
          "name": "G#2",
          "ticks": 43920,
          "time": 183,
          "velocity": 0.8346456692913385
        },
        {
          "duration": 0.11666666666667425,
          "durationTicks": 28,
          "midi": 36,
          "name": "C2",
          "ticks": 43980,
          "time": 183.25,
          "velocity": 0.8346456692913385
        },
        {
          "duration": 0.10833333333332007,
          "durationTicks": 26,
          "midi": 37,
          "name": "C#2",
          "ticks": 43980,
          "time": 183.25,
          "velocity": 0.5039370078740157
        },
        {
          "duration": 0.10833333333332007,
          "durationTicks": 26,
          "midi": 54,
          "name": "F#3",
          "ticks": 43980,
          "time": 183.25,
          "velocity": 0.5039370078740157
        },
        {
          "duration": 0.10833333333332007,
          "durationTicks": 26,
          "midi": 40,
          "name": "E2",
          "ticks": 43980,
          "time": 183.25,
          "velocity": 0.5039370078740157
        },
        {
          "duration": 0.08333333333334281,
          "durationTicks": 20,
          "midi": 44,
          "name": "G#2",
          "ticks": 43980,
          "time": 183.25,
          "velocity": 0.8346456692913385
        },
        {
          "duration": 0.11666666666667425,
          "durationTicks": 28,
          "midi": 36,
          "name": "C2",
          "ticks": 44040,
          "time": 183.5,
          "velocity": 0.8346456692913385
        },
        {
          "duration": 0.08333333333334281,
          "durationTicks": 20,
          "midi": 44,
          "name": "G#2",
          "ticks": 44040,
          "time": 183.5,
          "velocity": 0.8346456692913385
        },
        {
          "duration": 0.08333333333334281,
          "durationTicks": 20,
          "midi": 59,
          "name": "B3",
          "ticks": 44040,
          "time": 183.5,
          "velocity": 0.8346456692913385
        },
        {
          "duration": 0.08333333333334281,
          "durationTicks": 20,
          "midi": 44,
          "name": "G#2",
          "ticks": 44100,
          "time": 183.75,
          "velocity": 0.8346456692913385
        },
        {
          "duration": 0.10833333333332007,
          "durationTicks": 26,
          "midi": 54,
          "name": "F#3",
          "ticks": 44100,
          "time": 183.75,
          "velocity": 0.5039370078740157
        },
        {
          "duration": 0.11666666666667425,
          "durationTicks": 28,
          "midi": 36,
          "name": "C2",
          "ticks": 44100,
          "time": 183.75,
          "velocity": 0.8346456692913385
        },
        {
          "duration": 0.08333333333334281,
          "durationTicks": 20,
          "midi": 44,
          "name": "G#2",
          "ticks": 44160,
          "time": 184,
          "velocity": 0.8346456692913385
        },
        {
          "duration": 0.08333333333334281,
          "durationTicks": 20,
          "midi": 59,
          "name": "B3",
          "ticks": 44160,
          "time": 184,
          "velocity": 0.8346456692913385
        },
        {
          "duration": 0.11666666666667425,
          "durationTicks": 28,
          "midi": 36,
          "name": "C2",
          "ticks": 44160,
          "time": 184,
          "velocity": 0.8346456692913385
        },
        {
          "duration": 0.10833333333332007,
          "durationTicks": 26,
          "midi": 54,
          "name": "F#3",
          "ticks": 44220,
          "time": 184.25,
          "velocity": 0.5039370078740157
        },
        {
          "duration": 0.08333333333334281,
          "durationTicks": 20,
          "midi": 44,
          "name": "G#2",
          "ticks": 44220,
          "time": 184.25,
          "velocity": 0.8346456692913385
        },
        {
          "duration": 0.10833333333332007,
          "durationTicks": 26,
          "midi": 37,
          "name": "C#2",
          "ticks": 44280,
          "time": 184.5,
          "velocity": 0.5039370078740157
        },
        {
          "duration": 0.10833333333332007,
          "durationTicks": 26,
          "midi": 40,
          "name": "E2",
          "ticks": 44280,
          "time": 184.5,
          "velocity": 0.5039370078740157
        },
        {
          "duration": 0.11666666666667425,
          "durationTicks": 28,
          "midi": 36,
          "name": "C2",
          "ticks": 44280,
          "time": 184.5,
          "velocity": 0.8346456692913385
        },
        {
          "duration": 0.08333333333334281,
          "durationTicks": 20,
          "midi": 59,
          "name": "B3",
          "ticks": 44280,
          "time": 184.5,
          "velocity": 0.8346456692913385
        },
        {
          "duration": 0.08333333333334281,
          "durationTicks": 20,
          "midi": 44,
          "name": "G#2",
          "ticks": 44280,
          "time": 184.5,
          "velocity": 0.8346456692913385
        },
        {
          "duration": 0.08333333333334281,
          "durationTicks": 20,
          "midi": 44,
          "name": "G#2",
          "ticks": 44340,
          "time": 184.75,
          "velocity": 0.8346456692913385
        },
        {
          "duration": 0.11666666666667425,
          "durationTicks": 28,
          "midi": 36,
          "name": "C2",
          "ticks": 44340,
          "time": 184.75,
          "velocity": 0.8346456692913385
        },
        {
          "duration": 0.10833333333332007,
          "durationTicks": 26,
          "midi": 54,
          "name": "F#3",
          "ticks": 44340,
          "time": 184.75,
          "velocity": 0.5039370078740157
        },
        {
          "duration": 0.08333333333334281,
          "durationTicks": 20,
          "midi": 59,
          "name": "B3",
          "ticks": 44400,
          "time": 185,
          "velocity": 0.8346456692913385
        },
        {
          "duration": 0.11666666666667425,
          "durationTicks": 28,
          "midi": 36,
          "name": "C2",
          "ticks": 44400,
          "time": 185,
          "velocity": 0.8346456692913385
        },
        {
          "duration": 0.08333333333334281,
          "durationTicks": 20,
          "midi": 44,
          "name": "G#2",
          "ticks": 44400,
          "time": 185,
          "velocity": 0.8346456692913385
        },
        {
          "duration": 0.08333333333334281,
          "durationTicks": 20,
          "midi": 44,
          "name": "G#2",
          "ticks": 44460,
          "time": 185.25,
          "velocity": 0.8346456692913385
        },
        {
          "duration": 0.11666666666667425,
          "durationTicks": 28,
          "midi": 36,
          "name": "C2",
          "ticks": 44460,
          "time": 185.25,
          "velocity": 0.8346456692913385
        },
        {
          "duration": 0.10833333333332007,
          "durationTicks": 26,
          "midi": 54,
          "name": "F#3",
          "ticks": 44460,
          "time": 185.25,
          "velocity": 0.5039370078740157
        },
        {
          "duration": 0.10833333333332007,
          "durationTicks": 26,
          "midi": 37,
          "name": "C#2",
          "ticks": 44460,
          "time": 185.25,
          "velocity": 0.5039370078740157
        },
        {
          "duration": 0.10833333333332007,
          "durationTicks": 26,
          "midi": 40,
          "name": "E2",
          "ticks": 44460,
          "time": 185.25,
          "velocity": 0.5039370078740157
        },
        {
          "duration": 0.08333333333334281,
          "durationTicks": 20,
          "midi": 59,
          "name": "B3",
          "ticks": 44520,
          "time": 185.5,
          "velocity": 0.8346456692913385
        },
        {
          "duration": 0.11666666666667425,
          "durationTicks": 28,
          "midi": 36,
          "name": "C2",
          "ticks": 44520,
          "time": 185.5,
          "velocity": 0.8346456692913385
        },
        {
          "duration": 0.08333333333334281,
          "durationTicks": 20,
          "midi": 44,
          "name": "G#2",
          "ticks": 44520,
          "time": 185.5,
          "velocity": 0.8346456692913385
        },
        {
          "duration": 0.08333333333334281,
          "durationTicks": 20,
          "midi": 44,
          "name": "G#2",
          "ticks": 44580,
          "time": 185.75,
          "velocity": 0.8346456692913385
        },
        {
          "duration": 0.11666666666667425,
          "durationTicks": 28,
          "midi": 36,
          "name": "C2",
          "ticks": 44580,
          "time": 185.75,
          "velocity": 0.8346456692913385
        },
        {
          "duration": 0.10833333333332007,
          "durationTicks": 26,
          "midi": 54,
          "name": "F#3",
          "ticks": 44580,
          "time": 185.75,
          "velocity": 0.5039370078740157
        },
        {
          "duration": 0.08333333333334281,
          "durationTicks": 20,
          "midi": 44,
          "name": "G#2",
          "ticks": 44640,
          "time": 186,
          "velocity": 0.8346456692913385
        },
        {
          "duration": 0.11666666666667425,
          "durationTicks": 28,
          "midi": 36,
          "name": "C2",
          "ticks": 44640,
          "time": 186,
          "velocity": 0.8346456692913385
        },
        {
          "duration": 0.08333333333334281,
          "durationTicks": 20,
          "midi": 59,
          "name": "B3",
          "ticks": 44640,
          "time": 186,
          "velocity": 0.8346456692913385
        },
        {
          "duration": 0.10833333333332007,
          "durationTicks": 26,
          "midi": 54,
          "name": "F#3",
          "ticks": 44700,
          "time": 186.25,
          "velocity": 0.5039370078740157
        },
        {
          "duration": 0.08333333333334281,
          "durationTicks": 20,
          "midi": 44,
          "name": "G#2",
          "ticks": 44700,
          "time": 186.25,
          "velocity": 0.8346456692913385
        },
        {
          "duration": 0.11666666666667425,
          "durationTicks": 28,
          "midi": 36,
          "name": "C2",
          "ticks": 44760,
          "time": 186.5,
          "velocity": 0.8346456692913385
        },
        {
          "duration": 0.10833333333332007,
          "durationTicks": 26,
          "midi": 37,
          "name": "C#2",
          "ticks": 44760,
          "time": 186.5,
          "velocity": 0.5039370078740157
        },
        {
          "duration": 0.08333333333334281,
          "durationTicks": 20,
          "midi": 59,
          "name": "B3",
          "ticks": 44760,
          "time": 186.5,
          "velocity": 0.8346456692913385
        },
        {
          "duration": 0.08333333333334281,
          "durationTicks": 20,
          "midi": 44,
          "name": "G#2",
          "ticks": 44760,
          "time": 186.5,
          "velocity": 0.8346456692913385
        },
        {
          "duration": 0.10833333333332007,
          "durationTicks": 26,
          "midi": 40,
          "name": "E2",
          "ticks": 44760,
          "time": 186.5,
          "velocity": 0.5039370078740157
        },
        {
          "duration": 0.11666666666667425,
          "durationTicks": 28,
          "midi": 36,
          "name": "C2",
          "ticks": 44820,
          "time": 186.75,
          "velocity": 0.8346456692913385
        },
        {
          "duration": 0.10833333333332007,
          "durationTicks": 26,
          "midi": 54,
          "name": "F#3",
          "ticks": 44820,
          "time": 186.75,
          "velocity": 0.5039370078740157
        },
        {
          "duration": 0.08333333333334281,
          "durationTicks": 20,
          "midi": 44,
          "name": "G#2",
          "ticks": 44820,
          "time": 186.75,
          "velocity": 0.8346456692913385
        },
        {
          "duration": 0.09999999999999432,
          "durationTicks": 24,
          "midi": 59,
          "name": "B3",
          "ticks": 44880,
          "time": 187,
          "velocity": 0.8346456692913385
        },
        {
          "duration": 0.08333333333334281,
          "durationTicks": 20,
          "midi": 44,
          "name": "G#2",
          "ticks": 44880,
          "time": 187,
          "velocity": 0.8346456692913385
        },
        {
          "duration": 0.11666666666667425,
          "durationTicks": 28,
          "midi": 36,
          "name": "C2",
          "ticks": 44880,
          "time": 187,
          "velocity": 0.8346456692913385
        },
        {
          "duration": 0.08333333333334281,
          "durationTicks": 20,
          "midi": 44,
          "name": "G#2",
          "ticks": 44940,
          "time": 187.25,
          "velocity": 0.8346456692913385
        },
        {
          "duration": 0.11666666666667425,
          "durationTicks": 28,
          "midi": 36,
          "name": "C2",
          "ticks": 44940,
          "time": 187.25,
          "velocity": 0.8346456692913385
        },
        {
          "duration": 0.10833333333332007,
          "durationTicks": 26,
          "midi": 40,
          "name": "E2",
          "ticks": 44940,
          "time": 187.25,
          "velocity": 0.5039370078740157
        },
        {
          "duration": 0.10833333333332007,
          "durationTicks": 26,
          "midi": 37,
          "name": "C#2",
          "ticks": 44940,
          "time": 187.25,
          "velocity": 0.5039370078740157
        },
        {
          "duration": 0.10833333333332007,
          "durationTicks": 26,
          "midi": 54,
          "name": "F#3",
          "ticks": 44940,
          "time": 187.25,
          "velocity": 0.5039370078740157
        },
        {
          "duration": 0.08333333333334281,
          "durationTicks": 20,
          "midi": 44,
          "name": "G#2",
          "ticks": 45000,
          "time": 187.5,
          "velocity": 0.8346456692913385
        },
        {
          "duration": 0.09999999999999432,
          "durationTicks": 24,
          "midi": 59,
          "name": "B3",
          "ticks": 45000,
          "time": 187.5,
          "velocity": 0.8346456692913385
        },
        {
          "duration": 0.11666666666667425,
          "durationTicks": 28,
          "midi": 36,
          "name": "C2",
          "ticks": 45000,
          "time": 187.5,
          "velocity": 0.8346456692913385
        },
        {
          "duration": 0.08333333333334281,
          "durationTicks": 20,
          "midi": 44,
          "name": "G#2",
          "ticks": 45060,
          "time": 187.75,
          "velocity": 0.8346456692913385
        },
        {
          "duration": 0.11666666666667425,
          "durationTicks": 28,
          "midi": 36,
          "name": "C2",
          "ticks": 45060,
          "time": 187.75,
          "velocity": 0.8346456692913385
        },
        {
          "duration": 0.10833333333332007,
          "durationTicks": 26,
          "midi": 54,
          "name": "F#3",
          "ticks": 45060,
          "time": 187.75,
          "velocity": 0.5039370078740157
        },
        {
          "duration": 0.08333333333334281,
          "durationTicks": 20,
          "midi": 44,
          "name": "G#2",
          "ticks": 45120,
          "time": 188,
          "velocity": 0.8346456692913385
        },
        {
          "duration": 0.09999999999999432,
          "durationTicks": 24,
          "midi": 59,
          "name": "B3",
          "ticks": 45120,
          "time": 188,
          "velocity": 0.8346456692913385
        },
        {
          "duration": 0.11666666666667425,
          "durationTicks": 28,
          "midi": 36,
          "name": "C2",
          "ticks": 45120,
          "time": 188,
          "velocity": 0.8346456692913385
        },
        {
          "duration": 0.10833333333332007,
          "durationTicks": 26,
          "midi": 54,
          "name": "F#3",
          "ticks": 45180,
          "time": 188.25,
          "velocity": 0.5039370078740157
        },
        {
          "duration": 0.08333333333334281,
          "durationTicks": 20,
          "midi": 44,
          "name": "G#2",
          "ticks": 45180,
          "time": 188.25,
          "velocity": 0.8346456692913385
        },
        {
          "duration": 0.11666666666667425,
          "durationTicks": 28,
          "midi": 36,
          "name": "C2",
          "ticks": 45240,
          "time": 188.5,
          "velocity": 0.8346456692913385
        },
        {
          "duration": 0.10833333333332007,
          "durationTicks": 26,
          "midi": 37,
          "name": "C#2",
          "ticks": 45240,
          "time": 188.5,
          "velocity": 0.5039370078740157
        },
        {
          "duration": 0.08333333333334281,
          "durationTicks": 20,
          "midi": 44,
          "name": "G#2",
          "ticks": 45240,
          "time": 188.5,
          "velocity": 0.8346456692913385
        },
        {
          "duration": 0.09999999999999432,
          "durationTicks": 24,
          "midi": 59,
          "name": "B3",
          "ticks": 45240,
          "time": 188.5,
          "velocity": 0.8346456692913385
        },
        {
          "duration": 0.10833333333332007,
          "durationTicks": 26,
          "midi": 40,
          "name": "E2",
          "ticks": 45240,
          "time": 188.5,
          "velocity": 0.5039370078740157
        },
        {
          "duration": 0.11666666666667425,
          "durationTicks": 28,
          "midi": 36,
          "name": "C2",
          "ticks": 45300,
          "time": 188.75,
          "velocity": 0.8346456692913385
        },
        {
          "duration": 0.10833333333332007,
          "durationTicks": 26,
          "midi": 54,
          "name": "F#3",
          "ticks": 45300,
          "time": 188.75,
          "velocity": 0.5039370078740157
        },
        {
          "duration": 0.08333333333334281,
          "durationTicks": 20,
          "midi": 44,
          "name": "G#2",
          "ticks": 45300,
          "time": 188.75,
          "velocity": 0.8346456692913385
        },
        {
          "duration": 0.11666666666667425,
          "durationTicks": 28,
          "midi": 36,
          "name": "C2",
          "ticks": 45360,
          "time": 189,
          "velocity": 0.8346456692913385
        },
        {
          "duration": 0.08333333333334281,
          "durationTicks": 20,
          "midi": 59,
          "name": "B3",
          "ticks": 45360,
          "time": 189,
          "velocity": 0.8346456692913385
        },
        {
          "duration": 0.08333333333334281,
          "durationTicks": 20,
          "midi": 44,
          "name": "G#2",
          "ticks": 45360,
          "time": 189,
          "velocity": 0.8346456692913385
        },
        {
          "duration": 0.10833333333332007,
          "durationTicks": 26,
          "midi": 54,
          "name": "F#3",
          "ticks": 45420,
          "time": 189.25,
          "velocity": 0.5039370078740157
        },
        {
          "duration": 0.11666666666667425,
          "durationTicks": 28,
          "midi": 36,
          "name": "C2",
          "ticks": 45420,
          "time": 189.25,
          "velocity": 0.8346456692913385
        },
        {
          "duration": 0.10833333333332007,
          "durationTicks": 26,
          "midi": 40,
          "name": "E2",
          "ticks": 45420,
          "time": 189.25,
          "velocity": 0.5039370078740157
        },
        {
          "duration": 0.08333333333334281,
          "durationTicks": 20,
          "midi": 44,
          "name": "G#2",
          "ticks": 45420,
          "time": 189.25,
          "velocity": 0.8346456692913385
        },
        {
          "duration": 0.10833333333332007,
          "durationTicks": 26,
          "midi": 37,
          "name": "C#2",
          "ticks": 45420,
          "time": 189.25,
          "velocity": 0.5039370078740157
        },
        {
          "duration": 0.11666666666667425,
          "durationTicks": 28,
          "midi": 36,
          "name": "C2",
          "ticks": 45480,
          "time": 189.5,
          "velocity": 0.8346456692913385
        },
        {
          "duration": 0.08333333333334281,
          "durationTicks": 20,
          "midi": 59,
          "name": "B3",
          "ticks": 45480,
          "time": 189.5,
          "velocity": 0.8346456692913385
        },
        {
          "duration": 0.08333333333334281,
          "durationTicks": 20,
          "midi": 44,
          "name": "G#2",
          "ticks": 45480,
          "time": 189.5,
          "velocity": 0.8346456692913385
        },
        {
          "duration": 0.10833333333332007,
          "durationTicks": 26,
          "midi": 54,
          "name": "F#3",
          "ticks": 45540,
          "time": 189.75,
          "velocity": 0.5039370078740157
        },
        {
          "duration": 0.11666666666667425,
          "durationTicks": 28,
          "midi": 36,
          "name": "C2",
          "ticks": 45540,
          "time": 189.75,
          "velocity": 0.8346456692913385
        },
        {
          "duration": 0.08333333333334281,
          "durationTicks": 20,
          "midi": 44,
          "name": "G#2",
          "ticks": 45540,
          "time": 189.75,
          "velocity": 0.8346456692913385
        },
        {
          "duration": 0.08333333333334281,
          "durationTicks": 20,
          "midi": 44,
          "name": "G#2",
          "ticks": 45600,
          "time": 190,
          "velocity": 0.8346456692913385
        },
        {
          "duration": 0.11666666666667425,
          "durationTicks": 28,
          "midi": 36,
          "name": "C2",
          "ticks": 45600,
          "time": 190,
          "velocity": 0.8346456692913385
        },
        {
          "duration": 0.08333333333334281,
          "durationTicks": 20,
          "midi": 55,
          "name": "G3",
          "ticks": 45600,
          "time": 190,
          "velocity": 0.8346456692913385
        },
        {
          "duration": 0.08333333333334281,
          "durationTicks": 20,
          "midi": 59,
          "name": "B3",
          "ticks": 45600,
          "time": 190,
          "velocity": 0.8346456692913385
        },
        {
          "duration": 0.08333333333334281,
          "durationTicks": 20,
          "midi": 44,
          "name": "G#2",
          "ticks": 45660,
          "time": 190.25,
          "velocity": 0.8346456692913385
        },
        {
          "duration": 0.10833333333332007,
          "durationTicks": 26,
          "midi": 54,
          "name": "F#3",
          "ticks": 45660,
          "time": 190.25,
          "velocity": 0.5039370078740157
        },
        {
          "duration": 0.08333333333334281,
          "durationTicks": 20,
          "midi": 44,
          "name": "G#2",
          "ticks": 45720,
          "time": 190.5,
          "velocity": 0.8346456692913385
        },
        {
          "duration": 0.08333333333334281,
          "durationTicks": 20,
          "midi": 59,
          "name": "B3",
          "ticks": 45720,
          "time": 190.5,
          "velocity": 0.8346456692913385
        },
        {
          "duration": 0.10833333333332007,
          "durationTicks": 26,
          "midi": 40,
          "name": "E2",
          "ticks": 45720,
          "time": 190.5,
          "velocity": 0.5039370078740157
        },
        {
          "duration": 0.10833333333332007,
          "durationTicks": 26,
          "midi": 37,
          "name": "C#2",
          "ticks": 45720,
          "time": 190.5,
          "velocity": 0.5039370078740157
        },
        {
          "duration": 0.11666666666667425,
          "durationTicks": 28,
          "midi": 36,
          "name": "C2",
          "ticks": 45720,
          "time": 190.5,
          "velocity": 0.8346456692913385
        },
        {
          "duration": 0.08333333333334281,
          "durationTicks": 20,
          "midi": 44,
          "name": "G#2",
          "ticks": 45780,
          "time": 190.75,
          "velocity": 0.8346456692913385
        },
        {
          "duration": 0.11666666666667425,
          "durationTicks": 28,
          "midi": 36,
          "name": "C2",
          "ticks": 45780,
          "time": 190.75,
          "velocity": 0.8346456692913385
        },
        {
          "duration": 0.10833333333332007,
          "durationTicks": 26,
          "midi": 54,
          "name": "F#3",
          "ticks": 45780,
          "time": 190.75,
          "velocity": 0.5039370078740157
        },
        {
          "duration": 0.08333333333334281,
          "durationTicks": 20,
          "midi": 44,
          "name": "G#2",
          "ticks": 45840,
          "time": 191,
          "velocity": 0.8346456692913385
        },
        {
          "duration": 0.11666666666667425,
          "durationTicks": 28,
          "midi": 36,
          "name": "C2",
          "ticks": 45840,
          "time": 191,
          "velocity": 0.8346456692913385
        },
        {
          "duration": 0.08333333333334281,
          "durationTicks": 20,
          "midi": 59,
          "name": "B3",
          "ticks": 45840,
          "time": 191,
          "velocity": 0.8346456692913385
        },
        {
          "duration": 0.10833333333332007,
          "durationTicks": 26,
          "midi": 37,
          "name": "C#2",
          "ticks": 45900,
          "time": 191.25,
          "velocity": 0.5039370078740157
        },
        {
          "duration": 0.10833333333332007,
          "durationTicks": 26,
          "midi": 54,
          "name": "F#3",
          "ticks": 45900,
          "time": 191.25,
          "velocity": 0.5039370078740157
        },
        {
          "duration": 0.10833333333332007,
          "durationTicks": 26,
          "midi": 40,
          "name": "E2",
          "ticks": 45900,
          "time": 191.25,
          "velocity": 0.5039370078740157
        },
        {
          "duration": 0.11666666666667425,
          "durationTicks": 28,
          "midi": 36,
          "name": "C2",
          "ticks": 45900,
          "time": 191.25,
          "velocity": 0.8346456692913385
        },
        {
          "duration": 0.08333333333334281,
          "durationTicks": 20,
          "midi": 44,
          "name": "G#2",
          "ticks": 45900,
          "time": 191.25,
          "velocity": 0.8346456692913385
        },
        {
          "duration": 0.11666666666667425,
          "durationTicks": 28,
          "midi": 36,
          "name": "C2",
          "ticks": 45960,
          "time": 191.5,
          "velocity": 0.8346456692913385
        },
        {
          "duration": 0.08333333333334281,
          "durationTicks": 20,
          "midi": 44,
          "name": "G#2",
          "ticks": 45960,
          "time": 191.5,
          "velocity": 0.8346456692913385
        },
        {
          "duration": 0.08333333333334281,
          "durationTicks": 20,
          "midi": 59,
          "name": "B3",
          "ticks": 45960,
          "time": 191.5,
          "velocity": 0.8346456692913385
        },
        {
          "duration": 0.08333333333334281,
          "durationTicks": 20,
          "midi": 44,
          "name": "G#2",
          "ticks": 46020,
          "time": 191.75,
          "velocity": 0.8346456692913385
        },
        {
          "duration": 0.10833333333332007,
          "durationTicks": 26,
          "midi": 54,
          "name": "F#3",
          "ticks": 46020,
          "time": 191.75,
          "velocity": 0.5039370078740157
        },
        {
          "duration": 0.11666666666667425,
          "durationTicks": 28,
          "midi": 36,
          "name": "C2",
          "ticks": 46020,
          "time": 191.75,
          "velocity": 0.8346456692913385
        },
        {
          "duration": 0.11666666666667425,
          "durationTicks": 28,
          "midi": 36,
          "name": "C2",
          "ticks": 46080,
          "time": 192,
          "velocity": 0.8346456692913385
        },
        {
          "duration": 0.08333333333334281,
          "durationTicks": 20,
          "midi": 59,
          "name": "B3",
          "ticks": 46080,
          "time": 192,
          "velocity": 0.8346456692913385
        },
        {
          "duration": 0.08333333333334281,
          "durationTicks": 20,
          "midi": 44,
          "name": "G#2",
          "ticks": 46080,
          "time": 192,
          "velocity": 0.8346456692913385
        },
        {
          "duration": 0.08333333333334281,
          "durationTicks": 20,
          "midi": 44,
          "name": "G#2",
          "ticks": 46140,
          "time": 192.25,
          "velocity": 0.8346456692913385
        },
        {
          "duration": 0.10833333333332007,
          "durationTicks": 26,
          "midi": 54,
          "name": "F#3",
          "ticks": 46140,
          "time": 192.25,
          "velocity": 0.5039370078740157
        },
        {
          "duration": 0.11666666666667425,
          "durationTicks": 28,
          "midi": 36,
          "name": "C2",
          "ticks": 46200,
          "time": 192.5,
          "velocity": 0.8346456692913385
        },
        {
          "duration": 0.08333333333334281,
          "durationTicks": 20,
          "midi": 59,
          "name": "B3",
          "ticks": 46200,
          "time": 192.5,
          "velocity": 0.8346456692913385
        },
        {
          "duration": 0.10833333333332007,
          "durationTicks": 26,
          "midi": 37,
          "name": "C#2",
          "ticks": 46200,
          "time": 192.5,
          "velocity": 0.5039370078740157
        },
        {
          "duration": 0.08333333333334281,
          "durationTicks": 20,
          "midi": 44,
          "name": "G#2",
          "ticks": 46200,
          "time": 192.5,
          "velocity": 0.8346456692913385
        },
        {
          "duration": 0.10833333333332007,
          "durationTicks": 26,
          "midi": 40,
          "name": "E2",
          "ticks": 46200,
          "time": 192.5,
          "velocity": 0.5039370078740157
        },
        {
          "duration": 0.10833333333332007,
          "durationTicks": 26,
          "midi": 54,
          "name": "F#3",
          "ticks": 46260,
          "time": 192.75,
          "velocity": 0.5039370078740157
        },
        {
          "duration": 0.11666666666667425,
          "durationTicks": 28,
          "midi": 36,
          "name": "C2",
          "ticks": 46260,
          "time": 192.75,
          "velocity": 0.8346456692913385
        },
        {
          "duration": 0.08333333333334281,
          "durationTicks": 20,
          "midi": 44,
          "name": "G#2",
          "ticks": 46260,
          "time": 192.75,
          "velocity": 0.8346456692913385
        },
        {
          "duration": 0.08333333333334281,
          "durationTicks": 20,
          "midi": 44,
          "name": "G#2",
          "ticks": 46320,
          "time": 193,
          "velocity": 0.8346456692913385
        },
        {
          "duration": 0.11666666666667425,
          "durationTicks": 28,
          "midi": 36,
          "name": "C2",
          "ticks": 46320,
          "time": 193,
          "velocity": 0.8346456692913385
        },
        {
          "duration": 0.08333333333334281,
          "durationTicks": 20,
          "midi": 59,
          "name": "B3",
          "ticks": 46320,
          "time": 193,
          "velocity": 0.8346456692913385
        },
        {
          "duration": 0.10833333333332007,
          "durationTicks": 26,
          "midi": 40,
          "name": "E2",
          "ticks": 46380,
          "time": 193.25,
          "velocity": 0.5039370078740157
        },
        {
          "duration": 0.11666666666667425,
          "durationTicks": 28,
          "midi": 36,
          "name": "C2",
          "ticks": 46380,
          "time": 193.25,
          "velocity": 0.8346456692913385
        },
        {
          "duration": 0.10833333333332007,
          "durationTicks": 26,
          "midi": 37,
          "name": "C#2",
          "ticks": 46380,
          "time": 193.25,
          "velocity": 0.5039370078740157
        },
        {
          "duration": 0.08333333333334281,
          "durationTicks": 20,
          "midi": 44,
          "name": "G#2",
          "ticks": 46380,
          "time": 193.25,
          "velocity": 0.8346456692913385
        },
        {
          "duration": 0.10833333333332007,
          "durationTicks": 26,
          "midi": 54,
          "name": "F#3",
          "ticks": 46380,
          "time": 193.25,
          "velocity": 0.5039370078740157
        },
        {
          "duration": 0.08333333333334281,
          "durationTicks": 20,
          "midi": 44,
          "name": "G#2",
          "ticks": 46440,
          "time": 193.5,
          "velocity": 0.8346456692913385
        },
        {
          "duration": 0.08333333333334281,
          "durationTicks": 20,
          "midi": 59,
          "name": "B3",
          "ticks": 46440,
          "time": 193.5,
          "velocity": 0.8346456692913385
        },
        {
          "duration": 0.11666666666667425,
          "durationTicks": 28,
          "midi": 36,
          "name": "C2",
          "ticks": 46440,
          "time": 193.5,
          "velocity": 0.8346456692913385
        },
        {
          "duration": 0.08333333333334281,
          "durationTicks": 20,
          "midi": 44,
          "name": "G#2",
          "ticks": 46500,
          "time": 193.75,
          "velocity": 0.8346456692913385
        },
        {
          "duration": 0.10833333333332007,
          "durationTicks": 26,
          "midi": 54,
          "name": "F#3",
          "ticks": 46500,
          "time": 193.75,
          "velocity": 0.5039370078740157
        },
        {
          "duration": 0.11666666666667425,
          "durationTicks": 28,
          "midi": 36,
          "name": "C2",
          "ticks": 46500,
          "time": 193.75,
          "velocity": 0.8346456692913385
        },
        {
          "duration": 0.08333333333334281,
          "durationTicks": 20,
          "midi": 44,
          "name": "G#2",
          "ticks": 46560,
          "time": 194,
          "velocity": 0.8346456692913385
        },
        {
          "duration": 0.11666666666667425,
          "durationTicks": 28,
          "midi": 36,
          "name": "C2",
          "ticks": 46560,
          "time": 194,
          "velocity": 0.8346456692913385
        },
        {
          "duration": 0.08333333333334281,
          "durationTicks": 20,
          "midi": 59,
          "name": "B3",
          "ticks": 46560,
          "time": 194,
          "velocity": 0.8346456692913385
        },
        {
          "duration": 0.10833333333332007,
          "durationTicks": 26,
          "midi": 54,
          "name": "F#3",
          "ticks": 46620,
          "time": 194.25,
          "velocity": 0.5039370078740157
        },
        {
          "duration": 0.08333333333334281,
          "durationTicks": 20,
          "midi": 44,
          "name": "G#2",
          "ticks": 46620,
          "time": 194.25,
          "velocity": 0.8346456692913385
        },
        {
          "duration": 0.08333333333334281,
          "durationTicks": 20,
          "midi": 59,
          "name": "B3",
          "ticks": 46680,
          "time": 194.5,
          "velocity": 0.8346456692913385
        },
        {
          "duration": 0.10833333333332007,
          "durationTicks": 26,
          "midi": 40,
          "name": "E2",
          "ticks": 46680,
          "time": 194.5,
          "velocity": 0.5039370078740157
        },
        {
          "duration": 0.08333333333334281,
          "durationTicks": 20,
          "midi": 44,
          "name": "G#2",
          "ticks": 46680,
          "time": 194.5,
          "velocity": 0.8346456692913385
        },
        {
          "duration": 0.10833333333332007,
          "durationTicks": 26,
          "midi": 37,
          "name": "C#2",
          "ticks": 46680,
          "time": 194.5,
          "velocity": 0.5039370078740157
        },
        {
          "duration": 0.11666666666667425,
          "durationTicks": 28,
          "midi": 36,
          "name": "C2",
          "ticks": 46680,
          "time": 194.5,
          "velocity": 0.8346456692913385
        },
        {
          "duration": 0.11666666666667425,
          "durationTicks": 28,
          "midi": 36,
          "name": "C2",
          "ticks": 46740,
          "time": 194.75,
          "velocity": 0.8346456692913385
        },
        {
          "duration": 0.10833333333332007,
          "durationTicks": 26,
          "midi": 54,
          "name": "F#3",
          "ticks": 46740,
          "time": 194.75,
          "velocity": 0.5039370078740157
        },
        {
          "duration": 0.08333333333334281,
          "durationTicks": 20,
          "midi": 44,
          "name": "G#2",
          "ticks": 46740,
          "time": 194.75,
          "velocity": 0.8346456692913385
        },
        {
          "duration": 0.08333333333334281,
          "durationTicks": 20,
          "midi": 44,
          "name": "G#2",
          "ticks": 46800,
          "time": 195,
          "velocity": 0.8346456692913385
        },
        {
          "duration": 0.08333333333334281,
          "durationTicks": 20,
          "midi": 59,
          "name": "B3",
          "ticks": 46800,
          "time": 195,
          "velocity": 0.8346456692913385
        },
        {
          "duration": 0.11666666666667425,
          "durationTicks": 28,
          "midi": 36,
          "name": "C2",
          "ticks": 46800,
          "time": 195,
          "velocity": 0.8346456692913385
        },
        {
          "duration": 0.10833333333332007,
          "durationTicks": 26,
          "midi": 40,
          "name": "E2",
          "ticks": 46860,
          "time": 195.25,
          "velocity": 0.5039370078740157
        },
        {
          "duration": 0.10833333333332007,
          "durationTicks": 26,
          "midi": 37,
          "name": "C#2",
          "ticks": 46860,
          "time": 195.25,
          "velocity": 0.5039370078740157
        },
        {
          "duration": 0.08333333333334281,
          "durationTicks": 20,
          "midi": 44,
          "name": "G#2",
          "ticks": 46860,
          "time": 195.25,
          "velocity": 0.8346456692913385
        },
        {
          "duration": 0.10833333333332007,
          "durationTicks": 26,
          "midi": 54,
          "name": "F#3",
          "ticks": 46860,
          "time": 195.25,
          "velocity": 0.5039370078740157
        },
        {
          "duration": 0.11666666666667425,
          "durationTicks": 28,
          "midi": 36,
          "name": "C2",
          "ticks": 46860,
          "time": 195.25,
          "velocity": 0.8346456692913385
        },
        {
          "duration": 0.11666666666667425,
          "durationTicks": 28,
          "midi": 36,
          "name": "C2",
          "ticks": 46920,
          "time": 195.5,
          "velocity": 0.8346456692913385
        },
        {
          "duration": 0.08333333333334281,
          "durationTicks": 20,
          "midi": 59,
          "name": "B3",
          "ticks": 46920,
          "time": 195.5,
          "velocity": 0.8346456692913385
        },
        {
          "duration": 0.08333333333334281,
          "durationTicks": 20,
          "midi": 44,
          "name": "G#2",
          "ticks": 46920,
          "time": 195.5,
          "velocity": 0.8346456692913385
        },
        {
          "duration": 0.10833333333332007,
          "durationTicks": 26,
          "midi": 54,
          "name": "F#3",
          "ticks": 46980,
          "time": 195.75,
          "velocity": 0.5039370078740157
        },
        {
          "duration": 0.11666666666667425,
          "durationTicks": 28,
          "midi": 36,
          "name": "C2",
          "ticks": 46980,
          "time": 195.75,
          "velocity": 0.8346456692913385
        },
        {
          "duration": 0.08333333333334281,
          "durationTicks": 20,
          "midi": 44,
          "name": "G#2",
          "ticks": 46980,
          "time": 195.75,
          "velocity": 0.8346456692913385
        },
        {
          "duration": 0.10833333333332007,
          "durationTicks": 26,
          "midi": 37,
          "name": "C#2",
          "ticks": 47040,
          "time": 196,
          "velocity": 0.5039370078740157
        },
        {
          "duration": 0.08333333333334281,
          "durationTicks": 20,
          "midi": 44,
          "name": "G#2",
          "ticks": 47040,
          "time": 196,
          "velocity": 0.8346456692913385
        },
        {
          "duration": 0.08333333333334281,
          "durationTicks": 20,
          "midi": 59,
          "name": "B3",
          "ticks": 47040,
          "time": 196,
          "velocity": 0.8346456692913385
        },
        {
          "duration": 0.11666666666667425,
          "durationTicks": 28,
          "midi": 36,
          "name": "C2",
          "ticks": 47040,
          "time": 196,
          "velocity": 0.8346456692913385
        },
        {
          "duration": 0.10833333333332007,
          "durationTicks": 26,
          "midi": 40,
          "name": "E2",
          "ticks": 47040,
          "time": 196,
          "velocity": 0.5039370078740157
        },
        {
          "duration": 0.08333333333334281,
          "durationTicks": 20,
          "midi": 44,
          "name": "G#2",
          "ticks": 47100,
          "time": 196.25,
          "velocity": 0.8346456692913385
        },
        {
          "duration": 0.10833333333332007,
          "durationTicks": 26,
          "midi": 54,
          "name": "F#3",
          "ticks": 47100,
          "time": 196.25,
          "velocity": 0.5039370078740157
        },
        {
          "duration": 0.11666666666667425,
          "durationTicks": 28,
          "midi": 36,
          "name": "C2",
          "ticks": 47160,
          "time": 196.5,
          "velocity": 0.8346456692913385
        },
        {
          "duration": 0.10833333333332007,
          "durationTicks": 26,
          "midi": 37,
          "name": "C#2",
          "ticks": 47160,
          "time": 196.5,
          "velocity": 0.5039370078740157
        },
        {
          "duration": 0.08333333333334281,
          "durationTicks": 20,
          "midi": 59,
          "name": "B3",
          "ticks": 47160,
          "time": 196.5,
          "velocity": 0.8346456692913385
        },
        {
          "duration": 0.08333333333334281,
          "durationTicks": 20,
          "midi": 44,
          "name": "G#2",
          "ticks": 47160,
          "time": 196.5,
          "velocity": 0.8346456692913385
        },
        {
          "duration": 0.10833333333332007,
          "durationTicks": 26,
          "midi": 40,
          "name": "E2",
          "ticks": 47160,
          "time": 196.5,
          "velocity": 0.5039370078740157
        },
        {
          "duration": 0.08333333333334281,
          "durationTicks": 20,
          "midi": 44,
          "name": "G#2",
          "ticks": 47220,
          "time": 196.75,
          "velocity": 0.8346456692913385
        },
        {
          "duration": 0.10833333333332007,
          "durationTicks": 26,
          "midi": 54,
          "name": "F#3",
          "ticks": 47220,
          "time": 196.75,
          "velocity": 0.5039370078740157
        },
        {
          "duration": 0.11666666666667425,
          "durationTicks": 28,
          "midi": 36,
          "name": "C2",
          "ticks": 47220,
          "time": 196.75,
          "velocity": 0.8346456692913385
        },
        {
          "duration": 0.11666666666667425,
          "durationTicks": 28,
          "midi": 36,
          "name": "C2",
          "ticks": 47280,
          "time": 197,
          "velocity": 0.8346456692913385
        },
        {
          "duration": 0.10833333333332007,
          "durationTicks": 26,
          "midi": 37,
          "name": "C#2",
          "ticks": 47280,
          "time": 197,
          "velocity": 0.5039370078740157
        },
        {
          "duration": 0.08333333333334281,
          "durationTicks": 20,
          "midi": 59,
          "name": "B3",
          "ticks": 47280,
          "time": 197,
          "velocity": 0.8346456692913385
        },
        {
          "duration": 0.08333333333334281,
          "durationTicks": 20,
          "midi": 44,
          "name": "G#2",
          "ticks": 47280,
          "time": 197,
          "velocity": 0.8346456692913385
        },
        {
          "duration": 0.10833333333332007,
          "durationTicks": 26,
          "midi": 40,
          "name": "E2",
          "ticks": 47280,
          "time": 197,
          "velocity": 0.5039370078740157
        },
        {
          "duration": 0.10833333333332007,
          "durationTicks": 26,
          "midi": 54,
          "name": "F#3",
          "ticks": 47340,
          "time": 197.25,
          "velocity": 0.5039370078740157
        },
        {
          "duration": 0.08333333333334281,
          "durationTicks": 20,
          "midi": 44,
          "name": "G#2",
          "ticks": 47340,
          "time": 197.25,
          "velocity": 0.8346456692913385
        },
        {
          "duration": 0.11666666666667425,
          "durationTicks": 28,
          "midi": 36,
          "name": "C2",
          "ticks": 47340,
          "time": 197.25,
          "velocity": 0.8346456692913385
        },
        {
          "duration": 0.10833333333332007,
          "durationTicks": 26,
          "midi": 37,
          "name": "C#2",
          "ticks": 47400,
          "time": 197.5,
          "velocity": 0.5039370078740157
        },
        {
          "duration": 0.10833333333332007,
          "durationTicks": 26,
          "midi": 40,
          "name": "E2",
          "ticks": 47400,
          "time": 197.5,
          "velocity": 0.5039370078740157
        },
        {
          "duration": 0.11666666666667425,
          "durationTicks": 28,
          "midi": 36,
          "name": "C2",
          "ticks": 47400,
          "time": 197.5,
          "velocity": 0.8346456692913385
        },
        {
          "duration": 0.08333333333334281,
          "durationTicks": 20,
          "midi": 44,
          "name": "G#2",
          "ticks": 47400,
          "time": 197.5,
          "velocity": 0.8346456692913385
        },
        {
          "duration": 0.08333333333334281,
          "durationTicks": 20,
          "midi": 59,
          "name": "B3",
          "ticks": 47400,
          "time": 197.5,
          "velocity": 0.8346456692913385
        },
        {
          "duration": 0.11666666666667425,
          "durationTicks": 28,
          "midi": 36,
          "name": "C2",
          "ticks": 47460,
          "time": 197.75,
          "velocity": 0.8346456692913385
        },
        {
          "duration": 0.08333333333334281,
          "durationTicks": 20,
          "midi": 44,
          "name": "G#2",
          "ticks": 47460,
          "time": 197.75,
          "velocity": 0.8346456692913385
        },
        {
          "duration": 0.10833333333332007,
          "durationTicks": 26,
          "midi": 54,
          "name": "F#3",
          "ticks": 47460,
          "time": 197.75,
          "velocity": 0.5039370078740157
        },
        {
          "duration": 0.11666666666667425,
          "durationTicks": 28,
          "midi": 36,
          "name": "C2",
          "ticks": 47520,
          "time": 198,
          "velocity": 0.5118110236220472
        },
        {
          "duration": 0.08333333333334281,
          "durationTicks": 20,
          "midi": 44,
          "name": "G#2",
          "ticks": 47520,
          "time": 198,
          "velocity": 0.5118110236220472
        },
        {
          "duration": 0.08333333333334281,
          "durationTicks": 20,
          "midi": 55,
          "name": "G3",
          "ticks": 47520,
          "time": 198,
          "velocity": 0.8346456692913385
        },
        {
          "duration": 0.10833333333332007,
          "durationTicks": 26,
          "midi": 54,
          "name": "F#3",
          "ticks": 47580,
          "time": 198.25,
          "velocity": 0.5118110236220472
        },
        {
          "duration": 0.10833333333332007,
          "durationTicks": 26,
          "midi": 40,
          "name": "E2",
          "ticks": 47640,
          "time": 198.5,
          "velocity": 0.5118110236220472
        },
        {
          "duration": 0.11666666666667425,
          "durationTicks": 28,
          "midi": 37,
          "name": "C#2",
          "ticks": 47640,
          "time": 198.5,
          "velocity": 0.5118110236220472
        },
        {
          "duration": 0.11666666666667425,
          "durationTicks": 28,
          "midi": 36,
          "name": "C2",
          "ticks": 47640,
          "time": 198.5,
          "velocity": 0.5118110236220472
        },
        {
          "duration": 0.08333333333334281,
          "durationTicks": 20,
          "midi": 44,
          "name": "G#2",
          "ticks": 47640,
          "time": 198.5,
          "velocity": 0.5118110236220472
        },
        {
          "duration": 0.10833333333332007,
          "durationTicks": 26,
          "midi": 54,
          "name": "F#3",
          "ticks": 47700,
          "time": 198.75,
          "velocity": 0.5118110236220472
        },
        {
          "duration": 0.11666666666667425,
          "durationTicks": 28,
          "midi": 36,
          "name": "C2",
          "ticks": 47700,
          "time": 198.75,
          "velocity": 0.5118110236220472
        },
        {
          "duration": 0.11666666666667425,
          "durationTicks": 28,
          "midi": 36,
          "name": "C2",
          "ticks": 47760,
          "time": 199,
          "velocity": 0.5039370078740157
        },
        {
          "duration": 0.08333333333334281,
          "durationTicks": 20,
          "midi": 44,
          "name": "G#2",
          "ticks": 47760,
          "time": 199,
          "velocity": 0.5039370078740157
        },
        {
          "duration": 0.10833333333332007,
          "durationTicks": 26,
          "midi": 54,
          "name": "F#3",
          "ticks": 47820,
          "time": 199.25,
          "velocity": 0.5039370078740157
        },
        {
          "duration": 0.11666666666667425,
          "durationTicks": 28,
          "midi": 36,
          "name": "C2",
          "ticks": 47820,
          "time": 199.25,
          "velocity": 0.5039370078740157
        },
        {
          "duration": 0.11666666666667425,
          "durationTicks": 28,
          "midi": 37,
          "name": "C#2",
          "ticks": 47820,
          "time": 199.25,
          "velocity": 0.5118110236220472
        },
        {
          "duration": 0.10833333333332007,
          "durationTicks": 26,
          "midi": 40,
          "name": "E2",
          "ticks": 47820,
          "time": 199.25,
          "velocity": 0.5039370078740157
        },
        {
          "duration": 0.08333333333334281,
          "durationTicks": 20,
          "midi": 44,
          "name": "G#2",
          "ticks": 47880,
          "time": 199.5,
          "velocity": 0.5039370078740157
        },
        {
          "duration": 0.11666666666667425,
          "durationTicks": 28,
          "midi": 36,
          "name": "C2",
          "ticks": 47940,
          "time": 199.75,
          "velocity": 0.5039370078740157
        },
        {
          "duration": 0.10833333333332007,
          "durationTicks": 26,
          "midi": 54,
          "name": "F#3",
          "ticks": 47940,
          "time": 199.75,
          "velocity": 0.5039370078740157
        },
        {
          "duration": 0.11666666666667425,
          "durationTicks": 28,
          "midi": 36,
          "name": "C2",
          "ticks": 48000,
          "time": 200,
          "velocity": 0.5039370078740157
        },
        {
          "duration": 0.08333333333334281,
          "durationTicks": 20,
          "midi": 44,
          "name": "G#2",
          "ticks": 48000,
          "time": 200,
          "velocity": 0.5039370078740157
        },
        {
          "duration": 0.10833333333332007,
          "durationTicks": 26,
          "midi": 54,
          "name": "F#3",
          "ticks": 48060,
          "time": 200.25,
          "velocity": 0.5118110236220472
        },
        {
          "duration": 0.08333333333334281,
          "durationTicks": 20,
          "midi": 44,
          "name": "G#2",
          "ticks": 48120,
          "time": 200.5,
          "velocity": 0.5118110236220472
        },
        {
          "duration": 0.11666666666667425,
          "durationTicks": 28,
          "midi": 36,
          "name": "C2",
          "ticks": 48120,
          "time": 200.5,
          "velocity": 0.5118110236220472
        },
        {
          "duration": 0.10833333333332007,
          "durationTicks": 26,
          "midi": 40,
          "name": "E2",
          "ticks": 48120,
          "time": 200.5,
          "velocity": 0.5118110236220472
        },
        {
          "duration": 0.11666666666667425,
          "durationTicks": 28,
          "midi": 37,
          "name": "C#2",
          "ticks": 48120,
          "time": 200.5,
          "velocity": 0.5118110236220472
        },
        {
          "duration": 0.10833333333332007,
          "durationTicks": 26,
          "midi": 54,
          "name": "F#3",
          "ticks": 48180,
          "time": 200.75,
          "velocity": 0.5118110236220472
        },
        {
          "duration": 0.11666666666667425,
          "durationTicks": 28,
          "midi": 36,
          "name": "C2",
          "ticks": 48180,
          "time": 200.75,
          "velocity": 0.5118110236220472
        },
        {
          "duration": 0.11666666666667425,
          "durationTicks": 28,
          "midi": 36,
          "name": "C2",
          "ticks": 48240,
          "time": 201,
          "velocity": 0.5118110236220472
        },
        {
          "duration": 0.08333333333334281,
          "durationTicks": 20,
          "midi": 44,
          "name": "G#2",
          "ticks": 48240,
          "time": 201,
          "velocity": 0.5118110236220472
        },
        {
          "duration": 0.11666666666667425,
          "durationTicks": 28,
          "midi": 36,
          "name": "C2",
          "ticks": 48300,
          "time": 201.25,
          "velocity": 0.5039370078740157
        },
        {
          "duration": 0.10833333333332007,
          "durationTicks": 26,
          "midi": 54,
          "name": "F#3",
          "ticks": 48300,
          "time": 201.25,
          "velocity": 0.5039370078740157
        },
        {
          "duration": 0.11666666666667425,
          "durationTicks": 28,
          "midi": 37,
          "name": "C#2",
          "ticks": 48300,
          "time": 201.25,
          "velocity": 0.5118110236220472
        },
        {
          "duration": 0.10833333333332007,
          "durationTicks": 26,
          "midi": 40,
          "name": "E2",
          "ticks": 48300,
          "time": 201.25,
          "velocity": 0.5039370078740157
        },
        {
          "duration": 0.08333333333334281,
          "durationTicks": 20,
          "midi": 44,
          "name": "G#2",
          "ticks": 48360,
          "time": 201.5,
          "velocity": 0.5118110236220472
        },
        {
          "duration": 0.11666666666667425,
          "durationTicks": 28,
          "midi": 36,
          "name": "C2",
          "ticks": 48420,
          "time": 201.75,
          "velocity": 0.5039370078740157
        },
        {
          "duration": 0.10833333333332007,
          "durationTicks": 26,
          "midi": 54,
          "name": "F#3",
          "ticks": 48420,
          "time": 201.75,
          "velocity": 0.5039370078740157
        },
        {
          "duration": 0.1666666666666572,
          "durationTicks": 40,
          "midi": 46,
          "name": "A#2",
          "ticks": 48480,
          "time": 202,
          "velocity": 0.7322834645669292
        },
        {
          "duration": 0.11666666666667425,
          "durationTicks": 28,
          "midi": 36,
          "name": "C2",
          "ticks": 48480,
          "time": 202,
          "velocity": 0.5118110236220472
        },
        {
          "duration": 0.10833333333332007,
          "durationTicks": 26,
          "midi": 54,
          "name": "F#3",
          "ticks": 48540,
          "time": 202.25,
          "velocity": 0.5118110236220472
        },
        {
          "duration": 0.10833333333332007,
          "durationTicks": 26,
          "midi": 40,
          "name": "E2",
          "ticks": 48600,
          "time": 202.5,
          "velocity": 0.5118110236220472
        },
        {
          "duration": 0.11666666666667425,
          "durationTicks": 28,
          "midi": 36,
          "name": "C2",
          "ticks": 48600,
          "time": 202.5,
          "velocity": 0.5118110236220472
        },
        {
          "duration": 0.11666666666667425,
          "durationTicks": 28,
          "midi": 37,
          "name": "C#2",
          "ticks": 48600,
          "time": 202.5,
          "velocity": 0.5118110236220472
        },
        {
          "duration": 0.08333333333334281,
          "durationTicks": 20,
          "midi": 44,
          "name": "G#2",
          "ticks": 48600,
          "time": 202.5,
          "velocity": 0.5118110236220472
        },
        {
          "duration": 0.11666666666667425,
          "durationTicks": 28,
          "midi": 36,
          "name": "C2",
          "ticks": 48660,
          "time": 202.75,
          "velocity": 0.5118110236220472
        },
        {
          "duration": 0.10833333333332007,
          "durationTicks": 26,
          "midi": 54,
          "name": "F#3",
          "ticks": 48660,
          "time": 202.75,
          "velocity": 0.5118110236220472
        },
        {
          "duration": 0.11666666666667425,
          "durationTicks": 28,
          "midi": 36,
          "name": "C2",
          "ticks": 48720,
          "time": 203,
          "velocity": 0.5039370078740157
        },
        {
          "duration": 0.08333333333334281,
          "durationTicks": 20,
          "midi": 44,
          "name": "G#2",
          "ticks": 48720,
          "time": 203,
          "velocity": 0.5039370078740157
        },
        {
          "duration": 0.11666666666667425,
          "durationTicks": 28,
          "midi": 36,
          "name": "C2",
          "ticks": 48780,
          "time": 203.25,
          "velocity": 0.5039370078740157
        },
        {
          "duration": 0.10833333333332007,
          "durationTicks": 26,
          "midi": 40,
          "name": "E2",
          "ticks": 48780,
          "time": 203.25,
          "velocity": 0.5039370078740157
        },
        {
          "duration": 0.10833333333332007,
          "durationTicks": 26,
          "midi": 54,
          "name": "F#3",
          "ticks": 48780,
          "time": 203.25,
          "velocity": 0.5039370078740157
        },
        {
          "duration": 0.11666666666667425,
          "durationTicks": 28,
          "midi": 37,
          "name": "C#2",
          "ticks": 48780,
          "time": 203.25,
          "velocity": 0.5118110236220472
        },
        {
          "duration": 0.08333333333334281,
          "durationTicks": 20,
          "midi": 44,
          "name": "G#2",
          "ticks": 48840,
          "time": 203.5,
          "velocity": 0.5039370078740157
        },
        {
          "duration": 0.10833333333332007,
          "durationTicks": 26,
          "midi": 54,
          "name": "F#3",
          "ticks": 48900,
          "time": 203.75,
          "velocity": 0.5039370078740157
        },
        {
          "duration": 0.11666666666667425,
          "durationTicks": 28,
          "midi": 36,
          "name": "C2",
          "ticks": 48900,
          "time": 203.75,
          "velocity": 0.5039370078740157
        },
        {
          "duration": 0.11666666666667425,
          "durationTicks": 28,
          "midi": 36,
          "name": "C2",
          "ticks": 48960,
          "time": 204,
          "velocity": 0.5039370078740157
        },
        {
          "duration": 0.08333333333334281,
          "durationTicks": 20,
          "midi": 44,
          "name": "G#2",
          "ticks": 48960,
          "time": 204,
          "velocity": 0.5039370078740157
        },
        {
          "duration": 0.10833333333332007,
          "durationTicks": 26,
          "midi": 54,
          "name": "F#3",
          "ticks": 49020,
          "time": 204.25,
          "velocity": 0.5118110236220472
        },
        {
          "duration": 0.11666666666667425,
          "durationTicks": 28,
          "midi": 36,
          "name": "C2",
          "ticks": 49080,
          "time": 204.5,
          "velocity": 0.5118110236220472
        },
        {
          "duration": 0.08333333333334281,
          "durationTicks": 20,
          "midi": 44,
          "name": "G#2",
          "ticks": 49080,
          "time": 204.5,
          "velocity": 0.5118110236220472
        },
        {
          "duration": 0.11666666666667425,
          "durationTicks": 28,
          "midi": 37,
          "name": "C#2",
          "ticks": 49080,
          "time": 204.5,
          "velocity": 0.5118110236220472
        },
        {
          "duration": 0.10833333333332007,
          "durationTicks": 26,
          "midi": 40,
          "name": "E2",
          "ticks": 49080,
          "time": 204.5,
          "velocity": 0.5118110236220472
        },
        {
          "duration": 0.11666666666667425,
          "durationTicks": 28,
          "midi": 36,
          "name": "C2",
          "ticks": 49140,
          "time": 204.75,
          "velocity": 0.5118110236220472
        },
        {
          "duration": 0.10833333333332007,
          "durationTicks": 26,
          "midi": 54,
          "name": "F#3",
          "ticks": 49140,
          "time": 204.75,
          "velocity": 0.5118110236220472
        },
        {
          "duration": 0.08333333333334281,
          "durationTicks": 20,
          "midi": 44,
          "name": "G#2",
          "ticks": 49200,
          "time": 205,
          "velocity": 0.5118110236220472
        },
        {
          "duration": 0.11666666666667425,
          "durationTicks": 28,
          "midi": 36,
          "name": "C2",
          "ticks": 49200,
          "time": 205,
          "velocity": 0.5118110236220472
        },
        {
          "duration": 0.10833333333332007,
          "durationTicks": 26,
          "midi": 40,
          "name": "E2",
          "ticks": 49260,
          "time": 205.25,
          "velocity": 0.5039370078740157
        },
        {
          "duration": 0.11666666666667425,
          "durationTicks": 28,
          "midi": 37,
          "name": "C#2",
          "ticks": 49260,
          "time": 205.25,
          "velocity": 0.5118110236220472
        },
        {
          "duration": 0.11666666666667425,
          "durationTicks": 28,
          "midi": 36,
          "name": "C2",
          "ticks": 49260,
          "time": 205.25,
          "velocity": 0.5039370078740157
        },
        {
          "duration": 0.10833333333332007,
          "durationTicks": 26,
          "midi": 54,
          "name": "F#3",
          "ticks": 49260,
          "time": 205.25,
          "velocity": 0.5039370078740157
        },
        {
          "duration": 0.08333333333334281,
          "durationTicks": 20,
          "midi": 44,
          "name": "G#2",
          "ticks": 49320,
          "time": 205.5,
          "velocity": 0.5118110236220472
        },
        {
          "duration": 0.08333333333334281,
          "durationTicks": 20,
          "midi": 36,
          "name": "C2",
          "ticks": 49380,
          "time": 205.75,
          "velocity": 0.5118110236220472
        },
        {
          "duration": 0.08333333333334281,
          "durationTicks": 20,
          "midi": 44,
          "name": "G#2",
          "ticks": 49380,
          "time": 205.75,
          "velocity": 0.5118110236220472
        },
        {
          "duration": 0.10833333333332007,
          "durationTicks": 26,
          "midi": 54,
          "name": "F#3",
          "ticks": 49380,
          "time": 205.75,
          "velocity": 0.5039370078740157
        },
        {
          "duration": 0.10833333333332007,
          "durationTicks": 26,
          "midi": 44,
          "name": "G#2",
          "ticks": 50160,
          "time": 209,
          "velocity": 0.5039370078740157
        }
      ],
      "endOfTrackTicks": 50408
    },
    {
      "channel": 0,
      "controlChanges": {
        "0": [
          {
            "number": 0,
            "ticks": 0,
            "time": 0,
            "value": 0
          }
        ]
      },
      "pitchBends": [],
      "instrument": {
        "family": "piano",
        "number": 0,
        "name": "acoustic grand piano"
      },
      "name": "2",
      "notes": [],
      "endOfTrackTicks": 47512
    },
    {
      "channel": 1,
      "controlChanges": {
        "7": [
          {
            "number": 7,
            "ticks": 0,
            "time": 0,
            "value": 0.7007874015748031
          }
        ],
        "10": [
          {
            "number": 10,
            "ticks": 0,
            "time": 0,
            "value": 0.5039370078740157
          }
        ],
        "91": [
          {
            "number": 91,
            "ticks": 0,
            "time": 0,
            "value": 0.31496062992125984
          }
        ],
        "93": [
          {
            "number": 93,
            "ticks": 0,
            "time": 0,
            "value": 0
          }
        ]
      },
      "pitchBends": [],
      "instrument": {
        "family": "piano",
        "number": 1,
        "name": "bright acoustic piano"
      },
      "name": "",
      "notes": [
        {
          "duration": 1.9000000000000004,
          "durationTicks": 456,
          "midi": 50,
          "name": "D3",
          "ticks": 2880,
          "time": 12,
          "velocity": 0.8346456692913385
        },
        {
          "duration": 1.9333333333333336,
          "durationTicks": 464,
          "midi": 55,
          "name": "G3",
          "ticks": 2880,
          "time": 12,
          "velocity": 0.5039370078740157
        },
        {
          "duration": 1.9000000000000004,
          "durationTicks": 456,
          "midi": 43,
          "name": "G2",
          "ticks": 2880,
          "time": 12,
          "velocity": 0.8346456692913385
        },
        {
          "duration": 1.9000000000000004,
          "durationTicks": 456,
          "midi": 46,
          "name": "A#2",
          "ticks": 3360,
          "time": 14,
          "velocity": 0.8346456692913385
        },
        {
          "duration": 1.9333333333333336,
          "durationTicks": 464,
          "midi": 58,
          "name": "A#3",
          "ticks": 3360,
          "time": 14,
          "velocity": 0.5039370078740157
        },
        {
          "duration": 1.9000000000000004,
          "durationTicks": 456,
          "midi": 53,
          "name": "F3",
          "ticks": 3360,
          "time": 14,
          "velocity": 0.8346456692913385
        },
        {
          "duration": 1.9333333333333336,
          "durationTicks": 464,
          "midi": 65,
          "name": "F4",
          "ticks": 3840,
          "time": 16,
          "velocity": 0.5039370078740157
        },
        {
          "duration": 1.8999999999999986,
          "durationTicks": 456,
          "midi": 53,
          "name": "F3",
          "ticks": 3840,
          "time": 16,
          "velocity": 0.8346456692913385
        },
        {
          "duration": 1.8999999999999986,
          "durationTicks": 456,
          "midi": 60,
          "name": "C4",
          "ticks": 3840,
          "time": 16,
          "velocity": 0.8346456692913385
        },
        {
          "duration": 1.966666666666665,
          "durationTicks": 472,
          "midi": 48,
          "name": "C3",
          "ticks": 4320,
          "time": 18,
          "velocity": 0.8346456692913385
        },
        {
          "duration": 1.8999999999999986,
          "durationTicks": 456,
          "midi": 55,
          "name": "G3",
          "ticks": 4320,
          "time": 18,
          "velocity": 0.8346456692913385
        },
        {
          "duration": 1.9333333333333336,
          "durationTicks": 464,
          "midi": 60,
          "name": "C4",
          "ticks": 4320,
          "time": 18,
          "velocity": 0.5039370078740157
        },
        {
          "duration": 1.8999999999999986,
          "durationTicks": 456,
          "midi": 43,
          "name": "G2",
          "ticks": 4800,
          "time": 20,
          "velocity": 0.8346456692913385
        },
        {
          "duration": 1.8999999999999986,
          "durationTicks": 456,
          "midi": 50,
          "name": "D3",
          "ticks": 4800,
          "time": 20,
          "velocity": 0.8346456692913385
        },
        {
          "duration": 1.9333333333333336,
          "durationTicks": 464,
          "midi": 55,
          "name": "G3",
          "ticks": 4800,
          "time": 20,
          "velocity": 0.5039370078740157
        },
        {
          "duration": 1.9333333333333336,
          "durationTicks": 464,
          "midi": 58,
          "name": "A#3",
          "ticks": 5280,
          "time": 22,
          "velocity": 0.5039370078740157
        },
        {
          "duration": 1.8999999999999986,
          "durationTicks": 456,
          "midi": 46,
          "name": "A#2",
          "ticks": 5280,
          "time": 22,
          "velocity": 0.8346456692913385
        },
        {
          "duration": 1.8999999999999986,
          "durationTicks": 456,
          "midi": 53,
          "name": "F3",
          "ticks": 5280,
          "time": 22,
          "velocity": 0.8346456692913385
        },
        {
          "duration": 1.8999999999999986,
          "durationTicks": 456,
          "midi": 53,
          "name": "F3",
          "ticks": 5760,
          "time": 24,
          "velocity": 0.8346456692913385
        },
        {
          "duration": 1.8999999999999986,
          "durationTicks": 456,
          "midi": 60,
          "name": "C4",
          "ticks": 5760,
          "time": 24,
          "velocity": 0.8346456692913385
        },
        {
          "duration": 1.9333333333333336,
          "durationTicks": 464,
          "midi": 65,
          "name": "F4",
          "ticks": 5760,
          "time": 24,
          "velocity": 0.5039370078740157
        },
        {
          "duration": 1.966666666666665,
          "durationTicks": 472,
          "midi": 48,
          "name": "C3",
          "ticks": 6240,
          "time": 26,
          "velocity": 0.8346456692913385
        },
        {
          "duration": 1.9333333333333336,
          "durationTicks": 464,
          "midi": 60,
          "name": "C4",
          "ticks": 6240,
          "time": 26,
          "velocity": 0.5039370078740157
        },
        {
          "duration": 1.8999999999999986,
          "durationTicks": 456,
          "midi": 55,
          "name": "G3",
          "ticks": 6240,
          "time": 26,
          "velocity": 0.8346456692913385
        },
        {
          "duration": 1.8999999999999986,
          "durationTicks": 456,
          "midi": 50,
          "name": "D3",
          "ticks": 6720,
          "time": 28,
          "velocity": 0.8346456692913385
        },
        {
          "duration": 1.9333333333333336,
          "durationTicks": 464,
          "midi": 55,
          "name": "G3",
          "ticks": 6720,
          "time": 28,
          "velocity": 0.5039370078740157
        },
        {
          "duration": 1.8999999999999986,
          "durationTicks": 456,
          "midi": 43,
          "name": "G2",
          "ticks": 6720,
          "time": 28,
          "velocity": 0.8346456692913385
        },
        {
          "duration": 1.8999999999999986,
          "durationTicks": 456,
          "midi": 46,
          "name": "A#2",
          "ticks": 7200,
          "time": 30,
          "velocity": 0.8346456692913385
        },
        {
          "duration": 1.8999999999999986,
          "durationTicks": 456,
          "midi": 53,
          "name": "F3",
          "ticks": 7200,
          "time": 30,
          "velocity": 0.8346456692913385
        },
        {
          "duration": 1.9333333333333336,
          "durationTicks": 464,
          "midi": 58,
          "name": "A#3",
          "ticks": 7200,
          "time": 30,
          "velocity": 0.5039370078740157
        },
        {
          "duration": 1.93333333333333,
          "durationTicks": 464,
          "midi": 65,
          "name": "F4",
          "ticks": 7680,
          "time": 32,
          "velocity": 0.5039370078740157
        },
        {
          "duration": 1.8999999999999986,
          "durationTicks": 456,
          "midi": 53,
          "name": "F3",
          "ticks": 7680,
          "time": 32,
          "velocity": 0.8346456692913385
        },
        {
          "duration": 1.8999999999999986,
          "durationTicks": 456,
          "midi": 60,
          "name": "C4",
          "ticks": 7680,
          "time": 32,
          "velocity": 0.8346456692913385
        },
        {
          "duration": 1.9666666666666686,
          "durationTicks": 472,
          "midi": 48,
          "name": "C3",
          "ticks": 8160,
          "time": 34,
          "velocity": 0.8346456692913385
        },
        {
          "duration": 1.93333333333333,
          "durationTicks": 464,
          "midi": 60,
          "name": "C4",
          "ticks": 8160,
          "time": 34,
          "velocity": 0.5039370078740157
        },
        {
          "duration": 1.8999999999999986,
          "durationTicks": 456,
          "midi": 55,
          "name": "G3",
          "ticks": 8160,
          "time": 34,
          "velocity": 0.8346456692913385
        },
        {
          "duration": 1.8999999999999986,
          "durationTicks": 456,
          "midi": 43,
          "name": "G2",
          "ticks": 8640,
          "time": 36,
          "velocity": 0.8346456692913385
        },
        {
          "duration": 1.8999999999999986,
          "durationTicks": 456,
          "midi": 50,
          "name": "D3",
          "ticks": 8640,
          "time": 36,
          "velocity": 0.8346456692913385
        },
        {
          "duration": 1.93333333333333,
          "durationTicks": 464,
          "midi": 55,
          "name": "G3",
          "ticks": 8640,
          "time": 36,
          "velocity": 0.5039370078740157
        },
        {
          "duration": 1.8999999999999986,
          "durationTicks": 456,
          "midi": 53,
          "name": "F3",
          "ticks": 9120,
          "time": 38,
          "velocity": 0.8346456692913385
        },
        {
          "duration": 1.93333333333333,
          "durationTicks": 464,
          "midi": 58,
          "name": "A#3",
          "ticks": 9120,
          "time": 38,
          "velocity": 0.5039370078740157
        },
        {
          "duration": 1.8999999999999986,
          "durationTicks": 456,
          "midi": 46,
          "name": "A#2",
          "ticks": 9120,
          "time": 38,
          "velocity": 0.8346456692913385
        },
        {
          "duration": 1.8999999999999986,
          "durationTicks": 456,
          "midi": 53,
          "name": "F3",
          "ticks": 9600,
          "time": 40,
          "velocity": 0.8346456692913385
        },
        {
          "duration": 1.8999999999999986,
          "durationTicks": 456,
          "midi": 60,
          "name": "C4",
          "ticks": 9600,
          "time": 40,
          "velocity": 0.8346456692913385
        },
        {
          "duration": 1.93333333333333,
          "durationTicks": 464,
          "midi": 65,
          "name": "F4",
          "ticks": 9600,
          "time": 40,
          "velocity": 0.5039370078740157
        },
        {
          "duration": 1.93333333333333,
          "durationTicks": 464,
          "midi": 60,
          "name": "C4",
          "ticks": 10080,
          "time": 42,
          "velocity": 0.5039370078740157
        },
        {
          "duration": 1.8999999999999986,
          "durationTicks": 456,
          "midi": 55,
          "name": "G3",
          "ticks": 10080,
          "time": 42,
          "velocity": 0.8346456692913385
        },
        {
          "duration": 1.9666666666666686,
          "durationTicks": 472,
          "midi": 48,
          "name": "C3",
          "ticks": 10080,
          "time": 42,
          "velocity": 0.8346456692913385
        },
        {
          "duration": 0.9333333333333371,
          "durationTicks": 224,
          "midi": 74,
          "name": "D5",
          "ticks": 15360,
          "time": 64,
          "velocity": 0.8346456692913385
        },
        {
          "duration": 0.9333333333333371,
          "durationTicks": 224,
          "midi": 74,
          "name": "D5",
          "ticks": 15600,
          "time": 65,
          "velocity": 0.8346456692913385
        },
        {
          "duration": 0.9333333333333371,
          "durationTicks": 224,
          "midi": 74,
          "name": "D5",
          "ticks": 15840,
          "time": 66,
          "velocity": 0.8346456692913385
        },
        {
          "duration": 0.9333333333333371,
          "durationTicks": 224,
          "midi": 74,
          "name": "D5",
          "ticks": 16080,
          "time": 67,
          "velocity": 0.8346456692913385
        },
        {
          "duration": 0.9333333333333371,
          "durationTicks": 224,
          "midi": 74,
          "name": "D5",
          "ticks": 16320,
          "time": 68,
          "velocity": 0.8346456692913385
        },
        {
          "duration": 0.9333333333333371,
          "durationTicks": 224,
          "midi": 74,
          "name": "D5",
          "ticks": 16560,
          "time": 69,
          "velocity": 0.8346456692913385
        },
        {
          "duration": 1.9666666666666686,
          "durationTicks": 472,
          "midi": 74,
          "name": "D5",
          "ticks": 16800,
          "time": 70,
          "velocity": 0.8346456692913385
        },
        {
          "duration": 1.9000000000000057,
          "durationTicks": 456,
          "midi": 43,
          "name": "G2",
          "ticks": 17280,
          "time": 72,
          "velocity": 0.8346456692913385
        },
        {
          "duration": 1.9000000000000057,
          "durationTicks": 456,
          "midi": 50,
          "name": "D3",
          "ticks": 17280,
          "time": 72,
          "velocity": 0.8346456692913385
        },
        {
          "duration": 1.9333333333333371,
          "durationTicks": 464,
          "midi": 55,
          "name": "G3",
          "ticks": 17280,
          "time": 72,
          "velocity": 0.5039370078740157
        },
        {
          "duration": 1.9000000000000057,
          "durationTicks": 456,
          "midi": 53,
          "name": "F3",
          "ticks": 17760,
          "time": 74,
          "velocity": 0.8346456692913385
        },
        {
          "duration": 1.9000000000000057,
          "durationTicks": 456,
          "midi": 46,
          "name": "A#2",
          "ticks": 17760,
          "time": 74,
          "velocity": 0.8346456692913385
        },
        {
          "duration": 1.9333333333333371,
          "durationTicks": 464,
          "midi": 58,
          "name": "A#3",
          "ticks": 17760,
          "time": 74,
          "velocity": 0.5039370078740157
        },
        {
          "duration": 1.9000000000000057,
          "durationTicks": 456,
          "midi": 60,
          "name": "C4",
          "ticks": 18240,
          "time": 76,
          "velocity": 0.8346456692913385
        },
        {
          "duration": 1.9333333333333371,
          "durationTicks": 464,
          "midi": 65,
          "name": "F4",
          "ticks": 18240,
          "time": 76,
          "velocity": 0.5039370078740157
        },
        {
          "duration": 1.9000000000000057,
          "durationTicks": 456,
          "midi": 53,
          "name": "F3",
          "ticks": 18240,
          "time": 76,
          "velocity": 0.8346456692913385
        },
        {
          "duration": 1.9333333333333371,
          "durationTicks": 464,
          "midi": 60,
          "name": "C4",
          "ticks": 18720,
          "time": 78,
          "velocity": 0.5039370078740157
        },
        {
          "duration": 1.9666666666666686,
          "durationTicks": 472,
          "midi": 48,
          "name": "C3",
          "ticks": 18720,
          "time": 78,
          "velocity": 0.8346456692913385
        },
        {
          "duration": 1.9000000000000057,
          "durationTicks": 456,
          "midi": 55,
          "name": "G3",
          "ticks": 18720,
          "time": 78,
          "velocity": 0.8346456692913385
        },
        {
          "duration": 1.9333333333333371,
          "durationTicks": 464,
          "midi": 55,
          "name": "G3",
          "ticks": 19200,
          "time": 80,
          "velocity": 0.5039370078740157
        },
        {
          "duration": 1.9000000000000057,
          "durationTicks": 456,
          "midi": 50,
          "name": "D3",
          "ticks": 19200,
          "time": 80,
          "velocity": 0.8346456692913385
        },
        {
          "duration": 1.9000000000000057,
          "durationTicks": 456,
          "midi": 43,
          "name": "G2",
          "ticks": 19200,
          "time": 80,
          "velocity": 0.8346456692913385
        },
        {
          "duration": 1.9333333333333371,
          "durationTicks": 464,
          "midi": 58,
          "name": "A#3",
          "ticks": 19680,
          "time": 82,
          "velocity": 0.5039370078740157
        },
        {
          "duration": 1.9000000000000057,
          "durationTicks": 456,
          "midi": 53,
          "name": "F3",
          "ticks": 19680,
          "time": 82,
          "velocity": 0.8346456692913385
        },
        {
          "duration": 1.9000000000000057,
          "durationTicks": 456,
          "midi": 46,
          "name": "A#2",
          "ticks": 19680,
          "time": 82,
          "velocity": 0.8346456692913385
        },
        {
          "duration": 1.9000000000000057,
          "durationTicks": 456,
          "midi": 53,
          "name": "F3",
          "ticks": 20160,
          "time": 84,
          "velocity": 0.8346456692913385
        },
        {
          "duration": 1.9000000000000057,
          "durationTicks": 456,
          "midi": 60,
          "name": "C4",
          "ticks": 20160,
          "time": 84,
          "velocity": 0.8346456692913385
        },
        {
          "duration": 1.9333333333333371,
          "durationTicks": 464,
          "midi": 65,
          "name": "F4",
          "ticks": 20160,
          "time": 84,
          "velocity": 0.5039370078740157
        },
        {
          "duration": 1.9000000000000057,
          "durationTicks": 456,
          "midi": 55,
          "name": "G3",
          "ticks": 20640,
          "time": 86,
          "velocity": 0.8346456692913385
        },
        {
          "duration": 1.9666666666666686,
          "durationTicks": 472,
          "midi": 48,
          "name": "C3",
          "ticks": 20640,
          "time": 86,
          "velocity": 0.8346456692913385
        },
        {
          "duration": 1.9333333333333371,
          "durationTicks": 464,
          "midi": 60,
          "name": "C4",
          "ticks": 20640,
          "time": 86,
          "velocity": 0.5039370078740157
        },
        {
          "duration": 0.9333333333333371,
          "durationTicks": 224,
          "midi": 74,
          "name": "D5",
          "ticks": 24960,
          "time": 104,
          "velocity": 0.8346456692913385
        },
        {
          "duration": 0.9333333333333371,
          "durationTicks": 224,
          "midi": 74,
          "name": "D5",
          "ticks": 25200,
          "time": 105,
          "velocity": 0.8346456692913385
        },
        {
          "duration": 0.9333333333333371,
          "durationTicks": 224,
          "midi": 74,
          "name": "D5",
          "ticks": 25440,
          "time": 106,
          "velocity": 0.8346456692913385
        },
        {
          "duration": 0.9333333333333371,
          "durationTicks": 224,
          "midi": 74,
          "name": "D5",
          "ticks": 25680,
          "time": 107,
          "velocity": 0.8346456692913385
        },
        {
          "duration": 0.9333333333333371,
          "durationTicks": 224,
          "midi": 74,
          "name": "D5",
          "ticks": 25920,
          "time": 108,
          "velocity": 0.8346456692913385
        },
        {
          "duration": 0.9333333333333371,
          "durationTicks": 224,
          "midi": 74,
          "name": "D5",
          "ticks": 26160,
          "time": 109,
          "velocity": 0.8346456692913385
        },
        {
          "duration": 1.9666666666666686,
          "durationTicks": 472,
          "midi": 74,
          "name": "D5",
          "ticks": 26400,
          "time": 110,
          "velocity": 0.8346456692913385
        },
        {
          "duration": 1.9000000000000057,
          "durationTicks": 456,
          "midi": 43,
          "name": "G2",
          "ticks": 26880,
          "time": 112,
          "velocity": 0.8346456692913385
        },
        {
          "duration": 1.9333333333333371,
          "durationTicks": 464,
          "midi": 55,
          "name": "G3",
          "ticks": 26880,
          "time": 112,
          "velocity": 0.5039370078740157
        },
        {
          "duration": 1.9000000000000057,
          "durationTicks": 456,
          "midi": 50,
          "name": "D3",
          "ticks": 26880,
          "time": 112,
          "velocity": 0.8346456692913385
        },
        {
          "duration": 1.9000000000000057,
          "durationTicks": 456,
          "midi": 53,
          "name": "F3",
          "ticks": 27360,
          "time": 114,
          "velocity": 0.8346456692913385
        },
        {
          "duration": 1.9000000000000057,
          "durationTicks": 456,
          "midi": 46,
          "name": "A#2",
          "ticks": 27360,
          "time": 114,
          "velocity": 0.8346456692913385
        },
        {
          "duration": 1.9333333333333371,
          "durationTicks": 464,
          "midi": 58,
          "name": "A#3",
          "ticks": 27360,
          "time": 114,
          "velocity": 0.5039370078740157
        },
        {
          "duration": 1.9333333333333371,
          "durationTicks": 464,
          "midi": 65,
          "name": "F4",
          "ticks": 27840,
          "time": 116,
          "velocity": 0.5039370078740157
        },
        {
          "duration": 1.9000000000000057,
          "durationTicks": 456,
          "midi": 53,
          "name": "F3",
          "ticks": 27840,
          "time": 116,
          "velocity": 0.8346456692913385
        },
        {
          "duration": 1.9000000000000057,
          "durationTicks": 456,
          "midi": 60,
          "name": "C4",
          "ticks": 27840,
          "time": 116,
          "velocity": 0.8346456692913385
        },
        {
          "duration": 1.9666666666666686,
          "durationTicks": 472,
          "midi": 48,
          "name": "C3",
          "ticks": 28320,
          "time": 118,
          "velocity": 0.8346456692913385
        },
        {
          "duration": 1.9333333333333371,
          "durationTicks": 464,
          "midi": 60,
          "name": "C4",
          "ticks": 28320,
          "time": 118,
          "velocity": 0.5039370078740157
        },
        {
          "duration": 1.9000000000000057,
          "durationTicks": 456,
          "midi": 55,
          "name": "G3",
          "ticks": 28320,
          "time": 118,
          "velocity": 0.8346456692913385
        },
        {
          "duration": 1.9000000000000057,
          "durationTicks": 456,
          "midi": 50,
          "name": "D3",
          "ticks": 28800,
          "time": 120,
          "velocity": 0.8346456692913385
        },
        {
          "duration": 1.9000000000000057,
          "durationTicks": 456,
          "midi": 43,
          "name": "G2",
          "ticks": 28800,
          "time": 120,
          "velocity": 0.8346456692913385
        },
        {
          "duration": 1.9333333333333371,
          "durationTicks": 464,
          "midi": 55,
          "name": "G3",
          "ticks": 28800,
          "time": 120,
          "velocity": 0.5039370078740157
        },
        {
          "duration": 1.9333333333333371,
          "durationTicks": 464,
          "midi": 58,
          "name": "A#3",
          "ticks": 29280,
          "time": 122,
          "velocity": 0.5039370078740157
        },
        {
          "duration": 1.9000000000000057,
          "durationTicks": 456,
          "midi": 46,
          "name": "A#2",
          "ticks": 29280,
          "time": 122,
          "velocity": 0.8346456692913385
        },
        {
          "duration": 1.9000000000000057,
          "durationTicks": 456,
          "midi": 53,
          "name": "F3",
          "ticks": 29280,
          "time": 122,
          "velocity": 0.8346456692913385
        },
        {
          "duration": 1.9000000000000057,
          "durationTicks": 456,
          "midi": 60,
          "name": "C4",
          "ticks": 29760,
          "time": 124,
          "velocity": 0.8346456692913385
        },
        {
          "duration": 1.9333333333333371,
          "durationTicks": 464,
          "midi": 65,
          "name": "F4",
          "ticks": 29760,
          "time": 124,
          "velocity": 0.5039370078740157
        },
        {
          "duration": 1.9000000000000057,
          "durationTicks": 456,
          "midi": 53,
          "name": "F3",
          "ticks": 29760,
          "time": 124,
          "velocity": 0.8346456692913385
        },
        {
          "duration": 0.9333333333333371,
          "durationTicks": 224,
          "midi": 48,
          "name": "C3",
          "ticks": 30240,
          "time": 126,
          "velocity": 0.8346456692913385
        },
        {
          "duration": 0.9833333333333343,
          "durationTicks": 236,
          "midi": 50,
          "name": "D3",
          "ticks": 30480,
          "time": 127,
          "velocity": 0.8346456692913385
        },
        {
          "duration": 0.9666666666666686,
          "durationTicks": 232,
          "midi": 51,
          "name": "D#3",
          "ticks": 30720,
          "time": 128,
          "velocity": 0.8346456692913385
        },
        {
          "duration": 0.9499999999999886,
          "durationTicks": 228,
          "midi": 50,
          "name": "D3",
          "ticks": 30960,
          "time": 129,
          "velocity": 0.8346456692913385
        },
        {
          "duration": 1.9000000000000057,
          "durationTicks": 456,
          "midi": 50,
          "name": "D3",
          "ticks": 31200,
          "time": 130,
          "velocity": 0.8346456692913385
        },
        {
          "duration": 1.9333333333333371,
          "durationTicks": 464,
          "midi": 55,
          "name": "G3",
          "ticks": 31200,
          "time": 130,
          "velocity": 0.5039370078740157
        },
        {
          "duration": 1.9000000000000057,
          "durationTicks": 456,
          "midi": 43,
          "name": "G2",
          "ticks": 31200,
          "time": 130,
          "velocity": 0.8346456692913385
        },
        {
          "duration": 1.9333333333333371,
          "durationTicks": 464,
          "midi": 58,
          "name": "A#3",
          "ticks": 31680,
          "time": 132,
          "velocity": 0.5039370078740157
        },
        {
          "duration": 1.9000000000000057,
          "durationTicks": 456,
          "midi": 46,
          "name": "A#2",
          "ticks": 31680,
          "time": 132,
          "velocity": 0.8346456692913385
        },
        {
          "duration": 1.9000000000000057,
          "durationTicks": 456,
          "midi": 53,
          "name": "F3",
          "ticks": 31680,
          "time": 132,
          "velocity": 0.8346456692913385
        },
        {
          "duration": 1.9333333333333371,
          "durationTicks": 464,
          "midi": 65,
          "name": "F4",
          "ticks": 32160,
          "time": 134,
          "velocity": 0.5039370078740157
        },
        {
          "duration": 1.9000000000000057,
          "durationTicks": 456,
          "midi": 53,
          "name": "F3",
          "ticks": 32160,
          "time": 134,
          "velocity": 0.8346456692913385
        },
        {
          "duration": 1.9000000000000057,
          "durationTicks": 456,
          "midi": 60,
          "name": "C4",
          "ticks": 32160,
          "time": 134,
          "velocity": 0.8346456692913385
        },
        {
          "duration": 1.9000000000000057,
          "durationTicks": 456,
          "midi": 55,
          "name": "G3",
          "ticks": 32640,
          "time": 136,
          "velocity": 0.8346456692913385
        },
        {
          "duration": 1.9333333333333371,
          "durationTicks": 464,
          "midi": 60,
          "name": "C4",
          "ticks": 32640,
          "time": 136,
          "velocity": 0.5039370078740157
        },
        {
          "duration": 1.9666666666666686,
          "durationTicks": 472,
          "midi": 48,
          "name": "C3",
          "ticks": 32640,
          "time": 136,
          "velocity": 0.8346456692913385
        },
        {
          "duration": 1.9333333333333371,
          "durationTicks": 464,
          "midi": 55,
          "name": "G3",
          "ticks": 33120,
          "time": 138,
          "velocity": 0.5039370078740157
        },
        {
          "duration": 1.9000000000000057,
          "durationTicks": 456,
          "midi": 43,
          "name": "G2",
          "ticks": 33120,
          "time": 138,
          "velocity": 0.8346456692913385
        },
        {
          "duration": 1.9000000000000057,
          "durationTicks": 456,
          "midi": 50,
          "name": "D3",
          "ticks": 33120,
          "time": 138,
          "velocity": 0.8346456692913385
        },
        {
          "duration": 1.9000000000000057,
          "durationTicks": 456,
          "midi": 46,
          "name": "A#2",
          "ticks": 33600,
          "time": 140,
          "velocity": 0.8346456692913385
        },
        {
          "duration": 1.9333333333333371,
          "durationTicks": 464,
          "midi": 58,
          "name": "A#3",
          "ticks": 33600,
          "time": 140,
          "velocity": 0.5039370078740157
        },
        {
          "duration": 1.9000000000000057,
          "durationTicks": 456,
          "midi": 53,
          "name": "F3",
          "ticks": 33600,
          "time": 140,
          "velocity": 0.8346456692913385
        },
        {
          "duration": 1.9000000000000057,
          "durationTicks": 456,
          "midi": 53,
          "name": "F3",
          "ticks": 34080,
          "time": 142,
          "velocity": 0.8346456692913385
        },
        {
          "duration": 1.9000000000000057,
          "durationTicks": 456,
          "midi": 60,
          "name": "C4",
          "ticks": 34080,
          "time": 142,
          "velocity": 0.8346456692913385
        },
        {
          "duration": 1.9333333333333371,
          "durationTicks": 464,
          "midi": 65,
          "name": "F4",
          "ticks": 34080,
          "time": 142,
          "velocity": 0.5039370078740157
        },
        {
          "duration": 0.9166666666666572,
          "durationTicks": 220,
          "midi": 48,
          "name": "C3",
          "ticks": 34560,
          "time": 144,
          "velocity": 0.8346456692913385
        },
        {
          "duration": 0.9166666666666572,
          "durationTicks": 220,
          "midi": 50,
          "name": "D3",
          "ticks": 34800,
          "time": 145,
          "velocity": 0.8346456692913385
        },
        {
          "duration": 0.9666666666666686,
          "durationTicks": 232,
          "midi": 51,
          "name": "D#3",
          "ticks": 35040,
          "time": 146,
          "velocity": 0.8346456692913385
        },
        {
          "duration": 0.9833333333333201,
          "durationTicks": 236,
          "midi": 53,
          "name": "F3",
          "ticks": 35280,
          "time": 147,
          "velocity": 0.8346456692913385
        },
        {
          "duration": 1.9333333333333371,
          "durationTicks": 464,
          "midi": 55,
          "name": "G3",
          "ticks": 39840,
          "time": 166,
          "velocity": 0.5039370078740157
        },
        {
          "duration": 1.9000000000000057,
          "durationTicks": 456,
          "midi": 43,
          "name": "G2",
          "ticks": 39840,
          "time": 166,
          "velocity": 0.8346456692913385
        },
        {
          "duration": 1.9000000000000057,
          "durationTicks": 456,
          "midi": 50,
          "name": "D3",
          "ticks": 39840,
          "time": 166,
          "velocity": 0.8346456692913385
        },
        {
          "duration": 1.9000000000000057,
          "durationTicks": 456,
          "midi": 46,
          "name": "A#2",
          "ticks": 40320,
          "time": 168,
          "velocity": 0.8346456692913385
        },
        {
          "duration": 1.9000000000000057,
          "durationTicks": 456,
          "midi": 53,
          "name": "F3",
          "ticks": 40320,
          "time": 168,
          "velocity": 0.8346456692913385
        },
        {
          "duration": 1.9333333333333371,
          "durationTicks": 464,
          "midi": 58,
          "name": "A#3",
          "ticks": 40320,
          "time": 168,
          "velocity": 0.5039370078740157
        },
        {
          "duration": 1.9333333333333371,
          "durationTicks": 464,
          "midi": 65,
          "name": "F4",
          "ticks": 40800,
          "time": 170,
          "velocity": 0.5039370078740157
        },
        {
          "duration": 1.9000000000000057,
          "durationTicks": 456,
          "midi": 53,
          "name": "F3",
          "ticks": 40800,
          "time": 170,
          "velocity": 0.8346456692913385
        },
        {
          "duration": 1.9000000000000057,
          "durationTicks": 456,
          "midi": 60,
          "name": "C4",
          "ticks": 40800,
          "time": 170,
          "velocity": 0.8346456692913385
        },
        {
          "duration": 1.9333333333333371,
          "durationTicks": 464,
          "midi": 60,
          "name": "C4",
          "ticks": 41280,
          "time": 172,
          "velocity": 0.5039370078740157
        },
        {
          "duration": 1.9000000000000057,
          "durationTicks": 456,
          "midi": 55,
          "name": "G3",
          "ticks": 41280,
          "time": 172,
          "velocity": 0.8346456692913385
        },
        {
          "duration": 1.9666666666666686,
          "durationTicks": 472,
          "midi": 48,
          "name": "C3",
          "ticks": 41280,
          "time": 172,
          "velocity": 0.8346456692913385
        },
        {
          "duration": 1.9000000000000057,
          "durationTicks": 456,
          "midi": 50,
          "name": "D3",
          "ticks": 41760,
          "time": 174,
          "velocity": 0.8346456692913385
        },
        {
          "duration": 1.9000000000000057,
          "durationTicks": 456,
          "midi": 43,
          "name": "G2",
          "ticks": 41760,
          "time": 174,
          "velocity": 0.8346456692913385
        },
        {
          "duration": 1.9333333333333371,
          "durationTicks": 464,
          "midi": 55,
          "name": "G3",
          "ticks": 41760,
          "time": 174,
          "velocity": 0.5039370078740157
        },
        {
          "duration": 1.9000000000000057,
          "durationTicks": 456,
          "midi": 53,
          "name": "F3",
          "ticks": 42240,
          "time": 176,
          "velocity": 0.8346456692913385
        },
        {
          "duration": 1.9000000000000057,
          "durationTicks": 456,
          "midi": 46,
          "name": "A#2",
          "ticks": 42240,
          "time": 176,
          "velocity": 0.8346456692913385
        },
        {
          "duration": 1.9333333333333371,
          "durationTicks": 464,
          "midi": 58,
          "name": "A#3",
          "ticks": 42240,
          "time": 176,
          "velocity": 0.5039370078740157
        },
        {
          "duration": 1.9000000000000057,
          "durationTicks": 456,
          "midi": 53,
          "name": "F3",
          "ticks": 42720,
          "time": 178,
          "velocity": 0.8346456692913385
        },
        {
          "duration": 1.9333333333333371,
          "durationTicks": 464,
          "midi": 65,
          "name": "F4",
          "ticks": 42720,
          "time": 178,
          "velocity": 0.5039370078740157
        },
        {
          "duration": 1.9000000000000057,
          "durationTicks": 456,
          "midi": 60,
          "name": "C4",
          "ticks": 42720,
          "time": 178,
          "velocity": 0.8346456692913385
        },
        {
          "duration": 1.9333333333333371,
          "durationTicks": 464,
          "midi": 60,
          "name": "C4",
          "ticks": 43200,
          "time": 180,
          "velocity": 0.5039370078740157
        },
        {
          "duration": 1.9000000000000057,
          "durationTicks": 456,
          "midi": 55,
          "name": "G3",
          "ticks": 43200,
          "time": 180,
          "velocity": 0.8346456692913385
        },
        {
          "duration": 1.9666666666666686,
          "durationTicks": 472,
          "midi": 48,
          "name": "C3",
          "ticks": 43200,
          "time": 180,
          "velocity": 0.8346456692913385
        },
        {
          "duration": 1.9000000000000057,
          "durationTicks": 456,
          "midi": 50,
          "name": "D3",
          "ticks": 43680,
          "time": 182,
          "velocity": 0.8346456692913385
        },
        {
          "duration": 1.9000000000000057,
          "durationTicks": 456,
          "midi": 43,
          "name": "G2",
          "ticks": 43680,
          "time": 182,
          "velocity": 0.8346456692913385
        },
        {
          "duration": 1.9333333333333371,
          "durationTicks": 464,
          "midi": 55,
          "name": "G3",
          "ticks": 43680,
          "time": 182,
          "velocity": 0.5039370078740157
        },
        {
          "duration": 1.9000000000000057,
          "durationTicks": 456,
          "midi": 46,
          "name": "A#2",
          "ticks": 44160,
          "time": 184,
          "velocity": 0.8346456692913385
        },
        {
          "duration": 1.9000000000000057,
          "durationTicks": 456,
          "midi": 53,
          "name": "F3",
          "ticks": 44160,
          "time": 184,
          "velocity": 0.8346456692913385
        },
        {
          "duration": 1.9333333333333371,
          "durationTicks": 464,
          "midi": 58,
          "name": "A#3",
          "ticks": 44160,
          "time": 184,
          "velocity": 0.5039370078740157
        },
        {
          "duration": 1.9000000000000057,
          "durationTicks": 456,
          "midi": 53,
          "name": "F3",
          "ticks": 44640,
          "time": 186,
          "velocity": 0.8346456692913385
        },
        {
          "duration": 1.9000000000000057,
          "durationTicks": 456,
          "midi": 60,
          "name": "C4",
          "ticks": 44640,
          "time": 186,
          "velocity": 0.8346456692913385
        },
        {
          "duration": 1.9333333333333371,
          "durationTicks": 464,
          "midi": 65,
          "name": "F4",
          "ticks": 44640,
          "time": 186,
          "velocity": 0.5039370078740157
        },
        {
          "duration": 1.9666666666666686,
          "durationTicks": 472,
          "midi": 48,
          "name": "C3",
          "ticks": 45120,
          "time": 188,
          "velocity": 0.8346456692913385
        },
        {
          "duration": 1.9000000000000057,
          "durationTicks": 456,
          "midi": 55,
          "name": "G3",
          "ticks": 45120,
          "time": 188,
          "velocity": 0.8346456692913385
        },
        {
          "duration": 1.9333333333333371,
          "durationTicks": 464,
          "midi": 60,
          "name": "C4",
          "ticks": 45120,
          "time": 188,
          "velocity": 0.5039370078740157
        },
        {
          "duration": 1.9000000000000057,
          "durationTicks": 456,
          "midi": 43,
          "name": "G2",
          "ticks": 45600,
          "time": 190,
          "velocity": 0.8346456692913385
        },
        {
          "duration": 1.9333333333333371,
          "durationTicks": 464,
          "midi": 55,
          "name": "G3",
          "ticks": 45600,
          "time": 190,
          "velocity": 0.5039370078740157
        },
        {
          "duration": 1.9000000000000057,
          "durationTicks": 456,
          "midi": 50,
          "name": "D3",
          "ticks": 45600,
          "time": 190,
          "velocity": 0.8346456692913385
        },
        {
          "duration": 1.9333333333333371,
          "durationTicks": 464,
          "midi": 58,
          "name": "A#3",
          "ticks": 46080,
          "time": 192,
          "velocity": 0.5039370078740157
        },
        {
          "duration": 1.9000000000000057,
          "durationTicks": 456,
          "midi": 53,
          "name": "F3",
          "ticks": 46080,
          "time": 192,
          "velocity": 0.8346456692913385
        },
        {
          "duration": 1.9000000000000057,
          "durationTicks": 456,
          "midi": 46,
          "name": "A#2",
          "ticks": 46080,
          "time": 192,
          "velocity": 0.8346456692913385
        },
        {
          "duration": 1.9000000000000057,
          "durationTicks": 456,
          "midi": 53,
          "name": "F3",
          "ticks": 46560,
          "time": 194,
          "velocity": 0.8346456692913385
        },
        {
          "duration": 1.9333333333333371,
          "durationTicks": 464,
          "midi": 65,
          "name": "F4",
          "ticks": 46560,
          "time": 194,
          "velocity": 0.5039370078740157
        },
        {
          "duration": 1.9000000000000057,
          "durationTicks": 456,
          "midi": 60,
          "name": "C4",
          "ticks": 46560,
          "time": 194,
          "velocity": 0.8346456692913385
        },
        {
          "duration": 1.9666666666666686,
          "durationTicks": 472,
          "midi": 48,
          "name": "C3",
          "ticks": 47040,
          "time": 196,
          "velocity": 0.8346456692913385
        },
        {
          "duration": 1.9000000000000057,
          "durationTicks": 456,
          "midi": 55,
          "name": "G3",
          "ticks": 47040,
          "time": 196,
          "velocity": 0.8346456692913385
        },
        {
          "duration": 1.9333333333333371,
          "durationTicks": 464,
          "midi": 60,
          "name": "C4",
          "ticks": 47040,
          "time": 196,
          "velocity": 0.5039370078740157
        }
      ]
    },
    {
      "channel": 0,
      "controlChanges": {
        "0": [
          {
            "number": 0,
            "ticks": 0,
            "time": 0,
            "value": 0
          }
        ]
      },
      "pitchBends": [],
      "instrument": {
        "family": "piano",
        "number": 0,
        "name": "acoustic grand piano"
      },
      "name": "3",
      "notes": [],
      "endOfTrackTicks": 49912
    },
    {
      "channel": 2,
      "controlChanges": {
        "7": [
          {
            "number": 7,
            "ticks": 0,
            "time": 0,
            "value": 0.7795275590551181
          }
        ],
        "10": [
          {
            "number": 10,
            "ticks": 0,
            "time": 0,
            "value": 0.5039370078740157
          }
        ],
        "91": [
          {
            "number": 91,
            "ticks": 0,
            "time": 0,
            "value": 0.31496062992125984
          }
        ],
        "93": [
          {
            "number": 93,
            "ticks": 0,
            "time": 0,
            "value": 0
          }
        ]
      },
      "pitchBends": [],
      "instrument": {
        "family": "piano",
        "number": 2,
        "name": "electric grand piano"
      },
      "name": "",
      "notes": [
        {
          "duration": 0.2833333333333332,
          "durationTicks": 68,
          "midi": 67,
          "name": "G4",
          "ticks": 1920,
          "time": 8,
          "velocity": 0.8346456692913385
        },
        {
          "duration": 0.31666666666666643,
          "durationTicks": 76,
          "midi": 74,
          "name": "D5",
          "ticks": 1980,
          "time": 8.25,
          "velocity": 0.8346456692913385
        },
        {
          "duration": 0.2833333333333332,
          "durationTicks": 68,
          "midi": 67,
          "name": "G4",
          "ticks": 2040,
          "time": 8.5,
          "velocity": 0.8346456692913385
        },
        {
          "duration": 0.3000000000000007,
          "durationTicks": 72,
          "midi": 74,
          "name": "D5",
          "ticks": 2100,
          "time": 8.75,
          "velocity": 0.8346456692913385
        },
        {
          "duration": 0.31666666666666643,
          "durationTicks": 76,
          "midi": 75,
          "name": "D#5",
          "ticks": 2160,
          "time": 9,
          "velocity": 0.8346456692913385
        },
        {
          "duration": 0.3333333333333339,
          "durationTicks": 80,
          "midi": 74,
          "name": "D5",
          "ticks": 2220,
          "time": 9.25,
          "velocity": 0.8346456692913385
        },
        {
          "duration": 0.3000000000000007,
          "durationTicks": 72,
          "midi": 67,
          "name": "G4",
          "ticks": 2280,
          "time": 9.5,
          "velocity": 0.8346456692913385
        },
        {
          "duration": 0.36666666666666714,
          "durationTicks": 88,
          "midi": 74,
          "name": "D5",
          "ticks": 2340,
          "time": 9.75,
          "velocity": 0.8346456692913385
        },
        {
          "duration": 0.2833333333333332,
          "durationTicks": 68,
          "midi": 67,
          "name": "G4",
          "ticks": 2400,
          "time": 10,
          "velocity": 0.8346456692913385
        },
        {
          "duration": 0.31666666666666643,
          "durationTicks": 76,
          "midi": 74,
          "name": "D5",
          "ticks": 2460,
          "time": 10.25,
          "velocity": 0.8346456692913385
        },
        {
          "duration": 0.2833333333333332,
          "durationTicks": 68,
          "midi": 67,
          "name": "G4",
          "ticks": 2520,
          "time": 10.5,
          "velocity": 0.8346456692913385
        },
        {
          "duration": 0.3000000000000007,
          "durationTicks": 72,
          "midi": 74,
          "name": "D5",
          "ticks": 2580,
          "time": 10.75,
          "velocity": 0.8346456692913385
        },
        {
          "duration": 0.31666666666666643,
          "durationTicks": 76,
          "midi": 75,
          "name": "D#5",
          "ticks": 2640,
          "time": 11,
          "velocity": 0.8346456692913385
        },
        {
          "duration": 0.3333333333333339,
          "durationTicks": 80,
          "midi": 74,
          "name": "D5",
          "ticks": 2700,
          "time": 11.25,
          "velocity": 0.8346456692913385
        },
        {
          "duration": 0.3000000000000007,
          "durationTicks": 72,
          "midi": 67,
          "name": "G4",
          "ticks": 2760,
          "time": 11.5,
          "velocity": 0.8346456692913385
        },
        {
          "duration": 0.34999999999999964,
          "durationTicks": 84,
          "midi": 74,
          "name": "D5",
          "ticks": 2820,
          "time": 11.75,
          "velocity": 0.8346456692913385
        },
        {
          "duration": 0.2833333333333332,
          "durationTicks": 68,
          "midi": 67,
          "name": "G4",
          "ticks": 2880,
          "time": 12,
          "velocity": 0.8346456692913385
        },
        {
          "duration": 0.31666666666666643,
          "durationTicks": 76,
          "midi": 74,
          "name": "D5",
          "ticks": 2940,
          "time": 12.25,
          "velocity": 0.8346456692913385
        },
        {
          "duration": 0.2833333333333332,
          "durationTicks": 68,
          "midi": 67,
          "name": "G4",
          "ticks": 3000,
          "time": 12.5,
          "velocity": 0.8346456692913385
        },
        {
          "duration": 0.3000000000000007,
          "durationTicks": 72,
          "midi": 74,
          "name": "D5",
          "ticks": 3060,
          "time": 12.75,
          "velocity": 0.8346456692913385
        },
        {
          "duration": 0.31666666666666643,
          "durationTicks": 76,
          "midi": 75,
          "name": "D#5",
          "ticks": 3120,
          "time": 13,
          "velocity": 0.8346456692913385
        },
        {
          "duration": 0.3333333333333339,
          "durationTicks": 80,
          "midi": 74,
          "name": "D5",
          "ticks": 3180,
          "time": 13.25,
          "velocity": 0.8346456692913385
        },
        {
          "duration": 0.3000000000000007,
          "durationTicks": 72,
          "midi": 67,
          "name": "G4",
          "ticks": 3240,
          "time": 13.5,
          "velocity": 0.8346456692913385
        },
        {
          "duration": 0.31666666666666643,
          "durationTicks": 76,
          "midi": 74,
          "name": "D5",
          "ticks": 3300,
          "time": 13.75,
          "velocity": 0.8346456692913385
        },
        {
          "duration": 0.2833333333333332,
          "durationTicks": 68,
          "midi": 67,
          "name": "G4",
          "ticks": 3360,
          "time": 14,
          "velocity": 0.8346456692913385
        },
        {
          "duration": 0.31666666666666643,
          "durationTicks": 76,
          "midi": 74,
          "name": "D5",
          "ticks": 3420,
          "time": 14.25,
          "velocity": 0.8346456692913385
        },
        {
          "duration": 0.2833333333333332,
          "durationTicks": 68,
          "midi": 67,
          "name": "G4",
          "ticks": 3480,
          "time": 14.5,
          "velocity": 0.8346456692913385
        },
        {
          "duration": 0.3000000000000007,
          "durationTicks": 72,
          "midi": 74,
          "name": "D5",
          "ticks": 3540,
          "time": 14.75,
          "velocity": 0.8346456692913385
        },
        {
          "duration": 0.31666666666666643,
          "durationTicks": 76,
          "midi": 75,
          "name": "D#5",
          "ticks": 3600,
          "time": 15,
          "velocity": 0.8346456692913385
        },
        {
          "duration": 0.3333333333333339,
          "durationTicks": 80,
          "midi": 74,
          "name": "D5",
          "ticks": 3660,
          "time": 15.25,
          "velocity": 0.8346456692913385
        },
        {
          "duration": 0.3000000000000007,
          "durationTicks": 72,
          "midi": 67,
          "name": "G4",
          "ticks": 3720,
          "time": 15.5,
          "velocity": 0.8346456692913385
        },
        {
          "duration": 0.31666666666666643,
          "durationTicks": 76,
          "midi": 74,
          "name": "D5",
          "ticks": 3780,
          "time": 15.75,
          "velocity": 0.8346456692913385
        },
        {
          "duration": 0.283333333333335,
          "durationTicks": 68,
          "midi": 67,
          "name": "G4",
          "ticks": 3840,
          "time": 16,
          "velocity": 0.8346456692913385
        },
        {
          "duration": 0.31666666666666643,
          "durationTicks": 76,
          "midi": 74,
          "name": "D5",
          "ticks": 3900,
          "time": 16.25,
          "velocity": 0.8346456692913385
        },
        {
          "duration": 0.283333333333335,
          "durationTicks": 68,
          "midi": 67,
          "name": "G4",
          "ticks": 3960,
          "time": 16.5,
          "velocity": 0.8346456692913385
        },
        {
          "duration": 0.3000000000000007,
          "durationTicks": 72,
          "midi": 74,
          "name": "D5",
          "ticks": 4020,
          "time": 16.75,
          "velocity": 0.8346456692913385
        },
        {
          "duration": 0.31666666666666643,
          "durationTicks": 76,
          "midi": 75,
          "name": "D#5",
          "ticks": 4080,
          "time": 17,
          "velocity": 0.8346456692913385
        },
        {
          "duration": 0.33333333333333215,
          "durationTicks": 80,
          "midi": 74,
          "name": "D5",
          "ticks": 4140,
          "time": 17.25,
          "velocity": 0.8346456692913385
        },
        {
          "duration": 0.3000000000000007,
          "durationTicks": 72,
          "midi": 67,
          "name": "G4",
          "ticks": 4200,
          "time": 17.5,
          "velocity": 0.8346456692913385
        },
        {
          "duration": 0.31666666666666643,
          "durationTicks": 76,
          "midi": 74,
          "name": "D5",
          "ticks": 4260,
          "time": 17.75,
          "velocity": 0.8346456692913385
        },
        {
          "duration": 0.283333333333335,
          "durationTicks": 68,
          "midi": 67,
          "name": "G4",
          "ticks": 4320,
          "time": 18,
          "velocity": 0.8346456692913385
        },
        {
          "duration": 0.31666666666666643,
          "durationTicks": 76,
          "midi": 74,
          "name": "D5",
          "ticks": 4380,
          "time": 18.25,
          "velocity": 0.8346456692913385
        },
        {
          "duration": 0.283333333333335,
          "durationTicks": 68,
          "midi": 67,
          "name": "G4",
          "ticks": 4440,
          "time": 18.5,
          "velocity": 0.8346456692913385
        },
        {
          "duration": 0.3000000000000007,
          "durationTicks": 72,
          "midi": 74,
          "name": "D5",
          "ticks": 4500,
          "time": 18.75,
          "velocity": 0.8346456692913385
        },
        {
          "duration": 0.31666666666666643,
          "durationTicks": 76,
          "midi": 75,
          "name": "D#5",
          "ticks": 4560,
          "time": 19,
          "velocity": 0.8346456692913385
        },
        {
          "duration": 0.33333333333333215,
          "durationTicks": 80,
          "midi": 74,
          "name": "D5",
          "ticks": 4620,
          "time": 19.25,
          "velocity": 0.8346456692913385
        },
        {
          "duration": 0.3000000000000007,
          "durationTicks": 72,
          "midi": 67,
          "name": "G4",
          "ticks": 4680,
          "time": 19.5,
          "velocity": 0.8346456692913385
        },
        {
          "duration": 0.31666666666666643,
          "durationTicks": 76,
          "midi": 74,
          "name": "D5",
          "ticks": 4740,
          "time": 19.75,
          "velocity": 0.8346456692913385
        },
        {
          "duration": 0.283333333333335,
          "durationTicks": 68,
          "midi": 67,
          "name": "G4",
          "ticks": 4800,
          "time": 20,
          "velocity": 0.8346456692913385
        },
        {
          "duration": 0.31666666666666643,
          "durationTicks": 76,
          "midi": 74,
          "name": "D5",
          "ticks": 4860,
          "time": 20.25,
          "velocity": 0.8346456692913385
        },
        {
          "duration": 0.283333333333335,
          "durationTicks": 68,
          "midi": 67,
          "name": "G4",
          "ticks": 4920,
          "time": 20.5,
          "velocity": 0.8346456692913385
        },
        {
          "duration": 0.3000000000000007,
          "durationTicks": 72,
          "midi": 74,
          "name": "D5",
          "ticks": 4980,
          "time": 20.75,
          "velocity": 0.8346456692913385
        },
        {
          "duration": 0.31666666666666643,
          "durationTicks": 76,
          "midi": 75,
          "name": "D#5",
          "ticks": 5040,
          "time": 21,
          "velocity": 0.8346456692913385
        },
        {
          "duration": 0.33333333333333215,
          "durationTicks": 80,
          "midi": 74,
          "name": "D5",
          "ticks": 5100,
          "time": 21.25,
          "velocity": 0.8346456692913385
        },
        {
          "duration": 0.3000000000000007,
          "durationTicks": 72,
          "midi": 67,
          "name": "G4",
          "ticks": 5160,
          "time": 21.5,
          "velocity": 0.8346456692913385
        },
        {
          "duration": 0.31666666666666643,
          "durationTicks": 76,
          "midi": 74,
          "name": "D5",
          "ticks": 5220,
          "time": 21.75,
          "velocity": 0.8346456692913385
        },
        {
          "duration": 0.283333333333335,
          "durationTicks": 68,
          "midi": 67,
          "name": "G4",
          "ticks": 5280,
          "time": 22,
          "velocity": 0.8346456692913385
        },
        {
          "duration": 0.31666666666666643,
          "durationTicks": 76,
          "midi": 74,
          "name": "D5",
          "ticks": 5340,
          "time": 22.25,
          "velocity": 0.8346456692913385
        },
        {
          "duration": 0.283333333333335,
          "durationTicks": 68,
          "midi": 67,
          "name": "G4",
          "ticks": 5400,
          "time": 22.5,
          "velocity": 0.8346456692913385
        },
        {
          "duration": 0.3000000000000007,
          "durationTicks": 72,
          "midi": 74,
          "name": "D5",
          "ticks": 5460,
          "time": 22.75,
          "velocity": 0.8346456692913385
        },
        {
          "duration": 0.31666666666666643,
          "durationTicks": 76,
          "midi": 75,
          "name": "D#5",
          "ticks": 5520,
          "time": 23,
          "velocity": 0.8346456692913385
        },
        {
          "duration": 0.33333333333333215,
          "durationTicks": 80,
          "midi": 74,
          "name": "D5",
          "ticks": 5580,
          "time": 23.25,
          "velocity": 0.8346456692913385
        },
        {
          "duration": 0.3000000000000007,
          "durationTicks": 72,
          "midi": 67,
          "name": "G4",
          "ticks": 5640,
          "time": 23.5,
          "velocity": 0.8346456692913385
        },
        {
          "duration": 0.31666666666666643,
          "durationTicks": 76,
          "midi": 74,
          "name": "D5",
          "ticks": 5700,
          "time": 23.75,
          "velocity": 0.8346456692913385
        },
        {
          "duration": 0.283333333333335,
          "durationTicks": 68,
          "midi": 67,
          "name": "G4",
          "ticks": 5760,
          "time": 24,
          "velocity": 0.8346456692913385
        },
        {
          "duration": 0.31666666666666643,
          "durationTicks": 76,
          "midi": 74,
          "name": "D5",
          "ticks": 5820,
          "time": 24.25,
          "velocity": 0.8346456692913385
        },
        {
          "duration": 0.283333333333335,
          "durationTicks": 68,
          "midi": 67,
          "name": "G4",
          "ticks": 5880,
          "time": 24.5,
          "velocity": 0.8346456692913385
        },
        {
          "duration": 0.3000000000000007,
          "durationTicks": 72,
          "midi": 74,
          "name": "D5",
          "ticks": 5940,
          "time": 24.75,
          "velocity": 0.8346456692913385
        },
        {
          "duration": 0.31666666666666643,
          "durationTicks": 76,
          "midi": 75,
          "name": "D#5",
          "ticks": 6000,
          "time": 25,
          "velocity": 0.8346456692913385
        },
        {
          "duration": 0.33333333333333215,
          "durationTicks": 80,
          "midi": 74,
          "name": "D5",
          "ticks": 6060,
          "time": 25.25,
          "velocity": 0.8346456692913385
        },
        {
          "duration": 0.3000000000000007,
          "durationTicks": 72,
          "midi": 67,
          "name": "G4",
          "ticks": 6120,
          "time": 25.5,
          "velocity": 0.8346456692913385
        },
        {
          "duration": 0.31666666666666643,
          "durationTicks": 76,
          "midi": 74,
          "name": "D5",
          "ticks": 6180,
          "time": 25.75,
          "velocity": 0.8346456692913385
        },
        {
          "duration": 0.283333333333335,
          "durationTicks": 68,
          "midi": 67,
          "name": "G4",
          "ticks": 6240,
          "time": 26,
          "velocity": 0.8346456692913385
        },
        {
          "duration": 0.31666666666666643,
          "durationTicks": 76,
          "midi": 74,
          "name": "D5",
          "ticks": 6300,
          "time": 26.25,
          "velocity": 0.8346456692913385
        },
        {
          "duration": 0.283333333333335,
          "durationTicks": 68,
          "midi": 67,
          "name": "G4",
          "ticks": 6360,
          "time": 26.5,
          "velocity": 0.8346456692913385
        },
        {
          "duration": 0.3000000000000007,
          "durationTicks": 72,
          "midi": 74,
          "name": "D5",
          "ticks": 6420,
          "time": 26.75,
          "velocity": 0.8346456692913385
        },
        {
          "duration": 0.31666666666666643,
          "durationTicks": 76,
          "midi": 75,
          "name": "D#5",
          "ticks": 6480,
          "time": 27,
          "velocity": 0.8346456692913385
        },
        {
          "duration": 0.33333333333333215,
          "durationTicks": 80,
          "midi": 74,
          "name": "D5",
          "ticks": 6540,
          "time": 27.25,
          "velocity": 0.8346456692913385
        },
        {
          "duration": 0.3000000000000007,
          "durationTicks": 72,
          "midi": 67,
          "name": "G4",
          "ticks": 6600,
          "time": 27.5,
          "velocity": 0.8346456692913385
        },
        {
          "duration": 0.216666666666665,
          "durationTicks": 52,
          "midi": 74,
          "name": "D5",
          "ticks": 6660,
          "time": 27.75,
          "velocity": 0.8346456692913385
        },
        {
          "duration": 0.283333333333335,
          "durationTicks": 68,
          "midi": 67,
          "name": "G4",
          "ticks": 6720,
          "time": 28,
          "velocity": 0.6929133858267716
        },
        {
          "duration": 0.31666666666666643,
          "durationTicks": 76,
          "midi": 74,
          "name": "D5",
          "ticks": 6780,
          "time": 28.25,
          "velocity": 0.6929133858267716
        },
        {
          "duration": 0.283333333333335,
          "durationTicks": 68,
          "midi": 67,
          "name": "G4",
          "ticks": 6840,
          "time": 28.5,
          "velocity": 0.6929133858267716
        },
        {
          "duration": 0.3000000000000007,
          "durationTicks": 72,
          "midi": 74,
          "name": "D5",
          "ticks": 6900,
          "time": 28.75,
          "velocity": 0.6929133858267716
        },
        {
          "duration": 0.31666666666666643,
          "durationTicks": 76,
          "midi": 75,
          "name": "D#5",
          "ticks": 6960,
          "time": 29,
          "velocity": 0.6929133858267716
        },
        {
          "duration": 0.33333333333333215,
          "durationTicks": 80,
          "midi": 74,
          "name": "D5",
          "ticks": 7020,
          "time": 29.25,
          "velocity": 0.6929133858267716
        },
        {
          "duration": 0.3000000000000007,
          "durationTicks": 72,
          "midi": 67,
          "name": "G4",
          "ticks": 7080,
          "time": 29.5,
          "velocity": 0.6929133858267716
        },
        {
          "duration": 0.31666666666666643,
          "durationTicks": 76,
          "midi": 74,
          "name": "D5",
          "ticks": 7140,
          "time": 29.75,
          "velocity": 0.6929133858267716
        },
        {
          "duration": 0.283333333333335,
          "durationTicks": 68,
          "midi": 67,
          "name": "G4",
          "ticks": 7200,
          "time": 30,
          "velocity": 0.6929133858267716
        },
        {
          "duration": 0.31666666666666643,
          "durationTicks": 76,
          "midi": 74,
          "name": "D5",
          "ticks": 7260,
          "time": 30.25,
          "velocity": 0.7007874015748031
        },
        {
          "duration": 0.283333333333335,
          "durationTicks": 68,
          "midi": 67,
          "name": "G4",
          "ticks": 7320,
          "time": 30.5,
          "velocity": 0.7007874015748031
        },
        {
          "duration": 0.3000000000000007,
          "durationTicks": 72,
          "midi": 74,
          "name": "D5",
          "ticks": 7380,
          "time": 30.75,
          "velocity": 0.7007874015748031
        },
        {
          "duration": 0.31666666666666643,
          "durationTicks": 76,
          "midi": 75,
          "name": "D#5",
          "ticks": 7440,
          "time": 31,
          "velocity": 0.6929133858267716
        },
        {
          "duration": 0.33333333333333215,
          "durationTicks": 80,
          "midi": 74,
          "name": "D5",
          "ticks": 7500,
          "time": 31.25,
          "velocity": 0.6929133858267716
        },
        {
          "duration": 0.3000000000000007,
          "durationTicks": 72,
          "midi": 67,
          "name": "G4",
          "ticks": 7560,
          "time": 31.5,
          "velocity": 0.6929133858267716
        },
        {
          "duration": 0.31666666666667,
          "durationTicks": 76,
          "midi": 74,
          "name": "D5",
          "ticks": 7620,
          "time": 31.75,
          "velocity": 0.6929133858267716
        },
        {
          "duration": 0.28333333333333144,
          "durationTicks": 68,
          "midi": 67,
          "name": "G4",
          "ticks": 7680,
          "time": 32,
          "velocity": 0.6929133858267716
        },
        {
          "duration": 0.31666666666667,
          "durationTicks": 76,
          "midi": 74,
          "name": "D5",
          "ticks": 7740,
          "time": 32.25,
          "velocity": 0.6929133858267716
        },
        {
          "duration": 0.28333333333333144,
          "durationTicks": 68,
          "midi": 67,
          "name": "G4",
          "ticks": 7800,
          "time": 32.5,
          "velocity": 0.6929133858267716
        },
        {
          "duration": 0.29999999999999716,
          "durationTicks": 72,
          "midi": 74,
          "name": "D5",
          "ticks": 7860,
          "time": 32.75,
          "velocity": 0.6929133858267716
        },
        {
          "duration": 0.31666666666667,
          "durationTicks": 76,
          "midi": 75,
          "name": "D#5",
          "ticks": 7920,
          "time": 33,
          "velocity": 0.6929133858267716
        },
        {
          "duration": 0.3333333333333357,
          "durationTicks": 80,
          "midi": 74,
          "name": "D5",
          "ticks": 7980,
          "time": 33.25,
          "velocity": 0.6929133858267716
        },
        {
          "duration": 0.29999999999999716,
          "durationTicks": 72,
          "midi": 67,
          "name": "G4",
          "ticks": 8040,
          "time": 33.5,
          "velocity": 0.6929133858267716
        },
        {
          "duration": 0.31666666666667,
          "durationTicks": 76,
          "midi": 74,
          "name": "D5",
          "ticks": 8100,
          "time": 33.75,
          "velocity": 0.7007874015748031
        },
        {
          "duration": 0.28333333333333144,
          "durationTicks": 68,
          "midi": 67,
          "name": "G4",
          "ticks": 8160,
          "time": 34,
          "velocity": 0.6929133858267716
        },
        {
          "duration": 0.31666666666667,
          "durationTicks": 76,
          "midi": 74,
          "name": "D5",
          "ticks": 8220,
          "time": 34.25,
          "velocity": 0.6929133858267716
        },
        {
          "duration": 0.28333333333333144,
          "durationTicks": 68,
          "midi": 67,
          "name": "G4",
          "ticks": 8280,
          "time": 34.5,
          "velocity": 0.6929133858267716
        },
        {
          "duration": 0.29999999999999716,
          "durationTicks": 72,
          "midi": 74,
          "name": "D5",
          "ticks": 8340,
          "time": 34.75,
          "velocity": 0.6929133858267716
        },
        {
          "duration": 0.31666666666667,
          "durationTicks": 76,
          "midi": 75,
          "name": "D#5",
          "ticks": 8400,
          "time": 35,
          "velocity": 0.6929133858267716
        },
        {
          "duration": 0.3333333333333357,
          "durationTicks": 80,
          "midi": 74,
          "name": "D5",
          "ticks": 8460,
          "time": 35.25,
          "velocity": 0.7007874015748031
        },
        {
          "duration": 0.29999999999999716,
          "durationTicks": 72,
          "midi": 67,
          "name": "G4",
          "ticks": 8520,
          "time": 35.5,
          "velocity": 0.7007874015748031
        },
        {
          "duration": 0.31666666666667,
          "durationTicks": 76,
          "midi": 74,
          "name": "D5",
          "ticks": 8580,
          "time": 35.75,
          "velocity": 0.7007874015748031
        },
        {
          "duration": 0.28333333333333144,
          "durationTicks": 68,
          "midi": 67,
          "name": "G4",
          "ticks": 8640,
          "time": 36,
          "velocity": 0.7007874015748031
        },
        {
          "duration": 0.31666666666667,
          "durationTicks": 76,
          "midi": 74,
          "name": "D5",
          "ticks": 8700,
          "time": 36.25,
          "velocity": 0.6929133858267716
        },
        {
          "duration": 0.28333333333333144,
          "durationTicks": 68,
          "midi": 67,
          "name": "G4",
          "ticks": 8760,
          "time": 36.5,
          "velocity": 0.6929133858267716
        },
        {
          "duration": 0.29999999999999716,
          "durationTicks": 72,
          "midi": 74,
          "name": "D5",
          "ticks": 8820,
          "time": 36.75,
          "velocity": 0.6929133858267716
        },
        {
          "duration": 0.31666666666667,
          "durationTicks": 76,
          "midi": 75,
          "name": "D#5",
          "ticks": 8880,
          "time": 37,
          "velocity": 0.6929133858267716
        },
        {
          "duration": 0.3333333333333357,
          "durationTicks": 80,
          "midi": 74,
          "name": "D5",
          "ticks": 8940,
          "time": 37.25,
          "velocity": 0.6929133858267716
        },
        {
          "duration": 0.29999999999999716,
          "durationTicks": 72,
          "midi": 67,
          "name": "G4",
          "ticks": 9000,
          "time": 37.5,
          "velocity": 0.7007874015748031
        },
        {
          "duration": 0.31666666666667,
          "durationTicks": 76,
          "midi": 74,
          "name": "D5",
          "ticks": 9060,
          "time": 37.75,
          "velocity": 0.7007874015748031
        },
        {
          "duration": 0.28333333333333144,
          "durationTicks": 68,
          "midi": 67,
          "name": "G4",
          "ticks": 9120,
          "time": 38,
          "velocity": 0.7007874015748031
        },
        {
          "duration": 0.31666666666667,
          "durationTicks": 76,
          "midi": 74,
          "name": "D5",
          "ticks": 9180,
          "time": 38.25,
          "velocity": 0.6929133858267716
        },
        {
          "duration": 0.28333333333333144,
          "durationTicks": 68,
          "midi": 67,
          "name": "G4",
          "ticks": 9240,
          "time": 38.5,
          "velocity": 0.6929133858267716
        },
        {
          "duration": 0.29999999999999716,
          "durationTicks": 72,
          "midi": 74,
          "name": "D5",
          "ticks": 9300,
          "time": 38.75,
          "velocity": 0.6929133858267716
        },
        {
          "duration": 0.31666666666667,
          "durationTicks": 76,
          "midi": 75,
          "name": "D#5",
          "ticks": 9360,
          "time": 39,
          "velocity": 0.6929133858267716
        },
        {
          "duration": 0.3333333333333357,
          "durationTicks": 80,
          "midi": 74,
          "name": "D5",
          "ticks": 9420,
          "time": 39.25,
          "velocity": 0.7007874015748031
        },
        {
          "duration": 0.29999999999999716,
          "durationTicks": 72,
          "midi": 67,
          "name": "G4",
          "ticks": 9480,
          "time": 39.5,
          "velocity": 0.7007874015748031
        },
        {
          "duration": 0.31666666666667,
          "durationTicks": 76,
          "midi": 74,
          "name": "D5",
          "ticks": 9540,
          "time": 39.75,
          "velocity": 0.6929133858267716
        },
        {
          "duration": 0.28333333333333144,
          "durationTicks": 68,
          "midi": 67,
          "name": "G4",
          "ticks": 9600,
          "time": 40,
          "velocity": 0.6929133858267716
        },
        {
          "duration": 0.31666666666667,
          "durationTicks": 76,
          "midi": 74,
          "name": "D5",
          "ticks": 9660,
          "time": 40.25,
          "velocity": 0.6929133858267716
        },
        {
          "duration": 0.28333333333333144,
          "durationTicks": 68,
          "midi": 67,
          "name": "G4",
          "ticks": 9720,
          "time": 40.5,
          "velocity": 0.6929133858267716
        },
        {
          "duration": 0.29999999999999716,
          "durationTicks": 72,
          "midi": 74,
          "name": "D5",
          "ticks": 9780,
          "time": 40.75,
          "velocity": 0.6929133858267716
        },
        {
          "duration": 0.31666666666667,
          "durationTicks": 76,
          "midi": 75,
          "name": "D#5",
          "ticks": 9840,
          "time": 41,
          "velocity": 0.6929133858267716
        },
        {
          "duration": 0.3333333333333357,
          "durationTicks": 80,
          "midi": 74,
          "name": "D5",
          "ticks": 9900,
          "time": 41.25,
          "velocity": 0.6929133858267716
        },
        {
          "duration": 0.29999999999999716,
          "durationTicks": 72,
          "midi": 67,
          "name": "G4",
          "ticks": 9960,
          "time": 41.5,
          "velocity": 0.6929133858267716
        },
        {
          "duration": 0.31666666666667,
          "durationTicks": 76,
          "midi": 74,
          "name": "D5",
          "ticks": 10020,
          "time": 41.75,
          "velocity": 0.6929133858267716
        },
        {
          "duration": 0.28333333333333144,
          "durationTicks": 68,
          "midi": 67,
          "name": "G4",
          "ticks": 10080,
          "time": 42,
          "velocity": 0.6929133858267716
        },
        {
          "duration": 0.31666666666667,
          "durationTicks": 76,
          "midi": 74,
          "name": "D5",
          "ticks": 10140,
          "time": 42.25,
          "velocity": 0.6929133858267716
        },
        {
          "duration": 0.28333333333333144,
          "durationTicks": 68,
          "midi": 67,
          "name": "G4",
          "ticks": 10200,
          "time": 42.5,
          "velocity": 0.6929133858267716
        },
        {
          "duration": 0.29999999999999716,
          "durationTicks": 72,
          "midi": 74,
          "name": "D5",
          "ticks": 10260,
          "time": 42.75,
          "velocity": 0.6929133858267716
        },
        {
          "duration": 0.31666666666667,
          "durationTicks": 76,
          "midi": 75,
          "name": "D#5",
          "ticks": 10320,
          "time": 43,
          "velocity": 0.6929133858267716
        },
        {
          "duration": 0.3333333333333357,
          "durationTicks": 80,
          "midi": 74,
          "name": "D5",
          "ticks": 10380,
          "time": 43.25,
          "velocity": 0.6929133858267716
        },
        {
          "duration": 0.29999999999999716,
          "durationTicks": 72,
          "midi": 67,
          "name": "G4",
          "ticks": 10440,
          "time": 43.5,
          "velocity": 0.6929133858267716
        },
        {
          "duration": 0.31666666666667,
          "durationTicks": 76,
          "midi": 74,
          "name": "D5",
          "ticks": 10500,
          "time": 43.75,
          "velocity": 0.7007874015748031
        },
        {
          "duration": 0.28333333333333144,
          "durationTicks": 68,
          "midi": 67,
          "name": "G4",
          "ticks": 10560,
          "time": 44,
          "velocity": 0.6929133858267716
        },
        {
          "duration": 0.31666666666667,
          "durationTicks": 76,
          "midi": 74,
          "name": "D5",
          "ticks": 10620,
          "time": 44.25,
          "velocity": 0.6929133858267716
        },
        {
          "duration": 0.28333333333333144,
          "durationTicks": 68,
          "midi": 67,
          "name": "G4",
          "ticks": 10680,
          "time": 44.5,
          "velocity": 0.6929133858267716
        },
        {
          "duration": 0.29999999999999716,
          "durationTicks": 72,
          "midi": 74,
          "name": "D5",
          "ticks": 10740,
          "time": 44.75,
          "velocity": 0.6929133858267716
        },
        {
          "duration": 0.31666666666667,
          "durationTicks": 76,
          "midi": 75,
          "name": "D#5",
          "ticks": 10800,
          "time": 45,
          "velocity": 0.7007874015748031
        },
        {
          "duration": 0.3333333333333357,
          "durationTicks": 80,
          "midi": 74,
          "name": "D5",
          "ticks": 10860,
          "time": 45.25,
          "velocity": 0.6929133858267716
        },
        {
          "duration": 0.29999999999999716,
          "durationTicks": 72,
          "midi": 67,
          "name": "G4",
          "ticks": 10920,
          "time": 45.5,
          "velocity": 0.7007874015748031
        },
        {
          "duration": 0.31666666666667,
          "durationTicks": 76,
          "midi": 74,
          "name": "D5",
          "ticks": 10980,
          "time": 45.75,
          "velocity": 0.6929133858267716
        },
        {
          "duration": 0.28333333333333144,
          "durationTicks": 68,
          "midi": 67,
          "name": "G4",
          "ticks": 11040,
          "time": 46,
          "velocity": 0.6929133858267716
        },
        {
          "duration": 0.31666666666667,
          "durationTicks": 76,
          "midi": 74,
          "name": "D5",
          "ticks": 11100,
          "time": 46.25,
          "velocity": 0.6929133858267716
        },
        {
          "duration": 0.28333333333333144,
          "durationTicks": 68,
          "midi": 67,
          "name": "G4",
          "ticks": 11160,
          "time": 46.5,
          "velocity": 0.6929133858267716
        },
        {
          "duration": 0.29999999999999716,
          "durationTicks": 72,
          "midi": 74,
          "name": "D5",
          "ticks": 11220,
          "time": 46.75,
          "velocity": 0.6929133858267716
        },
        {
          "duration": 0.31666666666667,
          "durationTicks": 76,
          "midi": 75,
          "name": "D#5",
          "ticks": 11280,
          "time": 47,
          "velocity": 0.6929133858267716
        },
        {
          "duration": 0.3333333333333357,
          "durationTicks": 80,
          "midi": 74,
          "name": "D5",
          "ticks": 11340,
          "time": 47.25,
          "velocity": 0.6929133858267716
        },
        {
          "duration": 0.29999999999999716,
          "durationTicks": 72,
          "midi": 67,
          "name": "G4",
          "ticks": 11400,
          "time": 47.5,
          "velocity": 0.7007874015748031
        },
        {
          "duration": 0.31666666666667,
          "durationTicks": 76,
          "midi": 74,
          "name": "D5",
          "ticks": 11460,
          "time": 47.75,
          "velocity": 0.7007874015748031
        },
        {
          "duration": 0.28333333333333144,
          "durationTicks": 68,
          "midi": 67,
          "name": "G4",
          "ticks": 11520,
          "time": 48,
          "velocity": 0.7007874015748031
        },
        {
          "duration": 0.31666666666667,
          "durationTicks": 76,
          "midi": 74,
          "name": "D5",
          "ticks": 11580,
          "time": 48.25,
          "velocity": 0.7007874015748031
        },
        {
          "duration": 0.28333333333333144,
          "durationTicks": 68,
          "midi": 67,
          "name": "G4",
          "ticks": 11640,
          "time": 48.5,
          "velocity": 0.7007874015748031
        },
        {
          "duration": 0.29999999999999716,
          "durationTicks": 72,
          "midi": 74,
          "name": "D5",
          "ticks": 11700,
          "time": 48.75,
          "velocity": 0.7007874015748031
        },
        {
          "duration": 0.31666666666667,
          "durationTicks": 76,
          "midi": 75,
          "name": "D#5",
          "ticks": 11760,
          "time": 49,
          "velocity": 0.7007874015748031
        },
        {
          "duration": 0.3333333333333357,
          "durationTicks": 80,
          "midi": 74,
          "name": "D5",
          "ticks": 11820,
          "time": 49.25,
          "velocity": 0.7007874015748031
        },
        {
          "duration": 0.29999999999999716,
          "durationTicks": 72,
          "midi": 67,
          "name": "G4",
          "ticks": 11880,
          "time": 49.5,
          "velocity": 0.7007874015748031
        },
        {
          "duration": 0.31666666666667,
          "durationTicks": 76,
          "midi": 74,
          "name": "D5",
          "ticks": 11940,
          "time": 49.75,
          "velocity": 0.7007874015748031
        },
        {
          "duration": 0.28333333333333144,
          "durationTicks": 68,
          "midi": 67,
          "name": "G4",
          "ticks": 12000,
          "time": 50,
          "velocity": 0.7007874015748031
        },
        {
          "duration": 0.31666666666667,
          "durationTicks": 76,
          "midi": 74,
          "name": "D5",
          "ticks": 12060,
          "time": 50.25,
          "velocity": 0.7007874015748031
        },
        {
          "duration": 0.28333333333333144,
          "durationTicks": 68,
          "midi": 67,
          "name": "G4",
          "ticks": 12120,
          "time": 50.5,
          "velocity": 0.7007874015748031
        },
        {
          "duration": 0.29999999999999716,
          "durationTicks": 72,
          "midi": 74,
          "name": "D5",
          "ticks": 12180,
          "time": 50.75,
          "velocity": 0.7007874015748031
        },
        {
          "duration": 0.31666666666667,
          "durationTicks": 76,
          "midi": 75,
          "name": "D#5",
          "ticks": 12240,
          "time": 51,
          "velocity": 0.7007874015748031
        },
        {
          "duration": 0.3333333333333357,
          "durationTicks": 80,
          "midi": 74,
          "name": "D5",
          "ticks": 12300,
          "time": 51.25,
          "velocity": 0.7007874015748031
        },
        {
          "duration": 0.29999999999999716,
          "durationTicks": 72,
          "midi": 67,
          "name": "G4",
          "ticks": 12360,
          "time": 51.5,
          "velocity": 0.7007874015748031
        },
        {
          "duration": 0.31666666666667,
          "durationTicks": 76,
          "midi": 74,
          "name": "D5",
          "ticks": 12420,
          "time": 51.75,
          "velocity": 0.7007874015748031
        },
        {
          "duration": 0.28333333333333144,
          "durationTicks": 68,
          "midi": 67,
          "name": "G4",
          "ticks": 12480,
          "time": 52,
          "velocity": 0.7007874015748031
        },
        {
          "duration": 0.31666666666667,
          "durationTicks": 76,
          "midi": 74,
          "name": "D5",
          "ticks": 12540,
          "time": 52.25,
          "velocity": 0.7007874015748031
        },
        {
          "duration": 0.28333333333333144,
          "durationTicks": 68,
          "midi": 67,
          "name": "G4",
          "ticks": 12600,
          "time": 52.5,
          "velocity": 0.7007874015748031
        },
        {
          "duration": 0.29999999999999716,
          "durationTicks": 72,
          "midi": 74,
          "name": "D5",
          "ticks": 12660,
          "time": 52.75,
          "velocity": 0.7007874015748031
        },
        {
          "duration": 0.31666666666667,
          "durationTicks": 76,
          "midi": 75,
          "name": "D#5",
          "ticks": 12720,
          "time": 53,
          "velocity": 0.7007874015748031
        },
        {
          "duration": 0.3333333333333357,
          "durationTicks": 80,
          "midi": 74,
          "name": "D5",
          "ticks": 12780,
          "time": 53.25,
          "velocity": 0.7007874015748031
        },
        {
          "duration": 0.29999999999999716,
          "durationTicks": 72,
          "midi": 67,
          "name": "G4",
          "ticks": 12840,
          "time": 53.5,
          "velocity": 0.7007874015748031
        },
        {
          "duration": 0.31666666666667,
          "durationTicks": 76,
          "midi": 74,
          "name": "D5",
          "ticks": 12900,
          "time": 53.75,
          "velocity": 0.6929133858267716
        },
        {
          "duration": 0.28333333333333144,
          "durationTicks": 68,
          "midi": 67,
          "name": "G4",
          "ticks": 12960,
          "time": 54,
          "velocity": 0.6929133858267716
        },
        {
          "duration": 0.31666666666667,
          "durationTicks": 76,
          "midi": 74,
          "name": "D5",
          "ticks": 13020,
          "time": 54.25,
          "velocity": 0.6929133858267716
        },
        {
          "duration": 0.28333333333333144,
          "durationTicks": 68,
          "midi": 67,
          "name": "G4",
          "ticks": 13080,
          "time": 54.5,
          "velocity": 0.6929133858267716
        },
        {
          "duration": 0.29999999999999716,
          "durationTicks": 72,
          "midi": 74,
          "name": "D5",
          "ticks": 13140,
          "time": 54.75,
          "velocity": 0.6929133858267716
        },
        {
          "duration": 0.31666666666667,
          "durationTicks": 76,
          "midi": 75,
          "name": "D#5",
          "ticks": 13200,
          "time": 55,
          "velocity": 0.6929133858267716
        },
        {
          "duration": 0.3333333333333357,
          "durationTicks": 80,
          "midi": 74,
          "name": "D5",
          "ticks": 13260,
          "time": 55.25,
          "velocity": 0.6929133858267716
        },
        {
          "duration": 0.29999999999999716,
          "durationTicks": 72,
          "midi": 67,
          "name": "G4",
          "ticks": 13320,
          "time": 55.5,
          "velocity": 0.7007874015748031
        },
        {
          "duration": 0.31666666666667,
          "durationTicks": 76,
          "midi": 74,
          "name": "D5",
          "ticks": 13380,
          "time": 55.75,
          "velocity": 0.7007874015748031
        },
        {
          "duration": 0.28333333333333144,
          "durationTicks": 68,
          "midi": 67,
          "name": "G4",
          "ticks": 13440,
          "time": 56,
          "velocity": 0.7007874015748031
        },
        {
          "duration": 0.31666666666667,
          "durationTicks": 76,
          "midi": 74,
          "name": "D5",
          "ticks": 13500,
          "time": 56.25,
          "velocity": 0.7007874015748031
        },
        {
          "duration": 0.28333333333333144,
          "durationTicks": 68,
          "midi": 67,
          "name": "G4",
          "ticks": 13560,
          "time": 56.5,
          "velocity": 0.7007874015748031
        },
        {
          "duration": 0.29999999999999716,
          "durationTicks": 72,
          "midi": 74,
          "name": "D5",
          "ticks": 13620,
          "time": 56.75,
          "velocity": 0.7007874015748031
        },
        {
          "duration": 0.31666666666667,
          "durationTicks": 76,
          "midi": 75,
          "name": "D#5",
          "ticks": 13680,
          "time": 57,
          "velocity": 0.7007874015748031
        },
        {
          "duration": 0.3333333333333357,
          "durationTicks": 80,
          "midi": 74,
          "name": "D5",
          "ticks": 13740,
          "time": 57.25,
          "velocity": 0.7007874015748031
        },
        {
          "duration": 0.29999999999999716,
          "durationTicks": 72,
          "midi": 67,
          "name": "G4",
          "ticks": 13800,
          "time": 57.5,
          "velocity": 0.7007874015748031
        },
        {
          "duration": 0.31666666666667,
          "durationTicks": 76,
          "midi": 74,
          "name": "D5",
          "ticks": 13860,
          "time": 57.75,
          "velocity": 0.7007874015748031
        },
        {
          "duration": 0.28333333333333144,
          "durationTicks": 68,
          "midi": 67,
          "name": "G4",
          "ticks": 13920,
          "time": 58,
          "velocity": 0.7007874015748031
        },
        {
          "duration": 0.31666666666667,
          "durationTicks": 76,
          "midi": 74,
          "name": "D5",
          "ticks": 13980,
          "time": 58.25,
          "velocity": 0.7007874015748031
        },
        {
          "duration": 0.28333333333333144,
          "durationTicks": 68,
          "midi": 67,
          "name": "G4",
          "ticks": 14040,
          "time": 58.5,
          "velocity": 0.7007874015748031
        },
        {
          "duration": 0.29999999999999716,
          "durationTicks": 72,
          "midi": 74,
          "name": "D5",
          "ticks": 14100,
          "time": 58.75,
          "velocity": 0.7007874015748031
        },
        {
          "duration": 0.31666666666667,
          "durationTicks": 76,
          "midi": 75,
          "name": "D#5",
          "ticks": 14160,
          "time": 59,
          "velocity": 0.7007874015748031
        },
        {
          "duration": 0.3333333333333357,
          "durationTicks": 80,
          "midi": 74,
          "name": "D5",
          "ticks": 14220,
          "time": 59.25,
          "velocity": 0.7007874015748031
        },
        {
          "duration": 0.29999999999999716,
          "durationTicks": 72,
          "midi": 67,
          "name": "G4",
          "ticks": 14280,
          "time": 59.5,
          "velocity": 0.7007874015748031
        },
        {
          "duration": 0.31666666666667,
          "durationTicks": 76,
          "midi": 74,
          "name": "D5",
          "ticks": 14340,
          "time": 59.75,
          "velocity": 0.7007874015748031
        },
        {
          "duration": 0.28333333333333144,
          "durationTicks": 68,
          "midi": 67,
          "name": "G4",
          "ticks": 14400,
          "time": 60,
          "velocity": 0.7007874015748031
        },
        {
          "duration": 0.31666666666667,
          "durationTicks": 76,
          "midi": 74,
          "name": "D5",
          "ticks": 14460,
          "time": 60.25,
          "velocity": 0.7007874015748031
        },
        {
          "duration": 0.28333333333333144,
          "durationTicks": 68,
          "midi": 67,
          "name": "G4",
          "ticks": 14520,
          "time": 60.5,
          "velocity": 0.7007874015748031
        },
        {
          "duration": 0.29999999999999716,
          "durationTicks": 72,
          "midi": 74,
          "name": "D5",
          "ticks": 14580,
          "time": 60.75,
          "velocity": 0.7007874015748031
        },
        {
          "duration": 0.31666666666667,
          "durationTicks": 76,
          "midi": 75,
          "name": "D#5",
          "ticks": 14640,
          "time": 61,
          "velocity": 0.7007874015748031
        },
        {
          "duration": 0.3333333333333357,
          "durationTicks": 80,
          "midi": 74,
          "name": "D5",
          "ticks": 14700,
          "time": 61.25,
          "velocity": 0.7007874015748031
        },
        {
          "duration": 0.29999999999999716,
          "durationTicks": 72,
          "midi": 67,
          "name": "G4",
          "ticks": 14760,
          "time": 61.5,
          "velocity": 0.7007874015748031
        },
        {
          "duration": 0.31666666666667,
          "durationTicks": 76,
          "midi": 74,
          "name": "D5",
          "ticks": 14820,
          "time": 61.75,
          "velocity": 0.7007874015748031
        },
        {
          "duration": 0.28333333333333144,
          "durationTicks": 68,
          "midi": 67,
          "name": "G4",
          "ticks": 14880,
          "time": 62,
          "velocity": 0.7007874015748031
        },
        {
          "duration": 0.31666666666667,
          "durationTicks": 76,
          "midi": 74,
          "name": "D5",
          "ticks": 14940,
          "time": 62.25,
          "velocity": 0.7007874015748031
        },
        {
          "duration": 0.28333333333333144,
          "durationTicks": 68,
          "midi": 67,
          "name": "G4",
          "ticks": 15000,
          "time": 62.5,
          "velocity": 0.7007874015748031
        },
        {
          "duration": 0.29999999999999716,
          "durationTicks": 72,
          "midi": 74,
          "name": "D5",
          "ticks": 15060,
          "time": 62.75,
          "velocity": 0.7007874015748031
        },
        {
          "duration": 0.31666666666667,
          "durationTicks": 76,
          "midi": 75,
          "name": "D#5",
          "ticks": 15120,
          "time": 63,
          "velocity": 0.7007874015748031
        },
        {
          "duration": 0.3333333333333357,
          "durationTicks": 80,
          "midi": 74,
          "name": "D5",
          "ticks": 15180,
          "time": 63.25,
          "velocity": 0.6929133858267716
        },
        {
          "duration": 0.29999999999999716,
          "durationTicks": 72,
          "midi": 67,
          "name": "G4",
          "ticks": 15240,
          "time": 63.5,
          "velocity": 0.6929133858267716
        },
        {
          "duration": 0.20000000000000284,
          "durationTicks": 48,
          "midi": 74,
          "name": "D5",
          "ticks": 15300,
          "time": 63.75,
          "velocity": 0.6929133858267716
        },
        {
          "duration": 0.28333333333333144,
          "durationTicks": 68,
          "midi": 67,
          "name": "G4",
          "ticks": 17280,
          "time": 72,
          "velocity": 0.6929133858267716
        },
        {
          "duration": 0.3166666666666629,
          "durationTicks": 76,
          "midi": 74,
          "name": "D5",
          "ticks": 17340,
          "time": 72.25,
          "velocity": 0.6929133858267716
        },
        {
          "duration": 0.28333333333333144,
          "durationTicks": 68,
          "midi": 67,
          "name": "G4",
          "ticks": 17400,
          "time": 72.5,
          "velocity": 0.6929133858267716
        },
        {
          "duration": 0.29999999999999716,
          "durationTicks": 72,
          "midi": 74,
          "name": "D5",
          "ticks": 17460,
          "time": 72.75,
          "velocity": 0.6929133858267716
        },
        {
          "duration": 0.3166666666666629,
          "durationTicks": 76,
          "midi": 75,
          "name": "D#5",
          "ticks": 17520,
          "time": 73,
          "velocity": 0.6929133858267716
        },
        {
          "duration": 0.3333333333333286,
          "durationTicks": 80,
          "midi": 74,
          "name": "D5",
          "ticks": 17580,
          "time": 73.25,
          "velocity": 0.6929133858267716
        },
        {
          "duration": 0.29999999999999716,
          "durationTicks": 72,
          "midi": 67,
          "name": "G4",
          "ticks": 17640,
          "time": 73.5,
          "velocity": 0.6929133858267716
        },
        {
          "duration": 0.3166666666666629,
          "durationTicks": 76,
          "midi": 74,
          "name": "D5",
          "ticks": 17700,
          "time": 73.75,
          "velocity": 0.6929133858267716
        },
        {
          "duration": 0.28333333333333144,
          "durationTicks": 68,
          "midi": 67,
          "name": "G4",
          "ticks": 17760,
          "time": 74,
          "velocity": 0.6929133858267716
        },
        {
          "duration": 0.3166666666666629,
          "durationTicks": 76,
          "midi": 74,
          "name": "D5",
          "ticks": 17820,
          "time": 74.25,
          "velocity": 0.7007874015748031
        },
        {
          "duration": 0.28333333333333144,
          "durationTicks": 68,
          "midi": 67,
          "name": "G4",
          "ticks": 17880,
          "time": 74.5,
          "velocity": 0.7007874015748031
        },
        {
          "duration": 0.29999999999999716,
          "durationTicks": 72,
          "midi": 74,
          "name": "D5",
          "ticks": 17940,
          "time": 74.75,
          "velocity": 0.7007874015748031
        },
        {
          "duration": 0.3166666666666629,
          "durationTicks": 76,
          "midi": 75,
          "name": "D#5",
          "ticks": 18000,
          "time": 75,
          "velocity": 0.6929133858267716
        },
        {
          "duration": 0.3333333333333286,
          "durationTicks": 80,
          "midi": 74,
          "name": "D5",
          "ticks": 18060,
          "time": 75.25,
          "velocity": 0.6929133858267716
        },
        {
          "duration": 0.29999999999999716,
          "durationTicks": 72,
          "midi": 67,
          "name": "G4",
          "ticks": 18120,
          "time": 75.5,
          "velocity": 0.6929133858267716
        },
        {
          "duration": 0.3166666666666629,
          "durationTicks": 76,
          "midi": 74,
          "name": "D5",
          "ticks": 18180,
          "time": 75.75,
          "velocity": 0.6929133858267716
        },
        {
          "duration": 0.28333333333333144,
          "durationTicks": 68,
          "midi": 67,
          "name": "G4",
          "ticks": 18240,
          "time": 76,
          "velocity": 0.6929133858267716
        },
        {
          "duration": 0.3166666666666629,
          "durationTicks": 76,
          "midi": 74,
          "name": "D5",
          "ticks": 18300,
          "time": 76.25,
          "velocity": 0.6929133858267716
        },
        {
          "duration": 0.28333333333333144,
          "durationTicks": 68,
          "midi": 67,
          "name": "G4",
          "ticks": 18360,
          "time": 76.5,
          "velocity": 0.6929133858267716
        },
        {
          "duration": 0.29999999999999716,
          "durationTicks": 72,
          "midi": 74,
          "name": "D5",
          "ticks": 18420,
          "time": 76.75,
          "velocity": 0.6929133858267716
        },
        {
          "duration": 0.3166666666666629,
          "durationTicks": 76,
          "midi": 75,
          "name": "D#5",
          "ticks": 18480,
          "time": 77,
          "velocity": 0.6929133858267716
        },
        {
          "duration": 0.3333333333333286,
          "durationTicks": 80,
          "midi": 74,
          "name": "D5",
          "ticks": 18540,
          "time": 77.25,
          "velocity": 0.6929133858267716
        },
        {
          "duration": 0.29999999999999716,
          "durationTicks": 72,
          "midi": 67,
          "name": "G4",
          "ticks": 18600,
          "time": 77.5,
          "velocity": 0.6929133858267716
        },
        {
          "duration": 0.3166666666666629,
          "durationTicks": 76,
          "midi": 74,
          "name": "D5",
          "ticks": 18660,
          "time": 77.75,
          "velocity": 0.7007874015748031
        },
        {
          "duration": 0.28333333333333144,
          "durationTicks": 68,
          "midi": 67,
          "name": "G4",
          "ticks": 18720,
          "time": 78,
          "velocity": 0.6929133858267716
        },
        {
          "duration": 0.3166666666666629,
          "durationTicks": 76,
          "midi": 74,
          "name": "D5",
          "ticks": 18780,
          "time": 78.25,
          "velocity": 0.6929133858267716
        },
        {
          "duration": 0.28333333333333144,
          "durationTicks": 68,
          "midi": 67,
          "name": "G4",
          "ticks": 18840,
          "time": 78.5,
          "velocity": 0.6929133858267716
        },
        {
          "duration": 0.29999999999999716,
          "durationTicks": 72,
          "midi": 74,
          "name": "D5",
          "ticks": 18900,
          "time": 78.75,
          "velocity": 0.6929133858267716
        },
        {
          "duration": 0.3166666666666629,
          "durationTicks": 76,
          "midi": 75,
          "name": "D#5",
          "ticks": 18960,
          "time": 79,
          "velocity": 0.6929133858267716
        },
        {
          "duration": 0.3333333333333286,
          "durationTicks": 80,
          "midi": 74,
          "name": "D5",
          "ticks": 19020,
          "time": 79.25,
          "velocity": 0.7007874015748031
        },
        {
          "duration": 0.29999999999999716,
          "durationTicks": 72,
          "midi": 67,
          "name": "G4",
          "ticks": 19080,
          "time": 79.5,
          "velocity": 0.7007874015748031
        },
        {
          "duration": 0.3166666666666629,
          "durationTicks": 76,
          "midi": 74,
          "name": "D5",
          "ticks": 19140,
          "time": 79.75,
          "velocity": 0.7007874015748031
        },
        {
          "duration": 0.28333333333333144,
          "durationTicks": 68,
          "midi": 67,
          "name": "G4",
          "ticks": 19200,
          "time": 80,
          "velocity": 0.7007874015748031
        },
        {
          "duration": 0.3166666666666629,
          "durationTicks": 76,
          "midi": 74,
          "name": "D5",
          "ticks": 19260,
          "time": 80.25,
          "velocity": 0.6929133858267716
        },
        {
          "duration": 0.28333333333333144,
          "durationTicks": 68,
          "midi": 67,
          "name": "G4",
          "ticks": 19320,
          "time": 80.5,
          "velocity": 0.6929133858267716
        },
        {
          "duration": 0.29999999999999716,
          "durationTicks": 72,
          "midi": 74,
          "name": "D5",
          "ticks": 19380,
          "time": 80.75,
          "velocity": 0.6929133858267716
        },
        {
          "duration": 0.3166666666666629,
          "durationTicks": 76,
          "midi": 75,
          "name": "D#5",
          "ticks": 19440,
          "time": 81,
          "velocity": 0.6929133858267716
        },
        {
          "duration": 0.3333333333333286,
          "durationTicks": 80,
          "midi": 74,
          "name": "D5",
          "ticks": 19500,
          "time": 81.25,
          "velocity": 0.6929133858267716
        },
        {
          "duration": 0.29999999999999716,
          "durationTicks": 72,
          "midi": 67,
          "name": "G4",
          "ticks": 19560,
          "time": 81.5,
          "velocity": 0.7007874015748031
        },
        {
          "duration": 0.3166666666666629,
          "durationTicks": 76,
          "midi": 74,
          "name": "D5",
          "ticks": 19620,
          "time": 81.75,
          "velocity": 0.7007874015748031
        },
        {
          "duration": 0.28333333333333144,
          "durationTicks": 68,
          "midi": 67,
          "name": "G4",
          "ticks": 19680,
          "time": 82,
          "velocity": 0.7007874015748031
        },
        {
          "duration": 0.3166666666666629,
          "durationTicks": 76,
          "midi": 74,
          "name": "D5",
          "ticks": 19740,
          "time": 82.25,
          "velocity": 0.6929133858267716
        },
        {
          "duration": 0.28333333333333144,
          "durationTicks": 68,
          "midi": 67,
          "name": "G4",
          "ticks": 19800,
          "time": 82.5,
          "velocity": 0.6929133858267716
        },
        {
          "duration": 0.29999999999999716,
          "durationTicks": 72,
          "midi": 74,
          "name": "D5",
          "ticks": 19860,
          "time": 82.75,
          "velocity": 0.6929133858267716
        },
        {
          "duration": 0.3166666666666629,
          "durationTicks": 76,
          "midi": 75,
          "name": "D#5",
          "ticks": 19920,
          "time": 83,
          "velocity": 0.6929133858267716
        },
        {
          "duration": 0.3333333333333286,
          "durationTicks": 80,
          "midi": 74,
          "name": "D5",
          "ticks": 19980,
          "time": 83.25,
          "velocity": 0.7007874015748031
        },
        {
          "duration": 0.29999999999999716,
          "durationTicks": 72,
          "midi": 67,
          "name": "G4",
          "ticks": 20040,
          "time": 83.5,
          "velocity": 0.7007874015748031
        },
        {
          "duration": 0.3166666666666629,
          "durationTicks": 76,
          "midi": 74,
          "name": "D5",
          "ticks": 20100,
          "time": 83.75,
          "velocity": 0.6929133858267716
        },
        {
          "duration": 0.28333333333333144,
          "durationTicks": 68,
          "midi": 67,
          "name": "G4",
          "ticks": 20160,
          "time": 84,
          "velocity": 0.6929133858267716
        },
        {
          "duration": 0.3166666666666629,
          "durationTicks": 76,
          "midi": 74,
          "name": "D5",
          "ticks": 20220,
          "time": 84.25,
          "velocity": 0.6929133858267716
        },
        {
          "duration": 0.28333333333333144,
          "durationTicks": 68,
          "midi": 67,
          "name": "G4",
          "ticks": 20280,
          "time": 84.5,
          "velocity": 0.6929133858267716
        },
        {
          "duration": 0.29999999999999716,
          "durationTicks": 72,
          "midi": 74,
          "name": "D5",
          "ticks": 20340,
          "time": 84.75,
          "velocity": 0.6929133858267716
        },
        {
          "duration": 0.3166666666666629,
          "durationTicks": 76,
          "midi": 75,
          "name": "D#5",
          "ticks": 20400,
          "time": 85,
          "velocity": 0.6929133858267716
        },
        {
          "duration": 0.3333333333333286,
          "durationTicks": 80,
          "midi": 74,
          "name": "D5",
          "ticks": 20460,
          "time": 85.25,
          "velocity": 0.6929133858267716
        },
        {
          "duration": 0.29999999999999716,
          "durationTicks": 72,
          "midi": 67,
          "name": "G4",
          "ticks": 20520,
          "time": 85.5,
          "velocity": 0.6929133858267716
        },
        {
          "duration": 0.3166666666666629,
          "durationTicks": 76,
          "midi": 74,
          "name": "D5",
          "ticks": 20580,
          "time": 85.75,
          "velocity": 0.6929133858267716
        },
        {
          "duration": 0.28333333333333144,
          "durationTicks": 68,
          "midi": 67,
          "name": "G4",
          "ticks": 20640,
          "time": 86,
          "velocity": 0.6929133858267716
        },
        {
          "duration": 0.3166666666666629,
          "durationTicks": 76,
          "midi": 74,
          "name": "D5",
          "ticks": 20700,
          "time": 86.25,
          "velocity": 0.6929133858267716
        },
        {
          "duration": 0.28333333333333144,
          "durationTicks": 68,
          "midi": 67,
          "name": "G4",
          "ticks": 20760,
          "time": 86.5,
          "velocity": 0.6929133858267716
        },
        {
          "duration": 0.29999999999999716,
          "durationTicks": 72,
          "midi": 74,
          "name": "D5",
          "ticks": 20820,
          "time": 86.75,
          "velocity": 0.6929133858267716
        },
        {
          "duration": 0.3166666666666629,
          "durationTicks": 76,
          "midi": 75,
          "name": "D#5",
          "ticks": 20880,
          "time": 87,
          "velocity": 0.6929133858267716
        },
        {
          "duration": 0.3333333333333286,
          "durationTicks": 80,
          "midi": 74,
          "name": "D5",
          "ticks": 20940,
          "time": 87.25,
          "velocity": 0.6929133858267716
        },
        {
          "duration": 0.29999999999999716,
          "durationTicks": 72,
          "midi": 67,
          "name": "G4",
          "ticks": 21000,
          "time": 87.5,
          "velocity": 0.6929133858267716
        },
        {
          "duration": 0.3166666666666629,
          "durationTicks": 76,
          "midi": 74,
          "name": "D5",
          "ticks": 21060,
          "time": 87.75,
          "velocity": 0.7007874015748031
        },
        {
          "duration": 0.28333333333333144,
          "durationTicks": 68,
          "midi": 67,
          "name": "G4",
          "ticks": 21120,
          "time": 88,
          "velocity": 0.7007874015748031
        },
        {
          "duration": 0.3166666666666629,
          "durationTicks": 76,
          "midi": 74,
          "name": "D5",
          "ticks": 21180,
          "time": 88.25,
          "velocity": 0.7007874015748031
        },
        {
          "duration": 0.28333333333333144,
          "durationTicks": 68,
          "midi": 67,
          "name": "G4",
          "ticks": 21240,
          "time": 88.5,
          "velocity": 0.7007874015748031
        },
        {
          "duration": 0.29999999999999716,
          "durationTicks": 72,
          "midi": 74,
          "name": "D5",
          "ticks": 21300,
          "time": 88.75,
          "velocity": 0.7007874015748031
        },
        {
          "duration": 0.3166666666666629,
          "durationTicks": 76,
          "midi": 75,
          "name": "D#5",
          "ticks": 21360,
          "time": 89,
          "velocity": 0.7007874015748031
        },
        {
          "duration": 0.3333333333333286,
          "durationTicks": 80,
          "midi": 74,
          "name": "D5",
          "ticks": 21420,
          "time": 89.25,
          "velocity": 0.7007874015748031
        },
        {
          "duration": 0.29999999999999716,
          "durationTicks": 72,
          "midi": 67,
          "name": "G4",
          "ticks": 21480,
          "time": 89.5,
          "velocity": 0.7007874015748031
        },
        {
          "duration": 0.3166666666666629,
          "durationTicks": 76,
          "midi": 74,
          "name": "D5",
          "ticks": 21540,
          "time": 89.75,
          "velocity": 0.7007874015748031
        },
        {
          "duration": 0.28333333333333144,
          "durationTicks": 68,
          "midi": 67,
          "name": "G4",
          "ticks": 21600,
          "time": 90,
          "velocity": 0.7007874015748031
        },
        {
          "duration": 0.3166666666666629,
          "durationTicks": 76,
          "midi": 74,
          "name": "D5",
          "ticks": 21660,
          "time": 90.25,
          "velocity": 0.7007874015748031
        },
        {
          "duration": 0.28333333333333144,
          "durationTicks": 68,
          "midi": 67,
          "name": "G4",
          "ticks": 21720,
          "time": 90.5,
          "velocity": 0.7007874015748031
        },
        {
          "duration": 0.29999999999999716,
          "durationTicks": 72,
          "midi": 74,
          "name": "D5",
          "ticks": 21780,
          "time": 90.75,
          "velocity": 0.7007874015748031
        },
        {
          "duration": 0.3166666666666629,
          "durationTicks": 76,
          "midi": 75,
          "name": "D#5",
          "ticks": 21840,
          "time": 91,
          "velocity": 0.7007874015748031
        },
        {
          "duration": 0.3333333333333286,
          "durationTicks": 80,
          "midi": 74,
          "name": "D5",
          "ticks": 21900,
          "time": 91.25,
          "velocity": 0.7007874015748031
        },
        {
          "duration": 0.29999999999999716,
          "durationTicks": 72,
          "midi": 67,
          "name": "G4",
          "ticks": 21960,
          "time": 91.5,
          "velocity": 0.7007874015748031
        },
        {
          "duration": 0.3166666666666629,
          "durationTicks": 76,
          "midi": 74,
          "name": "D5",
          "ticks": 22020,
          "time": 91.75,
          "velocity": 0.7007874015748031
        },
        {
          "duration": 0.28333333333333144,
          "durationTicks": 68,
          "midi": 67,
          "name": "G4",
          "ticks": 22080,
          "time": 92,
          "velocity": 0.7007874015748031
        },
        {
          "duration": 0.3166666666666629,
          "durationTicks": 76,
          "midi": 74,
          "name": "D5",
          "ticks": 22140,
          "time": 92.25,
          "velocity": 0.7007874015748031
        },
        {
          "duration": 0.28333333333333144,
          "durationTicks": 68,
          "midi": 67,
          "name": "G4",
          "ticks": 22200,
          "time": 92.5,
          "velocity": 0.7007874015748031
        },
        {
          "duration": 0.29999999999999716,
          "durationTicks": 72,
          "midi": 74,
          "name": "D5",
          "ticks": 22260,
          "time": 92.75,
          "velocity": 0.7007874015748031
        },
        {
          "duration": 0.3166666666666629,
          "durationTicks": 76,
          "midi": 75,
          "name": "D#5",
          "ticks": 22320,
          "time": 93,
          "velocity": 0.7007874015748031
        },
        {
          "duration": 0.3333333333333286,
          "durationTicks": 80,
          "midi": 74,
          "name": "D5",
          "ticks": 22380,
          "time": 93.25,
          "velocity": 0.7007874015748031
        },
        {
          "duration": 0.29999999999999716,
          "durationTicks": 72,
          "midi": 67,
          "name": "G4",
          "ticks": 22440,
          "time": 93.5,
          "velocity": 0.7007874015748031
        },
        {
          "duration": 0.3166666666666629,
          "durationTicks": 76,
          "midi": 74,
          "name": "D5",
          "ticks": 22500,
          "time": 93.75,
          "velocity": 0.7007874015748031
        },
        {
          "duration": 0.28333333333333144,
          "durationTicks": 68,
          "midi": 67,
          "name": "G4",
          "ticks": 22560,
          "time": 94,
          "velocity": 0.7007874015748031
        },
        {
          "duration": 0.3166666666666629,
          "durationTicks": 76,
          "midi": 74,
          "name": "D5",
          "ticks": 22620,
          "time": 94.25,
          "velocity": 0.7007874015748031
        },
        {
          "duration": 0.28333333333333144,
          "durationTicks": 68,
          "midi": 67,
          "name": "G4",
          "ticks": 22680,
          "time": 94.5,
          "velocity": 0.7007874015748031
        },
        {
          "duration": 0.29999999999999716,
          "durationTicks": 72,
          "midi": 74,
          "name": "D5",
          "ticks": 22740,
          "time": 94.75,
          "velocity": 0.7007874015748031
        },
        {
          "duration": 0.3166666666666629,
          "durationTicks": 76,
          "midi": 75,
          "name": "D#5",
          "ticks": 22800,
          "time": 95,
          "velocity": 0.7007874015748031
        },
        {
          "duration": 0.3333333333333286,
          "durationTicks": 80,
          "midi": 74,
          "name": "D5",
          "ticks": 22860,
          "time": 95.25,
          "velocity": 0.7007874015748031
        },
        {
          "duration": 0.29999999999999716,
          "durationTicks": 72,
          "midi": 67,
          "name": "G4",
          "ticks": 22920,
          "time": 95.5,
          "velocity": 0.7007874015748031
        },
        {
          "duration": 0.3166666666666629,
          "durationTicks": 76,
          "midi": 74,
          "name": "D5",
          "ticks": 22980,
          "time": 95.75,
          "velocity": 0.7007874015748031
        },
        {
          "duration": 0.28333333333333144,
          "durationTicks": 68,
          "midi": 67,
          "name": "G4",
          "ticks": 23040,
          "time": 96,
          "velocity": 0.7007874015748031
        },
        {
          "duration": 0.3166666666666629,
          "durationTicks": 76,
          "midi": 74,
          "name": "D5",
          "ticks": 23100,
          "time": 96.25,
          "velocity": 0.7007874015748031
        },
        {
          "duration": 0.28333333333333144,
          "durationTicks": 68,
          "midi": 67,
          "name": "G4",
          "ticks": 23160,
          "time": 96.5,
          "velocity": 0.7007874015748031
        },
        {
          "duration": 0.29999999999999716,
          "durationTicks": 72,
          "midi": 74,
          "name": "D5",
          "ticks": 23220,
          "time": 96.75,
          "velocity": 0.7007874015748031
        },
        {
          "duration": 0.3166666666666629,
          "durationTicks": 76,
          "midi": 75,
          "name": "D#5",
          "ticks": 23280,
          "time": 97,
          "velocity": 0.7007874015748031
        },
        {
          "duration": 0.3333333333333286,
          "durationTicks": 80,
          "midi": 74,
          "name": "D5",
          "ticks": 23340,
          "time": 97.25,
          "velocity": 0.7007874015748031
        },
        {
          "duration": 0.29999999999999716,
          "durationTicks": 72,
          "midi": 67,
          "name": "G4",
          "ticks": 23400,
          "time": 97.5,
          "velocity": 0.7007874015748031
        },
        {
          "duration": 0.3166666666666629,
          "durationTicks": 76,
          "midi": 74,
          "name": "D5",
          "ticks": 23460,
          "time": 97.75,
          "velocity": 0.7007874015748031
        },
        {
          "duration": 0.28333333333333144,
          "durationTicks": 68,
          "midi": 67,
          "name": "G4",
          "ticks": 23520,
          "time": 98,
          "velocity": 0.7007874015748031
        },
        {
          "duration": 0.3166666666666629,
          "durationTicks": 76,
          "midi": 74,
          "name": "D5",
          "ticks": 23580,
          "time": 98.25,
          "velocity": 0.7007874015748031
        },
        {
          "duration": 0.28333333333333144,
          "durationTicks": 68,
          "midi": 67,
          "name": "G4",
          "ticks": 23640,
          "time": 98.5,
          "velocity": 0.7007874015748031
        },
        {
          "duration": 0.29999999999999716,
          "durationTicks": 72,
          "midi": 74,
          "name": "D5",
          "ticks": 23700,
          "time": 98.75,
          "velocity": 0.7007874015748031
        },
        {
          "duration": 0.3166666666666629,
          "durationTicks": 76,
          "midi": 75,
          "name": "D#5",
          "ticks": 23760,
          "time": 99,
          "velocity": 0.7007874015748031
        },
        {
          "duration": 0.3333333333333286,
          "durationTicks": 80,
          "midi": 74,
          "name": "D5",
          "ticks": 23820,
          "time": 99.25,
          "velocity": 0.7007874015748031
        },
        {
          "duration": 0.29999999999999716,
          "durationTicks": 72,
          "midi": 67,
          "name": "G4",
          "ticks": 23880,
          "time": 99.5,
          "velocity": 0.7007874015748031
        },
        {
          "duration": 0.3166666666666629,
          "durationTicks": 76,
          "midi": 74,
          "name": "D5",
          "ticks": 23940,
          "time": 99.75,
          "velocity": 0.7007874015748031
        },
        {
          "duration": 0.28333333333333144,
          "durationTicks": 68,
          "midi": 67,
          "name": "G4",
          "ticks": 24000,
          "time": 100,
          "velocity": 0.7007874015748031
        },
        {
          "duration": 0.3166666666666629,
          "durationTicks": 76,
          "midi": 74,
          "name": "D5",
          "ticks": 24060,
          "time": 100.25,
          "velocity": 0.7007874015748031
        },
        {
          "duration": 0.28333333333333144,
          "durationTicks": 68,
          "midi": 67,
          "name": "G4",
          "ticks": 24120,
          "time": 100.5,
          "velocity": 0.7007874015748031
        },
        {
          "duration": 0.29999999999999716,
          "durationTicks": 72,
          "midi": 74,
          "name": "D5",
          "ticks": 24180,
          "time": 100.75,
          "velocity": 0.7007874015748031
        },
        {
          "duration": 0.3166666666666629,
          "durationTicks": 76,
          "midi": 75,
          "name": "D#5",
          "ticks": 24240,
          "time": 101,
          "velocity": 0.7007874015748031
        },
        {
          "duration": 0.3333333333333286,
          "durationTicks": 80,
          "midi": 74,
          "name": "D5",
          "ticks": 24300,
          "time": 101.25,
          "velocity": 0.7007874015748031
        },
        {
          "duration": 0.29999999999999716,
          "durationTicks": 72,
          "midi": 67,
          "name": "G4",
          "ticks": 24360,
          "time": 101.5,
          "velocity": 0.7007874015748031
        },
        {
          "duration": 0.3166666666666629,
          "durationTicks": 76,
          "midi": 74,
          "name": "D5",
          "ticks": 24420,
          "time": 101.75,
          "velocity": 0.7007874015748031
        },
        {
          "duration": 0.28333333333333144,
          "durationTicks": 68,
          "midi": 67,
          "name": "G4",
          "ticks": 24480,
          "time": 102,
          "velocity": 0.7007874015748031
        },
        {
          "duration": 0.3166666666666629,
          "durationTicks": 76,
          "midi": 74,
          "name": "D5",
          "ticks": 24540,
          "time": 102.25,
          "velocity": 0.7007874015748031
        },
        {
          "duration": 0.28333333333333144,
          "durationTicks": 68,
          "midi": 67,
          "name": "G4",
          "ticks": 24600,
          "time": 102.5,
          "velocity": 0.7007874015748031
        },
        {
          "duration": 0.29999999999999716,
          "durationTicks": 72,
          "midi": 74,
          "name": "D5",
          "ticks": 24660,
          "time": 102.75,
          "velocity": 0.7007874015748031
        },
        {
          "duration": 0.3166666666666629,
          "durationTicks": 76,
          "midi": 75,
          "name": "D#5",
          "ticks": 24720,
          "time": 103,
          "velocity": 0.7007874015748031
        },
        {
          "duration": 0.3333333333333286,
          "durationTicks": 80,
          "midi": 74,
          "name": "D5",
          "ticks": 24780,
          "time": 103.25,
          "velocity": 0.7007874015748031
        },
        {
          "duration": 0.29999999999999716,
          "durationTicks": 72,
          "midi": 67,
          "name": "G4",
          "ticks": 24840,
          "time": 103.5,
          "velocity": 0.7007874015748031
        },
        {
          "duration": 0.3166666666666629,
          "durationTicks": 76,
          "midi": 74,
          "name": "D5",
          "ticks": 24900,
          "time": 103.75,
          "velocity": 0.7007874015748031
        },
        {
          "duration": 0.28333333333333144,
          "durationTicks": 68,
          "midi": 67,
          "name": "G4",
          "ticks": 26880,
          "time": 112,
          "velocity": 0.6929133858267716
        },
        {
          "duration": 0.3166666666666629,
          "durationTicks": 76,
          "midi": 74,
          "name": "D5",
          "ticks": 26940,
          "time": 112.25,
          "velocity": 0.6929133858267716
        },
        {
          "duration": 0.28333333333333144,
          "durationTicks": 68,
          "midi": 67,
          "name": "G4",
          "ticks": 27000,
          "time": 112.5,
          "velocity": 0.6929133858267716
        },
        {
          "duration": 0.29999999999999716,
          "durationTicks": 72,
          "midi": 74,
          "name": "D5",
          "ticks": 27060,
          "time": 112.75,
          "velocity": 0.6929133858267716
        },
        {
          "duration": 0.3166666666666629,
          "durationTicks": 76,
          "midi": 75,
          "name": "D#5",
          "ticks": 27120,
          "time": 113,
          "velocity": 0.6929133858267716
        },
        {
          "duration": 0.3333333333333286,
          "durationTicks": 80,
          "midi": 74,
          "name": "D5",
          "ticks": 27180,
          "time": 113.25,
          "velocity": 0.6929133858267716
        },
        {
          "duration": 0.29999999999999716,
          "durationTicks": 72,
          "midi": 67,
          "name": "G4",
          "ticks": 27240,
          "time": 113.5,
          "velocity": 0.6929133858267716
        },
        {
          "duration": 0.3166666666666629,
          "durationTicks": 76,
          "midi": 74,
          "name": "D5",
          "ticks": 27300,
          "time": 113.75,
          "velocity": 0.6929133858267716
        },
        {
          "duration": 0.28333333333333144,
          "durationTicks": 68,
          "midi": 67,
          "name": "G4",
          "ticks": 27360,
          "time": 114,
          "velocity": 0.6929133858267716
        },
        {
          "duration": 0.3166666666666629,
          "durationTicks": 76,
          "midi": 74,
          "name": "D5",
          "ticks": 27420,
          "time": 114.25,
          "velocity": 0.7007874015748031
        },
        {
          "duration": 0.28333333333333144,
          "durationTicks": 68,
          "midi": 67,
          "name": "G4",
          "ticks": 27480,
          "time": 114.5,
          "velocity": 0.7007874015748031
        },
        {
          "duration": 0.29999999999999716,
          "durationTicks": 72,
          "midi": 74,
          "name": "D5",
          "ticks": 27540,
          "time": 114.75,
          "velocity": 0.7007874015748031
        },
        {
          "duration": 0.3166666666666629,
          "durationTicks": 76,
          "midi": 75,
          "name": "D#5",
          "ticks": 27600,
          "time": 115,
          "velocity": 0.6929133858267716
        },
        {
          "duration": 0.3333333333333286,
          "durationTicks": 80,
          "midi": 74,
          "name": "D5",
          "ticks": 27660,
          "time": 115.25,
          "velocity": 0.6929133858267716
        },
        {
          "duration": 0.29999999999999716,
          "durationTicks": 72,
          "midi": 67,
          "name": "G4",
          "ticks": 27720,
          "time": 115.5,
          "velocity": 0.6929133858267716
        },
        {
          "duration": 0.3166666666666629,
          "durationTicks": 76,
          "midi": 74,
          "name": "D5",
          "ticks": 27780,
          "time": 115.75,
          "velocity": 0.6929133858267716
        },
        {
          "duration": 0.28333333333333144,
          "durationTicks": 68,
          "midi": 67,
          "name": "G4",
          "ticks": 27840,
          "time": 116,
          "velocity": 0.6929133858267716
        },
        {
          "duration": 0.3166666666666629,
          "durationTicks": 76,
          "midi": 74,
          "name": "D5",
          "ticks": 27900,
          "time": 116.25,
          "velocity": 0.6929133858267716
        },
        {
          "duration": 0.28333333333333144,
          "durationTicks": 68,
          "midi": 67,
          "name": "G4",
          "ticks": 27960,
          "time": 116.5,
          "velocity": 0.6929133858267716
        },
        {
          "duration": 0.29999999999999716,
          "durationTicks": 72,
          "midi": 74,
          "name": "D5",
          "ticks": 28020,
          "time": 116.75,
          "velocity": 0.6929133858267716
        },
        {
          "duration": 0.3166666666666629,
          "durationTicks": 76,
          "midi": 75,
          "name": "D#5",
          "ticks": 28080,
          "time": 117,
          "velocity": 0.6929133858267716
        },
        {
          "duration": 0.3333333333333286,
          "durationTicks": 80,
          "midi": 74,
          "name": "D5",
          "ticks": 28140,
          "time": 117.25,
          "velocity": 0.6929133858267716
        },
        {
          "duration": 0.29999999999999716,
          "durationTicks": 72,
          "midi": 67,
          "name": "G4",
          "ticks": 28200,
          "time": 117.5,
          "velocity": 0.6929133858267716
        },
        {
          "duration": 0.3166666666666629,
          "durationTicks": 76,
          "midi": 74,
          "name": "D5",
          "ticks": 28260,
          "time": 117.75,
          "velocity": 0.7007874015748031
        },
        {
          "duration": 0.28333333333333144,
          "durationTicks": 68,
          "midi": 67,
          "name": "G4",
          "ticks": 28320,
          "time": 118,
          "velocity": 0.6929133858267716
        },
        {
          "duration": 0.3166666666666629,
          "durationTicks": 76,
          "midi": 74,
          "name": "D5",
          "ticks": 28380,
          "time": 118.25,
          "velocity": 0.6929133858267716
        },
        {
          "duration": 0.28333333333333144,
          "durationTicks": 68,
          "midi": 67,
          "name": "G4",
          "ticks": 28440,
          "time": 118.5,
          "velocity": 0.6929133858267716
        },
        {
          "duration": 0.29999999999999716,
          "durationTicks": 72,
          "midi": 74,
          "name": "D5",
          "ticks": 28500,
          "time": 118.75,
          "velocity": 0.6929133858267716
        },
        {
          "duration": 0.3166666666666629,
          "durationTicks": 76,
          "midi": 75,
          "name": "D#5",
          "ticks": 28560,
          "time": 119,
          "velocity": 0.6929133858267716
        },
        {
          "duration": 0.3333333333333286,
          "durationTicks": 80,
          "midi": 74,
          "name": "D5",
          "ticks": 28620,
          "time": 119.25,
          "velocity": 0.7007874015748031
        },
        {
          "duration": 0.29999999999999716,
          "durationTicks": 72,
          "midi": 67,
          "name": "G4",
          "ticks": 28680,
          "time": 119.5,
          "velocity": 0.7007874015748031
        },
        {
          "duration": 0.3166666666666629,
          "durationTicks": 76,
          "midi": 74,
          "name": "D5",
          "ticks": 28740,
          "time": 119.75,
          "velocity": 0.7007874015748031
        },
        {
          "duration": 0.28333333333333144,
          "durationTicks": 68,
          "midi": 67,
          "name": "G4",
          "ticks": 28800,
          "time": 120,
          "velocity": 0.7007874015748031
        },
        {
          "duration": 0.3166666666666629,
          "durationTicks": 76,
          "midi": 74,
          "name": "D5",
          "ticks": 28860,
          "time": 120.25,
          "velocity": 0.6929133858267716
        },
        {
          "duration": 0.28333333333333144,
          "durationTicks": 68,
          "midi": 67,
          "name": "G4",
          "ticks": 28920,
          "time": 120.5,
          "velocity": 0.6929133858267716
        },
        {
          "duration": 0.29999999999999716,
          "durationTicks": 72,
          "midi": 74,
          "name": "D5",
          "ticks": 28980,
          "time": 120.75,
          "velocity": 0.6929133858267716
        },
        {
          "duration": 0.3166666666666629,
          "durationTicks": 76,
          "midi": 75,
          "name": "D#5",
          "ticks": 29040,
          "time": 121,
          "velocity": 0.6929133858267716
        },
        {
          "duration": 0.3333333333333286,
          "durationTicks": 80,
          "midi": 74,
          "name": "D5",
          "ticks": 29100,
          "time": 121.25,
          "velocity": 0.6929133858267716
        },
        {
          "duration": 0.29999999999999716,
          "durationTicks": 72,
          "midi": 67,
          "name": "G4",
          "ticks": 29160,
          "time": 121.5,
          "velocity": 0.7007874015748031
        },
        {
          "duration": 0.3166666666666629,
          "durationTicks": 76,
          "midi": 74,
          "name": "D5",
          "ticks": 29220,
          "time": 121.75,
          "velocity": 0.7007874015748031
        },
        {
          "duration": 0.28333333333333144,
          "durationTicks": 68,
          "midi": 67,
          "name": "G4",
          "ticks": 29280,
          "time": 122,
          "velocity": 0.7007874015748031
        },
        {
          "duration": 0.3166666666666629,
          "durationTicks": 76,
          "midi": 74,
          "name": "D5",
          "ticks": 29340,
          "time": 122.25,
          "velocity": 0.6929133858267716
        },
        {
          "duration": 0.28333333333333144,
          "durationTicks": 68,
          "midi": 67,
          "name": "G4",
          "ticks": 29400,
          "time": 122.5,
          "velocity": 0.6929133858267716
        },
        {
          "duration": 0.29999999999999716,
          "durationTicks": 72,
          "midi": 74,
          "name": "D5",
          "ticks": 29460,
          "time": 122.75,
          "velocity": 0.6929133858267716
        },
        {
          "duration": 0.3166666666666629,
          "durationTicks": 76,
          "midi": 75,
          "name": "D#5",
          "ticks": 29520,
          "time": 123,
          "velocity": 0.6929133858267716
        },
        {
          "duration": 0.3333333333333286,
          "durationTicks": 80,
          "midi": 74,
          "name": "D5",
          "ticks": 29580,
          "time": 123.25,
          "velocity": 0.7007874015748031
        },
        {
          "duration": 0.29999999999999716,
          "durationTicks": 72,
          "midi": 67,
          "name": "G4",
          "ticks": 29640,
          "time": 123.5,
          "velocity": 0.7007874015748031
        },
        {
          "duration": 0.3166666666666629,
          "durationTicks": 76,
          "midi": 74,
          "name": "D5",
          "ticks": 29700,
          "time": 123.75,
          "velocity": 0.6929133858267716
        },
        {
          "duration": 0.28333333333333144,
          "durationTicks": 68,
          "midi": 67,
          "name": "G4",
          "ticks": 29760,
          "time": 124,
          "velocity": 0.6929133858267716
        },
        {
          "duration": 0.3166666666666629,
          "durationTicks": 76,
          "midi": 74,
          "name": "D5",
          "ticks": 29820,
          "time": 124.25,
          "velocity": 0.6929133858267716
        },
        {
          "duration": 0.28333333333333144,
          "durationTicks": 68,
          "midi": 67,
          "name": "G4",
          "ticks": 29880,
          "time": 124.5,
          "velocity": 0.6929133858267716
        },
        {
          "duration": 0.29999999999999716,
          "durationTicks": 72,
          "midi": 74,
          "name": "D5",
          "ticks": 29940,
          "time": 124.75,
          "velocity": 0.6929133858267716
        },
        {
          "duration": 0.3166666666666629,
          "durationTicks": 76,
          "midi": 75,
          "name": "D#5",
          "ticks": 30000,
          "time": 125,
          "velocity": 0.6929133858267716
        },
        {
          "duration": 0.3333333333333286,
          "durationTicks": 80,
          "midi": 74,
          "name": "D5",
          "ticks": 30060,
          "time": 125.25,
          "velocity": 0.6929133858267716
        },
        {
          "duration": 0.29999999999999716,
          "durationTicks": 72,
          "midi": 67,
          "name": "G4",
          "ticks": 30120,
          "time": 125.5,
          "velocity": 0.6929133858267716
        },
        {
          "duration": 0.3166666666666629,
          "durationTicks": 76,
          "midi": 74,
          "name": "D5",
          "ticks": 30180,
          "time": 125.75,
          "velocity": 0.6929133858267716
        },
        {
          "duration": 0.28333333333333144,
          "durationTicks": 68,
          "midi": 67,
          "name": "G4",
          "ticks": 30240,
          "time": 126,
          "velocity": 0.6929133858267716
        },
        {
          "duration": 0.28333333333333144,
          "durationTicks": 68,
          "midi": 67,
          "name": "G4",
          "ticks": 30240,
          "time": 126,
          "velocity": 0.7007874015748031
        },
        {
          "duration": 0.3166666666666629,
          "durationTicks": 76,
          "midi": 74,
          "name": "D5",
          "ticks": 30300,
          "time": 126.25,
          "velocity": 0.6929133858267716
        },
        {
          "duration": 0.28333333333333144,
          "durationTicks": 68,
          "midi": 67,
          "name": "G4",
          "ticks": 30360,
          "time": 126.5,
          "velocity": 0.6929133858267716
        },
        {
          "duration": 0.29999999999999716,
          "durationTicks": 72,
          "midi": 74,
          "name": "D5",
          "ticks": 30420,
          "time": 126.75,
          "velocity": 0.6929133858267716
        },
        {
          "duration": 0.3166666666666629,
          "durationTicks": 76,
          "midi": 75,
          "name": "D#5",
          "ticks": 30480,
          "time": 127,
          "velocity": 0.6929133858267716
        },
        {
          "duration": 0.3333333333333286,
          "durationTicks": 80,
          "midi": 74,
          "name": "D5",
          "ticks": 30540,
          "time": 127.25,
          "velocity": 0.7007874015748031
        },
        {
          "duration": 0.29999999999999716,
          "durationTicks": 72,
          "midi": 67,
          "name": "G4",
          "ticks": 30600,
          "time": 127.5,
          "velocity": 0.7007874015748031
        },
        {
          "duration": 0.3166666666666629,
          "durationTicks": 76,
          "midi": 74,
          "name": "D5",
          "ticks": 30660,
          "time": 127.75,
          "velocity": 0.6929133858267716
        },
        {
          "duration": 0.28333333333333144,
          "durationTicks": 68,
          "midi": 67,
          "name": "G4",
          "ticks": 30720,
          "time": 128,
          "velocity": 0.6929133858267716
        },
        {
          "duration": 0.3166666666666629,
          "durationTicks": 76,
          "midi": 74,
          "name": "D5",
          "ticks": 30780,
          "time": 128.25,
          "velocity": 0.6929133858267716
        },
        {
          "duration": 0.28333333333333144,
          "durationTicks": 68,
          "midi": 67,
          "name": "G4",
          "ticks": 30840,
          "time": 128.5,
          "velocity": 0.6929133858267716
        },
        {
          "duration": 0.30000000000001137,
          "durationTicks": 72,
          "midi": 74,
          "name": "D5",
          "ticks": 30900,
          "time": 128.75,
          "velocity": 0.6929133858267716
        },
        {
          "duration": 0.3166666666666629,
          "durationTicks": 76,
          "midi": 75,
          "name": "D#5",
          "ticks": 30960,
          "time": 129,
          "velocity": 0.6929133858267716
        },
        {
          "duration": 0.3333333333333428,
          "durationTicks": 80,
          "midi": 74,
          "name": "D5",
          "ticks": 31020,
          "time": 129.25,
          "velocity": 0.6929133858267716
        },
        {
          "duration": 0.30000000000001137,
          "durationTicks": 72,
          "midi": 67,
          "name": "G4",
          "ticks": 31080,
          "time": 129.5,
          "velocity": 0.6929133858267716
        },
        {
          "duration": 0.3166666666666629,
          "durationTicks": 76,
          "midi": 74,
          "name": "D5",
          "ticks": 31140,
          "time": 129.75,
          "velocity": 0.6929133858267716
        },
        {
          "duration": 0.28333333333333144,
          "durationTicks": 68,
          "midi": 67,
          "name": "G4",
          "ticks": 31200,
          "time": 130,
          "velocity": 0.6929133858267716
        },
        {
          "duration": 0.3166666666666629,
          "durationTicks": 76,
          "midi": 74,
          "name": "D5",
          "ticks": 31260,
          "time": 130.25,
          "velocity": 0.6929133858267716
        },
        {
          "duration": 0.28333333333333144,
          "durationTicks": 68,
          "midi": 67,
          "name": "G4",
          "ticks": 31320,
          "time": 130.5,
          "velocity": 0.6929133858267716
        },
        {
          "duration": 0.30000000000001137,
          "durationTicks": 72,
          "midi": 74,
          "name": "D5",
          "ticks": 31380,
          "time": 130.75,
          "velocity": 0.6929133858267716
        },
        {
          "duration": 0.3166666666666629,
          "durationTicks": 76,
          "midi": 75,
          "name": "D#5",
          "ticks": 31440,
          "time": 131,
          "velocity": 0.6929133858267716
        },
        {
          "duration": 0.3333333333333428,
          "durationTicks": 80,
          "midi": 74,
          "name": "D5",
          "ticks": 31500,
          "time": 131.25,
          "velocity": 0.6929133858267716
        },
        {
          "duration": 0.30000000000001137,
          "durationTicks": 72,
          "midi": 67,
          "name": "G4",
          "ticks": 31560,
          "time": 131.5,
          "velocity": 0.6929133858267716
        },
        {
          "duration": 0.3166666666666629,
          "durationTicks": 76,
          "midi": 74,
          "name": "D5",
          "ticks": 31620,
          "time": 131.75,
          "velocity": 0.6929133858267716
        },
        {
          "duration": 0.28333333333333144,
          "durationTicks": 68,
          "midi": 67,
          "name": "G4",
          "ticks": 31680,
          "time": 132,
          "velocity": 0.6929133858267716
        },
        {
          "duration": 0.3166666666666629,
          "durationTicks": 76,
          "midi": 74,
          "name": "D5",
          "ticks": 31740,
          "time": 132.25,
          "velocity": 0.7007874015748031
        },
        {
          "duration": 0.28333333333333144,
          "durationTicks": 68,
          "midi": 67,
          "name": "G4",
          "ticks": 31800,
          "time": 132.5,
          "velocity": 0.7007874015748031
        },
        {
          "duration": 0.30000000000001137,
          "durationTicks": 72,
          "midi": 74,
          "name": "D5",
          "ticks": 31860,
          "time": 132.75,
          "velocity": 0.7007874015748031
        },
        {
          "duration": 0.3166666666666629,
          "durationTicks": 76,
          "midi": 75,
          "name": "D#5",
          "ticks": 31920,
          "time": 133,
          "velocity": 0.6929133858267716
        },
        {
          "duration": 0.3333333333333428,
          "durationTicks": 80,
          "midi": 74,
          "name": "D5",
          "ticks": 31980,
          "time": 133.25,
          "velocity": 0.6929133858267716
        },
        {
          "duration": 0.30000000000001137,
          "durationTicks": 72,
          "midi": 67,
          "name": "G4",
          "ticks": 32040,
          "time": 133.5,
          "velocity": 0.6929133858267716
        },
        {
          "duration": 0.3166666666666629,
          "durationTicks": 76,
          "midi": 74,
          "name": "D5",
          "ticks": 32100,
          "time": 133.75,
          "velocity": 0.6929133858267716
        },
        {
          "duration": 0.28333333333333144,
          "durationTicks": 68,
          "midi": 67,
          "name": "G4",
          "ticks": 32160,
          "time": 134,
          "velocity": 0.6929133858267716
        },
        {
          "duration": 0.3166666666666629,
          "durationTicks": 76,
          "midi": 74,
          "name": "D5",
          "ticks": 32220,
          "time": 134.25,
          "velocity": 0.6929133858267716
        },
        {
          "duration": 0.28333333333333144,
          "durationTicks": 68,
          "midi": 67,
          "name": "G4",
          "ticks": 32280,
          "time": 134.5,
          "velocity": 0.6929133858267716
        },
        {
          "duration": 0.30000000000001137,
          "durationTicks": 72,
          "midi": 74,
          "name": "D5",
          "ticks": 32340,
          "time": 134.75,
          "velocity": 0.6929133858267716
        },
        {
          "duration": 0.3166666666666629,
          "durationTicks": 76,
          "midi": 75,
          "name": "D#5",
          "ticks": 32400,
          "time": 135,
          "velocity": 0.6929133858267716
        },
        {
          "duration": 0.3333333333333428,
          "durationTicks": 80,
          "midi": 74,
          "name": "D5",
          "ticks": 32460,
          "time": 135.25,
          "velocity": 0.6929133858267716
        },
        {
          "duration": 0.30000000000001137,
          "durationTicks": 72,
          "midi": 67,
          "name": "G4",
          "ticks": 32520,
          "time": 135.5,
          "velocity": 0.6929133858267716
        },
        {
          "duration": 0.3166666666666629,
          "durationTicks": 76,
          "midi": 74,
          "name": "D5",
          "ticks": 32580,
          "time": 135.75,
          "velocity": 0.7007874015748031
        },
        {
          "duration": 0.28333333333333144,
          "durationTicks": 68,
          "midi": 67,
          "name": "G4",
          "ticks": 32640,
          "time": 136,
          "velocity": 0.6929133858267716
        },
        {
          "duration": 0.3166666666666629,
          "durationTicks": 76,
          "midi": 74,
          "name": "D5",
          "ticks": 32700,
          "time": 136.25,
          "velocity": 0.6929133858267716
        },
        {
          "duration": 0.28333333333333144,
          "durationTicks": 68,
          "midi": 67,
          "name": "G4",
          "ticks": 32760,
          "time": 136.5,
          "velocity": 0.6929133858267716
        },
        {
          "duration": 0.30000000000001137,
          "durationTicks": 72,
          "midi": 74,
          "name": "D5",
          "ticks": 32820,
          "time": 136.75,
          "velocity": 0.6929133858267716
        },
        {
          "duration": 0.3166666666666629,
          "durationTicks": 76,
          "midi": 75,
          "name": "D#5",
          "ticks": 32880,
          "time": 137,
          "velocity": 0.6929133858267716
        },
        {
          "duration": 0.3333333333333428,
          "durationTicks": 80,
          "midi": 74,
          "name": "D5",
          "ticks": 32940,
          "time": 137.25,
          "velocity": 0.7007874015748031
        },
        {
          "duration": 0.30000000000001137,
          "durationTicks": 72,
          "midi": 67,
          "name": "G4",
          "ticks": 33000,
          "time": 137.5,
          "velocity": 0.7007874015748031
        },
        {
          "duration": 0.3166666666666629,
          "durationTicks": 76,
          "midi": 74,
          "name": "D5",
          "ticks": 33060,
          "time": 137.75,
          "velocity": 0.7007874015748031
        },
        {
          "duration": 0.28333333333333144,
          "durationTicks": 68,
          "midi": 67,
          "name": "G4",
          "ticks": 33120,
          "time": 138,
          "velocity": 0.6929133858267716
        },
        {
          "duration": 0.3166666666666629,
          "durationTicks": 76,
          "midi": 74,
          "name": "D5",
          "ticks": 33180,
          "time": 138.25,
          "velocity": 0.6929133858267716
        },
        {
          "duration": 0.28333333333333144,
          "durationTicks": 68,
          "midi": 67,
          "name": "G4",
          "ticks": 33240,
          "time": 138.5,
          "velocity": 0.6929133858267716
        },
        {
          "duration": 0.30000000000001137,
          "durationTicks": 72,
          "midi": 74,
          "name": "D5",
          "ticks": 33300,
          "time": 138.75,
          "velocity": 0.6929133858267716
        },
        {
          "duration": 0.3166666666666629,
          "durationTicks": 76,
          "midi": 75,
          "name": "D#5",
          "ticks": 33360,
          "time": 139,
          "velocity": 0.6929133858267716
        },
        {
          "duration": 0.3333333333333428,
          "durationTicks": 80,
          "midi": 74,
          "name": "D5",
          "ticks": 33420,
          "time": 139.25,
          "velocity": 0.6929133858267716
        },
        {
          "duration": 0.30000000000001137,
          "durationTicks": 72,
          "midi": 67,
          "name": "G4",
          "ticks": 33480,
          "time": 139.5,
          "velocity": 0.6929133858267716
        },
        {
          "duration": 0.3166666666666629,
          "durationTicks": 76,
          "midi": 74,
          "name": "D5",
          "ticks": 33540,
          "time": 139.75,
          "velocity": 0.6929133858267716
        },
        {
          "duration": 0.28333333333333144,
          "durationTicks": 68,
          "midi": 67,
          "name": "G4",
          "ticks": 33600,
          "time": 140,
          "velocity": 0.6929133858267716
        },
        {
          "duration": 0.3166666666666629,
          "durationTicks": 76,
          "midi": 74,
          "name": "D5",
          "ticks": 33660,
          "time": 140.25,
          "velocity": 0.7007874015748031
        },
        {
          "duration": 0.28333333333333144,
          "durationTicks": 68,
          "midi": 67,
          "name": "G4",
          "ticks": 33720,
          "time": 140.5,
          "velocity": 0.7007874015748031
        },
        {
          "duration": 0.30000000000001137,
          "durationTicks": 72,
          "midi": 74,
          "name": "D5",
          "ticks": 33780,
          "time": 140.75,
          "velocity": 0.7007874015748031
        },
        {
          "duration": 0.3166666666666629,
          "durationTicks": 76,
          "midi": 75,
          "name": "D#5",
          "ticks": 33840,
          "time": 141,
          "velocity": 0.6929133858267716
        },
        {
          "duration": 0.3333333333333428,
          "durationTicks": 80,
          "midi": 74,
          "name": "D5",
          "ticks": 33900,
          "time": 141.25,
          "velocity": 0.6929133858267716
        },
        {
          "duration": 0.30000000000001137,
          "durationTicks": 72,
          "midi": 67,
          "name": "G4",
          "ticks": 33960,
          "time": 141.5,
          "velocity": 0.6929133858267716
        },
        {
          "duration": 0.3166666666666629,
          "durationTicks": 76,
          "midi": 74,
          "name": "D5",
          "ticks": 34020,
          "time": 141.75,
          "velocity": 0.6929133858267716
        },
        {
          "duration": 0.28333333333333144,
          "durationTicks": 68,
          "midi": 67,
          "name": "G4",
          "ticks": 34080,
          "time": 142,
          "velocity": 0.6929133858267716
        },
        {
          "duration": 0.3166666666666629,
          "durationTicks": 76,
          "midi": 74,
          "name": "D5",
          "ticks": 34140,
          "time": 142.25,
          "velocity": 0.6929133858267716
        },
        {
          "duration": 0.28333333333333144,
          "durationTicks": 68,
          "midi": 67,
          "name": "G4",
          "ticks": 34200,
          "time": 142.5,
          "velocity": 0.6929133858267716
        },
        {
          "duration": 0.30000000000001137,
          "durationTicks": 72,
          "midi": 74,
          "name": "D5",
          "ticks": 34260,
          "time": 142.75,
          "velocity": 0.6929133858267716
        },
        {
          "duration": 0.3166666666666629,
          "durationTicks": 76,
          "midi": 75,
          "name": "D#5",
          "ticks": 34320,
          "time": 143,
          "velocity": 0.6929133858267716
        },
        {
          "duration": 0.3333333333333428,
          "durationTicks": 80,
          "midi": 74,
          "name": "D5",
          "ticks": 34380,
          "time": 143.25,
          "velocity": 0.6929133858267716
        },
        {
          "duration": 0.30000000000001137,
          "durationTicks": 72,
          "midi": 67,
          "name": "G4",
          "ticks": 34440,
          "time": 143.5,
          "velocity": 0.6929133858267716
        },
        {
          "duration": 0.3166666666666629,
          "durationTicks": 76,
          "midi": 74,
          "name": "D5",
          "ticks": 34500,
          "time": 143.75,
          "velocity": 0.7007874015748031
        },
        {
          "duration": 0.28333333333333144,
          "durationTicks": 68,
          "midi": 67,
          "name": "G4",
          "ticks": 34560,
          "time": 144,
          "velocity": 0.6929133858267716
        },
        {
          "duration": 0.3166666666666629,
          "durationTicks": 76,
          "midi": 74,
          "name": "D5",
          "ticks": 34620,
          "time": 144.25,
          "velocity": 0.6929133858267716
        },
        {
          "duration": 0.28333333333333144,
          "durationTicks": 68,
          "midi": 67,
          "name": "G4",
          "ticks": 34680,
          "time": 144.5,
          "velocity": 0.6929133858267716
        },
        {
          "duration": 0.30000000000001137,
          "durationTicks": 72,
          "midi": 74,
          "name": "D5",
          "ticks": 34740,
          "time": 144.75,
          "velocity": 0.6929133858267716
        },
        {
          "duration": 0.3166666666666629,
          "durationTicks": 76,
          "midi": 75,
          "name": "D#5",
          "ticks": 34800,
          "time": 145,
          "velocity": 0.6929133858267716
        },
        {
          "duration": 0.3333333333333428,
          "durationTicks": 80,
          "midi": 74,
          "name": "D5",
          "ticks": 34860,
          "time": 145.25,
          "velocity": 0.7007874015748031
        },
        {
          "duration": 0.30000000000001137,
          "durationTicks": 72,
          "midi": 67,
          "name": "G4",
          "ticks": 34920,
          "time": 145.5,
          "velocity": 0.7007874015748031
        },
        {
          "duration": 0.3166666666666629,
          "durationTicks": 76,
          "midi": 74,
          "name": "D5",
          "ticks": 34980,
          "time": 145.75,
          "velocity": 0.7007874015748031
        },
        {
          "duration": 0.28333333333333144,
          "durationTicks": 68,
          "midi": 67,
          "name": "G4",
          "ticks": 35040,
          "time": 146,
          "velocity": 0.6929133858267716
        },
        {
          "duration": 0.3166666666666629,
          "durationTicks": 76,
          "midi": 74,
          "name": "D5",
          "ticks": 35100,
          "time": 146.25,
          "velocity": 0.6929133858267716
        },
        {
          "duration": 0.28333333333333144,
          "durationTicks": 68,
          "midi": 67,
          "name": "G4",
          "ticks": 35160,
          "time": 146.5,
          "velocity": 0.6929133858267716
        },
        {
          "duration": 0.30000000000001137,
          "durationTicks": 72,
          "midi": 74,
          "name": "D5",
          "ticks": 35220,
          "time": 146.75,
          "velocity": 0.6929133858267716
        },
        {
          "duration": 0.3166666666666629,
          "durationTicks": 76,
          "midi": 75,
          "name": "D#5",
          "ticks": 35280,
          "time": 147,
          "velocity": 0.6929133858267716
        },
        {
          "duration": 0.3333333333333428,
          "durationTicks": 80,
          "midi": 74,
          "name": "D5",
          "ticks": 35340,
          "time": 147.25,
          "velocity": 0.6929133858267716
        },
        {
          "duration": 0.30000000000001137,
          "durationTicks": 72,
          "midi": 67,
          "name": "G4",
          "ticks": 35400,
          "time": 147.5,
          "velocity": 0.6929133858267716
        },
        {
          "duration": 0.3166666666666629,
          "durationTicks": 76,
          "midi": 74,
          "name": "D5",
          "ticks": 35460,
          "time": 147.75,
          "velocity": 0.6929133858267716
        },
        {
          "duration": 0.28333333333333144,
          "durationTicks": 68,
          "midi": 67,
          "name": "G4",
          "ticks": 39840,
          "time": 166,
          "velocity": 0.6929133858267716
        },
        {
          "duration": 0.3166666666666629,
          "durationTicks": 76,
          "midi": 74,
          "name": "D5",
          "ticks": 39900,
          "time": 166.25,
          "velocity": 0.6929133858267716
        },
        {
          "duration": 0.28333333333333144,
          "durationTicks": 68,
          "midi": 67,
          "name": "G4",
          "ticks": 39960,
          "time": 166.5,
          "velocity": 0.6929133858267716
        },
        {
          "duration": 0.30000000000001137,
          "durationTicks": 72,
          "midi": 74,
          "name": "D5",
          "ticks": 40020,
          "time": 166.75,
          "velocity": 0.6929133858267716
        },
        {
          "duration": 0.3166666666666629,
          "durationTicks": 76,
          "midi": 75,
          "name": "D#5",
          "ticks": 40080,
          "time": 167,
          "velocity": 0.6929133858267716
        },
        {
          "duration": 0.3333333333333428,
          "durationTicks": 80,
          "midi": 74,
          "name": "D5",
          "ticks": 40140,
          "time": 167.25,
          "velocity": 0.6929133858267716
        },
        {
          "duration": 0.30000000000001137,
          "durationTicks": 72,
          "midi": 67,
          "name": "G4",
          "ticks": 40200,
          "time": 167.5,
          "velocity": 0.6929133858267716
        },
        {
          "duration": 0.3166666666666629,
          "durationTicks": 76,
          "midi": 74,
          "name": "D5",
          "ticks": 40260,
          "time": 167.75,
          "velocity": 0.6929133858267716
        },
        {
          "duration": 0.28333333333333144,
          "durationTicks": 68,
          "midi": 67,
          "name": "G4",
          "ticks": 40320,
          "time": 168,
          "velocity": 0.6929133858267716
        },
        {
          "duration": 0.3166666666666629,
          "durationTicks": 76,
          "midi": 74,
          "name": "D5",
          "ticks": 40380,
          "time": 168.25,
          "velocity": 0.7007874015748031
        },
        {
          "duration": 0.28333333333333144,
          "durationTicks": 68,
          "midi": 67,
          "name": "G4",
          "ticks": 40440,
          "time": 168.5,
          "velocity": 0.7007874015748031
        },
        {
          "duration": 0.30000000000001137,
          "durationTicks": 72,
          "midi": 74,
          "name": "D5",
          "ticks": 40500,
          "time": 168.75,
          "velocity": 0.7007874015748031
        },
        {
          "duration": 0.3166666666666629,
          "durationTicks": 76,
          "midi": 75,
          "name": "D#5",
          "ticks": 40560,
          "time": 169,
          "velocity": 0.6929133858267716
        },
        {
          "duration": 0.3333333333333428,
          "durationTicks": 80,
          "midi": 74,
          "name": "D5",
          "ticks": 40620,
          "time": 169.25,
          "velocity": 0.6929133858267716
        },
        {
          "duration": 0.30000000000001137,
          "durationTicks": 72,
          "midi": 67,
          "name": "G4",
          "ticks": 40680,
          "time": 169.5,
          "velocity": 0.6929133858267716
        },
        {
          "duration": 0.3166666666666629,
          "durationTicks": 76,
          "midi": 74,
          "name": "D5",
          "ticks": 40740,
          "time": 169.75,
          "velocity": 0.6929133858267716
        },
        {
          "duration": 0.28333333333333144,
          "durationTicks": 68,
          "midi": 67,
          "name": "G4",
          "ticks": 40800,
          "time": 170,
          "velocity": 0.6929133858267716
        },
        {
          "duration": 0.3166666666666629,
          "durationTicks": 76,
          "midi": 74,
          "name": "D5",
          "ticks": 40860,
          "time": 170.25,
          "velocity": 0.6929133858267716
        },
        {
          "duration": 0.28333333333333144,
          "durationTicks": 68,
          "midi": 67,
          "name": "G4",
          "ticks": 40920,
          "time": 170.5,
          "velocity": 0.6929133858267716
        },
        {
          "duration": 0.30000000000001137,
          "durationTicks": 72,
          "midi": 74,
          "name": "D5",
          "ticks": 40980,
          "time": 170.75,
          "velocity": 0.6929133858267716
        },
        {
          "duration": 0.3166666666666629,
          "durationTicks": 76,
          "midi": 75,
          "name": "D#5",
          "ticks": 41040,
          "time": 171,
          "velocity": 0.6929133858267716
        },
        {
          "duration": 0.3333333333333428,
          "durationTicks": 80,
          "midi": 74,
          "name": "D5",
          "ticks": 41100,
          "time": 171.25,
          "velocity": 0.6929133858267716
        },
        {
          "duration": 0.30000000000001137,
          "durationTicks": 72,
          "midi": 67,
          "name": "G4",
          "ticks": 41160,
          "time": 171.5,
          "velocity": 0.6929133858267716
        },
        {
          "duration": 0.3166666666666629,
          "durationTicks": 76,
          "midi": 74,
          "name": "D5",
          "ticks": 41220,
          "time": 171.75,
          "velocity": 0.7007874015748031
        },
        {
          "duration": 0.28333333333333144,
          "durationTicks": 68,
          "midi": 67,
          "name": "G4",
          "ticks": 41280,
          "time": 172,
          "velocity": 0.6929133858267716
        },
        {
          "duration": 0.3166666666666629,
          "durationTicks": 76,
          "midi": 74,
          "name": "D5",
          "ticks": 41340,
          "time": 172.25,
          "velocity": 0.6929133858267716
        },
        {
          "duration": 0.28333333333333144,
          "durationTicks": 68,
          "midi": 67,
          "name": "G4",
          "ticks": 41400,
          "time": 172.5,
          "velocity": 0.6929133858267716
        },
        {
          "duration": 0.30000000000001137,
          "durationTicks": 72,
          "midi": 74,
          "name": "D5",
          "ticks": 41460,
          "time": 172.75,
          "velocity": 0.6929133858267716
        },
        {
          "duration": 0.3166666666666629,
          "durationTicks": 76,
          "midi": 75,
          "name": "D#5",
          "ticks": 41520,
          "time": 173,
          "velocity": 0.6929133858267716
        },
        {
          "duration": 0.3333333333333428,
          "durationTicks": 80,
          "midi": 74,
          "name": "D5",
          "ticks": 41580,
          "time": 173.25,
          "velocity": 0.7007874015748031
        },
        {
          "duration": 0.30000000000001137,
          "durationTicks": 72,
          "midi": 67,
          "name": "G4",
          "ticks": 41640,
          "time": 173.5,
          "velocity": 0.7007874015748031
        },
        {
          "duration": 0.3166666666666629,
          "durationTicks": 76,
          "midi": 74,
          "name": "D5",
          "ticks": 41700,
          "time": 173.75,
          "velocity": 0.7007874015748031
        },
        {
          "duration": 0.28333333333333144,
          "durationTicks": 68,
          "midi": 67,
          "name": "G4",
          "ticks": 41760,
          "time": 174,
          "velocity": 0.7007874015748031
        },
        {
          "duration": 0.3166666666666629,
          "durationTicks": 76,
          "midi": 74,
          "name": "D5",
          "ticks": 41820,
          "time": 174.25,
          "velocity": 0.6929133858267716
        },
        {
          "duration": 0.28333333333333144,
          "durationTicks": 68,
          "midi": 67,
          "name": "G4",
          "ticks": 41880,
          "time": 174.5,
          "velocity": 0.6929133858267716
        },
        {
          "duration": 0.30000000000001137,
          "durationTicks": 72,
          "midi": 74,
          "name": "D5",
          "ticks": 41940,
          "time": 174.75,
          "velocity": 0.6929133858267716
        },
        {
          "duration": 0.3166666666666629,
          "durationTicks": 76,
          "midi": 75,
          "name": "D#5",
          "ticks": 42000,
          "time": 175,
          "velocity": 0.6929133858267716
        },
        {
          "duration": 0.3333333333333428,
          "durationTicks": 80,
          "midi": 74,
          "name": "D5",
          "ticks": 42060,
          "time": 175.25,
          "velocity": 0.6929133858267716
        },
        {
          "duration": 0.30000000000001137,
          "durationTicks": 72,
          "midi": 67,
          "name": "G4",
          "ticks": 42120,
          "time": 175.5,
          "velocity": 0.7007874015748031
        },
        {
          "duration": 0.3166666666666629,
          "durationTicks": 76,
          "midi": 74,
          "name": "D5",
          "ticks": 42180,
          "time": 175.75,
          "velocity": 0.7007874015748031
        },
        {
          "duration": 0.28333333333333144,
          "durationTicks": 68,
          "midi": 67,
          "name": "G4",
          "ticks": 42240,
          "time": 176,
          "velocity": 0.7007874015748031
        },
        {
          "duration": 0.3166666666666629,
          "durationTicks": 76,
          "midi": 74,
          "name": "D5",
          "ticks": 42300,
          "time": 176.25,
          "velocity": 0.6929133858267716
        },
        {
          "duration": 0.28333333333333144,
          "durationTicks": 68,
          "midi": 67,
          "name": "G4",
          "ticks": 42360,
          "time": 176.5,
          "velocity": 0.6929133858267716
        },
        {
          "duration": 0.30000000000001137,
          "durationTicks": 72,
          "midi": 74,
          "name": "D5",
          "ticks": 42420,
          "time": 176.75,
          "velocity": 0.6929133858267716
        },
        {
          "duration": 0.3166666666666629,
          "durationTicks": 76,
          "midi": 75,
          "name": "D#5",
          "ticks": 42480,
          "time": 177,
          "velocity": 0.6929133858267716
        },
        {
          "duration": 0.3333333333333428,
          "durationTicks": 80,
          "midi": 74,
          "name": "D5",
          "ticks": 42540,
          "time": 177.25,
          "velocity": 0.7007874015748031
        },
        {
          "duration": 0.30000000000001137,
          "durationTicks": 72,
          "midi": 67,
          "name": "G4",
          "ticks": 42600,
          "time": 177.5,
          "velocity": 0.7007874015748031
        },
        {
          "duration": 0.3166666666666629,
          "durationTicks": 76,
          "midi": 74,
          "name": "D5",
          "ticks": 42660,
          "time": 177.75,
          "velocity": 0.6929133858267716
        },
        {
          "duration": 0.28333333333333144,
          "durationTicks": 68,
          "midi": 67,
          "name": "G4",
          "ticks": 42720,
          "time": 178,
          "velocity": 0.6929133858267716
        },
        {
          "duration": 0.3166666666666629,
          "durationTicks": 76,
          "midi": 74,
          "name": "D5",
          "ticks": 42780,
          "time": 178.25,
          "velocity": 0.6929133858267716
        },
        {
          "duration": 0.28333333333333144,
          "durationTicks": 68,
          "midi": 67,
          "name": "G4",
          "ticks": 42840,
          "time": 178.5,
          "velocity": 0.6929133858267716
        },
        {
          "duration": 0.30000000000001137,
          "durationTicks": 72,
          "midi": 74,
          "name": "D5",
          "ticks": 42900,
          "time": 178.75,
          "velocity": 0.6929133858267716
        },
        {
          "duration": 0.3166666666666629,
          "durationTicks": 76,
          "midi": 75,
          "name": "D#5",
          "ticks": 42960,
          "time": 179,
          "velocity": 0.6929133858267716
        },
        {
          "duration": 0.3333333333333428,
          "durationTicks": 80,
          "midi": 74,
          "name": "D5",
          "ticks": 43020,
          "time": 179.25,
          "velocity": 0.6929133858267716
        },
        {
          "duration": 0.30000000000001137,
          "durationTicks": 72,
          "midi": 67,
          "name": "G4",
          "ticks": 43080,
          "time": 179.5,
          "velocity": 0.6929133858267716
        },
        {
          "duration": 0.3166666666666629,
          "durationTicks": 76,
          "midi": 74,
          "name": "D5",
          "ticks": 43140,
          "time": 179.75,
          "velocity": 0.6929133858267716
        },
        {
          "duration": 0.28333333333333144,
          "durationTicks": 68,
          "midi": 67,
          "name": "G4",
          "ticks": 43200,
          "time": 180,
          "velocity": 0.6929133858267716
        },
        {
          "duration": 0.3166666666666629,
          "durationTicks": 76,
          "midi": 74,
          "name": "D5",
          "ticks": 43260,
          "time": 180.25,
          "velocity": 0.6929133858267716
        },
        {
          "duration": 0.28333333333333144,
          "durationTicks": 68,
          "midi": 67,
          "name": "G4",
          "ticks": 43320,
          "time": 180.5,
          "velocity": 0.6929133858267716
        },
        {
          "duration": 0.30000000000001137,
          "durationTicks": 72,
          "midi": 74,
          "name": "D5",
          "ticks": 43380,
          "time": 180.75,
          "velocity": 0.6929133858267716
        },
        {
          "duration": 0.3166666666666629,
          "durationTicks": 76,
          "midi": 75,
          "name": "D#5",
          "ticks": 43440,
          "time": 181,
          "velocity": 0.6929133858267716
        },
        {
          "duration": 0.3333333333333428,
          "durationTicks": 80,
          "midi": 74,
          "name": "D5",
          "ticks": 43500,
          "time": 181.25,
          "velocity": 0.6929133858267716
        },
        {
          "duration": 0.30000000000001137,
          "durationTicks": 72,
          "midi": 67,
          "name": "G4",
          "ticks": 43560,
          "time": 181.5,
          "velocity": 0.6929133858267716
        },
        {
          "duration": 0.3166666666666629,
          "durationTicks": 76,
          "midi": 74,
          "name": "D5",
          "ticks": 43620,
          "time": 181.75,
          "velocity": 0.7007874015748031
        },
        {
          "duration": 0.28333333333333144,
          "durationTicks": 68,
          "midi": 67,
          "name": "G4",
          "ticks": 43680,
          "time": 182,
          "velocity": 0.6929133858267716
        },
        {
          "duration": 0.3166666666666629,
          "durationTicks": 76,
          "midi": 74,
          "name": "D5",
          "ticks": 43740,
          "time": 182.25,
          "velocity": 0.6929133858267716
        },
        {
          "duration": 0.28333333333333144,
          "durationTicks": 68,
          "midi": 67,
          "name": "G4",
          "ticks": 43800,
          "time": 182.5,
          "velocity": 0.6929133858267716
        },
        {
          "duration": 0.30000000000001137,
          "durationTicks": 72,
          "midi": 74,
          "name": "D5",
          "ticks": 43860,
          "time": 182.75,
          "velocity": 0.6929133858267716
        },
        {
          "duration": 0.3166666666666629,
          "durationTicks": 76,
          "midi": 75,
          "name": "D#5",
          "ticks": 43920,
          "time": 183,
          "velocity": 0.6929133858267716
        },
        {
          "duration": 0.3333333333333428,
          "durationTicks": 80,
          "midi": 74,
          "name": "D5",
          "ticks": 43980,
          "time": 183.25,
          "velocity": 0.6929133858267716
        },
        {
          "duration": 0.30000000000001137,
          "durationTicks": 72,
          "midi": 67,
          "name": "G4",
          "ticks": 44040,
          "time": 183.5,
          "velocity": 0.6929133858267716
        },
        {
          "duration": 0.3166666666666629,
          "durationTicks": 76,
          "midi": 74,
          "name": "D5",
          "ticks": 44100,
          "time": 183.75,
          "velocity": 0.6929133858267716
        },
        {
          "duration": 0.28333333333333144,
          "durationTicks": 68,
          "midi": 67,
          "name": "G4",
          "ticks": 44160,
          "time": 184,
          "velocity": 0.6929133858267716
        },
        {
          "duration": 0.3166666666666629,
          "durationTicks": 76,
          "midi": 74,
          "name": "D5",
          "ticks": 44220,
          "time": 184.25,
          "velocity": 0.7007874015748031
        },
        {
          "duration": 0.28333333333333144,
          "durationTicks": 68,
          "midi": 67,
          "name": "G4",
          "ticks": 44280,
          "time": 184.5,
          "velocity": 0.7007874015748031
        },
        {
          "duration": 0.30000000000001137,
          "durationTicks": 72,
          "midi": 74,
          "name": "D5",
          "ticks": 44340,
          "time": 184.75,
          "velocity": 0.7007874015748031
        },
        {
          "duration": 0.3166666666666629,
          "durationTicks": 76,
          "midi": 75,
          "name": "D#5",
          "ticks": 44400,
          "time": 185,
          "velocity": 0.6929133858267716
        },
        {
          "duration": 0.3333333333333428,
          "durationTicks": 80,
          "midi": 74,
          "name": "D5",
          "ticks": 44460,
          "time": 185.25,
          "velocity": 0.6929133858267716
        },
        {
          "duration": 0.30000000000001137,
          "durationTicks": 72,
          "midi": 67,
          "name": "G4",
          "ticks": 44520,
          "time": 185.5,
          "velocity": 0.6929133858267716
        },
        {
          "duration": 0.3166666666666629,
          "durationTicks": 76,
          "midi": 74,
          "name": "D5",
          "ticks": 44580,
          "time": 185.75,
          "velocity": 0.6929133858267716
        },
        {
          "duration": 0.28333333333333144,
          "durationTicks": 68,
          "midi": 67,
          "name": "G4",
          "ticks": 44640,
          "time": 186,
          "velocity": 0.6929133858267716
        },
        {
          "duration": 0.3166666666666629,
          "durationTicks": 76,
          "midi": 74,
          "name": "D5",
          "ticks": 44700,
          "time": 186.25,
          "velocity": 0.6929133858267716
        },
        {
          "duration": 0.28333333333333144,
          "durationTicks": 68,
          "midi": 67,
          "name": "G4",
          "ticks": 44760,
          "time": 186.5,
          "velocity": 0.6929133858267716
        },
        {
          "duration": 0.30000000000001137,
          "durationTicks": 72,
          "midi": 74,
          "name": "D5",
          "ticks": 44820,
          "time": 186.75,
          "velocity": 0.6929133858267716
        },
        {
          "duration": 0.3166666666666629,
          "durationTicks": 76,
          "midi": 75,
          "name": "D#5",
          "ticks": 44880,
          "time": 187,
          "velocity": 0.6929133858267716
        },
        {
          "duration": 0.3333333333333428,
          "durationTicks": 80,
          "midi": 74,
          "name": "D5",
          "ticks": 44940,
          "time": 187.25,
          "velocity": 0.6929133858267716
        },
        {
          "duration": 0.30000000000001137,
          "durationTicks": 72,
          "midi": 67,
          "name": "G4",
          "ticks": 45000,
          "time": 187.5,
          "velocity": 0.6929133858267716
        },
        {
          "duration": 0.3166666666666629,
          "durationTicks": 76,
          "midi": 74,
          "name": "D5",
          "ticks": 45060,
          "time": 187.75,
          "velocity": 0.7007874015748031
        },
        {
          "duration": 0.28333333333333144,
          "durationTicks": 68,
          "midi": 67,
          "name": "G4",
          "ticks": 45120,
          "time": 188,
          "velocity": 0.6929133858267716
        },
        {
          "duration": 0.3166666666666629,
          "durationTicks": 76,
          "midi": 74,
          "name": "D5",
          "ticks": 45180,
          "time": 188.25,
          "velocity": 0.6929133858267716
        },
        {
          "duration": 0.28333333333333144,
          "durationTicks": 68,
          "midi": 67,
          "name": "G4",
          "ticks": 45240,
          "time": 188.5,
          "velocity": 0.6929133858267716
        },
        {
          "duration": 0.30000000000001137,
          "durationTicks": 72,
          "midi": 74,
          "name": "D5",
          "ticks": 45300,
          "time": 188.75,
          "velocity": 0.6929133858267716
        },
        {
          "duration": 0.3166666666666629,
          "durationTicks": 76,
          "midi": 75,
          "name": "D#5",
          "ticks": 45360,
          "time": 189,
          "velocity": 0.6929133858267716
        },
        {
          "duration": 0.3333333333333428,
          "durationTicks": 80,
          "midi": 74,
          "name": "D5",
          "ticks": 45420,
          "time": 189.25,
          "velocity": 0.7007874015748031
        },
        {
          "duration": 0.30000000000001137,
          "durationTicks": 72,
          "midi": 67,
          "name": "G4",
          "ticks": 45480,
          "time": 189.5,
          "velocity": 0.7007874015748031
        },
        {
          "duration": 0.3166666666666629,
          "durationTicks": 76,
          "midi": 74,
          "name": "D5",
          "ticks": 45540,
          "time": 189.75,
          "velocity": 0.7007874015748031
        },
        {
          "duration": 0.28333333333333144,
          "durationTicks": 68,
          "midi": 67,
          "name": "G4",
          "ticks": 45600,
          "time": 190,
          "velocity": 0.6929133858267716
        },
        {
          "duration": 0.3166666666666629,
          "durationTicks": 76,
          "midi": 74,
          "name": "D5",
          "ticks": 45660,
          "time": 190.25,
          "velocity": 0.6929133858267716
        },
        {
          "duration": 0.28333333333333144,
          "durationTicks": 68,
          "midi": 67,
          "name": "G4",
          "ticks": 45720,
          "time": 190.5,
          "velocity": 0.6929133858267716
        },
        {
          "duration": 0.30000000000001137,
          "durationTicks": 72,
          "midi": 74,
          "name": "D5",
          "ticks": 45780,
          "time": 190.75,
          "velocity": 0.6929133858267716
        },
        {
          "duration": 0.3166666666666629,
          "durationTicks": 76,
          "midi": 75,
          "name": "D#5",
          "ticks": 45840,
          "time": 191,
          "velocity": 0.6929133858267716
        },
        {
          "duration": 0.3333333333333428,
          "durationTicks": 80,
          "midi": 74,
          "name": "D5",
          "ticks": 45900,
          "time": 191.25,
          "velocity": 0.6929133858267716
        },
        {
          "duration": 0.30000000000001137,
          "durationTicks": 72,
          "midi": 67,
          "name": "G4",
          "ticks": 45960,
          "time": 191.5,
          "velocity": 0.6929133858267716
        },
        {
          "duration": 0.3166666666666629,
          "durationTicks": 76,
          "midi": 74,
          "name": "D5",
          "ticks": 46020,
          "time": 191.75,
          "velocity": 0.6929133858267716
        },
        {
          "duration": 0.28333333333333144,
          "durationTicks": 68,
          "midi": 67,
          "name": "G4",
          "ticks": 46080,
          "time": 192,
          "velocity": 0.6929133858267716
        },
        {
          "duration": 0.3166666666666629,
          "durationTicks": 76,
          "midi": 74,
          "name": "D5",
          "ticks": 46140,
          "time": 192.25,
          "velocity": 0.7007874015748031
        },
        {
          "duration": 0.28333333333333144,
          "durationTicks": 68,
          "midi": 67,
          "name": "G4",
          "ticks": 46200,
          "time": 192.5,
          "velocity": 0.7007874015748031
        },
        {
          "duration": 0.30000000000001137,
          "durationTicks": 72,
          "midi": 74,
          "name": "D5",
          "ticks": 46260,
          "time": 192.75,
          "velocity": 0.7007874015748031
        },
        {
          "duration": 0.3166666666666629,
          "durationTicks": 76,
          "midi": 75,
          "name": "D#5",
          "ticks": 46320,
          "time": 193,
          "velocity": 0.6929133858267716
        },
        {
          "duration": 0.3333333333333428,
          "durationTicks": 80,
          "midi": 74,
          "name": "D5",
          "ticks": 46380,
          "time": 193.25,
          "velocity": 0.6929133858267716
        },
        {
          "duration": 0.30000000000001137,
          "durationTicks": 72,
          "midi": 67,
          "name": "G4",
          "ticks": 46440,
          "time": 193.5,
          "velocity": 0.6929133858267716
        },
        {
          "duration": 0.3166666666666629,
          "durationTicks": 76,
          "midi": 74,
          "name": "D5",
          "ticks": 46500,
          "time": 193.75,
          "velocity": 0.6929133858267716
        },
        {
          "duration": 0.28333333333333144,
          "durationTicks": 68,
          "midi": 67,
          "name": "G4",
          "ticks": 46560,
          "time": 194,
          "velocity": 0.6929133858267716
        },
        {
          "duration": 0.3166666666666629,
          "durationTicks": 76,
          "midi": 74,
          "name": "D5",
          "ticks": 46620,
          "time": 194.25,
          "velocity": 0.6929133858267716
        },
        {
          "duration": 0.28333333333333144,
          "durationTicks": 68,
          "midi": 67,
          "name": "G4",
          "ticks": 46680,
          "time": 194.5,
          "velocity": 0.6929133858267716
        },
        {
          "duration": 0.30000000000001137,
          "durationTicks": 72,
          "midi": 74,
          "name": "D5",
          "ticks": 46740,
          "time": 194.75,
          "velocity": 0.6929133858267716
        },
        {
          "duration": 0.3166666666666629,
          "durationTicks": 76,
          "midi": 75,
          "name": "D#5",
          "ticks": 46800,
          "time": 195,
          "velocity": 0.6929133858267716
        },
        {
          "duration": 0.3333333333333428,
          "durationTicks": 80,
          "midi": 74,
          "name": "D5",
          "ticks": 46860,
          "time": 195.25,
          "velocity": 0.6929133858267716
        },
        {
          "duration": 0.30000000000001137,
          "durationTicks": 72,
          "midi": 67,
          "name": "G4",
          "ticks": 46920,
          "time": 195.5,
          "velocity": 0.6929133858267716
        },
        {
          "duration": 0.3166666666666629,
          "durationTicks": 76,
          "midi": 74,
          "name": "D5",
          "ticks": 46980,
          "time": 195.75,
          "velocity": 0.7007874015748031
        },
        {
          "duration": 0.28333333333333144,
          "durationTicks": 68,
          "midi": 67,
          "name": "G4",
          "ticks": 47040,
          "time": 196,
          "velocity": 0.6929133858267716
        },
        {
          "duration": 0.3166666666666629,
          "durationTicks": 76,
          "midi": 74,
          "name": "D5",
          "ticks": 47100,
          "time": 196.25,
          "velocity": 0.6929133858267716
        },
        {
          "duration": 0.28333333333333144,
          "durationTicks": 68,
          "midi": 67,
          "name": "G4",
          "ticks": 47160,
          "time": 196.5,
          "velocity": 0.6929133858267716
        },
        {
          "duration": 0.30000000000001137,
          "durationTicks": 72,
          "midi": 74,
          "name": "D5",
          "ticks": 47220,
          "time": 196.75,
          "velocity": 0.6929133858267716
        },
        {
          "duration": 0.3166666666666629,
          "durationTicks": 76,
          "midi": 75,
          "name": "D#5",
          "ticks": 47280,
          "time": 197,
          "velocity": 0.6929133858267716
        },
        {
          "duration": 0.3333333333333428,
          "durationTicks": 80,
          "midi": 74,
          "name": "D5",
          "ticks": 47340,
          "time": 197.25,
          "velocity": 0.7007874015748031
        },
        {
          "duration": 0.30000000000001137,
          "durationTicks": 72,
          "midi": 67,
          "name": "G4",
          "ticks": 47400,
          "time": 197.5,
          "velocity": 0.7007874015748031
        },
        {
          "duration": 0.3166666666666629,
          "durationTicks": 76,
          "midi": 74,
          "name": "D5",
          "ticks": 47460,
          "time": 197.75,
          "velocity": 0.7007874015748031
        },
        {
          "duration": 0.28333333333333144,
          "durationTicks": 68,
          "midi": 67,
          "name": "G4",
          "ticks": 47520,
          "time": 198,
          "velocity": 0.6929133858267716
        },
        {
          "duration": 0.3166666666666629,
          "durationTicks": 76,
          "midi": 74,
          "name": "D5",
          "ticks": 47580,
          "time": 198.25,
          "velocity": 0.6929133858267716
        },
        {
          "duration": 0.28333333333333144,
          "durationTicks": 68,
          "midi": 67,
          "name": "G4",
          "ticks": 47640,
          "time": 198.5,
          "velocity": 0.6929133858267716
        },
        {
          "duration": 0.30000000000001137,
          "durationTicks": 72,
          "midi": 74,
          "name": "D5",
          "ticks": 47700,
          "time": 198.75,
          "velocity": 0.6929133858267716
        },
        {
          "duration": 0.3166666666666629,
          "durationTicks": 76,
          "midi": 75,
          "name": "D#5",
          "ticks": 47760,
          "time": 199,
          "velocity": 0.6929133858267716
        },
        {
          "duration": 0.3333333333333428,
          "durationTicks": 80,
          "midi": 74,
          "name": "D5",
          "ticks": 47820,
          "time": 199.25,
          "velocity": 0.6929133858267716
        },
        {
          "duration": 0.30000000000001137,
          "durationTicks": 72,
          "midi": 67,
          "name": "G4",
          "ticks": 47880,
          "time": 199.5,
          "velocity": 0.6929133858267716
        },
        {
          "duration": 0.3166666666666629,
          "durationTicks": 76,
          "midi": 74,
          "name": "D5",
          "ticks": 47940,
          "time": 199.75,
          "velocity": 0.6929133858267716
        },
        {
          "duration": 0.28333333333333144,
          "durationTicks": 68,
          "midi": 67,
          "name": "G4",
          "ticks": 48000,
          "time": 200,
          "velocity": 0.6929133858267716
        },
        {
          "duration": 0.3166666666666629,
          "durationTicks": 76,
          "midi": 74,
          "name": "D5",
          "ticks": 48060,
          "time": 200.25,
          "velocity": 0.7007874015748031
        },
        {
          "duration": 0.28333333333333144,
          "durationTicks": 68,
          "midi": 67,
          "name": "G4",
          "ticks": 48120,
          "time": 200.5,
          "velocity": 0.7007874015748031
        },
        {
          "duration": 0.30000000000001137,
          "durationTicks": 72,
          "midi": 74,
          "name": "D5",
          "ticks": 48180,
          "time": 200.75,
          "velocity": 0.7007874015748031
        },
        {
          "duration": 0.3166666666666629,
          "durationTicks": 76,
          "midi": 75,
          "name": "D#5",
          "ticks": 48240,
          "time": 201,
          "velocity": 0.6929133858267716
        },
        {
          "duration": 0.3333333333333428,
          "durationTicks": 80,
          "midi": 74,
          "name": "D5",
          "ticks": 48300,
          "time": 201.25,
          "velocity": 0.6929133858267716
        },
        {
          "duration": 0.30000000000001137,
          "durationTicks": 72,
          "midi": 67,
          "name": "G4",
          "ticks": 48360,
          "time": 201.5,
          "velocity": 0.6929133858267716
        },
        {
          "duration": 0.3166666666666629,
          "durationTicks": 76,
          "midi": 74,
          "name": "D5",
          "ticks": 48420,
          "time": 201.75,
          "velocity": 0.6929133858267716
        },
        {
          "duration": 0.28333333333333144,
          "durationTicks": 68,
          "midi": 67,
          "name": "G4",
          "ticks": 48480,
          "time": 202,
          "velocity": 0.6929133858267716
        },
        {
          "duration": 0.3166666666666629,
          "durationTicks": 76,
          "midi": 74,
          "name": "D5",
          "ticks": 48540,
          "time": 202.25,
          "velocity": 0.6929133858267716
        },
        {
          "duration": 0.28333333333333144,
          "durationTicks": 68,
          "midi": 67,
          "name": "G4",
          "ticks": 48600,
          "time": 202.5,
          "velocity": 0.6929133858267716
        },
        {
          "duration": 0.30000000000001137,
          "durationTicks": 72,
          "midi": 74,
          "name": "D5",
          "ticks": 48660,
          "time": 202.75,
          "velocity": 0.6929133858267716
        },
        {
          "duration": 0.3166666666666629,
          "durationTicks": 76,
          "midi": 75,
          "name": "D#5",
          "ticks": 48720,
          "time": 203,
          "velocity": 0.6929133858267716
        },
        {
          "duration": 0.3333333333333428,
          "durationTicks": 80,
          "midi": 74,
          "name": "D5",
          "ticks": 48780,
          "time": 203.25,
          "velocity": 0.6929133858267716
        },
        {
          "duration": 0.30000000000001137,
          "durationTicks": 72,
          "midi": 67,
          "name": "G4",
          "ticks": 48840,
          "time": 203.5,
          "velocity": 0.6929133858267716
        },
        {
          "duration": 0.3166666666666629,
          "durationTicks": 76,
          "midi": 74,
          "name": "D5",
          "ticks": 48900,
          "time": 203.75,
          "velocity": 0.7007874015748031
        },
        {
          "duration": 0.28333333333333144,
          "durationTicks": 68,
          "midi": 67,
          "name": "G4",
          "ticks": 48960,
          "time": 204,
          "velocity": 0.6929133858267716
        },
        {
          "duration": 0.3166666666666629,
          "durationTicks": 76,
          "midi": 74,
          "name": "D5",
          "ticks": 49020,
          "time": 204.25,
          "velocity": 0.6929133858267716
        },
        {
          "duration": 0.28333333333333144,
          "durationTicks": 68,
          "midi": 67,
          "name": "G4",
          "ticks": 49080,
          "time": 204.5,
          "velocity": 0.6929133858267716
        },
        {
          "duration": 0.30000000000001137,
          "durationTicks": 72,
          "midi": 74,
          "name": "D5",
          "ticks": 49140,
          "time": 204.75,
          "velocity": 0.6929133858267716
        },
        {
          "duration": 0.3166666666666629,
          "durationTicks": 76,
          "midi": 75,
          "name": "D#5",
          "ticks": 49200,
          "time": 205,
          "velocity": 0.6929133858267716
        },
        {
          "duration": 0.3333333333333428,
          "durationTicks": 80,
          "midi": 74,
          "name": "D5",
          "ticks": 49260,
          "time": 205.25,
          "velocity": 0.7007874015748031
        },
        {
          "duration": 0.30000000000001137,
          "durationTicks": 72,
          "midi": 67,
          "name": "G4",
          "ticks": 49320,
          "time": 205.5,
          "velocity": 0.7007874015748031
        },
        {
          "duration": 2.2166666666666686,
          "durationTicks": 532,
          "midi": 74,
          "name": "D5",
          "ticks": 49380,
          "time": 205.75,
          "velocity": 0.7007874015748031
        }
      ]
    },
    {
      "channel": 0,
      "controlChanges": {
        "0": [
          {
            "number": 0,
            "ticks": 0,
            "time": 0,
            "value": 0
          }
        ]
      },
      "pitchBends": [],
      "instrument": {
        "family": "piano",
        "number": 0,
        "name": "acoustic grand piano"
      },
      "name": "4",
      "notes": [],
      "endOfTrackTicks": 49428
    },
    {
      "channel": 3,
      "controlChanges": {
        "7": [
          {
            "number": 7,
            "ticks": 0,
            "time": 0,
            "value": 0.7795275590551181
          },
          {
            "number": 7,
            "ticks": 10568,
            "time": 44.03333333333333,
            "value": 0.7716535433070866
          },
          {
            "number": 7,
            "ticks": 10592,
            "time": 44.13333333333333,
            "value": 0.7637795275590551
          },
          {
            "number": 7,
            "ticks": 10600,
            "time": 44.166666666666664,
            "value": 0.7480314960629921
          },
          {
            "number": 7,
            "ticks": 10616,
            "time": 44.233333333333334,
            "value": 0.7401574803149606
          },
          {
            "number": 7,
            "ticks": 10632,
            "time": 44.3,
            "value": 0.7244094488188977
          },
          {
            "number": 7,
            "ticks": 10672,
            "time": 44.46666666666667,
            "value": 0.7165354330708661
          },
          {
            "number": 7,
            "ticks": 10680,
            "time": 44.5,
            "value": 0.7007874015748031
          },
          {
            "number": 7,
            "ticks": 10696,
            "time": 44.56666666666667,
            "value": 0.6929133858267716
          },
          {
            "number": 7,
            "ticks": 10712,
            "time": 44.63333333333333,
            "value": 0.6850393700787402
          },
          {
            "number": 7,
            "ticks": 10720,
            "time": 44.666666666666664,
            "value": 0.6692913385826772
          },
          {
            "number": 7,
            "ticks": 10736,
            "time": 44.733333333333334,
            "value": 0.6614173228346457
          },
          {
            "number": 7,
            "ticks": 10784,
            "time": 44.93333333333333,
            "value": 0.6456692913385826
          },
          {
            "number": 7,
            "ticks": 10800,
            "time": 45,
            "value": 0.6377952755905512
          },
          {
            "number": 7,
            "ticks": 10808,
            "time": 45.03333333333333,
            "value": 0.6220472440944882
          },
          {
            "number": 7,
            "ticks": 10816,
            "time": 45.06666666666667,
            "value": 0.6141732283464567
          },
          {
            "number": 7,
            "ticks": 10840,
            "time": 45.166666666666664,
            "value": 0.5984251968503937
          },
          {
            "number": 7,
            "ticks": 10848,
            "time": 45.2,
            "value": 0.5905511811023622
          },
          {
            "number": 7,
            "ticks": 10856,
            "time": 45.233333333333334,
            "value": 0.5826771653543307
          },
          {
            "number": 7,
            "ticks": 10904,
            "time": 45.43333333333333,
            "value": 0.5590551181102362
          },
          {
            "number": 7,
            "ticks": 10960,
            "time": 45.666666666666664,
            "value": 0.5354330708661418
          },
          {
            "number": 7,
            "ticks": 10976,
            "time": 45.733333333333334,
            "value": 0.5196850393700787
          },
          {
            "number": 7,
            "ticks": 11008,
            "time": 45.86666666666667,
            "value": 0.5039370078740157
          },
          {
            "number": 7,
            "ticks": 11032,
            "time": 45.96666666666667,
            "value": 0.4881889763779528
          },
          {
            "number": 7,
            "ticks": 11048,
            "time": 46.03333333333333,
            "value": 0.48031496062992124
          },
          {
            "number": 7,
            "ticks": 11064,
            "time": 46.1,
            "value": 0.4645669291338583
          },
          {
            "number": 7,
            "ticks": 11080,
            "time": 46.166666666666664,
            "value": 0.4566929133858268
          },
          {
            "number": 7,
            "ticks": 11096,
            "time": 46.233333333333334,
            "value": 0.4409448818897638
          },
          {
            "number": 7,
            "ticks": 11112,
            "time": 46.3,
            "value": 0.41732283464566927
          },
          {
            "number": 7,
            "ticks": 11144,
            "time": 46.43333333333333,
            "value": 0.4094488188976378
          },
          {
            "number": 7,
            "ticks": 11168,
            "time": 46.53333333333333,
            "value": 0.4015748031496063
          },
          {
            "number": 7,
            "ticks": 11192,
            "time": 46.63333333333333,
            "value": 0.3779527559055118
          },
          {
            "number": 7,
            "ticks": 11208,
            "time": 46.7,
            "value": 0.36220472440944884
          },
          {
            "number": 7,
            "ticks": 11224,
            "time": 46.766666666666666,
            "value": 0.3543307086614173
          },
          {
            "number": 7,
            "ticks": 11248,
            "time": 46.86666666666667,
            "value": 0.33858267716535434
          },
          {
            "number": 7,
            "ticks": 11272,
            "time": 46.96666666666667,
            "value": 0.33070866141732286
          },
          {
            "number": 7,
            "ticks": 11280,
            "time": 47,
            "value": 0.31496062992125984
          },
          {
            "number": 7,
            "ticks": 11296,
            "time": 47.06666666666667,
            "value": 0.30708661417322836
          },
          {
            "number": 7,
            "ticks": 11312,
            "time": 47.13333333333333,
            "value": 0.2992125984251969
          },
          {
            "number": 7,
            "ticks": 11320,
            "time": 47.166666666666664,
            "value": 0.28346456692913385
          },
          {
            "number": 7,
            "ticks": 11328,
            "time": 47.2,
            "value": 0.2755905511811024
          },
          {
            "number": 7,
            "ticks": 11344,
            "time": 47.266666666666666,
            "value": 0.25984251968503935
          },
          {
            "number": 7,
            "ticks": 11368,
            "time": 47.36666666666667,
            "value": 0.25196850393700787
          },
          {
            "number": 7,
            "ticks": 11392,
            "time": 47.46666666666667,
            "value": 0.23622047244094488
          },
          {
            "number": 7,
            "ticks": 11440,
            "time": 47.666666666666664,
            "value": 0.2125984251968504
          },
          {
            "number": 7,
            "ticks": 11464,
            "time": 47.766666666666666,
            "value": 0.2047244094488189
          },
          {
            "number": 7,
            "ticks": 11480,
            "time": 47.833333333333336,
            "value": 0.1968503937007874
          },
          {
            "number": 7,
            "ticks": 11488,
            "time": 47.86666666666667,
            "value": 0.1732283464566929
          },
          {
            "number": 7,
            "ticks": 11512,
            "time": 47.96666666666667,
            "value": 0.7716535433070866
          },
          {
            "number": 7,
            "ticks": 11536,
            "time": 48.06666666666667,
            "value": 0.7795275590551181
          },
          {
            "number": 7,
            "ticks": 13440,
            "time": 56,
            "value": 0.15748031496062992
          },
          {
            "number": 7,
            "ticks": 13448,
            "time": 56.03333333333333,
            "value": 0.7795275590551181
          },
          {
            "number": 7,
            "ticks": 21136,
            "time": 88.06666666666666,
            "value": 0.7795275590551181
          },
          {
            "number": 7,
            "ticks": 23056,
            "time": 96.06666666666666,
            "value": 0.7795275590551181
          },
          {
            "number": 7,
            "ticks": 26392,
            "time": 109.96666666666667,
            "value": 0.25984251968503935
          },
          {
            "number": 7,
            "ticks": 26408,
            "time": 110.03333333333333,
            "value": 0.2755905511811024
          },
          {
            "number": 7,
            "ticks": 26416,
            "time": 110.06666666666666,
            "value": 0.2992125984251969
          },
          {
            "number": 7,
            "ticks": 26432,
            "time": 110.13333333333334,
            "value": 0.30708661417322836
          },
          {
            "number": 7,
            "ticks": 26448,
            "time": 110.2,
            "value": 0.31496062992125984
          },
          {
            "number": 7,
            "ticks": 26456,
            "time": 110.23333333333333,
            "value": 0.33070866141732286
          },
          {
            "number": 7,
            "ticks": 26472,
            "time": 110.3,
            "value": 0.33858267716535434
          },
          {
            "number": 7,
            "ticks": 26480,
            "time": 110.33333333333333,
            "value": 0.36220472440944884
          },
          {
            "number": 7,
            "ticks": 26496,
            "time": 110.4,
            "value": 0.3779527559055118
          },
          {
            "number": 7,
            "ticks": 26504,
            "time": 110.43333333333334,
            "value": 0.4015748031496063
          },
          {
            "number": 7,
            "ticks": 26520,
            "time": 110.5,
            "value": 0.4094488188976378
          },
          {
            "number": 7,
            "ticks": 26528,
            "time": 110.53333333333333,
            "value": 0.41732283464566927
          },
          {
            "number": 7,
            "ticks": 26544,
            "time": 110.6,
            "value": 0.4330708661417323
          },
          {
            "number": 7,
            "ticks": 26568,
            "time": 110.7,
            "value": 0.4566929133858268
          },
          {
            "number": 7,
            "ticks": 26584,
            "time": 110.76666666666667,
            "value": 0.4645669291338583
          },
          {
            "number": 7,
            "ticks": 26592,
            "time": 110.8,
            "value": 0.4881889763779528
          },
          {
            "number": 7,
            "ticks": 26608,
            "time": 110.86666666666666,
            "value": 0.5118110236220472
          },
          {
            "number": 7,
            "ticks": 26616,
            "time": 110.9,
            "value": 0.5196850393700787
          },
          {
            "number": 7,
            "ticks": 26632,
            "time": 110.96666666666667,
            "value": 0.5354330708661418
          },
          {
            "number": 7,
            "ticks": 26640,
            "time": 111,
            "value": 0.5433070866141733
          },
          {
            "number": 7,
            "ticks": 26648,
            "time": 111.03333333333333,
            "value": 0.5590551181102362
          },
          {
            "number": 7,
            "ticks": 26656,
            "time": 111.06666666666666,
            "value": 0.5826771653543307
          },
          {
            "number": 7,
            "ticks": 26672,
            "time": 111.13333333333334,
            "value": 0.5984251968503937
          },
          {
            "number": 7,
            "ticks": 26680,
            "time": 111.16666666666667,
            "value": 0.6141732283464567
          },
          {
            "number": 7,
            "ticks": 26696,
            "time": 111.23333333333333,
            "value": 0.6456692913385826
          },
          {
            "number": 7,
            "ticks": 26704,
            "time": 111.26666666666667,
            "value": 0.6692913385826772
          },
          {
            "number": 7,
            "ticks": 26720,
            "time": 111.33333333333333,
            "value": 0.7007874015748031
          },
          {
            "number": 7,
            "ticks": 26728,
            "time": 111.36666666666666,
            "value": 0.7165354330708661
          },
          {
            "number": 7,
            "ticks": 26744,
            "time": 111.43333333333334,
            "value": 0.7480314960629921
          },
          {
            "number": 7,
            "ticks": 26752,
            "time": 111.46666666666667,
            "value": 0.7637795275590551
          },
          {
            "number": 7,
            "ticks": 26768,
            "time": 111.53333333333333,
            "value": 0.7716535433070866
          },
          {
            "number": 7,
            "ticks": 26792,
            "time": 111.63333333333334,
            "value": 0.7795275590551181
          }
        ],
        "10": [
          {
            "number": 10,
            "ticks": 0,
            "time": 0,
            "value": 0.5039370078740157
          }
        ],
        "91": [
          {
            "number": 91,
            "ticks": 0,
            "time": 0,
            "value": 0.31496062992125984
          }
        ],
        "93": [
          {
            "number": 93,
            "ticks": 0,
            "time": 0,
            "value": 0
          }
        ]
      },
      "pitchBends": [],
      "instrument": {
        "family": "bass",
        "number": 33,
        "name": "electric bass (finger)"
      },
      "name": "",
      "notes": [
        {
          "duration": 0.216666666666665,
          "durationTicks": 52,
          "midi": 31,
          "name": "G1",
          "ticks": 6720,
          "time": 28,
          "velocity": 0.8346456692913385
        },
        {
          "duration": 0.216666666666665,
          "durationTicks": 52,
          "midi": 31,
          "name": "G1",
          "ticks": 6780,
          "time": 28.25,
          "velocity": 0.8346456692913385
        },
        {
          "duration": 0.216666666666665,
          "durationTicks": 52,
          "midi": 31,
          "name": "G1",
          "ticks": 6840,
          "time": 28.5,
          "velocity": 0.8346456692913385
        },
        {
          "duration": 0.216666666666665,
          "durationTicks": 52,
          "midi": 31,
          "name": "G1",
          "ticks": 6900,
          "time": 28.75,
          "velocity": 0.8346456692913385
        },
        {
          "duration": 0.216666666666665,
          "durationTicks": 52,
          "midi": 31,
          "name": "G1",
          "ticks": 6960,
          "time": 29,
          "velocity": 0.8346456692913385
        },
        {
          "duration": 0.216666666666665,
          "durationTicks": 52,
          "midi": 31,
          "name": "G1",
          "ticks": 7020,
          "time": 29.25,
          "velocity": 0.8346456692913385
        },
        {
          "duration": 0.216666666666665,
          "durationTicks": 52,
          "midi": 31,
          "name": "G1",
          "ticks": 7080,
          "time": 29.5,
          "velocity": 0.8346456692913385
        },
        {
          "duration": 0.216666666666665,
          "durationTicks": 52,
          "midi": 31,
          "name": "G1",
          "ticks": 7140,
          "time": 29.75,
          "velocity": 0.8346456692913385
        },
        {
          "duration": 0.216666666666665,
          "durationTicks": 52,
          "midi": 34,
          "name": "A#1",
          "ticks": 7200,
          "time": 30,
          "velocity": 0.8346456692913385
        },
        {
          "duration": 0.216666666666665,
          "durationTicks": 52,
          "midi": 34,
          "name": "A#1",
          "ticks": 7260,
          "time": 30.25,
          "velocity": 0.8346456692913385
        },
        {
          "duration": 0.216666666666665,
          "durationTicks": 52,
          "midi": 34,
          "name": "A#1",
          "ticks": 7320,
          "time": 30.5,
          "velocity": 0.8346456692913385
        },
        {
          "duration": 0.216666666666665,
          "durationTicks": 52,
          "midi": 34,
          "name": "A#1",
          "ticks": 7380,
          "time": 30.75,
          "velocity": 0.8346456692913385
        },
        {
          "duration": 0.216666666666665,
          "durationTicks": 52,
          "midi": 34,
          "name": "A#1",
          "ticks": 7440,
          "time": 31,
          "velocity": 0.8346456692913385
        },
        {
          "duration": 0.216666666666665,
          "durationTicks": 52,
          "midi": 34,
          "name": "A#1",
          "ticks": 7500,
          "time": 31.25,
          "velocity": 0.8346456692913385
        },
        {
          "duration": 0.216666666666665,
          "durationTicks": 52,
          "midi": 34,
          "name": "A#1",
          "ticks": 7560,
          "time": 31.5,
          "velocity": 0.8346456692913385
        },
        {
          "duration": 0.216666666666665,
          "durationTicks": 52,
          "midi": 34,
          "name": "A#1",
          "ticks": 7620,
          "time": 31.75,
          "velocity": 0.8346456692913385
        },
        {
          "duration": 0.21666666666666856,
          "durationTicks": 52,
          "midi": 29,
          "name": "F1",
          "ticks": 7680,
          "time": 32,
          "velocity": 0.8346456692913385
        },
        {
          "duration": 0.21666666666666856,
          "durationTicks": 52,
          "midi": 29,
          "name": "F1",
          "ticks": 7740,
          "time": 32.25,
          "velocity": 0.8346456692913385
        },
        {
          "duration": 0.21666666666666856,
          "durationTicks": 52,
          "midi": 29,
          "name": "F1",
          "ticks": 7800,
          "time": 32.5,
          "velocity": 0.8346456692913385
        },
        {
          "duration": 0.21666666666666856,
          "durationTicks": 52,
          "midi": 29,
          "name": "F1",
          "ticks": 7860,
          "time": 32.75,
          "velocity": 0.8346456692913385
        },
        {
          "duration": 0.21666666666666856,
          "durationTicks": 52,
          "midi": 29,
          "name": "F1",
          "ticks": 7920,
          "time": 33,
          "velocity": 0.8346456692913385
        },
        {
          "duration": 0.21666666666666856,
          "durationTicks": 52,
          "midi": 29,
          "name": "F1",
          "ticks": 7980,
          "time": 33.25,
          "velocity": 0.8346456692913385
        },
        {
          "duration": 0.21666666666666856,
          "durationTicks": 52,
          "midi": 29,
          "name": "F1",
          "ticks": 8040,
          "time": 33.5,
          "velocity": 0.8346456692913385
        },
        {
          "duration": 0.21666666666666856,
          "durationTicks": 52,
          "midi": 29,
          "name": "F1",
          "ticks": 8100,
          "time": 33.75,
          "velocity": 0.8346456692913385
        },
        {
          "duration": 0.21666666666666856,
          "durationTicks": 52,
          "midi": 36,
          "name": "C2",
          "ticks": 8160,
          "time": 34,
          "velocity": 0.8346456692913385
        },
        {
          "duration": 0.21666666666666856,
          "durationTicks": 52,
          "midi": 36,
          "name": "C2",
          "ticks": 8220,
          "time": 34.25,
          "velocity": 0.8346456692913385
        },
        {
          "duration": 0.21666666666666856,
          "durationTicks": 52,
          "midi": 36,
          "name": "C2",
          "ticks": 8280,
          "time": 34.5,
          "velocity": 0.8346456692913385
        },
        {
          "duration": 0.21666666666666856,
          "durationTicks": 52,
          "midi": 36,
          "name": "C2",
          "ticks": 8340,
          "time": 34.75,
          "velocity": 0.8346456692913385
        },
        {
          "duration": 0.21666666666666856,
          "durationTicks": 52,
          "midi": 36,
          "name": "C2",
          "ticks": 8400,
          "time": 35,
          "velocity": 0.8346456692913385
        },
        {
          "duration": 0.21666666666666856,
          "durationTicks": 52,
          "midi": 36,
          "name": "C2",
          "ticks": 8460,
          "time": 35.25,
          "velocity": 0.8346456692913385
        },
        {
          "duration": 0.21666666666666856,
          "durationTicks": 52,
          "midi": 36,
          "name": "C2",
          "ticks": 8520,
          "time": 35.5,
          "velocity": 0.8346456692913385
        },
        {
          "duration": 0.21666666666666856,
          "durationTicks": 52,
          "midi": 36,
          "name": "C2",
          "ticks": 8580,
          "time": 35.75,
          "velocity": 0.8346456692913385
        },
        {
          "duration": 0.21666666666666856,
          "durationTicks": 52,
          "midi": 31,
          "name": "G1",
          "ticks": 8640,
          "time": 36,
          "velocity": 0.8346456692913385
        },
        {
          "duration": 0.21666666666666856,
          "durationTicks": 52,
          "midi": 31,
          "name": "G1",
          "ticks": 8700,
          "time": 36.25,
          "velocity": 0.8346456692913385
        },
        {
          "duration": 0.21666666666666856,
          "durationTicks": 52,
          "midi": 31,
          "name": "G1",
          "ticks": 8760,
          "time": 36.5,
          "velocity": 0.8346456692913385
        },
        {
          "duration": 0.21666666666666856,
          "durationTicks": 52,
          "midi": 31,
          "name": "G1",
          "ticks": 8820,
          "time": 36.75,
          "velocity": 0.8346456692913385
        },
        {
          "duration": 0.21666666666666856,
          "durationTicks": 52,
          "midi": 31,
          "name": "G1",
          "ticks": 8880,
          "time": 37,
          "velocity": 0.8346456692913385
        },
        {
          "duration": 0.21666666666666856,
          "durationTicks": 52,
          "midi": 31,
          "name": "G1",
          "ticks": 8940,
          "time": 37.25,
          "velocity": 0.8346456692913385
        },
        {
          "duration": 0.21666666666666856,
          "durationTicks": 52,
          "midi": 31,
          "name": "G1",
          "ticks": 9000,
          "time": 37.5,
          "velocity": 0.8346456692913385
        },
        {
          "duration": 0.21666666666666856,
          "durationTicks": 52,
          "midi": 31,
          "name": "G1",
          "ticks": 9060,
          "time": 37.75,
          "velocity": 0.8346456692913385
        },
        {
          "duration": 0.21666666666666856,
          "durationTicks": 52,
          "midi": 34,
          "name": "A#1",
          "ticks": 9120,
          "time": 38,
          "velocity": 0.8346456692913385
        },
        {
          "duration": 0.21666666666666856,
          "durationTicks": 52,
          "midi": 34,
          "name": "A#1",
          "ticks": 9180,
          "time": 38.25,
          "velocity": 0.8346456692913385
        },
        {
          "duration": 0.21666666666666856,
          "durationTicks": 52,
          "midi": 34,
          "name": "A#1",
          "ticks": 9240,
          "time": 38.5,
          "velocity": 0.8346456692913385
        },
        {
          "duration": 0.21666666666666856,
          "durationTicks": 52,
          "midi": 34,
          "name": "A#1",
          "ticks": 9300,
          "time": 38.75,
          "velocity": 0.8346456692913385
        },
        {
          "duration": 0.21666666666666856,
          "durationTicks": 52,
          "midi": 34,
          "name": "A#1",
          "ticks": 9360,
          "time": 39,
          "velocity": 0.8346456692913385
        },
        {
          "duration": 0.21666666666666856,
          "durationTicks": 52,
          "midi": 34,
          "name": "A#1",
          "ticks": 9420,
          "time": 39.25,
          "velocity": 0.8346456692913385
        },
        {
          "duration": 0.21666666666666856,
          "durationTicks": 52,
          "midi": 34,
          "name": "A#1",
          "ticks": 9480,
          "time": 39.5,
          "velocity": 0.8346456692913385
        },
        {
          "duration": 0.21666666666666856,
          "durationTicks": 52,
          "midi": 34,
          "name": "A#1",
          "ticks": 9540,
          "time": 39.75,
          "velocity": 0.8346456692913385
        },
        {
          "duration": 0.21666666666666856,
          "durationTicks": 52,
          "midi": 29,
          "name": "F1",
          "ticks": 9600,
          "time": 40,
          "velocity": 0.8346456692913385
        },
        {
          "duration": 0.21666666666666856,
          "durationTicks": 52,
          "midi": 29,
          "name": "F1",
          "ticks": 9660,
          "time": 40.25,
          "velocity": 0.8346456692913385
        },
        {
          "duration": 0.21666666666666856,
          "durationTicks": 52,
          "midi": 29,
          "name": "F1",
          "ticks": 9720,
          "time": 40.5,
          "velocity": 0.8346456692913385
        },
        {
          "duration": 0.21666666666666856,
          "durationTicks": 52,
          "midi": 29,
          "name": "F1",
          "ticks": 9780,
          "time": 40.75,
          "velocity": 0.8346456692913385
        },
        {
          "duration": 0.21666666666666856,
          "durationTicks": 52,
          "midi": 29,
          "name": "F1",
          "ticks": 9840,
          "time": 41,
          "velocity": 0.8346456692913385
        },
        {
          "duration": 0.21666666666666856,
          "durationTicks": 52,
          "midi": 29,
          "name": "F1",
          "ticks": 9900,
          "time": 41.25,
          "velocity": 0.8346456692913385
        },
        {
          "duration": 0.21666666666666856,
          "durationTicks": 52,
          "midi": 29,
          "name": "F1",
          "ticks": 9960,
          "time": 41.5,
          "velocity": 0.8346456692913385
        },
        {
          "duration": 0.21666666666666856,
          "durationTicks": 52,
          "midi": 29,
          "name": "F1",
          "ticks": 10020,
          "time": 41.75,
          "velocity": 0.8346456692913385
        },
        {
          "duration": 0.21666666666666856,
          "durationTicks": 52,
          "midi": 36,
          "name": "C2",
          "ticks": 10080,
          "time": 42,
          "velocity": 0.8346456692913385
        },
        {
          "duration": 0.21666666666666856,
          "durationTicks": 52,
          "midi": 36,
          "name": "C2",
          "ticks": 10140,
          "time": 42.25,
          "velocity": 0.8346456692913385
        },
        {
          "duration": 0.21666666666666856,
          "durationTicks": 52,
          "midi": 36,
          "name": "C2",
          "ticks": 10200,
          "time": 42.5,
          "velocity": 0.8346456692913385
        },
        {
          "duration": 0.21666666666666856,
          "durationTicks": 52,
          "midi": 36,
          "name": "C2",
          "ticks": 10260,
          "time": 42.75,
          "velocity": 0.8346456692913385
        },
        {
          "duration": 0.21666666666666856,
          "durationTicks": 52,
          "midi": 36,
          "name": "C2",
          "ticks": 10320,
          "time": 43,
          "velocity": 0.8346456692913385
        },
        {
          "duration": 0.21666666666666856,
          "durationTicks": 52,
          "midi": 36,
          "name": "C2",
          "ticks": 10380,
          "time": 43.25,
          "velocity": 0.8346456692913385
        },
        {
          "duration": 0.21666666666666856,
          "durationTicks": 52,
          "midi": 36,
          "name": "C2",
          "ticks": 10440,
          "time": 43.5,
          "velocity": 0.8346456692913385
        },
        {
          "duration": 0.21666666666666856,
          "durationTicks": 52,
          "midi": 36,
          "name": "C2",
          "ticks": 10500,
          "time": 43.75,
          "velocity": 0.8346456692913385
        },
        {
          "duration": 3.799999999999997,
          "durationTicks": 912,
          "midi": 31,
          "name": "G1",
          "ticks": 10560,
          "time": 44,
          "velocity": 0.8346456692913385
        },
        {
          "duration": 2,
          "durationTicks": 480,
          "midi": 31,
          "name": "G1",
          "ticks": 11520,
          "time": 48,
          "velocity": 0.8346456692913385
        },
        {
          "duration": 2,
          "durationTicks": 480,
          "midi": 34,
          "name": "A#1",
          "ticks": 12000,
          "time": 50,
          "velocity": 0.8346456692913385
        },
        {
          "duration": 2,
          "durationTicks": 480,
          "midi": 29,
          "name": "F1",
          "ticks": 12480,
          "time": 52,
          "velocity": 0.8346456692913385
        },
        {
          "duration": 2,
          "durationTicks": 480,
          "midi": 36,
          "name": "C2",
          "ticks": 12960,
          "time": 54,
          "velocity": 0.8346456692913385
        },
        {
          "duration": 2,
          "durationTicks": 480,
          "midi": 31,
          "name": "G1",
          "ticks": 13440,
          "time": 56,
          "velocity": 0.8346456692913385
        },
        {
          "duration": 2,
          "durationTicks": 480,
          "midi": 34,
          "name": "A#1",
          "ticks": 13920,
          "time": 58,
          "velocity": 0.8346456692913385
        },
        {
          "duration": 2,
          "durationTicks": 480,
          "midi": 29,
          "name": "F1",
          "ticks": 14400,
          "time": 60,
          "velocity": 0.8346456692913385
        },
        {
          "duration": 1.9500000000000028,
          "durationTicks": 468,
          "midi": 36,
          "name": "C2",
          "ticks": 14880,
          "time": 62,
          "velocity": 0.8346456692913385
        },
        {
          "duration": 3.933333333333337,
          "durationTicks": 944,
          "midi": 39,
          "name": "D#2",
          "ticks": 15360,
          "time": 64,
          "velocity": 0.8346456692913385
        },
        {
          "duration": 3.933333333333337,
          "durationTicks": 944,
          "midi": 29,
          "name": "F1",
          "ticks": 16320,
          "time": 68,
          "velocity": 0.8346456692913385
        },
        {
          "duration": 0.21666666666666856,
          "durationTicks": 52,
          "midi": 31,
          "name": "G1",
          "ticks": 17280,
          "time": 72,
          "velocity": 0.8346456692913385
        },
        {
          "duration": 0.21666666666666856,
          "durationTicks": 52,
          "midi": 31,
          "name": "G1",
          "ticks": 17340,
          "time": 72.25,
          "velocity": 0.8346456692913385
        },
        {
          "duration": 0.21666666666666856,
          "durationTicks": 52,
          "midi": 31,
          "name": "G1",
          "ticks": 17400,
          "time": 72.5,
          "velocity": 0.8346456692913385
        },
        {
          "duration": 0.21666666666666856,
          "durationTicks": 52,
          "midi": 31,
          "name": "G1",
          "ticks": 17460,
          "time": 72.75,
          "velocity": 0.8346456692913385
        },
        {
          "duration": 0.21666666666666856,
          "durationTicks": 52,
          "midi": 31,
          "name": "G1",
          "ticks": 17520,
          "time": 73,
          "velocity": 0.8346456692913385
        },
        {
          "duration": 0.21666666666666856,
          "durationTicks": 52,
          "midi": 31,
          "name": "G1",
          "ticks": 17580,
          "time": 73.25,
          "velocity": 0.8346456692913385
        },
        {
          "duration": 0.21666666666666856,
          "durationTicks": 52,
          "midi": 31,
          "name": "G1",
          "ticks": 17640,
          "time": 73.5,
          "velocity": 0.8346456692913385
        },
        {
          "duration": 0.21666666666666856,
          "durationTicks": 52,
          "midi": 31,
          "name": "G1",
          "ticks": 17700,
          "time": 73.75,
          "velocity": 0.8346456692913385
        },
        {
          "duration": 0.21666666666666856,
          "durationTicks": 52,
          "midi": 34,
          "name": "A#1",
          "ticks": 17760,
          "time": 74,
          "velocity": 0.8346456692913385
        },
        {
          "duration": 0.21666666666666856,
          "durationTicks": 52,
          "midi": 34,
          "name": "A#1",
          "ticks": 17820,
          "time": 74.25,
          "velocity": 0.8346456692913385
        },
        {
          "duration": 0.21666666666666856,
          "durationTicks": 52,
          "midi": 34,
          "name": "A#1",
          "ticks": 17880,
          "time": 74.5,
          "velocity": 0.8346456692913385
        },
        {
          "duration": 0.21666666666666856,
          "durationTicks": 52,
          "midi": 34,
          "name": "A#1",
          "ticks": 17940,
          "time": 74.75,
          "velocity": 0.8346456692913385
        },
        {
          "duration": 0.21666666666666856,
          "durationTicks": 52,
          "midi": 34,
          "name": "A#1",
          "ticks": 18000,
          "time": 75,
          "velocity": 0.8346456692913385
        },
        {
          "duration": 0.21666666666666856,
          "durationTicks": 52,
          "midi": 34,
          "name": "A#1",
          "ticks": 18060,
          "time": 75.25,
          "velocity": 0.8346456692913385
        },
        {
          "duration": 0.21666666666666856,
          "durationTicks": 52,
          "midi": 34,
          "name": "A#1",
          "ticks": 18120,
          "time": 75.5,
          "velocity": 0.8346456692913385
        },
        {
          "duration": 0.21666666666666856,
          "durationTicks": 52,
          "midi": 34,
          "name": "A#1",
          "ticks": 18180,
          "time": 75.75,
          "velocity": 0.8346456692913385
        },
        {
          "duration": 0.21666666666666856,
          "durationTicks": 52,
          "midi": 29,
          "name": "F1",
          "ticks": 18240,
          "time": 76,
          "velocity": 0.8346456692913385
        },
        {
          "duration": 0.21666666666666856,
          "durationTicks": 52,
          "midi": 29,
          "name": "F1",
          "ticks": 18300,
          "time": 76.25,
          "velocity": 0.8346456692913385
        },
        {
          "duration": 0.21666666666666856,
          "durationTicks": 52,
          "midi": 29,
          "name": "F1",
          "ticks": 18360,
          "time": 76.5,
          "velocity": 0.8346456692913385
        },
        {
          "duration": 0.21666666666666856,
          "durationTicks": 52,
          "midi": 29,
          "name": "F1",
          "ticks": 18420,
          "time": 76.75,
          "velocity": 0.8346456692913385
        },
        {
          "duration": 0.21666666666666856,
          "durationTicks": 52,
          "midi": 29,
          "name": "F1",
          "ticks": 18480,
          "time": 77,
          "velocity": 0.8346456692913385
        },
        {
          "duration": 0.21666666666666856,
          "durationTicks": 52,
          "midi": 29,
          "name": "F1",
          "ticks": 18540,
          "time": 77.25,
          "velocity": 0.8346456692913385
        },
        {
          "duration": 0.21666666666666856,
          "durationTicks": 52,
          "midi": 29,
          "name": "F1",
          "ticks": 18600,
          "time": 77.5,
          "velocity": 0.8346456692913385
        },
        {
          "duration": 0.21666666666666856,
          "durationTicks": 52,
          "midi": 29,
          "name": "F1",
          "ticks": 18660,
          "time": 77.75,
          "velocity": 0.8346456692913385
        },
        {
          "duration": 0.21666666666666856,
          "durationTicks": 52,
          "midi": 36,
          "name": "C2",
          "ticks": 18720,
          "time": 78,
          "velocity": 0.8346456692913385
        },
        {
          "duration": 0.21666666666666856,
          "durationTicks": 52,
          "midi": 36,
          "name": "C2",
          "ticks": 18780,
          "time": 78.25,
          "velocity": 0.8346456692913385
        },
        {
          "duration": 0.21666666666666856,
          "durationTicks": 52,
          "midi": 36,
          "name": "C2",
          "ticks": 18840,
          "time": 78.5,
          "velocity": 0.8346456692913385
        },
        {
          "duration": 0.21666666666666856,
          "durationTicks": 52,
          "midi": 36,
          "name": "C2",
          "ticks": 18900,
          "time": 78.75,
          "velocity": 0.8346456692913385
        },
        {
          "duration": 0.21666666666666856,
          "durationTicks": 52,
          "midi": 36,
          "name": "C2",
          "ticks": 18960,
          "time": 79,
          "velocity": 0.8346456692913385
        },
        {
          "duration": 0.21666666666666856,
          "durationTicks": 52,
          "midi": 36,
          "name": "C2",
          "ticks": 19020,
          "time": 79.25,
          "velocity": 0.8346456692913385
        },
        {
          "duration": 0.21666666666666856,
          "durationTicks": 52,
          "midi": 36,
          "name": "C2",
          "ticks": 19080,
          "time": 79.5,
          "velocity": 0.8346456692913385
        },
        {
          "duration": 0.21666666666666856,
          "durationTicks": 52,
          "midi": 36,
          "name": "C2",
          "ticks": 19140,
          "time": 79.75,
          "velocity": 0.8346456692913385
        },
        {
          "duration": 0.21666666666666856,
          "durationTicks": 52,
          "midi": 31,
          "name": "G1",
          "ticks": 19200,
          "time": 80,
          "velocity": 0.8346456692913385
        },
        {
          "duration": 0.21666666666666856,
          "durationTicks": 52,
          "midi": 31,
          "name": "G1",
          "ticks": 19260,
          "time": 80.25,
          "velocity": 0.8346456692913385
        },
        {
          "duration": 0.21666666666666856,
          "durationTicks": 52,
          "midi": 31,
          "name": "G1",
          "ticks": 19320,
          "time": 80.5,
          "velocity": 0.8346456692913385
        },
        {
          "duration": 0.21666666666666856,
          "durationTicks": 52,
          "midi": 31,
          "name": "G1",
          "ticks": 19380,
          "time": 80.75,
          "velocity": 0.8346456692913385
        },
        {
          "duration": 0.21666666666666856,
          "durationTicks": 52,
          "midi": 31,
          "name": "G1",
          "ticks": 19440,
          "time": 81,
          "velocity": 0.8346456692913385
        },
        {
          "duration": 0.21666666666666856,
          "durationTicks": 52,
          "midi": 31,
          "name": "G1",
          "ticks": 19500,
          "time": 81.25,
          "velocity": 0.8346456692913385
        },
        {
          "duration": 0.21666666666666856,
          "durationTicks": 52,
          "midi": 31,
          "name": "G1",
          "ticks": 19560,
          "time": 81.5,
          "velocity": 0.8346456692913385
        },
        {
          "duration": 0.21666666666666856,
          "durationTicks": 52,
          "midi": 31,
          "name": "G1",
          "ticks": 19620,
          "time": 81.75,
          "velocity": 0.8346456692913385
        },
        {
          "duration": 0.21666666666666856,
          "durationTicks": 52,
          "midi": 34,
          "name": "A#1",
          "ticks": 19680,
          "time": 82,
          "velocity": 0.8346456692913385
        },
        {
          "duration": 0.21666666666666856,
          "durationTicks": 52,
          "midi": 34,
          "name": "A#1",
          "ticks": 19740,
          "time": 82.25,
          "velocity": 0.8346456692913385
        },
        {
          "duration": 0.21666666666666856,
          "durationTicks": 52,
          "midi": 34,
          "name": "A#1",
          "ticks": 19800,
          "time": 82.5,
          "velocity": 0.8346456692913385
        },
        {
          "duration": 0.21666666666666856,
          "durationTicks": 52,
          "midi": 34,
          "name": "A#1",
          "ticks": 19860,
          "time": 82.75,
          "velocity": 0.8346456692913385
        },
        {
          "duration": 0.21666666666666856,
          "durationTicks": 52,
          "midi": 34,
          "name": "A#1",
          "ticks": 19920,
          "time": 83,
          "velocity": 0.8346456692913385
        },
        {
          "duration": 0.21666666666666856,
          "durationTicks": 52,
          "midi": 34,
          "name": "A#1",
          "ticks": 19980,
          "time": 83.25,
          "velocity": 0.8346456692913385
        },
        {
          "duration": 0.21666666666666856,
          "durationTicks": 52,
          "midi": 34,
          "name": "A#1",
          "ticks": 20040,
          "time": 83.5,
          "velocity": 0.8346456692913385
        },
        {
          "duration": 0.21666666666666856,
          "durationTicks": 52,
          "midi": 34,
          "name": "A#1",
          "ticks": 20100,
          "time": 83.75,
          "velocity": 0.8346456692913385
        },
        {
          "duration": 0.21666666666666856,
          "durationTicks": 52,
          "midi": 29,
          "name": "F1",
          "ticks": 20160,
          "time": 84,
          "velocity": 0.8346456692913385
        },
        {
          "duration": 0.21666666666666856,
          "durationTicks": 52,
          "midi": 29,
          "name": "F1",
          "ticks": 20220,
          "time": 84.25,
          "velocity": 0.8346456692913385
        },
        {
          "duration": 0.21666666666666856,
          "durationTicks": 52,
          "midi": 29,
          "name": "F1",
          "ticks": 20280,
          "time": 84.5,
          "velocity": 0.8346456692913385
        },
        {
          "duration": 0.21666666666666856,
          "durationTicks": 52,
          "midi": 29,
          "name": "F1",
          "ticks": 20340,
          "time": 84.75,
          "velocity": 0.8346456692913385
        },
        {
          "duration": 0.21666666666666856,
          "durationTicks": 52,
          "midi": 29,
          "name": "F1",
          "ticks": 20400,
          "time": 85,
          "velocity": 0.8346456692913385
        },
        {
          "duration": 0.21666666666666856,
          "durationTicks": 52,
          "midi": 29,
          "name": "F1",
          "ticks": 20460,
          "time": 85.25,
          "velocity": 0.8346456692913385
        },
        {
          "duration": 0.21666666666666856,
          "durationTicks": 52,
          "midi": 29,
          "name": "F1",
          "ticks": 20520,
          "time": 85.5,
          "velocity": 0.8346456692913385
        },
        {
          "duration": 0.21666666666666856,
          "durationTicks": 52,
          "midi": 29,
          "name": "F1",
          "ticks": 20580,
          "time": 85.75,
          "velocity": 0.8346456692913385
        },
        {
          "duration": 0.21666666666666856,
          "durationTicks": 52,
          "midi": 36,
          "name": "C2",
          "ticks": 20640,
          "time": 86,
          "velocity": 0.8346456692913385
        },
        {
          "duration": 0.21666666666666856,
          "durationTicks": 52,
          "midi": 36,
          "name": "C2",
          "ticks": 20700,
          "time": 86.25,
          "velocity": 0.8346456692913385
        },
        {
          "duration": 0.21666666666666856,
          "durationTicks": 52,
          "midi": 36,
          "name": "C2",
          "ticks": 20760,
          "time": 86.5,
          "velocity": 0.8346456692913385
        },
        {
          "duration": 0.21666666666666856,
          "durationTicks": 52,
          "midi": 36,
          "name": "C2",
          "ticks": 20820,
          "time": 86.75,
          "velocity": 0.8346456692913385
        },
        {
          "duration": 0.21666666666666856,
          "durationTicks": 52,
          "midi": 36,
          "name": "C2",
          "ticks": 20880,
          "time": 87,
          "velocity": 0.8346456692913385
        },
        {
          "duration": 0.21666666666666856,
          "durationTicks": 52,
          "midi": 36,
          "name": "C2",
          "ticks": 20940,
          "time": 87.25,
          "velocity": 0.8346456692913385
        },
        {
          "duration": 0.21666666666666856,
          "durationTicks": 52,
          "midi": 36,
          "name": "C2",
          "ticks": 21000,
          "time": 87.5,
          "velocity": 0.8346456692913385
        },
        {
          "duration": 0.21666666666666856,
          "durationTicks": 52,
          "midi": 36,
          "name": "C2",
          "ticks": 21060,
          "time": 87.75,
          "velocity": 0.8346456692913385
        },
        {
          "duration": 2,
          "durationTicks": 480,
          "midi": 31,
          "name": "G1",
          "ticks": 21120,
          "time": 88,
          "velocity": 0.8346456692913385
        },
        {
          "duration": 2,
          "durationTicks": 480,
          "midi": 34,
          "name": "A#1",
          "ticks": 21600,
          "time": 90,
          "velocity": 0.8346456692913385
        },
        {
          "duration": 2,
          "durationTicks": 480,
          "midi": 29,
          "name": "F1",
          "ticks": 22080,
          "time": 92,
          "velocity": 0.8346456692913385
        },
        {
          "duration": 2,
          "durationTicks": 480,
          "midi": 36,
          "name": "C2",
          "ticks": 22560,
          "time": 94,
          "velocity": 0.8346456692913385
        },
        {
          "duration": 2,
          "durationTicks": 480,
          "midi": 31,
          "name": "G1",
          "ticks": 23040,
          "time": 96,
          "velocity": 0.8346456692913385
        },
        {
          "duration": 2,
          "durationTicks": 480,
          "midi": 34,
          "name": "A#1",
          "ticks": 23520,
          "time": 98,
          "velocity": 0.8346456692913385
        },
        {
          "duration": 2,
          "durationTicks": 480,
          "midi": 29,
          "name": "F1",
          "ticks": 24000,
          "time": 100,
          "velocity": 0.8346456692913385
        },
        {
          "duration": 2,
          "durationTicks": 480,
          "midi": 36,
          "name": "C2",
          "ticks": 24480,
          "time": 102,
          "velocity": 0.8346456692913385
        },
        {
          "duration": 3.933333333333337,
          "durationTicks": 944,
          "midi": 39,
          "name": "D#2",
          "ticks": 24960,
          "time": 104,
          "velocity": 0.8346456692913385
        },
        {
          "duration": 1.8333333333333286,
          "durationTicks": 440,
          "midi": 29,
          "name": "F1",
          "ticks": 25920,
          "time": 108,
          "velocity": 0.8346456692913385
        },
        {
          "duration": 1.9500000000000028,
          "durationTicks": 468,
          "midi": 29,
          "name": "F1",
          "ticks": 26400,
          "time": 110,
          "velocity": 0.8346456692913385
        },
        {
          "duration": 0.21666666666666856,
          "durationTicks": 52,
          "midi": 31,
          "name": "G1",
          "ticks": 26880,
          "time": 112,
          "velocity": 0.8346456692913385
        },
        {
          "duration": 0.21666666666666856,
          "durationTicks": 52,
          "midi": 31,
          "name": "G1",
          "ticks": 26940,
          "time": 112.25,
          "velocity": 0.8346456692913385
        },
        {
          "duration": 0.21666666666666856,
          "durationTicks": 52,
          "midi": 31,
          "name": "G1",
          "ticks": 27000,
          "time": 112.5,
          "velocity": 0.8346456692913385
        },
        {
          "duration": 0.21666666666666856,
          "durationTicks": 52,
          "midi": 31,
          "name": "G1",
          "ticks": 27060,
          "time": 112.75,
          "velocity": 0.8346456692913385
        },
        {
          "duration": 0.21666666666666856,
          "durationTicks": 52,
          "midi": 31,
          "name": "G1",
          "ticks": 27120,
          "time": 113,
          "velocity": 0.8346456692913385
        },
        {
          "duration": 0.21666666666666856,
          "durationTicks": 52,
          "midi": 31,
          "name": "G1",
          "ticks": 27180,
          "time": 113.25,
          "velocity": 0.8346456692913385
        },
        {
          "duration": 0.21666666666666856,
          "durationTicks": 52,
          "midi": 31,
          "name": "G1",
          "ticks": 27240,
          "time": 113.5,
          "velocity": 0.8346456692913385
        },
        {
          "duration": 0.21666666666666856,
          "durationTicks": 52,
          "midi": 31,
          "name": "G1",
          "ticks": 27300,
          "time": 113.75,
          "velocity": 0.8346456692913385
        },
        {
          "duration": 0.21666666666666856,
          "durationTicks": 52,
          "midi": 34,
          "name": "A#1",
          "ticks": 27360,
          "time": 114,
          "velocity": 0.8346456692913385
        },
        {
          "duration": 0.21666666666666856,
          "durationTicks": 52,
          "midi": 34,
          "name": "A#1",
          "ticks": 27420,
          "time": 114.25,
          "velocity": 0.8346456692913385
        },
        {
          "duration": 0.21666666666666856,
          "durationTicks": 52,
          "midi": 34,
          "name": "A#1",
          "ticks": 27480,
          "time": 114.5,
          "velocity": 0.8346456692913385
        },
        {
          "duration": 0.21666666666666856,
          "durationTicks": 52,
          "midi": 34,
          "name": "A#1",
          "ticks": 27540,
          "time": 114.75,
          "velocity": 0.8346456692913385
        },
        {
          "duration": 0.21666666666666856,
          "durationTicks": 52,
          "midi": 34,
          "name": "A#1",
          "ticks": 27600,
          "time": 115,
          "velocity": 0.8346456692913385
        },
        {
          "duration": 0.21666666666666856,
          "durationTicks": 52,
          "midi": 34,
          "name": "A#1",
          "ticks": 27660,
          "time": 115.25,
          "velocity": 0.8346456692913385
        },
        {
          "duration": 0.21666666666666856,
          "durationTicks": 52,
          "midi": 34,
          "name": "A#1",
          "ticks": 27720,
          "time": 115.5,
          "velocity": 0.8346456692913385
        },
        {
          "duration": 0.21666666666666856,
          "durationTicks": 52,
          "midi": 34,
          "name": "A#1",
          "ticks": 27780,
          "time": 115.75,
          "velocity": 0.8346456692913385
        },
        {
          "duration": 0.21666666666666856,
          "durationTicks": 52,
          "midi": 29,
          "name": "F1",
          "ticks": 27840,
          "time": 116,
          "velocity": 0.8346456692913385
        },
        {
          "duration": 0.21666666666666856,
          "durationTicks": 52,
          "midi": 29,
          "name": "F1",
          "ticks": 27900,
          "time": 116.25,
          "velocity": 0.8346456692913385
        },
        {
          "duration": 0.21666666666666856,
          "durationTicks": 52,
          "midi": 29,
          "name": "F1",
          "ticks": 27960,
          "time": 116.5,
          "velocity": 0.8346456692913385
        },
        {
          "duration": 0.21666666666666856,
          "durationTicks": 52,
          "midi": 29,
          "name": "F1",
          "ticks": 28020,
          "time": 116.75,
          "velocity": 0.8346456692913385
        },
        {
          "duration": 0.21666666666666856,
          "durationTicks": 52,
          "midi": 29,
          "name": "F1",
          "ticks": 28080,
          "time": 117,
          "velocity": 0.8346456692913385
        },
        {
          "duration": 0.21666666666666856,
          "durationTicks": 52,
          "midi": 29,
          "name": "F1",
          "ticks": 28140,
          "time": 117.25,
          "velocity": 0.8346456692913385
        },
        {
          "duration": 0.21666666666666856,
          "durationTicks": 52,
          "midi": 29,
          "name": "F1",
          "ticks": 28200,
          "time": 117.5,
          "velocity": 0.8346456692913385
        },
        {
          "duration": 0.21666666666666856,
          "durationTicks": 52,
          "midi": 29,
          "name": "F1",
          "ticks": 28260,
          "time": 117.75,
          "velocity": 0.8346456692913385
        },
        {
          "duration": 0.21666666666666856,
          "durationTicks": 52,
          "midi": 36,
          "name": "C2",
          "ticks": 28320,
          "time": 118,
          "velocity": 0.8346456692913385
        },
        {
          "duration": 0.21666666666666856,
          "durationTicks": 52,
          "midi": 36,
          "name": "C2",
          "ticks": 28380,
          "time": 118.25,
          "velocity": 0.8346456692913385
        },
        {
          "duration": 0.21666666666666856,
          "durationTicks": 52,
          "midi": 36,
          "name": "C2",
          "ticks": 28440,
          "time": 118.5,
          "velocity": 0.8346456692913385
        },
        {
          "duration": 0.21666666666666856,
          "durationTicks": 52,
          "midi": 36,
          "name": "C2",
          "ticks": 28500,
          "time": 118.75,
          "velocity": 0.8346456692913385
        },
        {
          "duration": 0.21666666666666856,
          "durationTicks": 52,
          "midi": 36,
          "name": "C2",
          "ticks": 28560,
          "time": 119,
          "velocity": 0.8346456692913385
        },
        {
          "duration": 0.21666666666666856,
          "durationTicks": 52,
          "midi": 36,
          "name": "C2",
          "ticks": 28620,
          "time": 119.25,
          "velocity": 0.8346456692913385
        },
        {
          "duration": 0.21666666666666856,
          "durationTicks": 52,
          "midi": 36,
          "name": "C2",
          "ticks": 28680,
          "time": 119.5,
          "velocity": 0.8346456692913385
        },
        {
          "duration": 0.21666666666666856,
          "durationTicks": 52,
          "midi": 36,
          "name": "C2",
          "ticks": 28740,
          "time": 119.75,
          "velocity": 0.8346456692913385
        },
        {
          "duration": 0.21666666666666856,
          "durationTicks": 52,
          "midi": 31,
          "name": "G1",
          "ticks": 28800,
          "time": 120,
          "velocity": 0.8346456692913385
        },
        {
          "duration": 0.21666666666666856,
          "durationTicks": 52,
          "midi": 31,
          "name": "G1",
          "ticks": 28860,
          "time": 120.25,
          "velocity": 0.8346456692913385
        },
        {
          "duration": 0.21666666666666856,
          "durationTicks": 52,
          "midi": 31,
          "name": "G1",
          "ticks": 28920,
          "time": 120.5,
          "velocity": 0.8346456692913385
        },
        {
          "duration": 0.21666666666666856,
          "durationTicks": 52,
          "midi": 31,
          "name": "G1",
          "ticks": 28980,
          "time": 120.75,
          "velocity": 0.8346456692913385
        },
        {
          "duration": 0.21666666666666856,
          "durationTicks": 52,
          "midi": 31,
          "name": "G1",
          "ticks": 29040,
          "time": 121,
          "velocity": 0.8346456692913385
        },
        {
          "duration": 0.21666666666666856,
          "durationTicks": 52,
          "midi": 31,
          "name": "G1",
          "ticks": 29100,
          "time": 121.25,
          "velocity": 0.8346456692913385
        },
        {
          "duration": 0.21666666666666856,
          "durationTicks": 52,
          "midi": 31,
          "name": "G1",
          "ticks": 29160,
          "time": 121.5,
          "velocity": 0.8346456692913385
        },
        {
          "duration": 0.21666666666666856,
          "durationTicks": 52,
          "midi": 31,
          "name": "G1",
          "ticks": 29220,
          "time": 121.75,
          "velocity": 0.8346456692913385
        },
        {
          "duration": 0.21666666666666856,
          "durationTicks": 52,
          "midi": 34,
          "name": "A#1",
          "ticks": 29280,
          "time": 122,
          "velocity": 0.8346456692913385
        },
        {
          "duration": 0.21666666666666856,
          "durationTicks": 52,
          "midi": 34,
          "name": "A#1",
          "ticks": 29340,
          "time": 122.25,
          "velocity": 0.8346456692913385
        },
        {
          "duration": 0.21666666666666856,
          "durationTicks": 52,
          "midi": 34,
          "name": "A#1",
          "ticks": 29400,
          "time": 122.5,
          "velocity": 0.8346456692913385
        },
        {
          "duration": 0.21666666666666856,
          "durationTicks": 52,
          "midi": 34,
          "name": "A#1",
          "ticks": 29460,
          "time": 122.75,
          "velocity": 0.8346456692913385
        },
        {
          "duration": 0.21666666666666856,
          "durationTicks": 52,
          "midi": 34,
          "name": "A#1",
          "ticks": 29520,
          "time": 123,
          "velocity": 0.8346456692913385
        },
        {
          "duration": 0.21666666666666856,
          "durationTicks": 52,
          "midi": 34,
          "name": "A#1",
          "ticks": 29580,
          "time": 123.25,
          "velocity": 0.8346456692913385
        },
        {
          "duration": 0.21666666666666856,
          "durationTicks": 52,
          "midi": 34,
          "name": "A#1",
          "ticks": 29640,
          "time": 123.5,
          "velocity": 0.8346456692913385
        },
        {
          "duration": 0.21666666666666856,
          "durationTicks": 52,
          "midi": 34,
          "name": "A#1",
          "ticks": 29700,
          "time": 123.75,
          "velocity": 0.8346456692913385
        },
        {
          "duration": 0.21666666666666856,
          "durationTicks": 52,
          "midi": 29,
          "name": "F1",
          "ticks": 29760,
          "time": 124,
          "velocity": 0.8346456692913385
        },
        {
          "duration": 0.21666666666666856,
          "durationTicks": 52,
          "midi": 29,
          "name": "F1",
          "ticks": 29820,
          "time": 124.25,
          "velocity": 0.8346456692913385
        },
        {
          "duration": 0.21666666666666856,
          "durationTicks": 52,
          "midi": 29,
          "name": "F1",
          "ticks": 29880,
          "time": 124.5,
          "velocity": 0.8346456692913385
        },
        {
          "duration": 0.21666666666666856,
          "durationTicks": 52,
          "midi": 29,
          "name": "F1",
          "ticks": 29940,
          "time": 124.75,
          "velocity": 0.8346456692913385
        },
        {
          "duration": 0.21666666666666856,
          "durationTicks": 52,
          "midi": 29,
          "name": "F1",
          "ticks": 30000,
          "time": 125,
          "velocity": 0.8346456692913385
        },
        {
          "duration": 0.21666666666666856,
          "durationTicks": 52,
          "midi": 29,
          "name": "F1",
          "ticks": 30060,
          "time": 125.25,
          "velocity": 0.8346456692913385
        },
        {
          "duration": 0.21666666666666856,
          "durationTicks": 52,
          "midi": 29,
          "name": "F1",
          "ticks": 30120,
          "time": 125.5,
          "velocity": 0.8346456692913385
        },
        {
          "duration": 0.21666666666666856,
          "durationTicks": 52,
          "midi": 29,
          "name": "F1",
          "ticks": 30180,
          "time": 125.75,
          "velocity": 0.8346456692913385
        },
        {
          "duration": 0.21666666666666856,
          "durationTicks": 52,
          "midi": 36,
          "name": "C2",
          "ticks": 30240,
          "time": 126,
          "velocity": 0.8346456692913385
        },
        {
          "duration": 0.21666666666666856,
          "durationTicks": 52,
          "midi": 36,
          "name": "C2",
          "ticks": 30300,
          "time": 126.25,
          "velocity": 0.8346456692913385
        },
        {
          "duration": 0.21666666666666856,
          "durationTicks": 52,
          "midi": 36,
          "name": "C2",
          "ticks": 30360,
          "time": 126.5,
          "velocity": 0.8346456692913385
        },
        {
          "duration": 0.21666666666666856,
          "durationTicks": 52,
          "midi": 36,
          "name": "C2",
          "ticks": 30420,
          "time": 126.75,
          "velocity": 0.8346456692913385
        },
        {
          "duration": 0.21666666666666856,
          "durationTicks": 52,
          "midi": 38,
          "name": "D2",
          "ticks": 30480,
          "time": 127,
          "velocity": 0.8346456692913385
        },
        {
          "duration": 0.21666666666666856,
          "durationTicks": 52,
          "midi": 38,
          "name": "D2",
          "ticks": 30540,
          "time": 127.25,
          "velocity": 0.8346456692913385
        },
        {
          "duration": 0.21666666666666856,
          "durationTicks": 52,
          "midi": 38,
          "name": "D2",
          "ticks": 30600,
          "time": 127.5,
          "velocity": 0.8346456692913385
        },
        {
          "duration": 0.21666666666666856,
          "durationTicks": 52,
          "midi": 38,
          "name": "D2",
          "ticks": 30660,
          "time": 127.75,
          "velocity": 0.8346456692913385
        },
        {
          "duration": 0.21666666666666856,
          "durationTicks": 52,
          "midi": 39,
          "name": "D#2",
          "ticks": 30720,
          "time": 128,
          "velocity": 0.8346456692913385
        },
        {
          "duration": 0.21666666666666856,
          "durationTicks": 52,
          "midi": 39,
          "name": "D#2",
          "ticks": 30780,
          "time": 128.25,
          "velocity": 0.8346456692913385
        },
        {
          "duration": 0.21666666666666856,
          "durationTicks": 52,
          "midi": 39,
          "name": "D#2",
          "ticks": 30840,
          "time": 128.5,
          "velocity": 0.8346456692913385
        },
        {
          "duration": 0.21666666666666856,
          "durationTicks": 52,
          "midi": 39,
          "name": "D#2",
          "ticks": 30900,
          "time": 128.75,
          "velocity": 0.8346456692913385
        },
        {
          "duration": 0.21666666666666856,
          "durationTicks": 52,
          "midi": 38,
          "name": "D2",
          "ticks": 30960,
          "time": 129,
          "velocity": 0.8346456692913385
        },
        {
          "duration": 0.21666666666666856,
          "durationTicks": 52,
          "midi": 38,
          "name": "D2",
          "ticks": 31020,
          "time": 129.25,
          "velocity": 0.8346456692913385
        },
        {
          "duration": 0.21666666666666856,
          "durationTicks": 52,
          "midi": 38,
          "name": "D2",
          "ticks": 31080,
          "time": 129.5,
          "velocity": 0.8346456692913385
        },
        {
          "duration": 0.21666666666666856,
          "durationTicks": 52,
          "midi": 38,
          "name": "D2",
          "ticks": 31140,
          "time": 129.75,
          "velocity": 0.8346456692913385
        },
        {
          "duration": 0.21666666666666856,
          "durationTicks": 52,
          "midi": 31,
          "name": "G1",
          "ticks": 31200,
          "time": 130,
          "velocity": 0.8346456692913385
        },
        {
          "duration": 0.21666666666666856,
          "durationTicks": 52,
          "midi": 31,
          "name": "G1",
          "ticks": 31260,
          "time": 130.25,
          "velocity": 0.8346456692913385
        },
        {
          "duration": 0.21666666666666856,
          "durationTicks": 52,
          "midi": 31,
          "name": "G1",
          "ticks": 31320,
          "time": 130.5,
          "velocity": 0.8346456692913385
        },
        {
          "duration": 0.21666666666666856,
          "durationTicks": 52,
          "midi": 31,
          "name": "G1",
          "ticks": 31380,
          "time": 130.75,
          "velocity": 0.8346456692913385
        },
        {
          "duration": 0.21666666666666856,
          "durationTicks": 52,
          "midi": 31,
          "name": "G1",
          "ticks": 31440,
          "time": 131,
          "velocity": 0.8346456692913385
        },
        {
          "duration": 0.21666666666666856,
          "durationTicks": 52,
          "midi": 31,
          "name": "G1",
          "ticks": 31500,
          "time": 131.25,
          "velocity": 0.8346456692913385
        },
        {
          "duration": 0.21666666666666856,
          "durationTicks": 52,
          "midi": 31,
          "name": "G1",
          "ticks": 31560,
          "time": 131.5,
          "velocity": 0.8346456692913385
        },
        {
          "duration": 0.21666666666666856,
          "durationTicks": 52,
          "midi": 31,
          "name": "G1",
          "ticks": 31620,
          "time": 131.75,
          "velocity": 0.8346456692913385
        },
        {
          "duration": 0.21666666666666856,
          "durationTicks": 52,
          "midi": 34,
          "name": "A#1",
          "ticks": 31680,
          "time": 132,
          "velocity": 0.8346456692913385
        },
        {
          "duration": 0.21666666666666856,
          "durationTicks": 52,
          "midi": 34,
          "name": "A#1",
          "ticks": 31740,
          "time": 132.25,
          "velocity": 0.8346456692913385
        },
        {
          "duration": 0.21666666666666856,
          "durationTicks": 52,
          "midi": 34,
          "name": "A#1",
          "ticks": 31800,
          "time": 132.5,
          "velocity": 0.8346456692913385
        },
        {
          "duration": 0.21666666666666856,
          "durationTicks": 52,
          "midi": 34,
          "name": "A#1",
          "ticks": 31860,
          "time": 132.75,
          "velocity": 0.8346456692913385
        },
        {
          "duration": 0.21666666666666856,
          "durationTicks": 52,
          "midi": 34,
          "name": "A#1",
          "ticks": 31920,
          "time": 133,
          "velocity": 0.8346456692913385
        },
        {
          "duration": 0.21666666666666856,
          "durationTicks": 52,
          "midi": 34,
          "name": "A#1",
          "ticks": 31980,
          "time": 133.25,
          "velocity": 0.8346456692913385
        },
        {
          "duration": 0.21666666666666856,
          "durationTicks": 52,
          "midi": 34,
          "name": "A#1",
          "ticks": 32040,
          "time": 133.5,
          "velocity": 0.8346456692913385
        },
        {
          "duration": 0.21666666666666856,
          "durationTicks": 52,
          "midi": 34,
          "name": "A#1",
          "ticks": 32100,
          "time": 133.75,
          "velocity": 0.8346456692913385
        },
        {
          "duration": 0.21666666666666856,
          "durationTicks": 52,
          "midi": 29,
          "name": "F1",
          "ticks": 32160,
          "time": 134,
          "velocity": 0.8346456692913385
        },
        {
          "duration": 0.21666666666666856,
          "durationTicks": 52,
          "midi": 29,
          "name": "F1",
          "ticks": 32220,
          "time": 134.25,
          "velocity": 0.8346456692913385
        },
        {
          "duration": 0.21666666666666856,
          "durationTicks": 52,
          "midi": 29,
          "name": "F1",
          "ticks": 32280,
          "time": 134.5,
          "velocity": 0.8346456692913385
        },
        {
          "duration": 0.21666666666666856,
          "durationTicks": 52,
          "midi": 29,
          "name": "F1",
          "ticks": 32340,
          "time": 134.75,
          "velocity": 0.8346456692913385
        },
        {
          "duration": 0.21666666666666856,
          "durationTicks": 52,
          "midi": 29,
          "name": "F1",
          "ticks": 32400,
          "time": 135,
          "velocity": 0.8346456692913385
        },
        {
          "duration": 0.21666666666666856,
          "durationTicks": 52,
          "midi": 29,
          "name": "F1",
          "ticks": 32460,
          "time": 135.25,
          "velocity": 0.8346456692913385
        },
        {
          "duration": 0.21666666666666856,
          "durationTicks": 52,
          "midi": 29,
          "name": "F1",
          "ticks": 32520,
          "time": 135.5,
          "velocity": 0.8346456692913385
        },
        {
          "duration": 0.21666666666666856,
          "durationTicks": 52,
          "midi": 29,
          "name": "F1",
          "ticks": 32580,
          "time": 135.75,
          "velocity": 0.8346456692913385
        },
        {
          "duration": 0.21666666666666856,
          "durationTicks": 52,
          "midi": 36,
          "name": "C2",
          "ticks": 32640,
          "time": 136,
          "velocity": 0.8346456692913385
        },
        {
          "duration": 0.21666666666666856,
          "durationTicks": 52,
          "midi": 36,
          "name": "C2",
          "ticks": 32700,
          "time": 136.25,
          "velocity": 0.8346456692913385
        },
        {
          "duration": 0.21666666666666856,
          "durationTicks": 52,
          "midi": 36,
          "name": "C2",
          "ticks": 32760,
          "time": 136.5,
          "velocity": 0.8346456692913385
        },
        {
          "duration": 0.21666666666666856,
          "durationTicks": 52,
          "midi": 36,
          "name": "C2",
          "ticks": 32820,
          "time": 136.75,
          "velocity": 0.8346456692913385
        },
        {
          "duration": 0.21666666666666856,
          "durationTicks": 52,
          "midi": 36,
          "name": "C2",
          "ticks": 32880,
          "time": 137,
          "velocity": 0.8346456692913385
        },
        {
          "duration": 0.21666666666666856,
          "durationTicks": 52,
          "midi": 36,
          "name": "C2",
          "ticks": 32940,
          "time": 137.25,
          "velocity": 0.8346456692913385
        },
        {
          "duration": 0.21666666666666856,
          "durationTicks": 52,
          "midi": 36,
          "name": "C2",
          "ticks": 33000,
          "time": 137.5,
          "velocity": 0.8346456692913385
        },
        {
          "duration": 0.21666666666666856,
          "durationTicks": 52,
          "midi": 36,
          "name": "C2",
          "ticks": 33060,
          "time": 137.75,
          "velocity": 0.8346456692913385
        },
        {
          "duration": 0.21666666666666856,
          "durationTicks": 52,
          "midi": 31,
          "name": "G1",
          "ticks": 33120,
          "time": 138,
          "velocity": 0.8346456692913385
        },
        {
          "duration": 0.21666666666666856,
          "durationTicks": 52,
          "midi": 31,
          "name": "G1",
          "ticks": 33180,
          "time": 138.25,
          "velocity": 0.8346456692913385
        },
        {
          "duration": 0.21666666666666856,
          "durationTicks": 52,
          "midi": 31,
          "name": "G1",
          "ticks": 33240,
          "time": 138.5,
          "velocity": 0.8346456692913385
        },
        {
          "duration": 0.21666666666666856,
          "durationTicks": 52,
          "midi": 31,
          "name": "G1",
          "ticks": 33300,
          "time": 138.75,
          "velocity": 0.8346456692913385
        },
        {
          "duration": 0.21666666666666856,
          "durationTicks": 52,
          "midi": 31,
          "name": "G1",
          "ticks": 33360,
          "time": 139,
          "velocity": 0.8346456692913385
        },
        {
          "duration": 0.21666666666666856,
          "durationTicks": 52,
          "midi": 31,
          "name": "G1",
          "ticks": 33420,
          "time": 139.25,
          "velocity": 0.8346456692913385
        },
        {
          "duration": 0.21666666666666856,
          "durationTicks": 52,
          "midi": 31,
          "name": "G1",
          "ticks": 33480,
          "time": 139.5,
          "velocity": 0.8346456692913385
        },
        {
          "duration": 0.21666666666666856,
          "durationTicks": 52,
          "midi": 31,
          "name": "G1",
          "ticks": 33540,
          "time": 139.75,
          "velocity": 0.8346456692913385
        },
        {
          "duration": 0.21666666666666856,
          "durationTicks": 52,
          "midi": 34,
          "name": "A#1",
          "ticks": 33600,
          "time": 140,
          "velocity": 0.8346456692913385
        },
        {
          "duration": 0.21666666666666856,
          "durationTicks": 52,
          "midi": 34,
          "name": "A#1",
          "ticks": 33660,
          "time": 140.25,
          "velocity": 0.8346456692913385
        },
        {
          "duration": 0.21666666666666856,
          "durationTicks": 52,
          "midi": 34,
          "name": "A#1",
          "ticks": 33720,
          "time": 140.5,
          "velocity": 0.8346456692913385
        },
        {
          "duration": 0.21666666666666856,
          "durationTicks": 52,
          "midi": 34,
          "name": "A#1",
          "ticks": 33780,
          "time": 140.75,
          "velocity": 0.8346456692913385
        },
        {
          "duration": 0.21666666666666856,
          "durationTicks": 52,
          "midi": 34,
          "name": "A#1",
          "ticks": 33840,
          "time": 141,
          "velocity": 0.8346456692913385
        },
        {
          "duration": 0.21666666666666856,
          "durationTicks": 52,
          "midi": 34,
          "name": "A#1",
          "ticks": 33900,
          "time": 141.25,
          "velocity": 0.8346456692913385
        },
        {
          "duration": 0.21666666666666856,
          "durationTicks": 52,
          "midi": 34,
          "name": "A#1",
          "ticks": 33960,
          "time": 141.5,
          "velocity": 0.8346456692913385
        },
        {
          "duration": 0.21666666666666856,
          "durationTicks": 52,
          "midi": 34,
          "name": "A#1",
          "ticks": 34020,
          "time": 141.75,
          "velocity": 0.8346456692913385
        },
        {
          "duration": 0.21666666666666856,
          "durationTicks": 52,
          "midi": 29,
          "name": "F1",
          "ticks": 34080,
          "time": 142,
          "velocity": 0.8346456692913385
        },
        {
          "duration": 0.21666666666666856,
          "durationTicks": 52,
          "midi": 29,
          "name": "F1",
          "ticks": 34140,
          "time": 142.25,
          "velocity": 0.8346456692913385
        },
        {
          "duration": 0.21666666666666856,
          "durationTicks": 52,
          "midi": 29,
          "name": "F1",
          "ticks": 34200,
          "time": 142.5,
          "velocity": 0.8346456692913385
        },
        {
          "duration": 0.21666666666666856,
          "durationTicks": 52,
          "midi": 29,
          "name": "F1",
          "ticks": 34260,
          "time": 142.75,
          "velocity": 0.8346456692913385
        },
        {
          "duration": 0.21666666666666856,
          "durationTicks": 52,
          "midi": 29,
          "name": "F1",
          "ticks": 34320,
          "time": 143,
          "velocity": 0.8346456692913385
        },
        {
          "duration": 0.21666666666666856,
          "durationTicks": 52,
          "midi": 29,
          "name": "F1",
          "ticks": 34380,
          "time": 143.25,
          "velocity": 0.8346456692913385
        },
        {
          "duration": 0.21666666666666856,
          "durationTicks": 52,
          "midi": 29,
          "name": "F1",
          "ticks": 34440,
          "time": 143.5,
          "velocity": 0.8346456692913385
        },
        {
          "duration": 0.21666666666666856,
          "durationTicks": 52,
          "midi": 29,
          "name": "F1",
          "ticks": 34500,
          "time": 143.75,
          "velocity": 0.8346456692913385
        },
        {
          "duration": 0.21666666666666856,
          "durationTicks": 52,
          "midi": 36,
          "name": "C2",
          "ticks": 34560,
          "time": 144,
          "velocity": 0.8346456692913385
        },
        {
          "duration": 0.21666666666666856,
          "durationTicks": 52,
          "midi": 36,
          "name": "C2",
          "ticks": 34620,
          "time": 144.25,
          "velocity": 0.8346456692913385
        },
        {
          "duration": 0.21666666666666856,
          "durationTicks": 52,
          "midi": 36,
          "name": "C2",
          "ticks": 34680,
          "time": 144.5,
          "velocity": 0.8346456692913385
        },
        {
          "duration": 0.21666666666666856,
          "durationTicks": 52,
          "midi": 36,
          "name": "C2",
          "ticks": 34740,
          "time": 144.75,
          "velocity": 0.8346456692913385
        },
        {
          "duration": 0.21666666666666856,
          "durationTicks": 52,
          "midi": 38,
          "name": "D2",
          "ticks": 34800,
          "time": 145,
          "velocity": 0.8346456692913385
        },
        {
          "duration": 0.21666666666666856,
          "durationTicks": 52,
          "midi": 38,
          "name": "D2",
          "ticks": 34860,
          "time": 145.25,
          "velocity": 0.8346456692913385
        },
        {
          "duration": 0.21666666666666856,
          "durationTicks": 52,
          "midi": 38,
          "name": "D2",
          "ticks": 34920,
          "time": 145.5,
          "velocity": 0.8346456692913385
        },
        {
          "duration": 0.21666666666666856,
          "durationTicks": 52,
          "midi": 38,
          "name": "D2",
          "ticks": 34980,
          "time": 145.75,
          "velocity": 0.8346456692913385
        },
        {
          "duration": 0.21666666666666856,
          "durationTicks": 52,
          "midi": 39,
          "name": "D#2",
          "ticks": 35040,
          "time": 146,
          "velocity": 0.8346456692913385
        },
        {
          "duration": 0.21666666666666856,
          "durationTicks": 52,
          "midi": 39,
          "name": "D#2",
          "ticks": 35100,
          "time": 146.25,
          "velocity": 0.8346456692913385
        },
        {
          "duration": 0.21666666666666856,
          "durationTicks": 52,
          "midi": 39,
          "name": "D#2",
          "ticks": 35160,
          "time": 146.5,
          "velocity": 0.8346456692913385
        },
        {
          "duration": 0.21666666666666856,
          "durationTicks": 52,
          "midi": 39,
          "name": "D#2",
          "ticks": 35220,
          "time": 146.75,
          "velocity": 0.8346456692913385
        },
        {
          "duration": 0.21666666666666856,
          "durationTicks": 52,
          "midi": 41,
          "name": "F2",
          "ticks": 35280,
          "time": 147,
          "velocity": 0.8346456692913385
        },
        {
          "duration": 0.21666666666666856,
          "durationTicks": 52,
          "midi": 41,
          "name": "F2",
          "ticks": 35340,
          "time": 147.25,
          "velocity": 0.8346456692913385
        },
        {
          "duration": 0.21666666666666856,
          "durationTicks": 52,
          "midi": 41,
          "name": "F2",
          "ticks": 35400,
          "time": 147.5,
          "velocity": 0.8346456692913385
        },
        {
          "duration": 0.21666666666666856,
          "durationTicks": 52,
          "midi": 41,
          "name": "F2",
          "ticks": 35460,
          "time": 147.75,
          "velocity": 0.8346456692913385
        },
        {
          "duration": 0.21666666666666856,
          "durationTicks": 52,
          "midi": 31,
          "name": "G1",
          "ticks": 39840,
          "time": 166,
          "velocity": 0.8346456692913385
        },
        {
          "duration": 0.21666666666666856,
          "durationTicks": 52,
          "midi": 31,
          "name": "G1",
          "ticks": 39900,
          "time": 166.25,
          "velocity": 0.8346456692913385
        },
        {
          "duration": 0.21666666666666856,
          "durationTicks": 52,
          "midi": 31,
          "name": "G1",
          "ticks": 39960,
          "time": 166.5,
          "velocity": 0.8346456692913385
        },
        {
          "duration": 0.21666666666666856,
          "durationTicks": 52,
          "midi": 31,
          "name": "G1",
          "ticks": 40020,
          "time": 166.75,
          "velocity": 0.8346456692913385
        },
        {
          "duration": 0.21666666666666856,
          "durationTicks": 52,
          "midi": 31,
          "name": "G1",
          "ticks": 40080,
          "time": 167,
          "velocity": 0.8346456692913385
        },
        {
          "duration": 0.21666666666666856,
          "durationTicks": 52,
          "midi": 31,
          "name": "G1",
          "ticks": 40140,
          "time": 167.25,
          "velocity": 0.8346456692913385
        },
        {
          "duration": 0.21666666666666856,
          "durationTicks": 52,
          "midi": 31,
          "name": "G1",
          "ticks": 40200,
          "time": 167.5,
          "velocity": 0.8346456692913385
        },
        {
          "duration": 0.21666666666666856,
          "durationTicks": 52,
          "midi": 31,
          "name": "G1",
          "ticks": 40260,
          "time": 167.75,
          "velocity": 0.8346456692913385
        },
        {
          "duration": 0.21666666666666856,
          "durationTicks": 52,
          "midi": 34,
          "name": "A#1",
          "ticks": 40320,
          "time": 168,
          "velocity": 0.8346456692913385
        },
        {
          "duration": 0.21666666666666856,
          "durationTicks": 52,
          "midi": 34,
          "name": "A#1",
          "ticks": 40380,
          "time": 168.25,
          "velocity": 0.8346456692913385
        },
        {
          "duration": 0.21666666666666856,
          "durationTicks": 52,
          "midi": 34,
          "name": "A#1",
          "ticks": 40440,
          "time": 168.5,
          "velocity": 0.8346456692913385
        },
        {
          "duration": 0.21666666666666856,
          "durationTicks": 52,
          "midi": 34,
          "name": "A#1",
          "ticks": 40500,
          "time": 168.75,
          "velocity": 0.8346456692913385
        },
        {
          "duration": 0.21666666666666856,
          "durationTicks": 52,
          "midi": 34,
          "name": "A#1",
          "ticks": 40560,
          "time": 169,
          "velocity": 0.8346456692913385
        },
        {
          "duration": 0.21666666666666856,
          "durationTicks": 52,
          "midi": 34,
          "name": "A#1",
          "ticks": 40620,
          "time": 169.25,
          "velocity": 0.8346456692913385
        },
        {
          "duration": 0.21666666666666856,
          "durationTicks": 52,
          "midi": 34,
          "name": "A#1",
          "ticks": 40680,
          "time": 169.5,
          "velocity": 0.8346456692913385
        },
        {
          "duration": 0.21666666666666856,
          "durationTicks": 52,
          "midi": 34,
          "name": "A#1",
          "ticks": 40740,
          "time": 169.75,
          "velocity": 0.8346456692913385
        },
        {
          "duration": 0.21666666666666856,
          "durationTicks": 52,
          "midi": 29,
          "name": "F1",
          "ticks": 40800,
          "time": 170,
          "velocity": 0.8346456692913385
        },
        {
          "duration": 0.21666666666666856,
          "durationTicks": 52,
          "midi": 29,
          "name": "F1",
          "ticks": 40860,
          "time": 170.25,
          "velocity": 0.8346456692913385
        },
        {
          "duration": 0.21666666666666856,
          "durationTicks": 52,
          "midi": 29,
          "name": "F1",
          "ticks": 40920,
          "time": 170.5,
          "velocity": 0.8346456692913385
        },
        {
          "duration": 0.21666666666666856,
          "durationTicks": 52,
          "midi": 29,
          "name": "F1",
          "ticks": 40980,
          "time": 170.75,
          "velocity": 0.8346456692913385
        },
        {
          "duration": 0.21666666666666856,
          "durationTicks": 52,
          "midi": 29,
          "name": "F1",
          "ticks": 41040,
          "time": 171,
          "velocity": 0.8346456692913385
        },
        {
          "duration": 0.21666666666666856,
          "durationTicks": 52,
          "midi": 29,
          "name": "F1",
          "ticks": 41100,
          "time": 171.25,
          "velocity": 0.8346456692913385
        },
        {
          "duration": 0.21666666666666856,
          "durationTicks": 52,
          "midi": 29,
          "name": "F1",
          "ticks": 41160,
          "time": 171.5,
          "velocity": 0.8346456692913385
        },
        {
          "duration": 0.21666666666666856,
          "durationTicks": 52,
          "midi": 29,
          "name": "F1",
          "ticks": 41220,
          "time": 171.75,
          "velocity": 0.8346456692913385
        },
        {
          "duration": 0.21666666666666856,
          "durationTicks": 52,
          "midi": 36,
          "name": "C2",
          "ticks": 41280,
          "time": 172,
          "velocity": 0.8346456692913385
        },
        {
          "duration": 0.21666666666666856,
          "durationTicks": 52,
          "midi": 36,
          "name": "C2",
          "ticks": 41340,
          "time": 172.25,
          "velocity": 0.8346456692913385
        },
        {
          "duration": 0.21666666666666856,
          "durationTicks": 52,
          "midi": 36,
          "name": "C2",
          "ticks": 41400,
          "time": 172.5,
          "velocity": 0.8346456692913385
        },
        {
          "duration": 0.21666666666666856,
          "durationTicks": 52,
          "midi": 36,
          "name": "C2",
          "ticks": 41460,
          "time": 172.75,
          "velocity": 0.8346456692913385
        },
        {
          "duration": 0.21666666666666856,
          "durationTicks": 52,
          "midi": 36,
          "name": "C2",
          "ticks": 41520,
          "time": 173,
          "velocity": 0.8346456692913385
        },
        {
          "duration": 0.21666666666666856,
          "durationTicks": 52,
          "midi": 36,
          "name": "C2",
          "ticks": 41580,
          "time": 173.25,
          "velocity": 0.8346456692913385
        },
        {
          "duration": 0.21666666666666856,
          "durationTicks": 52,
          "midi": 36,
          "name": "C2",
          "ticks": 41640,
          "time": 173.5,
          "velocity": 0.8346456692913385
        },
        {
          "duration": 0.21666666666666856,
          "durationTicks": 52,
          "midi": 36,
          "name": "C2",
          "ticks": 41700,
          "time": 173.75,
          "velocity": 0.8346456692913385
        },
        {
          "duration": 0.21666666666666856,
          "durationTicks": 52,
          "midi": 31,
          "name": "G1",
          "ticks": 41760,
          "time": 174,
          "velocity": 0.8346456692913385
        },
        {
          "duration": 0.21666666666666856,
          "durationTicks": 52,
          "midi": 31,
          "name": "G1",
          "ticks": 41820,
          "time": 174.25,
          "velocity": 0.8346456692913385
        },
        {
          "duration": 0.21666666666666856,
          "durationTicks": 52,
          "midi": 31,
          "name": "G1",
          "ticks": 41880,
          "time": 174.5,
          "velocity": 0.8346456692913385
        },
        {
          "duration": 0.21666666666666856,
          "durationTicks": 52,
          "midi": 31,
          "name": "G1",
          "ticks": 41940,
          "time": 174.75,
          "velocity": 0.8346456692913385
        },
        {
          "duration": 0.21666666666666856,
          "durationTicks": 52,
          "midi": 31,
          "name": "G1",
          "ticks": 42000,
          "time": 175,
          "velocity": 0.8346456692913385
        },
        {
          "duration": 0.21666666666666856,
          "durationTicks": 52,
          "midi": 31,
          "name": "G1",
          "ticks": 42060,
          "time": 175.25,
          "velocity": 0.8346456692913385
        },
        {
          "duration": 0.21666666666666856,
          "durationTicks": 52,
          "midi": 31,
          "name": "G1",
          "ticks": 42120,
          "time": 175.5,
          "velocity": 0.8346456692913385
        },
        {
          "duration": 0.21666666666666856,
          "durationTicks": 52,
          "midi": 31,
          "name": "G1",
          "ticks": 42180,
          "time": 175.75,
          "velocity": 0.8346456692913385
        },
        {
          "duration": 0.21666666666666856,
          "durationTicks": 52,
          "midi": 34,
          "name": "A#1",
          "ticks": 42240,
          "time": 176,
          "velocity": 0.8346456692913385
        },
        {
          "duration": 0.21666666666666856,
          "durationTicks": 52,
          "midi": 34,
          "name": "A#1",
          "ticks": 42300,
          "time": 176.25,
          "velocity": 0.8346456692913385
        },
        {
          "duration": 0.21666666666666856,
          "durationTicks": 52,
          "midi": 34,
          "name": "A#1",
          "ticks": 42360,
          "time": 176.5,
          "velocity": 0.8346456692913385
        },
        {
          "duration": 0.21666666666666856,
          "durationTicks": 52,
          "midi": 34,
          "name": "A#1",
          "ticks": 42420,
          "time": 176.75,
          "velocity": 0.8346456692913385
        },
        {
          "duration": 0.21666666666666856,
          "durationTicks": 52,
          "midi": 34,
          "name": "A#1",
          "ticks": 42480,
          "time": 177,
          "velocity": 0.8346456692913385
        },
        {
          "duration": 0.21666666666666856,
          "durationTicks": 52,
          "midi": 34,
          "name": "A#1",
          "ticks": 42540,
          "time": 177.25,
          "velocity": 0.8346456692913385
        },
        {
          "duration": 0.21666666666666856,
          "durationTicks": 52,
          "midi": 34,
          "name": "A#1",
          "ticks": 42600,
          "time": 177.5,
          "velocity": 0.8346456692913385
        },
        {
          "duration": 0.21666666666666856,
          "durationTicks": 52,
          "midi": 34,
          "name": "A#1",
          "ticks": 42660,
          "time": 177.75,
          "velocity": 0.8346456692913385
        },
        {
          "duration": 0.21666666666666856,
          "durationTicks": 52,
          "midi": 29,
          "name": "F1",
          "ticks": 42720,
          "time": 178,
          "velocity": 0.8346456692913385
        },
        {
          "duration": 0.21666666666666856,
          "durationTicks": 52,
          "midi": 29,
          "name": "F1",
          "ticks": 42780,
          "time": 178.25,
          "velocity": 0.8346456692913385
        },
        {
          "duration": 0.21666666666666856,
          "durationTicks": 52,
          "midi": 29,
          "name": "F1",
          "ticks": 42840,
          "time": 178.5,
          "velocity": 0.8346456692913385
        },
        {
          "duration": 0.21666666666666856,
          "durationTicks": 52,
          "midi": 29,
          "name": "F1",
          "ticks": 42900,
          "time": 178.75,
          "velocity": 0.8346456692913385
        },
        {
          "duration": 0.21666666666666856,
          "durationTicks": 52,
          "midi": 29,
          "name": "F1",
          "ticks": 42960,
          "time": 179,
          "velocity": 0.8346456692913385
        },
        {
          "duration": 0.21666666666666856,
          "durationTicks": 52,
          "midi": 29,
          "name": "F1",
          "ticks": 43020,
          "time": 179.25,
          "velocity": 0.8346456692913385
        },
        {
          "duration": 0.21666666666666856,
          "durationTicks": 52,
          "midi": 29,
          "name": "F1",
          "ticks": 43080,
          "time": 179.5,
          "velocity": 0.8346456692913385
        },
        {
          "duration": 0.21666666666666856,
          "durationTicks": 52,
          "midi": 29,
          "name": "F1",
          "ticks": 43140,
          "time": 179.75,
          "velocity": 0.8346456692913385
        },
        {
          "duration": 0.21666666666666856,
          "durationTicks": 52,
          "midi": 36,
          "name": "C2",
          "ticks": 43200,
          "time": 180,
          "velocity": 0.8346456692913385
        },
        {
          "duration": 0.21666666666666856,
          "durationTicks": 52,
          "midi": 36,
          "name": "C2",
          "ticks": 43260,
          "time": 180.25,
          "velocity": 0.8346456692913385
        },
        {
          "duration": 0.21666666666666856,
          "durationTicks": 52,
          "midi": 36,
          "name": "C2",
          "ticks": 43320,
          "time": 180.5,
          "velocity": 0.8346456692913385
        },
        {
          "duration": 0.21666666666666856,
          "durationTicks": 52,
          "midi": 36,
          "name": "C2",
          "ticks": 43380,
          "time": 180.75,
          "velocity": 0.8346456692913385
        },
        {
          "duration": 0.21666666666666856,
          "durationTicks": 52,
          "midi": 36,
          "name": "C2",
          "ticks": 43440,
          "time": 181,
          "velocity": 0.8346456692913385
        },
        {
          "duration": 0.21666666666666856,
          "durationTicks": 52,
          "midi": 36,
          "name": "C2",
          "ticks": 43500,
          "time": 181.25,
          "velocity": 0.8346456692913385
        },
        {
          "duration": 0.21666666666666856,
          "durationTicks": 52,
          "midi": 36,
          "name": "C2",
          "ticks": 43560,
          "time": 181.5,
          "velocity": 0.8346456692913385
        },
        {
          "duration": 0.21666666666666856,
          "durationTicks": 52,
          "midi": 36,
          "name": "C2",
          "ticks": 43620,
          "time": 181.75,
          "velocity": 0.8346456692913385
        },
        {
          "duration": 0.21666666666666856,
          "durationTicks": 52,
          "midi": 31,
          "name": "G1",
          "ticks": 43680,
          "time": 182,
          "velocity": 0.8346456692913385
        },
        {
          "duration": 0.21666666666666856,
          "durationTicks": 52,
          "midi": 31,
          "name": "G1",
          "ticks": 43740,
          "time": 182.25,
          "velocity": 0.8346456692913385
        },
        {
          "duration": 0.21666666666666856,
          "durationTicks": 52,
          "midi": 31,
          "name": "G1",
          "ticks": 43800,
          "time": 182.5,
          "velocity": 0.8346456692913385
        },
        {
          "duration": 0.21666666666666856,
          "durationTicks": 52,
          "midi": 31,
          "name": "G1",
          "ticks": 43860,
          "time": 182.75,
          "velocity": 0.8346456692913385
        },
        {
          "duration": 0.21666666666666856,
          "durationTicks": 52,
          "midi": 31,
          "name": "G1",
          "ticks": 43920,
          "time": 183,
          "velocity": 0.8346456692913385
        },
        {
          "duration": 0.21666666666666856,
          "durationTicks": 52,
          "midi": 31,
          "name": "G1",
          "ticks": 43980,
          "time": 183.25,
          "velocity": 0.8346456692913385
        },
        {
          "duration": 0.21666666666666856,
          "durationTicks": 52,
          "midi": 31,
          "name": "G1",
          "ticks": 44040,
          "time": 183.5,
          "velocity": 0.8346456692913385
        },
        {
          "duration": 0.21666666666666856,
          "durationTicks": 52,
          "midi": 31,
          "name": "G1",
          "ticks": 44100,
          "time": 183.75,
          "velocity": 0.8346456692913385
        },
        {
          "duration": 0.21666666666666856,
          "durationTicks": 52,
          "midi": 34,
          "name": "A#1",
          "ticks": 44160,
          "time": 184,
          "velocity": 0.8346456692913385
        },
        {
          "duration": 0.21666666666666856,
          "durationTicks": 52,
          "midi": 34,
          "name": "A#1",
          "ticks": 44220,
          "time": 184.25,
          "velocity": 0.8346456692913385
        },
        {
          "duration": 0.21666666666666856,
          "durationTicks": 52,
          "midi": 34,
          "name": "A#1",
          "ticks": 44280,
          "time": 184.5,
          "velocity": 0.8346456692913385
        },
        {
          "duration": 0.21666666666666856,
          "durationTicks": 52,
          "midi": 34,
          "name": "A#1",
          "ticks": 44340,
          "time": 184.75,
          "velocity": 0.8346456692913385
        },
        {
          "duration": 0.21666666666666856,
          "durationTicks": 52,
          "midi": 34,
          "name": "A#1",
          "ticks": 44400,
          "time": 185,
          "velocity": 0.8346456692913385
        },
        {
          "duration": 0.21666666666666856,
          "durationTicks": 52,
          "midi": 34,
          "name": "A#1",
          "ticks": 44460,
          "time": 185.25,
          "velocity": 0.8346456692913385
        },
        {
          "duration": 0.21666666666666856,
          "durationTicks": 52,
          "midi": 34,
          "name": "A#1",
          "ticks": 44520,
          "time": 185.5,
          "velocity": 0.8346456692913385
        },
        {
          "duration": 0.21666666666666856,
          "durationTicks": 52,
          "midi": 34,
          "name": "A#1",
          "ticks": 44580,
          "time": 185.75,
          "velocity": 0.8346456692913385
        },
        {
          "duration": 0.21666666666666856,
          "durationTicks": 52,
          "midi": 29,
          "name": "F1",
          "ticks": 44640,
          "time": 186,
          "velocity": 0.8346456692913385
        },
        {
          "duration": 0.21666666666666856,
          "durationTicks": 52,
          "midi": 29,
          "name": "F1",
          "ticks": 44700,
          "time": 186.25,
          "velocity": 0.8346456692913385
        },
        {
          "duration": 0.21666666666666856,
          "durationTicks": 52,
          "midi": 29,
          "name": "F1",
          "ticks": 44760,
          "time": 186.5,
          "velocity": 0.8346456692913385
        },
        {
          "duration": 0.21666666666666856,
          "durationTicks": 52,
          "midi": 29,
          "name": "F1",
          "ticks": 44820,
          "time": 186.75,
          "velocity": 0.8346456692913385
        },
        {
          "duration": 0.21666666666666856,
          "durationTicks": 52,
          "midi": 29,
          "name": "F1",
          "ticks": 44880,
          "time": 187,
          "velocity": 0.8346456692913385
        },
        {
          "duration": 0.21666666666666856,
          "durationTicks": 52,
          "midi": 29,
          "name": "F1",
          "ticks": 44940,
          "time": 187.25,
          "velocity": 0.8346456692913385
        },
        {
          "duration": 0.21666666666666856,
          "durationTicks": 52,
          "midi": 29,
          "name": "F1",
          "ticks": 45000,
          "time": 187.5,
          "velocity": 0.8346456692913385
        },
        {
          "duration": 0.21666666666666856,
          "durationTicks": 52,
          "midi": 29,
          "name": "F1",
          "ticks": 45060,
          "time": 187.75,
          "velocity": 0.8346456692913385
        },
        {
          "duration": 0.21666666666666856,
          "durationTicks": 52,
          "midi": 36,
          "name": "C2",
          "ticks": 45120,
          "time": 188,
          "velocity": 0.8346456692913385
        },
        {
          "duration": 0.21666666666666856,
          "durationTicks": 52,
          "midi": 36,
          "name": "C2",
          "ticks": 45180,
          "time": 188.25,
          "velocity": 0.8346456692913385
        },
        {
          "duration": 0.21666666666666856,
          "durationTicks": 52,
          "midi": 36,
          "name": "C2",
          "ticks": 45240,
          "time": 188.5,
          "velocity": 0.8346456692913385
        },
        {
          "duration": 0.21666666666666856,
          "durationTicks": 52,
          "midi": 36,
          "name": "C2",
          "ticks": 45300,
          "time": 188.75,
          "velocity": 0.8346456692913385
        },
        {
          "duration": 0.21666666666666856,
          "durationTicks": 52,
          "midi": 36,
          "name": "C2",
          "ticks": 45360,
          "time": 189,
          "velocity": 0.8346456692913385
        },
        {
          "duration": 0.21666666666666856,
          "durationTicks": 52,
          "midi": 36,
          "name": "C2",
          "ticks": 45420,
          "time": 189.25,
          "velocity": 0.8346456692913385
        },
        {
          "duration": 0.21666666666666856,
          "durationTicks": 52,
          "midi": 36,
          "name": "C2",
          "ticks": 45480,
          "time": 189.5,
          "velocity": 0.8346456692913385
        },
        {
          "duration": 0.21666666666666856,
          "durationTicks": 52,
          "midi": 36,
          "name": "C2",
          "ticks": 45540,
          "time": 189.75,
          "velocity": 0.8346456692913385
        },
        {
          "duration": 0.21666666666666856,
          "durationTicks": 52,
          "midi": 31,
          "name": "G1",
          "ticks": 45600,
          "time": 190,
          "velocity": 0.8346456692913385
        },
        {
          "duration": 0.21666666666666856,
          "durationTicks": 52,
          "midi": 31,
          "name": "G1",
          "ticks": 45660,
          "time": 190.25,
          "velocity": 0.8346456692913385
        },
        {
          "duration": 0.21666666666666856,
          "durationTicks": 52,
          "midi": 31,
          "name": "G1",
          "ticks": 45720,
          "time": 190.5,
          "velocity": 0.8346456692913385
        },
        {
          "duration": 0.21666666666666856,
          "durationTicks": 52,
          "midi": 31,
          "name": "G1",
          "ticks": 45780,
          "time": 190.75,
          "velocity": 0.8346456692913385
        },
        {
          "duration": 0.21666666666666856,
          "durationTicks": 52,
          "midi": 31,
          "name": "G1",
          "ticks": 45840,
          "time": 191,
          "velocity": 0.8346456692913385
        },
        {
          "duration": 0.21666666666666856,
          "durationTicks": 52,
          "midi": 31,
          "name": "G1",
          "ticks": 45900,
          "time": 191.25,
          "velocity": 0.8346456692913385
        },
        {
          "duration": 0.21666666666666856,
          "durationTicks": 52,
          "midi": 31,
          "name": "G1",
          "ticks": 45960,
          "time": 191.5,
          "velocity": 0.8346456692913385
        },
        {
          "duration": 0.21666666666666856,
          "durationTicks": 52,
          "midi": 31,
          "name": "G1",
          "ticks": 46020,
          "time": 191.75,
          "velocity": 0.8346456692913385
        },
        {
          "duration": 0.21666666666666856,
          "durationTicks": 52,
          "midi": 34,
          "name": "A#1",
          "ticks": 46080,
          "time": 192,
          "velocity": 0.8346456692913385
        },
        {
          "duration": 0.21666666666666856,
          "durationTicks": 52,
          "midi": 34,
          "name": "A#1",
          "ticks": 46140,
          "time": 192.25,
          "velocity": 0.8346456692913385
        },
        {
          "duration": 0.21666666666666856,
          "durationTicks": 52,
          "midi": 34,
          "name": "A#1",
          "ticks": 46200,
          "time": 192.5,
          "velocity": 0.8346456692913385
        },
        {
          "duration": 0.21666666666666856,
          "durationTicks": 52,
          "midi": 34,
          "name": "A#1",
          "ticks": 46260,
          "time": 192.75,
          "velocity": 0.8346456692913385
        },
        {
          "duration": 0.21666666666666856,
          "durationTicks": 52,
          "midi": 34,
          "name": "A#1",
          "ticks": 46320,
          "time": 193,
          "velocity": 0.8346456692913385
        },
        {
          "duration": 0.21666666666666856,
          "durationTicks": 52,
          "midi": 34,
          "name": "A#1",
          "ticks": 46380,
          "time": 193.25,
          "velocity": 0.8346456692913385
        },
        {
          "duration": 0.21666666666666856,
          "durationTicks": 52,
          "midi": 34,
          "name": "A#1",
          "ticks": 46440,
          "time": 193.5,
          "velocity": 0.8346456692913385
        },
        {
          "duration": 0.21666666666666856,
          "durationTicks": 52,
          "midi": 34,
          "name": "A#1",
          "ticks": 46500,
          "time": 193.75,
          "velocity": 0.8346456692913385
        },
        {
          "duration": 0.21666666666666856,
          "durationTicks": 52,
          "midi": 29,
          "name": "F1",
          "ticks": 46560,
          "time": 194,
          "velocity": 0.8346456692913385
        },
        {
          "duration": 0.21666666666666856,
          "durationTicks": 52,
          "midi": 29,
          "name": "F1",
          "ticks": 46620,
          "time": 194.25,
          "velocity": 0.8346456692913385
        },
        {
          "duration": 0.21666666666666856,
          "durationTicks": 52,
          "midi": 29,
          "name": "F1",
          "ticks": 46680,
          "time": 194.5,
          "velocity": 0.8346456692913385
        },
        {
          "duration": 0.21666666666666856,
          "durationTicks": 52,
          "midi": 29,
          "name": "F1",
          "ticks": 46740,
          "time": 194.75,
          "velocity": 0.8346456692913385
        },
        {
          "duration": 0.21666666666666856,
          "durationTicks": 52,
          "midi": 29,
          "name": "F1",
          "ticks": 46800,
          "time": 195,
          "velocity": 0.8346456692913385
        },
        {
          "duration": 0.21666666666666856,
          "durationTicks": 52,
          "midi": 29,
          "name": "F1",
          "ticks": 46860,
          "time": 195.25,
          "velocity": 0.8346456692913385
        },
        {
          "duration": 0.21666666666666856,
          "durationTicks": 52,
          "midi": 29,
          "name": "F1",
          "ticks": 46920,
          "time": 195.5,
          "velocity": 0.8346456692913385
        },
        {
          "duration": 0.21666666666666856,
          "durationTicks": 52,
          "midi": 29,
          "name": "F1",
          "ticks": 46980,
          "time": 195.75,
          "velocity": 0.8346456692913385
        },
        {
          "duration": 0.21666666666666856,
          "durationTicks": 52,
          "midi": 36,
          "name": "C2",
          "ticks": 47040,
          "time": 196,
          "velocity": 0.8346456692913385
        },
        {
          "duration": 0.21666666666666856,
          "durationTicks": 52,
          "midi": 36,
          "name": "C2",
          "ticks": 47100,
          "time": 196.25,
          "velocity": 0.8346456692913385
        },
        {
          "duration": 0.21666666666666856,
          "durationTicks": 52,
          "midi": 36,
          "name": "C2",
          "ticks": 47160,
          "time": 196.5,
          "velocity": 0.8346456692913385
        },
        {
          "duration": 0.21666666666666856,
          "durationTicks": 52,
          "midi": 34,
          "name": "A#1",
          "ticks": 47220,
          "time": 196.75,
          "velocity": 0.8346456692913385
        },
        {
          "duration": 0.21666666666666856,
          "durationTicks": 52,
          "midi": 36,
          "name": "C2",
          "ticks": 47280,
          "time": 197,
          "velocity": 0.8346456692913385
        },
        {
          "duration": 0.21666666666666856,
          "durationTicks": 52,
          "midi": 36,
          "name": "C2",
          "ticks": 47340,
          "time": 197.25,
          "velocity": 0.8346456692913385
        },
        {
          "duration": 0.21666666666666856,
          "durationTicks": 52,
          "midi": 36,
          "name": "C2",
          "ticks": 47400,
          "time": 197.5,
          "velocity": 0.8346456692913385
        },
        {
          "duration": 0.21666666666666856,
          "durationTicks": 52,
          "midi": 34,
          "name": "A#1",
          "ticks": 47460,
          "time": 197.75,
          "velocity": 0.8346456692913385
        },
        {
          "duration": 7.949999999999989,
          "durationTicks": 1908,
          "midi": 31,
          "name": "G1",
          "ticks": 47520,
          "time": 198,
          "velocity": 0.8346456692913385
        }
      ]
    },
    {
      "channel": 0,
      "controlChanges": {
        "0": [
          {
            "number": 0,
            "ticks": 0,
            "time": 0,
            "value": 0
          }
        ]
      },
      "pitchBends": [],
      "instrument": {
        "family": "piano",
        "number": 0,
        "name": "acoustic grand piano"
      },
      "name": "5",
      "notes": [],
      "endOfTrackTicks": 49920
    },
    {
      "channel": 4,
      "controlChanges": {
        "7": [
          {
            "number": 7,
            "ticks": 0,
            "time": 0,
            "value": 0.7637795275590551
          },
          {
            "number": 7,
            "ticks": 720,
            "time": 3,
            "value": 0
          },
          {
            "number": 7,
            "ticks": 784,
            "time": 3.2666666666666666,
            "value": 0.007874015748031496
          },
          {
            "number": 7,
            "ticks": 800,
            "time": 3.3333333333333335,
            "value": 0.023622047244094488
          },
          {
            "number": 7,
            "ticks": 808,
            "time": 3.3666666666666667,
            "value": 0.031496062992125984
          },
          {
            "number": 7,
            "ticks": 816,
            "time": 3.4,
            "value": 0.047244094488188976
          },
          {
            "number": 7,
            "ticks": 832,
            "time": 3.466666666666667,
            "value": 0.05511811023622047
          },
          {
            "number": 7,
            "ticks": 856,
            "time": 3.566666666666667,
            "value": 0.07086614173228346
          },
          {
            "number": 7,
            "ticks": 872,
            "time": 3.6333333333333333,
            "value": 0.07874015748031496
          },
          {
            "number": 7,
            "ticks": 880,
            "time": 3.6666666666666665,
            "value": 0.09448818897637795
          },
          {
            "number": 7,
            "ticks": 896,
            "time": 3.7333333333333334,
            "value": 0.10236220472440945
          },
          {
            "number": 7,
            "ticks": 912,
            "time": 3.8,
            "value": 0.11023622047244094
          },
          {
            "number": 7,
            "ticks": 928,
            "time": 3.8666666666666667,
            "value": 0.12598425196850394
          },
          {
            "number": 7,
            "ticks": 960,
            "time": 4,
            "value": 0.13385826771653545
          },
          {
            "number": 7,
            "ticks": 976,
            "time": 4.066666666666666,
            "value": 0.14960629921259844
          },
          {
            "number": 7,
            "ticks": 1016,
            "time": 4.233333333333333,
            "value": 0.15748031496062992
          },
          {
            "number": 7,
            "ticks": 1024,
            "time": 4.266666666666667,
            "value": 0.1732283464566929
          },
          {
            "number": 7,
            "ticks": 1040,
            "time": 4.333333333333333,
            "value": 0.18110236220472442
          },
          {
            "number": 7,
            "ticks": 1048,
            "time": 4.366666666666666,
            "value": 0.1968503937007874
          },
          {
            "number": 7,
            "ticks": 1056,
            "time": 4.4,
            "value": 0.2047244094488189
          },
          {
            "number": 7,
            "ticks": 1072,
            "time": 4.466666666666667,
            "value": 0.2125984251968504
          },
          {
            "number": 7,
            "ticks": 1080,
            "time": 4.5,
            "value": 0.2283464566929134
          },
          {
            "number": 7,
            "ticks": 1120,
            "time": 4.666666666666667,
            "value": 0.23622047244094488
          },
          {
            "number": 7,
            "ticks": 1136,
            "time": 4.733333333333333,
            "value": 0.25196850393700787
          },
          {
            "number": 7,
            "ticks": 1160,
            "time": 4.833333333333333,
            "value": 0.25984251968503935
          },
          {
            "number": 7,
            "ticks": 1184,
            "time": 4.933333333333334,
            "value": 0.2755905511811024
          },
          {
            "number": 7,
            "ticks": 1200,
            "time": 5,
            "value": 0.28346456692913385
          },
          {
            "number": 7,
            "ticks": 1224,
            "time": 5.1,
            "value": 0.2992125984251969
          },
          {
            "number": 7,
            "ticks": 1232,
            "time": 5.133333333333334,
            "value": 0.30708661417322836
          },
          {
            "number": 7,
            "ticks": 1240,
            "time": 5.166666666666667,
            "value": 0.31496062992125984
          },
          {
            "number": 7,
            "ticks": 1256,
            "time": 5.233333333333333,
            "value": 0.33070866141732286
          },
          {
            "number": 7,
            "ticks": 1272,
            "time": 5.3,
            "value": 0.33858267716535434
          },
          {
            "number": 7,
            "ticks": 1288,
            "time": 5.366666666666666,
            "value": 0.3543307086614173
          },
          {
            "number": 7,
            "ticks": 1296,
            "time": 5.4,
            "value": 0.36220472440944884
          },
          {
            "number": 7,
            "ticks": 1312,
            "time": 5.466666666666667,
            "value": 0.3779527559055118
          },
          {
            "number": 7,
            "ticks": 1328,
            "time": 5.533333333333333,
            "value": 0.3858267716535433
          },
          {
            "number": 7,
            "ticks": 1336,
            "time": 5.566666666666666,
            "value": 0.4015748031496063
          },
          {
            "number": 7,
            "ticks": 1352,
            "time": 5.633333333333334,
            "value": 0.4094488188976378
          },
          {
            "number": 7,
            "ticks": 1360,
            "time": 5.666666666666667,
            "value": 0.41732283464566927
          },
          {
            "number": 7,
            "ticks": 1384,
            "time": 5.766666666666667,
            "value": 0.4330708661417323
          },
          {
            "number": 7,
            "ticks": 1400,
            "time": 5.833333333333333,
            "value": 0.4566929133858268
          },
          {
            "number": 7,
            "ticks": 1416,
            "time": 5.9,
            "value": 0.4645669291338583
          },
          {
            "number": 7,
            "ticks": 1424,
            "time": 5.933333333333334,
            "value": 0.48031496062992124
          },
          {
            "number": 7,
            "ticks": 1440,
            "time": 6,
            "value": 0.4881889763779528
          },
          {
            "number": 7,
            "ticks": 1448,
            "time": 6.033333333333333,
            "value": 0.5039370078740157
          },
          {
            "number": 7,
            "ticks": 1464,
            "time": 6.1,
            "value": 0.5118110236220472
          },
          {
            "number": 7,
            "ticks": 1472,
            "time": 6.133333333333334,
            "value": 0.5196850393700787
          },
          {
            "number": 7,
            "ticks": 1480,
            "time": 6.166666666666667,
            "value": 0.5433070866141733
          },
          {
            "number": 7,
            "ticks": 1496,
            "time": 6.233333333333333,
            "value": 0.5590551181102362
          },
          {
            "number": 7,
            "ticks": 1512,
            "time": 6.3,
            "value": 0.5669291338582677
          },
          {
            "number": 7,
            "ticks": 1520,
            "time": 6.333333333333333,
            "value": 0.5826771653543307
          },
          {
            "number": 7,
            "ticks": 1528,
            "time": 6.366666666666666,
            "value": 0.5905511811023622
          },
          {
            "number": 7,
            "ticks": 1544,
            "time": 6.433333333333334,
            "value": 0.5984251968503937
          },
          {
            "number": 7,
            "ticks": 1568,
            "time": 6.533333333333333,
            "value": 0.6141732283464567
          },
          {
            "number": 7,
            "ticks": 1576,
            "time": 6.566666666666666,
            "value": 0.6220472440944882
          },
          {
            "number": 7,
            "ticks": 1592,
            "time": 6.633333333333334,
            "value": 0.6456692913385826
          },
          {
            "number": 7,
            "ticks": 1608,
            "time": 6.7,
            "value": 0.6614173228346457
          },
          {
            "number": 7,
            "ticks": 1624,
            "time": 6.766666666666667,
            "value": 0.6850393700787402
          },
          {
            "number": 7,
            "ticks": 1632,
            "time": 6.8,
            "value": 0.7007874015748031
          },
          {
            "number": 7,
            "ticks": 1648,
            "time": 6.866666666666666,
            "value": 0.7165354330708661
          },
          {
            "number": 7,
            "ticks": 1656,
            "time": 6.9,
            "value": 0.7244094488188977
          },
          {
            "number": 7,
            "ticks": 1664,
            "time": 6.933333333333334,
            "value": 0.7401574803149606
          },
          {
            "number": 7,
            "ticks": 1672,
            "time": 6.966666666666667,
            "value": 0.7480314960629921
          },
          {
            "number": 7,
            "ticks": 1688,
            "time": 7.033333333333333,
            "value": 0.7716535433070866
          },
          {
            "number": 7,
            "ticks": 1704,
            "time": 7.1,
            "value": 0.7952755905511811
          },
          {
            "number": 7,
            "ticks": 1712,
            "time": 7.133333333333334,
            "value": 0.8188976377952756
          },
          {
            "number": 7,
            "ticks": 1720,
            "time": 7.166666666666667,
            "value": 0.84251968503937
          },
          {
            "number": 7,
            "ticks": 1736,
            "time": 7.233333333333333,
            "value": 0.8503937007874016
          },
          {
            "number": 7,
            "ticks": 1936,
            "time": 8.066666666666666,
            "value": 0.7637795275590551
          },
          {
            "number": 7,
            "ticks": 10640,
            "time": 44.333333333333336,
            "value": 0.7401574803149606
          },
          {
            "number": 7,
            "ticks": 10648,
            "time": 44.36666666666667,
            "value": 0.7244094488188977
          },
          {
            "number": 7,
            "ticks": 10664,
            "time": 44.43333333333333,
            "value": 0.7165354330708661
          },
          {
            "number": 7,
            "ticks": 10680,
            "time": 44.5,
            "value": 0.7007874015748031
          },
          {
            "number": 7,
            "ticks": 10696,
            "time": 44.56666666666667,
            "value": 0.6929133858267716
          },
          {
            "number": 7,
            "ticks": 10720,
            "time": 44.666666666666664,
            "value": 0.6850393700787402
          },
          {
            "number": 7,
            "ticks": 10736,
            "time": 44.733333333333334,
            "value": 0.6692913385826772
          },
          {
            "number": 7,
            "ticks": 10752,
            "time": 44.8,
            "value": 0.6614173228346457
          },
          {
            "number": 7,
            "ticks": 10776,
            "time": 44.9,
            "value": 0.6456692913385826
          },
          {
            "number": 7,
            "ticks": 10792,
            "time": 44.96666666666667,
            "value": 0.6377952755905512
          },
          {
            "number": 7,
            "ticks": 10800,
            "time": 45,
            "value": 0.6220472440944882
          },
          {
            "number": 7,
            "ticks": 10840,
            "time": 45.166666666666664,
            "value": 0.6141732283464567
          },
          {
            "number": 7,
            "ticks": 10872,
            "time": 45.3,
            "value": 0.5984251968503937
          },
          {
            "number": 7,
            "ticks": 10888,
            "time": 45.36666666666667,
            "value": 0.5905511811023622
          },
          {
            "number": 7,
            "ticks": 10904,
            "time": 45.43333333333333,
            "value": 0.5826771653543307
          },
          {
            "number": 7,
            "ticks": 10920,
            "time": 45.5,
            "value": 0.5669291338582677
          },
          {
            "number": 7,
            "ticks": 10936,
            "time": 45.56666666666667,
            "value": 0.5590551181102362
          },
          {
            "number": 7,
            "ticks": 10944,
            "time": 45.6,
            "value": 0.5433070866141733
          },
          {
            "number": 7,
            "ticks": 10960,
            "time": 45.666666666666664,
            "value": 0.5354330708661418
          },
          {
            "number": 7,
            "ticks": 10968,
            "time": 45.7,
            "value": 0.5196850393700787
          },
          {
            "number": 7,
            "ticks": 10976,
            "time": 45.733333333333334,
            "value": 0.5118110236220472
          },
          {
            "number": 7,
            "ticks": 10992,
            "time": 45.8,
            "value": 0.5039370078740157
          },
          {
            "number": 7,
            "ticks": 11008,
            "time": 45.86666666666667,
            "value": 0.4881889763779528
          },
          {
            "number": 7,
            "ticks": 11040,
            "time": 46,
            "value": 0.48031496062992124
          },
          {
            "number": 7,
            "ticks": 11056,
            "time": 46.06666666666667,
            "value": 0.4645669291338583
          },
          {
            "number": 7,
            "ticks": 11080,
            "time": 46.166666666666664,
            "value": 0.4566929133858268
          },
          {
            "number": 7,
            "ticks": 11112,
            "time": 46.3,
            "value": 0.4409448818897638
          },
          {
            "number": 7,
            "ticks": 11128,
            "time": 46.36666666666667,
            "value": 0.41732283464566927
          },
          {
            "number": 7,
            "ticks": 11168,
            "time": 46.53333333333333,
            "value": 0.4094488188976378
          },
          {
            "number": 7,
            "ticks": 11184,
            "time": 46.6,
            "value": 0.4015748031496063
          },
          {
            "number": 7,
            "ticks": 11192,
            "time": 46.63333333333333,
            "value": 0.3858267716535433
          },
          {
            "number": 7,
            "ticks": 11208,
            "time": 46.7,
            "value": 0.3779527559055118
          },
          {
            "number": 7,
            "ticks": 11224,
            "time": 46.766666666666666,
            "value": 0.36220472440944884
          },
          {
            "number": 7,
            "ticks": 11232,
            "time": 46.8,
            "value": 0.3543307086614173
          },
          {
            "number": 7,
            "ticks": 11256,
            "time": 46.9,
            "value": 0.33858267716535434
          },
          {
            "number": 7,
            "ticks": 11264,
            "time": 46.93333333333333,
            "value": 0.33070866141732286
          },
          {
            "number": 7,
            "ticks": 11288,
            "time": 47.03333333333333,
            "value": 0.31496062992125984
          },
          {
            "number": 7,
            "ticks": 11296,
            "time": 47.06666666666667,
            "value": 0.30708661417322836
          },
          {
            "number": 7,
            "ticks": 11304,
            "time": 47.1,
            "value": 0.2992125984251969
          },
          {
            "number": 7,
            "ticks": 11312,
            "time": 47.13333333333333,
            "value": 0.28346456692913385
          },
          {
            "number": 7,
            "ticks": 11336,
            "time": 47.233333333333334,
            "value": 0.2755905511811024
          },
          {
            "number": 7,
            "ticks": 11352,
            "time": 47.3,
            "value": 0.25196850393700787
          },
          {
            "number": 7,
            "ticks": 11376,
            "time": 47.4,
            "value": 0.23622047244094488
          },
          {
            "number": 7,
            "ticks": 11416,
            "time": 47.56666666666667,
            "value": 0.2125984251968504
          },
          {
            "number": 7,
            "ticks": 11424,
            "time": 47.6,
            "value": 0.2047244094488189
          },
          {
            "number": 7,
            "ticks": 11432,
            "time": 47.63333333333333,
            "value": 0.1968503937007874
          },
          {
            "number": 7,
            "ticks": 11448,
            "time": 47.7,
            "value": 0.18110236220472442
          },
          {
            "number": 7,
            "ticks": 11472,
            "time": 47.8,
            "value": 0.1732283464566929
          },
          {
            "number": 7,
            "ticks": 11480,
            "time": 47.833333333333336,
            "value": 0.15748031496062992
          },
          {
            "number": 7,
            "ticks": 11488,
            "time": 47.86666666666667,
            "value": 0.14960629921259844
          },
          {
            "number": 7,
            "ticks": 11504,
            "time": 47.93333333333333,
            "value": 0.12598425196850394
          },
          {
            "number": 7,
            "ticks": 11520,
            "time": 48,
            "value": 0.7637795275590551
          },
          {
            "number": 7,
            "ticks": 21184,
            "time": 88.26666666666667,
            "value": 0.7559055118110236
          },
          {
            "number": 7,
            "ticks": 21192,
            "time": 88.3,
            "value": 0.7322834645669292
          },
          {
            "number": 7,
            "ticks": 21208,
            "time": 88.36666666666666,
            "value": 0.7165354330708661
          },
          {
            "number": 7,
            "ticks": 21216,
            "time": 88.4,
            "value": 0.7007874015748031
          },
          {
            "number": 7,
            "ticks": 21224,
            "time": 88.43333333333334,
            "value": 0.6771653543307087
          },
          {
            "number": 7,
            "ticks": 21232,
            "time": 88.46666666666667,
            "value": 0.6692913385826772
          },
          {
            "number": 7,
            "ticks": 21248,
            "time": 88.53333333333333,
            "value": 0.6535433070866141
          },
          {
            "number": 7,
            "ticks": 21256,
            "time": 88.56666666666666,
            "value": 0.6456692913385826
          },
          {
            "number": 7,
            "ticks": 21264,
            "time": 88.6,
            "value": 0.6220472440944882
          },
          {
            "number": 7,
            "ticks": 21272,
            "time": 88.63333333333334,
            "value": 0.5984251968503937
          },
          {
            "number": 7,
            "ticks": 21288,
            "time": 88.7,
            "value": 0.5826771653543307
          },
          {
            "number": 7,
            "ticks": 21304,
            "time": 88.76666666666667,
            "value": 0.5748031496062992
          },
          {
            "number": 7,
            "ticks": 21312,
            "time": 88.8,
            "value": 0.5669291338582677
          },
          {
            "number": 7,
            "ticks": 21320,
            "time": 88.83333333333333,
            "value": 0.5511811023622047
          },
          {
            "number": 7,
            "ticks": 21328,
            "time": 88.86666666666666,
            "value": 0.5433070866141733
          },
          {
            "number": 7,
            "ticks": 21336,
            "time": 88.9,
            "value": 0.5196850393700787
          },
          {
            "number": 7,
            "ticks": 21344,
            "time": 88.93333333333334,
            "value": 0.5039370078740157
          },
          {
            "number": 7,
            "ticks": 21352,
            "time": 88.96666666666667,
            "value": 0.49606299212598426
          },
          {
            "number": 7,
            "ticks": 21360,
            "time": 89,
            "value": 0.48031496062992124
          },
          {
            "number": 7,
            "ticks": 21376,
            "time": 89.06666666666666,
            "value": 0.4566929133858268
          },
          {
            "number": 7,
            "ticks": 21392,
            "time": 89.13333333333334,
            "value": 0.44881889763779526
          },
          {
            "number": 7,
            "ticks": 21400,
            "time": 89.16666666666667,
            "value": 0.4330708661417323
          },
          {
            "number": 7,
            "ticks": 21416,
            "time": 89.23333333333333,
            "value": 0.41732283464566927
          },
          {
            "number": 7,
            "ticks": 21424,
            "time": 89.26666666666667,
            "value": 0.4015748031496063
          },
          {
            "number": 7,
            "ticks": 21440,
            "time": 89.33333333333333,
            "value": 0.3937007874015748
          },
          {
            "number": 7,
            "ticks": 21448,
            "time": 89.36666666666666,
            "value": 0.3779527559055118
          },
          {
            "number": 7,
            "ticks": 21456,
            "time": 89.4,
            "value": 0.3700787401574803
          },
          {
            "number": 7,
            "ticks": 21464,
            "time": 89.43333333333334,
            "value": 0.3543307086614173
          },
          {
            "number": 7,
            "ticks": 21480,
            "time": 89.5,
            "value": 0.3464566929133858
          },
          {
            "number": 7,
            "ticks": 21488,
            "time": 89.53333333333333,
            "value": 0.33070866141732286
          },
          {
            "number": 7,
            "ticks": 21504,
            "time": 89.6,
            "value": 0.30708661417322836
          },
          {
            "number": 7,
            "ticks": 21520,
            "time": 89.66666666666667,
            "value": 0.2992125984251969
          },
          {
            "number": 7,
            "ticks": 21528,
            "time": 89.7,
            "value": 0.2755905511811024
          },
          {
            "number": 7,
            "ticks": 21536,
            "time": 89.73333333333333,
            "value": 0.2677165354330709
          },
          {
            "number": 7,
            "ticks": 21544,
            "time": 89.76666666666667,
            "value": 0.2440944881889764
          },
          {
            "number": 7,
            "ticks": 21552,
            "time": 89.8,
            "value": 0.2283464566929134
          },
          {
            "number": 7,
            "ticks": 21560,
            "time": 89.83333333333333,
            "value": 0.2047244094488189
          },
          {
            "number": 7,
            "ticks": 21576,
            "time": 89.9,
            "value": 0.1968503937007874
          },
          {
            "number": 7,
            "ticks": 21584,
            "time": 89.93333333333334,
            "value": 0.18110236220472442
          },
          {
            "number": 7,
            "ticks": 21592,
            "time": 89.96666666666667,
            "value": 0.15748031496062992
          },
          {
            "number": 7,
            "ticks": 21600,
            "time": 90,
            "value": 0.14173228346456693
          },
          {
            "number": 7,
            "ticks": 21616,
            "time": 90.06666666666666,
            "value": 0.7637795275590551
          },
          {
            "number": 7,
            "ticks": 26144,
            "time": 108.93333333333334,
            "value": 0.15748031496062992
          },
          {
            "number": 7,
            "ticks": 26184,
            "time": 109.1,
            "value": 0.1732283464566929
          },
          {
            "number": 7,
            "ticks": 26200,
            "time": 109.16666666666667,
            "value": 0.18110236220472442
          },
          {
            "number": 7,
            "ticks": 26208,
            "time": 109.2,
            "value": 0.1968503937007874
          },
          {
            "number": 7,
            "ticks": 26224,
            "time": 109.26666666666667,
            "value": 0.2047244094488189
          },
          {
            "number": 7,
            "ticks": 26232,
            "time": 109.3,
            "value": 0.2125984251968504
          },
          {
            "number": 7,
            "ticks": 26248,
            "time": 109.36666666666666,
            "value": 0.2283464566929134
          },
          {
            "number": 7,
            "ticks": 26264,
            "time": 109.43333333333334,
            "value": 0.23622047244094488
          },
          {
            "number": 7,
            "ticks": 26272,
            "time": 109.46666666666667,
            "value": 0.25196850393700787
          },
          {
            "number": 7,
            "ticks": 26288,
            "time": 109.53333333333333,
            "value": 0.25984251968503935
          },
          {
            "number": 7,
            "ticks": 26304,
            "time": 109.6,
            "value": 0.2755905511811024
          },
          {
            "number": 7,
            "ticks": 26312,
            "time": 109.63333333333334,
            "value": 0.2992125984251969
          },
          {
            "number": 7,
            "ticks": 26320,
            "time": 109.66666666666667,
            "value": 0.30708661417322836
          },
          {
            "number": 7,
            "ticks": 26336,
            "time": 109.73333333333333,
            "value": 0.31496062992125984
          },
          {
            "number": 7,
            "ticks": 26344,
            "time": 109.76666666666667,
            "value": 0.33070866141732286
          },
          {
            "number": 7,
            "ticks": 26360,
            "time": 109.83333333333333,
            "value": 0.33858267716535434
          },
          {
            "number": 7,
            "ticks": 26376,
            "time": 109.9,
            "value": 0.3543307086614173
          },
          {
            "number": 7,
            "ticks": 26384,
            "time": 109.93333333333334,
            "value": 0.36220472440944884
          },
          {
            "number": 7,
            "ticks": 26400,
            "time": 110,
            "value": 0.3779527559055118
          },
          {
            "number": 7,
            "ticks": 26416,
            "time": 110.06666666666666,
            "value": 0.3858267716535433
          },
          {
            "number": 7,
            "ticks": 26424,
            "time": 110.1,
            "value": 0.4094488188976378
          },
          {
            "number": 7,
            "ticks": 26448,
            "time": 110.2,
            "value": 0.41732283464566927
          },
          {
            "number": 7,
            "ticks": 26456,
            "time": 110.23333333333333,
            "value": 0.4330708661417323
          },
          {
            "number": 7,
            "ticks": 26464,
            "time": 110.26666666666667,
            "value": 0.4409448818897638
          },
          {
            "number": 7,
            "ticks": 26472,
            "time": 110.3,
            "value": 0.4566929133858268
          },
          {
            "number": 7,
            "ticks": 26496,
            "time": 110.4,
            "value": 0.4645669291338583
          },
          {
            "number": 7,
            "ticks": 26504,
            "time": 110.43333333333334,
            "value": 0.48031496062992124
          },
          {
            "number": 7,
            "ticks": 26520,
            "time": 110.5,
            "value": 0.4881889763779528
          },
          {
            "number": 7,
            "ticks": 26536,
            "time": 110.56666666666666,
            "value": 0.5039370078740157
          },
          {
            "number": 7,
            "ticks": 26552,
            "time": 110.63333333333334,
            "value": 0.5118110236220472
          },
          {
            "number": 7,
            "ticks": 26560,
            "time": 110.66666666666667,
            "value": 0.5196850393700787
          },
          {
            "number": 7,
            "ticks": 26576,
            "time": 110.73333333333333,
            "value": 0.5354330708661418
          },
          {
            "number": 7,
            "ticks": 26608,
            "time": 110.86666666666666,
            "value": 0.5590551181102362
          },
          {
            "number": 7,
            "ticks": 26624,
            "time": 110.93333333333334,
            "value": 0.5669291338582677
          },
          {
            "number": 7,
            "ticks": 26632,
            "time": 110.96666666666667,
            "value": 0.5984251968503937
          },
          {
            "number": 7,
            "ticks": 26656,
            "time": 111.06666666666666,
            "value": 0.6141732283464567
          },
          {
            "number": 7,
            "ticks": 26672,
            "time": 111.13333333333334,
            "value": 0.6377952755905512
          },
          {
            "number": 7,
            "ticks": 26688,
            "time": 111.2,
            "value": 0.6614173228346457
          },
          {
            "number": 7,
            "ticks": 26704,
            "time": 111.26666666666667,
            "value": 0.6692913385826772
          },
          {
            "number": 7,
            "ticks": 26712,
            "time": 111.3,
            "value": 0.6850393700787402
          },
          {
            "number": 7,
            "ticks": 26736,
            "time": 111.4,
            "value": 0.6929133858267716
          },
          {
            "number": 7,
            "ticks": 26744,
            "time": 111.43333333333334,
            "value": 0.7007874015748031
          },
          {
            "number": 7,
            "ticks": 26752,
            "time": 111.46666666666667,
            "value": 0.7165354330708661
          },
          {
            "number": 7,
            "ticks": 26760,
            "time": 111.5,
            "value": 0.7244094488188977
          },
          {
            "number": 7,
            "ticks": 26776,
            "time": 111.56666666666666,
            "value": 0.7401574803149606
          },
          {
            "number": 7,
            "ticks": 26792,
            "time": 111.63333333333334,
            "value": 0.7480314960629921
          },
          {
            "number": 7,
            "ticks": 26816,
            "time": 111.73333333333333,
            "value": 0.7637795275590551
          },
          {
            "number": 7,
            "ticks": 48856,
            "time": 203.56666666666666,
            "value": 0.7480314960629921
          },
          {
            "number": 7,
            "ticks": 48864,
            "time": 203.6,
            "value": 0.7401574803149606
          },
          {
            "number": 7,
            "ticks": 48872,
            "time": 203.63333333333333,
            "value": 0.7165354330708661
          },
          {
            "number": 7,
            "ticks": 48888,
            "time": 203.7,
            "value": 0.7007874015748031
          },
          {
            "number": 7,
            "ticks": 48896,
            "time": 203.73333333333332,
            "value": 0.6929133858267716
          },
          {
            "number": 7,
            "ticks": 48904,
            "time": 203.76666666666668,
            "value": 0.6850393700787402
          },
          {
            "number": 7,
            "ticks": 48920,
            "time": 203.83333333333334,
            "value": 0.6692913385826772
          },
          {
            "number": 7,
            "ticks": 48928,
            "time": 203.86666666666667,
            "value": 0.6614173228346457
          },
          {
            "number": 7,
            "ticks": 48944,
            "time": 203.93333333333334,
            "value": 0.6377952755905512
          },
          {
            "number": 7,
            "ticks": 48960,
            "time": 204,
            "value": 0.6220472440944882
          },
          {
            "number": 7,
            "ticks": 48968,
            "time": 204.03333333333333,
            "value": 0.6141732283464567
          },
          {
            "number": 7,
            "ticks": 48976,
            "time": 204.06666666666666,
            "value": 0.5984251968503937
          },
          {
            "number": 7,
            "ticks": 48992,
            "time": 204.13333333333333,
            "value": 0.5826771653543307
          },
          {
            "number": 7,
            "ticks": 49000,
            "time": 204.16666666666666,
            "value": 0.5669291338582677
          },
          {
            "number": 7,
            "ticks": 49008,
            "time": 204.2,
            "value": 0.5590551181102362
          },
          {
            "number": 7,
            "ticks": 49016,
            "time": 204.23333333333332,
            "value": 0.5433070866141733
          },
          {
            "number": 7,
            "ticks": 49024,
            "time": 204.26666666666668,
            "value": 0.5354330708661418
          },
          {
            "number": 7,
            "ticks": 49032,
            "time": 204.3,
            "value": 0.5196850393700787
          },
          {
            "number": 7,
            "ticks": 49048,
            "time": 204.36666666666667,
            "value": 0.5118110236220472
          },
          {
            "number": 7,
            "ticks": 49056,
            "time": 204.4,
            "value": 0.5039370078740157
          },
          {
            "number": 7,
            "ticks": 49072,
            "time": 204.46666666666667,
            "value": 0.4881889763779528
          },
          {
            "number": 7,
            "ticks": 49088,
            "time": 204.53333333333333,
            "value": 0.4645669291338583
          },
          {
            "number": 7,
            "ticks": 49096,
            "time": 204.56666666666666,
            "value": 0.4409448818897638
          },
          {
            "number": 7,
            "ticks": 49120,
            "time": 204.66666666666666,
            "value": 0.4330708661417323
          },
          {
            "number": 7,
            "ticks": 49128,
            "time": 204.7,
            "value": 0.41732283464566927
          },
          {
            "number": 7,
            "ticks": 49152,
            "time": 204.8,
            "value": 0.4015748031496063
          },
          {
            "number": 7,
            "ticks": 49176,
            "time": 204.9,
            "value": 0.3779527559055118
          },
          {
            "number": 7,
            "ticks": 49192,
            "time": 204.96666666666667,
            "value": 0.36220472440944884
          },
          {
            "number": 7,
            "ticks": 49200,
            "time": 205,
            "value": 0.3543307086614173
          },
          {
            "number": 7,
            "ticks": 49216,
            "time": 205.06666666666666,
            "value": 0.33858267716535434
          },
          {
            "number": 7,
            "ticks": 49232,
            "time": 205.13333333333333,
            "value": 0.33070866141732286
          },
          {
            "number": 7,
            "ticks": 49240,
            "time": 205.16666666666666,
            "value": 0.31496062992125984
          },
          {
            "number": 7,
            "ticks": 49248,
            "time": 205.2,
            "value": 0.30708661417322836
          },
          {
            "number": 7,
            "ticks": 49256,
            "time": 205.23333333333332,
            "value": 0.2992125984251969
          },
          {
            "number": 7,
            "ticks": 49264,
            "time": 205.26666666666668,
            "value": 0.28346456692913385
          },
          {
            "number": 7,
            "ticks": 49272,
            "time": 205.3,
            "value": 0.2755905511811024
          },
          {
            "number": 7,
            "ticks": 49280,
            "time": 205.33333333333334,
            "value": 0.25984251968503935
          },
          {
            "number": 7,
            "ticks": 49288,
            "time": 205.36666666666667,
            "value": 0.25196850393700787
          },
          {
            "number": 7,
            "ticks": 49296,
            "time": 205.4,
            "value": 0.23622047244094488
          },
          {
            "number": 7,
            "ticks": 49304,
            "time": 205.43333333333334,
            "value": 0.2283464566929134
          },
          {
            "number": 7,
            "ticks": 49312,
            "time": 205.46666666666667,
            "value": 0.2125984251968504
          },
          {
            "number": 7,
            "ticks": 49320,
            "time": 205.5,
            "value": 0.1968503937007874
          },
          {
            "number": 7,
            "ticks": 49336,
            "time": 205.56666666666666,
            "value": 0.14960629921259844
          },
          {
            "number": 7,
            "ticks": 49352,
            "time": 205.63333333333333,
            "value": 0.15748031496062992
          },
          {
            "number": 7,
            "ticks": 49360,
            "time": 205.66666666666666,
            "value": 0.11023622047244094
          },
          {
            "number": 7,
            "ticks": 49376,
            "time": 205.73333333333332,
            "value": 0.10236220472440945
          },
          {
            "number": 7,
            "ticks": 49384,
            "time": 205.76666666666668,
            "value": 0.07874015748031496
          },
          {
            "number": 7,
            "ticks": 49392,
            "time": 205.8,
            "value": 0.07086614173228346
          },
          {
            "number": 7,
            "ticks": 49400,
            "time": 205.83333333333334,
            "value": 0.047244094488188976
          },
          {
            "number": 7,
            "ticks": 49416,
            "time": 205.9,
            "value": 0.031496062992125984
          },
          {
            "number": 7,
            "ticks": 49424,
            "time": 205.93333333333334,
            "value": 0.023622047244094488
          },
          {
            "number": 7,
            "ticks": 49432,
            "time": 205.96666666666667,
            "value": 0
          },
          {
            "number": 7,
            "ticks": 49920,
            "time": 208,
            "value": 0.7637795275590551
          }
        ],
        "10": [
          {
            "number": 10,
            "ticks": 0,
            "time": 0,
            "value": 0.5039370078740157
          }
        ],
        "91": [
          {
            "number": 91,
            "ticks": 0,
            "time": 0,
            "value": 0.31496062992125984
          }
        ],
        "93": [
          {
            "number": 93,
            "ticks": 0,
            "time": 0,
            "value": 0
          }
        ]
      },
      "pitchBends": [],
      "instrument": {
        "family": "guitar",
        "number": 28,
        "name": "electric guitar (muted)"
      },
      "name": "",
      "notes": [
        {
          "duration": 4.216666666666667,
          "durationTicks": 1012,
          "midi": 43,
          "name": "G2",
          "ticks": 900,
          "time": 3.75,
          "velocity": 0.8346456692913385
        },
        {
          "duration": 4.233333333333333,
          "durationTicks": 1016,
          "midi": 58,
          "name": "A#3",
          "ticks": 900,
          "time": 3.75,
          "velocity": 0.8346456692913385
        },
        {
          "duration": 4.216666666666667,
          "durationTicks": 1012,
          "midi": 55,
          "name": "G3",
          "ticks": 900,
          "time": 3.75,
          "velocity": 0.8346456692913385
        },
        {
          "duration": 0.08333333333333215,
          "durationTicks": 20,
          "midi": 58,
          "name": "A#3",
          "ticks": 6600,
          "time": 27.5,
          "velocity": 0.6692913385826772
        },
        {
          "duration": 0.08333333333333215,
          "durationTicks": 20,
          "midi": 62,
          "name": "D4",
          "ticks": 6600,
          "time": 27.5,
          "velocity": 0.5039370078740157
        },
        {
          "duration": 0.08333333333333215,
          "durationTicks": 20,
          "midi": 55,
          "name": "G3",
          "ticks": 6600,
          "time": 27.5,
          "velocity": 0.6692913385826772
        },
        {
          "duration": 0.08333333333333215,
          "durationTicks": 20,
          "midi": 67,
          "name": "G4",
          "ticks": 6600,
          "time": 27.5,
          "velocity": 0.5039370078740157
        },
        {
          "duration": 0.08333333333333215,
          "durationTicks": 20,
          "midi": 50,
          "name": "D3",
          "ticks": 6600,
          "time": 27.5,
          "velocity": 0.6692913385826772
        },
        {
          "duration": 0.08333333333333215,
          "durationTicks": 20,
          "midi": 55,
          "name": "G3",
          "ticks": 6660,
          "time": 27.75,
          "velocity": 0.6692913385826772
        },
        {
          "duration": 0.08333333333333215,
          "durationTicks": 20,
          "midi": 67,
          "name": "G4",
          "ticks": 6660,
          "time": 27.75,
          "velocity": 0.5039370078740157
        },
        {
          "duration": 0.08333333333333215,
          "durationTicks": 20,
          "midi": 50,
          "name": "D3",
          "ticks": 6660,
          "time": 27.75,
          "velocity": 0.6692913385826772
        },
        {
          "duration": 0.08333333333333215,
          "durationTicks": 20,
          "midi": 58,
          "name": "A#3",
          "ticks": 6660,
          "time": 27.75,
          "velocity": 0.6692913385826772
        },
        {
          "duration": 0.08333333333333215,
          "durationTicks": 20,
          "midi": 62,
          "name": "D4",
          "ticks": 6660,
          "time": 27.75,
          "velocity": 0.5039370078740157
        },
        {
          "duration": 0.14999999999999858,
          "durationTicks": 36,
          "midi": 62,
          "name": "D4",
          "ticks": 6720,
          "time": 28,
          "velocity": 0.5039370078740157
        },
        {
          "duration": 0.14999999999999858,
          "durationTicks": 36,
          "midi": 67,
          "name": "G4",
          "ticks": 6720,
          "time": 28,
          "velocity": 0.5039370078740157
        },
        {
          "duration": 0.14999999999999858,
          "durationTicks": 36,
          "midi": 50,
          "name": "D3",
          "ticks": 6720,
          "time": 28,
          "velocity": 0.6692913385826772
        },
        {
          "duration": 0.14999999999999858,
          "durationTicks": 36,
          "midi": 55,
          "name": "G3",
          "ticks": 6720,
          "time": 28,
          "velocity": 0.6692913385826772
        },
        {
          "duration": 0.14999999999999858,
          "durationTicks": 36,
          "midi": 67,
          "name": "G4",
          "ticks": 6780,
          "time": 28.25,
          "velocity": 0.5039370078740157
        },
        {
          "duration": 0.14999999999999858,
          "durationTicks": 36,
          "midi": 50,
          "name": "D3",
          "ticks": 6780,
          "time": 28.25,
          "velocity": 0.6692913385826772
        },
        {
          "duration": 0.14999999999999858,
          "durationTicks": 36,
          "midi": 62,
          "name": "D4",
          "ticks": 6780,
          "time": 28.25,
          "velocity": 0.5039370078740157
        },
        {
          "duration": 0.14999999999999858,
          "durationTicks": 36,
          "midi": 55,
          "name": "G3",
          "ticks": 6780,
          "time": 28.25,
          "velocity": 0.6692913385826772
        },
        {
          "duration": 0.14999999999999858,
          "durationTicks": 36,
          "midi": 55,
          "name": "G3",
          "ticks": 6840,
          "time": 28.5,
          "velocity": 0.6692913385826772
        },
        {
          "duration": 0.14999999999999858,
          "durationTicks": 36,
          "midi": 67,
          "name": "G4",
          "ticks": 6840,
          "time": 28.5,
          "velocity": 0.5039370078740157
        },
        {
          "duration": 0.14999999999999858,
          "durationTicks": 36,
          "midi": 50,
          "name": "D3",
          "ticks": 6840,
          "time": 28.5,
          "velocity": 0.6692913385826772
        },
        {
          "duration": 0.14999999999999858,
          "durationTicks": 36,
          "midi": 62,
          "name": "D4",
          "ticks": 6840,
          "time": 28.5,
          "velocity": 0.5039370078740157
        },
        {
          "duration": 0.14999999999999858,
          "durationTicks": 36,
          "midi": 67,
          "name": "G4",
          "ticks": 6900,
          "time": 28.75,
          "velocity": 0.5039370078740157
        },
        {
          "duration": 0.14999999999999858,
          "durationTicks": 36,
          "midi": 55,
          "name": "G3",
          "ticks": 6900,
          "time": 28.75,
          "velocity": 0.6692913385826772
        },
        {
          "duration": 0.14999999999999858,
          "durationTicks": 36,
          "midi": 62,
          "name": "D4",
          "ticks": 6900,
          "time": 28.75,
          "velocity": 0.5039370078740157
        },
        {
          "duration": 0.14999999999999858,
          "durationTicks": 36,
          "midi": 50,
          "name": "D3",
          "ticks": 6900,
          "time": 28.75,
          "velocity": 0.6692913385826772
        },
        {
          "duration": 0.14999999999999858,
          "durationTicks": 36,
          "midi": 62,
          "name": "D4",
          "ticks": 6960,
          "time": 29,
          "velocity": 0.5039370078740157
        },
        {
          "duration": 0.14999999999999858,
          "durationTicks": 36,
          "midi": 55,
          "name": "G3",
          "ticks": 6960,
          "time": 29,
          "velocity": 0.6692913385826772
        },
        {
          "duration": 0.14999999999999858,
          "durationTicks": 36,
          "midi": 50,
          "name": "D3",
          "ticks": 6960,
          "time": 29,
          "velocity": 0.6692913385826772
        },
        {
          "duration": 0.14999999999999858,
          "durationTicks": 36,
          "midi": 67,
          "name": "G4",
          "ticks": 6960,
          "time": 29,
          "velocity": 0.5039370078740157
        },
        {
          "duration": 0.14999999999999858,
          "durationTicks": 36,
          "midi": 67,
          "name": "G4",
          "ticks": 7020,
          "time": 29.25,
          "velocity": 0.5039370078740157
        },
        {
          "duration": 0.14999999999999858,
          "durationTicks": 36,
          "midi": 55,
          "name": "G3",
          "ticks": 7020,
          "time": 29.25,
          "velocity": 0.6692913385826772
        },
        {
          "duration": 0.14999999999999858,
          "durationTicks": 36,
          "midi": 62,
          "name": "D4",
          "ticks": 7020,
          "time": 29.25,
          "velocity": 0.5039370078740157
        },
        {
          "duration": 0.14999999999999858,
          "durationTicks": 36,
          "midi": 50,
          "name": "D3",
          "ticks": 7020,
          "time": 29.25,
          "velocity": 0.6692913385826772
        },
        {
          "duration": 0.14999999999999858,
          "durationTicks": 36,
          "midi": 50,
          "name": "D3",
          "ticks": 7080,
          "time": 29.5,
          "velocity": 0.6692913385826772
        },
        {
          "duration": 0.14999999999999858,
          "durationTicks": 36,
          "midi": 62,
          "name": "D4",
          "ticks": 7080,
          "time": 29.5,
          "velocity": 0.5039370078740157
        },
        {
          "duration": 0.14999999999999858,
          "durationTicks": 36,
          "midi": 55,
          "name": "G3",
          "ticks": 7080,
          "time": 29.5,
          "velocity": 0.6692913385826772
        },
        {
          "duration": 0.14999999999999858,
          "durationTicks": 36,
          "midi": 67,
          "name": "G4",
          "ticks": 7080,
          "time": 29.5,
          "velocity": 0.5039370078740157
        },
        {
          "duration": 0.14999999999999858,
          "durationTicks": 36,
          "midi": 62,
          "name": "D4",
          "ticks": 7140,
          "time": 29.75,
          "velocity": 0.5039370078740157
        },
        {
          "duration": 0.14999999999999858,
          "durationTicks": 36,
          "midi": 55,
          "name": "G3",
          "ticks": 7140,
          "time": 29.75,
          "velocity": 0.6692913385826772
        },
        {
          "duration": 0.14999999999999858,
          "durationTicks": 36,
          "midi": 67,
          "name": "G4",
          "ticks": 7140,
          "time": 29.75,
          "velocity": 0.5039370078740157
        },
        {
          "duration": 0.14999999999999858,
          "durationTicks": 36,
          "midi": 50,
          "name": "D3",
          "ticks": 7140,
          "time": 29.75,
          "velocity": 0.6692913385826772
        },
        {
          "duration": 0.14999999999999858,
          "durationTicks": 36,
          "midi": 70,
          "name": "A#4",
          "ticks": 7200,
          "time": 30,
          "velocity": 0.5039370078740157
        },
        {
          "duration": 0.14999999999999858,
          "durationTicks": 36,
          "midi": 53,
          "name": "F3",
          "ticks": 7200,
          "time": 30,
          "velocity": 0.6692913385826772
        },
        {
          "duration": 0.14999999999999858,
          "durationTicks": 36,
          "midi": 58,
          "name": "A#3",
          "ticks": 7200,
          "time": 30,
          "velocity": 0.6692913385826772
        },
        {
          "duration": 0.14999999999999858,
          "durationTicks": 36,
          "midi": 65,
          "name": "F4",
          "ticks": 7200,
          "time": 30,
          "velocity": 0.5039370078740157
        },
        {
          "duration": 0.14999999999999858,
          "durationTicks": 36,
          "midi": 70,
          "name": "A#4",
          "ticks": 7260,
          "time": 30.25,
          "velocity": 0.5039370078740157
        },
        {
          "duration": 0.14999999999999858,
          "durationTicks": 36,
          "midi": 53,
          "name": "F3",
          "ticks": 7260,
          "time": 30.25,
          "velocity": 0.6692913385826772
        },
        {
          "duration": 0.14999999999999858,
          "durationTicks": 36,
          "midi": 58,
          "name": "A#3",
          "ticks": 7260,
          "time": 30.25,
          "velocity": 0.6692913385826772
        },
        {
          "duration": 0.14999999999999858,
          "durationTicks": 36,
          "midi": 65,
          "name": "F4",
          "ticks": 7260,
          "time": 30.25,
          "velocity": 0.5039370078740157
        },
        {
          "duration": 0.14999999999999858,
          "durationTicks": 36,
          "midi": 53,
          "name": "F3",
          "ticks": 7320,
          "time": 30.5,
          "velocity": 0.6692913385826772
        },
        {
          "duration": 0.14999999999999858,
          "durationTicks": 36,
          "midi": 58,
          "name": "A#3",
          "ticks": 7320,
          "time": 30.5,
          "velocity": 0.6692913385826772
        },
        {
          "duration": 0.14999999999999858,
          "durationTicks": 36,
          "midi": 65,
          "name": "F4",
          "ticks": 7320,
          "time": 30.5,
          "velocity": 0.5039370078740157
        },
        {
          "duration": 0.14999999999999858,
          "durationTicks": 36,
          "midi": 70,
          "name": "A#4",
          "ticks": 7320,
          "time": 30.5,
          "velocity": 0.5039370078740157
        },
        {
          "duration": 0.14999999999999858,
          "durationTicks": 36,
          "midi": 65,
          "name": "F4",
          "ticks": 7380,
          "time": 30.75,
          "velocity": 0.5039370078740157
        },
        {
          "duration": 0.14999999999999858,
          "durationTicks": 36,
          "midi": 58,
          "name": "A#3",
          "ticks": 7380,
          "time": 30.75,
          "velocity": 0.6692913385826772
        },
        {
          "duration": 0.14999999999999858,
          "durationTicks": 36,
          "midi": 53,
          "name": "F3",
          "ticks": 7380,
          "time": 30.75,
          "velocity": 0.6692913385826772
        },
        {
          "duration": 0.14999999999999858,
          "durationTicks": 36,
          "midi": 70,
          "name": "A#4",
          "ticks": 7380,
          "time": 30.75,
          "velocity": 0.5039370078740157
        },
        {
          "duration": 0.14999999999999858,
          "durationTicks": 36,
          "midi": 70,
          "name": "A#4",
          "ticks": 7440,
          "time": 31,
          "velocity": 0.5039370078740157
        },
        {
          "duration": 0.14999999999999858,
          "durationTicks": 36,
          "midi": 53,
          "name": "F3",
          "ticks": 7440,
          "time": 31,
          "velocity": 0.6692913385826772
        },
        {
          "duration": 0.14999999999999858,
          "durationTicks": 36,
          "midi": 58,
          "name": "A#3",
          "ticks": 7440,
          "time": 31,
          "velocity": 0.6692913385826772
        },
        {
          "duration": 0.14999999999999858,
          "durationTicks": 36,
          "midi": 65,
          "name": "F4",
          "ticks": 7440,
          "time": 31,
          "velocity": 0.5039370078740157
        },
        {
          "duration": 0.14999999999999858,
          "durationTicks": 36,
          "midi": 65,
          "name": "F4",
          "ticks": 7500,
          "time": 31.25,
          "velocity": 0.5039370078740157
        },
        {
          "duration": 0.14999999999999858,
          "durationTicks": 36,
          "midi": 70,
          "name": "A#4",
          "ticks": 7500,
          "time": 31.25,
          "velocity": 0.5039370078740157
        },
        {
          "duration": 0.14999999999999858,
          "durationTicks": 36,
          "midi": 53,
          "name": "F3",
          "ticks": 7500,
          "time": 31.25,
          "velocity": 0.6692913385826772
        },
        {
          "duration": 0.14999999999999858,
          "durationTicks": 36,
          "midi": 58,
          "name": "A#3",
          "ticks": 7500,
          "time": 31.25,
          "velocity": 0.6692913385826772
        },
        {
          "duration": 0.14999999999999858,
          "durationTicks": 36,
          "midi": 65,
          "name": "F4",
          "ticks": 7560,
          "time": 31.5,
          "velocity": 0.5039370078740157
        },
        {
          "duration": 0.14999999999999858,
          "durationTicks": 36,
          "midi": 58,
          "name": "A#3",
          "ticks": 7560,
          "time": 31.5,
          "velocity": 0.6692913385826772
        },
        {
          "duration": 0.14999999999999858,
          "durationTicks": 36,
          "midi": 70,
          "name": "A#4",
          "ticks": 7560,
          "time": 31.5,
          "velocity": 0.5039370078740157
        },
        {
          "duration": 0.14999999999999858,
          "durationTicks": 36,
          "midi": 53,
          "name": "F3",
          "ticks": 7560,
          "time": 31.5,
          "velocity": 0.6692913385826772
        },
        {
          "duration": 0.14999999999999858,
          "durationTicks": 36,
          "midi": 58,
          "name": "A#3",
          "ticks": 7620,
          "time": 31.75,
          "velocity": 0.6692913385826772
        },
        {
          "duration": 0.14999999999999858,
          "durationTicks": 36,
          "midi": 65,
          "name": "F4",
          "ticks": 7620,
          "time": 31.75,
          "velocity": 0.5039370078740157
        },
        {
          "duration": 0.14999999999999858,
          "durationTicks": 36,
          "midi": 70,
          "name": "A#4",
          "ticks": 7620,
          "time": 31.75,
          "velocity": 0.5039370078740157
        },
        {
          "duration": 0.14999999999999858,
          "durationTicks": 36,
          "midi": 53,
          "name": "F3",
          "ticks": 7620,
          "time": 31.75,
          "velocity": 0.6692913385826772
        },
        {
          "duration": 0.14999999999999858,
          "durationTicks": 36,
          "midi": 60,
          "name": "C4",
          "ticks": 7680,
          "time": 32,
          "velocity": 0.5039370078740157
        },
        {
          "duration": 0.14999999999999858,
          "durationTicks": 36,
          "midi": 48,
          "name": "C3",
          "ticks": 7680,
          "time": 32,
          "velocity": 0.6692913385826772
        },
        {
          "duration": 0.14999999999999858,
          "durationTicks": 36,
          "midi": 65,
          "name": "F4",
          "ticks": 7680,
          "time": 32,
          "velocity": 0.5039370078740157
        },
        {
          "duration": 0.14999999999999858,
          "durationTicks": 36,
          "midi": 53,
          "name": "F3",
          "ticks": 7680,
          "time": 32,
          "velocity": 0.6692913385826772
        },
        {
          "duration": 0.14999999999999858,
          "durationTicks": 36,
          "midi": 48,
          "name": "C3",
          "ticks": 7740,
          "time": 32.25,
          "velocity": 0.6692913385826772
        },
        {
          "duration": 0.14999999999999858,
          "durationTicks": 36,
          "midi": 60,
          "name": "C4",
          "ticks": 7740,
          "time": 32.25,
          "velocity": 0.5039370078740157
        },
        {
          "duration": 0.14999999999999858,
          "durationTicks": 36,
          "midi": 65,
          "name": "F4",
          "ticks": 7740,
          "time": 32.25,
          "velocity": 0.5039370078740157
        },
        {
          "duration": 0.14999999999999858,
          "durationTicks": 36,
          "midi": 53,
          "name": "F3",
          "ticks": 7740,
          "time": 32.25,
          "velocity": 0.6692913385826772
        },
        {
          "duration": 0.14999999999999858,
          "durationTicks": 36,
          "midi": 60,
          "name": "C4",
          "ticks": 7800,
          "time": 32.5,
          "velocity": 0.5039370078740157
        },
        {
          "duration": 0.14999999999999858,
          "durationTicks": 36,
          "midi": 65,
          "name": "F4",
          "ticks": 7800,
          "time": 32.5,
          "velocity": 0.5039370078740157
        },
        {
          "duration": 0.14999999999999858,
          "durationTicks": 36,
          "midi": 53,
          "name": "F3",
          "ticks": 7800,
          "time": 32.5,
          "velocity": 0.6692913385826772
        },
        {
          "duration": 0.14999999999999858,
          "durationTicks": 36,
          "midi": 48,
          "name": "C3",
          "ticks": 7800,
          "time": 32.5,
          "velocity": 0.6692913385826772
        },
        {
          "duration": 0.14999999999999858,
          "durationTicks": 36,
          "midi": 65,
          "name": "F4",
          "ticks": 7860,
          "time": 32.75,
          "velocity": 0.5039370078740157
        },
        {
          "duration": 0.14999999999999858,
          "durationTicks": 36,
          "midi": 53,
          "name": "F3",
          "ticks": 7860,
          "time": 32.75,
          "velocity": 0.6692913385826772
        },
        {
          "duration": 0.14999999999999858,
          "durationTicks": 36,
          "midi": 60,
          "name": "C4",
          "ticks": 7860,
          "time": 32.75,
          "velocity": 0.5039370078740157
        },
        {
          "duration": 0.14999999999999858,
          "durationTicks": 36,
          "midi": 48,
          "name": "C3",
          "ticks": 7860,
          "time": 32.75,
          "velocity": 0.6692913385826772
        },
        {
          "duration": 0.14999999999999858,
          "durationTicks": 36,
          "midi": 53,
          "name": "F3",
          "ticks": 7920,
          "time": 33,
          "velocity": 0.6692913385826772
        },
        {
          "duration": 0.14999999999999858,
          "durationTicks": 36,
          "midi": 65,
          "name": "F4",
          "ticks": 7920,
          "time": 33,
          "velocity": 0.5039370078740157
        },
        {
          "duration": 0.14999999999999858,
          "durationTicks": 36,
          "midi": 48,
          "name": "C3",
          "ticks": 7920,
          "time": 33,
          "velocity": 0.6692913385826772
        },
        {
          "duration": 0.14999999999999858,
          "durationTicks": 36,
          "midi": 60,
          "name": "C4",
          "ticks": 7920,
          "time": 33,
          "velocity": 0.5039370078740157
        },
        {
          "duration": 0.14999999999999858,
          "durationTicks": 36,
          "midi": 65,
          "name": "F4",
          "ticks": 7980,
          "time": 33.25,
          "velocity": 0.5039370078740157
        },
        {
          "duration": 0.14999999999999858,
          "durationTicks": 36,
          "midi": 60,
          "name": "C4",
          "ticks": 7980,
          "time": 33.25,
          "velocity": 0.5039370078740157
        },
        {
          "duration": 0.14999999999999858,
          "durationTicks": 36,
          "midi": 48,
          "name": "C3",
          "ticks": 7980,
          "time": 33.25,
          "velocity": 0.6692913385826772
        },
        {
          "duration": 0.14999999999999858,
          "durationTicks": 36,
          "midi": 53,
          "name": "F3",
          "ticks": 7980,
          "time": 33.25,
          "velocity": 0.6692913385826772
        },
        {
          "duration": 0.14999999999999858,
          "durationTicks": 36,
          "midi": 65,
          "name": "F4",
          "ticks": 8040,
          "time": 33.5,
          "velocity": 0.5039370078740157
        },
        {
          "duration": 0.14999999999999858,
          "durationTicks": 36,
          "midi": 48,
          "name": "C3",
          "ticks": 8040,
          "time": 33.5,
          "velocity": 0.6692913385826772
        },
        {
          "duration": 0.14999999999999858,
          "durationTicks": 36,
          "midi": 60,
          "name": "C4",
          "ticks": 8040,
          "time": 33.5,
          "velocity": 0.5039370078740157
        },
        {
          "duration": 0.14999999999999858,
          "durationTicks": 36,
          "midi": 53,
          "name": "F3",
          "ticks": 8040,
          "time": 33.5,
          "velocity": 0.6692913385826772
        },
        {
          "duration": 0.14999999999999858,
          "durationTicks": 36,
          "midi": 53,
          "name": "F3",
          "ticks": 8100,
          "time": 33.75,
          "velocity": 0.6692913385826772
        },
        {
          "duration": 0.14999999999999858,
          "durationTicks": 36,
          "midi": 65,
          "name": "F4",
          "ticks": 8100,
          "time": 33.75,
          "velocity": 0.5039370078740157
        },
        {
          "duration": 0.14999999999999858,
          "durationTicks": 36,
          "midi": 60,
          "name": "C4",
          "ticks": 8100,
          "time": 33.75,
          "velocity": 0.5039370078740157
        },
        {
          "duration": 0.14999999999999858,
          "durationTicks": 36,
          "midi": 48,
          "name": "C3",
          "ticks": 8100,
          "time": 33.75,
          "velocity": 0.6692913385826772
        },
        {
          "duration": 0.14999999999999858,
          "durationTicks": 36,
          "midi": 48,
          "name": "C3",
          "ticks": 8160,
          "time": 34,
          "velocity": 0.6692913385826772
        },
        {
          "duration": 0.14999999999999858,
          "durationTicks": 36,
          "midi": 67,
          "name": "G4",
          "ticks": 8160,
          "time": 34,
          "velocity": 0.5039370078740157
        },
        {
          "duration": 0.14999999999999858,
          "durationTicks": 36,
          "midi": 55,
          "name": "G3",
          "ticks": 8160,
          "time": 34,
          "velocity": 0.6692913385826772
        },
        {
          "duration": 0.14999999999999858,
          "durationTicks": 36,
          "midi": 60,
          "name": "C4",
          "ticks": 8160,
          "time": 34,
          "velocity": 0.5039370078740157
        },
        {
          "duration": 0.14999999999999858,
          "durationTicks": 36,
          "midi": 55,
          "name": "G3",
          "ticks": 8220,
          "time": 34.25,
          "velocity": 0.6692913385826772
        },
        {
          "duration": 0.14999999999999858,
          "durationTicks": 36,
          "midi": 67,
          "name": "G4",
          "ticks": 8220,
          "time": 34.25,
          "velocity": 0.5039370078740157
        },
        {
          "duration": 0.14999999999999858,
          "durationTicks": 36,
          "midi": 60,
          "name": "C4",
          "ticks": 8220,
          "time": 34.25,
          "velocity": 0.5039370078740157
        },
        {
          "duration": 0.14999999999999858,
          "durationTicks": 36,
          "midi": 48,
          "name": "C3",
          "ticks": 8220,
          "time": 34.25,
          "velocity": 0.6692913385826772
        },
        {
          "duration": 0.14999999999999858,
          "durationTicks": 36,
          "midi": 67,
          "name": "G4",
          "ticks": 8280,
          "time": 34.5,
          "velocity": 0.5039370078740157
        },
        {
          "duration": 0.14999999999999858,
          "durationTicks": 36,
          "midi": 55,
          "name": "G3",
          "ticks": 8280,
          "time": 34.5,
          "velocity": 0.6692913385826772
        },
        {
          "duration": 0.14999999999999858,
          "durationTicks": 36,
          "midi": 48,
          "name": "C3",
          "ticks": 8280,
          "time": 34.5,
          "velocity": 0.6692913385826772
        },
        {
          "duration": 0.14999999999999858,
          "durationTicks": 36,
          "midi": 60,
          "name": "C4",
          "ticks": 8280,
          "time": 34.5,
          "velocity": 0.5039370078740157
        },
        {
          "duration": 0.14999999999999858,
          "durationTicks": 36,
          "midi": 60,
          "name": "C4",
          "ticks": 8340,
          "time": 34.75,
          "velocity": 0.5039370078740157
        },
        {
          "duration": 0.14999999999999858,
          "durationTicks": 36,
          "midi": 48,
          "name": "C3",
          "ticks": 8340,
          "time": 34.75,
          "velocity": 0.6692913385826772
        },
        {
          "duration": 0.14999999999999858,
          "durationTicks": 36,
          "midi": 55,
          "name": "G3",
          "ticks": 8340,
          "time": 34.75,
          "velocity": 0.6692913385826772
        },
        {
          "duration": 0.14999999999999858,
          "durationTicks": 36,
          "midi": 67,
          "name": "G4",
          "ticks": 8340,
          "time": 34.75,
          "velocity": 0.5039370078740157
        },
        {
          "duration": 0.14999999999999858,
          "durationTicks": 36,
          "midi": 60,
          "name": "C4",
          "ticks": 8400,
          "time": 35,
          "velocity": 0.5039370078740157
        },
        {
          "duration": 0.14999999999999858,
          "durationTicks": 36,
          "midi": 48,
          "name": "C3",
          "ticks": 8400,
          "time": 35,
          "velocity": 0.6692913385826772
        },
        {
          "duration": 0.14999999999999858,
          "durationTicks": 36,
          "midi": 55,
          "name": "G3",
          "ticks": 8400,
          "time": 35,
          "velocity": 0.6692913385826772
        },
        {
          "duration": 0.14999999999999858,
          "durationTicks": 36,
          "midi": 67,
          "name": "G4",
          "ticks": 8400,
          "time": 35,
          "velocity": 0.5039370078740157
        },
        {
          "duration": 0.14999999999999858,
          "durationTicks": 36,
          "midi": 67,
          "name": "G4",
          "ticks": 8460,
          "time": 35.25,
          "velocity": 0.5039370078740157
        },
        {
          "duration": 0.14999999999999858,
          "durationTicks": 36,
          "midi": 60,
          "name": "C4",
          "ticks": 8460,
          "time": 35.25,
          "velocity": 0.5039370078740157
        },
        {
          "duration": 0.14999999999999858,
          "durationTicks": 36,
          "midi": 55,
          "name": "G3",
          "ticks": 8460,
          "time": 35.25,
          "velocity": 0.6692913385826772
        },
        {
          "duration": 0.14999999999999858,
          "durationTicks": 36,
          "midi": 48,
          "name": "C3",
          "ticks": 8460,
          "time": 35.25,
          "velocity": 0.6692913385826772
        },
        {
          "duration": 0.14999999999999858,
          "durationTicks": 36,
          "midi": 48,
          "name": "C3",
          "ticks": 8520,
          "time": 35.5,
          "velocity": 0.6692913385826772
        },
        {
          "duration": 0.14999999999999858,
          "durationTicks": 36,
          "midi": 60,
          "name": "C4",
          "ticks": 8520,
          "time": 35.5,
          "velocity": 0.5039370078740157
        },
        {
          "duration": 0.14999999999999858,
          "durationTicks": 36,
          "midi": 67,
          "name": "G4",
          "ticks": 8520,
          "time": 35.5,
          "velocity": 0.5039370078740157
        },
        {
          "duration": 0.14999999999999858,
          "durationTicks": 36,
          "midi": 55,
          "name": "G3",
          "ticks": 8520,
          "time": 35.5,
          "velocity": 0.6692913385826772
        },
        {
          "duration": 0.14999999999999858,
          "durationTicks": 36,
          "midi": 67,
          "name": "G4",
          "ticks": 8580,
          "time": 35.75,
          "velocity": 0.5039370078740157
        },
        {
          "duration": 0.14999999999999858,
          "durationTicks": 36,
          "midi": 55,
          "name": "G3",
          "ticks": 8580,
          "time": 35.75,
          "velocity": 0.6692913385826772
        },
        {
          "duration": 0.14999999999999858,
          "durationTicks": 36,
          "midi": 60,
          "name": "C4",
          "ticks": 8580,
          "time": 35.75,
          "velocity": 0.5039370078740157
        },
        {
          "duration": 0.14999999999999858,
          "durationTicks": 36,
          "midi": 48,
          "name": "C3",
          "ticks": 8580,
          "time": 35.75,
          "velocity": 0.6692913385826772
        },
        {
          "duration": 0.14999999999999858,
          "durationTicks": 36,
          "midi": 55,
          "name": "G3",
          "ticks": 8640,
          "time": 36,
          "velocity": 0.6692913385826772
        },
        {
          "duration": 0.14999999999999858,
          "durationTicks": 36,
          "midi": 62,
          "name": "D4",
          "ticks": 8640,
          "time": 36,
          "velocity": 0.5039370078740157
        },
        {
          "duration": 0.14999999999999858,
          "durationTicks": 36,
          "midi": 50,
          "name": "D3",
          "ticks": 8640,
          "time": 36,
          "velocity": 0.6692913385826772
        },
        {
          "duration": 0.14999999999999858,
          "durationTicks": 36,
          "midi": 67,
          "name": "G4",
          "ticks": 8640,
          "time": 36,
          "velocity": 0.5039370078740157
        },
        {
          "duration": 0.14999999999999858,
          "durationTicks": 36,
          "midi": 62,
          "name": "D4",
          "ticks": 8700,
          "time": 36.25,
          "velocity": 0.5039370078740157
        },
        {
          "duration": 0.14999999999999858,
          "durationTicks": 36,
          "midi": 67,
          "name": "G4",
          "ticks": 8700,
          "time": 36.25,
          "velocity": 0.5039370078740157
        },
        {
          "duration": 0.14999999999999858,
          "durationTicks": 36,
          "midi": 55,
          "name": "G3",
          "ticks": 8700,
          "time": 36.25,
          "velocity": 0.6692913385826772
        },
        {
          "duration": 0.14999999999999858,
          "durationTicks": 36,
          "midi": 50,
          "name": "D3",
          "ticks": 8700,
          "time": 36.25,
          "velocity": 0.6692913385826772
        },
        {
          "duration": 0.14999999999999858,
          "durationTicks": 36,
          "midi": 67,
          "name": "G4",
          "ticks": 8760,
          "time": 36.5,
          "velocity": 0.5039370078740157
        },
        {
          "duration": 0.14999999999999858,
          "durationTicks": 36,
          "midi": 55,
          "name": "G3",
          "ticks": 8760,
          "time": 36.5,
          "velocity": 0.6692913385826772
        },
        {
          "duration": 0.14999999999999858,
          "durationTicks": 36,
          "midi": 62,
          "name": "D4",
          "ticks": 8760,
          "time": 36.5,
          "velocity": 0.5039370078740157
        },
        {
          "duration": 0.14999999999999858,
          "durationTicks": 36,
          "midi": 50,
          "name": "D3",
          "ticks": 8760,
          "time": 36.5,
          "velocity": 0.6692913385826772
        },
        {
          "duration": 0.14999999999999858,
          "durationTicks": 36,
          "midi": 67,
          "name": "G4",
          "ticks": 8820,
          "time": 36.75,
          "velocity": 0.5039370078740157
        },
        {
          "duration": 0.14999999999999858,
          "durationTicks": 36,
          "midi": 55,
          "name": "G3",
          "ticks": 8820,
          "time": 36.75,
          "velocity": 0.6692913385826772
        },
        {
          "duration": 0.14999999999999858,
          "durationTicks": 36,
          "midi": 62,
          "name": "D4",
          "ticks": 8820,
          "time": 36.75,
          "velocity": 0.5039370078740157
        },
        {
          "duration": 0.14999999999999858,
          "durationTicks": 36,
          "midi": 50,
          "name": "D3",
          "ticks": 8820,
          "time": 36.75,
          "velocity": 0.6692913385826772
        },
        {
          "duration": 0.14999999999999858,
          "durationTicks": 36,
          "midi": 62,
          "name": "D4",
          "ticks": 8880,
          "time": 37,
          "velocity": 0.5039370078740157
        },
        {
          "duration": 0.14999999999999858,
          "durationTicks": 36,
          "midi": 50,
          "name": "D3",
          "ticks": 8880,
          "time": 37,
          "velocity": 0.6692913385826772
        },
        {
          "duration": 0.14999999999999858,
          "durationTicks": 36,
          "midi": 67,
          "name": "G4",
          "ticks": 8880,
          "time": 37,
          "velocity": 0.5039370078740157
        },
        {
          "duration": 0.14999999999999858,
          "durationTicks": 36,
          "midi": 55,
          "name": "G3",
          "ticks": 8880,
          "time": 37,
          "velocity": 0.6692913385826772
        },
        {
          "duration": 0.14999999999999858,
          "durationTicks": 36,
          "midi": 50,
          "name": "D3",
          "ticks": 8940,
          "time": 37.25,
          "velocity": 0.6692913385826772
        },
        {
          "duration": 0.14999999999999858,
          "durationTicks": 36,
          "midi": 67,
          "name": "G4",
          "ticks": 8940,
          "time": 37.25,
          "velocity": 0.5039370078740157
        },
        {
          "duration": 0.14999999999999858,
          "durationTicks": 36,
          "midi": 55,
          "name": "G3",
          "ticks": 8940,
          "time": 37.25,
          "velocity": 0.6692913385826772
        },
        {
          "duration": 0.14999999999999858,
          "durationTicks": 36,
          "midi": 62,
          "name": "D4",
          "ticks": 8940,
          "time": 37.25,
          "velocity": 0.5039370078740157
        },
        {
          "duration": 0.14999999999999858,
          "durationTicks": 36,
          "midi": 55,
          "name": "G3",
          "ticks": 9000,
          "time": 37.5,
          "velocity": 0.6692913385826772
        },
        {
          "duration": 0.14999999999999858,
          "durationTicks": 36,
          "midi": 50,
          "name": "D3",
          "ticks": 9000,
          "time": 37.5,
          "velocity": 0.6692913385826772
        },
        {
          "duration": 0.14999999999999858,
          "durationTicks": 36,
          "midi": 67,
          "name": "G4",
          "ticks": 9000,
          "time": 37.5,
          "velocity": 0.5039370078740157
        },
        {
          "duration": 0.14999999999999858,
          "durationTicks": 36,
          "midi": 62,
          "name": "D4",
          "ticks": 9000,
          "time": 37.5,
          "velocity": 0.5039370078740157
        },
        {
          "duration": 0.14999999999999858,
          "durationTicks": 36,
          "midi": 50,
          "name": "D3",
          "ticks": 9060,
          "time": 37.75,
          "velocity": 0.6692913385826772
        },
        {
          "duration": 0.14999999999999858,
          "durationTicks": 36,
          "midi": 55,
          "name": "G3",
          "ticks": 9060,
          "time": 37.75,
          "velocity": 0.6692913385826772
        },
        {
          "duration": 0.14999999999999858,
          "durationTicks": 36,
          "midi": 67,
          "name": "G4",
          "ticks": 9060,
          "time": 37.75,
          "velocity": 0.5039370078740157
        },
        {
          "duration": 0.14999999999999858,
          "durationTicks": 36,
          "midi": 62,
          "name": "D4",
          "ticks": 9060,
          "time": 37.75,
          "velocity": 0.5039370078740157
        },
        {
          "duration": 0.14999999999999858,
          "durationTicks": 36,
          "midi": 58,
          "name": "A#3",
          "ticks": 9120,
          "time": 38,
          "velocity": 0.6692913385826772
        },
        {
          "duration": 0.14999999999999858,
          "durationTicks": 36,
          "midi": 53,
          "name": "F3",
          "ticks": 9120,
          "time": 38,
          "velocity": 0.6692913385826772
        },
        {
          "duration": 0.14999999999999858,
          "durationTicks": 36,
          "midi": 70,
          "name": "A#4",
          "ticks": 9120,
          "time": 38,
          "velocity": 0.5039370078740157
        },
        {
          "duration": 0.14999999999999858,
          "durationTicks": 36,
          "midi": 65,
          "name": "F4",
          "ticks": 9120,
          "time": 38,
          "velocity": 0.5039370078740157
        },
        {
          "duration": 0.14999999999999858,
          "durationTicks": 36,
          "midi": 70,
          "name": "A#4",
          "ticks": 9180,
          "time": 38.25,
          "velocity": 0.5039370078740157
        },
        {
          "duration": 0.14999999999999858,
          "durationTicks": 36,
          "midi": 53,
          "name": "F3",
          "ticks": 9180,
          "time": 38.25,
          "velocity": 0.6692913385826772
        },
        {
          "duration": 0.14999999999999858,
          "durationTicks": 36,
          "midi": 58,
          "name": "A#3",
          "ticks": 9180,
          "time": 38.25,
          "velocity": 0.6692913385826772
        },
        {
          "duration": 0.14999999999999858,
          "durationTicks": 36,
          "midi": 65,
          "name": "F4",
          "ticks": 9180,
          "time": 38.25,
          "velocity": 0.5039370078740157
        },
        {
          "duration": 0.14999999999999858,
          "durationTicks": 36,
          "midi": 70,
          "name": "A#4",
          "ticks": 9240,
          "time": 38.5,
          "velocity": 0.5039370078740157
        },
        {
          "duration": 0.14999999999999858,
          "durationTicks": 36,
          "midi": 65,
          "name": "F4",
          "ticks": 9240,
          "time": 38.5,
          "velocity": 0.5039370078740157
        },
        {
          "duration": 0.14999999999999858,
          "durationTicks": 36,
          "midi": 58,
          "name": "A#3",
          "ticks": 9240,
          "time": 38.5,
          "velocity": 0.6692913385826772
        },
        {
          "duration": 0.14999999999999858,
          "durationTicks": 36,
          "midi": 53,
          "name": "F3",
          "ticks": 9240,
          "time": 38.5,
          "velocity": 0.6692913385826772
        },
        {
          "duration": 0.14999999999999858,
          "durationTicks": 36,
          "midi": 58,
          "name": "A#3",
          "ticks": 9300,
          "time": 38.75,
          "velocity": 0.6692913385826772
        },
        {
          "duration": 0.14999999999999858,
          "durationTicks": 36,
          "midi": 70,
          "name": "A#4",
          "ticks": 9300,
          "time": 38.75,
          "velocity": 0.5039370078740157
        },
        {
          "duration": 0.14999999999999858,
          "durationTicks": 36,
          "midi": 53,
          "name": "F3",
          "ticks": 9300,
          "time": 38.75,
          "velocity": 0.6692913385826772
        },
        {
          "duration": 0.14999999999999858,
          "durationTicks": 36,
          "midi": 65,
          "name": "F4",
          "ticks": 9300,
          "time": 38.75,
          "velocity": 0.5039370078740157
        },
        {
          "duration": 0.14999999999999858,
          "durationTicks": 36,
          "midi": 58,
          "name": "A#3",
          "ticks": 9360,
          "time": 39,
          "velocity": 0.6692913385826772
        },
        {
          "duration": 0.14999999999999858,
          "durationTicks": 36,
          "midi": 65,
          "name": "F4",
          "ticks": 9360,
          "time": 39,
          "velocity": 0.5039370078740157
        },
        {
          "duration": 0.14999999999999858,
          "durationTicks": 36,
          "midi": 70,
          "name": "A#4",
          "ticks": 9360,
          "time": 39,
          "velocity": 0.5039370078740157
        },
        {
          "duration": 0.14999999999999858,
          "durationTicks": 36,
          "midi": 53,
          "name": "F3",
          "ticks": 9360,
          "time": 39,
          "velocity": 0.6692913385826772
        },
        {
          "duration": 0.14999999999999858,
          "durationTicks": 36,
          "midi": 70,
          "name": "A#4",
          "ticks": 9420,
          "time": 39.25,
          "velocity": 0.5039370078740157
        },
        {
          "duration": 0.14999999999999858,
          "durationTicks": 36,
          "midi": 53,
          "name": "F3",
          "ticks": 9420,
          "time": 39.25,
          "velocity": 0.6692913385826772
        },
        {
          "duration": 0.14999999999999858,
          "durationTicks": 36,
          "midi": 58,
          "name": "A#3",
          "ticks": 9420,
          "time": 39.25,
          "velocity": 0.6692913385826772
        },
        {
          "duration": 0.14999999999999858,
          "durationTicks": 36,
          "midi": 65,
          "name": "F4",
          "ticks": 9420,
          "time": 39.25,
          "velocity": 0.5039370078740157
        },
        {
          "duration": 0.14999999999999858,
          "durationTicks": 36,
          "midi": 70,
          "name": "A#4",
          "ticks": 9480,
          "time": 39.5,
          "velocity": 0.5039370078740157
        },
        {
          "duration": 0.14999999999999858,
          "durationTicks": 36,
          "midi": 65,
          "name": "F4",
          "ticks": 9480,
          "time": 39.5,
          "velocity": 0.5039370078740157
        },
        {
          "duration": 0.14999999999999858,
          "durationTicks": 36,
          "midi": 53,
          "name": "F3",
          "ticks": 9480,
          "time": 39.5,
          "velocity": 0.6692913385826772
        },
        {
          "duration": 0.14999999999999858,
          "durationTicks": 36,
          "midi": 58,
          "name": "A#3",
          "ticks": 9480,
          "time": 39.5,
          "velocity": 0.6692913385826772
        },
        {
          "duration": 0.14999999999999858,
          "durationTicks": 36,
          "midi": 58,
          "name": "A#3",
          "ticks": 9540,
          "time": 39.75,
          "velocity": 0.6692913385826772
        },
        {
          "duration": 0.14999999999999858,
          "durationTicks": 36,
          "midi": 53,
          "name": "F3",
          "ticks": 9540,
          "time": 39.75,
          "velocity": 0.6692913385826772
        },
        {
          "duration": 0.14999999999999858,
          "durationTicks": 36,
          "midi": 65,
          "name": "F4",
          "ticks": 9540,
          "time": 39.75,
          "velocity": 0.5039370078740157
        },
        {
          "duration": 0.14999999999999858,
          "durationTicks": 36,
          "midi": 70,
          "name": "A#4",
          "ticks": 9540,
          "time": 39.75,
          "velocity": 0.5039370078740157
        },
        {
          "duration": 0.14999999999999858,
          "durationTicks": 36,
          "midi": 48,
          "name": "C3",
          "ticks": 9600,
          "time": 40,
          "velocity": 0.6692913385826772
        },
        {
          "duration": 0.14999999999999858,
          "durationTicks": 36,
          "midi": 53,
          "name": "F3",
          "ticks": 9600,
          "time": 40,
          "velocity": 0.6692913385826772
        },
        {
          "duration": 0.14999999999999858,
          "durationTicks": 36,
          "midi": 65,
          "name": "F4",
          "ticks": 9600,
          "time": 40,
          "velocity": 0.5039370078740157
        },
        {
          "duration": 0.14999999999999858,
          "durationTicks": 36,
          "midi": 60,
          "name": "C4",
          "ticks": 9600,
          "time": 40,
          "velocity": 0.5039370078740157
        },
        {
          "duration": 0.14999999999999858,
          "durationTicks": 36,
          "midi": 65,
          "name": "F4",
          "ticks": 9660,
          "time": 40.25,
          "velocity": 0.5039370078740157
        },
        {
          "duration": 0.14999999999999858,
          "durationTicks": 36,
          "midi": 60,
          "name": "C4",
          "ticks": 9660,
          "time": 40.25,
          "velocity": 0.5039370078740157
        },
        {
          "duration": 0.14999999999999858,
          "durationTicks": 36,
          "midi": 53,
          "name": "F3",
          "ticks": 9660,
          "time": 40.25,
          "velocity": 0.6692913385826772
        },
        {
          "duration": 0.14999999999999858,
          "durationTicks": 36,
          "midi": 48,
          "name": "C3",
          "ticks": 9660,
          "time": 40.25,
          "velocity": 0.6692913385826772
        },
        {
          "duration": 0.14999999999999858,
          "durationTicks": 36,
          "midi": 53,
          "name": "F3",
          "ticks": 9720,
          "time": 40.5,
          "velocity": 0.6692913385826772
        },
        {
          "duration": 0.14999999999999858,
          "durationTicks": 36,
          "midi": 60,
          "name": "C4",
          "ticks": 9720,
          "time": 40.5,
          "velocity": 0.5039370078740157
        },
        {
          "duration": 0.14999999999999858,
          "durationTicks": 36,
          "midi": 65,
          "name": "F4",
          "ticks": 9720,
          "time": 40.5,
          "velocity": 0.5039370078740157
        },
        {
          "duration": 0.14999999999999858,
          "durationTicks": 36,
          "midi": 48,
          "name": "C3",
          "ticks": 9720,
          "time": 40.5,
          "velocity": 0.6692913385826772
        },
        {
          "duration": 0.14999999999999858,
          "durationTicks": 36,
          "midi": 65,
          "name": "F4",
          "ticks": 9780,
          "time": 40.75,
          "velocity": 0.5039370078740157
        },
        {
          "duration": 0.14999999999999858,
          "durationTicks": 36,
          "midi": 60,
          "name": "C4",
          "ticks": 9780,
          "time": 40.75,
          "velocity": 0.5039370078740157
        },
        {
          "duration": 0.14999999999999858,
          "durationTicks": 36,
          "midi": 53,
          "name": "F3",
          "ticks": 9780,
          "time": 40.75,
          "velocity": 0.6692913385826772
        },
        {
          "duration": 0.14999999999999858,
          "durationTicks": 36,
          "midi": 48,
          "name": "C3",
          "ticks": 9780,
          "time": 40.75,
          "velocity": 0.6692913385826772
        },
        {
          "duration": 0.14999999999999858,
          "durationTicks": 36,
          "midi": 48,
          "name": "C3",
          "ticks": 9840,
          "time": 41,
          "velocity": 0.6692913385826772
        },
        {
          "duration": 0.14999999999999858,
          "durationTicks": 36,
          "midi": 53,
          "name": "F3",
          "ticks": 9840,
          "time": 41,
          "velocity": 0.6692913385826772
        },
        {
          "duration": 0.14999999999999858,
          "durationTicks": 36,
          "midi": 65,
          "name": "F4",
          "ticks": 9840,
          "time": 41,
          "velocity": 0.5039370078740157
        },
        {
          "duration": 0.14999999999999858,
          "durationTicks": 36,
          "midi": 60,
          "name": "C4",
          "ticks": 9840,
          "time": 41,
          "velocity": 0.5039370078740157
        },
        {
          "duration": 0.14999999999999858,
          "durationTicks": 36,
          "midi": 60,
          "name": "C4",
          "ticks": 9900,
          "time": 41.25,
          "velocity": 0.5039370078740157
        },
        {
          "duration": 0.14999999999999858,
          "durationTicks": 36,
          "midi": 53,
          "name": "F3",
          "ticks": 9900,
          "time": 41.25,
          "velocity": 0.6692913385826772
        },
        {
          "duration": 0.14999999999999858,
          "durationTicks": 36,
          "midi": 48,
          "name": "C3",
          "ticks": 9900,
          "time": 41.25,
          "velocity": 0.6692913385826772
        },
        {
          "duration": 0.14999999999999858,
          "durationTicks": 36,
          "midi": 65,
          "name": "F4",
          "ticks": 9900,
          "time": 41.25,
          "velocity": 0.5039370078740157
        },
        {
          "duration": 0.14999999999999858,
          "durationTicks": 36,
          "midi": 53,
          "name": "F3",
          "ticks": 9960,
          "time": 41.5,
          "velocity": 0.6692913385826772
        },
        {
          "duration": 0.14999999999999858,
          "durationTicks": 36,
          "midi": 48,
          "name": "C3",
          "ticks": 9960,
          "time": 41.5,
          "velocity": 0.6692913385826772
        },
        {
          "duration": 0.14999999999999858,
          "durationTicks": 36,
          "midi": 65,
          "name": "F4",
          "ticks": 9960,
          "time": 41.5,
          "velocity": 0.5039370078740157
        },
        {
          "duration": 0.14999999999999858,
          "durationTicks": 36,
          "midi": 60,
          "name": "C4",
          "ticks": 9960,
          "time": 41.5,
          "velocity": 0.5039370078740157
        },
        {
          "duration": 0.14999999999999858,
          "durationTicks": 36,
          "midi": 60,
          "name": "C4",
          "ticks": 10020,
          "time": 41.75,
          "velocity": 0.5039370078740157
        },
        {
          "duration": 0.14999999999999858,
          "durationTicks": 36,
          "midi": 53,
          "name": "F3",
          "ticks": 10020,
          "time": 41.75,
          "velocity": 0.6692913385826772
        },
        {
          "duration": 0.14999999999999858,
          "durationTicks": 36,
          "midi": 65,
          "name": "F4",
          "ticks": 10020,
          "time": 41.75,
          "velocity": 0.5039370078740157
        },
        {
          "duration": 0.14999999999999858,
          "durationTicks": 36,
          "midi": 48,
          "name": "C3",
          "ticks": 10020,
          "time": 41.75,
          "velocity": 0.6692913385826772
        },
        {
          "duration": 0.14999999999999858,
          "durationTicks": 36,
          "midi": 48,
          "name": "C3",
          "ticks": 10080,
          "time": 42,
          "velocity": 0.6692913385826772
        },
        {
          "duration": 0.14999999999999858,
          "durationTicks": 36,
          "midi": 67,
          "name": "G4",
          "ticks": 10080,
          "time": 42,
          "velocity": 0.5039370078740157
        },
        {
          "duration": 0.14999999999999858,
          "durationTicks": 36,
          "midi": 60,
          "name": "C4",
          "ticks": 10080,
          "time": 42,
          "velocity": 0.5039370078740157
        },
        {
          "duration": 0.14999999999999858,
          "durationTicks": 36,
          "midi": 55,
          "name": "G3",
          "ticks": 10080,
          "time": 42,
          "velocity": 0.6692913385826772
        },
        {
          "duration": 0.14999999999999858,
          "durationTicks": 36,
          "midi": 60,
          "name": "C4",
          "ticks": 10140,
          "time": 42.25,
          "velocity": 0.5039370078740157
        },
        {
          "duration": 0.14999999999999858,
          "durationTicks": 36,
          "midi": 48,
          "name": "C3",
          "ticks": 10140,
          "time": 42.25,
          "velocity": 0.6692913385826772
        },
        {
          "duration": 0.14999999999999858,
          "durationTicks": 36,
          "midi": 55,
          "name": "G3",
          "ticks": 10140,
          "time": 42.25,
          "velocity": 0.6692913385826772
        },
        {
          "duration": 0.14999999999999858,
          "durationTicks": 36,
          "midi": 67,
          "name": "G4",
          "ticks": 10140,
          "time": 42.25,
          "velocity": 0.5039370078740157
        },
        {
          "duration": 0.14999999999999858,
          "durationTicks": 36,
          "midi": 60,
          "name": "C4",
          "ticks": 10200,
          "time": 42.5,
          "velocity": 0.5039370078740157
        },
        {
          "duration": 0.14999999999999858,
          "durationTicks": 36,
          "midi": 55,
          "name": "G3",
          "ticks": 10200,
          "time": 42.5,
          "velocity": 0.6692913385826772
        },
        {
          "duration": 0.14999999999999858,
          "durationTicks": 36,
          "midi": 67,
          "name": "G4",
          "ticks": 10200,
          "time": 42.5,
          "velocity": 0.5039370078740157
        },
        {
          "duration": 0.14999999999999858,
          "durationTicks": 36,
          "midi": 48,
          "name": "C3",
          "ticks": 10200,
          "time": 42.5,
          "velocity": 0.6692913385826772
        },
        {
          "duration": 0.14999999999999858,
          "durationTicks": 36,
          "midi": 55,
          "name": "G3",
          "ticks": 10260,
          "time": 42.75,
          "velocity": 0.6692913385826772
        },
        {
          "duration": 0.14999999999999858,
          "durationTicks": 36,
          "midi": 67,
          "name": "G4",
          "ticks": 10260,
          "time": 42.75,
          "velocity": 0.5039370078740157
        },
        {
          "duration": 0.14999999999999858,
          "durationTicks": 36,
          "midi": 60,
          "name": "C4",
          "ticks": 10260,
          "time": 42.75,
          "velocity": 0.5039370078740157
        },
        {
          "duration": 0.14999999999999858,
          "durationTicks": 36,
          "midi": 48,
          "name": "C3",
          "ticks": 10260,
          "time": 42.75,
          "velocity": 0.6692913385826772
        },
        {
          "duration": 0.14999999999999858,
          "durationTicks": 36,
          "midi": 60,
          "name": "C4",
          "ticks": 10320,
          "time": 43,
          "velocity": 0.5039370078740157
        },
        {
          "duration": 0.14999999999999858,
          "durationTicks": 36,
          "midi": 55,
          "name": "G3",
          "ticks": 10320,
          "time": 43,
          "velocity": 0.6692913385826772
        },
        {
          "duration": 0.14999999999999858,
          "durationTicks": 36,
          "midi": 67,
          "name": "G4",
          "ticks": 10320,
          "time": 43,
          "velocity": 0.5039370078740157
        },
        {
          "duration": 0.14999999999999858,
          "durationTicks": 36,
          "midi": 48,
          "name": "C3",
          "ticks": 10320,
          "time": 43,
          "velocity": 0.6692913385826772
        },
        {
          "duration": 0.14999999999999858,
          "durationTicks": 36,
          "midi": 55,
          "name": "G3",
          "ticks": 10380,
          "time": 43.25,
          "velocity": 0.6692913385826772
        },
        {
          "duration": 0.14999999999999858,
          "durationTicks": 36,
          "midi": 60,
          "name": "C4",
          "ticks": 10380,
          "time": 43.25,
          "velocity": 0.5039370078740157
        },
        {
          "duration": 0.14999999999999858,
          "durationTicks": 36,
          "midi": 48,
          "name": "C3",
          "ticks": 10380,
          "time": 43.25,
          "velocity": 0.6692913385826772
        },
        {
          "duration": 0.14999999999999858,
          "durationTicks": 36,
          "midi": 67,
          "name": "G4",
          "ticks": 10380,
          "time": 43.25,
          "velocity": 0.5039370078740157
        },
        {
          "duration": 0.14999999999999858,
          "durationTicks": 36,
          "midi": 48,
          "name": "C3",
          "ticks": 10440,
          "time": 43.5,
          "velocity": 0.6692913385826772
        },
        {
          "duration": 0.14999999999999858,
          "durationTicks": 36,
          "midi": 55,
          "name": "G3",
          "ticks": 10440,
          "time": 43.5,
          "velocity": 0.6692913385826772
        },
        {
          "duration": 0.14999999999999858,
          "durationTicks": 36,
          "midi": 60,
          "name": "C4",
          "ticks": 10440,
          "time": 43.5,
          "velocity": 0.5039370078740157
        },
        {
          "duration": 0.14999999999999858,
          "durationTicks": 36,
          "midi": 67,
          "name": "G4",
          "ticks": 10440,
          "time": 43.5,
          "velocity": 0.5039370078740157
        },
        {
          "duration": 0.14999999999999858,
          "durationTicks": 36,
          "midi": 60,
          "name": "C4",
          "ticks": 10500,
          "time": 43.75,
          "velocity": 0.5039370078740157
        },
        {
          "duration": 0.14999999999999858,
          "durationTicks": 36,
          "midi": 48,
          "name": "C3",
          "ticks": 10500,
          "time": 43.75,
          "velocity": 0.6692913385826772
        },
        {
          "duration": 0.14999999999999858,
          "durationTicks": 36,
          "midi": 67,
          "name": "G4",
          "ticks": 10500,
          "time": 43.75,
          "velocity": 0.5039370078740157
        },
        {
          "duration": 0.14999999999999858,
          "durationTicks": 36,
          "midi": 55,
          "name": "G3",
          "ticks": 10500,
          "time": 43.75,
          "velocity": 0.6692913385826772
        },
        {
          "duration": 3.866666666666667,
          "durationTicks": 928,
          "midi": 55,
          "name": "G3",
          "ticks": 10560,
          "time": 44,
          "velocity": 0.6692913385826772
        },
        {
          "duration": 3.866666666666667,
          "durationTicks": 928,
          "midi": 50,
          "name": "D3",
          "ticks": 10560,
          "time": 44,
          "velocity": 0.6692913385826772
        },
        {
          "duration": 3.866666666666667,
          "durationTicks": 928,
          "midi": 58,
          "name": "A#3",
          "ticks": 10560,
          "time": 44,
          "velocity": 0.6692913385826772
        },
        {
          "duration": 0.09999999999999432,
          "durationTicks": 24,
          "midi": 50,
          "name": "D3",
          "ticks": 17040,
          "time": 71,
          "velocity": 0.6692913385826772
        },
        {
          "duration": 0.09999999999999432,
          "durationTicks": 24,
          "midi": 43,
          "name": "G2",
          "ticks": 17040,
          "time": 71,
          "velocity": 0.6692913385826772
        },
        {
          "duration": 0.09999999999999432,
          "durationTicks": 24,
          "midi": 67,
          "name": "G4",
          "ticks": 17040,
          "time": 71,
          "velocity": 0.6692913385826772
        },
        {
          "duration": 0.09999999999999432,
          "durationTicks": 24,
          "midi": 55,
          "name": "G3",
          "ticks": 17040,
          "time": 71,
          "velocity": 0.6692913385826772
        },
        {
          "duration": 0.0833333333333286,
          "durationTicks": 20,
          "midi": 62,
          "name": "D4",
          "ticks": 17040,
          "time": 71,
          "velocity": 0.5039370078740157
        },
        {
          "duration": 0.09999999999999432,
          "durationTicks": 24,
          "midi": 50,
          "name": "D3",
          "ticks": 17100,
          "time": 71.25,
          "velocity": 0.6692913385826772
        },
        {
          "duration": 0.09999999999999432,
          "durationTicks": 24,
          "midi": 43,
          "name": "G2",
          "ticks": 17100,
          "time": 71.25,
          "velocity": 0.6692913385826772
        },
        {
          "duration": 0.09999999999999432,
          "durationTicks": 24,
          "midi": 67,
          "name": "G4",
          "ticks": 17100,
          "time": 71.25,
          "velocity": 0.6692913385826772
        },
        {
          "duration": 0.09999999999999432,
          "durationTicks": 24,
          "midi": 55,
          "name": "G3",
          "ticks": 17100,
          "time": 71.25,
          "velocity": 0.6692913385826772
        },
        {
          "duration": 0.0833333333333286,
          "durationTicks": 20,
          "midi": 62,
          "name": "D4",
          "ticks": 17100,
          "time": 71.25,
          "velocity": 0.5039370078740157
        },
        {
          "duration": 0.0833333333333286,
          "durationTicks": 20,
          "midi": 62,
          "name": "D4",
          "ticks": 17160,
          "time": 71.5,
          "velocity": 0.5039370078740157
        },
        {
          "duration": 0.09999999999999432,
          "durationTicks": 24,
          "midi": 55,
          "name": "G3",
          "ticks": 17160,
          "time": 71.5,
          "velocity": 0.6692913385826772
        },
        {
          "duration": 0.09999999999999432,
          "durationTicks": 24,
          "midi": 67,
          "name": "G4",
          "ticks": 17160,
          "time": 71.5,
          "velocity": 0.6692913385826772
        },
        {
          "duration": 0.09999999999999432,
          "durationTicks": 24,
          "midi": 43,
          "name": "G2",
          "ticks": 17160,
          "time": 71.5,
          "velocity": 0.6692913385826772
        },
        {
          "duration": 0.09999999999999432,
          "durationTicks": 24,
          "midi": 50,
          "name": "D3",
          "ticks": 17160,
          "time": 71.5,
          "velocity": 0.6692913385826772
        },
        {
          "duration": 0.09999999999999432,
          "durationTicks": 24,
          "midi": 43,
          "name": "G2",
          "ticks": 17220,
          "time": 71.75,
          "velocity": 0.6692913385826772
        },
        {
          "duration": 0.09999999999999432,
          "durationTicks": 24,
          "midi": 67,
          "name": "G4",
          "ticks": 17220,
          "time": 71.75,
          "velocity": 0.6692913385826772
        },
        {
          "duration": 0.09999999999999432,
          "durationTicks": 24,
          "midi": 55,
          "name": "G3",
          "ticks": 17220,
          "time": 71.75,
          "velocity": 0.6692913385826772
        },
        {
          "duration": 0.09999999999999432,
          "durationTicks": 24,
          "midi": 50,
          "name": "D3",
          "ticks": 17220,
          "time": 71.75,
          "velocity": 0.6692913385826772
        },
        {
          "duration": 0.0833333333333286,
          "durationTicks": 20,
          "midi": 62,
          "name": "D4",
          "ticks": 17220,
          "time": 71.75,
          "velocity": 0.5039370078740157
        },
        {
          "duration": 0.15000000000000568,
          "durationTicks": 36,
          "midi": 67,
          "name": "G4",
          "ticks": 17280,
          "time": 72,
          "velocity": 0.5039370078740157
        },
        {
          "duration": 0.15000000000000568,
          "durationTicks": 36,
          "midi": 50,
          "name": "D3",
          "ticks": 17280,
          "time": 72,
          "velocity": 0.6692913385826772
        },
        {
          "duration": 0.15000000000000568,
          "durationTicks": 36,
          "midi": 55,
          "name": "G3",
          "ticks": 17280,
          "time": 72,
          "velocity": 0.6692913385826772
        },
        {
          "duration": 0.15000000000000568,
          "durationTicks": 36,
          "midi": 62,
          "name": "D4",
          "ticks": 17280,
          "time": 72,
          "velocity": 0.5039370078740157
        },
        {
          "duration": 0.15000000000000568,
          "durationTicks": 36,
          "midi": 50,
          "name": "D3",
          "ticks": 17340,
          "time": 72.25,
          "velocity": 0.6692913385826772
        },
        {
          "duration": 0.15000000000000568,
          "durationTicks": 36,
          "midi": 67,
          "name": "G4",
          "ticks": 17340,
          "time": 72.25,
          "velocity": 0.5039370078740157
        },
        {
          "duration": 0.15000000000000568,
          "durationTicks": 36,
          "midi": 55,
          "name": "G3",
          "ticks": 17340,
          "time": 72.25,
          "velocity": 0.6692913385826772
        },
        {
          "duration": 0.15000000000000568,
          "durationTicks": 36,
          "midi": 62,
          "name": "D4",
          "ticks": 17340,
          "time": 72.25,
          "velocity": 0.5039370078740157
        },
        {
          "duration": 0.15000000000000568,
          "durationTicks": 36,
          "midi": 67,
          "name": "G4",
          "ticks": 17400,
          "time": 72.5,
          "velocity": 0.5039370078740157
        },
        {
          "duration": 0.15000000000000568,
          "durationTicks": 36,
          "midi": 62,
          "name": "D4",
          "ticks": 17400,
          "time": 72.5,
          "velocity": 0.5039370078740157
        },
        {
          "duration": 0.15000000000000568,
          "durationTicks": 36,
          "midi": 50,
          "name": "D3",
          "ticks": 17400,
          "time": 72.5,
          "velocity": 0.6692913385826772
        },
        {
          "duration": 0.15000000000000568,
          "durationTicks": 36,
          "midi": 55,
          "name": "G3",
          "ticks": 17400,
          "time": 72.5,
          "velocity": 0.6692913385826772
        },
        {
          "duration": 0.15000000000000568,
          "durationTicks": 36,
          "midi": 55,
          "name": "G3",
          "ticks": 17460,
          "time": 72.75,
          "velocity": 0.6692913385826772
        },
        {
          "duration": 0.15000000000000568,
          "durationTicks": 36,
          "midi": 50,
          "name": "D3",
          "ticks": 17460,
          "time": 72.75,
          "velocity": 0.6692913385826772
        },
        {
          "duration": 0.15000000000000568,
          "durationTicks": 36,
          "midi": 67,
          "name": "G4",
          "ticks": 17460,
          "time": 72.75,
          "velocity": 0.5039370078740157
        },
        {
          "duration": 0.15000000000000568,
          "durationTicks": 36,
          "midi": 62,
          "name": "D4",
          "ticks": 17460,
          "time": 72.75,
          "velocity": 0.5039370078740157
        },
        {
          "duration": 0.15000000000000568,
          "durationTicks": 36,
          "midi": 62,
          "name": "D4",
          "ticks": 17520,
          "time": 73,
          "velocity": 0.5039370078740157
        },
        {
          "duration": 0.15000000000000568,
          "durationTicks": 36,
          "midi": 55,
          "name": "G3",
          "ticks": 17520,
          "time": 73,
          "velocity": 0.6692913385826772
        },
        {
          "duration": 0.15000000000000568,
          "durationTicks": 36,
          "midi": 50,
          "name": "D3",
          "ticks": 17520,
          "time": 73,
          "velocity": 0.6692913385826772
        },
        {
          "duration": 0.15000000000000568,
          "durationTicks": 36,
          "midi": 67,
          "name": "G4",
          "ticks": 17520,
          "time": 73,
          "velocity": 0.5039370078740157
        },
        {
          "duration": 0.15000000000000568,
          "durationTicks": 36,
          "midi": 50,
          "name": "D3",
          "ticks": 17580,
          "time": 73.25,
          "velocity": 0.6692913385826772
        },
        {
          "duration": 0.15000000000000568,
          "durationTicks": 36,
          "midi": 67,
          "name": "G4",
          "ticks": 17580,
          "time": 73.25,
          "velocity": 0.5039370078740157
        },
        {
          "duration": 0.15000000000000568,
          "durationTicks": 36,
          "midi": 62,
          "name": "D4",
          "ticks": 17580,
          "time": 73.25,
          "velocity": 0.5039370078740157
        },
        {
          "duration": 0.15000000000000568,
          "durationTicks": 36,
          "midi": 55,
          "name": "G3",
          "ticks": 17580,
          "time": 73.25,
          "velocity": 0.6692913385826772
        },
        {
          "duration": 0.15000000000000568,
          "durationTicks": 36,
          "midi": 67,
          "name": "G4",
          "ticks": 17640,
          "time": 73.5,
          "velocity": 0.5039370078740157
        },
        {
          "duration": 0.15000000000000568,
          "durationTicks": 36,
          "midi": 55,
          "name": "G3",
          "ticks": 17640,
          "time": 73.5,
          "velocity": 0.6692913385826772
        },
        {
          "duration": 0.15000000000000568,
          "durationTicks": 36,
          "midi": 50,
          "name": "D3",
          "ticks": 17640,
          "time": 73.5,
          "velocity": 0.6692913385826772
        },
        {
          "duration": 0.15000000000000568,
          "durationTicks": 36,
          "midi": 62,
          "name": "D4",
          "ticks": 17640,
          "time": 73.5,
          "velocity": 0.5039370078740157
        },
        {
          "duration": 0.15000000000000568,
          "durationTicks": 36,
          "midi": 50,
          "name": "D3",
          "ticks": 17700,
          "time": 73.75,
          "velocity": 0.6692913385826772
        },
        {
          "duration": 0.15000000000000568,
          "durationTicks": 36,
          "midi": 67,
          "name": "G4",
          "ticks": 17700,
          "time": 73.75,
          "velocity": 0.5039370078740157
        },
        {
          "duration": 0.15000000000000568,
          "durationTicks": 36,
          "midi": 62,
          "name": "D4",
          "ticks": 17700,
          "time": 73.75,
          "velocity": 0.5039370078740157
        },
        {
          "duration": 0.15000000000000568,
          "durationTicks": 36,
          "midi": 55,
          "name": "G3",
          "ticks": 17700,
          "time": 73.75,
          "velocity": 0.6692913385826772
        },
        {
          "duration": 0.15000000000000568,
          "durationTicks": 36,
          "midi": 70,
          "name": "A#4",
          "ticks": 17760,
          "time": 74,
          "velocity": 0.5039370078740157
        },
        {
          "duration": 0.15000000000000568,
          "durationTicks": 36,
          "midi": 65,
          "name": "F4",
          "ticks": 17760,
          "time": 74,
          "velocity": 0.5039370078740157
        },
        {
          "duration": 0.15000000000000568,
          "durationTicks": 36,
          "midi": 58,
          "name": "A#3",
          "ticks": 17760,
          "time": 74,
          "velocity": 0.6692913385826772
        },
        {
          "duration": 0.15000000000000568,
          "durationTicks": 36,
          "midi": 53,
          "name": "F3",
          "ticks": 17760,
          "time": 74,
          "velocity": 0.6692913385826772
        },
        {
          "duration": 0.15000000000000568,
          "durationTicks": 36,
          "midi": 58,
          "name": "A#3",
          "ticks": 17820,
          "time": 74.25,
          "velocity": 0.6692913385826772
        },
        {
          "duration": 0.15000000000000568,
          "durationTicks": 36,
          "midi": 53,
          "name": "F3",
          "ticks": 17820,
          "time": 74.25,
          "velocity": 0.6692913385826772
        },
        {
          "duration": 0.15000000000000568,
          "durationTicks": 36,
          "midi": 70,
          "name": "A#4",
          "ticks": 17820,
          "time": 74.25,
          "velocity": 0.5039370078740157
        },
        {
          "duration": 0.15000000000000568,
          "durationTicks": 36,
          "midi": 65,
          "name": "F4",
          "ticks": 17820,
          "time": 74.25,
          "velocity": 0.5039370078740157
        },
        {
          "duration": 0.15000000000000568,
          "durationTicks": 36,
          "midi": 70,
          "name": "A#4",
          "ticks": 17880,
          "time": 74.5,
          "velocity": 0.5039370078740157
        },
        {
          "duration": 0.15000000000000568,
          "durationTicks": 36,
          "midi": 53,
          "name": "F3",
          "ticks": 17880,
          "time": 74.5,
          "velocity": 0.6692913385826772
        },
        {
          "duration": 0.15000000000000568,
          "durationTicks": 36,
          "midi": 65,
          "name": "F4",
          "ticks": 17880,
          "time": 74.5,
          "velocity": 0.5039370078740157
        },
        {
          "duration": 0.15000000000000568,
          "durationTicks": 36,
          "midi": 58,
          "name": "A#3",
          "ticks": 17880,
          "time": 74.5,
          "velocity": 0.6692913385826772
        },
        {
          "duration": 0.15000000000000568,
          "durationTicks": 36,
          "midi": 70,
          "name": "A#4",
          "ticks": 17940,
          "time": 74.75,
          "velocity": 0.5039370078740157
        },
        {
          "duration": 0.15000000000000568,
          "durationTicks": 36,
          "midi": 53,
          "name": "F3",
          "ticks": 17940,
          "time": 74.75,
          "velocity": 0.6692913385826772
        },
        {
          "duration": 0.15000000000000568,
          "durationTicks": 36,
          "midi": 58,
          "name": "A#3",
          "ticks": 17940,
          "time": 74.75,
          "velocity": 0.6692913385826772
        },
        {
          "duration": 0.15000000000000568,
          "durationTicks": 36,
          "midi": 65,
          "name": "F4",
          "ticks": 17940,
          "time": 74.75,
          "velocity": 0.5039370078740157
        },
        {
          "duration": 0.15000000000000568,
          "durationTicks": 36,
          "midi": 53,
          "name": "F3",
          "ticks": 18000,
          "time": 75,
          "velocity": 0.6692913385826772
        },
        {
          "duration": 0.15000000000000568,
          "durationTicks": 36,
          "midi": 70,
          "name": "A#4",
          "ticks": 18000,
          "time": 75,
          "velocity": 0.5039370078740157
        },
        {
          "duration": 0.15000000000000568,
          "durationTicks": 36,
          "midi": 65,
          "name": "F4",
          "ticks": 18000,
          "time": 75,
          "velocity": 0.5039370078740157
        },
        {
          "duration": 0.15000000000000568,
          "durationTicks": 36,
          "midi": 58,
          "name": "A#3",
          "ticks": 18000,
          "time": 75,
          "velocity": 0.6692913385826772
        },
        {
          "duration": 0.15000000000000568,
          "durationTicks": 36,
          "midi": 70,
          "name": "A#4",
          "ticks": 18060,
          "time": 75.25,
          "velocity": 0.5039370078740157
        },
        {
          "duration": 0.15000000000000568,
          "durationTicks": 36,
          "midi": 65,
          "name": "F4",
          "ticks": 18060,
          "time": 75.25,
          "velocity": 0.5039370078740157
        },
        {
          "duration": 0.15000000000000568,
          "durationTicks": 36,
          "midi": 58,
          "name": "A#3",
          "ticks": 18060,
          "time": 75.25,
          "velocity": 0.6692913385826772
        },
        {
          "duration": 0.15000000000000568,
          "durationTicks": 36,
          "midi": 53,
          "name": "F3",
          "ticks": 18060,
          "time": 75.25,
          "velocity": 0.6692913385826772
        },
        {
          "duration": 0.15000000000000568,
          "durationTicks": 36,
          "midi": 53,
          "name": "F3",
          "ticks": 18120,
          "time": 75.5,
          "velocity": 0.6692913385826772
        },
        {
          "duration": 0.15000000000000568,
          "durationTicks": 36,
          "midi": 58,
          "name": "A#3",
          "ticks": 18120,
          "time": 75.5,
          "velocity": 0.6692913385826772
        },
        {
          "duration": 0.15000000000000568,
          "durationTicks": 36,
          "midi": 65,
          "name": "F4",
          "ticks": 18120,
          "time": 75.5,
          "velocity": 0.5039370078740157
        },
        {
          "duration": 0.15000000000000568,
          "durationTicks": 36,
          "midi": 70,
          "name": "A#4",
          "ticks": 18120,
          "time": 75.5,
          "velocity": 0.5039370078740157
        },
        {
          "duration": 0.15000000000000568,
          "durationTicks": 36,
          "midi": 53,
          "name": "F3",
          "ticks": 18180,
          "time": 75.75,
          "velocity": 0.6692913385826772
        },
        {
          "duration": 0.15000000000000568,
          "durationTicks": 36,
          "midi": 70,
          "name": "A#4",
          "ticks": 18180,
          "time": 75.75,
          "velocity": 0.5039370078740157
        },
        {
          "duration": 0.15000000000000568,
          "durationTicks": 36,
          "midi": 65,
          "name": "F4",
          "ticks": 18180,
          "time": 75.75,
          "velocity": 0.5039370078740157
        },
        {
          "duration": 0.15000000000000568,
          "durationTicks": 36,
          "midi": 58,
          "name": "A#3",
          "ticks": 18180,
          "time": 75.75,
          "velocity": 0.6692913385826772
        },
        {
          "duration": 0.15000000000000568,
          "durationTicks": 36,
          "midi": 48,
          "name": "C3",
          "ticks": 18240,
          "time": 76,
          "velocity": 0.6692913385826772
        },
        {
          "duration": 0.15000000000000568,
          "durationTicks": 36,
          "midi": 60,
          "name": "C4",
          "ticks": 18240,
          "time": 76,
          "velocity": 0.5039370078740157
        },
        {
          "duration": 0.15000000000000568,
          "durationTicks": 36,
          "midi": 53,
          "name": "F3",
          "ticks": 18240,
          "time": 76,
          "velocity": 0.6692913385826772
        },
        {
          "duration": 0.15000000000000568,
          "durationTicks": 36,
          "midi": 65,
          "name": "F4",
          "ticks": 18240,
          "time": 76,
          "velocity": 0.5039370078740157
        },
        {
          "duration": 0.15000000000000568,
          "durationTicks": 36,
          "midi": 60,
          "name": "C4",
          "ticks": 18300,
          "time": 76.25,
          "velocity": 0.5039370078740157
        },
        {
          "duration": 0.15000000000000568,
          "durationTicks": 36,
          "midi": 65,
          "name": "F4",
          "ticks": 18300,
          "time": 76.25,
          "velocity": 0.5039370078740157
        },
        {
          "duration": 0.15000000000000568,
          "durationTicks": 36,
          "midi": 48,
          "name": "C3",
          "ticks": 18300,
          "time": 76.25,
          "velocity": 0.6692913385826772
        },
        {
          "duration": 0.15000000000000568,
          "durationTicks": 36,
          "midi": 53,
          "name": "F3",
          "ticks": 18300,
          "time": 76.25,
          "velocity": 0.6692913385826772
        },
        {
          "duration": 0.15000000000000568,
          "durationTicks": 36,
          "midi": 48,
          "name": "C3",
          "ticks": 18360,
          "time": 76.5,
          "velocity": 0.6692913385826772
        },
        {
          "duration": 0.15000000000000568,
          "durationTicks": 36,
          "midi": 53,
          "name": "F3",
          "ticks": 18360,
          "time": 76.5,
          "velocity": 0.6692913385826772
        },
        {
          "duration": 0.15000000000000568,
          "durationTicks": 36,
          "midi": 60,
          "name": "C4",
          "ticks": 18360,
          "time": 76.5,
          "velocity": 0.5039370078740157
        },
        {
          "duration": 0.15000000000000568,
          "durationTicks": 36,
          "midi": 65,
          "name": "F4",
          "ticks": 18360,
          "time": 76.5,
          "velocity": 0.5039370078740157
        },
        {
          "duration": 0.15000000000000568,
          "durationTicks": 36,
          "midi": 65,
          "name": "F4",
          "ticks": 18420,
          "time": 76.75,
          "velocity": 0.5039370078740157
        },
        {
          "duration": 0.15000000000000568,
          "durationTicks": 36,
          "midi": 53,
          "name": "F3",
          "ticks": 18420,
          "time": 76.75,
          "velocity": 0.6692913385826772
        },
        {
          "duration": 0.15000000000000568,
          "durationTicks": 36,
          "midi": 60,
          "name": "C4",
          "ticks": 18420,
          "time": 76.75,
          "velocity": 0.5039370078740157
        },
        {
          "duration": 0.15000000000000568,
          "durationTicks": 36,
          "midi": 48,
          "name": "C3",
          "ticks": 18420,
          "time": 76.75,
          "velocity": 0.6692913385826772
        },
        {
          "duration": 0.15000000000000568,
          "durationTicks": 36,
          "midi": 48,
          "name": "C3",
          "ticks": 18480,
          "time": 77,
          "velocity": 0.6692913385826772
        },
        {
          "duration": 0.15000000000000568,
          "durationTicks": 36,
          "midi": 60,
          "name": "C4",
          "ticks": 18480,
          "time": 77,
          "velocity": 0.5039370078740157
        },
        {
          "duration": 0.15000000000000568,
          "durationTicks": 36,
          "midi": 65,
          "name": "F4",
          "ticks": 18480,
          "time": 77,
          "velocity": 0.5039370078740157
        },
        {
          "duration": 0.15000000000000568,
          "durationTicks": 36,
          "midi": 53,
          "name": "F3",
          "ticks": 18480,
          "time": 77,
          "velocity": 0.6692913385826772
        },
        {
          "duration": 0.15000000000000568,
          "durationTicks": 36,
          "midi": 65,
          "name": "F4",
          "ticks": 18540,
          "time": 77.25,
          "velocity": 0.5039370078740157
        },
        {
          "duration": 0.15000000000000568,
          "durationTicks": 36,
          "midi": 60,
          "name": "C4",
          "ticks": 18540,
          "time": 77.25,
          "velocity": 0.5039370078740157
        },
        {
          "duration": 0.15000000000000568,
          "durationTicks": 36,
          "midi": 48,
          "name": "C3",
          "ticks": 18540,
          "time": 77.25,
          "velocity": 0.6692913385826772
        },
        {
          "duration": 0.15000000000000568,
          "durationTicks": 36,
          "midi": 53,
          "name": "F3",
          "ticks": 18540,
          "time": 77.25,
          "velocity": 0.6692913385826772
        },
        {
          "duration": 0.15000000000000568,
          "durationTicks": 36,
          "midi": 53,
          "name": "F3",
          "ticks": 18600,
          "time": 77.5,
          "velocity": 0.6692913385826772
        },
        {
          "duration": 0.15000000000000568,
          "durationTicks": 36,
          "midi": 65,
          "name": "F4",
          "ticks": 18600,
          "time": 77.5,
          "velocity": 0.5039370078740157
        },
        {
          "duration": 0.15000000000000568,
          "durationTicks": 36,
          "midi": 48,
          "name": "C3",
          "ticks": 18600,
          "time": 77.5,
          "velocity": 0.6692913385826772
        },
        {
          "duration": 0.15000000000000568,
          "durationTicks": 36,
          "midi": 60,
          "name": "C4",
          "ticks": 18600,
          "time": 77.5,
          "velocity": 0.5039370078740157
        },
        {
          "duration": 0.15000000000000568,
          "durationTicks": 36,
          "midi": 60,
          "name": "C4",
          "ticks": 18660,
          "time": 77.75,
          "velocity": 0.5039370078740157
        },
        {
          "duration": 0.15000000000000568,
          "durationTicks": 36,
          "midi": 65,
          "name": "F4",
          "ticks": 18660,
          "time": 77.75,
          "velocity": 0.5039370078740157
        },
        {
          "duration": 0.15000000000000568,
          "durationTicks": 36,
          "midi": 53,
          "name": "F3",
          "ticks": 18660,
          "time": 77.75,
          "velocity": 0.6692913385826772
        },
        {
          "duration": 0.15000000000000568,
          "durationTicks": 36,
          "midi": 48,
          "name": "C3",
          "ticks": 18660,
          "time": 77.75,
          "velocity": 0.6692913385826772
        },
        {
          "duration": 0.15000000000000568,
          "durationTicks": 36,
          "midi": 67,
          "name": "G4",
          "ticks": 18720,
          "time": 78,
          "velocity": 0.5039370078740157
        },
        {
          "duration": 0.15000000000000568,
          "durationTicks": 36,
          "midi": 60,
          "name": "C4",
          "ticks": 18720,
          "time": 78,
          "velocity": 0.5039370078740157
        },
        {
          "duration": 0.15000000000000568,
          "durationTicks": 36,
          "midi": 48,
          "name": "C3",
          "ticks": 18720,
          "time": 78,
          "velocity": 0.6692913385826772
        },
        {
          "duration": 0.15000000000000568,
          "durationTicks": 36,
          "midi": 55,
          "name": "G3",
          "ticks": 18720,
          "time": 78,
          "velocity": 0.6692913385826772
        },
        {
          "duration": 0.15000000000000568,
          "durationTicks": 36,
          "midi": 48,
          "name": "C3",
          "ticks": 18780,
          "time": 78.25,
          "velocity": 0.6692913385826772
        },
        {
          "duration": 0.15000000000000568,
          "durationTicks": 36,
          "midi": 55,
          "name": "G3",
          "ticks": 18780,
          "time": 78.25,
          "velocity": 0.6692913385826772
        },
        {
          "duration": 0.15000000000000568,
          "durationTicks": 36,
          "midi": 67,
          "name": "G4",
          "ticks": 18780,
          "time": 78.25,
          "velocity": 0.5039370078740157
        },
        {
          "duration": 0.15000000000000568,
          "durationTicks": 36,
          "midi": 60,
          "name": "C4",
          "ticks": 18780,
          "time": 78.25,
          "velocity": 0.5039370078740157
        },
        {
          "duration": 0.15000000000000568,
          "durationTicks": 36,
          "midi": 67,
          "name": "G4",
          "ticks": 18840,
          "time": 78.5,
          "velocity": 0.5039370078740157
        },
        {
          "duration": 0.15000000000000568,
          "durationTicks": 36,
          "midi": 60,
          "name": "C4",
          "ticks": 18840,
          "time": 78.5,
          "velocity": 0.5039370078740157
        },
        {
          "duration": 0.15000000000000568,
          "durationTicks": 36,
          "midi": 48,
          "name": "C3",
          "ticks": 18840,
          "time": 78.5,
          "velocity": 0.6692913385826772
        },
        {
          "duration": 0.15000000000000568,
          "durationTicks": 36,
          "midi": 55,
          "name": "G3",
          "ticks": 18840,
          "time": 78.5,
          "velocity": 0.6692913385826772
        },
        {
          "duration": 0.15000000000000568,
          "durationTicks": 36,
          "midi": 67,
          "name": "G4",
          "ticks": 18900,
          "time": 78.75,
          "velocity": 0.5039370078740157
        },
        {
          "duration": 0.15000000000000568,
          "durationTicks": 36,
          "midi": 55,
          "name": "G3",
          "ticks": 18900,
          "time": 78.75,
          "velocity": 0.6692913385826772
        },
        {
          "duration": 0.15000000000000568,
          "durationTicks": 36,
          "midi": 48,
          "name": "C3",
          "ticks": 18900,
          "time": 78.75,
          "velocity": 0.6692913385826772
        },
        {
          "duration": 0.15000000000000568,
          "durationTicks": 36,
          "midi": 60,
          "name": "C4",
          "ticks": 18900,
          "time": 78.75,
          "velocity": 0.5039370078740157
        },
        {
          "duration": 0.15000000000000568,
          "durationTicks": 36,
          "midi": 67,
          "name": "G4",
          "ticks": 18960,
          "time": 79,
          "velocity": 0.5039370078740157
        },
        {
          "duration": 0.15000000000000568,
          "durationTicks": 36,
          "midi": 60,
          "name": "C4",
          "ticks": 18960,
          "time": 79,
          "velocity": 0.5039370078740157
        },
        {
          "duration": 0.15000000000000568,
          "durationTicks": 36,
          "midi": 48,
          "name": "C3",
          "ticks": 18960,
          "time": 79,
          "velocity": 0.6692913385826772
        },
        {
          "duration": 0.15000000000000568,
          "durationTicks": 36,
          "midi": 55,
          "name": "G3",
          "ticks": 18960,
          "time": 79,
          "velocity": 0.6692913385826772
        },
        {
          "duration": 0.15000000000000568,
          "durationTicks": 36,
          "midi": 55,
          "name": "G3",
          "ticks": 19020,
          "time": 79.25,
          "velocity": 0.6692913385826772
        },
        {
          "duration": 0.15000000000000568,
          "durationTicks": 36,
          "midi": 48,
          "name": "C3",
          "ticks": 19020,
          "time": 79.25,
          "velocity": 0.6692913385826772
        },
        {
          "duration": 0.15000000000000568,
          "durationTicks": 36,
          "midi": 60,
          "name": "C4",
          "ticks": 19020,
          "time": 79.25,
          "velocity": 0.5039370078740157
        },
        {
          "duration": 0.15000000000000568,
          "durationTicks": 36,
          "midi": 67,
          "name": "G4",
          "ticks": 19020,
          "time": 79.25,
          "velocity": 0.5039370078740157
        },
        {
          "duration": 0.15000000000000568,
          "durationTicks": 36,
          "midi": 48,
          "name": "C3",
          "ticks": 19080,
          "time": 79.5,
          "velocity": 0.6692913385826772
        },
        {
          "duration": 0.15000000000000568,
          "durationTicks": 36,
          "midi": 67,
          "name": "G4",
          "ticks": 19080,
          "time": 79.5,
          "velocity": 0.5039370078740157
        },
        {
          "duration": 0.15000000000000568,
          "durationTicks": 36,
          "midi": 60,
          "name": "C4",
          "ticks": 19080,
          "time": 79.5,
          "velocity": 0.5039370078740157
        },
        {
          "duration": 0.15000000000000568,
          "durationTicks": 36,
          "midi": 55,
          "name": "G3",
          "ticks": 19080,
          "time": 79.5,
          "velocity": 0.6692913385826772
        },
        {
          "duration": 0.15000000000000568,
          "durationTicks": 36,
          "midi": 60,
          "name": "C4",
          "ticks": 19140,
          "time": 79.75,
          "velocity": 0.5039370078740157
        },
        {
          "duration": 0.15000000000000568,
          "durationTicks": 36,
          "midi": 55,
          "name": "G3",
          "ticks": 19140,
          "time": 79.75,
          "velocity": 0.6692913385826772
        },
        {
          "duration": 0.15000000000000568,
          "durationTicks": 36,
          "midi": 67,
          "name": "G4",
          "ticks": 19140,
          "time": 79.75,
          "velocity": 0.5039370078740157
        },
        {
          "duration": 0.15000000000000568,
          "durationTicks": 36,
          "midi": 48,
          "name": "C3",
          "ticks": 19140,
          "time": 79.75,
          "velocity": 0.6692913385826772
        },
        {
          "duration": 0.15000000000000568,
          "durationTicks": 36,
          "midi": 55,
          "name": "G3",
          "ticks": 19200,
          "time": 80,
          "velocity": 0.6692913385826772
        },
        {
          "duration": 0.15000000000000568,
          "durationTicks": 36,
          "midi": 62,
          "name": "D4",
          "ticks": 19200,
          "time": 80,
          "velocity": 0.5039370078740157
        },
        {
          "duration": 0.15000000000000568,
          "durationTicks": 36,
          "midi": 50,
          "name": "D3",
          "ticks": 19200,
          "time": 80,
          "velocity": 0.6692913385826772
        },
        {
          "duration": 0.15000000000000568,
          "durationTicks": 36,
          "midi": 67,
          "name": "G4",
          "ticks": 19200,
          "time": 80,
          "velocity": 0.5039370078740157
        },
        {
          "duration": 0.15000000000000568,
          "durationTicks": 36,
          "midi": 67,
          "name": "G4",
          "ticks": 19260,
          "time": 80.25,
          "velocity": 0.5039370078740157
        },
        {
          "duration": 0.15000000000000568,
          "durationTicks": 36,
          "midi": 50,
          "name": "D3",
          "ticks": 19260,
          "time": 80.25,
          "velocity": 0.6692913385826772
        },
        {
          "duration": 0.15000000000000568,
          "durationTicks": 36,
          "midi": 55,
          "name": "G3",
          "ticks": 19260,
          "time": 80.25,
          "velocity": 0.6692913385826772
        },
        {
          "duration": 0.15000000000000568,
          "durationTicks": 36,
          "midi": 62,
          "name": "D4",
          "ticks": 19260,
          "time": 80.25,
          "velocity": 0.5039370078740157
        },
        {
          "duration": 0.15000000000000568,
          "durationTicks": 36,
          "midi": 50,
          "name": "D3",
          "ticks": 19320,
          "time": 80.5,
          "velocity": 0.6692913385826772
        },
        {
          "duration": 0.15000000000000568,
          "durationTicks": 36,
          "midi": 55,
          "name": "G3",
          "ticks": 19320,
          "time": 80.5,
          "velocity": 0.6692913385826772
        },
        {
          "duration": 0.15000000000000568,
          "durationTicks": 36,
          "midi": 62,
          "name": "D4",
          "ticks": 19320,
          "time": 80.5,
          "velocity": 0.5039370078740157
        },
        {
          "duration": 0.15000000000000568,
          "durationTicks": 36,
          "midi": 67,
          "name": "G4",
          "ticks": 19320,
          "time": 80.5,
          "velocity": 0.5039370078740157
        },
        {
          "duration": 0.15000000000000568,
          "durationTicks": 36,
          "midi": 50,
          "name": "D3",
          "ticks": 19380,
          "time": 80.75,
          "velocity": 0.6692913385826772
        },
        {
          "duration": 0.15000000000000568,
          "durationTicks": 36,
          "midi": 62,
          "name": "D4",
          "ticks": 19380,
          "time": 80.75,
          "velocity": 0.5039370078740157
        },
        {
          "duration": 0.15000000000000568,
          "durationTicks": 36,
          "midi": 67,
          "name": "G4",
          "ticks": 19380,
          "time": 80.75,
          "velocity": 0.5039370078740157
        },
        {
          "duration": 0.15000000000000568,
          "durationTicks": 36,
          "midi": 55,
          "name": "G3",
          "ticks": 19380,
          "time": 80.75,
          "velocity": 0.6692913385826772
        },
        {
          "duration": 0.15000000000000568,
          "durationTicks": 36,
          "midi": 55,
          "name": "G3",
          "ticks": 19440,
          "time": 81,
          "velocity": 0.6692913385826772
        },
        {
          "duration": 0.15000000000000568,
          "durationTicks": 36,
          "midi": 67,
          "name": "G4",
          "ticks": 19440,
          "time": 81,
          "velocity": 0.5039370078740157
        },
        {
          "duration": 0.15000000000000568,
          "durationTicks": 36,
          "midi": 62,
          "name": "D4",
          "ticks": 19440,
          "time": 81,
          "velocity": 0.5039370078740157
        },
        {
          "duration": 0.15000000000000568,
          "durationTicks": 36,
          "midi": 50,
          "name": "D3",
          "ticks": 19440,
          "time": 81,
          "velocity": 0.6692913385826772
        },
        {
          "duration": 0.15000000000000568,
          "durationTicks": 36,
          "midi": 67,
          "name": "G4",
          "ticks": 19500,
          "time": 81.25,
          "velocity": 0.5039370078740157
        },
        {
          "duration": 0.15000000000000568,
          "durationTicks": 36,
          "midi": 50,
          "name": "D3",
          "ticks": 19500,
          "time": 81.25,
          "velocity": 0.6692913385826772
        },
        {
          "duration": 0.15000000000000568,
          "durationTicks": 36,
          "midi": 62,
          "name": "D4",
          "ticks": 19500,
          "time": 81.25,
          "velocity": 0.5039370078740157
        },
        {
          "duration": 0.15000000000000568,
          "durationTicks": 36,
          "midi": 55,
          "name": "G3",
          "ticks": 19500,
          "time": 81.25,
          "velocity": 0.6692913385826772
        },
        {
          "duration": 0.15000000000000568,
          "durationTicks": 36,
          "midi": 55,
          "name": "G3",
          "ticks": 19560,
          "time": 81.5,
          "velocity": 0.6692913385826772
        },
        {
          "duration": 0.15000000000000568,
          "durationTicks": 36,
          "midi": 50,
          "name": "D3",
          "ticks": 19560,
          "time": 81.5,
          "velocity": 0.6692913385826772
        },
        {
          "duration": 0.15000000000000568,
          "durationTicks": 36,
          "midi": 62,
          "name": "D4",
          "ticks": 19560,
          "time": 81.5,
          "velocity": 0.5039370078740157
        },
        {
          "duration": 0.15000000000000568,
          "durationTicks": 36,
          "midi": 67,
          "name": "G4",
          "ticks": 19560,
          "time": 81.5,
          "velocity": 0.5039370078740157
        },
        {
          "duration": 0.15000000000000568,
          "durationTicks": 36,
          "midi": 50,
          "name": "D3",
          "ticks": 19620,
          "time": 81.75,
          "velocity": 0.6692913385826772
        },
        {
          "duration": 0.15000000000000568,
          "durationTicks": 36,
          "midi": 62,
          "name": "D4",
          "ticks": 19620,
          "time": 81.75,
          "velocity": 0.5039370078740157
        },
        {
          "duration": 0.15000000000000568,
          "durationTicks": 36,
          "midi": 55,
          "name": "G3",
          "ticks": 19620,
          "time": 81.75,
          "velocity": 0.6692913385826772
        },
        {
          "duration": 0.15000000000000568,
          "durationTicks": 36,
          "midi": 67,
          "name": "G4",
          "ticks": 19620,
          "time": 81.75,
          "velocity": 0.5039370078740157
        },
        {
          "duration": 0.15000000000000568,
          "durationTicks": 36,
          "midi": 53,
          "name": "F3",
          "ticks": 19680,
          "time": 82,
          "velocity": 0.6692913385826772
        },
        {
          "duration": 0.15000000000000568,
          "durationTicks": 36,
          "midi": 58,
          "name": "A#3",
          "ticks": 19680,
          "time": 82,
          "velocity": 0.6692913385826772
        },
        {
          "duration": 0.15000000000000568,
          "durationTicks": 36,
          "midi": 65,
          "name": "F4",
          "ticks": 19680,
          "time": 82,
          "velocity": 0.5039370078740157
        },
        {
          "duration": 0.15000000000000568,
          "durationTicks": 36,
          "midi": 70,
          "name": "A#4",
          "ticks": 19680,
          "time": 82,
          "velocity": 0.5039370078740157
        },
        {
          "duration": 0.15000000000000568,
          "durationTicks": 36,
          "midi": 70,
          "name": "A#4",
          "ticks": 19740,
          "time": 82.25,
          "velocity": 0.5039370078740157
        },
        {
          "duration": 0.15000000000000568,
          "durationTicks": 36,
          "midi": 58,
          "name": "A#3",
          "ticks": 19740,
          "time": 82.25,
          "velocity": 0.6692913385826772
        },
        {
          "duration": 0.15000000000000568,
          "durationTicks": 36,
          "midi": 53,
          "name": "F3",
          "ticks": 19740,
          "time": 82.25,
          "velocity": 0.6692913385826772
        },
        {
          "duration": 0.15000000000000568,
          "durationTicks": 36,
          "midi": 65,
          "name": "F4",
          "ticks": 19740,
          "time": 82.25,
          "velocity": 0.5039370078740157
        },
        {
          "duration": 0.15000000000000568,
          "durationTicks": 36,
          "midi": 65,
          "name": "F4",
          "ticks": 19800,
          "time": 82.5,
          "velocity": 0.5039370078740157
        },
        {
          "duration": 0.15000000000000568,
          "durationTicks": 36,
          "midi": 58,
          "name": "A#3",
          "ticks": 19800,
          "time": 82.5,
          "velocity": 0.6692913385826772
        },
        {
          "duration": 0.15000000000000568,
          "durationTicks": 36,
          "midi": 53,
          "name": "F3",
          "ticks": 19800,
          "time": 82.5,
          "velocity": 0.6692913385826772
        },
        {
          "duration": 0.15000000000000568,
          "durationTicks": 36,
          "midi": 70,
          "name": "A#4",
          "ticks": 19800,
          "time": 82.5,
          "velocity": 0.5039370078740157
        },
        {
          "duration": 0.15000000000000568,
          "durationTicks": 36,
          "midi": 58,
          "name": "A#3",
          "ticks": 19860,
          "time": 82.75,
          "velocity": 0.6692913385826772
        },
        {
          "duration": 0.15000000000000568,
          "durationTicks": 36,
          "midi": 65,
          "name": "F4",
          "ticks": 19860,
          "time": 82.75,
          "velocity": 0.5039370078740157
        },
        {
          "duration": 0.15000000000000568,
          "durationTicks": 36,
          "midi": 70,
          "name": "A#4",
          "ticks": 19860,
          "time": 82.75,
          "velocity": 0.5039370078740157
        },
        {
          "duration": 0.15000000000000568,
          "durationTicks": 36,
          "midi": 53,
          "name": "F3",
          "ticks": 19860,
          "time": 82.75,
          "velocity": 0.6692913385826772
        },
        {
          "duration": 0.15000000000000568,
          "durationTicks": 36,
          "midi": 58,
          "name": "A#3",
          "ticks": 19920,
          "time": 83,
          "velocity": 0.6692913385826772
        },
        {
          "duration": 0.15000000000000568,
          "durationTicks": 36,
          "midi": 65,
          "name": "F4",
          "ticks": 19920,
          "time": 83,
          "velocity": 0.5039370078740157
        },
        {
          "duration": 0.15000000000000568,
          "durationTicks": 36,
          "midi": 53,
          "name": "F3",
          "ticks": 19920,
          "time": 83,
          "velocity": 0.6692913385826772
        },
        {
          "duration": 0.15000000000000568,
          "durationTicks": 36,
          "midi": 70,
          "name": "A#4",
          "ticks": 19920,
          "time": 83,
          "velocity": 0.5039370078740157
        },
        {
          "duration": 0.15000000000000568,
          "durationTicks": 36,
          "midi": 58,
          "name": "A#3",
          "ticks": 19980,
          "time": 83.25,
          "velocity": 0.6692913385826772
        },
        {
          "duration": 0.15000000000000568,
          "durationTicks": 36,
          "midi": 70,
          "name": "A#4",
          "ticks": 19980,
          "time": 83.25,
          "velocity": 0.5039370078740157
        },
        {
          "duration": 0.15000000000000568,
          "durationTicks": 36,
          "midi": 53,
          "name": "F3",
          "ticks": 19980,
          "time": 83.25,
          "velocity": 0.6692913385826772
        },
        {
          "duration": 0.15000000000000568,
          "durationTicks": 36,
          "midi": 65,
          "name": "F4",
          "ticks": 19980,
          "time": 83.25,
          "velocity": 0.5039370078740157
        },
        {
          "duration": 0.15000000000000568,
          "durationTicks": 36,
          "midi": 58,
          "name": "A#3",
          "ticks": 20040,
          "time": 83.5,
          "velocity": 0.6692913385826772
        },
        {
          "duration": 0.15000000000000568,
          "durationTicks": 36,
          "midi": 65,
          "name": "F4",
          "ticks": 20040,
          "time": 83.5,
          "velocity": 0.5039370078740157
        },
        {
          "duration": 0.15000000000000568,
          "durationTicks": 36,
          "midi": 53,
          "name": "F3",
          "ticks": 20040,
          "time": 83.5,
          "velocity": 0.6692913385826772
        },
        {
          "duration": 0.15000000000000568,
          "durationTicks": 36,
          "midi": 70,
          "name": "A#4",
          "ticks": 20040,
          "time": 83.5,
          "velocity": 0.5039370078740157
        },
        {
          "duration": 0.15000000000000568,
          "durationTicks": 36,
          "midi": 65,
          "name": "F4",
          "ticks": 20100,
          "time": 83.75,
          "velocity": 0.5039370078740157
        },
        {
          "duration": 0.15000000000000568,
          "durationTicks": 36,
          "midi": 70,
          "name": "A#4",
          "ticks": 20100,
          "time": 83.75,
          "velocity": 0.5039370078740157
        },
        {
          "duration": 0.15000000000000568,
          "durationTicks": 36,
          "midi": 53,
          "name": "F3",
          "ticks": 20100,
          "time": 83.75,
          "velocity": 0.6692913385826772
        },
        {
          "duration": 0.15000000000000568,
          "durationTicks": 36,
          "midi": 58,
          "name": "A#3",
          "ticks": 20100,
          "time": 83.75,
          "velocity": 0.6692913385826772
        },
        {
          "duration": 0.15000000000000568,
          "durationTicks": 36,
          "midi": 48,
          "name": "C3",
          "ticks": 20160,
          "time": 84,
          "velocity": 0.6692913385826772
        },
        {
          "duration": 0.15000000000000568,
          "durationTicks": 36,
          "midi": 53,
          "name": "F3",
          "ticks": 20160,
          "time": 84,
          "velocity": 0.6692913385826772
        },
        {
          "duration": 0.15000000000000568,
          "durationTicks": 36,
          "midi": 60,
          "name": "C4",
          "ticks": 20160,
          "time": 84,
          "velocity": 0.5039370078740157
        },
        {
          "duration": 0.15000000000000568,
          "durationTicks": 36,
          "midi": 65,
          "name": "F4",
          "ticks": 20160,
          "time": 84,
          "velocity": 0.5039370078740157
        },
        {
          "duration": 0.15000000000000568,
          "durationTicks": 36,
          "midi": 65,
          "name": "F4",
          "ticks": 20220,
          "time": 84.25,
          "velocity": 0.5039370078740157
        },
        {
          "duration": 0.15000000000000568,
          "durationTicks": 36,
          "midi": 60,
          "name": "C4",
          "ticks": 20220,
          "time": 84.25,
          "velocity": 0.5039370078740157
        },
        {
          "duration": 0.15000000000000568,
          "durationTicks": 36,
          "midi": 48,
          "name": "C3",
          "ticks": 20220,
          "time": 84.25,
          "velocity": 0.6692913385826772
        },
        {
          "duration": 0.15000000000000568,
          "durationTicks": 36,
          "midi": 53,
          "name": "F3",
          "ticks": 20220,
          "time": 84.25,
          "velocity": 0.6692913385826772
        },
        {
          "duration": 0.15000000000000568,
          "durationTicks": 36,
          "midi": 48,
          "name": "C3",
          "ticks": 20280,
          "time": 84.5,
          "velocity": 0.6692913385826772
        },
        {
          "duration": 0.15000000000000568,
          "durationTicks": 36,
          "midi": 53,
          "name": "F3",
          "ticks": 20280,
          "time": 84.5,
          "velocity": 0.6692913385826772
        },
        {
          "duration": 0.15000000000000568,
          "durationTicks": 36,
          "midi": 60,
          "name": "C4",
          "ticks": 20280,
          "time": 84.5,
          "velocity": 0.5039370078740157
        },
        {
          "duration": 0.15000000000000568,
          "durationTicks": 36,
          "midi": 65,
          "name": "F4",
          "ticks": 20280,
          "time": 84.5,
          "velocity": 0.5039370078740157
        },
        {
          "duration": 0.15000000000000568,
          "durationTicks": 36,
          "midi": 60,
          "name": "C4",
          "ticks": 20340,
          "time": 84.75,
          "velocity": 0.5039370078740157
        },
        {
          "duration": 0.15000000000000568,
          "durationTicks": 36,
          "midi": 53,
          "name": "F3",
          "ticks": 20340,
          "time": 84.75,
          "velocity": 0.6692913385826772
        },
        {
          "duration": 0.15000000000000568,
          "durationTicks": 36,
          "midi": 48,
          "name": "C3",
          "ticks": 20340,
          "time": 84.75,
          "velocity": 0.6692913385826772
        },
        {
          "duration": 0.15000000000000568,
          "durationTicks": 36,
          "midi": 65,
          "name": "F4",
          "ticks": 20340,
          "time": 84.75,
          "velocity": 0.5039370078740157
        },
        {
          "duration": 0.15000000000000568,
          "durationTicks": 36,
          "midi": 65,
          "name": "F4",
          "ticks": 20400,
          "time": 85,
          "velocity": 0.5039370078740157
        },
        {
          "duration": 0.15000000000000568,
          "durationTicks": 36,
          "midi": 53,
          "name": "F3",
          "ticks": 20400,
          "time": 85,
          "velocity": 0.6692913385826772
        },
        {
          "duration": 0.15000000000000568,
          "durationTicks": 36,
          "midi": 60,
          "name": "C4",
          "ticks": 20400,
          "time": 85,
          "velocity": 0.5039370078740157
        },
        {
          "duration": 0.15000000000000568,
          "durationTicks": 36,
          "midi": 48,
          "name": "C3",
          "ticks": 20400,
          "time": 85,
          "velocity": 0.6692913385826772
        },
        {
          "duration": 0.15000000000000568,
          "durationTicks": 36,
          "midi": 53,
          "name": "F3",
          "ticks": 20460,
          "time": 85.25,
          "velocity": 0.6692913385826772
        },
        {
          "duration": 0.15000000000000568,
          "durationTicks": 36,
          "midi": 65,
          "name": "F4",
          "ticks": 20460,
          "time": 85.25,
          "velocity": 0.5039370078740157
        },
        {
          "duration": 0.15000000000000568,
          "durationTicks": 36,
          "midi": 60,
          "name": "C4",
          "ticks": 20460,
          "time": 85.25,
          "velocity": 0.5039370078740157
        },
        {
          "duration": 0.15000000000000568,
          "durationTicks": 36,
          "midi": 48,
          "name": "C3",
          "ticks": 20460,
          "time": 85.25,
          "velocity": 0.6692913385826772
        },
        {
          "duration": 0.15000000000000568,
          "durationTicks": 36,
          "midi": 65,
          "name": "F4",
          "ticks": 20520,
          "time": 85.5,
          "velocity": 0.5039370078740157
        },
        {
          "duration": 0.15000000000000568,
          "durationTicks": 36,
          "midi": 53,
          "name": "F3",
          "ticks": 20520,
          "time": 85.5,
          "velocity": 0.6692913385826772
        },
        {
          "duration": 0.15000000000000568,
          "durationTicks": 36,
          "midi": 60,
          "name": "C4",
          "ticks": 20520,
          "time": 85.5,
          "velocity": 0.5039370078740157
        },
        {
          "duration": 0.15000000000000568,
          "durationTicks": 36,
          "midi": 48,
          "name": "C3",
          "ticks": 20520,
          "time": 85.5,
          "velocity": 0.6692913385826772
        },
        {
          "duration": 0.15000000000000568,
          "durationTicks": 36,
          "midi": 60,
          "name": "C4",
          "ticks": 20580,
          "time": 85.75,
          "velocity": 0.5039370078740157
        },
        {
          "duration": 0.15000000000000568,
          "durationTicks": 36,
          "midi": 48,
          "name": "C3",
          "ticks": 20580,
          "time": 85.75,
          "velocity": 0.6692913385826772
        },
        {
          "duration": 0.15000000000000568,
          "durationTicks": 36,
          "midi": 53,
          "name": "F3",
          "ticks": 20580,
          "time": 85.75,
          "velocity": 0.6692913385826772
        },
        {
          "duration": 0.15000000000000568,
          "durationTicks": 36,
          "midi": 65,
          "name": "F4",
          "ticks": 20580,
          "time": 85.75,
          "velocity": 0.5039370078740157
        },
        {
          "duration": 0.15000000000000568,
          "durationTicks": 36,
          "midi": 48,
          "name": "C3",
          "ticks": 20640,
          "time": 86,
          "velocity": 0.6692913385826772
        },
        {
          "duration": 0.15000000000000568,
          "durationTicks": 36,
          "midi": 67,
          "name": "G4",
          "ticks": 20640,
          "time": 86,
          "velocity": 0.5039370078740157
        },
        {
          "duration": 0.15000000000000568,
          "durationTicks": 36,
          "midi": 60,
          "name": "C4",
          "ticks": 20640,
          "time": 86,
          "velocity": 0.5039370078740157
        },
        {
          "duration": 0.15000000000000568,
          "durationTicks": 36,
          "midi": 55,
          "name": "G3",
          "ticks": 20640,
          "time": 86,
          "velocity": 0.6692913385826772
        },
        {
          "duration": 0.15000000000000568,
          "durationTicks": 36,
          "midi": 55,
          "name": "G3",
          "ticks": 20700,
          "time": 86.25,
          "velocity": 0.6692913385826772
        },
        {
          "duration": 0.15000000000000568,
          "durationTicks": 36,
          "midi": 48,
          "name": "C3",
          "ticks": 20700,
          "time": 86.25,
          "velocity": 0.6692913385826772
        },
        {
          "duration": 0.15000000000000568,
          "durationTicks": 36,
          "midi": 60,
          "name": "C4",
          "ticks": 20700,
          "time": 86.25,
          "velocity": 0.5039370078740157
        },
        {
          "duration": 0.15000000000000568,
          "durationTicks": 36,
          "midi": 67,
          "name": "G4",
          "ticks": 20700,
          "time": 86.25,
          "velocity": 0.5039370078740157
        },
        {
          "duration": 0.15000000000000568,
          "durationTicks": 36,
          "midi": 48,
          "name": "C3",
          "ticks": 20760,
          "time": 86.5,
          "velocity": 0.6692913385826772
        },
        {
          "duration": 0.15000000000000568,
          "durationTicks": 36,
          "midi": 67,
          "name": "G4",
          "ticks": 20760,
          "time": 86.5,
          "velocity": 0.5039370078740157
        },
        {
          "duration": 0.15000000000000568,
          "durationTicks": 36,
          "midi": 60,
          "name": "C4",
          "ticks": 20760,
          "time": 86.5,
          "velocity": 0.5039370078740157
        },
        {
          "duration": 0.15000000000000568,
          "durationTicks": 36,
          "midi": 55,
          "name": "G3",
          "ticks": 20760,
          "time": 86.5,
          "velocity": 0.6692913385826772
        },
        {
          "duration": 0.15000000000000568,
          "durationTicks": 36,
          "midi": 55,
          "name": "G3",
          "ticks": 20820,
          "time": 86.75,
          "velocity": 0.6692913385826772
        },
        {
          "duration": 0.15000000000000568,
          "durationTicks": 36,
          "midi": 48,
          "name": "C3",
          "ticks": 20820,
          "time": 86.75,
          "velocity": 0.6692913385826772
        },
        {
          "duration": 0.15000000000000568,
          "durationTicks": 36,
          "midi": 60,
          "name": "C4",
          "ticks": 20820,
          "time": 86.75,
          "velocity": 0.5039370078740157
        },
        {
          "duration": 0.15000000000000568,
          "durationTicks": 36,
          "midi": 67,
          "name": "G4",
          "ticks": 20820,
          "time": 86.75,
          "velocity": 0.5039370078740157
        },
        {
          "duration": 0.15000000000000568,
          "durationTicks": 36,
          "midi": 67,
          "name": "G4",
          "ticks": 20880,
          "time": 87,
          "velocity": 0.5039370078740157
        },
        {
          "duration": 0.15000000000000568,
          "durationTicks": 36,
          "midi": 60,
          "name": "C4",
          "ticks": 20880,
          "time": 87,
          "velocity": 0.5039370078740157
        },
        {
          "duration": 0.15000000000000568,
          "durationTicks": 36,
          "midi": 48,
          "name": "C3",
          "ticks": 20880,
          "time": 87,
          "velocity": 0.6692913385826772
        },
        {
          "duration": 0.15000000000000568,
          "durationTicks": 36,
          "midi": 55,
          "name": "G3",
          "ticks": 20880,
          "time": 87,
          "velocity": 0.6692913385826772
        },
        {
          "duration": 0.15000000000000568,
          "durationTicks": 36,
          "midi": 67,
          "name": "G4",
          "ticks": 20940,
          "time": 87.25,
          "velocity": 0.5039370078740157
        },
        {
          "duration": 0.15000000000000568,
          "durationTicks": 36,
          "midi": 55,
          "name": "G3",
          "ticks": 20940,
          "time": 87.25,
          "velocity": 0.6692913385826772
        },
        {
          "duration": 0.15000000000000568,
          "durationTicks": 36,
          "midi": 60,
          "name": "C4",
          "ticks": 20940,
          "time": 87.25,
          "velocity": 0.5039370078740157
        },
        {
          "duration": 0.15000000000000568,
          "durationTicks": 36,
          "midi": 48,
          "name": "C3",
          "ticks": 20940,
          "time": 87.25,
          "velocity": 0.6692913385826772
        },
        {
          "duration": 0.15000000000000568,
          "durationTicks": 36,
          "midi": 48,
          "name": "C3",
          "ticks": 21000,
          "time": 87.5,
          "velocity": 0.6692913385826772
        },
        {
          "duration": 0.15000000000000568,
          "durationTicks": 36,
          "midi": 67,
          "name": "G4",
          "ticks": 21000,
          "time": 87.5,
          "velocity": 0.5039370078740157
        },
        {
          "duration": 0.15000000000000568,
          "durationTicks": 36,
          "midi": 60,
          "name": "C4",
          "ticks": 21000,
          "time": 87.5,
          "velocity": 0.5039370078740157
        },
        {
          "duration": 0.15000000000000568,
          "durationTicks": 36,
          "midi": 55,
          "name": "G3",
          "ticks": 21000,
          "time": 87.5,
          "velocity": 0.6692913385826772
        },
        {
          "duration": 0.15000000000000568,
          "durationTicks": 36,
          "midi": 67,
          "name": "G4",
          "ticks": 21060,
          "time": 87.75,
          "velocity": 0.5039370078740157
        },
        {
          "duration": 0.15000000000000568,
          "durationTicks": 36,
          "midi": 55,
          "name": "G3",
          "ticks": 21060,
          "time": 87.75,
          "velocity": 0.6692913385826772
        },
        {
          "duration": 0.15000000000000568,
          "durationTicks": 36,
          "midi": 60,
          "name": "C4",
          "ticks": 21060,
          "time": 87.75,
          "velocity": 0.5039370078740157
        },
        {
          "duration": 0.15000000000000568,
          "durationTicks": 36,
          "midi": 48,
          "name": "C3",
          "ticks": 21060,
          "time": 87.75,
          "velocity": 0.6692913385826772
        },
        {
          "duration": 1.9500000000000028,
          "durationTicks": 468,
          "midi": 55,
          "name": "G3",
          "ticks": 21120,
          "time": 88,
          "velocity": 0.6692913385826772
        },
        {
          "duration": 1.9500000000000028,
          "durationTicks": 468,
          "midi": 62,
          "name": "D4",
          "ticks": 21120,
          "time": 88,
          "velocity": 0.6692913385826772
        },
        {
          "duration": 2.9666666666666686,
          "durationTicks": 712,
          "midi": 79,
          "name": "G5",
          "ticks": 26160,
          "time": 109,
          "velocity": 0.8346456692913385
        },
        {
          "duration": 2.950000000000003,
          "durationTicks": 708,
          "midi": 67,
          "name": "G4",
          "ticks": 26160,
          "time": 109,
          "velocity": 0.5039370078740157
        },
        {
          "duration": 2.9833333333333343,
          "durationTicks": 716,
          "midi": 74,
          "name": "D5",
          "ticks": 26160,
          "time": 109,
          "velocity": 0.8346456692913385
        },
        {
          "duration": 0.15000000000000568,
          "durationTicks": 36,
          "midi": 67,
          "name": "G4",
          "ticks": 26880,
          "time": 112,
          "velocity": 0.5039370078740157
        },
        {
          "duration": 0.15000000000000568,
          "durationTicks": 36,
          "midi": 50,
          "name": "D3",
          "ticks": 26880,
          "time": 112,
          "velocity": 0.6692913385826772
        },
        {
          "duration": 0.15000000000000568,
          "durationTicks": 36,
          "midi": 62,
          "name": "D4",
          "ticks": 26880,
          "time": 112,
          "velocity": 0.5039370078740157
        },
        {
          "duration": 0.15000000000000568,
          "durationTicks": 36,
          "midi": 55,
          "name": "G3",
          "ticks": 26880,
          "time": 112,
          "velocity": 0.6692913385826772
        },
        {
          "duration": 0.15000000000000568,
          "durationTicks": 36,
          "midi": 62,
          "name": "D4",
          "ticks": 26940,
          "time": 112.25,
          "velocity": 0.5039370078740157
        },
        {
          "duration": 0.15000000000000568,
          "durationTicks": 36,
          "midi": 55,
          "name": "G3",
          "ticks": 26940,
          "time": 112.25,
          "velocity": 0.6692913385826772
        },
        {
          "duration": 0.15000000000000568,
          "durationTicks": 36,
          "midi": 67,
          "name": "G4",
          "ticks": 26940,
          "time": 112.25,
          "velocity": 0.5039370078740157
        },
        {
          "duration": 0.15000000000000568,
          "durationTicks": 36,
          "midi": 50,
          "name": "D3",
          "ticks": 26940,
          "time": 112.25,
          "velocity": 0.6692913385826772
        },
        {
          "duration": 0.15000000000000568,
          "durationTicks": 36,
          "midi": 62,
          "name": "D4",
          "ticks": 27000,
          "time": 112.5,
          "velocity": 0.5039370078740157
        },
        {
          "duration": 0.15000000000000568,
          "durationTicks": 36,
          "midi": 50,
          "name": "D3",
          "ticks": 27000,
          "time": 112.5,
          "velocity": 0.6692913385826772
        },
        {
          "duration": 0.15000000000000568,
          "durationTicks": 36,
          "midi": 55,
          "name": "G3",
          "ticks": 27000,
          "time": 112.5,
          "velocity": 0.6692913385826772
        },
        {
          "duration": 0.15000000000000568,
          "durationTicks": 36,
          "midi": 67,
          "name": "G4",
          "ticks": 27000,
          "time": 112.5,
          "velocity": 0.5039370078740157
        },
        {
          "duration": 0.15000000000000568,
          "durationTicks": 36,
          "midi": 62,
          "name": "D4",
          "ticks": 27060,
          "time": 112.75,
          "velocity": 0.5039370078740157
        },
        {
          "duration": 0.15000000000000568,
          "durationTicks": 36,
          "midi": 50,
          "name": "D3",
          "ticks": 27060,
          "time": 112.75,
          "velocity": 0.6692913385826772
        },
        {
          "duration": 0.15000000000000568,
          "durationTicks": 36,
          "midi": 55,
          "name": "G3",
          "ticks": 27060,
          "time": 112.75,
          "velocity": 0.6692913385826772
        },
        {
          "duration": 0.15000000000000568,
          "durationTicks": 36,
          "midi": 67,
          "name": "G4",
          "ticks": 27060,
          "time": 112.75,
          "velocity": 0.5039370078740157
        },
        {
          "duration": 0.15000000000000568,
          "durationTicks": 36,
          "midi": 50,
          "name": "D3",
          "ticks": 27120,
          "time": 113,
          "velocity": 0.6692913385826772
        },
        {
          "duration": 0.15000000000000568,
          "durationTicks": 36,
          "midi": 55,
          "name": "G3",
          "ticks": 27120,
          "time": 113,
          "velocity": 0.6692913385826772
        },
        {
          "duration": 0.15000000000000568,
          "durationTicks": 36,
          "midi": 62,
          "name": "D4",
          "ticks": 27120,
          "time": 113,
          "velocity": 0.5039370078740157
        },
        {
          "duration": 0.15000000000000568,
          "durationTicks": 36,
          "midi": 67,
          "name": "G4",
          "ticks": 27120,
          "time": 113,
          "velocity": 0.5039370078740157
        },
        {
          "duration": 0.15000000000000568,
          "durationTicks": 36,
          "midi": 67,
          "name": "G4",
          "ticks": 27180,
          "time": 113.25,
          "velocity": 0.5039370078740157
        },
        {
          "duration": 0.15000000000000568,
          "durationTicks": 36,
          "midi": 62,
          "name": "D4",
          "ticks": 27180,
          "time": 113.25,
          "velocity": 0.5039370078740157
        },
        {
          "duration": 0.15000000000000568,
          "durationTicks": 36,
          "midi": 50,
          "name": "D3",
          "ticks": 27180,
          "time": 113.25,
          "velocity": 0.6692913385826772
        },
        {
          "duration": 0.15000000000000568,
          "durationTicks": 36,
          "midi": 55,
          "name": "G3",
          "ticks": 27180,
          "time": 113.25,
          "velocity": 0.6692913385826772
        },
        {
          "duration": 0.15000000000000568,
          "durationTicks": 36,
          "midi": 62,
          "name": "D4",
          "ticks": 27240,
          "time": 113.5,
          "velocity": 0.5039370078740157
        },
        {
          "duration": 0.15000000000000568,
          "durationTicks": 36,
          "midi": 50,
          "name": "D3",
          "ticks": 27240,
          "time": 113.5,
          "velocity": 0.6692913385826772
        },
        {
          "duration": 0.15000000000000568,
          "durationTicks": 36,
          "midi": 55,
          "name": "G3",
          "ticks": 27240,
          "time": 113.5,
          "velocity": 0.6692913385826772
        },
        {
          "duration": 0.15000000000000568,
          "durationTicks": 36,
          "midi": 67,
          "name": "G4",
          "ticks": 27240,
          "time": 113.5,
          "velocity": 0.5039370078740157
        },
        {
          "duration": 0.15000000000000568,
          "durationTicks": 36,
          "midi": 67,
          "name": "G4",
          "ticks": 27300,
          "time": 113.75,
          "velocity": 0.5039370078740157
        },
        {
          "duration": 0.15000000000000568,
          "durationTicks": 36,
          "midi": 55,
          "name": "G3",
          "ticks": 27300,
          "time": 113.75,
          "velocity": 0.6692913385826772
        },
        {
          "duration": 0.15000000000000568,
          "durationTicks": 36,
          "midi": 62,
          "name": "D4",
          "ticks": 27300,
          "time": 113.75,
          "velocity": 0.5039370078740157
        },
        {
          "duration": 0.15000000000000568,
          "durationTicks": 36,
          "midi": 50,
          "name": "D3",
          "ticks": 27300,
          "time": 113.75,
          "velocity": 0.6692913385826772
        },
        {
          "duration": 0.15000000000000568,
          "durationTicks": 36,
          "midi": 70,
          "name": "A#4",
          "ticks": 27360,
          "time": 114,
          "velocity": 0.5039370078740157
        },
        {
          "duration": 0.15000000000000568,
          "durationTicks": 36,
          "midi": 53,
          "name": "F3",
          "ticks": 27360,
          "time": 114,
          "velocity": 0.6692913385826772
        },
        {
          "duration": 0.15000000000000568,
          "durationTicks": 36,
          "midi": 58,
          "name": "A#3",
          "ticks": 27360,
          "time": 114,
          "velocity": 0.6692913385826772
        },
        {
          "duration": 0.15000000000000568,
          "durationTicks": 36,
          "midi": 65,
          "name": "F4",
          "ticks": 27360,
          "time": 114,
          "velocity": 0.5039370078740157
        },
        {
          "duration": 0.15000000000000568,
          "durationTicks": 36,
          "midi": 70,
          "name": "A#4",
          "ticks": 27420,
          "time": 114.25,
          "velocity": 0.5039370078740157
        },
        {
          "duration": 0.15000000000000568,
          "durationTicks": 36,
          "midi": 65,
          "name": "F4",
          "ticks": 27420,
          "time": 114.25,
          "velocity": 0.5039370078740157
        },
        {
          "duration": 0.15000000000000568,
          "durationTicks": 36,
          "midi": 58,
          "name": "A#3",
          "ticks": 27420,
          "time": 114.25,
          "velocity": 0.6692913385826772
        },
        {
          "duration": 0.15000000000000568,
          "durationTicks": 36,
          "midi": 53,
          "name": "F3",
          "ticks": 27420,
          "time": 114.25,
          "velocity": 0.6692913385826772
        },
        {
          "duration": 0.15000000000000568,
          "durationTicks": 36,
          "midi": 53,
          "name": "F3",
          "ticks": 27480,
          "time": 114.5,
          "velocity": 0.6692913385826772
        },
        {
          "duration": 0.15000000000000568,
          "durationTicks": 36,
          "midi": 70,
          "name": "A#4",
          "ticks": 27480,
          "time": 114.5,
          "velocity": 0.5039370078740157
        },
        {
          "duration": 0.15000000000000568,
          "durationTicks": 36,
          "midi": 58,
          "name": "A#3",
          "ticks": 27480,
          "time": 114.5,
          "velocity": 0.6692913385826772
        },
        {
          "duration": 0.15000000000000568,
          "durationTicks": 36,
          "midi": 65,
          "name": "F4",
          "ticks": 27480,
          "time": 114.5,
          "velocity": 0.5039370078740157
        },
        {
          "duration": 0.15000000000000568,
          "durationTicks": 36,
          "midi": 53,
          "name": "F3",
          "ticks": 27540,
          "time": 114.75,
          "velocity": 0.6692913385826772
        },
        {
          "duration": 0.15000000000000568,
          "durationTicks": 36,
          "midi": 65,
          "name": "F4",
          "ticks": 27540,
          "time": 114.75,
          "velocity": 0.5039370078740157
        },
        {
          "duration": 0.15000000000000568,
          "durationTicks": 36,
          "midi": 58,
          "name": "A#3",
          "ticks": 27540,
          "time": 114.75,
          "velocity": 0.6692913385826772
        },
        {
          "duration": 0.15000000000000568,
          "durationTicks": 36,
          "midi": 70,
          "name": "A#4",
          "ticks": 27540,
          "time": 114.75,
          "velocity": 0.5039370078740157
        },
        {
          "duration": 0.15000000000000568,
          "durationTicks": 36,
          "midi": 70,
          "name": "A#4",
          "ticks": 27600,
          "time": 115,
          "velocity": 0.5039370078740157
        },
        {
          "duration": 0.15000000000000568,
          "durationTicks": 36,
          "midi": 65,
          "name": "F4",
          "ticks": 27600,
          "time": 115,
          "velocity": 0.5039370078740157
        },
        {
          "duration": 0.15000000000000568,
          "durationTicks": 36,
          "midi": 53,
          "name": "F3",
          "ticks": 27600,
          "time": 115,
          "velocity": 0.6692913385826772
        },
        {
          "duration": 0.15000000000000568,
          "durationTicks": 36,
          "midi": 58,
          "name": "A#3",
          "ticks": 27600,
          "time": 115,
          "velocity": 0.6692913385826772
        },
        {
          "duration": 0.15000000000000568,
          "durationTicks": 36,
          "midi": 70,
          "name": "A#4",
          "ticks": 27660,
          "time": 115.25,
          "velocity": 0.5039370078740157
        },
        {
          "duration": 0.15000000000000568,
          "durationTicks": 36,
          "midi": 58,
          "name": "A#3",
          "ticks": 27660,
          "time": 115.25,
          "velocity": 0.6692913385826772
        },
        {
          "duration": 0.15000000000000568,
          "durationTicks": 36,
          "midi": 65,
          "name": "F4",
          "ticks": 27660,
          "time": 115.25,
          "velocity": 0.5039370078740157
        },
        {
          "duration": 0.15000000000000568,
          "durationTicks": 36,
          "midi": 53,
          "name": "F3",
          "ticks": 27660,
          "time": 115.25,
          "velocity": 0.6692913385826772
        },
        {
          "duration": 0.15000000000000568,
          "durationTicks": 36,
          "midi": 70,
          "name": "A#4",
          "ticks": 27720,
          "time": 115.5,
          "velocity": 0.5039370078740157
        },
        {
          "duration": 0.15000000000000568,
          "durationTicks": 36,
          "midi": 58,
          "name": "A#3",
          "ticks": 27720,
          "time": 115.5,
          "velocity": 0.6692913385826772
        },
        {
          "duration": 0.15000000000000568,
          "durationTicks": 36,
          "midi": 65,
          "name": "F4",
          "ticks": 27720,
          "time": 115.5,
          "velocity": 0.5039370078740157
        },
        {
          "duration": 0.15000000000000568,
          "durationTicks": 36,
          "midi": 53,
          "name": "F3",
          "ticks": 27720,
          "time": 115.5,
          "velocity": 0.6692913385826772
        },
        {
          "duration": 0.15000000000000568,
          "durationTicks": 36,
          "midi": 65,
          "name": "F4",
          "ticks": 27780,
          "time": 115.75,
          "velocity": 0.5039370078740157
        },
        {
          "duration": 0.15000000000000568,
          "durationTicks": 36,
          "midi": 70,
          "name": "A#4",
          "ticks": 27780,
          "time": 115.75,
          "velocity": 0.5039370078740157
        },
        {
          "duration": 0.15000000000000568,
          "durationTicks": 36,
          "midi": 58,
          "name": "A#3",
          "ticks": 27780,
          "time": 115.75,
          "velocity": 0.6692913385826772
        },
        {
          "duration": 0.15000000000000568,
          "durationTicks": 36,
          "midi": 53,
          "name": "F3",
          "ticks": 27780,
          "time": 115.75,
          "velocity": 0.6692913385826772
        },
        {
          "duration": 0.15000000000000568,
          "durationTicks": 36,
          "midi": 48,
          "name": "C3",
          "ticks": 27840,
          "time": 116,
          "velocity": 0.6692913385826772
        },
        {
          "duration": 0.15000000000000568,
          "durationTicks": 36,
          "midi": 53,
          "name": "F3",
          "ticks": 27840,
          "time": 116,
          "velocity": 0.6692913385826772
        },
        {
          "duration": 0.15000000000000568,
          "durationTicks": 36,
          "midi": 65,
          "name": "F4",
          "ticks": 27840,
          "time": 116,
          "velocity": 0.5039370078740157
        },
        {
          "duration": 0.15000000000000568,
          "durationTicks": 36,
          "midi": 60,
          "name": "C4",
          "ticks": 27840,
          "time": 116,
          "velocity": 0.5039370078740157
        },
        {
          "duration": 0.15000000000000568,
          "durationTicks": 36,
          "midi": 48,
          "name": "C3",
          "ticks": 27900,
          "time": 116.25,
          "velocity": 0.6692913385826772
        },
        {
          "duration": 0.15000000000000568,
          "durationTicks": 36,
          "midi": 65,
          "name": "F4",
          "ticks": 27900,
          "time": 116.25,
          "velocity": 0.5039370078740157
        },
        {
          "duration": 0.15000000000000568,
          "durationTicks": 36,
          "midi": 53,
          "name": "F3",
          "ticks": 27900,
          "time": 116.25,
          "velocity": 0.6692913385826772
        },
        {
          "duration": 0.15000000000000568,
          "durationTicks": 36,
          "midi": 60,
          "name": "C4",
          "ticks": 27900,
          "time": 116.25,
          "velocity": 0.5039370078740157
        },
        {
          "duration": 0.15000000000000568,
          "durationTicks": 36,
          "midi": 60,
          "name": "C4",
          "ticks": 27960,
          "time": 116.5,
          "velocity": 0.5039370078740157
        },
        {
          "duration": 0.15000000000000568,
          "durationTicks": 36,
          "midi": 53,
          "name": "F3",
          "ticks": 27960,
          "time": 116.5,
          "velocity": 0.6692913385826772
        },
        {
          "duration": 0.15000000000000568,
          "durationTicks": 36,
          "midi": 48,
          "name": "C3",
          "ticks": 27960,
          "time": 116.5,
          "velocity": 0.6692913385826772
        },
        {
          "duration": 0.15000000000000568,
          "durationTicks": 36,
          "midi": 65,
          "name": "F4",
          "ticks": 27960,
          "time": 116.5,
          "velocity": 0.5039370078740157
        },
        {
          "duration": 0.15000000000000568,
          "durationTicks": 36,
          "midi": 53,
          "name": "F3",
          "ticks": 28020,
          "time": 116.75,
          "velocity": 0.6692913385826772
        },
        {
          "duration": 0.15000000000000568,
          "durationTicks": 36,
          "midi": 65,
          "name": "F4",
          "ticks": 28020,
          "time": 116.75,
          "velocity": 0.5039370078740157
        },
        {
          "duration": 0.15000000000000568,
          "durationTicks": 36,
          "midi": 48,
          "name": "C3",
          "ticks": 28020,
          "time": 116.75,
          "velocity": 0.6692913385826772
        },
        {
          "duration": 0.15000000000000568,
          "durationTicks": 36,
          "midi": 60,
          "name": "C4",
          "ticks": 28020,
          "time": 116.75,
          "velocity": 0.5039370078740157
        },
        {
          "duration": 0.15000000000000568,
          "durationTicks": 36,
          "midi": 60,
          "name": "C4",
          "ticks": 28080,
          "time": 117,
          "velocity": 0.5039370078740157
        },
        {
          "duration": 0.15000000000000568,
          "durationTicks": 36,
          "midi": 53,
          "name": "F3",
          "ticks": 28080,
          "time": 117,
          "velocity": 0.6692913385826772
        },
        {
          "duration": 0.15000000000000568,
          "durationTicks": 36,
          "midi": 48,
          "name": "C3",
          "ticks": 28080,
          "time": 117,
          "velocity": 0.6692913385826772
        },
        {
          "duration": 0.15000000000000568,
          "durationTicks": 36,
          "midi": 65,
          "name": "F4",
          "ticks": 28080,
          "time": 117,
          "velocity": 0.5039370078740157
        },
        {
          "duration": 0.15000000000000568,
          "durationTicks": 36,
          "midi": 65,
          "name": "F4",
          "ticks": 28140,
          "time": 117.25,
          "velocity": 0.5039370078740157
        },
        {
          "duration": 0.15000000000000568,
          "durationTicks": 36,
          "midi": 53,
          "name": "F3",
          "ticks": 28140,
          "time": 117.25,
          "velocity": 0.6692913385826772
        },
        {
          "duration": 0.15000000000000568,
          "durationTicks": 36,
          "midi": 60,
          "name": "C4",
          "ticks": 28140,
          "time": 117.25,
          "velocity": 0.5039370078740157
        },
        {
          "duration": 0.15000000000000568,
          "durationTicks": 36,
          "midi": 48,
          "name": "C3",
          "ticks": 28140,
          "time": 117.25,
          "velocity": 0.6692913385826772
        },
        {
          "duration": 0.15000000000000568,
          "durationTicks": 36,
          "midi": 60,
          "name": "C4",
          "ticks": 28200,
          "time": 117.5,
          "velocity": 0.5039370078740157
        },
        {
          "duration": 0.15000000000000568,
          "durationTicks": 36,
          "midi": 65,
          "name": "F4",
          "ticks": 28200,
          "time": 117.5,
          "velocity": 0.5039370078740157
        },
        {
          "duration": 0.15000000000000568,
          "durationTicks": 36,
          "midi": 48,
          "name": "C3",
          "ticks": 28200,
          "time": 117.5,
          "velocity": 0.6692913385826772
        },
        {
          "duration": 0.15000000000000568,
          "durationTicks": 36,
          "midi": 53,
          "name": "F3",
          "ticks": 28200,
          "time": 117.5,
          "velocity": 0.6692913385826772
        },
        {
          "duration": 0.15000000000000568,
          "durationTicks": 36,
          "midi": 48,
          "name": "C3",
          "ticks": 28260,
          "time": 117.75,
          "velocity": 0.6692913385826772
        },
        {
          "duration": 0.15000000000000568,
          "durationTicks": 36,
          "midi": 65,
          "name": "F4",
          "ticks": 28260,
          "time": 117.75,
          "velocity": 0.5039370078740157
        },
        {
          "duration": 0.15000000000000568,
          "durationTicks": 36,
          "midi": 53,
          "name": "F3",
          "ticks": 28260,
          "time": 117.75,
          "velocity": 0.6692913385826772
        },
        {
          "duration": 0.15000000000000568,
          "durationTicks": 36,
          "midi": 60,
          "name": "C4",
          "ticks": 28260,
          "time": 117.75,
          "velocity": 0.5039370078740157
        },
        {
          "duration": 0.15000000000000568,
          "durationTicks": 36,
          "midi": 67,
          "name": "G4",
          "ticks": 28320,
          "time": 118,
          "velocity": 0.5039370078740157
        },
        {
          "duration": 0.15000000000000568,
          "durationTicks": 36,
          "midi": 55,
          "name": "G3",
          "ticks": 28320,
          "time": 118,
          "velocity": 0.6692913385826772
        },
        {
          "duration": 0.15000000000000568,
          "durationTicks": 36,
          "midi": 48,
          "name": "C3",
          "ticks": 28320,
          "time": 118,
          "velocity": 0.6692913385826772
        },
        {
          "duration": 0.15000000000000568,
          "durationTicks": 36,
          "midi": 60,
          "name": "C4",
          "ticks": 28320,
          "time": 118,
          "velocity": 0.5039370078740157
        },
        {
          "duration": 0.15000000000000568,
          "durationTicks": 36,
          "midi": 55,
          "name": "G3",
          "ticks": 28380,
          "time": 118.25,
          "velocity": 0.6692913385826772
        },
        {
          "duration": 0.15000000000000568,
          "durationTicks": 36,
          "midi": 67,
          "name": "G4",
          "ticks": 28380,
          "time": 118.25,
          "velocity": 0.5039370078740157
        },
        {
          "duration": 0.15000000000000568,
          "durationTicks": 36,
          "midi": 60,
          "name": "C4",
          "ticks": 28380,
          "time": 118.25,
          "velocity": 0.5039370078740157
        },
        {
          "duration": 0.15000000000000568,
          "durationTicks": 36,
          "midi": 48,
          "name": "C3",
          "ticks": 28380,
          "time": 118.25,
          "velocity": 0.6692913385826772
        },
        {
          "duration": 0.15000000000000568,
          "durationTicks": 36,
          "midi": 67,
          "name": "G4",
          "ticks": 28440,
          "time": 118.5,
          "velocity": 0.5039370078740157
        },
        {
          "duration": 0.15000000000000568,
          "durationTicks": 36,
          "midi": 55,
          "name": "G3",
          "ticks": 28440,
          "time": 118.5,
          "velocity": 0.6692913385826772
        },
        {
          "duration": 0.15000000000000568,
          "durationTicks": 36,
          "midi": 48,
          "name": "C3",
          "ticks": 28440,
          "time": 118.5,
          "velocity": 0.6692913385826772
        },
        {
          "duration": 0.15000000000000568,
          "durationTicks": 36,
          "midi": 60,
          "name": "C4",
          "ticks": 28440,
          "time": 118.5,
          "velocity": 0.5039370078740157
        },
        {
          "duration": 0.15000000000000568,
          "durationTicks": 36,
          "midi": 60,
          "name": "C4",
          "ticks": 28500,
          "time": 118.75,
          "velocity": 0.5039370078740157
        },
        {
          "duration": 0.15000000000000568,
          "durationTicks": 36,
          "midi": 67,
          "name": "G4",
          "ticks": 28500,
          "time": 118.75,
          "velocity": 0.5039370078740157
        },
        {
          "duration": 0.15000000000000568,
          "durationTicks": 36,
          "midi": 55,
          "name": "G3",
          "ticks": 28500,
          "time": 118.75,
          "velocity": 0.6692913385826772
        },
        {
          "duration": 0.15000000000000568,
          "durationTicks": 36,
          "midi": 48,
          "name": "C3",
          "ticks": 28500,
          "time": 118.75,
          "velocity": 0.6692913385826772
        },
        {
          "duration": 0.15000000000000568,
          "durationTicks": 36,
          "midi": 48,
          "name": "C3",
          "ticks": 28560,
          "time": 119,
          "velocity": 0.6692913385826772
        },
        {
          "duration": 0.15000000000000568,
          "durationTicks": 36,
          "midi": 60,
          "name": "C4",
          "ticks": 28560,
          "time": 119,
          "velocity": 0.5039370078740157
        },
        {
          "duration": 0.15000000000000568,
          "durationTicks": 36,
          "midi": 55,
          "name": "G3",
          "ticks": 28560,
          "time": 119,
          "velocity": 0.6692913385826772
        },
        {
          "duration": 0.15000000000000568,
          "durationTicks": 36,
          "midi": 67,
          "name": "G4",
          "ticks": 28560,
          "time": 119,
          "velocity": 0.5039370078740157
        },
        {
          "duration": 0.15000000000000568,
          "durationTicks": 36,
          "midi": 55,
          "name": "G3",
          "ticks": 28620,
          "time": 119.25,
          "velocity": 0.6692913385826772
        },
        {
          "duration": 0.15000000000000568,
          "durationTicks": 36,
          "midi": 48,
          "name": "C3",
          "ticks": 28620,
          "time": 119.25,
          "velocity": 0.6692913385826772
        },
        {
          "duration": 0.15000000000000568,
          "durationTicks": 36,
          "midi": 67,
          "name": "G4",
          "ticks": 28620,
          "time": 119.25,
          "velocity": 0.5039370078740157
        },
        {
          "duration": 0.15000000000000568,
          "durationTicks": 36,
          "midi": 60,
          "name": "C4",
          "ticks": 28620,
          "time": 119.25,
          "velocity": 0.5039370078740157
        },
        {
          "duration": 0.15000000000000568,
          "durationTicks": 36,
          "midi": 55,
          "name": "G3",
          "ticks": 28680,
          "time": 119.5,
          "velocity": 0.6692913385826772
        },
        {
          "duration": 0.15000000000000568,
          "durationTicks": 36,
          "midi": 48,
          "name": "C3",
          "ticks": 28680,
          "time": 119.5,
          "velocity": 0.6692913385826772
        },
        {
          "duration": 0.15000000000000568,
          "durationTicks": 36,
          "midi": 60,
          "name": "C4",
          "ticks": 28680,
          "time": 119.5,
          "velocity": 0.5039370078740157
        },
        {
          "duration": 0.15000000000000568,
          "durationTicks": 36,
          "midi": 67,
          "name": "G4",
          "ticks": 28680,
          "time": 119.5,
          "velocity": 0.5039370078740157
        },
        {
          "duration": 0.15000000000000568,
          "durationTicks": 36,
          "midi": 60,
          "name": "C4",
          "ticks": 28740,
          "time": 119.75,
          "velocity": 0.5039370078740157
        },
        {
          "duration": 0.15000000000000568,
          "durationTicks": 36,
          "midi": 67,
          "name": "G4",
          "ticks": 28740,
          "time": 119.75,
          "velocity": 0.5039370078740157
        },
        {
          "duration": 0.15000000000000568,
          "durationTicks": 36,
          "midi": 55,
          "name": "G3",
          "ticks": 28740,
          "time": 119.75,
          "velocity": 0.6692913385826772
        },
        {
          "duration": 0.15000000000000568,
          "durationTicks": 36,
          "midi": 48,
          "name": "C3",
          "ticks": 28740,
          "time": 119.75,
          "velocity": 0.6692913385826772
        },
        {
          "duration": 0.15000000000000568,
          "durationTicks": 36,
          "midi": 62,
          "name": "D4",
          "ticks": 28800,
          "time": 120,
          "velocity": 0.5039370078740157
        },
        {
          "duration": 0.15000000000000568,
          "durationTicks": 36,
          "midi": 67,
          "name": "G4",
          "ticks": 28800,
          "time": 120,
          "velocity": 0.5039370078740157
        },
        {
          "duration": 0.15000000000000568,
          "durationTicks": 36,
          "midi": 55,
          "name": "G3",
          "ticks": 28800,
          "time": 120,
          "velocity": 0.6692913385826772
        },
        {
          "duration": 0.15000000000000568,
          "durationTicks": 36,
          "midi": 50,
          "name": "D3",
          "ticks": 28800,
          "time": 120,
          "velocity": 0.6692913385826772
        },
        {
          "duration": 0.15000000000000568,
          "durationTicks": 36,
          "midi": 62,
          "name": "D4",
          "ticks": 28860,
          "time": 120.25,
          "velocity": 0.5039370078740157
        },
        {
          "duration": 0.15000000000000568,
          "durationTicks": 36,
          "midi": 55,
          "name": "G3",
          "ticks": 28860,
          "time": 120.25,
          "velocity": 0.6692913385826772
        },
        {
          "duration": 0.15000000000000568,
          "durationTicks": 36,
          "midi": 67,
          "name": "G4",
          "ticks": 28860,
          "time": 120.25,
          "velocity": 0.5039370078740157
        },
        {
          "duration": 0.15000000000000568,
          "durationTicks": 36,
          "midi": 50,
          "name": "D3",
          "ticks": 28860,
          "time": 120.25,
          "velocity": 0.6692913385826772
        },
        {
          "duration": 0.15000000000000568,
          "durationTicks": 36,
          "midi": 55,
          "name": "G3",
          "ticks": 28920,
          "time": 120.5,
          "velocity": 0.6692913385826772
        },
        {
          "duration": 0.15000000000000568,
          "durationTicks": 36,
          "midi": 50,
          "name": "D3",
          "ticks": 28920,
          "time": 120.5,
          "velocity": 0.6692913385826772
        },
        {
          "duration": 0.15000000000000568,
          "durationTicks": 36,
          "midi": 62,
          "name": "D4",
          "ticks": 28920,
          "time": 120.5,
          "velocity": 0.5039370078740157
        },
        {
          "duration": 0.15000000000000568,
          "durationTicks": 36,
          "midi": 67,
          "name": "G4",
          "ticks": 28920,
          "time": 120.5,
          "velocity": 0.5039370078740157
        },
        {
          "duration": 0.15000000000000568,
          "durationTicks": 36,
          "midi": 67,
          "name": "G4",
          "ticks": 28980,
          "time": 120.75,
          "velocity": 0.5039370078740157
        },
        {
          "duration": 0.15000000000000568,
          "durationTicks": 36,
          "midi": 55,
          "name": "G3",
          "ticks": 28980,
          "time": 120.75,
          "velocity": 0.6692913385826772
        },
        {
          "duration": 0.15000000000000568,
          "durationTicks": 36,
          "midi": 50,
          "name": "D3",
          "ticks": 28980,
          "time": 120.75,
          "velocity": 0.6692913385826772
        },
        {
          "duration": 0.15000000000000568,
          "durationTicks": 36,
          "midi": 62,
          "name": "D4",
          "ticks": 28980,
          "time": 120.75,
          "velocity": 0.5039370078740157
        },
        {
          "duration": 0.15000000000000568,
          "durationTicks": 36,
          "midi": 55,
          "name": "G3",
          "ticks": 29040,
          "time": 121,
          "velocity": 0.6692913385826772
        },
        {
          "duration": 0.15000000000000568,
          "durationTicks": 36,
          "midi": 62,
          "name": "D4",
          "ticks": 29040,
          "time": 121,
          "velocity": 0.5039370078740157
        },
        {
          "duration": 0.15000000000000568,
          "durationTicks": 36,
          "midi": 67,
          "name": "G4",
          "ticks": 29040,
          "time": 121,
          "velocity": 0.5039370078740157
        },
        {
          "duration": 0.15000000000000568,
          "durationTicks": 36,
          "midi": 50,
          "name": "D3",
          "ticks": 29040,
          "time": 121,
          "velocity": 0.6692913385826772
        },
        {
          "duration": 0.15000000000000568,
          "durationTicks": 36,
          "midi": 55,
          "name": "G3",
          "ticks": 29100,
          "time": 121.25,
          "velocity": 0.6692913385826772
        },
        {
          "duration": 0.15000000000000568,
          "durationTicks": 36,
          "midi": 67,
          "name": "G4",
          "ticks": 29100,
          "time": 121.25,
          "velocity": 0.5039370078740157
        },
        {
          "duration": 0.15000000000000568,
          "durationTicks": 36,
          "midi": 50,
          "name": "D3",
          "ticks": 29100,
          "time": 121.25,
          "velocity": 0.6692913385826772
        },
        {
          "duration": 0.15000000000000568,
          "durationTicks": 36,
          "midi": 62,
          "name": "D4",
          "ticks": 29100,
          "time": 121.25,
          "velocity": 0.5039370078740157
        },
        {
          "duration": 0.15000000000000568,
          "durationTicks": 36,
          "midi": 67,
          "name": "G4",
          "ticks": 29160,
          "time": 121.5,
          "velocity": 0.5039370078740157
        },
        {
          "duration": 0.15000000000000568,
          "durationTicks": 36,
          "midi": 62,
          "name": "D4",
          "ticks": 29160,
          "time": 121.5,
          "velocity": 0.5039370078740157
        },
        {
          "duration": 0.15000000000000568,
          "durationTicks": 36,
          "midi": 55,
          "name": "G3",
          "ticks": 29160,
          "time": 121.5,
          "velocity": 0.6692913385826772
        },
        {
          "duration": 0.15000000000000568,
          "durationTicks": 36,
          "midi": 50,
          "name": "D3",
          "ticks": 29160,
          "time": 121.5,
          "velocity": 0.6692913385826772
        },
        {
          "duration": 0.15000000000000568,
          "durationTicks": 36,
          "midi": 67,
          "name": "G4",
          "ticks": 29220,
          "time": 121.75,
          "velocity": 0.5039370078740157
        },
        {
          "duration": 0.15000000000000568,
          "durationTicks": 36,
          "midi": 62,
          "name": "D4",
          "ticks": 29220,
          "time": 121.75,
          "velocity": 0.5039370078740157
        },
        {
          "duration": 0.15000000000000568,
          "durationTicks": 36,
          "midi": 50,
          "name": "D3",
          "ticks": 29220,
          "time": 121.75,
          "velocity": 0.6692913385826772
        },
        {
          "duration": 0.15000000000000568,
          "durationTicks": 36,
          "midi": 55,
          "name": "G3",
          "ticks": 29220,
          "time": 121.75,
          "velocity": 0.6692913385826772
        },
        {
          "duration": 0.15000000000000568,
          "durationTicks": 36,
          "midi": 58,
          "name": "A#3",
          "ticks": 29280,
          "time": 122,
          "velocity": 0.6692913385826772
        },
        {
          "duration": 0.15000000000000568,
          "durationTicks": 36,
          "midi": 70,
          "name": "A#4",
          "ticks": 29280,
          "time": 122,
          "velocity": 0.5039370078740157
        },
        {
          "duration": 0.15000000000000568,
          "durationTicks": 36,
          "midi": 53,
          "name": "F3",
          "ticks": 29280,
          "time": 122,
          "velocity": 0.6692913385826772
        },
        {
          "duration": 0.15000000000000568,
          "durationTicks": 36,
          "midi": 65,
          "name": "F4",
          "ticks": 29280,
          "time": 122,
          "velocity": 0.5039370078740157
        },
        {
          "duration": 0.15000000000000568,
          "durationTicks": 36,
          "midi": 65,
          "name": "F4",
          "ticks": 29340,
          "time": 122.25,
          "velocity": 0.5039370078740157
        },
        {
          "duration": 0.15000000000000568,
          "durationTicks": 36,
          "midi": 58,
          "name": "A#3",
          "ticks": 29340,
          "time": 122.25,
          "velocity": 0.6692913385826772
        },
        {
          "duration": 0.15000000000000568,
          "durationTicks": 36,
          "midi": 53,
          "name": "F3",
          "ticks": 29340,
          "time": 122.25,
          "velocity": 0.6692913385826772
        },
        {
          "duration": 0.15000000000000568,
          "durationTicks": 36,
          "midi": 70,
          "name": "A#4",
          "ticks": 29340,
          "time": 122.25,
          "velocity": 0.5039370078740157
        },
        {
          "duration": 0.15000000000000568,
          "durationTicks": 36,
          "midi": 58,
          "name": "A#3",
          "ticks": 29400,
          "time": 122.5,
          "velocity": 0.6692913385826772
        },
        {
          "duration": 0.15000000000000568,
          "durationTicks": 36,
          "midi": 53,
          "name": "F3",
          "ticks": 29400,
          "time": 122.5,
          "velocity": 0.6692913385826772
        },
        {
          "duration": 0.15000000000000568,
          "durationTicks": 36,
          "midi": 70,
          "name": "A#4",
          "ticks": 29400,
          "time": 122.5,
          "velocity": 0.5039370078740157
        },
        {
          "duration": 0.15000000000000568,
          "durationTicks": 36,
          "midi": 65,
          "name": "F4",
          "ticks": 29400,
          "time": 122.5,
          "velocity": 0.5039370078740157
        },
        {
          "duration": 0.15000000000000568,
          "durationTicks": 36,
          "midi": 70,
          "name": "A#4",
          "ticks": 29460,
          "time": 122.75,
          "velocity": 0.5039370078740157
        },
        {
          "duration": 0.15000000000000568,
          "durationTicks": 36,
          "midi": 65,
          "name": "F4",
          "ticks": 29460,
          "time": 122.75,
          "velocity": 0.5039370078740157
        },
        {
          "duration": 0.15000000000000568,
          "durationTicks": 36,
          "midi": 53,
          "name": "F3",
          "ticks": 29460,
          "time": 122.75,
          "velocity": 0.6692913385826772
        },
        {
          "duration": 0.15000000000000568,
          "durationTicks": 36,
          "midi": 58,
          "name": "A#3",
          "ticks": 29460,
          "time": 122.75,
          "velocity": 0.6692913385826772
        },
        {
          "duration": 0.15000000000000568,
          "durationTicks": 36,
          "midi": 53,
          "name": "F3",
          "ticks": 29520,
          "time": 123,
          "velocity": 0.6692913385826772
        },
        {
          "duration": 0.15000000000000568,
          "durationTicks": 36,
          "midi": 70,
          "name": "A#4",
          "ticks": 29520,
          "time": 123,
          "velocity": 0.5039370078740157
        },
        {
          "duration": 0.15000000000000568,
          "durationTicks": 36,
          "midi": 65,
          "name": "F4",
          "ticks": 29520,
          "time": 123,
          "velocity": 0.5039370078740157
        },
        {
          "duration": 0.15000000000000568,
          "durationTicks": 36,
          "midi": 58,
          "name": "A#3",
          "ticks": 29520,
          "time": 123,
          "velocity": 0.6692913385826772
        },
        {
          "duration": 0.15000000000000568,
          "durationTicks": 36,
          "midi": 65,
          "name": "F4",
          "ticks": 29580,
          "time": 123.25,
          "velocity": 0.5039370078740157
        },
        {
          "duration": 0.15000000000000568,
          "durationTicks": 36,
          "midi": 53,
          "name": "F3",
          "ticks": 29580,
          "time": 123.25,
          "velocity": 0.6692913385826772
        },
        {
          "duration": 0.15000000000000568,
          "durationTicks": 36,
          "midi": 58,
          "name": "A#3",
          "ticks": 29580,
          "time": 123.25,
          "velocity": 0.6692913385826772
        },
        {
          "duration": 0.15000000000000568,
          "durationTicks": 36,
          "midi": 70,
          "name": "A#4",
          "ticks": 29580,
          "time": 123.25,
          "velocity": 0.5039370078740157
        },
        {
          "duration": 0.15000000000000568,
          "durationTicks": 36,
          "midi": 58,
          "name": "A#3",
          "ticks": 29640,
          "time": 123.5,
          "velocity": 0.6692913385826772
        },
        {
          "duration": 0.15000000000000568,
          "durationTicks": 36,
          "midi": 65,
          "name": "F4",
          "ticks": 29640,
          "time": 123.5,
          "velocity": 0.5039370078740157
        },
        {
          "duration": 0.15000000000000568,
          "durationTicks": 36,
          "midi": 70,
          "name": "A#4",
          "ticks": 29640,
          "time": 123.5,
          "velocity": 0.5039370078740157
        },
        {
          "duration": 0.15000000000000568,
          "durationTicks": 36,
          "midi": 53,
          "name": "F3",
          "ticks": 29640,
          "time": 123.5,
          "velocity": 0.6692913385826772
        },
        {
          "duration": 0.15000000000000568,
          "durationTicks": 36,
          "midi": 53,
          "name": "F3",
          "ticks": 29700,
          "time": 123.75,
          "velocity": 0.6692913385826772
        },
        {
          "duration": 0.15000000000000568,
          "durationTicks": 36,
          "midi": 65,
          "name": "F4",
          "ticks": 29700,
          "time": 123.75,
          "velocity": 0.5039370078740157
        },
        {
          "duration": 0.15000000000000568,
          "durationTicks": 36,
          "midi": 70,
          "name": "A#4",
          "ticks": 29700,
          "time": 123.75,
          "velocity": 0.5039370078740157
        },
        {
          "duration": 0.15000000000000568,
          "durationTicks": 36,
          "midi": 58,
          "name": "A#3",
          "ticks": 29700,
          "time": 123.75,
          "velocity": 0.6692913385826772
        },
        {
          "duration": 0.15000000000000568,
          "durationTicks": 36,
          "midi": 65,
          "name": "F4",
          "ticks": 29760,
          "time": 124,
          "velocity": 0.5039370078740157
        },
        {
          "duration": 0.15000000000000568,
          "durationTicks": 36,
          "midi": 48,
          "name": "C3",
          "ticks": 29760,
          "time": 124,
          "velocity": 0.6692913385826772
        },
        {
          "duration": 0.15000000000000568,
          "durationTicks": 36,
          "midi": 60,
          "name": "C4",
          "ticks": 29760,
          "time": 124,
          "velocity": 0.5039370078740157
        },
        {
          "duration": 0.15000000000000568,
          "durationTicks": 36,
          "midi": 53,
          "name": "F3",
          "ticks": 29760,
          "time": 124,
          "velocity": 0.6692913385826772
        },
        {
          "duration": 0.15000000000000568,
          "durationTicks": 36,
          "midi": 65,
          "name": "F4",
          "ticks": 29820,
          "time": 124.25,
          "velocity": 0.5039370078740157
        },
        {
          "duration": 0.15000000000000568,
          "durationTicks": 36,
          "midi": 60,
          "name": "C4",
          "ticks": 29820,
          "time": 124.25,
          "velocity": 0.5039370078740157
        },
        {
          "duration": 0.15000000000000568,
          "durationTicks": 36,
          "midi": 48,
          "name": "C3",
          "ticks": 29820,
          "time": 124.25,
          "velocity": 0.6692913385826772
        },
        {
          "duration": 0.15000000000000568,
          "durationTicks": 36,
          "midi": 53,
          "name": "F3",
          "ticks": 29820,
          "time": 124.25,
          "velocity": 0.6692913385826772
        },
        {
          "duration": 0.15000000000000568,
          "durationTicks": 36,
          "midi": 60,
          "name": "C4",
          "ticks": 29880,
          "time": 124.5,
          "velocity": 0.5039370078740157
        },
        {
          "duration": 0.15000000000000568,
          "durationTicks": 36,
          "midi": 65,
          "name": "F4",
          "ticks": 29880,
          "time": 124.5,
          "velocity": 0.5039370078740157
        },
        {
          "duration": 0.15000000000000568,
          "durationTicks": 36,
          "midi": 53,
          "name": "F3",
          "ticks": 29880,
          "time": 124.5,
          "velocity": 0.6692913385826772
        },
        {
          "duration": 0.15000000000000568,
          "durationTicks": 36,
          "midi": 48,
          "name": "C3",
          "ticks": 29880,
          "time": 124.5,
          "velocity": 0.6692913385826772
        },
        {
          "duration": 0.15000000000000568,
          "durationTicks": 36,
          "midi": 65,
          "name": "F4",
          "ticks": 29940,
          "time": 124.75,
          "velocity": 0.5039370078740157
        },
        {
          "duration": 0.15000000000000568,
          "durationTicks": 36,
          "midi": 48,
          "name": "C3",
          "ticks": 29940,
          "time": 124.75,
          "velocity": 0.6692913385826772
        },
        {
          "duration": 0.15000000000000568,
          "durationTicks": 36,
          "midi": 60,
          "name": "C4",
          "ticks": 29940,
          "time": 124.75,
          "velocity": 0.5039370078740157
        },
        {
          "duration": 0.15000000000000568,
          "durationTicks": 36,
          "midi": 53,
          "name": "F3",
          "ticks": 29940,
          "time": 124.75,
          "velocity": 0.6692913385826772
        },
        {
          "duration": 0.15000000000000568,
          "durationTicks": 36,
          "midi": 65,
          "name": "F4",
          "ticks": 30000,
          "time": 125,
          "velocity": 0.5039370078740157
        },
        {
          "duration": 0.15000000000000568,
          "durationTicks": 36,
          "midi": 53,
          "name": "F3",
          "ticks": 30000,
          "time": 125,
          "velocity": 0.6692913385826772
        },
        {
          "duration": 0.15000000000000568,
          "durationTicks": 36,
          "midi": 60,
          "name": "C4",
          "ticks": 30000,
          "time": 125,
          "velocity": 0.5039370078740157
        },
        {
          "duration": 0.15000000000000568,
          "durationTicks": 36,
          "midi": 48,
          "name": "C3",
          "ticks": 30000,
          "time": 125,
          "velocity": 0.6692913385826772
        },
        {
          "duration": 0.15000000000000568,
          "durationTicks": 36,
          "midi": 48,
          "name": "C3",
          "ticks": 30060,
          "time": 125.25,
          "velocity": 0.6692913385826772
        },
        {
          "duration": 0.15000000000000568,
          "durationTicks": 36,
          "midi": 53,
          "name": "F3",
          "ticks": 30060,
          "time": 125.25,
          "velocity": 0.6692913385826772
        },
        {
          "duration": 0.15000000000000568,
          "durationTicks": 36,
          "midi": 60,
          "name": "C4",
          "ticks": 30060,
          "time": 125.25,
          "velocity": 0.5039370078740157
        },
        {
          "duration": 0.15000000000000568,
          "durationTicks": 36,
          "midi": 65,
          "name": "F4",
          "ticks": 30060,
          "time": 125.25,
          "velocity": 0.5039370078740157
        },
        {
          "duration": 0.15000000000000568,
          "durationTicks": 36,
          "midi": 60,
          "name": "C4",
          "ticks": 30120,
          "time": 125.5,
          "velocity": 0.5039370078740157
        },
        {
          "duration": 0.15000000000000568,
          "durationTicks": 36,
          "midi": 65,
          "name": "F4",
          "ticks": 30120,
          "time": 125.5,
          "velocity": 0.5039370078740157
        },
        {
          "duration": 0.15000000000000568,
          "durationTicks": 36,
          "midi": 48,
          "name": "C3",
          "ticks": 30120,
          "time": 125.5,
          "velocity": 0.6692913385826772
        },
        {
          "duration": 0.15000000000000568,
          "durationTicks": 36,
          "midi": 53,
          "name": "F3",
          "ticks": 30120,
          "time": 125.5,
          "velocity": 0.6692913385826772
        },
        {
          "duration": 0.15000000000000568,
          "durationTicks": 36,
          "midi": 48,
          "name": "C3",
          "ticks": 30180,
          "time": 125.75,
          "velocity": 0.6692913385826772
        },
        {
          "duration": 0.15000000000000568,
          "durationTicks": 36,
          "midi": 53,
          "name": "F3",
          "ticks": 30180,
          "time": 125.75,
          "velocity": 0.6692913385826772
        },
        {
          "duration": 0.15000000000000568,
          "durationTicks": 36,
          "midi": 65,
          "name": "F4",
          "ticks": 30180,
          "time": 125.75,
          "velocity": 0.5039370078740157
        },
        {
          "duration": 0.15000000000000568,
          "durationTicks": 36,
          "midi": 60,
          "name": "C4",
          "ticks": 30180,
          "time": 125.75,
          "velocity": 0.5039370078740157
        },
        {
          "duration": 0.15000000000000568,
          "durationTicks": 36,
          "midi": 72,
          "name": "C5",
          "ticks": 30240,
          "time": 126,
          "velocity": 0.5039370078740157
        },
        {
          "duration": 0.15000000000000568,
          "durationTicks": 36,
          "midi": 67,
          "name": "G4",
          "ticks": 30240,
          "time": 126,
          "velocity": 0.5039370078740157
        },
        {
          "duration": 0.15000000000000568,
          "durationTicks": 36,
          "midi": 55,
          "name": "G3",
          "ticks": 30240,
          "time": 126,
          "velocity": 0.6692913385826772
        },
        {
          "duration": 0.15000000000000568,
          "durationTicks": 36,
          "midi": 60,
          "name": "C4",
          "ticks": 30240,
          "time": 126,
          "velocity": 0.6692913385826772
        },
        {
          "duration": 0.15000000000000568,
          "durationTicks": 36,
          "midi": 55,
          "name": "G3",
          "ticks": 30300,
          "time": 126.25,
          "velocity": 0.6692913385826772
        },
        {
          "duration": 0.15000000000000568,
          "durationTicks": 36,
          "midi": 60,
          "name": "C4",
          "ticks": 30300,
          "time": 126.25,
          "velocity": 0.6692913385826772
        },
        {
          "duration": 0.15000000000000568,
          "durationTicks": 36,
          "midi": 67,
          "name": "G4",
          "ticks": 30300,
          "time": 126.25,
          "velocity": 0.5039370078740157
        },
        {
          "duration": 0.15000000000000568,
          "durationTicks": 36,
          "midi": 72,
          "name": "C5",
          "ticks": 30300,
          "time": 126.25,
          "velocity": 0.5039370078740157
        },
        {
          "duration": 0.15000000000000568,
          "durationTicks": 36,
          "midi": 67,
          "name": "G4",
          "ticks": 30360,
          "time": 126.5,
          "velocity": 0.5039370078740157
        },
        {
          "duration": 0.15000000000000568,
          "durationTicks": 36,
          "midi": 72,
          "name": "C5",
          "ticks": 30360,
          "time": 126.5,
          "velocity": 0.5039370078740157
        },
        {
          "duration": 0.15000000000000568,
          "durationTicks": 36,
          "midi": 60,
          "name": "C4",
          "ticks": 30360,
          "time": 126.5,
          "velocity": 0.6692913385826772
        },
        {
          "duration": 0.15000000000000568,
          "durationTicks": 36,
          "midi": 55,
          "name": "G3",
          "ticks": 30360,
          "time": 126.5,
          "velocity": 0.6692913385826772
        },
        {
          "duration": 0.15000000000000568,
          "durationTicks": 36,
          "midi": 67,
          "name": "G4",
          "ticks": 30420,
          "time": 126.75,
          "velocity": 0.5039370078740157
        },
        {
          "duration": 0.15000000000000568,
          "durationTicks": 36,
          "midi": 72,
          "name": "C5",
          "ticks": 30420,
          "time": 126.75,
          "velocity": 0.5039370078740157
        },
        {
          "duration": 0.15000000000000568,
          "durationTicks": 36,
          "midi": 55,
          "name": "G3",
          "ticks": 30420,
          "time": 126.75,
          "velocity": 0.6692913385826772
        },
        {
          "duration": 0.15000000000000568,
          "durationTicks": 36,
          "midi": 60,
          "name": "C4",
          "ticks": 30420,
          "time": 126.75,
          "velocity": 0.6692913385826772
        },
        {
          "duration": 0.15000000000000568,
          "durationTicks": 36,
          "midi": 74,
          "name": "D5",
          "ticks": 30480,
          "time": 127,
          "velocity": 0.5039370078740157
        },
        {
          "duration": 0.15000000000000568,
          "durationTicks": 36,
          "midi": 69,
          "name": "A4",
          "ticks": 30480,
          "time": 127,
          "velocity": 0.5039370078740157
        },
        {
          "duration": 0.15000000000000568,
          "durationTicks": 36,
          "midi": 57,
          "name": "A3",
          "ticks": 30480,
          "time": 127,
          "velocity": 0.6692913385826772
        },
        {
          "duration": 0.15000000000000568,
          "durationTicks": 36,
          "midi": 62,
          "name": "D4",
          "ticks": 30480,
          "time": 127,
          "velocity": 0.6692913385826772
        },
        {
          "duration": 0.15000000000000568,
          "durationTicks": 36,
          "midi": 62,
          "name": "D4",
          "ticks": 30540,
          "time": 127.25,
          "velocity": 0.6692913385826772
        },
        {
          "duration": 0.15000000000000568,
          "durationTicks": 36,
          "midi": 74,
          "name": "D5",
          "ticks": 30540,
          "time": 127.25,
          "velocity": 0.5039370078740157
        },
        {
          "duration": 0.15000000000000568,
          "durationTicks": 36,
          "midi": 57,
          "name": "A3",
          "ticks": 30540,
          "time": 127.25,
          "velocity": 0.6692913385826772
        },
        {
          "duration": 0.15000000000000568,
          "durationTicks": 36,
          "midi": 69,
          "name": "A4",
          "ticks": 30540,
          "time": 127.25,
          "velocity": 0.5039370078740157
        },
        {
          "duration": 0.15000000000000568,
          "durationTicks": 36,
          "midi": 69,
          "name": "A4",
          "ticks": 30600,
          "time": 127.5,
          "velocity": 0.5039370078740157
        },
        {
          "duration": 0.15000000000000568,
          "durationTicks": 36,
          "midi": 62,
          "name": "D4",
          "ticks": 30600,
          "time": 127.5,
          "velocity": 0.6692913385826772
        },
        {
          "duration": 0.15000000000000568,
          "durationTicks": 36,
          "midi": 74,
          "name": "D5",
          "ticks": 30600,
          "time": 127.5,
          "velocity": 0.5039370078740157
        },
        {
          "duration": 0.15000000000000568,
          "durationTicks": 36,
          "midi": 57,
          "name": "A3",
          "ticks": 30600,
          "time": 127.5,
          "velocity": 0.6692913385826772
        },
        {
          "duration": 0.15000000000000568,
          "durationTicks": 36,
          "midi": 62,
          "name": "D4",
          "ticks": 30660,
          "time": 127.75,
          "velocity": 0.6692913385826772
        },
        {
          "duration": 0.15000000000000568,
          "durationTicks": 36,
          "midi": 57,
          "name": "A3",
          "ticks": 30660,
          "time": 127.75,
          "velocity": 0.6692913385826772
        },
        {
          "duration": 0.15000000000000568,
          "durationTicks": 36,
          "midi": 69,
          "name": "A4",
          "ticks": 30660,
          "time": 127.75,
          "velocity": 0.5039370078740157
        },
        {
          "duration": 0.15000000000000568,
          "durationTicks": 36,
          "midi": 74,
          "name": "D5",
          "ticks": 30660,
          "time": 127.75,
          "velocity": 0.5039370078740157
        },
        {
          "duration": 0.15000000000000568,
          "durationTicks": 36,
          "midi": 63,
          "name": "D#4",
          "ticks": 30720,
          "time": 128,
          "velocity": 0.6692913385826772
        },
        {
          "duration": 0.15000000000000568,
          "durationTicks": 36,
          "midi": 70,
          "name": "A#4",
          "ticks": 30720,
          "time": 128,
          "velocity": 0.5039370078740157
        },
        {
          "duration": 0.15000000000000568,
          "durationTicks": 36,
          "midi": 58,
          "name": "A#3",
          "ticks": 30720,
          "time": 128,
          "velocity": 0.6692913385826772
        },
        {
          "duration": 0.15000000000000568,
          "durationTicks": 36,
          "midi": 75,
          "name": "D#5",
          "ticks": 30720,
          "time": 128,
          "velocity": 0.5039370078740157
        },
        {
          "duration": 0.15000000000000568,
          "durationTicks": 36,
          "midi": 70,
          "name": "A#4",
          "ticks": 30780,
          "time": 128.25,
          "velocity": 0.5039370078740157
        },
        {
          "duration": 0.15000000000000568,
          "durationTicks": 36,
          "midi": 63,
          "name": "D#4",
          "ticks": 30780,
          "time": 128.25,
          "velocity": 0.6692913385826772
        },
        {
          "duration": 0.15000000000000568,
          "durationTicks": 36,
          "midi": 58,
          "name": "A#3",
          "ticks": 30780,
          "time": 128.25,
          "velocity": 0.6692913385826772
        },
        {
          "duration": 0.15000000000000568,
          "durationTicks": 36,
          "midi": 75,
          "name": "D#5",
          "ticks": 30780,
          "time": 128.25,
          "velocity": 0.5039370078740157
        },
        {
          "duration": 0.15000000000000568,
          "durationTicks": 36,
          "midi": 63,
          "name": "D#4",
          "ticks": 30840,
          "time": 128.5,
          "velocity": 0.6692913385826772
        },
        {
          "duration": 0.15000000000000568,
          "durationTicks": 36,
          "midi": 58,
          "name": "A#3",
          "ticks": 30840,
          "time": 128.5,
          "velocity": 0.6692913385826772
        },
        {
          "duration": 0.15000000000000568,
          "durationTicks": 36,
          "midi": 75,
          "name": "D#5",
          "ticks": 30840,
          "time": 128.5,
          "velocity": 0.5039370078740157
        },
        {
          "duration": 0.15000000000000568,
          "durationTicks": 36,
          "midi": 70,
          "name": "A#4",
          "ticks": 30840,
          "time": 128.5,
          "velocity": 0.5039370078740157
        },
        {
          "duration": 0.15000000000000568,
          "durationTicks": 36,
          "midi": 63,
          "name": "D#4",
          "ticks": 30900,
          "time": 128.75,
          "velocity": 0.6692913385826772
        },
        {
          "duration": 0.15000000000000568,
          "durationTicks": 36,
          "midi": 75,
          "name": "D#5",
          "ticks": 30900,
          "time": 128.75,
          "velocity": 0.5039370078740157
        },
        {
          "duration": 0.15000000000000568,
          "durationTicks": 36,
          "midi": 58,
          "name": "A#3",
          "ticks": 30900,
          "time": 128.75,
          "velocity": 0.6692913385826772
        },
        {
          "duration": 0.15000000000000568,
          "durationTicks": 36,
          "midi": 70,
          "name": "A#4",
          "ticks": 30900,
          "time": 128.75,
          "velocity": 0.5039370078740157
        },
        {
          "duration": 0.15000000000000568,
          "durationTicks": 36,
          "midi": 57,
          "name": "A3",
          "ticks": 30960,
          "time": 129,
          "velocity": 0.6692913385826772
        },
        {
          "duration": 0.15000000000000568,
          "durationTicks": 36,
          "midi": 62,
          "name": "D4",
          "ticks": 30960,
          "time": 129,
          "velocity": 0.6692913385826772
        },
        {
          "duration": 0.15000000000000568,
          "durationTicks": 36,
          "midi": 69,
          "name": "A4",
          "ticks": 30960,
          "time": 129,
          "velocity": 0.5039370078740157
        },
        {
          "duration": 0.15000000000000568,
          "durationTicks": 36,
          "midi": 74,
          "name": "D5",
          "ticks": 30960,
          "time": 129,
          "velocity": 0.5039370078740157
        },
        {
          "duration": 0.15000000000000568,
          "durationTicks": 36,
          "midi": 74,
          "name": "D5",
          "ticks": 31020,
          "time": 129.25,
          "velocity": 0.5039370078740157
        },
        {
          "duration": 0.15000000000000568,
          "durationTicks": 36,
          "midi": 62,
          "name": "D4",
          "ticks": 31020,
          "time": 129.25,
          "velocity": 0.6692913385826772
        },
        {
          "duration": 0.15000000000000568,
          "durationTicks": 36,
          "midi": 57,
          "name": "A3",
          "ticks": 31020,
          "time": 129.25,
          "velocity": 0.6692913385826772
        },
        {
          "duration": 0.15000000000000568,
          "durationTicks": 36,
          "midi": 69,
          "name": "A4",
          "ticks": 31020,
          "time": 129.25,
          "velocity": 0.5039370078740157
        },
        {
          "duration": 0.15000000000000568,
          "durationTicks": 36,
          "midi": 69,
          "name": "A4",
          "ticks": 31080,
          "time": 129.5,
          "velocity": 0.5039370078740157
        },
        {
          "duration": 0.15000000000000568,
          "durationTicks": 36,
          "midi": 62,
          "name": "D4",
          "ticks": 31080,
          "time": 129.5,
          "velocity": 0.6692913385826772
        },
        {
          "duration": 0.15000000000000568,
          "durationTicks": 36,
          "midi": 74,
          "name": "D5",
          "ticks": 31080,
          "time": 129.5,
          "velocity": 0.5039370078740157
        },
        {
          "duration": 0.15000000000000568,
          "durationTicks": 36,
          "midi": 57,
          "name": "A3",
          "ticks": 31080,
          "time": 129.5,
          "velocity": 0.6692913385826772
        },
        {
          "duration": 0.15000000000000568,
          "durationTicks": 36,
          "midi": 74,
          "name": "D5",
          "ticks": 31140,
          "time": 129.75,
          "velocity": 0.5039370078740157
        },
        {
          "duration": 0.15000000000000568,
          "durationTicks": 36,
          "midi": 69,
          "name": "A4",
          "ticks": 31140,
          "time": 129.75,
          "velocity": 0.5039370078740157
        },
        {
          "duration": 0.15000000000000568,
          "durationTicks": 36,
          "midi": 62,
          "name": "D4",
          "ticks": 31140,
          "time": 129.75,
          "velocity": 0.6692913385826772
        },
        {
          "duration": 0.15000000000000568,
          "durationTicks": 36,
          "midi": 57,
          "name": "A3",
          "ticks": 31140,
          "time": 129.75,
          "velocity": 0.6692913385826772
        },
        {
          "duration": 0.15000000000000568,
          "durationTicks": 36,
          "midi": 55,
          "name": "G3",
          "ticks": 31200,
          "time": 130,
          "velocity": 0.6692913385826772
        },
        {
          "duration": 0.15000000000000568,
          "durationTicks": 36,
          "midi": 62,
          "name": "D4",
          "ticks": 31200,
          "time": 130,
          "velocity": 0.5039370078740157
        },
        {
          "duration": 0.15000000000000568,
          "durationTicks": 36,
          "midi": 50,
          "name": "D3",
          "ticks": 31200,
          "time": 130,
          "velocity": 0.6692913385826772
        },
        {
          "duration": 0.15000000000000568,
          "durationTicks": 36,
          "midi": 67,
          "name": "G4",
          "ticks": 31200,
          "time": 130,
          "velocity": 0.5039370078740157
        },
        {
          "duration": 0.15000000000000568,
          "durationTicks": 36,
          "midi": 67,
          "name": "G4",
          "ticks": 31260,
          "time": 130.25,
          "velocity": 0.5039370078740157
        },
        {
          "duration": 0.15000000000000568,
          "durationTicks": 36,
          "midi": 55,
          "name": "G3",
          "ticks": 31260,
          "time": 130.25,
          "velocity": 0.6692913385826772
        },
        {
          "duration": 0.15000000000000568,
          "durationTicks": 36,
          "midi": 62,
          "name": "D4",
          "ticks": 31260,
          "time": 130.25,
          "velocity": 0.5039370078740157
        },
        {
          "duration": 0.15000000000000568,
          "durationTicks": 36,
          "midi": 50,
          "name": "D3",
          "ticks": 31260,
          "time": 130.25,
          "velocity": 0.6692913385826772
        },
        {
          "duration": 0.15000000000000568,
          "durationTicks": 36,
          "midi": 50,
          "name": "D3",
          "ticks": 31320,
          "time": 130.5,
          "velocity": 0.6692913385826772
        },
        {
          "duration": 0.15000000000000568,
          "durationTicks": 36,
          "midi": 62,
          "name": "D4",
          "ticks": 31320,
          "time": 130.5,
          "velocity": 0.5039370078740157
        },
        {
          "duration": 0.15000000000000568,
          "durationTicks": 36,
          "midi": 67,
          "name": "G4",
          "ticks": 31320,
          "time": 130.5,
          "velocity": 0.5039370078740157
        },
        {
          "duration": 0.15000000000000568,
          "durationTicks": 36,
          "midi": 55,
          "name": "G3",
          "ticks": 31320,
          "time": 130.5,
          "velocity": 0.6692913385826772
        },
        {
          "duration": 0.15000000000000568,
          "durationTicks": 36,
          "midi": 67,
          "name": "G4",
          "ticks": 31380,
          "time": 130.75,
          "velocity": 0.5039370078740157
        },
        {
          "duration": 0.15000000000000568,
          "durationTicks": 36,
          "midi": 50,
          "name": "D3",
          "ticks": 31380,
          "time": 130.75,
          "velocity": 0.6692913385826772
        },
        {
          "duration": 0.15000000000000568,
          "durationTicks": 36,
          "midi": 55,
          "name": "G3",
          "ticks": 31380,
          "time": 130.75,
          "velocity": 0.6692913385826772
        },
        {
          "duration": 0.15000000000000568,
          "durationTicks": 36,
          "midi": 62,
          "name": "D4",
          "ticks": 31380,
          "time": 130.75,
          "velocity": 0.5039370078740157
        },
        {
          "duration": 0.15000000000000568,
          "durationTicks": 36,
          "midi": 50,
          "name": "D3",
          "ticks": 31440,
          "time": 131,
          "velocity": 0.6692913385826772
        },
        {
          "duration": 0.15000000000000568,
          "durationTicks": 36,
          "midi": 67,
          "name": "G4",
          "ticks": 31440,
          "time": 131,
          "velocity": 0.5039370078740157
        },
        {
          "duration": 0.15000000000000568,
          "durationTicks": 36,
          "midi": 55,
          "name": "G3",
          "ticks": 31440,
          "time": 131,
          "velocity": 0.6692913385826772
        },
        {
          "duration": 0.15000000000000568,
          "durationTicks": 36,
          "midi": 62,
          "name": "D4",
          "ticks": 31440,
          "time": 131,
          "velocity": 0.5039370078740157
        },
        {
          "duration": 0.15000000000000568,
          "durationTicks": 36,
          "midi": 50,
          "name": "D3",
          "ticks": 31500,
          "time": 131.25,
          "velocity": 0.6692913385826772
        },
        {
          "duration": 0.15000000000000568,
          "durationTicks": 36,
          "midi": 55,
          "name": "G3",
          "ticks": 31500,
          "time": 131.25,
          "velocity": 0.6692913385826772
        },
        {
          "duration": 0.15000000000000568,
          "durationTicks": 36,
          "midi": 67,
          "name": "G4",
          "ticks": 31500,
          "time": 131.25,
          "velocity": 0.5039370078740157
        },
        {
          "duration": 0.15000000000000568,
          "durationTicks": 36,
          "midi": 62,
          "name": "D4",
          "ticks": 31500,
          "time": 131.25,
          "velocity": 0.5039370078740157
        },
        {
          "duration": 0.15000000000000568,
          "durationTicks": 36,
          "midi": 67,
          "name": "G4",
          "ticks": 31560,
          "time": 131.5,
          "velocity": 0.5039370078740157
        },
        {
          "duration": 0.15000000000000568,
          "durationTicks": 36,
          "midi": 50,
          "name": "D3",
          "ticks": 31560,
          "time": 131.5,
          "velocity": 0.6692913385826772
        },
        {
          "duration": 0.15000000000000568,
          "durationTicks": 36,
          "midi": 62,
          "name": "D4",
          "ticks": 31560,
          "time": 131.5,
          "velocity": 0.5039370078740157
        },
        {
          "duration": 0.15000000000000568,
          "durationTicks": 36,
          "midi": 55,
          "name": "G3",
          "ticks": 31560,
          "time": 131.5,
          "velocity": 0.6692913385826772
        },
        {
          "duration": 0.15000000000000568,
          "durationTicks": 36,
          "midi": 55,
          "name": "G3",
          "ticks": 31620,
          "time": 131.75,
          "velocity": 0.6692913385826772
        },
        {
          "duration": 0.15000000000000568,
          "durationTicks": 36,
          "midi": 50,
          "name": "D3",
          "ticks": 31620,
          "time": 131.75,
          "velocity": 0.6692913385826772
        },
        {
          "duration": 0.15000000000000568,
          "durationTicks": 36,
          "midi": 67,
          "name": "G4",
          "ticks": 31620,
          "time": 131.75,
          "velocity": 0.5039370078740157
        },
        {
          "duration": 0.15000000000000568,
          "durationTicks": 36,
          "midi": 62,
          "name": "D4",
          "ticks": 31620,
          "time": 131.75,
          "velocity": 0.5039370078740157
        },
        {
          "duration": 0.15000000000000568,
          "durationTicks": 36,
          "midi": 53,
          "name": "F3",
          "ticks": 31680,
          "time": 132,
          "velocity": 0.6692913385826772
        },
        {
          "duration": 0.15000000000000568,
          "durationTicks": 36,
          "midi": 58,
          "name": "A#3",
          "ticks": 31680,
          "time": 132,
          "velocity": 0.6692913385826772
        },
        {
          "duration": 0.15000000000000568,
          "durationTicks": 36,
          "midi": 70,
          "name": "A#4",
          "ticks": 31680,
          "time": 132,
          "velocity": 0.5039370078740157
        },
        {
          "duration": 0.15000000000000568,
          "durationTicks": 36,
          "midi": 65,
          "name": "F4",
          "ticks": 31680,
          "time": 132,
          "velocity": 0.5039370078740157
        },
        {
          "duration": 0.15000000000000568,
          "durationTicks": 36,
          "midi": 58,
          "name": "A#3",
          "ticks": 31740,
          "time": 132.25,
          "velocity": 0.6692913385826772
        },
        {
          "duration": 0.15000000000000568,
          "durationTicks": 36,
          "midi": 70,
          "name": "A#4",
          "ticks": 31740,
          "time": 132.25,
          "velocity": 0.5039370078740157
        },
        {
          "duration": 0.15000000000000568,
          "durationTicks": 36,
          "midi": 53,
          "name": "F3",
          "ticks": 31740,
          "time": 132.25,
          "velocity": 0.6692913385826772
        },
        {
          "duration": 0.15000000000000568,
          "durationTicks": 36,
          "midi": 65,
          "name": "F4",
          "ticks": 31740,
          "time": 132.25,
          "velocity": 0.5039370078740157
        },
        {
          "duration": 0.15000000000000568,
          "durationTicks": 36,
          "midi": 53,
          "name": "F3",
          "ticks": 31800,
          "time": 132.5,
          "velocity": 0.6692913385826772
        },
        {
          "duration": 0.15000000000000568,
          "durationTicks": 36,
          "midi": 65,
          "name": "F4",
          "ticks": 31800,
          "time": 132.5,
          "velocity": 0.5039370078740157
        },
        {
          "duration": 0.15000000000000568,
          "durationTicks": 36,
          "midi": 58,
          "name": "A#3",
          "ticks": 31800,
          "time": 132.5,
          "velocity": 0.6692913385826772
        },
        {
          "duration": 0.15000000000000568,
          "durationTicks": 36,
          "midi": 70,
          "name": "A#4",
          "ticks": 31800,
          "time": 132.5,
          "velocity": 0.5039370078740157
        },
        {
          "duration": 0.15000000000000568,
          "durationTicks": 36,
          "midi": 65,
          "name": "F4",
          "ticks": 31860,
          "time": 132.75,
          "velocity": 0.5039370078740157
        },
        {
          "duration": 0.15000000000000568,
          "durationTicks": 36,
          "midi": 70,
          "name": "A#4",
          "ticks": 31860,
          "time": 132.75,
          "velocity": 0.5039370078740157
        },
        {
          "duration": 0.15000000000000568,
          "durationTicks": 36,
          "midi": 58,
          "name": "A#3",
          "ticks": 31860,
          "time": 132.75,
          "velocity": 0.6692913385826772
        },
        {
          "duration": 0.15000000000000568,
          "durationTicks": 36,
          "midi": 53,
          "name": "F3",
          "ticks": 31860,
          "time": 132.75,
          "velocity": 0.6692913385826772
        },
        {
          "duration": 0.15000000000000568,
          "durationTicks": 36,
          "midi": 70,
          "name": "A#4",
          "ticks": 31920,
          "time": 133,
          "velocity": 0.5039370078740157
        },
        {
          "duration": 0.15000000000000568,
          "durationTicks": 36,
          "midi": 65,
          "name": "F4",
          "ticks": 31920,
          "time": 133,
          "velocity": 0.5039370078740157
        },
        {
          "duration": 0.15000000000000568,
          "durationTicks": 36,
          "midi": 53,
          "name": "F3",
          "ticks": 31920,
          "time": 133,
          "velocity": 0.6692913385826772
        },
        {
          "duration": 0.15000000000000568,
          "durationTicks": 36,
          "midi": 58,
          "name": "A#3",
          "ticks": 31920,
          "time": 133,
          "velocity": 0.6692913385826772
        },
        {
          "duration": 0.15000000000000568,
          "durationTicks": 36,
          "midi": 53,
          "name": "F3",
          "ticks": 31980,
          "time": 133.25,
          "velocity": 0.6692913385826772
        },
        {
          "duration": 0.15000000000000568,
          "durationTicks": 36,
          "midi": 58,
          "name": "A#3",
          "ticks": 31980,
          "time": 133.25,
          "velocity": 0.6692913385826772
        },
        {
          "duration": 0.15000000000000568,
          "durationTicks": 36,
          "midi": 65,
          "name": "F4",
          "ticks": 31980,
          "time": 133.25,
          "velocity": 0.5039370078740157
        },
        {
          "duration": 0.15000000000000568,
          "durationTicks": 36,
          "midi": 70,
          "name": "A#4",
          "ticks": 31980,
          "time": 133.25,
          "velocity": 0.5039370078740157
        },
        {
          "duration": 0.15000000000000568,
          "durationTicks": 36,
          "midi": 58,
          "name": "A#3",
          "ticks": 32040,
          "time": 133.5,
          "velocity": 0.6692913385826772
        },
        {
          "duration": 0.15000000000000568,
          "durationTicks": 36,
          "midi": 65,
          "name": "F4",
          "ticks": 32040,
          "time": 133.5,
          "velocity": 0.5039370078740157
        },
        {
          "duration": 0.15000000000000568,
          "durationTicks": 36,
          "midi": 53,
          "name": "F3",
          "ticks": 32040,
          "time": 133.5,
          "velocity": 0.6692913385826772
        },
        {
          "duration": 0.15000000000000568,
          "durationTicks": 36,
          "midi": 70,
          "name": "A#4",
          "ticks": 32040,
          "time": 133.5,
          "velocity": 0.5039370078740157
        },
        {
          "duration": 0.15000000000000568,
          "durationTicks": 36,
          "midi": 65,
          "name": "F4",
          "ticks": 32100,
          "time": 133.75,
          "velocity": 0.5039370078740157
        },
        {
          "duration": 0.15000000000000568,
          "durationTicks": 36,
          "midi": 70,
          "name": "A#4",
          "ticks": 32100,
          "time": 133.75,
          "velocity": 0.5039370078740157
        },
        {
          "duration": 0.15000000000000568,
          "durationTicks": 36,
          "midi": 58,
          "name": "A#3",
          "ticks": 32100,
          "time": 133.75,
          "velocity": 0.6692913385826772
        },
        {
          "duration": 0.15000000000000568,
          "durationTicks": 36,
          "midi": 53,
          "name": "F3",
          "ticks": 32100,
          "time": 133.75,
          "velocity": 0.6692913385826772
        },
        {
          "duration": 0.15000000000000568,
          "durationTicks": 36,
          "midi": 48,
          "name": "C3",
          "ticks": 32160,
          "time": 134,
          "velocity": 0.6692913385826772
        },
        {
          "duration": 0.15000000000000568,
          "durationTicks": 36,
          "midi": 53,
          "name": "F3",
          "ticks": 32160,
          "time": 134,
          "velocity": 0.6692913385826772
        },
        {
          "duration": 0.15000000000000568,
          "durationTicks": 36,
          "midi": 65,
          "name": "F4",
          "ticks": 32160,
          "time": 134,
          "velocity": 0.5039370078740157
        },
        {
          "duration": 0.15000000000000568,
          "durationTicks": 36,
          "midi": 60,
          "name": "C4",
          "ticks": 32160,
          "time": 134,
          "velocity": 0.5039370078740157
        },
        {
          "duration": 0.15000000000000568,
          "durationTicks": 36,
          "midi": 65,
          "name": "F4",
          "ticks": 32220,
          "time": 134.25,
          "velocity": 0.5039370078740157
        },
        {
          "duration": 0.15000000000000568,
          "durationTicks": 36,
          "midi": 48,
          "name": "C3",
          "ticks": 32220,
          "time": 134.25,
          "velocity": 0.6692913385826772
        },
        {
          "duration": 0.15000000000000568,
          "durationTicks": 36,
          "midi": 53,
          "name": "F3",
          "ticks": 32220,
          "time": 134.25,
          "velocity": 0.6692913385826772
        },
        {
          "duration": 0.15000000000000568,
          "durationTicks": 36,
          "midi": 60,
          "name": "C4",
          "ticks": 32220,
          "time": 134.25,
          "velocity": 0.5039370078740157
        },
        {
          "duration": 0.15000000000000568,
          "durationTicks": 36,
          "midi": 53,
          "name": "F3",
          "ticks": 32280,
          "time": 134.5,
          "velocity": 0.6692913385826772
        },
        {
          "duration": 0.15000000000000568,
          "durationTicks": 36,
          "midi": 65,
          "name": "F4",
          "ticks": 32280,
          "time": 134.5,
          "velocity": 0.5039370078740157
        },
        {
          "duration": 0.15000000000000568,
          "durationTicks": 36,
          "midi": 48,
          "name": "C3",
          "ticks": 32280,
          "time": 134.5,
          "velocity": 0.6692913385826772
        },
        {
          "duration": 0.15000000000000568,
          "durationTicks": 36,
          "midi": 60,
          "name": "C4",
          "ticks": 32280,
          "time": 134.5,
          "velocity": 0.5039370078740157
        },
        {
          "duration": 0.15000000000000568,
          "durationTicks": 36,
          "midi": 60,
          "name": "C4",
          "ticks": 32340,
          "time": 134.75,
          "velocity": 0.5039370078740157
        },
        {
          "duration": 0.15000000000000568,
          "durationTicks": 36,
          "midi": 53,
          "name": "F3",
          "ticks": 32340,
          "time": 134.75,
          "velocity": 0.6692913385826772
        },
        {
          "duration": 0.15000000000000568,
          "durationTicks": 36,
          "midi": 48,
          "name": "C3",
          "ticks": 32340,
          "time": 134.75,
          "velocity": 0.6692913385826772
        },
        {
          "duration": 0.15000000000000568,
          "durationTicks": 36,
          "midi": 65,
          "name": "F4",
          "ticks": 32340,
          "time": 134.75,
          "velocity": 0.5039370078740157
        },
        {
          "duration": 0.15000000000000568,
          "durationTicks": 36,
          "midi": 60,
          "name": "C4",
          "ticks": 32400,
          "time": 135,
          "velocity": 0.5039370078740157
        },
        {
          "duration": 0.15000000000000568,
          "durationTicks": 36,
          "midi": 53,
          "name": "F3",
          "ticks": 32400,
          "time": 135,
          "velocity": 0.6692913385826772
        },
        {
          "duration": 0.15000000000000568,
          "durationTicks": 36,
          "midi": 48,
          "name": "C3",
          "ticks": 32400,
          "time": 135,
          "velocity": 0.6692913385826772
        },
        {
          "duration": 0.15000000000000568,
          "durationTicks": 36,
          "midi": 65,
          "name": "F4",
          "ticks": 32400,
          "time": 135,
          "velocity": 0.5039370078740157
        },
        {
          "duration": 0.15000000000000568,
          "durationTicks": 36,
          "midi": 53,
          "name": "F3",
          "ticks": 32460,
          "time": 135.25,
          "velocity": 0.6692913385826772
        },
        {
          "duration": 0.15000000000000568,
          "durationTicks": 36,
          "midi": 65,
          "name": "F4",
          "ticks": 32460,
          "time": 135.25,
          "velocity": 0.5039370078740157
        },
        {
          "duration": 0.15000000000000568,
          "durationTicks": 36,
          "midi": 60,
          "name": "C4",
          "ticks": 32460,
          "time": 135.25,
          "velocity": 0.5039370078740157
        },
        {
          "duration": 0.15000000000000568,
          "durationTicks": 36,
          "midi": 48,
          "name": "C3",
          "ticks": 32460,
          "time": 135.25,
          "velocity": 0.6692913385826772
        },
        {
          "duration": 0.15000000000000568,
          "durationTicks": 36,
          "midi": 53,
          "name": "F3",
          "ticks": 32520,
          "time": 135.5,
          "velocity": 0.6692913385826772
        },
        {
          "duration": 0.15000000000000568,
          "durationTicks": 36,
          "midi": 65,
          "name": "F4",
          "ticks": 32520,
          "time": 135.5,
          "velocity": 0.5039370078740157
        },
        {
          "duration": 0.15000000000000568,
          "durationTicks": 36,
          "midi": 48,
          "name": "C3",
          "ticks": 32520,
          "time": 135.5,
          "velocity": 0.6692913385826772
        },
        {
          "duration": 0.15000000000000568,
          "durationTicks": 36,
          "midi": 60,
          "name": "C4",
          "ticks": 32520,
          "time": 135.5,
          "velocity": 0.5039370078740157
        },
        {
          "duration": 0.15000000000000568,
          "durationTicks": 36,
          "midi": 60,
          "name": "C4",
          "ticks": 32580,
          "time": 135.75,
          "velocity": 0.5039370078740157
        },
        {
          "duration": 0.15000000000000568,
          "durationTicks": 36,
          "midi": 65,
          "name": "F4",
          "ticks": 32580,
          "time": 135.75,
          "velocity": 0.5039370078740157
        },
        {
          "duration": 0.15000000000000568,
          "durationTicks": 36,
          "midi": 48,
          "name": "C3",
          "ticks": 32580,
          "time": 135.75,
          "velocity": 0.6692913385826772
        },
        {
          "duration": 0.15000000000000568,
          "durationTicks": 36,
          "midi": 53,
          "name": "F3",
          "ticks": 32580,
          "time": 135.75,
          "velocity": 0.6692913385826772
        },
        {
          "duration": 0.15000000000000568,
          "durationTicks": 36,
          "midi": 48,
          "name": "C3",
          "ticks": 32640,
          "time": 136,
          "velocity": 0.6692913385826772
        },
        {
          "duration": 0.15000000000000568,
          "durationTicks": 36,
          "midi": 60,
          "name": "C4",
          "ticks": 32640,
          "time": 136,
          "velocity": 0.5039370078740157
        },
        {
          "duration": 0.15000000000000568,
          "durationTicks": 36,
          "midi": 55,
          "name": "G3",
          "ticks": 32640,
          "time": 136,
          "velocity": 0.6692913385826772
        },
        {
          "duration": 0.15000000000000568,
          "durationTicks": 36,
          "midi": 67,
          "name": "G4",
          "ticks": 32640,
          "time": 136,
          "velocity": 0.5039370078740157
        },
        {
          "duration": 0.15000000000000568,
          "durationTicks": 36,
          "midi": 48,
          "name": "C3",
          "ticks": 32700,
          "time": 136.25,
          "velocity": 0.6692913385826772
        },
        {
          "duration": 0.15000000000000568,
          "durationTicks": 36,
          "midi": 67,
          "name": "G4",
          "ticks": 32700,
          "time": 136.25,
          "velocity": 0.5039370078740157
        },
        {
          "duration": 0.15000000000000568,
          "durationTicks": 36,
          "midi": 55,
          "name": "G3",
          "ticks": 32700,
          "time": 136.25,
          "velocity": 0.6692913385826772
        },
        {
          "duration": 0.15000000000000568,
          "durationTicks": 36,
          "midi": 60,
          "name": "C4",
          "ticks": 32700,
          "time": 136.25,
          "velocity": 0.5039370078740157
        },
        {
          "duration": 0.15000000000000568,
          "durationTicks": 36,
          "midi": 67,
          "name": "G4",
          "ticks": 32760,
          "time": 136.5,
          "velocity": 0.5039370078740157
        },
        {
          "duration": 0.15000000000000568,
          "durationTicks": 36,
          "midi": 55,
          "name": "G3",
          "ticks": 32760,
          "time": 136.5,
          "velocity": 0.6692913385826772
        },
        {
          "duration": 0.15000000000000568,
          "durationTicks": 36,
          "midi": 60,
          "name": "C4",
          "ticks": 32760,
          "time": 136.5,
          "velocity": 0.5039370078740157
        },
        {
          "duration": 0.15000000000000568,
          "durationTicks": 36,
          "midi": 48,
          "name": "C3",
          "ticks": 32760,
          "time": 136.5,
          "velocity": 0.6692913385826772
        },
        {
          "duration": 0.15000000000000568,
          "durationTicks": 36,
          "midi": 48,
          "name": "C3",
          "ticks": 32820,
          "time": 136.75,
          "velocity": 0.6692913385826772
        },
        {
          "duration": 0.15000000000000568,
          "durationTicks": 36,
          "midi": 67,
          "name": "G4",
          "ticks": 32820,
          "time": 136.75,
          "velocity": 0.5039370078740157
        },
        {
          "duration": 0.15000000000000568,
          "durationTicks": 36,
          "midi": 60,
          "name": "C4",
          "ticks": 32820,
          "time": 136.75,
          "velocity": 0.5039370078740157
        },
        {
          "duration": 0.15000000000000568,
          "durationTicks": 36,
          "midi": 55,
          "name": "G3",
          "ticks": 32820,
          "time": 136.75,
          "velocity": 0.6692913385826772
        },
        {
          "duration": 0.15000000000000568,
          "durationTicks": 36,
          "midi": 60,
          "name": "C4",
          "ticks": 32880,
          "time": 137,
          "velocity": 0.5039370078740157
        },
        {
          "duration": 0.15000000000000568,
          "durationTicks": 36,
          "midi": 48,
          "name": "C3",
          "ticks": 32880,
          "time": 137,
          "velocity": 0.6692913385826772
        },
        {
          "duration": 0.15000000000000568,
          "durationTicks": 36,
          "midi": 67,
          "name": "G4",
          "ticks": 32880,
          "time": 137,
          "velocity": 0.5039370078740157
        },
        {
          "duration": 0.15000000000000568,
          "durationTicks": 36,
          "midi": 55,
          "name": "G3",
          "ticks": 32880,
          "time": 137,
          "velocity": 0.6692913385826772
        },
        {
          "duration": 0.15000000000000568,
          "durationTicks": 36,
          "midi": 67,
          "name": "G4",
          "ticks": 32940,
          "time": 137.25,
          "velocity": 0.5039370078740157
        },
        {
          "duration": 0.15000000000000568,
          "durationTicks": 36,
          "midi": 55,
          "name": "G3",
          "ticks": 32940,
          "time": 137.25,
          "velocity": 0.6692913385826772
        },
        {
          "duration": 0.15000000000000568,
          "durationTicks": 36,
          "midi": 48,
          "name": "C3",
          "ticks": 32940,
          "time": 137.25,
          "velocity": 0.6692913385826772
        },
        {
          "duration": 0.15000000000000568,
          "durationTicks": 36,
          "midi": 60,
          "name": "C4",
          "ticks": 32940,
          "time": 137.25,
          "velocity": 0.5039370078740157
        },
        {
          "duration": 0.15000000000000568,
          "durationTicks": 36,
          "midi": 48,
          "name": "C3",
          "ticks": 33000,
          "time": 137.5,
          "velocity": 0.6692913385826772
        },
        {
          "duration": 0.15000000000000568,
          "durationTicks": 36,
          "midi": 60,
          "name": "C4",
          "ticks": 33000,
          "time": 137.5,
          "velocity": 0.5039370078740157
        },
        {
          "duration": 0.15000000000000568,
          "durationTicks": 36,
          "midi": 67,
          "name": "G4",
          "ticks": 33000,
          "time": 137.5,
          "velocity": 0.5039370078740157
        },
        {
          "duration": 0.15000000000000568,
          "durationTicks": 36,
          "midi": 55,
          "name": "G3",
          "ticks": 33000,
          "time": 137.5,
          "velocity": 0.6692913385826772
        },
        {
          "duration": 0.15000000000000568,
          "durationTicks": 36,
          "midi": 48,
          "name": "C3",
          "ticks": 33060,
          "time": 137.75,
          "velocity": 0.6692913385826772
        },
        {
          "duration": 0.15000000000000568,
          "durationTicks": 36,
          "midi": 67,
          "name": "G4",
          "ticks": 33060,
          "time": 137.75,
          "velocity": 0.5039370078740157
        },
        {
          "duration": 0.15000000000000568,
          "durationTicks": 36,
          "midi": 60,
          "name": "C4",
          "ticks": 33060,
          "time": 137.75,
          "velocity": 0.5039370078740157
        },
        {
          "duration": 0.15000000000000568,
          "durationTicks": 36,
          "midi": 55,
          "name": "G3",
          "ticks": 33060,
          "time": 137.75,
          "velocity": 0.6692913385826772
        },
        {
          "duration": 0.15000000000000568,
          "durationTicks": 36,
          "midi": 62,
          "name": "D4",
          "ticks": 33120,
          "time": 138,
          "velocity": 0.5039370078740157
        },
        {
          "duration": 0.15000000000000568,
          "durationTicks": 36,
          "midi": 67,
          "name": "G4",
          "ticks": 33120,
          "time": 138,
          "velocity": 0.5039370078740157
        },
        {
          "duration": 0.15000000000000568,
          "durationTicks": 36,
          "midi": 50,
          "name": "D3",
          "ticks": 33120,
          "time": 138,
          "velocity": 0.6692913385826772
        },
        {
          "duration": 0.15000000000000568,
          "durationTicks": 36,
          "midi": 55,
          "name": "G3",
          "ticks": 33120,
          "time": 138,
          "velocity": 0.6692913385826772
        },
        {
          "duration": 0.15000000000000568,
          "durationTicks": 36,
          "midi": 50,
          "name": "D3",
          "ticks": 33180,
          "time": 138.25,
          "velocity": 0.6692913385826772
        },
        {
          "duration": 0.15000000000000568,
          "durationTicks": 36,
          "midi": 55,
          "name": "G3",
          "ticks": 33180,
          "time": 138.25,
          "velocity": 0.6692913385826772
        },
        {
          "duration": 0.15000000000000568,
          "durationTicks": 36,
          "midi": 62,
          "name": "D4",
          "ticks": 33180,
          "time": 138.25,
          "velocity": 0.5039370078740157
        },
        {
          "duration": 0.15000000000000568,
          "durationTicks": 36,
          "midi": 67,
          "name": "G4",
          "ticks": 33180,
          "time": 138.25,
          "velocity": 0.5039370078740157
        },
        {
          "duration": 0.15000000000000568,
          "durationTicks": 36,
          "midi": 62,
          "name": "D4",
          "ticks": 33240,
          "time": 138.5,
          "velocity": 0.5039370078740157
        },
        {
          "duration": 0.15000000000000568,
          "durationTicks": 36,
          "midi": 55,
          "name": "G3",
          "ticks": 33240,
          "time": 138.5,
          "velocity": 0.6692913385826772
        },
        {
          "duration": 0.15000000000000568,
          "durationTicks": 36,
          "midi": 67,
          "name": "G4",
          "ticks": 33240,
          "time": 138.5,
          "velocity": 0.5039370078740157
        },
        {
          "duration": 0.15000000000000568,
          "durationTicks": 36,
          "midi": 50,
          "name": "D3",
          "ticks": 33240,
          "time": 138.5,
          "velocity": 0.6692913385826772
        },
        {
          "duration": 0.15000000000000568,
          "durationTicks": 36,
          "midi": 55,
          "name": "G3",
          "ticks": 33300,
          "time": 138.75,
          "velocity": 0.6692913385826772
        },
        {
          "duration": 0.15000000000000568,
          "durationTicks": 36,
          "midi": 50,
          "name": "D3",
          "ticks": 33300,
          "time": 138.75,
          "velocity": 0.6692913385826772
        },
        {
          "duration": 0.15000000000000568,
          "durationTicks": 36,
          "midi": 62,
          "name": "D4",
          "ticks": 33300,
          "time": 138.75,
          "velocity": 0.5039370078740157
        },
        {
          "duration": 0.15000000000000568,
          "durationTicks": 36,
          "midi": 67,
          "name": "G4",
          "ticks": 33300,
          "time": 138.75,
          "velocity": 0.5039370078740157
        },
        {
          "duration": 0.15000000000000568,
          "durationTicks": 36,
          "midi": 55,
          "name": "G3",
          "ticks": 33360,
          "time": 139,
          "velocity": 0.6692913385826772
        },
        {
          "duration": 0.15000000000000568,
          "durationTicks": 36,
          "midi": 67,
          "name": "G4",
          "ticks": 33360,
          "time": 139,
          "velocity": 0.5039370078740157
        },
        {
          "duration": 0.15000000000000568,
          "durationTicks": 36,
          "midi": 62,
          "name": "D4",
          "ticks": 33360,
          "time": 139,
          "velocity": 0.5039370078740157
        },
        {
          "duration": 0.15000000000000568,
          "durationTicks": 36,
          "midi": 50,
          "name": "D3",
          "ticks": 33360,
          "time": 139,
          "velocity": 0.6692913385826772
        },
        {
          "duration": 0.15000000000000568,
          "durationTicks": 36,
          "midi": 62,
          "name": "D4",
          "ticks": 33420,
          "time": 139.25,
          "velocity": 0.5039370078740157
        },
        {
          "duration": 0.15000000000000568,
          "durationTicks": 36,
          "midi": 55,
          "name": "G3",
          "ticks": 33420,
          "time": 139.25,
          "velocity": 0.6692913385826772
        },
        {
          "duration": 0.15000000000000568,
          "durationTicks": 36,
          "midi": 67,
          "name": "G4",
          "ticks": 33420,
          "time": 139.25,
          "velocity": 0.5039370078740157
        },
        {
          "duration": 0.15000000000000568,
          "durationTicks": 36,
          "midi": 50,
          "name": "D3",
          "ticks": 33420,
          "time": 139.25,
          "velocity": 0.6692913385826772
        },
        {
          "duration": 0.15000000000000568,
          "durationTicks": 36,
          "midi": 50,
          "name": "D3",
          "ticks": 33480,
          "time": 139.5,
          "velocity": 0.6692913385826772
        },
        {
          "duration": 0.15000000000000568,
          "durationTicks": 36,
          "midi": 55,
          "name": "G3",
          "ticks": 33480,
          "time": 139.5,
          "velocity": 0.6692913385826772
        },
        {
          "duration": 0.15000000000000568,
          "durationTicks": 36,
          "midi": 62,
          "name": "D4",
          "ticks": 33480,
          "time": 139.5,
          "velocity": 0.5039370078740157
        },
        {
          "duration": 0.15000000000000568,
          "durationTicks": 36,
          "midi": 67,
          "name": "G4",
          "ticks": 33480,
          "time": 139.5,
          "velocity": 0.5039370078740157
        },
        {
          "duration": 0.15000000000000568,
          "durationTicks": 36,
          "midi": 67,
          "name": "G4",
          "ticks": 33540,
          "time": 139.75,
          "velocity": 0.5039370078740157
        },
        {
          "duration": 0.15000000000000568,
          "durationTicks": 36,
          "midi": 50,
          "name": "D3",
          "ticks": 33540,
          "time": 139.75,
          "velocity": 0.6692913385826772
        },
        {
          "duration": 0.15000000000000568,
          "durationTicks": 36,
          "midi": 55,
          "name": "G3",
          "ticks": 33540,
          "time": 139.75,
          "velocity": 0.6692913385826772
        },
        {
          "duration": 0.15000000000000568,
          "durationTicks": 36,
          "midi": 62,
          "name": "D4",
          "ticks": 33540,
          "time": 139.75,
          "velocity": 0.5039370078740157
        },
        {
          "duration": 0.15000000000000568,
          "durationTicks": 36,
          "midi": 53,
          "name": "F3",
          "ticks": 33600,
          "time": 140,
          "velocity": 0.6692913385826772
        },
        {
          "duration": 0.15000000000000568,
          "durationTicks": 36,
          "midi": 65,
          "name": "F4",
          "ticks": 33600,
          "time": 140,
          "velocity": 0.5039370078740157
        },
        {
          "duration": 0.15000000000000568,
          "durationTicks": 36,
          "midi": 70,
          "name": "A#4",
          "ticks": 33600,
          "time": 140,
          "velocity": 0.5039370078740157
        },
        {
          "duration": 0.15000000000000568,
          "durationTicks": 36,
          "midi": 58,
          "name": "A#3",
          "ticks": 33600,
          "time": 140,
          "velocity": 0.6692913385826772
        },
        {
          "duration": 0.15000000000000568,
          "durationTicks": 36,
          "midi": 53,
          "name": "F3",
          "ticks": 33660,
          "time": 140.25,
          "velocity": 0.6692913385826772
        },
        {
          "duration": 0.15000000000000568,
          "durationTicks": 36,
          "midi": 70,
          "name": "A#4",
          "ticks": 33660,
          "time": 140.25,
          "velocity": 0.5039370078740157
        },
        {
          "duration": 0.15000000000000568,
          "durationTicks": 36,
          "midi": 58,
          "name": "A#3",
          "ticks": 33660,
          "time": 140.25,
          "velocity": 0.6692913385826772
        },
        {
          "duration": 0.15000000000000568,
          "durationTicks": 36,
          "midi": 65,
          "name": "F4",
          "ticks": 33660,
          "time": 140.25,
          "velocity": 0.5039370078740157
        },
        {
          "duration": 0.15000000000000568,
          "durationTicks": 36,
          "midi": 53,
          "name": "F3",
          "ticks": 33720,
          "time": 140.5,
          "velocity": 0.6692913385826772
        },
        {
          "duration": 0.15000000000000568,
          "durationTicks": 36,
          "midi": 70,
          "name": "A#4",
          "ticks": 33720,
          "time": 140.5,
          "velocity": 0.5039370078740157
        },
        {
          "duration": 0.15000000000000568,
          "durationTicks": 36,
          "midi": 58,
          "name": "A#3",
          "ticks": 33720,
          "time": 140.5,
          "velocity": 0.6692913385826772
        },
        {
          "duration": 0.15000000000000568,
          "durationTicks": 36,
          "midi": 65,
          "name": "F4",
          "ticks": 33720,
          "time": 140.5,
          "velocity": 0.5039370078740157
        },
        {
          "duration": 0.15000000000000568,
          "durationTicks": 36,
          "midi": 70,
          "name": "A#4",
          "ticks": 33780,
          "time": 140.75,
          "velocity": 0.5039370078740157
        },
        {
          "duration": 0.15000000000000568,
          "durationTicks": 36,
          "midi": 53,
          "name": "F3",
          "ticks": 33780,
          "time": 140.75,
          "velocity": 0.6692913385826772
        },
        {
          "duration": 0.15000000000000568,
          "durationTicks": 36,
          "midi": 65,
          "name": "F4",
          "ticks": 33780,
          "time": 140.75,
          "velocity": 0.5039370078740157
        },
        {
          "duration": 0.15000000000000568,
          "durationTicks": 36,
          "midi": 58,
          "name": "A#3",
          "ticks": 33780,
          "time": 140.75,
          "velocity": 0.6692913385826772
        },
        {
          "duration": 0.15000000000000568,
          "durationTicks": 36,
          "midi": 65,
          "name": "F4",
          "ticks": 33840,
          "time": 141,
          "velocity": 0.5039370078740157
        },
        {
          "duration": 0.15000000000000568,
          "durationTicks": 36,
          "midi": 70,
          "name": "A#4",
          "ticks": 33840,
          "time": 141,
          "velocity": 0.5039370078740157
        },
        {
          "duration": 0.15000000000000568,
          "durationTicks": 36,
          "midi": 53,
          "name": "F3",
          "ticks": 33840,
          "time": 141,
          "velocity": 0.6692913385826772
        },
        {
          "duration": 0.15000000000000568,
          "durationTicks": 36,
          "midi": 58,
          "name": "A#3",
          "ticks": 33840,
          "time": 141,
          "velocity": 0.6692913385826772
        },
        {
          "duration": 0.15000000000000568,
          "durationTicks": 36,
          "midi": 65,
          "name": "F4",
          "ticks": 33900,
          "time": 141.25,
          "velocity": 0.5039370078740157
        },
        {
          "duration": 0.15000000000000568,
          "durationTicks": 36,
          "midi": 58,
          "name": "A#3",
          "ticks": 33900,
          "time": 141.25,
          "velocity": 0.6692913385826772
        },
        {
          "duration": 0.15000000000000568,
          "durationTicks": 36,
          "midi": 53,
          "name": "F3",
          "ticks": 33900,
          "time": 141.25,
          "velocity": 0.6692913385826772
        },
        {
          "duration": 0.15000000000000568,
          "durationTicks": 36,
          "midi": 70,
          "name": "A#4",
          "ticks": 33900,
          "time": 141.25,
          "velocity": 0.5039370078740157
        },
        {
          "duration": 0.15000000000000568,
          "durationTicks": 36,
          "midi": 53,
          "name": "F3",
          "ticks": 33960,
          "time": 141.5,
          "velocity": 0.6692913385826772
        },
        {
          "duration": 0.15000000000000568,
          "durationTicks": 36,
          "midi": 65,
          "name": "F4",
          "ticks": 33960,
          "time": 141.5,
          "velocity": 0.5039370078740157
        },
        {
          "duration": 0.15000000000000568,
          "durationTicks": 36,
          "midi": 58,
          "name": "A#3",
          "ticks": 33960,
          "time": 141.5,
          "velocity": 0.6692913385826772
        },
        {
          "duration": 0.15000000000000568,
          "durationTicks": 36,
          "midi": 70,
          "name": "A#4",
          "ticks": 33960,
          "time": 141.5,
          "velocity": 0.5039370078740157
        },
        {
          "duration": 0.15000000000000568,
          "durationTicks": 36,
          "midi": 53,
          "name": "F3",
          "ticks": 34020,
          "time": 141.75,
          "velocity": 0.6692913385826772
        },
        {
          "duration": 0.15000000000000568,
          "durationTicks": 36,
          "midi": 70,
          "name": "A#4",
          "ticks": 34020,
          "time": 141.75,
          "velocity": 0.5039370078740157
        },
        {
          "duration": 0.15000000000000568,
          "durationTicks": 36,
          "midi": 65,
          "name": "F4",
          "ticks": 34020,
          "time": 141.75,
          "velocity": 0.5039370078740157
        },
        {
          "duration": 0.15000000000000568,
          "durationTicks": 36,
          "midi": 58,
          "name": "A#3",
          "ticks": 34020,
          "time": 141.75,
          "velocity": 0.6692913385826772
        },
        {
          "duration": 0.15000000000000568,
          "durationTicks": 36,
          "midi": 60,
          "name": "C4",
          "ticks": 34080,
          "time": 142,
          "velocity": 0.5039370078740157
        },
        {
          "duration": 0.15000000000000568,
          "durationTicks": 36,
          "midi": 65,
          "name": "F4",
          "ticks": 34080,
          "time": 142,
          "velocity": 0.5039370078740157
        },
        {
          "duration": 0.15000000000000568,
          "durationTicks": 36,
          "midi": 53,
          "name": "F3",
          "ticks": 34080,
          "time": 142,
          "velocity": 0.6692913385826772
        },
        {
          "duration": 0.15000000000000568,
          "durationTicks": 36,
          "midi": 48,
          "name": "C3",
          "ticks": 34080,
          "time": 142,
          "velocity": 0.6692913385826772
        },
        {
          "duration": 0.15000000000000568,
          "durationTicks": 36,
          "midi": 53,
          "name": "F3",
          "ticks": 34140,
          "time": 142.25,
          "velocity": 0.6692913385826772
        },
        {
          "duration": 0.15000000000000568,
          "durationTicks": 36,
          "midi": 60,
          "name": "C4",
          "ticks": 34140,
          "time": 142.25,
          "velocity": 0.5039370078740157
        },
        {
          "duration": 0.15000000000000568,
          "durationTicks": 36,
          "midi": 65,
          "name": "F4",
          "ticks": 34140,
          "time": 142.25,
          "velocity": 0.5039370078740157
        },
        {
          "duration": 0.15000000000000568,
          "durationTicks": 36,
          "midi": 48,
          "name": "C3",
          "ticks": 34140,
          "time": 142.25,
          "velocity": 0.6692913385826772
        },
        {
          "duration": 0.15000000000000568,
          "durationTicks": 36,
          "midi": 53,
          "name": "F3",
          "ticks": 34200,
          "time": 142.5,
          "velocity": 0.6692913385826772
        },
        {
          "duration": 0.15000000000000568,
          "durationTicks": 36,
          "midi": 48,
          "name": "C3",
          "ticks": 34200,
          "time": 142.5,
          "velocity": 0.6692913385826772
        },
        {
          "duration": 0.15000000000000568,
          "durationTicks": 36,
          "midi": 65,
          "name": "F4",
          "ticks": 34200,
          "time": 142.5,
          "velocity": 0.5039370078740157
        },
        {
          "duration": 0.15000000000000568,
          "durationTicks": 36,
          "midi": 60,
          "name": "C4",
          "ticks": 34200,
          "time": 142.5,
          "velocity": 0.5039370078740157
        },
        {
          "duration": 0.15000000000000568,
          "durationTicks": 36,
          "midi": 53,
          "name": "F3",
          "ticks": 34260,
          "time": 142.75,
          "velocity": 0.6692913385826772
        },
        {
          "duration": 0.15000000000000568,
          "durationTicks": 36,
          "midi": 65,
          "name": "F4",
          "ticks": 34260,
          "time": 142.75,
          "velocity": 0.5039370078740157
        },
        {
          "duration": 0.15000000000000568,
          "durationTicks": 36,
          "midi": 60,
          "name": "C4",
          "ticks": 34260,
          "time": 142.75,
          "velocity": 0.5039370078740157
        },
        {
          "duration": 0.15000000000000568,
          "durationTicks": 36,
          "midi": 48,
          "name": "C3",
          "ticks": 34260,
          "time": 142.75,
          "velocity": 0.6692913385826772
        },
        {
          "duration": 0.15000000000000568,
          "durationTicks": 36,
          "midi": 65,
          "name": "F4",
          "ticks": 34320,
          "time": 143,
          "velocity": 0.5039370078740157
        },
        {
          "duration": 0.15000000000000568,
          "durationTicks": 36,
          "midi": 48,
          "name": "C3",
          "ticks": 34320,
          "time": 143,
          "velocity": 0.6692913385826772
        },
        {
          "duration": 0.15000000000000568,
          "durationTicks": 36,
          "midi": 60,
          "name": "C4",
          "ticks": 34320,
          "time": 143,
          "velocity": 0.5039370078740157
        },
        {
          "duration": 0.15000000000000568,
          "durationTicks": 36,
          "midi": 53,
          "name": "F3",
          "ticks": 34320,
          "time": 143,
          "velocity": 0.6692913385826772
        },
        {
          "duration": 0.15000000000000568,
          "durationTicks": 36,
          "midi": 60,
          "name": "C4",
          "ticks": 34380,
          "time": 143.25,
          "velocity": 0.5039370078740157
        },
        {
          "duration": 0.15000000000000568,
          "durationTicks": 36,
          "midi": 65,
          "name": "F4",
          "ticks": 34380,
          "time": 143.25,
          "velocity": 0.5039370078740157
        },
        {
          "duration": 0.15000000000000568,
          "durationTicks": 36,
          "midi": 48,
          "name": "C3",
          "ticks": 34380,
          "time": 143.25,
          "velocity": 0.6692913385826772
        },
        {
          "duration": 0.15000000000000568,
          "durationTicks": 36,
          "midi": 53,
          "name": "F3",
          "ticks": 34380,
          "time": 143.25,
          "velocity": 0.6692913385826772
        },
        {
          "duration": 0.15000000000000568,
          "durationTicks": 36,
          "midi": 48,
          "name": "C3",
          "ticks": 34440,
          "time": 143.5,
          "velocity": 0.6692913385826772
        },
        {
          "duration": 0.15000000000000568,
          "durationTicks": 36,
          "midi": 65,
          "name": "F4",
          "ticks": 34440,
          "time": 143.5,
          "velocity": 0.5039370078740157
        },
        {
          "duration": 0.15000000000000568,
          "durationTicks": 36,
          "midi": 60,
          "name": "C4",
          "ticks": 34440,
          "time": 143.5,
          "velocity": 0.5039370078740157
        },
        {
          "duration": 0.15000000000000568,
          "durationTicks": 36,
          "midi": 53,
          "name": "F3",
          "ticks": 34440,
          "time": 143.5,
          "velocity": 0.6692913385826772
        },
        {
          "duration": 0.15000000000000568,
          "durationTicks": 36,
          "midi": 48,
          "name": "C3",
          "ticks": 34500,
          "time": 143.75,
          "velocity": 0.6692913385826772
        },
        {
          "duration": 0.15000000000000568,
          "durationTicks": 36,
          "midi": 53,
          "name": "F3",
          "ticks": 34500,
          "time": 143.75,
          "velocity": 0.6692913385826772
        },
        {
          "duration": 0.15000000000000568,
          "durationTicks": 36,
          "midi": 65,
          "name": "F4",
          "ticks": 34500,
          "time": 143.75,
          "velocity": 0.5039370078740157
        },
        {
          "duration": 0.15000000000000568,
          "durationTicks": 36,
          "midi": 60,
          "name": "C4",
          "ticks": 34500,
          "time": 143.75,
          "velocity": 0.5039370078740157
        },
        {
          "duration": 0.15000000000000568,
          "durationTicks": 36,
          "midi": 60,
          "name": "C4",
          "ticks": 34560,
          "time": 144,
          "velocity": 0.6692913385826772
        },
        {
          "duration": 0.15000000000000568,
          "durationTicks": 36,
          "midi": 67,
          "name": "G4",
          "ticks": 34560,
          "time": 144,
          "velocity": 0.5039370078740157
        },
        {
          "duration": 0.15000000000000568,
          "durationTicks": 36,
          "midi": 72,
          "name": "C5",
          "ticks": 34560,
          "time": 144,
          "velocity": 0.5039370078740157
        },
        {
          "duration": 0.15000000000000568,
          "durationTicks": 36,
          "midi": 55,
          "name": "G3",
          "ticks": 34560,
          "time": 144,
          "velocity": 0.6692913385826772
        },
        {
          "duration": 0.15000000000000568,
          "durationTicks": 36,
          "midi": 55,
          "name": "G3",
          "ticks": 34620,
          "time": 144.25,
          "velocity": 0.6692913385826772
        },
        {
          "duration": 0.15000000000000568,
          "durationTicks": 36,
          "midi": 60,
          "name": "C4",
          "ticks": 34620,
          "time": 144.25,
          "velocity": 0.6692913385826772
        },
        {
          "duration": 0.15000000000000568,
          "durationTicks": 36,
          "midi": 67,
          "name": "G4",
          "ticks": 34620,
          "time": 144.25,
          "velocity": 0.5039370078740157
        },
        {
          "duration": 0.15000000000000568,
          "durationTicks": 36,
          "midi": 72,
          "name": "C5",
          "ticks": 34620,
          "time": 144.25,
          "velocity": 0.5039370078740157
        },
        {
          "duration": 0.15000000000000568,
          "durationTicks": 36,
          "midi": 67,
          "name": "G4",
          "ticks": 34680,
          "time": 144.5,
          "velocity": 0.5039370078740157
        },
        {
          "duration": 0.15000000000000568,
          "durationTicks": 36,
          "midi": 55,
          "name": "G3",
          "ticks": 34680,
          "time": 144.5,
          "velocity": 0.6692913385826772
        },
        {
          "duration": 0.15000000000000568,
          "durationTicks": 36,
          "midi": 60,
          "name": "C4",
          "ticks": 34680,
          "time": 144.5,
          "velocity": 0.6692913385826772
        },
        {
          "duration": 0.15000000000000568,
          "durationTicks": 36,
          "midi": 72,
          "name": "C5",
          "ticks": 34680,
          "time": 144.5,
          "velocity": 0.5039370078740157
        },
        {
          "duration": 0.15000000000000568,
          "durationTicks": 36,
          "midi": 72,
          "name": "C5",
          "ticks": 34740,
          "time": 144.75,
          "velocity": 0.5039370078740157
        },
        {
          "duration": 0.15000000000000568,
          "durationTicks": 36,
          "midi": 67,
          "name": "G4",
          "ticks": 34740,
          "time": 144.75,
          "velocity": 0.5039370078740157
        },
        {
          "duration": 0.15000000000000568,
          "durationTicks": 36,
          "midi": 55,
          "name": "G3",
          "ticks": 34740,
          "time": 144.75,
          "velocity": 0.6692913385826772
        },
        {
          "duration": 0.15000000000000568,
          "durationTicks": 36,
          "midi": 60,
          "name": "C4",
          "ticks": 34740,
          "time": 144.75,
          "velocity": 0.6692913385826772
        },
        {
          "duration": 0.15000000000000568,
          "durationTicks": 36,
          "midi": 57,
          "name": "A3",
          "ticks": 34800,
          "time": 145,
          "velocity": 0.6692913385826772
        },
        {
          "duration": 0.15000000000000568,
          "durationTicks": 36,
          "midi": 62,
          "name": "D4",
          "ticks": 34800,
          "time": 145,
          "velocity": 0.6692913385826772
        },
        {
          "duration": 0.15000000000000568,
          "durationTicks": 36,
          "midi": 74,
          "name": "D5",
          "ticks": 34800,
          "time": 145,
          "velocity": 0.5039370078740157
        },
        {
          "duration": 0.15000000000000568,
          "durationTicks": 36,
          "midi": 69,
          "name": "A4",
          "ticks": 34800,
          "time": 145,
          "velocity": 0.5039370078740157
        },
        {
          "duration": 0.15000000000000568,
          "durationTicks": 36,
          "midi": 74,
          "name": "D5",
          "ticks": 34860,
          "time": 145.25,
          "velocity": 0.5039370078740157
        },
        {
          "duration": 0.15000000000000568,
          "durationTicks": 36,
          "midi": 62,
          "name": "D4",
          "ticks": 34860,
          "time": 145.25,
          "velocity": 0.6692913385826772
        },
        {
          "duration": 0.15000000000000568,
          "durationTicks": 36,
          "midi": 69,
          "name": "A4",
          "ticks": 34860,
          "time": 145.25,
          "velocity": 0.5039370078740157
        },
        {
          "duration": 0.15000000000000568,
          "durationTicks": 36,
          "midi": 57,
          "name": "A3",
          "ticks": 34860,
          "time": 145.25,
          "velocity": 0.6692913385826772
        },
        {
          "duration": 0.15000000000000568,
          "durationTicks": 36,
          "midi": 74,
          "name": "D5",
          "ticks": 34920,
          "time": 145.5,
          "velocity": 0.5039370078740157
        },
        {
          "duration": 0.15000000000000568,
          "durationTicks": 36,
          "midi": 69,
          "name": "A4",
          "ticks": 34920,
          "time": 145.5,
          "velocity": 0.5039370078740157
        },
        {
          "duration": 0.15000000000000568,
          "durationTicks": 36,
          "midi": 62,
          "name": "D4",
          "ticks": 34920,
          "time": 145.5,
          "velocity": 0.6692913385826772
        },
        {
          "duration": 0.15000000000000568,
          "durationTicks": 36,
          "midi": 57,
          "name": "A3",
          "ticks": 34920,
          "time": 145.5,
          "velocity": 0.6692913385826772
        },
        {
          "duration": 0.15000000000000568,
          "durationTicks": 36,
          "midi": 69,
          "name": "A4",
          "ticks": 34980,
          "time": 145.75,
          "velocity": 0.5039370078740157
        },
        {
          "duration": 0.15000000000000568,
          "durationTicks": 36,
          "midi": 74,
          "name": "D5",
          "ticks": 34980,
          "time": 145.75,
          "velocity": 0.5039370078740157
        },
        {
          "duration": 0.15000000000000568,
          "durationTicks": 36,
          "midi": 57,
          "name": "A3",
          "ticks": 34980,
          "time": 145.75,
          "velocity": 0.6692913385826772
        },
        {
          "duration": 0.15000000000000568,
          "durationTicks": 36,
          "midi": 62,
          "name": "D4",
          "ticks": 34980,
          "time": 145.75,
          "velocity": 0.6692913385826772
        },
        {
          "duration": 0.15000000000000568,
          "durationTicks": 36,
          "midi": 70,
          "name": "A#4",
          "ticks": 35040,
          "time": 146,
          "velocity": 0.5039370078740157
        },
        {
          "duration": 0.15000000000000568,
          "durationTicks": 36,
          "midi": 63,
          "name": "D#4",
          "ticks": 35040,
          "time": 146,
          "velocity": 0.6692913385826772
        },
        {
          "duration": 0.15000000000000568,
          "durationTicks": 36,
          "midi": 75,
          "name": "D#5",
          "ticks": 35040,
          "time": 146,
          "velocity": 0.5039370078740157
        },
        {
          "duration": 0.15000000000000568,
          "durationTicks": 36,
          "midi": 58,
          "name": "A#3",
          "ticks": 35040,
          "time": 146,
          "velocity": 0.6692913385826772
        },
        {
          "duration": 0.15000000000000568,
          "durationTicks": 36,
          "midi": 75,
          "name": "D#5",
          "ticks": 35100,
          "time": 146.25,
          "velocity": 0.5039370078740157
        },
        {
          "duration": 0.15000000000000568,
          "durationTicks": 36,
          "midi": 70,
          "name": "A#4",
          "ticks": 35100,
          "time": 146.25,
          "velocity": 0.5039370078740157
        },
        {
          "duration": 0.15000000000000568,
          "durationTicks": 36,
          "midi": 58,
          "name": "A#3",
          "ticks": 35100,
          "time": 146.25,
          "velocity": 0.6692913385826772
        },
        {
          "duration": 0.15000000000000568,
          "durationTicks": 36,
          "midi": 63,
          "name": "D#4",
          "ticks": 35100,
          "time": 146.25,
          "velocity": 0.6692913385826772
        },
        {
          "duration": 0.15000000000000568,
          "durationTicks": 36,
          "midi": 58,
          "name": "A#3",
          "ticks": 35160,
          "time": 146.5,
          "velocity": 0.6692913385826772
        },
        {
          "duration": 0.15000000000000568,
          "durationTicks": 36,
          "midi": 63,
          "name": "D#4",
          "ticks": 35160,
          "time": 146.5,
          "velocity": 0.6692913385826772
        },
        {
          "duration": 0.15000000000000568,
          "durationTicks": 36,
          "midi": 70,
          "name": "A#4",
          "ticks": 35160,
          "time": 146.5,
          "velocity": 0.5039370078740157
        },
        {
          "duration": 0.15000000000000568,
          "durationTicks": 36,
          "midi": 75,
          "name": "D#5",
          "ticks": 35160,
          "time": 146.5,
          "velocity": 0.5039370078740157
        },
        {
          "duration": 0.15000000000000568,
          "durationTicks": 36,
          "midi": 63,
          "name": "D#4",
          "ticks": 35220,
          "time": 146.75,
          "velocity": 0.6692913385826772
        },
        {
          "duration": 0.15000000000000568,
          "durationTicks": 36,
          "midi": 75,
          "name": "D#5",
          "ticks": 35220,
          "time": 146.75,
          "velocity": 0.5039370078740157
        },
        {
          "duration": 0.15000000000000568,
          "durationTicks": 36,
          "midi": 58,
          "name": "A#3",
          "ticks": 35220,
          "time": 146.75,
          "velocity": 0.6692913385826772
        },
        {
          "duration": 0.15000000000000568,
          "durationTicks": 36,
          "midi": 70,
          "name": "A#4",
          "ticks": 35220,
          "time": 146.75,
          "velocity": 0.5039370078740157
        },
        {
          "duration": 0.15000000000000568,
          "durationTicks": 36,
          "midi": 60,
          "name": "C4",
          "ticks": 35280,
          "time": 147,
          "velocity": 0.6692913385826772
        },
        {
          "duration": 0.15000000000000568,
          "durationTicks": 36,
          "midi": 67,
          "name": "G4",
          "ticks": 35280,
          "time": 147,
          "velocity": 0.6692913385826772
        },
        {
          "duration": 0.15000000000000568,
          "durationTicks": 36,
          "midi": 77,
          "name": "F5",
          "ticks": 35280,
          "time": 147,
          "velocity": 0.5039370078740157
        },
        {
          "duration": 0.15000000000000568,
          "durationTicks": 36,
          "midi": 72,
          "name": "C5",
          "ticks": 35280,
          "time": 147,
          "velocity": 0.5039370078740157
        },
        {
          "duration": 0.15000000000000568,
          "durationTicks": 36,
          "midi": 60,
          "name": "C4",
          "ticks": 35340,
          "time": 147.25,
          "velocity": 0.6692913385826772
        },
        {
          "duration": 0.15000000000000568,
          "durationTicks": 36,
          "midi": 77,
          "name": "F5",
          "ticks": 35340,
          "time": 147.25,
          "velocity": 0.5039370078740157
        },
        {
          "duration": 0.15000000000000568,
          "durationTicks": 36,
          "midi": 67,
          "name": "G4",
          "ticks": 35340,
          "time": 147.25,
          "velocity": 0.6692913385826772
        },
        {
          "duration": 0.15000000000000568,
          "durationTicks": 36,
          "midi": 72,
          "name": "C5",
          "ticks": 35340,
          "time": 147.25,
          "velocity": 0.5039370078740157
        },
        {
          "duration": 0.15000000000000568,
          "durationTicks": 36,
          "midi": 77,
          "name": "F5",
          "ticks": 35400,
          "time": 147.5,
          "velocity": 0.5039370078740157
        },
        {
          "duration": 0.15000000000000568,
          "durationTicks": 36,
          "midi": 67,
          "name": "G4",
          "ticks": 35400,
          "time": 147.5,
          "velocity": 0.6692913385826772
        },
        {
          "duration": 0.15000000000000568,
          "durationTicks": 36,
          "midi": 72,
          "name": "C5",
          "ticks": 35400,
          "time": 147.5,
          "velocity": 0.5039370078740157
        },
        {
          "duration": 0.15000000000000568,
          "durationTicks": 36,
          "midi": 60,
          "name": "C4",
          "ticks": 35400,
          "time": 147.5,
          "velocity": 0.6692913385826772
        },
        {
          "duration": 0.15000000000000568,
          "durationTicks": 36,
          "midi": 77,
          "name": "F5",
          "ticks": 35460,
          "time": 147.75,
          "velocity": 0.5039370078740157
        },
        {
          "duration": 0.15000000000000568,
          "durationTicks": 36,
          "midi": 72,
          "name": "C5",
          "ticks": 35460,
          "time": 147.75,
          "velocity": 0.5039370078740157
        },
        {
          "duration": 0.15000000000000568,
          "durationTicks": 36,
          "midi": 60,
          "name": "C4",
          "ticks": 35460,
          "time": 147.75,
          "velocity": 0.6692913385826772
        },
        {
          "duration": 0.15000000000000568,
          "durationTicks": 36,
          "midi": 67,
          "name": "G4",
          "ticks": 35460,
          "time": 147.75,
          "velocity": 0.6692913385826772
        },
        {
          "duration": 0.15000000000000568,
          "durationTicks": 36,
          "midi": 50,
          "name": "D3",
          "ticks": 35520,
          "time": 148,
          "velocity": 0.6692913385826772
        },
        {
          "duration": 0.15000000000000568,
          "durationTicks": 36,
          "midi": 62,
          "name": "D4",
          "ticks": 35520,
          "time": 148,
          "velocity": 0.6692913385826772
        },
        {
          "duration": 0.15000000000000568,
          "durationTicks": 36,
          "midi": 55,
          "name": "G3",
          "ticks": 35520,
          "time": 148,
          "velocity": 0.6692913385826772
        },
        {
          "duration": 0.15000000000000568,
          "durationTicks": 36,
          "midi": 67,
          "name": "G4",
          "ticks": 35520,
          "time": 148,
          "velocity": 0.5039370078740157
        },
        {
          "duration": 0.15000000000000568,
          "durationTicks": 36,
          "midi": 55,
          "name": "G3",
          "ticks": 35580,
          "time": 148.25,
          "velocity": 0.6692913385826772
        },
        {
          "duration": 0.15000000000000568,
          "durationTicks": 36,
          "midi": 50,
          "name": "D3",
          "ticks": 35580,
          "time": 148.25,
          "velocity": 0.6692913385826772
        },
        {
          "duration": 0.15000000000000568,
          "durationTicks": 36,
          "midi": 62,
          "name": "D4",
          "ticks": 35580,
          "time": 148.25,
          "velocity": 0.6692913385826772
        },
        {
          "duration": 0.15000000000000568,
          "durationTicks": 36,
          "midi": 67,
          "name": "G4",
          "ticks": 35580,
          "time": 148.25,
          "velocity": 0.5039370078740157
        },
        {
          "duration": 0.15000000000000568,
          "durationTicks": 36,
          "midi": 50,
          "name": "D3",
          "ticks": 35640,
          "time": 148.5,
          "velocity": 0.6692913385826772
        },
        {
          "duration": 0.15000000000000568,
          "durationTicks": 36,
          "midi": 55,
          "name": "G3",
          "ticks": 35640,
          "time": 148.5,
          "velocity": 0.6692913385826772
        },
        {
          "duration": 0.15000000000000568,
          "durationTicks": 36,
          "midi": 67,
          "name": "G4",
          "ticks": 35640,
          "time": 148.5,
          "velocity": 0.5039370078740157
        },
        {
          "duration": 0.15000000000000568,
          "durationTicks": 36,
          "midi": 62,
          "name": "D4",
          "ticks": 35640,
          "time": 148.5,
          "velocity": 0.6692913385826772
        },
        {
          "duration": 0.15000000000000568,
          "durationTicks": 36,
          "midi": 50,
          "name": "D3",
          "ticks": 35700,
          "time": 148.75,
          "velocity": 0.6692913385826772
        },
        {
          "duration": 0.15000000000000568,
          "durationTicks": 36,
          "midi": 55,
          "name": "G3",
          "ticks": 35700,
          "time": 148.75,
          "velocity": 0.6692913385826772
        },
        {
          "duration": 0.15000000000000568,
          "durationTicks": 36,
          "midi": 67,
          "name": "G4",
          "ticks": 35700,
          "time": 148.75,
          "velocity": 0.5039370078740157
        },
        {
          "duration": 0.15000000000000568,
          "durationTicks": 36,
          "midi": 62,
          "name": "D4",
          "ticks": 35700,
          "time": 148.75,
          "velocity": 0.6692913385826772
        },
        {
          "duration": 0.15000000000000568,
          "durationTicks": 36,
          "midi": 67,
          "name": "G4",
          "ticks": 35760,
          "time": 149,
          "velocity": 0.5039370078740157
        },
        {
          "duration": 0.15000000000000568,
          "durationTicks": 36,
          "midi": 55,
          "name": "G3",
          "ticks": 35760,
          "time": 149,
          "velocity": 0.6692913385826772
        },
        {
          "duration": 0.15000000000000568,
          "durationTicks": 36,
          "midi": 62,
          "name": "D4",
          "ticks": 35760,
          "time": 149,
          "velocity": 0.6692913385826772
        },
        {
          "duration": 0.15000000000000568,
          "durationTicks": 36,
          "midi": 50,
          "name": "D3",
          "ticks": 35760,
          "time": 149,
          "velocity": 0.6692913385826772
        },
        {
          "duration": 0.15000000000000568,
          "durationTicks": 36,
          "midi": 55,
          "name": "G3",
          "ticks": 35820,
          "time": 149.25,
          "velocity": 0.6692913385826772
        },
        {
          "duration": 0.15000000000000568,
          "durationTicks": 36,
          "midi": 67,
          "name": "G4",
          "ticks": 35820,
          "time": 149.25,
          "velocity": 0.5039370078740157
        },
        {
          "duration": 0.15000000000000568,
          "durationTicks": 36,
          "midi": 50,
          "name": "D3",
          "ticks": 35820,
          "time": 149.25,
          "velocity": 0.6692913385826772
        },
        {
          "duration": 0.15000000000000568,
          "durationTicks": 36,
          "midi": 62,
          "name": "D4",
          "ticks": 35820,
          "time": 149.25,
          "velocity": 0.6692913385826772
        },
        {
          "duration": 0.15000000000000568,
          "durationTicks": 36,
          "midi": 62,
          "name": "D4",
          "ticks": 35880,
          "time": 149.5,
          "velocity": 0.6692913385826772
        },
        {
          "duration": 0.15000000000000568,
          "durationTicks": 36,
          "midi": 50,
          "name": "D3",
          "ticks": 35880,
          "time": 149.5,
          "velocity": 0.6692913385826772
        },
        {
          "duration": 0.15000000000000568,
          "durationTicks": 36,
          "midi": 55,
          "name": "G3",
          "ticks": 35880,
          "time": 149.5,
          "velocity": 0.6692913385826772
        },
        {
          "duration": 0.15000000000000568,
          "durationTicks": 36,
          "midi": 67,
          "name": "G4",
          "ticks": 35880,
          "time": 149.5,
          "velocity": 0.5039370078740157
        },
        {
          "duration": 0.15000000000000568,
          "durationTicks": 36,
          "midi": 67,
          "name": "G4",
          "ticks": 35940,
          "time": 149.75,
          "velocity": 0.5039370078740157
        },
        {
          "duration": 0.15000000000000568,
          "durationTicks": 36,
          "midi": 50,
          "name": "D3",
          "ticks": 35940,
          "time": 149.75,
          "velocity": 0.6692913385826772
        },
        {
          "duration": 0.15000000000000568,
          "durationTicks": 36,
          "midi": 62,
          "name": "D4",
          "ticks": 35940,
          "time": 149.75,
          "velocity": 0.6692913385826772
        },
        {
          "duration": 0.15000000000000568,
          "durationTicks": 36,
          "midi": 55,
          "name": "G3",
          "ticks": 35940,
          "time": 149.75,
          "velocity": 0.6692913385826772
        },
        {
          "duration": 0.15000000000000568,
          "durationTicks": 36,
          "midi": 65,
          "name": "F4",
          "ticks": 36000,
          "time": 150,
          "velocity": 0.6692913385826772
        },
        {
          "duration": 0.15000000000000568,
          "durationTicks": 36,
          "midi": 58,
          "name": "A#3",
          "ticks": 36000,
          "time": 150,
          "velocity": 0.6692913385826772
        },
        {
          "duration": 0.15000000000000568,
          "durationTicks": 36,
          "midi": 70,
          "name": "A#4",
          "ticks": 36000,
          "time": 150,
          "velocity": 0.5039370078740157
        },
        {
          "duration": 0.15000000000000568,
          "durationTicks": 36,
          "midi": 53,
          "name": "F3",
          "ticks": 36000,
          "time": 150,
          "velocity": 0.6692913385826772
        },
        {
          "duration": 0.15000000000000568,
          "durationTicks": 36,
          "midi": 70,
          "name": "A#4",
          "ticks": 36060,
          "time": 150.25,
          "velocity": 0.5039370078740157
        },
        {
          "duration": 0.15000000000000568,
          "durationTicks": 36,
          "midi": 53,
          "name": "F3",
          "ticks": 36060,
          "time": 150.25,
          "velocity": 0.6692913385826772
        },
        {
          "duration": 0.15000000000000568,
          "durationTicks": 36,
          "midi": 65,
          "name": "F4",
          "ticks": 36060,
          "time": 150.25,
          "velocity": 0.6692913385826772
        },
        {
          "duration": 0.15000000000000568,
          "durationTicks": 36,
          "midi": 58,
          "name": "A#3",
          "ticks": 36060,
          "time": 150.25,
          "velocity": 0.6692913385826772
        },
        {
          "duration": 0.15000000000000568,
          "durationTicks": 36,
          "midi": 65,
          "name": "F4",
          "ticks": 36120,
          "time": 150.5,
          "velocity": 0.6692913385826772
        },
        {
          "duration": 0.15000000000000568,
          "durationTicks": 36,
          "midi": 58,
          "name": "A#3",
          "ticks": 36120,
          "time": 150.5,
          "velocity": 0.6692913385826772
        },
        {
          "duration": 0.15000000000000568,
          "durationTicks": 36,
          "midi": 70,
          "name": "A#4",
          "ticks": 36120,
          "time": 150.5,
          "velocity": 0.5039370078740157
        },
        {
          "duration": 0.15000000000000568,
          "durationTicks": 36,
          "midi": 53,
          "name": "F3",
          "ticks": 36120,
          "time": 150.5,
          "velocity": 0.6692913385826772
        },
        {
          "duration": 0.15000000000000568,
          "durationTicks": 36,
          "midi": 58,
          "name": "A#3",
          "ticks": 36180,
          "time": 150.75,
          "velocity": 0.6692913385826772
        },
        {
          "duration": 0.15000000000000568,
          "durationTicks": 36,
          "midi": 53,
          "name": "F3",
          "ticks": 36180,
          "time": 150.75,
          "velocity": 0.6692913385826772
        },
        {
          "duration": 0.15000000000000568,
          "durationTicks": 36,
          "midi": 70,
          "name": "A#4",
          "ticks": 36180,
          "time": 150.75,
          "velocity": 0.5039370078740157
        },
        {
          "duration": 0.15000000000000568,
          "durationTicks": 36,
          "midi": 65,
          "name": "F4",
          "ticks": 36180,
          "time": 150.75,
          "velocity": 0.6692913385826772
        },
        {
          "duration": 0.15000000000000568,
          "durationTicks": 36,
          "midi": 58,
          "name": "A#3",
          "ticks": 36240,
          "time": 151,
          "velocity": 0.6692913385826772
        },
        {
          "duration": 0.15000000000000568,
          "durationTicks": 36,
          "midi": 65,
          "name": "F4",
          "ticks": 36240,
          "time": 151,
          "velocity": 0.6692913385826772
        },
        {
          "duration": 0.15000000000000568,
          "durationTicks": 36,
          "midi": 70,
          "name": "A#4",
          "ticks": 36240,
          "time": 151,
          "velocity": 0.5039370078740157
        },
        {
          "duration": 0.15000000000000568,
          "durationTicks": 36,
          "midi": 53,
          "name": "F3",
          "ticks": 36240,
          "time": 151,
          "velocity": 0.6692913385826772
        },
        {
          "duration": 0.15000000000000568,
          "durationTicks": 36,
          "midi": 70,
          "name": "A#4",
          "ticks": 36300,
          "time": 151.25,
          "velocity": 0.5039370078740157
        },
        {
          "duration": 0.15000000000000568,
          "durationTicks": 36,
          "midi": 53,
          "name": "F3",
          "ticks": 36300,
          "time": 151.25,
          "velocity": 0.6692913385826772
        },
        {
          "duration": 0.15000000000000568,
          "durationTicks": 36,
          "midi": 65,
          "name": "F4",
          "ticks": 36300,
          "time": 151.25,
          "velocity": 0.6692913385826772
        },
        {
          "duration": 0.15000000000000568,
          "durationTicks": 36,
          "midi": 58,
          "name": "A#3",
          "ticks": 36300,
          "time": 151.25,
          "velocity": 0.6692913385826772
        },
        {
          "duration": 0.15000000000000568,
          "durationTicks": 36,
          "midi": 58,
          "name": "A#3",
          "ticks": 36360,
          "time": 151.5,
          "velocity": 0.6692913385826772
        },
        {
          "duration": 0.15000000000000568,
          "durationTicks": 36,
          "midi": 53,
          "name": "F3",
          "ticks": 36360,
          "time": 151.5,
          "velocity": 0.6692913385826772
        },
        {
          "duration": 0.15000000000000568,
          "durationTicks": 36,
          "midi": 70,
          "name": "A#4",
          "ticks": 36360,
          "time": 151.5,
          "velocity": 0.5039370078740157
        },
        {
          "duration": 0.15000000000000568,
          "durationTicks": 36,
          "midi": 65,
          "name": "F4",
          "ticks": 36360,
          "time": 151.5,
          "velocity": 0.6692913385826772
        },
        {
          "duration": 0.15000000000000568,
          "durationTicks": 36,
          "midi": 70,
          "name": "A#4",
          "ticks": 36420,
          "time": 151.75,
          "velocity": 0.5039370078740157
        },
        {
          "duration": 0.15000000000000568,
          "durationTicks": 36,
          "midi": 65,
          "name": "F4",
          "ticks": 36420,
          "time": 151.75,
          "velocity": 0.6692913385826772
        },
        {
          "duration": 0.15000000000000568,
          "durationTicks": 36,
          "midi": 58,
          "name": "A#3",
          "ticks": 36420,
          "time": 151.75,
          "velocity": 0.6692913385826772
        },
        {
          "duration": 0.15000000000000568,
          "durationTicks": 36,
          "midi": 53,
          "name": "F3",
          "ticks": 36420,
          "time": 151.75,
          "velocity": 0.6692913385826772
        },
        {
          "duration": 0.15000000000000568,
          "durationTicks": 36,
          "midi": 65,
          "name": "F4",
          "ticks": 36480,
          "time": 152,
          "velocity": 0.5039370078740157
        },
        {
          "duration": 0.15000000000000568,
          "durationTicks": 36,
          "midi": 60,
          "name": "C4",
          "ticks": 36480,
          "time": 152,
          "velocity": 0.6692913385826772
        },
        {
          "duration": 0.15000000000000568,
          "durationTicks": 36,
          "midi": 53,
          "name": "F3",
          "ticks": 36480,
          "time": 152,
          "velocity": 0.6692913385826772
        },
        {
          "duration": 0.15000000000000568,
          "durationTicks": 36,
          "midi": 48,
          "name": "C3",
          "ticks": 36480,
          "time": 152,
          "velocity": 0.6692913385826772
        },
        {
          "duration": 0.15000000000000568,
          "durationTicks": 36,
          "midi": 60,
          "name": "C4",
          "ticks": 36540,
          "time": 152.25,
          "velocity": 0.6692913385826772
        },
        {
          "duration": 0.15000000000000568,
          "durationTicks": 36,
          "midi": 65,
          "name": "F4",
          "ticks": 36540,
          "time": 152.25,
          "velocity": 0.5039370078740157
        },
        {
          "duration": 0.15000000000000568,
          "durationTicks": 36,
          "midi": 53,
          "name": "F3",
          "ticks": 36540,
          "time": 152.25,
          "velocity": 0.6692913385826772
        },
        {
          "duration": 0.15000000000000568,
          "durationTicks": 36,
          "midi": 48,
          "name": "C3",
          "ticks": 36540,
          "time": 152.25,
          "velocity": 0.6692913385826772
        },
        {
          "duration": 0.15000000000000568,
          "durationTicks": 36,
          "midi": 53,
          "name": "F3",
          "ticks": 36600,
          "time": 152.5,
          "velocity": 0.6692913385826772
        },
        {
          "duration": 0.15000000000000568,
          "durationTicks": 36,
          "midi": 65,
          "name": "F4",
          "ticks": 36600,
          "time": 152.5,
          "velocity": 0.5039370078740157
        },
        {
          "duration": 0.15000000000000568,
          "durationTicks": 36,
          "midi": 48,
          "name": "C3",
          "ticks": 36600,
          "time": 152.5,
          "velocity": 0.6692913385826772
        },
        {
          "duration": 0.15000000000000568,
          "durationTicks": 36,
          "midi": 60,
          "name": "C4",
          "ticks": 36600,
          "time": 152.5,
          "velocity": 0.6692913385826772
        },
        {
          "duration": 0.15000000000000568,
          "durationTicks": 36,
          "midi": 53,
          "name": "F3",
          "ticks": 36660,
          "time": 152.75,
          "velocity": 0.6692913385826772
        },
        {
          "duration": 0.15000000000000568,
          "durationTicks": 36,
          "midi": 60,
          "name": "C4",
          "ticks": 36660,
          "time": 152.75,
          "velocity": 0.6692913385826772
        },
        {
          "duration": 0.15000000000000568,
          "durationTicks": 36,
          "midi": 65,
          "name": "F4",
          "ticks": 36660,
          "time": 152.75,
          "velocity": 0.5039370078740157
        },
        {
          "duration": 0.15000000000000568,
          "durationTicks": 36,
          "midi": 48,
          "name": "C3",
          "ticks": 36660,
          "time": 152.75,
          "velocity": 0.6692913385826772
        },
        {
          "duration": 0.15000000000000568,
          "durationTicks": 36,
          "midi": 65,
          "name": "F4",
          "ticks": 36720,
          "time": 153,
          "velocity": 0.5039370078740157
        },
        {
          "duration": 0.15000000000000568,
          "durationTicks": 36,
          "midi": 53,
          "name": "F3",
          "ticks": 36720,
          "time": 153,
          "velocity": 0.6692913385826772
        },
        {
          "duration": 0.15000000000000568,
          "durationTicks": 36,
          "midi": 60,
          "name": "C4",
          "ticks": 36720,
          "time": 153,
          "velocity": 0.6692913385826772
        },
        {
          "duration": 0.15000000000000568,
          "durationTicks": 36,
          "midi": 48,
          "name": "C3",
          "ticks": 36720,
          "time": 153,
          "velocity": 0.6692913385826772
        },
        {
          "duration": 0.15000000000000568,
          "durationTicks": 36,
          "midi": 53,
          "name": "F3",
          "ticks": 36780,
          "time": 153.25,
          "velocity": 0.6692913385826772
        },
        {
          "duration": 0.15000000000000568,
          "durationTicks": 36,
          "midi": 65,
          "name": "F4",
          "ticks": 36780,
          "time": 153.25,
          "velocity": 0.5039370078740157
        },
        {
          "duration": 0.15000000000000568,
          "durationTicks": 36,
          "midi": 60,
          "name": "C4",
          "ticks": 36780,
          "time": 153.25,
          "velocity": 0.6692913385826772
        },
        {
          "duration": 0.15000000000000568,
          "durationTicks": 36,
          "midi": 48,
          "name": "C3",
          "ticks": 36780,
          "time": 153.25,
          "velocity": 0.6692913385826772
        },
        {
          "duration": 0.15000000000000568,
          "durationTicks": 36,
          "midi": 60,
          "name": "C4",
          "ticks": 36840,
          "time": 153.5,
          "velocity": 0.6692913385826772
        },
        {
          "duration": 0.15000000000000568,
          "durationTicks": 36,
          "midi": 53,
          "name": "F3",
          "ticks": 36840,
          "time": 153.5,
          "velocity": 0.6692913385826772
        },
        {
          "duration": 0.15000000000000568,
          "durationTicks": 36,
          "midi": 65,
          "name": "F4",
          "ticks": 36840,
          "time": 153.5,
          "velocity": 0.5039370078740157
        },
        {
          "duration": 0.15000000000000568,
          "durationTicks": 36,
          "midi": 48,
          "name": "C3",
          "ticks": 36840,
          "time": 153.5,
          "velocity": 0.6692913385826772
        },
        {
          "duration": 0.15000000000000568,
          "durationTicks": 36,
          "midi": 53,
          "name": "F3",
          "ticks": 36900,
          "time": 153.75,
          "velocity": 0.6692913385826772
        },
        {
          "duration": 0.15000000000000568,
          "durationTicks": 36,
          "midi": 48,
          "name": "C3",
          "ticks": 36900,
          "time": 153.75,
          "velocity": 0.6692913385826772
        },
        {
          "duration": 0.15000000000000568,
          "durationTicks": 36,
          "midi": 60,
          "name": "C4",
          "ticks": 36900,
          "time": 153.75,
          "velocity": 0.6692913385826772
        },
        {
          "duration": 0.15000000000000568,
          "durationTicks": 36,
          "midi": 65,
          "name": "F4",
          "ticks": 36900,
          "time": 153.75,
          "velocity": 0.5039370078740157
        },
        {
          "duration": 0.15000000000000568,
          "durationTicks": 36,
          "midi": 67,
          "name": "G4",
          "ticks": 36960,
          "time": 154,
          "velocity": 0.5039370078740157
        },
        {
          "duration": 0.15000000000000568,
          "durationTicks": 36,
          "midi": 55,
          "name": "G3",
          "ticks": 36960,
          "time": 154,
          "velocity": 0.6692913385826772
        },
        {
          "duration": 0.15000000000000568,
          "durationTicks": 36,
          "midi": 48,
          "name": "C3",
          "ticks": 36960,
          "time": 154,
          "velocity": 0.6692913385826772
        },
        {
          "duration": 0.15000000000000568,
          "durationTicks": 36,
          "midi": 60,
          "name": "C4",
          "ticks": 36960,
          "time": 154,
          "velocity": 0.6692913385826772
        },
        {
          "duration": 0.15000000000000568,
          "durationTicks": 36,
          "midi": 60,
          "name": "C4",
          "ticks": 37020,
          "time": 154.25,
          "velocity": 0.6692913385826772
        },
        {
          "duration": 0.15000000000000568,
          "durationTicks": 36,
          "midi": 48,
          "name": "C3",
          "ticks": 37020,
          "time": 154.25,
          "velocity": 0.6692913385826772
        },
        {
          "duration": 0.15000000000000568,
          "durationTicks": 36,
          "midi": 67,
          "name": "G4",
          "ticks": 37020,
          "time": 154.25,
          "velocity": 0.5039370078740157
        },
        {
          "duration": 0.15000000000000568,
          "durationTicks": 36,
          "midi": 55,
          "name": "G3",
          "ticks": 37020,
          "time": 154.25,
          "velocity": 0.6692913385826772
        },
        {
          "duration": 0.15000000000000568,
          "durationTicks": 36,
          "midi": 48,
          "name": "C3",
          "ticks": 37080,
          "time": 154.5,
          "velocity": 0.6692913385826772
        },
        {
          "duration": 0.15000000000000568,
          "durationTicks": 36,
          "midi": 67,
          "name": "G4",
          "ticks": 37080,
          "time": 154.5,
          "velocity": 0.5039370078740157
        },
        {
          "duration": 0.15000000000000568,
          "durationTicks": 36,
          "midi": 55,
          "name": "G3",
          "ticks": 37080,
          "time": 154.5,
          "velocity": 0.6692913385826772
        },
        {
          "duration": 0.15000000000000568,
          "durationTicks": 36,
          "midi": 60,
          "name": "C4",
          "ticks": 37080,
          "time": 154.5,
          "velocity": 0.6692913385826772
        },
        {
          "duration": 0.15000000000000568,
          "durationTicks": 36,
          "midi": 55,
          "name": "G3",
          "ticks": 37140,
          "time": 154.75,
          "velocity": 0.6692913385826772
        },
        {
          "duration": 0.15000000000000568,
          "durationTicks": 36,
          "midi": 48,
          "name": "C3",
          "ticks": 37140,
          "time": 154.75,
          "velocity": 0.6692913385826772
        },
        {
          "duration": 0.15000000000000568,
          "durationTicks": 36,
          "midi": 60,
          "name": "C4",
          "ticks": 37140,
          "time": 154.75,
          "velocity": 0.6692913385826772
        },
        {
          "duration": 0.15000000000000568,
          "durationTicks": 36,
          "midi": 67,
          "name": "G4",
          "ticks": 37140,
          "time": 154.75,
          "velocity": 0.5039370078740157
        },
        {
          "duration": 0.15000000000000568,
          "durationTicks": 36,
          "midi": 67,
          "name": "G4",
          "ticks": 37200,
          "time": 155,
          "velocity": 0.5039370078740157
        },
        {
          "duration": 0.15000000000000568,
          "durationTicks": 36,
          "midi": 57,
          "name": "A3",
          "ticks": 37200,
          "time": 155,
          "velocity": 0.6692913385826772
        },
        {
          "duration": 0.15000000000000568,
          "durationTicks": 36,
          "midi": 48,
          "name": "C3",
          "ticks": 37200,
          "time": 155,
          "velocity": 0.6692913385826772
        },
        {
          "duration": 0.15000000000000568,
          "durationTicks": 36,
          "midi": 60,
          "name": "C4",
          "ticks": 37200,
          "time": 155,
          "velocity": 0.6692913385826772
        },
        {
          "duration": 0.15000000000000568,
          "durationTicks": 36,
          "midi": 60,
          "name": "C4",
          "ticks": 37260,
          "time": 155.25,
          "velocity": 0.6692913385826772
        },
        {
          "duration": 0.15000000000000568,
          "durationTicks": 36,
          "midi": 57,
          "name": "A3",
          "ticks": 37260,
          "time": 155.25,
          "velocity": 0.6692913385826772
        },
        {
          "duration": 0.15000000000000568,
          "durationTicks": 36,
          "midi": 48,
          "name": "C3",
          "ticks": 37260,
          "time": 155.25,
          "velocity": 0.6692913385826772
        },
        {
          "duration": 0.15000000000000568,
          "durationTicks": 36,
          "midi": 67,
          "name": "G4",
          "ticks": 37260,
          "time": 155.25,
          "velocity": 0.5039370078740157
        },
        {
          "duration": 0.15000000000000568,
          "durationTicks": 36,
          "midi": 57,
          "name": "A3",
          "ticks": 37320,
          "time": 155.5,
          "velocity": 0.6692913385826772
        },
        {
          "duration": 0.15000000000000568,
          "durationTicks": 36,
          "midi": 60,
          "name": "C4",
          "ticks": 37320,
          "time": 155.5,
          "velocity": 0.6692913385826772
        },
        {
          "duration": 0.15000000000000568,
          "durationTicks": 36,
          "midi": 67,
          "name": "G4",
          "ticks": 37320,
          "time": 155.5,
          "velocity": 0.5039370078740157
        },
        {
          "duration": 0.15000000000000568,
          "durationTicks": 36,
          "midi": 48,
          "name": "C3",
          "ticks": 37320,
          "time": 155.5,
          "velocity": 0.6692913385826772
        },
        {
          "duration": 0.15000000000000568,
          "durationTicks": 36,
          "midi": 57,
          "name": "A3",
          "ticks": 37380,
          "time": 155.75,
          "velocity": 0.6692913385826772
        },
        {
          "duration": 0.15000000000000568,
          "durationTicks": 36,
          "midi": 60,
          "name": "C4",
          "ticks": 37380,
          "time": 155.75,
          "velocity": 0.6692913385826772
        },
        {
          "duration": 0.15000000000000568,
          "durationTicks": 36,
          "midi": 48,
          "name": "C3",
          "ticks": 37380,
          "time": 155.75,
          "velocity": 0.6692913385826772
        },
        {
          "duration": 0.15000000000000568,
          "durationTicks": 36,
          "midi": 67,
          "name": "G4",
          "ticks": 37380,
          "time": 155.75,
          "velocity": 0.5039370078740157
        },
        {
          "duration": 0.15000000000000568,
          "durationTicks": 36,
          "midi": 62,
          "name": "D4",
          "ticks": 37440,
          "time": 156,
          "velocity": 0.6692913385826772
        },
        {
          "duration": 0.15000000000000568,
          "durationTicks": 36,
          "midi": 55,
          "name": "G3",
          "ticks": 37440,
          "time": 156,
          "velocity": 0.6692913385826772
        },
        {
          "duration": 0.15000000000000568,
          "durationTicks": 36,
          "midi": 50,
          "name": "D3",
          "ticks": 37440,
          "time": 156,
          "velocity": 0.6692913385826772
        },
        {
          "duration": 0.15000000000000568,
          "durationTicks": 36,
          "midi": 67,
          "name": "G4",
          "ticks": 37440,
          "time": 156,
          "velocity": 0.5039370078740157
        },
        {
          "duration": 0.15000000000000568,
          "durationTicks": 36,
          "midi": 62,
          "name": "D4",
          "ticks": 37500,
          "time": 156.25,
          "velocity": 0.6692913385826772
        },
        {
          "duration": 0.15000000000000568,
          "durationTicks": 36,
          "midi": 50,
          "name": "D3",
          "ticks": 37500,
          "time": 156.25,
          "velocity": 0.6692913385826772
        },
        {
          "duration": 0.15000000000000568,
          "durationTicks": 36,
          "midi": 55,
          "name": "G3",
          "ticks": 37500,
          "time": 156.25,
          "velocity": 0.6692913385826772
        },
        {
          "duration": 0.15000000000000568,
          "durationTicks": 36,
          "midi": 67,
          "name": "G4",
          "ticks": 37500,
          "time": 156.25,
          "velocity": 0.5039370078740157
        },
        {
          "duration": 0.15000000000000568,
          "durationTicks": 36,
          "midi": 67,
          "name": "G4",
          "ticks": 37560,
          "time": 156.5,
          "velocity": 0.5039370078740157
        },
        {
          "duration": 0.15000000000000568,
          "durationTicks": 36,
          "midi": 55,
          "name": "G3",
          "ticks": 37560,
          "time": 156.5,
          "velocity": 0.6692913385826772
        },
        {
          "duration": 0.15000000000000568,
          "durationTicks": 36,
          "midi": 62,
          "name": "D4",
          "ticks": 37560,
          "time": 156.5,
          "velocity": 0.6692913385826772
        },
        {
          "duration": 0.15000000000000568,
          "durationTicks": 36,
          "midi": 50,
          "name": "D3",
          "ticks": 37560,
          "time": 156.5,
          "velocity": 0.6692913385826772
        },
        {
          "duration": 0.15000000000000568,
          "durationTicks": 36,
          "midi": 50,
          "name": "D3",
          "ticks": 37620,
          "time": 156.75,
          "velocity": 0.6692913385826772
        },
        {
          "duration": 0.15000000000000568,
          "durationTicks": 36,
          "midi": 62,
          "name": "D4",
          "ticks": 37620,
          "time": 156.75,
          "velocity": 0.6692913385826772
        },
        {
          "duration": 0.15000000000000568,
          "durationTicks": 36,
          "midi": 55,
          "name": "G3",
          "ticks": 37620,
          "time": 156.75,
          "velocity": 0.6692913385826772
        },
        {
          "duration": 0.15000000000000568,
          "durationTicks": 36,
          "midi": 67,
          "name": "G4",
          "ticks": 37620,
          "time": 156.75,
          "velocity": 0.5039370078740157
        },
        {
          "duration": 0.15000000000000568,
          "durationTicks": 36,
          "midi": 62,
          "name": "D4",
          "ticks": 37680,
          "time": 157,
          "velocity": 0.6692913385826772
        },
        {
          "duration": 0.15000000000000568,
          "durationTicks": 36,
          "midi": 50,
          "name": "D3",
          "ticks": 37680,
          "time": 157,
          "velocity": 0.6692913385826772
        },
        {
          "duration": 0.15000000000000568,
          "durationTicks": 36,
          "midi": 55,
          "name": "G3",
          "ticks": 37680,
          "time": 157,
          "velocity": 0.6692913385826772
        },
        {
          "duration": 0.15000000000000568,
          "durationTicks": 36,
          "midi": 67,
          "name": "G4",
          "ticks": 37680,
          "time": 157,
          "velocity": 0.5039370078740157
        },
        {
          "duration": 0.15000000000000568,
          "durationTicks": 36,
          "midi": 67,
          "name": "G4",
          "ticks": 37740,
          "time": 157.25,
          "velocity": 0.5039370078740157
        },
        {
          "duration": 0.15000000000000568,
          "durationTicks": 36,
          "midi": 50,
          "name": "D3",
          "ticks": 37740,
          "time": 157.25,
          "velocity": 0.6692913385826772
        },
        {
          "duration": 0.15000000000000568,
          "durationTicks": 36,
          "midi": 55,
          "name": "G3",
          "ticks": 37740,
          "time": 157.25,
          "velocity": 0.6692913385826772
        },
        {
          "duration": 0.15000000000000568,
          "durationTicks": 36,
          "midi": 62,
          "name": "D4",
          "ticks": 37740,
          "time": 157.25,
          "velocity": 0.6692913385826772
        },
        {
          "duration": 0.15000000000000568,
          "durationTicks": 36,
          "midi": 62,
          "name": "D4",
          "ticks": 37800,
          "time": 157.5,
          "velocity": 0.6692913385826772
        },
        {
          "duration": 0.15000000000000568,
          "durationTicks": 36,
          "midi": 50,
          "name": "D3",
          "ticks": 37800,
          "time": 157.5,
          "velocity": 0.6692913385826772
        },
        {
          "duration": 0.15000000000000568,
          "durationTicks": 36,
          "midi": 55,
          "name": "G3",
          "ticks": 37800,
          "time": 157.5,
          "velocity": 0.6692913385826772
        },
        {
          "duration": 0.15000000000000568,
          "durationTicks": 36,
          "midi": 67,
          "name": "G4",
          "ticks": 37800,
          "time": 157.5,
          "velocity": 0.5039370078740157
        },
        {
          "duration": 0.15000000000000568,
          "durationTicks": 36,
          "midi": 62,
          "name": "D4",
          "ticks": 37860,
          "time": 157.75,
          "velocity": 0.6692913385826772
        },
        {
          "duration": 0.15000000000000568,
          "durationTicks": 36,
          "midi": 67,
          "name": "G4",
          "ticks": 37860,
          "time": 157.75,
          "velocity": 0.5039370078740157
        },
        {
          "duration": 0.15000000000000568,
          "durationTicks": 36,
          "midi": 50,
          "name": "D3",
          "ticks": 37860,
          "time": 157.75,
          "velocity": 0.6692913385826772
        },
        {
          "duration": 0.15000000000000568,
          "durationTicks": 36,
          "midi": 55,
          "name": "G3",
          "ticks": 37860,
          "time": 157.75,
          "velocity": 0.6692913385826772
        },
        {
          "duration": 0.15000000000000568,
          "durationTicks": 36,
          "midi": 58,
          "name": "A#3",
          "ticks": 37920,
          "time": 158,
          "velocity": 0.6692913385826772
        },
        {
          "duration": 0.15000000000000568,
          "durationTicks": 36,
          "midi": 53,
          "name": "F3",
          "ticks": 37920,
          "time": 158,
          "velocity": 0.6692913385826772
        },
        {
          "duration": 0.15000000000000568,
          "durationTicks": 36,
          "midi": 70,
          "name": "A#4",
          "ticks": 37920,
          "time": 158,
          "velocity": 0.5039370078740157
        },
        {
          "duration": 0.15000000000000568,
          "durationTicks": 36,
          "midi": 65,
          "name": "F4",
          "ticks": 37920,
          "time": 158,
          "velocity": 0.6692913385826772
        },
        {
          "duration": 0.15000000000000568,
          "durationTicks": 36,
          "midi": 58,
          "name": "A#3",
          "ticks": 37980,
          "time": 158.25,
          "velocity": 0.6692913385826772
        },
        {
          "duration": 0.15000000000000568,
          "durationTicks": 36,
          "midi": 53,
          "name": "F3",
          "ticks": 37980,
          "time": 158.25,
          "velocity": 0.6692913385826772
        },
        {
          "duration": 0.15000000000000568,
          "durationTicks": 36,
          "midi": 70,
          "name": "A#4",
          "ticks": 37980,
          "time": 158.25,
          "velocity": 0.5039370078740157
        },
        {
          "duration": 0.15000000000000568,
          "durationTicks": 36,
          "midi": 65,
          "name": "F4",
          "ticks": 37980,
          "time": 158.25,
          "velocity": 0.6692913385826772
        },
        {
          "duration": 0.15000000000000568,
          "durationTicks": 36,
          "midi": 53,
          "name": "F3",
          "ticks": 38040,
          "time": 158.5,
          "velocity": 0.6692913385826772
        },
        {
          "duration": 0.15000000000000568,
          "durationTicks": 36,
          "midi": 58,
          "name": "A#3",
          "ticks": 38040,
          "time": 158.5,
          "velocity": 0.6692913385826772
        },
        {
          "duration": 0.15000000000000568,
          "durationTicks": 36,
          "midi": 65,
          "name": "F4",
          "ticks": 38040,
          "time": 158.5,
          "velocity": 0.6692913385826772
        },
        {
          "duration": 0.15000000000000568,
          "durationTicks": 36,
          "midi": 70,
          "name": "A#4",
          "ticks": 38040,
          "time": 158.5,
          "velocity": 0.5039370078740157
        },
        {
          "duration": 0.15000000000000568,
          "durationTicks": 36,
          "midi": 70,
          "name": "A#4",
          "ticks": 38100,
          "time": 158.75,
          "velocity": 0.5039370078740157
        },
        {
          "duration": 0.15000000000000568,
          "durationTicks": 36,
          "midi": 65,
          "name": "F4",
          "ticks": 38100,
          "time": 158.75,
          "velocity": 0.6692913385826772
        },
        {
          "duration": 0.15000000000000568,
          "durationTicks": 36,
          "midi": 58,
          "name": "A#3",
          "ticks": 38100,
          "time": 158.75,
          "velocity": 0.6692913385826772
        },
        {
          "duration": 0.15000000000000568,
          "durationTicks": 36,
          "midi": 53,
          "name": "F3",
          "ticks": 38100,
          "time": 158.75,
          "velocity": 0.6692913385826772
        },
        {
          "duration": 0.15000000000000568,
          "durationTicks": 36,
          "midi": 58,
          "name": "A#3",
          "ticks": 38160,
          "time": 159,
          "velocity": 0.6692913385826772
        },
        {
          "duration": 0.15000000000000568,
          "durationTicks": 36,
          "midi": 53,
          "name": "F3",
          "ticks": 38160,
          "time": 159,
          "velocity": 0.6692913385826772
        },
        {
          "duration": 0.15000000000000568,
          "durationTicks": 36,
          "midi": 70,
          "name": "A#4",
          "ticks": 38160,
          "time": 159,
          "velocity": 0.5039370078740157
        },
        {
          "duration": 0.15000000000000568,
          "durationTicks": 36,
          "midi": 65,
          "name": "F4",
          "ticks": 38160,
          "time": 159,
          "velocity": 0.6692913385826772
        },
        {
          "duration": 0.15000000000000568,
          "durationTicks": 36,
          "midi": 53,
          "name": "F3",
          "ticks": 38220,
          "time": 159.25,
          "velocity": 0.6692913385826772
        },
        {
          "duration": 0.15000000000000568,
          "durationTicks": 36,
          "midi": 65,
          "name": "F4",
          "ticks": 38220,
          "time": 159.25,
          "velocity": 0.6692913385826772
        },
        {
          "duration": 0.15000000000000568,
          "durationTicks": 36,
          "midi": 58,
          "name": "A#3",
          "ticks": 38220,
          "time": 159.25,
          "velocity": 0.6692913385826772
        },
        {
          "duration": 0.15000000000000568,
          "durationTicks": 36,
          "midi": 70,
          "name": "A#4",
          "ticks": 38220,
          "time": 159.25,
          "velocity": 0.5039370078740157
        },
        {
          "duration": 0.15000000000000568,
          "durationTicks": 36,
          "midi": 65,
          "name": "F4",
          "ticks": 38280,
          "time": 159.5,
          "velocity": 0.5039370078740157
        },
        {
          "duration": 0.15000000000000568,
          "durationTicks": 36,
          "midi": 53,
          "name": "F3",
          "ticks": 38280,
          "time": 159.5,
          "velocity": 0.6692913385826772
        },
        {
          "duration": 0.15000000000000568,
          "durationTicks": 36,
          "midi": 58,
          "name": "A#3",
          "ticks": 38280,
          "time": 159.5,
          "velocity": 0.6692913385826772
        },
        {
          "duration": 0.15000000000000568,
          "durationTicks": 36,
          "midi": 70,
          "name": "A#4",
          "ticks": 38280,
          "time": 159.5,
          "velocity": 0.5039370078740157
        },
        {
          "duration": 0.15000000000000568,
          "durationTicks": 36,
          "midi": 58,
          "name": "A#3",
          "ticks": 38340,
          "time": 159.75,
          "velocity": 0.6692913385826772
        },
        {
          "duration": 0.15000000000000568,
          "durationTicks": 36,
          "midi": 53,
          "name": "F3",
          "ticks": 38340,
          "time": 159.75,
          "velocity": 0.6692913385826772
        },
        {
          "duration": 0.15000000000000568,
          "durationTicks": 36,
          "midi": 70,
          "name": "A#4",
          "ticks": 38340,
          "time": 159.75,
          "velocity": 0.5039370078740157
        },
        {
          "duration": 0.15000000000000568,
          "durationTicks": 36,
          "midi": 65,
          "name": "F4",
          "ticks": 38340,
          "time": 159.75,
          "velocity": 0.5039370078740157
        },
        {
          "duration": 0.15000000000000568,
          "durationTicks": 36,
          "midi": 65,
          "name": "F4",
          "ticks": 38400,
          "time": 160,
          "velocity": 0.5039370078740157
        },
        {
          "duration": 0.15000000000000568,
          "durationTicks": 36,
          "midi": 48,
          "name": "C3",
          "ticks": 38400,
          "time": 160,
          "velocity": 0.6692913385826772
        },
        {
          "duration": 0.15000000000000568,
          "durationTicks": 36,
          "midi": 53,
          "name": "F3",
          "ticks": 38400,
          "time": 160,
          "velocity": 0.6692913385826772
        },
        {
          "duration": 0.15000000000000568,
          "durationTicks": 36,
          "midi": 60,
          "name": "C4",
          "ticks": 38400,
          "time": 160,
          "velocity": 0.6692913385826772
        },
        {
          "duration": 0.15000000000000568,
          "durationTicks": 36,
          "midi": 65,
          "name": "F4",
          "ticks": 38460,
          "time": 160.25,
          "velocity": 0.5039370078740157
        },
        {
          "duration": 0.15000000000000568,
          "durationTicks": 36,
          "midi": 60,
          "name": "C4",
          "ticks": 38460,
          "time": 160.25,
          "velocity": 0.6692913385826772
        },
        {
          "duration": 0.15000000000000568,
          "durationTicks": 36,
          "midi": 53,
          "name": "F3",
          "ticks": 38460,
          "time": 160.25,
          "velocity": 0.6692913385826772
        },
        {
          "duration": 0.15000000000000568,
          "durationTicks": 36,
          "midi": 48,
          "name": "C3",
          "ticks": 38460,
          "time": 160.25,
          "velocity": 0.6692913385826772
        },
        {
          "duration": 0.15000000000000568,
          "durationTicks": 36,
          "midi": 53,
          "name": "F3",
          "ticks": 38520,
          "time": 160.5,
          "velocity": 0.6692913385826772
        },
        {
          "duration": 0.15000000000000568,
          "durationTicks": 36,
          "midi": 65,
          "name": "F4",
          "ticks": 38520,
          "time": 160.5,
          "velocity": 0.5039370078740157
        },
        {
          "duration": 0.15000000000000568,
          "durationTicks": 36,
          "midi": 48,
          "name": "C3",
          "ticks": 38520,
          "time": 160.5,
          "velocity": 0.6692913385826772
        },
        {
          "duration": 0.15000000000000568,
          "durationTicks": 36,
          "midi": 60,
          "name": "C4",
          "ticks": 38520,
          "time": 160.5,
          "velocity": 0.6692913385826772
        },
        {
          "duration": 0.15000000000000568,
          "durationTicks": 36,
          "midi": 53,
          "name": "F3",
          "ticks": 38580,
          "time": 160.75,
          "velocity": 0.6692913385826772
        },
        {
          "duration": 0.15000000000000568,
          "durationTicks": 36,
          "midi": 60,
          "name": "C4",
          "ticks": 38580,
          "time": 160.75,
          "velocity": 0.6692913385826772
        },
        {
          "duration": 0.15000000000000568,
          "durationTicks": 36,
          "midi": 65,
          "name": "F4",
          "ticks": 38580,
          "time": 160.75,
          "velocity": 0.5039370078740157
        },
        {
          "duration": 0.15000000000000568,
          "durationTicks": 36,
          "midi": 48,
          "name": "C3",
          "ticks": 38580,
          "time": 160.75,
          "velocity": 0.6692913385826772
        },
        {
          "duration": 0.15000000000000568,
          "durationTicks": 36,
          "midi": 53,
          "name": "F3",
          "ticks": 38640,
          "time": 161,
          "velocity": 0.6692913385826772
        },
        {
          "duration": 0.15000000000000568,
          "durationTicks": 36,
          "midi": 48,
          "name": "C3",
          "ticks": 38640,
          "time": 161,
          "velocity": 0.6692913385826772
        },
        {
          "duration": 0.15000000000000568,
          "durationTicks": 36,
          "midi": 60,
          "name": "C4",
          "ticks": 38640,
          "time": 161,
          "velocity": 0.6692913385826772
        },
        {
          "duration": 0.15000000000000568,
          "durationTicks": 36,
          "midi": 65,
          "name": "F4",
          "ticks": 38640,
          "time": 161,
          "velocity": 0.5039370078740157
        },
        {
          "duration": 0.15000000000000568,
          "durationTicks": 36,
          "midi": 53,
          "name": "F3",
          "ticks": 38700,
          "time": 161.25,
          "velocity": 0.6692913385826772
        },
        {
          "duration": 0.15000000000000568,
          "durationTicks": 36,
          "midi": 60,
          "name": "C4",
          "ticks": 38700,
          "time": 161.25,
          "velocity": 0.6692913385826772
        },
        {
          "duration": 0.15000000000000568,
          "durationTicks": 36,
          "midi": 48,
          "name": "C3",
          "ticks": 38700,
          "time": 161.25,
          "velocity": 0.6692913385826772
        },
        {
          "duration": 0.15000000000000568,
          "durationTicks": 36,
          "midi": 65,
          "name": "F4",
          "ticks": 38700,
          "time": 161.25,
          "velocity": 0.5039370078740157
        },
        {
          "duration": 0.15000000000000568,
          "durationTicks": 36,
          "midi": 65,
          "name": "F4",
          "ticks": 38760,
          "time": 161.5,
          "velocity": 0.5039370078740157
        },
        {
          "duration": 0.15000000000000568,
          "durationTicks": 36,
          "midi": 48,
          "name": "C3",
          "ticks": 38760,
          "time": 161.5,
          "velocity": 0.6692913385826772
        },
        {
          "duration": 0.15000000000000568,
          "durationTicks": 36,
          "midi": 60,
          "name": "C4",
          "ticks": 38760,
          "time": 161.5,
          "velocity": 0.6692913385826772
        },
        {
          "duration": 0.15000000000000568,
          "durationTicks": 36,
          "midi": 53,
          "name": "F3",
          "ticks": 38760,
          "time": 161.5,
          "velocity": 0.6692913385826772
        },
        {
          "duration": 0.15000000000000568,
          "durationTicks": 36,
          "midi": 65,
          "name": "F4",
          "ticks": 38820,
          "time": 161.75,
          "velocity": 0.5039370078740157
        },
        {
          "duration": 0.15000000000000568,
          "durationTicks": 36,
          "midi": 48,
          "name": "C3",
          "ticks": 38820,
          "time": 161.75,
          "velocity": 0.6692913385826772
        },
        {
          "duration": 0.15000000000000568,
          "durationTicks": 36,
          "midi": 53,
          "name": "F3",
          "ticks": 38820,
          "time": 161.75,
          "velocity": 0.6692913385826772
        },
        {
          "duration": 0.15000000000000568,
          "durationTicks": 36,
          "midi": 60,
          "name": "C4",
          "ticks": 38820,
          "time": 161.75,
          "velocity": 0.6692913385826772
        },
        {
          "duration": 0.15000000000000568,
          "durationTicks": 36,
          "midi": 67,
          "name": "G4",
          "ticks": 38880,
          "time": 162,
          "velocity": 0.5039370078740157
        },
        {
          "duration": 0.15000000000000568,
          "durationTicks": 36,
          "midi": 48,
          "name": "C3",
          "ticks": 38880,
          "time": 162,
          "velocity": 0.6692913385826772
        },
        {
          "duration": 0.15000000000000568,
          "durationTicks": 36,
          "midi": 55,
          "name": "G3",
          "ticks": 38880,
          "time": 162,
          "velocity": 0.6692913385826772
        },
        {
          "duration": 0.15000000000000568,
          "durationTicks": 36,
          "midi": 60,
          "name": "C4",
          "ticks": 38880,
          "time": 162,
          "velocity": 0.6692913385826772
        },
        {
          "duration": 0.15000000000000568,
          "durationTicks": 36,
          "midi": 60,
          "name": "C4",
          "ticks": 38940,
          "time": 162.25,
          "velocity": 0.6692913385826772
        },
        {
          "duration": 0.15000000000000568,
          "durationTicks": 36,
          "midi": 67,
          "name": "G4",
          "ticks": 38940,
          "time": 162.25,
          "velocity": 0.5039370078740157
        },
        {
          "duration": 0.15000000000000568,
          "durationTicks": 36,
          "midi": 55,
          "name": "G3",
          "ticks": 38940,
          "time": 162.25,
          "velocity": 0.6692913385826772
        },
        {
          "duration": 0.15000000000000568,
          "durationTicks": 36,
          "midi": 48,
          "name": "C3",
          "ticks": 38940,
          "time": 162.25,
          "velocity": 0.6692913385826772
        },
        {
          "duration": 0.15000000000000568,
          "durationTicks": 36,
          "midi": 60,
          "name": "C4",
          "ticks": 39000,
          "time": 162.5,
          "velocity": 0.6692913385826772
        },
        {
          "duration": 0.15000000000000568,
          "durationTicks": 36,
          "midi": 48,
          "name": "C3",
          "ticks": 39000,
          "time": 162.5,
          "velocity": 0.6692913385826772
        },
        {
          "duration": 0.15000000000000568,
          "durationTicks": 36,
          "midi": 67,
          "name": "G4",
          "ticks": 39000,
          "time": 162.5,
          "velocity": 0.5039370078740157
        },
        {
          "duration": 0.15000000000000568,
          "durationTicks": 36,
          "midi": 55,
          "name": "G3",
          "ticks": 39000,
          "time": 162.5,
          "velocity": 0.6692913385826772
        },
        {
          "duration": 0.15000000000000568,
          "durationTicks": 36,
          "midi": 60,
          "name": "C4",
          "ticks": 39060,
          "time": 162.75,
          "velocity": 0.6692913385826772
        },
        {
          "duration": 0.15000000000000568,
          "durationTicks": 36,
          "midi": 48,
          "name": "C3",
          "ticks": 39060,
          "time": 162.75,
          "velocity": 0.6692913385826772
        },
        {
          "duration": 0.15000000000000568,
          "durationTicks": 36,
          "midi": 67,
          "name": "G4",
          "ticks": 39060,
          "time": 162.75,
          "velocity": 0.5039370078740157
        },
        {
          "duration": 0.15000000000000568,
          "durationTicks": 36,
          "midi": 55,
          "name": "G3",
          "ticks": 39060,
          "time": 162.75,
          "velocity": 0.6692913385826772
        },
        {
          "duration": 0.15000000000000568,
          "durationTicks": 36,
          "midi": 48,
          "name": "C3",
          "ticks": 39120,
          "time": 163,
          "velocity": 0.6692913385826772
        },
        {
          "duration": 0.15000000000000568,
          "durationTicks": 36,
          "midi": 60,
          "name": "C4",
          "ticks": 39120,
          "time": 163,
          "velocity": 0.6692913385826772
        },
        {
          "duration": 0.15000000000000568,
          "durationTicks": 36,
          "midi": 67,
          "name": "G4",
          "ticks": 39120,
          "time": 163,
          "velocity": 0.5039370078740157
        },
        {
          "duration": 0.15000000000000568,
          "durationTicks": 36,
          "midi": 55,
          "name": "G3",
          "ticks": 39120,
          "time": 163,
          "velocity": 0.6692913385826772
        },
        {
          "duration": 0.15000000000000568,
          "durationTicks": 36,
          "midi": 48,
          "name": "C3",
          "ticks": 39180,
          "time": 163.25,
          "velocity": 0.6692913385826772
        },
        {
          "duration": 0.15000000000000568,
          "durationTicks": 36,
          "midi": 60,
          "name": "C4",
          "ticks": 39180,
          "time": 163.25,
          "velocity": 0.6692913385826772
        },
        {
          "duration": 0.15000000000000568,
          "durationTicks": 36,
          "midi": 55,
          "name": "G3",
          "ticks": 39180,
          "time": 163.25,
          "velocity": 0.6692913385826772
        },
        {
          "duration": 0.15000000000000568,
          "durationTicks": 36,
          "midi": 67,
          "name": "G4",
          "ticks": 39180,
          "time": 163.25,
          "velocity": 0.5039370078740157
        },
        {
          "duration": 0.15000000000000568,
          "durationTicks": 36,
          "midi": 60,
          "name": "C4",
          "ticks": 39240,
          "time": 163.5,
          "velocity": 0.6692913385826772
        },
        {
          "duration": 0.15000000000000568,
          "durationTicks": 36,
          "midi": 67,
          "name": "G4",
          "ticks": 39240,
          "time": 163.5,
          "velocity": 0.5039370078740157
        },
        {
          "duration": 0.15000000000000568,
          "durationTicks": 36,
          "midi": 48,
          "name": "C3",
          "ticks": 39240,
          "time": 163.5,
          "velocity": 0.6692913385826772
        },
        {
          "duration": 0.15000000000000568,
          "durationTicks": 36,
          "midi": 55,
          "name": "G3",
          "ticks": 39240,
          "time": 163.5,
          "velocity": 0.6692913385826772
        },
        {
          "duration": 0.15000000000000568,
          "durationTicks": 36,
          "midi": 55,
          "name": "G3",
          "ticks": 39300,
          "time": 163.75,
          "velocity": 0.6692913385826772
        },
        {
          "duration": 0.15000000000000568,
          "durationTicks": 36,
          "midi": 67,
          "name": "G4",
          "ticks": 39300,
          "time": 163.75,
          "velocity": 0.5039370078740157
        },
        {
          "duration": 0.15000000000000568,
          "durationTicks": 36,
          "midi": 60,
          "name": "C4",
          "ticks": 39300,
          "time": 163.75,
          "velocity": 0.6692913385826772
        },
        {
          "duration": 0.15000000000000568,
          "durationTicks": 36,
          "midi": 48,
          "name": "C3",
          "ticks": 39300,
          "time": 163.75,
          "velocity": 0.6692913385826772
        },
        {
          "duration": 0.15000000000000568,
          "durationTicks": 36,
          "midi": 57,
          "name": "A3",
          "ticks": 39360,
          "time": 164,
          "velocity": 0.6692913385826772
        },
        {
          "duration": 0.15000000000000568,
          "durationTicks": 36,
          "midi": 60,
          "name": "C4",
          "ticks": 39360,
          "time": 164,
          "velocity": 0.6692913385826772
        },
        {
          "duration": 0.15000000000000568,
          "durationTicks": 36,
          "midi": 65,
          "name": "F4",
          "ticks": 39360,
          "time": 164,
          "velocity": 0.5039370078740157
        },
        {
          "duration": 0.15000000000000568,
          "durationTicks": 36,
          "midi": 48,
          "name": "C3",
          "ticks": 39360,
          "time": 164,
          "velocity": 0.6692913385826772
        },
        {
          "duration": 0.15000000000000568,
          "durationTicks": 36,
          "midi": 60,
          "name": "C4",
          "ticks": 39420,
          "time": 164.25,
          "velocity": 0.6692913385826772
        },
        {
          "duration": 0.15000000000000568,
          "durationTicks": 36,
          "midi": 65,
          "name": "F4",
          "ticks": 39420,
          "time": 164.25,
          "velocity": 0.5039370078740157
        },
        {
          "duration": 0.15000000000000568,
          "durationTicks": 36,
          "midi": 48,
          "name": "C3",
          "ticks": 39420,
          "time": 164.25,
          "velocity": 0.6692913385826772
        },
        {
          "duration": 0.15000000000000568,
          "durationTicks": 36,
          "midi": 57,
          "name": "A3",
          "ticks": 39420,
          "time": 164.25,
          "velocity": 0.6692913385826772
        },
        {
          "duration": 0.15000000000000568,
          "durationTicks": 36,
          "midi": 65,
          "name": "F4",
          "ticks": 39480,
          "time": 164.5,
          "velocity": 0.5039370078740157
        },
        {
          "duration": 0.15000000000000568,
          "durationTicks": 36,
          "midi": 60,
          "name": "C4",
          "ticks": 39480,
          "time": 164.5,
          "velocity": 0.6692913385826772
        },
        {
          "duration": 0.15000000000000568,
          "durationTicks": 36,
          "midi": 48,
          "name": "C3",
          "ticks": 39480,
          "time": 164.5,
          "velocity": 0.6692913385826772
        },
        {
          "duration": 0.15000000000000568,
          "durationTicks": 36,
          "midi": 57,
          "name": "A3",
          "ticks": 39480,
          "time": 164.5,
          "velocity": 0.6692913385826772
        },
        {
          "duration": 0.15000000000000568,
          "durationTicks": 36,
          "midi": 65,
          "name": "F4",
          "ticks": 39540,
          "time": 164.75,
          "velocity": 0.5039370078740157
        },
        {
          "duration": 0.15000000000000568,
          "durationTicks": 36,
          "midi": 57,
          "name": "A3",
          "ticks": 39540,
          "time": 164.75,
          "velocity": 0.6692913385826772
        },
        {
          "duration": 0.15000000000000568,
          "durationTicks": 36,
          "midi": 60,
          "name": "C4",
          "ticks": 39540,
          "time": 164.75,
          "velocity": 0.6692913385826772
        },
        {
          "duration": 0.15000000000000568,
          "durationTicks": 36,
          "midi": 48,
          "name": "C3",
          "ticks": 39540,
          "time": 164.75,
          "velocity": 0.6692913385826772
        },
        {
          "duration": 0.15000000000000568,
          "durationTicks": 36,
          "midi": 60,
          "name": "C4",
          "ticks": 39600,
          "time": 165,
          "velocity": 0.6692913385826772
        },
        {
          "duration": 0.15000000000000568,
          "durationTicks": 36,
          "midi": 57,
          "name": "A3",
          "ticks": 39600,
          "time": 165,
          "velocity": 0.6692913385826772
        },
        {
          "duration": 0.15000000000000568,
          "durationTicks": 36,
          "midi": 48,
          "name": "C3",
          "ticks": 39600,
          "time": 165,
          "velocity": 0.6692913385826772
        },
        {
          "duration": 0.15000000000000568,
          "durationTicks": 36,
          "midi": 65,
          "name": "F4",
          "ticks": 39600,
          "time": 165,
          "velocity": 0.5039370078740157
        },
        {
          "duration": 0.15000000000000568,
          "durationTicks": 36,
          "midi": 65,
          "name": "F4",
          "ticks": 39660,
          "time": 165.25,
          "velocity": 0.5039370078740157
        },
        {
          "duration": 0.15000000000000568,
          "durationTicks": 36,
          "midi": 48,
          "name": "C3",
          "ticks": 39660,
          "time": 165.25,
          "velocity": 0.6692913385826772
        },
        {
          "duration": 0.15000000000000568,
          "durationTicks": 36,
          "midi": 57,
          "name": "A3",
          "ticks": 39660,
          "time": 165.25,
          "velocity": 0.6692913385826772
        },
        {
          "duration": 0.15000000000000568,
          "durationTicks": 36,
          "midi": 60,
          "name": "C4",
          "ticks": 39660,
          "time": 165.25,
          "velocity": 0.6692913385826772
        },
        {
          "duration": 0.15000000000000568,
          "durationTicks": 36,
          "midi": 62,
          "name": "D4",
          "ticks": 39840,
          "time": 166,
          "velocity": 0.5039370078740157
        },
        {
          "duration": 0.15000000000000568,
          "durationTicks": 36,
          "midi": 55,
          "name": "G3",
          "ticks": 39840,
          "time": 166,
          "velocity": 0.6692913385826772
        },
        {
          "duration": 0.15000000000000568,
          "durationTicks": 36,
          "midi": 67,
          "name": "G4",
          "ticks": 39840,
          "time": 166,
          "velocity": 0.5039370078740157
        },
        {
          "duration": 0.15000000000000568,
          "durationTicks": 36,
          "midi": 50,
          "name": "D3",
          "ticks": 39840,
          "time": 166,
          "velocity": 0.6692913385826772
        },
        {
          "duration": 0.15000000000000568,
          "durationTicks": 36,
          "midi": 62,
          "name": "D4",
          "ticks": 39900,
          "time": 166.25,
          "velocity": 0.5039370078740157
        },
        {
          "duration": 0.15000000000000568,
          "durationTicks": 36,
          "midi": 67,
          "name": "G4",
          "ticks": 39900,
          "time": 166.25,
          "velocity": 0.5039370078740157
        },
        {
          "duration": 0.15000000000000568,
          "durationTicks": 36,
          "midi": 50,
          "name": "D3",
          "ticks": 39900,
          "time": 166.25,
          "velocity": 0.6692913385826772
        },
        {
          "duration": 0.15000000000000568,
          "durationTicks": 36,
          "midi": 55,
          "name": "G3",
          "ticks": 39900,
          "time": 166.25,
          "velocity": 0.6692913385826772
        },
        {
          "duration": 0.15000000000000568,
          "durationTicks": 36,
          "midi": 67,
          "name": "G4",
          "ticks": 39960,
          "time": 166.5,
          "velocity": 0.5039370078740157
        },
        {
          "duration": 0.15000000000000568,
          "durationTicks": 36,
          "midi": 55,
          "name": "G3",
          "ticks": 39960,
          "time": 166.5,
          "velocity": 0.6692913385826772
        },
        {
          "duration": 0.15000000000000568,
          "durationTicks": 36,
          "midi": 50,
          "name": "D3",
          "ticks": 39960,
          "time": 166.5,
          "velocity": 0.6692913385826772
        },
        {
          "duration": 0.15000000000000568,
          "durationTicks": 36,
          "midi": 62,
          "name": "D4",
          "ticks": 39960,
          "time": 166.5,
          "velocity": 0.5039370078740157
        },
        {
          "duration": 0.15000000000000568,
          "durationTicks": 36,
          "midi": 55,
          "name": "G3",
          "ticks": 40020,
          "time": 166.75,
          "velocity": 0.6692913385826772
        },
        {
          "duration": 0.15000000000000568,
          "durationTicks": 36,
          "midi": 62,
          "name": "D4",
          "ticks": 40020,
          "time": 166.75,
          "velocity": 0.5039370078740157
        },
        {
          "duration": 0.15000000000000568,
          "durationTicks": 36,
          "midi": 67,
          "name": "G4",
          "ticks": 40020,
          "time": 166.75,
          "velocity": 0.5039370078740157
        },
        {
          "duration": 0.15000000000000568,
          "durationTicks": 36,
          "midi": 50,
          "name": "D3",
          "ticks": 40020,
          "time": 166.75,
          "velocity": 0.6692913385826772
        },
        {
          "duration": 0.15000000000000568,
          "durationTicks": 36,
          "midi": 67,
          "name": "G4",
          "ticks": 40080,
          "time": 167,
          "velocity": 0.5039370078740157
        },
        {
          "duration": 0.15000000000000568,
          "durationTicks": 36,
          "midi": 50,
          "name": "D3",
          "ticks": 40080,
          "time": 167,
          "velocity": 0.6692913385826772
        },
        {
          "duration": 0.15000000000000568,
          "durationTicks": 36,
          "midi": 62,
          "name": "D4",
          "ticks": 40080,
          "time": 167,
          "velocity": 0.5039370078740157
        },
        {
          "duration": 0.15000000000000568,
          "durationTicks": 36,
          "midi": 55,
          "name": "G3",
          "ticks": 40080,
          "time": 167,
          "velocity": 0.6692913385826772
        },
        {
          "duration": 0.15000000000000568,
          "durationTicks": 36,
          "midi": 55,
          "name": "G3",
          "ticks": 40140,
          "time": 167.25,
          "velocity": 0.6692913385826772
        },
        {
          "duration": 0.15000000000000568,
          "durationTicks": 36,
          "midi": 62,
          "name": "D4",
          "ticks": 40140,
          "time": 167.25,
          "velocity": 0.5039370078740157
        },
        {
          "duration": 0.15000000000000568,
          "durationTicks": 36,
          "midi": 67,
          "name": "G4",
          "ticks": 40140,
          "time": 167.25,
          "velocity": 0.5039370078740157
        },
        {
          "duration": 0.15000000000000568,
          "durationTicks": 36,
          "midi": 50,
          "name": "D3",
          "ticks": 40140,
          "time": 167.25,
          "velocity": 0.6692913385826772
        },
        {
          "duration": 0.15000000000000568,
          "durationTicks": 36,
          "midi": 55,
          "name": "G3",
          "ticks": 40200,
          "time": 167.5,
          "velocity": 0.6692913385826772
        },
        {
          "duration": 0.15000000000000568,
          "durationTicks": 36,
          "midi": 67,
          "name": "G4",
          "ticks": 40200,
          "time": 167.5,
          "velocity": 0.5039370078740157
        },
        {
          "duration": 0.15000000000000568,
          "durationTicks": 36,
          "midi": 62,
          "name": "D4",
          "ticks": 40200,
          "time": 167.5,
          "velocity": 0.5039370078740157
        },
        {
          "duration": 0.15000000000000568,
          "durationTicks": 36,
          "midi": 50,
          "name": "D3",
          "ticks": 40200,
          "time": 167.5,
          "velocity": 0.6692913385826772
        },
        {
          "duration": 0.15000000000000568,
          "durationTicks": 36,
          "midi": 62,
          "name": "D4",
          "ticks": 40260,
          "time": 167.75,
          "velocity": 0.5039370078740157
        },
        {
          "duration": 0.15000000000000568,
          "durationTicks": 36,
          "midi": 67,
          "name": "G4",
          "ticks": 40260,
          "time": 167.75,
          "velocity": 0.5039370078740157
        },
        {
          "duration": 0.15000000000000568,
          "durationTicks": 36,
          "midi": 55,
          "name": "G3",
          "ticks": 40260,
          "time": 167.75,
          "velocity": 0.6692913385826772
        },
        {
          "duration": 0.15000000000000568,
          "durationTicks": 36,
          "midi": 50,
          "name": "D3",
          "ticks": 40260,
          "time": 167.75,
          "velocity": 0.6692913385826772
        },
        {
          "duration": 0.15000000000000568,
          "durationTicks": 36,
          "midi": 65,
          "name": "F4",
          "ticks": 40320,
          "time": 168,
          "velocity": 0.5039370078740157
        },
        {
          "duration": 0.15000000000000568,
          "durationTicks": 36,
          "midi": 70,
          "name": "A#4",
          "ticks": 40320,
          "time": 168,
          "velocity": 0.5039370078740157
        },
        {
          "duration": 0.15000000000000568,
          "durationTicks": 36,
          "midi": 53,
          "name": "F3",
          "ticks": 40320,
          "time": 168,
          "velocity": 0.6692913385826772
        },
        {
          "duration": 0.15000000000000568,
          "durationTicks": 36,
          "midi": 58,
          "name": "A#3",
          "ticks": 40320,
          "time": 168,
          "velocity": 0.6692913385826772
        },
        {
          "duration": 0.15000000000000568,
          "durationTicks": 36,
          "midi": 65,
          "name": "F4",
          "ticks": 40380,
          "time": 168.25,
          "velocity": 0.5039370078740157
        },
        {
          "duration": 0.15000000000000568,
          "durationTicks": 36,
          "midi": 53,
          "name": "F3",
          "ticks": 40380,
          "time": 168.25,
          "velocity": 0.6692913385826772
        },
        {
          "duration": 0.15000000000000568,
          "durationTicks": 36,
          "midi": 58,
          "name": "A#3",
          "ticks": 40380,
          "time": 168.25,
          "velocity": 0.6692913385826772
        },
        {
          "duration": 0.15000000000000568,
          "durationTicks": 36,
          "midi": 70,
          "name": "A#4",
          "ticks": 40380,
          "time": 168.25,
          "velocity": 0.5039370078740157
        },
        {
          "duration": 0.15000000000000568,
          "durationTicks": 36,
          "midi": 70,
          "name": "A#4",
          "ticks": 40440,
          "time": 168.5,
          "velocity": 0.5039370078740157
        },
        {
          "duration": 0.15000000000000568,
          "durationTicks": 36,
          "midi": 53,
          "name": "F3",
          "ticks": 40440,
          "time": 168.5,
          "velocity": 0.6692913385826772
        },
        {
          "duration": 0.15000000000000568,
          "durationTicks": 36,
          "midi": 58,
          "name": "A#3",
          "ticks": 40440,
          "time": 168.5,
          "velocity": 0.6692913385826772
        },
        {
          "duration": 0.15000000000000568,
          "durationTicks": 36,
          "midi": 65,
          "name": "F4",
          "ticks": 40440,
          "time": 168.5,
          "velocity": 0.5039370078740157
        },
        {
          "duration": 0.15000000000000568,
          "durationTicks": 36,
          "midi": 53,
          "name": "F3",
          "ticks": 40500,
          "time": 168.75,
          "velocity": 0.6692913385826772
        },
        {
          "duration": 0.15000000000000568,
          "durationTicks": 36,
          "midi": 70,
          "name": "A#4",
          "ticks": 40500,
          "time": 168.75,
          "velocity": 0.5039370078740157
        },
        {
          "duration": 0.15000000000000568,
          "durationTicks": 36,
          "midi": 58,
          "name": "A#3",
          "ticks": 40500,
          "time": 168.75,
          "velocity": 0.6692913385826772
        },
        {
          "duration": 0.15000000000000568,
          "durationTicks": 36,
          "midi": 65,
          "name": "F4",
          "ticks": 40500,
          "time": 168.75,
          "velocity": 0.5039370078740157
        },
        {
          "duration": 0.15000000000000568,
          "durationTicks": 36,
          "midi": 58,
          "name": "A#3",
          "ticks": 40560,
          "time": 169,
          "velocity": 0.6692913385826772
        },
        {
          "duration": 0.15000000000000568,
          "durationTicks": 36,
          "midi": 70,
          "name": "A#4",
          "ticks": 40560,
          "time": 169,
          "velocity": 0.5039370078740157
        },
        {
          "duration": 0.15000000000000568,
          "durationTicks": 36,
          "midi": 53,
          "name": "F3",
          "ticks": 40560,
          "time": 169,
          "velocity": 0.6692913385826772
        },
        {
          "duration": 0.15000000000000568,
          "durationTicks": 36,
          "midi": 65,
          "name": "F4",
          "ticks": 40560,
          "time": 169,
          "velocity": 0.5039370078740157
        },
        {
          "duration": 0.15000000000000568,
          "durationTicks": 36,
          "midi": 70,
          "name": "A#4",
          "ticks": 40620,
          "time": 169.25,
          "velocity": 0.5039370078740157
        },
        {
          "duration": 0.15000000000000568,
          "durationTicks": 36,
          "midi": 53,
          "name": "F3",
          "ticks": 40620,
          "time": 169.25,
          "velocity": 0.6692913385826772
        },
        {
          "duration": 0.15000000000000568,
          "durationTicks": 36,
          "midi": 65,
          "name": "F4",
          "ticks": 40620,
          "time": 169.25,
          "velocity": 0.5039370078740157
        },
        {
          "duration": 0.15000000000000568,
          "durationTicks": 36,
          "midi": 58,
          "name": "A#3",
          "ticks": 40620,
          "time": 169.25,
          "velocity": 0.6692913385826772
        },
        {
          "duration": 0.15000000000000568,
          "durationTicks": 36,
          "midi": 58,
          "name": "A#3",
          "ticks": 40680,
          "time": 169.5,
          "velocity": 0.6692913385826772
        },
        {
          "duration": 0.15000000000000568,
          "durationTicks": 36,
          "midi": 70,
          "name": "A#4",
          "ticks": 40680,
          "time": 169.5,
          "velocity": 0.5039370078740157
        },
        {
          "duration": 0.15000000000000568,
          "durationTicks": 36,
          "midi": 53,
          "name": "F3",
          "ticks": 40680,
          "time": 169.5,
          "velocity": 0.6692913385826772
        },
        {
          "duration": 0.15000000000000568,
          "durationTicks": 36,
          "midi": 65,
          "name": "F4",
          "ticks": 40680,
          "time": 169.5,
          "velocity": 0.5039370078740157
        },
        {
          "duration": 0.15000000000000568,
          "durationTicks": 36,
          "midi": 65,
          "name": "F4",
          "ticks": 40740,
          "time": 169.75,
          "velocity": 0.5039370078740157
        },
        {
          "duration": 0.15000000000000568,
          "durationTicks": 36,
          "midi": 58,
          "name": "A#3",
          "ticks": 40740,
          "time": 169.75,
          "velocity": 0.6692913385826772
        },
        {
          "duration": 0.15000000000000568,
          "durationTicks": 36,
          "midi": 70,
          "name": "A#4",
          "ticks": 40740,
          "time": 169.75,
          "velocity": 0.5039370078740157
        },
        {
          "duration": 0.15000000000000568,
          "durationTicks": 36,
          "midi": 53,
          "name": "F3",
          "ticks": 40740,
          "time": 169.75,
          "velocity": 0.6692913385826772
        },
        {
          "duration": 0.15000000000000568,
          "durationTicks": 36,
          "midi": 65,
          "name": "F4",
          "ticks": 40800,
          "time": 170,
          "velocity": 0.5039370078740157
        },
        {
          "duration": 0.15000000000000568,
          "durationTicks": 36,
          "midi": 53,
          "name": "F3",
          "ticks": 40800,
          "time": 170,
          "velocity": 0.6692913385826772
        },
        {
          "duration": 0.15000000000000568,
          "durationTicks": 36,
          "midi": 60,
          "name": "C4",
          "ticks": 40800,
          "time": 170,
          "velocity": 0.5039370078740157
        },
        {
          "duration": 0.15000000000000568,
          "durationTicks": 36,
          "midi": 48,
          "name": "C3",
          "ticks": 40800,
          "time": 170,
          "velocity": 0.6692913385826772
        },
        {
          "duration": 0.15000000000000568,
          "durationTicks": 36,
          "midi": 48,
          "name": "C3",
          "ticks": 40860,
          "time": 170.25,
          "velocity": 0.6692913385826772
        },
        {
          "duration": 0.15000000000000568,
          "durationTicks": 36,
          "midi": 53,
          "name": "F3",
          "ticks": 40860,
          "time": 170.25,
          "velocity": 0.6692913385826772
        },
        {
          "duration": 0.15000000000000568,
          "durationTicks": 36,
          "midi": 60,
          "name": "C4",
          "ticks": 40860,
          "time": 170.25,
          "velocity": 0.5039370078740157
        },
        {
          "duration": 0.15000000000000568,
          "durationTicks": 36,
          "midi": 65,
          "name": "F4",
          "ticks": 40860,
          "time": 170.25,
          "velocity": 0.5039370078740157
        },
        {
          "duration": 0.15000000000000568,
          "durationTicks": 36,
          "midi": 53,
          "name": "F3",
          "ticks": 40920,
          "time": 170.5,
          "velocity": 0.6692913385826772
        },
        {
          "duration": 0.15000000000000568,
          "durationTicks": 36,
          "midi": 60,
          "name": "C4",
          "ticks": 40920,
          "time": 170.5,
          "velocity": 0.5039370078740157
        },
        {
          "duration": 0.15000000000000568,
          "durationTicks": 36,
          "midi": 65,
          "name": "F4",
          "ticks": 40920,
          "time": 170.5,
          "velocity": 0.5039370078740157
        },
        {
          "duration": 0.15000000000000568,
          "durationTicks": 36,
          "midi": 48,
          "name": "C3",
          "ticks": 40920,
          "time": 170.5,
          "velocity": 0.6692913385826772
        },
        {
          "duration": 0.15000000000000568,
          "durationTicks": 36,
          "midi": 60,
          "name": "C4",
          "ticks": 40980,
          "time": 170.75,
          "velocity": 0.5039370078740157
        },
        {
          "duration": 0.15000000000000568,
          "durationTicks": 36,
          "midi": 65,
          "name": "F4",
          "ticks": 40980,
          "time": 170.75,
          "velocity": 0.5039370078740157
        },
        {
          "duration": 0.15000000000000568,
          "durationTicks": 36,
          "midi": 48,
          "name": "C3",
          "ticks": 40980,
          "time": 170.75,
          "velocity": 0.6692913385826772
        },
        {
          "duration": 0.15000000000000568,
          "durationTicks": 36,
          "midi": 53,
          "name": "F3",
          "ticks": 40980,
          "time": 170.75,
          "velocity": 0.6692913385826772
        },
        {
          "duration": 0.15000000000000568,
          "durationTicks": 36,
          "midi": 65,
          "name": "F4",
          "ticks": 41040,
          "time": 171,
          "velocity": 0.5039370078740157
        },
        {
          "duration": 0.15000000000000568,
          "durationTicks": 36,
          "midi": 48,
          "name": "C3",
          "ticks": 41040,
          "time": 171,
          "velocity": 0.6692913385826772
        },
        {
          "duration": 0.15000000000000568,
          "durationTicks": 36,
          "midi": 60,
          "name": "C4",
          "ticks": 41040,
          "time": 171,
          "velocity": 0.5039370078740157
        },
        {
          "duration": 0.15000000000000568,
          "durationTicks": 36,
          "midi": 53,
          "name": "F3",
          "ticks": 41040,
          "time": 171,
          "velocity": 0.6692913385826772
        },
        {
          "duration": 0.15000000000000568,
          "durationTicks": 36,
          "midi": 60,
          "name": "C4",
          "ticks": 41100,
          "time": 171.25,
          "velocity": 0.5039370078740157
        },
        {
          "duration": 0.15000000000000568,
          "durationTicks": 36,
          "midi": 53,
          "name": "F3",
          "ticks": 41100,
          "time": 171.25,
          "velocity": 0.6692913385826772
        },
        {
          "duration": 0.15000000000000568,
          "durationTicks": 36,
          "midi": 48,
          "name": "C3",
          "ticks": 41100,
          "time": 171.25,
          "velocity": 0.6692913385826772
        },
        {
          "duration": 0.15000000000000568,
          "durationTicks": 36,
          "midi": 65,
          "name": "F4",
          "ticks": 41100,
          "time": 171.25,
          "velocity": 0.5039370078740157
        },
        {
          "duration": 0.15000000000000568,
          "durationTicks": 36,
          "midi": 65,
          "name": "F4",
          "ticks": 41160,
          "time": 171.5,
          "velocity": 0.5039370078740157
        },
        {
          "duration": 0.15000000000000568,
          "durationTicks": 36,
          "midi": 48,
          "name": "C3",
          "ticks": 41160,
          "time": 171.5,
          "velocity": 0.6692913385826772
        },
        {
          "duration": 0.15000000000000568,
          "durationTicks": 36,
          "midi": 60,
          "name": "C4",
          "ticks": 41160,
          "time": 171.5,
          "velocity": 0.5039370078740157
        },
        {
          "duration": 0.15000000000000568,
          "durationTicks": 36,
          "midi": 53,
          "name": "F3",
          "ticks": 41160,
          "time": 171.5,
          "velocity": 0.6692913385826772
        },
        {
          "duration": 0.15000000000000568,
          "durationTicks": 36,
          "midi": 48,
          "name": "C3",
          "ticks": 41220,
          "time": 171.75,
          "velocity": 0.6692913385826772
        },
        {
          "duration": 0.15000000000000568,
          "durationTicks": 36,
          "midi": 65,
          "name": "F4",
          "ticks": 41220,
          "time": 171.75,
          "velocity": 0.5039370078740157
        },
        {
          "duration": 0.15000000000000568,
          "durationTicks": 36,
          "midi": 60,
          "name": "C4",
          "ticks": 41220,
          "time": 171.75,
          "velocity": 0.5039370078740157
        },
        {
          "duration": 0.15000000000000568,
          "durationTicks": 36,
          "midi": 53,
          "name": "F3",
          "ticks": 41220,
          "time": 171.75,
          "velocity": 0.6692913385826772
        },
        {
          "duration": 0.15000000000000568,
          "durationTicks": 36,
          "midi": 55,
          "name": "G3",
          "ticks": 41280,
          "time": 172,
          "velocity": 0.6692913385826772
        },
        {
          "duration": 0.15000000000000568,
          "durationTicks": 36,
          "midi": 48,
          "name": "C3",
          "ticks": 41280,
          "time": 172,
          "velocity": 0.6692913385826772
        },
        {
          "duration": 0.15000000000000568,
          "durationTicks": 36,
          "midi": 60,
          "name": "C4",
          "ticks": 41280,
          "time": 172,
          "velocity": 0.5039370078740157
        },
        {
          "duration": 0.15000000000000568,
          "durationTicks": 36,
          "midi": 67,
          "name": "G4",
          "ticks": 41280,
          "time": 172,
          "velocity": 0.5039370078740157
        },
        {
          "duration": 0.15000000000000568,
          "durationTicks": 36,
          "midi": 67,
          "name": "G4",
          "ticks": 41340,
          "time": 172.25,
          "velocity": 0.5039370078740157
        },
        {
          "duration": 0.15000000000000568,
          "durationTicks": 36,
          "midi": 55,
          "name": "G3",
          "ticks": 41340,
          "time": 172.25,
          "velocity": 0.6692913385826772
        },
        {
          "duration": 0.15000000000000568,
          "durationTicks": 36,
          "midi": 60,
          "name": "C4",
          "ticks": 41340,
          "time": 172.25,
          "velocity": 0.5039370078740157
        },
        {
          "duration": 0.15000000000000568,
          "durationTicks": 36,
          "midi": 48,
          "name": "C3",
          "ticks": 41340,
          "time": 172.25,
          "velocity": 0.6692913385826772
        },
        {
          "duration": 0.15000000000000568,
          "durationTicks": 36,
          "midi": 55,
          "name": "G3",
          "ticks": 41400,
          "time": 172.5,
          "velocity": 0.6692913385826772
        },
        {
          "duration": 0.15000000000000568,
          "durationTicks": 36,
          "midi": 48,
          "name": "C3",
          "ticks": 41400,
          "time": 172.5,
          "velocity": 0.6692913385826772
        },
        {
          "duration": 0.15000000000000568,
          "durationTicks": 36,
          "midi": 60,
          "name": "C4",
          "ticks": 41400,
          "time": 172.5,
          "velocity": 0.5039370078740157
        },
        {
          "duration": 0.15000000000000568,
          "durationTicks": 36,
          "midi": 67,
          "name": "G4",
          "ticks": 41400,
          "time": 172.5,
          "velocity": 0.5039370078740157
        },
        {
          "duration": 0.15000000000000568,
          "durationTicks": 36,
          "midi": 60,
          "name": "C4",
          "ticks": 41460,
          "time": 172.75,
          "velocity": 0.5039370078740157
        },
        {
          "duration": 0.15000000000000568,
          "durationTicks": 36,
          "midi": 55,
          "name": "G3",
          "ticks": 41460,
          "time": 172.75,
          "velocity": 0.6692913385826772
        },
        {
          "duration": 0.15000000000000568,
          "durationTicks": 36,
          "midi": 67,
          "name": "G4",
          "ticks": 41460,
          "time": 172.75,
          "velocity": 0.5039370078740157
        },
        {
          "duration": 0.15000000000000568,
          "durationTicks": 36,
          "midi": 48,
          "name": "C3",
          "ticks": 41460,
          "time": 172.75,
          "velocity": 0.6692913385826772
        },
        {
          "duration": 0.15000000000000568,
          "durationTicks": 36,
          "midi": 48,
          "name": "C3",
          "ticks": 41520,
          "time": 173,
          "velocity": 0.6692913385826772
        },
        {
          "duration": 0.15000000000000568,
          "durationTicks": 36,
          "midi": 67,
          "name": "G4",
          "ticks": 41520,
          "time": 173,
          "velocity": 0.5039370078740157
        },
        {
          "duration": 0.15000000000000568,
          "durationTicks": 36,
          "midi": 60,
          "name": "C4",
          "ticks": 41520,
          "time": 173,
          "velocity": 0.5039370078740157
        },
        {
          "duration": 0.15000000000000568,
          "durationTicks": 36,
          "midi": 55,
          "name": "G3",
          "ticks": 41520,
          "time": 173,
          "velocity": 0.6692913385826772
        },
        {
          "duration": 0.15000000000000568,
          "durationTicks": 36,
          "midi": 67,
          "name": "G4",
          "ticks": 41580,
          "time": 173.25,
          "velocity": 0.5039370078740157
        },
        {
          "duration": 0.15000000000000568,
          "durationTicks": 36,
          "midi": 60,
          "name": "C4",
          "ticks": 41580,
          "time": 173.25,
          "velocity": 0.5039370078740157
        },
        {
          "duration": 0.15000000000000568,
          "durationTicks": 36,
          "midi": 48,
          "name": "C3",
          "ticks": 41580,
          "time": 173.25,
          "velocity": 0.6692913385826772
        },
        {
          "duration": 0.15000000000000568,
          "durationTicks": 36,
          "midi": 55,
          "name": "G3",
          "ticks": 41580,
          "time": 173.25,
          "velocity": 0.6692913385826772
        },
        {
          "duration": 0.15000000000000568,
          "durationTicks": 36,
          "midi": 55,
          "name": "G3",
          "ticks": 41640,
          "time": 173.5,
          "velocity": 0.6692913385826772
        },
        {
          "duration": 0.15000000000000568,
          "durationTicks": 36,
          "midi": 60,
          "name": "C4",
          "ticks": 41640,
          "time": 173.5,
          "velocity": 0.5039370078740157
        },
        {
          "duration": 0.15000000000000568,
          "durationTicks": 36,
          "midi": 67,
          "name": "G4",
          "ticks": 41640,
          "time": 173.5,
          "velocity": 0.5039370078740157
        },
        {
          "duration": 0.15000000000000568,
          "durationTicks": 36,
          "midi": 48,
          "name": "C3",
          "ticks": 41640,
          "time": 173.5,
          "velocity": 0.6692913385826772
        },
        {
          "duration": 0.15000000000000568,
          "durationTicks": 36,
          "midi": 60,
          "name": "C4",
          "ticks": 41700,
          "time": 173.75,
          "velocity": 0.5039370078740157
        },
        {
          "duration": 0.15000000000000568,
          "durationTicks": 36,
          "midi": 48,
          "name": "C3",
          "ticks": 41700,
          "time": 173.75,
          "velocity": 0.6692913385826772
        },
        {
          "duration": 0.15000000000000568,
          "durationTicks": 36,
          "midi": 67,
          "name": "G4",
          "ticks": 41700,
          "time": 173.75,
          "velocity": 0.5039370078740157
        },
        {
          "duration": 0.15000000000000568,
          "durationTicks": 36,
          "midi": 55,
          "name": "G3",
          "ticks": 41700,
          "time": 173.75,
          "velocity": 0.6692913385826772
        },
        {
          "duration": 0.15000000000000568,
          "durationTicks": 36,
          "midi": 62,
          "name": "D4",
          "ticks": 41760,
          "time": 174,
          "velocity": 0.5039370078740157
        },
        {
          "duration": 0.15000000000000568,
          "durationTicks": 36,
          "midi": 67,
          "name": "G4",
          "ticks": 41760,
          "time": 174,
          "velocity": 0.5039370078740157
        },
        {
          "duration": 0.15000000000000568,
          "durationTicks": 36,
          "midi": 55,
          "name": "G3",
          "ticks": 41760,
          "time": 174,
          "velocity": 0.6692913385826772
        },
        {
          "duration": 0.15000000000000568,
          "durationTicks": 36,
          "midi": 50,
          "name": "D3",
          "ticks": 41760,
          "time": 174,
          "velocity": 0.6692913385826772
        },
        {
          "duration": 0.15000000000000568,
          "durationTicks": 36,
          "midi": 62,
          "name": "D4",
          "ticks": 41820,
          "time": 174.25,
          "velocity": 0.5039370078740157
        },
        {
          "duration": 0.15000000000000568,
          "durationTicks": 36,
          "midi": 50,
          "name": "D3",
          "ticks": 41820,
          "time": 174.25,
          "velocity": 0.6692913385826772
        },
        {
          "duration": 0.15000000000000568,
          "durationTicks": 36,
          "midi": 55,
          "name": "G3",
          "ticks": 41820,
          "time": 174.25,
          "velocity": 0.6692913385826772
        },
        {
          "duration": 0.15000000000000568,
          "durationTicks": 36,
          "midi": 67,
          "name": "G4",
          "ticks": 41820,
          "time": 174.25,
          "velocity": 0.5039370078740157
        },
        {
          "duration": 0.15000000000000568,
          "durationTicks": 36,
          "midi": 55,
          "name": "G3",
          "ticks": 41880,
          "time": 174.5,
          "velocity": 0.6692913385826772
        },
        {
          "duration": 0.15000000000000568,
          "durationTicks": 36,
          "midi": 62,
          "name": "D4",
          "ticks": 41880,
          "time": 174.5,
          "velocity": 0.5039370078740157
        },
        {
          "duration": 0.15000000000000568,
          "durationTicks": 36,
          "midi": 50,
          "name": "D3",
          "ticks": 41880,
          "time": 174.5,
          "velocity": 0.6692913385826772
        },
        {
          "duration": 0.15000000000000568,
          "durationTicks": 36,
          "midi": 67,
          "name": "G4",
          "ticks": 41880,
          "time": 174.5,
          "velocity": 0.5039370078740157
        },
        {
          "duration": 0.15000000000000568,
          "durationTicks": 36,
          "midi": 67,
          "name": "G4",
          "ticks": 41940,
          "time": 174.75,
          "velocity": 0.5039370078740157
        },
        {
          "duration": 0.15000000000000568,
          "durationTicks": 36,
          "midi": 55,
          "name": "G3",
          "ticks": 41940,
          "time": 174.75,
          "velocity": 0.6692913385826772
        },
        {
          "duration": 0.15000000000000568,
          "durationTicks": 36,
          "midi": 50,
          "name": "D3",
          "ticks": 41940,
          "time": 174.75,
          "velocity": 0.6692913385826772
        },
        {
          "duration": 0.15000000000000568,
          "durationTicks": 36,
          "midi": 62,
          "name": "D4",
          "ticks": 41940,
          "time": 174.75,
          "velocity": 0.5039370078740157
        },
        {
          "duration": 0.15000000000000568,
          "durationTicks": 36,
          "midi": 55,
          "name": "G3",
          "ticks": 42000,
          "time": 175,
          "velocity": 0.6692913385826772
        },
        {
          "duration": 0.15000000000000568,
          "durationTicks": 36,
          "midi": 62,
          "name": "D4",
          "ticks": 42000,
          "time": 175,
          "velocity": 0.5039370078740157
        },
        {
          "duration": 0.15000000000000568,
          "durationTicks": 36,
          "midi": 50,
          "name": "D3",
          "ticks": 42000,
          "time": 175,
          "velocity": 0.6692913385826772
        },
        {
          "duration": 0.15000000000000568,
          "durationTicks": 36,
          "midi": 67,
          "name": "G4",
          "ticks": 42000,
          "time": 175,
          "velocity": 0.5039370078740157
        },
        {
          "duration": 0.15000000000000568,
          "durationTicks": 36,
          "midi": 62,
          "name": "D4",
          "ticks": 42060,
          "time": 175.25,
          "velocity": 0.5039370078740157
        },
        {
          "duration": 0.15000000000000568,
          "durationTicks": 36,
          "midi": 67,
          "name": "G4",
          "ticks": 42060,
          "time": 175.25,
          "velocity": 0.5039370078740157
        },
        {
          "duration": 0.15000000000000568,
          "durationTicks": 36,
          "midi": 50,
          "name": "D3",
          "ticks": 42060,
          "time": 175.25,
          "velocity": 0.6692913385826772
        },
        {
          "duration": 0.15000000000000568,
          "durationTicks": 36,
          "midi": 55,
          "name": "G3",
          "ticks": 42060,
          "time": 175.25,
          "velocity": 0.6692913385826772
        },
        {
          "duration": 0.15000000000000568,
          "durationTicks": 36,
          "midi": 50,
          "name": "D3",
          "ticks": 42120,
          "time": 175.5,
          "velocity": 0.6692913385826772
        },
        {
          "duration": 0.15000000000000568,
          "durationTicks": 36,
          "midi": 67,
          "name": "G4",
          "ticks": 42120,
          "time": 175.5,
          "velocity": 0.5039370078740157
        },
        {
          "duration": 0.15000000000000568,
          "durationTicks": 36,
          "midi": 55,
          "name": "G3",
          "ticks": 42120,
          "time": 175.5,
          "velocity": 0.6692913385826772
        },
        {
          "duration": 0.15000000000000568,
          "durationTicks": 36,
          "midi": 62,
          "name": "D4",
          "ticks": 42120,
          "time": 175.5,
          "velocity": 0.5039370078740157
        },
        {
          "duration": 0.15000000000000568,
          "durationTicks": 36,
          "midi": 55,
          "name": "G3",
          "ticks": 42180,
          "time": 175.75,
          "velocity": 0.6692913385826772
        },
        {
          "duration": 0.15000000000000568,
          "durationTicks": 36,
          "midi": 67,
          "name": "G4",
          "ticks": 42180,
          "time": 175.75,
          "velocity": 0.5039370078740157
        },
        {
          "duration": 0.15000000000000568,
          "durationTicks": 36,
          "midi": 50,
          "name": "D3",
          "ticks": 42180,
          "time": 175.75,
          "velocity": 0.6692913385826772
        },
        {
          "duration": 0.15000000000000568,
          "durationTicks": 36,
          "midi": 62,
          "name": "D4",
          "ticks": 42180,
          "time": 175.75,
          "velocity": 0.5039370078740157
        },
        {
          "duration": 0.15000000000000568,
          "durationTicks": 36,
          "midi": 58,
          "name": "A#3",
          "ticks": 42240,
          "time": 176,
          "velocity": 0.6692913385826772
        },
        {
          "duration": 0.15000000000000568,
          "durationTicks": 36,
          "midi": 65,
          "name": "F4",
          "ticks": 42240,
          "time": 176,
          "velocity": 0.5039370078740157
        },
        {
          "duration": 0.15000000000000568,
          "durationTicks": 36,
          "midi": 53,
          "name": "F3",
          "ticks": 42240,
          "time": 176,
          "velocity": 0.6692913385826772
        },
        {
          "duration": 0.15000000000000568,
          "durationTicks": 36,
          "midi": 70,
          "name": "A#4",
          "ticks": 42240,
          "time": 176,
          "velocity": 0.5039370078740157
        },
        {
          "duration": 0.15000000000000568,
          "durationTicks": 36,
          "midi": 70,
          "name": "A#4",
          "ticks": 42300,
          "time": 176.25,
          "velocity": 0.5039370078740157
        },
        {
          "duration": 0.15000000000000568,
          "durationTicks": 36,
          "midi": 58,
          "name": "A#3",
          "ticks": 42300,
          "time": 176.25,
          "velocity": 0.6692913385826772
        },
        {
          "duration": 0.15000000000000568,
          "durationTicks": 36,
          "midi": 53,
          "name": "F3",
          "ticks": 42300,
          "time": 176.25,
          "velocity": 0.6692913385826772
        },
        {
          "duration": 0.15000000000000568,
          "durationTicks": 36,
          "midi": 65,
          "name": "F4",
          "ticks": 42300,
          "time": 176.25,
          "velocity": 0.5039370078740157
        },
        {
          "duration": 0.15000000000000568,
          "durationTicks": 36,
          "midi": 58,
          "name": "A#3",
          "ticks": 42360,
          "time": 176.5,
          "velocity": 0.6692913385826772
        },
        {
          "duration": 0.15000000000000568,
          "durationTicks": 36,
          "midi": 70,
          "name": "A#4",
          "ticks": 42360,
          "time": 176.5,
          "velocity": 0.5039370078740157
        },
        {
          "duration": 0.15000000000000568,
          "durationTicks": 36,
          "midi": 53,
          "name": "F3",
          "ticks": 42360,
          "time": 176.5,
          "velocity": 0.6692913385826772
        },
        {
          "duration": 0.15000000000000568,
          "durationTicks": 36,
          "midi": 65,
          "name": "F4",
          "ticks": 42360,
          "time": 176.5,
          "velocity": 0.5039370078740157
        },
        {
          "duration": 0.15000000000000568,
          "durationTicks": 36,
          "midi": 58,
          "name": "A#3",
          "ticks": 42420,
          "time": 176.75,
          "velocity": 0.6692913385826772
        },
        {
          "duration": 0.15000000000000568,
          "durationTicks": 36,
          "midi": 70,
          "name": "A#4",
          "ticks": 42420,
          "time": 176.75,
          "velocity": 0.5039370078740157
        },
        {
          "duration": 0.15000000000000568,
          "durationTicks": 36,
          "midi": 65,
          "name": "F4",
          "ticks": 42420,
          "time": 176.75,
          "velocity": 0.5039370078740157
        },
        {
          "duration": 0.15000000000000568,
          "durationTicks": 36,
          "midi": 53,
          "name": "F3",
          "ticks": 42420,
          "time": 176.75,
          "velocity": 0.6692913385826772
        },
        {
          "duration": 0.15000000000000568,
          "durationTicks": 36,
          "midi": 58,
          "name": "A#3",
          "ticks": 42480,
          "time": 177,
          "velocity": 0.6692913385826772
        },
        {
          "duration": 0.15000000000000568,
          "durationTicks": 36,
          "midi": 65,
          "name": "F4",
          "ticks": 42480,
          "time": 177,
          "velocity": 0.5039370078740157
        },
        {
          "duration": 0.15000000000000568,
          "durationTicks": 36,
          "midi": 70,
          "name": "A#4",
          "ticks": 42480,
          "time": 177,
          "velocity": 0.5039370078740157
        },
        {
          "duration": 0.15000000000000568,
          "durationTicks": 36,
          "midi": 53,
          "name": "F3",
          "ticks": 42480,
          "time": 177,
          "velocity": 0.6692913385826772
        },
        {
          "duration": 0.15000000000000568,
          "durationTicks": 36,
          "midi": 65,
          "name": "F4",
          "ticks": 42540,
          "time": 177.25,
          "velocity": 0.5039370078740157
        },
        {
          "duration": 0.15000000000000568,
          "durationTicks": 36,
          "midi": 53,
          "name": "F3",
          "ticks": 42540,
          "time": 177.25,
          "velocity": 0.6692913385826772
        },
        {
          "duration": 0.15000000000000568,
          "durationTicks": 36,
          "midi": 58,
          "name": "A#3",
          "ticks": 42540,
          "time": 177.25,
          "velocity": 0.6692913385826772
        },
        {
          "duration": 0.15000000000000568,
          "durationTicks": 36,
          "midi": 70,
          "name": "A#4",
          "ticks": 42540,
          "time": 177.25,
          "velocity": 0.5039370078740157
        },
        {
          "duration": 0.15000000000000568,
          "durationTicks": 36,
          "midi": 65,
          "name": "F4",
          "ticks": 42600,
          "time": 177.5,
          "velocity": 0.5039370078740157
        },
        {
          "duration": 0.15000000000000568,
          "durationTicks": 36,
          "midi": 53,
          "name": "F3",
          "ticks": 42600,
          "time": 177.5,
          "velocity": 0.6692913385826772
        },
        {
          "duration": 0.15000000000000568,
          "durationTicks": 36,
          "midi": 58,
          "name": "A#3",
          "ticks": 42600,
          "time": 177.5,
          "velocity": 0.6692913385826772
        },
        {
          "duration": 0.15000000000000568,
          "durationTicks": 36,
          "midi": 70,
          "name": "A#4",
          "ticks": 42600,
          "time": 177.5,
          "velocity": 0.5039370078740157
        },
        {
          "duration": 0.15000000000000568,
          "durationTicks": 36,
          "midi": 53,
          "name": "F3",
          "ticks": 42660,
          "time": 177.75,
          "velocity": 0.6692913385826772
        },
        {
          "duration": 0.15000000000000568,
          "durationTicks": 36,
          "midi": 65,
          "name": "F4",
          "ticks": 42660,
          "time": 177.75,
          "velocity": 0.5039370078740157
        },
        {
          "duration": 0.15000000000000568,
          "durationTicks": 36,
          "midi": 70,
          "name": "A#4",
          "ticks": 42660,
          "time": 177.75,
          "velocity": 0.5039370078740157
        },
        {
          "duration": 0.15000000000000568,
          "durationTicks": 36,
          "midi": 58,
          "name": "A#3",
          "ticks": 42660,
          "time": 177.75,
          "velocity": 0.6692913385826772
        },
        {
          "duration": 0.15000000000000568,
          "durationTicks": 36,
          "midi": 53,
          "name": "F3",
          "ticks": 42720,
          "time": 178,
          "velocity": 0.6692913385826772
        },
        {
          "duration": 0.15000000000000568,
          "durationTicks": 36,
          "midi": 48,
          "name": "C3",
          "ticks": 42720,
          "time": 178,
          "velocity": 0.6692913385826772
        },
        {
          "duration": 0.15000000000000568,
          "durationTicks": 36,
          "midi": 60,
          "name": "C4",
          "ticks": 42720,
          "time": 178,
          "velocity": 0.5039370078740157
        },
        {
          "duration": 0.15000000000000568,
          "durationTicks": 36,
          "midi": 65,
          "name": "F4",
          "ticks": 42720,
          "time": 178,
          "velocity": 0.5039370078740157
        },
        {
          "duration": 0.15000000000000568,
          "durationTicks": 36,
          "midi": 60,
          "name": "C4",
          "ticks": 42780,
          "time": 178.25,
          "velocity": 0.5039370078740157
        },
        {
          "duration": 0.15000000000000568,
          "durationTicks": 36,
          "midi": 65,
          "name": "F4",
          "ticks": 42780,
          "time": 178.25,
          "velocity": 0.5039370078740157
        },
        {
          "duration": 0.15000000000000568,
          "durationTicks": 36,
          "midi": 48,
          "name": "C3",
          "ticks": 42780,
          "time": 178.25,
          "velocity": 0.6692913385826772
        },
        {
          "duration": 0.15000000000000568,
          "durationTicks": 36,
          "midi": 53,
          "name": "F3",
          "ticks": 42780,
          "time": 178.25,
          "velocity": 0.6692913385826772
        },
        {
          "duration": 0.15000000000000568,
          "durationTicks": 36,
          "midi": 60,
          "name": "C4",
          "ticks": 42840,
          "time": 178.5,
          "velocity": 0.5039370078740157
        },
        {
          "duration": 0.15000000000000568,
          "durationTicks": 36,
          "midi": 48,
          "name": "C3",
          "ticks": 42840,
          "time": 178.5,
          "velocity": 0.6692913385826772
        },
        {
          "duration": 0.15000000000000568,
          "durationTicks": 36,
          "midi": 53,
          "name": "F3",
          "ticks": 42840,
          "time": 178.5,
          "velocity": 0.6692913385826772
        },
        {
          "duration": 0.15000000000000568,
          "durationTicks": 36,
          "midi": 65,
          "name": "F4",
          "ticks": 42840,
          "time": 178.5,
          "velocity": 0.5039370078740157
        },
        {
          "duration": 0.15000000000000568,
          "durationTicks": 36,
          "midi": 60,
          "name": "C4",
          "ticks": 42900,
          "time": 178.75,
          "velocity": 0.5039370078740157
        },
        {
          "duration": 0.15000000000000568,
          "durationTicks": 36,
          "midi": 53,
          "name": "F3",
          "ticks": 42900,
          "time": 178.75,
          "velocity": 0.6692913385826772
        },
        {
          "duration": 0.15000000000000568,
          "durationTicks": 36,
          "midi": 48,
          "name": "C3",
          "ticks": 42900,
          "time": 178.75,
          "velocity": 0.6692913385826772
        },
        {
          "duration": 0.15000000000000568,
          "durationTicks": 36,
          "midi": 65,
          "name": "F4",
          "ticks": 42900,
          "time": 178.75,
          "velocity": 0.5039370078740157
        },
        {
          "duration": 0.15000000000000568,
          "durationTicks": 36,
          "midi": 65,
          "name": "F4",
          "ticks": 42960,
          "time": 179,
          "velocity": 0.5039370078740157
        },
        {
          "duration": 0.15000000000000568,
          "durationTicks": 36,
          "midi": 60,
          "name": "C4",
          "ticks": 42960,
          "time": 179,
          "velocity": 0.5039370078740157
        },
        {
          "duration": 0.15000000000000568,
          "durationTicks": 36,
          "midi": 53,
          "name": "F3",
          "ticks": 42960,
          "time": 179,
          "velocity": 0.6692913385826772
        },
        {
          "duration": 0.15000000000000568,
          "durationTicks": 36,
          "midi": 48,
          "name": "C3",
          "ticks": 42960,
          "time": 179,
          "velocity": 0.6692913385826772
        },
        {
          "duration": 0.15000000000000568,
          "durationTicks": 36,
          "midi": 48,
          "name": "C3",
          "ticks": 43020,
          "time": 179.25,
          "velocity": 0.6692913385826772
        },
        {
          "duration": 0.15000000000000568,
          "durationTicks": 36,
          "midi": 65,
          "name": "F4",
          "ticks": 43020,
          "time": 179.25,
          "velocity": 0.5039370078740157
        },
        {
          "duration": 0.15000000000000568,
          "durationTicks": 36,
          "midi": 60,
          "name": "C4",
          "ticks": 43020,
          "time": 179.25,
          "velocity": 0.5039370078740157
        },
        {
          "duration": 0.15000000000000568,
          "durationTicks": 36,
          "midi": 53,
          "name": "F3",
          "ticks": 43020,
          "time": 179.25,
          "velocity": 0.6692913385826772
        },
        {
          "duration": 0.15000000000000568,
          "durationTicks": 36,
          "midi": 65,
          "name": "F4",
          "ticks": 43080,
          "time": 179.5,
          "velocity": 0.5039370078740157
        },
        {
          "duration": 0.15000000000000568,
          "durationTicks": 36,
          "midi": 48,
          "name": "C3",
          "ticks": 43080,
          "time": 179.5,
          "velocity": 0.6692913385826772
        },
        {
          "duration": 0.15000000000000568,
          "durationTicks": 36,
          "midi": 60,
          "name": "C4",
          "ticks": 43080,
          "time": 179.5,
          "velocity": 0.5039370078740157
        },
        {
          "duration": 0.15000000000000568,
          "durationTicks": 36,
          "midi": 53,
          "name": "F3",
          "ticks": 43080,
          "time": 179.5,
          "velocity": 0.6692913385826772
        },
        {
          "duration": 0.15000000000000568,
          "durationTicks": 36,
          "midi": 53,
          "name": "F3",
          "ticks": 43140,
          "time": 179.75,
          "velocity": 0.6692913385826772
        },
        {
          "duration": 0.15000000000000568,
          "durationTicks": 36,
          "midi": 65,
          "name": "F4",
          "ticks": 43140,
          "time": 179.75,
          "velocity": 0.5039370078740157
        },
        {
          "duration": 0.15000000000000568,
          "durationTicks": 36,
          "midi": 48,
          "name": "C3",
          "ticks": 43140,
          "time": 179.75,
          "velocity": 0.6692913385826772
        },
        {
          "duration": 0.15000000000000568,
          "durationTicks": 36,
          "midi": 60,
          "name": "C4",
          "ticks": 43140,
          "time": 179.75,
          "velocity": 0.5039370078740157
        },
        {
          "duration": 0.15000000000000568,
          "durationTicks": 36,
          "midi": 67,
          "name": "G4",
          "ticks": 43200,
          "time": 180,
          "velocity": 0.5039370078740157
        },
        {
          "duration": 0.15000000000000568,
          "durationTicks": 36,
          "midi": 48,
          "name": "C3",
          "ticks": 43200,
          "time": 180,
          "velocity": 0.6692913385826772
        },
        {
          "duration": 0.15000000000000568,
          "durationTicks": 36,
          "midi": 60,
          "name": "C4",
          "ticks": 43200,
          "time": 180,
          "velocity": 0.5039370078740157
        },
        {
          "duration": 0.15000000000000568,
          "durationTicks": 36,
          "midi": 55,
          "name": "G3",
          "ticks": 43200,
          "time": 180,
          "velocity": 0.6692913385826772
        },
        {
          "duration": 0.15000000000000568,
          "durationTicks": 36,
          "midi": 48,
          "name": "C3",
          "ticks": 43260,
          "time": 180.25,
          "velocity": 0.6692913385826772
        },
        {
          "duration": 0.15000000000000568,
          "durationTicks": 36,
          "midi": 55,
          "name": "G3",
          "ticks": 43260,
          "time": 180.25,
          "velocity": 0.6692913385826772
        },
        {
          "duration": 0.15000000000000568,
          "durationTicks": 36,
          "midi": 60,
          "name": "C4",
          "ticks": 43260,
          "time": 180.25,
          "velocity": 0.5039370078740157
        },
        {
          "duration": 0.15000000000000568,
          "durationTicks": 36,
          "midi": 67,
          "name": "G4",
          "ticks": 43260,
          "time": 180.25,
          "velocity": 0.5039370078740157
        },
        {
          "duration": 0.15000000000000568,
          "durationTicks": 36,
          "midi": 67,
          "name": "G4",
          "ticks": 43320,
          "time": 180.5,
          "velocity": 0.5039370078740157
        },
        {
          "duration": 0.15000000000000568,
          "durationTicks": 36,
          "midi": 48,
          "name": "C3",
          "ticks": 43320,
          "time": 180.5,
          "velocity": 0.6692913385826772
        },
        {
          "duration": 0.15000000000000568,
          "durationTicks": 36,
          "midi": 55,
          "name": "G3",
          "ticks": 43320,
          "time": 180.5,
          "velocity": 0.6692913385826772
        },
        {
          "duration": 0.15000000000000568,
          "durationTicks": 36,
          "midi": 60,
          "name": "C4",
          "ticks": 43320,
          "time": 180.5,
          "velocity": 0.5039370078740157
        },
        {
          "duration": 0.15000000000000568,
          "durationTicks": 36,
          "midi": 55,
          "name": "G3",
          "ticks": 43380,
          "time": 180.75,
          "velocity": 0.6692913385826772
        },
        {
          "duration": 0.15000000000000568,
          "durationTicks": 36,
          "midi": 60,
          "name": "C4",
          "ticks": 43380,
          "time": 180.75,
          "velocity": 0.5039370078740157
        },
        {
          "duration": 0.15000000000000568,
          "durationTicks": 36,
          "midi": 48,
          "name": "C3",
          "ticks": 43380,
          "time": 180.75,
          "velocity": 0.6692913385826772
        },
        {
          "duration": 0.15000000000000568,
          "durationTicks": 36,
          "midi": 67,
          "name": "G4",
          "ticks": 43380,
          "time": 180.75,
          "velocity": 0.5039370078740157
        },
        {
          "duration": 0.15000000000000568,
          "durationTicks": 36,
          "midi": 67,
          "name": "G4",
          "ticks": 43440,
          "time": 181,
          "velocity": 0.5039370078740157
        },
        {
          "duration": 0.15000000000000568,
          "durationTicks": 36,
          "midi": 55,
          "name": "G3",
          "ticks": 43440,
          "time": 181,
          "velocity": 0.6692913385826772
        },
        {
          "duration": 0.15000000000000568,
          "durationTicks": 36,
          "midi": 48,
          "name": "C3",
          "ticks": 43440,
          "time": 181,
          "velocity": 0.6692913385826772
        },
        {
          "duration": 0.15000000000000568,
          "durationTicks": 36,
          "midi": 60,
          "name": "C4",
          "ticks": 43440,
          "time": 181,
          "velocity": 0.5039370078740157
        },
        {
          "duration": 0.15000000000000568,
          "durationTicks": 36,
          "midi": 67,
          "name": "G4",
          "ticks": 43500,
          "time": 181.25,
          "velocity": 0.5039370078740157
        },
        {
          "duration": 0.15000000000000568,
          "durationTicks": 36,
          "midi": 48,
          "name": "C3",
          "ticks": 43500,
          "time": 181.25,
          "velocity": 0.6692913385826772
        },
        {
          "duration": 0.15000000000000568,
          "durationTicks": 36,
          "midi": 55,
          "name": "G3",
          "ticks": 43500,
          "time": 181.25,
          "velocity": 0.6692913385826772
        },
        {
          "duration": 0.15000000000000568,
          "durationTicks": 36,
          "midi": 60,
          "name": "C4",
          "ticks": 43500,
          "time": 181.25,
          "velocity": 0.5039370078740157
        },
        {
          "duration": 0.15000000000000568,
          "durationTicks": 36,
          "midi": 55,
          "name": "G3",
          "ticks": 43560,
          "time": 181.5,
          "velocity": 0.6692913385826772
        },
        {
          "duration": 0.15000000000000568,
          "durationTicks": 36,
          "midi": 48,
          "name": "C3",
          "ticks": 43560,
          "time": 181.5,
          "velocity": 0.6692913385826772
        },
        {
          "duration": 0.15000000000000568,
          "durationTicks": 36,
          "midi": 67,
          "name": "G4",
          "ticks": 43560,
          "time": 181.5,
          "velocity": 0.5039370078740157
        },
        {
          "duration": 0.15000000000000568,
          "durationTicks": 36,
          "midi": 60,
          "name": "C4",
          "ticks": 43560,
          "time": 181.5,
          "velocity": 0.5039370078740157
        },
        {
          "duration": 0.15000000000000568,
          "durationTicks": 36,
          "midi": 55,
          "name": "G3",
          "ticks": 43620,
          "time": 181.75,
          "velocity": 0.6692913385826772
        },
        {
          "duration": 0.15000000000000568,
          "durationTicks": 36,
          "midi": 67,
          "name": "G4",
          "ticks": 43620,
          "time": 181.75,
          "velocity": 0.5039370078740157
        },
        {
          "duration": 0.15000000000000568,
          "durationTicks": 36,
          "midi": 60,
          "name": "C4",
          "ticks": 43620,
          "time": 181.75,
          "velocity": 0.5039370078740157
        },
        {
          "duration": 0.15000000000000568,
          "durationTicks": 36,
          "midi": 48,
          "name": "C3",
          "ticks": 43620,
          "time": 181.75,
          "velocity": 0.6692913385826772
        },
        {
          "duration": 0.15000000000000568,
          "durationTicks": 36,
          "midi": 67,
          "name": "G4",
          "ticks": 43680,
          "time": 182,
          "velocity": 0.5039370078740157
        },
        {
          "duration": 0.15000000000000568,
          "durationTicks": 36,
          "midi": 55,
          "name": "G3",
          "ticks": 43680,
          "time": 182,
          "velocity": 0.6692913385826772
        },
        {
          "duration": 0.15000000000000568,
          "durationTicks": 36,
          "midi": 62,
          "name": "D4",
          "ticks": 43680,
          "time": 182,
          "velocity": 0.5039370078740157
        },
        {
          "duration": 0.15000000000000568,
          "durationTicks": 36,
          "midi": 50,
          "name": "D3",
          "ticks": 43680,
          "time": 182,
          "velocity": 0.6692913385826772
        },
        {
          "duration": 0.15000000000000568,
          "durationTicks": 36,
          "midi": 62,
          "name": "D4",
          "ticks": 43740,
          "time": 182.25,
          "velocity": 0.5039370078740157
        },
        {
          "duration": 0.15000000000000568,
          "durationTicks": 36,
          "midi": 55,
          "name": "G3",
          "ticks": 43740,
          "time": 182.25,
          "velocity": 0.6692913385826772
        },
        {
          "duration": 0.15000000000000568,
          "durationTicks": 36,
          "midi": 67,
          "name": "G4",
          "ticks": 43740,
          "time": 182.25,
          "velocity": 0.5039370078740157
        },
        {
          "duration": 0.15000000000000568,
          "durationTicks": 36,
          "midi": 50,
          "name": "D3",
          "ticks": 43740,
          "time": 182.25,
          "velocity": 0.6692913385826772
        },
        {
          "duration": 0.15000000000000568,
          "durationTicks": 36,
          "midi": 50,
          "name": "D3",
          "ticks": 43800,
          "time": 182.5,
          "velocity": 0.6692913385826772
        },
        {
          "duration": 0.15000000000000568,
          "durationTicks": 36,
          "midi": 67,
          "name": "G4",
          "ticks": 43800,
          "time": 182.5,
          "velocity": 0.5039370078740157
        },
        {
          "duration": 0.15000000000000568,
          "durationTicks": 36,
          "midi": 62,
          "name": "D4",
          "ticks": 43800,
          "time": 182.5,
          "velocity": 0.5039370078740157
        },
        {
          "duration": 0.15000000000000568,
          "durationTicks": 36,
          "midi": 55,
          "name": "G3",
          "ticks": 43800,
          "time": 182.5,
          "velocity": 0.6692913385826772
        },
        {
          "duration": 0.15000000000000568,
          "durationTicks": 36,
          "midi": 67,
          "name": "G4",
          "ticks": 43860,
          "time": 182.75,
          "velocity": 0.5039370078740157
        },
        {
          "duration": 0.15000000000000568,
          "durationTicks": 36,
          "midi": 50,
          "name": "D3",
          "ticks": 43860,
          "time": 182.75,
          "velocity": 0.6692913385826772
        },
        {
          "duration": 0.15000000000000568,
          "durationTicks": 36,
          "midi": 62,
          "name": "D4",
          "ticks": 43860,
          "time": 182.75,
          "velocity": 0.5039370078740157
        },
        {
          "duration": 0.15000000000000568,
          "durationTicks": 36,
          "midi": 55,
          "name": "G3",
          "ticks": 43860,
          "time": 182.75,
          "velocity": 0.6692913385826772
        },
        {
          "duration": 0.15000000000000568,
          "durationTicks": 36,
          "midi": 62,
          "name": "D4",
          "ticks": 43920,
          "time": 183,
          "velocity": 0.5039370078740157
        },
        {
          "duration": 0.15000000000000568,
          "durationTicks": 36,
          "midi": 55,
          "name": "G3",
          "ticks": 43920,
          "time": 183,
          "velocity": 0.6692913385826772
        },
        {
          "duration": 0.15000000000000568,
          "durationTicks": 36,
          "midi": 50,
          "name": "D3",
          "ticks": 43920,
          "time": 183,
          "velocity": 0.6692913385826772
        },
        {
          "duration": 0.15000000000000568,
          "durationTicks": 36,
          "midi": 67,
          "name": "G4",
          "ticks": 43920,
          "time": 183,
          "velocity": 0.5039370078740157
        },
        {
          "duration": 0.15000000000000568,
          "durationTicks": 36,
          "midi": 67,
          "name": "G4",
          "ticks": 43980,
          "time": 183.25,
          "velocity": 0.5039370078740157
        },
        {
          "duration": 0.15000000000000568,
          "durationTicks": 36,
          "midi": 50,
          "name": "D3",
          "ticks": 43980,
          "time": 183.25,
          "velocity": 0.6692913385826772
        },
        {
          "duration": 0.15000000000000568,
          "durationTicks": 36,
          "midi": 62,
          "name": "D4",
          "ticks": 43980,
          "time": 183.25,
          "velocity": 0.5039370078740157
        },
        {
          "duration": 0.15000000000000568,
          "durationTicks": 36,
          "midi": 55,
          "name": "G3",
          "ticks": 43980,
          "time": 183.25,
          "velocity": 0.6692913385826772
        },
        {
          "duration": 0.15000000000000568,
          "durationTicks": 36,
          "midi": 50,
          "name": "D3",
          "ticks": 44040,
          "time": 183.5,
          "velocity": 0.6692913385826772
        },
        {
          "duration": 0.15000000000000568,
          "durationTicks": 36,
          "midi": 67,
          "name": "G4",
          "ticks": 44040,
          "time": 183.5,
          "velocity": 0.5039370078740157
        },
        {
          "duration": 0.15000000000000568,
          "durationTicks": 36,
          "midi": 55,
          "name": "G3",
          "ticks": 44040,
          "time": 183.5,
          "velocity": 0.6692913385826772
        },
        {
          "duration": 0.15000000000000568,
          "durationTicks": 36,
          "midi": 62,
          "name": "D4",
          "ticks": 44040,
          "time": 183.5,
          "velocity": 0.5039370078740157
        },
        {
          "duration": 0.15000000000000568,
          "durationTicks": 36,
          "midi": 62,
          "name": "D4",
          "ticks": 44100,
          "time": 183.75,
          "velocity": 0.5039370078740157
        },
        {
          "duration": 0.15000000000000568,
          "durationTicks": 36,
          "midi": 50,
          "name": "D3",
          "ticks": 44100,
          "time": 183.75,
          "velocity": 0.6692913385826772
        },
        {
          "duration": 0.15000000000000568,
          "durationTicks": 36,
          "midi": 55,
          "name": "G3",
          "ticks": 44100,
          "time": 183.75,
          "velocity": 0.6692913385826772
        },
        {
          "duration": 0.15000000000000568,
          "durationTicks": 36,
          "midi": 67,
          "name": "G4",
          "ticks": 44100,
          "time": 183.75,
          "velocity": 0.5039370078740157
        },
        {
          "duration": 0.15000000000000568,
          "durationTicks": 36,
          "midi": 58,
          "name": "A#3",
          "ticks": 44160,
          "time": 184,
          "velocity": 0.6692913385826772
        },
        {
          "duration": 0.15000000000000568,
          "durationTicks": 36,
          "midi": 53,
          "name": "F3",
          "ticks": 44160,
          "time": 184,
          "velocity": 0.6692913385826772
        },
        {
          "duration": 0.15000000000000568,
          "durationTicks": 36,
          "midi": 70,
          "name": "A#4",
          "ticks": 44160,
          "time": 184,
          "velocity": 0.5039370078740157
        },
        {
          "duration": 0.15000000000000568,
          "durationTicks": 36,
          "midi": 65,
          "name": "F4",
          "ticks": 44160,
          "time": 184,
          "velocity": 0.5039370078740157
        },
        {
          "duration": 0.15000000000000568,
          "durationTicks": 36,
          "midi": 53,
          "name": "F3",
          "ticks": 44220,
          "time": 184.25,
          "velocity": 0.6692913385826772
        },
        {
          "duration": 0.15000000000000568,
          "durationTicks": 36,
          "midi": 58,
          "name": "A#3",
          "ticks": 44220,
          "time": 184.25,
          "velocity": 0.6692913385826772
        },
        {
          "duration": 0.15000000000000568,
          "durationTicks": 36,
          "midi": 70,
          "name": "A#4",
          "ticks": 44220,
          "time": 184.25,
          "velocity": 0.5039370078740157
        },
        {
          "duration": 0.15000000000000568,
          "durationTicks": 36,
          "midi": 65,
          "name": "F4",
          "ticks": 44220,
          "time": 184.25,
          "velocity": 0.5039370078740157
        },
        {
          "duration": 0.15000000000000568,
          "durationTicks": 36,
          "midi": 53,
          "name": "F3",
          "ticks": 44280,
          "time": 184.5,
          "velocity": 0.6692913385826772
        },
        {
          "duration": 0.15000000000000568,
          "durationTicks": 36,
          "midi": 65,
          "name": "F4",
          "ticks": 44280,
          "time": 184.5,
          "velocity": 0.5039370078740157
        },
        {
          "duration": 0.15000000000000568,
          "durationTicks": 36,
          "midi": 70,
          "name": "A#4",
          "ticks": 44280,
          "time": 184.5,
          "velocity": 0.5039370078740157
        },
        {
          "duration": 0.15000000000000568,
          "durationTicks": 36,
          "midi": 58,
          "name": "A#3",
          "ticks": 44280,
          "time": 184.5,
          "velocity": 0.6692913385826772
        },
        {
          "duration": 0.15000000000000568,
          "durationTicks": 36,
          "midi": 53,
          "name": "F3",
          "ticks": 44340,
          "time": 184.75,
          "velocity": 0.6692913385826772
        },
        {
          "duration": 0.15000000000000568,
          "durationTicks": 36,
          "midi": 70,
          "name": "A#4",
          "ticks": 44340,
          "time": 184.75,
          "velocity": 0.5039370078740157
        },
        {
          "duration": 0.15000000000000568,
          "durationTicks": 36,
          "midi": 65,
          "name": "F4",
          "ticks": 44340,
          "time": 184.75,
          "velocity": 0.5039370078740157
        },
        {
          "duration": 0.15000000000000568,
          "durationTicks": 36,
          "midi": 58,
          "name": "A#3",
          "ticks": 44340,
          "time": 184.75,
          "velocity": 0.6692913385826772
        },
        {
          "duration": 0.15000000000000568,
          "durationTicks": 36,
          "midi": 53,
          "name": "F3",
          "ticks": 44400,
          "time": 185,
          "velocity": 0.6692913385826772
        },
        {
          "duration": 0.15000000000000568,
          "durationTicks": 36,
          "midi": 65,
          "name": "F4",
          "ticks": 44400,
          "time": 185,
          "velocity": 0.5039370078740157
        },
        {
          "duration": 0.15000000000000568,
          "durationTicks": 36,
          "midi": 58,
          "name": "A#3",
          "ticks": 44400,
          "time": 185,
          "velocity": 0.6692913385826772
        },
        {
          "duration": 0.15000000000000568,
          "durationTicks": 36,
          "midi": 70,
          "name": "A#4",
          "ticks": 44400,
          "time": 185,
          "velocity": 0.5039370078740157
        },
        {
          "duration": 0.15000000000000568,
          "durationTicks": 36,
          "midi": 70,
          "name": "A#4",
          "ticks": 44460,
          "time": 185.25,
          "velocity": 0.5039370078740157
        },
        {
          "duration": 0.15000000000000568,
          "durationTicks": 36,
          "midi": 53,
          "name": "F3",
          "ticks": 44460,
          "time": 185.25,
          "velocity": 0.6692913385826772
        },
        {
          "duration": 0.15000000000000568,
          "durationTicks": 36,
          "midi": 65,
          "name": "F4",
          "ticks": 44460,
          "time": 185.25,
          "velocity": 0.5039370078740157
        },
        {
          "duration": 0.15000000000000568,
          "durationTicks": 36,
          "midi": 58,
          "name": "A#3",
          "ticks": 44460,
          "time": 185.25,
          "velocity": 0.6692913385826772
        },
        {
          "duration": 0.15000000000000568,
          "durationTicks": 36,
          "midi": 53,
          "name": "F3",
          "ticks": 44520,
          "time": 185.5,
          "velocity": 0.6692913385826772
        },
        {
          "duration": 0.15000000000000568,
          "durationTicks": 36,
          "midi": 65,
          "name": "F4",
          "ticks": 44520,
          "time": 185.5,
          "velocity": 0.5039370078740157
        },
        {
          "duration": 0.15000000000000568,
          "durationTicks": 36,
          "midi": 58,
          "name": "A#3",
          "ticks": 44520,
          "time": 185.5,
          "velocity": 0.6692913385826772
        },
        {
          "duration": 0.15000000000000568,
          "durationTicks": 36,
          "midi": 70,
          "name": "A#4",
          "ticks": 44520,
          "time": 185.5,
          "velocity": 0.5039370078740157
        },
        {
          "duration": 0.15000000000000568,
          "durationTicks": 36,
          "midi": 58,
          "name": "A#3",
          "ticks": 44580,
          "time": 185.75,
          "velocity": 0.6692913385826772
        },
        {
          "duration": 0.15000000000000568,
          "durationTicks": 36,
          "midi": 65,
          "name": "F4",
          "ticks": 44580,
          "time": 185.75,
          "velocity": 0.5039370078740157
        },
        {
          "duration": 0.15000000000000568,
          "durationTicks": 36,
          "midi": 70,
          "name": "A#4",
          "ticks": 44580,
          "time": 185.75,
          "velocity": 0.5039370078740157
        },
        {
          "duration": 0.15000000000000568,
          "durationTicks": 36,
          "midi": 53,
          "name": "F3",
          "ticks": 44580,
          "time": 185.75,
          "velocity": 0.6692913385826772
        },
        {
          "duration": 0.15000000000000568,
          "durationTicks": 36,
          "midi": 48,
          "name": "C3",
          "ticks": 44640,
          "time": 186,
          "velocity": 0.6692913385826772
        },
        {
          "duration": 0.15000000000000568,
          "durationTicks": 36,
          "midi": 53,
          "name": "F3",
          "ticks": 44640,
          "time": 186,
          "velocity": 0.6692913385826772
        },
        {
          "duration": 0.15000000000000568,
          "durationTicks": 36,
          "midi": 60,
          "name": "C4",
          "ticks": 44640,
          "time": 186,
          "velocity": 0.5039370078740157
        },
        {
          "duration": 0.15000000000000568,
          "durationTicks": 36,
          "midi": 65,
          "name": "F4",
          "ticks": 44640,
          "time": 186,
          "velocity": 0.5039370078740157
        },
        {
          "duration": 0.15000000000000568,
          "durationTicks": 36,
          "midi": 65,
          "name": "F4",
          "ticks": 44700,
          "time": 186.25,
          "velocity": 0.5039370078740157
        },
        {
          "duration": 0.15000000000000568,
          "durationTicks": 36,
          "midi": 60,
          "name": "C4",
          "ticks": 44700,
          "time": 186.25,
          "velocity": 0.5039370078740157
        },
        {
          "duration": 0.15000000000000568,
          "durationTicks": 36,
          "midi": 48,
          "name": "C3",
          "ticks": 44700,
          "time": 186.25,
          "velocity": 0.6692913385826772
        },
        {
          "duration": 0.15000000000000568,
          "durationTicks": 36,
          "midi": 53,
          "name": "F3",
          "ticks": 44700,
          "time": 186.25,
          "velocity": 0.6692913385826772
        },
        {
          "duration": 0.15000000000000568,
          "durationTicks": 36,
          "midi": 65,
          "name": "F4",
          "ticks": 44760,
          "time": 186.5,
          "velocity": 0.5039370078740157
        },
        {
          "duration": 0.15000000000000568,
          "durationTicks": 36,
          "midi": 53,
          "name": "F3",
          "ticks": 44760,
          "time": 186.5,
          "velocity": 0.6692913385826772
        },
        {
          "duration": 0.15000000000000568,
          "durationTicks": 36,
          "midi": 60,
          "name": "C4",
          "ticks": 44760,
          "time": 186.5,
          "velocity": 0.5039370078740157
        },
        {
          "duration": 0.15000000000000568,
          "durationTicks": 36,
          "midi": 48,
          "name": "C3",
          "ticks": 44760,
          "time": 186.5,
          "velocity": 0.6692913385826772
        },
        {
          "duration": 0.15000000000000568,
          "durationTicks": 36,
          "midi": 60,
          "name": "C4",
          "ticks": 44820,
          "time": 186.75,
          "velocity": 0.5039370078740157
        },
        {
          "duration": 0.15000000000000568,
          "durationTicks": 36,
          "midi": 65,
          "name": "F4",
          "ticks": 44820,
          "time": 186.75,
          "velocity": 0.5039370078740157
        },
        {
          "duration": 0.15000000000000568,
          "durationTicks": 36,
          "midi": 53,
          "name": "F3",
          "ticks": 44820,
          "time": 186.75,
          "velocity": 0.6692913385826772
        },
        {
          "duration": 0.15000000000000568,
          "durationTicks": 36,
          "midi": 48,
          "name": "C3",
          "ticks": 44820,
          "time": 186.75,
          "velocity": 0.6692913385826772
        },
        {
          "duration": 0.15000000000000568,
          "durationTicks": 36,
          "midi": 65,
          "name": "F4",
          "ticks": 44880,
          "time": 187,
          "velocity": 0.5039370078740157
        },
        {
          "duration": 0.15000000000000568,
          "durationTicks": 36,
          "midi": 53,
          "name": "F3",
          "ticks": 44880,
          "time": 187,
          "velocity": 0.6692913385826772
        },
        {
          "duration": 0.15000000000000568,
          "durationTicks": 36,
          "midi": 48,
          "name": "C3",
          "ticks": 44880,
          "time": 187,
          "velocity": 0.6692913385826772
        },
        {
          "duration": 0.15000000000000568,
          "durationTicks": 36,
          "midi": 60,
          "name": "C4",
          "ticks": 44880,
          "time": 187,
          "velocity": 0.5039370078740157
        },
        {
          "duration": 0.15000000000000568,
          "durationTicks": 36,
          "midi": 53,
          "name": "F3",
          "ticks": 44940,
          "time": 187.25,
          "velocity": 0.6692913385826772
        },
        {
          "duration": 0.15000000000000568,
          "durationTicks": 36,
          "midi": 65,
          "name": "F4",
          "ticks": 44940,
          "time": 187.25,
          "velocity": 0.5039370078740157
        },
        {
          "duration": 0.15000000000000568,
          "durationTicks": 36,
          "midi": 60,
          "name": "C4",
          "ticks": 44940,
          "time": 187.25,
          "velocity": 0.5039370078740157
        },
        {
          "duration": 0.15000000000000568,
          "durationTicks": 36,
          "midi": 48,
          "name": "C3",
          "ticks": 44940,
          "time": 187.25,
          "velocity": 0.6692913385826772
        },
        {
          "duration": 0.15000000000000568,
          "durationTicks": 36,
          "midi": 53,
          "name": "F3",
          "ticks": 45000,
          "time": 187.5,
          "velocity": 0.6692913385826772
        },
        {
          "duration": 0.15000000000000568,
          "durationTicks": 36,
          "midi": 60,
          "name": "C4",
          "ticks": 45000,
          "time": 187.5,
          "velocity": 0.5039370078740157
        },
        {
          "duration": 0.15000000000000568,
          "durationTicks": 36,
          "midi": 48,
          "name": "C3",
          "ticks": 45000,
          "time": 187.5,
          "velocity": 0.6692913385826772
        },
        {
          "duration": 0.15000000000000568,
          "durationTicks": 36,
          "midi": 65,
          "name": "F4",
          "ticks": 45000,
          "time": 187.5,
          "velocity": 0.5039370078740157
        },
        {
          "duration": 0.15000000000000568,
          "durationTicks": 36,
          "midi": 53,
          "name": "F3",
          "ticks": 45060,
          "time": 187.75,
          "velocity": 0.6692913385826772
        },
        {
          "duration": 0.15000000000000568,
          "durationTicks": 36,
          "midi": 60,
          "name": "C4",
          "ticks": 45060,
          "time": 187.75,
          "velocity": 0.5039370078740157
        },
        {
          "duration": 0.15000000000000568,
          "durationTicks": 36,
          "midi": 65,
          "name": "F4",
          "ticks": 45060,
          "time": 187.75,
          "velocity": 0.5039370078740157
        },
        {
          "duration": 0.15000000000000568,
          "durationTicks": 36,
          "midi": 48,
          "name": "C3",
          "ticks": 45060,
          "time": 187.75,
          "velocity": 0.6692913385826772
        },
        {
          "duration": 0.15000000000000568,
          "durationTicks": 36,
          "midi": 67,
          "name": "G4",
          "ticks": 45120,
          "time": 188,
          "velocity": 0.5039370078740157
        },
        {
          "duration": 0.15000000000000568,
          "durationTicks": 36,
          "midi": 48,
          "name": "C3",
          "ticks": 45120,
          "time": 188,
          "velocity": 0.6692913385826772
        },
        {
          "duration": 0.15000000000000568,
          "durationTicks": 36,
          "midi": 60,
          "name": "C4",
          "ticks": 45120,
          "time": 188,
          "velocity": 0.5039370078740157
        },
        {
          "duration": 0.15000000000000568,
          "durationTicks": 36,
          "midi": 55,
          "name": "G3",
          "ticks": 45120,
          "time": 188,
          "velocity": 0.6692913385826772
        },
        {
          "duration": 0.15000000000000568,
          "durationTicks": 36,
          "midi": 55,
          "name": "G3",
          "ticks": 45180,
          "time": 188.25,
          "velocity": 0.6692913385826772
        },
        {
          "duration": 0.15000000000000568,
          "durationTicks": 36,
          "midi": 60,
          "name": "C4",
          "ticks": 45180,
          "time": 188.25,
          "velocity": 0.5039370078740157
        },
        {
          "duration": 0.15000000000000568,
          "durationTicks": 36,
          "midi": 48,
          "name": "C3",
          "ticks": 45180,
          "time": 188.25,
          "velocity": 0.6692913385826772
        },
        {
          "duration": 0.15000000000000568,
          "durationTicks": 36,
          "midi": 67,
          "name": "G4",
          "ticks": 45180,
          "time": 188.25,
          "velocity": 0.5039370078740157
        },
        {
          "duration": 0.15000000000000568,
          "durationTicks": 36,
          "midi": 55,
          "name": "G3",
          "ticks": 45240,
          "time": 188.5,
          "velocity": 0.6692913385826772
        },
        {
          "duration": 0.15000000000000568,
          "durationTicks": 36,
          "midi": 48,
          "name": "C3",
          "ticks": 45240,
          "time": 188.5,
          "velocity": 0.6692913385826772
        },
        {
          "duration": 0.15000000000000568,
          "durationTicks": 36,
          "midi": 60,
          "name": "C4",
          "ticks": 45240,
          "time": 188.5,
          "velocity": 0.5039370078740157
        },
        {
          "duration": 0.15000000000000568,
          "durationTicks": 36,
          "midi": 67,
          "name": "G4",
          "ticks": 45240,
          "time": 188.5,
          "velocity": 0.5039370078740157
        },
        {
          "duration": 0.15000000000000568,
          "durationTicks": 36,
          "midi": 60,
          "name": "C4",
          "ticks": 45300,
          "time": 188.75,
          "velocity": 0.5039370078740157
        },
        {
          "duration": 0.15000000000000568,
          "durationTicks": 36,
          "midi": 67,
          "name": "G4",
          "ticks": 45300,
          "time": 188.75,
          "velocity": 0.5039370078740157
        },
        {
          "duration": 0.15000000000000568,
          "durationTicks": 36,
          "midi": 55,
          "name": "G3",
          "ticks": 45300,
          "time": 188.75,
          "velocity": 0.6692913385826772
        },
        {
          "duration": 0.15000000000000568,
          "durationTicks": 36,
          "midi": 48,
          "name": "C3",
          "ticks": 45300,
          "time": 188.75,
          "velocity": 0.6692913385826772
        },
        {
          "duration": 0.15000000000000568,
          "durationTicks": 36,
          "midi": 55,
          "name": "G3",
          "ticks": 45360,
          "time": 189,
          "velocity": 0.6692913385826772
        },
        {
          "duration": 0.15000000000000568,
          "durationTicks": 36,
          "midi": 60,
          "name": "C4",
          "ticks": 45360,
          "time": 189,
          "velocity": 0.5039370078740157
        },
        {
          "duration": 0.15000000000000568,
          "durationTicks": 36,
          "midi": 48,
          "name": "C3",
          "ticks": 45360,
          "time": 189,
          "velocity": 0.6692913385826772
        },
        {
          "duration": 0.15000000000000568,
          "durationTicks": 36,
          "midi": 67,
          "name": "G4",
          "ticks": 45360,
          "time": 189,
          "velocity": 0.5039370078740157
        },
        {
          "duration": 0.15000000000000568,
          "durationTicks": 36,
          "midi": 67,
          "name": "G4",
          "ticks": 45420,
          "time": 189.25,
          "velocity": 0.5039370078740157
        },
        {
          "duration": 0.15000000000000568,
          "durationTicks": 36,
          "midi": 60,
          "name": "C4",
          "ticks": 45420,
          "time": 189.25,
          "velocity": 0.5039370078740157
        },
        {
          "duration": 0.15000000000000568,
          "durationTicks": 36,
          "midi": 55,
          "name": "G3",
          "ticks": 45420,
          "time": 189.25,
          "velocity": 0.6692913385826772
        },
        {
          "duration": 0.15000000000000568,
          "durationTicks": 36,
          "midi": 48,
          "name": "C3",
          "ticks": 45420,
          "time": 189.25,
          "velocity": 0.6692913385826772
        },
        {
          "duration": 0.15000000000000568,
          "durationTicks": 36,
          "midi": 55,
          "name": "G3",
          "ticks": 45480,
          "time": 189.5,
          "velocity": 0.6692913385826772
        },
        {
          "duration": 0.15000000000000568,
          "durationTicks": 36,
          "midi": 60,
          "name": "C4",
          "ticks": 45480,
          "time": 189.5,
          "velocity": 0.5039370078740157
        },
        {
          "duration": 0.15000000000000568,
          "durationTicks": 36,
          "midi": 67,
          "name": "G4",
          "ticks": 45480,
          "time": 189.5,
          "velocity": 0.5039370078740157
        },
        {
          "duration": 0.15000000000000568,
          "durationTicks": 36,
          "midi": 48,
          "name": "C3",
          "ticks": 45480,
          "time": 189.5,
          "velocity": 0.6692913385826772
        },
        {
          "duration": 0.15000000000000568,
          "durationTicks": 36,
          "midi": 67,
          "name": "G4",
          "ticks": 45540,
          "time": 189.75,
          "velocity": 0.5039370078740157
        },
        {
          "duration": 0.15000000000000568,
          "durationTicks": 36,
          "midi": 48,
          "name": "C3",
          "ticks": 45540,
          "time": 189.75,
          "velocity": 0.6692913385826772
        },
        {
          "duration": 0.15000000000000568,
          "durationTicks": 36,
          "midi": 60,
          "name": "C4",
          "ticks": 45540,
          "time": 189.75,
          "velocity": 0.5039370078740157
        },
        {
          "duration": 0.15000000000000568,
          "durationTicks": 36,
          "midi": 55,
          "name": "G3",
          "ticks": 45540,
          "time": 189.75,
          "velocity": 0.6692913385826772
        },
        {
          "duration": 0.15000000000000568,
          "durationTicks": 36,
          "midi": 62,
          "name": "D4",
          "ticks": 45600,
          "time": 190,
          "velocity": 0.5039370078740157
        },
        {
          "duration": 0.15000000000000568,
          "durationTicks": 36,
          "midi": 55,
          "name": "G3",
          "ticks": 45600,
          "time": 190,
          "velocity": 0.6692913385826772
        },
        {
          "duration": 0.15000000000000568,
          "durationTicks": 36,
          "midi": 67,
          "name": "G4",
          "ticks": 45600,
          "time": 190,
          "velocity": 0.5039370078740157
        },
        {
          "duration": 0.15000000000000568,
          "durationTicks": 36,
          "midi": 50,
          "name": "D3",
          "ticks": 45600,
          "time": 190,
          "velocity": 0.6692913385826772
        },
        {
          "duration": 0.15000000000000568,
          "durationTicks": 36,
          "midi": 50,
          "name": "D3",
          "ticks": 45660,
          "time": 190.25,
          "velocity": 0.6692913385826772
        },
        {
          "duration": 0.15000000000000568,
          "durationTicks": 36,
          "midi": 67,
          "name": "G4",
          "ticks": 45660,
          "time": 190.25,
          "velocity": 0.5039370078740157
        },
        {
          "duration": 0.15000000000000568,
          "durationTicks": 36,
          "midi": 62,
          "name": "D4",
          "ticks": 45660,
          "time": 190.25,
          "velocity": 0.5039370078740157
        },
        {
          "duration": 0.15000000000000568,
          "durationTicks": 36,
          "midi": 55,
          "name": "G3",
          "ticks": 45660,
          "time": 190.25,
          "velocity": 0.6692913385826772
        },
        {
          "duration": 0.15000000000000568,
          "durationTicks": 36,
          "midi": 55,
          "name": "G3",
          "ticks": 45720,
          "time": 190.5,
          "velocity": 0.6692913385826772
        },
        {
          "duration": 0.15000000000000568,
          "durationTicks": 36,
          "midi": 50,
          "name": "D3",
          "ticks": 45720,
          "time": 190.5,
          "velocity": 0.6692913385826772
        },
        {
          "duration": 0.15000000000000568,
          "durationTicks": 36,
          "midi": 62,
          "name": "D4",
          "ticks": 45720,
          "time": 190.5,
          "velocity": 0.5039370078740157
        },
        {
          "duration": 0.15000000000000568,
          "durationTicks": 36,
          "midi": 67,
          "name": "G4",
          "ticks": 45720,
          "time": 190.5,
          "velocity": 0.5039370078740157
        },
        {
          "duration": 0.15000000000000568,
          "durationTicks": 36,
          "midi": 62,
          "name": "D4",
          "ticks": 45780,
          "time": 190.75,
          "velocity": 0.5039370078740157
        },
        {
          "duration": 0.15000000000000568,
          "durationTicks": 36,
          "midi": 55,
          "name": "G3",
          "ticks": 45780,
          "time": 190.75,
          "velocity": 0.6692913385826772
        },
        {
          "duration": 0.15000000000000568,
          "durationTicks": 36,
          "midi": 50,
          "name": "D3",
          "ticks": 45780,
          "time": 190.75,
          "velocity": 0.6692913385826772
        },
        {
          "duration": 0.15000000000000568,
          "durationTicks": 36,
          "midi": 67,
          "name": "G4",
          "ticks": 45780,
          "time": 190.75,
          "velocity": 0.5039370078740157
        },
        {
          "duration": 0.15000000000000568,
          "durationTicks": 36,
          "midi": 62,
          "name": "D4",
          "ticks": 45840,
          "time": 191,
          "velocity": 0.5039370078740157
        },
        {
          "duration": 0.15000000000000568,
          "durationTicks": 36,
          "midi": 55,
          "name": "G3",
          "ticks": 45840,
          "time": 191,
          "velocity": 0.6692913385826772
        },
        {
          "duration": 0.15000000000000568,
          "durationTicks": 36,
          "midi": 50,
          "name": "D3",
          "ticks": 45840,
          "time": 191,
          "velocity": 0.6692913385826772
        },
        {
          "duration": 0.15000000000000568,
          "durationTicks": 36,
          "midi": 67,
          "name": "G4",
          "ticks": 45840,
          "time": 191,
          "velocity": 0.5039370078740157
        },
        {
          "duration": 0.15000000000000568,
          "durationTicks": 36,
          "midi": 62,
          "name": "D4",
          "ticks": 45900,
          "time": 191.25,
          "velocity": 0.5039370078740157
        },
        {
          "duration": 0.15000000000000568,
          "durationTicks": 36,
          "midi": 50,
          "name": "D3",
          "ticks": 45900,
          "time": 191.25,
          "velocity": 0.6692913385826772
        },
        {
          "duration": 0.15000000000000568,
          "durationTicks": 36,
          "midi": 67,
          "name": "G4",
          "ticks": 45900,
          "time": 191.25,
          "velocity": 0.5039370078740157
        },
        {
          "duration": 0.15000000000000568,
          "durationTicks": 36,
          "midi": 55,
          "name": "G3",
          "ticks": 45900,
          "time": 191.25,
          "velocity": 0.6692913385826772
        },
        {
          "duration": 0.15000000000000568,
          "durationTicks": 36,
          "midi": 55,
          "name": "G3",
          "ticks": 45960,
          "time": 191.5,
          "velocity": 0.6692913385826772
        },
        {
          "duration": 0.15000000000000568,
          "durationTicks": 36,
          "midi": 67,
          "name": "G4",
          "ticks": 45960,
          "time": 191.5,
          "velocity": 0.5039370078740157
        },
        {
          "duration": 0.15000000000000568,
          "durationTicks": 36,
          "midi": 50,
          "name": "D3",
          "ticks": 45960,
          "time": 191.5,
          "velocity": 0.6692913385826772
        },
        {
          "duration": 0.15000000000000568,
          "durationTicks": 36,
          "midi": 62,
          "name": "D4",
          "ticks": 45960,
          "time": 191.5,
          "velocity": 0.5039370078740157
        },
        {
          "duration": 0.15000000000000568,
          "durationTicks": 36,
          "midi": 55,
          "name": "G3",
          "ticks": 46020,
          "time": 191.75,
          "velocity": 0.6692913385826772
        },
        {
          "duration": 0.15000000000000568,
          "durationTicks": 36,
          "midi": 50,
          "name": "D3",
          "ticks": 46020,
          "time": 191.75,
          "velocity": 0.6692913385826772
        },
        {
          "duration": 0.15000000000000568,
          "durationTicks": 36,
          "midi": 62,
          "name": "D4",
          "ticks": 46020,
          "time": 191.75,
          "velocity": 0.5039370078740157
        },
        {
          "duration": 0.15000000000000568,
          "durationTicks": 36,
          "midi": 67,
          "name": "G4",
          "ticks": 46020,
          "time": 191.75,
          "velocity": 0.5039370078740157
        },
        {
          "duration": 0.15000000000000568,
          "durationTicks": 36,
          "midi": 70,
          "name": "A#4",
          "ticks": 46080,
          "time": 192,
          "velocity": 0.5039370078740157
        },
        {
          "duration": 0.15000000000000568,
          "durationTicks": 36,
          "midi": 65,
          "name": "F4",
          "ticks": 46080,
          "time": 192,
          "velocity": 0.5039370078740157
        },
        {
          "duration": 0.15000000000000568,
          "durationTicks": 36,
          "midi": 53,
          "name": "F3",
          "ticks": 46080,
          "time": 192,
          "velocity": 0.6692913385826772
        },
        {
          "duration": 0.15000000000000568,
          "durationTicks": 36,
          "midi": 58,
          "name": "A#3",
          "ticks": 46080,
          "time": 192,
          "velocity": 0.6692913385826772
        },
        {
          "duration": 0.15000000000000568,
          "durationTicks": 36,
          "midi": 65,
          "name": "F4",
          "ticks": 46140,
          "time": 192.25,
          "velocity": 0.5039370078740157
        },
        {
          "duration": 0.15000000000000568,
          "durationTicks": 36,
          "midi": 70,
          "name": "A#4",
          "ticks": 46140,
          "time": 192.25,
          "velocity": 0.5039370078740157
        },
        {
          "duration": 0.15000000000000568,
          "durationTicks": 36,
          "midi": 53,
          "name": "F3",
          "ticks": 46140,
          "time": 192.25,
          "velocity": 0.6692913385826772
        },
        {
          "duration": 0.15000000000000568,
          "durationTicks": 36,
          "midi": 58,
          "name": "A#3",
          "ticks": 46140,
          "time": 192.25,
          "velocity": 0.6692913385826772
        },
        {
          "duration": 0.15000000000000568,
          "durationTicks": 36,
          "midi": 58,
          "name": "A#3",
          "ticks": 46200,
          "time": 192.5,
          "velocity": 0.6692913385826772
        },
        {
          "duration": 0.15000000000000568,
          "durationTicks": 36,
          "midi": 70,
          "name": "A#4",
          "ticks": 46200,
          "time": 192.5,
          "velocity": 0.5039370078740157
        },
        {
          "duration": 0.15000000000000568,
          "durationTicks": 36,
          "midi": 65,
          "name": "F4",
          "ticks": 46200,
          "time": 192.5,
          "velocity": 0.5039370078740157
        },
        {
          "duration": 0.15000000000000568,
          "durationTicks": 36,
          "midi": 53,
          "name": "F3",
          "ticks": 46200,
          "time": 192.5,
          "velocity": 0.6692913385826772
        },
        {
          "duration": 0.15000000000000568,
          "durationTicks": 36,
          "midi": 65,
          "name": "F4",
          "ticks": 46260,
          "time": 192.75,
          "velocity": 0.5039370078740157
        },
        {
          "duration": 0.15000000000000568,
          "durationTicks": 36,
          "midi": 53,
          "name": "F3",
          "ticks": 46260,
          "time": 192.75,
          "velocity": 0.6692913385826772
        },
        {
          "duration": 0.15000000000000568,
          "durationTicks": 36,
          "midi": 70,
          "name": "A#4",
          "ticks": 46260,
          "time": 192.75,
          "velocity": 0.5039370078740157
        },
        {
          "duration": 0.15000000000000568,
          "durationTicks": 36,
          "midi": 58,
          "name": "A#3",
          "ticks": 46260,
          "time": 192.75,
          "velocity": 0.6692913385826772
        },
        {
          "duration": 0.15000000000000568,
          "durationTicks": 36,
          "midi": 53,
          "name": "F3",
          "ticks": 46320,
          "time": 193,
          "velocity": 0.6692913385826772
        },
        {
          "duration": 0.15000000000000568,
          "durationTicks": 36,
          "midi": 58,
          "name": "A#3",
          "ticks": 46320,
          "time": 193,
          "velocity": 0.6692913385826772
        },
        {
          "duration": 0.15000000000000568,
          "durationTicks": 36,
          "midi": 70,
          "name": "A#4",
          "ticks": 46320,
          "time": 193,
          "velocity": 0.5039370078740157
        },
        {
          "duration": 0.15000000000000568,
          "durationTicks": 36,
          "midi": 65,
          "name": "F4",
          "ticks": 46320,
          "time": 193,
          "velocity": 0.5039370078740157
        },
        {
          "duration": 0.15000000000000568,
          "durationTicks": 36,
          "midi": 65,
          "name": "F4",
          "ticks": 46380,
          "time": 193.25,
          "velocity": 0.5039370078740157
        },
        {
          "duration": 0.15000000000000568,
          "durationTicks": 36,
          "midi": 70,
          "name": "A#4",
          "ticks": 46380,
          "time": 193.25,
          "velocity": 0.5039370078740157
        },
        {
          "duration": 0.15000000000000568,
          "durationTicks": 36,
          "midi": 58,
          "name": "A#3",
          "ticks": 46380,
          "time": 193.25,
          "velocity": 0.6692913385826772
        },
        {
          "duration": 0.15000000000000568,
          "durationTicks": 36,
          "midi": 53,
          "name": "F3",
          "ticks": 46380,
          "time": 193.25,
          "velocity": 0.6692913385826772
        },
        {
          "duration": 0.15000000000000568,
          "durationTicks": 36,
          "midi": 53,
          "name": "F3",
          "ticks": 46440,
          "time": 193.5,
          "velocity": 0.6692913385826772
        },
        {
          "duration": 0.15000000000000568,
          "durationTicks": 36,
          "midi": 65,
          "name": "F4",
          "ticks": 46440,
          "time": 193.5,
          "velocity": 0.5039370078740157
        },
        {
          "duration": 0.15000000000000568,
          "durationTicks": 36,
          "midi": 58,
          "name": "A#3",
          "ticks": 46440,
          "time": 193.5,
          "velocity": 0.6692913385826772
        },
        {
          "duration": 0.15000000000000568,
          "durationTicks": 36,
          "midi": 70,
          "name": "A#4",
          "ticks": 46440,
          "time": 193.5,
          "velocity": 0.5039370078740157
        },
        {
          "duration": 0.15000000000000568,
          "durationTicks": 36,
          "midi": 53,
          "name": "F3",
          "ticks": 46500,
          "time": 193.75,
          "velocity": 0.6692913385826772
        },
        {
          "duration": 0.15000000000000568,
          "durationTicks": 36,
          "midi": 58,
          "name": "A#3",
          "ticks": 46500,
          "time": 193.75,
          "velocity": 0.6692913385826772
        },
        {
          "duration": 0.15000000000000568,
          "durationTicks": 36,
          "midi": 65,
          "name": "F4",
          "ticks": 46500,
          "time": 193.75,
          "velocity": 0.5039370078740157
        },
        {
          "duration": 0.15000000000000568,
          "durationTicks": 36,
          "midi": 70,
          "name": "A#4",
          "ticks": 46500,
          "time": 193.75,
          "velocity": 0.5039370078740157
        },
        {
          "duration": 0.15000000000000568,
          "durationTicks": 36,
          "midi": 48,
          "name": "C3",
          "ticks": 46560,
          "time": 194,
          "velocity": 0.6692913385826772
        },
        {
          "duration": 0.15000000000000568,
          "durationTicks": 36,
          "midi": 65,
          "name": "F4",
          "ticks": 46560,
          "time": 194,
          "velocity": 0.5039370078740157
        },
        {
          "duration": 0.15000000000000568,
          "durationTicks": 36,
          "midi": 53,
          "name": "F3",
          "ticks": 46560,
          "time": 194,
          "velocity": 0.6692913385826772
        },
        {
          "duration": 0.15000000000000568,
          "durationTicks": 36,
          "midi": 60,
          "name": "C4",
          "ticks": 46560,
          "time": 194,
          "velocity": 0.5039370078740157
        },
        {
          "duration": 0.15000000000000568,
          "durationTicks": 36,
          "midi": 48,
          "name": "C3",
          "ticks": 46620,
          "time": 194.25,
          "velocity": 0.6692913385826772
        },
        {
          "duration": 0.15000000000000568,
          "durationTicks": 36,
          "midi": 53,
          "name": "F3",
          "ticks": 46620,
          "time": 194.25,
          "velocity": 0.6692913385826772
        },
        {
          "duration": 0.15000000000000568,
          "durationTicks": 36,
          "midi": 65,
          "name": "F4",
          "ticks": 46620,
          "time": 194.25,
          "velocity": 0.5039370078740157
        },
        {
          "duration": 0.15000000000000568,
          "durationTicks": 36,
          "midi": 60,
          "name": "C4",
          "ticks": 46620,
          "time": 194.25,
          "velocity": 0.5039370078740157
        },
        {
          "duration": 0.15000000000000568,
          "durationTicks": 36,
          "midi": 48,
          "name": "C3",
          "ticks": 46680,
          "time": 194.5,
          "velocity": 0.6692913385826772
        },
        {
          "duration": 0.15000000000000568,
          "durationTicks": 36,
          "midi": 53,
          "name": "F3",
          "ticks": 46680,
          "time": 194.5,
          "velocity": 0.6692913385826772
        },
        {
          "duration": 0.15000000000000568,
          "durationTicks": 36,
          "midi": 65,
          "name": "F4",
          "ticks": 46680,
          "time": 194.5,
          "velocity": 0.5039370078740157
        },
        {
          "duration": 0.15000000000000568,
          "durationTicks": 36,
          "midi": 60,
          "name": "C4",
          "ticks": 46680,
          "time": 194.5,
          "velocity": 0.5039370078740157
        },
        {
          "duration": 0.15000000000000568,
          "durationTicks": 36,
          "midi": 53,
          "name": "F3",
          "ticks": 46740,
          "time": 194.75,
          "velocity": 0.6692913385826772
        },
        {
          "duration": 0.15000000000000568,
          "durationTicks": 36,
          "midi": 60,
          "name": "C4",
          "ticks": 46740,
          "time": 194.75,
          "velocity": 0.5039370078740157
        },
        {
          "duration": 0.15000000000000568,
          "durationTicks": 36,
          "midi": 65,
          "name": "F4",
          "ticks": 46740,
          "time": 194.75,
          "velocity": 0.5039370078740157
        },
        {
          "duration": 0.15000000000000568,
          "durationTicks": 36,
          "midi": 48,
          "name": "C3",
          "ticks": 46740,
          "time": 194.75,
          "velocity": 0.6692913385826772
        },
        {
          "duration": 0.15000000000000568,
          "durationTicks": 36,
          "midi": 48,
          "name": "C3",
          "ticks": 46800,
          "time": 195,
          "velocity": 0.6692913385826772
        },
        {
          "duration": 0.15000000000000568,
          "durationTicks": 36,
          "midi": 53,
          "name": "F3",
          "ticks": 46800,
          "time": 195,
          "velocity": 0.6692913385826772
        },
        {
          "duration": 0.15000000000000568,
          "durationTicks": 36,
          "midi": 60,
          "name": "C4",
          "ticks": 46800,
          "time": 195,
          "velocity": 0.5039370078740157
        },
        {
          "duration": 0.15000000000000568,
          "durationTicks": 36,
          "midi": 65,
          "name": "F4",
          "ticks": 46800,
          "time": 195,
          "velocity": 0.5039370078740157
        },
        {
          "duration": 0.15000000000000568,
          "durationTicks": 36,
          "midi": 60,
          "name": "C4",
          "ticks": 46860,
          "time": 195.25,
          "velocity": 0.5039370078740157
        },
        {
          "duration": 0.15000000000000568,
          "durationTicks": 36,
          "midi": 53,
          "name": "F3",
          "ticks": 46860,
          "time": 195.25,
          "velocity": 0.6692913385826772
        },
        {
          "duration": 0.15000000000000568,
          "durationTicks": 36,
          "midi": 48,
          "name": "C3",
          "ticks": 46860,
          "time": 195.25,
          "velocity": 0.6692913385826772
        },
        {
          "duration": 0.15000000000000568,
          "durationTicks": 36,
          "midi": 65,
          "name": "F4",
          "ticks": 46860,
          "time": 195.25,
          "velocity": 0.5039370078740157
        },
        {
          "duration": 0.15000000000000568,
          "durationTicks": 36,
          "midi": 48,
          "name": "C3",
          "ticks": 46920,
          "time": 195.5,
          "velocity": 0.6692913385826772
        },
        {
          "duration": 0.15000000000000568,
          "durationTicks": 36,
          "midi": 65,
          "name": "F4",
          "ticks": 46920,
          "time": 195.5,
          "velocity": 0.5039370078740157
        },
        {
          "duration": 0.15000000000000568,
          "durationTicks": 36,
          "midi": 60,
          "name": "C4",
          "ticks": 46920,
          "time": 195.5,
          "velocity": 0.5039370078740157
        },
        {
          "duration": 0.15000000000000568,
          "durationTicks": 36,
          "midi": 53,
          "name": "F3",
          "ticks": 46920,
          "time": 195.5,
          "velocity": 0.6692913385826772
        },
        {
          "duration": 0.15000000000000568,
          "durationTicks": 36,
          "midi": 65,
          "name": "F4",
          "ticks": 46980,
          "time": 195.75,
          "velocity": 0.5039370078740157
        },
        {
          "duration": 0.15000000000000568,
          "durationTicks": 36,
          "midi": 48,
          "name": "C3",
          "ticks": 46980,
          "time": 195.75,
          "velocity": 0.6692913385826772
        },
        {
          "duration": 0.15000000000000568,
          "durationTicks": 36,
          "midi": 53,
          "name": "F3",
          "ticks": 46980,
          "time": 195.75,
          "velocity": 0.6692913385826772
        },
        {
          "duration": 0.15000000000000568,
          "durationTicks": 36,
          "midi": 60,
          "name": "C4",
          "ticks": 46980,
          "time": 195.75,
          "velocity": 0.5039370078740157
        },
        {
          "duration": 0.15000000000000568,
          "durationTicks": 36,
          "midi": 67,
          "name": "G4",
          "ticks": 47040,
          "time": 196,
          "velocity": 0.5039370078740157
        },
        {
          "duration": 0.15000000000000568,
          "durationTicks": 36,
          "midi": 48,
          "name": "C3",
          "ticks": 47040,
          "time": 196,
          "velocity": 0.6692913385826772
        },
        {
          "duration": 0.15000000000000568,
          "durationTicks": 36,
          "midi": 60,
          "name": "C4",
          "ticks": 47040,
          "time": 196,
          "velocity": 0.5039370078740157
        },
        {
          "duration": 0.15000000000000568,
          "durationTicks": 36,
          "midi": 55,
          "name": "G3",
          "ticks": 47040,
          "time": 196,
          "velocity": 0.6692913385826772
        },
        {
          "duration": 0.15000000000000568,
          "durationTicks": 36,
          "midi": 67,
          "name": "G4",
          "ticks": 47100,
          "time": 196.25,
          "velocity": 0.5039370078740157
        },
        {
          "duration": 0.15000000000000568,
          "durationTicks": 36,
          "midi": 55,
          "name": "G3",
          "ticks": 47100,
          "time": 196.25,
          "velocity": 0.6692913385826772
        },
        {
          "duration": 0.15000000000000568,
          "durationTicks": 36,
          "midi": 48,
          "name": "C3",
          "ticks": 47100,
          "time": 196.25,
          "velocity": 0.6692913385826772
        },
        {
          "duration": 0.15000000000000568,
          "durationTicks": 36,
          "midi": 60,
          "name": "C4",
          "ticks": 47100,
          "time": 196.25,
          "velocity": 0.5039370078740157
        },
        {
          "duration": 0.15000000000000568,
          "durationTicks": 36,
          "midi": 60,
          "name": "C4",
          "ticks": 47160,
          "time": 196.5,
          "velocity": 0.5039370078740157
        },
        {
          "duration": 0.15000000000000568,
          "durationTicks": 36,
          "midi": 67,
          "name": "G4",
          "ticks": 47160,
          "time": 196.5,
          "velocity": 0.5039370078740157
        },
        {
          "duration": 0.15000000000000568,
          "durationTicks": 36,
          "midi": 55,
          "name": "G3",
          "ticks": 47160,
          "time": 196.5,
          "velocity": 0.6692913385826772
        },
        {
          "duration": 0.15000000000000568,
          "durationTicks": 36,
          "midi": 48,
          "name": "C3",
          "ticks": 47160,
          "time": 196.5,
          "velocity": 0.6692913385826772
        },
        {
          "duration": 0.15000000000000568,
          "durationTicks": 36,
          "midi": 67,
          "name": "G4",
          "ticks": 47220,
          "time": 196.75,
          "velocity": 0.5039370078740157
        },
        {
          "duration": 0.15000000000000568,
          "durationTicks": 36,
          "midi": 48,
          "name": "C3",
          "ticks": 47220,
          "time": 196.75,
          "velocity": 0.6692913385826772
        },
        {
          "duration": 0.15000000000000568,
          "durationTicks": 36,
          "midi": 55,
          "name": "G3",
          "ticks": 47220,
          "time": 196.75,
          "velocity": 0.6692913385826772
        },
        {
          "duration": 0.15000000000000568,
          "durationTicks": 36,
          "midi": 60,
          "name": "C4",
          "ticks": 47220,
          "time": 196.75,
          "velocity": 0.5039370078740157
        },
        {
          "duration": 0.15000000000000568,
          "durationTicks": 36,
          "midi": 55,
          "name": "G3",
          "ticks": 47280,
          "time": 197,
          "velocity": 0.6692913385826772
        },
        {
          "duration": 0.15000000000000568,
          "durationTicks": 36,
          "midi": 48,
          "name": "C3",
          "ticks": 47280,
          "time": 197,
          "velocity": 0.6692913385826772
        },
        {
          "duration": 0.15000000000000568,
          "durationTicks": 36,
          "midi": 60,
          "name": "C4",
          "ticks": 47280,
          "time": 197,
          "velocity": 0.5039370078740157
        },
        {
          "duration": 0.15000000000000568,
          "durationTicks": 36,
          "midi": 67,
          "name": "G4",
          "ticks": 47280,
          "time": 197,
          "velocity": 0.5039370078740157
        },
        {
          "duration": 0.15000000000000568,
          "durationTicks": 36,
          "midi": 55,
          "name": "G3",
          "ticks": 47340,
          "time": 197.25,
          "velocity": 0.6692913385826772
        },
        {
          "duration": 0.15000000000000568,
          "durationTicks": 36,
          "midi": 48,
          "name": "C3",
          "ticks": 47340,
          "time": 197.25,
          "velocity": 0.6692913385826772
        },
        {
          "duration": 0.15000000000000568,
          "durationTicks": 36,
          "midi": 67,
          "name": "G4",
          "ticks": 47340,
          "time": 197.25,
          "velocity": 0.5039370078740157
        },
        {
          "duration": 0.15000000000000568,
          "durationTicks": 36,
          "midi": 60,
          "name": "C4",
          "ticks": 47340,
          "time": 197.25,
          "velocity": 0.5039370078740157
        },
        {
          "duration": 0.15000000000000568,
          "durationTicks": 36,
          "midi": 55,
          "name": "G3",
          "ticks": 47400,
          "time": 197.5,
          "velocity": 0.6692913385826772
        },
        {
          "duration": 0.15000000000000568,
          "durationTicks": 36,
          "midi": 48,
          "name": "C3",
          "ticks": 47400,
          "time": 197.5,
          "velocity": 0.6692913385826772
        },
        {
          "duration": 0.15000000000000568,
          "durationTicks": 36,
          "midi": 60,
          "name": "C4",
          "ticks": 47400,
          "time": 197.5,
          "velocity": 0.5039370078740157
        },
        {
          "duration": 0.15000000000000568,
          "durationTicks": 36,
          "midi": 67,
          "name": "G4",
          "ticks": 47400,
          "time": 197.5,
          "velocity": 0.5039370078740157
        },
        {
          "duration": 0.15000000000000568,
          "durationTicks": 36,
          "midi": 67,
          "name": "G4",
          "ticks": 47460,
          "time": 197.75,
          "velocity": 0.5039370078740157
        },
        {
          "duration": 0.15000000000000568,
          "durationTicks": 36,
          "midi": 55,
          "name": "G3",
          "ticks": 47460,
          "time": 197.75,
          "velocity": 0.6692913385826772
        },
        {
          "duration": 0.15000000000000568,
          "durationTicks": 36,
          "midi": 60,
          "name": "C4",
          "ticks": 47460,
          "time": 197.75,
          "velocity": 0.5039370078740157
        },
        {
          "duration": 0.15000000000000568,
          "durationTicks": 36,
          "midi": 48,
          "name": "C3",
          "ticks": 47460,
          "time": 197.75,
          "velocity": 0.6692913385826772
        },
        {
          "duration": 7.949999999999989,
          "durationTicks": 1908,
          "midi": 50,
          "name": "D3",
          "ticks": 47520,
          "time": 198,
          "velocity": 0.6692913385826772
        },
        {
          "duration": 7.933333333333337,
          "durationTicks": 1904,
          "midi": 43,
          "name": "G2",
          "ticks": 47520,
          "time": 198,
          "velocity": 0.6692913385826772
        },
        {
          "duration": 7.98333333333332,
          "durationTicks": 1916,
          "midi": 55,
          "name": "G3",
          "ticks": 47520,
          "time": 198,
          "velocity": 0.6692913385826772
        }
      ]
    },
    {
      "channel": 0,
      "controlChanges": {
        "0": [
          {
            "number": 0,
            "ticks": 0,
            "time": 0,
            "value": 0
          }
        ]
      },
      "pitchBends": [],
      "instrument": {
        "family": "piano",
        "number": 0,
        "name": "acoustic grand piano"
      },
      "name": "6",
      "notes": [],
      "endOfTrackTicks": 49912
    },
    {
      "channel": 5,
      "controlChanges": {
        "7": [
          {
            "number": 7,
            "ticks": 0,
            "time": 0,
            "value": 0.7795275590551181
          },
          {
            "number": 7,
            "ticks": 784,
            "time": 3.2666666666666666,
            "value": 0
          },
          {
            "number": 7,
            "ticks": 832,
            "time": 3.466666666666667,
            "value": 0.007874015748031496
          },
          {
            "number": 7,
            "ticks": 848,
            "time": 3.533333333333333,
            "value": 0.023622047244094488
          },
          {
            "number": 7,
            "ticks": 880,
            "time": 3.6666666666666665,
            "value": 0.047244094488188976
          },
          {
            "number": 7,
            "ticks": 904,
            "time": 3.7666666666666666,
            "value": 0.05511811023622047
          },
          {
            "number": 7,
            "ticks": 936,
            "time": 3.9,
            "value": 0.07086614173228346
          },
          {
            "number": 7,
            "ticks": 944,
            "time": 3.933333333333333,
            "value": 0.07874015748031496
          },
          {
            "number": 7,
            "ticks": 960,
            "time": 4,
            "value": 0.09448818897637795
          },
          {
            "number": 7,
            "ticks": 984,
            "time": 4.1,
            "value": 0.10236220472440945
          },
          {
            "number": 7,
            "ticks": 992,
            "time": 4.133333333333334,
            "value": 0.11023622047244094
          },
          {
            "number": 7,
            "ticks": 1016,
            "time": 4.233333333333333,
            "value": 0.12598425196850394
          },
          {
            "number": 7,
            "ticks": 1024,
            "time": 4.266666666666667,
            "value": 0.13385826771653545
          },
          {
            "number": 7,
            "ticks": 1032,
            "time": 4.3,
            "value": 0.14960629921259844
          },
          {
            "number": 7,
            "ticks": 1040,
            "time": 4.333333333333333,
            "value": 0.15748031496062992
          },
          {
            "number": 7,
            "ticks": 1080,
            "time": 4.5,
            "value": 0.1732283464566929
          },
          {
            "number": 7,
            "ticks": 1104,
            "time": 4.6,
            "value": 0.18110236220472442
          },
          {
            "number": 7,
            "ticks": 1112,
            "time": 4.633333333333334,
            "value": 0.2047244094488189
          },
          {
            "number": 7,
            "ticks": 1144,
            "time": 4.766666666666667,
            "value": 0.2125984251968504
          },
          {
            "number": 7,
            "ticks": 1152,
            "time": 4.8,
            "value": 0.2283464566929134
          },
          {
            "number": 7,
            "ticks": 1160,
            "time": 4.833333333333333,
            "value": 0.23622047244094488
          },
          {
            "number": 7,
            "ticks": 1176,
            "time": 4.9,
            "value": 0.25196850393700787
          },
          {
            "number": 7,
            "ticks": 1184,
            "time": 4.933333333333334,
            "value": 0.25984251968503935
          },
          {
            "number": 7,
            "ticks": 1192,
            "time": 4.966666666666667,
            "value": 0.2755905511811024
          },
          {
            "number": 7,
            "ticks": 1200,
            "time": 5,
            "value": 0.28346456692913385
          },
          {
            "number": 7,
            "ticks": 1216,
            "time": 5.066666666666666,
            "value": 0.2992125984251969
          },
          {
            "number": 7,
            "ticks": 1232,
            "time": 5.133333333333334,
            "value": 0.30708661417322836
          },
          {
            "number": 7,
            "ticks": 1248,
            "time": 5.2,
            "value": 0.31496062992125984
          },
          {
            "number": 7,
            "ticks": 1256,
            "time": 5.233333333333333,
            "value": 0.33070866141732286
          },
          {
            "number": 7,
            "ticks": 1264,
            "time": 5.266666666666667,
            "value": 0.33858267716535434
          },
          {
            "number": 7,
            "ticks": 1280,
            "time": 5.333333333333333,
            "value": 0.3543307086614173
          },
          {
            "number": 7,
            "ticks": 1296,
            "time": 5.4,
            "value": 0.36220472440944884
          },
          {
            "number": 7,
            "ticks": 1304,
            "time": 5.433333333333334,
            "value": 0.3779527559055118
          },
          {
            "number": 7,
            "ticks": 1328,
            "time": 5.533333333333333,
            "value": 0.3858267716535433
          },
          {
            "number": 7,
            "ticks": 1336,
            "time": 5.566666666666666,
            "value": 0.4015748031496063
          },
          {
            "number": 7,
            "ticks": 1352,
            "time": 5.633333333333334,
            "value": 0.4094488188976378
          },
          {
            "number": 7,
            "ticks": 1360,
            "time": 5.666666666666667,
            "value": 0.41732283464566927
          },
          {
            "number": 7,
            "ticks": 1368,
            "time": 5.7,
            "value": 0.4330708661417323
          },
          {
            "number": 7,
            "ticks": 1376,
            "time": 5.733333333333333,
            "value": 0.4566929133858268
          },
          {
            "number": 7,
            "ticks": 1392,
            "time": 5.8,
            "value": 0.4645669291338583
          },
          {
            "number": 7,
            "ticks": 1408,
            "time": 5.866666666666666,
            "value": 0.4881889763779528
          },
          {
            "number": 7,
            "ticks": 1424,
            "time": 5.933333333333334,
            "value": 0.5039370078740157
          },
          {
            "number": 7,
            "ticks": 1432,
            "time": 5.966666666666667,
            "value": 0.5118110236220472
          },
          {
            "number": 7,
            "ticks": 1440,
            "time": 6,
            "value": 0.5196850393700787
          },
          {
            "number": 7,
            "ticks": 1448,
            "time": 6.033333333333333,
            "value": 0.5354330708661418
          },
          {
            "number": 7,
            "ticks": 1464,
            "time": 6.1,
            "value": 0.5433070866141733
          },
          {
            "number": 7,
            "ticks": 1472,
            "time": 6.133333333333334,
            "value": 0.5590551181102362
          },
          {
            "number": 7,
            "ticks": 1480,
            "time": 6.166666666666667,
            "value": 0.5669291338582677
          },
          {
            "number": 7,
            "ticks": 1488,
            "time": 6.2,
            "value": 0.5826771653543307
          },
          {
            "number": 7,
            "ticks": 1496,
            "time": 6.233333333333333,
            "value": 0.5905511811023622
          },
          {
            "number": 7,
            "ticks": 1504,
            "time": 6.266666666666667,
            "value": 0.5984251968503937
          },
          {
            "number": 7,
            "ticks": 1512,
            "time": 6.3,
            "value": 0.6220472440944882
          },
          {
            "number": 7,
            "ticks": 1520,
            "time": 6.333333333333333,
            "value": 0.6377952755905512
          },
          {
            "number": 7,
            "ticks": 1536,
            "time": 6.4,
            "value": 0.6456692913385826
          },
          {
            "number": 7,
            "ticks": 1544,
            "time": 6.433333333333334,
            "value": 0.6614173228346457
          },
          {
            "number": 7,
            "ticks": 1552,
            "time": 6.466666666666667,
            "value": 0.6692913385826772
          },
          {
            "number": 7,
            "ticks": 1560,
            "time": 6.5,
            "value": 0.6850393700787402
          },
          {
            "number": 7,
            "ticks": 1576,
            "time": 6.566666666666666,
            "value": 0.6929133858267716
          },
          {
            "number": 7,
            "ticks": 1584,
            "time": 6.6,
            "value": 0.7007874015748031
          },
          {
            "number": 7,
            "ticks": 1592,
            "time": 6.633333333333334,
            "value": 0.7165354330708661
          },
          {
            "number": 7,
            "ticks": 1600,
            "time": 6.666666666666667,
            "value": 0.7244094488188977
          },
          {
            "number": 7,
            "ticks": 1616,
            "time": 6.733333333333333,
            "value": 0.7401574803149606
          },
          {
            "number": 7,
            "ticks": 1624,
            "time": 6.766666666666667,
            "value": 0.7480314960629921
          },
          {
            "number": 7,
            "ticks": 1640,
            "time": 6.833333333333333,
            "value": 0.7637795275590551
          },
          {
            "number": 7,
            "ticks": 1648,
            "time": 6.866666666666666,
            "value": 0.7716535433070866
          },
          {
            "number": 7,
            "ticks": 1672,
            "time": 6.966666666666667,
            "value": 0.7874015748031497
          },
          {
            "number": 7,
            "ticks": 1696,
            "time": 7.066666666666666,
            "value": 0.8031496062992126
          },
          {
            "number": 7,
            "ticks": 1712,
            "time": 7.133333333333334,
            "value": 0.8267716535433071
          },
          {
            "number": 7,
            "ticks": 1728,
            "time": 7.2,
            "value": 0.84251968503937
          },
          {
            "number": 7,
            "ticks": 1736,
            "time": 7.233333333333333,
            "value": 0.8503937007874016
          },
          {
            "number": 7,
            "ticks": 1744,
            "time": 7.266666666666667,
            "value": 0.8661417322834646
          },
          {
            "number": 7,
            "ticks": 1912,
            "time": 7.966666666666667,
            "value": 0.8740157480314961
          },
          {
            "number": 7,
            "ticks": 1920,
            "time": 8,
            "value": 0.7637795275590551
          },
          {
            "number": 7,
            "ticks": 10648,
            "time": 44.36666666666667,
            "value": 0.7480314960629921
          },
          {
            "number": 7,
            "ticks": 10672,
            "time": 44.46666666666667,
            "value": 0.7401574803149606
          },
          {
            "number": 7,
            "ticks": 10688,
            "time": 44.53333333333333,
            "value": 0.7244094488188977
          },
          {
            "number": 7,
            "ticks": 10712,
            "time": 44.63333333333333,
            "value": 0.7165354330708661
          },
          {
            "number": 7,
            "ticks": 10736,
            "time": 44.733333333333334,
            "value": 0.7007874015748031
          },
          {
            "number": 7,
            "ticks": 10744,
            "time": 44.766666666666666,
            "value": 0.6929133858267716
          },
          {
            "number": 7,
            "ticks": 10760,
            "time": 44.833333333333336,
            "value": 0.6850393700787402
          },
          {
            "number": 7,
            "ticks": 10784,
            "time": 44.93333333333333,
            "value": 0.6692913385826772
          },
          {
            "number": 7,
            "ticks": 10800,
            "time": 45,
            "value": 0.6614173228346457
          },
          {
            "number": 7,
            "ticks": 10816,
            "time": 45.06666666666667,
            "value": 0.6456692913385826
          },
          {
            "number": 7,
            "ticks": 10824,
            "time": 45.1,
            "value": 0.6377952755905512
          },
          {
            "number": 7,
            "ticks": 10840,
            "time": 45.166666666666664,
            "value": 0.6220472440944882
          },
          {
            "number": 7,
            "ticks": 10864,
            "time": 45.266666666666666,
            "value": 0.6141732283464567
          },
          {
            "number": 7,
            "ticks": 10888,
            "time": 45.36666666666667,
            "value": 0.5984251968503937
          },
          {
            "number": 7,
            "ticks": 10904,
            "time": 45.43333333333333,
            "value": 0.5905511811023622
          },
          {
            "number": 7,
            "ticks": 10928,
            "time": 45.53333333333333,
            "value": 0.5826771653543307
          },
          {
            "number": 7,
            "ticks": 10944,
            "time": 45.6,
            "value": 0.5669291338582677
          },
          {
            "number": 7,
            "ticks": 10976,
            "time": 45.733333333333334,
            "value": 0.5590551181102362
          },
          {
            "number": 7,
            "ticks": 10992,
            "time": 45.8,
            "value": 0.5433070866141733
          },
          {
            "number": 7,
            "ticks": 11008,
            "time": 45.86666666666667,
            "value": 0.5354330708661418
          },
          {
            "number": 7,
            "ticks": 11040,
            "time": 46,
            "value": 0.5196850393700787
          },
          {
            "number": 7,
            "ticks": 11048,
            "time": 46.03333333333333,
            "value": 0.5118110236220472
          },
          {
            "number": 7,
            "ticks": 11064,
            "time": 46.1,
            "value": 0.5039370078740157
          },
          {
            "number": 7,
            "ticks": 11080,
            "time": 46.166666666666664,
            "value": 0.4881889763779528
          },
          {
            "number": 7,
            "ticks": 11088,
            "time": 46.2,
            "value": 0.48031496062992124
          },
          {
            "number": 7,
            "ticks": 11104,
            "time": 46.266666666666666,
            "value": 0.4645669291338583
          },
          {
            "number": 7,
            "ticks": 11120,
            "time": 46.333333333333336,
            "value": 0.4566929133858268
          },
          {
            "number": 7,
            "ticks": 11128,
            "time": 46.36666666666667,
            "value": 0.4409448818897638
          },
          {
            "number": 7,
            "ticks": 11144,
            "time": 46.43333333333333,
            "value": 0.4330708661417323
          },
          {
            "number": 7,
            "ticks": 11152,
            "time": 46.46666666666667,
            "value": 0.41732283464566927
          },
          {
            "number": 7,
            "ticks": 11176,
            "time": 46.56666666666667,
            "value": 0.4094488188976378
          },
          {
            "number": 7,
            "ticks": 11192,
            "time": 46.63333333333333,
            "value": 0.3858267716535433
          },
          {
            "number": 7,
            "ticks": 11208,
            "time": 46.7,
            "value": 0.3779527559055118
          },
          {
            "number": 7,
            "ticks": 11224,
            "time": 46.766666666666666,
            "value": 0.36220472440944884
          },
          {
            "number": 7,
            "ticks": 11232,
            "time": 46.8,
            "value": 0.3543307086614173
          },
          {
            "number": 7,
            "ticks": 11256,
            "time": 46.9,
            "value": 0.33858267716535434
          },
          {
            "number": 7,
            "ticks": 11280,
            "time": 47,
            "value": 0.31496062992125984
          },
          {
            "number": 7,
            "ticks": 11288,
            "time": 47.03333333333333,
            "value": 0.30708661417322836
          },
          {
            "number": 7,
            "ticks": 11304,
            "time": 47.1,
            "value": 0.2992125984251969
          },
          {
            "number": 7,
            "ticks": 11320,
            "time": 47.166666666666664,
            "value": 0.28346456692913385
          },
          {
            "number": 7,
            "ticks": 11336,
            "time": 47.233333333333334,
            "value": 0.2755905511811024
          },
          {
            "number": 7,
            "ticks": 11344,
            "time": 47.266666666666666,
            "value": 0.25984251968503935
          },
          {
            "number": 7,
            "ticks": 11360,
            "time": 47.333333333333336,
            "value": 0.25196850393700787
          },
          {
            "number": 7,
            "ticks": 11376,
            "time": 47.4,
            "value": 0.23622047244094488
          },
          {
            "number": 7,
            "ticks": 11392,
            "time": 47.46666666666667,
            "value": 0.2283464566929134
          },
          {
            "number": 7,
            "ticks": 11400,
            "time": 47.5,
            "value": 0.2125984251968504
          },
          {
            "number": 7,
            "ticks": 11416,
            "time": 47.56666666666667,
            "value": 0.1968503937007874
          },
          {
            "number": 7,
            "ticks": 11432,
            "time": 47.63333333333333,
            "value": 0.18110236220472442
          },
          {
            "number": 7,
            "ticks": 11440,
            "time": 47.666666666666664,
            "value": 0.1732283464566929
          },
          {
            "number": 7,
            "ticks": 11464,
            "time": 47.766666666666666,
            "value": 0.15748031496062992
          },
          {
            "number": 7,
            "ticks": 11480,
            "time": 47.833333333333336,
            "value": 0.14960629921259844
          },
          {
            "number": 7,
            "ticks": 11488,
            "time": 47.86666666666667,
            "value": 0.13385826771653545
          },
          {
            "number": 7,
            "ticks": 11496,
            "time": 47.9,
            "value": 0.12598425196850394
          },
          {
            "number": 7,
            "ticks": 11512,
            "time": 47.96666666666667,
            "value": 0.11023622047244094
          },
          {
            "number": 7,
            "ticks": 11520,
            "time": 48,
            "value": 0.7637795275590551
          },
          {
            "number": 7,
            "ticks": 16544,
            "time": 68.93333333333334,
            "value": 0.15748031496062992
          },
          {
            "number": 7,
            "ticks": 16584,
            "time": 69.1,
            "value": 0.1732283464566929
          },
          {
            "number": 7,
            "ticks": 16600,
            "time": 69.16666666666667,
            "value": 0.18110236220472442
          },
          {
            "number": 7,
            "ticks": 16608,
            "time": 69.2,
            "value": 0.1968503937007874
          },
          {
            "number": 7,
            "ticks": 16624,
            "time": 69.26666666666667,
            "value": 0.2047244094488189
          },
          {
            "number": 7,
            "ticks": 16632,
            "time": 69.3,
            "value": 0.2125984251968504
          },
          {
            "number": 7,
            "ticks": 16648,
            "time": 69.36666666666666,
            "value": 0.2283464566929134
          },
          {
            "number": 7,
            "ticks": 16664,
            "time": 69.43333333333334,
            "value": 0.23622047244094488
          },
          {
            "number": 7,
            "ticks": 16672,
            "time": 69.46666666666667,
            "value": 0.25196850393700787
          },
          {
            "number": 7,
            "ticks": 16688,
            "time": 69.53333333333333,
            "value": 0.25984251968503935
          },
          {
            "number": 7,
            "ticks": 16704,
            "time": 69.6,
            "value": 0.2755905511811024
          },
          {
            "number": 7,
            "ticks": 16712,
            "time": 69.63333333333334,
            "value": 0.2992125984251969
          },
          {
            "number": 7,
            "ticks": 16720,
            "time": 69.66666666666667,
            "value": 0.30708661417322836
          },
          {
            "number": 7,
            "ticks": 16736,
            "time": 69.73333333333333,
            "value": 0.31496062992125984
          },
          {
            "number": 7,
            "ticks": 16744,
            "time": 69.76666666666667,
            "value": 0.33070866141732286
          },
          {
            "number": 7,
            "ticks": 16760,
            "time": 69.83333333333333,
            "value": 0.33858267716535434
          },
          {
            "number": 7,
            "ticks": 16776,
            "time": 69.9,
            "value": 0.3543307086614173
          },
          {
            "number": 7,
            "ticks": 16784,
            "time": 69.93333333333334,
            "value": 0.36220472440944884
          },
          {
            "number": 7,
            "ticks": 16800,
            "time": 70,
            "value": 0.3779527559055118
          },
          {
            "number": 7,
            "ticks": 16816,
            "time": 70.06666666666666,
            "value": 0.3858267716535433
          },
          {
            "number": 7,
            "ticks": 16824,
            "time": 70.1,
            "value": 0.4094488188976378
          },
          {
            "number": 7,
            "ticks": 16848,
            "time": 70.2,
            "value": 0.41732283464566927
          },
          {
            "number": 7,
            "ticks": 16856,
            "time": 70.23333333333333,
            "value": 0.4330708661417323
          },
          {
            "number": 7,
            "ticks": 16864,
            "time": 70.26666666666667,
            "value": 0.4409448818897638
          },
          {
            "number": 7,
            "ticks": 16872,
            "time": 70.3,
            "value": 0.4566929133858268
          },
          {
            "number": 7,
            "ticks": 16896,
            "time": 70.4,
            "value": 0.4645669291338583
          },
          {
            "number": 7,
            "ticks": 16904,
            "time": 70.43333333333334,
            "value": 0.48031496062992124
          },
          {
            "number": 7,
            "ticks": 16920,
            "time": 70.5,
            "value": 0.4881889763779528
          },
          {
            "number": 7,
            "ticks": 16936,
            "time": 70.56666666666666,
            "value": 0.5039370078740157
          },
          {
            "number": 7,
            "ticks": 16952,
            "time": 70.63333333333334,
            "value": 0.5118110236220472
          },
          {
            "number": 7,
            "ticks": 16960,
            "time": 70.66666666666667,
            "value": 0.5196850393700787
          },
          {
            "number": 7,
            "ticks": 16976,
            "time": 70.73333333333333,
            "value": 0.5354330708661418
          },
          {
            "number": 7,
            "ticks": 17008,
            "time": 70.86666666666666,
            "value": 0.5590551181102362
          },
          {
            "number": 7,
            "ticks": 17024,
            "time": 70.93333333333334,
            "value": 0.5669291338582677
          },
          {
            "number": 7,
            "ticks": 17032,
            "time": 70.96666666666667,
            "value": 0.5984251968503937
          },
          {
            "number": 7,
            "ticks": 17056,
            "time": 71.06666666666666,
            "value": 0.6141732283464567
          },
          {
            "number": 7,
            "ticks": 17072,
            "time": 71.13333333333334,
            "value": 0.6377952755905512
          },
          {
            "number": 7,
            "ticks": 17088,
            "time": 71.2,
            "value": 0.6614173228346457
          },
          {
            "number": 7,
            "ticks": 17104,
            "time": 71.26666666666667,
            "value": 0.6692913385826772
          },
          {
            "number": 7,
            "ticks": 17112,
            "time": 71.3,
            "value": 0.6850393700787402
          },
          {
            "number": 7,
            "ticks": 17136,
            "time": 71.4,
            "value": 0.6929133858267716
          },
          {
            "number": 7,
            "ticks": 17144,
            "time": 71.43333333333334,
            "value": 0.7007874015748031
          },
          {
            "number": 7,
            "ticks": 17152,
            "time": 71.46666666666667,
            "value": 0.7165354330708661
          },
          {
            "number": 7,
            "ticks": 17160,
            "time": 71.5,
            "value": 0.7244094488188977
          },
          {
            "number": 7,
            "ticks": 17176,
            "time": 71.56666666666666,
            "value": 0.7401574803149606
          },
          {
            "number": 7,
            "ticks": 17192,
            "time": 71.63333333333334,
            "value": 0.7480314960629921
          },
          {
            "number": 7,
            "ticks": 17216,
            "time": 71.73333333333333,
            "value": 0.7637795275590551
          },
          {
            "number": 7,
            "ticks": 21176,
            "time": 88.23333333333333,
            "value": 0.7322834645669292
          },
          {
            "number": 7,
            "ticks": 21192,
            "time": 88.3,
            "value": 0.7244094488188977
          },
          {
            "number": 7,
            "ticks": 21200,
            "time": 88.33333333333333,
            "value": 0.7007874015748031
          },
          {
            "number": 7,
            "ticks": 21216,
            "time": 88.4,
            "value": 0.6929133858267716
          },
          {
            "number": 7,
            "ticks": 21224,
            "time": 88.43333333333334,
            "value": 0.6771653543307087
          },
          {
            "number": 7,
            "ticks": 21232,
            "time": 88.46666666666667,
            "value": 0.6692913385826772
          },
          {
            "number": 7,
            "ticks": 21248,
            "time": 88.53333333333333,
            "value": 0.6535433070866141
          },
          {
            "number": 7,
            "ticks": 21264,
            "time": 88.6,
            "value": 0.6456692913385826
          },
          {
            "number": 7,
            "ticks": 21272,
            "time": 88.63333333333334,
            "value": 0.6299212598425197
          },
          {
            "number": 7,
            "ticks": 21296,
            "time": 88.73333333333333,
            "value": 0.6220472440944882
          },
          {
            "number": 7,
            "ticks": 21312,
            "time": 88.8,
            "value": 0.6062992125984252
          },
          {
            "number": 7,
            "ticks": 21320,
            "time": 88.83333333333333,
            "value": 0.5984251968503937
          },
          {
            "number": 7,
            "ticks": 21336,
            "time": 88.9,
            "value": 0.5826771653543307
          },
          {
            "number": 7,
            "ticks": 21344,
            "time": 88.93333333333334,
            "value": 0.5669291338582677
          },
          {
            "number": 7,
            "ticks": 21352,
            "time": 88.96666666666667,
            "value": 0.5511811023622047
          },
          {
            "number": 7,
            "ticks": 21368,
            "time": 89.03333333333333,
            "value": 0.5433070866141733
          },
          {
            "number": 7,
            "ticks": 21376,
            "time": 89.06666666666666,
            "value": 0.5196850393700787
          },
          {
            "number": 7,
            "ticks": 21400,
            "time": 89.16666666666667,
            "value": 0.5039370078740157
          },
          {
            "number": 7,
            "ticks": 21408,
            "time": 89.2,
            "value": 0.49606299212598426
          },
          {
            "number": 7,
            "ticks": 21416,
            "time": 89.23333333333333,
            "value": 0.48031496062992124
          },
          {
            "number": 7,
            "ticks": 21424,
            "time": 89.26666666666667,
            "value": 0.47244094488188976
          },
          {
            "number": 7,
            "ticks": 21432,
            "time": 89.3,
            "value": 0.4566929133858268
          },
          {
            "number": 7,
            "ticks": 21440,
            "time": 89.33333333333333,
            "value": 0.44881889763779526
          },
          {
            "number": 7,
            "ticks": 21448,
            "time": 89.36666666666666,
            "value": 0.4330708661417323
          },
          {
            "number": 7,
            "ticks": 21464,
            "time": 89.43333333333334,
            "value": 0.41732283464566927
          },
          {
            "number": 7,
            "ticks": 21472,
            "time": 89.46666666666667,
            "value": 0.4015748031496063
          },
          {
            "number": 7,
            "ticks": 21480,
            "time": 89.5,
            "value": 0.3937007874015748
          },
          {
            "number": 7,
            "ticks": 21488,
            "time": 89.53333333333333,
            "value": 0.3779527559055118
          },
          {
            "number": 7,
            "ticks": 21504,
            "time": 89.6,
            "value": 0.3700787401574803
          },
          {
            "number": 7,
            "ticks": 21512,
            "time": 89.63333333333334,
            "value": 0.3543307086614173
          },
          {
            "number": 7,
            "ticks": 21520,
            "time": 89.66666666666667,
            "value": 0.33070866141732286
          },
          {
            "number": 7,
            "ticks": 21536,
            "time": 89.73333333333333,
            "value": 0.30708661417322836
          },
          {
            "number": 7,
            "ticks": 21544,
            "time": 89.76666666666667,
            "value": 0.2992125984251969
          },
          {
            "number": 7,
            "ticks": 21552,
            "time": 89.8,
            "value": 0.28346456692913385
          },
          {
            "number": 7,
            "ticks": 21560,
            "time": 89.83333333333333,
            "value": 0.2755905511811024
          },
          {
            "number": 7,
            "ticks": 21568,
            "time": 89.86666666666666,
            "value": 0.2677165354330709
          },
          {
            "number": 7,
            "ticks": 21584,
            "time": 89.93333333333334,
            "value": 0.25196850393700787
          },
          {
            "number": 7,
            "ticks": 21592,
            "time": 89.96666666666667,
            "value": 0.2440944881889764
          },
          {
            "number": 7,
            "ticks": 21600,
            "time": 90,
            "value": 0.2283464566929134
          },
          {
            "number": 7,
            "ticks": 21608,
            "time": 90.03333333333333,
            "value": 0.2204724409448819
          },
          {
            "number": 7,
            "ticks": 21624,
            "time": 90.1,
            "value": 0.1968503937007874
          },
          {
            "number": 7,
            "ticks": 21640,
            "time": 90.16666666666667,
            "value": 0.18110236220472442
          },
          {
            "number": 7,
            "ticks": 21648,
            "time": 90.2,
            "value": 0.15748031496062992
          },
          {
            "number": 7,
            "ticks": 21656,
            "time": 90.23333333333333,
            "value": 0.14960629921259844
          },
          {
            "number": 7,
            "ticks": 21664,
            "time": 90.26666666666667,
            "value": 0.14173228346456693
          },
          {
            "number": 7,
            "ticks": 21672,
            "time": 90.3,
            "value": 0.12598425196850394
          },
          {
            "number": 7,
            "ticks": 21688,
            "time": 90.36666666666666,
            "value": 0.7637795275590551
          },
          {
            "number": 7,
            "ticks": 26144,
            "time": 108.93333333333334,
            "value": 0.15748031496062992
          },
          {
            "number": 7,
            "ticks": 26184,
            "time": 109.1,
            "value": 0.1732283464566929
          },
          {
            "number": 7,
            "ticks": 26200,
            "time": 109.16666666666667,
            "value": 0.18110236220472442
          },
          {
            "number": 7,
            "ticks": 26208,
            "time": 109.2,
            "value": 0.1968503937007874
          },
          {
            "number": 7,
            "ticks": 26224,
            "time": 109.26666666666667,
            "value": 0.2047244094488189
          },
          {
            "number": 7,
            "ticks": 26232,
            "time": 109.3,
            "value": 0.2125984251968504
          },
          {
            "number": 7,
            "ticks": 26248,
            "time": 109.36666666666666,
            "value": 0.2283464566929134
          },
          {
            "number": 7,
            "ticks": 26264,
            "time": 109.43333333333334,
            "value": 0.23622047244094488
          },
          {
            "number": 7,
            "ticks": 26272,
            "time": 109.46666666666667,
            "value": 0.25196850393700787
          },
          {
            "number": 7,
            "ticks": 26288,
            "time": 109.53333333333333,
            "value": 0.25984251968503935
          },
          {
            "number": 7,
            "ticks": 26304,
            "time": 109.6,
            "value": 0.2755905511811024
          },
          {
            "number": 7,
            "ticks": 26312,
            "time": 109.63333333333334,
            "value": 0.2992125984251969
          },
          {
            "number": 7,
            "ticks": 26320,
            "time": 109.66666666666667,
            "value": 0.30708661417322836
          },
          {
            "number": 7,
            "ticks": 26336,
            "time": 109.73333333333333,
            "value": 0.31496062992125984
          },
          {
            "number": 7,
            "ticks": 26344,
            "time": 109.76666666666667,
            "value": 0.33070866141732286
          },
          {
            "number": 7,
            "ticks": 26360,
            "time": 109.83333333333333,
            "value": 0.33858267716535434
          },
          {
            "number": 7,
            "ticks": 26376,
            "time": 109.9,
            "value": 0.3543307086614173
          },
          {
            "number": 7,
            "ticks": 26384,
            "time": 109.93333333333334,
            "value": 0.36220472440944884
          },
          {
            "number": 7,
            "ticks": 26400,
            "time": 110,
            "value": 0.3779527559055118
          },
          {
            "number": 7,
            "ticks": 26416,
            "time": 110.06666666666666,
            "value": 0.3858267716535433
          },
          {
            "number": 7,
            "ticks": 26424,
            "time": 110.1,
            "value": 0.4094488188976378
          },
          {
            "number": 7,
            "ticks": 26448,
            "time": 110.2,
            "value": 0.41732283464566927
          },
          {
            "number": 7,
            "ticks": 26456,
            "time": 110.23333333333333,
            "value": 0.4330708661417323
          },
          {
            "number": 7,
            "ticks": 26464,
            "time": 110.26666666666667,
            "value": 0.4409448818897638
          },
          {
            "number": 7,
            "ticks": 26472,
            "time": 110.3,
            "value": 0.4566929133858268
          },
          {
            "number": 7,
            "ticks": 26496,
            "time": 110.4,
            "value": 0.4645669291338583
          },
          {
            "number": 7,
            "ticks": 26504,
            "time": 110.43333333333334,
            "value": 0.48031496062992124
          },
          {
            "number": 7,
            "ticks": 26520,
            "time": 110.5,
            "value": 0.4881889763779528
          },
          {
            "number": 7,
            "ticks": 26536,
            "time": 110.56666666666666,
            "value": 0.5039370078740157
          },
          {
            "number": 7,
            "ticks": 26552,
            "time": 110.63333333333334,
            "value": 0.5118110236220472
          },
          {
            "number": 7,
            "ticks": 26560,
            "time": 110.66666666666667,
            "value": 0.5196850393700787
          },
          {
            "number": 7,
            "ticks": 26576,
            "time": 110.73333333333333,
            "value": 0.5354330708661418
          },
          {
            "number": 7,
            "ticks": 26608,
            "time": 110.86666666666666,
            "value": 0.5590551181102362
          },
          {
            "number": 7,
            "ticks": 26624,
            "time": 110.93333333333334,
            "value": 0.5669291338582677
          },
          {
            "number": 7,
            "ticks": 26632,
            "time": 110.96666666666667,
            "value": 0.5984251968503937
          },
          {
            "number": 7,
            "ticks": 26656,
            "time": 111.06666666666666,
            "value": 0.6141732283464567
          },
          {
            "number": 7,
            "ticks": 26672,
            "time": 111.13333333333334,
            "value": 0.6377952755905512
          },
          {
            "number": 7,
            "ticks": 26688,
            "time": 111.2,
            "value": 0.6614173228346457
          },
          {
            "number": 7,
            "ticks": 26704,
            "time": 111.26666666666667,
            "value": 0.6692913385826772
          },
          {
            "number": 7,
            "ticks": 26712,
            "time": 111.3,
            "value": 0.6850393700787402
          },
          {
            "number": 7,
            "ticks": 26736,
            "time": 111.4,
            "value": 0.6929133858267716
          },
          {
            "number": 7,
            "ticks": 26744,
            "time": 111.43333333333334,
            "value": 0.7007874015748031
          },
          {
            "number": 7,
            "ticks": 26752,
            "time": 111.46666666666667,
            "value": 0.7165354330708661
          },
          {
            "number": 7,
            "ticks": 26760,
            "time": 111.5,
            "value": 0.7244094488188977
          },
          {
            "number": 7,
            "ticks": 26776,
            "time": 111.56666666666666,
            "value": 0.7401574803149606
          },
          {
            "number": 7,
            "ticks": 26792,
            "time": 111.63333333333334,
            "value": 0.7480314960629921
          },
          {
            "number": 7,
            "ticks": 26816,
            "time": 111.73333333333333,
            "value": 0.7637795275590551
          },
          {
            "number": 7,
            "ticks": 48720,
            "time": 203,
            "value": 0.7716535433070866
          },
          {
            "number": 7,
            "ticks": 48736,
            "time": 203.06666666666666,
            "value": 0.7637795275590551
          },
          {
            "number": 7,
            "ticks": 48744,
            "time": 203.1,
            "value": 0.7480314960629921
          },
          {
            "number": 7,
            "ticks": 48752,
            "time": 203.13333333333333,
            "value": 0.7401574803149606
          },
          {
            "number": 7,
            "ticks": 48760,
            "time": 203.16666666666666,
            "value": 0.7244094488188977
          },
          {
            "number": 7,
            "ticks": 48776,
            "time": 203.23333333333332,
            "value": 0.7165354330708661
          },
          {
            "number": 7,
            "ticks": 48784,
            "time": 203.26666666666668,
            "value": 0.7007874015748031
          },
          {
            "number": 7,
            "ticks": 48800,
            "time": 203.33333333333334,
            "value": 0.6929133858267716
          },
          {
            "number": 7,
            "ticks": 48808,
            "time": 203.36666666666667,
            "value": 0.6850393700787402
          },
          {
            "number": 7,
            "ticks": 48824,
            "time": 203.43333333333334,
            "value": 0.6692913385826772
          },
          {
            "number": 7,
            "ticks": 48832,
            "time": 203.46666666666667,
            "value": 0.6614173228346457
          },
          {
            "number": 7,
            "ticks": 48840,
            "time": 203.5,
            "value": 0.6456692913385826
          },
          {
            "number": 7,
            "ticks": 48856,
            "time": 203.56666666666666,
            "value": 0.6377952755905512
          },
          {
            "number": 7,
            "ticks": 48864,
            "time": 203.6,
            "value": 0.6220472440944882
          },
          {
            "number": 7,
            "ticks": 48872,
            "time": 203.63333333333333,
            "value": 0.6141732283464567
          },
          {
            "number": 7,
            "ticks": 48888,
            "time": 203.7,
            "value": 0.5984251968503937
          },
          {
            "number": 7,
            "ticks": 48896,
            "time": 203.73333333333332,
            "value": 0.5905511811023622
          },
          {
            "number": 7,
            "ticks": 48904,
            "time": 203.76666666666668,
            "value": 0.5826771653543307
          },
          {
            "number": 7,
            "ticks": 48920,
            "time": 203.83333333333334,
            "value": 0.5669291338582677
          },
          {
            "number": 7,
            "ticks": 48928,
            "time": 203.86666666666667,
            "value": 0.5590551181102362
          },
          {
            "number": 7,
            "ticks": 48936,
            "time": 203.9,
            "value": 0.5433070866141733
          },
          {
            "number": 7,
            "ticks": 48944,
            "time": 203.93333333333334,
            "value": 0.5354330708661418
          },
          {
            "number": 7,
            "ticks": 48952,
            "time": 203.96666666666667,
            "value": 0.5118110236220472
          },
          {
            "number": 7,
            "ticks": 48968,
            "time": 204.03333333333333,
            "value": 0.5039370078740157
          },
          {
            "number": 7,
            "ticks": 48976,
            "time": 204.06666666666666,
            "value": 0.4881889763779528
          },
          {
            "number": 7,
            "ticks": 48984,
            "time": 204.1,
            "value": 0.48031496062992124
          },
          {
            "number": 7,
            "ticks": 48992,
            "time": 204.13333333333333,
            "value": 0.4645669291338583
          },
          {
            "number": 7,
            "ticks": 49008,
            "time": 204.2,
            "value": 0.4330708661417323
          },
          {
            "number": 7,
            "ticks": 49016,
            "time": 204.23333333333332,
            "value": 0.4409448818897638
          },
          {
            "number": 7,
            "ticks": 49024,
            "time": 204.26666666666668,
            "value": 0.4094488188976378
          },
          {
            "number": 7,
            "ticks": 49048,
            "time": 204.36666666666667,
            "value": 0.4015748031496063
          },
          {
            "number": 7,
            "ticks": 49064,
            "time": 204.43333333333334,
            "value": 0.3858267716535433
          },
          {
            "number": 7,
            "ticks": 49080,
            "time": 204.5,
            "value": 0.3779527559055118
          },
          {
            "number": 7,
            "ticks": 49088,
            "time": 204.53333333333333,
            "value": 0.36220472440944884
          },
          {
            "number": 7,
            "ticks": 49096,
            "time": 204.56666666666666,
            "value": 0.3543307086614173
          },
          {
            "number": 7,
            "ticks": 49112,
            "time": 204.63333333333333,
            "value": 0.33070866141732286
          },
          {
            "number": 7,
            "ticks": 49120,
            "time": 204.66666666666666,
            "value": 0.30708661417322836
          },
          {
            "number": 7,
            "ticks": 49152,
            "time": 204.8,
            "value": 0.2992125984251969
          },
          {
            "number": 7,
            "ticks": 49168,
            "time": 204.86666666666667,
            "value": 0.2755905511811024
          },
          {
            "number": 7,
            "ticks": 49184,
            "time": 204.93333333333334,
            "value": 0.25196850393700787
          },
          {
            "number": 7,
            "ticks": 49216,
            "time": 205.06666666666666,
            "value": 0.2283464566929134
          },
          {
            "number": 7,
            "ticks": 49224,
            "time": 205.1,
            "value": 0.2125984251968504
          },
          {
            "number": 7,
            "ticks": 49232,
            "time": 205.13333333333333,
            "value": 0.1968503937007874
          },
          {
            "number": 7,
            "ticks": 49248,
            "time": 205.2,
            "value": 0.1732283464566929
          },
          {
            "number": 7,
            "ticks": 49272,
            "time": 205.3,
            "value": 0.15748031496062992
          },
          {
            "number": 7,
            "ticks": 49280,
            "time": 205.33333333333334,
            "value": 0.14960629921259844
          },
          {
            "number": 7,
            "ticks": 49296,
            "time": 205.4,
            "value": 0.13385826771653545
          },
          {
            "number": 7,
            "ticks": 49304,
            "time": 205.43333333333334,
            "value": 0.12598425196850394
          },
          {
            "number": 7,
            "ticks": 49312,
            "time": 205.46666666666667,
            "value": 0.10236220472440945
          },
          {
            "number": 7,
            "ticks": 49328,
            "time": 205.53333333333333,
            "value": 0.09448818897637795
          },
          {
            "number": 7,
            "ticks": 49336,
            "time": 205.56666666666666,
            "value": 0.07874015748031496
          },
          {
            "number": 7,
            "ticks": 49352,
            "time": 205.63333333333333,
            "value": 0.07086614173228346
          },
          {
            "number": 7,
            "ticks": 49360,
            "time": 205.66666666666666,
            "value": 0.031496062992125984
          },
          {
            "number": 7,
            "ticks": 49368,
            "time": 205.7,
            "value": 0.023622047244094488
          },
          {
            "number": 7,
            "ticks": 49376,
            "time": 205.73333333333332,
            "value": 0.007874015748031496
          },
          {
            "number": 7,
            "ticks": 49392,
            "time": 205.8,
            "value": 0
          },
          {
            "number": 7,
            "ticks": 49912,
            "time": 207.96666666666667,
            "value": 0.7637795275590551
          }
        ],
        "10": [
          {
            "number": 10,
            "ticks": 0,
            "time": 0,
            "value": 0.5039370078740157
          }
        ],
        "91": [
          {
            "number": 91,
            "ticks": 0,
            "time": 0,
            "value": 0.31496062992125984
          }
        ],
        "93": [
          {
            "number": 93,
            "ticks": 0,
            "time": 0,
            "value": 0
          }
        ]
      },
      "pitchBends": [],
      "instrument": {
        "family": "guitar",
        "number": 30,
        "name": "distortion guitar"
      },
      "name": "",
      "notes": [
        {
          "duration": 4.166666666666667,
          "durationTicks": 1000,
          "midi": 50,
          "name": "D3",
          "ticks": 900,
          "time": 3.75,
          "velocity": 0.6692913385826772
        },
        {
          "duration": 4.216666666666667,
          "durationTicks": 1012,
          "midi": 58,
          "name": "A#3",
          "ticks": 900,
          "time": 3.75,
          "velocity": 0.8346456692913385
        },
        {
          "duration": 4.216666666666667,
          "durationTicks": 1012,
          "midi": 43,
          "name": "G2",
          "ticks": 900,
          "time": 3.75,
          "velocity": 0.8346456692913385
        },
        {
          "duration": 0.06666666666666643,
          "durationTicks": 16,
          "midi": 62,
          "name": "D4",
          "ticks": 6600,
          "time": 27.5,
          "velocity": 0.5039370078740157
        },
        {
          "duration": 0.08333333333333215,
          "durationTicks": 20,
          "midi": 58,
          "name": "A#3",
          "ticks": 6600,
          "time": 27.5,
          "velocity": 0.8267716535433071
        },
        {
          "duration": 0.06666666666666643,
          "durationTicks": 16,
          "midi": 67,
          "name": "G4",
          "ticks": 6600,
          "time": 27.5,
          "velocity": 0.5039370078740157
        },
        {
          "duration": 0.06666666666666643,
          "durationTicks": 16,
          "midi": 55,
          "name": "G3",
          "ticks": 6600,
          "time": 27.5,
          "velocity": 0.5039370078740157
        },
        {
          "duration": 0.06666666666666643,
          "durationTicks": 16,
          "midi": 67,
          "name": "G4",
          "ticks": 6660,
          "time": 27.75,
          "velocity": 0.5039370078740157
        },
        {
          "duration": 0.06666666666666643,
          "durationTicks": 16,
          "midi": 62,
          "name": "D4",
          "ticks": 6660,
          "time": 27.75,
          "velocity": 0.5039370078740157
        },
        {
          "duration": 0.08333333333333215,
          "durationTicks": 20,
          "midi": 58,
          "name": "A#3",
          "ticks": 6660,
          "time": 27.75,
          "velocity": 0.8267716535433071
        },
        {
          "duration": 0.06666666666666643,
          "durationTicks": 16,
          "midi": 55,
          "name": "G3",
          "ticks": 6660,
          "time": 27.75,
          "velocity": 0.5039370078740157
        },
        {
          "duration": 0.18333333333333357,
          "durationTicks": 44,
          "midi": 58,
          "name": "A#3",
          "ticks": 6720,
          "time": 28,
          "velocity": 0.8110236220472441
        },
        {
          "duration": 0.18333333333333357,
          "durationTicks": 44,
          "midi": 58,
          "name": "A#3",
          "ticks": 6780,
          "time": 28.25,
          "velocity": 0.8110236220472441
        },
        {
          "duration": 0.18333333333333357,
          "durationTicks": 44,
          "midi": 58,
          "name": "A#3",
          "ticks": 6840,
          "time": 28.5,
          "velocity": 0.8110236220472441
        },
        {
          "duration": 0.18333333333333357,
          "durationTicks": 44,
          "midi": 58,
          "name": "A#3",
          "ticks": 6900,
          "time": 28.75,
          "velocity": 0.8110236220472441
        },
        {
          "duration": 0.18333333333333357,
          "durationTicks": 44,
          "midi": 58,
          "name": "A#3",
          "ticks": 6960,
          "time": 29,
          "velocity": 0.8110236220472441
        },
        {
          "duration": 0.18333333333333357,
          "durationTicks": 44,
          "midi": 58,
          "name": "A#3",
          "ticks": 7020,
          "time": 29.25,
          "velocity": 0.8110236220472441
        },
        {
          "duration": 0.18333333333333357,
          "durationTicks": 44,
          "midi": 57,
          "name": "A3",
          "ticks": 7080,
          "time": 29.5,
          "velocity": 0.8110236220472441
        },
        {
          "duration": 0.18333333333333357,
          "durationTicks": 44,
          "midi": 57,
          "name": "A3",
          "ticks": 7140,
          "time": 29.75,
          "velocity": 0.8110236220472441
        },
        {
          "duration": 0.18333333333333357,
          "durationTicks": 44,
          "midi": 58,
          "name": "A#3",
          "ticks": 7200,
          "time": 30,
          "velocity": 0.8110236220472441
        },
        {
          "duration": 0.18333333333333357,
          "durationTicks": 44,
          "midi": 58,
          "name": "A#3",
          "ticks": 7260,
          "time": 30.25,
          "velocity": 0.8110236220472441
        },
        {
          "duration": 0.18333333333333357,
          "durationTicks": 44,
          "midi": 58,
          "name": "A#3",
          "ticks": 7320,
          "time": 30.5,
          "velocity": 0.8110236220472441
        },
        {
          "duration": 0.18333333333333357,
          "durationTicks": 44,
          "midi": 58,
          "name": "A#3",
          "ticks": 7380,
          "time": 30.75,
          "velocity": 0.8110236220472441
        },
        {
          "duration": 0.18333333333333357,
          "durationTicks": 44,
          "midi": 58,
          "name": "A#3",
          "ticks": 7440,
          "time": 31,
          "velocity": 0.8110236220472441
        },
        {
          "duration": 0.18333333333333357,
          "durationTicks": 44,
          "midi": 58,
          "name": "A#3",
          "ticks": 7500,
          "time": 31.25,
          "velocity": 0.8110236220472441
        },
        {
          "duration": 0.18333333333333357,
          "durationTicks": 44,
          "midi": 60,
          "name": "C4",
          "ticks": 7560,
          "time": 31.5,
          "velocity": 0.8110236220472441
        },
        {
          "duration": 0.18333333333333357,
          "durationTicks": 44,
          "midi": 60,
          "name": "C4",
          "ticks": 7620,
          "time": 31.75,
          "velocity": 0.8110236220472441
        },
        {
          "duration": 0.18333333333333002,
          "durationTicks": 44,
          "midi": 57,
          "name": "A3",
          "ticks": 7680,
          "time": 32,
          "velocity": 0.8110236220472441
        },
        {
          "duration": 0.18333333333333002,
          "durationTicks": 44,
          "midi": 57,
          "name": "A3",
          "ticks": 7740,
          "time": 32.25,
          "velocity": 0.8110236220472441
        },
        {
          "duration": 0.18333333333333002,
          "durationTicks": 44,
          "midi": 57,
          "name": "A3",
          "ticks": 7800,
          "time": 32.5,
          "velocity": 0.8110236220472441
        },
        {
          "duration": 0.18333333333333002,
          "durationTicks": 44,
          "midi": 57,
          "name": "A3",
          "ticks": 7860,
          "time": 32.75,
          "velocity": 0.8110236220472441
        },
        {
          "duration": 0.18333333333333002,
          "durationTicks": 44,
          "midi": 57,
          "name": "A3",
          "ticks": 7920,
          "time": 33,
          "velocity": 0.8110236220472441
        },
        {
          "duration": 0.18333333333333002,
          "durationTicks": 44,
          "midi": 57,
          "name": "A3",
          "ticks": 7980,
          "time": 33.25,
          "velocity": 0.8110236220472441
        },
        {
          "duration": 0.18333333333333002,
          "durationTicks": 44,
          "midi": 57,
          "name": "A3",
          "ticks": 8040,
          "time": 33.5,
          "velocity": 0.8110236220472441
        },
        {
          "duration": 0.18333333333333002,
          "durationTicks": 44,
          "midi": 57,
          "name": "A3",
          "ticks": 8100,
          "time": 33.75,
          "velocity": 0.8110236220472441
        },
        {
          "duration": 0.18333333333333002,
          "durationTicks": 44,
          "midi": 55,
          "name": "G3",
          "ticks": 8160,
          "time": 34,
          "velocity": 0.8110236220472441
        },
        {
          "duration": 0.18333333333333002,
          "durationTicks": 44,
          "midi": 55,
          "name": "G3",
          "ticks": 8220,
          "time": 34.25,
          "velocity": 0.8110236220472441
        },
        {
          "duration": 0.18333333333333002,
          "durationTicks": 44,
          "midi": 55,
          "name": "G3",
          "ticks": 8280,
          "time": 34.5,
          "velocity": 0.8110236220472441
        },
        {
          "duration": 0.18333333333333002,
          "durationTicks": 44,
          "midi": 55,
          "name": "G3",
          "ticks": 8340,
          "time": 34.75,
          "velocity": 0.8110236220472441
        },
        {
          "duration": 0.18333333333333002,
          "durationTicks": 44,
          "midi": 55,
          "name": "G3",
          "ticks": 8400,
          "time": 35,
          "velocity": 0.8110236220472441
        },
        {
          "duration": 0.18333333333333002,
          "durationTicks": 44,
          "midi": 55,
          "name": "G3",
          "ticks": 8460,
          "time": 35.25,
          "velocity": 0.8110236220472441
        },
        {
          "duration": 0.18333333333333002,
          "durationTicks": 44,
          "midi": 57,
          "name": "A3",
          "ticks": 8520,
          "time": 35.5,
          "velocity": 0.8110236220472441
        },
        {
          "duration": 0.18333333333333002,
          "durationTicks": 44,
          "midi": 57,
          "name": "A3",
          "ticks": 8580,
          "time": 35.75,
          "velocity": 0.8110236220472441
        },
        {
          "duration": 0.18333333333333002,
          "durationTicks": 44,
          "midi": 58,
          "name": "A#3",
          "ticks": 8640,
          "time": 36,
          "velocity": 0.8188976377952756
        },
        {
          "duration": 0.18333333333333002,
          "durationTicks": 44,
          "midi": 58,
          "name": "A#3",
          "ticks": 8700,
          "time": 36.25,
          "velocity": 0.8188976377952756
        },
        {
          "duration": 0.18333333333333002,
          "durationTicks": 44,
          "midi": 58,
          "name": "A#3",
          "ticks": 8760,
          "time": 36.5,
          "velocity": 0.8110236220472441
        },
        {
          "duration": 0.18333333333333002,
          "durationTicks": 44,
          "midi": 58,
          "name": "A#3",
          "ticks": 8820,
          "time": 36.75,
          "velocity": 0.8110236220472441
        },
        {
          "duration": 0.18333333333333002,
          "durationTicks": 44,
          "midi": 58,
          "name": "A#3",
          "ticks": 8880,
          "time": 37,
          "velocity": 0.8110236220472441
        },
        {
          "duration": 0.18333333333333002,
          "durationTicks": 44,
          "midi": 58,
          "name": "A#3",
          "ticks": 8940,
          "time": 37.25,
          "velocity": 0.8110236220472441
        },
        {
          "duration": 0.18333333333333002,
          "durationTicks": 44,
          "midi": 57,
          "name": "A3",
          "ticks": 9000,
          "time": 37.5,
          "velocity": 0.8110236220472441
        },
        {
          "duration": 0.18333333333333002,
          "durationTicks": 44,
          "midi": 57,
          "name": "A3",
          "ticks": 9060,
          "time": 37.75,
          "velocity": 0.8110236220472441
        },
        {
          "duration": 0.18333333333333002,
          "durationTicks": 44,
          "midi": 58,
          "name": "A#3",
          "ticks": 9120,
          "time": 38,
          "velocity": 0.8110236220472441
        },
        {
          "duration": 0.18333333333333002,
          "durationTicks": 44,
          "midi": 58,
          "name": "A#3",
          "ticks": 9180,
          "time": 38.25,
          "velocity": 0.8110236220472441
        },
        {
          "duration": 0.18333333333333002,
          "durationTicks": 44,
          "midi": 58,
          "name": "A#3",
          "ticks": 9240,
          "time": 38.5,
          "velocity": 0.8110236220472441
        },
        {
          "duration": 0.18333333333333002,
          "durationTicks": 44,
          "midi": 58,
          "name": "A#3",
          "ticks": 9300,
          "time": 38.75,
          "velocity": 0.8110236220472441
        },
        {
          "duration": 0.18333333333333002,
          "durationTicks": 44,
          "midi": 58,
          "name": "A#3",
          "ticks": 9360,
          "time": 39,
          "velocity": 0.8110236220472441
        },
        {
          "duration": 0.18333333333333002,
          "durationTicks": 44,
          "midi": 58,
          "name": "A#3",
          "ticks": 9420,
          "time": 39.25,
          "velocity": 0.8110236220472441
        },
        {
          "duration": 0.18333333333333002,
          "durationTicks": 44,
          "midi": 60,
          "name": "C4",
          "ticks": 9480,
          "time": 39.5,
          "velocity": 0.8110236220472441
        },
        {
          "duration": 0.18333333333333002,
          "durationTicks": 44,
          "midi": 60,
          "name": "C4",
          "ticks": 9540,
          "time": 39.75,
          "velocity": 0.8110236220472441
        },
        {
          "duration": 0.18333333333333002,
          "durationTicks": 44,
          "midi": 57,
          "name": "A3",
          "ticks": 9600,
          "time": 40,
          "velocity": 0.8110236220472441
        },
        {
          "duration": 0.18333333333333002,
          "durationTicks": 44,
          "midi": 57,
          "name": "A3",
          "ticks": 9660,
          "time": 40.25,
          "velocity": 0.8110236220472441
        },
        {
          "duration": 0.18333333333333002,
          "durationTicks": 44,
          "midi": 57,
          "name": "A3",
          "ticks": 9720,
          "time": 40.5,
          "velocity": 0.8110236220472441
        },
        {
          "duration": 0.18333333333333002,
          "durationTicks": 44,
          "midi": 57,
          "name": "A3",
          "ticks": 9780,
          "time": 40.75,
          "velocity": 0.8110236220472441
        },
        {
          "duration": 0.18333333333333002,
          "durationTicks": 44,
          "midi": 57,
          "name": "A3",
          "ticks": 9840,
          "time": 41,
          "velocity": 0.8110236220472441
        },
        {
          "duration": 0.18333333333333002,
          "durationTicks": 44,
          "midi": 57,
          "name": "A3",
          "ticks": 9900,
          "time": 41.25,
          "velocity": 0.8110236220472441
        },
        {
          "duration": 0.18333333333333002,
          "durationTicks": 44,
          "midi": 57,
          "name": "A3",
          "ticks": 9960,
          "time": 41.5,
          "velocity": 0.8110236220472441
        },
        {
          "duration": 0.18333333333333002,
          "durationTicks": 44,
          "midi": 57,
          "name": "A3",
          "ticks": 10020,
          "time": 41.75,
          "velocity": 0.8110236220472441
        },
        {
          "duration": 0.18333333333333002,
          "durationTicks": 44,
          "midi": 55,
          "name": "G3",
          "ticks": 10080,
          "time": 42,
          "velocity": 0.8110236220472441
        },
        {
          "duration": 0.18333333333333002,
          "durationTicks": 44,
          "midi": 55,
          "name": "G3",
          "ticks": 10140,
          "time": 42.25,
          "velocity": 0.8110236220472441
        },
        {
          "duration": 0.18333333333333002,
          "durationTicks": 44,
          "midi": 55,
          "name": "G3",
          "ticks": 10200,
          "time": 42.5,
          "velocity": 0.8110236220472441
        },
        {
          "duration": 0.18333333333333002,
          "durationTicks": 44,
          "midi": 55,
          "name": "G3",
          "ticks": 10260,
          "time": 42.75,
          "velocity": 0.8110236220472441
        },
        {
          "duration": 0.18333333333333002,
          "durationTicks": 44,
          "midi": 55,
          "name": "G3",
          "ticks": 10320,
          "time": 43,
          "velocity": 0.8110236220472441
        },
        {
          "duration": 0.18333333333333002,
          "durationTicks": 44,
          "midi": 55,
          "name": "G3",
          "ticks": 10380,
          "time": 43.25,
          "velocity": 0.8110236220472441
        },
        {
          "duration": 0.18333333333333002,
          "durationTicks": 44,
          "midi": 57,
          "name": "A3",
          "ticks": 10440,
          "time": 43.5,
          "velocity": 0.8110236220472441
        },
        {
          "duration": 0.18333333333333002,
          "durationTicks": 44,
          "midi": 57,
          "name": "A3",
          "ticks": 10500,
          "time": 43.75,
          "velocity": 0.8110236220472441
        },
        {
          "duration": 3.93333333333333,
          "durationTicks": 944,
          "midi": 58,
          "name": "A#3",
          "ticks": 10560,
          "time": 44,
          "velocity": 0.6377952755905512
        },
        {
          "duration": 3.9833333333333343,
          "durationTicks": 956,
          "midi": 55,
          "name": "G3",
          "ticks": 10560,
          "time": 44,
          "velocity": 0.6377952755905512
        },
        {
          "duration": 3.9833333333333343,
          "durationTicks": 956,
          "midi": 50,
          "name": "D3",
          "ticks": 10560,
          "time": 44,
          "velocity": 0.6377952755905512
        },
        {
          "duration": 2.933333333333337,
          "durationTicks": 704,
          "midi": 74,
          "name": "D5",
          "ticks": 16560,
          "time": 69,
          "velocity": 0.6692913385826772
        },
        {
          "duration": 2.9833333333333343,
          "durationTicks": 716,
          "midi": 62,
          "name": "D4",
          "ticks": 16560,
          "time": 69,
          "velocity": 0.8346456692913385
        },
        {
          "duration": 2.9833333333333343,
          "durationTicks": 716,
          "midi": 79,
          "name": "G5",
          "ticks": 16560,
          "time": 69,
          "velocity": 0.8346456692913385
        },
        {
          "duration": 0.18333333333333712,
          "durationTicks": 44,
          "midi": 58,
          "name": "A#3",
          "ticks": 17280,
          "time": 72,
          "velocity": 0.8188976377952756
        },
        {
          "duration": 0.18333333333333712,
          "durationTicks": 44,
          "midi": 58,
          "name": "A#3",
          "ticks": 17340,
          "time": 72.25,
          "velocity": 0.8188976377952756
        },
        {
          "duration": 0.18333333333333712,
          "durationTicks": 44,
          "midi": 58,
          "name": "A#3",
          "ticks": 17400,
          "time": 72.5,
          "velocity": 0.8110236220472441
        },
        {
          "duration": 0.18333333333333712,
          "durationTicks": 44,
          "midi": 58,
          "name": "A#3",
          "ticks": 17460,
          "time": 72.75,
          "velocity": 0.8110236220472441
        },
        {
          "duration": 0.18333333333333712,
          "durationTicks": 44,
          "midi": 58,
          "name": "A#3",
          "ticks": 17520,
          "time": 73,
          "velocity": 0.8110236220472441
        },
        {
          "duration": 0.18333333333333712,
          "durationTicks": 44,
          "midi": 58,
          "name": "A#3",
          "ticks": 17580,
          "time": 73.25,
          "velocity": 0.8110236220472441
        },
        {
          "duration": 0.18333333333333712,
          "durationTicks": 44,
          "midi": 57,
          "name": "A3",
          "ticks": 17640,
          "time": 73.5,
          "velocity": 0.8110236220472441
        },
        {
          "duration": 0.18333333333333712,
          "durationTicks": 44,
          "midi": 57,
          "name": "A3",
          "ticks": 17700,
          "time": 73.75,
          "velocity": 0.8110236220472441
        },
        {
          "duration": 0.18333333333333712,
          "durationTicks": 44,
          "midi": 58,
          "name": "A#3",
          "ticks": 17760,
          "time": 74,
          "velocity": 0.8110236220472441
        },
        {
          "duration": 0.18333333333333712,
          "durationTicks": 44,
          "midi": 58,
          "name": "A#3",
          "ticks": 17820,
          "time": 74.25,
          "velocity": 0.8110236220472441
        },
        {
          "duration": 0.18333333333333712,
          "durationTicks": 44,
          "midi": 58,
          "name": "A#3",
          "ticks": 17880,
          "time": 74.5,
          "velocity": 0.8110236220472441
        },
        {
          "duration": 0.18333333333333712,
          "durationTicks": 44,
          "midi": 58,
          "name": "A#3",
          "ticks": 17940,
          "time": 74.75,
          "velocity": 0.8110236220472441
        },
        {
          "duration": 0.18333333333333712,
          "durationTicks": 44,
          "midi": 58,
          "name": "A#3",
          "ticks": 18000,
          "time": 75,
          "velocity": 0.8110236220472441
        },
        {
          "duration": 0.18333333333333712,
          "durationTicks": 44,
          "midi": 58,
          "name": "A#3",
          "ticks": 18060,
          "time": 75.25,
          "velocity": 0.8110236220472441
        },
        {
          "duration": 0.18333333333333712,
          "durationTicks": 44,
          "midi": 60,
          "name": "C4",
          "ticks": 18120,
          "time": 75.5,
          "velocity": 0.8110236220472441
        },
        {
          "duration": 0.18333333333333712,
          "durationTicks": 44,
          "midi": 60,
          "name": "C4",
          "ticks": 18180,
          "time": 75.75,
          "velocity": 0.8110236220472441
        },
        {
          "duration": 0.18333333333333712,
          "durationTicks": 44,
          "midi": 57,
          "name": "A3",
          "ticks": 18240,
          "time": 76,
          "velocity": 0.8110236220472441
        },
        {
          "duration": 0.18333333333333712,
          "durationTicks": 44,
          "midi": 57,
          "name": "A3",
          "ticks": 18300,
          "time": 76.25,
          "velocity": 0.8110236220472441
        },
        {
          "duration": 0.18333333333333712,
          "durationTicks": 44,
          "midi": 57,
          "name": "A3",
          "ticks": 18360,
          "time": 76.5,
          "velocity": 0.8110236220472441
        },
        {
          "duration": 0.18333333333333712,
          "durationTicks": 44,
          "midi": 57,
          "name": "A3",
          "ticks": 18420,
          "time": 76.75,
          "velocity": 0.8110236220472441
        },
        {
          "duration": 0.18333333333333712,
          "durationTicks": 44,
          "midi": 57,
          "name": "A3",
          "ticks": 18480,
          "time": 77,
          "velocity": 0.8110236220472441
        },
        {
          "duration": 0.18333333333333712,
          "durationTicks": 44,
          "midi": 57,
          "name": "A3",
          "ticks": 18540,
          "time": 77.25,
          "velocity": 0.8110236220472441
        },
        {
          "duration": 0.18333333333333712,
          "durationTicks": 44,
          "midi": 57,
          "name": "A3",
          "ticks": 18600,
          "time": 77.5,
          "velocity": 0.8110236220472441
        },
        {
          "duration": 0.18333333333333712,
          "durationTicks": 44,
          "midi": 57,
          "name": "A3",
          "ticks": 18660,
          "time": 77.75,
          "velocity": 0.8110236220472441
        },
        {
          "duration": 0.18333333333333712,
          "durationTicks": 44,
          "midi": 55,
          "name": "G3",
          "ticks": 18720,
          "time": 78,
          "velocity": 0.8110236220472441
        },
        {
          "duration": 0.18333333333333712,
          "durationTicks": 44,
          "midi": 55,
          "name": "G3",
          "ticks": 18780,
          "time": 78.25,
          "velocity": 0.8110236220472441
        },
        {
          "duration": 0.18333333333333712,
          "durationTicks": 44,
          "midi": 55,
          "name": "G3",
          "ticks": 18840,
          "time": 78.5,
          "velocity": 0.8110236220472441
        },
        {
          "duration": 0.18333333333333712,
          "durationTicks": 44,
          "midi": 55,
          "name": "G3",
          "ticks": 18900,
          "time": 78.75,
          "velocity": 0.8110236220472441
        },
        {
          "duration": 0.18333333333333712,
          "durationTicks": 44,
          "midi": 55,
          "name": "G3",
          "ticks": 18960,
          "time": 79,
          "velocity": 0.8110236220472441
        },
        {
          "duration": 0.18333333333333712,
          "durationTicks": 44,
          "midi": 55,
          "name": "G3",
          "ticks": 19020,
          "time": 79.25,
          "velocity": 0.8110236220472441
        },
        {
          "duration": 0.18333333333333712,
          "durationTicks": 44,
          "midi": 57,
          "name": "A3",
          "ticks": 19080,
          "time": 79.5,
          "velocity": 0.8110236220472441
        },
        {
          "duration": 0.18333333333333712,
          "durationTicks": 44,
          "midi": 57,
          "name": "A3",
          "ticks": 19140,
          "time": 79.75,
          "velocity": 0.8110236220472441
        },
        {
          "duration": 0.18333333333333712,
          "durationTicks": 44,
          "midi": 58,
          "name": "A#3",
          "ticks": 19200,
          "time": 80,
          "velocity": 0.8188976377952756
        },
        {
          "duration": 0.18333333333333712,
          "durationTicks": 44,
          "midi": 58,
          "name": "A#3",
          "ticks": 19260,
          "time": 80.25,
          "velocity": 0.8188976377952756
        },
        {
          "duration": 0.18333333333333712,
          "durationTicks": 44,
          "midi": 58,
          "name": "A#3",
          "ticks": 19320,
          "time": 80.5,
          "velocity": 0.8110236220472441
        },
        {
          "duration": 0.18333333333333712,
          "durationTicks": 44,
          "midi": 58,
          "name": "A#3",
          "ticks": 19380,
          "time": 80.75,
          "velocity": 0.8110236220472441
        },
        {
          "duration": 0.18333333333333712,
          "durationTicks": 44,
          "midi": 58,
          "name": "A#3",
          "ticks": 19440,
          "time": 81,
          "velocity": 0.8110236220472441
        },
        {
          "duration": 0.18333333333333712,
          "durationTicks": 44,
          "midi": 58,
          "name": "A#3",
          "ticks": 19500,
          "time": 81.25,
          "velocity": 0.8110236220472441
        },
        {
          "duration": 0.18333333333333712,
          "durationTicks": 44,
          "midi": 57,
          "name": "A3",
          "ticks": 19560,
          "time": 81.5,
          "velocity": 0.8110236220472441
        },
        {
          "duration": 0.18333333333333712,
          "durationTicks": 44,
          "midi": 57,
          "name": "A3",
          "ticks": 19620,
          "time": 81.75,
          "velocity": 0.8110236220472441
        },
        {
          "duration": 0.18333333333333712,
          "durationTicks": 44,
          "midi": 58,
          "name": "A#3",
          "ticks": 19680,
          "time": 82,
          "velocity": 0.8110236220472441
        },
        {
          "duration": 0.18333333333333712,
          "durationTicks": 44,
          "midi": 58,
          "name": "A#3",
          "ticks": 19740,
          "time": 82.25,
          "velocity": 0.8110236220472441
        },
        {
          "duration": 0.18333333333333712,
          "durationTicks": 44,
          "midi": 58,
          "name": "A#3",
          "ticks": 19800,
          "time": 82.5,
          "velocity": 0.8110236220472441
        },
        {
          "duration": 0.18333333333333712,
          "durationTicks": 44,
          "midi": 58,
          "name": "A#3",
          "ticks": 19860,
          "time": 82.75,
          "velocity": 0.8110236220472441
        },
        {
          "duration": 0.18333333333333712,
          "durationTicks": 44,
          "midi": 58,
          "name": "A#3",
          "ticks": 19920,
          "time": 83,
          "velocity": 0.8110236220472441
        },
        {
          "duration": 0.18333333333333712,
          "durationTicks": 44,
          "midi": 58,
          "name": "A#3",
          "ticks": 19980,
          "time": 83.25,
          "velocity": 0.8110236220472441
        },
        {
          "duration": 0.18333333333333712,
          "durationTicks": 44,
          "midi": 60,
          "name": "C4",
          "ticks": 20040,
          "time": 83.5,
          "velocity": 0.8110236220472441
        },
        {
          "duration": 0.18333333333333712,
          "durationTicks": 44,
          "midi": 60,
          "name": "C4",
          "ticks": 20100,
          "time": 83.75,
          "velocity": 0.8110236220472441
        },
        {
          "duration": 0.18333333333333712,
          "durationTicks": 44,
          "midi": 57,
          "name": "A3",
          "ticks": 20160,
          "time": 84,
          "velocity": 0.8110236220472441
        },
        {
          "duration": 0.18333333333333712,
          "durationTicks": 44,
          "midi": 57,
          "name": "A3",
          "ticks": 20220,
          "time": 84.25,
          "velocity": 0.8110236220472441
        },
        {
          "duration": 0.18333333333333712,
          "durationTicks": 44,
          "midi": 57,
          "name": "A3",
          "ticks": 20280,
          "time": 84.5,
          "velocity": 0.8110236220472441
        },
        {
          "duration": 0.18333333333333712,
          "durationTicks": 44,
          "midi": 57,
          "name": "A3",
          "ticks": 20340,
          "time": 84.75,
          "velocity": 0.8110236220472441
        },
        {
          "duration": 0.18333333333333712,
          "durationTicks": 44,
          "midi": 57,
          "name": "A3",
          "ticks": 20400,
          "time": 85,
          "velocity": 0.8110236220472441
        },
        {
          "duration": 0.18333333333333712,
          "durationTicks": 44,
          "midi": 57,
          "name": "A3",
          "ticks": 20460,
          "time": 85.25,
          "velocity": 0.8110236220472441
        },
        {
          "duration": 0.18333333333333712,
          "durationTicks": 44,
          "midi": 57,
          "name": "A3",
          "ticks": 20520,
          "time": 85.5,
          "velocity": 0.8110236220472441
        },
        {
          "duration": 0.18333333333333712,
          "durationTicks": 44,
          "midi": 57,
          "name": "A3",
          "ticks": 20580,
          "time": 85.75,
          "velocity": 0.8110236220472441
        },
        {
          "duration": 0.18333333333333712,
          "durationTicks": 44,
          "midi": 55,
          "name": "G3",
          "ticks": 20640,
          "time": 86,
          "velocity": 0.8110236220472441
        },
        {
          "duration": 0.18333333333333712,
          "durationTicks": 44,
          "midi": 55,
          "name": "G3",
          "ticks": 20700,
          "time": 86.25,
          "velocity": 0.8110236220472441
        },
        {
          "duration": 0.18333333333333712,
          "durationTicks": 44,
          "midi": 55,
          "name": "G3",
          "ticks": 20760,
          "time": 86.5,
          "velocity": 0.8110236220472441
        },
        {
          "duration": 0.18333333333333712,
          "durationTicks": 44,
          "midi": 55,
          "name": "G3",
          "ticks": 20820,
          "time": 86.75,
          "velocity": 0.8110236220472441
        },
        {
          "duration": 0.18333333333333712,
          "durationTicks": 44,
          "midi": 55,
          "name": "G3",
          "ticks": 20880,
          "time": 87,
          "velocity": 0.8110236220472441
        },
        {
          "duration": 0.18333333333333712,
          "durationTicks": 44,
          "midi": 55,
          "name": "G3",
          "ticks": 20940,
          "time": 87.25,
          "velocity": 0.8110236220472441
        },
        {
          "duration": 0.18333333333333712,
          "durationTicks": 44,
          "midi": 57,
          "name": "A3",
          "ticks": 21000,
          "time": 87.5,
          "velocity": 0.8110236220472441
        },
        {
          "duration": 0.18333333333333712,
          "durationTicks": 44,
          "midi": 57,
          "name": "A3",
          "ticks": 21060,
          "time": 87.75,
          "velocity": 0.8110236220472441
        },
        {
          "duration": 1.9666666666666686,
          "durationTicks": 472,
          "midi": 55,
          "name": "G3",
          "ticks": 21120,
          "time": 88,
          "velocity": 0.8346456692913385
        },
        {
          "duration": 2.9833333333333343,
          "durationTicks": 716,
          "midi": 62,
          "name": "D4",
          "ticks": 26160,
          "time": 109,
          "velocity": 0.8346456692913385
        },
        {
          "duration": 2.9666666666666686,
          "durationTicks": 712,
          "midi": 79,
          "name": "G5",
          "ticks": 26160,
          "time": 109,
          "velocity": 0.5039370078740157
        },
        {
          "duration": 2.9833333333333343,
          "durationTicks": 716,
          "midi": 67,
          "name": "G4",
          "ticks": 26160,
          "time": 109,
          "velocity": 0.8346456692913385
        },
        {
          "duration": 2.9666666666666686,
          "durationTicks": 712,
          "midi": 74,
          "name": "D5",
          "ticks": 26160,
          "time": 109,
          "velocity": 0.5039370078740157
        },
        {
          "duration": 0.18333333333333712,
          "durationTicks": 44,
          "midi": 58,
          "name": "A#3",
          "ticks": 26880,
          "time": 112,
          "velocity": 0.8188976377952756
        },
        {
          "duration": 0.18333333333333712,
          "durationTicks": 44,
          "midi": 58,
          "name": "A#3",
          "ticks": 26940,
          "time": 112.25,
          "velocity": 0.8188976377952756
        },
        {
          "duration": 0.18333333333333712,
          "durationTicks": 44,
          "midi": 58,
          "name": "A#3",
          "ticks": 27000,
          "time": 112.5,
          "velocity": 0.8110236220472441
        },
        {
          "duration": 0.18333333333333712,
          "durationTicks": 44,
          "midi": 58,
          "name": "A#3",
          "ticks": 27060,
          "time": 112.75,
          "velocity": 0.8110236220472441
        },
        {
          "duration": 0.18333333333333712,
          "durationTicks": 44,
          "midi": 58,
          "name": "A#3",
          "ticks": 27120,
          "time": 113,
          "velocity": 0.8110236220472441
        },
        {
          "duration": 0.18333333333333712,
          "durationTicks": 44,
          "midi": 58,
          "name": "A#3",
          "ticks": 27180,
          "time": 113.25,
          "velocity": 0.8110236220472441
        },
        {
          "duration": 0.18333333333333712,
          "durationTicks": 44,
          "midi": 57,
          "name": "A3",
          "ticks": 27240,
          "time": 113.5,
          "velocity": 0.8110236220472441
        },
        {
          "duration": 0.18333333333333712,
          "durationTicks": 44,
          "midi": 57,
          "name": "A3",
          "ticks": 27300,
          "time": 113.75,
          "velocity": 0.8110236220472441
        },
        {
          "duration": 0.18333333333333712,
          "durationTicks": 44,
          "midi": 58,
          "name": "A#3",
          "ticks": 27360,
          "time": 114,
          "velocity": 0.8110236220472441
        },
        {
          "duration": 0.18333333333333712,
          "durationTicks": 44,
          "midi": 58,
          "name": "A#3",
          "ticks": 27420,
          "time": 114.25,
          "velocity": 0.8110236220472441
        },
        {
          "duration": 0.18333333333333712,
          "durationTicks": 44,
          "midi": 58,
          "name": "A#3",
          "ticks": 27480,
          "time": 114.5,
          "velocity": 0.8110236220472441
        },
        {
          "duration": 0.18333333333333712,
          "durationTicks": 44,
          "midi": 58,
          "name": "A#3",
          "ticks": 27540,
          "time": 114.75,
          "velocity": 0.8110236220472441
        },
        {
          "duration": 0.18333333333333712,
          "durationTicks": 44,
          "midi": 58,
          "name": "A#3",
          "ticks": 27600,
          "time": 115,
          "velocity": 0.8110236220472441
        },
        {
          "duration": 0.18333333333333712,
          "durationTicks": 44,
          "midi": 58,
          "name": "A#3",
          "ticks": 27660,
          "time": 115.25,
          "velocity": 0.8110236220472441
        },
        {
          "duration": 0.18333333333333712,
          "durationTicks": 44,
          "midi": 60,
          "name": "C4",
          "ticks": 27720,
          "time": 115.5,
          "velocity": 0.8110236220472441
        },
        {
          "duration": 0.18333333333333712,
          "durationTicks": 44,
          "midi": 60,
          "name": "C4",
          "ticks": 27780,
          "time": 115.75,
          "velocity": 0.8110236220472441
        },
        {
          "duration": 0.18333333333333712,
          "durationTicks": 44,
          "midi": 57,
          "name": "A3",
          "ticks": 27840,
          "time": 116,
          "velocity": 0.8110236220472441
        },
        {
          "duration": 0.18333333333333712,
          "durationTicks": 44,
          "midi": 57,
          "name": "A3",
          "ticks": 27900,
          "time": 116.25,
          "velocity": 0.8110236220472441
        },
        {
          "duration": 0.18333333333333712,
          "durationTicks": 44,
          "midi": 57,
          "name": "A3",
          "ticks": 27960,
          "time": 116.5,
          "velocity": 0.8110236220472441
        },
        {
          "duration": 0.18333333333333712,
          "durationTicks": 44,
          "midi": 57,
          "name": "A3",
          "ticks": 28020,
          "time": 116.75,
          "velocity": 0.8110236220472441
        },
        {
          "duration": 0.18333333333333712,
          "durationTicks": 44,
          "midi": 57,
          "name": "A3",
          "ticks": 28080,
          "time": 117,
          "velocity": 0.8110236220472441
        },
        {
          "duration": 0.18333333333333712,
          "durationTicks": 44,
          "midi": 57,
          "name": "A3",
          "ticks": 28140,
          "time": 117.25,
          "velocity": 0.8110236220472441
        },
        {
          "duration": 0.18333333333333712,
          "durationTicks": 44,
          "midi": 57,
          "name": "A3",
          "ticks": 28200,
          "time": 117.5,
          "velocity": 0.8110236220472441
        },
        {
          "duration": 0.18333333333333712,
          "durationTicks": 44,
          "midi": 57,
          "name": "A3",
          "ticks": 28260,
          "time": 117.75,
          "velocity": 0.8110236220472441
        },
        {
          "duration": 0.18333333333333712,
          "durationTicks": 44,
          "midi": 55,
          "name": "G3",
          "ticks": 28320,
          "time": 118,
          "velocity": 0.8110236220472441
        },
        {
          "duration": 0.18333333333333712,
          "durationTicks": 44,
          "midi": 55,
          "name": "G3",
          "ticks": 28380,
          "time": 118.25,
          "velocity": 0.8110236220472441
        },
        {
          "duration": 0.18333333333333712,
          "durationTicks": 44,
          "midi": 55,
          "name": "G3",
          "ticks": 28440,
          "time": 118.5,
          "velocity": 0.8110236220472441
        },
        {
          "duration": 0.18333333333333712,
          "durationTicks": 44,
          "midi": 55,
          "name": "G3",
          "ticks": 28500,
          "time": 118.75,
          "velocity": 0.8110236220472441
        },
        {
          "duration": 0.18333333333333712,
          "durationTicks": 44,
          "midi": 55,
          "name": "G3",
          "ticks": 28560,
          "time": 119,
          "velocity": 0.8110236220472441
        },
        {
          "duration": 0.18333333333333712,
          "durationTicks": 44,
          "midi": 55,
          "name": "G3",
          "ticks": 28620,
          "time": 119.25,
          "velocity": 0.8110236220472441
        },
        {
          "duration": 0.18333333333333712,
          "durationTicks": 44,
          "midi": 57,
          "name": "A3",
          "ticks": 28680,
          "time": 119.5,
          "velocity": 0.8110236220472441
        },
        {
          "duration": 0.18333333333333712,
          "durationTicks": 44,
          "midi": 57,
          "name": "A3",
          "ticks": 28740,
          "time": 119.75,
          "velocity": 0.8110236220472441
        },
        {
          "duration": 0.18333333333333712,
          "durationTicks": 44,
          "midi": 58,
          "name": "A#3",
          "ticks": 28800,
          "time": 120,
          "velocity": 0.8188976377952756
        },
        {
          "duration": 0.18333333333333712,
          "durationTicks": 44,
          "midi": 58,
          "name": "A#3",
          "ticks": 28860,
          "time": 120.25,
          "velocity": 0.8188976377952756
        },
        {
          "duration": 0.18333333333333712,
          "durationTicks": 44,
          "midi": 58,
          "name": "A#3",
          "ticks": 28920,
          "time": 120.5,
          "velocity": 0.8110236220472441
        },
        {
          "duration": 0.18333333333333712,
          "durationTicks": 44,
          "midi": 58,
          "name": "A#3",
          "ticks": 28980,
          "time": 120.75,
          "velocity": 0.8110236220472441
        },
        {
          "duration": 0.18333333333333712,
          "durationTicks": 44,
          "midi": 58,
          "name": "A#3",
          "ticks": 29040,
          "time": 121,
          "velocity": 0.8110236220472441
        },
        {
          "duration": 0.18333333333333712,
          "durationTicks": 44,
          "midi": 58,
          "name": "A#3",
          "ticks": 29100,
          "time": 121.25,
          "velocity": 0.8110236220472441
        },
        {
          "duration": 0.18333333333333712,
          "durationTicks": 44,
          "midi": 57,
          "name": "A3",
          "ticks": 29160,
          "time": 121.5,
          "velocity": 0.8110236220472441
        },
        {
          "duration": 0.18333333333333712,
          "durationTicks": 44,
          "midi": 57,
          "name": "A3",
          "ticks": 29220,
          "time": 121.75,
          "velocity": 0.8110236220472441
        },
        {
          "duration": 0.18333333333333712,
          "durationTicks": 44,
          "midi": 58,
          "name": "A#3",
          "ticks": 29280,
          "time": 122,
          "velocity": 0.8110236220472441
        },
        {
          "duration": 0.18333333333333712,
          "durationTicks": 44,
          "midi": 58,
          "name": "A#3",
          "ticks": 29340,
          "time": 122.25,
          "velocity": 0.8110236220472441
        },
        {
          "duration": 0.18333333333333712,
          "durationTicks": 44,
          "midi": 58,
          "name": "A#3",
          "ticks": 29400,
          "time": 122.5,
          "velocity": 0.8110236220472441
        },
        {
          "duration": 0.18333333333333712,
          "durationTicks": 44,
          "midi": 58,
          "name": "A#3",
          "ticks": 29460,
          "time": 122.75,
          "velocity": 0.8110236220472441
        },
        {
          "duration": 0.18333333333333712,
          "durationTicks": 44,
          "midi": 58,
          "name": "A#3",
          "ticks": 29520,
          "time": 123,
          "velocity": 0.8110236220472441
        },
        {
          "duration": 0.18333333333333712,
          "durationTicks": 44,
          "midi": 58,
          "name": "A#3",
          "ticks": 29580,
          "time": 123.25,
          "velocity": 0.8110236220472441
        },
        {
          "duration": 0.18333333333333712,
          "durationTicks": 44,
          "midi": 60,
          "name": "C4",
          "ticks": 29640,
          "time": 123.5,
          "velocity": 0.8110236220472441
        },
        {
          "duration": 0.18333333333333712,
          "durationTicks": 44,
          "midi": 60,
          "name": "C4",
          "ticks": 29700,
          "time": 123.75,
          "velocity": 0.8110236220472441
        },
        {
          "duration": 0.18333333333333712,
          "durationTicks": 44,
          "midi": 57,
          "name": "A3",
          "ticks": 29760,
          "time": 124,
          "velocity": 0.8110236220472441
        },
        {
          "duration": 0.18333333333333712,
          "durationTicks": 44,
          "midi": 57,
          "name": "A3",
          "ticks": 29820,
          "time": 124.25,
          "velocity": 0.8110236220472441
        },
        {
          "duration": 0.18333333333333712,
          "durationTicks": 44,
          "midi": 57,
          "name": "A3",
          "ticks": 29880,
          "time": 124.5,
          "velocity": 0.8110236220472441
        },
        {
          "duration": 0.18333333333333712,
          "durationTicks": 44,
          "midi": 57,
          "name": "A3",
          "ticks": 29940,
          "time": 124.75,
          "velocity": 0.8110236220472441
        },
        {
          "duration": 0.18333333333333712,
          "durationTicks": 44,
          "midi": 57,
          "name": "A3",
          "ticks": 30000,
          "time": 125,
          "velocity": 0.8110236220472441
        },
        {
          "duration": 0.18333333333333712,
          "durationTicks": 44,
          "midi": 57,
          "name": "A3",
          "ticks": 30060,
          "time": 125.25,
          "velocity": 0.8110236220472441
        },
        {
          "duration": 0.18333333333333712,
          "durationTicks": 44,
          "midi": 57,
          "name": "A3",
          "ticks": 30120,
          "time": 125.5,
          "velocity": 0.8110236220472441
        },
        {
          "duration": 0.18333333333333712,
          "durationTicks": 44,
          "midi": 57,
          "name": "A3",
          "ticks": 30180,
          "time": 125.75,
          "velocity": 0.8110236220472441
        },
        {
          "duration": 0.18333333333333712,
          "durationTicks": 44,
          "midi": 55,
          "name": "G3",
          "ticks": 30240,
          "time": 126,
          "velocity": 0.8110236220472441
        },
        {
          "duration": 0.18333333333333712,
          "durationTicks": 44,
          "midi": 55,
          "name": "G3",
          "ticks": 30300,
          "time": 126.25,
          "velocity": 0.8110236220472441
        },
        {
          "duration": 0.18333333333333712,
          "durationTicks": 44,
          "midi": 55,
          "name": "G3",
          "ticks": 30360,
          "time": 126.5,
          "velocity": 0.8110236220472441
        },
        {
          "duration": 0.18333333333333712,
          "durationTicks": 44,
          "midi": 55,
          "name": "G3",
          "ticks": 30420,
          "time": 126.75,
          "velocity": 0.8110236220472441
        },
        {
          "duration": 0.18333333333333712,
          "durationTicks": 44,
          "midi": 57,
          "name": "A3",
          "ticks": 30480,
          "time": 127,
          "velocity": 0.8110236220472441
        },
        {
          "duration": 0.18333333333333712,
          "durationTicks": 44,
          "midi": 57,
          "name": "A3",
          "ticks": 30540,
          "time": 127.25,
          "velocity": 0.8110236220472441
        },
        {
          "duration": 0.18333333333333712,
          "durationTicks": 44,
          "midi": 57,
          "name": "A3",
          "ticks": 30600,
          "time": 127.5,
          "velocity": 0.8110236220472441
        },
        {
          "duration": 0.18333333333333712,
          "durationTicks": 44,
          "midi": 57,
          "name": "A3",
          "ticks": 30660,
          "time": 127.75,
          "velocity": 0.8110236220472441
        },
        {
          "duration": 0.18333333333333712,
          "durationTicks": 44,
          "midi": 58,
          "name": "A#3",
          "ticks": 30720,
          "time": 128,
          "velocity": 0.8110236220472441
        },
        {
          "duration": 0.18333333333333712,
          "durationTicks": 44,
          "midi": 58,
          "name": "A#3",
          "ticks": 30780,
          "time": 128.25,
          "velocity": 0.8110236220472441
        },
        {
          "duration": 0.18333333333333712,
          "durationTicks": 44,
          "midi": 58,
          "name": "A#3",
          "ticks": 30840,
          "time": 128.5,
          "velocity": 0.8110236220472441
        },
        {
          "duration": 0.18333333333333712,
          "durationTicks": 44,
          "midi": 58,
          "name": "A#3",
          "ticks": 30900,
          "time": 128.75,
          "velocity": 0.8110236220472441
        },
        {
          "duration": 0.18333333333333712,
          "durationTicks": 44,
          "midi": 57,
          "name": "A3",
          "ticks": 30960,
          "time": 129,
          "velocity": 0.8110236220472441
        },
        {
          "duration": 0.18333333333333712,
          "durationTicks": 44,
          "midi": 57,
          "name": "A3",
          "ticks": 31020,
          "time": 129.25,
          "velocity": 0.8110236220472441
        },
        {
          "duration": 0.18333333333333712,
          "durationTicks": 44,
          "midi": 57,
          "name": "A3",
          "ticks": 31080,
          "time": 129.5,
          "velocity": 0.8110236220472441
        },
        {
          "duration": 0.18333333333333712,
          "durationTicks": 44,
          "midi": 57,
          "name": "A3",
          "ticks": 31140,
          "time": 129.75,
          "velocity": 0.8110236220472441
        },
        {
          "duration": 0.18333333333333712,
          "durationTicks": 44,
          "midi": 58,
          "name": "A#3",
          "ticks": 31200,
          "time": 130,
          "velocity": 0.8188976377952756
        },
        {
          "duration": 0.18333333333333712,
          "durationTicks": 44,
          "midi": 58,
          "name": "A#3",
          "ticks": 31260,
          "time": 130.25,
          "velocity": 0.8188976377952756
        },
        {
          "duration": 0.18333333333333712,
          "durationTicks": 44,
          "midi": 58,
          "name": "A#3",
          "ticks": 31320,
          "time": 130.5,
          "velocity": 0.8110236220472441
        },
        {
          "duration": 0.18333333333333712,
          "durationTicks": 44,
          "midi": 58,
          "name": "A#3",
          "ticks": 31380,
          "time": 130.75,
          "velocity": 0.8110236220472441
        },
        {
          "duration": 0.18333333333333712,
          "durationTicks": 44,
          "midi": 58,
          "name": "A#3",
          "ticks": 31440,
          "time": 131,
          "velocity": 0.8110236220472441
        },
        {
          "duration": 0.18333333333333712,
          "durationTicks": 44,
          "midi": 58,
          "name": "A#3",
          "ticks": 31500,
          "time": 131.25,
          "velocity": 0.8110236220472441
        },
        {
          "duration": 0.18333333333333712,
          "durationTicks": 44,
          "midi": 57,
          "name": "A3",
          "ticks": 31560,
          "time": 131.5,
          "velocity": 0.8110236220472441
        },
        {
          "duration": 0.18333333333333712,
          "durationTicks": 44,
          "midi": 57,
          "name": "A3",
          "ticks": 31620,
          "time": 131.75,
          "velocity": 0.8110236220472441
        },
        {
          "duration": 0.18333333333333712,
          "durationTicks": 44,
          "midi": 58,
          "name": "A#3",
          "ticks": 31680,
          "time": 132,
          "velocity": 0.8110236220472441
        },
        {
          "duration": 0.18333333333333712,
          "durationTicks": 44,
          "midi": 58,
          "name": "A#3",
          "ticks": 31740,
          "time": 132.25,
          "velocity": 0.8110236220472441
        },
        {
          "duration": 0.18333333333333712,
          "durationTicks": 44,
          "midi": 58,
          "name": "A#3",
          "ticks": 31800,
          "time": 132.5,
          "velocity": 0.8110236220472441
        },
        {
          "duration": 0.18333333333333712,
          "durationTicks": 44,
          "midi": 58,
          "name": "A#3",
          "ticks": 31860,
          "time": 132.75,
          "velocity": 0.8110236220472441
        },
        {
          "duration": 0.18333333333333712,
          "durationTicks": 44,
          "midi": 58,
          "name": "A#3",
          "ticks": 31920,
          "time": 133,
          "velocity": 0.8110236220472441
        },
        {
          "duration": 0.18333333333333712,
          "durationTicks": 44,
          "midi": 58,
          "name": "A#3",
          "ticks": 31980,
          "time": 133.25,
          "velocity": 0.8110236220472441
        },
        {
          "duration": 0.18333333333333712,
          "durationTicks": 44,
          "midi": 60,
          "name": "C4",
          "ticks": 32040,
          "time": 133.5,
          "velocity": 0.8110236220472441
        },
        {
          "duration": 0.18333333333333712,
          "durationTicks": 44,
          "midi": 60,
          "name": "C4",
          "ticks": 32100,
          "time": 133.75,
          "velocity": 0.8110236220472441
        },
        {
          "duration": 0.18333333333333712,
          "durationTicks": 44,
          "midi": 57,
          "name": "A3",
          "ticks": 32160,
          "time": 134,
          "velocity": 0.8110236220472441
        },
        {
          "duration": 0.18333333333333712,
          "durationTicks": 44,
          "midi": 57,
          "name": "A3",
          "ticks": 32220,
          "time": 134.25,
          "velocity": 0.8110236220472441
        },
        {
          "duration": 0.18333333333333712,
          "durationTicks": 44,
          "midi": 57,
          "name": "A3",
          "ticks": 32280,
          "time": 134.5,
          "velocity": 0.8110236220472441
        },
        {
          "duration": 0.18333333333333712,
          "durationTicks": 44,
          "midi": 57,
          "name": "A3",
          "ticks": 32340,
          "time": 134.75,
          "velocity": 0.8110236220472441
        },
        {
          "duration": 0.18333333333333712,
          "durationTicks": 44,
          "midi": 57,
          "name": "A3",
          "ticks": 32400,
          "time": 135,
          "velocity": 0.8110236220472441
        },
        {
          "duration": 0.18333333333333712,
          "durationTicks": 44,
          "midi": 57,
          "name": "A3",
          "ticks": 32460,
          "time": 135.25,
          "velocity": 0.8110236220472441
        },
        {
          "duration": 0.18333333333333712,
          "durationTicks": 44,
          "midi": 57,
          "name": "A3",
          "ticks": 32520,
          "time": 135.5,
          "velocity": 0.8110236220472441
        },
        {
          "duration": 0.18333333333333712,
          "durationTicks": 44,
          "midi": 57,
          "name": "A3",
          "ticks": 32580,
          "time": 135.75,
          "velocity": 0.8110236220472441
        },
        {
          "duration": 0.18333333333333712,
          "durationTicks": 44,
          "midi": 55,
          "name": "G3",
          "ticks": 32640,
          "time": 136,
          "velocity": 0.8110236220472441
        },
        {
          "duration": 0.18333333333333712,
          "durationTicks": 44,
          "midi": 55,
          "name": "G3",
          "ticks": 32700,
          "time": 136.25,
          "velocity": 0.8110236220472441
        },
        {
          "duration": 0.18333333333333712,
          "durationTicks": 44,
          "midi": 55,
          "name": "G3",
          "ticks": 32760,
          "time": 136.5,
          "velocity": 0.8110236220472441
        },
        {
          "duration": 0.18333333333333712,
          "durationTicks": 44,
          "midi": 55,
          "name": "G3",
          "ticks": 32820,
          "time": 136.75,
          "velocity": 0.8110236220472441
        },
        {
          "duration": 0.18333333333333712,
          "durationTicks": 44,
          "midi": 55,
          "name": "G3",
          "ticks": 32880,
          "time": 137,
          "velocity": 0.8110236220472441
        },
        {
          "duration": 0.18333333333333712,
          "durationTicks": 44,
          "midi": 55,
          "name": "G3",
          "ticks": 32940,
          "time": 137.25,
          "velocity": 0.8110236220472441
        },
        {
          "duration": 0.18333333333333712,
          "durationTicks": 44,
          "midi": 57,
          "name": "A3",
          "ticks": 33000,
          "time": 137.5,
          "velocity": 0.8110236220472441
        },
        {
          "duration": 0.18333333333333712,
          "durationTicks": 44,
          "midi": 57,
          "name": "A3",
          "ticks": 33060,
          "time": 137.75,
          "velocity": 0.8110236220472441
        },
        {
          "duration": 0.18333333333333712,
          "durationTicks": 44,
          "midi": 58,
          "name": "A#3",
          "ticks": 33120,
          "time": 138,
          "velocity": 0.8188976377952756
        },
        {
          "duration": 0.18333333333333712,
          "durationTicks": 44,
          "midi": 58,
          "name": "A#3",
          "ticks": 33180,
          "time": 138.25,
          "velocity": 0.8188976377952756
        },
        {
          "duration": 0.18333333333333712,
          "durationTicks": 44,
          "midi": 58,
          "name": "A#3",
          "ticks": 33240,
          "time": 138.5,
          "velocity": 0.8110236220472441
        },
        {
          "duration": 0.18333333333333712,
          "durationTicks": 44,
          "midi": 58,
          "name": "A#3",
          "ticks": 33300,
          "time": 138.75,
          "velocity": 0.8110236220472441
        },
        {
          "duration": 0.18333333333333712,
          "durationTicks": 44,
          "midi": 58,
          "name": "A#3",
          "ticks": 33360,
          "time": 139,
          "velocity": 0.8110236220472441
        },
        {
          "duration": 0.18333333333333712,
          "durationTicks": 44,
          "midi": 58,
          "name": "A#3",
          "ticks": 33420,
          "time": 139.25,
          "velocity": 0.8110236220472441
        },
        {
          "duration": 0.18333333333333712,
          "durationTicks": 44,
          "midi": 57,
          "name": "A3",
          "ticks": 33480,
          "time": 139.5,
          "velocity": 0.8110236220472441
        },
        {
          "duration": 0.18333333333333712,
          "durationTicks": 44,
          "midi": 57,
          "name": "A3",
          "ticks": 33540,
          "time": 139.75,
          "velocity": 0.8110236220472441
        },
        {
          "duration": 0.18333333333333712,
          "durationTicks": 44,
          "midi": 58,
          "name": "A#3",
          "ticks": 33600,
          "time": 140,
          "velocity": 0.8110236220472441
        },
        {
          "duration": 0.18333333333333712,
          "durationTicks": 44,
          "midi": 58,
          "name": "A#3",
          "ticks": 33660,
          "time": 140.25,
          "velocity": 0.8110236220472441
        },
        {
          "duration": 0.18333333333333712,
          "durationTicks": 44,
          "midi": 58,
          "name": "A#3",
          "ticks": 33720,
          "time": 140.5,
          "velocity": 0.8110236220472441
        },
        {
          "duration": 0.18333333333333712,
          "durationTicks": 44,
          "midi": 58,
          "name": "A#3",
          "ticks": 33780,
          "time": 140.75,
          "velocity": 0.8110236220472441
        },
        {
          "duration": 0.18333333333333712,
          "durationTicks": 44,
          "midi": 58,
          "name": "A#3",
          "ticks": 33840,
          "time": 141,
          "velocity": 0.8110236220472441
        },
        {
          "duration": 0.18333333333333712,
          "durationTicks": 44,
          "midi": 58,
          "name": "A#3",
          "ticks": 33900,
          "time": 141.25,
          "velocity": 0.8110236220472441
        },
        {
          "duration": 0.18333333333333712,
          "durationTicks": 44,
          "midi": 60,
          "name": "C4",
          "ticks": 33960,
          "time": 141.5,
          "velocity": 0.8110236220472441
        },
        {
          "duration": 0.18333333333333712,
          "durationTicks": 44,
          "midi": 60,
          "name": "C4",
          "ticks": 34020,
          "time": 141.75,
          "velocity": 0.8110236220472441
        },
        {
          "duration": 0.18333333333333712,
          "durationTicks": 44,
          "midi": 57,
          "name": "A3",
          "ticks": 34080,
          "time": 142,
          "velocity": 0.8110236220472441
        },
        {
          "duration": 0.18333333333333712,
          "durationTicks": 44,
          "midi": 57,
          "name": "A3",
          "ticks": 34140,
          "time": 142.25,
          "velocity": 0.8110236220472441
        },
        {
          "duration": 0.18333333333333712,
          "durationTicks": 44,
          "midi": 57,
          "name": "A3",
          "ticks": 34200,
          "time": 142.5,
          "velocity": 0.8110236220472441
        },
        {
          "duration": 0.18333333333333712,
          "durationTicks": 44,
          "midi": 57,
          "name": "A3",
          "ticks": 34260,
          "time": 142.75,
          "velocity": 0.8110236220472441
        },
        {
          "duration": 0.18333333333333712,
          "durationTicks": 44,
          "midi": 57,
          "name": "A3",
          "ticks": 34320,
          "time": 143,
          "velocity": 0.8110236220472441
        },
        {
          "duration": 0.18333333333333712,
          "durationTicks": 44,
          "midi": 57,
          "name": "A3",
          "ticks": 34380,
          "time": 143.25,
          "velocity": 0.8110236220472441
        },
        {
          "duration": 0.18333333333333712,
          "durationTicks": 44,
          "midi": 57,
          "name": "A3",
          "ticks": 34440,
          "time": 143.5,
          "velocity": 0.8110236220472441
        },
        {
          "duration": 0.18333333333333712,
          "durationTicks": 44,
          "midi": 57,
          "name": "A3",
          "ticks": 34500,
          "time": 143.75,
          "velocity": 0.8110236220472441
        },
        {
          "duration": 0.18333333333333712,
          "durationTicks": 44,
          "midi": 55,
          "name": "G3",
          "ticks": 34560,
          "time": 144,
          "velocity": 0.8110236220472441
        },
        {
          "duration": 0.18333333333333712,
          "durationTicks": 44,
          "midi": 55,
          "name": "G3",
          "ticks": 34620,
          "time": 144.25,
          "velocity": 0.8110236220472441
        },
        {
          "duration": 0.18333333333333712,
          "durationTicks": 44,
          "midi": 55,
          "name": "G3",
          "ticks": 34680,
          "time": 144.5,
          "velocity": 0.8110236220472441
        },
        {
          "duration": 0.18333333333333712,
          "durationTicks": 44,
          "midi": 55,
          "name": "G3",
          "ticks": 34740,
          "time": 144.75,
          "velocity": 0.8110236220472441
        },
        {
          "duration": 0.18333333333333712,
          "durationTicks": 44,
          "midi": 57,
          "name": "A3",
          "ticks": 34800,
          "time": 145,
          "velocity": 0.8110236220472441
        },
        {
          "duration": 0.18333333333333712,
          "durationTicks": 44,
          "midi": 57,
          "name": "A3",
          "ticks": 34860,
          "time": 145.25,
          "velocity": 0.8110236220472441
        },
        {
          "duration": 0.18333333333333712,
          "durationTicks": 44,
          "midi": 57,
          "name": "A3",
          "ticks": 34920,
          "time": 145.5,
          "velocity": 0.8110236220472441
        },
        {
          "duration": 0.18333333333333712,
          "durationTicks": 44,
          "midi": 57,
          "name": "A3",
          "ticks": 34980,
          "time": 145.75,
          "velocity": 0.8110236220472441
        },
        {
          "duration": 0.18333333333333712,
          "durationTicks": 44,
          "midi": 58,
          "name": "A#3",
          "ticks": 35040,
          "time": 146,
          "velocity": 0.8110236220472441
        },
        {
          "duration": 0.18333333333333712,
          "durationTicks": 44,
          "midi": 58,
          "name": "A#3",
          "ticks": 35100,
          "time": 146.25,
          "velocity": 0.8110236220472441
        },
        {
          "duration": 0.18333333333333712,
          "durationTicks": 44,
          "midi": 58,
          "name": "A#3",
          "ticks": 35160,
          "time": 146.5,
          "velocity": 0.8110236220472441
        },
        {
          "duration": 0.18333333333333712,
          "durationTicks": 44,
          "midi": 58,
          "name": "A#3",
          "ticks": 35220,
          "time": 146.75,
          "velocity": 0.8110236220472441
        },
        {
          "duration": 0.18333333333333712,
          "durationTicks": 44,
          "midi": 57,
          "name": "A3",
          "ticks": 35280,
          "time": 147,
          "velocity": 0.8110236220472441
        },
        {
          "duration": 0.18333333333333712,
          "durationTicks": 44,
          "midi": 57,
          "name": "A3",
          "ticks": 35340,
          "time": 147.25,
          "velocity": 0.8110236220472441
        },
        {
          "duration": 0.18333333333333712,
          "durationTicks": 44,
          "midi": 57,
          "name": "A3",
          "ticks": 35400,
          "time": 147.5,
          "velocity": 0.8110236220472441
        },
        {
          "duration": 0.18333333333333712,
          "durationTicks": 44,
          "midi": 57,
          "name": "A3",
          "ticks": 35460,
          "time": 147.75,
          "velocity": 0.8110236220472441
        },
        {
          "duration": 0.18333333333333712,
          "durationTicks": 44,
          "midi": 58,
          "name": "A#3",
          "ticks": 35520,
          "time": 148,
          "velocity": 0.8188976377952756
        },
        {
          "duration": 0.18333333333333712,
          "durationTicks": 44,
          "midi": 58,
          "name": "A#3",
          "ticks": 35580,
          "time": 148.25,
          "velocity": 0.8188976377952756
        },
        {
          "duration": 0.18333333333333712,
          "durationTicks": 44,
          "midi": 58,
          "name": "A#3",
          "ticks": 35640,
          "time": 148.5,
          "velocity": 0.8110236220472441
        },
        {
          "duration": 0.18333333333333712,
          "durationTicks": 44,
          "midi": 58,
          "name": "A#3",
          "ticks": 35700,
          "time": 148.75,
          "velocity": 0.8110236220472441
        },
        {
          "duration": 0.18333333333333712,
          "durationTicks": 44,
          "midi": 58,
          "name": "A#3",
          "ticks": 35760,
          "time": 149,
          "velocity": 0.8110236220472441
        },
        {
          "duration": 0.18333333333333712,
          "durationTicks": 44,
          "midi": 58,
          "name": "A#3",
          "ticks": 35820,
          "time": 149.25,
          "velocity": 0.8110236220472441
        },
        {
          "duration": 0.18333333333333712,
          "durationTicks": 44,
          "midi": 57,
          "name": "A3",
          "ticks": 35880,
          "time": 149.5,
          "velocity": 0.8110236220472441
        },
        {
          "duration": 0.18333333333333712,
          "durationTicks": 44,
          "midi": 57,
          "name": "A3",
          "ticks": 35940,
          "time": 149.75,
          "velocity": 0.8110236220472441
        },
        {
          "duration": 0.18333333333333712,
          "durationTicks": 44,
          "midi": 58,
          "name": "A#3",
          "ticks": 36000,
          "time": 150,
          "velocity": 0.8110236220472441
        },
        {
          "duration": 0.18333333333333712,
          "durationTicks": 44,
          "midi": 58,
          "name": "A#3",
          "ticks": 36060,
          "time": 150.25,
          "velocity": 0.8110236220472441
        },
        {
          "duration": 0.18333333333333712,
          "durationTicks": 44,
          "midi": 58,
          "name": "A#3",
          "ticks": 36120,
          "time": 150.5,
          "velocity": 0.8110236220472441
        },
        {
          "duration": 0.18333333333333712,
          "durationTicks": 44,
          "midi": 58,
          "name": "A#3",
          "ticks": 36180,
          "time": 150.75,
          "velocity": 0.8110236220472441
        },
        {
          "duration": 0.18333333333333712,
          "durationTicks": 44,
          "midi": 58,
          "name": "A#3",
          "ticks": 36240,
          "time": 151,
          "velocity": 0.8110236220472441
        },
        {
          "duration": 0.18333333333333712,
          "durationTicks": 44,
          "midi": 58,
          "name": "A#3",
          "ticks": 36300,
          "time": 151.25,
          "velocity": 0.8110236220472441
        },
        {
          "duration": 0.18333333333333712,
          "durationTicks": 44,
          "midi": 60,
          "name": "C4",
          "ticks": 36360,
          "time": 151.5,
          "velocity": 0.8110236220472441
        },
        {
          "duration": 0.18333333333333712,
          "durationTicks": 44,
          "midi": 60,
          "name": "C4",
          "ticks": 36420,
          "time": 151.75,
          "velocity": 0.8110236220472441
        },
        {
          "duration": 0.18333333333333712,
          "durationTicks": 44,
          "midi": 57,
          "name": "A3",
          "ticks": 36480,
          "time": 152,
          "velocity": 0.8110236220472441
        },
        {
          "duration": 0.18333333333333712,
          "durationTicks": 44,
          "midi": 57,
          "name": "A3",
          "ticks": 36540,
          "time": 152.25,
          "velocity": 0.8110236220472441
        },
        {
          "duration": 0.18333333333333712,
          "durationTicks": 44,
          "midi": 57,
          "name": "A3",
          "ticks": 36600,
          "time": 152.5,
          "velocity": 0.8110236220472441
        },
        {
          "duration": 0.18333333333333712,
          "durationTicks": 44,
          "midi": 57,
          "name": "A3",
          "ticks": 36660,
          "time": 152.75,
          "velocity": 0.8110236220472441
        },
        {
          "duration": 0.18333333333333712,
          "durationTicks": 44,
          "midi": 57,
          "name": "A3",
          "ticks": 36720,
          "time": 153,
          "velocity": 0.8110236220472441
        },
        {
          "duration": 0.18333333333333712,
          "durationTicks": 44,
          "midi": 57,
          "name": "A3",
          "ticks": 36780,
          "time": 153.25,
          "velocity": 0.8110236220472441
        },
        {
          "duration": 0.18333333333333712,
          "durationTicks": 44,
          "midi": 57,
          "name": "A3",
          "ticks": 36840,
          "time": 153.5,
          "velocity": 0.8110236220472441
        },
        {
          "duration": 0.18333333333333712,
          "durationTicks": 44,
          "midi": 57,
          "name": "A3",
          "ticks": 36900,
          "time": 153.75,
          "velocity": 0.8110236220472441
        },
        {
          "duration": 0.18333333333333712,
          "durationTicks": 44,
          "midi": 55,
          "name": "G3",
          "ticks": 36960,
          "time": 154,
          "velocity": 0.8110236220472441
        },
        {
          "duration": 0.18333333333333712,
          "durationTicks": 44,
          "midi": 55,
          "name": "G3",
          "ticks": 37020,
          "time": 154.25,
          "velocity": 0.8110236220472441
        },
        {
          "duration": 0.18333333333333712,
          "durationTicks": 44,
          "midi": 55,
          "name": "G3",
          "ticks": 37080,
          "time": 154.5,
          "velocity": 0.8110236220472441
        },
        {
          "duration": 0.18333333333333712,
          "durationTicks": 44,
          "midi": 55,
          "name": "G3",
          "ticks": 37140,
          "time": 154.75,
          "velocity": 0.8110236220472441
        },
        {
          "duration": 0.18333333333333712,
          "durationTicks": 44,
          "midi": 57,
          "name": "A3",
          "ticks": 37200,
          "time": 155,
          "velocity": 0.8110236220472441
        },
        {
          "duration": 0.18333333333333712,
          "durationTicks": 44,
          "midi": 57,
          "name": "A3",
          "ticks": 37260,
          "time": 155.25,
          "velocity": 0.8110236220472441
        },
        {
          "duration": 0.18333333333333712,
          "durationTicks": 44,
          "midi": 57,
          "name": "A3",
          "ticks": 37320,
          "time": 155.5,
          "velocity": 0.8110236220472441
        },
        {
          "duration": 0.18333333333333712,
          "durationTicks": 44,
          "midi": 57,
          "name": "A3",
          "ticks": 37380,
          "time": 155.75,
          "velocity": 0.8110236220472441
        },
        {
          "duration": 0.18333333333333712,
          "durationTicks": 44,
          "midi": 58,
          "name": "A#3",
          "ticks": 37440,
          "time": 156,
          "velocity": 0.8188976377952756
        },
        {
          "duration": 0.18333333333333712,
          "durationTicks": 44,
          "midi": 58,
          "name": "A#3",
          "ticks": 37500,
          "time": 156.25,
          "velocity": 0.8188976377952756
        },
        {
          "duration": 0.18333333333333712,
          "durationTicks": 44,
          "midi": 58,
          "name": "A#3",
          "ticks": 37560,
          "time": 156.5,
          "velocity": 0.8110236220472441
        },
        {
          "duration": 0.18333333333333712,
          "durationTicks": 44,
          "midi": 58,
          "name": "A#3",
          "ticks": 37620,
          "time": 156.75,
          "velocity": 0.8110236220472441
        },
        {
          "duration": 0.18333333333333712,
          "durationTicks": 44,
          "midi": 58,
          "name": "A#3",
          "ticks": 37680,
          "time": 157,
          "velocity": 0.8110236220472441
        },
        {
          "duration": 0.18333333333333712,
          "durationTicks": 44,
          "midi": 58,
          "name": "A#3",
          "ticks": 37740,
          "time": 157.25,
          "velocity": 0.8110236220472441
        },
        {
          "duration": 0.18333333333333712,
          "durationTicks": 44,
          "midi": 57,
          "name": "A3",
          "ticks": 37800,
          "time": 157.5,
          "velocity": 0.8110236220472441
        },
        {
          "duration": 0.18333333333333712,
          "durationTicks": 44,
          "midi": 57,
          "name": "A3",
          "ticks": 37860,
          "time": 157.75,
          "velocity": 0.8110236220472441
        },
        {
          "duration": 0.18333333333333712,
          "durationTicks": 44,
          "midi": 58,
          "name": "A#3",
          "ticks": 37920,
          "time": 158,
          "velocity": 0.8110236220472441
        },
        {
          "duration": 0.18333333333333712,
          "durationTicks": 44,
          "midi": 58,
          "name": "A#3",
          "ticks": 37980,
          "time": 158.25,
          "velocity": 0.8110236220472441
        },
        {
          "duration": 0.18333333333333712,
          "durationTicks": 44,
          "midi": 58,
          "name": "A#3",
          "ticks": 38040,
          "time": 158.5,
          "velocity": 0.8110236220472441
        },
        {
          "duration": 0.18333333333333712,
          "durationTicks": 44,
          "midi": 58,
          "name": "A#3",
          "ticks": 38100,
          "time": 158.75,
          "velocity": 0.8110236220472441
        },
        {
          "duration": 0.18333333333333712,
          "durationTicks": 44,
          "midi": 58,
          "name": "A#3",
          "ticks": 38160,
          "time": 159,
          "velocity": 0.8110236220472441
        },
        {
          "duration": 0.18333333333333712,
          "durationTicks": 44,
          "midi": 58,
          "name": "A#3",
          "ticks": 38220,
          "time": 159.25,
          "velocity": 0.8110236220472441
        },
        {
          "duration": 0.18333333333333712,
          "durationTicks": 44,
          "midi": 60,
          "name": "C4",
          "ticks": 38280,
          "time": 159.5,
          "velocity": 0.8110236220472441
        },
        {
          "duration": 0.18333333333333712,
          "durationTicks": 44,
          "midi": 60,
          "name": "C4",
          "ticks": 38340,
          "time": 159.75,
          "velocity": 0.8110236220472441
        },
        {
          "duration": 0.18333333333333712,
          "durationTicks": 44,
          "midi": 57,
          "name": "A3",
          "ticks": 38400,
          "time": 160,
          "velocity": 0.8110236220472441
        },
        {
          "duration": 0.18333333333333712,
          "durationTicks": 44,
          "midi": 57,
          "name": "A3",
          "ticks": 38460,
          "time": 160.25,
          "velocity": 0.8110236220472441
        },
        {
          "duration": 0.18333333333333712,
          "durationTicks": 44,
          "midi": 57,
          "name": "A3",
          "ticks": 38520,
          "time": 160.5,
          "velocity": 0.8110236220472441
        },
        {
          "duration": 0.18333333333333712,
          "durationTicks": 44,
          "midi": 57,
          "name": "A3",
          "ticks": 38580,
          "time": 160.75,
          "velocity": 0.8110236220472441
        },
        {
          "duration": 0.18333333333333712,
          "durationTicks": 44,
          "midi": 57,
          "name": "A3",
          "ticks": 38640,
          "time": 161,
          "velocity": 0.8110236220472441
        },
        {
          "duration": 0.18333333333333712,
          "durationTicks": 44,
          "midi": 57,
          "name": "A3",
          "ticks": 38700,
          "time": 161.25,
          "velocity": 0.8110236220472441
        },
        {
          "duration": 0.18333333333333712,
          "durationTicks": 44,
          "midi": 57,
          "name": "A3",
          "ticks": 38760,
          "time": 161.5,
          "velocity": 0.8110236220472441
        },
        {
          "duration": 0.18333333333333712,
          "durationTicks": 44,
          "midi": 57,
          "name": "A3",
          "ticks": 38820,
          "time": 161.75,
          "velocity": 0.8110236220472441
        },
        {
          "duration": 0.18333333333333712,
          "durationTicks": 44,
          "midi": 55,
          "name": "G3",
          "ticks": 38880,
          "time": 162,
          "velocity": 0.8110236220472441
        },
        {
          "duration": 0.18333333333333712,
          "durationTicks": 44,
          "midi": 55,
          "name": "G3",
          "ticks": 38940,
          "time": 162.25,
          "velocity": 0.8110236220472441
        },
        {
          "duration": 0.18333333333333712,
          "durationTicks": 44,
          "midi": 55,
          "name": "G3",
          "ticks": 39000,
          "time": 162.5,
          "velocity": 0.8110236220472441
        },
        {
          "duration": 0.18333333333333712,
          "durationTicks": 44,
          "midi": 55,
          "name": "G3",
          "ticks": 39060,
          "time": 162.75,
          "velocity": 0.8110236220472441
        },
        {
          "duration": 0.18333333333333712,
          "durationTicks": 44,
          "midi": 55,
          "name": "G3",
          "ticks": 39120,
          "time": 163,
          "velocity": 0.8110236220472441
        },
        {
          "duration": 0.18333333333333712,
          "durationTicks": 44,
          "midi": 55,
          "name": "G3",
          "ticks": 39180,
          "time": 163.25,
          "velocity": 0.8110236220472441
        },
        {
          "duration": 0.18333333333333712,
          "durationTicks": 44,
          "midi": 55,
          "name": "G3",
          "ticks": 39240,
          "time": 163.5,
          "velocity": 0.8110236220472441
        },
        {
          "duration": 0.18333333333333712,
          "durationTicks": 44,
          "midi": 55,
          "name": "G3",
          "ticks": 39300,
          "time": 163.75,
          "velocity": 0.8110236220472441
        },
        {
          "duration": 0.18333333333333712,
          "durationTicks": 44,
          "midi": 57,
          "name": "A3",
          "ticks": 39360,
          "time": 164,
          "velocity": 0.8110236220472441
        },
        {
          "duration": 0.18333333333333712,
          "durationTicks": 44,
          "midi": 57,
          "name": "A3",
          "ticks": 39420,
          "time": 164.25,
          "velocity": 0.8110236220472441
        },
        {
          "duration": 0.18333333333333712,
          "durationTicks": 44,
          "midi": 57,
          "name": "A3",
          "ticks": 39480,
          "time": 164.5,
          "velocity": 0.8110236220472441
        },
        {
          "duration": 0.18333333333333712,
          "durationTicks": 44,
          "midi": 57,
          "name": "A3",
          "ticks": 39540,
          "time": 164.75,
          "velocity": 0.8110236220472441
        },
        {
          "duration": 0.18333333333333712,
          "durationTicks": 44,
          "midi": 57,
          "name": "A3",
          "ticks": 39600,
          "time": 165,
          "velocity": 0.8110236220472441
        },
        {
          "duration": 0.18333333333333712,
          "durationTicks": 44,
          "midi": 57,
          "name": "A3",
          "ticks": 39660,
          "time": 165.25,
          "velocity": 0.8110236220472441
        },
        {
          "duration": 0.18333333333333712,
          "durationTicks": 44,
          "midi": 58,
          "name": "A#3",
          "ticks": 39840,
          "time": 166,
          "velocity": 0.8188976377952756
        },
        {
          "duration": 0.18333333333333712,
          "durationTicks": 44,
          "midi": 58,
          "name": "A#3",
          "ticks": 39900,
          "time": 166.25,
          "velocity": 0.8188976377952756
        },
        {
          "duration": 0.18333333333333712,
          "durationTicks": 44,
          "midi": 58,
          "name": "A#3",
          "ticks": 39960,
          "time": 166.5,
          "velocity": 0.8110236220472441
        },
        {
          "duration": 0.18333333333333712,
          "durationTicks": 44,
          "midi": 58,
          "name": "A#3",
          "ticks": 40020,
          "time": 166.75,
          "velocity": 0.8110236220472441
        },
        {
          "duration": 0.18333333333333712,
          "durationTicks": 44,
          "midi": 58,
          "name": "A#3",
          "ticks": 40080,
          "time": 167,
          "velocity": 0.8110236220472441
        },
        {
          "duration": 0.18333333333333712,
          "durationTicks": 44,
          "midi": 58,
          "name": "A#3",
          "ticks": 40140,
          "time": 167.25,
          "velocity": 0.8110236220472441
        },
        {
          "duration": 0.18333333333333712,
          "durationTicks": 44,
          "midi": 57,
          "name": "A3",
          "ticks": 40200,
          "time": 167.5,
          "velocity": 0.8110236220472441
        },
        {
          "duration": 0.18333333333333712,
          "durationTicks": 44,
          "midi": 57,
          "name": "A3",
          "ticks": 40260,
          "time": 167.75,
          "velocity": 0.8110236220472441
        },
        {
          "duration": 0.18333333333333712,
          "durationTicks": 44,
          "midi": 58,
          "name": "A#3",
          "ticks": 40320,
          "time": 168,
          "velocity": 0.8110236220472441
        },
        {
          "duration": 0.18333333333333712,
          "durationTicks": 44,
          "midi": 58,
          "name": "A#3",
          "ticks": 40380,
          "time": 168.25,
          "velocity": 0.8110236220472441
        },
        {
          "duration": 0.18333333333333712,
          "durationTicks": 44,
          "midi": 58,
          "name": "A#3",
          "ticks": 40440,
          "time": 168.5,
          "velocity": 0.8110236220472441
        },
        {
          "duration": 0.18333333333333712,
          "durationTicks": 44,
          "midi": 58,
          "name": "A#3",
          "ticks": 40500,
          "time": 168.75,
          "velocity": 0.8110236220472441
        },
        {
          "duration": 0.18333333333333712,
          "durationTicks": 44,
          "midi": 58,
          "name": "A#3",
          "ticks": 40560,
          "time": 169,
          "velocity": 0.8110236220472441
        },
        {
          "duration": 0.18333333333333712,
          "durationTicks": 44,
          "midi": 58,
          "name": "A#3",
          "ticks": 40620,
          "time": 169.25,
          "velocity": 0.8110236220472441
        },
        {
          "duration": 0.18333333333333712,
          "durationTicks": 44,
          "midi": 60,
          "name": "C4",
          "ticks": 40680,
          "time": 169.5,
          "velocity": 0.8110236220472441
        },
        {
          "duration": 0.18333333333333712,
          "durationTicks": 44,
          "midi": 60,
          "name": "C4",
          "ticks": 40740,
          "time": 169.75,
          "velocity": 0.8110236220472441
        },
        {
          "duration": 0.18333333333333712,
          "durationTicks": 44,
          "midi": 57,
          "name": "A3",
          "ticks": 40800,
          "time": 170,
          "velocity": 0.8110236220472441
        },
        {
          "duration": 0.18333333333333712,
          "durationTicks": 44,
          "midi": 57,
          "name": "A3",
          "ticks": 40860,
          "time": 170.25,
          "velocity": 0.8110236220472441
        },
        {
          "duration": 0.18333333333333712,
          "durationTicks": 44,
          "midi": 57,
          "name": "A3",
          "ticks": 40920,
          "time": 170.5,
          "velocity": 0.8110236220472441
        },
        {
          "duration": 0.18333333333333712,
          "durationTicks": 44,
          "midi": 57,
          "name": "A3",
          "ticks": 40980,
          "time": 170.75,
          "velocity": 0.8110236220472441
        },
        {
          "duration": 0.18333333333333712,
          "durationTicks": 44,
          "midi": 57,
          "name": "A3",
          "ticks": 41040,
          "time": 171,
          "velocity": 0.8110236220472441
        },
        {
          "duration": 0.18333333333333712,
          "durationTicks": 44,
          "midi": 57,
          "name": "A3",
          "ticks": 41100,
          "time": 171.25,
          "velocity": 0.8110236220472441
        },
        {
          "duration": 0.18333333333333712,
          "durationTicks": 44,
          "midi": 57,
          "name": "A3",
          "ticks": 41160,
          "time": 171.5,
          "velocity": 0.8110236220472441
        },
        {
          "duration": 0.18333333333333712,
          "durationTicks": 44,
          "midi": 57,
          "name": "A3",
          "ticks": 41220,
          "time": 171.75,
          "velocity": 0.8110236220472441
        },
        {
          "duration": 0.18333333333333712,
          "durationTicks": 44,
          "midi": 55,
          "name": "G3",
          "ticks": 41280,
          "time": 172,
          "velocity": 0.8110236220472441
        },
        {
          "duration": 0.18333333333333712,
          "durationTicks": 44,
          "midi": 55,
          "name": "G3",
          "ticks": 41340,
          "time": 172.25,
          "velocity": 0.8110236220472441
        },
        {
          "duration": 0.18333333333333712,
          "durationTicks": 44,
          "midi": 55,
          "name": "G3",
          "ticks": 41400,
          "time": 172.5,
          "velocity": 0.8110236220472441
        },
        {
          "duration": 0.18333333333333712,
          "durationTicks": 44,
          "midi": 55,
          "name": "G3",
          "ticks": 41460,
          "time": 172.75,
          "velocity": 0.8110236220472441
        },
        {
          "duration": 0.18333333333333712,
          "durationTicks": 44,
          "midi": 55,
          "name": "G3",
          "ticks": 41520,
          "time": 173,
          "velocity": 0.8110236220472441
        },
        {
          "duration": 0.18333333333333712,
          "durationTicks": 44,
          "midi": 55,
          "name": "G3",
          "ticks": 41580,
          "time": 173.25,
          "velocity": 0.8110236220472441
        },
        {
          "duration": 0.18333333333333712,
          "durationTicks": 44,
          "midi": 57,
          "name": "A3",
          "ticks": 41640,
          "time": 173.5,
          "velocity": 0.8110236220472441
        },
        {
          "duration": 0.18333333333333712,
          "durationTicks": 44,
          "midi": 57,
          "name": "A3",
          "ticks": 41700,
          "time": 173.75,
          "velocity": 0.8110236220472441
        },
        {
          "duration": 0.18333333333333712,
          "durationTicks": 44,
          "midi": 58,
          "name": "A#3",
          "ticks": 41760,
          "time": 174,
          "velocity": 0.8188976377952756
        },
        {
          "duration": 0.18333333333333712,
          "durationTicks": 44,
          "midi": 58,
          "name": "A#3",
          "ticks": 41820,
          "time": 174.25,
          "velocity": 0.8188976377952756
        },
        {
          "duration": 0.18333333333333712,
          "durationTicks": 44,
          "midi": 58,
          "name": "A#3",
          "ticks": 41880,
          "time": 174.5,
          "velocity": 0.8110236220472441
        },
        {
          "duration": 0.18333333333333712,
          "durationTicks": 44,
          "midi": 58,
          "name": "A#3",
          "ticks": 41940,
          "time": 174.75,
          "velocity": 0.8110236220472441
        },
        {
          "duration": 0.18333333333333712,
          "durationTicks": 44,
          "midi": 58,
          "name": "A#3",
          "ticks": 42000,
          "time": 175,
          "velocity": 0.8110236220472441
        },
        {
          "duration": 0.18333333333333712,
          "durationTicks": 44,
          "midi": 58,
          "name": "A#3",
          "ticks": 42060,
          "time": 175.25,
          "velocity": 0.8110236220472441
        },
        {
          "duration": 0.18333333333333712,
          "durationTicks": 44,
          "midi": 57,
          "name": "A3",
          "ticks": 42120,
          "time": 175.5,
          "velocity": 0.8110236220472441
        },
        {
          "duration": 0.18333333333333712,
          "durationTicks": 44,
          "midi": 57,
          "name": "A3",
          "ticks": 42180,
          "time": 175.75,
          "velocity": 0.8110236220472441
        },
        {
          "duration": 0.18333333333333712,
          "durationTicks": 44,
          "midi": 58,
          "name": "A#3",
          "ticks": 42240,
          "time": 176,
          "velocity": 0.8110236220472441
        },
        {
          "duration": 0.18333333333333712,
          "durationTicks": 44,
          "midi": 58,
          "name": "A#3",
          "ticks": 42300,
          "time": 176.25,
          "velocity": 0.8110236220472441
        },
        {
          "duration": 0.18333333333333712,
          "durationTicks": 44,
          "midi": 58,
          "name": "A#3",
          "ticks": 42360,
          "time": 176.5,
          "velocity": 0.8110236220472441
        },
        {
          "duration": 0.18333333333333712,
          "durationTicks": 44,
          "midi": 58,
          "name": "A#3",
          "ticks": 42420,
          "time": 176.75,
          "velocity": 0.8110236220472441
        },
        {
          "duration": 0.18333333333333712,
          "durationTicks": 44,
          "midi": 58,
          "name": "A#3",
          "ticks": 42480,
          "time": 177,
          "velocity": 0.8110236220472441
        },
        {
          "duration": 0.18333333333333712,
          "durationTicks": 44,
          "midi": 58,
          "name": "A#3",
          "ticks": 42540,
          "time": 177.25,
          "velocity": 0.8110236220472441
        },
        {
          "duration": 0.18333333333333712,
          "durationTicks": 44,
          "midi": 60,
          "name": "C4",
          "ticks": 42600,
          "time": 177.5,
          "velocity": 0.8110236220472441
        },
        {
          "duration": 0.18333333333333712,
          "durationTicks": 44,
          "midi": 60,
          "name": "C4",
          "ticks": 42660,
          "time": 177.75,
          "velocity": 0.8110236220472441
        },
        {
          "duration": 0.18333333333333712,
          "durationTicks": 44,
          "midi": 57,
          "name": "A3",
          "ticks": 42720,
          "time": 178,
          "velocity": 0.8110236220472441
        },
        {
          "duration": 0.18333333333333712,
          "durationTicks": 44,
          "midi": 57,
          "name": "A3",
          "ticks": 42780,
          "time": 178.25,
          "velocity": 0.8110236220472441
        },
        {
          "duration": 0.18333333333333712,
          "durationTicks": 44,
          "midi": 57,
          "name": "A3",
          "ticks": 42840,
          "time": 178.5,
          "velocity": 0.8110236220472441
        },
        {
          "duration": 0.18333333333333712,
          "durationTicks": 44,
          "midi": 57,
          "name": "A3",
          "ticks": 42900,
          "time": 178.75,
          "velocity": 0.8110236220472441
        },
        {
          "duration": 0.18333333333333712,
          "durationTicks": 44,
          "midi": 57,
          "name": "A3",
          "ticks": 42960,
          "time": 179,
          "velocity": 0.8110236220472441
        },
        {
          "duration": 0.18333333333333712,
          "durationTicks": 44,
          "midi": 57,
          "name": "A3",
          "ticks": 43020,
          "time": 179.25,
          "velocity": 0.8110236220472441
        },
        {
          "duration": 0.18333333333333712,
          "durationTicks": 44,
          "midi": 57,
          "name": "A3",
          "ticks": 43080,
          "time": 179.5,
          "velocity": 0.8110236220472441
        },
        {
          "duration": 0.18333333333333712,
          "durationTicks": 44,
          "midi": 57,
          "name": "A3",
          "ticks": 43140,
          "time": 179.75,
          "velocity": 0.8110236220472441
        },
        {
          "duration": 0.18333333333333712,
          "durationTicks": 44,
          "midi": 55,
          "name": "G3",
          "ticks": 43200,
          "time": 180,
          "velocity": 0.8110236220472441
        },
        {
          "duration": 0.18333333333333712,
          "durationTicks": 44,
          "midi": 55,
          "name": "G3",
          "ticks": 43260,
          "time": 180.25,
          "velocity": 0.8110236220472441
        },
        {
          "duration": 0.18333333333333712,
          "durationTicks": 44,
          "midi": 55,
          "name": "G3",
          "ticks": 43320,
          "time": 180.5,
          "velocity": 0.8110236220472441
        },
        {
          "duration": 0.18333333333333712,
          "durationTicks": 44,
          "midi": 55,
          "name": "G3",
          "ticks": 43380,
          "time": 180.75,
          "velocity": 0.8110236220472441
        },
        {
          "duration": 0.18333333333333712,
          "durationTicks": 44,
          "midi": 55,
          "name": "G3",
          "ticks": 43440,
          "time": 181,
          "velocity": 0.8110236220472441
        },
        {
          "duration": 0.18333333333333712,
          "durationTicks": 44,
          "midi": 55,
          "name": "G3",
          "ticks": 43500,
          "time": 181.25,
          "velocity": 0.8110236220472441
        },
        {
          "duration": 0.18333333333333712,
          "durationTicks": 44,
          "midi": 57,
          "name": "A3",
          "ticks": 43560,
          "time": 181.5,
          "velocity": 0.8110236220472441
        },
        {
          "duration": 0.18333333333333712,
          "durationTicks": 44,
          "midi": 57,
          "name": "A3",
          "ticks": 43620,
          "time": 181.75,
          "velocity": 0.8110236220472441
        },
        {
          "duration": 0.18333333333333712,
          "durationTicks": 44,
          "midi": 58,
          "name": "A#3",
          "ticks": 43680,
          "time": 182,
          "velocity": 0.8188976377952756
        },
        {
          "duration": 0.18333333333333712,
          "durationTicks": 44,
          "midi": 58,
          "name": "A#3",
          "ticks": 43740,
          "time": 182.25,
          "velocity": 0.8188976377952756
        },
        {
          "duration": 0.18333333333333712,
          "durationTicks": 44,
          "midi": 58,
          "name": "A#3",
          "ticks": 43800,
          "time": 182.5,
          "velocity": 0.8110236220472441
        },
        {
          "duration": 0.18333333333333712,
          "durationTicks": 44,
          "midi": 58,
          "name": "A#3",
          "ticks": 43860,
          "time": 182.75,
          "velocity": 0.8110236220472441
        },
        {
          "duration": 0.18333333333333712,
          "durationTicks": 44,
          "midi": 58,
          "name": "A#3",
          "ticks": 43920,
          "time": 183,
          "velocity": 0.8110236220472441
        },
        {
          "duration": 0.18333333333333712,
          "durationTicks": 44,
          "midi": 58,
          "name": "A#3",
          "ticks": 43980,
          "time": 183.25,
          "velocity": 0.8110236220472441
        },
        {
          "duration": 0.18333333333333712,
          "durationTicks": 44,
          "midi": 57,
          "name": "A3",
          "ticks": 44040,
          "time": 183.5,
          "velocity": 0.8110236220472441
        },
        {
          "duration": 0.18333333333333712,
          "durationTicks": 44,
          "midi": 57,
          "name": "A3",
          "ticks": 44100,
          "time": 183.75,
          "velocity": 0.8110236220472441
        },
        {
          "duration": 0.18333333333333712,
          "durationTicks": 44,
          "midi": 58,
          "name": "A#3",
          "ticks": 44160,
          "time": 184,
          "velocity": 0.8110236220472441
        },
        {
          "duration": 0.18333333333333712,
          "durationTicks": 44,
          "midi": 58,
          "name": "A#3",
          "ticks": 44220,
          "time": 184.25,
          "velocity": 0.8110236220472441
        },
        {
          "duration": 0.18333333333333712,
          "durationTicks": 44,
          "midi": 58,
          "name": "A#3",
          "ticks": 44280,
          "time": 184.5,
          "velocity": 0.8110236220472441
        },
        {
          "duration": 0.18333333333333712,
          "durationTicks": 44,
          "midi": 58,
          "name": "A#3",
          "ticks": 44340,
          "time": 184.75,
          "velocity": 0.8110236220472441
        },
        {
          "duration": 0.18333333333333712,
          "durationTicks": 44,
          "midi": 58,
          "name": "A#3",
          "ticks": 44400,
          "time": 185,
          "velocity": 0.8110236220472441
        },
        {
          "duration": 0.18333333333333712,
          "durationTicks": 44,
          "midi": 58,
          "name": "A#3",
          "ticks": 44460,
          "time": 185.25,
          "velocity": 0.8110236220472441
        },
        {
          "duration": 0.18333333333333712,
          "durationTicks": 44,
          "midi": 60,
          "name": "C4",
          "ticks": 44520,
          "time": 185.5,
          "velocity": 0.8110236220472441
        },
        {
          "duration": 0.18333333333333712,
          "durationTicks": 44,
          "midi": 60,
          "name": "C4",
          "ticks": 44580,
          "time": 185.75,
          "velocity": 0.8110236220472441
        },
        {
          "duration": 0.18333333333333712,
          "durationTicks": 44,
          "midi": 57,
          "name": "A3",
          "ticks": 44640,
          "time": 186,
          "velocity": 0.8110236220472441
        },
        {
          "duration": 0.18333333333333712,
          "durationTicks": 44,
          "midi": 57,
          "name": "A3",
          "ticks": 44700,
          "time": 186.25,
          "velocity": 0.8110236220472441
        },
        {
          "duration": 0.18333333333333712,
          "durationTicks": 44,
          "midi": 57,
          "name": "A3",
          "ticks": 44760,
          "time": 186.5,
          "velocity": 0.8110236220472441
        },
        {
          "duration": 0.18333333333333712,
          "durationTicks": 44,
          "midi": 57,
          "name": "A3",
          "ticks": 44820,
          "time": 186.75,
          "velocity": 0.8110236220472441
        },
        {
          "duration": 0.18333333333333712,
          "durationTicks": 44,
          "midi": 57,
          "name": "A3",
          "ticks": 44880,
          "time": 187,
          "velocity": 0.8110236220472441
        },
        {
          "duration": 0.18333333333333712,
          "durationTicks": 44,
          "midi": 57,
          "name": "A3",
          "ticks": 44940,
          "time": 187.25,
          "velocity": 0.8110236220472441
        },
        {
          "duration": 0.18333333333333712,
          "durationTicks": 44,
          "midi": 57,
          "name": "A3",
          "ticks": 45000,
          "time": 187.5,
          "velocity": 0.8110236220472441
        },
        {
          "duration": 0.18333333333333712,
          "durationTicks": 44,
          "midi": 57,
          "name": "A3",
          "ticks": 45060,
          "time": 187.75,
          "velocity": 0.8110236220472441
        },
        {
          "duration": 0.18333333333333712,
          "durationTicks": 44,
          "midi": 55,
          "name": "G3",
          "ticks": 45120,
          "time": 188,
          "velocity": 0.8110236220472441
        },
        {
          "duration": 0.18333333333333712,
          "durationTicks": 44,
          "midi": 55,
          "name": "G3",
          "ticks": 45180,
          "time": 188.25,
          "velocity": 0.8110236220472441
        },
        {
          "duration": 0.18333333333333712,
          "durationTicks": 44,
          "midi": 55,
          "name": "G3",
          "ticks": 45240,
          "time": 188.5,
          "velocity": 0.8110236220472441
        },
        {
          "duration": 0.18333333333333712,
          "durationTicks": 44,
          "midi": 55,
          "name": "G3",
          "ticks": 45300,
          "time": 188.75,
          "velocity": 0.8110236220472441
        },
        {
          "duration": 0.18333333333333712,
          "durationTicks": 44,
          "midi": 55,
          "name": "G3",
          "ticks": 45360,
          "time": 189,
          "velocity": 0.8110236220472441
        },
        {
          "duration": 0.18333333333333712,
          "durationTicks": 44,
          "midi": 55,
          "name": "G3",
          "ticks": 45420,
          "time": 189.25,
          "velocity": 0.8110236220472441
        },
        {
          "duration": 0.18333333333333712,
          "durationTicks": 44,
          "midi": 57,
          "name": "A3",
          "ticks": 45480,
          "time": 189.5,
          "velocity": 0.8110236220472441
        },
        {
          "duration": 0.18333333333333712,
          "durationTicks": 44,
          "midi": 57,
          "name": "A3",
          "ticks": 45540,
          "time": 189.75,
          "velocity": 0.8110236220472441
        },
        {
          "duration": 0.18333333333333712,
          "durationTicks": 44,
          "midi": 58,
          "name": "A#3",
          "ticks": 45600,
          "time": 190,
          "velocity": 0.8188976377952756
        },
        {
          "duration": 0.18333333333333712,
          "durationTicks": 44,
          "midi": 58,
          "name": "A#3",
          "ticks": 45660,
          "time": 190.25,
          "velocity": 0.8188976377952756
        },
        {
          "duration": 0.18333333333333712,
          "durationTicks": 44,
          "midi": 58,
          "name": "A#3",
          "ticks": 45720,
          "time": 190.5,
          "velocity": 0.8110236220472441
        },
        {
          "duration": 0.18333333333333712,
          "durationTicks": 44,
          "midi": 58,
          "name": "A#3",
          "ticks": 45780,
          "time": 190.75,
          "velocity": 0.8110236220472441
        },
        {
          "duration": 0.18333333333333712,
          "durationTicks": 44,
          "midi": 58,
          "name": "A#3",
          "ticks": 45840,
          "time": 191,
          "velocity": 0.8110236220472441
        },
        {
          "duration": 0.18333333333333712,
          "durationTicks": 44,
          "midi": 58,
          "name": "A#3",
          "ticks": 45900,
          "time": 191.25,
          "velocity": 0.8110236220472441
        },
        {
          "duration": 0.18333333333333712,
          "durationTicks": 44,
          "midi": 57,
          "name": "A3",
          "ticks": 45960,
          "time": 191.5,
          "velocity": 0.8110236220472441
        },
        {
          "duration": 0.18333333333333712,
          "durationTicks": 44,
          "midi": 57,
          "name": "A3",
          "ticks": 46020,
          "time": 191.75,
          "velocity": 0.8110236220472441
        },
        {
          "duration": 0.18333333333333712,
          "durationTicks": 44,
          "midi": 58,
          "name": "A#3",
          "ticks": 46080,
          "time": 192,
          "velocity": 0.8110236220472441
        },
        {
          "duration": 0.18333333333333712,
          "durationTicks": 44,
          "midi": 58,
          "name": "A#3",
          "ticks": 46140,
          "time": 192.25,
          "velocity": 0.8110236220472441
        },
        {
          "duration": 0.18333333333333712,
          "durationTicks": 44,
          "midi": 58,
          "name": "A#3",
          "ticks": 46200,
          "time": 192.5,
          "velocity": 0.8110236220472441
        },
        {
          "duration": 0.18333333333333712,
          "durationTicks": 44,
          "midi": 58,
          "name": "A#3",
          "ticks": 46260,
          "time": 192.75,
          "velocity": 0.8110236220472441
        },
        {
          "duration": 0.18333333333333712,
          "durationTicks": 44,
          "midi": 58,
          "name": "A#3",
          "ticks": 46320,
          "time": 193,
          "velocity": 0.8110236220472441
        },
        {
          "duration": 0.18333333333333712,
          "durationTicks": 44,
          "midi": 58,
          "name": "A#3",
          "ticks": 46380,
          "time": 193.25,
          "velocity": 0.8110236220472441
        },
        {
          "duration": 0.18333333333333712,
          "durationTicks": 44,
          "midi": 60,
          "name": "C4",
          "ticks": 46440,
          "time": 193.5,
          "velocity": 0.8110236220472441
        },
        {
          "duration": 0.18333333333333712,
          "durationTicks": 44,
          "midi": 60,
          "name": "C4",
          "ticks": 46500,
          "time": 193.75,
          "velocity": 0.8110236220472441
        },
        {
          "duration": 0.18333333333333712,
          "durationTicks": 44,
          "midi": 57,
          "name": "A3",
          "ticks": 46560,
          "time": 194,
          "velocity": 0.8110236220472441
        },
        {
          "duration": 0.18333333333333712,
          "durationTicks": 44,
          "midi": 57,
          "name": "A3",
          "ticks": 46620,
          "time": 194.25,
          "velocity": 0.8110236220472441
        },
        {
          "duration": 0.18333333333333712,
          "durationTicks": 44,
          "midi": 57,
          "name": "A3",
          "ticks": 46680,
          "time": 194.5,
          "velocity": 0.8110236220472441
        },
        {
          "duration": 0.18333333333333712,
          "durationTicks": 44,
          "midi": 57,
          "name": "A3",
          "ticks": 46740,
          "time": 194.75,
          "velocity": 0.8110236220472441
        },
        {
          "duration": 0.18333333333333712,
          "durationTicks": 44,
          "midi": 57,
          "name": "A3",
          "ticks": 46800,
          "time": 195,
          "velocity": 0.8110236220472441
        },
        {
          "duration": 0.18333333333333712,
          "durationTicks": 44,
          "midi": 57,
          "name": "A3",
          "ticks": 46860,
          "time": 195.25,
          "velocity": 0.8110236220472441
        },
        {
          "duration": 0.18333333333333712,
          "durationTicks": 44,
          "midi": 57,
          "name": "A3",
          "ticks": 46920,
          "time": 195.5,
          "velocity": 0.8110236220472441
        },
        {
          "duration": 0.18333333333333712,
          "durationTicks": 44,
          "midi": 57,
          "name": "A3",
          "ticks": 46980,
          "time": 195.75,
          "velocity": 0.8110236220472441
        },
        {
          "duration": 0.18333333333333712,
          "durationTicks": 44,
          "midi": 55,
          "name": "G3",
          "ticks": 47040,
          "time": 196,
          "velocity": 0.8110236220472441
        },
        {
          "duration": 0.18333333333333712,
          "durationTicks": 44,
          "midi": 55,
          "name": "G3",
          "ticks": 47100,
          "time": 196.25,
          "velocity": 0.8110236220472441
        },
        {
          "duration": 0.18333333333333712,
          "durationTicks": 44,
          "midi": 55,
          "name": "G3",
          "ticks": 47160,
          "time": 196.5,
          "velocity": 0.8110236220472441
        },
        {
          "duration": 0.18333333333333712,
          "durationTicks": 44,
          "midi": 55,
          "name": "G3",
          "ticks": 47220,
          "time": 196.75,
          "velocity": 0.8110236220472441
        },
        {
          "duration": 0.18333333333333712,
          "durationTicks": 44,
          "midi": 55,
          "name": "G3",
          "ticks": 47280,
          "time": 197,
          "velocity": 0.8110236220472441
        },
        {
          "duration": 0.18333333333333712,
          "durationTicks": 44,
          "midi": 55,
          "name": "G3",
          "ticks": 47340,
          "time": 197.25,
          "velocity": 0.8110236220472441
        },
        {
          "duration": 0.18333333333333712,
          "durationTicks": 44,
          "midi": 57,
          "name": "A3",
          "ticks": 47400,
          "time": 197.5,
          "velocity": 0.8110236220472441
        },
        {
          "duration": 0.18333333333333712,
          "durationTicks": 44,
          "midi": 57,
          "name": "A3",
          "ticks": 47460,
          "time": 197.75,
          "velocity": 0.8110236220472441
        },
        {
          "duration": 7.949999999999989,
          "durationTicks": 1908,
          "midi": 43,
          "name": "G2",
          "ticks": 47520,
          "time": 198,
          "velocity": 0.6850393700787402
        }
      ]
    },
    {
      "channel": 0,
      "controlChanges": {
        "0": [
          {
            "number": 0,
            "ticks": 0,
            "time": 0,
            "value": 0
          }
        ]
      },
      "pitchBends": [],
      "instrument": {
        "family": "piano",
        "number": 0,
        "name": "acoustic grand piano"
      },
      "name": "7",
      "notes": [],
      "endOfTrackTicks": 24948
    },
    {
      "channel": 6,
      "controlChanges": {
        "7": [
          {
            "number": 7,
            "ticks": 0,
            "time": 0,
            "value": 0.6220472440944882
          }
        ],
        "10": [
          {
            "number": 10,
            "ticks": 0,
            "time": 0,
            "value": 0.5039370078740157
          }
        ],
        "91": [
          {
            "number": 91,
            "ticks": 0,
            "time": 0,
            "value": 0.31496062992125984
          }
        ],
        "93": [
          {
            "number": 93,
            "ticks": 0,
            "time": 0,
            "value": 0
          }
        ]
      },
      "pitchBends": [],
      "instrument": {
        "family": "ensemble",
        "number": 51,
        "name": "synthstrings 2"
      },
      "name": "",
      "notes": [
        {
          "duration": 1.9500000000000028,
          "durationTicks": 468,
          "midi": 43,
          "name": "G2",
          "ticks": 11520,
          "time": 48,
          "velocity": 0.8346456692913385
        },
        {
          "duration": 1.9500000000000028,
          "durationTicks": 468,
          "midi": 46,
          "name": "A#2",
          "ticks": 12000,
          "time": 50,
          "velocity": 0.8346456692913385
        },
        {
          "duration": 1.9500000000000028,
          "durationTicks": 468,
          "midi": 41,
          "name": "F2",
          "ticks": 12480,
          "time": 52,
          "velocity": 0.8346456692913385
        },
        {
          "duration": 1.9500000000000028,
          "durationTicks": 468,
          "midi": 48,
          "name": "C3",
          "ticks": 12960,
          "time": 54,
          "velocity": 0.8346456692913385
        },
        {
          "duration": 1.9500000000000028,
          "durationTicks": 468,
          "midi": 43,
          "name": "G2",
          "ticks": 13440,
          "time": 56,
          "velocity": 0.8346456692913385
        },
        {
          "duration": 1.9500000000000028,
          "durationTicks": 468,
          "midi": 46,
          "name": "A#2",
          "ticks": 13920,
          "time": 58,
          "velocity": 0.8346456692913385
        },
        {
          "duration": 1.9500000000000028,
          "durationTicks": 468,
          "midi": 41,
          "name": "F2",
          "ticks": 14400,
          "time": 60,
          "velocity": 0.8346456692913385
        },
        {
          "duration": 1.9500000000000028,
          "durationTicks": 468,
          "midi": 48,
          "name": "C3",
          "ticks": 14880,
          "time": 62,
          "velocity": 0.8346456692913385
        },
        {
          "duration": 1.9500000000000028,
          "durationTicks": 468,
          "midi": 43,
          "name": "G2",
          "ticks": 21120,
          "time": 88,
          "velocity": 0.8346456692913385
        },
        {
          "duration": 1.9500000000000028,
          "durationTicks": 468,
          "midi": 46,
          "name": "A#2",
          "ticks": 21600,
          "time": 90,
          "velocity": 0.8346456692913385
        },
        {
          "duration": 1.9500000000000028,
          "durationTicks": 468,
          "midi": 41,
          "name": "F2",
          "ticks": 22080,
          "time": 92,
          "velocity": 0.8346456692913385
        },
        {
          "duration": 1.9500000000000028,
          "durationTicks": 468,
          "midi": 48,
          "name": "C3",
          "ticks": 22560,
          "time": 94,
          "velocity": 0.8346456692913385
        },
        {
          "duration": 1.9500000000000028,
          "durationTicks": 468,
          "midi": 43,
          "name": "G2",
          "ticks": 23040,
          "time": 96,
          "velocity": 0.8346456692913385
        },
        {
          "duration": 1.9500000000000028,
          "durationTicks": 468,
          "midi": 46,
          "name": "A#2",
          "ticks": 23520,
          "time": 98,
          "velocity": 0.8346456692913385
        },
        {
          "duration": 1.9500000000000028,
          "durationTicks": 468,
          "midi": 41,
          "name": "F2",
          "ticks": 24000,
          "time": 100,
          "velocity": 0.8346456692913385
        },
        {
          "duration": 1.9500000000000028,
          "durationTicks": 468,
          "midi": 48,
          "name": "C3",
          "ticks": 24480,
          "time": 102,
          "velocity": 0.8346456692913385
        }
      ]
    },
    {
      "channel": 0,
      "controlChanges": {
        "0": [
          {
            "number": 0,
            "ticks": 0,
            "time": 0,
            "value": 0
          }
        ]
      },
      "pitchBends": [],
      "instrument": {
        "family": "piano",
        "number": 0,
        "name": "acoustic grand piano"
      },
      "name": "8",
      "notes": [],
      "endOfTrackTicks": 47504
    },
    {
      "channel": 7,
      "controlChanges": {
        "7": [
          {
            "number": 7,
            "ticks": 0,
            "time": 0,
            "value": 0.7007874015748031
          }
        ],
        "10": [
          {
            "number": 10,
            "ticks": 0,
            "time": 0,
            "value": 0.5039370078740157
          }
        ],
        "91": [
          {
            "number": 91,
            "ticks": 0,
            "time": 0,
            "value": 0.31496062992125984
          }
        ],
        "93": [
          {
            "number": 93,
            "ticks": 0,
            "time": 0,
            "value": 0
          }
        ]
      },
      "pitchBends": [],
      "instrument": {
        "family": "reed",
        "number": 69,
        "name": "english horn"
      },
      "name": "",
      "notes": [
        {
          "duration": 0.3333333333333357,
          "durationTicks": 80,
          "midi": 58,
          "name": "A#3",
          "ticks": 11160,
          "time": 46.5,
          "velocity": 0.8346456692913385
        },
        {
          "duration": 0.3333333333333357,
          "durationTicks": 80,
          "midi": 58,
          "name": "A#3",
          "ticks": 11280,
          "time": 47,
          "velocity": 0.8346456692913385
        },
        {
          "duration": 0.3999999999999986,
          "durationTicks": 96,
          "midi": 57,
          "name": "A3",
          "ticks": 11400,
          "time": 47.5,
          "velocity": 0.8346456692913385
        },
        {
          "duration": 0.9500000000000028,
          "durationTicks": 228,
          "midi": 58,
          "name": "A#3",
          "ticks": 11520,
          "time": 48,
          "velocity": 0.8346456692913385
        },
        {
          "duration": 0.23333333333333428,
          "durationTicks": 56,
          "midi": 58,
          "name": "A#3",
          "ticks": 11820,
          "time": 49.25,
          "velocity": 0.8346456692913385
        },
        {
          "duration": 0.23333333333333428,
          "durationTicks": 56,
          "midi": 57,
          "name": "A3",
          "ticks": 11880,
          "time": 49.5,
          "velocity": 0.8346456692913385
        },
        {
          "duration": 1.0499999999999972,
          "durationTicks": 252,
          "midi": 58,
          "name": "A#3",
          "ticks": 11940,
          "time": 49.75,
          "velocity": 0.8346456692913385
        },
        {
          "duration": 0.23333333333333428,
          "durationTicks": 56,
          "midi": 58,
          "name": "A#3",
          "ticks": 12300,
          "time": 51.25,
          "velocity": 0.8346456692913385
        },
        {
          "duration": 0.23333333333333428,
          "durationTicks": 56,
          "midi": 57,
          "name": "A3",
          "ticks": 12360,
          "time": 51.5,
          "velocity": 0.8346456692913385
        },
        {
          "duration": 0.46666666666666856,
          "durationTicks": 112,
          "midi": 58,
          "name": "A#3",
          "ticks": 12420,
          "time": 51.75,
          "velocity": 0.8346456692913385
        },
        {
          "duration": 0.4166666666666643,
          "durationTicks": 100,
          "midi": 55,
          "name": "G3",
          "ticks": 12540,
          "time": 52.25,
          "velocity": 0.8346456692913385
        },
        {
          "duration": 1.1333333333333329,
          "durationTicks": 272,
          "midi": 55,
          "name": "G3",
          "ticks": 12660,
          "time": 52.75,
          "velocity": 0.8346456692913385
        },
        {
          "duration": 0.1666666666666643,
          "durationTicks": 40,
          "midi": 55,
          "name": "G3",
          "ticks": 13020,
          "time": 54.25,
          "velocity": 0.8346456692913385
        },
        {
          "duration": 0.28333333333333144,
          "durationTicks": 68,
          "midi": 58,
          "name": "A#3",
          "ticks": 13080,
          "time": 54.5,
          "velocity": 0.8346456692913385
        },
        {
          "duration": 0.31666666666667,
          "durationTicks": 76,
          "midi": 58,
          "name": "A#3",
          "ticks": 13200,
          "time": 55,
          "velocity": 0.8346456692913385
        },
        {
          "duration": 0.3500000000000014,
          "durationTicks": 84,
          "midi": 57,
          "name": "A3",
          "ticks": 13320,
          "time": 55.5,
          "velocity": 0.8346456692913385
        },
        {
          "duration": 1.06666666666667,
          "durationTicks": 256,
          "midi": 58,
          "name": "A#3",
          "ticks": 13440,
          "time": 56,
          "velocity": 0.8346456692913385
        },
        {
          "duration": 0.23333333333333428,
          "durationTicks": 56,
          "midi": 55,
          "name": "G3",
          "ticks": 13740,
          "time": 57.25,
          "velocity": 0.8346456692913385
        },
        {
          "duration": 0.23333333333333428,
          "durationTicks": 56,
          "midi": 57,
          "name": "A3",
          "ticks": 13800,
          "time": 57.5,
          "velocity": 0.8346456692913385
        },
        {
          "duration": 1.3500000000000014,
          "durationTicks": 324,
          "midi": 58,
          "name": "A#3",
          "ticks": 13860,
          "time": 57.75,
          "velocity": 0.8346456692913385
        },
        {
          "duration": 0.23333333333333428,
          "durationTicks": 56,
          "midi": 55,
          "name": "G3",
          "ticks": 14220,
          "time": 59.25,
          "velocity": 0.8346456692913385
        },
        {
          "duration": 0.23333333333333428,
          "durationTicks": 56,
          "midi": 57,
          "name": "A3",
          "ticks": 14280,
          "time": 59.5,
          "velocity": 0.8346456692913385
        },
        {
          "duration": 0.3999999999999986,
          "durationTicks": 96,
          "midi": 58,
          "name": "A#3",
          "ticks": 14340,
          "time": 59.75,
          "velocity": 0.8346456692913385
        },
        {
          "duration": 0.3333333333333357,
          "durationTicks": 80,
          "midi": 55,
          "name": "G3",
          "ticks": 14460,
          "time": 60.25,
          "velocity": 0.8346456692913385
        },
        {
          "duration": 1.18333333333333,
          "durationTicks": 284,
          "midi": 55,
          "name": "G3",
          "ticks": 14580,
          "time": 60.75,
          "velocity": 0.8346456692913385
        },
        {
          "duration": 0.23333333333333428,
          "durationTicks": 56,
          "midi": 55,
          "name": "G3",
          "ticks": 14940,
          "time": 62.25,
          "velocity": 0.8346456692913385
        },
        {
          "duration": 0.3500000000000014,
          "durationTicks": 84,
          "midi": 62,
          "name": "D4",
          "ticks": 15000,
          "time": 62.5,
          "velocity": 0.8346456692913385
        },
        {
          "duration": 0.3500000000000014,
          "durationTicks": 84,
          "midi": 62,
          "name": "D4",
          "ticks": 15120,
          "time": 63,
          "velocity": 0.8346456692913385
        },
        {
          "duration": 0.45000000000000284,
          "durationTicks": 108,
          "midi": 60,
          "name": "C4",
          "ticks": 15240,
          "time": 63.5,
          "velocity": 0.8346456692913385
        },
        {
          "duration": 1.6500000000000057,
          "durationTicks": 396,
          "midi": 58,
          "name": "A#3",
          "ticks": 15360,
          "time": 64,
          "velocity": 0.8346456692913385
        },
        {
          "duration": 0.21666666666666856,
          "durationTicks": 52,
          "midi": 58,
          "name": "A#3",
          "ticks": 15780,
          "time": 65.75,
          "velocity": 0.8346456692913385
        },
        {
          "duration": 0.9666666666666686,
          "durationTicks": 232,
          "midi": 60,
          "name": "C4",
          "ticks": 15840,
          "time": 66,
          "velocity": 0.8346456692913385
        },
        {
          "duration": 0.9500000000000028,
          "durationTicks": 228,
          "midi": 62,
          "name": "D4",
          "ticks": 16080,
          "time": 67,
          "velocity": 0.8346456692913385
        },
        {
          "duration": 1.9666666666666686,
          "durationTicks": 472,
          "midi": 60,
          "name": "C4",
          "ticks": 16320,
          "time": 68,
          "velocity": 0.8346456692913385
        },
        {
          "duration": 0.9666666666666686,
          "durationTicks": 232,
          "midi": 67,
          "name": "G4",
          "ticks": 16800,
          "time": 70,
          "velocity": 0.8346456692913385
        },
        {
          "duration": 0.9500000000000028,
          "durationTicks": 228,
          "midi": 65,
          "name": "F4",
          "ticks": 17040,
          "time": 71,
          "velocity": 0.8346456692913385
        },
        {
          "duration": 1.4666666666666686,
          "durationTicks": 352,
          "midi": 67,
          "name": "G4",
          "ticks": 17280,
          "time": 72,
          "velocity": 0.8346456692913385
        },
        {
          "duration": 0.20000000000000284,
          "durationTicks": 48,
          "midi": 62,
          "name": "D4",
          "ticks": 17700,
          "time": 73.75,
          "velocity": 0.8346456692913385
        },
        {
          "duration": 0.28333333333333144,
          "durationTicks": 68,
          "midi": 65,
          "name": "F4",
          "ticks": 17760,
          "time": 74,
          "velocity": 0.8346456692913385
        },
        {
          "duration": 0.3333333333333286,
          "durationTicks": 80,
          "midi": 63,
          "name": "D#4",
          "ticks": 17880,
          "time": 74.5,
          "velocity": 0.8346456692913385
        },
        {
          "duration": 0.9500000000000028,
          "durationTicks": 228,
          "midi": 62,
          "name": "D4",
          "ticks": 18000,
          "time": 75,
          "velocity": 0.8346456692913385
        },
        {
          "duration": 0.20000000000000284,
          "durationTicks": 48,
          "midi": 62,
          "name": "D4",
          "ticks": 18300,
          "time": 76.25,
          "velocity": 0.8346456692913385
        },
        {
          "duration": 0.3166666666666629,
          "durationTicks": 76,
          "midi": 65,
          "name": "F4",
          "ticks": 18360,
          "time": 76.5,
          "velocity": 0.8346456692913385
        },
        {
          "duration": 0.36666666666666003,
          "durationTicks": 88,
          "midi": 65,
          "name": "F4",
          "ticks": 18480,
          "time": 77,
          "velocity": 0.8346456692913385
        },
        {
          "duration": 0.29999999999999716,
          "durationTicks": 72,
          "midi": 62,
          "name": "D4",
          "ticks": 18600,
          "time": 77.5,
          "velocity": 0.8346456692913385
        },
        {
          "duration": 0.9166666666666714,
          "durationTicks": 220,
          "midi": 67,
          "name": "G4",
          "ticks": 18720,
          "time": 78,
          "velocity": 0.8346456692913385
        },
        {
          "duration": 0.9500000000000028,
          "durationTicks": 228,
          "midi": 65,
          "name": "F4",
          "ticks": 18960,
          "time": 79,
          "velocity": 0.8346456692913385
        },
        {
          "duration": 1.4333333333333371,
          "durationTicks": 344,
          "midi": 67,
          "name": "G4",
          "ticks": 19200,
          "time": 80,
          "velocity": 0.8346456692913385
        },
        {
          "duration": 0.23333333333333428,
          "durationTicks": 56,
          "midi": 62,
          "name": "D4",
          "ticks": 19620,
          "time": 81.75,
          "velocity": 0.8346456692913385
        },
        {
          "duration": 0.29999999999999716,
          "durationTicks": 72,
          "midi": 65,
          "name": "F4",
          "ticks": 19680,
          "time": 82,
          "velocity": 0.8346456692913385
        },
        {
          "duration": 0.28333333333333144,
          "durationTicks": 68,
          "midi": 63,
          "name": "D#4",
          "ticks": 19800,
          "time": 82.5,
          "velocity": 0.8346456692913385
        },
        {
          "duration": 0.9333333333333371,
          "durationTicks": 224,
          "midi": 62,
          "name": "D4",
          "ticks": 19920,
          "time": 83,
          "velocity": 0.8346456692913385
        },
        {
          "duration": 0.23333333333333428,
          "durationTicks": 56,
          "midi": 62,
          "name": "D4",
          "ticks": 20220,
          "time": 84.25,
          "velocity": 0.8346456692913385
        },
        {
          "duration": 0.28333333333333144,
          "durationTicks": 68,
          "midi": 65,
          "name": "F4",
          "ticks": 20280,
          "time": 84.5,
          "velocity": 0.8346456692913385
        },
        {
          "duration": 0.2666666666666657,
          "durationTicks": 64,
          "midi": 65,
          "name": "F4",
          "ticks": 20400,
          "time": 85,
          "velocity": 0.8346456692913385
        },
        {
          "duration": 0.2666666666666657,
          "durationTicks": 64,
          "midi": 62,
          "name": "D4",
          "ticks": 20520,
          "time": 85.5,
          "velocity": 0.8346456692913385
        },
        {
          "duration": 0.9166666666666714,
          "durationTicks": 220,
          "midi": 67,
          "name": "G4",
          "ticks": 20640,
          "time": 86,
          "velocity": 0.8346456692913385
        },
        {
          "duration": 0.9666666666666686,
          "durationTicks": 232,
          "midi": 65,
          "name": "F4",
          "ticks": 20880,
          "time": 87,
          "velocity": 0.8346456692913385
        },
        {
          "duration": 1.0166666666666657,
          "durationTicks": 244,
          "midi": 67,
          "name": "G4",
          "ticks": 21120,
          "time": 88,
          "velocity": 0.8346456692913385
        },
        {
          "duration": 0.25,
          "durationTicks": 60,
          "midi": 62,
          "name": "D4",
          "ticks": 21420,
          "time": 89.25,
          "velocity": 0.8346456692913385
        },
        {
          "duration": 0.25,
          "durationTicks": 60,
          "midi": 60,
          "name": "C4",
          "ticks": 21480,
          "time": 89.5,
          "velocity": 0.8346456692913385
        },
        {
          "duration": 1.1833333333333371,
          "durationTicks": 284,
          "midi": 58,
          "name": "A#3",
          "ticks": 21540,
          "time": 89.75,
          "velocity": 0.8346456692913385
        },
        {
          "duration": 0.1666666666666714,
          "durationTicks": 40,
          "midi": 55,
          "name": "G3",
          "ticks": 21900,
          "time": 91.25,
          "velocity": 0.8346456692913385
        },
        {
          "duration": 0.20000000000000284,
          "durationTicks": 48,
          "midi": 55,
          "name": "G3",
          "ticks": 21960,
          "time": 91.5,
          "velocity": 0.8346456692913385
        },
        {
          "duration": 0.4000000000000057,
          "durationTicks": 96,
          "midi": 58,
          "name": "A#3",
          "ticks": 22020,
          "time": 91.75,
          "velocity": 0.8346456692913385
        },
        {
          "duration": 0.29999999999999716,
          "durationTicks": 72,
          "midi": 55,
          "name": "G3",
          "ticks": 22140,
          "time": 92.25,
          "velocity": 0.8346456692913385
        },
        {
          "duration": 1.0833333333333286,
          "durationTicks": 260,
          "midi": 55,
          "name": "G3",
          "ticks": 22260,
          "time": 92.75,
          "velocity": 0.8346456692913385
        },
        {
          "duration": 0.23333333333333428,
          "durationTicks": 56,
          "midi": 55,
          "name": "G3",
          "ticks": 22620,
          "time": 94.25,
          "velocity": 0.8346456692913385
        },
        {
          "duration": 0.29999999999999716,
          "durationTicks": 72,
          "midi": 58,
          "name": "A#3",
          "ticks": 22680,
          "time": 94.5,
          "velocity": 0.8346456692913385
        },
        {
          "duration": 0.28333333333333144,
          "durationTicks": 68,
          "midi": 58,
          "name": "A#3",
          "ticks": 22800,
          "time": 95,
          "velocity": 0.8346456692913385
        },
        {
          "duration": 0.29999999999999716,
          "durationTicks": 72,
          "midi": 57,
          "name": "A3",
          "ticks": 22920,
          "time": 95.5,
          "velocity": 0.8346456692913385
        },
        {
          "duration": 0.9666666666666686,
          "durationTicks": 232,
          "midi": 58,
          "name": "A#3",
          "ticks": 23040,
          "time": 96,
          "velocity": 0.8346456692913385
        },
        {
          "duration": 0.21666666666666856,
          "durationTicks": 52,
          "midi": 55,
          "name": "G3",
          "ticks": 23340,
          "time": 97.25,
          "velocity": 0.8346456692913385
        },
        {
          "duration": 0.21666666666666856,
          "durationTicks": 52,
          "midi": 57,
          "name": "A3",
          "ticks": 23400,
          "time": 97.5,
          "velocity": 0.8346456692913385
        },
        {
          "duration": 1.1833333333333371,
          "durationTicks": 284,
          "midi": 58,
          "name": "A#3",
          "ticks": 23460,
          "time": 97.75,
          "velocity": 0.8346456692913385
        },
        {
          "duration": 0.21666666666666856,
          "durationTicks": 52,
          "midi": 55,
          "name": "G3",
          "ticks": 23820,
          "time": 99.25,
          "velocity": 0.8346456692913385
        },
        {
          "duration": 0.21666666666666856,
          "durationTicks": 52,
          "midi": 57,
          "name": "A3",
          "ticks": 23880,
          "time": 99.5,
          "velocity": 0.8346456692913385
        },
        {
          "duration": 0.38333333333333997,
          "durationTicks": 92,
          "midi": 58,
          "name": "A#3",
          "ticks": 23940,
          "time": 99.75,
          "velocity": 0.8346456692913385
        },
        {
          "duration": 0.3499999999999943,
          "durationTicks": 84,
          "midi": 60,
          "name": "C4",
          "ticks": 24060,
          "time": 100.25,
          "velocity": 0.8346456692913385
        },
        {
          "duration": 1.1500000000000057,
          "durationTicks": 276,
          "midi": 60,
          "name": "C4",
          "ticks": 24180,
          "time": 100.75,
          "velocity": 0.8346456692913385
        },
        {
          "duration": 0.21666666666666856,
          "durationTicks": 52,
          "midi": 60,
          "name": "C4",
          "ticks": 24540,
          "time": 102.25,
          "velocity": 0.8346456692913385
        },
        {
          "duration": 0.28333333333333144,
          "durationTicks": 68,
          "midi": 62,
          "name": "D4",
          "ticks": 24600,
          "time": 102.5,
          "velocity": 0.8346456692913385
        },
        {
          "duration": 0.28333333333333144,
          "durationTicks": 68,
          "midi": 62,
          "name": "D4",
          "ticks": 24720,
          "time": 103,
          "velocity": 0.8346456692913385
        },
        {
          "duration": 0.3333333333333286,
          "durationTicks": 80,
          "midi": 60,
          "name": "C4",
          "ticks": 24840,
          "time": 103.5,
          "velocity": 0.8346456692913385
        },
        {
          "duration": 1.6500000000000057,
          "durationTicks": 396,
          "midi": 58,
          "name": "A#3",
          "ticks": 24960,
          "time": 104,
          "velocity": 0.8346456692913385
        },
        {
          "duration": 0.21666666666666856,
          "durationTicks": 52,
          "midi": 58,
          "name": "A#3",
          "ticks": 25380,
          "time": 105.75,
          "velocity": 0.8346456692913385
        },
        {
          "duration": 0.9666666666666686,
          "durationTicks": 232,
          "midi": 60,
          "name": "C4",
          "ticks": 25440,
          "time": 106,
          "velocity": 0.8346456692913385
        },
        {
          "duration": 0.9500000000000028,
          "durationTicks": 228,
          "midi": 62,
          "name": "D4",
          "ticks": 25680,
          "time": 107,
          "velocity": 0.8346456692913385
        },
        {
          "duration": 1.9666666666666686,
          "durationTicks": 472,
          "midi": 60,
          "name": "C4",
          "ticks": 25920,
          "time": 108,
          "velocity": 0.8346456692913385
        },
        {
          "duration": 0.9666666666666686,
          "durationTicks": 232,
          "midi": 67,
          "name": "G4",
          "ticks": 26400,
          "time": 110,
          "velocity": 0.8346456692913385
        },
        {
          "duration": 0.9500000000000028,
          "durationTicks": 228,
          "midi": 65,
          "name": "F4",
          "ticks": 26640,
          "time": 111,
          "velocity": 0.8346456692913385
        },
        {
          "duration": 1.4500000000000028,
          "durationTicks": 348,
          "midi": 67,
          "name": "G4",
          "ticks": 26880,
          "time": 112,
          "velocity": 0.8346456692913385
        },
        {
          "duration": 0.20000000000000284,
          "durationTicks": 48,
          "midi": 62,
          "name": "D4",
          "ticks": 27300,
          "time": 113.75,
          "velocity": 0.8346456692913385
        },
        {
          "duration": 0.28333333333333144,
          "durationTicks": 68,
          "midi": 65,
          "name": "F4",
          "ticks": 27360,
          "time": 114,
          "velocity": 0.8346456692913385
        },
        {
          "duration": 0.3333333333333286,
          "durationTicks": 80,
          "midi": 63,
          "name": "D#4",
          "ticks": 27480,
          "time": 114.5,
          "velocity": 0.8346456692913385
        },
        {
          "duration": 0.9500000000000028,
          "durationTicks": 228,
          "midi": 62,
          "name": "D4",
          "ticks": 27600,
          "time": 115,
          "velocity": 0.8346456692913385
        },
        {
          "duration": 0.20000000000000284,
          "durationTicks": 48,
          "midi": 62,
          "name": "D4",
          "ticks": 27900,
          "time": 116.25,
          "velocity": 0.8346456692913385
        },
        {
          "duration": 0.3166666666666629,
          "durationTicks": 76,
          "midi": 65,
          "name": "F4",
          "ticks": 27960,
          "time": 116.5,
          "velocity": 0.8346456692913385
        },
        {
          "duration": 0.36666666666666003,
          "durationTicks": 88,
          "midi": 65,
          "name": "F4",
          "ticks": 28080,
          "time": 117,
          "velocity": 0.8346456692913385
        },
        {
          "duration": 0.36666666666666003,
          "durationTicks": 88,
          "midi": 62,
          "name": "D4",
          "ticks": 28200,
          "time": 117.5,
          "velocity": 0.8346456692913385
        },
        {
          "duration": 0.9166666666666714,
          "durationTicks": 220,
          "midi": 67,
          "name": "G4",
          "ticks": 28320,
          "time": 118,
          "velocity": 0.8346456692913385
        },
        {
          "duration": 0.9500000000000028,
          "durationTicks": 228,
          "midi": 65,
          "name": "F4",
          "ticks": 28560,
          "time": 119,
          "velocity": 0.8346456692913385
        },
        {
          "duration": 1.4500000000000028,
          "durationTicks": 348,
          "midi": 67,
          "name": "G4",
          "ticks": 28800,
          "time": 120,
          "velocity": 0.8346456692913385
        },
        {
          "duration": 0.23333333333333428,
          "durationTicks": 56,
          "midi": 62,
          "name": "D4",
          "ticks": 29220,
          "time": 121.75,
          "velocity": 0.8346456692913385
        },
        {
          "duration": 0.29999999999999716,
          "durationTicks": 72,
          "midi": 65,
          "name": "F4",
          "ticks": 29280,
          "time": 122,
          "velocity": 0.8346456692913385
        },
        {
          "duration": 0.28333333333333144,
          "durationTicks": 68,
          "midi": 63,
          "name": "D#4",
          "ticks": 29400,
          "time": 122.5,
          "velocity": 0.8346456692913385
        },
        {
          "duration": 0.9000000000000057,
          "durationTicks": 216,
          "midi": 62,
          "name": "D4",
          "ticks": 29520,
          "time": 123,
          "velocity": 0.8346456692913385
        },
        {
          "duration": 0.23333333333333428,
          "durationTicks": 56,
          "midi": 62,
          "name": "D4",
          "ticks": 29820,
          "time": 124.25,
          "velocity": 0.8346456692913385
        },
        {
          "duration": 0.28333333333333144,
          "durationTicks": 68,
          "midi": 65,
          "name": "F4",
          "ticks": 29880,
          "time": 124.5,
          "velocity": 0.8346456692913385
        },
        {
          "duration": 0.2666666666666657,
          "durationTicks": 64,
          "midi": 65,
          "name": "F4",
          "ticks": 30000,
          "time": 125,
          "velocity": 0.8346456692913385
        },
        {
          "duration": 0.2666666666666657,
          "durationTicks": 64,
          "midi": 62,
          "name": "D4",
          "ticks": 30120,
          "time": 125.5,
          "velocity": 0.8346456692913385
        },
        {
          "duration": 1.9166666666666714,
          "durationTicks": 460,
          "midi": 67,
          "name": "G4",
          "ticks": 30240,
          "time": 126,
          "velocity": 0.8346456692913385
        },
        {
          "duration": 1.4499999999999886,
          "durationTicks": 348,
          "midi": 65,
          "name": "F4",
          "ticks": 30720,
          "time": 128,
          "velocity": 0.8346456692913385
        },
        {
          "duration": 0.4333333333333371,
          "durationTicks": 104,
          "midi": 65,
          "name": "F4",
          "ticks": 34920,
          "time": 145.5,
          "velocity": 0.8346456692913385
        },
        {
          "duration": 0.8666666666666742,
          "durationTicks": 208,
          "midi": 67,
          "name": "G4",
          "ticks": 35040,
          "time": 146,
          "velocity": 0.8346456692913385
        },
        {
          "duration": 0.9166666666666572,
          "durationTicks": 220,
          "midi": 65,
          "name": "F4",
          "ticks": 35280,
          "time": 147,
          "velocity": 0.8346456692913385
        },
        {
          "duration": 1.4499999999999886,
          "durationTicks": 348,
          "midi": 67,
          "name": "G4",
          "ticks": 35520,
          "time": 148,
          "velocity": 0.8346456692913385
        },
        {
          "duration": 0.18333333333333712,
          "durationTicks": 44,
          "midi": 62,
          "name": "D4",
          "ticks": 35940,
          "time": 149.75,
          "velocity": 0.8346456692913385
        },
        {
          "duration": 0.30000000000001137,
          "durationTicks": 72,
          "midi": 65,
          "name": "F4",
          "ticks": 36000,
          "time": 150,
          "velocity": 0.8346456692913385
        },
        {
          "duration": 0.26666666666667993,
          "durationTicks": 64,
          "midi": 63,
          "name": "D#4",
          "ticks": 36120,
          "time": 150.5,
          "velocity": 0.8346456692913385
        },
        {
          "duration": 0.9166666666666572,
          "durationTicks": 220,
          "midi": 62,
          "name": "D4",
          "ticks": 36240,
          "time": 151,
          "velocity": 0.8346456692913385
        },
        {
          "duration": 0.19999999999998863,
          "durationTicks": 48,
          "midi": 62,
          "name": "D4",
          "ticks": 36540,
          "time": 152.25,
          "velocity": 0.8346456692913385
        },
        {
          "duration": 0.26666666666667993,
          "durationTicks": 64,
          "midi": 65,
          "name": "F4",
          "ticks": 36600,
          "time": 152.5,
          "velocity": 0.8346456692913385
        },
        {
          "duration": 0.26666666666667993,
          "durationTicks": 64,
          "midi": 65,
          "name": "F4",
          "ticks": 36720,
          "time": 153,
          "velocity": 0.8346456692913385
        },
        {
          "duration": 0.36666666666667425,
          "durationTicks": 88,
          "midi": 62,
          "name": "D4",
          "ticks": 36840,
          "time": 153.5,
          "velocity": 0.8346456692913385
        },
        {
          "duration": 0.9333333333333371,
          "durationTicks": 224,
          "midi": 67,
          "name": "G4",
          "ticks": 36960,
          "time": 154,
          "velocity": 0.8346456692913385
        },
        {
          "duration": 0.9666666666666686,
          "durationTicks": 232,
          "midi": 65,
          "name": "F4",
          "ticks": 37200,
          "time": 155,
          "velocity": 0.8346456692913385
        },
        {
          "duration": 1.4666666666666686,
          "durationTicks": 352,
          "midi": 67,
          "name": "G4",
          "ticks": 37440,
          "time": 156,
          "velocity": 0.8346456692913385
        },
        {
          "duration": 0.23333333333332007,
          "durationTicks": 56,
          "midi": 62,
          "name": "D4",
          "ticks": 37860,
          "time": 157.75,
          "velocity": 0.8346456692913385
        },
        {
          "duration": 0.30000000000001137,
          "durationTicks": 72,
          "midi": 65,
          "name": "F4",
          "ticks": 37920,
          "time": 158,
          "velocity": 0.8346456692913385
        },
        {
          "duration": 0.3166666666666629,
          "durationTicks": 76,
          "midi": 63,
          "name": "D#4",
          "ticks": 38040,
          "time": 158.5,
          "velocity": 0.8346456692913385
        },
        {
          "duration": 0.9333333333333371,
          "durationTicks": 224,
          "midi": 62,
          "name": "D4",
          "ticks": 38160,
          "time": 159,
          "velocity": 0.8346456692913385
        },
        {
          "duration": 0.23333333333332007,
          "durationTicks": 56,
          "midi": 62,
          "name": "D4",
          "ticks": 38460,
          "time": 160.25,
          "velocity": 0.8346456692913385
        },
        {
          "duration": 0.23333333333332007,
          "durationTicks": 56,
          "midi": 65,
          "name": "F4",
          "ticks": 38520,
          "time": 160.5,
          "velocity": 0.8346456692913385
        },
        {
          "duration": 0.30000000000001137,
          "durationTicks": 72,
          "midi": 65,
          "name": "F4",
          "ticks": 38640,
          "time": 161,
          "velocity": 0.8346456692913385
        },
        {
          "duration": 0.3499999999999943,
          "durationTicks": 84,
          "midi": 62,
          "name": "D4",
          "ticks": 38760,
          "time": 161.5,
          "velocity": 0.8346456692913385
        },
        {
          "duration": 1.9499999999999886,
          "durationTicks": 468,
          "midi": 67,
          "name": "G4",
          "ticks": 38880,
          "time": 162,
          "velocity": 0.8346456692913385
        },
        {
          "duration": 1.4666666666666686,
          "durationTicks": 352,
          "midi": 65,
          "name": "F4",
          "ticks": 39360,
          "time": 164,
          "velocity": 0.8346456692913385
        },
        {
          "duration": 1.4666666666666686,
          "durationTicks": 352,
          "midi": 67,
          "name": "G4",
          "ticks": 39840,
          "time": 166,
          "velocity": 0.8346456692913385
        },
        {
          "duration": 0.19999999999998863,
          "durationTicks": 48,
          "midi": 62,
          "name": "D4",
          "ticks": 40260,
          "time": 167.75,
          "velocity": 0.8346456692913385
        },
        {
          "duration": 0.28333333333333144,
          "durationTicks": 68,
          "midi": 65,
          "name": "F4",
          "ticks": 40320,
          "time": 168,
          "velocity": 0.8346456692913385
        },
        {
          "duration": 0.3333333333333428,
          "durationTicks": 80,
          "midi": 63,
          "name": "D#4",
          "ticks": 40440,
          "time": 168.5,
          "velocity": 0.8346456692913385
        },
        {
          "duration": 0.9000000000000057,
          "durationTicks": 216,
          "midi": 62,
          "name": "D4",
          "ticks": 40560,
          "time": 169,
          "velocity": 0.8346456692913385
        },
        {
          "duration": 0.19999999999998863,
          "durationTicks": 48,
          "midi": 62,
          "name": "D4",
          "ticks": 40860,
          "time": 170.25,
          "velocity": 0.8346456692913385
        },
        {
          "duration": 0.3166666666666629,
          "durationTicks": 76,
          "midi": 65,
          "name": "F4",
          "ticks": 40920,
          "time": 170.5,
          "velocity": 0.8346456692913385
        },
        {
          "duration": 0.36666666666667425,
          "durationTicks": 88,
          "midi": 65,
          "name": "F4",
          "ticks": 41040,
          "time": 171,
          "velocity": 0.8346456692913385
        },
        {
          "duration": 0.44999999999998863,
          "durationTicks": 108,
          "midi": 62,
          "name": "D4",
          "ticks": 41160,
          "time": 171.5,
          "velocity": 0.8346456692913385
        },
        {
          "duration": 0.9166666666666572,
          "durationTicks": 220,
          "midi": 67,
          "name": "G4",
          "ticks": 41280,
          "time": 172,
          "velocity": 0.8346456692913385
        },
        {
          "duration": 0.9000000000000057,
          "durationTicks": 216,
          "midi": 65,
          "name": "F4",
          "ticks": 41520,
          "time": 173,
          "velocity": 0.8346456692913385
        },
        {
          "duration": 1.5833333333333428,
          "durationTicks": 380,
          "midi": 67,
          "name": "G4",
          "ticks": 41760,
          "time": 174,
          "velocity": 0.8346456692913385
        },
        {
          "duration": 0.23333333333332007,
          "durationTicks": 56,
          "midi": 62,
          "name": "D4",
          "ticks": 42180,
          "time": 175.75,
          "velocity": 0.8346456692913385
        },
        {
          "duration": 0.30000000000001137,
          "durationTicks": 72,
          "midi": 65,
          "name": "F4",
          "ticks": 42240,
          "time": 176,
          "velocity": 0.8346456692913385
        },
        {
          "duration": 0.28333333333333144,
          "durationTicks": 68,
          "midi": 63,
          "name": "D#4",
          "ticks": 42360,
          "time": 176.5,
          "velocity": 0.8346456692913385
        },
        {
          "duration": 0.8833333333333258,
          "durationTicks": 212,
          "midi": 62,
          "name": "D4",
          "ticks": 42480,
          "time": 177,
          "velocity": 0.8346456692913385
        },
        {
          "duration": 0.23333333333332007,
          "durationTicks": 56,
          "midi": 62,
          "name": "D4",
          "ticks": 42780,
          "time": 178.25,
          "velocity": 0.8346456692913385
        },
        {
          "duration": 0.28333333333333144,
          "durationTicks": 68,
          "midi": 65,
          "name": "F4",
          "ticks": 42840,
          "time": 178.5,
          "velocity": 0.8346456692913385
        },
        {
          "duration": 0.26666666666667993,
          "durationTicks": 64,
          "midi": 65,
          "name": "F4",
          "ticks": 42960,
          "time": 179,
          "velocity": 0.8346456692913385
        },
        {
          "duration": 0.3166666666666629,
          "durationTicks": 76,
          "midi": 62,
          "name": "D4",
          "ticks": 43080,
          "time": 179.5,
          "velocity": 0.8346456692913385
        },
        {
          "duration": 0.9166666666666572,
          "durationTicks": 220,
          "midi": 67,
          "name": "G4",
          "ticks": 43200,
          "time": 180,
          "velocity": 0.8346456692913385
        },
        {
          "duration": 0.9666666666666686,
          "durationTicks": 232,
          "midi": 65,
          "name": "F4",
          "ticks": 43440,
          "time": 181,
          "velocity": 0.8346456692913385
        },
        {
          "duration": 5.800000000000011,
          "durationTicks": 1392,
          "midi": 67,
          "name": "G4",
          "ticks": 43680,
          "time": 182,
          "velocity": 0.8346456692913385
        },
        {
          "duration": 0.9499999999999886,
          "durationTicks": 228,
          "midi": 67,
          "name": "G4",
          "ticks": 45120,
          "time": 188,
          "velocity": 0.8346456692913385
        },
        {
          "duration": 0.9666666666666686,
          "durationTicks": 232,
          "midi": 65,
          "name": "F4",
          "ticks": 45360,
          "time": 189,
          "velocity": 0.8346456692913385
        },
        {
          "duration": 4.25,
          "durationTicks": 1020,
          "midi": 67,
          "name": "G4",
          "ticks": 45600,
          "time": 190,
          "velocity": 0.8346456692913385
        },
        {
          "duration": 0.3499999999999943,
          "durationTicks": 84,
          "midi": 65,
          "name": "F4",
          "ticks": 46680,
          "time": 194.5,
          "velocity": 0.8346456692913385
        },
        {
          "duration": 0.3499999999999943,
          "durationTicks": 84,
          "midi": 65,
          "name": "F4",
          "ticks": 46800,
          "time": 195,
          "velocity": 0.8346456692913385
        },
        {
          "duration": 0.3499999999999943,
          "durationTicks": 84,
          "midi": 62,
          "name": "D4",
          "ticks": 46920,
          "time": 195.5,
          "velocity": 0.8346456692913385
        },
        {
          "duration": 0.9166666666666572,
          "durationTicks": 220,
          "midi": 67,
          "name": "G4",
          "ticks": 47040,
          "time": 196,
          "velocity": 0.8346456692913385
        },
        {
          "duration": 0.9333333333333371,
          "durationTicks": 224,
          "midi": 65,
          "name": "F4",
          "ticks": 47280,
          "time": 197,
          "velocity": 0.8346456692913385
        }
      ]
    },
    {
      "channel": 0,
      "controlChanges": {
        "0": [
          {
            "number": 0,
            "ticks": 0,
            "time": 0,
            "value": 0
          }
        ]
      },
      "pitchBends": [],
      "instrument": {
        "family": "piano",
        "number": 0,
        "name": "acoustic grand piano"
      },
      "name": "9",
      "notes": [],
      "endOfTrackTicks": 2304
    },
    {
      "channel": 8,
      "controlChanges": {
        "7": [
          {
            "number": 7,
            "ticks": 0,
            "time": 0,
            "value": 0.7795275590551181
          },
          {
            "number": 7,
            "ticks": 1160,
            "time": 4.833333333333333,
            "value": 0
          },
          {
            "number": 7,
            "ticks": 1176,
            "time": 4.9,
            "value": 0.031496062992125984
          },
          {
            "number": 7,
            "ticks": 1192,
            "time": 4.966666666666667,
            "value": 0.047244094488188976
          },
          {
            "number": 7,
            "ticks": 1200,
            "time": 5,
            "value": 0.05511811023622047
          },
          {
            "number": 7,
            "ticks": 1224,
            "time": 5.1,
            "value": 0.07086614173228346
          },
          {
            "number": 7,
            "ticks": 1256,
            "time": 5.233333333333333,
            "value": 0.07874015748031496
          },
          {
            "number": 7,
            "ticks": 1264,
            "time": 5.266666666666667,
            "value": 0.10236220472440945
          },
          {
            "number": 7,
            "ticks": 1280,
            "time": 5.333333333333333,
            "value": 0.11023622047244094
          },
          {
            "number": 7,
            "ticks": 1288,
            "time": 5.366666666666666,
            "value": 0.12598425196850394
          },
          {
            "number": 7,
            "ticks": 1304,
            "time": 5.433333333333334,
            "value": 0.13385826771653545
          },
          {
            "number": 7,
            "ticks": 1328,
            "time": 5.533333333333333,
            "value": 0.14960629921259844
          },
          {
            "number": 7,
            "ticks": 1336,
            "time": 5.566666666666666,
            "value": 0.15748031496062992
          },
          {
            "number": 7,
            "ticks": 1376,
            "time": 5.733333333333333,
            "value": 0.1732283464566929
          },
          {
            "number": 7,
            "ticks": 1392,
            "time": 5.8,
            "value": 0.18110236220472442
          },
          {
            "number": 7,
            "ticks": 1408,
            "time": 5.866666666666666,
            "value": 0.1968503937007874
          },
          {
            "number": 7,
            "ticks": 1416,
            "time": 5.9,
            "value": 0.2047244094488189
          },
          {
            "number": 7,
            "ticks": 1432,
            "time": 5.966666666666667,
            "value": 0.2125984251968504
          },
          {
            "number": 7,
            "ticks": 1440,
            "time": 6,
            "value": 0.2283464566929134
          },
          {
            "number": 7,
            "ticks": 1456,
            "time": 6.066666666666666,
            "value": 0.23622047244094488
          },
          {
            "number": 7,
            "ticks": 1472,
            "time": 6.133333333333334,
            "value": 0.25196850393700787
          },
          {
            "number": 7,
            "ticks": 1480,
            "time": 6.166666666666667,
            "value": 0.25984251968503935
          },
          {
            "number": 7,
            "ticks": 1496,
            "time": 6.233333333333333,
            "value": 0.2755905511811024
          },
          {
            "number": 7,
            "ticks": 1504,
            "time": 6.266666666666667,
            "value": 0.28346456692913385
          },
          {
            "number": 7,
            "ticks": 1520,
            "time": 6.333333333333333,
            "value": 0.30708661417322836
          },
          {
            "number": 7,
            "ticks": 1536,
            "time": 6.4,
            "value": 0.33070866141732286
          },
          {
            "number": 7,
            "ticks": 1560,
            "time": 6.5,
            "value": 0.33858267716535434
          },
          {
            "number": 7,
            "ticks": 1576,
            "time": 6.566666666666666,
            "value": 0.3543307086614173
          },
          {
            "number": 7,
            "ticks": 1584,
            "time": 6.6,
            "value": 0.3779527559055118
          },
          {
            "number": 7,
            "ticks": 1600,
            "time": 6.666666666666667,
            "value": 0.3858267716535433
          },
          {
            "number": 7,
            "ticks": 1616,
            "time": 6.733333333333333,
            "value": 0.4015748031496063
          },
          {
            "number": 7,
            "ticks": 1632,
            "time": 6.8,
            "value": 0.4094488188976378
          },
          {
            "number": 7,
            "ticks": 1640,
            "time": 6.833333333333333,
            "value": 0.4330708661417323
          },
          {
            "number": 7,
            "ticks": 1656,
            "time": 6.9,
            "value": 0.4409448818897638
          },
          {
            "number": 7,
            "ticks": 1664,
            "time": 6.933333333333334,
            "value": 0.4566929133858268
          },
          {
            "number": 7,
            "ticks": 1688,
            "time": 7.033333333333333,
            "value": 0.4645669291338583
          },
          {
            "number": 7,
            "ticks": 1696,
            "time": 7.066666666666666,
            "value": 0.48031496062992124
          },
          {
            "number": 7,
            "ticks": 1712,
            "time": 7.133333333333334,
            "value": 0.4881889763779528
          },
          {
            "number": 7,
            "ticks": 1720,
            "time": 7.166666666666667,
            "value": 0.5039370078740157
          },
          {
            "number": 7,
            "ticks": 1736,
            "time": 7.233333333333333,
            "value": 0.5118110236220472
          },
          {
            "number": 7,
            "ticks": 1752,
            "time": 7.3,
            "value": 0.5196850393700787
          },
          {
            "number": 7,
            "ticks": 1760,
            "time": 7.333333333333333,
            "value": 0.5354330708661418
          },
          {
            "number": 7,
            "ticks": 1768,
            "time": 7.366666666666666,
            "value": 0.5433070866141733
          },
          {
            "number": 7,
            "ticks": 1776,
            "time": 7.4,
            "value": 0.5590551181102362
          },
          {
            "number": 7,
            "ticks": 1792,
            "time": 7.466666666666667,
            "value": 0.5669291338582677
          },
          {
            "number": 7,
            "ticks": 1800,
            "time": 7.5,
            "value": 0.5590551181102362
          },
          {
            "number": 7,
            "ticks": 1912,
            "time": 7.966666666666667,
            "value": 0.5196850393700787
          },
          {
            "number": 7,
            "ticks": 1920,
            "time": 8,
            "value": 0.5118110236220472
          },
          {
            "number": 7,
            "ticks": 1928,
            "time": 8.033333333333333,
            "value": 0.4881889763779528
          },
          {
            "number": 7,
            "ticks": 1944,
            "time": 8.1,
            "value": 0.48031496062992124
          },
          {
            "number": 7,
            "ticks": 1952,
            "time": 8.133333333333333,
            "value": 0.4566929133858268
          },
          {
            "number": 7,
            "ticks": 1968,
            "time": 8.2,
            "value": 0.4409448818897638
          },
          {
            "number": 7,
            "ticks": 1976,
            "time": 8.233333333333333,
            "value": 0.4330708661417323
          },
          {
            "number": 7,
            "ticks": 1984,
            "time": 8.266666666666667,
            "value": 0.41732283464566927
          },
          {
            "number": 7,
            "ticks": 1992,
            "time": 8.3,
            "value": 0.3858267716535433
          },
          {
            "number": 7,
            "ticks": 2000,
            "time": 8.333333333333334,
            "value": 0.3779527559055118
          },
          {
            "number": 7,
            "ticks": 2008,
            "time": 8.366666666666667,
            "value": 0.3543307086614173
          },
          {
            "number": 7,
            "ticks": 2024,
            "time": 8.433333333333334,
            "value": 0.33070866141732286
          },
          {
            "number": 7,
            "ticks": 2032,
            "time": 8.466666666666667,
            "value": 0.30708661417322836
          },
          {
            "number": 7,
            "ticks": 2048,
            "time": 8.533333333333333,
            "value": 0.28346456692913385
          },
          {
            "number": 7,
            "ticks": 2064,
            "time": 8.6,
            "value": 0.25196850393700787
          },
          {
            "number": 7,
            "ticks": 2080,
            "time": 8.666666666666666,
            "value": 0.2283464566929134
          },
          {
            "number": 7,
            "ticks": 2096,
            "time": 8.733333333333333,
            "value": 0.2047244094488189
          },
          {
            "number": 7,
            "ticks": 2104,
            "time": 8.766666666666667,
            "value": 0.1968503937007874
          },
          {
            "number": 7,
            "ticks": 2112,
            "time": 8.8,
            "value": 0.18110236220472442
          },
          {
            "number": 7,
            "ticks": 2128,
            "time": 8.866666666666667,
            "value": 0.15748031496062992
          },
          {
            "number": 7,
            "ticks": 2144,
            "time": 8.933333333333334,
            "value": 0.12598425196850394
          },
          {
            "number": 7,
            "ticks": 2152,
            "time": 8.966666666666667,
            "value": 0.11023622047244094
          },
          {
            "number": 7,
            "ticks": 2160,
            "time": 9,
            "value": 0.10236220472440945
          },
          {
            "number": 7,
            "ticks": 2168,
            "time": 9.033333333333333,
            "value": 0.07874015748031496
          },
          {
            "number": 7,
            "ticks": 2184,
            "time": 9.1,
            "value": 0.05511811023622047
          },
          {
            "number": 7,
            "ticks": 2192,
            "time": 9.133333333333333,
            "value": 0.047244094488188976
          },
          {
            "number": 7,
            "ticks": 2200,
            "time": 9.166666666666666,
            "value": 0.031496062992125984
          },
          {
            "number": 7,
            "ticks": 2208,
            "time": 9.2,
            "value": 0.023622047244094488
          },
          {
            "number": 7,
            "ticks": 2216,
            "time": 9.233333333333333,
            "value": 0
          },
          {
            "number": 7,
            "ticks": 2304,
            "time": 9.6,
            "value": 0.7795275590551181
          }
        ],
        "10": [
          {
            "number": 10,
            "ticks": 0,
            "time": 0,
            "value": 0.5039370078740157
          }
        ],
        "91": [
          {
            "number": 91,
            "ticks": 0,
            "time": 0,
            "value": 0.31496062992125984
          }
        ],
        "93": [
          {
            "number": 93,
            "ticks": 0,
            "time": 0,
            "value": 0
          }
        ]
      },
      "pitchBends": [],
      "instrument": {
        "family": "sound effects",
        "number": 122,
        "name": "seashore"
      },
      "name": "",
      "notes": [
        {
          "duration": 2.9833333333333334,
          "durationTicks": 716,
          "midi": 62,
          "name": "D4",
          "ticks": 1200,
          "time": 5,
          "velocity": 0.6692913385826772
        }
      ]
    },
    {
      "channel": 0,
      "controlChanges": {
        "0": [
          {
            "number": 0,
            "ticks": 0,
            "time": 0,
            "value": 0
          }
        ]
      },
      "pitchBends": [],
      "instrument": {
        "family": "piano",
        "number": 0,
        "name": "acoustic grand piano"
      },
      "name": "10",
      "notes": [],
      "endOfTrackTicks": 36024
    },
    {
      "channel": 10,
      "controlChanges": {
        "7": [
          {
            "number": 7,
            "ticks": 0,
            "time": 0,
            "value": 0.5826771653543307
          },
          {
            "number": 7,
            "ticks": 35648,
            "time": 148.53333333333333,
            "value": 0.5590551181102362
          },
          {
            "number": 7,
            "ticks": 35664,
            "time": 148.6,
            "value": 0.5433070866141733
          },
          {
            "number": 7,
            "ticks": 35672,
            "time": 148.63333333333333,
            "value": 0.5354330708661418
          },
          {
            "number": 7,
            "ticks": 35680,
            "time": 148.66666666666666,
            "value": 0.5196850393700787
          },
          {
            "number": 7,
            "ticks": 35696,
            "time": 148.73333333333332,
            "value": 0.5118110236220472
          },
          {
            "number": 7,
            "ticks": 35704,
            "time": 148.76666666666668,
            "value": 0.4881889763779528
          },
          {
            "number": 7,
            "ticks": 35712,
            "time": 148.8,
            "value": 0.48031496062992124
          },
          {
            "number": 7,
            "ticks": 35728,
            "time": 148.86666666666667,
            "value": 0.4645669291338583
          },
          {
            "number": 7,
            "ticks": 35744,
            "time": 148.93333333333334,
            "value": 0.4409448818897638
          },
          {
            "number": 7,
            "ticks": 35760,
            "time": 149,
            "value": 0.4330708661417323
          },
          {
            "number": 7,
            "ticks": 35768,
            "time": 149.03333333333333,
            "value": 0.4094488188976378
          },
          {
            "number": 7,
            "ticks": 35784,
            "time": 149.1,
            "value": 0.3858267716535433
          },
          {
            "number": 7,
            "ticks": 35800,
            "time": 149.16666666666666,
            "value": 0.36220472440944884
          },
          {
            "number": 7,
            "ticks": 35816,
            "time": 149.23333333333332,
            "value": 0.3543307086614173
          },
          {
            "number": 7,
            "ticks": 35824,
            "time": 149.26666666666668,
            "value": 0.33858267716535434
          },
          {
            "number": 7,
            "ticks": 35840,
            "time": 149.33333333333334,
            "value": 0.33070866141732286
          },
          {
            "number": 7,
            "ticks": 35856,
            "time": 149.4,
            "value": 0.31496062992125984
          },
          {
            "number": 7,
            "ticks": 35864,
            "time": 149.43333333333334,
            "value": 0.30708661417322836
          },
          {
            "number": 7,
            "ticks": 35872,
            "time": 149.46666666666667,
            "value": 0.2992125984251969
          },
          {
            "number": 7,
            "ticks": 35880,
            "time": 149.5,
            "value": 0.28346456692913385
          },
          {
            "number": 7,
            "ticks": 35896,
            "time": 149.56666666666666,
            "value": 0.2755905511811024
          },
          {
            "number": 7,
            "ticks": 35904,
            "time": 149.6,
            "value": 0.25196850393700787
          },
          {
            "number": 7,
            "ticks": 35912,
            "time": 149.63333333333333,
            "value": 0.2283464566929134
          },
          {
            "number": 7,
            "ticks": 35928,
            "time": 149.7,
            "value": 0.2047244094488189
          },
          {
            "number": 7,
            "ticks": 35936,
            "time": 149.73333333333332,
            "value": 0.2125984251968504
          },
          {
            "number": 7,
            "ticks": 35944,
            "time": 149.76666666666668,
            "value": 0.2047244094488189
          },
          {
            "number": 7,
            "ticks": 35952,
            "time": 149.8,
            "value": 0.18110236220472442
          },
          {
            "number": 7,
            "ticks": 35968,
            "time": 149.86666666666667,
            "value": 0.1732283464566929
          },
          {
            "number": 7,
            "ticks": 35976,
            "time": 149.9,
            "value": 0.15748031496062992
          },
          {
            "number": 7,
            "ticks": 35984,
            "time": 149.93333333333334,
            "value": 0.14960629921259844
          },
          {
            "number": 7,
            "ticks": 35992,
            "time": 149.96666666666667,
            "value": 0.13385826771653545
          },
          {
            "number": 7,
            "ticks": 36000,
            "time": 150,
            "value": 0.12598425196850394
          },
          {
            "number": 7,
            "ticks": 36008,
            "time": 150.03333333333333,
            "value": 0.11023622047244094
          },
          {
            "number": 7,
            "ticks": 36024,
            "time": 150.1,
            "value": 0.5826771653543307
          }
        ],
        "10": [
          {
            "number": 10,
            "ticks": 0,
            "time": 0,
            "value": 0.5039370078740157
          }
        ],
        "91": [
          {
            "number": 91,
            "ticks": 0,
            "time": 0,
            "value": 0.31496062992125984
          }
        ],
        "93": [
          {
            "number": 93,
            "ticks": 0,
            "time": 0,
            "value": 0
          }
        ]
      },
      "pitchBends": [],
      "instrument": {
        "family": "guitar",
        "number": 27,
        "name": "electric guitar (clean)"
      },
      "name": "",
      "notes": [
        {
          "duration": 0.30000000000001137,
          "durationTicks": 72,
          "midi": 62,
          "name": "D4",
          "ticks": 31020,
          "time": 129.25,
          "velocity": 0.889763779527559
        },
        {
          "duration": 0.30000000000001137,
          "durationTicks": 72,
          "midi": 65,
          "name": "F4",
          "ticks": 31080,
          "time": 129.5,
          "velocity": 0.889763779527559
        },
        {
          "duration": 0.30000000000001137,
          "durationTicks": 72,
          "midi": 62,
          "name": "D4",
          "ticks": 31140,
          "time": 129.75,
          "velocity": 0.889763779527559
        },
        {
          "duration": 0.30000000000001137,
          "durationTicks": 72,
          "midi": 65,
          "name": "F4",
          "ticks": 31200,
          "time": 130,
          "velocity": 0.8976377952755905
        },
        {
          "duration": 0.30000000000001137,
          "durationTicks": 72,
          "midi": 62,
          "name": "D4",
          "ticks": 31260,
          "time": 130.25,
          "velocity": 0.8976377952755905
        },
        {
          "duration": 0.30000000000001137,
          "durationTicks": 72,
          "midi": 65,
          "name": "F4",
          "ticks": 31320,
          "time": 130.5,
          "velocity": 0.8976377952755905
        },
        {
          "duration": 0.30000000000001137,
          "durationTicks": 72,
          "midi": 62,
          "name": "D4",
          "ticks": 31380,
          "time": 130.75,
          "velocity": 0.889763779527559
        },
        {
          "duration": 0.4333333333333371,
          "durationTicks": 104,
          "midi": 65,
          "name": "F4",
          "ticks": 31440,
          "time": 131,
          "velocity": 0.889763779527559
        },
        {
          "duration": 0.30000000000001137,
          "durationTicks": 72,
          "midi": 67,
          "name": "G4",
          "ticks": 31560,
          "time": 131.5,
          "velocity": 0.889763779527559
        },
        {
          "duration": 1.26666666666668,
          "durationTicks": 304,
          "midi": 70,
          "name": "A#4",
          "ticks": 31680,
          "time": 132,
          "velocity": 0.8976377952755905
        },
        {
          "duration": 0.30000000000001137,
          "durationTicks": 72,
          "midi": 62,
          "name": "D4",
          "ticks": 31980,
          "time": 133.25,
          "velocity": 0.889763779527559
        },
        {
          "duration": 0.30000000000001137,
          "durationTicks": 72,
          "midi": 65,
          "name": "F4",
          "ticks": 32040,
          "time": 133.5,
          "velocity": 0.889763779527559
        },
        {
          "duration": 0.30000000000001137,
          "durationTicks": 72,
          "midi": 62,
          "name": "D4",
          "ticks": 32100,
          "time": 133.75,
          "velocity": 0.889763779527559
        },
        {
          "duration": 0.30000000000001137,
          "durationTicks": 72,
          "midi": 65,
          "name": "F4",
          "ticks": 32160,
          "time": 134,
          "velocity": 0.889763779527559
        },
        {
          "duration": 0.30000000000001137,
          "durationTicks": 72,
          "midi": 62,
          "name": "D4",
          "ticks": 32220,
          "time": 134.25,
          "velocity": 0.8976377952755905
        },
        {
          "duration": 0.30000000000001137,
          "durationTicks": 72,
          "midi": 65,
          "name": "F4",
          "ticks": 32280,
          "time": 134.5,
          "velocity": 0.8976377952755905
        },
        {
          "duration": 0.30000000000001137,
          "durationTicks": 72,
          "midi": 62,
          "name": "D4",
          "ticks": 32340,
          "time": 134.75,
          "velocity": 0.8976377952755905
        },
        {
          "duration": 0.44999999999998863,
          "durationTicks": 108,
          "midi": 65,
          "name": "F4",
          "ticks": 32400,
          "time": 135,
          "velocity": 0.8976377952755905
        },
        {
          "duration": 0.44999999999998863,
          "durationTicks": 108,
          "midi": 67,
          "name": "G4",
          "ticks": 32520,
          "time": 135.5,
          "velocity": 0.889763779527559
        },
        {
          "duration": 0.4333333333333371,
          "durationTicks": 104,
          "midi": 69,
          "name": "A4",
          "ticks": 32640,
          "time": 136,
          "velocity": 0.889763779527559
        },
        {
          "duration": 0.4333333333333371,
          "durationTicks": 104,
          "midi": 67,
          "name": "G4",
          "ticks": 32760,
          "time": 136.5,
          "velocity": 0.889763779527559
        },
        {
          "duration": 0.30000000000001137,
          "durationTicks": 72,
          "midi": 65,
          "name": "F4",
          "ticks": 32880,
          "time": 137,
          "velocity": 0.889763779527559
        },
        {
          "duration": 0.30000000000001137,
          "durationTicks": 72,
          "midi": 62,
          "name": "D4",
          "ticks": 32940,
          "time": 137.25,
          "velocity": 0.8976377952755905
        },
        {
          "duration": 0.30000000000001137,
          "durationTicks": 72,
          "midi": 65,
          "name": "F4",
          "ticks": 33000,
          "time": 137.5,
          "velocity": 0.8976377952755905
        },
        {
          "duration": 0.30000000000001137,
          "durationTicks": 72,
          "midi": 62,
          "name": "D4",
          "ticks": 33060,
          "time": 137.75,
          "velocity": 0.8976377952755905
        },
        {
          "duration": 0.30000000000001137,
          "durationTicks": 72,
          "midi": 65,
          "name": "F4",
          "ticks": 33120,
          "time": 138,
          "velocity": 0.8976377952755905
        },
        {
          "duration": 0.30000000000001137,
          "durationTicks": 72,
          "midi": 62,
          "name": "D4",
          "ticks": 33180,
          "time": 138.25,
          "velocity": 0.889763779527559
        },
        {
          "duration": 0.30000000000001137,
          "durationTicks": 72,
          "midi": 65,
          "name": "F4",
          "ticks": 33240,
          "time": 138.5,
          "velocity": 0.889763779527559
        },
        {
          "duration": 0.30000000000001137,
          "durationTicks": 72,
          "midi": 62,
          "name": "D4",
          "ticks": 33300,
          "time": 138.75,
          "velocity": 0.8976377952755905
        },
        {
          "duration": 0.4000000000000057,
          "durationTicks": 96,
          "midi": 65,
          "name": "F4",
          "ticks": 33360,
          "time": 139,
          "velocity": 0.8976377952755905
        },
        {
          "duration": 0.46666666666666856,
          "durationTicks": 112,
          "midi": 67,
          "name": "G4",
          "ticks": 33480,
          "time": 139.5,
          "velocity": 0.889763779527559
        },
        {
          "duration": 1.3833333333333258,
          "durationTicks": 332,
          "midi": 70,
          "name": "A#4",
          "ticks": 33600,
          "time": 140,
          "velocity": 0.889763779527559
        },
        {
          "duration": 0.30000000000001137,
          "durationTicks": 72,
          "midi": 62,
          "name": "D4",
          "ticks": 33900,
          "time": 141.25,
          "velocity": 0.889763779527559
        },
        {
          "duration": 0.30000000000001137,
          "durationTicks": 72,
          "midi": 65,
          "name": "F4",
          "ticks": 33960,
          "time": 141.5,
          "velocity": 0.889763779527559
        },
        {
          "duration": 0.30000000000001137,
          "durationTicks": 72,
          "midi": 62,
          "name": "D4",
          "ticks": 34020,
          "time": 141.75,
          "velocity": 0.8976377952755905
        },
        {
          "duration": 0.30000000000001137,
          "durationTicks": 72,
          "midi": 65,
          "name": "F4",
          "ticks": 34080,
          "time": 142,
          "velocity": 0.8976377952755905
        },
        {
          "duration": 0.30000000000001137,
          "durationTicks": 72,
          "midi": 62,
          "name": "D4",
          "ticks": 34140,
          "time": 142.25,
          "velocity": 0.889763779527559
        },
        {
          "duration": 0.30000000000001137,
          "durationTicks": 72,
          "midi": 65,
          "name": "F4",
          "ticks": 34200,
          "time": 142.5,
          "velocity": 0.8976377952755905
        },
        {
          "duration": 0.30000000000001137,
          "durationTicks": 72,
          "midi": 62,
          "name": "D4",
          "ticks": 34260,
          "time": 142.75,
          "velocity": 0.8976377952755905
        },
        {
          "duration": 0.30000000000001137,
          "durationTicks": 72,
          "midi": 65,
          "name": "F4",
          "ticks": 34320,
          "time": 143,
          "velocity": 0.8976377952755905
        },
        {
          "duration": 0.4333333333333371,
          "durationTicks": 104,
          "midi": 67,
          "name": "G4",
          "ticks": 34440,
          "time": 143.5,
          "velocity": 0.8976377952755905
        },
        {
          "duration": 0.4333333333333371,
          "durationTicks": 104,
          "midi": 69,
          "name": "A4",
          "ticks": 34560,
          "time": 144,
          "velocity": 0.889763779527559
        },
        {
          "duration": 0.4333333333333371,
          "durationTicks": 104,
          "midi": 67,
          "name": "G4",
          "ticks": 34680,
          "time": 144.5,
          "velocity": 0.889763779527559
        },
        {
          "duration": 0.4333333333333371,
          "durationTicks": 104,
          "midi": 65,
          "name": "F4",
          "ticks": 34800,
          "time": 145,
          "velocity": 0.8976377952755905
        },
        {
          "duration": 0.4333333333333371,
          "durationTicks": 104,
          "midi": 67,
          "name": "G4",
          "ticks": 34920,
          "time": 145.5,
          "velocity": 0.889763779527559
        },
        {
          "duration": 0.44999999999998863,
          "durationTicks": 108,
          "midi": 70,
          "name": "A#4",
          "ticks": 35040,
          "time": 146,
          "velocity": 0.889763779527559
        },
        {
          "duration": 0.4333333333333371,
          "durationTicks": 104,
          "midi": 67,
          "name": "G4",
          "ticks": 35160,
          "time": 146.5,
          "velocity": 0.889763779527559
        },
        {
          "duration": 0.4333333333333371,
          "durationTicks": 104,
          "midi": 65,
          "name": "F4",
          "ticks": 35280,
          "time": 147,
          "velocity": 0.889763779527559
        },
        {
          "duration": 0.4333333333333371,
          "durationTicks": 104,
          "midi": 67,
          "name": "G4",
          "ticks": 35400,
          "time": 147.5,
          "velocity": 0.8976377952755905
        },
        {
          "duration": 1.7833333333333314,
          "durationTicks": 428,
          "midi": 67,
          "name": "G4",
          "ticks": 35520,
          "time": 148,
          "velocity": 0.889763779527559
        }
      ]
    },
    {
      "channel": 0,
      "controlChanges": {
        "0": [
          {
            "number": 0,
            "ticks": 0,
            "time": 0,
            "value": 0
          }
        ]
      },
      "pitchBends": [],
      "instrument": {
        "family": "piano",
        "number": 0,
        "name": "acoustic grand piano"
      },
      "name": "11",
      "notes": [],
      "endOfTrackTicks": 49372
    },
    {
      "channel": 11,
      "controlChanges": {
        "7": [
          {
            "number": 7,
            "ticks": 0,
            "time": 0,
            "value": 0.7007874015748031
          }
        ],
        "10": [
          {
            "number": 10,
            "ticks": 0,
            "time": 0,
            "value": 0.5039370078740157
          }
        ],
        "91": [
          {
            "number": 91,
            "ticks": 0,
            "time": 0,
            "value": 0.31496062992125984
          }
        ],
        "93": [
          {
            "number": 93,
            "ticks": 0,
            "time": 0,
            "value": 0
          }
        ]
      },
      "pitchBends": [],
      "instrument": {
        "family": "ensemble",
        "number": 52,
        "name": "choir aahs"
      },
      "name": "",
      "notes": [
        {
          "duration": 0.3333333333333428,
          "durationTicks": 80,
          "midi": 62,
          "name": "D4",
          "ticks": 43680,
          "time": 182,
          "velocity": 0.8346456692913385
        },
        {
          "duration": 0.11666666666667425,
          "durationTicks": 28,
          "midi": 62,
          "name": "D4",
          "ticks": 43860,
          "time": 182.75,
          "velocity": 0.8346456692913385
        },
        {
          "duration": 0.3333333333333428,
          "durationTicks": 80,
          "midi": 62,
          "name": "D4",
          "ticks": 43920,
          "time": 183,
          "velocity": 0.8346456692913385
        },
        {
          "duration": 0.26666666666667993,
          "durationTicks": 64,
          "midi": 60,
          "name": "C4",
          "ticks": 44040,
          "time": 183.5,
          "velocity": 0.8346456692913385
        },
        {
          "duration": 0.30000000000001137,
          "durationTicks": 72,
          "midi": 62,
          "name": "D4",
          "ticks": 44160,
          "time": 184,
          "velocity": 0.8346456692913385
        },
        {
          "duration": 0.11666666666667425,
          "durationTicks": 28,
          "midi": 62,
          "name": "D4",
          "ticks": 44340,
          "time": 184.75,
          "velocity": 0.8346456692913385
        },
        {
          "duration": 0.30000000000001137,
          "durationTicks": 72,
          "midi": 62,
          "name": "D4",
          "ticks": 44400,
          "time": 185,
          "velocity": 0.8346456692913385
        },
        {
          "duration": 0.30000000000001137,
          "durationTicks": 72,
          "midi": 63,
          "name": "D#4",
          "ticks": 44520,
          "time": 185.5,
          "velocity": 0.8346456692913385
        },
        {
          "duration": 0.30000000000001137,
          "durationTicks": 72,
          "midi": 60,
          "name": "C4",
          "ticks": 44640,
          "time": 186,
          "velocity": 0.8346456692913385
        },
        {
          "duration": 0.11666666666667425,
          "durationTicks": 28,
          "midi": 60,
          "name": "C4",
          "ticks": 44820,
          "time": 186.75,
          "velocity": 0.8346456692913385
        },
        {
          "duration": 0.30000000000001137,
          "durationTicks": 72,
          "midi": 60,
          "name": "C4",
          "ticks": 44880,
          "time": 187,
          "velocity": 0.8346456692913385
        },
        {
          "duration": 0.30000000000001137,
          "durationTicks": 72,
          "midi": 58,
          "name": "A#3",
          "ticks": 45000,
          "time": 187.5,
          "velocity": 0.8346456692913385
        },
        {
          "duration": 0.30000000000001137,
          "durationTicks": 72,
          "midi": 60,
          "name": "C4",
          "ticks": 45120,
          "time": 188,
          "velocity": 0.8346456692913385
        },
        {
          "duration": 0.13333333333332575,
          "durationTicks": 32,
          "midi": 60,
          "name": "C4",
          "ticks": 45300,
          "time": 188.75,
          "velocity": 0.8346456692913385
        },
        {
          "duration": 0.30000000000001137,
          "durationTicks": 72,
          "midi": 60,
          "name": "C4",
          "ticks": 45360,
          "time": 189,
          "velocity": 0.8346456692913385
        },
        {
          "duration": 0.30000000000001137,
          "durationTicks": 72,
          "midi": 62,
          "name": "D4",
          "ticks": 45480,
          "time": 189.5,
          "velocity": 0.8346456692913385
        },
        {
          "duration": 0.3333333333333428,
          "durationTicks": 80,
          "midi": 58,
          "name": "A#3",
          "ticks": 45600,
          "time": 190,
          "velocity": 0.8346456692913385
        },
        {
          "duration": 0.3333333333333428,
          "durationTicks": 80,
          "midi": 62,
          "name": "D4",
          "ticks": 45840,
          "time": 191,
          "velocity": 0.8346456692913385
        },
        {
          "duration": 0.3166666666666629,
          "durationTicks": 76,
          "midi": 60,
          "name": "C4",
          "ticks": 45960,
          "time": 191.5,
          "velocity": 0.8346456692913385
        },
        {
          "duration": 0.30000000000001137,
          "durationTicks": 72,
          "midi": 62,
          "name": "D4",
          "ticks": 46080,
          "time": 192,
          "velocity": 0.8346456692913385
        },
        {
          "duration": 0.11666666666667425,
          "durationTicks": 28,
          "midi": 62,
          "name": "D4",
          "ticks": 46260,
          "time": 192.75,
          "velocity": 0.8346456692913385
        },
        {
          "duration": 0.30000000000001137,
          "durationTicks": 72,
          "midi": 62,
          "name": "D4",
          "ticks": 46320,
          "time": 193,
          "velocity": 0.8346456692913385
        },
        {
          "duration": 0.30000000000001137,
          "durationTicks": 72,
          "midi": 63,
          "name": "D#4",
          "ticks": 46440,
          "time": 193.5,
          "velocity": 0.8346456692913385
        },
        {
          "duration": 0.30000000000001137,
          "durationTicks": 72,
          "midi": 60,
          "name": "C4",
          "ticks": 46560,
          "time": 194,
          "velocity": 0.8346456692913385
        },
        {
          "duration": 0.11666666666667425,
          "durationTicks": 28,
          "midi": 60,
          "name": "C4",
          "ticks": 46740,
          "time": 194.75,
          "velocity": 0.8346456692913385
        },
        {
          "duration": 0.30000000000001137,
          "durationTicks": 72,
          "midi": 60,
          "name": "C4",
          "ticks": 46800,
          "time": 195,
          "velocity": 0.8346456692913385
        },
        {
          "duration": 0.30000000000001137,
          "durationTicks": 72,
          "midi": 58,
          "name": "A#3",
          "ticks": 46920,
          "time": 195.5,
          "velocity": 0.8346456692913385
        },
        {
          "duration": 0.30000000000001137,
          "durationTicks": 72,
          "midi": 60,
          "name": "C4",
          "ticks": 47040,
          "time": 196,
          "velocity": 0.8346456692913385
        },
        {
          "duration": 0.13333333333332575,
          "durationTicks": 32,
          "midi": 60,
          "name": "C4",
          "ticks": 47220,
          "time": 196.75,
          "velocity": 0.8346456692913385
        },
        {
          "duration": 0.30000000000001137,
          "durationTicks": 72,
          "midi": 60,
          "name": "C4",
          "ticks": 47280,
          "time": 197,
          "velocity": 0.8346456692913385
        },
        {
          "duration": 0.30000000000001137,
          "durationTicks": 72,
          "midi": 62,
          "name": "D4",
          "ticks": 47400,
          "time": 197.5,
          "velocity": 0.8346456692913385
        },
        {
          "duration": 0.3333333333333428,
          "durationTicks": 80,
          "midi": 55,
          "name": "G3",
          "ticks": 47520,
          "time": 198,
          "velocity": 0.8346456692913385
        },
        {
          "duration": 0.3333333333333428,
          "durationTicks": 80,
          "midi": 62,
          "name": "D4",
          "ticks": 47760,
          "time": 199,
          "velocity": 0.8346456692913385
        },
        {
          "duration": 0.26666666666667993,
          "durationTicks": 64,
          "midi": 60,
          "name": "C4",
          "ticks": 47880,
          "time": 199.5,
          "velocity": 0.8346456692913385
        },
        {
          "duration": 0.30000000000001137,
          "durationTicks": 72,
          "midi": 62,
          "name": "D4",
          "ticks": 48000,
          "time": 200,
          "velocity": 0.8346456692913385
        },
        {
          "duration": 0.11666666666667425,
          "durationTicks": 28,
          "midi": 62,
          "name": "D4",
          "ticks": 48180,
          "time": 200.75,
          "velocity": 0.8346456692913385
        },
        {
          "duration": 0.30000000000001137,
          "durationTicks": 72,
          "midi": 62,
          "name": "D4",
          "ticks": 48240,
          "time": 201,
          "velocity": 0.8346456692913385
        },
        {
          "duration": 0.30000000000001137,
          "durationTicks": 72,
          "midi": 63,
          "name": "D#4",
          "ticks": 48360,
          "time": 201.5,
          "velocity": 0.8346456692913385
        },
        {
          "duration": 0.30000000000001137,
          "durationTicks": 72,
          "midi": 60,
          "name": "C4",
          "ticks": 48480,
          "time": 202,
          "velocity": 0.8346456692913385
        },
        {
          "duration": 0.13333333333332575,
          "durationTicks": 32,
          "midi": 60,
          "name": "C4",
          "ticks": 48600,
          "time": 202.5,
          "velocity": 0.8346456692913385
        },
        {
          "duration": 0.1666666666666572,
          "durationTicks": 40,
          "midi": 58,
          "name": "A#3",
          "ticks": 48660,
          "time": 202.75,
          "velocity": 0.8346456692913385
        },
        {
          "duration": 0.30000000000001137,
          "durationTicks": 72,
          "midi": 60,
          "name": "C4",
          "ticks": 48720,
          "time": 203,
          "velocity": 0.8346456692913385
        },
        {
          "duration": 0.30000000000001137,
          "durationTicks": 72,
          "midi": 58,
          "name": "A#3",
          "ticks": 48840,
          "time": 203.5,
          "velocity": 0.8346456692913385
        },
        {
          "duration": 0.30000000000001137,
          "durationTicks": 72,
          "midi": 60,
          "name": "C4",
          "ticks": 48960,
          "time": 204,
          "velocity": 0.8346456692913385
        },
        {
          "duration": 0.13333333333332575,
          "durationTicks": 32,
          "midi": 60,
          "name": "C4",
          "ticks": 49080,
          "time": 204.5,
          "velocity": 0.8346456692913385
        },
        {
          "duration": 0.13333333333332575,
          "durationTicks": 32,
          "midi": 58,
          "name": "A#3",
          "ticks": 49140,
          "time": 204.75,
          "velocity": 0.8346456692913385
        },
        {
          "duration": 0.25,
          "durationTicks": 60,
          "midi": 60,
          "name": "C4",
          "ticks": 49200,
          "time": 205,
          "velocity": 0.8346456692913385
        },
        {
          "duration": 0.21666666666666856,
          "durationTicks": 52,
          "midi": 62,
          "name": "D4",
          "ticks": 49320,
          "time": 205.5,
          "velocity": 0.8346456692913385
        }
      ]
    },
    {
      "channel": 0,
      "controlChanges": {
        "0": [
          {
            "number": 0,
            "ticks": 0,
            "time": 0,
            "value": 0
          }
        ]
      },
      "pitchBends": [],
      "instrument": {
        "family": "piano",
        "number": 0,
        "name": "acoustic grand piano"
      },
      "name": "12",
      "notes": [],
      "endOfTrackTicks": 36008
    },
    {
      "channel": 13,
      "controlChanges": {
        "7": [
          {
            "number": 7,
            "ticks": 0,
            "time": 0,
            "value": 0.6850393700787402
          },
          {
            "number": 7,
            "ticks": 35640,
            "time": 148.5,
            "value": 0.6614173228346457
          },
          {
            "number": 7,
            "ticks": 35648,
            "time": 148.53333333333333,
            "value": 0.6456692913385826
          },
          {
            "number": 7,
            "ticks": 35656,
            "time": 148.56666666666666,
            "value": 0.6377952755905512
          },
          {
            "number": 7,
            "ticks": 35664,
            "time": 148.6,
            "value": 0.6220472440944882
          },
          {
            "number": 7,
            "ticks": 35672,
            "time": 148.63333333333333,
            "value": 0.6141732283464567
          },
          {
            "number": 7,
            "ticks": 35688,
            "time": 148.7,
            "value": 0.5984251968503937
          },
          {
            "number": 7,
            "ticks": 35696,
            "time": 148.73333333333332,
            "value": 0.5905511811023622
          },
          {
            "number": 7,
            "ticks": 35704,
            "time": 148.76666666666668,
            "value": 0.5826771653543307
          },
          {
            "number": 7,
            "ticks": 35712,
            "time": 148.8,
            "value": 0.5590551181102362
          },
          {
            "number": 7,
            "ticks": 35728,
            "time": 148.86666666666667,
            "value": 0.5433070866141733
          },
          {
            "number": 7,
            "ticks": 35736,
            "time": 148.9,
            "value": 0.5354330708661418
          },
          {
            "number": 7,
            "ticks": 35744,
            "time": 148.93333333333334,
            "value": 0.5196850393700787
          },
          {
            "number": 7,
            "ticks": 35760,
            "time": 149,
            "value": 0.5118110236220472
          },
          {
            "number": 7,
            "ticks": 35768,
            "time": 149.03333333333333,
            "value": 0.5039370078740157
          },
          {
            "number": 7,
            "ticks": 35776,
            "time": 149.06666666666666,
            "value": 0.4881889763779528
          },
          {
            "number": 7,
            "ticks": 35784,
            "time": 149.1,
            "value": 0.48031496062992124
          },
          {
            "number": 7,
            "ticks": 35792,
            "time": 149.13333333333333,
            "value": 0.4645669291338583
          },
          {
            "number": 7,
            "ticks": 35800,
            "time": 149.16666666666666,
            "value": 0.4566929133858268
          },
          {
            "number": 7,
            "ticks": 35808,
            "time": 149.2,
            "value": 0.4409448818897638
          },
          {
            "number": 7,
            "ticks": 35824,
            "time": 149.26666666666668,
            "value": 0.41732283464566927
          },
          {
            "number": 7,
            "ticks": 35840,
            "time": 149.33333333333334,
            "value": 0.4094488188976378
          },
          {
            "number": 7,
            "ticks": 35848,
            "time": 149.36666666666667,
            "value": 0.3858267716535433
          },
          {
            "number": 7,
            "ticks": 35864,
            "time": 149.43333333333334,
            "value": 0.3779527559055118
          },
          {
            "number": 7,
            "ticks": 35872,
            "time": 149.46666666666667,
            "value": 0.3543307086614173
          },
          {
            "number": 7,
            "ticks": 35888,
            "time": 149.53333333333333,
            "value": 0.33858267716535434
          },
          {
            "number": 7,
            "ticks": 35896,
            "time": 149.56666666666666,
            "value": 0.33070866141732286
          },
          {
            "number": 7,
            "ticks": 35904,
            "time": 149.6,
            "value": 0.31496062992125984
          },
          {
            "number": 7,
            "ticks": 35920,
            "time": 149.66666666666666,
            "value": 0.28346456692913385
          },
          {
            "number": 7,
            "ticks": 35936,
            "time": 149.73333333333332,
            "value": 0.2755905511811024
          },
          {
            "number": 7,
            "ticks": 35944,
            "time": 149.76666666666668,
            "value": 0.25196850393700787
          },
          {
            "number": 7,
            "ticks": 35952,
            "time": 149.8,
            "value": 0.2283464566929134
          },
          {
            "number": 7,
            "ticks": 35976,
            "time": 149.9,
            "value": 0.2125984251968504
          },
          {
            "number": 7,
            "ticks": 35984,
            "time": 149.93333333333334,
            "value": 0.2047244094488189
          },
          {
            "number": 7,
            "ticks": 35992,
            "time": 149.96666666666667,
            "value": 0.18110236220472442
          },
          {
            "number": 7,
            "ticks": 36008,
            "time": 150.03333333333333,
            "value": 0.6850393700787402
          }
        ],
        "10": [
          {
            "number": 10,
            "ticks": 0,
            "time": 0,
            "value": 0.5039370078740157
          }
        ],
        "91": [
          {
            "number": 91,
            "ticks": 0,
            "time": 0,
            "value": 0.31496062992125984
          }
        ],
        "93": [
          {
            "number": 93,
            "ticks": 0,
            "time": 0,
            "value": 0
          }
        ]
      },
      "pitchBends": [],
      "instrument": {
        "family": "guitar",
        "number": 30,
        "name": "distortion guitar"
      },
      "name": "",
      "notes": [
        {
          "duration": 0.30000000000001137,
          "durationTicks": 72,
          "midi": 62,
          "name": "D4",
          "ticks": 31020,
          "time": 129.25,
          "velocity": 0.7716535433070866
        },
        {
          "duration": 0.30000000000001137,
          "durationTicks": 72,
          "midi": 65,
          "name": "F4",
          "ticks": 31080,
          "time": 129.5,
          "velocity": 0.7637795275590551
        },
        {
          "duration": 0.30000000000001137,
          "durationTicks": 72,
          "midi": 62,
          "name": "D4",
          "ticks": 31140,
          "time": 129.75,
          "velocity": 0.7716535433070866
        },
        {
          "duration": 0.30000000000001137,
          "durationTicks": 72,
          "midi": 65,
          "name": "F4",
          "ticks": 31200,
          "time": 130,
          "velocity": 0.7637795275590551
        },
        {
          "duration": 0.30000000000001137,
          "durationTicks": 72,
          "midi": 62,
          "name": "D4",
          "ticks": 31260,
          "time": 130.25,
          "velocity": 0.7637795275590551
        },
        {
          "duration": 0.30000000000001137,
          "durationTicks": 72,
          "midi": 65,
          "name": "F4",
          "ticks": 31320,
          "time": 130.5,
          "velocity": 0.7637795275590551
        },
        {
          "duration": 0.30000000000001137,
          "durationTicks": 72,
          "midi": 62,
          "name": "D4",
          "ticks": 31380,
          "time": 130.75,
          "velocity": 0.7637795275590551
        },
        {
          "duration": 0.4333333333333371,
          "durationTicks": 104,
          "midi": 65,
          "name": "F4",
          "ticks": 31440,
          "time": 131,
          "velocity": 0.7637795275590551
        },
        {
          "duration": 0.30000000000001137,
          "durationTicks": 72,
          "midi": 67,
          "name": "G4",
          "ticks": 31560,
          "time": 131.5,
          "velocity": 0.7716535433070866
        },
        {
          "duration": 1.26666666666668,
          "durationTicks": 304,
          "midi": 70,
          "name": "A#4",
          "ticks": 31680,
          "time": 132,
          "velocity": 0.7716535433070866
        },
        {
          "duration": 0.30000000000001137,
          "durationTicks": 72,
          "midi": 62,
          "name": "D4",
          "ticks": 31980,
          "time": 133.25,
          "velocity": 0.7716535433070866
        },
        {
          "duration": 0.30000000000001137,
          "durationTicks": 72,
          "midi": 65,
          "name": "F4",
          "ticks": 32040,
          "time": 133.5,
          "velocity": 0.7716535433070866
        },
        {
          "duration": 0.30000000000001137,
          "durationTicks": 72,
          "midi": 62,
          "name": "D4",
          "ticks": 32100,
          "time": 133.75,
          "velocity": 0.7716535433070866
        },
        {
          "duration": 0.30000000000001137,
          "durationTicks": 72,
          "midi": 65,
          "name": "F4",
          "ticks": 32160,
          "time": 134,
          "velocity": 0.7637795275590551
        },
        {
          "duration": 0.30000000000001137,
          "durationTicks": 72,
          "midi": 62,
          "name": "D4",
          "ticks": 32220,
          "time": 134.25,
          "velocity": 0.7637795275590551
        },
        {
          "duration": 0.30000000000001137,
          "durationTicks": 72,
          "midi": 65,
          "name": "F4",
          "ticks": 32280,
          "time": 134.5,
          "velocity": 0.7716535433070866
        },
        {
          "duration": 0.30000000000001137,
          "durationTicks": 72,
          "midi": 62,
          "name": "D4",
          "ticks": 32340,
          "time": 134.75,
          "velocity": 0.7716535433070866
        },
        {
          "duration": 0.44999999999998863,
          "durationTicks": 108,
          "midi": 65,
          "name": "F4",
          "ticks": 32400,
          "time": 135,
          "velocity": 0.7716535433070866
        },
        {
          "duration": 0.44999999999998863,
          "durationTicks": 108,
          "midi": 67,
          "name": "G4",
          "ticks": 32520,
          "time": 135.5,
          "velocity": 0.7716535433070866
        },
        {
          "duration": 0.4333333333333371,
          "durationTicks": 104,
          "midi": 69,
          "name": "A4",
          "ticks": 32640,
          "time": 136,
          "velocity": 0.7716535433070866
        },
        {
          "duration": 0.4333333333333371,
          "durationTicks": 104,
          "midi": 67,
          "name": "G4",
          "ticks": 32760,
          "time": 136.5,
          "velocity": 0.7716535433070866
        },
        {
          "duration": 0.30000000000001137,
          "durationTicks": 72,
          "midi": 65,
          "name": "F4",
          "ticks": 32880,
          "time": 137,
          "velocity": 0.7716535433070866
        },
        {
          "duration": 0.30000000000001137,
          "durationTicks": 72,
          "midi": 62,
          "name": "D4",
          "ticks": 32940,
          "time": 137.25,
          "velocity": 0.7716535433070866
        },
        {
          "duration": 0.30000000000001137,
          "durationTicks": 72,
          "midi": 65,
          "name": "F4",
          "ticks": 33000,
          "time": 137.5,
          "velocity": 0.7637795275590551
        },
        {
          "duration": 0.30000000000001137,
          "durationTicks": 72,
          "midi": 62,
          "name": "D4",
          "ticks": 33060,
          "time": 137.75,
          "velocity": 0.7559055118110236
        },
        {
          "duration": 0.30000000000001137,
          "durationTicks": 72,
          "midi": 65,
          "name": "F4",
          "ticks": 33120,
          "time": 138,
          "velocity": 0.7559055118110236
        },
        {
          "duration": 0.30000000000001137,
          "durationTicks": 72,
          "midi": 62,
          "name": "D4",
          "ticks": 33180,
          "time": 138.25,
          "velocity": 0.7559055118110236
        },
        {
          "duration": 0.30000000000001137,
          "durationTicks": 72,
          "midi": 65,
          "name": "F4",
          "ticks": 33240,
          "time": 138.5,
          "velocity": 0.7559055118110236
        },
        {
          "duration": 0.30000000000001137,
          "durationTicks": 72,
          "midi": 62,
          "name": "D4",
          "ticks": 33300,
          "time": 138.75,
          "velocity": 0.7559055118110236
        },
        {
          "duration": 0.4000000000000057,
          "durationTicks": 96,
          "midi": 65,
          "name": "F4",
          "ticks": 33360,
          "time": 139,
          "velocity": 0.7559055118110236
        },
        {
          "duration": 0.46666666666666856,
          "durationTicks": 112,
          "midi": 67,
          "name": "G4",
          "ticks": 33480,
          "time": 139.5,
          "velocity": 0.7559055118110236
        },
        {
          "duration": 1.3833333333333258,
          "durationTicks": 332,
          "midi": 70,
          "name": "A#4",
          "ticks": 33600,
          "time": 140,
          "velocity": 0.7559055118110236
        },
        {
          "duration": 0.30000000000001137,
          "durationTicks": 72,
          "midi": 62,
          "name": "D4",
          "ticks": 33900,
          "time": 141.25,
          "velocity": 0.7559055118110236
        },
        {
          "duration": 0.30000000000001137,
          "durationTicks": 72,
          "midi": 65,
          "name": "F4",
          "ticks": 33960,
          "time": 141.5,
          "velocity": 0.7559055118110236
        },
        {
          "duration": 0.30000000000001137,
          "durationTicks": 72,
          "midi": 62,
          "name": "D4",
          "ticks": 34020,
          "time": 141.75,
          "velocity": 0.7559055118110236
        },
        {
          "duration": 0.30000000000001137,
          "durationTicks": 72,
          "midi": 65,
          "name": "F4",
          "ticks": 34080,
          "time": 142,
          "velocity": 0.7559055118110236
        },
        {
          "duration": 0.30000000000001137,
          "durationTicks": 72,
          "midi": 62,
          "name": "D4",
          "ticks": 34140,
          "time": 142.25,
          "velocity": 0.7559055118110236
        },
        {
          "duration": 0.30000000000001137,
          "durationTicks": 72,
          "midi": 65,
          "name": "F4",
          "ticks": 34200,
          "time": 142.5,
          "velocity": 0.7559055118110236
        },
        {
          "duration": 0.30000000000001137,
          "durationTicks": 72,
          "midi": 62,
          "name": "D4",
          "ticks": 34260,
          "time": 142.75,
          "velocity": 0.7559055118110236
        },
        {
          "duration": 0.30000000000001137,
          "durationTicks": 72,
          "midi": 65,
          "name": "F4",
          "ticks": 34320,
          "time": 143,
          "velocity": 0.7559055118110236
        },
        {
          "duration": 0.4333333333333371,
          "durationTicks": 104,
          "midi": 67,
          "name": "G4",
          "ticks": 34440,
          "time": 143.5,
          "velocity": 0.7559055118110236
        },
        {
          "duration": 0.4333333333333371,
          "durationTicks": 104,
          "midi": 69,
          "name": "A4",
          "ticks": 34560,
          "time": 144,
          "velocity": 0.7559055118110236
        },
        {
          "duration": 0.4333333333333371,
          "durationTicks": 104,
          "midi": 67,
          "name": "G4",
          "ticks": 34680,
          "time": 144.5,
          "velocity": 0.7559055118110236
        },
        {
          "duration": 0.4333333333333371,
          "durationTicks": 104,
          "midi": 65,
          "name": "F4",
          "ticks": 34800,
          "time": 145,
          "velocity": 0.7559055118110236
        },
        {
          "duration": 0.4333333333333371,
          "durationTicks": 104,
          "midi": 67,
          "name": "G4",
          "ticks": 34920,
          "time": 145.5,
          "velocity": 0.7559055118110236
        },
        {
          "duration": 0.44999999999998863,
          "durationTicks": 108,
          "midi": 70,
          "name": "A#4",
          "ticks": 35040,
          "time": 146,
          "velocity": 0.7559055118110236
        },
        {
          "duration": 0.4333333333333371,
          "durationTicks": 104,
          "midi": 67,
          "name": "G4",
          "ticks": 35160,
          "time": 146.5,
          "velocity": 0.7559055118110236
        },
        {
          "duration": 0.4333333333333371,
          "durationTicks": 104,
          "midi": 65,
          "name": "F4",
          "ticks": 35280,
          "time": 147,
          "velocity": 0.7559055118110236
        },
        {
          "duration": 0.4333333333333371,
          "durationTicks": 104,
          "midi": 67,
          "name": "G4",
          "ticks": 35400,
          "time": 147.5,
          "velocity": 0.7637795275590551
        },
        {
          "duration": 1.8499999999999943,
          "durationTicks": 444,
          "midi": 67,
          "name": "G4",
          "ticks": 35520,
          "time": 148,
          "velocity": 0.7637795275590551
        }
      ]
    }
  ]
}